<?xml version="1.0" encoding="UTF-8" standalone="no"?>
<!DOCTYPE svg PUBLIC "-//W3C//DTD SVG 1.1//EN" "http://www.w3.org/Graphics/SVG/1.1/DTD/svg11.dtd">
<svg xmlns="http://www.w3.org/2000/svg" version="1.1" viewBox="0 0 450 228">
<g stroke-width="2.00" fill="none" stroke-linecap="butt">
<path stroke="#f0f0f0" vector-effect="non-scaling-stroke" d="
  M 101.81 0.00
  C 98.68 0.20 96.28 3.13 92.98 5.18
  C 88.77 7.79 85.37 11.94 81.22 14.90
  C 79.97 15.79 79.18 17.02 78.00 18.04"
/>
<path stroke="#858585" vector-effect="non-scaling-stroke" d="
  M 78.00 18.04
  Q 72.38 16.52 67.85 19.83
  C 54.69 29.44 51.62 45.04 50.51 60.75
  Q 48.50 89.13 55.62 114.67
  C 60.08 130.69 71.76 116.53 76.16 110.55
  A 0.30 0.30 0.0 0 1 76.67 110.60
  Q 79.00 115.39 82.79 118.75"
/>
<path stroke="#f0f0f0" vector-effect="non-scaling-stroke" d="
  M 82.79 118.75
  Q 78.38 121.22 79.90 126.34
  C 80.40 128.03 85.88 140.99 85.24 142.07
  Q 84.80 142.83 84.48 142.01
  L 78.06 125.76
  Q 77.71 124.87 77.21 125.69
  L 76.36 127.11
  A 0.89 0.88 -46.5 0 0 76.38 128.07
  C 76.84 128.77 78.89 131.96 78.46 132.64
  A 0.44 0.43 -49.7 0 1 77.77 132.70
  L 75.30 129.96
  A 0.63 0.62 -50.0 0 0 74.31 130.05
  L 70.45 136.24
  A 1.26 1.25 51.3 0 0 70.33 137.34
  C 71.37 140.21 72.87 142.57 73.33 145.54
  Q 73.74 148.15 74.02 150.81
  Q 74.29 153.45 72.69 151.33
  L 67.23 144.13
  Q 66.63 143.34 66.50 144.33
  Q 66.28 145.93 67.30 147.18
  A 0.88 0.86 -56.6 0 1 67.45 147.97
  Q 66.60 150.77 66.95 152.01
  Q 70.26 163.71 72.92 175.50
  Q 73.44 177.79 76.21 178.00"
/>
<path stroke="#858585" vector-effect="non-scaling-stroke" d="
  M 76.21 178.00
  Q 76.28 185.95 76.25 193.92
  C 76.21 202.96 81.03 205.84 88.50 209.04"
/>
<path stroke="#f0f0f0" vector-effect="non-scaling-stroke" d="
  M 88.50 209.04
  Q 88.45 214.71 90.88 219.96
  A 1.18 1.15 -1.6 0 0 91.55 220.58
  C 96.39 222.33 95.54 227.04 99.69 228.00"
/>
<path stroke="#d7d7d7" vector-effect="non-scaling-stroke" d="
  M 131.81 0.00
  C 129.47 1.17 127.33 2.24 124.56 2.14
  Q 120.32 1.99 116.11 2.33
  C 114.77 2.44 108.54 4.62 107.93 5.83
  A 0.62 0.61 16.4 0 0 108.42 6.72
  L 113.47 7.19
  A 1.07 1.06 75.9 0 1 114.25 7.66
  C 115.66 9.84 120.28 10.41 122.71 11.14
  A 0.70 0.70 0.0 0 1 123.20 11.68
  L 123.26 11.99
  A 0.48 0.48 0.0 0 1 122.79 12.56
  L 110.76 12.56
  A 0.56 0.56 0.0 0 0 110.22 13.25
  Q 110.62 14.92 112.38 14.86
  A 0.56 0.55 84.8 0 1 112.95 15.34
  L 113.00 15.68
  A 0.52 0.51 -8.5 0 1 112.57 16.26
  L 105.57 17.44
  Q 105.13 17.52 104.75 17.76
  L 102.91 18.91
  A 0.70 0.70 0.0 0 0 102.76 19.97
  L 104.47 21.86
  A 0.53 0.53 0.0 0 0 105.26 21.86
  Q 106.19 20.83 107.50 20.79"
/>
<path stroke="#f0f0f0" vector-effect="non-scaling-stroke" d="
  M 107.50 20.79
  Q 106.01 21.49 105.04 22.78
  Q 99.04 30.81 91.87 38.83
  A 0.81 0.81 0.0 0 0 92.27 40.15
  Q 97.21 41.43 97.96 36.89
  A 1.70 1.69 -17.6 0 1 98.45 35.95
  L 105.21 29.25"
/>
<path stroke="#d7d7d7" vector-effect="non-scaling-stroke" d="
  M 105.21 29.25
  C 105.17 30.82 103.25 33.68 103.51 34.54
  A 0.66 0.66 0.0 0 0 104.18 35.01
  C 109.00 34.76 112.55 35.52 117.68 34.15
  Q 120.89 33.30 123.68 35.73
  A 1.41 1.38 65.2 0 0 124.55 36.06
  C 132.00 36.15 136.93 36.47 142.68 33.98
  A 1.35 1.32 42.6 0 1 143.64 33.95
  L 148.55 35.72
  A 1.26 1.23 -49.2 0 0 149.60 35.63
  Q 152.47 34.04 155.38 35.46
  A 1.81 1.77 54.8 0 0 156.30 35.63
  Q 160.69 35.24 165.01 34.27
  Q 169.09 33.36 182.89 33.74
  C 186.43 33.84 196.77 36.38 199.30 32.74
  A 1.04 1.03 -74.9 0 1 200.07 32.29
  Q 205.73 31.82 208.81 32.18
  C 216.83 33.13 226.12 32.47 232.72 32.72
  Q 241.52 33.06 250.18 33.22
  A 1.76 1.74 -81.4 0 0 251.90 31.94
  Q 252.84 28.69 251.70 28.28
  Q 248.75 27.21 245.66 26.70
  A 0.26 0.24 -17.0 0 1 245.51 26.63
  L 245.10 26.25
  Q 244.87 26.04 244.56 25.97
  C 241.56 25.29 238.98 24.02 235.98 23.75
  C 227.00 22.94 218.24 21.53 209.09 21.47
  C 207.44 21.47 198.38 21.27 198.24 20.62
  A 0.49 0.49 0.0 0 1 198.67 20.02
  Q 202.30 19.64 205.94 19.42
  C 213.67 18.95 219.99 16.48 227.50 18.90
  Q 227.97 19.06 228.45 18.96
  C 231.65 18.29 233.25 20.95 235.39 22.33
  A 0.78 0.76 42.9 0 0 236.26 22.31
  C 237.64 21.28 235.18 19.24 234.16 18.87
  A 0.50 0.50 0.0 0 1 233.87 18.21
  Q 234.23 17.32 235.52 17.46
  C 239.56 17.89 242.27 19.44 246.71 17.56
  A 1.12 1.09 -5.2 0 0 247.35 16.81
  Q 247.68 15.52 246.30 14.81
  Q 245.92 14.61 245.48 14.61
  Q 242.04 14.59 238.92 13.16
  A 0.76 0.75 -73.0 0 1 238.49 12.34
  L 239.23 8.12
  A 1.35 1.35 0.0 0 0 238.22 6.58
  L 232.77 5.23
  A 2.34 2.33 -87.6 0 1 231.02 3.32
  Q 230.84 2.12 232.28 1.75
  Q 232.74 1.63 233.22 1.61
  Q 235.53 1.50 237.32 0.01"
/>
<path stroke="#f0f0f0" vector-effect="non-scaling-stroke" d="
  M 355.56 0.00
  Q 357.00 0.58 357.04 2.30
  Q 357.06 2.83 357.43 2.45
  Q 358.01 1.84 357.99 0.89
  A 0.62 0.61 -7.7 0 1 358.46 0.28
  Q 360.31 -0.21 361.30 1.44
  Q 365.58 8.62 369.77 15.88
  A 1.86 1.81 -60.5 0 1 370.01 16.79
  L 369.99 18.44
  A 1.54 1.46 28.2 0 0 370.28 19.32
  C 377.60 29.26 384.73 38.39 394.53 48.22
  C 401.35 55.07 399.63 62.91 402.81 71.15
  C 404.37 75.19 399.35 80.12 405.29 82.73
  A 0.30 0.29 -80.8 0 0 405.70 82.43
  Q 404.62 72.40 403.89 62.29
  C 403.67 59.19 404.89 56.48 404.69 53.10
  A 0.35 0.34 -82.6 0 1 405.14 52.75
  C 408.71 53.93 407.32 58.26 408.34 60.85
  A 0.60 0.60 0.0 0 0 409.08 61.20
  Q 410.50 60.75 411.10 59.45
  A 1.04 1.01 -47.9 0 0 411.07 58.54
  L 409.94 56.45
  Q 409.42 55.50 410.44 55.89
  C 415.15 57.70 411.51 64.30 412.96 65.37
  A 0.37 0.37 0.0 0 0 413.53 65.18
  L 414.29 62.52
  A 0.62 0.62 0.0 0 1 414.99 62.07
  C 416.37 62.31 416.99 62.97 417.07 64.46
  C 417.53 73.06 418.98 80.01 417.52 87.50
  A 1.56 1.55 -52.4 0 0 417.64 88.44
  C 419.39 92.23 419.95 95.28 415.58 97.50
  A 0.86 0.84 -11.6 0 0 415.10 98.21
  C 414.71 104.18 420.59 105.64 417.51 112.56
  C 417.05 113.59 417.26 114.50 417.86 115.34
  A 0.44 0.44 0.0 0 0 418.60 115.31
  L 419.42 113.88
  Q 419.80 113.23 420.11 113.92
  L 420.34 114.42
  A 1.19 1.17 44.7 0 1 420.35 115.34
  Q 418.60 119.58 422.27 122.05
  A 0.79 0.78 25.0 0 1 422.59 122.91
  Q 419.25 135.24 418.74 151.74
  Q 418.44 161.63 414.59 174.22
  Q 414.44 174.71 414.22 174.25
  L 412.56 170.89
  Q 411.83 169.40 411.37 170.99
  C 410.44 174.22 410.55 177.16 408.85 180.08
  C 406.61 183.93 403.70 187.44 401.04 191.00"
/>
<path stroke="#d7d7d7" vector-effect="non-scaling-stroke" d="
  M 401.04 191.00
  C 399.44 188.21 396.81 187.60 394.09 189.57
  C 389.78 192.67 386.98 196.23 381.01 196.87
  Q 380.50 196.92 380.83 196.54
  C 383.90 192.90 389.74 189.03 390.65 186.49
  Q 390.82 186.02 391.19 185.68
  L 395.14 182.03
  A 0.92 0.91 -27.2 0 0 395.42 181.18
  C 394.38 176.27 388.74 180.83 386.24 180.85
  C 381.05 180.90 382.65 172.79 383.77 169.96
  A 0.73 0.73 0.0 0 0 383.02 168.97
  L 378.50 169.42
  A 1.71 1.67 -67.1 0 0 377.59 169.80
  Q 375.27 171.78 372.98 169.93
  A 1.09 1.07 59.2 0 0 372.10 169.70
  L 370.42 169.99
  Q 369.19 170.20 370.09 169.34
  L 372.47 167.06
  A 0.56 0.56 0.0 0 0 372.29 166.13
  L 369.45 165.01
  A 0.59 0.59 0.0 0 0 368.67 165.37
  Q 367.77 167.98 364.94 168.49
  Q 363.61 168.74 364.43 167.66
  L 369.12 161.46
  A 1.17 1.12 17.1 0 1 370.02 161.01
  L 370.55 161.00
  A 0.76 0.74 -82.4 0 0 371.27 160.44
  Q 371.83 158.37 370.65 156.58
  A 1.18 1.18 0.0 0 1 370.47 155.75
  Q 370.87 153.21 368.88 152.29
  Q 367.94 151.86 367.27 151.08
  L 363.25 146.35
  A 1.26 1.25 -21.9 0 0 362.24 145.92
  L 356.41 146.29
  A 0.76 0.75 -9.3 0 1 355.63 145.74
  L 355.49 145.20
  Q 355.01 143.42 356.78 143.93
  Q 359.61 144.75 361.77 142.84
  Q 362.31 142.37 361.61 142.19
  C 359.56 141.65 357.68 142.72 355.90 142.70
  Q 353.59 142.68 351.26 142.70
  A 0.78 0.77 -4.8 0 1 350.49 142.06
  L 350.21 140.51
  A 0.82 0.81 -22.2 0 1 350.56 139.68
  Q 352.50 138.37 353.17 136.26
  Q 353.31 135.81 353.62 135.46
  L 355.51 133.30
  A 0.92 0.90 54.1 0 0 355.66 132.31
  C 354.72 130.17 350.36 131.19 348.48 131.81
  A 1.87 1.75 9.6 0 0 347.68 132.34
  C 345.82 134.47 342.94 135.66 341.19 136.97
  Q 337.88 139.43 334.55 141.95
  Q 333.30 142.90 334.21 141.62
  Q 335.77 139.44 337.95 137.86
  A 0.13 0.12 -20.8 0 0 338.00 137.76
  L 338.01 137.41
  Q 338.03 136.74 337.50 137.16
  L 335.61 138.68
  A 0.38 0.38 0.0 0 1 335.17 138.71
  L 334.91 138.57
  A 0.17 0.17 0.0 0 1 334.88 138.29
  L 340.24 133.50
  A 0.67 0.66 38.2 0 0 340.11 132.42
  L 335.74 130.03
  A 0.90 0.88 -44.4 0 0 334.89 130.03
  Q 333.26 130.93 331.63 133.12
  Q 327.14 139.12 318.94 147.79
  C 316.02 150.86 313.30 152.19 309.34 152.95
  C 307.05 153.38 297.69 155.63 296.07 154.79
  A 0.35 0.35 0.0 0 1 296.00 154.21
  C 299.71 151.11 294.55 146.70 300.77 144.88
  C 307.00 143.05 309.58 138.28 316.30 138.46
  A 0.68 0.67 5.3 0 0 316.99 137.89
  L 317.11 137.05
  A 0.61 0.61 0.0 0 1 317.86 136.55
  Q 321.32 137.40 324.49 135.80
  A 0.39 0.38 67.2 0 0 324.68 135.32
  C 324.16 133.99 320.58 137.00 319.67 135.16
  A 0.85 0.85 0.0 0 1 319.88 134.13
  L 321.81 132.51
  Q 322.85 131.63 321.53 131.97
  L 317.34 133.05
  A 0.81 0.78 -31.1 0 1 316.65 132.89
  C 314.20 130.88 314.04 134.52 311.38 133.91
  A 0.43 0.43 0.0 0 1 311.09 133.30
  L 311.99 131.53
  Q 313.02 129.52 311.36 131.06
  L 305.79 136.22
  A 1.22 1.22 0.0 0 1 304.94 136.54
  C 301.83 136.47 298.63 137.88 296.03 138.19
  Q 274.23 140.84 258.00 145.27
  Q 254.12 146.32 251.97 146.73
  C 247.71 147.53 245.37 150.01 240.72 150.25
  Q 237.33 150.43 234.04 151.21"
/>
<path stroke="#767676" vector-effect="non-scaling-stroke" d="
  M 234.04 151.21
  Q 225.03 152.89 216.28 155.59
  A 0.36 0.36 0.0 0 1 215.81 155.25
  L 215.59 148.03
  A 1.15 1.15 0.0 0 0 215.14 147.16
  C 211.35 144.29 183.50 149.96 177.69 151.25
  C 175.08 151.82 172.69 153.07 170.18 154.08
  Q 169.58 154.32 169.75 153.70
  Q 170.54 150.74 169.35 147.97
  A 1.41 1.41 0.0 0 0 168.65 147.24
  C 161.87 144.03 142.08 150.19 134.75 152.51
  C 132.16 153.32 122.17 158.99 123.02 162.34
  A 0.56 0.55 73.6 0 0 123.72 162.73
  L 125.09 162.27
  A 0.43 0.42 76.2 0 1 125.64 162.61
  Q 126.24 166.86 125.84 171.13
  Q 125.80 171.63 125.52 172.04
  L 121.99 177.24
  Q 121.21 178.39 122.59 178.22
  L 125.31 177.87
  A 0.40 0.40 0.0 0 1 125.75 178.32
  C 124.30 188.26 118.33 200.90 106.28 201.02
  C 99.43 201.09 86.13 197.22 85.76 188.50
  Q 85.24 176.23 86.68 154.93
  Q 86.77 153.62 88.07 150.44
  C 89.37 147.26 91.03 147.53 94.01 147.39
  C 97.92 147.19 111.91 145.91 107.16 153.96
  Q 104.50 158.47 105.64 162.89
  Q 106.22 165.18 107.96 163.58
  C 111.18 160.59 115.03 157.47 116.34 153.24
  C 118.03 147.80 119.82 138.70 111.23 138.07
  C 105.19 137.64 100.65 137.05 95.36 140.04
  Q 86.85 144.84 81.34 153.11
  C 76.58 160.27 76.26 169.70 76.21 178.00"
/>
<path stroke="#767676" vector-effect="non-scaling-stroke" d="
  M 82.79 118.75
  C 89.23 123.91 95.28 122.66 101.10 117.22
  Q 111.63 107.39 117.83 94.20
  Q 118.05 93.73 118.11 94.25
  C 118.29 95.94 117.51 97.68 117.51 99.19
  Q 117.48 111.01 117.51 122.01
  Q 117.52 123.50 118.80 122.74
  Q 126.67 118.07 129.54 109.75"
/>
<path stroke="#d7d7d7" vector-effect="non-scaling-stroke" d="
  M 129.54 109.75
  L 130.50 109.21"
/>
<path stroke="#767676" vector-effect="non-scaling-stroke" d="
  M 130.50 109.21
  L 132.77 111.49
  A 0.62 0.62 0.0 0 0 133.58 111.55
  C 135.30 110.29 141.15 105.58 141.66 103.12
  A 1.02 1.01 29.0 0 0 141.40 102.23
  Q 138.66 99.31 137.65 95.37
  A 1.41 1.38 53.7 0 1 137.80 94.32
  L 141.17 88.54
  Q 141.56 87.86 141.61 88.64
  C 141.85 92.77 141.51 96.49 142.33 100.75
  C 143.63 107.45 142.55 114.40 145.89 120.65
  A 0.50 0.49 61.2 0 0 146.57 120.85
  Q 151.93 117.87 155.00 112.71"
/>
<path stroke="#d7d7d7" vector-effect="non-scaling-stroke" d="
  M 155.00 112.71
  L 155.50 112.71"
/>
<path stroke="#767676" vector-effect="non-scaling-stroke" d="
  M 155.50 112.71
  C 156.38 115.55 155.17 118.20 156.60 121.10
  A 1.56 1.56 0.0 0 0 158.73 121.79
  Q 164.45 118.78 167.45 113.10
  A 0.88 0.87 -70.4 0 0 166.85 111.83
  L 165.65 111.58
  A 0.68 0.67 -84.2 0 1 165.12 110.92
  L 165.21 98.58
  A 0.88 0.87 -14.4 0 1 165.67 97.81
  L 175.78 92.30
  A 0.31 0.31 0.0 0 1 176.24 92.53
  Q 176.62 95.44 176.51 98.35
  C 176.25 104.60 176.46 110.36 176.58 116.43
  Q 176.62 118.65 179.58 120.82
  A 0.81 0.80 48.3 0 0 180.43 120.87
  Q 189.95 115.65 192.80 105.17
  C 192.86 104.97 192.97 104.96 193.14 105.03
  A 0.13 0.12 9.7 0 1 193.23 105.15
  Q 193.47 109.14 192.00 112.76
  C 191.35 114.34 191.05 115.88 192.19 117.08
  Q 193.67 118.66 195.83 118.81
  Q 203.79 119.35 210.93 119.93
  C 213.66 120.15 216.22 118.99 219.22 119.24
  A 1.11 1.07 24.5 0 0 220.07 118.94
  C 222.78 116.31 226.21 114.82 227.71 111.03
  Q 228.43 109.21 226.54 109.75
  C 219.16 111.85 213.21 109.93 205.85 109.62
  A 0.55 0.55 0.0 0 1 205.32 109.06
  L 205.46 89.98
  A 1.23 1.23 0.0 0 1 206.32 88.81
  Q 213.19 86.68 220.31 87.55
  A 1.49 1.48 31.2 0 0 221.30 87.31
  Q 226.06 84.09 228.70 79.02
  Q 229.46 77.55 227.81 77.66
  Q 215.75 78.51 204.27 82.43
  A 0.56 0.56 0.0 0 1 203.53 81.98
  L 202.25 73.09
  A 0.71 0.69 -13.8 0 1 202.72 72.34
  Q 211.96 69.25 221.73 69.49
  A 1.10 1.08 -17.6 0 1 222.55 69.91
  L 223.61 71.31
  A 0.60 0.59 -39.2 0 0 224.47 71.39
  Q 229.19 67.27 232.81 62.20"
/>
<path stroke="#d7d7d7" vector-effect="non-scaling-stroke" d="
  M 232.81 62.20
  Q 234.24 60.26 236.63 59.51
  A 0.33 0.33 0.0 0 0 236.82 59.03
  L 236.32 58.14
  A 0.74 0.73 -36.9 0 1 236.45 57.24
  C 239.28 54.56 237.18 51.73 242.18 50.06
  C 248.64 47.91 245.95 44.84 241.01 44.75
  A 1.11 1.08 -69.1 0 0 240.15 45.15
  Q 238.66 46.96 236.78 45.60
  A 1.07 1.06 -73.0 0 1 236.33 44.75
  Q 236.31 43.19 237.88 42.40
  Q 238.94 41.86 237.75 41.75
  Q 236.59 41.64 235.58 42.10
  A 4.25 4.18 -53.6 0 1 233.46 42.44
  C 226.86 41.74 220.12 39.50 213.53 39.37
  C 206.16 39.22 198.56 38.54 191.48 38.70
  C 185.39 38.84 178.98 38.57 172.99 39.72
  C 166.31 40.99 160.89 38.48 154.00 40.80
  A 0.88 0.87 58.1 0 1 153.09 40.58
  Q 150.86 38.31 147.72 39.25
  A 1.80 1.74 44.0 0 1 146.71 39.25
  L 142.51 38.03
  A 1.45 1.44 39.6 0 0 141.45 38.13
  Q 138.16 39.80 134.43 39.69
  Q 133.92 39.67 133.48 39.91
  C 128.85 42.34 124.37 41.45 120.38 41.80
  Q 115.25 42.26 110.06 42.30
  A 0.62 0.62 0.0 0 0 109.47 42.78
  C 108.94 45.15 106.33 44.35 105.87 46.26
  A 1.42 1.39 77.6 0 1 105.39 47.03
  L 100.75 50.71"
/>
<path stroke="#f0f0f0" vector-effect="non-scaling-stroke" d="
  M 100.75 50.71
  C 95.76 52.54 91.47 56.44 86.81 59.10
  A 0.15 0.15 0.0 0 1 86.59 59.02
  L 86.49 58.72
  A 0.52 0.51 -29.5 0 1 86.65 58.15
  Q 87.64 57.33 87.77 56.15
  A 1.42 1.42 0.0 0 0 87.55 55.21
  C 84.30 50.14 92.07 45.08 94.88 42.60
  Q 95.34 42.19 94.74 42.05
  Q 91.94 41.39 91.09 43.86
  Q 90.86 44.54 90.39 43.99
  Q 89.87 43.39 90.49 42.45
  A 0.27 0.27 0.0 0 0 90.37 42.06
  C 88.01 40.98 75.48 60.61 74.16 63.11
  C 72.89 65.54 71.32 67.14 69.59 69.16
  A 1.33 1.27 66.4 0 0 69.28 70.01
  Q 69.29 72.69 66.65 73.53
  A 1.00 0.99 85.8 0 1 65.37 72.42
  L 65.55 71.35
  A 1.40 1.39 -13.9 0 1 66.10 70.45
  L 68.21 68.87
  A 0.63 0.62 -30.5 0 0 68.41 68.12
  C 67.61 66.26 66.01 64.60 66.97 62.39
  C 68.22 59.49 71.21 59.52 71.93 55.02
  Q 72.22 53.26 70.53 52.69
  L 67.01 51.49"
/>
<path stroke="#767676" vector-effect="non-scaling-stroke" d="
  M 67.01 51.49
  C 72.87 47.62 75.89 43.42 76.95 36.16
  Q 78.26 27.16 78.00 18.04"
/>
<path stroke="#f0f0f0" vector-effect="non-scaling-stroke" d="
  M 88.6776 12.8863
  A 2.16 0.81 -42.3 0 0 86.5349 13.7409
  A 2.16 0.81 -42.3 0 0 85.4824 15.7937
  A 2.16 0.81 -42.3 0 0 87.6251 14.9391
  A 2.16 0.81 -42.3 0 0 88.6776 12.8863"
/>
<path stroke="#d7d7d7" vector-effect="non-scaling-stroke" d="
  M 301.50 109.71
  L 301.79 110.00"
/>
<path stroke="#767676" vector-effect="non-scaling-stroke" d="
  M 301.79 110.00
  Q 299.72 113.06 299.23 115.24
  Q 298.53 118.38 301.67 119.05
  Q 309.68 120.77 317.71 119.48
  C 326.73 118.03 334.25 116.81 339.31 108.17
  Q 339.92 107.13 338.76 107.45
  Q 333.40 108.92 327.83 110.11
  C 323.66 110.99 319.55 110.77 315.30 110.72
  Q 314.21 110.71 315.05 110.03
  C 319.38 106.50 318.99 99.93 317.82 95.01
  A 0.93 0.90 61.3 0 1 318.05 94.17
  C 321.08 91.02 323.47 88.19 327.47 85.82
  Q 333.81 82.07 338.36 76.16
  A 0.55 0.55 0.0 0 0 338.31 75.43
  L 338.10 75.22
  A 0.82 0.81 59.5 0 0 337.30 75.01
  Q 327.32 77.76 317.02 78.84
  Q 314.94 79.06 314.83 76.98
  L 314.71 74.75
  A 0.54 0.54 0.0 0 0 314.00 74.27
  L 312.92 74.64
  A 0.45 0.44 -15.0 0 1 312.34 74.31
  Q 311.58 70.65 314.05 68.29
  Q 322.02 60.66 333.48 62.02
  A 1.07 1.06 -13.1 0 1 334.24 62.49
  L 335.50 64.35
  A 0.58 0.58 0.0 0 0 336.41 64.42
  C 339.34 61.23 341.66 60.71 344.56 55.93
  A 1.00 0.98 -41.8 0 0 344.62 55.03
  C 342.47 50.02 330.23 53.46 326.78 55.49
  Q 322.79 57.82 318.80 60.10
  C 308.95 65.72 301.81 75.20 302.76 87.05
  C 303.32 94.13 300.00 102.16 296.83 108.38
  Q 296.58 108.85 296.48 108.33
  Q 296.17 106.79 296.23 103.50
  C 296.49 90.11 297.60 75.15 303.06 64.01
  Q 304.15 61.80 301.86 62.73
  Q 297.40 64.55 294.78 68.51
  Q 284.97 83.28 274.12 97.35
  Q 273.75 97.84 273.75 97.23
  L 273.75 70.03
  A 0.43 0.43 0.0 0 0 273.14 69.64
  Q 263.33 74.13 264.22 84.74
  Q 264.84 92.10 264.39 106.41
  A 0.82 0.79 78.3 0 1 263.95 107.10
  Q 259.83 109.15 257.47 113.04
  Q 257.16 113.56 257.13 112.96
  C 256.43 99.55 255.04 83.30 260.20 74.71
  C 263.08 69.92 263.97 66.21 263.33 61.02
  Q 263.01 58.37 260.60 59.53
  C 250.20 64.57 250.36 72.25 248.59 82.49
  A 0.91 0.90 -1.5 0 1 247.88 83.23
  L 241.66 84.59
  A 0.53 0.52 82.0 0 1 241.03 84.11
  C 240.64 77.20 242.52 69.24 243.34 62.25
  Q 243.39 61.74 242.94 61.97
  C 238.71 64.02 234.85 67.32 233.87 72.20
  C 231.05 86.36 231.49 99.87 231.29 113.75
  Q 231.24 117.73 231.71 120.61
  Q 232.34 124.46 235.40 122.04
  Q 241.01 117.61 244.96 111.69
  A 0.44 0.44 0.0 0 0 244.77 111.05
  L 244.43 110.90
  A 1.19 1.16 -44.3 0 0 243.50 110.90
  L 241.80 111.65
  A 0.58 0.57 -11.6 0 1 241.00 111.13
  L 241.00 92.63
  A 1.12 1.11 76.4 0 1 241.60 91.64
  L 247.90 88.40
  Q 248.53 88.07 248.39 88.77
  C 246.49 98.35 247.49 109.72 247.50 119.56
  Q 247.50 121.60 248.49 122.65
  C 251.85 126.21 256.70 119.53 259.22 117.54
  Q 259.68 117.18 259.50 117.74
  L 258.91 119.61
  Q 258.56 120.74 259.61 120.20
  Q 263.13 118.39 265.79 115.42
  A 0.53 0.53 0.0 0 1 266.51 115.35
  C 269.02 117.29 271.44 118.04 274.41 116.22
  Q 279.31 113.22 282.08 108.08
  Q 282.43 107.43 281.71 107.60
  Q 276.02 108.92 274.74 103.00
  A 1.58 1.53 57.7 0 1 275.00 101.77
  L 289.99 81.24
  Q 290.84 80.08 290.49 81.48
  Q 286.17 98.59 286.84 116.22
  A 1.70 1.69 25.3 0 0 287.19 117.19
  Q 289.85 120.69 293.32 117.62
  Q 297.61 113.82 301.50 109.71"
/>
<path stroke="#6c6c6c" vector-effect="non-scaling-stroke" d="
  M 301.79 110.00
  Q 303.64 107.83 304.59 105.21
  Q 304.92 104.31 304.40 105.12
  L 301.50 109.71"
/>
<path stroke="#767676" vector-effect="non-scaling-stroke" d="
  M 367.01 70.65
  Q 365.24 77.17 365.53 83.94
  Q 365.61 85.81 363.93 86.60
  Q 356.87 89.94 352.47 96.33
  A 0.94 0.93 -41.7 0 0 352.41 97.28
  C 352.96 98.33 362.59 94.77 364.18 94.35
  A 0.37 0.37 0.0 0 1 364.64 94.72
  C 364.38 100.60 362.86 108.71 364.22 114.31
  Q 364.87 116.97 367.15 115.47
  C 369.25 114.09 375.78 109.01 373.92 105.68
  A 1.75 1.73 31.1 0 1 373.69 104.78
  L 373.90 92.58
  A 0.55 0.55 0.0 0 1 374.45 92.04
  C 377.83 92.00 381.94 91.49 384.83 92.93
  C 392.15 96.57 392.22 107.89 391.61 114.87
  A 1.87 1.85 78.2 0 1 390.65 116.36
  C 385.95 118.96 381.49 118.86 376.30 119.50
  C 368.67 120.45 362.33 118.90 356.53 113.62
  A 0.83 0.82 52.1 0 0 355.59 113.50
  Q 350.04 116.47 346.95 121.89
  A 0.72 0.71 35.9 0 0 347.10 122.78
  C 355.44 130.09 365.49 130.13 376.23 127.96
  C 385.23 126.14 400.23 115.49 401.14 105.57
  C 401.83 97.99 401.04 83.71 391.02 82.74
  Q 384.28 82.10 374.05 84.15
  Q 373.55 84.25 373.75 83.78
  Q 374.62 81.83 375.34 81.31
  C 379.76 78.16 392.66 66.46 391.86 60.71
  Q 391.57 58.66 389.55 59.07
  Q 381.76 60.62 373.87 60.96
  Q 371.20 61.08 369.41 62.19
  Q 364.88 64.99 362.11 69.58
  Q 361.49 70.62 362.69 70.52
  L 366.65 70.21
  A 0.35 0.35 0.0 0 1 367.01 70.65"
/>
<path stroke="#f0f0f0" vector-effect="non-scaling-stroke" d="
  M 414.3643 74.3277
  A 1.93 0.86 87.2 0 0 415.1290 72.3580
  A 1.93 0.86 87.2 0 0 414.1757 70.4723
  A 1.93 0.86 87.2 0 0 413.4110 72.4420
  A 1.93 0.86 87.2 0 0 414.3643 74.3277"
/>
<path stroke="#f0f0f0" vector-effect="non-scaling-stroke" d="
  M 392.17 77.90
  Q 393.17 74.41 390.28 72.47
  Q 388.77 71.46 389.19 73.23
  Q 389.80 75.79 391.18 78.03
  Q 391.83 79.09 392.17 77.90"
/>
<path stroke="#f0f0f0" vector-effect="non-scaling-stroke" d="
  M 81.79 142.03
  Q 81.81 143.71 80.81 142.37
  Q 79.75 140.96 78.14 140.07
  Q 75.34 138.53 77.08 141.21
  C 78.23 142.97 81.58 149.18 83.52 148.82
  A 0.68 0.67 -3.4 0 0 84.07 148.21
  Q 84.17 146.95 84.17 145.66
  C 84.16 143.73 83.01 142.46 82.71 140.48
  A 0.82 0.81 2.1 0 0 82.07 139.80
  Q 81.63 139.70 81.10 139.74
  Q 79.25 139.90 80.95 140.65
  Q 81.77 141.02 81.79 142.03"
/>
<path stroke="#f0f0f0" vector-effect="non-scaling-stroke" d="
  M 99.01 179.47
  L 101.98 182.87
  Q 103.71 184.85 102.46 182.54
  Q 101.47 180.71 100.08 179.13
  A 1.81 1.69 21.4 0 1 99.67 178.27
  L 98.79 173.36
  A 0.52 0.52 0.0 0 0 98.13 172.96
  C 97.16 173.25 95.79 182.94 99.24 183.01
  Q 100.40 183.03 99.39 182.46
  Q 97.78 181.54 98.05 179.75
  Q 98.23 178.57 99.01 179.47"
/>
<path stroke="#e6e6e6" vector-effect="non-scaling-stroke" d="
  M 105.21 29.25
  Q 108.86 26.24 108.71 21.57
  A 0.65 0.65 0.0 0 0 108.20 20.95
  L 107.50 20.79"
/>
<path stroke="#d7d7d7" vector-effect="non-scaling-stroke" d="
  M 233.94 9.20
  C 232.96 5.84 228.45 7.13 226.03 7.80
  Q 220.38 9.34 212.78 9.35
  C 209.66 9.35 204.88 9.95 200.74 8.95
  C 199.37 8.61 198.76 8.90 197.77 9.75
  A 0.61 0.61 0.0 0 0 197.67 10.56
  C 198.23 11.37 205.16 10.88 207.38 10.90
  Q 209.46 10.92 215.73 11.35
  C 220.56 11.67 225.64 11.01 230.39 11.90
  C 232.02 12.21 236.53 13.01 236.08 11.05
  C 235.90 10.28 235.22 10.02 234.54 9.81
  A 0.93 0.92 0.7 0 1 233.94 9.20"
/>
<path stroke="#f0f0f0" vector-effect="non-scaling-stroke" d="
  M 408.19 228.00
  C 412.15 227.47 423.06 229.20 424.36 224.32
  A 0.40 0.40 0.0 0 0 423.98 223.82
  Q 419.68 223.73 416.62 220.66
  A 0.86 0.85 57.3 0 1 416.92 219.26
  Q 421.90 217.38 424.44 212.68
  Q 425.03 211.58 423.80 211.80
  Q 420.09 212.45 417.02 214.76
  A 1.28 1.27 76.0 0 0 416.53 215.58
  Q 416.16 218.21 413.83 219.49
  Q 413.38 219.74 413.08 220.16
  C 412.06 221.59 408.87 225.87 407.04 225.76
  A 0.49 0.48 3.0 0 1 406.58 225.26
  Q 406.71 221.99 409.30 220.40
  Q 409.69 220.16 409.94 219.78
  Q 411.22 217.81 413.15 216.45
  Q 413.57 216.16 413.83 215.72
  Q 416.51 211.07 420.14 207.11
  C 420.94 206.24 420.83 205.06 421.88 204.03
  Q 424.31 201.65 423.17 198.19
  A 0.32 0.32 0.0 0 0 422.64 198.06
  C 422.02 198.64 419.62 201.25 418.85 200.68
  A 0.50 0.50 0.0 0 1 418.82 199.91
  Q 423.58 195.60 425.18 189.32
  Q 425.53 187.95 424.34 188.72
  Q 421.64 190.48 422.00 193.68
  A 0.65 0.65 0.0 0 1 421.31 194.40
  L 418.66 194.24
  A 0.53 0.52 15.1 0 1 418.22 193.48
  C 419.42 191.12 422.97 187.25 421.79 184.69
  A 0.44 0.44 0.0 0 0 421.14 184.51
  Q 416.75 187.42 413.82 191.69
  C 410.63 196.34 407.25 200.80 403.95 205.36
  C 403.59 205.86 402.93 205.93 402.49 205.57
  A 0.53 0.53 0.0 0 1 402.41 204.83
  C 404.31 202.44 406.57 200.04 407.13 196.96
  A 0.59 0.58 13.4 0 0 406.72 196.30
  C 406.19 196.14 403.43 198.88 402.10 199.26
  Q 401.19 199.51 401.80 198.79
  L 410.94 187.99
  Q 411.27 187.60 410.82 187.84
  Q 409.02 188.77 407.94 190.56
  Q 407.69 190.98 407.28 191.25
  C 407.19 191.31 400.96 196.16 400.49 195.65
  A 0.50 0.50 0.0 0 1 400.51 194.95
  L 406.82 188.81
  Q 407.56 188.08 406.57 188.39
  C 404.86 188.92 401.97 191.98 400.96 191.25"
/>
<path stroke="#e6e6e6" vector-effect="non-scaling-stroke" d="
  M 400.96 191.25
  L 401.04 191.00"
/>
<path stroke="#858585" vector-effect="non-scaling-stroke" d="
  M 67.01 51.49
  Q 64.41 46.68 66.27 42.29
  Q 69.57 34.46 68.44 27.67
  A 0.87 0.87 0.0 0 0 67.85 26.99
  L 66.38 26.50
  A 0.76 0.75 -68.7 0 0 65.46 26.91
  Q 62.30 33.77 61.01 43.26
  Q 56.54 76.31 65.29 106.87
  Q 66.24 110.16 68.02 112.18
  A 1.42 1.42 0.0 0 0 70.21 112.10
  Q 74.80 106.07 73.98 99.83
  C 73.28 94.41 72.63 82.14 76.21 77.70
  C 81.63 70.96 88.83 61.77 98.25 58.21"
/>
<path stroke="#6c6c6c" vector-effect="non-scaling-stroke" d="
  M 98.25 58.21
  C 107.82 58.09 115.70 57.00 120.70 64.66
  A 0.61 0.61 0.0 0 0 121.58 64.81
  L 122.74 63.96
  A 0.60 0.60 0.0 0 1 123.63 64.17
  L 124.29 65.51
  A 0.59 0.58 56.1 0 0 125.19 65.69
  L 128.21 63.11
  A 0.76 0.75 61.8 0 1 129.43 63.48
  C 130.13 65.95 128.38 69.45 128.55 72.96
  C 128.76 77.39 133.02 83.91 134.99 87.98
  Q 135.28 88.57 135.63 88.01
  Q 138.37 83.68 140.78 79.23
  C 142.19 76.63 141.76 74.43 141.76 71.60
  A 1.15 1.13 -22.0 0 1 142.12 70.77
  Q 142.60 70.33 143.03 69.51
  Q 145.38 65.03 150.36 62.79
  A 0.54 0.54 0.0 0 1 151.12 63.24
  L 151.30 65.27
  A 0.52 0.52 0.0 0 0 151.78 65.74
  L 152.48 65.78
  A 0.55 0.55 0.0 0 1 152.95 66.53
  C 152.20 68.39 151.25 69.78 151.25 71.86
  Q 151.23 78.75 151.27 85.63
  C 151.29 89.29 152.17 93.65 152.02 97.80
  C 151.94 99.86 152.87 101.43 153.03 103.52
  C 153.30 107.12 154.32 109.49 155.00 112.71"
/>
<path stroke="#6c6c6c" vector-effect="non-scaling-stroke" d="
  M 130.50 109.21
  Q 129.99 108.25 129.06 107.93
  Q 128.53 107.75 128.78 108.25
  L 129.54 109.75"
/>
<path stroke="#767676" vector-effect="non-scaling-stroke" d="
  M 112.43 77.93
  C 111.78 67.03 98.32 66.32 90.70 67.58
  Q 87.66 68.09 87.63 71.17
  Q 87.53 81.43 85.45 91.06
  C 83.70 99.16 88.18 110.22 97.53 111.09
  A 1.36 1.34 -18.9 0 1 98.36 111.49
  C 100.38 113.59 102.24 112.50 103.66 110.40
  Q 113.49 95.89 112.43 77.93"
/>
<path stroke="#6c6c6c" vector-effect="non-scaling-stroke" d="
  M 127.61 104.00
  Q 128.44 102.84 127.57 101.69
  Q 126.75 100.59 126.75 101.96
  L 126.75 103.73
  Q 126.75 105.20 127.61 104.00"
/>
<path stroke="#e6e6e6" vector-effect="non-scaling-stroke" d="
  M 100.75 50.71
  Q 100.58 53.32 98.98 55.33
  Q 98.67 55.71 98.59 56.18
  L 98.25 58.21"
/>
<path stroke="#6c6c6c" vector-effect="non-scaling-stroke" d="
  M 232.81 62.20
  C 230.45 56.52 208.92 63.52 204.59 65.52"
/>
<path stroke="#d7d7d7" vector-effect="non-scaling-stroke" d="
  M 204.59 65.52
  Q 204.63 63.73 203.08 63.83
  C 201.22 63.95 199.42 63.75 197.57 63.57
  A 1.53 1.52 68.5 0 1 196.71 63.19
  Q 195.34 61.94 193.54 61.75"
/>
<path stroke="#6c6c6c" vector-effect="non-scaling-stroke" d="
  M 193.54 61.75
  Q 194.72 58.60 192.39 56.89
  Q 189.82 55.02 187.35 57.01
  L 181.29 61.88"
/>
<path stroke="#d7d7d7" vector-effect="non-scaling-stroke" d="
  M 181.29 61.88
  L 165.81 61.76
  A 0.53 0.53 0.0 0 0 165.28 62.27
  L 165.21 64.00"
/>
<path stroke="#6c6c6c" vector-effect="non-scaling-stroke" d="
  M 165.21 64.00
  C 164.89 62.68 165.68 59.05 164.79 58.48
  A 0.85 0.84 -43.3 0 0 163.91 58.46
  C 160.39 60.51 155.76 64.35 155.76 68.82
  Q 155.75 81.62 155.74 94.43
  C 155.73 96.81 154.63 98.18 153.31 99.96
  Q 152.79 100.67 153.66 100.52
  L 155.10 100.26
  A 0.48 0.48 0.0 0 1 155.66 100.74
  L 155.50 112.71"
/>
<path stroke="#767676" vector-effect="non-scaling-stroke" d="
  M 317.01 90.67
  A 0.40 0.40 0.0 0 0 317.66 90.77
  L 321.45 86.79
  A 0.40 0.40 0.0 0 0 321.06 86.12
  L 315.93 87.54
  A 0.40 0.40 0.0 0 0 315.68 88.11
  L 317.01 90.67"
/>
<path stroke="#767676" vector-effect="non-scaling-stroke" d="
  M 193.54 61.75
  Q 193.77 73.15 186.54 81.81
  A 1.88 1.87 -22.9 0 0 186.12 82.84
  Q 185.45 90.15 185.82 97.50
  Q 185.89 98.83 186.21 97.54
  Q 188.26 89.37 190.57 81.27
  C 192.74 73.67 197.83 69.55 204.59 65.52"
/>
<path stroke="#767676" vector-effect="non-scaling-stroke" d="
  M 165.21 64.00
  L 165.29 72.50"
/>
<path stroke="#6c6c6c" vector-effect="non-scaling-stroke" d="
  M 165.29 72.50
  L 165.29 78.75"
/>
<path stroke="#767676" vector-effect="non-scaling-stroke" d="
  M 165.29 78.75
  L 165.30 90.62
  A 0.46 0.46 0.0 0 0 165.92 91.05
  L 175.76 87.33
  A 0.87 0.86 80.9 0 0 176.32 86.55
  L 176.54 79.00"
/>
<path stroke="#6c6c6c" vector-effect="non-scaling-stroke" d="
  M 176.54 79.00
  Q 177.41 76.31 177.21 73.50"
/>
<path stroke="#767676" vector-effect="non-scaling-stroke" d="
  M 177.21 73.50
  Q 177.70 67.52 181.29 61.88"
/>
<path stroke="#767676" vector-effect="non-scaling-stroke" d="
  M 374.95 70.80
  L 374.69 77.34
  A 0.43 0.43 0.0 0 0 375.32 77.74
  Q 380.31 75.21 382.42 70.07
  A 1.00 0.99 -72.3 0 0 381.73 68.72
  Q 378.37 67.95 375.55 69.74
  A 1.30 1.30 0.0 0 0 374.95 70.80"
/>
<path stroke="#d7d7d7" vector-effect="non-scaling-stroke" d="
  M 177.21 73.50
  L 177.03 73.86
  A 0.66 0.65 17.4 0 1 176.35 74.21
  L 165.29 72.50"
/>
<path stroke="#d7d7d7" vector-effect="non-scaling-stroke" d="
  M 176.54 79.00
  L 176.52 78.88
  A 0.18 0.18 0.0 0 0 176.37 78.73
  Q 170.82 77.87 165.29 78.75"
/>
<path stroke="#d7d7d7" vector-effect="non-scaling-stroke" d="
  M 400.96 191.25
  Q 399.31 192.77 399.81 194.71
  A 0.79 0.78 -27.7 0 1 399.56 195.50
  C 397.02 197.70 396.74 201.19 393.68 204.64
  A 1.00 1.00 0.0 0 0 393.46 205.53
  L 394.17 208.49
  Q 394.49 209.81 395.39 208.79
  C 396.84 207.14 398.16 204.28 400.64 204.50
  A 1.30 1.29 -73.9 0 1 401.68 206.39
  Q 399.24 211.12 394.29 213.03
  Q 393.67 213.27 393.39 214.29
  A 0.47 0.46 12.1 0 0 393.77 214.87
  C 395.16 215.10 399.06 214.03 399.60 214.25
  Q 400.12 214.47 399.64 214.76
  Q 397.29 216.18 394.63 216.41
  C 390.44 216.77 384.72 219.23 383.18 223.48
  A 0.39 0.39 0.0 0 0 383.52 224.00
  C 384.10 224.05 390.23 223.60 390.29 223.75
  A 0.46 0.46 0.0 0 1 389.96 224.37
  L 382.85 225.83
  A 0.19 0.17 14.9 0 0 382.75 225.88
  L 382.56 226.05
  Q 382.34 226.25 382.63 226.33
  Q 386.47 227.41 390.35 226.53
  A 0.66 0.66 0.0 0 1 391.14 227.31
  C 390.99 228.01 387.40 227.67 386.19 228.00"
/>
<path stroke="#e6e6e6" vector-effect="non-scaling-stroke" d="
  M 245.44 228.00
  Q 238.31 227.37 231.19 228.00"
/>
<path stroke="#d7d7d7" vector-effect="non-scaling-stroke" d="
  M 228.19 228.00
  L 227.66 227.71
  A 0.55 0.54 29.6 0 1 227.45 226.96
  L 227.97 226.08
  A 0.72 0.71 32.4 0 0 227.75 225.12
  L 225.97 223.90
  A 0.88 0.86 -72.1 0 1 225.59 223.14
  C 225.65 221.70 231.65 221.87 232.87 221.49
  Q 233.56 221.27 232.96 220.87
  Q 231.57 219.95 231.97 218.21
  Q 232.53 215.80 230.15 216.47
  Q 227.71 217.17 225.32 216.30
  A 0.42 0.42 0.0 0 1 225.12 215.66
  Q 227.01 213.04 227.75 210.04"
/>
<path stroke="#6c6c6c" vector-effect="non-scaling-stroke" d="
  M 227.75 210.04
  L 242.73 210.01
  Q 244.50 210.00 246.01 209.07
  Q 250.52 206.28 253.19 201.72
  Q 253.77 200.72 252.62 200.73
  C 243.33 200.79 231.05 201.96 222.14 200.09
  A 0.53 0.53 0.0 0 1 221.76 199.37
  L 222.24 198.22
  A 1.39 1.38 46.3 0 0 222.26 197.23
  Q 218.98 188.36 217.59 179.02
  A 0.50 0.50 0.0 0 1 218.02 178.45
  Q 227.03 177.30 236.14 177.26
  C 240.89 177.24 245.05 172.40 247.25 168.62
  A 0.34 0.34 0.0 0 0 247.01 168.11
  C 240.79 167.12 234.35 168.41 228.90 168.92
  Q 223.03 169.46 217.41 171.43
  A 0.49 0.48 -10.3 0 1 216.76 170.99
  L 216.44 163.11
  A 0.78 0.77 81.9 0 1 217.03 162.32
  Q 224.67 160.49 232.48 160.18
  C 237.11 160.00 242.55 159.18 247.66 159.49
  A 0.56 0.56 0.0 0 1 248.18 159.92
  L 248.45 160.94
  A 0.44 0.43 62.3 0 0 249.15 161.16
  L 254.46 156.75"
/>
<path stroke="#d7d7d7" vector-effect="non-scaling-stroke" d="
  M 254.46 156.75
  L 257.29 159.49
  A 0.97 0.96 -28.8 0 0 258.17 159.74
  C 262.00 158.92 264.61 158.49 268.94 158.88
  Q 274.62 159.39 280.03 157.11
  A 1.87 1.82 37.1 0 1 280.99 156.99
  C 286.17 157.77 290.04 151.49 293.95 148.75
  C 297.45 146.31 301.35 141.39 304.21 138.29
  Q 304.74 137.71 303.95 137.77
  Q 301.27 137.94 299.42 139.82
  A 0.78 0.76 -34.5 0 0 299.26 140.63
  L 299.55 141.37
  A 0.72 0.71 68.3 0 1 299.15 142.31
  Q 294.65 144.08 289.89 143.45
  A 1.74 1.67 -52.2 0 0 288.94 143.59
  Q 282.05 146.78 274.38 145.80
  A 0.56 0.55 4.2 0 0 273.75 146.34
  L 273.74 147.33
  A 0.72 0.71 84.4 0 1 273.18 148.02
  L 266.65 149.42
  A 0.73 0.73 0.0 0 0 266.08 150.05
  L 265.98 150.97
  A 0.31 0.30 -73.3 0 1 265.54 151.21
  Q 262.37 149.59 258.76 149.77
  A 0.64 0.63 -85.3 0 0 258.17 150.28
  L 257.79 152.25"
/>
<path stroke="#6c6c6c" vector-effect="non-scaling-stroke" d="
  M 257.79 152.25
  Q 257.76 150.18 256.25 150.25
  Q 245.15 150.73 234.04 151.21"
/>
<path stroke="#d7d7d7" vector-effect="non-scaling-stroke" d="
  M 265.92 185.80
  Q 270.57 186.78 275.22 185.22
  Q 276.27 184.87 277.66 182.93
  Q 277.96 182.52 277.49 182.71
  Q 272.69 184.69 267.58 184.25
  Q 266.65 184.17 265.74 185.28
  A 0.32 0.32 0.0 0 0 265.92 185.80"
/>
<path stroke="#767676" vector-effect="non-scaling-stroke" d="
  M 257.79 152.25
  Q 256.59 154.84 254.46 156.75"
/>
<path stroke="#767676" vector-effect="non-scaling-stroke" d="
  M 227.75 210.04
  Q 217.88 210.16 208.00 208.95
  A 0.31 0.31 0.0 0 1 207.78 208.47
  L 210.54 204.27
  A 3.71 3.71 0.0 0 0 211.06 201.43
  Q 207.39 184.94 206.86 168.03
  A 1.38 1.37 -66.5 0 0 206.51 167.14
  C 204.93 165.35 206.29 163.56 206.30 161.95
  Q 206.32 159.25 206.06 156.47
  A 0.63 0.61 1.8 0 0 205.52 155.91
  Q 203.01 155.58 199.49 155.93
  Q 184.98 157.41 170.64 160.41
  A 0.73 0.71 -5.3 0 0 170.07 161.08
  Q 169.69 170.67 170.65 180.22
  Q 170.79 181.67 171.73 180.56
  Q 180.82 169.92 195.29 169.67
  C 198.63 169.61 201.30 171.11 202.27 174.25
  C 204.26 180.66 206.39 191.32 200.90 197.16
  C 196.29 202.08 191.61 207.25 184.72 208.78
  C 178.77 210.09 168.80 211.43 163.54 207.68
  A 0.83 0.83 0.0 0 1 163.32 206.57
  Q 166.43 201.56 171.62 198.83
  A 1.05 1.04 42.7 0 1 172.52 198.80
  Q 179.96 202.17 187.86 200.21
  C 189.86 199.71 192.68 200.25 194.49 198.21
  A 1.18 1.16 63.9 0 0 194.78 197.34
  C 194.44 192.32 194.88 179.13 187.50 179.07
  C 183.35 179.04 173.18 179.89 172.46 185.52
  Q 171.24 195.04 163.32 198.61
  A 0.60 0.60 0.0 0 1 162.53 198.33
  L 162.16 197.58
  A 0.50 0.50 0.0 0 0 161.33 197.47
  Q 155.83 203.95 148.12 205.64
  C 140.84 207.24 127.90 206.32 119.55 204.39
  Q 117.04 203.80 118.75 201.88
  C 120.72 199.68 126.80 194.81 125.84 191.86
  Q 125.68 191.38 125.36 191.78
  C 120.21 198.31 110.28 208.70 101.70 209.92
  Q 96.10 210.71 88.50 209.04"
/>
<path stroke="#767676" vector-effect="non-scaling-stroke" d="
  M 136.35 159.65
  L 136.07 167.15
  A 0.31 0.30 85.5 0 0 136.43 167.46
  L 159.86 162.64
  A 0.53 0.52 85.8 0 0 160.28 162.15
  Q 160.46 158.59 158.24 155.72
  A 0.87 0.84 -20.7 0 0 157.49 155.40
  Q 147.03 156.39 136.84 159.04
  A 0.66 0.65 84.1 0 0 136.35 159.65"
/>
<path stroke="#767676" vector-effect="non-scaling-stroke" d="
  M 138.74 189.68
  L 138.77 195.17
  A 1.84 1.83 -89.5 0 0 140.56 197.00
  C 145.31 197.14 157.11 197.77 161.14 194.61
  A 0.93 0.92 68.5 0 0 161.49 193.79
  Q 160.18 179.82 160.55 165.78
  Q 160.59 164.50 159.77 165.48
  C 157.23 168.54 154.09 171.96 149.92 172.55
  Q 142.90 173.56 135.93 175.17
  A 0.74 0.74 0.0 0 0 135.36 175.82
  Q 134.75 182.84 136.00 189.71
  A 0.51 0.51 0.0 0 0 136.79 190.04
  L 137.92 189.25
  Q 138.74 188.68 138.74 189.68"
/>
<path stroke="#f0f0f0" vector-effect="non-scaling-stroke" d="
  M 400.94 228.00
  L 399.80 227.27
  A 0.64 0.64 0.0 0 0 398.97 227.39
  L 398.44 228.00"
/>
<path stroke="#f0f0f0" vector-effect="non-scaling-stroke" d="
  M 414.2230 208.8096
  A 2.31 1.12 121.5 0 0 416.3850 207.4252
  A 2.31 1.12 121.5 0 0 416.6370 204.8704
  A 2.31 1.12 121.5 0 0 414.4750 206.2548
  A 2.31 1.12 121.5 0 0 414.2230 208.8096"
/>
</g>
<path fill="#ffffff" d="
  M 0.00 0.00
  L 101.81 0.00
  C 98.68 0.20 96.28 3.13 92.98 5.18
  C 88.77 7.79 85.37 11.94 81.22 14.90
  C 79.97 15.79 79.18 17.02 78.00 18.04
  Q 72.38 16.52 67.85 19.83
  C 54.69 29.44 51.62 45.04 50.51 60.75
  Q 48.50 89.13 55.62 114.67
  C 60.08 130.69 71.76 116.53 76.16 110.55
  A 0.30 0.30 0.0 0 1 76.67 110.60
  Q 79.00 115.39 82.79 118.75
  Q 78.38 121.22 79.90 126.34
  C 80.40 128.03 85.88 140.99 85.24 142.07
  Q 84.80 142.83 84.48 142.01
  L 78.06 125.76
  Q 77.71 124.87 77.21 125.69
  L 76.36 127.11
  A 0.89 0.88 -46.5 0 0 76.38 128.07
  C 76.84 128.77 78.89 131.96 78.46 132.64
  A 0.44 0.43 -49.7 0 1 77.77 132.70
  L 75.30 129.96
  A 0.63 0.62 -50.0 0 0 74.31 130.05
  L 70.45 136.24
  A 1.26 1.25 51.3 0 0 70.33 137.34
  C 71.37 140.21 72.87 142.57 73.33 145.54
  Q 73.74 148.15 74.02 150.81
  Q 74.29 153.45 72.69 151.33
  L 67.23 144.13
  Q 66.63 143.34 66.50 144.33
  Q 66.28 145.93 67.30 147.18
  A 0.88 0.86 -56.6 0 1 67.45 147.97
  Q 66.60 150.77 66.95 152.01
  Q 70.26 163.71 72.92 175.50
  Q 73.44 177.79 76.21 178.00
  Q 76.28 185.95 76.25 193.92
  C 76.21 202.96 81.03 205.84 88.50 209.04
  Q 88.45 214.71 90.88 219.96
  A 1.18 1.15 -1.6 0 0 91.55 220.58
  C 96.39 222.33 95.54 227.04 99.69 228.00
  L 0.00 228.00
  L 0.00 0.00
  Z"
/>
<path fill="#e1e1e1" d="
  M 101.81 0.00
  L 131.81 0.00
  C 129.47 1.17 127.33 2.24 124.56 2.14
  Q 120.32 1.99 116.11 2.33
  C 114.77 2.44 108.54 4.62 107.93 5.83
  A 0.62 0.61 16.4 0 0 108.42 6.72
  L 113.47 7.19
  A 1.07 1.06 75.9 0 1 114.25 7.66
  C 115.66 9.84 120.28 10.41 122.71 11.14
  A 0.70 0.70 0.0 0 1 123.20 11.68
  L 123.26 11.99
  A 0.48 0.48 0.0 0 1 122.79 12.56
  L 110.76 12.56
  A 0.56 0.56 0.0 0 0 110.22 13.25
  Q 110.62 14.92 112.38 14.86
  A 0.56 0.55 84.8 0 1 112.95 15.34
  L 113.00 15.68
  A 0.52 0.51 -8.5 0 1 112.57 16.26
  L 105.57 17.44
  Q 105.13 17.52 104.75 17.76
  L 102.91 18.91
  A 0.70 0.70 0.0 0 0 102.76 19.97
  L 104.47 21.86
  A 0.53 0.53 0.0 0 0 105.26 21.86
  Q 106.19 20.83 107.50 20.79
  Q 106.01 21.49 105.04 22.78
  Q 99.04 30.81 91.87 38.83
  A 0.81 0.81 0.0 0 0 92.27 40.15
  Q 97.21 41.43 97.96 36.89
  A 1.70 1.69 -17.6 0 1 98.45 35.95
  L 105.21 29.25
  C 105.17 30.82 103.25 33.68 103.51 34.54
  A 0.66 0.66 0.0 0 0 104.18 35.01
  C 109.00 34.76 112.55 35.52 117.68 34.15
  Q 120.89 33.30 123.68 35.73
  A 1.41 1.38 65.2 0 0 124.55 36.06
  C 132.00 36.15 136.93 36.47 142.68 33.98
  A 1.35 1.32 42.6 0 1 143.64 33.95
  L 148.55 35.72
  A 1.26 1.23 -49.2 0 0 149.60 35.63
  Q 152.47 34.04 155.38 35.46
  A 1.81 1.77 54.8 0 0 156.30 35.63
  Q 160.69 35.24 165.01 34.27
  Q 169.09 33.36 182.89 33.74
  C 186.43 33.84 196.77 36.38 199.30 32.74
  A 1.04 1.03 -74.9 0 1 200.07 32.29
  Q 205.73 31.82 208.81 32.18
  C 216.83 33.13 226.12 32.47 232.72 32.72
  Q 241.52 33.06 250.18 33.22
  A 1.76 1.74 -81.4 0 0 251.90 31.94
  Q 252.84 28.69 251.70 28.28
  Q 248.75 27.21 245.66 26.70
  A 0.26 0.24 -17.0 0 1 245.51 26.63
  L 245.10 26.25
  Q 244.87 26.04 244.56 25.97
  C 241.56 25.29 238.98 24.02 235.98 23.75
  C 227.00 22.94 218.24 21.53 209.09 21.47
  C 207.44 21.47 198.38 21.27 198.24 20.62
  A 0.49 0.49 0.0 0 1 198.67 20.02
  Q 202.30 19.64 205.94 19.42
  C 213.67 18.95 219.99 16.48 227.50 18.90
  Q 227.97 19.06 228.45 18.96
  C 231.65 18.29 233.25 20.95 235.39 22.33
  A 0.78 0.76 42.9 0 0 236.26 22.31
  C 237.64 21.28 235.18 19.24 234.16 18.87
  A 0.50 0.50 0.0 0 1 233.87 18.21
  Q 234.23 17.32 235.52 17.46
  C 239.56 17.89 242.27 19.44 246.71 17.56
  A 1.12 1.09 -5.2 0 0 247.35 16.81
  Q 247.68 15.52 246.30 14.81
  Q 245.92 14.61 245.48 14.61
  Q 242.04 14.59 238.92 13.16
  A 0.76 0.75 -73.0 0 1 238.49 12.34
  L 239.23 8.12
  A 1.35 1.35 0.0 0 0 238.22 6.58
  L 232.77 5.23
  A 2.34 2.33 -87.6 0 1 231.02 3.32
  Q 230.84 2.12 232.28 1.75
  Q 232.74 1.63 233.22 1.61
  Q 235.53 1.50 237.32 0.01
  L 355.56 0.00
  Q 357.00 0.58 357.04 2.30
  Q 357.06 2.83 357.43 2.45
  Q 358.01 1.84 357.99 0.89
  A 0.62 0.61 -7.7 0 1 358.46 0.28
  Q 360.31 -0.21 361.30 1.44
  Q 365.58 8.62 369.77 15.88
  A 1.86 1.81 -60.5 0 1 370.01 16.79
  L 369.99 18.44
  A 1.54 1.46 28.2 0 0 370.28 19.32
  C 377.60 29.26 384.73 38.39 394.53 48.22
  C 401.35 55.07 399.63 62.91 402.81 71.15
  C 404.37 75.19 399.35 80.12 405.29 82.73
  A 0.30 0.29 -80.8 0 0 405.70 82.43
  Q 404.62 72.40 403.89 62.29
  C 403.67 59.19 404.89 56.48 404.69 53.10
  A 0.35 0.34 -82.6 0 1 405.14 52.75
  C 408.71 53.93 407.32 58.26 408.34 60.85
  A 0.60 0.60 0.0 0 0 409.08 61.20
  Q 410.50 60.75 411.10 59.45
  A 1.04 1.01 -47.9 0 0 411.07 58.54
  L 409.94 56.45
  Q 409.42 55.50 410.44 55.89
  C 415.15 57.70 411.51 64.30 412.96 65.37
  A 0.37 0.37 0.0 0 0 413.53 65.18
  L 414.29 62.52
  A 0.62 0.62 0.0 0 1 414.99 62.07
  C 416.37 62.31 416.99 62.97 417.07 64.46
  C 417.53 73.06 418.98 80.01 417.52 87.50
  A 1.56 1.55 -52.4 0 0 417.64 88.44
  C 419.39 92.23 419.95 95.28 415.58 97.50
  A 0.86 0.84 -11.6 0 0 415.10 98.21
  C 414.71 104.18 420.59 105.64 417.51 112.56
  C 417.05 113.59 417.26 114.50 417.86 115.34
  A 0.44 0.44 0.0 0 0 418.60 115.31
  L 419.42 113.88
  Q 419.80 113.23 420.11 113.92
  L 420.34 114.42
  A 1.19 1.17 44.7 0 1 420.35 115.34
  Q 418.60 119.58 422.27 122.05
  A 0.79 0.78 25.0 0 1 422.59 122.91
  Q 419.25 135.24 418.74 151.74
  Q 418.44 161.63 414.59 174.22
  Q 414.44 174.71 414.22 174.25
  L 412.56 170.89
  Q 411.83 169.40 411.37 170.99
  C 410.44 174.22 410.55 177.16 408.85 180.08
  C 406.61 183.93 403.70 187.44 401.04 191.00
  C 399.44 188.21 396.81 187.60 394.09 189.57
  C 389.78 192.67 386.98 196.23 381.01 196.87
  Q 380.50 196.92 380.83 196.54
  C 383.90 192.90 389.74 189.03 390.65 186.49
  Q 390.82 186.02 391.19 185.68
  L 395.14 182.03
  A 0.92 0.91 -27.2 0 0 395.42 181.18
  C 394.38 176.27 388.74 180.83 386.24 180.85
  C 381.05 180.90 382.65 172.79 383.77 169.96
  A 0.73 0.73 0.0 0 0 383.02 168.97
  L 378.50 169.42
  A 1.71 1.67 -67.1 0 0 377.59 169.80
  Q 375.27 171.78 372.98 169.93
  A 1.09 1.07 59.2 0 0 372.10 169.70
  L 370.42 169.99
  Q 369.19 170.20 370.09 169.34
  L 372.47 167.06
  A 0.56 0.56 0.0 0 0 372.29 166.13
  L 369.45 165.01
  A 0.59 0.59 0.0 0 0 368.67 165.37
  Q 367.77 167.98 364.94 168.49
  Q 363.61 168.74 364.43 167.66
  L 369.12 161.46
  A 1.17 1.12 17.1 0 1 370.02 161.01
  L 370.55 161.00
  A 0.76 0.74 -82.4 0 0 371.27 160.44
  Q 371.83 158.37 370.65 156.58
  A 1.18 1.18 0.0 0 1 370.47 155.75
  Q 370.87 153.21 368.88 152.29
  Q 367.94 151.86 367.27 151.08
  L 363.25 146.35
  A 1.26 1.25 -21.9 0 0 362.24 145.92
  L 356.41 146.29
  A 0.76 0.75 -9.3 0 1 355.63 145.74
  L 355.49 145.20
  Q 355.01 143.42 356.78 143.93
  Q 359.61 144.75 361.77 142.84
  Q 362.31 142.37 361.61 142.19
  C 359.56 141.65 357.68 142.72 355.90 142.70
  Q 353.59 142.68 351.26 142.70
  A 0.78 0.77 -4.8 0 1 350.49 142.06
  L 350.21 140.51
  A 0.82 0.81 -22.2 0 1 350.56 139.68
  Q 352.50 138.37 353.17 136.26
  Q 353.31 135.81 353.62 135.46
  L 355.51 133.30
  A 0.92 0.90 54.1 0 0 355.66 132.31
  C 354.72 130.17 350.36 131.19 348.48 131.81
  A 1.87 1.75 9.6 0 0 347.68 132.34
  C 345.82 134.47 342.94 135.66 341.19 136.97
  Q 337.88 139.43 334.55 141.95
  Q 333.30 142.90 334.21 141.62
  Q 335.77 139.44 337.95 137.86
  A 0.13 0.12 -20.8 0 0 338.00 137.76
  L 338.01 137.41
  Q 338.03 136.74 337.50 137.16
  L 335.61 138.68
  A 0.38 0.38 0.0 0 1 335.17 138.71
  L 334.91 138.57
  A 0.17 0.17 0.0 0 1 334.88 138.29
  L 340.24 133.50
  A 0.67 0.66 38.2 0 0 340.11 132.42
  L 335.74 130.03
  A 0.90 0.88 -44.4 0 0 334.89 130.03
  Q 333.26 130.93 331.63 133.12
  Q 327.14 139.12 318.94 147.79
  C 316.02 150.86 313.30 152.19 309.34 152.95
  C 307.05 153.38 297.69 155.63 296.07 154.79
  A 0.35 0.35 0.0 0 1 296.00 154.21
  C 299.71 151.11 294.55 146.70 300.77 144.88
  C 307.00 143.05 309.58 138.28 316.30 138.46
  A 0.68 0.67 5.3 0 0 316.99 137.89
  L 317.11 137.05
  A 0.61 0.61 0.0 0 1 317.86 136.55
  Q 321.32 137.40 324.49 135.80
  A 0.39 0.38 67.2 0 0 324.68 135.32
  C 324.16 133.99 320.58 137.00 319.67 135.16
  A 0.85 0.85 0.0 0 1 319.88 134.13
  L 321.81 132.51
  Q 322.85 131.63 321.53 131.97
  L 317.34 133.05
  A 0.81 0.78 -31.1 0 1 316.65 132.89
  C 314.20 130.88 314.04 134.52 311.38 133.91
  A 0.43 0.43 0.0 0 1 311.09 133.30
  L 311.99 131.53
  Q 313.02 129.52 311.36 131.06
  L 305.79 136.22
  A 1.22 1.22 0.0 0 1 304.94 136.54
  C 301.83 136.47 298.63 137.88 296.03 138.19
  Q 274.23 140.84 258.00 145.27
  Q 254.12 146.32 251.97 146.73
  C 247.71 147.53 245.37 150.01 240.72 150.25
  Q 237.33 150.43 234.04 151.21
  Q 225.03 152.89 216.28 155.59
  A 0.36 0.36 0.0 0 1 215.81 155.25
  L 215.59 148.03
  A 1.15 1.15 0.0 0 0 215.14 147.16
  C 211.35 144.29 183.50 149.96 177.69 151.25
  C 175.08 151.82 172.69 153.07 170.18 154.08
  Q 169.58 154.32 169.75 153.70
  Q 170.54 150.74 169.35 147.97
  A 1.41 1.41 0.0 0 0 168.65 147.24
  C 161.87 144.03 142.08 150.19 134.75 152.51
  C 132.16 153.32 122.17 158.99 123.02 162.34
  A 0.56 0.55 73.6 0 0 123.72 162.73
  L 125.09 162.27
  A 0.43 0.42 76.2 0 1 125.64 162.61
  Q 126.24 166.86 125.84 171.13
  Q 125.80 171.63 125.52 172.04
  L 121.99 177.24
  Q 121.21 178.39 122.59 178.22
  L 125.31 177.87
  A 0.40 0.40 0.0 0 1 125.75 178.32
  C 124.30 188.26 118.33 200.90 106.28 201.02
  C 99.43 201.09 86.13 197.22 85.76 188.50
  Q 85.24 176.23 86.68 154.93
  Q 86.77 153.62 88.07 150.44
  C 89.37 147.26 91.03 147.53 94.01 147.39
  C 97.92 147.19 111.91 145.91 107.16 153.96
  Q 104.50 158.47 105.64 162.89
  Q 106.22 165.18 107.96 163.58
  C 111.18 160.59 115.03 157.47 116.34 153.24
  C 118.03 147.80 119.82 138.70 111.23 138.07
  C 105.19 137.64 100.65 137.05 95.36 140.04
  Q 86.85 144.84 81.34 153.11
  C 76.58 160.27 76.26 169.70 76.21 178.00
  Q 73.44 177.79 72.92 175.50
  Q 70.26 163.71 66.95 152.01
  Q 66.60 150.77 67.45 147.97
  A 0.88 0.86 -56.6 0 0 67.30 147.18
  Q 66.28 145.93 66.50 144.33
  Q 66.63 143.34 67.23 144.13
  L 72.69 151.33
  Q 74.29 153.45 74.02 150.81
  Q 73.74 148.15 73.33 145.54
  C 72.87 142.57 71.37 140.21 70.33 137.34
  A 1.26 1.25 51.3 0 1 70.45 136.24
  L 74.31 130.05
  A 0.63 0.62 -50.0 0 1 75.30 129.96
  L 77.77 132.70
  A 0.44 0.43 -49.7 0 0 78.46 132.64
  C 78.89 131.96 76.84 128.77 76.38 128.07
  A 0.89 0.88 -46.5 0 1 76.36 127.11
  L 77.21 125.69
  Q 77.71 124.87 78.06 125.76
  L 84.48 142.01
  Q 84.80 142.83 85.24 142.07
  C 85.88 140.99 80.40 128.03 79.90 126.34
  Q 78.38 121.22 82.79 118.75
  C 89.23 123.91 95.28 122.66 101.10 117.22
  Q 111.63 107.39 117.83 94.20
  Q 118.05 93.73 118.11 94.25
  C 118.29 95.94 117.51 97.68 117.51 99.19
  Q 117.48 111.01 117.51 122.01
  Q 117.52 123.50 118.80 122.74
  Q 126.67 118.07 129.54 109.75
  L 130.50 109.21
  L 132.77 111.49
  A 0.62 0.62 0.0 0 0 133.58 111.55
  C 135.30 110.29 141.15 105.58 141.66 103.12
  A 1.02 1.01 29.0 0 0 141.40 102.23
  Q 138.66 99.31 137.65 95.37
  A 1.41 1.38 53.7 0 1 137.80 94.32
  L 141.17 88.54
  Q 141.56 87.86 141.61 88.64
  C 141.85 92.77 141.51 96.49 142.33 100.75
  C 143.63 107.45 142.55 114.40 145.89 120.65
  A 0.50 0.49 61.2 0 0 146.57 120.85
  Q 151.93 117.87 155.00 112.71
  L 155.50 112.71
  C 156.38 115.55 155.17 118.20 156.60 121.10
  A 1.56 1.56 0.0 0 0 158.73 121.79
  Q 164.45 118.78 167.45 113.10
  A 0.88 0.87 -70.4 0 0 166.85 111.83
  L 165.65 111.58
  A 0.68 0.67 -84.2 0 1 165.12 110.92
  L 165.21 98.58
  A 0.88 0.87 -14.4 0 1 165.67 97.81
  L 175.78 92.30
  A 0.31 0.31 0.0 0 1 176.24 92.53
  Q 176.62 95.44 176.51 98.35
  C 176.25 104.60 176.46 110.36 176.58 116.43
  Q 176.62 118.65 179.58 120.82
  A 0.81 0.80 48.3 0 0 180.43 120.87
  Q 189.95 115.65 192.80 105.17
  C 192.86 104.97 192.97 104.96 193.14 105.03
  A 0.13 0.12 9.7 0 1 193.23 105.15
  Q 193.47 109.14 192.00 112.76
  C 191.35 114.34 191.05 115.88 192.19 117.08
  Q 193.67 118.66 195.83 118.81
  Q 203.79 119.35 210.93 119.93
  C 213.66 120.15 216.22 118.99 219.22 119.24
  A 1.11 1.07 24.5 0 0 220.07 118.94
  C 222.78 116.31 226.21 114.82 227.71 111.03
  Q 228.43 109.21 226.54 109.75
  C 219.16 111.85 213.21 109.93 205.85 109.62
  A 0.55 0.55 0.0 0 1 205.32 109.06
  L 205.46 89.98
  A 1.23 1.23 0.0 0 1 206.32 88.81
  Q 213.19 86.68 220.31 87.55
  A 1.49 1.48 31.2 0 0 221.30 87.31
  Q 226.06 84.09 228.70 79.02
  Q 229.46 77.55 227.81 77.66
  Q 215.75 78.51 204.27 82.43
  A 0.56 0.56 0.0 0 1 203.53 81.98
  L 202.25 73.09
  A 0.71 0.69 -13.8 0 1 202.72 72.34
  Q 211.96 69.25 221.73 69.49
  A 1.10 1.08 -17.6 0 1 222.55 69.91
  L 223.61 71.31
  A 0.60 0.59 -39.2 0 0 224.47 71.39
  Q 229.19 67.27 232.81 62.20
  Q 234.24 60.26 236.63 59.51
  A 0.33 0.33 0.0 0 0 236.82 59.03
  L 236.32 58.14
  A 0.74 0.73 -36.9 0 1 236.45 57.24
  C 239.28 54.56 237.18 51.73 242.18 50.06
  C 248.64 47.91 245.95 44.84 241.01 44.75
  A 1.11 1.08 -69.1 0 0 240.15 45.15
  Q 238.66 46.96 236.78 45.60
  A 1.07 1.06 -73.0 0 1 236.33 44.75
  Q 236.31 43.19 237.88 42.40
  Q 238.94 41.86 237.75 41.75
  Q 236.59 41.64 235.58 42.10
  A 4.25 4.18 -53.6 0 1 233.46 42.44
  C 226.86 41.74 220.12 39.50 213.53 39.37
  C 206.16 39.22 198.56 38.54 191.48 38.70
  C 185.39 38.84 178.98 38.57 172.99 39.72
  C 166.31 40.99 160.89 38.48 154.00 40.80
  A 0.88 0.87 58.1 0 1 153.09 40.58
  Q 150.86 38.31 147.72 39.25
  A 1.80 1.74 44.0 0 1 146.71 39.25
  L 142.51 38.03
  A 1.45 1.44 39.6 0 0 141.45 38.13
  Q 138.16 39.80 134.43 39.69
  Q 133.92 39.67 133.48 39.91
  C 128.85 42.34 124.37 41.45 120.38 41.80
  Q 115.25 42.26 110.06 42.30
  A 0.62 0.62 0.0 0 0 109.47 42.78
  C 108.94 45.15 106.33 44.35 105.87 46.26
  A 1.42 1.39 77.6 0 1 105.39 47.03
  L 100.75 50.71
  C 95.76 52.54 91.47 56.44 86.81 59.10
  A 0.15 0.15 0.0 0 1 86.59 59.02
  L 86.49 58.72
  A 0.52 0.51 -29.5 0 1 86.65 58.15
  Q 87.64 57.33 87.77 56.15
  A 1.42 1.42 0.0 0 0 87.55 55.21
  C 84.30 50.14 92.07 45.08 94.88 42.60
  Q 95.34 42.19 94.74 42.05
  Q 91.94 41.39 91.09 43.86
  Q 90.86 44.54 90.39 43.99
  Q 89.87 43.39 90.49 42.45
  A 0.27 0.27 0.0 0 0 90.37 42.06
  C 88.01 40.98 75.48 60.61 74.16 63.11
  C 72.89 65.54 71.32 67.14 69.59 69.16
  A 1.33 1.27 66.4 0 0 69.28 70.01
  Q 69.29 72.69 66.65 73.53
  A 1.00 0.99 85.8 0 1 65.37 72.42
  L 65.55 71.35
  A 1.40 1.39 -13.9 0 1 66.10 70.45
  L 68.21 68.87
  A 0.63 0.62 -30.5 0 0 68.41 68.12
  C 67.61 66.26 66.01 64.60 66.97 62.39
  C 68.22 59.49 71.21 59.52 71.93 55.02
  Q 72.22 53.26 70.53 52.69
  L 67.01 51.49
  C 72.87 47.62 75.89 43.42 76.95 36.16
  Q 78.26 27.16 78.00 18.04
  C 79.18 17.02 79.97 15.79 81.22 14.90
  C 85.37 11.94 88.77 7.79 92.98 5.18
  C 96.28 3.13 98.68 0.20 101.81 0.00
  Z
  M 88.6776 12.8863
  A 2.16 0.81 -42.3 0 0 86.5349 13.7409
  A 2.16 0.81 -42.3 0 0 85.4824 15.7937
  A 2.16 0.81 -42.3 0 0 87.6251 14.9391
  A 2.16 0.81 -42.3 0 0 88.6776 12.8863
  Z
  M 301.50 109.71
  L 301.79 110.00
  Q 299.72 113.06 299.23 115.24
  Q 298.53 118.38 301.67 119.05
  Q 309.68 120.77 317.71 119.48
  C 326.73 118.03 334.25 116.81 339.31 108.17
  Q 339.92 107.13 338.76 107.45
  Q 333.40 108.92 327.83 110.11
  C 323.66 110.99 319.55 110.77 315.30 110.72
  Q 314.21 110.71 315.05 110.03
  C 319.38 106.50 318.99 99.93 317.82 95.01
  A 0.93 0.90 61.3 0 1 318.05 94.17
  C 321.08 91.02 323.47 88.19 327.47 85.82
  Q 333.81 82.07 338.36 76.16
  A 0.55 0.55 0.0 0 0 338.31 75.43
  L 338.10 75.22
  A 0.82 0.81 59.5 0 0 337.30 75.01
  Q 327.32 77.76 317.02 78.84
  Q 314.94 79.06 314.83 76.98
  L 314.71 74.75
  A 0.54 0.54 0.0 0 0 314.00 74.27
  L 312.92 74.64
  A 0.45 0.44 -15.0 0 1 312.34 74.31
  Q 311.58 70.65 314.05 68.29
  Q 322.02 60.66 333.48 62.02
  A 1.07 1.06 -13.1 0 1 334.24 62.49
  L 335.50 64.35
  A 0.58 0.58 0.0 0 0 336.41 64.42
  C 339.34 61.23 341.66 60.71 344.56 55.93
  A 1.00 0.98 -41.8 0 0 344.62 55.03
  C 342.47 50.02 330.23 53.46 326.78 55.49
  Q 322.79 57.82 318.80 60.10
  C 308.95 65.72 301.81 75.20 302.76 87.05
  C 303.32 94.13 300.00 102.16 296.83 108.38
  Q 296.58 108.85 296.48 108.33
  Q 296.17 106.79 296.23 103.50
  C 296.49 90.11 297.60 75.15 303.06 64.01
  Q 304.15 61.80 301.86 62.73
  Q 297.40 64.55 294.78 68.51
  Q 284.97 83.28 274.12 97.35
  Q 273.75 97.84 273.75 97.23
  L 273.75 70.03
  A 0.43 0.43 0.0 0 0 273.14 69.64
  Q 263.33 74.13 264.22 84.74
  Q 264.84 92.10 264.39 106.41
  A 0.82 0.79 78.3 0 1 263.95 107.10
  Q 259.83 109.15 257.47 113.04
  Q 257.16 113.56 257.13 112.96
  C 256.43 99.55 255.04 83.30 260.20 74.71
  C 263.08 69.92 263.97 66.21 263.33 61.02
  Q 263.01 58.37 260.60 59.53
  C 250.20 64.57 250.36 72.25 248.59 82.49
  A 0.91 0.90 -1.5 0 1 247.88 83.23
  L 241.66 84.59
  A 0.53 0.52 82.0 0 1 241.03 84.11
  C 240.64 77.20 242.52 69.24 243.34 62.25
  Q 243.39 61.74 242.94 61.97
  C 238.71 64.02 234.85 67.32 233.87 72.20
  C 231.05 86.36 231.49 99.87 231.29 113.75
  Q 231.24 117.73 231.71 120.61
  Q 232.34 124.46 235.40 122.04
  Q 241.01 117.61 244.96 111.69
  A 0.44 0.44 0.0 0 0 244.77 111.05
  L 244.43 110.90
  A 1.19 1.16 -44.3 0 0 243.50 110.90
  L 241.80 111.65
  A 0.58 0.57 -11.6 0 1 241.00 111.13
  L 241.00 92.63
  A 1.12 1.11 76.4 0 1 241.60 91.64
  L 247.90 88.40
  Q 248.53 88.07 248.39 88.77
  C 246.49 98.35 247.49 109.72 247.50 119.56
  Q 247.50 121.60 248.49 122.65
  C 251.85 126.21 256.70 119.53 259.22 117.54
  Q 259.68 117.18 259.50 117.74
  L 258.91 119.61
  Q 258.56 120.74 259.61 120.20
  Q 263.13 118.39 265.79 115.42
  A 0.53 0.53 0.0 0 1 266.51 115.35
  C 269.02 117.29 271.44 118.04 274.41 116.22
  Q 279.31 113.22 282.08 108.08
  Q 282.43 107.43 281.71 107.60
  Q 276.02 108.92 274.74 103.00
  A 1.58 1.53 57.7 0 1 275.00 101.77
  L 289.99 81.24
  Q 290.84 80.08 290.49 81.48
  Q 286.17 98.59 286.84 116.22
  A 1.70 1.69 25.3 0 0 287.19 117.19
  Q 289.85 120.69 293.32 117.62
  Q 297.61 113.82 301.50 109.71
  Z
  M 367.01 70.65
  Q 365.24 77.17 365.53 83.94
  Q 365.61 85.81 363.93 86.60
  Q 356.87 89.94 352.47 96.33
  A 0.94 0.93 -41.7 0 0 352.41 97.28
  C 352.96 98.33 362.59 94.77 364.18 94.35
  A 0.37 0.37 0.0 0 1 364.64 94.72
  C 364.38 100.60 362.86 108.71 364.22 114.31
  Q 364.87 116.97 367.15 115.47
  C 369.25 114.09 375.78 109.01 373.92 105.68
  A 1.75 1.73 31.1 0 1 373.69 104.78
  L 373.90 92.58
  A 0.55 0.55 0.0 0 1 374.45 92.04
  C 377.83 92.00 381.94 91.49 384.83 92.93
  C 392.15 96.57 392.22 107.89 391.61 114.87
  A 1.87 1.85 78.2 0 1 390.65 116.36
  C 385.95 118.96 381.49 118.86 376.30 119.50
  C 368.67 120.45 362.33 118.90 356.53 113.62
  A 0.83 0.82 52.1 0 0 355.59 113.50
  Q 350.04 116.47 346.95 121.89
  A 0.72 0.71 35.9 0 0 347.10 122.78
  C 355.44 130.09 365.49 130.13 376.23 127.96
  C 385.23 126.14 400.23 115.49 401.14 105.57
  C 401.83 97.99 401.04 83.71 391.02 82.74
  Q 384.28 82.10 374.05 84.15
  Q 373.55 84.25 373.75 83.78
  Q 374.62 81.83 375.34 81.31
  C 379.76 78.16 392.66 66.46 391.86 60.71
  Q 391.57 58.66 389.55 59.07
  Q 381.76 60.62 373.87 60.96
  Q 371.20 61.08 369.41 62.19
  Q 364.88 64.99 362.11 69.58
  Q 361.49 70.62 362.69 70.52
  L 366.65 70.21
  A 0.35 0.35 0.0 0 1 367.01 70.65
  Z
  M 414.3643 74.3277
  A 1.93 0.86 87.2 0 0 415.1290 72.3580
  A 1.93 0.86 87.2 0 0 414.1757 70.4723
  A 1.93 0.86 87.2 0 0 413.4110 72.4420
  A 1.93 0.86 87.2 0 0 414.3643 74.3277
  Z
  M 392.17 77.90
  Q 393.17 74.41 390.28 72.47
  Q 388.77 71.46 389.19 73.23
  Q 389.80 75.79 391.18 78.03
  Q 391.83 79.09 392.17 77.90
  Z
  M 81.79 142.03
  Q 81.81 143.71 80.81 142.37
  Q 79.75 140.96 78.14 140.07
  Q 75.34 138.53 77.08 141.21
  C 78.23 142.97 81.58 149.18 83.52 148.82
  A 0.68 0.67 -3.4 0 0 84.07 148.21
  Q 84.17 146.95 84.17 145.66
  C 84.16 143.73 83.01 142.46 82.71 140.48
  A 0.82 0.81 2.1 0 0 82.07 139.80
  Q 81.63 139.70 81.10 139.74
  Q 79.25 139.90 80.95 140.65
  Q 81.77 141.02 81.79 142.03
  Z
  M 99.01 179.47
  L 101.98 182.87
  Q 103.71 184.85 102.46 182.54
  Q 101.47 180.71 100.08 179.13
  A 1.81 1.69 21.4 0 1 99.67 178.27
  L 98.79 173.36
  A 0.52 0.52 0.0 0 0 98.13 172.96
  C 97.16 173.25 95.79 182.94 99.24 183.01
  Q 100.40 183.03 99.39 182.46
  Q 97.78 181.54 98.05 179.75
  Q 98.23 178.57 99.01 179.47
  Z"
/>
<path fill="#cccccc" d="
  M 131.81 0.00
  L 237.32 0.01
  Q 235.53 1.50 233.22 1.61
  Q 232.74 1.63 232.28 1.75
  Q 230.84 2.12 231.02 3.32
  A 2.34 2.33 -87.6 0 0 232.77 5.23
  L 238.22 6.58
  A 1.35 1.35 0.0 0 1 239.23 8.12
  L 238.49 12.34
  A 0.76 0.75 -73.0 0 0 238.92 13.16
  Q 242.04 14.59 245.48 14.61
  Q 245.92 14.61 246.30 14.81
  Q 247.68 15.52 247.35 16.81
  A 1.12 1.09 -5.2 0 1 246.71 17.56
  C 242.27 19.44 239.56 17.89 235.52 17.46
  Q 234.23 17.32 233.87 18.21
  A 0.50 0.50 0.0 0 0 234.16 18.87
  C 235.18 19.24 237.64 21.28 236.26 22.31
  A 0.78 0.76 42.9 0 1 235.39 22.33
  C 233.25 20.95 231.65 18.29 228.45 18.96
  Q 227.97 19.06 227.50 18.90
  C 219.99 16.48 213.67 18.95 205.94 19.42
  Q 202.30 19.64 198.67 20.02
  A 0.49 0.49 0.0 0 0 198.24 20.62
  C 198.38 21.27 207.44 21.47 209.09 21.47
  C 218.24 21.53 227.00 22.94 235.98 23.75
  C 238.98 24.02 241.56 25.29 244.56 25.97
  Q 244.87 26.04 245.10 26.25
  L 245.51 26.63
  A 0.26 0.24 -17.0 0 0 245.66 26.70
  Q 248.75 27.21 251.70 28.28
  Q 252.84 28.69 251.90 31.94
  A 1.76 1.74 -81.4 0 1 250.18 33.22
  Q 241.52 33.06 232.72 32.72
  C 226.12 32.47 216.83 33.13 208.81 32.18
  Q 205.73 31.82 200.07 32.29
  A 1.04 1.03 -74.9 0 0 199.30 32.74
  C 196.77 36.38 186.43 33.84 182.89 33.74
  Q 169.09 33.36 165.01 34.27
  Q 160.69 35.24 156.30 35.63
  A 1.81 1.77 54.8 0 1 155.38 35.46
  Q 152.47 34.04 149.60 35.63
  A 1.26 1.23 -49.2 0 1 148.55 35.72
  L 143.64 33.95
  A 1.35 1.32 42.6 0 0 142.68 33.98
  C 136.93 36.47 132.00 36.15 124.55 36.06
  A 1.41 1.38 65.2 0 1 123.68 35.73
  Q 120.89 33.30 117.68 34.15
  C 112.55 35.52 109.00 34.76 104.18 35.01
  A 0.66 0.66 0.0 0 1 103.51 34.54
  C 103.25 33.68 105.17 30.82 105.21 29.25
  Q 108.86 26.24 108.71 21.57
  A 0.65 0.65 0.0 0 0 108.20 20.95
  L 107.50 20.79
  Q 106.19 20.83 105.26 21.86
  A 0.53 0.53 0.0 0 1 104.47 21.86
  L 102.76 19.97
  A 0.70 0.70 0.0 0 1 102.91 18.91
  L 104.75 17.76
  Q 105.13 17.52 105.57 17.44
  L 112.57 16.26
  A 0.52 0.51 -8.5 0 0 113.00 15.68
  L 112.95 15.34
  A 0.56 0.55 84.8 0 0 112.38 14.86
  Q 110.62 14.92 110.22 13.25
  A 0.56 0.56 0.0 0 1 110.76 12.56
  L 122.79 12.56
  A 0.48 0.48 0.0 0 0 123.26 11.99
  L 123.20 11.68
  A 0.70 0.70 0.0 0 0 122.71 11.14
  C 120.28 10.41 115.66 9.84 114.25 7.66
  A 1.07 1.06 75.9 0 0 113.47 7.19
  L 108.42 6.72
  A 0.62 0.61 16.4 0 1 107.93 5.83
  C 108.54 4.62 114.77 2.44 116.11 2.33
  Q 120.32 1.99 124.56 2.14
  C 127.33 2.24 129.47 1.17 131.81 0.00
  Z
  M 233.94 9.20
  C 232.96 5.84 228.45 7.13 226.03 7.80
  Q 220.38 9.34 212.78 9.35
  C 209.66 9.35 204.88 9.95 200.74 8.95
  C 199.37 8.61 198.76 8.90 197.77 9.75
  A 0.61 0.61 0.0 0 0 197.67 10.56
  C 198.23 11.37 205.16 10.88 207.38 10.90
  Q 209.46 10.92 215.73 11.35
  C 220.56 11.67 225.64 11.01 230.39 11.90
  C 232.02 12.21 236.53 13.01 236.08 11.05
  C 235.90 10.28 235.22 10.02 234.54 9.81
  A 0.93 0.92 0.7 0 1 233.94 9.20
  Z"
/>
<path fill="#ffffff" d="
  M 355.56 0.00
  L 450.00 0.00
  L 450.00 228.00
  L 408.19 228.00
  C 412.15 227.47 423.06 229.20 424.36 224.32
  A 0.40 0.40 0.0 0 0 423.98 223.82
  Q 419.68 223.73 416.62 220.66
  A 0.86 0.85 57.3 0 1 416.92 219.26
  Q 421.90 217.38 424.44 212.68
  Q 425.03 211.58 423.80 211.80
  Q 420.09 212.45 417.02 214.76
  A 1.28 1.27 76.0 0 0 416.53 215.58
  Q 416.16 218.21 413.83 219.49
  Q 413.38 219.74 413.08 220.16
  C 412.06 221.59 408.87 225.87 407.04 225.76
  A 0.49 0.48 3.0 0 1 406.58 225.26
  Q 406.71 221.99 409.30 220.40
  Q 409.69 220.16 409.94 219.78
  Q 411.22 217.81 413.15 216.45
  Q 413.57 216.16 413.83 215.72
  Q 416.51 211.07 420.14 207.11
  C 420.94 206.24 420.83 205.06 421.88 204.03
  Q 424.31 201.65 423.17 198.19
  A 0.32 0.32 0.0 0 0 422.64 198.06
  C 422.02 198.64 419.62 201.25 418.85 200.68
  A 0.50 0.50 0.0 0 1 418.82 199.91
  Q 423.58 195.60 425.18 189.32
  Q 425.53 187.95 424.34 188.72
  Q 421.64 190.48 422.00 193.68
  A 0.65 0.65 0.0 0 1 421.31 194.40
  L 418.66 194.24
  A 0.53 0.52 15.1 0 1 418.22 193.48
  C 419.42 191.12 422.97 187.25 421.79 184.69
  A 0.44 0.44 0.0 0 0 421.14 184.51
  Q 416.75 187.42 413.82 191.69
  C 410.63 196.34 407.25 200.80 403.95 205.36
  C 403.59 205.86 402.93 205.93 402.49 205.57
  A 0.53 0.53 0.0 0 1 402.41 204.83
  C 404.31 202.44 406.57 200.04 407.13 196.96
  A 0.59 0.58 13.4 0 0 406.72 196.30
  C 406.19 196.14 403.43 198.88 402.10 199.26
  Q 401.19 199.51 401.80 198.79
  L 410.94 187.99
  Q 411.27 187.60 410.82 187.84
  Q 409.02 188.77 407.94 190.56
  Q 407.69 190.98 407.28 191.25
  C 407.19 191.31 400.96 196.16 400.49 195.65
  A 0.50 0.50 0.0 0 1 400.51 194.95
  L 406.82 188.81
  Q 407.56 188.08 406.57 188.39
  C 404.86 188.92 401.97 191.98 400.96 191.25
  L 401.04 191.00
  C 403.70 187.44 406.61 183.93 408.85 180.08
  C 410.55 177.16 410.44 174.22 411.37 170.99
  Q 411.83 169.40 412.56 170.89
  L 414.22 174.25
  Q 414.44 174.71 414.59 174.22
  Q 418.44 161.63 418.74 151.74
  Q 419.25 135.24 422.59 122.91
  A 0.79 0.78 25.0 0 0 422.27 122.05
  Q 418.60 119.58 420.35 115.34
  A 1.19 1.17 44.7 0 0 420.34 114.42
  L 420.11 113.92
  Q 419.80 113.23 419.42 113.88
  L 418.60 115.31
  A 0.44 0.44 0.0 0 1 417.86 115.34
  C 417.26 114.50 417.05 113.59 417.51 112.56
  C 420.59 105.64 414.71 104.18 415.10 98.21
  A 0.86 0.84 -11.6 0 1 415.58 97.50
  C 419.95 95.28 419.39 92.23 417.64 88.44
  A 1.56 1.55 -52.4 0 1 417.52 87.50
  C 418.98 80.01 417.53 73.06 417.07 64.46
  C 416.99 62.97 416.37 62.31 414.99 62.07
  A 0.62 0.62 0.0 0 0 414.29 62.52
  L 413.53 65.18
  A 0.37 0.37 0.0 0 1 412.96 65.37
  C 411.51 64.30 415.15 57.70 410.44 55.89
  Q 409.42 55.50 409.94 56.45
  L 411.07 58.54
  A 1.04 1.01 -47.9 0 1 411.10 59.45
  Q 410.50 60.75 409.08 61.20
  A 0.60 0.60 0.0 0 1 408.34 60.85
  C 407.32 58.26 408.71 53.93 405.14 52.75
  A 0.35 0.34 -82.6 0 0 404.69 53.10
  C 404.89 56.48 403.67 59.19 403.89 62.29
  Q 404.62 72.40 405.70 82.43
  A 0.30 0.29 -80.8 0 1 405.29 82.73
  C 399.35 80.12 404.37 75.19 402.81 71.15
  C 399.63 62.91 401.35 55.07 394.53 48.22
  C 384.73 38.39 377.60 29.26 370.28 19.32
  A 1.54 1.46 28.2 0 1 369.99 18.44
  L 370.01 16.79
  A 1.86 1.81 -60.5 0 0 369.77 15.88
  Q 365.58 8.62 361.30 1.44
  Q 360.31 -0.21 358.46 0.28
  A 0.62 0.61 -7.7 0 0 357.99 0.89
  Q 358.01 1.84 357.43 2.45
  Q 357.06 2.83 357.04 2.30
  Q 357.00 0.58 355.56 0.00
  Z"
/>
<path fill="#e1e1e1" d="
  M 234.54 9.81
  C 235.22 10.02 235.90 10.28 236.08 11.05
  C 236.53 13.01 232.02 12.21 230.39 11.90
  C 225.64 11.01 220.56 11.67 215.73 11.35
  Q 209.46 10.92 207.38 10.90
  C 205.16 10.88 198.23 11.37 197.67 10.56
  A 0.61 0.61 0.0 0 1 197.77 9.75
  C 198.76 8.90 199.37 8.61 200.74 8.95
  C 204.88 9.95 209.66 9.35 212.78 9.35
  Q 220.38 9.34 226.03 7.80
  C 228.45 7.13 232.96 5.84 233.94 9.20
  A 0.93 0.92 0.7 0 0 234.54 9.81
  Z"
/>
<ellipse fill="#ffffff" cx="0.00" cy="0.00" transform="translate(87.08,14.34) rotate(-42.3)" rx="2.16" ry="0.81"/>
<path fill="#0b0b0b" d="
  M 78.00 18.04
  Q 78.26 27.16 76.95 36.16
  C 75.89 43.42 72.87 47.62 67.01 51.49
  Q 64.41 46.68 66.27 42.29
  Q 69.57 34.46 68.44 27.67
  A 0.87 0.87 0.0 0 0 67.85 26.99
  L 66.38 26.50
  A 0.76 0.75 -68.7 0 0 65.46 26.91
  Q 62.30 33.77 61.01 43.26
  Q 56.54 76.31 65.29 106.87
  Q 66.24 110.16 68.02 112.18
  A 1.42 1.42 0.0 0 0 70.21 112.10
  Q 74.80 106.07 73.98 99.83
  C 73.28 94.41 72.63 82.14 76.21 77.70
  C 81.63 70.96 88.83 61.77 98.25 58.21
  C 107.82 58.09 115.70 57.00 120.70 64.66
  A 0.61 0.61 0.0 0 0 121.58 64.81
  L 122.74 63.96
  A 0.60 0.60 0.0 0 1 123.63 64.17
  L 124.29 65.51
  A 0.59 0.58 56.1 0 0 125.19 65.69
  L 128.21 63.11
  A 0.76 0.75 61.8 0 1 129.43 63.48
  C 130.13 65.95 128.38 69.45 128.55 72.96
  C 128.76 77.39 133.02 83.91 134.99 87.98
  Q 135.28 88.57 135.63 88.01
  Q 138.37 83.68 140.78 79.23
  C 142.19 76.63 141.76 74.43 141.76 71.60
  A 1.15 1.13 -22.0 0 1 142.12 70.77
  Q 142.60 70.33 143.03 69.51
  Q 145.38 65.03 150.36 62.79
  A 0.54 0.54 0.0 0 1 151.12 63.24
  L 151.30 65.27
  A 0.52 0.52 0.0 0 0 151.78 65.74
  L 152.48 65.78
  A 0.55 0.55 0.0 0 1 152.95 66.53
  C 152.20 68.39 151.25 69.78 151.25 71.86
  Q 151.23 78.75 151.27 85.63
  C 151.29 89.29 152.17 93.65 152.02 97.80
  C 151.94 99.86 152.87 101.43 153.03 103.52
  C 153.30 107.12 154.32 109.49 155.00 112.71
  Q 151.93 117.87 146.57 120.85
  A 0.50 0.49 61.2 0 1 145.89 120.65
  C 142.55 114.40 143.63 107.45 142.33 100.75
  C 141.51 96.49 141.85 92.77 141.61 88.64
  Q 141.56 87.86 141.17 88.54
  L 137.80 94.32
  A 1.41 1.38 53.7 0 0 137.65 95.37
  Q 138.66 99.31 141.40 102.23
  A 1.02 1.01 29.0 0 1 141.66 103.12
  C 141.15 105.58 135.30 110.29 133.58 111.55
  A 0.62 0.62 0.0 0 1 132.77 111.49
  L 130.50 109.21
  Q 129.99 108.25 129.06 107.93
  Q 128.53 107.75 128.78 108.25
  L 129.54 109.75
  Q 126.67 118.07 118.80 122.74
  Q 117.52 123.50 117.51 122.01
  Q 117.48 111.01 117.51 99.19
  C 117.51 97.68 118.29 95.94 118.11 94.25
  Q 118.05 93.73 117.83 94.20
  Q 111.63 107.39 101.10 117.22
  C 95.28 122.66 89.23 123.91 82.79 118.75
  Q 79.00 115.39 76.67 110.60
  A 0.30 0.30 0.0 0 0 76.16 110.55
  C 71.76 116.53 60.08 130.69 55.62 114.67
  Q 48.50 89.13 50.51 60.75
  C 51.62 45.04 54.69 29.44 67.85 19.83
  Q 72.38 16.52 78.00 18.04
  Z
  M 112.43 77.93
  C 111.78 67.03 98.32 66.32 90.70 67.58
  Q 87.66 68.09 87.63 71.17
  Q 87.53 81.43 85.45 91.06
  C 83.70 99.16 88.18 110.22 97.53 111.09
  A 1.36 1.34 -18.9 0 1 98.36 111.49
  C 100.38 113.59 102.24 112.50 103.66 110.40
  Q 113.49 95.89 112.43 77.93
  Z
  M 127.61 104.00
  Q 128.44 102.84 127.57 101.69
  Q 126.75 100.59 126.75 101.96
  L 126.75 103.73
  Q 126.75 105.20 127.61 104.00
  Z"
/>
<path fill="#ffffff" d="
  M 107.50 20.79
  L 108.20 20.95
  A 0.65 0.65 0.0 0 1 108.71 21.57
  Q 108.86 26.24 105.21 29.25
  L 98.45 35.95
  A 1.70 1.69 -17.6 0 0 97.96 36.89
  Q 97.21 41.43 92.27 40.15
  A 0.81 0.81 0.0 0 1 91.87 38.83
  Q 99.04 30.81 105.04 22.78
  Q 106.01 21.49 107.50 20.79
  Z"
/>
<path fill="#ffffff" d="
  M 67.01 51.49
  L 70.53 52.69
  Q 72.22 53.26 71.93 55.02
  C 71.21 59.52 68.22 59.49 66.97 62.39
  C 66.01 64.60 67.61 66.26 68.41 68.12
  A 0.63 0.62 -30.5 0 1 68.21 68.87
  L 66.10 70.45
  A 1.40 1.39 -13.9 0 0 65.55 71.35
  L 65.37 72.42
  A 1.00 0.99 85.8 0 0 66.65 73.53
  Q 69.29 72.69 69.28 70.01
  A 1.33 1.27 66.4 0 1 69.59 69.16
  C 71.32 67.14 72.89 65.54 74.16 63.11
  C 75.48 60.61 88.01 40.98 90.37 42.06
  A 0.27 0.27 0.0 0 1 90.49 42.45
  Q 89.87 43.39 90.39 43.99
  Q 90.86 44.54 91.09 43.86
  Q 91.94 41.39 94.74 42.05
  Q 95.34 42.19 94.88 42.60
  C 92.07 45.08 84.30 50.14 87.55 55.21
  A 1.42 1.42 0.0 0 1 87.77 56.15
  Q 87.64 57.33 86.65 58.15
  A 0.52 0.51 -29.5 0 0 86.49 58.72
  L 86.59 59.02
  A 0.15 0.15 0.0 0 0 86.81 59.10
  C 91.47 56.44 95.76 52.54 100.75 50.71
  Q 100.58 53.32 98.98 55.33
  Q 98.67 55.71 98.59 56.18
  L 98.25 58.21
  C 88.83 61.77 81.63 70.96 76.21 77.70
  C 72.63 82.14 73.28 94.41 73.98 99.83
  Q 74.80 106.07 70.21 112.10
  A 1.42 1.42 0.0 0 1 68.02 112.18
  Q 66.24 110.16 65.29 106.87
  Q 56.54 76.31 61.01 43.26
  Q 62.30 33.77 65.46 26.91
  A 0.76 0.75 -68.7 0 1 66.38 26.50
  L 67.85 26.99
  A 0.87 0.87 0.0 0 1 68.44 27.67
  Q 69.57 34.46 66.27 42.29
  Q 64.41 46.68 67.01 51.49
  Z"
/>
<path fill="#cccccc" d="
  M 232.81 62.20
  C 230.45 56.52 208.92 63.52 204.59 65.52
  Q 204.63 63.73 203.08 63.83
  C 201.22 63.95 199.42 63.75 197.57 63.57
  A 1.53 1.52 68.5 0 1 196.71 63.19
  Q 195.34 61.94 193.54 61.75
  Q 194.72 58.60 192.39 56.89
  Q 189.82 55.02 187.35 57.01
  L 181.29 61.88
  L 165.81 61.76
  A 0.53 0.53 0.0 0 0 165.28 62.27
  L 165.21 64.00
  C 164.89 62.68 165.68 59.05 164.79 58.48
  A 0.85 0.84 -43.3 0 0 163.91 58.46
  C 160.39 60.51 155.76 64.35 155.76 68.82
  Q 155.75 81.62 155.74 94.43
  C 155.73 96.81 154.63 98.18 153.31 99.96
  Q 152.79 100.67 153.66 100.52
  L 155.10 100.26
  A 0.48 0.48 0.0 0 1 155.66 100.74
  L 155.50 112.71
  L 155.00 112.71
  C 154.32 109.49 153.30 107.12 153.03 103.52
  C 152.87 101.43 151.94 99.86 152.02 97.80
  C 152.17 93.65 151.29 89.29 151.27 85.63
  Q 151.23 78.75 151.25 71.86
  C 151.25 69.78 152.20 68.39 152.95 66.53
  A 0.55 0.55 0.0 0 0 152.48 65.78
  L 151.78 65.74
  A 0.52 0.52 0.0 0 1 151.30 65.27
  L 151.12 63.24
  A 0.54 0.54 0.0 0 0 150.36 62.79
  Q 145.38 65.03 143.03 69.51
  Q 142.60 70.33 142.12 70.77
  A 1.15 1.13 -22.0 0 0 141.76 71.60
  C 141.76 74.43 142.19 76.63 140.78 79.23
  Q 138.37 83.68 135.63 88.01
  Q 135.28 88.57 134.99 87.98
  C 133.02 83.91 128.76 77.39 128.55 72.96
  C 128.38 69.45 130.13 65.95 129.43 63.48
  A 0.76 0.75 61.8 0 0 128.21 63.11
  L 125.19 65.69
  A 0.59 0.58 56.1 0 1 124.29 65.51
  L 123.63 64.17
  A 0.60 0.60 0.0 0 0 122.74 63.96
  L 121.58 64.81
  A 0.61 0.61 0.0 0 1 120.70 64.66
  C 115.70 57.00 107.82 58.09 98.25 58.21
  L 98.59 56.18
  Q 98.67 55.71 98.98 55.33
  Q 100.58 53.32 100.75 50.71
  L 105.39 47.03
  A 1.42 1.39 77.6 0 0 105.87 46.26
  C 106.33 44.35 108.94 45.15 109.47 42.78
  A 0.62 0.62 0.0 0 1 110.06 42.30
  Q 115.25 42.26 120.38 41.80
  C 124.37 41.45 128.85 42.34 133.48 39.91
  Q 133.92 39.67 134.43 39.69
  Q 138.16 39.80 141.45 38.13
  A 1.45 1.44 39.6 0 1 142.51 38.03
  L 146.71 39.25
  A 1.80 1.74 44.0 0 0 147.72 39.25
  Q 150.86 38.31 153.09 40.58
  A 0.88 0.87 58.1 0 0 154.00 40.80
  C 160.89 38.48 166.31 40.99 172.99 39.72
  C 178.98 38.57 185.39 38.84 191.48 38.70
  C 198.56 38.54 206.16 39.22 213.53 39.37
  C 220.12 39.50 226.86 41.74 233.46 42.44
  A 4.25 4.18 -53.6 0 0 235.58 42.10
  Q 236.59 41.64 237.75 41.75
  Q 238.94 41.86 237.88 42.40
  Q 236.31 43.19 236.33 44.75
  A 1.07 1.06 -73.0 0 0 236.78 45.60
  Q 238.66 46.96 240.15 45.15
  A 1.11 1.08 -69.1 0 1 241.01 44.75
  C 245.95 44.84 248.64 47.91 242.18 50.06
  C 237.18 51.73 239.28 54.56 236.45 57.24
  A 0.74 0.73 -36.9 0 0 236.32 58.14
  L 236.82 59.03
  A 0.33 0.33 0.0 0 1 236.63 59.51
  Q 234.24 60.26 232.81 62.20
  Z"
/>
<path fill="#0b0b0b" d="
  M 301.79 110.00
  Q 303.64 107.83 304.59 105.21
  Q 304.92 104.31 304.40 105.12
  L 301.50 109.71
  Q 297.61 113.82 293.32 117.62
  Q 289.85 120.69 287.19 117.19
  A 1.70 1.69 25.3 0 1 286.84 116.22
  Q 286.17 98.59 290.49 81.48
  Q 290.84 80.08 289.99 81.24
  L 275.00 101.77
  A 1.58 1.53 57.7 0 0 274.74 103.00
  Q 276.02 108.92 281.71 107.60
  Q 282.43 107.43 282.08 108.08
  Q 279.31 113.22 274.41 116.22
  C 271.44 118.04 269.02 117.29 266.51 115.35
  A 0.53 0.53 0.0 0 0 265.79 115.42
  Q 263.13 118.39 259.61 120.20
  Q 258.56 120.74 258.91 119.61
  L 259.50 117.74
  Q 259.68 117.18 259.22 117.54
  C 256.70 119.53 251.85 126.21 248.49 122.65
  Q 247.50 121.60 247.50 119.56
  C 247.49 109.72 246.49 98.35 248.39 88.77
  Q 248.53 88.07 247.90 88.40
  L 241.60 91.64
  A 1.12 1.11 76.4 0 0 241.00 92.63
  L 241.00 111.13
  A 0.58 0.57 -11.6 0 0 241.80 111.65
  L 243.50 110.90
  A 1.19 1.16 -44.3 0 1 244.43 110.90
  L 244.77 111.05
  A 0.44 0.44 0.0 0 1 244.96 111.69
  Q 241.01 117.61 235.40 122.04
  Q 232.34 124.46 231.71 120.61
  Q 231.24 117.73 231.29 113.75
  C 231.49 99.87 231.05 86.36 233.87 72.20
  C 234.85 67.32 238.71 64.02 242.94 61.97
  Q 243.39 61.74 243.34 62.25
  C 242.52 69.24 240.64 77.20 241.03 84.11
  A 0.53 0.52 82.0 0 0 241.66 84.59
  L 247.88 83.23
  A 0.91 0.90 -1.5 0 0 248.59 82.49
  C 250.36 72.25 250.20 64.57 260.60 59.53
  Q 263.01 58.37 263.33 61.02
  C 263.97 66.21 263.08 69.92 260.20 74.71
  C 255.04 83.30 256.43 99.55 257.13 112.96
  Q 257.16 113.56 257.47 113.04
  Q 259.83 109.15 263.95 107.10
  A 0.82 0.79 78.3 0 0 264.39 106.41
  Q 264.84 92.10 264.22 84.74
  Q 263.33 74.13 273.14 69.64
  A 0.43 0.43 0.0 0 1 273.75 70.03
  L 273.75 97.23
  Q 273.75 97.84 274.12 97.35
  Q 284.97 83.28 294.78 68.51
  Q 297.40 64.55 301.86 62.73
  Q 304.15 61.80 303.06 64.01
  C 297.60 75.15 296.49 90.11 296.23 103.50
  Q 296.17 106.79 296.48 108.33
  Q 296.58 108.85 296.83 108.38
  C 300.00 102.16 303.32 94.13 302.76 87.05
  C 301.81 75.20 308.95 65.72 318.80 60.10
  Q 322.79 57.82 326.78 55.49
  C 330.23 53.46 342.47 50.02 344.62 55.03
  A 1.00 0.98 -41.8 0 1 344.56 55.93
  C 341.66 60.71 339.34 61.23 336.41 64.42
  A 0.58 0.58 0.0 0 1 335.50 64.35
  L 334.24 62.49
  A 1.07 1.06 -13.1 0 0 333.48 62.02
  Q 322.02 60.66 314.05 68.29
  Q 311.58 70.65 312.34 74.31
  A 0.45 0.44 -15.0 0 0 312.92 74.64
  L 314.00 74.27
  A 0.54 0.54 0.0 0 1 314.71 74.75
  L 314.83 76.98
  Q 314.94 79.06 317.02 78.84
  Q 327.32 77.76 337.30 75.01
  A 0.82 0.81 59.5 0 1 338.10 75.22
  L 338.31 75.43
  A 0.55 0.55 0.0 0 1 338.36 76.16
  Q 333.81 82.07 327.47 85.82
  C 323.47 88.19 321.08 91.02 318.05 94.17
  A 0.93 0.90 61.3 0 0 317.82 95.01
  C 318.99 99.93 319.38 106.50 315.05 110.03
  Q 314.21 110.71 315.30 110.72
  C 319.55 110.77 323.66 110.99 327.83 110.11
  Q 333.40 108.92 338.76 107.45
  Q 339.92 107.13 339.31 108.17
  C 334.25 116.81 326.73 118.03 317.71 119.48
  Q 309.68 120.77 301.67 119.05
  Q 298.53 118.38 299.23 115.24
  Q 299.72 113.06 301.79 110.00
  Z
  M 317.01 90.67
  A 0.40 0.40 0.0 0 0 317.66 90.77
  L 321.45 86.79
  A 0.40 0.40 0.0 0 0 321.06 86.12
  L 315.93 87.54
  A 0.40 0.40 0.0 0 0 315.68 88.11
  L 317.01 90.67
  Z"
/>
<path fill="#0b0b0b" d="
  M 193.54 61.75
  Q 193.77 73.15 186.54 81.81
  A 1.88 1.87 -22.9 0 0 186.12 82.84
  Q 185.45 90.15 185.82 97.50
  Q 185.89 98.83 186.21 97.54
  Q 188.26 89.37 190.57 81.27
  C 192.74 73.67 197.83 69.55 204.59 65.52
  C 208.92 63.52 230.45 56.52 232.81 62.20
  Q 229.19 67.27 224.47 71.39
  A 0.60 0.59 -39.2 0 1 223.61 71.31
  L 222.55 69.91
  A 1.10 1.08 -17.6 0 0 221.73 69.49
  Q 211.96 69.25 202.72 72.34
  A 0.71 0.69 -13.8 0 0 202.25 73.09
  L 203.53 81.98
  A 0.56 0.56 0.0 0 0 204.27 82.43
  Q 215.75 78.51 227.81 77.66
  Q 229.46 77.55 228.70 79.02
  Q 226.06 84.09 221.30 87.31
  A 1.49 1.48 31.2 0 1 220.31 87.55
  Q 213.19 86.68 206.32 88.81
  A 1.23 1.23 0.0 0 0 205.46 89.98
  L 205.32 109.06
  A 0.55 0.55 0.0 0 0 205.85 109.62
  C 213.21 109.93 219.16 111.85 226.54 109.75
  Q 228.43 109.21 227.71 111.03
  C 226.21 114.82 222.78 116.31 220.07 118.94
  A 1.11 1.07 24.5 0 1 219.22 119.24
  C 216.22 118.99 213.66 120.15 210.93 119.93
  Q 203.79 119.35 195.83 118.81
  Q 193.67 118.66 192.19 117.08
  C 191.05 115.88 191.35 114.34 192.00 112.76
  Q 193.47 109.14 193.23 105.15
  A 0.13 0.12 9.7 0 0 193.14 105.03
  C 192.97 104.96 192.86 104.97 192.80 105.17
  Q 189.95 115.65 180.43 120.87
  A 0.81 0.80 48.3 0 1 179.58 120.82
  Q 176.62 118.65 176.58 116.43
  C 176.46 110.36 176.25 104.60 176.51 98.35
  Q 176.62 95.44 176.24 92.53
  A 0.31 0.31 0.0 0 0 175.78 92.30
  L 165.67 97.81
  A 0.88 0.87 -14.4 0 0 165.21 98.58
  L 165.12 110.92
  A 0.68 0.67 -84.2 0 0 165.65 111.58
  L 166.85 111.83
  A 0.88 0.87 -70.4 0 1 167.45 113.10
  Q 164.45 118.78 158.73 121.79
  A 1.56 1.56 0.0 0 1 156.60 121.10
  C 155.17 118.20 156.38 115.55 155.50 112.71
  L 155.66 100.74
  A 0.48 0.48 0.0 0 0 155.10 100.26
  L 153.66 100.52
  Q 152.79 100.67 153.31 99.96
  C 154.63 98.18 155.73 96.81 155.74 94.43
  Q 155.75 81.62 155.76 68.82
  C 155.76 64.35 160.39 60.51 163.91 58.46
  A 0.85 0.84 -43.3 0 1 164.79 58.48
  C 165.68 59.05 164.89 62.68 165.21 64.00
  L 165.29 72.50
  L 165.29 78.75
  L 165.30 90.62
  A 0.46 0.46 0.0 0 0 165.92 91.05
  L 175.76 87.33
  A 0.87 0.86 80.9 0 0 176.32 86.55
  L 176.54 79.00
  Q 177.41 76.31 177.21 73.50
  Q 177.70 67.52 181.29 61.88
  L 187.35 57.01
  Q 189.82 55.02 192.39 56.89
  Q 194.72 58.60 193.54 61.75
  Z"
/>
<path fill="#0b0b0b" d="
  M 366.65 70.21
  L 362.69 70.52
  Q 361.49 70.62 362.11 69.58
  Q 364.88 64.99 369.41 62.19
  Q 371.20 61.08 373.87 60.96
  Q 381.76 60.62 389.55 59.07
  Q 391.57 58.66 391.86 60.71
  C 392.66 66.46 379.76 78.16 375.34 81.31
  Q 374.62 81.83 373.75 83.78
  Q 373.55 84.25 374.05 84.15
  Q 384.28 82.10 391.02 82.74
  C 401.04 83.71 401.83 97.99 401.14 105.57
  C 400.23 115.49 385.23 126.14 376.23 127.96
  C 365.49 130.13 355.44 130.09 347.10 122.78
  A 0.72 0.71 35.9 0 1 346.95 121.89
  Q 350.04 116.47 355.59 113.50
  A 0.83 0.82 52.1 0 1 356.53 113.62
  C 362.33 118.90 368.67 120.45 376.30 119.50
  C 381.49 118.86 385.95 118.96 390.65 116.36
  A 1.87 1.85 78.2 0 0 391.61 114.87
  C 392.22 107.89 392.15 96.57 384.83 92.93
  C 381.94 91.49 377.83 92.00 374.45 92.04
  A 0.55 0.55 0.0 0 0 373.90 92.58
  L 373.69 104.78
  A 1.75 1.73 31.1 0 0 373.92 105.68
  C 375.78 109.01 369.25 114.09 367.15 115.47
  Q 364.87 116.97 364.22 114.31
  C 362.86 108.71 364.38 100.60 364.64 94.72
  A 0.37 0.37 0.0 0 0 364.18 94.35
  C 362.59 94.77 352.96 98.33 352.41 97.28
  A 0.94 0.93 -41.7 0 1 352.47 96.33
  Q 356.87 89.94 363.93 86.60
  Q 365.61 85.81 365.53 83.94
  Q 365.24 77.17 367.01 70.65
  A 0.35 0.35 0.0 0 0 366.65 70.21
  Z
  M 374.95 70.80
  L 374.69 77.34
  A 0.43 0.43 0.0 0 0 375.32 77.74
  Q 380.31 75.21 382.42 70.07
  A 1.00 0.99 -72.3 0 0 381.73 68.72
  Q 378.37 67.95 375.55 69.74
  A 1.30 1.30 0.0 0 0 374.95 70.80
  Z"
/>
<path fill="#e1e1e1" d="
  M 181.29 61.88
  Q 177.70 67.52 177.21 73.50
  L 177.03 73.86
  A 0.66 0.65 17.4 0 1 176.35 74.21
  L 165.29 72.50
  L 165.21 64.00
  L 165.28 62.27
  A 0.53 0.53 0.0 0 1 165.81 61.76
  L 181.29 61.88
  Z"
/>
<path fill="#e1e1e1" d="
  M 193.54 61.75
  Q 195.34 61.94 196.71 63.19
  A 1.53 1.52 68.5 0 0 197.57 63.57
  C 199.42 63.75 201.22 63.95 203.08 63.83
  Q 204.63 63.73 204.59 65.52
  C 197.83 69.55 192.74 73.67 190.57 81.27
  Q 188.26 89.37 186.21 97.54
  Q 185.89 98.83 185.82 97.50
  Q 185.45 90.15 186.12 82.84
  A 1.88 1.87 -22.9 0 1 186.54 81.81
  Q 193.77 73.15 193.54 61.75
  Z"
/>
<path fill="#e1e1e1" d="
  M 90.70 67.58
  C 98.32 66.32 111.78 67.03 112.43 77.93
  Q 113.49 95.89 103.66 110.40
  C 102.24 112.50 100.38 113.59 98.36 111.49
  A 1.36 1.34 -18.9 0 0 97.53 111.09
  C 88.18 110.22 83.70 99.16 85.45 91.06
  Q 87.53 81.43 87.63 71.17
  Q 87.66 68.09 90.70 67.58
  Z"
/>
<path fill="#e1e1e1" d="
  M 375.55 69.74
  Q 378.37 67.95 381.73 68.72
  A 1.00 0.99 -72.3 0 1 382.42 70.07
  Q 380.31 75.21 375.32 77.74
  A 0.43 0.43 0.0 0 1 374.69 77.34
  L 374.95 70.80
  A 1.30 1.30 0.0 0 1 375.55 69.74
  Z"
/>
<ellipse fill="#ffffff" cx="0.00" cy="0.00" transform="translate(414.27,72.40) rotate(87.2)" rx="1.93" ry="0.86"/>
<path fill="#cccccc" d="
  M 165.29 72.50
  L 176.35 74.21
  A 0.66 0.65 17.4 0 0 177.03 73.86
  L 177.21 73.50
  Q 177.41 76.31 176.54 79.00
  L 176.52 78.88
  A 0.18 0.18 0.0 0 0 176.37 78.73
  Q 170.82 77.87 165.29 78.75
  L 165.29 72.50
  Z"
/>
<path fill="#ffffff" d="
  M 392.17 77.90
  Q 391.83 79.09 391.18 78.03
  Q 389.80 75.79 389.19 73.23
  Q 388.77 71.46 390.28 72.47
  Q 393.17 74.41 392.17 77.90
  Z"
/>
<path fill="#e1e1e1" d="
  M 176.54 79.00
  L 176.32 86.55
  A 0.87 0.86 80.9 0 1 175.76 87.33
  L 165.92 91.05
  A 0.46 0.46 0.0 0 1 165.30 90.62
  L 165.29 78.75
  Q 170.82 77.87 176.37 78.73
  A 0.18 0.18 0.0 0 1 176.52 78.88
  L 176.54 79.00
  Z"
/>
<path fill="#e1e1e1" d="
  M 317.01 90.67
  L 315.68 88.11
  A 0.40 0.40 0.0 0 1 315.93 87.54
  L 321.06 86.12
  A 0.40 0.40 0.0 0 1 321.45 86.79
  L 317.66 90.77
  A 0.40 0.40 0.0 0 1 317.01 90.67
  Z"
/>
<path fill="#cccccc" d="
  M 127.61 104.00
  Q 126.75 105.20 126.75 103.73
  L 126.75 101.96
  Q 126.75 100.59 127.57 101.69
  Q 128.44 102.84 127.61 104.00
  Z"
/>
<path fill="#cccccc" d="
  M 301.79 110.00
  L 301.50 109.71
  L 304.40 105.12
  Q 304.92 104.31 304.59 105.21
  Q 303.64 107.83 301.79 110.00
  Z"
/>
<path fill="#cccccc" d="
  M 130.50 109.21
  L 129.54 109.75
  L 128.78 108.25
  Q 128.53 107.75 129.06 107.93
  Q 129.99 108.25 130.50 109.21
  Z"
/>
<path fill="#cccccc" d="
  M 401.04 191.00
  L 400.96 191.25
  Q 399.31 192.77 399.81 194.71
  A 0.79 0.78 -27.7 0 1 399.56 195.50
  C 397.02 197.70 396.74 201.19 393.68 204.64
  A 1.00 1.00 0.0 0 0 393.46 205.53
  L 394.17 208.49
  Q 394.49 209.81 395.39 208.79
  C 396.84 207.14 398.16 204.28 400.64 204.50
  A 1.30 1.29 -73.9 0 1 401.68 206.39
  Q 399.24 211.12 394.29 213.03
  Q 393.67 213.27 393.39 214.29
  A 0.47 0.46 12.1 0 0 393.77 214.87
  C 395.16 215.10 399.06 214.03 399.60 214.25
  Q 400.12 214.47 399.64 214.76
  Q 397.29 216.18 394.63 216.41
  C 390.44 216.77 384.72 219.23 383.18 223.48
  A 0.39 0.39 0.0 0 0 383.52 224.00
  C 384.10 224.05 390.23 223.60 390.29 223.75
  A 0.46 0.46 0.0 0 1 389.96 224.37
  L 382.85 225.83
  A 0.19 0.17 14.9 0 0 382.75 225.88
  L 382.56 226.05
  Q 382.34 226.25 382.63 226.33
  Q 386.47 227.41 390.35 226.53
  A 0.66 0.66 0.0 0 1 391.14 227.31
  C 390.99 228.01 387.40 227.67 386.19 228.00
  L 245.44 228.00
  Q 238.31 227.37 231.19 228.00
  L 228.19 228.00
  L 227.66 227.71
  A 0.55 0.54 29.6 0 1 227.45 226.96
  L 227.97 226.08
  A 0.72 0.71 32.4 0 0 227.75 225.12
  L 225.97 223.90
  A 0.88 0.86 -72.1 0 1 225.59 223.14
  C 225.65 221.70 231.65 221.87 232.87 221.49
  Q 233.56 221.27 232.96 220.87
  Q 231.57 219.95 231.97 218.21
  Q 232.53 215.80 230.15 216.47
  Q 227.71 217.17 225.32 216.30
  A 0.42 0.42 0.0 0 1 225.12 215.66
  Q 227.01 213.04 227.75 210.04
  L 242.73 210.01
  Q 244.50 210.00 246.01 209.07
  Q 250.52 206.28 253.19 201.72
  Q 253.77 200.72 252.62 200.73
  C 243.33 200.79 231.05 201.96 222.14 200.09
  A 0.53 0.53 0.0 0 1 221.76 199.37
  L 222.24 198.22
  A 1.39 1.38 46.3 0 0 222.26 197.23
  Q 218.98 188.36 217.59 179.02
  A 0.50 0.50 0.0 0 1 218.02 178.45
  Q 227.03 177.30 236.14 177.26
  C 240.89 177.24 245.05 172.40 247.25 168.62
  A 0.34 0.34 0.0 0 0 247.01 168.11
  C 240.79 167.12 234.35 168.41 228.90 168.92
  Q 223.03 169.46 217.41 171.43
  A 0.49 0.48 -10.3 0 1 216.76 170.99
  L 216.44 163.11
  A 0.78 0.77 81.9 0 1 217.03 162.32
  Q 224.67 160.49 232.48 160.18
  C 237.11 160.00 242.55 159.18 247.66 159.49
  A 0.56 0.56 0.0 0 1 248.18 159.92
  L 248.45 160.94
  A 0.44 0.43 62.3 0 0 249.15 161.16
  L 254.46 156.75
  L 257.29 159.49
  A 0.97 0.96 -28.8 0 0 258.17 159.74
  C 262.00 158.92 264.61 158.49 268.94 158.88
  Q 274.62 159.39 280.03 157.11
  A 1.87 1.82 37.1 0 1 280.99 156.99
  C 286.17 157.77 290.04 151.49 293.95 148.75
  C 297.45 146.31 301.35 141.39 304.21 138.29
  Q 304.74 137.71 303.95 137.77
  Q 301.27 137.94 299.42 139.82
  A 0.78 0.76 -34.5 0 0 299.26 140.63
  L 299.55 141.37
  A 0.72 0.71 68.3 0 1 299.15 142.31
  Q 294.65 144.08 289.89 143.45
  A 1.74 1.67 -52.2 0 0 288.94 143.59
  Q 282.05 146.78 274.38 145.80
  A 0.56 0.55 4.2 0 0 273.75 146.34
  L 273.74 147.33
  A 0.72 0.71 84.4 0 1 273.18 148.02
  L 266.65 149.42
  A 0.73 0.73 0.0 0 0 266.08 150.05
  L 265.98 150.97
  A 0.31 0.30 -73.3 0 1 265.54 151.21
  Q 262.37 149.59 258.76 149.77
  A 0.64 0.63 -85.3 0 0 258.17 150.28
  L 257.79 152.25
  Q 257.76 150.18 256.25 150.25
  Q 245.15 150.73 234.04 151.21
  Q 237.33 150.43 240.72 150.25
  C 245.37 150.01 247.71 147.53 251.97 146.73
  Q 254.12 146.32 258.00 145.27
  Q 274.23 140.84 296.03 138.19
  C 298.63 137.88 301.83 136.47 304.94 136.54
  A 1.22 1.22 0.0 0 0 305.79 136.22
  L 311.36 131.06
  Q 313.02 129.52 311.99 131.53
  L 311.09 133.30
  A 0.43 0.43 0.0 0 0 311.38 133.91
  C 314.04 134.52 314.20 130.88 316.65 132.89
  A 0.81 0.78 -31.1 0 0 317.34 133.05
  L 321.53 131.97
  Q 322.85 131.63 321.81 132.51
  L 319.88 134.13
  A 0.85 0.85 0.0 0 0 319.67 135.16
  C 320.58 137.00 324.16 133.99 324.68 135.32
  A 0.39 0.38 67.2 0 1 324.49 135.80
  Q 321.32 137.40 317.86 136.55
  A 0.61 0.61 0.0 0 0 317.11 137.05
  L 316.99 137.89
  A 0.68 0.67 5.3 0 1 316.30 138.46
  C 309.58 138.28 307.00 143.05 300.77 144.88
  C 294.55 146.70 299.71 151.11 296.00 154.21
  A 0.35 0.35 0.0 0 0 296.07 154.79
  C 297.69 155.63 307.05 153.38 309.34 152.95
  C 313.30 152.19 316.02 150.86 318.94 147.79
  Q 327.14 139.12 331.63 133.12
  Q 333.26 130.93 334.89 130.03
  A 0.90 0.88 -44.4 0 1 335.74 130.03
  L 340.11 132.42
  A 0.67 0.66 38.2 0 1 340.24 133.50
  L 334.88 138.29
  A 0.17 0.17 0.0 0 0 334.91 138.57
  L 335.17 138.71
  A 0.38 0.38 0.0 0 0 335.61 138.68
  L 337.50 137.16
  Q 338.03 136.74 338.01 137.41
  L 338.00 137.76
  A 0.13 0.12 -20.8 0 1 337.95 137.86
  Q 335.77 139.44 334.21 141.62
  Q 333.30 142.90 334.55 141.95
  Q 337.88 139.43 341.19 136.97
  C 342.94 135.66 345.82 134.47 347.68 132.34
  A 1.87 1.75 9.6 0 1 348.48 131.81
  C 350.36 131.19 354.72 130.17 355.66 132.31
  A 0.92 0.90 54.1 0 1 355.51 133.30
  L 353.62 135.46
  Q 353.31 135.81 353.17 136.26
  Q 352.50 138.37 350.56 139.68
  A 0.82 0.81 -22.2 0 0 350.21 140.51
  L 350.49 142.06
  A 0.78 0.77 -4.8 0 0 351.26 142.70
  Q 353.59 142.68 355.90 142.70
  C 357.68 142.72 359.56 141.65 361.61 142.19
  Q 362.31 142.37 361.77 142.84
  Q 359.61 144.75 356.78 143.93
  Q 355.01 143.42 355.49 145.20
  L 355.63 145.74
  A 0.76 0.75 -9.3 0 0 356.41 146.29
  L 362.24 145.92
  A 1.26 1.25 -21.9 0 1 363.25 146.35
  L 367.27 151.08
  Q 367.94 151.86 368.88 152.29
  Q 370.87 153.21 370.47 155.75
  A 1.18 1.18 0.0 0 0 370.65 156.58
  Q 371.83 158.37 371.27 160.44
  A 0.76 0.74 -82.4 0 1 370.55 161.00
  L 370.02 161.01
  A 1.17 1.12 17.1 0 0 369.12 161.46
  L 364.43 167.66
  Q 363.61 168.74 364.94 168.49
  Q 367.77 167.98 368.67 165.37
  A 0.59 0.59 0.0 0 1 369.45 165.01
  L 372.29 166.13
  A 0.56 0.56 0.0 0 1 372.47 167.06
  L 370.09 169.34
  Q 369.19 170.20 370.42 169.99
  L 372.10 169.70
  A 1.09 1.07 59.2 0 1 372.98 169.93
  Q 375.27 171.78 377.59 169.80
  A 1.71 1.67 -67.1 0 1 378.50 169.42
  L 383.02 168.97
  A 0.73 0.73 0.0 0 1 383.77 169.96
  C 382.65 172.79 381.05 180.90 386.24 180.85
  C 388.74 180.83 394.38 176.27 395.42 181.18
  A 0.92 0.91 -27.2 0 1 395.14 182.03
  L 391.19 185.68
  Q 390.82 186.02 390.65 186.49
  C 389.74 189.03 383.90 192.90 380.83 196.54
  Q 380.50 196.92 381.01 196.87
  C 386.98 196.23 389.78 192.67 394.09 189.57
  C 396.81 187.60 399.44 188.21 401.04 191.00
  Z
  M 265.92 185.80
  Q 270.57 186.78 275.22 185.22
  Q 276.27 184.87 277.66 182.93
  Q 277.96 182.52 277.49 182.71
  Q 272.69 184.69 267.58 184.25
  Q 266.65 184.17 265.74 185.28
  A 0.32 0.32 0.0 0 0 265.92 185.80
  Z"
/>
<path fill="#0b0b0b" d="
  M 234.04 151.21
  Q 245.15 150.73 256.25 150.25
  Q 257.76 150.18 257.79 152.25
  Q 256.59 154.84 254.46 156.75
  L 249.15 161.16
  A 0.44 0.43 62.3 0 1 248.45 160.94
  L 248.18 159.92
  A 0.56 0.56 0.0 0 0 247.66 159.49
  C 242.55 159.18 237.11 160.00 232.48 160.18
  Q 224.67 160.49 217.03 162.32
  A 0.78 0.77 81.9 0 0 216.44 163.11
  L 216.76 170.99
  A 0.49 0.48 -10.3 0 0 217.41 171.43
  Q 223.03 169.46 228.90 168.92
  C 234.35 168.41 240.79 167.12 247.01 168.11
  A 0.34 0.34 0.0 0 1 247.25 168.62
  C 245.05 172.40 240.89 177.24 236.14 177.26
  Q 227.03 177.30 218.02 178.45
  A 0.50 0.50 0.0 0 0 217.59 179.02
  Q 218.98 188.36 222.26 197.23
  A 1.39 1.38 46.3 0 1 222.24 198.22
  L 221.76 199.37
  A 0.53 0.53 0.0 0 0 222.14 200.09
  C 231.05 201.96 243.33 200.79 252.62 200.73
  Q 253.77 200.72 253.19 201.72
  Q 250.52 206.28 246.01 209.07
  Q 244.50 210.00 242.73 210.01
  L 227.75 210.04
  Q 217.88 210.16 208.00 208.95
  A 0.31 0.31 0.0 0 1 207.78 208.47
  L 210.54 204.27
  A 3.71 3.71 0.0 0 0 211.06 201.43
  Q 207.39 184.94 206.86 168.03
  A 1.38 1.37 -66.5 0 0 206.51 167.14
  C 204.93 165.35 206.29 163.56 206.30 161.95
  Q 206.32 159.25 206.06 156.47
  A 0.63 0.61 1.8 0 0 205.52 155.91
  Q 203.01 155.58 199.49 155.93
  Q 184.98 157.41 170.64 160.41
  A 0.73 0.71 -5.3 0 0 170.07 161.08
  Q 169.69 170.67 170.65 180.22
  Q 170.79 181.67 171.73 180.56
  Q 180.82 169.92 195.29 169.67
  C 198.63 169.61 201.30 171.11 202.27 174.25
  C 204.26 180.66 206.39 191.32 200.90 197.16
  C 196.29 202.08 191.61 207.25 184.72 208.78
  C 178.77 210.09 168.80 211.43 163.54 207.68
  A 0.83 0.83 0.0 0 1 163.32 206.57
  Q 166.43 201.56 171.62 198.83
  A 1.05 1.04 42.7 0 1 172.52 198.80
  Q 179.96 202.17 187.86 200.21
  C 189.86 199.71 192.68 200.25 194.49 198.21
  A 1.18 1.16 63.9 0 0 194.78 197.34
  C 194.44 192.32 194.88 179.13 187.50 179.07
  C 183.35 179.04 173.18 179.89 172.46 185.52
  Q 171.24 195.04 163.32 198.61
  A 0.60 0.60 0.0 0 1 162.53 198.33
  L 162.16 197.58
  A 0.50 0.50 0.0 0 0 161.33 197.47
  Q 155.83 203.95 148.12 205.64
  C 140.84 207.24 127.90 206.32 119.55 204.39
  Q 117.04 203.80 118.75 201.88
  C 120.72 199.68 126.80 194.81 125.84 191.86
  Q 125.68 191.38 125.36 191.78
  C 120.21 198.31 110.28 208.70 101.70 209.92
  Q 96.10 210.71 88.50 209.04
  C 81.03 205.84 76.21 202.96 76.25 193.92
  Q 76.28 185.95 76.21 178.00
  C 76.26 169.70 76.58 160.27 81.34 153.11
  Q 86.85 144.84 95.36 140.04
  C 100.65 137.05 105.19 137.64 111.23 138.07
  C 119.82 138.70 118.03 147.80 116.34 153.24
  C 115.03 157.47 111.18 160.59 107.96 163.58
  Q 106.22 165.18 105.64 162.89
  Q 104.50 158.47 107.16 153.96
  C 111.91 145.91 97.92 147.19 94.01 147.39
  C 91.03 147.53 89.37 147.26 88.07 150.44
  Q 86.77 153.62 86.68 154.93
  Q 85.24 176.23 85.76 188.50
  C 86.13 197.22 99.43 201.09 106.28 201.02
  C 118.33 200.90 124.30 188.26 125.75 178.32
  A 0.40 0.40 0.0 0 0 125.31 177.87
  L 122.59 178.22
  Q 121.21 178.39 121.99 177.24
  L 125.52 172.04
  Q 125.80 171.63 125.84 171.13
  Q 126.24 166.86 125.64 162.61
  A 0.43 0.42 76.2 0 0 125.09 162.27
  L 123.72 162.73
  A 0.56 0.55 73.6 0 1 123.02 162.34
  C 122.17 158.99 132.16 153.32 134.75 152.51
  C 142.08 150.19 161.87 144.03 168.65 147.24
  A 1.41 1.41 0.0 0 1 169.35 147.97
  Q 170.54 150.74 169.75 153.70
  Q 169.58 154.32 170.18 154.08
  C 172.69 153.07 175.08 151.82 177.69 151.25
  C 183.50 149.96 211.35 144.29 215.14 147.16
  A 1.15 1.15 0.0 0 1 215.59 148.03
  L 215.81 155.25
  A 0.36 0.36 0.0 0 0 216.28 155.59
  Q 225.03 152.89 234.04 151.21
  Z
  M 136.35 159.65
  L 136.07 167.15
  A 0.31 0.30 85.5 0 0 136.43 167.46
  L 159.86 162.64
  A 0.53 0.52 85.8 0 0 160.28 162.15
  Q 160.46 158.59 158.24 155.72
  A 0.87 0.84 -20.7 0 0 157.49 155.40
  Q 147.03 156.39 136.84 159.04
  A 0.66 0.65 84.1 0 0 136.35 159.65
  Z
  M 138.74 189.68
  L 138.77 195.17
  A 1.84 1.83 -89.5 0 0 140.56 197.00
  C 145.31 197.14 157.11 197.77 161.14 194.61
  A 0.93 0.92 68.5 0 0 161.49 193.79
  Q 160.18 179.82 160.55 165.78
  Q 160.59 164.50 159.77 165.48
  C 157.23 168.54 154.09 171.96 149.92 172.55
  Q 142.90 173.56 135.93 175.17
  A 0.74 0.74 0.0 0 0 135.36 175.82
  Q 134.75 182.84 136.00 189.71
  A 0.51 0.51 0.0 0 0 136.79 190.04
  L 137.92 189.25
  Q 138.74 188.68 138.74 189.68
  Z"
/>
<path fill="#e1e1e1" d="
  M 254.46 156.75
  Q 256.59 154.84 257.79 152.25
  L 258.17 150.28
  A 0.64 0.63 -85.3 0 1 258.76 149.77
  Q 262.37 149.59 265.54 151.21
  A 0.31 0.30 -73.3 0 0 265.98 150.97
  L 266.08 150.05
  A 0.73 0.73 0.0 0 1 266.65 149.42
  L 273.18 148.02
  A 0.72 0.71 84.4 0 0 273.74 147.33
  L 273.75 146.34
  A 0.56 0.55 4.2 0 1 274.38 145.80
  Q 282.05 146.78 288.94 143.59
  A 1.74 1.67 -52.2 0 1 289.89 143.45
  Q 294.65 144.08 299.15 142.31
  A 0.72 0.71 68.3 0 0 299.55 141.37
  L 299.26 140.63
  A 0.78 0.76 -34.5 0 1 299.42 139.82
  Q 301.27 137.94 303.95 137.77
  Q 304.74 137.71 304.21 138.29
  C 301.35 141.39 297.45 146.31 293.95 148.75
  C 290.04 151.49 286.17 157.77 280.99 156.99
  A 1.87 1.82 37.1 0 0 280.03 157.11
  Q 274.62 159.39 268.94 158.88
  C 264.61 158.49 262.00 158.92 258.17 159.74
  A 0.97 0.96 -28.8 0 1 257.29 159.49
  L 254.46 156.75
  Z"
/>
<path fill="#ffffff" d="
  M 81.79 142.03
  Q 81.77 141.02 80.95 140.65
  Q 79.25 139.90 81.10 139.74
  Q 81.63 139.70 82.07 139.80
  A 0.82 0.81 2.1 0 1 82.71 140.48
  C 83.01 142.46 84.16 143.73 84.17 145.66
  Q 84.17 146.95 84.07 148.21
  A 0.68 0.67 -3.4 0 1 83.52 148.82
  C 81.58 149.18 78.23 142.97 77.08 141.21
  Q 75.34 138.53 78.14 140.07
  Q 79.75 140.96 80.81 142.37
  Q 81.81 143.71 81.79 142.03
  Z"
/>
<path fill="#e1e1e1" d="
  M 136.35 159.65
  A 0.66 0.65 84.1 0 1 136.84 159.04
  Q 147.03 156.39 157.49 155.40
  A 0.87 0.84 -20.7 0 1 158.24 155.72
  Q 160.46 158.59 160.28 162.15
  A 0.53 0.52 85.8 0 1 159.86 162.64
  L 136.43 167.46
  A 0.31 0.30 85.5 0 1 136.07 167.15
  L 136.35 159.65
  Z"
/>
<path fill="#e1e1e1" d="
  M 227.75 210.04
  Q 227.01 213.04 225.12 215.66
  A 0.42 0.42 0.0 0 0 225.32 216.30
  Q 227.71 217.17 230.15 216.47
  Q 232.53 215.80 231.97 218.21
  Q 231.57 219.95 232.96 220.87
  Q 233.56 221.27 232.87 221.49
  C 231.65 221.87 225.65 221.70 225.59 223.14
  A 0.88 0.86 -72.1 0 0 225.97 223.90
  L 227.75 225.12
  A 0.72 0.71 32.4 0 1 227.97 226.08
  L 227.45 226.96
  A 0.55 0.54 29.6 0 0 227.66 227.71
  L 228.19 228.00
  L 99.69 228.00
  C 95.54 227.04 96.39 222.33 91.55 220.58
  A 1.18 1.15 -1.6 0 1 90.88 219.96
  Q 88.45 214.71 88.50 209.04
  Q 96.10 210.71 101.70 209.92
  C 110.28 208.70 120.21 198.31 125.36 191.78
  Q 125.68 191.38 125.84 191.86
  C 126.80 194.81 120.72 199.68 118.75 201.88
  Q 117.04 203.80 119.55 204.39
  C 127.90 206.32 140.84 207.24 148.12 205.64
  Q 155.83 203.95 161.33 197.47
  A 0.50 0.50 0.0 0 1 162.16 197.58
  L 162.53 198.33
  A 0.60 0.60 0.0 0 0 163.32 198.61
  Q 171.24 195.04 172.46 185.52
  C 173.18 179.89 183.35 179.04 187.50 179.07
  C 194.88 179.13 194.44 192.32 194.78 197.34
  A 1.18 1.16 63.9 0 1 194.49 198.21
  C 192.68 200.25 189.86 199.71 187.86 200.21
  Q 179.96 202.17 172.52 198.80
  A 1.05 1.04 42.7 0 0 171.62 198.83
  Q 166.43 201.56 163.32 206.57
  A 0.83 0.83 0.0 0 0 163.54 207.68
  C 168.80 211.43 178.77 210.09 184.72 208.78
  C 191.61 207.25 196.29 202.08 200.90 197.16
  C 206.39 191.32 204.26 180.66 202.27 174.25
  C 201.30 171.11 198.63 169.61 195.29 169.67
  Q 180.82 169.92 171.73 180.56
  Q 170.79 181.67 170.65 180.22
  Q 169.69 170.67 170.07 161.08
  A 0.73 0.71 -5.3 0 1 170.64 160.41
  Q 184.98 157.41 199.49 155.93
  Q 203.01 155.58 205.52 155.91
  A 0.63 0.61 1.8 0 1 206.06 156.47
  Q 206.32 159.25 206.30 161.95
  C 206.29 163.56 204.93 165.35 206.51 167.14
  A 1.38 1.37 -66.5 0 1 206.86 168.03
  Q 207.39 184.94 211.06 201.43
  A 3.71 3.71 0.0 0 1 210.54 204.27
  L 207.78 208.47
  A 0.31 0.31 0.0 0 0 208.00 208.95
  Q 217.88 210.16 227.75 210.04
  Z"
/>
<path fill="#e1e1e1" d="
  M 137.92 189.25
  L 136.79 190.04
  A 0.51 0.51 0.0 0 1 136.00 189.71
  Q 134.75 182.84 135.36 175.82
  A 0.74 0.74 0.0 0 1 135.93 175.17
  Q 142.90 173.56 149.92 172.55
  C 154.09 171.96 157.23 168.54 159.77 165.48
  Q 160.59 164.50 160.55 165.78
  Q 160.18 179.82 161.49 193.79
  A 0.93 0.92 68.5 0 1 161.14 194.61
  C 157.11 197.77 145.31 197.14 140.56 197.00
  A 1.84 1.83 -89.5 0 1 138.77 195.17
  L 138.74 189.68
  Q 138.74 188.68 137.92 189.25
  Z"
/>
<path fill="#ffffff" d="
  M 98.05 179.75
  Q 97.78 181.54 99.39 182.46
  Q 100.40 183.03 99.24 183.01
  C 95.79 182.94 97.16 173.25 98.13 172.96
  A 0.52 0.52 0.0 0 1 98.79 173.36
  L 99.67 178.27
  A 1.81 1.69 21.4 0 0 100.08 179.13
  Q 101.47 180.71 102.46 182.54
  Q 103.71 184.85 101.98 182.87
  L 99.01 179.47
  Q 98.23 178.57 98.05 179.75
  Z"
/>
<path fill="#e1e1e1" d="
  M 265.74 185.28
  Q 266.65 184.17 267.58 184.25
  Q 272.69 184.69 277.49 182.71
  Q 277.96 182.52 277.66 182.93
  Q 276.27 184.87 275.22 185.22
  Q 270.57 186.78 265.92 185.80
  A 0.32 0.32 0.0 0 1 265.74 185.28
  Z"
/>
<path fill="#e1e1e1" d="
  M 408.19 228.00
  L 400.94 228.00
  L 399.80 227.27
  A 0.64 0.64 0.0 0 0 398.97 227.39
  L 398.44 228.00
  L 386.19 228.00
  C 387.40 227.67 390.99 228.01 391.14 227.31
  A 0.66 0.66 0.0 0 0 390.35 226.53
  Q 386.47 227.41 382.63 226.33
  Q 382.34 226.25 382.56 226.05
  L 382.75 225.88
  A 0.19 0.17 14.9 0 1 382.85 225.83
  L 389.96 224.37
  A 0.46 0.46 0.0 0 0 390.29 223.75
  C 390.23 223.60 384.10 224.05 383.52 224.00
  A 0.39 0.39 0.0 0 1 383.18 223.48
  C 384.72 219.23 390.44 216.77 394.63 216.41
  Q 397.29 216.18 399.64 214.76
  Q 400.12 214.47 399.60 214.25
  C 399.06 214.03 395.16 215.10 393.77 214.87
  A 0.47 0.46 12.1 0 1 393.39 214.29
  Q 393.67 213.27 394.29 213.03
  Q 399.24 211.12 401.68 206.39
  A 1.30 1.29 -73.9 0 0 400.64 204.50
  C 398.16 204.28 396.84 207.14 395.39 208.79
  Q 394.49 209.81 394.17 208.49
  L 393.46 205.53
  A 1.00 1.00 0.0 0 1 393.68 204.64
  C 396.74 201.19 397.02 197.70 399.56 195.50
  A 0.79 0.78 -27.7 0 0 399.81 194.71
  Q 399.31 192.77 400.96 191.25
  C 401.97 191.98 404.86 188.92 406.57 188.39
  Q 407.56 188.08 406.82 188.81
  L 400.51 194.95
  A 0.50 0.50 0.0 0 0 400.49 195.65
  C 400.96 196.16 407.19 191.31 407.28 191.25
  Q 407.69 190.98 407.94 190.56
  Q 409.02 188.77 410.82 187.84
  Q 411.27 187.60 410.94 187.99
  L 401.80 198.79
  Q 401.19 199.51 402.10 199.26
  C 403.43 198.88 406.19 196.14 406.72 196.30
  A 0.59 0.58 13.4 0 1 407.13 196.96
  C 406.57 200.04 404.31 202.44 402.41 204.83
  A 0.53 0.53 0.0 0 0 402.49 205.57
  C 402.93 205.93 403.59 205.86 403.95 205.36
  C 407.25 200.80 410.63 196.34 413.82 191.69
  Q 416.75 187.42 421.14 184.51
  A 0.44 0.44 0.0 0 1 421.79 184.69
  C 422.97 187.25 419.42 191.12 418.22 193.48
  A 0.53 0.52 15.1 0 0 418.66 194.24
  L 421.31 194.40
  A 0.65 0.65 0.0 0 0 422.00 193.68
  Q 421.64 190.48 424.34 188.72
  Q 425.53 187.95 425.18 189.32
  Q 423.58 195.60 418.82 199.91
  A 0.50 0.50 0.0 0 0 418.85 200.68
  C 419.62 201.25 422.02 198.64 422.64 198.06
  A 0.32 0.32 0.0 0 1 423.17 198.19
  Q 424.31 201.65 421.88 204.03
  C 420.83 205.06 420.94 206.24 420.14 207.11
  Q 416.51 211.07 413.83 215.72
  Q 413.57 216.16 413.15 216.45
  Q 411.22 217.81 409.94 219.78
  Q 409.69 220.16 409.30 220.40
  Q 406.71 221.99 406.58 225.26
  A 0.49 0.48 3.0 0 0 407.04 225.76
  C 408.87 225.87 412.06 221.59 413.08 220.16
  Q 413.38 219.74 413.83 219.49
  Q 416.16 218.21 416.53 215.58
  A 1.28 1.27 76.0 0 1 417.02 214.76
  Q 420.09 212.45 423.80 211.80
  Q 425.03 211.58 424.44 212.68
  Q 421.90 217.38 416.92 219.26
  A 0.86 0.85 57.3 0 0 416.62 220.66
  Q 419.68 223.73 423.98 223.82
  A 0.40 0.40 0.0 0 1 424.36 224.32
  C 423.06 229.20 412.15 227.47 408.19 228.00
  Z
  M 414.2230 208.8096
  A 2.31 1.12 121.5 0 0 416.3850 207.4252
  A 2.31 1.12 121.5 0 0 416.6370 204.8704
  A 2.31 1.12 121.5 0 0 414.4750 206.2548
  A 2.31 1.12 121.5 0 0 414.2230 208.8096
  Z"
/>
<ellipse fill="#ffffff" cx="0.00" cy="0.00" transform="translate(415.43,206.84) rotate(121.5)" rx="2.31" ry="1.12"/>
<path fill="#ffffff" d="
  M 400.94 228.00
  L 398.44 228.00
  L 398.97 227.39
  A 0.64 0.64 0.0 0 1 399.80 227.27
  L 400.94 228.00
  Z"
/>
<path fill="#ffffff" d="
  M 245.44 228.00
  L 231.19 228.00
  Q 238.31 227.37 245.44 228.00
  Z"
/>
</svg>
