<?xml version="1.0" encoding="UTF-8" standalone="no"?>
<!-- Created with Inkscape (http://www.inkscape.org/) -->

<svg
   xmlns:dc="http://purl.org/dc/elements/1.1/"
   xmlns:cc="http://creativecommons.org/ns#"
   xmlns:rdf="http://www.w3.org/1999/02/22-rdf-syntax-ns#"
   xmlns:svg="http://www.w3.org/2000/svg"
   xmlns="http://www.w3.org/2000/svg"
   xmlns:sodipodi="http://sodipodi.sourceforge.net/DTD/sodipodi-0.dtd"
   xmlns:inkscape="http://www.inkscape.org/namespaces/inkscape"
   width="400"
   height="600"
   viewBox="0 0 105.83333 158.75"
   version="1.1"
   id="svg8"
   inkscape:version="0.92.4 (5da689c313, 2019-01-14)"
   sodipodi:docname="12_m.svg">
  <defs
     id="defs2" />
  <sodipodi:namedview
     id="base"
     pagecolor="#ffffff"
     bordercolor="#666666"
     borderopacity="1.0"
     inkscape:pageopacity="0.0"
     inkscape:pageshadow="2"
     inkscape:zoom="1.2816667"
     inkscape:cx="200"
     inkscape:cy="362.41873"
     inkscape:document-units="mm"
     inkscape:current-layer="layer1"
     showgrid="false"
     units="px"
     showguides="true"
     inkscape:guide-bbox="true"
     inkscape:window-width="1280"
     inkscape:window-height="968"
     inkscape:window-x="0"
     inkscape:window-y="0"
     inkscape:window-maximized="1">
    <sodipodi:guide
       position="20.78869,60.476191"
       orientation="1,0"
       id="guide859"
       inkscape:locked="false" />
    <sodipodi:guide
       position="20.78869,128.88988"
       orientation="1,0"
       id="guide863"
       inkscape:locked="false" />
    <sodipodi:guide
       position="12.85119,57.641369"
       orientation="1,0"
       id="guide865"
       inkscape:locked="false" />
    <sodipodi:guide
       position="32.339612,108.51143"
       orientation="0,1"
       id="guide867"
       inkscape:locked="false" />
    <sodipodi:guide
       position="-9.0871638,97.553376"
       orientation="0,1"
       id="guide2596"
       inkscape:locked="false" />
    <sodipodi:guide
       position="-16.036171,64.144687"
       orientation="0,1"
       id="guide2598"
       inkscape:locked="false" />
  </sodipodi:namedview>
  <metadata
     id="metadata5">
    <rdf:RDF>
      <cc:Work
         rdf:about="">
        <dc:format>image/svg+xml</dc:format>
        <dc:type
           rdf:resource="http://purl.org/dc/dcmitype/StillImage" />
        <dc:title></dc:title>
      </cc:Work>
    </rdf:RDF>
  </metadata>
  <g
     inkscape:label="Layer 1"
     inkscape:groupmode="layer"
     id="layer1"
     transform="translate(0,-138.24998)">
    <rect
       style="opacity:1;fill:#ffffff;fill-opacity:0.60101007;stroke:#000000;stroke-width:0.27790931;stroke-miterlimit:4;stroke-dasharray:none;stroke-dashoffset:0;stroke-opacity:1"
       id="rect10"
       width="105.4538"
       height="158.75175"
       x="0.17799145"
       y="138.24911"
       ry="7.9375877" />
    <flowRoot
       xml:space="preserve"
       id="flowRoot851"
       style="fill:black;fill-opacity:1;stroke:none;font-family:sans-serif;font-style:normal;font-weight:normal;font-size:40px;line-height:0;letter-spacing:0px;word-spacing:0px"><flowRegion
         id="flowRegion853"><rect
           id="rect855"
           width="114.28571"
           height="65.714287"
           x="47.142857"
           y="194.28572" /></flowRegion><flowPara
         id="flowPara857" /></flowRoot>    <text
       xml:space="preserve"
       style="font-style:normal;font-weight:normal;font-size:33.90801239px;line-height:0;font-family:sans-serif;letter-spacing:0px;word-spacing:0px;fill:#666666;fill-opacity:1;stroke:none;stroke-width:0.84770024"
       x="15.076199"
       y="174.63515"
       id="text827"><tspan
         sodipodi:role="line"
         id="tspan825"
         x="15.076199"
         y="174.63515"
         style="font-style:normal;font-variant:normal;font-weight:bold;font-stretch:normal;font-family:Arsenal;-inkscape-font-specification:'Arsenal Bold';fill:#666666;stroke-width:0.84770024">12</tspan></text>
    <g
       id="g17561"
       transform="matrix(0.20621057,0,0,0.20621057,9.4335896,176.48503)">
      <g
         id="g17370"
         style="fill:none;stroke-width:2;stroke-linecap:butt">
        <path
           id="path17238"
           d="M 101.81,0 C 98.68,0.2 96.28,3.13 92.98,5.18 88.77,7.79 85.37,11.94 81.22,14.9 79.97,15.79 79.18,17.02 78,18.04"
           inkscape:connector-curvature="0"
           style="vector-effect:non-scaling-stroke;stroke:#f0f0f0" />
        <path
           id="path17240"
           d="M 78,18.04 Q 72.38,16.52 67.85,19.83 C 54.69,29.44 51.62,45.04 50.51,60.75 q -2.01,28.38 5.11,53.92 c 4.46,16.02 16.14,1.86 20.54,-4.12 a 0.3,0.3 0 0 1 0.51,0.05 q 2.33,4.79 6.12,8.15"
           inkscape:connector-curvature="0"
           style="vector-effect:non-scaling-stroke;stroke:#858585" />
        <path
           id="path17242"
           d="m 82.79,118.75 q -4.41,2.47 -2.89,7.59 c 0.5,1.69 5.98,14.65 5.34,15.73 q -0.44,0.76 -0.76,-0.06 l -6.42,-16.25 q -0.35,-0.89 -0.85,-0.07 l -0.85,1.42 a 0.89,0.88 -46.5 0 0 0.02,0.96 c 0.46,0.7 2.51,3.89 2.08,4.57 a 0.44,0.43 -49.7 0 1 -0.69,0.06 l -2.47,-2.74 a 0.63,0.62 -50 0 0 -0.99,0.09 l -3.86,6.19 a 1.26,1.25 51.3 0 0 -0.12,1.1 c 1.04,2.87 2.54,5.23 3,8.2 q 0.41,2.61 0.69,5.27 0.27,2.64 -1.33,0.52 l -5.46,-7.2 q -0.6,-0.79 -0.73,0.2 -0.22,1.6 0.8,2.85 a 0.88,0.86 -56.6 0 1 0.15,0.79 q -0.85,2.8 -0.5,4.04 3.31,11.7 5.97,23.49 0.52,2.29 3.29,2.5"
           inkscape:connector-curvature="0"
           style="vector-effect:non-scaling-stroke;stroke:#f0f0f0" />
        <path
           id="path17244"
           d="m 76.21,178 q 0.07,7.95 0.04,15.92 c -0.04,9.04 4.78,11.92 12.25,15.12"
           inkscape:connector-curvature="0"
           style="vector-effect:non-scaling-stroke;stroke:#858585" />
        <path
           id="path17246"
           d="m 88.5,209.04 q -0.05,5.67 2.38,10.92 a 1.18,1.15 -1.6 0 0 0.67,0.62 c 4.84,1.75 3.99,6.46 8.14,7.42"
           inkscape:connector-curvature="0"
           style="vector-effect:non-scaling-stroke;stroke:#f0f0f0" />
        <path
           id="path17248"
           d="m 131.81,0 c -2.34,1.17 -4.48,2.24 -7.25,2.14 q -4.24,-0.15 -8.45,0.19 c -1.34,0.11 -7.57,2.29 -8.18,3.5 a 0.62,0.61 16.4 0 0 0.49,0.89 l 5.05,0.47 a 1.07,1.06 75.9 0 1 0.78,0.47 c 1.41,2.18 6.03,2.75 8.46,3.48 a 0.7,0.7 0 0 1 0.49,0.54 l 0.06,0.31 a 0.48,0.48 0 0 1 -0.47,0.57 h -12.03 a 0.56,0.56 0 0 0 -0.54,0.69 q 0.4,1.67 2.16,1.61 a 0.56,0.55 84.8 0 1 0.57,0.48 l 0.05,0.34 a 0.52,0.51 -8.5 0 1 -0.43,0.58 l -7,1.18 q -0.44,0.08 -0.82,0.32 l -1.84,1.15 a 0.7,0.7 0 0 0 -0.15,1.06 l 1.71,1.89 a 0.53,0.53 0 0 0 0.79,0 q 0.93,-1.03 2.24,-1.07"
           inkscape:connector-curvature="0"
           style="vector-effect:non-scaling-stroke;stroke:#d7d7d7" />
        <path
           id="path17250"
           d="m 107.5,20.79 q -1.49,0.7 -2.46,1.99 -6,8.03 -13.17,16.05 a 0.81,0.81 0 0 0 0.4,1.32 q 4.94,1.28 5.69,-3.26 a 1.7,1.69 -17.6 0 1 0.49,-0.94 l 6.76,-6.7"
           inkscape:connector-curvature="0"
           style="vector-effect:non-scaling-stroke;stroke:#f0f0f0" />
        <path
           id="path17252"
           d="m 105.21,29.25 c -0.04,1.57 -1.96,4.43 -1.7,5.29 a 0.66,0.66 0 0 0 0.67,0.47 c 4.82,-0.25 8.37,0.51 13.5,-0.86 q 3.21,-0.85 6,1.58 a 1.41,1.38 65.2 0 0 0.87,0.33 c 7.45,0.09 12.38,0.41 18.13,-2.08 a 1.35,1.32 42.6 0 1 0.96,-0.03 l 4.91,1.77 a 1.26,1.23 -49.2 0 0 1.05,-0.09 q 2.87,-1.59 5.78,-0.17 a 1.81,1.77 54.8 0 0 0.92,0.17 q 4.39,-0.39 8.71,-1.36 4.08,-0.91 17.88,-0.53 c 3.54,0.1 13.88,2.64 16.41,-1 a 1.04,1.03 -74.9 0 1 0.77,-0.45 q 5.66,-0.47 8.74,-0.11 c 8.02,0.95 17.31,0.29 23.91,0.54 q 8.8,0.34 17.46,0.5 a 1.76,1.74 -81.4 0 0 1.72,-1.28 q 0.94,-3.25 -0.2,-3.66 -2.95,-1.07 -6.04,-1.58 a 0.26,0.24 -17 0 1 -0.15,-0.07 l -0.41,-0.38 q -0.23,-0.21 -0.54,-0.28 c -3,-0.68 -5.58,-1.95 -8.58,-2.22 -8.98,-0.81 -17.74,-2.22 -26.89,-2.28 -1.65,0 -10.71,-0.2 -10.85,-0.85 a 0.49,0.49 0 0 1 0.43,-0.6 q 3.63,-0.38 7.27,-0.6 c 7.73,-0.47 14.05,-2.94 21.56,-0.52 q 0.47,0.16 0.95,0.06 c 3.2,-0.67 4.8,1.99 6.94,3.37 a 0.78,0.76 42.9 0 0 0.87,-0.02 c 1.38,-1.03 -1.08,-3.07 -2.1,-3.44 a 0.5,0.5 0 0 1 -0.29,-0.66 q 0.36,-0.89 1.65,-0.75 c 4.04,0.43 6.75,1.98 11.19,0.1 a 1.12,1.09 -5.2 0 0 0.64,-0.75 q 0.33,-1.29 -1.05,-2 -0.38,-0.2 -0.82,-0.2 -3.44,-0.02 -6.56,-1.45 a 0.76,0.75 -73 0 1 -0.43,-0.82 l 0.74,-4.22 a 1.35,1.35 0 0 0 -1.01,-1.54 l -5.45,-1.35 a 2.34,2.33 -87.6 0 1 -1.75,-1.91 q -0.18,-1.2 1.26,-1.57 0.46,-0.12 0.94,-0.14 2.31,-0.11 4.1,-1.6"
           inkscape:connector-curvature="0"
           style="vector-effect:non-scaling-stroke;stroke:#d7d7d7" />
        <path
           id="path17254"
           d="m 355.56,0 q 1.44,0.58 1.48,2.3 0.02,0.53 0.39,0.15 0.58,-0.61 0.56,-1.56 a 0.62,0.61 -7.7 0 1 0.47,-0.61 q 1.85,-0.49 2.84,1.16 4.28,7.18 8.47,14.44 a 1.86,1.81 -60.5 0 1 0.24,0.91 l -0.02,1.65 a 1.54,1.46 28.2 0 0 0.29,0.88 c 7.32,9.94 14.45,19.07 24.25,28.9 6.82,6.85 5.1,14.69 8.28,22.93 1.56,4.04 -3.46,8.97 2.48,11.58 a 0.3,0.29 -80.8 0 0 0.41,-0.3 Q 404.62,72.4 403.89,62.29 c -0.22,-3.1 1,-5.81 0.8,-9.19 a 0.35,0.34 -82.6 0 1 0.45,-0.35 c 3.57,1.18 2.18,5.51 3.2,8.1 a 0.6,0.6 0 0 0 0.74,0.35 q 1.42,-0.45 2.02,-1.75 a 1.04,1.01 -47.9 0 0 -0.03,-0.91 l -1.13,-2.09 q -0.52,-0.95 0.5,-0.56 c 4.71,1.81 1.07,8.41 2.52,9.48 a 0.37,0.37 0 0 0 0.57,-0.19 l 0.76,-2.66 a 0.62,0.62 0 0 1 0.7,-0.45 c 1.38,0.24 2,0.9 2.08,2.39 0.46,8.6 1.91,15.55 0.45,23.04 a 1.56,1.55 -52.4 0 0 0.12,0.94 c 1.75,3.79 2.31,6.84 -2.06,9.06 a 0.86,0.84 -11.6 0 0 -0.48,0.71 c -0.39,5.97 5.49,7.43 2.41,14.35 -0.46,1.03 -0.25,1.94 0.35,2.78 a 0.44,0.44 0 0 0 0.74,-0.03 l 0.82,-1.43 q 0.38,-0.65 0.69,0.04 l 0.23,0.5 a 1.19,1.17 44.7 0 1 0.01,0.92 q -1.75,4.24 1.92,6.71 a 0.79,0.78 25 0 1 0.32,0.86 q -3.34,12.33 -3.85,28.83 -0.3,9.89 -4.15,22.48 -0.15,0.49 -0.37,0.03 l -1.66,-3.36 q -0.73,-1.49 -1.19,0.1 c -0.93,3.23 -0.82,6.17 -2.52,9.09 -2.24,3.85 -5.15,7.36 -7.81,10.92"
           inkscape:connector-curvature="0"
           style="vector-effect:non-scaling-stroke;stroke:#f0f0f0" />
        <path
           id="path17256"
           d="m 401.04,191 c -1.6,-2.79 -4.23,-3.4 -6.95,-1.43 -4.31,3.1 -7.11,6.66 -13.08,7.3 q -0.51,0.05 -0.18,-0.33 c 3.07,-3.64 8.91,-7.51 9.82,-10.05 q 0.17,-0.47 0.54,-0.81 l 3.95,-3.65 a 0.92,0.91 -27.2 0 0 0.28,-0.85 c -1.04,-4.91 -6.68,-0.35 -9.18,-0.33 -5.19,0.05 -3.59,-8.06 -2.47,-10.89 a 0.73,0.73 0 0 0 -0.75,-0.99 l -4.52,0.45 a 1.71,1.67 -67.1 0 0 -0.91,0.38 q -2.32,1.98 -4.61,0.13 a 1.09,1.07 59.2 0 0 -0.88,-0.23 l -1.68,0.29 q -1.23,0.21 -0.33,-0.65 l 2.38,-2.28 a 0.56,0.56 0 0 0 -0.18,-0.93 l -2.84,-1.12 a 0.59,0.59 0 0 0 -0.78,0.36 q -0.9,2.61 -3.73,3.12 -1.33,0.25 -0.51,-0.83 l 4.69,-6.2 a 1.17,1.12 17.1 0 1 0.9,-0.45 l 0.53,-0.01 a 0.76,0.74 -82.4 0 0 0.72,-0.56 q 0.56,-2.07 -0.62,-3.86 a 1.18,1.18 0 0 1 -0.18,-0.83 q 0.4,-2.54 -1.59,-3.46 -0.94,-0.43 -1.61,-1.21 l -4.02,-4.73 a 1.26,1.25 -21.9 0 0 -1.01,-0.43 l -5.83,0.37 a 0.76,0.75 -9.3 0 1 -0.78,-0.55 l -0.14,-0.54 q -0.48,-1.78 1.29,-1.27 2.83,0.82 4.99,-1.09 0.54,-0.47 -0.16,-0.65 c -2.05,-0.54 -3.93,0.53 -5.71,0.51 q -2.31,-0.02 -4.64,0 a 0.78,0.77 -4.8 0 1 -0.77,-0.64 l -0.28,-1.55 a 0.82,0.81 -22.2 0 1 0.35,-0.83 q 1.94,-1.31 2.61,-3.42 0.14,-0.45 0.45,-0.8 l 1.89,-2.16 a 0.92,0.9 54.1 0 0 0.15,-0.99 c -0.94,-2.14 -5.3,-1.12 -7.18,-0.5 a 1.87,1.75 9.6 0 0 -0.8,0.53 c -1.86,2.13 -4.74,3.32 -6.49,4.63 q -3.31,2.46 -6.64,4.98 -1.25,0.95 -0.34,-0.33 1.56,-2.18 3.74,-3.76 a 0.13,0.12 -20.8 0 0 0.05,-0.1 l 0.01,-0.35 q 0.02,-0.67 -0.51,-0.25 l -1.89,1.52 a 0.38,0.38 0 0 1 -0.44,0.03 l -0.26,-0.14 a 0.17,0.17 0 0 1 -0.03,-0.28 l 5.36,-4.79 a 0.67,0.66 38.2 0 0 -0.13,-1.08 l -4.37,-2.39 a 0.9,0.88 -44.4 0 0 -0.85,0 q -1.63,0.9 -3.26,3.09 -4.49,6 -12.69,14.67 c -2.92,3.07 -5.64,4.4 -9.6,5.16 -2.29,0.43 -11.65,2.68 -13.27,1.84 A 0.35,0.35 0 0 1 296,154.21 c 3.71,-3.1 -1.45,-7.51 4.77,-9.33 6.23,-1.83 8.81,-6.6 15.53,-6.42 a 0.68,0.67 5.3 0 0 0.69,-0.57 l 0.12,-0.84 a 0.61,0.61 0 0 1 0.75,-0.5 q 3.46,0.85 6.63,-0.75 a 0.39,0.38 67.2 0 0 0.19,-0.48 c -0.52,-1.33 -4.1,1.68 -5.01,-0.16 a 0.85,0.85 0 0 1 0.21,-1.03 l 1.93,-1.62 q 1.04,-0.88 -0.28,-0.54 l -4.19,1.08 a 0.81,0.78 -31.1 0 1 -0.69,-0.16 c -2.45,-2.01 -2.61,1.63 -5.27,1.02 a 0.43,0.43 0 0 1 -0.29,-0.61 l 0.9,-1.77 q 1.03,-2.01 -0.63,-0.47 l -5.57,5.16 a 1.22,1.22 0 0 1 -0.85,0.32 c -3.11,-0.07 -6.31,1.34 -8.91,1.65 q -21.8,2.65 -38.03,7.08 -3.88,1.05 -6.03,1.46 c -4.26,0.8 -6.6,3.28 -11.25,3.52 q -3.39,0.18 -6.68,0.96"
           inkscape:connector-curvature="0"
           style="vector-effect:non-scaling-stroke;stroke:#d7d7d7" />
        <path
           id="path17258"
           d="m 234.04,151.21 q -9.01,1.68 -17.76,4.38 a 0.36,0.36 0 0 1 -0.47,-0.34 l -0.22,-7.22 a 1.15,1.15 0 0 0 -0.45,-0.87 c -3.79,-2.87 -31.64,2.8 -37.45,4.09 -2.61,0.57 -5,1.82 -7.51,2.83 q -0.6,0.24 -0.43,-0.38 0.79,-2.96 -0.4,-5.73 a 1.41,1.41 0 0 0 -0.7,-0.73 c -6.78,-3.21 -26.57,2.95 -33.9,5.27 -2.59,0.81 -12.58,6.48 -11.73,9.83 a 0.56,0.55 73.6 0 0 0.7,0.39 l 1.37,-0.46 a 0.43,0.42 76.2 0 1 0.55,0.34 q 0.6,4.25 0.2,8.52 -0.04,0.5 -0.32,0.91 l -3.53,5.2 q -0.78,1.15 0.6,0.98 l 2.72,-0.35 a 0.4,0.4 0 0 1 0.44,0.45 c -1.45,9.94 -7.42,22.58 -19.47,22.7 -6.85,0.07 -20.15,-3.8 -20.52,-12.52 q -0.52,-12.27 0.92,-33.57 0.09,-1.31 1.39,-4.49 c 1.3,-3.18 2.96,-2.91 5.94,-3.05 3.91,-0.2 17.9,-1.48 13.15,6.57 q -2.66,4.51 -1.52,8.93 0.58,2.29 2.32,0.69 c 3.22,-2.99 7.07,-6.11 8.38,-10.34 1.69,-5.44 3.48,-14.54 -5.11,-15.17 -6.04,-0.43 -10.58,-1.02 -15.87,1.97 q -8.51,4.8 -14.02,13.07 c -4.76,7.16 -5.08,16.59 -5.13,24.89"
           inkscape:connector-curvature="0"
           style="vector-effect:non-scaling-stroke;stroke:#767676" />
        <path
           id="path17260"
           d="m 82.79,118.75 c 6.44,5.16 12.49,3.91 18.31,-1.53 q 10.53,-9.83 16.73,-23.02 0.22,-0.47 0.28,0.05 c 0.18,1.69 -0.6,3.43 -0.6,4.94 q -0.03,11.82 0,22.82 0.01,1.49 1.29,0.73 7.87,-4.67 10.74,-12.99"
           inkscape:connector-curvature="0"
           style="vector-effect:non-scaling-stroke;stroke:#767676" />
        <path
           id="path17262"
           d="m 129.54,109.75 0.96,-0.54"
           inkscape:connector-curvature="0"
           style="vector-effect:non-scaling-stroke;stroke:#d7d7d7" />
        <path
           id="path17264"
           d="m 130.5,109.21 2.27,2.28 a 0.62,0.62 0 0 0 0.81,0.06 c 1.72,-1.26 7.57,-5.97 8.08,-8.43 a 1.02,1.01 29 0 0 -0.26,-0.89 q -2.74,-2.92 -3.75,-6.86 a 1.41,1.38 53.7 0 1 0.15,-1.05 l 3.37,-5.78 q 0.39,-0.68 0.44,0.1 c 0.24,4.13 -0.1,7.85 0.72,12.11 1.3,6.7 0.22,13.65 3.56,19.9 a 0.5,0.49 61.2 0 0 0.68,0.2 q 5.36,-2.98 8.43,-8.14"
           inkscape:connector-curvature="0"
           style="vector-effect:non-scaling-stroke;stroke:#767676" />
        <path
           id="path17266"
           d="m 155,112.71 h 0.5"
           inkscape:connector-curvature="0"
           style="vector-effect:non-scaling-stroke;stroke:#d7d7d7" />
        <path
           id="path17268"
           d="m 155.5,112.71 c 0.88,2.84 -0.33,5.49 1.1,8.39 a 1.56,1.56 0 0 0 2.13,0.69 q 5.72,-3.01 8.72,-8.69 a 0.88,0.87 -70.4 0 0 -0.6,-1.27 l -1.2,-0.25 a 0.68,0.67 -84.2 0 1 -0.53,-0.66 l 0.09,-12.34 a 0.88,0.87 -14.4 0 1 0.46,-0.77 l 10.11,-5.51 a 0.31,0.31 0 0 1 0.46,0.23 q 0.38,2.91 0.27,5.82 c -0.26,6.25 -0.05,12.01 0.07,18.08 q 0.04,2.22 3,4.39 a 0.81,0.8 48.3 0 0 0.85,0.05 q 9.52,-5.22 12.37,-15.7 c 0.06,-0.2 0.17,-0.21 0.34,-0.14 a 0.13,0.12 9.7 0 1 0.09,0.12 q 0.24,3.99 -1.23,7.61 c -0.65,1.58 -0.95,3.12 0.19,4.32 q 1.48,1.58 3.64,1.73 7.96,0.54 15.1,1.12 c 2.73,0.22 5.29,-0.94 8.29,-0.69 a 1.11,1.07 24.5 0 0 0.85,-0.3 c 2.71,-2.63 6.14,-4.12 7.64,-7.91 q 0.72,-1.82 -1.17,-1.28 c -7.38,2.1 -13.33,0.18 -20.69,-0.13 a 0.55,0.55 0 0 1 -0.53,-0.56 l 0.14,-19.08 a 1.23,1.23 0 0 1 0.86,-1.17 q 6.87,-2.13 13.99,-1.26 a 1.49,1.48 31.2 0 0 0.99,-0.24 q 4.76,-3.22 7.4,-8.29 0.76,-1.47 -0.89,-1.36 -12.06,0.85 -23.54,4.77 a 0.56,0.56 0 0 1 -0.74,-0.45 l -1.28,-8.89 a 0.71,0.69 -13.8 0 1 0.47,-0.75 q 9.24,-3.09 19.01,-2.85 a 1.1,1.08 -17.6 0 1 0.82,0.42 l 1.06,1.4 a 0.6,0.59 -39.2 0 0 0.86,0.08 q 4.72,-4.12 8.34,-9.19"
           inkscape:connector-curvature="0"
           style="vector-effect:non-scaling-stroke;stroke:#767676" />
        <path
           id="path17270"
           d="m 232.81,62.2 q 1.43,-1.94 3.82,-2.69 a 0.33,0.33 0 0 0 0.19,-0.48 l -0.5,-0.89 a 0.74,0.73 -36.9 0 1 0.13,-0.9 c 2.83,-2.68 0.73,-5.51 5.73,-7.18 6.46,-2.15 3.77,-5.22 -1.17,-5.31 a 1.11,1.08 -69.1 0 0 -0.86,0.4 q -1.49,1.81 -3.37,0.45 a 1.07,1.06 -73 0 1 -0.45,-0.85 q -0.02,-1.56 1.55,-2.35 1.06,-0.54 -0.13,-0.65 -1.16,-0.11 -2.17,0.35 a 4.25,4.18 -53.6 0 1 -2.12,0.34 c -6.6,-0.7 -13.34,-2.94 -19.93,-3.07 -7.37,-0.15 -14.97,-0.83 -22.05,-0.67 -6.09,0.14 -12.5,-0.13 -18.49,1.02 -6.68,1.27 -12.1,-1.24 -18.99,1.08 a 0.88,0.87 58.1 0 1 -0.91,-0.22 q -2.23,-2.27 -5.37,-1.33 a 1.8,1.74 44 0 1 -1.01,0 l -4.2,-1.22 a 1.45,1.44 39.6 0 0 -1.06,0.1 q -3.29,1.67 -7.02,1.56 -0.51,-0.02 -0.95,0.22 c -4.63,2.43 -9.11,1.54 -13.1,1.89 q -5.13,0.46 -10.32,0.5 a 0.62,0.62 0 0 0 -0.59,0.48 c -0.53,2.37 -3.14,1.57 -3.6,3.48 a 1.42,1.39 77.6 0 1 -0.48,0.77 l -4.64,3.68"
           inkscape:connector-curvature="0"
           style="vector-effect:non-scaling-stroke;stroke:#d7d7d7" />
        <path
           id="path17272"
           d="m 100.75,50.71 c -4.99,1.83 -9.28,5.73 -13.94,8.39 a 0.15,0.15 0 0 1 -0.22,-0.08 l -0.1,-0.3 a 0.52,0.51 -29.5 0 1 0.16,-0.57 q 0.99,-0.82 1.12,-2 A 1.42,1.42 0 0 0 87.55,55.21 C 84.3,50.14 92.07,45.08 94.88,42.6 q 0.46,-0.41 -0.14,-0.55 -2.8,-0.66 -3.65,1.81 -0.23,0.68 -0.7,0.13 -0.52,-0.6 0.1,-1.54 a 0.27,0.27 0 0 0 -0.12,-0.39 c -2.36,-1.08 -14.89,18.55 -16.21,21.05 -1.27,2.43 -2.84,4.03 -4.57,6.05 a 1.33,1.27 66.4 0 0 -0.31,0.85 q 0.01,2.68 -2.63,3.52 a 1,0.99 85.8 0 1 -1.28,-1.11 l 0.18,-1.07 a 1.4,1.39 -13.9 0 1 0.55,-0.9 l 2.11,-1.58 a 0.63,0.62 -30.5 0 0 0.2,-0.75 c -0.8,-1.86 -2.4,-3.52 -1.44,-5.73 1.25,-2.9 4.24,-2.87 4.96,-7.37 q 0.29,-1.76 -1.4,-2.33 l -3.52,-1.2"
           inkscape:connector-curvature="0"
           style="vector-effect:non-scaling-stroke;stroke:#f0f0f0" />
        <path
           id="path17274"
           d="m 67.01,51.49 c 5.86,-3.87 8.88,-8.07 9.94,-15.33 q 1.31,-9 1.05,-18.12"
           inkscape:connector-curvature="0"
           style="vector-effect:non-scaling-stroke;stroke:#767676" />
        <path
           id="path17276"
           d="m 88.6776,12.8863 a 2.16,0.81 -42.3 0 0 -2.1427,0.8546 2.16,0.81 -42.3 0 0 -1.0525,2.0528 2.16,0.81 -42.3 0 0 2.1427,-0.8546 2.16,0.81 -42.3 0 0 1.0525,-2.0528"
           inkscape:connector-curvature="0"
           style="vector-effect:non-scaling-stroke;stroke:#f0f0f0" />
        <path
           id="path17278"
           d="m 301.5,109.71 0.29,0.29"
           inkscape:connector-curvature="0"
           style="vector-effect:non-scaling-stroke;stroke:#d7d7d7" />
        <path
           id="path17280"
           d="m 301.79,110 q -2.07,3.06 -2.56,5.24 -0.7,3.14 2.44,3.81 8.01,1.72 16.04,0.43 c 9.02,-1.45 16.54,-2.67 21.6,-11.31 q 0.61,-1.04 -0.55,-0.72 -5.36,1.47 -10.93,2.66 c -4.17,0.88 -8.28,0.66 -12.53,0.61 q -1.09,-0.01 -0.25,-0.69 c 4.33,-3.53 3.94,-10.1 2.77,-15.02 a 0.93,0.9 61.3 0 1 0.23,-0.84 c 3.03,-3.15 5.42,-5.98 9.42,-8.35 q 6.34,-3.75 10.89,-9.66 a 0.55,0.55 0 0 0 -0.05,-0.73 l -0.21,-0.21 a 0.82,0.81 59.5 0 0 -0.8,-0.21 q -9.98,2.75 -20.28,3.83 -2.08,0.22 -2.19,-1.86 l -0.12,-2.23 A 0.54,0.54 0 0 0 314,74.27 l -1.08,0.37 a 0.45,0.44 -15 0 1 -0.58,-0.33 q -0.76,-3.66 1.71,-6.02 7.97,-7.63 19.43,-6.27 a 1.07,1.06 -13.1 0 1 0.76,0.47 l 1.26,1.86 a 0.58,0.58 0 0 0 0.91,0.07 c 2.93,-3.19 5.25,-3.71 8.15,-8.49 a 1,0.98 -41.8 0 0 0.06,-0.9 c -2.15,-5.01 -14.39,-1.57 -17.84,0.46 q -3.99,2.33 -7.98,4.61 c -9.85,5.62 -16.99,15.1 -16.04,26.95 0.56,7.08 -2.76,15.11 -5.93,21.33 q -0.25,0.47 -0.35,-0.05 -0.31,-1.54 -0.25,-4.83 c 0.26,-13.39 1.37,-28.35 6.83,-39.49 q 1.09,-2.21 -1.2,-1.28 -4.46,1.82 -7.08,5.78 -9.81,14.77 -20.66,28.84 -0.37,0.49 -0.37,-0.12 v -27.2 a 0.43,0.43 0 0 0 -0.61,-0.39 q -9.81,4.49 -8.92,15.1 0.62,7.36 0.17,21.67 a 0.82,0.79 78.3 0 1 -0.44,0.69 q -4.12,2.05 -6.48,5.94 -0.31,0.52 -0.34,-0.08 c -0.7,-13.41 -2.09,-29.66 3.07,-38.25 2.88,-4.79 3.77,-8.5 3.13,-13.69 q -0.32,-2.65 -2.73,-1.49 c -10.4,5.04 -10.24,12.72 -12.01,22.96 a 0.91,0.9 -1.5 0 1 -0.71,0.74 l -6.22,1.36 a 0.53,0.52 82 0 1 -0.63,-0.48 c -0.39,-6.91 1.49,-14.87 2.31,-21.86 q 0.05,-0.51 -0.4,-0.28 c -4.23,2.05 -8.09,5.35 -9.07,10.23 -2.82,14.16 -2.38,27.67 -2.58,41.55 q -0.05,3.98 0.42,6.86 0.63,3.85 3.69,1.43 5.61,-4.43 9.56,-10.35 a 0.44,0.44 0 0 0 -0.19,-0.64 l -0.34,-0.15 a 1.19,1.16 -44.3 0 0 -0.93,0 l -1.7,0.75 a 0.58,0.57 -11.6 0 1 -0.8,-0.52 v -18.5 a 1.12,1.11 76.4 0 1 0.6,-0.99 l 6.3,-3.24 q 0.63,-0.33 0.49,0.37 c -1.9,9.58 -0.9,20.95 -0.89,30.79 q 0,2.04 0.99,3.09 c 3.36,3.56 8.21,-3.12 10.73,-5.11 q 0.46,-0.36 0.28,0.2 l -0.59,1.87 q -0.35,1.13 0.7,0.59 3.52,-1.81 6.18,-4.78 a 0.53,0.53 0 0 1 0.72,-0.07 c 2.51,1.94 4.93,2.69 7.9,0.87 q 4.9,-3 7.67,-8.14 0.35,-0.65 -0.37,-0.48 -5.69,1.32 -6.97,-4.6 a 1.58,1.53 57.7 0 1 0.26,-1.23 l 14.99,-20.53 q 0.85,-1.16 0.5,0.24 -4.32,17.11 -3.65,34.74 a 1.7,1.69 25.3 0 0 0.35,0.97 q 2.66,3.5 6.13,0.43 4.29,-3.8 8.18,-7.91"
           inkscape:connector-curvature="0"
           style="vector-effect:non-scaling-stroke;stroke:#767676" />
        <path
           id="path17282"
           d="m 301.79,110 q 1.85,-2.17 2.8,-4.79 0.33,-0.9 -0.19,-0.09 l -2.9,4.59"
           inkscape:connector-curvature="0"
           style="vector-effect:non-scaling-stroke;stroke:#6c6c6c" />
        <path
           id="path17284"
           d="m 367.01,70.65 q -1.77,6.52 -1.48,13.29 0.08,1.87 -1.6,2.66 -7.06,3.34 -11.46,9.73 a 0.94,0.93 -41.7 0 0 -0.06,0.95 c 0.55,1.05 10.18,-2.51 11.77,-2.93 a 0.37,0.37 0 0 1 0.46,0.37 c -0.26,5.88 -1.78,13.99 -0.42,19.59 q 0.65,2.66 2.93,1.16 c 2.1,-1.38 8.63,-6.46 6.77,-9.79 a 1.75,1.73 31.1 0 1 -0.23,-0.9 l 0.21,-12.2 a 0.55,0.55 0 0 1 0.55,-0.54 c 3.38,-0.04 7.49,-0.55 10.38,0.89 7.32,3.64 7.39,14.96 6.78,21.94 a 1.87,1.85 78.2 0 1 -0.96,1.49 c -4.7,2.6 -9.16,2.5 -14.35,3.14 -7.63,0.95 -13.97,-0.6 -19.77,-5.88 a 0.83,0.82 52.1 0 0 -0.94,-0.12 q -5.55,2.97 -8.64,8.39 a 0.72,0.71 35.9 0 0 0.15,0.89 c 8.34,7.31 18.39,7.35 29.13,5.18 9,-1.82 24,-12.47 24.91,-22.39 0.69,-7.58 -0.1,-21.86 -10.12,-22.83 q -6.74,-0.64 -16.97,1.41 -0.5,0.1 -0.3,-0.37 0.87,-1.95 1.59,-2.47 c 4.42,-3.15 17.32,-14.85 16.52,-20.6 q -0.29,-2.05 -2.31,-1.64 -7.79,1.55 -15.68,1.89 -2.67,0.12 -4.46,1.23 -4.53,2.8 -7.3,7.39 -0.62,1.04 0.58,0.94 l 3.96,-0.31 a 0.35,0.35 0 0 1 0.36,0.44"
           inkscape:connector-curvature="0"
           style="vector-effect:non-scaling-stroke;stroke:#767676" />
        <path
           id="path17286"
           d="m 414.3643,74.3277 a 1.93,0.86 87.2 0 0 0.7647,-1.9697 1.93,0.86 87.2 0 0 -0.9533,-1.8857 1.93,0.86 87.2 0 0 -0.7647,1.9697 1.93,0.86 87.2 0 0 0.9533,1.8857"
           inkscape:connector-curvature="0"
           style="vector-effect:non-scaling-stroke;stroke:#f0f0f0" />
        <path
           id="path17288"
           d="m 392.17,77.9 q 1,-3.49 -1.89,-5.43 -1.51,-1.01 -1.09,0.76 0.61,2.56 1.99,4.8 0.65,1.06 0.99,-0.13"
           inkscape:connector-curvature="0"
           style="vector-effect:non-scaling-stroke;stroke:#f0f0f0" />
        <path
           id="path17290"
           d="m 81.79,142.03 q 0.02,1.68 -0.98,0.34 -1.06,-1.41 -2.67,-2.3 -2.8,-1.54 -1.06,1.14 c 1.15,1.76 4.5,7.97 6.44,7.61 a 0.68,0.67 -3.4 0 0 0.55,-0.61 q 0.1,-1.26 0.1,-2.55 c -0.01,-1.93 -1.16,-3.2 -1.46,-5.18 a 0.82,0.81 2.1 0 0 -0.64,-0.68 q -0.44,-0.1 -0.97,-0.06 -1.85,0.16 -0.15,0.91 0.82,0.37 0.84,1.38"
           inkscape:connector-curvature="0"
           style="vector-effect:non-scaling-stroke;stroke:#f0f0f0" />
        <path
           id="path17292"
           d="m 99.01,179.47 2.97,3.4 q 1.73,1.98 0.48,-0.33 -0.99,-1.83 -2.38,-3.41 a 1.81,1.69 21.4 0 1 -0.41,-0.86 l -0.88,-4.91 a 0.52,0.52 0 0 0 -0.66,-0.4 c -0.97,0.29 -2.34,9.98 1.11,10.05 q 1.16,0.02 0.15,-0.55 -1.61,-0.92 -1.34,-2.71 0.18,-1.18 0.96,-0.28"
           inkscape:connector-curvature="0"
           style="vector-effect:non-scaling-stroke;stroke:#f0f0f0" />
        <path
           id="path17294"
           d="m 105.21,29.25 q 3.65,-3.01 3.5,-7.68 a 0.65,0.65 0 0 0 -0.51,-0.62 l -0.7,-0.16"
           inkscape:connector-curvature="0"
           style="vector-effect:non-scaling-stroke;stroke:#e6e6e6" />
        <path
           id="path17296"
           d="m 233.94,9.2 c -0.98,-3.36 -5.49,-2.07 -7.91,-1.4 q -5.65,1.54 -13.25,1.55 c -3.12,0 -7.9,0.6 -12.04,-0.4 -1.37,-0.34 -1.98,-0.05 -2.97,0.8 a 0.61,0.61 0 0 0 -0.1,0.81 c 0.56,0.81 7.49,0.32 9.71,0.34 q 2.08,0.02 8.35,0.45 c 4.83,0.32 9.91,-0.34 14.66,0.55 1.63,0.31 6.14,1.11 5.69,-0.85 -0.18,-0.77 -0.86,-1.03 -1.54,-1.24 a 0.93,0.92 0.7 0 1 -0.6,-0.61"
           inkscape:connector-curvature="0"
           style="vector-effect:non-scaling-stroke;stroke:#d7d7d7" />
        <path
           id="path17298"
           d="m 408.19,228 c 3.96,-0.53 14.87,1.2 16.17,-3.68 a 0.4,0.4 0 0 0 -0.38,-0.5 q -4.3,-0.09 -7.36,-3.16 a 0.86,0.85 57.3 0 1 0.3,-1.4 q 4.98,-1.88 7.52,-6.58 0.59,-1.1 -0.64,-0.88 -3.71,0.65 -6.78,2.96 a 1.28,1.27 76 0 0 -0.49,0.82 q -0.37,2.63 -2.7,3.91 -0.45,0.25 -0.75,0.67 c -1.02,1.43 -4.21,5.71 -6.04,5.6 a 0.49,0.48 3 0 1 -0.46,-0.5 q 0.13,-3.27 2.72,-4.86 0.39,-0.24 0.64,-0.62 1.28,-1.97 3.21,-3.33 0.42,-0.29 0.68,-0.73 2.68,-4.65 6.31,-8.61 c 0.8,-0.87 0.69,-2.05 1.74,-3.08 q 2.43,-2.38 1.29,-5.84 a 0.32,0.32 0 0 0 -0.53,-0.13 c -0.62,0.58 -3.02,3.19 -3.79,2.62 a 0.5,0.5 0 0 1 -0.03,-0.77 q 4.76,-4.31 6.36,-10.59 0.35,-1.37 -0.84,-0.6 -2.7,1.76 -2.34,4.96 a 0.65,0.65 0 0 1 -0.69,0.72 l -2.65,-0.16 a 0.53,0.52 15.1 0 1 -0.44,-0.76 c 1.2,-2.36 4.75,-6.23 3.57,-8.79 a 0.44,0.44 0 0 0 -0.65,-0.18 q -4.39,2.91 -7.32,7.18 c -3.19,4.65 -6.57,9.11 -9.87,13.67 -0.36,0.5 -1.02,0.57 -1.46,0.21 a 0.53,0.53 0 0 1 -0.08,-0.74 c 1.9,-2.39 4.16,-4.79 4.72,-7.87 a 0.59,0.58 13.4 0 0 -0.41,-0.66 c -0.53,-0.16 -3.29,2.58 -4.62,2.96 q -0.91,0.25 -0.3,-0.47 l 9.14,-10.8 q 0.33,-0.39 -0.12,-0.15 -1.8,0.93 -2.88,2.72 -0.25,0.42 -0.66,0.69 c -0.09,0.06 -6.32,4.91 -6.79,4.4 a 0.5,0.5 0 0 1 0.02,-0.7 l 6.31,-6.14 q 0.74,-0.73 -0.25,-0.42 c -1.71,0.53 -4.6,3.59 -5.61,2.86"
           inkscape:connector-curvature="0"
           style="vector-effect:non-scaling-stroke;stroke:#f0f0f0" />
        <path
           id="path17300"
           d="M 400.96,191.25 401.04,191"
           inkscape:connector-curvature="0"
           style="vector-effect:non-scaling-stroke;stroke:#e6e6e6" />
        <path
           id="path17302"
           d="m 67.01,51.49 q -2.6,-4.81 -0.74,-9.2 3.3,-7.83 2.17,-14.62 A 0.87,0.87 0 0 0 67.85,26.99 L 66.38,26.5 a 0.76,0.75 -68.7 0 0 -0.92,0.41 q -3.16,6.86 -4.45,16.35 -4.47,33.05 4.28,63.61 0.95,3.29 2.73,5.31 a 1.42,1.42 0 0 0 2.19,-0.08 q 4.59,-6.03 3.77,-12.27 C 73.28,94.41 72.63,82.14 76.21,77.7 81.63,70.96 88.83,61.77 98.25,58.21"
           inkscape:connector-curvature="0"
           style="vector-effect:non-scaling-stroke;stroke:#858585" />
        <path
           id="path17304"
           d="m 98.25,58.21 c 9.57,-0.12 17.45,-1.21 22.45,6.45 a 0.61,0.61 0 0 0 0.88,0.15 l 1.16,-0.85 a 0.6,0.6 0 0 1 0.89,0.21 l 0.66,1.34 a 0.59,0.58 56.1 0 0 0.9,0.18 l 3.02,-2.58 a 0.76,0.75 61.8 0 1 1.22,0.37 c 0.7,2.47 -1.05,5.97 -0.88,9.48 0.21,4.43 4.47,10.95 6.44,15.02 q 0.29,0.59 0.64,0.03 2.74,-4.33 5.15,-8.78 c 1.41,-2.6 0.98,-4.8 0.98,-7.63 a 1.15,1.13 -22 0 1 0.36,-0.83 q 0.48,-0.44 0.91,-1.26 2.35,-4.48 7.33,-6.72 a 0.54,0.54 0 0 1 0.76,0.45 l 0.18,2.03 a 0.52,0.52 0 0 0 0.48,0.47 l 0.7,0.04 a 0.55,0.55 0 0 1 0.47,0.75 c -0.75,1.86 -1.7,3.25 -1.7,5.33 q -0.02,6.89 0.02,13.77 c 0.02,3.66 0.9,8.02 0.75,12.17 -0.08,2.06 0.85,3.63 1.01,5.72 0.27,3.6 1.29,5.97 1.97,9.19"
           inkscape:connector-curvature="0"
           style="vector-effect:non-scaling-stroke;stroke:#6c6c6c" />
        <path
           id="path17306"
           d="m 130.5,109.21 q -0.51,-0.96 -1.44,-1.28 -0.53,-0.18 -0.28,0.32 l 0.76,1.5"
           inkscape:connector-curvature="0"
           style="vector-effect:non-scaling-stroke;stroke:#6c6c6c" />
        <path
           id="path17308"
           d="M 112.43,77.93 C 111.78,67.03 98.32,66.32 90.7,67.58 q -3.04,0.51 -3.07,3.59 -0.1,10.26 -2.18,19.89 c -1.75,8.1 2.73,19.16 12.08,20.03 a 1.36,1.34 -18.9 0 1 0.83,0.4 c 2.02,2.1 3.88,1.01 5.3,-1.09 q 9.83,-14.51 8.77,-32.47"
           inkscape:connector-curvature="0"
           style="vector-effect:non-scaling-stroke;stroke:#767676" />
        <path
           id="path17310"
           d="m 127.61,104 q 0.83,-1.16 -0.04,-2.31 -0.82,-1.1 -0.82,0.27 v 1.77 q 0,1.47 0.86,0.27"
           inkscape:connector-curvature="0"
           style="vector-effect:non-scaling-stroke;stroke:#6c6c6c" />
        <path
           id="path17312"
           d="m 100.75,50.71 q -0.17,2.61 -1.77,4.62 -0.31,0.38 -0.39,0.85 l -0.34,2.03"
           inkscape:connector-curvature="0"
           style="vector-effect:non-scaling-stroke;stroke:#e6e6e6" />
        <path
           id="path17314"
           d="m 232.81,62.2 c -2.36,-5.68 -23.89,1.32 -28.22,3.32"
           inkscape:connector-curvature="0"
           style="vector-effect:non-scaling-stroke;stroke:#6c6c6c" />
        <path
           id="path17316"
           d="m 204.59,65.52 q 0.04,-1.79 -1.51,-1.69 c -1.86,0.12 -3.66,-0.08 -5.51,-0.26 a 1.53,1.52 68.5 0 1 -0.86,-0.38 q -1.37,-1.25 -3.17,-1.44"
           inkscape:connector-curvature="0"
           style="vector-effect:non-scaling-stroke;stroke:#d7d7d7" />
        <path
           id="path17318"
           d="m 193.54,61.75 q 1.18,-3.15 -1.15,-4.86 -2.57,-1.87 -5.04,0.12 l -6.06,4.87"
           inkscape:connector-curvature="0"
           style="vector-effect:non-scaling-stroke;stroke:#6c6c6c" />
        <path
           id="path17320"
           d="m 181.29,61.88 -15.48,-0.12 a 0.53,0.53 0 0 0 -0.53,0.51 L 165.21,64"
           inkscape:connector-curvature="0"
           style="vector-effect:non-scaling-stroke;stroke:#d7d7d7" />
        <path
           id="path17322"
           d="m 165.21,64 c -0.32,-1.32 0.47,-4.95 -0.42,-5.52 a 0.85,0.84 -43.3 0 0 -0.88,-0.02 c -3.52,2.05 -8.15,5.89 -8.15,10.36 q -0.01,12.8 -0.02,25.61 c -0.01,2.38 -1.11,3.75 -2.43,5.53 q -0.52,0.71 0.35,0.56 l 1.44,-0.26 a 0.48,0.48 0 0 1 0.56,0.48 l -0.16,11.97"
           inkscape:connector-curvature="0"
           style="vector-effect:non-scaling-stroke;stroke:#6c6c6c" />
        <path
           id="path17324"
           d="m 317.01,90.67 a 0.4,0.4 0 0 0 0.65,0.1 l 3.79,-3.98 a 0.4,0.4 0 0 0 -0.39,-0.67 l -5.13,1.42 a 0.4,0.4 0 0 0 -0.25,0.57 l 1.33,2.56"
           inkscape:connector-curvature="0"
           style="vector-effect:non-scaling-stroke;stroke:#767676" />
        <path
           id="path17326"
           d="m 193.54,61.75 q 0.23,11.4 -7,20.06 a 1.88,1.87 -22.9 0 0 -0.42,1.03 q -0.67,7.31 -0.3,14.66 0.07,1.33 0.39,0.04 2.05,-8.17 4.36,-16.27 c 2.17,-7.6 7.26,-11.72 14.02,-15.75"
           inkscape:connector-curvature="0"
           style="vector-effect:non-scaling-stroke;stroke:#767676" />
        <path
           id="path17328"
           d="m 165.21,64 0.08,8.5"
           inkscape:connector-curvature="0"
           style="vector-effect:non-scaling-stroke;stroke:#767676" />
        <path
           id="path17330"
           d="m 165.29,72.5 v 6.25"
           inkscape:connector-curvature="0"
           style="vector-effect:non-scaling-stroke;stroke:#6c6c6c" />
        <path
           id="path17332"
           d="m 165.29,78.75 0.01,11.87 a 0.46,0.46 0 0 0 0.62,0.43 l 9.84,-3.72 a 0.87,0.86 80.9 0 0 0.56,-0.78 L 176.54,79"
           inkscape:connector-curvature="0"
           style="vector-effect:non-scaling-stroke;stroke:#767676" />
        <path
           id="path17334"
           d="m 176.54,79 q 0.87,-2.69 0.67,-5.5"
           inkscape:connector-curvature="0"
           style="vector-effect:non-scaling-stroke;stroke:#6c6c6c" />
        <path
           id="path17336"
           d="m 177.21,73.5 q 0.49,-5.98 4.08,-11.62"
           inkscape:connector-curvature="0"
           style="vector-effect:non-scaling-stroke;stroke:#767676" />
        <path
           id="path17338"
           d="m 374.95,70.8 -0.26,6.54 a 0.43,0.43 0 0 0 0.63,0.4 q 4.99,-2.53 7.1,-7.67 a 1,0.99 -72.3 0 0 -0.69,-1.35 q -3.36,-0.77 -6.18,1.02 a 1.3,1.3 0 0 0 -0.6,1.06"
           inkscape:connector-curvature="0"
           style="vector-effect:non-scaling-stroke;stroke:#767676" />
        <path
           id="path17340"
           d="m 177.21,73.5 -0.18,0.36 a 0.66,0.65 17.4 0 1 -0.68,0.35 L 165.29,72.5"
           inkscape:connector-curvature="0"
           style="vector-effect:non-scaling-stroke;stroke:#d7d7d7" />
        <path
           id="path17342"
           d="m 176.54,79 -0.02,-0.12 a 0.18,0.18 0 0 0 -0.15,-0.15 q -5.55,-0.86 -11.08,0.02"
           inkscape:connector-curvature="0"
           style="vector-effect:non-scaling-stroke;stroke:#d7d7d7" />
        <path
           id="path17344"
           d="m 400.96,191.25 q -1.65,1.52 -1.15,3.46 a 0.79,0.78 -27.7 0 1 -0.25,0.79 c -2.54,2.2 -2.82,5.69 -5.88,9.14 a 1,1 0 0 0 -0.22,0.89 l 0.71,2.96 q 0.32,1.32 1.22,0.3 c 1.45,-1.65 2.77,-4.51 5.25,-4.29 a 1.3,1.29 -73.9 0 1 1.04,1.89 q -2.44,4.73 -7.39,6.64 -0.62,0.24 -0.9,1.26 a 0.47,0.46 12.1 0 0 0.38,0.58 c 1.39,0.23 5.29,-0.84 5.83,-0.62 q 0.52,0.22 0.04,0.51 -2.35,1.42 -5.01,1.65 c -4.19,0.36 -9.91,2.82 -11.45,7.07 a 0.39,0.39 0 0 0 0.34,0.52 c 0.58,0.05 6.71,-0.4 6.77,-0.25 a 0.46,0.46 0 0 1 -0.33,0.62 l -7.11,1.46 a 0.19,0.17 14.9 0 0 -0.1,0.05 l -0.19,0.17 q -0.22,0.2 0.07,0.28 3.84,1.08 7.72,0.2 a 0.66,0.66 0 0 1 0.79,0.78 c -0.15,0.7 -3.74,0.36 -4.95,0.69"
           inkscape:connector-curvature="0"
           style="vector-effect:non-scaling-stroke;stroke:#d7d7d7" />
        <path
           id="path17346"
           d="m 245.44,228 q -7.13,-0.63 -14.25,0"
           inkscape:connector-curvature="0"
           style="vector-effect:non-scaling-stroke;stroke:#e6e6e6" />
        <path
           id="path17348"
           d="m 228.19,228 -0.53,-0.29 a 0.55,0.54 29.6 0 1 -0.21,-0.75 l 0.52,-0.88 a 0.72,0.71 32.4 0 0 -0.22,-0.96 l -1.78,-1.22 a 0.88,0.86 -72.1 0 1 -0.38,-0.76 c 0.06,-1.44 6.06,-1.27 7.28,-1.65 q 0.69,-0.22 0.09,-0.62 -1.39,-0.92 -0.99,-2.66 0.56,-2.41 -1.82,-1.74 -2.44,0.7 -4.83,-0.17 a 0.42,0.42 0 0 1 -0.2,-0.64 q 1.89,-2.62 2.63,-5.62"
           inkscape:connector-curvature="0"
           style="vector-effect:non-scaling-stroke;stroke:#d7d7d7" />
        <path
           id="path17350"
           d="m 227.75,210.04 14.98,-0.03 q 1.77,-0.01 3.28,-0.94 4.51,-2.79 7.18,-7.35 0.58,-1 -0.57,-0.99 c -9.29,0.06 -21.57,1.23 -30.48,-0.64 a 0.53,0.53 0 0 1 -0.38,-0.72 l 0.48,-1.15 a 1.39,1.38 46.3 0 0 0.02,-0.99 q -3.28,-8.87 -4.67,-18.21 a 0.5,0.5 0 0 1 0.43,-0.57 q 9.01,-1.15 18.12,-1.19 c 4.75,-0.02 8.91,-4.86 11.11,-8.64 a 0.34,0.34 0 0 0 -0.24,-0.51 c -6.22,-0.99 -12.66,0.3 -18.11,0.81 q -5.87,0.54 -11.49,2.51 a 0.49,0.48 -10.3 0 1 -0.65,-0.44 l -0.32,-7.88 a 0.78,0.77 81.9 0 1 0.59,-0.79 q 7.64,-1.83 15.45,-2.14 c 4.63,-0.18 10.07,-1 15.18,-0.69 a 0.56,0.56 0 0 1 0.52,0.43 l 0.27,1.02 a 0.44,0.43 62.3 0 0 0.7,0.22 l 5.31,-4.41"
           inkscape:connector-curvature="0"
           style="vector-effect:non-scaling-stroke;stroke:#6c6c6c" />
        <path
           id="path17352"
           d="m 254.46,156.75 2.83,2.74 a 0.97,0.96 -28.8 0 0 0.88,0.25 c 3.83,-0.82 6.44,-1.25 10.77,-0.86 q 5.68,0.51 11.09,-1.77 a 1.87,1.82 37.1 0 1 0.96,-0.12 c 5.18,0.78 9.05,-5.5 12.96,-8.24 3.5,-2.44 7.4,-7.36 10.26,-10.46 q 0.53,-0.58 -0.26,-0.52 -2.68,0.17 -4.53,2.05 a 0.78,0.76 -34.5 0 0 -0.16,0.81 l 0.29,0.74 a 0.72,0.71 68.3 0 1 -0.4,0.94 q -4.5,1.77 -9.26,1.14 a 1.74,1.67 -52.2 0 0 -0.95,0.14 q -6.89,3.19 -14.56,2.21 a 0.56,0.55 4.2 0 0 -0.63,0.54 l -0.01,0.99 a 0.72,0.71 84.4 0 1 -0.56,0.69 l -6.53,1.4 a 0.73,0.73 0 0 0 -0.57,0.63 l -0.1,0.92 a 0.31,0.3 -73.3 0 1 -0.44,0.24 q -3.17,-1.62 -6.78,-1.44 a 0.64,0.63 -85.3 0 0 -0.59,0.51 l -0.38,1.97"
           inkscape:connector-curvature="0"
           style="vector-effect:non-scaling-stroke;stroke:#d7d7d7" />
        <path
           id="path17354"
           d="m 257.79,152.25 q -0.03,-2.07 -1.54,-2 -11.1,0.48 -22.21,0.96"
           inkscape:connector-curvature="0"
           style="vector-effect:non-scaling-stroke;stroke:#6c6c6c" />
        <path
           id="path17356"
           d="m 265.92,185.8 q 4.65,0.98 9.3,-0.58 1.05,-0.35 2.44,-2.29 0.3,-0.41 -0.17,-0.22 -4.8,1.98 -9.91,1.54 -0.93,-0.08 -1.84,1.03 a 0.32,0.32 0 0 0 0.18,0.52"
           inkscape:connector-curvature="0"
           style="vector-effect:non-scaling-stroke;stroke:#d7d7d7" />
        <path
           id="path17358"
           d="m 257.79,152.25 q -1.2,2.59 -3.33,4.5"
           inkscape:connector-curvature="0"
           style="vector-effect:non-scaling-stroke;stroke:#767676" />
        <path
           id="path17360"
           d="m 227.75,210.04 q -9.87,0.12 -19.75,-1.09 a 0.31,0.31 0 0 1 -0.22,-0.48 l 2.76,-4.2 a 3.71,3.71 0 0 0 0.52,-2.84 q -3.67,-16.49 -4.2,-33.4 a 1.38,1.37 -66.5 0 0 -0.35,-0.89 c -1.58,-1.79 -0.22,-3.58 -0.21,-5.19 q 0.02,-2.7 -0.24,-5.48 a 0.63,0.61 1.8 0 0 -0.54,-0.56 q -2.51,-0.33 -6.03,0.02 -14.51,1.48 -28.85,4.48 a 0.73,0.71 -5.3 0 0 -0.57,0.67 q -0.38,9.59 0.58,19.14 0.14,1.45 1.08,0.34 9.09,-10.64 23.56,-10.89 c 3.34,-0.06 6.01,1.44 6.98,4.58 1.99,6.41 4.12,17.07 -1.37,22.91 -4.61,4.92 -9.29,10.09 -16.18,11.62 -5.95,1.31 -15.92,2.65 -21.18,-1.1 a 0.83,0.83 0 0 1 -0.22,-1.11 q 3.11,-5.01 8.3,-7.74 a 1.05,1.04 42.7 0 1 0.9,-0.03 q 7.44,3.37 15.34,1.41 c 2,-0.5 4.82,0.04 6.63,-2 a 1.18,1.16 63.9 0 0 0.29,-0.87 c -0.34,-5.02 0.1,-18.21 -7.28,-18.27 -4.15,-0.03 -14.32,0.82 -15.04,6.45 q -1.22,9.52 -9.14,13.09 a 0.6,0.6 0 0 1 -0.79,-0.28 l -0.37,-0.75 a 0.5,0.5 0 0 0 -0.83,-0.11 q -5.5,6.48 -13.21,8.17 c -7.28,1.6 -20.22,0.68 -28.57,-1.25 q -2.51,-0.59 -0.8,-2.51 c 1.97,-2.2 8.05,-7.07 7.09,-10.02 q -0.16,-0.48 -0.48,-0.08 c -5.15,6.53 -15.08,16.92 -23.66,18.14 q -5.6,0.79 -13.2,-0.88"
           inkscape:connector-curvature="0"
           style="vector-effect:non-scaling-stroke;stroke:#767676" />
        <path
           id="path17362"
           d="m 136.35,159.65 -0.28,7.5 a 0.31,0.3 85.5 0 0 0.36,0.31 l 23.43,-4.82 a 0.53,0.52 85.8 0 0 0.42,-0.49 q 0.18,-3.56 -2.04,-6.43 a 0.87,0.84 -20.7 0 0 -0.75,-0.32 q -10.46,0.99 -20.65,3.64 a 0.66,0.65 84.1 0 0 -0.49,0.61"
           inkscape:connector-curvature="0"
           style="vector-effect:non-scaling-stroke;stroke:#767676" />
        <path
           id="path17364"
           d="m 138.74,189.68 0.03,5.49 a 1.84,1.83 -89.5 0 0 1.79,1.83 c 4.75,0.14 16.55,0.77 20.58,-2.39 a 0.93,0.92 68.5 0 0 0.35,-0.82 q -1.31,-13.97 -0.94,-28.01 0.04,-1.28 -0.78,-0.3 c -2.54,3.06 -5.68,6.48 -9.85,7.07 q -7.02,1.01 -13.99,2.62 a 0.74,0.74 0 0 0 -0.57,0.65 q -0.61,7.02 0.64,13.89 a 0.51,0.51 0 0 0 0.79,0.33 l 1.13,-0.79 q 0.82,-0.57 0.82,0.43"
           inkscape:connector-curvature="0"
           style="vector-effect:non-scaling-stroke;stroke:#767676" />
        <path
           id="path17366"
           d="m 400.94,228 -1.14,-0.73 a 0.64,0.64 0 0 0 -0.83,0.12 l -0.53,0.61"
           inkscape:connector-curvature="0"
           style="vector-effect:non-scaling-stroke;stroke:#f0f0f0" />
        <path
           id="path17368"
           d="m 414.223,208.8096 a 2.31,1.12 121.5 0 0 2.162,-1.3844 2.31,1.12 121.5 0 0 0.252,-2.5548 2.31,1.12 121.5 0 0 -2.162,1.3844 2.31,1.12 121.5 0 0 -0.252,2.5548"
           inkscape:connector-curvature="0"
           style="vector-effect:non-scaling-stroke;stroke:#f0f0f0" />
      </g>
      <path
         id="path17372"
         d="M 0,0 H 101.81 C 98.68,0.2 96.28,3.13 92.98,5.18 88.77,7.79 85.37,11.94 81.22,14.9 79.97,15.79 79.18,17.02 78,18.04 Q 72.38,16.52 67.85,19.83 C 54.69,29.44 51.62,45.04 50.51,60.75 q -2.01,28.38 5.11,53.92 c 4.46,16.02 16.14,1.86 20.54,-4.12 a 0.3,0.3 0 0 1 0.51,0.05 q 2.33,4.79 6.12,8.15 -4.41,2.47 -2.89,7.59 c 0.5,1.69 5.98,14.65 5.34,15.73 q -0.44,0.76 -0.76,-0.06 l -6.42,-16.25 q -0.35,-0.89 -0.85,-0.07 l -0.85,1.42 a 0.89,0.88 -46.5 0 0 0.02,0.96 c 0.46,0.7 2.51,3.89 2.08,4.57 a 0.44,0.43 -49.7 0 1 -0.69,0.06 l -2.47,-2.74 a 0.63,0.62 -50 0 0 -0.99,0.09 l -3.86,6.19 a 1.26,1.25 51.3 0 0 -0.12,1.1 c 1.04,2.87 2.54,5.23 3,8.2 q 0.41,2.61 0.69,5.27 0.27,2.64 -1.33,0.52 l -5.46,-7.2 q -0.6,-0.79 -0.73,0.2 -0.22,1.6 0.8,2.85 a 0.88,0.86 -56.6 0 1 0.15,0.79 q -0.85,2.8 -0.5,4.04 3.31,11.7 5.97,23.49 0.52,2.29 3.29,2.5 0.07,7.95 0.04,15.92 c -0.04,9.04 4.78,11.92 12.25,15.12 q -0.05,5.67 2.38,10.92 a 1.18,1.15 -1.6 0 0 0.67,0.62 c 4.84,1.75 3.99,6.46 8.14,7.42 H 0 Z"
         inkscape:connector-curvature="0"
         style="fill:#ffffff" />
      <path
         id="path17374"
         d="m 101.81,0 h 30 c -2.34,1.17 -4.48,2.24 -7.25,2.14 q -4.24,-0.15 -8.45,0.19 c -1.34,0.11 -7.57,2.29 -8.18,3.5 a 0.62,0.61 16.4 0 0 0.49,0.89 l 5.05,0.47 a 1.07,1.06 75.9 0 1 0.78,0.47 c 1.41,2.18 6.03,2.75 8.46,3.48 a 0.7,0.7 0 0 1 0.49,0.54 l 0.06,0.31 a 0.48,0.48 0 0 1 -0.47,0.57 h -12.03 a 0.56,0.56 0 0 0 -0.54,0.69 q 0.4,1.67 2.16,1.61 a 0.56,0.55 84.8 0 1 0.57,0.48 l 0.05,0.34 a 0.52,0.51 -8.5 0 1 -0.43,0.58 l -7,1.18 q -0.44,0.08 -0.82,0.32 l -1.84,1.15 a 0.7,0.7 0 0 0 -0.15,1.06 l 1.71,1.89 a 0.53,0.53 0 0 0 0.79,0 q 0.93,-1.03 2.24,-1.07 -1.49,0.7 -2.46,1.99 -6,8.03 -13.17,16.05 a 0.81,0.81 0 0 0 0.4,1.32 q 4.94,1.28 5.69,-3.26 a 1.7,1.69 -17.6 0 1 0.49,-0.94 l 6.76,-6.7 c -0.04,1.57 -1.96,4.43 -1.7,5.29 a 0.66,0.66 0 0 0 0.67,0.47 c 4.82,-0.25 8.37,0.51 13.5,-0.86 q 3.21,-0.85 6,1.58 a 1.41,1.38 65.2 0 0 0.87,0.33 c 7.45,0.09 12.38,0.41 18.13,-2.08 a 1.35,1.32 42.6 0 1 0.96,-0.03 l 4.91,1.77 a 1.26,1.23 -49.2 0 0 1.05,-0.09 q 2.87,-1.59 5.78,-0.17 a 1.81,1.77 54.8 0 0 0.92,0.17 q 4.39,-0.39 8.71,-1.36 4.08,-0.91 17.88,-0.53 c 3.54,0.1 13.88,2.64 16.41,-1 a 1.04,1.03 -74.9 0 1 0.77,-0.45 q 5.66,-0.47 8.74,-0.11 c 8.02,0.95 17.31,0.29 23.91,0.54 q 8.8,0.34 17.46,0.5 a 1.76,1.74 -81.4 0 0 1.72,-1.28 q 0.94,-3.25 -0.2,-3.66 -2.95,-1.07 -6.04,-1.58 a 0.26,0.24 -17 0 1 -0.15,-0.07 l -0.41,-0.38 q -0.23,-0.21 -0.54,-0.28 c -3,-0.68 -5.58,-1.95 -8.58,-2.22 -8.98,-0.81 -17.74,-2.22 -26.89,-2.28 -1.65,0 -10.71,-0.2 -10.85,-0.85 a 0.49,0.49 0 0 1 0.43,-0.6 q 3.63,-0.38 7.27,-0.6 c 7.73,-0.47 14.05,-2.94 21.56,-0.52 q 0.47,0.16 0.95,0.06 c 3.2,-0.67 4.8,1.99 6.94,3.37 a 0.78,0.76 42.9 0 0 0.87,-0.02 c 1.38,-1.03 -1.08,-3.07 -2.1,-3.44 a 0.5,0.5 0 0 1 -0.29,-0.66 q 0.36,-0.89 1.65,-0.75 c 4.04,0.43 6.75,1.98 11.19,0.1 a 1.12,1.09 -5.2 0 0 0.64,-0.75 q 0.33,-1.29 -1.05,-2 -0.38,-0.2 -0.82,-0.2 -3.44,-0.02 -6.56,-1.45 a 0.76,0.75 -73 0 1 -0.43,-0.82 l 0.74,-4.22 a 1.35,1.35 0 0 0 -1.01,-1.54 l -5.45,-1.35 a 2.34,2.33 -87.6 0 1 -1.75,-1.91 q -0.18,-1.2 1.26,-1.57 0.46,-0.12 0.94,-0.14 2.31,-0.11 4.1,-1.6 L 355.56,0 q 1.44,0.58 1.48,2.3 0.02,0.53 0.39,0.15 0.58,-0.61 0.56,-1.56 a 0.62,0.61 -7.7 0 1 0.47,-0.61 q 1.85,-0.49 2.84,1.16 4.28,7.18 8.47,14.44 a 1.86,1.81 -60.5 0 1 0.24,0.91 l -0.02,1.65 a 1.54,1.46 28.2 0 0 0.29,0.88 c 7.32,9.94 14.45,19.07 24.25,28.9 6.82,6.85 5.1,14.69 8.28,22.93 1.56,4.04 -3.46,8.97 2.48,11.58 a 0.3,0.29 -80.8 0 0 0.41,-0.3 Q 404.62,72.4 403.89,62.29 c -0.22,-3.1 1,-5.81 0.8,-9.19 a 0.35,0.34 -82.6 0 1 0.45,-0.35 c 3.57,1.18 2.18,5.51 3.2,8.1 a 0.6,0.6 0 0 0 0.74,0.35 q 1.42,-0.45 2.02,-1.75 a 1.04,1.01 -47.9 0 0 -0.03,-0.91 l -1.13,-2.09 q -0.52,-0.95 0.5,-0.56 c 4.71,1.81 1.07,8.41 2.52,9.48 a 0.37,0.37 0 0 0 0.57,-0.19 l 0.76,-2.66 a 0.62,0.62 0 0 1 0.7,-0.45 c 1.38,0.24 2,0.9 2.08,2.39 0.46,8.6 1.91,15.55 0.45,23.04 a 1.56,1.55 -52.4 0 0 0.12,0.94 c 1.75,3.79 2.31,6.84 -2.06,9.06 a 0.86,0.84 -11.6 0 0 -0.48,0.71 c -0.39,5.97 5.49,7.43 2.41,14.35 -0.46,1.03 -0.25,1.94 0.35,2.78 a 0.44,0.44 0 0 0 0.74,-0.03 l 0.82,-1.43 q 0.38,-0.65 0.69,0.04 l 0.23,0.5 a 1.19,1.17 44.7 0 1 0.01,0.92 q -1.75,4.24 1.92,6.71 a 0.79,0.78 25 0 1 0.32,0.86 q -3.34,12.33 -3.85,28.83 -0.3,9.89 -4.15,22.48 -0.15,0.49 -0.37,0.03 l -1.66,-3.36 q -0.73,-1.49 -1.19,0.1 c -0.93,3.23 -0.82,6.17 -2.52,9.09 -2.24,3.85 -5.15,7.36 -7.81,10.92 -1.6,-2.79 -4.23,-3.4 -6.95,-1.43 -4.31,3.1 -7.11,6.66 -13.08,7.3 q -0.51,0.05 -0.18,-0.33 c 3.07,-3.64 8.91,-7.51 9.82,-10.05 q 0.17,-0.47 0.54,-0.81 l 3.95,-3.65 a 0.92,0.91 -27.2 0 0 0.28,-0.85 c -1.04,-4.91 -6.68,-0.35 -9.18,-0.33 -5.19,0.05 -3.59,-8.06 -2.47,-10.89 a 0.73,0.73 0 0 0 -0.75,-0.99 l -4.52,0.45 a 1.71,1.67 -67.1 0 0 -0.91,0.38 q -2.32,1.98 -4.61,0.13 a 1.09,1.07 59.2 0 0 -0.88,-0.23 l -1.68,0.29 q -1.23,0.21 -0.33,-0.65 l 2.38,-2.28 a 0.56,0.56 0 0 0 -0.18,-0.93 l -2.84,-1.12 a 0.59,0.59 0 0 0 -0.78,0.36 q -0.9,2.61 -3.73,3.12 -1.33,0.25 -0.51,-0.83 l 4.69,-6.2 a 1.17,1.12 17.1 0 1 0.9,-0.45 l 0.53,-0.01 a 0.76,0.74 -82.4 0 0 0.72,-0.56 q 0.56,-2.07 -0.62,-3.86 a 1.18,1.18 0 0 1 -0.18,-0.83 q 0.4,-2.54 -1.59,-3.46 -0.94,-0.43 -1.61,-1.21 l -4.02,-4.73 a 1.26,1.25 -21.9 0 0 -1.01,-0.43 l -5.83,0.37 a 0.76,0.75 -9.3 0 1 -0.78,-0.55 l -0.14,-0.54 q -0.48,-1.78 1.29,-1.27 2.83,0.82 4.99,-1.09 0.54,-0.47 -0.16,-0.65 c -2.05,-0.54 -3.93,0.53 -5.71,0.51 q -2.31,-0.02 -4.64,0 a 0.78,0.77 -4.8 0 1 -0.77,-0.64 l -0.28,-1.55 a 0.82,0.81 -22.2 0 1 0.35,-0.83 q 1.94,-1.31 2.61,-3.42 0.14,-0.45 0.45,-0.8 l 1.89,-2.16 a 0.92,0.9 54.1 0 0 0.15,-0.99 c -0.94,-2.14 -5.3,-1.12 -7.18,-0.5 a 1.87,1.75 9.6 0 0 -0.8,0.53 c -1.86,2.13 -4.74,3.32 -6.49,4.63 q -3.31,2.46 -6.64,4.98 -1.25,0.95 -0.34,-0.33 1.56,-2.18 3.74,-3.76 a 0.13,0.12 -20.8 0 0 0.05,-0.1 l 0.01,-0.35 q 0.02,-0.67 -0.51,-0.25 l -1.89,1.52 a 0.38,0.38 0 0 1 -0.44,0.03 l -0.26,-0.14 a 0.17,0.17 0 0 1 -0.03,-0.28 l 5.36,-4.79 a 0.67,0.66 38.2 0 0 -0.13,-1.08 l -4.37,-2.39 a 0.9,0.88 -44.4 0 0 -0.85,0 q -1.63,0.9 -3.26,3.09 -4.49,6 -12.69,14.67 c -2.92,3.07 -5.64,4.4 -9.6,5.16 -2.29,0.43 -11.65,2.68 -13.27,1.84 A 0.35,0.35 0 0 1 296,154.21 c 3.71,-3.1 -1.45,-7.51 4.77,-9.33 6.23,-1.83 8.81,-6.6 15.53,-6.42 a 0.68,0.67 5.3 0 0 0.69,-0.57 l 0.12,-0.84 a 0.61,0.61 0 0 1 0.75,-0.5 q 3.46,0.85 6.63,-0.75 a 0.39,0.38 67.2 0 0 0.19,-0.48 c -0.52,-1.33 -4.1,1.68 -5.01,-0.16 a 0.85,0.85 0 0 1 0.21,-1.03 l 1.93,-1.62 q 1.04,-0.88 -0.28,-0.54 l -4.19,1.08 a 0.81,0.78 -31.1 0 1 -0.69,-0.16 c -2.45,-2.01 -2.61,1.63 -5.27,1.02 a 0.43,0.43 0 0 1 -0.29,-0.61 l 0.9,-1.77 q 1.03,-2.01 -0.63,-0.47 l -5.57,5.16 a 1.22,1.22 0 0 1 -0.85,0.32 c -3.11,-0.07 -6.31,1.34 -8.91,1.65 q -21.8,2.65 -38.03,7.08 -3.88,1.05 -6.03,1.46 c -4.26,0.8 -6.6,3.28 -11.25,3.52 q -3.39,0.18 -6.68,0.96 -9.01,1.68 -17.76,4.38 a 0.36,0.36 0 0 1 -0.47,-0.34 l -0.22,-7.22 a 1.15,1.15 0 0 0 -0.45,-0.87 c -3.79,-2.87 -31.64,2.8 -37.45,4.09 -2.61,0.57 -5,1.82 -7.51,2.83 q -0.6,0.24 -0.43,-0.38 0.79,-2.96 -0.4,-5.73 a 1.41,1.41 0 0 0 -0.7,-0.73 c -6.78,-3.21 -26.57,2.95 -33.9,5.27 -2.59,0.81 -12.58,6.48 -11.73,9.83 a 0.56,0.55 73.6 0 0 0.7,0.39 l 1.37,-0.46 a 0.43,0.42 76.2 0 1 0.55,0.34 q 0.6,4.25 0.2,8.52 -0.04,0.5 -0.32,0.91 l -3.53,5.2 q -0.78,1.15 0.6,0.98 l 2.72,-0.35 a 0.4,0.4 0 0 1 0.44,0.45 c -1.45,9.94 -7.42,22.58 -19.47,22.7 -6.85,0.07 -20.15,-3.8 -20.52,-12.52 q -0.52,-12.27 0.92,-33.57 0.09,-1.31 1.39,-4.49 c 1.3,-3.18 2.96,-2.91 5.94,-3.05 3.91,-0.2 17.9,-1.48 13.15,6.57 q -2.66,4.51 -1.52,8.93 0.58,2.29 2.32,0.69 c 3.22,-2.99 7.07,-6.11 8.38,-10.34 1.69,-5.44 3.48,-14.54 -5.11,-15.17 -6.04,-0.43 -10.58,-1.02 -15.87,1.97 q -8.51,4.8 -14.02,13.07 c -4.76,7.16 -5.08,16.59 -5.13,24.89 q -2.77,-0.21 -3.29,-2.5 -2.66,-11.79 -5.97,-23.49 -0.35,-1.24 0.5,-4.04 a 0.88,0.86 -56.6 0 0 -0.15,-0.79 q -1.02,-1.25 -0.8,-2.85 0.13,-0.99 0.73,-0.2 l 5.46,7.2 q 1.6,2.12 1.33,-0.52 -0.28,-2.66 -0.69,-5.27 c -0.46,-2.97 -1.96,-5.33 -3,-8.2 a 1.26,1.25 51.3 0 1 0.12,-1.1 l 3.86,-6.19 a 0.63,0.62 -50 0 1 0.99,-0.09 l 2.47,2.74 a 0.44,0.43 -49.7 0 0 0.69,-0.06 c 0.43,-0.68 -1.62,-3.87 -2.08,-4.57 a 0.89,0.88 -46.5 0 1 -0.02,-0.96 l 0.85,-1.42 q 0.5,-0.82 0.85,0.07 l 6.42,16.25 q 0.32,0.82 0.76,0.06 c 0.64,-1.08 -4.84,-14.04 -5.34,-15.73 q -1.52,-5.12 2.89,-7.59 c 6.44,5.16 12.49,3.91 18.31,-1.53 q 10.53,-9.83 16.73,-23.02 0.22,-0.47 0.28,0.05 c 0.18,1.69 -0.6,3.43 -0.6,4.94 q -0.03,11.82 0,22.82 0.01,1.49 1.29,0.73 7.87,-4.67 10.74,-12.99 l 0.96,-0.54 2.27,2.28 a 0.62,0.62 0 0 0 0.81,0.06 c 1.72,-1.26 7.57,-5.97 8.08,-8.43 a 1.02,1.01 29 0 0 -0.26,-0.89 q -2.74,-2.92 -3.75,-6.86 a 1.41,1.38 53.7 0 1 0.15,-1.05 l 3.37,-5.78 q 0.39,-0.68 0.44,0.1 c 0.24,4.13 -0.1,7.85 0.72,12.11 1.3,6.7 0.22,13.65 3.56,19.9 a 0.5,0.49 61.2 0 0 0.68,0.2 q 5.36,-2.98 8.43,-8.14 h 0.5 c 0.88,2.84 -0.33,5.49 1.1,8.39 a 1.56,1.56 0 0 0 2.13,0.69 q 5.72,-3.01 8.72,-8.69 a 0.88,0.87 -70.4 0 0 -0.6,-1.27 l -1.2,-0.25 a 0.68,0.67 -84.2 0 1 -0.53,-0.66 l 0.09,-12.34 a 0.88,0.87 -14.4 0 1 0.46,-0.77 l 10.11,-5.51 a 0.31,0.31 0 0 1 0.46,0.23 q 0.38,2.91 0.27,5.82 c -0.26,6.25 -0.05,12.01 0.07,18.08 q 0.04,2.22 3,4.39 a 0.81,0.8 48.3 0 0 0.85,0.05 q 9.52,-5.22 12.37,-15.7 c 0.06,-0.2 0.17,-0.21 0.34,-0.14 a 0.13,0.12 9.7 0 1 0.09,0.12 q 0.24,3.99 -1.23,7.61 c -0.65,1.58 -0.95,3.12 0.19,4.32 q 1.48,1.58 3.64,1.73 7.96,0.54 15.1,1.12 c 2.73,0.22 5.29,-0.94 8.29,-0.69 a 1.11,1.07 24.5 0 0 0.85,-0.3 c 2.71,-2.63 6.14,-4.12 7.64,-7.91 q 0.72,-1.82 -1.17,-1.28 c -7.38,2.1 -13.33,0.18 -20.69,-0.13 a 0.55,0.55 0 0 1 -0.53,-0.56 l 0.14,-19.08 a 1.23,1.23 0 0 1 0.86,-1.17 q 6.87,-2.13 13.99,-1.26 a 1.49,1.48 31.2 0 0 0.99,-0.24 q 4.76,-3.22 7.4,-8.29 0.76,-1.47 -0.89,-1.36 -12.06,0.85 -23.54,4.77 a 0.56,0.56 0 0 1 -0.74,-0.45 l -1.28,-8.89 a 0.71,0.69 -13.8 0 1 0.47,-0.75 q 9.24,-3.09 19.01,-2.85 a 1.1,1.08 -17.6 0 1 0.82,0.42 l 1.06,1.4 a 0.6,0.59 -39.2 0 0 0.86,0.08 q 4.72,-4.12 8.34,-9.19 1.43,-1.94 3.82,-2.69 a 0.33,0.33 0 0 0 0.19,-0.48 l -0.5,-0.89 a 0.74,0.73 -36.9 0 1 0.13,-0.9 c 2.83,-2.68 0.73,-5.51 5.73,-7.18 6.46,-2.15 3.77,-5.22 -1.17,-5.31 a 1.11,1.08 -69.1 0 0 -0.86,0.4 q -1.49,1.81 -3.37,0.45 a 1.07,1.06 -73 0 1 -0.45,-0.85 q -0.02,-1.56 1.55,-2.35 1.06,-0.54 -0.13,-0.65 -1.16,-0.11 -2.17,0.35 a 4.25,4.18 -53.6 0 1 -2.12,0.34 c -6.6,-0.7 -13.34,-2.94 -19.93,-3.07 -7.37,-0.15 -14.97,-0.83 -22.05,-0.67 -6.09,0.14 -12.5,-0.13 -18.49,1.02 -6.68,1.27 -12.1,-1.24 -18.99,1.08 a 0.88,0.87 58.1 0 1 -0.91,-0.22 q -2.23,-2.27 -5.37,-1.33 a 1.8,1.74 44 0 1 -1.01,0 l -4.2,-1.22 a 1.45,1.44 39.6 0 0 -1.06,0.1 q -3.29,1.67 -7.02,1.56 -0.51,-0.02 -0.95,0.22 c -4.63,2.43 -9.11,1.54 -13.1,1.89 q -5.13,0.46 -10.32,0.5 a 0.62,0.62 0 0 0 -0.59,0.48 c -0.53,2.37 -3.14,1.57 -3.6,3.48 a 1.42,1.39 77.6 0 1 -0.48,0.77 l -4.64,3.68 c -4.99,1.83 -9.28,5.73 -13.94,8.39 a 0.15,0.15 0 0 1 -0.22,-0.08 l -0.1,-0.3 a 0.52,0.51 -29.5 0 1 0.16,-0.57 q 0.99,-0.82 1.12,-2 A 1.42,1.42 0 0 0 87.55,55.21 C 84.3,50.14 92.07,45.08 94.88,42.6 q 0.46,-0.41 -0.14,-0.55 -2.8,-0.66 -3.65,1.81 -0.23,0.68 -0.7,0.13 -0.52,-0.6 0.1,-1.54 a 0.27,0.27 0 0 0 -0.12,-0.39 c -2.36,-1.08 -14.89,18.55 -16.21,21.05 -1.27,2.43 -2.84,4.03 -4.57,6.05 a 1.33,1.27 66.4 0 0 -0.31,0.85 q 0.01,2.68 -2.63,3.52 a 1,0.99 85.8 0 1 -1.28,-1.11 l 0.18,-1.07 a 1.4,1.39 -13.9 0 1 0.55,-0.9 l 2.11,-1.58 a 0.63,0.62 -30.5 0 0 0.2,-0.75 c -0.8,-1.86 -2.4,-3.52 -1.44,-5.73 1.25,-2.9 4.24,-2.87 4.96,-7.37 q 0.29,-1.76 -1.4,-2.33 l -3.52,-1.2 c 5.86,-3.87 8.88,-8.07 9.94,-15.33 q 1.31,-9 1.05,-18.12 c 1.18,-1.02 1.97,-2.25 3.22,-3.14 4.15,-2.96 7.55,-7.11 11.76,-9.72 3.3,-2.05 5.7,-4.98 8.83,-5.18 z M 88.6776,12.8863 a 2.16,0.81 -42.3 0 0 -2.1427,0.8546 2.16,0.81 -42.3 0 0 -1.0525,2.0528 2.16,0.81 -42.3 0 0 2.1427,-0.8546 2.16,0.81 -42.3 0 0 1.0525,-2.0528 z M 301.5,109.71 301.79,110 q -2.07,3.06 -2.56,5.24 -0.7,3.14 2.44,3.81 8.01,1.72 16.04,0.43 c 9.02,-1.45 16.54,-2.67 21.6,-11.31 q 0.61,-1.04 -0.55,-0.72 -5.36,1.47 -10.93,2.66 c -4.17,0.88 -8.28,0.66 -12.53,0.61 q -1.09,-0.01 -0.25,-0.69 c 4.33,-3.53 3.94,-10.1 2.77,-15.02 a 0.93,0.9 61.3 0 1 0.23,-0.84 c 3.03,-3.15 5.42,-5.98 9.42,-8.35 q 6.34,-3.75 10.89,-9.66 a 0.55,0.55 0 0 0 -0.05,-0.73 l -0.21,-0.21 a 0.82,0.81 59.5 0 0 -0.8,-0.21 q -9.98,2.75 -20.28,3.83 -2.08,0.22 -2.19,-1.86 l -0.12,-2.23 A 0.54,0.54 0 0 0 314,74.27 l -1.08,0.37 a 0.45,0.44 -15 0 1 -0.58,-0.33 q -0.76,-3.66 1.71,-6.02 7.97,-7.63 19.43,-6.27 a 1.07,1.06 -13.1 0 1 0.76,0.47 l 1.26,1.86 a 0.58,0.58 0 0 0 0.91,0.07 c 2.93,-3.19 5.25,-3.71 8.15,-8.49 a 1,0.98 -41.8 0 0 0.06,-0.9 c -2.15,-5.01 -14.39,-1.57 -17.84,0.46 q -3.99,2.33 -7.98,4.61 c -9.85,5.62 -16.99,15.1 -16.04,26.95 0.56,7.08 -2.76,15.11 -5.93,21.33 q -0.25,0.47 -0.35,-0.05 -0.31,-1.54 -0.25,-4.83 c 0.26,-13.39 1.37,-28.35 6.83,-39.49 q 1.09,-2.21 -1.2,-1.28 -4.46,1.82 -7.08,5.78 -9.81,14.77 -20.66,28.84 -0.37,0.49 -0.37,-0.12 v -27.2 a 0.43,0.43 0 0 0 -0.61,-0.39 q -9.81,4.49 -8.92,15.1 0.62,7.36 0.17,21.67 a 0.82,0.79 78.3 0 1 -0.44,0.69 q -4.12,2.05 -6.48,5.94 -0.31,0.52 -0.34,-0.08 c -0.7,-13.41 -2.09,-29.66 3.07,-38.25 2.88,-4.79 3.77,-8.5 3.13,-13.69 q -0.32,-2.65 -2.73,-1.49 c -10.4,5.04 -10.24,12.72 -12.01,22.96 a 0.91,0.9 -1.5 0 1 -0.71,0.74 l -6.22,1.36 a 0.53,0.52 82 0 1 -0.63,-0.48 c -0.39,-6.91 1.49,-14.87 2.31,-21.86 q 0.05,-0.51 -0.4,-0.28 c -4.23,2.05 -8.09,5.35 -9.07,10.23 -2.82,14.16 -2.38,27.67 -2.58,41.55 q -0.05,3.98 0.42,6.86 0.63,3.85 3.69,1.43 5.61,-4.43 9.56,-10.35 a 0.44,0.44 0 0 0 -0.19,-0.64 l -0.34,-0.15 a 1.19,1.16 -44.3 0 0 -0.93,0 l -1.7,0.75 a 0.58,0.57 -11.6 0 1 -0.8,-0.52 v -18.5 a 1.12,1.11 76.4 0 1 0.6,-0.99 l 6.3,-3.24 q 0.63,-0.33 0.49,0.37 c -1.9,9.58 -0.9,20.95 -0.89,30.79 q 0,2.04 0.99,3.09 c 3.36,3.56 8.21,-3.12 10.73,-5.11 q 0.46,-0.36 0.28,0.2 l -0.59,1.87 q -0.35,1.13 0.7,0.59 3.52,-1.81 6.18,-4.78 a 0.53,0.53 0 0 1 0.72,-0.07 c 2.51,1.94 4.93,2.69 7.9,0.87 q 4.9,-3 7.67,-8.14 0.35,-0.65 -0.37,-0.48 -5.69,1.32 -6.97,-4.6 a 1.58,1.53 57.7 0 1 0.26,-1.23 l 14.99,-20.53 q 0.85,-1.16 0.5,0.24 -4.32,17.11 -3.65,34.74 a 1.7,1.69 25.3 0 0 0.35,0.97 q 2.66,3.5 6.13,0.43 4.29,-3.8 8.18,-7.91 z m 65.51,-39.06 q -1.77,6.52 -1.48,13.29 0.08,1.87 -1.6,2.66 -7.06,3.34 -11.46,9.73 a 0.94,0.93 -41.7 0 0 -0.06,0.95 c 0.55,1.05 10.18,-2.51 11.77,-2.93 a 0.37,0.37 0 0 1 0.46,0.37 c -0.26,5.88 -1.78,13.99 -0.42,19.59 q 0.65,2.66 2.93,1.16 c 2.1,-1.38 8.63,-6.46 6.77,-9.79 a 1.75,1.73 31.1 0 1 -0.23,-0.9 l 0.21,-12.2 a 0.55,0.55 0 0 1 0.55,-0.54 c 3.38,-0.04 7.49,-0.55 10.38,0.89 7.32,3.64 7.39,14.96 6.78,21.94 a 1.87,1.85 78.2 0 1 -0.96,1.49 c -4.7,2.6 -9.16,2.5 -14.35,3.14 -7.63,0.95 -13.97,-0.6 -19.77,-5.88 a 0.83,0.82 52.1 0 0 -0.94,-0.12 q -5.55,2.97 -8.64,8.39 a 0.72,0.71 35.9 0 0 0.15,0.89 c 8.34,7.31 18.39,7.35 29.13,5.18 9,-1.82 24,-12.47 24.91,-22.39 0.69,-7.58 -0.1,-21.86 -10.12,-22.83 q -6.74,-0.64 -16.97,1.41 -0.5,0.1 -0.3,-0.37 0.87,-1.95 1.59,-2.47 c 4.42,-3.15 17.32,-14.85 16.52,-20.6 q -0.29,-2.05 -2.31,-1.64 -7.79,1.55 -15.68,1.89 -2.67,0.12 -4.46,1.23 -4.53,2.8 -7.3,7.39 -0.62,1.04 0.58,0.94 l 3.96,-0.31 a 0.35,0.35 0 0 1 0.36,0.44 z m 47.3543,3.6777 a 1.93,0.86 87.2 0 0 0.7647,-1.9697 1.93,0.86 87.2 0 0 -0.9533,-1.8857 1.93,0.86 87.2 0 0 -0.7647,1.9697 1.93,0.86 87.2 0 0 0.9533,1.8857 z M 392.17,77.9 q 1,-3.49 -1.89,-5.43 -1.51,-1.01 -1.09,0.76 0.61,2.56 1.99,4.8 0.65,1.06 0.99,-0.13 z M 81.79,142.03 q 0.02,1.68 -0.98,0.34 -1.06,-1.41 -2.67,-2.3 -2.8,-1.54 -1.06,1.14 c 1.15,1.76 4.5,7.97 6.44,7.61 a 0.68,0.67 -3.4 0 0 0.55,-0.61 q 0.1,-1.26 0.1,-2.55 c -0.01,-1.93 -1.16,-3.2 -1.46,-5.18 a 0.82,0.81 2.1 0 0 -0.64,-0.68 q -0.44,-0.1 -0.97,-0.06 -1.85,0.16 -0.15,0.91 0.82,0.37 0.84,1.38 z m 17.22,37.44 2.97,3.4 q 1.73,1.98 0.48,-0.33 -0.99,-1.83 -2.38,-3.41 a 1.81,1.69 21.4 0 1 -0.41,-0.86 l -0.88,-4.91 a 0.52,0.52 0 0 0 -0.66,-0.4 c -0.97,0.29 -2.34,9.98 1.11,10.05 q 1.16,0.02 0.15,-0.55 -1.61,-0.92 -1.34,-2.71 0.18,-1.18 0.96,-0.28 z"
         inkscape:connector-curvature="0"
         style="fill:#e1e1e1" />
      <path
         id="path17376"
         d="m 131.81,0 105.51,0.01 q -1.79,1.49 -4.1,1.6 -0.48,0.02 -0.94,0.14 -1.44,0.37 -1.26,1.57 a 2.34,2.33 -87.6 0 0 1.75,1.91 l 5.45,1.35 a 1.35,1.35 0 0 1 1.01,1.54 l -0.74,4.22 a 0.76,0.75 -73 0 0 0.43,0.82 q 3.12,1.43 6.56,1.45 0.44,0 0.82,0.2 1.38,0.71 1.05,2 a 1.12,1.09 -5.2 0 1 -0.64,0.75 c -4.44,1.88 -7.15,0.33 -11.19,-0.1 q -1.29,-0.14 -1.65,0.75 a 0.5,0.5 0 0 0 0.29,0.66 c 1.02,0.37 3.48,2.41 2.1,3.44 a 0.78,0.76 42.9 0 1 -0.87,0.02 c -2.14,-1.38 -3.74,-4.04 -6.94,-3.37 q -0.48,0.1 -0.95,-0.06 c -7.51,-2.42 -13.83,0.05 -21.56,0.52 q -3.64,0.22 -7.27,0.6 a 0.49,0.49 0 0 0 -0.43,0.6 c 0.14,0.65 9.2,0.85 10.85,0.85 9.15,0.06 17.91,1.47 26.89,2.28 3,0.27 5.58,1.54 8.58,2.22 q 0.31,0.07 0.54,0.28 l 0.41,0.38 a 0.26,0.24 -17 0 0 0.15,0.07 q 3.09,0.51 6.04,1.58 1.14,0.41 0.2,3.66 a 1.76,1.74 -81.4 0 1 -1.72,1.28 q -8.66,-0.16 -17.46,-0.5 c -6.6,-0.25 -15.89,0.41 -23.91,-0.54 q -3.08,-0.36 -8.74,0.11 a 1.04,1.03 -74.9 0 0 -0.77,0.45 c -2.53,3.64 -12.87,1.1 -16.41,1 q -13.8,-0.38 -17.88,0.53 -4.32,0.97 -8.71,1.36 a 1.81,1.77 54.8 0 1 -0.92,-0.17 q -2.91,-1.42 -5.78,0.17 a 1.26,1.23 -49.2 0 1 -1.05,0.09 l -4.91,-1.77 a 1.35,1.32 42.6 0 0 -0.96,0.03 c -5.75,2.49 -10.68,2.17 -18.13,2.08 a 1.41,1.38 65.2 0 1 -0.87,-0.33 q -2.79,-2.43 -6,-1.58 c -5.13,1.37 -8.68,0.61 -13.5,0.86 a 0.66,0.66 0 0 1 -0.67,-0.47 c -0.26,-0.86 1.66,-3.72 1.7,-5.29 q 3.65,-3.01 3.5,-7.68 a 0.65,0.65 0 0 0 -0.51,-0.62 l -0.7,-0.16 q -1.31,0.04 -2.24,1.07 a 0.53,0.53 0 0 1 -0.79,0 l -1.71,-1.89 a 0.7,0.7 0 0 1 0.15,-1.06 l 1.84,-1.15 q 0.38,-0.24 0.82,-0.32 l 7,-1.18 A 0.52,0.51 -8.5 0 0 113,15.68 l -0.05,-0.34 a 0.56,0.55 84.8 0 0 -0.57,-0.48 q -1.76,0.06 -2.16,-1.61 a 0.56,0.56 0 0 1 0.54,-0.69 h 12.03 a 0.48,0.48 0 0 0 0.47,-0.57 l -0.06,-0.31 a 0.7,0.7 0 0 0 -0.49,-0.54 c -2.43,-0.73 -7.05,-1.3 -8.46,-3.48 a 1.07,1.06 75.9 0 0 -0.78,-0.47 l -5.05,-0.47 a 0.62,0.61 16.4 0 1 -0.49,-0.89 c 0.61,-1.21 6.84,-3.39 8.18,-3.5 q 4.21,-0.34 8.45,-0.19 c 2.77,0.1 4.91,-0.97 7.25,-2.14 z m 102.13,9.2 c -0.98,-3.36 -5.49,-2.07 -7.91,-1.4 q -5.65,1.54 -13.25,1.55 c -3.12,0 -7.9,0.6 -12.04,-0.4 -1.37,-0.34 -1.98,-0.05 -2.97,0.8 a 0.61,0.61 0 0 0 -0.1,0.81 c 0.56,0.81 7.49,0.32 9.71,0.34 q 2.08,0.02 8.35,0.45 c 4.83,0.32 9.91,-0.34 14.66,0.55 1.63,0.31 6.14,1.11 5.69,-0.85 -0.18,-0.77 -0.86,-1.03 -1.54,-1.24 a 0.93,0.92 0.7 0 1 -0.6,-0.61 z"
         inkscape:connector-curvature="0"
         style="fill:#cccccc" />
      <path
         id="path17378"
         d="M 355.56,0 H 450 v 228 h -41.81 c 3.96,-0.53 14.87,1.2 16.17,-3.68 a 0.4,0.4 0 0 0 -0.38,-0.5 q -4.3,-0.09 -7.36,-3.16 a 0.86,0.85 57.3 0 1 0.3,-1.4 q 4.98,-1.88 7.52,-6.58 0.59,-1.1 -0.64,-0.88 -3.71,0.65 -6.78,2.96 a 1.28,1.27 76 0 0 -0.49,0.82 q -0.37,2.63 -2.7,3.91 -0.45,0.25 -0.75,0.67 c -1.02,1.43 -4.21,5.71 -6.04,5.6 a 0.49,0.48 3 0 1 -0.46,-0.5 q 0.13,-3.27 2.72,-4.86 0.39,-0.24 0.64,-0.62 1.28,-1.97 3.21,-3.33 0.42,-0.29 0.68,-0.73 2.68,-4.65 6.31,-8.61 c 0.8,-0.87 0.69,-2.05 1.74,-3.08 q 2.43,-2.38 1.29,-5.84 a 0.32,0.32 0 0 0 -0.53,-0.13 c -0.62,0.58 -3.02,3.19 -3.79,2.62 a 0.5,0.5 0 0 1 -0.03,-0.77 q 4.76,-4.31 6.36,-10.59 0.35,-1.37 -0.84,-0.6 -2.7,1.76 -2.34,4.96 a 0.65,0.65 0 0 1 -0.69,0.72 l -2.65,-0.16 a 0.53,0.52 15.1 0 1 -0.44,-0.76 c 1.2,-2.36 4.75,-6.23 3.57,-8.79 a 0.44,0.44 0 0 0 -0.65,-0.18 q -4.39,2.91 -7.32,7.18 c -3.19,4.65 -6.57,9.11 -9.87,13.67 -0.36,0.5 -1.02,0.57 -1.46,0.21 a 0.53,0.53 0 0 1 -0.08,-0.74 c 1.9,-2.39 4.16,-4.79 4.72,-7.87 a 0.59,0.58 13.4 0 0 -0.41,-0.66 c -0.53,-0.16 -3.29,2.58 -4.62,2.96 q -0.91,0.25 -0.3,-0.47 l 9.14,-10.8 q 0.33,-0.39 -0.12,-0.15 -1.8,0.93 -2.88,2.72 -0.25,0.42 -0.66,0.69 c -0.09,0.06 -6.32,4.91 -6.79,4.4 a 0.5,0.5 0 0 1 0.02,-0.7 l 6.31,-6.14 q 0.74,-0.73 -0.25,-0.42 c -1.71,0.53 -4.6,3.59 -5.61,2.86 l 0.08,-0.25 c 2.66,-3.56 5.57,-7.07 7.81,-10.92 1.7,-2.92 1.59,-5.86 2.52,-9.09 q 0.46,-1.59 1.19,-0.1 l 1.66,3.36 q 0.22,0.46 0.37,-0.03 3.85,-12.59 4.15,-22.48 0.51,-16.5 3.85,-28.83 a 0.79,0.78 25 0 0 -0.32,-0.86 q -3.67,-2.47 -1.92,-6.71 a 1.19,1.17 44.7 0 0 -0.01,-0.92 l -0.23,-0.5 q -0.31,-0.69 -0.69,-0.04 l -0.82,1.43 a 0.44,0.44 0 0 1 -0.74,0.03 c -0.6,-0.84 -0.81,-1.75 -0.35,-2.78 3.08,-6.92 -2.8,-8.38 -2.41,-14.35 a 0.86,0.84 -11.6 0 1 0.48,-0.71 c 4.37,-2.22 3.81,-5.27 2.06,-9.06 a 1.56,1.55 -52.4 0 1 -0.12,-0.94 c 1.46,-7.49 0.01,-14.44 -0.45,-23.04 -0.08,-1.49 -0.7,-2.15 -2.08,-2.39 a 0.62,0.62 0 0 0 -0.7,0.45 l -0.76,2.66 a 0.37,0.37 0 0 1 -0.57,0.19 c -1.45,-1.07 2.19,-7.67 -2.52,-9.48 q -1.02,-0.39 -0.5,0.56 l 1.13,2.09 a 1.04,1.01 -47.9 0 1 0.03,0.91 q -0.6,1.3 -2.02,1.75 a 0.6,0.6 0 0 1 -0.74,-0.35 c -1.02,-2.59 0.37,-6.92 -3.2,-8.1 a 0.35,0.34 -82.6 0 0 -0.45,0.35 c 0.2,3.38 -1.02,6.09 -0.8,9.19 q 0.73,10.11 1.81,20.14 a 0.3,0.29 -80.8 0 1 -0.41,0.3 c -5.94,-2.61 -0.92,-7.54 -2.48,-11.58 -3.18,-8.24 -1.46,-16.08 -8.28,-22.93 -9.8,-9.83 -16.93,-18.96 -24.25,-28.9 a 1.54,1.46 28.2 0 1 -0.29,-0.88 l 0.02,-1.65 a 1.86,1.81 -60.5 0 0 -0.24,-0.91 Q 365.58,8.62 361.3,1.44 360.31,-0.21 358.46,0.28 a 0.62,0.61 -7.7 0 0 -0.47,0.61 q 0.02,0.95 -0.56,1.56 Q 357.06,2.83 357.04,2.3 357,0.58 355.56,0 Z"
         inkscape:connector-curvature="0"
         style="fill:#ffffff" />
      <path
         id="path17380"
         d="m 234.54,9.81 c 0.68,0.21 1.36,0.47 1.54,1.24 0.45,1.96 -4.06,1.16 -5.69,0.85 -4.75,-0.89 -9.83,-0.23 -14.66,-0.55 q -6.27,-0.43 -8.35,-0.45 c -2.22,-0.02 -9.15,0.47 -9.71,-0.34 a 0.61,0.61 0 0 1 0.1,-0.81 c 0.99,-0.85 1.6,-1.14 2.97,-0.8 4.14,1 8.92,0.4 12.04,0.4 q 7.6,-0.01 13.25,-1.55 c 2.42,-0.67 6.93,-1.96 7.91,1.4 a 0.93,0.92 0.7 0 0 0.6,0.61 z"
         inkscape:connector-curvature="0"
         style="fill:#e1e1e1" />
      <ellipse
         id="ellipse17382"
         ry="0.81"
         rx="2.1600001"
         transform="rotate(-42.3,62.073318,-105.37403)"
         cy="0"
         cx="0"
         style="fill:#ffffff" />
      <path
         id="path17384"
         d="m 78,18.04 q 0.26,9.12 -1.05,18.12 c -1.06,7.26 -4.08,11.46 -9.94,15.33 q -2.6,-4.81 -0.74,-9.2 3.3,-7.83 2.17,-14.62 A 0.87,0.87 0 0 0 67.85,26.99 L 66.38,26.5 a 0.76,0.75 -68.7 0 0 -0.92,0.41 q -3.16,6.86 -4.45,16.35 -4.47,33.05 4.28,63.61 0.95,3.29 2.73,5.31 a 1.42,1.42 0 0 0 2.19,-0.08 q 4.59,-6.03 3.77,-12.27 C 73.28,94.41 72.63,82.14 76.21,77.7 81.63,70.96 88.83,61.77 98.25,58.21 107.82,58.09 115.7,57 120.7,64.66 a 0.61,0.61 0 0 0 0.88,0.15 l 1.16,-0.85 a 0.6,0.6 0 0 1 0.89,0.21 l 0.66,1.34 a 0.59,0.58 56.1 0 0 0.9,0.18 l 3.02,-2.58 a 0.76,0.75 61.8 0 1 1.22,0.37 c 0.7,2.47 -1.05,5.97 -0.88,9.48 0.21,4.43 4.47,10.95 6.44,15.02 q 0.29,0.59 0.64,0.03 2.74,-4.33 5.15,-8.78 c 1.41,-2.6 0.98,-4.8 0.98,-7.63 a 1.15,1.13 -22 0 1 0.36,-0.83 q 0.48,-0.44 0.91,-1.26 2.35,-4.48 7.33,-6.72 a 0.54,0.54 0 0 1 0.76,0.45 l 0.18,2.03 a 0.52,0.52 0 0 0 0.48,0.47 l 0.7,0.04 a 0.55,0.55 0 0 1 0.47,0.75 c -0.75,1.86 -1.7,3.25 -1.7,5.33 q -0.02,6.89 0.02,13.77 c 0.02,3.66 0.9,8.02 0.75,12.17 -0.08,2.06 0.85,3.63 1.01,5.72 0.27,3.6 1.29,5.97 1.97,9.19 q -3.07,5.16 -8.43,8.14 a 0.5,0.49 61.2 0 1 -0.68,-0.2 c -3.34,-6.25 -2.26,-13.2 -3.56,-19.9 -0.82,-4.26 -0.48,-7.98 -0.72,-12.11 q -0.05,-0.78 -0.44,-0.1 l -3.37,5.78 a 1.41,1.38 53.7 0 0 -0.15,1.05 q 1.01,3.94 3.75,6.86 a 1.02,1.01 29 0 1 0.26,0.89 c -0.51,2.46 -6.36,7.17 -8.08,8.43 a 0.62,0.62 0 0 1 -0.81,-0.06 l -2.27,-2.28 q -0.51,-0.96 -1.44,-1.28 -0.53,-0.18 -0.28,0.32 l 0.76,1.5 q -2.87,8.32 -10.74,12.99 -1.28,0.76 -1.29,-0.73 -0.03,-11 0,-22.82 c 0,-1.51 0.78,-3.25 0.6,-4.94 q -0.06,-0.52 -0.28,-0.05 -6.2,13.19 -16.73,23.02 c -5.82,5.44 -11.87,6.69 -18.31,1.53 Q 79,115.39 76.67,110.6 a 0.3,0.3 0 0 0 -0.51,-0.05 c -4.4,5.98 -16.08,20.14 -20.54,4.12 Q 48.5,89.13 50.51,60.75 C 51.62,45.04 54.69,29.44 67.85,19.83 Q 72.38,16.52 78,18.04 Z m 34.43,59.89 C 111.78,67.03 98.32,66.32 90.7,67.58 q -3.04,0.51 -3.07,3.59 -0.1,10.26 -2.18,19.89 c -1.75,8.1 2.73,19.16 12.08,20.03 a 1.36,1.34 -18.9 0 1 0.83,0.4 c 2.02,2.1 3.88,1.01 5.3,-1.09 q 9.83,-14.51 8.77,-32.47 z M 127.61,104 q 0.83,-1.16 -0.04,-2.31 -0.82,-1.1 -0.82,0.27 v 1.77 q 0,1.47 0.86,0.27 z"
         inkscape:connector-curvature="0"
         style="fill:#0b0b0b" />
      <path
         id="path17386"
         d="m 107.5,20.79 0.7,0.16 a 0.65,0.65 0 0 1 0.51,0.62 q 0.15,4.67 -3.5,7.68 l -6.76,6.7 a 1.7,1.69 -17.6 0 0 -0.49,0.94 q -0.75,4.54 -5.69,3.26 a 0.81,0.81 0 0 1 -0.4,-1.32 q 7.17,-8.02 13.17,-16.05 0.97,-1.29 2.46,-1.99 z"
         inkscape:connector-curvature="0"
         style="fill:#ffffff" />
      <path
         id="path17388"
         d="m 67.01,51.49 3.52,1.2 q 1.69,0.57 1.4,2.33 c -0.72,4.5 -3.71,4.47 -4.96,7.37 -0.96,2.21 0.64,3.87 1.44,5.73 a 0.63,0.62 -30.5 0 1 -0.2,0.75 l -2.11,1.58 a 1.4,1.39 -13.9 0 0 -0.55,0.9 l -0.18,1.07 a 1,0.99 85.8 0 0 1.28,1.11 q 2.64,-0.84 2.63,-3.52 a 1.33,1.27 66.4 0 1 0.31,-0.85 c 1.73,-2.02 3.3,-3.62 4.57,-6.05 1.32,-2.5 13.85,-22.13 16.21,-21.05 a 0.27,0.27 0 0 1 0.12,0.39 q -0.62,0.94 -0.1,1.54 0.47,0.55 0.7,-0.13 0.85,-2.47 3.65,-1.81 0.6,0.14 0.14,0.55 c -2.81,2.48 -10.58,7.54 -7.33,12.61 a 1.42,1.42 0 0 1 0.22,0.94 q -0.13,1.18 -1.12,2 a 0.52,0.51 -29.5 0 0 -0.16,0.57 l 0.1,0.3 a 0.15,0.15 0 0 0 0.22,0.08 c 4.66,-2.66 8.95,-6.56 13.94,-8.39 q -0.17,2.61 -1.77,4.62 -0.31,0.38 -0.39,0.85 l -0.34,2.03 C 88.83,61.77 81.63,70.96 76.21,77.7 72.63,82.14 73.28,94.41 73.98,99.83 q 0.82,6.24 -3.77,12.27 a 1.42,1.42 0 0 1 -2.19,0.08 q -1.78,-2.02 -2.73,-5.31 -8.75,-30.56 -4.28,-63.61 1.29,-9.49 4.45,-16.35 a 0.76,0.75 -68.7 0 1 0.92,-0.41 l 1.47,0.49 a 0.87,0.87 0 0 1 0.59,0.68 q 1.13,6.79 -2.17,14.62 -1.86,4.39 0.74,9.2 z"
         inkscape:connector-curvature="0"
         style="fill:#ffffff" />
      <path
         id="path17390"
         d="m 232.81,62.2 c -2.36,-5.68 -23.89,1.32 -28.22,3.32 q 0.04,-1.79 -1.51,-1.69 c -1.86,0.12 -3.66,-0.08 -5.51,-0.26 a 1.53,1.52 68.5 0 1 -0.86,-0.38 q -1.37,-1.25 -3.17,-1.44 1.18,-3.15 -1.15,-4.86 -2.57,-1.87 -5.04,0.12 l -6.06,4.87 -15.48,-0.12 a 0.53,0.53 0 0 0 -0.53,0.51 L 165.21,64 c -0.32,-1.32 0.47,-4.95 -0.42,-5.52 a 0.85,0.84 -43.3 0 0 -0.88,-0.02 c -3.52,2.05 -8.15,5.89 -8.15,10.36 q -0.01,12.8 -0.02,25.61 c -0.01,2.38 -1.11,3.75 -2.43,5.53 q -0.52,0.71 0.35,0.56 l 1.44,-0.26 a 0.48,0.48 0 0 1 0.56,0.48 l -0.16,11.97 H 155 c -0.68,-3.22 -1.7,-5.59 -1.97,-9.19 -0.16,-2.09 -1.09,-3.66 -1.01,-5.72 0.15,-4.15 -0.73,-8.51 -0.75,-12.17 q -0.04,-6.88 -0.02,-13.77 c 0,-2.08 0.95,-3.47 1.7,-5.33 a 0.55,0.55 0 0 0 -0.47,-0.75 l -0.7,-0.04 a 0.52,0.52 0 0 1 -0.48,-0.47 l -0.18,-2.03 a 0.54,0.54 0 0 0 -0.76,-0.45 q -4.98,2.24 -7.33,6.72 -0.43,0.82 -0.91,1.26 a 1.15,1.13 -22 0 0 -0.36,0.83 c 0,2.83 0.43,5.03 -0.98,7.63 q -2.41,4.45 -5.15,8.78 -0.35,0.56 -0.64,-0.03 c -1.97,-4.07 -6.23,-10.59 -6.44,-15.02 -0.17,-3.51 1.58,-7.01 0.88,-9.48 a 0.76,0.75 61.8 0 0 -1.22,-0.37 l -3.02,2.58 a 0.59,0.58 56.1 0 1 -0.9,-0.18 l -0.66,-1.34 a 0.6,0.6 0 0 0 -0.89,-0.21 l -1.16,0.85 A 0.61,0.61 0 0 1 120.7,64.66 C 115.7,57 107.82,58.09 98.25,58.21 l 0.34,-2.03 q 0.08,-0.47 0.39,-0.85 1.6,-2.01 1.77,-4.62 l 4.64,-3.68 a 1.42,1.39 77.6 0 0 0.48,-0.77 c 0.46,-1.91 3.07,-1.11 3.6,-3.48 a 0.62,0.62 0 0 1 0.59,-0.48 q 5.19,-0.04 10.32,-0.5 c 3.99,-0.35 8.47,0.54 13.1,-1.89 q 0.44,-0.24 0.95,-0.22 3.73,0.11 7.02,-1.56 a 1.45,1.44 39.6 0 1 1.06,-0.1 l 4.2,1.22 a 1.8,1.74 44 0 0 1.01,0 q 3.14,-0.94 5.37,1.33 A 0.88,0.87 58.1 0 0 154,40.8 c 6.89,-2.32 12.31,0.19 18.99,-1.08 5.99,-1.15 12.4,-0.88 18.49,-1.02 7.08,-0.16 14.68,0.52 22.05,0.67 6.59,0.13 13.33,2.37 19.93,3.07 a 4.25,4.18 -53.6 0 0 2.12,-0.34 q 1.01,-0.46 2.17,-0.35 1.19,0.11 0.13,0.65 -1.57,0.79 -1.55,2.35 a 1.07,1.06 -73 0 0 0.45,0.85 q 1.88,1.36 3.37,-0.45 a 1.11,1.08 -69.1 0 1 0.86,-0.4 c 4.94,0.09 7.63,3.16 1.17,5.31 -5,1.67 -2.9,4.5 -5.73,7.18 a 0.74,0.73 -36.9 0 0 -0.13,0.9 l 0.5,0.89 a 0.33,0.33 0 0 1 -0.19,0.48 q -2.39,0.75 -3.82,2.69 z"
         inkscape:connector-curvature="0"
         style="fill:#cccccc" />
      <path
         id="path17392"
         d="m 301.79,110 q 1.85,-2.17 2.8,-4.79 0.33,-0.9 -0.19,-0.09 l -2.9,4.59 q -3.89,4.11 -8.18,7.91 -3.47,3.07 -6.13,-0.43 a 1.7,1.69 25.3 0 1 -0.35,-0.97 q -0.67,-17.63 3.65,-34.74 0.35,-1.4 -0.5,-0.24 L 275,101.77 a 1.58,1.53 57.7 0 0 -0.26,1.23 q 1.28,5.92 6.97,4.6 0.72,-0.17 0.37,0.48 -2.77,5.14 -7.67,8.14 c -2.97,1.82 -5.39,1.07 -7.9,-0.87 a 0.53,0.53 0 0 0 -0.72,0.07 q -2.66,2.97 -6.18,4.78 -1.05,0.54 -0.7,-0.59 l 0.59,-1.87 q 0.18,-0.56 -0.28,-0.2 c -2.52,1.99 -7.37,8.67 -10.73,5.11 q -0.99,-1.05 -0.99,-3.09 c -0.01,-9.84 -1.01,-21.21 0.89,-30.79 q 0.14,-0.7 -0.49,-0.37 l -6.3,3.24 a 1.12,1.11 76.4 0 0 -0.6,0.99 v 18.5 a 0.58,0.57 -11.6 0 0 0.8,0.52 l 1.7,-0.75 a 1.19,1.16 -44.3 0 1 0.93,0 l 0.34,0.15 a 0.44,0.44 0 0 1 0.19,0.64 q -3.95,5.92 -9.56,10.35 -3.06,2.42 -3.69,-1.43 -0.47,-2.88 -0.42,-6.86 c 0.2,-13.88 -0.24,-27.39 2.58,-41.55 0.98,-4.88 4.84,-8.18 9.07,-10.23 q 0.45,-0.23 0.4,0.28 c -0.82,6.99 -2.7,14.95 -2.31,21.86 a 0.53,0.52 82 0 0 0.63,0.48 l 6.22,-1.36 a 0.91,0.9 -1.5 0 0 0.71,-0.74 c 1.77,-10.24 1.61,-17.92 12.01,-22.96 q 2.41,-1.16 2.73,1.49 c 0.64,5.19 -0.25,8.9 -3.13,13.69 -5.16,8.59 -3.77,24.84 -3.07,38.25 q 0.03,0.6 0.34,0.08 2.36,-3.89 6.48,-5.94 a 0.82,0.79 78.3 0 0 0.44,-0.69 q 0.45,-14.31 -0.17,-21.67 -0.89,-10.61 8.92,-15.1 a 0.43,0.43 0 0 1 0.61,0.39 v 27.2 q 0,0.61 0.37,0.12 10.85,-14.07 20.66,-28.84 2.62,-3.96 7.08,-5.78 2.29,-0.93 1.2,1.28 c -5.46,11.14 -6.57,26.1 -6.83,39.49 q -0.06,3.29 0.25,4.83 0.1,0.52 0.35,0.05 c 3.17,-6.22 6.49,-14.25 5.93,-21.33 -0.95,-11.85 6.19,-21.33 16.04,-26.95 q 3.99,-2.28 7.98,-4.61 c 3.45,-2.03 15.69,-5.47 17.84,-0.46 a 1,0.98 -41.8 0 1 -0.06,0.9 c -2.9,4.78 -5.22,5.3 -8.15,8.49 a 0.58,0.58 0 0 1 -0.91,-0.07 l -1.26,-1.86 a 1.07,1.06 -13.1 0 0 -0.76,-0.47 q -11.46,-1.36 -19.43,6.27 -2.47,2.36 -1.71,6.02 a 0.45,0.44 -15 0 0 0.58,0.33 L 314,74.27 a 0.54,0.54 0 0 1 0.71,0.48 l 0.12,2.23 q 0.11,2.08 2.19,1.86 10.3,-1.08 20.28,-3.83 a 0.82,0.81 59.5 0 1 0.8,0.21 l 0.21,0.21 a 0.55,0.55 0 0 1 0.05,0.73 q -4.55,5.91 -10.89,9.66 c -4,2.37 -6.39,5.2 -9.42,8.35 a 0.93,0.9 61.3 0 0 -0.23,0.84 c 1.17,4.92 1.56,11.49 -2.77,15.02 q -0.84,0.68 0.25,0.69 c 4.25,0.05 8.36,0.27 12.53,-0.61 q 5.57,-1.19 10.93,-2.66 1.16,-0.32 0.55,0.72 c -5.06,8.64 -12.58,9.86 -21.6,11.31 q -8.03,1.29 -16.04,-0.43 -3.14,-0.67 -2.44,-3.81 0.49,-2.18 2.56,-5.24 z m 15.22,-19.33 a 0.4,0.4 0 0 0 0.65,0.1 l 3.79,-3.98 a 0.4,0.4 0 0 0 -0.39,-0.67 l -5.13,1.42 a 0.4,0.4 0 0 0 -0.25,0.57 z"
         inkscape:connector-curvature="0"
         style="fill:#0b0b0b" />
      <path
         id="path17394"
         d="m 193.54,61.75 q 0.23,11.4 -7,20.06 a 1.88,1.87 -22.9 0 0 -0.42,1.03 q -0.67,7.31 -0.3,14.66 0.07,1.33 0.39,0.04 2.05,-8.17 4.36,-16.27 c 2.17,-7.6 7.26,-11.72 14.02,-15.75 4.33,-2 25.86,-9 28.22,-3.32 q -3.62,5.07 -8.34,9.19 a 0.6,0.59 -39.2 0 1 -0.86,-0.08 l -1.06,-1.4 a 1.1,1.08 -17.6 0 0 -0.82,-0.42 q -9.77,-0.24 -19.01,2.85 a 0.71,0.69 -13.8 0 0 -0.47,0.75 l 1.28,8.89 a 0.56,0.56 0 0 0 0.74,0.45 q 11.48,-3.92 23.54,-4.77 1.65,-0.11 0.89,1.36 -2.64,5.07 -7.4,8.29 a 1.49,1.48 31.2 0 1 -0.99,0.24 q -7.12,-0.87 -13.99,1.26 a 1.23,1.23 0 0 0 -0.86,1.17 l -0.14,19.08 a 0.55,0.55 0 0 0 0.53,0.56 c 7.36,0.31 13.31,2.23 20.69,0.13 q 1.89,-0.54 1.17,1.28 c -1.5,3.79 -4.93,5.28 -7.64,7.91 a 1.11,1.07 24.5 0 1 -0.85,0.3 c -3,-0.25 -5.56,0.91 -8.29,0.69 q -7.14,-0.58 -15.1,-1.12 -2.16,-0.15 -3.64,-1.73 c -1.14,-1.2 -0.84,-2.74 -0.19,-4.32 q 1.47,-3.62 1.23,-7.61 a 0.13,0.12 9.7 0 0 -0.09,-0.12 c -0.17,-0.07 -0.28,-0.06 -0.34,0.14 q -2.85,10.48 -12.37,15.7 a 0.81,0.8 48.3 0 1 -0.85,-0.05 q -2.96,-2.17 -3,-4.39 c -0.12,-6.07 -0.33,-11.83 -0.07,-18.08 q 0.11,-2.91 -0.27,-5.82 a 0.31,0.31 0 0 0 -0.46,-0.23 l -10.11,5.51 a 0.88,0.87 -14.4 0 0 -0.46,0.77 l -0.09,12.34 a 0.68,0.67 -84.2 0 0 0.53,0.66 l 1.2,0.25 a 0.88,0.87 -70.4 0 1 0.6,1.27 q -3,5.68 -8.72,8.69 a 1.56,1.56 0 0 1 -2.13,-0.69 c -1.43,-2.9 -0.22,-5.55 -1.1,-8.39 l 0.16,-11.97 a 0.48,0.48 0 0 0 -0.56,-0.48 l -1.44,0.26 q -0.87,0.15 -0.35,-0.56 c 1.32,-1.78 2.42,-3.15 2.43,-5.53 q 0.01,-12.81 0.02,-25.61 c 0,-4.47 4.63,-8.31 8.15,-10.36 a 0.85,0.84 -43.3 0 1 0.88,0.02 c 0.89,0.57 0.1,4.2 0.42,5.52 l 0.08,8.5 v 6.25 l 0.01,11.87 a 0.46,0.46 0 0 0 0.62,0.43 l 9.84,-3.72 a 0.87,0.86 80.9 0 0 0.56,-0.78 L 176.54,79 q 0.87,-2.69 0.67,-5.5 0.49,-5.98 4.08,-11.62 l 6.06,-4.87 q 2.47,-1.99 5.04,-0.12 2.33,1.71 1.15,4.86 z"
         inkscape:connector-curvature="0"
         style="fill:#0b0b0b" />
      <path
         id="path17396"
         d="m 366.65,70.21 -3.96,0.31 q -1.2,0.1 -0.58,-0.94 2.77,-4.59 7.3,-7.39 1.79,-1.11 4.46,-1.23 7.89,-0.34 15.68,-1.89 2.02,-0.41 2.31,1.64 c 0.8,5.75 -12.1,17.45 -16.52,20.6 q -0.72,0.52 -1.59,2.47 -0.2,0.47 0.3,0.37 10.23,-2.05 16.97,-1.41 c 10.02,0.97 10.81,15.25 10.12,22.83 -0.91,9.92 -15.91,20.57 -24.91,22.39 -10.74,2.17 -20.79,2.13 -29.13,-5.18 a 0.72,0.71 35.9 0 1 -0.15,-0.89 q 3.09,-5.42 8.64,-8.39 a 0.83,0.82 52.1 0 1 0.94,0.12 c 5.8,5.28 12.14,6.83 19.77,5.88 5.19,-0.64 9.65,-0.54 14.35,-3.14 a 1.87,1.85 78.2 0 0 0.96,-1.49 c 0.61,-6.98 0.54,-18.3 -6.78,-21.94 -2.89,-1.44 -7,-0.93 -10.38,-0.89 a 0.55,0.55 0 0 0 -0.55,0.54 l -0.21,12.2 a 1.75,1.73 31.1 0 0 0.23,0.9 c 1.86,3.33 -4.67,8.41 -6.77,9.79 q -2.28,1.5 -2.93,-1.16 c -1.36,-5.6 0.16,-13.71 0.42,-19.59 a 0.37,0.37 0 0 0 -0.46,-0.37 c -1.59,0.42 -11.22,3.98 -11.77,2.93 a 0.94,0.93 -41.7 0 1 0.06,-0.95 q 4.4,-6.39 11.46,-9.73 1.68,-0.79 1.6,-2.66 -0.29,-6.77 1.48,-13.29 a 0.35,0.35 0 0 0 -0.36,-0.44 z m 8.3,0.59 -0.26,6.54 a 0.43,0.43 0 0 0 0.63,0.4 q 4.99,-2.53 7.1,-7.67 a 1,0.99 -72.3 0 0 -0.69,-1.35 q -3.36,-0.77 -6.18,1.02 a 1.3,1.3 0 0 0 -0.6,1.06 z"
         inkscape:connector-curvature="0"
         style="fill:#0b0b0b" />
      <path
         id="path17398"
         d="m 181.29,61.88 q -3.59,5.64 -4.08,11.62 l -0.18,0.36 a 0.66,0.65 17.4 0 1 -0.68,0.35 l -11.06,-1.71 -0.08,-8.5 0.07,-1.73 a 0.53,0.53 0 0 1 0.53,-0.51 z"
         inkscape:connector-curvature="0"
         style="fill:#e1e1e1" />
      <path
         id="path17400"
         d="m 193.54,61.75 q 1.8,0.19 3.17,1.44 a 1.53,1.52 68.5 0 0 0.86,0.38 c 1.85,0.18 3.65,0.38 5.51,0.26 q 1.55,-0.1 1.51,1.69 c -6.76,4.03 -11.85,8.15 -14.02,15.75 q -2.31,8.1 -4.36,16.27 -0.32,1.29 -0.39,-0.04 -0.37,-7.35 0.3,-14.66 a 1.88,1.87 -22.9 0 1 0.42,-1.03 q 7.23,-8.66 7,-20.06 z"
         inkscape:connector-curvature="0"
         style="fill:#e1e1e1" />
      <path
         id="path17402"
         d="m 90.7,67.58 c 7.62,-1.26 21.08,-0.55 21.73,10.35 q 1.06,17.96 -8.77,32.47 c -1.42,2.1 -3.28,3.19 -5.3,1.09 a 1.36,1.34 -18.9 0 0 -0.83,-0.4 C 88.18,110.22 83.7,99.16 85.45,91.06 q 2.08,-9.63 2.18,-19.89 0.03,-3.08 3.07,-3.59 z"
         inkscape:connector-curvature="0"
         style="fill:#e1e1e1" />
      <path
         id="path17404"
         d="m 375.55,69.74 q 2.82,-1.79 6.18,-1.02 a 1,0.99 -72.3 0 1 0.69,1.35 q -2.11,5.14 -7.1,7.67 a 0.43,0.43 0 0 1 -0.63,-0.4 l 0.26,-6.54 a 1.3,1.3 0 0 1 0.6,-1.06 z"
         inkscape:connector-curvature="0"
         style="fill:#e1e1e1" />
      <ellipse
         id="ellipse17406"
         ry="0.86000001"
         rx="1.9299999"
         transform="rotate(87.2,169.12126,253.71318)"
         cy="0"
         cx="0"
         style="fill:#ffffff" />
      <path
         id="path17408"
         d="m 165.29,72.5 11.06,1.71 a 0.66,0.65 17.4 0 0 0.68,-0.35 l 0.18,-0.36 q 0.2,2.81 -0.67,5.5 l -0.02,-0.12 a 0.18,0.18 0 0 0 -0.15,-0.15 q -5.55,-0.86 -11.08,0.02 z"
         inkscape:connector-curvature="0"
         style="fill:#cccccc" />
      <path
         id="path17410"
         d="m 392.17,77.9 q -0.34,1.19 -0.99,0.13 -1.38,-2.24 -1.99,-4.8 -0.42,-1.77 1.09,-0.76 2.89,1.94 1.89,5.43 z"
         inkscape:connector-curvature="0"
         style="fill:#ffffff" />
      <path
         id="path17412"
         d="m 176.54,79 -0.22,7.55 a 0.87,0.86 80.9 0 1 -0.56,0.78 l -9.84,3.72 a 0.46,0.46 0 0 1 -0.62,-0.43 l -0.01,-11.87 q 5.53,-0.88 11.08,-0.02 a 0.18,0.18 0 0 1 0.15,0.15 z"
         inkscape:connector-curvature="0"
         style="fill:#e1e1e1" />
      <path
         id="path17414"
         d="m 317.01,90.67 -1.33,-2.56 a 0.4,0.4 0 0 1 0.25,-0.57 l 5.13,-1.42 a 0.4,0.4 0 0 1 0.39,0.67 l -3.79,3.98 a 0.4,0.4 0 0 1 -0.65,-0.1 z"
         inkscape:connector-curvature="0"
         style="fill:#e1e1e1" />
      <path
         id="path17416"
         d="m 127.61,104 q -0.86,1.2 -0.86,-0.27 v -1.77 q 0,-1.37 0.82,-0.27 0.87,1.15 0.04,2.31 z"
         inkscape:connector-curvature="0"
         style="fill:#cccccc" />
      <path
         id="path17418"
         d="m 301.79,110 -0.29,-0.29 2.9,-4.59 q 0.52,-0.81 0.19,0.09 -0.95,2.62 -2.8,4.79 z"
         inkscape:connector-curvature="0"
         style="fill:#cccccc" />
      <path
         id="path17420"
         d="m 130.5,109.21 -0.96,0.54 -0.76,-1.5 q -0.25,-0.5 0.28,-0.32 0.93,0.32 1.44,1.28 z"
         inkscape:connector-curvature="0"
         style="fill:#cccccc" />
      <path
         id="path17422"
         d="m 401.04,191 -0.08,0.25 q -1.65,1.52 -1.15,3.46 a 0.79,0.78 -27.7 0 1 -0.25,0.79 c -2.54,2.2 -2.82,5.69 -5.88,9.14 a 1,1 0 0 0 -0.22,0.89 l 0.71,2.96 q 0.32,1.32 1.22,0.3 c 1.45,-1.65 2.77,-4.51 5.25,-4.29 a 1.3,1.29 -73.9 0 1 1.04,1.89 q -2.44,4.73 -7.39,6.64 -0.62,0.24 -0.9,1.26 a 0.47,0.46 12.1 0 0 0.38,0.58 c 1.39,0.23 5.29,-0.84 5.83,-0.62 q 0.52,0.22 0.04,0.51 -2.35,1.42 -5.01,1.65 c -4.19,0.36 -9.91,2.82 -11.45,7.07 a 0.39,0.39 0 0 0 0.34,0.52 c 0.58,0.05 6.71,-0.4 6.77,-0.25 a 0.46,0.46 0 0 1 -0.33,0.62 l -7.11,1.46 a 0.19,0.17 14.9 0 0 -0.1,0.05 l -0.19,0.17 q -0.22,0.2 0.07,0.28 3.84,1.08 7.72,0.2 a 0.66,0.66 0 0 1 0.79,0.78 c -0.15,0.7 -3.74,0.36 -4.95,0.69 H 245.44 q -7.13,-0.63 -14.25,0 h -3 l -0.53,-0.29 a 0.55,0.54 29.6 0 1 -0.21,-0.75 l 0.52,-0.88 a 0.72,0.71 32.4 0 0 -0.22,-0.96 l -1.78,-1.22 a 0.88,0.86 -72.1 0 1 -0.38,-0.76 c 0.06,-1.44 6.06,-1.27 7.28,-1.65 q 0.69,-0.22 0.09,-0.62 -1.39,-0.92 -0.99,-2.66 0.56,-2.41 -1.82,-1.74 -2.44,0.7 -4.83,-0.17 a 0.42,0.42 0 0 1 -0.2,-0.64 q 1.89,-2.62 2.63,-5.62 l 14.98,-0.03 q 1.77,-0.01 3.28,-0.94 4.51,-2.79 7.18,-7.35 0.58,-1 -0.57,-0.99 c -9.29,0.06 -21.57,1.23 -30.48,-0.64 a 0.53,0.53 0 0 1 -0.38,-0.72 l 0.48,-1.15 a 1.39,1.38 46.3 0 0 0.02,-0.99 q -3.28,-8.87 -4.67,-18.21 a 0.5,0.5 0 0 1 0.43,-0.57 q 9.01,-1.15 18.12,-1.19 c 4.75,-0.02 8.91,-4.86 11.11,-8.64 a 0.34,0.34 0 0 0 -0.24,-0.51 c -6.22,-0.99 -12.66,0.3 -18.11,0.81 q -5.87,0.54 -11.49,2.51 a 0.49,0.48 -10.3 0 1 -0.65,-0.44 l -0.32,-7.88 a 0.78,0.77 81.9 0 1 0.59,-0.79 q 7.64,-1.83 15.45,-2.14 c 4.63,-0.18 10.07,-1 15.18,-0.69 a 0.56,0.56 0 0 1 0.52,0.43 l 0.27,1.02 a 0.44,0.43 62.3 0 0 0.7,0.22 l 5.31,-4.41 2.83,2.74 a 0.97,0.96 -28.8 0 0 0.88,0.25 c 3.83,-0.82 6.44,-1.25 10.77,-0.86 q 5.68,0.51 11.09,-1.77 a 1.87,1.82 37.1 0 1 0.96,-0.12 c 5.18,0.78 9.05,-5.5 12.96,-8.24 3.5,-2.44 7.4,-7.36 10.26,-10.46 q 0.53,-0.58 -0.26,-0.52 -2.68,0.17 -4.53,2.05 a 0.78,0.76 -34.5 0 0 -0.16,0.81 l 0.29,0.74 a 0.72,0.71 68.3 0 1 -0.4,0.94 q -4.5,1.77 -9.26,1.14 a 1.74,1.67 -52.2 0 0 -0.95,0.14 q -6.89,3.19 -14.56,2.21 a 0.56,0.55 4.2 0 0 -0.63,0.54 l -0.01,0.99 a 0.72,0.71 84.4 0 1 -0.56,0.69 l -6.53,1.4 a 0.73,0.73 0 0 0 -0.57,0.63 l -0.1,0.92 a 0.31,0.3 -73.3 0 1 -0.44,0.24 q -3.17,-1.62 -6.78,-1.44 a 0.64,0.63 -85.3 0 0 -0.59,0.51 l -0.38,1.97 q -0.03,-2.07 -1.54,-2 -11.1,0.48 -22.21,0.96 3.29,-0.78 6.68,-0.96 c 4.65,-0.24 6.99,-2.72 11.25,-3.52 q 2.15,-0.41 6.03,-1.46 16.23,-4.43 38.03,-7.08 c 2.6,-0.31 5.8,-1.72 8.91,-1.65 a 1.22,1.22 0 0 0 0.85,-0.32 l 5.57,-5.16 q 1.66,-1.54 0.63,0.47 l -0.9,1.77 a 0.43,0.43 0 0 0 0.29,0.61 c 2.66,0.61 2.82,-3.03 5.27,-1.02 a 0.81,0.78 -31.1 0 0 0.69,0.16 l 4.19,-1.08 q 1.32,-0.34 0.28,0.54 l -1.93,1.62 a 0.85,0.85 0 0 0 -0.21,1.03 c 0.91,1.84 4.49,-1.17 5.01,0.16 a 0.39,0.38 67.2 0 1 -0.19,0.48 q -3.17,1.6 -6.63,0.75 a 0.61,0.61 0 0 0 -0.75,0.5 l -0.12,0.84 a 0.68,0.67 5.3 0 1 -0.69,0.57 c -6.72,-0.18 -9.3,4.59 -15.53,6.42 -6.22,1.82 -1.06,6.23 -4.77,9.33 a 0.35,0.35 0 0 0 0.07,0.58 c 1.62,0.84 10.98,-1.41 13.27,-1.84 3.96,-0.76 6.68,-2.09 9.6,-5.16 q 8.2,-8.67 12.69,-14.67 1.63,-2.19 3.26,-3.09 a 0.9,0.88 -44.4 0 1 0.85,0 l 4.37,2.39 a 0.67,0.66 38.2 0 1 0.13,1.08 l -5.36,4.79 a 0.17,0.17 0 0 0 0.03,0.28 l 0.26,0.14 a 0.38,0.38 0 0 0 0.44,-0.03 l 1.89,-1.52 q 0.53,-0.42 0.51,0.25 l -0.01,0.35 a 0.13,0.12 -20.8 0 1 -0.05,0.1 q -2.18,1.58 -3.74,3.76 -0.91,1.28 0.34,0.33 3.33,-2.52 6.64,-4.98 c 1.75,-1.31 4.63,-2.5 6.49,-4.63 a 1.87,1.75 9.6 0 1 0.8,-0.53 c 1.88,-0.62 6.24,-1.64 7.18,0.5 a 0.92,0.9 54.1 0 1 -0.15,0.99 l -1.89,2.16 q -0.31,0.35 -0.45,0.8 -0.67,2.11 -2.61,3.42 a 0.82,0.81 -22.2 0 0 -0.35,0.83 l 0.28,1.55 a 0.78,0.77 -4.8 0 0 0.77,0.64 q 2.33,-0.02 4.64,0 c 1.78,0.02 3.66,-1.05 5.71,-0.51 q 0.7,0.18 0.16,0.65 -2.16,1.91 -4.99,1.09 -1.77,-0.51 -1.29,1.27 l 0.14,0.54 a 0.76,0.75 -9.3 0 0 0.78,0.55 l 5.83,-0.37 a 1.26,1.25 -21.9 0 1 1.01,0.43 l 4.02,4.73 q 0.67,0.78 1.61,1.21 1.99,0.92 1.59,3.46 a 1.18,1.18 0 0 0 0.18,0.83 q 1.18,1.79 0.62,3.86 a 0.76,0.74 -82.4 0 1 -0.72,0.56 l -0.53,0.01 a 1.17,1.12 17.1 0 0 -0.9,0.45 l -4.69,6.2 q -0.82,1.08 0.51,0.83 2.83,-0.51 3.73,-3.12 a 0.59,0.59 0 0 1 0.78,-0.36 l 2.84,1.12 a 0.56,0.56 0 0 1 0.18,0.93 l -2.38,2.28 q -0.9,0.86 0.33,0.65 l 1.68,-0.29 a 1.09,1.07 59.2 0 1 0.88,0.23 q 2.29,1.85 4.61,-0.13 a 1.71,1.67 -67.1 0 1 0.91,-0.38 l 4.52,-0.45 a 0.73,0.73 0 0 1 0.75,0.99 c -1.12,2.83 -2.72,10.94 2.47,10.89 2.5,-0.02 8.14,-4.58 9.18,0.33 a 0.92,0.91 -27.2 0 1 -0.28,0.85 l -3.95,3.65 q -0.37,0.34 -0.54,0.81 c -0.91,2.54 -6.75,6.41 -9.82,10.05 q -0.33,0.38 0.18,0.33 c 5.97,-0.64 8.77,-4.2 13.08,-7.3 2.72,-1.97 5.35,-1.36 6.95,1.43 z m -135.12,-5.2 q 4.65,0.98 9.3,-0.58 1.05,-0.35 2.44,-2.29 0.3,-0.41 -0.17,-0.22 -4.8,1.98 -9.91,1.54 -0.93,-0.08 -1.84,1.03 a 0.32,0.32 0 0 0 0.18,0.52 z"
         inkscape:connector-curvature="0"
         style="fill:#cccccc" />
      <path
         id="path17424"
         d="m 234.04,151.21 q 11.11,-0.48 22.21,-0.96 1.51,-0.07 1.54,2 -1.2,2.59 -3.33,4.5 l -5.31,4.41 a 0.44,0.43 62.3 0 1 -0.7,-0.22 l -0.27,-1.02 a 0.56,0.56 0 0 0 -0.52,-0.43 c -5.11,-0.31 -10.55,0.51 -15.18,0.69 q -7.81,0.31 -15.45,2.14 a 0.78,0.77 81.9 0 0 -0.59,0.79 l 0.32,7.88 a 0.49,0.48 -10.3 0 0 0.65,0.44 q 5.62,-1.97 11.49,-2.51 c 5.45,-0.51 11.89,-1.8 18.11,-0.81 a 0.34,0.34 0 0 1 0.24,0.51 c -2.2,3.78 -6.36,8.62 -11.11,8.64 q -9.11,0.04 -18.12,1.19 a 0.5,0.5 0 0 0 -0.43,0.57 q 1.39,9.34 4.67,18.21 a 1.39,1.38 46.3 0 1 -0.02,0.99 l -0.48,1.15 a 0.53,0.53 0 0 0 0.38,0.72 c 8.91,1.87 21.19,0.7 30.48,0.64 q 1.15,-0.01 0.57,0.99 -2.67,4.56 -7.18,7.35 -1.51,0.93 -3.28,0.94 l -14.98,0.03 q -9.87,0.12 -19.75,-1.09 a 0.31,0.31 0 0 1 -0.22,-0.48 l 2.76,-4.2 a 3.71,3.71 0 0 0 0.52,-2.84 q -3.67,-16.49 -4.2,-33.4 a 1.38,1.37 -66.5 0 0 -0.35,-0.89 c -1.58,-1.79 -0.22,-3.58 -0.21,-5.19 q 0.02,-2.7 -0.24,-5.48 a 0.63,0.61 1.8 0 0 -0.54,-0.56 q -2.51,-0.33 -6.03,0.02 -14.51,1.48 -28.85,4.48 a 0.73,0.71 -5.3 0 0 -0.57,0.67 q -0.38,9.59 0.58,19.14 0.14,1.45 1.08,0.34 9.09,-10.64 23.56,-10.89 c 3.34,-0.06 6.01,1.44 6.98,4.58 1.99,6.41 4.12,17.07 -1.37,22.91 -4.61,4.92 -9.29,10.09 -16.18,11.62 -5.95,1.31 -15.92,2.65 -21.18,-1.1 a 0.83,0.83 0 0 1 -0.22,-1.11 q 3.11,-5.01 8.3,-7.74 a 1.05,1.04 42.7 0 1 0.9,-0.03 q 7.44,3.37 15.34,1.41 c 2,-0.5 4.82,0.04 6.63,-2 a 1.18,1.16 63.9 0 0 0.29,-0.87 c -0.34,-5.02 0.1,-18.21 -7.28,-18.27 -4.15,-0.03 -14.32,0.82 -15.04,6.45 q -1.22,9.52 -9.14,13.09 a 0.6,0.6 0 0 1 -0.79,-0.28 l -0.37,-0.75 a 0.5,0.5 0 0 0 -0.83,-0.11 q -5.5,6.48 -13.21,8.17 c -7.28,1.6 -20.22,0.68 -28.57,-1.25 q -2.51,-0.59 -0.8,-2.51 c 1.97,-2.2 8.05,-7.07 7.09,-10.02 q -0.16,-0.48 -0.48,-0.08 c -5.15,6.53 -15.08,16.92 -23.66,18.14 q -5.6,0.79 -13.2,-0.88 c -7.47,-3.2 -12.29,-6.08 -12.25,-15.12 Q 76.28,185.95 76.21,178 c 0.05,-8.3 0.37,-17.73 5.13,-24.89 q 5.51,-8.27 14.02,-13.07 c 5.29,-2.99 9.83,-2.4 15.87,-1.97 8.59,0.63 6.8,9.73 5.11,15.17 -1.31,4.23 -5.16,7.35 -8.38,10.34 q -1.74,1.6 -2.32,-0.69 -1.14,-4.42 1.52,-8.93 c 4.75,-8.05 -9.24,-6.77 -13.15,-6.57 -2.98,0.14 -4.64,-0.13 -5.94,3.05 q -1.3,3.18 -1.39,4.49 -1.44,21.3 -0.92,33.57 c 0.37,8.72 13.67,12.59 20.52,12.52 12.05,-0.12 18.02,-12.76 19.47,-22.7 a 0.4,0.4 0 0 0 -0.44,-0.45 l -2.72,0.35 q -1.38,0.17 -0.6,-0.98 l 3.53,-5.2 q 0.28,-0.41 0.32,-0.91 0.4,-4.27 -0.2,-8.52 a 0.43,0.42 76.2 0 0 -0.55,-0.34 l -1.37,0.46 a 0.56,0.55 73.6 0 1 -0.7,-0.39 c -0.85,-3.35 9.14,-9.02 11.73,-9.83 7.33,-2.32 27.12,-8.48 33.9,-5.27 a 1.41,1.41 0 0 1 0.7,0.73 q 1.19,2.77 0.4,5.73 -0.17,0.62 0.43,0.38 c 2.51,-1.01 4.9,-2.26 7.51,-2.83 5.81,-1.29 33.66,-6.96 37.45,-4.09 a 1.15,1.15 0 0 1 0.45,0.87 l 0.22,7.22 a 0.36,0.36 0 0 0 0.47,0.34 q 8.75,-2.7 17.76,-4.38 z m -97.69,8.44 -0.28,7.5 a 0.31,0.3 85.5 0 0 0.36,0.31 l 23.43,-4.82 a 0.53,0.52 85.8 0 0 0.42,-0.49 q 0.18,-3.56 -2.04,-6.43 a 0.87,0.84 -20.7 0 0 -0.75,-0.32 q -10.46,0.99 -20.65,3.64 a 0.66,0.65 84.1 0 0 -0.49,0.61 z m 2.39,30.03 0.03,5.49 a 1.84,1.83 -89.5 0 0 1.79,1.83 c 4.75,0.14 16.55,0.77 20.58,-2.39 a 0.93,0.92 68.5 0 0 0.35,-0.82 q -1.31,-13.97 -0.94,-28.01 0.04,-1.28 -0.78,-0.3 c -2.54,3.06 -5.68,6.48 -9.85,7.07 q -7.02,1.01 -13.99,2.62 a 0.74,0.74 0 0 0 -0.57,0.65 q -0.61,7.02 0.64,13.89 a 0.51,0.51 0 0 0 0.79,0.33 l 1.13,-0.79 q 0.82,-0.57 0.82,0.43 z"
         inkscape:connector-curvature="0"
         style="fill:#0b0b0b" />
      <path
         id="path17426"
         d="m 254.46,156.75 q 2.13,-1.91 3.33,-4.5 l 0.38,-1.97 a 0.64,0.63 -85.3 0 1 0.59,-0.51 q 3.61,-0.18 6.78,1.44 a 0.31,0.3 -73.3 0 0 0.44,-0.24 l 0.1,-0.92 a 0.73,0.73 0 0 1 0.57,-0.63 l 6.53,-1.4 a 0.72,0.71 84.4 0 0 0.56,-0.69 l 0.01,-0.99 a 0.56,0.55 4.2 0 1 0.63,-0.54 q 7.67,0.98 14.56,-2.21 a 1.74,1.67 -52.2 0 1 0.95,-0.14 q 4.76,0.63 9.26,-1.14 a 0.72,0.71 68.3 0 0 0.4,-0.94 l -0.29,-0.74 a 0.78,0.76 -34.5 0 1 0.16,-0.81 q 1.85,-1.88 4.53,-2.05 0.79,-0.06 0.26,0.52 c -2.86,3.1 -6.76,8.02 -10.26,10.46 -3.91,2.74 -7.78,9.02 -12.96,8.24 a 1.87,1.82 37.1 0 0 -0.96,0.12 q -5.41,2.28 -11.09,1.77 c -4.33,-0.39 -6.94,0.04 -10.77,0.86 a 0.97,0.96 -28.8 0 1 -0.88,-0.25 z"
         inkscape:connector-curvature="0"
         style="fill:#e1e1e1" />
      <path
         id="path17428"
         d="m 81.79,142.03 q -0.02,-1.01 -0.84,-1.38 -1.7,-0.75 0.15,-0.91 0.53,-0.04 0.97,0.06 a 0.82,0.81 2.1 0 1 0.64,0.68 c 0.3,1.98 1.45,3.25 1.46,5.18 q 0,1.29 -0.1,2.55 a 0.68,0.67 -3.4 0 1 -0.55,0.61 c -1.94,0.36 -5.29,-5.85 -6.44,-7.61 q -1.74,-2.68 1.06,-1.14 1.61,0.89 2.67,2.3 1,1.34 0.98,-0.34 z"
         inkscape:connector-curvature="0"
         style="fill:#ffffff" />
      <path
         id="path17430"
         d="m 136.35,159.65 a 0.66,0.65 84.1 0 1 0.49,-0.61 q 10.19,-2.65 20.65,-3.64 a 0.87,0.84 -20.7 0 1 0.75,0.32 q 2.22,2.87 2.04,6.43 a 0.53,0.52 85.8 0 1 -0.42,0.49 l -23.43,4.82 a 0.31,0.3 85.5 0 1 -0.36,-0.31 z"
         inkscape:connector-curvature="0"
         style="fill:#e1e1e1" />
      <path
         id="path17432"
         d="m 227.75,210.04 q -0.74,3 -2.63,5.62 a 0.42,0.42 0 0 0 0.2,0.64 q 2.39,0.87 4.83,0.17 2.38,-0.67 1.82,1.74 -0.4,1.74 0.99,2.66 0.6,0.4 -0.09,0.62 c -1.22,0.38 -7.22,0.21 -7.28,1.65 a 0.88,0.86 -72.1 0 0 0.38,0.76 l 1.78,1.22 a 0.72,0.71 32.4 0 1 0.22,0.96 l -0.52,0.88 a 0.55,0.54 29.6 0 0 0.21,0.75 l 0.53,0.29 H 99.69 c -4.15,-0.96 -3.3,-5.67 -8.14,-7.42 a 1.18,1.15 -1.6 0 1 -0.67,-0.62 q -2.43,-5.25 -2.38,-10.92 7.6,1.67 13.2,0.88 c 8.58,-1.22 18.51,-11.61 23.66,-18.14 q 0.32,-0.4 0.48,0.08 c 0.96,2.95 -5.12,7.82 -7.09,10.02 q -1.71,1.92 0.8,2.51 c 8.35,1.93 21.29,2.85 28.57,1.25 q 7.71,-1.69 13.21,-8.17 a 0.5,0.5 0 0 1 0.83,0.11 l 0.37,0.75 a 0.6,0.6 0 0 0 0.79,0.28 q 7.92,-3.57 9.14,-13.09 c 0.72,-5.63 10.89,-6.48 15.04,-6.45 7.38,0.06 6.94,13.25 7.28,18.27 a 1.18,1.16 63.9 0 1 -0.29,0.87 c -1.81,2.04 -4.63,1.5 -6.63,2 q -7.9,1.96 -15.34,-1.41 a 1.05,1.04 42.7 0 0 -0.9,0.03 q -5.19,2.73 -8.3,7.74 a 0.83,0.83 0 0 0 0.22,1.11 c 5.26,3.75 15.23,2.41 21.18,1.1 6.89,-1.53 11.57,-6.7 16.18,-11.62 5.49,-5.84 3.36,-16.5 1.37,-22.91 -0.97,-3.14 -3.64,-4.64 -6.98,-4.58 q -14.47,0.25 -23.56,10.89 -0.94,1.11 -1.08,-0.34 -0.96,-9.55 -0.58,-19.14 a 0.73,0.71 -5.3 0 1 0.57,-0.67 q 14.34,-3 28.85,-4.48 3.52,-0.35 6.03,-0.02 a 0.63,0.61 1.8 0 1 0.54,0.56 q 0.26,2.78 0.24,5.48 c -0.01,1.61 -1.37,3.4 0.21,5.19 a 1.38,1.37 -66.5 0 1 0.35,0.89 q 0.53,16.91 4.2,33.4 a 3.71,3.71 0 0 1 -0.52,2.84 l -2.76,4.2 a 0.31,0.31 0 0 0 0.22,0.48 q 9.88,1.21 19.75,1.09 z"
         inkscape:connector-curvature="0"
         style="fill:#e1e1e1" />
      <path
         id="path17434"
         d="m 137.92,189.25 -1.13,0.79 A 0.51,0.51 0 0 1 136,189.71 q -1.25,-6.87 -0.64,-13.89 a 0.74,0.74 0 0 1 0.57,-0.65 q 6.97,-1.61 13.99,-2.62 c 4.17,-0.59 7.31,-4.01 9.85,-7.07 q 0.82,-0.98 0.78,0.3 -0.37,14.04 0.94,28.01 a 0.93,0.92 68.5 0 1 -0.35,0.82 c -4.03,3.16 -15.83,2.53 -20.58,2.39 a 1.84,1.83 -89.5 0 1 -1.79,-1.83 l -0.03,-5.49 q 0,-1 -0.82,-0.43 z"
         inkscape:connector-curvature="0"
         style="fill:#e1e1e1" />
      <path
         id="path17436"
         d="m 98.05,179.75 q -0.27,1.79 1.34,2.71 1.01,0.57 -0.15,0.55 c -3.45,-0.07 -2.08,-9.76 -1.11,-10.05 a 0.52,0.52 0 0 1 0.66,0.4 l 0.88,4.91 a 1.81,1.69 21.4 0 0 0.41,0.86 q 1.39,1.58 2.38,3.41 1.25,2.31 -0.48,0.33 l -2.97,-3.4 q -0.78,-0.9 -0.96,0.28 z"
         inkscape:connector-curvature="0"
         style="fill:#ffffff" />
      <path
         id="path17438"
         d="m 265.74,185.28 q 0.91,-1.11 1.84,-1.03 5.11,0.44 9.91,-1.54 0.47,-0.19 0.17,0.22 -1.39,1.94 -2.44,2.29 -4.65,1.56 -9.3,0.58 a 0.32,0.32 0 0 1 -0.18,-0.52 z"
         inkscape:connector-curvature="0"
         style="fill:#e1e1e1" />
      <path
         id="path17440"
         d="m 408.19,228 h -7.25 l -1.14,-0.73 a 0.64,0.64 0 0 0 -0.83,0.12 l -0.53,0.61 h -12.25 c 1.21,-0.33 4.8,0.01 4.95,-0.69 a 0.66,0.66 0 0 0 -0.79,-0.78 q -3.88,0.88 -7.72,-0.2 -0.29,-0.08 -0.07,-0.28 l 0.19,-0.17 a 0.19,0.17 14.9 0 1 0.1,-0.05 l 7.11,-1.46 a 0.46,0.46 0 0 0 0.33,-0.62 c -0.06,-0.15 -6.19,0.3 -6.77,0.25 a 0.39,0.39 0 0 1 -0.34,-0.52 c 1.54,-4.25 7.26,-6.71 11.45,-7.07 q 2.66,-0.23 5.01,-1.65 0.48,-0.29 -0.04,-0.51 c -0.54,-0.22 -4.44,0.85 -5.83,0.62 a 0.47,0.46 12.1 0 1 -0.38,-0.58 q 0.28,-1.02 0.9,-1.26 4.95,-1.91 7.39,-6.64 a 1.3,1.29 -73.9 0 0 -1.04,-1.89 c -2.48,-0.22 -3.8,2.64 -5.25,4.29 q -0.9,1.02 -1.22,-0.3 l -0.71,-2.96 a 1,1 0 0 1 0.22,-0.89 c 3.06,-3.45 3.34,-6.94 5.88,-9.14 a 0.79,0.78 -27.7 0 0 0.25,-0.79 q -0.5,-1.94 1.15,-3.46 c 1.01,0.73 3.9,-2.33 5.61,-2.86 q 0.99,-0.31 0.25,0.42 l -6.31,6.14 a 0.5,0.5 0 0 0 -0.02,0.7 c 0.47,0.51 6.7,-4.34 6.79,-4.4 q 0.41,-0.27 0.66,-0.69 1.08,-1.79 2.88,-2.72 0.45,-0.24 0.12,0.15 l -9.14,10.8 q -0.61,0.72 0.3,0.47 c 1.33,-0.38 4.09,-3.12 4.62,-2.96 a 0.59,0.58 13.4 0 1 0.41,0.66 c -0.56,3.08 -2.82,5.48 -4.72,7.87 a 0.53,0.53 0 0 0 0.08,0.74 c 0.44,0.36 1.1,0.29 1.46,-0.21 3.3,-4.56 6.68,-9.02 9.87,-13.67 q 2.93,-4.27 7.32,-7.18 a 0.44,0.44 0 0 1 0.65,0.18 c 1.18,2.56 -2.37,6.43 -3.57,8.79 a 0.53,0.52 15.1 0 0 0.44,0.76 l 2.65,0.16 a 0.65,0.65 0 0 0 0.69,-0.72 q -0.36,-3.2 2.34,-4.96 1.19,-0.77 0.84,0.6 -1.6,6.28 -6.36,10.59 a 0.5,0.5 0 0 0 0.03,0.77 c 0.77,0.57 3.17,-2.04 3.79,-2.62 a 0.32,0.32 0 0 1 0.53,0.13 q 1.14,3.46 -1.29,5.84 c -1.05,1.03 -0.94,2.21 -1.74,3.08 q -3.63,3.96 -6.31,8.61 -0.26,0.44 -0.68,0.73 -1.93,1.36 -3.21,3.33 -0.25,0.38 -0.64,0.62 -2.59,1.59 -2.72,4.86 a 0.49,0.48 3 0 0 0.46,0.5 c 1.83,0.11 5.02,-4.17 6.04,-5.6 q 0.3,-0.42 0.75,-0.67 2.33,-1.28 2.7,-3.91 a 1.28,1.27 76 0 1 0.49,-0.82 q 3.07,-2.31 6.78,-2.96 1.23,-0.22 0.64,0.88 -2.54,4.7 -7.52,6.58 a 0.86,0.85 57.3 0 0 -0.3,1.4 q 3.06,3.07 7.36,3.16 a 0.4,0.4 0 0 1 0.38,0.5 c -1.3,4.88 -12.21,3.15 -16.17,3.68 z m 6.033,-19.1904 a 2.31,1.12 121.5 0 0 2.162,-1.3844 2.31,1.12 121.5 0 0 0.252,-2.5548 2.31,1.12 121.5 0 0 -2.162,1.3844 2.31,1.12 121.5 0 0 -0.252,2.5548 z"
         inkscape:connector-curvature="0"
         style="fill:#e1e1e1" />
      <ellipse
         id="ellipse17442"
         ry="1.12"
         rx="2.3099999"
         transform="rotate(121.5,149.79702,219.74599)"
         cy="0"
         cx="0"
         style="fill:#ffffff" />
      <path
         id="path17444"
         d="m 400.94,228 h -2.5 l 0.53,-0.61 a 0.64,0.64 0 0 1 0.83,-0.12 z"
         inkscape:connector-curvature="0"
         style="fill:#ffffff" />
      <path
         id="path17446"
         d="m 245.44,228 h -14.25 q 7.12,-0.63 14.25,0 z"
         inkscape:connector-curvature="0"
         style="fill:#ffffff" />
    </g>
  </g>
</svg>
