<?xml version="1.0" encoding="UTF-8" standalone="no"?>
<!DOCTYPE svg PUBLIC "-//W3C//DTD SVG 1.1//EN" "http://www.w3.org/Graphics/SVG/1.1/DTD/svg11.dtd">
<svg xmlns="http://www.w3.org/2000/svg" version="1.1" viewBox="0 0 447 249">
<g stroke-width="2.00" fill="none" stroke-linecap="butt">
<path stroke="#ececec" vector-effect="non-scaling-stroke" d="
  M 216.31 0.00
  C 215.94 4.89 216.48 17.65 220.34 21.92
  C 225.52 27.67 237.42 43.18 245.09 44.20
  C 263.52 46.67 286.76 41.32 295.46 22.79
  C 299.06 15.11 299.66 9.97 298.38 1.04
  A 0.97 0.95 11.4 0 0 297.89 0.32
  L 297.31 0.00"
/>
<path stroke="#ececec" vector-effect="non-scaling-stroke" d="
  M 367.49 249.01
  L 371.69 233.76
  Q 371.82 233.29 371.72 232.80
  L 371.21 230.50"
/>
<path stroke="#828282" vector-effect="non-scaling-stroke" d="
  M 371.21 230.50
  Q 375.70 227.19 379.00 222.66
  A 0.88 0.88 0.0 0 0 378.87 221.48
  C 368.76 212.57 366.52 199.58 366.79 186.25"
/>
<path stroke="#ececec" vector-effect="non-scaling-stroke" d="
  M 366.79 186.25
  Q 380.20 185.02 391.95 178.39
  A 1.40 1.39 -8.2 0 0 392.62 177.50
  Q 393.63 173.38 397.80 172.41
  A 0.89 0.88 89.1 0 0 398.47 171.71
  Q 399.38 167.04 402.08 163.26
  C 404.55 159.79 404.80 155.98 404.31 151.96
  A 1.49 1.48 -34.3 0 1 404.49 151.02
  C 406.52 147.31 405.05 144.44 404.91 141.18
  C 404.65 134.63 404.77 127.65 403.96 121.54
  Q 402.62 111.38 399.93 101.46
  C 398.72 97.02 394.83 94.73 394.67 90.09
  C 394.45 83.94 395.57 75.22 391.50 70.25
  Q 384.35 61.50 378.10 52.11
  C 371.65 42.41 352.74 26.62 341.76 25.78
  Q 333.34 25.13 329.76 25.78
  C 322.38 27.11 319.80 30.00 314.77 35.81
  C 310.47 40.77 306.79 44.86 305.90 50.06
  C 304.71 57.03 306.08 69.05 311.28 75.32
  A 1.41 1.38 24.8 0 1 311.61 76.19
  Q 311.69 79.36 313.75 81.71"
/>
<path stroke="#828282" vector-effect="non-scaling-stroke" d="
  M 313.75 81.71
  Q 303.71 87.22 293.88 93.10
  C 289.94 95.46 286.02 95.84 281.72 95.98
  Q 279.80 96.04 281.38 94.95
  C 288.90 89.76 298.55 79.45 293.82 69.61
  A 2.65 2.65 0.0 0 0 291.78 68.13
  C 287.10 67.49 281.17 68.39 276.30 68.61
  Q 274.25 68.70 267.22 68.30
  C 257.86 67.76 248.53 70.87 239.71 73.79
  A 0.66 0.66 0.0 0 1 238.85 73.28
  L 237.79 66.85
  A 0.86 0.86 0.0 0 0 237.10 66.15
  C 230.59 65.02 220.72 71.55 215.58 75.24
  Q 214.24 76.20 214.11 74.56
  Q 213.89 71.65 212.00 69.54
  A 1.21 1.19 72.0 0 0 211.23 69.14
  C 203.70 68.31 196.50 73.06 190.96 77.10
  Q 190.28 77.59 190.21 76.75
  L 189.93 73.72
  A 0.69 0.68 72.1 0 0 188.90 73.19
  Q 183.56 76.35 180.29 81.51
  A 1.59 1.57 -32.1 0 0 180.05 82.53
  C 180.63 88.48 175.59 90.08 176.10 94.59
  Q 176.17 95.21 176.61 94.77
  L 179.25 92.12
  Q 179.87 91.50 179.89 92.38
  C 179.99 97.67 181.15 108.25 179.08 112.90
  Q 175.92 119.99 176.81 127.49
  A 1.38 1.37 73.5 0 1 176.06 128.88
  C 166.13 133.77 159.36 132.06 149.99 127.85
  A 0.62 0.61 -72.3 0 1 149.64 127.16
  C 150.59 122.18 147.88 114.75 146.89 109.26
  Q 146.54 107.37 148.45 107.16
  C 157.48 106.17 165.03 105.66 169.94 96.62
  Q 171.06 94.56 168.78 95.14
  Q 158.41 97.78 147.72 98.13
  A 0.69 0.68 88.8 0 1 147.01 97.44
  L 147.04 88.00"
/>
<path stroke="#ececec" vector-effect="non-scaling-stroke" d="
  M 147.04 88.00
  L 148.32 88.01
  A 1.41 1.37 24.7 0 0 149.20 87.70
  Q 153.71 84.01 156.54 79.07
  C 158.82 75.10 161.14 72.10 163.19 68.45
  A 0.80 0.80 0.0 0 1 163.92 68.04
  Q 164.58 68.07 165.00 67.79"
/>
<path stroke="#828282" vector-effect="non-scaling-stroke" d="
  M 165.00 67.79
  Q 172.57 66.50 173.26 72.71
  Q 173.55 75.35 175.59 73.65
  C 178.41 71.29 182.92 67.87 183.11 64.14
  C 183.47 57.31 175.86 57.39 170.00 58.21"
/>
<path stroke="#ececec" vector-effect="non-scaling-stroke" d="
  M 170.00 58.21
  C 171.25 53.03 171.58 48.09 173.35 42.92
  C 175.57 36.43 174.22 31.38 171.38 24.97
  C 169.97 21.81 167.09 20.52 164.25 18.91
  Q 163.81 18.67 163.55 18.23
  C 159.19 10.88 154.78 10.62 147.16 8.83
  Q 144.98 8.32 142.67 8.82
  C 135.94 10.25 128.62 9.93 123.49 14.99
  Q 116.24 22.13 108.25 26.11"
/>
<path stroke="#828282" vector-effect="non-scaling-stroke" d="
  M 108.25 26.11
  Q 111.67 14.95 118.14 5.50
  C 118.19 5.43 118.26 4.52 118.24 4.48
  A 0.50 0.49 61.2 0 0 117.53 4.27
  C 106.22 11.54 99.72 28.16 95.46 41.50"
/>
<path stroke="#ececec" vector-effect="non-scaling-stroke" d="
  M 95.46 41.50
  C 91.81 42.02 91.76 45.35 88.50 46.79"
/>
<path stroke="#828282" vector-effect="non-scaling-stroke" d="
  M 88.50 46.79
  L 85.20 39.18
  A 0.52 0.51 62.4 0 0 84.46 38.94
  Q 79.52 41.97 76.21 46.73
  A 2.81 2.80 52.1 0 0 75.89 49.32
  L 80.79 62.50"
/>
<path stroke="#ececec" vector-effect="non-scaling-stroke" d="
  M 80.79 62.50
  C 79.05 66.66 78.88 70.75 77.11 74.93
  A 1.80 1.77 53.1 0 0 76.98 75.89
  Q 77.67 81.18 73.09 83.67
  A 1.16 1.14 81.5 0 0 72.49 84.49
  C 71.09 92.02 68.55 100.09 67.31 106.75
  Q 65.10 118.57 63.26 132.49
  Q 62.85 135.61 64.04 138.00"
/>
<path stroke="#828282" vector-effect="non-scaling-stroke" d="
  M 64.04 138.00
  Q 59.34 147.07 58.24 157.40
  A 0.58 0.57 -89.2 0 0 58.86 158.04
  Q 61.38 157.84 64.01 155.71"
/>
<path stroke="#ececec" vector-effect="non-scaling-stroke" d="
  M 64.01 155.71
  Q 64.62 159.95 64.97 164.23
  Q 65.35 169.05 66.41 172.61
  Q 69.77 183.92 75.03 196.23
  Q 76.60 199.90 78.83 202.32
  A 1.01 0.99 -22.7 0 0 79.63 202.64
  L 81.96 202.50"
/>
<path stroke="#828282" vector-effect="non-scaling-stroke" d="
  M 81.96 202.50
  C 81.59 211.77 78.12 223.37 86.77 229.55
  C 95.40 235.71 109.03 235.19 118.43 229.47"
/>
<path stroke="#ececec" vector-effect="non-scaling-stroke" d="
  M 118.43 229.47
  Q 119.16 235.76 117.54 242.03
  A 1.62 1.53 -49.1 0 0 117.58 242.98
  Q 118.63 245.91 118.44 249.00"
/>
<path stroke="#6f6f6f" vector-effect="non-scaling-stroke" d="
  M 108.25 26.11
  Q 100.81 45.61 98.21 66.69
  Q 98.02 68.24 98.72 69.63
  L 104.30 80.60
  A 0.32 0.32 0.0 0 0 104.85 80.64
  C 119.32 60.44 131.18 39.95 145.40 21.66
  Q 148.49 17.69 153.28 14.84
  A 0.51 0.51 0.0 0 1 153.99 15.04
  Q 154.29 15.57 153.97 15.98
  Q 142.88 30.23 133.20 45.43
  C 124.09 59.74 116.05 71.20 106.99 83.87
  A 1.53 1.52 -45.2 0 0 106.99 85.64
  L 124.41 110.04
  Q 124.79 110.57 124.90 109.92
  C 126.41 101.16 128.80 93.38 137.68 89.62
  A 1.61 1.59 -3.1 0 0 138.57 88.64
  C 143.07 74.75 154.72 60.17 170.00 58.21"
/>
<path stroke="#6f6f6f" vector-effect="non-scaling-stroke" d="
  M 165.00 67.79
  C 161.46 67.76 154.18 68.59 152.27 71.54
  Q 148.23 77.79 147.04 88.00"
/>
<path stroke="#6f6f6f" vector-effect="non-scaling-stroke" d="
  M 313.75 81.71
  Q 327.22 75.39 340.41 68.52
  C 341.65 67.87 343.01 67.81 344.34 67.73
  Q 345.51 67.66 344.77 68.56
  L 340.92 73.24
  A 0.29 0.29 0.0 0 0 341.02 73.69
  Q 342.14 74.19 342.16 75.57
  Q 342.38 88.24 342.10 100.99
  A 0.37 0.37 0.0 0 0 342.51 101.37
  L 356.46 99.83
  Q 357.47 99.72 356.95 100.59
  C 354.24 105.14 349.54 110.29 343.75 110.07
  A 0.40 0.40 0.0 0 0 343.34 110.54
  C 344.33 116.10 347.83 124.13 353.46 126.36
  A 0.77 0.77 0.0 0 1 353.81 127.51
  Q 350.05 133.00 344.45 136.60
  A 0.73 0.72 46.2 0 1 343.62 136.58
  Q 336.60 131.48 334.10 123.27"
/>
<path stroke="#828282" vector-effect="non-scaling-stroke" d="
  M 334.10 123.27
  L 332.08 112.89
  A 1.30 1.30 0.0 0 0 330.66 111.85
  L 314.28 113.61
  A 1.47 1.46 -88.7 0 0 312.99 114.85
  C 311.47 124.41 322.33 124.66 327.80 121.07
  Q 328.15 120.84 328.54 121.05
  A 0.50 0.49 31.0 0 1 328.72 121.76
  C 323.93 129.11 316.74 134.98 307.31 132.43
  C 301.71 130.91 303.09 125.60 302.97 121.36
  Q 302.94 120.24 302.28 121.15
  Q 294.87 131.25 284.36 137.57
  C 277.13 141.92 258.77 147.12 252.11 139.75
  C 245.32 132.21 254.00 123.28 259.27 118.37
  A 3.13 3.13 0.0 0 0 260.25 115.96
  L 259.94 108.45
  Q 259.90 107.49 259.22 108.17
  Q 258.19 109.20 256.63 108.98
  A 0.56 0.55 -67.3 0 1 256.27 108.09
  L 259.70 103.66
  A 1.48 1.46 63.6 0 0 259.99 102.78
  L 260.00 78.36
  A 0.52 0.52 0.0 0 0 259.48 77.84
  Q 249.26 77.95 239.58 81.11
  A 0.76 0.75 -8.8 0 0 239.06 81.81
  Q 238.61 100.82 240.10 119.76
  Q 240.62 126.36 243.80 131.07
  A 2.00 1.98 -42.3 0 1 243.68 133.45
  Q 239.82 138.05 235.10 141.79
  A 0.55 0.54 -36.3 0 1 234.33 141.68
  C 230.78 136.77 230.11 129.36 229.77 123.49
  Q 228.64 104.17 229.03 84.73
  A 0.45 0.44 82.8 0 0 228.47 84.29
  L 217.08 87.48
  A 1.62 1.62 0.0 0 0 215.90 89.13
  C 216.85 105.95 213.55 118.05 201.04 129.70
  Q 196.37 134.06 190.42 136.88
  A 1.03 1.02 75.3 0 0 189.84 137.88
  Q 190.72 148.26 192.93 158.46
  A 0.78 0.77 -6.0 0 0 193.69 159.07
  L 208.02 158.97
  Q 209.14 158.97 208.52 159.90
  L 204.96 165.25"
/>
<path stroke="#040404" vector-effect="non-scaling-stroke" d="
  M 204.96 165.25
  L 204.04 165.64
  Q 203.59 165.84 203.26 166.20
  C 200.06 169.71 199.67 173.23 198.19 177.48
  Q 197.47 179.54 197.49 181.69"
/>
<path stroke="#828282" vector-effect="non-scaling-stroke" d="
  M 197.49 181.69
  Q 195.57 191.99 195.58 204.75
  C 195.59 208.61 195.76 213.82 200.60 214.23
  A 0.80 0.80 0.0 0 1 201.26 215.34
  Q 198.86 220.99 193.06 224.30"
/>
<path stroke="#6f6f6f" vector-effect="non-scaling-stroke" d="
  M 193.06 224.30
  Q 191.68 225.53 190.06 224.71
  C 186.05 222.68 185.11 216.63 185.21 212.50"
/>
<path stroke="#828282" vector-effect="non-scaling-stroke" d="
  M 185.21 212.50
  Q 185.54 200.50 187.49 188.70
  C 188.32 183.66 184.87 174.63 183.56 169.52
  A 0.59 0.58 -8.6 0 0 182.97 169.09
  Q 166.75 169.77 150.95 173.41
  A 1.14 1.14 0.0 0 0 150.07 174.45
  C 149.58 183.36 148.22 193.69 149.35 202.53
  Q 149.41 203.03 149.75 202.66
  C 155.82 196.04 164.31 187.61 173.67 187.11
  Q 176.76 186.95 177.41 189.97
  Q 179.18 198.23 176.99 205.72"
/>
<path stroke="#6f6f6f" vector-effect="non-scaling-stroke" d="
  M 176.99 205.72
  C 169.96 218.51 158.74 227.06 143.76 227.24
  A 1.20 1.20 0.0 0 0 142.84 227.67
  Q 141.04 229.80 138.83 228.24
  Q 138.40 227.93 137.88 227.83
  L 132.78 226.80
  A 0.44 0.44 0.0 0 1 132.53 226.09
  L 138.50 218.91
  A 1.75 1.70 -25.3 0 0 138.90 217.84
  L 139.01 210.18
  Q 139.03 208.92 138.37 210.00
  C 136.91 212.38 135.78 214.68 133.76 216.62
  Q 126.43 223.67 118.43 229.47"
/>
<path stroke="#6f6f6f" vector-effect="non-scaling-stroke" d="
  M 81.96 202.50
  C 83.75 187.74 90.52 167.25 104.53 160.30
  Q 107.12 159.01 110.01 159.09
  Q 124.38 159.47 136.00 167.71"
/>
<path stroke="#828282" vector-effect="non-scaling-stroke" d="
  M 136.00 167.71
  L 141.67 172.98
  A 0.41 0.40 -51.8 0 0 142.29 172.90
  Q 145.89 167.46 152.53 165.55
  Q 166.98 161.40 180.62 159.91
  A 0.51 0.51 0.0 0 0 181.07 159.36
  Q 180.14 149.13 179.75 138.85
  C 179.67 136.59 178.39 135.17 177.24 133.35
  A 0.47 0.46 -34.8 0 0 176.57 133.23
  C 166.33 141.00 155.30 144.89 143.12 139.09
  A 0.76 0.75 37.6 0 0 142.31 139.19
  L 136.58 143.86
  A 0.71 0.70 41.3 0 1 135.76 143.91
  L 131.39 141.22"
/>
<path stroke="#6f6f6f" vector-effect="non-scaling-stroke" d="
  M 131.39 141.22
  L 124.65 134.03
  A 0.38 0.38 0.0 0 0 124.04 134.10
  Q 117.81 145.25 108.30 151.82
  C 90.50 164.11 86.28 121.14 85.69 112.74
  Q 85.66 112.24 85.36 112.65
  C 79.40 121.00 72.38 131.08 69.20 141.72
  Q 69.06 142.20 69.47 141.92
  C 70.20 141.41 75.83 136.95 76.03 136.98
  A 0.63 0.63 0.0 0 1 76.50 137.86
  Q 71.90 148.26 64.01 155.71"
/>
<path stroke="#6f6f6f" vector-effect="non-scaling-stroke" d="
  M 64.04 138.00
  Q 73.77 121.71 85.32 106.97
  A 2.84 2.83 64.5 0 0 85.93 105.24
  Q 86.04 91.89 87.73 78.63
  A 3.72 3.64 -54.4 0 0 87.42 76.63
  L 80.79 62.50"
/>
<path stroke="#6f6f6f" vector-effect="non-scaling-stroke" d="
  M 88.50 46.79
  L 91.29 54.04
  Q 91.50 54.61 91.68 54.03
  L 95.46 41.50"
/>
<path stroke="#828282" vector-effect="non-scaling-stroke" d="
  M 323.25 89.46
  Q 318.24 96.30 315.24 104.22
  A 0.30 0.30 0.0 0 0 315.56 104.62
  L 329.25 102.96"
/>
<path stroke="#6f6f6f" vector-effect="non-scaling-stroke" d="
  M 329.25 102.96
  Q 330.38 103.19 331.52 102.87
  A 0.63 0.63 0.0 0 0 331.98 102.26
  L 332.03 84.80
  Q 332.04 82.36 333.76 80.65
  L 338.77 75.66
  Q 341.46 72.98 338.44 75.28
  L 335.54 77.49
  Q 335.13 77.80 334.66 77.98
  Q 329.96 79.78 326.67 84.42
  Q 323.79 88.48 323.25 89.46"
/>
<path stroke="#ececec" vector-effect="non-scaling-stroke" d="
  M 329.25 102.96
  L 324.01 94.80
  A 1.62 1.57 -61.9 0 1 323.75 93.89
  L 323.77 90.06
  A 0.49 0.47 -73.7 0 0 323.56 89.66
  L 323.25 89.46"
/>
<path stroke="#828282" vector-effect="non-scaling-stroke" d="
  M 226.29 75.86
  Q 220.07 76.24 215.29 80.27
  A 1.00 0.99 -24.8 0 0 214.95 81.17
  L 215.70 85.76
  Q 215.87 86.82 216.42 85.90
  Q 220.01 79.86 226.60 77.22
  Q 230.69 75.58 226.29 75.86"
/>
<path stroke="#828282" vector-effect="non-scaling-stroke" d="
  M 284.73 86.88
  C 287.36 75.74 278.32 77.80 270.61 78.11
  A 0.64 0.63 -1.4 0 0 270.00 78.74
  L 270.00 96.47
  A 0.39 0.39 0.0 0 0 270.50 96.84
  C 274.69 95.57 283.61 91.63 284.73 86.88"
/>
<path stroke="#828282" vector-effect="non-scaling-stroke" d="
  M 190.91 97.35
  Q 195.75 90.93 201.74 86.39
  C 204.47 84.31 204.86 82.04 202.61 79.48
  A 1.34 1.32 71.3 0 0 201.71 79.03
  Q 195.48 78.50 190.43 82.13
  A 1.04 1.04 0.0 0 0 190.00 82.97
  L 190.00 97.04
  Q 190.00 98.55 190.91 97.35"
/>
<path stroke="#828282" vector-effect="non-scaling-stroke" d="
  M 298.05 96.52
  Q 302.74 100.17 303.57 106.05
  A 1.23 1.23 0.0 0 0 305.47 106.90
  Q 307.59 105.50 308.91 103.48
  Q 315.48 93.45 322.47 83.79
  Q 322.99 83.07 322.19 83.46
  L 298.16 95.42
  A 0.66 0.65 -39.5 0 0 298.05 96.52"
/>
<path stroke="#828282" vector-effect="non-scaling-stroke" d="
  M 190.56 128.04
  Q 195.54 128.75 199.55 126.43
  C 207.69 121.74 206.10 96.81 204.96 89.27
  Q 204.65 87.20 203.11 88.62
  Q 196.33 94.89 190.66 102.23
  A 3.08 3.05 64.2 0 0 190.01 104.12
  L 190.00 127.40
  A 0.65 0.64 -86.5 0 0 190.56 128.04"
/>
<path stroke="#6f6f6f" vector-effect="non-scaling-stroke" d="
  M 102.48 135.97
  C 104.92 142.06 111.93 149.30 116.20 138.87
  Q 118.25 133.86 119.47 130.26
  Q 120.34 127.69 118.75 125.49
  L 99.24 98.49
  Q 96.22 94.32 96.07 99.47
  Q 95.52 118.59 102.48 135.97"
/>
<path stroke="#828282" vector-effect="non-scaling-stroke" d="
  M 275.53 105.23
  C 273.47 105.84 268.50 105.24 270.38 108.95
  A 0.36 0.36 0.0 0 0 270.91 109.08
  L 275.66 105.49
  Q 276.29 105.01 275.53 105.23"
/>
<path stroke="#828282" vector-effect="non-scaling-stroke" d="
  M 273.96 128.22
  Q 274.05 130.73 272.59 132.82
  Q 272.34 133.18 272.78 133.19
  C 277.37 133.24 292.66 131.25 293.94 125.73
  C 295.38 119.49 293.20 104.07 283.35 105.42
  C 279.40 105.96 274.08 110.79 270.40 113.49
  A 0.85 0.84 -22.7 0 0 270.07 114.28
  C 270.40 116.40 270.79 125.20 272.50 126.00
  A 2.56 2.54 11.9 0 1 273.96 128.22"
/>
<path stroke="#6f6f6f" vector-effect="non-scaling-stroke" d="
  M 131.90 115.26
  C 129.19 117.68 133.04 122.72 135.00 124.43
  Q 135.60 124.95 135.36 124.19
  L 132.70 115.49
  A 0.50 0.49 60.6 0 0 131.90 115.26"
/>
<path stroke="#828282" vector-effect="non-scaling-stroke" d="
  M 96.93 212.10
  Q 102.36 220.40 111.75 221.24
  Q 119.02 221.90 125.50 218.71"
/>
<path stroke="#6f6f6f" vector-effect="non-scaling-stroke" d="
  M 125.50 218.71
  Q 130.65 216.10 132.96 210.75"
/>
<path stroke="#828282" vector-effect="non-scaling-stroke" d="
  M 132.96 210.75
  Q 137.84 200.99 136.05 189.99"
/>
<path stroke="#6f6f6f" vector-effect="non-scaling-stroke" d="
  M 136.05 189.99
  C 132.00 176.54 113.85 169.51 101.02 168.95
  A 2.17 2.16 9.7 0 0 98.86 170.47
  Q 92.61 190.73 96.93 212.10"
/>
<path stroke="#ececec" vector-effect="non-scaling-stroke" d="
  M 136.05 189.99
  Q 133.39 193.86 130.93 197.60
  C 125.96 205.17 118.31 210.68 108.96 210.61
  Q 103.29 210.56 96.93 212.10"
/>
<path stroke="#ececec" vector-effect="non-scaling-stroke" d="
  M 132.96 210.75
  C 131.53 210.44 130.80 210.64 129.97 211.89
  Q 127.73 215.29 125.50 218.71"
/>
<path stroke="#6f6f6f" vector-effect="non-scaling-stroke" d="
  M 155.92 201.08
  C 153.00 203.61 150.97 212.54 150.15 216.70
  A 0.43 0.43 0.0 0 0 150.56 217.21
  C 155.33 217.44 166.63 217.29 167.94 211.22
  Q 168.69 207.72 167.50 200.46"
/>
<path stroke="#828282" vector-effect="non-scaling-stroke" d="
  M 167.50 200.46
  C 167.17 193.87 158.35 198.30 155.92 201.08"
/>
<path stroke="#ececec" vector-effect="non-scaling-stroke" d="
  M 167.50 200.46
  Q 164.90 201.05 162.33 200.32
  Q 161.86 200.19 161.38 200.26
  L 155.92 201.08"
/>
<path stroke="#6f6f6f" vector-effect="non-scaling-stroke" d="
  M 366.79 186.25
  L 366.98 167.12
  A 1.47 1.45 67.5 0 1 367.38 166.14
  L 372.49 160.74
  Q 374.95 158.15 371.40 157.79
  C 362.95 156.96 349.22 168.33 343.79 174.25"
/>
<path stroke="#ececec" vector-effect="non-scaling-stroke" d="
  M 343.79 174.25
  C 340.48 167.71 335.67 160.22 333.93 153.15
  Q 332.70 148.15 333.06 145.24
  Q 333.97 137.67 332.36 128.52
  Q 331.87 125.73 334.10 123.27"
/>
<path stroke="#828282" vector-effect="non-scaling-stroke" d="
  M 343.79 174.25
  Q 337.07 181.89 332.48 190.95
  Q 331.58 192.72 329.91 194.07
  Q 325.21 197.85 322.04 203.00"
/>
<path stroke="#ececec" vector-effect="non-scaling-stroke" d="
  M 322.04 203.00
  L 318.51 207.84"
/>
<path stroke="#828282" vector-effect="non-scaling-stroke" d="
  M 318.51 207.84
  Q 316.07 197.43 316.97 186.79
  A 1.29 1.28 -19.6 0 1 317.37 185.96
  Q 323.25 180.34 327.90 173.66
  C 331.13 169.01 336.26 157.68 325.79 156.67
  C 312.22 155.37 309.67 177.69 308.02 186.43
  A 0.77 0.76 87.6 0 1 307.49 187.02
  Q 301.65 188.74 295.59 189.08
  A 0.51 0.50 -1.6 0 1 295.05 188.58
  L 294.89 158.94
  Q 294.88 157.10 293.45 158.26
  L 286.75 163.71
  Q 285.01 165.13 285.01 167.38
  L 284.99 195.33
  A 1.30 1.30 0.0 0 1 284.09 196.57
  L 279.01 198.20
  A 0.70 0.69 -19.8 0 1 278.15 197.80
  C 272.90 184.86 272.70 172.91 273.05 159.17
  Q 273.09 157.57 271.69 158.34
  Q 266.06 161.44 262.95 167.45
  Q 261.84 169.60 260.35 171.00
  Q 248.53 182.11 242.38 197.26
  C 241.53 199.35 238.41 206.71 237.75 206.76
  A 0.54 0.54 0.0 0 1 237.17 206.27
  C 235.93 194.13 237.95 179.84 239.40 167.68
  Q 239.51 166.79 240.94 164.01
  A 0.45 0.45 0.0 0 0 240.60 163.36
  L 239.84 163.25
  A 1.13 1.11 -17.2 0 1 239.14 162.89
  C 237.03 160.64 229.85 170.63 229.04 172.17
  C 225.37 179.11 219.41 185.45 214.70 191.84
  A 0.31 0.31 0.0 0 1 214.17 191.80
  C 209.90 183.59 207.93 174.01 204.96 165.25"
/>
<path stroke="#ececec" vector-effect="non-scaling-stroke" d="
  M 131.39 141.22
  Q 131.54 143.73 132.86 145.90
  A 1.27 1.22 -54.9 0 1 133.00 146.81
  Q 131.61 152.83 133.43 158.64
  C 134.34 161.54 136.72 163.55 136.00 167.71"
/>
<path stroke="#6f6f6f" vector-effect="non-scaling-stroke" d="
  M 318.51 207.84
  Q 322.17 212.35 327.05 213.86
  A 0.64 0.64 0.0 0 0 327.88 213.29
  L 328.47 203.58
  A 0.45 0.45 0.0 0 0 328.03 203.10
  L 322.04 203.00"
/>
<path stroke="#6f6f6f" vector-effect="non-scaling-stroke" d="
  M 371.21 230.50
  L 370.46 230.82
  A 0.89 0.89 0.0 0 1 369.59 230.73
  C 360.36 224.10 357.58 212.69 356.97 201.90"
/>
<path stroke="#828282" vector-effect="non-scaling-stroke" d="
  M 356.97 201.90
  L 356.96 195.24
  Q 356.96 194.37 356.35 194.99
  L 352.46 199.00"
/>
<path stroke="#6f6f6f" vector-effect="non-scaling-stroke" d="
  M 352.46 199.00
  C 348.79 201.81 342.94 201.52 338.46 202.20
  A 0.50 0.49 81.0 0 0 338.05 202.78
  C 338.70 206.46 340.66 209.61 344.44 210.82
  Q 348.03 211.97 350.90 211.24
  Q 354.43 210.34 352.04 213.09
  C 346.34 219.67 340.03 224.63 331.15 218.97
  A 0.64 0.62 -50.3 0 0 330.38 219.05
  C 326.83 222.43 324.51 225.30 318.92 223.95
  Q 311.57 222.19 307.93 215.64"
/>
<path stroke="#828282" vector-effect="non-scaling-stroke" d="
  M 307.93 215.64
  C 306.02 209.78 306.99 200.77 306.96 194.45
  A 0.39 0.38 81.2 0 0 306.46 194.08
  L 296.15 197.28
  A 0.72 0.72 0.0 0 0 295.64 197.98
  C 295.77 203.46 295.72 210.08 298.92 214.51
  A 0.70 0.69 56.3 0 0 299.85 214.70
  Q 300.93 214.04 301.58 215.04
  Q 302.58 216.61 301.28 217.93
  L 293.61 225.76
  Q 291.85 227.56 290.22 225.63
  Q 287.55 222.49 286.90 218.47
  Q 286.77 217.61 286.15 218.22
  L 281.62 222.75
  A 1.03 1.02 40.4 0 1 280.28 222.85
  Q 272.77 217.30 268.93 208.76
  A 0.70 0.70 0.0 0 0 268.19 208.36
  C 264.26 209.00 255.66 209.54 252.70 212.04
  C 248.88 215.27 243.19 221.92 238.51 222.26
  Q 227.54 223.08 227.03 212.47
  Q 226.35 198.41 228.84 181.23
  Q 229.01 180.07 228.98 179.23
  Q 228.94 178.36 228.42 179.06
  L 216.48 195.28
  A 0.65 0.65 0.0 0 0 216.49 196.05
  Q 219.25 199.60 223.79 199.27
  Q 224.68 199.20 224.13 199.90
  C 220.88 203.98 214.58 212.85 208.76 207.31
  A 1.25 1.25 0.0 0 0 206.93 207.43
  Q 206.19 208.36 205.10 208.98
  Q 203.03 210.16 203.88 207.93
  L 205.30 204.17
  A 1.21 1.19 -48.5 0 0 205.25 203.20
  Q 199.98 192.97 197.49 181.69"
/>
<path stroke="#828282" vector-effect="non-scaling-stroke" d="
  M 320.13 168.31
  Q 318.41 174.39 317.91 180.69
  Q 317.85 181.48 318.33 180.86
  C 320.13 178.56 324.14 170.42 320.70 168.10
  A 0.38 0.38 0.0 0 0 320.13 168.31"
/>
<path stroke="#828282" vector-effect="non-scaling-stroke" d="
  M 347.04 175.50
  Q 341.44 183.16 339.27 192.52
  A 0.45 0.45 0.0 0 0 339.76 193.07
  L 356.24 190.97
  A 0.70 0.68 86.8 0 0 356.84 190.28
  L 356.82 182.73"
/>
<path stroke="#6f6f6f" vector-effect="non-scaling-stroke" d="
  M 356.82 182.73
  L 357.87 169.29
  A 0.34 0.34 0.0 0 0 357.44 168.94
  Q 351.21 170.59 347.04 175.50"
/>
<path stroke="#ececec" vector-effect="non-scaling-stroke" d="
  M 356.82 182.73
  L 347.04 175.50"
/>
<path stroke="#828282" vector-effect="non-scaling-stroke" d="
  M 261.11 174.08
  Q 251.16 186.54 247.98 202.28
  A 0.32 0.32 0.0 0 0 248.34 202.66
  L 264.73 200.60
  A 0.87 0.86 79.8 0 0 265.46 199.54
  Q 262.47 187.37 263.06 174.82
  Q 263.23 171.43 261.11 174.08"
/>
<path stroke="#828282" vector-effect="non-scaling-stroke" d="
  M 284.98 200.38
  A 0.38 0.38 0.0 0 0 284.34 200.14
  L 281.16 203.16
  A 0.38 0.38 0.0 0 0 281.11 203.66
  L 285.03 208.85
  A 0.38 0.38 0.0 0 0 285.71 208.59
  L 284.98 200.38"
/>
<path stroke="#ececec" vector-effect="non-scaling-stroke" d="
  M 185.21 212.50
  Q 181.45 213.41 180.08 210.38
  Q 178.54 206.97 176.99 205.72"
/>
<path stroke="#ececec" vector-effect="non-scaling-stroke" d="
  M 307.93 215.64
  Q 303.56 218.59 299.18 224.67
  Q 296.75 228.05 291.61 229.84
  A 1.56 1.54 -84.6 0 0 290.82 230.50
  L 288.18 234.92
  A 2.02 1.95 -0.5 0 1 287.43 235.66
  L 284.06 237.54
  A 1.59 1.59 0.0 0 0 283.37 238.32
  L 282.08 241.43
  A 0.79 0.79 0.0 0 1 281.40 241.91
  C 275.09 242.22 270.04 245.10 264.69 246.07
  C 262.13 246.53 256.00 246.65 254.16 248.16
  Q 253.75 248.50 254.28 248.48
  C 263.41 248.15 273.00 248.77 281.55 248.71
  Q 290.00 248.65 298.44 249.00"
/>
<path stroke="#ececec" vector-effect="non-scaling-stroke" d="
  M 217.94 249.00
  L 220.81 248.56
  Q 221.30 248.49 220.89 248.20
  C 213.54 243.06 204.39 241.60 199.17 232.43
  Q 196.67 228.04 193.06 224.30"
/>
<path stroke="#ececec" vector-effect="non-scaling-stroke" d="
  M 356.97 201.90
  Q 354.66 201.36 352.82 199.95
  A 0.85 0.84 16.1 0 1 352.50 199.38
  L 352.46 199.00"
/>
<path stroke="#ececec" vector-effect="non-scaling-stroke" d="
  M 214.94 249.00
  Q 209.81 248.37 204.69 249.00"
/>
<path stroke="#ececec" vector-effect="non-scaling-stroke" d="
  M 198.44 249.00
  Q 195.56 248.37 192.69 249.00"
/>
</g>
<path fill="#ffffff" d="
  M 0.00 0.00
  L 216.31 0.00
  C 215.94 4.89 216.48 17.65 220.34 21.92
  C 225.52 27.67 237.42 43.18 245.09 44.20
  C 263.52 46.67 286.76 41.32 295.46 22.79
  C 299.06 15.11 299.66 9.97 298.38 1.04
  A 0.97 0.95 11.4 0 0 297.89 0.32
  L 297.31 0.00
  L 447.00 0.00
  L 447.00 249.00
  L 367.49 249.01
  L 371.69 233.76
  Q 371.82 233.29 371.72 232.80
  L 371.21 230.50
  Q 375.70 227.19 379.00 222.66
  A 0.88 0.88 0.0 0 0 378.87 221.48
  C 368.76 212.57 366.52 199.58 366.79 186.25
  Q 380.20 185.02 391.95 178.39
  A 1.40 1.39 -8.2 0 0 392.62 177.50
  Q 393.63 173.38 397.80 172.41
  A 0.89 0.88 89.1 0 0 398.47 171.71
  Q 399.38 167.04 402.08 163.26
  C 404.55 159.79 404.80 155.98 404.31 151.96
  A 1.49 1.48 -34.3 0 1 404.49 151.02
  C 406.52 147.31 405.05 144.44 404.91 141.18
  C 404.65 134.63 404.77 127.65 403.96 121.54
  Q 402.62 111.38 399.93 101.46
  C 398.72 97.02 394.83 94.73 394.67 90.09
  C 394.45 83.94 395.57 75.22 391.50 70.25
  Q 384.35 61.50 378.10 52.11
  C 371.65 42.41 352.74 26.62 341.76 25.78
  Q 333.34 25.13 329.76 25.78
  C 322.38 27.11 319.80 30.00 314.77 35.81
  C 310.47 40.77 306.79 44.86 305.90 50.06
  C 304.71 57.03 306.08 69.05 311.28 75.32
  A 1.41 1.38 24.8 0 1 311.61 76.19
  Q 311.69 79.36 313.75 81.71
  Q 303.71 87.22 293.88 93.10
  C 289.94 95.46 286.02 95.84 281.72 95.98
  Q 279.80 96.04 281.38 94.95
  C 288.90 89.76 298.55 79.45 293.82 69.61
  A 2.65 2.65 0.0 0 0 291.78 68.13
  C 287.10 67.49 281.17 68.39 276.30 68.61
  Q 274.25 68.70 267.22 68.30
  C 257.86 67.76 248.53 70.87 239.71 73.79
  A 0.66 0.66 0.0 0 1 238.85 73.28
  L 237.79 66.85
  A 0.86 0.86 0.0 0 0 237.10 66.15
  C 230.59 65.02 220.72 71.55 215.58 75.24
  Q 214.24 76.20 214.11 74.56
  Q 213.89 71.65 212.00 69.54
  A 1.21 1.19 72.0 0 0 211.23 69.14
  C 203.70 68.31 196.50 73.06 190.96 77.10
  Q 190.28 77.59 190.21 76.75
  L 189.93 73.72
  A 0.69 0.68 72.1 0 0 188.90 73.19
  Q 183.56 76.35 180.29 81.51
  A 1.59 1.57 -32.1 0 0 180.05 82.53
  C 180.63 88.48 175.59 90.08 176.10 94.59
  Q 176.17 95.21 176.61 94.77
  L 179.25 92.12
  Q 179.87 91.50 179.89 92.38
  C 179.99 97.67 181.15 108.25 179.08 112.90
  Q 175.92 119.99 176.81 127.49
  A 1.38 1.37 73.5 0 1 176.06 128.88
  C 166.13 133.77 159.36 132.06 149.99 127.85
  A 0.62 0.61 -72.3 0 1 149.64 127.16
  C 150.59 122.18 147.88 114.75 146.89 109.26
  Q 146.54 107.37 148.45 107.16
  C 157.48 106.17 165.03 105.66 169.94 96.62
  Q 171.06 94.56 168.78 95.14
  Q 158.41 97.78 147.72 98.13
  A 0.69 0.68 88.8 0 1 147.01 97.44
  L 147.04 88.00
  L 148.32 88.01
  A 1.41 1.37 24.7 0 0 149.20 87.70
  Q 153.71 84.01 156.54 79.07
  C 158.82 75.10 161.14 72.10 163.19 68.45
  A 0.80 0.80 0.0 0 1 163.92 68.04
  Q 164.58 68.07 165.00 67.79
  Q 172.57 66.50 173.26 72.71
  Q 173.55 75.35 175.59 73.65
  C 178.41 71.29 182.92 67.87 183.11 64.14
  C 183.47 57.31 175.86 57.39 170.00 58.21
  C 171.25 53.03 171.58 48.09 173.35 42.92
  C 175.57 36.43 174.22 31.38 171.38 24.97
  C 169.97 21.81 167.09 20.52 164.25 18.91
  Q 163.81 18.67 163.55 18.23
  C 159.19 10.88 154.78 10.62 147.16 8.83
  Q 144.98 8.32 142.67 8.82
  C 135.94 10.25 128.62 9.93 123.49 14.99
  Q 116.24 22.13 108.25 26.11
  Q 111.67 14.95 118.14 5.50
  C 118.19 5.43 118.26 4.52 118.24 4.48
  A 0.50 0.49 61.2 0 0 117.53 4.27
  C 106.22 11.54 99.72 28.16 95.46 41.50
  C 91.81 42.02 91.76 45.35 88.50 46.79
  L 85.20 39.18
  A 0.52 0.51 62.4 0 0 84.46 38.94
  Q 79.52 41.97 76.21 46.73
  A 2.81 2.80 52.1 0 0 75.89 49.32
  L 80.79 62.50
  C 79.05 66.66 78.88 70.75 77.11 74.93
  A 1.80 1.77 53.1 0 0 76.98 75.89
  Q 77.67 81.18 73.09 83.67
  A 1.16 1.14 81.5 0 0 72.49 84.49
  C 71.09 92.02 68.55 100.09 67.31 106.75
  Q 65.10 118.57 63.26 132.49
  Q 62.85 135.61 64.04 138.00
  Q 59.34 147.07 58.24 157.40
  A 0.58 0.57 -89.2 0 0 58.86 158.04
  Q 61.38 157.84 64.01 155.71
  Q 64.62 159.95 64.97 164.23
  Q 65.35 169.05 66.41 172.61
  Q 69.77 183.92 75.03 196.23
  Q 76.60 199.90 78.83 202.32
  A 1.01 0.99 -22.7 0 0 79.63 202.64
  L 81.96 202.50
  C 81.59 211.77 78.12 223.37 86.77 229.55
  C 95.40 235.71 109.03 235.19 118.43 229.47
  Q 119.16 235.76 117.54 242.03
  A 1.62 1.53 -49.1 0 0 117.58 242.98
  Q 118.63 245.91 118.44 249.00
  L 0.00 249.00
  L 0.00 0.00
  Z"
/>
<path fill="#d9d9d9" d="
  M 216.31 0.00
  L 297.31 0.00
  L 297.89 0.32
  A 0.97 0.95 11.4 0 1 298.38 1.04
  C 299.66 9.97 299.06 15.11 295.46 22.79
  C 286.76 41.32 263.52 46.67 245.09 44.20
  C 237.42 43.18 225.52 27.67 220.34 21.92
  C 216.48 17.65 215.94 4.89 216.31 0.00
  Z"
/>
<path fill="#040404" d="
  M 108.25 26.11
  Q 100.81 45.61 98.21 66.69
  Q 98.02 68.24 98.72 69.63
  L 104.30 80.60
  A 0.32 0.32 0.0 0 0 104.85 80.64
  C 119.32 60.44 131.18 39.95 145.40 21.66
  Q 148.49 17.69 153.28 14.84
  A 0.51 0.51 0.0 0 1 153.99 15.04
  Q 154.29 15.57 153.97 15.98
  Q 142.88 30.23 133.20 45.43
  C 124.09 59.74 116.05 71.20 106.99 83.87
  A 1.53 1.52 -45.2 0 0 106.99 85.64
  L 124.41 110.04
  Q 124.79 110.57 124.90 109.92
  C 126.41 101.16 128.80 93.38 137.68 89.62
  A 1.61 1.59 -3.1 0 0 138.57 88.64
  C 143.07 74.75 154.72 60.17 170.00 58.21
  C 175.86 57.39 183.47 57.31 183.11 64.14
  C 182.92 67.87 178.41 71.29 175.59 73.65
  Q 173.55 75.35 173.26 72.71
  Q 172.57 66.50 165.00 67.79
  C 161.46 67.76 154.18 68.59 152.27 71.54
  Q 148.23 77.79 147.04 88.00
  L 147.01 97.44
  A 0.69 0.68 88.8 0 0 147.72 98.13
  Q 158.41 97.78 168.78 95.14
  Q 171.06 94.56 169.94 96.62
  C 165.03 105.66 157.48 106.17 148.45 107.16
  Q 146.54 107.37 146.89 109.26
  C 147.88 114.75 150.59 122.18 149.64 127.16
  A 0.62 0.61 -72.3 0 0 149.99 127.85
  C 159.36 132.06 166.13 133.77 176.06 128.88
  A 1.38 1.37 73.5 0 0 176.81 127.49
  Q 175.92 119.99 179.08 112.90
  C 181.15 108.25 179.99 97.67 179.89 92.38
  Q 179.87 91.50 179.25 92.12
  L 176.61 94.77
  Q 176.17 95.21 176.10 94.59
  C 175.59 90.08 180.63 88.48 180.05 82.53
  A 1.59 1.57 -32.1 0 1 180.29 81.51
  Q 183.56 76.35 188.90 73.19
  A 0.69 0.68 72.1 0 1 189.93 73.72
  L 190.21 76.75
  Q 190.28 77.59 190.96 77.10
  C 196.50 73.06 203.70 68.31 211.23 69.14
  A 1.21 1.19 72.0 0 1 212.00 69.54
  Q 213.89 71.65 214.11 74.56
  Q 214.24 76.20 215.58 75.24
  C 220.72 71.55 230.59 65.02 237.10 66.15
  A 0.86 0.86 0.0 0 1 237.79 66.85
  L 238.85 73.28
  A 0.66 0.66 0.0 0 0 239.71 73.79
  C 248.53 70.87 257.86 67.76 267.22 68.30
  Q 274.25 68.70 276.30 68.61
  C 281.17 68.39 287.10 67.49 291.78 68.13
  A 2.65 2.65 0.0 0 1 293.82 69.61
  C 298.55 79.45 288.90 89.76 281.38 94.95
  Q 279.80 96.04 281.72 95.98
  C 286.02 95.84 289.94 95.46 293.88 93.10
  Q 303.71 87.22 313.75 81.71
  Q 327.22 75.39 340.41 68.52
  C 341.65 67.87 343.01 67.81 344.34 67.73
  Q 345.51 67.66 344.77 68.56
  L 340.92 73.24
  A 0.29 0.29 0.0 0 0 341.02 73.69
  Q 342.14 74.19 342.16 75.57
  Q 342.38 88.24 342.10 100.99
  A 0.37 0.37 0.0 0 0 342.51 101.37
  L 356.46 99.83
  Q 357.47 99.72 356.95 100.59
  C 354.24 105.14 349.54 110.29 343.75 110.07
  A 0.40 0.40 0.0 0 0 343.34 110.54
  C 344.33 116.10 347.83 124.13 353.46 126.36
  A 0.77 0.77 0.0 0 1 353.81 127.51
  Q 350.05 133.00 344.45 136.60
  A 0.73 0.72 46.2 0 1 343.62 136.58
  Q 336.60 131.48 334.10 123.27
  L 332.08 112.89
  A 1.30 1.30 0.0 0 0 330.66 111.85
  L 314.28 113.61
  A 1.47 1.46 -88.7 0 0 312.99 114.85
  C 311.47 124.41 322.33 124.66 327.80 121.07
  Q 328.15 120.84 328.54 121.05
  A 0.50 0.49 31.0 0 1 328.72 121.76
  C 323.93 129.11 316.74 134.98 307.31 132.43
  C 301.71 130.91 303.09 125.60 302.97 121.36
  Q 302.94 120.24 302.28 121.15
  Q 294.87 131.25 284.36 137.57
  C 277.13 141.92 258.77 147.12 252.11 139.75
  C 245.32 132.21 254.00 123.28 259.27 118.37
  A 3.13 3.13 0.0 0 0 260.25 115.96
  L 259.94 108.45
  Q 259.90 107.49 259.22 108.17
  Q 258.19 109.20 256.63 108.98
  A 0.56 0.55 -67.3 0 1 256.27 108.09
  L 259.70 103.66
  A 1.48 1.46 63.6 0 0 259.99 102.78
  L 260.00 78.36
  A 0.52 0.52 0.0 0 0 259.48 77.84
  Q 249.26 77.95 239.58 81.11
  A 0.76 0.75 -8.8 0 0 239.06 81.81
  Q 238.61 100.82 240.10 119.76
  Q 240.62 126.36 243.80 131.07
  A 2.00 1.98 -42.3 0 1 243.68 133.45
  Q 239.82 138.05 235.10 141.79
  A 0.55 0.54 -36.3 0 1 234.33 141.68
  C 230.78 136.77 230.11 129.36 229.77 123.49
  Q 228.64 104.17 229.03 84.73
  A 0.45 0.44 82.8 0 0 228.47 84.29
  L 217.08 87.48
  A 1.62 1.62 0.0 0 0 215.90 89.13
  C 216.85 105.95 213.55 118.05 201.04 129.70
  Q 196.37 134.06 190.42 136.88
  A 1.03 1.02 75.3 0 0 189.84 137.88
  Q 190.72 148.26 192.93 158.46
  A 0.78 0.77 -6.0 0 0 193.69 159.07
  L 208.02 158.97
  Q 209.14 158.97 208.52 159.90
  L 204.96 165.25
  L 204.04 165.64
  Q 203.59 165.84 203.26 166.20
  C 200.06 169.71 199.67 173.23 198.19 177.48
  Q 197.47 179.54 197.49 181.69
  Q 195.57 191.99 195.58 204.75
  C 195.59 208.61 195.76 213.82 200.60 214.23
  A 0.80 0.80 0.0 0 1 201.26 215.34
  Q 198.86 220.99 193.06 224.30
  Q 191.68 225.53 190.06 224.71
  C 186.05 222.68 185.11 216.63 185.21 212.50
  Q 185.54 200.50 187.49 188.70
  C 188.32 183.66 184.87 174.63 183.56 169.52
  A 0.59 0.58 -8.6 0 0 182.97 169.09
  Q 166.75 169.77 150.95 173.41
  A 1.14 1.14 0.0 0 0 150.07 174.45
  C 149.58 183.36 148.22 193.69 149.35 202.53
  Q 149.41 203.03 149.75 202.66
  C 155.82 196.04 164.31 187.61 173.67 187.11
  Q 176.76 186.95 177.41 189.97
  Q 179.18 198.23 176.99 205.72
  C 169.96 218.51 158.74 227.06 143.76 227.24
  A 1.20 1.20 0.0 0 0 142.84 227.67
  Q 141.04 229.80 138.83 228.24
  Q 138.40 227.93 137.88 227.83
  L 132.78 226.80
  A 0.44 0.44 0.0 0 1 132.53 226.09
  L 138.50 218.91
  A 1.75 1.70 -25.3 0 0 138.90 217.84
  L 139.01 210.18
  Q 139.03 208.92 138.37 210.00
  C 136.91 212.38 135.78 214.68 133.76 216.62
  Q 126.43 223.67 118.43 229.47
  C 109.03 235.19 95.40 235.71 86.77 229.55
  C 78.12 223.37 81.59 211.77 81.96 202.50
  C 83.75 187.74 90.52 167.25 104.53 160.30
  Q 107.12 159.01 110.01 159.09
  Q 124.38 159.47 136.00 167.71
  L 141.67 172.98
  A 0.41 0.40 -51.8 0 0 142.29 172.90
  Q 145.89 167.46 152.53 165.55
  Q 166.98 161.40 180.62 159.91
  A 0.51 0.51 0.0 0 0 181.07 159.36
  Q 180.14 149.13 179.75 138.85
  C 179.67 136.59 178.39 135.17 177.24 133.35
  A 0.47 0.46 -34.8 0 0 176.57 133.23
  C 166.33 141.00 155.30 144.89 143.12 139.09
  A 0.76 0.75 37.6 0 0 142.31 139.19
  L 136.58 143.86
  A 0.71 0.70 41.3 0 1 135.76 143.91
  L 131.39 141.22
  L 124.65 134.03
  A 0.38 0.38 0.0 0 0 124.04 134.10
  Q 117.81 145.25 108.30 151.82
  C 90.50 164.11 86.28 121.14 85.69 112.74
  Q 85.66 112.24 85.36 112.65
  C 79.40 121.00 72.38 131.08 69.20 141.72
  Q 69.06 142.20 69.47 141.92
  C 70.20 141.41 75.83 136.95 76.03 136.98
  A 0.63 0.63 0.0 0 1 76.50 137.86
  Q 71.90 148.26 64.01 155.71
  Q 61.38 157.84 58.86 158.04
  A 0.58 0.57 -89.2 0 1 58.24 157.40
  Q 59.34 147.07 64.04 138.00
  Q 73.77 121.71 85.32 106.97
  A 2.84 2.83 64.5 0 0 85.93 105.24
  Q 86.04 91.89 87.73 78.63
  A 3.72 3.64 -54.4 0 0 87.42 76.63
  L 80.79 62.50
  L 75.89 49.32
  A 2.81 2.80 52.1 0 1 76.21 46.73
  Q 79.52 41.97 84.46 38.94
  A 0.52 0.51 62.4 0 1 85.20 39.18
  L 88.50 46.79
  L 91.29 54.04
  Q 91.50 54.61 91.68 54.03
  L 95.46 41.50
  C 99.72 28.16 106.22 11.54 117.53 4.27
  A 0.50 0.49 61.2 0 1 118.24 4.48
  C 118.26 4.52 118.19 5.43 118.14 5.50
  Q 111.67 14.95 108.25 26.11
  Z
  M 323.25 89.46
  Q 318.24 96.30 315.24 104.22
  A 0.30 0.30 0.0 0 0 315.56 104.62
  L 329.25 102.96
  Q 330.38 103.19 331.52 102.87
  A 0.63 0.63 0.0 0 0 331.98 102.26
  L 332.03 84.80
  Q 332.04 82.36 333.76 80.65
  L 338.77 75.66
  Q 341.46 72.98 338.44 75.28
  L 335.54 77.49
  Q 335.13 77.80 334.66 77.98
  Q 329.96 79.78 326.67 84.42
  Q 323.79 88.48 323.25 89.46
  Z
  M 226.29 75.86
  Q 220.07 76.24 215.29 80.27
  A 1.00 0.99 -24.8 0 0 214.95 81.17
  L 215.70 85.76
  Q 215.87 86.82 216.42 85.90
  Q 220.01 79.86 226.60 77.22
  Q 230.69 75.58 226.29 75.86
  Z
  M 284.73 86.88
  C 287.36 75.74 278.32 77.80 270.61 78.11
  A 0.64 0.63 -1.4 0 0 270.00 78.74
  L 270.00 96.47
  A 0.39 0.39 0.0 0 0 270.50 96.84
  C 274.69 95.57 283.61 91.63 284.73 86.88
  Z
  M 190.91 97.35
  Q 195.75 90.93 201.74 86.39
  C 204.47 84.31 204.86 82.04 202.61 79.48
  A 1.34 1.32 71.3 0 0 201.71 79.03
  Q 195.48 78.50 190.43 82.13
  A 1.04 1.04 0.0 0 0 190.00 82.97
  L 190.00 97.04
  Q 190.00 98.55 190.91 97.35
  Z
  M 298.05 96.52
  Q 302.74 100.17 303.57 106.05
  A 1.23 1.23 0.0 0 0 305.47 106.90
  Q 307.59 105.50 308.91 103.48
  Q 315.48 93.45 322.47 83.79
  Q 322.99 83.07 322.19 83.46
  L 298.16 95.42
  A 0.66 0.65 -39.5 0 0 298.05 96.52
  Z
  M 190.56 128.04
  Q 195.54 128.75 199.55 126.43
  C 207.69 121.74 206.10 96.81 204.96 89.27
  Q 204.65 87.20 203.11 88.62
  Q 196.33 94.89 190.66 102.23
  A 3.08 3.05 64.2 0 0 190.01 104.12
  L 190.00 127.40
  A 0.65 0.64 -86.5 0 0 190.56 128.04
  Z
  M 102.48 135.97
  C 104.92 142.06 111.93 149.30 116.20 138.87
  Q 118.25 133.86 119.47 130.26
  Q 120.34 127.69 118.75 125.49
  L 99.24 98.49
  Q 96.22 94.32 96.07 99.47
  Q 95.52 118.59 102.48 135.97
  Z
  M 275.53 105.23
  C 273.47 105.84 268.50 105.24 270.38 108.95
  A 0.36 0.36 0.0 0 0 270.91 109.08
  L 275.66 105.49
  Q 276.29 105.01 275.53 105.23
  Z
  M 273.96 128.22
  Q 274.05 130.73 272.59 132.82
  Q 272.34 133.18 272.78 133.19
  C 277.37 133.24 292.66 131.25 293.94 125.73
  C 295.38 119.49 293.20 104.07 283.35 105.42
  C 279.40 105.96 274.08 110.79 270.40 113.49
  A 0.85 0.84 -22.7 0 0 270.07 114.28
  C 270.40 116.40 270.79 125.20 272.50 126.00
  A 2.56 2.54 11.9 0 1 273.96 128.22
  Z
  M 131.90 115.26
  C 129.19 117.68 133.04 122.72 135.00 124.43
  Q 135.60 124.95 135.36 124.19
  L 132.70 115.49
  A 0.50 0.49 60.6 0 0 131.90 115.26
  Z
  M 96.93 212.10
  Q 102.36 220.40 111.75 221.24
  Q 119.02 221.90 125.50 218.71
  Q 130.65 216.10 132.96 210.75
  Q 137.84 200.99 136.05 189.99
  C 132.00 176.54 113.85 169.51 101.02 168.95
  A 2.17 2.16 9.7 0 0 98.86 170.47
  Q 92.61 190.73 96.93 212.10
  Z
  M 155.92 201.08
  C 153.00 203.61 150.97 212.54 150.15 216.70
  A 0.43 0.43 0.0 0 0 150.56 217.21
  C 155.33 217.44 166.63 217.29 167.94 211.22
  Q 168.69 207.72 167.50 200.46
  C 167.17 193.87 158.35 198.30 155.92 201.08
  Z"
/>
<path fill="#d9d9d9" d="
  M 170.00 58.21
  C 154.72 60.17 143.07 74.75 138.57 88.64
  A 1.61 1.59 -3.1 0 1 137.68 89.62
  C 128.80 93.38 126.41 101.16 124.90 109.92
  Q 124.79 110.57 124.41 110.04
  L 106.99 85.64
  A 1.53 1.52 -45.2 0 1 106.99 83.87
  C 116.05 71.20 124.09 59.74 133.20 45.43
  Q 142.88 30.23 153.97 15.98
  Q 154.29 15.57 153.99 15.04
  A 0.51 0.51 0.0 0 0 153.28 14.84
  Q 148.49 17.69 145.40 21.66
  C 131.18 39.95 119.32 60.44 104.85 80.64
  A 0.32 0.32 0.0 0 1 104.30 80.60
  L 98.72 69.63
  Q 98.02 68.24 98.21 66.69
  Q 100.81 45.61 108.25 26.11
  Q 116.24 22.13 123.49 14.99
  C 128.62 9.93 135.94 10.25 142.67 8.82
  Q 144.98 8.32 147.16 8.83
  C 154.78 10.62 159.19 10.88 163.55 18.23
  Q 163.81 18.67 164.25 18.91
  C 167.09 20.52 169.97 21.81 171.38 24.97
  C 174.22 31.38 175.57 36.43 173.35 42.92
  C 171.58 48.09 171.25 53.03 170.00 58.21
  Z"
/>
<path fill="#d9d9d9" d="
  M 366.79 186.25
  L 366.98 167.12
  A 1.47 1.45 67.5 0 1 367.38 166.14
  L 372.49 160.74
  Q 374.95 158.15 371.40 157.79
  C 362.95 156.96 349.22 168.33 343.79 174.25
  C 340.48 167.71 335.67 160.22 333.93 153.15
  Q 332.70 148.15 333.06 145.24
  Q 333.97 137.67 332.36 128.52
  Q 331.87 125.73 334.10 123.27
  Q 336.60 131.48 343.62 136.58
  A 0.73 0.72 46.2 0 0 344.45 136.60
  Q 350.05 133.00 353.81 127.51
  A 0.77 0.77 0.0 0 0 353.46 126.36
  C 347.83 124.13 344.33 116.10 343.34 110.54
  A 0.40 0.40 0.0 0 1 343.75 110.07
  C 349.54 110.29 354.24 105.14 356.95 100.59
  Q 357.47 99.72 356.46 99.83
  L 342.51 101.37
  A 0.37 0.37 0.0 0 1 342.10 100.99
  Q 342.38 88.24 342.16 75.57
  Q 342.14 74.19 341.02 73.69
  A 0.29 0.29 0.0 0 1 340.92 73.24
  L 344.77 68.56
  Q 345.51 67.66 344.34 67.73
  C 343.01 67.81 341.65 67.87 340.41 68.52
  Q 327.22 75.39 313.75 81.71
  Q 311.69 79.36 311.61 76.19
  A 1.41 1.38 24.8 0 0 311.28 75.32
  C 306.08 69.05 304.71 57.03 305.90 50.06
  C 306.79 44.86 310.47 40.77 314.77 35.81
  C 319.80 30.00 322.38 27.11 329.76 25.78
  Q 333.34 25.13 341.76 25.78
  C 352.74 26.62 371.65 42.41 378.10 52.11
  Q 384.35 61.50 391.50 70.25
  C 395.57 75.22 394.45 83.94 394.67 90.09
  C 394.83 94.73 398.72 97.02 399.93 101.46
  Q 402.62 111.38 403.96 121.54
  C 404.77 127.65 404.65 134.63 404.91 141.18
  C 405.05 144.44 406.52 147.31 404.49 151.02
  A 1.49 1.48 -34.3 0 0 404.31 151.96
  C 404.80 155.98 404.55 159.79 402.08 163.26
  Q 399.38 167.04 398.47 171.71
  A 0.89 0.88 89.1 0 1 397.80 172.41
  Q 393.63 173.38 392.62 177.50
  A 1.40 1.39 -8.2 0 1 391.95 178.39
  Q 380.20 185.02 366.79 186.25
  Z"
/>
<path fill="#d9d9d9" d="
  M 95.46 41.50
  L 91.68 54.03
  Q 91.50 54.61 91.29 54.04
  L 88.50 46.79
  C 91.76 45.35 91.81 42.02 95.46 41.50
  Z"
/>
<path fill="#d9d9d9" d="
  M 80.79 62.50
  L 87.42 76.63
  A 3.72 3.64 -54.4 0 1 87.73 78.63
  Q 86.04 91.89 85.93 105.24
  A 2.84 2.83 64.5 0 1 85.32 106.97
  Q 73.77 121.71 64.04 138.00
  Q 62.85 135.61 63.26 132.49
  Q 65.10 118.57 67.31 106.75
  C 68.55 100.09 71.09 92.02 72.49 84.49
  A 1.16 1.14 81.5 0 1 73.09 83.67
  Q 77.67 81.18 76.98 75.89
  A 1.80 1.77 53.1 0 1 77.11 74.93
  C 78.88 70.75 79.05 66.66 80.79 62.50
  Z"
/>
<path fill="#d9d9d9" d="
  M 165.00 67.79
  Q 164.58 68.07 163.92 68.04
  A 0.80 0.80 0.0 0 0 163.19 68.45
  C 161.14 72.10 158.82 75.10 156.54 79.07
  Q 153.71 84.01 149.20 87.70
  A 1.41 1.37 24.7 0 1 148.32 88.01
  L 147.04 88.00
  Q 148.23 77.79 152.27 71.54
  C 154.18 68.59 161.46 67.76 165.00 67.79
  Z"
/>
<path fill="#d9d9d9" d="
  M 329.25 102.96
  L 324.01 94.80
  A 1.62 1.57 -61.9 0 1 323.75 93.89
  L 323.77 90.06
  A 0.49 0.47 -73.7 0 0 323.56 89.66
  L 323.25 89.46
  Q 323.79 88.48 326.67 84.42
  Q 329.96 79.78 334.66 77.98
  Q 335.13 77.80 335.54 77.49
  L 338.44 75.28
  Q 341.46 72.98 338.77 75.66
  L 333.76 80.65
  Q 332.04 82.36 332.03 84.80
  L 331.98 102.26
  A 0.63 0.63 0.0 0 1 331.52 102.87
  Q 330.38 103.19 329.25 102.96
  Z"
/>
<path fill="#ffffff" d="
  M 226.29 75.86
  Q 230.69 75.58 226.60 77.22
  Q 220.01 79.86 216.42 85.90
  Q 215.87 86.82 215.70 85.76
  L 214.95 81.17
  A 1.00 0.99 -24.8 0 1 215.29 80.27
  Q 220.07 76.24 226.29 75.86
  Z"
/>
<path fill="#ffffff" d="
  M 334.10 123.27
  Q 331.87 125.73 332.36 128.52
  Q 333.97 137.67 333.06 145.24
  Q 332.70 148.15 333.93 153.15
  C 335.67 160.22 340.48 167.71 343.79 174.25
  Q 337.07 181.89 332.48 190.95
  Q 331.58 192.72 329.91 194.07
  Q 325.21 197.85 322.04 203.00
  L 318.51 207.84
  Q 316.07 197.43 316.97 186.79
  A 1.29 1.28 -19.6 0 1 317.37 185.96
  Q 323.25 180.34 327.90 173.66
  C 331.13 169.01 336.26 157.68 325.79 156.67
  C 312.22 155.37 309.67 177.69 308.02 186.43
  A 0.77 0.76 87.6 0 1 307.49 187.02
  Q 301.65 188.74 295.59 189.08
  A 0.51 0.50 -1.6 0 1 295.05 188.58
  L 294.89 158.94
  Q 294.88 157.10 293.45 158.26
  L 286.75 163.71
  Q 285.01 165.13 285.01 167.38
  L 284.99 195.33
  A 1.30 1.30 0.0 0 1 284.09 196.57
  L 279.01 198.20
  A 0.70 0.69 -19.8 0 1 278.15 197.80
  C 272.90 184.86 272.70 172.91 273.05 159.17
  Q 273.09 157.57 271.69 158.34
  Q 266.06 161.44 262.95 167.45
  Q 261.84 169.60 260.35 171.00
  Q 248.53 182.11 242.38 197.26
  C 241.53 199.35 238.41 206.71 237.75 206.76
  A 0.54 0.54 0.0 0 1 237.17 206.27
  C 235.93 194.13 237.95 179.84 239.40 167.68
  Q 239.51 166.79 240.94 164.01
  A 0.45 0.45 0.0 0 0 240.60 163.36
  L 239.84 163.25
  A 1.13 1.11 -17.2 0 1 239.14 162.89
  C 237.03 160.64 229.85 170.63 229.04 172.17
  C 225.37 179.11 219.41 185.45 214.70 191.84
  A 0.31 0.31 0.0 0 1 214.17 191.80
  C 209.90 183.59 207.93 174.01 204.96 165.25
  L 208.52 159.90
  Q 209.14 158.97 208.02 158.97
  L 193.69 159.07
  A 0.78 0.77 -6.0 0 1 192.93 158.46
  Q 190.72 148.26 189.84 137.88
  A 1.03 1.02 75.3 0 1 190.42 136.88
  Q 196.37 134.06 201.04 129.70
  C 213.55 118.05 216.85 105.95 215.90 89.13
  A 1.62 1.62 0.0 0 1 217.08 87.48
  L 228.47 84.29
  A 0.45 0.44 82.8 0 1 229.03 84.73
  Q 228.64 104.17 229.77 123.49
  C 230.11 129.36 230.78 136.77 234.33 141.68
  A 0.55 0.54 -36.3 0 0 235.10 141.79
  Q 239.82 138.05 243.68 133.45
  A 2.00 1.98 -42.3 0 0 243.80 131.07
  Q 240.62 126.36 240.10 119.76
  Q 238.61 100.82 239.06 81.81
  A 0.76 0.75 -8.8 0 1 239.58 81.11
  Q 249.26 77.95 259.48 77.84
  A 0.52 0.52 0.0 0 1 260.00 78.36
  L 259.99 102.78
  A 1.48 1.46 63.6 0 1 259.70 103.66
  L 256.27 108.09
  A 0.56 0.55 -67.3 0 0 256.63 108.98
  Q 258.19 109.20 259.22 108.17
  Q 259.90 107.49 259.94 108.45
  L 260.25 115.96
  A 3.13 3.13 0.0 0 1 259.27 118.37
  C 254.00 123.28 245.32 132.21 252.11 139.75
  C 258.77 147.12 277.13 141.92 284.36 137.57
  Q 294.87 131.25 302.28 121.15
  Q 302.94 120.24 302.97 121.36
  C 303.09 125.60 301.71 130.91 307.31 132.43
  C 316.74 134.98 323.93 129.11 328.72 121.76
  A 0.50 0.49 31.0 0 0 328.54 121.05
  Q 328.15 120.84 327.80 121.07
  C 322.33 124.66 311.47 124.41 312.99 114.85
  A 1.47 1.46 -88.7 0 1 314.28 113.61
  L 330.66 111.85
  A 1.30 1.30 0.0 0 1 332.08 112.89
  L 334.10 123.27
  Z"
/>
<path fill="#ffffff" d="
  M 284.73 86.88
  C 283.61 91.63 274.69 95.57 270.50 96.84
  A 0.39 0.39 0.0 0 1 270.00 96.47
  L 270.00 78.74
  A 0.64 0.63 -1.4 0 1 270.61 78.11
  C 278.32 77.80 287.36 75.74 284.73 86.88
  Z"
/>
<path fill="#ffffff" d="
  M 190.91 97.35
  Q 190.00 98.55 190.00 97.04
  L 190.00 82.97
  A 1.04 1.04 0.0 0 1 190.43 82.13
  Q 195.48 78.50 201.71 79.03
  A 1.34 1.32 71.3 0 1 202.61 79.48
  C 204.86 82.04 204.47 84.31 201.74 86.39
  Q 195.75 90.93 190.91 97.35
  Z"
/>
<path fill="#ffffff" d="
  M 298.16 95.42
  L 322.19 83.46
  Q 322.99 83.07 322.47 83.79
  Q 315.48 93.45 308.91 103.48
  Q 307.59 105.50 305.47 106.90
  A 1.23 1.23 0.0 0 1 303.57 106.05
  Q 302.74 100.17 298.05 96.52
  A 0.66 0.65 -39.5 0 1 298.16 95.42
  Z"
/>
<path fill="#ffffff" d="
  M 190.56 128.04
  A 0.65 0.64 -86.5 0 1 190.00 127.40
  L 190.01 104.12
  A 3.08 3.05 64.2 0 1 190.66 102.23
  Q 196.33 94.89 203.11 88.62
  Q 204.65 87.20 204.96 89.27
  C 206.10 96.81 207.69 121.74 199.55 126.43
  Q 195.54 128.75 190.56 128.04
  Z"
/>
<path fill="#ffffff" d="
  M 323.25 89.46
  L 323.56 89.66
  A 0.49 0.47 -73.7 0 1 323.77 90.06
  L 323.75 93.89
  A 1.62 1.57 -61.9 0 0 324.01 94.80
  L 329.25 102.96
  L 315.56 104.62
  A 0.30 0.30 0.0 0 1 315.24 104.22
  Q 318.24 96.30 323.25 89.46
  Z"
/>
<path fill="#d9d9d9" d="
  M 116.20 138.87
  C 111.93 149.30 104.92 142.06 102.48 135.97
  Q 95.52 118.59 96.07 99.47
  Q 96.22 94.32 99.24 98.49
  L 118.75 125.49
  Q 120.34 127.69 119.47 130.26
  Q 118.25 133.86 116.20 138.87
  Z"
/>
<path fill="#ffffff" d="
  M 275.66 105.49
  L 270.91 109.08
  A 0.36 0.36 0.0 0 1 270.38 108.95
  C 268.50 105.24 273.47 105.84 275.53 105.23
  Q 276.29 105.01 275.66 105.49
  Z"
/>
<path fill="#ffffff" d="
  M 273.96 128.22
  A 2.56 2.54 11.9 0 0 272.50 126.00
  C 270.79 125.20 270.40 116.40 270.07 114.28
  A 0.85 0.84 -22.7 0 1 270.40 113.49
  C 274.08 110.79 279.40 105.96 283.35 105.42
  C 293.20 104.07 295.38 119.49 293.94 125.73
  C 292.66 131.25 277.37 133.24 272.78 133.19
  Q 272.34 133.18 272.59 132.82
  Q 274.05 130.73 273.96 128.22
  Z"
/>
<path fill="#d9d9d9" d="
  M 131.39 141.22
  Q 131.54 143.73 132.86 145.90
  A 1.27 1.22 -54.9 0 1 133.00 146.81
  Q 131.61 152.83 133.43 158.64
  C 134.34 161.54 136.72 163.55 136.00 167.71
  Q 124.38 159.47 110.01 159.09
  Q 107.12 159.01 104.53 160.30
  C 90.52 167.25 83.75 187.74 81.96 202.50
  L 79.63 202.64
  A 1.01 0.99 -22.7 0 1 78.83 202.32
  Q 76.60 199.90 75.03 196.23
  Q 69.77 183.92 66.41 172.61
  Q 65.35 169.05 64.97 164.23
  Q 64.62 159.95 64.01 155.71
  Q 71.90 148.26 76.50 137.86
  A 0.63 0.63 0.0 0 0 76.03 136.98
  C 75.83 136.95 70.20 141.41 69.47 141.92
  Q 69.06 142.20 69.20 141.72
  C 72.38 131.08 79.40 121.00 85.36 112.65
  Q 85.66 112.24 85.69 112.74
  C 86.28 121.14 90.50 164.11 108.30 151.82
  Q 117.81 145.25 124.04 134.10
  A 0.38 0.38 0.0 0 1 124.65 134.03
  L 131.39 141.22
  Z"
/>
<path fill="#d9d9d9" d="
  M 132.70 115.49
  L 135.36 124.19
  Q 135.60 124.95 135.00 124.43
  C 133.04 122.72 129.19 117.68 131.90 115.26
  A 0.50 0.49 60.6 0 1 132.70 115.49
  Z"
/>
<path fill="#ffffff" d="
  M 136.00 167.71
  C 136.72 163.55 134.34 161.54 133.43 158.64
  Q 131.61 152.83 133.00 146.81
  A 1.27 1.22 -54.9 0 0 132.86 145.90
  Q 131.54 143.73 131.39 141.22
  L 135.76 143.91
  A 0.71 0.70 41.3 0 0 136.58 143.86
  L 142.31 139.19
  A 0.76 0.75 37.6 0 1 143.12 139.09
  C 155.30 144.89 166.33 141.00 176.57 133.23
  A 0.47 0.46 -34.8 0 1 177.24 133.35
  C 178.39 135.17 179.67 136.59 179.75 138.85
  Q 180.14 149.13 181.07 159.36
  A 0.51 0.51 0.0 0 1 180.62 159.91
  Q 166.98 161.40 152.53 165.55
  Q 145.89 167.46 142.29 172.90
  A 0.41 0.40 -51.8 0 1 141.67 172.98
  L 136.00 167.71
  Z"
/>
<path fill="#040404" d="
  M 318.51 207.84
  Q 322.17 212.35 327.05 213.86
  A 0.64 0.64 0.0 0 0 327.88 213.29
  L 328.47 203.58
  A 0.45 0.45 0.0 0 0 328.03 203.10
  L 322.04 203.00
  Q 325.21 197.85 329.91 194.07
  Q 331.58 192.72 332.48 190.95
  Q 337.07 181.89 343.79 174.25
  C 349.22 168.33 362.95 156.96 371.40 157.79
  Q 374.95 158.15 372.49 160.74
  L 367.38 166.14
  A 1.47 1.45 67.5 0 0 366.98 167.12
  L 366.79 186.25
  C 366.52 199.58 368.76 212.57 378.87 221.48
  A 0.88 0.88 0.0 0 1 379.00 222.66
  Q 375.70 227.19 371.21 230.50
  L 370.46 230.82
  A 0.89 0.89 0.0 0 1 369.59 230.73
  C 360.36 224.10 357.58 212.69 356.97 201.90
  L 356.96 195.24
  Q 356.96 194.37 356.35 194.99
  L 352.46 199.00
  C 348.79 201.81 342.94 201.52 338.46 202.20
  A 0.50 0.49 81.0 0 0 338.05 202.78
  C 338.70 206.46 340.66 209.61 344.44 210.82
  Q 348.03 211.97 350.90 211.24
  Q 354.43 210.34 352.04 213.09
  C 346.34 219.67 340.03 224.63 331.15 218.97
  A 0.64 0.62 -50.3 0 0 330.38 219.05
  C 326.83 222.43 324.51 225.30 318.92 223.95
  Q 311.57 222.19 307.93 215.64
  C 306.02 209.78 306.99 200.77 306.96 194.45
  A 0.39 0.38 81.2 0 0 306.46 194.08
  L 296.15 197.28
  A 0.72 0.72 0.0 0 0 295.64 197.98
  C 295.77 203.46 295.72 210.08 298.92 214.51
  A 0.70 0.69 56.3 0 0 299.85 214.70
  Q 300.93 214.04 301.58 215.04
  Q 302.58 216.61 301.28 217.93
  L 293.61 225.76
  Q 291.85 227.56 290.22 225.63
  Q 287.55 222.49 286.90 218.47
  Q 286.77 217.61 286.15 218.22
  L 281.62 222.75
  A 1.03 1.02 40.4 0 1 280.28 222.85
  Q 272.77 217.30 268.93 208.76
  A 0.70 0.70 0.0 0 0 268.19 208.36
  C 264.26 209.00 255.66 209.54 252.70 212.04
  C 248.88 215.27 243.19 221.92 238.51 222.26
  Q 227.54 223.08 227.03 212.47
  Q 226.35 198.41 228.84 181.23
  Q 229.01 180.07 228.98 179.23
  Q 228.94 178.36 228.42 179.06
  L 216.48 195.28
  A 0.65 0.65 0.0 0 0 216.49 196.05
  Q 219.25 199.60 223.79 199.27
  Q 224.68 199.20 224.13 199.90
  C 220.88 203.98 214.58 212.85 208.76 207.31
  A 1.25 1.25 0.0 0 0 206.93 207.43
  Q 206.19 208.36 205.10 208.98
  Q 203.03 210.16 203.88 207.93
  L 205.30 204.17
  A 1.21 1.19 -48.5 0 0 205.25 203.20
  Q 199.98 192.97 197.49 181.69
  Q 197.47 179.54 198.19 177.48
  C 199.67 173.23 200.06 169.71 203.26 166.20
  Q 203.59 165.84 204.04 165.64
  L 204.96 165.25
  C 207.93 174.01 209.90 183.59 214.17 191.80
  A 0.31 0.31 0.0 0 0 214.70 191.84
  C 219.41 185.45 225.37 179.11 229.04 172.17
  C 229.85 170.63 237.03 160.64 239.14 162.89
  A 1.13 1.11 -17.2 0 0 239.84 163.25
  L 240.60 163.36
  A 0.45 0.45 0.0 0 1 240.94 164.01
  Q 239.51 166.79 239.40 167.68
  C 237.95 179.84 235.93 194.13 237.17 206.27
  A 0.54 0.54 0.0 0 0 237.75 206.76
  C 238.41 206.71 241.53 199.35 242.38 197.26
  Q 248.53 182.11 260.35 171.00
  Q 261.84 169.60 262.95 167.45
  Q 266.06 161.44 271.69 158.34
  Q 273.09 157.57 273.05 159.17
  C 272.70 172.91 272.90 184.86 278.15 197.80
  A 0.70 0.69 -19.8 0 0 279.01 198.20
  L 284.09 196.57
  A 1.30 1.30 0.0 0 0 284.99 195.33
  L 285.01 167.38
  Q 285.01 165.13 286.75 163.71
  L 293.45 158.26
  Q 294.88 157.10 294.89 158.94
  L 295.05 188.58
  A 0.51 0.50 -1.6 0 0 295.59 189.08
  Q 301.65 188.74 307.49 187.02
  A 0.77 0.76 87.6 0 0 308.02 186.43
  C 309.67 177.69 312.22 155.37 325.79 156.67
  C 336.26 157.68 331.13 169.01 327.90 173.66
  Q 323.25 180.34 317.37 185.96
  A 1.29 1.28 -19.6 0 0 316.97 186.79
  Q 316.07 197.43 318.51 207.84
  Z
  M 320.13 168.31
  Q 318.41 174.39 317.91 180.69
  Q 317.85 181.48 318.33 180.86
  C 320.13 178.56 324.14 170.42 320.70 168.10
  A 0.38 0.38 0.0 0 0 320.13 168.31
  Z
  M 347.04 175.50
  Q 341.44 183.16 339.27 192.52
  A 0.45 0.45 0.0 0 0 339.76 193.07
  L 356.24 190.97
  A 0.70 0.68 86.8 0 0 356.84 190.28
  L 356.82 182.73
  L 357.87 169.29
  A 0.34 0.34 0.0 0 0 357.44 168.94
  Q 351.21 170.59 347.04 175.50
  Z
  M 261.11 174.08
  Q 251.16 186.54 247.98 202.28
  A 0.32 0.32 0.0 0 0 248.34 202.66
  L 264.73 200.60
  A 0.87 0.86 79.8 0 0 265.46 199.54
  Q 262.47 187.37 263.06 174.82
  Q 263.23 171.43 261.11 174.08
  Z
  M 284.98 200.38
  A 0.38 0.38 0.0 0 0 284.34 200.14
  L 281.16 203.16
  A 0.38 0.38 0.0 0 0 281.11 203.66
  L 285.03 208.85
  A 0.38 0.38 0.0 0 0 285.71 208.59
  L 284.98 200.38
  Z"
/>
<path fill="#ffffff" d="
  M 320.13 168.31
  A 0.38 0.38 0.0 0 1 320.70 168.10
  C 324.14 170.42 320.13 178.56 318.33 180.86
  Q 317.85 181.48 317.91 180.69
  Q 318.41 174.39 320.13 168.31
  Z"
/>
<path fill="#d9d9d9" d="
  M 356.82 182.73
  L 347.04 175.50
  Q 351.21 170.59 357.44 168.94
  A 0.34 0.34 0.0 0 1 357.87 169.29
  L 356.82 182.73
  Z"
/>
<path fill="#d9d9d9" d="
  M 136.05 189.99
  Q 133.39 193.86 130.93 197.60
  C 125.96 205.17 118.31 210.68 108.96 210.61
  Q 103.29 210.56 96.93 212.10
  Q 92.61 190.73 98.86 170.47
  A 2.17 2.16 9.7 0 1 101.02 168.95
  C 113.85 169.51 132.00 176.54 136.05 189.99
  Z"
/>
<path fill="#ffffff" d="
  M 185.21 212.50
  Q 181.45 213.41 180.08 210.38
  Q 178.54 206.97 176.99 205.72
  Q 179.18 198.23 177.41 189.97
  Q 176.76 186.95 173.67 187.11
  C 164.31 187.61 155.82 196.04 149.75 202.66
  Q 149.41 203.03 149.35 202.53
  C 148.22 193.69 149.58 183.36 150.07 174.45
  A 1.14 1.14 0.0 0 1 150.95 173.41
  Q 166.75 169.77 182.97 169.09
  A 0.59 0.58 -8.6 0 1 183.56 169.52
  C 184.87 174.63 188.32 183.66 187.49 188.70
  Q 185.54 200.50 185.21 212.50
  Z"
/>
<path fill="#ffffff" d="
  M 261.11 174.08
  Q 263.23 171.43 263.06 174.82
  Q 262.47 187.37 265.46 199.54
  A 0.87 0.86 79.8 0 1 264.73 200.60
  L 248.34 202.66
  A 0.32 0.32 0.0 0 1 247.98 202.28
  Q 251.16 186.54 261.11 174.08
  Z"
/>
<path fill="#ffffff" d="
  M 347.04 175.50
  L 356.82 182.73
  L 356.84 190.28
  A 0.70 0.68 86.8 0 1 356.24 190.97
  L 339.76 193.07
  A 0.45 0.45 0.0 0 1 339.27 192.52
  Q 341.44 183.16 347.04 175.50
  Z"
/>
<path fill="#ffffff" d="
  M 307.93 215.64
  Q 303.56 218.59 299.18 224.67
  Q 296.75 228.05 291.61 229.84
  A 1.56 1.54 -84.6 0 0 290.82 230.50
  L 288.18 234.92
  A 2.02 1.95 -0.5 0 1 287.43 235.66
  L 284.06 237.54
  A 1.59 1.59 0.0 0 0 283.37 238.32
  L 282.08 241.43
  A 0.79 0.79 0.0 0 1 281.40 241.91
  C 275.09 242.22 270.04 245.10 264.69 246.07
  C 262.13 246.53 256.00 246.65 254.16 248.16
  Q 253.75 248.50 254.28 248.48
  C 263.41 248.15 273.00 248.77 281.55 248.71
  Q 290.00 248.65 298.44 249.00
  L 217.94 249.00
  L 220.81 248.56
  Q 221.30 248.49 220.89 248.20
  C 213.54 243.06 204.39 241.60 199.17 232.43
  Q 196.67 228.04 193.06 224.30
  Q 198.86 220.99 201.26 215.34
  A 0.80 0.80 0.0 0 0 200.60 214.23
  C 195.76 213.82 195.59 208.61 195.58 204.75
  Q 195.57 191.99 197.49 181.69
  Q 199.98 192.97 205.25 203.20
  A 1.21 1.19 -48.5 0 1 205.30 204.17
  L 203.88 207.93
  Q 203.03 210.16 205.10 208.98
  Q 206.19 208.36 206.93 207.43
  A 1.25 1.25 0.0 0 1 208.76 207.31
  C 214.58 212.85 220.88 203.98 224.13 199.90
  Q 224.68 199.20 223.79 199.27
  Q 219.25 199.60 216.49 196.05
  A 0.65 0.65 0.0 0 1 216.48 195.28
  L 228.42 179.06
  Q 228.94 178.36 228.98 179.23
  Q 229.01 180.07 228.84 181.23
  Q 226.35 198.41 227.03 212.47
  Q 227.54 223.08 238.51 222.26
  C 243.19 221.92 248.88 215.27 252.70 212.04
  C 255.66 209.54 264.26 209.00 268.19 208.36
  A 0.70 0.70 0.0 0 1 268.93 208.76
  Q 272.77 217.30 280.28 222.85
  A 1.03 1.02 40.4 0 0 281.62 222.75
  L 286.15 218.22
  Q 286.77 217.61 286.90 218.47
  Q 287.55 222.49 290.22 225.63
  Q 291.85 227.56 293.61 225.76
  L 301.28 217.93
  Q 302.58 216.61 301.58 215.04
  Q 300.93 214.04 299.85 214.70
  A 0.70 0.69 56.3 0 1 298.92 214.51
  C 295.72 210.08 295.77 203.46 295.64 197.98
  A 0.72 0.72 0.0 0 1 296.15 197.28
  L 306.46 194.08
  A 0.39 0.38 81.2 0 1 306.96 194.45
  C 306.99 200.77 306.02 209.78 307.93 215.64
  Z"
/>
<path fill="#ffffff" d="
  M 136.05 189.99
  Q 137.84 200.99 132.96 210.75
  C 131.53 210.44 130.80 210.64 129.97 211.89
  Q 127.73 215.29 125.50 218.71
  Q 119.02 221.90 111.75 221.24
  Q 102.36 220.40 96.93 212.10
  Q 103.29 210.56 108.96 210.61
  C 118.31 210.68 125.96 205.17 130.93 197.60
  Q 133.39 193.86 136.05 189.99
  Z"
/>
<path fill="#ffffff" d="
  M 356.97 201.90
  Q 354.66 201.36 352.82 199.95
  A 0.85 0.84 16.1 0 1 352.50 199.38
  L 352.46 199.00
  L 356.35 194.99
  Q 356.96 194.37 356.96 195.24
  L 356.97 201.90
  Z"
/>
<path fill="#ffffff" d="
  M 167.50 200.46
  Q 164.90 201.05 162.33 200.32
  Q 161.86 200.19 161.38 200.26
  L 155.92 201.08
  C 158.35 198.30 167.17 193.87 167.50 200.46
  Z"
/>
<path fill="#d9d9d9" d="
  M 352.46 199.00
  L 352.50 199.38
  A 0.85 0.84 16.1 0 0 352.82 199.95
  Q 354.66 201.36 356.97 201.90
  C 357.58 212.69 360.36 224.10 369.59 230.73
  A 0.89 0.89 0.0 0 0 370.46 230.82
  L 371.21 230.50
  L 371.72 232.80
  Q 371.82 233.29 371.69 233.76
  L 367.49 249.01
  L 298.44 249.00
  Q 290.00 248.65 281.55 248.71
  C 273.00 248.77 263.41 248.15 254.28 248.48
  Q 253.75 248.50 254.16 248.16
  C 256.00 246.65 262.13 246.53 264.69 246.07
  C 270.04 245.10 275.09 242.22 281.40 241.91
  A 0.79 0.79 0.0 0 0 282.08 241.43
  L 283.37 238.32
  A 1.59 1.59 0.0 0 1 284.06 237.54
  L 287.43 235.66
  A 2.02 1.95 -0.5 0 0 288.18 234.92
  L 290.82 230.50
  A 1.56 1.54 -84.6 0 1 291.61 229.84
  Q 296.75 228.05 299.18 224.67
  Q 303.56 218.59 307.93 215.64
  Q 311.57 222.19 318.92 223.95
  C 324.51 225.30 326.83 222.43 330.38 219.05
  A 0.64 0.62 -50.3 0 1 331.15 218.97
  C 340.03 224.63 346.34 219.67 352.04 213.09
  Q 354.43 210.34 350.90 211.24
  Q 348.03 211.97 344.44 210.82
  C 340.66 209.61 338.70 206.46 338.05 202.78
  A 0.50 0.49 81.0 0 1 338.46 202.20
  C 342.94 201.52 348.79 201.81 352.46 199.00
  Z"
/>
<path fill="#ffffff" d="
  M 284.98 200.38
  L 285.71 208.59
  A 0.38 0.38 0.0 0 1 285.03 208.85
  L 281.11 203.66
  A 0.38 0.38 0.0 0 1 281.16 203.16
  L 284.34 200.14
  A 0.38 0.38 0.0 0 1 284.98 200.38
  Z"
/>
<path fill="#d9d9d9" d="
  M 167.50 200.46
  Q 168.69 207.72 167.94 211.22
  C 166.63 217.29 155.33 217.44 150.56 217.21
  A 0.43 0.43 0.0 0 1 150.15 216.70
  C 150.97 212.54 153.00 203.61 155.92 201.08
  L 161.38 200.26
  Q 161.86 200.19 162.33 200.32
  Q 164.90 201.05 167.50 200.46
  Z"
/>
<path fill="#d9d9d9" d="
  M 322.04 203.00
  L 328.03 203.10
  A 0.45 0.45 0.0 0 1 328.47 203.58
  L 327.88 213.29
  A 0.64 0.64 0.0 0 1 327.05 213.86
  Q 322.17 212.35 318.51 207.84
  L 322.04 203.00
  Z"
/>
<path fill="#d9d9d9" d="
  M 176.99 205.72
  Q 178.54 206.97 180.08 210.38
  Q 181.45 213.41 185.21 212.50
  C 185.11 216.63 186.05 222.68 190.06 224.71
  Q 191.68 225.53 193.06 224.30
  Q 196.67 228.04 199.17 232.43
  C 204.39 241.60 213.54 243.06 220.89 248.20
  Q 221.30 248.49 220.81 248.56
  L 217.94 249.00
  L 214.94 249.00
  Q 209.81 248.37 204.69 249.00
  L 198.44 249.00
  Q 195.56 248.37 192.69 249.00
  L 118.44 249.00
  Q 118.63 245.91 117.58 242.98
  A 1.62 1.53 -49.1 0 1 117.54 242.03
  Q 119.16 235.76 118.43 229.47
  Q 126.43 223.67 133.76 216.62
  C 135.78 214.68 136.91 212.38 138.37 210.00
  Q 139.03 208.92 139.01 210.18
  L 138.90 217.84
  A 1.75 1.70 -25.3 0 1 138.50 218.91
  L 132.53 226.09
  A 0.44 0.44 0.0 0 0 132.78 226.80
  L 137.88 227.83
  Q 138.40 227.93 138.83 228.24
  Q 141.04 229.80 142.84 227.67
  A 1.20 1.20 0.0 0 1 143.76 227.24
  C 158.74 227.06 169.96 218.51 176.99 205.72
  Z"
/>
<path fill="#d9d9d9" d="
  M 132.96 210.75
  Q 130.65 216.10 125.50 218.71
  Q 127.73 215.29 129.97 211.89
  C 130.80 210.64 131.53 210.44 132.96 210.75
  Z"
/>
<path fill="#ffffff" d="
  M 198.44 249.00
  L 192.69 249.00
  Q 195.56 248.37 198.44 249.00
  Z"
/>
<path fill="#ffffff" d="
  M 214.94 249.00
  L 204.69 249.00
  Q 209.81 248.37 214.94 249.00
  Z"
/>
</svg>
