<?xml version="1.0" encoding="UTF-8" standalone="no"?>
<!-- Created with Inkscape (http://www.inkscape.org/) -->

<svg
   xmlns:dc="http://purl.org/dc/elements/1.1/"
   xmlns:cc="http://creativecommons.org/ns#"
   xmlns:rdf="http://www.w3.org/1999/02/22-rdf-syntax-ns#"
   xmlns:svg="http://www.w3.org/2000/svg"
   xmlns="http://www.w3.org/2000/svg"
   xmlns:sodipodi="http://sodipodi.sourceforge.net/DTD/sodipodi-0.dtd"
   xmlns:inkscape="http://www.inkscape.org/namespaces/inkscape"
   width="400"
   height="600"
   viewBox="0 0 105.83333 158.75"
   version="1.1"
   id="svg8"
   inkscape:version="0.92.4 (5da689c313, 2019-01-14)"
   sodipodi:docname="13_m.svg">
  <defs
     id="defs2" />
  <sodipodi:namedview
     id="base"
     pagecolor="#ffffff"
     bordercolor="#666666"
     borderopacity="1.0"
     inkscape:pageopacity="0.0"
     inkscape:pageshadow="2"
     inkscape:zoom="1.2816667"
     inkscape:cx="200"
     inkscape:cy="362.41873"
     inkscape:document-units="mm"
     inkscape:current-layer="layer1"
     showgrid="false"
     units="px"
     showguides="true"
     inkscape:guide-bbox="true"
     inkscape:window-width="1280"
     inkscape:window-height="968"
     inkscape:window-x="0"
     inkscape:window-y="0"
     inkscape:window-maximized="1">
    <sodipodi:guide
       position="20.78869,60.476191"
       orientation="1,0"
       id="guide859"
       inkscape:locked="false" />
    <sodipodi:guide
       position="20.78869,128.88988"
       orientation="1,0"
       id="guide863"
       inkscape:locked="false" />
    <sodipodi:guide
       position="12.85119,57.641369"
       orientation="1,0"
       id="guide865"
       inkscape:locked="false" />
    <sodipodi:guide
       position="32.339612,108.51143"
       orientation="0,1"
       id="guide867"
       inkscape:locked="false" />
    <sodipodi:guide
       position="-9.0871638,97.553376"
       orientation="0,1"
       id="guide2596"
       inkscape:locked="false" />
    <sodipodi:guide
       position="-16.036171,64.144687"
       orientation="0,1"
       id="guide2598"
       inkscape:locked="false" />
  </sodipodi:namedview>
  <metadata
     id="metadata5">
    <rdf:RDF>
      <cc:Work
         rdf:about="">
        <dc:format>image/svg+xml</dc:format>
        <dc:type
           rdf:resource="http://purl.org/dc/dcmitype/StillImage" />
        <dc:title></dc:title>
      </cc:Work>
    </rdf:RDF>
  </metadata>
  <g
     inkscape:label="Layer 1"
     inkscape:groupmode="layer"
     id="layer1"
     transform="translate(0,-138.24998)">
    <rect
       style="opacity:1;fill:#ffffff;fill-opacity:0.60101007;stroke:#000000;stroke-width:0.27790931;stroke-miterlimit:4;stroke-dasharray:none;stroke-dashoffset:0;stroke-opacity:1"
       id="rect10"
       width="105.4538"
       height="158.75175"
       x="0.17799145"
       y="138.24911"
       ry="7.9375877" />
    <flowRoot
       xml:space="preserve"
       id="flowRoot851"
       style="fill:black;fill-opacity:1;stroke:none;font-family:sans-serif;font-style:normal;font-weight:normal;font-size:40px;line-height:0;letter-spacing:0px;word-spacing:0px"><flowRegion
         id="flowRegion853"><rect
           id="rect855"
           width="114.28571"
           height="65.714287"
           x="47.142857"
           y="194.28572" /></flowRegion><flowPara
         id="flowPara857" /></flowRoot>    <text
       xml:space="preserve"
       style="font-style:normal;font-weight:normal;font-size:33.90801239px;line-height:0;font-family:sans-serif;letter-spacing:0px;word-spacing:0px;fill:#666666;fill-opacity:1;stroke:none;stroke-width:0.84770024"
       x="15.076199"
       y="174.63515"
       id="text827"><tspan
         sodipodi:role="line"
         id="tspan825"
         x="15.076199"
         y="174.63515"
         style="font-style:normal;font-variant:normal;font-weight:bold;font-stretch:normal;font-family:Arsenal;-inkscape-font-specification:'Arsenal Bold';fill:#666666;stroke-width:0.84770024">13</tspan></text>
    <g
       id="g18216"
       transform="matrix(0.2048134,0,0,0.2048134,4.4384214,175.83981)">
      <g
         id="g18008"
         style="fill:none;stroke-width:2;stroke-linecap:butt">
        <path
           id="path17860"
           d="m 216.31,0 c -0.37,4.89 0.17,17.65 4.03,21.92 5.18,5.75 17.08,21.26 24.75,22.28 18.43,2.47 41.67,-2.88 50.37,-21.41 3.6,-7.68 4.2,-12.82 2.92,-21.75 A 0.97,0.95 11.4 0 0 297.89,0.32 L 297.31,0"
           inkscape:connector-curvature="0"
           style="vector-effect:non-scaling-stroke;stroke:#ececec" />
        <path
           id="path17862"
           d="m 367.49,249.01 4.2,-15.25 q 0.13,-0.47 0.03,-0.96 l -0.51,-2.3"
           inkscape:connector-curvature="0"
           style="vector-effect:non-scaling-stroke;stroke:#ececec" />
        <path
           id="path17864"
           d="m 371.21,230.5 q 4.49,-3.31 7.79,-7.84 a 0.88,0.88 0 0 0 -0.13,-1.18 c -10.11,-8.91 -12.35,-21.9 -12.08,-35.23"
           inkscape:connector-curvature="0"
           style="vector-effect:non-scaling-stroke;stroke:#828282" />
        <path
           id="path17866"
           d="m 366.79,186.25 q 13.41,-1.23 25.16,-7.86 a 1.4,1.39 -8.2 0 0 0.67,-0.89 q 1.01,-4.12 5.18,-5.09 a 0.89,0.88 89.1 0 0 0.67,-0.7 q 0.91,-4.67 3.61,-8.45 c 2.47,-3.47 2.72,-7.28 2.23,-11.3 a 1.49,1.48 -34.3 0 1 0.18,-0.94 c 2.03,-3.71 0.56,-6.58 0.42,-9.84 -0.26,-6.55 -0.14,-13.53 -0.95,-19.64 q -1.34,-10.16 -4.03,-20.08 c -1.21,-4.44 -5.1,-6.73 -5.26,-11.37 -0.22,-6.15 0.9,-14.87 -3.17,-19.84 Q 384.35,61.5 378.1,52.11 c -6.45,-9.7 -25.36,-25.49 -36.34,-26.33 q -8.42,-0.65 -12,0 c -7.38,1.33 -9.96,4.22 -14.99,10.03 -4.3,4.96 -7.98,9.05 -8.87,14.25 -1.19,6.97 0.18,18.99 5.38,25.26 a 1.41,1.38 24.8 0 1 0.33,0.87 q 0.08,3.17 2.14,5.52"
           inkscape:connector-curvature="0"
           style="vector-effect:non-scaling-stroke;stroke:#ececec" />
        <path
           id="path17868"
           d="m 313.75,81.71 q -10.04,5.51 -19.87,11.39 c -3.94,2.36 -7.86,2.74 -12.16,2.88 q -1.92,0.06 -0.34,-1.03 c 7.52,-5.19 17.17,-15.5 12.44,-25.34 a 2.65,2.65 0 0 0 -2.04,-1.48 c -4.68,-0.64 -10.61,0.26 -15.48,0.48 q -2.05,0.09 -9.08,-0.31 c -9.36,-0.54 -18.69,2.57 -27.51,5.49 a 0.66,0.66 0 0 1 -0.86,-0.51 l -1.06,-6.43 a 0.86,0.86 0 0 0 -0.69,-0.7 c -6.51,-1.13 -16.38,5.4 -21.52,9.09 q -1.34,0.96 -1.47,-0.68 -0.22,-2.91 -2.11,-5.02 a 1.21,1.19 72 0 0 -0.77,-0.4 c -7.53,-0.83 -14.73,3.92 -20.27,7.96 q -0.68,0.49 -0.75,-0.35 l -0.28,-3.03 a 0.69,0.68 72.1 0 0 -1.03,-0.53 q -5.34,3.16 -8.61,8.32 a 1.59,1.57 -32.1 0 0 -0.24,1.02 c 0.58,5.95 -4.46,7.55 -3.95,12.06 q 0.07,0.62 0.51,0.18 l 2.64,-2.65 q 0.62,-0.62 0.64,0.26 c 0.1,5.29 1.26,15.87 -0.81,20.52 q -3.16,7.09 -2.27,14.59 a 1.38,1.37 73.5 0 1 -0.75,1.39 c -9.93,4.89 -16.7,3.18 -26.07,-1.03 a 0.62,0.61 -72.3 0 1 -0.35,-0.69 c 0.95,-4.98 -1.76,-12.41 -2.75,-17.9 q -0.35,-1.89 1.56,-2.1 c 9.03,-0.99 16.58,-1.5 21.49,-10.54 q 1.12,-2.06 -1.16,-1.48 -10.37,2.64 -21.06,2.99 a 0.69,0.68 88.8 0 1 -0.71,-0.69 L 147.04,88"
           inkscape:connector-curvature="0"
           style="vector-effect:non-scaling-stroke;stroke:#828282" />
        <path
           id="path17870"
           d="m 147.04,88 1.28,0.01 a 1.41,1.37 24.7 0 0 0.88,-0.31 q 4.51,-3.69 7.34,-8.63 c 2.28,-3.97 4.6,-6.97 6.65,-10.62 a 0.8,0.8 0 0 1 0.73,-0.41 q 0.66,0.03 1.08,-0.25"
           inkscape:connector-curvature="0"
           style="vector-effect:non-scaling-stroke;stroke:#ececec" />
        <path
           id="path17872"
           d="m 165,67.79 q 7.57,-1.29 8.26,4.92 0.29,2.64 2.33,0.94 c 2.82,-2.36 7.33,-5.78 7.52,-9.51 0.36,-6.83 -7.25,-6.75 -13.11,-5.93"
           inkscape:connector-curvature="0"
           style="vector-effect:non-scaling-stroke;stroke:#828282" />
        <path
           id="path17874"
           d="m 170,58.21 c 1.25,-5.18 1.58,-10.12 3.35,-15.29 2.22,-6.49 0.87,-11.54 -1.97,-17.95 -1.41,-3.16 -4.29,-4.45 -7.13,-6.06 q -0.44,-0.24 -0.7,-0.68 c -4.36,-7.35 -8.77,-7.61 -16.39,-9.4 q -2.18,-0.51 -4.49,-0.01 c -6.73,1.43 -14.05,1.11 -19.18,6.17 q -7.25,7.14 -15.24,11.12"
           inkscape:connector-curvature="0"
           style="vector-effect:non-scaling-stroke;stroke:#ececec" />
        <path
           id="path17876"
           d="m 108.25,26.11 q 3.42,-11.16 9.89,-20.61 c 0.05,-0.07 0.12,-0.98 0.1,-1.02 A 0.5,0.49 61.2 0 0 117.53,4.27 C 106.22,11.54 99.72,28.16 95.46,41.5"
           inkscape:connector-curvature="0"
           style="vector-effect:non-scaling-stroke;stroke:#828282" />
        <path
           id="path17878"
           d="m 95.46,41.5 c -3.65,0.52 -3.7,3.85 -6.96,5.29"
           inkscape:connector-curvature="0"
           style="vector-effect:non-scaling-stroke;stroke:#ececec" />
        <path
           id="path17880"
           d="m 88.5,46.79 -3.3,-7.61 a 0.52,0.51 62.4 0 0 -0.74,-0.24 q -4.94,3.03 -8.25,7.79 a 2.81,2.8 52.1 0 0 -0.32,2.59 l 4.9,13.18"
           inkscape:connector-curvature="0"
           style="vector-effect:non-scaling-stroke;stroke:#828282" />
        <path
           id="path17882"
           d="m 80.79,62.5 c -1.74,4.16 -1.91,8.25 -3.68,12.43 a 1.8,1.77 53.1 0 0 -0.13,0.96 q 0.69,5.29 -3.89,7.78 a 1.16,1.14 81.5 0 0 -0.6,0.82 c -1.4,7.53 -3.94,15.6 -5.18,22.26 q -2.21,11.82 -4.05,25.74 -0.41,3.12 0.78,5.51"
           inkscape:connector-curvature="0"
           style="vector-effect:non-scaling-stroke;stroke:#ececec" />
        <path
           id="path17884"
           d="m 64.04,138 q -4.7,9.07 -5.8,19.4 a 0.58,0.57 -89.2 0 0 0.62,0.64 q 2.52,-0.2 5.15,-2.33"
           inkscape:connector-curvature="0"
           style="vector-effect:non-scaling-stroke;stroke:#828282" />
        <path
           id="path17886"
           d="m 64.01,155.71 q 0.61,4.24 0.96,8.52 0.38,4.82 1.44,8.38 3.36,11.31 8.62,23.62 1.57,3.67 3.8,6.09 a 1.01,0.99 -22.7 0 0 0.8,0.32 l 2.33,-0.14"
           inkscape:connector-curvature="0"
           style="vector-effect:non-scaling-stroke;stroke:#ececec" />
        <path
           id="path17888"
           d="m 81.96,202.5 c -0.37,9.27 -3.84,20.87 4.81,27.05 8.63,6.16 22.26,5.64 31.66,-0.08"
           inkscape:connector-curvature="0"
           style="vector-effect:non-scaling-stroke;stroke:#828282" />
        <path
           id="path17890"
           d="m 118.43,229.47 q 0.73,6.29 -0.89,12.56 a 1.62,1.53 -49.1 0 0 0.04,0.95 q 1.05,2.93 0.86,6.02"
           inkscape:connector-curvature="0"
           style="vector-effect:non-scaling-stroke;stroke:#ececec" />
        <path
           id="path17892"
           d="m 108.25,26.11 q -7.44,19.5 -10.04,40.58 -0.19,1.55 0.51,2.94 l 5.58,10.97 a 0.32,0.32 0 0 0 0.55,0.04 c 14.47,-20.2 26.33,-40.69 40.55,-58.98 q 3.09,-3.97 7.88,-6.82 a 0.51,0.51 0 0 1 0.71,0.2 q 0.3,0.53 -0.02,0.94 -11.09,14.25 -20.77,29.45 c -9.11,14.31 -17.15,25.77 -26.21,38.44 a 1.53,1.52 -45.2 0 0 0,1.77 l 17.42,24.4 q 0.38,0.53 0.49,-0.12 c 1.51,-8.76 3.9,-16.54 12.78,-20.3 a 1.61,1.59 -3.1 0 0 0.89,-0.98 C 143.07,74.75 154.72,60.17 170,58.21"
           inkscape:connector-curvature="0"
           style="vector-effect:non-scaling-stroke;stroke:#6f6f6f" />
        <path
           id="path17894"
           d="m 165,67.79 c -3.54,-0.03 -10.82,0.8 -12.73,3.75 q -4.04,6.25 -5.23,16.46"
           inkscape:connector-curvature="0"
           style="vector-effect:non-scaling-stroke;stroke:#6f6f6f" />
        <path
           id="path17896"
           d="m 313.75,81.71 q 13.47,-6.32 26.66,-13.19 c 1.24,-0.65 2.6,-0.71 3.93,-0.79 q 1.17,-0.07 0.43,0.83 l -3.85,4.68 a 0.29,0.29 0 0 0 0.1,0.45 q 1.12,0.5 1.14,1.88 0.22,12.67 -0.06,25.42 a 0.37,0.37 0 0 0 0.41,0.38 l 13.95,-1.54 q 1.01,-0.11 0.49,0.76 c -2.71,4.55 -7.41,9.7 -13.2,9.48 a 0.4,0.4 0 0 0 -0.41,0.47 c 0.99,5.56 4.49,13.59 10.12,15.82 a 0.77,0.77 0 0 1 0.35,1.15 q -3.76,5.49 -9.36,9.09 a 0.73,0.72 46.2 0 1 -0.83,-0.02 q -7.02,-5.1 -9.52,-13.31"
           inkscape:connector-curvature="0"
           style="vector-effect:non-scaling-stroke;stroke:#6f6f6f" />
        <path
           id="path17898"
           d="m 334.1,123.27 -2.02,-10.38 a 1.3,1.3 0 0 0 -1.42,-1.04 l -16.38,1.76 a 1.47,1.46 -88.7 0 0 -1.29,1.24 c -1.52,9.56 9.34,9.81 14.81,6.22 q 0.35,-0.23 0.74,-0.02 a 0.5,0.49 31 0 1 0.18,0.71 c -4.79,7.35 -11.98,13.22 -21.41,10.67 -5.6,-1.52 -4.22,-6.83 -4.34,-11.07 q -0.03,-1.12 -0.69,-0.21 -7.41,10.1 -17.92,16.42 c -7.23,4.35 -25.59,9.55 -32.25,2.18 -6.79,-7.54 1.89,-16.47 7.16,-21.38 a 3.13,3.13 0 0 0 0.98,-2.41 l -0.31,-7.51 q -0.04,-0.96 -0.72,-0.28 -1.03,1.03 -2.59,0.81 a 0.56,0.55 -67.3 0 1 -0.36,-0.89 l 3.43,-4.43 a 1.48,1.46 63.6 0 0 0.29,-0.88 L 260,78.36 a 0.52,0.52 0 0 0 -0.52,-0.52 q -10.22,0.11 -19.9,3.27 a 0.76,0.75 -8.8 0 0 -0.52,0.7 q -0.45,19.01 1.04,37.95 0.52,6.6 3.7,11.31 a 2,1.98 -42.3 0 1 -0.12,2.38 q -3.86,4.6 -8.58,8.34 a 0.55,0.54 -36.3 0 1 -0.77,-0.11 c -3.55,-4.91 -4.22,-12.32 -4.56,-18.19 q -1.13,-19.32 -0.74,-38.76 a 0.45,0.44 82.8 0 0 -0.56,-0.44 l -11.39,3.19 a 1.62,1.62 0 0 0 -1.18,1.65 c 0.95,16.82 -2.35,28.92 -14.86,40.57 q -4.67,4.36 -10.62,7.18 a 1.03,1.02 75.3 0 0 -0.58,1 q 0.88,10.38 3.09,20.58 a 0.78,0.77 -6 0 0 0.76,0.61 l 14.33,-0.1 q 1.12,0 0.5,0.93 l -3.56,5.35"
           inkscape:connector-curvature="0"
           style="vector-effect:non-scaling-stroke;stroke:#828282" />
        <path
           id="path17900"
           d="m 204.96,165.25 -0.92,0.39 q -0.45,0.2 -0.78,0.56 c -3.2,3.51 -3.59,7.03 -5.07,11.28 q -0.72,2.06 -0.7,4.21"
           inkscape:connector-curvature="0"
           style="vector-effect:non-scaling-stroke;stroke:#040404" />
        <path
           id="path17902"
           d="m 197.49,181.69 q -1.92,10.3 -1.91,23.06 c 0.01,3.86 0.18,9.07 5.02,9.48 a 0.8,0.8 0 0 1 0.66,1.11 q -2.4,5.65 -8.2,8.96"
           inkscape:connector-curvature="0"
           style="vector-effect:non-scaling-stroke;stroke:#828282" />
        <path
           id="path17904"
           d="m 193.06,224.3 q -1.38,1.23 -3,0.41 c -4.01,-2.03 -4.95,-8.08 -4.85,-12.21"
           inkscape:connector-curvature="0"
           style="vector-effect:non-scaling-stroke;stroke:#6f6f6f" />
        <path
           id="path17906"
           d="m 185.21,212.5 q 0.33,-12 2.28,-23.8 c 0.83,-5.04 -2.62,-14.07 -3.93,-19.18 a 0.59,0.58 -8.6 0 0 -0.59,-0.43 q -16.22,0.68 -32.02,4.32 a 1.14,1.14 0 0 0 -0.88,1.04 c -0.49,8.91 -1.85,19.24 -0.72,28.08 q 0.06,0.5 0.4,0.13 c 6.07,-6.62 14.56,-15.05 23.92,-15.55 q 3.09,-0.16 3.74,2.86 1.77,8.26 -0.42,15.75"
           inkscape:connector-curvature="0"
           style="vector-effect:non-scaling-stroke;stroke:#828282" />
        <path
           id="path17908"
           d="m 176.99,205.72 c -7.03,12.79 -18.25,21.34 -33.23,21.52 a 1.2,1.2 0 0 0 -0.92,0.43 q -1.8,2.13 -4.01,0.57 -0.43,-0.31 -0.95,-0.41 l -5.1,-1.03 a 0.44,0.44 0 0 1 -0.25,-0.71 l 5.97,-7.18 a 1.75,1.7 -25.3 0 0 0.4,-1.07 l 0.11,-7.66 q 0.02,-1.26 -0.64,-0.18 c -1.46,2.38 -2.59,4.68 -4.61,6.62 q -7.33,7.05 -15.33,12.85"
           inkscape:connector-curvature="0"
           style="vector-effect:non-scaling-stroke;stroke:#6f6f6f" />
        <path
           id="path17910"
           d="m 81.96,202.5 c 1.79,-14.76 8.56,-35.25 22.57,-42.2 q 2.59,-1.29 5.48,-1.21 14.37,0.38 25.99,8.62"
           inkscape:connector-curvature="0"
           style="vector-effect:non-scaling-stroke;stroke:#6f6f6f" />
        <path
           id="path17912"
           d="m 136,167.71 5.67,5.27 a 0.41,0.4 -51.8 0 0 0.62,-0.08 q 3.6,-5.44 10.24,-7.35 14.45,-4.15 28.09,-5.64 a 0.51,0.51 0 0 0 0.45,-0.55 q -0.93,-10.23 -1.32,-20.51 c -0.08,-2.26 -1.36,-3.68 -2.51,-5.5 a 0.47,0.46 -34.8 0 0 -0.67,-0.12 c -10.24,7.77 -21.27,11.66 -33.45,5.86 a 0.76,0.75 37.6 0 0 -0.81,0.1 l -5.73,4.67 a 0.71,0.7 41.3 0 1 -0.82,0.05 l -4.37,-2.69"
           inkscape:connector-curvature="0"
           style="vector-effect:non-scaling-stroke;stroke:#828282" />
        <path
           id="path17914"
           d="m 131.39,141.22 -6.74,-7.19 a 0.38,0.38 0 0 0 -0.61,0.07 q -6.23,11.15 -15.74,17.72 C 90.5,164.11 86.28,121.14 85.69,112.74 q -0.03,-0.5 -0.33,-0.09 C 79.4,121 72.38,131.08 69.2,141.72 q -0.14,0.48 0.27,0.2 c 0.73,-0.51 6.36,-4.97 6.56,-4.94 a 0.63,0.63 0 0 1 0.47,0.88 q -4.6,10.4 -12.49,17.85"
           inkscape:connector-curvature="0"
           style="vector-effect:non-scaling-stroke;stroke:#6f6f6f" />
        <path
           id="path17916"
           d="m 64.04,138 q 9.73,-16.29 21.28,-31.03 a 2.84,2.83 64.5 0 0 0.61,-1.73 q 0.11,-13.35 1.8,-26.61 a 3.72,3.64 -54.4 0 0 -0.31,-2 L 80.79,62.5"
           inkscape:connector-curvature="0"
           style="vector-effect:non-scaling-stroke;stroke:#6f6f6f" />
        <path
           id="path17918"
           d="m 88.5,46.79 2.79,7.25 q 0.21,0.57 0.39,-0.01 L 95.46,41.5"
           inkscape:connector-curvature="0"
           style="vector-effect:non-scaling-stroke;stroke:#6f6f6f" />
        <path
           id="path17920"
           d="m 323.25,89.46 q -5.01,6.84 -8.01,14.76 a 0.3,0.3 0 0 0 0.32,0.4 l 13.69,-1.66"
           inkscape:connector-curvature="0"
           style="vector-effect:non-scaling-stroke;stroke:#828282" />
        <path
           id="path17922"
           d="m 329.25,102.96 q 1.13,0.23 2.27,-0.09 a 0.63,0.63 0 0 0 0.46,-0.61 l 0.05,-17.46 q 0.01,-2.44 1.73,-4.15 l 5.01,-4.99 q 2.69,-2.68 -0.33,-0.38 l -2.9,2.21 q -0.41,0.31 -0.88,0.49 -4.7,1.8 -7.99,6.44 -2.88,4.06 -3.42,5.04"
           inkscape:connector-curvature="0"
           style="vector-effect:non-scaling-stroke;stroke:#6f6f6f" />
        <path
           id="path17924"
           d="m 329.25,102.96 -5.24,-8.16 a 1.62,1.57 -61.9 0 1 -0.26,-0.91 l 0.02,-3.83 a 0.49,0.47 -73.7 0 0 -0.21,-0.4 l -0.31,-0.2"
           inkscape:connector-curvature="0"
           style="vector-effect:non-scaling-stroke;stroke:#ececec" />
        <path
           id="path17926"
           d="m 226.29,75.86 q -6.22,0.38 -11,4.41 a 1,0.99 -24.8 0 0 -0.34,0.9 l 0.75,4.59 q 0.17,1.06 0.72,0.14 3.59,-6.04 10.18,-8.68 4.09,-1.64 -0.31,-1.36"
           inkscape:connector-curvature="0"
           style="vector-effect:non-scaling-stroke;stroke:#828282" />
        <path
           id="path17928"
           d="m 284.73,86.88 c 2.63,-11.14 -6.41,-9.08 -14.12,-8.77 A 0.64,0.63 -1.4 0 0 270,78.74 v 17.73 a 0.39,0.39 0 0 0 0.5,0.37 c 4.19,-1.27 13.11,-5.21 14.23,-9.96"
           inkscape:connector-curvature="0"
           style="vector-effect:non-scaling-stroke;stroke:#828282" />
        <path
           id="path17930"
           d="m 190.91,97.35 q 4.84,-6.42 10.83,-10.96 c 2.73,-2.08 3.12,-4.35 0.87,-6.91 a 1.34,1.32 71.3 0 0 -0.9,-0.45 q -6.23,-0.53 -11.28,3.1 A 1.04,1.04 0 0 0 190,82.97 v 14.07 q 0,1.51 0.91,0.31"
           inkscape:connector-curvature="0"
           style="vector-effect:non-scaling-stroke;stroke:#828282" />
        <path
           id="path17932"
           d="m 298.05,96.52 q 4.69,3.65 5.52,9.53 a 1.23,1.23 0 0 0 1.9,0.85 q 2.12,-1.4 3.44,-3.42 6.57,-10.03 13.56,-19.69 0.52,-0.72 -0.28,-0.33 l -24.03,11.96 a 0.66,0.65 -39.5 0 0 -0.11,1.1"
           inkscape:connector-curvature="0"
           style="vector-effect:non-scaling-stroke;stroke:#828282" />
        <path
           id="path17934"
           d="m 190.56,128.04 q 4.98,0.71 8.99,-1.61 c 8.14,-4.69 6.55,-29.62 5.41,-37.16 q -0.31,-2.07 -1.85,-0.65 -6.78,6.27 -12.45,13.61 a 3.08,3.05 64.2 0 0 -0.65,1.89 L 190,127.4 a 0.65,0.64 -86.5 0 0 0.56,0.64"
           inkscape:connector-curvature="0"
           style="vector-effect:non-scaling-stroke;stroke:#828282" />
        <path
           id="path17936"
           d="m 102.48,135.97 c 2.44,6.09 9.45,13.33 13.72,2.9 q 2.05,-5.01 3.27,-8.61 0.87,-2.57 -0.72,-4.77 l -19.51,-27 q -3.02,-4.17 -3.17,0.98 -0.55,19.12 6.41,36.5"
           inkscape:connector-curvature="0"
           style="vector-effect:non-scaling-stroke;stroke:#6f6f6f" />
        <path
           id="path17938"
           d="m 275.53,105.23 c -2.06,0.61 -7.03,0.01 -5.15,3.72 a 0.36,0.36 0 0 0 0.53,0.13 l 4.75,-3.59 q 0.63,-0.48 -0.13,-0.26"
           inkscape:connector-curvature="0"
           style="vector-effect:non-scaling-stroke;stroke:#828282" />
        <path
           id="path17940"
           d="m 273.96,128.22 q 0.09,2.51 -1.37,4.6 -0.25,0.36 0.19,0.37 c 4.59,0.05 19.88,-1.94 21.16,-7.46 1.44,-6.24 -0.74,-21.66 -10.59,-20.31 -3.95,0.54 -9.27,5.37 -12.95,8.07 a 0.85,0.84 -22.7 0 0 -0.33,0.79 c 0.33,2.12 0.72,10.92 2.43,11.72 a 2.56,2.54 11.9 0 1 1.46,2.22"
           inkscape:connector-curvature="0"
           style="vector-effect:non-scaling-stroke;stroke:#828282" />
        <path
           id="path17942"
           d="m 131.9,115.26 c -2.71,2.42 1.14,7.46 3.1,9.17 q 0.6,0.52 0.36,-0.24 l -2.66,-8.7 a 0.5,0.49 60.6 0 0 -0.8,-0.23"
           inkscape:connector-curvature="0"
           style="vector-effect:non-scaling-stroke;stroke:#6f6f6f" />
        <path
           id="path17944"
           d="m 96.93,212.1 q 5.43,8.3 14.82,9.14 7.27,0.66 13.75,-2.53"
           inkscape:connector-curvature="0"
           style="vector-effect:non-scaling-stroke;stroke:#828282" />
        <path
           id="path17946"
           d="m 125.5,218.71 q 5.15,-2.61 7.46,-7.96"
           inkscape:connector-curvature="0"
           style="vector-effect:non-scaling-stroke;stroke:#6f6f6f" />
        <path
           id="path17948"
           d="m 132.96,210.75 q 4.88,-9.76 3.09,-20.76"
           inkscape:connector-curvature="0"
           style="vector-effect:non-scaling-stroke;stroke:#828282" />
        <path
           id="path17950"
           d="M 136.05,189.99 C 132,176.54 113.85,169.51 101.02,168.95 a 2.17,2.16 9.7 0 0 -2.16,1.52 q -6.25,20.26 -1.93,41.63"
           inkscape:connector-curvature="0"
           style="vector-effect:non-scaling-stroke;stroke:#6f6f6f" />
        <path
           id="path17952"
           d="m 136.05,189.99 q -2.66,3.87 -5.12,7.61 c -4.97,7.57 -12.62,13.08 -21.97,13.01 q -5.67,-0.05 -12.03,1.49"
           inkscape:connector-curvature="0"
           style="vector-effect:non-scaling-stroke;stroke:#ececec" />
        <path
           id="path17954"
           d="m 132.96,210.75 c -1.43,-0.31 -2.16,-0.11 -2.99,1.14 q -2.24,3.4 -4.47,6.82"
           inkscape:connector-curvature="0"
           style="vector-effect:non-scaling-stroke;stroke:#ececec" />
        <path
           id="path17956"
           d="m 155.92,201.08 c -2.92,2.53 -4.95,11.46 -5.77,15.62 a 0.43,0.43 0 0 0 0.41,0.51 c 4.77,0.23 16.07,0.08 17.38,-5.99 q 0.75,-3.5 -0.44,-10.76"
           inkscape:connector-curvature="0"
           style="vector-effect:non-scaling-stroke;stroke:#6f6f6f" />
        <path
           id="path17958"
           d="m 167.5,200.46 c -0.33,-6.59 -9.15,-2.16 -11.58,0.62"
           inkscape:connector-curvature="0"
           style="vector-effect:non-scaling-stroke;stroke:#828282" />
        <path
           id="path17960"
           d="m 167.5,200.46 q -2.6,0.59 -5.17,-0.14 -0.47,-0.13 -0.95,-0.06 l -5.46,0.82"
           inkscape:connector-curvature="0"
           style="vector-effect:non-scaling-stroke;stroke:#ececec" />
        <path
           id="path17962"
           d="m 366.79,186.25 0.19,-19.13 a 1.47,1.45 67.5 0 1 0.4,-0.98 l 5.11,-5.4 q 2.46,-2.59 -1.09,-2.95 c -8.45,-0.83 -22.18,10.54 -27.61,16.46"
           inkscape:connector-curvature="0"
           style="vector-effect:non-scaling-stroke;stroke:#6f6f6f" />
        <path
           id="path17964"
           d="m 343.79,174.25 c -3.31,-6.54 -8.12,-14.03 -9.86,-21.1 q -1.23,-5 -0.87,-7.91 0.91,-7.57 -0.7,-16.72 -0.49,-2.79 1.74,-5.25"
           inkscape:connector-curvature="0"
           style="vector-effect:non-scaling-stroke;stroke:#ececec" />
        <path
           id="path17966"
           d="m 343.79,174.25 q -6.72,7.64 -11.31,16.7 -0.9,1.77 -2.57,3.12 -4.7,3.78 -7.87,8.93"
           inkscape:connector-curvature="0"
           style="vector-effect:non-scaling-stroke;stroke:#828282" />
        <path
           id="path17968"
           d="m 322.04,203 -3.53,4.84"
           inkscape:connector-curvature="0"
           style="vector-effect:non-scaling-stroke;stroke:#ececec" />
        <path
           id="path17970"
           d="m 318.51,207.84 q -2.44,-10.41 -1.54,-21.05 a 1.29,1.28 -19.6 0 1 0.4,-0.83 q 5.88,-5.62 10.53,-12.3 c 3.23,-4.65 8.36,-15.98 -2.11,-16.99 -13.57,-1.3 -16.12,21.02 -17.77,29.76 a 0.77,0.76 87.6 0 1 -0.53,0.59 q -5.84,1.72 -11.9,2.06 a 0.51,0.5 -1.6 0 1 -0.54,-0.5 l -0.16,-29.64 q -0.01,-1.84 -1.44,-0.68 l -6.7,5.45 q -1.74,1.42 -1.74,3.67 l -0.02,27.95 a 1.3,1.3 0 0 1 -0.9,1.24 l -5.08,1.63 a 0.7,0.69 -19.8 0 1 -0.86,-0.4 c -5.25,-12.94 -5.45,-24.89 -5.1,-38.63 q 0.04,-1.6 -1.36,-0.83 -5.63,3.1 -8.74,9.11 -1.11,2.15 -2.6,3.55 -11.82,11.11 -17.97,26.26 c -0.85,2.09 -3.97,9.45 -4.63,9.5 a 0.54,0.54 0 0 1 -0.58,-0.49 c -1.24,-12.14 0.78,-26.43 2.23,-38.59 q 0.11,-0.89 1.54,-3.67 a 0.45,0.45 0 0 0 -0.34,-0.65 l -0.76,-0.11 a 1.13,1.11 -17.2 0 1 -0.7,-0.36 c -2.11,-2.25 -9.29,7.74 -10.1,9.28 -3.67,6.94 -9.63,13.28 -14.34,19.67 a 0.31,0.31 0 0 1 -0.53,-0.04 c -4.27,-8.21 -6.24,-17.79 -9.21,-26.55"
           inkscape:connector-curvature="0"
           style="vector-effect:non-scaling-stroke;stroke:#828282" />
        <path
           id="path17972"
           d="m 131.39,141.22 q 0.15,2.51 1.47,4.68 a 1.27,1.22 -54.9 0 1 0.14,0.91 q -1.39,6.02 0.43,11.83 c 0.91,2.9 3.29,4.91 2.57,9.07"
           inkscape:connector-curvature="0"
           style="vector-effect:non-scaling-stroke;stroke:#ececec" />
        <path
           id="path17974"
           d="m 318.51,207.84 q 3.66,4.51 8.54,6.02 a 0.64,0.64 0 0 0 0.83,-0.57 l 0.59,-9.71 a 0.45,0.45 0 0 0 -0.44,-0.48 l -5.99,-0.1"
           inkscape:connector-curvature="0"
           style="vector-effect:non-scaling-stroke;stroke:#6f6f6f" />
        <path
           id="path17976"
           d="m 371.21,230.5 -0.75,0.32 a 0.89,0.89 0 0 1 -0.87,-0.09 c -9.23,-6.63 -12.01,-18.04 -12.62,-28.83"
           inkscape:connector-curvature="0"
           style="vector-effect:non-scaling-stroke;stroke:#6f6f6f" />
        <path
           id="path17978"
           d="m 356.97,201.9 -0.01,-6.66 q 0,-0.87 -0.61,-0.25 l -3.89,4.01"
           inkscape:connector-curvature="0"
           style="vector-effect:non-scaling-stroke;stroke:#828282" />
        <path
           id="path17980"
           d="m 352.46,199 c -3.67,2.81 -9.52,2.52 -14,3.2 a 0.5,0.49 81 0 0 -0.41,0.58 c 0.65,3.68 2.61,6.83 6.39,8.04 q 3.59,1.15 6.46,0.42 3.53,-0.9 1.14,1.85 c -5.7,6.58 -12.01,11.54 -20.89,5.88 a 0.64,0.62 -50.3 0 0 -0.77,0.08 c -3.55,3.38 -5.87,6.25 -11.46,4.9 q -7.35,-1.76 -10.99,-8.31"
           inkscape:connector-curvature="0"
           style="vector-effect:non-scaling-stroke;stroke:#6f6f6f" />
        <path
           id="path17982"
           d="m 307.93,215.64 c -1.91,-5.86 -0.94,-14.87 -0.97,-21.19 a 0.39,0.38 81.2 0 0 -0.5,-0.37 l -10.31,3.2 a 0.72,0.72 0 0 0 -0.51,0.7 c 0.13,5.48 0.08,12.1 3.28,16.53 a 0.7,0.69 56.3 0 0 0.93,0.19 q 1.08,-0.66 1.73,0.34 1,1.57 -0.3,2.89 l -7.67,7.83 q -1.76,1.8 -3.39,-0.13 -2.67,-3.14 -3.32,-7.16 -0.13,-0.86 -0.75,-0.25 l -4.53,4.53 a 1.03,1.02 40.4 0 1 -1.34,0.1 q -7.51,-5.55 -11.35,-14.09 a 0.7,0.7 0 0 0 -0.74,-0.4 c -3.93,0.64 -12.53,1.18 -15.49,3.68 -3.82,3.23 -9.51,9.88 -14.19,10.22 q -10.97,0.82 -11.48,-9.79 -0.68,-14.06 1.81,-31.24 0.17,-1.16 0.14,-2 -0.04,-0.87 -0.56,-0.17 l -11.94,16.22 a 0.65,0.65 0 0 0 0.01,0.77 q 2.76,3.55 7.3,3.22 0.89,-0.07 0.34,0.63 c -3.25,4.08 -9.55,12.95 -15.37,7.41 a 1.25,1.25 0 0 0 -1.83,0.12 q -0.74,0.93 -1.83,1.55 -2.07,1.18 -1.22,-1.05 l 1.42,-3.76 a 1.21,1.19 -48.5 0 0 -0.05,-0.97 q -5.27,-10.23 -7.76,-21.51"
           inkscape:connector-curvature="0"
           style="vector-effect:non-scaling-stroke;stroke:#828282" />
        <path
           id="path17984"
           d="m 320.13,168.31 q -1.72,6.08 -2.22,12.38 -0.06,0.79 0.42,0.17 c 1.8,-2.3 5.81,-10.44 2.37,-12.76 a 0.38,0.38 0 0 0 -0.57,0.21"
           inkscape:connector-curvature="0"
           style="vector-effect:non-scaling-stroke;stroke:#828282" />
        <path
           id="path17986"
           d="m 347.04,175.5 q -5.6,7.66 -7.77,17.02 a 0.45,0.45 0 0 0 0.49,0.55 l 16.48,-2.1 a 0.7,0.68 86.8 0 0 0.6,-0.69 l -0.02,-7.55"
           inkscape:connector-curvature="0"
           style="vector-effect:non-scaling-stroke;stroke:#828282" />
        <path
           id="path17988"
           d="m 356.82,182.73 1.05,-13.44 a 0.34,0.34 0 0 0 -0.43,-0.35 q -6.23,1.65 -10.4,6.56"
           inkscape:connector-curvature="0"
           style="vector-effect:non-scaling-stroke;stroke:#6f6f6f" />
        <path
           id="path17990"
           d="m 356.82,182.73 -9.78,-7.23"
           inkscape:connector-curvature="0"
           style="vector-effect:non-scaling-stroke;stroke:#ececec" />
        <path
           id="path17992"
           d="m 261.11,174.08 q -9.95,12.46 -13.13,28.2 a 0.32,0.32 0 0 0 0.36,0.38 l 16.39,-2.06 a 0.87,0.86 79.8 0 0 0.73,-1.06 q -2.99,-12.17 -2.4,-24.72 0.17,-3.39 -1.95,-0.74"
           inkscape:connector-curvature="0"
           style="vector-effect:non-scaling-stroke;stroke:#828282" />
        <path
           id="path17994"
           d="m 284.98,200.38 a 0.38,0.38 0 0 0 -0.64,-0.24 l -3.18,3.02 a 0.38,0.38 0 0 0 -0.05,0.5 l 3.92,5.19 a 0.38,0.38 0 0 0 0.68,-0.26 l -0.73,-8.21"
           inkscape:connector-curvature="0"
           style="vector-effect:non-scaling-stroke;stroke:#828282" />
        <path
           id="path17996"
           d="m 185.21,212.5 q -3.76,0.91 -5.13,-2.12 -1.54,-3.41 -3.09,-4.66"
           inkscape:connector-curvature="0"
           style="vector-effect:non-scaling-stroke;stroke:#ececec" />
        <path
           id="path17998"
           d="m 307.93,215.64 q -4.37,2.95 -8.75,9.03 -2.43,3.38 -7.57,5.17 a 1.56,1.54 -84.6 0 0 -0.79,0.66 l -2.64,4.42 a 2.02,1.95 -0.5 0 1 -0.75,0.74 l -3.37,1.88 a 1.59,1.59 0 0 0 -0.69,0.78 l -1.29,3.11 a 0.79,0.79 0 0 1 -0.68,0.48 c -6.31,0.31 -11.36,3.19 -16.71,4.16 -2.56,0.46 -8.69,0.58 -10.53,2.09 q -0.41,0.34 0.12,0.32 c 9.13,-0.33 18.72,0.29 27.27,0.23 q 8.45,-0.06 16.89,0.29"
           inkscape:connector-curvature="0"
           style="vector-effect:non-scaling-stroke;stroke:#ececec" />
        <path
           id="path18000"
           d="m 217.94,249 2.87,-0.44 q 0.49,-0.07 0.08,-0.36 c -7.35,-5.14 -16.5,-6.6 -21.72,-15.77 q -2.5,-4.39 -6.11,-8.13"
           inkscape:connector-curvature="0"
           style="vector-effect:non-scaling-stroke;stroke:#ececec" />
        <path
           id="path18002"
           d="m 356.97,201.9 q -2.31,-0.54 -4.15,-1.95 a 0.85,0.84 16.1 0 1 -0.32,-0.57 L 352.46,199"
           inkscape:connector-curvature="0"
           style="vector-effect:non-scaling-stroke;stroke:#ececec" />
        <path
           id="path18004"
           d="m 214.94,249 q -5.13,-0.63 -10.25,0"
           inkscape:connector-curvature="0"
           style="vector-effect:non-scaling-stroke;stroke:#ececec" />
        <path
           id="path18006"
           d="m 198.44,249 q -2.88,-0.63 -5.75,0"
           inkscape:connector-curvature="0"
           style="vector-effect:non-scaling-stroke;stroke:#ececec" />
      </g>
      <path
         id="path18010"
         d="m 0,0 h 216.31 c -0.37,4.89 0.17,17.65 4.03,21.92 5.18,5.75 17.08,21.26 24.75,22.28 18.43,2.47 41.67,-2.88 50.37,-21.41 3.6,-7.68 4.2,-12.82 2.92,-21.75 A 0.97,0.95 11.4 0 0 297.89,0.32 L 297.31,0 H 447 v 249 l -79.51,0.01 4.2,-15.25 q 0.13,-0.47 0.03,-0.96 l -0.51,-2.3 q 4.49,-3.31 7.79,-7.84 a 0.88,0.88 0 0 0 -0.13,-1.18 c -10.11,-8.91 -12.35,-21.9 -12.08,-35.23 q 13.41,-1.23 25.16,-7.86 a 1.4,1.39 -8.2 0 0 0.67,-0.89 q 1.01,-4.12 5.18,-5.09 a 0.89,0.88 89.1 0 0 0.67,-0.7 q 0.91,-4.67 3.61,-8.45 c 2.47,-3.47 2.72,-7.28 2.23,-11.3 a 1.49,1.48 -34.3 0 1 0.18,-0.94 c 2.03,-3.71 0.56,-6.58 0.42,-9.84 -0.26,-6.55 -0.14,-13.53 -0.95,-19.64 q -1.34,-10.16 -4.03,-20.08 c -1.21,-4.44 -5.1,-6.73 -5.26,-11.37 -0.22,-6.15 0.9,-14.87 -3.17,-19.84 Q 384.35,61.5 378.1,52.11 c -6.45,-9.7 -25.36,-25.49 -36.34,-26.33 q -8.42,-0.65 -12,0 c -7.38,1.33 -9.96,4.22 -14.99,10.03 -4.3,4.96 -7.98,9.05 -8.87,14.25 -1.19,6.97 0.18,18.99 5.38,25.26 a 1.41,1.38 24.8 0 1 0.33,0.87 q 0.08,3.17 2.14,5.52 -10.04,5.51 -19.87,11.39 c -3.94,2.36 -7.86,2.74 -12.16,2.88 q -1.92,0.06 -0.34,-1.03 c 7.52,-5.19 17.17,-15.5 12.44,-25.34 a 2.65,2.65 0 0 0 -2.04,-1.48 c -4.68,-0.64 -10.61,0.26 -15.48,0.48 q -2.05,0.09 -9.08,-0.31 c -9.36,-0.54 -18.69,2.57 -27.51,5.49 a 0.66,0.66 0 0 1 -0.86,-0.51 l -1.06,-6.43 a 0.86,0.86 0 0 0 -0.69,-0.7 c -6.51,-1.13 -16.38,5.4 -21.52,9.09 q -1.34,0.96 -1.47,-0.68 -0.22,-2.91 -2.11,-5.02 a 1.21,1.19 72 0 0 -0.77,-0.4 c -7.53,-0.83 -14.73,3.92 -20.27,7.96 q -0.68,0.49 -0.75,-0.35 l -0.28,-3.03 a 0.69,0.68 72.1 0 0 -1.03,-0.53 q -5.34,3.16 -8.61,8.32 a 1.59,1.57 -32.1 0 0 -0.24,1.02 c 0.58,5.95 -4.46,7.55 -3.95,12.06 q 0.07,0.62 0.51,0.18 l 2.64,-2.65 q 0.62,-0.62 0.64,0.26 c 0.1,5.29 1.26,15.87 -0.81,20.52 q -3.16,7.09 -2.27,14.59 a 1.38,1.37 73.5 0 1 -0.75,1.39 c -9.93,4.89 -16.7,3.18 -26.07,-1.03 a 0.62,0.61 -72.3 0 1 -0.35,-0.69 c 0.95,-4.98 -1.76,-12.41 -2.75,-17.9 q -0.35,-1.89 1.56,-2.1 c 9.03,-0.99 16.58,-1.5 21.49,-10.54 q 1.12,-2.06 -1.16,-1.48 -10.37,2.64 -21.06,2.99 a 0.69,0.68 88.8 0 1 -0.71,-0.69 l 0.03,-9.44 1.28,0.01 a 1.41,1.37 24.7 0 0 0.88,-0.31 q 4.51,-3.69 7.34,-8.63 c 2.28,-3.97 4.6,-6.97 6.65,-10.62 a 0.8,0.8 0 0 1 0.73,-0.41 q 0.66,0.03 1.08,-0.25 7.57,-1.29 8.26,4.92 0.29,2.64 2.33,0.94 c 2.82,-2.36 7.33,-5.78 7.52,-9.51 0.36,-6.83 -7.25,-6.75 -13.11,-5.93 1.25,-5.18 1.58,-10.12 3.35,-15.29 2.22,-6.49 0.87,-11.54 -1.97,-17.95 -1.41,-3.16 -4.29,-4.45 -7.13,-6.06 q -0.44,-0.24 -0.7,-0.68 c -4.36,-7.35 -8.77,-7.61 -16.39,-9.4 q -2.18,-0.51 -4.49,-0.01 c -6.73,1.43 -14.05,1.11 -19.18,6.17 q -7.25,7.14 -15.24,11.12 3.42,-11.16 9.89,-20.61 c 0.05,-0.07 0.12,-0.98 0.1,-1.02 a 0.5,0.49 61.2 0 0 -0.71,-0.21 c -11.31,7.27 -17.81,23.89 -22.07,37.23 -3.65,0.52 -3.7,3.85 -6.96,5.29 l -3.3,-7.61 a 0.52,0.51 62.4 0 0 -0.74,-0.24 q -4.94,3.03 -8.25,7.79 a 2.81,2.8 52.1 0 0 -0.32,2.59 l 4.9,13.18 c -1.74,4.16 -1.91,8.25 -3.68,12.43 a 1.8,1.77 53.1 0 0 -0.13,0.96 q 0.69,5.29 -3.89,7.78 a 1.16,1.14 81.5 0 0 -0.6,0.82 c -1.4,7.53 -3.94,15.6 -5.18,22.26 q -2.21,11.82 -4.05,25.74 -0.41,3.12 0.78,5.51 -4.7,9.07 -5.8,19.4 a 0.58,0.57 -89.2 0 0 0.62,0.64 q 2.52,-0.2 5.15,-2.33 0.61,4.24 0.96,8.52 0.38,4.82 1.44,8.38 3.36,11.31 8.62,23.62 1.57,3.67 3.8,6.09 a 1.01,0.99 -22.7 0 0 0.8,0.32 l 2.33,-0.14 c -0.37,9.27 -3.84,20.87 4.81,27.05 8.63,6.16 22.26,5.64 31.66,-0.08 q 0.73,6.29 -0.89,12.56 a 1.62,1.53 -49.1 0 0 0.04,0.95 q 1.05,2.93 0.86,6.02 H 0 Z"
         inkscape:connector-curvature="0"
         style="fill:#ffffff" />
      <path
         id="path18012"
         d="m 216.31,0 h 81 l 0.58,0.32 a 0.97,0.95 11.4 0 1 0.49,0.72 c 1.28,8.93 0.68,14.07 -2.92,21.75 -8.7,18.53 -31.94,23.88 -50.37,21.41 C 237.42,43.18 225.52,27.67 220.34,21.92 216.48,17.65 215.94,4.89 216.31,0 Z"
         inkscape:connector-curvature="0"
         style="fill:#d9d9d9" />
      <path
         id="path18014"
         d="m 108.25,26.11 q -7.44,19.5 -10.04,40.58 -0.19,1.55 0.51,2.94 l 5.58,10.97 a 0.32,0.32 0 0 0 0.55,0.04 c 14.47,-20.2 26.33,-40.69 40.55,-58.98 q 3.09,-3.97 7.88,-6.82 a 0.51,0.51 0 0 1 0.71,0.2 q 0.3,0.53 -0.02,0.94 -11.09,14.25 -20.77,29.45 c -9.11,14.31 -17.15,25.77 -26.21,38.44 a 1.53,1.52 -45.2 0 0 0,1.77 l 17.42,24.4 q 0.38,0.53 0.49,-0.12 c 1.51,-8.76 3.9,-16.54 12.78,-20.3 a 1.61,1.59 -3.1 0 0 0.89,-0.98 c 4.5,-13.89 16.15,-28.47 31.43,-30.43 5.86,-0.82 13.47,-0.9 13.11,5.93 -0.19,3.73 -4.7,7.15 -7.52,9.51 q -2.04,1.7 -2.33,-0.94 -0.69,-6.21 -8.26,-4.92 c -3.54,-0.03 -10.82,0.8 -12.73,3.75 q -4.04,6.25 -5.23,16.46 l -0.03,9.44 a 0.69,0.68 88.8 0 0 0.71,0.69 q 10.69,-0.35 21.06,-2.99 2.28,-0.58 1.16,1.48 c -4.91,9.04 -12.46,9.55 -21.49,10.54 q -1.91,0.21 -1.56,2.1 c 0.99,5.49 3.7,12.92 2.75,17.9 a 0.62,0.61 -72.3 0 0 0.35,0.69 c 9.37,4.21 16.14,5.92 26.07,1.03 a 1.38,1.37 73.5 0 0 0.75,-1.39 q -0.89,-7.5 2.27,-14.59 c 2.07,-4.65 0.91,-15.23 0.81,-20.52 q -0.02,-0.88 -0.64,-0.26 l -2.64,2.65 q -0.44,0.44 -0.51,-0.18 c -0.51,-4.51 4.53,-6.11 3.95,-12.06 a 1.59,1.57 -32.1 0 1 0.24,-1.02 q 3.27,-5.16 8.61,-8.32 a 0.69,0.68 72.1 0 1 1.03,0.53 l 0.28,3.03 q 0.07,0.84 0.75,0.35 c 5.54,-4.04 12.74,-8.79 20.27,-7.96 a 1.21,1.19 72 0 1 0.77,0.4 q 1.89,2.11 2.11,5.02 0.13,1.64 1.47,0.68 c 5.14,-3.69 15.01,-10.22 21.52,-9.09 a 0.86,0.86 0 0 1 0.69,0.7 l 1.06,6.43 a 0.66,0.66 0 0 0 0.86,0.51 c 8.82,-2.92 18.15,-6.03 27.51,-5.49 q 7.03,0.4 9.08,0.31 c 4.87,-0.22 10.8,-1.12 15.48,-0.48 a 2.65,2.65 0 0 1 2.04,1.48 c 4.73,9.84 -4.92,20.15 -12.44,25.34 q -1.58,1.09 0.34,1.03 c 4.3,-0.14 8.22,-0.52 12.16,-2.88 q 9.83,-5.88 19.87,-11.39 13.47,-6.32 26.66,-13.19 c 1.24,-0.65 2.6,-0.71 3.93,-0.79 q 1.17,-0.07 0.43,0.83 l -3.85,4.68 a 0.29,0.29 0 0 0 0.1,0.45 q 1.12,0.5 1.14,1.88 0.22,12.67 -0.06,25.42 a 0.37,0.37 0 0 0 0.41,0.38 l 13.95,-1.54 q 1.01,-0.11 0.49,0.76 c -2.71,4.55 -7.41,9.7 -13.2,9.48 a 0.4,0.4 0 0 0 -0.41,0.47 c 0.99,5.56 4.49,13.59 10.12,15.82 a 0.77,0.77 0 0 1 0.35,1.15 q -3.76,5.49 -9.36,9.09 a 0.73,0.72 46.2 0 1 -0.83,-0.02 q -7.02,-5.1 -9.52,-13.31 l -2.02,-10.38 a 1.3,1.3 0 0 0 -1.42,-1.04 l -16.38,1.76 a 1.47,1.46 -88.7 0 0 -1.29,1.24 c -1.52,9.56 9.34,9.81 14.81,6.22 q 0.35,-0.23 0.74,-0.02 a 0.5,0.49 31 0 1 0.18,0.71 c -4.79,7.35 -11.98,13.22 -21.41,10.67 -5.6,-1.52 -4.22,-6.83 -4.34,-11.07 q -0.03,-1.12 -0.69,-0.21 -7.41,10.1 -17.92,16.42 c -7.23,4.35 -25.59,9.55 -32.25,2.18 -6.79,-7.54 1.89,-16.47 7.16,-21.38 a 3.13,3.13 0 0 0 0.98,-2.41 l -0.31,-7.51 q -0.04,-0.96 -0.72,-0.28 -1.03,1.03 -2.59,0.81 a 0.56,0.55 -67.3 0 1 -0.36,-0.89 l 3.43,-4.43 a 1.48,1.46 63.6 0 0 0.29,-0.88 L 260,78.36 a 0.52,0.52 0 0 0 -0.52,-0.52 q -10.22,0.11 -19.9,3.27 a 0.76,0.75 -8.8 0 0 -0.52,0.7 q -0.45,19.01 1.04,37.95 0.52,6.6 3.7,11.31 a 2,1.98 -42.3 0 1 -0.12,2.38 q -3.86,4.6 -8.58,8.34 a 0.55,0.54 -36.3 0 1 -0.77,-0.11 c -3.55,-4.91 -4.22,-12.32 -4.56,-18.19 q -1.13,-19.32 -0.74,-38.76 a 0.45,0.44 82.8 0 0 -0.56,-0.44 l -11.39,3.19 a 1.62,1.62 0 0 0 -1.18,1.65 c 0.95,16.82 -2.35,28.92 -14.86,40.57 q -4.67,4.36 -10.62,7.18 a 1.03,1.02 75.3 0 0 -0.58,1 q 0.88,10.38 3.09,20.58 a 0.78,0.77 -6 0 0 0.76,0.61 l 14.33,-0.1 q 1.12,0 0.5,0.93 l -3.56,5.35 -0.92,0.39 q -0.45,0.2 -0.78,0.56 c -3.2,3.51 -3.59,7.03 -5.07,11.28 q -0.72,2.06 -0.7,4.21 -1.92,10.3 -1.91,23.06 c 0.01,3.86 0.18,9.07 5.02,9.48 a 0.8,0.8 0 0 1 0.66,1.11 q -2.4,5.65 -8.2,8.96 -1.38,1.23 -3,0.41 c -4.01,-2.03 -4.95,-8.08 -4.85,-12.21 q 0.33,-12 2.28,-23.8 c 0.83,-5.04 -2.62,-14.07 -3.93,-19.18 a 0.59,0.58 -8.6 0 0 -0.59,-0.43 q -16.22,0.68 -32.02,4.32 a 1.14,1.14 0 0 0 -0.88,1.04 c -0.49,8.91 -1.85,19.24 -0.72,28.08 q 0.06,0.5 0.4,0.13 c 6.07,-6.62 14.56,-15.05 23.92,-15.55 q 3.09,-0.16 3.74,2.86 1.77,8.26 -0.42,15.75 c -7.03,12.79 -18.25,21.34 -33.23,21.52 a 1.2,1.2 0 0 0 -0.92,0.43 q -1.8,2.13 -4.01,0.57 -0.43,-0.31 -0.95,-0.41 l -5.1,-1.03 a 0.44,0.44 0 0 1 -0.25,-0.71 l 5.97,-7.18 a 1.75,1.7 -25.3 0 0 0.4,-1.07 l 0.11,-7.66 q 0.02,-1.26 -0.64,-0.18 c -1.46,2.38 -2.59,4.68 -4.61,6.62 q -7.33,7.05 -15.33,12.85 c -9.4,5.72 -23.03,6.24 -31.66,0.08 -8.65,-6.18 -5.18,-17.78 -4.81,-27.05 1.79,-14.76 8.56,-35.25 22.57,-42.2 q 2.59,-1.29 5.48,-1.21 14.37,0.38 25.99,8.62 l 5.67,5.27 a 0.41,0.4 -51.8 0 0 0.62,-0.08 q 3.6,-5.44 10.24,-7.35 14.45,-4.15 28.09,-5.64 a 0.51,0.51 0 0 0 0.45,-0.55 q -0.93,-10.23 -1.32,-20.51 c -0.08,-2.26 -1.36,-3.68 -2.51,-5.5 a 0.47,0.46 -34.8 0 0 -0.67,-0.12 c -10.24,7.77 -21.27,11.66 -33.45,5.86 a 0.76,0.75 37.6 0 0 -0.81,0.1 l -5.73,4.67 a 0.71,0.7 41.3 0 1 -0.82,0.05 l -4.37,-2.69 -6.74,-7.19 a 0.38,0.38 0 0 0 -0.61,0.07 q -6.23,11.15 -15.74,17.72 C 90.5,164.11 86.28,121.14 85.69,112.74 q -0.03,-0.5 -0.33,-0.09 C 79.4,121 72.38,131.08 69.2,141.72 q -0.14,0.48 0.27,0.2 c 0.73,-0.51 6.36,-4.97 6.56,-4.94 a 0.63,0.63 0 0 1 0.47,0.88 q -4.6,10.4 -12.49,17.85 -2.63,2.13 -5.15,2.33 a 0.58,0.57 -89.2 0 1 -0.62,-0.64 q 1.1,-10.33 5.8,-19.4 9.73,-16.29 21.28,-31.03 a 2.84,2.83 64.5 0 0 0.61,-1.73 q 0.11,-13.35 1.8,-26.61 a 3.72,3.64 -54.4 0 0 -0.31,-2 L 80.79,62.5 75.89,49.32 a 2.81,2.8 52.1 0 1 0.32,-2.59 q 3.31,-4.76 8.25,-7.79 a 0.52,0.51 62.4 0 1 0.74,0.24 l 3.3,7.61 2.79,7.25 q 0.21,0.57 0.39,-0.01 L 95.46,41.5 C 99.72,28.16 106.22,11.54 117.53,4.27 a 0.5,0.49 61.2 0 1 0.71,0.21 c 0.02,0.04 -0.05,0.95 -0.1,1.02 q -6.47,9.45 -9.89,20.61 z m 215,63.35 q -5.01,6.84 -8.01,14.76 a 0.3,0.3 0 0 0 0.32,0.4 l 13.69,-1.66 q 1.13,0.23 2.27,-0.09 a 0.63,0.63 0 0 0 0.46,-0.61 l 0.05,-17.46 q 0.01,-2.44 1.73,-4.15 l 5.01,-4.99 q 2.69,-2.68 -0.33,-0.38 l -2.9,2.21 q -0.41,0.31 -0.88,0.49 -4.7,1.8 -7.99,6.44 -2.88,4.06 -3.42,5.04 z m -96.96,-13.6 q -6.22,0.38 -11,4.41 a 1,0.99 -24.8 0 0 -0.34,0.9 l 0.75,4.59 q 0.17,1.06 0.72,0.14 3.59,-6.04 10.18,-8.68 4.09,-1.64 -0.31,-1.36 z m 58.44,11.02 c 2.63,-11.14 -6.41,-9.08 -14.12,-8.77 A 0.64,0.63 -1.4 0 0 270,78.74 v 17.73 a 0.39,0.39 0 0 0 0.5,0.37 c 4.19,-1.27 13.11,-5.21 14.23,-9.96 z m -93.82,10.47 q 4.84,-6.42 10.83,-10.96 c 2.73,-2.08 3.12,-4.35 0.87,-6.91 a 1.34,1.32 71.3 0 0 -0.9,-0.45 q -6.23,-0.53 -11.28,3.1 A 1.04,1.04 0 0 0 190,82.97 v 14.07 q 0,1.51 0.91,0.31 z m 107.14,-0.83 q 4.69,3.65 5.52,9.53 a 1.23,1.23 0 0 0 1.9,0.85 q 2.12,-1.4 3.44,-3.42 6.57,-10.03 13.56,-19.69 0.52,-0.72 -0.28,-0.33 l -24.03,11.96 a 0.66,0.65 -39.5 0 0 -0.11,1.1 z m -107.49,31.52 q 4.98,0.71 8.99,-1.61 c 8.14,-4.69 6.55,-29.62 5.41,-37.16 q -0.31,-2.07 -1.85,-0.65 -6.78,6.27 -12.45,13.61 a 3.08,3.05 64.2 0 0 -0.65,1.89 L 190,127.4 a 0.65,0.64 -86.5 0 0 0.56,0.64 z m -88.08,7.93 c 2.44,6.09 9.45,13.33 13.72,2.9 q 2.05,-5.01 3.27,-8.61 0.87,-2.57 -0.72,-4.77 l -19.51,-27 q -3.02,-4.17 -3.17,0.98 -0.55,19.12 6.41,36.5 z m 173.05,-30.74 c -2.06,0.61 -7.03,0.01 -5.15,3.72 a 0.36,0.36 0 0 0 0.53,0.13 l 4.75,-3.59 q 0.63,-0.48 -0.13,-0.26 z m -1.57,22.99 q 0.09,2.51 -1.37,4.6 -0.25,0.36 0.19,0.37 c 4.59,0.05 19.88,-1.94 21.16,-7.46 1.44,-6.24 -0.74,-21.66 -10.59,-20.31 -3.95,0.54 -9.27,5.37 -12.95,8.07 a 0.85,0.84 -22.7 0 0 -0.33,0.79 c 0.33,2.12 0.72,10.92 2.43,11.72 a 2.56,2.54 11.9 0 1 1.46,2.22 z M 131.9,115.26 c -2.71,2.42 1.14,7.46 3.1,9.17 q 0.6,0.52 0.36,-0.24 l -2.66,-8.7 a 0.5,0.49 60.6 0 0 -0.8,-0.23 z M 96.93,212.1 q 5.43,8.3 14.82,9.14 7.27,0.66 13.75,-2.53 5.15,-2.61 7.46,-7.96 4.88,-9.76 3.09,-20.76 C 132,176.54 113.85,169.51 101.02,168.95 a 2.17,2.16 9.7 0 0 -2.16,1.52 q -6.25,20.26 -1.93,41.63 z m 58.99,-11.02 c -2.92,2.53 -4.95,11.46 -5.77,15.62 a 0.43,0.43 0 0 0 0.41,0.51 c 4.77,0.23 16.07,0.08 17.38,-5.99 q 0.75,-3.5 -0.44,-10.76 c -0.33,-6.59 -9.15,-2.16 -11.58,0.62 z"
         inkscape:connector-curvature="0"
         style="fill:#040404" />
      <path
         id="path18016"
         d="m 170,58.21 c -15.28,1.96 -26.93,16.54 -31.43,30.43 a 1.61,1.59 -3.1 0 1 -0.89,0.98 c -8.88,3.76 -11.27,11.54 -12.78,20.3 q -0.11,0.65 -0.49,0.12 l -17.42,-24.4 a 1.53,1.52 -45.2 0 1 0,-1.77 c 9.06,-12.67 17.1,-24.13 26.21,-38.44 q 9.68,-15.2 20.77,-29.45 0.32,-0.41 0.02,-0.94 a 0.51,0.51 0 0 0 -0.71,-0.2 q -4.79,2.85 -7.88,6.82 C 131.18,39.95 119.32,60.44 104.85,80.64 A 0.32,0.32 0 0 1 104.3,80.6 L 98.72,69.63 q -0.7,-1.39 -0.51,-2.94 2.6,-21.08 10.04,-40.58 7.99,-3.98 15.24,-11.12 c 5.13,-5.06 12.45,-4.74 19.18,-6.17 q 2.31,-0.5 4.49,0.01 c 7.62,1.79 12.03,2.05 16.39,9.4 q 0.26,0.44 0.7,0.68 c 2.84,1.61 5.72,2.9 7.13,6.06 2.84,6.41 4.19,11.46 1.97,17.95 -1.77,5.17 -2.1,10.11 -3.35,15.29 z"
         inkscape:connector-curvature="0"
         style="fill:#d9d9d9" />
      <path
         id="path18018"
         d="m 366.79,186.25 0.19,-19.13 a 1.47,1.45 67.5 0 1 0.4,-0.98 l 5.11,-5.4 q 2.46,-2.59 -1.09,-2.95 c -8.45,-0.83 -22.18,10.54 -27.61,16.46 -3.31,-6.54 -8.12,-14.03 -9.86,-21.1 q -1.23,-5 -0.87,-7.91 0.91,-7.57 -0.7,-16.72 -0.49,-2.79 1.74,-5.25 2.5,8.21 9.52,13.31 a 0.73,0.72 46.2 0 0 0.83,0.02 q 5.6,-3.6 9.36,-9.09 a 0.77,0.77 0 0 0 -0.35,-1.15 c -5.63,-2.23 -9.13,-10.26 -10.12,-15.82 a 0.4,0.4 0 0 1 0.41,-0.47 c 5.79,0.22 10.49,-4.93 13.2,-9.48 q 0.52,-0.87 -0.49,-0.76 l -13.95,1.54 a 0.37,0.37 0 0 1 -0.41,-0.38 q 0.28,-12.75 0.06,-25.42 -0.02,-1.38 -1.14,-1.88 a 0.29,0.29 0 0 1 -0.1,-0.45 l 3.85,-4.68 q 0.74,-0.9 -0.43,-0.83 c -1.33,0.08 -2.69,0.14 -3.93,0.79 q -13.19,6.87 -26.66,13.19 -2.06,-2.35 -2.14,-5.52 a 1.41,1.38 24.8 0 0 -0.33,-0.87 c -5.2,-6.27 -6.57,-18.29 -5.38,-25.26 0.89,-5.2 4.57,-9.29 8.87,-14.25 5.03,-5.81 7.61,-8.7 14.99,-10.03 q 3.58,-0.65 12,0 c 10.98,0.84 29.89,16.63 36.34,26.33 q 6.25,9.39 13.4,18.14 c 4.07,4.97 2.95,13.69 3.17,19.84 0.16,4.64 4.05,6.93 5.26,11.37 q 2.69,9.92 4.03,20.08 c 0.81,6.11 0.69,13.09 0.95,19.64 0.14,3.26 1.61,6.13 -0.42,9.84 a 1.49,1.48 -34.3 0 0 -0.18,0.94 c 0.49,4.02 0.24,7.83 -2.23,11.3 q -2.7,3.78 -3.61,8.45 a 0.89,0.88 89.1 0 1 -0.67,0.7 q -4.17,0.97 -5.18,5.09 a 1.4,1.39 -8.2 0 1 -0.67,0.89 q -11.75,6.63 -25.16,7.86 z"
         inkscape:connector-curvature="0"
         style="fill:#d9d9d9" />
      <path
         id="path18020"
         d="m 95.46,41.5 -3.78,12.53 q -0.18,0.58 -0.39,0.01 L 88.5,46.79 c 3.26,-1.44 3.31,-4.77 6.96,-5.29 z"
         inkscape:connector-curvature="0"
         style="fill:#d9d9d9" />
      <path
         id="path18022"
         d="m 80.79,62.5 6.63,14.13 a 3.72,3.64 -54.4 0 1 0.31,2 q -1.69,13.26 -1.8,26.61 a 2.84,2.83 64.5 0 1 -0.61,1.73 Q 73.77,121.71 64.04,138 q -1.19,-2.39 -0.78,-5.51 1.84,-13.92 4.05,-25.74 c 1.24,-6.66 3.78,-14.73 5.18,-22.26 a 1.16,1.14 81.5 0 1 0.6,-0.82 q 4.58,-2.49 3.89,-7.78 a 1.8,1.77 53.1 0 1 0.13,-0.96 c 1.77,-4.18 1.94,-8.27 3.68,-12.43 z"
         inkscape:connector-curvature="0"
         style="fill:#d9d9d9" />
      <path
         id="path18024"
         d="m 165,67.79 q -0.42,0.28 -1.08,0.25 a 0.8,0.8 0 0 0 -0.73,0.41 c -2.05,3.65 -4.37,6.65 -6.65,10.62 q -2.83,4.94 -7.34,8.63 a 1.41,1.37 24.7 0 1 -0.88,0.31 L 147.04,88 q 1.19,-10.21 5.23,-16.46 c 1.91,-2.95 9.19,-3.78 12.73,-3.75 z"
         inkscape:connector-curvature="0"
         style="fill:#d9d9d9" />
      <path
         id="path18026"
         d="m 329.25,102.96 -5.24,-8.16 a 1.62,1.57 -61.9 0 1 -0.26,-0.91 l 0.02,-3.83 a 0.49,0.47 -73.7 0 0 -0.21,-0.4 l -0.31,-0.2 q 0.54,-0.98 3.42,-5.04 3.29,-4.64 7.99,-6.44 0.47,-0.18 0.88,-0.49 l 2.9,-2.21 q 3.02,-2.3 0.33,0.38 l -5.01,4.99 q -1.72,1.71 -1.73,4.15 l -0.05,17.46 a 0.63,0.63 0 0 1 -0.46,0.61 q -1.14,0.32 -2.27,0.09 z"
         inkscape:connector-curvature="0"
         style="fill:#d9d9d9" />
      <path
         id="path18028"
         d="m 226.29,75.86 q 4.4,-0.28 0.31,1.36 -6.59,2.64 -10.18,8.68 -0.55,0.92 -0.72,-0.14 l -0.75,-4.59 a 1,0.99 -24.8 0 1 0.34,-0.9 q 4.78,-4.03 11,-4.41 z"
         inkscape:connector-curvature="0"
         style="fill:#ffffff" />
      <path
         id="path18030"
         d="m 334.1,123.27 q -2.23,2.46 -1.74,5.25 1.61,9.15 0.7,16.72 -0.36,2.91 0.87,7.91 c 1.74,7.07 6.55,14.56 9.86,21.1 q -6.72,7.64 -11.31,16.7 -0.9,1.77 -2.57,3.12 -4.7,3.78 -7.87,8.93 l -3.53,4.84 q -2.44,-10.41 -1.54,-21.05 a 1.29,1.28 -19.6 0 1 0.4,-0.83 q 5.88,-5.62 10.53,-12.3 c 3.23,-4.65 8.36,-15.98 -2.11,-16.99 -13.57,-1.3 -16.12,21.02 -17.77,29.76 a 0.77,0.76 87.6 0 1 -0.53,0.59 q -5.84,1.72 -11.9,2.06 a 0.51,0.5 -1.6 0 1 -0.54,-0.5 l -0.16,-29.64 q -0.01,-1.84 -1.44,-0.68 l -6.7,5.45 q -1.74,1.42 -1.74,3.67 l -0.02,27.95 a 1.3,1.3 0 0 1 -0.9,1.24 l -5.08,1.63 a 0.7,0.69 -19.8 0 1 -0.86,-0.4 c -5.25,-12.94 -5.45,-24.89 -5.1,-38.63 q 0.04,-1.6 -1.36,-0.83 -5.63,3.1 -8.74,9.11 -1.11,2.15 -2.6,3.55 -11.82,11.11 -17.97,26.26 c -0.85,2.09 -3.97,9.45 -4.63,9.5 a 0.54,0.54 0 0 1 -0.58,-0.49 c -1.24,-12.14 0.78,-26.43 2.23,-38.59 q 0.11,-0.89 1.54,-3.67 a 0.45,0.45 0 0 0 -0.34,-0.65 l -0.76,-0.11 a 1.13,1.11 -17.2 0 1 -0.7,-0.36 c -2.11,-2.25 -9.29,7.74 -10.1,9.28 -3.67,6.94 -9.63,13.28 -14.34,19.67 a 0.31,0.31 0 0 1 -0.53,-0.04 c -4.27,-8.21 -6.24,-17.79 -9.21,-26.55 l 3.56,-5.35 q 0.62,-0.93 -0.5,-0.93 l -14.33,0.1 a 0.78,0.77 -6 0 1 -0.76,-0.61 q -2.21,-10.2 -3.09,-20.58 a 1.03,1.02 75.3 0 1 0.58,-1 q 5.95,-2.82 10.62,-7.18 c 12.51,-11.65 15.81,-23.75 14.86,-40.57 a 1.62,1.62 0 0 1 1.18,-1.65 l 11.39,-3.19 a 0.45,0.44 82.8 0 1 0.56,0.44 q -0.39,19.44 0.74,38.76 c 0.34,5.87 1.01,13.28 4.56,18.19 a 0.55,0.54 -36.3 0 0 0.77,0.11 q 4.72,-3.74 8.58,-8.34 a 2,1.98 -42.3 0 0 0.12,-2.38 q -3.18,-4.71 -3.7,-11.31 -1.49,-18.94 -1.04,-37.95 a 0.76,0.75 -8.8 0 1 0.52,-0.7 q 9.68,-3.16 19.9,-3.27 a 0.52,0.52 0 0 1 0.52,0.52 l -0.01,24.42 a 1.48,1.46 63.6 0 1 -0.29,0.88 l -3.43,4.43 a 0.56,0.55 -67.3 0 0 0.36,0.89 q 1.56,0.22 2.59,-0.81 0.68,-0.68 0.72,0.28 l 0.31,7.51 a 3.13,3.13 0 0 1 -0.98,2.41 c -5.27,4.91 -13.95,13.84 -7.16,21.38 6.66,7.37 25.02,2.17 32.25,-2.18 q 10.51,-6.32 17.92,-16.42 0.66,-0.91 0.69,0.21 c 0.12,4.24 -1.26,9.55 4.34,11.07 9.43,2.55 16.62,-3.32 21.41,-10.67 a 0.5,0.49 31 0 0 -0.18,-0.71 q -0.39,-0.21 -0.74,0.02 c -5.47,3.59 -16.33,3.34 -14.81,-6.22 a 1.47,1.46 -88.7 0 1 1.29,-1.24 l 16.38,-1.76 a 1.3,1.3 0 0 1 1.42,1.04 z"
         inkscape:connector-curvature="0"
         style="fill:#ffffff" />
      <path
         id="path18032"
         d="m 284.73,86.88 c -1.12,4.75 -10.04,8.69 -14.23,9.96 A 0.39,0.39 0 0 1 270,96.47 V 78.74 a 0.64,0.63 -1.4 0 1 0.61,-0.63 c 7.71,-0.31 16.75,-2.37 14.12,8.77 z"
         inkscape:connector-curvature="0"
         style="fill:#ffffff" />
      <path
         id="path18034"
         d="M 190.91,97.35 Q 190,98.55 190,97.04 V 82.97 a 1.04,1.04 0 0 1 0.43,-0.84 q 5.05,-3.63 11.28,-3.1 a 1.34,1.32 71.3 0 1 0.9,0.45 c 2.25,2.56 1.86,4.83 -0.87,6.91 q -5.99,4.54 -10.83,10.96 z"
         inkscape:connector-curvature="0"
         style="fill:#ffffff" />
      <path
         id="path18036"
         d="m 298.16,95.42 24.03,-11.96 q 0.8,-0.39 0.28,0.33 -6.99,9.66 -13.56,19.69 -1.32,2.02 -3.44,3.42 a 1.23,1.23 0 0 1 -1.9,-0.85 q -0.83,-5.88 -5.52,-9.53 a 0.66,0.65 -39.5 0 1 0.11,-1.1 z"
         inkscape:connector-curvature="0"
         style="fill:#ffffff" />
      <path
         id="path18038"
         d="M 190.56,128.04 A 0.65,0.64 -86.5 0 1 190,127.4 l 0.01,-23.28 a 3.08,3.05 64.2 0 1 0.65,-1.89 q 5.67,-7.34 12.45,-13.61 1.54,-1.42 1.85,0.65 c 1.14,7.54 2.73,32.47 -5.41,37.16 q -4.01,2.32 -8.99,1.61 z"
         inkscape:connector-curvature="0"
         style="fill:#ffffff" />
      <path
         id="path18040"
         d="m 323.25,89.46 0.31,0.2 a 0.49,0.47 -73.7 0 1 0.21,0.4 l -0.02,3.83 a 1.62,1.57 -61.9 0 0 0.26,0.91 l 5.24,8.16 -13.69,1.66 a 0.3,0.3 0 0 1 -0.32,-0.4 q 3,-7.92 8.01,-14.76 z"
         inkscape:connector-curvature="0"
         style="fill:#ffffff" />
      <path
         id="path18042"
         d="m 116.2,138.87 c -4.27,10.43 -11.28,3.19 -13.72,-2.9 q -6.96,-17.38 -6.41,-36.5 0.15,-5.15 3.17,-0.98 l 19.51,27 q 1.59,2.2 0.72,4.77 -1.22,3.6 -3.27,8.61 z"
         inkscape:connector-curvature="0"
         style="fill:#d9d9d9" />
      <path
         id="path18044"
         d="m 275.66,105.49 -4.75,3.59 a 0.36,0.36 0 0 1 -0.53,-0.13 c -1.88,-3.71 3.09,-3.11 5.15,-3.72 q 0.76,-0.22 0.13,0.26 z"
         inkscape:connector-curvature="0"
         style="fill:#ffffff" />
      <path
         id="path18046"
         d="M 273.96,128.22 A 2.56,2.54 11.9 0 0 272.5,126 c -1.71,-0.8 -2.1,-9.6 -2.43,-11.72 a 0.85,0.84 -22.7 0 1 0.33,-0.79 c 3.68,-2.7 9,-7.53 12.95,-8.07 9.85,-1.35 12.03,14.07 10.59,20.31 -1.28,5.52 -16.57,7.51 -21.16,7.46 q -0.44,-0.01 -0.19,-0.37 1.46,-2.09 1.37,-4.6 z"
         inkscape:connector-curvature="0"
         style="fill:#ffffff" />
      <path
         id="path18048"
         d="m 131.39,141.22 q 0.15,2.51 1.47,4.68 a 1.27,1.22 -54.9 0 1 0.14,0.91 q -1.39,6.02 0.43,11.83 c 0.91,2.9 3.29,4.91 2.57,9.07 q -11.62,-8.24 -25.99,-8.62 -2.89,-0.08 -5.48,1.21 c -14.01,6.95 -20.78,27.44 -22.57,42.2 l -2.33,0.14 a 1.01,0.99 -22.7 0 1 -0.8,-0.32 q -2.23,-2.42 -3.8,-6.09 -5.26,-12.31 -8.62,-23.62 -1.06,-3.56 -1.44,-8.38 -0.35,-4.28 -0.96,-8.52 7.89,-7.45 12.49,-17.85 a 0.63,0.63 0 0 0 -0.47,-0.88 c -0.2,-0.03 -5.83,4.43 -6.56,4.94 q -0.41,0.28 -0.27,-0.2 C 72.38,131.08 79.4,121 85.36,112.65 q 0.3,-0.41 0.33,0.09 c 0.59,8.4 4.81,51.37 22.61,39.08 q 9.51,-6.57 15.74,-17.72 a 0.38,0.38 0 0 1 0.61,-0.07 z"
         inkscape:connector-curvature="0"
         style="fill:#d9d9d9" />
      <path
         id="path18050"
         d="m 132.7,115.49 2.66,8.7 q 0.24,0.76 -0.36,0.24 c -1.96,-1.71 -5.81,-6.75 -3.1,-9.17 a 0.5,0.49 60.6 0 1 0.8,0.23 z"
         inkscape:connector-curvature="0"
         style="fill:#d9d9d9" />
      <path
         id="path18052"
         d="m 136,167.71 c 0.72,-4.16 -1.66,-6.17 -2.57,-9.07 q -1.82,-5.81 -0.43,-11.83 a 1.27,1.22 -54.9 0 0 -0.14,-0.91 q -1.32,-2.17 -1.47,-4.68 l 4.37,2.69 a 0.71,0.7 41.3 0 0 0.82,-0.05 l 5.73,-4.67 a 0.76,0.75 37.6 0 1 0.81,-0.1 c 12.18,5.8 23.21,1.91 33.45,-5.86 a 0.47,0.46 -34.8 0 1 0.67,0.12 c 1.15,1.82 2.43,3.24 2.51,5.5 q 0.39,10.28 1.32,20.51 a 0.51,0.51 0 0 1 -0.45,0.55 q -13.64,1.49 -28.09,5.64 -6.64,1.91 -10.24,7.35 a 0.41,0.4 -51.8 0 1 -0.62,0.08 z"
         inkscape:connector-curvature="0"
         style="fill:#ffffff" />
      <path
         id="path18054"
         d="m 318.51,207.84 q 3.66,4.51 8.54,6.02 a 0.64,0.64 0 0 0 0.83,-0.57 l 0.59,-9.71 a 0.45,0.45 0 0 0 -0.44,-0.48 l -5.99,-0.1 q 3.17,-5.15 7.87,-8.93 1.67,-1.35 2.57,-3.12 4.59,-9.06 11.31,-16.7 c 5.43,-5.92 19.16,-17.29 27.61,-16.46 q 3.55,0.36 1.09,2.95 l -5.11,5.4 a 1.47,1.45 67.5 0 0 -0.4,0.98 l -0.19,19.13 c -0.27,13.33 1.97,26.32 12.08,35.23 a 0.88,0.88 0 0 1 0.13,1.18 q -3.3,4.53 -7.79,7.84 l -0.75,0.32 a 0.89,0.89 0 0 1 -0.87,-0.09 c -9.23,-6.63 -12.01,-18.04 -12.62,-28.83 l -0.01,-6.66 q 0,-0.87 -0.61,-0.25 l -3.89,4.01 c -3.67,2.81 -9.52,2.52 -14,3.2 a 0.5,0.49 81 0 0 -0.41,0.58 c 0.65,3.68 2.61,6.83 6.39,8.04 q 3.59,1.15 6.46,0.42 3.53,-0.9 1.14,1.85 c -5.7,6.58 -12.01,11.54 -20.89,5.88 a 0.64,0.62 -50.3 0 0 -0.77,0.08 c -3.55,3.38 -5.87,6.25 -11.46,4.9 q -7.35,-1.76 -10.99,-8.31 c -1.91,-5.86 -0.94,-14.87 -0.97,-21.19 a 0.39,0.38 81.2 0 0 -0.5,-0.37 l -10.31,3.2 a 0.72,0.72 0 0 0 -0.51,0.7 c 0.13,5.48 0.08,12.1 3.28,16.53 a 0.7,0.69 56.3 0 0 0.93,0.19 q 1.08,-0.66 1.73,0.34 1,1.57 -0.3,2.89 l -7.67,7.83 q -1.76,1.8 -3.39,-0.13 -2.67,-3.14 -3.32,-7.16 -0.13,-0.86 -0.75,-0.25 l -4.53,4.53 a 1.03,1.02 40.4 0 1 -1.34,0.1 q -7.51,-5.55 -11.35,-14.09 a 0.7,0.7 0 0 0 -0.74,-0.4 c -3.93,0.64 -12.53,1.18 -15.49,3.68 -3.82,3.23 -9.51,9.88 -14.19,10.22 q -10.97,0.82 -11.48,-9.79 -0.68,-14.06 1.81,-31.24 0.17,-1.16 0.14,-2 -0.04,-0.87 -0.56,-0.17 l -11.94,16.22 a 0.65,0.65 0 0 0 0.01,0.77 q 2.76,3.55 7.3,3.22 0.89,-0.07 0.34,0.63 c -3.25,4.08 -9.55,12.95 -15.37,7.41 a 1.25,1.25 0 0 0 -1.83,0.12 q -0.74,0.93 -1.83,1.55 -2.07,1.18 -1.22,-1.05 l 1.42,-3.76 a 1.21,1.19 -48.5 0 0 -0.05,-0.97 q -5.27,-10.23 -7.76,-21.51 -0.02,-2.15 0.7,-4.21 c 1.48,-4.25 1.87,-7.77 5.07,-11.28 q 0.33,-0.36 0.78,-0.56 l 0.92,-0.39 c 2.97,8.76 4.94,18.34 9.21,26.55 a 0.31,0.31 0 0 0 0.53,0.04 c 4.71,-6.39 10.67,-12.73 14.34,-19.67 0.81,-1.54 7.99,-11.53 10.1,-9.28 a 1.13,1.11 -17.2 0 0 0.7,0.36 l 0.76,0.11 a 0.45,0.45 0 0 1 0.34,0.65 q -1.43,2.78 -1.54,3.67 c -1.45,12.16 -3.47,26.45 -2.23,38.59 a 0.54,0.54 0 0 0 0.58,0.49 c 0.66,-0.05 3.78,-7.41 4.63,-9.5 q 6.15,-15.15 17.97,-26.26 1.49,-1.4 2.6,-3.55 3.11,-6.01 8.74,-9.11 1.4,-0.77 1.36,0.83 c -0.35,13.74 -0.15,25.69 5.1,38.63 a 0.7,0.69 -19.8 0 0 0.86,0.4 l 5.08,-1.63 a 1.3,1.3 0 0 0 0.9,-1.24 l 0.02,-27.95 q 0,-2.25 1.74,-3.67 l 6.7,-5.45 q 1.43,-1.16 1.44,0.68 l 0.16,29.64 a 0.51,0.5 -1.6 0 0 0.54,0.5 q 6.06,-0.34 11.9,-2.06 a 0.77,0.76 87.6 0 0 0.53,-0.59 c 1.65,-8.74 4.2,-31.06 17.77,-29.76 10.47,1.01 5.34,12.34 2.11,16.99 q -4.65,6.68 -10.53,12.3 a 1.29,1.28 -19.6 0 0 -0.4,0.83 q -0.9,10.64 1.54,21.05 z m 1.62,-39.53 q -1.72,6.08 -2.22,12.38 -0.06,0.79 0.42,0.17 c 1.8,-2.3 5.81,-10.44 2.37,-12.76 a 0.38,0.38 0 0 0 -0.57,0.21 z m 26.91,7.19 q -5.6,7.66 -7.77,17.02 a 0.45,0.45 0 0 0 0.49,0.55 l 16.48,-2.1 a 0.7,0.68 86.8 0 0 0.6,-0.69 l -0.02,-7.55 1.05,-13.44 a 0.34,0.34 0 0 0 -0.43,-0.35 q -6.23,1.65 -10.4,6.56 z m -85.93,-1.42 q -9.95,12.46 -13.13,28.2 a 0.32,0.32 0 0 0 0.36,0.38 l 16.39,-2.06 a 0.87,0.86 79.8 0 0 0.73,-1.06 q -2.99,-12.17 -2.4,-24.72 0.17,-3.39 -1.95,-0.74 z m 23.87,26.3 a 0.38,0.38 0 0 0 -0.64,-0.24 l -3.18,3.02 a 0.38,0.38 0 0 0 -0.05,0.5 l 3.92,5.19 a 0.38,0.38 0 0 0 0.68,-0.26 z"
         inkscape:connector-curvature="0"
         style="fill:#040404" />
      <path
         id="path18056"
         d="m 320.13,168.31 a 0.38,0.38 0 0 1 0.57,-0.21 c 3.44,2.32 -0.57,10.46 -2.37,12.76 q -0.48,0.62 -0.42,-0.17 0.5,-6.3 2.22,-12.38 z"
         inkscape:connector-curvature="0"
         style="fill:#ffffff" />
      <path
         id="path18058"
         d="m 356.82,182.73 -9.78,-7.23 q 4.17,-4.91 10.4,-6.56 a 0.34,0.34 0 0 1 0.43,0.35 z"
         inkscape:connector-curvature="0"
         style="fill:#d9d9d9" />
      <path
         id="path18060"
         d="m 136.05,189.99 q -2.66,3.87 -5.12,7.61 c -4.97,7.57 -12.62,13.08 -21.97,13.01 q -5.67,-0.05 -12.03,1.49 -4.32,-21.37 1.93,-41.63 a 2.17,2.16 9.7 0 1 2.16,-1.52 c 12.83,0.56 30.98,7.59 35.03,21.04 z"
         inkscape:connector-curvature="0"
         style="fill:#d9d9d9" />
      <path
         id="path18062"
         d="m 185.21,212.5 q -3.76,0.91 -5.13,-2.12 -1.54,-3.41 -3.09,-4.66 2.19,-7.49 0.42,-15.75 -0.65,-3.02 -3.74,-2.86 c -9.36,0.5 -17.85,8.93 -23.92,15.55 q -0.34,0.37 -0.4,-0.13 c -1.13,-8.84 0.23,-19.17 0.72,-28.08 a 1.14,1.14 0 0 1 0.88,-1.04 q 15.8,-3.64 32.02,-4.32 a 0.59,0.58 -8.6 0 1 0.59,0.43 c 1.31,5.11 4.76,14.14 3.93,19.18 q -1.95,11.8 -2.28,23.8 z"
         inkscape:connector-curvature="0"
         style="fill:#ffffff" />
      <path
         id="path18064"
         d="m 261.11,174.08 q 2.12,-2.65 1.95,0.74 -0.59,12.55 2.4,24.72 a 0.87,0.86 79.8 0 1 -0.73,1.06 l -16.39,2.06 a 0.32,0.32 0 0 1 -0.36,-0.38 q 3.18,-15.74 13.13,-28.2 z"
         inkscape:connector-curvature="0"
         style="fill:#ffffff" />
      <path
         id="path18066"
         d="m 347.04,175.5 9.78,7.23 0.02,7.55 a 0.7,0.68 86.8 0 1 -0.6,0.69 l -16.48,2.1 a 0.45,0.45 0 0 1 -0.49,-0.55 q 2.17,-9.36 7.77,-17.02 z"
         inkscape:connector-curvature="0"
         style="fill:#ffffff" />
      <path
         id="path18068"
         d="m 307.93,215.64 q -4.37,2.95 -8.75,9.03 -2.43,3.38 -7.57,5.17 a 1.56,1.54 -84.6 0 0 -0.79,0.66 l -2.64,4.42 a 2.02,1.95 -0.5 0 1 -0.75,0.74 l -3.37,1.88 a 1.59,1.59 0 0 0 -0.69,0.78 l -1.29,3.11 a 0.79,0.79 0 0 1 -0.68,0.48 c -6.31,0.31 -11.36,3.19 -16.71,4.16 -2.56,0.46 -8.69,0.58 -10.53,2.09 q -0.41,0.34 0.12,0.32 c 9.13,-0.33 18.72,0.29 27.27,0.23 q 8.45,-0.06 16.89,0.29 h -80.5 l 2.87,-0.44 q 0.49,-0.07 0.08,-0.36 c -7.35,-5.14 -16.5,-6.6 -21.72,-15.77 q -2.5,-4.39 -6.11,-8.13 5.8,-3.31 8.2,-8.96 a 0.8,0.8 0 0 0 -0.66,-1.11 c -4.84,-0.41 -5.01,-5.62 -5.02,-9.48 q -0.01,-12.76 1.91,-23.06 2.49,11.28 7.76,21.51 a 1.21,1.19 -48.5 0 1 0.05,0.97 l -1.42,3.76 q -0.85,2.23 1.22,1.05 1.09,-0.62 1.83,-1.55 a 1.25,1.25 0 0 1 1.83,-0.12 c 5.82,5.54 12.12,-3.33 15.37,-7.41 q 0.55,-0.7 -0.34,-0.63 -4.54,0.33 -7.3,-3.22 a 0.65,0.65 0 0 1 -0.01,-0.77 l 11.94,-16.22 q 0.52,-0.7 0.56,0.17 0.03,0.84 -0.14,2 -2.49,17.18 -1.81,31.24 0.51,10.61 11.48,9.79 c 4.68,-0.34 10.37,-6.99 14.19,-10.22 2.96,-2.5 11.56,-3.04 15.49,-3.68 a 0.7,0.7 0 0 1 0.74,0.4 q 3.84,8.54 11.35,14.09 a 1.03,1.02 40.4 0 0 1.34,-0.1 l 4.53,-4.53 q 0.62,-0.61 0.75,0.25 0.65,4.02 3.32,7.16 1.63,1.93 3.39,0.13 l 7.67,-7.83 q 1.3,-1.32 0.3,-2.89 -0.65,-1 -1.73,-0.34 a 0.7,0.69 56.3 0 1 -0.93,-0.19 c -3.2,-4.43 -3.15,-11.05 -3.28,-16.53 a 0.72,0.72 0 0 1 0.51,-0.7 l 10.31,-3.2 a 0.39,0.38 81.2 0 1 0.5,0.37 c 0.03,6.32 -0.94,15.33 0.97,21.19 z"
         inkscape:connector-curvature="0"
         style="fill:#ffffff" />
      <path
         id="path18070"
         d="m 136.05,189.99 q 1.79,11 -3.09,20.76 c -1.43,-0.31 -2.16,-0.11 -2.99,1.14 q -2.24,3.4 -4.47,6.82 -6.48,3.19 -13.75,2.53 -9.39,-0.84 -14.82,-9.14 6.36,-1.54 12.03,-1.49 c 9.35,0.07 17,-5.44 21.97,-13.01 q 2.46,-3.74 5.12,-7.61 z"
         inkscape:connector-curvature="0"
         style="fill:#ffffff" />
      <path
         id="path18072"
         d="m 356.97,201.9 q -2.31,-0.54 -4.15,-1.95 a 0.85,0.84 16.1 0 1 -0.32,-0.57 l -0.04,-0.38 3.89,-4.01 q 0.61,-0.62 0.61,0.25 z"
         inkscape:connector-curvature="0"
         style="fill:#ffffff" />
      <path
         id="path18074"
         d="m 167.5,200.46 q -2.6,0.59 -5.17,-0.14 -0.47,-0.13 -0.95,-0.06 l -5.46,0.82 c 2.43,-2.78 11.25,-7.21 11.58,-0.62 z"
         inkscape:connector-curvature="0"
         style="fill:#ffffff" />
      <path
         id="path18076"
         d="m 352.46,199 0.04,0.38 a 0.85,0.84 16.1 0 0 0.32,0.57 q 1.84,1.41 4.15,1.95 c 0.61,10.79 3.39,22.2 12.62,28.83 a 0.89,0.89 0 0 0 0.87,0.09 l 0.75,-0.32 0.51,2.3 q 0.1,0.49 -0.03,0.96 l -4.2,15.25 -69.05,-0.01 q -8.44,-0.35 -16.89,-0.29 c -8.55,0.06 -18.14,-0.56 -27.27,-0.23 q -0.53,0.02 -0.12,-0.32 c 1.84,-1.51 7.97,-1.63 10.53,-2.09 5.35,-0.97 10.4,-3.85 16.71,-4.16 a 0.79,0.79 0 0 0 0.68,-0.48 l 1.29,-3.11 a 1.59,1.59 0 0 1 0.69,-0.78 l 3.37,-1.88 a 2.02,1.95 -0.5 0 0 0.75,-0.74 l 2.64,-4.42 a 1.56,1.54 -84.6 0 1 0.79,-0.66 q 5.14,-1.79 7.57,-5.17 4.38,-6.08 8.75,-9.03 3.64,6.55 10.99,8.31 c 5.59,1.35 7.91,-1.52 11.46,-4.9 a 0.64,0.62 -50.3 0 1 0.77,-0.08 c 8.88,5.66 15.19,0.7 20.89,-5.88 q 2.39,-2.75 -1.14,-1.85 -2.87,0.73 -6.46,-0.42 c -3.78,-1.21 -5.74,-4.36 -6.39,-8.04 a 0.5,0.49 81 0 1 0.41,-0.58 c 4.48,-0.68 10.33,-0.39 14,-3.2 z"
         inkscape:connector-curvature="0"
         style="fill:#d9d9d9" />
      <path
         id="path18078"
         d="m 284.98,200.38 0.73,8.21 a 0.38,0.38 0 0 1 -0.68,0.26 l -3.92,-5.19 a 0.38,0.38 0 0 1 0.05,-0.5 l 3.18,-3.02 a 0.38,0.38 0 0 1 0.64,0.24 z"
         inkscape:connector-curvature="0"
         style="fill:#ffffff" />
      <path
         id="path18080"
         d="m 167.5,200.46 q 1.19,7.26 0.44,10.76 c -1.31,6.07 -12.61,6.22 -17.38,5.99 a 0.43,0.43 0 0 1 -0.41,-0.51 c 0.82,-4.16 2.85,-13.09 5.77,-15.62 l 5.46,-0.82 q 0.48,-0.07 0.95,0.06 2.57,0.73 5.17,0.14 z"
         inkscape:connector-curvature="0"
         style="fill:#d9d9d9" />
      <path
         id="path18082"
         d="m 322.04,203 5.99,0.1 a 0.45,0.45 0 0 1 0.44,0.48 l -0.59,9.71 a 0.64,0.64 0 0 1 -0.83,0.57 q -4.88,-1.51 -8.54,-6.02 z"
         inkscape:connector-curvature="0"
         style="fill:#d9d9d9" />
      <path
         id="path18084"
         d="m 176.99,205.72 q 1.55,1.25 3.09,4.66 1.37,3.03 5.13,2.12 c -0.1,4.13 0.84,10.18 4.85,12.21 q 1.62,0.82 3,-0.41 3.61,3.74 6.11,8.13 c 5.22,9.17 14.37,10.63 21.72,15.77 q 0.41,0.29 -0.08,0.36 l -2.87,0.44 h -3 q -5.13,-0.63 -10.25,0 h -6.25 q -2.88,-0.63 -5.75,0 h -74.25 q 0.19,-3.09 -0.86,-6.02 a 1.62,1.53 -49.1 0 1 -0.04,-0.95 q 1.62,-6.27 0.89,-12.56 8,-5.8 15.33,-12.85 c 2.02,-1.94 3.15,-4.24 4.61,-6.62 q 0.66,-1.08 0.64,0.18 l -0.11,7.66 a 1.75,1.7 -25.3 0 1 -0.4,1.07 l -5.97,7.18 a 0.44,0.44 0 0 0 0.25,0.71 l 5.1,1.03 q 0.52,0.1 0.95,0.41 2.21,1.56 4.01,-0.57 a 1.2,1.2 0 0 1 0.92,-0.43 c 14.98,-0.18 26.2,-8.73 33.23,-21.52 z"
         inkscape:connector-curvature="0"
         style="fill:#d9d9d9" />
      <path
         id="path18086"
         d="m 132.96,210.75 q -2.31,5.35 -7.46,7.96 2.23,-3.42 4.47,-6.82 c 0.83,-1.25 1.56,-1.45 2.99,-1.14 z"
         inkscape:connector-curvature="0"
         style="fill:#d9d9d9" />
      <path
         id="path18088"
         d="m 198.44,249 h -5.75 q 2.87,-0.63 5.75,0 z"
         inkscape:connector-curvature="0"
         style="fill:#ffffff" />
      <path
         id="path18090"
         d="m 214.94,249 h -10.25 q 5.12,-0.63 10.25,0 z"
         inkscape:connector-curvature="0"
         style="fill:#ffffff" />
    </g>
  </g>
</svg>
