<?xml version="1.0" encoding="UTF-8" standalone="no"?>
<!DOCTYPE svg PUBLIC "-//W3C//DTD SVG 1.1//EN" "http://www.w3.org/Graphics/SVG/1.1/DTD/svg11.dtd">
<svg xmlns="http://www.w3.org/2000/svg" version="1.1" viewBox="0 0 450 357">
<g stroke-width="2.00" fill="none" stroke-linecap="butt">
<path stroke="#f0f0f0" vector-effect="non-scaling-stroke" d="
  M 0.00 249.94
  Q 0.04 251.25 0.92 252.43
  A 0.42 0.42 0.0 0 0 1.56 252.46
  C 4.28 249.43 6.85 248.14 11.20 248.30
  C 15.79 248.47 21.33 247.95 25.64 249.65
  C 32.61 252.41 34.48 251.31 41.05 248.82
  C 42.37 248.32 43.64 248.49 45.02 248.53
  A 1.12 1.10 -66.7 0 0 45.87 248.18
  C 49.71 244.14 56.31 248.31 60.56 249.82
  Q 62.62 250.55 64.64 249.74
  Q 68.61 248.14 73.21 250.00"
/>
<path stroke="#828282" vector-effect="non-scaling-stroke" d="
  M 73.21 250.00
  Q 75.38 255.62 75.20 259.00
  Q 73.59 289.25 73.77 319.59
  Q 73.79 322.60 76.32 320.97
  Q 80.87 318.05 84.14 313.88
  A 1.34 1.33 -30.3 0 0 84.41 312.87
  Q 83.19 304.25 84.07 295.62
  A 1.46 1.43 -19.2 0 1 84.53 294.69
  Q 89.28 290.25 92.71 284.68
  A 1.05 1.04 12.5 0 1 93.51 284.18
  C 95.84 283.98 97.40 284.22 99.45 282.93
  Q 104.49 279.74 107.82 274.68
  Q 108.24 274.03 107.46 274.02
  L 103.05 273.95
  Q 101.40 273.93 102.31 272.55
  L 108.44 263.29
  Q 108.93 262.56 108.93 263.43
  Q 109.03 283.94 109.03 304.43
  Q 109.03 309.22 113.49 310.69
  A 1.04 1.03 -51.8 0 0 114.38 310.58
  Q 118.14 308.20 121.36 305.11
  Q 121.59 304.89 121.80 305.00
  A 0.44 0.43 30.0 0 1 121.97 305.62
  Q 120.87 307.32 121.02 309.33
  Q 121.13 310.81 122.31 309.91
  L 128.12 305.52
  Q 128.52 305.21 129.03 305.13
  Q 129.95 304.98 130.89 304.86
  C 134.16 304.44 138.99 299.21 140.71 296.86
  A 0.98 0.98 0.0 0 0 140.19 295.33
  C 136.89 294.39 136.25 293.30 137.53 289.96
  Q 144.42 272.02 153.19 254.88
  Q 153.42 254.42 153.50 254.93
  Q 153.83 257.04 153.59 261.18
  Q 152.29 283.35 153.62 305.27
  Q 153.75 307.38 155.24 308.88
  Q 157.00 310.64 158.85 309.33
  Q 162.84 306.50 166.79 302.61
  Q 168.80 300.65 166.10 299.87
  C 164.62 299.44 163.42 295.64 163.33 293.78
  Q 162.58 277.28 163.29 260.75"
/>
<path stroke="#f0f0f0" vector-effect="non-scaling-stroke" d="
  M 163.29 260.75
  L 171.09 261.25
  A 0.43 0.43 0.0 0 1 171.50 261.65
  L 171.54 262.00"
/>
<path stroke="#828282" vector-effect="non-scaling-stroke" d="
  M 171.54 262.00
  L 170.64 268.63
  A 1.40 1.38 73.3 0 1 170.19 269.48
  C 169.02 270.55 164.62 274.22 165.14 276.32
  A 0.55 0.54 76.5 0 0 165.79 276.72
  L 169.78 275.85
  A 0.40 0.40 0.0 0 1 170.27 276.26
  C 170.02 284.28 169.32 293.16 170.54 301.09
  Q 170.89 303.39 172.57 301.78
  L 180.37 294.31
  A 1.12 1.11 65.2 0 0 180.71 293.38
  Q 179.62 283.76 180.08 274.08
  A 0.74 0.73 -11.5 0 1 180.50 273.45
  L 192.16 268.03
  A 0.33 0.33 0.0 0 1 192.63 268.35
  Q 191.69 281.03 192.25 293.68
  C 192.43 297.59 194.17 300.48 198.43 299.99
  Q 200.71 299.74 202.30 298.10
  L 210.43 289.76
  Q 210.74 289.43 210.83 289.88
  Q 212.46 298.28 220.00 300.53
  C 227.56 302.78 235.65 293.91 239.48 288.32
  Q 241.14 285.90 241.51 288.81
  Q 243.47 304.15 242.94 318.73
  Q 242.85 321.30 242.09 323.16
  C 238.98 330.83 221.75 335.04 214.87 332.05
  C 209.77 329.82 206.42 323.68 205.80 318.38
  A 0.86 0.85 -22.1 0 1 206.14 317.59
  Q 211.18 313.81 215.18 308.93
  A 1.14 1.14 0.0 0 0 215.13 307.43
  C 209.09 301.00 200.62 307.63 197.17 313.07
  C 192.04 321.15 196.30 336.97 204.75 341.38
  C 212.00 345.16 225.49 340.76 231.85 336.89
  C 239.70 332.11 252.50 320.19 252.98 310.00
  C 253.64 296.07 252.10 282.47 248.81 265.94
  Q 248.20 262.86 248.49 259.52
  C 248.94 254.31 250.39 239.25 247.55 235.12
  A 1.61 1.61 0.0 0 0 245.48 234.59
  C 232.87 241.00 234.38 253.34 236.90 265.19
  C 238.67 273.52 236.79 282.08 233.38 289.71
  A 2.23 2.23 0.0 0 1 230.98 291.00
  C 214.24 288.27 220.89 261.46 222.22 251.17
  C 222.30 250.57 222.07 250.05 221.93 249.51
  A 0.59 0.59 0.0 0 0 221.07 249.14
  C 215.82 252.03 211.67 256.59 211.24 262.76
  Q 210.29 276.67 204.63 289.50
  A 0.39 0.39 0.0 0 1 204.03 289.64
  C 201.19 287.28 201.83 274.83 201.98 268.63
  C 202.11 263.39 201.77 260.82 205.18 257.65
  Q 212.68 250.66 213.29 240.25"
/>
<path stroke="#f0f0f0" vector-effect="non-scaling-stroke" d="
  M 213.29 240.25
  C 219.10 240.86 222.36 237.26 226.84 232.96
  C 232.94 227.11 231.41 219.25 237.09 213.26
  Q 237.40 212.92 237.52 212.47
  L 239.57 204.62
  A 1.22 1.19 84.3 0 1 240.16 203.88
  L 242.69 202.56
  A 0.50 0.50 0.0 0 0 242.79 201.75
  C 239.90 199.11 239.42 196.63 239.79 192.53
  C 240.02 189.94 239.69 187.24 240.60 184.79
  Q 241.19 183.18 241.77 181.53
  A 1.55 1.50 -45.8 0 0 241.77 180.54
  L 239.74 174.60
  A 1.04 1.04 0.0 0 1 239.87 173.67
  L 242.01 170.58
  A 1.07 1.07 0.0 0 0 241.65 169.04
  C 238.23 167.16 239.26 164.95 239.53 161.85
  A 1.67 1.66 -59.0 0 0 239.27 160.80
  Q 237.02 157.31 236.42 153.24
  A 1.33 1.27 17.2 0 0 235.98 152.45
  L 232.02 149.06
  Q 231.64 148.74 231.15 148.61
  L 229.17 148.09
  A 0.59 0.58 12.5 0 1 228.74 147.43
  L 229.51 142.45
  A 1.10 1.09 -66.1 0 0 229.13 141.45
  L 225.37 138.31
  Q 223.90 137.08 223.27 135.27
  L 220.32 126.72
  A 1.42 1.42 0.0 0 0 219.57 125.90
  L 213.46 123.15
  A 0.95 0.94 39.6 0 0 212.55 123.23
  Q 211.81 123.74 211.08 123.18
  A 1.43 1.41 13.9 0 1 210.56 122.33
  Q 209.82 118.41 207.46 115.25"
/>
<path stroke="#828282" vector-effect="non-scaling-stroke" d="
  M 207.46 115.25
  L 209.04 114.20
  A 0.49 0.49 0.0 0 1 209.74 114.37
  C 213.05 120.33 221.44 123.23 227.75 123.27
  Q 244.85 123.38 258.22 109.13
  Q 259.60 107.66 259.95 109.64
  C 260.44 112.45 263.83 115.68 266.59 116.70
  C 275.42 119.97 285.13 106.96 289.13 99.97
  Q 289.37 99.55 289.37 100.04
  Q 289.31 120.02 288.96 140.00
  Q 288.86 145.75 286.89 150.32
  A 1.30 1.27 -87.0 0 1 286.14 151.01
  Q 269.52 156.79 264.12 140.76
  A 1.90 1.90 0.0 0 1 264.56 138.83
  L 270.97 132.39
  A 0.77 0.76 52.8 0 0 271.09 131.47
  Q 270.83 131.01 270.25 131.04
  C 264.35 131.40 251.59 137.55 252.74 144.98
  Q 254.21 154.53 260.95 160.27
  Q 262.80 161.84 265.20 162.09
  C 278.06 163.47 288.01 156.88 294.79 146.34
  Q 298.30 140.88 298.83 132.57
  Q 299.52 121.78 299.70 111.01
  Q 299.71 110.52 300.08 110.84
  C 310.94 120.30 329.21 118.65 340.23 111.16
  C 345.74 107.41 351.95 101.26 356.68 95.59
  Q 357.75 94.31 357.75 95.98
  L 357.75 104.23
  A 0.60 0.59 85.5 0 1 357.25 104.82
  C 353.51 105.43 349.01 105.51 345.96 107.91
  C 344.54 109.02 339.00 113.35 340.15 115.36
  A 0.82 0.82 0.0 0 0 340.92 115.76
  C 357.19 114.38 374.58 111.53 387.74 100.18
  C 393.84 94.92 398.22 90.10 395.84 82.07
  Q 394.95 79.06 391.82 79.01
  C 380.84 78.82 376.76 83.20 368.45 88.71
  A 0.29 0.29 0.0 0 1 368.00 88.49
  Q 367.24 78.32 369.55 68.47
  C 370.89 62.80 371.11 58.60 370.98 53.25
  A 1.34 1.33 -12.1 0 0 369.12 52.05
  Q 359.84 55.99 358.24 65.87
  C 357.08 73.04 359.29 79.86 356.41 86.93
  C 352.87 95.62 348.62 103.29 338.99 106.24
  C 332.01 108.37 312.12 107.81 308.01 98.76
  C 303.56 88.92 310.96 71.37 316.52 63.76
  C 320.18 58.75 324.66 58.77 330.84 58.66
  C 335.00 58.58 347.25 59.60 348.37 65.15
  Q 349.47 70.63 346.09 76.31
  Q 345.21 77.79 346.56 78.78
  A 0.68 0.68 0.0 0 0 347.38 78.76
  C 355.52 72.33 358.37 67.60 358.47 57.90
  Q 358.49 55.03 356.43 53.05
  C 350.52 47.34 331.77 47.68 325.20 52.18
  Q 308.03 63.94 300.58 82.92
  Q 300.20 83.89 300.15 82.84
  Q 299.44 68.36 300.98 53.97
  A 0.83 0.83 0.0 0 0 299.83 53.11
  C 294.68 55.28 291.57 59.17 290.73 64.91
  Q 287.72 85.65 280.06 106.11
  A 1.85 1.84 -76.8 0 1 278.17 107.29
  C 269.15 106.39 269.57 99.40 270.21 91.90
  Q 271.49 76.84 276.58 62.58
  C 278.61 56.91 284.58 54.83 286.13 49.13
  C 286.60 47.39 284.98 46.48 283.52 47.39
  Q 276.45 51.76 271.91 58.68
  C 267.85 64.86 252.16 74.72 244.02 75.06
  Q 243.50 75.08 243.86 74.70
  C 249.69 68.53 260.60 60.30 260.00 50.58
  Q 259.87 48.47 257.76 48.67
  Q 248.49 49.57 239.71 52.78
  A 0.58 0.58 0.0 0 1 238.98 52.47
  L 238.55 51.47
  A 0.76 0.76 0.0 0 0 237.71 51.02
  C 231.68 52.05 227.21 55.12 222.00 58.07
  A 0.51 0.50 60.3 0 1 221.32 57.88
  C 219.12 53.95 218.29 51.39 214.00 51.07
  Q 208.05 50.62 203.76 53.05
  C 198.98 55.75 186.89 65.24 186.99 71.22
  A 0.37 0.37 0.0 0 0 187.49 71.56
  L 189.01 71.01
  A 0.49 0.48 82.4 0 1 189.66 71.51
  L 188.51 84.01
  Q 188.36 85.63 187.36 86.90
  L 180.50 95.54"
/>
<path stroke="#f0f0f0" vector-effect="non-scaling-stroke" d="
  M 180.50 95.54
  Q 173.55 93.73 166.69 96.13
  A 2.95 2.94 -36.5 0 1 164.00 95.73
  C 161.90 94.20 158.80 91.04 156.04 92.25"
/>
<path stroke="#828282" vector-effect="non-scaling-stroke" d="
  M 156.04 92.25
  L 156.16 88.85
  A 0.71 0.70 84.7 0 1 156.70 88.19
  C 167.62 85.67 177.22 85.36 183.86 74.97
  Q 184.72 73.63 183.18 74.02
  Q 171.42 76.99 159.06 79.78
  Q 157.94 80.04 156.81 81.76
  A 0.47 0.47 0.0 0 1 156.19 81.91
  C 155.84 81.71 156.01 67.10 156.02 65.47
  A 1.13 1.12 77.7 0 1 156.67 64.45
  Q 167.08 59.58 178.50 58.88
  Q 180.03 58.78 180.04 60.20
  Q 180.04 61.26 180.93 60.69
  Q 186.15 57.36 189.47 52.13
  Q 190.59 50.36 188.70 49.44
  C 187.29 48.75 184.66 49.58 183.43 49.67
  Q 167.83 50.83 155.75 60.70
  A 0.29 0.29 0.0 0 1 155.28 60.54
  C 153.77 53.75 142.71 61.53 140.00 63.04
  A 0.52 0.52 0.0 0 1 139.22 62.60
  C 139.00 57.53 137.57 46.51 130.51 46.45
  C 117.73 46.33 105.33 56.45 97.50 66.26
  Q 96.88 67.04 95.70 70.31
  Q 95.52 70.81 95.31 70.33
  Q 94.84 69.23 94.91 68.00
  Q 96.09 46.16 98.03 24.37
  C 98.56 18.46 100.50 13.20 102.25 7.57
  A 1.18 1.18 0.0 0 0 101.26 6.05
  C 101.06 6.02 100.12 5.92 99.87 6.00
  Q 87.13 9.80 74.12 12.62
  A 1.64 1.54 -72.6 0 0 73.29 13.09
  Q 72.63 13.82 71.83 13.32
  A 1.02 1.00 -41.0 0 0 70.87 13.26
  C 65.22 15.84 62.01 20.06 62.00 26.44
  Q 61.99 57.99 62.21 89.50"
/>
<path stroke="#f0f0f0" vector-effect="non-scaling-stroke" d="
  M 62.21 89.50
  Q 60.24 90.19 58.90 91.97
  A 0.73 0.73 0.0 0 1 58.01 92.18
  L 45.21 86.17
  A 1.30 1.28 4.1 0 1 44.54 85.41
  C 42.61 79.53 31.99 82.91 27.98 84.19
  A 1.81 1.73 42.0 0 1 27.02 84.22
  Q 13.66 81.14 0.00 80.69"
/>
<path stroke="#828282" vector-effect="non-scaling-stroke" d="
  M 264.86 249.90
  Q 262.11 271.37 261.17 293.00
  Q 260.86 300.17 263.67 306.44
  A 0.85 0.85 0.0 0 0 264.96 306.77
  Q 269.93 303.00 273.97 298.22
  A 0.83 0.81 51.1 0 0 274.06 297.31
  C 271.89 293.33 271.17 289.92 271.33 285.09
  Q 271.93 266.75 273.88 249.60
  Q 274.11 247.53 276.20 247.42
  Q 281.95 247.11 286.80 246.87
  C 289.68 246.72 291.50 245.20 293.60 243.66
  Q 295.60 242.21 295.28 244.66
  Q 293.09 261.27 291.93 277.92
  Q 291.77 280.25 290.69 282.86
  Q 288.03 289.24 287.83 296.29
  Q 287.76 298.62 289.80 299.75
  Q 292.58 301.28 294.38 303.85
  A 1.50 1.46 82.1 0 0 295.09 304.40
  Q 299.37 305.97 302.95 302.42
  Q 310.42 295.01 318.31 288.11
  Q 318.94 287.55 319.02 288.39
  C 319.64 294.82 323.40 298.50 329.50 299.89
  C 339.93 302.26 347.69 293.08 354.34 286.24
  Q 354.92 285.65 354.98 286.47
  Q 356.27 302.88 355.88 319.32
  Q 355.69 327.51 352.81 335.04
  C 350.51 341.04 339.18 342.49 334.12 340.51
  C 326.85 337.66 322.62 325.34 320.40 318.47
  A 0.81 0.81 0.0 0 0 319.26 318.00
  Q 313.74 320.84 310.50 326.12
  A 1.26 1.26 0.0 0 0 310.36 327.08
  Q 312.28 334.61 317.19 343.29
  C 320.62 349.36 324.73 351.63 331.73 351.26
  C 347.90 350.43 363.85 332.18 365.50 316.75
  Q 366.43 308.03 365.87 294.55
  Q 364.68 265.72 365.00 236.77
  A 0.31 0.31 0.0 0 0 364.56 236.49
  C 360.56 238.41 355.31 242.60 355.17 247.46
  C 354.96 254.75 355.08 289.57 343.99 290.27
  C 333.14 290.95 324.90 282.37 330.93 271.67
  C 334.52 265.30 339.01 257.21 339.66 250.34
  Q 340.03 246.37 336.74 248.61
  C 324.98 256.60 321.33 266.72 319.20 280.24
  C 318.09 287.28 310.83 291.16 304.42 292.01
  Q 301.93 292.35 301.94 289.84
  L 301.99 272.58
  Q 302.00 270.93 303.07 269.66
  C 305.62 266.63 334.83 240.01 333.52 238.88
  A 1.62 1.62 0.0 0 0 331.35 238.91
  L 302.78 265.61
  Q 301.83 266.50 301.97 265.21
  C 303.23 254.38 305.48 242.41 305.22 231.68
  Q 305.19 230.63 304.37 231.29
  L 297.65 236.60
  A 1.68 1.67 24.6 0 1 296.67 236.96
  Q 282.25 237.32 268.22 240.59
  C 262.27 241.98 258.10 244.58 255.28 249.68
  Q 254.30 251.45 256.28 251.07
  L 264.45 249.51
  A 0.35 0.35 0.0 0 1 264.86 249.90"
/>
<path stroke="#737373" vector-effect="non-scaling-stroke" d="
  M 156.04 92.25
  L 156.01 105.52
  A 0.80 0.79 3.1 0 0 156.73 106.32
  L 173.92 108.10
  A 0.98 0.98 0.0 0 0 174.97 107.40
  Q 176.82 101.11 180.50 95.54"
/>
<path stroke="#737373" vector-effect="non-scaling-stroke" d="
  M 207.46 115.25
  Q 201.89 119.92 194.99 121.47
  A 1.27 1.26 83.9 0 0 194.01 122.69
  C 193.95 139.66 193.50 156.19 196.87 172.52
  C 198.02 178.10 192.66 182.89 188.14 185.11
  A 0.41 0.40 -20.1 0 1 187.57 184.85
  C 182.75 164.38 183.64 144.62 184.09 123.80
  A 0.77 0.77 0.0 0 0 183.57 123.06
  Q 178.36 121.38 175.99 116.40
  A 0.63 0.63 0.0 0 0 175.20 116.08
  C 169.43 118.23 164.98 117.76 159.01 117.44
  C 155.89 117.28 149.83 115.97 147.09 117.43
  A 0.99 0.99 0.0 0 1 145.68 116.86
  Q 142.14 105.92 140.63 94.50
  Q 140.47 93.35 140.36 94.51
  C 138.88 110.02 133.33 122.64 119.87 130.60
  Q 118.46 131.43 116.87 131.02
  Q 114.92 130.51 114.35 127.47
  Q 109.91 103.97 122.06 83.55"
/>
<path stroke="#828282" vector-effect="non-scaling-stroke" d="
  M 122.06 83.55
  L 128.87 74.03
  A 1.88 1.85 -26.6 0 0 129.22 73.01
  Q 129.48 64.75 125.21 57.79
  Q 124.32 56.33 122.60 56.32
  Q 114.66 56.31 107.75 60.08
  A 1.30 1.29 -14.6 0 0 107.08 61.21
  L 107.29 88.50"
/>
<path stroke="#737373" vector-effect="non-scaling-stroke" d="
  M 107.29 88.50
  C 107.23 113.60 111.05 135.11 115.22 158.51
  C 115.91 162.40 116.99 169.14 114.53 172.58
  Q 111.11 177.37 106.18 181.10
  A 3.02 3.00 71.6 0 0 104.99 183.50
  L 105.02 214.67
  Q 105.02 216.90 107.13 217.60
  L 109.41 218.36
  A 0.44 0.44 0.0 0 1 109.64 219.01
  C 107.23 222.90 99.92 231.79 95.35 225.86
  A 1.51 1.51 0.0 0 1 95.03 224.93
  L 94.99 188.45
  A 0.42 0.42 0.0 0 0 94.46 188.05
  Q 86.75 190.36 78.70 191.14
  A 1.91 1.90 -3.0 0 0 76.98 193.04
  Q 77.04 202.50 76.13 210.83
  C 75.61 215.54 70.84 219.99 67.15 222.25
  Q 64.91 223.62 64.94 221.00
  L 65.22 190.91
  A 1.16 1.15 68.0 0 1 65.57 190.08
  Q 67.69 187.96 67.71 186.50
  Q 67.89 174.78 68.10 162.99
  C 68.18 158.11 73.18 153.47 77.01 151.24
  Q 78.34 150.46 78.32 152.01
  L 78.03 181.52
  A 0.46 0.45 88.8 0 0 78.50 181.98
  Q 84.48 181.81 90.43 180.98
  C 93.33 180.57 95.40 180.73 95.53 177.50
  Q 96.12 162.86 96.06 148.17
  A 1.25 1.23 -23.6 0 1 96.40 147.32
  L 100.56 143.02
  A 0.97 0.96 -28.3 0 0 100.82 142.17
  C 97.52 123.92 97.18 105.25 96.78 86.74
  A 0.78 0.76 9.4 0 0 96.26 86.03
  L 95.44 85.74
  A 0.73 0.73 0.0 0 1 94.96 84.93
  Q 95.34 82.43 94.68 80.00
  Q 94.35 78.82 94.34 80.05
  L 93.90 124.40
  Q 93.88 126.07 92.85 127.39
  Q 89.47 131.69 84.93 134.71
  Q 84.07 135.28 84.07 134.24
  L 84.21 86.00"
/>
<path stroke="#828282" vector-effect="non-scaling-stroke" d="
  M 84.21 86.00
  Q 84.66 83.30 84.69 82.44
  Q 85.57 58.06 87.84 33.78
  C 88.42 27.64 89.87 22.64 92.04 17.15
  Q 92.70 15.49 90.98 15.98
  L 72.56 21.24
  A 0.65 0.65 0.0 0 0 72.09 21.85
  C 71.86 42.96 71.14 64.75 72.79 85.75"
/>
<path stroke="#737373" vector-effect="non-scaling-stroke" d="
  M 72.79 85.75
  Q 74.16 102.27 75.93 118.76
  C 76.41 123.23 69.58 127.93 66.67 129.51
  A 0.34 0.34 0.0 0 1 66.17 129.24
  L 62.21 89.50"
/>
<path stroke="#828282" vector-effect="non-scaling-stroke" d="
  M 249.53 59.08
  Q 244.55 58.78 239.68 59.90
  A 0.88 0.87 -6.7 0 0 239.00 60.75
  L 239.00 73.49
  Q 239.00 74.08 239.51 73.78
  C 243.98 71.17 250.83 65.51 250.22 59.74
  A 0.73 0.73 0.0 0 0 249.53 59.08"
/>
<path stroke="#828282" vector-effect="non-scaling-stroke" d="
  M 209.76 66.24
  C 210.18 61.83 204.42 59.88 201.12 61.04
  A 1.84 1.84 0.0 0 0 199.89 62.61
  L 198.71 74.94
  Q 198.66 75.47 199.07 75.13
  L 209.37 66.96
  A 1.05 1.03 -17.1 0 0 209.76 66.24"
/>
<path stroke="#828282" vector-effect="non-scaling-stroke" d="
  M 224.08 64.33
  L 223.49 63.35
  Q 222.92 62.41 223.06 63.50
  Q 224.33 73.44 223.95 83.46
  Q 223.92 84.03 224.42 83.74
  C 227.17 82.16 228.98 80.22 229.00 76.75
  Q 229.02 70.34 228.97 63.88
  A 0.48 0.48 0.0 0 0 228.33 63.43
  L 224.95 64.64
  A 0.73 0.73 0.0 0 1 224.08 64.33"
/>
<path stroke="#828282" vector-effect="non-scaling-stroke" d="
  M 143.69 67.96
  L 140.56 68.01
  A 0.65 0.64 88.7 0 0 139.93 68.68
  L 140.19 77.94
  Q 140.22 78.92 140.71 78.07
  L 145.16 70.46
  Q 146.65 67.91 143.69 67.96"
/>
<path stroke="#828282" vector-effect="non-scaling-stroke" d="
  M 259.41 73.40
  A 0.33 0.33 0.0 0 0 259.41 73.93
  L 264.07 77.27
  A 0.33 0.33 0.0 0 0 264.58 77.10
  L 267.37 68.28
  A 0.33 0.33 0.0 0 0 266.86 67.92
  L 259.41 73.40"
/>
<path stroke="#737373" vector-effect="non-scaling-stroke" d="
  M 194.79 106.50
  L 194.20 112.30
  A 0.53 0.52 -83.9 0 0 194.66 112.88
  Q 197.53 113.23 200.29 112.25"
/>
<path stroke="#828282" vector-effect="non-scaling-stroke" d="
  M 200.29 112.25
  Q 204.56 111.86 208.32 109.78
  A 1.64 1.62 89.6 0 0 208.99 109.09
  C 210.65 105.93 213.47 102.39 213.94 98.92
  C 215.05 90.63 213.88 80.11 212.83 71.43
  Q 212.45 68.30 210.00 70.28
  L 199.26 78.92
  A 4.13 4.12 75.4 0 0 197.79 81.44
  Q 195.70 93.94 194.79 106.50"
/>
<path stroke="#f0f0f0" vector-effect="non-scaling-stroke" d="
  M 200.29 112.25
  Q 199.36 107.58 194.79 106.50"
/>
<path stroke="#737373" vector-effect="non-scaling-stroke" d="
  M 129.13 80.57
  C 123.30 92.91 121.08 107.22 124.88 120.47
  A 0.83 0.81 -2.7 0 0 125.53 121.05
  Q 126.03 121.13 126.30 120.47
  C 131.42 107.83 130.59 93.98 129.91 80.29
  A 0.32 0.32 0.0 0 0 129.48 80.00
  C 129.19 80.10 129.24 80.34 129.13 80.57"
/>
<path stroke="#828282" vector-effect="non-scaling-stroke" d="
  M 252.06 85.19
  C 247.06 81.89 237.16 83.18 237.04 91.01
  Q 236.88 101.62 237.09 112.39
  A 0.54 0.53 1.2 0 0 237.60 112.91
  C 242.03 113.11 254.16 112.27 255.46 106.49
  C 256.59 101.47 257.29 88.63 252.06 85.19"
/>
<path stroke="#828282" vector-effect="non-scaling-stroke" d="
  M 227.82 86.88
  C 226.10 87.04 223.33 88.43 224.02 90.55
  A 0.46 0.46 0.0 0 0 224.78 90.74
  L 228.10 87.46
  Q 228.78 86.79 227.82 86.88"
/>
<path stroke="#828282" vector-effect="non-scaling-stroke" d="
  M 368.91 93.01
  Q 367.42 97.72 368.14 102.65
  A 0.49 0.49 0.0 0 0 368.73 103.07
  Q 377.43 101.21 385.54 97.56
  A 0.98 0.97 80.9 0 0 386.10 96.78
  Q 386.48 93.37 385.24 90.17
  A 1.80 1.80 0.0 0 0 383.63 89.01
  Q 377.10 88.75 370.93 90.93
  Q 369.40 91.47 368.91 93.01"
/>
<path stroke="#828282" vector-effect="non-scaling-stroke" d="
  M 225.75 110.42
  A 0.75 0.75 0.0 0 0 226.85 109.79
  L 227.67 93.23
  A 0.29 0.29 0.0 0 0 227.28 92.95
  C 223.06 94.53 221.40 98.58 219.44 103.14
  A 1.16 1.15 -47.4 0 0 219.48 104.12
  Q 221.61 108.27 225.75 110.42"
/>
<path stroke="#737373" vector-effect="non-scaling-stroke" d="
  M 185.0864 104.5164
  A 5.23 0.58 97.4 0 0 186.3352 99.4047
  A 5.23 0.58 97.4 0 0 186.4336 94.1436
  A 5.23 0.58 97.4 0 0 185.1848 99.2553
  A 5.23 0.58 97.4 0 0 185.0864 104.5164"
/>
<path stroke="#f0f0f0" vector-effect="non-scaling-stroke" d="
  M 84.21 86.00
  Q 79.24 87.06 74.44 85.41
  A 1.32 1.32 0.0 0 0 73.51 85.44
  L 72.79 85.75"
/>
<path stroke="#f0f0f0" vector-effect="non-scaling-stroke" d="
  M 122.06 83.55
  Q 119.23 84.28 114.46 87.46
  Q 111.74 89.26 107.29 88.50"
/>
<path stroke="#737373" vector-effect="non-scaling-stroke" d="
  M 213.29 240.25
  Q 213.14 237.26 209.15 236.92
  Q 206.97 236.73 204.98 237.63
  C 196.63 241.39 194.74 249.40 193.71 257.98"
/>
<path stroke="#f0f0f0" vector-effect="non-scaling-stroke" d="
  M 193.71 257.98
  Q 186.67 256.73 181.04 260.75"
/>
<path stroke="#737373" vector-effect="non-scaling-stroke" d="
  M 181.04 260.75
  L 183.11 239.94
  A 0.85 0.85 0.0 0 0 181.94 239.07
  C 171.40 243.35 172.92 252.90 171.54 262.00"
/>
<path stroke="#737373" vector-effect="non-scaling-stroke" d="
  M 163.29 260.75
  Q 163.65 250.21 165.09 238.76
  Q 165.41 236.24 163.10 237.31
  Q 159.43 239.01 156.51 243.45
  Q 152.43 249.67 147.79 255.50"
/>
<path stroke="#f0f0f0" vector-effect="non-scaling-stroke" d="
  M 147.79 255.50
  L 147.61 254.97
  A 0.87 0.85 84.7 0 0 146.93 254.39
  Q 141.89 253.58 138.15 249.81"
/>
<path stroke="#737373" vector-effect="non-scaling-stroke" d="
  M 138.15 249.81
  L 137.82 247.57
  A 0.53 0.53 0.0 0 0 137.20 247.12
  Q 135.79 247.36 134.79 248.50"
/>
<path stroke="#f0f0f0" vector-effect="non-scaling-stroke" d="
  M 134.79 248.50
  Q 132.45 247.52 129.94 248.23
  A 1.53 1.50 45.6 0 1 129.04 248.21
  L 126.36 247.30
  A 1.12 1.11 -50.6 0 0 125.42 247.40
  Q 122.56 249.14 119.04 248.43"
/>
<path stroke="#737373" vector-effect="non-scaling-stroke" d="
  M 119.04 248.43
  C 119.20 243.45 122.43 239.96 124.66 235.69
  A 0.46 0.46 0.0 0 0 124.39 235.05
  C 122.58 234.48 112.59 243.80 110.78 245.66
  C 108.71 247.78 108.74 249.87 109.16 252.62"
/>
<path stroke="#f0f0f0" vector-effect="non-scaling-stroke" d="
  M 109.16 252.62
  Q 102.51 249.21 95.83 249.47
  A 1.80 1.77 -62.6 0 0 94.91 249.77
  C 92.32 251.45 91.18 250.69 89.13 248.53
  Q 87.62 246.94 85.40 246.20"
/>
<path stroke="#737373" vector-effect="non-scaling-stroke" d="
  M 85.40 246.20
  Q 85.90 243.02 83.57 241.71
  A 1.05 1.05 0.0 0 1 83.07 241.03
  L 82.77 239.72
  A 0.50 0.50 0.0 0 0 82.01 239.41
  C 79.94 240.73 71.92 246.31 73.21 250.00"
/>
<path stroke="#737373" vector-effect="non-scaling-stroke" d="
  M 152.00 185.47
  L 151.99 152.02
  Q 151.99 150.12 150.47 151.25
  L 149.06 152.29
  Q 148.37 152.81 148.74 152.02
  C 149.12 151.23 151.29 149.50 150.98 148.92
  A 0.57 0.57 0.0 0 0 150.23 148.68
  C 137.12 154.89 125.34 179.78 119.15 192.64
  C 114.63 202.03 111.97 207.76 110.57 216.70
  Q 110.10 219.69 113.09 220.16
  C 120.45 221.30 133.46 206.25 138.20 201.26
  A 1.35 1.32 -20.3 0 0 138.57 200.48
  Q 138.84 198.03 141.22 197.70
  A 0.55 0.55 0.0 0 1 141.84 198.26
  Q 141.49 212.96 147.24 226.41
  A 0.55 0.55 0.0 0 0 148.06 226.64
  Q 153.20 223.03 157.11 218.10
  A 0.81 0.80 -37.7 0 0 157.22 217.28
  Q 152.77 206.96 151.98 195.71
  A 2.55 2.54 70.4 0 1 153.03 193.48
  Q 157.71 190.13 161.02 185.44
  Q 161.58 184.65 160.65 184.90
  L 153.73 186.79
  A 1.37 1.37 0.0 0 1 152.00 185.47"
/>
<path stroke="#737373" vector-effect="non-scaling-stroke" d="
  M 124.00 197.38
  C 129.65 191.19 133.60 191.14 141.41 189.91
  A 0.70 0.69 85.7 0 0 142.00 189.22
  L 142.00 162.45
  Q 142.00 161.59 141.49 162.28
  C 134.22 172.22 128.24 185.93 123.35 196.96
  Q 122.37 199.17 124.00 197.38"
/>
<path stroke="#737373" vector-effect="non-scaling-stroke" d="
  M 121.50 210.00
  C 127.17 210.83 132.92 203.09 136.97 199.54
  Q 137.77 198.84 136.72 199.03
  L 122.37 201.63
  A 0.90 0.89 -86.6 0 0 121.69 202.24
  Q 120.59 205.83 121.09 209.59
  A 0.48 0.46 0.9 0 0 121.50 210.00"
/>
<path stroke="#828282" vector-effect="non-scaling-stroke" d="
  M 181.04 260.75
  L 181.02 265.34
  A 0.40 0.40 0.0 0 0 181.52 265.73
  Q 183.90 265.12 189.75 263.17
  Q 193.86 261.81 193.71 257.98"
/>
<path stroke="#828282" vector-effect="non-scaling-stroke" d="
  M 119.04 248.43
  Q 118.78 285.25 119.14 296.50
  Q 119.20 298.49 121.47 299.87
  A 0.92 0.90 -44.5 0 0 122.42 299.87
  L 125.90 297.79
  A 1.29 1.27 79.8 0 0 126.51 296.90
  Q 126.84 295.04 126.98 290.75
  Q 127.53 273.50 128.08 256.22
  A 1.85 1.79 -28.3 0 1 128.37 255.31
  Q 131.03 251.28 134.79 248.50"
/>
<path stroke="#828282" vector-effect="non-scaling-stroke" d="
  M 138.15 249.81
  Q 138.08 260.38 136.58 273.78
  A 0.99 0.98 22.5 0 0 136.95 274.66
  L 137.22 274.86
  A 0.34 0.34 0.0 0 0 137.74 274.72
  Q 141.89 264.66 147.79 255.50"
/>
<path stroke="#828282" vector-effect="non-scaling-stroke" d="
  M 85.40 246.20
  Q 89.99 259.18 98.24 270.15
  A 0.37 0.37 0.0 0 0 98.83 270.15
  Q 104.92 261.89 109.16 252.62"
/>
<path stroke="#828282" vector-effect="non-scaling-stroke" d="
  M 84.60 274.82
  A 0.32 0.32 0.0 0 0 84.02 275.02
  L 83.97 289.91
  A 0.32 0.32 0.0 0 0 84.54 290.11
  L 90.39 282.68
  A 0.32 0.32 0.0 0 0 90.39 282.29
  L 84.60 274.82"
/>
</g>
<path fill="#ffffff" d="
  M 0.00 0.00
  L 450.00 0.00
  L 450.00 357.00
  L 0.00 357.00
  L 0.00 249.94
  Q 0.04 251.25 0.92 252.43
  A 0.42 0.42 0.0 0 0 1.56 252.46
  C 4.28 249.43 6.85 248.14 11.20 248.30
  C 15.79 248.47 21.33 247.95 25.64 249.65
  C 32.61 252.41 34.48 251.31 41.05 248.82
  C 42.37 248.32 43.64 248.49 45.02 248.53
  A 1.12 1.10 -66.7 0 0 45.87 248.18
  C 49.71 244.14 56.31 248.31 60.56 249.82
  Q 62.62 250.55 64.64 249.74
  Q 68.61 248.14 73.21 250.00
  Q 75.38 255.62 75.20 259.00
  Q 73.59 289.25 73.77 319.59
  Q 73.79 322.60 76.32 320.97
  Q 80.87 318.05 84.14 313.88
  A 1.34 1.33 -30.3 0 0 84.41 312.87
  Q 83.19 304.25 84.07 295.62
  A 1.46 1.43 -19.2 0 1 84.53 294.69
  Q 89.28 290.25 92.71 284.68
  A 1.05 1.04 12.5 0 1 93.51 284.18
  C 95.84 283.98 97.40 284.22 99.45 282.93
  Q 104.49 279.74 107.82 274.68
  Q 108.24 274.03 107.46 274.02
  L 103.05 273.95
  Q 101.40 273.93 102.31 272.55
  L 108.44 263.29
  Q 108.93 262.56 108.93 263.43
  Q 109.03 283.94 109.03 304.43
  Q 109.03 309.22 113.49 310.69
  A 1.04 1.03 -51.8 0 0 114.38 310.58
  Q 118.14 308.20 121.36 305.11
  Q 121.59 304.89 121.80 305.00
  A 0.44 0.43 30.0 0 1 121.97 305.62
  Q 120.87 307.32 121.02 309.33
  Q 121.13 310.81 122.31 309.91
  L 128.12 305.52
  Q 128.52 305.21 129.03 305.13
  Q 129.95 304.98 130.89 304.86
  C 134.16 304.44 138.99 299.21 140.71 296.86
  A 0.98 0.98 0.0 0 0 140.19 295.33
  C 136.89 294.39 136.25 293.30 137.53 289.96
  Q 144.42 272.02 153.19 254.88
  Q 153.42 254.42 153.50 254.93
  Q 153.83 257.04 153.59 261.18
  Q 152.29 283.35 153.62 305.27
  Q 153.75 307.38 155.24 308.88
  Q 157.00 310.64 158.85 309.33
  Q 162.84 306.50 166.79 302.61
  Q 168.80 300.65 166.10 299.87
  C 164.62 299.44 163.42 295.64 163.33 293.78
  Q 162.58 277.28 163.29 260.75
  L 171.09 261.25
  A 0.43 0.43 0.0 0 1 171.50 261.65
  L 171.54 262.00
  L 170.64 268.63
  A 1.40 1.38 73.3 0 1 170.19 269.48
  C 169.02 270.55 164.62 274.22 165.14 276.32
  A 0.55 0.54 76.5 0 0 165.79 276.72
  L 169.78 275.85
  A 0.40 0.40 0.0 0 1 170.27 276.26
  C 170.02 284.28 169.32 293.16 170.54 301.09
  Q 170.89 303.39 172.57 301.78
  L 180.37 294.31
  A 1.12 1.11 65.2 0 0 180.71 293.38
  Q 179.62 283.76 180.08 274.08
  A 0.74 0.73 -11.5 0 1 180.50 273.45
  L 192.16 268.03
  A 0.33 0.33 0.0 0 1 192.63 268.35
  Q 191.69 281.03 192.25 293.68
  C 192.43 297.59 194.17 300.48 198.43 299.99
  Q 200.71 299.74 202.30 298.10
  L 210.43 289.76
  Q 210.74 289.43 210.83 289.88
  Q 212.46 298.28 220.00 300.53
  C 227.56 302.78 235.65 293.91 239.48 288.32
  Q 241.14 285.90 241.51 288.81
  Q 243.47 304.15 242.94 318.73
  Q 242.85 321.30 242.09 323.16
  C 238.98 330.83 221.75 335.04 214.87 332.05
  C 209.77 329.82 206.42 323.68 205.80 318.38
  A 0.86 0.85 -22.1 0 1 206.14 317.59
  Q 211.18 313.81 215.18 308.93
  A 1.14 1.14 0.0 0 0 215.13 307.43
  C 209.09 301.00 200.62 307.63 197.17 313.07
  C 192.04 321.15 196.30 336.97 204.75 341.38
  C 212.00 345.16 225.49 340.76 231.85 336.89
  C 239.70 332.11 252.50 320.19 252.98 310.00
  C 253.64 296.07 252.10 282.47 248.81 265.94
  Q 248.20 262.86 248.49 259.52
  C 248.94 254.31 250.39 239.25 247.55 235.12
  A 1.61 1.61 0.0 0 0 245.48 234.59
  C 232.87 241.00 234.38 253.34 236.90 265.19
  C 238.67 273.52 236.79 282.08 233.38 289.71
  A 2.23 2.23 0.0 0 1 230.98 291.00
  C 214.24 288.27 220.89 261.46 222.22 251.17
  C 222.30 250.57 222.07 250.05 221.93 249.51
  A 0.59 0.59 0.0 0 0 221.07 249.14
  C 215.82 252.03 211.67 256.59 211.24 262.76
  Q 210.29 276.67 204.63 289.50
  A 0.39 0.39 0.0 0 1 204.03 289.64
  C 201.19 287.28 201.83 274.83 201.98 268.63
  C 202.11 263.39 201.77 260.82 205.18 257.65
  Q 212.68 250.66 213.29 240.25
  C 219.10 240.86 222.36 237.26 226.84 232.96
  C 232.94 227.11 231.41 219.25 237.09 213.26
  Q 237.40 212.92 237.52 212.47
  L 239.57 204.62
  A 1.22 1.19 84.3 0 1 240.16 203.88
  L 242.69 202.56
  A 0.50 0.50 0.0 0 0 242.79 201.75
  C 239.90 199.11 239.42 196.63 239.79 192.53
  C 240.02 189.94 239.69 187.24 240.60 184.79
  Q 241.19 183.18 241.77 181.53
  A 1.55 1.50 -45.8 0 0 241.77 180.54
  L 239.74 174.60
  A 1.04 1.04 0.0 0 1 239.87 173.67
  L 242.01 170.58
  A 1.07 1.07 0.0 0 0 241.65 169.04
  C 238.23 167.16 239.26 164.95 239.53 161.85
  A 1.67 1.66 -59.0 0 0 239.27 160.80
  Q 237.02 157.31 236.42 153.24
  A 1.33 1.27 17.2 0 0 235.98 152.45
  L 232.02 149.06
  Q 231.64 148.74 231.15 148.61
  L 229.17 148.09
  A 0.59 0.58 12.5 0 1 228.74 147.43
  L 229.51 142.45
  A 1.10 1.09 -66.1 0 0 229.13 141.45
  L 225.37 138.31
  Q 223.90 137.08 223.27 135.27
  L 220.32 126.72
  A 1.42 1.42 0.0 0 0 219.57 125.90
  L 213.46 123.15
  A 0.95 0.94 39.6 0 0 212.55 123.23
  Q 211.81 123.74 211.08 123.18
  A 1.43 1.41 13.9 0 1 210.56 122.33
  Q 209.82 118.41 207.46 115.25
  L 209.04 114.20
  A 0.49 0.49 0.0 0 1 209.74 114.37
  C 213.05 120.33 221.44 123.23 227.75 123.27
  Q 244.85 123.38 258.22 109.13
  Q 259.60 107.66 259.95 109.64
  C 260.44 112.45 263.83 115.68 266.59 116.70
  C 275.42 119.97 285.13 106.96 289.13 99.97
  Q 289.37 99.55 289.37 100.04
  Q 289.31 120.02 288.96 140.00
  Q 288.86 145.75 286.89 150.32
  A 1.30 1.27 -87.0 0 1 286.14 151.01
  Q 269.52 156.79 264.12 140.76
  A 1.90 1.90 0.0 0 1 264.56 138.83
  L 270.97 132.39
  A 0.77 0.76 52.8 0 0 271.09 131.47
  Q 270.83 131.01 270.25 131.04
  C 264.35 131.40 251.59 137.55 252.74 144.98
  Q 254.21 154.53 260.95 160.27
  Q 262.80 161.84 265.20 162.09
  C 278.06 163.47 288.01 156.88 294.79 146.34
  Q 298.30 140.88 298.83 132.57
  Q 299.52 121.78 299.70 111.01
  Q 299.71 110.52 300.08 110.84
  C 310.94 120.30 329.21 118.65 340.23 111.16
  C 345.74 107.41 351.95 101.26 356.68 95.59
  Q 357.75 94.31 357.75 95.98
  L 357.75 104.23
  A 0.60 0.59 85.5 0 1 357.25 104.82
  C 353.51 105.43 349.01 105.51 345.96 107.91
  C 344.54 109.02 339.00 113.35 340.15 115.36
  A 0.82 0.82 0.0 0 0 340.92 115.76
  C 357.19 114.38 374.58 111.53 387.74 100.18
  C 393.84 94.92 398.22 90.10 395.84 82.07
  Q 394.95 79.06 391.82 79.01
  C 380.84 78.82 376.76 83.20 368.45 88.71
  A 0.29 0.29 0.0 0 1 368.00 88.49
  Q 367.24 78.32 369.55 68.47
  C 370.89 62.80 371.11 58.60 370.98 53.25
  A 1.34 1.33 -12.1 0 0 369.12 52.05
  Q 359.84 55.99 358.24 65.87
  C 357.08 73.04 359.29 79.86 356.41 86.93
  C 352.87 95.62 348.62 103.29 338.99 106.24
  C 332.01 108.37 312.12 107.81 308.01 98.76
  C 303.56 88.92 310.96 71.37 316.52 63.76
  C 320.18 58.75 324.66 58.77 330.84 58.66
  C 335.00 58.58 347.25 59.60 348.37 65.15
  Q 349.47 70.63 346.09 76.31
  Q 345.21 77.79 346.56 78.78
  A 0.68 0.68 0.0 0 0 347.38 78.76
  C 355.52 72.33 358.37 67.60 358.47 57.90
  Q 358.49 55.03 356.43 53.05
  C 350.52 47.34 331.77 47.68 325.20 52.18
  Q 308.03 63.94 300.58 82.92
  Q 300.20 83.89 300.15 82.84
  Q 299.44 68.36 300.98 53.97
  A 0.83 0.83 0.0 0 0 299.83 53.11
  C 294.68 55.28 291.57 59.17 290.73 64.91
  Q 287.72 85.65 280.06 106.11
  A 1.85 1.84 -76.8 0 1 278.17 107.29
  C 269.15 106.39 269.57 99.40 270.21 91.90
  Q 271.49 76.84 276.58 62.58
  C 278.61 56.91 284.58 54.83 286.13 49.13
  C 286.60 47.39 284.98 46.48 283.52 47.39
  Q 276.45 51.76 271.91 58.68
  C 267.85 64.86 252.16 74.72 244.02 75.06
  Q 243.50 75.08 243.86 74.70
  C 249.69 68.53 260.60 60.30 260.00 50.58
  Q 259.87 48.47 257.76 48.67
  Q 248.49 49.57 239.71 52.78
  A 0.58 0.58 0.0 0 1 238.98 52.47
  L 238.55 51.47
  A 0.76 0.76 0.0 0 0 237.71 51.02
  C 231.68 52.05 227.21 55.12 222.00 58.07
  A 0.51 0.50 60.3 0 1 221.32 57.88
  C 219.12 53.95 218.29 51.39 214.00 51.07
  Q 208.05 50.62 203.76 53.05
  C 198.98 55.75 186.89 65.24 186.99 71.22
  A 0.37 0.37 0.0 0 0 187.49 71.56
  L 189.01 71.01
  A 0.49 0.48 82.4 0 1 189.66 71.51
  L 188.51 84.01
  Q 188.36 85.63 187.36 86.90
  L 180.50 95.54
  Q 173.55 93.73 166.69 96.13
  A 2.95 2.94 -36.5 0 1 164.00 95.73
  C 161.90 94.20 158.80 91.04 156.04 92.25
  L 156.16 88.85
  A 0.71 0.70 84.7 0 1 156.70 88.19
  C 167.62 85.67 177.22 85.36 183.86 74.97
  Q 184.72 73.63 183.18 74.02
  Q 171.42 76.99 159.06 79.78
  Q 157.94 80.04 156.81 81.76
  A 0.47 0.47 0.0 0 1 156.19 81.91
  C 155.84 81.71 156.01 67.10 156.02 65.47
  A 1.13 1.12 77.7 0 1 156.67 64.45
  Q 167.08 59.58 178.50 58.88
  Q 180.03 58.78 180.04 60.20
  Q 180.04 61.26 180.93 60.69
  Q 186.15 57.36 189.47 52.13
  Q 190.59 50.36 188.70 49.44
  C 187.29 48.75 184.66 49.58 183.43 49.67
  Q 167.83 50.83 155.75 60.70
  A 0.29 0.29 0.0 0 1 155.28 60.54
  C 153.77 53.75 142.71 61.53 140.00 63.04
  A 0.52 0.52 0.0 0 1 139.22 62.60
  C 139.00 57.53 137.57 46.51 130.51 46.45
  C 117.73 46.33 105.33 56.45 97.50 66.26
  Q 96.88 67.04 95.70 70.31
  Q 95.52 70.81 95.31 70.33
  Q 94.84 69.23 94.91 68.00
  Q 96.09 46.16 98.03 24.37
  C 98.56 18.46 100.50 13.20 102.25 7.57
  A 1.18 1.18 0.0 0 0 101.26 6.05
  C 101.06 6.02 100.12 5.92 99.87 6.00
  Q 87.13 9.80 74.12 12.62
  A 1.64 1.54 -72.6 0 0 73.29 13.09
  Q 72.63 13.82 71.83 13.32
  A 1.02 1.00 -41.0 0 0 70.87 13.26
  C 65.22 15.84 62.01 20.06 62.00 26.44
  Q 61.99 57.99 62.21 89.50
  Q 60.24 90.19 58.90 91.97
  A 0.73 0.73 0.0 0 1 58.01 92.18
  L 45.21 86.17
  A 1.30 1.28 4.1 0 1 44.54 85.41
  C 42.61 79.53 31.99 82.91 27.98 84.19
  A 1.81 1.73 42.0 0 1 27.02 84.22
  Q 13.66 81.14 0.00 80.69
  L 0.00 0.00
  Z
  M 264.86 249.90
  Q 262.11 271.37 261.17 293.00
  Q 260.86 300.17 263.67 306.44
  A 0.85 0.85 0.0 0 0 264.96 306.77
  Q 269.93 303.00 273.97 298.22
  A 0.83 0.81 51.1 0 0 274.06 297.31
  C 271.89 293.33 271.17 289.92 271.33 285.09
  Q 271.93 266.75 273.88 249.60
  Q 274.11 247.53 276.20 247.42
  Q 281.95 247.11 286.80 246.87
  C 289.68 246.72 291.50 245.20 293.60 243.66
  Q 295.60 242.21 295.28 244.66
  Q 293.09 261.27 291.93 277.92
  Q 291.77 280.25 290.69 282.86
  Q 288.03 289.24 287.83 296.29
  Q 287.76 298.62 289.80 299.75
  Q 292.58 301.28 294.38 303.85
  A 1.50 1.46 82.1 0 0 295.09 304.40
  Q 299.37 305.97 302.95 302.42
  Q 310.42 295.01 318.31 288.11
  Q 318.94 287.55 319.02 288.39
  C 319.64 294.82 323.40 298.50 329.50 299.89
  C 339.93 302.26 347.69 293.08 354.34 286.24
  Q 354.92 285.65 354.98 286.47
  Q 356.27 302.88 355.88 319.32
  Q 355.69 327.51 352.81 335.04
  C 350.51 341.04 339.18 342.49 334.12 340.51
  C 326.85 337.66 322.62 325.34 320.40 318.47
  A 0.81 0.81 0.0 0 0 319.26 318.00
  Q 313.74 320.84 310.50 326.12
  A 1.26 1.26 0.0 0 0 310.36 327.08
  Q 312.28 334.61 317.19 343.29
  C 320.62 349.36 324.73 351.63 331.73 351.26
  C 347.90 350.43 363.85 332.18 365.50 316.75
  Q 366.43 308.03 365.87 294.55
  Q 364.68 265.72 365.00 236.77
  A 0.31 0.31 0.0 0 0 364.56 236.49
  C 360.56 238.41 355.31 242.60 355.17 247.46
  C 354.96 254.75 355.08 289.57 343.99 290.27
  C 333.14 290.95 324.90 282.37 330.93 271.67
  C 334.52 265.30 339.01 257.21 339.66 250.34
  Q 340.03 246.37 336.74 248.61
  C 324.98 256.60 321.33 266.72 319.20 280.24
  C 318.09 287.28 310.83 291.16 304.42 292.01
  Q 301.93 292.35 301.94 289.84
  L 301.99 272.58
  Q 302.00 270.93 303.07 269.66
  C 305.62 266.63 334.83 240.01 333.52 238.88
  A 1.62 1.62 0.0 0 0 331.35 238.91
  L 302.78 265.61
  Q 301.83 266.50 301.97 265.21
  C 303.23 254.38 305.48 242.41 305.22 231.68
  Q 305.19 230.63 304.37 231.29
  L 297.65 236.60
  A 1.68 1.67 24.6 0 1 296.67 236.96
  Q 282.25 237.32 268.22 240.59
  C 262.27 241.98 258.10 244.58 255.28 249.68
  Q 254.30 251.45 256.28 251.07
  L 264.45 249.51
  A 0.35 0.35 0.0 0 1 264.86 249.90
  Z"
/>
<path fill="#050505" d="
  M 156.04 92.25
  L 156.01 105.52
  A 0.80 0.79 3.1 0 0 156.73 106.32
  L 173.92 108.10
  A 0.98 0.98 0.0 0 0 174.97 107.40
  Q 176.82 101.11 180.50 95.54
  L 187.36 86.90
  Q 188.36 85.63 188.51 84.01
  L 189.66 71.51
  A 0.49 0.48 82.4 0 0 189.01 71.01
  L 187.49 71.56
  A 0.37 0.37 0.0 0 1 186.99 71.22
  C 186.89 65.24 198.98 55.75 203.76 53.05
  Q 208.05 50.62 214.00 51.07
  C 218.29 51.39 219.12 53.95 221.32 57.88
  A 0.51 0.50 60.3 0 0 222.00 58.07
  C 227.21 55.12 231.68 52.05 237.71 51.02
  A 0.76 0.76 0.0 0 1 238.55 51.47
  L 238.98 52.47
  A 0.58 0.58 0.0 0 0 239.71 52.78
  Q 248.49 49.57 257.76 48.67
  Q 259.87 48.47 260.00 50.58
  C 260.60 60.30 249.69 68.53 243.86 74.70
  Q 243.50 75.08 244.02 75.06
  C 252.16 74.72 267.85 64.86 271.91 58.68
  Q 276.45 51.76 283.52 47.39
  C 284.98 46.48 286.60 47.39 286.13 49.13
  C 284.58 54.83 278.61 56.91 276.58 62.58
  Q 271.49 76.84 270.21 91.90
  C 269.57 99.40 269.15 106.39 278.17 107.29
  A 1.85 1.84 -76.8 0 0 280.06 106.11
  Q 287.72 85.65 290.73 64.91
  C 291.57 59.17 294.68 55.28 299.83 53.11
  A 0.83 0.83 0.0 0 1 300.98 53.97
  Q 299.44 68.36 300.15 82.84
  Q 300.20 83.89 300.58 82.92
  Q 308.03 63.94 325.20 52.18
  C 331.77 47.68 350.52 47.34 356.43 53.05
  Q 358.49 55.03 358.47 57.90
  C 358.37 67.60 355.52 72.33 347.38 78.76
  A 0.68 0.68 0.0 0 1 346.56 78.78
  Q 345.21 77.79 346.09 76.31
  Q 349.47 70.63 348.37 65.15
  C 347.25 59.60 335.00 58.58 330.84 58.66
  C 324.66 58.77 320.18 58.75 316.52 63.76
  C 310.96 71.37 303.56 88.92 308.01 98.76
  C 312.12 107.81 332.01 108.37 338.99 106.24
  C 348.62 103.29 352.87 95.62 356.41 86.93
  C 359.29 79.86 357.08 73.04 358.24 65.87
  Q 359.84 55.99 369.12 52.05
  A 1.34 1.33 -12.1 0 1 370.98 53.25
  C 371.11 58.60 370.89 62.80 369.55 68.47
  Q 367.24 78.32 368.00 88.49
  A 0.29 0.29 0.0 0 0 368.45 88.71
  C 376.76 83.20 380.84 78.82 391.82 79.01
  Q 394.95 79.06 395.84 82.07
  C 398.22 90.10 393.84 94.92 387.74 100.18
  C 374.58 111.53 357.19 114.38 340.92 115.76
  A 0.82 0.82 0.0 0 1 340.15 115.36
  C 339.00 113.35 344.54 109.02 345.96 107.91
  C 349.01 105.51 353.51 105.43 357.25 104.82
  A 0.60 0.59 85.5 0 0 357.75 104.23
  L 357.75 95.98
  Q 357.75 94.31 356.68 95.59
  C 351.95 101.26 345.74 107.41 340.23 111.16
  C 329.21 118.65 310.94 120.30 300.08 110.84
  Q 299.71 110.52 299.70 111.01
  Q 299.52 121.78 298.83 132.57
  Q 298.30 140.88 294.79 146.34
  C 288.01 156.88 278.06 163.47 265.20 162.09
  Q 262.80 161.84 260.95 160.27
  Q 254.21 154.53 252.74 144.98
  C 251.59 137.55 264.35 131.40 270.25 131.04
  Q 270.83 131.01 271.09 131.47
  A 0.77 0.76 52.8 0 1 270.97 132.39
  L 264.56 138.83
  A 1.90 1.90 0.0 0 0 264.12 140.76
  Q 269.52 156.79 286.14 151.01
  A 1.30 1.27 -87.0 0 0 286.89 150.32
  Q 288.86 145.75 288.96 140.00
  Q 289.31 120.02 289.37 100.04
  Q 289.37 99.55 289.13 99.97
  C 285.13 106.96 275.42 119.97 266.59 116.70
  C 263.83 115.68 260.44 112.45 259.95 109.64
  Q 259.60 107.66 258.22 109.13
  Q 244.85 123.38 227.75 123.27
  C 221.44 123.23 213.05 120.33 209.74 114.37
  A 0.49 0.49 0.0 0 0 209.04 114.20
  L 207.46 115.25
  Q 201.89 119.92 194.99 121.47
  A 1.27 1.26 83.9 0 0 194.01 122.69
  C 193.95 139.66 193.50 156.19 196.87 172.52
  C 198.02 178.10 192.66 182.89 188.14 185.11
  A 0.41 0.40 -20.1 0 1 187.57 184.85
  C 182.75 164.38 183.64 144.62 184.09 123.80
  A 0.77 0.77 0.0 0 0 183.57 123.06
  Q 178.36 121.38 175.99 116.40
  A 0.63 0.63 0.0 0 0 175.20 116.08
  C 169.43 118.23 164.98 117.76 159.01 117.44
  C 155.89 117.28 149.83 115.97 147.09 117.43
  A 0.99 0.99 0.0 0 1 145.68 116.86
  Q 142.14 105.92 140.63 94.50
  Q 140.47 93.35 140.36 94.51
  C 138.88 110.02 133.33 122.64 119.87 130.60
  Q 118.46 131.43 116.87 131.02
  Q 114.92 130.51 114.35 127.47
  Q 109.91 103.97 122.06 83.55
  L 128.87 74.03
  A 1.88 1.85 -26.6 0 0 129.22 73.01
  Q 129.48 64.75 125.21 57.79
  Q 124.32 56.33 122.60 56.32
  Q 114.66 56.31 107.75 60.08
  A 1.30 1.29 -14.6 0 0 107.08 61.21
  L 107.29 88.50
  C 107.23 113.60 111.05 135.11 115.22 158.51
  C 115.91 162.40 116.99 169.14 114.53 172.58
  Q 111.11 177.37 106.18 181.10
  A 3.02 3.00 71.6 0 0 104.99 183.50
  L 105.02 214.67
  Q 105.02 216.90 107.13 217.60
  L 109.41 218.36
  A 0.44 0.44 0.0 0 1 109.64 219.01
  C 107.23 222.90 99.92 231.79 95.35 225.86
  A 1.51 1.51 0.0 0 1 95.03 224.93
  L 94.99 188.45
  A 0.42 0.42 0.0 0 0 94.46 188.05
  Q 86.75 190.36 78.70 191.14
  A 1.91 1.90 -3.0 0 0 76.98 193.04
  Q 77.04 202.50 76.13 210.83
  C 75.61 215.54 70.84 219.99 67.15 222.25
  Q 64.91 223.62 64.94 221.00
  L 65.22 190.91
  A 1.16 1.15 68.0 0 1 65.57 190.08
  Q 67.69 187.96 67.71 186.50
  Q 67.89 174.78 68.10 162.99
  C 68.18 158.11 73.18 153.47 77.01 151.24
  Q 78.34 150.46 78.32 152.01
  L 78.03 181.52
  A 0.46 0.45 88.8 0 0 78.50 181.98
  Q 84.48 181.81 90.43 180.98
  C 93.33 180.57 95.40 180.73 95.53 177.50
  Q 96.12 162.86 96.06 148.17
  A 1.25 1.23 -23.6 0 1 96.40 147.32
  L 100.56 143.02
  A 0.97 0.96 -28.3 0 0 100.82 142.17
  C 97.52 123.92 97.18 105.25 96.78 86.74
  A 0.78 0.76 9.4 0 0 96.26 86.03
  L 95.44 85.74
  A 0.73 0.73 0.0 0 1 94.96 84.93
  Q 95.34 82.43 94.68 80.00
  Q 94.35 78.82 94.34 80.05
  L 93.90 124.40
  Q 93.88 126.07 92.85 127.39
  Q 89.47 131.69 84.93 134.71
  Q 84.07 135.28 84.07 134.24
  L 84.21 86.00
  Q 84.66 83.30 84.69 82.44
  Q 85.57 58.06 87.84 33.78
  C 88.42 27.64 89.87 22.64 92.04 17.15
  Q 92.70 15.49 90.98 15.98
  L 72.56 21.24
  A 0.65 0.65 0.0 0 0 72.09 21.85
  C 71.86 42.96 71.14 64.75 72.79 85.75
  Q 74.16 102.27 75.93 118.76
  C 76.41 123.23 69.58 127.93 66.67 129.51
  A 0.34 0.34 0.0 0 1 66.17 129.24
  L 62.21 89.50
  Q 61.99 57.99 62.00 26.44
  C 62.01 20.06 65.22 15.84 70.87 13.26
  A 1.02 1.00 -41.0 0 1 71.83 13.32
  Q 72.63 13.82 73.29 13.09
  A 1.64 1.54 -72.6 0 1 74.12 12.62
  Q 87.13 9.80 99.87 6.00
  C 100.12 5.92 101.06 6.02 101.26 6.05
  A 1.18 1.18 0.0 0 1 102.25 7.57
  C 100.50 13.20 98.56 18.46 98.03 24.37
  Q 96.09 46.16 94.91 68.00
  Q 94.84 69.23 95.31 70.33
  Q 95.52 70.81 95.70 70.31
  Q 96.88 67.04 97.50 66.26
  C 105.33 56.45 117.73 46.33 130.51 46.45
  C 137.57 46.51 139.00 57.53 139.22 62.60
  A 0.52 0.52 0.0 0 0 140.00 63.04
  C 142.71 61.53 153.77 53.75 155.28 60.54
  A 0.29 0.29 0.0 0 0 155.75 60.70
  Q 167.83 50.83 183.43 49.67
  C 184.66 49.58 187.29 48.75 188.70 49.44
  Q 190.59 50.36 189.47 52.13
  Q 186.15 57.36 180.93 60.69
  Q 180.04 61.26 180.04 60.20
  Q 180.03 58.78 178.50 58.88
  Q 167.08 59.58 156.67 64.45
  A 1.13 1.12 77.7 0 0 156.02 65.47
  C 156.01 67.10 155.84 81.71 156.19 81.91
  A 0.47 0.47 0.0 0 0 156.81 81.76
  Q 157.94 80.04 159.06 79.78
  Q 171.42 76.99 183.18 74.02
  Q 184.72 73.63 183.86 74.97
  C 177.22 85.36 167.62 85.67 156.70 88.19
  A 0.71 0.70 84.7 0 0 156.16 88.85
  L 156.04 92.25
  Z
  M 249.53 59.08
  Q 244.55 58.78 239.68 59.90
  A 0.88 0.87 -6.7 0 0 239.00 60.75
  L 239.00 73.49
  Q 239.00 74.08 239.51 73.78
  C 243.98 71.17 250.83 65.51 250.22 59.74
  A 0.73 0.73 0.0 0 0 249.53 59.08
  Z
  M 209.76 66.24
  C 210.18 61.83 204.42 59.88 201.12 61.04
  A 1.84 1.84 0.0 0 0 199.89 62.61
  L 198.71 74.94
  Q 198.66 75.47 199.07 75.13
  L 209.37 66.96
  A 1.05 1.03 -17.1 0 0 209.76 66.24
  Z
  M 224.08 64.33
  L 223.49 63.35
  Q 222.92 62.41 223.06 63.50
  Q 224.33 73.44 223.95 83.46
  Q 223.92 84.03 224.42 83.74
  C 227.17 82.16 228.98 80.22 229.00 76.75
  Q 229.02 70.34 228.97 63.88
  A 0.48 0.48 0.0 0 0 228.33 63.43
  L 224.95 64.64
  A 0.73 0.73 0.0 0 1 224.08 64.33
  Z
  M 143.69 67.96
  L 140.56 68.01
  A 0.65 0.64 88.7 0 0 139.93 68.68
  L 140.19 77.94
  Q 140.22 78.92 140.71 78.07
  L 145.16 70.46
  Q 146.65 67.91 143.69 67.96
  Z
  M 259.41 73.40
  A 0.33 0.33 0.0 0 0 259.41 73.93
  L 264.07 77.27
  A 0.33 0.33 0.0 0 0 264.58 77.10
  L 267.37 68.28
  A 0.33 0.33 0.0 0 0 266.86 67.92
  L 259.41 73.40
  Z
  M 194.79 106.50
  L 194.20 112.30
  A 0.53 0.52 -83.9 0 0 194.66 112.88
  Q 197.53 113.23 200.29 112.25
  Q 204.56 111.86 208.32 109.78
  A 1.64 1.62 89.6 0 0 208.99 109.09
  C 210.65 105.93 213.47 102.39 213.94 98.92
  C 215.05 90.63 213.88 80.11 212.83 71.43
  Q 212.45 68.30 210.00 70.28
  L 199.26 78.92
  A 4.13 4.12 75.4 0 0 197.79 81.44
  Q 195.70 93.94 194.79 106.50
  Z
  M 129.13 80.57
  C 123.30 92.91 121.08 107.22 124.88 120.47
  A 0.83 0.81 -2.7 0 0 125.53 121.05
  Q 126.03 121.13 126.30 120.47
  C 131.42 107.83 130.59 93.98 129.91 80.29
  A 0.32 0.32 0.0 0 0 129.48 80.00
  C 129.19 80.10 129.24 80.34 129.13 80.57
  Z
  M 252.06 85.19
  C 247.06 81.89 237.16 83.18 237.04 91.01
  Q 236.88 101.62 237.09 112.39
  A 0.54 0.53 1.2 0 0 237.60 112.91
  C 242.03 113.11 254.16 112.27 255.46 106.49
  C 256.59 101.47 257.29 88.63 252.06 85.19
  Z
  M 227.82 86.88
  C 226.10 87.04 223.33 88.43 224.02 90.55
  A 0.46 0.46 0.0 0 0 224.78 90.74
  L 228.10 87.46
  Q 228.78 86.79 227.82 86.88
  Z
  M 368.91 93.01
  Q 367.42 97.72 368.14 102.65
  A 0.49 0.49 0.0 0 0 368.73 103.07
  Q 377.43 101.21 385.54 97.56
  A 0.98 0.97 80.9 0 0 386.10 96.78
  Q 386.48 93.37 385.24 90.17
  A 1.80 1.80 0.0 0 0 383.63 89.01
  Q 377.10 88.75 370.93 90.93
  Q 369.40 91.47 368.91 93.01
  Z
  M 225.75 110.42
  A 0.75 0.75 0.0 0 0 226.85 109.79
  L 227.67 93.23
  A 0.29 0.29 0.0 0 0 227.28 92.95
  C 223.06 94.53 221.40 98.58 219.44 103.14
  A 1.16 1.15 -47.4 0 0 219.48 104.12
  Q 221.61 108.27 225.75 110.42
  Z
  M 185.0864 104.5164
  A 5.23 0.58 97.4 0 0 186.3352 99.4047
  A 5.23 0.58 97.4 0 0 186.4336 94.1436
  A 5.23 0.58 97.4 0 0 185.1848 99.2553
  A 5.23 0.58 97.4 0 0 185.0864 104.5164
  Z"
/>
<path fill="#ffffff" d="
  M 84.21 86.00
  Q 79.24 87.06 74.44 85.41
  A 1.32 1.32 0.0 0 0 73.51 85.44
  L 72.79 85.75
  C 71.14 64.75 71.86 42.96 72.09 21.85
  A 0.65 0.65 0.0 0 1 72.56 21.24
  L 90.98 15.98
  Q 92.70 15.49 92.04 17.15
  C 89.87 22.64 88.42 27.64 87.84 33.78
  Q 85.57 58.06 84.69 82.44
  Q 84.66 83.30 84.21 86.00
  Z"
/>
<path fill="#ffffff" d="
  M 122.06 83.55
  Q 119.23 84.28 114.46 87.46
  Q 111.74 89.26 107.29 88.50
  L 107.08 61.21
  A 1.30 1.29 -14.6 0 1 107.75 60.08
  Q 114.66 56.31 122.60 56.32
  Q 124.32 56.33 125.21 57.79
  Q 129.48 64.75 129.22 73.01
  A 1.88 1.85 -26.6 0 1 128.87 74.03
  L 122.06 83.55
  Z"
/>
<path fill="#ffffff" d="
  M 249.53 59.08
  A 0.73 0.73 0.0 0 1 250.22 59.74
  C 250.83 65.51 243.98 71.17 239.51 73.78
  Q 239.00 74.08 239.00 73.49
  L 239.00 60.75
  A 0.88 0.87 -6.7 0 1 239.68 59.90
  Q 244.55 58.78 249.53 59.08
  Z"
/>
<path fill="#ffffff" d="
  M 201.12 61.04
  C 204.42 59.88 210.18 61.83 209.76 66.24
  A 1.05 1.03 -17.1 0 1 209.37 66.96
  L 199.07 75.13
  Q 198.66 75.47 198.71 74.94
  L 199.89 62.61
  A 1.84 1.84 0.0 0 1 201.12 61.04
  Z"
/>
<path fill="#ffffff" d="
  M 224.95 64.64
  L 228.33 63.43
  A 0.48 0.48 0.0 0 1 228.97 63.88
  Q 229.02 70.34 229.00 76.75
  C 228.98 80.22 227.17 82.16 224.42 83.74
  Q 223.92 84.03 223.95 83.46
  Q 224.33 73.44 223.06 63.50
  Q 222.92 62.41 223.49 63.35
  L 224.08 64.33
  A 0.73 0.73 0.0 0 0 224.95 64.64
  Z"
/>
<path fill="#ffffff" d="
  M 143.69 67.96
  Q 146.65 67.91 145.16 70.46
  L 140.71 78.07
  Q 140.22 78.92 140.19 77.94
  L 139.93 68.68
  A 0.65 0.64 88.7 0 1 140.56 68.01
  L 143.69 67.96
  Z"
/>
<path fill="#ffffff" d="
  M 259.41 73.40
  L 266.86 67.92
  A 0.33 0.33 0.0 0 1 267.37 68.28
  L 264.58 77.10
  A 0.33 0.33 0.0 0 1 264.07 77.27
  L 259.41 73.93
  A 0.33 0.33 0.0 0 1 259.41 73.40
  Z"
/>
<path fill="#ffffff" d="
  M 200.29 112.25
  Q 199.36 107.58 194.79 106.50
  Q 195.70 93.94 197.79 81.44
  A 4.13 4.12 75.4 0 1 199.26 78.92
  L 210.00 70.28
  Q 212.45 68.30 212.83 71.43
  C 213.88 80.11 215.05 90.63 213.94 98.92
  C 213.47 102.39 210.65 105.93 208.99 109.09
  A 1.64 1.62 89.6 0 1 208.32 109.78
  Q 204.56 111.86 200.29 112.25
  Z"
/>
<path fill="#e0e0e0" d="
  M 107.29 88.50
  Q 111.74 89.26 114.46 87.46
  Q 119.23 84.28 122.06 83.55
  Q 109.91 103.97 114.35 127.47
  Q 114.92 130.51 116.87 131.02
  Q 118.46 131.43 119.87 130.60
  C 133.33 122.64 138.88 110.02 140.36 94.51
  Q 140.47 93.35 140.63 94.50
  Q 142.14 105.92 145.68 116.86
  A 0.99 0.99 0.0 0 0 147.09 117.43
  C 149.83 115.97 155.89 117.28 159.01 117.44
  C 164.98 117.76 169.43 118.23 175.20 116.08
  A 0.63 0.63 0.0 0 1 175.99 116.40
  Q 178.36 121.38 183.57 123.06
  A 0.77 0.77 0.0 0 1 184.09 123.80
  C 183.64 144.62 182.75 164.38 187.57 184.85
  A 0.41 0.40 -20.1 0 0 188.14 185.11
  C 192.66 182.89 198.02 178.10 196.87 172.52
  C 193.50 156.19 193.95 139.66 194.01 122.69
  A 1.27 1.26 83.9 0 1 194.99 121.47
  Q 201.89 119.92 207.46 115.25
  Q 209.82 118.41 210.56 122.33
  A 1.43 1.41 13.9 0 0 211.08 123.18
  Q 211.81 123.74 212.55 123.23
  A 0.95 0.94 39.6 0 1 213.46 123.15
  L 219.57 125.90
  A 1.42 1.42 0.0 0 1 220.32 126.72
  L 223.27 135.27
  Q 223.90 137.08 225.37 138.31
  L 229.13 141.45
  A 1.10 1.09 -66.1 0 1 229.51 142.45
  L 228.74 147.43
  A 0.59 0.58 12.5 0 0 229.17 148.09
  L 231.15 148.61
  Q 231.64 148.74 232.02 149.06
  L 235.98 152.45
  A 1.33 1.27 17.2 0 1 236.42 153.24
  Q 237.02 157.31 239.27 160.80
  A 1.67 1.66 -59.0 0 1 239.53 161.85
  C 239.26 164.95 238.23 167.16 241.65 169.04
  A 1.07 1.07 0.0 0 1 242.01 170.58
  L 239.87 173.67
  A 1.04 1.04 0.0 0 0 239.74 174.60
  L 241.77 180.54
  A 1.55 1.50 -45.8 0 1 241.77 181.53
  Q 241.19 183.18 240.60 184.79
  C 239.69 187.24 240.02 189.94 239.79 192.53
  C 239.42 196.63 239.90 199.11 242.79 201.75
  A 0.50 0.50 0.0 0 1 242.69 202.56
  L 240.16 203.88
  A 1.22 1.19 84.3 0 0 239.57 204.62
  L 237.52 212.47
  Q 237.40 212.92 237.09 213.26
  C 231.41 219.25 232.94 227.11 226.84 232.96
  C 222.36 237.26 219.10 240.86 213.29 240.25
  Q 213.14 237.26 209.15 236.92
  Q 206.97 236.73 204.98 237.63
  C 196.63 241.39 194.74 249.40 193.71 257.98
  Q 186.67 256.73 181.04 260.75
  L 183.11 239.94
  A 0.85 0.85 0.0 0 0 181.94 239.07
  C 171.40 243.35 172.92 252.90 171.54 262.00
  L 171.50 261.65
  A 0.43 0.43 0.0 0 0 171.09 261.25
  L 163.29 260.75
  Q 163.65 250.21 165.09 238.76
  Q 165.41 236.24 163.10 237.31
  Q 159.43 239.01 156.51 243.45
  Q 152.43 249.67 147.79 255.50
  L 147.61 254.97
  A 0.87 0.85 84.7 0 0 146.93 254.39
  Q 141.89 253.58 138.15 249.81
  L 137.82 247.57
  A 0.53 0.53 0.0 0 0 137.20 247.12
  Q 135.79 247.36 134.79 248.50
  Q 132.45 247.52 129.94 248.23
  A 1.53 1.50 45.6 0 1 129.04 248.21
  L 126.36 247.30
  A 1.12 1.11 -50.6 0 0 125.42 247.40
  Q 122.56 249.14 119.04 248.43
  C 119.20 243.45 122.43 239.96 124.66 235.69
  A 0.46 0.46 0.0 0 0 124.39 235.05
  C 122.58 234.48 112.59 243.80 110.78 245.66
  C 108.71 247.78 108.74 249.87 109.16 252.62
  Q 102.51 249.21 95.83 249.47
  A 1.80 1.77 -62.6 0 0 94.91 249.77
  C 92.32 251.45 91.18 250.69 89.13 248.53
  Q 87.62 246.94 85.40 246.20
  Q 85.90 243.02 83.57 241.71
  A 1.05 1.05 0.0 0 1 83.07 241.03
  L 82.77 239.72
  A 0.50 0.50 0.0 0 0 82.01 239.41
  C 79.94 240.73 71.92 246.31 73.21 250.00
  Q 68.61 248.14 64.64 249.74
  Q 62.62 250.55 60.56 249.82
  C 56.31 248.31 49.71 244.14 45.87 248.18
  A 1.12 1.10 -66.7 0 1 45.02 248.53
  C 43.64 248.49 42.37 248.32 41.05 248.82
  C 34.48 251.31 32.61 252.41 25.64 249.65
  C 21.33 247.95 15.79 248.47 11.20 248.30
  C 6.85 248.14 4.28 249.43 1.56 252.46
  A 0.42 0.42 0.0 0 1 0.92 252.43
  Q 0.04 251.25 0.00 249.94
  L 0.00 80.69
  Q 13.66 81.14 27.02 84.22
  A 1.81 1.73 42.0 0 0 27.98 84.19
  C 31.99 82.91 42.61 79.53 44.54 85.41
  A 1.30 1.28 4.1 0 0 45.21 86.17
  L 58.01 92.18
  A 0.73 0.73 0.0 0 0 58.90 91.97
  Q 60.24 90.19 62.21 89.50
  L 66.17 129.24
  A 0.34 0.34 0.0 0 0 66.67 129.51
  C 69.58 127.93 76.41 123.23 75.93 118.76
  Q 74.16 102.27 72.79 85.75
  L 73.51 85.44
  A 1.32 1.32 0.0 0 1 74.44 85.41
  Q 79.24 87.06 84.21 86.00
  L 84.07 134.24
  Q 84.07 135.28 84.93 134.71
  Q 89.47 131.69 92.85 127.39
  Q 93.88 126.07 93.90 124.40
  L 94.34 80.05
  Q 94.35 78.82 94.68 80.00
  Q 95.34 82.43 94.96 84.93
  A 0.73 0.73 0.0 0 0 95.44 85.74
  L 96.26 86.03
  A 0.78 0.76 9.4 0 1 96.78 86.74
  C 97.18 105.25 97.52 123.92 100.82 142.17
  A 0.97 0.96 -28.3 0 1 100.56 143.02
  L 96.40 147.32
  A 1.25 1.23 -23.6 0 0 96.06 148.17
  Q 96.12 162.86 95.53 177.50
  C 95.40 180.73 93.33 180.57 90.43 180.98
  Q 84.48 181.81 78.50 181.98
  A 0.46 0.45 88.8 0 1 78.03 181.52
  L 78.32 152.01
  Q 78.34 150.46 77.01 151.24
  C 73.18 153.47 68.18 158.11 68.10 162.99
  Q 67.89 174.78 67.71 186.50
  Q 67.69 187.96 65.57 190.08
  A 1.16 1.15 68.0 0 0 65.22 190.91
  L 64.94 221.00
  Q 64.91 223.62 67.15 222.25
  C 70.84 219.99 75.61 215.54 76.13 210.83
  Q 77.04 202.50 76.98 193.04
  A 1.91 1.90 -3.0 0 1 78.70 191.14
  Q 86.75 190.36 94.46 188.05
  A 0.42 0.42 0.0 0 1 94.99 188.45
  L 95.03 224.93
  A 1.51 1.51 0.0 0 0 95.35 225.86
  C 99.92 231.79 107.23 222.90 109.64 219.01
  A 0.44 0.44 0.0 0 0 109.41 218.36
  L 107.13 217.60
  Q 105.02 216.90 105.02 214.67
  L 104.99 183.50
  A 3.02 3.00 71.6 0 1 106.18 181.10
  Q 111.11 177.37 114.53 172.58
  C 116.99 169.14 115.91 162.40 115.22 158.51
  C 111.05 135.11 107.23 113.60 107.29 88.50
  Z
  M 152.00 185.47
  L 151.99 152.02
  Q 151.99 150.12 150.47 151.25
  L 149.06 152.29
  Q 148.37 152.81 148.74 152.02
  C 149.12 151.23 151.29 149.50 150.98 148.92
  A 0.57 0.57 0.0 0 0 150.23 148.68
  C 137.12 154.89 125.34 179.78 119.15 192.64
  C 114.63 202.03 111.97 207.76 110.57 216.70
  Q 110.10 219.69 113.09 220.16
  C 120.45 221.30 133.46 206.25 138.20 201.26
  A 1.35 1.32 -20.3 0 0 138.57 200.48
  Q 138.84 198.03 141.22 197.70
  A 0.55 0.55 0.0 0 1 141.84 198.26
  Q 141.49 212.96 147.24 226.41
  A 0.55 0.55 0.0 0 0 148.06 226.64
  Q 153.20 223.03 157.11 218.10
  A 0.81 0.80 -37.7 0 0 157.22 217.28
  Q 152.77 206.96 151.98 195.71
  A 2.55 2.54 70.4 0 1 153.03 193.48
  Q 157.71 190.13 161.02 185.44
  Q 161.58 184.65 160.65 184.90
  L 153.73 186.79
  A 1.37 1.37 0.0 0 1 152.00 185.47
  Z"
/>
<path fill="#e0e0e0" d="
  M 129.13 80.57
  C 129.24 80.34 129.19 80.10 129.48 80.00
  A 0.32 0.32 0.0 0 1 129.91 80.29
  C 130.59 93.98 131.42 107.83 126.30 120.47
  Q 126.03 121.13 125.53 121.05
  A 0.83 0.81 -2.7 0 1 124.88 120.47
  C 121.08 107.22 123.30 92.91 129.13 80.57
  Z"
/>
<path fill="#ffffff" d="
  M 252.06 85.19
  C 257.29 88.63 256.59 101.47 255.46 106.49
  C 254.16 112.27 242.03 113.11 237.60 112.91
  A 0.54 0.53 1.2 0 1 237.09 112.39
  Q 236.88 101.62 237.04 91.01
  C 237.16 83.18 247.06 81.89 252.06 85.19
  Z"
/>
<path fill="#ffffff" d="
  M 224.02 90.55
  C 223.33 88.43 226.10 87.04 227.82 86.88
  Q 228.78 86.79 228.10 87.46
  L 224.78 90.74
  A 0.46 0.46 0.0 0 1 224.02 90.55
  Z"
/>
<path fill="#ffffff" d="
  M 368.91 93.01
  Q 369.40 91.47 370.93 90.93
  Q 377.10 88.75 383.63 89.01
  A 1.80 1.80 0.0 0 1 385.24 90.17
  Q 386.48 93.37 386.10 96.78
  A 0.98 0.97 80.9 0 1 385.54 97.56
  Q 377.43 101.21 368.73 103.07
  A 0.49 0.49 0.0 0 1 368.14 102.65
  Q 367.42 97.72 368.91 93.01
  Z"
/>
<path fill="#e0e0e0" d="
  M 180.50 95.54
  Q 176.82 101.11 174.97 107.40
  A 0.98 0.98 0.0 0 1 173.92 108.10
  L 156.73 106.32
  A 0.80 0.79 3.1 0 1 156.01 105.52
  L 156.04 92.25
  C 158.80 91.04 161.90 94.20 164.00 95.73
  A 2.95 2.94 -36.5 0 0 166.69 96.13
  Q 173.55 93.73 180.50 95.54
  Z"
/>
<path fill="#ffffff" d="
  M 225.75 110.42
  Q 221.61 108.27 219.48 104.12
  A 1.16 1.15 -47.4 0 1 219.44 103.14
  C 221.40 98.58 223.06 94.53 227.28 92.95
  A 0.29 0.29 0.0 0 1 227.67 93.23
  L 226.85 109.79
  A 0.75 0.75 0.0 0 1 225.75 110.42
  Z"
/>
<ellipse fill="#e0e0e0" cx="0.00" cy="0.00" transform="translate(185.76,99.33) rotate(97.4)" rx="5.23" ry="0.58"/>
<path fill="#e0e0e0" d="
  M 194.79 106.50
  Q 199.36 107.58 200.29 112.25
  Q 197.53 113.23 194.66 112.88
  A 0.53 0.52 -83.9 0 1 194.20 112.30
  L 194.79 106.50
  Z"
/>
<path fill="#050505" d="
  M 152.00 185.47
  A 1.37 1.37 0.0 0 0 153.73 186.79
  L 160.65 184.90
  Q 161.58 184.65 161.02 185.44
  Q 157.71 190.13 153.03 193.48
  A 2.55 2.54 70.4 0 0 151.98 195.71
  Q 152.77 206.96 157.22 217.28
  A 0.81 0.80 -37.7 0 1 157.11 218.10
  Q 153.20 223.03 148.06 226.64
  A 0.55 0.55 0.0 0 1 147.24 226.41
  Q 141.49 212.96 141.84 198.26
  A 0.55 0.55 0.0 0 0 141.22 197.70
  Q 138.84 198.03 138.57 200.48
  A 1.35 1.32 -20.3 0 1 138.20 201.26
  C 133.46 206.25 120.45 221.30 113.09 220.16
  Q 110.10 219.69 110.57 216.70
  C 111.97 207.76 114.63 202.03 119.15 192.64
  C 125.34 179.78 137.12 154.89 150.23 148.68
  A 0.57 0.57 0.0 0 1 150.98 148.92
  C 151.29 149.50 149.12 151.23 148.74 152.02
  Q 148.37 152.81 149.06 152.29
  L 150.47 151.25
  Q 151.99 150.12 151.99 152.02
  L 152.00 185.47
  Z
  M 124.00 197.38
  C 129.65 191.19 133.60 191.14 141.41 189.91
  A 0.70 0.69 85.7 0 0 142.00 189.22
  L 142.00 162.45
  Q 142.00 161.59 141.49 162.28
  C 134.22 172.22 128.24 185.93 123.35 196.96
  Q 122.37 199.17 124.00 197.38
  Z
  M 121.50 210.00
  C 127.17 210.83 132.92 203.09 136.97 199.54
  Q 137.77 198.84 136.72 199.03
  L 122.37 201.63
  A 0.90 0.89 -86.6 0 0 121.69 202.24
  Q 120.59 205.83 121.09 209.59
  A 0.48 0.46 0.9 0 0 121.50 210.00
  Z"
/>
<path fill="#e0e0e0" d="
  M 124.00 197.38
  Q 122.37 199.17 123.35 196.96
  C 128.24 185.93 134.22 172.22 141.49 162.28
  Q 142.00 161.59 142.00 162.45
  L 142.00 189.22
  A 0.70 0.69 85.7 0 1 141.41 189.91
  C 133.60 191.14 129.65 191.19 124.00 197.38
  Z"
/>
<path fill="#e0e0e0" d="
  M 121.50 210.00
  A 0.48 0.46 0.9 0 1 121.09 209.59
  Q 120.59 205.83 121.69 202.24
  A 0.90 0.89 -86.6 0 1 122.37 201.63
  L 136.72 199.03
  Q 137.77 198.84 136.97 199.54
  C 132.92 203.09 127.17 210.83 121.50 210.00
  Z"
/>
<path fill="#050505" d="
  M 264.45 249.51
  L 256.28 251.07
  Q 254.30 251.45 255.28 249.68
  C 258.10 244.58 262.27 241.98 268.22 240.59
  Q 282.25 237.32 296.67 236.96
  A 1.68 1.67 24.6 0 0 297.65 236.60
  L 304.37 231.29
  Q 305.19 230.63 305.22 231.68
  C 305.48 242.41 303.23 254.38 301.97 265.21
  Q 301.83 266.50 302.78 265.61
  L 331.35 238.91
  A 1.62 1.62 0.0 0 1 333.52 238.88
  C 334.83 240.01 305.62 266.63 303.07 269.66
  Q 302.00 270.93 301.99 272.58
  L 301.94 289.84
  Q 301.93 292.35 304.42 292.01
  C 310.83 291.16 318.09 287.28 319.20 280.24
  C 321.33 266.72 324.98 256.60 336.74 248.61
  Q 340.03 246.37 339.66 250.34
  C 339.01 257.21 334.52 265.30 330.93 271.67
  C 324.90 282.37 333.14 290.95 343.99 290.27
  C 355.08 289.57 354.96 254.75 355.17 247.46
  C 355.31 242.60 360.56 238.41 364.56 236.49
  A 0.31 0.31 0.0 0 1 365.00 236.77
  Q 364.68 265.72 365.87 294.55
  Q 366.43 308.03 365.50 316.75
  C 363.85 332.18 347.90 350.43 331.73 351.26
  C 324.73 351.63 320.62 349.36 317.19 343.29
  Q 312.28 334.61 310.36 327.08
  A 1.26 1.26 0.0 0 1 310.50 326.12
  Q 313.74 320.84 319.26 318.00
  A 0.81 0.81 0.0 0 1 320.40 318.47
  C 322.62 325.34 326.85 337.66 334.12 340.51
  C 339.18 342.49 350.51 341.04 352.81 335.04
  Q 355.69 327.51 355.88 319.32
  Q 356.27 302.88 354.98 286.47
  Q 354.92 285.65 354.34 286.24
  C 347.69 293.08 339.93 302.26 329.50 299.89
  C 323.40 298.50 319.64 294.82 319.02 288.39
  Q 318.94 287.55 318.31 288.11
  Q 310.42 295.01 302.95 302.42
  Q 299.37 305.97 295.09 304.40
  A 1.50 1.46 82.1 0 1 294.38 303.85
  Q 292.58 301.28 289.80 299.75
  Q 287.76 298.62 287.83 296.29
  Q 288.03 289.24 290.69 282.86
  Q 291.77 280.25 291.93 277.92
  Q 293.09 261.27 295.28 244.66
  Q 295.60 242.21 293.60 243.66
  C 291.50 245.20 289.68 246.72 286.80 246.87
  Q 281.95 247.11 276.20 247.42
  Q 274.11 247.53 273.88 249.60
  Q 271.93 266.75 271.33 285.09
  C 271.17 289.92 271.89 293.33 274.06 297.31
  A 0.83 0.81 51.1 0 1 273.97 298.22
  Q 269.93 303.00 264.96 306.77
  A 0.85 0.85 0.0 0 1 263.67 306.44
  Q 260.86 300.17 261.17 293.00
  Q 262.11 271.37 264.86 249.90
  A 0.35 0.35 0.0 0 0 264.45 249.51
  Z"
/>
<path fill="#050505" d="
  M 171.54 262.00
  C 172.92 252.90 171.40 243.35 181.94 239.07
  A 0.85 0.85 0.0 0 1 183.11 239.94
  L 181.04 260.75
  L 181.02 265.34
  A 0.40 0.40 0.0 0 0 181.52 265.73
  Q 183.90 265.12 189.75 263.17
  Q 193.86 261.81 193.71 257.98
  C 194.74 249.40 196.63 241.39 204.98 237.63
  Q 206.97 236.73 209.15 236.92
  Q 213.14 237.26 213.29 240.25
  Q 212.68 250.66 205.18 257.65
  C 201.77 260.82 202.11 263.39 201.98 268.63
  C 201.83 274.83 201.19 287.28 204.03 289.64
  A 0.39 0.39 0.0 0 0 204.63 289.50
  Q 210.29 276.67 211.24 262.76
  C 211.67 256.59 215.82 252.03 221.07 249.14
  A 0.59 0.59 0.0 0 1 221.93 249.51
  C 222.07 250.05 222.30 250.57 222.22 251.17
  C 220.89 261.46 214.24 288.27 230.98 291.00
  A 2.23 2.23 0.0 0 0 233.38 289.71
  C 236.79 282.08 238.67 273.52 236.90 265.19
  C 234.38 253.34 232.87 241.00 245.48 234.59
  A 1.61 1.61 0.0 0 1 247.55 235.12
  C 250.39 239.25 248.94 254.31 248.49 259.52
  Q 248.20 262.86 248.81 265.94
  C 252.10 282.47 253.64 296.07 252.98 310.00
  C 252.50 320.19 239.70 332.11 231.85 336.89
  C 225.49 340.76 212.00 345.16 204.75 341.38
  C 196.30 336.97 192.04 321.15 197.17 313.07
  C 200.62 307.63 209.09 301.00 215.13 307.43
  A 1.14 1.14 0.0 0 1 215.18 308.93
  Q 211.18 313.81 206.14 317.59
  A 0.86 0.85 -22.1 0 0 205.80 318.38
  C 206.42 323.68 209.77 329.82 214.87 332.05
  C 221.75 335.04 238.98 330.83 242.09 323.16
  Q 242.85 321.30 242.94 318.73
  Q 243.47 304.15 241.51 288.81
  Q 241.14 285.90 239.48 288.32
  C 235.65 293.91 227.56 302.78 220.00 300.53
  Q 212.46 298.28 210.83 289.88
  Q 210.74 289.43 210.43 289.76
  L 202.30 298.10
  Q 200.71 299.74 198.43 299.99
  C 194.17 300.48 192.43 297.59 192.25 293.68
  Q 191.69 281.03 192.63 268.35
  A 0.33 0.33 0.0 0 0 192.16 268.03
  L 180.50 273.45
  A 0.74 0.73 -11.5 0 0 180.08 274.08
  Q 179.62 283.76 180.71 293.38
  A 1.12 1.11 65.2 0 1 180.37 294.31
  L 172.57 301.78
  Q 170.89 303.39 170.54 301.09
  C 169.32 293.16 170.02 284.28 170.27 276.26
  A 0.40 0.40 0.0 0 0 169.78 275.85
  L 165.79 276.72
  A 0.55 0.54 76.5 0 1 165.14 276.32
  C 164.62 274.22 169.02 270.55 170.19 269.48
  A 1.40 1.38 73.3 0 0 170.64 268.63
  L 171.54 262.00
  Z"
/>
<path fill="#050505" d="
  M 119.04 248.43
  Q 118.78 285.25 119.14 296.50
  Q 119.20 298.49 121.47 299.87
  A 0.92 0.90 -44.5 0 0 122.42 299.87
  L 125.90 297.79
  A 1.29 1.27 79.8 0 0 126.51 296.90
  Q 126.84 295.04 126.98 290.75
  Q 127.53 273.50 128.08 256.22
  A 1.85 1.79 -28.3 0 1 128.37 255.31
  Q 131.03 251.28 134.79 248.50
  Q 135.79 247.36 137.20 247.12
  A 0.53 0.53 0.0 0 1 137.82 247.57
  L 138.15 249.81
  Q 138.08 260.38 136.58 273.78
  A 0.99 0.98 22.5 0 0 136.95 274.66
  L 137.22 274.86
  A 0.34 0.34 0.0 0 0 137.74 274.72
  Q 141.89 264.66 147.79 255.50
  Q 152.43 249.67 156.51 243.45
  Q 159.43 239.01 163.10 237.31
  Q 165.41 236.24 165.09 238.76
  Q 163.65 250.21 163.29 260.75
  Q 162.58 277.28 163.33 293.78
  C 163.42 295.64 164.62 299.44 166.10 299.87
  Q 168.80 300.65 166.79 302.61
  Q 162.84 306.50 158.85 309.33
  Q 157.00 310.64 155.24 308.88
  Q 153.75 307.38 153.62 305.27
  Q 152.29 283.35 153.59 261.18
  Q 153.83 257.04 153.50 254.93
  Q 153.42 254.42 153.19 254.88
  Q 144.42 272.02 137.53 289.96
  C 136.25 293.30 136.89 294.39 140.19 295.33
  A 0.98 0.98 0.0 0 1 140.71 296.86
  C 138.99 299.21 134.16 304.44 130.89 304.86
  Q 129.95 304.98 129.03 305.13
  Q 128.52 305.21 128.12 305.52
  L 122.31 309.91
  Q 121.13 310.81 121.02 309.33
  Q 120.87 307.32 121.97 305.62
  A 0.44 0.43 30.0 0 0 121.80 305.00
  Q 121.59 304.89 121.36 305.11
  Q 118.14 308.20 114.38 310.58
  A 1.04 1.03 -51.8 0 1 113.49 310.69
  Q 109.03 309.22 109.03 304.43
  Q 109.03 283.94 108.93 263.43
  Q 108.93 262.56 108.44 263.29
  L 102.31 272.55
  Q 101.40 273.93 103.05 273.95
  L 107.46 274.02
  Q 108.24 274.03 107.82 274.68
  Q 104.49 279.74 99.45 282.93
  C 97.40 284.22 95.84 283.98 93.51 284.18
  A 1.05 1.04 12.5 0 0 92.71 284.68
  Q 89.28 290.25 84.53 294.69
  A 1.46 1.43 -19.2 0 0 84.07 295.62
  Q 83.19 304.25 84.41 312.87
  A 1.34 1.33 -30.3 0 1 84.14 313.88
  Q 80.87 318.05 76.32 320.97
  Q 73.79 322.60 73.77 319.59
  Q 73.59 289.25 75.20 259.00
  Q 75.38 255.62 73.21 250.00
  C 71.92 246.31 79.94 240.73 82.01 239.41
  A 0.50 0.50 0.0 0 1 82.77 239.72
  L 83.07 241.03
  A 1.05 1.05 0.0 0 0 83.57 241.71
  Q 85.90 243.02 85.40 246.20
  Q 89.99 259.18 98.24 270.15
  A 0.37 0.37 0.0 0 0 98.83 270.15
  Q 104.92 261.89 109.16 252.62
  C 108.74 249.87 108.71 247.78 110.78 245.66
  C 112.59 243.80 122.58 234.48 124.39 235.05
  A 0.46 0.46 0.0 0 1 124.66 235.69
  C 122.43 239.96 119.20 243.45 119.04 248.43
  Z
  M 84.60 274.82
  A 0.32 0.32 0.0 0 0 84.02 275.02
  L 83.97 289.91
  A 0.32 0.32 0.0 0 0 84.54 290.11
  L 90.39 282.68
  A 0.32 0.32 0.0 0 0 90.39 282.29
  L 84.60 274.82
  Z"
/>
<path fill="#ffffff" d="
  M 109.16 252.62
  Q 104.92 261.89 98.83 270.15
  A 0.37 0.37 0.0 0 1 98.24 270.15
  Q 89.99 259.18 85.40 246.20
  Q 87.62 246.94 89.13 248.53
  C 91.18 250.69 92.32 251.45 94.91 249.77
  A 1.80 1.77 -62.6 0 1 95.83 249.47
  Q 102.51 249.21 109.16 252.62
  Z"
/>
<path fill="#ffffff" d="
  M 134.79 248.50
  Q 131.03 251.28 128.37 255.31
  A 1.85 1.79 -28.3 0 0 128.08 256.22
  Q 127.53 273.50 126.98 290.75
  Q 126.84 295.04 126.51 296.90
  A 1.29 1.27 79.8 0 1 125.90 297.79
  L 122.42 299.87
  A 0.92 0.90 -44.5 0 1 121.47 299.87
  Q 119.20 298.49 119.14 296.50
  Q 118.78 285.25 119.04 248.43
  Q 122.56 249.14 125.42 247.40
  A 1.12 1.11 -50.6 0 1 126.36 247.30
  L 129.04 248.21
  A 1.53 1.50 45.6 0 0 129.94 248.23
  Q 132.45 247.52 134.79 248.50
  Z"
/>
<path fill="#ffffff" d="
  M 138.15 249.81
  Q 141.89 253.58 146.93 254.39
  A 0.87 0.85 84.7 0 1 147.61 254.97
  L 147.79 255.50
  Q 141.89 264.66 137.74 274.72
  A 0.34 0.34 0.0 0 1 137.22 274.86
  L 136.95 274.66
  A 0.99 0.98 22.5 0 1 136.58 273.78
  Q 138.08 260.38 138.15 249.81
  Z"
/>
<path fill="#ffffff" d="
  M 193.71 257.98
  Q 193.86 261.81 189.75 263.17
  Q 183.90 265.12 181.52 265.73
  A 0.40 0.40 0.0 0 1 181.02 265.34
  L 181.04 260.75
  Q 186.67 256.73 193.71 257.98
  Z"
/>
<path fill="#ffffff" d="
  M 84.60 274.82
  L 90.39 282.29
  A 0.32 0.32 0.0 0 1 90.39 282.68
  L 84.54 290.11
  A 0.32 0.32 0.0 0 1 83.97 289.91
  L 84.02 275.02
  A 0.32 0.32 0.0 0 1 84.60 274.82
  Z"
/>
</svg>
