<?xml version="1.0" encoding="UTF-8" standalone="no"?>
<!-- Created with Inkscape (http://www.inkscape.org/) -->

<svg
   xmlns:dc="http://purl.org/dc/elements/1.1/"
   xmlns:cc="http://creativecommons.org/ns#"
   xmlns:rdf="http://www.w3.org/1999/02/22-rdf-syntax-ns#"
   xmlns:svg="http://www.w3.org/2000/svg"
   xmlns="http://www.w3.org/2000/svg"
   xmlns:sodipodi="http://sodipodi.sourceforge.net/DTD/sodipodi-0.dtd"
   xmlns:inkscape="http://www.inkscape.org/namespaces/inkscape"
   width="400"
   height="600"
   viewBox="0 0 105.83333 158.75"
   version="1.1"
   id="svg8"
   inkscape:version="0.92.4 (5da689c313, 2019-01-14)"
   sodipodi:docname="14_m.svg">
  <defs
     id="defs2" />
  <sodipodi:namedview
     id="base"
     pagecolor="#ffffff"
     bordercolor="#666666"
     borderopacity="1.0"
     inkscape:pageopacity="0.0"
     inkscape:pageshadow="2"
     inkscape:zoom="1.2816667"
     inkscape:cx="200"
     inkscape:cy="362.41873"
     inkscape:document-units="mm"
     inkscape:current-layer="layer1"
     showgrid="false"
     units="px"
     showguides="true"
     inkscape:guide-bbox="true"
     inkscape:window-width="1280"
     inkscape:window-height="968"
     inkscape:window-x="0"
     inkscape:window-y="0"
     inkscape:window-maximized="1">
    <sodipodi:guide
       position="20.78869,60.476191"
       orientation="1,0"
       id="guide859"
       inkscape:locked="false" />
    <sodipodi:guide
       position="20.78869,128.88988"
       orientation="1,0"
       id="guide863"
       inkscape:locked="false" />
    <sodipodi:guide
       position="12.85119,57.641369"
       orientation="1,0"
       id="guide865"
       inkscape:locked="false" />
    <sodipodi:guide
       position="32.339612,108.51143"
       orientation="0,1"
       id="guide867"
       inkscape:locked="false" />
    <sodipodi:guide
       position="-9.0871638,97.553376"
       orientation="0,1"
       id="guide2596"
       inkscape:locked="false" />
    <sodipodi:guide
       position="-16.036171,64.144687"
       orientation="0,1"
       id="guide2598"
       inkscape:locked="false" />
  </sodipodi:namedview>
  <metadata
     id="metadata5">
    <rdf:RDF>
      <cc:Work
         rdf:about="">
        <dc:format>image/svg+xml</dc:format>
        <dc:type
           rdf:resource="http://purl.org/dc/dcmitype/StillImage" />
        <dc:title></dc:title>
      </cc:Work>
    </rdf:RDF>
  </metadata>
  <g
     inkscape:label="Layer 1"
     inkscape:groupmode="layer"
     id="layer1"
     transform="translate(0,-138.24998)">
    <rect
       style="opacity:1;fill:#ffffff;fill-opacity:0.60101007;stroke:#000000;stroke-width:0.27790931;stroke-miterlimit:4;stroke-dasharray:none;stroke-dashoffset:0;stroke-opacity:1"
       id="rect10"
       width="105.4538"
       height="158.75175"
       x="0.17799145"
       y="138.24911"
       ry="7.9375877" />
    <flowRoot
       xml:space="preserve"
       id="flowRoot851"
       style="fill:black;fill-opacity:1;stroke:none;font-family:sans-serif;font-style:normal;font-weight:normal;font-size:40px;line-height:0;letter-spacing:0px;word-spacing:0px"><flowRegion
         id="flowRegion853"><rect
           id="rect855"
           width="114.28571"
           height="65.714287"
           x="47.142857"
           y="194.28572" /></flowRegion><flowPara
         id="flowPara857" /></flowRoot>    <text
       xml:space="preserve"
       style="font-style:normal;font-weight:normal;font-size:33.90801239px;line-height:0;font-family:sans-serif;letter-spacing:0px;word-spacing:0px;fill:#666666;fill-opacity:1;stroke:none;stroke-width:0.84770024"
       x="15.076199"
       y="174.63515"
       id="text827"><tspan
         sodipodi:role="line"
         id="tspan825"
         x="15.076199"
         y="174.63515"
         style="font-style:normal;font-variant:normal;font-weight:bold;font-stretch:normal;font-family:Arsenal;-inkscape-font-specification:'Arsenal Bold';fill:#666666;stroke-width:0.84770024">14</tspan></text>
    <g
       id="g18696"
       transform="matrix(0.20371702,0,0,0.20371702,8.1154545,178.03891)">
      <g
         id="g18545"
         style="fill:none;stroke-width:2;stroke-linecap:butt">
        <path
           id="path18445"
           d="m 0,249.94 q 0.04,1.31 0.92,2.49 a 0.42,0.42 0 0 0 0.64,0.03 c 2.72,-3.03 5.29,-4.32 9.64,-4.16 4.59,0.17 10.13,-0.35 14.44,1.35 6.97,2.76 8.84,1.66 15.41,-0.83 1.32,-0.5 2.59,-0.33 3.97,-0.29 a 1.12,1.1 -66.7 0 0 0.85,-0.35 c 3.84,-4.04 10.44,0.13 14.69,1.64 q 2.06,0.73 4.08,-0.08 3.97,-1.6 8.57,0.26"
           inkscape:connector-curvature="0"
           style="vector-effect:non-scaling-stroke;stroke:#f0f0f0" />
        <path
           id="path18447"
           d="m 73.21,250 q 2.17,5.62 1.99,9 -1.61,30.25 -1.43,60.59 0.02,3.01 2.55,1.38 4.55,-2.92 7.82,-7.09 a 1.34,1.33 -30.3 0 0 0.27,-1.01 q -1.22,-8.62 -0.34,-17.25 a 1.46,1.43 -19.2 0 1 0.46,-0.93 q 4.75,-4.44 8.18,-10.01 a 1.05,1.04 12.5 0 1 0.8,-0.5 c 2.33,-0.2 3.89,0.04 5.94,-1.25 q 5.04,-3.19 8.37,-8.25 0.42,-0.65 -0.36,-0.66 l -4.41,-0.07 q -1.65,-0.02 -0.74,-1.4 l 6.13,-9.26 q 0.49,-0.73 0.49,0.14 0.1,20.51 0.1,41 0,4.79 4.46,6.26 a 1.04,1.03 -51.8 0 0 0.89,-0.11 q 3.76,-2.38 6.98,-5.47 0.23,-0.22 0.44,-0.11 a 0.44,0.43 30 0 1 0.17,0.62 q -1.1,1.7 -0.95,3.71 0.11,1.48 1.29,0.58 l 5.81,-4.39 q 0.4,-0.31 0.91,-0.39 0.92,-0.15 1.86,-0.27 c 3.27,-0.42 8.1,-5.65 9.82,-8 a 0.98,0.98 0 0 0 -0.52,-1.53 c -3.3,-0.94 -3.94,-2.03 -2.66,-5.37 q 6.89,-17.94 15.66,-35.08 0.23,-0.46 0.31,0.05 0.33,2.11 0.09,6.25 -1.3,22.17 0.03,44.09 0.13,2.11 1.62,3.61 1.76,1.76 3.61,0.45 3.99,-2.83 7.94,-6.72 2.01,-1.96 -0.69,-2.74 c -1.48,-0.43 -2.68,-4.23 -2.77,-6.09 q -0.75,-16.5 -0.04,-33.03"
           inkscape:connector-curvature="0"
           style="vector-effect:non-scaling-stroke;stroke:#828282" />
        <path
           id="path18449"
           d="m 163.29,260.75 7.8,0.5 a 0.43,0.43 0 0 1 0.41,0.4 l 0.04,0.35"
           inkscape:connector-curvature="0"
           style="vector-effect:non-scaling-stroke;stroke:#f0f0f0" />
        <path
           id="path18451"
           d="m 171.54,262 -0.9,6.63 a 1.4,1.38 73.3 0 1 -0.45,0.85 c -1.17,1.07 -5.57,4.74 -5.05,6.84 a 0.55,0.54 76.5 0 0 0.65,0.4 l 3.99,-0.87 a 0.4,0.4 0 0 1 0.49,0.41 c -0.25,8.02 -0.95,16.9 0.27,24.83 q 0.35,2.3 2.03,0.69 l 7.8,-7.47 a 1.12,1.11 65.2 0 0 0.34,-0.93 q -1.09,-9.62 -0.63,-19.3 a 0.74,0.73 -11.5 0 1 0.42,-0.63 l 11.66,-5.42 a 0.33,0.33 0 0 1 0.47,0.32 q -0.94,12.68 -0.38,25.33 c 0.18,3.91 1.92,6.8 6.18,6.31 q 2.28,-0.25 3.87,-1.89 l 8.13,-8.34 q 0.31,-0.33 0.4,0.12 1.63,8.4 9.17,10.65 c 7.56,2.25 15.65,-6.62 19.48,-12.21 q 1.66,-2.42 2.03,0.49 1.96,15.34 1.43,29.92 -0.09,2.57 -0.85,4.43 c -3.11,7.67 -20.34,11.88 -27.22,8.89 -5.1,-2.23 -8.45,-8.37 -9.07,-13.67 a 0.86,0.85 -22.1 0 1 0.34,-0.79 q 5.04,-3.78 9.04,-8.66 a 1.14,1.14 0 0 0 -0.05,-1.5 c -6.04,-6.43 -14.51,0.2 -17.96,5.64 -5.13,8.08 -0.87,23.9 7.58,28.31 7.25,3.78 20.74,-0.62 27.1,-4.49 7.85,-4.78 20.65,-16.7 21.13,-26.89 0.66,-13.93 -0.88,-27.53 -4.17,-44.06 q -0.61,-3.08 -0.32,-6.42 c 0.45,-5.21 1.9,-20.27 -0.94,-24.4 a 1.61,1.61 0 0 0 -2.07,-0.53 c -12.61,6.41 -11.1,18.75 -8.58,30.6 1.77,8.33 -0.11,16.89 -3.52,24.52 a 2.23,2.23 0 0 1 -2.4,1.29 c -16.74,-2.73 -10.09,-29.54 -8.76,-39.83 0.08,-0.6 -0.15,-1.12 -0.29,-1.66 a 0.59,0.59 0 0 0 -0.86,-0.37 c -5.25,2.89 -9.4,7.45 -9.83,13.62 q -0.95,13.91 -6.61,26.74 a 0.39,0.39 0 0 1 -0.6,0.14 c -2.84,-2.36 -2.2,-14.81 -2.05,-21.01 0.13,-5.24 -0.21,-7.81 3.2,-10.98 q 7.5,-6.99 8.11,-17.4"
           inkscape:connector-curvature="0"
           style="vector-effect:non-scaling-stroke;stroke:#828282" />
        <path
           id="path18453"
           d="m 213.29,240.25 c 5.81,0.61 9.07,-2.99 13.55,-7.29 6.1,-5.85 4.57,-13.71 10.25,-19.7 q 0.31,-0.34 0.43,-0.79 l 2.05,-7.85 a 1.22,1.19 84.3 0 1 0.59,-0.74 l 2.53,-1.32 a 0.5,0.5 0 0 0 0.1,-0.81 c -2.89,-2.64 -3.37,-5.12 -3,-9.22 0.23,-2.59 -0.1,-5.29 0.81,-7.74 q 0.59,-1.61 1.17,-3.26 a 1.55,1.5 -45.8 0 0 0,-0.99 l -2.03,-5.94 a 1.04,1.04 0 0 1 0.13,-0.93 l 2.14,-3.09 a 1.07,1.07 0 0 0 -0.36,-1.54 c -3.42,-1.88 -2.39,-4.09 -2.12,-7.19 a 1.67,1.66 -59 0 0 -0.26,-1.05 q -2.25,-3.49 -2.85,-7.56 a 1.33,1.27 17.2 0 0 -0.44,-0.79 l -3.96,-3.39 q -0.38,-0.32 -0.87,-0.45 l -1.98,-0.52 a 0.59,0.58 12.5 0 1 -0.43,-0.66 l 0.77,-4.98 a 1.1,1.09 -66.1 0 0 -0.38,-1 l -3.76,-3.14 q -1.47,-1.23 -2.1,-3.04 l -2.95,-8.55 a 1.42,1.42 0 0 0 -0.75,-0.82 l -6.11,-2.75 a 0.95,0.94 39.6 0 0 -0.91,0.08 q -0.74,0.51 -1.47,-0.05 a 1.43,1.41 13.9 0 1 -0.52,-0.85 q -0.74,-3.92 -3.1,-7.08"
           inkscape:connector-curvature="0"
           style="vector-effect:non-scaling-stroke;stroke:#f0f0f0" />
        <path
           id="path18455"
           d="m 207.46,115.25 1.58,-1.05 a 0.49,0.49 0 0 1 0.7,0.17 c 3.31,5.96 11.7,8.86 18.01,8.9 q 17.1,0.11 30.47,-14.14 1.38,-1.47 1.73,0.51 c 0.49,2.81 3.88,6.04 6.64,7.06 8.83,3.27 18.54,-9.74 22.54,-16.73 q 0.24,-0.42 0.24,0.07 -0.06,19.98 -0.41,39.96 -0.1,5.75 -2.07,10.32 a 1.3,1.27 -87 0 1 -0.75,0.69 q -16.62,5.78 -22.02,-10.25 a 1.9,1.9 0 0 1 0.44,-1.93 l 6.41,-6.44 a 0.77,0.76 52.8 0 0 0.12,-0.92 q -0.26,-0.46 -0.84,-0.43 c -5.9,0.36 -18.66,6.51 -17.51,13.94 q 1.47,9.55 8.21,15.29 1.85,1.57 4.25,1.82 c 12.86,1.38 22.81,-5.21 29.59,-15.75 q 3.51,-5.46 4.04,-13.77 0.69,-10.79 0.87,-21.56 0.01,-0.49 0.38,-0.17 c 10.86,9.46 29.13,7.81 40.15,0.32 5.51,-3.75 11.72,-9.9 16.45,-15.57 q 1.07,-1.28 1.07,0.39 v 8.25 a 0.6,0.59 85.5 0 1 -0.5,0.59 c -3.74,0.61 -8.24,0.69 -11.29,3.09 -1.42,1.11 -6.96,5.44 -5.81,7.45 a 0.82,0.82 0 0 0 0.77,0.4 c 16.27,-1.38 33.66,-4.23 46.82,-15.58 6.1,-5.26 10.48,-10.08 8.1,-18.11 q -0.89,-3.01 -4.02,-3.06 c -10.98,-0.19 -15.06,4.19 -23.37,9.7 A 0.29,0.29 0 0 1 368,88.49 q -0.76,-10.17 1.55,-20.02 c 1.34,-5.67 1.56,-9.87 1.43,-15.22 a 1.34,1.33 -12.1 0 0 -1.86,-1.2 q -9.28,3.94 -10.88,13.82 c -1.16,7.17 1.05,13.99 -1.83,21.06 -3.54,8.69 -7.79,16.36 -17.42,19.31 -6.98,2.13 -26.87,1.57 -30.98,-7.48 -4.45,-9.84 2.95,-27.39 8.51,-35 3.66,-5.01 8.14,-4.99 14.32,-5.1 4.16,-0.08 16.41,0.94 17.53,6.49 q 1.1,5.48 -2.28,11.16 -0.88,1.48 0.47,2.47 a 0.68,0.68 0 0 0 0.82,-0.02 c 8.14,-6.43 10.99,-11.16 11.09,-20.86 q 0.02,-2.87 -2.04,-4.85 c -5.91,-5.71 -24.66,-5.37 -31.23,-0.87 q -17.17,11.76 -24.62,30.74 -0.38,0.97 -0.43,-0.08 -0.71,-14.48 0.83,-28.87 a 0.83,0.83 0 0 0 -1.15,-0.86 c -5.15,2.17 -8.26,6.06 -9.1,11.8 q -3.01,20.74 -10.67,41.2 a 1.85,1.84 -76.8 0 1 -1.89,1.18 c -9.02,-0.9 -8.6,-7.89 -7.96,-15.39 q 1.28,-15.06 6.37,-29.32 c 2.03,-5.67 8,-7.75 9.55,-13.45 0.47,-1.74 -1.15,-2.65 -2.61,-1.74 q -7.07,4.37 -11.61,11.29 c -4.06,6.18 -19.75,16.04 -27.89,16.38 q -0.52,0.02 -0.16,-0.36 C 249.69,68.53 260.6,60.3 260,50.58 q -0.13,-2.11 -2.24,-1.91 -9.27,0.9 -18.05,4.11 a 0.58,0.58 0 0 1 -0.73,-0.31 l -0.43,-1 a 0.76,0.76 0 0 0 -0.84,-0.45 c -6.03,1.03 -10.5,4.1 -15.71,7.05 a 0.51,0.5 60.3 0 1 -0.68,-0.19 c -2.2,-3.93 -3.03,-6.49 -7.32,-6.81 q -5.95,-0.45 -10.24,1.98 c -4.78,2.7 -16.87,12.19 -16.77,18.17 a 0.37,0.37 0 0 0 0.5,0.34 l 1.52,-0.55 a 0.49,0.48 82.4 0 1 0.65,0.5 l -1.15,12.5 q -0.15,1.62 -1.15,2.89 l -6.86,8.64"
           inkscape:connector-curvature="0"
           style="vector-effect:non-scaling-stroke;stroke:#828282" />
        <path
           id="path18457"
           d="m 180.5,95.54 q -6.95,-1.81 -13.81,0.59 A 2.95,2.94 -36.5 0 1 164,95.73 c -2.1,-1.53 -5.2,-4.69 -7.96,-3.48"
           inkscape:connector-curvature="0"
           style="vector-effect:non-scaling-stroke;stroke:#f0f0f0" />
        <path
           id="path18459"
           d="m 156.04,92.25 0.12,-3.4 a 0.71,0.7 84.7 0 1 0.54,-0.66 c 10.92,-2.52 20.52,-2.83 27.16,-13.22 q 0.86,-1.34 -0.68,-0.95 -11.76,2.97 -24.12,5.76 -1.12,0.26 -2.25,1.98 a 0.47,0.47 0 0 1 -0.62,0.15 c -0.35,-0.2 -0.18,-14.81 -0.17,-16.44 a 1.13,1.12 77.7 0 1 0.65,-1.02 q 10.41,-4.87 21.83,-5.57 1.53,-0.1 1.54,1.32 0,1.06 0.89,0.49 5.22,-3.33 8.54,-8.56 1.12,-1.77 -0.77,-2.69 c -1.41,-0.69 -4.04,0.14 -5.27,0.23 q -15.6,1.16 -27.68,11.03 a 0.29,0.29 0 0 1 -0.47,-0.16 c -1.51,-6.79 -12.57,0.99 -15.28,2.5 A 0.52,0.52 0 0 1 139.22,62.6 C 139,57.53 137.57,46.51 130.51,46.45 117.73,46.33 105.33,56.45 97.5,66.26 q -0.62,0.78 -1.8,4.05 -0.18,0.5 -0.39,0.02 -0.47,-1.1 -0.4,-2.33 1.18,-21.84 3.12,-43.63 c 0.53,-5.91 2.47,-11.17 4.22,-16.8 A 1.18,1.18 0 0 0 101.26,6.05 C 101.06,6.02 100.12,5.92 99.87,6 Q 87.13,9.8 74.12,12.62 a 1.64,1.54 -72.6 0 0 -0.83,0.47 q -0.66,0.73 -1.46,0.23 a 1.02,1 -41 0 0 -0.96,-0.06 c -5.65,2.58 -8.86,6.8 -8.87,13.18 q -0.01,31.55 0.21,63.06"
           inkscape:connector-curvature="0"
           style="vector-effect:non-scaling-stroke;stroke:#828282" />
        <path
           id="path18461"
           d="m 62.21,89.5 q -1.97,0.69 -3.31,2.47 a 0.73,0.73 0 0 1 -0.89,0.21 L 45.21,86.17 A 1.3,1.28 4.1 0 1 44.54,85.41 C 42.61,79.53 31.99,82.91 27.98,84.19 a 1.81,1.73 42 0 1 -0.96,0.03 Q 13.66,81.14 0,80.69"
           inkscape:connector-curvature="0"
           style="vector-effect:non-scaling-stroke;stroke:#f0f0f0" />
        <path
           id="path18463"
           d="m 264.86,249.9 q -2.75,21.47 -3.69,43.1 -0.31,7.17 2.5,13.44 a 0.85,0.85 0 0 0 1.29,0.33 q 4.97,-3.77 9.01,-8.55 a 0.83,0.81 51.1 0 0 0.09,-0.91 c -2.17,-3.98 -2.89,-7.39 -2.73,-12.22 q 0.6,-18.34 2.55,-35.49 0.23,-2.07 2.32,-2.18 5.75,-0.31 10.6,-0.55 c 2.88,-0.15 4.7,-1.67 6.8,-3.21 q 2,-1.45 1.68,1 -2.19,16.61 -3.35,33.26 -0.16,2.33 -1.24,4.94 -2.66,6.38 -2.86,13.43 -0.07,2.33 1.97,3.46 2.78,1.53 4.58,4.1 a 1.5,1.46 82.1 0 0 0.71,0.55 q 4.28,1.57 7.86,-1.98 7.47,-7.41 15.36,-14.31 0.63,-0.56 0.71,0.28 c 0.62,6.43 4.38,10.11 10.48,11.5 10.43,2.37 18.19,-6.81 24.84,-13.65 q 0.58,-0.59 0.64,0.23 1.29,16.41 0.9,32.85 -0.19,8.19 -3.07,15.72 c -2.3,6 -13.63,7.45 -18.69,5.47 -7.27,-2.85 -11.5,-15.17 -13.72,-22.04 A 0.81,0.81 0 0 0 319.26,318 q -5.52,2.84 -8.76,8.12 a 1.26,1.26 0 0 0 -0.14,0.96 q 1.92,7.53 6.83,16.21 c 3.43,6.07 7.54,8.34 14.54,7.97 16.17,-0.83 32.12,-19.08 33.77,-34.51 q 0.93,-8.72 0.37,-22.2 -1.19,-28.83 -0.87,-57.78 a 0.31,0.31 0 0 0 -0.44,-0.28 c -4,1.92 -9.25,6.11 -9.39,10.97 -0.21,7.29 -0.09,42.11 -11.18,42.81 -10.85,0.68 -19.09,-7.9 -13.06,-18.6 3.59,-6.37 8.08,-14.46 8.73,-21.33 q 0.37,-3.97 -2.92,-1.73 c -11.76,7.99 -15.41,18.11 -17.54,31.63 -1.11,7.04 -8.37,10.92 -14.78,11.77 q -2.49,0.34 -2.48,-2.17 l 0.05,-17.26 q 0.01,-1.65 1.08,-2.92 c 2.55,-3.03 31.76,-29.65 30.45,-30.78 a 1.62,1.62 0 0 0 -2.17,0.03 l -28.57,26.7 q -0.95,0.89 -0.81,-0.4 c 1.26,-10.83 3.51,-22.8 3.25,-33.53 q -0.03,-1.05 -0.85,-0.39 l -6.72,5.31 a 1.68,1.67 24.6 0 1 -0.98,0.36 q -14.42,0.36 -28.45,3.63 c -5.95,1.39 -10.12,3.99 -12.94,9.09 q -0.98,1.77 1,1.39 l 8.17,-1.56 a 0.35,0.35 0 0 1 0.41,0.39"
           inkscape:connector-curvature="0"
           style="vector-effect:non-scaling-stroke;stroke:#828282" />
        <path
           id="path18465"
           d="m 156.04,92.25 -0.03,13.27 a 0.8,0.79 3.1 0 0 0.72,0.8 l 17.19,1.78 a 0.98,0.98 0 0 0 1.05,-0.7 q 1.85,-6.29 5.53,-11.86"
           inkscape:connector-curvature="0"
           style="vector-effect:non-scaling-stroke;stroke:#737373" />
        <path
           id="path18467"
           d="m 207.46,115.25 q -5.57,4.67 -12.47,6.22 a 1.27,1.26 83.9 0 0 -0.98,1.22 c -0.06,16.97 -0.51,33.5 2.86,49.83 1.15,5.58 -4.21,10.37 -8.73,12.59 a 0.41,0.4 -20.1 0 1 -0.57,-0.26 c -4.82,-20.47 -3.93,-40.23 -3.48,-61.05 a 0.77,0.77 0 0 0 -0.52,-0.74 q -5.21,-1.68 -7.58,-6.66 a 0.63,0.63 0 0 0 -0.79,-0.32 c -5.77,2.15 -10.22,1.68 -16.19,1.36 -3.12,-0.16 -9.18,-1.47 -11.92,-0.01 a 0.99,0.99 0 0 1 -1.41,-0.57 q -3.54,-10.94 -5.05,-22.36 -0.16,-1.15 -0.27,0.01 c -1.48,15.51 -7.03,28.13 -20.49,36.09 q -1.41,0.83 -3,0.42 -1.95,-0.51 -2.52,-3.55 -4.44,-23.5 7.71,-43.92"
           inkscape:connector-curvature="0"
           style="vector-effect:non-scaling-stroke;stroke:#737373" />
        <path
           id="path18469"
           d="m 122.06,83.55 6.81,-9.52 a 1.88,1.85 -26.6 0 0 0.35,-1.02 q 0.26,-8.26 -4.01,-15.22 -0.89,-1.46 -2.61,-1.47 -7.94,-0.01 -14.85,3.76 a 1.3,1.29 -14.6 0 0 -0.67,1.13 l 0.21,27.29"
           inkscape:connector-curvature="0"
           style="vector-effect:non-scaling-stroke;stroke:#828282" />
        <path
           id="path18471"
           d="m 107.29,88.5 c -0.06,25.1 3.76,46.61 7.93,70.01 0.69,3.89 1.77,10.63 -0.69,14.07 q -3.42,4.79 -8.35,8.52 a 3.02,3 71.6 0 0 -1.19,2.4 l 0.03,31.17 q 0,2.23 2.11,2.93 l 2.28,0.76 a 0.44,0.44 0 0 1 0.23,0.65 c -2.41,3.89 -9.72,12.78 -14.29,6.85 a 1.51,1.51 0 0 1 -0.32,-0.93 l -0.04,-36.48 a 0.42,0.42 0 0 0 -0.53,-0.4 q -7.71,2.31 -15.76,3.09 a 1.91,1.9 -3 0 0 -1.72,1.9 q 0.06,9.46 -0.85,17.79 c -0.52,4.71 -5.29,9.16 -8.98,11.42 q -2.24,1.37 -2.21,-1.25 l 0.28,-30.09 a 1.16,1.15 68 0 1 0.35,-0.83 q 2.12,-2.12 2.14,-3.58 0.18,-11.72 0.39,-23.51 c 0.08,-4.88 5.08,-9.52 8.91,-11.75 q 1.33,-0.78 1.31,0.77 l -0.29,29.51 a 0.46,0.45 88.8 0 0 0.47,0.46 q 5.98,-0.17 11.93,-1 c 2.9,-0.41 4.97,-0.25 5.1,-3.48 q 0.59,-14.64 0.53,-29.33 a 1.25,1.23 -23.6 0 1 0.34,-0.85 l 4.16,-4.3 a 0.97,0.96 -28.3 0 0 0.26,-0.85 C 97.52,123.92 97.18,105.25 96.78,86.74 A 0.78,0.76 9.4 0 0 96.26,86.03 L 95.44,85.74 A 0.73,0.73 0 0 1 94.96,84.93 Q 95.34,82.43 94.68,80 94.35,78.82 94.34,80.05 L 93.9,124.4 q -0.02,1.67 -1.05,2.99 -3.38,4.3 -7.92,7.32 -0.86,0.57 -0.86,-0.47 L 84.21,86"
           inkscape:connector-curvature="0"
           style="vector-effect:non-scaling-stroke;stroke:#737373" />
        <path
           id="path18473"
           d="m 84.21,86 q 0.45,-2.7 0.48,-3.56 0.88,-24.38 3.15,-48.66 c 0.58,-6.14 2.03,-11.14 4.2,-16.63 q 0.66,-1.66 -1.06,-1.17 l -18.42,5.26 a 0.65,0.65 0 0 0 -0.47,0.61 c -0.23,21.11 -0.95,42.9 0.7,63.9"
           inkscape:connector-curvature="0"
           style="vector-effect:non-scaling-stroke;stroke:#828282" />
        <path
           id="path18475"
           d="m 72.79,85.75 q 1.37,16.52 3.14,33.01 c 0.48,4.47 -6.35,9.17 -9.26,10.75 a 0.34,0.34 0 0 1 -0.5,-0.27 L 62.21,89.5"
           inkscape:connector-curvature="0"
           style="vector-effect:non-scaling-stroke;stroke:#737373" />
        <path
           id="path18477"
           d="m 249.53,59.08 q -4.98,-0.3 -9.85,0.82 A 0.88,0.87 -6.7 0 0 239,60.75 v 12.74 q 0,0.59 0.51,0.29 c 4.47,-2.61 11.32,-8.27 10.71,-14.04 a 0.73,0.73 0 0 0 -0.69,-0.66"
           inkscape:connector-curvature="0"
           style="vector-effect:non-scaling-stroke;stroke:#828282" />
        <path
           id="path18479"
           d="m 209.76,66.24 c 0.42,-4.41 -5.34,-6.36 -8.64,-5.2 a 1.84,1.84 0 0 0 -1.23,1.57 l -1.18,12.33 q -0.05,0.53 0.36,0.19 l 10.3,-8.17 a 1.05,1.03 -17.1 0 0 0.39,-0.72"
           inkscape:connector-curvature="0"
           style="vector-effect:non-scaling-stroke;stroke:#828282" />
        <path
           id="path18481"
           d="m 224.08,64.33 -0.59,-0.98 q -0.57,-0.94 -0.43,0.15 1.27,9.94 0.89,19.96 -0.03,0.57 0.47,0.28 c 2.75,-1.58 4.56,-3.52 4.58,-6.99 q 0.02,-6.41 -0.03,-12.87 a 0.48,0.48 0 0 0 -0.64,-0.45 l -3.38,1.21 a 0.73,0.73 0 0 1 -0.87,-0.31"
           inkscape:connector-curvature="0"
           style="vector-effect:non-scaling-stroke;stroke:#828282" />
        <path
           id="path18483"
           d="m 143.69,67.96 -3.13,0.05 a 0.65,0.64 88.7 0 0 -0.63,0.67 l 0.26,9.26 q 0.03,0.98 0.52,0.13 l 4.45,-7.61 q 1.49,-2.55 -1.47,-2.5"
           inkscape:connector-curvature="0"
           style="vector-effect:non-scaling-stroke;stroke:#828282" />
        <path
           id="path18485"
           d="m 259.41,73.4 a 0.33,0.33 0 0 0 0,0.53 l 4.66,3.34 a 0.33,0.33 0 0 0 0.51,-0.17 l 2.79,-8.82 a 0.33,0.33 0 0 0 -0.51,-0.36 l -7.45,5.48"
           inkscape:connector-curvature="0"
           style="vector-effect:non-scaling-stroke;stroke:#828282" />
        <path
           id="path18487"
           d="m 194.79,106.5 -0.59,5.8 a 0.53,0.52 -83.9 0 0 0.46,0.58 q 2.87,0.35 5.63,-0.63"
           inkscape:connector-curvature="0"
           style="vector-effect:non-scaling-stroke;stroke:#737373" />
        <path
           id="path18489"
           d="m 200.29,112.25 q 4.27,-0.39 8.03,-2.47 a 1.64,1.62 89.6 0 0 0.67,-0.69 c 1.66,-3.16 4.48,-6.7 4.95,-10.17 1.11,-8.29 -0.06,-18.81 -1.11,-27.49 Q 212.45,68.3 210,70.28 l -10.74,8.64 a 4.13,4.12 75.4 0 0 -1.47,2.52 q -2.09,12.5 -3,25.06"
           inkscape:connector-curvature="0"
           style="vector-effect:non-scaling-stroke;stroke:#828282" />
        <path
           id="path18491"
           d="m 200.29,112.25 q -0.93,-4.67 -5.5,-5.75"
           inkscape:connector-curvature="0"
           style="vector-effect:non-scaling-stroke;stroke:#f0f0f0" />
        <path
           id="path18493"
           d="m 129.13,80.57 c -5.83,12.34 -8.05,26.65 -4.25,39.9 a 0.83,0.81 -2.7 0 0 0.65,0.58 q 0.5,0.08 0.77,-0.58 c 5.12,-12.64 4.29,-26.49 3.61,-40.18 A 0.32,0.32 0 0 0 129.48,80 c -0.29,0.1 -0.24,0.34 -0.35,0.57"
           inkscape:connector-curvature="0"
           style="vector-effect:non-scaling-stroke;stroke:#737373" />
        <path
           id="path18495"
           d="m 252.06,85.19 c -5,-3.3 -14.9,-2.01 -15.02,5.82 q -0.16,10.61 0.05,21.38 a 0.54,0.53 1.2 0 0 0.51,0.52 c 4.43,0.2 16.56,-0.64 17.86,-6.42 1.13,-5.02 1.83,-17.86 -3.4,-21.3"
           inkscape:connector-curvature="0"
           style="vector-effect:non-scaling-stroke;stroke:#828282" />
        <path
           id="path18497"
           d="m 227.82,86.88 c -1.72,0.16 -4.49,1.55 -3.8,3.67 a 0.46,0.46 0 0 0 0.76,0.19 l 3.32,-3.28 q 0.68,-0.67 -0.28,-0.58"
           inkscape:connector-curvature="0"
           style="vector-effect:non-scaling-stroke;stroke:#828282" />
        <path
           id="path18499"
           d="m 368.91,93.01 q -1.49,4.71 -0.77,9.64 a 0.49,0.49 0 0 0 0.59,0.42 q 8.7,-1.86 16.81,-5.51 a 0.98,0.97 80.9 0 0 0.56,-0.78 q 0.38,-3.41 -0.86,-6.61 a 1.8,1.8 0 0 0 -1.61,-1.16 q -6.53,-0.26 -12.7,1.92 -1.53,0.54 -2.02,2.08"
           inkscape:connector-curvature="0"
           style="vector-effect:non-scaling-stroke;stroke:#828282" />
        <path
           id="path18501"
           d="m 225.75,110.42 a 0.75,0.75 0 0 0 1.1,-0.63 l 0.82,-16.56 a 0.29,0.29 0 0 0 -0.39,-0.28 c -4.22,1.58 -5.88,5.63 -7.84,10.19 a 1.16,1.15 -47.4 0 0 0.04,0.98 q 2.13,4.15 6.27,6.3"
           inkscape:connector-curvature="0"
           style="vector-effect:non-scaling-stroke;stroke:#828282" />
        <path
           id="path18503"
           d="m 185.0864,104.5164 a 5.23,0.58 97.4 0 0 1.2488,-5.1117 5.23,0.58 97.4 0 0 0.0984,-5.2611 5.23,0.58 97.4 0 0 -1.2488,5.1117 5.23,0.58 97.4 0 0 -0.0984,5.2611"
           inkscape:connector-curvature="0"
           style="vector-effect:non-scaling-stroke;stroke:#737373" />
        <path
           id="path18505"
           d="m 84.21,86 q -4.97,1.06 -9.77,-0.59 a 1.32,1.32 0 0 0 -0.93,0.03 l -0.72,0.31"
           inkscape:connector-curvature="0"
           style="vector-effect:non-scaling-stroke;stroke:#f0f0f0" />
        <path
           id="path18507"
           d="m 122.06,83.55 q -2.83,0.73 -7.6,3.91 -2.72,1.8 -7.17,1.04"
           inkscape:connector-curvature="0"
           style="vector-effect:non-scaling-stroke;stroke:#f0f0f0" />
        <path
           id="path18509"
           d="m 213.29,240.25 q -0.15,-2.99 -4.14,-3.33 -2.18,-0.19 -4.17,0.71 c -8.35,3.76 -10.24,11.77 -11.27,20.35"
           inkscape:connector-curvature="0"
           style="vector-effect:non-scaling-stroke;stroke:#737373" />
        <path
           id="path18511"
           d="m 193.71,257.98 q -7.04,-1.25 -12.67,2.77"
           inkscape:connector-curvature="0"
           style="vector-effect:non-scaling-stroke;stroke:#f0f0f0" />
        <path
           id="path18513"
           d="m 181.04,260.75 2.07,-20.81 a 0.85,0.85 0 0 0 -1.17,-0.87 c -10.54,4.28 -9.02,13.83 -10.4,22.93"
           inkscape:connector-curvature="0"
           style="vector-effect:non-scaling-stroke;stroke:#737373" />
        <path
           id="path18515"
           d="m 163.29,260.75 q 0.36,-10.54 1.8,-21.99 0.32,-2.52 -1.99,-1.45 -3.67,1.7 -6.59,6.14 -4.08,6.22 -8.72,12.05"
           inkscape:connector-curvature="0"
           style="vector-effect:non-scaling-stroke;stroke:#737373" />
        <path
           id="path18517"
           d="m 147.79,255.5 -0.18,-0.53 a 0.87,0.85 84.7 0 0 -0.68,-0.58 q -5.04,-0.81 -8.78,-4.58"
           inkscape:connector-curvature="0"
           style="vector-effect:non-scaling-stroke;stroke:#f0f0f0" />
        <path
           id="path18519"
           d="m 138.15,249.81 -0.33,-2.24 a 0.53,0.53 0 0 0 -0.62,-0.45 q -1.41,0.24 -2.41,1.38"
           inkscape:connector-curvature="0"
           style="vector-effect:non-scaling-stroke;stroke:#737373" />
        <path
           id="path18521"
           d="m 134.79,248.5 q -2.34,-0.98 -4.85,-0.27 a 1.53,1.5 45.6 0 1 -0.9,-0.02 l -2.68,-0.91 a 1.12,1.11 -50.6 0 0 -0.94,0.1 q -2.86,1.74 -6.38,1.03"
           inkscape:connector-curvature="0"
           style="vector-effect:non-scaling-stroke;stroke:#f0f0f0" />
        <path
           id="path18523"
           d="m 119.04,248.43 c 0.16,-4.98 3.39,-8.47 5.62,-12.74 a 0.46,0.46 0 0 0 -0.27,-0.64 c -1.81,-0.57 -11.8,8.75 -13.61,10.61 -2.07,2.12 -2.04,4.21 -1.62,6.96"
           inkscape:connector-curvature="0"
           style="vector-effect:non-scaling-stroke;stroke:#737373" />
        <path
           id="path18525"
           d="m 109.16,252.62 q -6.65,-3.41 -13.33,-3.15 a 1.8,1.77 -62.6 0 0 -0.92,0.3 c -2.59,1.68 -3.73,0.92 -5.78,-1.24 q -1.51,-1.59 -3.73,-2.33"
           inkscape:connector-curvature="0"
           style="vector-effect:non-scaling-stroke;stroke:#f0f0f0" />
        <path
           id="path18527"
           d="m 85.4,246.2 q 0.5,-3.18 -1.83,-4.49 a 1.05,1.05 0 0 1 -0.5,-0.68 l -0.3,-1.31 a 0.5,0.5 0 0 0 -0.76,-0.31 c -2.07,1.32 -10.09,6.9 -8.8,10.59"
           inkscape:connector-curvature="0"
           style="vector-effect:non-scaling-stroke;stroke:#737373" />
        <path
           id="path18529"
           d="m 152,185.47 -0.01,-33.45 q 0,-1.9 -1.52,-0.77 l -1.41,1.04 q -0.69,0.52 -0.32,-0.27 c 0.38,-0.79 2.55,-2.52 2.24,-3.1 a 0.57,0.57 0 0 0 -0.75,-0.24 c -13.11,6.21 -24.89,31.1 -31.08,43.96 -4.52,9.39 -7.18,15.12 -8.58,24.06 q -0.47,2.99 2.52,3.46 c 7.36,1.14 20.37,-13.91 25.11,-18.9 a 1.35,1.32 -20.3 0 0 0.37,-0.78 q 0.27,-2.45 2.65,-2.78 a 0.55,0.55 0 0 1 0.62,0.56 q -0.35,14.7 5.4,28.15 a 0.55,0.55 0 0 0 0.82,0.23 q 5.14,-3.61 9.05,-8.54 a 0.81,0.8 -37.7 0 0 0.11,-0.82 q -4.45,-10.32 -5.24,-21.57 a 2.55,2.54 70.4 0 1 1.05,-2.23 q 4.68,-3.35 7.99,-8.04 0.56,-0.79 -0.37,-0.54 l -6.92,1.89 A 1.37,1.37 0 0 1 152,185.47"
           inkscape:connector-curvature="0"
           style="vector-effect:non-scaling-stroke;stroke:#737373" />
        <path
           id="path18531"
           d="m 124,197.38 c 5.65,-6.19 9.6,-6.24 17.41,-7.47 a 0.7,0.69 85.7 0 0 0.59,-0.69 v -26.77 q 0,-0.86 -0.51,-0.17 c -7.27,9.94 -13.25,23.65 -18.14,34.68 q -0.98,2.21 0.65,0.42"
           inkscape:connector-curvature="0"
           style="vector-effect:non-scaling-stroke;stroke:#737373" />
        <path
           id="path18533"
           d="m 121.5,210 c 5.67,0.83 11.42,-6.91 15.47,-10.46 q 0.8,-0.7 -0.25,-0.51 l -14.35,2.6 a 0.9,0.89 -86.6 0 0 -0.68,0.61 q -1.1,3.59 -0.6,7.35 a 0.48,0.46 0.9 0 0 0.41,0.41"
           inkscape:connector-curvature="0"
           style="vector-effect:non-scaling-stroke;stroke:#737373" />
        <path
           id="path18535"
           d="m 181.04,260.75 -0.02,4.59 a 0.4,0.4 0 0 0 0.5,0.39 q 2.38,-0.61 8.23,-2.56 4.11,-1.36 3.96,-5.19"
           inkscape:connector-curvature="0"
           style="vector-effect:non-scaling-stroke;stroke:#828282" />
        <path
           id="path18537"
           d="m 119.04,248.43 q -0.26,36.82 0.1,48.07 0.06,1.99 2.33,3.37 a 0.92,0.9 -44.5 0 0 0.95,0 l 3.48,-2.08 a 1.29,1.27 79.8 0 0 0.61,-0.89 q 0.33,-1.86 0.47,-6.15 0.55,-17.25 1.1,-34.53 a 1.85,1.79 -28.3 0 1 0.29,-0.91 q 2.66,-4.03 6.42,-6.81"
           inkscape:connector-curvature="0"
           style="vector-effect:non-scaling-stroke;stroke:#828282" />
        <path
           id="path18539"
           d="m 138.15,249.81 q -0.07,10.57 -1.57,23.97 a 0.99,0.98 22.5 0 0 0.37,0.88 l 0.27,0.2 a 0.34,0.34 0 0 0 0.52,-0.14 q 4.15,-10.06 10.05,-19.22"
           inkscape:connector-curvature="0"
           style="vector-effect:non-scaling-stroke;stroke:#828282" />
        <path
           id="path18541"
           d="m 85.4,246.2 q 4.59,12.98 12.84,23.95 a 0.37,0.37 0 0 0 0.59,0 q 6.09,-8.26 10.33,-17.53"
           inkscape:connector-curvature="0"
           style="vector-effect:non-scaling-stroke;stroke:#828282" />
        <path
           id="path18543"
           d="m 84.6,274.82 a 0.32,0.32 0 0 0 -0.58,0.2 l -0.05,14.89 a 0.32,0.32 0 0 0 0.57,0.2 l 5.85,-7.43 a 0.32,0.32 0 0 0 0,-0.39 l -5.79,-7.47"
           inkscape:connector-curvature="0"
           style="vector-effect:non-scaling-stroke;stroke:#828282" />
      </g>
      <path
         id="path18547"
         d="M 0,0 H 450 V 357 H 0 V 249.94 q 0.04,1.31 0.92,2.49 a 0.42,0.42 0 0 0 0.64,0.03 c 2.72,-3.03 5.29,-4.32 9.64,-4.16 4.59,0.17 10.13,-0.35 14.44,1.35 6.97,2.76 8.84,1.66 15.41,-0.83 1.32,-0.5 2.59,-0.33 3.97,-0.29 a 1.12,1.1 -66.7 0 0 0.85,-0.35 c 3.84,-4.04 10.44,0.13 14.69,1.64 q 2.06,0.73 4.08,-0.08 3.97,-1.6 8.57,0.26 2.17,5.62 1.99,9 -1.61,30.25 -1.43,60.59 0.02,3.01 2.55,1.38 4.55,-2.92 7.82,-7.09 a 1.34,1.33 -30.3 0 0 0.27,-1.01 q -1.22,-8.62 -0.34,-17.25 a 1.46,1.43 -19.2 0 1 0.46,-0.93 q 4.75,-4.44 8.18,-10.01 a 1.05,1.04 12.5 0 1 0.8,-0.5 c 2.33,-0.2 3.89,0.04 5.94,-1.25 q 5.04,-3.19 8.37,-8.25 0.42,-0.65 -0.36,-0.66 l -4.41,-0.07 q -1.65,-0.02 -0.74,-1.4 l 6.13,-9.26 q 0.49,-0.73 0.49,0.14 0.1,20.51 0.1,41 0,4.79 4.46,6.26 a 1.04,1.03 -51.8 0 0 0.89,-0.11 q 3.76,-2.38 6.98,-5.47 0.23,-0.22 0.44,-0.11 a 0.44,0.43 30 0 1 0.17,0.62 q -1.1,1.7 -0.95,3.71 0.11,1.48 1.29,0.58 l 5.81,-4.39 q 0.4,-0.31 0.91,-0.39 0.92,-0.15 1.86,-0.27 c 3.27,-0.42 8.1,-5.65 9.82,-8 a 0.98,0.98 0 0 0 -0.52,-1.53 c -3.3,-0.94 -3.94,-2.03 -2.66,-5.37 q 6.89,-17.94 15.66,-35.08 0.23,-0.46 0.31,0.05 0.33,2.11 0.09,6.25 -1.3,22.17 0.03,44.09 0.13,2.11 1.62,3.61 1.76,1.76 3.61,0.45 3.99,-2.83 7.94,-6.72 2.01,-1.96 -0.69,-2.74 c -1.48,-0.43 -2.68,-4.23 -2.77,-6.09 q -0.75,-16.5 -0.04,-33.03 l 7.8,0.5 a 0.43,0.43 0 0 1 0.41,0.4 l 0.04,0.35 -0.9,6.63 a 1.4,1.38 73.3 0 1 -0.45,0.85 c -1.17,1.07 -5.57,4.74 -5.05,6.84 a 0.55,0.54 76.5 0 0 0.65,0.4 l 3.99,-0.87 a 0.4,0.4 0 0 1 0.49,0.41 c -0.25,8.02 -0.95,16.9 0.27,24.83 q 0.35,2.3 2.03,0.69 l 7.8,-7.47 a 1.12,1.11 65.2 0 0 0.34,-0.93 q -1.09,-9.62 -0.63,-19.3 a 0.74,0.73 -11.5 0 1 0.42,-0.63 l 11.66,-5.42 a 0.33,0.33 0 0 1 0.47,0.32 q -0.94,12.68 -0.38,25.33 c 0.18,3.91 1.92,6.8 6.18,6.31 q 2.28,-0.25 3.87,-1.89 l 8.13,-8.34 q 0.31,-0.33 0.4,0.12 1.63,8.4 9.17,10.65 c 7.56,2.25 15.65,-6.62 19.48,-12.21 q 1.66,-2.42 2.03,0.49 1.96,15.34 1.43,29.92 -0.09,2.57 -0.85,4.43 c -3.11,7.67 -20.34,11.88 -27.22,8.89 -5.1,-2.23 -8.45,-8.37 -9.07,-13.67 a 0.86,0.85 -22.1 0 1 0.34,-0.79 q 5.04,-3.78 9.04,-8.66 a 1.14,1.14 0 0 0 -0.05,-1.5 c -6.04,-6.43 -14.51,0.2 -17.96,5.64 -5.13,8.08 -0.87,23.9 7.58,28.31 7.25,3.78 20.74,-0.62 27.1,-4.49 7.85,-4.78 20.65,-16.7 21.13,-26.89 0.66,-13.93 -0.88,-27.53 -4.17,-44.06 q -0.61,-3.08 -0.32,-6.42 c 0.45,-5.21 1.9,-20.27 -0.94,-24.4 a 1.61,1.61 0 0 0 -2.07,-0.53 c -12.61,6.41 -11.1,18.75 -8.58,30.6 1.77,8.33 -0.11,16.89 -3.52,24.52 a 2.23,2.23 0 0 1 -2.4,1.29 c -16.74,-2.73 -10.09,-29.54 -8.76,-39.83 0.08,-0.6 -0.15,-1.12 -0.29,-1.66 a 0.59,0.59 0 0 0 -0.86,-0.37 c -5.25,2.89 -9.4,7.45 -9.83,13.62 q -0.95,13.91 -6.61,26.74 a 0.39,0.39 0 0 1 -0.6,0.14 c -2.84,-2.36 -2.2,-14.81 -2.05,-21.01 0.13,-5.24 -0.21,-7.81 3.2,-10.98 q 7.5,-6.99 8.11,-17.4 c 5.81,0.61 9.07,-2.99 13.55,-7.29 6.1,-5.85 4.57,-13.71 10.25,-19.7 q 0.31,-0.34 0.43,-0.79 l 2.05,-7.85 a 1.22,1.19 84.3 0 1 0.59,-0.74 l 2.53,-1.32 a 0.5,0.5 0 0 0 0.1,-0.81 c -2.89,-2.64 -3.37,-5.12 -3,-9.22 0.23,-2.59 -0.1,-5.29 0.81,-7.74 q 0.59,-1.61 1.17,-3.26 a 1.55,1.5 -45.8 0 0 0,-0.99 l -2.03,-5.94 a 1.04,1.04 0 0 1 0.13,-0.93 l 2.14,-3.09 a 1.07,1.07 0 0 0 -0.36,-1.54 c -3.42,-1.88 -2.39,-4.09 -2.12,-7.19 a 1.67,1.66 -59 0 0 -0.26,-1.05 q -2.25,-3.49 -2.85,-7.56 a 1.33,1.27 17.2 0 0 -0.44,-0.79 l -3.96,-3.39 q -0.38,-0.32 -0.87,-0.45 l -1.98,-0.52 a 0.59,0.58 12.5 0 1 -0.43,-0.66 l 0.77,-4.98 a 1.1,1.09 -66.1 0 0 -0.38,-1 l -3.76,-3.14 q -1.47,-1.23 -2.1,-3.04 l -2.95,-8.55 a 1.42,1.42 0 0 0 -0.75,-0.82 l -6.11,-2.75 a 0.95,0.94 39.6 0 0 -0.91,0.08 q -0.74,0.51 -1.47,-0.05 a 1.43,1.41 13.9 0 1 -0.52,-0.85 q -0.74,-3.92 -3.1,-7.08 l 1.58,-1.05 a 0.49,0.49 0 0 1 0.7,0.17 c 3.31,5.96 11.7,8.86 18.01,8.9 q 17.1,0.11 30.47,-14.14 1.38,-1.47 1.73,0.51 c 0.49,2.81 3.88,6.04 6.64,7.06 8.83,3.27 18.54,-9.74 22.54,-16.73 q 0.24,-0.42 0.24,0.07 -0.06,19.98 -0.41,39.96 -0.1,5.75 -2.07,10.32 a 1.3,1.27 -87 0 1 -0.75,0.69 q -16.62,5.78 -22.02,-10.25 a 1.9,1.9 0 0 1 0.44,-1.93 l 6.41,-6.44 a 0.77,0.76 52.8 0 0 0.12,-0.92 q -0.26,-0.46 -0.84,-0.43 c -5.9,0.36 -18.66,6.51 -17.51,13.94 q 1.47,9.55 8.21,15.29 1.85,1.57 4.25,1.82 c 12.86,1.38 22.81,-5.21 29.59,-15.75 q 3.51,-5.46 4.04,-13.77 0.69,-10.79 0.87,-21.56 0.01,-0.49 0.38,-0.17 c 10.86,9.46 29.13,7.81 40.15,0.32 5.51,-3.75 11.72,-9.9 16.45,-15.57 q 1.07,-1.28 1.07,0.39 v 8.25 a 0.6,0.59 85.5 0 1 -0.5,0.59 c -3.74,0.61 -8.24,0.69 -11.29,3.09 -1.42,1.11 -6.96,5.44 -5.81,7.45 a 0.82,0.82 0 0 0 0.77,0.4 c 16.27,-1.38 33.66,-4.23 46.82,-15.58 6.1,-5.26 10.48,-10.08 8.1,-18.11 q -0.89,-3.01 -4.02,-3.06 c -10.98,-0.19 -15.06,4.19 -23.37,9.7 A 0.29,0.29 0 0 1 368,88.49 q -0.76,-10.17 1.55,-20.02 c 1.34,-5.67 1.56,-9.87 1.43,-15.22 a 1.34,1.33 -12.1 0 0 -1.86,-1.2 q -9.28,3.94 -10.88,13.82 c -1.16,7.17 1.05,13.99 -1.83,21.06 -3.54,8.69 -7.79,16.36 -17.42,19.31 -6.98,2.13 -26.87,1.57 -30.98,-7.48 -4.45,-9.84 2.95,-27.39 8.51,-35 3.66,-5.01 8.14,-4.99 14.32,-5.1 4.16,-0.08 16.41,0.94 17.53,6.49 q 1.1,5.48 -2.28,11.16 -0.88,1.48 0.47,2.47 a 0.68,0.68 0 0 0 0.82,-0.02 c 8.14,-6.43 10.99,-11.16 11.09,-20.86 q 0.02,-2.87 -2.04,-4.85 c -5.91,-5.71 -24.66,-5.37 -31.23,-0.87 q -17.17,11.76 -24.62,30.74 -0.38,0.97 -0.43,-0.08 -0.71,-14.48 0.83,-28.87 a 0.83,0.83 0 0 0 -1.15,-0.86 c -5.15,2.17 -8.26,6.06 -9.1,11.8 q -3.01,20.74 -10.67,41.2 a 1.85,1.84 -76.8 0 1 -1.89,1.18 c -9.02,-0.9 -8.6,-7.89 -7.96,-15.39 q 1.28,-15.06 6.37,-29.32 c 2.03,-5.67 8,-7.75 9.55,-13.45 0.47,-1.74 -1.15,-2.65 -2.61,-1.74 q -7.07,4.37 -11.61,11.29 c -4.06,6.18 -19.75,16.04 -27.89,16.38 q -0.52,0.02 -0.16,-0.36 C 249.69,68.53 260.6,60.3 260,50.58 q -0.13,-2.11 -2.24,-1.91 -9.27,0.9 -18.05,4.11 a 0.58,0.58 0 0 1 -0.73,-0.31 l -0.43,-1 a 0.76,0.76 0 0 0 -0.84,-0.45 c -6.03,1.03 -10.5,4.1 -15.71,7.05 a 0.51,0.5 60.3 0 1 -0.68,-0.19 c -2.2,-3.93 -3.03,-6.49 -7.32,-6.81 q -5.95,-0.45 -10.24,1.98 c -4.78,2.7 -16.87,12.19 -16.77,18.17 a 0.37,0.37 0 0 0 0.5,0.34 l 1.52,-0.55 a 0.49,0.48 82.4 0 1 0.65,0.5 l -1.15,12.5 q -0.15,1.62 -1.15,2.89 l -6.86,8.64 q -6.95,-1.81 -13.81,0.59 A 2.95,2.94 -36.5 0 1 164,95.73 c -2.1,-1.53 -5.2,-4.69 -7.96,-3.48 l 0.12,-3.4 a 0.71,0.7 84.7 0 1 0.54,-0.66 c 10.92,-2.52 20.52,-2.83 27.16,-13.22 q 0.86,-1.34 -0.68,-0.95 -11.76,2.97 -24.12,5.76 -1.12,0.26 -2.25,1.98 a 0.47,0.47 0 0 1 -0.62,0.15 c -0.35,-0.2 -0.18,-14.81 -0.17,-16.44 a 1.13,1.12 77.7 0 1 0.65,-1.02 q 10.41,-4.87 21.83,-5.57 1.53,-0.1 1.54,1.32 0,1.06 0.89,0.49 5.22,-3.33 8.54,-8.56 1.12,-1.77 -0.77,-2.69 c -1.41,-0.69 -4.04,0.14 -5.27,0.23 q -15.6,1.16 -27.68,11.03 a 0.29,0.29 0 0 1 -0.47,-0.16 c -1.51,-6.79 -12.57,0.99 -15.28,2.5 A 0.52,0.52 0 0 1 139.22,62.6 C 139,57.53 137.57,46.51 130.51,46.45 117.73,46.33 105.33,56.45 97.5,66.26 q -0.62,0.78 -1.8,4.05 -0.18,0.5 -0.39,0.02 -0.47,-1.1 -0.4,-2.33 1.18,-21.84 3.12,-43.63 c 0.53,-5.91 2.47,-11.17 4.22,-16.8 A 1.18,1.18 0 0 0 101.26,6.05 C 101.06,6.02 100.12,5.92 99.87,6 Q 87.13,9.8 74.12,12.62 a 1.64,1.54 -72.6 0 0 -0.83,0.47 q -0.66,0.73 -1.46,0.23 a 1.02,1 -41 0 0 -0.96,-0.06 c -5.65,2.58 -8.86,6.8 -8.87,13.18 q -0.01,31.55 0.21,63.06 -1.97,0.69 -3.31,2.47 a 0.73,0.73 0 0 1 -0.89,0.21 L 45.21,86.17 A 1.3,1.28 4.1 0 1 44.54,85.41 C 42.61,79.53 31.99,82.91 27.98,84.19 a 1.81,1.73 42 0 1 -0.96,0.03 Q 13.66,81.14 0,80.69 Z m 264.86,249.9 q -2.75,21.47 -3.69,43.1 -0.31,7.17 2.5,13.44 a 0.85,0.85 0 0 0 1.29,0.33 q 4.97,-3.77 9.01,-8.55 a 0.83,0.81 51.1 0 0 0.09,-0.91 c -2.17,-3.98 -2.89,-7.39 -2.73,-12.22 q 0.6,-18.34 2.55,-35.49 0.23,-2.07 2.32,-2.18 5.75,-0.31 10.6,-0.55 c 2.88,-0.15 4.7,-1.67 6.8,-3.21 q 2,-1.45 1.68,1 -2.19,16.61 -3.35,33.26 -0.16,2.33 -1.24,4.94 -2.66,6.38 -2.86,13.43 -0.07,2.33 1.97,3.46 2.78,1.53 4.58,4.1 a 1.5,1.46 82.1 0 0 0.71,0.55 q 4.28,1.57 7.86,-1.98 7.47,-7.41 15.36,-14.31 0.63,-0.56 0.71,0.28 c 0.62,6.43 4.38,10.11 10.48,11.5 10.43,2.37 18.19,-6.81 24.84,-13.65 q 0.58,-0.59 0.64,0.23 1.29,16.41 0.9,32.85 -0.19,8.19 -3.07,15.72 c -2.3,6 -13.63,7.45 -18.69,5.47 -7.27,-2.85 -11.5,-15.17 -13.72,-22.04 A 0.81,0.81 0 0 0 319.26,318 q -5.52,2.84 -8.76,8.12 a 1.26,1.26 0 0 0 -0.14,0.96 q 1.92,7.53 6.83,16.21 c 3.43,6.07 7.54,8.34 14.54,7.97 16.17,-0.83 32.12,-19.08 33.77,-34.51 q 0.93,-8.72 0.37,-22.2 -1.19,-28.83 -0.87,-57.78 a 0.31,0.31 0 0 0 -0.44,-0.28 c -4,1.92 -9.25,6.11 -9.39,10.97 -0.21,7.29 -0.09,42.11 -11.18,42.81 -10.85,0.68 -19.09,-7.9 -13.06,-18.6 3.59,-6.37 8.08,-14.46 8.73,-21.33 q 0.37,-3.97 -2.92,-1.73 c -11.76,7.99 -15.41,18.11 -17.54,31.63 -1.11,7.04 -8.37,10.92 -14.78,11.77 q -2.49,0.34 -2.48,-2.17 l 0.05,-17.26 q 0.01,-1.65 1.08,-2.92 c 2.55,-3.03 31.76,-29.65 30.45,-30.78 a 1.62,1.62 0 0 0 -2.17,0.03 l -28.57,26.7 q -0.95,0.89 -0.81,-0.4 c 1.26,-10.83 3.51,-22.8 3.25,-33.53 q -0.03,-1.05 -0.85,-0.39 l -6.72,5.31 a 1.68,1.67 24.6 0 1 -0.98,0.36 q -14.42,0.36 -28.45,3.63 c -5.95,1.39 -10.12,3.99 -12.94,9.09 q -0.98,1.77 1,1.39 l 8.17,-1.56 a 0.35,0.35 0 0 1 0.41,0.39 z"
         inkscape:connector-curvature="0"
         style="fill:#ffffff" />
      <path
         id="path18549"
         d="m 156.04,92.25 -0.03,13.27 a 0.8,0.79 3.1 0 0 0.72,0.8 l 17.19,1.78 a 0.98,0.98 0 0 0 1.05,-0.7 q 1.85,-6.29 5.53,-11.86 l 6.86,-8.64 q 1,-1.27 1.15,-2.89 l 1.15,-12.5 a 0.49,0.48 82.4 0 0 -0.65,-0.5 l -1.52,0.55 a 0.37,0.37 0 0 1 -0.5,-0.34 c -0.1,-5.98 11.99,-15.47 16.77,-18.17 q 4.29,-2.43 10.24,-1.98 c 4.29,0.32 5.12,2.88 7.32,6.81 a 0.51,0.5 60.3 0 0 0.68,0.19 c 5.21,-2.95 9.68,-6.02 15.71,-7.05 a 0.76,0.76 0 0 1 0.84,0.45 l 0.43,1 a 0.58,0.58 0 0 0 0.73,0.31 q 8.78,-3.21 18.05,-4.11 2.11,-0.2 2.24,1.91 c 0.6,9.72 -10.31,17.95 -16.14,24.12 q -0.36,0.38 0.16,0.36 c 8.14,-0.34 23.83,-10.2 27.89,-16.38 q 4.54,-6.92 11.61,-11.29 c 1.46,-0.91 3.08,0 2.61,1.74 -1.55,5.7 -7.52,7.78 -9.55,13.45 q -5.09,14.26 -6.37,29.32 c -0.64,7.5 -1.06,14.49 7.96,15.39 a 1.85,1.84 -76.8 0 0 1.89,-1.18 q 7.66,-20.46 10.67,-41.2 c 0.84,-5.74 3.95,-9.63 9.1,-11.8 a 0.83,0.83 0 0 1 1.15,0.86 q -1.54,14.39 -0.83,28.87 0.05,1.05 0.43,0.08 7.45,-18.98 24.62,-30.74 c 6.57,-4.5 25.32,-4.84 31.23,0.87 q 2.06,1.98 2.04,4.85 c -0.1,9.7 -2.95,14.43 -11.09,20.86 a 0.68,0.68 0 0 1 -0.82,0.02 q -1.35,-0.99 -0.47,-2.47 3.38,-5.68 2.28,-11.16 C 347.25,59.6 335,58.58 330.84,58.66 c -6.18,0.11 -10.66,0.09 -14.32,5.1 -5.56,7.61 -12.96,25.16 -8.51,35 4.11,9.05 24,9.61 30.98,7.48 9.63,-2.95 13.88,-10.62 17.42,-19.31 2.88,-7.07 0.67,-13.89 1.83,-21.06 q 1.6,-9.88 10.88,-13.82 a 1.34,1.33 -12.1 0 1 1.86,1.2 c 0.13,5.35 -0.09,9.55 -1.43,15.22 q -2.31,9.85 -1.55,20.02 a 0.29,0.29 0 0 0 0.45,0.22 c 8.31,-5.51 12.39,-9.89 23.37,-9.7 q 3.13,0.05 4.02,3.06 c 2.38,8.03 -2,12.85 -8.1,18.11 -13.16,11.35 -30.55,14.2 -46.82,15.58 a 0.82,0.82 0 0 1 -0.77,-0.4 c -1.15,-2.01 4.39,-6.34 5.81,-7.45 3.05,-2.4 7.55,-2.48 11.29,-3.09 a 0.6,0.59 85.5 0 0 0.5,-0.59 v -8.25 q 0,-1.67 -1.07,-0.39 c -4.73,5.67 -10.94,11.82 -16.45,15.57 -11.02,7.49 -29.29,9.14 -40.15,-0.32 q -0.37,-0.32 -0.38,0.17 -0.18,10.77 -0.87,21.56 -0.53,8.31 -4.04,13.77 c -6.78,10.54 -16.73,17.13 -29.59,15.75 q -2.4,-0.25 -4.25,-1.82 -6.74,-5.74 -8.21,-15.29 c -1.15,-7.43 11.61,-13.58 17.51,-13.94 q 0.58,-0.03 0.84,0.43 a 0.77,0.76 52.8 0 1 -0.12,0.92 l -6.41,6.44 a 1.9,1.9 0 0 0 -0.44,1.93 q 5.4,16.03 22.02,10.25 a 1.3,1.27 -87 0 0 0.75,-0.69 q 1.97,-4.57 2.07,-10.32 0.35,-19.98 0.41,-39.96 0,-0.49 -0.24,-0.07 c -4,6.99 -13.71,20 -22.54,16.73 -2.76,-1.02 -6.15,-4.25 -6.64,-7.06 q -0.35,-1.98 -1.73,-0.51 -13.37,14.25 -30.47,14.14 c -6.31,-0.04 -14.7,-2.94 -18.01,-8.9 a 0.49,0.49 0 0 0 -0.7,-0.17 l -1.58,1.05 q -5.57,4.67 -12.47,6.22 a 1.27,1.26 83.9 0 0 -0.98,1.22 c -0.06,16.97 -0.51,33.5 2.86,49.83 1.15,5.58 -4.21,10.37 -8.73,12.59 a 0.41,0.4 -20.1 0 1 -0.57,-0.26 c -4.82,-20.47 -3.93,-40.23 -3.48,-61.05 a 0.77,0.77 0 0 0 -0.52,-0.74 q -5.21,-1.68 -7.58,-6.66 a 0.63,0.63 0 0 0 -0.79,-0.32 c -5.77,2.15 -10.22,1.68 -16.19,1.36 -3.12,-0.16 -9.18,-1.47 -11.92,-0.01 a 0.99,0.99 0 0 1 -1.41,-0.57 q -3.54,-10.94 -5.05,-22.36 -0.16,-1.15 -0.27,0.01 c -1.48,15.51 -7.03,28.13 -20.49,36.09 q -1.41,0.83 -3,0.42 -1.95,-0.51 -2.52,-3.55 -4.44,-23.5 7.71,-43.92 l 6.81,-9.52 a 1.88,1.85 -26.6 0 0 0.35,-1.02 q 0.26,-8.26 -4.01,-15.22 -0.89,-1.46 -2.61,-1.47 -7.94,-0.01 -14.85,3.76 a 1.3,1.29 -14.6 0 0 -0.67,1.13 l 0.21,27.29 c -0.06,25.1 3.76,46.61 7.93,70.01 0.69,3.89 1.77,10.63 -0.69,14.07 q -3.42,4.79 -8.35,8.52 a 3.02,3 71.6 0 0 -1.19,2.4 l 0.03,31.17 q 0,2.23 2.11,2.93 l 2.28,0.76 a 0.44,0.44 0 0 1 0.23,0.65 c -2.41,3.89 -9.72,12.78 -14.29,6.85 a 1.51,1.51 0 0 1 -0.32,-0.93 l -0.04,-36.48 a 0.42,0.42 0 0 0 -0.53,-0.4 q -7.71,2.31 -15.76,3.09 a 1.91,1.9 -3 0 0 -1.72,1.9 q 0.06,9.46 -0.85,17.79 c -0.52,4.71 -5.29,9.16 -8.98,11.42 q -2.24,1.37 -2.21,-1.25 l 0.28,-30.09 a 1.16,1.15 68 0 1 0.35,-0.83 q 2.12,-2.12 2.14,-3.58 0.18,-11.72 0.39,-23.51 c 0.08,-4.88 5.08,-9.52 8.91,-11.75 q 1.33,-0.78 1.31,0.77 l -0.29,29.51 a 0.46,0.45 88.8 0 0 0.47,0.46 q 5.98,-0.17 11.93,-1 c 2.9,-0.41 4.97,-0.25 5.1,-3.48 q 0.59,-14.64 0.53,-29.33 a 1.25,1.23 -23.6 0 1 0.34,-0.85 l 4.16,-4.3 a 0.97,0.96 -28.3 0 0 0.26,-0.85 C 97.52,123.92 97.18,105.25 96.78,86.74 A 0.78,0.76 9.4 0 0 96.26,86.03 L 95.44,85.74 A 0.73,0.73 0 0 1 94.96,84.93 Q 95.34,82.43 94.68,80 94.35,78.82 94.34,80.05 L 93.9,124.4 q -0.02,1.67 -1.05,2.99 -3.38,4.3 -7.92,7.32 -0.86,0.57 -0.86,-0.47 L 84.21,86 q 0.45,-2.7 0.48,-3.56 0.88,-24.38 3.15,-48.66 c 0.58,-6.14 2.03,-11.14 4.2,-16.63 q 0.66,-1.66 -1.06,-1.17 l -18.42,5.26 a 0.65,0.65 0 0 0 -0.47,0.61 c -0.23,21.11 -0.95,42.9 0.7,63.9 q 1.37,16.52 3.14,33.01 c 0.48,4.47 -6.35,9.17 -9.26,10.75 a 0.34,0.34 0 0 1 -0.5,-0.27 L 62.21,89.5 Q 61.99,57.99 62,26.44 c 0.01,-6.38 3.22,-10.6 8.87,-13.18 a 1.02,1 -41 0 1 0.96,0.06 q 0.8,0.5 1.46,-0.23 a 1.64,1.54 -72.6 0 1 0.83,-0.47 Q 87.13,9.8 99.87,6 c 0.25,-0.08 1.19,0.02 1.39,0.05 a 1.18,1.18 0 0 1 0.99,1.52 c -1.75,5.63 -3.69,10.89 -4.22,16.8 Q 96.09,46.16 94.91,68 q -0.07,1.23 0.4,2.33 0.21,0.48 0.39,-0.02 1.18,-3.27 1.8,-4.05 c 7.83,-9.81 20.23,-19.93 33.01,-19.81 7.06,0.06 8.49,11.08 8.71,16.15 a 0.52,0.52 0 0 0 0.78,0.44 c 2.71,-1.51 13.77,-9.29 15.28,-2.5 a 0.29,0.29 0 0 0 0.47,0.16 q 12.08,-9.87 27.68,-11.03 c 1.23,-0.09 3.86,-0.92 5.27,-0.23 q 1.89,0.92 0.77,2.69 -3.32,5.23 -8.54,8.56 -0.89,0.57 -0.89,-0.49 -0.01,-1.42 -1.54,-1.32 -11.42,0.7 -21.83,5.57 a 1.13,1.12 77.7 0 0 -0.65,1.02 c -0.01,1.63 -0.18,16.24 0.17,16.44 a 0.47,0.47 0 0 0 0.62,-0.15 q 1.13,-1.72 2.25,-1.98 12.36,-2.79 24.12,-5.76 1.54,-0.39 0.68,0.95 c -6.64,10.39 -16.24,10.7 -27.16,13.22 a 0.71,0.7 84.7 0 0 -0.54,0.66 z m 93.49,-33.17 q -4.98,-0.3 -9.85,0.82 A 0.88,0.87 -6.7 0 0 239,60.75 v 12.74 q 0,0.59 0.51,0.29 c 4.47,-2.61 11.32,-8.27 10.71,-14.04 a 0.73,0.73 0 0 0 -0.69,-0.66 z m -39.77,7.16 c 0.42,-4.41 -5.34,-6.36 -8.64,-5.2 a 1.84,1.84 0 0 0 -1.23,1.57 l -1.18,12.33 q -0.05,0.53 0.36,0.19 l 10.3,-8.17 a 1.05,1.03 -17.1 0 0 0.39,-0.72 z m 14.32,-1.91 -0.59,-0.98 q -0.57,-0.94 -0.43,0.15 1.27,9.94 0.89,19.96 -0.03,0.57 0.47,0.28 c 2.75,-1.58 4.56,-3.52 4.58,-6.99 q 0.02,-6.41 -0.03,-12.87 a 0.48,0.48 0 0 0 -0.64,-0.45 l -3.38,1.21 a 0.73,0.73 0 0 1 -0.87,-0.31 z m -80.39,3.63 -3.13,0.05 a 0.65,0.64 88.7 0 0 -0.63,0.67 l 0.26,9.26 q 0.03,0.98 0.52,0.13 l 4.45,-7.61 q 1.49,-2.55 -1.47,-2.5 z m 115.72,5.44 a 0.33,0.33 0 0 0 0,0.53 l 4.66,3.34 a 0.33,0.33 0 0 0 0.51,-0.17 l 2.79,-8.82 a 0.33,0.33 0 0 0 -0.51,-0.36 z m -64.62,33.1 -0.59,5.8 a 0.53,0.52 -83.9 0 0 0.46,0.58 q 2.87,0.35 5.63,-0.63 4.27,-0.39 8.03,-2.47 a 1.64,1.62 89.6 0 0 0.67,-0.69 c 1.66,-3.16 4.48,-6.7 4.95,-10.17 1.11,-8.29 -0.06,-18.81 -1.11,-27.49 Q 212.45,68.3 210,70.28 l -10.74,8.64 a 4.13,4.12 75.4 0 0 -1.47,2.52 q -2.09,12.5 -3,25.06 z M 129.13,80.57 c -5.83,12.34 -8.05,26.65 -4.25,39.9 a 0.83,0.81 -2.7 0 0 0.65,0.58 q 0.5,0.08 0.77,-0.58 c 5.12,-12.64 4.29,-26.49 3.61,-40.18 A 0.32,0.32 0 0 0 129.48,80 c -0.29,0.1 -0.24,0.34 -0.35,0.57 z m 122.93,4.62 c -5,-3.3 -14.9,-2.01 -15.02,5.82 q -0.16,10.61 0.05,21.38 a 0.54,0.53 1.2 0 0 0.51,0.52 c 4.43,0.2 16.56,-0.64 17.86,-6.42 1.13,-5.02 1.83,-17.86 -3.4,-21.3 z m -24.24,1.69 c -1.72,0.16 -4.49,1.55 -3.8,3.67 a 0.46,0.46 0 0 0 0.76,0.19 l 3.32,-3.28 q 0.68,-0.67 -0.28,-0.58 z m 141.09,6.13 q -1.49,4.71 -0.77,9.64 a 0.49,0.49 0 0 0 0.59,0.42 q 8.7,-1.86 16.81,-5.51 a 0.98,0.97 80.9 0 0 0.56,-0.78 q 0.38,-3.41 -0.86,-6.61 a 1.8,1.8 0 0 0 -1.61,-1.16 q -6.53,-0.26 -12.7,1.92 -1.53,0.54 -2.02,2.08 z m -143.16,17.41 a 0.75,0.75 0 0 0 1.1,-0.63 l 0.82,-16.56 a 0.29,0.29 0 0 0 -0.39,-0.28 c -4.22,1.58 -5.88,5.63 -7.84,10.19 a 1.16,1.15 -47.4 0 0 0.04,0.98 q 2.13,4.15 6.27,6.3 z m -40.6636,-5.9036 a 5.23,0.58 97.4 0 0 1.2488,-5.1117 5.23,0.58 97.4 0 0 0.0984,-5.2611 5.23,0.58 97.4 0 0 -1.2488,5.1117 5.23,0.58 97.4 0 0 -0.0984,5.2611 z"
         inkscape:connector-curvature="0"
         style="fill:#050505" />
      <path
         id="path18551"
         d="m 84.21,86 q -4.97,1.06 -9.77,-0.59 a 1.32,1.32 0 0 0 -0.93,0.03 l -0.72,0.31 c -1.65,-21 -0.93,-42.79 -0.7,-63.9 a 0.65,0.65 0 0 1 0.47,-0.61 l 18.42,-5.26 q 1.72,-0.49 1.06,1.17 c -2.17,5.49 -3.62,10.49 -4.2,16.63 Q 85.57,58.06 84.69,82.44 84.66,83.3 84.21,86 Z"
         inkscape:connector-curvature="0"
         style="fill:#ffffff" />
      <path
         id="path18553"
         d="m 122.06,83.55 q -2.83,0.73 -7.6,3.91 -2.72,1.8 -7.17,1.04 l -0.21,-27.29 a 1.3,1.29 -14.6 0 1 0.67,-1.13 q 6.91,-3.77 14.85,-3.76 1.72,0.01 2.61,1.47 4.27,6.96 4.01,15.22 a 1.88,1.85 -26.6 0 1 -0.35,1.02 z"
         inkscape:connector-curvature="0"
         style="fill:#ffffff" />
      <path
         id="path18555"
         d="m 249.53,59.08 a 0.73,0.73 0 0 1 0.69,0.66 c 0.61,5.77 -6.24,11.43 -10.71,14.04 Q 239,74.08 239,73.49 V 60.75 a 0.88,0.87 -6.7 0 1 0.68,-0.85 q 4.87,-1.12 9.85,-0.82 z"
         inkscape:connector-curvature="0"
         style="fill:#ffffff" />
      <path
         id="path18557"
         d="m 201.12,61.04 c 3.3,-1.16 9.06,0.79 8.64,5.2 a 1.05,1.03 -17.1 0 1 -0.39,0.72 l -10.3,8.17 q -0.41,0.34 -0.36,-0.19 l 1.18,-12.33 a 1.84,1.84 0 0 1 1.23,-1.57 z"
         inkscape:connector-curvature="0"
         style="fill:#ffffff" />
      <path
         id="path18559"
         d="m 224.95,64.64 3.38,-1.21 a 0.48,0.48 0 0 1 0.64,0.45 q 0.05,6.46 0.03,12.87 c -0.02,3.47 -1.83,5.41 -4.58,6.99 q -0.5,0.29 -0.47,-0.28 0.38,-10.02 -0.89,-19.96 -0.14,-1.09 0.43,-0.15 l 0.59,0.98 a 0.73,0.73 0 0 0 0.87,0.31 z"
         inkscape:connector-curvature="0"
         style="fill:#ffffff" />
      <path
         id="path18561"
         d="m 143.69,67.96 q 2.96,-0.05 1.47,2.5 l -4.45,7.61 q -0.49,0.85 -0.52,-0.13 l -0.26,-9.26 a 0.65,0.64 88.7 0 1 0.63,-0.67 z"
         inkscape:connector-curvature="0"
         style="fill:#ffffff" />
      <path
         id="path18563"
         d="m 259.41,73.4 7.45,-5.48 a 0.33,0.33 0 0 1 0.51,0.36 l -2.79,8.82 a 0.33,0.33 0 0 1 -0.51,0.17 l -4.66,-3.34 a 0.33,0.33 0 0 1 0,-0.53 z"
         inkscape:connector-curvature="0"
         style="fill:#ffffff" />
      <path
         id="path18565"
         d="m 200.29,112.25 q -0.93,-4.67 -5.5,-5.75 0.91,-12.56 3,-25.06 a 4.13,4.12 75.4 0 1 1.47,-2.52 L 210,70.28 q 2.45,-1.98 2.83,1.15 c 1.05,8.68 2.22,19.2 1.11,27.49 -0.47,3.47 -3.29,7.01 -4.95,10.17 a 1.64,1.62 89.6 0 1 -0.67,0.69 q -3.76,2.08 -8.03,2.47 z"
         inkscape:connector-curvature="0"
         style="fill:#ffffff" />
      <path
         id="path18567"
         d="m 107.29,88.5 q 4.45,0.76 7.17,-1.04 4.77,-3.18 7.6,-3.91 -12.15,20.42 -7.71,43.92 0.57,3.04 2.52,3.55 1.59,0.41 3,-0.42 c 13.46,-7.96 19.01,-20.58 20.49,-36.09 q 0.11,-1.16 0.27,-0.01 1.51,11.42 5.05,22.36 a 0.99,0.99 0 0 0 1.41,0.57 c 2.74,-1.46 8.8,-0.15 11.92,0.01 5.97,0.32 10.42,0.79 16.19,-1.36 a 0.63,0.63 0 0 1 0.79,0.32 q 2.37,4.98 7.58,6.66 a 0.77,0.77 0 0 1 0.52,0.74 c -0.45,20.82 -1.34,40.58 3.48,61.05 a 0.41,0.4 -20.1 0 0 0.57,0.26 c 4.52,-2.22 9.88,-7.01 8.73,-12.59 -3.37,-16.33 -2.92,-32.86 -2.86,-49.83 a 1.27,1.26 83.9 0 1 0.98,-1.22 q 6.9,-1.55 12.47,-6.22 2.36,3.16 3.1,7.08 a 1.43,1.41 13.9 0 0 0.52,0.85 q 0.73,0.56 1.47,0.05 a 0.95,0.94 39.6 0 1 0.91,-0.08 l 6.11,2.75 a 1.42,1.42 0 0 1 0.75,0.82 l 2.95,8.55 q 0.63,1.81 2.1,3.04 l 3.76,3.14 a 1.1,1.09 -66.1 0 1 0.38,1 l -0.77,4.98 a 0.59,0.58 12.5 0 0 0.43,0.66 l 1.98,0.52 q 0.49,0.13 0.87,0.45 l 3.96,3.39 a 1.33,1.27 17.2 0 1 0.44,0.79 q 0.6,4.07 2.85,7.56 a 1.67,1.66 -59 0 1 0.26,1.05 c -0.27,3.1 -1.3,5.31 2.12,7.19 a 1.07,1.07 0 0 1 0.36,1.54 l -2.14,3.09 a 1.04,1.04 0 0 0 -0.13,0.93 l 2.03,5.94 a 1.55,1.5 -45.8 0 1 0,0.99 q -0.58,1.65 -1.17,3.26 c -0.91,2.45 -0.58,5.15 -0.81,7.74 -0.37,4.1 0.11,6.58 3,9.22 a 0.5,0.5 0 0 1 -0.1,0.81 l -2.53,1.32 a 1.22,1.19 84.3 0 0 -0.59,0.74 l -2.05,7.85 q -0.12,0.45 -0.43,0.79 c -5.68,5.99 -4.15,13.85 -10.25,19.7 -4.48,4.3 -7.74,7.9 -13.55,7.29 q -0.15,-2.99 -4.14,-3.33 -2.18,-0.19 -4.17,0.71 c -8.35,3.76 -10.24,11.77 -11.27,20.35 q -7.04,-1.25 -12.67,2.77 l 2.07,-20.81 a 0.85,0.85 0 0 0 -1.17,-0.87 c -10.54,4.28 -9.02,13.83 -10.4,22.93 l -0.04,-0.35 a 0.43,0.43 0 0 0 -0.41,-0.4 l -7.8,-0.5 q 0.36,-10.54 1.8,-21.99 0.32,-2.52 -1.99,-1.45 -3.67,1.7 -6.59,6.14 -4.08,6.22 -8.72,12.05 l -0.18,-0.53 a 0.87,0.85 84.7 0 0 -0.68,-0.58 q -5.04,-0.81 -8.78,-4.58 l -0.33,-2.24 a 0.53,0.53 0 0 0 -0.62,-0.45 q -1.41,0.24 -2.41,1.38 -2.34,-0.98 -4.85,-0.27 a 1.53,1.5 45.6 0 1 -0.9,-0.02 l -2.68,-0.91 a 1.12,1.11 -50.6 0 0 -0.94,0.1 q -2.86,1.74 -6.38,1.03 c 0.16,-4.98 3.39,-8.47 5.62,-12.74 a 0.46,0.46 0 0 0 -0.27,-0.64 c -1.81,-0.57 -11.8,8.75 -13.61,10.61 -2.07,2.12 -2.04,4.21 -1.62,6.96 q -6.65,-3.41 -13.33,-3.15 a 1.8,1.77 -62.6 0 0 -0.92,0.3 c -2.59,1.68 -3.73,0.92 -5.78,-1.24 q -1.51,-1.59 -3.73,-2.33 0.5,-3.18 -1.83,-4.49 a 1.05,1.05 0 0 1 -0.5,-0.68 l -0.3,-1.31 a 0.5,0.5 0 0 0 -0.76,-0.31 c -2.07,1.32 -10.09,6.9 -8.8,10.59 q -4.6,-1.86 -8.57,-0.26 -2.02,0.81 -4.08,0.08 c -4.25,-1.51 -10.85,-5.68 -14.69,-1.64 a 1.12,1.1 -66.7 0 1 -0.85,0.35 c -1.38,-0.04 -2.65,-0.21 -3.97,0.29 -6.57,2.49 -8.44,3.59 -15.41,0.83 -4.31,-1.7 -9.85,-1.18 -14.44,-1.35 -4.35,-0.16 -6.92,1.13 -9.64,4.16 A 0.42,0.42 0 0 1 0.92,252.43 Q 0.04,251.25 0,249.94 V 80.69 q 13.66,0.45 27.02,3.53 a 1.81,1.73 42 0 0 0.96,-0.03 c 4.01,-1.28 14.63,-4.66 16.56,1.22 a 1.3,1.28 4.1 0 0 0.67,0.76 l 12.8,6.01 a 0.73,0.73 0 0 0 0.89,-0.21 q 1.34,-1.78 3.31,-2.47 l 3.96,39.74 a 0.34,0.34 0 0 0 0.5,0.27 c 2.91,-1.58 9.74,-6.28 9.26,-10.75 Q 74.16,102.27 72.79,85.75 l 0.72,-0.31 a 1.32,1.32 0 0 1 0.93,-0.03 q 4.8,1.65 9.77,0.59 l -0.14,48.24 q 0,1.04 0.86,0.47 4.54,-3.02 7.92,-7.32 1.03,-1.32 1.05,-2.99 l 0.44,-44.35 q 0.01,-1.23 0.34,-0.05 0.66,2.43 0.28,4.93 a 0.73,0.73 0 0 0 0.48,0.81 l 0.82,0.29 a 0.78,0.76 9.4 0 1 0.52,0.71 c 0.4,18.51 0.74,37.18 4.04,55.43 a 0.97,0.96 -28.3 0 1 -0.26,0.85 l -4.16,4.3 a 1.25,1.23 -23.6 0 0 -0.34,0.85 q 0.06,14.69 -0.53,29.33 c -0.13,3.23 -2.2,3.07 -5.1,3.48 q -5.95,0.83 -11.93,1 a 0.46,0.45 88.8 0 1 -0.47,-0.46 l 0.29,-29.51 q 0.02,-1.55 -1.31,-0.77 c -3.83,2.23 -8.83,6.87 -8.91,11.75 q -0.21,11.79 -0.39,23.51 -0.02,1.46 -2.14,3.58 a 1.16,1.15 68 0 0 -0.35,0.83 L 64.94,221 q -0.03,2.62 2.21,1.25 c 3.69,-2.26 8.46,-6.71 8.98,-11.42 q 0.91,-8.33 0.85,-17.79 a 1.91,1.9 -3 0 1 1.72,-1.9 q 8.05,-0.78 15.76,-3.09 a 0.42,0.42 0 0 1 0.53,0.4 l 0.04,36.48 a 1.51,1.51 0 0 0 0.32,0.93 c 4.57,5.93 11.88,-2.96 14.29,-6.85 a 0.44,0.44 0 0 0 -0.23,-0.65 l -2.28,-0.76 q -2.11,-0.7 -2.11,-2.93 l -0.03,-31.17 a 3.02,3 71.6 0 1 1.19,-2.4 q 4.93,-3.73 8.35,-8.52 c 2.46,-3.44 1.38,-10.18 0.69,-14.07 -4.17,-23.4 -7.99,-44.91 -7.93,-70.01 z m 44.71,96.97 -0.01,-33.45 q 0,-1.9 -1.52,-0.77 l -1.41,1.04 q -0.69,0.52 -0.32,-0.27 c 0.38,-0.79 2.55,-2.52 2.24,-3.1 a 0.57,0.57 0 0 0 -0.75,-0.24 c -13.11,6.21 -24.89,31.1 -31.08,43.96 -4.52,9.39 -7.18,15.12 -8.58,24.06 q -0.47,2.99 2.52,3.46 c 7.36,1.14 20.37,-13.91 25.11,-18.9 a 1.35,1.32 -20.3 0 0 0.37,-0.78 q 0.27,-2.45 2.65,-2.78 a 0.55,0.55 0 0 1 0.62,0.56 q -0.35,14.7 5.4,28.15 a 0.55,0.55 0 0 0 0.82,0.23 q 5.14,-3.61 9.05,-8.54 a 0.81,0.8 -37.7 0 0 0.11,-0.82 q -4.45,-10.32 -5.24,-21.57 a 2.55,2.54 70.4 0 1 1.05,-2.23 q 4.68,-3.35 7.99,-8.04 0.56,-0.79 -0.37,-0.54 l -6.92,1.89 A 1.37,1.37 0 0 1 152,185.47 Z"
         inkscape:connector-curvature="0"
         style="fill:#e0e0e0" />
      <path
         id="path18569"
         d="m 129.13,80.57 c 0.11,-0.23 0.06,-0.47 0.35,-0.57 a 0.32,0.32 0 0 1 0.43,0.29 c 0.68,13.69 1.51,27.54 -3.61,40.18 q -0.27,0.66 -0.77,0.58 a 0.83,0.81 -2.7 0 1 -0.65,-0.58 c -3.8,-13.25 -1.58,-27.56 4.25,-39.9 z"
         inkscape:connector-curvature="0"
         style="fill:#e0e0e0" />
      <path
         id="path18571"
         d="m 252.06,85.19 c 5.23,3.44 4.53,16.28 3.4,21.3 -1.3,5.78 -13.43,6.62 -17.86,6.42 a 0.54,0.53 1.2 0 1 -0.51,-0.52 q -0.21,-10.77 -0.05,-21.38 c 0.12,-7.83 10.02,-9.12 15.02,-5.82 z"
         inkscape:connector-curvature="0"
         style="fill:#ffffff" />
      <path
         id="path18573"
         d="m 224.02,90.55 c -0.69,-2.12 2.08,-3.51 3.8,-3.67 q 0.96,-0.09 0.28,0.58 l -3.32,3.28 a 0.46,0.46 0 0 1 -0.76,-0.19 z"
         inkscape:connector-curvature="0"
         style="fill:#ffffff" />
      <path
         id="path18575"
         d="m 368.91,93.01 q 0.49,-1.54 2.02,-2.08 6.17,-2.18 12.7,-1.92 a 1.8,1.8 0 0 1 1.61,1.16 q 1.24,3.2 0.86,6.61 a 0.98,0.97 80.9 0 1 -0.56,0.78 q -8.11,3.65 -16.81,5.51 a 0.49,0.49 0 0 1 -0.59,-0.42 q -0.72,-4.93 0.77,-9.64 z"
         inkscape:connector-curvature="0"
         style="fill:#ffffff" />
      <path
         id="path18577"
         d="m 180.5,95.54 q -3.68,5.57 -5.53,11.86 a 0.98,0.98 0 0 1 -1.05,0.7 l -17.19,-1.78 a 0.8,0.79 3.1 0 1 -0.72,-0.8 l 0.03,-13.27 c 2.76,-1.21 5.86,1.95 7.96,3.48 a 2.95,2.94 -36.5 0 0 2.69,0.4 q 6.86,-2.4 13.81,-0.59 z"
         inkscape:connector-curvature="0"
         style="fill:#e0e0e0" />
      <path
         id="path18579"
         d="m 225.75,110.42 q -4.14,-2.15 -6.27,-6.3 a 1.16,1.15 -47.4 0 1 -0.04,-0.98 c 1.96,-4.56 3.62,-8.61 7.84,-10.19 a 0.29,0.29 0 0 1 0.39,0.28 l -0.82,16.56 a 0.75,0.75 0 0 1 -1.1,0.63 z"
         inkscape:connector-curvature="0"
         style="fill:#ffffff" />
      <ellipse
         id="ellipse18581"
         ry="0.57999998"
         rx="5.23"
         transform="rotate(97.4,49.248231,131.26207)"
         cy="0"
         cx="0"
         style="fill:#e0e0e0" />
      <path
         id="path18583"
         d="m 194.79,106.5 q 4.57,1.08 5.5,5.75 -2.76,0.98 -5.63,0.63 a 0.53,0.52 -83.9 0 1 -0.46,-0.58 z"
         inkscape:connector-curvature="0"
         style="fill:#e0e0e0" />
      <path
         id="path18585"
         d="m 152,185.47 a 1.37,1.37 0 0 0 1.73,1.32 l 6.92,-1.89 q 0.93,-0.25 0.37,0.54 -3.31,4.69 -7.99,8.04 a 2.55,2.54 70.4 0 0 -1.05,2.23 q 0.79,11.25 5.24,21.57 a 0.81,0.8 -37.7 0 1 -0.11,0.82 q -3.91,4.93 -9.05,8.54 a 0.55,0.55 0 0 1 -0.82,-0.23 q -5.75,-13.45 -5.4,-28.15 a 0.55,0.55 0 0 0 -0.62,-0.56 q -2.38,0.33 -2.65,2.78 a 1.35,1.32 -20.3 0 1 -0.37,0.78 c -4.74,4.99 -17.75,20.04 -25.11,18.9 q -2.99,-0.47 -2.52,-3.46 c 1.4,-8.94 4.06,-14.67 8.58,-24.06 6.19,-12.86 17.97,-37.75 31.08,-43.96 a 0.57,0.57 0 0 1 0.75,0.24 c 0.31,0.58 -1.86,2.31 -2.24,3.1 q -0.37,0.79 0.32,0.27 l 1.41,-1.04 q 1.52,-1.13 1.52,0.77 z m -28,11.91 c 5.65,-6.19 9.6,-6.24 17.41,-7.47 a 0.7,0.69 85.7 0 0 0.59,-0.69 v -26.77 q 0,-0.86 -0.51,-0.17 c -7.27,9.94 -13.25,23.65 -18.14,34.68 q -0.98,2.21 0.65,0.42 z M 121.5,210 c 5.67,0.83 11.42,-6.91 15.47,-10.46 q 0.8,-0.7 -0.25,-0.51 l -14.35,2.6 a 0.9,0.89 -86.6 0 0 -0.68,0.61 q -1.1,3.59 -0.6,7.35 a 0.48,0.46 0.9 0 0 0.41,0.41 z"
         inkscape:connector-curvature="0"
         style="fill:#050505" />
      <path
         id="path18587"
         d="m 124,197.38 q -1.63,1.79 -0.65,-0.42 c 4.89,-11.03 10.87,-24.74 18.14,-34.68 q 0.51,-0.69 0.51,0.17 v 26.77 a 0.7,0.69 85.7 0 1 -0.59,0.69 c -7.81,1.23 -11.76,1.28 -17.41,7.47 z"
         inkscape:connector-curvature="0"
         style="fill:#e0e0e0" />
      <path
         id="path18589"
         d="m 121.5,210 a 0.48,0.46 0.9 0 1 -0.41,-0.41 q -0.5,-3.76 0.6,-7.35 a 0.9,0.89 -86.6 0 1 0.68,-0.61 l 14.35,-2.6 q 1.05,-0.19 0.25,0.51 c -4.05,3.55 -9.8,11.29 -15.47,10.46 z"
         inkscape:connector-curvature="0"
         style="fill:#e0e0e0" />
      <path
         id="path18591"
         d="m 264.45,249.51 -8.17,1.56 q -1.98,0.38 -1,-1.39 c 2.82,-5.1 6.99,-7.7 12.94,-9.09 q 14.03,-3.27 28.45,-3.63 a 1.68,1.67 24.6 0 0 0.98,-0.36 l 6.72,-5.31 q 0.82,-0.66 0.85,0.39 c 0.26,10.73 -1.99,22.7 -3.25,33.53 q -0.14,1.29 0.81,0.4 l 28.57,-26.7 a 1.62,1.62 0 0 1 2.17,-0.03 c 1.31,1.13 -27.9,27.75 -30.45,30.78 q -1.07,1.27 -1.08,2.92 l -0.05,17.26 q -0.01,2.51 2.48,2.17 c 6.41,-0.85 13.67,-4.73 14.78,-11.77 2.13,-13.52 5.78,-23.64 17.54,-31.63 q 3.29,-2.24 2.92,1.73 c -0.65,6.87 -5.14,14.96 -8.73,21.33 -6.03,10.7 2.21,19.28 13.06,18.6 11.09,-0.7 10.97,-35.52 11.18,-42.81 0.14,-4.86 5.39,-9.05 9.39,-10.97 a 0.31,0.31 0 0 1 0.44,0.28 q -0.32,28.95 0.87,57.78 0.56,13.48 -0.37,22.2 c -1.65,15.43 -17.6,33.68 -33.77,34.51 -7,0.37 -11.11,-1.9 -14.54,-7.97 q -4.91,-8.68 -6.83,-16.21 a 1.26,1.26 0 0 1 0.14,-0.96 q 3.24,-5.28 8.76,-8.12 a 0.81,0.81 0 0 1 1.14,0.47 c 2.22,6.87 6.45,19.19 13.72,22.04 5.06,1.98 16.39,0.53 18.69,-5.47 q 2.88,-7.53 3.07,-15.72 0.39,-16.44 -0.9,-32.85 -0.06,-0.82 -0.64,-0.23 c -6.65,6.84 -14.41,16.02 -24.84,13.65 -6.1,-1.39 -9.86,-5.07 -10.48,-11.5 q -0.08,-0.84 -0.71,-0.28 -7.89,6.9 -15.36,14.31 -3.58,3.55 -7.86,1.98 a 1.5,1.46 82.1 0 1 -0.71,-0.55 q -1.8,-2.57 -4.58,-4.1 -2.04,-1.13 -1.97,-3.46 0.2,-7.05 2.86,-13.43 1.08,-2.61 1.24,-4.94 1.16,-16.65 3.35,-33.26 0.32,-2.45 -1.68,-1 c -2.1,1.54 -3.92,3.06 -6.8,3.21 q -4.85,0.24 -10.6,0.55 -2.09,0.11 -2.32,2.18 -1.95,17.15 -2.55,35.49 c -0.16,4.83 0.56,8.24 2.73,12.22 a 0.83,0.81 51.1 0 1 -0.09,0.91 q -4.04,4.78 -9.01,8.55 a 0.85,0.85 0 0 1 -1.29,-0.33 q -2.81,-6.27 -2.5,-13.44 0.94,-21.63 3.69,-43.1 a 0.35,0.35 0 0 0 -0.41,-0.39 z"
         inkscape:connector-curvature="0"
         style="fill:#050505" />
      <path
         id="path18593"
         d="m 171.54,262 c 1.38,-9.1 -0.14,-18.65 10.4,-22.93 a 0.85,0.85 0 0 1 1.17,0.87 l -2.07,20.81 -0.02,4.59 a 0.4,0.4 0 0 0 0.5,0.39 q 2.38,-0.61 8.23,-2.56 4.11,-1.36 3.96,-5.19 c 1.03,-8.58 2.92,-16.59 11.27,-20.35 q 1.99,-0.9 4.17,-0.71 3.99,0.34 4.14,3.33 -0.61,10.41 -8.11,17.4 c -3.41,3.17 -3.07,5.74 -3.2,10.98 -0.15,6.2 -0.79,18.65 2.05,21.01 a 0.39,0.39 0 0 0 0.6,-0.14 q 5.66,-12.83 6.61,-26.74 c 0.43,-6.17 4.58,-10.73 9.83,-13.62 a 0.59,0.59 0 0 1 0.86,0.37 c 0.14,0.54 0.37,1.06 0.29,1.66 -1.33,10.29 -7.98,37.1 8.76,39.83 a 2.23,2.23 0 0 0 2.4,-1.29 c 3.41,-7.63 5.29,-16.19 3.52,-24.52 -2.52,-11.85 -4.03,-24.19 8.58,-30.6 a 1.61,1.61 0 0 1 2.07,0.53 c 2.84,4.13 1.39,19.19 0.94,24.4 q -0.29,3.34 0.32,6.42 c 3.29,16.53 4.83,30.13 4.17,44.06 -0.48,10.19 -13.28,22.11 -21.13,26.89 -6.36,3.87 -19.85,8.27 -27.1,4.49 -8.45,-4.41 -12.71,-20.23 -7.58,-28.31 3.45,-5.44 11.92,-12.07 17.96,-5.64 a 1.14,1.14 0 0 1 0.05,1.5 q -4,4.88 -9.04,8.66 a 0.86,0.85 -22.1 0 0 -0.34,0.79 c 0.62,5.3 3.97,11.44 9.07,13.67 6.88,2.99 24.11,-1.22 27.22,-8.89 q 0.76,-1.86 0.85,-4.43 0.53,-14.58 -1.43,-29.92 -0.37,-2.91 -2.03,-0.49 c -3.83,5.59 -11.92,14.46 -19.48,12.21 q -7.54,-2.25 -9.17,-10.65 -0.09,-0.45 -0.4,-0.12 l -8.13,8.34 q -1.59,1.64 -3.87,1.89 c -4.26,0.49 -6,-2.4 -6.18,-6.31 q -0.56,-12.65 0.38,-25.33 a 0.33,0.33 0 0 0 -0.47,-0.32 l -11.66,5.42 a 0.74,0.73 -11.5 0 0 -0.42,0.63 q -0.46,9.68 0.63,19.3 a 1.12,1.11 65.2 0 1 -0.34,0.93 l -7.8,7.47 q -1.68,1.61 -2.03,-0.69 c -1.22,-7.93 -0.52,-16.81 -0.27,-24.83 a 0.4,0.4 0 0 0 -0.49,-0.41 l -3.99,0.87 a 0.55,0.54 76.5 0 1 -0.65,-0.4 c -0.52,-2.1 3.88,-5.77 5.05,-6.84 a 1.4,1.38 73.3 0 0 0.45,-0.85 z"
         inkscape:connector-curvature="0"
         style="fill:#050505" />
      <path
         id="path18595"
         d="m 119.04,248.43 q -0.26,36.82 0.1,48.07 0.06,1.99 2.33,3.37 a 0.92,0.9 -44.5 0 0 0.95,0 l 3.48,-2.08 a 1.29,1.27 79.8 0 0 0.61,-0.89 q 0.33,-1.86 0.47,-6.15 0.55,-17.25 1.1,-34.53 a 1.85,1.79 -28.3 0 1 0.29,-0.91 q 2.66,-4.03 6.42,-6.81 1,-1.14 2.41,-1.38 a 0.53,0.53 0 0 1 0.62,0.45 l 0.33,2.24 q -0.07,10.57 -1.57,23.97 a 0.99,0.98 22.5 0 0 0.37,0.88 l 0.27,0.2 a 0.34,0.34 0 0 0 0.52,-0.14 q 4.15,-10.06 10.05,-19.22 4.64,-5.83 8.72,-12.05 2.92,-4.44 6.59,-6.14 2.31,-1.07 1.99,1.45 -1.44,11.45 -1.8,21.99 -0.71,16.53 0.04,33.03 c 0.09,1.86 1.29,5.66 2.77,6.09 q 2.7,0.78 0.69,2.74 -3.95,3.89 -7.94,6.72 -1.85,1.31 -3.61,-0.45 -1.49,-1.5 -1.62,-3.61 -1.33,-21.92 -0.03,-44.09 0.24,-4.14 -0.09,-6.25 -0.08,-0.51 -0.31,-0.05 -8.77,17.14 -15.66,35.08 c -1.28,3.34 -0.64,4.43 2.66,5.37 a 0.98,0.98 0 0 1 0.52,1.53 c -1.72,2.35 -6.55,7.58 -9.82,8 q -0.94,0.12 -1.86,0.27 -0.51,0.08 -0.91,0.39 l -5.81,4.39 q -1.18,0.9 -1.29,-0.58 -0.15,-2.01 0.95,-3.71 A 0.44,0.43 30 0 0 121.8,305 q -0.21,-0.11 -0.44,0.11 -3.22,3.09 -6.98,5.47 a 1.04,1.03 -51.8 0 1 -0.89,0.11 q -4.46,-1.47 -4.46,-6.26 0,-20.49 -0.1,-41 0,-0.87 -0.49,-0.14 l -6.13,9.26 q -0.91,1.38 0.74,1.4 l 4.41,0.07 q 0.78,0.01 0.36,0.66 -3.33,5.06 -8.37,8.25 c -2.05,1.29 -3.61,1.05 -5.94,1.25 a 1.05,1.04 12.5 0 0 -0.8,0.5 q -3.43,5.57 -8.18,10.01 a 1.46,1.43 -19.2 0 0 -0.46,0.93 q -0.88,8.63 0.34,17.25 a 1.34,1.33 -30.3 0 1 -0.27,1.01 q -3.27,4.17 -7.82,7.09 -2.53,1.63 -2.55,-1.38 -0.18,-30.34 1.43,-60.59 0.18,-3.38 -1.99,-9 c -1.29,-3.69 6.73,-9.27 8.8,-10.59 a 0.5,0.5 0 0 1 0.76,0.31 l 0.3,1.31 a 1.05,1.05 0 0 0 0.5,0.68 q 2.33,1.31 1.83,4.49 4.59,12.98 12.84,23.95 a 0.37,0.37 0 0 0 0.59,0 q 6.09,-8.26 10.33,-17.53 c -0.42,-2.75 -0.45,-4.84 1.62,-6.96 1.81,-1.86 11.8,-11.18 13.61,-10.61 a 0.46,0.46 0 0 1 0.27,0.64 c -2.23,4.27 -5.46,7.76 -5.62,12.74 z M 84.6,274.82 a 0.32,0.32 0 0 0 -0.58,0.2 l -0.05,14.89 a 0.32,0.32 0 0 0 0.57,0.2 l 5.85,-7.43 a 0.32,0.32 0 0 0 0,-0.39 z"
         inkscape:connector-curvature="0"
         style="fill:#050505" />
      <path
         id="path18597"
         d="m 109.16,252.62 q -4.24,9.27 -10.33,17.53 a 0.37,0.37 0 0 1 -0.59,0 Q 89.99,259.18 85.4,246.2 q 2.22,0.74 3.73,2.33 c 2.05,2.16 3.19,2.92 5.78,1.24 a 1.8,1.77 -62.6 0 1 0.92,-0.3 q 6.68,-0.26 13.33,3.15 z"
         inkscape:connector-curvature="0"
         style="fill:#ffffff" />
      <path
         id="path18599"
         d="m 134.79,248.5 q -3.76,2.78 -6.42,6.81 a 1.85,1.79 -28.3 0 0 -0.29,0.91 q -0.55,17.28 -1.1,34.53 -0.14,4.29 -0.47,6.15 a 1.29,1.27 79.8 0 1 -0.61,0.89 l -3.48,2.08 a 0.92,0.9 -44.5 0 1 -0.95,0 q -2.27,-1.38 -2.33,-3.37 -0.36,-11.25 -0.1,-48.07 3.52,0.71 6.38,-1.03 a 1.12,1.11 -50.6 0 1 0.94,-0.1 l 2.68,0.91 a 1.53,1.5 45.6 0 0 0.9,0.02 q 2.51,-0.71 4.85,0.27 z"
         inkscape:connector-curvature="0"
         style="fill:#ffffff" />
      <path
         id="path18601"
         d="m 138.15,249.81 q 3.74,3.77 8.78,4.58 a 0.87,0.85 84.7 0 1 0.68,0.58 l 0.18,0.53 q -5.9,9.16 -10.05,19.22 a 0.34,0.34 0 0 1 -0.52,0.14 l -0.27,-0.2 a 0.99,0.98 22.5 0 1 -0.37,-0.88 q 1.5,-13.4 1.57,-23.97 z"
         inkscape:connector-curvature="0"
         style="fill:#ffffff" />
      <path
         id="path18603"
         d="m 193.71,257.98 q 0.15,3.83 -3.96,5.19 -5.85,1.95 -8.23,2.56 a 0.4,0.4 0 0 1 -0.5,-0.39 l 0.02,-4.59 q 5.63,-4.02 12.67,-2.77 z"
         inkscape:connector-curvature="0"
         style="fill:#ffffff" />
      <path
         id="path18605"
         d="m 84.6,274.82 5.79,7.47 a 0.32,0.32 0 0 1 0,0.39 l -5.85,7.43 a 0.32,0.32 0 0 1 -0.57,-0.2 l 0.05,-14.89 a 0.32,0.32 0 0 1 0.58,-0.2 z"
         inkscape:connector-curvature="0"
         style="fill:#ffffff" />
    </g>
  </g>
</svg>
