<?xml version="1.0" encoding="UTF-8" standalone="no"?>
<!DOCTYPE svg PUBLIC "-//W3C//DTD SVG 1.1//EN" "http://www.w3.org/Graphics/SVG/1.1/DTD/svg11.dtd">
<svg xmlns="http://www.w3.org/2000/svg" version="1.1" viewBox="0 0 448 367">
<g stroke-width="2.00" fill="none" stroke-linecap="butt">
<path stroke="#ebebeb" vector-effect="non-scaling-stroke" d="
  M 302.94 367.00
  C 305.07 366.01 308.41 363.26 306.67 360.48
  A 1.37 1.35 33.4 0 1 306.48 359.60
  L 306.76 357.48
  A 1.16 1.16 0.0 0 0 306.59 356.72
  L 305.61 355.13
  A 0.69 0.69 0.0 0 1 305.72 354.26
  L 310.24 349.96
  A 0.79 0.78 -30.6 0 0 310.45 349.15
  Q 309.73 347.00 309.29 344.76
  C 308.79 342.19 307.46 340.81 306.16 338.69
  A 1.46 1.42 33.6 0 1 305.96 337.77
  Q 306.68 331.93 307.12 326.07
  C 307.48 321.37 305.38 316.05 304.86 311.21
  Q 304.42 307.16 303.50 302.88
  Q 301.71 294.58 302.36 285.99
  Q 302.49 284.30 301.05 280.39
  C 299.32 275.73 301.57 271.92 300.77 267.24
  A 1.50 1.46 53.6 0 1 300.90 266.31
  Q 302.15 263.71 301.77 262.00
  Q 300.01 254.29 300.80 246.49
  C 301.11 243.44 300.00 241.53 298.71 239.00"
/>
<path stroke="#848484" vector-effect="non-scaling-stroke" d="
  M 298.71 239.00
  C 298.83 235.29 301.09 226.69 294.50 227.21"
/>
<path stroke="#ebebeb" vector-effect="non-scaling-stroke" d="
  M 294.50 227.21
  C 293.16 223.92 293.75 220.61 292.87 217.68
  Q 292.08 215.06 291.06 212.46
  A 1.67 1.66 40.9 0 1 290.99 211.50
  L 292.77 203.82
  A 1.22 1.17 80.9 0 1 293.28 203.08
  L 296.11 201.18
  A 1.16 1.15 -13.0 0 0 296.62 200.37
  Q 297.09 196.76 296.77 193.16
  C 296.54 190.61 294.03 188.04 294.32 185.75
  Q 295.90 173.23 295.89 160.58
  Q 295.89 158.33 294.88 155.97
  C 292.59 150.57 293.85 144.47 292.76 138.63
  A 1.26 1.24 59.5 0 1 293.01 137.63
  L 295.26 134.75
  A 0.91 0.90 51.7 0 0 295.37 133.80
  C 292.67 128.16 293.44 124.50 295.58 118.88
  C 296.83 115.59 296.36 114.91 295.54 111.74
  Q 294.81 108.89 296.35 104.05"
/>
<path stroke="#848484" vector-effect="non-scaling-stroke" d="
  M 296.35 104.05
  C 306.48 95.17 313.24 87.13 314.99 73.74
  Q 315.06 73.24 315.33 73.67
  Q 316.41 75.32 317.06 77.19
  C 318.18 80.35 319.62 82.59 320.82 85.44
  A 1.06 1.06 0.0 0 1 320.76 86.39
  L 300.39 121.21
  Q 298.93 123.71 301.91 124.24
  C 304.25 124.65 315.77 113.71 314.96 112.45
  A 0.65 0.65 0.0 0 0 314.09 112.23
  L 311.04 114.00
  A 0.30 0.30 0.0 0 1 310.59 113.76
  C 310.43 111.14 319.51 97.47 321.37 94.25
  Q 321.94 93.28 321.96 94.40
  Q 322.12 101.56 321.90 109.07
  C 321.60 118.90 323.67 127.61 335.53 127.66
  Q 337.66 127.66 339.37 126.39
  Q 348.76 119.38 354.97 109.46
  A 0.93 0.93 0.0 0 1 355.78 109.02
  C 359.10 109.07 362.07 109.53 365.03 107.66
  Q 372.27 103.10 377.60 96.23
  Q 378.14 95.53 378.11 96.41
  Q 377.32 124.19 379.78 151.77
  Q 380.03 154.60 379.96 157.25
  A 1.48 1.47 -5.4 0 1 378.78 158.67
  C 372.03 160.09 365.84 160.37 360.59 155.17
  Q 353.98 148.62 353.76 139.36
  Q 353.74 138.66 353.16 139.05
  C 347.24 143.05 341.70 146.83 345.07 155.11
  Q 352.71 173.88 370.83 168.04
  C 377.82 165.79 385.63 158.41 388.62 151.71
  C 391.37 145.56 389.15 134.27 388.50 125.00
  Q 387.40 109.13 388.14 77.85
  C 388.30 70.92 389.58 63.03 389.82 55.50
  Q 389.90 53.25 387.89 54.28
  C 382.91 56.82 377.63 61.62 377.93 67.74
  C 378.51 79.54 377.58 87.50 371.49 97.76
  Q 370.22 99.89 367.80 99.30
  C 358.98 97.16 360.94 87.26 361.00 80.53
  A 0.32 0.32 0.0 0 0 360.53 80.25
  C 351.37 85.15 350.03 90.46 351.05 100.37
  Q 351.23 102.11 350.08 100.80
  Q 341.95 91.51 334.79 81.55
  C 332.05 77.75 332.58 75.52 334.89 71.86
  Q 345.88 54.42 359.33 38.70
  A 0.40 0.40 0.0 0 0 359.11 38.04
  C 354.49 37.08 338.88 59.10 336.19 63.28
  Q 334.60 65.76 334.91 62.83
  Q 335.22 60.01 336.38 55.41
  Q 339.54 42.84 343.09 30.25
  Q 343.23 29.77 342.75 29.93
  C 336.05 32.22 333.85 36.55 331.84 43.58
  Q 329.00 53.53 326.56 63.64
  Q 326.22 65.04 325.60 63.73
  C 324.00 60.38 324.05 54.10 323.73 50.29
  Q 323.51 47.70 320.91 47.92
  Q 316.64 48.27 313.16 50.63
  A 0.48 0.47 57.3 0 1 312.49 50.48
  Q 309.87 46.23 305.94 46.10
  Q 291.08 45.61 279.54 56.75"
/>
<path stroke="#ebebeb" vector-effect="non-scaling-stroke" d="
  M 279.54 56.75
  Q 276.77 54.87 273.50 53.96"
/>
<path stroke="#848484" vector-effect="non-scaling-stroke" d="
  M 273.50 53.96
  Q 274.95 52.05 274.75 49.79
  A 0.62 0.62 0.0 0 0 274.17 49.23
  L 268.75 48.96"
/>
<path stroke="#ebebeb" vector-effect="non-scaling-stroke" d="
  M 268.75 48.96
  L 268.13 46.89
  A 0.98 0.98 0.0 0 0 267.53 46.25
  C 261.74 44.13 259.58 41.82 256.20 36.65
  C 253.68 32.79 249.80 31.85 245.51 32.79
  A 0.78 0.78 0.0 0 1 244.73 32.53
  L 239.95 26.96
  A 1.26 1.26 0.0 0 0 239.06 26.52
  Q 235.28 26.30 231.56 26.97
  C 226.78 27.82 225.84 27.47 222.93 23.96
  A 1.12 1.11 49.0 0 0 221.32 23.84
  Q 218.59 26.28 215.04 27.18
  A 1.60 1.50 46.8 0 1 214.10 27.12
  Q 211.05 25.99 210.01 26.12
  Q 201.63 27.18 194.62 22.60
  A 0.88 0.88 0.0 0 0 193.69 22.58
  L 184.74 27.86
  A 1.38 1.37 -54.1 0 1 183.76 28.02
  L 180.10 27.25
  A 1.09 1.07 27.3 0 0 179.10 27.56
  L 175.04 31.84
  Q 174.65 32.25 174.14 32.45
  Q 169.69 34.21 165.04 32.90
  A 1.13 1.13 0.0 0 0 164.06 33.06
  C 157.49 37.69 149.12 45.32 146.50 52.96"
/>
<path stroke="#848484" vector-effect="non-scaling-stroke" d="
  M 146.50 52.96
  C 137.77 53.07 130.79 51.80 124.48 59.01
  Q 123.98 59.58 122.77 59.89
  A 0.50 0.50 0.0 0 1 122.18 59.57
  L 121.79 58.44
  A 0.61 0.60 65.6 0 0 120.92 58.11
  C 116.61 60.61 112.06 64.52 112.03 70.00
  Q 111.94 84.10 112.18 98.19
  C 112.39 110.05 116.35 118.99 129.50 119.54"
/>
<path stroke="#ebebeb" vector-effect="non-scaling-stroke" d="
  M 129.50 119.54
  C 132.35 124.56 133.74 132.06 127.25 134.71"
/>
<path stroke="#848484" vector-effect="non-scaling-stroke" d="
  M 127.25 134.71
  Q 120.14 135.83 113.92 139.51
  A 1.00 1.00 0.0 0 1 113.05 139.57
  C 109.71 138.20 101.13 148.13 99.08 150.60
  A 0.70 0.70 0.0 0 0 99.41 151.71
  L 100.00 151.89
  A 0.62 0.61 11.1 0 1 100.42 152.51
  Q 99.74 163.61 99.08 174.72
  C 98.57 183.18 94.29 191.52 89.66 198.47
  A 1.19 1.17 -78.0 0 1 88.89 198.98
  C 81.30 200.43 77.32 196.09 76.94 188.96
  Q 75.91 169.87 81.35 151.01
  Q 81.92 149.04 83.96 148.92
  Q 85.92 148.81 85.59 151.49
  Q 84.92 156.88 84.98 161.04
  Q 85.04 164.22 87.58 162.31
  C 94.44 157.15 96.39 153.81 96.22 145.03
  C 96.17 142.58 96.89 140.68 94.21 139.30
  C 92.75 138.55 88.84 139.05 87.10 140.11
  C 68.11 151.62 65.82 177.88 66.89 197.98
  Q 67.47 208.77 77.00 208.99
  C 85.02 209.18 94.60 198.38 98.83 192.24
  Q 99.62 191.11 99.77 192.48
  L 101.22 205.22
  A 0.57 0.57 0.0 0 0 101.99 205.69
  L 103.19 205.25
  A 0.57 0.57 0.0 0 1 103.95 205.70
  L 104.39 208.80
  Q 104.68 210.85 106.74 211.02
  C 120.57 212.11 129.37 205.00 138.20 195.27
  Q 138.54 194.90 138.69 195.38
  C 140.16 199.95 138.94 203.82 142.79 208.00"
/>
<path stroke="#ebebeb" vector-effect="non-scaling-stroke" d="
  M 142.79 208.00
  Q 140.47 214.92 140.22 222.24
  A 1.68 1.66 30.7 0 0 140.46 223.17
  Q 142.47 226.57 142.08 230.29"
/>
<path stroke="#848484" vector-effect="non-scaling-stroke" d="
  M 142.08 230.29
  C 134.22 228.61 128.97 232.45 122.70 236.05
  A 0.40 0.40 0.0 0 1 122.10 235.70
  L 121.96 220.90
  A 0.59 0.59 0.0 0 0 121.35 220.32
  Q 101.38 221.02 83.45 229.71
  C 62.59 239.81 46.52 261.60 50.97 285.53
  C 54.45 304.27 70.12 305.56 85.69 302.41
  C 97.36 300.04 103.23 292.00 111.62 284.02
  Q 111.98 283.68 111.97 284.18
  C 111.64 306.66 113.87 329.65 114.05 351.35
  Q 114.07 353.52 112.98 355.41
  Q 111.81 357.44 112.36 359.75
  A 1.25 1.25 0.0 0 0 114.33 360.47
  Q 119.25 356.76 123.22 352.05
  A 3.22 3.20 -25.0 0 0 123.96 350.03
  Q 124.15 322.70 122.08 297.19
  Q 121.82 294.01 122.13 290.65
  A 0.58 0.57 0.5 0 1 122.67 290.13
  C 132.40 289.63 143.03 279.02 144.54 270.00"
/>
<path stroke="#ebebeb" vector-effect="non-scaling-stroke" d="
  M 144.54 270.00
  Q 148.38 270.52 149.26 274.31
  A 0.88 0.87 -26.2 0 1 148.95 275.20
  L 147.58 276.29
  A 1.17 1.16 -19.3 0 0 147.14 277.20
  Q 147.13 283.46 150.83 288.38
  Q 151.84 289.72 151.97 291.40
  Q 152.48 298.25 153.25 305.07
  C 153.76 309.56 156.24 312.60 152.84 317.35
  A 0.98 0.97 53.2 0 0 152.72 318.24
  Q 155.92 326.92 156.33 331.58
  Q 156.51 333.59 154.26 336.73
  A 0.85 0.83 45.1 0 0 154.27 337.70
  L 155.97 340.06
  A 1.43 1.38 -65.3 0 1 156.24 340.83
  Q 156.52 346.58 152.55 350.60
  A 1.18 1.18 0.0 0 0 152.22 351.51
  Q 152.33 352.83 153.48 353.53
  A 0.83 0.82 22.8 0 1 153.86 354.44
  L 152.84 358.70
  Q 152.73 359.14 152.81 359.59
  C 153.16 361.68 153.09 366.71 155.69 367.00"
/>
<path stroke="#848484" vector-effect="non-scaling-stroke" d="
  M 103.97 23.40
  Q 104.37 27.76 103.37 31.58
  C 96.30 58.65 94.84 86.42 95.10 114.12
  Q 95.12 116.14 95.90 117.99
  Q 97.14 120.92 100.39 121.07
  A 1.43 1.39 -62.2 0 0 101.31 120.77
  C 103.41 119.15 110.81 112.77 110.94 109.64
  Q 110.97 108.95 110.36 109.30
  L 108.33 110.47
  A 1.46 1.45 60.5 0 1 106.33 109.91
  Q 105.19 107.87 105.14 105.56
  C 104.45 77.71 106.77 50.70 113.20 23.60
  C 113.96 20.38 113.99 17.26 114.14 13.96
  A 0.45 0.44 -0.0 0 0 113.66 13.49
  C 100.03 14.29 86.94 20.84 73.69 26.44
  C 71.32 27.44 65.38 31.64 64.83 35.03
  A 0.63 0.62 10.9 0 0 65.31 35.73
  L 66.47 36.00
  A 0.41 0.40 26.7 0 1 66.69 36.66
  L 65.82 37.64
  A 1.67 1.64 -23.5 0 0 65.42 38.63
  Q 63.45 79.21 68.87 119.45
  A 4.99 4.94 -37.7 0 1 68.52 122.08
  Q 67.87 123.61 68.61 125.01
  A 0.66 0.66 0.0 0 0 69.58 125.24
  Q 74.45 121.82 78.29 117.24
  Q 79.60 115.67 79.32 113.64
  Q 73.74 73.47 75.20 32.93
  A 0.89 0.87 78.3 0 1 75.69 32.17
  Q 88.86 25.66 103.31 22.90
  A 0.56 0.56 0.0 0 1 103.97 23.40"
/>
<path stroke="#707070" vector-effect="non-scaling-stroke" d="
  M 268.75 48.96
  C 254.53 49.21 238.31 54.67 232.34 68.58
  Q 226.36 82.50 222.70 97.79
  Q 222.29 99.52 220.55 99.90
  L 217.76 100.52
  Q 217.27 100.62 217.50 100.19
  C 226.72 82.78 231.18 65.86 228.25 45.78
  C 227.13 38.15 221.66 41.98 216.84 41.39
  A 1.40 1.38 31.8 0 0 215.92 41.60
  C 208.01 46.62 201.89 52.02 199.50 61.50
  Q 198.82 64.19 198.98 76.06
  C 199.09 83.84 195.78 92.19 192.87 99.31
  A 0.79 0.76 -79.7 0 1 192.19 99.80
  L 183.57 100.13
  A 0.38 0.37 -80.0 0 1 183.21 99.60
  C 189.04 85.78 198.00 60.99 193.87 46.29
  A 1.97 1.96 79.8 0 0 191.82 44.86
  C 181.47 45.70 169.28 50.29 162.96 58.97
  Q 162.32 59.85 162.42 60.84
  A 0.40 0.39 -17.7 0 0 163.01 61.14
  Q 171.90 56.21 181.99 54.74
  A 1.92 1.92 0.0 0 1 184.14 56.21
  C 187.00 68.70 181.05 86.75 176.54 98.52
  Q 176.15 99.54 176.12 98.45
  L 175.94 92.88
  A 0.82 0.81 -80.6 0 0 175.41 92.13
  Q 174.68 91.86 174.01 92.55
  Q 172.91 93.65 172.98 91.75
  L 174.19 59.56
  A 1.22 1.22 0.0 0 0 172.41 58.43
  C 169.07 60.17 164.54 64.12 164.30 68.38
  C 163.48 82.79 162.45 97.29 163.67 111.69
  A 1.00 0.97 -23.3 0 1 163.33 112.51
  C 157.67 117.27 152.09 123.15 154.07 131.38
  A 1.15 1.14 -9.1 0 0 155.28 132.25
  C 162.30 131.74 173.30 118.24 176.86 112.61
  C 179.52 108.42 183.84 107.48 186.98 111.95
  Q 188.61 114.27 187.77 116.97
  Q 183.62 130.29 185.09 144.23
  A 0.68 0.67 -18.7 0 0 186.11 144.73
  C 190.72 141.95 200.34 134.28 200.04 128.25
  Q 199.89 125.12 200.09 121.91
  A 1.17 1.13 74.7 0 1 200.56 121.06
  Q 206.64 116.69 211.10 110.63
  A 1.61 1.57 8.5 0 1 211.89 110.06
  C 214.49 109.26 219.78 107.32 219.02 112.75
  Q 218.58 115.90 218.10 131.00
  Q 218.01 133.97 218.91 136.45
  A 0.79 0.78 -24.0 0 0 220.01 136.87
  C 233.96 129.66 231.38 117.60 230.26 104.50
  C 230.22 104.01 230.36 94.66 231.51 94.75
  A 0.20 0.20 0.0 0 1 231.68 94.92
  C 231.86 96.58 234.61 112.09 235.52 112.08
  A 3.36 3.35 -65.7 0 0 237.65 111.27
  Q 242.00 107.54 244.50 108.01
  C 246.19 108.32 259.05 108.87 264.65 106.18
  A 0.70 0.69 55.8 0 1 265.46 106.34
  Q 269.41 110.71 275.35 110.96
  A 0.65 0.64 1.0 0 1 275.97 111.59
  Q 276.28 138.32 274.30 164.97
  A 0.26 0.26 0.0 0 0 274.67 165.22
  C 281.85 161.88 284.72 156.91 285.13 148.91
  Q 286.13 129.44 286.06 109.95
  A 0.82 0.81 76.0 0 1 286.49 109.23
  L 296.35 104.05"
/>
<path stroke="#707070" vector-effect="non-scaling-stroke" d="
  M 294.50 227.21
  Q 281.53 227.65 268.48 227.96
  C 262.57 228.10 258.55 231.57 255.83 236.55
  A 0.67 0.66 29.7 0 0 256.08 237.45
  Q 257.16 238.08 258.41 238.00
  A 0.50 0.47 62.7 0 1 258.75 238.12
  L 258.94 238.31
  A 0.35 0.35 0.0 0 1 258.87 238.87
  C 250.84 243.44 251.08 249.22 250.98 258.63
  C 250.90 266.42 249.27 282.57 254.92 288.52
  A 0.63 0.62 51.3 0 0 255.71 288.61
  Q 261.15 285.08 264.69 279.70
  A 0.68 0.68 0.0 0 0 264.63 278.87
  Q 261.26 275.22 261.25 270.27
  C 261.23 260.00 260.82 250.16 261.89 239.55
  A 2.00 1.99 2.0 0 1 263.82 237.75
  L 287.12 237.12
  A 1.54 1.54 0.0 0 1 288.68 238.37
  Q 289.88 244.49 287.30 250.05
  Q 280.48 264.74 273.39 278.87
  A 3.91 3.89 -88.8 0 1 271.51 280.68
  C 261.73 285.19 250.45 295.19 250.21 306.79
  Q 250.16 309.00 252.12 307.98
  C 259.66 304.08 265.91 296.65 271.98 290.11
  Q 273.38 288.60 275.35 289.20
  C 283.19 291.59 286.28 310.50 286.99 317.15
  C 287.44 321.36 286.87 323.70 285.02 327.29
  Q 284.52 328.26 285.17 328.73
  A 0.78 0.77 46.5 0 0 286.04 328.76
  C 301.68 318.96 297.57 302.10 292.18 287.79
  Q 288.75 278.67 279.53 278.78
  A 0.30 0.30 0.0 0 1 279.26 278.35
  L 298.71 239.00"
/>
<path stroke="#707070" vector-effect="non-scaling-stroke" d="
  M 144.54 270.00
  Q 145.38 260.85 144.95 252.39
  Q 144.83 250.14 146.62 248.76
  Q 151.64 244.92 157.64 242.95
  A 1.23 1.22 49.4 0 1 158.61 243.03
  C 160.93 244.25 160.18 246.04 158.85 247.77
  C 155.38 252.26 152.88 255.01 152.89 260.50
  C 152.93 270.86 156.38 275.07 161.08 283.89
  Q 162.00 285.61 160.90 287.24
  Q 159.00 290.06 159.03 293.40
  A 0.78 0.78 0.0 0 0 159.61 294.14
  C 172.99 297.89 194.10 288.39 202.44 277.75
  C 202.74 277.37 202.84 276.90 202.93 276.44
  Q 203.18 275.24 202.11 275.85
  C 193.39 280.90 184.42 284.83 174.17 285.28
  A 0.78 0.77 12.0 0 1 173.44 284.16
  Q 175.05 280.94 173.00 277.92
  A 1.17 1.16 -41.6 0 1 173.09 276.50
  C 175.29 273.93 177.31 271.47 179.97 269.17
  C 185.38 264.51 192.16 258.56 194.98 251.86
  Q 195.89 249.70 193.55 249.87
  Q 186.03 250.43 178.29 252.92
  C 175.71 253.74 174.00 255.26 171.59 256.57
  A 0.40 0.39 -14.8 0 1 171.00 256.23
  L 171.00 244.13
  A 0.76 0.74 79.1 0 1 171.46 243.43
  Q 181.23 239.37 191.79 238.88
  A 0.94 0.92 -17.5 0 1 192.63 239.31
  C 193.36 240.45 191.81 241.44 192.35 242.01
  A 0.67 0.66 -35.5 0 0 193.16 242.14
  C 195.95 240.62 204.25 233.84 203.38 230.18
  A 1.92 1.91 -8.3 0 0 201.41 228.72
  Q 185.77 229.59 172.33 237.36
  Q 171.51 237.83 170.89 237.94
  A 0.79 0.79 0.0 0 1 169.97 237.05
  Q 170.31 234.81 168.70 233.30
  A 1.25 1.24 64.1 0 0 167.76 232.97
  C 160.57 233.43 151.34 240.80 145.60 245.75
  Q 145.23 246.07 145.15 245.58
  C 144.23 240.14 143.59 235.64 142.08 230.29"
/>
<path stroke="#707070" vector-effect="non-scaling-stroke" d="
  M 142.79 208.00
  Q 152.44 214.70 162.00 207.99
  Q 178.23 196.60 182.41 177.22
  Q 182.53 176.65 182.83 177.16
  C 183.65 178.55 183.19 194.45 183.43 197.64
  A 1.77 1.71 -33.0 0 1 183.20 198.64
  L 176.41 210.52
  A 1.07 1.06 19.4 0 0 177.17 212.10
  C 179.05 212.39 184.63 205.78 186.08 204.23
  A 0.37 0.37 0.0 0 1 186.69 204.34
  C 189.66 211.74 197.74 202.13 199.95 199.16
  A 1.09 1.09 0.0 0 0 199.70 197.62
  Q 195.76 194.92 194.14 190.41
  A 0.98 0.97 52.4 0 1 194.25 189.53
  L 212.19 162.24
  Q 213.98 159.52 213.97 162.78
  C 213.96 168.54 211.92 196.07 218.67 198.73
  C 222.67 200.31 228.80 192.93 230.99 190.13
  Q 232.38 188.35 230.19 188.90
  C 225.09 190.17 224.41 182.47 224.30 178.75
  Q 223.86 165.17 224.02 151.61
  Q 224.03 150.70 223.30 151.24
  L 218.53 154.76
  Q 217.61 155.43 218.33 154.55
  C 219.06 153.64 223.32 148.90 223.00 148.09
  A 0.51 0.50 66.8 0 0 222.32 147.81
  Q 218.05 149.81 214.65 153.91
  Q 203.04 167.93 194.06 182.58
  Q 193.01 184.29 193.01 182.28
  L 193.00 149.95
  Q 193.00 146.60 190.64 148.99
  L 183.70 156.04
  Q 183.41 156.32 183.31 155.93
  C 180.72 145.91 168.41 141.75 159.24 141.98
  C 151.22 142.18 144.19 150.97 136.20 158.47
  Q 133.77 160.75 129.75 159.96"
/>
<path stroke="#ebebeb" vector-effect="non-scaling-stroke" d="
  M 129.75 159.96
  Q 130.37 154.60 129.31 149.28
  A 0.57 0.57 0.0 0 0 129.04 148.90
  L 128.79 148.75"
/>
<path stroke="#707070" vector-effect="non-scaling-stroke" d="
  M 128.79 148.75
  Q 131.64 142.69 130.99 136.04
  A 1.01 1.01 0.0 0 0 130.50 135.27
  Q 129.06 134.42 127.25 134.71"
/>
<path stroke="#707070" vector-effect="non-scaling-stroke" d="
  M 129.50 119.54
  C 134.79 119.05 137.08 116.73 141.74 112.82
  C 155.21 101.54 159.61 86.57 159.24 69.61
  C 159.05 60.74 155.44 54.75 146.50 52.96"
/>
<path stroke="#707070" vector-effect="non-scaling-stroke" d="
  M 201.8415 137.4957
  A 0.99 0.99 0.0 0 0 201.8366 136.0957
  L 201.7940 136.0534
  A 0.99 0.99 0.0 0 0 200.3940 136.0583
  L 193.1785 143.3243
  A 0.99 0.99 0.0 0 0 193.1834 144.7243
  L 193.2260 144.7666
  A 0.99 0.99 0.0 0 0 194.6260 144.7617
  L 201.8415 137.4957"
/>
<path stroke="#707070" vector-effect="non-scaling-stroke" d="
  M 215.38 255.57
  L 216.14 238.27
  A 1.05 1.05 0.0 0 0 214.66 237.27
  C 210.60 239.13 205.92 243.17 205.71 248.10
  Q 204.89 267.29 205.18 286.48
  C 205.23 289.97 205.77 293.47 207.11 296.32
  A 1.42 1.42 0.0 0 0 209.27 296.82
  C 211.79 294.84 221.23 287.96 216.47 284.53
  A 1.32 1.29 -76.7 0 1 215.95 283.66
  Q 214.65 274.11 215.06 264.46
  A 0.61 0.60 -6.8 0 1 215.50 263.91
  Q 223.66 261.42 230.92 256.93
  Q 231.79 256.39 231.78 257.42
  C 231.67 268.59 230.43 282.76 233.13 293.51
  A 1.05 1.05 0.0 0 0 234.64 294.18
  Q 239.59 291.53 242.94 287.03
  A 2.63 2.62 54.7 0 0 243.34 284.66
  C 242.84 283.08 242.26 281.42 242.19 279.69
  Q 241.63 265.33 241.78 249.67
  A 2.87 2.86 -17.6 0 1 242.98 247.36
  Q 245.50 245.56 246.83 242.76
  Q 247.48 241.39 246.16 242.13
  Q 244.10 243.29 242.49 245.02
  Q 241.77 245.80 241.76 244.73
  L 241.72 230.82
  Q 241.71 228.05 239.59 229.83
  L 233.71 234.78
  Q 231.76 236.41 231.76 238.95
  L 231.74 250.31
  A 1.45 1.45 0.0 0 1 230.79 251.67
  Q 223.44 254.33 215.81 255.94
  A 0.36 0.35 85.1 0 1 215.38 255.57"
/>
<path stroke="#707070" vector-effect="non-scaling-stroke" d="
  M 273.50 53.96
  Q 270.58 57.26 266.85 59.46
  A 1.33 1.31 -55.1 0 1 265.93 59.63
  Q 255.58 57.76 245.63 61.02
  A 0.88 0.87 -9.3 0 0 245.03 61.85
  L 245.00 71.32
  A 0.92 0.92 0.0 0 0 246.02 72.24
  Q 256.01 71.21 265.75 68.98
  Q 266.40 68.83 268.39 69.07
  A 0.63 0.62 2.3 0 1 268.93 69.65
  C 269.08 72.10 264.37 76.05 262.31 77.54
  Q 260.66 78.74 258.29 79.01
  Q 251.87 79.72 245.48 81.24
  A 0.64 0.64 0.0 0 0 244.99 81.86
  L 245.01 96.47
  A 0.86 0.86 0.0 0 0 245.77 97.32
  Q 254.36 98.26 262.97 97.96
  A 0.81 0.81 0.0 0 0 263.71 97.41
  C 266.24 90.19 271.26 84.18 276.49 78.88
  A 1.43 1.40 -20.1 0 0 276.90 78.02
  C 277.30 73.85 276.80 64.44 278.95 61.26
  Q 279.35 60.66 278.68 60.91
  Q 278.24 61.06 277.93 61.45
  A 0.61 0.61 0.0 0 1 277.07 61.53
  C 275.89 60.54 278.85 57.51 279.54 56.75"
/>
<path stroke="#707070" vector-effect="non-scaling-stroke" d="
  M 217.82 53.19
  A 1.79 1.57 -87.0 0 0 216.24 54.82
  Q 214.58 72.17 215.07 89.63
  Q 215.09 90.12 215.49 89.85
  Q 215.71 89.70 215.82 89.32
  Q 220.64 72.19 218.45 54.98
  Q 218.22 53.19 217.82 53.19"
/>
<path stroke="#848484" vector-effect="non-scaling-stroke" d="
  M 288.02 57.99
  C 288.04 62.22 287.74 65.00 287.20 68.57
  Q 287.12 69.10 287.51 68.73
  Q 293.56 63.20 300.29 58.49
  Q 301.92 57.36 300.00 56.84
  Q 294.21 55.29 288.53 57.27
  A 0.76 0.74 -10.3 0 0 288.02 57.99"
/>
<path stroke="#707070" vector-effect="non-scaling-stroke" d="
  M 287.11 77.13
  Q 287.14 88.75 286.05 100.03
  A 0.43 0.43 0.0 0 0 286.53 100.50
  L 293.50 99.54"
/>
<path stroke="#848484" vector-effect="non-scaling-stroke" d="
  M 293.50 99.54
  C 308.57 97.29 305.06 71.12 302.95 61.41
  A 0.36 0.36 0.0 0 0 302.38 61.20
  L 287.72 72.03
  A 1.19 1.18 -17.7 0 0 287.25 72.93
  L 287.11 77.13"
/>
<path stroke="#ebebeb" vector-effect="non-scaling-stroke" d="
  M 293.50 99.54
  Q 292.94 94.68 291.46 90.01
  C 290.64 87.44 292.12 83.36 290.38 80.42
  Q 289.19 78.39 287.11 77.13"
/>
<path stroke="#707070" vector-effect="non-scaling-stroke" d="
  M 275.96 83.90
  C 273.81 87.44 272.76 94.96 276.08 97.48
  Q 276.63 97.89 276.66 97.20
  L 277.08 84.23
  Q 277.16 81.93 275.96 83.90"
/>
<path stroke="#707070" vector-effect="non-scaling-stroke" d="
  M 200.63 99.91
  Q 198.21 104.98 199.27 110.51
  A 1.16 1.16 0.0 0 0 201.03 111.27
  L 203.54 109.67
  A 0.69 0.68 67.4 0 0 203.84 108.92
  L 201.66 100.02
  Q 201.30 98.51 200.63 99.91"
/>
<path stroke="#848484" vector-effect="non-scaling-stroke" d="
  M 344.91 117.40
  L 345.62 116.03
  A 0.65 0.64 32.5 0 0 345.44 115.22
  Q 337.84 109.29 332.51 101.21
  Q 332.18 100.71 332.10 101.30
  C 330.95 109.94 334.30 117.37 343.88 117.98
  A 1.07 1.07 0.0 0 0 344.91 117.40"
/>
<path stroke="#707070" vector-effect="non-scaling-stroke" d="
  M 170.65 112.36
  C 166.09 113.40 162.66 116.60 163.94 121.38
  Q 164.48 123.37 165.81 121.80
  Q 169.22 117.77 170.99 112.75
  Q 171.17 112.24 170.65 112.36"
/>
<path stroke="#707070" vector-effect="non-scaling-stroke" d="
  M 128.79 104.00
  Q 133.52 111.27 141.76 108.47
  A 1.55 1.52 -81.3 0 0 142.52 107.90
  C 148.39 99.39 149.55 86.48 149.21 76.28
  Q 148.90 67.06 139.79 63.75"
/>
<path stroke="#848484" vector-effect="non-scaling-stroke" d="
  M 139.79 63.75
  Q 132.69 62.33 126.02 63.13
  A 1.44 1.44 0.0 0 0 124.76 64.41
  Q 123.39 77.82 124.08 91.19
  Q 124.42 97.64 128.79 104.00"
/>
<path stroke="#ebebeb" vector-effect="non-scaling-stroke" d="
  M 139.79 63.75
  L 139.59 64.67
  Q 139.49 65.16 139.16 65.55
  L 133.25 72.37
  Q 131.56 74.31 132.58 76.68
  Q 135.28 82.90 132.09 88.79
  A 1.73 1.71 46.8 0 0 132.05 90.34
  Q 136.02 98.81 128.79 104.00"
/>
<path stroke="#848484" vector-effect="non-scaling-stroke" d="
  M 128.79 148.75
  L 123.29 160.23
  Q 123.11 160.63 123.54 160.58
  L 129.75 159.96"
/>
<path stroke="#848484" vector-effect="non-scaling-stroke" d="
  M 113.30 146.51
  C 112.93 149.47 113.12 152.44 112.64 155.08
  Q 111.50 161.28 110.06 167.46
  Q 109.95 167.95 110.38 167.70
  C 116.90 163.95 121.84 153.49 120.91 145.52
  A 0.74 0.73 83.3 0 0 120.10 144.88
  L 114.34 145.50
  A 1.18 1.17 0.6 0 0 113.30 146.51"
/>
<path stroke="#707070" vector-effect="non-scaling-stroke" d="
  M 173.77 168.50
  C 173.32 158.64 163.70 153.17 155.00 152.11
  A 0.65 0.64 -76.2 0 0 154.32 152.53
  C 150.17 163.73 149.96 174.47 149.53 186.24
  A 1.09 1.08 22.5 0 0 149.88 187.08
  C 154.58 191.37 166.13 192.84 171.44 188.83
  A 1.28 1.27 -13.3 0 0 171.93 188.04
  Q 174.11 175.85 173.77 168.50"
/>
<path stroke="#848484" vector-effect="non-scaling-stroke" d="
  M 123.24 170.25
  C 115.61 168.57 113.90 174.59 109.30 179.20
  A 1.18 1.17 63.3 0 0 108.97 180.21
  L 110.17 187.75
  Q 110.32 188.69 110.83 187.89
  Q 116.56 178.97 123.48 170.97
  A 0.44 0.44 0.0 0 0 123.24 170.25"
/>
<path stroke="#848484" vector-effect="non-scaling-stroke" d="
  M 116.01 201.16
  Q 122.79 201.60 129.12 199.21
  Q 131.36 198.36 131.72 195.99
  Q 133.65 183.13 128.24 171.50
  A 0.59 0.59 0.0 0 0 127.25 171.37
  C 120.87 178.89 113.67 188.63 113.97 199.06
  Q 114.03 201.04 116.01 201.16"
/>
<path stroke="#707070" vector-effect="non-scaling-stroke" d="
  M 109.35 173.88
  Q 110.18 174.15 110.25 173.05
  Q 110.29 172.55 109.85 172.79
  L 109.28 173.11
  Q 108.43 173.58 109.35 173.88"
/>
<path stroke="#707070" vector-effect="non-scaling-stroke" d="
  M 160.35 200.79
  C 166.55 202.50 168.97 197.84 170.54 192.73
  Q 170.69 192.23 170.28 192.54
  C 166.59 195.31 164.85 198.52 160.32 200.28
  Q 159.57 200.57 160.35 200.79"
/>
<path stroke="#848484" vector-effect="non-scaling-stroke" d="
  M 84.11 236.51
  L 82.86 253.42
  A 0.39 0.39 0.0 0 0 83.41 253.80
  C 92.48 249.58 101.81 245.79 111.51 245.70
  A 0.50 0.50 0.0 0 0 112.00 245.20
  L 112.00 230.72
  A 0.52 0.51 88.9 0 0 111.47 230.20
  Q 97.65 230.71 84.76 235.64
  A 1.02 1.02 0.0 0 0 84.11 236.51"
/>
<path stroke="#848484" vector-effect="non-scaling-stroke" d="
  M 73.35 240.05
  C 63.76 246.31 59.61 258.82 60.33 269.32
  C 60.99 278.90 62.29 286.54 71.37 291.73
  A 0.28 0.27 16.3 0 0 71.78 291.51
  L 72.94 266.78
  A 0.33 0.33 0.0 0 0 72.50 266.45
  L 70.96 266.96
  A 0.79 0.79 0.0 0 1 70.27 266.86
  L 70.06 266.71
  A 0.54 0.53 -51.9 0 1 69.97 265.92
  L 72.29 263.22
  A 2.18 2.15 67.5 0 0 72.82 261.91
  L 74.06 240.45
  Q 74.11 239.55 73.35 240.05"
/>
<path stroke="#848484" vector-effect="non-scaling-stroke" d="
  M 130.58 239.98
  Q 126.39 239.76 122.59 241.29
  A 0.82 0.81 -11.4 0 0 122.08 242.04
  L 121.96 269.51
  Q 121.96 270.21 122.42 269.68
  L 134.74 255.71
  A 1.20 1.18 61.4 0 0 135.02 254.73
  L 133.18 242.34
  Q 132.85 240.09 130.58 239.98"
/>
<path stroke="#848484" vector-effect="non-scaling-stroke" d="
  M 107.20 261.02
  C 104.57 251.56 89.47 257.46 83.68 260.23
  A 1.03 1.02 80.0 0 0 83.10 261.07
  Q 81.80 276.43 82.43 291.82
  Q 82.50 293.73 84.42 293.60
  Q 88.93 293.30 94.42 292.31
  C 110.23 289.45 110.57 273.16 107.20 261.02"
/>
<path stroke="#707070" vector-effect="non-scaling-stroke" d="
  M 177.82 267.53
  Q 181.66 264.16 184.95 260.20
  Q 185.38 259.68 184.71 259.76
  Q 177.93 260.58 171.35 262.44
  A 0.74 0.72 -11.0 0 0 170.82 263.21
  L 171.76 272.45
  Q 171.84 273.30 172.51 272.76
  C 174.45 271.15 176.11 269.03 177.82 267.53"
/>
<path stroke="#848484" vector-effect="non-scaling-stroke" d="
  M 126.79 279.60
  L 131.75 280.12
  Q 134.90 280.45 134.92 277.28
  L 135.04 261.03
  Q 135.04 260.28 134.50 260.81
  C 129.91 265.35 123.40 271.09 125.26 278.28
  A 1.78 1.77 85.7 0 0 126.79 279.60"
/>
<path stroke="#707070" vector-effect="non-scaling-stroke" d="
  M 266.76 289.72
  C 262.65 289.30 260.17 292.79 260.94 296.66
  Q 261.13 297.61 261.74 296.86
  L 267.04 290.40
  Q 267.53 289.80 266.76 289.72"
/>
</g>
<path fill="#ffffff" d="
  M 0.00 0.00
  L 448.00 0.00
  L 448.00 367.00
  L 302.94 367.00
  C 305.07 366.01 308.41 363.26 306.67 360.48
  A 1.37 1.35 33.4 0 1 306.48 359.60
  L 306.76 357.48
  A 1.16 1.16 0.0 0 0 306.59 356.72
  L 305.61 355.13
  A 0.69 0.69 0.0 0 1 305.72 354.26
  L 310.24 349.96
  A 0.79 0.78 -30.6 0 0 310.45 349.15
  Q 309.73 347.00 309.29 344.76
  C 308.79 342.19 307.46 340.81 306.16 338.69
  A 1.46 1.42 33.6 0 1 305.96 337.77
  Q 306.68 331.93 307.12 326.07
  C 307.48 321.37 305.38 316.05 304.86 311.21
  Q 304.42 307.16 303.50 302.88
  Q 301.71 294.58 302.36 285.99
  Q 302.49 284.30 301.05 280.39
  C 299.32 275.73 301.57 271.92 300.77 267.24
  A 1.50 1.46 53.6 0 1 300.90 266.31
  Q 302.15 263.71 301.77 262.00
  Q 300.01 254.29 300.80 246.49
  C 301.11 243.44 300.00 241.53 298.71 239.00
  C 298.83 235.29 301.09 226.69 294.50 227.21
  C 293.16 223.92 293.75 220.61 292.87 217.68
  Q 292.08 215.06 291.06 212.46
  A 1.67 1.66 40.9 0 1 290.99 211.50
  L 292.77 203.82
  A 1.22 1.17 80.9 0 1 293.28 203.08
  L 296.11 201.18
  A 1.16 1.15 -13.0 0 0 296.62 200.37
  Q 297.09 196.76 296.77 193.16
  C 296.54 190.61 294.03 188.04 294.32 185.75
  Q 295.90 173.23 295.89 160.58
  Q 295.89 158.33 294.88 155.97
  C 292.59 150.57 293.85 144.47 292.76 138.63
  A 1.26 1.24 59.5 0 1 293.01 137.63
  L 295.26 134.75
  A 0.91 0.90 51.7 0 0 295.37 133.80
  C 292.67 128.16 293.44 124.50 295.58 118.88
  C 296.83 115.59 296.36 114.91 295.54 111.74
  Q 294.81 108.89 296.35 104.05
  C 306.48 95.17 313.24 87.13 314.99 73.74
  Q 315.06 73.24 315.33 73.67
  Q 316.41 75.32 317.06 77.19
  C 318.18 80.35 319.62 82.59 320.82 85.44
  A 1.06 1.06 0.0 0 1 320.76 86.39
  L 300.39 121.21
  Q 298.93 123.71 301.91 124.24
  C 304.25 124.65 315.77 113.71 314.96 112.45
  A 0.65 0.65 0.0 0 0 314.09 112.23
  L 311.04 114.00
  A 0.30 0.30 0.0 0 1 310.59 113.76
  C 310.43 111.14 319.51 97.47 321.37 94.25
  Q 321.94 93.28 321.96 94.40
  Q 322.12 101.56 321.90 109.07
  C 321.60 118.90 323.67 127.61 335.53 127.66
  Q 337.66 127.66 339.37 126.39
  Q 348.76 119.38 354.97 109.46
  A 0.93 0.93 0.0 0 1 355.78 109.02
  C 359.10 109.07 362.07 109.53 365.03 107.66
  Q 372.27 103.10 377.60 96.23
  Q 378.14 95.53 378.11 96.41
  Q 377.32 124.19 379.78 151.77
  Q 380.03 154.60 379.96 157.25
  A 1.48 1.47 -5.4 0 1 378.78 158.67
  C 372.03 160.09 365.84 160.37 360.59 155.17
  Q 353.98 148.62 353.76 139.36
  Q 353.74 138.66 353.16 139.05
  C 347.24 143.05 341.70 146.83 345.07 155.11
  Q 352.71 173.88 370.83 168.04
  C 377.82 165.79 385.63 158.41 388.62 151.71
  C 391.37 145.56 389.15 134.27 388.50 125.00
  Q 387.40 109.13 388.14 77.85
  C 388.30 70.92 389.58 63.03 389.82 55.50
  Q 389.90 53.25 387.89 54.28
  C 382.91 56.82 377.63 61.62 377.93 67.74
  C 378.51 79.54 377.58 87.50 371.49 97.76
  Q 370.22 99.89 367.80 99.30
  C 358.98 97.16 360.94 87.26 361.00 80.53
  A 0.32 0.32 0.0 0 0 360.53 80.25
  C 351.37 85.15 350.03 90.46 351.05 100.37
  Q 351.23 102.11 350.08 100.80
  Q 341.95 91.51 334.79 81.55
  C 332.05 77.75 332.58 75.52 334.89 71.86
  Q 345.88 54.42 359.33 38.70
  A 0.40 0.40 0.0 0 0 359.11 38.04
  C 354.49 37.08 338.88 59.10 336.19 63.28
  Q 334.60 65.76 334.91 62.83
  Q 335.22 60.01 336.38 55.41
  Q 339.54 42.84 343.09 30.25
  Q 343.23 29.77 342.75 29.93
  C 336.05 32.22 333.85 36.55 331.84 43.58
  Q 329.00 53.53 326.56 63.64
  Q 326.22 65.04 325.60 63.73
  C 324.00 60.38 324.05 54.10 323.73 50.29
  Q 323.51 47.70 320.91 47.92
  Q 316.64 48.27 313.16 50.63
  A 0.48 0.47 57.3 0 1 312.49 50.48
  Q 309.87 46.23 305.94 46.10
  Q 291.08 45.61 279.54 56.75
  Q 276.77 54.87 273.50 53.96
  Q 274.95 52.05 274.75 49.79
  A 0.62 0.62 0.0 0 0 274.17 49.23
  L 268.75 48.96
  L 268.13 46.89
  A 0.98 0.98 0.0 0 0 267.53 46.25
  C 261.74 44.13 259.58 41.82 256.20 36.65
  C 253.68 32.79 249.80 31.85 245.51 32.79
  A 0.78 0.78 0.0 0 1 244.73 32.53
  L 239.95 26.96
  A 1.26 1.26 0.0 0 0 239.06 26.52
  Q 235.28 26.30 231.56 26.97
  C 226.78 27.82 225.84 27.47 222.93 23.96
  A 1.12 1.11 49.0 0 0 221.32 23.84
  Q 218.59 26.28 215.04 27.18
  A 1.60 1.50 46.8 0 1 214.10 27.12
  Q 211.05 25.99 210.01 26.12
  Q 201.63 27.18 194.62 22.60
  A 0.88 0.88 0.0 0 0 193.69 22.58
  L 184.74 27.86
  A 1.38 1.37 -54.1 0 1 183.76 28.02
  L 180.10 27.25
  A 1.09 1.07 27.3 0 0 179.10 27.56
  L 175.04 31.84
  Q 174.65 32.25 174.14 32.45
  Q 169.69 34.21 165.04 32.90
  A 1.13 1.13 0.0 0 0 164.06 33.06
  C 157.49 37.69 149.12 45.32 146.50 52.96
  C 137.77 53.07 130.79 51.80 124.48 59.01
  Q 123.98 59.58 122.77 59.89
  A 0.50 0.50 0.0 0 1 122.18 59.57
  L 121.79 58.44
  A 0.61 0.60 65.6 0 0 120.92 58.11
  C 116.61 60.61 112.06 64.52 112.03 70.00
  Q 111.94 84.10 112.18 98.19
  C 112.39 110.05 116.35 118.99 129.50 119.54
  C 132.35 124.56 133.74 132.06 127.25 134.71
  Q 120.14 135.83 113.92 139.51
  A 1.00 1.00 0.0 0 1 113.05 139.57
  C 109.71 138.20 101.13 148.13 99.08 150.60
  A 0.70 0.70 0.0 0 0 99.41 151.71
  L 100.00 151.89
  A 0.62 0.61 11.1 0 1 100.42 152.51
  Q 99.74 163.61 99.08 174.72
  C 98.57 183.18 94.29 191.52 89.66 198.47
  A 1.19 1.17 -78.0 0 1 88.89 198.98
  C 81.30 200.43 77.32 196.09 76.94 188.96
  Q 75.91 169.87 81.35 151.01
  Q 81.92 149.04 83.96 148.92
  Q 85.92 148.81 85.59 151.49
  Q 84.92 156.88 84.98 161.04
  Q 85.04 164.22 87.58 162.31
  C 94.44 157.15 96.39 153.81 96.22 145.03
  C 96.17 142.58 96.89 140.68 94.21 139.30
  C 92.75 138.55 88.84 139.05 87.10 140.11
  C 68.11 151.62 65.82 177.88 66.89 197.98
  Q 67.47 208.77 77.00 208.99
  C 85.02 209.18 94.60 198.38 98.83 192.24
  Q 99.62 191.11 99.77 192.48
  L 101.22 205.22
  A 0.57 0.57 0.0 0 0 101.99 205.69
  L 103.19 205.25
  A 0.57 0.57 0.0 0 1 103.95 205.70
  L 104.39 208.80
  Q 104.68 210.85 106.74 211.02
  C 120.57 212.11 129.37 205.00 138.20 195.27
  Q 138.54 194.90 138.69 195.38
  C 140.16 199.95 138.94 203.82 142.79 208.00
  Q 140.47 214.92 140.22 222.24
  A 1.68 1.66 30.7 0 0 140.46 223.17
  Q 142.47 226.57 142.08 230.29
  C 134.22 228.61 128.97 232.45 122.70 236.05
  A 0.40 0.40 0.0 0 1 122.10 235.70
  L 121.96 220.90
  A 0.59 0.59 0.0 0 0 121.35 220.32
  Q 101.38 221.02 83.45 229.71
  C 62.59 239.81 46.52 261.60 50.97 285.53
  C 54.45 304.27 70.12 305.56 85.69 302.41
  C 97.36 300.04 103.23 292.00 111.62 284.02
  Q 111.98 283.68 111.97 284.18
  C 111.64 306.66 113.87 329.65 114.05 351.35
  Q 114.07 353.52 112.98 355.41
  Q 111.81 357.44 112.36 359.75
  A 1.25 1.25 0.0 0 0 114.33 360.47
  Q 119.25 356.76 123.22 352.05
  A 3.22 3.20 -25.0 0 0 123.96 350.03
  Q 124.15 322.70 122.08 297.19
  Q 121.82 294.01 122.13 290.65
  A 0.58 0.57 0.5 0 1 122.67 290.13
  C 132.40 289.63 143.03 279.02 144.54 270.00
  Q 148.38 270.52 149.26 274.31
  A 0.88 0.87 -26.2 0 1 148.95 275.20
  L 147.58 276.29
  A 1.17 1.16 -19.3 0 0 147.14 277.20
  Q 147.13 283.46 150.83 288.38
  Q 151.84 289.72 151.97 291.40
  Q 152.48 298.25 153.25 305.07
  C 153.76 309.56 156.24 312.60 152.84 317.35
  A 0.98 0.97 53.2 0 0 152.72 318.24
  Q 155.92 326.92 156.33 331.58
  Q 156.51 333.59 154.26 336.73
  A 0.85 0.83 45.1 0 0 154.27 337.70
  L 155.97 340.06
  A 1.43 1.38 -65.3 0 1 156.24 340.83
  Q 156.52 346.58 152.55 350.60
  A 1.18 1.18 0.0 0 0 152.22 351.51
  Q 152.33 352.83 153.48 353.53
  A 0.83 0.82 22.8 0 1 153.86 354.44
  L 152.84 358.70
  Q 152.73 359.14 152.81 359.59
  C 153.16 361.68 153.09 366.71 155.69 367.00
  L 0.00 367.00
  L 0.00 0.00
  Z
  M 103.97 23.40
  Q 104.37 27.76 103.37 31.58
  C 96.30 58.65 94.84 86.42 95.10 114.12
  Q 95.12 116.14 95.90 117.99
  Q 97.14 120.92 100.39 121.07
  A 1.43 1.39 -62.2 0 0 101.31 120.77
  C 103.41 119.15 110.81 112.77 110.94 109.64
  Q 110.97 108.95 110.36 109.30
  L 108.33 110.47
  A 1.46 1.45 60.5 0 1 106.33 109.91
  Q 105.19 107.87 105.14 105.56
  C 104.45 77.71 106.77 50.70 113.20 23.60
  C 113.96 20.38 113.99 17.26 114.14 13.96
  A 0.45 0.44 -0.0 0 0 113.66 13.49
  C 100.03 14.29 86.94 20.84 73.69 26.44
  C 71.32 27.44 65.38 31.64 64.83 35.03
  A 0.63 0.62 10.9 0 0 65.31 35.73
  L 66.47 36.00
  A 0.41 0.40 26.7 0 1 66.69 36.66
  L 65.82 37.64
  A 1.67 1.64 -23.5 0 0 65.42 38.63
  Q 63.45 79.21 68.87 119.45
  A 4.99 4.94 -37.7 0 1 68.52 122.08
  Q 67.87 123.61 68.61 125.01
  A 0.66 0.66 0.0 0 0 69.58 125.24
  Q 74.45 121.82 78.29 117.24
  Q 79.60 115.67 79.32 113.64
  Q 73.74 73.47 75.20 32.93
  A 0.89 0.87 78.3 0 1 75.69 32.17
  Q 88.86 25.66 103.31 22.90
  A 0.56 0.56 0.0 0 1 103.97 23.40
  Z"
/>
<path fill="#080808" d="
  M 103.31 22.90
  Q 88.86 25.66 75.69 32.17
  A 0.89 0.87 78.3 0 0 75.20 32.93
  Q 73.74 73.47 79.32 113.64
  Q 79.60 115.67 78.29 117.24
  Q 74.45 121.82 69.58 125.24
  A 0.66 0.66 0.0 0 1 68.61 125.01
  Q 67.87 123.61 68.52 122.08
  A 4.99 4.94 -37.7 0 0 68.87 119.45
  Q 63.45 79.21 65.42 38.63
  A 1.67 1.64 -23.5 0 1 65.82 37.64
  L 66.69 36.66
  A 0.41 0.40 26.7 0 0 66.47 36.00
  L 65.31 35.73
  A 0.63 0.62 10.9 0 1 64.83 35.03
  C 65.38 31.64 71.32 27.44 73.69 26.44
  C 86.94 20.84 100.03 14.29 113.66 13.49
  A 0.45 0.44 -0.0 0 1 114.14 13.96
  C 113.99 17.26 113.96 20.38 113.20 23.60
  C 106.77 50.70 104.45 77.71 105.14 105.56
  Q 105.19 107.87 106.33 109.91
  A 1.46 1.45 60.5 0 0 108.33 110.47
  L 110.36 109.30
  Q 110.97 108.95 110.94 109.64
  C 110.81 112.77 103.41 119.15 101.31 120.77
  A 1.43 1.39 -62.2 0 1 100.39 121.07
  Q 97.14 120.92 95.90 117.99
  Q 95.12 116.14 95.10 114.12
  C 94.84 86.42 96.30 58.65 103.37 31.58
  Q 104.37 27.76 103.97 23.40
  A 0.56 0.56 0.0 0 0 103.31 22.90
  Z"
/>
<path fill="#d7d7d7" d="
  M 268.75 48.96
  C 254.53 49.21 238.31 54.67 232.34 68.58
  Q 226.36 82.50 222.70 97.79
  Q 222.29 99.52 220.55 99.90
  L 217.76 100.52
  Q 217.27 100.62 217.50 100.19
  C 226.72 82.78 231.18 65.86 228.25 45.78
  C 227.13 38.15 221.66 41.98 216.84 41.39
  A 1.40 1.38 31.8 0 0 215.92 41.60
  C 208.01 46.62 201.89 52.02 199.50 61.50
  Q 198.82 64.19 198.98 76.06
  C 199.09 83.84 195.78 92.19 192.87 99.31
  A 0.79 0.76 -79.7 0 1 192.19 99.80
  L 183.57 100.13
  A 0.38 0.37 -80.0 0 1 183.21 99.60
  C 189.04 85.78 198.00 60.99 193.87 46.29
  A 1.97 1.96 79.8 0 0 191.82 44.86
  C 181.47 45.70 169.28 50.29 162.96 58.97
  Q 162.32 59.85 162.42 60.84
  A 0.40 0.39 -17.7 0 0 163.01 61.14
  Q 171.90 56.21 181.99 54.74
  A 1.92 1.92 0.0 0 1 184.14 56.21
  C 187.00 68.70 181.05 86.75 176.54 98.52
  Q 176.15 99.54 176.12 98.45
  L 175.94 92.88
  A 0.82 0.81 -80.6 0 0 175.41 92.13
  Q 174.68 91.86 174.01 92.55
  Q 172.91 93.65 172.98 91.75
  L 174.19 59.56
  A 1.22 1.22 0.0 0 0 172.41 58.43
  C 169.07 60.17 164.54 64.12 164.30 68.38
  C 163.48 82.79 162.45 97.29 163.67 111.69
  A 1.00 0.97 -23.3 0 1 163.33 112.51
  C 157.67 117.27 152.09 123.15 154.07 131.38
  A 1.15 1.14 -9.1 0 0 155.28 132.25
  C 162.30 131.74 173.30 118.24 176.86 112.61
  C 179.52 108.42 183.84 107.48 186.98 111.95
  Q 188.61 114.27 187.77 116.97
  Q 183.62 130.29 185.09 144.23
  A 0.68 0.67 -18.7 0 0 186.11 144.73
  C 190.72 141.95 200.34 134.28 200.04 128.25
  Q 199.89 125.12 200.09 121.91
  A 1.17 1.13 74.7 0 1 200.56 121.06
  Q 206.64 116.69 211.10 110.63
  A 1.61 1.57 8.5 0 1 211.89 110.06
  C 214.49 109.26 219.78 107.32 219.02 112.75
  Q 218.58 115.90 218.10 131.00
  Q 218.01 133.97 218.91 136.45
  A 0.79 0.78 -24.0 0 0 220.01 136.87
  C 233.96 129.66 231.38 117.60 230.26 104.50
  C 230.22 104.01 230.36 94.66 231.51 94.75
  A 0.20 0.20 0.0 0 1 231.68 94.92
  C 231.86 96.58 234.61 112.09 235.52 112.08
  A 3.36 3.35 -65.7 0 0 237.65 111.27
  Q 242.00 107.54 244.50 108.01
  C 246.19 108.32 259.05 108.87 264.65 106.18
  A 0.70 0.69 55.8 0 1 265.46 106.34
  Q 269.41 110.71 275.35 110.96
  A 0.65 0.64 1.0 0 1 275.97 111.59
  Q 276.28 138.32 274.30 164.97
  A 0.26 0.26 0.0 0 0 274.67 165.22
  C 281.85 161.88 284.72 156.91 285.13 148.91
  Q 286.13 129.44 286.06 109.95
  A 0.82 0.81 76.0 0 1 286.49 109.23
  L 296.35 104.05
  Q 294.81 108.89 295.54 111.74
  C 296.36 114.91 296.83 115.59 295.58 118.88
  C 293.44 124.50 292.67 128.16 295.37 133.80
  A 0.91 0.90 51.7 0 1 295.26 134.75
  L 293.01 137.63
  A 1.26 1.24 59.5 0 0 292.76 138.63
  C 293.85 144.47 292.59 150.57 294.88 155.97
  Q 295.89 158.33 295.89 160.58
  Q 295.90 173.23 294.32 185.75
  C 294.03 188.04 296.54 190.61 296.77 193.16
  Q 297.09 196.76 296.62 200.37
  A 1.16 1.15 -13.0 0 1 296.11 201.18
  L 293.28 203.08
  A 1.22 1.17 80.9 0 0 292.77 203.82
  L 290.99 211.50
  A 1.67 1.66 40.9 0 0 291.06 212.46
  Q 292.08 215.06 292.87 217.68
  C 293.75 220.61 293.16 223.92 294.50 227.21
  Q 281.53 227.65 268.48 227.96
  C 262.57 228.10 258.55 231.57 255.83 236.55
  A 0.67 0.66 29.7 0 0 256.08 237.45
  Q 257.16 238.08 258.41 238.00
  A 0.50 0.47 62.7 0 1 258.75 238.12
  L 258.94 238.31
  A 0.35 0.35 0.0 0 1 258.87 238.87
  C 250.84 243.44 251.08 249.22 250.98 258.63
  C 250.90 266.42 249.27 282.57 254.92 288.52
  A 0.63 0.62 51.3 0 0 255.71 288.61
  Q 261.15 285.08 264.69 279.70
  A 0.68 0.68 0.0 0 0 264.63 278.87
  Q 261.26 275.22 261.25 270.27
  C 261.23 260.00 260.82 250.16 261.89 239.55
  A 2.00 1.99 2.0 0 1 263.82 237.75
  L 287.12 237.12
  A 1.54 1.54 0.0 0 1 288.68 238.37
  Q 289.88 244.49 287.30 250.05
  Q 280.48 264.74 273.39 278.87
  A 3.91 3.89 -88.8 0 1 271.51 280.68
  C 261.73 285.19 250.45 295.19 250.21 306.79
  Q 250.16 309.00 252.12 307.98
  C 259.66 304.08 265.91 296.65 271.98 290.11
  Q 273.38 288.60 275.35 289.20
  C 283.19 291.59 286.28 310.50 286.99 317.15
  C 287.44 321.36 286.87 323.70 285.02 327.29
  Q 284.52 328.26 285.17 328.73
  A 0.78 0.77 46.5 0 0 286.04 328.76
  C 301.68 318.96 297.57 302.10 292.18 287.79
  Q 288.75 278.67 279.53 278.78
  A 0.30 0.30 0.0 0 1 279.26 278.35
  L 298.71 239.00
  C 300.00 241.53 301.11 243.44 300.80 246.49
  Q 300.01 254.29 301.77 262.00
  Q 302.15 263.71 300.90 266.31
  A 1.50 1.46 53.6 0 0 300.77 267.24
  C 301.57 271.92 299.32 275.73 301.05 280.39
  Q 302.49 284.30 302.36 285.99
  Q 301.71 294.58 303.50 302.88
  Q 304.42 307.16 304.86 311.21
  C 305.38 316.05 307.48 321.37 307.12 326.07
  Q 306.68 331.93 305.96 337.77
  A 1.46 1.42 33.6 0 0 306.16 338.69
  C 307.46 340.81 308.79 342.19 309.29 344.76
  Q 309.73 347.00 310.45 349.15
  A 0.79 0.78 -30.6 0 1 310.24 349.96
  L 305.72 354.26
  A 0.69 0.69 0.0 0 0 305.61 355.13
  L 306.59 356.72
  A 1.16 1.16 0.0 0 1 306.76 357.48
  L 306.48 359.60
  A 1.37 1.35 33.4 0 0 306.67 360.48
  C 308.41 363.26 305.07 366.01 302.94 367.00
  L 155.69 367.00
  C 153.09 366.71 153.16 361.68 152.81 359.59
  Q 152.73 359.14 152.84 358.70
  L 153.86 354.44
  A 0.83 0.82 22.8 0 0 153.48 353.53
  Q 152.33 352.83 152.22 351.51
  A 1.18 1.18 0.0 0 1 152.55 350.60
  Q 156.52 346.58 156.24 340.83
  A 1.43 1.38 -65.3 0 0 155.97 340.06
  L 154.27 337.70
  A 0.85 0.83 45.1 0 1 154.26 336.73
  Q 156.51 333.59 156.33 331.58
  Q 155.92 326.92 152.72 318.24
  A 0.98 0.97 53.2 0 1 152.84 317.35
  C 156.24 312.60 153.76 309.56 153.25 305.07
  Q 152.48 298.25 151.97 291.40
  Q 151.84 289.72 150.83 288.38
  Q 147.13 283.46 147.14 277.20
  A 1.17 1.16 -19.3 0 1 147.58 276.29
  L 148.95 275.20
  A 0.88 0.87 -26.2 0 0 149.26 274.31
  Q 148.38 270.52 144.54 270.00
  Q 145.38 260.85 144.95 252.39
  Q 144.83 250.14 146.62 248.76
  Q 151.64 244.92 157.64 242.95
  A 1.23 1.22 49.4 0 1 158.61 243.03
  C 160.93 244.25 160.18 246.04 158.85 247.77
  C 155.38 252.26 152.88 255.01 152.89 260.50
  C 152.93 270.86 156.38 275.07 161.08 283.89
  Q 162.00 285.61 160.90 287.24
  Q 159.00 290.06 159.03 293.40
  A 0.78 0.78 0.0 0 0 159.61 294.14
  C 172.99 297.89 194.10 288.39 202.44 277.75
  C 202.74 277.37 202.84 276.90 202.93 276.44
  Q 203.18 275.24 202.11 275.85
  C 193.39 280.90 184.42 284.83 174.17 285.28
  A 0.78 0.77 12.0 0 1 173.44 284.16
  Q 175.05 280.94 173.00 277.92
  A 1.17 1.16 -41.6 0 1 173.09 276.50
  C 175.29 273.93 177.31 271.47 179.97 269.17
  C 185.38 264.51 192.16 258.56 194.98 251.86
  Q 195.89 249.70 193.55 249.87
  Q 186.03 250.43 178.29 252.92
  C 175.71 253.74 174.00 255.26 171.59 256.57
  A 0.40 0.39 -14.8 0 1 171.00 256.23
  L 171.00 244.13
  A 0.76 0.74 79.1 0 1 171.46 243.43
  Q 181.23 239.37 191.79 238.88
  A 0.94 0.92 -17.5 0 1 192.63 239.31
  C 193.36 240.45 191.81 241.44 192.35 242.01
  A 0.67 0.66 -35.5 0 0 193.16 242.14
  C 195.95 240.62 204.25 233.84 203.38 230.18
  A 1.92 1.91 -8.3 0 0 201.41 228.72
  Q 185.77 229.59 172.33 237.36
  Q 171.51 237.83 170.89 237.94
  A 0.79 0.79 0.0 0 1 169.97 237.05
  Q 170.31 234.81 168.70 233.30
  A 1.25 1.24 64.1 0 0 167.76 232.97
  C 160.57 233.43 151.34 240.80 145.60 245.75
  Q 145.23 246.07 145.15 245.58
  C 144.23 240.14 143.59 235.64 142.08 230.29
  Q 142.47 226.57 140.46 223.17
  A 1.68 1.66 30.7 0 1 140.22 222.24
  Q 140.47 214.92 142.79 208.00
  Q 152.44 214.70 162.00 207.99
  Q 178.23 196.60 182.41 177.22
  Q 182.53 176.65 182.83 177.16
  C 183.65 178.55 183.19 194.45 183.43 197.64
  A 1.77 1.71 -33.0 0 1 183.20 198.64
  L 176.41 210.52
  A 1.07 1.06 19.4 0 0 177.17 212.10
  C 179.05 212.39 184.63 205.78 186.08 204.23
  A 0.37 0.37 0.0 0 1 186.69 204.34
  C 189.66 211.74 197.74 202.13 199.95 199.16
  A 1.09 1.09 0.0 0 0 199.70 197.62
  Q 195.76 194.92 194.14 190.41
  A 0.98 0.97 52.4 0 1 194.25 189.53
  L 212.19 162.24
  Q 213.98 159.52 213.97 162.78
  C 213.96 168.54 211.92 196.07 218.67 198.73
  C 222.67 200.31 228.80 192.93 230.99 190.13
  Q 232.38 188.35 230.19 188.90
  C 225.09 190.17 224.41 182.47 224.30 178.75
  Q 223.86 165.17 224.02 151.61
  Q 224.03 150.70 223.30 151.24
  L 218.53 154.76
  Q 217.61 155.43 218.33 154.55
  C 219.06 153.64 223.32 148.90 223.00 148.09
  A 0.51 0.50 66.8 0 0 222.32 147.81
  Q 218.05 149.81 214.65 153.91
  Q 203.04 167.93 194.06 182.58
  Q 193.01 184.29 193.01 182.28
  L 193.00 149.95
  Q 193.00 146.60 190.64 148.99
  L 183.70 156.04
  Q 183.41 156.32 183.31 155.93
  C 180.72 145.91 168.41 141.75 159.24 141.98
  C 151.22 142.18 144.19 150.97 136.20 158.47
  Q 133.77 160.75 129.75 159.96
  Q 130.37 154.60 129.31 149.28
  A 0.57 0.57 0.0 0 0 129.04 148.90
  L 128.79 148.75
  Q 131.64 142.69 130.99 136.04
  A 1.01 1.01 0.0 0 0 130.50 135.27
  Q 129.06 134.42 127.25 134.71
  C 133.74 132.06 132.35 124.56 129.50 119.54
  C 134.79 119.05 137.08 116.73 141.74 112.82
  C 155.21 101.54 159.61 86.57 159.24 69.61
  C 159.05 60.74 155.44 54.75 146.50 52.96
  C 149.12 45.32 157.49 37.69 164.06 33.06
  A 1.13 1.13 0.0 0 1 165.04 32.90
  Q 169.69 34.21 174.14 32.45
  Q 174.65 32.25 175.04 31.84
  L 179.10 27.56
  A 1.09 1.07 27.3 0 1 180.10 27.25
  L 183.76 28.02
  A 1.38 1.37 -54.1 0 0 184.74 27.86
  L 193.69 22.58
  A 0.88 0.88 0.0 0 1 194.62 22.60
  Q 201.63 27.18 210.01 26.12
  Q 211.05 25.99 214.10 27.12
  A 1.60 1.50 46.8 0 0 215.04 27.18
  Q 218.59 26.28 221.32 23.84
  A 1.12 1.11 49.0 0 1 222.93 23.96
  C 225.84 27.47 226.78 27.82 231.56 26.97
  Q 235.28 26.30 239.06 26.52
  A 1.26 1.26 0.0 0 1 239.95 26.96
  L 244.73 32.53
  A 0.78 0.78 0.0 0 0 245.51 32.79
  C 249.80 31.85 253.68 32.79 256.20 36.65
  C 259.58 41.82 261.74 44.13 267.53 46.25
  A 0.98 0.98 0.0 0 1 268.13 46.89
  L 268.75 48.96
  Z
  M 201.8415 137.4957
  A 0.99 0.99 0.0 0 0 201.8366 136.0957
  L 201.7940 136.0534
  A 0.99 0.99 0.0 0 0 200.3940 136.0583
  L 193.1785 143.3243
  A 0.99 0.99 0.0 0 0 193.1834 144.7243
  L 193.2260 144.7666
  A 0.99 0.99 0.0 0 0 194.6260 144.7617
  L 201.8415 137.4957
  Z
  M 215.38 255.57
  L 216.14 238.27
  A 1.05 1.05 0.0 0 0 214.66 237.27
  C 210.60 239.13 205.92 243.17 205.71 248.10
  Q 204.89 267.29 205.18 286.48
  C 205.23 289.97 205.77 293.47 207.11 296.32
  A 1.42 1.42 0.0 0 0 209.27 296.82
  C 211.79 294.84 221.23 287.96 216.47 284.53
  A 1.32 1.29 -76.7 0 1 215.95 283.66
  Q 214.65 274.11 215.06 264.46
  A 0.61 0.60 -6.8 0 1 215.50 263.91
  Q 223.66 261.42 230.92 256.93
  Q 231.79 256.39 231.78 257.42
  C 231.67 268.59 230.43 282.76 233.13 293.51
  A 1.05 1.05 0.0 0 0 234.64 294.18
  Q 239.59 291.53 242.94 287.03
  A 2.63 2.62 54.7 0 0 243.34 284.66
  C 242.84 283.08 242.26 281.42 242.19 279.69
  Q 241.63 265.33 241.78 249.67
  A 2.87 2.86 -17.6 0 1 242.98 247.36
  Q 245.50 245.56 246.83 242.76
  Q 247.48 241.39 246.16 242.13
  Q 244.10 243.29 242.49 245.02
  Q 241.77 245.80 241.76 244.73
  L 241.72 230.82
  Q 241.71 228.05 239.59 229.83
  L 233.71 234.78
  Q 231.76 236.41 231.76 238.95
  L 231.74 250.31
  A 1.45 1.45 0.0 0 1 230.79 251.67
  Q 223.44 254.33 215.81 255.94
  A 0.36 0.35 85.1 0 1 215.38 255.57
  Z"
/>
<path fill="#080808" d="
  M 296.35 104.05
  L 286.49 109.23
  A 0.82 0.81 76.0 0 0 286.06 109.95
  Q 286.13 129.44 285.13 148.91
  C 284.72 156.91 281.85 161.88 274.67 165.22
  A 0.26 0.26 0.0 0 1 274.30 164.97
  Q 276.28 138.32 275.97 111.59
  A 0.65 0.64 1.0 0 0 275.35 110.96
  Q 269.41 110.71 265.46 106.34
  A 0.70 0.69 55.8 0 0 264.65 106.18
  C 259.05 108.87 246.19 108.32 244.50 108.01
  Q 242.00 107.54 237.65 111.27
  A 3.36 3.35 -65.7 0 1 235.52 112.08
  C 234.61 112.09 231.86 96.58 231.68 94.92
  A 0.20 0.20 0.0 0 0 231.51 94.75
  C 230.36 94.66 230.22 104.01 230.26 104.50
  C 231.38 117.60 233.96 129.66 220.01 136.87
  A 0.79 0.78 -24.0 0 1 218.91 136.45
  Q 218.01 133.97 218.10 131.00
  Q 218.58 115.90 219.02 112.75
  C 219.78 107.32 214.49 109.26 211.89 110.06
  A 1.61 1.57 8.5 0 0 211.10 110.63
  Q 206.64 116.69 200.56 121.06
  A 1.17 1.13 74.7 0 0 200.09 121.91
  Q 199.89 125.12 200.04 128.25
  C 200.34 134.28 190.72 141.95 186.11 144.73
  A 0.68 0.67 -18.7 0 1 185.09 144.23
  Q 183.62 130.29 187.77 116.97
  Q 188.61 114.27 186.98 111.95
  C 183.84 107.48 179.52 108.42 176.86 112.61
  C 173.30 118.24 162.30 131.74 155.28 132.25
  A 1.15 1.14 -9.1 0 1 154.07 131.38
  C 152.09 123.15 157.67 117.27 163.33 112.51
  A 1.00 0.97 -23.3 0 0 163.67 111.69
  C 162.45 97.29 163.48 82.79 164.30 68.38
  C 164.54 64.12 169.07 60.17 172.41 58.43
  A 1.22 1.22 0.0 0 1 174.19 59.56
  L 172.98 91.75
  Q 172.91 93.65 174.01 92.55
  Q 174.68 91.86 175.41 92.13
  A 0.82 0.81 -80.6 0 1 175.94 92.88
  L 176.12 98.45
  Q 176.15 99.54 176.54 98.52
  C 181.05 86.75 187.00 68.70 184.14 56.21
  A 1.92 1.92 0.0 0 0 181.99 54.74
  Q 171.90 56.21 163.01 61.14
  A 0.40 0.39 -17.7 0 1 162.42 60.84
  Q 162.32 59.85 162.96 58.97
  C 169.28 50.29 181.47 45.70 191.82 44.86
  A 1.97 1.96 79.8 0 1 193.87 46.29
  C 198.00 60.99 189.04 85.78 183.21 99.60
  A 0.38 0.37 -80.0 0 0 183.57 100.13
  L 192.19 99.80
  A 0.79 0.76 -79.7 0 0 192.87 99.31
  C 195.78 92.19 199.09 83.84 198.98 76.06
  Q 198.82 64.19 199.50 61.50
  C 201.89 52.02 208.01 46.62 215.92 41.60
  A 1.40 1.38 31.8 0 1 216.84 41.39
  C 221.66 41.98 227.13 38.15 228.25 45.78
  C 231.18 65.86 226.72 82.78 217.50 100.19
  Q 217.27 100.62 217.76 100.52
  L 220.55 99.90
  Q 222.29 99.52 222.70 97.79
  Q 226.36 82.50 232.34 68.58
  C 238.31 54.67 254.53 49.21 268.75 48.96
  L 274.17 49.23
  A 0.62 0.62 0.0 0 1 274.75 49.79
  Q 274.95 52.05 273.50 53.96
  Q 270.58 57.26 266.85 59.46
  A 1.33 1.31 -55.1 0 1 265.93 59.63
  Q 255.58 57.76 245.63 61.02
  A 0.88 0.87 -9.3 0 0 245.03 61.85
  L 245.00 71.32
  A 0.92 0.92 0.0 0 0 246.02 72.24
  Q 256.01 71.21 265.75 68.98
  Q 266.40 68.83 268.39 69.07
  A 0.63 0.62 2.3 0 1 268.93 69.65
  C 269.08 72.10 264.37 76.05 262.31 77.54
  Q 260.66 78.74 258.29 79.01
  Q 251.87 79.72 245.48 81.24
  A 0.64 0.64 0.0 0 0 244.99 81.86
  L 245.01 96.47
  A 0.86 0.86 0.0 0 0 245.77 97.32
  Q 254.36 98.26 262.97 97.96
  A 0.81 0.81 0.0 0 0 263.71 97.41
  C 266.24 90.19 271.26 84.18 276.49 78.88
  A 1.43 1.40 -20.1 0 0 276.90 78.02
  C 277.30 73.85 276.80 64.44 278.95 61.26
  Q 279.35 60.66 278.68 60.91
  Q 278.24 61.06 277.93 61.45
  A 0.61 0.61 0.0 0 1 277.07 61.53
  C 275.89 60.54 278.85 57.51 279.54 56.75
  Q 291.08 45.61 305.94 46.10
  Q 309.87 46.23 312.49 50.48
  A 0.48 0.47 57.3 0 0 313.16 50.63
  Q 316.64 48.27 320.91 47.92
  Q 323.51 47.70 323.73 50.29
  C 324.05 54.10 324.00 60.38 325.60 63.73
  Q 326.22 65.04 326.56 63.64
  Q 329.00 53.53 331.84 43.58
  C 333.85 36.55 336.05 32.22 342.75 29.93
  Q 343.23 29.77 343.09 30.25
  Q 339.54 42.84 336.38 55.41
  Q 335.22 60.01 334.91 62.83
  Q 334.60 65.76 336.19 63.28
  C 338.88 59.10 354.49 37.08 359.11 38.04
  A 0.40 0.40 0.0 0 1 359.33 38.70
  Q 345.88 54.42 334.89 71.86
  C 332.58 75.52 332.05 77.75 334.79 81.55
  Q 341.95 91.51 350.08 100.80
  Q 351.23 102.11 351.05 100.37
  C 350.03 90.46 351.37 85.15 360.53 80.25
  A 0.32 0.32 0.0 0 1 361.00 80.53
  C 360.94 87.26 358.98 97.16 367.80 99.30
  Q 370.22 99.89 371.49 97.76
  C 377.58 87.50 378.51 79.54 377.93 67.74
  C 377.63 61.62 382.91 56.82 387.89 54.28
  Q 389.90 53.25 389.82 55.50
  C 389.58 63.03 388.30 70.92 388.14 77.85
  Q 387.40 109.13 388.50 125.00
  C 389.15 134.27 391.37 145.56 388.62 151.71
  C 385.63 158.41 377.82 165.79 370.83 168.04
  Q 352.71 173.88 345.07 155.11
  C 341.70 146.83 347.24 143.05 353.16 139.05
  Q 353.74 138.66 353.76 139.36
  Q 353.98 148.62 360.59 155.17
  C 365.84 160.37 372.03 160.09 378.78 158.67
  A 1.48 1.47 -5.4 0 0 379.96 157.25
  Q 380.03 154.60 379.78 151.77
  Q 377.32 124.19 378.11 96.41
  Q 378.14 95.53 377.60 96.23
  Q 372.27 103.10 365.03 107.66
  C 362.07 109.53 359.10 109.07 355.78 109.02
  A 0.93 0.93 0.0 0 0 354.97 109.46
  Q 348.76 119.38 339.37 126.39
  Q 337.66 127.66 335.53 127.66
  C 323.67 127.61 321.60 118.90 321.90 109.07
  Q 322.12 101.56 321.96 94.40
  Q 321.94 93.28 321.37 94.25
  C 319.51 97.47 310.43 111.14 310.59 113.76
  A 0.30 0.30 0.0 0 0 311.04 114.00
  L 314.09 112.23
  A 0.65 0.65 0.0 0 1 314.96 112.45
  C 315.77 113.71 304.25 124.65 301.91 124.24
  Q 298.93 123.71 300.39 121.21
  L 320.76 86.39
  A 1.06 1.06 0.0 0 0 320.82 85.44
  C 319.62 82.59 318.18 80.35 317.06 77.19
  Q 316.41 75.32 315.33 73.67
  Q 315.06 73.24 314.99 73.74
  C 313.24 87.13 306.48 95.17 296.35 104.05
  Z
  M 217.82 53.19
  A 1.79 1.57 -87.0 0 0 216.24 54.82
  Q 214.58 72.17 215.07 89.63
  Q 215.09 90.12 215.49 89.85
  Q 215.71 89.70 215.82 89.32
  Q 220.64 72.19 218.45 54.98
  Q 218.22 53.19 217.82 53.19
  Z
  M 288.02 57.99
  C 288.04 62.22 287.74 65.00 287.20 68.57
  Q 287.12 69.10 287.51 68.73
  Q 293.56 63.20 300.29 58.49
  Q 301.92 57.36 300.00 56.84
  Q 294.21 55.29 288.53 57.27
  A 0.76 0.74 -10.3 0 0 288.02 57.99
  Z
  M 287.11 77.13
  Q 287.14 88.75 286.05 100.03
  A 0.43 0.43 0.0 0 0 286.53 100.50
  L 293.50 99.54
  C 308.57 97.29 305.06 71.12 302.95 61.41
  A 0.36 0.36 0.0 0 0 302.38 61.20
  L 287.72 72.03
  A 1.19 1.18 -17.7 0 0 287.25 72.93
  L 287.11 77.13
  Z
  M 275.96 83.90
  C 273.81 87.44 272.76 94.96 276.08 97.48
  Q 276.63 97.89 276.66 97.20
  L 277.08 84.23
  Q 277.16 81.93 275.96 83.90
  Z
  M 200.63 99.91
  Q 198.21 104.98 199.27 110.51
  A 1.16 1.16 0.0 0 0 201.03 111.27
  L 203.54 109.67
  A 0.69 0.68 67.4 0 0 203.84 108.92
  L 201.66 100.02
  Q 201.30 98.51 200.63 99.91
  Z
  M 344.91 117.40
  L 345.62 116.03
  A 0.65 0.64 32.5 0 0 345.44 115.22
  Q 337.84 109.29 332.51 101.21
  Q 332.18 100.71 332.10 101.30
  C 330.95 109.94 334.30 117.37 343.88 117.98
  A 1.07 1.07 0.0 0 0 344.91 117.40
  Z
  M 170.65 112.36
  C 166.09 113.40 162.66 116.60 163.94 121.38
  Q 164.48 123.37 165.81 121.80
  Q 169.22 117.77 170.99 112.75
  Q 171.17 112.24 170.65 112.36
  Z"
/>
<path fill="#d7d7d7" d="
  M 217.82 53.19
  Q 218.22 53.19 218.45 54.98
  Q 220.64 72.19 215.82 89.32
  Q 215.71 89.70 215.49 89.85
  Q 215.09 90.12 215.07 89.63
  Q 214.58 72.17 216.24 54.82
  A 1.79 1.57 -87.0 0 1 217.82 53.19
  Z"
/>
<path fill="#080808" d="
  M 146.50 52.96
  C 155.44 54.75 159.05 60.74 159.24 69.61
  C 159.61 86.57 155.21 101.54 141.74 112.82
  C 137.08 116.73 134.79 119.05 129.50 119.54
  C 116.35 118.99 112.39 110.05 112.18 98.19
  Q 111.94 84.10 112.03 70.00
  C 112.06 64.52 116.61 60.61 120.92 58.11
  A 0.61 0.60 65.6 0 1 121.79 58.44
  L 122.18 59.57
  A 0.50 0.50 0.0 0 0 122.77 59.89
  Q 123.98 59.58 124.48 59.01
  C 130.79 51.80 137.77 53.07 146.50 52.96
  Z
  M 128.79 104.00
  Q 133.52 111.27 141.76 108.47
  A 1.55 1.52 -81.3 0 0 142.52 107.90
  C 148.39 99.39 149.55 86.48 149.21 76.28
  Q 148.90 67.06 139.79 63.75
  Q 132.69 62.33 126.02 63.13
  A 1.44 1.44 0.0 0 0 124.76 64.41
  Q 123.39 77.82 124.08 91.19
  Q 124.42 97.64 128.79 104.00
  Z"
/>
<path fill="#d7d7d7" d="
  M 273.50 53.96
  Q 276.77 54.87 279.54 56.75
  C 278.85 57.51 275.89 60.54 277.07 61.53
  A 0.61 0.61 0.0 0 0 277.93 61.45
  Q 278.24 61.06 278.68 60.91
  Q 279.35 60.66 278.95 61.26
  C 276.80 64.44 277.30 73.85 276.90 78.02
  A 1.43 1.40 -20.1 0 1 276.49 78.88
  C 271.26 84.18 266.24 90.19 263.71 97.41
  A 0.81 0.81 0.0 0 1 262.97 97.96
  Q 254.36 98.26 245.77 97.32
  A 0.86 0.86 0.0 0 1 245.01 96.47
  L 244.99 81.86
  A 0.64 0.64 0.0 0 1 245.48 81.24
  Q 251.87 79.72 258.29 79.01
  Q 260.66 78.74 262.31 77.54
  C 264.37 76.05 269.08 72.10 268.93 69.65
  A 0.63 0.62 2.3 0 0 268.39 69.07
  Q 266.40 68.83 265.75 68.98
  Q 256.01 71.21 246.02 72.24
  A 0.92 0.92 0.0 0 1 245.00 71.32
  L 245.03 61.85
  A 0.88 0.87 -9.3 0 1 245.63 61.02
  Q 255.58 57.76 265.93 59.63
  A 1.33 1.31 -55.1 0 0 266.85 59.46
  Q 270.58 57.26 273.50 53.96
  Z"
/>
<path fill="#ffffff" d="
  M 287.20 68.57
  C 287.74 65.00 288.04 62.22 288.02 57.99
  A 0.76 0.74 -10.3 0 1 288.53 57.27
  Q 294.21 55.29 300.00 56.84
  Q 301.92 57.36 300.29 58.49
  Q 293.56 63.20 287.51 68.73
  Q 287.12 69.10 287.20 68.57
  Z"
/>
<path fill="#ffffff" d="
  M 293.50 99.54
  Q 292.94 94.68 291.46 90.01
  C 290.64 87.44 292.12 83.36 290.38 80.42
  Q 289.19 78.39 287.11 77.13
  L 287.25 72.93
  A 1.19 1.18 -17.7 0 1 287.72 72.03
  L 302.38 61.20
  A 0.36 0.36 0.0 0 1 302.95 61.41
  C 305.06 71.12 308.57 97.29 293.50 99.54
  Z"
/>
<path fill="#ffffff" d="
  M 139.79 63.75
  L 139.59 64.67
  Q 139.49 65.16 139.16 65.55
  L 133.25 72.37
  Q 131.56 74.31 132.58 76.68
  Q 135.28 82.90 132.09 88.79
  A 1.73 1.71 46.8 0 0 132.05 90.34
  Q 136.02 98.81 128.79 104.00
  Q 124.42 97.64 124.08 91.19
  Q 123.39 77.82 124.76 64.41
  A 1.44 1.44 0.0 0 1 126.02 63.13
  Q 132.69 62.33 139.79 63.75
  Z"
/>
<path fill="#d7d7d7" d="
  M 139.79 63.75
  Q 148.90 67.06 149.21 76.28
  C 149.55 86.48 148.39 99.39 142.52 107.90
  A 1.55 1.52 -81.3 0 1 141.76 108.47
  Q 133.52 111.27 128.79 104.00
  Q 136.02 98.81 132.05 90.34
  A 1.73 1.71 46.8 0 1 132.09 88.79
  Q 135.28 82.90 132.58 76.68
  Q 131.56 74.31 133.25 72.37
  L 139.16 65.55
  Q 139.49 65.16 139.59 64.67
  L 139.79 63.75
  Z"
/>
<path fill="#d7d7d7" d="
  M 293.50 99.54
  L 286.53 100.50
  A 0.43 0.43 0.0 0 1 286.05 100.03
  Q 287.14 88.75 287.11 77.13
  Q 289.19 78.39 290.38 80.42
  C 292.12 83.36 290.64 87.44 291.46 90.01
  Q 292.94 94.68 293.50 99.54
  Z"
/>
<path fill="#d7d7d7" d="
  M 275.96 83.90
  Q 277.16 81.93 277.08 84.23
  L 276.66 97.20
  Q 276.63 97.89 276.08 97.48
  C 272.76 94.96 273.81 87.44 275.96 83.90
  Z"
/>
<path fill="#d7d7d7" d="
  M 200.63 99.91
  Q 201.30 98.51 201.66 100.02
  L 203.84 108.92
  A 0.69 0.68 67.4 0 1 203.54 109.67
  L 201.03 111.27
  A 1.16 1.16 0.0 0 1 199.27 110.51
  Q 198.21 104.98 200.63 99.91
  Z"
/>
<path fill="#ffffff" d="
  M 344.91 117.40
  A 1.07 1.07 0.0 0 1 343.88 117.98
  C 334.30 117.37 330.95 109.94 332.10 101.30
  Q 332.18 100.71 332.51 101.21
  Q 337.84 109.29 345.44 115.22
  A 0.65 0.64 32.5 0 1 345.62 116.03
  L 344.91 117.40
  Z"
/>
<path fill="#d7d7d7" d="
  M 163.94 121.38
  C 162.66 116.60 166.09 113.40 170.65 112.36
  Q 171.17 112.24 170.99 112.75
  Q 169.22 117.77 165.81 121.80
  Q 164.48 123.37 163.94 121.38
  Z"
/>
<path fill="#080808" d="
  M 127.25 134.71
  Q 129.06 134.42 130.50 135.27
  A 1.01 1.01 0.0 0 1 130.99 136.04
  Q 131.64 142.69 128.79 148.75
  L 123.29 160.23
  Q 123.11 160.63 123.54 160.58
  L 129.75 159.96
  Q 133.77 160.75 136.20 158.47
  C 144.19 150.97 151.22 142.18 159.24 141.98
  C 168.41 141.75 180.72 145.91 183.31 155.93
  Q 183.41 156.32 183.70 156.04
  L 190.64 148.99
  Q 193.00 146.60 193.00 149.95
  L 193.01 182.28
  Q 193.01 184.29 194.06 182.58
  Q 203.04 167.93 214.65 153.91
  Q 218.05 149.81 222.32 147.81
  A 0.51 0.50 66.8 0 1 223.00 148.09
  C 223.32 148.90 219.06 153.64 218.33 154.55
  Q 217.61 155.43 218.53 154.76
  L 223.30 151.24
  Q 224.03 150.70 224.02 151.61
  Q 223.86 165.17 224.30 178.75
  C 224.41 182.47 225.09 190.17 230.19 188.90
  Q 232.38 188.35 230.99 190.13
  C 228.80 192.93 222.67 200.31 218.67 198.73
  C 211.92 196.07 213.96 168.54 213.97 162.78
  Q 213.98 159.52 212.19 162.24
  L 194.25 189.53
  A 0.98 0.97 52.4 0 0 194.14 190.41
  Q 195.76 194.92 199.70 197.62
  A 1.09 1.09 0.0 0 1 199.95 199.16
  C 197.74 202.13 189.66 211.74 186.69 204.34
  A 0.37 0.37 0.0 0 0 186.08 204.23
  C 184.63 205.78 179.05 212.39 177.17 212.10
  A 1.07 1.06 19.4 0 1 176.41 210.52
  L 183.20 198.64
  A 1.77 1.71 -33.0 0 0 183.43 197.64
  C 183.19 194.45 183.65 178.55 182.83 177.16
  Q 182.53 176.65 182.41 177.22
  Q 178.23 196.60 162.00 207.99
  Q 152.44 214.70 142.79 208.00
  C 138.94 203.82 140.16 199.95 138.69 195.38
  Q 138.54 194.90 138.20 195.27
  C 129.37 205.00 120.57 212.11 106.74 211.02
  Q 104.68 210.85 104.39 208.80
  L 103.95 205.70
  A 0.57 0.57 0.0 0 0 103.19 205.25
  L 101.99 205.69
  A 0.57 0.57 0.0 0 1 101.22 205.22
  L 99.77 192.48
  Q 99.62 191.11 98.83 192.24
  C 94.60 198.38 85.02 209.18 77.00 208.99
  Q 67.47 208.77 66.89 197.98
  C 65.82 177.88 68.11 151.62 87.10 140.11
  C 88.84 139.05 92.75 138.55 94.21 139.30
  C 96.89 140.68 96.17 142.58 96.22 145.03
  C 96.39 153.81 94.44 157.15 87.58 162.31
  Q 85.04 164.22 84.98 161.04
  Q 84.92 156.88 85.59 151.49
  Q 85.92 148.81 83.96 148.92
  Q 81.92 149.04 81.35 151.01
  Q 75.91 169.87 76.94 188.96
  C 77.32 196.09 81.30 200.43 88.89 198.98
  A 1.19 1.17 -78.0 0 0 89.66 198.47
  C 94.29 191.52 98.57 183.18 99.08 174.72
  Q 99.74 163.61 100.42 152.51
  A 0.62 0.61 11.1 0 0 100.00 151.89
  L 99.41 151.71
  A 0.70 0.70 0.0 0 1 99.08 150.60
  C 101.13 148.13 109.71 138.20 113.05 139.57
  A 1.00 1.00 0.0 0 0 113.92 139.51
  Q 120.14 135.83 127.25 134.71
  Z
  M 113.30 146.51
  C 112.93 149.47 113.12 152.44 112.64 155.08
  Q 111.50 161.28 110.06 167.46
  Q 109.95 167.95 110.38 167.70
  C 116.90 163.95 121.84 153.49 120.91 145.52
  A 0.74 0.73 83.3 0 0 120.10 144.88
  L 114.34 145.50
  A 1.18 1.17 0.6 0 0 113.30 146.51
  Z
  M 173.77 168.50
  C 173.32 158.64 163.70 153.17 155.00 152.11
  A 0.65 0.64 -76.2 0 0 154.32 152.53
  C 150.17 163.73 149.96 174.47 149.53 186.24
  A 1.09 1.08 22.5 0 0 149.88 187.08
  C 154.58 191.37 166.13 192.84 171.44 188.83
  A 1.28 1.27 -13.3 0 0 171.93 188.04
  Q 174.11 175.85 173.77 168.50
  Z
  M 123.24 170.25
  C 115.61 168.57 113.90 174.59 109.30 179.20
  A 1.18 1.17 63.3 0 0 108.97 180.21
  L 110.17 187.75
  Q 110.32 188.69 110.83 187.89
  Q 116.56 178.97 123.48 170.97
  A 0.44 0.44 0.0 0 0 123.24 170.25
  Z
  M 116.01 201.16
  Q 122.79 201.60 129.12 199.21
  Q 131.36 198.36 131.72 195.99
  Q 133.65 183.13 128.24 171.50
  A 0.59 0.59 0.0 0 0 127.25 171.37
  C 120.87 178.89 113.67 188.63 113.97 199.06
  Q 114.03 201.04 116.01 201.16
  Z
  M 109.35 173.88
  Q 110.18 174.15 110.25 173.05
  Q 110.29 172.55 109.85 172.79
  L 109.28 173.11
  Q 108.43 173.58 109.35 173.88
  Z
  M 160.35 200.79
  C 166.55 202.50 168.97 197.84 170.54 192.73
  Q 170.69 192.23 170.28 192.54
  C 166.59 195.31 164.85 198.52 160.32 200.28
  Q 159.57 200.57 160.35 200.79
  Z"
/>
<rect fill="#080808" x="-1.02" y="-6.11" transform="translate(197.51,140.41) rotate(44.8)" width="2.04" height="12.22" rx="0.99"/>
<path fill="#ffffff" d="
  M 113.30 146.51
  A 1.18 1.17 0.6 0 1 114.34 145.50
  L 120.10 144.88
  A 0.74 0.73 83.3 0 1 120.91 145.52
  C 121.84 153.49 116.90 163.95 110.38 167.70
  Q 109.95 167.95 110.06 167.46
  Q 111.50 161.28 112.64 155.08
  C 113.12 152.44 112.93 149.47 113.30 146.51
  Z"
/>
<path fill="#ffffff" d="
  M 128.79 148.75
  L 129.04 148.90
  A 0.57 0.57 0.0 0 1 129.31 149.28
  Q 130.37 154.60 129.75 159.96
  L 123.54 160.58
  Q 123.11 160.63 123.29 160.23
  L 128.79 148.75
  Z"
/>
<path fill="#d7d7d7" d="
  M 155.00 152.11
  C 163.70 153.17 173.32 158.64 173.77 168.50
  Q 174.11 175.85 171.93 188.04
  A 1.28 1.27 -13.3 0 1 171.44 188.83
  C 166.13 192.84 154.58 191.37 149.88 187.08
  A 1.09 1.08 22.5 0 1 149.53 186.24
  C 149.96 174.47 150.17 163.73 154.32 152.53
  A 0.65 0.64 -76.2 0 1 155.00 152.11
  Z"
/>
<path fill="#ffffff" d="
  M 123.24 170.25
  A 0.44 0.44 0.0 0 1 123.48 170.97
  Q 116.56 178.97 110.83 187.89
  Q 110.32 188.69 110.17 187.75
  L 108.97 180.21
  A 1.18 1.17 63.3 0 1 109.30 179.20
  C 113.90 174.59 115.61 168.57 123.24 170.25
  Z"
/>
<path fill="#ffffff" d="
  M 116.01 201.16
  Q 114.03 201.04 113.97 199.06
  C 113.67 188.63 120.87 178.89 127.25 171.37
  A 0.59 0.59 0.0 0 1 128.24 171.50
  Q 133.65 183.13 131.72 195.99
  Q 131.36 198.36 129.12 199.21
  Q 122.79 201.60 116.01 201.16
  Z"
/>
<path fill="#d7d7d7" d="
  M 109.28 173.11
  L 109.85 172.79
  Q 110.29 172.55 110.25 173.05
  Q 110.18 174.15 109.35 173.88
  Q 108.43 173.58 109.28 173.11
  Z"
/>
<path fill="#d7d7d7" d="
  M 160.35 200.79
  Q 159.57 200.57 160.32 200.28
  C 164.85 198.52 166.59 195.31 170.28 192.54
  Q 170.69 192.23 170.54 192.73
  C 168.97 197.84 166.55 202.50 160.35 200.79
  Z"
/>
<path fill="#080808" d="
  M 142.08 230.29
  C 143.59 235.64 144.23 240.14 145.15 245.58
  Q 145.23 246.07 145.60 245.75
  C 151.34 240.80 160.57 233.43 167.76 232.97
  A 1.25 1.24 64.1 0 1 168.70 233.30
  Q 170.31 234.81 169.97 237.05
  A 0.79 0.79 0.0 0 0 170.89 237.94
  Q 171.51 237.83 172.33 237.36
  Q 185.77 229.59 201.41 228.72
  A 1.92 1.91 -8.3 0 1 203.38 230.18
  C 204.25 233.84 195.95 240.62 193.16 242.14
  A 0.67 0.66 -35.5 0 1 192.35 242.01
  C 191.81 241.44 193.36 240.45 192.63 239.31
  A 0.94 0.92 -17.5 0 0 191.79 238.88
  Q 181.23 239.37 171.46 243.43
  A 0.76 0.74 79.1 0 0 171.00 244.13
  L 171.00 256.23
  A 0.40 0.39 -14.8 0 0 171.59 256.57
  C 174.00 255.26 175.71 253.74 178.29 252.92
  Q 186.03 250.43 193.55 249.87
  Q 195.89 249.70 194.98 251.86
  C 192.16 258.56 185.38 264.51 179.97 269.17
  C 177.31 271.47 175.29 273.93 173.09 276.50
  A 1.17 1.16 -41.6 0 0 173.00 277.92
  Q 175.05 280.94 173.44 284.16
  A 0.78 0.77 12.0 0 0 174.17 285.28
  C 184.42 284.83 193.39 280.90 202.11 275.85
  Q 203.18 275.24 202.93 276.44
  C 202.84 276.90 202.74 277.37 202.44 277.75
  C 194.10 288.39 172.99 297.89 159.61 294.14
  A 0.78 0.78 0.0 0 1 159.03 293.40
  Q 159.00 290.06 160.90 287.24
  Q 162.00 285.61 161.08 283.89
  C 156.38 275.07 152.93 270.86 152.89 260.50
  C 152.88 255.01 155.38 252.26 158.85 247.77
  C 160.18 246.04 160.93 244.25 158.61 243.03
  A 1.23 1.22 49.4 0 0 157.64 242.95
  Q 151.64 244.92 146.62 248.76
  Q 144.83 250.14 144.95 252.39
  Q 145.38 260.85 144.54 270.00
  C 143.03 279.02 132.40 289.63 122.67 290.13
  A 0.58 0.57 0.5 0 0 122.13 290.65
  Q 121.82 294.01 122.08 297.19
  Q 124.15 322.70 123.96 350.03
  A 3.22 3.20 -25.0 0 1 123.22 352.05
  Q 119.25 356.76 114.33 360.47
  A 1.25 1.25 0.0 0 1 112.36 359.75
  Q 111.81 357.44 112.98 355.41
  Q 114.07 353.52 114.05 351.35
  C 113.87 329.65 111.64 306.66 111.97 284.18
  Q 111.98 283.68 111.62 284.02
  C 103.23 292.00 97.36 300.04 85.69 302.41
  C 70.12 305.56 54.45 304.27 50.97 285.53
  C 46.52 261.60 62.59 239.81 83.45 229.71
  Q 101.38 221.02 121.35 220.32
  A 0.59 0.59 0.0 0 1 121.96 220.90
  L 122.10 235.70
  A 0.40 0.40 0.0 0 0 122.70 236.05
  C 128.97 232.45 134.22 228.61 142.08 230.29
  Z
  M 84.11 236.51
  L 82.86 253.42
  A 0.39 0.39 0.0 0 0 83.41 253.80
  C 92.48 249.58 101.81 245.79 111.51 245.70
  A 0.50 0.50 0.0 0 0 112.00 245.20
  L 112.00 230.72
  A 0.52 0.51 88.9 0 0 111.47 230.20
  Q 97.65 230.71 84.76 235.64
  A 1.02 1.02 0.0 0 0 84.11 236.51
  Z
  M 73.35 240.05
  C 63.76 246.31 59.61 258.82 60.33 269.32
  C 60.99 278.90 62.29 286.54 71.37 291.73
  A 0.28 0.27 16.3 0 0 71.78 291.51
  L 72.94 266.78
  A 0.33 0.33 0.0 0 0 72.50 266.45
  L 70.96 266.96
  A 0.79 0.79 0.0 0 1 70.27 266.86
  L 70.06 266.71
  A 0.54 0.53 -51.9 0 1 69.97 265.92
  L 72.29 263.22
  A 2.18 2.15 67.5 0 0 72.82 261.91
  L 74.06 240.45
  Q 74.11 239.55 73.35 240.05
  Z
  M 130.58 239.98
  Q 126.39 239.76 122.59 241.29
  A 0.82 0.81 -11.4 0 0 122.08 242.04
  L 121.96 269.51
  Q 121.96 270.21 122.42 269.68
  L 134.74 255.71
  A 1.20 1.18 61.4 0 0 135.02 254.73
  L 133.18 242.34
  Q 132.85 240.09 130.58 239.98
  Z
  M 107.20 261.02
  C 104.57 251.56 89.47 257.46 83.68 260.23
  A 1.03 1.02 80.0 0 0 83.10 261.07
  Q 81.80 276.43 82.43 291.82
  Q 82.50 293.73 84.42 293.60
  Q 88.93 293.30 94.42 292.31
  C 110.23 289.45 110.57 273.16 107.20 261.02
  Z
  M 177.82 267.53
  Q 181.66 264.16 184.95 260.20
  Q 185.38 259.68 184.71 259.76
  Q 177.93 260.58 171.35 262.44
  A 0.74 0.72 -11.0 0 0 170.82 263.21
  L 171.76 272.45
  Q 171.84 273.30 172.51 272.76
  C 174.45 271.15 176.11 269.03 177.82 267.53
  Z
  M 126.79 279.60
  L 131.75 280.12
  Q 134.90 280.45 134.92 277.28
  L 135.04 261.03
  Q 135.04 260.28 134.50 260.81
  C 129.91 265.35 123.40 271.09 125.26 278.28
  A 1.78 1.77 85.7 0 0 126.79 279.60
  Z"
/>
<path fill="#080808" d="
  M 294.50 227.21
  C 301.09 226.69 298.83 235.29 298.71 239.00
  L 279.26 278.35
  A 0.30 0.30 0.0 0 0 279.53 278.78
  Q 288.75 278.67 292.18 287.79
  C 297.57 302.10 301.68 318.96 286.04 328.76
  A 0.78 0.77 46.5 0 1 285.17 328.73
  Q 284.52 328.26 285.02 327.29
  C 286.87 323.70 287.44 321.36 286.99 317.15
  C 286.28 310.50 283.19 291.59 275.35 289.20
  Q 273.38 288.60 271.98 290.11
  C 265.91 296.65 259.66 304.08 252.12 307.98
  Q 250.16 309.00 250.21 306.79
  C 250.45 295.19 261.73 285.19 271.51 280.68
  A 3.91 3.89 -88.8 0 0 273.39 278.87
  Q 280.48 264.74 287.30 250.05
  Q 289.88 244.49 288.68 238.37
  A 1.54 1.54 0.0 0 0 287.12 237.12
  L 263.82 237.75
  A 2.00 1.99 2.0 0 0 261.89 239.55
  C 260.82 250.16 261.23 260.00 261.25 270.27
  Q 261.26 275.22 264.63 278.87
  A 0.68 0.68 0.0 0 1 264.69 279.70
  Q 261.15 285.08 255.71 288.61
  A 0.63 0.62 51.3 0 1 254.92 288.52
  C 249.27 282.57 250.90 266.42 250.98 258.63
  C 251.08 249.22 250.84 243.44 258.87 238.87
  A 0.35 0.35 0.0 0 0 258.94 238.31
  L 258.75 238.12
  A 0.50 0.47 62.7 0 0 258.41 238.00
  Q 257.16 238.08 256.08 237.45
  A 0.67 0.66 29.7 0 1 255.83 236.55
  C 258.55 231.57 262.57 228.10 268.48 227.96
  Q 281.53 227.65 294.50 227.21
  Z
  M 266.76 289.72
  C 262.65 289.30 260.17 292.79 260.94 296.66
  Q 261.13 297.61 261.74 296.86
  L 267.04 290.40
  Q 267.53 289.80 266.76 289.72
  Z"
/>
<path fill="#080808" d="
  M 215.81 255.94
  Q 223.44 254.33 230.79 251.67
  A 1.45 1.45 0.0 0 0 231.74 250.31
  L 231.76 238.95
  Q 231.76 236.41 233.71 234.78
  L 239.59 229.83
  Q 241.71 228.05 241.72 230.82
  L 241.76 244.73
  Q 241.77 245.80 242.49 245.02
  Q 244.10 243.29 246.16 242.13
  Q 247.48 241.39 246.83 242.76
  Q 245.50 245.56 242.98 247.36
  A 2.87 2.86 -17.6 0 0 241.78 249.67
  Q 241.63 265.33 242.19 279.69
  C 242.26 281.42 242.84 283.08 243.34 284.66
  A 2.63 2.62 54.7 0 1 242.94 287.03
  Q 239.59 291.53 234.64 294.18
  A 1.05 1.05 0.0 0 1 233.13 293.51
  C 230.43 282.76 231.67 268.59 231.78 257.42
  Q 231.79 256.39 230.92 256.93
  Q 223.66 261.42 215.50 263.91
  A 0.61 0.60 -6.8 0 0 215.06 264.46
  Q 214.65 274.11 215.95 283.66
  A 1.32 1.29 -76.7 0 0 216.47 284.53
  C 221.23 287.96 211.79 294.84 209.27 296.82
  A 1.42 1.42 0.0 0 1 207.11 296.32
  C 205.77 293.47 205.23 289.97 205.18 286.48
  Q 204.89 267.29 205.71 248.10
  C 205.92 243.17 210.60 239.13 214.66 237.27
  A 1.05 1.05 0.0 0 1 216.14 238.27
  L 215.38 255.57
  A 0.36 0.35 85.1 0 0 215.81 255.94
  Z"
/>
<path fill="#ffffff" d="
  M 84.11 236.51
  A 1.02 1.02 0.0 0 1 84.76 235.64
  Q 97.65 230.71 111.47 230.20
  A 0.52 0.51 88.9 0 1 112.00 230.72
  L 112.00 245.20
  A 0.50 0.50 0.0 0 1 111.51 245.70
  C 101.81 245.79 92.48 249.58 83.41 253.80
  A 0.39 0.39 0.0 0 1 82.86 253.42
  L 84.11 236.51
  Z"
/>
<path fill="#ffffff" d="
  M 60.33 269.32
  C 59.61 258.82 63.76 246.31 73.35 240.05
  Q 74.11 239.55 74.06 240.45
  L 72.82 261.91
  A 2.18 2.15 67.5 0 1 72.29 263.22
  L 69.97 265.92
  A 0.54 0.53 -51.9 0 0 70.06 266.71
  L 70.27 266.86
  A 0.79 0.79 0.0 0 0 70.96 266.96
  L 72.50 266.45
  A 0.33 0.33 0.0 0 1 72.94 266.78
  L 71.78 291.51
  A 0.28 0.27 16.3 0 1 71.37 291.73
  C 62.29 286.54 60.99 278.90 60.33 269.32
  Z"
/>
<path fill="#ffffff" d="
  M 130.58 239.98
  Q 132.85 240.09 133.18 242.34
  L 135.02 254.73
  A 1.20 1.18 61.4 0 1 134.74 255.71
  L 122.42 269.68
  Q 121.96 270.21 121.96 269.51
  L 122.08 242.04
  A 0.82 0.81 -11.4 0 1 122.59 241.29
  Q 126.39 239.76 130.58 239.98
  Z"
/>
<path fill="#ffffff" d="
  M 83.68 260.23
  C 89.47 257.46 104.57 251.56 107.20 261.02
  C 110.57 273.16 110.23 289.45 94.42 292.31
  Q 88.93 293.30 84.42 293.60
  Q 82.50 293.73 82.43 291.82
  Q 81.80 276.43 83.10 261.07
  A 1.03 1.02 80.0 0 1 83.68 260.23
  Z"
/>
<path fill="#d7d7d7" d="
  M 177.82 267.53
  C 176.11 269.03 174.45 271.15 172.51 272.76
  Q 171.84 273.30 171.76 272.45
  L 170.82 263.21
  A 0.74 0.72 -11.0 0 1 171.35 262.44
  Q 177.93 260.58 184.71 259.76
  Q 185.38 259.68 184.95 260.20
  Q 181.66 264.16 177.82 267.53
  Z"
/>
<path fill="#ffffff" d="
  M 126.79 279.60
  A 1.78 1.77 85.7 0 1 125.26 278.28
  C 123.40 271.09 129.91 265.35 134.50 260.81
  Q 135.04 260.28 135.04 261.03
  L 134.92 277.28
  Q 134.90 280.45 131.75 280.12
  L 126.79 279.60
  Z"
/>
<path fill="#d7d7d7" d="
  M 260.94 296.66
  C 260.17 292.79 262.65 289.30 266.76 289.72
  Q 267.53 289.80 267.04 290.40
  L 261.74 296.86
  Q 261.13 297.61 260.94 296.66
  Z"
/>
</svg>
