<?xml version="1.0" encoding="UTF-8" standalone="no"?>
<!-- Created with Inkscape (http://www.inkscape.org/) -->

<svg
   xmlns:dc="http://purl.org/dc/elements/1.1/"
   xmlns:cc="http://creativecommons.org/ns#"
   xmlns:rdf="http://www.w3.org/1999/02/22-rdf-syntax-ns#"
   xmlns:svg="http://www.w3.org/2000/svg"
   xmlns="http://www.w3.org/2000/svg"
   xmlns:sodipodi="http://sodipodi.sourceforge.net/DTD/sodipodi-0.dtd"
   xmlns:inkscape="http://www.inkscape.org/namespaces/inkscape"
   width="400"
   height="600"
   viewBox="0 0 105.83333 158.75"
   version="1.1"
   id="svg8"
   inkscape:version="0.92.4 (5da689c313, 2019-01-14)"
   sodipodi:docname="15_m.svg">
  <defs
     id="defs2" />
  <sodipodi:namedview
     id="base"
     pagecolor="#ffffff"
     bordercolor="#666666"
     borderopacity="1.0"
     inkscape:pageopacity="0.0"
     inkscape:pageshadow="2"
     inkscape:zoom="1.2816667"
     inkscape:cx="200"
     inkscape:cy="362.41873"
     inkscape:document-units="mm"
     inkscape:current-layer="layer1"
     showgrid="false"
     units="px"
     showguides="true"
     inkscape:guide-bbox="true"
     inkscape:window-width="1280"
     inkscape:window-height="968"
     inkscape:window-x="0"
     inkscape:window-y="0"
     inkscape:window-maximized="1">
    <sodipodi:guide
       position="20.78869,60.476191"
       orientation="1,0"
       id="guide859"
       inkscape:locked="false" />
    <sodipodi:guide
       position="20.78869,128.88988"
       orientation="1,0"
       id="guide863"
       inkscape:locked="false" />
    <sodipodi:guide
       position="12.85119,57.641369"
       orientation="1,0"
       id="guide865"
       inkscape:locked="false" />
    <sodipodi:guide
       position="32.339612,108.51143"
       orientation="0,1"
       id="guide867"
       inkscape:locked="false" />
    <sodipodi:guide
       position="-9.0871638,97.553376"
       orientation="0,1"
       id="guide2596"
       inkscape:locked="false" />
    <sodipodi:guide
       position="-16.036171,64.144687"
       orientation="0,1"
       id="guide2598"
       inkscape:locked="false" />
  </sodipodi:namedview>
  <metadata
     id="metadata5">
    <rdf:RDF>
      <cc:Work
         rdf:about="">
        <dc:format>image/svg+xml</dc:format>
        <dc:type
           rdf:resource="http://purl.org/dc/dcmitype/StillImage" />
        <dc:title></dc:title>
      </cc:Work>
    </rdf:RDF>
  </metadata>
  <g
     inkscape:label="Layer 1"
     inkscape:groupmode="layer"
     id="layer1"
     transform="translate(0,-138.24998)">
    <rect
       style="opacity:1;fill:#ffffff;fill-opacity:0.60101007;stroke:#000000;stroke-width:0.27790931;stroke-miterlimit:4;stroke-dasharray:none;stroke-dashoffset:0;stroke-opacity:1"
       id="rect10"
       width="105.4538"
       height="158.75175"
       x="0.17799145"
       y="138.24911"
       ry="7.9375877" />
    <flowRoot
       xml:space="preserve"
       id="flowRoot851"
       style="fill:black;fill-opacity:1;stroke:none;font-family:sans-serif;font-style:normal;font-weight:normal;font-size:40px;line-height:0;letter-spacing:0px;word-spacing:0px"><flowRegion
         id="flowRegion853"><rect
           id="rect855"
           width="114.28571"
           height="65.714287"
           x="47.142857"
           y="194.28572" /></flowRegion><flowPara
         id="flowPara857" /></flowRoot>    <text
       xml:space="preserve"
       style="font-style:normal;font-weight:normal;font-size:33.90801239px;line-height:0;font-family:sans-serif;letter-spacing:0px;word-spacing:0px;fill:#666666;fill-opacity:1;stroke:none;stroke-width:0.84770024"
       x="15.076199"
       y="174.63515"
       id="text827"><tspan
         sodipodi:role="line"
         id="tspan825"
         x="15.076199"
         y="174.63515"
         style="font-style:normal;font-variant:normal;font-weight:bold;font-stretch:normal;font-family:Arsenal;-inkscape-font-specification:'Arsenal Bold';fill:#666666;stroke-width:0.84770024">15</tspan></text>
    <g
       id="g19201"
       transform="matrix(0.21121606,0,0,0.21121606,5.7194559,176.34866)">
      <g
         id="g19035"
         style="fill:none;stroke-width:2;stroke-linecap:butt">
        <path
           id="path18935"
           d="m 302.94,367 c 2.13,-0.99 5.47,-3.74 3.73,-6.52 a 1.37,1.35 33.4 0 1 -0.19,-0.88 l 0.28,-2.12 a 1.16,1.16 0 0 0 -0.17,-0.76 l -0.98,-1.59 a 0.69,0.69 0 0 1 0.11,-0.87 l 4.52,-4.3 a 0.79,0.78 -30.6 0 0 0.21,-0.81 q -0.72,-2.15 -1.16,-4.39 c -0.5,-2.57 -1.83,-3.95 -3.13,-6.07 a 1.46,1.42 33.6 0 1 -0.2,-0.92 q 0.72,-5.84 1.16,-11.7 c 0.36,-4.7 -1.74,-10.02 -2.26,-14.86 q -0.44,-4.05 -1.36,-8.33 -1.79,-8.3 -1.14,-16.89 0.13,-1.69 -1.31,-5.6 c -1.73,-4.66 0.52,-8.47 -0.28,-13.15 a 1.5,1.46 53.6 0 1 0.13,-0.93 q 1.25,-2.6 0.87,-4.31 -1.76,-7.71 -0.97,-15.51 c 0.31,-3.05 -0.8,-4.96 -2.09,-7.49"
           inkscape:connector-curvature="0"
           style="vector-effect:non-scaling-stroke;stroke:#ebebeb" />
        <path
           id="path18937"
           d="m 298.71,239 c 0.12,-3.71 2.38,-12.31 -4.21,-11.79"
           inkscape:connector-curvature="0"
           style="vector-effect:non-scaling-stroke;stroke:#848484" />
        <path
           id="path18939"
           d="m 294.5,227.21 c -1.34,-3.29 -0.75,-6.6 -1.63,-9.53 q -0.79,-2.62 -1.81,-5.22 a 1.67,1.66 40.9 0 1 -0.07,-0.96 l 1.78,-7.68 a 1.22,1.17 80.9 0 1 0.51,-0.74 l 2.83,-1.9 a 1.16,1.15 -13 0 0 0.51,-0.81 q 0.47,-3.61 0.15,-7.21 c -0.23,-2.55 -2.74,-5.12 -2.45,-7.41 q 1.58,-12.52 1.57,-25.17 0,-2.25 -1.01,-4.61 c -2.29,-5.4 -1.03,-11.5 -2.12,-17.34 a 1.26,1.24 59.5 0 1 0.25,-1 l 2.25,-2.88 a 0.91,0.9 51.7 0 0 0.11,-0.95 c -2.7,-5.64 -1.93,-9.3 0.21,-14.92 1.25,-3.29 0.78,-3.97 -0.04,-7.14 q -0.73,-2.85 0.81,-7.69"
           inkscape:connector-curvature="0"
           style="vector-effect:non-scaling-stroke;stroke:#ebebeb" />
        <path
           id="path18941"
           d="m 296.35,104.05 c 10.13,-8.88 16.89,-16.92 18.64,-30.31 q 0.07,-0.5 0.34,-0.07 1.08,1.65 1.73,3.52 c 1.12,3.16 2.56,5.4 3.76,8.25 a 1.06,1.06 0 0 1 -0.06,0.95 l -20.37,34.82 q -1.46,2.5 1.52,3.03 c 2.34,0.41 13.86,-10.53 13.05,-11.79 a 0.65,0.65 0 0 0 -0.87,-0.22 l -3.05,1.77 a 0.3,0.3 0 0 1 -0.45,-0.24 c -0.16,-2.62 8.92,-16.29 10.78,-19.51 q 0.57,-0.97 0.59,0.15 0.16,7.16 -0.06,14.67 c -0.3,9.83 1.77,18.54 13.63,18.59 q 2.13,0 3.84,-1.27 9.39,-7.01 15.6,-16.93 a 0.93,0.93 0 0 1 0.81,-0.44 c 3.32,0.05 6.29,0.51 9.25,-1.36 q 7.24,-4.56 12.57,-11.43 0.54,-0.7 0.51,0.18 -0.79,27.78 1.67,55.36 0.25,2.83 0.18,5.48 a 1.48,1.47 -5.4 0 1 -1.18,1.42 c -6.75,1.42 -12.94,1.7 -18.19,-3.5 q -6.61,-6.55 -6.83,-15.81 -0.02,-0.7 -0.6,-0.31 c -5.92,4 -11.46,7.78 -8.09,16.06 q 7.64,18.77 25.76,12.93 c 6.99,-2.25 14.8,-9.63 17.79,-16.33 2.75,-6.15 0.53,-17.44 -0.12,-26.71 q -1.1,-15.87 -0.36,-47.15 c 0.16,-6.93 1.44,-14.82 1.68,-22.35 q 0.08,-2.25 -1.93,-1.22 c -4.98,2.54 -10.26,7.34 -9.96,13.46 0.58,11.8 -0.35,19.76 -6.44,30.02 q -1.27,2.13 -3.69,1.54 C 358.98,97.16 360.94,87.26 361,80.53 a 0.32,0.32 0 0 0 -0.47,-0.28 c -9.16,4.9 -10.5,10.21 -9.48,20.12 q 0.18,1.74 -0.97,0.43 -8.13,-9.29 -15.29,-19.25 c -2.74,-3.8 -2.21,-6.03 0.1,-9.69 Q 345.88,54.42 359.33,38.7 a 0.4,0.4 0 0 0 -0.22,-0.66 c -4.62,-0.96 -20.23,21.06 -22.92,25.24 q -1.59,2.48 -1.28,-0.45 0.31,-2.82 1.47,-7.42 3.16,-12.57 6.71,-25.16 0.14,-0.48 -0.34,-0.32 c -6.7,2.29 -8.9,6.62 -10.91,13.65 q -2.84,9.95 -5.28,20.06 -0.34,1.4 -0.96,0.09 C 324,60.38 324.05,54.1 323.73,50.29 q -0.22,-2.59 -2.82,-2.37 -4.27,0.35 -7.75,2.71 a 0.48,0.47 57.3 0 1 -0.67,-0.15 q -2.62,-4.25 -6.55,-4.38 -14.86,-0.49 -26.4,10.65"
           inkscape:connector-curvature="0"
           style="vector-effect:non-scaling-stroke;stroke:#848484" />
        <path
           id="path18943"
           d="m 279.54,56.75 q -2.77,-1.88 -6.04,-2.79"
           inkscape:connector-curvature="0"
           style="vector-effect:non-scaling-stroke;stroke:#ebebeb" />
        <path
           id="path18945"
           d="m 273.5,53.96 q 1.45,-1.91 1.25,-4.17 a 0.62,0.62 0 0 0 -0.58,-0.56 l -5.42,-0.27"
           inkscape:connector-curvature="0"
           style="vector-effect:non-scaling-stroke;stroke:#848484" />
        <path
           id="path18947"
           d="m 268.75,48.96 -0.62,-2.07 a 0.98,0.98 0 0 0 -0.6,-0.64 c -5.79,-2.12 -7.95,-4.43 -11.33,-9.6 -2.52,-3.86 -6.4,-4.8 -10.69,-3.86 a 0.78,0.78 0 0 1 -0.78,-0.26 l -4.78,-5.57 a 1.26,1.26 0 0 0 -0.89,-0.44 q -3.78,-0.22 -7.5,0.45 c -4.78,0.85 -5.72,0.5 -8.63,-3.01 a 1.12,1.11 49 0 0 -1.61,-0.12 q -2.73,2.44 -6.28,3.34 a 1.6,1.5 46.8 0 1 -0.94,-0.06 q -3.05,-1.13 -4.09,-1 -8.38,1.06 -15.39,-3.52 a 0.88,0.88 0 0 0 -0.93,-0.02 l -8.95,5.28 a 1.38,1.37 -54.1 0 1 -0.98,0.16 l -3.66,-0.77 a 1.09,1.07 27.3 0 0 -1,0.31 l -4.06,4.28 q -0.39,0.41 -0.9,0.61 -4.45,1.76 -9.1,0.45 a 1.13,1.13 0 0 0 -0.98,0.16 c -6.57,4.63 -14.94,12.26 -17.56,19.9"
           inkscape:connector-curvature="0"
           style="vector-effect:non-scaling-stroke;stroke:#ebebeb" />
        <path
           id="path18949"
           d="m 146.5,52.96 c -8.73,0.11 -15.71,-1.16 -22.02,6.05 q -0.5,0.57 -1.71,0.88 a 0.5,0.5 0 0 1 -0.59,-0.32 l -0.39,-1.13 a 0.61,0.6 65.6 0 0 -0.87,-0.33 c -4.31,2.5 -8.86,6.41 -8.89,11.89 q -0.09,14.1 0.15,28.19 c 0.21,11.86 4.17,20.8 17.32,21.35"
           inkscape:connector-curvature="0"
           style="vector-effect:non-scaling-stroke;stroke:#848484" />
        <path
           id="path18951"
           d="m 129.5,119.54 c 2.85,5.02 4.24,12.52 -2.25,15.17"
           inkscape:connector-curvature="0"
           style="vector-effect:non-scaling-stroke;stroke:#ebebeb" />
        <path
           id="path18953"
           d="m 127.25,134.71 q -7.11,1.12 -13.33,4.8 a 1,1 0 0 1 -0.87,0.06 c -3.34,-1.37 -11.92,8.56 -13.97,11.03 a 0.7,0.7 0 0 0 0.33,1.11 l 0.59,0.18 a 0.62,0.61 11.1 0 1 0.42,0.62 q -0.68,11.1 -1.34,22.21 c -0.51,8.46 -4.79,16.8 -9.42,23.75 a 1.19,1.17 -78 0 1 -0.77,0.51 c -7.59,1.45 -11.57,-2.89 -11.95,-10.02 q -1.03,-19.09 4.41,-37.95 0.57,-1.97 2.61,-2.09 1.96,-0.11 1.63,2.57 -0.67,5.39 -0.61,9.55 0.06,3.18 2.6,1.27 c 6.86,-5.16 8.81,-8.5 8.64,-17.28 -0.05,-2.45 0.67,-4.35 -2.01,-5.73 -1.46,-0.75 -5.37,-0.25 -7.11,0.81 -18.99,11.51 -21.28,37.77 -20.21,57.87 q 0.58,10.79 10.11,11.01 c 8.02,0.19 17.6,-10.61 21.83,-16.75 q 0.79,-1.13 0.94,0.24 l 1.45,12.74 a 0.57,0.57 0 0 0 0.77,0.47 l 1.2,-0.44 a 0.57,0.57 0 0 1 0.76,0.45 l 0.44,3.1 q 0.29,2.05 2.35,2.22 c 13.83,1.09 22.63,-6.02 31.46,-15.75 q 0.34,-0.37 0.49,0.11 c 1.47,4.57 0.25,8.44 4.1,12.62"
           inkscape:connector-curvature="0"
           style="vector-effect:non-scaling-stroke;stroke:#848484" />
        <path
           id="path18955"
           d="m 142.79,208 q -2.32,6.92 -2.57,14.24 a 1.68,1.66 30.7 0 0 0.24,0.93 q 2.01,3.4 1.62,7.12"
           inkscape:connector-curvature="0"
           style="vector-effect:non-scaling-stroke;stroke:#ebebeb" />
        <path
           id="path18957"
           d="m 142.08,230.29 c -7.86,-1.68 -13.11,2.16 -19.38,5.76 a 0.4,0.4 0 0 1 -0.6,-0.35 l -0.14,-14.8 a 0.59,0.59 0 0 0 -0.61,-0.58 q -19.97,0.7 -37.9,9.39 c -20.86,10.1 -36.93,31.89 -32.48,55.82 3.48,18.74 19.15,20.03 34.72,16.88 11.67,-2.37 17.54,-10.41 25.93,-18.39 q 0.36,-0.34 0.35,0.16 c -0.33,22.48 1.9,45.47 2.08,67.17 q 0.02,2.17 -1.07,4.06 -1.17,2.03 -0.62,4.34 a 1.25,1.25 0 0 0 1.97,0.72 q 4.92,-3.71 8.89,-8.42 a 3.22,3.2 -25 0 0 0.74,-2.02 q 0.19,-27.33 -1.88,-52.84 -0.26,-3.18 0.05,-6.54 a 0.58,0.57 0.5 0 1 0.54,-0.52 c 9.73,-0.5 20.36,-11.11 21.87,-20.13"
           inkscape:connector-curvature="0"
           style="vector-effect:non-scaling-stroke;stroke:#848484" />
        <path
           id="path18959"
           d="m 144.54,270 q 3.84,0.52 4.72,4.31 a 0.88,0.87 -26.2 0 1 -0.31,0.89 l -1.37,1.09 a 1.17,1.16 -19.3 0 0 -0.44,0.91 q -0.01,6.26 3.69,11.18 1.01,1.34 1.14,3.02 0.51,6.85 1.28,13.67 c 0.51,4.49 2.99,7.53 -0.41,12.28 a 0.98,0.97 53.2 0 0 -0.12,0.89 q 3.2,8.68 3.61,13.34 0.18,2.01 -2.07,5.15 a 0.85,0.83 45.1 0 0 0.01,0.97 l 1.7,2.36 a 1.43,1.38 -65.3 0 1 0.27,0.77 q 0.28,5.75 -3.69,9.77 a 1.18,1.18 0 0 0 -0.33,0.91 q 0.11,1.32 1.26,2.02 a 0.83,0.82 22.8 0 1 0.38,0.91 l -1.02,4.26 q -0.11,0.44 -0.03,0.89 c 0.35,2.09 0.28,7.12 2.88,7.41"
           inkscape:connector-curvature="0"
           style="vector-effect:non-scaling-stroke;stroke:#ebebeb" />
        <path
           id="path18961"
           d="m 103.97,23.4 q 0.4,4.36 -0.6,8.18 C 96.3,58.65 94.84,86.42 95.1,114.12 q 0.02,2.02 0.8,3.87 1.24,2.93 4.49,3.08 a 1.43,1.39 -62.2 0 0 0.92,-0.3 c 2.1,-1.62 9.5,-8 9.63,-11.13 q 0.03,-0.69 -0.58,-0.34 l -2.03,1.17 a 1.46,1.45 60.5 0 1 -2,-0.56 q -1.14,-2.04 -1.19,-4.35 c -0.69,-27.85 1.63,-54.86 8.06,-81.96 0.76,-3.22 0.79,-6.34 0.94,-9.64 a 0.45,0.44 0 0 0 -0.48,-0.47 c -13.63,0.8 -26.72,7.35 -39.97,12.95 -2.37,1 -8.31,5.2 -8.86,8.59 a 0.63,0.62 10.9 0 0 0.48,0.7 L 66.47,36 a 0.41,0.4 26.7 0 1 0.22,0.66 l -0.87,0.98 a 1.67,1.64 -23.5 0 0 -0.4,0.99 q -1.97,40.58 3.45,80.82 a 4.99,4.94 -37.7 0 1 -0.35,2.63 q -0.65,1.53 0.09,2.93 a 0.66,0.66 0 0 0 0.97,0.23 q 4.87,-3.42 8.71,-8 1.31,-1.57 1.03,-3.6 Q 73.74,73.47 75.2,32.93 a 0.89,0.87 78.3 0 1 0.49,-0.76 q 13.17,-6.51 27.62,-9.27 a 0.56,0.56 0 0 1 0.66,0.5"
           inkscape:connector-curvature="0"
           style="vector-effect:non-scaling-stroke;stroke:#848484" />
        <path
           id="path18963"
           d="m 268.75,48.96 c -14.22,0.25 -30.44,5.71 -36.41,19.62 q -5.98,13.92 -9.64,29.21 -0.41,1.73 -2.15,2.11 l -2.79,0.62 q -0.49,0.1 -0.26,-0.33 c 9.22,-17.41 13.68,-34.33 10.75,-54.41 -1.12,-7.63 -6.59,-3.8 -11.41,-4.39 a 1.4,1.38 31.8 0 0 -0.92,0.21 c -7.91,5.02 -14.03,10.42 -16.42,19.9 q -0.68,2.69 -0.52,14.56 c 0.11,7.78 -3.2,16.13 -6.11,23.25 a 0.79,0.76 -79.7 0 1 -0.68,0.49 l -8.62,0.33 A 0.38,0.37 -80 0 1 183.21,99.6 C 189.04,85.78 198,60.99 193.87,46.29 a 1.97,1.96 79.8 0 0 -2.05,-1.43 c -10.35,0.84 -22.54,5.43 -28.86,14.11 q -0.64,0.88 -0.54,1.87 a 0.4,0.39 -17.7 0 0 0.59,0.3 q 8.89,-4.93 18.98,-6.4 a 1.92,1.92 0 0 1 2.15,1.47 c 2.86,12.49 -3.09,30.54 -7.6,42.31 q -0.39,1.02 -0.42,-0.07 l -0.18,-5.57 a 0.82,0.81 -80.6 0 0 -0.53,-0.75 q -0.73,-0.27 -1.4,0.42 -1.1,1.1 -1.03,-0.8 l 1.21,-32.19 a 1.22,1.22 0 0 0 -1.78,-1.13 c -3.34,1.74 -7.87,5.69 -8.11,9.95 -0.82,14.41 -1.85,28.91 -0.63,43.31 a 1,0.97 -23.3 0 1 -0.34,0.82 c -5.66,4.76 -11.24,10.64 -9.26,18.87 a 1.15,1.14 -9.1 0 0 1.21,0.87 c 7.02,-0.51 18.02,-14.01 21.58,-19.64 2.66,-4.19 6.98,-5.13 10.12,-0.66 q 1.63,2.32 0.79,5.02 -4.15,13.32 -2.68,27.26 a 0.68,0.67 -18.7 0 0 1.02,0.5 c 4.61,-2.78 14.23,-10.45 13.93,-16.48 q -0.15,-3.13 0.05,-6.34 a 1.17,1.13 74.7 0 1 0.47,-0.85 q 6.08,-4.37 10.54,-10.43 a 1.61,1.57 8.5 0 1 0.79,-0.57 c 2.6,-0.8 7.89,-2.74 7.13,2.69 q -0.44,3.15 -0.92,18.25 -0.09,2.97 0.81,5.45 a 0.79,0.78 -24 0 0 1.1,0.42 c 13.95,-7.21 11.37,-19.27 10.25,-32.37 -0.04,-0.49 0.1,-9.84 1.25,-9.75 a 0.2,0.2 0 0 1 0.17,0.17 c 0.18,1.66 2.93,17.17 3.84,17.16 a 3.36,3.35 -65.7 0 0 2.13,-0.81 q 4.35,-3.73 6.85,-3.26 c 1.69,0.31 14.55,0.86 20.15,-1.83 a 0.7,0.69 55.8 0 1 0.81,0.16 q 3.95,4.37 9.89,4.62 a 0.65,0.64 1 0 1 0.62,0.63 q 0.31,26.73 -1.67,53.38 a 0.26,0.26 0 0 0 0.37,0.25 c 7.18,-3.34 10.05,-8.31 10.46,-16.31 q 1,-19.47 0.93,-38.96 a 0.82,0.81 76 0 1 0.43,-0.72 l 9.86,-5.18"
           inkscape:connector-curvature="0"
           style="vector-effect:non-scaling-stroke;stroke:#707070" />
        <path
           id="path18965"
           d="m 294.5,227.21 q -12.97,0.44 -26.02,0.75 c -5.91,0.14 -9.93,3.61 -12.65,8.59 a 0.67,0.66 29.7 0 0 0.25,0.9 q 1.08,0.63 2.33,0.55 a 0.5,0.47 62.7 0 1 0.34,0.12 l 0.19,0.19 a 0.35,0.35 0 0 1 -0.07,0.56 c -8.03,4.57 -7.79,10.35 -7.89,19.76 -0.08,7.79 -1.71,23.94 3.94,29.89 a 0.63,0.62 51.3 0 0 0.79,0.09 q 5.44,-3.53 8.98,-8.91 a 0.68,0.68 0 0 0 -0.06,-0.83 q -3.37,-3.65 -3.38,-8.6 c -0.02,-10.27 -0.43,-20.11 0.64,-30.72 a 2,1.99 2 0 1 1.93,-1.8 l 23.3,-0.63 a 1.54,1.54 0 0 1 1.56,1.25 q 1.2,6.12 -1.38,11.68 -6.82,14.69 -13.91,28.82 a 3.91,3.89 -88.8 0 1 -1.88,1.81 c -9.78,4.51 -21.06,14.51 -21.3,26.11 q -0.05,2.21 1.91,1.19 c 7.54,-3.9 13.79,-11.33 19.86,-17.87 q 1.4,-1.51 3.37,-0.91 c 7.84,2.39 10.93,21.3 11.64,27.95 0.45,4.21 -0.12,6.55 -1.97,10.14 q -0.5,0.97 0.15,1.44 a 0.78,0.77 46.5 0 0 0.87,0.03 c 15.64,-9.8 11.53,-26.66 6.14,-40.97 q -3.43,-9.12 -12.65,-9.01 a 0.3,0.3 0 0 1 -0.27,-0.43 L 298.71,239"
           inkscape:connector-curvature="0"
           style="vector-effect:non-scaling-stroke;stroke:#707070" />
        <path
           id="path18967"
           d="m 144.54,270 q 0.84,-9.15 0.41,-17.61 -0.12,-2.25 1.67,-3.63 5.02,-3.84 11.02,-5.81 a 1.23,1.22 49.4 0 1 0.97,0.08 c 2.32,1.22 1.57,3.01 0.24,4.74 -3.47,4.49 -5.97,7.24 -5.96,12.73 0.04,10.36 3.49,14.57 8.19,23.39 q 0.92,1.72 -0.18,3.35 -1.9,2.82 -1.87,6.16 a 0.78,0.78 0 0 0 0.58,0.74 c 13.38,3.75 34.49,-5.75 42.83,-16.39 0.3,-0.38 0.4,-0.85 0.49,-1.31 q 0.25,-1.2 -0.82,-0.59 c -8.72,5.05 -17.69,8.98 -27.94,9.43 a 0.78,0.77 12 0 1 -0.73,-1.12 q 1.61,-3.22 -0.44,-6.24 a 1.17,1.16 -41.6 0 1 0.09,-1.42 c 2.2,-2.57 4.22,-5.03 6.88,-7.33 5.41,-4.66 12.19,-10.61 15.01,-17.31 q 0.91,-2.16 -1.43,-1.99 -7.52,0.56 -15.26,3.05 c -2.58,0.82 -4.29,2.34 -6.7,3.65 A 0.4,0.39 -14.8 0 1 171,256.23 v -12.1 a 0.76,0.74 79.1 0 1 0.46,-0.7 q 9.77,-4.06 20.33,-4.55 a 0.94,0.92 -17.5 0 1 0.84,0.43 c 0.73,1.14 -0.82,2.13 -0.28,2.7 a 0.67,0.66 -35.5 0 0 0.81,0.13 c 2.79,-1.52 11.09,-8.3 10.22,-11.96 a 1.92,1.91 -8.3 0 0 -1.97,-1.46 q -15.64,0.87 -29.08,8.64 -0.82,0.47 -1.44,0.58 a 0.79,0.79 0 0 1 -0.92,-0.89 q 0.34,-2.24 -1.27,-3.75 a 1.25,1.24 64.1 0 0 -0.94,-0.33 c -7.19,0.46 -16.42,7.83 -22.16,12.78 q -0.37,0.32 -0.45,-0.17 c -0.92,-5.44 -1.56,-9.94 -3.07,-15.29"
           inkscape:connector-curvature="0"
           style="vector-effect:non-scaling-stroke;stroke:#707070" />
        <path
           id="path18969"
           d="m 142.79,208 q 9.65,6.7 19.21,-0.01 16.23,-11.39 20.41,-30.77 0.12,-0.57 0.42,-0.06 c 0.82,1.39 0.36,17.29 0.6,20.48 a 1.77,1.71 -33 0 1 -0.23,1 l -6.79,11.88 a 1.07,1.06 19.4 0 0 0.76,1.58 c 1.88,0.29 7.46,-6.32 8.91,-7.87 a 0.37,0.37 0 0 1 0.61,0.11 c 2.97,7.4 11.05,-2.21 13.26,-5.18 a 1.09,1.09 0 0 0 -0.25,-1.54 q -3.94,-2.7 -5.56,-7.21 a 0.98,0.97 52.4 0 1 0.11,-0.88 l 17.94,-27.29 q 1.79,-2.72 1.78,0.54 c -0.01,5.76 -2.05,33.29 4.7,35.95 4,1.58 10.13,-5.8 12.32,-8.6 q 1.39,-1.78 -0.8,-1.23 c -5.1,1.27 -5.78,-6.43 -5.89,-10.15 q -0.44,-13.58 -0.28,-27.14 0.01,-0.91 -0.72,-0.37 l -4.77,3.52 q -0.92,0.67 -0.2,-0.21 c 0.73,-0.91 4.99,-5.65 4.67,-6.46 a 0.51,0.5 66.8 0 0 -0.68,-0.28 q -4.27,2 -7.67,6.1 -11.61,14.02 -20.59,28.67 -1.05,1.71 -1.05,-0.3 L 193,149.95 q 0,-3.35 -2.36,-0.96 l -6.94,7.05 q -0.29,0.28 -0.39,-0.11 c -2.59,-10.02 -14.9,-14.18 -24.07,-13.95 -8.02,0.2 -15.05,8.99 -23.04,16.49 q -2.43,2.28 -6.45,1.49"
           inkscape:connector-curvature="0"
           style="vector-effect:non-scaling-stroke;stroke:#707070" />
        <path
           id="path18971"
           d="m 129.75,159.96 q 0.62,-5.36 -0.44,-10.68 a 0.57,0.57 0 0 0 -0.27,-0.38 l -0.25,-0.15"
           inkscape:connector-curvature="0"
           style="vector-effect:non-scaling-stroke;stroke:#ebebeb" />
        <path
           id="path18973"
           d="m 128.79,148.75 q 2.85,-6.06 2.2,-12.71 a 1.01,1.01 0 0 0 -0.49,-0.77 q -1.44,-0.85 -3.25,-0.56"
           inkscape:connector-curvature="0"
           style="vector-effect:non-scaling-stroke;stroke:#707070" />
        <path
           id="path18975"
           d="m 129.5,119.54 c 5.29,-0.49 7.58,-2.81 12.24,-6.72 13.47,-11.28 17.87,-26.25 17.5,-43.21 -0.19,-8.87 -3.8,-14.86 -12.74,-16.65"
           inkscape:connector-curvature="0"
           style="vector-effect:non-scaling-stroke;stroke:#707070" />
        <path
           id="path18977"
           d="m 201.8415,137.4957 a 0.99,0.99 0 0 0 -0.005,-1.4 l -0.0426,-0.0423 a 0.99,0.99 0 0 0 -1.4,0.005 l -7.2155,7.266 a 0.99,0.99 0 0 0 0.005,1.4 l 0.0426,0.0423 a 0.99,0.99 0 0 0 1.4,-0.005 l 7.2155,-7.266"
           inkscape:connector-curvature="0"
           style="vector-effect:non-scaling-stroke;stroke:#707070" />
        <path
           id="path18979"
           d="m 215.38,255.57 0.76,-17.3 a 1.05,1.05 0 0 0 -1.48,-1 c -4.06,1.86 -8.74,5.9 -8.95,10.83 q -0.82,19.19 -0.53,38.38 c 0.05,3.49 0.59,6.99 1.93,9.84 a 1.42,1.42 0 0 0 2.16,0.5 c 2.52,-1.98 11.96,-8.86 7.2,-12.29 a 1.32,1.29 -76.7 0 1 -0.52,-0.87 q -1.3,-9.55 -0.89,-19.2 a 0.61,0.6 -6.8 0 1 0.44,-0.55 q 8.16,-2.49 15.42,-6.98 0.87,-0.54 0.86,0.49 c -0.11,11.17 -1.35,25.34 1.35,36.09 a 1.05,1.05 0 0 0 1.51,0.67 q 4.95,-2.65 8.3,-7.15 a 2.63,2.62 54.7 0 0 0.4,-2.37 c -0.5,-1.58 -1.08,-3.24 -1.15,-4.97 q -0.56,-14.36 -0.41,-30.02 a 2.87,2.86 -17.6 0 1 1.2,-2.31 q 2.52,-1.8 3.85,-4.6 0.65,-1.37 -0.67,-0.63 -2.06,1.16 -3.67,2.89 -0.72,0.78 -0.73,-0.29 l -0.04,-13.91 q -0.01,-2.77 -2.13,-0.99 l -5.88,4.95 q -1.95,1.63 -1.95,4.17 l -0.02,11.36 a 1.45,1.45 0 0 1 -0.95,1.36 q -7.35,2.66 -14.98,4.27 a 0.36,0.35 85.1 0 1 -0.43,-0.37"
           inkscape:connector-curvature="0"
           style="vector-effect:non-scaling-stroke;stroke:#707070" />
        <path
           id="path18981"
           d="m 273.5,53.96 q -2.92,3.3 -6.65,5.5 a 1.33,1.31 -55.1 0 1 -0.92,0.17 q -10.35,-1.87 -20.3,1.39 a 0.88,0.87 -9.3 0 0 -0.6,0.83 L 245,71.32 a 0.92,0.92 0 0 0 1.02,0.92 q 9.99,-1.03 19.73,-3.26 0.65,-0.15 2.64,0.09 a 0.63,0.62 2.3 0 1 0.54,0.58 c 0.15,2.45 -4.56,6.4 -6.62,7.89 q -1.65,1.2 -4.02,1.47 -6.42,0.71 -12.81,2.23 a 0.64,0.64 0 0 0 -0.49,0.62 l 0.02,14.61 a 0.86,0.86 0 0 0 0.76,0.85 q 8.59,0.94 17.2,0.64 a 0.81,0.81 0 0 0 0.74,-0.55 c 2.53,-7.22 7.55,-13.23 12.78,-18.53 a 1.43,1.4 -20.1 0 0 0.41,-0.86 c 0.4,-4.17 -0.1,-13.58 2.05,-16.76 q 0.4,-0.6 -0.27,-0.35 -0.44,0.15 -0.75,0.54 a 0.61,0.61 0 0 1 -0.86,0.08 c -1.18,-0.99 1.78,-4.02 2.47,-4.78"
           inkscape:connector-curvature="0"
           style="vector-effect:non-scaling-stroke;stroke:#707070" />
        <path
           id="path18983"
           d="m 217.82,53.19 a 1.79,1.57 -87 0 0 -1.58,1.63 q -1.66,17.35 -1.17,34.81 0.02,0.49 0.42,0.22 0.22,-0.15 0.33,-0.53 4.82,-17.13 2.63,-34.34 -0.23,-1.79 -0.63,-1.79"
           inkscape:connector-curvature="0"
           style="vector-effect:non-scaling-stroke;stroke:#707070" />
        <path
           id="path18985"
           d="m 288.02,57.99 c 0.02,4.23 -0.28,7.01 -0.82,10.58 q -0.08,0.53 0.31,0.16 6.05,-5.53 12.78,-10.24 1.63,-1.13 -0.29,-1.65 -5.79,-1.55 -11.47,0.43 a 0.76,0.74 -10.3 0 0 -0.51,0.72"
           inkscape:connector-curvature="0"
           style="vector-effect:non-scaling-stroke;stroke:#848484" />
        <path
           id="path18987"
           d="m 287.11,77.13 q 0.03,11.62 -1.06,22.9 a 0.43,0.43 0 0 0 0.48,0.47 l 6.97,-0.96"
           inkscape:connector-curvature="0"
           style="vector-effect:non-scaling-stroke;stroke:#707070" />
        <path
           id="path18989"
           d="m 293.5,99.54 c 15.07,-2.25 11.56,-28.42 9.45,-38.13 a 0.36,0.36 0 0 0 -0.57,-0.21 l -14.66,10.83 a 1.19,1.18 -17.7 0 0 -0.47,0.9 l -0.14,4.2"
           inkscape:connector-curvature="0"
           style="vector-effect:non-scaling-stroke;stroke:#848484" />
        <path
           id="path18991"
           d="m 293.5,99.54 q -0.56,-4.86 -2.04,-9.53 c -0.82,-2.57 0.66,-6.65 -1.08,-9.59 q -1.19,-2.03 -3.27,-3.29"
           inkscape:connector-curvature="0"
           style="vector-effect:non-scaling-stroke;stroke:#ebebeb" />
        <path
           id="path18993"
           d="m 275.96,83.9 c -2.15,3.54 -3.2,11.06 0.12,13.58 q 0.55,0.41 0.58,-0.28 l 0.42,-12.97 q 0.08,-2.3 -1.12,-0.33"
           inkscape:connector-curvature="0"
           style="vector-effect:non-scaling-stroke;stroke:#707070" />
        <path
           id="path18995"
           d="m 200.63,99.91 q -2.42,5.07 -1.36,10.6 a 1.16,1.16 0 0 0 1.76,0.76 l 2.51,-1.6 a 0.69,0.68 67.4 0 0 0.3,-0.75 l -2.18,-8.9 q -0.36,-1.51 -1.03,-0.11"
           inkscape:connector-curvature="0"
           style="vector-effect:non-scaling-stroke;stroke:#707070" />
        <path
           id="path18997"
           d="m 344.91,117.4 0.71,-1.37 a 0.65,0.64 32.5 0 0 -0.18,-0.81 q -7.6,-5.93 -12.93,-14.01 -0.33,-0.5 -0.41,0.09 c -1.15,8.64 2.2,16.07 11.78,16.68 a 1.07,1.07 0 0 0 1.03,-0.58"
           inkscape:connector-curvature="0"
           style="vector-effect:non-scaling-stroke;stroke:#848484" />
        <path
           id="path18999"
           d="m 170.65,112.36 c -4.56,1.04 -7.99,4.24 -6.71,9.02 q 0.54,1.99 1.87,0.42 3.41,-4.03 5.18,-9.05 0.18,-0.51 -0.34,-0.39"
           inkscape:connector-curvature="0"
           style="vector-effect:non-scaling-stroke;stroke:#707070" />
        <path
           id="path19001"
           d="m 128.79,104 q 4.73,7.27 12.97,4.47 a 1.55,1.52 -81.3 0 0 0.76,-0.57 c 5.87,-8.51 7.03,-21.42 6.69,-31.62 q -0.31,-9.22 -9.42,-12.53"
           inkscape:connector-curvature="0"
           style="vector-effect:non-scaling-stroke;stroke:#707070" />
        <path
           id="path19003"
           d="m 139.79,63.75 q -7.1,-1.42 -13.77,-0.62 a 1.44,1.44 0 0 0 -1.26,1.28 q -1.37,13.41 -0.68,26.78 0.34,6.45 4.71,12.81"
           inkscape:connector-curvature="0"
           style="vector-effect:non-scaling-stroke;stroke:#848484" />
        <path
           id="path19005"
           d="m 139.79,63.75 -0.2,0.92 q -0.1,0.49 -0.43,0.88 l -5.91,6.82 q -1.69,1.94 -0.67,4.31 2.7,6.22 -0.49,12.11 a 1.73,1.71 46.8 0 0 -0.04,1.55 q 3.97,8.47 -3.26,13.66"
           inkscape:connector-curvature="0"
           style="vector-effect:non-scaling-stroke;stroke:#ebebeb" />
        <path
           id="path19007"
           d="m 128.79,148.75 -5.5,11.48 q -0.18,0.4 0.25,0.35 l 6.21,-0.62"
           inkscape:connector-curvature="0"
           style="vector-effect:non-scaling-stroke;stroke:#848484" />
        <path
           id="path19009"
           d="m 113.3,146.51 c -0.37,2.96 -0.18,5.93 -0.66,8.57 q -1.14,6.2 -2.58,12.38 -0.11,0.49 0.32,0.24 c 6.52,-3.75 11.46,-14.21 10.53,-22.18 a 0.74,0.73 83.3 0 0 -0.81,-0.64 l -5.76,0.62 a 1.18,1.17 0.6 0 0 -1.04,1.01"
           inkscape:connector-curvature="0"
           style="vector-effect:non-scaling-stroke;stroke:#848484" />
        <path
           id="path19011"
           d="M 173.77,168.5 C 173.32,158.64 163.7,153.17 155,152.11 a 0.65,0.64 -76.2 0 0 -0.68,0.42 c -4.15,11.2 -4.36,21.94 -4.79,33.71 a 1.09,1.08 22.5 0 0 0.35,0.84 c 4.7,4.29 16.25,5.76 21.56,1.75 a 1.28,1.27 -13.3 0 0 0.49,-0.79 q 2.18,-12.19 1.84,-19.54"
           inkscape:connector-curvature="0"
           style="vector-effect:non-scaling-stroke;stroke:#707070" />
        <path
           id="path19013"
           d="m 123.24,170.25 c -7.63,-1.68 -9.34,4.34 -13.94,8.95 a 1.18,1.17 63.3 0 0 -0.33,1.01 l 1.2,7.54 q 0.15,0.94 0.66,0.14 5.73,-8.92 12.65,-16.92 a 0.44,0.44 0 0 0 -0.24,-0.72"
           inkscape:connector-curvature="0"
           style="vector-effect:non-scaling-stroke;stroke:#848484" />
        <path
           id="path19015"
           d="m 116.01,201.16 q 6.78,0.44 13.11,-1.95 2.24,-0.85 2.6,-3.22 1.93,-12.86 -3.48,-24.49 a 0.59,0.59 0 0 0 -0.99,-0.13 c -6.38,7.52 -13.58,17.26 -13.28,27.69 q 0.06,1.98 2.04,2.1"
           inkscape:connector-curvature="0"
           style="vector-effect:non-scaling-stroke;stroke:#848484" />
        <path
           id="path19017"
           d="m 109.35,173.88 q 0.83,0.27 0.9,-0.83 0.04,-0.5 -0.4,-0.26 l -0.57,0.32 q -0.85,0.47 0.07,0.77"
           inkscape:connector-curvature="0"
           style="vector-effect:non-scaling-stroke;stroke:#707070" />
        <path
           id="path19019"
           d="m 160.35,200.79 c 6.2,1.71 8.62,-2.95 10.19,-8.06 q 0.15,-0.5 -0.26,-0.19 c -3.69,2.77 -5.43,5.98 -9.96,7.74 q -0.75,0.29 0.03,0.51"
           inkscape:connector-curvature="0"
           style="vector-effect:non-scaling-stroke;stroke:#707070" />
        <path
           id="path19021"
           d="m 84.11,236.51 -1.25,16.91 a 0.39,0.39 0 0 0 0.55,0.38 c 9.07,-4.22 18.4,-8.01 28.1,-8.1 a 0.5,0.5 0 0 0 0.49,-0.5 v -14.48 a 0.52,0.51 88.9 0 0 -0.53,-0.52 q -13.82,0.51 -26.71,5.44 a 1.02,1.02 0 0 0 -0.65,0.87"
           inkscape:connector-curvature="0"
           style="vector-effect:non-scaling-stroke;stroke:#848484" />
        <path
           id="path19023"
           d="m 73.35,240.05 c -9.59,6.26 -13.74,18.77 -13.02,29.27 0.66,9.58 1.96,17.22 11.04,22.41 a 0.28,0.27 16.3 0 0 0.41,-0.22 l 1.16,-24.73 a 0.33,0.33 0 0 0 -0.44,-0.33 l -1.54,0.51 a 0.79,0.79 0 0 1 -0.69,-0.1 l -0.21,-0.15 a 0.54,0.53 -51.9 0 1 -0.09,-0.79 l 2.32,-2.7 a 2.18,2.15 67.5 0 0 0.53,-1.31 l 1.24,-21.46 q 0.05,-0.9 -0.71,-0.4"
           inkscape:connector-curvature="0"
           style="vector-effect:non-scaling-stroke;stroke:#848484" />
        <path
           id="path19025"
           d="m 130.58,239.98 q -4.19,-0.22 -7.99,1.31 a 0.82,0.81 -11.4 0 0 -0.51,0.75 l -0.12,27.47 q 0,0.7 0.46,0.17 l 12.32,-13.97 a 1.2,1.18 61.4 0 0 0.28,-0.98 l -1.84,-12.39 q -0.33,-2.25 -2.6,-2.36"
           inkscape:connector-curvature="0"
           style="vector-effect:non-scaling-stroke;stroke:#848484" />
        <path
           id="path19027"
           d="m 107.2,261.02 c -2.63,-9.46 -17.73,-3.56 -23.52,-0.79 a 1.03,1.02 80 0 0 -0.58,0.84 q -1.3,15.36 -0.67,30.75 0.07,1.91 1.99,1.78 4.51,-0.3 10,-1.29 c 15.81,-2.86 16.15,-19.15 12.78,-31.29"
           inkscape:connector-curvature="0"
           style="vector-effect:non-scaling-stroke;stroke:#848484" />
        <path
           id="path19029"
           d="m 177.82,267.53 q 3.84,-3.37 7.13,-7.33 0.43,-0.52 -0.24,-0.44 -6.78,0.82 -13.36,2.68 a 0.74,0.72 -11 0 0 -0.53,0.77 l 0.94,9.24 q 0.08,0.85 0.75,0.31 c 1.94,-1.61 3.6,-3.73 5.31,-5.23"
           inkscape:connector-curvature="0"
           style="vector-effect:non-scaling-stroke;stroke:#707070" />
        <path
           id="path19031"
           d="m 126.79,279.6 4.96,0.52 q 3.15,0.33 3.17,-2.84 l 0.12,-16.25 q 0,-0.75 -0.54,-0.22 c -4.59,4.54 -11.1,10.28 -9.24,17.47 a 1.78,1.77 85.7 0 0 1.53,1.32"
           inkscape:connector-curvature="0"
           style="vector-effect:non-scaling-stroke;stroke:#848484" />
        <path
           id="path19033"
           d="m 266.76,289.72 c -4.11,-0.42 -6.59,3.07 -5.82,6.94 q 0.19,0.95 0.8,0.2 l 5.3,-6.46 q 0.49,-0.6 -0.28,-0.68"
           inkscape:connector-curvature="0"
           style="vector-effect:non-scaling-stroke;stroke:#707070" />
      </g>
      <path
         id="path19037"
         d="M 0,0 H 448 V 367 H 302.94 c 2.13,-0.99 5.47,-3.74 3.73,-6.52 a 1.37,1.35 33.4 0 1 -0.19,-0.88 l 0.28,-2.12 a 1.16,1.16 0 0 0 -0.17,-0.76 l -0.98,-1.59 a 0.69,0.69 0 0 1 0.11,-0.87 l 4.52,-4.3 a 0.79,0.78 -30.6 0 0 0.21,-0.81 q -0.72,-2.15 -1.16,-4.39 c -0.5,-2.57 -1.83,-3.95 -3.13,-6.07 a 1.46,1.42 33.6 0 1 -0.2,-0.92 q 0.72,-5.84 1.16,-11.7 c 0.36,-4.7 -1.74,-10.02 -2.26,-14.86 q -0.44,-4.05 -1.36,-8.33 -1.79,-8.3 -1.14,-16.89 0.13,-1.69 -1.31,-5.6 c -1.73,-4.66 0.52,-8.47 -0.28,-13.15 a 1.5,1.46 53.6 0 1 0.13,-0.93 q 1.25,-2.6 0.87,-4.31 -1.76,-7.71 -0.97,-15.51 c 0.31,-3.05 -0.8,-4.96 -2.09,-7.49 0.12,-3.71 2.38,-12.31 -4.21,-11.79 -1.34,-3.29 -0.75,-6.6 -1.63,-9.53 q -0.79,-2.62 -1.81,-5.22 a 1.67,1.66 40.9 0 1 -0.07,-0.96 l 1.78,-7.68 a 1.22,1.17 80.9 0 1 0.51,-0.74 l 2.83,-1.9 a 1.16,1.15 -13 0 0 0.51,-0.81 q 0.47,-3.61 0.15,-7.21 c -0.23,-2.55 -2.74,-5.12 -2.45,-7.41 q 1.58,-12.52 1.57,-25.17 0,-2.25 -1.01,-4.61 c -2.29,-5.4 -1.03,-11.5 -2.12,-17.34 a 1.26,1.24 59.5 0 1 0.25,-1 l 2.25,-2.88 a 0.91,0.9 51.7 0 0 0.11,-0.95 c -2.7,-5.64 -1.93,-9.3 0.21,-14.92 1.25,-3.29 0.78,-3.97 -0.04,-7.14 q -0.73,-2.85 0.81,-7.69 c 10.13,-8.88 16.89,-16.92 18.64,-30.31 q 0.07,-0.5 0.34,-0.07 1.08,1.65 1.73,3.52 c 1.12,3.16 2.56,5.4 3.76,8.25 a 1.06,1.06 0 0 1 -0.06,0.95 l -20.37,34.82 q -1.46,2.5 1.52,3.03 c 2.34,0.41 13.86,-10.53 13.05,-11.79 a 0.65,0.65 0 0 0 -0.87,-0.22 l -3.05,1.77 a 0.3,0.3 0 0 1 -0.45,-0.24 c -0.16,-2.62 8.92,-16.29 10.78,-19.51 q 0.57,-0.97 0.59,0.15 0.16,7.16 -0.06,14.67 c -0.3,9.83 1.77,18.54 13.63,18.59 q 2.13,0 3.84,-1.27 9.39,-7.01 15.6,-16.93 a 0.93,0.93 0 0 1 0.81,-0.44 c 3.32,0.05 6.29,0.51 9.25,-1.36 q 7.24,-4.56 12.57,-11.43 0.54,-0.7 0.51,0.18 -0.79,27.78 1.67,55.36 0.25,2.83 0.18,5.48 a 1.48,1.47 -5.4 0 1 -1.18,1.42 c -6.75,1.42 -12.94,1.7 -18.19,-3.5 q -6.61,-6.55 -6.83,-15.81 -0.02,-0.7 -0.6,-0.31 c -5.92,4 -11.46,7.78 -8.09,16.06 q 7.64,18.77 25.76,12.93 c 6.99,-2.25 14.8,-9.63 17.79,-16.33 2.75,-6.15 0.53,-17.44 -0.12,-26.71 q -1.1,-15.87 -0.36,-47.15 c 0.16,-6.93 1.44,-14.82 1.68,-22.35 q 0.08,-2.25 -1.93,-1.22 c -4.98,2.54 -10.26,7.34 -9.96,13.46 0.58,11.8 -0.35,19.76 -6.44,30.02 q -1.27,2.13 -3.69,1.54 C 358.98,97.16 360.94,87.26 361,80.53 a 0.32,0.32 0 0 0 -0.47,-0.28 c -9.16,4.9 -10.5,10.21 -9.48,20.12 q 0.18,1.74 -0.97,0.43 -8.13,-9.29 -15.29,-19.25 c -2.74,-3.8 -2.21,-6.03 0.1,-9.69 Q 345.88,54.42 359.33,38.7 a 0.4,0.4 0 0 0 -0.22,-0.66 c -4.62,-0.96 -20.23,21.06 -22.92,25.24 q -1.59,2.48 -1.28,-0.45 0.31,-2.82 1.47,-7.42 3.16,-12.57 6.71,-25.16 0.14,-0.48 -0.34,-0.32 c -6.7,2.29 -8.9,6.62 -10.91,13.65 q -2.84,9.95 -5.28,20.06 -0.34,1.4 -0.96,0.09 C 324,60.38 324.05,54.1 323.73,50.29 q -0.22,-2.59 -2.82,-2.37 -4.27,0.35 -7.75,2.71 a 0.48,0.47 57.3 0 1 -0.67,-0.15 q -2.62,-4.25 -6.55,-4.38 -14.86,-0.49 -26.4,10.65 -2.77,-1.88 -6.04,-2.79 1.45,-1.91 1.25,-4.17 a 0.62,0.62 0 0 0 -0.58,-0.56 l -5.42,-0.27 -0.62,-2.07 a 0.98,0.98 0 0 0 -0.6,-0.64 c -5.79,-2.12 -7.95,-4.43 -11.33,-9.6 -2.52,-3.86 -6.4,-4.8 -10.69,-3.86 a 0.78,0.78 0 0 1 -0.78,-0.26 l -4.78,-5.57 a 1.26,1.26 0 0 0 -0.89,-0.44 q -3.78,-0.22 -7.5,0.45 c -4.78,0.85 -5.72,0.5 -8.63,-3.01 a 1.12,1.11 49 0 0 -1.61,-0.12 q -2.73,2.44 -6.28,3.34 a 1.6,1.5 46.8 0 1 -0.94,-0.06 q -3.05,-1.13 -4.09,-1 -8.38,1.06 -15.39,-3.52 a 0.88,0.88 0 0 0 -0.93,-0.02 l -8.95,5.28 a 1.38,1.37 -54.1 0 1 -0.98,0.16 l -3.66,-0.77 a 1.09,1.07 27.3 0 0 -1,0.31 l -4.06,4.28 q -0.39,0.41 -0.9,0.61 -4.45,1.76 -9.1,0.45 a 1.13,1.13 0 0 0 -0.98,0.16 c -6.57,4.63 -14.94,12.26 -17.56,19.9 -8.73,0.11 -15.71,-1.16 -22.02,6.05 q -0.5,0.57 -1.71,0.88 a 0.5,0.5 0 0 1 -0.59,-0.32 l -0.39,-1.13 a 0.61,0.6 65.6 0 0 -0.87,-0.33 c -4.31,2.5 -8.86,6.41 -8.89,11.89 q -0.09,14.1 0.15,28.19 c 0.21,11.86 4.17,20.8 17.32,21.35 2.85,5.02 4.24,12.52 -2.25,15.17 q -7.11,1.12 -13.33,4.8 a 1,1 0 0 1 -0.87,0.06 c -3.34,-1.37 -11.92,8.56 -13.97,11.03 a 0.7,0.7 0 0 0 0.33,1.11 l 0.59,0.18 a 0.62,0.61 11.1 0 1 0.42,0.62 q -0.68,11.1 -1.34,22.21 c -0.51,8.46 -4.79,16.8 -9.42,23.75 a 1.19,1.17 -78 0 1 -0.77,0.51 c -7.59,1.45 -11.57,-2.89 -11.95,-10.02 q -1.03,-19.09 4.41,-37.95 0.57,-1.97 2.61,-2.09 1.96,-0.11 1.63,2.57 -0.67,5.39 -0.61,9.55 0.06,3.18 2.6,1.27 c 6.86,-5.16 8.81,-8.5 8.64,-17.28 -0.05,-2.45 0.67,-4.35 -2.01,-5.73 -1.46,-0.75 -5.37,-0.25 -7.11,0.81 -18.99,11.51 -21.28,37.77 -20.21,57.87 q 0.58,10.79 10.11,11.01 c 8.02,0.19 17.6,-10.61 21.83,-16.75 q 0.79,-1.13 0.94,0.24 l 1.45,12.74 a 0.57,0.57 0 0 0 0.77,0.47 l 1.2,-0.44 a 0.57,0.57 0 0 1 0.76,0.45 l 0.44,3.1 q 0.29,2.05 2.35,2.22 c 13.83,1.09 22.63,-6.02 31.46,-15.75 q 0.34,-0.37 0.49,0.11 c 1.47,4.57 0.25,8.44 4.1,12.62 q -2.32,6.92 -2.57,14.24 a 1.68,1.66 30.7 0 0 0.24,0.93 q 2.01,3.4 1.62,7.12 c -7.86,-1.68 -13.11,2.16 -19.38,5.76 a 0.4,0.4 0 0 1 -0.6,-0.35 l -0.14,-14.8 a 0.59,0.59 0 0 0 -0.61,-0.58 q -19.97,0.7 -37.9,9.39 c -20.86,10.1 -36.93,31.89 -32.48,55.82 3.48,18.74 19.15,20.03 34.72,16.88 11.67,-2.37 17.54,-10.41 25.93,-18.39 q 0.36,-0.34 0.35,0.16 c -0.33,22.48 1.9,45.47 2.08,67.17 q 0.02,2.17 -1.07,4.06 -1.17,2.03 -0.62,4.34 a 1.25,1.25 0 0 0 1.97,0.72 q 4.92,-3.71 8.89,-8.42 a 3.22,3.2 -25 0 0 0.74,-2.02 q 0.19,-27.33 -1.88,-52.84 -0.26,-3.18 0.05,-6.54 a 0.58,0.57 0.5 0 1 0.54,-0.52 c 9.73,-0.5 20.36,-11.11 21.87,-20.13 q 3.84,0.52 4.72,4.31 a 0.88,0.87 -26.2 0 1 -0.31,0.89 l -1.37,1.09 a 1.17,1.16 -19.3 0 0 -0.44,0.91 q -0.01,6.26 3.69,11.18 1.01,1.34 1.14,3.02 0.51,6.85 1.28,13.67 c 0.51,4.49 2.99,7.53 -0.41,12.28 a 0.98,0.97 53.2 0 0 -0.12,0.89 q 3.2,8.68 3.61,13.34 0.18,2.01 -2.07,5.15 a 0.85,0.83 45.1 0 0 0.01,0.97 l 1.7,2.36 a 1.43,1.38 -65.3 0 1 0.27,0.77 q 0.28,5.75 -3.69,9.77 a 1.18,1.18 0 0 0 -0.33,0.91 q 0.11,1.32 1.26,2.02 a 0.83,0.82 22.8 0 1 0.38,0.91 l -1.02,4.26 q -0.11,0.44 -0.03,0.89 c 0.35,2.09 0.28,7.12 2.88,7.41 H 0 Z m 103.97,23.4 q 0.4,4.36 -0.6,8.18 C 96.3,58.65 94.84,86.42 95.1,114.12 q 0.02,2.02 0.8,3.87 1.24,2.93 4.49,3.08 a 1.43,1.39 -62.2 0 0 0.92,-0.3 c 2.1,-1.62 9.5,-8 9.63,-11.13 q 0.03,-0.69 -0.58,-0.34 l -2.03,1.17 a 1.46,1.45 60.5 0 1 -2,-0.56 q -1.14,-2.04 -1.19,-4.35 c -0.69,-27.85 1.63,-54.86 8.06,-81.96 0.76,-3.22 0.79,-6.34 0.94,-9.64 a 0.45,0.44 0 0 0 -0.48,-0.47 c -13.63,0.8 -26.72,7.35 -39.97,12.95 -2.37,1 -8.31,5.2 -8.86,8.59 a 0.63,0.62 10.9 0 0 0.48,0.7 L 66.47,36 a 0.41,0.4 26.7 0 1 0.22,0.66 l -0.87,0.98 a 1.67,1.64 -23.5 0 0 -0.4,0.99 q -1.97,40.58 3.45,80.82 a 4.99,4.94 -37.7 0 1 -0.35,2.63 q -0.65,1.53 0.09,2.93 a 0.66,0.66 0 0 0 0.97,0.23 q 4.87,-3.42 8.71,-8 1.31,-1.57 1.03,-3.6 Q 73.74,73.47 75.2,32.93 a 0.89,0.87 78.3 0 1 0.49,-0.76 q 13.17,-6.51 27.62,-9.27 a 0.56,0.56 0 0 1 0.66,0.5 z"
         inkscape:connector-curvature="0"
         style="fill:#ffffff" />
      <path
         id="path19039"
         d="m 103.31,22.9 q -14.45,2.76 -27.62,9.27 a 0.89,0.87 78.3 0 0 -0.49,0.76 q -1.46,40.54 4.12,80.71 0.28,2.03 -1.03,3.6 -3.84,4.58 -8.71,8 a 0.66,0.66 0 0 1 -0.97,-0.23 q -0.74,-1.4 -0.09,-2.93 a 4.99,4.94 -37.7 0 0 0.35,-2.63 Q 63.45,79.21 65.42,38.63 a 1.67,1.64 -23.5 0 1 0.4,-0.99 l 0.87,-0.98 A 0.41,0.4 26.7 0 0 66.47,36 l -1.16,-0.27 a 0.63,0.62 10.9 0 1 -0.48,-0.7 c 0.55,-3.39 6.49,-7.59 8.86,-8.59 13.25,-5.6 26.34,-12.15 39.97,-12.95 a 0.45,0.44 0 0 1 0.48,0.47 c -0.15,3.3 -0.18,6.42 -0.94,9.64 -6.43,27.1 -8.75,54.11 -8.06,81.96 q 0.05,2.31 1.19,4.35 a 1.46,1.45 60.5 0 0 2,0.56 l 2.03,-1.17 q 0.61,-0.35 0.58,0.34 c -0.13,3.13 -7.53,9.51 -9.63,11.13 a 1.43,1.39 -62.2 0 1 -0.92,0.3 q -3.25,-0.15 -4.49,-3.08 -0.78,-1.85 -0.8,-3.87 c -0.26,-27.7 1.2,-55.47 8.27,-82.54 q 1,-3.82 0.6,-8.18 a 0.56,0.56 0 0 0 -0.66,-0.5 z"
         inkscape:connector-curvature="0"
         style="fill:#080808" />
      <path
         id="path19041"
         d="m 268.75,48.96 c -14.22,0.25 -30.44,5.71 -36.41,19.62 q -5.98,13.92 -9.64,29.21 -0.41,1.73 -2.15,2.11 l -2.79,0.62 q -0.49,0.1 -0.26,-0.33 c 9.22,-17.41 13.68,-34.33 10.75,-54.41 -1.12,-7.63 -6.59,-3.8 -11.41,-4.39 a 1.4,1.38 31.8 0 0 -0.92,0.21 c -7.91,5.02 -14.03,10.42 -16.42,19.9 q -0.68,2.69 -0.52,14.56 c 0.11,7.78 -3.2,16.13 -6.11,23.25 a 0.79,0.76 -79.7 0 1 -0.68,0.49 l -8.62,0.33 A 0.38,0.37 -80 0 1 183.21,99.6 C 189.04,85.78 198,60.99 193.87,46.29 a 1.97,1.96 79.8 0 0 -2.05,-1.43 c -10.35,0.84 -22.54,5.43 -28.86,14.11 q -0.64,0.88 -0.54,1.87 a 0.4,0.39 -17.7 0 0 0.59,0.3 q 8.89,-4.93 18.98,-6.4 a 1.92,1.92 0 0 1 2.15,1.47 c 2.86,12.49 -3.09,30.54 -7.6,42.31 q -0.39,1.02 -0.42,-0.07 l -0.18,-5.57 a 0.82,0.81 -80.6 0 0 -0.53,-0.75 q -0.73,-0.27 -1.4,0.42 -1.1,1.1 -1.03,-0.8 l 1.21,-32.19 a 1.22,1.22 0 0 0 -1.78,-1.13 c -3.34,1.74 -7.87,5.69 -8.11,9.95 -0.82,14.41 -1.85,28.91 -0.63,43.31 a 1,0.97 -23.3 0 1 -0.34,0.82 c -5.66,4.76 -11.24,10.64 -9.26,18.87 a 1.15,1.14 -9.1 0 0 1.21,0.87 c 7.02,-0.51 18.02,-14.01 21.58,-19.64 2.66,-4.19 6.98,-5.13 10.12,-0.66 q 1.63,2.32 0.79,5.02 -4.15,13.32 -2.68,27.26 a 0.68,0.67 -18.7 0 0 1.02,0.5 c 4.61,-2.78 14.23,-10.45 13.93,-16.48 q -0.15,-3.13 0.05,-6.34 a 1.17,1.13 74.7 0 1 0.47,-0.85 q 6.08,-4.37 10.54,-10.43 a 1.61,1.57 8.5 0 1 0.79,-0.57 c 2.6,-0.8 7.89,-2.74 7.13,2.69 q -0.44,3.15 -0.92,18.25 -0.09,2.97 0.81,5.45 a 0.79,0.78 -24 0 0 1.1,0.42 c 13.95,-7.21 11.37,-19.27 10.25,-32.37 -0.04,-0.49 0.1,-9.84 1.25,-9.75 a 0.2,0.2 0 0 1 0.17,0.17 c 0.18,1.66 2.93,17.17 3.84,17.16 a 3.36,3.35 -65.7 0 0 2.13,-0.81 q 4.35,-3.73 6.85,-3.26 c 1.69,0.31 14.55,0.86 20.15,-1.83 a 0.7,0.69 55.8 0 1 0.81,0.16 q 3.95,4.37 9.89,4.62 a 0.65,0.64 1 0 1 0.62,0.63 q 0.31,26.73 -1.67,53.38 a 0.26,0.26 0 0 0 0.37,0.25 c 7.18,-3.34 10.05,-8.31 10.46,-16.31 q 1,-19.47 0.93,-38.96 a 0.82,0.81 76 0 1 0.43,-0.72 l 9.86,-5.18 q -1.54,4.84 -0.81,7.69 c 0.82,3.17 1.29,3.85 0.04,7.14 -2.14,5.62 -2.91,9.28 -0.21,14.92 a 0.91,0.9 51.7 0 1 -0.11,0.95 l -2.25,2.88 a 1.26,1.24 59.5 0 0 -0.25,1 c 1.09,5.84 -0.17,11.94 2.12,17.34 q 1.01,2.36 1.01,4.61 0.01,12.65 -1.57,25.17 c -0.29,2.29 2.22,4.86 2.45,7.41 q 0.32,3.6 -0.15,7.21 a 1.16,1.15 -13 0 1 -0.51,0.81 l -2.83,1.9 a 1.22,1.17 80.9 0 0 -0.51,0.74 l -1.78,7.68 a 1.67,1.66 40.9 0 0 0.07,0.96 q 1.02,2.6 1.81,5.22 c 0.88,2.93 0.29,6.24 1.63,9.53 q -12.97,0.44 -26.02,0.75 c -5.91,0.14 -9.93,3.61 -12.65,8.59 a 0.67,0.66 29.7 0 0 0.25,0.9 q 1.08,0.63 2.33,0.55 a 0.5,0.47 62.7 0 1 0.34,0.12 l 0.19,0.19 a 0.35,0.35 0 0 1 -0.07,0.56 c -8.03,4.57 -7.79,10.35 -7.89,19.76 -0.08,7.79 -1.71,23.94 3.94,29.89 a 0.63,0.62 51.3 0 0 0.79,0.09 q 5.44,-3.53 8.98,-8.91 a 0.68,0.68 0 0 0 -0.06,-0.83 q -3.37,-3.65 -3.38,-8.6 c -0.02,-10.27 -0.43,-20.11 0.64,-30.72 a 2,1.99 2 0 1 1.93,-1.8 l 23.3,-0.63 a 1.54,1.54 0 0 1 1.56,1.25 q 1.2,6.12 -1.38,11.68 -6.82,14.69 -13.91,28.82 a 3.91,3.89 -88.8 0 1 -1.88,1.81 c -9.78,4.51 -21.06,14.51 -21.3,26.11 q -0.05,2.21 1.91,1.19 c 7.54,-3.9 13.79,-11.33 19.86,-17.87 q 1.4,-1.51 3.37,-0.91 c 7.84,2.39 10.93,21.3 11.64,27.95 0.45,4.21 -0.12,6.55 -1.97,10.14 q -0.5,0.97 0.15,1.44 a 0.78,0.77 46.5 0 0 0.87,0.03 c 15.64,-9.8 11.53,-26.66 6.14,-40.97 q -3.43,-9.12 -12.65,-9.01 a 0.3,0.3 0 0 1 -0.27,-0.43 L 298.71,239 c 1.29,2.53 2.4,4.44 2.09,7.49 q -0.79,7.8 0.97,15.51 0.38,1.71 -0.87,4.31 a 1.5,1.46 53.6 0 0 -0.13,0.93 c 0.8,4.68 -1.45,8.49 0.28,13.15 q 1.44,3.91 1.31,5.6 -0.65,8.59 1.14,16.89 0.92,4.28 1.36,8.33 c 0.52,4.84 2.62,10.16 2.26,14.86 q -0.44,5.86 -1.16,11.7 a 1.46,1.42 33.6 0 0 0.2,0.92 c 1.3,2.12 2.63,3.5 3.13,6.07 q 0.44,2.24 1.16,4.39 a 0.79,0.78 -30.6 0 1 -0.21,0.81 l -4.52,4.3 a 0.69,0.69 0 0 0 -0.11,0.87 l 0.98,1.59 a 1.16,1.16 0 0 1 0.17,0.76 l -0.28,2.12 a 1.37,1.35 33.4 0 0 0.19,0.88 c 1.74,2.78 -1.6,5.53 -3.73,6.52 H 155.69 c -2.6,-0.29 -2.53,-5.32 -2.88,-7.41 q -0.08,-0.45 0.03,-0.89 l 1.02,-4.26 a 0.83,0.82 22.8 0 0 -0.38,-0.91 q -1.15,-0.7 -1.26,-2.02 a 1.18,1.18 0 0 1 0.33,-0.91 q 3.97,-4.02 3.69,-9.77 a 1.43,1.38 -65.3 0 0 -0.27,-0.77 l -1.7,-2.36 a 0.85,0.83 45.1 0 1 -0.01,-0.97 q 2.25,-3.14 2.07,-5.15 -0.41,-4.66 -3.61,-13.34 a 0.98,0.97 53.2 0 1 0.12,-0.89 c 3.4,-4.75 0.92,-7.79 0.41,-12.28 q -0.77,-6.82 -1.28,-13.67 -0.13,-1.68 -1.14,-3.02 -3.7,-4.92 -3.69,-11.18 a 1.17,1.16 -19.3 0 1 0.44,-0.91 l 1.37,-1.09 a 0.88,0.87 -26.2 0 0 0.31,-0.89 q -0.88,-3.79 -4.72,-4.31 0.84,-9.15 0.41,-17.61 -0.12,-2.25 1.67,-3.63 5.02,-3.84 11.02,-5.81 a 1.23,1.22 49.4 0 1 0.97,0.08 c 2.32,1.22 1.57,3.01 0.24,4.74 -3.47,4.49 -5.97,7.24 -5.96,12.73 0.04,10.36 3.49,14.57 8.19,23.39 q 0.92,1.72 -0.18,3.35 -1.9,2.82 -1.87,6.16 a 0.78,0.78 0 0 0 0.58,0.74 c 13.38,3.75 34.49,-5.75 42.83,-16.39 0.3,-0.38 0.4,-0.85 0.49,-1.31 q 0.25,-1.2 -0.82,-0.59 c -8.72,5.05 -17.69,8.98 -27.94,9.43 a 0.78,0.77 12 0 1 -0.73,-1.12 q 1.61,-3.22 -0.44,-6.24 a 1.17,1.16 -41.6 0 1 0.09,-1.42 c 2.2,-2.57 4.22,-5.03 6.88,-7.33 5.41,-4.66 12.19,-10.61 15.01,-17.31 q 0.91,-2.16 -1.43,-1.99 -7.52,0.56 -15.26,3.05 c -2.58,0.82 -4.29,2.34 -6.7,3.65 A 0.4,0.39 -14.8 0 1 171,256.23 v -12.1 a 0.76,0.74 79.1 0 1 0.46,-0.7 q 9.77,-4.06 20.33,-4.55 a 0.94,0.92 -17.5 0 1 0.84,0.43 c 0.73,1.14 -0.82,2.13 -0.28,2.7 a 0.67,0.66 -35.5 0 0 0.81,0.13 c 2.79,-1.52 11.09,-8.3 10.22,-11.96 a 1.92,1.91 -8.3 0 0 -1.97,-1.46 q -15.64,0.87 -29.08,8.64 -0.82,0.47 -1.44,0.58 a 0.79,0.79 0 0 1 -0.92,-0.89 q 0.34,-2.24 -1.27,-3.75 a 1.25,1.24 64.1 0 0 -0.94,-0.33 c -7.19,0.46 -16.42,7.83 -22.16,12.78 q -0.37,0.32 -0.45,-0.17 c -0.92,-5.44 -1.56,-9.94 -3.07,-15.29 q 0.39,-3.72 -1.62,-7.12 a 1.68,1.66 30.7 0 1 -0.24,-0.93 q 0.25,-7.32 2.57,-14.24 9.65,6.7 19.21,-0.01 16.23,-11.39 20.41,-30.77 0.12,-0.57 0.42,-0.06 c 0.82,1.39 0.36,17.29 0.6,20.48 a 1.77,1.71 -33 0 1 -0.23,1 l -6.79,11.88 a 1.07,1.06 19.4 0 0 0.76,1.58 c 1.88,0.29 7.46,-6.32 8.91,-7.87 a 0.37,0.37 0 0 1 0.61,0.11 c 2.97,7.4 11.05,-2.21 13.26,-5.18 a 1.09,1.09 0 0 0 -0.25,-1.54 q -3.94,-2.7 -5.56,-7.21 a 0.98,0.97 52.4 0 1 0.11,-0.88 l 17.94,-27.29 q 1.79,-2.72 1.78,0.54 c -0.01,5.76 -2.05,33.29 4.7,35.95 4,1.58 10.13,-5.8 12.32,-8.6 q 1.39,-1.78 -0.8,-1.23 c -5.1,1.27 -5.78,-6.43 -5.89,-10.15 q -0.44,-13.58 -0.28,-27.14 0.01,-0.91 -0.72,-0.37 l -4.77,3.52 q -0.92,0.67 -0.2,-0.21 c 0.73,-0.91 4.99,-5.65 4.67,-6.46 a 0.51,0.5 66.8 0 0 -0.68,-0.28 q -4.27,2 -7.67,6.1 -11.61,14.02 -20.59,28.67 -1.05,1.71 -1.05,-0.3 L 193,149.95 q 0,-3.35 -2.36,-0.96 l -6.94,7.05 q -0.29,0.28 -0.39,-0.11 c -2.59,-10.02 -14.9,-14.18 -24.07,-13.95 -8.02,0.2 -15.05,8.99 -23.04,16.49 q -2.43,2.28 -6.45,1.49 0.62,-5.36 -0.44,-10.68 a 0.57,0.57 0 0 0 -0.27,-0.38 l -0.25,-0.15 q 2.85,-6.06 2.2,-12.71 a 1.01,1.01 0 0 0 -0.49,-0.77 q -1.44,-0.85 -3.25,-0.56 c 6.49,-2.65 5.1,-10.15 2.25,-15.17 5.29,-0.49 7.58,-2.81 12.24,-6.72 13.47,-11.28 17.87,-26.25 17.5,-43.21 -0.19,-8.87 -3.8,-14.86 -12.74,-16.65 2.62,-7.64 10.99,-15.27 17.56,-19.9 a 1.13,1.13 0 0 1 0.98,-0.16 q 4.65,1.31 9.1,-0.45 0.51,-0.2 0.9,-0.61 l 4.06,-4.28 a 1.09,1.07 27.3 0 1 1,-0.31 l 3.66,0.77 a 1.38,1.37 -54.1 0 0 0.98,-0.16 l 8.95,-5.28 a 0.88,0.88 0 0 1 0.93,0.02 q 7.01,4.58 15.39,3.52 1.04,-0.13 4.09,1 a 1.6,1.5 46.8 0 0 0.94,0.06 q 3.55,-0.9 6.28,-3.34 a 1.12,1.11 49 0 1 1.61,0.12 c 2.91,3.51 3.85,3.86 8.63,3.01 q 3.72,-0.67 7.5,-0.45 a 1.26,1.26 0 0 1 0.89,0.44 l 4.78,5.57 a 0.78,0.78 0 0 0 0.78,0.26 c 4.29,-0.94 8.17,0 10.69,3.86 3.38,5.17 5.54,7.48 11.33,9.6 a 0.98,0.98 0 0 1 0.6,0.64 z m -66.9085,88.5357 a 0.99,0.99 0 0 0 -0.005,-1.4 l -0.0426,-0.0423 a 0.99,0.99 0 0 0 -1.4,0.005 l -7.2155,7.266 a 0.99,0.99 0 0 0 0.005,1.4 l 0.0426,0.0423 a 0.99,0.99 0 0 0 1.4,-0.005 z M 215.38,255.57 l 0.76,-17.3 a 1.05,1.05 0 0 0 -1.48,-1 c -4.06,1.86 -8.74,5.9 -8.95,10.83 q -0.82,19.19 -0.53,38.38 c 0.05,3.49 0.59,6.99 1.93,9.84 a 1.42,1.42 0 0 0 2.16,0.5 c 2.52,-1.98 11.96,-8.86 7.2,-12.29 a 1.32,1.29 -76.7 0 1 -0.52,-0.87 q -1.3,-9.55 -0.89,-19.2 a 0.61,0.6 -6.8 0 1 0.44,-0.55 q 8.16,-2.49 15.42,-6.98 0.87,-0.54 0.86,0.49 c -0.11,11.17 -1.35,25.34 1.35,36.09 a 1.05,1.05 0 0 0 1.51,0.67 q 4.95,-2.65 8.3,-7.15 a 2.63,2.62 54.7 0 0 0.4,-2.37 c -0.5,-1.58 -1.08,-3.24 -1.15,-4.97 q -0.56,-14.36 -0.41,-30.02 a 2.87,2.86 -17.6 0 1 1.2,-2.31 q 2.52,-1.8 3.85,-4.6 0.65,-1.37 -0.67,-0.63 -2.06,1.16 -3.67,2.89 -0.72,0.78 -0.73,-0.29 l -0.04,-13.91 q -0.01,-2.77 -2.13,-0.99 l -5.88,4.95 q -1.95,1.63 -1.95,4.17 l -0.02,11.36 a 1.45,1.45 0 0 1 -0.95,1.36 q -7.35,2.66 -14.98,4.27 a 0.36,0.35 85.1 0 1 -0.43,-0.37 z"
         inkscape:connector-curvature="0"
         style="fill:#d7d7d7" />
      <path
         id="path19043"
         d="m 296.35,104.05 -9.86,5.18 a 0.82,0.81 76 0 0 -0.43,0.72 q 0.07,19.49 -0.93,38.96 c -0.41,8 -3.28,12.97 -10.46,16.31 a 0.26,0.26 0 0 1 -0.37,-0.25 q 1.98,-26.65 1.67,-53.38 a 0.65,0.64 1 0 0 -0.62,-0.63 q -5.94,-0.25 -9.89,-4.62 a 0.7,0.69 55.8 0 0 -0.81,-0.16 c -5.6,2.69 -18.46,2.14 -20.15,1.83 q -2.5,-0.47 -6.85,3.26 a 3.36,3.35 -65.7 0 1 -2.13,0.81 c -0.91,0.01 -3.66,-15.5 -3.84,-17.16 a 0.2,0.2 0 0 0 -0.17,-0.17 c -1.15,-0.09 -1.29,9.26 -1.25,9.75 1.12,13.1 3.7,25.16 -10.25,32.37 a 0.79,0.78 -24 0 1 -1.1,-0.42 q -0.9,-2.48 -0.81,-5.45 0.48,-15.1 0.92,-18.25 c 0.76,-5.43 -4.53,-3.49 -7.13,-2.69 a 1.61,1.57 8.5 0 0 -0.79,0.57 q -4.46,6.06 -10.54,10.43 a 1.17,1.13 74.7 0 0 -0.47,0.85 q -0.2,3.21 -0.05,6.34 c 0.3,6.03 -9.32,13.7 -13.93,16.48 a 0.68,0.67 -18.7 0 1 -1.02,-0.5 q -1.47,-13.94 2.68,-27.26 0.84,-2.7 -0.79,-5.02 c -3.14,-4.47 -7.46,-3.53 -10.12,0.66 -3.56,5.63 -14.56,19.13 -21.58,19.64 a 1.15,1.14 -9.1 0 1 -1.21,-0.87 c -1.98,-8.23 3.6,-14.11 9.26,-18.87 a 1,0.97 -23.3 0 0 0.34,-0.82 c -1.22,-14.4 -0.19,-28.9 0.63,-43.31 0.24,-4.26 4.77,-8.21 8.11,-9.95 a 1.22,1.22 0 0 1 1.78,1.13 l -1.21,32.19 q -0.07,1.9 1.03,0.8 0.67,-0.69 1.4,-0.42 a 0.82,0.81 -80.6 0 1 0.53,0.75 l 0.18,5.57 q 0.03,1.09 0.42,0.07 C 181.05,86.75 187,68.7 184.14,56.21 a 1.92,1.92 0 0 0 -2.15,-1.47 q -10.09,1.47 -18.98,6.4 a 0.4,0.39 -17.7 0 1 -0.59,-0.3 q -0.1,-0.99 0.54,-1.87 c 6.32,-8.68 18.51,-13.27 28.86,-14.11 a 1.97,1.96 79.8 0 1 2.05,1.43 c 4.13,14.7 -4.83,39.49 -10.66,53.31 a 0.38,0.37 -80 0 0 0.36,0.53 l 8.62,-0.33 a 0.79,0.76 -79.7 0 0 0.68,-0.49 c 2.91,-7.12 6.22,-15.47 6.11,-23.25 Q 198.82,64.19 199.5,61.5 c 2.39,-9.48 8.51,-14.88 16.42,-19.9 a 1.4,1.38 31.8 0 1 0.92,-0.21 c 4.82,0.59 10.29,-3.24 11.41,4.39 2.93,20.08 -1.53,37 -10.75,54.41 q -0.23,0.43 0.26,0.33 l 2.79,-0.62 q 1.74,-0.38 2.15,-2.11 3.66,-15.29 9.64,-29.21 c 5.97,-13.91 22.19,-19.37 36.41,-19.62 l 5.42,0.27 a 0.62,0.62 0 0 1 0.58,0.56 q 0.2,2.26 -1.25,4.17 -2.92,3.3 -6.65,5.5 a 1.33,1.31 -55.1 0 1 -0.92,0.17 q -10.35,-1.87 -20.3,1.39 a 0.88,0.87 -9.3 0 0 -0.6,0.83 L 245,71.32 a 0.92,0.92 0 0 0 1.02,0.92 q 9.99,-1.03 19.73,-3.26 0.65,-0.15 2.64,0.09 a 0.63,0.62 2.3 0 1 0.54,0.58 c 0.15,2.45 -4.56,6.4 -6.62,7.89 q -1.65,1.2 -4.02,1.47 -6.42,0.71 -12.81,2.23 a 0.64,0.64 0 0 0 -0.49,0.62 l 0.02,14.61 a 0.86,0.86 0 0 0 0.76,0.85 q 8.59,0.94 17.2,0.64 a 0.81,0.81 0 0 0 0.74,-0.55 c 2.53,-7.22 7.55,-13.23 12.78,-18.53 a 1.43,1.4 -20.1 0 0 0.41,-0.86 c 0.4,-4.17 -0.1,-13.58 2.05,-16.76 q 0.4,-0.6 -0.27,-0.35 -0.44,0.15 -0.75,0.54 a 0.61,0.61 0 0 1 -0.86,0.08 c -1.18,-0.99 1.78,-4.02 2.47,-4.78 q 11.54,-11.14 26.4,-10.65 3.93,0.13 6.55,4.38 a 0.48,0.47 57.3 0 0 0.67,0.15 q 3.48,-2.36 7.75,-2.71 2.6,-0.22 2.82,2.37 c 0.32,3.81 0.27,10.09 1.87,13.44 q 0.62,1.31 0.96,-0.09 2.44,-10.11 5.28,-20.06 c 2.01,-7.03 4.21,-11.36 10.91,-13.65 q 0.48,-0.16 0.34,0.32 -3.55,12.59 -6.71,25.16 -1.16,4.6 -1.47,7.42 -0.31,2.93 1.28,0.45 c 2.69,-4.18 18.3,-26.2 22.92,-25.24 a 0.4,0.4 0 0 1 0.22,0.66 q -13.45,15.72 -24.44,33.16 c -2.31,3.66 -2.84,5.89 -0.1,9.69 q 7.16,9.96 15.29,19.25 1.15,1.31 0.97,-0.43 c -1.02,-9.91 0.32,-15.22 9.48,-20.12 a 0.32,0.32 0 0 1 0.47,0.28 c -0.06,6.73 -2.02,16.63 6.8,18.77 q 2.42,0.59 3.69,-1.54 c 6.09,-10.26 7.02,-18.22 6.44,-30.02 -0.3,-6.12 4.98,-10.92 9.96,-13.46 q 2.01,-1.03 1.93,1.22 c -0.24,7.53 -1.52,15.42 -1.68,22.35 q -0.74,31.28 0.36,47.15 c 0.65,9.27 2.87,20.56 0.12,26.71 -2.99,6.7 -10.8,14.08 -17.79,16.33 q -18.12,5.84 -25.76,-12.93 c -3.37,-8.28 2.17,-12.06 8.09,-16.06 q 0.58,-0.39 0.6,0.31 0.22,9.26 6.83,15.81 c 5.25,5.2 11.44,4.92 18.19,3.5 a 1.48,1.47 -5.4 0 0 1.18,-1.42 q 0.07,-2.65 -0.18,-5.48 -2.46,-27.58 -1.67,-55.36 0.03,-0.88 -0.51,-0.18 -5.33,6.87 -12.57,11.43 c -2.96,1.87 -5.93,1.41 -9.25,1.36 a 0.93,0.93 0 0 0 -0.81,0.44 q -6.21,9.92 -15.6,16.93 -1.71,1.27 -3.84,1.27 C 323.67,127.61 321.6,118.9 321.9,109.07 q 0.22,-7.51 0.06,-14.67 -0.02,-1.12 -0.59,-0.15 c -1.86,3.22 -10.94,16.89 -10.78,19.51 a 0.3,0.3 0 0 0 0.45,0.24 l 3.05,-1.77 a 0.65,0.65 0 0 1 0.87,0.22 c 0.81,1.26 -10.71,12.2 -13.05,11.79 q -2.98,-0.53 -1.52,-3.03 l 20.37,-34.82 a 1.06,1.06 0 0 0 0.06,-0.95 c -1.2,-2.85 -2.64,-5.09 -3.76,-8.25 q -0.65,-1.87 -1.73,-3.52 -0.27,-0.43 -0.34,0.07 c -1.75,13.39 -8.51,21.43 -18.64,30.31 z M 217.82,53.19 a 1.79,1.57 -87 0 0 -1.58,1.63 q -1.66,17.35 -1.17,34.81 0.02,0.49 0.42,0.22 0.22,-0.15 0.33,-0.53 4.82,-17.13 2.63,-34.34 -0.23,-1.79 -0.63,-1.79 z m 70.2,4.8 c 0.02,4.23 -0.28,7.01 -0.82,10.58 q -0.08,0.53 0.31,0.16 6.05,-5.53 12.78,-10.24 1.63,-1.13 -0.29,-1.65 -5.79,-1.55 -11.47,0.43 a 0.76,0.74 -10.3 0 0 -0.51,0.72 z m -0.91,19.14 q 0.03,11.62 -1.06,22.9 a 0.43,0.43 0 0 0 0.48,0.47 l 6.97,-0.96 c 15.07,-2.25 11.56,-28.42 9.45,-38.13 a 0.36,0.36 0 0 0 -0.57,-0.21 l -14.66,10.83 a 1.19,1.18 -17.7 0 0 -0.47,0.9 z m -11.15,6.77 c -2.15,3.54 -3.2,11.06 0.12,13.58 q 0.55,0.41 0.58,-0.28 l 0.42,-12.97 q 0.08,-2.3 -1.12,-0.33 z m -75.33,16.01 q -2.42,5.07 -1.36,10.6 a 1.16,1.16 0 0 0 1.76,0.76 l 2.51,-1.6 a 0.69,0.68 67.4 0 0 0.3,-0.75 l -2.18,-8.9 q -0.36,-1.51 -1.03,-0.11 z m 144.28,17.49 0.71,-1.37 a 0.65,0.64 32.5 0 0 -0.18,-0.81 q -7.6,-5.93 -12.93,-14.01 -0.33,-0.5 -0.41,0.09 c -1.15,8.64 2.2,16.07 11.78,16.68 a 1.07,1.07 0 0 0 1.03,-0.58 z m -174.26,-5.04 c -4.56,1.04 -7.99,4.24 -6.71,9.02 q 0.54,1.99 1.87,0.42 3.41,-4.03 5.18,-9.05 0.18,-0.51 -0.34,-0.39 z"
         inkscape:connector-curvature="0"
         style="fill:#080808" />
      <path
         id="path19045"
         d="m 217.82,53.19 q 0.4,0 0.63,1.79 2.19,17.21 -2.63,34.34 -0.11,0.38 -0.33,0.53 -0.4,0.27 -0.42,-0.22 -0.49,-17.46 1.17,-34.81 a 1.79,1.57 -87 0 1 1.58,-1.63 z"
         inkscape:connector-curvature="0"
         style="fill:#d7d7d7" />
      <path
         id="path19047"
         d="m 146.5,52.96 c 8.94,1.79 12.55,7.78 12.74,16.65 0.37,16.96 -4.03,31.93 -17.5,43.21 -4.66,3.91 -6.95,6.23 -12.24,6.72 -13.15,-0.55 -17.11,-9.49 -17.32,-21.35 Q 111.94,84.1 112.03,70 c 0.03,-5.48 4.58,-9.39 8.89,-11.89 a 0.61,0.6 65.6 0 1 0.87,0.33 l 0.39,1.13 a 0.5,0.5 0 0 0 0.59,0.32 q 1.21,-0.31 1.71,-0.88 c 6.31,-7.21 13.29,-5.94 22.02,-6.05 z M 128.79,104 q 4.73,7.27 12.97,4.47 a 1.55,1.52 -81.3 0 0 0.76,-0.57 c 5.87,-8.51 7.03,-21.42 6.69,-31.62 q -0.31,-9.22 -9.42,-12.53 -7.1,-1.42 -13.77,-0.62 a 1.44,1.44 0 0 0 -1.26,1.28 q -1.37,13.41 -0.68,26.78 0.34,6.45 4.71,12.81 z"
         inkscape:connector-curvature="0"
         style="fill:#080808" />
      <path
         id="path19049"
         d="m 273.5,53.96 q 3.27,0.91 6.04,2.79 c -0.69,0.76 -3.65,3.79 -2.47,4.78 a 0.61,0.61 0 0 0 0.86,-0.08 q 0.31,-0.39 0.75,-0.54 0.67,-0.25 0.27,0.35 c -2.15,3.18 -1.65,12.59 -2.05,16.76 a 1.43,1.4 -20.1 0 1 -0.41,0.86 c -5.23,5.3 -10.25,11.31 -12.78,18.53 a 0.81,0.81 0 0 1 -0.74,0.55 q -8.61,0.3 -17.2,-0.64 a 0.86,0.86 0 0 1 -0.76,-0.85 l -0.02,-14.61 a 0.64,0.64 0 0 1 0.49,-0.62 q 6.39,-1.52 12.81,-2.23 2.37,-0.27 4.02,-1.47 c 2.06,-1.49 6.77,-5.44 6.62,-7.89 a 0.63,0.62 2.3 0 0 -0.54,-0.58 q -1.99,-0.24 -2.64,-0.09 -9.74,2.23 -19.73,3.26 A 0.92,0.92 0 0 1 245,71.32 l 0.03,-9.47 a 0.88,0.87 -9.3 0 1 0.6,-0.83 q 9.95,-3.26 20.3,-1.39 a 1.33,1.31 -55.1 0 0 0.92,-0.17 q 3.73,-2.2 6.65,-5.5 z"
         inkscape:connector-curvature="0"
         style="fill:#d7d7d7" />
      <path
         id="path19051"
         d="m 287.2,68.57 c 0.54,-3.57 0.84,-6.35 0.82,-10.58 a 0.76,0.74 -10.3 0 1 0.51,-0.72 q 5.68,-1.98 11.47,-0.43 1.92,0.52 0.29,1.65 -6.73,4.71 -12.78,10.24 -0.39,0.37 -0.31,-0.16 z"
         inkscape:connector-curvature="0"
         style="fill:#ffffff" />
      <path
         id="path19053"
         d="m 293.5,99.54 q -0.56,-4.86 -2.04,-9.53 c -0.82,-2.57 0.66,-6.65 -1.08,-9.59 q -1.19,-2.03 -3.27,-3.29 l 0.14,-4.2 a 1.19,1.18 -17.7 0 1 0.47,-0.9 L 302.38,61.2 a 0.36,0.36 0 0 1 0.57,0.21 c 2.11,9.71 5.62,35.88 -9.45,38.13 z"
         inkscape:connector-curvature="0"
         style="fill:#ffffff" />
      <path
         id="path19055"
         d="m 139.79,63.75 -0.2,0.92 q -0.1,0.49 -0.43,0.88 l -5.91,6.82 q -1.69,1.94 -0.67,4.31 2.7,6.22 -0.49,12.11 a 1.73,1.71 46.8 0 0 -0.04,1.55 q 3.97,8.47 -3.26,13.66 -4.37,-6.36 -4.71,-12.81 -0.69,-13.37 0.68,-26.78 a 1.44,1.44 0 0 1 1.26,-1.28 q 6.67,-0.8 13.77,0.62 z"
         inkscape:connector-curvature="0"
         style="fill:#ffffff" />
      <path
         id="path19057"
         d="m 139.79,63.75 q 9.11,3.31 9.42,12.53 c 0.34,10.2 -0.82,23.11 -6.69,31.62 a 1.55,1.52 -81.3 0 1 -0.76,0.57 q -8.24,2.8 -12.97,-4.47 7.23,-5.19 3.26,-13.66 a 1.73,1.71 46.8 0 1 0.04,-1.55 q 3.19,-5.89 0.49,-12.11 -1.02,-2.37 0.67,-4.31 l 5.91,-6.82 q 0.33,-0.39 0.43,-0.88 z"
         inkscape:connector-curvature="0"
         style="fill:#d7d7d7" />
      <path
         id="path19059"
         d="m 293.5,99.54 -6.97,0.96 a 0.43,0.43 0 0 1 -0.48,-0.47 q 1.09,-11.28 1.06,-22.9 2.08,1.26 3.27,3.29 c 1.74,2.94 0.26,7.02 1.08,9.59 q 1.48,4.67 2.04,9.53 z"
         inkscape:connector-curvature="0"
         style="fill:#d7d7d7" />
      <path
         id="path19061"
         d="m 275.96,83.9 q 1.2,-1.97 1.12,0.33 l -0.42,12.97 q -0.03,0.69 -0.58,0.28 c -3.32,-2.52 -2.27,-10.04 -0.12,-13.58 z"
         inkscape:connector-curvature="0"
         style="fill:#d7d7d7" />
      <path
         id="path19063"
         d="m 200.63,99.91 q 0.67,-1.4 1.03,0.11 l 2.18,8.9 a 0.69,0.68 67.4 0 1 -0.3,0.75 l -2.51,1.6 a 1.16,1.16 0 0 1 -1.76,-0.76 q -1.06,-5.53 1.36,-10.6 z"
         inkscape:connector-curvature="0"
         style="fill:#d7d7d7" />
      <path
         id="path19065"
         d="m 344.91,117.4 a 1.07,1.07 0 0 1 -1.03,0.58 c -9.58,-0.61 -12.93,-8.04 -11.78,-16.68 q 0.08,-0.59 0.41,-0.09 5.33,8.08 12.93,14.01 a 0.65,0.64 32.5 0 1 0.18,0.81 z"
         inkscape:connector-curvature="0"
         style="fill:#ffffff" />
      <path
         id="path19067"
         d="m 163.94,121.38 c -1.28,-4.78 2.15,-7.98 6.71,-9.02 q 0.52,-0.12 0.34,0.39 -1.77,5.02 -5.18,9.05 -1.33,1.57 -1.87,-0.42 z"
         inkscape:connector-curvature="0"
         style="fill:#d7d7d7" />
      <path
         id="path19069"
         d="m 127.25,134.71 q 1.81,-0.29 3.25,0.56 a 1.01,1.01 0 0 1 0.49,0.77 q 0.65,6.65 -2.2,12.71 l -5.5,11.48 q -0.18,0.4 0.25,0.35 l 6.21,-0.62 q 4.02,0.79 6.45,-1.49 c 7.99,-7.5 15.02,-16.29 23.04,-16.49 9.17,-0.23 21.48,3.93 24.07,13.95 q 0.1,0.39 0.39,0.11 l 6.94,-7.05 q 2.36,-2.39 2.36,0.96 l 0.01,32.33 q 0,2.01 1.05,0.3 8.98,-14.65 20.59,-28.67 3.4,-4.1 7.67,-6.1 a 0.51,0.5 66.8 0 1 0.68,0.28 c 0.32,0.81 -3.94,5.55 -4.67,6.46 q -0.72,0.88 0.2,0.21 l 4.77,-3.52 q 0.73,-0.54 0.72,0.37 -0.16,13.56 0.28,27.14 c 0.11,3.72 0.79,11.42 5.89,10.15 q 2.19,-0.55 0.8,1.23 c -2.19,2.8 -8.32,10.18 -12.32,8.6 -6.75,-2.66 -4.71,-30.19 -4.7,-35.95 q 0.01,-3.26 -1.78,-0.54 l -17.94,27.29 a 0.98,0.97 52.4 0 0 -0.11,0.88 q 1.62,4.51 5.56,7.21 a 1.09,1.09 0 0 1 0.25,1.54 c -2.21,2.97 -10.29,12.58 -13.26,5.18 a 0.37,0.37 0 0 0 -0.61,-0.11 c -1.45,1.55 -7.03,8.16 -8.91,7.87 a 1.07,1.06 19.4 0 1 -0.76,-1.58 l 6.79,-11.88 a 1.77,1.71 -33 0 0 0.23,-1 c -0.24,-3.19 0.22,-19.09 -0.6,-20.48 q -0.3,-0.51 -0.42,0.06 -4.18,19.38 -20.41,30.77 -9.56,6.71 -19.21,0.01 c -3.85,-4.18 -2.63,-8.05 -4.1,-12.62 q -0.15,-0.48 -0.49,-0.11 c -8.83,9.73 -17.63,16.84 -31.46,15.75 q -2.06,-0.17 -2.35,-2.22 l -0.44,-3.1 a 0.57,0.57 0 0 0 -0.76,-0.45 l -1.2,0.44 a 0.57,0.57 0 0 1 -0.77,-0.47 l -1.45,-12.74 q -0.15,-1.37 -0.94,-0.24 C 94.6,198.38 85.02,209.18 77,208.99 q -9.53,-0.22 -10.11,-11.01 c -1.07,-20.1 1.22,-46.36 20.21,-57.87 1.74,-1.06 5.65,-1.56 7.11,-0.81 2.68,1.38 1.96,3.28 2.01,5.73 0.17,8.78 -1.78,12.12 -8.64,17.28 q -2.54,1.91 -2.6,-1.27 -0.06,-4.16 0.61,-9.55 0.33,-2.68 -1.63,-2.57 -2.04,0.12 -2.61,2.09 -5.44,18.86 -4.41,37.95 c 0.38,7.13 4.36,11.47 11.95,10.02 a 1.19,1.17 -78 0 0 0.77,-0.51 c 4.63,-6.95 8.91,-15.29 9.42,-23.75 q 0.66,-11.11 1.34,-22.21 A 0.62,0.61 11.1 0 0 100,151.89 l -0.59,-0.18 a 0.7,0.7 0 0 1 -0.33,-1.11 c 2.05,-2.47 10.63,-12.4 13.97,-11.03 a 1,1 0 0 0 0.87,-0.06 q 6.22,-3.68 13.33,-4.8 z m -13.95,11.8 c -0.37,2.96 -0.18,5.93 -0.66,8.57 q -1.14,6.2 -2.58,12.38 -0.11,0.49 0.32,0.24 c 6.52,-3.75 11.46,-14.21 10.53,-22.18 a 0.74,0.73 83.3 0 0 -0.81,-0.64 l -5.76,0.62 a 1.18,1.17 0.6 0 0 -1.04,1.01 z m 60.47,21.99 C 173.32,158.64 163.7,153.17 155,152.11 a 0.65,0.64 -76.2 0 0 -0.68,0.42 c -4.15,11.2 -4.36,21.94 -4.79,33.71 a 1.09,1.08 22.5 0 0 0.35,0.84 c 4.7,4.29 16.25,5.76 21.56,1.75 a 1.28,1.27 -13.3 0 0 0.49,-0.79 q 2.18,-12.19 1.84,-19.54 z m -50.53,1.75 c -7.63,-1.68 -9.34,4.34 -13.94,8.95 a 1.18,1.17 63.3 0 0 -0.33,1.01 l 1.2,7.54 q 0.15,0.94 0.66,0.14 5.73,-8.92 12.65,-16.92 a 0.44,0.44 0 0 0 -0.24,-0.72 z m -7.23,30.91 q 6.78,0.44 13.11,-1.95 2.24,-0.85 2.6,-3.22 1.93,-12.86 -3.48,-24.49 a 0.59,0.59 0 0 0 -0.99,-0.13 c -6.38,7.52 -13.58,17.26 -13.28,27.69 q 0.06,1.98 2.04,2.1 z m -6.66,-27.28 q 0.83,0.27 0.9,-0.83 0.04,-0.5 -0.4,-0.26 l -0.57,0.32 q -0.85,0.47 0.07,0.77 z m 51,26.91 c 6.2,1.71 8.62,-2.95 10.19,-8.06 q 0.15,-0.5 -0.26,-0.19 c -3.69,2.77 -5.43,5.98 -9.96,7.74 q -0.75,0.29 0.03,0.51 z"
         inkscape:connector-curvature="0"
         style="fill:#080808" />
      <rect
         id="rect19071"
         rx="0.99000001"
         height="12.22"
         width="2.04"
         transform="rotate(44.8,-71.575097,309.80259)"
         y="-6.1100001"
         x="-1.02"
         style="fill:#080808" />
      <path
         id="path19073"
         d="m 113.3,146.51 a 1.18,1.17 0.6 0 1 1.04,-1.01 l 5.76,-0.62 a 0.74,0.73 83.3 0 1 0.81,0.64 c 0.93,7.97 -4.01,18.43 -10.53,22.18 q -0.43,0.25 -0.32,-0.24 1.44,-6.18 2.58,-12.38 c 0.48,-2.64 0.29,-5.61 0.66,-8.57 z"
         inkscape:connector-curvature="0"
         style="fill:#ffffff" />
      <path
         id="path19075"
         d="m 128.79,148.75 0.25,0.15 a 0.57,0.57 0 0 1 0.27,0.38 q 1.06,5.32 0.44,10.68 l -6.21,0.62 q -0.43,0.05 -0.25,-0.35 z"
         inkscape:connector-curvature="0"
         style="fill:#ffffff" />
      <path
         id="path19077"
         d="m 155,152.11 c 8.7,1.06 18.32,6.53 18.77,16.39 q 0.34,7.35 -1.84,19.54 a 1.28,1.27 -13.3 0 1 -0.49,0.79 c -5.31,4.01 -16.86,2.54 -21.56,-1.75 a 1.09,1.08 22.5 0 1 -0.35,-0.84 c 0.43,-11.77 0.64,-22.51 4.79,-33.71 a 0.65,0.64 -76.2 0 1 0.68,-0.42 z"
         inkscape:connector-curvature="0"
         style="fill:#d7d7d7" />
      <path
         id="path19079"
         d="m 123.24,170.25 a 0.44,0.44 0 0 1 0.24,0.72 q -6.92,8 -12.65,16.92 -0.51,0.8 -0.66,-0.14 l -1.2,-7.54 a 1.18,1.17 63.3 0 1 0.33,-1.01 c 4.6,-4.61 6.31,-10.63 13.94,-8.95 z"
         inkscape:connector-curvature="0"
         style="fill:#ffffff" />
      <path
         id="path19081"
         d="m 116.01,201.16 q -1.98,-0.12 -2.04,-2.1 c -0.3,-10.43 6.9,-20.17 13.28,-27.69 a 0.59,0.59 0 0 1 0.99,0.13 q 5.41,11.63 3.48,24.49 -0.36,2.37 -2.6,3.22 -6.33,2.39 -13.11,1.95 z"
         inkscape:connector-curvature="0"
         style="fill:#ffffff" />
      <path
         id="path19083"
         d="m 109.28,173.11 0.57,-0.32 q 0.44,-0.24 0.4,0.26 -0.07,1.1 -0.9,0.83 -0.92,-0.3 -0.07,-0.77 z"
         inkscape:connector-curvature="0"
         style="fill:#d7d7d7" />
      <path
         id="path19085"
         d="m 160.35,200.79 q -0.78,-0.22 -0.03,-0.51 c 4.53,-1.76 6.27,-4.97 9.96,-7.74 q 0.41,-0.31 0.26,0.19 c -1.57,5.11 -3.99,9.77 -10.19,8.06 z"
         inkscape:connector-curvature="0"
         style="fill:#d7d7d7" />
      <path
         id="path19087"
         d="m 142.08,230.29 c 1.51,5.35 2.15,9.85 3.07,15.29 q 0.08,0.49 0.45,0.17 c 5.74,-4.95 14.97,-12.32 22.16,-12.78 a 1.25,1.24 64.1 0 1 0.94,0.33 q 1.61,1.51 1.27,3.75 a 0.79,0.79 0 0 0 0.92,0.89 q 0.62,-0.11 1.44,-0.58 13.44,-7.77 29.08,-8.64 a 1.92,1.91 -8.3 0 1 1.97,1.46 c 0.87,3.66 -7.43,10.44 -10.22,11.96 a 0.67,0.66 -35.5 0 1 -0.81,-0.13 c -0.54,-0.57 1.01,-1.56 0.28,-2.7 a 0.94,0.92 -17.5 0 0 -0.84,-0.43 q -10.56,0.49 -20.33,4.55 a 0.76,0.74 79.1 0 0 -0.46,0.7 v 12.1 a 0.4,0.39 -14.8 0 0 0.59,0.34 c 2.41,-1.31 4.12,-2.83 6.7,-3.65 q 7.74,-2.49 15.26,-3.05 2.34,-0.17 1.43,1.99 c -2.82,6.7 -9.6,12.65 -15.01,17.31 -2.66,2.3 -4.68,4.76 -6.88,7.33 a 1.17,1.16 -41.6 0 0 -0.09,1.42 q 2.05,3.02 0.44,6.24 a 0.78,0.77 12 0 0 0.73,1.12 c 10.25,-0.45 19.22,-4.38 27.94,-9.43 q 1.07,-0.61 0.82,0.59 c -0.09,0.46 -0.19,0.93 -0.49,1.31 -8.34,10.64 -29.45,20.14 -42.83,16.39 a 0.78,0.78 0 0 1 -0.58,-0.74 q -0.03,-3.34 1.87,-6.16 1.1,-1.63 0.18,-3.35 c -4.7,-8.82 -8.15,-13.03 -8.19,-23.39 -0.01,-5.49 2.49,-8.24 5.96,-12.73 1.33,-1.73 2.08,-3.52 -0.24,-4.74 a 1.23,1.22 49.4 0 0 -0.97,-0.08 q -6,1.97 -11.02,5.81 -1.79,1.38 -1.67,3.63 0.43,8.46 -0.41,17.61 c -1.51,9.02 -12.14,19.63 -21.87,20.13 a 0.58,0.57 0.5 0 0 -0.54,0.52 q -0.31,3.36 -0.05,6.54 2.07,25.51 1.88,52.84 a 3.22,3.2 -25 0 1 -0.74,2.02 q -3.97,4.71 -8.89,8.42 a 1.25,1.25 0 0 1 -1.97,-0.72 q -0.55,-2.31 0.62,-4.34 1.09,-1.89 1.07,-4.06 c -0.18,-21.7 -2.41,-44.69 -2.08,-67.17 q 0.01,-0.5 -0.35,-0.16 c -8.39,7.98 -14.26,16.02 -25.93,18.39 -15.57,3.15 -31.24,1.86 -34.72,-16.88 -4.45,-23.93 11.62,-45.72 32.48,-55.82 q 17.93,-8.69 37.9,-9.39 a 0.59,0.59 0 0 1 0.61,0.58 l 0.14,14.8 a 0.4,0.4 0 0 0 0.6,0.35 c 6.27,-3.6 11.52,-7.44 19.38,-5.76 z m -57.97,6.22 -1.25,16.91 a 0.39,0.39 0 0 0 0.55,0.38 c 9.07,-4.22 18.4,-8.01 28.1,-8.1 a 0.5,0.5 0 0 0 0.49,-0.5 v -14.48 a 0.52,0.51 88.9 0 0 -0.53,-0.52 q -13.82,0.51 -26.71,5.44 a 1.02,1.02 0 0 0 -0.65,0.87 z m -10.76,3.54 c -9.59,6.26 -13.74,18.77 -13.02,29.27 0.66,9.58 1.96,17.22 11.04,22.41 a 0.28,0.27 16.3 0 0 0.41,-0.22 l 1.16,-24.73 a 0.33,0.33 0 0 0 -0.44,-0.33 l -1.54,0.51 a 0.79,0.79 0 0 1 -0.69,-0.1 l -0.21,-0.15 a 0.54,0.53 -51.9 0 1 -0.09,-0.79 l 2.32,-2.7 a 2.18,2.15 67.5 0 0 0.53,-1.31 l 1.24,-21.46 q 0.05,-0.9 -0.71,-0.4 z m 57.23,-0.07 q -4.19,-0.22 -7.99,1.31 a 0.82,0.81 -11.4 0 0 -0.51,0.75 l -0.12,27.47 q 0,0.7 0.46,0.17 l 12.32,-13.97 a 1.2,1.18 61.4 0 0 0.28,-0.98 l -1.84,-12.39 q -0.33,-2.25 -2.6,-2.36 z m -23.38,21.04 c -2.63,-9.46 -17.73,-3.56 -23.52,-0.79 a 1.03,1.02 80 0 0 -0.58,0.84 q -1.3,15.36 -0.67,30.75 0.07,1.91 1.99,1.78 4.51,-0.3 10,-1.29 c 15.81,-2.86 16.15,-19.15 12.78,-31.29 z m 70.62,6.51 q 3.84,-3.37 7.13,-7.33 0.43,-0.52 -0.24,-0.44 -6.78,0.82 -13.36,2.68 a 0.74,0.72 -11 0 0 -0.53,0.77 l 0.94,9.24 q 0.08,0.85 0.75,0.31 c 1.94,-1.61 3.6,-3.73 5.31,-5.23 z m -51.03,12.07 4.96,0.52 q 3.15,0.33 3.17,-2.84 l 0.12,-16.25 q 0,-0.75 -0.54,-0.22 c -4.59,4.54 -11.1,10.28 -9.24,17.47 a 1.78,1.77 85.7 0 0 1.53,1.32 z"
         inkscape:connector-curvature="0"
         style="fill:#080808" />
      <path
         id="path19089"
         d="m 294.5,227.21 c 6.59,-0.52 4.33,8.08 4.21,11.79 l -19.45,39.35 a 0.3,0.3 0 0 0 0.27,0.43 q 9.22,-0.11 12.65,9.01 c 5.39,14.31 9.5,31.17 -6.14,40.97 a 0.78,0.77 46.5 0 1 -0.87,-0.03 q -0.65,-0.47 -0.15,-1.44 c 1.85,-3.59 2.42,-5.93 1.97,-10.14 -0.71,-6.65 -3.8,-25.56 -11.64,-27.95 q -1.97,-0.6 -3.37,0.91 c -6.07,6.54 -12.32,13.97 -19.86,17.87 q -1.96,1.02 -1.91,-1.19 c 0.24,-11.6 11.52,-21.6 21.3,-26.11 a 3.91,3.89 -88.8 0 0 1.88,-1.81 q 7.09,-14.13 13.91,-28.82 2.58,-5.56 1.38,-11.68 a 1.54,1.54 0 0 0 -1.56,-1.25 l -23.3,0.63 a 2,1.99 2 0 0 -1.93,1.8 c -1.07,10.61 -0.66,20.45 -0.64,30.72 q 0.01,4.95 3.38,8.6 a 0.68,0.68 0 0 1 0.06,0.83 q -3.54,5.38 -8.98,8.91 a 0.63,0.62 51.3 0 1 -0.79,-0.09 c -5.65,-5.95 -4.02,-22.1 -3.94,-29.89 0.1,-9.41 -0.14,-15.19 7.89,-19.76 a 0.35,0.35 0 0 0 0.07,-0.56 l -0.19,-0.19 A 0.5,0.47 62.7 0 0 258.41,238 q -1.25,0.08 -2.33,-0.55 a 0.67,0.66 29.7 0 1 -0.25,-0.9 c 2.72,-4.98 6.74,-8.45 12.65,-8.59 q 13.05,-0.31 26.02,-0.75 z m -27.74,62.51 c -4.11,-0.42 -6.59,3.07 -5.82,6.94 q 0.19,0.95 0.8,0.2 l 5.3,-6.46 q 0.49,-0.6 -0.28,-0.68 z"
         inkscape:connector-curvature="0"
         style="fill:#080808" />
      <path
         id="path19091"
         d="m 215.81,255.94 q 7.63,-1.61 14.98,-4.27 a 1.45,1.45 0 0 0 0.95,-1.36 l 0.02,-11.36 q 0,-2.54 1.95,-4.17 l 5.88,-4.95 q 2.12,-1.78 2.13,0.99 l 0.04,13.91 q 0.01,1.07 0.73,0.29 1.61,-1.73 3.67,-2.89 1.32,-0.74 0.67,0.63 -1.33,2.8 -3.85,4.6 a 2.87,2.86 -17.6 0 0 -1.2,2.31 q -0.15,15.66 0.41,30.02 c 0.07,1.73 0.65,3.39 1.15,4.97 a 2.63,2.62 54.7 0 1 -0.4,2.37 q -3.35,4.5 -8.3,7.15 a 1.05,1.05 0 0 1 -1.51,-0.67 c -2.7,-10.75 -1.46,-24.92 -1.35,-36.09 q 0.01,-1.03 -0.86,-0.49 -7.26,4.49 -15.42,6.98 a 0.61,0.6 -6.8 0 0 -0.44,0.55 q -0.41,9.65 0.89,19.2 a 1.32,1.29 -76.7 0 0 0.52,0.87 c 4.76,3.43 -4.68,10.31 -7.2,12.29 a 1.42,1.42 0 0 1 -2.16,-0.5 c -1.34,-2.85 -1.88,-6.35 -1.93,-9.84 q -0.29,-19.19 0.53,-38.38 c 0.21,-4.93 4.89,-8.97 8.95,-10.83 a 1.05,1.05 0 0 1 1.48,1 l -0.76,17.3 a 0.36,0.35 85.1 0 0 0.43,0.37 z"
         inkscape:connector-curvature="0"
         style="fill:#080808" />
      <path
         id="path19093"
         d="m 84.11,236.51 a 1.02,1.02 0 0 1 0.65,-0.87 q 12.89,-4.93 26.71,-5.44 a 0.52,0.51 88.9 0 1 0.53,0.52 v 14.48 a 0.5,0.5 0 0 1 -0.49,0.5 c -9.7,0.09 -19.03,3.88 -28.1,8.1 a 0.39,0.39 0 0 1 -0.55,-0.38 z"
         inkscape:connector-curvature="0"
         style="fill:#ffffff" />
      <path
         id="path19095"
         d="m 60.33,269.32 c -0.72,-10.5 3.43,-23.01 13.02,-29.27 q 0.76,-0.5 0.71,0.4 l -1.24,21.46 a 2.18,2.15 67.5 0 1 -0.53,1.31 l -2.32,2.7 a 0.54,0.53 -51.9 0 0 0.09,0.79 l 0.21,0.15 a 0.79,0.79 0 0 0 0.69,0.1 l 1.54,-0.51 a 0.33,0.33 0 0 1 0.44,0.33 l -1.16,24.73 a 0.28,0.27 16.3 0 1 -0.41,0.22 C 62.29,286.54 60.99,278.9 60.33,269.32 Z"
         inkscape:connector-curvature="0"
         style="fill:#ffffff" />
      <path
         id="path19097"
         d="m 130.58,239.98 q 2.27,0.11 2.6,2.36 l 1.84,12.39 a 1.2,1.18 61.4 0 1 -0.28,0.98 l -12.32,13.97 q -0.46,0.53 -0.46,-0.17 l 0.12,-27.47 a 0.82,0.81 -11.4 0 1 0.51,-0.75 q 3.8,-1.53 7.99,-1.31 z"
         inkscape:connector-curvature="0"
         style="fill:#ffffff" />
      <path
         id="path19099"
         d="m 83.68,260.23 c 5.79,-2.77 20.89,-8.67 23.52,0.79 3.37,12.14 3.03,28.43 -12.78,31.29 q -5.49,0.99 -10,1.29 -1.92,0.13 -1.99,-1.78 -0.63,-15.39 0.67,-30.75 a 1.03,1.02 80 0 1 0.58,-0.84 z"
         inkscape:connector-curvature="0"
         style="fill:#ffffff" />
      <path
         id="path19101"
         d="m 177.82,267.53 c -1.71,1.5 -3.37,3.62 -5.31,5.23 q -0.67,0.54 -0.75,-0.31 l -0.94,-9.24 a 0.74,0.72 -11 0 1 0.53,-0.77 q 6.58,-1.86 13.36,-2.68 0.67,-0.08 0.24,0.44 -3.29,3.96 -7.13,7.33 z"
         inkscape:connector-curvature="0"
         style="fill:#d7d7d7" />
      <path
         id="path19103"
         d="m 126.79,279.6 a 1.78,1.77 85.7 0 1 -1.53,-1.32 c -1.86,-7.19 4.65,-12.93 9.24,-17.47 q 0.54,-0.53 0.54,0.22 l -0.12,16.25 q -0.02,3.17 -3.17,2.84 z"
         inkscape:connector-curvature="0"
         style="fill:#ffffff" />
      <path
         id="path19105"
         d="m 260.94,296.66 c -0.77,-3.87 1.71,-7.36 5.82,-6.94 q 0.77,0.08 0.28,0.68 l -5.3,6.46 q -0.61,0.75 -0.8,-0.2 z"
         inkscape:connector-curvature="0"
         style="fill:#d7d7d7" />
    </g>
  </g>
</svg>
