<?xml version="1.0" encoding="UTF-8" standalone="no"?>
<!DOCTYPE svg PUBLIC "-//W3C//DTD SVG 1.1//EN" "http://www.w3.org/Graphics/SVG/1.1/DTD/svg11.dtd">
<svg xmlns="http://www.w3.org/2000/svg" version="1.1" viewBox="0 0 449 248">
<g stroke-width="2.00" fill="none" stroke-linecap="butt">
<path stroke="#e8e8e8" vector-effect="non-scaling-stroke" d="
  M 382.56 247.99
  Q 381.70 236.56 379.85 225.24
  Q 379.14 220.87 380.44 213.89
  A 0.85 0.83 24.4 0 0 380.12 213.06
  L 379.71 212.75"
/>
<path stroke="#858585" vector-effect="non-scaling-stroke" d="
  M 379.71 212.75
  L 397.29 179.50
  A 0.25 0.25 0.0 0 1 397.71 179.46
  Q 406.66 190.44 417.93 199.00
  A 0.91 0.91 0.0 0 0 418.96 199.05
  Q 424.07 195.80 427.74 190.99
  A 1.27 1.26 36.5 0 0 427.47 189.20
  Q 415.29 180.39 405.87 168.07
  Q 404.27 165.98 405.73 163.25
  Q 412.84 149.97 419.11 135.89
  A 0.68 0.68 0.0 0 0 418.63 134.95
  C 416.36 134.48 411.05 140.58 410.46 141.74
  Q 406.36 149.90 402.45 158.90
  Q 401.55 160.95 400.40 159.03
  Q 394.61 149.34 391.62 138.53
  A 0.47 0.46 69.5 0 0 390.97 138.23
  C 387.16 140.02 380.74 145.09 382.14 149.81
  Q 385.36 160.71 393.86 174.58
  A 0.86 0.85 -46.8 0 1 393.88 175.44
  L 379.92 201.27"
/>
<path stroke="#e8e8e8" vector-effect="non-scaling-stroke" d="
  M 379.92 201.27
  L 378.71 194.75"
/>
<path stroke="#858585" vector-effect="non-scaling-stroke" d="
  M 378.71 194.75
  L 381.42 191.08
  A 0.69 0.69 0.0 0 0 381.43 190.29
  L 376.35 182.98
  Q 374.80 180.76 376.67 178.80
  L 379.89 175.41
  A 0.83 0.83 0.0 0 0 379.70 174.12
  C 378.58 173.47 376.25 175.13 375.56 175.03
  Q 373.08 174.70 372.93 172.20
  Q 371.71 152.52 372.04 133.25
  Q 372.06 132.38 371.32 132.08
  A 0.73 0.73 0.0 0 0 370.50 132.28
  C 368.42 134.65 366.08 134.20 363.96 135.62
  C 350.51 144.63 344.32 159.61 337.47 172.85"
/>
<path stroke="#e8e8e8" vector-effect="non-scaling-stroke" d="
  M 337.47 172.85
  Q 335.79 165.63 336.66 158.41
  Q 336.72 157.92 336.57 157.45
  L 335.96 155.50"
/>
<path stroke="#858585" vector-effect="non-scaling-stroke" d="
  M 335.96 155.50
  Q 336.04 154.57 336.30 154.30
  C 341.33 149.10 346.50 144.11 348.46 136.91
  A 1.52 1.52 0.0 0 0 347.03 134.99
  C 340.79 134.87 333.24 146.84 331.00 151.79"
/>
<path stroke="#e8e8e8" vector-effect="non-scaling-stroke" d="
  M 331.00 151.79
  L 329.69 151.72
  A 0.45 0.45 0.0 0 1 329.27 151.17
  L 329.60 149.76
  A 0.57 0.57 0.0 0 0 329.22 149.10
  C 326.21 148.13 325.91 153.99 326.50 155.71"
/>
<path stroke="#858585" vector-effect="non-scaling-stroke" d="
  M 326.50 155.71
  L 322.00 156.71"
/>
<path stroke="#e8e8e8" vector-effect="non-scaling-stroke" d="
  M 322.00 156.71
  L 321.06 151.89
  Q 320.96 151.40 321.08 150.91
  Q 321.44 149.45 320.93 147.98
  A 0.64 0.64 0.0 0 0 320.19 147.57
  C 317.62 148.16 317.13 155.19 317.25 156.96"
/>
<path stroke="#858585" vector-effect="non-scaling-stroke" d="
  M 317.25 156.96
  Q 316.36 157.18 315.48 156.89
  A 0.68 0.67 8.9 0 1 315.01 156.25
  L 314.99 138.52
  A 0.59 0.59 0.0 0 0 314.15 137.99
  Q 309.13 140.37 305.97 144.79
  C 303.85 147.76 304.44 153.20 304.51 156.73
  A 1.17 1.16 -19.7 0 1 304.06 157.67
  L 298.83 161.64
  Q 298.28 162.05 298.19 161.37
  L 295.94 142.64
  A 0.89 0.89 0.0 0 0 294.54 142.02
  L 289.38 145.74
  Q 288.40 146.46 289.11 145.47
  L 292.98 140.12
  A 0.52 0.51 -66.3 0 0 292.67 139.31
  C 285.74 137.81 272.33 167.03 270.06 172.84"
/>
<path stroke="#858585" vector-effect="non-scaling-stroke" d="
  M 270.06 172.84
  Q 265.65 174.93 262.50 178.04"
/>
<path stroke="#e8e8e8" vector-effect="non-scaling-stroke" d="
  M 262.50 178.04
  Q 261.49 178.06 261.44 177.24
  A 0.74 0.73 -80.0 0 0 260.99 176.59
  C 256.93 174.87 260.44 166.38 257.46 162.50"
/>
<path stroke="#858585" vector-effect="non-scaling-stroke" d="
  M 257.46 162.50
  C 261.46 151.60 264.92 142.04 263.76 131.96
  Q 263.45 129.33 260.80 129.46
  Q 244.86 130.28 235.37 142.86
  A 0.36 0.35 46.0 0 1 234.79 142.84
  C 230.52 136.70 220.54 131.07 213.29 136.32
  C 201.13 145.12 196.15 160.35 194.69 175.01
  C 194.32 178.71 191.84 198.11 189.98 198.82
  Q 188.02 199.57 188.02 197.47
  C 188.01 188.85 187.59 180.30 188.94 171.91
  Q 190.90 159.76 193.54 147.74
  A 0.50 0.49 -61.8 0 0 193.41 147.28
  L 193.23 147.09
  A 0.35 0.35 0.0 0 0 192.80 147.05
  L 191.62 147.83
  Q 190.15 148.80 191.21 147.40
  C 191.76 146.68 195.46 141.81 195.15 141.26
  A 0.45 0.45 0.0 0 0 194.54 141.09
  C 186.14 145.90 177.04 158.38 170.61 166.87
  A 0.33 0.33 0.0 0 1 170.06 166.83
  Q 163.84 155.32 158.70 143.28
  A 0.45 0.44 -27.3 0 0 158.05 143.08
  C 153.58 145.87 148.35 149.83 148.75 155.91
  C 149.12 161.44 149.02 166.96 148.96 172.50"
/>
<path stroke="#e8e8e8" vector-effect="non-scaling-stroke" d="
  M 148.96 172.50
  Q 147.02 173.33 146.60 175.53
  Q 146.30 177.13 145.94 175.54
  Q 145.67 174.38 146.07 173.18
  A 0.75 0.74 33.6 0 0 145.92 172.46
  C 144.53 170.87 142.43 173.76 141.96 174.83
  A 1.26 1.22 -1.8 0 1 141.38 175.43
  Q 140.84 175.69 140.47 176.16
  A 0.73 0.72 -57.2 0 1 139.58 176.36
  C 137.54 175.35 142.63 172.28 138.46 169.00"
/>
<path stroke="#858585" vector-effect="non-scaling-stroke" d="
  M 138.46 169.00
  C 140.40 167.35 143.76 164.55 142.86 161.65
  A 0.65 0.64 79.6 0 0 142.21 161.19
  C 132.27 161.89 123.07 166.35 114.54 169.12
  A 0.41 0.41 0.0 0 1 114.00 168.73
  L 114.00 151.05
  A 0.84 0.84 0.0 0 1 114.44 150.31
  Q 122.41 146.05 131.27 144.32
  A 0.52 0.51 82.0 0 1 131.88 144.79
  L 132.21 148.57
  Q 132.32 149.77 133.24 149.00
  C 137.08 145.78 143.08 141.26 141.87 135.76
  A 1.02 1.01 84.5 0 0 140.91 134.96
  C 135.07 134.80 131.50 136.56 125.21 139.38
  C 114.86 144.03 107.05 149.09 100.73 157.24
  C 96.47 162.74 98.20 168.67 99.68 174.80
  A 1.69 1.68 -42.8 0 1 99.64 175.75
  Q 96.91 183.96 92.63 191.47
  C 90.23 195.70 87.78 197.98 83.05 194.82
  Q 80.94 193.40 80.93 190.86
  L 80.83 168.67
  A 1.84 1.81 61.8 0 1 81.12 167.68
  Q 91.78 151.53 93.09 132.14
  Q 93.26 129.62 90.74 129.85
  Q 89.36 129.98 87.07 131.59
  C 73.84 140.92 73.93 157.03 71.39 172.01
  Q 70.59 176.76 68.71 178.81
  C 63.36 184.65 53.20 181.90 53.73 172.75
  Q 54.70 156.22 58.17 139.26
  Q 58.67 136.79 56.26 137.54
  C 51.62 138.96 49.00 143.51 47.99 148.45
  Q 44.69 164.53 43.79 180.92
  C 43.60 184.32 43.90 188.12 47.15 190.04
  C 55.66 195.07 64.54 186.45 70.53 181.15
  Q 70.97 180.76 70.98 181.34
  Q 71.04 189.35 70.98 197.45
  C 70.91 209.37 81.42 207.27 87.59 201.84
  Q 96.23 194.25 102.06 184.30
  Q 102.27 183.95 102.74 184.01
  A 0.64 0.63 2.2 0 1 103.29 184.60
  C 103.74 192.64 102.49 201.50 106.46 207.35
  A 0.65 0.65 0.0 0 1 106.41 208.13
  L 105.00 209.79"
/>
<path stroke="#e8e8e8" vector-effect="non-scaling-stroke" d="
  M 105.00 209.79
  L 104.53 209.76
  A 0.83 0.83 0.0 0 1 103.80 209.22
  C 103.31 207.89 101.05 201.66 99.23 202.31
  A 0.72 0.70 78.4 0 0 98.77 203.02
  C 98.87 204.64 100.53 206.02 98.66 207.54
  A 0.42 0.41 -31.6 0 1 98.02 207.39
  C 97.56 206.39 97.04 203.49 95.57 203.30
  A 0.60 0.60 0.0 0 0 94.93 203.68
  Q 94.14 205.70 94.71 207.78
  A 1.11 1.08 -33.7 0 1 94.50 208.78
  L 94.09 209.28
  A 0.67 0.67 0.0 0 1 93.29 209.46
  L 90.18 208.03
  A 1.15 1.13 -84.6 0 1 89.55 207.26
  L 89.24 205.96
  A 0.49 0.49 0.0 0 0 88.64 205.60
  C 86.92 206.03 89.74 212.92 84.33 215.52
  Q 81.62 216.83 81.41 213.82
  Q 81.13 209.70 76.91 209.45
  A 1.04 1.01 -14.3 0 1 76.10 208.98
  Q 75.38 207.86 74.07 207.99
  A 0.62 0.61 89.5 0 0 73.52 208.56
  C 73.18 214.11 75.27 216.62 76.30 221.73
  A 0.46 0.46 0.0 0 1 75.86 222.28
  C 74.35 222.29 72.90 213.83 70.57 211.96
  Q 69.88 211.41 69.90 212.29
  L 70.11 219.83
  Q 70.16 221.73 69.41 219.98
  L 66.53 213.25
  Q 66.36 212.84 66.20 213.26
  Q 65.27 215.75 64.70 218.37
  C 64.04 221.41 62.22 223.80 61.78 227.12
  A 1.62 1.61 71.3 0 1 61.32 228.06
  Q 59.35 230.07 60.38 232.96
  A 1.16 1.15 -40.9 0 1 60.31 233.91
  C 58.41 237.36 61.11 243.58 62.45 246.75
  A 0.93 0.92 -7.0 0 0 63.15 247.29
  L 67.94 248.00"
/>
<path stroke="#858585" vector-effect="non-scaling-stroke" d="
  M 63.08 60.09
  L 62.26 68.74
  A 1.16 1.15 72.8 0 1 61.84 69.54
  C 49.78 79.78 38.84 91.04 26.88 101.35
  C 23.56 104.21 13.93 111.93 13.96 116.44
  Q 13.97 117.31 14.65 116.78
  C 25.26 108.51 35.47 97.22 43.54 89.70
  Q 52.42 81.43 61.39 73.20
  Q 62.19 72.47 62.14 73.55
  Q 61.15 95.70 66.19 117.17
  Q 67.02 120.71 69.96 118.57
  Q 74.26 115.44 77.29 111.36
  A 0.82 0.81 -38.2 0 0 77.39 110.57
  C 71.95 97.41 71.79 78.53 72.37 64.36
  A 3.80 3.77 -22.6 0 1 73.37 61.96
  Q 77.68 57.33 80.10 51.53
  Q 80.93 49.55 78.80 49.35
  L 74.19 48.91
  A 1.41 1.40 4.3 0 1 72.92 47.44
  L 74.14 23.18
  Q 74.26 20.80 75.74 18.93
  L 80.17 13.33
  Q 81.33 11.85 79.46 12.07
  Q 73.87 12.74 69.76 16.28
  C 55.87 28.23 41.63 39.74 27.79 51.77
  Q 22.99 55.93 20.08 60.34
  Q 18.48 62.77 21.38 62.90
  C 34.73 63.52 48.22 60.24 61.57 58.62
  A 1.35 1.35 0.0 0 1 63.08 60.09"
/>
<path stroke="#858585" vector-effect="non-scaling-stroke" d="
  M 152.05 78.77
  C 151.61 67.93 152.94 56.67 153.05 45.32
  A 1.12 1.12 0.0 0 0 151.41 44.32
  Q 148.71 45.74 145.72 48.73
  C 142.59 51.86 143.18 54.40 143.06 58.38
  Q 142.71 70.27 142.02 82.28
  A 0.84 0.84 0.0 0 1 141.47 83.02
  Q 133.77 85.79 129.74 92.95
  Q 129.01 94.24 130.43 93.80
  L 141.13 90.43
  A 0.35 0.35 0.0 0 1 141.58 90.78
  L 140.53 116.25
  Q 140.48 117.36 141.42 116.76
  C 146.76 113.34 151.44 109.63 150.99 102.73
  Q 150.83 100.14 151.09 86.77
  A 0.69 0.68 80.7 0 1 151.54 86.14
  Q 159.73 83.24 167.42 79.19
  Q 167.95 78.91 167.90 79.50
  Q 166.47 96.03 166.00 106.26
  C 165.75 111.86 168.45 116.56 174.83 114.87
  C 177.78 114.10 180.08 111.28 182.56 109.25
  Q 183.28 108.66 183.13 109.58
  L 181.96 116.84
  Q 181.63 118.92 183.52 119.86
  C 192.24 124.19 203.58 111.78 208.35 105.83
  Q 208.94 105.08 208.88 104.43
  A 0.34 0.34 0.0 0 0 208.36 104.18
  C 203.65 107.40 201.23 111.99 194.64 110.82
  Q 192.00 110.35 192.29 107.69
  L 193.07 100.57
  A 0.64 0.63 -87.4 0 1 193.69 100.00
  Q 203.91 99.86 213.97 98.05
  A 0.62 0.61 76.3 0 1 214.67 98.48
  L 219.24 113.24
  A 1.17 1.17 0.0 0 0 220.91 113.93
  Q 225.39 111.54 228.53 107.59
  Q 230.28 105.39 229.27 102.75
  L 226.25 94.91
  A 0.93 0.92 57.3 0 1 226.46 93.93
  L 232.85 87.51
  A 0.87 0.87 0.0 0 0 232.88 86.32
  C 232.27 85.64 226.70 87.39 226.16 87.50
  Q 224.07 87.92 224.06 85.79
  L 223.97 59.50
  A 0.59 0.59 0.0 0 0 223.13 58.97
  C 218.57 61.06 213.48 65.43 213.47 70.88
  Q 213.45 80.01 213.60 88.45
  A 1.47 1.47 0.0 0 1 212.14 89.95
  L 196.80 90.03
  A 0.38 0.38 0.0 0 1 196.45 89.51
  Q 203.02 72.66 214.08 58.42
  C 217.01 54.64 225.11 50.13 225.71 45.63
  Q 225.77 45.11 225.31 45.35
  Q 217.62 49.34 211.64 56.40
  Q 193.13 78.30 183.80 104.77
  A 0.73 0.73 0.0 0 1 183.00 105.25
  L 178.50 104.56
  A 2.00 2.00 0.0 0 1 176.81 102.63
  C 176.59 92.92 176.27 82.10 178.06 72.68
  A 1.45 1.44 74.5 0 1 178.52 71.86
  C 184.99 66.16 189.59 59.92 190.27 50.93
  Q 190.43 48.77 188.42 47.95
  C 187.12 47.41 184.15 47.65 182.69 48.41
  C 173.55 53.18 170.22 62.62 168.98 72.35
  A 0.96 0.95 -7.4 0 1 168.38 73.12
  L 152.64 79.16
  A 0.44 0.43 -11.2 0 1 152.05 78.77"
/>
<path stroke="#858585" vector-effect="non-scaling-stroke" d="
  M 63.19 49.09
  C 63.90 41.66 64.36 34.04 64.65 26.59
  Q 64.73 24.57 63.14 25.82
  Q 46.85 38.70 31.35 52.55
  Q 30.98 52.88 31.47 52.91
  C 42.27 53.55 52.29 51.27 62.65 49.67
  A 0.65 0.65 0.0 0 0 63.19 49.09"
/>
<path stroke="#858585" vector-effect="non-scaling-stroke" d="
  M 179.2873 64.2418
  A 1.61 0.46 95.8 0 0 179.9076 62.6865
  A 1.61 0.46 95.8 0 0 179.6127 61.0382
  A 1.61 0.46 95.8 0 0 178.9924 62.5935
  A 1.61 0.46 95.8 0 0 179.2873 64.2418"
/>
<path stroke="#6e6e6e" vector-effect="non-scaling-stroke" d="
  M 257.46 162.50
  Q 253.45 172.59 248.37 182.33
  A 0.46 0.45 -76.1 0 0 248.77 183.00
  L 257.69 183.00
  A 2.61 2.61 0.0 0 1 259.96 184.32
  L 263.11 189.89
  Q 263.40 190.41 263.59 189.84
  L 265.60 183.80
  A 0.50 0.50 0.0 0 0 265.22 183.15
  C 263.95 182.89 260.76 183.40 260.15 182.32
  A 0.83 0.82 47.9 0 1 260.19 181.45
  L 262.50 178.04"
/>
<path stroke="#0a0a0a" vector-effect="non-scaling-stroke" d="
  M 270.06 172.84
  L 274.70 172.83
  Q 276.95 172.82 275.98 174.86
  Q 274.30 178.38 273.75 182.96"
/>
<path stroke="#6e6e6e" vector-effect="non-scaling-stroke" d="
  M 273.75 182.96
  L 273.50 183.21"
/>
<path stroke="#858585" vector-effect="non-scaling-stroke" d="
  M 273.50 183.21
  Q 272.12 184.83 271.96 187.00"
/>
<path stroke="#6e6e6e" vector-effect="non-scaling-stroke" d="
  M 271.96 187.00
  Q 271.07 188.72 271.26 190.41
  Q 271.39 191.52 272.06 190.63
  Q 274.54 187.31 278.41 185.91
  Q 279.88 185.37 279.03 186.68
  L 273.46 195.25"
/>
<path stroke="#5f5f5f" vector-effect="non-scaling-stroke" d="
  M 273.46 195.25
  Q 269.72 200.38 264.57 204.08
  C 263.20 205.07 262.94 209.12 262.03 210.87
  Q 254.20 225.99 237.96 231.50"
/>
<path stroke="#6e6e6e" vector-effect="non-scaling-stroke" d="
  M 237.96 231.50
  L 235.38 231.94
  A 1.56 1.52 -36.5 0 1 234.43 231.81
  C 230.22 229.79 232.59 221.87 233.87 217.91
  C 236.76 208.99 240.34 199.91 247.62 193.63
  A 0.30 0.29 34.1 0 0 247.52 193.13
  C 244.23 191.96 241.86 192.53 239.53 195.34
  Q 234.22 201.76 226.25 206.87
  A 1.59 1.58 61.7 0 1 223.95 206.18
  C 222.53 203.03 227.12 197.15 229.49 195.21
  A 1.28 1.26 71.5 0 0 229.96 194.24
  L 229.99 184.19
  Q 230.00 182.97 229.37 184.01
  C 225.04 191.26 217.13 200.01 209.01 202.94"
/>
<path stroke="#858585" vector-effect="non-scaling-stroke" d="
  M 209.01 202.94
  L 206.00 203.04"
/>
<path stroke="#6e6e6e" vector-effect="non-scaling-stroke" d="
  M 206.00 203.04
  L 202.50 202.54"
/>
<path stroke="#858585" vector-effect="non-scaling-stroke" d="
  M 202.50 202.54
  Q 199.16 201.74 196.68 199.42
  A 0.47 0.46 -47.9 0 0 196.01 199.46
  L 190.29 206.19"
/>
<path stroke="#6e6e6e" vector-effect="non-scaling-stroke" d="
  M 190.29 206.19
  Q 186.95 208.99 183.34 210.13"
/>
<path stroke="#858585" vector-effect="non-scaling-stroke" d="
  M 183.34 210.13
  L 181.25 209.71"
/>
<path stroke="#6e6e6e" vector-effect="non-scaling-stroke" d="
  M 181.25 209.71
  C 176.73 208.16 177.68 204.12 177.72 200.28
  Q 177.78 195.07 177.79 189.63"
/>
<path stroke="#858585" vector-effect="non-scaling-stroke" d="
  M 177.79 189.63
  L 179.06 180.26
  Q 179.20 179.20 178.45 179.95
  L 174.57 183.78"
/>
<path stroke="#6e6e6e" vector-effect="non-scaling-stroke" d="
  M 174.57 183.78
  C 170.47 186.45 168.25 184.50 164.40 181.97
  A 0.60 0.59 36.9 0 0 163.62 182.08
  L 162.00 183.96"
/>
<path stroke="#858585" vector-effect="non-scaling-stroke" d="
  M 162.00 183.96
  Q 160.48 184.89 159.71 186.50"
/>
<path stroke="#6e6e6e" vector-effect="non-scaling-stroke" d="
  M 159.71 186.50
  Q 158.11 192.42 160.88 198.13
  A 1.93 1.91 -41.6 0 1 160.76 200.01
  Q 157.72 204.64 152.87 207.48
  Q 150.81 208.68 150.27 206.36
  Q 148.77 199.96 149.03 193.30
  Q 149.09 191.69 147.94 192.81
  C 140.52 199.96 124.95 205.64 114.00 209.71"
/>
<path stroke="#858585" vector-effect="non-scaling-stroke" d="
  M 114.00 209.71
  L 112.00 210.29"
/>
<path stroke="#6e6e6e" vector-effect="non-scaling-stroke" d="
  M 112.00 210.29
  C 110.73 210.58 104.95 212.07 105.00 209.79"
/>
<path stroke="#6e6e6e" vector-effect="non-scaling-stroke" d="
  M 138.46 169.00
  L 133.75 173.04"
/>
<path stroke="#858585" vector-effect="non-scaling-stroke" d="
  M 133.75 173.04
  L 132.78 171.34
  A 0.75 0.75 0.0 0 0 132.00 170.97
  Q 122.82 172.54 114.26 176.27
  A 0.49 0.49 0.0 0 0 113.99 176.87
  Q 116.50 184.04 116.21 191.75"
/>
<path stroke="#6e6e6e" vector-effect="non-scaling-stroke" d="
  M 116.21 191.75
  Q 116.19 196.26 114.73 200.48
  A 0.39 0.39 0.0 0 0 115.06 201.00
  Q 117.34 201.21 119.50 200.46"
/>
<path stroke="#858585" vector-effect="non-scaling-stroke" d="
  M 119.50 200.46
  L 125.00 198.71"
/>
<path stroke="#6e6e6e" vector-effect="non-scaling-stroke" d="
  M 125.00 198.71
  Q 137.05 194.40 147.98 188.52
  A 1.92 1.91 76.0 0 0 148.99 186.83
  L 148.96 172.50"
/>
<path stroke="#6e6e6e" vector-effect="non-scaling-stroke" d="
  M 240.04 157.75
  Q 239.95 170.85 240.22 183.93
  Q 240.24 184.62 240.27 184.67
  Q 240.76 185.64 241.26 184.68
  Q 245.03 177.41 247.71 170.00"
/>
<path stroke="#858585" vector-effect="non-scaling-stroke" d="
  M 247.71 170.00
  C 251.25 161.13 255.45 149.32 253.39 139.74
  A 0.62 0.62 0.0 0 0 252.77 139.25
  C 247.41 139.32 240.32 140.50 236.61 144.82
  A 1.59 1.58 -30.1 0 0 236.26 146.12
  L 237.30 151.78
  A 0.49 0.48 71.2 0 0 238.00 152.13
  L 239.52 151.35
  A 0.33 0.33 0.0 0 1 239.94 151.46
  C 240.19 151.84 240.02 156.89 240.04 157.75"
/>
<path stroke="#e8e8e8" vector-effect="non-scaling-stroke" d="
  M 247.71 170.00
  Q 247.20 170.02 246.86 169.63
  A 0.87 0.85 -54.5 0 1 246.72 168.73
  Q 248.44 164.58 246.01 160.90
  Q 245.14 159.59 244.75 161.10
  L 243.87 164.45
  A 0.42 0.41 6.5 0 1 243.48 164.75
  L 243.14 164.76
  A 0.44 0.43 -1.4 0 1 242.70 164.35
  C 242.60 162.17 244.48 156.52 240.04 157.75"
/>
<path stroke="#6e6e6e" vector-effect="non-scaling-stroke" d="
  M 211.50 192.29
  Q 215.26 193.95 218.85 192.29
  A 1.66 1.63 -86.4 0 0 219.56 191.65
  Q 225.54 181.29 225.96 169.25"
/>
<path stroke="#858585" vector-effect="non-scaling-stroke" d="
  M 225.96 169.25
  C 226.91 163.95 227.65 157.71 224.87 152.96
  Q 220.45 145.40 210.99 144.25
  A 0.72 0.70 16.5 0 0 210.27 144.63
  Q 208.52 148.21 207.52 153.75
  Q 204.70 169.42 204.99 182.50
  Q 205.05 185.09 208.26 186.71
  A 0.55 0.55 0.0 0 1 208.47 187.51
  L 207.40 189.13
  A 0.75 0.75 0.0 0 0 207.39 189.92
  Q 208.73 192.15 211.50 192.29"
/>
<path stroke="#e8e8e8" vector-effect="non-scaling-stroke" d="
  M 225.96 169.25
  L 221.39 173.95
  A 1.38 1.34 69.4 0 0 221.01 174.82
  Q 220.96 175.67 220.51 176.36
  A 0.26 0.26 0.0 0 1 220.07 176.35
  L 219.82 175.92
  A 0.63 0.63 0.0 0 0 219.04 175.67
  C 212.14 178.60 213.76 186.16 211.50 192.29"
/>
<path stroke="#858585" vector-effect="non-scaling-stroke" d="
  M 172.63 169.85
  C 173.20 171.76 177.70 174.55 179.23 175.03
  A 0.45 0.45 0.0 0 0 179.80 174.69
  L 183.61 156.53
  Q 183.84 155.44 183.14 156.31
  L 172.77 169.12
  A 0.82 0.78 57.1 0 0 172.63 169.85"
/>
<path stroke="#858585" vector-effect="non-scaling-stroke" d="
  M 159.67 179.78
  C 161.60 179.22 160.46 176.23 159.62 175.32
  Q 158.99 174.64 158.99 175.57
  L 159.00 179.28
  A 0.52 0.52 0.0 0 0 159.67 179.78"
/>
<path stroke="#5f5f5f" vector-effect="non-scaling-stroke" d="
  M 245.58 221.85
  L 249.21 220.79
  Q 252.26 219.88 253.02 216.80
  Q 255.86 205.29 250.89 194.61
  Q 250.60 194.00 250.29 194.58
  Q 244.06 205.89 241.87 218.55
  Q 241.07 223.19 245.58 221.85"
/>
<path stroke="#6e6e6e" vector-effect="non-scaling-stroke" d="
  M 378.71 194.75
  L 373.71 199.00"
/>
<path stroke="#858585" vector-effect="non-scaling-stroke" d="
  M 373.71 199.00
  L 372.29 199.75"
/>
<path stroke="#6e6e6e" vector-effect="non-scaling-stroke" d="
  M 372.29 199.75
  C 367.37 195.67 366.35 191.12 363.93 185.57
  A 0.69 0.69 0.0 0 0 363.23 185.16
  Q 355.19 186.03 347.30 185.68"
/>
<path stroke="#858585" vector-effect="non-scaling-stroke" d="
  M 347.30 185.68
  L 346.50 185.79"
/>
<path stroke="#6e6e6e" vector-effect="non-scaling-stroke" d="
  M 346.50 185.79
  L 342.67 185.82
  A 0.69 0.68 89.2 0 0 341.99 186.53
  L 342.10 189.31
  A 1.05 1.04 12.5 0 0 342.68 190.21
  Q 347.01 192.39 350.97 190.03
  A 0.54 0.53 61.2 0 1 351.72 190.25
  C 352.62 192.11 343.81 199.49 342.25 200.54"
/>
<path stroke="#5f5f5f" vector-effect="non-scaling-stroke" d="
  M 342.25 200.54
  Q 338.37 201.73 334.42 200.65
  Q 331.53 199.86 331.88 196.88
  L 332.92 188.05
  Q 333.20 185.72 330.85 185.74
  L 327.66 185.76
  A 0.56 0.55 3.5 0 0 327.11 186.24
  L 326.50 190.70
  A 0.80 0.80 0.0 0 0 326.98 191.55
  L 328.13 192.05
  A 1.12 1.12 0.0 0 1 328.57 193.76
  Q 324.76 198.67 319.43 201.90
  A 1.13 1.11 36.6 0 1 318.55 202.02
  Q 316.12 201.37 316.46 198.50"
/>
<path stroke="#6e6e6e" vector-effect="non-scaling-stroke" d="
  M 316.46 198.50
  C 317.43 184.81 321.94 174.74 326.51 162.38
  Q 326.67 161.94 326.24 162.12
  L 315.48 166.50
  A 0.72 0.71 -11.0 0 0 315.03 167.16
  Q 314.92 184.93 315.05 195.18
  Q 315.07 196.76 315.79 198.50"
/>
<path stroke="#5f5f5f" vector-effect="non-scaling-stroke" d="
  M 315.79 198.50
  L 309.25 205.46"
/>
<path stroke="#6e6e6e" vector-effect="non-scaling-stroke" d="
  M 309.25 205.46
  Q 307.85 206.75 306.49 207.20
  A 1.08 1.07 79.6 0 1 305.08 206.22
  L 304.70 196.71
  Q 304.67 196.04 304.17 196.49
  L 299.01 201.18
  A 1.64 1.64 0.0 0 1 296.53 200.86
  C 292.59 194.79 291.56 188.52 289.69 181.39
  A 0.51 0.50 -13.9 0 0 289.08 181.03
  Q 281.45 183.01 273.75 182.96"
/>
<path stroke="#6e6e6e" vector-effect="non-scaling-stroke" d="
  M 317.25 156.96
  L 322.00 156.71"
/>
<path stroke="#6e6e6e" vector-effect="non-scaling-stroke" d="
  M 326.50 155.71
  Q 329.75 154.83 331.00 151.79"
/>
<path stroke="#6e6e6e" vector-effect="non-scaling-stroke" d="
  M 335.96 155.50
  Q 331.20 166.49 327.99 178.02
  A 0.50 0.50 0.0 0 0 328.11 178.49
  L 328.32 178.71
  A 0.49 0.49 0.0 0 0 329.04 178.71
  Q 331.94 175.57 336.15 176.00
  A 0.59 0.58 -79.5 0 0 336.77 175.57
  L 337.47 172.85"
/>
<path stroke="#858585" vector-effect="non-scaling-stroke" d="
  M 361.44 141.19
  Q 359.61 142.49 358.38 144.40
  Q 349.41 158.29 344.09 174.03
  Q 343.43 176.00 345.50 176.00
  L 361.75 176.00
  A 0.47 0.47 0.0 0 0 362.22 175.51
  Q 361.69 158.18 362.22 140.86
  Q 362.24 140.35 361.79 140.59
  Q 361.50 140.75 361.44 141.19"
/>
<path stroke="#6e6e6e" vector-effect="non-scaling-stroke" d="
  M 286.04 152.48
  A 0.40 0.40 0.0 0 0 285.28 152.37
  L 276.95 172.45
  A 0.40 0.40 0.0 0 0 277.32 173.00
  L 288.09 173.00
  A 0.40 0.40 0.0 0 0 288.49 172.55
  L 286.04 152.48"
/>
<path stroke="#6e6e6e" vector-effect="non-scaling-stroke" d="
  M 303.01 169.98
  L 300.37 173.13
  A 1.08 1.06 59.3 0 0 300.15 174.02
  C 300.51 175.79 303.10 187.00 304.23 187.58
  A 0.38 0.37 13.9 0 0 304.78 187.25
  L 304.68 167.72
  A 0.66 0.66 0.0 0 0 304.03 167.06
  L 299.63 166.98
  A 0.62 0.62 0.0 0 0 298.99 167.62
  L 299.04 169.54
  Q 299.09 171.48 300.38 170.03
  Q 301.28 169.00 302.58 169.03
  Q 303.78 169.06 303.01 169.98"
/>
<path stroke="#6e6e6e" vector-effect="non-scaling-stroke" d="
  M 379.71 212.75
  Q 374.08 222.61 368.96 232.77
  Q 365.60 239.43 361.21 241.73
  Q 357.52 243.66 359.47 239.99
  L 379.92 201.27"
/>
<path stroke="#c3c3c3" vector-effect="non-scaling-stroke" d="
  M 316.46 198.50
  L 315.79 198.50"
/>
<path stroke="#e8e8e8" vector-effect="non-scaling-stroke" d="
  M 125.00 198.71
  C 125.26 193.39 127.20 188.97 127.84 183.86
  C 128.21 180.85 128.50 176.41 131.31 174.72
  A 0.50 0.50 0.0 0 1 132.06 175.05
  L 132.44 177.02
  Q 132.55 177.53 132.88 177.13
  Q 134.45 175.28 133.75 173.04"
/>
<path stroke="#e8e8e8" vector-effect="non-scaling-stroke" d="
  M 119.50 200.46
  Q 123.53 190.22 125.67 179.40
  A 0.53 0.53 0.0 0 0 125.24 178.78
  C 123.57 178.53 118.65 189.41 119.15 191.10
  A 0.57 0.55 -20.1 0 1 118.83 191.77
  Q 117.51 192.34 116.21 191.75"
/>
<path stroke="#e8e8e8" vector-effect="non-scaling-stroke" d="
  M 177.79 189.63
  Q 176.21 191.71 174.73 193.87
  Q 173.94 195.01 173.38 197.33
  Q 172.81 199.66 171.20 201.63
  Q 170.87 202.04 170.97 201.52
  L 174.57 183.78"
/>
<path stroke="#c3c3c3" vector-effect="non-scaling-stroke" d="
  M 309.25 205.46
  Q 309.75 205.38 310.07 205.70
  A 0.73 0.72 -49.5 0 1 310.14 206.65
  L 309.55 207.47
  A 0.81 0.77 56.7 0 0 309.42 208.17
  L 310.88 213.41
  A 1.27 1.26 -35.2 0 1 310.69 214.50
  L 307.11 219.39
  A 1.05 1.02 57.2 0 0 306.94 220.24
  C 307.34 221.88 307.99 231.81 306.03 232.03
  A 0.48 0.47 -3.9 0 1 305.50 231.57
  Q 305.39 225.51 306.45 219.56
  A 0.88 0.86 26.4 0 0 306.17 218.75
  C 304.25 217.03 302.30 220.52 301.72 222.05
  C 300.66 224.86 299.14 226.66 297.56 228.97
  Q 296.92 229.91 296.94 228.78
  C 297.00 225.91 298.56 223.63 299.00 221.43
  Q 300.24 215.31 298.52 209.29
  Q 298.36 208.73 298.04 209.22
  Q 294.32 214.89 294.82 221.80
  A 0.12 0.11 77.0 0 1 294.75 221.92
  L 294.47 222.01
  A 0.26 0.26 0.0 0 1 294.13 221.80
  Q 293.17 215.51 294.04 209.24
  A 3.13 3.10 28.1 0 0 293.26 206.70
  L 290.67 203.87
  A 0.36 0.36 0.0 0 0 290.07 203.99
  L 289.51 205.59
  A 0.75 0.75 0.0 0 1 288.58 206.06
  Q 286.99 205.57 285.92 204.26
  A 0.81 0.80 60.4 0 0 285.03 204.01
  L 283.90 204.39
  A 0.44 0.44 0.0 0 1 283.36 204.18
  L 281.18 199.99
  A 1.54 1.51 36.5 0 1 281.02 198.98
  C 281.50 196.32 284.25 188.04 283.09 186.01
  A 0.88 0.87 45.3 0 0 281.58 186.00
  Q 280.59 187.67 281.35 189.38
  A 1.41 1.40 -46.2 0 1 281.37 190.45
  L 278.64 197.61
  A 1.26 1.25 -75.2 0 1 277.27 198.41
  Q 274.31 197.93 273.46 195.25"
/>
<path stroke="#e8e8e8" vector-effect="non-scaling-stroke" d="
  M 271.96 187.00
  L 273.21 187.44
  A 0.67 0.66 25.4 0 0 274.00 187.16
  C 274.76 185.94 275.74 183.70 273.50 183.21"
/>
<path stroke="#e8e8e8" vector-effect="non-scaling-stroke" d="
  M 181.25 209.71
  Q 181.06 212.33 180.35 214.80
  C 179.01 219.39 178.33 222.76 177.51 226.88
  A 0.55 0.54 -77.8 0 0 177.91 227.52
  C 178.42 227.64 178.68 227.26 178.82 226.79
  Q 181.22 218.42 183.34 210.13"
/>
<path stroke="#e8e8e8" vector-effect="non-scaling-stroke" d="
  M 190.29 206.19
  L 190.27 216.00
  A 1.28 1.27 24.0 0 0 190.62 216.90
  Q 192.36 218.74 192.23 221.41
  A 0.82 0.80 -17.7 0 1 191.91 222.01
  L 190.67 222.93
  A 0.71 0.71 0.0 0 0 190.46 223.81
  C 193.09 229.10 191.39 232.55 190.83 237.46
  A 0.50 0.50 0.0 0 0 191.21 238.00
  C 192.51 238.31 193.28 234.56 193.40 233.76
  Q 193.65 231.96 193.75 233.78
  L 193.85 235.54
  Q 193.92 236.75 194.56 235.73
  L 196.46 232.75"
/>
<path stroke="#c3c3c3" vector-effect="non-scaling-stroke" d="
  M 196.46 232.75
  C 196.90 234.50 198.37 236.78 197.00 238.33
  A 0.63 0.62 -56.9 0 1 196.27 238.49
  L 194.69 237.77
  A 0.45 0.45 0.0 0 0 194.05 238.17
  C 193.95 241.07 191.86 244.96 194.19 248.00"
/>
<path stroke="#c3c3c3" vector-effect="non-scaling-stroke" d="
  M 186.69 248.00
  Q 187.27 246.70 187.17 245.19
  A 0.73 0.72 75.6 0 1 187.58 244.49
  C 189.05 243.77 189.95 241.74 188.34 240.53
  A 0.82 0.82 0.0 0 1 188.01 239.72
  Q 188.11 239.16 187.66 238.74
  Q 186.98 238.10 186.99 239.03
  L 187.01 240.13
  Q 187.04 241.43 186.16 240.47
  Q 185.47 239.73 185.21 238.68
  Q 184.99 237.76 184.44 238.53
  L 184.09 239.02
  A 1.04 1.03 55.9 0 0 183.93 239.88
  Q 184.68 242.75 183.67 245.50
  A 0.39 0.39 0.0 0 1 183.29 245.75
  L 183.03 245.75
  A 0.30 0.30 0.0 0 1 182.74 245.41
  L 183.04 243.13
  A 1.25 1.22 28.8 0 0 182.75 242.17
  Q 181.04 240.19 181.57 237.57
  Q 181.84 236.26 180.90 237.21
  L 180.14 237.98
  A 0.89 0.88 -31.3 0 0 179.92 238.87
  Q 180.50 240.84 179.15 242.00
  A 0.65 0.65 0.0 0 1 178.22 241.91
  Q 175.34 238.28 174.43 233.71
  Q 174.28 232.92 174.17 233.71
  C 174.13 234.01 173.82 239.94 173.57 240.01
  A 0.53 0.52 74.3 0 1 172.94 239.65
  L 172.73 238.99
  A 0.41 0.41 0.0 0 0 172.05 238.82
  L 171.50 239.37
  A 1.43 1.42 70.5 0 0 171.09 240.24
  L 170.78 243.71
  A 0.37 0.37 0.0 0 1 170.23 244.00
  L 169.98 243.85
  A 0.62 0.61 27.1 0 1 169.72 243.07
  Q 170.81 240.55 168.77 239.31
  A 0.50 0.49 -72.3 0 0 168.02 239.70
  L 167.49 246.76
  A 0.47 0.47 0.0 0 1 166.81 247.15
  C 166.35 246.93 165.66 241.52 165.38 240.53
  A 0.44 0.44 0.0 0 0 164.79 240.25
  Q 161.52 241.64 161.47 245.11
  A 1.63 1.58 -30.0 0 1 161.23 245.95
  L 160.49 247.14
  Q 160.13 247.71 160.81 247.68
  Q 161.48 247.65 161.94 248.00"
/>
<path stroke="#c3c3c3" vector-effect="non-scaling-stroke" d="
  M 132.94 247.88
  Q 129.12 232.79 123.02 218.47
  C 122.18 216.51 122.17 212.70 120.49 211.55
  A 0.42 0.41 -61.5 0 0 119.87 211.74
  Q 116.22 220.82 115.17 230.56
  Q 115.14 230.80 115.04 230.95
  Q 114.91 231.13 114.73 231.25
  A 0.44 0.44 0.0 0 1 114.04 231.00
  L 113.82 230.13
  A 0.65 0.63 -12.9 0 0 113.07 229.67
  Q 111.17 230.06 111.22 231.88
  A 0.44 0.44 0.0 0 0 111.69 232.31
  L 112.71 232.23
  Q 113.50 232.18 113.15 232.88
  L 110.08 239.14
  A 1.70 1.66 53.6 0 0 109.93 240.22
  L 110.93 245.84
  A 0.64 0.64 0.0 0 1 110.25 246.59
  Q 108.26 246.42 107.44 248.00"
/>
<path stroke="#e8e8e8" vector-effect="non-scaling-stroke" d="
  M 112.00 210.29
  Q 112.77 212.86 114.64 214.67
  Q 115.01 215.03 115.10 214.52
  Q 115.52 211.96 114.00 209.71"
/>
<path stroke="#e8e8e8" vector-effect="non-scaling-stroke" d="
  M 159.71 186.50
  Q 160.42 187.31 161.41 187.76
  A 0.40 0.40 0.0 0 0 161.94 187.55
  L 163.11 184.78
  A 0.60 0.59 -63.5 0 0 162.87 184.04
  Q 162.55 183.84 162.00 183.96"
/>
<path stroke="#e8e8e8" vector-effect="non-scaling-stroke" d="
  M 79.6806 217.2003
  A 2.48 0.87 65.7 0 0 79.4529 214.5820
  A 2.48 0.87 65.7 0 0 77.6394 212.6797
  A 2.48 0.87 65.7 0 0 77.8671 215.2980
  A 2.48 0.87 65.7 0 0 79.6806 217.2003"
/>
<path stroke="#e8e8e8" vector-effect="non-scaling-stroke" d="
  M 190.40 230.47
  A 0.22 0.21 -48.4 0 0 190.67 230.45
  L 190.88 230.25
  A 0.39 0.39 0.0 0 0 190.97 229.80
  L 189.99 227.58
  Q 189.55 226.60 189.30 227.64
  Q 188.88 229.38 190.40 230.47"
/>
<path stroke="#c3c3c3" vector-effect="non-scaling-stroke" d="
  M 237.96 231.50
  C 238.98 237.08 238.88 242.47 240.19 248.00"
/>
<path stroke="#c3c3c3" vector-effect="non-scaling-stroke" d="
  M 223.19 248.00
  Q 224.16 247.78 224.06 247.46
  Q 222.94 244.03 222.08 240.48
  A 1.24 1.23 7.7 0 0 221.49 239.71
  Q 218.56 238.05 217.36 234.83
  A 1.02 1.01 -1.1 0 0 216.70 234.20
  L 215.63 233.86
  A 0.72 0.72 0.0 0 1 215.14 233.27
  Q 214.92 231.50 213.36 231.21
  A 0.56 0.56 0.0 0 0 212.71 231.87
  Q 213.64 236.67 210.92 240.70
  A 0.54 0.53 -45.9 0 1 210.05 240.72
  Q 208.95 239.20 207.29 239.79
  A 0.88 0.86 55.9 0 1 206.44 239.62
  C 205.31 238.63 202.81 233.80 201.41 235.19
  Q 200.92 235.68 200.93 234.99
  L 201.01 231.58
  Q 201.02 230.95 200.49 231.29
  L 199.63 231.84
  Q 199.12 232.16 199.22 231.57
  L 199.49 229.90
  A 0.58 0.58 0.0 0 0 199.06 229.25
  Q 198.51 229.10 198.04 229.50"
/>
<path stroke="#e8e8e8" vector-effect="non-scaling-stroke" d="
  M 198.04 229.50
  L 197.67 229.20
  A 0.82 0.79 -69.4 0 1 197.37 228.51
  L 197.55 225.37
  Q 197.58 224.89 197.83 224.46
  C 198.86 222.67 198.27 220.64 198.42 219.15
  C 199.08 212.92 200.58 208.41 202.50 202.54"
/>
<path stroke="#e8e8e8" vector-effect="non-scaling-stroke" d="
  M 206.00 203.04
  L 205.40 203.35
  A 0.36 0.36 0.0 0 0 205.31 203.93
  L 205.56 204.18
  A 0.77 0.75 -59.7 0 1 205.75 204.95
  L 201.59 218.56
  A 0.35 0.34 -81.1 0 0 201.91 219.01
  L 203.11 219.01
  A 1.11 1.11 0.0 0 1 204.20 220.31
  Q 204.07 221.06 204.59 221.55
  Q 205.13 222.06 205.28 221.34
  C 206.59 215.06 209.21 210.38 209.01 202.94"
/>
<path stroke="#e8e8e8" vector-effect="non-scaling-stroke" d="
  M 372.29 199.75
  Q 372.94 204.28 371.93 208.73
  A 0.32 0.32 0.0 0 0 372.32 209.12
  C 375.89 208.26 374.64 201.09 373.71 199.00"
/>
<path stroke="#c3c3c3" vector-effect="non-scaling-stroke" d="
  M 343.44 248.00
  L 345.44 247.58
  A 0.51 0.51 0.0 0 0 345.84 246.98
  C 343.19 233.14 342.39 220.68 338.43 205.76
  Q 338.21 204.92 338.80 203.39
  A 0.58 0.57 -71.5 0 1 339.49 203.04
  C 342.25 203.81 340.68 208.14 341.31 210.48
  Q 341.46 211.02 341.66 210.50
  C 342.44 208.41 341.02 205.57 342.74 204.06
  A 0.80 0.79 61.7 0 0 342.98 203.24
  L 342.25 200.54"
/>
<path stroke="#e8e8e8" vector-effect="non-scaling-stroke" d="
  M 346.50 185.79
  Q 345.19 186.74 345.91 188.30
  A 0.65 0.64 -19.1 0 0 346.64 188.65
  Q 348.98 188.10 347.30 185.68"
/>
<path stroke="#c3c3c3" vector-effect="non-scaling-stroke" d="
  M 276.65 248.00
  L 276.18 241.65
  A 0.43 0.41 89.2 0 0 275.79 241.26
  L 275.50 241.24
  A 0.41 0.41 0.0 0 0 275.06 241.68
  L 275.45 247.20
  A 0.50 0.50 0.0 0 1 275.15 247.69
  L 274.44 248.00"
/>
<path stroke="#c3c3c3" vector-effect="non-scaling-stroke" d="
  M 333.2908 243.9227
  A 4.31 0.81 77.8 0 0 333.1717 239.5388
  A 4.31 0.81 77.8 0 0 331.4692 235.4973
  A 4.31 0.81 77.8 0 0 331.5883 239.8812
  A 4.31 0.81 77.8 0 0 333.2908 243.9227"
/>
<path stroke="#dadada" vector-effect="non-scaling-stroke" d="
  M 198.04 229.50
  L 196.46 232.75"
/>
<path stroke="#c3c3c3" vector-effect="non-scaling-stroke" d="
  M 127.71 248.05
  Q 127.84 244.76 125.98 242.17
  Q 125.52 241.53 125.30 242.28
  Q 124.50 244.94 126.28 247.22
  A 0.44 0.44 0.0 0 1 126.23 247.81
  Q 126.11 247.92 125.94 248.00"
/>
<path stroke="#c3c3c3" vector-effect="non-scaling-stroke" d="
  M 198.19 248.00
  L 197.88 247.66
  A 0.82 0.81 -63.6 0 1 197.66 246.99
  C 197.88 245.22 198.15 241.93 196.66 241.22
  Q 196.18 240.99 196.36 241.49
  Q 197.56 244.80 196.23 248.11"
/>
</g>
<path fill="#ffffff" d="
  M 0.00 0.00
  L 449.00 0.00
  L 449.00 248.00
  L 382.56 247.99
  Q 381.70 236.56 379.85 225.24
  Q 379.14 220.87 380.44 213.89
  A 0.85 0.83 24.4 0 0 380.12 213.06
  L 379.71 212.75
  L 397.29 179.50
  A 0.25 0.25 0.0 0 1 397.71 179.46
  Q 406.66 190.44 417.93 199.00
  A 0.91 0.91 0.0 0 0 418.96 199.05
  Q 424.07 195.80 427.74 190.99
  A 1.27 1.26 36.5 0 0 427.47 189.20
  Q 415.29 180.39 405.87 168.07
  Q 404.27 165.98 405.73 163.25
  Q 412.84 149.97 419.11 135.89
  A 0.68 0.68 0.0 0 0 418.63 134.95
  C 416.36 134.48 411.05 140.58 410.46 141.74
  Q 406.36 149.90 402.45 158.90
  Q 401.55 160.95 400.40 159.03
  Q 394.61 149.34 391.62 138.53
  A 0.47 0.46 69.5 0 0 390.97 138.23
  C 387.16 140.02 380.74 145.09 382.14 149.81
  Q 385.36 160.71 393.86 174.58
  A 0.86 0.85 -46.8 0 1 393.88 175.44
  L 379.92 201.27
  L 378.71 194.75
  L 381.42 191.08
  A 0.69 0.69 0.0 0 0 381.43 190.29
  L 376.35 182.98
  Q 374.80 180.76 376.67 178.80
  L 379.89 175.41
  A 0.83 0.83 0.0 0 0 379.70 174.12
  C 378.58 173.47 376.25 175.13 375.56 175.03
  Q 373.08 174.70 372.93 172.20
  Q 371.71 152.52 372.04 133.25
  Q 372.06 132.38 371.32 132.08
  A 0.73 0.73 0.0 0 0 370.50 132.28
  C 368.42 134.65 366.08 134.20 363.96 135.62
  C 350.51 144.63 344.32 159.61 337.47 172.85
  Q 335.79 165.63 336.66 158.41
  Q 336.72 157.92 336.57 157.45
  L 335.96 155.50
  Q 336.04 154.57 336.30 154.30
  C 341.33 149.10 346.50 144.11 348.46 136.91
  A 1.52 1.52 0.0 0 0 347.03 134.99
  C 340.79 134.87 333.24 146.84 331.00 151.79
  L 329.69 151.72
  A 0.45 0.45 0.0 0 1 329.27 151.17
  L 329.60 149.76
  A 0.57 0.57 0.0 0 0 329.22 149.10
  C 326.21 148.13 325.91 153.99 326.50 155.71
  L 322.00 156.71
  L 321.06 151.89
  Q 320.96 151.40 321.08 150.91
  Q 321.44 149.45 320.93 147.98
  A 0.64 0.64 0.0 0 0 320.19 147.57
  C 317.62 148.16 317.13 155.19 317.25 156.96
  Q 316.36 157.18 315.48 156.89
  A 0.68 0.67 8.9 0 1 315.01 156.25
  L 314.99 138.52
  A 0.59 0.59 0.0 0 0 314.15 137.99
  Q 309.13 140.37 305.97 144.79
  C 303.85 147.76 304.44 153.20 304.51 156.73
  A 1.17 1.16 -19.7 0 1 304.06 157.67
  L 298.83 161.64
  Q 298.28 162.05 298.19 161.37
  L 295.94 142.64
  A 0.89 0.89 0.0 0 0 294.54 142.02
  L 289.38 145.74
  Q 288.40 146.46 289.11 145.47
  L 292.98 140.12
  A 0.52 0.51 -66.3 0 0 292.67 139.31
  C 285.74 137.81 272.33 167.03 270.06 172.84
  Q 265.65 174.93 262.50 178.04
  Q 261.49 178.06 261.44 177.24
  A 0.74 0.73 -80.0 0 0 260.99 176.59
  C 256.93 174.87 260.44 166.38 257.46 162.50
  C 261.46 151.60 264.92 142.04 263.76 131.96
  Q 263.45 129.33 260.80 129.46
  Q 244.86 130.28 235.37 142.86
  A 0.36 0.35 46.0 0 1 234.79 142.84
  C 230.52 136.70 220.54 131.07 213.29 136.32
  C 201.13 145.12 196.15 160.35 194.69 175.01
  C 194.32 178.71 191.84 198.11 189.98 198.82
  Q 188.02 199.57 188.02 197.47
  C 188.01 188.85 187.59 180.30 188.94 171.91
  Q 190.90 159.76 193.54 147.74
  A 0.50 0.49 -61.8 0 0 193.41 147.28
  L 193.23 147.09
  A 0.35 0.35 0.0 0 0 192.80 147.05
  L 191.62 147.83
  Q 190.15 148.80 191.21 147.40
  C 191.76 146.68 195.46 141.81 195.15 141.26
  A 0.45 0.45 0.0 0 0 194.54 141.09
  C 186.14 145.90 177.04 158.38 170.61 166.87
  A 0.33 0.33 0.0 0 1 170.06 166.83
  Q 163.84 155.32 158.70 143.28
  A 0.45 0.44 -27.3 0 0 158.05 143.08
  C 153.58 145.87 148.35 149.83 148.75 155.91
  C 149.12 161.44 149.02 166.96 148.96 172.50
  Q 147.02 173.33 146.60 175.53
  Q 146.30 177.13 145.94 175.54
  Q 145.67 174.38 146.07 173.18
  A 0.75 0.74 33.6 0 0 145.92 172.46
  C 144.53 170.87 142.43 173.76 141.96 174.83
  A 1.26 1.22 -1.8 0 1 141.38 175.43
  Q 140.84 175.69 140.47 176.16
  A 0.73 0.72 -57.2 0 1 139.58 176.36
  C 137.54 175.35 142.63 172.28 138.46 169.00
  C 140.40 167.35 143.76 164.55 142.86 161.65
  A 0.65 0.64 79.6 0 0 142.21 161.19
  C 132.27 161.89 123.07 166.35 114.54 169.12
  A 0.41 0.41 0.0 0 1 114.00 168.73
  L 114.00 151.05
  A 0.84 0.84 0.0 0 1 114.44 150.31
  Q 122.41 146.05 131.27 144.32
  A 0.52 0.51 82.0 0 1 131.88 144.79
  L 132.21 148.57
  Q 132.32 149.77 133.24 149.00
  C 137.08 145.78 143.08 141.26 141.87 135.76
  A 1.02 1.01 84.5 0 0 140.91 134.96
  C 135.07 134.80 131.50 136.56 125.21 139.38
  C 114.86 144.03 107.05 149.09 100.73 157.24
  C 96.47 162.74 98.20 168.67 99.68 174.80
  A 1.69 1.68 -42.8 0 1 99.64 175.75
  Q 96.91 183.96 92.63 191.47
  C 90.23 195.70 87.78 197.98 83.05 194.82
  Q 80.94 193.40 80.93 190.86
  L 80.83 168.67
  A 1.84 1.81 61.8 0 1 81.12 167.68
  Q 91.78 151.53 93.09 132.14
  Q 93.26 129.62 90.74 129.85
  Q 89.36 129.98 87.07 131.59
  C 73.84 140.92 73.93 157.03 71.39 172.01
  Q 70.59 176.76 68.71 178.81
  C 63.36 184.65 53.20 181.90 53.73 172.75
  Q 54.70 156.22 58.17 139.26
  Q 58.67 136.79 56.26 137.54
  C 51.62 138.96 49.00 143.51 47.99 148.45
  Q 44.69 164.53 43.79 180.92
  C 43.60 184.32 43.90 188.12 47.15 190.04
  C 55.66 195.07 64.54 186.45 70.53 181.15
  Q 70.97 180.76 70.98 181.34
  Q 71.04 189.35 70.98 197.45
  C 70.91 209.37 81.42 207.27 87.59 201.84
  Q 96.23 194.25 102.06 184.30
  Q 102.27 183.95 102.74 184.01
  A 0.64 0.63 2.2 0 1 103.29 184.60
  C 103.74 192.64 102.49 201.50 106.46 207.35
  A 0.65 0.65 0.0 0 1 106.41 208.13
  L 105.00 209.79
  L 104.53 209.76
  A 0.83 0.83 0.0 0 1 103.80 209.22
  C 103.31 207.89 101.05 201.66 99.23 202.31
  A 0.72 0.70 78.4 0 0 98.77 203.02
  C 98.87 204.64 100.53 206.02 98.66 207.54
  A 0.42 0.41 -31.6 0 1 98.02 207.39
  C 97.56 206.39 97.04 203.49 95.57 203.30
  A 0.60 0.60 0.0 0 0 94.93 203.68
  Q 94.14 205.70 94.71 207.78
  A 1.11 1.08 -33.7 0 1 94.50 208.78
  L 94.09 209.28
  A 0.67 0.67 0.0 0 1 93.29 209.46
  L 90.18 208.03
  A 1.15 1.13 -84.6 0 1 89.55 207.26
  L 89.24 205.96
  A 0.49 0.49 0.0 0 0 88.64 205.60
  C 86.92 206.03 89.74 212.92 84.33 215.52
  Q 81.62 216.83 81.41 213.82
  Q 81.13 209.70 76.91 209.45
  A 1.04 1.01 -14.3 0 1 76.10 208.98
  Q 75.38 207.86 74.07 207.99
  A 0.62 0.61 89.5 0 0 73.52 208.56
  C 73.18 214.11 75.27 216.62 76.30 221.73
  A 0.46 0.46 0.0 0 1 75.86 222.28
  C 74.35 222.29 72.90 213.83 70.57 211.96
  Q 69.88 211.41 69.90 212.29
  L 70.11 219.83
  Q 70.16 221.73 69.41 219.98
  L 66.53 213.25
  Q 66.36 212.84 66.20 213.26
  Q 65.27 215.75 64.70 218.37
  C 64.04 221.41 62.22 223.80 61.78 227.12
  A 1.62 1.61 71.3 0 1 61.32 228.06
  Q 59.35 230.07 60.38 232.96
  A 1.16 1.15 -40.9 0 1 60.31 233.91
  C 58.41 237.36 61.11 243.58 62.45 246.75
  A 0.93 0.92 -7.0 0 0 63.15 247.29
  L 67.94 248.00
  L 0.00 248.00
  L 0.00 0.00
  Z
  M 63.08 60.09
  L 62.26 68.74
  A 1.16 1.15 72.8 0 1 61.84 69.54
  C 49.78 79.78 38.84 91.04 26.88 101.35
  C 23.56 104.21 13.93 111.93 13.96 116.44
  Q 13.97 117.31 14.65 116.78
  C 25.26 108.51 35.47 97.22 43.54 89.70
  Q 52.42 81.43 61.39 73.20
  Q 62.19 72.47 62.14 73.55
  Q 61.15 95.70 66.19 117.17
  Q 67.02 120.71 69.96 118.57
  Q 74.26 115.44 77.29 111.36
  A 0.82 0.81 -38.2 0 0 77.39 110.57
  C 71.95 97.41 71.79 78.53 72.37 64.36
  A 3.80 3.77 -22.6 0 1 73.37 61.96
  Q 77.68 57.33 80.10 51.53
  Q 80.93 49.55 78.80 49.35
  L 74.19 48.91
  A 1.41 1.40 4.3 0 1 72.92 47.44
  L 74.14 23.18
  Q 74.26 20.80 75.74 18.93
  L 80.17 13.33
  Q 81.33 11.85 79.46 12.07
  Q 73.87 12.74 69.76 16.28
  C 55.87 28.23 41.63 39.74 27.79 51.77
  Q 22.99 55.93 20.08 60.34
  Q 18.48 62.77 21.38 62.90
  C 34.73 63.52 48.22 60.24 61.57 58.62
  A 1.35 1.35 0.0 0 1 63.08 60.09
  Z
  M 152.05 78.77
  C 151.61 67.93 152.94 56.67 153.05 45.32
  A 1.12 1.12 0.0 0 0 151.41 44.32
  Q 148.71 45.74 145.72 48.73
  C 142.59 51.86 143.18 54.40 143.06 58.38
  Q 142.71 70.27 142.02 82.28
  A 0.84 0.84 0.0 0 1 141.47 83.02
  Q 133.77 85.79 129.74 92.95
  Q 129.01 94.24 130.43 93.80
  L 141.13 90.43
  A 0.35 0.35 0.0 0 1 141.58 90.78
  L 140.53 116.25
  Q 140.48 117.36 141.42 116.76
  C 146.76 113.34 151.44 109.63 150.99 102.73
  Q 150.83 100.14 151.09 86.77
  A 0.69 0.68 80.7 0 1 151.54 86.14
  Q 159.73 83.24 167.42 79.19
  Q 167.95 78.91 167.90 79.50
  Q 166.47 96.03 166.00 106.26
  C 165.75 111.86 168.45 116.56 174.83 114.87
  C 177.78 114.10 180.08 111.28 182.56 109.25
  Q 183.28 108.66 183.13 109.58
  L 181.96 116.84
  Q 181.63 118.92 183.52 119.86
  C 192.24 124.19 203.58 111.78 208.35 105.83
  Q 208.94 105.08 208.88 104.43
  A 0.34 0.34 0.0 0 0 208.36 104.18
  C 203.65 107.40 201.23 111.99 194.64 110.82
  Q 192.00 110.35 192.29 107.69
  L 193.07 100.57
  A 0.64 0.63 -87.4 0 1 193.69 100.00
  Q 203.91 99.86 213.97 98.05
  A 0.62 0.61 76.3 0 1 214.67 98.48
  L 219.24 113.24
  A 1.17 1.17 0.0 0 0 220.91 113.93
  Q 225.39 111.54 228.53 107.59
  Q 230.28 105.39 229.27 102.75
  L 226.25 94.91
  A 0.93 0.92 57.3 0 1 226.46 93.93
  L 232.85 87.51
  A 0.87 0.87 0.0 0 0 232.88 86.32
  C 232.27 85.64 226.70 87.39 226.16 87.50
  Q 224.07 87.92 224.06 85.79
  L 223.97 59.50
  A 0.59 0.59 0.0 0 0 223.13 58.97
  C 218.57 61.06 213.48 65.43 213.47 70.88
  Q 213.45 80.01 213.60 88.45
  A 1.47 1.47 0.0 0 1 212.14 89.95
  L 196.80 90.03
  A 0.38 0.38 0.0 0 1 196.45 89.51
  Q 203.02 72.66 214.08 58.42
  C 217.01 54.64 225.11 50.13 225.71 45.63
  Q 225.77 45.11 225.31 45.35
  Q 217.62 49.34 211.64 56.40
  Q 193.13 78.30 183.80 104.77
  A 0.73 0.73 0.0 0 1 183.00 105.25
  L 178.50 104.56
  A 2.00 2.00 0.0 0 1 176.81 102.63
  C 176.59 92.92 176.27 82.10 178.06 72.68
  A 1.45 1.44 74.5 0 1 178.52 71.86
  C 184.99 66.16 189.59 59.92 190.27 50.93
  Q 190.43 48.77 188.42 47.95
  C 187.12 47.41 184.15 47.65 182.69 48.41
  C 173.55 53.18 170.22 62.62 168.98 72.35
  A 0.96 0.95 -7.4 0 1 168.38 73.12
  L 152.64 79.16
  A 0.44 0.43 -11.2 0 1 152.05 78.77
  Z"
/>
<path fill="#0a0a0a" d="
  M 63.08 60.09
  A 1.35 1.35 0.0 0 0 61.57 58.62
  C 48.22 60.24 34.73 63.52 21.38 62.90
  Q 18.48 62.77 20.08 60.34
  Q 22.99 55.93 27.79 51.77
  C 41.63 39.74 55.87 28.23 69.76 16.28
  Q 73.87 12.74 79.46 12.07
  Q 81.33 11.85 80.17 13.33
  L 75.74 18.93
  Q 74.26 20.80 74.14 23.18
  L 72.92 47.44
  A 1.41 1.40 4.3 0 0 74.19 48.91
  L 78.80 49.35
  Q 80.93 49.55 80.10 51.53
  Q 77.68 57.33 73.37 61.96
  A 3.80 3.77 -22.6 0 0 72.37 64.36
  C 71.79 78.53 71.95 97.41 77.39 110.57
  A 0.82 0.81 -38.2 0 1 77.29 111.36
  Q 74.26 115.44 69.96 118.57
  Q 67.02 120.71 66.19 117.17
  Q 61.15 95.70 62.14 73.55
  Q 62.19 72.47 61.39 73.20
  Q 52.42 81.43 43.54 89.70
  C 35.47 97.22 25.26 108.51 14.65 116.78
  Q 13.97 117.31 13.96 116.44
  C 13.93 111.93 23.56 104.21 26.88 101.35
  C 38.84 91.04 49.78 79.78 61.84 69.54
  A 1.16 1.15 72.8 0 0 62.26 68.74
  L 63.08 60.09
  Z
  M 63.19 49.09
  C 63.90 41.66 64.36 34.04 64.65 26.59
  Q 64.73 24.57 63.14 25.82
  Q 46.85 38.70 31.35 52.55
  Q 30.98 52.88 31.47 52.91
  C 42.27 53.55 52.29 51.27 62.65 49.67
  A 0.65 0.65 0.0 0 0 63.19 49.09
  Z"
/>
<path fill="#ffffff" d="
  M 64.65 26.59
  C 64.36 34.04 63.90 41.66 63.19 49.09
  A 0.65 0.65 0.0 0 1 62.65 49.67
  C 52.29 51.27 42.27 53.55 31.47 52.91
  Q 30.98 52.88 31.35 52.55
  Q 46.85 38.70 63.14 25.82
  Q 64.73 24.57 64.65 26.59
  Z"
/>
<path fill="#0a0a0a" d="
  M 152.64 79.16
  L 168.38 73.12
  A 0.96 0.95 -7.4 0 0 168.98 72.35
  C 170.22 62.62 173.55 53.18 182.69 48.41
  C 184.15 47.65 187.12 47.41 188.42 47.95
  Q 190.43 48.77 190.27 50.93
  C 189.59 59.92 184.99 66.16 178.52 71.86
  A 1.45 1.44 74.5 0 0 178.06 72.68
  C 176.27 82.10 176.59 92.92 176.81 102.63
  A 2.00 2.00 0.0 0 0 178.50 104.56
  L 183.00 105.25
  A 0.73 0.73 0.0 0 0 183.80 104.77
  Q 193.13 78.30 211.64 56.40
  Q 217.62 49.34 225.31 45.35
  Q 225.77 45.11 225.71 45.63
  C 225.11 50.13 217.01 54.64 214.08 58.42
  Q 203.02 72.66 196.45 89.51
  A 0.38 0.38 0.0 0 0 196.80 90.03
  L 212.14 89.95
  A 1.47 1.47 0.0 0 0 213.60 88.45
  Q 213.45 80.01 213.47 70.88
  C 213.48 65.43 218.57 61.06 223.13 58.97
  A 0.59 0.59 0.0 0 1 223.97 59.50
  L 224.06 85.79
  Q 224.07 87.92 226.16 87.50
  C 226.70 87.39 232.27 85.64 232.88 86.32
  A 0.87 0.87 0.0 0 1 232.85 87.51
  L 226.46 93.93
  A 0.93 0.92 57.3 0 0 226.25 94.91
  L 229.27 102.75
  Q 230.28 105.39 228.53 107.59
  Q 225.39 111.54 220.91 113.93
  A 1.17 1.17 0.0 0 1 219.24 113.24
  L 214.67 98.48
  A 0.62 0.61 76.3 0 0 213.97 98.05
  Q 203.91 99.86 193.69 100.00
  A 0.64 0.63 -87.4 0 0 193.07 100.57
  L 192.29 107.69
  Q 192.00 110.35 194.64 110.82
  C 201.23 111.99 203.65 107.40 208.36 104.18
  A 0.34 0.34 0.0 0 1 208.88 104.43
  Q 208.94 105.08 208.35 105.83
  C 203.58 111.78 192.24 124.19 183.52 119.86
  Q 181.63 118.92 181.96 116.84
  L 183.13 109.58
  Q 183.28 108.66 182.56 109.25
  C 180.08 111.28 177.78 114.10 174.83 114.87
  C 168.45 116.56 165.75 111.86 166.00 106.26
  Q 166.47 96.03 167.90 79.50
  Q 167.95 78.91 167.42 79.19
  Q 159.73 83.24 151.54 86.14
  A 0.69 0.68 80.7 0 0 151.09 86.77
  Q 150.83 100.14 150.99 102.73
  C 151.44 109.63 146.76 113.34 141.42 116.76
  Q 140.48 117.36 140.53 116.25
  L 141.58 90.78
  A 0.35 0.35 0.0 0 0 141.13 90.43
  L 130.43 93.80
  Q 129.01 94.24 129.74 92.95
  Q 133.77 85.79 141.47 83.02
  A 0.84 0.84 0.0 0 0 142.02 82.28
  Q 142.71 70.27 143.06 58.38
  C 143.18 54.40 142.59 51.86 145.72 48.73
  Q 148.71 45.74 151.41 44.32
  A 1.12 1.12 0.0 0 1 153.05 45.32
  C 152.94 56.67 151.61 67.93 152.05 78.77
  A 0.44 0.43 -11.2 0 0 152.64 79.16
  Z
  M 179.2873 64.2418
  A 1.61 0.46 95.8 0 0 179.9076 62.6865
  A 1.61 0.46 95.8 0 0 179.6127 61.0382
  A 1.61 0.46 95.8 0 0 178.9924 62.5935
  A 1.61 0.46 95.8 0 0 179.2873 64.2418
  Z"
/>
<ellipse fill="#ffffff" cx="0.00" cy="0.00" transform="translate(179.45,62.64) rotate(95.8)" rx="1.61" ry="0.46"/>
<path fill="#0a0a0a" d="
  M 257.46 162.50
  Q 253.45 172.59 248.37 182.33
  A 0.46 0.45 -76.1 0 0 248.77 183.00
  L 257.69 183.00
  A 2.61 2.61 0.0 0 1 259.96 184.32
  L 263.11 189.89
  Q 263.40 190.41 263.59 189.84
  L 265.60 183.80
  A 0.50 0.50 0.0 0 0 265.22 183.15
  C 263.95 182.89 260.76 183.40 260.15 182.32
  A 0.83 0.82 47.9 0 1 260.19 181.45
  L 262.50 178.04
  Q 265.65 174.93 270.06 172.84
  L 274.70 172.83
  Q 276.95 172.82 275.98 174.86
  Q 274.30 178.38 273.75 182.96
  L 273.50 183.21
  Q 272.12 184.83 271.96 187.00
  Q 271.07 188.72 271.26 190.41
  Q 271.39 191.52 272.06 190.63
  Q 274.54 187.31 278.41 185.91
  Q 279.88 185.37 279.03 186.68
  L 273.46 195.25
  Q 269.72 200.38 264.57 204.08
  C 263.20 205.07 262.94 209.12 262.03 210.87
  Q 254.20 225.99 237.96 231.50
  L 235.38 231.94
  A 1.56 1.52 -36.5 0 1 234.43 231.81
  C 230.22 229.79 232.59 221.87 233.87 217.91
  C 236.76 208.99 240.34 199.91 247.62 193.63
  A 0.30 0.29 34.1 0 0 247.52 193.13
  C 244.23 191.96 241.86 192.53 239.53 195.34
  Q 234.22 201.76 226.25 206.87
  A 1.59 1.58 61.7 0 1 223.95 206.18
  C 222.53 203.03 227.12 197.15 229.49 195.21
  A 1.28 1.26 71.5 0 0 229.96 194.24
  L 229.99 184.19
  Q 230.00 182.97 229.37 184.01
  C 225.04 191.26 217.13 200.01 209.01 202.94
  L 206.00 203.04
  L 202.50 202.54
  Q 199.16 201.74 196.68 199.42
  A 0.47 0.46 -47.9 0 0 196.01 199.46
  L 190.29 206.19
  Q 186.95 208.99 183.34 210.13
  L 181.25 209.71
  C 176.73 208.16 177.68 204.12 177.72 200.28
  Q 177.78 195.07 177.79 189.63
  L 179.06 180.26
  Q 179.20 179.20 178.45 179.95
  L 174.57 183.78
  C 170.47 186.45 168.25 184.50 164.40 181.97
  A 0.60 0.59 36.9 0 0 163.62 182.08
  L 162.00 183.96
  Q 160.48 184.89 159.71 186.50
  Q 158.11 192.42 160.88 198.13
  A 1.93 1.91 -41.6 0 1 160.76 200.01
  Q 157.72 204.64 152.87 207.48
  Q 150.81 208.68 150.27 206.36
  Q 148.77 199.96 149.03 193.30
  Q 149.09 191.69 147.94 192.81
  C 140.52 199.96 124.95 205.64 114.00 209.71
  L 112.00 210.29
  C 110.73 210.58 104.95 212.07 105.00 209.79
  L 106.41 208.13
  A 0.65 0.65 0.0 0 0 106.46 207.35
  C 102.49 201.50 103.74 192.64 103.29 184.60
  A 0.64 0.63 2.2 0 0 102.74 184.01
  Q 102.27 183.95 102.06 184.30
  Q 96.23 194.25 87.59 201.84
  C 81.42 207.27 70.91 209.37 70.98 197.45
  Q 71.04 189.35 70.98 181.34
  Q 70.97 180.76 70.53 181.15
  C 64.54 186.45 55.66 195.07 47.15 190.04
  C 43.90 188.12 43.60 184.32 43.79 180.92
  Q 44.69 164.53 47.99 148.45
  C 49.00 143.51 51.62 138.96 56.26 137.54
  Q 58.67 136.79 58.17 139.26
  Q 54.70 156.22 53.73 172.75
  C 53.20 181.90 63.36 184.65 68.71 178.81
  Q 70.59 176.76 71.39 172.01
  C 73.93 157.03 73.84 140.92 87.07 131.59
  Q 89.36 129.98 90.74 129.85
  Q 93.26 129.62 93.09 132.14
  Q 91.78 151.53 81.12 167.68
  A 1.84 1.81 61.8 0 0 80.83 168.67
  L 80.93 190.86
  Q 80.94 193.40 83.05 194.82
  C 87.78 197.98 90.23 195.70 92.63 191.47
  Q 96.91 183.96 99.64 175.75
  A 1.69 1.68 -42.8 0 0 99.68 174.80
  C 98.20 168.67 96.47 162.74 100.73 157.24
  C 107.05 149.09 114.86 144.03 125.21 139.38
  C 131.50 136.56 135.07 134.80 140.91 134.96
  A 1.02 1.01 84.5 0 1 141.87 135.76
  C 143.08 141.26 137.08 145.78 133.24 149.00
  Q 132.32 149.77 132.21 148.57
  L 131.88 144.79
  A 0.52 0.51 82.0 0 0 131.27 144.32
  Q 122.41 146.05 114.44 150.31
  A 0.84 0.84 0.0 0 0 114.00 151.05
  L 114.00 168.73
  A 0.41 0.41 0.0 0 0 114.54 169.12
  C 123.07 166.35 132.27 161.89 142.21 161.19
  A 0.65 0.64 79.6 0 1 142.86 161.65
  C 143.76 164.55 140.40 167.35 138.46 169.00
  L 133.75 173.04
  L 132.78 171.34
  A 0.75 0.75 0.0 0 0 132.00 170.97
  Q 122.82 172.54 114.26 176.27
  A 0.49 0.49 0.0 0 0 113.99 176.87
  Q 116.50 184.04 116.21 191.75
  Q 116.19 196.26 114.73 200.48
  A 0.39 0.39 0.0 0 0 115.06 201.00
  Q 117.34 201.21 119.50 200.46
  L 125.00 198.71
  Q 137.05 194.40 147.98 188.52
  A 1.92 1.91 76.0 0 0 148.99 186.83
  L 148.96 172.50
  C 149.02 166.96 149.12 161.44 148.75 155.91
  C 148.35 149.83 153.58 145.87 158.05 143.08
  A 0.45 0.44 -27.3 0 1 158.70 143.28
  Q 163.84 155.32 170.06 166.83
  A 0.33 0.33 0.0 0 0 170.61 166.87
  C 177.04 158.38 186.14 145.90 194.54 141.09
  A 0.45 0.45 0.0 0 1 195.15 141.26
  C 195.46 141.81 191.76 146.68 191.21 147.40
  Q 190.15 148.80 191.62 147.83
  L 192.80 147.05
  A 0.35 0.35 0.0 0 1 193.23 147.09
  L 193.41 147.28
  A 0.50 0.49 -61.8 0 1 193.54 147.74
  Q 190.90 159.76 188.94 171.91
  C 187.59 180.30 188.01 188.85 188.02 197.47
  Q 188.02 199.57 189.98 198.82
  C 191.84 198.11 194.32 178.71 194.69 175.01
  C 196.15 160.35 201.13 145.12 213.29 136.32
  C 220.54 131.07 230.52 136.70 234.79 142.84
  A 0.36 0.35 46.0 0 0 235.37 142.86
  Q 244.86 130.28 260.80 129.46
  Q 263.45 129.33 263.76 131.96
  C 264.92 142.04 261.46 151.60 257.46 162.50
  Z
  M 240.04 157.75
  Q 239.95 170.85 240.22 183.93
  Q 240.24 184.62 240.27 184.67
  Q 240.76 185.64 241.26 184.68
  Q 245.03 177.41 247.71 170.00
  C 251.25 161.13 255.45 149.32 253.39 139.74
  A 0.62 0.62 0.0 0 0 252.77 139.25
  C 247.41 139.32 240.32 140.50 236.61 144.82
  A 1.59 1.58 -30.1 0 0 236.26 146.12
  L 237.30 151.78
  A 0.49 0.48 71.2 0 0 238.00 152.13
  L 239.52 151.35
  A 0.33 0.33 0.0 0 1 239.94 151.46
  C 240.19 151.84 240.02 156.89 240.04 157.75
  Z
  M 211.50 192.29
  Q 215.26 193.95 218.85 192.29
  A 1.66 1.63 -86.4 0 0 219.56 191.65
  Q 225.54 181.29 225.96 169.25
  C 226.91 163.95 227.65 157.71 224.87 152.96
  Q 220.45 145.40 210.99 144.25
  A 0.72 0.70 16.5 0 0 210.27 144.63
  Q 208.52 148.21 207.52 153.75
  Q 204.70 169.42 204.99 182.50
  Q 205.05 185.09 208.26 186.71
  A 0.55 0.55 0.0 0 1 208.47 187.51
  L 207.40 189.13
  A 0.75 0.75 0.0 0 0 207.39 189.92
  Q 208.73 192.15 211.50 192.29
  Z
  M 172.63 169.85
  C 173.20 171.76 177.70 174.55 179.23 175.03
  A 0.45 0.45 0.0 0 0 179.80 174.69
  L 183.61 156.53
  Q 183.84 155.44 183.14 156.31
  L 172.77 169.12
  A 0.82 0.78 57.1 0 0 172.63 169.85
  Z
  M 159.67 179.78
  C 161.60 179.22 160.46 176.23 159.62 175.32
  Q 158.99 174.64 158.99 175.57
  L 159.00 179.28
  A 0.52 0.52 0.0 0 0 159.67 179.78
  Z
  M 245.58 221.85
  L 249.21 220.79
  Q 252.26 219.88 253.02 216.80
  Q 255.86 205.29 250.89 194.61
  Q 250.60 194.00 250.29 194.58
  Q 244.06 205.89 241.87 218.55
  Q 241.07 223.19 245.58 221.85
  Z"
/>
<path fill="#0a0a0a" d="
  M 378.71 194.75
  L 373.71 199.00
  L 372.29 199.75
  C 367.37 195.67 366.35 191.12 363.93 185.57
  A 0.69 0.69 0.0 0 0 363.23 185.16
  Q 355.19 186.03 347.30 185.68
  L 346.50 185.79
  L 342.67 185.82
  A 0.69 0.68 89.2 0 0 341.99 186.53
  L 342.10 189.31
  A 1.05 1.04 12.5 0 0 342.68 190.21
  Q 347.01 192.39 350.97 190.03
  A 0.54 0.53 61.2 0 1 351.72 190.25
  C 352.62 192.11 343.81 199.49 342.25 200.54
  Q 338.37 201.73 334.42 200.65
  Q 331.53 199.86 331.88 196.88
  L 332.92 188.05
  Q 333.20 185.72 330.85 185.74
  L 327.66 185.76
  A 0.56 0.55 3.5 0 0 327.11 186.24
  L 326.50 190.70
  A 0.80 0.80 0.0 0 0 326.98 191.55
  L 328.13 192.05
  A 1.12 1.12 0.0 0 1 328.57 193.76
  Q 324.76 198.67 319.43 201.90
  A 1.13 1.11 36.6 0 1 318.55 202.02
  Q 316.12 201.37 316.46 198.50
  C 317.43 184.81 321.94 174.74 326.51 162.38
  Q 326.67 161.94 326.24 162.12
  L 315.48 166.50
  A 0.72 0.71 -11.0 0 0 315.03 167.16
  Q 314.92 184.93 315.05 195.18
  Q 315.07 196.76 315.79 198.50
  L 309.25 205.46
  Q 307.85 206.75 306.49 207.20
  A 1.08 1.07 79.6 0 1 305.08 206.22
  L 304.70 196.71
  Q 304.67 196.04 304.17 196.49
  L 299.01 201.18
  A 1.64 1.64 0.0 0 1 296.53 200.86
  C 292.59 194.79 291.56 188.52 289.69 181.39
  A 0.51 0.50 -13.9 0 0 289.08 181.03
  Q 281.45 183.01 273.75 182.96
  Q 274.30 178.38 275.98 174.86
  Q 276.95 172.82 274.70 172.83
  L 270.06 172.84
  C 272.33 167.03 285.74 137.81 292.67 139.31
  A 0.52 0.51 -66.3 0 1 292.98 140.12
  L 289.11 145.47
  Q 288.40 146.46 289.38 145.74
  L 294.54 142.02
  A 0.89 0.89 0.0 0 1 295.94 142.64
  L 298.19 161.37
  Q 298.28 162.05 298.83 161.64
  L 304.06 157.67
  A 1.17 1.16 -19.7 0 0 304.51 156.73
  C 304.44 153.20 303.85 147.76 305.97 144.79
  Q 309.13 140.37 314.15 137.99
  A 0.59 0.59 0.0 0 1 314.99 138.52
  L 315.01 156.25
  A 0.68 0.67 8.9 0 0 315.48 156.89
  Q 316.36 157.18 317.25 156.96
  L 322.00 156.71
  L 326.50 155.71
  Q 329.75 154.83 331.00 151.79
  C 333.24 146.84 340.79 134.87 347.03 134.99
  A 1.52 1.52 0.0 0 1 348.46 136.91
  C 346.50 144.11 341.33 149.10 336.30 154.30
  Q 336.04 154.57 335.96 155.50
  Q 331.20 166.49 327.99 178.02
  A 0.50 0.50 0.0 0 0 328.11 178.49
  L 328.32 178.71
  A 0.49 0.49 0.0 0 0 329.04 178.71
  Q 331.94 175.57 336.15 176.00
  A 0.59 0.58 -79.5 0 0 336.77 175.57
  L 337.47 172.85
  C 344.32 159.61 350.51 144.63 363.96 135.62
  C 366.08 134.20 368.42 134.65 370.50 132.28
  A 0.73 0.73 0.0 0 1 371.32 132.08
  Q 372.06 132.38 372.04 133.25
  Q 371.71 152.52 372.93 172.20
  Q 373.08 174.70 375.56 175.03
  C 376.25 175.13 378.58 173.47 379.70 174.12
  A 0.83 0.83 0.0 0 1 379.89 175.41
  L 376.67 178.80
  Q 374.80 180.76 376.35 182.98
  L 381.43 190.29
  A 0.69 0.69 0.0 0 1 381.42 191.08
  L 378.71 194.75
  Z
  M 361.44 141.19
  Q 359.61 142.49 358.38 144.40
  Q 349.41 158.29 344.09 174.03
  Q 343.43 176.00 345.50 176.00
  L 361.75 176.00
  A 0.47 0.47 0.0 0 0 362.22 175.51
  Q 361.69 158.18 362.22 140.86
  Q 362.24 140.35 361.79 140.59
  Q 361.50 140.75 361.44 141.19
  Z
  M 286.04 152.48
  A 0.40 0.40 0.0 0 0 285.28 152.37
  L 276.95 172.45
  A 0.40 0.40 0.0 0 0 277.32 173.00
  L 288.09 173.00
  A 0.40 0.40 0.0 0 0 288.49 172.55
  L 286.04 152.48
  Z
  M 303.01 169.98
  L 300.37 173.13
  A 1.08 1.06 59.3 0 0 300.15 174.02
  C 300.51 175.79 303.10 187.00 304.23 187.58
  A 0.38 0.37 13.9 0 0 304.78 187.25
  L 304.68 167.72
  A 0.66 0.66 0.0 0 0 304.03 167.06
  L 299.63 166.98
  A 0.62 0.62 0.0 0 0 298.99 167.62
  L 299.04 169.54
  Q 299.09 171.48 300.38 170.03
  Q 301.28 169.00 302.58 169.03
  Q 303.78 169.06 303.01 169.98
  Z"
/>
<path fill="#0a0a0a" d="
  M 379.71 212.75
  Q 374.08 222.61 368.96 232.77
  Q 365.60 239.43 361.21 241.73
  Q 357.52 243.66 359.47 239.99
  L 379.92 201.27
  L 393.88 175.44
  A 0.86 0.85 -46.8 0 0 393.86 174.58
  Q 385.36 160.71 382.14 149.81
  C 380.74 145.09 387.16 140.02 390.97 138.23
  A 0.47 0.46 69.5 0 1 391.62 138.53
  Q 394.61 149.34 400.40 159.03
  Q 401.55 160.95 402.45 158.90
  Q 406.36 149.90 410.46 141.74
  C 411.05 140.58 416.36 134.48 418.63 134.95
  A 0.68 0.68 0.0 0 1 419.11 135.89
  Q 412.84 149.97 405.73 163.25
  Q 404.27 165.98 405.87 168.07
  Q 415.29 180.39 427.47 189.20
  A 1.27 1.26 36.5 0 1 427.74 190.99
  Q 424.07 195.80 418.96 199.05
  A 0.91 0.91 0.0 0 1 417.93 199.00
  Q 406.66 190.44 397.71 179.46
  A 0.25 0.25 0.0 0 0 397.29 179.50
  L 379.71 212.75
  Z"
/>
<path fill="#ffffff" d="
  M 247.71 170.00
  Q 247.20 170.02 246.86 169.63
  A 0.87 0.85 -54.5 0 1 246.72 168.73
  Q 248.44 164.58 246.01 160.90
  Q 245.14 159.59 244.75 161.10
  L 243.87 164.45
  A 0.42 0.41 6.5 0 1 243.48 164.75
  L 243.14 164.76
  A 0.44 0.43 -1.4 0 1 242.70 164.35
  C 242.60 162.17 244.48 156.52 240.04 157.75
  C 240.02 156.89 240.19 151.84 239.94 151.46
  A 0.33 0.33 0.0 0 0 239.52 151.35
  L 238.00 152.13
  A 0.49 0.48 71.2 0 1 237.30 151.78
  L 236.26 146.12
  A 1.59 1.58 -30.1 0 1 236.61 144.82
  C 240.32 140.50 247.41 139.32 252.77 139.25
  A 0.62 0.62 0.0 0 1 253.39 139.74
  C 255.45 149.32 251.25 161.13 247.71 170.00
  Z"
/>
<path fill="#ffffff" d="
  M 361.44 141.19
  Q 361.50 140.75 361.79 140.59
  Q 362.24 140.35 362.22 140.86
  Q 361.69 158.18 362.22 175.51
  A 0.47 0.47 0.0 0 1 361.75 176.00
  L 345.50 176.00
  Q 343.43 176.00 344.09 174.03
  Q 349.41 158.29 358.38 144.40
  Q 359.61 142.49 361.44 141.19
  Z"
/>
<path fill="#ffffff" d="
  M 225.96 169.25
  L 221.39 173.95
  A 1.38 1.34 69.4 0 0 221.01 174.82
  Q 220.96 175.67 220.51 176.36
  A 0.26 0.26 0.0 0 1 220.07 176.35
  L 219.82 175.92
  A 0.63 0.63 0.0 0 0 219.04 175.67
  C 212.14 178.60 213.76 186.16 211.50 192.29
  Q 208.73 192.15 207.39 189.92
  A 0.75 0.75 0.0 0 1 207.40 189.13
  L 208.47 187.51
  A 0.55 0.55 0.0 0 0 208.26 186.71
  Q 205.05 185.09 204.99 182.50
  Q 204.70 169.42 207.52 153.75
  Q 208.52 148.21 210.27 144.63
  A 0.72 0.70 16.5 0 1 210.99 144.25
  Q 220.45 145.40 224.87 152.96
  C 227.65 157.71 226.91 163.95 225.96 169.25
  Z"
/>
<path fill="#d1d1d1" d="
  M 322.00 156.71
  L 317.25 156.96
  C 317.13 155.19 317.62 148.16 320.19 147.57
  A 0.64 0.64 0.0 0 1 320.93 147.98
  Q 321.44 149.45 321.08 150.91
  Q 320.96 151.40 321.06 151.89
  L 322.00 156.71
  Z"
/>
<path fill="#d1d1d1" d="
  M 331.00 151.79
  Q 329.75 154.83 326.50 155.71
  C 325.91 153.99 326.21 148.13 329.22 149.10
  A 0.57 0.57 0.0 0 1 329.60 149.76
  L 329.27 151.17
  A 0.45 0.45 0.0 0 0 329.69 151.72
  L 331.00 151.79
  Z"
/>
<path fill="#d1d1d1" d="
  M 286.04 152.48
  L 288.49 172.55
  A 0.40 0.40 0.0 0 1 288.09 173.00
  L 277.32 173.00
  A 0.40 0.40 0.0 0 1 276.95 172.45
  L 285.28 152.37
  A 0.40 0.40 0.0 0 1 286.04 152.48
  Z"
/>
<path fill="#d1d1d1" d="
  M 335.96 155.50
  L 336.57 157.45
  Q 336.72 157.92 336.66 158.41
  Q 335.79 165.63 337.47 172.85
  L 336.77 175.57
  A 0.59 0.58 -79.5 0 1 336.15 176.00
  Q 331.94 175.57 329.04 178.71
  A 0.49 0.49 0.0 0 1 328.32 178.71
  L 328.11 178.49
  A 0.50 0.50 0.0 0 1 327.99 178.02
  Q 331.20 166.49 335.96 155.50
  Z"
/>
<path fill="#ffffff" d="
  M 179.23 175.03
  C 177.70 174.55 173.20 171.76 172.63 169.85
  A 0.82 0.78 57.1 0 1 172.77 169.12
  L 183.14 156.31
  Q 183.84 155.44 183.61 156.53
  L 179.80 174.69
  A 0.45 0.45 0.0 0 1 179.23 175.03
  Z"
/>
<path fill="#d1d1d1" d="
  M 240.04 157.75
  C 244.48 156.52 242.60 162.17 242.70 164.35
  A 0.44 0.43 -1.4 0 0 243.14 164.76
  L 243.48 164.75
  A 0.42 0.41 6.5 0 0 243.87 164.45
  L 244.75 161.10
  Q 245.14 159.59 246.01 160.90
  Q 248.44 164.58 246.72 168.73
  A 0.87 0.85 -54.5 0 0 246.86 169.63
  Q 247.20 170.02 247.71 170.00
  Q 245.03 177.41 241.26 184.68
  Q 240.76 185.64 240.27 184.67
  Q 240.24 184.62 240.22 183.93
  Q 239.95 170.85 240.04 157.75
  Z"
/>
<path fill="#d1d1d1" d="
  M 316.46 198.50
  L 315.79 198.50
  Q 315.07 196.76 315.05 195.18
  Q 314.92 184.93 315.03 167.16
  A 0.72 0.71 -11.0 0 1 315.48 166.50
  L 326.24 162.12
  Q 326.67 161.94 326.51 162.38
  C 321.94 174.74 317.43 184.81 316.46 198.50
  Z"
/>
<path fill="#d1d1d1" d="
  M 257.46 162.50
  C 260.44 166.38 256.93 174.87 260.99 176.59
  A 0.74 0.73 -80.0 0 1 261.44 177.24
  Q 261.49 178.06 262.50 178.04
  L 260.19 181.45
  A 0.83 0.82 47.9 0 0 260.15 182.32
  C 260.76 183.40 263.95 182.89 265.22 183.15
  A 0.50 0.50 0.0 0 1 265.60 183.80
  L 263.59 189.84
  Q 263.40 190.41 263.11 189.89
  L 259.96 184.32
  A 2.61 2.61 0.0 0 0 257.69 183.00
  L 248.77 183.00
  A 0.46 0.45 -76.1 0 1 248.37 182.33
  Q 253.45 172.59 257.46 162.50
  Z"
/>
<path fill="#d1d1d1" d="
  M 302.58 169.03
  Q 301.28 169.00 300.38 170.03
  Q 299.09 171.48 299.04 169.54
  L 298.99 167.62
  A 0.62 0.62 0.0 0 1 299.63 166.98
  L 304.03 167.06
  A 0.66 0.66 0.0 0 1 304.68 167.72
  L 304.78 187.25
  A 0.38 0.37 13.9 0 1 304.23 187.58
  C 303.10 187.00 300.51 175.79 300.15 174.02
  A 1.08 1.06 59.3 0 1 300.37 173.13
  L 303.01 169.98
  Q 303.78 169.06 302.58 169.03
  Z"
/>
<path fill="#d1d1d1" d="
  M 138.46 169.00
  C 142.63 172.28 137.54 175.35 139.58 176.36
  A 0.73 0.72 -57.2 0 0 140.47 176.16
  Q 140.84 175.69 141.38 175.43
  A 1.26 1.22 -1.8 0 0 141.96 174.83
  C 142.43 173.76 144.53 170.87 145.92 172.46
  A 0.75 0.74 33.6 0 1 146.07 173.18
  Q 145.67 174.38 145.94 175.54
  Q 146.30 177.13 146.60 175.53
  Q 147.02 173.33 148.96 172.50
  L 148.99 186.83
  A 1.92 1.91 76.0 0 1 147.98 188.52
  Q 137.05 194.40 125.00 198.71
  C 125.26 193.39 127.20 188.97 127.84 183.86
  C 128.21 180.85 128.50 176.41 131.31 174.72
  A 0.50 0.50 0.0 0 1 132.06 175.05
  L 132.44 177.02
  Q 132.55 177.53 132.88 177.13
  Q 134.45 175.28 133.75 173.04
  L 138.46 169.00
  Z"
/>
<path fill="#d1d1d1" d="
  M 225.96 169.25
  Q 225.54 181.29 219.56 191.65
  A 1.66 1.63 -86.4 0 1 218.85 192.29
  Q 215.26 193.95 211.50 192.29
  C 213.76 186.16 212.14 178.60 219.04 175.67
  A 0.63 0.63 0.0 0 1 219.82 175.92
  L 220.07 176.35
  A 0.26 0.26 0.0 0 0 220.51 176.36
  Q 220.96 175.67 221.01 174.82
  A 1.38 1.34 69.4 0 1 221.39 173.95
  L 225.96 169.25
  Z"
/>
<path fill="#ffffff" d="
  M 133.75 173.04
  Q 134.45 175.28 132.88 177.13
  Q 132.55 177.53 132.44 177.02
  L 132.06 175.05
  A 0.50 0.50 0.0 0 0 131.31 174.72
  C 128.50 176.41 128.21 180.85 127.84 183.86
  C 127.20 188.97 125.26 193.39 125.00 198.71
  L 119.50 200.46
  Q 123.53 190.22 125.67 179.40
  A 0.53 0.53 0.0 0 0 125.24 178.78
  C 123.57 178.53 118.65 189.41 119.15 191.10
  A 0.57 0.55 -20.1 0 1 118.83 191.77
  Q 117.51 192.34 116.21 191.75
  Q 116.50 184.04 113.99 176.87
  A 0.49 0.49 0.0 0 1 114.26 176.27
  Q 122.82 172.54 132.00 170.97
  A 0.75 0.75 0.0 0 1 132.78 171.34
  L 133.75 173.04
  Z"
/>
<path fill="#ffffff" d="
  M 159.62 175.32
  C 160.46 176.23 161.60 179.22 159.67 179.78
  A 0.52 0.52 0.0 0 1 159.00 179.28
  L 158.99 175.57
  Q 158.99 174.64 159.62 175.32
  Z"
/>
<path fill="#d1d1d1" d="
  M 119.50 200.46
  Q 117.34 201.21 115.06 201.00
  A 0.39 0.39 0.0 0 1 114.73 200.48
  Q 116.19 196.26 116.21 191.75
  Q 117.51 192.34 118.83 191.77
  A 0.57 0.55 -20.1 0 0 119.15 191.10
  C 118.65 189.41 123.57 178.53 125.24 178.78
  A 0.53 0.53 0.0 0 1 125.67 179.40
  Q 123.53 190.22 119.50 200.46
  Z"
/>
<path fill="#ffffff" d="
  M 177.79 189.63
  Q 176.21 191.71 174.73 193.87
  Q 173.94 195.01 173.38 197.33
  Q 172.81 199.66 171.20 201.63
  Q 170.87 202.04 170.97 201.52
  L 174.57 183.78
  L 178.45 179.95
  Q 179.20 179.20 179.06 180.26
  L 177.79 189.63
  Z"
/>
<path fill="#d1d1d1" d="
  M 309.25 205.46
  Q 309.75 205.38 310.07 205.70
  A 0.73 0.72 -49.5 0 1 310.14 206.65
  L 309.55 207.47
  A 0.81 0.77 56.7 0 0 309.42 208.17
  L 310.88 213.41
  A 1.27 1.26 -35.2 0 1 310.69 214.50
  L 307.11 219.39
  A 1.05 1.02 57.2 0 0 306.94 220.24
  C 307.34 221.88 307.99 231.81 306.03 232.03
  A 0.48 0.47 -3.9 0 1 305.50 231.57
  Q 305.39 225.51 306.45 219.56
  A 0.88 0.86 26.4 0 0 306.17 218.75
  C 304.25 217.03 302.30 220.52 301.72 222.05
  C 300.66 224.86 299.14 226.66 297.56 228.97
  Q 296.92 229.91 296.94 228.78
  C 297.00 225.91 298.56 223.63 299.00 221.43
  Q 300.24 215.31 298.52 209.29
  Q 298.36 208.73 298.04 209.22
  Q 294.32 214.89 294.82 221.80
  A 0.12 0.11 77.0 0 1 294.75 221.92
  L 294.47 222.01
  A 0.26 0.26 0.0 0 1 294.13 221.80
  Q 293.17 215.51 294.04 209.24
  A 3.13 3.10 28.1 0 0 293.26 206.70
  L 290.67 203.87
  A 0.36 0.36 0.0 0 0 290.07 203.99
  L 289.51 205.59
  A 0.75 0.75 0.0 0 1 288.58 206.06
  Q 286.99 205.57 285.92 204.26
  A 0.81 0.80 60.4 0 0 285.03 204.01
  L 283.90 204.39
  A 0.44 0.44 0.0 0 1 283.36 204.18
  L 281.18 199.99
  A 1.54 1.51 36.5 0 1 281.02 198.98
  C 281.50 196.32 284.25 188.04 283.09 186.01
  A 0.88 0.87 45.3 0 0 281.58 186.00
  Q 280.59 187.67 281.35 189.38
  A 1.41 1.40 -46.2 0 1 281.37 190.45
  L 278.64 197.61
  A 1.26 1.25 -75.2 0 1 277.27 198.41
  Q 274.31 197.93 273.46 195.25
  L 279.03 186.68
  Q 279.88 185.37 278.41 185.91
  Q 274.54 187.31 272.06 190.63
  Q 271.39 191.52 271.26 190.41
  Q 271.07 188.72 271.96 187.00
  L 273.21 187.44
  A 0.67 0.66 25.4 0 0 274.00 187.16
  C 274.76 185.94 275.74 183.70 273.50 183.21
  L 273.75 182.96
  Q 281.45 183.01 289.08 181.03
  A 0.51 0.50 -13.9 0 1 289.69 181.39
  C 291.56 188.52 292.59 194.79 296.53 200.86
  A 1.64 1.64 0.0 0 0 299.01 201.18
  L 304.17 196.49
  Q 304.67 196.04 304.70 196.71
  L 305.08 206.22
  A 1.08 1.07 79.6 0 0 306.49 207.20
  Q 307.85 206.75 309.25 205.46
  Z"
/>
<path fill="#d1d1d1" d="
  M 174.57 183.78
  L 170.97 201.52
  Q 170.87 202.04 171.20 201.63
  Q 172.81 199.66 173.38 197.33
  Q 173.94 195.01 174.73 193.87
  Q 176.21 191.71 177.79 189.63
  Q 177.78 195.07 177.72 200.28
  C 177.68 204.12 176.73 208.16 181.25 209.71
  Q 181.06 212.33 180.35 214.80
  C 179.01 219.39 178.33 222.76 177.51 226.88
  A 0.55 0.54 -77.8 0 0 177.91 227.52
  C 178.42 227.64 178.68 227.26 178.82 226.79
  Q 181.22 218.42 183.34 210.13
  Q 186.95 208.99 190.29 206.19
  L 190.27 216.00
  A 1.28 1.27 24.0 0 0 190.62 216.90
  Q 192.36 218.74 192.23 221.41
  A 0.82 0.80 -17.7 0 1 191.91 222.01
  L 190.67 222.93
  A 0.71 0.71 0.0 0 0 190.46 223.81
  C 193.09 229.10 191.39 232.55 190.83 237.46
  A 0.50 0.50 0.0 0 0 191.21 238.00
  C 192.51 238.31 193.28 234.56 193.40 233.76
  Q 193.65 231.96 193.75 233.78
  L 193.85 235.54
  Q 193.92 236.75 194.56 235.73
  L 196.46 232.75
  C 196.90 234.50 198.37 236.78 197.00 238.33
  A 0.63 0.62 -56.9 0 1 196.27 238.49
  L 194.69 237.77
  A 0.45 0.45 0.0 0 0 194.05 238.17
  C 193.95 241.07 191.86 244.96 194.19 248.00
  L 186.69 248.00
  Q 187.27 246.70 187.17 245.19
  A 0.73 0.72 75.6 0 1 187.58 244.49
  C 189.05 243.77 189.95 241.74 188.34 240.53
  A 0.82 0.82 0.0 0 1 188.01 239.72
  Q 188.11 239.16 187.66 238.74
  Q 186.98 238.10 186.99 239.03
  L 187.01 240.13
  Q 187.04 241.43 186.16 240.47
  Q 185.47 239.73 185.21 238.68
  Q 184.99 237.76 184.44 238.53
  L 184.09 239.02
  A 1.04 1.03 55.9 0 0 183.93 239.88
  Q 184.68 242.75 183.67 245.50
  A 0.39 0.39 0.0 0 1 183.29 245.75
  L 183.03 245.75
  A 0.30 0.30 0.0 0 1 182.74 245.41
  L 183.04 243.13
  A 1.25 1.22 28.8 0 0 182.75 242.17
  Q 181.04 240.19 181.57 237.57
  Q 181.84 236.26 180.90 237.21
  L 180.14 237.98
  A 0.89 0.88 -31.3 0 0 179.92 238.87
  Q 180.50 240.84 179.15 242.00
  A 0.65 0.65 0.0 0 1 178.22 241.91
  Q 175.34 238.28 174.43 233.71
  Q 174.28 232.92 174.17 233.71
  C 174.13 234.01 173.82 239.94 173.57 240.01
  A 0.53 0.52 74.3 0 1 172.94 239.65
  L 172.73 238.99
  A 0.41 0.41 0.0 0 0 172.05 238.82
  L 171.50 239.37
  A 1.43 1.42 70.5 0 0 171.09 240.24
  L 170.78 243.71
  A 0.37 0.37 0.0 0 1 170.23 244.00
  L 169.98 243.85
  A 0.62 0.61 27.1 0 1 169.72 243.07
  Q 170.81 240.55 168.77 239.31
  A 0.50 0.49 -72.3 0 0 168.02 239.70
  L 167.49 246.76
  A 0.47 0.47 0.0 0 1 166.81 247.15
  C 166.35 246.93 165.66 241.52 165.38 240.53
  A 0.44 0.44 0.0 0 0 164.79 240.25
  Q 161.52 241.64 161.47 245.11
  A 1.63 1.58 -30.0 0 1 161.23 245.95
  L 160.49 247.14
  Q 160.13 247.71 160.81 247.68
  Q 161.48 247.65 161.94 248.00
  L 132.94 247.88
  Q 129.12 232.79 123.02 218.47
  C 122.18 216.51 122.17 212.70 120.49 211.55
  A 0.42 0.41 -61.5 0 0 119.87 211.74
  Q 116.22 220.82 115.17 230.56
  Q 115.14 230.80 115.04 230.95
  Q 114.91 231.13 114.73 231.25
  A 0.44 0.44 0.0 0 1 114.04 231.00
  L 113.82 230.13
  A 0.65 0.63 -12.9 0 0 113.07 229.67
  Q 111.17 230.06 111.22 231.88
  A 0.44 0.44 0.0 0 0 111.69 232.31
  L 112.71 232.23
  Q 113.50 232.18 113.15 232.88
  L 110.08 239.14
  A 1.70 1.66 53.6 0 0 109.93 240.22
  L 110.93 245.84
  A 0.64 0.64 0.0 0 1 110.25 246.59
  Q 108.26 246.42 107.44 248.00
  L 67.94 248.00
  L 63.15 247.29
  A 0.93 0.92 -7.0 0 1 62.45 246.75
  C 61.11 243.58 58.41 237.36 60.31 233.91
  A 1.16 1.15 -40.9 0 0 60.38 232.96
  Q 59.35 230.07 61.32 228.06
  A 1.62 1.61 71.3 0 0 61.78 227.12
  C 62.22 223.80 64.04 221.41 64.70 218.37
  Q 65.27 215.75 66.20 213.26
  Q 66.36 212.84 66.53 213.25
  L 69.41 219.98
  Q 70.16 221.73 70.11 219.83
  L 69.90 212.29
  Q 69.88 211.41 70.57 211.96
  C 72.90 213.83 74.35 222.29 75.86 222.28
  A 0.46 0.46 0.0 0 0 76.30 221.73
  C 75.27 216.62 73.18 214.11 73.52 208.56
  A 0.62 0.61 89.5 0 1 74.07 207.99
  Q 75.38 207.86 76.10 208.98
  A 1.04 1.01 -14.3 0 0 76.91 209.45
  Q 81.13 209.70 81.41 213.82
  Q 81.62 216.83 84.33 215.52
  C 89.74 212.92 86.92 206.03 88.64 205.60
  A 0.49 0.49 0.0 0 1 89.24 205.96
  L 89.55 207.26
  A 1.15 1.13 -84.6 0 0 90.18 208.03
  L 93.29 209.46
  A 0.67 0.67 0.0 0 0 94.09 209.28
  L 94.50 208.78
  A 1.11 1.08 -33.7 0 0 94.71 207.78
  Q 94.14 205.70 94.93 203.68
  A 0.60 0.60 0.0 0 1 95.57 203.30
  C 97.04 203.49 97.56 206.39 98.02 207.39
  A 0.42 0.41 -31.6 0 0 98.66 207.54
  C 100.53 206.02 98.87 204.64 98.77 203.02
  A 0.72 0.70 78.4 0 1 99.23 202.31
  C 101.05 201.66 103.31 207.89 103.80 209.22
  A 0.83 0.83 0.0 0 0 104.53 209.76
  L 105.00 209.79
  C 104.95 212.07 110.73 210.58 112.00 210.29
  Q 112.77 212.86 114.64 214.67
  Q 115.01 215.03 115.10 214.52
  Q 115.52 211.96 114.00 209.71
  C 124.95 205.64 140.52 199.96 147.94 192.81
  Q 149.09 191.69 149.03 193.30
  Q 148.77 199.96 150.27 206.36
  Q 150.81 208.68 152.87 207.48
  Q 157.72 204.64 160.76 200.01
  A 1.93 1.91 -41.6 0 0 160.88 198.13
  Q 158.11 192.42 159.71 186.50
  Q 160.42 187.31 161.41 187.76
  A 0.40 0.40 0.0 0 0 161.94 187.55
  L 163.11 184.78
  A 0.60 0.59 -63.5 0 0 162.87 184.04
  Q 162.55 183.84 162.00 183.96
  L 163.62 182.08
  A 0.60 0.59 36.9 0 1 164.40 181.97
  C 168.25 184.50 170.47 186.45 174.57 183.78
  Z
  M 79.6806 217.2003
  A 2.48 0.87 65.7 0 0 79.4529 214.5820
  A 2.48 0.87 65.7 0 0 77.6394 212.6797
  A 2.48 0.87 65.7 0 0 77.8671 215.2980
  A 2.48 0.87 65.7 0 0 79.6806 217.2003
  Z
  M 190.40 230.47
  A 0.22 0.21 -48.4 0 0 190.67 230.45
  L 190.88 230.25
  A 0.39 0.39 0.0 0 0 190.97 229.80
  L 189.99 227.58
  Q 189.55 226.60 189.30 227.64
  Q 188.88 229.38 190.40 230.47
  Z"
/>
<path fill="#ffffff" d="
  M 273.50 183.21
  C 275.74 183.70 274.76 185.94 274.00 187.16
  A 0.67 0.66 25.4 0 1 273.21 187.44
  L 271.96 187.00
  Q 272.12 184.83 273.50 183.21
  Z"
/>
<path fill="#ffffff" d="
  M 162.00 183.96
  Q 162.55 183.84 162.87 184.04
  A 0.60 0.59 -63.5 0 1 163.11 184.78
  L 161.94 187.55
  A 0.40 0.40 0.0 0 1 161.41 187.76
  Q 160.42 187.31 159.71 186.50
  Q 160.48 184.89 162.00 183.96
  Z"
/>
<path fill="#d1d1d1" d="
  M 237.96 231.50
  C 238.98 237.08 238.88 242.47 240.19 248.00
  L 223.19 248.00
  Q 224.16 247.78 224.06 247.46
  Q 222.94 244.03 222.08 240.48
  A 1.24 1.23 7.7 0 0 221.49 239.71
  Q 218.56 238.05 217.36 234.83
  A 1.02 1.01 -1.1 0 0 216.70 234.20
  L 215.63 233.86
  A 0.72 0.72 0.0 0 1 215.14 233.27
  Q 214.92 231.50 213.36 231.21
  A 0.56 0.56 0.0 0 0 212.71 231.87
  Q 213.64 236.67 210.92 240.70
  A 0.54 0.53 -45.9 0 1 210.05 240.72
  Q 208.95 239.20 207.29 239.79
  A 0.88 0.86 55.9 0 1 206.44 239.62
  C 205.31 238.63 202.81 233.80 201.41 235.19
  Q 200.92 235.68 200.93 234.99
  L 201.01 231.58
  Q 201.02 230.95 200.49 231.29
  L 199.63 231.84
  Q 199.12 232.16 199.22 231.57
  L 199.49 229.90
  A 0.58 0.58 0.0 0 0 199.06 229.25
  Q 198.51 229.10 198.04 229.50
  L 197.67 229.20
  A 0.82 0.79 -69.4 0 1 197.37 228.51
  L 197.55 225.37
  Q 197.58 224.89 197.83 224.46
  C 198.86 222.67 198.27 220.64 198.42 219.15
  C 199.08 212.92 200.58 208.41 202.50 202.54
  L 206.00 203.04
  L 205.40 203.35
  A 0.36 0.36 0.0 0 0 205.31 203.93
  L 205.56 204.18
  A 0.77 0.75 -59.7 0 1 205.75 204.95
  L 201.59 218.56
  A 0.35 0.34 -81.1 0 0 201.91 219.01
  L 203.11 219.01
  A 1.11 1.11 0.0 0 1 204.20 220.31
  Q 204.07 221.06 204.59 221.55
  Q 205.13 222.06 205.28 221.34
  C 206.59 215.06 209.21 210.38 209.01 202.94
  C 217.13 200.01 225.04 191.26 229.37 184.01
  Q 230.00 182.97 229.99 184.19
  L 229.96 194.24
  A 1.28 1.26 71.5 0 1 229.49 195.21
  C 227.12 197.15 222.53 203.03 223.95 206.18
  A 1.59 1.58 61.7 0 0 226.25 206.87
  Q 234.22 201.76 239.53 195.34
  C 241.86 192.53 244.23 191.96 247.52 193.13
  A 0.30 0.29 34.1 0 1 247.62 193.63
  C 240.34 199.91 236.76 208.99 233.87 217.91
  C 232.59 221.87 230.22 229.79 234.43 231.81
  A 1.56 1.52 -36.5 0 0 235.38 231.94
  L 237.96 231.50
  Z"
/>
<path fill="#d1d1d1" d="
  M 372.29 199.75
  Q 372.94 204.28 371.93 208.73
  A 0.32 0.32 0.0 0 0 372.32 209.12
  C 375.89 208.26 374.64 201.09 373.71 199.00
  L 378.71 194.75
  L 379.92 201.27
  L 359.47 239.99
  Q 357.52 243.66 361.21 241.73
  Q 365.60 239.43 368.96 232.77
  Q 374.08 222.61 379.71 212.75
  L 380.12 213.06
  A 0.85 0.83 24.4 0 1 380.44 213.89
  Q 379.14 220.87 379.85 225.24
  Q 381.70 236.56 382.56 247.99
  L 343.44 248.00
  L 345.44 247.58
  A 0.51 0.51 0.0 0 0 345.84 246.98
  C 343.19 233.14 342.39 220.68 338.43 205.76
  Q 338.21 204.92 338.80 203.39
  A 0.58 0.57 -71.5 0 1 339.49 203.04
  C 342.25 203.81 340.68 208.14 341.31 210.48
  Q 341.46 211.02 341.66 210.50
  C 342.44 208.41 341.02 205.57 342.74 204.06
  A 0.80 0.79 61.7 0 0 342.98 203.24
  L 342.25 200.54
  C 343.81 199.49 352.62 192.11 351.72 190.25
  A 0.54 0.53 61.2 0 0 350.97 190.03
  Q 347.01 192.39 342.68 190.21
  A 1.05 1.04 12.5 0 1 342.10 189.31
  L 341.99 186.53
  A 0.69 0.68 89.2 0 1 342.67 185.82
  L 346.50 185.79
  Q 345.19 186.74 345.91 188.30
  A 0.65 0.64 -19.1 0 0 346.64 188.65
  Q 348.98 188.10 347.30 185.68
  Q 355.19 186.03 363.23 185.16
  A 0.69 0.69 0.0 0 1 363.93 185.57
  C 366.35 191.12 367.37 195.67 372.29 199.75
  Z"
/>
<path fill="#b4b4b4" d="
  M 342.25 200.54
  L 342.98 203.24
  A 0.80 0.79 61.7 0 1 342.74 204.06
  C 341.02 205.57 342.44 208.41 341.66 210.50
  Q 341.46 211.02 341.31 210.48
  C 340.68 208.14 342.25 203.81 339.49 203.04
  A 0.58 0.57 -71.5 0 0 338.80 203.39
  Q 338.21 204.92 338.43 205.76
  C 342.39 220.68 343.19 233.14 345.84 246.98
  A 0.51 0.51 0.0 0 1 345.44 247.58
  L 343.44 248.00
  L 276.65 248.00
  L 276.18 241.65
  A 0.43 0.41 89.2 0 0 275.79 241.26
  L 275.50 241.24
  A 0.41 0.41 0.0 0 0 275.06 241.68
  L 275.45 247.20
  A 0.50 0.50 0.0 0 1 275.15 247.69
  L 274.44 248.00
  L 240.19 248.00
  C 238.88 242.47 238.98 237.08 237.96 231.50
  Q 254.20 225.99 262.03 210.87
  C 262.94 209.12 263.20 205.07 264.57 204.08
  Q 269.72 200.38 273.46 195.25
  Q 274.31 197.93 277.27 198.41
  A 1.26 1.25 -75.2 0 0 278.64 197.61
  L 281.37 190.45
  A 1.41 1.40 -46.2 0 0 281.35 189.38
  Q 280.59 187.67 281.58 186.00
  A 0.88 0.87 45.3 0 1 283.09 186.01
  C 284.25 188.04 281.50 196.32 281.02 198.98
  A 1.54 1.51 36.5 0 0 281.18 199.99
  L 283.36 204.18
  A 0.44 0.44 0.0 0 0 283.90 204.39
  L 285.03 204.01
  A 0.81 0.80 60.4 0 1 285.92 204.26
  Q 286.99 205.57 288.58 206.06
  A 0.75 0.75 0.0 0 0 289.51 205.59
  L 290.07 203.99
  A 0.36 0.36 0.0 0 1 290.67 203.87
  L 293.26 206.70
  A 3.13 3.10 28.1 0 1 294.04 209.24
  Q 293.17 215.51 294.13 221.80
  A 0.26 0.26 0.0 0 0 294.47 222.01
  L 294.75 221.92
  A 0.12 0.11 77.0 0 0 294.82 221.80
  Q 294.32 214.89 298.04 209.22
  Q 298.36 208.73 298.52 209.29
  Q 300.24 215.31 299.00 221.43
  C 298.56 223.63 297.00 225.91 296.94 228.78
  Q 296.92 229.91 297.56 228.97
  C 299.14 226.66 300.66 224.86 301.72 222.05
  C 302.30 220.52 304.25 217.03 306.17 218.75
  A 0.88 0.86 26.4 0 1 306.45 219.56
  Q 305.39 225.51 305.50 231.57
  A 0.48 0.47 -3.9 0 0 306.03 232.03
  C 307.99 231.81 307.34 221.88 306.94 220.24
  A 1.05 1.02 57.2 0 1 307.11 219.39
  L 310.69 214.50
  A 1.27 1.26 -35.2 0 0 310.88 213.41
  L 309.42 208.17
  A 0.81 0.77 56.7 0 1 309.55 207.47
  L 310.14 206.65
  A 0.73 0.72 -49.5 0 0 310.07 205.70
  Q 309.75 205.38 309.25 205.46
  L 315.79 198.50
  L 316.46 198.50
  Q 316.12 201.37 318.55 202.02
  A 1.13 1.11 36.6 0 0 319.43 201.90
  Q 324.76 198.67 328.57 193.76
  A 1.12 1.12 0.0 0 0 328.13 192.05
  L 326.98 191.55
  A 0.80 0.80 0.0 0 1 326.50 190.70
  L 327.11 186.24
  A 0.56 0.55 3.5 0 1 327.66 185.76
  L 330.85 185.74
  Q 333.20 185.72 332.92 188.05
  L 331.88 196.88
  Q 331.53 199.86 334.42 200.65
  Q 338.37 201.73 342.25 200.54
  Z
  M 333.2908 243.9227
  A 4.31 0.81 77.8 0 0 333.1717 239.5388
  A 4.31 0.81 77.8 0 0 331.4692 235.4973
  A 4.31 0.81 77.8 0 0 331.5883 239.8812
  A 4.31 0.81 77.8 0 0 333.2908 243.9227
  Z"
/>
<path fill="#ffffff" d="
  M 346.50 185.79
  L 347.30 185.68
  Q 348.98 188.10 346.64 188.65
  A 0.65 0.64 -19.1 0 1 345.91 188.30
  Q 345.19 186.74 346.50 185.79
  Z"
/>
<path fill="#b4b4b4" d="
  M 245.58 221.85
  Q 241.07 223.19 241.87 218.55
  Q 244.06 205.89 250.29 194.58
  Q 250.60 194.00 250.89 194.61
  Q 255.86 205.29 253.02 216.80
  Q 252.26 219.88 249.21 220.79
  L 245.58 221.85
  Z"
/>
<path fill="#ffffff" d="
  M 202.50 202.54
  C 200.58 208.41 199.08 212.92 198.42 219.15
  C 198.27 220.64 198.86 222.67 197.83 224.46
  Q 197.58 224.89 197.55 225.37
  L 197.37 228.51
  A 0.82 0.79 -69.4 0 0 197.67 229.20
  L 198.04 229.50
  L 196.46 232.75
  L 194.56 235.73
  Q 193.92 236.75 193.85 235.54
  L 193.75 233.78
  Q 193.65 231.96 193.40 233.76
  C 193.28 234.56 192.51 238.31 191.21 238.00
  A 0.50 0.50 0.0 0 1 190.83 237.46
  C 191.39 232.55 193.09 229.10 190.46 223.81
  A 0.71 0.71 0.0 0 1 190.67 222.93
  L 191.91 222.01
  A 0.82 0.80 -17.7 0 0 192.23 221.41
  Q 192.36 218.74 190.62 216.90
  A 1.28 1.27 24.0 0 1 190.27 216.00
  L 190.29 206.19
  L 196.01 199.46
  A 0.47 0.46 -47.9 0 1 196.68 199.42
  Q 199.16 201.74 202.50 202.54
  Z"
/>
<path fill="#ffffff" d="
  M 373.71 199.00
  C 374.64 201.09 375.89 208.26 372.32 209.12
  A 0.32 0.32 0.0 0 1 371.93 208.73
  Q 372.94 204.28 372.29 199.75
  L 373.71 199.00
  Z"
/>
<path fill="#ffffff" d="
  M 206.00 203.04
  L 209.01 202.94
  C 209.21 210.38 206.59 215.06 205.28 221.34
  Q 205.13 222.06 204.59 221.55
  Q 204.07 221.06 204.20 220.31
  A 1.11 1.11 0.0 0 0 203.11 219.01
  L 201.91 219.01
  A 0.35 0.34 -81.1 0 1 201.59 218.56
  L 205.75 204.95
  A 0.77 0.75 -59.7 0 0 205.56 204.18
  L 205.31 203.93
  A 0.36 0.36 0.0 0 1 205.40 203.35
  L 206.00 203.04
  Z"
/>
<path fill="#ffffff" d="
  M 114.00 209.71
  Q 115.52 211.96 115.10 214.52
  Q 115.01 215.03 114.64 214.67
  Q 112.77 212.86 112.00 210.29
  L 114.00 209.71
  Z"
/>
<path fill="#ffffff" d="
  M 181.25 209.71
  L 183.34 210.13
  Q 181.22 218.42 178.82 226.79
  C 178.68 227.26 178.42 227.64 177.91 227.52
  A 0.55 0.54 -77.8 0 1 177.51 226.88
  C 178.33 222.76 179.01 219.39 180.35 214.80
  Q 181.06 212.33 181.25 209.71
  Z"
/>
<path fill="#b4b4b4" d="
  M 132.94 247.88
  L 127.71 248.05
  Q 127.84 244.76 125.98 242.17
  Q 125.52 241.53 125.30 242.28
  Q 124.50 244.94 126.28 247.22
  A 0.44 0.44 0.0 0 1 126.23 247.81
  Q 126.11 247.92 125.94 248.00
  L 107.44 248.00
  Q 108.26 246.42 110.25 246.59
  A 0.64 0.64 0.0 0 0 110.93 245.84
  L 109.93 240.22
  A 1.70 1.66 53.6 0 1 110.08 239.14
  L 113.15 232.88
  Q 113.50 232.18 112.71 232.23
  L 111.69 232.31
  A 0.44 0.44 0.0 0 1 111.22 231.88
  Q 111.17 230.06 113.07 229.67
  A 0.65 0.63 -12.9 0 1 113.82 230.13
  L 114.04 231.00
  A 0.44 0.44 0.0 0 0 114.73 231.25
  Q 114.91 231.13 115.04 230.95
  Q 115.14 230.80 115.17 230.56
  Q 116.22 220.82 119.87 211.74
  A 0.42 0.41 -61.5 0 1 120.49 211.55
  C 122.17 212.70 122.18 216.51 123.02 218.47
  Q 129.12 232.79 132.94 247.88
  Z"
/>
<ellipse fill="#ffffff" cx="0.00" cy="0.00" transform="translate(78.66,214.94) rotate(65.7)" rx="2.48" ry="0.87"/>
<path fill="#ffffff" d="
  M 190.40 230.47
  Q 188.88 229.38 189.30 227.64
  Q 189.55 226.60 189.99 227.58
  L 190.97 229.80
  A 0.39 0.39 0.0 0 1 190.88 230.25
  L 190.67 230.45
  A 0.22 0.21 -48.4 0 1 190.40 230.47
  Z"
/>
<path fill="#b4b4b4" d="
  M 223.19 248.00
  L 198.19 248.00
  L 197.88 247.66
  A 0.82 0.81 -63.6 0 1 197.66 246.99
  C 197.88 245.22 198.15 241.93 196.66 241.22
  Q 196.18 240.99 196.36 241.49
  Q 197.56 244.80 196.23 248.11
  L 194.19 248.00
  C 191.86 244.96 193.95 241.07 194.05 238.17
  A 0.45 0.45 0.0 0 1 194.69 237.77
  L 196.27 238.49
  A 0.63 0.62 -56.9 0 0 197.00 238.33
  C 198.37 236.78 196.90 234.50 196.46 232.75
  L 198.04 229.50
  Q 198.51 229.10 199.06 229.25
  A 0.58 0.58 0.0 0 1 199.49 229.90
  L 199.22 231.57
  Q 199.12 232.16 199.63 231.84
  L 200.49 231.29
  Q 201.02 230.95 201.01 231.58
  L 200.93 234.99
  Q 200.92 235.68 201.41 235.19
  C 202.81 233.80 205.31 238.63 206.44 239.62
  A 0.88 0.86 55.9 0 0 207.29 239.79
  Q 208.95 239.20 210.05 240.72
  A 0.54 0.53 -45.9 0 0 210.92 240.70
  Q 213.64 236.67 212.71 231.87
  A 0.56 0.56 0.0 0 1 213.36 231.21
  Q 214.92 231.50 215.14 233.27
  A 0.72 0.72 0.0 0 0 215.63 233.86
  L 216.70 234.20
  A 1.02 1.01 -1.1 0 1 217.36 234.83
  Q 218.56 238.05 221.49 239.71
  A 1.24 1.23 7.7 0 1 222.08 240.48
  Q 222.94 244.03 224.06 247.46
  Q 224.16 247.78 223.19 248.00
  Z"
/>
<path fill="#b4b4b4" d="
  M 186.69 248.00
  L 161.94 248.00
  Q 161.48 247.65 160.81 247.68
  Q 160.13 247.71 160.49 247.14
  L 161.23 245.95
  A 1.63 1.58 -30.0 0 0 161.47 245.11
  Q 161.52 241.64 164.79 240.25
  A 0.44 0.44 0.0 0 1 165.38 240.53
  C 165.66 241.52 166.35 246.93 166.81 247.15
  A 0.47 0.47 0.0 0 0 167.49 246.76
  L 168.02 239.70
  A 0.50 0.49 -72.3 0 1 168.77 239.31
  Q 170.81 240.55 169.72 243.07
  A 0.62 0.61 27.1 0 0 169.98 243.85
  L 170.23 244.00
  A 0.37 0.37 0.0 0 0 170.78 243.71
  L 171.09 240.24
  A 1.43 1.42 70.5 0 1 171.50 239.37
  L 172.05 238.82
  A 0.41 0.41 0.0 0 1 172.73 238.99
  L 172.94 239.65
  A 0.53 0.52 74.3 0 0 173.57 240.01
  C 173.82 239.94 174.13 234.01 174.17 233.71
  Q 174.28 232.92 174.43 233.71
  Q 175.34 238.28 178.22 241.91
  A 0.65 0.65 0.0 0 0 179.15 242.00
  Q 180.50 240.84 179.92 238.87
  A 0.89 0.88 -31.3 0 1 180.14 237.98
  L 180.90 237.21
  Q 181.84 236.26 181.57 237.57
  Q 181.04 240.19 182.75 242.17
  A 1.25 1.22 28.8 0 1 183.04 243.13
  L 182.74 245.41
  A 0.30 0.30 0.0 0 0 183.03 245.75
  L 183.29 245.75
  A 0.39 0.39 0.0 0 0 183.67 245.50
  Q 184.68 242.75 183.93 239.88
  A 1.04 1.03 55.9 0 1 184.09 239.02
  L 184.44 238.53
  Q 184.99 237.76 185.21 238.68
  Q 185.47 239.73 186.16 240.47
  Q 187.04 241.43 187.01 240.13
  L 186.99 239.03
  Q 186.98 238.10 187.66 238.74
  Q 188.11 239.16 188.01 239.72
  A 0.82 0.82 0.0 0 0 188.34 240.53
  C 189.95 241.74 189.05 243.77 187.58 244.49
  A 0.73 0.72 75.6 0 0 187.17 245.19
  Q 187.27 246.70 186.69 248.00
  Z"
/>
<ellipse fill="#d1d1d1" cx="0.00" cy="0.00" transform="translate(332.38,239.71) rotate(77.8)" rx="4.31" ry="0.81"/>
<path fill="#d1d1d1" d="
  M 198.19 248.00
  L 196.23 248.11
  Q 197.56 244.80 196.36 241.49
  Q 196.18 240.99 196.66 241.22
  C 198.15 241.93 197.88 245.22 197.66 246.99
  A 0.82 0.81 -63.6 0 0 197.88 247.66
  L 198.19 248.00
  Z"
/>
<path fill="#d1d1d1" d="
  M 276.65 248.00
  L 274.44 248.00
  L 275.15 247.69
  A 0.50 0.50 0.0 0 0 275.45 247.20
  L 275.06 241.68
  A 0.41 0.41 0.0 0 1 275.50 241.24
  L 275.79 241.26
  A 0.43 0.41 89.2 0 1 276.18 241.65
  L 276.65 248.00
  Z"
/>
<path fill="#d1d1d1" d="
  M 127.71 248.05
  L 125.94 248.00
  Q 126.11 247.92 126.23 247.81
  A 0.44 0.44 0.0 0 0 126.28 247.22
  Q 124.50 244.94 125.30 242.28
  Q 125.52 241.53 125.98 242.17
  Q 127.84 244.76 127.71 248.05
  Z"
/>
</svg>
