<?xml version="1.0" encoding="UTF-8" standalone="no"?>
<!-- Created with Inkscape (http://www.inkscape.org/) -->

<svg
   xmlns:dc="http://purl.org/dc/elements/1.1/"
   xmlns:cc="http://creativecommons.org/ns#"
   xmlns:rdf="http://www.w3.org/1999/02/22-rdf-syntax-ns#"
   xmlns:svg="http://www.w3.org/2000/svg"
   xmlns="http://www.w3.org/2000/svg"
   xmlns:sodipodi="http://sodipodi.sourceforge.net/DTD/sodipodi-0.dtd"
   xmlns:inkscape="http://www.inkscape.org/namespaces/inkscape"
   width="400"
   height="600"
   viewBox="0 0 105.83333 158.75"
   version="1.1"
   id="svg8"
   inkscape:version="0.92.4 (5da689c313, 2019-01-14)"
   sodipodi:docname="17_m.svg">
  <defs
     id="defs2" />
  <sodipodi:namedview
     id="base"
     pagecolor="#ffffff"
     bordercolor="#666666"
     borderopacity="1.0"
     inkscape:pageopacity="0.0"
     inkscape:pageshadow="2"
     inkscape:zoom="1.2816667"
     inkscape:cx="200"
     inkscape:cy="362.41873"
     inkscape:document-units="mm"
     inkscape:current-layer="layer1"
     showgrid="false"
     units="px"
     showguides="true"
     inkscape:guide-bbox="true"
     inkscape:window-width="1280"
     inkscape:window-height="968"
     inkscape:window-x="0"
     inkscape:window-y="0"
     inkscape:window-maximized="1">
    <sodipodi:guide
       position="20.78869,60.476191"
       orientation="1,0"
       id="guide859"
       inkscape:locked="false" />
    <sodipodi:guide
       position="20.78869,128.88988"
       orientation="1,0"
       id="guide863"
       inkscape:locked="false" />
    <sodipodi:guide
       position="12.85119,57.641369"
       orientation="1,0"
       id="guide865"
       inkscape:locked="false" />
    <sodipodi:guide
       position="32.339612,108.51143"
       orientation="0,1"
       id="guide867"
       inkscape:locked="false" />
    <sodipodi:guide
       position="-9.0871638,97.553376"
       orientation="0,1"
       id="guide2596"
       inkscape:locked="false" />
    <sodipodi:guide
       position="-16.036171,64.144687"
       orientation="0,1"
       id="guide2598"
       inkscape:locked="false" />
  </sodipodi:namedview>
  <metadata
     id="metadata5">
    <rdf:RDF>
      <cc:Work
         rdf:about="">
        <dc:format>image/svg+xml</dc:format>
        <dc:type
           rdf:resource="http://purl.org/dc/dcmitype/StillImage" />
        <dc:title></dc:title>
      </cc:Work>
    </rdf:RDF>
  </metadata>
  <g
     inkscape:label="Layer 1"
     inkscape:groupmode="layer"
     id="layer1"
     transform="translate(0,-138.24998)">
    <rect
       style="opacity:1;fill:#ffffff;fill-opacity:0.60101007;stroke:#000000;stroke-width:0.27790931;stroke-miterlimit:4;stroke-dasharray:none;stroke-dashoffset:0;stroke-opacity:1"
       id="rect10"
       width="105.4538"
       height="158.75175"
       x="0.17799145"
       y="138.24911"
       ry="7.9375877" />
    <flowRoot
       xml:space="preserve"
       id="flowRoot851"
       style="fill:black;fill-opacity:1;stroke:none;font-family:sans-serif;font-style:normal;font-weight:normal;font-size:40px;line-height:0;letter-spacing:0px;word-spacing:0px"><flowRegion
         id="flowRegion853"><rect
           id="rect855"
           width="114.28571"
           height="65.714287"
           x="47.142857"
           y="194.28572" /></flowRegion><flowPara
         id="flowPara857" /></flowRoot>    <text
       xml:space="preserve"
       style="font-style:normal;font-weight:normal;font-size:33.90801239px;line-height:0;font-family:sans-serif;letter-spacing:0px;word-spacing:0px;fill:#666666;fill-opacity:1;stroke:none;stroke-width:0.84770024"
       x="15.076199"
       y="174.63515"
       id="text827"><tspan
         sodipodi:role="line"
         id="tspan825"
         x="15.076199"
         y="174.63515"
         style="font-style:normal;font-variant:normal;font-weight:bold;font-stretch:normal;font-family:Arsenal;-inkscape-font-specification:'Arsenal Bold';fill:#666666;stroke-width:0.84770024">17</tspan></text>
    <g
       id="g23357"
       transform="matrix(0.20787895,0,0,0.20787895,10.806595,178.28377)">
      <g
         id="g23103"
         style="fill:none;stroke-width:2;stroke-linecap:butt">
        <path
           id="path22911"
           d="m 382.56,247.99 q -0.86,-11.43 -2.71,-22.75 -0.71,-4.37 0.59,-11.35 a 0.85,0.83 24.4 0 0 -0.32,-0.83 l -0.41,-0.31"
           inkscape:connector-curvature="0"
           style="vector-effect:non-scaling-stroke;stroke:#e8e8e8" />
        <path
           id="path22913"
           d="m 379.71,212.75 17.58,-33.25 a 0.25,0.25 0 0 1 0.42,-0.04 q 8.95,10.98 20.22,19.54 a 0.91,0.91 0 0 0 1.03,0.05 q 5.11,-3.25 8.78,-8.06 a 1.27,1.26 36.5 0 0 -0.27,-1.79 q -12.18,-8.81 -21.6,-21.13 -1.6,-2.09 -0.14,-4.82 7.11,-13.28 13.38,-27.36 a 0.68,0.68 0 0 0 -0.48,-0.94 c -2.27,-0.47 -7.58,5.63 -8.17,6.79 q -4.1,8.16 -8.01,17.16 -0.9,2.05 -2.05,0.13 -5.79,-9.69 -8.78,-20.5 a 0.47,0.46 69.5 0 0 -0.65,-0.3 c -3.81,1.79 -10.23,6.86 -8.83,11.58 q 3.22,10.9 11.72,24.77 a 0.86,0.85 -46.8 0 1 0.02,0.86 l -13.96,25.83"
           inkscape:connector-curvature="0"
           style="vector-effect:non-scaling-stroke;stroke:#858585" />
        <path
           id="path22915"
           d="m 379.92,201.27 -1.21,-6.52"
           inkscape:connector-curvature="0"
           style="vector-effect:non-scaling-stroke;stroke:#e8e8e8" />
        <path
           id="path22917"
           d="m 378.71,194.75 2.71,-3.67 a 0.69,0.69 0 0 0 0.01,-0.79 l -5.08,-7.31 q -1.55,-2.22 0.32,-4.18 l 3.22,-3.39 a 0.83,0.83 0 0 0 -0.19,-1.29 c -1.12,-0.65 -3.45,1.01 -4.14,0.91 q -2.48,-0.33 -2.63,-2.83 -1.22,-19.68 -0.89,-38.95 0.02,-0.87 -0.72,-1.17 a 0.73,0.73 0 0 0 -0.82,0.2 c -2.08,2.37 -4.42,1.92 -6.54,3.34 -13.45,9.01 -19.64,23.99 -26.49,37.23"
           inkscape:connector-curvature="0"
           style="vector-effect:non-scaling-stroke;stroke:#858585" />
        <path
           id="path22919"
           d="m 337.47,172.85 q -1.68,-7.22 -0.81,-14.44 0.06,-0.49 -0.09,-0.96 l -0.61,-1.95"
           inkscape:connector-curvature="0"
           style="vector-effect:non-scaling-stroke;stroke:#e8e8e8" />
        <path
           id="path22921"
           d="m 335.96,155.5 q 0.08,-0.93 0.34,-1.2 c 5.03,-5.2 10.2,-10.19 12.16,-17.39 a 1.52,1.52 0 0 0 -1.43,-1.92 c -6.24,-0.12 -13.79,11.85 -16.03,16.8"
           inkscape:connector-curvature="0"
           style="vector-effect:non-scaling-stroke;stroke:#858585" />
        <path
           id="path22923"
           d="m 331,151.79 -1.31,-0.07 a 0.45,0.45 0 0 1 -0.42,-0.55 l 0.33,-1.41 a 0.57,0.57 0 0 0 -0.38,-0.66 c -3.01,-0.97 -3.31,4.89 -2.72,6.61"
           inkscape:connector-curvature="0"
           style="vector-effect:non-scaling-stroke;stroke:#e8e8e8" />
        <path
           id="path22925"
           d="m 326.5,155.71 -4.5,1"
           inkscape:connector-curvature="0"
           style="vector-effect:non-scaling-stroke;stroke:#858585" />
        <path
           id="path22927"
           d="m 322,156.71 -0.94,-4.82 q -0.1,-0.49 0.02,-0.98 0.36,-1.46 -0.15,-2.93 a 0.64,0.64 0 0 0 -0.74,-0.41 c -2.57,0.59 -3.06,7.62 -2.94,9.39"
           inkscape:connector-curvature="0"
           style="vector-effect:non-scaling-stroke;stroke:#e8e8e8" />
        <path
           id="path22929"
           d="m 317.25,156.96 q -0.89,0.22 -1.77,-0.07 a 0.68,0.67 8.9 0 1 -0.47,-0.64 l -0.02,-17.73 a 0.59,0.59 0 0 0 -0.84,-0.53 q -5.02,2.38 -8.18,6.8 c -2.12,2.97 -1.53,8.41 -1.46,11.94 a 1.17,1.16 -19.7 0 1 -0.45,0.94 l -5.23,3.97 q -0.55,0.41 -0.64,-0.27 l -2.25,-18.73 a 0.89,0.89 0 0 0 -1.4,-0.62 l -5.16,3.72 q -0.98,0.72 -0.27,-0.27 l 3.87,-5.35 a 0.52,0.51 -66.3 0 0 -0.31,-0.81 c -6.93,-1.5 -20.34,27.72 -22.61,33.53"
           inkscape:connector-curvature="0"
           style="vector-effect:non-scaling-stroke;stroke:#858585" />
        <path
           id="path22931"
           d="m 270.06,172.84 q -4.41,2.09 -7.56,5.2"
           inkscape:connector-curvature="0"
           style="vector-effect:non-scaling-stroke;stroke:#858585" />
        <path
           id="path22933"
           d="m 262.5,178.04 q -1.01,0.02 -1.06,-0.8 a 0.74,0.73 -80 0 0 -0.45,-0.65 c -4.06,-1.72 -0.55,-10.21 -3.53,-14.09"
           inkscape:connector-curvature="0"
           style="vector-effect:non-scaling-stroke;stroke:#e8e8e8" />
        <path
           id="path22935"
           d="m 257.46,162.5 c 4,-10.9 7.46,-20.46 6.3,-30.54 q -0.31,-2.63 -2.96,-2.5 -15.94,0.82 -25.43,13.4 a 0.36,0.35 46 0 1 -0.58,-0.02 c -4.27,-6.14 -14.25,-11.77 -21.5,-6.52 -12.16,8.8 -17.14,24.03 -18.6,38.69 -0.37,3.7 -2.85,23.1 -4.71,23.81 q -1.96,0.75 -1.96,-1.35 c -0.01,-8.62 -0.43,-17.17 0.92,-25.56 q 1.96,-12.15 4.6,-24.17 a 0.5,0.49 -61.8 0 0 -0.13,-0.46 l -0.18,-0.19 a 0.35,0.35 0 0 0 -0.43,-0.04 l -1.18,0.78 q -1.47,0.97 -0.41,-0.43 c 0.55,-0.72 4.25,-5.59 3.94,-6.14 a 0.45,0.45 0 0 0 -0.61,-0.17 c -8.4,4.81 -17.5,17.29 -23.93,25.78 a 0.33,0.33 0 0 1 -0.55,-0.04 q -6.22,-11.51 -11.36,-23.55 a 0.45,0.44 -27.3 0 0 -0.65,-0.2 c -4.47,2.79 -9.7,6.75 -9.3,12.83 0.37,5.53 0.27,11.05 0.21,16.59"
           inkscape:connector-curvature="0"
           style="vector-effect:non-scaling-stroke;stroke:#858585" />
        <path
           id="path22937"
           d="m 148.96,172.5 q -1.94,0.83 -2.36,3.03 -0.3,1.6 -0.66,0.01 -0.27,-1.16 0.13,-2.36 a 0.75,0.74 33.6 0 0 -0.15,-0.72 c -1.39,-1.59 -3.49,1.3 -3.96,2.37 a 1.26,1.22 -1.8 0 1 -0.58,0.6 q -0.54,0.26 -0.91,0.73 a 0.73,0.72 -57.2 0 1 -0.89,0.2 c -2.04,-1.01 3.05,-4.08 -1.12,-7.36"
           inkscape:connector-curvature="0"
           style="vector-effect:non-scaling-stroke;stroke:#e8e8e8" />
        <path
           id="path22939"
           d="m 138.46,169 c 1.94,-1.65 5.3,-4.45 4.4,-7.35 a 0.65,0.64 79.6 0 0 -0.65,-0.46 c -9.94,0.7 -19.14,5.16 -27.67,7.93 A 0.41,0.41 0 0 1 114,168.73 v -17.68 a 0.84,0.84 0 0 1 0.44,-0.74 q 7.97,-4.26 16.83,-5.99 a 0.52,0.51 82 0 1 0.61,0.47 l 0.33,3.78 q 0.11,1.2 1.03,0.43 c 3.84,-3.22 9.84,-7.74 8.63,-13.24 a 1.02,1.01 84.5 0 0 -0.96,-0.8 c -5.84,-0.16 -9.41,1.6 -15.7,4.42 -10.35,4.65 -18.16,9.71 -24.48,17.86 -4.26,5.5 -2.53,11.43 -1.05,17.56 a 1.69,1.68 -42.8 0 1 -0.04,0.95 q -2.73,8.21 -7.01,15.72 c -2.4,4.23 -4.85,6.51 -9.58,3.35 q -2.11,-1.42 -2.12,-3.96 l -0.1,-22.19 a 1.84,1.81 61.8 0 1 0.29,-0.99 q 10.66,-16.15 11.97,-35.54 0.17,-2.52 -2.35,-2.29 -1.38,0.13 -3.67,1.74 c -13.23,9.33 -13.14,25.44 -15.68,40.42 q -0.8,4.75 -2.68,6.8 c -5.35,5.84 -15.51,3.09 -14.98,-6.06 q 0.97,-16.53 4.44,-33.49 0.5,-2.47 -1.91,-1.72 c -4.64,1.42 -7.26,5.97 -8.27,10.91 q -3.3,16.08 -4.2,32.47 c -0.19,3.4 0.11,7.2 3.36,9.12 8.51,5.03 17.39,-3.59 23.38,-8.89 q 0.44,-0.39 0.45,0.19 0.06,8.01 0,16.11 c -0.07,11.92 10.44,9.82 16.61,4.39 q 8.64,-7.59 14.47,-17.54 0.21,-0.35 0.68,-0.29 a 0.64,0.63 2.2 0 1 0.55,0.59 c 0.45,8.04 -0.8,16.9 3.17,22.75 a 0.65,0.65 0 0 1 -0.05,0.78 l -1.41,1.66"
           inkscape:connector-curvature="0"
           style="vector-effect:non-scaling-stroke;stroke:#858585" />
        <path
           id="path22941"
           d="m 105,209.79 -0.47,-0.03 a 0.83,0.83 0 0 1 -0.73,-0.54 c -0.49,-1.33 -2.75,-7.56 -4.57,-6.91 a 0.72,0.7 78.4 0 0 -0.46,0.71 c 0.1,1.62 1.76,3 -0.11,4.52 a 0.42,0.41 -31.6 0 1 -0.64,-0.15 c -0.46,-1 -0.98,-3.9 -2.45,-4.09 a 0.6,0.6 0 0 0 -0.64,0.38 q -0.79,2.02 -0.22,4.1 a 1.11,1.08 -33.7 0 1 -0.21,1 l -0.41,0.5 a 0.67,0.67 0 0 1 -0.8,0.18 l -3.11,-1.43 a 1.15,1.13 -84.6 0 1 -0.63,-0.77 l -0.31,-1.3 a 0.49,0.49 0 0 0 -0.6,-0.36 c -1.72,0.43 1.1,7.32 -4.31,9.92 q -2.71,1.31 -2.92,-1.7 -0.28,-4.12 -4.5,-4.37 a 1.04,1.01 -14.3 0 1 -0.81,-0.47 q -0.72,-1.12 -2.03,-0.99 a 0.62,0.61 89.5 0 0 -0.55,0.57 c -0.34,5.55 1.75,8.06 2.78,13.17 a 0.46,0.46 0 0 1 -0.44,0.55 c -1.51,0.01 -2.96,-8.45 -5.29,-10.32 q -0.69,-0.55 -0.67,0.33 l 0.21,7.54 q 0.05,1.9 -0.7,0.15 l -2.88,-6.73 q -0.17,-0.41 -0.33,0.01 -0.93,2.49 -1.5,5.11 c -0.66,3.04 -2.48,5.43 -2.92,8.75 a 1.62,1.61 71.3 0 1 -0.46,0.94 q -1.97,2.01 -0.94,4.9 a 1.16,1.15 -40.9 0 1 -0.07,0.95 c -1.9,3.45 0.8,9.67 2.14,12.84 a 0.93,0.92 -7 0 0 0.7,0.54 l 4.79,0.71"
           inkscape:connector-curvature="0"
           style="vector-effect:non-scaling-stroke;stroke:#e8e8e8" />
        <path
           id="path22943"
           d="m 63.08,60.09 -0.82,8.65 a 1.16,1.15 72.8 0 1 -0.42,0.8 c -12.06,10.24 -23,21.5 -34.96,31.81 -3.32,2.86 -12.95,10.58 -12.92,15.09 q 0.01,0.87 0.69,0.34 C 25.26,108.51 35.47,97.22 43.54,89.7 q 8.88,-8.27 17.85,-16.5 0.8,-0.73 0.75,0.35 -0.99,22.15 4.05,43.62 0.83,3.54 3.77,1.4 4.3,-3.13 7.33,-7.21 a 0.82,0.81 -38.2 0 0 0.1,-0.79 C 71.95,97.41 71.79,78.53 72.37,64.36 a 3.8,3.77 -22.6 0 1 1,-2.4 q 4.31,-4.63 6.73,-10.43 0.83,-1.98 -1.3,-2.18 l -4.61,-0.44 a 1.41,1.4 4.3 0 1 -1.27,-1.47 l 1.22,-24.26 q 0.12,-2.38 1.6,-4.25 l 4.43,-5.6 q 1.16,-1.48 -0.71,-1.26 -5.59,0.67 -9.7,4.21 C 55.87,28.23 41.63,39.74 27.79,51.77 q -4.8,4.16 -7.71,8.57 -1.6,2.43 1.3,2.56 c 13.35,0.62 26.84,-2.66 40.19,-4.28 a 1.35,1.35 0 0 1 1.51,1.47"
           inkscape:connector-curvature="0"
           style="vector-effect:non-scaling-stroke;stroke:#858585" />
        <path
           id="path22945"
           d="m 152.05,78.77 c -0.44,-10.84 0.89,-22.1 1,-33.45 a 1.12,1.12 0 0 0 -1.64,-1 q -2.7,1.42 -5.69,4.41 c -3.13,3.13 -2.54,5.67 -2.66,9.65 q -0.35,11.89 -1.04,23.9 a 0.84,0.84 0 0 1 -0.55,0.74 q -7.7,2.77 -11.73,9.93 -0.73,1.29 0.69,0.85 l 10.7,-3.37 a 0.35,0.35 0 0 1 0.45,0.35 l -1.05,25.47 q -0.05,1.11 0.89,0.51 c 5.34,-3.42 10.02,-7.13 9.57,-14.03 q -0.16,-2.59 0.1,-15.96 a 0.69,0.68 80.7 0 1 0.45,-0.63 q 8.19,-2.9 15.88,-6.95 0.53,-0.28 0.48,0.31 -1.43,16.53 -1.9,26.76 c -0.25,5.6 2.45,10.3 8.83,8.61 2.95,-0.77 5.25,-3.59 7.73,-5.62 q 0.72,-0.59 0.57,0.33 l -1.17,7.26 q -0.33,2.08 1.56,3.02 c 8.72,4.33 20.06,-8.08 24.83,-14.03 q 0.59,-0.75 0.53,-1.4 a 0.34,0.34 0 0 0 -0.52,-0.25 c -4.71,3.22 -7.13,7.81 -13.72,6.64 q -2.64,-0.47 -2.35,-3.13 l 0.78,-7.12 a 0.64,0.63 -87.4 0 1 0.62,-0.57 q 10.22,-0.14 20.28,-1.95 a 0.62,0.61 76.3 0 1 0.7,0.43 l 4.57,14.76 a 1.17,1.17 0 0 0 1.67,0.69 q 4.48,-2.39 7.62,-6.34 1.75,-2.2 0.74,-4.84 l -3.02,-7.84 a 0.93,0.92 57.3 0 1 0.21,-0.98 l 6.39,-6.42 a 0.87,0.87 0 0 0 0.03,-1.19 c -0.61,-0.68 -6.18,1.07 -6.72,1.18 q -2.09,0.42 -2.1,-1.71 L 223.97,59.5 a 0.59,0.59 0 0 0 -0.84,-0.53 c -4.56,2.09 -9.65,6.46 -9.66,11.91 q -0.02,9.13 0.13,17.57 a 1.47,1.47 0 0 1 -1.46,1.5 l -15.34,0.08 a 0.38,0.38 0 0 1 -0.35,-0.52 q 6.57,-16.85 17.63,-31.09 c 2.93,-3.78 11.03,-8.29 11.63,-12.79 q 0.06,-0.52 -0.4,-0.28 -7.69,3.99 -13.67,11.05 -18.51,21.9 -27.84,48.37 a 0.73,0.73 0 0 1 -0.8,0.48 l -4.5,-0.69 a 2,2 0 0 1 -1.69,-1.93 c -0.22,-9.71 -0.54,-20.53 1.25,-29.95 a 1.45,1.44 74.5 0 1 0.46,-0.82 c 6.47,-5.7 11.07,-11.94 11.75,-20.93 q 0.16,-2.16 -1.85,-2.98 c -1.3,-0.54 -4.27,-0.3 -5.73,0.46 -9.14,4.77 -12.47,14.21 -13.71,23.94 a 0.96,0.95 -7.4 0 1 -0.6,0.77 l -15.74,6.04 a 0.44,0.43 -11.2 0 1 -0.59,-0.39"
           inkscape:connector-curvature="0"
           style="vector-effect:non-scaling-stroke;stroke:#858585" />
        <path
           id="path22947"
           d="m 63.19,49.09 c 0.71,-7.43 1.17,-15.05 1.46,-22.5 q 0.08,-2.02 -1.51,-0.77 -16.29,12.88 -31.79,26.73 -0.37,0.33 0.12,0.36 c 10.8,0.64 20.82,-1.64 31.18,-3.24 a 0.65,0.65 0 0 0 0.54,-0.58"
           inkscape:connector-curvature="0"
           style="vector-effect:non-scaling-stroke;stroke:#858585" />
        <path
           id="path22949"
           d="m 179.2873,64.2418 a 1.61,0.46 95.8 0 0 0.6203,-1.5553 1.61,0.46 95.8 0 0 -0.2949,-1.6483 1.61,0.46 95.8 0 0 -0.6203,1.5553 1.61,0.46 95.8 0 0 0.2949,1.6483"
           inkscape:connector-curvature="0"
           style="vector-effect:non-scaling-stroke;stroke:#858585" />
        <path
           id="path22951"
           d="m 257.46,162.5 q -4.01,10.09 -9.09,19.83 a 0.46,0.45 -76.1 0 0 0.4,0.67 h 8.92 a 2.61,2.61 0 0 1 2.27,1.32 l 3.15,5.57 q 0.29,0.52 0.48,-0.05 l 2.01,-6.04 a 0.5,0.5 0 0 0 -0.38,-0.65 c -1.27,-0.26 -4.46,0.25 -5.07,-0.83 a 0.83,0.82 47.9 0 1 0.04,-0.87 l 2.31,-3.41"
           inkscape:connector-curvature="0"
           style="vector-effect:non-scaling-stroke;stroke:#6e6e6e" />
        <path
           id="path22953"
           d="m 270.06,172.84 4.64,-0.01 q 2.25,-0.01 1.28,2.03 -1.68,3.52 -2.23,8.1"
           inkscape:connector-curvature="0"
           style="vector-effect:non-scaling-stroke;stroke:#0a0a0a" />
        <path
           id="path22955"
           d="m 273.75,182.96 -0.25,0.25"
           inkscape:connector-curvature="0"
           style="vector-effect:non-scaling-stroke;stroke:#6e6e6e" />
        <path
           id="path22957"
           d="m 273.5,183.21 q -1.38,1.62 -1.54,3.79"
           inkscape:connector-curvature="0"
           style="vector-effect:non-scaling-stroke;stroke:#858585" />
        <path
           id="path22959"
           d="m 271.96,187 q -0.89,1.72 -0.7,3.41 0.13,1.11 0.8,0.22 2.48,-3.32 6.35,-4.72 1.47,-0.54 0.62,0.77 l -5.57,8.57"
           inkscape:connector-curvature="0"
           style="vector-effect:non-scaling-stroke;stroke:#6e6e6e" />
        <path
           id="path22961"
           d="m 273.46,195.25 q -3.74,5.13 -8.89,8.83 c -1.37,0.99 -1.63,5.04 -2.54,6.79 q -7.83,15.12 -24.07,20.63"
           inkscape:connector-curvature="0"
           style="vector-effect:non-scaling-stroke;stroke:#5f5f5f" />
        <path
           id="path22963"
           d="m 237.96,231.5 -2.58,0.44 a 1.56,1.52 -36.5 0 1 -0.95,-0.13 c -4.21,-2.02 -1.84,-9.94 -0.56,-13.9 2.89,-8.92 6.47,-18 13.75,-24.28 a 0.3,0.29 34.1 0 0 -0.1,-0.5 c -3.29,-1.17 -5.66,-0.6 -7.99,2.21 q -5.31,6.42 -13.28,11.53 a 1.59,1.58 61.7 0 1 -2.3,-0.69 c -1.42,-3.15 3.17,-9.03 5.54,-10.97 a 1.28,1.26 71.5 0 0 0.47,-0.97 l 0.03,-10.05 q 0.01,-1.22 -0.62,-0.18 c -4.33,7.25 -12.24,16 -20.36,18.93"
           inkscape:connector-curvature="0"
           style="vector-effect:non-scaling-stroke;stroke:#6e6e6e" />
        <path
           id="path22965"
           d="m 209.01,202.94 -3.01,0.1"
           inkscape:connector-curvature="0"
           style="vector-effect:non-scaling-stroke;stroke:#858585" />
        <path
           id="path22967"
           d="m 206,203.04 -3.5,-0.5"
           inkscape:connector-curvature="0"
           style="vector-effect:non-scaling-stroke;stroke:#6e6e6e" />
        <path
           id="path22969"
           d="m 202.5,202.54 q -3.34,-0.8 -5.82,-3.12 a 0.47,0.46 -47.9 0 0 -0.67,0.04 l -5.72,6.73"
           inkscape:connector-curvature="0"
           style="vector-effect:non-scaling-stroke;stroke:#858585" />
        <path
           id="path22971"
           d="m 190.29,206.19 q -3.34,2.8 -6.95,3.94"
           inkscape:connector-curvature="0"
           style="vector-effect:non-scaling-stroke;stroke:#6e6e6e" />
        <path
           id="path22973"
           d="m 183.34,210.13 -2.09,-0.42"
           inkscape:connector-curvature="0"
           style="vector-effect:non-scaling-stroke;stroke:#858585" />
        <path
           id="path22975"
           d="m 181.25,209.71 c -4.52,-1.55 -3.57,-5.59 -3.53,-9.43 q 0.06,-5.21 0.07,-10.65"
           inkscape:connector-curvature="0"
           style="vector-effect:non-scaling-stroke;stroke:#6e6e6e" />
        <path
           id="path22977"
           d="m 177.79,189.63 1.27,-9.37 q 0.14,-1.06 -0.61,-0.31 l -3.88,3.83"
           inkscape:connector-curvature="0"
           style="vector-effect:non-scaling-stroke;stroke:#858585" />
        <path
           id="path22979"
           d="m 174.57,183.78 c -4.1,2.67 -6.32,0.72 -10.17,-1.81 a 0.6,0.59 36.9 0 0 -0.78,0.11 l -1.62,1.88"
           inkscape:connector-curvature="0"
           style="vector-effect:non-scaling-stroke;stroke:#6e6e6e" />
        <path
           id="path22981"
           d="m 162,183.96 q -1.52,0.93 -2.29,2.54"
           inkscape:connector-curvature="0"
           style="vector-effect:non-scaling-stroke;stroke:#858585" />
        <path
           id="path22983"
           d="m 159.71,186.5 q -1.6,5.92 1.17,11.63 a 1.93,1.91 -41.6 0 1 -0.12,1.88 q -3.04,4.63 -7.89,7.47 -2.06,1.2 -2.6,-1.12 -1.5,-6.4 -1.24,-13.06 0.06,-1.61 -1.09,-0.49 c -7.42,7.15 -22.99,12.83 -33.94,16.9"
           inkscape:connector-curvature="0"
           style="vector-effect:non-scaling-stroke;stroke:#6e6e6e" />
        <path
           id="path22985"
           d="m 114,209.71 -2,0.58"
           inkscape:connector-curvature="0"
           style="vector-effect:non-scaling-stroke;stroke:#858585" />
        <path
           id="path22987"
           d="m 112,210.29 c -1.27,0.29 -7.05,1.78 -7,-0.5"
           inkscape:connector-curvature="0"
           style="vector-effect:non-scaling-stroke;stroke:#6e6e6e" />
        <path
           id="path22989"
           d="m 138.46,169 -4.71,4.04"
           inkscape:connector-curvature="0"
           style="vector-effect:non-scaling-stroke;stroke:#6e6e6e" />
        <path
           id="path22991"
           d="m 133.75,173.04 -0.97,-1.7 A 0.75,0.75 0 0 0 132,170.97 q -9.18,1.57 -17.74,5.3 a 0.49,0.49 0 0 0 -0.27,0.6 q 2.51,7.17 2.22,14.88"
           inkscape:connector-curvature="0"
           style="vector-effect:non-scaling-stroke;stroke:#858585" />
        <path
           id="path22993"
           d="m 116.21,191.75 q -0.02,4.51 -1.48,8.73 a 0.39,0.39 0 0 0 0.33,0.52 q 2.28,0.21 4.44,-0.54"
           inkscape:connector-curvature="0"
           style="vector-effect:non-scaling-stroke;stroke:#6e6e6e" />
        <path
           id="path22995"
           d="m 119.5,200.46 5.5,-1.75"
           inkscape:connector-curvature="0"
           style="vector-effect:non-scaling-stroke;stroke:#858585" />
        <path
           id="path22997"
           d="m 125,198.71 q 12.05,-4.31 22.98,-10.19 a 1.92,1.91 76 0 0 1.01,-1.69 l -0.03,-14.33"
           inkscape:connector-curvature="0"
           style="vector-effect:non-scaling-stroke;stroke:#6e6e6e" />
        <path
           id="path22999"
           d="m 240.04,157.75 q -0.09,13.1 0.18,26.18 0.02,0.69 0.05,0.74 0.49,0.97 0.99,0.01 3.77,-7.27 6.45,-14.68"
           inkscape:connector-curvature="0"
           style="vector-effect:non-scaling-stroke;stroke:#6e6e6e" />
        <path
           id="path23001"
           d="m 247.71,170 c 3.54,-8.87 7.74,-20.68 5.68,-30.26 a 0.62,0.62 0 0 0 -0.62,-0.49 c -5.36,0.07 -12.45,1.25 -16.16,5.57 a 1.59,1.58 -30.1 0 0 -0.35,1.3 l 1.04,5.66 a 0.49,0.48 71.2 0 0 0.7,0.35 l 1.52,-0.78 a 0.33,0.33 0 0 1 0.42,0.11 c 0.25,0.38 0.08,5.43 0.1,6.29"
           inkscape:connector-curvature="0"
           style="vector-effect:non-scaling-stroke;stroke:#858585" />
        <path
           id="path23003"
           d="m 247.71,170 q -0.51,0.02 -0.85,-0.37 a 0.87,0.85 -54.5 0 1 -0.14,-0.9 q 1.72,-4.15 -0.71,-7.83 -0.87,-1.31 -1.26,0.2 l -0.88,3.35 a 0.42,0.41 6.5 0 1 -0.39,0.3 l -0.34,0.01 a 0.44,0.43 -1.4 0 1 -0.44,-0.41 c -0.1,-2.18 1.78,-7.83 -2.66,-6.6"
           inkscape:connector-curvature="0"
           style="vector-effect:non-scaling-stroke;stroke:#e8e8e8" />
        <path
           id="path23005"
           d="m 211.5,192.29 q 3.76,1.66 7.35,0 a 1.66,1.63 -86.4 0 0 0.71,-0.64 q 5.98,-10.36 6.4,-22.4"
           inkscape:connector-curvature="0"
           style="vector-effect:non-scaling-stroke;stroke:#6e6e6e" />
        <path
           id="path23007"
           d="m 225.96,169.25 c 0.95,-5.3 1.69,-11.54 -1.09,-16.29 q -4.42,-7.56 -13.88,-8.71 a 0.72,0.7 16.5 0 0 -0.72,0.38 q -1.75,3.58 -2.75,9.12 -2.82,15.67 -2.53,28.75 0.06,2.59 3.27,4.21 a 0.55,0.55 0 0 1 0.21,0.8 l -1.07,1.62 a 0.75,0.75 0 0 0 -0.01,0.79 q 1.34,2.23 4.11,2.37"
           inkscape:connector-curvature="0"
           style="vector-effect:non-scaling-stroke;stroke:#858585" />
        <path
           id="path23009"
           d="m 225.96,169.25 -4.57,4.7 a 1.38,1.34 69.4 0 0 -0.38,0.87 q -0.05,0.85 -0.5,1.54 a 0.26,0.26 0 0 1 -0.44,-0.01 l -0.25,-0.43 a 0.63,0.63 0 0 0 -0.78,-0.25 c -6.9,2.93 -5.28,10.49 -7.54,16.62"
           inkscape:connector-curvature="0"
           style="vector-effect:non-scaling-stroke;stroke:#e8e8e8" />
        <path
           id="path23011"
           d="m 172.63,169.85 c 0.57,1.91 5.07,4.7 6.6,5.18 a 0.45,0.45 0 0 0 0.57,-0.34 l 3.81,-18.16 q 0.23,-1.09 -0.47,-0.22 l -10.37,12.81 a 0.82,0.78 57.1 0 0 -0.14,0.73"
           inkscape:connector-curvature="0"
           style="vector-effect:non-scaling-stroke;stroke:#858585" />
        <path
           id="path23013"
           d="m 159.67,179.78 c 1.93,-0.56 0.79,-3.55 -0.05,-4.46 q -0.63,-0.68 -0.63,0.25 l 0.01,3.71 a 0.52,0.52 0 0 0 0.67,0.5"
           inkscape:connector-curvature="0"
           style="vector-effect:non-scaling-stroke;stroke:#858585" />
        <path
           id="path23015"
           d="m 245.58,221.85 3.63,-1.06 q 3.05,-0.91 3.81,-3.99 2.84,-11.51 -2.13,-22.19 -0.29,-0.61 -0.6,-0.03 -6.23,11.31 -8.42,23.97 -0.8,4.64 3.71,3.3"
           inkscape:connector-curvature="0"
           style="vector-effect:non-scaling-stroke;stroke:#5f5f5f" />
        <path
           id="path23017"
           d="m 378.71,194.75 -5,4.25"
           inkscape:connector-curvature="0"
           style="vector-effect:non-scaling-stroke;stroke:#6e6e6e" />
        <path
           id="path23019"
           d="m 373.71,199 -1.42,0.75"
           inkscape:connector-curvature="0"
           style="vector-effect:non-scaling-stroke;stroke:#858585" />
        <path
           id="path23021"
           d="m 372.29,199.75 c -4.92,-4.08 -5.94,-8.63 -8.36,-14.18 a 0.69,0.69 0 0 0 -0.7,-0.41 q -8.04,0.87 -15.93,0.52"
           inkscape:connector-curvature="0"
           style="vector-effect:non-scaling-stroke;stroke:#6e6e6e" />
        <path
           id="path23023"
           d="m 347.3,185.68 -0.8,0.11"
           inkscape:connector-curvature="0"
           style="vector-effect:non-scaling-stroke;stroke:#858585" />
        <path
           id="path23025"
           d="m 346.5,185.79 -3.83,0.03 a 0.69,0.68 89.2 0 0 -0.68,0.71 l 0.11,2.78 a 1.05,1.04 12.5 0 0 0.58,0.9 q 4.33,2.18 8.29,-0.18 a 0.54,0.53 61.2 0 1 0.75,0.22 c 0.9,1.86 -7.91,9.24 -9.47,10.29"
           inkscape:connector-curvature="0"
           style="vector-effect:non-scaling-stroke;stroke:#6e6e6e" />
        <path
           id="path23027"
           d="m 342.25,200.54 q -3.88,1.19 -7.83,0.11 -2.89,-0.79 -2.54,-3.77 l 1.04,-8.83 q 0.28,-2.33 -2.07,-2.31 l -3.19,0.02 a 0.56,0.55 3.5 0 0 -0.55,0.48 l -0.61,4.46 a 0.8,0.8 0 0 0 0.48,0.85 l 1.15,0.5 a 1.12,1.12 0 0 1 0.44,1.71 q -3.81,4.91 -9.14,8.14 a 1.13,1.11 36.6 0 1 -0.88,0.12 q -2.43,-0.65 -2.09,-3.52"
           inkscape:connector-curvature="0"
           style="vector-effect:non-scaling-stroke;stroke:#5f5f5f" />
        <path
           id="path23029"
           d="m 316.46,198.5 c 0.97,-13.69 5.48,-23.76 10.05,-36.12 q 0.16,-0.44 -0.27,-0.26 l -10.76,4.38 a 0.72,0.71 -11 0 0 -0.45,0.66 q -0.11,17.77 0.02,28.02 0.02,1.58 0.74,3.32"
           inkscape:connector-curvature="0"
           style="vector-effect:non-scaling-stroke;stroke:#6e6e6e" />
        <path
           id="path23031"
           d="m 315.79,198.5 -6.54,6.96"
           inkscape:connector-curvature="0"
           style="vector-effect:non-scaling-stroke;stroke:#5f5f5f" />
        <path
           id="path23033"
           d="m 309.25,205.46 q -1.4,1.29 -2.76,1.74 a 1.08,1.07 79.6 0 1 -1.41,-0.98 l -0.38,-9.51 q -0.03,-0.67 -0.53,-0.22 l -5.16,4.69 a 1.64,1.64 0 0 1 -2.48,-0.32 c -3.94,-6.07 -4.97,-12.34 -6.84,-19.47 a 0.51,0.5 -13.9 0 0 -0.61,-0.36 q -7.63,1.98 -15.33,1.93"
           inkscape:connector-curvature="0"
           style="vector-effect:non-scaling-stroke;stroke:#6e6e6e" />
        <path
           id="path23035"
           d="M 317.25,156.96 322,156.71"
           inkscape:connector-curvature="0"
           style="vector-effect:non-scaling-stroke;stroke:#6e6e6e" />
        <path
           id="path23037"
           d="m 326.5,155.71 q 3.25,-0.88 4.5,-3.92"
           inkscape:connector-curvature="0"
           style="vector-effect:non-scaling-stroke;stroke:#6e6e6e" />
        <path
           id="path23039"
           d="m 335.96,155.5 q -4.76,10.99 -7.97,22.52 a 0.5,0.5 0 0 0 0.12,0.47 l 0.21,0.22 a 0.49,0.49 0 0 0 0.72,0 q 2.9,-3.14 7.11,-2.71 a 0.59,0.58 -79.5 0 0 0.62,-0.43 l 0.7,-2.72"
           inkscape:connector-curvature="0"
           style="vector-effect:non-scaling-stroke;stroke:#6e6e6e" />
        <path
           id="path23041"
           d="m 361.44,141.19 q -1.83,1.3 -3.06,3.21 -8.97,13.89 -14.29,29.63 -0.66,1.97 1.41,1.97 h 16.25 a 0.47,0.47 0 0 0 0.47,-0.49 q -0.53,-17.33 0,-34.65 0.02,-0.51 -0.43,-0.27 -0.29,0.16 -0.35,0.6"
           inkscape:connector-curvature="0"
           style="vector-effect:non-scaling-stroke;stroke:#858585" />
        <path
           id="path23043"
           d="m 286.04,152.48 a 0.4,0.4 0 0 0 -0.76,-0.11 l -8.33,20.08 a 0.4,0.4 0 0 0 0.37,0.55 h 10.77 a 0.4,0.4 0 0 0 0.4,-0.45 l -2.45,-20.07"
           inkscape:connector-curvature="0"
           style="vector-effect:non-scaling-stroke;stroke:#6e6e6e" />
        <path
           id="path23045"
           d="m 303.01,169.98 -2.64,3.15 a 1.08,1.06 59.3 0 0 -0.22,0.89 c 0.36,1.77 2.95,12.98 4.08,13.56 a 0.38,0.37 13.9 0 0 0.55,-0.33 l -0.1,-19.53 a 0.66,0.66 0 0 0 -0.65,-0.66 l -4.4,-0.08 a 0.62,0.62 0 0 0 -0.64,0.64 l 0.05,1.92 q 0.05,1.94 1.34,0.49 0.9,-1.03 2.2,-1 1.2,0.03 0.43,0.95"
           inkscape:connector-curvature="0"
           style="vector-effect:non-scaling-stroke;stroke:#6e6e6e" />
        <path
           id="path23047"
           d="m 379.71,212.75 q -5.63,9.86 -10.75,20.02 -3.36,6.66 -7.75,8.96 -3.69,1.93 -1.74,-1.74 l 20.45,-38.72"
           inkscape:connector-curvature="0"
           style="vector-effect:non-scaling-stroke;stroke:#6e6e6e" />
        <path
           id="path23049"
           d="m 316.46,198.5 h -0.67"
           inkscape:connector-curvature="0"
           style="vector-effect:non-scaling-stroke;stroke:#c3c3c3" />
        <path
           id="path23051"
           d="m 125,198.71 c 0.26,-5.32 2.2,-9.74 2.84,-14.85 0.37,-3.01 0.66,-7.45 3.47,-9.14 a 0.5,0.5 0 0 1 0.75,0.33 l 0.38,1.97 q 0.11,0.51 0.44,0.11 1.57,-1.85 0.87,-4.09"
           inkscape:connector-curvature="0"
           style="vector-effect:non-scaling-stroke;stroke:#e8e8e8" />
        <path
           id="path23053"
           d="m 119.5,200.46 q 4.03,-10.24 6.17,-21.06 a 0.53,0.53 0 0 0 -0.43,-0.62 c -1.67,-0.25 -6.59,10.63 -6.09,12.32 a 0.57,0.55 -20.1 0 1 -0.32,0.67 q -1.32,0.57 -2.62,-0.02"
           inkscape:connector-curvature="0"
           style="vector-effect:non-scaling-stroke;stroke:#e8e8e8" />
        <path
           id="path23055"
           d="m 177.79,189.63 q -1.58,2.08 -3.06,4.24 -0.79,1.14 -1.35,3.46 -0.57,2.33 -2.18,4.3 -0.33,0.41 -0.23,-0.11 l 3.6,-17.74"
           inkscape:connector-curvature="0"
           style="vector-effect:non-scaling-stroke;stroke:#e8e8e8" />
        <path
           id="path23057"
           d="m 309.25,205.46 q 0.5,-0.08 0.82,0.24 a 0.73,0.72 -49.5 0 1 0.07,0.95 l -0.59,0.82 a 0.81,0.77 56.7 0 0 -0.13,0.7 l 1.46,5.24 a 1.27,1.26 -35.2 0 1 -0.19,1.09 l -3.58,4.89 a 1.05,1.02 57.2 0 0 -0.17,0.85 c 0.4,1.64 1.05,11.57 -0.91,11.79 a 0.48,0.47 -3.9 0 1 -0.53,-0.46 q -0.11,-6.06 0.95,-12.01 a 0.88,0.86 26.4 0 0 -0.28,-0.81 c -1.92,-1.72 -3.87,1.77 -4.45,3.3 -1.06,2.81 -2.58,4.61 -4.16,6.92 q -0.64,0.94 -0.62,-0.19 c 0.06,-2.87 1.62,-5.15 2.06,-7.35 q 1.24,-6.12 -0.48,-12.14 -0.16,-0.56 -0.48,-0.07 -3.72,5.67 -3.22,12.58 a 0.12,0.11 77 0 1 -0.07,0.12 l -0.28,0.09 a 0.26,0.26 0 0 1 -0.34,-0.21 q -0.96,-6.29 -0.09,-12.56 a 3.13,3.1 28.1 0 0 -0.78,-2.54 l -2.59,-2.83 a 0.36,0.36 0 0 0 -0.6,0.12 l -0.56,1.6 a 0.75,0.75 0 0 1 -0.93,0.47 q -1.59,-0.49 -2.66,-1.8 a 0.81,0.8 60.4 0 0 -0.89,-0.25 l -1.13,0.38 a 0.44,0.44 0 0 1 -0.54,-0.21 l -2.18,-4.19 a 1.54,1.51 36.5 0 1 -0.16,-1.01 c 0.48,-2.66 3.23,-10.94 2.07,-12.97 A 0.88,0.87 45.3 0 0 281.58,186 q -0.99,1.67 -0.23,3.38 a 1.41,1.4 -46.2 0 1 0.02,1.07 l -2.73,7.16 a 1.26,1.25 -75.2 0 1 -1.37,0.8 q -2.96,-0.48 -3.81,-3.16"
           inkscape:connector-curvature="0"
           style="vector-effect:non-scaling-stroke;stroke:#c3c3c3" />
        <path
           id="path23059"
           d="m 271.96,187 1.25,0.44 a 0.67,0.66 25.4 0 0 0.79,-0.28 c 0.76,-1.22 1.74,-3.46 -0.5,-3.95"
           inkscape:connector-curvature="0"
           style="vector-effect:non-scaling-stroke;stroke:#e8e8e8" />
        <path
           id="path23061"
           d="m 181.25,209.71 q -0.19,2.62 -0.9,5.09 c -1.34,4.59 -2.02,7.96 -2.84,12.08 a 0.55,0.54 -77.8 0 0 0.4,0.64 c 0.51,0.12 0.77,-0.26 0.91,-0.73 q 2.4,-8.37 4.52,-16.66"
           inkscape:connector-curvature="0"
           style="vector-effect:non-scaling-stroke;stroke:#e8e8e8" />
        <path
           id="path23063"
           d="m 190.29,206.19 -0.02,9.81 a 1.28,1.27 24 0 0 0.35,0.9 q 1.74,1.84 1.61,4.51 a 0.82,0.8 -17.7 0 1 -0.32,0.6 l -1.24,0.92 a 0.71,0.71 0 0 0 -0.21,0.88 c 2.63,5.29 0.93,8.74 0.37,13.65 a 0.5,0.5 0 0 0 0.38,0.54 c 1.3,0.31 2.07,-3.44 2.19,-4.24 q 0.25,-1.8 0.35,0.02 l 0.1,1.76 q 0.07,1.21 0.71,0.19 l 1.9,-2.98"
           inkscape:connector-curvature="0"
           style="vector-effect:non-scaling-stroke;stroke:#e8e8e8" />
        <path
           id="path23065"
           d="m 196.46,232.75 c 0.44,1.75 1.91,4.03 0.54,5.58 a 0.63,0.62 -56.9 0 1 -0.73,0.16 l -1.58,-0.72 a 0.45,0.45 0 0 0 -0.64,0.4 c -0.1,2.9 -2.19,6.79 0.14,9.83"
           inkscape:connector-curvature="0"
           style="vector-effect:non-scaling-stroke;stroke:#c3c3c3" />
        <path
           id="path23067"
           d="m 186.69,248 q 0.58,-1.3 0.48,-2.81 a 0.73,0.72 75.6 0 1 0.41,-0.7 c 1.47,-0.72 2.37,-2.75 0.76,-3.96 a 0.82,0.82 0 0 1 -0.33,-0.81 q 0.1,-0.56 -0.35,-0.98 -0.68,-0.64 -0.67,0.29 l 0.02,1.1 q 0.03,1.3 -0.85,0.34 -0.69,-0.74 -0.95,-1.79 -0.22,-0.92 -0.77,-0.15 l -0.35,0.49 a 1.04,1.03 55.9 0 0 -0.16,0.86 q 0.75,2.87 -0.26,5.62 a 0.39,0.39 0 0 1 -0.38,0.25 h -0.26 a 0.3,0.3 0 0 1 -0.29,-0.34 l 0.3,-2.28 a 1.25,1.22 28.8 0 0 -0.29,-0.96 q -1.71,-1.98 -1.18,-4.6 0.27,-1.31 -0.67,-0.36 l -0.76,0.77 a 0.89,0.88 -31.3 0 0 -0.22,0.89 q 0.58,1.97 -0.77,3.13 a 0.65,0.65 0 0 1 -0.93,-0.09 q -2.88,-3.63 -3.79,-8.2 -0.15,-0.79 -0.26,0 c -0.04,0.3 -0.35,6.23 -0.6,6.3 a 0.53,0.52 74.3 0 1 -0.63,-0.36 l -0.21,-0.66 a 0.41,0.41 0 0 0 -0.68,-0.17 l -0.55,0.55 a 1.43,1.42 70.5 0 0 -0.41,0.87 l -0.31,3.47 a 0.37,0.37 0 0 1 -0.55,0.29 l -0.25,-0.15 a 0.62,0.61 27.1 0 1 -0.26,-0.78 q 1.09,-2.52 -0.95,-3.76 a 0.5,0.49 -72.3 0 0 -0.75,0.39 l -0.53,7.06 a 0.47,0.47 0 0 1 -0.68,0.39 c -0.46,-0.22 -1.15,-5.63 -1.43,-6.62 a 0.44,0.44 0 0 0 -0.59,-0.28 q -3.27,1.39 -3.32,4.86 a 1.63,1.58 -30 0 1 -0.24,0.84 l -0.74,1.19 q -0.36,0.57 0.32,0.54 0.67,-0.03 1.13,0.32"
           inkscape:connector-curvature="0"
           style="vector-effect:non-scaling-stroke;stroke:#c3c3c3" />
        <path
           id="path23069"
           d="m 132.94,247.88 q -3.82,-15.09 -9.92,-29.41 c -0.84,-1.96 -0.85,-5.77 -2.53,-6.92 a 0.42,0.41 -61.5 0 0 -0.62,0.19 q -3.65,9.08 -4.7,18.82 -0.03,0.24 -0.13,0.39 -0.13,0.18 -0.31,0.3 A 0.44,0.44 0 0 1 114.04,231 l -0.22,-0.87 a 0.65,0.63 -12.9 0 0 -0.75,-0.46 q -1.9,0.39 -1.85,2.21 a 0.44,0.44 0 0 0 0.47,0.43 l 1.02,-0.08 q 0.79,-0.05 0.44,0.65 l -3.07,6.26 a 1.7,1.66 53.6 0 0 -0.15,1.08 l 1,5.62 a 0.64,0.64 0 0 1 -0.68,0.75 q -1.99,-0.17 -2.81,1.41"
           inkscape:connector-curvature="0"
           style="vector-effect:non-scaling-stroke;stroke:#c3c3c3" />
        <path
           id="path23071"
           d="m 112,210.29 q 0.77,2.57 2.64,4.38 0.37,0.36 0.46,-0.15 0.42,-2.56 -1.1,-4.81"
           inkscape:connector-curvature="0"
           style="vector-effect:non-scaling-stroke;stroke:#e8e8e8" />
        <path
           id="path23073"
           d="m 159.71,186.5 q 0.71,0.81 1.7,1.26 a 0.4,0.4 0 0 0 0.53,-0.21 l 1.17,-2.77 a 0.6,0.59 -63.5 0 0 -0.24,-0.74 q -0.32,-0.2 -0.87,-0.08"
           inkscape:connector-curvature="0"
           style="vector-effect:non-scaling-stroke;stroke:#e8e8e8" />
        <path
           id="path23075"
           d="m 79.6806,217.2003 a 2.48,0.87 65.7 0 0 -0.2277,-2.6183 2.48,0.87 65.7 0 0 -1.8135,-1.9023 2.48,0.87 65.7 0 0 0.2277,2.6183 2.48,0.87 65.7 0 0 1.8135,1.9023"
           inkscape:connector-curvature="0"
           style="vector-effect:non-scaling-stroke;stroke:#e8e8e8" />
        <path
           id="path23077"
           d="m 190.4,230.47 a 0.22,0.21 -48.4 0 0 0.27,-0.02 l 0.21,-0.2 a 0.39,0.39 0 0 0 0.09,-0.45 l -0.98,-2.22 q -0.44,-0.98 -0.69,0.06 -0.42,1.74 1.1,2.83"
           inkscape:connector-curvature="0"
           style="vector-effect:non-scaling-stroke;stroke:#e8e8e8" />
        <path
           id="path23079"
           d="m 237.96,231.5 c 1.02,5.58 0.92,10.97 2.23,16.5"
           inkscape:connector-curvature="0"
           style="vector-effect:non-scaling-stroke;stroke:#c3c3c3" />
        <path
           id="path23081"
           d="m 223.19,248 q 0.97,-0.22 0.87,-0.54 -1.12,-3.43 -1.98,-6.98 a 1.24,1.23 7.7 0 0 -0.59,-0.77 q -2.93,-1.66 -4.13,-4.88 a 1.02,1.01 -1.1 0 0 -0.66,-0.63 l -1.07,-0.34 a 0.72,0.72 0 0 1 -0.49,-0.59 q -0.22,-1.77 -1.78,-2.06 a 0.56,0.56 0 0 0 -0.65,0.66 q 0.93,4.8 -1.79,8.83 a 0.54,0.53 -45.9 0 1 -0.87,0.02 q -1.1,-1.52 -2.76,-0.93 a 0.88,0.86 55.9 0 1 -0.85,-0.17 c -1.13,-0.99 -3.63,-5.82 -5.03,-4.43 q -0.49,0.49 -0.48,-0.2 l 0.08,-3.41 q 0.01,-0.63 -0.52,-0.29 l -0.86,0.55 q -0.51,0.32 -0.41,-0.27 l 0.27,-1.67 a 0.58,0.58 0 0 0 -0.43,-0.65 q -0.55,-0.15 -1.02,0.25"
           inkscape:connector-curvature="0"
           style="vector-effect:non-scaling-stroke;stroke:#c3c3c3" />
        <path
           id="path23083"
           d="m 198.04,229.5 -0.37,-0.3 a 0.82,0.79 -69.4 0 1 -0.3,-0.69 l 0.18,-3.14 q 0.03,-0.48 0.28,-0.91 c 1.03,-1.79 0.44,-3.82 0.59,-5.31 0.66,-6.23 2.16,-10.74 4.08,-16.61"
           inkscape:connector-curvature="0"
           style="vector-effect:non-scaling-stroke;stroke:#e8e8e8" />
        <path
           id="path23085"
           d="m 206,203.04 -0.6,0.31 a 0.36,0.36 0 0 0 -0.09,0.58 l 0.25,0.25 a 0.77,0.75 -59.7 0 1 0.19,0.77 l -4.16,13.61 a 0.35,0.34 -81.1 0 0 0.32,0.45 h 1.2 a 1.11,1.11 0 0 1 1.09,1.3 q -0.13,0.75 0.39,1.24 0.54,0.51 0.69,-0.21 c 1.31,-6.28 3.93,-10.96 3.73,-18.4"
           inkscape:connector-curvature="0"
           style="vector-effect:non-scaling-stroke;stroke:#e8e8e8" />
        <path
           id="path23087"
           d="m 372.29,199.75 q 0.65,4.53 -0.36,8.98 a 0.32,0.32 0 0 0 0.39,0.39 c 3.57,-0.86 2.32,-8.03 1.39,-10.12"
           inkscape:connector-curvature="0"
           style="vector-effect:non-scaling-stroke;stroke:#e8e8e8" />
        <path
           id="path23089"
           d="m 343.44,248 2,-0.42 a 0.51,0.51 0 0 0 0.4,-0.6 c -2.65,-13.84 -3.45,-26.3 -7.41,-41.22 q -0.22,-0.84 0.37,-2.37 a 0.58,0.57 -71.5 0 1 0.69,-0.35 c 2.76,0.77 1.19,5.1 1.82,7.44 q 0.15,0.54 0.35,0.02 c 0.78,-2.09 -0.64,-4.93 1.08,-6.44 a 0.8,0.79 61.7 0 0 0.24,-0.82 l -0.73,-2.7"
           inkscape:connector-curvature="0"
           style="vector-effect:non-scaling-stroke;stroke:#c3c3c3" />
        <path
           id="path23091"
           d="m 346.5,185.79 q -1.31,0.95 -0.59,2.51 a 0.65,0.64 -19.1 0 0 0.73,0.35 q 2.34,-0.55 0.66,-2.97"
           inkscape:connector-curvature="0"
           style="vector-effect:non-scaling-stroke;stroke:#e8e8e8" />
        <path
           id="path23093"
           d="m 276.65,248 -0.47,-6.35 a 0.43,0.41 89.2 0 0 -0.39,-0.39 l -0.29,-0.02 a 0.41,0.41 0 0 0 -0.44,0.44 l 0.39,5.52 a 0.5,0.5 0 0 1 -0.3,0.49 l -0.71,0.31"
           inkscape:connector-curvature="0"
           style="vector-effect:non-scaling-stroke;stroke:#c3c3c3" />
        <path
           id="path23095"
           d="m 333.2908,243.9227 a 4.31,0.81 77.8 0 0 -0.1191,-4.3839 4.31,0.81 77.8 0 0 -1.7025,-4.0415 4.31,0.81 77.8 0 0 0.1191,4.3839 4.31,0.81 77.8 0 0 1.7025,4.0415"
           inkscape:connector-curvature="0"
           style="vector-effect:non-scaling-stroke;stroke:#c3c3c3" />
        <path
           id="path23097"
           d="m 198.04,229.5 -1.58,3.25"
           inkscape:connector-curvature="0"
           style="vector-effect:non-scaling-stroke;stroke:#dadada" />
        <path
           id="path23099"
           d="m 127.71,248.05 q 0.13,-3.29 -1.73,-5.88 -0.46,-0.64 -0.68,0.11 -0.8,2.66 0.98,4.94 a 0.44,0.44 0 0 1 -0.05,0.59 q -0.12,0.11 -0.29,0.19"
           inkscape:connector-curvature="0"
           style="vector-effect:non-scaling-stroke;stroke:#c3c3c3" />
        <path
           id="path23101"
           d="m 198.19,248 -0.31,-0.34 a 0.82,0.81 -63.6 0 1 -0.22,-0.67 c 0.22,-1.77 0.49,-5.06 -1,-5.77 q -0.48,-0.23 -0.3,0.27 1.2,3.31 -0.13,6.62"
           inkscape:connector-curvature="0"
           style="vector-effect:non-scaling-stroke;stroke:#c3c3c3" />
      </g>
      <path
         id="path23105"
         d="m 0,0 h 449 v 248 l -66.44,-0.01 q -0.86,-11.43 -2.71,-22.75 -0.71,-4.37 0.59,-11.35 a 0.85,0.83 24.4 0 0 -0.32,-0.83 l -0.41,-0.31 17.58,-33.25 a 0.25,0.25 0 0 1 0.42,-0.04 q 8.95,10.98 20.22,19.54 a 0.91,0.91 0 0 0 1.03,0.05 q 5.11,-3.25 8.78,-8.06 a 1.27,1.26 36.5 0 0 -0.27,-1.79 q -12.18,-8.81 -21.6,-21.13 -1.6,-2.09 -0.14,-4.82 7.11,-13.28 13.38,-27.36 a 0.68,0.68 0 0 0 -0.48,-0.94 c -2.27,-0.47 -7.58,5.63 -8.17,6.79 q -4.1,8.16 -8.01,17.16 -0.9,2.05 -2.05,0.13 -5.79,-9.69 -8.78,-20.5 a 0.47,0.46 69.5 0 0 -0.65,-0.3 c -3.81,1.79 -10.23,6.86 -8.83,11.58 q 3.22,10.9 11.72,24.77 a 0.86,0.85 -46.8 0 1 0.02,0.86 l -13.96,25.83 -1.21,-6.52 2.71,-3.67 a 0.69,0.69 0 0 0 0.01,-0.79 l -5.08,-7.31 q -1.55,-2.22 0.32,-4.18 l 3.22,-3.39 a 0.83,0.83 0 0 0 -0.19,-1.29 c -1.12,-0.65 -3.45,1.01 -4.14,0.91 q -2.48,-0.33 -2.63,-2.83 -1.22,-19.68 -0.89,-38.95 0.02,-0.87 -0.72,-1.17 a 0.73,0.73 0 0 0 -0.82,0.2 c -2.08,2.37 -4.42,1.92 -6.54,3.34 -13.45,9.01 -19.64,23.99 -26.49,37.23 q -1.68,-7.22 -0.81,-14.44 0.06,-0.49 -0.09,-0.96 l -0.61,-1.95 q 0.08,-0.93 0.34,-1.2 c 5.03,-5.2 10.2,-10.19 12.16,-17.39 a 1.52,1.52 0 0 0 -1.43,-1.92 c -6.24,-0.12 -13.79,11.85 -16.03,16.8 l -1.31,-0.07 a 0.45,0.45 0 0 1 -0.42,-0.55 l 0.33,-1.41 a 0.57,0.57 0 0 0 -0.38,-0.66 c -3.01,-0.97 -3.31,4.89 -2.72,6.61 l -4.5,1 -0.94,-4.82 q -0.1,-0.49 0.02,-0.98 0.36,-1.46 -0.15,-2.93 a 0.64,0.64 0 0 0 -0.74,-0.41 c -2.57,0.59 -3.06,7.62 -2.94,9.39 q -0.89,0.22 -1.77,-0.07 a 0.68,0.67 8.9 0 1 -0.47,-0.64 l -0.02,-17.73 a 0.59,0.59 0 0 0 -0.84,-0.53 q -5.02,2.38 -8.18,6.8 c -2.12,2.97 -1.53,8.41 -1.46,11.94 a 1.17,1.16 -19.7 0 1 -0.45,0.94 l -5.23,3.97 q -0.55,0.41 -0.64,-0.27 l -2.25,-18.73 a 0.89,0.89 0 0 0 -1.4,-0.62 l -5.16,3.72 q -0.98,0.72 -0.27,-0.27 l 3.87,-5.35 a 0.52,0.51 -66.3 0 0 -0.31,-0.81 c -6.93,-1.5 -20.34,27.72 -22.61,33.53 q -4.41,2.09 -7.56,5.2 -1.01,0.02 -1.06,-0.8 a 0.74,0.73 -80 0 0 -0.45,-0.65 c -4.06,-1.72 -0.55,-10.21 -3.53,-14.09 4,-10.9 7.46,-20.46 6.3,-30.54 q -0.31,-2.63 -2.96,-2.5 -15.94,0.82 -25.43,13.4 a 0.36,0.35 46 0 1 -0.58,-0.02 c -4.27,-6.14 -14.25,-11.77 -21.5,-6.52 -12.16,8.8 -17.14,24.03 -18.6,38.69 -0.37,3.7 -2.85,23.1 -4.71,23.81 q -1.96,0.75 -1.96,-1.35 c -0.01,-8.62 -0.43,-17.17 0.92,-25.56 q 1.96,-12.15 4.6,-24.17 a 0.5,0.49 -61.8 0 0 -0.13,-0.46 l -0.18,-0.19 a 0.35,0.35 0 0 0 -0.43,-0.04 l -1.18,0.78 q -1.47,0.97 -0.41,-0.43 c 0.55,-0.72 4.25,-5.59 3.94,-6.14 a 0.45,0.45 0 0 0 -0.61,-0.17 c -8.4,4.81 -17.5,17.29 -23.93,25.78 a 0.33,0.33 0 0 1 -0.55,-0.04 q -6.22,-11.51 -11.36,-23.55 a 0.45,0.44 -27.3 0 0 -0.65,-0.2 c -4.47,2.79 -9.7,6.75 -9.3,12.83 0.37,5.53 0.27,11.05 0.21,16.59 q -1.94,0.83 -2.36,3.03 -0.3,1.6 -0.66,0.01 -0.27,-1.16 0.13,-2.36 a 0.75,0.74 33.6 0 0 -0.15,-0.72 c -1.39,-1.59 -3.49,1.3 -3.96,2.37 a 1.26,1.22 -1.8 0 1 -0.58,0.6 q -0.54,0.26 -0.91,0.73 a 0.73,0.72 -57.2 0 1 -0.89,0.2 c -2.04,-1.01 3.05,-4.08 -1.12,-7.36 1.94,-1.65 5.3,-4.45 4.4,-7.35 a 0.65,0.64 79.6 0 0 -0.65,-0.46 c -9.94,0.7 -19.14,5.16 -27.67,7.93 A 0.41,0.41 0 0 1 114,168.73 v -17.68 a 0.84,0.84 0 0 1 0.44,-0.74 q 7.97,-4.26 16.83,-5.99 a 0.52,0.51 82 0 1 0.61,0.47 l 0.33,3.78 q 0.11,1.2 1.03,0.43 c 3.84,-3.22 9.84,-7.74 8.63,-13.24 a 1.02,1.01 84.5 0 0 -0.96,-0.8 c -5.84,-0.16 -9.41,1.6 -15.7,4.42 -10.35,4.65 -18.16,9.71 -24.48,17.86 -4.26,5.5 -2.53,11.43 -1.05,17.56 a 1.69,1.68 -42.8 0 1 -0.04,0.95 q -2.73,8.21 -7.01,15.72 c -2.4,4.23 -4.85,6.51 -9.58,3.35 q -2.11,-1.42 -2.12,-3.96 l -0.1,-22.19 a 1.84,1.81 61.8 0 1 0.29,-0.99 q 10.66,-16.15 11.97,-35.54 0.17,-2.52 -2.35,-2.29 -1.38,0.13 -3.67,1.74 c -13.23,9.33 -13.14,25.44 -15.68,40.42 q -0.8,4.75 -2.68,6.8 c -5.35,5.84 -15.51,3.09 -14.98,-6.06 q 0.97,-16.53 4.44,-33.49 0.5,-2.47 -1.91,-1.72 c -4.64,1.42 -7.26,5.97 -8.27,10.91 q -3.3,16.08 -4.2,32.47 c -0.19,3.4 0.11,7.2 3.36,9.12 8.51,5.03 17.39,-3.59 23.38,-8.89 q 0.44,-0.39 0.45,0.19 0.06,8.01 0,16.11 c -0.07,11.92 10.44,9.82 16.61,4.39 q 8.64,-7.59 14.47,-17.54 0.21,-0.35 0.68,-0.29 a 0.64,0.63 2.2 0 1 0.55,0.59 c 0.45,8.04 -0.8,16.9 3.17,22.75 a 0.65,0.65 0 0 1 -0.05,0.78 l -1.41,1.66 -0.47,-0.03 a 0.83,0.83 0 0 1 -0.73,-0.54 c -0.49,-1.33 -2.75,-7.56 -4.57,-6.91 a 0.72,0.7 78.4 0 0 -0.46,0.71 c 0.1,1.62 1.76,3 -0.11,4.52 a 0.42,0.41 -31.6 0 1 -0.64,-0.15 c -0.46,-1 -0.98,-3.9 -2.45,-4.09 a 0.6,0.6 0 0 0 -0.64,0.38 q -0.79,2.02 -0.22,4.1 a 1.11,1.08 -33.7 0 1 -0.21,1 l -0.41,0.5 a 0.67,0.67 0 0 1 -0.8,0.18 l -3.11,-1.43 a 1.15,1.13 -84.6 0 1 -0.63,-0.77 l -0.31,-1.3 a 0.49,0.49 0 0 0 -0.6,-0.36 c -1.72,0.43 1.1,7.32 -4.31,9.92 q -2.71,1.31 -2.92,-1.7 -0.28,-4.12 -4.5,-4.37 a 1.04,1.01 -14.3 0 1 -0.81,-0.47 q -0.72,-1.12 -2.03,-0.99 a 0.62,0.61 89.5 0 0 -0.55,0.57 c -0.34,5.55 1.75,8.06 2.78,13.17 a 0.46,0.46 0 0 1 -0.44,0.55 c -1.51,0.01 -2.96,-8.45 -5.29,-10.32 q -0.69,-0.55 -0.67,0.33 l 0.21,7.54 q 0.05,1.9 -0.7,0.15 l -2.88,-6.73 q -0.17,-0.41 -0.33,0.01 -0.93,2.49 -1.5,5.11 c -0.66,3.04 -2.48,5.43 -2.92,8.75 a 1.62,1.61 71.3 0 1 -0.46,0.94 q -1.97,2.01 -0.94,4.9 a 1.16,1.15 -40.9 0 1 -0.07,0.95 c -1.9,3.45 0.8,9.67 2.14,12.84 a 0.93,0.92 -7 0 0 0.7,0.54 L 67.94,248 H 0 Z m 63.08,60.09 -0.82,8.65 a 1.16,1.15 72.8 0 1 -0.42,0.8 c -12.06,10.24 -23,21.5 -34.96,31.81 -3.32,2.86 -12.95,10.58 -12.92,15.09 q 0.01,0.87 0.69,0.34 C 25.26,108.51 35.47,97.22 43.54,89.7 q 8.88,-8.27 17.85,-16.5 0.8,-0.73 0.75,0.35 -0.99,22.15 4.05,43.62 0.83,3.54 3.77,1.4 4.3,-3.13 7.33,-7.21 a 0.82,0.81 -38.2 0 0 0.1,-0.79 C 71.95,97.41 71.79,78.53 72.37,64.36 a 3.8,3.77 -22.6 0 1 1,-2.4 q 4.31,-4.63 6.73,-10.43 0.83,-1.98 -1.3,-2.18 l -4.61,-0.44 a 1.41,1.4 4.3 0 1 -1.27,-1.47 l 1.22,-24.26 q 0.12,-2.38 1.6,-4.25 l 4.43,-5.6 q 1.16,-1.48 -0.71,-1.26 -5.59,0.67 -9.7,4.21 C 55.87,28.23 41.63,39.74 27.79,51.77 q -4.8,4.16 -7.71,8.57 -1.6,2.43 1.3,2.56 c 13.35,0.62 26.84,-2.66 40.19,-4.28 a 1.35,1.35 0 0 1 1.51,1.47 z m 88.97,18.68 c -0.44,-10.84 0.89,-22.1 1,-33.45 a 1.12,1.12 0 0 0 -1.64,-1 q -2.7,1.42 -5.69,4.41 c -3.13,3.13 -2.54,5.67 -2.66,9.65 q -0.35,11.89 -1.04,23.9 a 0.84,0.84 0 0 1 -0.55,0.74 q -7.7,2.77 -11.73,9.93 -0.73,1.29 0.69,0.85 l 10.7,-3.37 a 0.35,0.35 0 0 1 0.45,0.35 l -1.05,25.47 q -0.05,1.11 0.89,0.51 c 5.34,-3.42 10.02,-7.13 9.57,-14.03 q -0.16,-2.59 0.1,-15.96 a 0.69,0.68 80.7 0 1 0.45,-0.63 q 8.19,-2.9 15.88,-6.95 0.53,-0.28 0.48,0.31 -1.43,16.53 -1.9,26.76 c -0.25,5.6 2.45,10.3 8.83,8.61 2.95,-0.77 5.25,-3.59 7.73,-5.62 q 0.72,-0.59 0.57,0.33 l -1.17,7.26 q -0.33,2.08 1.56,3.02 c 8.72,4.33 20.06,-8.08 24.83,-14.03 q 0.59,-0.75 0.53,-1.4 a 0.34,0.34 0 0 0 -0.52,-0.25 c -4.71,3.22 -7.13,7.81 -13.72,6.64 q -2.64,-0.47 -2.35,-3.13 l 0.78,-7.12 a 0.64,0.63 -87.4 0 1 0.62,-0.57 q 10.22,-0.14 20.28,-1.95 a 0.62,0.61 76.3 0 1 0.7,0.43 l 4.57,14.76 a 1.17,1.17 0 0 0 1.67,0.69 q 4.48,-2.39 7.62,-6.34 1.75,-2.2 0.74,-4.84 l -3.02,-7.84 a 0.93,0.92 57.3 0 1 0.21,-0.98 l 6.39,-6.42 a 0.87,0.87 0 0 0 0.03,-1.19 c -0.61,-0.68 -6.18,1.07 -6.72,1.18 q -2.09,0.42 -2.1,-1.71 L 223.97,59.5 a 0.59,0.59 0 0 0 -0.84,-0.53 c -4.56,2.09 -9.65,6.46 -9.66,11.91 q -0.02,9.13 0.13,17.57 a 1.47,1.47 0 0 1 -1.46,1.5 l -15.34,0.08 a 0.38,0.38 0 0 1 -0.35,-0.52 q 6.57,-16.85 17.63,-31.09 c 2.93,-3.78 11.03,-8.29 11.63,-12.79 q 0.06,-0.52 -0.4,-0.28 -7.69,3.99 -13.67,11.05 -18.51,21.9 -27.84,48.37 a 0.73,0.73 0 0 1 -0.8,0.48 l -4.5,-0.69 a 2,2 0 0 1 -1.69,-1.93 c -0.22,-9.71 -0.54,-20.53 1.25,-29.95 a 1.45,1.44 74.5 0 1 0.46,-0.82 c 6.47,-5.7 11.07,-11.94 11.75,-20.93 q 0.16,-2.16 -1.85,-2.98 c -1.3,-0.54 -4.27,-0.3 -5.73,0.46 -9.14,4.77 -12.47,14.21 -13.71,23.94 a 0.96,0.95 -7.4 0 1 -0.6,0.77 l -15.74,6.04 a 0.44,0.43 -11.2 0 1 -0.59,-0.39 z"
         inkscape:connector-curvature="0"
         style="fill:#ffffff" />
      <path
         id="path23107"
         d="m 63.08,60.09 a 1.35,1.35 0 0 0 -1.51,-1.47 c -13.35,1.62 -26.84,4.9 -40.19,4.28 q -2.9,-0.13 -1.3,-2.56 2.91,-4.41 7.71,-8.57 C 41.63,39.74 55.87,28.23 69.76,16.28 q 4.11,-3.54 9.7,-4.21 1.87,-0.22 0.71,1.26 l -4.43,5.6 q -1.48,1.87 -1.6,4.25 l -1.22,24.26 a 1.41,1.4 4.3 0 0 1.27,1.47 l 4.61,0.44 q 2.13,0.2 1.3,2.18 -2.42,5.8 -6.73,10.43 a 3.8,3.77 -22.6 0 0 -1,2.4 c -0.58,14.17 -0.42,33.05 5.02,46.21 a 0.82,0.81 -38.2 0 1 -0.1,0.79 q -3.03,4.08 -7.33,7.21 -2.94,2.14 -3.77,-1.4 Q 61.15,95.7 62.14,73.55 62.19,72.47 61.39,73.2 52.42,81.43 43.54,89.7 c -8.07,7.52 -18.28,18.81 -28.89,27.08 q -0.68,0.53 -0.69,-0.34 c -0.03,-4.51 9.6,-12.23 12.92,-15.09 11.96,-10.31 22.9,-21.57 34.96,-31.81 a 1.16,1.15 72.8 0 0 0.42,-0.8 z m 0.11,-11 c 0.71,-7.43 1.17,-15.05 1.46,-22.5 q 0.08,-2.02 -1.51,-0.77 -16.29,12.88 -31.79,26.73 -0.37,0.33 0.12,0.36 c 10.8,0.64 20.82,-1.64 31.18,-3.24 a 0.65,0.65 0 0 0 0.54,-0.58 z"
         inkscape:connector-curvature="0"
         style="fill:#0a0a0a" />
      <path
         id="path23109"
         d="m 64.65,26.59 c -0.29,7.45 -0.75,15.07 -1.46,22.5 a 0.65,0.65 0 0 1 -0.54,0.58 c -10.36,1.6 -20.38,3.88 -31.18,3.24 q -0.49,-0.03 -0.12,-0.36 15.5,-13.85 31.79,-26.73 1.59,-1.25 1.51,0.77 z"
         inkscape:connector-curvature="0"
         style="fill:#ffffff" />
      <path
         id="path23111"
         d="m 152.64,79.16 15.74,-6.04 a 0.96,0.95 -7.4 0 0 0.6,-0.77 c 1.24,-9.73 4.57,-19.17 13.71,-23.94 1.46,-0.76 4.43,-1 5.73,-0.46 q 2.01,0.82 1.85,2.98 c -0.68,8.99 -5.28,15.23 -11.75,20.93 a 1.45,1.44 74.5 0 0 -0.46,0.82 c -1.79,9.42 -1.47,20.24 -1.25,29.95 a 2,2 0 0 0 1.69,1.93 l 4.5,0.69 a 0.73,0.73 0 0 0 0.8,-0.48 q 9.33,-26.47 27.84,-48.37 5.98,-7.06 13.67,-11.05 0.46,-0.24 0.4,0.28 c -0.6,4.5 -8.7,9.01 -11.63,12.79 q -11.06,14.24 -17.63,31.09 a 0.38,0.38 0 0 0 0.35,0.52 l 15.34,-0.08 a 1.47,1.47 0 0 0 1.46,-1.5 q -0.15,-8.44 -0.13,-17.57 c 0.01,-5.45 5.1,-9.82 9.66,-11.91 a 0.59,0.59 0 0 1 0.84,0.53 l 0.09,26.29 q 0.01,2.13 2.1,1.71 c 0.54,-0.11 6.11,-1.86 6.72,-1.18 a 0.87,0.87 0 0 1 -0.03,1.19 l -6.39,6.42 a 0.93,0.92 57.3 0 0 -0.21,0.98 l 3.02,7.84 q 1.01,2.64 -0.74,4.84 -3.14,3.95 -7.62,6.34 a 1.17,1.17 0 0 1 -1.67,-0.69 l -4.57,-14.76 a 0.62,0.61 76.3 0 0 -0.7,-0.43 q -10.06,1.81 -20.28,1.95 a 0.64,0.63 -87.4 0 0 -0.62,0.57 l -0.78,7.12 q -0.29,2.66 2.35,3.13 c 6.59,1.17 9.01,-3.42 13.72,-6.64 a 0.34,0.34 0 0 1 0.52,0.25 q 0.06,0.65 -0.53,1.4 c -4.77,5.95 -16.11,18.36 -24.83,14.03 q -1.89,-0.94 -1.56,-3.02 l 1.17,-7.26 q 0.15,-0.92 -0.57,-0.33 c -2.48,2.03 -4.78,4.85 -7.73,5.62 -6.38,1.69 -9.08,-3.01 -8.83,-8.61 q 0.47,-10.23 1.9,-26.76 0.05,-0.59 -0.48,-0.31 -7.69,4.05 -15.88,6.95 a 0.69,0.68 80.7 0 0 -0.45,0.63 q -0.26,13.37 -0.1,15.96 c 0.45,6.9 -4.23,10.61 -9.57,14.03 q -0.94,0.6 -0.89,-0.51 l 1.05,-25.47 a 0.35,0.35 0 0 0 -0.45,-0.35 l -10.7,3.37 q -1.42,0.44 -0.69,-0.85 4.03,-7.16 11.73,-9.93 a 0.84,0.84 0 0 0 0.55,-0.74 q 0.69,-12.01 1.04,-23.9 c 0.12,-3.98 -0.47,-6.52 2.66,-9.65 q 2.99,-2.99 5.69,-4.41 a 1.12,1.12 0 0 1 1.64,1 c -0.11,11.35 -1.44,22.61 -1,33.45 a 0.44,0.43 -11.2 0 0 0.59,0.39 z m 26.6473,-14.9182 a 1.61,0.46 95.8 0 0 0.6203,-1.5553 1.61,0.46 95.8 0 0 -0.2949,-1.6483 1.61,0.46 95.8 0 0 -0.6203,1.5553 1.61,0.46 95.8 0 0 0.2949,1.6483 z"
         inkscape:connector-curvature="0"
         style="fill:#0a0a0a" />
      <ellipse
         id="ellipse23113"
         ry="0.46000001"
         rx="1.61"
         transform="rotate(95.8,61.425208,112.39276)"
         cy="0"
         cx="0"
         style="fill:#ffffff" />
      <path
         id="path23115"
         d="m 257.46,162.5 q -4.01,10.09 -9.09,19.83 a 0.46,0.45 -76.1 0 0 0.4,0.67 h 8.92 a 2.61,2.61 0 0 1 2.27,1.32 l 3.15,5.57 q 0.29,0.52 0.48,-0.05 l 2.01,-6.04 a 0.5,0.5 0 0 0 -0.38,-0.65 c -1.27,-0.26 -4.46,0.25 -5.07,-0.83 a 0.83,0.82 47.9 0 1 0.04,-0.87 l 2.31,-3.41 q 3.15,-3.11 7.56,-5.2 l 4.64,-0.01 q 2.25,-0.01 1.28,2.03 -1.68,3.52 -2.23,8.1 l -0.25,0.25 q -1.38,1.62 -1.54,3.79 -0.89,1.72 -0.7,3.41 0.13,1.11 0.8,0.22 2.48,-3.32 6.35,-4.72 1.47,-0.54 0.62,0.77 l -5.57,8.57 q -3.74,5.13 -8.89,8.83 c -1.37,0.99 -1.63,5.04 -2.54,6.79 q -7.83,15.12 -24.07,20.63 l -2.58,0.44 a 1.56,1.52 -36.5 0 1 -0.95,-0.13 c -4.21,-2.02 -1.84,-9.94 -0.56,-13.9 2.89,-8.92 6.47,-18 13.75,-24.28 a 0.3,0.29 34.1 0 0 -0.1,-0.5 c -3.29,-1.17 -5.66,-0.6 -7.99,2.21 q -5.31,6.42 -13.28,11.53 a 1.59,1.58 61.7 0 1 -2.3,-0.69 c -1.42,-3.15 3.17,-9.03 5.54,-10.97 a 1.28,1.26 71.5 0 0 0.47,-0.97 l 0.03,-10.05 q 0.01,-1.22 -0.62,-0.18 c -4.33,7.25 -12.24,16 -20.36,18.93 l -3.01,0.1 -3.5,-0.5 q -3.34,-0.8 -5.82,-3.12 a 0.47,0.46 -47.9 0 0 -0.67,0.04 l -5.72,6.73 q -3.34,2.8 -6.95,3.94 l -2.09,-0.42 c -4.52,-1.55 -3.57,-5.59 -3.53,-9.43 q 0.06,-5.21 0.07,-10.65 l 1.27,-9.37 q 0.14,-1.06 -0.61,-0.31 l -3.88,3.83 c -4.1,2.67 -6.32,0.72 -10.17,-1.81 a 0.6,0.59 36.9 0 0 -0.78,0.11 l -1.62,1.88 q -1.52,0.93 -2.29,2.54 -1.6,5.92 1.17,11.63 a 1.93,1.91 -41.6 0 1 -0.12,1.88 q -3.04,4.63 -7.89,7.47 -2.06,1.2 -2.6,-1.12 -1.5,-6.4 -1.24,-13.06 0.06,-1.61 -1.09,-0.49 c -7.42,7.15 -22.99,12.83 -33.94,16.9 l -2,0.58 c -1.27,0.29 -7.05,1.78 -7,-0.5 l 1.41,-1.66 a 0.65,0.65 0 0 0 0.05,-0.78 c -3.97,-5.85 -2.72,-14.71 -3.17,-22.75 a 0.64,0.63 2.2 0 0 -0.55,-0.59 q -0.47,-0.06 -0.68,0.29 -5.83,9.95 -14.47,17.54 c -6.17,5.43 -16.68,7.53 -16.61,-4.39 q 0.06,-8.1 0,-16.11 -0.01,-0.58 -0.45,-0.19 c -5.99,5.3 -14.87,13.92 -23.38,8.89 -3.25,-1.92 -3.55,-5.72 -3.36,-9.12 q 0.9,-16.39 4.2,-32.47 c 1.01,-4.94 3.63,-9.49 8.27,-10.91 q 2.41,-0.75 1.91,1.72 -3.47,16.96 -4.44,33.49 c -0.53,9.15 9.63,11.9 14.98,6.06 q 1.88,-2.05 2.68,-6.8 c 2.54,-14.98 2.45,-31.09 15.68,-40.42 q 2.29,-1.61 3.67,-1.74 2.52,-0.23 2.35,2.29 -1.31,19.39 -11.97,35.54 a 1.84,1.81 61.8 0 0 -0.29,0.99 l 0.1,22.19 q 0.01,2.54 2.12,3.96 c 4.73,3.16 7.18,0.88 9.58,-3.35 q 4.28,-7.51 7.01,-15.72 a 1.69,1.68 -42.8 0 0 0.04,-0.95 c -1.48,-6.13 -3.21,-12.06 1.05,-17.56 6.32,-8.15 14.13,-13.21 24.48,-17.86 6.29,-2.82 9.86,-4.58 15.7,-4.42 a 1.02,1.01 84.5 0 1 0.96,0.8 c 1.21,5.5 -4.79,10.02 -8.63,13.24 q -0.92,0.77 -1.03,-0.43 l -0.33,-3.78 a 0.52,0.51 82 0 0 -0.61,-0.47 q -8.86,1.73 -16.83,5.99 a 0.84,0.84 0 0 0 -0.44,0.74 v 17.68 a 0.41,0.41 0 0 0 0.54,0.39 c 8.53,-2.77 17.73,-7.23 27.67,-7.93 a 0.65,0.64 79.6 0 1 0.65,0.46 c 0.9,2.9 -2.46,5.7 -4.4,7.35 l -4.71,4.04 -0.97,-1.7 A 0.75,0.75 0 0 0 132,170.97 q -9.18,1.57 -17.74,5.3 a 0.49,0.49 0 0 0 -0.27,0.6 q 2.51,7.17 2.22,14.88 -0.02,4.51 -1.48,8.73 a 0.39,0.39 0 0 0 0.33,0.52 q 2.28,0.21 4.44,-0.54 l 5.5,-1.75 q 12.05,-4.31 22.98,-10.19 a 1.92,1.91 76 0 0 1.01,-1.69 l -0.03,-14.33 c 0.06,-5.54 0.16,-11.06 -0.21,-16.59 -0.4,-6.08 4.83,-10.04 9.3,-12.83 a 0.45,0.44 -27.3 0 1 0.65,0.2 q 5.14,12.04 11.36,23.55 a 0.33,0.33 0 0 0 0.55,0.04 c 6.43,-8.49 15.53,-20.97 23.93,-25.78 a 0.45,0.45 0 0 1 0.61,0.17 c 0.31,0.55 -3.39,5.42 -3.94,6.14 q -1.06,1.4 0.41,0.43 l 1.18,-0.78 a 0.35,0.35 0 0 1 0.43,0.04 l 0.18,0.19 a 0.5,0.49 -61.8 0 1 0.13,0.46 q -2.64,12.02 -4.6,24.17 c -1.35,8.39 -0.93,16.94 -0.92,25.56 q 0,2.1 1.96,1.35 c 1.86,-0.71 4.34,-20.11 4.71,-23.81 1.46,-14.66 6.44,-29.89 18.6,-38.69 7.25,-5.25 17.23,0.38 21.5,6.52 a 0.36,0.35 46 0 0 0.58,0.02 q 9.49,-12.58 25.43,-13.4 2.65,-0.13 2.96,2.5 c 1.16,10.08 -2.3,19.64 -6.3,30.54 z m -17.42,-4.75 q -0.09,13.1 0.18,26.18 0.02,0.69 0.05,0.74 0.49,0.97 0.99,0.01 3.77,-7.27 6.45,-14.68 c 3.54,-8.87 7.74,-20.68 5.68,-30.26 a 0.62,0.62 0 0 0 -0.62,-0.49 c -5.36,0.07 -12.45,1.25 -16.16,5.57 a 1.59,1.58 -30.1 0 0 -0.35,1.3 l 1.04,5.66 a 0.49,0.48 71.2 0 0 0.7,0.35 l 1.52,-0.78 a 0.33,0.33 0 0 1 0.42,0.11 c 0.25,0.38 0.08,5.43 0.1,6.29 z m -28.54,34.54 q 3.76,1.66 7.35,0 a 1.66,1.63 -86.4 0 0 0.71,-0.64 q 5.98,-10.36 6.4,-22.4 c 0.95,-5.3 1.69,-11.54 -1.09,-16.29 q -4.42,-7.56 -13.88,-8.71 a 0.72,0.7 16.5 0 0 -0.72,0.38 q -1.75,3.58 -2.75,9.12 -2.82,15.67 -2.53,28.75 0.06,2.59 3.27,4.21 a 0.55,0.55 0 0 1 0.21,0.8 l -1.07,1.62 a 0.75,0.75 0 0 0 -0.01,0.79 q 1.34,2.23 4.11,2.37 z m -38.87,-22.44 c 0.57,1.91 5.07,4.7 6.6,5.18 a 0.45,0.45 0 0 0 0.57,-0.34 l 3.81,-18.16 q 0.23,-1.09 -0.47,-0.22 l -10.37,12.81 a 0.82,0.78 57.1 0 0 -0.14,0.73 z m -12.96,9.93 c 1.93,-0.56 0.79,-3.55 -0.05,-4.46 q -0.63,-0.68 -0.63,0.25 l 0.01,3.71 a 0.52,0.52 0 0 0 0.67,0.5 z m 85.91,42.07 3.63,-1.06 q 3.05,-0.91 3.81,-3.99 2.84,-11.51 -2.13,-22.19 -0.29,-0.61 -0.6,-0.03 -6.23,11.31 -8.42,23.97 -0.8,4.64 3.71,3.3 z"
         inkscape:connector-curvature="0"
         style="fill:#0a0a0a" />
      <path
         id="path23117"
         d="m 378.71,194.75 -5,4.25 -1.42,0.75 c -4.92,-4.08 -5.94,-8.63 -8.36,-14.18 a 0.69,0.69 0 0 0 -0.7,-0.41 q -8.04,0.87 -15.93,0.52 l -0.8,0.11 -3.83,0.03 a 0.69,0.68 89.2 0 0 -0.68,0.71 l 0.11,2.78 a 1.05,1.04 12.5 0 0 0.58,0.9 q 4.33,2.18 8.29,-0.18 a 0.54,0.53 61.2 0 1 0.75,0.22 c 0.9,1.86 -7.91,9.24 -9.47,10.29 q -3.88,1.19 -7.83,0.11 -2.89,-0.79 -2.54,-3.77 l 1.04,-8.83 q 0.28,-2.33 -2.07,-2.31 l -3.19,0.02 a 0.56,0.55 3.5 0 0 -0.55,0.48 l -0.61,4.46 a 0.8,0.8 0 0 0 0.48,0.85 l 1.15,0.5 a 1.12,1.12 0 0 1 0.44,1.71 q -3.81,4.91 -9.14,8.14 a 1.13,1.11 36.6 0 1 -0.88,0.12 q -2.43,-0.65 -2.09,-3.52 c 0.97,-13.69 5.48,-23.76 10.05,-36.12 q 0.16,-0.44 -0.27,-0.26 l -10.76,4.38 a 0.72,0.71 -11 0 0 -0.45,0.66 q -0.11,17.77 0.02,28.02 0.02,1.58 0.74,3.32 l -6.54,6.96 q -1.4,1.29 -2.76,1.74 a 1.08,1.07 79.6 0 1 -1.41,-0.98 l -0.38,-9.51 q -0.03,-0.67 -0.53,-0.22 l -5.16,4.69 a 1.64,1.64 0 0 1 -2.48,-0.32 c -3.94,-6.07 -4.97,-12.34 -6.84,-19.47 a 0.51,0.5 -13.9 0 0 -0.61,-0.36 q -7.63,1.98 -15.33,1.93 0.55,-4.58 2.23,-8.1 0.97,-2.04 -1.28,-2.03 l -4.64,0.01 c 2.27,-5.81 15.68,-35.03 22.61,-33.53 a 0.52,0.51 -66.3 0 1 0.31,0.81 l -3.87,5.35 q -0.71,0.99 0.27,0.27 l 5.16,-3.72 a 0.89,0.89 0 0 1 1.4,0.62 l 2.25,18.73 q 0.09,0.68 0.64,0.27 l 5.23,-3.97 a 1.17,1.16 -19.7 0 0 0.45,-0.94 c -0.07,-3.53 -0.66,-8.97 1.46,-11.94 q 3.16,-4.42 8.18,-6.8 a 0.59,0.59 0 0 1 0.84,0.53 l 0.02,17.73 a 0.68,0.67 8.9 0 0 0.47,0.64 q 0.88,0.29 1.77,0.07 l 4.75,-0.25 4.5,-1 q 3.25,-0.88 4.5,-3.92 c 2.24,-4.95 9.79,-16.92 16.03,-16.8 a 1.52,1.52 0 0 1 1.43,1.92 c -1.96,7.2 -7.13,12.19 -12.16,17.39 q -0.26,0.27 -0.34,1.2 -4.76,10.99 -7.97,22.52 a 0.5,0.5 0 0 0 0.12,0.47 l 0.21,0.22 a 0.49,0.49 0 0 0 0.72,0 q 2.9,-3.14 7.11,-2.71 a 0.59,0.58 -79.5 0 0 0.62,-0.43 l 0.7,-2.72 c 6.85,-13.24 13.04,-28.22 26.49,-37.23 2.12,-1.42 4.46,-0.97 6.54,-3.34 a 0.73,0.73 0 0 1 0.82,-0.2 q 0.74,0.3 0.72,1.17 -0.33,19.27 0.89,38.95 0.15,2.5 2.63,2.83 c 0.69,0.1 3.02,-1.56 4.14,-0.91 a 0.83,0.83 0 0 1 0.19,1.29 l -3.22,3.39 q -1.87,1.96 -0.32,4.18 l 5.08,7.31 a 0.69,0.69 0 0 1 -0.01,0.79 z m -17.27,-53.56 q -1.83,1.3 -3.06,3.21 -8.97,13.89 -14.29,29.63 -0.66,1.97 1.41,1.97 h 16.25 a 0.47,0.47 0 0 0 0.47,-0.49 q -0.53,-17.33 0,-34.65 0.02,-0.51 -0.43,-0.27 -0.29,0.16 -0.35,0.6 z m -75.4,11.29 a 0.4,0.4 0 0 0 -0.76,-0.11 l -8.33,20.08 a 0.4,0.4 0 0 0 0.37,0.55 h 10.77 a 0.4,0.4 0 0 0 0.4,-0.45 z m 16.97,17.5 -2.64,3.15 a 1.08,1.06 59.3 0 0 -0.22,0.89 c 0.36,1.77 2.95,12.98 4.08,13.56 a 0.38,0.37 13.9 0 0 0.55,-0.33 l -0.1,-19.53 a 0.66,0.66 0 0 0 -0.65,-0.66 l -4.4,-0.08 a 0.62,0.62 0 0 0 -0.64,0.64 l 0.05,1.92 q 0.05,1.94 1.34,0.49 0.9,-1.03 2.2,-1 1.2,0.03 0.43,0.95 z"
         inkscape:connector-curvature="0"
         style="fill:#0a0a0a" />
      <path
         id="path23119"
         d="m 379.71,212.75 q -5.63,9.86 -10.75,20.02 -3.36,6.66 -7.75,8.96 -3.69,1.93 -1.74,-1.74 l 20.45,-38.72 13.96,-25.83 a 0.86,0.85 -46.8 0 0 -0.02,-0.86 q -8.5,-13.87 -11.72,-24.77 c -1.4,-4.72 5.02,-9.79 8.83,-11.58 a 0.47,0.46 69.5 0 1 0.65,0.3 q 2.99,10.81 8.78,20.5 1.15,1.92 2.05,-0.13 3.91,-9 8.01,-17.16 c 0.59,-1.16 5.9,-7.26 8.17,-6.79 a 0.68,0.68 0 0 1 0.48,0.94 q -6.27,14.08 -13.38,27.36 -1.46,2.73 0.14,4.82 9.42,12.32 21.6,21.13 a 1.27,1.26 36.5 0 1 0.27,1.79 q -3.67,4.81 -8.78,8.06 A 0.91,0.91 0 0 1 417.93,199 q -11.27,-8.56 -20.22,-19.54 a 0.25,0.25 0 0 0 -0.42,0.04 z"
         inkscape:connector-curvature="0"
         style="fill:#0a0a0a" />
      <path
         id="path23121"
         d="m 247.71,170 q -0.51,0.02 -0.85,-0.37 a 0.87,0.85 -54.5 0 1 -0.14,-0.9 q 1.72,-4.15 -0.71,-7.83 -0.87,-1.31 -1.26,0.2 l -0.88,3.35 a 0.42,0.41 6.5 0 1 -0.39,0.3 l -0.34,0.01 a 0.44,0.43 -1.4 0 1 -0.44,-0.41 c -0.1,-2.18 1.78,-7.83 -2.66,-6.6 -0.02,-0.86 0.15,-5.91 -0.1,-6.29 a 0.33,0.33 0 0 0 -0.42,-0.11 l -1.52,0.78 a 0.49,0.48 71.2 0 1 -0.7,-0.35 l -1.04,-5.66 a 1.59,1.58 -30.1 0 1 0.35,-1.3 c 3.71,-4.32 10.8,-5.5 16.16,-5.57 a 0.62,0.62 0 0 1 0.62,0.49 c 2.06,9.58 -2.14,21.39 -5.68,30.26 z"
         inkscape:connector-curvature="0"
         style="fill:#ffffff" />
      <path
         id="path23123"
         d="m 361.44,141.19 q 0.06,-0.44 0.35,-0.6 0.45,-0.24 0.43,0.27 -0.53,17.32 0,34.65 A 0.47,0.47 0 0 1 361.75,176 H 345.5 q -2.07,0 -1.41,-1.97 5.32,-15.74 14.29,-29.63 1.23,-1.91 3.06,-3.21 z"
         inkscape:connector-curvature="0"
         style="fill:#ffffff" />
      <path
         id="path23125"
         d="m 225.96,169.25 -4.57,4.7 a 1.38,1.34 69.4 0 0 -0.38,0.87 q -0.05,0.85 -0.5,1.54 a 0.26,0.26 0 0 1 -0.44,-0.01 l -0.25,-0.43 a 0.63,0.63 0 0 0 -0.78,-0.25 c -6.9,2.93 -5.28,10.49 -7.54,16.62 q -2.77,-0.14 -4.11,-2.37 a 0.75,0.75 0 0 1 0.01,-0.79 l 1.07,-1.62 a 0.55,0.55 0 0 0 -0.21,-0.8 q -3.21,-1.62 -3.27,-4.21 -0.29,-13.08 2.53,-28.75 1,-5.54 2.75,-9.12 a 0.72,0.7 16.5 0 1 0.72,-0.38 q 9.46,1.15 13.88,8.71 c 2.78,4.75 2.04,10.99 1.09,16.29 z"
         inkscape:connector-curvature="0"
         style="fill:#ffffff" />
      <path
         id="path23127"
         d="m 322,156.71 -4.75,0.25 c -0.12,-1.77 0.37,-8.8 2.94,-9.39 a 0.64,0.64 0 0 1 0.74,0.41 q 0.51,1.47 0.15,2.93 -0.12,0.49 -0.02,0.98 z"
         inkscape:connector-curvature="0"
         style="fill:#d1d1d1" />
      <path
         id="path23129"
         d="m 331,151.79 q -1.25,3.04 -4.5,3.92 c -0.59,-1.72 -0.29,-7.58 2.72,-6.61 a 0.57,0.57 0 0 1 0.38,0.66 l -0.33,1.41 a 0.45,0.45 0 0 0 0.42,0.55 z"
         inkscape:connector-curvature="0"
         style="fill:#d1d1d1" />
      <path
         id="path23131"
         d="m 286.04,152.48 2.45,20.07 a 0.4,0.4 0 0 1 -0.4,0.45 h -10.77 a 0.4,0.4 0 0 1 -0.37,-0.55 l 8.33,-20.08 a 0.4,0.4 0 0 1 0.76,0.11 z"
         inkscape:connector-curvature="0"
         style="fill:#d1d1d1" />
      <path
         id="path23133"
         d="m 335.96,155.5 0.61,1.95 q 0.15,0.47 0.09,0.96 -0.87,7.22 0.81,14.44 l -0.7,2.72 a 0.59,0.58 -79.5 0 1 -0.62,0.43 q -4.21,-0.43 -7.11,2.71 a 0.49,0.49 0 0 1 -0.72,0 l -0.21,-0.22 a 0.5,0.5 0 0 1 -0.12,-0.47 q 3.21,-11.53 7.97,-22.52 z"
         inkscape:connector-curvature="0"
         style="fill:#d1d1d1" />
      <path
         id="path23135"
         d="m 179.23,175.03 c -1.53,-0.48 -6.03,-3.27 -6.6,-5.18 a 0.82,0.78 57.1 0 1 0.14,-0.73 l 10.37,-12.81 q 0.7,-0.87 0.47,0.22 l -3.81,18.16 a 0.45,0.45 0 0 1 -0.57,0.34 z"
         inkscape:connector-curvature="0"
         style="fill:#ffffff" />
      <path
         id="path23137"
         d="m 240.04,157.75 c 4.44,-1.23 2.56,4.42 2.66,6.6 a 0.44,0.43 -1.4 0 0 0.44,0.41 l 0.34,-0.01 a 0.42,0.41 6.5 0 0 0.39,-0.3 l 0.88,-3.35 q 0.39,-1.51 1.26,-0.2 2.43,3.68 0.71,7.83 a 0.87,0.85 -54.5 0 0 0.14,0.9 q 0.34,0.39 0.85,0.37 -2.68,7.41 -6.45,14.68 -0.5,0.96 -0.99,-0.01 -0.03,-0.05 -0.05,-0.74 -0.27,-13.08 -0.18,-26.18 z"
         inkscape:connector-curvature="0"
         style="fill:#d1d1d1" />
      <path
         id="path23139"
         d="m 316.46,198.5 h -0.67 q -0.72,-1.74 -0.74,-3.32 -0.13,-10.25 -0.02,-28.02 a 0.72,0.71 -11 0 1 0.45,-0.66 l 10.76,-4.38 q 0.43,-0.18 0.27,0.26 c -4.57,12.36 -9.08,22.43 -10.05,36.12 z"
         inkscape:connector-curvature="0"
         style="fill:#d1d1d1" />
      <path
         id="path23141"
         d="m 257.46,162.5 c 2.98,3.88 -0.53,12.37 3.53,14.09 a 0.74,0.73 -80 0 1 0.45,0.65 q 0.05,0.82 1.06,0.8 l -2.31,3.41 a 0.83,0.82 47.9 0 0 -0.04,0.87 c 0.61,1.08 3.8,0.57 5.07,0.83 a 0.5,0.5 0 0 1 0.38,0.65 l -2.01,6.04 q -0.19,0.57 -0.48,0.05 l -3.15,-5.57 A 2.61,2.61 0 0 0 257.69,183 h -8.92 a 0.46,0.45 -76.1 0 1 -0.4,-0.67 q 5.08,-9.74 9.09,-19.83 z"
         inkscape:connector-curvature="0"
         style="fill:#d1d1d1" />
      <path
         id="path23143"
         d="m 302.58,169.03 q -1.3,-0.03 -2.2,1 -1.29,1.45 -1.34,-0.49 l -0.05,-1.92 a 0.62,0.62 0 0 1 0.64,-0.64 l 4.4,0.08 a 0.66,0.66 0 0 1 0.65,0.66 l 0.1,19.53 a 0.38,0.37 13.9 0 1 -0.55,0.33 c -1.13,-0.58 -3.72,-11.79 -4.08,-13.56 a 1.08,1.06 59.3 0 1 0.22,-0.89 l 2.64,-3.15 q 0.77,-0.92 -0.43,-0.95 z"
         inkscape:connector-curvature="0"
         style="fill:#d1d1d1" />
      <path
         id="path23145"
         d="m 138.46,169 c 4.17,3.28 -0.92,6.35 1.12,7.36 a 0.73,0.72 -57.2 0 0 0.89,-0.2 q 0.37,-0.47 0.91,-0.73 a 1.26,1.22 -1.8 0 0 0.58,-0.6 c 0.47,-1.07 2.57,-3.96 3.96,-2.37 a 0.75,0.74 33.6 0 1 0.15,0.72 q -0.4,1.2 -0.13,2.36 0.36,1.59 0.66,-0.01 0.42,-2.2 2.36,-3.03 l 0.03,14.33 a 1.92,1.91 76 0 1 -1.01,1.69 Q 137.05,194.4 125,198.71 c 0.26,-5.32 2.2,-9.74 2.84,-14.85 0.37,-3.01 0.66,-7.45 3.47,-9.14 a 0.5,0.5 0 0 1 0.75,0.33 l 0.38,1.97 q 0.11,0.51 0.44,0.11 1.57,-1.85 0.87,-4.09 z"
         inkscape:connector-curvature="0"
         style="fill:#d1d1d1" />
      <path
         id="path23147"
         d="m 225.96,169.25 q -0.42,12.04 -6.4,22.4 a 1.66,1.63 -86.4 0 1 -0.71,0.64 q -3.59,1.66 -7.35,0 c 2.26,-6.13 0.64,-13.69 7.54,-16.62 a 0.63,0.63 0 0 1 0.78,0.25 l 0.25,0.43 a 0.26,0.26 0 0 0 0.44,0.01 q 0.45,-0.69 0.5,-1.54 a 1.38,1.34 69.4 0 1 0.38,-0.87 z"
         inkscape:connector-curvature="0"
         style="fill:#d1d1d1" />
      <path
         id="path23149"
         d="m 133.75,173.04 q 0.7,2.24 -0.87,4.09 -0.33,0.4 -0.44,-0.11 l -0.38,-1.97 a 0.5,0.5 0 0 0 -0.75,-0.33 c -2.81,1.69 -3.1,6.13 -3.47,9.14 -0.64,5.11 -2.58,9.53 -2.84,14.85 l -5.5,1.75 q 4.03,-10.24 6.17,-21.06 a 0.53,0.53 0 0 0 -0.43,-0.62 c -1.67,-0.25 -6.59,10.63 -6.09,12.32 a 0.57,0.55 -20.1 0 1 -0.32,0.67 q -1.32,0.57 -2.62,-0.02 0.29,-7.71 -2.22,-14.88 a 0.49,0.49 0 0 1 0.27,-0.6 q 8.56,-3.73 17.74,-5.3 a 0.75,0.75 0 0 1 0.78,0.37 z"
         inkscape:connector-curvature="0"
         style="fill:#ffffff" />
      <path
         id="path23151"
         d="m 159.62,175.32 c 0.84,0.91 1.98,3.9 0.05,4.46 a 0.52,0.52 0 0 1 -0.67,-0.5 l -0.01,-3.71 q 0,-0.93 0.63,-0.25 z"
         inkscape:connector-curvature="0"
         style="fill:#ffffff" />
      <path
         id="path23153"
         d="m 119.5,200.46 q -2.16,0.75 -4.44,0.54 a 0.39,0.39 0 0 1 -0.33,-0.52 q 1.46,-4.22 1.48,-8.73 1.3,0.59 2.62,0.02 a 0.57,0.55 -20.1 0 0 0.32,-0.67 c -0.5,-1.69 4.42,-12.57 6.09,-12.32 a 0.53,0.53 0 0 1 0.43,0.62 q -2.14,10.82 -6.17,21.06 z"
         inkscape:connector-curvature="0"
         style="fill:#d1d1d1" />
      <path
         id="path23155"
         d="m 177.79,189.63 q -1.58,2.08 -3.06,4.24 -0.79,1.14 -1.35,3.46 -0.57,2.33 -2.18,4.3 -0.33,0.41 -0.23,-0.11 l 3.6,-17.74 3.88,-3.83 q 0.75,-0.75 0.61,0.31 z"
         inkscape:connector-curvature="0"
         style="fill:#ffffff" />
      <path
         id="path23157"
         d="m 309.25,205.46 q 0.5,-0.08 0.82,0.24 a 0.73,0.72 -49.5 0 1 0.07,0.95 l -0.59,0.82 a 0.81,0.77 56.7 0 0 -0.13,0.7 l 1.46,5.24 a 1.27,1.26 -35.2 0 1 -0.19,1.09 l -3.58,4.89 a 1.05,1.02 57.2 0 0 -0.17,0.85 c 0.4,1.64 1.05,11.57 -0.91,11.79 a 0.48,0.47 -3.9 0 1 -0.53,-0.46 q -0.11,-6.06 0.95,-12.01 a 0.88,0.86 26.4 0 0 -0.28,-0.81 c -1.92,-1.72 -3.87,1.77 -4.45,3.3 -1.06,2.81 -2.58,4.61 -4.16,6.92 q -0.64,0.94 -0.62,-0.19 c 0.06,-2.87 1.62,-5.15 2.06,-7.35 q 1.24,-6.12 -0.48,-12.14 -0.16,-0.56 -0.48,-0.07 -3.72,5.67 -3.22,12.58 a 0.12,0.11 77 0 1 -0.07,0.12 l -0.28,0.09 a 0.26,0.26 0 0 1 -0.34,-0.21 q -0.96,-6.29 -0.09,-12.56 a 3.13,3.1 28.1 0 0 -0.78,-2.54 l -2.59,-2.83 a 0.36,0.36 0 0 0 -0.6,0.12 l -0.56,1.6 a 0.75,0.75 0 0 1 -0.93,0.47 q -1.59,-0.49 -2.66,-1.8 a 0.81,0.8 60.4 0 0 -0.89,-0.25 l -1.13,0.38 a 0.44,0.44 0 0 1 -0.54,-0.21 l -2.18,-4.19 a 1.54,1.51 36.5 0 1 -0.16,-1.01 c 0.48,-2.66 3.23,-10.94 2.07,-12.97 A 0.88,0.87 45.3 0 0 281.58,186 q -0.99,1.67 -0.23,3.38 a 1.41,1.4 -46.2 0 1 0.02,1.07 l -2.73,7.16 a 1.26,1.25 -75.2 0 1 -1.37,0.8 q -2.96,-0.48 -3.81,-3.16 l 5.57,-8.57 q 0.85,-1.31 -0.62,-0.77 -3.87,1.4 -6.35,4.72 -0.67,0.89 -0.8,-0.22 -0.19,-1.69 0.7,-3.41 l 1.25,0.44 a 0.67,0.66 25.4 0 0 0.79,-0.28 c 0.76,-1.22 1.74,-3.46 -0.5,-3.95 l 0.25,-0.25 q 7.7,0.05 15.33,-1.93 a 0.51,0.5 -13.9 0 1 0.61,0.36 c 1.87,7.13 2.9,13.4 6.84,19.47 a 1.64,1.64 0 0 0 2.48,0.32 l 5.16,-4.69 q 0.5,-0.45 0.53,0.22 l 0.38,9.51 a 1.08,1.07 79.6 0 0 1.41,0.98 q 1.36,-0.45 2.76,-1.74 z"
         inkscape:connector-curvature="0"
         style="fill:#d1d1d1" />
      <path
         id="path23159"
         d="m 174.57,183.78 -3.6,17.74 q -0.1,0.52 0.23,0.11 1.61,-1.97 2.18,-4.3 0.56,-2.32 1.35,-3.46 1.48,-2.16 3.06,-4.24 -0.01,5.44 -0.07,10.65 c -0.04,3.84 -0.99,7.88 3.53,9.43 q -0.19,2.62 -0.9,5.09 c -1.34,4.59 -2.02,7.96 -2.84,12.08 a 0.55,0.54 -77.8 0 0 0.4,0.64 c 0.51,0.12 0.77,-0.26 0.91,-0.73 q 2.4,-8.37 4.52,-16.66 3.61,-1.14 6.95,-3.94 l -0.02,9.81 a 1.28,1.27 24 0 0 0.35,0.9 q 1.74,1.84 1.61,4.51 a 0.82,0.8 -17.7 0 1 -0.32,0.6 l -1.24,0.92 a 0.71,0.71 0 0 0 -0.21,0.88 c 2.63,5.29 0.93,8.74 0.37,13.65 a 0.5,0.5 0 0 0 0.38,0.54 c 1.3,0.31 2.07,-3.44 2.19,-4.24 q 0.25,-1.8 0.35,0.02 l 0.1,1.76 q 0.07,1.21 0.71,0.19 l 1.9,-2.98 c 0.44,1.75 1.91,4.03 0.54,5.58 a 0.63,0.62 -56.9 0 1 -0.73,0.16 l -1.58,-0.72 a 0.45,0.45 0 0 0 -0.64,0.4 c -0.1,2.9 -2.19,6.79 0.14,9.83 h -7.5 q 0.58,-1.3 0.48,-2.81 a 0.73,0.72 75.6 0 1 0.41,-0.7 c 1.47,-0.72 2.37,-2.75 0.76,-3.96 a 0.82,0.82 0 0 1 -0.33,-0.81 q 0.1,-0.56 -0.35,-0.98 -0.68,-0.64 -0.67,0.29 l 0.02,1.1 q 0.03,1.3 -0.85,0.34 -0.69,-0.74 -0.95,-1.79 -0.22,-0.92 -0.77,-0.15 l -0.35,0.49 a 1.04,1.03 55.9 0 0 -0.16,0.86 q 0.75,2.87 -0.26,5.62 a 0.39,0.39 0 0 1 -0.38,0.25 h -0.26 a 0.3,0.3 0 0 1 -0.29,-0.34 l 0.3,-2.28 a 1.25,1.22 28.8 0 0 -0.29,-0.96 q -1.71,-1.98 -1.18,-4.6 0.27,-1.31 -0.67,-0.36 l -0.76,0.77 a 0.89,0.88 -31.3 0 0 -0.22,0.89 q 0.58,1.97 -0.77,3.13 a 0.65,0.65 0 0 1 -0.93,-0.09 q -2.88,-3.63 -3.79,-8.2 -0.15,-0.79 -0.26,0 c -0.04,0.3 -0.35,6.23 -0.6,6.3 a 0.53,0.52 74.3 0 1 -0.63,-0.36 l -0.21,-0.66 a 0.41,0.41 0 0 0 -0.68,-0.17 l -0.55,0.55 a 1.43,1.42 70.5 0 0 -0.41,0.87 l -0.31,3.47 a 0.37,0.37 0 0 1 -0.55,0.29 l -0.25,-0.15 a 0.62,0.61 27.1 0 1 -0.26,-0.78 q 1.09,-2.52 -0.95,-3.76 a 0.5,0.49 -72.3 0 0 -0.75,0.39 l -0.53,7.06 a 0.47,0.47 0 0 1 -0.68,0.39 c -0.46,-0.22 -1.15,-5.63 -1.43,-6.62 a 0.44,0.44 0 0 0 -0.59,-0.28 q -3.27,1.39 -3.32,4.86 a 1.63,1.58 -30 0 1 -0.24,0.84 l -0.74,1.19 q -0.36,0.57 0.32,0.54 0.67,-0.03 1.13,0.32 l -29,-0.12 q -3.82,-15.09 -9.92,-29.41 c -0.84,-1.96 -0.85,-5.77 -2.53,-6.92 a 0.42,0.41 -61.5 0 0 -0.62,0.19 q -3.65,9.08 -4.7,18.82 -0.03,0.24 -0.13,0.39 -0.13,0.18 -0.31,0.3 A 0.44,0.44 0 0 1 114.04,231 l -0.22,-0.87 a 0.65,0.63 -12.9 0 0 -0.75,-0.46 q -1.9,0.39 -1.85,2.21 a 0.44,0.44 0 0 0 0.47,0.43 l 1.02,-0.08 q 0.79,-0.05 0.44,0.65 l -3.07,6.26 a 1.7,1.66 53.6 0 0 -0.15,1.08 l 1,5.62 a 0.64,0.64 0 0 1 -0.68,0.75 q -1.99,-0.17 -2.81,1.41 h -39.5 l -4.79,-0.71 a 0.93,0.92 -7 0 1 -0.7,-0.54 c -1.34,-3.17 -4.04,-9.39 -2.14,-12.84 a 1.16,1.15 -40.9 0 0 0.07,-0.95 q -1.03,-2.89 0.94,-4.9 a 1.62,1.61 71.3 0 0 0.46,-0.94 c 0.44,-3.32 2.26,-5.71 2.92,-8.75 q 0.57,-2.62 1.5,-5.11 0.16,-0.42 0.33,-0.01 l 2.88,6.73 q 0.75,1.75 0.7,-0.15 l -0.21,-7.54 q -0.02,-0.88 0.67,-0.33 c 2.33,1.87 3.78,10.33 5.29,10.32 a 0.46,0.46 0 0 0 0.44,-0.55 c -1.03,-5.11 -3.12,-7.62 -2.78,-13.17 a 0.62,0.61 89.5 0 1 0.55,-0.57 q 1.31,-0.13 2.03,0.99 a 1.04,1.01 -14.3 0 0 0.81,0.47 q 4.22,0.25 4.5,4.37 0.21,3.01 2.92,1.7 c 5.41,-2.6 2.59,-9.49 4.31,-9.92 a 0.49,0.49 0 0 1 0.6,0.36 l 0.31,1.3 a 1.15,1.13 -84.6 0 0 0.63,0.77 l 3.11,1.43 a 0.67,0.67 0 0 0 0.8,-0.18 l 0.41,-0.5 a 1.11,1.08 -33.7 0 0 0.21,-1 q -0.57,-2.08 0.22,-4.1 a 0.6,0.6 0 0 1 0.64,-0.38 c 1.47,0.19 1.99,3.09 2.45,4.09 a 0.42,0.41 -31.6 0 0 0.64,0.15 c 1.87,-1.52 0.21,-2.9 0.11,-4.52 a 0.72,0.7 78.4 0 1 0.46,-0.71 c 1.82,-0.65 4.08,5.58 4.57,6.91 a 0.83,0.83 0 0 0 0.73,0.54 l 0.47,0.03 c -0.05,2.28 5.73,0.79 7,0.5 q 0.77,2.57 2.64,4.38 0.37,0.36 0.46,-0.15 0.42,-2.56 -1.1,-4.81 c 10.95,-4.07 26.52,-9.75 33.94,-16.9 q 1.15,-1.12 1.09,0.49 -0.26,6.66 1.24,13.06 0.54,2.32 2.6,1.12 4.85,-2.84 7.89,-7.47 a 1.93,1.91 -41.6 0 0 0.12,-1.88 q -2.77,-5.71 -1.17,-11.63 0.71,0.81 1.7,1.26 a 0.4,0.4 0 0 0 0.53,-0.21 l 1.17,-2.77 a 0.6,0.59 -63.5 0 0 -0.24,-0.74 q -0.32,-0.2 -0.87,-0.08 l 1.62,-1.88 a 0.6,0.59 36.9 0 1 0.78,-0.11 c 3.85,2.53 6.07,4.48 10.17,1.81 z m -94.8894,33.4203 a 2.48,0.87 65.7 0 0 -0.2277,-2.6183 2.48,0.87 65.7 0 0 -1.8135,-1.9023 2.48,0.87 65.7 0 0 0.2277,2.6183 2.48,0.87 65.7 0 0 1.8135,1.9023 z M 190.4,230.47 a 0.22,0.21 -48.4 0 0 0.27,-0.02 l 0.21,-0.2 a 0.39,0.39 0 0 0 0.09,-0.45 l -0.98,-2.22 q -0.44,-0.98 -0.69,0.06 -0.42,1.74 1.1,2.83 z"
         inkscape:connector-curvature="0"
         style="fill:#d1d1d1" />
      <path
         id="path23161"
         d="m 273.5,183.21 c 2.24,0.49 1.26,2.73 0.5,3.95 a 0.67,0.66 25.4 0 1 -0.79,0.28 L 271.96,187 q 0.16,-2.17 1.54,-3.79 z"
         inkscape:connector-curvature="0"
         style="fill:#ffffff" />
      <path
         id="path23163"
         d="m 162,183.96 q 0.55,-0.12 0.87,0.08 a 0.6,0.59 -63.5 0 1 0.24,0.74 l -1.17,2.77 a 0.4,0.4 0 0 1 -0.53,0.21 q -0.99,-0.45 -1.7,-1.26 0.77,-1.61 2.29,-2.54 z"
         inkscape:connector-curvature="0"
         style="fill:#ffffff" />
      <path
         id="path23165"
         d="m 237.96,231.5 c 1.02,5.58 0.92,10.97 2.23,16.5 h -17 q 0.97,-0.22 0.87,-0.54 -1.12,-3.43 -1.98,-6.98 a 1.24,1.23 7.7 0 0 -0.59,-0.77 q -2.93,-1.66 -4.13,-4.88 a 1.02,1.01 -1.1 0 0 -0.66,-0.63 l -1.07,-0.34 a 0.72,0.72 0 0 1 -0.49,-0.59 q -0.22,-1.77 -1.78,-2.06 a 0.56,0.56 0 0 0 -0.65,0.66 q 0.93,4.8 -1.79,8.83 a 0.54,0.53 -45.9 0 1 -0.87,0.02 q -1.1,-1.52 -2.76,-0.93 a 0.88,0.86 55.9 0 1 -0.85,-0.17 c -1.13,-0.99 -3.63,-5.82 -5.03,-4.43 q -0.49,0.49 -0.48,-0.2 l 0.08,-3.41 q 0.01,-0.63 -0.52,-0.29 l -0.86,0.55 q -0.51,0.32 -0.41,-0.27 l 0.27,-1.67 a 0.58,0.58 0 0 0 -0.43,-0.65 q -0.55,-0.15 -1.02,0.25 l -0.37,-0.3 a 0.82,0.79 -69.4 0 1 -0.3,-0.69 l 0.18,-3.14 q 0.03,-0.48 0.28,-0.91 c 1.03,-1.79 0.44,-3.82 0.59,-5.31 0.66,-6.23 2.16,-10.74 4.08,-16.61 l 3.5,0.5 -0.6,0.31 a 0.36,0.36 0 0 0 -0.09,0.58 l 0.25,0.25 a 0.77,0.75 -59.7 0 1 0.19,0.77 l -4.16,13.61 a 0.35,0.34 -81.1 0 0 0.32,0.45 h 1.2 a 1.11,1.11 0 0 1 1.09,1.3 q -0.13,0.75 0.39,1.24 0.54,0.51 0.69,-0.21 c 1.31,-6.28 3.93,-10.96 3.73,-18.4 8.12,-2.93 16.03,-11.68 20.36,-18.93 q 0.63,-1.04 0.62,0.18 l -0.03,10.05 a 1.28,1.26 71.5 0 1 -0.47,0.97 c -2.37,1.94 -6.96,7.82 -5.54,10.97 a 1.59,1.58 61.7 0 0 2.3,0.69 q 7.97,-5.11 13.28,-11.53 c 2.33,-2.81 4.7,-3.38 7.99,-2.21 a 0.3,0.29 34.1 0 1 0.1,0.5 c -7.28,6.28 -10.86,15.36 -13.75,24.28 -1.28,3.96 -3.65,11.88 0.56,13.9 a 1.56,1.52 -36.5 0 0 0.95,0.13 z"
         inkscape:connector-curvature="0"
         style="fill:#d1d1d1" />
      <path
         id="path23167"
         d="m 372.29,199.75 q 0.65,4.53 -0.36,8.98 a 0.32,0.32 0 0 0 0.39,0.39 c 3.57,-0.86 2.32,-8.03 1.39,-10.12 l 5,-4.25 1.21,6.52 -20.45,38.72 q -1.95,3.67 1.74,1.74 4.39,-2.3 7.75,-8.96 5.12,-10.16 10.75,-20.02 l 0.41,0.31 a 0.85,0.83 24.4 0 1 0.32,0.83 q -1.3,6.98 -0.59,11.35 1.85,11.32 2.71,22.75 l -39.12,0.01 2,-0.42 a 0.51,0.51 0 0 0 0.4,-0.6 c -2.65,-13.84 -3.45,-26.3 -7.41,-41.22 q -0.22,-0.84 0.37,-2.37 a 0.58,0.57 -71.5 0 1 0.69,-0.35 c 2.76,0.77 1.19,5.1 1.82,7.44 q 0.15,0.54 0.35,0.02 c 0.78,-2.09 -0.64,-4.93 1.08,-6.44 a 0.8,0.79 61.7 0 0 0.24,-0.82 l -0.73,-2.7 c 1.56,-1.05 10.37,-8.43 9.47,-10.29 a 0.54,0.53 61.2 0 0 -0.75,-0.22 q -3.96,2.36 -8.29,0.18 a 1.05,1.04 12.5 0 1 -0.58,-0.9 l -0.11,-2.78 a 0.69,0.68 89.2 0 1 0.68,-0.71 l 3.83,-0.03 q -1.31,0.95 -0.59,2.51 a 0.65,0.64 -19.1 0 0 0.73,0.35 q 2.34,-0.55 0.66,-2.97 7.89,0.35 15.93,-0.52 a 0.69,0.69 0 0 1 0.7,0.41 c 2.42,5.55 3.44,10.1 8.36,14.18 z"
         inkscape:connector-curvature="0"
         style="fill:#d1d1d1" />
      <path
         id="path23169"
         d="m 342.25,200.54 0.73,2.7 a 0.8,0.79 61.7 0 1 -0.24,0.82 c -1.72,1.51 -0.3,4.35 -1.08,6.44 q -0.2,0.52 -0.35,-0.02 c -0.63,-2.34 0.94,-6.67 -1.82,-7.44 a 0.58,0.57 -71.5 0 0 -0.69,0.35 q -0.59,1.53 -0.37,2.37 c 3.96,14.92 4.76,27.38 7.41,41.22 a 0.51,0.51 0 0 1 -0.4,0.6 l -2,0.42 h -66.79 l -0.47,-6.35 a 0.43,0.41 89.2 0 0 -0.39,-0.39 l -0.29,-0.02 a 0.41,0.41 0 0 0 -0.44,0.44 l 0.39,5.52 a 0.5,0.5 0 0 1 -0.3,0.49 l -0.71,0.31 h -34.25 c -1.31,-5.53 -1.21,-10.92 -2.23,-16.5 q 16.24,-5.51 24.07,-20.63 c 0.91,-1.75 1.17,-5.8 2.54,-6.79 q 5.15,-3.7 8.89,-8.83 0.85,2.68 3.81,3.16 a 1.26,1.25 -75.2 0 0 1.37,-0.8 l 2.73,-7.16 a 1.41,1.4 -46.2 0 0 -0.02,-1.07 q -0.76,-1.71 0.23,-3.38 a 0.88,0.87 45.3 0 1 1.51,0.01 c 1.16,2.03 -1.59,10.31 -2.07,12.97 a 1.54,1.51 36.5 0 0 0.16,1.01 l 2.18,4.19 a 0.44,0.44 0 0 0 0.54,0.21 l 1.13,-0.38 a 0.81,0.8 60.4 0 1 0.89,0.25 q 1.07,1.31 2.66,1.8 a 0.75,0.75 0 0 0 0.93,-0.47 l 0.56,-1.6 a 0.36,0.36 0 0 1 0.6,-0.12 l 2.59,2.83 a 3.13,3.1 28.1 0 1 0.78,2.54 q -0.87,6.27 0.09,12.56 a 0.26,0.26 0 0 0 0.34,0.21 l 0.28,-0.09 a 0.12,0.11 77 0 0 0.07,-0.12 q -0.5,-6.91 3.22,-12.58 0.32,-0.49 0.48,0.07 1.72,6.02 0.48,12.14 c -0.44,2.2 -2,4.48 -2.06,7.35 q -0.02,1.13 0.62,0.19 c 1.58,-2.31 3.1,-4.11 4.16,-6.92 0.58,-1.53 2.53,-5.02 4.45,-3.3 a 0.88,0.86 26.4 0 1 0.28,0.81 q -1.06,5.95 -0.95,12.01 a 0.48,0.47 -3.9 0 0 0.53,0.46 c 1.96,-0.22 1.31,-10.15 0.91,-11.79 a 1.05,1.02 57.2 0 1 0.17,-0.85 l 3.58,-4.89 a 1.27,1.26 -35.2 0 0 0.19,-1.09 l -1.46,-5.24 a 0.81,0.77 56.7 0 1 0.13,-0.7 l 0.59,-0.82 a 0.73,0.72 -49.5 0 0 -0.07,-0.95 q -0.32,-0.32 -0.82,-0.24 l 6.54,-6.96 h 0.67 q -0.34,2.87 2.09,3.52 a 1.13,1.11 36.6 0 0 0.88,-0.12 q 5.33,-3.23 9.14,-8.14 a 1.12,1.12 0 0 0 -0.44,-1.71 l -1.15,-0.5 a 0.8,0.8 0 0 1 -0.48,-0.85 l 0.61,-4.46 a 0.56,0.55 3.5 0 1 0.55,-0.48 l 3.19,-0.02 q 2.35,-0.02 2.07,2.31 l -1.04,8.83 q -0.35,2.98 2.54,3.77 3.95,1.08 7.83,-0.11 z m -8.9592,43.3827 a 4.31,0.81 77.8 0 0 -0.1191,-4.3839 4.31,0.81 77.8 0 0 -1.7025,-4.0415 4.31,0.81 77.8 0 0 0.1191,4.3839 4.31,0.81 77.8 0 0 1.7025,4.0415 z"
         inkscape:connector-curvature="0"
         style="fill:#b4b4b4" />
      <path
         id="path23171"
         d="m 346.5,185.79 0.8,-0.11 q 1.68,2.42 -0.66,2.97 a 0.65,0.64 -19.1 0 1 -0.73,-0.35 q -0.72,-1.56 0.59,-2.51 z"
         inkscape:connector-curvature="0"
         style="fill:#ffffff" />
      <path
         id="path23173"
         d="m 245.58,221.85 q -4.51,1.34 -3.71,-3.3 2.19,-12.66 8.42,-23.97 0.31,-0.58 0.6,0.03 4.97,10.68 2.13,22.19 -0.76,3.08 -3.81,3.99 z"
         inkscape:connector-curvature="0"
         style="fill:#b4b4b4" />
      <path
         id="path23175"
         d="m 202.5,202.54 c -1.92,5.87 -3.42,10.38 -4.08,16.61 -0.15,1.49 0.44,3.52 -0.59,5.31 q -0.25,0.43 -0.28,0.91 l -0.18,3.14 a 0.82,0.79 -69.4 0 0 0.3,0.69 l 0.37,0.3 -1.58,3.25 -1.9,2.98 q -0.64,1.02 -0.71,-0.19 l -0.1,-1.76 q -0.1,-1.82 -0.35,-0.02 c -0.12,0.8 -0.89,4.55 -2.19,4.24 a 0.5,0.5 0 0 1 -0.38,-0.54 c 0.56,-4.91 2.26,-8.36 -0.37,-13.65 a 0.71,0.71 0 0 1 0.21,-0.88 l 1.24,-0.92 a 0.82,0.8 -17.7 0 0 0.32,-0.6 q 0.13,-2.67 -1.61,-4.51 a 1.28,1.27 24 0 1 -0.35,-0.9 l 0.02,-9.81 5.72,-6.73 a 0.47,0.46 -47.9 0 1 0.67,-0.04 q 2.48,2.32 5.82,3.12 z"
         inkscape:connector-curvature="0"
         style="fill:#ffffff" />
      <path
         id="path23177"
         d="m 373.71,199 c 0.93,2.09 2.18,9.26 -1.39,10.12 a 0.32,0.32 0 0 1 -0.39,-0.39 q 1.01,-4.45 0.36,-8.98 z"
         inkscape:connector-curvature="0"
         style="fill:#ffffff" />
      <path
         id="path23179"
         d="m 206,203.04 3.01,-0.1 c 0.2,7.44 -2.42,12.12 -3.73,18.4 q -0.15,0.72 -0.69,0.21 -0.52,-0.49 -0.39,-1.24 a 1.11,1.11 0 0 0 -1.09,-1.3 h -1.2 a 0.35,0.34 -81.1 0 1 -0.32,-0.45 l 4.16,-13.61 a 0.77,0.75 -59.7 0 0 -0.19,-0.77 l -0.25,-0.25 a 0.36,0.36 0 0 1 0.09,-0.58 z"
         inkscape:connector-curvature="0"
         style="fill:#ffffff" />
      <path
         id="path23181"
         d="m 114,209.71 q 1.52,2.25 1.1,4.81 -0.09,0.51 -0.46,0.15 -1.87,-1.81 -2.64,-4.38 z"
         inkscape:connector-curvature="0"
         style="fill:#ffffff" />
      <path
         id="path23183"
         d="m 181.25,209.71 2.09,0.42 q -2.12,8.29 -4.52,16.66 c -0.14,0.47 -0.4,0.85 -0.91,0.73 a 0.55,0.54 -77.8 0 1 -0.4,-0.64 c 0.82,-4.12 1.5,-7.49 2.84,-12.08 q 0.71,-2.47 0.9,-5.09 z"
         inkscape:connector-curvature="0"
         style="fill:#ffffff" />
      <path
         id="path23185"
         d="m 132.94,247.88 -5.23,0.17 q 0.13,-3.29 -1.73,-5.88 -0.46,-0.64 -0.68,0.11 -0.8,2.66 0.98,4.94 a 0.44,0.44 0 0 1 -0.05,0.59 q -0.12,0.11 -0.29,0.19 h -18.5 q 0.82,-1.58 2.81,-1.41 a 0.64,0.64 0 0 0 0.68,-0.75 l -1,-5.62 a 1.7,1.66 53.6 0 1 0.15,-1.08 l 3.07,-6.26 q 0.35,-0.7 -0.44,-0.65 l -1.02,0.08 a 0.44,0.44 0 0 1 -0.47,-0.43 q -0.05,-1.82 1.85,-2.21 a 0.65,0.63 -12.9 0 1 0.75,0.46 l 0.22,0.87 a 0.44,0.44 0 0 0 0.69,0.25 q 0.18,-0.12 0.31,-0.3 0.1,-0.15 0.13,-0.39 1.05,-9.74 4.7,-18.82 a 0.42,0.41 -61.5 0 1 0.62,-0.19 c 1.68,1.15 1.69,4.96 2.53,6.92 q 6.1,14.32 9.92,29.41 z"
         inkscape:connector-curvature="0"
         style="fill:#b4b4b4" />
      <ellipse
         id="ellipse23187"
         ry="0.87"
         rx="2.48"
         transform="rotate(65.7,-127.11163,168.38141)"
         cy="0"
         cx="0"
         style="fill:#ffffff" />
      <path
         id="path23189"
         d="m 190.4,230.47 q -1.52,-1.09 -1.1,-2.83 0.25,-1.04 0.69,-0.06 l 0.98,2.22 a 0.39,0.39 0 0 1 -0.09,0.45 l -0.21,0.2 a 0.22,0.21 -48.4 0 1 -0.27,0.02 z"
         inkscape:connector-curvature="0"
         style="fill:#ffffff" />
      <path
         id="path23191"
         d="m 223.19,248 h -25 l -0.31,-0.34 a 0.82,0.81 -63.6 0 1 -0.22,-0.67 c 0.22,-1.77 0.49,-5.06 -1,-5.77 q -0.48,-0.23 -0.3,0.27 1.2,3.31 -0.13,6.62 L 194.19,248 c -2.33,-3.04 -0.24,-6.93 -0.14,-9.83 a 0.45,0.45 0 0 1 0.64,-0.4 l 1.58,0.72 a 0.63,0.62 -56.9 0 0 0.73,-0.16 c 1.37,-1.55 -0.1,-3.83 -0.54,-5.58 l 1.58,-3.25 q 0.47,-0.4 1.02,-0.25 a 0.58,0.58 0 0 1 0.43,0.65 l -0.27,1.67 q -0.1,0.59 0.41,0.27 l 0.86,-0.55 q 0.53,-0.34 0.52,0.29 l -0.08,3.41 q -0.01,0.69 0.48,0.2 c 1.4,-1.39 3.9,3.44 5.03,4.43 a 0.88,0.86 55.9 0 0 0.85,0.17 q 1.66,-0.59 2.76,0.93 a 0.54,0.53 -45.9 0 0 0.87,-0.02 q 2.72,-4.03 1.79,-8.83 a 0.56,0.56 0 0 1 0.65,-0.66 q 1.56,0.29 1.78,2.06 a 0.72,0.72 0 0 0 0.49,0.59 l 1.07,0.34 a 1.02,1.01 -1.1 0 1 0.66,0.63 q 1.2,3.22 4.13,4.88 a 1.24,1.23 7.7 0 1 0.59,0.77 q 0.86,3.55 1.98,6.98 0.1,0.32 -0.87,0.54 z"
         inkscape:connector-curvature="0"
         style="fill:#b4b4b4" />
      <path
         id="path23193"
         d="m 186.69,248 h -24.75 q -0.46,-0.35 -1.13,-0.32 -0.68,0.03 -0.32,-0.54 l 0.74,-1.19 a 1.63,1.58 -30 0 0 0.24,-0.84 q 0.05,-3.47 3.32,-4.86 a 0.44,0.44 0 0 1 0.59,0.28 c 0.28,0.99 0.97,6.4 1.43,6.62 a 0.47,0.47 0 0 0 0.68,-0.39 l 0.53,-7.06 a 0.5,0.49 -72.3 0 1 0.75,-0.39 q 2.04,1.24 0.95,3.76 a 0.62,0.61 27.1 0 0 0.26,0.78 l 0.25,0.15 a 0.37,0.37 0 0 0 0.55,-0.29 l 0.31,-3.47 a 1.43,1.42 70.5 0 1 0.41,-0.87 l 0.55,-0.55 a 0.41,0.41 0 0 1 0.68,0.17 l 0.21,0.66 a 0.53,0.52 74.3 0 0 0.63,0.36 c 0.25,-0.07 0.56,-6 0.6,-6.3 q 0.11,-0.79 0.26,0 0.91,4.57 3.79,8.2 a 0.65,0.65 0 0 0 0.93,0.09 q 1.35,-1.16 0.77,-3.13 a 0.89,0.88 -31.3 0 1 0.22,-0.89 l 0.76,-0.77 q 0.94,-0.95 0.67,0.36 -0.53,2.62 1.18,4.6 a 1.25,1.22 28.8 0 1 0.29,0.96 l -0.3,2.28 a 0.3,0.3 0 0 0 0.29,0.34 h 0.26 a 0.39,0.39 0 0 0 0.38,-0.25 q 1.01,-2.75 0.26,-5.62 a 1.04,1.03 55.9 0 1 0.16,-0.86 l 0.35,-0.49 q 0.55,-0.77 0.77,0.15 0.26,1.05 0.95,1.79 0.88,0.96 0.85,-0.34 l -0.02,-1.1 q -0.01,-0.93 0.67,-0.29 0.45,0.42 0.35,0.98 a 0.82,0.82 0 0 0 0.33,0.81 c 1.61,1.21 0.71,3.24 -0.76,3.96 a 0.73,0.72 75.6 0 0 -0.41,0.7 q 0.1,1.51 -0.48,2.81 z"
         inkscape:connector-curvature="0"
         style="fill:#b4b4b4" />
      <ellipse
         id="ellipse23195"
         ry="0.81"
         rx="4.3099999"
         transform="rotate(77.8,17.65207,325.81652)"
         cy="0"
         cx="0"
         style="fill:#d1d1d1" />
      <path
         id="path23197"
         d="m 198.19,248 -1.96,0.11 q 1.33,-3.31 0.13,-6.62 -0.18,-0.5 0.3,-0.27 c 1.49,0.71 1.22,4 1,5.77 a 0.82,0.81 -63.6 0 0 0.22,0.67 z"
         inkscape:connector-curvature="0"
         style="fill:#d1d1d1" />
      <path
         id="path23199"
         d="m 276.65,248 h -2.21 l 0.71,-0.31 a 0.5,0.5 0 0 0 0.3,-0.49 l -0.39,-5.52 a 0.41,0.41 0 0 1 0.44,-0.44 l 0.29,0.02 a 0.43,0.41 89.2 0 1 0.39,0.39 z"
         inkscape:connector-curvature="0"
         style="fill:#d1d1d1" />
      <path
         id="path23201"
         d="M 127.71,248.05 125.94,248 q 0.17,-0.08 0.29,-0.19 a 0.44,0.44 0 0 0 0.05,-0.59 q -1.78,-2.28 -0.98,-4.94 0.22,-0.75 0.68,-0.11 1.86,2.59 1.73,5.88 z"
         inkscape:connector-curvature="0"
         style="fill:#d1d1d1" />
    </g>
  </g>
</svg>
