<?xml version="1.0" encoding="UTF-8" standalone="no"?>
<!DOCTYPE svg PUBLIC "-//W3C//DTD SVG 1.1//EN" "http://www.w3.org/Graphics/SVG/1.1/DTD/svg11.dtd">
<svg xmlns="http://www.w3.org/2000/svg" version="1.1" viewBox="0 0 450 406">
<g stroke-width="2.00" fill="none" stroke-linecap="butt">
<path stroke="#e6e6e6" vector-effect="non-scaling-stroke" d="
  M 335.69 406.00
  Q 338.18 404.98 338.70 404.45
  C 344.75 398.35 350.76 391.31 356.30 385.71
  Q 385.45 356.28 414.63 326.88
  Q 416.06 325.44 417.25 323.79"
/>
<path stroke="#c1c1c3" vector-effect="non-scaling-stroke" d="
  M 417.25 323.79
  Q 425.14 316.01 432.49 307.74
  C 434.34 305.66 444.49 296.52 444.14 293.84
  A 0.56 0.55 84.4 0 0 443.56 293.36
  Q 440.80 293.54 438.37 294.80
  Q 422.66 302.92 407.96 312.75"
/>
<path stroke="#e6e6e6" vector-effect="non-scaling-stroke" d="
  M 407.96 312.75
  Q 404.77 314.49 401.78 316.54
  C 383.69 328.94 368.19 343.06 351.46 357.04
  C 336.35 369.67 321.41 381.01 309.41 396.91
  Q 306.92 400.21 305.24 404.03
  A 0.91 0.91 0.0 0 0 306.02 405.30
  L 319.19 406.00"
/>
<path stroke="#e6e6e6" vector-effect="non-scaling-stroke" d="
  M 282.94 406.00
  C 288.08 404.07 294.16 395.55 300.29 389.04
  Q 301.05 388.23 300.87 387.28
  A 0.40 0.40 0.0 0 0 300.29 387.00
  C 295.50 389.47 290.94 394.69 287.04 398.44
  C 285.05 400.35 282.46 402.23 280.68 405.05
  A 0.39 0.38 -66.3 0 0 280.90 405.62
  L 282.19 406.00"
/>
<path stroke="#e6e6e6" vector-effect="non-scaling-stroke" d="
  M 273.69 406.00
  C 278.84 404.57 285.01 396.14 290.07 390.21
  C 301.34 376.98 313.88 364.84 325.38 351.74
  Q 332.30 343.86 339.05 337.15
  C 362.53 313.80 384.08 290.44 406.07 264.31
  Q 409.90 259.76 411.56 256.17
  A 0.83 0.83 0.0 0 0 411.33 255.17
  L 409.10 253.36
  A 1.12 1.11 -34.4 0 0 408.05 253.17
  Q 392.80 257.96 375.21 268.24
  C 361.49 276.26 350.71 283.17 340.25 293.04"
/>
<path stroke="#868686" vector-effect="non-scaling-stroke" d="
  M 340.25 293.04
  Q 332.16 282.71 320.59 283.00
  Q 319.80 283.02 303.42 286.05
  C 296.64 287.30 283.61 288.17 277.35 293.22
  A 0.79 0.79 0.0 0 1 276.51 293.31
  C 269.61 289.94 265.84 286.91 256.92 288.53
  Q 256.02 288.70 256.76 288.16
  Q 259.62 286.07 260.93 282.72
  A 1.09 1.08 -81.7 0 0 259.83 281.24
  C 246.22 282.39 227.18 282.76 219.21 295.44
  A 0.33 0.32 -54.7 0 0 219.28 295.87
  C 219.50 296.04 219.74 296.06 220.02 295.94
  C 229.40 291.70 241.00 290.68 251.22 290.12
  Q 251.73 290.09 251.46 290.52
  C 250.00 292.82 247.86 295.03 246.63 297.13
  Q 233.92 318.92 234.80 343.89
  Q 234.90 347.00 237.80 348.13
  Q 246.81 351.63 254.22 345.77
  C 268.72 334.30 278.92 317.94 278.25 298.53
  A 0.58 0.58 0.0 0 1 278.71 297.94
  L 282.76 297.09
  A 0.40 0.39 88.1 0 1 283.23 297.54
  C 281.01 312.55 279.52 325.53 279.79 339.93
  Q 279.80 340.65 280.54 344.50"
/>
<path stroke="#e6e6e6" vector-effect="non-scaling-stroke" d="
  M 280.54 344.50
  Q 279.83 345.77 277.23 348.49
  Q 253.25 373.55 231.66 405.11
  Q 231.37 405.52 231.87 405.54
  L 250.44 406.00"
/>
<path stroke="#868686" vector-effect="non-scaling-stroke" d="
  M 129.39 85.45
  Q 132.29 67.94 137.05 43.01
  C 137.80 39.07 140.62 17.67 137.15 15.43
  C 131.78 11.95 108.58 27.33 103.90 31.15
  Q 102.90 31.96 101.39 34.92
  A 0.47 0.47 0.0 0 0 101.67 35.58
  C 102.55 35.86 121.97 22.79 127.64 23.45
  Q 130.29 23.76 130.30 26.43
  C 130.39 47.89 124.82 69.45 120.97 90.40
  A 1.41 1.37 77.4 0 1 120.45 91.25
  L 117.72 93.35
  Q 117.15 93.79 117.10 93.07
  Q 115.05 62.92 114.36 32.71
  A 0.34 0.34 0.0 0 0 113.89 32.40
  C 104.58 36.18 105.66 42.71 105.96 52.54
  Q 106.46 68.59 107.39 84.62
  C 107.61 88.45 107.37 93.10 108.55 97.59
  Q 109.19 100.03 107.47 101.87
  C 104.27 105.28 96.34 114.11 101.48 119.07
  C 104.86 122.31 112.38 119.95 115.67 117.64
  Q 126.71 109.91 127.67 95.99
  Q 128.06 90.46 133.83 91.37
  Q 136.88 91.86 137.45 95.03
  Q 139.32 105.31 138.65 115.84
  Q 138.54 117.56 140.08 116.79
  C 147.38 113.12 148.77 106.07 150.01 98.75
  Q 150.06 98.50 150.21 98.38
  A 0.21 0.21 0.0 0 1 150.55 98.51
  L 151.35 103.28
  A 0.50 0.49 -18.0 0 0 152.06 103.64
  C 154.06 102.63 155.52 101.75 157.88 101.68
  C 168.78 101.34 182.23 101.81 192.03 97.75
  A 0.34 0.34 0.0 0 1 192.50 98.07
  L 192.50 102.73
  Q 192.50 103.89 193.48 103.27
  Q 198.06 100.40 201.30 96.03
  A 2.30 2.30 0.0 0 0 201.71 94.23
  Q 200.23 86.59 200.07 78.79
  A 0.73 0.73 0.0 0 1 200.59 78.08
  L 209.32 75.44
  A 0.33 0.33 0.0 0 1 209.75 75.76
  L 209.75 102.40
  Q 209.75 104.23 211.07 102.96
  L 217.03 97.29
  Q 217.63 96.71 217.75 97.54
  Q 218.93 105.50 226.31 108.44
  A 0.51 0.51 0.0 0 1 226.56 109.16
  C 221.07 119.17 219.69 128.58 217.21 138.86
  Q 217.07 139.42 216.73 138.95
  L 210.41 130.26
  Q 209.20 128.60 207.74 130.06
  L 201.55 136.24
  A 1.04 1.03 -38.9 0 0 201.41 137.53
  Q 205.70 144.21 211.06 150.14
  Q 212.36 151.56 210.93 152.86
  Q 200.82 162.06 191.94 172.42
  Q 191.75 172.64 191.72 172.35
  C 190.63 161.36 189.10 149.96 189.23 139.34
  Q 189.32 131.88 189.86 124.00
  Q 190.06 121.02 187.32 122.20
  Q 182.63 124.21 180.48 129.48
  C 177.82 136.00 180.26 145.78 178.74 153.17
  Q 176.91 162.13 173.31 170.66
  Q 172.43 172.75 170.20 172.28
  Q 168.61 171.95 167.14 169.39
  C 161.78 160.10 162.82 150.97 163.06 137.87
  A 0.33 0.33 0.0 0 0 162.60 137.56
  Q 154.80 140.75 154.16 148.65
  C 153.45 157.44 151.16 165.61 148.08 173.84
  A 0.23 0.07 -17.8 0 1 147.94 173.94
  L 147.68 174.02
  A 0.15 0.15 0.0 0 1 147.48 173.89
  Q 146.91 159.89 149.08 146.06
  A 1.47 1.44 -20.9 0 1 149.43 145.30
  L 154.49 139.44
  Q 155.73 138.00 153.98 138.74
  L 150.29 140.30
  A 0.33 0.33 0.0 0 1 149.83 139.99
  L 150.06 129.51
  A 0.96 0.96 0.0 0 0 148.69 128.62
  Q 140.21 132.63 141.30 142.08
  A 0.78 0.78 0.0 0 1 140.68 142.93
  L 125.47 145.88
  A 0.45 0.44 84.2 0 1 124.94 145.44
  L 125.03 126.55
  A 0.34 0.34 0.0 0 0 124.55 126.24
  C 114.78 130.51 116.57 138.16 116.50 146.76
  A 1.09 1.09 0.0 0 1 116.08 147.60
  Q 112.36 150.40 109.84 154.30
  Q 109.39 155.00 110.22 155.00
  L 115.75 155.00
  A 0.50 0.50 0.0 0 1 116.25 155.50
  L 116.25 184.45
  A 0.29 0.28 77.1 0 0 116.66 184.71
  C 120.83 182.69 124.78 179.09 124.76 174.11
  Q 124.72 164.52 124.79 154.63
  A 1.94 1.94 0.0 0 1 126.30 152.75
  L 139.99 149.65
  A 0.45 0.45 0.0 0 1 140.54 150.14
  Q 138.06 170.63 138.76 185.00
  C 138.87 187.31 141.72 187.44 143.31 186.16
  Q 150.95 180.00 155.07 170.90
  Q 155.28 170.45 155.48 170.90
  Q 156.35 172.82 157.17 174.77
  C 164.00 191.01 178.06 172.11 181.47 165.19
  Q 181.86 164.39 181.93 165.27
  L 185.00 201.87
  Q 185.22 204.47 182.80 205.47
  C 174.01 209.08 162.20 202.37 156.62 195.66
  Q 155.32 194.11 157.02 193.02
  Q 161.76 189.99 164.84 185.45
  Q 165.82 184.01 164.16 184.53
  C 158.83 186.21 144.04 194.55 147.31 201.92
  C 150.47 209.04 160.15 213.77 167.27 214.78
  Q 168.95 215.01 167.63 216.08
  Q 150.98 229.57 141.99 249.04
  A 0.51 0.51 0.0 0 1 141.31 249.29
  C 139.02 248.18 135.60 248.53 132.98 248.26
  A 0.39 0.39 0.0 0 1 132.66 247.73
  Q 139.16 230.01 143.65 211.68
  Q 145.30 204.93 143.71 198.15
  A 0.79 0.78 88.2 0 0 143.09 197.56
  C 135.73 196.28 124.45 201.42 117.78 205.01
  C 115.86 206.05 107.91 211.60 108.37 213.95
  A 0.42 0.41 -18.5 0 0 108.96 214.24
  C 116.49 210.38 126.08 205.67 134.71 206.02
  A 0.60 0.60 0.0 0 1 135.28 206.54
  C 136.96 219.41 130.97 235.55 125.84 249.33
  Q 125.13 251.23 122.07 251.12
  A 0.59 0.59 0.0 0 1 121.50 250.53
  L 121.50 216.19
  A 0.51 0.51 0.0 0 0 120.79 215.72
  C 111.94 219.51 112.76 225.85 112.74 235.47
  Q 112.72 245.23 112.82 255.06
  A 0.91 0.91 0.0 0 1 112.41 255.82
  C 107.65 258.98 99.54 265.22 100.75 270.39
  A 1.83 1.82 84.4 0 0 102.46 271.80
  C 114.81 272.25 121.16 266.01 128.63 257.45
  A 1.16 1.12 18.7 0 1 129.45 257.06
  C 137.52 256.85 138.85 268.37 137.69 274.11
  A 1.09 1.07 81.8 0 1 137.15 274.85
  C 133.75 276.77 131.11 280.22 127.67 281.58
  Q 120.60 284.38 113.70 287.62
  C 107.13 290.71 103.35 294.37 99.91 300.37
  Q 98.50 302.81 100.77 301.15
  L 102.61 299.80
  Q 103.11 299.44 103.13 300.06
  L 104.49 337.90
  A 1.10 1.09 -23.7 0 1 104.17 338.72
  C 101.68 341.25 85.78 353.21 94.20 357.32
  A 1.61 1.58 52.6 0 0 95.18 357.46
  Q 100.62 356.50 105.13 353.35
  Q 105.90 352.80 105.88 353.75
  L 105.79 357.39
  Q 105.74 359.53 107.27 358.03
  L 114.12 351.29
  A 1.29 1.28 -22.4 0 0 114.51 350.37
  L 114.50 345.52
  A 1.56 1.53 64.0 0 1 114.81 344.59
  L 118.92 339.12
  A 1.98 1.97 27.3 0 1 121.09 338.43
  C 129.65 341.15 130.14 352.24 129.29 359.66
  C 128.88 363.30 126.91 366.53 125.27 369.71
  Q 124.10 371.99 126.22 370.55
  C 134.46 364.95 139.35 356.01 138.10 346.01
  C 136.99 337.14 136.40 329.25 124.95 329.74
  A 0.29 0.29 0.0 0 1 124.68 329.32
  C 130.44 317.98 136.92 305.95 139.33 293.33
  Q 140.76 285.83 136.72 279.99
  A 0.56 0.56 0.0 0 1 136.85 279.23
  Q 143.97 273.92 147.27 265.66
  A 2.05 2.03 82.0 0 1 147.88 264.84
  C 150.40 262.88 166.09 248.71 165.25 246.14
  A 0.51 0.50 -19.5 0 0 164.58 245.83
  C 161.04 247.27 157.17 252.36 154.74 255.35
  Q 153.38 257.03 151.24 257.33
  C 149.27 257.61 148.09 255.98 148.26 254.02
  C 149.35 241.22 155.57 230.62 164.62 221.77
  Q 166.16 220.26 166.03 222.42
  C 165.16 236.42 164.70 251.80 171.16 265.30
  A 0.68 0.67 55.4 0 1 171.02 266.09
  C 169.41 267.65 159.92 276.50 160.09 278.05
  A 0.39 0.39 0.0 0 0 160.65 278.36
  C 166.02 275.76 168.77 270.15 174.57 267.44
  Q 178.99 265.37 182.25 261.77
  C 188.02 255.39 194.97 250.21 201.77 244.99
  A 0.32 0.32 0.0 0 1 202.29 245.19
  C 202.85 248.69 205.48 269.43 213.49 263.78
  C 214.20 263.28 221.16 257.10 220.55 255.83
  A 0.55 0.55 0.0 0 0 219.80 255.58
  L 218.77 256.13
  A 0.86 0.85 -41.2 0 1 217.89 256.08
  C 213.05 252.68 211.36 243.32 211.21 237.51
  A 1.20 1.20 0.0 0 1 211.55 236.65
  C 214.02 234.16 221.87 227.42 221.98 224.19
  A 0.58 0.58 0.0 0 0 221.46 223.59
  Q 215.84 223.04 210.35 224.23
  A 0.46 0.46 0.0 0 1 209.79 223.79
  L 209.65 209.03
  A 0.49 0.49 0.0 0 0 208.92 208.61
  Q 204.97 210.92 201.81 214.24
  A 0.47 0.47 0.0 0 1 201.19 214.29
  C 198.48 212.26 183.36 226.02 182.90 230.24
  Q 182.63 232.72 185.12 232.73
  L 200.48 232.76
  A 0.53 0.52 86.9 0 1 201.00 233.23
  L 201.73 240.32
  A 2.37 2.37 0.0 0 1 200.83 242.44
  L 181.85 257.33
  A 1.47 1.47 0.0 0 1 179.64 256.85
  C 173.60 245.30 174.23 231.39 174.56 215.66
  A 0.66 0.65 -6.4 0 1 175.06 215.04
  C 183.14 213.12 193.34 207.04 193.27 197.55
  Q 193.22 191.22 193.26 185.08
  A 4.30 4.24 64.5 0 1 194.16 182.48
  L 197.56 178.14
  Q 198.53 176.90 197.03 177.37
  L 194.53 178.16
  A 0.34 0.33 -3.2 0 1 194.10 177.78
  C 195.87 169.04 206.85 159.64 213.44 153.70
  A 0.56 0.56 0.0 0 1 214.35 153.93
  Q 214.89 155.44 214.65 157.48
  C 213.28 169.20 211.93 193.81 230.10 193.71
  C 234.77 193.69 239.94 187.91 242.62 184.47
  A 0.63 0.61 46.4 0 0 242.63 183.73
  C 242.19 183.15 239.09 185.48 237.60 185.38
  C 225.71 184.52 221.47 171.50 222.75 161.33
  A 0.29 0.29 0.0 0 1 223.19 161.12
  Q 236.12 169.14 249.56 176.28
  A 0.79 0.78 -53.5 0 0 250.48 176.14
  L 251.30 175.32
  A 0.50 0.50 0.0 0 1 251.96 175.28
  L 254.87 177.45
  A 0.74 0.74 0.0 0 0 255.81 177.42
  C 258.49 175.15 265.11 170.10 264.09 166.61
  A 0.52 0.52 0.0 0 0 263.32 166.31
  L 261.75 167.28
  A 0.53 0.52 54.1 0 1 261.08 167.17
  C 257.18 162.63 258.23 156.08 258.12 150.56
  A 0.76 0.75 -7.8 0 1 258.69 149.82
  Q 266.30 147.87 273.19 144.10
  A 0.34 0.33 -14.7 0 1 273.69 144.39
  C 273.77 156.01 271.99 168.38 277.99 179.29
  A 0.60 0.59 54.8 0 0 278.90 179.45
  L 283.78 175.23
  Q 284.62 174.52 284.81 175.60
  C 285.25 178.02 286.78 179.70 289.41 179.94
  C 303.97 181.27 316.64 173.50 323.29 160.80
  C 325.47 156.63 325.73 146.19 318.63 146.48
  Q 307.93 146.93 300.51 154.87
  Q 299.78 155.65 299.77 154.58
  C 299.74 151.77 299.21 149.01 300.81 146.49
  C 301.46 145.45 304.36 142.33 303.94 141.30
  A 0.47 0.46 -28.8 0 0 303.23 141.10
  L 300.69 142.96
  Q 299.75 143.65 299.75 142.48
  L 299.75 127.36
  A 0.37 0.36 -12.5 0 0 299.23 127.03
  Q 289.08 131.68 291.25 143.25
  C 291.61 145.14 291.77 153.29 289.95 156.45
  Q 287.19 161.23 284.50 166.08
  Q 284.26 166.53 284.11 166.04
  C 281.41 157.30 282.12 143.38 282.50 136.08
  A 1.43 1.42 -21.8 0 1 282.89 135.18
  Q 288.29 129.42 289.35 121.55
  A 1.72 1.66 -55.3 0 0 289.19 120.57
  C 285.89 114.02 278.24 121.62 276.22 125.22
  C 274.30 128.63 274.50 133.27 273.98 137.31
  Q 273.72 139.28 271.79 139.72
  L 258.91 142.69
  A 0.57 0.57 0.0 0 1 258.21 142.13
  L 258.27 129.67
  A 0.40 0.40 0.0 0 0 257.72 129.30
  Q 248.60 133.06 249.46 142.92
  A 0.81 0.80 -16.3 0 1 249.02 143.71
  Q 243.92 146.21 241.17 151.21
  Q 240.83 151.83 241.53 151.80
  L 248.97 151.46
  A 0.50 0.50 0.0 0 1 249.50 151.97
  L 249.49 162.69
  A 0.34 0.33 -76.2 0 1 249.00 162.99
  Q 237.64 157.00 227.25 149.50
  Q 221.60 145.41 226.46 140.46
  Q 239.09 127.59 249.74 113.05
  A 0.15 0.15 0.0 0 0 249.74 112.87
  L 249.56 112.67
  A 0.39 0.39 0.0 0 0 249.07 112.59
  Q 244.97 115.01 241.97 118.74
  Q 234.46 128.05 226.57 137.16
  Q 224.96 139.01 225.34 136.59
  Q 227.52 122.82 231.47 109.46
  A 1.24 1.23 6.1 0 1 232.57 108.58
  C 241.21 108.03 249.10 101.07 253.90 94.38
  Q 260.82 84.73 258.98 73.81
  C 258.59 71.51 258.07 68.78 255.50 68.82
  Q 241.41 69.04 232.81 79.84
  Q 232.27 80.52 232.27 79.65
  L 232.24 73.29
  A 1.35 1.31 66.2 0 1 232.56 72.42
  C 240.16 63.41 254.94 50.33 267.56 51.50
  Q 268.58 51.59 267.76 52.20
  C 265.09 54.15 261.01 57.94 261.77 61.49
  C 263.54 69.70 264.45 75.79 263.93 84.54
  Q 263.46 92.34 263.28 100.24
  Q 263.23 102.28 264.53 103.86
  L 265.16 104.62
  A 0.82 0.81 56.5 0 0 266.16 104.83
  Q 271.09 102.38 273.95 97.68
  Q 275.00 95.96 274.82 93.96
  C 273.74 81.74 273.10 68.91 276.32 57.57
  A 0.82 0.82 0.0 0 1 276.96 56.99
  L 298.98 53.07
  Q 299.50 52.98 299.28 53.46
  Q 291.40 70.84 293.06 89.99
  C 293.55 95.77 290.11 96.88 288.42 101.53
  Q 288.06 102.53 288.93 101.92
  L 293.88 98.44
  A 0.32 0.32 0.0 0 1 294.37 98.61
  C 295.47 102.23 298.60 109.50 303.96 105.40
  C 305.33 104.36 312.39 97.76 311.81 96.67
  A 0.55 0.55 0.0 0 0 311.06 96.44
  L 308.21 98.04
  A 0.86 0.85 58.3 0 1 307.09 97.77
  L 302.99 91.67
  A 1.26 1.25 -40.6 0 1 303.12 90.10
  L 324.17 68.09
  Q 324.95 67.27 324.84 68.40
  Q 323.27 84.27 323.27 100.75
  Q 323.27 105.48 325.53 109.50
  A 0.44 0.43 -31.9 0 0 326.16 109.64
  Q 330.46 106.59 333.72 102.44
  A 0.89 0.87 -38.6 0 0 333.83 101.52
  Q 331.68 96.89 331.67 93.50
  Q 331.65 81.98 333.29 60.65
  Q 333.46 58.37 334.66 56.66
  C 334.98 56.20 339.70 50.32 339.53 50.02
  A 0.65 0.65 0.0 0 0 338.57 49.84
  L 334.80 52.77
  A 0.79 0.79 0.0 0 1 333.96 52.86
  L 333.10 52.43
  A 1.02 1.02 0.0 0 0 332.11 52.48
  C 327.72 55.14 324.69 58.20 324.69 63.43
  A 1.26 1.23 67.6 0 1 324.34 64.30
  C 319.25 69.71 303.56 87.30 302.74 87.30
  Q 302.20 87.30 302.58 86.92
  Q 303.94 85.58 304.60 83.80
  Q 304.98 82.75 304.03 83.33
  L 302.46 84.29
  A 0.61 0.61 0.0 0 1 301.53 83.80
  C 300.81 71.77 302.02 56.85 308.10 46.78
  Q 309.77 44.00 306.58 44.55
  L 277.01 49.62
  A 0.66 0.65 84.8 0 1 276.25 48.98
  L 276.24 45.01
  Q 276.23 42.78 274.00 42.70
  C 260.55 42.21 241.48 59.19 232.79 68.61
  Q 232.32 69.13 232.41 68.43
  Q 233.20 62.56 232.99 56.67
  Q 232.88 53.61 230.53 55.56
  C 226.25 59.11 224.33 64.16 219.29 66.01
  A 0.78 0.77 79.8 0 1 218.25 65.28
  L 218.25 51.61
  A 0.37 0.36 -12.5 0 0 217.73 51.28
  Q 213.47 53.27 210.72 57.24
  C 208.97 59.77 209.84 64.42 209.66 68.75
  A 0.63 0.62 86.0 0 1 209.15 69.34
  L 200.58 70.82
  A 0.32 0.31 -4.7 0 1 200.21 70.51
  L 200.26 46.33
  A 0.36 0.36 0.0 0 0 199.77 45.99
  C 189.31 50.22 191.16 59.87 191.82 69.01
  Q 192.00 71.55 189.88 72.96
  Q 185.91 75.61 183.60 79.56
  Q 183.00 80.60 184.19 80.45
  L 190.52 79.66
  A 0.87 0.87 0.0 0 1 191.50 80.52
  L 191.51 90.74
  A 1.34 1.34 0.0 0 1 190.22 92.08
  L 162.60 93.15
  A 1.30 1.29 88.7 0 1 161.25 91.85
  L 161.25 81.60
  A 0.65 0.64 83.2 0 1 161.74 80.97
  C 170.46 78.68 179.57 80.10 184.25 70.65
  A 0.36 0.35 -76.9 0 0 183.93 70.13
  Q 172.83 70.30 162.66 74.77
  A 1.04 1.04 0.0 0 1 161.22 74.02
  Q 160.02 67.93 158.80 61.17
  Q 158.13 57.39 162.08 56.28
  Q 173.66 53.02 184.31 53.85
  A 1.41 1.40 -65.4 0 0 185.42 53.43
  L 192.50 46.26
  Q 193.13 45.62 192.23 45.52
  C 177.54 44.04 163.37 47.17 153.19 58.42
  C 148.40 63.70 150.86 68.43 149.49 74.38
  Q 148.14 80.28 146.70 85.82
  Q 146.29 87.40 145.79 85.84
  C 143.87 79.84 134.23 83.53 129.76 85.72
  Q 129.31 85.94 129.39 85.45"
/>
<path stroke="#868686" vector-effect="non-scaling-stroke" d="
  M 335.70 128.41
  C 332.44 130.23 329.38 134.87 328.65 138.99
  Q 325.72 155.63 324.79 172.50
  C 324.49 177.90 325.11 185.05 331.07 187.29
  A 0.88 0.88 0.0 0 0 332.01 187.10
  L 339.32 180.00
  A 0.58 0.57 -51.6 0 0 339.22 179.10
  Q 333.44 175.66 333.52 168.75
  Q 333.73 149.41 337.87 130.02
  Q 338.55 126.83 335.70 128.41"
/>
<path stroke="#868686" vector-effect="non-scaling-stroke" d="
  M 181.47 296.00
  L 181.75 296.00
  A 0.19 0.19 0.0 0 1 181.94 296.17
  C 182.45 303.81 180.97 310.53 179.95 318.03
  C 179.36 322.37 179.38 326.66 179.37 331.00
  C 179.34 336.01 182.82 335.85 186.82 335.94
  C 194.96 336.11 203.79 325.23 207.30 318.80
  Q 207.68 318.11 207.89 318.86
  C 211.73 332.37 215.57 347.47 214.85 361.59
  A 1.79 1.79 0.0 0 1 213.77 363.14
  C 201.50 368.44 183.24 368.52 176.63 354.23
  A 1.51 1.51 0.0 0 1 177.35 352.23
  C 183.28 349.38 188.42 348.01 191.76 341.69
  Q 192.12 340.99 191.36 341.16
  Q 178.91 343.90 170.77 353.79
  C 162.97 363.27 173.96 372.17 182.39 374.09
  C 193.49 376.61 205.01 374.24 213.78 366.52
  C 221.73 359.52 224.44 356.68 223.48 346.21
  A 1.04 1.02 -25.4 0 1 223.79 345.37
  C 228.22 341.17 231.40 339.68 231.33 332.93
  Q 231.16 314.36 230.31 295.80
  A 0.36 0.36 0.0 0 0 229.82 295.48
  Q 221.02 298.93 221.74 308.73
  Q 222.70 321.50 222.80 334.31
  A 0.17 0.13 -12.7 0 1 222.69 334.44
  L 222.43 334.52
  A 0.11 0.10 -14.9 0 1 222.29 334.45
  C 219.38 320.79 213.76 306.47 215.40 292.97
  C 216.03 287.76 215.62 284.59 213.15 280.47
  A 1.34 1.33 -27.1 0 0 211.47 279.93
  C 204.82 282.79 203.15 287.31 203.59 294.57
  Q 204.00 301.36 205.25 308.09
  Q 205.64 310.21 205.06 312.28
  Q 202.88 319.99 198.25 326.45
  A 1.31 1.29 11.7 0 1 197.43 326.98
  Q 193.97 327.64 190.56 326.96
  Q 188.34 326.51 188.17 324.26
  C 187.39 314.45 189.60 304.00 191.06 294.26
  Q 191.53 291.11 190.92 288.51
  A 1.40 1.40 0.0 0 0 189.27 287.46
  L 181.52 289.09
  A 0.60 0.59 75.4 0 1 180.82 288.67
  L 179.30 283.51
  Q 178.42 280.54 175.33 280.43
  C 167.39 280.14 161.49 285.14 153.49 289.38
  C 148.87 291.82 146.38 295.52 146.47 300.98
  C 146.54 305.68 147.60 314.64 145.57 318.76
  C 143.79 322.38 142.09 325.35 141.81 329.37
  C 141.47 334.35 141.97 338.50 146.00 341.61
  A 1.05 1.02 -72.6 0 1 146.41 342.42
  C 146.57 347.97 147.50 353.66 147.50 358.88
  Q 147.49 371.28 147.24 383.68
  Q 147.17 387.23 145.18 390.15
  Q 144.81 390.69 144.92 390.85
  A 0.96 0.95 -36.0 0 0 146.30 391.06
  C 157.76 382.21 156.00 378.63 156.00 365.33
  Q 156.00 353.46 156.01 341.53
  A 0.74 0.73 -11.4 0 1 156.47 340.85
  Q 159.78 339.56 161.44 338.41
  Q 183.35 323.31 181.32 296.17
  A 0.16 0.15 88.2 0 1 181.47 296.00"
/>
<path stroke="#868686" vector-effect="non-scaling-stroke" d="
  M 218.40 71.88
  L 218.45 85.24
  Q 218.45 85.86 218.80 85.35
  L 222.91 79.40
  Q 223.20 78.98 223.26 78.48
  L 224.54 67.49
  Q 224.65 66.53 223.88 67.10
  L 218.96 70.76
  A 1.40 1.40 0.0 0 0 218.40 71.88"
/>
<path stroke="#868686" vector-effect="non-scaling-stroke" d="
  M 247.73 77.37
  Q 242.53 77.52 237.62 79.35
  Q 235.50 80.14 234.89 82.32
  Q 233.78 86.28 233.13 89.77
  C 232.63 92.40 231.28 93.90 229.72 95.88
  A 0.68 0.67 -43.0 0 0 229.69 96.68
  C 232.40 100.63 239.33 100.41 243.58 99.56
  C 252.02 97.87 251.09 85.32 249.80 79.02
  A 2.05 2.05 0.0 0 0 247.73 77.37"
/>
<path stroke="#868686" vector-effect="non-scaling-stroke" d="
  M 119.25 101.32
  C 119.90 100.92 119.85 97.27 119.90 96.40
  A 0.40 0.40 0.0 0 0 119.33 96.02
  L 118.28 96.52
  A 0.67 0.66 -31.1 0 0 118.03 97.51
  Q 119.13 99.03 118.71 100.94
  Q 118.53 101.76 119.25 101.32"
/>
<path stroke="#868686" vector-effect="non-scaling-stroke" d="
  M 110.14 107.95
  L 110.00 106.46
  A 1.11 1.11 0.0 0 0 109.57 105.67
  L 109.14 105.34
  Q 108.58 104.90 108.52 105.61
  Q 108.23 108.72 109.95 111.28
  A 1.13 1.12 72.9 0 0 110.91 111.79
  L 116.58 111.66
  A 0.93 0.92 -84.5 0 0 117.47 110.92
  L 118.90 103.80
  Q 119.17 102.47 118.21 103.43
  L 112.72 108.88
  Q 110.43 111.15 110.14 107.95"
/>
<path stroke="#868686" vector-effect="non-scaling-stroke" d="
  M 303.28 157.74
  L 303.19 167.25
  A 1.10 1.06 -23.3 0 1 302.87 168.01
  L 299.98 170.89
  Q 299.44 171.43 300.20 171.45
  C 309.18 171.72 319.81 169.73 314.89 157.28
  Q 314.14 155.38 312.12 155.14
  Q 307.69 154.61 303.88 156.73
  A 1.16 1.15 -14.5 0 0 303.28 157.74"
/>
<path stroke="#868686" vector-effect="non-scaling-stroke" d="
  M 201.30 215.85
  A 0.30 0.30 0.0 0 0 200.80 215.61
  L 191.77 223.65
  A 0.30 0.30 0.0 0 0 191.96 224.18
  L 200.36 224.51
  A 0.30 0.30 0.0 0 0 200.67 224.23
  L 201.30 215.85"
/>
<path stroke="#6d6d6d" vector-effect="non-scaling-stroke" d="
  M 212.4295 231.8094
  A 1.37 0.50 -40.0 0 0 211.0586 232.3070
  A 1.37 0.50 -40.0 0 0 210.3305 233.5706
  A 1.37 0.50 -40.0 0 0 211.7014 233.0730
  A 1.37 0.50 -40.0 0 0 212.4295 231.8094"
/>
<path stroke="#868686" vector-effect="non-scaling-stroke" d="
  M 109.73 262.95
  C 110.85 263.42 115.05 262.96 113.02 260.95
  A 0.83 0.83 0.0 0 0 112.04 260.82
  L 109.69 262.17
  Q 108.92 262.61 109.73 262.95"
/>
<path stroke="#868686" vector-effect="non-scaling-stroke" d="
  M 128.84 289.38
  C 124.35 288.12 116.41 291.26 112.82 293.43
  A 2.36 2.35 72.2 0 0 111.70 295.62
  C 112.71 308.06 112.45 321.93 113.74 332.46
  A 0.42 0.42 0.0 0 0 114.28 332.80
  C 116.71 331.99 118.24 331.56 119.55 329.12
  C 125.41 318.19 133.09 303.15 129.92 290.48
  A 1.55 1.54 0.7 0 0 128.84 289.38"
/>
<path stroke="#868686" vector-effect="non-scaling-stroke" d="
  M 102.94 348.79
  Q 105.02 349.42 105.01 347.25
  L 105.00 343.28
  A 0.36 0.36 0.0 0 0 104.51 342.94
  C 102.02 343.91 97.92 347.27 102.94 348.79"
/>
<path stroke="#6d6d6d" vector-effect="non-scaling-stroke" d="
  M 280.54 344.50
  Q 281.81 347.46 283.75 349.06
  Q 285.28 350.31 287.03 349.39
  C 292.50 346.53 296.35 341.81 296.22 335.45
  A 0.45 0.45 0.0 0 0 295.79 335.01
  L 295.50 334.99
  A 0.63 0.62 -59.6 0 0 295.13 335.09
  L 290.60 338.18
  A 0.56 0.56 0.0 0 1 289.80 337.98
  Q 289.16 336.80 289.25 335.54"
/>
<path stroke="#e6e6e6" vector-effect="non-scaling-stroke" d="
  M 289.25 335.54
  C 290.37 334.31 291.57 333.82 292.65 332.54
  Q 295.83 328.79 300.46 327.00"
/>
<path stroke="#6d6d6d" vector-effect="non-scaling-stroke" d="
  M 300.46 327.00
  C 300.32 334.56 300.01 344.62 307.32 348.93
  C 311.59 351.45 317.99 351.56 321.94 348.44
  C 336.32 337.08 345.00 317.87 342.75 298.75
  Q 342.49 296.58 340.25 293.04"
/>
<path stroke="#868686" vector-effect="non-scaling-stroke" d="
  M 168.96 289.53
  A 2.46 2.44 -28.0 0 0 167.20 289.00
  Q 161.74 289.51 156.79 291.82
  Q 155.24 292.55 155.21 294.25
  L 155.05 305.63
  Q 155.03 306.67 155.82 305.98
  Q 162.93 299.79 170.83 294.62
  A 1.00 0.99 -20.4 0 0 171.27 293.68
  Q 170.97 291.14 168.96 289.53"
/>
<path stroke="#868686" vector-effect="non-scaling-stroke" d="
  M 156.42 308.97
  A 3.60 3.58 -21.3 0 0 155.25 311.62
  L 155.25 332.52
  A 0.61 0.61 0.0 0 0 155.84 333.13
  C 160.73 333.30 166.41 332.51 168.57 328.07
  C 173.24 318.50 172.57 309.49 172.45 299.18
  A 0.34 0.33 78.1 0 0 171.98 298.87
  Q 163.37 302.66 156.42 308.97"
/>
<path stroke="#868686" vector-effect="non-scaling-stroke" d="
  M 300.46 327.00
  L 300.46 314.21
  A 0.40 0.40 0.0 0 0 299.96 313.82
  L 297.92 314.35
  A 0.45 0.45 0.0 0 1 297.36 313.86
  Q 298.66 303.19 303.83 293.78
  Q 304.18 293.13 303.46 293.26
  L 291.87 295.26
  A 0.82 0.82 0.0 0 0 291.21 295.92
  Q 288.18 313.95 288.58 332.18
  Q 288.62 333.96 289.25 335.54"
/>
<path stroke="#6d6d6d" vector-effect="non-scaling-stroke" d="
  M 309.43 316.67
  C 308.72 328.11 308.23 342.14 323.09 342.49
  A 2.86 2.85 -71.8 0 0 325.51 341.26
  Q 336.38 325.61 334.13 306.80
  Q 333.75 303.65 330.79 300.00"
/>
<path stroke="#868686" vector-effect="non-scaling-stroke" d="
  M 330.79 300.00
  Q 324.04 291.92 313.51 291.28
  A 0.70 0.69 12.0 0 0 312.82 291.72
  Q 308.41 303.61 309.43 316.67"
/>
<path stroke="#e6e6e6" vector-effect="non-scaling-stroke" d="
  M 330.79 300.00
  C 323.15 304.31 316.58 311.39 309.43 316.67"
/>
<path stroke="#868686" vector-effect="non-scaling-stroke" d="
  M 255.29 334.38
  L 250.25 340.13
  Q 249.76 340.68 250.49 340.74
  C 264.01 341.97 269.67 318.16 269.72 308.49
  C 269.75 300.65 261.16 296.81 254.26 296.74
  A 0.92 0.91 16.3 0 0 253.49 297.16
  C 249.48 303.30 249.34 319.74 249.52 326.27
  Q 249.66 331.41 255.10 333.60
  A 0.49 0.49 0.0 0 1 255.29 334.38"
/>
<path stroke="#a8a8aa" vector-effect="non-scaling-stroke" d="
  M 417.25 323.79
  Q 414.12 322.74 414.29 320.19
  Q 414.43 317.91 412.27 317.16
  Q 408.24 315.76 407.96 312.75"
/>
</g>
<path fill="#ffffff" d="
  M 0.00 0.00
  L 450.00 0.00
  L 450.00 406.00
  L 335.69 406.00
  Q 338.18 404.98 338.70 404.45
  C 344.75 398.35 350.76 391.31 356.30 385.71
  Q 385.45 356.28 414.63 326.88
  Q 416.06 325.44 417.25 323.79
  Q 425.14 316.01 432.49 307.74
  C 434.34 305.66 444.49 296.52 444.14 293.84
  A 0.56 0.55 84.4 0 0 443.56 293.36
  Q 440.80 293.54 438.37 294.80
  Q 422.66 302.92 407.96 312.75
  Q 404.77 314.49 401.78 316.54
  C 383.69 328.94 368.19 343.06 351.46 357.04
  C 336.35 369.67 321.41 381.01 309.41 396.91
  Q 306.92 400.21 305.24 404.03
  A 0.91 0.91 0.0 0 0 306.02 405.30
  L 319.19 406.00
  L 282.94 406.00
  C 288.08 404.07 294.16 395.55 300.29 389.04
  Q 301.05 388.23 300.87 387.28
  A 0.40 0.40 0.0 0 0 300.29 387.00
  C 295.50 389.47 290.94 394.69 287.04 398.44
  C 285.05 400.35 282.46 402.23 280.68 405.05
  A 0.39 0.38 -66.3 0 0 280.90 405.62
  L 282.19 406.00
  L 273.69 406.00
  C 278.84 404.57 285.01 396.14 290.07 390.21
  C 301.34 376.98 313.88 364.84 325.38 351.74
  Q 332.30 343.86 339.05 337.15
  C 362.53 313.80 384.08 290.44 406.07 264.31
  Q 409.90 259.76 411.56 256.17
  A 0.83 0.83 0.0 0 0 411.33 255.17
  L 409.10 253.36
  A 1.12 1.11 -34.4 0 0 408.05 253.17
  Q 392.80 257.96 375.21 268.24
  C 361.49 276.26 350.71 283.17 340.25 293.04
  Q 332.16 282.71 320.59 283.00
  Q 319.80 283.02 303.42 286.05
  C 296.64 287.30 283.61 288.17 277.35 293.22
  A 0.79 0.79 0.0 0 1 276.51 293.31
  C 269.61 289.94 265.84 286.91 256.92 288.53
  Q 256.02 288.70 256.76 288.16
  Q 259.62 286.07 260.93 282.72
  A 1.09 1.08 -81.7 0 0 259.83 281.24
  C 246.22 282.39 227.18 282.76 219.21 295.44
  A 0.33 0.32 -54.7 0 0 219.28 295.87
  C 219.50 296.04 219.74 296.06 220.02 295.94
  C 229.40 291.70 241.00 290.68 251.22 290.12
  Q 251.73 290.09 251.46 290.52
  C 250.00 292.82 247.86 295.03 246.63 297.13
  Q 233.92 318.92 234.80 343.89
  Q 234.90 347.00 237.80 348.13
  Q 246.81 351.63 254.22 345.77
  C 268.72 334.30 278.92 317.94 278.25 298.53
  A 0.58 0.58 0.0 0 1 278.71 297.94
  L 282.76 297.09
  A 0.40 0.39 88.1 0 1 283.23 297.54
  C 281.01 312.55 279.52 325.53 279.79 339.93
  Q 279.80 340.65 280.54 344.50
  Q 279.83 345.77 277.23 348.49
  Q 253.25 373.55 231.66 405.11
  Q 231.37 405.52 231.87 405.54
  L 250.44 406.00
  L 0.00 406.00
  L 0.00 0.00
  Z
  M 129.39 85.45
  Q 132.29 67.94 137.05 43.01
  C 137.80 39.07 140.62 17.67 137.15 15.43
  C 131.78 11.95 108.58 27.33 103.90 31.15
  Q 102.90 31.96 101.39 34.92
  A 0.47 0.47 0.0 0 0 101.67 35.58
  C 102.55 35.86 121.97 22.79 127.64 23.45
  Q 130.29 23.76 130.30 26.43
  C 130.39 47.89 124.82 69.45 120.97 90.40
  A 1.41 1.37 77.4 0 1 120.45 91.25
  L 117.72 93.35
  Q 117.15 93.79 117.10 93.07
  Q 115.05 62.92 114.36 32.71
  A 0.34 0.34 0.0 0 0 113.89 32.40
  C 104.58 36.18 105.66 42.71 105.96 52.54
  Q 106.46 68.59 107.39 84.62
  C 107.61 88.45 107.37 93.10 108.55 97.59
  Q 109.19 100.03 107.47 101.87
  C 104.27 105.28 96.34 114.11 101.48 119.07
  C 104.86 122.31 112.38 119.95 115.67 117.64
  Q 126.71 109.91 127.67 95.99
  Q 128.06 90.46 133.83 91.37
  Q 136.88 91.86 137.45 95.03
  Q 139.32 105.31 138.65 115.84
  Q 138.54 117.56 140.08 116.79
  C 147.38 113.12 148.77 106.07 150.01 98.75
  Q 150.06 98.50 150.21 98.38
  A 0.21 0.21 0.0 0 1 150.55 98.51
  L 151.35 103.28
  A 0.50 0.49 -18.0 0 0 152.06 103.64
  C 154.06 102.63 155.52 101.75 157.88 101.68
  C 168.78 101.34 182.23 101.81 192.03 97.75
  A 0.34 0.34 0.0 0 1 192.50 98.07
  L 192.50 102.73
  Q 192.50 103.89 193.48 103.27
  Q 198.06 100.40 201.30 96.03
  A 2.30 2.30 0.0 0 0 201.71 94.23
  Q 200.23 86.59 200.07 78.79
  A 0.73 0.73 0.0 0 1 200.59 78.08
  L 209.32 75.44
  A 0.33 0.33 0.0 0 1 209.75 75.76
  L 209.75 102.40
  Q 209.75 104.23 211.07 102.96
  L 217.03 97.29
  Q 217.63 96.71 217.75 97.54
  Q 218.93 105.50 226.31 108.44
  A 0.51 0.51 0.0 0 1 226.56 109.16
  C 221.07 119.17 219.69 128.58 217.21 138.86
  Q 217.07 139.42 216.73 138.95
  L 210.41 130.26
  Q 209.20 128.60 207.74 130.06
  L 201.55 136.24
  A 1.04 1.03 -38.9 0 0 201.41 137.53
  Q 205.70 144.21 211.06 150.14
  Q 212.36 151.56 210.93 152.86
  Q 200.82 162.06 191.94 172.42
  Q 191.75 172.64 191.72 172.35
  C 190.63 161.36 189.10 149.96 189.23 139.34
  Q 189.32 131.88 189.86 124.00
  Q 190.06 121.02 187.32 122.20
  Q 182.63 124.21 180.48 129.48
  C 177.82 136.00 180.26 145.78 178.74 153.17
  Q 176.91 162.13 173.31 170.66
  Q 172.43 172.75 170.20 172.28
  Q 168.61 171.95 167.14 169.39
  C 161.78 160.10 162.82 150.97 163.06 137.87
  A 0.33 0.33 0.0 0 0 162.60 137.56
  Q 154.80 140.75 154.16 148.65
  C 153.45 157.44 151.16 165.61 148.08 173.84
  A 0.23 0.07 -17.8 0 1 147.94 173.94
  L 147.68 174.02
  A 0.15 0.15 0.0 0 1 147.48 173.89
  Q 146.91 159.89 149.08 146.06
  A 1.47 1.44 -20.9 0 1 149.43 145.30
  L 154.49 139.44
  Q 155.73 138.00 153.98 138.74
  L 150.29 140.30
  A 0.33 0.33 0.0 0 1 149.83 139.99
  L 150.06 129.51
  A 0.96 0.96 0.0 0 0 148.69 128.62
  Q 140.21 132.63 141.30 142.08
  A 0.78 0.78 0.0 0 1 140.68 142.93
  L 125.47 145.88
  A 0.45 0.44 84.2 0 1 124.94 145.44
  L 125.03 126.55
  A 0.34 0.34 0.0 0 0 124.55 126.24
  C 114.78 130.51 116.57 138.16 116.50 146.76
  A 1.09 1.09 0.0 0 1 116.08 147.60
  Q 112.36 150.40 109.84 154.30
  Q 109.39 155.00 110.22 155.00
  L 115.75 155.00
  A 0.50 0.50 0.0 0 1 116.25 155.50
  L 116.25 184.45
  A 0.29 0.28 77.1 0 0 116.66 184.71
  C 120.83 182.69 124.78 179.09 124.76 174.11
  Q 124.72 164.52 124.79 154.63
  A 1.94 1.94 0.0 0 1 126.30 152.75
  L 139.99 149.65
  A 0.45 0.45 0.0 0 1 140.54 150.14
  Q 138.06 170.63 138.76 185.00
  C 138.87 187.31 141.72 187.44 143.31 186.16
  Q 150.95 180.00 155.07 170.90
  Q 155.28 170.45 155.48 170.90
  Q 156.35 172.82 157.17 174.77
  C 164.00 191.01 178.06 172.11 181.47 165.19
  Q 181.86 164.39 181.93 165.27
  L 185.00 201.87
  Q 185.22 204.47 182.80 205.47
  C 174.01 209.08 162.20 202.37 156.62 195.66
  Q 155.32 194.11 157.02 193.02
  Q 161.76 189.99 164.84 185.45
  Q 165.82 184.01 164.16 184.53
  C 158.83 186.21 144.04 194.55 147.31 201.92
  C 150.47 209.04 160.15 213.77 167.27 214.78
  Q 168.95 215.01 167.63 216.08
  Q 150.98 229.57 141.99 249.04
  A 0.51 0.51 0.0 0 1 141.31 249.29
  C 139.02 248.18 135.60 248.53 132.98 248.26
  A 0.39 0.39 0.0 0 1 132.66 247.73
  Q 139.16 230.01 143.65 211.68
  Q 145.30 204.93 143.71 198.15
  A 0.79 0.78 88.2 0 0 143.09 197.56
  C 135.73 196.28 124.45 201.42 117.78 205.01
  C 115.86 206.05 107.91 211.60 108.37 213.95
  A 0.42 0.41 -18.5 0 0 108.96 214.24
  C 116.49 210.38 126.08 205.67 134.71 206.02
  A 0.60 0.60 0.0 0 1 135.28 206.54
  C 136.96 219.41 130.97 235.55 125.84 249.33
  Q 125.13 251.23 122.07 251.12
  A 0.59 0.59 0.0 0 1 121.50 250.53
  L 121.50 216.19
  A 0.51 0.51 0.0 0 0 120.79 215.72
  C 111.94 219.51 112.76 225.85 112.74 235.47
  Q 112.72 245.23 112.82 255.06
  A 0.91 0.91 0.0 0 1 112.41 255.82
  C 107.65 258.98 99.54 265.22 100.75 270.39
  A 1.83 1.82 84.4 0 0 102.46 271.80
  C 114.81 272.25 121.16 266.01 128.63 257.45
  A 1.16 1.12 18.7 0 1 129.45 257.06
  C 137.52 256.85 138.85 268.37 137.69 274.11
  A 1.09 1.07 81.8 0 1 137.15 274.85
  C 133.75 276.77 131.11 280.22 127.67 281.58
  Q 120.60 284.38 113.70 287.62
  C 107.13 290.71 103.35 294.37 99.91 300.37
  Q 98.50 302.81 100.77 301.15
  L 102.61 299.80
  Q 103.11 299.44 103.13 300.06
  L 104.49 337.90
  A 1.10 1.09 -23.7 0 1 104.17 338.72
  C 101.68 341.25 85.78 353.21 94.20 357.32
  A 1.61 1.58 52.6 0 0 95.18 357.46
  Q 100.62 356.50 105.13 353.35
  Q 105.90 352.80 105.88 353.75
  L 105.79 357.39
  Q 105.74 359.53 107.27 358.03
  L 114.12 351.29
  A 1.29 1.28 -22.4 0 0 114.51 350.37
  L 114.50 345.52
  A 1.56 1.53 64.0 0 1 114.81 344.59
  L 118.92 339.12
  A 1.98 1.97 27.3 0 1 121.09 338.43
  C 129.65 341.15 130.14 352.24 129.29 359.66
  C 128.88 363.30 126.91 366.53 125.27 369.71
  Q 124.10 371.99 126.22 370.55
  C 134.46 364.95 139.35 356.01 138.10 346.01
  C 136.99 337.14 136.40 329.25 124.95 329.74
  A 0.29 0.29 0.0 0 1 124.68 329.32
  C 130.44 317.98 136.92 305.95 139.33 293.33
  Q 140.76 285.83 136.72 279.99
  A 0.56 0.56 0.0 0 1 136.85 279.23
  Q 143.97 273.92 147.27 265.66
  A 2.05 2.03 82.0 0 1 147.88 264.84
  C 150.40 262.88 166.09 248.71 165.25 246.14
  A 0.51 0.50 -19.5 0 0 164.58 245.83
  C 161.04 247.27 157.17 252.36 154.74 255.35
  Q 153.38 257.03 151.24 257.33
  C 149.27 257.61 148.09 255.98 148.26 254.02
  C 149.35 241.22 155.57 230.62 164.62 221.77
  Q 166.16 220.26 166.03 222.42
  C 165.16 236.42 164.70 251.80 171.16 265.30
  A 0.68 0.67 55.4 0 1 171.02 266.09
  C 169.41 267.65 159.92 276.50 160.09 278.05
  A 0.39 0.39 0.0 0 0 160.65 278.36
  C 166.02 275.76 168.77 270.15 174.57 267.44
  Q 178.99 265.37 182.25 261.77
  C 188.02 255.39 194.97 250.21 201.77 244.99
  A 0.32 0.32 0.0 0 1 202.29 245.19
  C 202.85 248.69 205.48 269.43 213.49 263.78
  C 214.20 263.28 221.16 257.10 220.55 255.83
  A 0.55 0.55 0.0 0 0 219.80 255.58
  L 218.77 256.13
  A 0.86 0.85 -41.2 0 1 217.89 256.08
  C 213.05 252.68 211.36 243.32 211.21 237.51
  A 1.20 1.20 0.0 0 1 211.55 236.65
  C 214.02 234.16 221.87 227.42 221.98 224.19
  A 0.58 0.58 0.0 0 0 221.46 223.59
  Q 215.84 223.04 210.35 224.23
  A 0.46 0.46 0.0 0 1 209.79 223.79
  L 209.65 209.03
  A 0.49 0.49 0.0 0 0 208.92 208.61
  Q 204.97 210.92 201.81 214.24
  A 0.47 0.47 0.0 0 1 201.19 214.29
  C 198.48 212.26 183.36 226.02 182.90 230.24
  Q 182.63 232.72 185.12 232.73
  L 200.48 232.76
  A 0.53 0.52 86.9 0 1 201.00 233.23
  L 201.73 240.32
  A 2.37 2.37 0.0 0 1 200.83 242.44
  L 181.85 257.33
  A 1.47 1.47 0.0 0 1 179.64 256.85
  C 173.60 245.30 174.23 231.39 174.56 215.66
  A 0.66 0.65 -6.4 0 1 175.06 215.04
  C 183.14 213.12 193.34 207.04 193.27 197.55
  Q 193.22 191.22 193.26 185.08
  A 4.30 4.24 64.5 0 1 194.16 182.48
  L 197.56 178.14
  Q 198.53 176.90 197.03 177.37
  L 194.53 178.16
  A 0.34 0.33 -3.2 0 1 194.10 177.78
  C 195.87 169.04 206.85 159.64 213.44 153.70
  A 0.56 0.56 0.0 0 1 214.35 153.93
  Q 214.89 155.44 214.65 157.48
  C 213.28 169.20 211.93 193.81 230.10 193.71
  C 234.77 193.69 239.94 187.91 242.62 184.47
  A 0.63 0.61 46.4 0 0 242.63 183.73
  C 242.19 183.15 239.09 185.48 237.60 185.38
  C 225.71 184.52 221.47 171.50 222.75 161.33
  A 0.29 0.29 0.0 0 1 223.19 161.12
  Q 236.12 169.14 249.56 176.28
  A 0.79 0.78 -53.5 0 0 250.48 176.14
  L 251.30 175.32
  A 0.50 0.50 0.0 0 1 251.96 175.28
  L 254.87 177.45
  A 0.74 0.74 0.0 0 0 255.81 177.42
  C 258.49 175.15 265.11 170.10 264.09 166.61
  A 0.52 0.52 0.0 0 0 263.32 166.31
  L 261.75 167.28
  A 0.53 0.52 54.1 0 1 261.08 167.17
  C 257.18 162.63 258.23 156.08 258.12 150.56
  A 0.76 0.75 -7.8 0 1 258.69 149.82
  Q 266.30 147.87 273.19 144.10
  A 0.34 0.33 -14.7 0 1 273.69 144.39
  C 273.77 156.01 271.99 168.38 277.99 179.29
  A 0.60 0.59 54.8 0 0 278.90 179.45
  L 283.78 175.23
  Q 284.62 174.52 284.81 175.60
  C 285.25 178.02 286.78 179.70 289.41 179.94
  C 303.97 181.27 316.64 173.50 323.29 160.80
  C 325.47 156.63 325.73 146.19 318.63 146.48
  Q 307.93 146.93 300.51 154.87
  Q 299.78 155.65 299.77 154.58
  C 299.74 151.77 299.21 149.01 300.81 146.49
  C 301.46 145.45 304.36 142.33 303.94 141.30
  A 0.47 0.46 -28.8 0 0 303.23 141.10
  L 300.69 142.96
  Q 299.75 143.65 299.75 142.48
  L 299.75 127.36
  A 0.37 0.36 -12.5 0 0 299.23 127.03
  Q 289.08 131.68 291.25 143.25
  C 291.61 145.14 291.77 153.29 289.95 156.45
  Q 287.19 161.23 284.50 166.08
  Q 284.26 166.53 284.11 166.04
  C 281.41 157.30 282.12 143.38 282.50 136.08
  A 1.43 1.42 -21.8 0 1 282.89 135.18
  Q 288.29 129.42 289.35 121.55
  A 1.72 1.66 -55.3 0 0 289.19 120.57
  C 285.89 114.02 278.24 121.62 276.22 125.22
  C 274.30 128.63 274.50 133.27 273.98 137.31
  Q 273.72 139.28 271.79 139.72
  L 258.91 142.69
  A 0.57 0.57 0.0 0 1 258.21 142.13
  L 258.27 129.67
  A 0.40 0.40 0.0 0 0 257.72 129.30
  Q 248.60 133.06 249.46 142.92
  A 0.81 0.80 -16.3 0 1 249.02 143.71
  Q 243.92 146.21 241.17 151.21
  Q 240.83 151.83 241.53 151.80
  L 248.97 151.46
  A 0.50 0.50 0.0 0 1 249.50 151.97
  L 249.49 162.69
  A 0.34 0.33 -76.2 0 1 249.00 162.99
  Q 237.64 157.00 227.25 149.50
  Q 221.60 145.41 226.46 140.46
  Q 239.09 127.59 249.74 113.05
  A 0.15 0.15 0.0 0 0 249.74 112.87
  L 249.56 112.67
  A 0.39 0.39 0.0 0 0 249.07 112.59
  Q 244.97 115.01 241.97 118.74
  Q 234.46 128.05 226.57 137.16
  Q 224.96 139.01 225.34 136.59
  Q 227.52 122.82 231.47 109.46
  A 1.24 1.23 6.1 0 1 232.57 108.58
  C 241.21 108.03 249.10 101.07 253.90 94.38
  Q 260.82 84.73 258.98 73.81
  C 258.59 71.51 258.07 68.78 255.50 68.82
  Q 241.41 69.04 232.81 79.84
  Q 232.27 80.52 232.27 79.65
  L 232.24 73.29
  A 1.35 1.31 66.2 0 1 232.56 72.42
  C 240.16 63.41 254.94 50.33 267.56 51.50
  Q 268.58 51.59 267.76 52.20
  C 265.09 54.15 261.01 57.94 261.77 61.49
  C 263.54 69.70 264.45 75.79 263.93 84.54
  Q 263.46 92.34 263.28 100.24
  Q 263.23 102.28 264.53 103.86
  L 265.16 104.62
  A 0.82 0.81 56.5 0 0 266.16 104.83
  Q 271.09 102.38 273.95 97.68
  Q 275.00 95.96 274.82 93.96
  C 273.74 81.74 273.10 68.91 276.32 57.57
  A 0.82 0.82 0.0 0 1 276.96 56.99
  L 298.98 53.07
  Q 299.50 52.98 299.28 53.46
  Q 291.40 70.84 293.06 89.99
  C 293.55 95.77 290.11 96.88 288.42 101.53
  Q 288.06 102.53 288.93 101.92
  L 293.88 98.44
  A 0.32 0.32 0.0 0 1 294.37 98.61
  C 295.47 102.23 298.60 109.50 303.96 105.40
  C 305.33 104.36 312.39 97.76 311.81 96.67
  A 0.55 0.55 0.0 0 0 311.06 96.44
  L 308.21 98.04
  A 0.86 0.85 58.3 0 1 307.09 97.77
  L 302.99 91.67
  A 1.26 1.25 -40.6 0 1 303.12 90.10
  L 324.17 68.09
  Q 324.95 67.27 324.84 68.40
  Q 323.27 84.27 323.27 100.75
  Q 323.27 105.48 325.53 109.50
  A 0.44 0.43 -31.9 0 0 326.16 109.64
  Q 330.46 106.59 333.72 102.44
  A 0.89 0.87 -38.6 0 0 333.83 101.52
  Q 331.68 96.89 331.67 93.50
  Q 331.65 81.98 333.29 60.65
  Q 333.46 58.37 334.66 56.66
  C 334.98 56.20 339.70 50.32 339.53 50.02
  A 0.65 0.65 0.0 0 0 338.57 49.84
  L 334.80 52.77
  A 0.79 0.79 0.0 0 1 333.96 52.86
  L 333.10 52.43
  A 1.02 1.02 0.0 0 0 332.11 52.48
  C 327.72 55.14 324.69 58.20 324.69 63.43
  A 1.26 1.23 67.6 0 1 324.34 64.30
  C 319.25 69.71 303.56 87.30 302.74 87.30
  Q 302.20 87.30 302.58 86.92
  Q 303.94 85.58 304.60 83.80
  Q 304.98 82.75 304.03 83.33
  L 302.46 84.29
  A 0.61 0.61 0.0 0 1 301.53 83.80
  C 300.81 71.77 302.02 56.85 308.10 46.78
  Q 309.77 44.00 306.58 44.55
  L 277.01 49.62
  A 0.66 0.65 84.8 0 1 276.25 48.98
  L 276.24 45.01
  Q 276.23 42.78 274.00 42.70
  C 260.55 42.21 241.48 59.19 232.79 68.61
  Q 232.32 69.13 232.41 68.43
  Q 233.20 62.56 232.99 56.67
  Q 232.88 53.61 230.53 55.56
  C 226.25 59.11 224.33 64.16 219.29 66.01
  A 0.78 0.77 79.8 0 1 218.25 65.28
  L 218.25 51.61
  A 0.37 0.36 -12.5 0 0 217.73 51.28
  Q 213.47 53.27 210.72 57.24
  C 208.97 59.77 209.84 64.42 209.66 68.75
  A 0.63 0.62 86.0 0 1 209.15 69.34
  L 200.58 70.82
  A 0.32 0.31 -4.7 0 1 200.21 70.51
  L 200.26 46.33
  A 0.36 0.36 0.0 0 0 199.77 45.99
  C 189.31 50.22 191.16 59.87 191.82 69.01
  Q 192.00 71.55 189.88 72.96
  Q 185.91 75.61 183.60 79.56
  Q 183.00 80.60 184.19 80.45
  L 190.52 79.66
  A 0.87 0.87 0.0 0 1 191.50 80.52
  L 191.51 90.74
  A 1.34 1.34 0.0 0 1 190.22 92.08
  L 162.60 93.15
  A 1.30 1.29 88.7 0 1 161.25 91.85
  L 161.25 81.60
  A 0.65 0.64 83.2 0 1 161.74 80.97
  C 170.46 78.68 179.57 80.10 184.25 70.65
  A 0.36 0.35 -76.9 0 0 183.93 70.13
  Q 172.83 70.30 162.66 74.77
  A 1.04 1.04 0.0 0 1 161.22 74.02
  Q 160.02 67.93 158.80 61.17
  Q 158.13 57.39 162.08 56.28
  Q 173.66 53.02 184.31 53.85
  A 1.41 1.40 -65.4 0 0 185.42 53.43
  L 192.50 46.26
  Q 193.13 45.62 192.23 45.52
  C 177.54 44.04 163.37 47.17 153.19 58.42
  C 148.40 63.70 150.86 68.43 149.49 74.38
  Q 148.14 80.28 146.70 85.82
  Q 146.29 87.40 145.79 85.84
  C 143.87 79.84 134.23 83.53 129.76 85.72
  Q 129.31 85.94 129.39 85.45
  Z
  M 335.70 128.41
  C 332.44 130.23 329.38 134.87 328.65 138.99
  Q 325.72 155.63 324.79 172.50
  C 324.49 177.90 325.11 185.05 331.07 187.29
  A 0.88 0.88 0.0 0 0 332.01 187.10
  L 339.32 180.00
  A 0.58 0.57 -51.6 0 0 339.22 179.10
  Q 333.44 175.66 333.52 168.75
  Q 333.73 149.41 337.87 130.02
  Q 338.55 126.83 335.70 128.41
  Z
  M 181.47 296.00
  L 181.75 296.00
  A 0.19 0.19 0.0 0 1 181.94 296.17
  C 182.45 303.81 180.97 310.53 179.95 318.03
  C 179.36 322.37 179.38 326.66 179.37 331.00
  C 179.34 336.01 182.82 335.85 186.82 335.94
  C 194.96 336.11 203.79 325.23 207.30 318.80
  Q 207.68 318.11 207.89 318.86
  C 211.73 332.37 215.57 347.47 214.85 361.59
  A 1.79 1.79 0.0 0 1 213.77 363.14
  C 201.50 368.44 183.24 368.52 176.63 354.23
  A 1.51 1.51 0.0 0 1 177.35 352.23
  C 183.28 349.38 188.42 348.01 191.76 341.69
  Q 192.12 340.99 191.36 341.16
  Q 178.91 343.90 170.77 353.79
  C 162.97 363.27 173.96 372.17 182.39 374.09
  C 193.49 376.61 205.01 374.24 213.78 366.52
  C 221.73 359.52 224.44 356.68 223.48 346.21
  A 1.04 1.02 -25.4 0 1 223.79 345.37
  C 228.22 341.17 231.40 339.68 231.33 332.93
  Q 231.16 314.36 230.31 295.80
  A 0.36 0.36 0.0 0 0 229.82 295.48
  Q 221.02 298.93 221.74 308.73
  Q 222.70 321.50 222.80 334.31
  A 0.17 0.13 -12.7 0 1 222.69 334.44
  L 222.43 334.52
  A 0.11 0.10 -14.9 0 1 222.29 334.45
  C 219.38 320.79 213.76 306.47 215.40 292.97
  C 216.03 287.76 215.62 284.59 213.15 280.47
  A 1.34 1.33 -27.1 0 0 211.47 279.93
  C 204.82 282.79 203.15 287.31 203.59 294.57
  Q 204.00 301.36 205.25 308.09
  Q 205.64 310.21 205.06 312.28
  Q 202.88 319.99 198.25 326.45
  A 1.31 1.29 11.7 0 1 197.43 326.98
  Q 193.97 327.64 190.56 326.96
  Q 188.34 326.51 188.17 324.26
  C 187.39 314.45 189.60 304.00 191.06 294.26
  Q 191.53 291.11 190.92 288.51
  A 1.40 1.40 0.0 0 0 189.27 287.46
  L 181.52 289.09
  A 0.60 0.59 75.4 0 1 180.82 288.67
  L 179.30 283.51
  Q 178.42 280.54 175.33 280.43
  C 167.39 280.14 161.49 285.14 153.49 289.38
  C 148.87 291.82 146.38 295.52 146.47 300.98
  C 146.54 305.68 147.60 314.64 145.57 318.76
  C 143.79 322.38 142.09 325.35 141.81 329.37
  C 141.47 334.35 141.97 338.50 146.00 341.61
  A 1.05 1.02 -72.6 0 1 146.41 342.42
  C 146.57 347.97 147.50 353.66 147.50 358.88
  Q 147.49 371.28 147.24 383.68
  Q 147.17 387.23 145.18 390.15
  Q 144.81 390.69 144.92 390.85
  A 0.96 0.95 -36.0 0 0 146.30 391.06
  C 157.76 382.21 156.00 378.63 156.00 365.33
  Q 156.00 353.46 156.01 341.53
  A 0.74 0.73 -11.4 0 1 156.47 340.85
  Q 159.78 339.56 161.44 338.41
  Q 183.35 323.31 181.32 296.17
  A 0.16 0.15 88.2 0 1 181.47 296.00
  Z"
/>
<path fill="#0c0c0c" d="
  M 129.76 85.72
  C 134.23 83.53 143.87 79.84 145.79 85.84
  Q 146.29 87.40 146.70 85.82
  Q 148.14 80.28 149.49 74.38
  C 150.86 68.43 148.40 63.70 153.19 58.42
  C 163.37 47.17 177.54 44.04 192.23 45.52
  Q 193.13 45.62 192.50 46.26
  L 185.42 53.43
  A 1.41 1.40 -65.4 0 1 184.31 53.85
  Q 173.66 53.02 162.08 56.28
  Q 158.13 57.39 158.80 61.17
  Q 160.02 67.93 161.22 74.02
  A 1.04 1.04 0.0 0 0 162.66 74.77
  Q 172.83 70.30 183.93 70.13
  A 0.36 0.35 -76.9 0 1 184.25 70.65
  C 179.57 80.10 170.46 78.68 161.74 80.97
  A 0.65 0.64 83.2 0 0 161.25 81.60
  L 161.25 91.85
  A 1.30 1.29 88.7 0 0 162.60 93.15
  L 190.22 92.08
  A 1.34 1.34 0.0 0 0 191.51 90.74
  L 191.50 80.52
  A 0.87 0.87 0.0 0 0 190.52 79.66
  L 184.19 80.45
  Q 183.00 80.60 183.60 79.56
  Q 185.91 75.61 189.88 72.96
  Q 192.00 71.55 191.82 69.01
  C 191.16 59.87 189.31 50.22 199.77 45.99
  A 0.36 0.36 0.0 0 1 200.26 46.33
  L 200.21 70.51
  A 0.32 0.31 -4.7 0 0 200.58 70.82
  L 209.15 69.34
  A 0.63 0.62 86.0 0 0 209.66 68.75
  C 209.84 64.42 208.97 59.77 210.72 57.24
  Q 213.47 53.27 217.73 51.28
  A 0.37 0.36 -12.5 0 1 218.25 51.61
  L 218.25 65.28
  A 0.78 0.77 79.8 0 0 219.29 66.01
  C 224.33 64.16 226.25 59.11 230.53 55.56
  Q 232.88 53.61 232.99 56.67
  Q 233.20 62.56 232.41 68.43
  Q 232.32 69.13 232.79 68.61
  C 241.48 59.19 260.55 42.21 274.00 42.70
  Q 276.23 42.78 276.24 45.01
  L 276.25 48.98
  A 0.66 0.65 84.8 0 0 277.01 49.62
  L 306.58 44.55
  Q 309.77 44.00 308.10 46.78
  C 302.02 56.85 300.81 71.77 301.53 83.80
  A 0.61 0.61 0.0 0 0 302.46 84.29
  L 304.03 83.33
  Q 304.98 82.75 304.60 83.80
  Q 303.94 85.58 302.58 86.92
  Q 302.20 87.30 302.74 87.30
  C 303.56 87.30 319.25 69.71 324.34 64.30
  A 1.26 1.23 67.6 0 0 324.69 63.43
  C 324.69 58.20 327.72 55.14 332.11 52.48
  A 1.02 1.02 0.0 0 1 333.10 52.43
  L 333.96 52.86
  A 0.79 0.79 0.0 0 0 334.80 52.77
  L 338.57 49.84
  A 0.65 0.65 0.0 0 1 339.53 50.02
  C 339.70 50.32 334.98 56.20 334.66 56.66
  Q 333.46 58.37 333.29 60.65
  Q 331.65 81.98 331.67 93.50
  Q 331.68 96.89 333.83 101.52
  A 0.89 0.87 -38.6 0 1 333.72 102.44
  Q 330.46 106.59 326.16 109.64
  A 0.44 0.43 -31.9 0 1 325.53 109.50
  Q 323.27 105.48 323.27 100.75
  Q 323.27 84.27 324.84 68.40
  Q 324.95 67.27 324.17 68.09
  L 303.12 90.10
  A 1.26 1.25 -40.6 0 0 302.99 91.67
  L 307.09 97.77
  A 0.86 0.85 58.3 0 0 308.21 98.04
  L 311.06 96.44
  A 0.55 0.55 0.0 0 1 311.81 96.67
  C 312.39 97.76 305.33 104.36 303.96 105.40
  C 298.60 109.50 295.47 102.23 294.37 98.61
  A 0.32 0.32 0.0 0 0 293.88 98.44
  L 288.93 101.92
  Q 288.06 102.53 288.42 101.53
  C 290.11 96.88 293.55 95.77 293.06 89.99
  Q 291.40 70.84 299.28 53.46
  Q 299.50 52.98 298.98 53.07
  L 276.96 56.99
  A 0.82 0.82 0.0 0 0 276.32 57.57
  C 273.10 68.91 273.74 81.74 274.82 93.96
  Q 275.00 95.96 273.95 97.68
  Q 271.09 102.38 266.16 104.83
  A 0.82 0.81 56.5 0 1 265.16 104.62
  L 264.53 103.86
  Q 263.23 102.28 263.28 100.24
  Q 263.46 92.34 263.93 84.54
  C 264.45 75.79 263.54 69.70 261.77 61.49
  C 261.01 57.94 265.09 54.15 267.76 52.20
  Q 268.58 51.59 267.56 51.50
  C 254.94 50.33 240.16 63.41 232.56 72.42
  A 1.35 1.31 66.2 0 0 232.24 73.29
  L 232.27 79.65
  Q 232.27 80.52 232.81 79.84
  Q 241.41 69.04 255.50 68.82
  C 258.07 68.78 258.59 71.51 258.98 73.81
  Q 260.82 84.73 253.90 94.38
  C 249.10 101.07 241.21 108.03 232.57 108.58
  A 1.24 1.23 6.1 0 0 231.47 109.46
  Q 227.52 122.82 225.34 136.59
  Q 224.96 139.01 226.57 137.16
  Q 234.46 128.05 241.97 118.74
  Q 244.97 115.01 249.07 112.59
  A 0.39 0.39 0.0 0 1 249.56 112.67
  L 249.74 112.87
  A 0.15 0.15 0.0 0 1 249.74 113.05
  Q 239.09 127.59 226.46 140.46
  Q 221.60 145.41 227.25 149.50
  Q 237.64 157.00 249.00 162.99
  A 0.34 0.33 -76.2 0 0 249.49 162.69
  L 249.50 151.97
  A 0.50 0.50 0.0 0 0 248.97 151.46
  L 241.53 151.80
  Q 240.83 151.83 241.17 151.21
  Q 243.92 146.21 249.02 143.71
  A 0.81 0.80 -16.3 0 0 249.46 142.92
  Q 248.60 133.06 257.72 129.30
  A 0.40 0.40 0.0 0 1 258.27 129.67
  L 258.21 142.13
  A 0.57 0.57 0.0 0 0 258.91 142.69
  L 271.79 139.72
  Q 273.72 139.28 273.98 137.31
  C 274.50 133.27 274.30 128.63 276.22 125.22
  C 278.24 121.62 285.89 114.02 289.19 120.57
  A 1.72 1.66 -55.3 0 1 289.35 121.55
  Q 288.29 129.42 282.89 135.18
  A 1.43 1.42 -21.8 0 0 282.50 136.08
  C 282.12 143.38 281.41 157.30 284.11 166.04
  Q 284.26 166.53 284.50 166.08
  Q 287.19 161.23 289.95 156.45
  C 291.77 153.29 291.61 145.14 291.25 143.25
  Q 289.08 131.68 299.23 127.03
  A 0.37 0.36 -12.5 0 1 299.75 127.36
  L 299.75 142.48
  Q 299.75 143.65 300.69 142.96
  L 303.23 141.10
  A 0.47 0.46 -28.8 0 1 303.94 141.30
  C 304.36 142.33 301.46 145.45 300.81 146.49
  C 299.21 149.01 299.74 151.77 299.77 154.58
  Q 299.78 155.65 300.51 154.87
  Q 307.93 146.93 318.63 146.48
  C 325.73 146.19 325.47 156.63 323.29 160.80
  C 316.64 173.50 303.97 181.27 289.41 179.94
  C 286.78 179.70 285.25 178.02 284.81 175.60
  Q 284.62 174.52 283.78 175.23
  L 278.90 179.45
  A 0.60 0.59 54.8 0 1 277.99 179.29
  C 271.99 168.38 273.77 156.01 273.69 144.39
  A 0.34 0.33 -14.7 0 0 273.19 144.10
  Q 266.30 147.87 258.69 149.82
  A 0.76 0.75 -7.8 0 0 258.12 150.56
  C 258.23 156.08 257.18 162.63 261.08 167.17
  A 0.53 0.52 54.1 0 0 261.75 167.28
  L 263.32 166.31
  A 0.52 0.52 0.0 0 1 264.09 166.61
  C 265.11 170.10 258.49 175.15 255.81 177.42
  A 0.74 0.74 0.0 0 1 254.87 177.45
  L 251.96 175.28
  A 0.50 0.50 0.0 0 0 251.30 175.32
  L 250.48 176.14
  A 0.79 0.78 -53.5 0 1 249.56 176.28
  Q 236.12 169.14 223.19 161.12
  A 0.29 0.29 0.0 0 0 222.75 161.33
  C 221.47 171.50 225.71 184.52 237.60 185.38
  C 239.09 185.48 242.19 183.15 242.63 183.73
  A 0.63 0.61 46.4 0 1 242.62 184.47
  C 239.94 187.91 234.77 193.69 230.10 193.71
  C 211.93 193.81 213.28 169.20 214.65 157.48
  Q 214.89 155.44 214.35 153.93
  A 0.56 0.56 0.0 0 0 213.44 153.70
  C 206.85 159.64 195.87 169.04 194.10 177.78
  A 0.34 0.33 -3.2 0 0 194.53 178.16
  L 197.03 177.37
  Q 198.53 176.90 197.56 178.14
  L 194.16 182.48
  A 4.30 4.24 64.5 0 0 193.26 185.08
  Q 193.22 191.22 193.27 197.55
  C 193.34 207.04 183.14 213.12 175.06 215.04
  A 0.66 0.65 -6.4 0 0 174.56 215.66
  C 174.23 231.39 173.60 245.30 179.64 256.85
  A 1.47 1.47 0.0 0 0 181.85 257.33
  L 200.83 242.44
  A 2.37 2.37 0.0 0 0 201.73 240.32
  L 201.00 233.23
  A 0.53 0.52 86.9 0 0 200.48 232.76
  L 185.12 232.73
  Q 182.63 232.72 182.90 230.24
  C 183.36 226.02 198.48 212.26 201.19 214.29
  A 0.47 0.47 0.0 0 0 201.81 214.24
  Q 204.97 210.92 208.92 208.61
  A 0.49 0.49 0.0 0 1 209.65 209.03
  L 209.79 223.79
  A 0.46 0.46 0.0 0 0 210.35 224.23
  Q 215.84 223.04 221.46 223.59
  A 0.58 0.58 0.0 0 1 221.98 224.19
  C 221.87 227.42 214.02 234.16 211.55 236.65
  A 1.20 1.20 0.0 0 0 211.21 237.51
  C 211.36 243.32 213.05 252.68 217.89 256.08
  A 0.86 0.85 -41.2 0 0 218.77 256.13
  L 219.80 255.58
  A 0.55 0.55 0.0 0 1 220.55 255.83
  C 221.16 257.10 214.20 263.28 213.49 263.78
  C 205.48 269.43 202.85 248.69 202.29 245.19
  A 0.32 0.32 0.0 0 0 201.77 244.99
  C 194.97 250.21 188.02 255.39 182.25 261.77
  Q 178.99 265.37 174.57 267.44
  C 168.77 270.15 166.02 275.76 160.65 278.36
  A 0.39 0.39 0.0 0 1 160.09 278.05
  C 159.92 276.50 169.41 267.65 171.02 266.09
  A 0.68 0.67 55.4 0 0 171.16 265.30
  C 164.70 251.80 165.16 236.42 166.03 222.42
  Q 166.16 220.26 164.62 221.77
  C 155.57 230.62 149.35 241.22 148.26 254.02
  C 148.09 255.98 149.27 257.61 151.24 257.33
  Q 153.38 257.03 154.74 255.35
  C 157.17 252.36 161.04 247.27 164.58 245.83
  A 0.51 0.50 -19.5 0 1 165.25 246.14
  C 166.09 248.71 150.40 262.88 147.88 264.84
  A 2.05 2.03 82.0 0 0 147.27 265.66
  Q 143.97 273.92 136.85 279.23
  A 0.56 0.56 0.0 0 0 136.72 279.99
  Q 140.76 285.83 139.33 293.33
  C 136.92 305.95 130.44 317.98 124.68 329.32
  A 0.29 0.29 0.0 0 0 124.95 329.74
  C 136.40 329.25 136.99 337.14 138.10 346.01
  C 139.35 356.01 134.46 364.95 126.22 370.55
  Q 124.10 371.99 125.27 369.71
  C 126.91 366.53 128.88 363.30 129.29 359.66
  C 130.14 352.24 129.65 341.15 121.09 338.43
  A 1.98 1.97 27.3 0 0 118.92 339.12
  L 114.81 344.59
  A 1.56 1.53 64.0 0 0 114.50 345.52
  L 114.51 350.37
  A 1.29 1.28 -22.4 0 1 114.12 351.29
  L 107.27 358.03
  Q 105.74 359.53 105.79 357.39
  L 105.88 353.75
  Q 105.90 352.80 105.13 353.35
  Q 100.62 356.50 95.18 357.46
  A 1.61 1.58 52.6 0 1 94.20 357.32
  C 85.78 353.21 101.68 341.25 104.17 338.72
  A 1.10 1.09 -23.7 0 0 104.49 337.90
  L 103.13 300.06
  Q 103.11 299.44 102.61 299.80
  L 100.77 301.15
  Q 98.50 302.81 99.91 300.37
  C 103.35 294.37 107.13 290.71 113.70 287.62
  Q 120.60 284.38 127.67 281.58
  C 131.11 280.22 133.75 276.77 137.15 274.85
  A 1.09 1.07 81.8 0 0 137.69 274.11
  C 138.85 268.37 137.52 256.85 129.45 257.06
  A 1.16 1.12 18.7 0 0 128.63 257.45
  C 121.16 266.01 114.81 272.25 102.46 271.80
  A 1.83 1.82 84.4 0 1 100.75 270.39
  C 99.54 265.22 107.65 258.98 112.41 255.82
  A 0.91 0.91 0.0 0 0 112.82 255.06
  Q 112.72 245.23 112.74 235.47
  C 112.76 225.85 111.94 219.51 120.79 215.72
  A 0.51 0.51 0.0 0 1 121.50 216.19
  L 121.50 250.53
  A 0.59 0.59 0.0 0 0 122.07 251.12
  Q 125.13 251.23 125.84 249.33
  C 130.97 235.55 136.96 219.41 135.28 206.54
  A 0.60 0.60 0.0 0 0 134.71 206.02
  C 126.08 205.67 116.49 210.38 108.96 214.24
  A 0.42 0.41 -18.5 0 1 108.37 213.95
  C 107.91 211.60 115.86 206.05 117.78 205.01
  C 124.45 201.42 135.73 196.28 143.09 197.56
  A 0.79 0.78 88.2 0 1 143.71 198.15
  Q 145.30 204.93 143.65 211.68
  Q 139.16 230.01 132.66 247.73
  A 0.39 0.39 0.0 0 0 132.98 248.26
  C 135.60 248.53 139.02 248.18 141.31 249.29
  A 0.51 0.51 0.0 0 0 141.99 249.04
  Q 150.98 229.57 167.63 216.08
  Q 168.95 215.01 167.27 214.78
  C 160.15 213.77 150.47 209.04 147.31 201.92
  C 144.04 194.55 158.83 186.21 164.16 184.53
  Q 165.82 184.01 164.84 185.45
  Q 161.76 189.99 157.02 193.02
  Q 155.32 194.11 156.62 195.66
  C 162.20 202.37 174.01 209.08 182.80 205.47
  Q 185.22 204.47 185.00 201.87
  L 181.93 165.27
  Q 181.86 164.39 181.47 165.19
  C 178.06 172.11 164.00 191.01 157.17 174.77
  Q 156.35 172.82 155.48 170.90
  Q 155.28 170.45 155.07 170.90
  Q 150.95 180.00 143.31 186.16
  C 141.72 187.44 138.87 187.31 138.76 185.00
  Q 138.06 170.63 140.54 150.14
  A 0.45 0.45 0.0 0 0 139.99 149.65
  L 126.30 152.75
  A 1.94 1.94 0.0 0 0 124.79 154.63
  Q 124.72 164.52 124.76 174.11
  C 124.78 179.09 120.83 182.69 116.66 184.71
  A 0.29 0.28 77.1 0 1 116.25 184.45
  L 116.25 155.50
  A 0.50 0.50 0.0 0 0 115.75 155.00
  L 110.22 155.00
  Q 109.39 155.00 109.84 154.30
  Q 112.36 150.40 116.08 147.60
  A 1.09 1.09 0.0 0 0 116.50 146.76
  C 116.57 138.16 114.78 130.51 124.55 126.24
  A 0.34 0.34 0.0 0 1 125.03 126.55
  L 124.94 145.44
  A 0.45 0.44 84.2 0 0 125.47 145.88
  L 140.68 142.93
  A 0.78 0.78 0.0 0 0 141.30 142.08
  Q 140.21 132.63 148.69 128.62
  A 0.96 0.96 0.0 0 1 150.06 129.51
  L 149.83 139.99
  A 0.33 0.33 0.0 0 0 150.29 140.30
  L 153.98 138.74
  Q 155.73 138.00 154.49 139.44
  L 149.43 145.30
  A 1.47 1.44 -20.9 0 0 149.08 146.06
  Q 146.91 159.89 147.48 173.89
  A 0.15 0.15 0.0 0 0 147.68 174.02
  L 147.94 173.94
  A 0.23 0.07 -17.8 0 0 148.08 173.84
  C 151.16 165.61 153.45 157.44 154.16 148.65
  Q 154.80 140.75 162.60 137.56
  A 0.33 0.33 0.0 0 1 163.06 137.87
  C 162.82 150.97 161.78 160.10 167.14 169.39
  Q 168.61 171.95 170.20 172.28
  Q 172.43 172.75 173.31 170.66
  Q 176.91 162.13 178.74 153.17
  C 180.26 145.78 177.82 136.00 180.48 129.48
  Q 182.63 124.21 187.32 122.20
  Q 190.06 121.02 189.86 124.00
  Q 189.32 131.88 189.23 139.34
  C 189.10 149.96 190.63 161.36 191.72 172.35
  Q 191.75 172.64 191.94 172.42
  Q 200.82 162.06 210.93 152.86
  Q 212.36 151.56 211.06 150.14
  Q 205.70 144.21 201.41 137.53
  A 1.04 1.03 -38.9 0 1 201.55 136.24
  L 207.74 130.06
  Q 209.20 128.60 210.41 130.26
  L 216.73 138.95
  Q 217.07 139.42 217.21 138.86
  C 219.69 128.58 221.07 119.17 226.56 109.16
  A 0.51 0.51 0.0 0 0 226.31 108.44
  Q 218.93 105.50 217.75 97.54
  Q 217.63 96.71 217.03 97.29
  L 211.07 102.96
  Q 209.75 104.23 209.75 102.40
  L 209.75 75.76
  A 0.33 0.33 0.0 0 0 209.32 75.44
  L 200.59 78.08
  A 0.73 0.73 0.0 0 0 200.07 78.79
  Q 200.23 86.59 201.71 94.23
  A 2.30 2.30 0.0 0 1 201.30 96.03
  Q 198.06 100.40 193.48 103.27
  Q 192.50 103.89 192.50 102.73
  L 192.50 98.07
  A 0.34 0.34 0.0 0 0 192.03 97.75
  C 182.23 101.81 168.78 101.34 157.88 101.68
  C 155.52 101.75 154.06 102.63 152.06 103.64
  A 0.50 0.49 -18.0 0 1 151.35 103.28
  L 150.55 98.51
  A 0.21 0.21 0.0 0 0 150.21 98.38
  Q 150.06 98.50 150.01 98.75
  C 148.77 106.07 147.38 113.12 140.08 116.79
  Q 138.54 117.56 138.65 115.84
  Q 139.32 105.31 137.45 95.03
  Q 136.88 91.86 133.83 91.37
  Q 128.06 90.46 127.67 95.99
  Q 126.71 109.91 115.67 117.64
  C 112.38 119.95 104.86 122.31 101.48 119.07
  C 96.34 114.11 104.27 105.28 107.47 101.87
  Q 109.19 100.03 108.55 97.59
  C 107.37 93.10 107.61 88.45 107.39 84.62
  Q 106.46 68.59 105.96 52.54
  C 105.66 42.71 104.58 36.18 113.89 32.40
  A 0.34 0.34 0.0 0 1 114.36 32.71
  Q 115.05 62.92 117.10 93.07
  Q 117.15 93.79 117.72 93.35
  L 120.45 91.25
  A 1.41 1.37 77.4 0 0 120.97 90.40
  C 124.82 69.45 130.39 47.89 130.30 26.43
  Q 130.29 23.76 127.64 23.45
  C 121.97 22.79 102.55 35.86 101.67 35.58
  A 0.47 0.47 0.0 0 1 101.39 34.92
  Q 102.90 31.96 103.90 31.15
  C 108.58 27.33 131.78 11.95 137.15 15.43
  C 140.62 17.67 137.80 39.07 137.05 43.01
  Q 132.29 67.94 129.39 85.45
  Q 129.31 85.94 129.76 85.72
  Z
  M 218.40 71.88
  L 218.45 85.24
  Q 218.45 85.86 218.80 85.35
  L 222.91 79.40
  Q 223.20 78.98 223.26 78.48
  L 224.54 67.49
  Q 224.65 66.53 223.88 67.10
  L 218.96 70.76
  A 1.40 1.40 0.0 0 0 218.40 71.88
  Z
  M 247.73 77.37
  Q 242.53 77.52 237.62 79.35
  Q 235.50 80.14 234.89 82.32
  Q 233.78 86.28 233.13 89.77
  C 232.63 92.40 231.28 93.90 229.72 95.88
  A 0.68 0.67 -43.0 0 0 229.69 96.68
  C 232.40 100.63 239.33 100.41 243.58 99.56
  C 252.02 97.87 251.09 85.32 249.80 79.02
  A 2.05 2.05 0.0 0 0 247.73 77.37
  Z
  M 119.25 101.32
  C 119.90 100.92 119.85 97.27 119.90 96.40
  A 0.40 0.40 0.0 0 0 119.33 96.02
  L 118.28 96.52
  A 0.67 0.66 -31.1 0 0 118.03 97.51
  Q 119.13 99.03 118.71 100.94
  Q 118.53 101.76 119.25 101.32
  Z
  M 110.14 107.95
  L 110.00 106.46
  A 1.11 1.11 0.0 0 0 109.57 105.67
  L 109.14 105.34
  Q 108.58 104.90 108.52 105.61
  Q 108.23 108.72 109.95 111.28
  A 1.13 1.12 72.9 0 0 110.91 111.79
  L 116.58 111.66
  A 0.93 0.92 -84.5 0 0 117.47 110.92
  L 118.90 103.80
  Q 119.17 102.47 118.21 103.43
  L 112.72 108.88
  Q 110.43 111.15 110.14 107.95
  Z
  M 303.28 157.74
  L 303.19 167.25
  A 1.10 1.06 -23.3 0 1 302.87 168.01
  L 299.98 170.89
  Q 299.44 171.43 300.20 171.45
  C 309.18 171.72 319.81 169.73 314.89 157.28
  Q 314.14 155.38 312.12 155.14
  Q 307.69 154.61 303.88 156.73
  A 1.16 1.15 -14.5 0 0 303.28 157.74
  Z
  M 201.30 215.85
  A 0.30 0.30 0.0 0 0 200.80 215.61
  L 191.77 223.65
  A 0.30 0.30 0.0 0 0 191.96 224.18
  L 200.36 224.51
  A 0.30 0.30 0.0 0 0 200.67 224.23
  L 201.30 215.85
  Z
  M 212.4295 231.8094
  A 1.37 0.50 -40.0 0 0 211.0586 232.3070
  A 1.37 0.50 -40.0 0 0 210.3305 233.5706
  A 1.37 0.50 -40.0 0 0 211.7014 233.0730
  A 1.37 0.50 -40.0 0 0 212.4295 231.8094
  Z
  M 109.73 262.95
  C 110.85 263.42 115.05 262.96 113.02 260.95
  A 0.83 0.83 0.0 0 0 112.04 260.82
  L 109.69 262.17
  Q 108.92 262.61 109.73 262.95
  Z
  M 128.84 289.38
  C 124.35 288.12 116.41 291.26 112.82 293.43
  A 2.36 2.35 72.2 0 0 111.70 295.62
  C 112.71 308.06 112.45 321.93 113.74 332.46
  A 0.42 0.42 0.0 0 0 114.28 332.80
  C 116.71 331.99 118.24 331.56 119.55 329.12
  C 125.41 318.19 133.09 303.15 129.92 290.48
  A 1.55 1.54 0.7 0 0 128.84 289.38
  Z
  M 102.94 348.79
  Q 105.02 349.42 105.01 347.25
  L 105.00 343.28
  A 0.36 0.36 0.0 0 0 104.51 342.94
  C 102.02 343.91 97.92 347.27 102.94 348.79
  Z"
/>
<path fill="#ffffff" d="
  M 218.96 70.76
  L 223.88 67.10
  Q 224.65 66.53 224.54 67.49
  L 223.26 78.48
  Q 223.20 78.98 222.91 79.40
  L 218.80 85.35
  Q 218.45 85.86 218.45 85.24
  L 218.40 71.88
  A 1.40 1.40 0.0 0 1 218.96 70.76
  Z"
/>
<path fill="#ffffff" d="
  M 247.73 77.37
  A 2.05 2.05 0.0 0 1 249.80 79.02
  C 251.09 85.32 252.02 97.87 243.58 99.56
  C 239.33 100.41 232.40 100.63 229.69 96.68
  A 0.68 0.67 -43.0 0 1 229.72 95.88
  C 231.28 93.90 232.63 92.40 233.13 89.77
  Q 233.78 86.28 234.89 82.32
  Q 235.50 80.14 237.62 79.35
  Q 242.53 77.52 247.73 77.37
  Z"
/>
<path fill="#ffffff" d="
  M 119.90 96.40
  C 119.85 97.27 119.90 100.92 119.25 101.32
  Q 118.53 101.76 118.71 100.94
  Q 119.13 99.03 118.03 97.51
  A 0.67 0.66 -31.1 0 1 118.28 96.52
  L 119.33 96.02
  A 0.40 0.40 0.0 0 1 119.90 96.40
  Z"
/>
<path fill="#ffffff" d="
  M 110.14 107.95
  Q 110.43 111.15 112.72 108.88
  L 118.21 103.43
  Q 119.17 102.47 118.90 103.80
  L 117.47 110.92
  A 0.93 0.92 -84.5 0 1 116.58 111.66
  L 110.91 111.79
  A 1.13 1.12 72.9 0 1 109.95 111.28
  Q 108.23 108.72 108.52 105.61
  Q 108.58 104.90 109.14 105.34
  L 109.57 105.67
  A 1.11 1.11 0.0 0 1 110.00 106.46
  L 110.14 107.95
  Z"
/>
<path fill="#0c0c0c" d="
  M 328.65 138.99
  C 329.38 134.87 332.44 130.23 335.70 128.41
  Q 338.55 126.83 337.87 130.02
  Q 333.73 149.41 333.52 168.75
  Q 333.44 175.66 339.22 179.10
  A 0.58 0.57 -51.6 0 1 339.32 180.00
  L 332.01 187.10
  A 0.88 0.88 0.0 0 1 331.07 187.29
  C 325.11 185.05 324.49 177.90 324.79 172.50
  Q 325.72 155.63 328.65 138.99
  Z"
/>
<path fill="#ffffff" d="
  M 303.88 156.73
  Q 307.69 154.61 312.12 155.14
  Q 314.14 155.38 314.89 157.28
  C 319.81 169.73 309.18 171.72 300.20 171.45
  Q 299.44 171.43 299.98 170.89
  L 302.87 168.01
  A 1.10 1.06 -23.3 0 0 303.19 167.25
  L 303.28 157.74
  A 1.16 1.15 -14.5 0 1 303.88 156.73
  Z"
/>
<path fill="#ffffff" d="
  M 201.30 215.85
  L 200.67 224.23
  A 0.30 0.30 0.0 0 1 200.36 224.51
  L 191.96 224.18
  A 0.30 0.30 0.0 0 1 191.77 223.65
  L 200.80 215.61
  A 0.30 0.30 0.0 0 1 201.30 215.85
  Z"
/>
<ellipse fill="#cdcdcd" cx="0.00" cy="0.00" transform="translate(211.38,232.69) rotate(-40.0)" rx="1.37" ry="0.50"/>
<path fill="#cdcdcd" d="
  M 273.69 406.00
  L 250.44 406.00
  L 231.87 405.54
  Q 231.37 405.52 231.66 405.11
  Q 253.25 373.55 277.23 348.49
  Q 279.83 345.77 280.54 344.50
  Q 281.81 347.46 283.75 349.06
  Q 285.28 350.31 287.03 349.39
  C 292.50 346.53 296.35 341.81 296.22 335.45
  A 0.45 0.45 0.0 0 0 295.79 335.01
  L 295.50 334.99
  A 0.63 0.62 -59.6 0 0 295.13 335.09
  L 290.60 338.18
  A 0.56 0.56 0.0 0 1 289.80 337.98
  Q 289.16 336.80 289.25 335.54
  C 290.37 334.31 291.57 333.82 292.65 332.54
  Q 295.83 328.79 300.46 327.00
  C 300.32 334.56 300.01 344.62 307.32 348.93
  C 311.59 351.45 317.99 351.56 321.94 348.44
  C 336.32 337.08 345.00 317.87 342.75 298.75
  Q 342.49 296.58 340.25 293.04
  C 350.71 283.17 361.49 276.26 375.21 268.24
  Q 392.80 257.96 408.05 253.17
  A 1.12 1.11 -34.4 0 1 409.10 253.36
  L 411.33 255.17
  A 0.83 0.83 0.0 0 1 411.56 256.17
  Q 409.90 259.76 406.07 264.31
  C 384.08 290.44 362.53 313.80 339.05 337.15
  Q 332.30 343.86 325.38 351.74
  C 313.88 364.84 301.34 376.98 290.07 390.21
  C 285.01 396.14 278.84 404.57 273.69 406.00
  Z"
/>
<path fill="#ffffff" d="
  M 113.02 260.95
  C 115.05 262.96 110.85 263.42 109.73 262.95
  Q 108.92 262.61 109.69 262.17
  L 112.04 260.82
  A 0.83 0.83 0.0 0 1 113.02 260.95
  Z"
/>
<path fill="#0c0c0c" d="
  M 181.32 296.17
  Q 183.35 323.31 161.44 338.41
  Q 159.78 339.56 156.47 340.85
  A 0.74 0.73 -11.4 0 0 156.01 341.53
  Q 156.00 353.46 156.00 365.33
  C 156.00 378.63 157.76 382.21 146.30 391.06
  A 0.96 0.95 -36.0 0 1 144.92 390.85
  Q 144.81 390.69 145.18 390.15
  Q 147.17 387.23 147.24 383.68
  Q 147.49 371.28 147.50 358.88
  C 147.50 353.66 146.57 347.97 146.41 342.42
  A 1.05 1.02 -72.6 0 0 146.00 341.61
  C 141.97 338.50 141.47 334.35 141.81 329.37
  C 142.09 325.35 143.79 322.38 145.57 318.76
  C 147.60 314.64 146.54 305.68 146.47 300.98
  C 146.38 295.52 148.87 291.82 153.49 289.38
  C 161.49 285.14 167.39 280.14 175.33 280.43
  Q 178.42 280.54 179.30 283.51
  L 180.82 288.67
  A 0.60 0.59 75.4 0 0 181.52 289.09
  L 189.27 287.46
  A 1.40 1.40 0.0 0 1 190.92 288.51
  Q 191.53 291.11 191.06 294.26
  C 189.60 304.00 187.39 314.45 188.17 324.26
  Q 188.34 326.51 190.56 326.96
  Q 193.97 327.64 197.43 326.98
  A 1.31 1.29 11.7 0 0 198.25 326.45
  Q 202.88 319.99 205.06 312.28
  Q 205.64 310.21 205.25 308.09
  Q 204.00 301.36 203.59 294.57
  C 203.15 287.31 204.82 282.79 211.47 279.93
  A 1.34 1.33 -27.1 0 1 213.15 280.47
  C 215.62 284.59 216.03 287.76 215.40 292.97
  C 213.76 306.47 219.38 320.79 222.29 334.45
  A 0.11 0.10 -14.9 0 0 222.43 334.52
  L 222.69 334.44
  A 0.17 0.13 -12.7 0 0 222.80 334.31
  Q 222.70 321.50 221.74 308.73
  Q 221.02 298.93 229.82 295.48
  A 0.36 0.36 0.0 0 1 230.31 295.80
  Q 231.16 314.36 231.33 332.93
  C 231.40 339.68 228.22 341.17 223.79 345.37
  A 1.04 1.02 -25.4 0 0 223.48 346.21
  C 224.44 356.68 221.73 359.52 213.78 366.52
  C 205.01 374.24 193.49 376.61 182.39 374.09
  C 173.96 372.17 162.97 363.27 170.77 353.79
  Q 178.91 343.90 191.36 341.16
  Q 192.12 340.99 191.76 341.69
  C 188.42 348.01 183.28 349.38 177.35 352.23
  A 1.51 1.51 0.0 0 0 176.63 354.23
  C 183.24 368.52 201.50 368.44 213.77 363.14
  A 1.79 1.79 0.0 0 0 214.85 361.59
  C 215.57 347.47 211.73 332.37 207.89 318.86
  Q 207.68 318.11 207.30 318.80
  C 203.79 325.23 194.96 336.11 186.82 335.94
  C 182.82 335.85 179.34 336.01 179.37 331.00
  C 179.38 326.66 179.36 322.37 179.95 318.03
  C 180.97 310.53 182.45 303.81 181.94 296.17
  A 0.19 0.19 0.0 0 0 181.75 296.00
  L 181.47 296.00
  A 0.16 0.15 88.2 0 0 181.32 296.17
  Z
  M 168.96 289.53
  A 2.46 2.44 -28.0 0 0 167.20 289.00
  Q 161.74 289.51 156.79 291.82
  Q 155.24 292.55 155.21 294.25
  L 155.05 305.63
  Q 155.03 306.67 155.82 305.98
  Q 162.93 299.79 170.83 294.62
  A 1.00 0.99 -20.4 0 0 171.27 293.68
  Q 170.97 291.14 168.96 289.53
  Z
  M 156.42 308.97
  A 3.60 3.58 -21.3 0 0 155.25 311.62
  L 155.25 332.52
  A 0.61 0.61 0.0 0 0 155.84 333.13
  C 160.73 333.30 166.41 332.51 168.57 328.07
  C 173.24 318.50 172.57 309.49 172.45 299.18
  A 0.34 0.33 78.1 0 0 171.98 298.87
  Q 163.37 302.66 156.42 308.97
  Z"
/>
<path fill="#0c0c0c" d="
  M 340.25 293.04
  Q 342.49 296.58 342.75 298.75
  C 345.00 317.87 336.32 337.08 321.94 348.44
  C 317.99 351.56 311.59 351.45 307.32 348.93
  C 300.01 344.62 300.32 334.56 300.46 327.00
  L 300.46 314.21
  A 0.40 0.40 0.0 0 0 299.96 313.82
  L 297.92 314.35
  A 0.45 0.45 0.0 0 1 297.36 313.86
  Q 298.66 303.19 303.83 293.78
  Q 304.18 293.13 303.46 293.26
  L 291.87 295.26
  A 0.82 0.82 0.0 0 0 291.21 295.92
  Q 288.18 313.95 288.58 332.18
  Q 288.62 333.96 289.25 335.54
  Q 289.16 336.80 289.80 337.98
  A 0.56 0.56 0.0 0 0 290.60 338.18
  L 295.13 335.09
  A 0.63 0.62 -59.6 0 1 295.50 334.99
  L 295.79 335.01
  A 0.45 0.45 0.0 0 1 296.22 335.45
  C 296.35 341.81 292.50 346.53 287.03 349.39
  Q 285.28 350.31 283.75 349.06
  Q 281.81 347.46 280.54 344.50
  Q 279.80 340.65 279.79 339.93
  C 279.52 325.53 281.01 312.55 283.23 297.54
  A 0.40 0.39 88.1 0 0 282.76 297.09
  L 278.71 297.94
  A 0.58 0.58 0.0 0 0 278.25 298.53
  C 278.92 317.94 268.72 334.30 254.22 345.77
  Q 246.81 351.63 237.80 348.13
  Q 234.90 347.00 234.80 343.89
  Q 233.92 318.92 246.63 297.13
  C 247.86 295.03 250.00 292.82 251.46 290.52
  Q 251.73 290.09 251.22 290.12
  C 241.00 290.68 229.40 291.70 220.02 295.94
  C 219.74 296.06 219.50 296.04 219.28 295.87
  A 0.33 0.32 -54.7 0 1 219.21 295.44
  C 227.18 282.76 246.22 282.39 259.83 281.24
  A 1.09 1.08 -81.7 0 1 260.93 282.72
  Q 259.62 286.07 256.76 288.16
  Q 256.02 288.70 256.92 288.53
  C 265.84 286.91 269.61 289.94 276.51 293.31
  A 0.79 0.79 0.0 0 0 277.35 293.22
  C 283.61 288.17 296.64 287.30 303.42 286.05
  Q 319.80 283.02 320.59 283.00
  Q 332.16 282.71 340.25 293.04
  Z
  M 309.43 316.67
  C 308.72 328.11 308.23 342.14 323.09 342.49
  A 2.86 2.85 -71.8 0 0 325.51 341.26
  Q 336.38 325.61 334.13 306.80
  Q 333.75 303.65 330.79 300.00
  Q 324.04 291.92 313.51 291.28
  A 0.70 0.69 12.0 0 0 312.82 291.72
  Q 308.41 303.61 309.43 316.67
  Z
  M 255.29 334.38
  L 250.25 340.13
  Q 249.76 340.68 250.49 340.74
  C 264.01 341.97 269.67 318.16 269.72 308.49
  C 269.75 300.65 261.16 296.81 254.26 296.74
  A 0.92 0.91 16.3 0 0 253.49 297.16
  C 249.48 303.30 249.34 319.74 249.52 326.27
  Q 249.66 331.41 255.10 333.60
  A 0.49 0.49 0.0 0 1 255.29 334.38
  Z"
/>
<path fill="#ffffff" d="
  M 128.84 289.38
  A 1.55 1.54 0.7 0 1 129.92 290.48
  C 133.09 303.15 125.41 318.19 119.55 329.12
  C 118.24 331.56 116.71 331.99 114.28 332.80
  A 0.42 0.42 0.0 0 1 113.74 332.46
  C 112.45 321.93 112.71 308.06 111.70 295.62
  A 2.36 2.35 72.2 0 1 112.82 293.43
  C 116.41 291.26 124.35 288.12 128.84 289.38
  Z"
/>
<path fill="#ffffff" d="
  M 168.96 289.53
  Q 170.97 291.14 171.27 293.68
  A 1.00 0.99 -20.4 0 1 170.83 294.62
  Q 162.93 299.79 155.82 305.98
  Q 155.03 306.67 155.05 305.63
  L 155.21 294.25
  Q 155.24 292.55 156.79 291.82
  Q 161.74 289.51 167.20 289.00
  A 2.46 2.44 -28.0 0 1 168.96 289.53
  Z"
/>
<path fill="#ffffff" d="
  M 330.79 300.00
  C 323.15 304.31 316.58 311.39 309.43 316.67
  Q 308.41 303.61 312.82 291.72
  A 0.70 0.69 12.0 0 1 313.51 291.28
  Q 324.04 291.92 330.79 300.00
  Z"
/>
<path fill="#ffffff" d="
  M 300.46 327.00
  Q 295.83 328.79 292.65 332.54
  C 291.57 333.82 290.37 334.31 289.25 335.54
  Q 288.62 333.96 288.58 332.18
  Q 288.18 313.95 291.21 295.92
  A 0.82 0.82 0.0 0 1 291.87 295.26
  L 303.46 293.26
  Q 304.18 293.13 303.83 293.78
  Q 298.66 303.19 297.36 313.86
  A 0.45 0.45 0.0 0 0 297.92 314.35
  L 299.96 313.82
  A 0.40 0.40 0.0 0 1 300.46 314.21
  L 300.46 327.00
  Z"
/>
<path fill="#838386" d="
  M 417.25 323.79
  Q 414.12 322.74 414.29 320.19
  Q 414.43 317.91 412.27 317.16
  Q 408.24 315.76 407.96 312.75
  Q 422.66 302.92 438.37 294.80
  Q 440.80 293.54 443.56 293.36
  A 0.56 0.55 84.4 0 1 444.14 293.84
  C 444.49 296.52 434.34 305.66 432.49 307.74
  Q 425.14 316.01 417.25 323.79
  Z"
/>
<path fill="#ffffff" d="
  M 255.10 333.60
  Q 249.66 331.41 249.52 326.27
  C 249.34 319.74 249.48 303.30 253.49 297.16
  A 0.92 0.91 16.3 0 1 254.26 296.74
  C 261.16 296.81 269.75 300.65 269.72 308.49
  C 269.67 318.16 264.01 341.97 250.49 340.74
  Q 249.76 340.68 250.25 340.13
  L 255.29 334.38
  A 0.49 0.49 0.0 0 0 255.10 333.60
  Z"
/>
<path fill="#ffffff" d="
  M 156.42 308.97
  Q 163.37 302.66 171.98 298.87
  A 0.34 0.33 78.1 0 1 172.45 299.18
  C 172.57 309.49 173.24 318.50 168.57 328.07
  C 166.41 332.51 160.73 333.30 155.84 333.13
  A 0.61 0.61 0.0 0 1 155.25 332.52
  L 155.25 311.62
  A 3.60 3.58 -21.3 0 1 156.42 308.97
  Z"
/>
<path fill="#cdcdcd" d="
  M 330.79 300.00
  Q 333.75 303.65 334.13 306.80
  Q 336.38 325.61 325.51 341.26
  A 2.86 2.85 -71.8 0 1 323.09 342.49
  C 308.23 342.14 308.72 328.11 309.43 316.67
  C 316.58 311.39 323.15 304.31 330.79 300.00
  Z"
/>
<path fill="#cdcdcd" d="
  M 407.96 312.75
  Q 408.24 315.76 412.27 317.16
  Q 414.43 317.91 414.29 320.19
  Q 414.12 322.74 417.25 323.79
  Q 416.06 325.44 414.63 326.88
  Q 385.45 356.28 356.30 385.71
  C 350.76 391.31 344.75 398.35 338.70 404.45
  Q 338.18 404.98 335.69 406.00
  L 319.19 406.00
  L 306.02 405.30
  A 0.91 0.91 0.0 0 1 305.24 404.03
  Q 306.92 400.21 309.41 396.91
  C 321.41 381.01 336.35 369.67 351.46 357.04
  C 368.19 343.06 383.69 328.94 401.78 316.54
  Q 404.77 314.49 407.96 312.75
  Z"
/>
<path fill="#ffffff" d="
  M 102.94 348.79
  C 97.92 347.27 102.02 343.91 104.51 342.94
  A 0.36 0.36 0.0 0 1 105.00 343.28
  L 105.01 347.25
  Q 105.02 349.42 102.94 348.79
  Z"
/>
<path fill="#cdcdcd" d="
  M 282.94 406.00
  L 282.19 406.00
  L 280.90 405.62
  A 0.39 0.38 -66.3 0 1 280.68 405.05
  C 282.46 402.23 285.05 400.35 287.04 398.44
  C 290.94 394.69 295.50 389.47 300.29 387.00
  A 0.40 0.40 0.0 0 1 300.87 387.28
  Q 301.05 388.23 300.29 389.04
  C 294.16 395.55 288.08 404.07 282.94 406.00
  Z"
/>
</svg>
