<?xml version="1.0" encoding="UTF-8" standalone="no"?>
<!-- Created with Inkscape (http://www.inkscape.org/) -->

<svg
   xmlns:dc="http://purl.org/dc/elements/1.1/"
   xmlns:cc="http://creativecommons.org/ns#"
   xmlns:rdf="http://www.w3.org/1999/02/22-rdf-syntax-ns#"
   xmlns:svg="http://www.w3.org/2000/svg"
   xmlns="http://www.w3.org/2000/svg"
   xmlns:sodipodi="http://sodipodi.sourceforge.net/DTD/sodipodi-0.dtd"
   xmlns:inkscape="http://www.inkscape.org/namespaces/inkscape"
   width="400"
   height="600"
   viewBox="0 0 105.83333 158.75"
   version="1.1"
   id="svg8"
   inkscape:version="0.92.4 (5da689c313, 2019-01-14)"
   sodipodi:docname="18_m.svg">
  <defs
     id="defs2" />
  <sodipodi:namedview
     id="base"
     pagecolor="#ffffff"
     bordercolor="#666666"
     borderopacity="1.0"
     inkscape:pageopacity="0.0"
     inkscape:pageshadow="2"
     inkscape:zoom="1.2816667"
     inkscape:cx="200"
     inkscape:cy="362.41873"
     inkscape:document-units="mm"
     inkscape:current-layer="layer1"
     showgrid="false"
     units="px"
     showguides="true"
     inkscape:guide-bbox="true"
     inkscape:window-width="1280"
     inkscape:window-height="968"
     inkscape:window-x="0"
     inkscape:window-y="0"
     inkscape:window-maximized="1">
    <sodipodi:guide
       position="20.78869,60.476191"
       orientation="1,0"
       id="guide859"
       inkscape:locked="false" />
    <sodipodi:guide
       position="20.78869,128.88988"
       orientation="1,0"
       id="guide863"
       inkscape:locked="false" />
    <sodipodi:guide
       position="12.85119,57.641369"
       orientation="1,0"
       id="guide865"
       inkscape:locked="false" />
    <sodipodi:guide
       position="32.339612,108.51143"
       orientation="0,1"
       id="guide867"
       inkscape:locked="false" />
    <sodipodi:guide
       position="-9.0871638,97.553376"
       orientation="0,1"
       id="guide2596"
       inkscape:locked="false" />
    <sodipodi:guide
       position="-16.036171,64.144687"
       orientation="0,1"
       id="guide2598"
       inkscape:locked="false" />
  </sodipodi:namedview>
  <metadata
     id="metadata5">
    <rdf:RDF>
      <cc:Work
         rdf:about="">
        <dc:format>image/svg+xml</dc:format>
        <dc:type
           rdf:resource="http://purl.org/dc/dcmitype/StillImage" />
        <dc:title></dc:title>
      </cc:Work>
    </rdf:RDF>
  </metadata>
  <g
     inkscape:label="Layer 1"
     inkscape:groupmode="layer"
     id="layer1"
     transform="translate(0,-138.24998)">
    <rect
       style="opacity:1;fill:#ffffff;fill-opacity:0.60101007;stroke:#000000;stroke-width:0.27790931;stroke-miterlimit:4;stroke-dasharray:none;stroke-dashoffset:0;stroke-opacity:1"
       id="rect10"
       width="105.4538"
       height="158.75175"
       x="0.17799145"
       y="138.24911"
       ry="7.9375877" />
    <flowRoot
       xml:space="preserve"
       id="flowRoot851"
       style="fill:black;fill-opacity:1;stroke:none;font-family:sans-serif;font-style:normal;font-weight:normal;font-size:40px;line-height:0;letter-spacing:0px;word-spacing:0px"><flowRegion
         id="flowRegion853"><rect
           id="rect855"
           width="114.28571"
           height="65.714287"
           x="47.142857"
           y="194.28572" /></flowRegion><flowPara
         id="flowPara857" /></flowRoot>    <text
       xml:space="preserve"
       style="font-style:normal;font-weight:normal;font-size:33.90801239px;line-height:0;font-family:sans-serif;letter-spacing:0px;word-spacing:0px;fill:#666666;fill-opacity:1;stroke:none;stroke-width:0.84770024"
       x="15.076199"
       y="174.63515"
       id="text827"><tspan
         sodipodi:role="line"
         id="tspan825"
         x="15.076199"
         y="174.63515"
         style="font-style:normal;font-variant:normal;font-weight:bold;font-stretch:normal;font-family:Arsenal;-inkscape-font-specification:'Arsenal Bold';fill:#666666;stroke-width:0.84770024">18</tspan></text>
    <g
       id="g23717"
       transform="matrix(0.22042768,0,0,0.22042768,1.1768709,177.11287)">
      <g
         id="g23600"
         style="fill:none;stroke-width:2;stroke-linecap:butt">
        <path
           id="path23538"
           d="m 335.69,406 q 2.49,-1.02 3.01,-1.55 c 6.05,-6.1 12.06,-13.14 17.6,-18.74 q 29.15,-29.43 58.33,-58.83 1.43,-1.44 2.62,-3.09"
           inkscape:connector-curvature="0"
           style="vector-effect:non-scaling-stroke;stroke:#e6e6e6" />
        <path
           id="path23540"
           d="m 417.25,323.79 q 7.89,-7.78 15.24,-16.05 c 1.85,-2.08 12,-11.22 11.65,-13.9 a 0.56,0.55 84.4 0 0 -0.58,-0.48 q -2.76,0.18 -5.19,1.44 -15.71,8.12 -30.41,17.95"
           inkscape:connector-curvature="0"
           style="vector-effect:non-scaling-stroke;stroke:#c1c1c3" />
        <path
           id="path23542"
           d="m 407.96,312.75 q -3.19,1.74 -6.18,3.79 c -18.09,12.4 -33.59,26.52 -50.32,40.5 -15.11,12.63 -30.05,23.97 -42.05,39.87 q -2.49,3.3 -4.17,7.12 a 0.91,0.91 0 0 0 0.78,1.27 l 13.17,0.7"
           inkscape:connector-curvature="0"
           style="vector-effect:non-scaling-stroke;stroke:#e6e6e6" />
        <path
           id="path23544"
           d="m 282.94,406 c 5.14,-1.93 11.22,-10.45 17.35,-16.96 q 0.76,-0.81 0.58,-1.76 A 0.4,0.4 0 0 0 300.29,387 c -4.79,2.47 -9.35,7.69 -13.25,11.44 -1.99,1.91 -4.58,3.79 -6.36,6.61 a 0.39,0.38 -66.3 0 0 0.22,0.57 l 1.29,0.38"
           inkscape:connector-curvature="0"
           style="vector-effect:non-scaling-stroke;stroke:#e6e6e6" />
        <path
           id="path23546"
           d="m 273.69,406 c 5.15,-1.43 11.32,-9.86 16.38,-15.79 11.27,-13.23 23.81,-25.37 35.31,-38.47 q 6.92,-7.88 13.67,-14.59 c 23.48,-23.35 45.03,-46.71 67.02,-72.84 q 3.83,-4.55 5.49,-8.14 a 0.83,0.83 0 0 0 -0.23,-1 l -2.23,-1.81 a 1.12,1.11 -34.4 0 0 -1.05,-0.19 q -15.25,4.79 -32.84,15.07 c -13.72,8.02 -24.5,14.93 -34.96,24.8"
           inkscape:connector-curvature="0"
           style="vector-effect:non-scaling-stroke;stroke:#e6e6e6" />
        <path
           id="path23548"
           d="m 340.25,293.04 q -8.09,-10.33 -19.66,-10.04 -0.79,0.02 -17.17,3.05 c -6.78,1.25 -19.81,2.12 -26.07,7.17 a 0.79,0.79 0 0 1 -0.84,0.09 c -6.9,-3.37 -10.67,-6.4 -19.59,-4.78 q -0.9,0.17 -0.16,-0.37 2.86,-2.09 4.17,-5.44 a 1.09,1.08 -81.7 0 0 -1.1,-1.48 c -13.61,1.15 -32.65,1.52 -40.62,14.2 a 0.33,0.32 -54.7 0 0 0.07,0.43 c 0.22,0.17 0.46,0.19 0.74,0.07 9.38,-4.24 20.98,-5.26 31.2,-5.82 q 0.51,-0.03 0.24,0.4 c -1.46,2.3 -3.6,4.51 -4.83,6.61 q -12.71,21.79 -11.83,46.76 0.1,3.11 3,4.24 9.01,3.5 16.42,-2.36 c 14.5,-11.47 24.7,-27.83 24.03,-47.24 a 0.58,0.58 0 0 1 0.46,-0.59 l 4.05,-0.85 a 0.4,0.39 88.1 0 1 0.47,0.45 c -2.22,15.01 -3.71,27.99 -3.44,42.39 q 0.01,0.72 0.75,4.57"
           inkscape:connector-curvature="0"
           style="vector-effect:non-scaling-stroke;stroke:#868686" />
        <path
           id="path23550"
           d="m 280.54,344.5 q -0.71,1.27 -3.31,3.99 -23.98,25.06 -45.57,56.62 -0.29,0.41 0.21,0.43 l 18.57,0.46"
           inkscape:connector-curvature="0"
           style="vector-effect:non-scaling-stroke;stroke:#e6e6e6" />
        <path
           id="path23552"
           d="m 129.39,85.45 q 2.9,-17.51 7.66,-42.44 c 0.75,-3.94 3.57,-25.34 0.1,-27.58 -5.37,-3.48 -28.57,11.9 -33.25,15.72 q -1,0.81 -2.51,3.77 a 0.47,0.47 0 0 0 0.28,0.66 c 0.88,0.28 20.3,-12.79 25.97,-12.13 q 2.65,0.31 2.66,2.98 c 0.09,21.46 -5.48,43.02 -9.33,63.97 a 1.41,1.37 77.4 0 1 -0.52,0.85 l -2.73,2.1 q -0.57,0.44 -0.62,-0.28 -2.05,-30.15 -2.74,-60.36 a 0.34,0.34 0 0 0 -0.47,-0.31 c -9.31,3.78 -8.23,10.31 -7.93,20.14 q 0.5,16.05 1.43,32.08 c 0.22,3.83 -0.02,8.48 1.16,12.97 q 0.64,2.44 -1.08,4.28 c -3.2,3.41 -11.13,12.24 -5.99,17.2 3.38,3.24 10.9,0.88 14.19,-1.43 q 11.04,-7.73 12,-21.65 0.39,-5.53 6.16,-4.62 3.05,0.49 3.62,3.66 1.87,10.28 1.2,20.81 -0.11,1.72 1.43,0.95 c 7.3,-3.67 8.69,-10.72 9.93,-18.04 q 0.05,-0.25 0.2,-0.37 a 0.21,0.21 0 0 1 0.34,0.13 l 0.8,4.77 a 0.5,0.49 -18 0 0 0.71,0.36 c 2,-1.01 3.46,-1.89 5.82,-1.96 10.9,-0.34 24.35,0.13 34.15,-3.93 a 0.34,0.34 0 0 1 0.47,0.32 v 4.66 q 0,1.16 0.98,0.54 4.58,-2.87 7.82,-7.24 a 2.3,2.3 0 0 0 0.41,-1.8 q -1.48,-7.64 -1.64,-15.44 a 0.73,0.73 0 0 1 0.52,-0.71 l 8.73,-2.64 a 0.33,0.33 0 0 1 0.43,0.32 v 26.64 q 0,1.83 1.32,0.56 l 5.96,-5.67 q 0.6,-0.58 0.72,0.25 1.18,7.96 8.56,10.9 a 0.51,0.51 0 0 1 0.25,0.72 c -5.49,10.01 -6.87,19.42 -9.35,29.7 q -0.14,0.56 -0.48,0.09 l -6.32,-8.69 q -1.21,-1.66 -2.67,-0.2 l -6.19,6.18 a 1.04,1.03 -38.9 0 0 -0.14,1.29 q 4.29,6.68 9.65,12.61 1.3,1.42 -0.13,2.72 -10.11,9.2 -18.99,19.56 -0.19,0.22 -0.22,-0.07 c -1.09,-10.99 -2.62,-22.39 -2.49,-33.01 q 0.09,-7.46 0.63,-15.34 0.2,-2.98 -2.54,-1.8 -4.69,2.01 -6.84,7.28 c -2.66,6.52 -0.22,16.3 -1.74,23.69 q -1.83,8.96 -5.43,17.49 -0.88,2.09 -3.11,1.62 -1.59,-0.33 -3.06,-2.89 c -5.36,-9.29 -4.32,-18.42 -4.08,-31.52 a 0.33,0.33 0 0 0 -0.46,-0.31 q -7.8,3.19 -8.44,11.09 c -0.71,8.79 -3,16.96 -6.08,25.19 a 0.23,0.07 -17.8 0 1 -0.14,0.1 l -0.26,0.08 a 0.15,0.15 0 0 1 -0.2,-0.13 q -0.57,-14 1.6,-27.83 a 1.47,1.44 -20.9 0 1 0.35,-0.76 l 5.06,-5.86 q 1.24,-1.44 -0.51,-0.7 l -3.69,1.56 a 0.33,0.33 0 0 1 -0.46,-0.31 l 0.23,-10.48 a 0.96,0.96 0 0 0 -1.37,-0.89 q -8.48,4.01 -7.39,13.46 a 0.78,0.78 0 0 1 -0.62,0.85 l -15.21,2.95 a 0.45,0.44 84.2 0 1 -0.53,-0.44 l 0.09,-18.89 a 0.34,0.34 0 0 0 -0.48,-0.31 c -9.77,4.27 -7.98,11.92 -8.05,20.52 a 1.09,1.09 0 0 1 -0.42,0.84 q -3.72,2.8 -6.24,6.7 -0.45,0.7 0.38,0.7 h 5.53 a 0.5,0.5 0 0 1 0.5,0.5 v 28.95 a 0.29,0.28 77.1 0 0 0.41,0.26 c 4.17,-2.02 8.12,-5.62 8.1,-10.6 q -0.04,-9.59 0.03,-19.48 a 1.94,1.94 0 0 1 1.51,-1.88 l 13.69,-3.1 a 0.45,0.45 0 0 1 0.55,0.49 q -2.48,20.49 -1.78,34.86 c 0.11,2.31 2.96,2.44 4.55,1.16 q 7.64,-6.16 11.76,-15.26 0.21,-0.45 0.41,0 0.87,1.92 1.69,3.87 c 6.83,16.24 20.89,-2.66 24.3,-9.58 q 0.39,-0.8 0.46,0.08 l 3.07,36.6 q 0.22,2.6 -2.2,3.6 c -8.79,3.61 -20.6,-3.1 -26.18,-9.81 q -1.3,-1.55 0.4,-2.64 4.74,-3.03 7.82,-7.57 0.98,-1.44 -0.68,-0.92 c -5.33,1.68 -20.12,10.02 -16.85,17.39 3.16,7.12 12.84,11.85 19.96,12.86 q 1.68,0.23 0.36,1.3 -16.65,13.49 -25.64,32.96 a 0.51,0.51 0 0 1 -0.68,0.25 c -2.29,-1.11 -5.71,-0.76 -8.33,-1.03 a 0.39,0.39 0 0 1 -0.32,-0.53 q 6.5,-17.72 10.99,-36.05 1.65,-6.75 0.06,-13.53 a 0.79,0.78 88.2 0 0 -0.62,-0.59 c -7.36,-1.28 -18.64,3.86 -25.31,7.45 -1.92,1.04 -9.87,6.59 -9.41,8.94 a 0.42,0.41 -18.5 0 0 0.59,0.29 c 7.53,-3.86 17.12,-8.57 25.75,-8.22 a 0.6,0.6 0 0 1 0.57,0.52 c 1.68,12.87 -4.31,29.01 -9.44,42.79 q -0.71,1.9 -3.77,1.79 a 0.59,0.59 0 0 1 -0.57,-0.59 v -34.34 a 0.51,0.51 0 0 0 -0.71,-0.47 c -8.85,3.79 -8.03,10.13 -8.05,19.75 q -0.02,9.76 0.08,19.59 a 0.91,0.91 0 0 1 -0.41,0.76 c -4.76,3.16 -12.87,9.4 -11.66,14.57 a 1.83,1.82 84.4 0 0 1.71,1.41 c 12.35,0.45 18.7,-5.79 26.17,-14.35 a 1.16,1.12 18.7 0 1 0.82,-0.39 c 8.07,-0.21 9.4,11.31 8.24,17.05 a 1.09,1.07 81.8 0 1 -0.54,0.74 c -3.4,1.92 -6.04,5.37 -9.48,6.73 q -7.07,2.8 -13.97,6.04 c -6.57,3.09 -10.35,6.75 -13.79,12.75 q -1.41,2.44 0.86,0.78 l 1.84,-1.35 q 0.5,-0.36 0.52,0.26 l 1.36,37.84 a 1.1,1.09 -23.7 0 1 -0.32,0.82 c -2.49,2.53 -18.39,14.49 -9.97,18.6 a 1.61,1.58 52.6 0 0 0.98,0.14 q 5.44,-0.96 9.95,-4.11 0.77,-0.55 0.75,0.4 l -0.09,3.64 q -0.05,2.14 1.48,0.64 l 6.85,-6.74 a 1.29,1.28 -22.4 0 0 0.39,-0.92 l -0.01,-4.85 a 1.56,1.53 64 0 1 0.31,-0.93 l 4.11,-5.47 a 1.98,1.97 27.3 0 1 2.17,-0.69 c 8.56,2.72 9.05,13.81 8.2,21.23 -0.41,3.64 -2.38,6.87 -4.02,10.05 q -1.17,2.28 0.95,0.84 c 8.24,-5.6 13.13,-14.54 11.88,-24.54 -1.11,-8.87 -1.7,-16.76 -13.15,-16.27 a 0.29,0.29 0 0 1 -0.27,-0.42 c 5.76,-11.34 12.24,-23.37 14.65,-35.99 q 1.43,-7.5 -2.61,-13.34 a 0.56,0.56 0 0 1 0.13,-0.76 q 7.12,-5.31 10.42,-13.57 a 2.05,2.03 82 0 1 0.61,-0.82 c 2.52,-1.96 18.21,-16.13 17.37,-18.7 a 0.51,0.5 -19.5 0 0 -0.67,-0.31 c -3.54,1.44 -7.41,6.53 -9.84,9.52 q -1.36,1.68 -3.5,1.98 c -1.97,0.28 -3.15,-1.35 -2.98,-3.31 1.09,-12.8 7.31,-23.4 16.36,-32.25 q 1.54,-1.51 1.41,0.65 c -0.87,14 -1.33,29.38 5.13,42.88 a 0.68,0.67 55.4 0 1 -0.14,0.79 c -1.61,1.56 -11.1,10.41 -10.93,11.96 a 0.39,0.39 0 0 0 0.56,0.31 c 5.37,-2.6 8.12,-8.21 13.92,-10.92 q 4.42,-2.07 7.68,-5.67 c 5.77,-6.38 12.72,-11.56 19.52,-16.78 a 0.32,0.32 0 0 1 0.52,0.2 c 0.56,3.5 3.19,24.24 11.2,18.59 0.71,-0.5 7.67,-6.68 7.06,-7.95 a 0.55,0.55 0 0 0 -0.75,-0.25 l -1.03,0.55 a 0.86,0.85 -41.2 0 1 -0.88,-0.05 c -4.84,-3.4 -6.53,-12.76 -6.68,-18.57 a 1.2,1.2 0 0 1 0.34,-0.86 c 2.47,-2.49 10.32,-9.23 10.43,-12.46 a 0.58,0.58 0 0 0 -0.52,-0.6 q -5.62,-0.55 -11.11,0.64 a 0.46,0.46 0 0 1 -0.56,-0.44 l -0.14,-14.76 a 0.49,0.49 0 0 0 -0.73,-0.42 q -3.95,2.31 -7.11,5.63 a 0.47,0.47 0 0 1 -0.62,0.05 c -2.71,-2.03 -17.83,11.73 -18.29,15.95 q -0.27,2.48 2.22,2.49 l 15.36,0.03 a 0.53,0.52 86.9 0 1 0.52,0.47 l 0.73,7.09 a 2.37,2.37 0 0 1 -0.9,2.12 l -18.98,14.89 a 1.47,1.47 0 0 1 -2.21,-0.48 c -6.04,-11.55 -5.41,-25.46 -5.08,-41.19 a 0.66,0.65 -6.4 0 1 0.5,-0.62 c 8.08,-1.92 18.28,-8 18.21,-17.49 q -0.05,-6.33 -0.01,-12.47 a 4.3,4.24 64.5 0 1 0.9,-2.6 l 3.4,-4.34 q 0.97,-1.24 -0.53,-0.77 l -2.5,0.79 a 0.34,0.33 -3.2 0 1 -0.43,-0.38 c 1.77,-8.74 12.75,-18.14 19.34,-24.08 a 0.56,0.56 0 0 1 0.91,0.23 q 0.54,1.51 0.3,3.55 c -1.37,11.72 -2.72,36.33 15.45,36.23 4.67,-0.02 9.84,-5.8 12.52,-9.24 a 0.63,0.61 46.4 0 0 0.01,-0.74 c -0.44,-0.58 -3.54,1.75 -5.03,1.65 -11.89,-0.86 -16.13,-13.88 -14.85,-24.05 a 0.29,0.29 0 0 1 0.44,-0.21 q 12.93,8.02 26.37,15.16 a 0.79,0.78 -53.5 0 0 0.92,-0.14 l 0.82,-0.82 a 0.5,0.5 0 0 1 0.66,-0.04 l 2.91,2.17 a 0.74,0.74 0 0 0 0.94,-0.03 c 2.68,-2.27 9.3,-7.32 8.28,-10.81 a 0.52,0.52 0 0 0 -0.77,-0.3 l -1.57,0.97 a 0.53,0.52 54.1 0 1 -0.67,-0.11 c -3.9,-4.54 -2.85,-11.09 -2.96,-16.61 a 0.76,0.75 -7.8 0 1 0.57,-0.74 q 7.61,-1.95 14.5,-5.72 a 0.34,0.33 -14.7 0 1 0.5,0.29 c 0.08,11.62 -1.7,23.99 4.3,34.9 a 0.6,0.59 54.8 0 0 0.91,0.16 l 4.88,-4.22 q 0.84,-0.71 1.03,0.37 c 0.44,2.42 1.97,4.1 4.6,4.34 14.56,1.33 27.23,-6.44 33.88,-19.14 2.18,-4.17 2.44,-14.61 -4.66,-14.32 q -10.7,0.45 -18.12,8.39 -0.73,0.78 -0.74,-0.29 c -0.03,-2.81 -0.56,-5.57 1.04,-8.09 0.65,-1.04 3.55,-4.16 3.13,-5.19 a 0.47,0.46 -28.8 0 0 -0.71,-0.2 l -2.54,1.86 q -0.94,0.69 -0.94,-0.48 v -15.12 a 0.37,0.36 -12.5 0 0 -0.52,-0.33 q -10.15,4.65 -7.98,16.22 c 0.36,1.89 0.52,10.04 -1.3,13.2 q -2.76,4.78 -5.45,9.63 -0.24,0.45 -0.39,-0.04 c -2.7,-8.74 -1.99,-22.66 -1.61,-29.96 a 1.43,1.42 -21.8 0 1 0.39,-0.9 q 5.4,-5.76 6.46,-13.63 a 1.72,1.66 -55.3 0 0 -0.16,-0.98 c -3.3,-6.55 -10.95,1.05 -12.97,4.65 -1.92,3.41 -1.72,8.05 -2.24,12.09 q -0.26,1.97 -2.19,2.41 l -12.88,2.97 a 0.57,0.57 0 0 1 -0.7,-0.56 l 0.06,-12.46 a 0.4,0.4 0 0 0 -0.55,-0.37 q -9.12,3.76 -8.26,13.62 a 0.81,0.8 -16.3 0 1 -0.44,0.79 q -5.1,2.5 -7.85,7.5 -0.34,0.62 0.36,0.59 l 7.44,-0.34 a 0.5,0.5 0 0 1 0.53,0.51 l -0.01,10.72 a 0.34,0.33 -76.2 0 1 -0.49,0.3 Q 237.64,157 227.25,149.5 q -5.65,-4.09 -0.79,-9.04 12.63,-12.87 23.28,-27.41 a 0.15,0.15 0 0 0 0,-0.18 l -0.18,-0.2 a 0.39,0.39 0 0 0 -0.49,-0.08 q -4.1,2.42 -7.1,6.15 -7.51,9.31 -15.4,18.42 -1.61,1.85 -1.23,-0.57 2.18,-13.77 6.13,-27.13 a 1.24,1.23 6.1 0 1 1.1,-0.88 c 8.64,-0.55 16.53,-7.51 21.33,-14.2 q 6.92,-9.65 5.08,-20.57 c -0.39,-2.3 -0.91,-5.03 -3.48,-4.99 q -14.09,0.22 -22.69,11.02 -0.54,0.68 -0.54,-0.19 l -0.03,-6.36 a 1.35,1.31 66.2 0 1 0.32,-0.87 c 7.6,-9.01 22.38,-22.09 35,-20.92 q 1.02,0.09 0.2,0.7 c -2.67,1.95 -6.75,5.74 -5.99,9.29 1.77,8.21 2.68,14.3 2.16,23.05 q -0.47,7.8 -0.65,15.7 -0.05,2.04 1.25,3.62 l 0.63,0.76 a 0.82,0.81 56.5 0 0 1,0.21 q 4.93,-2.45 7.79,-7.15 1.05,-1.72 0.87,-3.72 c -1.08,-12.22 -1.72,-25.05 1.5,-36.39 a 0.82,0.82 0 0 1 0.64,-0.58 l 22.02,-3.92 q 0.52,-0.09 0.3,0.39 -7.88,17.38 -6.22,36.53 c 0.49,5.78 -2.95,6.89 -4.64,11.54 q -0.36,1 0.51,0.39 l 4.95,-3.48 a 0.32,0.32 0 0 1 0.49,0.17 c 1.1,3.62 4.23,10.89 9.59,6.79 1.37,-1.04 8.43,-7.64 7.85,-8.73 a 0.55,0.55 0 0 0 -0.75,-0.23 l -2.85,1.6 a 0.86,0.85 58.3 0 1 -1.12,-0.27 l -4.1,-6.1 a 1.26,1.25 -40.6 0 1 0.13,-1.57 l 21.05,-22.01 q 0.78,-0.82 0.67,0.31 -1.57,15.87 -1.57,32.35 0,4.73 2.26,8.75 a 0.44,0.43 -31.9 0 0 0.63,0.14 q 4.3,-3.05 7.56,-7.2 a 0.89,0.87 -38.6 0 0 0.11,-0.92 q -2.15,-4.63 -2.16,-8.02 -0.02,-11.52 1.62,-32.85 0.17,-2.28 1.37,-3.99 c 0.32,-0.46 5.04,-6.34 4.87,-6.64 a 0.65,0.65 0 0 0 -0.96,-0.18 l -3.77,2.93 a 0.79,0.79 0 0 1 -0.84,0.09 l -0.86,-0.43 a 1.02,1.02 0 0 0 -0.99,0.05 c -4.39,2.66 -7.42,5.72 -7.42,10.95 a 1.26,1.23 67.6 0 1 -0.35,0.87 c -5.09,5.41 -20.78,23 -21.6,23 q -0.54,0 -0.16,-0.38 1.36,-1.34 2.02,-3.12 0.38,-1.05 -0.57,-0.47 l -1.57,0.96 a 0.61,0.61 0 0 1 -0.93,-0.49 c -0.72,-12.03 0.49,-26.95 6.57,-37.02 q 1.67,-2.78 -1.52,-2.23 l -29.57,5.07 a 0.66,0.65 84.8 0 1 -0.76,-0.64 l -0.01,-3.97 Q 276.23,42.78 274,42.7 c -13.45,-0.49 -32.52,16.49 -41.21,25.91 q -0.47,0.52 -0.38,-0.18 0.79,-5.87 0.58,-11.76 -0.11,-3.06 -2.46,-1.11 c -4.28,3.55 -6.2,8.6 -11.24,10.45 a 0.78,0.77 79.8 0 1 -1.04,-0.73 V 51.61 a 0.37,0.36 -12.5 0 0 -0.52,-0.33 q -4.26,1.99 -7.01,5.96 c -1.75,2.53 -0.88,7.18 -1.06,11.51 a 0.63,0.62 86 0 1 -0.51,0.59 l -8.57,1.48 a 0.32,0.31 -4.7 0 1 -0.37,-0.31 l 0.05,-24.18 a 0.36,0.36 0 0 0 -0.49,-0.34 c -10.46,4.23 -8.61,13.88 -7.95,23.02 q 0.18,2.54 -1.94,3.95 -3.97,2.65 -6.28,6.6 -0.6,1.04 0.59,0.89 l 6.33,-0.79 a 0.87,0.87 0 0 1 0.98,0.86 l 0.01,10.22 a 1.34,1.34 0 0 1 -1.29,1.34 l -27.62,1.07 a 1.3,1.29 88.7 0 1 -1.35,-1.3 V 81.6 a 0.65,0.64 83.2 0 1 0.49,-0.63 c 8.72,-2.29 17.83,-0.87 22.51,-10.32 a 0.36,0.35 -76.9 0 0 -0.32,-0.52 q -11.1,0.17 -21.27,4.64 a 1.04,1.04 0 0 1 -1.44,-0.75 q -1.2,-6.09 -2.42,-12.85 -0.67,-3.78 3.28,-4.89 11.58,-3.26 22.23,-2.43 a 1.41,1.4 -65.4 0 0 1.11,-0.42 l 7.08,-7.17 q 0.63,-0.64 -0.27,-0.74 c -14.69,-1.48 -28.86,1.65 -39.04,12.9 -4.79,5.28 -2.33,10.01 -3.7,15.96 q -1.35,5.9 -2.79,11.44 -0.41,1.58 -0.91,0.02 c -1.92,-6 -11.56,-2.31 -16.03,-0.12 q -0.45,0.22 -0.37,-0.27"
           inkscape:connector-curvature="0"
           style="vector-effect:non-scaling-stroke;stroke:#868686" />
        <path
           id="path23554"
           d="m 335.7,128.41 c -3.26,1.82 -6.32,6.46 -7.05,10.58 q -2.93,16.64 -3.86,33.51 c -0.3,5.4 0.32,12.55 6.28,14.79 a 0.88,0.88 0 0 0 0.94,-0.19 l 7.31,-7.1 a 0.58,0.57 -51.6 0 0 -0.1,-0.9 q -5.78,-3.44 -5.7,-10.35 0.21,-19.34 4.35,-38.73 0.68,-3.19 -2.17,-1.61"
           inkscape:connector-curvature="0"
           style="vector-effect:non-scaling-stroke;stroke:#868686" />
        <path
           id="path23556"
           d="m 181.47,296 h 0.28 a 0.19,0.19 0 0 1 0.19,0.17 c 0.51,7.64 -0.97,14.36 -1.99,21.86 -0.59,4.34 -0.57,8.63 -0.58,12.97 -0.03,5.01 3.45,4.85 7.45,4.94 8.14,0.17 16.97,-10.71 20.48,-17.14 q 0.38,-0.69 0.59,0.06 c 3.84,13.51 7.68,28.61 6.96,42.73 a 1.79,1.79 0 0 1 -1.08,1.55 c -12.27,5.3 -30.53,5.38 -37.14,-8.91 a 1.51,1.51 0 0 1 0.72,-2 c 5.93,-2.85 11.07,-4.22 14.41,-10.54 q 0.36,-0.7 -0.4,-0.53 -12.45,2.74 -20.59,12.63 c -7.8,9.48 3.19,18.38 11.62,20.3 11.1,2.52 22.62,0.15 31.39,-7.57 7.95,-7 10.66,-9.84 9.7,-20.31 a 1.04,1.02 -25.4 0 1 0.31,-0.84 c 4.43,-4.2 7.61,-5.69 7.54,-12.44 q -0.17,-18.57 -1.02,-37.13 a 0.36,0.36 0 0 0 -0.49,-0.32 q -8.8,3.45 -8.08,13.25 0.96,12.77 1.06,25.58 a 0.17,0.13 -12.7 0 1 -0.11,0.13 l -0.26,0.08 a 0.11,0.1 -14.9 0 1 -0.14,-0.07 c -2.91,-13.66 -8.53,-27.98 -6.89,-41.48 0.63,-5.21 0.22,-8.38 -2.25,-12.5 a 1.34,1.33 -27.1 0 0 -1.68,-0.54 c -6.65,2.86 -8.32,7.38 -7.88,14.64 q 0.41,6.79 1.66,13.52 0.39,2.12 -0.19,4.19 -2.18,7.71 -6.81,14.17 a 1.31,1.29 11.7 0 1 -0.82,0.53 q -3.46,0.66 -6.87,-0.02 -2.22,-0.45 -2.39,-2.7 c -0.78,-9.81 1.43,-20.26 2.89,-30 q 0.47,-3.15 -0.14,-5.75 a 1.4,1.4 0 0 0 -1.65,-1.05 l -7.75,1.63 a 0.6,0.59 75.4 0 1 -0.7,-0.42 l -1.52,-5.16 q -0.88,-2.97 -3.97,-3.08 c -7.94,-0.29 -13.84,4.71 -21.84,8.95 -4.62,2.44 -7.11,6.14 -7.02,11.6 0.07,4.7 1.13,13.66 -0.9,17.78 -1.78,3.62 -3.48,6.59 -3.76,10.61 -0.34,4.98 0.16,9.13 4.19,12.24 a 1.05,1.02 -72.6 0 1 0.41,0.81 c 0.16,5.55 1.09,11.24 1.09,16.46 q -0.01,12.4 -0.26,24.8 -0.07,3.55 -2.06,6.47 -0.37,0.54 -0.26,0.7 a 0.96,0.95 -36 0 0 1.38,0.21 c 11.46,-8.85 9.7,-12.43 9.7,-25.73 q 0,-11.87 0.01,-23.8 a 0.74,0.73 -11.4 0 1 0.46,-0.68 q 3.31,-1.29 4.97,-2.44 21.91,-15.1 19.88,-42.24 a 0.16,0.15 88.2 0 1 0.15,-0.17"
           inkscape:connector-curvature="0"
           style="vector-effect:non-scaling-stroke;stroke:#868686" />
        <path
           id="path23558"
           d="m 218.4,71.88 0.05,13.36 q 0,0.62 0.35,0.11 l 4.11,-5.95 q 0.29,-0.42 0.35,-0.92 l 1.28,-10.99 q 0.11,-0.96 -0.66,-0.39 l -4.92,3.66 a 1.4,1.4 0 0 0 -0.56,1.12"
           inkscape:connector-curvature="0"
           style="vector-effect:non-scaling-stroke;stroke:#868686" />
        <path
           id="path23560"
           d="m 247.73,77.37 q -5.2,0.15 -10.11,1.98 -2.12,0.79 -2.73,2.97 -1.11,3.96 -1.76,7.45 c -0.5,2.63 -1.85,4.13 -3.41,6.11 a 0.68,0.67 -43 0 0 -0.03,0.8 c 2.71,3.95 9.64,3.73 13.89,2.88 8.44,-1.69 7.51,-14.24 6.22,-20.54 a 2.05,2.05 0 0 0 -2.07,-1.65"
           inkscape:connector-curvature="0"
           style="vector-effect:non-scaling-stroke;stroke:#868686" />
        <path
           id="path23562"
           d="m 119.25,101.32 c 0.65,-0.4 0.6,-4.05 0.65,-4.92 a 0.4,0.4 0 0 0 -0.57,-0.38 l -1.05,0.5 a 0.67,0.66 -31.1 0 0 -0.25,0.99 q 1.1,1.52 0.68,3.43 -0.18,0.82 0.54,0.38"
           inkscape:connector-curvature="0"
           style="vector-effect:non-scaling-stroke;stroke:#868686" />
        <path
           id="path23564"
           d="M 110.14,107.95 110,106.46 a 1.11,1.11 0 0 0 -0.43,-0.79 l -0.43,-0.33 q -0.56,-0.44 -0.62,0.27 -0.29,3.11 1.43,5.67 a 1.13,1.12 72.9 0 0 0.96,0.51 l 5.67,-0.13 a 0.93,0.92 -84.5 0 0 0.89,-0.74 l 1.43,-7.12 q 0.27,-1.33 -0.69,-0.37 l -5.49,5.45 q -2.29,2.27 -2.58,-0.93"
           inkscape:connector-curvature="0"
           style="vector-effect:non-scaling-stroke;stroke:#868686" />
        <path
           id="path23566"
           d="m 303.28,157.74 -0.09,9.51 a 1.1,1.06 -23.3 0 1 -0.32,0.76 l -2.89,2.88 q -0.54,0.54 0.22,0.56 c 8.98,0.27 19.61,-1.72 14.69,-14.17 q -0.75,-1.9 -2.77,-2.14 -4.43,-0.53 -8.24,1.59 a 1.16,1.15 -14.5 0 0 -0.6,1.01"
           inkscape:connector-curvature="0"
           style="vector-effect:non-scaling-stroke;stroke:#868686" />
        <path
           id="path23568"
           d="m 201.3,215.85 a 0.3,0.3 0 0 0 -0.5,-0.24 l -9.03,8.04 a 0.3,0.3 0 0 0 0.19,0.53 l 8.4,0.33 a 0.3,0.3 0 0 0 0.31,-0.28 l 0.63,-8.38"
           inkscape:connector-curvature="0"
           style="vector-effect:non-scaling-stroke;stroke:#868686" />
        <path
           id="path23570"
           d="m 212.4295,231.8094 a 1.37,0.5 -40 0 0 -1.3709,0.4976 1.37,0.5 -40 0 0 -0.7281,1.2636 1.37,0.5 -40 0 0 1.3709,-0.4976 1.37,0.5 -40 0 0 0.7281,-1.2636"
           inkscape:connector-curvature="0"
           style="vector-effect:non-scaling-stroke;stroke:#6d6d6d" />
        <path
           id="path23572"
           d="m 109.73,262.95 c 1.12,0.47 5.32,0.01 3.29,-2 a 0.83,0.83 0 0 0 -0.98,-0.13 l -2.35,1.35 q -0.77,0.44 0.04,0.78"
           inkscape:connector-curvature="0"
           style="vector-effect:non-scaling-stroke;stroke:#868686" />
        <path
           id="path23574"
           d="m 128.84,289.38 c -4.49,-1.26 -12.43,1.88 -16.02,4.05 a 2.36,2.35 72.2 0 0 -1.12,2.19 c 1.01,12.44 0.75,26.31 2.04,36.84 a 0.42,0.42 0 0 0 0.54,0.34 c 2.43,-0.81 3.96,-1.24 5.27,-3.68 5.86,-10.93 13.54,-25.97 10.37,-38.64 a 1.55,1.54 0.7 0 0 -1.08,-1.1"
           inkscape:connector-curvature="0"
           style="vector-effect:non-scaling-stroke;stroke:#868686" />
        <path
           id="path23576"
           d="m 102.94,348.79 q 2.08,0.63 2.07,-1.54 L 105,343.28 a 0.36,0.36 0 0 0 -0.49,-0.34 c -2.49,0.97 -6.59,4.33 -1.57,5.85"
           inkscape:connector-curvature="0"
           style="vector-effect:non-scaling-stroke;stroke:#868686" />
        <path
           id="path23578"
           d="m 280.54,344.5 q 1.27,2.96 3.21,4.56 1.53,1.25 3.28,0.33 c 5.47,-2.86 9.32,-7.58 9.19,-13.94 a 0.45,0.45 0 0 0 -0.43,-0.44 l -0.29,-0.02 a 0.63,0.62 -59.6 0 0 -0.37,0.1 l -4.53,3.09 a 0.56,0.56 0 0 1 -0.8,-0.2 q -0.64,-1.18 -0.55,-2.44"
           inkscape:connector-curvature="0"
           style="vector-effect:non-scaling-stroke;stroke:#6d6d6d" />
        <path
           id="path23580"
           d="m 289.25,335.54 c 1.12,-1.23 2.32,-1.72 3.4,-3 q 3.18,-3.75 7.81,-5.54"
           inkscape:connector-curvature="0"
           style="vector-effect:non-scaling-stroke;stroke:#e6e6e6" />
        <path
           id="path23582"
           d="m 300.46,327 c -0.14,7.56 -0.45,17.62 6.86,21.93 4.27,2.52 10.67,2.63 14.62,-0.49 14.38,-11.36 23.06,-30.57 20.81,-49.69 q -0.26,-2.17 -2.5,-5.71"
           inkscape:connector-curvature="0"
           style="vector-effect:non-scaling-stroke;stroke:#6d6d6d" />
        <path
           id="path23584"
           d="M 168.96,289.53 A 2.46,2.44 -28 0 0 167.2,289 q -5.46,0.51 -10.41,2.82 -1.55,0.73 -1.58,2.43 l -0.16,11.38 q -0.02,1.04 0.77,0.35 7.11,-6.19 15.01,-11.36 a 1,0.99 -20.4 0 0 0.44,-0.94 q -0.3,-2.54 -2.31,-4.15"
           inkscape:connector-curvature="0"
           style="vector-effect:non-scaling-stroke;stroke:#868686" />
        <path
           id="path23586"
           d="m 156.42,308.97 a 3.6,3.58 -21.3 0 0 -1.17,2.65 v 20.9 a 0.61,0.61 0 0 0 0.59,0.61 c 4.89,0.17 10.57,-0.62 12.73,-5.06 4.67,-9.57 4,-18.58 3.88,-28.89 a 0.34,0.33 78.1 0 0 -0.47,-0.31 q -8.61,3.79 -15.56,10.1"
           inkscape:connector-curvature="0"
           style="vector-effect:non-scaling-stroke;stroke:#868686" />
        <path
           id="path23588"
           d="m 300.46,327 v -12.79 a 0.4,0.4 0 0 0 -0.5,-0.39 l -2.04,0.53 a 0.45,0.45 0 0 1 -0.56,-0.49 q 1.3,-10.67 6.47,-20.08 0.35,-0.65 -0.37,-0.52 l -11.59,2 a 0.82,0.82 0 0 0 -0.66,0.66 q -3.03,18.03 -2.63,36.26 0.04,1.78 0.67,3.36"
           inkscape:connector-curvature="0"
           style="vector-effect:non-scaling-stroke;stroke:#868686" />
        <path
           id="path23590"
           d="m 309.43,316.67 c -0.71,11.44 -1.2,25.47 13.66,25.82 a 2.86,2.85 -71.8 0 0 2.42,-1.23 q 10.87,-15.65 8.62,-34.46 -0.38,-3.15 -3.34,-6.8"
           inkscape:connector-curvature="0"
           style="vector-effect:non-scaling-stroke;stroke:#6d6d6d" />
        <path
           id="path23592"
           d="m 330.79,300 q -6.75,-8.08 -17.28,-8.72 a 0.7,0.69 12 0 0 -0.69,0.44 q -4.41,11.89 -3.39,24.95"
           inkscape:connector-curvature="0"
           style="vector-effect:non-scaling-stroke;stroke:#868686" />
        <path
           id="path23594"
           d="m 330.79,300 c -7.64,4.31 -14.21,11.39 -21.36,16.67"
           inkscape:connector-curvature="0"
           style="vector-effect:non-scaling-stroke;stroke:#e6e6e6" />
        <path
           id="path23596"
           d="m 255.29,334.38 -5.04,5.75 q -0.49,0.55 0.24,0.61 c 13.52,1.23 19.18,-22.58 19.23,-32.25 0.03,-7.84 -8.56,-11.68 -15.46,-11.75 a 0.92,0.91 16.3 0 0 -0.77,0.42 c -4.01,6.14 -4.15,22.58 -3.97,29.11 q 0.14,5.14 5.58,7.33 a 0.49,0.49 0 0 1 0.19,0.78"
           inkscape:connector-curvature="0"
           style="vector-effect:non-scaling-stroke;stroke:#868686" />
        <path
           id="path23598"
           d="m 417.25,323.79 q -3.13,-1.05 -2.96,-3.6 0.14,-2.28 -2.02,-3.03 -4.03,-1.4 -4.31,-4.41"
           inkscape:connector-curvature="0"
           style="vector-effect:non-scaling-stroke;stroke:#a8a8aa" />
      </g>
      <path
         id="path23602"
         d="M 0,0 H 450 V 406 H 335.69 q 2.49,-1.02 3.01,-1.55 c 6.05,-6.1 12.06,-13.14 17.6,-18.74 q 29.15,-29.43 58.33,-58.83 1.43,-1.44 2.62,-3.09 7.89,-7.78 15.24,-16.05 c 1.85,-2.08 12,-11.22 11.65,-13.9 a 0.56,0.55 84.4 0 0 -0.58,-0.48 q -2.76,0.18 -5.19,1.44 -15.71,8.12 -30.41,17.95 -3.19,1.74 -6.18,3.79 c -18.09,12.4 -33.59,26.52 -50.32,40.5 -15.11,12.63 -30.05,23.97 -42.05,39.87 q -2.49,3.3 -4.17,7.12 a 0.91,0.91 0 0 0 0.78,1.27 l 13.17,0.7 h -36.25 c 5.14,-1.93 11.22,-10.45 17.35,-16.96 q 0.76,-0.81 0.58,-1.76 A 0.4,0.4 0 0 0 300.29,387 c -4.79,2.47 -9.35,7.69 -13.25,11.44 -1.99,1.91 -4.58,3.79 -6.36,6.61 a 0.39,0.38 -66.3 0 0 0.22,0.57 l 1.29,0.38 h -8.5 c 5.15,-1.43 11.32,-9.86 16.38,-15.79 11.27,-13.23 23.81,-25.37 35.31,-38.47 q 6.92,-7.88 13.67,-14.59 c 23.48,-23.35 45.03,-46.71 67.02,-72.84 q 3.83,-4.55 5.49,-8.14 a 0.83,0.83 0 0 0 -0.23,-1 l -2.23,-1.81 a 1.12,1.11 -34.4 0 0 -1.05,-0.19 q -15.25,4.79 -32.84,15.07 c -13.72,8.02 -24.5,14.93 -34.96,24.8 q -8.09,-10.33 -19.66,-10.04 -0.79,0.02 -17.17,3.05 c -6.78,1.25 -19.81,2.12 -26.07,7.17 a 0.79,0.79 0 0 1 -0.84,0.09 c -6.9,-3.37 -10.67,-6.4 -19.59,-4.78 q -0.9,0.17 -0.16,-0.37 2.86,-2.09 4.17,-5.44 a 1.09,1.08 -81.7 0 0 -1.1,-1.48 c -13.61,1.15 -32.65,1.52 -40.62,14.2 a 0.33,0.32 -54.7 0 0 0.07,0.43 c 0.22,0.17 0.46,0.19 0.74,0.07 9.38,-4.24 20.98,-5.26 31.2,-5.82 q 0.51,-0.03 0.24,0.4 c -1.46,2.3 -3.6,4.51 -4.83,6.61 q -12.71,21.79 -11.83,46.76 0.1,3.11 3,4.24 9.01,3.5 16.42,-2.36 c 14.5,-11.47 24.7,-27.83 24.03,-47.24 a 0.58,0.58 0 0 1 0.46,-0.59 l 4.05,-0.85 a 0.4,0.39 88.1 0 1 0.47,0.45 c -2.22,15.01 -3.71,27.99 -3.44,42.39 q 0.01,0.72 0.75,4.57 -0.71,1.27 -3.31,3.99 -23.98,25.06 -45.57,56.62 -0.29,0.41 0.21,0.43 L 250.44,406 H 0 Z m 129.39,85.45 q 2.9,-17.51 7.66,-42.44 c 0.75,-3.94 3.57,-25.34 0.1,-27.58 -5.37,-3.48 -28.57,11.9 -33.25,15.72 q -1,0.81 -2.51,3.77 a 0.47,0.47 0 0 0 0.28,0.66 c 0.88,0.28 20.3,-12.79 25.97,-12.13 q 2.65,0.31 2.66,2.98 c 0.09,21.46 -5.48,43.02 -9.33,63.97 a 1.41,1.37 77.4 0 1 -0.52,0.85 l -2.73,2.1 q -0.57,0.44 -0.62,-0.28 -2.05,-30.15 -2.74,-60.36 a 0.34,0.34 0 0 0 -0.47,-0.31 c -9.31,3.78 -8.23,10.31 -7.93,20.14 q 0.5,16.05 1.43,32.08 c 0.22,3.83 -0.02,8.48 1.16,12.97 q 0.64,2.44 -1.08,4.28 c -3.2,3.41 -11.13,12.24 -5.99,17.2 3.38,3.24 10.9,0.88 14.19,-1.43 q 11.04,-7.73 12,-21.65 0.39,-5.53 6.16,-4.62 3.05,0.49 3.62,3.66 1.87,10.28 1.2,20.81 -0.11,1.72 1.43,0.95 c 7.3,-3.67 8.69,-10.72 9.93,-18.04 q 0.05,-0.25 0.2,-0.37 a 0.21,0.21 0 0 1 0.34,0.13 l 0.8,4.77 a 0.5,0.49 -18 0 0 0.71,0.36 c 2,-1.01 3.46,-1.89 5.82,-1.96 10.9,-0.34 24.35,0.13 34.15,-3.93 a 0.34,0.34 0 0 1 0.47,0.32 v 4.66 q 0,1.16 0.98,0.54 4.58,-2.87 7.82,-7.24 a 2.3,2.3 0 0 0 0.41,-1.8 q -1.48,-7.64 -1.64,-15.44 a 0.73,0.73 0 0 1 0.52,-0.71 l 8.73,-2.64 a 0.33,0.33 0 0 1 0.43,0.32 v 26.64 q 0,1.83 1.32,0.56 l 5.96,-5.67 q 0.6,-0.58 0.72,0.25 1.18,7.96 8.56,10.9 a 0.51,0.51 0 0 1 0.25,0.72 c -5.49,10.01 -6.87,19.42 -9.35,29.7 q -0.14,0.56 -0.48,0.09 l -6.32,-8.69 q -1.21,-1.66 -2.67,-0.2 l -6.19,6.18 a 1.04,1.03 -38.9 0 0 -0.14,1.29 q 4.29,6.68 9.65,12.61 1.3,1.42 -0.13,2.72 -10.11,9.2 -18.99,19.56 -0.19,0.22 -0.22,-0.07 c -1.09,-10.99 -2.62,-22.39 -2.49,-33.01 q 0.09,-7.46 0.63,-15.34 0.2,-2.98 -2.54,-1.8 -4.69,2.01 -6.84,7.28 c -2.66,6.52 -0.22,16.3 -1.74,23.69 q -1.83,8.96 -5.43,17.49 -0.88,2.09 -3.11,1.62 -1.59,-0.33 -3.06,-2.89 c -5.36,-9.29 -4.32,-18.42 -4.08,-31.52 a 0.33,0.33 0 0 0 -0.46,-0.31 q -7.8,3.19 -8.44,11.09 c -0.71,8.79 -3,16.96 -6.08,25.19 a 0.23,0.07 -17.8 0 1 -0.14,0.1 l -0.26,0.08 a 0.15,0.15 0 0 1 -0.2,-0.13 q -0.57,-14 1.6,-27.83 a 1.47,1.44 -20.9 0 1 0.35,-0.76 l 5.06,-5.86 q 1.24,-1.44 -0.51,-0.7 l -3.69,1.56 a 0.33,0.33 0 0 1 -0.46,-0.31 l 0.23,-10.48 a 0.96,0.96 0 0 0 -1.37,-0.89 q -8.48,4.01 -7.39,13.46 a 0.78,0.78 0 0 1 -0.62,0.85 l -15.21,2.95 a 0.45,0.44 84.2 0 1 -0.53,-0.44 l 0.09,-18.89 a 0.34,0.34 0 0 0 -0.48,-0.31 c -9.77,4.27 -7.98,11.92 -8.05,20.52 a 1.09,1.09 0 0 1 -0.42,0.84 q -3.72,2.8 -6.24,6.7 -0.45,0.7 0.38,0.7 h 5.53 a 0.5,0.5 0 0 1 0.5,0.5 v 28.95 a 0.29,0.28 77.1 0 0 0.41,0.26 c 4.17,-2.02 8.12,-5.62 8.1,-10.6 q -0.04,-9.59 0.03,-19.48 a 1.94,1.94 0 0 1 1.51,-1.88 l 13.69,-3.1 a 0.45,0.45 0 0 1 0.55,0.49 q -2.48,20.49 -1.78,34.86 c 0.11,2.31 2.96,2.44 4.55,1.16 q 7.64,-6.16 11.76,-15.26 0.21,-0.45 0.41,0 0.87,1.92 1.69,3.87 c 6.83,16.24 20.89,-2.66 24.3,-9.58 q 0.39,-0.8 0.46,0.08 l 3.07,36.6 q 0.22,2.6 -2.2,3.6 c -8.79,3.61 -20.6,-3.1 -26.18,-9.81 q -1.3,-1.55 0.4,-2.64 4.74,-3.03 7.82,-7.57 0.98,-1.44 -0.68,-0.92 c -5.33,1.68 -20.12,10.02 -16.85,17.39 3.16,7.12 12.84,11.85 19.96,12.86 q 1.68,0.23 0.36,1.3 -16.65,13.49 -25.64,32.96 a 0.51,0.51 0 0 1 -0.68,0.25 c -2.29,-1.11 -5.71,-0.76 -8.33,-1.03 a 0.39,0.39 0 0 1 -0.32,-0.53 q 6.5,-17.72 10.99,-36.05 1.65,-6.75 0.06,-13.53 a 0.79,0.78 88.2 0 0 -0.62,-0.59 c -7.36,-1.28 -18.64,3.86 -25.31,7.45 -1.92,1.04 -9.87,6.59 -9.41,8.94 a 0.42,0.41 -18.5 0 0 0.59,0.29 c 7.53,-3.86 17.12,-8.57 25.75,-8.22 a 0.6,0.6 0 0 1 0.57,0.52 c 1.68,12.87 -4.31,29.01 -9.44,42.79 q -0.71,1.9 -3.77,1.79 a 0.59,0.59 0 0 1 -0.57,-0.59 v -34.34 a 0.51,0.51 0 0 0 -0.71,-0.47 c -8.85,3.79 -8.03,10.13 -8.05,19.75 q -0.02,9.76 0.08,19.59 a 0.91,0.91 0 0 1 -0.41,0.76 c -4.76,3.16 -12.87,9.4 -11.66,14.57 a 1.83,1.82 84.4 0 0 1.71,1.41 c 12.35,0.45 18.7,-5.79 26.17,-14.35 a 1.16,1.12 18.7 0 1 0.82,-0.39 c 8.07,-0.21 9.4,11.31 8.24,17.05 a 1.09,1.07 81.8 0 1 -0.54,0.74 c -3.4,1.92 -6.04,5.37 -9.48,6.73 q -7.07,2.8 -13.97,6.04 c -6.57,3.09 -10.35,6.75 -13.79,12.75 q -1.41,2.44 0.86,0.78 l 1.84,-1.35 q 0.5,-0.36 0.52,0.26 l 1.36,37.84 a 1.1,1.09 -23.7 0 1 -0.32,0.82 c -2.49,2.53 -18.39,14.49 -9.97,18.6 a 1.61,1.58 52.6 0 0 0.98,0.14 q 5.44,-0.96 9.95,-4.11 0.77,-0.55 0.75,0.4 l -0.09,3.64 q -0.05,2.14 1.48,0.64 l 6.85,-6.74 a 1.29,1.28 -22.4 0 0 0.39,-0.92 l -0.01,-4.85 a 1.56,1.53 64 0 1 0.31,-0.93 l 4.11,-5.47 a 1.98,1.97 27.3 0 1 2.17,-0.69 c 8.56,2.72 9.05,13.81 8.2,21.23 -0.41,3.64 -2.38,6.87 -4.02,10.05 q -1.17,2.28 0.95,0.84 c 8.24,-5.6 13.13,-14.54 11.88,-24.54 -1.11,-8.87 -1.7,-16.76 -13.15,-16.27 a 0.29,0.29 0 0 1 -0.27,-0.42 c 5.76,-11.34 12.24,-23.37 14.65,-35.99 q 1.43,-7.5 -2.61,-13.34 a 0.56,0.56 0 0 1 0.13,-0.76 q 7.12,-5.31 10.42,-13.57 a 2.05,2.03 82 0 1 0.61,-0.82 c 2.52,-1.96 18.21,-16.13 17.37,-18.7 a 0.51,0.5 -19.5 0 0 -0.67,-0.31 c -3.54,1.44 -7.41,6.53 -9.84,9.52 q -1.36,1.68 -3.5,1.98 c -1.97,0.28 -3.15,-1.35 -2.98,-3.31 1.09,-12.8 7.31,-23.4 16.36,-32.25 q 1.54,-1.51 1.41,0.65 c -0.87,14 -1.33,29.38 5.13,42.88 a 0.68,0.67 55.4 0 1 -0.14,0.79 c -1.61,1.56 -11.1,10.41 -10.93,11.96 a 0.39,0.39 0 0 0 0.56,0.31 c 5.37,-2.6 8.12,-8.21 13.92,-10.92 q 4.42,-2.07 7.68,-5.67 c 5.77,-6.38 12.72,-11.56 19.52,-16.78 a 0.32,0.32 0 0 1 0.52,0.2 c 0.56,3.5 3.19,24.24 11.2,18.59 0.71,-0.5 7.67,-6.68 7.06,-7.95 a 0.55,0.55 0 0 0 -0.75,-0.25 l -1.03,0.55 a 0.86,0.85 -41.2 0 1 -0.88,-0.05 c -4.84,-3.4 -6.53,-12.76 -6.68,-18.57 a 1.2,1.2 0 0 1 0.34,-0.86 c 2.47,-2.49 10.32,-9.23 10.43,-12.46 a 0.58,0.58 0 0 0 -0.52,-0.6 q -5.62,-0.55 -11.11,0.64 a 0.46,0.46 0 0 1 -0.56,-0.44 l -0.14,-14.76 a 0.49,0.49 0 0 0 -0.73,-0.42 q -3.95,2.31 -7.11,5.63 a 0.47,0.47 0 0 1 -0.62,0.05 c -2.71,-2.03 -17.83,11.73 -18.29,15.95 q -0.27,2.48 2.22,2.49 l 15.36,0.03 a 0.53,0.52 86.9 0 1 0.52,0.47 l 0.73,7.09 a 2.37,2.37 0 0 1 -0.9,2.12 l -18.98,14.89 a 1.47,1.47 0 0 1 -2.21,-0.48 c -6.04,-11.55 -5.41,-25.46 -5.08,-41.19 a 0.66,0.65 -6.4 0 1 0.5,-0.62 c 8.08,-1.92 18.28,-8 18.21,-17.49 q -0.05,-6.33 -0.01,-12.47 a 4.3,4.24 64.5 0 1 0.9,-2.6 l 3.4,-4.34 q 0.97,-1.24 -0.53,-0.77 l -2.5,0.79 a 0.34,0.33 -3.2 0 1 -0.43,-0.38 c 1.77,-8.74 12.75,-18.14 19.34,-24.08 a 0.56,0.56 0 0 1 0.91,0.23 q 0.54,1.51 0.3,3.55 c -1.37,11.72 -2.72,36.33 15.45,36.23 4.67,-0.02 9.84,-5.8 12.52,-9.24 a 0.63,0.61 46.4 0 0 0.01,-0.74 c -0.44,-0.58 -3.54,1.75 -5.03,1.65 -11.89,-0.86 -16.13,-13.88 -14.85,-24.05 a 0.29,0.29 0 0 1 0.44,-0.21 q 12.93,8.02 26.37,15.16 a 0.79,0.78 -53.5 0 0 0.92,-0.14 l 0.82,-0.82 a 0.5,0.5 0 0 1 0.66,-0.04 l 2.91,2.17 a 0.74,0.74 0 0 0 0.94,-0.03 c 2.68,-2.27 9.3,-7.32 8.28,-10.81 a 0.52,0.52 0 0 0 -0.77,-0.3 l -1.57,0.97 a 0.53,0.52 54.1 0 1 -0.67,-0.11 c -3.9,-4.54 -2.85,-11.09 -2.96,-16.61 a 0.76,0.75 -7.8 0 1 0.57,-0.74 q 7.61,-1.95 14.5,-5.72 a 0.34,0.33 -14.7 0 1 0.5,0.29 c 0.08,11.62 -1.7,23.99 4.3,34.9 a 0.6,0.59 54.8 0 0 0.91,0.16 l 4.88,-4.22 q 0.84,-0.71 1.03,0.37 c 0.44,2.42 1.97,4.1 4.6,4.34 14.56,1.33 27.23,-6.44 33.88,-19.14 2.18,-4.17 2.44,-14.61 -4.66,-14.32 q -10.7,0.45 -18.12,8.39 -0.73,0.78 -0.74,-0.29 c -0.03,-2.81 -0.56,-5.57 1.04,-8.09 0.65,-1.04 3.55,-4.16 3.13,-5.19 a 0.47,0.46 -28.8 0 0 -0.71,-0.2 l -2.54,1.86 q -0.94,0.69 -0.94,-0.48 v -15.12 a 0.37,0.36 -12.5 0 0 -0.52,-0.33 q -10.15,4.65 -7.98,16.22 c 0.36,1.89 0.52,10.04 -1.3,13.2 q -2.76,4.78 -5.45,9.63 -0.24,0.45 -0.39,-0.04 c -2.7,-8.74 -1.99,-22.66 -1.61,-29.96 a 1.43,1.42 -21.8 0 1 0.39,-0.9 q 5.4,-5.76 6.46,-13.63 a 1.72,1.66 -55.3 0 0 -0.16,-0.98 c -3.3,-6.55 -10.95,1.05 -12.97,4.65 -1.92,3.41 -1.72,8.05 -2.24,12.09 q -0.26,1.97 -2.19,2.41 l -12.88,2.97 a 0.57,0.57 0 0 1 -0.7,-0.56 l 0.06,-12.46 a 0.4,0.4 0 0 0 -0.55,-0.37 q -9.12,3.76 -8.26,13.62 a 0.81,0.8 -16.3 0 1 -0.44,0.79 q -5.1,2.5 -7.85,7.5 -0.34,0.62 0.36,0.59 l 7.44,-0.34 a 0.5,0.5 0 0 1 0.53,0.51 l -0.01,10.72 a 0.34,0.33 -76.2 0 1 -0.49,0.3 Q 237.64,157 227.25,149.5 q -5.65,-4.09 -0.79,-9.04 12.63,-12.87 23.28,-27.41 a 0.15,0.15 0 0 0 0,-0.18 l -0.18,-0.2 a 0.39,0.39 0 0 0 -0.49,-0.08 q -4.1,2.42 -7.1,6.15 -7.51,9.31 -15.4,18.42 -1.61,1.85 -1.23,-0.57 2.18,-13.77 6.13,-27.13 a 1.24,1.23 6.1 0 1 1.1,-0.88 c 8.64,-0.55 16.53,-7.51 21.33,-14.2 q 6.92,-9.65 5.08,-20.57 c -0.39,-2.3 -0.91,-5.03 -3.48,-4.99 q -14.09,0.22 -22.69,11.02 -0.54,0.68 -0.54,-0.19 l -0.03,-6.36 a 1.35,1.31 66.2 0 1 0.32,-0.87 c 7.6,-9.01 22.38,-22.09 35,-20.92 q 1.02,0.09 0.2,0.7 c -2.67,1.95 -6.75,5.74 -5.99,9.29 1.77,8.21 2.68,14.3 2.16,23.05 q -0.47,7.8 -0.65,15.7 -0.05,2.04 1.25,3.62 l 0.63,0.76 a 0.82,0.81 56.5 0 0 1,0.21 q 4.93,-2.45 7.79,-7.15 1.05,-1.72 0.87,-3.72 c -1.08,-12.22 -1.72,-25.05 1.5,-36.39 a 0.82,0.82 0 0 1 0.64,-0.58 l 22.02,-3.92 q 0.52,-0.09 0.3,0.39 -7.88,17.38 -6.22,36.53 c 0.49,5.78 -2.95,6.89 -4.64,11.54 q -0.36,1 0.51,0.39 l 4.95,-3.48 a 0.32,0.32 0 0 1 0.49,0.17 c 1.1,3.62 4.23,10.89 9.59,6.79 1.37,-1.04 8.43,-7.64 7.85,-8.73 a 0.55,0.55 0 0 0 -0.75,-0.23 l -2.85,1.6 a 0.86,0.85 58.3 0 1 -1.12,-0.27 l -4.1,-6.1 a 1.26,1.25 -40.6 0 1 0.13,-1.57 l 21.05,-22.01 q 0.78,-0.82 0.67,0.31 -1.57,15.87 -1.57,32.35 0,4.73 2.26,8.75 a 0.44,0.43 -31.9 0 0 0.63,0.14 q 4.3,-3.05 7.56,-7.2 a 0.89,0.87 -38.6 0 0 0.11,-0.92 q -2.15,-4.63 -2.16,-8.02 -0.02,-11.52 1.62,-32.85 0.17,-2.28 1.37,-3.99 c 0.32,-0.46 5.04,-6.34 4.87,-6.64 a 0.65,0.65 0 0 0 -0.96,-0.18 l -3.77,2.93 a 0.79,0.79 0 0 1 -0.84,0.09 l -0.86,-0.43 a 1.02,1.02 0 0 0 -0.99,0.05 c -4.39,2.66 -7.42,5.72 -7.42,10.95 a 1.26,1.23 67.6 0 1 -0.35,0.87 c -5.09,5.41 -20.78,23 -21.6,23 q -0.54,0 -0.16,-0.38 1.36,-1.34 2.02,-3.12 0.38,-1.05 -0.57,-0.47 l -1.57,0.96 a 0.61,0.61 0 0 1 -0.93,-0.49 c -0.72,-12.03 0.49,-26.95 6.57,-37.02 q 1.67,-2.78 -1.52,-2.23 l -29.57,5.07 a 0.66,0.65 84.8 0 1 -0.76,-0.64 l -0.01,-3.97 Q 276.23,42.78 274,42.7 c -13.45,-0.49 -32.52,16.49 -41.21,25.91 q -0.47,0.52 -0.38,-0.18 0.79,-5.87 0.58,-11.76 -0.11,-3.06 -2.46,-1.11 c -4.28,3.55 -6.2,8.6 -11.24,10.45 a 0.78,0.77 79.8 0 1 -1.04,-0.73 V 51.61 a 0.37,0.36 -12.5 0 0 -0.52,-0.33 q -4.26,1.99 -7.01,5.96 c -1.75,2.53 -0.88,7.18 -1.06,11.51 a 0.63,0.62 86 0 1 -0.51,0.59 l -8.57,1.48 a 0.32,0.31 -4.7 0 1 -0.37,-0.31 l 0.05,-24.18 a 0.36,0.36 0 0 0 -0.49,-0.34 c -10.46,4.23 -8.61,13.88 -7.95,23.02 q 0.18,2.54 -1.94,3.95 -3.97,2.65 -6.28,6.6 -0.6,1.04 0.59,0.89 l 6.33,-0.79 a 0.87,0.87 0 0 1 0.98,0.86 l 0.01,10.22 a 1.34,1.34 0 0 1 -1.29,1.34 l -27.62,1.07 a 1.3,1.29 88.7 0 1 -1.35,-1.3 V 81.6 a 0.65,0.64 83.2 0 1 0.49,-0.63 c 8.72,-2.29 17.83,-0.87 22.51,-10.32 a 0.36,0.35 -76.9 0 0 -0.32,-0.52 q -11.1,0.17 -21.27,4.64 a 1.04,1.04 0 0 1 -1.44,-0.75 q -1.2,-6.09 -2.42,-12.85 -0.67,-3.78 3.28,-4.89 11.58,-3.26 22.23,-2.43 a 1.41,1.4 -65.4 0 0 1.11,-0.42 l 7.08,-7.17 q 0.63,-0.64 -0.27,-0.74 c -14.69,-1.48 -28.86,1.65 -39.04,12.9 -4.79,5.28 -2.33,10.01 -3.7,15.96 q -1.35,5.9 -2.79,11.44 -0.41,1.58 -0.91,0.02 c -1.92,-6 -11.56,-2.31 -16.03,-0.12 q -0.45,0.22 -0.37,-0.27 z m 206.31,42.96 c -3.26,1.82 -6.32,6.46 -7.05,10.58 q -2.93,16.64 -3.86,33.51 c -0.3,5.4 0.32,12.55 6.28,14.79 a 0.88,0.88 0 0 0 0.94,-0.19 l 7.31,-7.1 a 0.58,0.57 -51.6 0 0 -0.1,-0.9 q -5.78,-3.44 -5.7,-10.35 0.21,-19.34 4.35,-38.73 0.68,-3.19 -2.17,-1.61 z M 181.47,296 h 0.28 a 0.19,0.19 0 0 1 0.19,0.17 c 0.51,7.64 -0.97,14.36 -1.99,21.86 -0.59,4.34 -0.57,8.63 -0.58,12.97 -0.03,5.01 3.45,4.85 7.45,4.94 8.14,0.17 16.97,-10.71 20.48,-17.14 q 0.38,-0.69 0.59,0.06 c 3.84,13.51 7.68,28.61 6.96,42.73 a 1.79,1.79 0 0 1 -1.08,1.55 c -12.27,5.3 -30.53,5.38 -37.14,-8.91 a 1.51,1.51 0 0 1 0.72,-2 c 5.93,-2.85 11.07,-4.22 14.41,-10.54 q 0.36,-0.7 -0.4,-0.53 -12.45,2.74 -20.59,12.63 c -7.8,9.48 3.19,18.38 11.62,20.3 11.1,2.52 22.62,0.15 31.39,-7.57 7.95,-7 10.66,-9.84 9.7,-20.31 a 1.04,1.02 -25.4 0 1 0.31,-0.84 c 4.43,-4.2 7.61,-5.69 7.54,-12.44 q -0.17,-18.57 -1.02,-37.13 a 0.36,0.36 0 0 0 -0.49,-0.32 q -8.8,3.45 -8.08,13.25 0.96,12.77 1.06,25.58 a 0.17,0.13 -12.7 0 1 -0.11,0.13 l -0.26,0.08 a 0.11,0.1 -14.9 0 1 -0.14,-0.07 c -2.91,-13.66 -8.53,-27.98 -6.89,-41.48 0.63,-5.21 0.22,-8.38 -2.25,-12.5 a 1.34,1.33 -27.1 0 0 -1.68,-0.54 c -6.65,2.86 -8.32,7.38 -7.88,14.64 q 0.41,6.79 1.66,13.52 0.39,2.12 -0.19,4.19 -2.18,7.71 -6.81,14.17 a 1.31,1.29 11.7 0 1 -0.82,0.53 q -3.46,0.66 -6.87,-0.02 -2.22,-0.45 -2.39,-2.7 c -0.78,-9.81 1.43,-20.26 2.89,-30 q 0.47,-3.15 -0.14,-5.75 a 1.4,1.4 0 0 0 -1.65,-1.05 l -7.75,1.63 a 0.6,0.59 75.4 0 1 -0.7,-0.42 l -1.52,-5.16 q -0.88,-2.97 -3.97,-3.08 c -7.94,-0.29 -13.84,4.71 -21.84,8.95 -4.62,2.44 -7.11,6.14 -7.02,11.6 0.07,4.7 1.13,13.66 -0.9,17.78 -1.78,3.62 -3.48,6.59 -3.76,10.61 -0.34,4.98 0.16,9.13 4.19,12.24 a 1.05,1.02 -72.6 0 1 0.41,0.81 c 0.16,5.55 1.09,11.24 1.09,16.46 q -0.01,12.4 -0.26,24.8 -0.07,3.55 -2.06,6.47 -0.37,0.54 -0.26,0.7 a 0.96,0.95 -36 0 0 1.38,0.21 c 11.46,-8.85 9.7,-12.43 9.7,-25.73 q 0,-11.87 0.01,-23.8 a 0.74,0.73 -11.4 0 1 0.46,-0.68 q 3.31,-1.29 4.97,-2.44 21.91,-15.1 19.88,-42.24 a 0.16,0.15 88.2 0 1 0.15,-0.17 z"
         inkscape:connector-curvature="0"
         style="fill:#ffffff" />
      <path
         id="path23604"
         d="m 129.76,85.72 c 4.47,-2.19 14.11,-5.88 16.03,0.12 q 0.5,1.56 0.91,-0.02 1.44,-5.54 2.79,-11.44 c 1.37,-5.95 -1.09,-10.68 3.7,-15.96 10.18,-11.25 24.35,-14.38 39.04,-12.9 q 0.9,0.1 0.27,0.74 l -7.08,7.17 a 1.41,1.4 -65.4 0 1 -1.11,0.42 q -10.65,-0.83 -22.23,2.43 -3.95,1.11 -3.28,4.89 1.22,6.76 2.42,12.85 a 1.04,1.04 0 0 0 1.44,0.75 q 10.17,-4.47 21.27,-4.64 a 0.36,0.35 -76.9 0 1 0.32,0.52 c -4.68,9.45 -13.79,8.03 -22.51,10.32 a 0.65,0.64 83.2 0 0 -0.49,0.63 v 10.25 a 1.3,1.29 88.7 0 0 1.35,1.3 l 27.62,-1.07 a 1.34,1.34 0 0 0 1.29,-1.34 L 191.5,80.52 a 0.87,0.87 0 0 0 -0.98,-0.86 l -6.33,0.79 q -1.19,0.15 -0.59,-0.89 2.31,-3.95 6.28,-6.6 2.12,-1.41 1.94,-3.95 c -0.66,-9.14 -2.51,-18.79 7.95,-23.02 a 0.36,0.36 0 0 1 0.49,0.34 l -0.05,24.18 a 0.32,0.31 -4.7 0 0 0.37,0.31 l 8.57,-1.48 a 0.63,0.62 86 0 0 0.51,-0.59 c 0.18,-4.33 -0.69,-8.98 1.06,-11.51 q 2.75,-3.97 7.01,-5.96 a 0.37,0.36 -12.5 0 1 0.52,0.33 v 13.67 a 0.78,0.77 79.8 0 0 1.04,0.73 c 5.04,-1.85 6.96,-6.9 11.24,-10.45 q 2.35,-1.95 2.46,1.11 0.21,5.89 -0.58,11.76 -0.09,0.7 0.38,0.18 C 241.48,59.19 260.55,42.21 274,42.7 q 2.23,0.08 2.24,2.31 l 0.01,3.97 a 0.66,0.65 84.8 0 0 0.76,0.64 l 29.57,-5.07 q 3.19,-0.55 1.52,2.23 c -6.08,10.07 -7.29,24.99 -6.57,37.02 a 0.61,0.61 0 0 0 0.93,0.49 l 1.57,-0.96 q 0.95,-0.58 0.57,0.47 -0.66,1.78 -2.02,3.12 -0.38,0.38 0.16,0.38 c 0.82,0 16.51,-17.59 21.6,-23 a 1.26,1.23 67.6 0 0 0.35,-0.87 c 0,-5.23 3.03,-8.29 7.42,-10.95 a 1.02,1.02 0 0 1 0.99,-0.05 l 0.86,0.43 a 0.79,0.79 0 0 0 0.84,-0.09 l 3.77,-2.93 a 0.65,0.65 0 0 1 0.96,0.18 c 0.17,0.3 -4.55,6.18 -4.87,6.64 q -1.2,1.71 -1.37,3.99 -1.64,21.33 -1.62,32.85 0.01,3.39 2.16,8.02 a 0.89,0.87 -38.6 0 1 -0.11,0.92 q -3.26,4.15 -7.56,7.2 a 0.44,0.43 -31.9 0 1 -0.63,-0.14 q -2.26,-4.02 -2.26,-8.75 0,-16.48 1.57,-32.35 0.11,-1.13 -0.67,-0.31 L 303.12,90.1 a 1.26,1.25 -40.6 0 0 -0.13,1.57 l 4.1,6.1 a 0.86,0.85 58.3 0 0 1.12,0.27 l 2.85,-1.6 a 0.55,0.55 0 0 1 0.75,0.23 c 0.58,1.09 -6.48,7.69 -7.85,8.73 -5.36,4.1 -8.49,-3.17 -9.59,-6.79 a 0.32,0.32 0 0 0 -0.49,-0.17 l -4.95,3.48 q -0.87,0.61 -0.51,-0.39 c 1.69,-4.65 5.13,-5.76 4.64,-11.54 q -1.66,-19.15 6.22,-36.53 0.22,-0.48 -0.3,-0.39 l -22.02,3.92 a 0.82,0.82 0 0 0 -0.64,0.58 c -3.22,11.34 -2.58,24.17 -1.5,36.39 q 0.18,2 -0.87,3.72 -2.86,4.7 -7.79,7.15 a 0.82,0.81 56.5 0 1 -1,-0.21 l -0.63,-0.76 q -1.3,-1.58 -1.25,-3.62 0.18,-7.9 0.65,-15.7 c 0.52,-8.75 -0.39,-14.84 -2.16,-23.05 -0.76,-3.55 3.32,-7.34 5.99,-9.29 q 0.82,-0.61 -0.2,-0.7 c -12.62,-1.17 -27.4,11.91 -35,20.92 a 1.35,1.31 66.2 0 0 -0.32,0.87 l 0.03,6.36 q 0,0.87 0.54,0.19 8.6,-10.8 22.69,-11.02 c 2.57,-0.04 3.09,2.69 3.48,4.99 q 1.84,10.92 -5.08,20.57 c -4.8,6.69 -12.69,13.65 -21.33,14.2 a 1.24,1.23 6.1 0 0 -1.1,0.88 q -3.95,13.36 -6.13,27.13 -0.38,2.42 1.23,0.57 7.89,-9.11 15.4,-18.42 3,-3.73 7.1,-6.15 a 0.39,0.39 0 0 1 0.49,0.08 l 0.18,0.2 a 0.15,0.15 0 0 1 0,0.18 q -10.65,14.54 -23.28,27.41 -4.86,4.95 0.79,9.04 10.39,7.5 21.75,13.49 a 0.34,0.33 -76.2 0 0 0.49,-0.3 l 0.01,-10.72 a 0.5,0.5 0 0 0 -0.53,-0.51 l -7.44,0.34 q -0.7,0.03 -0.36,-0.59 2.75,-5 7.85,-7.5 a 0.81,0.8 -16.3 0 0 0.44,-0.79 q -0.86,-9.86 8.26,-13.62 a 0.4,0.4 0 0 1 0.55,0.37 l -0.06,12.46 a 0.57,0.57 0 0 0 0.7,0.56 l 12.88,-2.97 q 1.93,-0.44 2.19,-2.41 c 0.52,-4.04 0.32,-8.68 2.24,-12.09 2.02,-3.6 9.67,-11.2 12.97,-4.65 a 1.72,1.66 -55.3 0 1 0.16,0.98 q -1.06,7.87 -6.46,13.63 a 1.43,1.42 -21.8 0 0 -0.39,0.9 c -0.38,7.3 -1.09,21.22 1.61,29.96 q 0.15,0.49 0.39,0.04 2.69,-4.85 5.45,-9.63 c 1.82,-3.16 1.66,-11.31 1.3,-13.2 q -2.17,-11.57 7.98,-16.22 a 0.37,0.36 -12.5 0 1 0.52,0.33 v 15.12 q 0,1.17 0.94,0.48 l 2.54,-1.86 a 0.47,0.46 -28.8 0 1 0.71,0.2 c 0.42,1.03 -2.48,4.15 -3.13,5.19 -1.6,2.52 -1.07,5.28 -1.04,8.09 q 0.01,1.07 0.74,0.29 7.42,-7.94 18.12,-8.39 c 7.1,-0.29 6.84,10.15 4.66,14.32 -6.65,12.7 -19.32,20.47 -33.88,19.14 -2.63,-0.24 -4.16,-1.92 -4.6,-4.34 q -0.19,-1.08 -1.03,-0.37 l -4.88,4.22 a 0.6,0.59 54.8 0 1 -0.91,-0.16 c -6,-10.91 -4.22,-23.28 -4.3,-34.9 a 0.34,0.33 -14.7 0 0 -0.5,-0.29 q -6.89,3.77 -14.5,5.72 a 0.76,0.75 -7.8 0 0 -0.57,0.74 c 0.11,5.52 -0.94,12.07 2.96,16.61 a 0.53,0.52 54.1 0 0 0.67,0.11 l 1.57,-0.97 a 0.52,0.52 0 0 1 0.77,0.3 c 1.02,3.49 -5.6,8.54 -8.28,10.81 a 0.74,0.74 0 0 1 -0.94,0.03 l -2.91,-2.17 a 0.5,0.5 0 0 0 -0.66,0.04 l -0.82,0.82 a 0.79,0.78 -53.5 0 1 -0.92,0.14 q -13.44,-7.14 -26.37,-15.16 a 0.29,0.29 0 0 0 -0.44,0.21 c -1.28,10.17 2.96,23.19 14.85,24.05 1.49,0.1 4.59,-2.23 5.03,-1.65 a 0.63,0.61 46.4 0 1 -0.01,0.74 c -2.68,3.44 -7.85,9.22 -12.52,9.24 -18.17,0.1 -16.82,-24.51 -15.45,-36.23 q 0.24,-2.04 -0.3,-3.55 a 0.56,0.56 0 0 0 -0.91,-0.23 c -6.59,5.94 -17.57,15.34 -19.34,24.08 a 0.34,0.33 -3.2 0 0 0.43,0.38 l 2.5,-0.79 q 1.5,-0.47 0.53,0.77 l -3.4,4.34 a 4.3,4.24 64.5 0 0 -0.9,2.6 q -0.04,6.14 0.01,12.47 c 0.07,9.49 -10.13,15.57 -18.21,17.49 a 0.66,0.65 -6.4 0 0 -0.5,0.62 c -0.33,15.73 -0.96,29.64 5.08,41.19 a 1.47,1.47 0 0 0 2.21,0.48 l 18.98,-14.89 a 2.37,2.37 0 0 0 0.9,-2.12 L 201,233.23 a 0.53,0.52 86.9 0 0 -0.52,-0.47 l -15.36,-0.03 q -2.49,-0.01 -2.22,-2.49 c 0.46,-4.22 15.58,-17.98 18.29,-15.95 a 0.47,0.47 0 0 0 0.62,-0.05 q 3.16,-3.32 7.11,-5.63 a 0.49,0.49 0 0 1 0.73,0.42 l 0.14,14.76 a 0.46,0.46 0 0 0 0.56,0.44 q 5.49,-1.19 11.11,-0.64 a 0.58,0.58 0 0 1 0.52,0.6 c -0.11,3.23 -7.96,9.97 -10.43,12.46 a 1.2,1.2 0 0 0 -0.34,0.86 c 0.15,5.81 1.84,15.17 6.68,18.57 a 0.86,0.85 -41.2 0 0 0.88,0.05 l 1.03,-0.55 a 0.55,0.55 0 0 1 0.75,0.25 c 0.61,1.27 -6.35,7.45 -7.06,7.95 -8.01,5.65 -10.64,-15.09 -11.2,-18.59 a 0.32,0.32 0 0 0 -0.52,-0.2 c -6.8,5.22 -13.75,10.4 -19.52,16.78 q -3.26,3.6 -7.68,5.67 c -5.8,2.71 -8.55,8.32 -13.92,10.92 a 0.39,0.39 0 0 1 -0.56,-0.31 c -0.17,-1.55 9.32,-10.4 10.93,-11.96 a 0.68,0.67 55.4 0 0 0.14,-0.79 c -6.46,-13.5 -6,-28.88 -5.13,-42.88 q 0.13,-2.16 -1.41,-0.65 c -9.05,8.85 -15.27,19.45 -16.36,32.25 -0.17,1.96 1.01,3.59 2.98,3.31 q 2.14,-0.3 3.5,-1.98 c 2.43,-2.99 6.3,-8.08 9.84,-9.52 a 0.51,0.5 -19.5 0 1 0.67,0.31 c 0.84,2.57 -14.85,16.74 -17.37,18.7 a 2.05,2.03 82 0 0 -0.61,0.82 q -3.3,8.26 -10.42,13.57 a 0.56,0.56 0 0 0 -0.13,0.76 q 4.04,5.84 2.61,13.34 c -2.41,12.62 -8.89,24.65 -14.65,35.99 a 0.29,0.29 0 0 0 0.27,0.42 c 11.45,-0.49 12.04,7.4 13.15,16.27 1.25,10 -3.64,18.94 -11.88,24.54 q -2.12,1.44 -0.95,-0.84 c 1.64,-3.18 3.61,-6.41 4.02,-10.05 0.85,-7.42 0.36,-18.51 -8.2,-21.23 a 1.98,1.97 27.3 0 0 -2.17,0.69 l -4.11,5.47 a 1.56,1.53 64 0 0 -0.31,0.93 l 0.01,4.85 a 1.29,1.28 -22.4 0 1 -0.39,0.92 l -6.85,6.74 q -1.53,1.5 -1.48,-0.64 l 0.09,-3.64 q 0.02,-0.95 -0.75,-0.4 -4.51,3.15 -9.95,4.11 a 1.61,1.58 52.6 0 1 -0.98,-0.14 c -8.42,-4.11 7.48,-16.07 9.97,-18.6 a 1.1,1.09 -23.7 0 0 0.32,-0.82 l -1.36,-37.84 q -0.02,-0.62 -0.52,-0.26 l -1.84,1.35 q -2.27,1.66 -0.86,-0.78 c 3.44,-6 7.22,-9.66 13.79,-12.75 q 6.9,-3.24 13.97,-6.04 c 3.44,-1.36 6.08,-4.81 9.48,-6.73 a 1.09,1.07 81.8 0 0 0.54,-0.74 c 1.16,-5.74 -0.17,-17.26 -8.24,-17.05 a 1.16,1.12 18.7 0 0 -0.82,0.39 c -7.47,8.56 -13.82,14.8 -26.17,14.35 a 1.83,1.82 84.4 0 1 -1.71,-1.41 c -1.21,-5.17 6.9,-11.41 11.66,-14.57 a 0.91,0.91 0 0 0 0.41,-0.76 q -0.1,-9.83 -0.08,-19.59 c 0.02,-9.62 -0.8,-15.96 8.05,-19.75 a 0.51,0.51 0 0 1 0.71,0.47 v 34.34 a 0.59,0.59 0 0 0 0.57,0.59 q 3.06,0.11 3.77,-1.79 c 5.13,-13.78 11.12,-29.92 9.44,-42.79 a 0.6,0.6 0 0 0 -0.57,-0.52 c -8.63,-0.35 -18.22,4.36 -25.75,8.22 a 0.42,0.41 -18.5 0 1 -0.59,-0.29 c -0.46,-2.35 7.49,-7.9 9.41,-8.94 6.67,-3.59 17.95,-8.73 25.31,-7.45 a 0.79,0.78 88.2 0 1 0.62,0.59 q 1.59,6.78 -0.06,13.53 -4.49,18.33 -10.99,36.05 a 0.39,0.39 0 0 0 0.32,0.53 c 2.62,0.27 6.04,-0.08 8.33,1.03 a 0.51,0.51 0 0 0 0.68,-0.25 q 8.99,-19.47 25.64,-32.96 1.32,-1.07 -0.36,-1.3 c -7.12,-1.01 -16.8,-5.74 -19.96,-12.86 -3.27,-7.37 11.52,-15.71 16.85,-17.39 q 1.66,-0.52 0.68,0.92 -3.08,4.54 -7.82,7.57 -1.7,1.09 -0.4,2.64 c 5.58,6.71 17.39,13.42 26.18,9.81 q 2.42,-1 2.2,-3.6 l -3.07,-36.6 q -0.07,-0.88 -0.46,-0.08 c -3.41,6.92 -17.47,25.82 -24.3,9.58 q -0.82,-1.95 -1.69,-3.87 -0.2,-0.45 -0.41,0 -4.12,9.1 -11.76,15.26 c -1.59,1.28 -4.44,1.15 -4.55,-1.16 q -0.7,-14.37 1.78,-34.86 a 0.45,0.45 0 0 0 -0.55,-0.49 l -13.69,3.1 a 1.94,1.94 0 0 0 -1.51,1.88 q -0.07,9.89 -0.03,19.48 c 0.02,4.98 -3.93,8.58 -8.1,10.6 a 0.29,0.28 77.1 0 1 -0.41,-0.26 V 155.5 a 0.5,0.5 0 0 0 -0.5,-0.5 h -5.53 q -0.83,0 -0.38,-0.7 2.52,-3.9 6.24,-6.7 a 1.09,1.09 0 0 0 0.42,-0.84 c 0.07,-8.6 -1.72,-16.25 8.05,-20.52 a 0.34,0.34 0 0 1 0.48,0.31 l -0.09,18.89 a 0.45,0.44 84.2 0 0 0.53,0.44 l 15.21,-2.95 a 0.78,0.78 0 0 0 0.62,-0.85 q -1.09,-9.45 7.39,-13.46 a 0.96,0.96 0 0 1 1.37,0.89 l -0.23,10.48 a 0.33,0.33 0 0 0 0.46,0.31 l 3.69,-1.56 q 1.75,-0.74 0.51,0.7 l -5.06,5.86 a 1.47,1.44 -20.9 0 0 -0.35,0.76 q -2.17,13.83 -1.6,27.83 a 0.15,0.15 0 0 0 0.2,0.13 l 0.26,-0.08 a 0.23,0.07 -17.8 0 0 0.14,-0.1 c 3.08,-8.23 5.37,-16.4 6.08,-25.19 q 0.64,-7.9 8.44,-11.09 a 0.33,0.33 0 0 1 0.46,0.31 c -0.24,13.1 -1.28,22.23 4.08,31.52 q 1.47,2.56 3.06,2.89 2.23,0.47 3.11,-1.62 3.6,-8.53 5.43,-17.49 c 1.52,-7.39 -0.92,-17.17 1.74,-23.69 q 2.15,-5.27 6.84,-7.28 2.74,-1.18 2.54,1.8 -0.54,7.88 -0.63,15.34 c -0.13,10.62 1.4,22.02 2.49,33.01 q 0.03,0.29 0.22,0.07 8.88,-10.36 18.99,-19.56 1.43,-1.3 0.13,-2.72 -5.36,-5.93 -9.65,-12.61 a 1.04,1.03 -38.9 0 1 0.14,-1.29 l 6.19,-6.18 q 1.46,-1.46 2.67,0.2 l 6.32,8.69 q 0.34,0.47 0.48,-0.09 c 2.48,-10.28 3.86,-19.69 9.35,-29.7 a 0.51,0.51 0 0 0 -0.25,-0.72 q -7.38,-2.94 -8.56,-10.9 -0.12,-0.83 -0.72,-0.25 l -5.96,5.67 q -1.32,1.27 -1.32,-0.56 V 75.76 a 0.33,0.33 0 0 0 -0.43,-0.32 l -8.73,2.64 a 0.73,0.73 0 0 0 -0.52,0.71 q 0.16,7.8 1.64,15.44 a 2.3,2.3 0 0 1 -0.41,1.8 q -3.24,4.37 -7.82,7.24 -0.98,0.62 -0.98,-0.54 v -4.66 a 0.34,0.34 0 0 0 -0.47,-0.32 c -9.8,4.06 -23.25,3.59 -34.15,3.93 -2.36,0.07 -3.82,0.95 -5.82,1.96 a 0.5,0.49 -18 0 1 -0.71,-0.36 l -0.8,-4.77 a 0.21,0.21 0 0 0 -0.34,-0.13 q -0.15,0.12 -0.2,0.37 c -1.24,7.32 -2.63,14.37 -9.93,18.04 q -1.54,0.77 -1.43,-0.95 0.67,-10.53 -1.2,-20.81 -0.57,-3.17 -3.62,-3.66 -5.77,-0.91 -6.16,4.62 -0.96,13.92 -12,21.65 c -3.29,2.31 -10.81,4.67 -14.19,1.43 -5.14,-4.96 2.79,-13.79 5.99,-17.2 q 1.72,-1.84 1.08,-4.28 c -1.18,-4.49 -0.94,-9.14 -1.16,-12.97 q -0.93,-16.03 -1.43,-32.08 c -0.3,-9.83 -1.38,-16.36 7.93,-20.14 a 0.34,0.34 0 0 1 0.47,0.31 q 0.69,30.21 2.74,60.36 0.05,0.72 0.62,0.28 l 2.73,-2.1 a 1.41,1.37 77.4 0 0 0.52,-0.85 c 3.85,-20.95 9.42,-42.51 9.33,-63.97 q -0.01,-2.67 -2.66,-2.98 c -5.67,-0.66 -25.09,12.41 -25.97,12.13 a 0.47,0.47 0 0 1 -0.28,-0.66 q 1.51,-2.96 2.51,-3.77 c 4.68,-3.82 27.88,-19.2 33.25,-15.72 3.47,2.24 0.65,23.64 -0.1,27.58 q -4.76,24.93 -7.66,42.44 -0.08,0.49 0.37,0.27 z m 88.64,-13.84 0.05,13.36 q 0,0.62 0.35,0.11 l 4.11,-5.95 q 0.29,-0.42 0.35,-0.92 l 1.28,-10.99 q 0.11,-0.96 -0.66,-0.39 l -4.92,3.66 a 1.4,1.4 0 0 0 -0.56,1.12 z m 29.33,5.49 q -5.2,0.15 -10.11,1.98 -2.12,0.79 -2.73,2.97 -1.11,3.96 -1.76,7.45 c -0.5,2.63 -1.85,4.13 -3.41,6.11 a 0.68,0.67 -43 0 0 -0.03,0.8 c 2.71,3.95 9.64,3.73 13.89,2.88 8.44,-1.69 7.51,-14.24 6.22,-20.54 a 2.05,2.05 0 0 0 -2.07,-1.65 z m -128.48,23.95 c 0.65,-0.4 0.6,-4.05 0.65,-4.92 a 0.4,0.4 0 0 0 -0.57,-0.38 l -1.05,0.5 a 0.67,0.66 -31.1 0 0 -0.25,0.99 q 1.1,1.52 0.68,3.43 -0.18,0.82 0.54,0.38 z m -9.11,6.63 -0.14,-1.49 a 1.11,1.11 0 0 0 -0.43,-0.79 l -0.43,-0.33 q -0.56,-0.44 -0.62,0.27 -0.29,3.11 1.43,5.67 a 1.13,1.12 72.9 0 0 0.96,0.51 l 5.67,-0.13 a 0.93,0.92 -84.5 0 0 0.89,-0.74 l 1.43,-7.12 q 0.27,-1.33 -0.69,-0.37 l -5.49,5.45 q -2.29,2.27 -2.58,-0.93 z m 193.14,49.79 -0.09,9.51 a 1.1,1.06 -23.3 0 1 -0.32,0.76 l -2.89,2.88 q -0.54,0.54 0.22,0.56 c 8.98,0.27 19.61,-1.72 14.69,-14.17 q -0.75,-1.9 -2.77,-2.14 -4.43,-0.53 -8.24,1.59 a 1.16,1.15 -14.5 0 0 -0.6,1.01 z M 201.3,215.85 a 0.3,0.3 0 0 0 -0.5,-0.24 l -9.03,8.04 a 0.3,0.3 0 0 0 0.19,0.53 l 8.4,0.33 a 0.3,0.3 0 0 0 0.31,-0.28 z m 11.1295,15.9594 a 1.37,0.5 -40 0 0 -1.3709,0.4976 1.37,0.5 -40 0 0 -0.7281,1.2636 1.37,0.5 -40 0 0 1.3709,-0.4976 1.37,0.5 -40 0 0 0.7281,-1.2636 z M 109.73,262.95 c 1.12,0.47 5.32,0.01 3.29,-2 a 0.83,0.83 0 0 0 -0.98,-0.13 l -2.35,1.35 q -0.77,0.44 0.04,0.78 z m 19.11,26.43 c -4.49,-1.26 -12.43,1.88 -16.02,4.05 a 2.36,2.35 72.2 0 0 -1.12,2.19 c 1.01,12.44 0.75,26.31 2.04,36.84 a 0.42,0.42 0 0 0 0.54,0.34 c 2.43,-0.81 3.96,-1.24 5.27,-3.68 5.86,-10.93 13.54,-25.97 10.37,-38.64 a 1.55,1.54 0.7 0 0 -1.08,-1.1 z m -25.9,59.41 q 2.08,0.63 2.07,-1.54 L 105,343.28 a 0.36,0.36 0 0 0 -0.49,-0.34 c -2.49,0.97 -6.59,4.33 -1.57,5.85 z"
         inkscape:connector-curvature="0"
         style="fill:#0c0c0c" />
      <path
         id="path23606"
         d="m 218.96,70.76 4.92,-3.66 q 0.77,-0.57 0.66,0.39 l -1.28,10.99 q -0.06,0.5 -0.35,0.92 l -4.11,5.95 q -0.35,0.51 -0.35,-0.11 L 218.4,71.88 a 1.4,1.4 0 0 1 0.56,-1.12 z"
         inkscape:connector-curvature="0"
         style="fill:#ffffff" />
      <path
         id="path23608"
         d="m 247.73,77.37 a 2.05,2.05 0 0 1 2.07,1.65 c 1.29,6.3 2.22,18.85 -6.22,20.54 -4.25,0.85 -11.18,1.07 -13.89,-2.88 a 0.68,0.67 -43 0 1 0.03,-0.8 c 1.56,-1.98 2.91,-3.48 3.41,-6.11 q 0.65,-3.49 1.76,-7.45 0.61,-2.18 2.73,-2.97 4.91,-1.83 10.11,-1.98 z"
         inkscape:connector-curvature="0"
         style="fill:#ffffff" />
      <path
         id="path23610"
         d="m 119.9,96.4 c -0.05,0.87 0,4.52 -0.65,4.92 q -0.72,0.44 -0.54,-0.38 0.42,-1.91 -0.68,-3.43 a 0.67,0.66 -31.1 0 1 0.25,-0.99 l 1.05,-0.5 a 0.4,0.4 0 0 1 0.57,0.38 z"
         inkscape:connector-curvature="0"
         style="fill:#ffffff" />
      <path
         id="path23612"
         d="m 110.14,107.95 q 0.29,3.2 2.58,0.93 l 5.49,-5.45 q 0.96,-0.96 0.69,0.37 l -1.43,7.12 a 0.93,0.92 -84.5 0 1 -0.89,0.74 l -5.67,0.13 a 1.13,1.12 72.9 0 1 -0.96,-0.51 q -1.72,-2.56 -1.43,-5.67 0.06,-0.71 0.62,-0.27 l 0.43,0.33 a 1.11,1.11 0 0 1 0.43,0.79 z"
         inkscape:connector-curvature="0"
         style="fill:#ffffff" />
      <path
         id="path23614"
         d="m 328.65,138.99 c 0.73,-4.12 3.79,-8.76 7.05,-10.58 q 2.85,-1.58 2.17,1.61 -4.14,19.39 -4.35,38.73 -0.08,6.91 5.7,10.35 a 0.58,0.57 -51.6 0 1 0.1,0.9 l -7.31,7.1 a 0.88,0.88 0 0 1 -0.94,0.19 c -5.96,-2.24 -6.58,-9.39 -6.28,-14.79 q 0.93,-16.87 3.86,-33.51 z"
         inkscape:connector-curvature="0"
         style="fill:#0c0c0c" />
      <path
         id="path23616"
         d="m 303.88,156.73 q 3.81,-2.12 8.24,-1.59 2.02,0.24 2.77,2.14 c 4.92,12.45 -5.71,14.44 -14.69,14.17 q -0.76,-0.02 -0.22,-0.56 l 2.89,-2.88 a 1.1,1.06 -23.3 0 0 0.32,-0.76 l 0.09,-9.51 a 1.16,1.15 -14.5 0 1 0.6,-1.01 z"
         inkscape:connector-curvature="0"
         style="fill:#ffffff" />
      <path
         id="path23618"
         d="m 201.3,215.85 -0.63,8.38 a 0.3,0.3 0 0 1 -0.31,0.28 l -8.4,-0.33 a 0.3,0.3 0 0 1 -0.19,-0.53 l 9.03,-8.04 a 0.3,0.3 0 0 1 0.5,0.24 z"
         inkscape:connector-curvature="0"
         style="fill:#ffffff" />
      <ellipse
         id="ellipse23620"
         ry="0.5"
         rx="1.37"
         transform="rotate(-40,425.34526,-174.03589)"
         cy="0"
         cx="0"
         style="fill:#cdcdcd" />
      <path
         id="path23622"
         d="m 273.69,406 h -23.25 l -18.57,-0.46 q -0.5,-0.02 -0.21,-0.43 21.59,-31.56 45.57,-56.62 2.6,-2.72 3.31,-3.99 1.27,2.96 3.21,4.56 1.53,1.25 3.28,0.33 c 5.47,-2.86 9.32,-7.58 9.19,-13.94 a 0.45,0.45 0 0 0 -0.43,-0.44 l -0.29,-0.02 a 0.63,0.62 -59.6 0 0 -0.37,0.1 l -4.53,3.09 a 0.56,0.56 0 0 1 -0.8,-0.2 q -0.64,-1.18 -0.55,-2.44 c 1.12,-1.23 2.32,-1.72 3.4,-3 q 3.18,-3.75 7.81,-5.54 c -0.14,7.56 -0.45,17.62 6.86,21.93 4.27,2.52 10.67,2.63 14.62,-0.49 14.38,-11.36 23.06,-30.57 20.81,-49.69 q -0.26,-2.17 -2.5,-5.71 c 10.46,-9.87 21.24,-16.78 34.96,-24.8 q 17.59,-10.28 32.84,-15.07 a 1.12,1.11 -34.4 0 1 1.05,0.19 l 2.23,1.81 a 0.83,0.83 0 0 1 0.23,1 q -1.66,3.59 -5.49,8.14 c -21.99,26.13 -43.54,49.49 -67.02,72.84 q -6.75,6.71 -13.67,14.59 c -11.5,13.1 -24.04,25.24 -35.31,38.47 -5.06,5.93 -11.23,14.36 -16.38,15.79 z"
         inkscape:connector-curvature="0"
         style="fill:#cdcdcd" />
      <path
         id="path23624"
         d="m 113.02,260.95 c 2.03,2.01 -2.17,2.47 -3.29,2 q -0.81,-0.34 -0.04,-0.78 l 2.35,-1.35 a 0.83,0.83 0 0 1 0.98,0.13 z"
         inkscape:connector-curvature="0"
         style="fill:#ffffff" />
      <path
         id="path23626"
         d="m 181.32,296.17 q 2.03,27.14 -19.88,42.24 -1.66,1.15 -4.97,2.44 a 0.74,0.73 -11.4 0 0 -0.46,0.68 Q 156,353.46 156,365.33 c 0,13.3 1.76,16.88 -9.7,25.73 a 0.96,0.95 -36 0 1 -1.38,-0.21 q -0.11,-0.16 0.26,-0.7 1.99,-2.92 2.06,-6.47 0.25,-12.4 0.26,-24.8 c 0,-5.22 -0.93,-10.91 -1.09,-16.46 A 1.05,1.02 -72.6 0 0 146,341.61 c -4.03,-3.11 -4.53,-7.26 -4.19,-12.24 0.28,-4.02 1.98,-6.99 3.76,-10.61 2.03,-4.12 0.97,-13.08 0.9,-17.78 -0.09,-5.46 2.4,-9.16 7.02,-11.6 8,-4.24 13.9,-9.24 21.84,-8.95 q 3.09,0.11 3.97,3.08 l 1.52,5.16 a 0.6,0.59 75.4 0 0 0.7,0.42 l 7.75,-1.63 a 1.4,1.4 0 0 1 1.65,1.05 q 0.61,2.6 0.14,5.75 c -1.46,9.74 -3.67,20.19 -2.89,30 q 0.17,2.25 2.39,2.7 3.41,0.68 6.87,0.02 a 1.31,1.29 11.7 0 0 0.82,-0.53 q 4.63,-6.46 6.81,-14.17 0.58,-2.07 0.19,-4.19 -1.25,-6.73 -1.66,-13.52 c -0.44,-7.26 1.23,-11.78 7.88,-14.64 a 1.34,1.33 -27.1 0 1 1.68,0.54 c 2.47,4.12 2.88,7.29 2.25,12.5 -1.64,13.5 3.98,27.82 6.89,41.48 a 0.11,0.1 -14.9 0 0 0.14,0.07 l 0.26,-0.08 a 0.17,0.13 -12.7 0 0 0.11,-0.13 q -0.1,-12.81 -1.06,-25.58 -0.72,-9.8 8.08,-13.25 a 0.36,0.36 0 0 1 0.49,0.32 q 0.85,18.56 1.02,37.13 c 0.07,6.75 -3.11,8.24 -7.54,12.44 a 1.04,1.02 -25.4 0 0 -0.31,0.84 c 0.96,10.47 -1.75,13.31 -9.7,20.31 -8.77,7.72 -20.29,10.09 -31.39,7.57 -8.43,-1.92 -19.42,-10.82 -11.62,-20.3 q 8.14,-9.89 20.59,-12.63 0.76,-0.17 0.4,0.53 c -3.34,6.32 -8.48,7.69 -14.41,10.54 a 1.51,1.51 0 0 0 -0.72,2 c 6.61,14.29 24.87,14.21 37.14,8.91 a 1.79,1.79 0 0 0 1.08,-1.55 c 0.72,-14.12 -3.12,-29.22 -6.96,-42.73 q -0.21,-0.75 -0.59,-0.06 c -3.51,6.43 -12.34,17.31 -20.48,17.14 -4,-0.09 -7.48,0.07 -7.45,-4.94 0.01,-4.34 -0.01,-8.63 0.58,-12.97 1.02,-7.5 2.5,-14.22 1.99,-21.86 A 0.19,0.19 0 0 0 181.75,296 h -0.28 a 0.16,0.15 88.2 0 0 -0.15,0.17 z m -12.36,-6.64 A 2.46,2.44 -28 0 0 167.2,289 q -5.46,0.51 -10.41,2.82 -1.55,0.73 -1.58,2.43 l -0.16,11.38 q -0.02,1.04 0.77,0.35 7.11,-6.19 15.01,-11.36 a 1,0.99 -20.4 0 0 0.44,-0.94 q -0.3,-2.54 -2.31,-4.15 z m -12.54,19.44 a 3.6,3.58 -21.3 0 0 -1.17,2.65 v 20.9 a 0.61,0.61 0 0 0 0.59,0.61 c 4.89,0.17 10.57,-0.62 12.73,-5.06 4.67,-9.57 4,-18.58 3.88,-28.89 a 0.34,0.33 78.1 0 0 -0.47,-0.31 q -8.61,3.79 -15.56,10.1 z"
         inkscape:connector-curvature="0"
         style="fill:#0c0c0c" />
      <path
         id="path23628"
         d="m 340.25,293.04 q 2.24,3.54 2.5,5.71 c 2.25,19.12 -6.43,38.33 -20.81,49.69 -3.95,3.12 -10.35,3.01 -14.62,0.49 -7.31,-4.31 -7,-14.37 -6.86,-21.93 v -12.79 a 0.4,0.4 0 0 0 -0.5,-0.39 l -2.04,0.53 a 0.45,0.45 0 0 1 -0.56,-0.49 q 1.3,-10.67 6.47,-20.08 0.35,-0.65 -0.37,-0.52 l -11.59,2 a 0.82,0.82 0 0 0 -0.66,0.66 q -3.03,18.03 -2.63,36.26 0.04,1.78 0.67,3.36 -0.09,1.26 0.55,2.44 a 0.56,0.56 0 0 0 0.8,0.2 l 4.53,-3.09 a 0.63,0.62 -59.6 0 1 0.37,-0.1 l 0.29,0.02 a 0.45,0.45 0 0 1 0.43,0.44 c 0.13,6.36 -3.72,11.08 -9.19,13.94 q -1.75,0.92 -3.28,-0.33 -1.94,-1.6 -3.21,-4.56 -0.74,-3.85 -0.75,-4.57 c -0.27,-14.4 1.22,-27.38 3.44,-42.39 a 0.4,0.39 88.1 0 0 -0.47,-0.45 l -4.05,0.85 a 0.58,0.58 0 0 0 -0.46,0.59 c 0.67,19.41 -9.53,35.77 -24.03,47.24 q -7.41,5.86 -16.42,2.36 -2.9,-1.13 -3,-4.24 -0.88,-24.97 11.83,-46.76 c 1.23,-2.1 3.37,-4.31 4.83,-6.61 q 0.27,-0.43 -0.24,-0.4 c -10.22,0.56 -21.82,1.58 -31.2,5.82 -0.28,0.12 -0.52,0.1 -0.74,-0.07 a 0.33,0.32 -54.7 0 1 -0.07,-0.43 c 7.97,-12.68 27.01,-13.05 40.62,-14.2 a 1.09,1.08 -81.7 0 1 1.1,1.48 q -1.31,3.35 -4.17,5.44 -0.74,0.54 0.16,0.37 c 8.92,-1.62 12.69,1.41 19.59,4.78 a 0.79,0.79 0 0 0 0.84,-0.09 c 6.26,-5.05 19.29,-5.92 26.07,-7.17 q 16.38,-3.03 17.17,-3.05 11.57,-0.29 19.66,10.04 z m -30.82,23.63 c -0.71,11.44 -1.2,25.47 13.66,25.82 a 2.86,2.85 -71.8 0 0 2.42,-1.23 q 10.87,-15.65 8.62,-34.46 -0.38,-3.15 -3.34,-6.8 -6.75,-8.08 -17.28,-8.72 a 0.7,0.69 12 0 0 -0.69,0.44 q -4.41,11.89 -3.39,24.95 z m -54.14,17.71 -5.04,5.75 q -0.49,0.55 0.24,0.61 c 13.52,1.23 19.18,-22.58 19.23,-32.25 0.03,-7.84 -8.56,-11.68 -15.46,-11.75 a 0.92,0.91 16.3 0 0 -0.77,0.42 c -4.01,6.14 -4.15,22.58 -3.97,29.11 q 0.14,5.14 5.58,7.33 a 0.49,0.49 0 0 1 0.19,0.78 z"
         inkscape:connector-curvature="0"
         style="fill:#0c0c0c" />
      <path
         id="path23630"
         d="m 128.84,289.38 a 1.55,1.54 0.7 0 1 1.08,1.1 c 3.17,12.67 -4.51,27.71 -10.37,38.64 -1.31,2.44 -2.84,2.87 -5.27,3.68 a 0.42,0.42 0 0 1 -0.54,-0.34 c -1.29,-10.53 -1.03,-24.4 -2.04,-36.84 a 2.36,2.35 72.2 0 1 1.12,-2.19 c 3.59,-2.17 11.53,-5.31 16.02,-4.05 z"
         inkscape:connector-curvature="0"
         style="fill:#ffffff" />
      <path
         id="path23632"
         d="m 168.96,289.53 q 2.01,1.61 2.31,4.15 a 1,0.99 -20.4 0 1 -0.44,0.94 q -7.9,5.17 -15.01,11.36 -0.79,0.69 -0.77,-0.35 l 0.16,-11.38 q 0.03,-1.7 1.58,-2.43 4.95,-2.31 10.41,-2.82 a 2.46,2.44 -28 0 1 1.76,0.53 z"
         inkscape:connector-curvature="0"
         style="fill:#ffffff" />
      <path
         id="path23634"
         d="m 330.79,300 c -7.64,4.31 -14.21,11.39 -21.36,16.67 q -1.02,-13.06 3.39,-24.95 a 0.7,0.69 12 0 1 0.69,-0.44 q 10.53,0.64 17.28,8.72 z"
         inkscape:connector-curvature="0"
         style="fill:#ffffff" />
      <path
         id="path23636"
         d="m 300.46,327 q -4.63,1.79 -7.81,5.54 c -1.08,1.28 -2.28,1.77 -3.4,3 q -0.63,-1.58 -0.67,-3.36 -0.4,-18.23 2.63,-36.26 a 0.82,0.82 0 0 1 0.66,-0.66 l 11.59,-2 q 0.72,-0.13 0.37,0.52 -5.17,9.41 -6.47,20.08 a 0.45,0.45 0 0 0 0.56,0.49 l 2.04,-0.53 a 0.4,0.4 0 0 1 0.5,0.39 z"
         inkscape:connector-curvature="0"
         style="fill:#ffffff" />
      <path
         id="path23638"
         d="m 417.25,323.79 q -3.13,-1.05 -2.96,-3.6 0.14,-2.28 -2.02,-3.03 -4.03,-1.4 -4.31,-4.41 14.7,-9.83 30.41,-17.95 2.43,-1.26 5.19,-1.44 a 0.56,0.55 84.4 0 1 0.58,0.48 c 0.35,2.68 -9.8,11.82 -11.65,13.9 q -7.35,8.27 -15.24,16.05 z"
         inkscape:connector-curvature="0"
         style="fill:#838386" />
      <path
         id="path23640"
         d="m 255.1,333.6 q -5.44,-2.19 -5.58,-7.33 c -0.18,-6.53 -0.04,-22.97 3.97,-29.11 a 0.92,0.91 16.3 0 1 0.77,-0.42 c 6.9,0.07 15.49,3.91 15.46,11.75 -0.05,9.67 -5.71,33.48 -19.23,32.25 q -0.73,-0.06 -0.24,-0.61 l 5.04,-5.75 a 0.49,0.49 0 0 0 -0.19,-0.78 z"
         inkscape:connector-curvature="0"
         style="fill:#ffffff" />
      <path
         id="path23642"
         d="m 156.42,308.97 q 6.95,-6.31 15.56,-10.1 a 0.34,0.33 78.1 0 1 0.47,0.31 c 0.12,10.31 0.79,19.32 -3.88,28.89 -2.16,4.44 -7.84,5.23 -12.73,5.06 a 0.61,0.61 0 0 1 -0.59,-0.61 v -20.9 a 3.6,3.58 -21.3 0 1 1.17,-2.65 z"
         inkscape:connector-curvature="0"
         style="fill:#ffffff" />
      <path
         id="path23644"
         d="m 330.79,300 q 2.96,3.65 3.34,6.8 2.25,18.81 -8.62,34.46 a 2.86,2.85 -71.8 0 1 -2.42,1.23 c -14.86,-0.35 -14.37,-14.38 -13.66,-25.82 7.15,-5.28 13.72,-12.36 21.36,-16.67 z"
         inkscape:connector-curvature="0"
         style="fill:#cdcdcd" />
      <path
         id="path23646"
         d="m 407.96,312.75 q 0.28,3.01 4.31,4.41 2.16,0.75 2.02,3.03 -0.17,2.55 2.96,3.6 -1.19,1.65 -2.62,3.09 -29.18,29.4 -58.33,58.83 c -5.54,5.6 -11.55,12.64 -17.6,18.74 q -0.52,0.53 -3.01,1.55 h -16.5 l -13.17,-0.7 a 0.91,0.91 0 0 1 -0.78,-1.27 q 1.68,-3.82 4.17,-7.12 c 12,-15.9 26.94,-27.24 42.05,-39.87 16.73,-13.98 32.23,-28.1 50.32,-40.5 q 2.99,-2.05 6.18,-3.79 z"
         inkscape:connector-curvature="0"
         style="fill:#cdcdcd" />
      <path
         id="path23648"
         d="m 102.94,348.79 c -5.02,-1.52 -0.92,-4.88 1.57,-5.85 a 0.36,0.36 0 0 1 0.49,0.34 l 0.01,3.97 q 0.01,2.17 -2.07,1.54 z"
         inkscape:connector-curvature="0"
         style="fill:#ffffff" />
      <path
         id="path23650"
         d="m 282.94,406 h -0.75 l -1.29,-0.38 a 0.39,0.38 -66.3 0 1 -0.22,-0.57 c 1.78,-2.82 4.37,-4.7 6.36,-6.61 3.9,-3.75 8.46,-8.97 13.25,-11.44 a 0.4,0.4 0 0 1 0.58,0.28 q 0.18,0.95 -0.58,1.76 c -6.13,6.51 -12.21,15.03 -17.35,16.96 z"
         inkscape:connector-curvature="0"
         style="fill:#cdcdcd" />
    </g>
  </g>
</svg>
