<?xml version="1.0" encoding="UTF-8" standalone="no"?>
<!-- Created with Inkscape (http://www.inkscape.org/) -->

<svg
   xmlns:dc="http://purl.org/dc/elements/1.1/"
   xmlns:cc="http://creativecommons.org/ns#"
   xmlns:rdf="http://www.w3.org/1999/02/22-rdf-syntax-ns#"
   xmlns:svg="http://www.w3.org/2000/svg"
   xmlns="http://www.w3.org/2000/svg"
   xmlns:sodipodi="http://sodipodi.sourceforge.net/DTD/sodipodi-0.dtd"
   xmlns:inkscape="http://www.inkscape.org/namespaces/inkscape"
   width="400"
   height="600"
   viewBox="0 0 105.83333 158.75"
   version="1.1"
   id="svg8"
   inkscape:version="0.92.4 (5da689c313, 2019-01-14)"
   sodipodi:docname="19_m.svg">
  <defs
     id="defs2" />
  <sodipodi:namedview
     id="base"
     pagecolor="#ffffff"
     bordercolor="#666666"
     borderopacity="1.0"
     inkscape:pageopacity="0.0"
     inkscape:pageshadow="2"
     inkscape:zoom="1.2816667"
     inkscape:cx="200"
     inkscape:cy="362.41873"
     inkscape:document-units="mm"
     inkscape:current-layer="layer1"
     showgrid="false"
     units="px"
     showguides="true"
     inkscape:guide-bbox="true"
     inkscape:window-width="1280"
     inkscape:window-height="968"
     inkscape:window-x="0"
     inkscape:window-y="0"
     inkscape:window-maximized="1">
    <sodipodi:guide
       position="20.78869,60.476191"
       orientation="1,0"
       id="guide859"
       inkscape:locked="false" />
    <sodipodi:guide
       position="20.78869,128.88988"
       orientation="1,0"
       id="guide863"
       inkscape:locked="false" />
    <sodipodi:guide
       position="12.85119,57.641369"
       orientation="1,0"
       id="guide865"
       inkscape:locked="false" />
    <sodipodi:guide
       position="32.339612,108.51143"
       orientation="0,1"
       id="guide867"
       inkscape:locked="false" />
    <sodipodi:guide
       position="-9.0871638,97.553376"
       orientation="0,1"
       id="guide2596"
       inkscape:locked="false" />
    <sodipodi:guide
       position="-16.036171,64.144687"
       orientation="0,1"
       id="guide2598"
       inkscape:locked="false" />
  </sodipodi:namedview>
  <metadata
     id="metadata5">
    <rdf:RDF>
      <cc:Work
         rdf:about="">
        <dc:format>image/svg+xml</dc:format>
        <dc:type
           rdf:resource="http://purl.org/dc/dcmitype/StillImage" />
        <dc:title></dc:title>
      </cc:Work>
    </rdf:RDF>
  </metadata>
  <g
     inkscape:label="Layer 1"
     inkscape:groupmode="layer"
     id="layer1"
     transform="translate(0,-138.24998)">
    <rect
       style="opacity:1;fill:#ffffff;fill-opacity:0.60101007;stroke:#000000;stroke-width:0.27790931;stroke-miterlimit:4;stroke-dasharray:none;stroke-dashoffset:0;stroke-opacity:1"
       id="rect10"
       width="105.4538"
       height="158.75175"
       x="0.17799145"
       y="138.24911"
       ry="7.9375877" />
    <flowRoot
       xml:space="preserve"
       id="flowRoot851"
       style="fill:black;fill-opacity:1;stroke:none;font-family:sans-serif;font-style:normal;font-weight:normal;font-size:40px;line-height:0;letter-spacing:0px;word-spacing:0px"><flowRegion
         id="flowRegion853"><rect
           id="rect855"
           width="114.28571"
           height="65.714287"
           x="47.142857"
           y="194.28572" /></flowRegion><flowPara
         id="flowPara857" /></flowRoot>    <text
       xml:space="preserve"
       style="font-style:normal;font-weight:normal;font-size:33.90801239px;line-height:0;font-family:sans-serif;letter-spacing:0px;word-spacing:0px;fill:#666666;fill-opacity:1;stroke:none;stroke-width:0.84770024"
       x="15.076199"
       y="174.63515"
       id="text827"><tspan
         sodipodi:role="line"
         id="tspan825"
         x="15.076199"
         y="174.63515"
         style="font-style:normal;font-variant:normal;font-weight:bold;font-stretch:normal;font-family:Arsenal;-inkscape-font-specification:'Arsenal Bold';fill:#666666;stroke-width:0.84770024">19</tspan></text>
    <g
       id="g24543"
       transform="matrix(0.20733911,0,0,0.20733911,8.9150475,179.01347)">
      <g
         id="g24372"
         style="fill:none;stroke-width:2;stroke-linecap:butt">
        <path
           id="path24286"
           d="m 242.06,0 c -0.61,0.37 -1.02,0.73 -1.29,1.45 -1.29,3.5 -3.83,4.51 -5.88,7.2 q -1.79,2.35 -4.24,4.08 a 2.01,1.97 -6.4 0 0 -0.67,0.82 q -1.96,4.54 -2.28,9.47 a 1.72,1.64 -26.5 0 1 -0.32,0.88 c -2.51,3.48 -13.09,20.4 -9.74,21.43 a 0.6,0.6 0 0 0 0.75,-0.43 q 1.03,-4.03 4.56,-6.31 0.78,-0.5 0.29,0.29 -2.78,4.51 -3.46,9.82 -0.28,2.23 1.8,3.07 0.82,0.34 2.63,-0.02"
           inkscape:connector-curvature="0"
           style="vector-effect:non-scaling-stroke;stroke:#eaeaea" />
        <path
           id="path24288"
           d="M 224.21,51.75 V 69.5 a 0.5,0.5 0 0 1 -0.5,0.5 h -9.55 a 0.6,0.6 0 0 1 -0.6,-0.59 l -0.42,-22.69 q -0.01,-0.57 -0.5,-0.28 -4.53,2.75 -7.64,7.09 a 1.34,1.34 0 0 0 -0.25,0.78 v 16.63 a 0.87,0.87 0 0 1 -0.37,0.71 q -3.43,2.41 -5.63,5.98 -0.38,0.62 0.35,0.62 h 5.05 a 0.67,0.67 0 0 1 0.67,0.65 l 0.23,10.48 a 1.25,1.24 -12.1 0 1 -0.77,1.18 q -12.45,5.11 -25.96,4.24 a 0.41,0.41 0 0 1 -0.37,-0.52 q 2.14,-7.19 0.44,-14.47 a 0.34,0.33 -10.7 0 1 0.29,-0.41 l 6.75,-0.9 a 0.51,0.51 0 0 1 0.55,0.65 q -0.2,0.67 -0.56,1.28 a 0.37,0.02 -58.9 0 0 -0.17,0.32 l 0.09,0.24 a 0.28,0.28 0 0 0 0.4,0.15 c 3.12,-1.7 8.82,-6.29 8.77,-10.21 a 1.12,1.11 -4.9 0 0 -1.3,-1.09 l -16.42,2.61 a 0.71,0.69 67.3 0 1 -0.7,-0.3 q -2.72,-3.9 -3.12,-8.63 a 1.11,1.11 0 0 1 0.6,-1.08 q 10.77,-5.52 22.89,-5.85 0.39,-0.01 0.74,0.15 l 0.39,0.17 a 0.87,0.86 41.2 0 0 0.81,-0.05 q 4.68,-2.85 7.31,-7.67 a 0.49,0.49 0 0 0 -0.42,-0.73 q -20.07,-0.41 -34.78,12.8 c -4.99,4.47 -7.74,9.8 -4.46,16.02 a 0.92,0.92 0 0 1 -0.07,0.96 q -4.44,6.23 -6.31,13.74 -0.58,2.31 -2.6,1.05 -9.39,-5.88 -13.53,-16.22 a 3.22,3.22 0 0 1 0.13,-2.68 c 4.07,-7.75 8.55,-16.91 14.31,-23.47 3.96,-4.5 12.18,-5.23 14.26,-11.71 a 0.45,0.45 0 0 0 -0.34,-0.58 q -1.64,-0.31 -2.88,0.39 c -10.93,6.2 -17.91,15.58 -24.85,26.02 q -1.06,1.6 -0.99,-0.32 c 0.48,-12.58 1.06,-25.17 4.34,-37.28 q 0.13,-0.51 -0.34,-0.29 C 136.97,31.61 136,44.11 135.65,54.95 a 0.27,0.27 0 0 1 -0.41,0.22 c -3.14,-1.85 -7.82,4.68 -8.72,6.66 a 1.37,1.36 49.4 0 0 -0.07,0.97 q 2.93,10.01 7.25,19.5 a 2,1.99 45.5 0 1 -0.01,1.67 l -6.85,14.65 q -0.28,0.6 -0.36,-0.06 -1.7,-14.51 -2.54,-29.09 c -0.31,-5.29 -1.33,-13.66 -1.22,-20.58 a 0.43,0.43 0 0 0 -0.64,-0.39 q -4.33,2.37 -7.41,6.26 a 1.35,1.27 66.2 0 0 -0.28,0.79 q -0.06,11.74 -1.05,23.44 -0.54,6.41 -2.24,10.97 -1.27,3.42 -3.59,0.61 C 100.27,81.78 100.42,70.92 99.68,60.2 a 0.64,0.63 -15.2 0 0 -0.92,-0.52 c -3.2,1.61 -6.92,4.77 -7.42,8.66 -0.4,3.14 -4.64,24.67 -7.08,25.52 A 0.45,0.44 75.3 0 1 83.67,93.51 Q 83.16,90.28 83.19,89 83.43,75.06 83.55,61.13 a 1.12,1.11 -22.3 0 1 0.34,-0.8 l 6.63,-6.49 a 1.73,1.73 0 0 0 0.35,-2.01 Q 89.54,49.1 86.58,49.51 A 1.3,1.29 0.5 0 1 85.12,48.04 Q 88.33,26.78 92.68,5.73 92.85,4.91 92.1,5.27 c -6.6,3.2 -8.32,8.05 -9.81,16.2 q -2.64,14.47 -4.91,29.04 a 1,1 0 0 1 -0.6,0.78 l -10.9,4.54 A 0.28,0.28 0 0 1 65.49,55.56 L 66.72,10.84 A 0.43,0.42 79.5 0 0 66.13,10.43 C 61,12.62 57.98,16.44 57.99,22.21 q 0.04,18.83 -1.19,37.63 c -0.12,1.77 -1.25,3.44 -0.98,5.34 q 0.43,3.08 0.43,3.19 -0.01,21.44 0.01,43.1 a 1.19,1.18 -13.7 0 0 1.73,1.05 q 9.16,-4.73 8.38,-15.05 A 0.97,0.97 0 0 0 65.8,96.65 l -0.25,-0.12 a 0.88,0.87 -78.2 0 1 -0.5,-0.78 L 64.69,63.21 q -0.02,-1.85 1.74,-2.41 l 9,-2.87 a 0.38,0.38 0 0 1 0.49,0.39 Q 74.73,76.64 74.58,95 c -0.03,3.62 0.68,12.43 6.87,7.75 Q 89.08,97 92.8,87.95 q 0.45,-1.09 0.77,0.04 c 1.17,4.16 3.59,10.51 7.72,12.2 5.21,2.14 11.46,-5.62 14.28,-9.49 q 0.87,-1.21 0.98,0.28 l 1.97,28.27 a 0.39,0.39 0 0 1 -0.47,0.41 c -5.33,-1.03 -8.18,1.09 -12.71,4.7 q -0.9,0.71 -1.58,-0.14 a 1.17,1.17 0 0 1 -0.23,-0.9 c 0.76,-4.74 -0.97,-10.42 2.91,-13.76 a 0.56,0.54 57 0 0 0.13,-0.65 l -0.14,-0.28 a 0.55,0.55 0 0 0 -0.82,-0.2 q -4.47,3.25 -9.78,4.07 c -10.35,1.6 -22.37,5.2 -30.63,10.73 q -0.51,0.34 -0.47,-0.27 l 0.32,-5.21 q 0.07,-1.02 -0.82,-0.51 -4.12,2.34 -6.97,6.17 -0.96,1.29 -0.98,2.91 -0.13,10.23 0.15,20.4 c 0.12,4.7 0.93,13.5 0.61,20.36 q -0.07,1.58 -0.57,0.08 l -1.3,-3.93 a 0.43,0.42 -25.4 0 0 -0.63,-0.22 c -3.09,1.96 -8.46,5.42 -7.24,9.71 5.67,19.99 29.85,4.88 38,-3.45 q 2.55,-2.61 5.44,-5.24 0.37,-0.34 0.36,0.17 c -0.2,12.03 10.69,19.39 21.86,17.24 3.61,-0.69 6.78,-3.9 10.08,-5.8 a 0.8,0.77 46 0 1 0.84,0.03 c 7.25,4.86 13.84,-1.18 17.62,-7.04 q 0.77,-1.2 -0.52,-0.57 -4.37,2.12 -8.64,-0.3 -1.94,-1.09 -0.89,-3.05 2.12,-3.94 3.36,-8.12 c 1.11,-3.77 0.52,-8.42 3.07,-12.43 q 3.09,-4.85 8.37,-9.85 0.36,-0.34 0.32,0.16 -0.95,12.25 -1,24.53 c -0.03,5.54 3.17,16.12 10.68,14.85 a 1.73,1.69 17.5 0 0 0.91,-0.46 l 5.79,-5.69 a 0.39,0.38 -31.2 0 1 0.63,0.15 c 1.28,3.68 4.84,5.08 8.42,5.86 9.56,2.08 18.36,-7.16 24.05,-13.86 q 1.66,-1.96 2.3,0.53 c 0.68,2.63 -4.57,7.11 -4.61,11.58 a 1.15,1.13 22.8 0 0 0.36,0.85 q 3.12,2.96 7.9,3.42 c 12.7,1.23 28.9,1.57 36.01,-11.18 q 0.32,-0.57 -0.3,-0.34 -15.64,6.06 -32.04,2.05 -2,-0.5 -0.54,-1.95 c 2.11,-2.09 4.95,-4.84 3.22,-8.4 a 0.76,0.76 0 0 1 0.11,-0.83 c 4.98,-5.95 14,-10.8 16.93,-18.15 q 0.36,-0.89 -0.59,-0.72 -9.2,1.7 -17.71,5.51 -0.23,0.1 -0.19,-0.14 l 2.56,-16.69 a 0.85,0.85 0 0 1 0.62,-0.68 q 7.79,-1.98 15.76,-2.76 c 4.23,-0.41 8.24,-3.38 10.13,-6.77 q 1.14,-2.05 -1.18,-1.8 c -14.57,1.54 -27.79,4.24 -37.82,15.1 -8.84,9.57 3.82,20.23 -2.75,29.5 -3.95,5.58 -9.39,10.04 -16.37,6.65 a 2.09,2.08 19.6 0 1 -1.12,-2.34 q 3.12,-13.81 13.77,-23.04 a 1.14,1.12 -54.1 0 0 -0.29,-1.9 c -0.71,-0.29 -12.25,3.08 -14.09,3.56 q -1.78,0.47 -2.52,-1.21 -2.28,-5.19 -3.14,-10.76 a 1.16,1.16 0 0 1 0.63,-1.22 q 9.32,-4.75 19.75,-5.89 0.78,-0.08 0.43,0.62 l -2.56,5.1 a 0.39,0.38 -70 0 0 0.25,0.55 c 1.95,0.47 9.31,-9.61 10.35,-11.43 q 1.98,-3.44 -1.98,-3.15 c -9.07,0.67 -36.51,10.56 -35.09,22.49 q 1.72,14.47 -2.87,28.32 -0.16,0.48 -0.49,0.1 c -6.57,-7.63 -4.93,-21.52 -4.38,-31.39 0.24,-4.22 1.9,-6.04 4.82,-8.71 q 0.48,-0.44 0.34,-1.05 a 0.53,0.52 -13.5 0 0 -0.64,-0.39 c -7.57,1.96 -17,11.88 -21.88,17.79 q -0.83,1.01 -1.08,-0.27 -1.8,-9.43 -8.65,-16.14 A 1.4,1.4 0 0 1 127,123.28 v -11.46 a 1.1,1.08 -15.8 0 1 0.53,-0.93 q 3.94,-2.38 6.18,-6.42 0.57,-1.04 -0.49,-0.52 l -1.33,0.65 a 0.41,0.4 -22.6 0 1 -0.56,-0.23 c -0.78,-2.17 2.92,-10.15 3.83,-11.77 q 0.24,-0.43 0.34,0.05 1.22,5.82 5.95,11.6 c 5.32,6.48 9.44,4.36 14.66,-0.71 q 4.37,-4.26 8.7,-8.59 a 0.34,0.34 0 0 1 0.56,0.14 q 1.41,4.74 5.29,7.78 a 1.32,1.27 64.6 0 0 0.74,0.28 q 17.7,0.97 32.92,-7.76 a 0.36,0.35 -16.2 0 1 0.53,0.29 l 0.65,12.26 a 0.54,0.54 0 0 0 0.81,0.44 q 4.74,-2.67 7.75,-7.13 a 1.74,1.68 -29.5 0 0 0.29,-0.98 l -0.46,-21.25 a 0.71,0.7 85.4 0 1 0.6,-0.71 l 8.8,-1.35 a 0.38,0.38 0 0 1 0.44,0.39 l -1.11,31.34 a 0.68,0.68 0 0 0 0.96,0.64 c 4.07,-1.85 7.41,-5.6 7.61,-10.39 q 0.51,-12.25 0.9,-24.56 a 0.86,0.85 77.2 0 1 0.45,-0.72 q 6.24,-3.31 11.67,-7.66"
           inkscape:connector-curvature="0"
           style="vector-effect:non-scaling-stroke;stroke:#868686" />
        <path
           id="path24290"
           d="m 244.21,66 0.7,1.37 a 0.61,0.6 65.8 0 0 0.75,0.29 q 2.51,-0.97 4.07,-3.16 c 0.19,-0.27 0.27,-0.31 0.61,-0.29 a 0.42,0.41 -78.9 0 1 0.36,0.54 l -2.37,7.4 q -0.52,1.61 1.01,0.89 c 2.29,-1.09 3.09,-5.85 6.65,-3.85 a 0.99,0.98 -81.1 0 1 0.48,0.66 q 0.39,1.8 -0.72,3.11 a 0.37,0.37 0 0 0 -0.08,0.32 l 0.07,0.27 q 0.2,0.9 0.84,0.24 7.51,-7.66 11.17,-16.24 0.25,-0.58 1.1,-1.04 0.54,-0.29 0.43,0.32 -0.7,3.63 -2.9,6.67 a 1.23,1.22 54.7 0 0 -0.18,1.1 q 0.62,2.01 2.96,1.59 a 1.21,1.21 0 0 0 0.77,-0.47 q 1.52,-1.98 3.89,-1.1 a 0.65,0.65 0 0 0 0.85,-0.42 l 0.39,-1.36 a 1.75,1.71 79.9 0 1 0.6,-0.88 q 1.53,-1.19 1.28,-3.32 a 1.02,1.01 65.1 0 1 0.31,-0.86 l 1.15,-1.09 a 1.95,1.9 -14.8 0 0 0.51,-0.85 c 0.35,-1.19 2.49,-6.91 4.13,-6.96 q 0.58,-0.02 0.28,0.48 c -0.78,1.29 -4.11,5.49 -3.37,6.78 a 0.45,0.45 0 0 0 0.75,0.05 l 4.65,-6.01 q 0.55,-0.72 0.45,0.18 l -0.31,2.72 a 0.55,0.54 -71.3 0 0 0.26,0.53 l 0.27,0.17 a 0.35,0.35 0 0 0 0.43,-0.06 C 295.1,44.43 299.32,35.82 304,25.21 a 0.69,0.69 0 0 1 1.14,-0.2 q 29.38,30.98 58.3,62.3 13.42,14.55 28.62,27.17 c 2.3,1.91 6.06,5.66 9.66,7.83 a 0.55,0.55 0 0 0 0.73,-0.15 c 2.26,-3.16 2.35,-6.08 0.83,-9.87 Q 387.36,72.53 363.47,40.53 349.97,22.45 329.62,0.96 329.28,0.61 328.81,0.44 L 327.56,0"
           inkscape:connector-curvature="0"
           style="vector-effect:non-scaling-stroke;stroke:#eaeaea" />
        <path
           id="path24292"
           d="m 385.0785,163.2871 a 9.53,1.64 128.8 0 0 7.2496,-6.3995 9.53,1.64 128.8 0 0 4.6934,-8.4547 9.53,1.64 128.8 0 0 -7.2496,6.3995 9.53,1.64 128.8 0 0 -4.6934,8.4547"
           inkscape:connector-curvature="0"
           style="vector-effect:non-scaling-stroke;stroke:#868686" />
        <path
           id="path24294"
           d="m 171.29,209.41 1.01,-10.56 a 0.97,0.95 81.6 0 1 0.59,-0.81 q 5.19,-2.19 10.8,-2.6 a 0.51,0.51 0 0 1 0.56,0.51 v 1.23 q -0.01,0.88 0.69,0.35 4.81,-3.63 8.16,-8.6 a 1.31,1.29 -36.4 0 0 0.17,-1.07 c -0.83,-2.96 -18.2,3.04 -22.07,4.37 q -3.65,1.25 -5.58,2.71 a 0.47,0.46 55.5 0 1 -0.67,-0.13 q -4.54,-7.43 -13.35,-8.8 a 0.68,0.67 -88.4 0 1 -0.57,-0.61 l -0.17,-2.12 q -0.06,-0.63 -0.57,-0.25 c -3.1,2.27 -6.25,1.88 -9.06,3.81 q -5.04,3.47 -8.2,8.69 a 0.34,0.34 0 0 1 -0.56,0.04 q -8.24,-10.04 -21.53,-7.53 c -6.26,1.18 -11.3,9.14 -13.31,14.65 a 1.56,1.54 -5.4 0 1 -0.66,0.79 l -9.33,5.41 a 0.45,0.44 72.4 0 1 -0.67,-0.35 c -0.47,-6.1 -0.91,-16.4 -3.96,-21.69 q -1.31,-2.26 -3.82,-1.52 -4.29,1.28 -8.15,4.26 -20.53,15.86 -18.88,42.26 0.11,1.76 1.48,0.64 l 1.28,-1.04 q 1.03,-0.84 0.21,0.2 -5.66,7.21 -1.45,15.78 c 4.51,9.16 16.95,7.42 23.26,1.74 10.77,-9.69 10.18,-22.24 10.04,-34.87 a 0.94,0.94 0 0 1 0.45,-0.82 l 9.25,-5.8 q 0.77,-0.48 0.39,0.34 c -4.37,9.51 -6.4,16.25 -6.72,26.38 -0.32,10.28 11.9,9.03 18.08,6.34 a 0.59,0.58 -11.9 0 1 0.82,0.53 v 13.13 a 1.63,1.59 64.3 0 1 -0.33,0.98 l -3.22,4.08 q -1.14,1.43 -0.23,3.03 2.43,4.21 2,9.08 a 0.88,0.87 -3.7 0 1 -0.68,0.77 l -8.12,1.83 A 0.55,0.55 0 0 1 98,273.63 v -14.2 q 0,-1.66 -1.34,-0.69 l -10.31,7.44 q -0.54,0.39 -0.43,-0.27 1.2,-7.26 0.97,-14.6 a 0.38,0.38 0 0 0 -0.53,-0.34 c -10.05,4.39 -8.16,14.05 -8.82,22.92 a 1.54,1.5 -22.9 0 1 -0.39,0.93 l -14.4,16.15 q -0.5,0.56 -0.5,-0.19 v -30.81 a 0.44,0.44 0 0 0 -0.56,-0.42 c -6.54,1.98 -7.92,6.34 -7.94,13.08 q -0.02,13.59 0.03,28.3 a 1.67,1.65 68.9 0 1 -0.53,1.22 c -1.17,1.1 -8.28,7.36 -7.01,8.88 a 0.69,0.69 0 0 0 1,0.07 L 54,305.07 q 0.86,-0.77 1.02,0.37 0.51,3.53 2.16,6.7 a 0.59,0.59 0 0 0 0.79,0.26 q 4.29,-2.21 7.03,-6.18 0.99,-1.42 0.25,-2.99 -1.7,-3.58 -2.14,-7.51 a 1.46,1.44 -29.6 0 1 0.29,-1.03 q 6.52,-8.57 13.94,-16.39 0.55,-0.58 0.49,0.22 c -0.87,11.39 -1.49,24.43 0.99,35.64 q 0.41,1.82 1.77,0.54 l 6.6,-6.18 a 1.05,1.04 -28 0 0 0.31,-0.99 c -2.41,-11.2 -1.6,-25.42 -1.28,-35.59 0.06,-2 1.04,-3 2.87,-3.44 a 0.4,0.39 84.3 0 1 0.48,0.4 q -0.35,14.33 0.56,30.42 0.21,3.83 1.18,7.01 a 0.4,0.4 0 0 0 0.59,0.23 q 3.91,-2.28 6.73,-5.81 a 3.76,3.73 61.8 0 0 0.81,-2.72 l -1.53,-16.15 a 0.74,0.74 0 0 1 0.5,-0.78 q 4.93,-1.71 9.22,-4.67 a 0.38,0.38 0 0 1 0.6,0.27 q 1.52,14.62 0.93,29.3 -0.1,2.42 2.75,6.17 a 0.61,0.59 57.2 0 0 0.75,0.17 q 4.67,-2.51 7.41,-7.05 a 1.14,1.11 -40.7 0 0 0.09,-0.99 c -1.12,-2.83 -2.46,-4.88 -2.42,-8.04 q 0.12,-12.48 -0.13,-24.92 a 1.06,1.05 67.9 0 1 0.33,-0.79 l 4.51,-4.31 q 0.7,-0.66 0.22,0.17 c -4.7,8.13 -4.16,17.54 -4.01,26.31 0.16,9.18 4.82,11.14 13.09,11.06 5.22,-0.04 11.18,-6.86 14.88,-10.22 q 0.55,-0.51 0.48,0.24 -0.75,7.47 0.07,14.96 a 0.67,0.66 69.1 0 0 1.04,0.47 q 4.23,-2.99 7.39,-7.11 a 1.07,1.06 56.4 0 0 0.18,-0.91 q -0.52,-1.94 -0.52,-3.96 -0.04,-13.43 1.75,-26.75 0.11,-0.82 -0.16,-2.57 a 0.54,0.53 80.6 0 1 0.43,-0.61 l 7.01,-1.23 a 0.88,0.87 -16.3 0 1 0.96,0.52 l 0.5,1.18 a 0.69,0.69 0 0 0 1.07,0.26 l 5.64,-4.68 q 0.79,-0.66 0.35,0.27 -0.87,1.82 -2.25,3.32 a 0.32,0.3 -39.6 0 0 -0.04,0.36 l 0.14,0.23 a 0.15,0.15 0 0 0 0.17,0.07 l 1.69,-0.38 a 0.67,0.67 0 0 1 0.81,0.75 c -3.36,24.65 -3.3,50.48 -1.65,75.28 a 0.34,0.33 -15.7 0 0 0.49,0.27 c 5.02,-2.63 8.39,-6.56 7.87,-12.55 q -1.28,-14.95 -0.64,-29.98 a 1.02,1.02 0 0 1 0.48,-0.81 q 9.61,-6.05 15.75,-15.61 0.62,-0.95 0.62,0.18 l -0.01,8.78 q -0.01,2.5 2.49,2.74 c 4.72,0.46 8.16,-3.6 11.49,-6.5 q 0.38,-0.33 0.39,0.17 c 0.29,11.03 0.82,20.85 -0.76,29.26 -1.02,5.42 -4.06,7.83 -9.5,7.5 q -2.48,-0.15 -4,-2.12 c -3.5,-4.54 -3.97,-11.95 -3.54,-17.46 0.18,-2.35 1.54,-4.01 2.59,-6.02 q 0.63,-1.21 -0.61,-0.65 c -4.47,2.04 -9.88,6.01 -10.41,11.29 -0.84,8.51 -0.67,28.17 14.3,22.08 10.48,-4.26 19.45,-13.82 20.13,-25.6 q 0.78,-13.56 0.55,-29.49 -0.01,-0.84 1.65,-4.75 c 1.86,-4.38 5.47,-21.09 -0.91,-23.76 a 1.09,1.08 42.7 0 0 -0.92,0.03 c -4.66,2.29 -7.16,5.43 -7.68,10.86 q -0.99,10.32 -0.78,20.71 c 0.08,3.83 -0.91,6.88 -5.52,5.55 a 0.65,0.65 0 0 1 -0.47,-0.64 c 0.08,-6.33 1.22,-17.6 -2.23,-20.75 a 1.55,1.55 0 0 1 -0.48,-0.91 l -1,-6.82 q -0.44,-2.98 -3.45,-3.06 -7.68,-0.21 -14.98,1.86 -0.83,0.23 -0.51,-0.56 0.77,-1.9 0.11,-3.77 a 0.53,0.53 0 0 0 -0.79,-0.28 q -3.6,2.33 -6.29,5.66 a 0.71,0.7 -58.8 0 1 -0.83,0.21 c -4.79,-2.01 -18.15,2.88 -24.31,4.98 q -0.93,0.32 -0.27,-0.4 l 2.07,-2.22 a 0.51,0.51 0 0 0 -0.03,-0.73 q -3.09,-2.73 -3.17,-8.23 -0.12,-8.04 -0.1,-16.24 a 1.15,1.13 -22 0 1 0.36,-0.83 c 6.62,-6.19 9.94,-9.89 13.86,-17.49 q 0.45,-0.86 0.4,0.11 -0.53,10.29 0.65,20.5 a 0.52,0.52 0 0 0 0.52,0.46 c 9.77,0.15 20.9,1.11 27.96,-6.78 q 0.35,-0.39 0.43,0.12 c 1.1,6.45 6.32,6.57 10.92,3.43 a 1.53,1.52 -61.9 0 1 0.91,-0.28 c 3.15,0.02 5.95,0.18 8.68,-1.72 q 5.81,-4.02 10.74,-9.22 0.53,-0.55 0.52,0.21 -0.08,7 3.42,13.03 a 0.79,0.79 0 0 0 1.24,0.17 l 4.34,-4.21 a 1.49,1.44 -70.7 0 1 0.8,-0.4 l 1.71,-0.25 a 1.64,1.59 -70 0 0 0.89,-0.43 l 3.8,-3.61 a 0.44,0.44 0 0 1 0.67,0.08 q 0.64,0.98 1.14,1.94 c 4.41,8.55 13.85,-2.47 16.2,-6.75 q 0.68,-1.24 -0.51,-0.49 l -3.17,1.97 a 1.05,1.03 -53.6 0 1 -0.81,0.13 c -11.94,-3.15 4.04,-20.25 7.35,-24.32 q 0.32,-0.4 0.33,0.11 0.27,8.72 0.19,17.46 c -0.06,6.08 1.13,9.95 5.14,14.04 a 1.85,1.82 64.2 0 0 1.54,0.55 q 18.99,-2.16 31.36,-16.5 0.44,-0.52 0.44,0.16 c -0.04,5.34 -0.8,11.37 1.88,16.05 q 1.13,1.97 2.94,0.61 c 1.93,-1.44 8.02,-6.8 6.74,-9.73 a 0.69,0.68 -21 0 0 -0.85,-0.37 l -0.5,0.18 a 0.66,0.66 0 0 1 -0.85,-0.48 q -1.64,-7.39 -0.26,-14.89 a 0.65,0.63 3.3 0 1 0.6,-0.52 l 12.82,-0.75 a 0.47,0.46 -1.2 0 1 0.49,0.46 l -0.02,23.33 q 0,3.78 3.11,1.65 2.95,-2.03 5.39,-4.91 a 0.48,0.48 0 0 1 0.73,-0.01 c 3.74,4.4 9.14,3.59 13.71,1.04 2.93,-1.64 5.45,-4.63 8.05,-7.1 q 0.57,-0.54 0.67,0.24 0.4,2.99 2.49,5.17 a 0.76,0.75 -29.5 0 0 0.78,0.21 q 1.64,-0.47 2.26,-0.46 1.1,0.02 0.11,0.5 -0.66,0.32 -0.56,1.14 0.2,1.62 1.36,0.47 l 7.15,-7.11 a 0.41,0.4 -38.6 0 1 0.63,0.07 c 0.68,1.09 0.97,2.44 1.8,3.33 6.53,7.1 12.62,0.09 17.32,-5.52 a 0.24,0.23 -35.1 0 0 0.04,-0.22 l -0.1,-0.25 a 0.39,0.38 69.1 0 0 -0.48,-0.22 c -6.5,2.28 -13.1,-3.84 -8.19,-10.12 q 6.26,-7.99 11.53,-15.05 1.65,-2.22 1.37,0.54 l -3.42,33.26 q -0.18,1.71 0.71,3.53 c 1.76,3.61 10.11,-5.63 11.15,-6.99 q 0.8,-1.03 -0.49,-0.81 -3.05,0.53 -2.76,-2.92 1.41,-16.31 3.19,-32.58 0.37,-3.34 -1.25,-6.26 a 0.53,0.53 0 0 0 -0.73,-0.21 q -3.94,2.31 -6.64,5.97 -6.84,9.27 -13.33,18.1 -0.8,1.09 -0.6,-0.24 c 1.44,-9.68 3.15,-19.47 2.98,-29.26 a 0.41,0.41 0 0 0 -0.62,-0.34 c -3.26,1.95 -7.48,5.24 -7.79,9.33 q -1.05,13.8 -3.26,27.47 -0.32,1.96 -0.35,3.93 a 1.3,1.26 -22.1 0 1 -0.39,0.89 l -1.71,1.65 a 0.68,0.68 0 0 1 -0.91,0.02 q -3.08,-2.74 -2.72,-6.77 c 0.46,-5.11 0.39,-10.07 1.08,-14.6 q 1.33,-8.76 2.4,-19.04 a 1.25,1.24 81 0 0 -1.74,-1.27 c -0.5,0.22 -1.72,1.09 -2.24,1.63 q -8.06,8.28 -16.73,15.99 -0.41,0.37 -0.35,-0.18 l 2,-18.45 q 0.19,-1.75 -1.42,-1.03 c -8.28,3.67 -7.81,11.09 -7.94,18.67 a 0.51,0.51 0 0 1 -0.68,0.48 l -0.27,-0.1 a 1,1 0 0 0 -0.91,0.13 l -4.31,3.13 q -0.6,0.44 -0.6,-0.31 l -0.03,-20.3 a 0.62,0.61 75.3 0 0 -0.91,-0.54 q -4.48,2.55 -7.28,6.8 a 1.77,1.75 61.9 0 0 -0.29,0.97 v 14.54 a 0.5,0.5 0 0 1 -0.5,0.5 h -12.79 a 0.47,0.46 4.7 0 1 -0.46,-0.54 q 1.49,-9.04 1.79,-18.2 a 0.72,0.72 0 0 0 -1.04,-0.67 c -9.06,4.49 -7.31,10.44 -8.47,18.8 a 0.58,0.57 -88.7 0 1 -0.52,0.5 l -13.22,1.12 q -0.66,0.06 -0.16,-0.38 c 6.35,-5.54 14.46,-12.88 14.13,-19.83 a 0.91,0.9 86.6 0 0 -0.96,-0.86 c -11.16,0.78 -37.5,1.5 -39.73,16.77 q -0.07,0.52 -0.39,0.94 l -10.8,14.3 q -0.46,0.61 -0.41,-0.16 1.07,-15.69 5.93,-30.58 0.14,-0.43 0.11,-0.56 a 0.82,0.82 0 0 0 -1.03,-0.63 c -11.12,3.07 -20.76,6.55 -32.71,9.04 -8.61,1.79 -15.35,11.85 -20.22,18.57 q -0.47,0.65 -0.52,-0.15 c -0.36,-6.19 1.29,-13.25 1.76,-19.56 a 0.68,0.67 -10.1 0 0 -0.95,-0.66 q -8.85,3.94 -7.83,13.71 a 0.57,0.57 0 0 1 -0.43,0.62 c -8.38,2 -15.61,3.8 -22.24,9.36 q -0.62,0.53 -0.55,-0.29"
           inkscape:connector-curvature="0"
           style="vector-effect:non-scaling-stroke;stroke:#868686" />
        <path
           id="path24296"
           d="m 304.52,259.78 q 0.63,6.69 -0.85,13.26 a 1.37,1.33 81.5 0 1 -0.6,0.84 q -4.05,2.49 -7.12,5.98 -2.19,2.49 1.13,2.56 l 5.4,0.11 a 0.67,0.66 2.5 0 1 0.65,0.7 l -0.98,16.95 q -0.08,1.36 1.05,0.61 4.59,-3.02 7.92,-7.44 a 1.63,1.59 -27.8 0 0 0.33,-1.03 l -0.2,-9.62 a 0.76,0.76 0 0 1 0.55,-0.74 q 6.85,-2 12.96,-5.67 0.73,-0.43 0.5,0.38 -4.04,14.35 -4.31,29.22 c -0.06,3.03 1.13,5.1 4.13,5.64 a 1.36,1.34 -58.7 0 0 1.05,-0.26 q 4.24,-3.31 7.72,-7.44 0.48,-0.57 -0.27,-0.61 c -3.08,-0.14 -4.19,-1.99 -4.13,-4.99 q 0.29,-15.02 4.57,-29.49 c 1.59,-5.37 6.17,-6.1 11.09,-7.01 a 0.47,0.46 -8 0 1 0.55,0.41 q 0.24,2.9 0.03,5.8 -0.98,13.77 -1.88,27.54 -0.32,4.89 1.61,9.41 a 0.66,0.65 62 0 0 0.95,0.3 q 4.6,-2.91 7.66,-7.41 a 0.88,0.87 -42.4 0 0 0.05,-0.92 c -0.82,-1.51 -1.66,-2.64 -1.63,-4.47 q 0.26,-15.19 1.7,-30.45 a 0.61,0.6 -0.6 0 1 0.55,-0.55 q 10.89,-0.94 15.05,-0.37 c 5.36,0.72 9.27,-4.12 11.7,-7.84 q 0.28,-0.43 -0.24,-0.43 h -25.64 a 0.52,0.51 -3.8 0 1 -0.51,-0.44 l -0.21,-1.73 a 0.48,0.48 0 0 0 -0.76,-0.32 c -7.2,5.29 -13.86,6.14 -19.14,14.38 a 0.08,0.07 14.9 0 1 -0.06,0.03 c -0.18,-0.02 1.06,-11.19 1.09,-12.07 q 0.06,-1.5 -1.26,-0.78 c -7.89,4.27 -7.76,9.13 -8.06,17.24 q -0.07,1.94 -1.87,2.64 -6.15,2.36 -12.74,2.3 a 0.61,0.61 0 0 1 -0.6,-0.7 q 1.63,-10.5 1.79,-21.14 0.01,-1.11 -0.89,-0.46 l -5.2,3.74 a 0.93,0.93 0 0 1 -0.83,0.14 c -4.63,-1.42 -20.18,-0.63 -24.76,1.47 -4.72,2.18 -14.95,8.72 -15.86,14.43 q -1.72,10.82 -3.07,21.77 -0.18,1.42 -0.89,0.17 -0.25,-0.43 -0.33,-1.61 -0.92,-13.26 0.85,-26.51 a 1.55,1.5 69.7 0 1 0.35,-0.79 l 4.39,-5.09 q 1.48,-1.72 -0.58,-0.77 l -2.6,1.19 q -1.32,0.6 -1.18,-0.84 l 0.75,-7.57 q 0.07,-0.73 -0.58,-0.39 -9.37,4.92 -8.63,15.13 c 0.27,3.66 -0.87,5.16 -3.01,7.76 q -7.82,9.49 -11.72,13.74 a 0.34,0.33 54.1 0 1 -0.55,-0.09 c -4.44,-10.1 -1.68,-25.09 -0.69,-36.07 q 0.07,-0.76 -0.54,-0.3 l -2.15,1.6 a 0.49,0.49 0 0 1 -0.78,-0.32 l -0.32,-2.21 a 0.27,0.27 0 0 0 -0.4,-0.2 q -4.8,2.62 -7.54,7.27 a 1.57,1.55 -33.9 0 0 -0.21,1.03 c 1.39,9.76 1.99,18.63 0.53,28.82 q -1.67,11.66 -3.05,23.4 -0.06,0.52 0.41,0.29 7.71,-3.68 9.06,-12.13 a 0.48,0.47 -77.3 0 1 0.59,-0.38 c 5.87,1.63 11.47,-3.19 14.76,-7.54 q 0.94,-1.25 -0.61,-1.09 l -6.14,0.64 q -1.56,0.17 -0.53,-1.01 l 11.87,-13.58 q 0.3,-0.35 0.26,0.11 -1.07,10.5 -0.86,21.09 0.05,2.92 1.46,5 c 4.41,6.52 9.88,-0.8 13.05,-3.48 q 0.98,-0.83 0.84,0.46 -0.27,2.52 1.34,2.59 c 9.53,0.4 18.57,0.38 23.74,-9.19 q 0.18,-0.34 -0.2,-0.29 L 280,293.8 a 0.48,0.47 -7.7 0 1 -0.54,-0.41 l -1.86,-14.06 a 0.99,0.99 0 0 1 1.01,-1.12 c 9.22,0.28 15.54,0.66 21.42,-7.31 q 1.53,-2.07 -1.03,-1.84 c -7.94,0.69 -16.95,-0.93 -22.06,6.94 q -1.06,1.63 -1.11,-0.31 l -0.29,-10.26 a 0.71,0.7 -5 0 1 0.61,-0.72 q 9.32,-1.31 18.76,-0.98 c 4.25,0.15 6.79,-0.88 9.25,-4.05 q 0.32,-0.41 0.36,0.1"
           inkscape:connector-curvature="0"
           style="vector-effect:non-scaling-stroke;stroke:#868686" />
        <path
           id="path24298"
           d="m 281.92,-0.09 q 10.54,12.51 22.02,23.72 a 1.76,1.76 0 0 0 1.89,0.38 c 4.65,-1.86 8.03,-3.72 11.07,-7.95 C 317.78,14.83 327.33,3.1 326.56,0"
           inkscape:connector-curvature="0"
           style="vector-effect:non-scaling-stroke;stroke:#c2c2c2" />
        <path
           id="path24300"
           d="m 244.21,66 q 3.39,-2.73 5.32,-6.55 0.23,-0.46 -0.27,-0.34 -2.3,0.56 -3.85,1.9"
           inkscape:connector-curvature="0"
           style="vector-effect:non-scaling-stroke;stroke:#707070" />
        <path
           id="path24302"
           d="m 245.41,61.01 q -4.09,-1.57 -7.51,-4.18 a 1.64,1.59 -23.7 0 0 -0.89,-0.33 l -3.97,-0.25"
           inkscape:connector-curvature="0"
           style="vector-effect:non-scaling-stroke;stroke:#eaeaea" />
        <path
           id="path24304"
           d="M 233.04,56.25 233.01,41.4 a 0.61,0.61 0 0 0 -0.9,-0.54 q -4.33,2.32 -7.37,6.19 a 1.46,1.45 -24.3 0 0 -0.3,0.79 l -0.23,3.91"
           inkscape:connector-curvature="0"
           style="vector-effect:non-scaling-stroke;stroke:#707070" />
        <path
           id="path24306"
           d="m 239.8377,6.988 a 0.44,0.44 0 0 0 -0.1913,-0.5921 l -0.0356,-0.0183 a 0.44,0.44 0 0 0 -0.5921,0.1913 l -4.1364,8.0831 a 0.44,0.44 0 0 0 0.1913,0.5921 l 0.0356,0.0183 a 0.44,0.44 0 0 0 0.5921,-0.1913 l 4.1364,-8.0831"
           inkscape:connector-curvature="0"
           style="vector-effect:non-scaling-stroke;stroke:#eaeaea" />
        <path
           id="path24308"
           d="m 299.35,23.42 q -4.27,5.48 -5.57,12.32 -0.41,2.2 0.72,0.26 l 5.97,-10.24 q 0.28,-0.47 0.74,-0.78 0.92,-0.63 0.14,-1.59 a 1.28,1.28 0 0 0 -2,0.03"
           inkscape:connector-curvature="0"
           style="vector-effect:non-scaling-stroke;stroke:#eaeaea" />
        <path
           id="path24310"
           d="m 233.04,56.25 0.02,10.69 a 0.42,0.42 0 0 0 0.49,0.41 q 6.59,-1.27 11.86,-6.34"
           inkscape:connector-curvature="0"
           style="vector-effect:non-scaling-stroke;stroke:#868686" />
        <path
           id="path24312"
           d="m 82.37,136.95 c 3.95,-0.72 7.51,-0.96 9.98,1.98 q 0.48,0.58 0.66,-0.15 l 1.72,-7.36 a 0.93,0.92 26.4 0 0 -0.32,-0.94 q -2.33,-1.87 -3.66,-4.55 -0.24,-0.48 -0.24,-1.02 l -0.03,-3.74 a 0.55,0.54 84.2 0 0 -0.64,-0.53 q -12.59,2.24 -24.45,7.06 a 0.81,0.81 0 0 0 -0.5,0.76 l 0.39,17.02 q 0.03,1.32 0.99,0.41 c 4.36,-4.14 10.08,-7.85 16.1,-8.94"
           inkscape:connector-curvature="0"
           style="vector-effect:non-scaling-stroke;stroke:#868686" />
        <path
           id="path24314"
           d="m 117.0365,130.9755 a 4.25,0.82 16.9 0 0 -3.8281,-2.0201 4.25,0.82 16.9 0 0 -4.3049,-0.4509 4.25,0.82 16.9 0 0 3.8281,2.0201 4.25,0.82 16.9 0 0 4.3049,0.4509"
           inkscape:connector-curvature="0"
           style="vector-effect:non-scaling-stroke;stroke:#868686" />
        <path
           id="path24316"
           d="m 106.52,139.53 q -1.38,-0.74 -2.82,-0.42 a 0.58,0.58 0 0 0 -0.45,0.62 c 0.36,3.44 -3.9,15.42 2.06,17.39 a 1.12,1.12 0 0 1 0.47,1.83 l -4.32,4.64 a 0.72,0.71 49.6 0 0 -0.07,0.9 q 6.76,9.94 18.92,8.57 2.11,-0.24 2.3,-2.35 0.6,-6.45 3.43,-13.06 c 3.6,-8.41 0.13,-16.55 -5,-23.23 a 1,1 0 0 0 -1.51,-0.09 q -4.95,5.06 -12.07,5.42 a 1.81,1.81 0 0 1 -0.94,-0.22"
           inkscape:connector-curvature="0"
           style="vector-effect:non-scaling-stroke;stroke:#868686" />
        <path
           id="path24318"
           d="m 81.67,145.76 q -1.72,-1.08 -3.7,-0.69 l -6.84,1.34 q -2.5,0.49 -2.85,3.01 -1.03,7.46 -1.74,13.89 c -0.44,4 -2.68,6.37 -5.51,8.85 a 0.36,0.36 0 0 0 0.06,0.58 c 5.63,3.08 14.49,-0.01 19.66,-2.95 7.36,-4.19 6.83,-11.94 4.81,-19.04 q -0.89,-3.11 -3.89,-4.99"
           inkscape:connector-curvature="0"
           style="vector-effect:non-scaling-stroke;stroke:#868686" />
        <path
           id="path24320"
           d="m 207.4,148.26 -0.19,3.8 q -0.05,0.91 0.63,0.3 l 7.05,-6.29 q 0.62,-0.55 -0.18,-0.33 l -6.78,1.85 a 0.72,0.72 0 0 0 -0.53,0.67"
           inkscape:connector-curvature="0"
           style="vector-effect:non-scaling-stroke;stroke:#868686" />
        <path
           id="path24322"
           d="m 179.32,146.85 c -3.59,-1.09 -3.96,2.19 -3.46,4.66 q 0.1,0.49 0.41,0.1 l 3.25,-4.14 a 0.4,0.39 27.4 0 0 -0.2,-0.62"
           inkscape:connector-curvature="0"
           style="vector-effect:non-scaling-stroke;stroke:#868686" />
        <path
           id="path24324"
           d="m 358.04,186.19 c -3.29,3.02 -7.54,6.5 -10.43,10.36 q -0.87,1.17 0.21,0.2 3.88,-3.45 8.97,-1.77 a 0.56,0.56 0 0 0 0.73,-0.45 l 1.16,-8 q 0.16,-1.07 -0.64,-0.34"
           inkscape:connector-curvature="0"
           style="vector-effect:non-scaling-stroke;stroke:#868686" />
        <path
           id="path24326"
           d="m 287.4,196.54 c 3.02,-1.88 6.91,-5.29 6.19,-9.14 a 0.67,0.67 0 0 0 -0.74,-0.54 l -5.57,0.72 a 0.63,0.62 86.3 0 0 -0.54,0.62 l 0.02,7.99 q 0.01,0.75 0.64,0.35"
           inkscape:connector-curvature="0"
           style="vector-effect:non-scaling-stroke;stroke:#868686" />
        <path
           id="path24328"
           d="m 233.18,192.03 c -0.92,11.66 -1.75,24.34 2.1,35.6 q 0.2,0.58 0.59,0.11 l 5.21,-6.06 a 1.64,1.56 67.4 0 0 0.38,-0.99 q 0.38,-16.81 5.68,-32.7 0.25,-0.75 -0.51,-0.53 l -12.79,3.76 a 0.93,0.92 -6 0 0 -0.66,0.81"
           inkscape:connector-curvature="0"
           style="vector-effect:non-scaling-stroke;stroke:#868686" />
        <path
           id="path24330"
           d="m 270.58,205.85 a 0.33,0.33 0 0 0 0.49,0.29 l 7,-3.88 a 0.33,0.33 0 0 0 0.17,-0.28 l 0.01,-13.29 a 0.33,0.33 0 0 0 -0.41,-0.32 l -7.07,1.68 a 0.33,0.33 0 0 0 -0.25,0.32 l 0.06,15.48"
           inkscape:connector-curvature="0"
           style="vector-effect:non-scaling-stroke;stroke:#868686" />
        <path
           id="path24332"
           d="m 71.87,193.8 c -10.04,2.16 -11.88,23.84 -11.21,31.68 q 0.05,0.57 0.49,0.2 7.77,-6.46 16.65,-11.32 a 0.76,0.76 0 0 0 0.39,-0.77 c -0.94,-6.3 -1.08,-12.45 -3.53,-18.33 q -0.79,-1.89 -2.79,-1.46"
           inkscape:connector-curvature="0"
           style="vector-effect:non-scaling-stroke;stroke:#868686" />
        <path
           id="path24334"
           d="m 133.58,220.97 c -0.37,3.95 1.81,7.65 5.44,9.18 a 0.66,0.66 0 0 0 0.92,-0.62 q -0.34,-17.67 2.24,-35.19 a 0.56,0.55 2.1 0 0 -0.59,-0.63 l -2.06,0.16 a 0.99,0.98 -81.1 0 0 -0.83,0.61 c -3.38,8.38 -4.27,17.58 -5.12,26.49"
           inkscape:connector-curvature="0"
           style="vector-effect:non-scaling-stroke;stroke:#868686" />
        <path
           id="path24336"
           d="m 206.19,223.56 c 3.16,2.21 10.4,4.74 12.97,0.62 5.35,-8.6 4.07,-19.61 5.67,-29.58 a 0.37,0.36 -89.9 0 0 -0.41,-0.42 q -4.98,0.83 -9.71,2.49 c -5.15,1.8 -9.99,11.88 -11.7,16.69 q -2.26,6.4 3.18,10.2"
           inkscape:connector-curvature="0"
           style="vector-effect:non-scaling-stroke;stroke:#868686" />
        <path
           id="path24338"
           d="m 337.6,195.44 -5.14,4.93 a 1.26,1.25 68.4 0 0 -0.39,0.91 l -0.11,8.19 q -0.01,0.81 0.49,0.16 c 2.04,-2.68 4.1,-4.75 4.82,-8.14 q 0.64,-2.98 0.85,-5.81 0.06,-0.79 -0.52,-0.24"
           inkscape:connector-curvature="0"
           style="vector-effect:non-scaling-stroke;stroke:#868686" />
        <path
           id="path24340"
           d="m 106.04,197.14 q 0.77,1.59 0.71,-0.75 0,-0.3 -0.26,-0.15 l -0.23,0.15 a 0.58,0.57 -29.2 0 0 -0.22,0.75"
           inkscape:connector-curvature="0"
           style="vector-effect:non-scaling-stroke;stroke:#5e5e5e" />
        <path
           id="path24342"
           d="m 105.56,203.2 q -0.28,0.37 -0.34,0.84 c -0.9,6.88 -1.08,19.49 3.77,25.21 q 0.76,0.91 0.83,-0.27 0.9,-15.5 3.42,-30.82 0.44,-2.64 -1.69,-1.01 -3.4,2.62 -5.99,6.05"
           inkscape:connector-curvature="0"
           style="vector-effect:non-scaling-stroke;stroke:#868686" />
        <path
           id="path24344"
           d="m 151.64,197.49 q -2.44,-2.14 -2.53,1.11 l -0.8,31.55 a 0.44,0.43 76.9 0 0 0.63,0.4 c 7.27,-3.93 8.4,-18.48 7.69,-25.34 q -0.38,-3.67 -4.99,-7.72"
           inkscape:connector-curvature="0"
           style="vector-effect:non-scaling-stroke;stroke:#868686" />
        <path
           id="path24346"
           d="m 120.29,201.48 q -1.92,14.68 -2.63,29.47 a 0.4,0.4 0 0 0 0.53,0.39 c 7.75,-2.65 6.87,-17.6 6.64,-24.37 q -0.14,-3.99 -3.92,-5.82 a 0.44,0.43 16.8 0 0 -0.62,0.33"
           inkscape:connector-curvature="0"
           style="vector-effect:non-scaling-stroke;stroke:#868686" />
        <path
           id="path24348"
           d="m 349.34,205.4 c -0.94,6.54 0.96,11.05 -5.45,15.07 q -0.92,0.58 0.11,0.9 3.01,0.93 5.99,-0.06 a 1.18,1.17 87.3 0 0 0.76,-0.84 q 1.84,-7.64 -0.57,-15.14 -0.58,-1.79 -0.84,0.07"
           inkscape:connector-curvature="0"
           style="vector-effect:non-scaling-stroke;stroke:#868686" />
        <path
           id="path24350"
           d="m 287.59,217.71 0.14,0.23 a 0.34,0.33 -44.2 0 1 -0.01,0.36 l -2.51,3.83 q -0.64,0.99 0.48,0.63 5.79,-1.85 10.71,-5.43 a 1.57,1.56 71.6 0 0 0.65,-1.31 l -0.19,-6.56 q -0.06,-2.09 -2.15,-2.08 l -9.04,0.03 a 0.79,0.79 0 0 0 -0.79,0.72 l -0.81,10.53 q -0.06,0.84 0.63,0.37 l 2.19,-1.47 a 0.5,0.5 0 0 1 0.7,0.15"
           inkscape:connector-curvature="0"
           style="vector-effect:non-scaling-stroke;stroke:#868686" />
        <path
           id="path24352"
           d="m 186.39,213.58 1.32,-2.9 q 0.86,-1.9 -1.2,-1.6 -7.29,1.06 -13.91,4.2 a 2.02,2.01 -13.3 0 0 -1.16,1.87 l 0.21,11.4 q 0.05,2.38 2.4,2.7 8.75,1.22 17.35,-0.69 a 0.76,0.75 -4.5 0 0 0.6,-0.7 l 0.91,-17.29 q 0.04,-0.76 -0.55,-0.28 c -1.47,1.17 -3.72,3.93 -5.56,3.93 a 0.45,0.45 0 0 1 -0.41,-0.64"
           inkscape:connector-curvature="0"
           style="vector-effect:non-scaling-stroke;stroke:#868686" />
        <path
           id="path24354"
           d="m 270.48,213.98 a 0.34,0.34 0 0 0 0.62,0.23 l 2.29,-3.46 a 0.34,0.34 0 0 0 -0.44,-0.48 l -2.04,1.13 a 0.34,0.34 0 0 0 -0.17,0.26 l -0.26,2.32"
           inkscape:connector-curvature="0"
           style="vector-effect:non-scaling-stroke;stroke:#868686" />
        <path
           id="path24356"
           d="m 276.19,212.64 c -0.67,1.44 -4.08,9.57 -1.33,9.51 a 0.78,0.77 3 0 0 0.76,-0.68 l 1.09,-8.68 q 0.21,-1.69 -0.52,-0.15"
           inkscape:connector-curvature="0"
           style="vector-effect:non-scaling-stroke;stroke:#868686" />
        <path
           id="path24358"
           d="m 60.48,230.91 c -1.18,8.74 5.96,16.84 15.36,13.77 a 1.02,1 -0.2 0 0 0.64,-0.63 c 2.53,-7.63 1.92,-16.29 1.7,-24.81 a 0.34,0.33 -14 0 0 -0.49,-0.29 q -8.16,4.2 -15.67,9.44 -1.32,0.92 -1.54,2.52"
           inkscape:connector-curvature="0"
           style="vector-effect:non-scaling-stroke;stroke:#868686" />
        <path
           id="path24360"
           d="m 124.29,262.5 -0.59,1.97 q -0.15,0.53 0.29,0.2 1.07,-0.78 1.22,-2.17"
           inkscape:connector-curvature="0"
           style="vector-effect:non-scaling-stroke;stroke:#5e5e5e" />
        <path
           id="path24362"
           d="m 125.21,262.5 c 5.3,-4.14 8.01,-6.68 14.28,-4.96 a 0.4,0.4 0 0 0 0.51,-0.39 v -16.64 a 0.64,0.64 0 0 0 -0.6,-0.64 c -8.8,-0.68 -11.62,-1.28 -14.86,-9.09 a 0.33,0.32 -31.7 0 0 -0.52,-0.12 l -6.08,5.49 a 1.08,1.08 0 0 0 -0.36,0.85 c 0.28,9.01 -1.6,19.05 6.71,25.5"
           inkscape:connector-curvature="0"
           style="vector-effect:non-scaling-stroke;stroke:#868686" />
        <path
           id="path24364"
           d="m 125.21,262.5 h -0.92"
           inkscape:connector-curvature="0"
           style="vector-effect:non-scaling-stroke;stroke:#d7d7d7" />
        <path
           id="path24366"
           d="m 192.81,266.93 c -0.8,-4.48 -7.49,-3.45 -10.68,-2.99 a 0.75,0.75 0 0 0 -0.65,0.68 l -1.18,12.34 q -0.1,1.08 0.58,0.23 4.77,-5.96 11.53,-9.46 a 0.75,0.75 0 0 0 0.4,-0.8"
           inkscape:connector-curvature="0"
           style="vector-effect:non-scaling-stroke;stroke:#868686" />
        <path
           id="path24368"
           d="m 136.64,272.11 1.81,-2.41 a 0.72,0.7 47.7 0 0 0.03,-0.79 c -1.68,-2.64 -6.66,-3.21 -9.55,-3.45 A 0.87,0.86 6.3 0 0 128,266.2 q -0.97,7.15 -1.01,14.3 c -0.05,10.8 1.54,15.76 13.77,14.6 a 1.28,1.27 -71.8 0 0 0.82,-0.42 q 3.47,-3.97 5.32,-8.86 c 1.9,-5.03 -1.02,-8.68 3.49,-13.39 q 2.16,-2.26 4.68,-4.16 0.66,-0.49 -0.12,-0.24 l -6.84,2.15 a 1.53,1.53 0 0 0 -0.84,0.65 q -3.62,5.75 -8.96,9.93 -1.84,1.44 -1.82,-0.9 l 0.01,-2.22 a 1.55,1.52 63.4 0 1 0.29,-0.9 l 2.06,-2.84 a 0.45,0.44 -67.8 0 0 -0.29,-0.7 l -1.59,-0.26 a 0.53,0.52 -67.1 0 1 -0.33,-0.83"
           inkscape:connector-curvature="0"
           style="vector-effect:non-scaling-stroke;stroke:#868686" />
        <path
           id="path24370"
           d="m 192.83,274.85 c -9.99,-1.36 -11.99,9.51 -10.87,16.83 q 0.36,2.37 2.58,1.45 c 4.98,-2.05 8.26,-12.89 8.74,-17.71 a 0.53,0.52 6.8 0 0 -0.45,-0.57"
           inkscape:connector-curvature="0"
           style="vector-effect:non-scaling-stroke;stroke:#868686" />
      </g>
      <path
         id="path24374"
         d="m 0,0 h 242.06 c -0.61,0.37 -1.02,0.73 -1.29,1.45 -1.29,3.5 -3.83,4.51 -5.88,7.2 q -1.79,2.35 -4.24,4.08 a 2.01,1.97 -6.4 0 0 -0.67,0.82 q -1.96,4.54 -2.28,9.47 a 1.72,1.64 -26.5 0 1 -0.32,0.88 c -2.51,3.48 -13.09,20.4 -9.74,21.43 a 0.6,0.6 0 0 0 0.75,-0.43 q 1.03,-4.03 4.56,-6.31 0.78,-0.5 0.29,0.29 -2.78,4.51 -3.46,9.82 -0.28,2.23 1.8,3.07 0.82,0.34 2.63,-0.02 V 69.5 a 0.5,0.5 0 0 1 -0.5,0.5 h -9.55 a 0.6,0.6 0 0 1 -0.6,-0.59 l -0.42,-22.69 q -0.01,-0.57 -0.5,-0.28 -4.53,2.75 -7.64,7.09 a 1.34,1.34 0 0 0 -0.25,0.78 v 16.63 a 0.87,0.87 0 0 1 -0.37,0.71 q -3.43,2.41 -5.63,5.98 -0.38,0.62 0.35,0.62 h 5.05 a 0.67,0.67 0 0 1 0.67,0.65 l 0.23,10.48 a 1.25,1.24 -12.1 0 1 -0.77,1.18 q -12.45,5.11 -25.96,4.24 a 0.41,0.41 0 0 1 -0.37,-0.52 q 2.14,-7.19 0.44,-14.47 a 0.34,0.33 -10.7 0 1 0.29,-0.41 l 6.75,-0.9 a 0.51,0.51 0 0 1 0.55,0.65 q -0.2,0.67 -0.56,1.28 a 0.37,0.02 -58.9 0 0 -0.17,0.32 l 0.09,0.24 a 0.28,0.28 0 0 0 0.4,0.15 c 3.12,-1.7 8.82,-6.29 8.77,-10.21 a 1.12,1.11 -4.9 0 0 -1.3,-1.09 l -16.42,2.61 a 0.71,0.69 67.3 0 1 -0.7,-0.3 q -2.72,-3.9 -3.12,-8.63 a 1.11,1.11 0 0 1 0.6,-1.08 q 10.77,-5.52 22.89,-5.85 0.39,-0.01 0.74,0.15 l 0.39,0.17 a 0.87,0.86 41.2 0 0 0.81,-0.05 q 4.68,-2.85 7.31,-7.67 a 0.49,0.49 0 0 0 -0.42,-0.73 q -20.07,-0.41 -34.78,12.8 c -4.99,4.47 -7.74,9.8 -4.46,16.02 a 0.92,0.92 0 0 1 -0.07,0.96 q -4.44,6.23 -6.31,13.74 -0.58,2.31 -2.6,1.05 -9.39,-5.88 -13.53,-16.22 a 3.22,3.22 0 0 1 0.13,-2.68 c 4.07,-7.75 8.55,-16.91 14.31,-23.47 3.96,-4.5 12.18,-5.23 14.26,-11.71 a 0.45,0.45 0 0 0 -0.34,-0.58 q -1.64,-0.31 -2.88,0.39 c -10.93,6.2 -17.91,15.58 -24.85,26.02 q -1.06,1.6 -0.99,-0.32 c 0.48,-12.58 1.06,-25.17 4.34,-37.28 q 0.13,-0.51 -0.34,-0.29 C 136.97,31.61 136,44.11 135.65,54.95 a 0.27,0.27 0 0 1 -0.41,0.22 c -3.14,-1.85 -7.82,4.68 -8.72,6.66 a 1.37,1.36 49.4 0 0 -0.07,0.97 q 2.93,10.01 7.25,19.5 a 2,1.99 45.5 0 1 -0.01,1.67 l -6.85,14.65 q -0.28,0.6 -0.36,-0.06 -1.7,-14.51 -2.54,-29.09 c -0.31,-5.29 -1.33,-13.66 -1.22,-20.58 a 0.43,0.43 0 0 0 -0.64,-0.39 q -4.33,2.37 -7.41,6.26 a 1.35,1.27 66.2 0 0 -0.28,0.79 q -0.06,11.74 -1.05,23.44 -0.54,6.41 -2.24,10.97 -1.27,3.42 -3.59,0.61 C 100.27,81.78 100.42,70.92 99.68,60.2 a 0.64,0.63 -15.2 0 0 -0.92,-0.52 c -3.2,1.61 -6.92,4.77 -7.42,8.66 -0.4,3.14 -4.64,24.67 -7.08,25.52 A 0.45,0.44 75.3 0 1 83.67,93.51 Q 83.16,90.28 83.19,89 83.43,75.06 83.55,61.13 a 1.12,1.11 -22.3 0 1 0.34,-0.8 l 6.63,-6.49 a 1.73,1.73 0 0 0 0.35,-2.01 Q 89.54,49.1 86.58,49.51 A 1.3,1.29 0.5 0 1 85.12,48.04 Q 88.33,26.78 92.68,5.73 92.85,4.91 92.1,5.27 c -6.6,3.2 -8.32,8.05 -9.81,16.2 q -2.64,14.47 -4.91,29.04 a 1,1 0 0 1 -0.6,0.78 l -10.9,4.54 A 0.28,0.28 0 0 1 65.49,55.56 L 66.72,10.84 A 0.43,0.42 79.5 0 0 66.13,10.43 C 61,12.62 57.98,16.44 57.99,22.21 q 0.04,18.83 -1.19,37.63 c -0.12,1.77 -1.25,3.44 -0.98,5.34 q 0.43,3.08 0.43,3.19 -0.01,21.44 0.01,43.1 a 1.19,1.18 -13.7 0 0 1.73,1.05 q 9.16,-4.73 8.38,-15.05 A 0.97,0.97 0 0 0 65.8,96.65 l -0.25,-0.12 a 0.88,0.87 -78.2 0 1 -0.5,-0.78 L 64.69,63.21 q -0.02,-1.85 1.74,-2.41 l 9,-2.87 a 0.38,0.38 0 0 1 0.49,0.39 Q 74.73,76.64 74.58,95 c -0.03,3.62 0.68,12.43 6.87,7.75 Q 89.08,97 92.8,87.95 q 0.45,-1.09 0.77,0.04 c 1.17,4.16 3.59,10.51 7.72,12.2 5.21,2.14 11.46,-5.62 14.28,-9.49 q 0.87,-1.21 0.98,0.28 l 1.97,28.27 a 0.39,0.39 0 0 1 -0.47,0.41 c -5.33,-1.03 -8.18,1.09 -12.71,4.7 q -0.9,0.71 -1.58,-0.14 a 1.17,1.17 0 0 1 -0.23,-0.9 c 0.76,-4.74 -0.97,-10.42 2.91,-13.76 a 0.56,0.54 57 0 0 0.13,-0.65 l -0.14,-0.28 a 0.55,0.55 0 0 0 -0.82,-0.2 q -4.47,3.25 -9.78,4.07 c -10.35,1.6 -22.37,5.2 -30.63,10.73 q -0.51,0.34 -0.47,-0.27 l 0.32,-5.21 q 0.07,-1.02 -0.82,-0.51 -4.12,2.34 -6.97,6.17 -0.96,1.29 -0.98,2.91 -0.13,10.23 0.15,20.4 c 0.12,4.7 0.93,13.5 0.61,20.36 q -0.07,1.58 -0.57,0.08 l -1.3,-3.93 a 0.43,0.42 -25.4 0 0 -0.63,-0.22 c -3.09,1.96 -8.46,5.42 -7.24,9.71 5.67,19.99 29.85,4.88 38,-3.45 q 2.55,-2.61 5.44,-5.24 0.37,-0.34 0.36,0.17 c -0.2,12.03 10.69,19.39 21.86,17.24 3.61,-0.69 6.78,-3.9 10.08,-5.8 a 0.8,0.77 46 0 1 0.84,0.03 c 7.25,4.86 13.84,-1.18 17.62,-7.04 q 0.77,-1.2 -0.52,-0.57 -4.37,2.12 -8.64,-0.3 -1.94,-1.09 -0.89,-3.05 2.12,-3.94 3.36,-8.12 c 1.11,-3.77 0.52,-8.42 3.07,-12.43 q 3.09,-4.85 8.37,-9.85 0.36,-0.34 0.32,0.16 -0.95,12.25 -1,24.53 c -0.03,5.54 3.17,16.12 10.68,14.85 a 1.73,1.69 17.5 0 0 0.91,-0.46 l 5.79,-5.69 a 0.39,0.38 -31.2 0 1 0.63,0.15 c 1.28,3.68 4.84,5.08 8.42,5.86 9.56,2.08 18.36,-7.16 24.05,-13.86 q 1.66,-1.96 2.3,0.53 c 0.68,2.63 -4.57,7.11 -4.61,11.58 a 1.15,1.13 22.8 0 0 0.36,0.85 q 3.12,2.96 7.9,3.42 c 12.7,1.23 28.9,1.57 36.01,-11.18 q 0.32,-0.57 -0.3,-0.34 -15.64,6.06 -32.04,2.05 -2,-0.5 -0.54,-1.95 c 2.11,-2.09 4.95,-4.84 3.22,-8.4 a 0.76,0.76 0 0 1 0.11,-0.83 c 4.98,-5.95 14,-10.8 16.93,-18.15 q 0.36,-0.89 -0.59,-0.72 -9.2,1.7 -17.71,5.51 -0.23,0.1 -0.19,-0.14 l 2.56,-16.69 a 0.85,0.85 0 0 1 0.62,-0.68 q 7.79,-1.98 15.76,-2.76 c 4.23,-0.41 8.24,-3.38 10.13,-6.77 q 1.14,-2.05 -1.18,-1.8 c -14.57,1.54 -27.79,4.24 -37.82,15.1 -8.84,9.57 3.82,20.23 -2.75,29.5 -3.95,5.58 -9.39,10.04 -16.37,6.65 a 2.09,2.08 19.6 0 1 -1.12,-2.34 q 3.12,-13.81 13.77,-23.04 a 1.14,1.12 -54.1 0 0 -0.29,-1.9 c -0.71,-0.29 -12.25,3.08 -14.09,3.56 q -1.78,0.47 -2.52,-1.21 -2.28,-5.19 -3.14,-10.76 a 1.16,1.16 0 0 1 0.63,-1.22 q 9.32,-4.75 19.75,-5.89 0.78,-0.08 0.43,0.62 l -2.56,5.1 a 0.39,0.38 -70 0 0 0.25,0.55 c 1.95,0.47 9.31,-9.61 10.35,-11.43 q 1.98,-3.44 -1.98,-3.15 c -9.07,0.67 -36.51,10.56 -35.09,22.49 q 1.72,14.47 -2.87,28.32 -0.16,0.48 -0.49,0.1 c -6.57,-7.63 -4.93,-21.52 -4.38,-31.39 0.24,-4.22 1.9,-6.04 4.82,-8.71 q 0.48,-0.44 0.34,-1.05 a 0.53,0.52 -13.5 0 0 -0.64,-0.39 c -7.57,1.96 -17,11.88 -21.88,17.79 q -0.83,1.01 -1.08,-0.27 -1.8,-9.43 -8.65,-16.14 A 1.4,1.4 0 0 1 127,123.28 v -11.46 a 1.1,1.08 -15.8 0 1 0.53,-0.93 q 3.94,-2.38 6.18,-6.42 0.57,-1.04 -0.49,-0.52 l -1.33,0.65 a 0.41,0.4 -22.6 0 1 -0.56,-0.23 c -0.78,-2.17 2.92,-10.15 3.83,-11.77 q 0.24,-0.43 0.34,0.05 1.22,5.82 5.95,11.6 c 5.32,6.48 9.44,4.36 14.66,-0.71 q 4.37,-4.26 8.7,-8.59 a 0.34,0.34 0 0 1 0.56,0.14 q 1.41,4.74 5.29,7.78 a 1.32,1.27 64.6 0 0 0.74,0.28 q 17.7,0.97 32.92,-7.76 a 0.36,0.35 -16.2 0 1 0.53,0.29 l 0.65,12.26 a 0.54,0.54 0 0 0 0.81,0.44 q 4.74,-2.67 7.75,-7.13 a 1.74,1.68 -29.5 0 0 0.29,-0.98 l -0.46,-21.25 a 0.71,0.7 85.4 0 1 0.6,-0.71 l 8.8,-1.35 a 0.38,0.38 0 0 1 0.44,0.39 l -1.11,31.34 a 0.68,0.68 0 0 0 0.96,0.64 c 4.07,-1.85 7.41,-5.6 7.61,-10.39 q 0.51,-12.25 0.9,-24.56 a 0.86,0.85 77.2 0 1 0.45,-0.72 q 6.24,-3.31 11.67,-7.66 l 0.7,1.37 a 0.61,0.6 65.8 0 0 0.75,0.29 q 2.51,-0.97 4.07,-3.16 c 0.19,-0.27 0.27,-0.31 0.61,-0.29 a 0.42,0.41 -78.9 0 1 0.36,0.54 l -2.37,7.4 q -0.52,1.61 1.01,0.89 c 2.29,-1.09 3.09,-5.85 6.65,-3.85 a 0.99,0.98 -81.1 0 1 0.48,0.66 q 0.39,1.8 -0.72,3.11 a 0.37,0.37 0 0 0 -0.08,0.32 l 0.07,0.27 q 0.2,0.9 0.84,0.24 7.51,-7.66 11.17,-16.24 0.25,-0.58 1.1,-1.04 0.54,-0.29 0.43,0.32 -0.7,3.63 -2.9,6.67 a 1.23,1.22 54.7 0 0 -0.18,1.1 q 0.62,2.01 2.96,1.59 a 1.21,1.21 0 0 0 0.77,-0.47 q 1.52,-1.98 3.89,-1.1 a 0.65,0.65 0 0 0 0.85,-0.42 l 0.39,-1.36 a 1.75,1.71 79.9 0 1 0.6,-0.88 q 1.53,-1.19 1.28,-3.32 a 1.02,1.01 65.1 0 1 0.31,-0.86 l 1.15,-1.09 a 1.95,1.9 -14.8 0 0 0.51,-0.85 c 0.35,-1.19 2.49,-6.91 4.13,-6.96 q 0.58,-0.02 0.28,0.48 c -0.78,1.29 -4.11,5.49 -3.37,6.78 a 0.45,0.45 0 0 0 0.75,0.05 l 4.65,-6.01 q 0.55,-0.72 0.45,0.18 l -0.31,2.72 a 0.55,0.54 -71.3 0 0 0.26,0.53 l 0.27,0.17 a 0.35,0.35 0 0 0 0.43,-0.06 C 295.1,44.43 299.32,35.82 304,25.21 a 0.69,0.69 0 0 1 1.14,-0.2 q 29.38,30.98 58.3,62.3 13.42,14.55 28.62,27.17 c 2.3,1.91 6.06,5.66 9.66,7.83 a 0.55,0.55 0 0 0 0.73,-0.15 c 2.26,-3.16 2.35,-6.08 0.83,-9.87 Q 387.36,72.53 363.47,40.53 349.97,22.45 329.62,0.96 329.28,0.61 328.81,0.44 L 327.56,0 H 450 V 348 H 0 Z m 385.0785,163.2871 a 9.53,1.64 128.8 0 0 7.2496,-6.3995 9.53,1.64 128.8 0 0 4.6934,-8.4547 9.53,1.64 128.8 0 0 -7.2496,6.3995 9.53,1.64 128.8 0 0 -4.6934,8.4547 z M 171.29,209.41 172.3,198.85 a 0.97,0.95 81.6 0 1 0.59,-0.81 q 5.19,-2.19 10.8,-2.6 a 0.51,0.51 0 0 1 0.56,0.51 v 1.23 q -0.01,0.88 0.69,0.35 4.81,-3.63 8.16,-8.6 a 1.31,1.29 -36.4 0 0 0.17,-1.07 c -0.83,-2.96 -18.2,3.04 -22.07,4.37 q -3.65,1.25 -5.58,2.71 a 0.47,0.46 55.5 0 1 -0.67,-0.13 q -4.54,-7.43 -13.35,-8.8 a 0.68,0.67 -88.4 0 1 -0.57,-0.61 l -0.17,-2.12 q -0.06,-0.63 -0.57,-0.25 c -3.1,2.27 -6.25,1.88 -9.06,3.81 q -5.04,3.47 -8.2,8.69 a 0.34,0.34 0 0 1 -0.56,0.04 q -8.24,-10.04 -21.53,-7.53 c -6.26,1.18 -11.3,9.14 -13.31,14.65 a 1.56,1.54 -5.4 0 1 -0.66,0.79 l -9.33,5.41 a 0.45,0.44 72.4 0 1 -0.67,-0.35 c -0.47,-6.1 -0.91,-16.4 -3.96,-21.69 q -1.31,-2.26 -3.82,-1.52 -4.29,1.28 -8.15,4.26 -20.53,15.86 -18.88,42.26 0.11,1.76 1.48,0.64 l 1.28,-1.04 q 1.03,-0.84 0.21,0.2 -5.66,7.21 -1.45,15.78 c 4.51,9.16 16.95,7.42 23.26,1.74 10.77,-9.69 10.18,-22.24 10.04,-34.87 a 0.94,0.94 0 0 1 0.45,-0.82 l 9.25,-5.8 q 0.77,-0.48 0.39,0.34 c -4.37,9.51 -6.4,16.25 -6.72,26.38 -0.32,10.28 11.9,9.03 18.08,6.34 a 0.59,0.58 -11.9 0 1 0.82,0.53 v 13.13 a 1.63,1.59 64.3 0 1 -0.33,0.98 l -3.22,4.08 q -1.14,1.43 -0.23,3.03 2.43,4.21 2,9.08 a 0.88,0.87 -3.7 0 1 -0.68,0.77 l -8.12,1.83 A 0.55,0.55 0 0 1 98,273.63 v -14.2 q 0,-1.66 -1.34,-0.69 l -10.31,7.44 q -0.54,0.39 -0.43,-0.27 1.2,-7.26 0.97,-14.6 a 0.38,0.38 0 0 0 -0.53,-0.34 c -10.05,4.39 -8.16,14.05 -8.82,22.92 a 1.54,1.5 -22.9 0 1 -0.39,0.93 l -14.4,16.15 q -0.5,0.56 -0.5,-0.19 v -30.81 a 0.44,0.44 0 0 0 -0.56,-0.42 c -6.54,1.98 -7.92,6.34 -7.94,13.08 q -0.02,13.59 0.03,28.3 a 1.67,1.65 68.9 0 1 -0.53,1.22 c -1.17,1.1 -8.28,7.36 -7.01,8.88 a 0.69,0.69 0 0 0 1,0.07 L 54,305.07 q 0.86,-0.77 1.02,0.37 0.51,3.53 2.16,6.7 a 0.59,0.59 0 0 0 0.79,0.26 q 4.29,-2.21 7.03,-6.18 0.99,-1.42 0.25,-2.99 -1.7,-3.58 -2.14,-7.51 a 1.46,1.44 -29.6 0 1 0.29,-1.03 q 6.52,-8.57 13.94,-16.39 0.55,-0.58 0.49,0.22 c -0.87,11.39 -1.49,24.43 0.99,35.64 q 0.41,1.82 1.77,0.54 l 6.6,-6.18 a 1.05,1.04 -28 0 0 0.31,-0.99 c -2.41,-11.2 -1.6,-25.42 -1.28,-35.59 0.06,-2 1.04,-3 2.87,-3.44 a 0.4,0.39 84.3 0 1 0.48,0.4 q -0.35,14.33 0.56,30.42 0.21,3.83 1.18,7.01 a 0.4,0.4 0 0 0 0.59,0.23 q 3.91,-2.28 6.73,-5.81 a 3.76,3.73 61.8 0 0 0.81,-2.72 l -1.53,-16.15 a 0.74,0.74 0 0 1 0.5,-0.78 q 4.93,-1.71 9.22,-4.67 a 0.38,0.38 0 0 1 0.6,0.27 q 1.52,14.62 0.93,29.3 -0.1,2.42 2.75,6.17 a 0.61,0.59 57.2 0 0 0.75,0.17 q 4.67,-2.51 7.41,-7.05 a 1.14,1.11 -40.7 0 0 0.09,-0.99 c -1.12,-2.83 -2.46,-4.88 -2.42,-8.04 q 0.12,-12.48 -0.13,-24.92 a 1.06,1.05 67.9 0 1 0.33,-0.79 l 4.51,-4.31 q 0.7,-0.66 0.22,0.17 c -4.7,8.13 -4.16,17.54 -4.01,26.31 0.16,9.18 4.82,11.14 13.09,11.06 5.22,-0.04 11.18,-6.86 14.88,-10.22 q 0.55,-0.51 0.48,0.24 -0.75,7.47 0.07,14.96 a 0.67,0.66 69.1 0 0 1.04,0.47 q 4.23,-2.99 7.39,-7.11 a 1.07,1.06 56.4 0 0 0.18,-0.91 q -0.52,-1.94 -0.52,-3.96 -0.04,-13.43 1.75,-26.75 0.11,-0.82 -0.16,-2.57 a 0.54,0.53 80.6 0 1 0.43,-0.61 l 7.01,-1.23 a 0.88,0.87 -16.3 0 1 0.96,0.52 l 0.5,1.18 a 0.69,0.69 0 0 0 1.07,0.26 l 5.64,-4.68 q 0.79,-0.66 0.35,0.27 -0.87,1.82 -2.25,3.32 a 0.32,0.3 -39.6 0 0 -0.04,0.36 l 0.14,0.23 a 0.15,0.15 0 0 0 0.17,0.07 l 1.69,-0.38 a 0.67,0.67 0 0 1 0.81,0.75 c -3.36,24.65 -3.3,50.48 -1.65,75.28 a 0.34,0.33 -15.7 0 0 0.49,0.27 c 5.02,-2.63 8.39,-6.56 7.87,-12.55 q -1.28,-14.95 -0.64,-29.98 a 1.02,1.02 0 0 1 0.48,-0.81 q 9.61,-6.05 15.75,-15.61 0.62,-0.95 0.62,0.18 l -0.01,8.78 q -0.01,2.5 2.49,2.74 c 4.72,0.46 8.16,-3.6 11.49,-6.5 q 0.38,-0.33 0.39,0.17 c 0.29,11.03 0.82,20.85 -0.76,29.26 -1.02,5.42 -4.06,7.83 -9.5,7.5 q -2.48,-0.15 -4,-2.12 c -3.5,-4.54 -3.97,-11.95 -3.54,-17.46 0.18,-2.35 1.54,-4.01 2.59,-6.02 q 0.63,-1.21 -0.61,-0.65 c -4.47,2.04 -9.88,6.01 -10.41,11.29 -0.84,8.51 -0.67,28.17 14.3,22.08 10.48,-4.26 19.45,-13.82 20.13,-25.6 q 0.78,-13.56 0.55,-29.49 -0.01,-0.84 1.65,-4.75 c 1.86,-4.38 5.47,-21.09 -0.91,-23.76 a 1.09,1.08 42.7 0 0 -0.92,0.03 c -4.66,2.29 -7.16,5.43 -7.68,10.86 q -0.99,10.32 -0.78,20.71 c 0.08,3.83 -0.91,6.88 -5.52,5.55 a 0.65,0.65 0 0 1 -0.47,-0.64 c 0.08,-6.33 1.22,-17.6 -2.23,-20.75 a 1.55,1.55 0 0 1 -0.48,-0.91 l -1,-6.82 q -0.44,-2.98 -3.45,-3.06 -7.68,-0.21 -14.98,1.86 -0.83,0.23 -0.51,-0.56 0.77,-1.9 0.11,-3.77 a 0.53,0.53 0 0 0 -0.79,-0.28 q -3.6,2.33 -6.29,5.66 a 0.71,0.7 -58.8 0 1 -0.83,0.21 c -4.79,-2.01 -18.15,2.88 -24.31,4.98 q -0.93,0.32 -0.27,-0.4 l 2.07,-2.22 a 0.51,0.51 0 0 0 -0.03,-0.73 q -3.09,-2.73 -3.17,-8.23 -0.12,-8.04 -0.1,-16.24 a 1.15,1.13 -22 0 1 0.36,-0.83 c 6.62,-6.19 9.94,-9.89 13.86,-17.49 q 0.45,-0.86 0.4,0.11 -0.53,10.29 0.65,20.5 a 0.52,0.52 0 0 0 0.52,0.46 c 9.77,0.15 20.9,1.11 27.96,-6.78 q 0.35,-0.39 0.43,0.12 c 1.1,6.45 6.32,6.57 10.92,3.43 a 1.53,1.52 -61.9 0 1 0.91,-0.28 c 3.15,0.02 5.95,0.18 8.68,-1.72 q 5.81,-4.02 10.74,-9.22 0.53,-0.55 0.52,0.21 -0.08,7 3.42,13.03 a 0.79,0.79 0 0 0 1.24,0.17 l 4.34,-4.21 a 1.49,1.44 -70.7 0 1 0.8,-0.4 l 1.71,-0.25 a 1.64,1.59 -70 0 0 0.89,-0.43 l 3.8,-3.61 a 0.44,0.44 0 0 1 0.67,0.08 q 0.64,0.98 1.14,1.94 c 4.41,8.55 13.85,-2.47 16.2,-6.75 q 0.68,-1.24 -0.51,-0.49 l -3.17,1.97 a 1.05,1.03 -53.6 0 1 -0.81,0.13 c -11.94,-3.15 4.04,-20.25 7.35,-24.32 q 0.32,-0.4 0.33,0.11 0.27,8.72 0.19,17.46 c -0.06,6.08 1.13,9.95 5.14,14.04 a 1.85,1.82 64.2 0 0 1.54,0.55 q 18.99,-2.16 31.36,-16.5 0.44,-0.52 0.44,0.16 c -0.04,5.34 -0.8,11.37 1.88,16.05 q 1.13,1.97 2.94,0.61 c 1.93,-1.44 8.02,-6.8 6.74,-9.73 a 0.69,0.68 -21 0 0 -0.85,-0.37 l -0.5,0.18 a 0.66,0.66 0 0 1 -0.85,-0.48 q -1.64,-7.39 -0.26,-14.89 a 0.65,0.63 3.3 0 1 0.6,-0.52 l 12.82,-0.75 a 0.47,0.46 -1.2 0 1 0.49,0.46 l -0.02,23.33 q 0,3.78 3.11,1.65 2.95,-2.03 5.39,-4.91 a 0.48,0.48 0 0 1 0.73,-0.01 c 3.74,4.4 9.14,3.59 13.71,1.04 2.93,-1.64 5.45,-4.63 8.05,-7.1 q 0.57,-0.54 0.67,0.24 0.4,2.99 2.49,5.17 a 0.76,0.75 -29.5 0 0 0.78,0.21 q 1.64,-0.47 2.26,-0.46 1.1,0.02 0.11,0.5 -0.66,0.32 -0.56,1.14 0.2,1.62 1.36,0.47 l 7.15,-7.11 a 0.41,0.4 -38.6 0 1 0.63,0.07 c 0.68,1.09 0.97,2.44 1.8,3.33 6.53,7.1 12.62,0.09 17.32,-5.52 a 0.24,0.23 -35.1 0 0 0.04,-0.22 l -0.1,-0.25 a 0.39,0.38 69.1 0 0 -0.48,-0.22 c -6.5,2.28 -13.1,-3.84 -8.19,-10.12 q 6.26,-7.99 11.53,-15.05 1.65,-2.22 1.37,0.54 l -3.42,33.26 q -0.18,1.71 0.71,3.53 c 1.76,3.61 10.11,-5.63 11.15,-6.99 q 0.8,-1.03 -0.49,-0.81 -3.05,0.53 -2.76,-2.92 1.41,-16.31 3.19,-32.58 0.37,-3.34 -1.25,-6.26 a 0.53,0.53 0 0 0 -0.73,-0.21 q -3.94,2.31 -6.64,5.97 -6.84,9.27 -13.33,18.1 -0.8,1.09 -0.6,-0.24 c 1.44,-9.68 3.15,-19.47 2.98,-29.26 a 0.41,0.41 0 0 0 -0.62,-0.34 c -3.26,1.95 -7.48,5.24 -7.79,9.33 q -1.05,13.8 -3.26,27.47 -0.32,1.96 -0.35,3.93 a 1.3,1.26 -22.1 0 1 -0.39,0.89 l -1.71,1.65 a 0.68,0.68 0 0 1 -0.91,0.02 q -3.08,-2.74 -2.72,-6.77 c 0.46,-5.11 0.39,-10.07 1.08,-14.6 q 1.33,-8.76 2.4,-19.04 a 1.25,1.24 81 0 0 -1.74,-1.27 c -0.5,0.22 -1.72,1.09 -2.24,1.63 q -8.06,8.28 -16.73,15.99 -0.41,0.37 -0.35,-0.18 l 2,-18.45 q 0.19,-1.75 -1.42,-1.03 c -8.28,3.67 -7.81,11.09 -7.94,18.67 a 0.51,0.51 0 0 1 -0.68,0.48 l -0.27,-0.1 a 1,1 0 0 0 -0.91,0.13 l -4.31,3.13 q -0.6,0.44 -0.6,-0.31 l -0.03,-20.3 a 0.62,0.61 75.3 0 0 -0.91,-0.54 q -4.48,2.55 -7.28,6.8 a 1.77,1.75 61.9 0 0 -0.29,0.97 v 14.54 a 0.5,0.5 0 0 1 -0.5,0.5 h -12.79 a 0.47,0.46 4.7 0 1 -0.46,-0.54 q 1.49,-9.04 1.79,-18.2 a 0.72,0.72 0 0 0 -1.04,-0.67 c -9.06,4.49 -7.31,10.44 -8.47,18.8 a 0.58,0.57 -88.7 0 1 -0.52,0.5 l -13.22,1.12 q -0.66,0.06 -0.16,-0.38 c 6.35,-5.54 14.46,-12.88 14.13,-19.83 a 0.91,0.9 86.6 0 0 -0.96,-0.86 c -11.16,0.78 -37.5,1.5 -39.73,16.77 q -0.07,0.52 -0.39,0.94 l -10.8,14.3 q -0.46,0.61 -0.41,-0.16 1.07,-15.69 5.93,-30.58 0.14,-0.43 0.11,-0.56 a 0.82,0.82 0 0 0 -1.03,-0.63 c -11.12,3.07 -20.76,6.55 -32.71,9.04 -8.61,1.79 -15.35,11.85 -20.22,18.57 q -0.47,0.65 -0.52,-0.15 c -0.36,-6.19 1.29,-13.25 1.76,-19.56 a 0.68,0.67 -10.1 0 0 -0.95,-0.66 q -8.85,3.94 -7.83,13.71 a 0.57,0.57 0 0 1 -0.43,0.62 c -8.38,2 -15.61,3.8 -22.24,9.36 q -0.62,0.53 -0.55,-0.29 z m 133.23,50.37 q 0.63,6.69 -0.85,13.26 a 1.37,1.33 81.5 0 1 -0.6,0.84 q -4.05,2.49 -7.12,5.98 -2.19,2.49 1.13,2.56 l 5.4,0.11 a 0.67,0.66 2.5 0 1 0.65,0.7 l -0.98,16.95 q -0.08,1.36 1.05,0.61 4.59,-3.02 7.92,-7.44 a 1.63,1.59 -27.8 0 0 0.33,-1.03 l -0.2,-9.62 a 0.76,0.76 0 0 1 0.55,-0.74 q 6.85,-2 12.96,-5.67 0.73,-0.43 0.5,0.38 -4.04,14.35 -4.31,29.22 c -0.06,3.03 1.13,5.1 4.13,5.64 a 1.36,1.34 -58.7 0 0 1.05,-0.26 q 4.24,-3.31 7.72,-7.44 0.48,-0.57 -0.27,-0.61 c -3.08,-0.14 -4.19,-1.99 -4.13,-4.99 q 0.29,-15.02 4.57,-29.49 c 1.59,-5.37 6.17,-6.1 11.09,-7.01 a 0.47,0.46 -8 0 1 0.55,0.41 q 0.24,2.9 0.03,5.8 -0.98,13.77 -1.88,27.54 -0.32,4.89 1.61,9.41 a 0.66,0.65 62 0 0 0.95,0.3 q 4.6,-2.91 7.66,-7.41 a 0.88,0.87 -42.4 0 0 0.05,-0.92 c -0.82,-1.51 -1.66,-2.64 -1.63,-4.47 q 0.26,-15.19 1.7,-30.45 a 0.61,0.6 -0.6 0 1 0.55,-0.55 q 10.89,-0.94 15.05,-0.37 c 5.36,0.72 9.27,-4.12 11.7,-7.84 q 0.28,-0.43 -0.24,-0.43 h -25.64 a 0.52,0.51 -3.8 0 1 -0.51,-0.44 l -0.21,-1.73 a 0.48,0.48 0 0 0 -0.76,-0.32 c -7.2,5.29 -13.86,6.14 -19.14,14.38 a 0.08,0.07 14.9 0 1 -0.06,0.03 c -0.18,-0.02 1.06,-11.19 1.09,-12.07 q 0.06,-1.5 -1.26,-0.78 c -7.89,4.27 -7.76,9.13 -8.06,17.24 q -0.07,1.94 -1.87,2.64 -6.15,2.36 -12.74,2.3 a 0.61,0.61 0 0 1 -0.6,-0.7 q 1.63,-10.5 1.79,-21.14 0.01,-1.11 -0.89,-0.46 l -5.2,3.74 a 0.93,0.93 0 0 1 -0.83,0.14 c -4.63,-1.42 -20.18,-0.63 -24.76,1.47 -4.72,2.18 -14.95,8.72 -15.86,14.43 q -1.72,10.82 -3.07,21.77 -0.18,1.42 -0.89,0.17 -0.25,-0.43 -0.33,-1.61 -0.92,-13.26 0.85,-26.51 a 1.55,1.5 69.7 0 1 0.35,-0.79 l 4.39,-5.09 q 1.48,-1.72 -0.58,-0.77 l -2.6,1.19 q -1.32,0.6 -1.18,-0.84 l 0.75,-7.57 q 0.07,-0.73 -0.58,-0.39 -9.37,4.92 -8.63,15.13 c 0.27,3.66 -0.87,5.16 -3.01,7.76 q -7.82,9.49 -11.72,13.74 a 0.34,0.33 54.1 0 1 -0.55,-0.09 c -4.44,-10.1 -1.68,-25.09 -0.69,-36.07 q 0.07,-0.76 -0.54,-0.3 l -2.15,1.6 a 0.49,0.49 0 0 1 -0.78,-0.32 l -0.32,-2.21 a 0.27,0.27 0 0 0 -0.4,-0.2 q -4.8,2.62 -7.54,7.27 a 1.57,1.55 -33.9 0 0 -0.21,1.03 c 1.39,9.76 1.99,18.63 0.53,28.82 q -1.67,11.66 -3.05,23.4 -0.06,0.52 0.41,0.29 7.71,-3.68 9.06,-12.13 a 0.48,0.47 -77.3 0 1 0.59,-0.38 c 5.87,1.63 11.47,-3.19 14.76,-7.54 q 0.94,-1.25 -0.61,-1.09 l -6.14,0.64 q -1.56,0.17 -0.53,-1.01 l 11.87,-13.58 q 0.3,-0.35 0.26,0.11 -1.07,10.5 -0.86,21.09 0.05,2.92 1.46,5 c 4.41,6.52 9.88,-0.8 13.05,-3.48 q 0.98,-0.83 0.84,0.46 -0.27,2.52 1.34,2.59 c 9.53,0.4 18.57,0.38 23.74,-9.19 q 0.18,-0.34 -0.2,-0.29 L 280,293.8 a 0.48,0.47 -7.7 0 1 -0.54,-0.41 l -1.86,-14.06 a 0.99,0.99 0 0 1 1.01,-1.12 c 9.22,0.28 15.54,0.66 21.42,-7.31 q 1.53,-2.07 -1.03,-1.84 c -7.94,0.69 -16.95,-0.93 -22.06,6.94 q -1.06,1.63 -1.11,-0.31 l -0.29,-10.26 a 0.71,0.7 -5 0 1 0.61,-0.72 q 9.32,-1.31 18.76,-0.98 c 4.25,0.15 6.79,-0.88 9.25,-4.05 q 0.32,-0.41 0.36,0.1 z"
         inkscape:connector-curvature="0"
         style="fill:#ffffff" />
      <path
         id="path24376"
         d="m 242.06,0 39.86,-0.09 q 10.54,12.51 22.02,23.72 a 1.76,1.76 0 0 0 1.89,0.38 c 4.65,-1.86 8.03,-3.72 11.07,-7.95 C 317.78,14.83 327.33,3.1 326.56,0 h 1 l 1.25,0.44 q 0.47,0.17 0.81,0.52 20.35,21.49 33.85,39.57 23.89,32 39.81,71.76 c 1.52,3.79 1.43,6.71 -0.83,9.87 a 0.55,0.55 0 0 1 -0.73,0.15 c -3.6,-2.17 -7.36,-5.92 -9.66,-7.83 q -15.2,-12.62 -28.62,-27.17 -28.92,-31.32 -58.3,-62.3 a 0.69,0.69 0 0 0 -1.14,0.2 c -4.68,10.61 -8.9,19.22 -17.55,28.51 a 0.35,0.35 0 0 1 -0.43,0.06 l -0.27,-0.17 a 0.55,0.54 -71.3 0 1 -0.26,-0.53 l 0.31,-2.72 q 0.1,-0.9 -0.45,-0.18 l -4.65,6.01 a 0.45,0.45 0 0 1 -0.75,-0.05 c -0.74,-1.29 2.59,-5.49 3.37,-6.78 q 0.3,-0.5 -0.28,-0.48 c -1.64,0.05 -3.78,5.77 -4.13,6.96 a 1.95,1.9 -14.8 0 1 -0.51,0.85 l -1.15,1.09 a 1.02,1.01 65.1 0 0 -0.31,0.86 q 0.25,2.13 -1.28,3.32 a 1.75,1.71 79.9 0 0 -0.6,0.88 l -0.39,1.36 a 0.65,0.65 0 0 1 -0.85,0.42 q -2.37,-0.88 -3.89,1.1 a 1.21,1.21 0 0 1 -0.77,0.47 q -2.34,0.42 -2.96,-1.59 a 1.23,1.22 54.7 0 1 0.18,-1.1 q 2.2,-3.04 2.9,-6.67 0.11,-0.61 -0.43,-0.32 -0.85,0.46 -1.1,1.04 -3.66,8.58 -11.17,16.24 -0.64,0.66 -0.84,-0.24 l -0.07,-0.27 a 0.37,0.37 0 0 1 0.08,-0.32 q 1.11,-1.31 0.72,-3.11 a 0.99,0.98 -81.1 0 0 -0.48,-0.66 c -3.56,-2 -4.36,2.76 -6.65,3.85 q -1.53,0.72 -1.01,-0.89 l 2.37,-7.4 a 0.42,0.41 -78.9 0 0 -0.36,-0.54 c -0.34,-0.02 -0.42,0.02 -0.61,0.29 q -1.56,2.19 -4.07,3.16 a 0.61,0.6 65.8 0 1 -0.75,-0.29 L 244.21,66 q 3.39,-2.73 5.32,-6.55 0.23,-0.46 -0.27,-0.34 -2.3,0.56 -3.85,1.9 -4.09,-1.57 -7.51,-4.18 a 1.64,1.59 -23.7 0 0 -0.89,-0.33 l -3.97,-0.25 -0.03,-14.85 a 0.61,0.61 0 0 0 -0.9,-0.54 q -4.33,2.32 -7.37,6.19 a 1.46,1.45 -24.3 0 0 -0.3,0.79 l -0.23,3.91 q -1.81,0.36 -2.63,0.02 -2.08,-0.84 -1.8,-3.07 0.68,-5.31 3.46,-9.82 0.49,-0.79 -0.29,-0.29 -3.53,2.28 -4.56,6.31 a 0.6,0.6 0 0 1 -0.75,0.43 c -3.35,-1.03 7.23,-17.95 9.74,-21.43 a 1.72,1.64 -26.5 0 0 0.32,-0.88 q 0.32,-4.93 2.28,-9.47 a 2.01,1.97 -6.4 0 1 0.67,-0.82 Q 233.1,11 234.89,8.65 c 2.05,-2.69 4.59,-3.7 5.88,-7.2 0.27,-0.72 0.68,-1.08 1.29,-1.45 z m -2.2223,6.988 a 0.44,0.44 0 0 0 -0.1913,-0.5921 l -0.0356,-0.0183 a 0.44,0.44 0 0 0 -0.5921,0.1913 l -4.1364,8.0831 a 0.44,0.44 0 0 0 0.1913,0.5921 l 0.0356,0.0183 a 0.44,0.44 0 0 0 0.5921,-0.1913 z M 299.35,23.42 q -4.27,5.48 -5.57,12.32 -0.41,2.2 0.72,0.26 l 5.97,-10.24 q 0.28,-0.47 0.74,-0.78 0.92,-0.63 0.14,-1.59 a 1.28,1.28 0 0 0 -2,0.03 z"
         inkscape:connector-curvature="0"
         style="fill:#d4d4d4" />
      <path
         id="path24378"
         d="M 281.92,-0.09 326.56,0 c 0.77,3.1 -8.78,14.83 -9.66,16.06 -3.04,4.23 -6.42,6.09 -11.07,7.95 a 1.76,1.76 0 0 1 -1.89,-0.38 Q 292.46,12.42 281.92,-0.09 Z"
         inkscape:connector-curvature="0"
         style="fill:#afafaf" />
      <path
         id="path24380"
         d="m 224.21,51.75 0.23,-3.91 a 1.46,1.45 -24.3 0 1 0.3,-0.79 q 3.04,-3.87 7.37,-6.19 a 0.61,0.61 0 0 1 0.9,0.54 l 0.03,14.85 0.02,10.69 a 0.42,0.42 0 0 0 0.49,0.41 q 6.59,-1.27 11.86,-6.34 1.55,-1.34 3.85,-1.9 0.5,-0.12 0.27,0.34 -1.93,3.82 -5.32,6.55 -5.43,4.35 -11.67,7.66 a 0.86,0.85 77.2 0 0 -0.45,0.72 q -0.39,12.31 -0.9,24.56 c -0.2,4.79 -3.54,8.54 -7.61,10.39 a 0.68,0.68 0 0 1 -0.96,-0.64 l 1.11,-31.34 a 0.38,0.38 0 0 0 -0.44,-0.39 l -8.8,1.35 a 0.71,0.7 85.4 0 0 -0.6,0.71 l 0.46,21.25 a 1.74,1.68 -29.5 0 1 -0.29,0.98 q -3.01,4.46 -7.75,7.13 a 0.54,0.54 0 0 1 -0.81,-0.44 l -0.65,-12.26 a 0.36,0.35 -16.2 0 0 -0.53,-0.29 q -15.22,8.73 -32.92,7.76 a 1.32,1.27 64.6 0 1 -0.74,-0.28 q -3.88,-3.04 -5.29,-7.78 a 0.34,0.34 0 0 0 -0.56,-0.14 q -4.33,4.33 -8.7,8.59 c -5.22,5.07 -9.34,7.19 -14.66,0.71 q -4.73,-5.78 -5.95,-11.6 -0.1,-0.48 -0.34,-0.05 c -0.91,1.62 -4.61,9.6 -3.83,11.77 a 0.41,0.4 -22.6 0 0 0.56,0.23 l 1.33,-0.65 q 1.06,-0.52 0.49,0.52 -2.24,4.04 -6.18,6.42 a 1.1,1.08 -15.8 0 0 -0.53,0.93 v 11.46 a 1.4,1.4 0 0 0 0.41,0.99 q 6.85,6.71 8.65,16.14 0.25,1.28 1.08,0.27 c 4.88,-5.91 14.31,-15.83 21.88,-17.79 a 0.53,0.52 -13.5 0 1 0.64,0.39 q 0.14,0.61 -0.34,1.05 c -2.92,2.67 -4.58,4.49 -4.82,8.71 -0.55,9.87 -2.19,23.76 4.38,31.39 q 0.33,0.38 0.49,-0.1 4.59,-13.85 2.87,-28.32 c -1.42,-11.93 26.02,-21.82 35.09,-22.49 q 3.96,-0.29 1.98,3.15 c -1.04,1.82 -8.4,11.9 -10.35,11.43 a 0.39,0.38 -70 0 1 -0.25,-0.55 l 2.56,-5.1 q 0.35,-0.7 -0.43,-0.62 -10.43,1.14 -19.75,5.89 a 1.16,1.16 0 0 0 -0.63,1.22 q 0.86,5.57 3.14,10.76 0.74,1.68 2.52,1.21 c 1.84,-0.48 13.38,-3.85 14.09,-3.56 a 1.14,1.12 -54.1 0 1 0.29,1.9 q -10.65,9.23 -13.77,23.04 a 2.09,2.08 19.6 0 0 1.12,2.34 c 6.98,3.39 12.42,-1.07 16.37,-6.65 6.57,-9.27 -6.09,-19.93 2.75,-29.5 10.03,-10.86 23.25,-13.56 37.82,-15.1 q 2.32,-0.25 1.18,1.8 c -1.89,3.39 -5.9,6.36 -10.13,6.77 q -7.97,0.78 -15.76,2.76 a 0.85,0.85 0 0 0 -0.62,0.68 l -2.56,16.69 q -0.04,0.24 0.19,0.14 8.51,-3.81 17.71,-5.51 0.95,-0.17 0.59,0.72 c -2.93,7.35 -11.95,12.2 -16.93,18.15 a 0.76,0.76 0 0 0 -0.11,0.83 c 1.73,3.56 -1.11,6.31 -3.22,8.4 q -1.46,1.45 0.54,1.95 16.4,4.01 32.04,-2.05 0.62,-0.23 0.3,0.34 C 230.9,177.8 214.7,177.46 202,176.23 q -4.78,-0.46 -7.9,-3.42 a 1.15,1.13 22.8 0 1 -0.36,-0.85 c 0.04,-4.47 5.29,-8.95 4.61,-11.58 q -0.64,-2.49 -2.3,-0.53 c -5.69,6.7 -14.49,15.94 -24.05,13.86 -3.58,-0.78 -7.14,-2.18 -8.42,-5.86 a 0.39,0.38 -31.2 0 0 -0.63,-0.15 l -5.79,5.69 a 1.73,1.69 17.5 0 1 -0.91,0.46 c -7.51,1.27 -10.71,-9.31 -10.68,-14.85 q 0.05,-12.28 1,-24.53 0.04,-0.5 -0.32,-0.16 -5.28,5 -8.37,9.85 c -2.55,4.01 -1.96,8.66 -3.07,12.43 q -1.24,4.18 -3.36,8.12 -1.05,1.96 0.89,3.05 4.27,2.42 8.64,0.3 1.29,-0.63 0.52,0.57 c -3.78,5.86 -10.37,11.9 -17.62,7.04 a 0.8,0.77 46 0 0 -0.84,-0.03 c -3.3,1.9 -6.47,5.11 -10.08,5.8 -11.17,2.15 -22.06,-5.21 -21.86,-17.24 q 0.01,-0.51 -0.36,-0.17 -2.89,2.63 -5.44,5.24 c -8.15,8.33 -32.33,23.44 -38,3.45 -1.22,-4.29 4.15,-7.75 7.24,-9.71 a 0.43,0.42 -25.4 0 1 0.63,0.22 l 1.3,3.93 q 0.5,1.5 0.57,-0.08 c 0.32,-6.86 -0.49,-15.66 -0.61,-20.36 q -0.28,-10.17 -0.15,-20.4 0.02,-1.62 0.98,-2.91 2.85,-3.83 6.97,-6.17 0.89,-0.51 0.82,0.51 l -0.32,5.21 q -0.04,0.61 0.47,0.27 c 8.26,-5.53 20.28,-9.13 30.63,-10.73 q 5.31,-0.82 9.78,-4.07 a 0.55,0.55 0 0 1 0.82,0.2 l 0.14,0.28 a 0.56,0.54 57 0 1 -0.13,0.65 c -3.88,3.34 -2.15,9.02 -2.91,13.76 a 1.17,1.17 0 0 0 0.23,0.9 q 0.68,0.85 1.58,0.14 c 4.53,-3.61 7.38,-5.73 12.71,-4.7 a 0.39,0.39 0 0 0 0.47,-0.41 l -1.97,-28.27 q -0.11,-1.49 -0.98,-0.28 c -2.82,3.87 -9.07,11.63 -14.28,9.49 -4.13,-1.69 -6.55,-8.04 -7.72,-12.2 Q 93.25,86.86 92.8,87.95 89.08,97 81.45,102.75 c -6.19,4.68 -6.9,-4.13 -6.87,-7.75 q 0.15,-18.36 1.34,-36.68 a 0.38,0.38 0 0 0 -0.49,-0.39 l -9,2.87 q -1.76,0.56 -1.74,2.41 l 0.36,32.54 a 0.88,0.87 -78.2 0 0 0.5,0.78 l 0.25,0.12 a 0.97,0.97 0 0 1 0.57,0.82 q 0.78,10.32 -8.38,15.05 a 1.19,1.18 -13.7 0 1 -1.73,-1.05 q -0.02,-21.66 -0.01,-43.1 0,-0.11 -0.43,-3.19 c -0.27,-1.9 0.86,-3.57 0.98,-5.34 q 1.23,-18.8 1.19,-37.63 C 57.98,16.44 61,12.62 66.13,10.43 a 0.43,0.42 79.5 0 1 0.59,0.41 l -1.23,44.72 a 0.28,0.28 0 0 0 0.39,0.27 l 10.9,-4.54 a 1,1 0 0 0 0.6,-0.78 q 2.27,-14.57 4.91,-29.04 c 1.49,-8.15 3.21,-13 9.81,-16.2 q 0.75,-0.36 0.58,0.46 -4.35,21.05 -7.56,42.31 a 1.3,1.29 0.5 0 0 1.46,1.47 q 2.96,-0.41 4.29,2.32 a 1.73,1.73 0 0 1 -0.35,2.01 l -6.63,6.49 a 1.12,1.11 -22.3 0 0 -0.34,0.8 Q 83.43,75.06 83.19,89 q -0.03,1.28 0.48,4.51 a 0.45,0.44 75.3 0 0 0.59,0.35 c 2.44,-0.85 6.68,-22.38 7.08,-25.52 0.5,-3.89 4.22,-7.05 7.42,-8.66 a 0.64,0.63 -15.2 0 1 0.92,0.52 c 0.74,10.72 0.59,21.58 7.83,30.37 q 2.32,2.81 3.59,-0.61 1.7,-4.56 2.24,-10.97 0.99,-11.7 1.05,-23.44 a 1.35,1.27 66.2 0 1 0.28,-0.79 q 3.08,-3.89 7.41,-6.26 a 0.43,0.43 0 0 1 0.64,0.39 c -0.11,6.92 0.91,15.29 1.22,20.58 q 0.84,14.58 2.54,29.09 0.08,0.66 0.36,0.06 l 6.85,-14.65 a 2,1.99 45.5 0 0 0.01,-1.67 q -4.32,-9.49 -7.25,-19.5 a 1.37,1.36 49.4 0 1 0.07,-0.97 c 0.9,-1.98 5.58,-8.51 8.72,-6.66 a 0.27,0.27 0 0 0 0.41,-0.22 C 136,44.11 136.97,31.61 147.18,26.89 q 0.47,-0.22 0.34,0.29 c -3.28,12.11 -3.86,24.7 -4.34,37.28 q -0.07,1.92 0.99,0.32 c 6.94,-10.44 13.92,-19.82 24.85,-26.02 q 1.24,-0.7 2.88,-0.39 a 0.45,0.45 0 0 1 0.34,0.58 c -2.08,6.48 -10.3,7.21 -14.26,11.71 -5.76,6.56 -10.24,15.72 -14.31,23.47 a 3.22,3.22 0 0 0 -0.13,2.68 q 4.14,10.34 13.53,16.22 2.02,1.26 2.6,-1.05 1.87,-7.51 6.31,-13.74 a 0.92,0.92 0 0 0 0.07,-0.96 c -3.28,-6.22 -0.53,-11.55 4.46,-16.02 q 14.71,-13.21 34.78,-12.8 a 0.49,0.49 0 0 1 0.42,0.73 q -2.63,4.82 -7.31,7.67 a 0.87,0.86 41.2 0 1 -0.81,0.05 l -0.39,-0.17 q -0.35,-0.16 -0.74,-0.15 -12.12,0.33 -22.89,5.85 a 1.11,1.11 0 0 0 -0.6,1.08 q 0.4,4.73 3.12,8.63 a 0.71,0.69 67.3 0 0 0.7,0.3 l 16.42,-2.61 a 1.12,1.11 -4.9 0 1 1.3,1.09 c 0.05,3.92 -5.65,8.51 -8.77,10.21 a 0.28,0.28 0 0 1 -0.4,-0.15 l -0.09,-0.24 a 0.37,0.02 -58.9 0 1 0.17,-0.32 q 0.36,-0.61 0.56,-1.28 a 0.51,0.51 0 0 0 -0.55,-0.65 l -6.75,0.9 a 0.34,0.33 -10.7 0 0 -0.29,0.41 q 1.7,7.28 -0.44,14.47 a 0.41,0.41 0 0 0 0.37,0.52 q 13.51,0.87 25.96,-4.24 a 1.25,1.24 -12.1 0 0 0.77,-1.18 L 204.82,78.9 a 0.67,0.67 0 0 0 -0.67,-0.65 h -5.05 q -0.73,0 -0.35,-0.62 2.2,-3.57 5.63,-5.98 a 0.87,0.87 0 0 0 0.37,-0.71 V 54.31 A 1.34,1.34 0 0 1 205,53.53 q 3.11,-4.34 7.64,-7.09 0.49,-0.29 0.5,0.28 l 0.42,22.69 a 0.6,0.6 0 0 0 0.6,0.59 h 9.55 a 0.5,0.5 0 0 0 0.5,-0.5 z m -141.84,85.2 c 3.95,-0.72 7.51,-0.96 9.98,1.98 q 0.48,0.58 0.66,-0.15 l 1.72,-7.36 a 0.93,0.92 26.4 0 0 -0.32,-0.94 q -2.33,-1.87 -3.66,-4.55 -0.24,-0.48 -0.24,-1.02 l -0.03,-3.74 a 0.55,0.54 84.2 0 0 -0.64,-0.53 q -12.59,2.24 -24.45,7.06 a 0.81,0.81 0 0 0 -0.5,0.76 l 0.39,17.02 q 0.03,1.32 0.99,0.41 c 4.36,-4.14 10.08,-7.85 16.1,-8.94 z m 34.6665,-5.9745 a 4.25,0.82 16.9 0 0 -3.8281,-2.0201 4.25,0.82 16.9 0 0 -4.3049,-0.4509 4.25,0.82 16.9 0 0 3.8281,2.0201 4.25,0.82 16.9 0 0 4.3049,0.4509 z M 106.52,139.53 q -1.38,-0.74 -2.82,-0.42 a 0.58,0.58 0 0 0 -0.45,0.62 c 0.36,3.44 -3.9,15.42 2.06,17.39 a 1.12,1.12 0 0 1 0.47,1.83 l -4.32,4.64 a 0.72,0.71 49.6 0 0 -0.07,0.9 q 6.76,9.94 18.92,8.57 2.11,-0.24 2.3,-2.35 0.6,-6.45 3.43,-13.06 c 3.6,-8.41 0.13,-16.55 -5,-23.23 a 1,1 0 0 0 -1.51,-0.09 q -4.95,5.06 -12.07,5.42 a 1.81,1.81 0 0 1 -0.94,-0.22 z m -24.85,6.23 q -1.72,-1.08 -3.7,-0.69 l -6.84,1.34 q -2.5,0.49 -2.85,3.01 -1.03,7.46 -1.74,13.89 c -0.44,4 -2.68,6.37 -5.51,8.85 a 0.36,0.36 0 0 0 0.06,0.58 c 5.63,3.08 14.49,-0.01 19.66,-2.95 7.36,-4.19 6.83,-11.94 4.81,-19.04 q -0.89,-3.11 -3.89,-4.99 z m 125.73,2.5 -0.19,3.8 q -0.05,0.91 0.63,0.3 l 7.05,-6.29 q 0.62,-0.55 -0.18,-0.33 l -6.78,1.85 a 0.72,0.72 0 0 0 -0.53,0.67 z m -28.08,-1.41 c -3.59,-1.09 -3.96,2.19 -3.46,4.66 q 0.1,0.49 0.41,0.1 l 3.25,-4.14 a 0.4,0.39 27.4 0 0 -0.2,-0.62 z"
         inkscape:connector-curvature="0"
         style="fill:#0c0c0c" />
      <rect
         id="rect24382"
         rx="0.44"
         height="9.96"
         width="0.92000002"
         transform="rotate(27.1,96.232046,497.85422)"
         y="-4.98"
         x="-0.46000001"
         style="fill:#ffffff" />
      <path
         id="path24384"
         d="m 299.35,23.42 a 1.28,1.28 0 0 1 2,-0.03 q 0.78,0.96 -0.14,1.59 -0.46,0.31 -0.74,0.78 L 294.5,36 q -1.13,1.94 -0.72,-0.26 1.3,-6.84 5.57,-12.32 z"
         inkscape:connector-curvature="0"
         style="fill:#ffffff" />
      <path
         id="path24386"
         d="m 233.04,56.25 3.97,0.25 a 1.64,1.59 -23.7 0 1 0.89,0.33 q 3.42,2.61 7.51,4.18 -5.27,5.07 -11.86,6.34 a 0.42,0.42 0 0 1 -0.49,-0.41 z"
         inkscape:connector-curvature="0"
         style="fill:#ffffff" />
      <path
         id="path24388"
         d="m 92.35,138.93 c -2.47,-2.94 -6.03,-2.7 -9.98,-1.98 -6.02,1.09 -11.74,4.8 -16.1,8.94 q -0.96,0.91 -0.99,-0.41 l -0.39,-17.02 a 0.81,0.81 0 0 1 0.5,-0.76 q 11.86,-4.82 24.45,-7.06 a 0.55,0.54 84.2 0 1 0.64,0.53 l 0.03,3.74 q 0,0.54 0.24,1.02 1.33,2.68 3.66,4.55 a 0.93,0.92 26.4 0 1 0.32,0.94 l -1.72,7.36 q -0.18,0.73 -0.66,0.15 z"
         inkscape:connector-curvature="0"
         style="fill:#ffffff" />
      <ellipse
         id="ellipse24390"
         ry="0.81999999"
         rx="4.25"
         transform="rotate(16.9,-380.17664,445.08941)"
         cy="0"
         cx="0"
         style="fill:#ffffff" />
      <path
         id="path24392"
         d="m 107.46,139.75 q 7.12,-0.36 12.07,-5.42 a 1,1 0 0 1 1.51,0.09 c 5.13,6.68 8.6,14.82 5,23.23 q -2.83,6.61 -3.43,13.06 -0.19,2.11 -2.3,2.35 -12.16,1.37 -18.92,-8.57 a 0.72,0.71 49.6 0 1 0.07,-0.9 l 4.32,-4.64 a 1.12,1.12 0 0 0 -0.47,-1.83 c -5.96,-1.97 -1.7,-13.95 -2.06,-17.39 a 0.58,0.58 0 0 1 0.45,-0.62 q 1.44,-0.32 2.82,0.42 a 1.81,1.81 0 0 0 0.94,0.22 z"
         inkscape:connector-curvature="0"
         style="fill:#ffffff" />
      <path
         id="path24394"
         d="m 81.67,145.76 q 3,1.88 3.89,4.99 c 2.02,7.1 2.55,14.85 -4.81,19.04 -5.17,2.94 -14.03,6.03 -19.66,2.95 a 0.36,0.36 0 0 1 -0.06,-0.58 c 2.83,-2.48 5.07,-4.85 5.51,-8.85 q 0.71,-6.43 1.74,-13.89 0.35,-2.52 2.85,-3.01 l 6.84,-1.34 q 1.98,-0.39 3.7,0.69 z"
         inkscape:connector-curvature="0"
         style="fill:#ffffff" />
      <path
         id="path24396"
         d="m 207.4,148.26 a 0.72,0.72 0 0 1 0.53,-0.67 l 6.78,-1.85 q 0.8,-0.22 0.18,0.33 l -7.05,6.29 q -0.68,0.61 -0.63,-0.3 z"
         inkscape:connector-curvature="0"
         style="fill:#ffffff" />
      <path
         id="path24398"
         d="m 175.86,151.51 c -0.5,-2.47 -0.13,-5.75 3.46,-4.66 a 0.4,0.39 27.4 0 1 0.2,0.62 l -3.25,4.14 q -0.31,0.39 -0.41,-0.1 z"
         inkscape:connector-curvature="0"
         style="fill:#ffffff" />
      <ellipse
         id="ellipse24400"
         ry="1.64"
         rx="9.5299997"
         transform="rotate(128.8,158.1872,171.60988)"
         cy="0"
         cx="0"
         style="fill:#0c0c0c" />
      <path
         id="path24402"
         d="m 171.84,209.7 c 6.63,-5.56 13.86,-7.36 22.24,-9.36 a 0.57,0.57 0 0 0 0.43,-0.62 q -1.02,-9.77 7.83,-13.71 a 0.68,0.67 -10.1 0 1 0.95,0.66 c -0.47,6.31 -2.12,13.37 -1.76,19.56 q 0.05,0.8 0.52,0.15 c 4.87,-6.72 11.61,-16.78 20.22,-18.57 11.95,-2.49 21.59,-5.97 32.71,-9.04 a 0.82,0.82 0 0 1 1.03,0.63 q 0.03,0.13 -0.11,0.56 -4.86,14.89 -5.93,30.58 -0.05,0.77 0.41,0.16 l 10.8,-14.3 q 0.32,-0.42 0.39,-0.94 c 2.23,-15.27 28.57,-15.99 39.73,-16.77 a 0.91,0.9 86.6 0 1 0.96,0.86 c 0.33,6.95 -7.78,14.29 -14.13,19.83 q -0.5,0.44 0.16,0.38 l 13.22,-1.12 a 0.58,0.57 -88.7 0 0 0.52,-0.5 c 1.16,-8.36 -0.59,-14.31 8.47,-18.8 a 0.72,0.72 0 0 1 1.04,0.67 q -0.3,9.16 -1.79,18.2 a 0.47,0.46 4.7 0 0 0.46,0.54 H 323 a 0.5,0.5 0 0 0 0.5,-0.5 v -14.54 a 1.77,1.75 61.9 0 1 0.29,-0.97 q 2.8,-4.25 7.28,-6.8 a 0.62,0.61 75.3 0 1 0.91,0.54 l 0.03,20.3 q 0,0.75 0.6,0.31 l 4.31,-3.13 a 1,1 0 0 1 0.91,-0.13 l 0.27,0.1 a 0.51,0.51 0 0 0 0.68,-0.48 c 0.13,-7.58 -0.34,-15 7.94,-18.67 q 1.61,-0.72 1.42,1.03 l -2,18.45 q -0.06,0.55 0.35,0.18 8.67,-7.71 16.73,-15.99 c 0.52,-0.54 1.74,-1.41 2.24,-1.63 a 1.25,1.24 81 0 1 1.74,1.27 q -1.07,10.28 -2.4,19.04 c -0.69,4.53 -0.62,9.49 -1.08,14.6 q -0.36,4.03 2.72,6.77 a 0.68,0.68 0 0 0 0.91,-0.02 l 1.71,-1.65 a 1.3,1.26 -22.1 0 0 0.39,-0.89 q 0.03,-1.97 0.35,-3.93 2.21,-13.67 3.26,-27.47 c 0.31,-4.09 4.53,-7.38 7.79,-9.33 a 0.41,0.41 0 0 1 0.62,0.34 c 0.17,9.79 -1.54,19.58 -2.98,29.26 q -0.2,1.33 0.6,0.24 6.49,-8.83 13.33,-18.1 2.7,-3.66 6.64,-5.97 a 0.53,0.53 0 0 1 0.73,0.21 q 1.62,2.92 1.25,6.26 -1.78,16.27 -3.19,32.58 -0.29,3.45 2.76,2.92 1.29,-0.22 0.49,0.81 c -1.04,1.36 -9.39,10.6 -11.15,6.99 q -0.89,-1.82 -0.71,-3.53 l 3.42,-33.26 q 0.28,-2.76 -1.37,-0.54 -5.27,7.06 -11.53,15.05 c -4.91,6.28 1.69,12.4 8.19,10.12 a 0.39,0.38 69.1 0 1 0.48,0.22 l 0.1,0.25 a 0.24,0.23 -35.1 0 1 -0.04,0.22 c -4.7,5.61 -10.79,12.62 -17.32,5.52 -0.83,-0.89 -1.12,-2.24 -1.8,-3.33 a 0.41,0.4 -38.6 0 0 -0.63,-0.07 l -7.15,7.11 q -1.16,1.15 -1.36,-0.47 -0.1,-0.82 0.56,-1.14 0.99,-0.48 -0.11,-0.5 -0.62,-0.01 -2.26,0.46 a 0.76,0.75 -29.5 0 1 -0.78,-0.21 q -2.09,-2.18 -2.49,-5.17 -0.1,-0.78 -0.67,-0.24 c -2.6,2.47 -5.12,5.46 -8.05,7.1 -4.57,2.55 -9.97,3.36 -13.71,-1.04 a 0.48,0.48 0 0 0 -0.73,0.01 q -2.44,2.88 -5.39,4.91 -3.11,2.13 -3.11,-1.65 l 0.02,-23.33 a 0.47,0.46 -1.2 0 0 -0.49,-0.46 l -12.82,0.75 a 0.65,0.63 3.3 0 0 -0.6,0.52 q -1.38,7.5 0.26,14.89 a 0.66,0.66 0 0 0 0.85,0.48 l 0.5,-0.18 a 0.69,0.68 -21 0 1 0.85,0.37 c 1.28,2.93 -4.81,8.29 -6.74,9.73 q -1.81,1.36 -2.94,-0.61 c -2.68,-4.68 -1.92,-10.71 -1.88,-16.05 q 0,-0.68 -0.44,-0.16 -12.37,14.34 -31.36,16.5 a 1.85,1.82 64.2 0 1 -1.54,-0.55 c -4.01,-4.09 -5.2,-7.96 -5.14,-14.04 q 0.08,-8.74 -0.19,-17.46 -0.01,-0.51 -0.33,-0.11 c -3.31,4.07 -19.29,21.17 -7.35,24.32 a 1.05,1.03 -53.6 0 0 0.81,-0.13 l 3.17,-1.97 q 1.19,-0.75 0.51,0.49 c -2.35,4.28 -11.79,15.3 -16.2,6.75 q -0.5,-0.96 -1.14,-1.94 a 0.44,0.44 0 0 0 -0.67,-0.08 l -3.8,3.61 a 1.64,1.59 -70 0 1 -0.89,0.43 l -1.71,0.25 a 1.49,1.44 -70.7 0 0 -0.8,0.4 l -4.34,4.21 a 0.79,0.79 0 0 1 -1.24,-0.17 q -3.5,-6.03 -3.42,-13.03 0.01,-0.76 -0.52,-0.21 -4.93,5.2 -10.74,9.22 c -2.73,1.9 -5.53,1.74 -8.68,1.72 a 1.53,1.52 -61.9 0 0 -0.91,0.28 c -4.6,3.14 -9.82,3.02 -10.92,-3.43 q -0.08,-0.51 -0.43,-0.12 c -7.06,7.89 -18.19,6.93 -27.96,6.78 a 0.52,0.52 0 0 1 -0.52,-0.46 q -1.18,-10.21 -0.65,-20.5 0.05,-0.97 -0.4,-0.11 c -3.92,7.6 -7.24,11.3 -13.86,17.49 a 1.15,1.13 -22 0 0 -0.36,0.83 q -0.02,8.2 0.1,16.24 0.08,5.5 3.17,8.23 a 0.51,0.51 0 0 1 0.03,0.73 l -2.07,2.22 q -0.66,0.72 0.27,0.4 c 6.16,-2.1 19.52,-6.99 24.31,-4.98 a 0.71,0.7 -58.8 0 0 0.83,-0.21 q 2.69,-3.33 6.29,-5.66 a 0.53,0.53 0 0 1 0.79,0.28 q 0.66,1.87 -0.11,3.77 -0.32,0.79 0.51,0.56 7.3,-2.07 14.98,-1.86 3.01,0.08 3.45,3.06 l 1,6.82 a 1.55,1.55 0 0 0 0.48,0.91 c 3.45,3.15 2.31,14.42 2.23,20.75 a 0.65,0.65 0 0 0 0.47,0.64 c 4.61,1.33 5.6,-1.72 5.52,-5.55 q -0.21,-10.39 0.78,-20.71 c 0.52,-5.43 3.02,-8.57 7.68,-10.86 a 1.09,1.08 42.7 0 1 0.92,-0.03 c 6.38,2.67 2.77,19.38 0.91,23.76 q -1.66,3.91 -1.65,4.75 0.23,15.93 -0.55,29.49 c -0.68,11.78 -9.65,21.34 -20.13,25.6 -14.97,6.09 -15.14,-13.57 -14.3,-22.08 0.53,-5.28 5.94,-9.25 10.41,-11.29 q 1.24,-0.56 0.61,0.65 c -1.05,2.01 -2.41,3.67 -2.59,6.02 -0.43,5.51 0.04,12.92 3.54,17.46 q 1.52,1.97 4,2.12 c 5.44,0.33 8.48,-2.08 9.5,-7.5 1.58,-8.41 1.05,-18.23 0.76,-29.26 q -0.01,-0.5 -0.39,-0.17 c -3.33,2.9 -6.77,6.96 -11.49,6.5 q -2.5,-0.24 -2.49,-2.74 l 0.01,-8.78 q 0,-1.13 -0.62,-0.18 -6.14,9.56 -15.75,15.61 a 1.02,1.02 0 0 0 -0.48,0.81 q -0.64,15.03 0.64,29.98 c 0.52,5.99 -2.85,9.92 -7.87,12.55 a 0.34,0.33 -15.7 0 1 -0.49,-0.27 c -1.65,-24.8 -1.71,-50.63 1.65,-75.28 a 0.67,0.67 0 0 0 -0.81,-0.75 l -1.69,0.38 a 0.15,0.15 0 0 1 -0.17,-0.07 l -0.14,-0.23 a 0.32,0.3 -39.6 0 1 0.04,-0.36 q 1.38,-1.5 2.25,-3.32 0.44,-0.93 -0.35,-0.27 l -5.64,4.68 a 0.69,0.69 0 0 1 -1.07,-0.26 l -0.5,-1.18 a 0.88,0.87 -16.3 0 0 -0.96,-0.52 l -7.01,1.23 a 0.54,0.53 80.6 0 0 -0.43,0.61 q 0.27,1.75 0.16,2.57 -1.79,13.32 -1.75,26.75 0,2.02 0.52,3.96 a 1.07,1.06 56.4 0 1 -0.18,0.91 q -3.16,4.12 -7.39,7.11 a 0.67,0.66 69.1 0 1 -1.04,-0.47 q -0.82,-7.49 -0.07,-14.96 0.07,-0.75 -0.48,-0.24 c -3.7,3.36 -9.66,10.18 -14.88,10.22 -8.27,0.08 -12.93,-1.88 -13.09,-11.06 -0.15,-8.77 -0.69,-18.18 4.01,-26.31 q 0.48,-0.83 -0.22,-0.17 l -4.51,4.31 a 1.06,1.05 67.9 0 0 -0.33,0.79 q 0.25,12.44 0.13,24.92 c -0.04,3.16 1.3,5.21 2.42,8.04 a 1.14,1.11 -40.7 0 1 -0.09,0.99 q -2.74,4.54 -7.41,7.05 a 0.61,0.59 57.2 0 1 -0.75,-0.17 q -2.85,-3.75 -2.75,-6.17 0.59,-14.68 -0.93,-29.3 a 0.38,0.38 0 0 0 -0.6,-0.27 q -4.29,2.96 -9.22,4.67 a 0.74,0.74 0 0 0 -0.5,0.78 l 1.53,16.15 a 3.76,3.73 61.8 0 1 -0.81,2.72 q -2.82,3.53 -6.73,5.81 a 0.4,0.4 0 0 1 -0.59,-0.23 q -0.97,-3.18 -1.18,-7.01 -0.91,-16.09 -0.56,-30.42 a 0.4,0.39 84.3 0 0 -0.48,-0.4 c -1.83,0.44 -2.81,1.44 -2.87,3.44 -0.32,10.17 -1.13,24.39 1.28,35.59 a 1.05,1.04 -28 0 1 -0.31,0.99 l -6.6,6.18 q -1.36,1.28 -1.77,-0.54 c -2.48,-11.21 -1.86,-24.25 -0.99,-35.64 q 0.06,-0.8 -0.49,-0.22 -7.42,7.82 -13.94,16.39 a 1.46,1.44 -29.6 0 0 -0.29,1.03 q 0.44,3.93 2.14,7.51 0.74,1.57 -0.25,2.99 -2.74,3.97 -7.03,6.18 a 0.59,0.59 0 0 1 -0.79,-0.26 q -1.65,-3.17 -2.16,-6.7 -0.16,-1.14 -1.02,-0.37 l -6.76,6.03 a 0.69,0.69 0 0 1 -1,-0.07 c -1.27,-1.52 5.84,-7.78 7.01,-8.88 a 1.67,1.65 68.9 0 0 0.53,-1.22 q -0.05,-14.71 -0.03,-28.3 c 0.02,-6.74 1.4,-11.1 7.94,-13.08 a 0.44,0.44 0 0 1 0.56,0.42 v 30.81 q 0,0.75 0.5,0.19 l 14.4,-16.15 a 1.54,1.5 -22.9 0 0 0.39,-0.93 c 0.66,-8.87 -1.23,-18.53 8.82,-22.92 a 0.38,0.38 0 0 1 0.53,0.34 q 0.23,7.34 -0.97,14.6 -0.11,0.66 0.43,0.27 l 10.31,-7.44 Q 98,257.77 98,259.43 v 14.2 a 0.55,0.55 0 0 0 0.67,0.54 l 8.12,-1.83 a 0.88,0.87 -3.7 0 0 0.68,-0.77 q 0.43,-4.87 -2,-9.08 -0.91,-1.6 0.23,-3.03 l 3.22,-4.08 a 1.63,1.59 64.3 0 0 0.33,-0.98 v -13.13 a 0.59,0.58 -11.9 0 0 -0.82,-0.53 c -6.18,2.69 -18.4,3.94 -18.08,-6.34 0.32,-10.13 2.35,-16.87 6.72,-26.38 q 0.38,-0.82 -0.39,-0.34 l -9.25,5.8 a 0.94,0.94 0 0 0 -0.45,0.82 c 0.14,12.63 0.73,25.18 -10.04,34.87 -6.31,5.68 -18.75,7.42 -23.26,-1.74 q -4.21,-8.57 1.45,-15.78 0.82,-1.04 -0.21,-0.2 l -1.28,1.04 q -1.37,1.12 -1.48,-0.64 -1.65,-26.4 18.88,-42.26 3.86,-2.98 8.15,-4.26 2.51,-0.74 3.82,1.52 c 3.05,5.29 3.49,15.59 3.96,21.69 a 0.45,0.44 72.4 0 0 0.67,0.35 l 9.33,-5.41 a 1.56,1.54 -5.4 0 0 0.66,-0.79 c 2.01,-5.51 7.05,-13.47 13.31,-14.65 q 13.29,-2.51 21.53,7.53 a 0.34,0.34 0 0 0 0.56,-0.04 q 3.16,-5.22 8.2,-8.69 c 2.81,-1.93 5.96,-1.54 9.06,-3.81 q 0.51,-0.38 0.57,0.25 l 0.17,2.12 a 0.68,0.67 -88.4 0 0 0.57,0.61 q 8.81,1.37 13.35,8.8 a 0.47,0.46 55.5 0 0 0.67,0.13 q 1.93,-1.46 5.58,-2.71 c 3.87,-1.33 21.24,-7.33 22.07,-4.37 a 1.31,1.29 -36.4 0 1 -0.17,1.07 q -3.35,4.97 -8.16,8.6 -0.7,0.53 -0.69,-0.35 v -1.23 a 0.51,0.51 0 0 0 -0.56,-0.51 q -5.61,0.41 -10.8,2.6 a 0.97,0.95 81.6 0 0 -0.59,0.81 l -1.01,10.56 q -0.07,0.82 0.55,0.29 z m 186.2,-23.51 c -3.29,3.02 -7.54,6.5 -10.43,10.36 q -0.87,1.17 0.21,0.2 3.88,-3.45 8.97,-1.77 a 0.56,0.56 0 0 0 0.73,-0.45 l 1.16,-8 q 0.16,-1.07 -0.64,-0.34 z m -70.64,10.35 c 3.02,-1.88 6.91,-5.29 6.19,-9.14 a 0.67,0.67 0 0 0 -0.74,-0.54 l -5.57,0.72 a 0.63,0.62 86.3 0 0 -0.54,0.62 l 0.02,7.99 q 0.01,0.75 0.64,0.35 z m -54.22,-4.51 c -0.92,11.66 -1.75,24.34 2.1,35.6 q 0.2,0.58 0.59,0.11 l 5.21,-6.06 a 1.64,1.56 67.4 0 0 0.38,-0.99 q 0.38,-16.81 5.68,-32.7 0.25,-0.75 -0.51,-0.53 l -12.79,3.76 a 0.93,0.92 -6 0 0 -0.66,0.81 z m 37.4,13.82 a 0.33,0.33 0 0 0 0.49,0.29 l 7,-3.88 a 0.33,0.33 0 0 0 0.17,-0.28 l 0.01,-13.29 a 0.33,0.33 0 0 0 -0.41,-0.32 l -7.07,1.68 a 0.33,0.33 0 0 0 -0.25,0.32 z M 71.87,193.8 c -10.04,2.16 -11.88,23.84 -11.21,31.68 q 0.05,0.57 0.49,0.2 7.77,-6.46 16.65,-11.32 a 0.76,0.76 0 0 0 0.39,-0.77 c -0.94,-6.3 -1.08,-12.45 -3.53,-18.33 q -0.79,-1.89 -2.79,-1.46 z m 61.71,27.17 c -0.37,3.95 1.81,7.65 5.44,9.18 a 0.66,0.66 0 0 0 0.92,-0.62 q -0.34,-17.67 2.24,-35.19 a 0.56,0.55 2.1 0 0 -0.59,-0.63 l -2.06,0.16 a 0.99,0.98 -81.1 0 0 -0.83,0.61 c -3.38,8.38 -4.27,17.58 -5.12,26.49 z m 72.61,2.59 c 3.16,2.21 10.4,4.74 12.97,0.62 5.35,-8.6 4.07,-19.61 5.67,-29.58 a 0.37,0.36 -89.9 0 0 -0.41,-0.42 q -4.98,0.83 -9.71,2.49 c -5.15,1.8 -9.99,11.88 -11.7,16.69 q -2.26,6.4 3.18,10.2 z m 131.41,-28.12 -5.14,4.93 a 1.26,1.25 68.4 0 0 -0.39,0.91 l -0.11,8.19 q -0.01,0.81 0.49,0.16 c 2.04,-2.68 4.1,-4.75 4.82,-8.14 q 0.64,-2.98 0.85,-5.81 0.06,-0.79 -0.52,-0.24 z m -231.56,1.7 q 0.77,1.59 0.71,-0.75 0,-0.3 -0.26,-0.15 l -0.23,0.15 a 0.58,0.57 -29.2 0 0 -0.22,0.75 z m -0.48,6.06 q -0.28,0.37 -0.34,0.84 c -0.9,6.88 -1.08,19.49 3.77,25.21 q 0.76,0.91 0.83,-0.27 0.9,-15.5 3.42,-30.82 0.44,-2.64 -1.69,-1.01 -3.4,2.62 -5.99,6.05 z m 46.08,-5.71 q -2.44,-2.14 -2.53,1.11 l -0.8,31.55 a 0.44,0.43 76.9 0 0 0.63,0.4 c 7.27,-3.93 8.4,-18.48 7.69,-25.34 q -0.38,-3.67 -4.99,-7.72 z m -31.35,3.99 q -1.92,14.68 -2.63,29.47 a 0.4,0.4 0 0 0 0.53,0.39 c 7.75,-2.65 6.87,-17.6 6.64,-24.37 q -0.14,-3.99 -3.92,-5.82 a 0.44,0.43 16.8 0 0 -0.62,0.33 z m 229.05,3.92 c -0.94,6.54 0.96,11.05 -5.45,15.07 q -0.92,0.58 0.11,0.9 3.01,0.93 5.99,-0.06 a 1.18,1.17 87.3 0 0 0.76,-0.84 q 1.84,-7.64 -0.57,-15.14 -0.58,-1.79 -0.84,0.07 z m -61.75,12.31 0.14,0.23 a 0.34,0.33 -44.2 0 1 -0.01,0.36 l -2.51,3.83 q -0.64,0.99 0.48,0.63 5.79,-1.85 10.71,-5.43 a 1.57,1.56 71.6 0 0 0.65,-1.31 l -0.19,-6.56 q -0.06,-2.09 -2.15,-2.08 l -9.04,0.03 a 0.79,0.79 0 0 0 -0.79,0.72 l -0.81,10.53 q -0.06,0.84 0.63,0.37 l 2.19,-1.47 a 0.5,0.5 0 0 1 0.7,0.15 z m -101.2,-4.13 1.32,-2.9 q 0.86,-1.9 -1.2,-1.6 -7.29,1.06 -13.91,4.2 a 2.02,2.01 -13.3 0 0 -1.16,1.87 l 0.21,11.4 q 0.05,2.38 2.4,2.7 8.75,1.22 17.35,-0.69 a 0.76,0.75 -4.5 0 0 0.6,-0.7 l 0.91,-17.29 q 0.04,-0.76 -0.55,-0.28 c -1.47,1.17 -3.72,3.93 -5.56,3.93 a 0.45,0.45 0 0 1 -0.41,-0.64 z m 84.09,0.4 a 0.34,0.34 0 0 0 0.62,0.23 l 2.29,-3.46 a 0.34,0.34 0 0 0 -0.44,-0.48 l -2.04,1.13 a 0.34,0.34 0 0 0 -0.17,0.26 z m 5.71,-1.34 c -0.67,1.44 -4.08,9.57 -1.33,9.51 a 0.78,0.77 3 0 0 0.76,-0.68 l 1.09,-8.68 q 0.21,-1.69 -0.52,-0.15 z M 60.48,230.91 c -1.18,8.74 5.96,16.84 15.36,13.77 a 1.02,1 -0.2 0 0 0.64,-0.63 c 2.53,-7.63 1.92,-16.29 1.7,-24.81 a 0.34,0.33 -14 0 0 -0.49,-0.29 q -8.16,4.2 -15.67,9.44 -1.32,0.92 -1.54,2.52 z m 63.81,31.59 -0.59,1.97 q -0.15,0.53 0.29,0.2 1.07,-0.78 1.22,-2.17 c 5.3,-4.14 8.01,-6.68 14.28,-4.96 a 0.4,0.4 0 0 0 0.51,-0.39 v -16.64 a 0.64,0.64 0 0 0 -0.6,-0.64 c -8.8,-0.68 -11.62,-1.28 -14.86,-9.09 a 0.33,0.32 -31.7 0 0 -0.52,-0.12 l -6.08,5.49 a 1.08,1.08 0 0 0 -0.36,0.85 c 0.28,9.01 -1.6,19.05 6.71,25.5 z m 68.52,4.43 c -0.8,-4.48 -7.49,-3.45 -10.68,-2.99 a 0.75,0.75 0 0 0 -0.65,0.68 l -1.18,12.34 q -0.1,1.08 0.58,0.23 4.77,-5.96 11.53,-9.46 a 0.75,0.75 0 0 0 0.4,-0.8 z m -56.17,5.18 1.81,-2.41 a 0.72,0.7 47.7 0 0 0.03,-0.79 c -1.68,-2.64 -6.66,-3.21 -9.55,-3.45 A 0.87,0.86 6.3 0 0 128,266.2 q -0.97,7.15 -1.01,14.3 c -0.05,10.8 1.54,15.76 13.77,14.6 a 1.28,1.27 -71.8 0 0 0.82,-0.42 q 3.47,-3.97 5.32,-8.86 c 1.9,-5.03 -1.02,-8.68 3.49,-13.39 q 2.16,-2.26 4.68,-4.16 0.66,-0.49 -0.12,-0.24 l -6.84,2.15 a 1.53,1.53 0 0 0 -0.84,0.65 q -3.62,5.75 -8.96,9.93 -1.84,1.44 -1.82,-0.9 l 0.01,-2.22 a 1.55,1.52 63.4 0 1 0.29,-0.9 l 2.06,-2.84 a 0.45,0.44 -67.8 0 0 -0.29,-0.7 l -1.59,-0.26 a 0.53,0.52 -67.1 0 1 -0.33,-0.83 z m 56.19,2.74 c -9.99,-1.36 -11.99,9.51 -10.87,16.83 q 0.36,2.37 2.58,1.45 c 4.98,-2.05 8.26,-12.89 8.74,-17.71 a 0.53,0.52 6.8 0 0 -0.45,-0.57 z"
         inkscape:connector-curvature="0"
         style="fill:#0c0c0c" />
      <path
         id="path24404"
         d="m 347.61,196.55 c 2.89,-3.86 7.14,-7.34 10.43,-10.36 q 0.8,-0.73 0.64,0.34 l -1.16,8 a 0.56,0.56 0 0 1 -0.73,0.45 q -5.09,-1.68 -8.97,1.77 -1.08,0.97 -0.21,-0.2 z"
         inkscape:connector-curvature="0"
         style="fill:#ffffff" />
      <path
         id="path24406"
         d="m 293.59,187.4 c 0.72,3.85 -3.17,7.26 -6.19,9.14 q -0.63,0.4 -0.64,-0.35 l -0.02,-7.99 a 0.63,0.62 86.3 0 1 0.54,-0.62 l 5.57,-0.72 a 0.67,0.67 0 0 1 0.74,0.54 z"
         inkscape:connector-curvature="0"
         style="fill:#ffffff" />
      <path
         id="path24408"
         d="m 233.84,191.22 12.79,-3.76 q 0.76,-0.22 0.51,0.53 -5.3,15.89 -5.68,32.7 a 1.64,1.56 67.4 0 1 -0.38,0.99 l -5.21,6.06 q -0.39,0.47 -0.59,-0.11 c -3.85,-11.26 -3.02,-23.94 -2.1,-35.6 a 0.93,0.92 -6 0 1 0.66,-0.81 z"
         inkscape:connector-curvature="0"
         style="fill:#ffffff" />
      <path
         id="path24410"
         d="m 270.58,205.85 -0.06,-15.48 a 0.33,0.33 0 0 1 0.25,-0.32 l 7.07,-1.68 a 0.33,0.33 0 0 1 0.41,0.32 l -0.01,13.29 a 0.33,0.33 0 0 1 -0.17,0.28 l -7,3.88 a 0.33,0.33 0 0 1 -0.49,-0.29 z"
         inkscape:connector-curvature="0"
         style="fill:#ffffff" />
      <path
         id="path24412"
         d="m 60.66,225.48 c -0.67,-7.84 1.17,-29.52 11.21,-31.68 q 2,-0.43 2.79,1.46 c 2.45,5.88 2.59,12.03 3.53,18.33 a 0.76,0.76 0 0 1 -0.39,0.77 q -8.88,4.86 -16.65,11.32 -0.44,0.37 -0.49,-0.2 z"
         inkscape:connector-curvature="0"
         style="fill:#ffffff" />
      <path
         id="path24414"
         d="m 139.02,230.15 c -3.63,-1.53 -5.81,-5.23 -5.44,-9.18 0.85,-8.91 1.74,-18.11 5.12,-26.49 a 0.99,0.98 -81.1 0 1 0.83,-0.61 l 2.06,-0.16 a 0.56,0.55 2.1 0 1 0.59,0.63 q -2.58,17.52 -2.24,35.19 a 0.66,0.66 0 0 1 -0.92,0.62 z"
         inkscape:connector-curvature="0"
         style="fill:#ffffff" />
      <path
         id="path24416"
         d="m 206.19,223.56 q -5.44,-3.8 -3.18,-10.2 c 1.71,-4.81 6.55,-14.89 11.7,-16.69 q 4.73,-1.66 9.71,-2.49 a 0.37,0.36 -89.9 0 1 0.41,0.42 c -1.6,9.97 -0.32,20.98 -5.67,29.58 -2.57,4.12 -9.81,1.59 -12.97,-0.62 z"
         inkscape:connector-curvature="0"
         style="fill:#ffffff" />
      <path
         id="path24418"
         d="m 337.6,195.44 q 0.58,-0.55 0.52,0.24 -0.21,2.83 -0.85,5.81 c -0.72,3.39 -2.78,5.46 -4.82,8.14 q -0.5,0.65 -0.49,-0.16 l 0.11,-8.19 a 1.26,1.25 68.4 0 1 0.39,-0.91 z"
         inkscape:connector-curvature="0"
         style="fill:#ffffff" />
      <path
         id="path24420"
         d="m 106.26,196.39 0.23,-0.15 q 0.26,-0.15 0.26,0.15 0.06,2.34 -0.71,0.75 a 0.58,0.57 -29.2 0 1 0.22,-0.75 z"
         inkscape:connector-curvature="0"
         style="fill:#afafaf" />
      <path
         id="path24422"
         d="m 105.56,203.2 q 2.59,-3.43 5.99,-6.05 2.13,-1.63 1.69,1.01 -2.52,15.32 -3.42,30.82 -0.07,1.18 -0.83,0.27 c -4.85,-5.72 -4.67,-18.33 -3.77,-25.21 q 0.06,-0.47 0.34,-0.84 z"
         inkscape:connector-curvature="0"
         style="fill:#ffffff" />
      <path
         id="path24424"
         d="m 151.64,197.49 q 4.61,4.05 4.99,7.72 c 0.71,6.86 -0.42,21.41 -7.69,25.34 a 0.44,0.43 76.9 0 1 -0.63,-0.4 l 0.8,-31.55 q 0.09,-3.25 2.53,-1.11 z"
         inkscape:connector-curvature="0"
         style="fill:#ffffff" />
      <path
         id="path24426"
         d="m 120.91,201.15 q 3.78,1.83 3.92,5.82 c 0.23,6.77 1.11,21.72 -6.64,24.37 a 0.4,0.4 0 0 1 -0.53,-0.39 q 0.71,-14.79 2.63,-29.47 a 0.44,0.43 16.8 0 1 0.62,-0.33 z"
         inkscape:connector-curvature="0"
         style="fill:#ffffff" />
      <path
         id="path24428"
         d="m 349.34,205.4 q 0.26,-1.86 0.84,-0.07 2.41,7.5 0.57,15.14 a 1.18,1.17 87.3 0 1 -0.76,0.84 q -2.98,0.99 -5.99,0.06 -1.03,-0.32 -0.11,-0.9 c 6.41,-4.02 4.51,-8.53 5.45,-15.07 z"
         inkscape:connector-curvature="0"
         style="fill:#ffffff" />
      <path
         id="path24430"
         d="m 286.89,217.56 -2.19,1.47 q -0.69,0.47 -0.63,-0.37 l 0.81,-10.53 a 0.79,0.79 0 0 1 0.79,-0.72 l 9.04,-0.03 q 2.09,-0.01 2.15,2.08 l 0.19,6.56 a 1.57,1.56 71.6 0 1 -0.65,1.31 q -4.92,3.58 -10.71,5.43 -1.12,0.36 -0.48,-0.63 l 2.51,-3.83 a 0.34,0.33 -44.2 0 0 0.01,-0.36 l -0.14,-0.23 a 0.5,0.5 0 0 0 -0.7,-0.15 z"
         inkscape:connector-curvature="0"
         style="fill:#ffffff" />
      <path
         id="path24432"
         d="m 186.8,214.22 c 1.84,0 4.09,-2.76 5.56,-3.93 q 0.59,-0.48 0.55,0.28 L 192,227.86 a 0.76,0.75 -4.5 0 1 -0.6,0.7 q -8.6,1.91 -17.35,0.69 -2.35,-0.32 -2.4,-2.7 l -0.21,-11.4 a 2.02,2.01 -13.3 0 1 1.16,-1.87 q 6.62,-3.14 13.91,-4.2 2.06,-0.3 1.2,1.6 l -1.32,2.9 a 0.45,0.45 0 0 0 0.41,0.64 z"
         inkscape:connector-curvature="0"
         style="fill:#ffffff" />
      <path
         id="path24434"
         d="m 270.48,213.98 0.26,-2.32 a 0.34,0.34 0 0 1 0.17,-0.26 l 2.04,-1.13 a 0.34,0.34 0 0 1 0.44,0.48 l -2.29,3.46 a 0.34,0.34 0 0 1 -0.62,-0.23 z"
         inkscape:connector-curvature="0"
         style="fill:#ffffff" />
      <path
         id="path24436"
         d="m 276.19,212.64 q 0.73,-1.54 0.52,0.15 l -1.09,8.68 a 0.78,0.77 3 0 1 -0.76,0.68 c -2.75,0.06 0.66,-8.07 1.33,-9.51 z"
         inkscape:connector-curvature="0"
         style="fill:#ffffff" />
      <path
         id="path24438"
         d="m 75.84,244.68 c -9.4,3.07 -16.54,-5.03 -15.36,-13.77 q 0.22,-1.6 1.54,-2.52 7.51,-5.24 15.67,-9.44 a 0.34,0.33 -14 0 1 0.49,0.29 c 0.22,8.52 0.83,17.18 -1.7,24.81 a 1.02,1 -0.2 0 1 -0.64,0.63 z"
         inkscape:connector-curvature="0"
         style="fill:#ffffff" />
      <path
         id="path24440"
         d="m 125.21,262.5 h -0.92 c -8.31,-6.45 -6.43,-16.49 -6.71,-25.5 a 1.08,1.08 0 0 1 0.36,-0.85 l 6.08,-5.49 a 0.33,0.32 -31.7 0 1 0.52,0.12 c 3.24,7.81 6.06,8.41 14.86,9.09 a 0.64,0.64 0 0 1 0.6,0.64 v 16.64 a 0.4,0.4 0 0 1 -0.51,0.39 c -6.27,-1.72 -8.98,0.82 -14.28,4.96 z"
         inkscape:connector-curvature="0"
         style="fill:#ffffff" />
      <path
         id="path24442"
         d="m 304.16,259.68 c -2.46,3.17 -5,4.2 -9.25,4.05 q -9.44,-0.33 -18.76,0.98 a 0.71,0.7 -5 0 0 -0.61,0.72 l 0.29,10.26 q 0.05,1.94 1.11,0.31 c 5.11,-7.87 14.12,-6.25 22.06,-6.94 q 2.56,-0.23 1.03,1.84 c -5.88,7.97 -12.2,7.59 -21.42,7.31 a 0.99,0.99 0 0 0 -1.01,1.12 l 1.86,14.06 a 0.48,0.47 -7.7 0 0 0.54,0.41 l 12.79,-1.71 q 0.38,-0.05 0.2,0.29 c -5.17,9.57 -14.21,9.59 -23.74,9.19 q -1.61,-0.07 -1.34,-2.59 0.14,-1.29 -0.84,-0.46 c -3.17,2.68 -8.64,10 -13.05,3.48 q -1.41,-2.08 -1.46,-5 -0.21,-10.59 0.86,-21.09 0.04,-0.46 -0.26,-0.11 l -11.87,13.58 q -1.03,1.18 0.53,1.01 l 6.14,-0.64 q 1.55,-0.16 0.61,1.09 c -3.29,4.35 -8.89,9.17 -14.76,7.54 a 0.48,0.47 -77.3 0 0 -0.59,0.38 q -1.35,8.45 -9.06,12.13 -0.47,0.23 -0.41,-0.29 1.38,-11.74 3.05,-23.4 c 1.46,-10.19 0.86,-19.06 -0.53,-28.82 a 1.57,1.55 -33.9 0 1 0.21,-1.03 q 2.74,-4.65 7.54,-7.27 a 0.27,0.27 0 0 1 0.4,0.2 l 0.32,2.21 a 0.49,0.49 0 0 0 0.78,0.32 l 2.15,-1.6 q 0.61,-0.46 0.54,0.3 c -0.99,10.98 -3.75,25.97 0.69,36.07 a 0.34,0.33 54.1 0 0 0.55,0.09 q 3.9,-4.25 11.72,-13.74 c 2.14,-2.6 3.28,-4.1 3.01,-7.76 q -0.74,-10.21 8.63,-15.13 0.65,-0.34 0.58,0.39 l -0.75,7.57 q -0.14,1.44 1.18,0.84 l 2.6,-1.19 q 2.06,-0.95 0.58,0.77 l -4.39,5.09 a 1.55,1.5 69.7 0 0 -0.35,0.79 q -1.77,13.25 -0.85,26.51 0.08,1.18 0.33,1.61 0.71,1.25 0.89,-0.17 1.35,-10.95 3.07,-21.77 c 0.91,-5.71 11.14,-12.25 15.86,-14.43 4.58,-2.1 20.13,-2.89 24.76,-1.47 a 0.93,0.93 0 0 0 0.83,-0.14 l 5.2,-3.74 q 0.9,-0.65 0.89,0.46 -0.16,10.64 -1.79,21.14 a 0.61,0.61 0 0 0 0.6,0.7 q 6.59,0.06 12.74,-2.3 1.8,-0.7 1.87,-2.64 c 0.3,-8.11 0.17,-12.97 8.06,-17.24 q 1.32,-0.72 1.26,0.78 c -0.03,0.88 -1.27,12.05 -1.09,12.07 a 0.08,0.07 14.9 0 0 0.06,-0.03 c 5.28,-8.24 11.94,-9.09 19.14,-14.38 a 0.48,0.48 0 0 1 0.76,0.32 l 0.21,1.73 a 0.52,0.51 -3.8 0 0 0.51,0.44 h 25.64 q 0.52,0 0.24,0.43 c -2.43,3.72 -6.34,8.56 -11.7,7.84 q -4.16,-0.57 -15.05,0.37 a 0.61,0.6 -0.6 0 0 -0.55,0.55 q -1.44,15.26 -1.7,30.45 c -0.03,1.83 0.81,2.96 1.63,4.47 a 0.88,0.87 -42.4 0 1 -0.05,0.92 q -3.06,4.5 -7.66,7.41 a 0.66,0.65 62 0 1 -0.95,-0.3 q -1.93,-4.52 -1.61,-9.41 0.9,-13.77 1.88,-27.54 0.21,-2.9 -0.03,-5.8 a 0.47,0.46 -8 0 0 -0.55,-0.41 c -4.92,0.91 -9.5,1.64 -11.09,7.01 q -4.28,14.47 -4.57,29.49 c -0.06,3 1.05,4.85 4.13,4.99 q 0.75,0.04 0.27,0.61 -3.48,4.13 -7.72,7.44 a 1.36,1.34 -58.7 0 1 -1.05,0.26 c -3,-0.54 -4.19,-2.61 -4.13,-5.64 q 0.27,-14.87 4.31,-29.22 0.23,-0.81 -0.5,-0.38 -6.11,3.67 -12.96,5.67 a 0.76,0.76 0 0 0 -0.55,0.74 l 0.2,9.62 a 1.63,1.59 -27.8 0 1 -0.33,1.03 q -3.33,4.42 -7.92,7.44 -1.13,0.75 -1.05,-0.61 l 0.98,-16.95 a 0.67,0.66 2.5 0 0 -0.65,-0.7 l -5.4,-0.11 q -3.32,-0.07 -1.13,-2.56 3.07,-3.49 7.12,-5.98 a 1.37,1.33 81.5 0 0 0.6,-0.84 q 1.48,-6.57 0.85,-13.26 -0.04,-0.51 -0.36,-0.1 z"
         inkscape:connector-curvature="0"
         style="fill:#0c0c0c" />
      <path
         id="path24444"
         d="m 124.29,262.5 h 0.92 q -0.15,1.39 -1.22,2.17 -0.44,0.33 -0.29,-0.2 z"
         inkscape:connector-curvature="0"
         style="fill:#afafaf" />
      <path
         id="path24446"
         d="m 182.13,263.94 c 3.19,-0.46 9.88,-1.49 10.68,2.99 a 0.75,0.75 0 0 1 -0.4,0.8 q -6.76,3.5 -11.53,9.46 -0.68,0.85 -0.58,-0.23 l 1.18,-12.34 a 0.75,0.75 0 0 1 0.65,-0.68 z"
         inkscape:connector-curvature="0"
         style="fill:#ffffff" />
      <path
         id="path24448"
         d="m 136.97,272.94 1.59,0.26 a 0.45,0.44 -67.8 0 1 0.29,0.7 l -2.06,2.84 a 1.55,1.52 63.4 0 0 -0.29,0.9 l -0.01,2.22 q -0.02,2.34 1.82,0.9 5.34,-4.18 8.96,-9.93 a 1.53,1.53 0 0 1 0.84,-0.65 l 6.84,-2.15 q 0.78,-0.25 0.12,0.24 -2.52,1.9 -4.68,4.16 c -4.51,4.71 -1.59,8.36 -3.49,13.39 q -1.85,4.89 -5.32,8.86 a 1.28,1.27 -71.8 0 1 -0.82,0.42 c -12.23,1.16 -13.82,-3.8 -13.77,-14.6 q 0.04,-7.15 1.01,-14.3 a 0.87,0.86 6.3 0 1 0.93,-0.74 c 2.89,0.24 7.87,0.81 9.55,3.45 a 0.72,0.7 47.7 0 1 -0.03,0.79 l -1.81,2.41 a 0.53,0.52 -67.1 0 0 0.33,0.83 z"
         inkscape:connector-curvature="0"
         style="fill:#ffffff" />
      <path
         id="path24450"
         d="m 181.96,291.68 c -1.12,-7.32 0.88,-18.19 10.87,-16.83 a 0.53,0.52 6.8 0 1 0.45,0.57 c -0.48,4.82 -3.76,15.66 -8.74,17.71 q -2.22,0.92 -2.58,-1.45 z"
         inkscape:connector-curvature="0"
         style="fill:#ffffff" />
    </g>
  </g>
</svg>
