<?xml version="1.0" encoding="UTF-8" standalone="no"?>
<!DOCTYPE svg PUBLIC "-//W3C//DTD SVG 1.1//EN" "http://www.w3.org/Graphics/SVG/1.1/DTD/svg11.dtd">
<svg xmlns="http://www.w3.org/2000/svg" version="1.1" viewBox="0 0 450 240">
<g stroke-width="2.00" fill="none" stroke-linecap="butt">
<path stroke="#ebebeb" vector-effect="non-scaling-stroke" d="
  M 65.06 0.00
  C 64.86 2.38 65.89 4.92 64.79 7.17
  A 0.64 0.63 19.5 0 1 64.07 7.51
  Q 60.49 6.64 58.90 5.36
  C 57.25 4.04 50.96 -0.40 48.95 0.32
  Q 48.44 0.50 48.89 0.79
  Q 55.57 5.12 60.98 10.89
  C 65.28 15.46 69.01 17.78 74.22 20.39
  A 0.65 0.65 0.0 0 1 74.57 21.09
  C 73.55 26.08 82.14 30.85 86.36 32.58
  A 0.48 0.47 -70.9 0 0 86.99 32.27
  C 87.57 30.29 85.41 30.52 85.23 29.71
  A 0.31 0.31 0.0 0 1 85.46 29.35
  C 90.25 28.29 90.98 31.21 93.72 33.34
  Q 101.03 39.01 108.06 45.02
  C 113.23 49.44 120.57 54.86 126.33 60.43
  A 1.40 1.36 -72.3 0 1 126.75 61.27
  C 127.08 63.94 131.06 69.32 132.79 71.50"
/>
<path stroke="#858585" vector-effect="non-scaling-stroke" d="
  M 132.79 71.50
  C 129.07 75.22 123.48 81.60 122.81 87.67
  C 122.60 89.55 123.39 91.85 123.89 93.76
  C 126.67 104.27 118.14 114.65 107.56 115.29
  C 100.82 115.70 90.89 116.41 90.90 107.18
  Q 90.94 88.79 100.83 73.55
  C 104.07 68.56 107.72 67.26 113.34 68.64
  Q 115.57 69.18 115.57 71.49
  Q 115.56 75.72 112.86 79.72
  C 112.41 80.39 112.33 81.60 112.73 82.21
  A 0.92 0.91 -30.8 0 0 113.93 82.51
  Q 125.29 76.36 125.22 63.20
  Q 125.21 60.55 122.70 59.66
  Q 116.68 57.52 110.29 61.00"
/>
<path stroke="#ebebeb" vector-effect="non-scaling-stroke" d="
  M 110.29 61.00
  Q 109.14 58.46 108.23 57.76
  Q 95.46 47.92 83.51 37.09
  C 81.07 34.89 77.60 33.04 75.01 30.31
  A 0.99 0.98 -21.2 0 0 74.29 30.00
  L 74.04 29.99
  Q 73.24 29.98 73.68 30.65
  C 77.05 35.83 80.24 40.35 85.13 44.46
  C 91.29 49.64 98.47 56.80 105.93 61.33
  Q 106.59 61.73 107.29 63.00"
/>
<path stroke="#858585" vector-effect="non-scaling-stroke" d="
  M 107.29 63.00
  C 98.57 69.80 94.84 76.09 89.28 84.14
  Q 88.99 84.55 88.94 84.05
  C 87.97 75.41 87.75 70.16 84.75 64.00
  C 81.58 57.49 70.89 61.75 66.24 64.03
  Q 65.80 64.25 66.03 63.81
  Q 67.31 61.39 68.69 59.01
  C 73.33 50.98 74.17 42.28 72.55 32.93
  C 70.45 20.83 55.99 29.61 50.04 33.02
  C 44.67 36.09 41.49 42.31 38.36 47.43
  Q 37.03 49.60 39.34 48.51
  Q 40.62 47.90 41.58 46.85
  Q 42.29 46.07 42.31 47.13
  C 42.62 64.36 41.29 77.53 41.51 98.94
  A 1.20 1.20 0.0 0 1 41.17 99.80
  C 35.22 105.99 31.39 111.23 34.29 120.48
  C 36.79 128.46 41.90 131.11 50.22 130.25
  C 64.30 128.79 71.01 122.47 80.94 113.30
  Q 81.31 112.96 81.34 113.46
  C 81.73 118.84 81.99 123.54 88.59 124.16
  C 93.33 124.60 99.96 124.83 104.69 123.18
  C 114.69 119.68 121.54 112.68 127.97 104.53
  A 0.65 0.64 -57.3 0 1 128.77 104.35
  C 128.91 104.42 129.88 114.06 130.37 115.49
  Q 131.11 117.64 133.02 116.39
  C 136.26 114.27 142.51 108.77 141.29 104.54
  Q 138.94 96.46 138.63 92.04"
/>
<path stroke="#ebebeb" vector-effect="non-scaling-stroke" d="
  M 138.63 92.04
  Q 141.58 95.42 145.63 96.50
  A 0.61 0.60 -80.6 0 1 146.07 97.12
  C 145.89 99.94 148.50 101.56 151.14 103.11
  A 0.48 0.47 -69.4 0 0 151.84 102.79
  L 152.23 100.95
  Q 152.42 100.02 153.06 100.73
  Q 156.62 104.66 161.30 107.30
  Q 161.85 107.61 161.53 107.06
  Q 158.42 101.59 153.63 97.60
  Q 153.21 97.26 153.03 96.75
  Q 151.69 93.18 149.08 90.36
  A 1.36 1.36 0.0 0 1 148.73 89.40
  L 148.75 88.75
  A 0.26 0.25 -88.8 0 1 149.00 88.50
  L 149.47 88.49
  A 1.27 1.26 63.6 0 1 150.29 88.77
  L 155.37 92.84
  A 0.70 0.69 43.6 0 0 156.25 92.82
  L 157.69 91.60
  Q 158.23 91.13 158.29 91.85
  C 158.51 94.77 160.14 96.98 160.83 99.64
  Q 162.35 105.54 166.95 109.88"
/>
<path stroke="#858585" vector-effect="non-scaling-stroke" d="
  M 166.95 109.88
  Q 153.87 117.47 139.26 117.94
  C 133.10 118.13 129.05 120.84 126.71 126.51
  A 0.35 0.34 -78.3 0 0 127.02 126.99
  C 141.59 127.42 159.35 122.67 169.04 111.00"
/>
<path stroke="#ebebeb" vector-effect="non-scaling-stroke" d="
  M 169.04 111.00
  C 175.21 115.85 184.84 122.95 188.60 130.58
  A 1.07 1.07 0.0 0 0 189.26 131.13
  L 190.67 131.53
  A 0.67 0.66 5.9 0 1 191.15 132.11
  Q 191.29 133.64 192.04 135.00"
/>
<path stroke="#dedede" vector-effect="non-scaling-stroke" d="
  M 192.04 135.00
  L 191.92 136.11"
/>
<path stroke="#ebebeb" vector-effect="non-scaling-stroke" d="
  M 191.92 136.11
  Q 187.26 141.42 182.74 146.82
  Q 182.45 147.17 179.73 151.05
  Q 178.22 153.21 176.14 154.88"
/>
<path stroke="#858585" vector-effect="non-scaling-stroke" d="
  M 176.14 154.88
  L 176.76 150.72
  A 0.82 0.81 21.5 0 0 176.41 149.92
  Q 174.02 148.30 171.42 149.86
  Q 162.02 155.48 161.89 166.43
  A 0.92 0.91 -14.4 0 1 161.41 167.23
  L 149.52 173.75
  A 0.52 0.52 0.0 0 1 148.75 173.29
  L 148.75 150.98
  A 0.42 0.42 0.0 0 0 148.17 150.59
  C 136.28 155.46 139.58 167.83 139.46 177.76
  A 0.62 0.61 -6.5 0 1 138.98 178.36
  Q 130.69 180.21 126.15 187.43
  A 0.90 0.82 -69.2 0 0 126.68 188.78
  C 128.96 189.06 136.42 185.42 138.92 184.44
  A 0.31 0.31 0.0 0 1 139.35 184.71
  L 140.04 197.35
  A 0.72 0.72 0.0 0 1 139.64 198.04
  Q 126.62 204.55 111.94 202.72
  A 0.49 0.48 -87.3 0 1 111.52 202.25
  L 111.32 181.88
  A 1.83 1.82 -7.7 0 1 112.69 180.09
  Q 118.54 178.58 124.58 178.76
  A 1.69 1.63 27.1 0 0 125.57 178.46
  Q 129.39 175.77 132.47 172.20
  Q 135.90 168.21 130.69 168.96
  Q 121.81 170.24 113.21 173.03
  A 0.77 0.77 0.0 0 1 112.20 172.20
  Q 112.81 167.35 115.15 163.09
  Q 117.15 159.44 113.60 161.61
  Q 110.70 163.38 108.56 165.98
  A 0.42 0.42 0.0 0 1 107.90 165.96
  Q 105.10 162.29 108.74 160.30
  C 113.88 157.49 123.51 153.99 130.38 154.23
  A 1.36 1.33 -21.0 0 1 131.28 154.62
  L 132.55 155.88
  A 0.63 0.62 -42.9 0 0 133.40 155.91
  C 135.08 154.50 143.46 147.94 140.65 145.52
  A 3.23 3.20 -27.9 0 0 138.17 144.77
  C 123.35 146.54 104.81 153.98 96.71 167.40
  Q 96.27 168.13 96.37 167.29
  Q 97.48 157.75 101.01 148.95
  C 101.38 148.02 101.32 146.67 101.18 145.83
  A 0.80 0.79 72.6 0 0 100.06 145.24
  C 92.10 148.96 92.65 155.36 88.50 161.72
  Q 83.01 170.15 77.39 178.30
  A 0.37 0.37 0.0 0 1 76.76 178.26
  Q 69.09 163.44 66.24 146.97
  A 0.45 0.44 69.6 0 0 65.57 146.66
  Q 60.87 149.47 57.57 153.87
  A 1.63 1.61 63.6 0 0 57.25 154.84
  L 57.25 159.58
  A 1.43 1.43 0.0 0 1 56.94 160.47
  L 52.68 165.74
  Q 51.64 167.01 51.68 168.65
  Q 52.11 186.98 50.86 205.18
  Q 50.59 209.14 50.71 211.26
  Q 50.90 214.60 53.19 212.16
  C 55.73 209.45 60.26 206.19 60.09 202.34
  A 1.02 0.99 -21.7 0 1 60.47 201.50
  Q 65.96 197.09 70.25 191.48
  A 0.64 0.64 0.0 0 1 71.15 191.36
  L 72.28 192.20
  A 1.03 1.03 0.0 0 0 73.34 192.30
  Q 78.23 189.88 81.04 185.30
  A 1.89 1.89 0.0 0 0 80.78 183.00
  C 79.02 181.19 79.41 181.09 80.86 179.16
  Q 84.40 174.43 87.57 169.73
  Q 88.22 168.77 88.00 169.91
  Q 84.40 188.90 84.47 208.13
  C 84.48 211.38 86.09 214.48 89.65 213.92
  C 93.08 213.38 98.13 207.57 100.79 205.02
  Q 101.54 204.30 101.37 205.32
  Q 100.77 208.87 98.25 211.51
  Q 97.60 212.20 98.54 212.21
  C 115.01 212.48 127.17 212.38 140.03 201.73
  Q 140.70 201.17 140.80 202.05
  L 141.74 210.90
  A 0.56 0.55 1.3 0 0 142.22 211.40
  Q 142.71 211.46 143.25 211.21"
/>
<path stroke="#ebebeb" vector-effect="non-scaling-stroke" d="
  M 143.25 211.21
  L 143.61 211.48
  A 0.76 0.75 -64.3 0 1 143.88 212.26
  C 142.65 217.08 138.24 229.67 132.40 228.35
  A 0.28 0.28 0.0 0 1 132.22 227.94
  L 140.25 214.62
  A 0.54 0.54 0.0 0 0 139.97 213.83
  C 138.69 213.36 134.64 220.84 134.08 221.82
  C 130.51 228.07 126.07 232.99 121.97 238.67
  A 0.70 0.69 -46.6 0 0 121.99 239.51
  Q 122.34 239.95 122.94 240.00"
/>
<path stroke="#ebebeb" vector-effect="non-scaling-stroke" d="
  M 154.81 0.00
  C 160.50 0.47 160.86 6.48 164.13 9.86
  C 167.85 13.73 172.84 19.85 175.79 18.25"
/>
<path stroke="#cacaca" vector-effect="non-scaling-stroke" d="
  M 175.79 18.25
  L 177.21 21.75"
/>
<path stroke="#ebebeb" vector-effect="non-scaling-stroke" d="
  M 177.21 21.75
  Q 176.06 20.52 174.39 20.66
  A 0.35 0.35 0.0 0 0 174.11 21.17
  Q 175.32 23.52 178.44 26.08
  Q 184.07 30.68 190.34 36.14
  A 1.03 1.02 47.5 0 0 191.62 36.20
  C 192.62 35.49 181.38 25.52 180.25 24.54"
/>
<path stroke="#cacaca" vector-effect="non-scaling-stroke" d="
  M 180.25 24.54
  C 182.03 25.34 181.77 23.15 181.79 22.25"
/>
<path stroke="#ebebeb" vector-effect="non-scaling-stroke" d="
  M 181.79 22.25
  L 186.53 26.43
  A 0.88 0.87 25.9 0 1 186.82 27.25
  Q 186.62 28.48 187.55 29.68
  Q 190.92 34.01 195.40 35.86
  A 0.43 0.43 0.0 0 0 195.87 35.76
  L 196.04 35.58
  A 0.22 0.21 -46.0 0 1 196.34 35.57
  L 202.19 40.79
  Q 203.22 41.72 202.76 40.41
  Q 202.07 38.44 203.69 37.18
  A 1.23 1.20 73.8 0 0 204.16 36.30
  C 204.43 33.07 204.84 24.88 209.64 24.84
  A 0.70 0.70 0.0 0 0 210.33 24.27
  Q 210.85 21.44 212.73 19.32
  A 0.87 0.86 -59.0 0 1 213.66 19.08
  C 215.46 19.69 214.35 23.38 215.41 25.24
  A 0.47 0.46 60.4 0 0 216.04 25.42
  L 218.48 24.00
  A 0.59 0.59 0.0 0 1 219.27 24.19
  L 220.60 26.24
  Q 221.04 26.90 221.35 26.17
  Q 222.47 23.60 221.87 20.75
  Q 221.48 18.88 222.53 20.48
  L 223.29 21.65
  A 0.61 0.60 -24.2 0 0 223.96 21.90
  L 230.03 20.16
  A 0.71 0.70 -22.2 0 1 230.85 20.50
  C 233.09 24.68 233.69 26.12 236.48 20.89
  Q 237.45 19.06 239.49 19.39
  Q 254.85 21.83 268.47 29.27
  A 1.64 1.64 0.0 0 1 269.12 29.92
  Q 269.64 30.89 270.50 31.43
  A 1.19 1.18 52.3 0 0 271.50 31.56
  L 276.39 30.00
  A 1.58 1.53 8.0 0 0 277.20 29.41
  L 295.36 3.28
  A 1.43 1.41 -39.5 0 0 295.50 1.91
  Q 294.99 0.71 296.31 0.00"
/>
<path stroke="#ebebeb" vector-effect="non-scaling-stroke" d="
  M 382.56 0.00
  L 382.91 0.26
  A 0.51 0.49 31.3 0 1 383.07 0.88
  L 379.83 7.47
  A 0.51 0.50 -63.7 0 0 380.05 8.14
  L 380.32 8.27
  A 0.47 0.47 0.0 0 1 380.47 9.00
  Q 367.81 23.47 358.00 39.94
  C 351.78 50.40 346.30 57.36 338.21 64.97
  Q 337.06 66.05 333.43 72.69
  C 333.14 73.22 333.26 73.65 333.79 73.89
  A 0.71 0.70 30.0 0 0 334.63 73.67
  L 341.64 64.27
  Q 342.03 63.74 341.78 64.35
  C 339.76 69.12 336.04 73.18 333.69 77.01
  Q 330.58 82.10 326.79 86.75"
/>
<path stroke="#717171" vector-effect="non-scaling-stroke" d="
  M 326.79 86.75
  Q 328.40 73.49 331.64 60.30
  Q 332.28 57.67 329.59 57.89
  Q 328.60 57.97 326.01 58.54
  Q 310.27 61.98 294.19 65.62
  A 2.06 1.99 -74.5 0 0 293.15 66.23
  Q 291.41 68.15 288.95 69.03
  A 1.02 1.01 -35.5 0 1 288.00 68.88
  C 283.74 65.62 281.57 65.70 276.65 64.31
  A 1.49 1.45 -47.6 0 0 275.68 64.37
  L 272.06 65.88"
/>
<path stroke="#cacaca" vector-effect="non-scaling-stroke" d="
  M 272.06 65.88
  Q 270.98 61.76 270.78 57.56
  Q 270.41 49.60 270.39 49.31
  Q 269.94 42.01 271.48 34.71
  A 0.56 0.56 0.0 0 0 271.08 34.06
  Q 269.96 33.74 268.93 35.21
  C 266.45 38.76 264.43 42.07 261.16 45.11
  Q 254.32 51.45 247.82 59.32
  Q 245.53 62.10 246.17 65.18"
/>
<path stroke="#717171" vector-effect="non-scaling-stroke" d="
  M 246.17 65.18
  Q 241.34 65.67 237.30 68.73
  Q 236.74 69.16 236.74 68.46
  L 236.76 63.19
  Q 236.76 61.78 235.54 62.50
  C 232.38 64.36 227.62 67.75 227.30 71.76
  Q 227.14 73.76 227.24 75.82
  A 1.65 1.64 59.4 0 1 227.01 76.73
  L 223.56 82.43
  Q 222.97 83.41 224.10 83.24
  Q 225.67 83.02 226.32 81.58
  Q 227.25 79.55 227.15 81.97
  Q 227.06 84.18 226.59 87.07"
/>
<path stroke="#c1c1c1" vector-effect="non-scaling-stroke" d="
  M 226.59 87.07
  Q 225.08 96.19 218.48 102.79
  C 217.50 103.78 216.65 103.48 216.21 102.25"
/>
<path stroke="#717171" vector-effect="non-scaling-stroke" d="
  M 216.21 102.25
  Q 217.22 81.24 221.88 59.52
  Q 222.33 57.41 220.25 56.84
  C 216.57 55.85 202.64 61.60 198.75 63.29"
/>
<path stroke="#cacaca" vector-effect="non-scaling-stroke" d="
  M 198.75 63.29
  L 197.76 62.69
  A 1.00 1.00 0.0 0 1 197.29 61.88
  Q 196.92 53.39 198.26 45.00
  Q 198.37 44.26 198.00 42.79"
/>
<path stroke="#ebebeb" vector-effect="non-scaling-stroke" d="
  M 198.00 42.79
  L 205.28 51.43
  A 0.50 0.50 0.0 0 0 206.00 51.47
  C 207.16 50.37 203.55 46.03 202.92 44.72
  Q 202.70 44.27 202.30 43.97
  L 197.12 40.10
  A 0.25 0.24 -53.8 0 0 196.77 40.16
  Q 196.66 40.31 196.71 40.50"
/>
<path stroke="#cacaca" vector-effect="non-scaling-stroke" d="
  M 196.71 40.50
  Q 196.36 39.55 196.96 38.80
  A 0.35 0.34 -62.6 0 0 196.79 38.25
  Q 196.27 38.09 195.75 38.54"
/>
<path stroke="#ebebeb" vector-effect="non-scaling-stroke" d="
  M 195.75 38.54
  Q 195.14 36.23 193.19 35.77
  A 0.36 0.35 1.1 0 0 192.76 36.18
  Q 193.23 38.72 195.75 39.79"
/>
<path stroke="#cacaca" vector-effect="non-scaling-stroke" d="
  M 195.75 39.79
  L 193.39 67.00"
/>
<path stroke="#717171" vector-effect="non-scaling-stroke" d="
  M 193.39 67.00
  Q 191.49 69.22 191.59 72.00
  C 191.65 74.09 190.49 75.94 190.42 78.09
  Q 189.70 101.51 190.08 124.90
  A 0.43 0.42 76.7 0 0 190.69 125.28
  C 194.44 123.46 199.16 119.82 199.21 115.22
  Q 199.48 89.11 199.23 72.25
  Q 199.18 68.88 202.25 68.21"
/>
<path stroke="#cacaca" vector-effect="non-scaling-stroke" d="
  M 202.25 68.21
  L 202.56 68.26
  A 0.32 0.32 0.0 0 1 202.83 68.55
  Q 203.19 76.24 203.68 83.94
  Q 203.80 85.70 201.93 88.32
  A 0.78 0.76 47.7 0 0 201.90 89.15
  C 205.67 95.61 202.62 105.47 203.85 112.28
  Q 204.09 113.61 203.93 115.15
  Q 203.68 117.61 202.21 119.60
  Q 199.09 123.85 197.45 128.75
  A 0.71 0.71 0.0 0 1 196.67 129.23
  L 195.22 129.00
  A 1.35 1.34 -84.4 0 0 193.68 130.27
  Q 193.56 132.90 192.04 135.00"
/>
<path stroke="#717171" vector-effect="non-scaling-stroke" d="
  M 169.04 111.00
  Q 169.43 110.64 169.45 110.24
  A 0.57 0.56 3.6 0 0 168.92 109.65
  Q 167.80 109.56 166.95 109.88"
/>
<path stroke="#717171" vector-effect="non-scaling-stroke" d="
  M 138.63 92.04
  Q 138.29 91.29 138.59 90.31
  A 0.65 0.65 0.0 0 1 139.21 89.85
  Q 149.51 89.85 154.18 80.77
  A 0.38 0.38 0.0 0 0 153.85 80.22
  Q 146.57 79.99 139.76 82.62
  A 0.95 0.94 79.6 0 1 138.48 81.73
  L 138.53 72.57
  A 1.80 1.77 73.7 0 1 139.32 71.10
  Q 147.16 65.81 156.53 64.41
  Q 159.04 64.03 159.16 66.57
  L 159.28 69.27
  A 0.36 0.36 0.0 0 0 159.80 69.57
  C 164.32 67.29 170.38 61.70 167.99 55.98
  A 1.66 1.65 76.0 0 0 166.33 54.98
  C 154.22 56.06 141.97 63.96 132.79 71.50"
/>
<path stroke="#ebebeb" vector-effect="non-scaling-stroke" d="
  M 162.53 10.89
  Q 162.33 12.20 163.51 12.55
  Q 164.49 12.83 164.02 11.93
  L 163.40 10.74
  Q 162.74 9.48 162.53 10.89"
/>
<path stroke="#ebebeb" vector-effect="non-scaling-stroke" d="
  M 285.50 31.07
  Q 285.28 31.24 285.17 31.47
  Q 284.35 33.17 285.54 31.78
  L 286.68 30.43
  Q 287.09 29.95 286.47 30.08
  Q 285.93 30.21 285.75 30.71
  A 0.88 0.78 83.2 0 1 285.50 31.07"
/>
<path stroke="#cacaca" vector-effect="non-scaling-stroke" d="
  M 276.46 43.75
  C 275.67 41.90 275.55 36.68 274.75 36.31
  A 0.36 0.36 0.0 0 0 274.24 36.63
  Q 273.86 48.69 274.26 60.75
  Q 274.30 61.98 275.35 62.58
  A 0.45 0.45 0.0 0 0 275.99 62.34
  C 277.78 57.20 275.71 52.23 276.25 47.65"
/>
<path stroke="#ebebeb" vector-effect="non-scaling-stroke" d="
  M 276.25 47.65
  L 282.35 35.72
  Q 282.63 35.16 282.21 35.62
  Q 278.80 39.32 276.46 43.75"
/>
<path stroke="#dedede" vector-effect="non-scaling-stroke" d="
  M 276.25 47.65
  Q 275.91 45.50 276.46 43.75"
/>
<path stroke="#dedede" vector-effect="non-scaling-stroke" d="
  M 181.79 22.25
  L 175.17 15.88
  Q 174.62 15.35 174.90 16.06
  L 175.79 18.25"
/>
<path stroke="#ebebeb" vector-effect="non-scaling-stroke" d="
  M 393.69 240.00
  Q 394.48 239.77 394.49 239.00
  A 0.87 0.87 0.0 0 0 393.99 238.20
  Q 387.59 235.12 386.22 228.15
  A 1.55 1.50 15.4 0 0 385.71 227.28
  C 384.56 226.30 375.87 219.58 378.28 218.15
  A 0.67 0.66 -37.1 0 1 379.09 218.26
  C 380.52 219.73 383.01 222.60 385.23 222.23
  Q 386.70 221.98 385.57 221.01
  L 378.94 215.29
  Q 377.88 214.38 378.22 215.73
  Q 378.62 217.34 377.05 217.40
  Q 376.54 217.42 376.07 217.22
  L 372.84 215.89
  A 0.61 0.61 0.0 0 0 372.00 216.45
  L 372.00 217.22
  A 0.50 0.50 0.0 0 1 371.47 217.72
  C 369.00 217.58 362.53 203.23 356.02 201.20
  C 352.64 200.14 347.75 200.97 345.55 197.45
  Q 340.65 189.65 333.13 184.55
  C 328.40 181.35 325.87 178.12 322.78 173.76
  C 320.80 170.99 320.86 167.21 318.31 164.68
  C 306.96 153.37 295.12 142.17 286.05 128.85
  A 0.81 0.80 43.4 0 1 286.02 128.00
  Q 289.57 121.99 294.32 116.93
  C 296.71 114.38 297.68 111.15 300.23 108.51
  A 0.85 0.85 0.0 0 1 300.84 108.25
  L 301.21 108.25"
/>
<path stroke="#858585" vector-effect="non-scaling-stroke" d="
  M 301.21 108.25
  Q 301.28 116.12 301.25 124.01
  Q 301.24 126.25 303.88 127.18
  A 1.12 1.12 0.0 0 0 304.90 127.03
  Q 310.02 123.26 313.41 117.90
  Q 314.04 116.89 312.85 116.93
  C 310.09 117.02 310.61 115.45 310.56 113.62
  Q 310.25 102.92 310.79 92.25"
/>
<path stroke="#ebebeb" vector-effect="non-scaling-stroke" d="
  M 310.79 92.25
  L 311.70 91.97
  A 1.76 1.73 11.2 0 0 312.49 91.45
  L 316.48 86.90
  A 1.17 1.17 0.0 0 1 317.36 86.50
  L 318.46 86.50"
/>
<path stroke="#858585" vector-effect="non-scaling-stroke" d="
  M 318.46 86.50
  Q 316.36 101.11 316.25 115.89
  C 316.21 120.09 314.11 123.19 312.13 126.67
  Q 311.35 128.04 312.85 127.56
  Q 315.38 126.76 316.95 124.64
  A 1.35 1.35 0.0 0 1 319.05 124.56
  C 321.07 126.88 321.66 128.42 325.22 128.08
  C 328.30 127.79 332.88 122.26 334.73 119.87
  A 0.34 0.34 0.0 0 0 334.55 119.34
  C 330.39 118.30 325.01 116.83 328.79 111.22
  Q 336.77 99.39 344.11 87.71
  Q 345.07 86.18 344.76 87.96
  Q 341.58 106.35 342.43 125.03
  A 1.29 1.28 74.0 0 0 344.34 126.09
  Q 348.71 123.63 351.82 119.65
  A 0.54 0.53 -50.5 0 1 352.59 119.57
  Q 357.75 123.92 360.56 125.16
  C 367.88 128.40 379.13 126.16 385.68 122.68
  C 390.98 119.86 397.89 113.05 400.62 108.08
  C 404.08 101.79 403.37 93.38 401.16 86.76
  C 398.59 79.02 392.02 79.83 385.45 80.50
  Q 384.47 80.60 385.09 79.83
  C 389.86 73.93 394.85 67.82 393.49 59.57
  Q 392.58 54.00 386.74 54.92
  Q 365.00 58.37 354.99 78.05
  Q 354.86 78.31 354.66 78.40
  Q 354.10 78.66 354.18 78.05
  L 355.52 68.45
  Q 355.80 66.49 354.11 67.53
  Q 349.00 70.67 346.06 76.11
  C 340.01 87.30 332.97 98.06 326.39 108.43
  Q 325.01 110.61 325.20 108.04
  L 326.79 86.75"
/>
<path stroke="#dedede" vector-effect="non-scaling-stroke" d="
  M 180.25 24.54
  L 177.21 21.75"
/>
<path stroke="#717171" vector-effect="non-scaling-stroke" d="
  M 107.29 63.00
  L 110.29 61.00"
/>
<path stroke="#858585" vector-effect="non-scaling-stroke" d="
  M 52.57 36.98
  A 1.17 1.16 81.4 0 0 51.74 38.11
  Q 51.96 55.42 50.64 72.73
  Q 50.46 75.04 52.43 73.80
  C 63.61 66.75 65.41 51.51 62.61 39.20
  Q 62.00 36.51 59.25 36.30
  Q 55.79 36.03 52.57 36.98"
/>
<path stroke="#858585" vector-effect="non-scaling-stroke" d="
  M 71.21 70.25
  C 62.60 68.92 56.78 74.99 51.19 81.37
  A 1.57 1.52 -25.2 0 0 50.81 82.38
  L 50.72 92.71
  A 0.69 0.68 -87.8 0 0 51.35 93.40
  C 53.63 93.59 55.92 93.17 57.14 95.83
  A 0.90 0.88 -42.0 0 1 57.09 96.67
  Q 54.78 100.42 51.24 103.07
  A 1.23 1.22 -18.7 0 0 50.75 104.05
  L 50.75 114.91
  A 1.07 1.06 19.9 0 0 51.14 115.73
  L 52.29 116.65
  A 0.60 0.60 0.0 0 1 52.34 117.54
  L 50.24 119.62
  A 0.45 0.45 0.0 0 0 50.39 120.35
  Q 53.33 121.55 57.31 121.08
  C 74.55 119.04 80.00 114.17 79.58 95.94
  C 79.43 89.37 78.86 76.95 74.87 72.18
  Q 73.55 70.61 71.21 70.25"
/>
<path stroke="#646464" vector-effect="non-scaling-stroke" d="
  M 272.06 65.88
  L 259.13 72.82
  A 0.50 0.50 0.0 0 1 258.46 72.63
  C 256.58 69.31 256.27 65.92 252.03 64.81
  C 250.15 64.32 248.36 65.36 246.17 65.18"
/>
<path stroke="#dedede" vector-effect="non-scaling-stroke" d="
  M 195.75 38.54
  L 195.75 39.79"
/>
<path stroke="#dedede" vector-effect="non-scaling-stroke" d="
  M 196.71 40.50
  L 198.00 42.79"
/>
<path stroke="#646464" vector-effect="non-scaling-stroke" d="
  M 198.75 63.29
  L 193.39 67.00"
/>
<path stroke="#717171" vector-effect="non-scaling-stroke" d="
  M 318.46 86.50
  L 322.37 67.44
  A 0.41 0.40 -89.5 0 0 321.90 66.96
  L 313.18 68.51
  A 0.80 0.79 -1.0 0 0 312.53 69.18
  Q 310.95 80.76 310.79 92.25"
/>
<path stroke="#717171" vector-effect="non-scaling-stroke" d="
  M 301.21 108.25
  Q 301.20 97.66 302.13 84.18
  C 302.58 77.80 302.86 75.34 306.93 70.43
  Q 307.26 70.02 306.75 70.15
  L 293.18 73.43
  A 0.65 0.65 0.0 0 0 292.79 74.42
  C 295.66 78.63 297.17 82.90 297.45 88.11
  C 298.26 103.23 290.66 113.46 278.21 121.50"
/>
<path stroke="#646464" vector-effect="non-scaling-stroke" d="
  M 278.21 121.50
  L 277.00 122.29"
/>
<path stroke="#5b5b5b" vector-effect="non-scaling-stroke" d="
  M 277.00 122.29
  C 275.27 123.25 273.93 124.24 271.85 124.25
  C 267.32 124.28 261.25 125.36 258.35 121.03
  C 256.53 118.31 257.28 112.99 257.23 109.52
  Q 257.21 108.47 256.74 109.41
  Q 250.99 120.95 239.48 126.70
  Q 239.01 126.93 238.49 126.95
  L 235.06 127.12
  A 1.43 1.42 -3.0 0 0 233.70 128.62
  C 233.86 131.54 233.54 134.69 233.58 137.11
  Q 233.86 154.86 233.76 172.74
  A 1.70 1.70 0.0 0 1 233.49 173.66
  Q 230.63 178.15 226.38 181.68"
/>
<path stroke="#646464" vector-effect="non-scaling-stroke" d="
  M 226.38 181.68
  C 225.30 182.33 223.24 184.26 222.20 182.28
  A 0.89 0.88 47.9 0 1 222.24 181.39
  Q 223.43 179.52 223.76 177.26"
/>
<path stroke="#5b5b5b" vector-effect="non-scaling-stroke" d="
  M 223.76 177.26
  Q 223.37 151.22 224.54 125.22
  A 1.57 1.54 -62.4 0 0 224.23 124.20
  Q 222.52 121.92 223.04 119.05
  A 1.53 1.52 -52.9 0 0 222.92 118.15
  C 219.88 111.49 225.16 105.16 225.90 98.90
  Q 226.59 92.96 226.59 87.07"
/>
<path stroke="#858585" vector-effect="non-scaling-stroke" d="
  M 362.49 94.84
  Q 363.58 92.65 364.80 90.52
  C 369.59 82.15 363.52 70.10 375.74 65.67
  A 0.81 0.81 0.0 0 1 376.83 66.46
  Q 376.55 74.45 375.00 82.30
  A 0.74 0.74 0.0 0 0 375.91 83.16
  C 383.17 81.38 385.19 73.57 384.18 66.90
  Q 383.83 64.59 381.51 64.41
  C 376.24 63.99 364.36 65.75 363.58 72.83
  Q 362.49 82.81 354.46 86.34
  Q 352.88 87.03 352.72 88.74
  Q 351.42 102.52 351.62 116.40
  A 0.69 0.68 6.7 0 0 352.14 117.05
  C 354.09 117.52 359.87 106.48 363.07 110.63
  Q 364.19 112.09 364.34 110.26
  L 365.56 95.12
  A 0.40 0.39 84.5 0 0 365.06 94.70
  L 362.89 95.32
  Q 362.14 95.53 362.49 94.84"
/>
<path stroke="#646464" vector-effect="non-scaling-stroke" d="
  M 245.54 75.04
  Q 243.78 73.56 241.54 74.03
  L 237.24 74.93
  A 0.67 0.67 0.0 0 0 236.72 75.45
  Q 235.28 82.10 235.83 88.91
  Q 235.87 89.39 236.25 89.09
  L 246.84 80.73
  A 2.39 2.39 0.0 0 0 247.62 78.08
  Q 246.99 76.27 245.54 75.04"
/>
<path stroke="#646464" vector-effect="non-scaling-stroke" d="
  M 260.71 93.08
  C 261.73 87.30 264.81 80.19 266.98 74.64
  Q 267.17 74.16 266.67 74.30
  Q 262.90 75.37 259.58 77.45
  A 1.08 1.07 72.2 0 0 259.08 78.43
  L 260.07 93.11
  A 0.15 0.15 0.0 0 0 260.22 93.25
  L 260.52 93.25
  A 0.21 0.19 -84.6 0 0 260.71 93.08"
/>
<path stroke="#717171" vector-effect="non-scaling-stroke" d="
  M 283.12 107.48
  C 284.01 108.53 278.69 113.82 277.82 114.62
  Q 277.45 114.96 277.95 115.00
  Q 284.68 115.50 286.62 108.58
  Q 292.70 86.87 274.24 74.62
  A 0.53 0.53 0.0 0 0 273.43 74.93
  Q 269.48 89.54 270.33 104.93
  C 270.54 108.88 272.38 111.11 276.34 111.23
  A 1.72 1.70 28.0 0 0 277.34 110.93
  L 282.48 107.39
  A 0.48 0.48 0.0 0 1 283.12 107.48"
/>
<path stroke="#5b5b5b" vector-effect="non-scaling-stroke" d="
  M 233.57 110.45
  C 232.68 116.40 237.80 120.46 243.24 118.05
  Q 243.66 117.87 244.12 117.82
  L 246.56 117.58
  A 0.97 0.97 0.0 0 0 247.36 116.98
  C 251.61 106.17 250.00 96.10 249.59 85.06
  Q 249.52 83.22 248.01 84.28
  L 236.94 92.07
  Q 235.04 93.41 234.95 95.74
  Q 234.70 102.79 233.57 110.45"
/>
<path stroke="#858585" vector-effect="non-scaling-stroke" d="
  M 375.84 110.25
  Q 373.74 113.71 370.53 116.16
  Q 370.01 116.56 370.65 116.70
  C 376.68 118.03 392.97 118.77 393.42 109.48
  C 394.01 97.37 392.50 86.60 376.73 89.88
  A 2.50 2.49 -88.9 0 0 374.82 91.72
  Q 372.58 100.65 375.94 109.12
  A 1.28 1.28 0.0 0 1 375.84 110.25"
/>
<path stroke="#5b5b5b" vector-effect="non-scaling-stroke" d="
  M 216.21 102.25
  L 216.15 127.42
  Q 216.15 128.38 216.84 127.72
  L 218.18 126.46
  A 0.33 0.32 60.7 0 1 218.72 126.62
  C 219.81 130.66 212.80 137.03 210.13 138.56
  Q 206.82 140.47 206.81 136.65
  L 206.71 115.00"
/>
<path stroke="#646464" vector-effect="non-scaling-stroke" d="
  M 206.71 115.00
  Q 207.22 91.60 212.36 68.14
  Q 212.80 66.13 210.75 66.25
  Q 206.94 66.47 202.25 68.21"
/>
<path stroke="#b4b4b4" vector-effect="non-scaling-stroke" d="
  M 206.71 115.00
  L 205.11 120.33
  A 0.63 0.63 0.0 0 1 204.45 120.77
  Q 203.41 120.68 202.58 121.08
  Q 200.22 122.22 201.09 124.69
  Q 203.86 132.60 202.67 140.83
  A 0.93 0.90 26.0 0 0 202.97 141.66
  L 206.04 144.41
  Q 206.58 144.90 205.86 144.83
  C 203.05 144.54 204.12 149.41 204.03 151.31
  C 203.79 156.25 210.97 161.00 213.08 163.68
  Q 217.62 169.45 221.38 171.98
  A 0.28 0.28 0.0 0 1 221.50 172.23
  L 221.49 172.58
  A 0.49 0.48 5.9 0 1 220.93 173.03
  L 219.57 172.81
  A 0.47 0.47 0.0 0 0 219.04 173.39
  Q 219.88 176.68 223.76 177.26"
/>
<path stroke="#b4b4b4" vector-effect="non-scaling-stroke" d="
  M 226.38 181.68
  L 233.37 188.55
  A 0.84 0.84 0.0 0 0 234.57 188.53
  C 238.52 184.45 242.19 182.20 244.06 175.76
  Q 244.19 175.29 244.14 174.80
  C 243.93 172.67 251.16 165.53 252.69 166.47
  A 0.43 0.43 0.0 0 1 252.78 167.14
  C 250.76 169.27 243.50 178.78 244.62 181.54
  A 0.34 0.34 0.0 0 0 245.20 181.63
  L 255.14 168.89
  A 1.78 1.74 67.6 0 0 255.52 167.95
  Q 255.87 164.15 256.82 163.06
  Q 264.87 153.83 271.53 143.54"
/>
<path stroke="#cacaca" vector-effect="non-scaling-stroke" d="
  M 271.53 143.54
  C 271.82 144.55 272.58 149.78 271.52 150.37
  Q 270.98 150.66 271.00 150.05
  L 271.01 149.57
  Q 271.08 147.19 270.26 149.42
  L 269.88 150.45
  A 0.89 0.88 37.2 0 0 270.00 151.29
  C 271.14 152.79 273.21 159.00 276.09 155.91
  A 0.31 0.30 -34.8 0 1 276.60 156.00
  C 278.15 159.96 283.03 171.49 281.73 175.25
  Q 278.53 184.53 278.58 193.15
  C 278.60 196.08 278.25 199.13 278.77 202.99
  Q 279.35 207.24 278.52 220.48"
/>
<path stroke="#dedede" vector-effect="non-scaling-stroke" d="
  M 278.52 220.48
  Q 278.86 221.74 279.75 222.71"
/>
<path stroke="#cacaca" vector-effect="non-scaling-stroke" d="
  M 279.75 222.71
  Q 280.32 227.72 278.64 232.56
  A 0.40 0.40 0.0 0 1 278.04 232.76
  Q 272.45 229.03 268.58 223.60
  C 263.95 217.13 257.06 211.45 251.63 205.49
  Q 249.67 203.34 246.67 201.30
  Q 240.17 196.87 235.18 190.50
  A 1.06 1.06 0.0 0 0 233.60 190.40
  C 226.21 197.77 221.51 203.83 215.33 214.91
  C 213.85 217.54 212.59 221.53 210.33 224.54
  A 0.42 0.42 0.0 0 1 209.69 224.58
  C 209.13 224.00 211.34 219.27 211.66 218.21
  Q 211.81 217.72 211.47 218.10
  L 207.00 223.21"
/>
<path stroke="#dedede" vector-effect="non-scaling-stroke" d="
  M 207.00 223.21
  Q 204.30 231.40 204.09 240.05"
/>
<path stroke="#cacaca" vector-effect="non-scaling-stroke" d="
  M 197.07 240.00
  Q 197.83 224.77 196.78 209.57
  A 0.43 0.43 0.0 0 1 197.21 209.10
  Q 198.15 209.10 198.29 208.25"
/>
<path stroke="#646464" vector-effect="non-scaling-stroke" d="
  M 198.29 208.25
  L 202.09 213.51
  A 0.80 0.79 -35.6 0 0 203.19 213.69
  Q 207.65 210.54 211.08 206.28
  A 1.91 1.90 44.9 0 0 211.07 203.88
  Q 203.27 194.36 201.21 182.17
  Q 200.90 180.34 202.21 179.02
  C 203.16 178.07 206.47 174.99 206.37 173.20
  A 0.43 0.43 0.0 0 0 205.81 172.81
  L 201.21 174.29
  A 1.36 1.36 0.0 0 1 199.43 173.02
  L 199.18 157.50
  A 1.67 1.64 -27.4 0 1 199.52 156.47
  C 200.15 155.65 202.34 153.82 200.50 152.96"
/>
<path stroke="#cacaca" vector-effect="non-scaling-stroke" d="
  M 200.50 152.96
  L 201.87 152.08
  A 0.61 0.61 0.0 0 0 202.11 151.34
  C 200.68 147.88 201.96 146.87 201.93 143.65
  A 1.23 1.22 22.2 0 0 201.57 142.81
  L 196.75 138.00
  Q 196.40 137.65 195.94 137.49
  L 191.92 136.11"
/>
<path stroke="#cacaca" vector-effect="non-scaling-stroke" d="
  M 254.38 202.57
  L 254.84 204.94
  A 0.77 0.75 8.4 0 0 255.24 205.47
  L 257.25 206.51
  Q 257.71 206.75 257.67 206.23
  C 257.41 203.35 252.82 203.02 255.68 199.11
  Q 256.84 197.53 255.36 196.25
  C 254.31 195.34 245.75 188.40 244.97 188.99
  A 0.41 0.40 -41.6 0 0 244.93 189.61
  L 249.11 193.56
  A 0.61 0.61 0.0 0 1 249.19 194.37
  Q 248.18 195.81 249.43 197.07
  A 0.80 0.79 -56.5 0 1 249.60 197.93
  Q 248.60 200.48 251.13 201.42
  A 0.90 0.89 -84.8 0 1 251.69 202.10
  L 251.88 203.23
  Q 252.01 203.96 252.50 203.41
  L 253.48 202.32
  Q 254.19 201.54 254.38 202.57"
/>
<path stroke="#cacaca" vector-effect="non-scaling-stroke" d="
  M 259.3371 204.3688
  A 1.73 1.14 79.1 0 0 260.1294 202.4544
  A 1.73 1.14 79.1 0 0 258.6829 200.9712
  A 1.73 1.14 79.1 0 0 257.8906 202.8856
  A 1.73 1.14 79.1 0 0 259.3371 204.3688"
/>
<path stroke="#ebebeb" vector-effect="non-scaling-stroke" d="
  M 305.94 240.00
  L 300.49 239.55
  A 0.75 0.75 0.0 0 1 299.85 239.03
  C 298.32 234.30 295.25 234.23 292.29 231.22
  C 289.47 228.34 281.17 219.60 278.52 220.48"
/>
<path stroke="#c1c1c1" vector-effect="non-scaling-stroke" d="
  M 271.53 143.54
  L 272.79 140.00"
/>
<path stroke="#cacaca" vector-effect="non-scaling-stroke" d="
  M 272.79 140.00
  C 274.75 140.50 273.74 144.03 274.69 145.82
  A 1.14 1.13 42.2 0 1 274.74 146.78
  Q 273.68 149.35 275.69 151.01
  Q 276.26 151.48 276.36 150.75
  Q 276.90 146.69 276.12 142.79
  C 275.79 141.14 276.02 139.93 276.00 138.29"
/>
<path stroke="#c1c1c1" vector-effect="non-scaling-stroke" d="
  M 276.00 138.29
  L 277.75 136.96"
/>
<path stroke="#cacaca" vector-effect="non-scaling-stroke" d="
  M 277.75 136.96
  L 278.45 137.00
  A 1.39 1.36 -61.1 0 0 279.39 136.72
  Q 282.36 134.50 283.42 131.00
  A 1.30 1.29 85.1 0 1 284.07 130.22
  L 284.32 130.09
  A 0.87 0.87 0.0 0 0 284.75 129.01
  L 283.03 124.44
  Q 282.73 123.66 282.49 124.45
  Q 282.18 125.48 281.25 126.00
  A 0.74 0.73 -38.7 0 1 280.40 125.91
  Q 278.50 124.16 278.21 121.50"
/>
<path stroke="#ebebeb" vector-effect="non-scaling-stroke" d="
  M 331.33 187.29
  L 331.48 188.80
  A 0.53 0.53 0.0 0 0 332.11 189.27
  L 335.33 188.64
  A 0.52 0.52 0.0 0 0 335.71 187.94
  Q 334.88 185.83 332.48 185.97
  A 1.22 1.21 -4.1 0 0 331.33 187.29"
/>
<path stroke="#ebebeb" vector-effect="non-scaling-stroke" d="
  M 332.25 192.51
  Q 336.84 197.33 342.71 200.46
  A 0.70 0.69 -53.5 0 0 343.54 200.33
  C 344.54 199.30 337.34 192.11 336.27 190.76
  A 0.89 0.87 62.8 0 0 335.37 190.46
  L 332.64 191.14
  A 0.82 0.82 0.0 0 0 332.25 192.51"
/>
<path stroke="#ebebeb" vector-effect="non-scaling-stroke" d="
  M 298.94 234.76
  C 301.84 229.54 291.61 223.80 287.99 221.85
  Q 287.60 221.64 287.35 221.28
  L 286.10 219.49
  Q 285.49 218.62 285.62 219.67
  L 286.17 224.00
  A 1.81 1.73 -70.1 0 0 286.57 224.91
  Q 288.55 227.25 291.35 228.55
  Q 291.85 228.79 292.19 229.22
  Q 294.87 232.57 298.52 234.87
  A 0.30 0.30 0.0 0 0 298.94 234.76"
/>
<path stroke="#b4b4b4" vector-effect="non-scaling-stroke" d="
  M 277.00 122.29
  Q 277.13 125.51 276.17 128.50
  A 1.87 1.82 48.6 0 0 276.12 129.48
  L 277.75 136.96"
/>
<path stroke="#b4b4b4" vector-effect="non-scaling-stroke" d="
  M 276.00 138.29
  Q 274.62 138.60 273.93 137.72
  A 1.35 1.33 29.4 0 1 273.66 136.78
  Q 274.17 131.60 273.05 126.56
  A 0.73 0.72 83.2 0 0 272.33 125.99
  L 271.83 126.00
  A 0.58 0.58 0.0 0 0 271.27 126.51
  Q 270.32 133.42 272.79 140.00"
/>
<path stroke="#717171" vector-effect="non-scaling-stroke" d="
  M 200.50 152.96
  Q 198.97 152.67 198.61 151.16
  A 0.50 0.50 0.0 0 0 197.78 150.91
  C 196.30 152.29 194.92 153.38 192.88 154.02
  Q 181.19 157.68 170.99 164.48
  A 0.43 0.42 61.7 0 1 170.36 164.29
  C 169.67 162.57 174.97 156.49 176.14 154.88"
/>
<path stroke="#717171" vector-effect="non-scaling-stroke" d="
  M 198.29 208.25
  Q 193.38 199.56 191.76 190.87
  Q 191.41 189.00 190.51 190.68
  Q 186.07 198.96 182.14 207.34
  C 177.66 216.91 170.81 223.48 161.80 228.97
  Q 160.25 229.91 161.02 228.27
  C 163.28 223.39 168.25 221.24 171.53 217.04
  Q 172.97 215.20 174.82 211.06
  Q 181.09 197.00 190.50 184.79
  Q 190.90 184.27 190.26 184.41
  Q 180.37 186.54 170.25 185.91
  A 1.00 1.00 0.0 0 0 169.19 186.93
  C 169.28 190.87 168.53 204.39 170.95 206.88
  A 1.15 1.13 46.1 0 1 170.93 208.50
  L 163.76 215.45
  Q 161.92 217.24 160.92 214.87
  Q 159.92 212.51 159.94 209.00
  Q 160.03 194.25 159.96 179.50"
/>
<path stroke="#858585" vector-effect="non-scaling-stroke" d="
  M 159.96 179.50
  L 161.15 171.32
  Q 161.20 170.99 160.92 171.18
  L 149.92 178.70
  Q 148.46 179.69 148.67 181.44
  L 150.25 194.79"
/>
<path stroke="#717171" vector-effect="non-scaling-stroke" d="
  M 150.25 194.79
  L 151.57 201.51
  A 1.34 1.31 -35.8 0 1 151.41 202.42
  Q 148.27 207.65 143.25 211.21"
/>
<path stroke="#717171" vector-effect="non-scaling-stroke" d="
  M 169.52 173.04
  C 171.37 178.21 184.03 176.85 189.52 176.64
  A 0.46 0.46 0.0 0 0 189.96 176.14
  L 188.88 163.18
  A 0.85 0.85 0.0 0 0 187.79 162.44
  Q 179.50 164.94 171.60 168.54
  C 169.60 169.45 168.79 171.01 169.52 173.04"
/>
<path stroke="#858585" vector-effect="non-scaling-stroke" d="
  M 98.66 183.58
  L 100.08 180.80
  A 1.44 1.39 54.6 0 0 100.21 179.95
  Q 99.30 174.54 96.24 169.89
  Q 95.97 169.46 95.91 169.97
  C 95.44 174.21 92.07 201.91 95.08 203.93
  A 1.48 1.47 -60.6 0 0 97.24 203.32
  C 98.54 200.53 105.78 183.78 99.03 184.14
  Q 98.35 184.18 98.66 183.58"
/>
<path stroke="#858585" vector-effect="non-scaling-stroke" d="
  M 61.00 173.25
  C 61.05 180.84 60.37 187.98 60.27 195.76
  A 0.40 0.39 -13.6 0 0 60.85 196.11
  Q 65.49 193.65 68.31 189.13
  A 0.79 0.78 45.9 0 0 68.32 188.32
  Q 64.19 181.09 61.49 173.21
  Q 61.43 173.03 61.28 173.01
  A 0.24 0.24 0.0 0 0 61.00 173.25"
/>
<path stroke="#ebebeb" vector-effect="non-scaling-stroke" d="
  M 159.96 179.50
  Q 154.65 186.85 150.25 194.79"
/>
<path stroke="#ebebeb" vector-effect="non-scaling-stroke" d="
  M 157.3006 196.0406
  A 0.44 0.44 0.0 0 0 157.0515 195.4704
  L 156.6232 195.3026
  A 0.44 0.44 0.0 0 0 156.0530 195.5517
  L 153.6594 201.6594
  A 0.44 0.44 0.0 0 0 153.9085 202.2296
  L 154.3368 202.3974
  A 0.44 0.44 0.0 0 0 154.9070 202.1483
  L 157.3006 196.0406"
/>
<path stroke="#ebebeb" vector-effect="non-scaling-stroke" d="
  M 279.75 222.71
  C 281.47 224.26 299.11 238.59 290.69 240.00"
/>
<path stroke="#ebebeb" vector-effect="non-scaling-stroke" d="
  M 287.19 240.00
  L 278.87 233.89
  Q 278.15 233.36 278.06 234.25
  L 277.44 240.00"
/>
<path stroke="#ebebeb" vector-effect="non-scaling-stroke" d="
  M 208.19 240.00
  Q 207.36 231.88 207.74 223.71
  A 0.49 0.49 0.0 0 0 207.33 223.20
  Q 207.18 223.18 207.00 223.21"
/>
</g>
<path fill="#ffffff" d="
  M 0.00 0.00
  L 65.06 0.00
  C 64.86 2.38 65.89 4.92 64.79 7.17
  A 0.64 0.63 19.5 0 1 64.07 7.51
  Q 60.49 6.64 58.90 5.36
  C 57.25 4.04 50.96 -0.40 48.95 0.32
  Q 48.44 0.50 48.89 0.79
  Q 55.57 5.12 60.98 10.89
  C 65.28 15.46 69.01 17.78 74.22 20.39
  A 0.65 0.65 0.0 0 1 74.57 21.09
  C 73.55 26.08 82.14 30.85 86.36 32.58
  A 0.48 0.47 -70.9 0 0 86.99 32.27
  C 87.57 30.29 85.41 30.52 85.23 29.71
  A 0.31 0.31 0.0 0 1 85.46 29.35
  C 90.25 28.29 90.98 31.21 93.72 33.34
  Q 101.03 39.01 108.06 45.02
  C 113.23 49.44 120.57 54.86 126.33 60.43
  A 1.40 1.36 -72.3 0 1 126.75 61.27
  C 127.08 63.94 131.06 69.32 132.79 71.50
  C 129.07 75.22 123.48 81.60 122.81 87.67
  C 122.60 89.55 123.39 91.85 123.89 93.76
  C 126.67 104.27 118.14 114.65 107.56 115.29
  C 100.82 115.70 90.89 116.41 90.90 107.18
  Q 90.94 88.79 100.83 73.55
  C 104.07 68.56 107.72 67.26 113.34 68.64
  Q 115.57 69.18 115.57 71.49
  Q 115.56 75.72 112.86 79.72
  C 112.41 80.39 112.33 81.60 112.73 82.21
  A 0.92 0.91 -30.8 0 0 113.93 82.51
  Q 125.29 76.36 125.22 63.20
  Q 125.21 60.55 122.70 59.66
  Q 116.68 57.52 110.29 61.00
  Q 109.14 58.46 108.23 57.76
  Q 95.46 47.92 83.51 37.09
  C 81.07 34.89 77.60 33.04 75.01 30.31
  A 0.99 0.98 -21.2 0 0 74.29 30.00
  L 74.04 29.99
  Q 73.24 29.98 73.68 30.65
  C 77.05 35.83 80.24 40.35 85.13 44.46
  C 91.29 49.64 98.47 56.80 105.93 61.33
  Q 106.59 61.73 107.29 63.00
  C 98.57 69.80 94.84 76.09 89.28 84.14
  Q 88.99 84.55 88.94 84.05
  C 87.97 75.41 87.75 70.16 84.75 64.00
  C 81.58 57.49 70.89 61.75 66.24 64.03
  Q 65.80 64.25 66.03 63.81
  Q 67.31 61.39 68.69 59.01
  C 73.33 50.98 74.17 42.28 72.55 32.93
  C 70.45 20.83 55.99 29.61 50.04 33.02
  C 44.67 36.09 41.49 42.31 38.36 47.43
  Q 37.03 49.60 39.34 48.51
  Q 40.62 47.90 41.58 46.85
  Q 42.29 46.07 42.31 47.13
  C 42.62 64.36 41.29 77.53 41.51 98.94
  A 1.20 1.20 0.0 0 1 41.17 99.80
  C 35.22 105.99 31.39 111.23 34.29 120.48
  C 36.79 128.46 41.90 131.11 50.22 130.25
  C 64.30 128.79 71.01 122.47 80.94 113.30
  Q 81.31 112.96 81.34 113.46
  C 81.73 118.84 81.99 123.54 88.59 124.16
  C 93.33 124.60 99.96 124.83 104.69 123.18
  C 114.69 119.68 121.54 112.68 127.97 104.53
  A 0.65 0.64 -57.3 0 1 128.77 104.35
  C 128.91 104.42 129.88 114.06 130.37 115.49
  Q 131.11 117.64 133.02 116.39
  C 136.26 114.27 142.51 108.77 141.29 104.54
  Q 138.94 96.46 138.63 92.04
  Q 141.58 95.42 145.63 96.50
  A 0.61 0.60 -80.6 0 1 146.07 97.12
  C 145.89 99.94 148.50 101.56 151.14 103.11
  A 0.48 0.47 -69.4 0 0 151.84 102.79
  L 152.23 100.95
  Q 152.42 100.02 153.06 100.73
  Q 156.62 104.66 161.30 107.30
  Q 161.85 107.61 161.53 107.06
  Q 158.42 101.59 153.63 97.60
  Q 153.21 97.26 153.03 96.75
  Q 151.69 93.18 149.08 90.36
  A 1.36 1.36 0.0 0 1 148.73 89.40
  L 148.75 88.75
  A 0.26 0.25 -88.8 0 1 149.00 88.50
  L 149.47 88.49
  A 1.27 1.26 63.6 0 1 150.29 88.77
  L 155.37 92.84
  A 0.70 0.69 43.6 0 0 156.25 92.82
  L 157.69 91.60
  Q 158.23 91.13 158.29 91.85
  C 158.51 94.77 160.14 96.98 160.83 99.64
  Q 162.35 105.54 166.95 109.88
  Q 153.87 117.47 139.26 117.94
  C 133.10 118.13 129.05 120.84 126.71 126.51
  A 0.35 0.34 -78.3 0 0 127.02 126.99
  C 141.59 127.42 159.35 122.67 169.04 111.00
  C 175.21 115.85 184.84 122.95 188.60 130.58
  A 1.07 1.07 0.0 0 0 189.26 131.13
  L 190.67 131.53
  A 0.67 0.66 5.9 0 1 191.15 132.11
  Q 191.29 133.64 192.04 135.00
  L 191.92 136.11
  Q 187.26 141.42 182.74 146.82
  Q 182.45 147.17 179.73 151.05
  Q 178.22 153.21 176.14 154.88
  L 176.76 150.72
  A 0.82 0.81 21.5 0 0 176.41 149.92
  Q 174.02 148.30 171.42 149.86
  Q 162.02 155.48 161.89 166.43
  A 0.92 0.91 -14.4 0 1 161.41 167.23
  L 149.52 173.75
  A 0.52 0.52 0.0 0 1 148.75 173.29
  L 148.75 150.98
  A 0.42 0.42 0.0 0 0 148.17 150.59
  C 136.28 155.46 139.58 167.83 139.46 177.76
  A 0.62 0.61 -6.5 0 1 138.98 178.36
  Q 130.69 180.21 126.15 187.43
  A 0.90 0.82 -69.2 0 0 126.68 188.78
  C 128.96 189.06 136.42 185.42 138.92 184.44
  A 0.31 0.31 0.0 0 1 139.35 184.71
  L 140.04 197.35
  A 0.72 0.72 0.0 0 1 139.64 198.04
  Q 126.62 204.55 111.94 202.72
  A 0.49 0.48 -87.3 0 1 111.52 202.25
  L 111.32 181.88
  A 1.83 1.82 -7.7 0 1 112.69 180.09
  Q 118.54 178.58 124.58 178.76
  A 1.69 1.63 27.1 0 0 125.57 178.46
  Q 129.39 175.77 132.47 172.20
  Q 135.90 168.21 130.69 168.96
  Q 121.81 170.24 113.21 173.03
  A 0.77 0.77 0.0 0 1 112.20 172.20
  Q 112.81 167.35 115.15 163.09
  Q 117.15 159.44 113.60 161.61
  Q 110.70 163.38 108.56 165.98
  A 0.42 0.42 0.0 0 1 107.90 165.96
  Q 105.10 162.29 108.74 160.30
  C 113.88 157.49 123.51 153.99 130.38 154.23
  A 1.36 1.33 -21.0 0 1 131.28 154.62
  L 132.55 155.88
  A 0.63 0.62 -42.9 0 0 133.40 155.91
  C 135.08 154.50 143.46 147.94 140.65 145.52
  A 3.23 3.20 -27.9 0 0 138.17 144.77
  C 123.35 146.54 104.81 153.98 96.71 167.40
  Q 96.27 168.13 96.37 167.29
  Q 97.48 157.75 101.01 148.95
  C 101.38 148.02 101.32 146.67 101.18 145.83
  A 0.80 0.79 72.6 0 0 100.06 145.24
  C 92.10 148.96 92.65 155.36 88.50 161.72
  Q 83.01 170.15 77.39 178.30
  A 0.37 0.37 0.0 0 1 76.76 178.26
  Q 69.09 163.44 66.24 146.97
  A 0.45 0.44 69.6 0 0 65.57 146.66
  Q 60.87 149.47 57.57 153.87
  A 1.63 1.61 63.6 0 0 57.25 154.84
  L 57.25 159.58
  A 1.43 1.43 0.0 0 1 56.94 160.47
  L 52.68 165.74
  Q 51.64 167.01 51.68 168.65
  Q 52.11 186.98 50.86 205.18
  Q 50.59 209.14 50.71 211.26
  Q 50.90 214.60 53.19 212.16
  C 55.73 209.45 60.26 206.19 60.09 202.34
  A 1.02 0.99 -21.7 0 1 60.47 201.50
  Q 65.96 197.09 70.25 191.48
  A 0.64 0.64 0.0 0 1 71.15 191.36
  L 72.28 192.20
  A 1.03 1.03 0.0 0 0 73.34 192.30
  Q 78.23 189.88 81.04 185.30
  A 1.89 1.89 0.0 0 0 80.78 183.00
  C 79.02 181.19 79.41 181.09 80.86 179.16
  Q 84.40 174.43 87.57 169.73
  Q 88.22 168.77 88.00 169.91
  Q 84.40 188.90 84.47 208.13
  C 84.48 211.38 86.09 214.48 89.65 213.92
  C 93.08 213.38 98.13 207.57 100.79 205.02
  Q 101.54 204.30 101.37 205.32
  Q 100.77 208.87 98.25 211.51
  Q 97.60 212.20 98.54 212.21
  C 115.01 212.48 127.17 212.38 140.03 201.73
  Q 140.70 201.17 140.80 202.05
  L 141.74 210.90
  A 0.56 0.55 1.3 0 0 142.22 211.40
  Q 142.71 211.46 143.25 211.21
  L 143.61 211.48
  A 0.76 0.75 -64.3 0 1 143.88 212.26
  C 142.65 217.08 138.24 229.67 132.40 228.35
  A 0.28 0.28 0.0 0 1 132.22 227.94
  L 140.25 214.62
  A 0.54 0.54 0.0 0 0 139.97 213.83
  C 138.69 213.36 134.64 220.84 134.08 221.82
  C 130.51 228.07 126.07 232.99 121.97 238.67
  A 0.70 0.69 -46.6 0 0 121.99 239.51
  Q 122.34 239.95 122.94 240.00
  L 0.00 240.00
  L 0.00 0.00
  Z"
/>
<path fill="#d6d6d6" d="
  M 65.06 0.00
  L 154.81 0.00
  C 160.50 0.47 160.86 6.48 164.13 9.86
  C 167.85 13.73 172.84 19.85 175.79 18.25
  L 177.21 21.75
  Q 176.06 20.52 174.39 20.66
  A 0.35 0.35 0.0 0 0 174.11 21.17
  Q 175.32 23.52 178.44 26.08
  Q 184.07 30.68 190.34 36.14
  A 1.03 1.02 47.5 0 0 191.62 36.20
  C 192.62 35.49 181.38 25.52 180.25 24.54
  C 182.03 25.34 181.77 23.15 181.79 22.25
  L 186.53 26.43
  A 0.88 0.87 25.9 0 1 186.82 27.25
  Q 186.62 28.48 187.55 29.68
  Q 190.92 34.01 195.40 35.86
  A 0.43 0.43 0.0 0 0 195.87 35.76
  L 196.04 35.58
  A 0.22 0.21 -46.0 0 1 196.34 35.57
  L 202.19 40.79
  Q 203.22 41.72 202.76 40.41
  Q 202.07 38.44 203.69 37.18
  A 1.23 1.20 73.8 0 0 204.16 36.30
  C 204.43 33.07 204.84 24.88 209.64 24.84
  A 0.70 0.70 0.0 0 0 210.33 24.27
  Q 210.85 21.44 212.73 19.32
  A 0.87 0.86 -59.0 0 1 213.66 19.08
  C 215.46 19.69 214.35 23.38 215.41 25.24
  A 0.47 0.46 60.4 0 0 216.04 25.42
  L 218.48 24.00
  A 0.59 0.59 0.0 0 1 219.27 24.19
  L 220.60 26.24
  Q 221.04 26.90 221.35 26.17
  Q 222.47 23.60 221.87 20.75
  Q 221.48 18.88 222.53 20.48
  L 223.29 21.65
  A 0.61 0.60 -24.2 0 0 223.96 21.90
  L 230.03 20.16
  A 0.71 0.70 -22.2 0 1 230.85 20.50
  C 233.09 24.68 233.69 26.12 236.48 20.89
  Q 237.45 19.06 239.49 19.39
  Q 254.85 21.83 268.47 29.27
  A 1.64 1.64 0.0 0 1 269.12 29.92
  Q 269.64 30.89 270.50 31.43
  A 1.19 1.18 52.3 0 0 271.50 31.56
  L 276.39 30.00
  A 1.58 1.53 8.0 0 0 277.20 29.41
  L 295.36 3.28
  A 1.43 1.41 -39.5 0 0 295.50 1.91
  Q 294.99 0.71 296.31 0.00
  L 382.56 0.00
  L 382.91 0.26
  A 0.51 0.49 31.3 0 1 383.07 0.88
  L 379.83 7.47
  A 0.51 0.50 -63.7 0 0 380.05 8.14
  L 380.32 8.27
  A 0.47 0.47 0.0 0 1 380.47 9.00
  Q 367.81 23.47 358.00 39.94
  C 351.78 50.40 346.30 57.36 338.21 64.97
  Q 337.06 66.05 333.43 72.69
  C 333.14 73.22 333.26 73.65 333.79 73.89
  A 0.71 0.70 30.0 0 0 334.63 73.67
  L 341.64 64.27
  Q 342.03 63.74 341.78 64.35
  C 339.76 69.12 336.04 73.18 333.69 77.01
  Q 330.58 82.10 326.79 86.75
  Q 328.40 73.49 331.64 60.30
  Q 332.28 57.67 329.59 57.89
  Q 328.60 57.97 326.01 58.54
  Q 310.27 61.98 294.19 65.62
  A 2.06 1.99 -74.5 0 0 293.15 66.23
  Q 291.41 68.15 288.95 69.03
  A 1.02 1.01 -35.5 0 1 288.00 68.88
  C 283.74 65.62 281.57 65.70 276.65 64.31
  A 1.49 1.45 -47.6 0 0 275.68 64.37
  L 272.06 65.88
  Q 270.98 61.76 270.78 57.56
  Q 270.41 49.60 270.39 49.31
  Q 269.94 42.01 271.48 34.71
  A 0.56 0.56 0.0 0 0 271.08 34.06
  Q 269.96 33.74 268.93 35.21
  C 266.45 38.76 264.43 42.07 261.16 45.11
  Q 254.32 51.45 247.82 59.32
  Q 245.53 62.10 246.17 65.18
  Q 241.34 65.67 237.30 68.73
  Q 236.74 69.16 236.74 68.46
  L 236.76 63.19
  Q 236.76 61.78 235.54 62.50
  C 232.38 64.36 227.62 67.75 227.30 71.76
  Q 227.14 73.76 227.24 75.82
  A 1.65 1.64 59.4 0 1 227.01 76.73
  L 223.56 82.43
  Q 222.97 83.41 224.10 83.24
  Q 225.67 83.02 226.32 81.58
  Q 227.25 79.55 227.15 81.97
  Q 227.06 84.18 226.59 87.07
  Q 225.08 96.19 218.48 102.79
  C 217.50 103.78 216.65 103.48 216.21 102.25
  Q 217.22 81.24 221.88 59.52
  Q 222.33 57.41 220.25 56.84
  C 216.57 55.85 202.64 61.60 198.75 63.29
  L 197.76 62.69
  A 1.00 1.00 0.0 0 1 197.29 61.88
  Q 196.92 53.39 198.26 45.00
  Q 198.37 44.26 198.00 42.79
  L 205.28 51.43
  A 0.50 0.50 0.0 0 0 206.00 51.47
  C 207.16 50.37 203.55 46.03 202.92 44.72
  Q 202.70 44.27 202.30 43.97
  L 197.12 40.10
  A 0.25 0.24 -53.8 0 0 196.77 40.16
  Q 196.66 40.31 196.71 40.50
  Q 196.36 39.55 196.96 38.80
  A 0.35 0.34 -62.6 0 0 196.79 38.25
  Q 196.27 38.09 195.75 38.54
  Q 195.14 36.23 193.19 35.77
  A 0.36 0.35 1.1 0 0 192.76 36.18
  Q 193.23 38.72 195.75 39.79
  L 193.39 67.00
  Q 191.49 69.22 191.59 72.00
  C 191.65 74.09 190.49 75.94 190.42 78.09
  Q 189.70 101.51 190.08 124.90
  A 0.43 0.42 76.7 0 0 190.69 125.28
  C 194.44 123.46 199.16 119.82 199.21 115.22
  Q 199.48 89.11 199.23 72.25
  Q 199.18 68.88 202.25 68.21
  L 202.56 68.26
  A 0.32 0.32 0.0 0 1 202.83 68.55
  Q 203.19 76.24 203.68 83.94
  Q 203.80 85.70 201.93 88.32
  A 0.78 0.76 47.7 0 0 201.90 89.15
  C 205.67 95.61 202.62 105.47 203.85 112.28
  Q 204.09 113.61 203.93 115.15
  Q 203.68 117.61 202.21 119.60
  Q 199.09 123.85 197.45 128.75
  A 0.71 0.71 0.0 0 1 196.67 129.23
  L 195.22 129.00
  A 1.35 1.34 -84.4 0 0 193.68 130.27
  Q 193.56 132.90 192.04 135.00
  Q 191.29 133.64 191.15 132.11
  A 0.67 0.66 5.9 0 0 190.67 131.53
  L 189.26 131.13
  A 1.07 1.07 0.0 0 1 188.60 130.58
  C 184.84 122.95 175.21 115.85 169.04 111.00
  Q 169.43 110.64 169.45 110.24
  A 0.57 0.56 3.6 0 0 168.92 109.65
  Q 167.80 109.56 166.95 109.88
  Q 162.35 105.54 160.83 99.64
  C 160.14 96.98 158.51 94.77 158.29 91.85
  Q 158.23 91.13 157.69 91.60
  L 156.25 92.82
  A 0.70 0.69 43.6 0 1 155.37 92.84
  L 150.29 88.77
  A 1.27 1.26 63.6 0 0 149.47 88.49
  L 149.00 88.50
  A 0.26 0.25 -88.8 0 0 148.75 88.75
  L 148.73 89.40
  A 1.36 1.36 0.0 0 0 149.08 90.36
  Q 151.69 93.18 153.03 96.75
  Q 153.21 97.26 153.63 97.60
  Q 158.42 101.59 161.53 107.06
  Q 161.85 107.61 161.30 107.30
  Q 156.62 104.66 153.06 100.73
  Q 152.42 100.02 152.23 100.95
  L 151.84 102.79
  A 0.48 0.47 -69.4 0 1 151.14 103.11
  C 148.50 101.56 145.89 99.94 146.07 97.12
  A 0.61 0.60 -80.6 0 0 145.63 96.50
  Q 141.58 95.42 138.63 92.04
  Q 138.29 91.29 138.59 90.31
  A 0.65 0.65 0.0 0 1 139.21 89.85
  Q 149.51 89.85 154.18 80.77
  A 0.38 0.38 0.0 0 0 153.85 80.22
  Q 146.57 79.99 139.76 82.62
  A 0.95 0.94 79.6 0 1 138.48 81.73
  L 138.53 72.57
  A 1.80 1.77 73.7 0 1 139.32 71.10
  Q 147.16 65.81 156.53 64.41
  Q 159.04 64.03 159.16 66.57
  L 159.28 69.27
  A 0.36 0.36 0.0 0 0 159.80 69.57
  C 164.32 67.29 170.38 61.70 167.99 55.98
  A 1.66 1.65 76.0 0 0 166.33 54.98
  C 154.22 56.06 141.97 63.96 132.79 71.50
  C 131.06 69.32 127.08 63.94 126.75 61.27
  A 1.40 1.36 -72.3 0 0 126.33 60.43
  C 120.57 54.86 113.23 49.44 108.06 45.02
  Q 101.03 39.01 93.72 33.34
  C 90.98 31.21 90.25 28.29 85.46 29.35
  A 0.31 0.31 0.0 0 0 85.23 29.71
  C 85.41 30.52 87.57 30.29 86.99 32.27
  A 0.48 0.47 -70.9 0 1 86.36 32.58
  C 82.14 30.85 73.55 26.08 74.57 21.09
  A 0.65 0.65 0.0 0 0 74.22 20.39
  C 69.01 17.78 65.28 15.46 60.98 10.89
  Q 55.57 5.12 48.89 0.79
  Q 48.44 0.50 48.95 0.32
  C 50.96 -0.40 57.25 4.04 58.90 5.36
  Q 60.49 6.64 64.07 7.51
  A 0.64 0.63 19.5 0 0 64.79 7.17
  C 65.89 4.92 64.86 2.38 65.06 0.00
  Z
  M 162.53 10.89
  Q 162.33 12.20 163.51 12.55
  Q 164.49 12.83 164.02 11.93
  L 163.40 10.74
  Q 162.74 9.48 162.53 10.89
  Z
  M 285.50 31.07
  Q 285.28 31.24 285.17 31.47
  Q 284.35 33.17 285.54 31.78
  L 286.68 30.43
  Q 287.09 29.95 286.47 30.08
  Q 285.93 30.21 285.75 30.71
  A 0.88 0.78 83.2 0 1 285.50 31.07
  Z
  M 276.46 43.75
  C 275.67 41.90 275.55 36.68 274.75 36.31
  A 0.36 0.36 0.0 0 0 274.24 36.63
  Q 273.86 48.69 274.26 60.75
  Q 274.30 61.98 275.35 62.58
  A 0.45 0.45 0.0 0 0 275.99 62.34
  C 277.78 57.20 275.71 52.23 276.25 47.65
  L 282.35 35.72
  Q 282.63 35.16 282.21 35.62
  Q 278.80 39.32 276.46 43.75
  Z"
/>
<path fill="#ffffff" d="
  M 154.81 0.00
  L 296.31 0.00
  Q 294.99 0.71 295.50 1.91
  A 1.43 1.41 -39.5 0 1 295.36 3.28
  L 277.20 29.41
  A 1.58 1.53 8.0 0 1 276.39 30.00
  L 271.50 31.56
  A 1.19 1.18 52.3 0 1 270.50 31.43
  Q 269.64 30.89 269.12 29.92
  A 1.64 1.64 0.0 0 0 268.47 29.27
  Q 254.85 21.83 239.49 19.39
  Q 237.45 19.06 236.48 20.89
  C 233.69 26.12 233.09 24.68 230.85 20.50
  A 0.71 0.70 -22.2 0 0 230.03 20.16
  L 223.96 21.90
  A 0.61 0.60 -24.2 0 1 223.29 21.65
  L 222.53 20.48
  Q 221.48 18.88 221.87 20.75
  Q 222.47 23.60 221.35 26.17
  Q 221.04 26.90 220.60 26.24
  L 219.27 24.19
  A 0.59 0.59 0.0 0 0 218.48 24.00
  L 216.04 25.42
  A 0.47 0.46 60.4 0 1 215.41 25.24
  C 214.35 23.38 215.46 19.69 213.66 19.08
  A 0.87 0.86 -59.0 0 0 212.73 19.32
  Q 210.85 21.44 210.33 24.27
  A 0.70 0.70 0.0 0 1 209.64 24.84
  C 204.84 24.88 204.43 33.07 204.16 36.30
  A 1.23 1.20 73.8 0 1 203.69 37.18
  Q 202.07 38.44 202.76 40.41
  Q 203.22 41.72 202.19 40.79
  L 196.34 35.57
  A 0.22 0.21 -46.0 0 0 196.04 35.58
  L 195.87 35.76
  A 0.43 0.43 0.0 0 1 195.40 35.86
  Q 190.92 34.01 187.55 29.68
  Q 186.62 28.48 186.82 27.25
  A 0.88 0.87 25.9 0 0 186.53 26.43
  L 181.79 22.25
  L 175.17 15.88
  Q 174.62 15.35 174.90 16.06
  L 175.79 18.25
  C 172.84 19.85 167.85 13.73 164.13 9.86
  C 160.86 6.48 160.50 0.47 154.81 0.00
  Z"
/>
<path fill="#ffffff" d="
  M 382.56 0.00
  L 450.00 0.00
  L 450.00 240.00
  L 393.69 240.00
  Q 394.48 239.77 394.49 239.00
  A 0.87 0.87 0.0 0 0 393.99 238.20
  Q 387.59 235.12 386.22 228.15
  A 1.55 1.50 15.4 0 0 385.71 227.28
  C 384.56 226.30 375.87 219.58 378.28 218.15
  A 0.67 0.66 -37.1 0 1 379.09 218.26
  C 380.52 219.73 383.01 222.60 385.23 222.23
  Q 386.70 221.98 385.57 221.01
  L 378.94 215.29
  Q 377.88 214.38 378.22 215.73
  Q 378.62 217.34 377.05 217.40
  Q 376.54 217.42 376.07 217.22
  L 372.84 215.89
  A 0.61 0.61 0.0 0 0 372.00 216.45
  L 372.00 217.22
  A 0.50 0.50 0.0 0 1 371.47 217.72
  C 369.00 217.58 362.53 203.23 356.02 201.20
  C 352.64 200.14 347.75 200.97 345.55 197.45
  Q 340.65 189.65 333.13 184.55
  C 328.40 181.35 325.87 178.12 322.78 173.76
  C 320.80 170.99 320.86 167.21 318.31 164.68
  C 306.96 153.37 295.12 142.17 286.05 128.85
  A 0.81 0.80 43.4 0 1 286.02 128.00
  Q 289.57 121.99 294.32 116.93
  C 296.71 114.38 297.68 111.15 300.23 108.51
  A 0.85 0.85 0.0 0 1 300.84 108.25
  L 301.21 108.25
  Q 301.28 116.12 301.25 124.01
  Q 301.24 126.25 303.88 127.18
  A 1.12 1.12 0.0 0 0 304.90 127.03
  Q 310.02 123.26 313.41 117.90
  Q 314.04 116.89 312.85 116.93
  C 310.09 117.02 310.61 115.45 310.56 113.62
  Q 310.25 102.92 310.79 92.25
  L 311.70 91.97
  A 1.76 1.73 11.2 0 0 312.49 91.45
  L 316.48 86.90
  A 1.17 1.17 0.0 0 1 317.36 86.50
  L 318.46 86.50
  Q 316.36 101.11 316.25 115.89
  C 316.21 120.09 314.11 123.19 312.13 126.67
  Q 311.35 128.04 312.85 127.56
  Q 315.38 126.76 316.95 124.64
  A 1.35 1.35 0.0 0 1 319.05 124.56
  C 321.07 126.88 321.66 128.42 325.22 128.08
  C 328.30 127.79 332.88 122.26 334.73 119.87
  A 0.34 0.34 0.0 0 0 334.55 119.34
  C 330.39 118.30 325.01 116.83 328.79 111.22
  Q 336.77 99.39 344.11 87.71
  Q 345.07 86.18 344.76 87.96
  Q 341.58 106.35 342.43 125.03
  A 1.29 1.28 74.0 0 0 344.34 126.09
  Q 348.71 123.63 351.82 119.65
  A 0.54 0.53 -50.5 0 1 352.59 119.57
  Q 357.75 123.92 360.56 125.16
  C 367.88 128.40 379.13 126.16 385.68 122.68
  C 390.98 119.86 397.89 113.05 400.62 108.08
  C 404.08 101.79 403.37 93.38 401.16 86.76
  C 398.59 79.02 392.02 79.83 385.45 80.50
  Q 384.47 80.60 385.09 79.83
  C 389.86 73.93 394.85 67.82 393.49 59.57
  Q 392.58 54.00 386.74 54.92
  Q 365.00 58.37 354.99 78.05
  Q 354.86 78.31 354.66 78.40
  Q 354.10 78.66 354.18 78.05
  L 355.52 68.45
  Q 355.80 66.49 354.11 67.53
  Q 349.00 70.67 346.06 76.11
  C 340.01 87.30 332.97 98.06 326.39 108.43
  Q 325.01 110.61 325.20 108.04
  L 326.79 86.75
  Q 330.58 82.10 333.69 77.01
  C 336.04 73.18 339.76 69.12 341.78 64.35
  Q 342.03 63.74 341.64 64.27
  L 334.63 73.67
  A 0.71 0.70 30.0 0 1 333.79 73.89
  C 333.26 73.65 333.14 73.22 333.43 72.69
  Q 337.06 66.05 338.21 64.97
  C 346.30 57.36 351.78 50.40 358.00 39.94
  Q 367.81 23.47 380.47 9.00
  A 0.47 0.47 0.0 0 0 380.32 8.27
  L 380.05 8.14
  A 0.51 0.50 -63.7 0 1 379.83 7.47
  L 383.07 0.88
  A 0.51 0.49 31.3 0 0 382.91 0.26
  L 382.56 0.00
  Z"
/>
<path fill="#ffffff" d="
  M 162.53 10.89
  Q 162.74 9.48 163.40 10.74
  L 164.02 11.93
  Q 164.49 12.83 163.51 12.55
  Q 162.33 12.20 162.53 10.89
  Z"
/>
<path fill="#bdbdbd" d="
  M 181.79 22.25
  C 181.77 23.15 182.03 25.34 180.25 24.54
  L 177.21 21.75
  L 175.79 18.25
  L 174.90 16.06
  Q 174.62 15.35 175.17 15.88
  L 181.79 22.25
  Z"
/>
<path fill="#ffffff" d="
  M 177.21 21.75
  L 180.25 24.54
  C 181.38 25.52 192.62 35.49 191.62 36.20
  A 1.03 1.02 47.5 0 1 190.34 36.14
  Q 184.07 30.68 178.44 26.08
  Q 175.32 23.52 174.11 21.17
  A 0.35 0.35 0.0 0 1 174.39 20.66
  Q 176.06 20.52 177.21 21.75
  Z"
/>
<path fill="#0b0b0b" d="
  M 107.29 63.00
  L 110.29 61.00
  Q 116.68 57.52 122.70 59.66
  Q 125.21 60.55 125.22 63.20
  Q 125.29 76.36 113.93 82.51
  A 0.92 0.91 -30.8 0 1 112.73 82.21
  C 112.33 81.60 112.41 80.39 112.86 79.72
  Q 115.56 75.72 115.57 71.49
  Q 115.57 69.18 113.34 68.64
  C 107.72 67.26 104.07 68.56 100.83 73.55
  Q 90.94 88.79 90.90 107.18
  C 90.89 116.41 100.82 115.70 107.56 115.29
  C 118.14 114.65 126.67 104.27 123.89 93.76
  C 123.39 91.85 122.60 89.55 122.81 87.67
  C 123.48 81.60 129.07 75.22 132.79 71.50
  C 141.97 63.96 154.22 56.06 166.33 54.98
  A 1.66 1.65 76.0 0 1 167.99 55.98
  C 170.38 61.70 164.32 67.29 159.80 69.57
  A 0.36 0.36 0.0 0 1 159.28 69.27
  L 159.16 66.57
  Q 159.04 64.03 156.53 64.41
  Q 147.16 65.81 139.32 71.10
  A 1.80 1.77 73.7 0 0 138.53 72.57
  L 138.48 81.73
  A 0.95 0.94 79.6 0 0 139.76 82.62
  Q 146.57 79.99 153.85 80.22
  A 0.38 0.38 0.0 0 1 154.18 80.77
  Q 149.51 89.85 139.21 89.85
  A 0.65 0.65 0.0 0 0 138.59 90.31
  Q 138.29 91.29 138.63 92.04
  Q 138.94 96.46 141.29 104.54
  C 142.51 108.77 136.26 114.27 133.02 116.39
  Q 131.11 117.64 130.37 115.49
  C 129.88 114.06 128.91 104.42 128.77 104.35
  A 0.65 0.64 -57.3 0 0 127.97 104.53
  C 121.54 112.68 114.69 119.68 104.69 123.18
  C 99.96 124.83 93.33 124.60 88.59 124.16
  C 81.99 123.54 81.73 118.84 81.34 113.46
  Q 81.31 112.96 80.94 113.30
  C 71.01 122.47 64.30 128.79 50.22 130.25
  C 41.90 131.11 36.79 128.46 34.29 120.48
  C 31.39 111.23 35.22 105.99 41.17 99.80
  A 1.20 1.20 0.0 0 0 41.51 98.94
  C 41.29 77.53 42.62 64.36 42.31 47.13
  Q 42.29 46.07 41.58 46.85
  Q 40.62 47.90 39.34 48.51
  Q 37.03 49.60 38.36 47.43
  C 41.49 42.31 44.67 36.09 50.04 33.02
  C 55.99 29.61 70.45 20.83 72.55 32.93
  C 74.17 42.28 73.33 50.98 68.69 59.01
  Q 67.31 61.39 66.03 63.81
  Q 65.80 64.25 66.24 64.03
  C 70.89 61.75 81.58 57.49 84.75 64.00
  C 87.75 70.16 87.97 75.41 88.94 84.05
  Q 88.99 84.55 89.28 84.14
  C 94.84 76.09 98.57 69.80 107.29 63.00
  Z
  M 52.57 36.98
  A 1.17 1.16 81.4 0 0 51.74 38.11
  Q 51.96 55.42 50.64 72.73
  Q 50.46 75.04 52.43 73.80
  C 63.61 66.75 65.41 51.51 62.61 39.20
  Q 62.00 36.51 59.25 36.30
  Q 55.79 36.03 52.57 36.98
  Z
  M 71.21 70.25
  C 62.60 68.92 56.78 74.99 51.19 81.37
  A 1.57 1.52 -25.2 0 0 50.81 82.38
  L 50.72 92.71
  A 0.69 0.68 -87.8 0 0 51.35 93.40
  C 53.63 93.59 55.92 93.17 57.14 95.83
  A 0.90 0.88 -42.0 0 1 57.09 96.67
  Q 54.78 100.42 51.24 103.07
  A 1.23 1.22 -18.7 0 0 50.75 104.05
  L 50.75 114.91
  A 1.07 1.06 19.9 0 0 51.14 115.73
  L 52.29 116.65
  A 0.60 0.60 0.0 0 1 52.34 117.54
  L 50.24 119.62
  A 0.45 0.45 0.0 0 0 50.39 120.35
  Q 53.33 121.55 57.31 121.08
  C 74.55 119.04 80.00 114.17 79.58 95.94
  C 79.43 89.37 78.86 76.95 74.87 72.18
  Q 73.55 70.61 71.21 70.25
  Z"
/>
<path fill="#d6d6d6" d="
  M 110.29 61.00
  L 107.29 63.00
  Q 106.59 61.73 105.93 61.33
  C 98.47 56.80 91.29 49.64 85.13 44.46
  C 80.24 40.35 77.05 35.83 73.68 30.65
  Q 73.24 29.98 74.04 29.99
  L 74.29 30.00
  A 0.99 0.98 -21.2 0 1 75.01 30.31
  C 77.60 33.04 81.07 34.89 83.51 37.09
  Q 95.46 47.92 108.23 57.76
  Q 109.14 58.46 110.29 61.00
  Z"
/>
<path fill="#ffffff" d="
  M 285.75 30.71
  Q 285.93 30.21 286.47 30.08
  Q 287.09 29.95 286.68 30.43
  L 285.54 31.78
  Q 284.35 33.17 285.17 31.47
  Q 285.28 31.24 285.50 31.07
  A 0.88 0.78 83.2 0 0 285.75 30.71
  Z"
/>
<path fill="#bdbdbd" d="
  M 272.06 65.88
  L 259.13 72.82
  A 0.50 0.50 0.0 0 1 258.46 72.63
  C 256.58 69.31 256.27 65.92 252.03 64.81
  C 250.15 64.32 248.36 65.36 246.17 65.18
  Q 245.53 62.10 247.82 59.32
  Q 254.32 51.45 261.16 45.11
  C 264.43 42.07 266.45 38.76 268.93 35.21
  Q 269.96 33.74 271.08 34.06
  A 0.56 0.56 0.0 0 1 271.48 34.71
  Q 269.94 42.01 270.39 49.31
  Q 270.41 49.60 270.78 57.56
  Q 270.98 61.76 272.06 65.88
  Z"
/>
<path fill="#ffffff" d="
  M 276.25 47.65
  Q 275.91 45.50 276.46 43.75
  Q 278.80 39.32 282.21 35.62
  Q 282.63 35.16 282.35 35.72
  L 276.25 47.65
  Z"
/>
<path fill="#ffffff" d="
  M 195.75 38.54
  L 195.75 39.79
  Q 193.23 38.72 192.76 36.18
  A 0.36 0.35 1.1 0 1 193.19 35.77
  Q 195.14 36.23 195.75 38.54
  Z"
/>
<path fill="#bdbdbd" d="
  M 276.46 43.75
  Q 275.91 45.50 276.25 47.65
  C 275.71 52.23 277.78 57.20 275.99 62.34
  A 0.45 0.45 0.0 0 1 275.35 62.58
  Q 274.30 61.98 274.26 60.75
  Q 273.86 48.69 274.24 36.63
  A 0.36 0.36 0.0 0 1 274.75 36.31
  C 275.55 36.68 275.67 41.90 276.46 43.75
  Z"
/>
<path fill="#ffffff" d="
  M 52.57 36.98
  Q 55.79 36.03 59.25 36.30
  Q 62.00 36.51 62.61 39.20
  C 65.41 51.51 63.61 66.75 52.43 73.80
  Q 50.46 75.04 50.64 72.73
  Q 51.96 55.42 51.74 38.11
  A 1.17 1.16 81.4 0 1 52.57 36.98
  Z"
/>
<path fill="#bdbdbd" d="
  M 196.71 40.50
  L 198.00 42.79
  Q 198.37 44.26 198.26 45.00
  Q 196.92 53.39 197.29 61.88
  A 1.00 1.00 0.0 0 0 197.76 62.69
  L 198.75 63.29
  L 193.39 67.00
  L 195.75 39.79
  L 195.75 38.54
  Q 196.27 38.09 196.79 38.25
  A 0.35 0.34 -62.6 0 1 196.96 38.80
  Q 196.36 39.55 196.71 40.50
  Z"
/>
<path fill="#ffffff" d="
  M 198.00 42.79
  L 196.71 40.50
  Q 196.66 40.31 196.77 40.16
  A 0.25 0.24 -53.8 0 1 197.12 40.10
  L 202.30 43.97
  Q 202.70 44.27 202.92 44.72
  C 203.55 46.03 207.16 50.37 206.00 51.47
  A 0.50 0.50 0.0 0 1 205.28 51.43
  L 198.00 42.79
  Z"
/>
<path fill="#0b0b0b" d="
  M 318.46 86.50
  L 322.37 67.44
  A 0.41 0.40 -89.5 0 0 321.90 66.96
  L 313.18 68.51
  A 0.80 0.79 -1.0 0 0 312.53 69.18
  Q 310.95 80.76 310.79 92.25
  Q 310.25 102.92 310.56 113.62
  C 310.61 115.45 310.09 117.02 312.85 116.93
  Q 314.04 116.89 313.41 117.90
  Q 310.02 123.26 304.90 127.03
  A 1.12 1.12 0.0 0 1 303.88 127.18
  Q 301.24 126.25 301.25 124.01
  Q 301.28 116.12 301.21 108.25
  Q 301.20 97.66 302.13 84.18
  C 302.58 77.80 302.86 75.34 306.93 70.43
  Q 307.26 70.02 306.75 70.15
  L 293.18 73.43
  A 0.65 0.65 0.0 0 0 292.79 74.42
  C 295.66 78.63 297.17 82.90 297.45 88.11
  C 298.26 103.23 290.66 113.46 278.21 121.50
  L 277.00 122.29
  C 275.27 123.25 273.93 124.24 271.85 124.25
  C 267.32 124.28 261.25 125.36 258.35 121.03
  C 256.53 118.31 257.28 112.99 257.23 109.52
  Q 257.21 108.47 256.74 109.41
  Q 250.99 120.95 239.48 126.70
  Q 239.01 126.93 238.49 126.95
  L 235.06 127.12
  A 1.43 1.42 -3.0 0 0 233.70 128.62
  C 233.86 131.54 233.54 134.69 233.58 137.11
  Q 233.86 154.86 233.76 172.74
  A 1.70 1.70 0.0 0 1 233.49 173.66
  Q 230.63 178.15 226.38 181.68
  C 225.30 182.33 223.24 184.26 222.20 182.28
  A 0.89 0.88 47.9 0 1 222.24 181.39
  Q 223.43 179.52 223.76 177.26
  Q 223.37 151.22 224.54 125.22
  A 1.57 1.54 -62.4 0 0 224.23 124.20
  Q 222.52 121.92 223.04 119.05
  A 1.53 1.52 -52.9 0 0 222.92 118.15
  C 219.88 111.49 225.16 105.16 225.90 98.90
  Q 226.59 92.96 226.59 87.07
  Q 227.06 84.18 227.15 81.97
  Q 227.25 79.55 226.32 81.58
  Q 225.67 83.02 224.10 83.24
  Q 222.97 83.41 223.56 82.43
  L 227.01 76.73
  A 1.65 1.64 59.4 0 0 227.24 75.82
  Q 227.14 73.76 227.30 71.76
  C 227.62 67.75 232.38 64.36 235.54 62.50
  Q 236.76 61.78 236.76 63.19
  L 236.74 68.46
  Q 236.74 69.16 237.30 68.73
  Q 241.34 65.67 246.17 65.18
  C 248.36 65.36 250.15 64.32 252.03 64.81
  C 256.27 65.92 256.58 69.31 258.46 72.63
  A 0.50 0.50 0.0 0 0 259.13 72.82
  L 272.06 65.88
  L 275.68 64.37
  A 1.49 1.45 -47.6 0 1 276.65 64.31
  C 281.57 65.70 283.74 65.62 288.00 68.88
  A 1.02 1.01 -35.5 0 0 288.95 69.03
  Q 291.41 68.15 293.15 66.23
  A 2.06 1.99 -74.5 0 1 294.19 65.62
  Q 310.27 61.98 326.01 58.54
  Q 328.60 57.97 329.59 57.89
  Q 332.28 57.67 331.64 60.30
  Q 328.40 73.49 326.79 86.75
  L 325.20 108.04
  Q 325.01 110.61 326.39 108.43
  C 332.97 98.06 340.01 87.30 346.06 76.11
  Q 349.00 70.67 354.11 67.53
  Q 355.80 66.49 355.52 68.45
  L 354.18 78.05
  Q 354.10 78.66 354.66 78.40
  Q 354.86 78.31 354.99 78.05
  Q 365.00 58.37 386.74 54.92
  Q 392.58 54.00 393.49 59.57
  C 394.85 67.82 389.86 73.93 385.09 79.83
  Q 384.47 80.60 385.45 80.50
  C 392.02 79.83 398.59 79.02 401.16 86.76
  C 403.37 93.38 404.08 101.79 400.62 108.08
  C 397.89 113.05 390.98 119.86 385.68 122.68
  C 379.13 126.16 367.88 128.40 360.56 125.16
  Q 357.75 123.92 352.59 119.57
  A 0.54 0.53 -50.5 0 0 351.82 119.65
  Q 348.71 123.63 344.34 126.09
  A 1.29 1.28 74.0 0 1 342.43 125.03
  Q 341.58 106.35 344.76 87.96
  Q 345.07 86.18 344.11 87.71
  Q 336.77 99.39 328.79 111.22
  C 325.01 116.83 330.39 118.30 334.55 119.34
  A 0.34 0.34 0.0 0 1 334.73 119.87
  C 332.88 122.26 328.30 127.79 325.22 128.08
  C 321.66 128.42 321.07 126.88 319.05 124.56
  A 1.35 1.35 0.0 0 0 316.95 124.64
  Q 315.38 126.76 312.85 127.56
  Q 311.35 128.04 312.13 126.67
  C 314.11 123.19 316.21 120.09 316.25 115.89
  Q 316.36 101.11 318.46 86.50
  Z
  M 362.49 94.84
  Q 363.58 92.65 364.80 90.52
  C 369.59 82.15 363.52 70.10 375.74 65.67
  A 0.81 0.81 0.0 0 1 376.83 66.46
  Q 376.55 74.45 375.00 82.30
  A 0.74 0.74 0.0 0 0 375.91 83.16
  C 383.17 81.38 385.19 73.57 384.18 66.90
  Q 383.83 64.59 381.51 64.41
  C 376.24 63.99 364.36 65.75 363.58 72.83
  Q 362.49 82.81 354.46 86.34
  Q 352.88 87.03 352.72 88.74
  Q 351.42 102.52 351.62 116.40
  A 0.69 0.68 6.7 0 0 352.14 117.05
  C 354.09 117.52 359.87 106.48 363.07 110.63
  Q 364.19 112.09 364.34 110.26
  L 365.56 95.12
  A 0.40 0.39 84.5 0 0 365.06 94.70
  L 362.89 95.32
  Q 362.14 95.53 362.49 94.84
  Z
  M 245.54 75.04
  Q 243.78 73.56 241.54 74.03
  L 237.24 74.93
  A 0.67 0.67 0.0 0 0 236.72 75.45
  Q 235.28 82.10 235.83 88.91
  Q 235.87 89.39 236.25 89.09
  L 246.84 80.73
  A 2.39 2.39 0.0 0 0 247.62 78.08
  Q 246.99 76.27 245.54 75.04
  Z
  M 260.71 93.08
  C 261.73 87.30 264.81 80.19 266.98 74.64
  Q 267.17 74.16 266.67 74.30
  Q 262.90 75.37 259.58 77.45
  A 1.08 1.07 72.2 0 0 259.08 78.43
  L 260.07 93.11
  A 0.15 0.15 0.0 0 0 260.22 93.25
  L 260.52 93.25
  A 0.21 0.19 -84.6 0 0 260.71 93.08
  Z
  M 283.12 107.48
  C 284.01 108.53 278.69 113.82 277.82 114.62
  Q 277.45 114.96 277.95 115.00
  Q 284.68 115.50 286.62 108.58
  Q 292.70 86.87 274.24 74.62
  A 0.53 0.53 0.0 0 0 273.43 74.93
  Q 269.48 89.54 270.33 104.93
  C 270.54 108.88 272.38 111.11 276.34 111.23
  A 1.72 1.70 28.0 0 0 277.34 110.93
  L 282.48 107.39
  A 0.48 0.48 0.0 0 1 283.12 107.48
  Z
  M 233.57 110.45
  C 232.68 116.40 237.80 120.46 243.24 118.05
  Q 243.66 117.87 244.12 117.82
  L 246.56 117.58
  A 0.97 0.97 0.0 0 0 247.36 116.98
  C 251.61 106.17 250.00 96.10 249.59 85.06
  Q 249.52 83.22 248.01 84.28
  L 236.94 92.07
  Q 235.04 93.41 234.95 95.74
  Q 234.70 102.79 233.57 110.45
  Z
  M 375.84 110.25
  Q 373.74 113.71 370.53 116.16
  Q 370.01 116.56 370.65 116.70
  C 376.68 118.03 392.97 118.77 393.42 109.48
  C 394.01 97.37 392.50 86.60 376.73 89.88
  A 2.50 2.49 -88.9 0 0 374.82 91.72
  Q 372.58 100.65 375.94 109.12
  A 1.28 1.28 0.0 0 1 375.84 110.25
  Z"
/>
<path fill="#0b0b0b" d="
  M 216.21 102.25
  L 216.15 127.42
  Q 216.15 128.38 216.84 127.72
  L 218.18 126.46
  A 0.33 0.32 60.7 0 1 218.72 126.62
  C 219.81 130.66 212.80 137.03 210.13 138.56
  Q 206.82 140.47 206.81 136.65
  L 206.71 115.00
  Q 207.22 91.60 212.36 68.14
  Q 212.80 66.13 210.75 66.25
  Q 206.94 66.47 202.25 68.21
  Q 199.18 68.88 199.23 72.25
  Q 199.48 89.11 199.21 115.22
  C 199.16 119.82 194.44 123.46 190.69 125.28
  A 0.43 0.42 76.7 0 1 190.08 124.90
  Q 189.70 101.51 190.42 78.09
  C 190.49 75.94 191.65 74.09 191.59 72.00
  Q 191.49 69.22 193.39 67.00
  L 198.75 63.29
  C 202.64 61.60 216.57 55.85 220.25 56.84
  Q 222.33 57.41 221.88 59.52
  Q 217.22 81.24 216.21 102.25
  Z"
/>
<path fill="#ffffff" d="
  M 362.89 95.32
  L 365.06 94.70
  A 0.40 0.39 84.5 0 1 365.56 95.12
  L 364.34 110.26
  Q 364.19 112.09 363.07 110.63
  C 359.87 106.48 354.09 117.52 352.14 117.05
  A 0.69 0.68 6.7 0 1 351.62 116.40
  Q 351.42 102.52 352.72 88.74
  Q 352.88 87.03 354.46 86.34
  Q 362.49 82.81 363.58 72.83
  C 364.36 65.75 376.24 63.99 381.51 64.41
  Q 383.83 64.59 384.18 66.90
  C 385.19 73.57 383.17 81.38 375.91 83.16
  A 0.74 0.74 0.0 0 1 375.00 82.30
  Q 376.55 74.45 376.83 66.46
  A 0.81 0.81 0.0 0 0 375.74 65.67
  C 363.52 70.10 369.59 82.15 364.80 90.52
  Q 363.58 92.65 362.49 94.84
  Q 362.14 95.53 362.89 95.32
  Z"
/>
<path fill="#bdbdbd" d="
  M 206.71 115.00
  L 205.11 120.33
  A 0.63 0.63 0.0 0 1 204.45 120.77
  Q 203.41 120.68 202.58 121.08
  Q 200.22 122.22 201.09 124.69
  Q 203.86 132.60 202.67 140.83
  A 0.93 0.90 26.0 0 0 202.97 141.66
  L 206.04 144.41
  Q 206.58 144.90 205.86 144.83
  C 203.05 144.54 204.12 149.41 204.03 151.31
  C 203.79 156.25 210.97 161.00 213.08 163.68
  Q 217.62 169.45 221.38 171.98
  A 0.28 0.28 0.0 0 1 221.50 172.23
  L 221.49 172.58
  A 0.49 0.48 5.9 0 1 220.93 173.03
  L 219.57 172.81
  A 0.47 0.47 0.0 0 0 219.04 173.39
  Q 219.88 176.68 223.76 177.26
  Q 223.43 179.52 222.24 181.39
  A 0.89 0.88 47.9 0 0 222.20 182.28
  C 223.24 184.26 225.30 182.33 226.38 181.68
  L 233.37 188.55
  A 0.84 0.84 0.0 0 0 234.57 188.53
  C 238.52 184.45 242.19 182.20 244.06 175.76
  Q 244.19 175.29 244.14 174.80
  C 243.93 172.67 251.16 165.53 252.69 166.47
  A 0.43 0.43 0.0 0 1 252.78 167.14
  C 250.76 169.27 243.50 178.78 244.62 181.54
  A 0.34 0.34 0.0 0 0 245.20 181.63
  L 255.14 168.89
  A 1.78 1.74 67.6 0 0 255.52 167.95
  Q 255.87 164.15 256.82 163.06
  Q 264.87 153.83 271.53 143.54
  C 271.82 144.55 272.58 149.78 271.52 150.37
  Q 270.98 150.66 271.00 150.05
  L 271.01 149.57
  Q 271.08 147.19 270.26 149.42
  L 269.88 150.45
  A 0.89 0.88 37.2 0 0 270.00 151.29
  C 271.14 152.79 273.21 159.00 276.09 155.91
  A 0.31 0.30 -34.8 0 1 276.60 156.00
  C 278.15 159.96 283.03 171.49 281.73 175.25
  Q 278.53 184.53 278.58 193.15
  C 278.60 196.08 278.25 199.13 278.77 202.99
  Q 279.35 207.24 278.52 220.48
  Q 278.86 221.74 279.75 222.71
  Q 280.32 227.72 278.64 232.56
  A 0.40 0.40 0.0 0 1 278.04 232.76
  Q 272.45 229.03 268.58 223.60
  C 263.95 217.13 257.06 211.45 251.63 205.49
  Q 249.67 203.34 246.67 201.30
  Q 240.17 196.87 235.18 190.50
  A 1.06 1.06 0.0 0 0 233.60 190.40
  C 226.21 197.77 221.51 203.83 215.33 214.91
  C 213.85 217.54 212.59 221.53 210.33 224.54
  A 0.42 0.42 0.0 0 1 209.69 224.58
  C 209.13 224.00 211.34 219.27 211.66 218.21
  Q 211.81 217.72 211.47 218.10
  L 207.00 223.21
  Q 204.30 231.40 204.09 240.05
  L 197.07 240.00
  Q 197.83 224.77 196.78 209.57
  A 0.43 0.43 0.0 0 1 197.21 209.10
  Q 198.15 209.10 198.29 208.25
  L 202.09 213.51
  A 0.80 0.79 -35.6 0 0 203.19 213.69
  Q 207.65 210.54 211.08 206.28
  A 1.91 1.90 44.9 0 0 211.07 203.88
  Q 203.27 194.36 201.21 182.17
  Q 200.90 180.34 202.21 179.02
  C 203.16 178.07 206.47 174.99 206.37 173.20
  A 0.43 0.43 0.0 0 0 205.81 172.81
  L 201.21 174.29
  A 1.36 1.36 0.0 0 1 199.43 173.02
  L 199.18 157.50
  A 1.67 1.64 -27.4 0 1 199.52 156.47
  C 200.15 155.65 202.34 153.82 200.50 152.96
  L 201.87 152.08
  A 0.61 0.61 0.0 0 0 202.11 151.34
  C 200.68 147.88 201.96 146.87 201.93 143.65
  A 1.23 1.22 22.2 0 0 201.57 142.81
  L 196.75 138.00
  Q 196.40 137.65 195.94 137.49
  L 191.92 136.11
  L 192.04 135.00
  Q 193.56 132.90 193.68 130.27
  A 1.35 1.34 -84.4 0 1 195.22 129.00
  L 196.67 129.23
  A 0.71 0.71 0.0 0 0 197.45 128.75
  Q 199.09 123.85 202.21 119.60
  Q 203.68 117.61 203.93 115.15
  Q 204.09 113.61 203.85 112.28
  C 202.62 105.47 205.67 95.61 201.90 89.15
  A 0.78 0.76 47.7 0 1 201.93 88.32
  Q 203.80 85.70 203.68 83.94
  Q 203.19 76.24 202.83 68.55
  A 0.32 0.32 0.0 0 0 202.56 68.26
  L 202.25 68.21
  Q 206.94 66.47 210.75 66.25
  Q 212.80 66.13 212.36 68.14
  Q 207.22 91.60 206.71 115.00
  Z
  M 254.38 202.57
  L 254.84 204.94
  A 0.77 0.75 8.4 0 0 255.24 205.47
  L 257.25 206.51
  Q 257.71 206.75 257.67 206.23
  C 257.41 203.35 252.82 203.02 255.68 199.11
  Q 256.84 197.53 255.36 196.25
  C 254.31 195.34 245.75 188.40 244.97 188.99
  A 0.41 0.40 -41.6 0 0 244.93 189.61
  L 249.11 193.56
  A 0.61 0.61 0.0 0 1 249.19 194.37
  Q 248.18 195.81 249.43 197.07
  A 0.80 0.79 -56.5 0 1 249.60 197.93
  Q 248.60 200.48 251.13 201.42
  A 0.90 0.89 -84.8 0 1 251.69 202.10
  L 251.88 203.23
  Q 252.01 203.96 252.50 203.41
  L 253.48 202.32
  Q 254.19 201.54 254.38 202.57
  Z
  M 259.3371 204.3688
  A 1.73 1.14 79.1 0 0 260.1294 202.4544
  A 1.73 1.14 79.1 0 0 258.6829 200.9712
  A 1.73 1.14 79.1 0 0 257.8906 202.8856
  A 1.73 1.14 79.1 0 0 259.3371 204.3688
  Z"
/>
<path fill="#d6d6d6" d="
  M 318.46 86.50
  L 317.36 86.50
  A 1.17 1.17 0.0 0 0 316.48 86.90
  L 312.49 91.45
  A 1.76 1.73 11.2 0 1 311.70 91.97
  L 310.79 92.25
  Q 310.95 80.76 312.53 69.18
  A 0.80 0.79 -1.0 0 1 313.18 68.51
  L 321.90 66.96
  A 0.41 0.40 -89.5 0 1 322.37 67.44
  L 318.46 86.50
  Z"
/>
<path fill="#ffffff" d="
  M 74.87 72.18
  C 78.86 76.95 79.43 89.37 79.58 95.94
  C 80.00 114.17 74.55 119.04 57.31 121.08
  Q 53.33 121.55 50.39 120.35
  A 0.45 0.45 0.0 0 1 50.24 119.62
  L 52.34 117.54
  A 0.60 0.60 0.0 0 0 52.29 116.65
  L 51.14 115.73
  A 1.07 1.06 19.9 0 1 50.75 114.91
  L 50.75 104.05
  A 1.23 1.22 -18.7 0 1 51.24 103.07
  Q 54.78 100.42 57.09 96.67
  A 0.90 0.88 -42.0 0 0 57.14 95.83
  C 55.92 93.17 53.63 93.59 51.35 93.40
  A 0.69 0.68 -87.8 0 1 50.72 92.71
  L 50.81 82.38
  A 1.57 1.52 -25.2 0 1 51.19 81.37
  C 56.78 74.99 62.60 68.92 71.21 70.25
  Q 73.55 70.61 74.87 72.18
  Z"
/>
<path fill="#d6d6d6" d="
  M 301.21 108.25
  L 300.84 108.25
  A 0.85 0.85 0.0 0 0 300.23 108.51
  C 297.68 111.15 296.71 114.38 294.32 116.93
  Q 289.57 121.99 286.02 128.00
  A 0.81 0.80 43.4 0 0 286.05 128.85
  C 295.12 142.17 306.96 153.37 318.31 164.68
  C 320.86 167.21 320.80 170.99 322.78 173.76
  C 325.87 178.12 328.40 181.35 333.13 184.55
  Q 340.65 189.65 345.55 197.45
  C 347.75 200.97 352.64 200.14 356.02 201.20
  C 362.53 203.23 369.00 217.58 371.47 217.72
  A 0.50 0.50 0.0 0 0 372.00 217.22
  L 372.00 216.45
  A 0.61 0.61 0.0 0 1 372.84 215.89
  L 376.07 217.22
  Q 376.54 217.42 377.05 217.40
  Q 378.62 217.34 378.22 215.73
  Q 377.88 214.38 378.94 215.29
  L 385.57 221.01
  Q 386.70 221.98 385.23 222.23
  C 383.01 222.60 380.52 219.73 379.09 218.26
  A 0.67 0.66 -37.1 0 0 378.28 218.15
  C 375.87 219.58 384.56 226.30 385.71 227.28
  A 1.55 1.50 15.4 0 1 386.22 228.15
  Q 387.59 235.12 393.99 238.20
  A 0.87 0.87 0.0 0 1 394.49 239.00
  Q 394.48 239.77 393.69 240.00
  L 305.94 240.00
  L 300.49 239.55
  A 0.75 0.75 0.0 0 1 299.85 239.03
  C 298.32 234.30 295.25 234.23 292.29 231.22
  C 289.47 228.34 281.17 219.60 278.52 220.48
  Q 279.35 207.24 278.77 202.99
  C 278.25 199.13 278.60 196.08 278.58 193.15
  Q 278.53 184.53 281.73 175.25
  C 283.03 171.49 278.15 159.96 276.60 156.00
  A 0.31 0.30 -34.8 0 0 276.09 155.91
  C 273.21 159.00 271.14 152.79 270.00 151.29
  A 0.89 0.88 37.2 0 1 269.88 150.45
  L 270.26 149.42
  Q 271.08 147.19 271.01 149.57
  L 271.00 150.05
  Q 270.98 150.66 271.52 150.37
  C 272.58 149.78 271.82 144.55 271.53 143.54
  L 272.79 140.00
  C 274.75 140.50 273.74 144.03 274.69 145.82
  A 1.14 1.13 42.2 0 1 274.74 146.78
  Q 273.68 149.35 275.69 151.01
  Q 276.26 151.48 276.36 150.75
  Q 276.90 146.69 276.12 142.79
  C 275.79 141.14 276.02 139.93 276.00 138.29
  L 277.75 136.96
  L 278.45 137.00
  A 1.39 1.36 -61.1 0 0 279.39 136.72
  Q 282.36 134.50 283.42 131.00
  A 1.30 1.29 85.1 0 1 284.07 130.22
  L 284.32 130.09
  A 0.87 0.87 0.0 0 0 284.75 129.01
  L 283.03 124.44
  Q 282.73 123.66 282.49 124.45
  Q 282.18 125.48 281.25 126.00
  A 0.74 0.73 -38.7 0 1 280.40 125.91
  Q 278.50 124.16 278.21 121.50
  C 290.66 113.46 298.26 103.23 297.45 88.11
  C 297.17 82.90 295.66 78.63 292.79 74.42
  A 0.65 0.65 0.0 0 1 293.18 73.43
  L 306.75 70.15
  Q 307.26 70.02 306.93 70.43
  C 302.86 75.34 302.58 77.80 302.13 84.18
  Q 301.20 97.66 301.21 108.25
  Z
  M 331.33 187.29
  L 331.48 188.80
  A 0.53 0.53 0.0 0 0 332.11 189.27
  L 335.33 188.64
  A 0.52 0.52 0.0 0 0 335.71 187.94
  Q 334.88 185.83 332.48 185.97
  A 1.22 1.21 -4.1 0 0 331.33 187.29
  Z
  M 332.25 192.51
  Q 336.84 197.33 342.71 200.46
  A 0.70 0.69 -53.5 0 0 343.54 200.33
  C 344.54 199.30 337.34 192.11 336.27 190.76
  A 0.89 0.87 62.8 0 0 335.37 190.46
  L 332.64 191.14
  A 0.82 0.82 0.0 0 0 332.25 192.51
  Z
  M 298.94 234.76
  C 301.84 229.54 291.61 223.80 287.99 221.85
  Q 287.60 221.64 287.35 221.28
  L 286.10 219.49
  Q 285.49 218.62 285.62 219.67
  L 286.17 224.00
  A 1.81 1.73 -70.1 0 0 286.57 224.91
  Q 288.55 227.25 291.35 228.55
  Q 291.85 228.79 292.19 229.22
  Q 294.87 232.57 298.52 234.87
  A 0.30 0.30 0.0 0 0 298.94 234.76
  Z"
/>
<path fill="#bdbdbd" d="
  M 245.54 75.04
  Q 246.99 76.27 247.62 78.08
  A 2.39 2.39 0.0 0 1 246.84 80.73
  L 236.25 89.09
  Q 235.87 89.39 235.83 88.91
  Q 235.28 82.10 236.72 75.45
  A 0.67 0.67 0.0 0 1 237.24 74.93
  L 241.54 74.03
  Q 243.78 73.56 245.54 75.04
  Z"
/>
<path fill="#bdbdbd" d="
  M 266.98 74.64
  C 264.81 80.19 261.73 87.30 260.71 93.08
  A 0.21 0.19 -84.6 0 1 260.52 93.25
  L 260.22 93.25
  A 0.15 0.15 0.0 0 1 260.07 93.11
  L 259.08 78.43
  A 1.08 1.07 72.2 0 1 259.58 77.45
  Q 262.90 75.37 266.67 74.30
  Q 267.17 74.16 266.98 74.64
  Z"
/>
<path fill="#d6d6d6" d="
  M 282.48 107.39
  L 277.34 110.93
  A 1.72 1.70 28.0 0 1 276.34 111.23
  C 272.38 111.11 270.54 108.88 270.33 104.93
  Q 269.48 89.54 273.43 74.93
  A 0.53 0.53 0.0 0 1 274.24 74.62
  Q 292.70 86.87 286.62 108.58
  Q 284.68 115.50 277.95 115.00
  Q 277.45 114.96 277.82 114.62
  C 278.69 113.82 284.01 108.53 283.12 107.48
  A 0.48 0.48 0.0 0 0 282.48 107.39
  Z"
/>
<path fill="#ababab" d="
  M 243.24 118.05
  C 237.80 120.46 232.68 116.40 233.57 110.45
  Q 234.70 102.79 234.95 95.74
  Q 235.04 93.41 236.94 92.07
  L 248.01 84.28
  Q 249.52 83.22 249.59 85.06
  C 250.00 96.10 251.61 106.17 247.36 116.98
  A 0.97 0.97 0.0 0 1 246.56 117.58
  L 244.12 117.82
  Q 243.66 117.87 243.24 118.05
  Z"
/>
<path fill="#ababab" d="
  M 226.59 87.07
  Q 226.59 92.96 225.90 98.90
  C 225.16 105.16 219.88 111.49 222.92 118.15
  A 1.53 1.52 -52.9 0 1 223.04 119.05
  Q 222.52 121.92 224.23 124.20
  A 1.57 1.54 -62.4 0 1 224.54 125.22
  Q 223.37 151.22 223.76 177.26
  Q 219.88 176.68 219.04 173.39
  A 0.47 0.47 0.0 0 1 219.57 172.81
  L 220.93 173.03
  A 0.49 0.48 5.9 0 0 221.49 172.58
  L 221.50 172.23
  A 0.28 0.28 0.0 0 0 221.38 171.98
  Q 217.62 169.45 213.08 163.68
  C 210.97 161.00 203.79 156.25 204.03 151.31
  C 204.12 149.41 203.05 144.54 205.86 144.83
  Q 206.58 144.90 206.04 144.41
  L 202.97 141.66
  A 0.93 0.90 26.0 0 1 202.67 140.83
  Q 203.86 132.60 201.09 124.69
  Q 200.22 122.22 202.58 121.08
  Q 203.41 120.68 204.45 120.77
  A 0.63 0.63 0.0 0 0 205.11 120.33
  L 206.71 115.00
  L 206.81 136.65
  Q 206.82 140.47 210.13 138.56
  C 212.80 137.03 219.81 130.66 218.72 126.62
  A 0.33 0.32 60.7 0 0 218.18 126.46
  L 216.84 127.72
  Q 216.15 128.38 216.15 127.42
  L 216.21 102.25
  C 216.65 103.48 217.50 103.78 218.48 102.79
  Q 225.08 96.19 226.59 87.07
  Z"
/>
<path fill="#ffffff" d="
  M 375.94 109.12
  Q 372.58 100.65 374.82 91.72
  A 2.50 2.49 -88.9 0 1 376.73 89.88
  C 392.50 86.60 394.01 97.37 393.42 109.48
  C 392.97 118.77 376.68 118.03 370.65 116.70
  Q 370.01 116.56 370.53 116.16
  Q 373.74 113.71 375.84 110.25
  A 1.28 1.28 0.0 0 0 375.94 109.12
  Z"
/>
<path fill="#ababab" d="
  M 277.00 122.29
  Q 277.13 125.51 276.17 128.50
  A 1.87 1.82 48.6 0 0 276.12 129.48
  L 277.75 136.96
  L 276.00 138.29
  Q 274.62 138.60 273.93 137.72
  A 1.35 1.33 29.4 0 1 273.66 136.78
  Q 274.17 131.60 273.05 126.56
  A 0.73 0.72 83.2 0 0 272.33 125.99
  L 271.83 126.00
  A 0.58 0.58 0.0 0 0 271.27 126.51
  Q 270.32 133.42 272.79 140.00
  L 271.53 143.54
  Q 264.87 153.83 256.82 163.06
  Q 255.87 164.15 255.52 167.95
  A 1.78 1.74 67.6 0 1 255.14 168.89
  L 245.20 181.63
  A 0.34 0.34 0.0 0 1 244.62 181.54
  C 243.50 178.78 250.76 169.27 252.78 167.14
  A 0.43 0.43 0.0 0 0 252.69 166.47
  C 251.16 165.53 243.93 172.67 244.14 174.80
  Q 244.19 175.29 244.06 175.76
  C 242.19 182.20 238.52 184.45 234.57 188.53
  A 0.84 0.84 0.0 0 1 233.37 188.55
  L 226.38 181.68
  Q 230.63 178.15 233.49 173.66
  A 1.70 1.70 0.0 0 0 233.76 172.74
  Q 233.86 154.86 233.58 137.11
  C 233.54 134.69 233.86 131.54 233.70 128.62
  A 1.43 1.42 -3.0 0 1 235.06 127.12
  L 238.49 126.95
  Q 239.01 126.93 239.48 126.70
  Q 250.99 120.95 256.74 109.41
  Q 257.21 108.47 257.23 109.52
  C 257.28 112.99 256.53 118.31 258.35 121.03
  C 261.25 125.36 267.32 124.28 271.85 124.25
  C 273.93 124.24 275.27 123.25 277.00 122.29
  Z"
/>
<path fill="#0b0b0b" d="
  M 169.04 111.00
  C 159.35 122.67 141.59 127.42 127.02 126.99
  A 0.35 0.34 -78.3 0 1 126.71 126.51
  C 129.05 120.84 133.10 118.13 139.26 117.94
  Q 153.87 117.47 166.95 109.88
  Q 167.80 109.56 168.92 109.65
  A 0.57 0.56 3.6 0 1 169.45 110.24
  Q 169.43 110.64 169.04 111.00
  Z"
/>
<path fill="#bdbdbd" d="
  M 278.21 121.50
  Q 278.50 124.16 280.40 125.91
  A 0.74 0.73 -38.7 0 0 281.25 126.00
  Q 282.18 125.48 282.49 124.45
  Q 282.73 123.66 283.03 124.44
  L 284.75 129.01
  A 0.87 0.87 0.0 0 1 284.32 130.09
  L 284.07 130.22
  A 1.30 1.29 85.1 0 0 283.42 131.00
  Q 282.36 134.50 279.39 136.72
  A 1.39 1.36 -61.1 0 1 278.45 137.00
  L 277.75 136.96
  L 276.12 129.48
  A 1.87 1.82 48.6 0 1 276.17 128.50
  Q 277.13 125.51 277.00 122.29
  L 278.21 121.50
  Z"
/>
<path fill="#bdbdbd" d="
  M 276.00 138.29
  C 276.02 139.93 275.79 141.14 276.12 142.79
  Q 276.90 146.69 276.36 150.75
  Q 276.26 151.48 275.69 151.01
  Q 273.68 149.35 274.74 146.78
  A 1.14 1.13 42.2 0 0 274.69 145.82
  C 273.74 144.03 274.75 140.50 272.79 140.00
  Q 270.32 133.42 271.27 126.51
  A 0.58 0.58 0.0 0 1 271.83 126.00
  L 272.33 125.99
  A 0.73 0.72 83.2 0 1 273.05 126.56
  Q 274.17 131.60 273.66 136.78
  A 1.35 1.33 29.4 0 0 273.93 137.72
  Q 274.62 138.60 276.00 138.29
  Z"
/>
<path fill="#d6d6d6" d="
  M 191.92 136.11
  L 195.94 137.49
  Q 196.40 137.65 196.75 138.00
  L 201.57 142.81
  A 1.23 1.22 22.2 0 1 201.93 143.65
  C 201.96 146.87 200.68 147.88 202.11 151.34
  A 0.61 0.61 0.0 0 1 201.87 152.08
  L 200.50 152.96
  Q 198.97 152.67 198.61 151.16
  A 0.50 0.50 0.0 0 0 197.78 150.91
  C 196.30 152.29 194.92 153.38 192.88 154.02
  Q 181.19 157.68 170.99 164.48
  A 0.43 0.42 61.7 0 1 170.36 164.29
  C 169.67 162.57 174.97 156.49 176.14 154.88
  Q 178.22 153.21 179.73 151.05
  Q 182.45 147.17 182.74 146.82
  Q 187.26 141.42 191.92 136.11
  Z"
/>
<path fill="#0b0b0b" d="
  M 176.14 154.88
  C 174.97 156.49 169.67 162.57 170.36 164.29
  A 0.43 0.42 61.7 0 0 170.99 164.48
  Q 181.19 157.68 192.88 154.02
  C 194.92 153.38 196.30 152.29 197.78 150.91
  A 0.50 0.50 0.0 0 1 198.61 151.16
  Q 198.97 152.67 200.50 152.96
  C 202.34 153.82 200.15 155.65 199.52 156.47
  A 1.67 1.64 -27.4 0 0 199.18 157.50
  L 199.43 173.02
  A 1.36 1.36 0.0 0 0 201.21 174.29
  L 205.81 172.81
  A 0.43 0.43 0.0 0 1 206.37 173.20
  C 206.47 174.99 203.16 178.07 202.21 179.02
  Q 200.90 180.34 201.21 182.17
  Q 203.27 194.36 211.07 203.88
  A 1.91 1.90 44.9 0 1 211.08 206.28
  Q 207.65 210.54 203.19 213.69
  A 0.80 0.79 -35.6 0 1 202.09 213.51
  L 198.29 208.25
  Q 193.38 199.56 191.76 190.87
  Q 191.41 189.00 190.51 190.68
  Q 186.07 198.96 182.14 207.34
  C 177.66 216.91 170.81 223.48 161.80 228.97
  Q 160.25 229.91 161.02 228.27
  C 163.28 223.39 168.25 221.24 171.53 217.04
  Q 172.97 215.20 174.82 211.06
  Q 181.09 197.00 190.50 184.79
  Q 190.90 184.27 190.26 184.41
  Q 180.37 186.54 170.25 185.91
  A 1.00 1.00 0.0 0 0 169.19 186.93
  C 169.28 190.87 168.53 204.39 170.95 206.88
  A 1.15 1.13 46.1 0 1 170.93 208.50
  L 163.76 215.45
  Q 161.92 217.24 160.92 214.87
  Q 159.92 212.51 159.94 209.00
  Q 160.03 194.25 159.96 179.50
  L 161.15 171.32
  Q 161.20 170.99 160.92 171.18
  L 149.92 178.70
  Q 148.46 179.69 148.67 181.44
  L 150.25 194.79
  L 151.57 201.51
  A 1.34 1.31 -35.8 0 1 151.41 202.42
  Q 148.27 207.65 143.25 211.21
  Q 142.71 211.46 142.22 211.40
  A 0.56 0.55 1.3 0 1 141.74 210.90
  L 140.80 202.05
  Q 140.70 201.17 140.03 201.73
  C 127.17 212.38 115.01 212.48 98.54 212.21
  Q 97.60 212.20 98.25 211.51
  Q 100.77 208.87 101.37 205.32
  Q 101.54 204.30 100.79 205.02
  C 98.13 207.57 93.08 213.38 89.65 213.92
  C 86.09 214.48 84.48 211.38 84.47 208.13
  Q 84.40 188.90 88.00 169.91
  Q 88.22 168.77 87.57 169.73
  Q 84.40 174.43 80.86 179.16
  C 79.41 181.09 79.02 181.19 80.78 183.00
  A 1.89 1.89 0.0 0 1 81.04 185.30
  Q 78.23 189.88 73.34 192.30
  A 1.03 1.03 0.0 0 1 72.28 192.20
  L 71.15 191.36
  A 0.64 0.64 0.0 0 0 70.25 191.48
  Q 65.96 197.09 60.47 201.50
  A 1.02 0.99 -21.7 0 0 60.09 202.34
  C 60.26 206.19 55.73 209.45 53.19 212.16
  Q 50.90 214.60 50.71 211.26
  Q 50.59 209.14 50.86 205.18
  Q 52.11 186.98 51.68 168.65
  Q 51.64 167.01 52.68 165.74
  L 56.94 160.47
  A 1.43 1.43 0.0 0 0 57.25 159.58
  L 57.25 154.84
  A 1.63 1.61 63.6 0 1 57.57 153.87
  Q 60.87 149.47 65.57 146.66
  A 0.45 0.44 69.6 0 1 66.24 146.97
  Q 69.09 163.44 76.76 178.26
  A 0.37 0.37 0.0 0 0 77.39 178.30
  Q 83.01 170.15 88.50 161.72
  C 92.65 155.36 92.10 148.96 100.06 145.24
  A 0.80 0.79 72.6 0 1 101.18 145.83
  C 101.32 146.67 101.38 148.02 101.01 148.95
  Q 97.48 157.75 96.37 167.29
  Q 96.27 168.13 96.71 167.40
  C 104.81 153.98 123.35 146.54 138.17 144.77
  A 3.23 3.20 -27.9 0 1 140.65 145.52
  C 143.46 147.94 135.08 154.50 133.40 155.91
  A 0.63 0.62 -42.9 0 1 132.55 155.88
  L 131.28 154.62
  A 1.36 1.33 -21.0 0 0 130.38 154.23
  C 123.51 153.99 113.88 157.49 108.74 160.30
  Q 105.10 162.29 107.90 165.96
  A 0.42 0.42 0.0 0 0 108.56 165.98
  Q 110.70 163.38 113.60 161.61
  Q 117.15 159.44 115.15 163.09
  Q 112.81 167.35 112.20 172.20
  A 0.77 0.77 0.0 0 0 113.21 173.03
  Q 121.81 170.24 130.69 168.96
  Q 135.90 168.21 132.47 172.20
  Q 129.39 175.77 125.57 178.46
  A 1.69 1.63 27.1 0 1 124.58 178.76
  Q 118.54 178.58 112.69 180.09
  A 1.83 1.82 -7.7 0 0 111.32 181.88
  L 111.52 202.25
  A 0.49 0.48 -87.3 0 0 111.94 202.72
  Q 126.62 204.55 139.64 198.04
  A 0.72 0.72 0.0 0 0 140.04 197.35
  L 139.35 184.71
  A 0.31 0.31 0.0 0 0 138.92 184.44
  C 136.42 185.42 128.96 189.06 126.68 188.78
  A 0.90 0.82 -69.2 0 1 126.15 187.43
  Q 130.69 180.21 138.98 178.36
  A 0.62 0.61 -6.5 0 0 139.46 177.76
  C 139.58 167.83 136.28 155.46 148.17 150.59
  A 0.42 0.42 0.0 0 1 148.75 150.98
  L 148.75 173.29
  A 0.52 0.52 0.0 0 0 149.52 173.75
  L 161.41 167.23
  A 0.92 0.91 -14.4 0 0 161.89 166.43
  Q 162.02 155.48 171.42 149.86
  Q 174.02 148.30 176.41 149.92
  A 0.82 0.81 21.5 0 1 176.76 150.72
  L 176.14 154.88
  Z
  M 169.52 173.04
  C 171.37 178.21 184.03 176.85 189.52 176.64
  A 0.46 0.46 0.0 0 0 189.96 176.14
  L 188.88 163.18
  A 0.85 0.85 0.0 0 0 187.79 162.44
  Q 179.50 164.94 171.60 168.54
  C 169.60 169.45 168.79 171.01 169.52 173.04
  Z
  M 98.66 183.58
  L 100.08 180.80
  A 1.44 1.39 54.6 0 0 100.21 179.95
  Q 99.30 174.54 96.24 169.89
  Q 95.97 169.46 95.91 169.97
  C 95.44 174.21 92.07 201.91 95.08 203.93
  A 1.48 1.47 -60.6 0 0 97.24 203.32
  C 98.54 200.53 105.78 183.78 99.03 184.14
  Q 98.35 184.18 98.66 183.58
  Z
  M 61.00 173.25
  C 61.05 180.84 60.37 187.98 60.27 195.76
  A 0.40 0.39 -13.6 0 0 60.85 196.11
  Q 65.49 193.65 68.31 189.13
  A 0.79 0.78 45.9 0 0 68.32 188.32
  Q 64.19 181.09 61.49 173.21
  Q 61.43 173.03 61.28 173.01
  A 0.24 0.24 0.0 0 0 61.00 173.25
  Z"
/>
<path fill="#d6d6d6" d="
  M 169.52 173.04
  C 168.79 171.01 169.60 169.45 171.60 168.54
  Q 179.50 164.94 187.79 162.44
  A 0.85 0.85 0.0 0 1 188.88 163.18
  L 189.96 176.14
  A 0.46 0.46 0.0 0 1 189.52 176.64
  C 184.03 176.85 171.37 178.21 169.52 173.04
  Z"
/>
<path fill="#ffffff" d="
  M 99.03 184.14
  C 105.78 183.78 98.54 200.53 97.24 203.32
  A 1.48 1.47 -60.6 0 1 95.08 203.93
  C 92.07 201.91 95.44 174.21 95.91 169.97
  Q 95.97 169.46 96.24 169.89
  Q 99.30 174.54 100.21 179.95
  A 1.44 1.39 54.6 0 1 100.08 180.80
  L 98.66 183.58
  Q 98.35 184.18 99.03 184.14
  Z"
/>
<path fill="#ffffff" d="
  M 159.96 179.50
  Q 154.65 186.85 150.25 194.79
  L 148.67 181.44
  Q 148.46 179.69 149.92 178.70
  L 160.92 171.18
  Q 161.20 170.99 161.15 171.32
  L 159.96 179.50
  Z"
/>
<path fill="#ffffff" d="
  M 60.27 195.76
  C 60.37 187.98 61.05 180.84 61.00 173.25
  A 0.24 0.24 0.0 0 1 61.28 173.01
  Q 61.43 173.03 61.49 173.21
  Q 64.19 181.09 68.32 188.32
  A 0.79 0.78 45.9 0 1 68.31 189.13
  Q 65.49 193.65 60.85 196.11
  A 0.40 0.39 -13.6 0 1 60.27 195.76
  Z"
/>
<path fill="#d6d6d6" d="
  M 159.96 179.50
  Q 160.03 194.25 159.94 209.00
  Q 159.92 212.51 160.92 214.87
  Q 161.92 217.24 163.76 215.45
  L 170.93 208.50
  A 1.15 1.13 46.1 0 0 170.95 206.88
  C 168.53 204.39 169.28 190.87 169.19 186.93
  A 1.00 1.00 0.0 0 1 170.25 185.91
  Q 180.37 186.54 190.26 184.41
  Q 190.90 184.27 190.50 184.79
  Q 181.09 197.00 174.82 211.06
  Q 172.97 215.20 171.53 217.04
  C 168.25 221.24 163.28 223.39 161.02 228.27
  Q 160.25 229.91 161.80 228.97
  C 170.81 223.48 177.66 216.91 182.14 207.34
  Q 186.07 198.96 190.51 190.68
  Q 191.41 189.00 191.76 190.87
  Q 193.38 199.56 198.29 208.25
  Q 198.15 209.10 197.21 209.10
  A 0.43 0.43 0.0 0 0 196.78 209.57
  Q 197.83 224.77 197.07 240.00
  L 122.94 240.00
  Q 122.34 239.95 121.99 239.51
  A 0.70 0.69 -46.6 0 1 121.97 238.67
  C 126.07 232.99 130.51 228.07 134.08 221.82
  C 134.64 220.84 138.69 213.36 139.97 213.83
  A 0.54 0.54 0.0 0 1 140.25 214.62
  L 132.22 227.94
  A 0.28 0.28 0.0 0 0 132.40 228.35
  C 138.24 229.67 142.65 217.08 143.88 212.26
  A 0.76 0.75 -64.3 0 0 143.61 211.48
  L 143.25 211.21
  Q 148.27 207.65 151.41 202.42
  A 1.34 1.31 -35.8 0 0 151.57 201.51
  L 150.25 194.79
  Q 154.65 186.85 159.96 179.50
  Z
  M 157.3006 196.0406
  A 0.44 0.44 0.0 0 0 157.0515 195.4704
  L 156.6232 195.3026
  A 0.44 0.44 0.0 0 0 156.0530 195.5517
  L 153.6594 201.6594
  A 0.44 0.44 0.0 0 0 153.9085 202.2296
  L 154.3368 202.3974
  A 0.44 0.44 0.0 0 0 154.9070 202.1483
  L 157.3006 196.0406
  Z"
/>
<path fill="#ffffff" d="
  M 331.33 187.29
  A 1.22 1.21 -4.1 0 1 332.48 185.97
  Q 334.88 185.83 335.71 187.94
  A 0.52 0.52 0.0 0 1 335.33 188.64
  L 332.11 189.27
  A 0.53 0.53 0.0 0 1 331.48 188.80
  L 331.33 187.29
  Z"
/>
<path fill="#d6d6d6" d="
  M 253.48 202.32
  L 252.50 203.41
  Q 252.01 203.96 251.88 203.23
  L 251.69 202.10
  A 0.90 0.89 -84.8 0 0 251.13 201.42
  Q 248.60 200.48 249.60 197.93
  A 0.80 0.79 -56.5 0 0 249.43 197.07
  Q 248.18 195.81 249.19 194.37
  A 0.61 0.61 0.0 0 0 249.11 193.56
  L 244.93 189.61
  A 0.41 0.40 -41.6 0 1 244.97 188.99
  C 245.75 188.40 254.31 195.34 255.36 196.25
  Q 256.84 197.53 255.68 199.11
  C 252.82 203.02 257.41 203.35 257.67 206.23
  Q 257.71 206.75 257.25 206.51
  L 255.24 205.47
  A 0.77 0.75 8.4 0 1 254.84 204.94
  L 254.38 202.57
  Q 254.19 201.54 253.48 202.32
  Z"
/>
<path fill="#d6d6d6" d="
  M 279.75 222.71
  C 281.47 224.26 299.11 238.59 290.69 240.00
  L 287.19 240.00
  L 278.87 233.89
  Q 278.15 233.36 278.06 234.25
  L 277.44 240.00
  L 208.19 240.00
  Q 207.36 231.88 207.74 223.71
  A 0.49 0.49 0.0 0 0 207.33 223.20
  Q 207.18 223.18 207.00 223.21
  L 211.47 218.10
  Q 211.81 217.72 211.66 218.21
  C 211.34 219.27 209.13 224.00 209.69 224.58
  A 0.42 0.42 0.0 0 0 210.33 224.54
  C 212.59 221.53 213.85 217.54 215.33 214.91
  C 221.51 203.83 226.21 197.77 233.60 190.40
  A 1.06 1.06 0.0 0 1 235.18 190.50
  Q 240.17 196.87 246.67 201.30
  Q 249.67 203.34 251.63 205.49
  C 257.06 211.45 263.95 217.13 268.58 223.60
  Q 272.45 229.03 278.04 232.76
  A 0.40 0.40 0.0 0 0 278.64 232.56
  Q 280.32 227.72 279.75 222.71
  Z"
/>
<path fill="#ffffff" d="
  M 332.25 192.51
  A 0.82 0.82 0.0 0 1 332.64 191.14
  L 335.37 190.46
  A 0.89 0.87 62.8 0 1 336.27 190.76
  C 337.34 192.11 344.54 199.30 343.54 200.33
  A 0.70 0.69 -53.5 0 1 342.71 200.46
  Q 336.84 197.33 332.25 192.51
  Z"
/>
<rect fill="#ffffff" x="-0.67" y="-3.72" transform="translate(155.48,198.85) rotate(21.4)" width="1.34" height="7.44" rx="0.44"/>
<ellipse fill="#d6d6d6" cx="0.00" cy="0.00" transform="translate(259.01,202.67) rotate(79.1)" rx="1.73" ry="1.14"/>
<path fill="#ffffff" d="
  M 287.99 221.85
  C 291.61 223.80 301.84 229.54 298.94 234.76
  A 0.30 0.30 0.0 0 1 298.52 234.87
  Q 294.87 232.57 292.19 229.22
  Q 291.85 228.79 291.35 228.55
  Q 288.55 227.25 286.57 224.91
  A 1.81 1.73 -70.1 0 1 286.17 224.00
  L 285.62 219.67
  Q 285.49 218.62 286.10 219.49
  L 287.35 221.28
  Q 287.60 221.64 287.99 221.85
  Z"
/>
<path fill="#ffffff" d="
  M 305.94 240.00
  L 290.69 240.00
  C 299.11 238.59 281.47 224.26 279.75 222.71
  Q 278.86 221.74 278.52 220.48
  C 281.17 219.60 289.47 228.34 292.29 231.22
  C 295.25 234.23 298.32 234.30 299.85 239.03
  A 0.75 0.75 0.0 0 0 300.49 239.55
  L 305.94 240.00
  Z"
/>
<path fill="#ffffff" d="
  M 207.00 223.21
  Q 207.18 223.18 207.33 223.20
  A 0.49 0.49 0.0 0 1 207.74 223.71
  Q 207.36 231.88 208.19 240.00
  L 204.09 240.05
  Q 204.30 231.40 207.00 223.21
  Z"
/>
<path fill="#ffffff" d="
  M 287.19 240.00
  L 277.44 240.00
  L 278.06 234.25
  Q 278.15 233.36 278.87 233.89
  L 287.19 240.00
  Z"
/>
</svg>
