<?xml version="1.0" encoding="UTF-8" standalone="no"?>
<!-- Created with Inkscape (http://www.inkscape.org/) -->

<svg
   xmlns:dc="http://purl.org/dc/elements/1.1/"
   xmlns:cc="http://creativecommons.org/ns#"
   xmlns:rdf="http://www.w3.org/1999/02/22-rdf-syntax-ns#"
   xmlns:svg="http://www.w3.org/2000/svg"
   xmlns="http://www.w3.org/2000/svg"
   xmlns:sodipodi="http://sodipodi.sourceforge.net/DTD/sodipodi-0.dtd"
   xmlns:inkscape="http://www.inkscape.org/namespaces/inkscape"
   width="400"
   height="600"
   viewBox="0 0 105.83333 158.75"
   version="1.1"
   id="svg8"
   inkscape:version="0.92.4 (5da689c313, 2019-01-14)"
   sodipodi:docname="21_m.svg">
  <defs
     id="defs2" />
  <sodipodi:namedview
     id="base"
     pagecolor="#ffffff"
     bordercolor="#666666"
     borderopacity="1.0"
     inkscape:pageopacity="0.0"
     inkscape:pageshadow="2"
     inkscape:zoom="1.2816667"
     inkscape:cx="200"
     inkscape:cy="362.41873"
     inkscape:document-units="mm"
     inkscape:current-layer="layer1"
     showgrid="false"
     units="px"
     showguides="true"
     inkscape:guide-bbox="true"
     inkscape:window-width="1280"
     inkscape:window-height="968"
     inkscape:window-x="0"
     inkscape:window-y="0"
     inkscape:window-maximized="1">
    <sodipodi:guide
       position="20.78869,60.476191"
       orientation="1,0"
       id="guide859"
       inkscape:locked="false" />
    <sodipodi:guide
       position="20.78869,128.88988"
       orientation="1,0"
       id="guide863"
       inkscape:locked="false" />
    <sodipodi:guide
       position="12.85119,57.641369"
       orientation="1,0"
       id="guide865"
       inkscape:locked="false" />
    <sodipodi:guide
       position="32.339612,108.51143"
       orientation="0,1"
       id="guide867"
       inkscape:locked="false" />
    <sodipodi:guide
       position="-9.0871638,97.553376"
       orientation="0,1"
       id="guide2596"
       inkscape:locked="false" />
    <sodipodi:guide
       position="-16.036171,64.144687"
       orientation="0,1"
       id="guide2598"
       inkscape:locked="false" />
  </sodipodi:namedview>
  <metadata
     id="metadata5">
    <rdf:RDF>
      <cc:Work
         rdf:about="">
        <dc:format>image/svg+xml</dc:format>
        <dc:type
           rdf:resource="http://purl.org/dc/dcmitype/StillImage" />
        <dc:title></dc:title>
      </cc:Work>
    </rdf:RDF>
  </metadata>
  <g
     inkscape:label="Layer 1"
     inkscape:groupmode="layer"
     id="layer1"
     transform="translate(0,-138.24998)">
    <rect
       style="opacity:1;fill:#ffffff;fill-opacity:0.60101007;stroke:#000000;stroke-width:0.27790931;stroke-miterlimit:4;stroke-dasharray:none;stroke-dashoffset:0;stroke-opacity:1"
       id="rect10"
       width="105.4538"
       height="158.75175"
       x="0.17799145"
       y="138.24911"
       ry="7.9375877" />
    <flowRoot
       xml:space="preserve"
       id="flowRoot851"
       style="fill:black;fill-opacity:1;stroke:none;font-family:sans-serif;font-style:normal;font-weight:normal;font-size:40px;line-height:0;letter-spacing:0px;word-spacing:0px"><flowRegion
         id="flowRegion853"><rect
           id="rect855"
           width="114.28571"
           height="65.714287"
           x="47.142857"
           y="194.28572" /></flowRegion><flowPara
         id="flowPara857" /></flowRoot>    <text
       xml:space="preserve"
       style="font-style:normal;font-weight:normal;font-size:33.90801239px;line-height:0;font-family:sans-serif;letter-spacing:0px;word-spacing:0px;fill:#666666;fill-opacity:1;stroke:none;stroke-width:0.84770024"
       x="19.838701"
       y="174.63515"
       id="text827"><tspan
         sodipodi:role="line"
         id="tspan825"
         x="19.838701"
         y="174.63515"
         style="font-style:normal;font-variant:normal;font-weight:bold;font-stretch:normal;font-family:Arsenal;-inkscape-font-specification:'Arsenal Bold';fill:#666666;stroke-width:0.84770024">21</tspan></text>
    <g
       id="g26458"
       transform="matrix(0.2187088,0,0,0.2187088,7.4087114,176.05841)">
      <g
         id="g26198"
         style="fill:none;stroke-width:2;stroke-linecap:butt">
        <path
           id="path26006"
           d="m 65.06,0 c -0.2,2.38 0.83,4.92 -0.27,7.17 A 0.64,0.63 19.5 0 1 64.07,7.51 Q 60.49,6.64 58.9,5.36 C 57.25,4.04 50.96,-0.4 48.95,0.32 q -0.51,0.18 -0.06,0.47 6.68,4.33 12.09,10.1 c 4.3,4.57 8.03,6.89 13.24,9.5 a 0.65,0.65 0 0 1 0.35,0.7 c -1.02,4.99 7.57,9.76 11.79,11.49 a 0.48,0.47 -70.9 0 0 0.63,-0.31 c 0.58,-1.98 -1.58,-1.75 -1.76,-2.56 a 0.31,0.31 0 0 1 0.23,-0.36 c 4.79,-1.06 5.52,1.86 8.26,3.99 q 7.31,5.67 14.34,11.68 c 5.17,4.42 12.51,9.84 18.27,15.41 a 1.4,1.36 -72.3 0 1 0.42,0.84 c 0.33,2.67 4.31,8.05 6.04,10.23"
           inkscape:connector-curvature="0"
           style="vector-effect:non-scaling-stroke;stroke:#ebebeb" />
        <path
           id="path26008"
           d="m 132.79,71.5 c -3.72,3.72 -9.31,10.1 -9.98,16.17 -0.21,1.88 0.58,4.18 1.08,6.09 2.78,10.51 -5.75,20.89 -16.33,21.53 -6.74,0.41 -16.67,1.12 -16.66,-8.11 q 0.04,-18.39 9.93,-33.63 c 3.24,-4.99 6.89,-6.29 12.51,-4.91 q 2.23,0.54 2.23,2.85 -0.01,4.23 -2.71,8.23 c -0.45,0.67 -0.53,1.88 -0.13,2.49 a 0.92,0.91 -30.8 0 0 1.2,0.3 q 11.36,-6.15 11.29,-19.31 -0.01,-2.65 -2.52,-3.54 -6.02,-2.14 -12.41,1.34"
           inkscape:connector-curvature="0"
           style="vector-effect:non-scaling-stroke;stroke:#858585" />
        <path
           id="path26010"
           d="M 110.29,61 Q 109.14,58.46 108.23,57.76 95.46,47.92 83.51,37.09 c -2.44,-2.2 -5.91,-4.05 -8.5,-6.78 A 0.99,0.98 -21.2 0 0 74.29,30 l -0.25,-0.01 q -0.8,-0.01 -0.36,0.66 c 3.37,5.18 6.56,9.7 11.45,13.81 6.16,5.18 13.34,12.34 20.8,16.87 q 0.66,0.4 1.36,1.67"
           inkscape:connector-curvature="0"
           style="vector-effect:non-scaling-stroke;stroke:#ebebeb" />
        <path
           id="path26012"
           d="M 107.29,63 C 98.57,69.8 94.84,76.09 89.28,84.14 q -0.29,0.41 -0.34,-0.09 C 87.97,75.41 87.75,70.16 84.75,64 81.58,57.49 70.89,61.75 66.24,64.03 q -0.44,0.22 -0.21,-0.22 1.28,-2.42 2.66,-4.8 c 4.64,-8.03 5.48,-16.73 3.86,-26.08 -2.1,-12.1 -16.56,-3.32 -22.51,0.09 -5.37,3.07 -8.55,9.29 -11.68,14.41 q -1.33,2.17 0.98,1.08 1.28,-0.61 2.24,-1.66 0.71,-0.78 0.73,0.28 c 0.31,17.23 -1.02,30.4 -0.8,51.81 a 1.2,1.2 0 0 1 -0.34,0.86 c -5.95,6.19 -9.78,11.43 -6.88,20.68 2.5,7.98 7.61,10.63 15.93,9.77 14.08,-1.46 20.79,-7.78 30.72,-16.95 q 0.37,-0.34 0.4,0.16 c 0.39,5.38 0.65,10.08 7.25,10.7 4.74,0.44 11.37,0.67 16.1,-0.98 10,-3.5 16.85,-10.5 23.28,-18.65 a 0.65,0.64 -57.3 0 1 0.8,-0.18 c 0.14,0.07 1.11,9.71 1.6,11.14 q 0.74,2.15 2.65,0.9 c 3.24,-2.12 9.49,-7.62 8.27,-11.85 q -2.35,-8.08 -2.66,-12.5"
           inkscape:connector-curvature="0"
           style="vector-effect:non-scaling-stroke;stroke:#858585" />
        <path
           id="path26014"
           d="m 138.63,92.04 q 2.95,3.38 7,4.46 a 0.61,0.6 -80.6 0 1 0.44,0.62 c -0.18,2.82 2.43,4.44 5.07,5.99 a 0.48,0.47 -69.4 0 0 0.7,-0.32 l 0.39,-1.84 q 0.19,-0.93 0.83,-0.22 3.56,3.93 8.24,6.57 0.55,0.31 0.23,-0.24 -3.11,-5.47 -7.9,-9.46 -0.42,-0.34 -0.6,-0.85 -1.34,-3.57 -3.95,-6.39 a 1.36,1.36 0 0 1 -0.35,-0.96 l 0.02,-0.65 A 0.26,0.25 -88.8 0 1 149,88.5 l 0.47,-0.01 a 1.27,1.26 63.6 0 1 0.82,0.28 l 5.08,4.07 a 0.7,0.69 43.6 0 0 0.88,-0.02 l 1.44,-1.22 q 0.54,-0.47 0.6,0.25 c 0.22,2.92 1.85,5.13 2.54,7.79 q 1.52,5.9 6.12,10.24"
           inkscape:connector-curvature="0"
           style="vector-effect:non-scaling-stroke;stroke:#ebebeb" />
        <path
           id="path26016"
           d="m 166.95,109.88 q -13.08,7.59 -27.69,8.06 c -6.16,0.19 -10.21,2.9 -12.55,8.57 a 0.35,0.34 -78.3 0 0 0.31,0.48 c 14.57,0.43 32.33,-4.32 42.02,-15.99"
           inkscape:connector-curvature="0"
           style="vector-effect:non-scaling-stroke;stroke:#858585" />
        <path
           id="path26018"
           d="m 169.04,111 c 6.17,4.85 15.8,11.95 19.56,19.58 a 1.07,1.07 0 0 0 0.66,0.55 l 1.41,0.4 a 0.67,0.66 5.9 0 1 0.48,0.58 q 0.14,1.53 0.89,2.89"
           inkscape:connector-curvature="0"
           style="vector-effect:non-scaling-stroke;stroke:#ebebeb" />
        <path
           id="path26020"
           d="m 192.04,135 -0.12,1.11"
           inkscape:connector-curvature="0"
           style="vector-effect:non-scaling-stroke;stroke:#dedede" />
        <path
           id="path26022"
           d="m 191.92,136.11 q -4.66,5.31 -9.18,10.71 -0.29,0.35 -3.01,4.23 -1.51,2.16 -3.59,3.83"
           inkscape:connector-curvature="0"
           style="vector-effect:non-scaling-stroke;stroke:#ebebeb" />
        <path
           id="path26024"
           d="m 176.14,154.88 0.62,-4.16 a 0.82,0.81 21.5 0 0 -0.35,-0.8 q -2.39,-1.62 -4.99,-0.06 -9.4,5.62 -9.53,16.57 a 0.92,0.91 -14.4 0 1 -0.48,0.8 l -11.89,6.52 a 0.52,0.52 0 0 1 -0.77,-0.46 v -22.31 a 0.42,0.42 0 0 0 -0.58,-0.39 c -11.89,4.87 -8.59,17.24 -8.71,27.17 a 0.62,0.61 -6.5 0 1 -0.48,0.6 q -8.29,1.85 -12.83,9.07 a 0.9,0.82 -69.2 0 0 0.53,1.35 c 2.28,0.28 9.74,-3.36 12.24,-4.34 a 0.31,0.31 0 0 1 0.43,0.27 l 0.69,12.64 a 0.72,0.72 0 0 1 -0.4,0.69 q -13.02,6.51 -27.7,4.68 a 0.49,0.48 -87.3 0 1 -0.42,-0.47 l -0.2,-20.37 a 1.83,1.82 -7.7 0 1 1.37,-1.79 q 5.85,-1.51 11.89,-1.33 a 1.69,1.63 27.1 0 0 0.99,-0.3 q 3.82,-2.69 6.9,-6.26 3.43,-3.99 -1.78,-3.24 -8.88,1.28 -17.48,4.07 a 0.77,0.77 0 0 1 -1.01,-0.83 q 0.61,-4.85 2.95,-9.11 2,-3.65 -1.55,-1.48 -2.9,1.77 -5.04,4.37 a 0.42,0.42 0 0 1 -0.66,-0.02 q -2.8,-3.67 0.84,-5.66 c 5.14,-2.81 14.77,-6.31 21.64,-6.07 a 1.36,1.33 -21 0 1 0.9,0.39 l 1.27,1.26 a 0.63,0.62 -42.9 0 0 0.85,0.03 c 1.68,-1.41 10.06,-7.97 7.25,-10.39 a 3.23,3.2 -27.9 0 0 -2.48,-0.75 c -14.82,1.77 -33.36,9.21 -41.46,22.63 q -0.44,0.73 -0.34,-0.11 1.11,-9.54 4.64,-18.34 c 0.37,-0.93 0.31,-2.28 0.17,-3.12 a 0.8,0.79 72.6 0 0 -1.12,-0.59 c -7.96,3.72 -7.41,10.12 -11.56,16.48 q -5.49,8.43 -11.11,16.58 a 0.37,0.37 0 0 1 -0.63,-0.04 Q 69.09,163.44 66.24,146.97 a 0.45,0.44 69.6 0 0 -0.67,-0.31 q -4.7,2.81 -8,7.21 a 1.63,1.61 63.6 0 0 -0.32,0.97 v 4.74 a 1.43,1.43 0 0 1 -0.31,0.89 l -4.26,5.27 q -1.04,1.27 -1,2.91 0.43,18.33 -0.82,36.53 -0.27,3.96 -0.15,6.08 0.19,3.34 2.48,0.9 c 2.54,-2.71 7.07,-5.97 6.9,-9.82 a 1.02,0.99 -21.7 0 1 0.38,-0.84 q 5.49,-4.41 9.78,-10.02 a 0.64,0.64 0 0 1 0.9,-0.12 l 1.13,0.84 a 1.03,1.03 0 0 0 1.06,0.1 q 4.89,-2.42 7.7,-7 A 1.89,1.89 0 0 0 80.78,183 c -1.76,-1.81 -1.37,-1.91 0.08,-3.84 q 3.54,-4.73 6.71,-9.43 0.65,-0.96 0.43,0.18 -3.6,18.99 -3.53,38.22 c 0.01,3.25 1.62,6.35 5.18,5.79 3.43,-0.54 8.48,-6.35 11.14,-8.9 q 0.75,-0.72 0.58,0.3 -0.6,3.55 -3.12,6.19 -0.65,0.69 0.29,0.7 c 16.47,0.27 28.63,0.17 41.49,-10.48 q 0.67,-0.56 0.77,0.32 l 0.94,8.85 a 0.56,0.55 1.3 0 0 0.48,0.5 q 0.49,0.06 1.03,-0.19"
           inkscape:connector-curvature="0"
           style="vector-effect:non-scaling-stroke;stroke:#858585" />
        <path
           id="path26026"
           d="m 143.25,211.21 0.36,0.27 a 0.76,0.75 -64.3 0 1 0.27,0.78 c -1.23,4.82 -5.64,17.41 -11.48,16.09 a 0.28,0.28 0 0 1 -0.18,-0.41 l 8.03,-13.32 a 0.54,0.54 0 0 0 -0.28,-0.79 c -1.28,-0.47 -5.33,7.01 -5.89,7.99 -3.57,6.25 -8.01,11.17 -12.11,16.85 a 0.7,0.69 -46.6 0 0 0.02,0.84 q 0.35,0.44 0.95,0.49"
           inkscape:connector-curvature="0"
           style="vector-effect:non-scaling-stroke;stroke:#ebebeb" />
        <path
           id="path26028"
           d="m 154.81,0 c 5.69,0.47 6.05,6.48 9.32,9.86 3.72,3.87 8.71,9.99 11.66,8.39"
           inkscape:connector-curvature="0"
           style="vector-effect:non-scaling-stroke;stroke:#ebebeb" />
        <path
           id="path26030"
           d="m 175.79,18.25 1.42,3.5"
           inkscape:connector-curvature="0"
           style="vector-effect:non-scaling-stroke;stroke:#cacaca" />
        <path
           id="path26032"
           d="m 177.21,21.75 q -1.15,-1.23 -2.82,-1.09 a 0.35,0.35 0 0 0 -0.28,0.51 q 1.21,2.35 4.33,4.91 5.63,4.6 11.9,10.06 a 1.03,1.02 47.5 0 0 1.28,0.06 c 1,-0.71 -10.24,-10.68 -11.37,-11.66"
           inkscape:connector-curvature="0"
           style="vector-effect:non-scaling-stroke;stroke:#ebebeb" />
        <path
           id="path26034"
           d="m 180.25,24.54 c 1.78,0.8 1.52,-1.39 1.54,-2.29"
           inkscape:connector-curvature="0"
           style="vector-effect:non-scaling-stroke;stroke:#cacaca" />
        <path
           id="path26036"
           d="m 181.79,22.25 4.74,4.18 a 0.88,0.87 25.9 0 1 0.29,0.82 q -0.2,1.23 0.73,2.43 3.37,4.33 7.85,6.18 a 0.43,0.43 0 0 0 0.47,-0.1 l 0.17,-0.18 a 0.22,0.21 -46 0 1 0.3,-0.01 l 5.85,5.22 q 1.03,0.93 0.57,-0.38 -0.69,-1.97 0.93,-3.23 a 1.23,1.2 73.8 0 0 0.47,-0.88 c 0.27,-3.23 0.68,-11.42 5.48,-11.46 a 0.7,0.7 0 0 0 0.69,-0.57 q 0.52,-2.83 2.4,-4.95 a 0.87,0.86 -59 0 1 0.93,-0.24 c 1.8,0.61 0.69,4.3 1.75,6.16 a 0.47,0.46 60.4 0 0 0.63,0.18 L 218.48,24 a 0.59,0.59 0 0 1 0.79,0.19 l 1.33,2.05 q 0.44,0.66 0.75,-0.07 1.12,-2.57 0.52,-5.42 -0.39,-1.87 0.66,-0.27 l 0.76,1.17 a 0.61,0.6 -24.2 0 0 0.67,0.25 l 6.07,-1.74 a 0.71,0.7 -22.2 0 1 0.82,0.34 c 2.24,4.18 2.84,5.62 5.63,0.39 q 0.97,-1.83 3.01,-1.5 15.36,2.44 28.98,9.88 a 1.64,1.64 0 0 1 0.65,0.65 q 0.52,0.97 1.38,1.51 a 1.19,1.18 52.3 0 0 1,0.13 L 276.39,30 a 1.58,1.53 8 0 0 0.81,-0.59 L 295.36,3.28 A 1.43,1.41 -39.5 0 0 295.5,1.91 Q 294.99,0.71 296.31,0"
           inkscape:connector-curvature="0"
           style="vector-effect:non-scaling-stroke;stroke:#ebebeb" />
        <path
           id="path26038"
           d="m 382.56,0 0.35,0.26 a 0.51,0.49 31.3 0 1 0.16,0.62 l -3.24,6.59 a 0.51,0.5 -63.7 0 0 0.22,0.67 l 0.27,0.13 A 0.47,0.47 0 0 1 380.47,9 Q 367.81,23.47 358,39.94 c -6.22,10.46 -11.7,17.42 -19.79,25.03 q -1.15,1.08 -4.78,7.72 c -0.29,0.53 -0.17,0.96 0.36,1.2 a 0.71,0.7 30 0 0 0.84,-0.22 l 7.01,-9.4 q 0.39,-0.53 0.14,0.08 c -2.02,4.77 -5.74,8.83 -8.09,12.66 q -3.11,5.09 -6.9,9.74"
           inkscape:connector-curvature="0"
           style="vector-effect:non-scaling-stroke;stroke:#ebebeb" />
        <path
           id="path26040"
           d="m 326.79,86.75 q 1.61,-13.26 4.85,-26.45 0.64,-2.63 -2.05,-2.41 -0.99,0.08 -3.58,0.65 -15.74,3.44 -31.82,7.08 a 2.06,1.99 -74.5 0 0 -1.04,0.61 q -1.74,1.92 -4.2,2.8 A 1.02,1.01 -35.5 0 1 288,68.88 c -4.26,-3.26 -6.43,-3.18 -11.35,-4.57 a 1.49,1.45 -47.6 0 0 -0.97,0.06 l -3.62,1.51"
           inkscape:connector-curvature="0"
           style="vector-effect:non-scaling-stroke;stroke:#717171" />
        <path
           id="path26042"
           d="m 272.06,65.88 q -1.08,-4.12 -1.28,-8.32 -0.37,-7.96 -0.39,-8.25 -0.45,-7.3 1.09,-14.6 a 0.56,0.56 0 0 0 -0.4,-0.65 q -1.12,-0.32 -2.15,1.15 c -2.48,3.55 -4.5,6.86 -7.77,9.9 q -6.84,6.34 -13.34,14.21 -2.29,2.78 -1.65,5.86"
           inkscape:connector-curvature="0"
           style="vector-effect:non-scaling-stroke;stroke:#cacaca" />
        <path
           id="path26044"
           d="m 246.17,65.18 q -4.83,0.49 -8.87,3.55 -0.56,0.43 -0.56,-0.27 l 0.02,-5.27 q 0,-1.41 -1.22,-0.69 c -3.16,1.86 -7.92,5.25 -8.24,9.26 q -0.16,2 -0.06,4.06 a 1.65,1.64 59.4 0 1 -0.23,0.91 l -3.45,5.7 q -0.59,0.98 0.54,0.81 1.57,-0.22 2.22,-1.66 0.93,-2.03 0.83,0.39 -0.09,2.21 -0.56,5.1"
           inkscape:connector-curvature="0"
           style="vector-effect:non-scaling-stroke;stroke:#717171" />
        <path
           id="path26046"
           d="m 226.59,87.07 q -1.51,9.12 -8.11,15.72 c -0.98,0.99 -1.83,0.69 -2.27,-0.54"
           inkscape:connector-curvature="0"
           style="vector-effect:non-scaling-stroke;stroke:#c1c1c1" />
        <path
           id="path26048"
           d="m 216.21,102.25 q 1.01,-21.01 5.67,-42.73 0.45,-2.11 -1.63,-2.68 c -3.68,-0.99 -17.61,4.76 -21.5,6.45"
           inkscape:connector-curvature="0"
           style="vector-effect:non-scaling-stroke;stroke:#717171" />
        <path
           id="path26050"
           d="m 198.75,63.29 -0.99,-0.6 a 1,1 0 0 1 -0.47,-0.81 Q 196.92,53.39 198.26,45 198.37,44.26 198,42.79"
           inkscape:connector-curvature="0"
           style="vector-effect:non-scaling-stroke;stroke:#cacaca" />
        <path
           id="path26052"
           d="m 198,42.79 7.28,8.64 a 0.5,0.5 0 0 0 0.72,0.04 c 1.16,-1.1 -2.45,-5.44 -3.08,-6.75 q -0.22,-0.45 -0.62,-0.75 l -5.18,-3.87 a 0.25,0.24 -53.8 0 0 -0.35,0.06 q -0.11,0.15 -0.06,0.34"
           inkscape:connector-curvature="0"
           style="vector-effect:non-scaling-stroke;stroke:#ebebeb" />
        <path
           id="path26054"
           d="m 196.71,40.5 q -0.35,-0.95 0.25,-1.7 a 0.35,0.34 -62.6 0 0 -0.17,-0.55 q -0.52,-0.16 -1.04,0.29"
           inkscape:connector-curvature="0"
           style="vector-effect:non-scaling-stroke;stroke:#cacaca" />
        <path
           id="path26056"
           d="m 195.75,38.54 q -0.61,-2.31 -2.56,-2.77 a 0.36,0.35 1.1 0 0 -0.43,0.41 q 0.47,2.54 2.99,3.61"
           inkscape:connector-curvature="0"
           style="vector-effect:non-scaling-stroke;stroke:#ebebeb" />
        <path
           id="path26058"
           d="M 195.75,39.79 193.39,67"
           inkscape:connector-curvature="0"
           style="vector-effect:non-scaling-stroke;stroke:#cacaca" />
        <path
           id="path26060"
           d="m 193.39,67 q -1.9,2.22 -1.8,5 c 0.06,2.09 -1.1,3.94 -1.17,6.09 q -0.72,23.42 -0.34,46.81 a 0.43,0.42 76.7 0 0 0.61,0.38 c 3.75,-1.82 8.47,-5.46 8.52,-10.06 q 0.27,-26.11 0.02,-42.97 -0.05,-3.37 3.02,-4.04"
           inkscape:connector-curvature="0"
           style="vector-effect:non-scaling-stroke;stroke:#717171" />
        <path
           id="path26062"
           d="m 202.25,68.21 0.31,0.05 a 0.32,0.32 0 0 1 0.27,0.29 q 0.36,7.69 0.85,15.39 0.12,1.76 -1.75,4.38 a 0.78,0.76 47.7 0 0 -0.03,0.83 c 3.77,6.46 0.72,16.32 1.95,23.13 q 0.24,1.33 0.08,2.87 -0.25,2.46 -1.72,4.45 -3.12,4.25 -4.76,9.15 a 0.71,0.71 0 0 1 -0.78,0.48 L 195.22,129 a 1.35,1.34 -84.4 0 0 -1.54,1.27 q -0.12,2.63 -1.64,4.73"
           inkscape:connector-curvature="0"
           style="vector-effect:non-scaling-stroke;stroke:#cacaca" />
        <path
           id="path26064"
           d="m 169.04,111 q 0.39,-0.36 0.41,-0.76 a 0.57,0.56 3.6 0 0 -0.53,-0.59 q -1.12,-0.09 -1.97,0.23"
           inkscape:connector-curvature="0"
           style="vector-effect:non-scaling-stroke;stroke:#717171" />
        <path
           id="path26066"
           d="m 138.63,92.04 q -0.34,-0.75 -0.04,-1.73 a 0.65,0.65 0 0 1 0.62,-0.46 q 10.3,0 14.97,-9.08 a 0.38,0.38 0 0 0 -0.33,-0.55 q -7.28,-0.23 -14.09,2.4 a 0.95,0.94 79.6 0 1 -1.28,-0.89 l 0.05,-9.16 a 1.8,1.77 73.7 0 1 0.79,-1.47 q 7.84,-5.29 17.21,-6.69 2.51,-0.38 2.63,2.16 l 0.12,2.7 a 0.36,0.36 0 0 0 0.52,0.3 c 4.52,-2.28 10.58,-7.87 8.19,-13.59 a 1.66,1.65 76 0 0 -1.66,-1 c -12.11,1.08 -24.36,8.98 -33.54,16.52"
           inkscape:connector-curvature="0"
           style="vector-effect:non-scaling-stroke;stroke:#717171" />
        <path
           id="path26068"
           d="m 162.53,10.89 q -0.2,1.31 0.98,1.66 0.98,0.28 0.51,-0.62 l -0.62,-1.19 q -0.66,-1.26 -0.87,0.15"
           inkscape:connector-curvature="0"
           style="vector-effect:non-scaling-stroke;stroke:#ebebeb" />
        <path
           id="path26070"
           d="m 285.5,31.07 q -0.22,0.17 -0.33,0.4 -0.82,1.7 0.37,0.31 l 1.14,-1.35 q 0.41,-0.48 -0.21,-0.35 -0.54,0.13 -0.72,0.63 a 0.88,0.78 83.2 0 1 -0.25,0.36"
           inkscape:connector-curvature="0"
           style="vector-effect:non-scaling-stroke;stroke:#ebebeb" />
        <path
           id="path26072"
           d="m 276.46,43.75 c -0.79,-1.85 -0.91,-7.07 -1.71,-7.44 a 0.36,0.36 0 0 0 -0.51,0.32 q -0.38,12.06 0.02,24.12 0.04,1.23 1.09,1.83 a 0.45,0.45 0 0 0 0.64,-0.24 c 1.79,-5.14 -0.28,-10.11 0.26,-14.69"
           inkscape:connector-curvature="0"
           style="vector-effect:non-scaling-stroke;stroke:#cacaca" />
        <path
           id="path26074"
           d="m 276.25,47.65 6.1,-11.93 q 0.28,-0.56 -0.14,-0.1 -3.41,3.7 -5.75,8.13"
           inkscape:connector-curvature="0"
           style="vector-effect:non-scaling-stroke;stroke:#ebebeb" />
        <path
           id="path26076"
           d="m 276.25,47.65 q -0.34,-2.15 0.21,-3.9"
           inkscape:connector-curvature="0"
           style="vector-effect:non-scaling-stroke;stroke:#dedede" />
        <path
           id="path26078"
           d="m 181.79,22.25 -6.62,-6.37 q -0.55,-0.53 -0.27,0.18 l 0.89,2.19"
           inkscape:connector-curvature="0"
           style="vector-effect:non-scaling-stroke;stroke:#dedede" />
        <path
           id="path26080"
           d="m 393.69,240 q 0.79,-0.23 0.8,-1 a 0.87,0.87 0 0 0 -0.5,-0.8 q -6.4,-3.08 -7.77,-10.05 a 1.55,1.5 15.4 0 0 -0.51,-0.87 c -1.15,-0.98 -9.84,-7.7 -7.43,-9.13 a 0.67,0.66 -37.1 0 1 0.81,0.11 c 1.43,1.47 3.92,4.34 6.14,3.97 q 1.47,-0.25 0.34,-1.22 l -6.63,-5.72 q -1.06,-0.91 -0.72,0.44 0.4,1.61 -1.17,1.67 -0.51,0.02 -0.98,-0.18 l -3.23,-1.33 a 0.61,0.61 0 0 0 -0.84,0.56 v 0.77 a 0.5,0.5 0 0 1 -0.53,0.5 c -2.47,-0.14 -8.94,-14.49 -15.45,-16.52 -3.38,-1.06 -8.27,-0.23 -10.47,-3.75 q -4.9,-7.8 -12.42,-12.9 c -4.73,-3.2 -7.26,-6.43 -10.35,-10.79 -1.98,-2.77 -1.92,-6.55 -4.47,-9.08 -11.35,-11.31 -23.19,-22.51 -32.26,-35.83 A 0.81,0.8 43.4 0 1 286.02,128 q 3.55,-6.01 8.3,-11.07 c 2.39,-2.55 3.36,-5.78 5.91,-8.42 a 0.85,0.85 0 0 1 0.61,-0.26 h 0.37"
           inkscape:connector-curvature="0"
           style="vector-effect:non-scaling-stroke;stroke:#ebebeb" />
        <path
           id="path26082"
           d="m 301.21,108.25 q 0.07,7.87 0.04,15.76 -0.01,2.24 2.63,3.17 a 1.12,1.12 0 0 0 1.02,-0.15 q 5.12,-3.77 8.51,-9.13 0.63,-1.01 -0.56,-0.97 c -2.76,0.09 -2.24,-1.48 -2.29,-3.31 q -0.31,-10.7 0.23,-21.37"
           inkscape:connector-curvature="0"
           style="vector-effect:non-scaling-stroke;stroke:#858585" />
        <path
           id="path26084"
           d="m 310.79,92.25 0.91,-0.28 a 1.76,1.73 11.2 0 0 0.79,-0.52 l 3.99,-4.55 a 1.17,1.17 0 0 1 0.88,-0.4 h 1.1"
           inkscape:connector-curvature="0"
           style="vector-effect:non-scaling-stroke;stroke:#ebebeb" />
        <path
           id="path26086"
           d="m 318.46,86.5 q -2.1,14.61 -2.21,29.39 c -0.04,4.2 -2.14,7.3 -4.12,10.78 q -0.78,1.37 0.72,0.89 2.53,-0.8 4.1,-2.92 a 1.35,1.35 0 0 1 2.1,-0.08 c 2.02,2.32 2.61,3.86 6.17,3.52 3.08,-0.29 7.66,-5.82 9.51,-8.21 a 0.34,0.34 0 0 0 -0.18,-0.53 c -4.16,-1.04 -9.54,-2.51 -5.76,-8.12 q 7.98,-11.83 15.32,-23.51 0.96,-1.53 0.65,0.25 -3.18,18.39 -2.33,37.07 a 1.29,1.28 74 0 0 1.91,1.06 q 4.37,-2.46 7.48,-6.44 a 0.54,0.53 -50.5 0 1 0.77,-0.08 q 5.16,4.35 7.97,5.59 c 7.32,3.24 18.57,1 25.12,-2.48 5.3,-2.82 12.21,-9.63 14.94,-14.6 3.46,-6.29 2.75,-14.7 0.54,-21.32 -2.57,-7.74 -9.14,-6.93 -15.71,-6.26 q -0.98,0.1 -0.36,-0.67 c 4.77,-5.9 9.76,-12.01 8.4,-20.26 Q 392.58,54 386.74,54.92 365,58.37 354.99,78.05 q -0.13,0.26 -0.33,0.35 -0.56,0.26 -0.48,-0.35 l 1.34,-9.6 q 0.28,-1.96 -1.41,-0.92 -5.11,3.14 -8.05,8.58 c -6.05,11.19 -13.09,21.95 -19.67,32.32 q -1.38,2.18 -1.19,-0.39 l 1.59,-21.29"
           inkscape:connector-curvature="0"
           style="vector-effect:non-scaling-stroke;stroke:#858585" />
        <path
           id="path26088"
           d="m 180.25,24.54 -3.04,-2.79"
           inkscape:connector-curvature="0"
           style="vector-effect:non-scaling-stroke;stroke:#dedede" />
        <path
           id="path26090"
           d="m 107.29,63 3,-2"
           inkscape:connector-curvature="0"
           style="vector-effect:non-scaling-stroke;stroke:#717171" />
        <path
           id="path26092"
           d="m 52.57,36.98 a 1.17,1.16 81.4 0 0 -0.83,1.13 q 0.22,17.31 -1.1,34.62 -0.18,2.31 1.79,1.07 C 63.61,66.75 65.41,51.51 62.61,39.2 Q 62,36.51 59.25,36.3 55.79,36.03 52.57,36.98"
           inkscape:connector-curvature="0"
           style="vector-effect:non-scaling-stroke;stroke:#858585" />
        <path
           id="path26094"
           d="M 71.21,70.25 C 62.6,68.92 56.78,74.99 51.19,81.37 a 1.57,1.52 -25.2 0 0 -0.38,1.01 l -0.09,10.33 a 0.69,0.68 -87.8 0 0 0.63,0.69 c 2.28,0.19 4.57,-0.23 5.79,2.43 a 0.9,0.88 -42 0 1 -0.05,0.84 q -2.31,3.75 -5.85,6.4 a 1.23,1.22 -18.7 0 0 -0.49,0.98 v 10.86 a 1.07,1.06 19.9 0 0 0.39,0.82 l 1.15,0.92 a 0.6,0.6 0 0 1 0.05,0.89 l -2.1,2.08 a 0.45,0.45 0 0 0 0.15,0.73 q 2.94,1.2 6.92,0.73 C 74.55,119.04 80,114.17 79.58,95.94 79.43,89.37 78.86,76.95 74.87,72.18 q -1.32,-1.57 -3.66,-1.93"
           inkscape:connector-curvature="0"
           style="vector-effect:non-scaling-stroke;stroke:#858585" />
        <path
           id="path26096"
           d="m 272.06,65.88 -12.93,6.94 a 0.5,0.5 0 0 1 -0.67,-0.19 c -1.88,-3.32 -2.19,-6.71 -6.43,-7.82 -1.88,-0.49 -3.67,0.55 -5.86,0.37"
           inkscape:connector-curvature="0"
           style="vector-effect:non-scaling-stroke;stroke:#646464" />
        <path
           id="path26098"
           d="m 195.75,38.54 v 1.25"
           inkscape:connector-curvature="0"
           style="vector-effect:non-scaling-stroke;stroke:#dedede" />
        <path
           id="path26100"
           d="M 196.71,40.5 198,42.79"
           inkscape:connector-curvature="0"
           style="vector-effect:non-scaling-stroke;stroke:#dedede" />
        <path
           id="path26102"
           d="M 198.75,63.29 193.39,67"
           inkscape:connector-curvature="0"
           style="vector-effect:non-scaling-stroke;stroke:#646464" />
        <path
           id="path26104"
           d="m 318.46,86.5 3.91,-19.06 a 0.41,0.4 -89.5 0 0 -0.47,-0.48 l -8.72,1.55 a 0.8,0.79 -1 0 0 -0.65,0.67 q -1.58,11.58 -1.74,23.07"
           inkscape:connector-curvature="0"
           style="vector-effect:non-scaling-stroke;stroke:#717171" />
        <path
           id="path26106"
           d="m 301.21,108.25 q -0.01,-10.59 0.92,-24.07 c 0.45,-6.38 0.73,-8.84 4.8,-13.75 q 0.33,-0.41 -0.18,-0.28 l -13.57,3.28 a 0.65,0.65 0 0 0 -0.39,0.99 c 2.87,4.21 4.38,8.48 4.66,13.69 0.81,15.12 -6.79,25.35 -19.24,33.39"
           inkscape:connector-curvature="0"
           style="vector-effect:non-scaling-stroke;stroke:#717171" />
        <path
           id="path26108"
           d="M 278.21,121.5 277,122.29"
           inkscape:connector-curvature="0"
           style="vector-effect:non-scaling-stroke;stroke:#646464" />
        <path
           id="path26110"
           d="m 277,122.29 c -1.73,0.96 -3.07,1.95 -5.15,1.96 -4.53,0.03 -10.6,1.11 -13.5,-3.22 -1.82,-2.72 -1.07,-8.04 -1.12,-11.51 q -0.02,-1.05 -0.49,-0.11 -5.75,11.54 -17.26,17.29 -0.47,0.23 -0.99,0.25 l -3.43,0.17 a 1.43,1.42 -3 0 0 -1.36,1.5 c 0.16,2.92 -0.16,6.07 -0.12,8.49 q 0.28,17.75 0.18,35.63 a 1.7,1.7 0 0 1 -0.27,0.92 q -2.86,4.49 -7.11,8.02"
           inkscape:connector-curvature="0"
           style="vector-effect:non-scaling-stroke;stroke:#5b5b5b" />
        <path
           id="path26112"
           d="m 226.38,181.68 c -1.08,0.65 -3.14,2.58 -4.18,0.6 a 0.89,0.88 47.9 0 1 0.04,-0.89 q 1.19,-1.87 1.52,-4.13"
           inkscape:connector-curvature="0"
           style="vector-effect:non-scaling-stroke;stroke:#646464" />
        <path
           id="path26114"
           d="m 223.76,177.26 q -0.39,-26.04 0.78,-52.04 a 1.57,1.54 -62.4 0 0 -0.31,-1.02 q -1.71,-2.28 -1.19,-5.15 a 1.53,1.52 -52.9 0 0 -0.12,-0.9 c -3.04,-6.66 2.24,-12.99 2.98,-19.25 q 0.69,-5.94 0.69,-11.83"
           inkscape:connector-curvature="0"
           style="vector-effect:non-scaling-stroke;stroke:#5b5b5b" />
        <path
           id="path26116"
           d="m 362.49,94.84 q 1.09,-2.19 2.31,-4.32 c 4.79,-8.37 -1.28,-20.42 10.94,-24.85 a 0.81,0.81 0 0 1 1.09,0.79 Q 376.55,74.45 375,82.3 a 0.74,0.74 0 0 0 0.91,0.86 c 7.26,-1.78 9.28,-9.59 8.27,-16.26 q -0.35,-2.31 -2.67,-2.49 c -5.27,-0.42 -17.15,1.34 -17.93,8.42 q -1.09,9.98 -9.12,13.51 -1.58,0.69 -1.74,2.4 -1.3,13.78 -1.1,27.66 a 0.69,0.68 6.7 0 0 0.52,0.65 c 1.95,0.47 7.73,-10.57 10.93,-6.42 q 1.12,1.46 1.27,-0.37 l 1.22,-15.14 a 0.4,0.39 84.5 0 0 -0.5,-0.42 l -2.17,0.62 q -0.75,0.21 -0.4,-0.48"
           inkscape:connector-curvature="0"
           style="vector-effect:non-scaling-stroke;stroke:#858585" />
        <path
           id="path26118"
           d="m 245.54,75.04 q -1.76,-1.48 -4,-1.01 l -4.3,0.9 a 0.67,0.67 0 0 0 -0.52,0.52 q -1.44,6.65 -0.89,13.46 0.04,0.48 0.42,0.18 l 10.59,-8.36 a 2.39,2.39 0 0 0 0.78,-2.65 q -0.63,-1.81 -2.08,-3.04"
           inkscape:connector-curvature="0"
           style="vector-effect:non-scaling-stroke;stroke:#646464" />
        <path
           id="path26120"
           d="m 260.71,93.08 c 1.02,-5.78 4.1,-12.89 6.27,-18.44 q 0.19,-0.48 -0.31,-0.34 -3.77,1.07 -7.09,3.15 a 1.08,1.07 72.2 0 0 -0.5,0.98 l 0.99,14.68 a 0.15,0.15 0 0 0 0.15,0.14 h 0.3 a 0.21,0.19 -84.6 0 0 0.19,-0.17"
           inkscape:connector-curvature="0"
           style="vector-effect:non-scaling-stroke;stroke:#646464" />
        <path
           id="path26122"
           d="m 283.12,107.48 c 0.89,1.05 -4.43,6.34 -5.3,7.14 q -0.37,0.34 0.13,0.38 6.73,0.5 8.67,-6.42 6.08,-21.71 -12.38,-33.96 a 0.53,0.53 0 0 0 -0.81,0.31 q -3.95,14.61 -3.1,30 c 0.21,3.95 2.05,6.18 6.01,6.3 a 1.72,1.7 28 0 0 1,-0.3 l 5.14,-3.54 a 0.48,0.48 0 0 1 0.64,0.09"
           inkscape:connector-curvature="0"
           style="vector-effect:non-scaling-stroke;stroke:#717171" />
        <path
           id="path26124"
           d="m 233.57,110.45 c -0.89,5.95 4.23,10.01 9.67,7.6 q 0.42,-0.18 0.88,-0.23 l 2.44,-0.24 a 0.97,0.97 0 0 0 0.8,-0.6 c 4.25,-10.81 2.64,-20.88 2.23,-31.92 q -0.07,-1.84 -1.58,-0.78 l -11.07,7.79 q -1.9,1.34 -1.99,3.67 -0.25,7.05 -1.38,14.71"
           inkscape:connector-curvature="0"
           style="vector-effect:non-scaling-stroke;stroke:#5b5b5b" />
        <path
           id="path26126"
           d="m 375.84,110.25 q -2.1,3.46 -5.31,5.91 -0.52,0.4 0.12,0.54 c 6.03,1.33 22.32,2.07 22.77,-7.22 0.59,-12.11 -0.92,-22.88 -16.69,-19.6 a 2.5,2.49 -88.9 0 0 -1.91,1.84 q -2.24,8.93 1.12,17.4 a 1.28,1.28 0 0 1 -0.1,1.13"
           inkscape:connector-curvature="0"
           style="vector-effect:non-scaling-stroke;stroke:#858585" />
        <path
           id="path26128"
           d="m 216.21,102.25 -0.06,25.17 q 0,0.96 0.69,0.3 l 1.34,-1.26 a 0.33,0.32 60.7 0 1 0.54,0.16 c 1.09,4.04 -5.92,10.41 -8.59,11.94 q -3.31,1.91 -3.32,-1.91 L 206.71,115"
           inkscape:connector-curvature="0"
           style="vector-effect:non-scaling-stroke;stroke:#5b5b5b" />
        <path
           id="path26130"
           d="m 206.71,115 q 0.51,-23.4 5.65,-46.86 0.44,-2.01 -1.61,-1.89 -3.81,0.22 -8.5,1.96"
           inkscape:connector-curvature="0"
           style="vector-effect:non-scaling-stroke;stroke:#646464" />
        <path
           id="path26132"
           d="m 206.71,115 -1.6,5.33 a 0.63,0.63 0 0 1 -0.66,0.44 q -1.04,-0.09 -1.87,0.31 -2.36,1.14 -1.49,3.61 2.77,7.91 1.58,16.14 a 0.93,0.9 26 0 0 0.3,0.83 l 3.07,2.75 q 0.54,0.49 -0.18,0.42 c -2.81,-0.29 -1.74,4.58 -1.83,6.48 -0.24,4.94 6.94,9.69 9.05,12.37 q 4.54,5.77 8.3,8.3 a 0.28,0.28 0 0 1 0.12,0.25 l -0.01,0.35 a 0.49,0.48 5.9 0 1 -0.56,0.45 l -1.36,-0.22 a 0.47,0.47 0 0 0 -0.53,0.58 q 0.84,3.29 4.72,3.87"
           inkscape:connector-curvature="0"
           style="vector-effect:non-scaling-stroke;stroke:#b4b4b4" />
        <path
           id="path26134"
           d="m 226.38,181.68 6.99,6.87 a 0.84,0.84 0 0 0 1.2,-0.02 c 3.95,-4.08 7.62,-6.33 9.49,-12.77 q 0.13,-0.47 0.08,-0.96 c -0.21,-2.13 7.02,-9.27 8.55,-8.33 a 0.43,0.43 0 0 1 0.09,0.67 c -2.02,2.13 -9.28,11.64 -8.16,14.4 a 0.34,0.34 0 0 0 0.58,0.09 l 9.94,-12.74 a 1.78,1.74 67.6 0 0 0.38,-0.94 q 0.35,-3.8 1.3,-4.89 8.05,-9.23 14.71,-19.52"
           inkscape:connector-curvature="0"
           style="vector-effect:non-scaling-stroke;stroke:#b4b4b4" />
        <path
           id="path26136"
           d="m 271.53,143.54 c 0.29,1.01 1.05,6.24 -0.01,6.83 q -0.54,0.29 -0.52,-0.32 l 0.01,-0.48 q 0.07,-2.38 -0.75,-0.15 l -0.38,1.03 a 0.89,0.88 37.2 0 0 0.12,0.84 c 1.14,1.5 3.21,7.71 6.09,4.62 a 0.31,0.3 -34.8 0 1 0.51,0.09 c 1.55,3.96 6.43,15.49 5.13,19.25 q -3.2,9.28 -3.15,17.9 c 0.02,2.93 -0.33,5.98 0.19,9.84 q 0.58,4.25 -0.25,17.49"
           inkscape:connector-curvature="0"
           style="vector-effect:non-scaling-stroke;stroke:#cacaca" />
        <path
           id="path26138"
           d="m 278.52,220.48 q 0.34,1.26 1.23,2.23"
           inkscape:connector-curvature="0"
           style="vector-effect:non-scaling-stroke;stroke:#dedede" />
        <path
           id="path26140"
           d="m 279.75,222.71 q 0.57,5.01 -1.11,9.85 a 0.4,0.4 0 0 1 -0.6,0.2 q -5.59,-3.73 -9.46,-9.16 c -4.63,-6.47 -11.52,-12.15 -16.95,-18.11 q -1.96,-2.15 -4.96,-4.19 -6.5,-4.43 -11.49,-10.8 a 1.06,1.06 0 0 0 -1.58,-0.1 c -7.39,7.37 -12.09,13.43 -18.27,24.51 -1.48,2.63 -2.74,6.62 -5,9.63 a 0.42,0.42 0 0 1 -0.64,0.04 c -0.56,-0.58 1.65,-5.31 1.97,-6.37 q 0.15,-0.49 -0.19,-0.11 l -4.47,5.11"
           inkscape:connector-curvature="0"
           style="vector-effect:non-scaling-stroke;stroke:#cacaca" />
        <path
           id="path26142"
           d="m 207,223.21 q -2.7,8.19 -2.91,16.84"
           inkscape:connector-curvature="0"
           style="vector-effect:non-scaling-stroke;stroke:#dedede" />
        <path
           id="path26144"
           d="m 197.07,240 q 0.76,-15.23 -0.29,-30.43 a 0.43,0.43 0 0 1 0.43,-0.47 q 0.94,0 1.08,-0.85"
           inkscape:connector-curvature="0"
           style="vector-effect:non-scaling-stroke;stroke:#cacaca" />
        <path
           id="path26146"
           d="m 198.29,208.25 3.8,5.26 a 0.8,0.79 -35.6 0 0 1.1,0.18 q 4.46,-3.15 7.89,-7.41 a 1.91,1.9 44.9 0 0 -0.01,-2.4 q -7.8,-9.52 -9.86,-21.71 -0.31,-1.83 1,-3.15 c 0.95,-0.95 4.26,-4.03 4.16,-5.82 a 0.43,0.43 0 0 0 -0.56,-0.39 l -4.6,1.48 a 1.36,1.36 0 0 1 -1.78,-1.27 l -0.25,-15.52 a 1.67,1.64 -27.4 0 1 0.34,-1.03 c 0.63,-0.82 2.82,-2.65 0.98,-3.51"
           inkscape:connector-curvature="0"
           style="vector-effect:non-scaling-stroke;stroke:#646464" />
        <path
           id="path26148"
           d="m 200.5,152.96 1.37,-0.88 a 0.61,0.61 0 0 0 0.24,-0.74 c -1.43,-3.46 -0.15,-4.47 -0.18,-7.69 a 1.23,1.22 22.2 0 0 -0.36,-0.84 L 196.75,138 q -0.35,-0.35 -0.81,-0.51 l -4.02,-1.38"
           inkscape:connector-curvature="0"
           style="vector-effect:non-scaling-stroke;stroke:#cacaca" />
        <path
           id="path26150"
           d="m 254.38,202.57 0.46,2.37 a 0.77,0.75 8.4 0 0 0.4,0.53 l 2.01,1.04 q 0.46,0.24 0.42,-0.28 c -0.26,-2.88 -4.85,-3.21 -1.99,-7.12 q 1.16,-1.58 -0.32,-2.86 c -1.05,-0.91 -9.61,-7.85 -10.39,-7.26 a 0.41,0.4 -41.6 0 0 -0.04,0.62 l 4.18,3.95 a 0.61,0.61 0 0 1 0.08,0.81 q -1.01,1.44 0.24,2.7 a 0.8,0.79 -56.5 0 1 0.17,0.86 q -1,2.55 1.53,3.49 a 0.9,0.89 -84.8 0 1 0.56,0.68 l 0.19,1.13 q 0.13,0.73 0.62,0.18 l 0.98,-1.09 q 0.71,-0.78 0.9,0.25"
           inkscape:connector-curvature="0"
           style="vector-effect:non-scaling-stroke;stroke:#cacaca" />
        <path
           id="path26152"
           d="m 259.3371,204.3688 a 1.73,1.14 79.1 0 0 0.7923,-1.9144 1.73,1.14 79.1 0 0 -1.4465,-1.4832 1.73,1.14 79.1 0 0 -0.7923,1.9144 1.73,1.14 79.1 0 0 1.4465,1.4832"
           inkscape:connector-curvature="0"
           style="vector-effect:non-scaling-stroke;stroke:#cacaca" />
        <path
           id="path26154"
           d="m 305.94,240 -5.45,-0.45 a 0.75,0.75 0 0 1 -0.64,-0.52 c -1.53,-4.73 -4.6,-4.8 -7.56,-7.81 -2.82,-2.88 -11.12,-11.62 -13.77,-10.74"
           inkscape:connector-curvature="0"
           style="vector-effect:non-scaling-stroke;stroke:#ebebeb" />
        <path
           id="path26156"
           d="M 271.53,143.54 272.79,140"
           inkscape:connector-curvature="0"
           style="vector-effect:non-scaling-stroke;stroke:#c1c1c1" />
        <path
           id="path26158"
           d="m 272.79,140 c 1.96,0.5 0.95,4.03 1.9,5.82 a 1.14,1.13 42.2 0 1 0.05,0.96 q -1.06,2.57 0.95,4.23 0.57,0.47 0.67,-0.26 0.54,-4.06 -0.24,-7.96 c -0.33,-1.65 -0.1,-2.86 -0.12,-4.5"
           inkscape:connector-curvature="0"
           style="vector-effect:non-scaling-stroke;stroke:#cacaca" />
        <path
           id="path26160"
           d="m 276,138.29 1.75,-1.33"
           inkscape:connector-curvature="0"
           style="vector-effect:non-scaling-stroke;stroke:#c1c1c1" />
        <path
           id="path26162"
           d="m 277.75,136.96 0.7,0.04 a 1.39,1.36 -61.1 0 0 0.94,-0.28 q 2.97,-2.22 4.03,-5.72 a 1.3,1.29 85.1 0 1 0.65,-0.78 l 0.25,-0.13 a 0.87,0.87 0 0 0 0.43,-1.08 l -1.72,-4.57 q -0.3,-0.78 -0.54,0.01 -0.31,1.03 -1.24,1.55 a 0.74,0.73 -38.7 0 1 -0.85,-0.09 q -1.9,-1.75 -2.19,-4.41"
           inkscape:connector-curvature="0"
           style="vector-effect:non-scaling-stroke;stroke:#cacaca" />
        <path
           id="path26164"
           d="m 331.33,187.29 0.15,1.51 a 0.53,0.53 0 0 0 0.63,0.47 l 3.22,-0.63 a 0.52,0.52 0 0 0 0.38,-0.7 q -0.83,-2.11 -3.23,-1.97 a 1.22,1.21 -4.1 0 0 -1.15,1.32"
           inkscape:connector-curvature="0"
           style="vector-effect:non-scaling-stroke;stroke:#ebebeb" />
        <path
           id="path26166"
           d="m 332.25,192.51 q 4.59,4.82 10.46,7.95 a 0.7,0.69 -53.5 0 0 0.83,-0.13 c 1,-1.03 -6.2,-8.22 -7.27,-9.57 a 0.89,0.87 62.8 0 0 -0.9,-0.3 l -2.73,0.68 a 0.82,0.82 0 0 0 -0.39,1.37"
           inkscape:connector-curvature="0"
           style="vector-effect:non-scaling-stroke;stroke:#ebebeb" />
        <path
           id="path26168"
           d="m 298.94,234.76 c 2.9,-5.22 -7.33,-10.96 -10.95,-12.91 q -0.39,-0.21 -0.64,-0.57 l -1.25,-1.79 q -0.61,-0.87 -0.48,0.18 l 0.55,4.33 a 1.81,1.73 -70.1 0 0 0.4,0.91 q 1.98,2.34 4.78,3.64 0.5,0.24 0.84,0.67 2.68,3.35 6.33,5.65 a 0.3,0.3 0 0 0 0.42,-0.11"
           inkscape:connector-curvature="0"
           style="vector-effect:non-scaling-stroke;stroke:#ebebeb" />
        <path
           id="path26170"
           d="m 277,122.29 q 0.13,3.22 -0.83,6.21 a 1.87,1.82 48.6 0 0 -0.05,0.98 l 1.63,7.48"
           inkscape:connector-curvature="0"
           style="vector-effect:non-scaling-stroke;stroke:#b4b4b4" />
        <path
           id="path26172"
           d="m 276,138.29 q -1.38,0.31 -2.07,-0.57 a 1.35,1.33 29.4 0 1 -0.27,-0.94 q 0.51,-5.18 -0.61,-10.22 a 0.73,0.72 83.2 0 0 -0.72,-0.57 l -0.5,0.01 a 0.58,0.58 0 0 0 -0.56,0.51 q -0.95,6.91 1.52,13.49"
           inkscape:connector-curvature="0"
           style="vector-effect:non-scaling-stroke;stroke:#b4b4b4" />
        <path
           id="path26174"
           d="m 200.5,152.96 q -1.53,-0.29 -1.89,-1.8 a 0.5,0.5 0 0 0 -0.83,-0.25 c -1.48,1.38 -2.86,2.47 -4.9,3.11 q -11.69,3.66 -21.89,10.46 a 0.43,0.42 61.7 0 1 -0.63,-0.19 c -0.69,-1.72 4.61,-7.8 5.78,-9.41"
           inkscape:connector-curvature="0"
           style="vector-effect:non-scaling-stroke;stroke:#717171" />
        <path
           id="path26176"
           d="m 198.29,208.25 q -4.91,-8.69 -6.53,-17.38 -0.35,-1.87 -1.25,-0.19 -4.44,8.28 -8.37,16.66 c -4.48,9.57 -11.33,16.14 -20.34,21.63 q -1.55,0.94 -0.78,-0.7 c 2.26,-4.88 7.23,-7.03 10.51,-11.23 q 1.44,-1.84 3.29,-5.98 6.27,-14.06 15.68,-26.27 0.4,-0.52 -0.24,-0.38 -9.89,2.13 -20.01,1.5 a 1,1 0 0 0 -1.06,1.02 c 0.09,3.94 -0.66,17.46 1.76,19.95 a 1.15,1.13 46.1 0 1 -0.02,1.62 l -7.17,6.95 q -1.84,1.79 -2.84,-0.58 -1,-2.36 -0.98,-5.87 0.09,-14.75 0.02,-29.5"
           inkscape:connector-curvature="0"
           style="vector-effect:non-scaling-stroke;stroke:#717171" />
        <path
           id="path26178"
           d="m 159.96,179.5 1.19,-8.18 q 0.05,-0.33 -0.23,-0.14 l -11,7.52 q -1.46,0.99 -1.25,2.74 l 1.58,13.35"
           inkscape:connector-curvature="0"
           style="vector-effect:non-scaling-stroke;stroke:#858585" />
        <path
           id="path26180"
           d="m 150.25,194.79 1.32,6.72 a 1.34,1.31 -35.8 0 1 -0.16,0.91 q -3.14,5.23 -8.16,8.79"
           inkscape:connector-curvature="0"
           style="vector-effect:non-scaling-stroke;stroke:#717171" />
        <path
           id="path26182"
           d="m 169.52,173.04 c 1.85,5.17 14.51,3.81 20,3.6 a 0.46,0.46 0 0 0 0.44,-0.5 l -1.08,-12.96 a 0.85,0.85 0 0 0 -1.09,-0.74 q -8.29,2.5 -16.19,6.1 c -2,0.91 -2.81,2.47 -2.08,4.5"
           inkscape:connector-curvature="0"
           style="vector-effect:non-scaling-stroke;stroke:#717171" />
        <path
           id="path26184"
           d="m 98.66,183.58 1.42,-2.78 a 1.44,1.39 54.6 0 0 0.13,-0.85 q -0.91,-5.41 -3.97,-10.06 -0.27,-0.43 -0.33,0.08 c -0.47,4.24 -3.84,31.94 -0.83,33.96 a 1.48,1.47 -60.6 0 0 2.16,-0.61 c 1.3,-2.79 8.54,-19.54 1.79,-19.18 q -0.68,0.04 -0.37,-0.56"
           inkscape:connector-curvature="0"
           style="vector-effect:non-scaling-stroke;stroke:#858585" />
        <path
           id="path26186"
           d="m 61,173.25 c 0.05,7.59 -0.63,14.73 -0.73,22.51 a 0.4,0.39 -13.6 0 0 0.58,0.35 q 4.64,-2.46 7.46,-6.98 a 0.79,0.78 45.9 0 0 0.01,-0.81 q -4.13,-7.23 -6.83,-15.11 -0.06,-0.18 -0.21,-0.2 A 0.24,0.24 0 0 0 61,173.25"
           inkscape:connector-curvature="0"
           style="vector-effect:non-scaling-stroke;stroke:#858585" />
        <path
           id="path26188"
           d="m 159.96,179.5 q -5.31,7.35 -9.71,15.29"
           inkscape:connector-curvature="0"
           style="vector-effect:non-scaling-stroke;stroke:#ebebeb" />
        <path
           id="path26190"
           d="m 157.3006,196.0406 a 0.44,0.44 0 0 0 -0.2491,-0.5702 l -0.4283,-0.1678 a 0.44,0.44 0 0 0 -0.5702,0.2491 l -2.3936,6.1077 a 0.44,0.44 0 0 0 0.2491,0.5702 l 0.4283,0.1678 a 0.44,0.44 0 0 0 0.5702,-0.2491 l 2.3936,-6.1077"
           inkscape:connector-curvature="0"
           style="vector-effect:non-scaling-stroke;stroke:#ebebeb" />
        <path
           id="path26192"
           d="m 279.75,222.71 c 1.72,1.55 19.36,15.88 10.94,17.29"
           inkscape:connector-curvature="0"
           style="vector-effect:non-scaling-stroke;stroke:#ebebeb" />
        <path
           id="path26194"
           d="m 287.19,240 -8.32,-6.11 q -0.72,-0.53 -0.81,0.36 l -0.62,5.75"
           inkscape:connector-curvature="0"
           style="vector-effect:non-scaling-stroke;stroke:#ebebeb" />
        <path
           id="path26196"
           d="m 208.19,240 q -0.83,-8.12 -0.45,-16.29 a 0.49,0.49 0 0 0 -0.41,-0.51 q -0.15,-0.02 -0.33,0.01"
           inkscape:connector-curvature="0"
           style="vector-effect:non-scaling-stroke;stroke:#ebebeb" />
      </g>
      <path
         id="path26200"
         d="m 0,0 h 65.06 c -0.2,2.38 0.83,4.92 -0.27,7.17 A 0.64,0.63 19.5 0 1 64.07,7.51 Q 60.49,6.64 58.9,5.36 C 57.25,4.04 50.96,-0.4 48.95,0.32 q -0.51,0.18 -0.06,0.47 6.68,4.33 12.09,10.1 c 4.3,4.57 8.03,6.89 13.24,9.5 a 0.65,0.65 0 0 1 0.35,0.7 c -1.02,4.99 7.57,9.76 11.79,11.49 a 0.48,0.47 -70.9 0 0 0.63,-0.31 c 0.58,-1.98 -1.58,-1.75 -1.76,-2.56 a 0.31,0.31 0 0 1 0.23,-0.36 c 4.79,-1.06 5.52,1.86 8.26,3.99 q 7.31,5.67 14.34,11.68 c 5.17,4.42 12.51,9.84 18.27,15.41 a 1.4,1.36 -72.3 0 1 0.42,0.84 c 0.33,2.67 4.31,8.05 6.04,10.23 -3.72,3.72 -9.31,10.1 -9.98,16.17 -0.21,1.88 0.58,4.18 1.08,6.09 2.78,10.51 -5.75,20.89 -16.33,21.53 -6.74,0.41 -16.67,1.12 -16.66,-8.11 q 0.04,-18.39 9.93,-33.63 c 3.24,-4.99 6.89,-6.29 12.51,-4.91 q 2.23,0.54 2.23,2.85 -0.01,4.23 -2.71,8.23 c -0.45,0.67 -0.53,1.88 -0.13,2.49 a 0.92,0.91 -30.8 0 0 1.2,0.3 Q 125.29,76.36 125.22,63.2 125.21,60.55 122.7,59.66 116.68,57.52 110.29,61 109.14,58.46 108.23,57.76 95.46,47.92 83.51,37.09 c -2.44,-2.2 -5.91,-4.05 -8.5,-6.78 A 0.99,0.98 -21.2 0 0 74.29,30 l -0.25,-0.01 q -0.8,-0.01 -0.36,0.66 c 3.37,5.18 6.56,9.7 11.45,13.81 6.16,5.18 13.34,12.34 20.8,16.87 q 0.66,0.4 1.36,1.67 C 98.57,69.8 94.84,76.09 89.28,84.14 q -0.29,0.41 -0.34,-0.09 C 87.97,75.41 87.75,70.16 84.75,64 81.58,57.49 70.89,61.75 66.24,64.03 q -0.44,0.22 -0.21,-0.22 1.28,-2.42 2.66,-4.8 c 4.64,-8.03 5.48,-16.73 3.86,-26.08 -2.1,-12.1 -16.56,-3.32 -22.51,0.09 -5.37,3.07 -8.55,9.29 -11.68,14.41 q -1.33,2.17 0.98,1.08 1.28,-0.61 2.24,-1.66 0.71,-0.78 0.73,0.28 c 0.31,17.23 -1.02,30.4 -0.8,51.81 a 1.2,1.2 0 0 1 -0.34,0.86 c -5.95,6.19 -9.78,11.43 -6.88,20.68 2.5,7.98 7.61,10.63 15.93,9.77 14.08,-1.46 20.79,-7.78 30.72,-16.95 q 0.37,-0.34 0.4,0.16 c 0.39,5.38 0.65,10.08 7.25,10.7 4.74,0.44 11.37,0.67 16.1,-0.98 10,-3.5 16.85,-10.5 23.28,-18.65 a 0.65,0.64 -57.3 0 1 0.8,-0.18 c 0.14,0.07 1.11,9.71 1.6,11.14 q 0.74,2.15 2.65,0.9 c 3.24,-2.12 9.49,-7.62 8.27,-11.85 q -2.35,-8.08 -2.66,-12.5 2.95,3.38 7,4.46 a 0.61,0.6 -80.6 0 1 0.44,0.62 c -0.18,2.82 2.43,4.44 5.07,5.99 a 0.48,0.47 -69.4 0 0 0.7,-0.32 l 0.39,-1.84 q 0.19,-0.93 0.83,-0.22 3.56,3.93 8.24,6.57 0.55,0.31 0.23,-0.24 -3.11,-5.47 -7.9,-9.46 -0.42,-0.34 -0.6,-0.85 -1.34,-3.57 -3.95,-6.39 a 1.36,1.36 0 0 1 -0.35,-0.96 l 0.02,-0.65 A 0.26,0.25 -88.8 0 1 149,88.5 l 0.47,-0.01 a 1.27,1.26 63.6 0 1 0.82,0.28 l 5.08,4.07 a 0.7,0.69 43.6 0 0 0.88,-0.02 l 1.44,-1.22 q 0.54,-0.47 0.6,0.25 c 0.22,2.92 1.85,5.13 2.54,7.79 q 1.52,5.9 6.12,10.24 -13.08,7.59 -27.69,8.06 c -6.16,0.19 -10.21,2.9 -12.55,8.57 a 0.35,0.34 -78.3 0 0 0.31,0.48 c 14.57,0.43 32.33,-4.32 42.02,-15.99 6.17,4.85 15.8,11.95 19.56,19.58 a 1.07,1.07 0 0 0 0.66,0.55 l 1.41,0.4 a 0.67,0.66 5.9 0 1 0.48,0.58 q 0.14,1.53 0.89,2.89 l -0.12,1.11 q -4.66,5.31 -9.18,10.71 -0.29,0.35 -3.01,4.23 -1.51,2.16 -3.59,3.83 l 0.62,-4.16 a 0.82,0.81 21.5 0 0 -0.35,-0.8 q -2.39,-1.62 -4.99,-0.06 -9.4,5.62 -9.53,16.57 a 0.92,0.91 -14.4 0 1 -0.48,0.8 l -11.89,6.52 a 0.52,0.52 0 0 1 -0.77,-0.46 v -22.31 a 0.42,0.42 0 0 0 -0.58,-0.39 c -11.89,4.87 -8.59,17.24 -8.71,27.17 a 0.62,0.61 -6.5 0 1 -0.48,0.6 q -8.29,1.85 -12.83,9.07 a 0.9,0.82 -69.2 0 0 0.53,1.35 c 2.28,0.28 9.74,-3.36 12.24,-4.34 a 0.31,0.31 0 0 1 0.43,0.27 l 0.69,12.64 a 0.72,0.72 0 0 1 -0.4,0.69 q -13.02,6.51 -27.7,4.68 a 0.49,0.48 -87.3 0 1 -0.42,-0.47 l -0.2,-20.37 a 1.83,1.82 -7.7 0 1 1.37,-1.79 q 5.85,-1.51 11.89,-1.33 a 1.69,1.63 27.1 0 0 0.99,-0.3 q 3.82,-2.69 6.9,-6.26 3.43,-3.99 -1.78,-3.24 -8.88,1.28 -17.48,4.07 a 0.77,0.77 0 0 1 -1.01,-0.83 q 0.61,-4.85 2.95,-9.11 2,-3.65 -1.55,-1.48 -2.9,1.77 -5.04,4.37 a 0.42,0.42 0 0 1 -0.66,-0.02 q -2.8,-3.67 0.84,-5.66 c 5.14,-2.81 14.77,-6.31 21.64,-6.07 a 1.36,1.33 -21 0 1 0.9,0.39 l 1.27,1.26 a 0.63,0.62 -42.9 0 0 0.85,0.03 c 1.68,-1.41 10.06,-7.97 7.25,-10.39 a 3.23,3.2 -27.9 0 0 -2.48,-0.75 c -14.82,1.77 -33.36,9.21 -41.46,22.63 q -0.44,0.73 -0.34,-0.11 1.11,-9.54 4.64,-18.34 c 0.37,-0.93 0.31,-2.28 0.17,-3.12 a 0.8,0.79 72.6 0 0 -1.12,-0.59 c -7.96,3.72 -7.41,10.12 -11.56,16.48 q -5.49,8.43 -11.11,16.58 a 0.37,0.37 0 0 1 -0.63,-0.04 Q 69.09,163.44 66.24,146.97 a 0.45,0.44 69.6 0 0 -0.67,-0.31 q -4.7,2.81 -8,7.21 a 1.63,1.61 63.6 0 0 -0.32,0.97 v 4.74 a 1.43,1.43 0 0 1 -0.31,0.89 l -4.26,5.27 q -1.04,1.27 -1,2.91 0.43,18.33 -0.82,36.53 -0.27,3.96 -0.15,6.08 0.19,3.34 2.48,0.9 c 2.54,-2.71 7.07,-5.97 6.9,-9.82 a 1.02,0.99 -21.7 0 1 0.38,-0.84 q 5.49,-4.41 9.78,-10.02 a 0.64,0.64 0 0 1 0.9,-0.12 l 1.13,0.84 a 1.03,1.03 0 0 0 1.06,0.1 q 4.89,-2.42 7.7,-7 A 1.89,1.89 0 0 0 80.78,183 c -1.76,-1.81 -1.37,-1.91 0.08,-3.84 q 3.54,-4.73 6.71,-9.43 0.65,-0.96 0.43,0.18 -3.6,18.99 -3.53,38.22 c 0.01,3.25 1.62,6.35 5.18,5.79 3.43,-0.54 8.48,-6.35 11.14,-8.9 q 0.75,-0.72 0.58,0.3 -0.6,3.55 -3.12,6.19 -0.65,0.69 0.29,0.7 c 16.47,0.27 28.63,0.17 41.49,-10.48 q 0.67,-0.56 0.77,0.32 l 0.94,8.85 a 0.56,0.55 1.3 0 0 0.48,0.5 q 0.49,0.06 1.03,-0.19 l 0.36,0.27 a 0.76,0.75 -64.3 0 1 0.27,0.78 c -1.23,4.82 -5.64,17.41 -11.48,16.09 a 0.28,0.28 0 0 1 -0.18,-0.41 l 8.03,-13.32 a 0.54,0.54 0 0 0 -0.28,-0.79 c -1.28,-0.47 -5.33,7.01 -5.89,7.99 -3.57,6.25 -8.01,11.17 -12.11,16.85 a 0.7,0.69 -46.6 0 0 0.02,0.84 q 0.35,0.44 0.95,0.49 H 0 Z"
         inkscape:connector-curvature="0"
         style="fill:#ffffff" />
      <path
         id="path26202"
         d="m 65.06,0 h 89.75 c 5.69,0.47 6.05,6.48 9.32,9.86 3.72,3.87 8.71,9.99 11.66,8.39 l 1.42,3.5 q -1.15,-1.23 -2.82,-1.09 a 0.35,0.35 0 0 0 -0.28,0.51 q 1.21,2.35 4.33,4.91 5.63,4.6 11.9,10.06 a 1.03,1.02 47.5 0 0 1.28,0.06 c 1,-0.71 -10.24,-10.68 -11.37,-11.66 1.78,0.8 1.52,-1.39 1.54,-2.29 l 4.74,4.18 a 0.88,0.87 25.9 0 1 0.29,0.82 q -0.2,1.23 0.73,2.43 3.37,4.33 7.85,6.18 a 0.43,0.43 0 0 0 0.47,-0.1 l 0.17,-0.18 a 0.22,0.21 -46 0 1 0.3,-0.01 l 5.85,5.22 q 1.03,0.93 0.57,-0.38 -0.69,-1.97 0.93,-3.23 a 1.23,1.2 73.8 0 0 0.47,-0.88 c 0.27,-3.23 0.68,-11.42 5.48,-11.46 a 0.7,0.7 0 0 0 0.69,-0.57 q 0.52,-2.83 2.4,-4.95 a 0.87,0.86 -59 0 1 0.93,-0.24 c 1.8,0.61 0.69,4.3 1.75,6.16 a 0.47,0.46 60.4 0 0 0.63,0.18 L 218.48,24 a 0.59,0.59 0 0 1 0.79,0.19 l 1.33,2.05 q 0.44,0.66 0.75,-0.07 1.12,-2.57 0.52,-5.42 -0.39,-1.87 0.66,-0.27 l 0.76,1.17 a 0.61,0.6 -24.2 0 0 0.67,0.25 l 6.07,-1.74 a 0.71,0.7 -22.2 0 1 0.82,0.34 c 2.24,4.18 2.84,5.62 5.63,0.39 q 0.97,-1.83 3.01,-1.5 15.36,2.44 28.98,9.88 a 1.64,1.64 0 0 1 0.65,0.65 q 0.52,0.97 1.38,1.51 a 1.19,1.18 52.3 0 0 1,0.13 L 276.39,30 a 1.58,1.53 8 0 0 0.81,-0.59 L 295.36,3.28 A 1.43,1.41 -39.5 0 0 295.5,1.91 Q 294.99,0.71 296.31,0 h 86.25 l 0.35,0.26 a 0.51,0.49 31.3 0 1 0.16,0.62 l -3.24,6.59 a 0.51,0.5 -63.7 0 0 0.22,0.67 l 0.27,0.13 A 0.47,0.47 0 0 1 380.47,9 Q 367.81,23.47 358,39.94 c -6.22,10.46 -11.7,17.42 -19.79,25.03 q -1.15,1.08 -4.78,7.72 c -0.29,0.53 -0.17,0.96 0.36,1.2 a 0.71,0.7 30 0 0 0.84,-0.22 l 7.01,-9.4 q 0.39,-0.53 0.14,0.08 c -2.02,4.77 -5.74,8.83 -8.09,12.66 q -3.11,5.09 -6.9,9.74 1.61,-13.26 4.85,-26.45 0.64,-2.63 -2.05,-2.41 -0.99,0.08 -3.58,0.65 -15.74,3.44 -31.82,7.08 a 2.06,1.99 -74.5 0 0 -1.04,0.61 q -1.74,1.92 -4.2,2.8 A 1.02,1.01 -35.5 0 1 288,68.88 c -4.26,-3.26 -6.43,-3.18 -11.35,-4.57 a 1.49,1.45 -47.6 0 0 -0.97,0.06 l -3.62,1.51 q -1.08,-4.12 -1.28,-8.32 -0.37,-7.96 -0.39,-8.25 -0.45,-7.3 1.09,-14.6 a 0.56,0.56 0 0 0 -0.4,-0.65 q -1.12,-0.32 -2.15,1.15 c -2.48,3.55 -4.5,6.86 -7.77,9.9 q -6.84,6.34 -13.34,14.21 -2.29,2.78 -1.65,5.86 -4.83,0.49 -8.87,3.55 -0.56,0.43 -0.56,-0.27 l 0.02,-5.27 q 0,-1.41 -1.22,-0.69 c -3.16,1.86 -7.92,5.25 -8.24,9.26 q -0.16,2 -0.06,4.06 a 1.65,1.64 59.4 0 1 -0.23,0.91 l -3.45,5.7 q -0.59,0.98 0.54,0.81 1.57,-0.22 2.22,-1.66 0.93,-2.03 0.83,0.39 -0.09,2.21 -0.56,5.1 -1.51,9.12 -8.11,15.72 c -0.98,0.99 -1.83,0.69 -2.27,-0.54 q 1.01,-21.01 5.67,-42.73 0.45,-2.11 -1.63,-2.68 c -3.68,-0.99 -17.61,4.76 -21.5,6.45 l -0.99,-0.6 a 1,1 0 0 1 -0.47,-0.81 Q 196.92,53.39 198.26,45 198.37,44.26 198,42.79 l 7.28,8.64 a 0.5,0.5 0 0 0 0.72,0.04 c 1.16,-1.1 -2.45,-5.44 -3.08,-6.75 q -0.22,-0.45 -0.62,-0.75 l -5.18,-3.87 a 0.25,0.24 -53.8 0 0 -0.35,0.06 q -0.11,0.15 -0.06,0.34 -0.35,-0.95 0.25,-1.7 a 0.35,0.34 -62.6 0 0 -0.17,-0.55 q -0.52,-0.16 -1.04,0.29 -0.61,-2.31 -2.56,-2.77 a 0.36,0.35 1.1 0 0 -0.43,0.41 q 0.47,2.54 2.99,3.61 L 193.39,67 q -1.9,2.22 -1.8,5 c 0.06,2.09 -1.1,3.94 -1.17,6.09 q -0.72,23.42 -0.34,46.81 a 0.43,0.42 76.7 0 0 0.61,0.38 c 3.75,-1.82 8.47,-5.46 8.52,-10.06 q 0.27,-26.11 0.02,-42.97 -0.05,-3.37 3.02,-4.04 l 0.31,0.05 a 0.32,0.32 0 0 1 0.27,0.29 q 0.36,7.69 0.85,15.39 0.12,1.76 -1.75,4.38 a 0.78,0.76 47.7 0 0 -0.03,0.83 c 3.77,6.46 0.72,16.32 1.95,23.13 q 0.24,1.33 0.08,2.87 -0.25,2.46 -1.72,4.45 -3.12,4.25 -4.76,9.15 a 0.71,0.71 0 0 1 -0.78,0.48 L 195.22,129 a 1.35,1.34 -84.4 0 0 -1.54,1.27 q -0.12,2.63 -1.64,4.73 -0.75,-1.36 -0.89,-2.89 a 0.67,0.66 5.9 0 0 -0.48,-0.58 l -1.41,-0.4 a 1.07,1.07 0 0 1 -0.66,-0.55 C 184.84,122.95 175.21,115.85 169.04,111 q 0.39,-0.36 0.41,-0.76 a 0.57,0.56 3.6 0 0 -0.53,-0.59 q -1.12,-0.09 -1.97,0.23 -4.6,-4.34 -6.12,-10.24 c -0.69,-2.66 -2.32,-4.87 -2.54,-7.79 q -0.06,-0.72 -0.6,-0.25 l -1.44,1.22 a 0.7,0.69 43.6 0 1 -0.88,0.02 l -5.08,-4.07 a 1.27,1.26 63.6 0 0 -0.82,-0.28 L 149,88.5 a 0.26,0.25 -88.8 0 0 -0.25,0.25 l -0.02,0.65 a 1.36,1.36 0 0 0 0.35,0.96 q 2.61,2.82 3.95,6.39 0.18,0.51 0.6,0.85 4.79,3.99 7.9,9.46 0.32,0.55 -0.23,0.24 -4.68,-2.64 -8.24,-6.57 -0.64,-0.71 -0.83,0.22 l -0.39,1.84 a 0.48,0.47 -69.4 0 1 -0.7,0.32 c -2.64,-1.55 -5.25,-3.17 -5.07,-5.99 a 0.61,0.6 -80.6 0 0 -0.44,-0.62 q -4.05,-1.08 -7,-4.46 -0.34,-0.75 -0.04,-1.73 a 0.65,0.65 0 0 1 0.62,-0.46 q 10.3,0 14.97,-9.08 a 0.38,0.38 0 0 0 -0.33,-0.55 q -7.28,-0.23 -14.09,2.4 a 0.95,0.94 79.6 0 1 -1.28,-0.89 l 0.05,-9.16 a 1.8,1.77 73.7 0 1 0.79,-1.47 q 7.84,-5.29 17.21,-6.69 2.51,-0.38 2.63,2.16 l 0.12,2.7 a 0.36,0.36 0 0 0 0.52,0.3 c 4.52,-2.28 10.58,-7.87 8.19,-13.59 a 1.66,1.65 76 0 0 -1.66,-1 c -12.11,1.08 -24.36,8.98 -33.54,16.52 -1.73,-2.18 -5.71,-7.56 -6.04,-10.23 a 1.4,1.36 -72.3 0 0 -0.42,-0.84 C 120.57,54.86 113.23,49.44 108.06,45.02 Q 101.03,39.01 93.72,33.34 c -2.74,-2.13 -3.47,-5.05 -8.26,-3.99 a 0.31,0.31 0 0 0 -0.23,0.36 c 0.18,0.81 2.34,0.58 1.76,2.56 a 0.48,0.47 -70.9 0 1 -0.63,0.31 C 82.14,30.85 73.55,26.08 74.57,21.09 a 0.65,0.65 0 0 0 -0.35,-0.7 C 69.01,17.78 65.28,15.46 60.98,10.89 Q 55.57,5.12 48.89,0.79 48.44,0.5 48.95,0.32 c 2.01,-0.72 8.3,3.72 9.95,5.04 q 1.59,1.28 5.17,2.15 A 0.64,0.63 19.5 0 0 64.79,7.17 C 65.89,4.92 64.86,2.38 65.06,0 Z m 97.47,10.89 q -0.2,1.31 0.98,1.66 0.98,0.28 0.51,-0.62 l -0.62,-1.19 q -0.66,-1.26 -0.87,0.15 z M 285.5,31.07 q -0.22,0.17 -0.33,0.4 -0.82,1.7 0.37,0.31 l 1.14,-1.35 q 0.41,-0.48 -0.21,-0.35 -0.54,0.13 -0.72,0.63 a 0.88,0.78 83.2 0 1 -0.25,0.36 z m -9.04,12.68 c -0.79,-1.85 -0.91,-7.07 -1.71,-7.44 a 0.36,0.36 0 0 0 -0.51,0.32 q -0.38,12.06 0.02,24.12 0.04,1.23 1.09,1.83 a 0.45,0.45 0 0 0 0.64,-0.24 c 1.79,-5.14 -0.28,-10.11 0.26,-14.69 l 6.1,-11.93 q 0.28,-0.56 -0.14,-0.1 -3.41,3.7 -5.75,8.13 z"
         inkscape:connector-curvature="0"
         style="fill:#d6d6d6" />
      <path
         id="path26204"
         d="m 154.81,0 h 141.5 q -1.32,0.71 -0.81,1.91 a 1.43,1.41 -39.5 0 1 -0.14,1.37 L 277.2,29.41 A 1.58,1.53 8 0 1 276.39,30 l -4.89,1.56 a 1.19,1.18 52.3 0 1 -1,-0.13 q -0.86,-0.54 -1.38,-1.51 a 1.64,1.64 0 0 0 -0.65,-0.65 q -13.62,-7.44 -28.98,-9.88 -2.04,-0.33 -3.01,1.5 c -2.79,5.23 -3.39,3.79 -5.63,-0.39 a 0.71,0.7 -22.2 0 0 -0.82,-0.34 l -6.07,1.74 a 0.61,0.6 -24.2 0 1 -0.67,-0.25 l -0.76,-1.17 q -1.05,-1.6 -0.66,0.27 0.6,2.85 -0.52,5.42 -0.31,0.73 -0.75,0.07 l -1.33,-2.05 A 0.59,0.59 0 0 0 218.48,24 l -2.44,1.42 a 0.47,0.46 60.4 0 1 -0.63,-0.18 c -1.06,-1.86 0.05,-5.55 -1.75,-6.16 a 0.87,0.86 -59 0 0 -0.93,0.24 q -1.88,2.12 -2.4,4.95 a 0.7,0.7 0 0 1 -0.69,0.57 c -4.8,0.04 -5.21,8.23 -5.48,11.46 a 1.23,1.2 73.8 0 1 -0.47,0.88 q -1.62,1.26 -0.93,3.23 0.46,1.31 -0.57,0.38 l -5.85,-5.22 a 0.22,0.21 -46 0 0 -0.3,0.01 l -0.17,0.18 a 0.43,0.43 0 0 1 -0.47,0.1 q -4.48,-1.85 -7.85,-6.18 -0.93,-1.2 -0.73,-2.43 a 0.88,0.87 25.9 0 0 -0.29,-0.82 l -4.74,-4.18 -6.62,-6.37 q -0.55,-0.53 -0.27,0.18 l 0.89,2.19 c -2.95,1.6 -7.94,-4.52 -11.66,-8.39 C 160.86,6.48 160.5,0.47 154.81,0 Z"
         inkscape:connector-curvature="0"
         style="fill:#ffffff" />
      <path
         id="path26206"
         d="M 382.56,0 H 450 v 240 h -56.31 q 0.79,-0.23 0.8,-1 a 0.87,0.87 0 0 0 -0.5,-0.8 q -6.4,-3.08 -7.77,-10.05 a 1.55,1.5 15.4 0 0 -0.51,-0.87 c -1.15,-0.98 -9.84,-7.7 -7.43,-9.13 a 0.67,0.66 -37.1 0 1 0.81,0.11 c 1.43,1.47 3.92,4.34 6.14,3.97 q 1.47,-0.25 0.34,-1.22 l -6.63,-5.72 q -1.06,-0.91 -0.72,0.44 0.4,1.61 -1.17,1.67 -0.51,0.02 -0.98,-0.18 l -3.23,-1.33 a 0.61,0.61 0 0 0 -0.84,0.56 v 0.77 a 0.5,0.5 0 0 1 -0.53,0.5 c -2.47,-0.14 -8.94,-14.49 -15.45,-16.52 -3.38,-1.06 -8.27,-0.23 -10.47,-3.75 q -4.9,-7.8 -12.42,-12.9 c -4.73,-3.2 -7.26,-6.43 -10.35,-10.79 -1.98,-2.77 -1.92,-6.55 -4.47,-9.08 -11.35,-11.31 -23.19,-22.51 -32.26,-35.83 A 0.81,0.8 43.4 0 1 286.02,128 q 3.55,-6.01 8.3,-11.07 c 2.39,-2.55 3.36,-5.78 5.91,-8.42 a 0.85,0.85 0 0 1 0.61,-0.26 h 0.37 q 0.07,7.87 0.04,15.76 -0.01,2.24 2.63,3.17 a 1.12,1.12 0 0 0 1.02,-0.15 q 5.12,-3.77 8.51,-9.13 0.63,-1.01 -0.56,-0.97 c -2.76,0.09 -2.24,-1.48 -2.29,-3.31 q -0.31,-10.7 0.23,-21.37 l 0.91,-0.28 a 1.76,1.73 11.2 0 0 0.79,-0.52 l 3.99,-4.55 a 1.17,1.17 0 0 1 0.88,-0.4 h 1.1 q -2.1,14.61 -2.21,29.39 c -0.04,4.2 -2.14,7.3 -4.12,10.78 q -0.78,1.37 0.72,0.89 2.53,-0.8 4.1,-2.92 a 1.35,1.35 0 0 1 2.1,-0.08 c 2.02,2.32 2.61,3.86 6.17,3.52 3.08,-0.29 7.66,-5.82 9.51,-8.21 a 0.34,0.34 0 0 0 -0.18,-0.53 c -4.16,-1.04 -9.54,-2.51 -5.76,-8.12 q 7.98,-11.83 15.32,-23.51 0.96,-1.53 0.65,0.25 -3.18,18.39 -2.33,37.07 a 1.29,1.28 74 0 0 1.91,1.06 q 4.37,-2.46 7.48,-6.44 a 0.54,0.53 -50.5 0 1 0.77,-0.08 q 5.16,4.35 7.97,5.59 c 7.32,3.24 18.57,1 25.12,-2.48 5.3,-2.82 12.21,-9.63 14.94,-14.6 3.46,-6.29 2.75,-14.7 0.54,-21.32 -2.57,-7.74 -9.14,-6.93 -15.71,-6.26 q -0.98,0.1 -0.36,-0.67 c 4.77,-5.9 9.76,-12.01 8.4,-20.26 Q 392.58,54 386.74,54.92 365,58.37 354.99,78.05 q -0.13,0.26 -0.33,0.35 -0.56,0.26 -0.48,-0.35 l 1.34,-9.6 q 0.28,-1.96 -1.41,-0.92 -5.11,3.14 -8.05,8.58 c -6.05,11.19 -13.09,21.95 -19.67,32.32 q -1.38,2.18 -1.19,-0.39 l 1.59,-21.29 q 3.79,-4.65 6.9,-9.74 c 2.35,-3.83 6.07,-7.89 8.09,-12.66 q 0.25,-0.61 -0.14,-0.08 l -7.01,9.4 a 0.71,0.7 30 0 1 -0.84,0.22 c -0.53,-0.24 -0.65,-0.67 -0.36,-1.2 q 3.63,-6.64 4.78,-7.72 C 346.3,57.36 351.78,50.4 358,39.94 Q 367.81,23.47 380.47,9 a 0.47,0.47 0 0 0 -0.15,-0.73 l -0.27,-0.13 a 0.51,0.5 -63.7 0 1 -0.22,-0.67 l 3.24,-6.59 a 0.51,0.49 31.3 0 0 -0.16,-0.62 z"
         inkscape:connector-curvature="0"
         style="fill:#ffffff" />
      <path
         id="path26208"
         d="m 162.53,10.89 q 0.21,-1.41 0.87,-0.15 l 0.62,1.19 q 0.47,0.9 -0.51,0.62 -1.18,-0.35 -0.98,-1.66 z"
         inkscape:connector-curvature="0"
         style="fill:#ffffff" />
      <path
         id="path26210"
         d="m 181.79,22.25 c -0.02,0.9 0.24,3.09 -1.54,2.29 l -3.04,-2.79 -1.42,-3.5 -0.89,-2.19 q -0.28,-0.71 0.27,-0.18 z"
         inkscape:connector-curvature="0"
         style="fill:#bdbdbd" />
      <path
         id="path26212"
         d="m 177.21,21.75 3.04,2.79 c 1.13,0.98 12.37,10.95 11.37,11.66 a 1.03,1.02 47.5 0 1 -1.28,-0.06 q -6.27,-5.46 -11.9,-10.06 -3.12,-2.56 -4.33,-4.91 a 0.35,0.35 0 0 1 0.28,-0.51 q 1.67,-0.14 2.82,1.09 z"
         inkscape:connector-curvature="0"
         style="fill:#ffffff" />
      <path
         id="path26214"
         d="m 107.29,63 3,-2 q 6.39,-3.48 12.41,-1.34 2.51,0.89 2.52,3.54 0.07,13.16 -11.29,19.31 a 0.92,0.91 -30.8 0 1 -1.2,-0.3 c -0.4,-0.61 -0.32,-1.82 0.13,-2.49 q 2.7,-4 2.71,-8.23 0,-2.31 -2.23,-2.85 c -5.62,-1.38 -9.27,-0.08 -12.51,4.91 q -9.89,15.24 -9.93,33.63 c -0.01,9.23 9.92,8.52 16.66,8.11 10.58,-0.64 19.11,-11.02 16.33,-21.53 -0.5,-1.91 -1.29,-4.21 -1.08,-6.09 0.67,-6.07 6.26,-12.45 9.98,-16.17 9.18,-7.54 21.43,-15.44 33.54,-16.52 a 1.66,1.65 76 0 1 1.66,1 c 2.39,5.72 -3.67,11.31 -8.19,13.59 a 0.36,0.36 0 0 1 -0.52,-0.3 l -0.12,-2.7 q -0.12,-2.54 -2.63,-2.16 -9.37,1.4 -17.21,6.69 a 1.8,1.77 73.7 0 0 -0.79,1.47 l -0.05,9.16 a 0.95,0.94 79.6 0 0 1.28,0.89 q 6.81,-2.63 14.09,-2.4 a 0.38,0.38 0 0 1 0.33,0.55 q -4.67,9.08 -14.97,9.08 a 0.65,0.65 0 0 0 -0.62,0.46 q -0.3,0.98 0.04,1.73 0.31,4.42 2.66,12.5 c 1.22,4.23 -5.03,9.73 -8.27,11.85 q -1.91,1.25 -2.65,-0.9 c -0.49,-1.43 -1.46,-11.07 -1.6,-11.14 a 0.65,0.64 -57.3 0 0 -0.8,0.18 c -6.43,8.15 -13.28,15.15 -23.28,18.65 -4.73,1.65 -11.36,1.42 -16.1,0.98 -6.6,-0.62 -6.86,-5.32 -7.25,-10.7 q -0.03,-0.5 -0.4,-0.16 c -9.93,9.17 -16.64,15.49 -30.72,16.95 -8.32,0.86 -13.43,-1.79 -15.93,-9.77 -2.9,-9.25 0.93,-14.49 6.88,-20.68 a 1.2,1.2 0 0 0 0.34,-0.86 c -0.22,-21.41 1.11,-34.58 0.8,-51.81 q -0.02,-1.06 -0.73,-0.28 -0.96,1.05 -2.24,1.66 -2.31,1.09 -0.98,-1.08 c 3.13,-5.12 6.31,-11.34 11.68,-14.41 5.95,-3.41 20.41,-12.19 22.51,-0.09 1.62,9.35 0.78,18.05 -3.86,26.08 q -1.38,2.38 -2.66,4.8 -0.23,0.44 0.21,0.22 c 4.65,-2.28 15.34,-6.54 18.51,-0.03 3,6.16 3.22,11.41 4.19,20.05 q 0.05,0.5 0.34,0.09 C 94.84,76.09 98.57,69.8 107.29,63 Z M 52.57,36.98 a 1.17,1.16 81.4 0 0 -0.83,1.13 q 0.22,17.31 -1.1,34.62 -0.18,2.31 1.79,1.07 C 63.61,66.75 65.41,51.51 62.61,39.2 Q 62,36.51 59.25,36.3 55.79,36.03 52.57,36.98 Z M 71.21,70.25 C 62.6,68.92 56.78,74.99 51.19,81.37 a 1.57,1.52 -25.2 0 0 -0.38,1.01 l -0.09,10.33 a 0.69,0.68 -87.8 0 0 0.63,0.69 c 2.28,0.19 4.57,-0.23 5.79,2.43 a 0.9,0.88 -42 0 1 -0.05,0.84 q -2.31,3.75 -5.85,6.4 a 1.23,1.22 -18.7 0 0 -0.49,0.98 v 10.86 a 1.07,1.06 19.9 0 0 0.39,0.82 l 1.15,0.92 a 0.6,0.6 0 0 1 0.05,0.89 l -2.1,2.08 a 0.45,0.45 0 0 0 0.15,0.73 q 2.94,1.2 6.92,0.73 C 74.55,119.04 80,114.17 79.58,95.94 79.43,89.37 78.86,76.95 74.87,72.18 q -1.32,-1.57 -3.66,-1.93 z"
         inkscape:connector-curvature="0"
         style="fill:#0b0b0b" />
      <path
         id="path26216"
         d="m 110.29,61 -3,2 q -0.7,-1.27 -1.36,-1.67 C 98.47,56.8 91.29,49.64 85.13,44.46 80.24,40.35 77.05,35.83 73.68,30.65 q -0.44,-0.67 0.36,-0.66 L 74.29,30 a 0.99,0.98 -21.2 0 1 0.72,0.31 c 2.59,2.73 6.06,4.58 8.5,6.78 q 11.95,10.83 24.72,20.67 0.91,0.7 2.06,3.24 z"
         inkscape:connector-curvature="0"
         style="fill:#d6d6d6" />
      <path
         id="path26218"
         d="m 285.75,30.71 q 0.18,-0.5 0.72,-0.63 0.62,-0.13 0.21,0.35 l -1.14,1.35 q -1.19,1.39 -0.37,-0.31 0.11,-0.23 0.33,-0.4 a 0.88,0.78 83.2 0 0 0.25,-0.36 z"
         inkscape:connector-curvature="0"
         style="fill:#ffffff" />
      <path
         id="path26220"
         d="m 272.06,65.88 -12.93,6.94 a 0.5,0.5 0 0 1 -0.67,-0.19 c -1.88,-3.32 -2.19,-6.71 -6.43,-7.82 -1.88,-0.49 -3.67,0.55 -5.86,0.37 q -0.64,-3.08 1.65,-5.86 6.5,-7.87 13.34,-14.21 c 3.27,-3.04 5.29,-6.35 7.77,-9.9 q 1.03,-1.47 2.15,-1.15 a 0.56,0.56 0 0 1 0.4,0.65 q -1.54,7.3 -1.09,14.6 0.02,0.29 0.39,8.25 0.2,4.2 1.28,8.32 z"
         inkscape:connector-curvature="0"
         style="fill:#bdbdbd" />
      <path
         id="path26222"
         d="m 276.25,47.65 q -0.34,-2.15 0.21,-3.9 2.34,-4.43 5.75,-8.13 0.42,-0.46 0.14,0.1 z"
         inkscape:connector-curvature="0"
         style="fill:#ffffff" />
      <path
         id="path26224"
         d="m 195.75,38.54 v 1.25 q -2.52,-1.07 -2.99,-3.61 a 0.36,0.35 1.1 0 1 0.43,-0.41 q 1.95,0.46 2.56,2.77 z"
         inkscape:connector-curvature="0"
         style="fill:#ffffff" />
      <path
         id="path26226"
         d="m 276.46,43.75 q -0.55,1.75 -0.21,3.9 c -0.54,4.58 1.53,9.55 -0.26,14.69 a 0.45,0.45 0 0 1 -0.64,0.24 q -1.05,-0.6 -1.09,-1.83 -0.4,-12.06 -0.02,-24.12 a 0.36,0.36 0 0 1 0.51,-0.32 c 0.8,0.37 0.92,5.59 1.71,7.44 z"
         inkscape:connector-curvature="0"
         style="fill:#bdbdbd" />
      <path
         id="path26228"
         d="m 52.57,36.98 q 3.22,-0.95 6.68,-0.68 2.75,0.21 3.36,2.9 c 2.8,12.31 1,27.55 -10.18,34.6 q -1.97,1.24 -1.79,-1.07 1.32,-17.31 1.1,-34.62 a 1.17,1.16 81.4 0 1 0.83,-1.13 z"
         inkscape:connector-curvature="0"
         style="fill:#ffffff" />
      <path
         id="path26230"
         d="m 196.71,40.5 1.29,2.29 q 0.37,1.47 0.26,2.21 -1.34,8.39 -0.97,16.88 a 1,1 0 0 0 0.47,0.81 l 0.99,0.6 -5.36,3.71 2.36,-27.21 v -1.25 q 0.52,-0.45 1.04,-0.29 a 0.35,0.34 -62.6 0 1 0.17,0.55 q -0.6,0.75 -0.25,1.7 z"
         inkscape:connector-curvature="0"
         style="fill:#bdbdbd" />
      <path
         id="path26232"
         d="m 198,42.79 -1.29,-2.29 q -0.05,-0.19 0.06,-0.34 a 0.25,0.24 -53.8 0 1 0.35,-0.06 l 5.18,3.87 q 0.4,0.3 0.62,0.75 c 0.63,1.31 4.24,5.65 3.08,6.75 a 0.5,0.5 0 0 1 -0.72,-0.04 z"
         inkscape:connector-curvature="0"
         style="fill:#ffffff" />
      <path
         id="path26234"
         d="m 318.46,86.5 3.91,-19.06 a 0.41,0.4 -89.5 0 0 -0.47,-0.48 l -8.72,1.55 a 0.8,0.79 -1 0 0 -0.65,0.67 q -1.58,11.58 -1.74,23.07 -0.54,10.67 -0.23,21.37 c 0.05,1.83 -0.47,3.4 2.29,3.31 q 1.19,-0.04 0.56,0.97 -3.39,5.36 -8.51,9.13 a 1.12,1.12 0 0 1 -1.02,0.15 q -2.64,-0.93 -2.63,-3.17 0.03,-7.89 -0.04,-15.76 -0.01,-10.59 0.92,-24.07 c 0.45,-6.38 0.73,-8.84 4.8,-13.75 q 0.33,-0.41 -0.18,-0.28 l -13.57,3.28 a 0.65,0.65 0 0 0 -0.39,0.99 c 2.87,4.21 4.38,8.48 4.66,13.69 0.81,15.12 -6.79,25.35 -19.24,33.39 l -1.21,0.79 c -1.73,0.96 -3.07,1.95 -5.15,1.96 -4.53,0.03 -10.6,1.11 -13.5,-3.22 -1.82,-2.72 -1.07,-8.04 -1.12,-11.51 q -0.02,-1.05 -0.49,-0.11 -5.75,11.54 -17.26,17.29 -0.47,0.23 -0.99,0.25 l -3.43,0.17 a 1.43,1.42 -3 0 0 -1.36,1.5 c 0.16,2.92 -0.16,6.07 -0.12,8.49 q 0.28,17.75 0.18,35.63 a 1.7,1.7 0 0 1 -0.27,0.92 q -2.86,4.49 -7.11,8.02 c -1.08,0.65 -3.14,2.58 -4.18,0.6 a 0.89,0.88 47.9 0 1 0.04,-0.89 q 1.19,-1.87 1.52,-4.13 -0.39,-26.04 0.78,-52.04 a 1.57,1.54 -62.4 0 0 -0.31,-1.02 q -1.71,-2.28 -1.19,-5.15 a 1.53,1.52 -52.9 0 0 -0.12,-0.9 c -3.04,-6.66 2.24,-12.99 2.98,-19.25 q 0.69,-5.94 0.69,-11.83 0.47,-2.89 0.56,-5.1 0.1,-2.42 -0.83,-0.39 -0.65,1.44 -2.22,1.66 -1.13,0.17 -0.54,-0.81 l 3.45,-5.7 a 1.65,1.64 59.4 0 0 0.23,-0.91 q -0.1,-2.06 0.06,-4.06 c 0.32,-4.01 5.08,-7.4 8.24,-9.26 q 1.22,-0.72 1.22,0.69 l -0.02,5.27 q 0,0.7 0.56,0.27 4.04,-3.06 8.87,-3.55 c 2.19,0.18 3.98,-0.86 5.86,-0.37 4.24,1.11 4.55,4.5 6.43,7.82 a 0.5,0.5 0 0 0 0.67,0.19 l 12.93,-6.94 3.62,-1.51 a 1.49,1.45 -47.6 0 1 0.97,-0.06 c 4.92,1.39 7.09,1.31 11.35,4.57 a 1.02,1.01 -35.5 0 0 0.95,0.15 q 2.46,-0.88 4.2,-2.8 a 2.06,1.99 -74.5 0 1 1.04,-0.61 q 16.08,-3.64 31.82,-7.08 2.59,-0.57 3.58,-0.65 2.69,-0.22 2.05,2.41 -3.24,13.19 -4.85,26.45 l -1.59,21.29 q -0.19,2.57 1.19,0.39 c 6.58,-10.37 13.62,-21.13 19.67,-32.32 q 2.94,-5.44 8.05,-8.58 1.69,-1.04 1.41,0.92 l -1.34,9.6 q -0.08,0.61 0.48,0.35 0.2,-0.09 0.33,-0.35 10.01,-19.68 31.75,-23.13 5.84,-0.92 6.75,4.65 c 1.36,8.25 -3.63,14.36 -8.4,20.26 q -0.62,0.77 0.36,0.67 c 6.57,-0.67 13.14,-1.48 15.71,6.26 2.21,6.62 2.92,15.03 -0.54,21.32 -2.73,4.97 -9.64,11.78 -14.94,14.6 -6.55,3.48 -17.8,5.72 -25.12,2.48 q -2.81,-1.24 -7.97,-5.59 a 0.54,0.53 -50.5 0 0 -0.77,0.08 q -3.11,3.98 -7.48,6.44 a 1.29,1.28 74 0 1 -1.91,-1.06 q -0.85,-18.68 2.33,-37.07 0.31,-1.78 -0.65,-0.25 -7.34,11.68 -15.32,23.51 c -3.78,5.61 1.6,7.08 5.76,8.12 a 0.34,0.34 0 0 1 0.18,0.53 c -1.85,2.39 -6.43,7.92 -9.51,8.21 -3.56,0.34 -4.15,-1.2 -6.17,-3.52 a 1.35,1.35 0 0 0 -2.1,0.08 q -1.57,2.12 -4.1,2.92 -1.5,0.48 -0.72,-0.89 c 1.98,-3.48 4.08,-6.58 4.12,-10.78 q 0.11,-14.78 2.21,-29.39 z m 44.03,8.34 q 1.09,-2.19 2.31,-4.32 c 4.79,-8.37 -1.28,-20.42 10.94,-24.85 a 0.81,0.81 0 0 1 1.09,0.79 Q 376.55,74.45 375,82.3 a 0.74,0.74 0 0 0 0.91,0.86 c 7.26,-1.78 9.28,-9.59 8.27,-16.26 q -0.35,-2.31 -2.67,-2.49 c -5.27,-0.42 -17.15,1.34 -17.93,8.42 q -1.09,9.98 -9.12,13.51 -1.58,0.69 -1.74,2.4 -1.3,13.78 -1.1,27.66 a 0.69,0.68 6.7 0 0 0.52,0.65 c 1.95,0.47 7.73,-10.57 10.93,-6.42 q 1.12,1.46 1.27,-0.37 l 1.22,-15.14 a 0.4,0.39 84.5 0 0 -0.5,-0.42 l -2.17,0.62 q -0.75,0.21 -0.4,-0.48 z M 245.54,75.04 q -1.76,-1.48 -4,-1.01 l -4.3,0.9 a 0.67,0.67 0 0 0 -0.52,0.52 q -1.44,6.65 -0.89,13.46 0.04,0.48 0.42,0.18 l 10.59,-8.36 a 2.39,2.39 0 0 0 0.78,-2.65 q -0.63,-1.81 -2.08,-3.04 z m 15.17,18.04 c 1.02,-5.78 4.1,-12.89 6.27,-18.44 q 0.19,-0.48 -0.31,-0.34 -3.77,1.07 -7.09,3.15 a 1.08,1.07 72.2 0 0 -0.5,0.98 l 0.99,14.68 a 0.15,0.15 0 0 0 0.15,0.14 h 0.3 a 0.21,0.19 -84.6 0 0 0.19,-0.17 z m 22.41,14.4 c 0.89,1.05 -4.43,6.34 -5.3,7.14 q -0.37,0.34 0.13,0.38 6.73,0.5 8.67,-6.42 6.08,-21.71 -12.38,-33.96 a 0.53,0.53 0 0 0 -0.81,0.31 q -3.95,14.61 -3.1,30 c 0.21,3.95 2.05,6.18 6.01,6.3 a 1.72,1.7 28 0 0 1,-0.3 l 5.14,-3.54 a 0.48,0.48 0 0 1 0.64,0.09 z m -49.55,2.97 c -0.89,5.95 4.23,10.01 9.67,7.6 q 0.42,-0.18 0.88,-0.23 l 2.44,-0.24 a 0.97,0.97 0 0 0 0.8,-0.6 c 4.25,-10.81 2.64,-20.88 2.23,-31.92 q -0.07,-1.84 -1.58,-0.78 l -11.07,7.79 q -1.9,1.34 -1.99,3.67 -0.25,7.05 -1.38,14.71 z m 142.27,-0.2 q -2.1,3.46 -5.31,5.91 -0.52,0.4 0.12,0.54 c 6.03,1.33 22.32,2.07 22.77,-7.22 0.59,-12.11 -0.92,-22.88 -16.69,-19.6 a 2.5,2.49 -88.9 0 0 -1.91,1.84 q -2.24,8.93 1.12,17.4 a 1.28,1.28 0 0 1 -0.1,1.13 z"
         inkscape:connector-curvature="0"
         style="fill:#0b0b0b" />
      <path
         id="path26236"
         d="m 216.21,102.25 -0.06,25.17 q 0,0.96 0.69,0.3 l 1.34,-1.26 a 0.33,0.32 60.7 0 1 0.54,0.16 c 1.09,4.04 -5.92,10.41 -8.59,11.94 q -3.31,1.91 -3.32,-1.91 L 206.71,115 q 0.51,-23.4 5.65,-46.86 0.44,-2.01 -1.61,-1.89 -3.81,0.22 -8.5,1.96 -3.07,0.67 -3.02,4.04 0.25,16.86 -0.02,42.97 c -0.05,4.6 -4.77,8.24 -8.52,10.06 a 0.43,0.42 76.7 0 1 -0.61,-0.38 q -0.38,-23.39 0.34,-46.81 c 0.07,-2.15 1.23,-4 1.17,-6.09 q -0.1,-2.78 1.8,-5 l 5.36,-3.71 c 3.89,-1.69 17.82,-7.44 21.5,-6.45 q 2.08,0.57 1.63,2.68 -4.66,21.72 -5.67,42.73 z"
         inkscape:connector-curvature="0"
         style="fill:#0b0b0b" />
      <path
         id="path26238"
         d="m 362.89,95.32 2.17,-0.62 a 0.4,0.39 84.5 0 1 0.5,0.42 l -1.22,15.14 q -0.15,1.83 -1.27,0.37 c -3.2,-4.15 -8.98,6.89 -10.93,6.42 a 0.69,0.68 6.7 0 1 -0.52,-0.65 q -0.2,-13.88 1.1,-27.66 0.16,-1.71 1.74,-2.4 8.03,-3.53 9.12,-13.51 c 0.78,-7.08 12.66,-8.84 17.93,-8.42 q 2.32,0.18 2.67,2.49 c 1.01,6.67 -1.01,14.48 -8.27,16.26 A 0.74,0.74 0 0 1 375,82.3 q 1.55,-7.85 1.83,-15.84 a 0.81,0.81 0 0 0 -1.09,-0.79 c -12.22,4.43 -6.15,16.48 -10.94,24.85 q -1.22,2.13 -2.31,4.32 -0.35,0.69 0.4,0.48 z"
         inkscape:connector-curvature="0"
         style="fill:#ffffff" />
      <path
         id="path26240"
         d="m 206.71,115 -1.6,5.33 a 0.63,0.63 0 0 1 -0.66,0.44 q -1.04,-0.09 -1.87,0.31 -2.36,1.14 -1.49,3.61 2.77,7.91 1.58,16.14 a 0.93,0.9 26 0 0 0.3,0.83 l 3.07,2.75 q 0.54,0.49 -0.18,0.42 c -2.81,-0.29 -1.74,4.58 -1.83,6.48 -0.24,4.94 6.94,9.69 9.05,12.37 q 4.54,5.77 8.3,8.3 a 0.28,0.28 0 0 1 0.12,0.25 l -0.01,0.35 a 0.49,0.48 5.9 0 1 -0.56,0.45 l -1.36,-0.22 a 0.47,0.47 0 0 0 -0.53,0.58 q 0.84,3.29 4.72,3.87 -0.33,2.26 -1.52,4.13 a 0.89,0.88 47.9 0 0 -0.04,0.89 c 1.04,1.98 3.1,0.05 4.18,-0.6 l 6.99,6.87 a 0.84,0.84 0 0 0 1.2,-0.02 c 3.95,-4.08 7.62,-6.33 9.49,-12.77 q 0.13,-0.47 0.08,-0.96 c -0.21,-2.13 7.02,-9.27 8.55,-8.33 a 0.43,0.43 0 0 1 0.09,0.67 c -2.02,2.13 -9.28,11.64 -8.16,14.4 a 0.34,0.34 0 0 0 0.58,0.09 l 9.94,-12.74 a 1.78,1.74 67.6 0 0 0.38,-0.94 q 0.35,-3.8 1.3,-4.89 8.05,-9.23 14.71,-19.52 c 0.29,1.01 1.05,6.24 -0.01,6.83 q -0.54,0.29 -0.52,-0.32 l 0.01,-0.48 q 0.07,-2.38 -0.75,-0.15 l -0.38,1.03 a 0.89,0.88 37.2 0 0 0.12,0.84 c 1.14,1.5 3.21,7.71 6.09,4.62 a 0.31,0.3 -34.8 0 1 0.51,0.09 c 1.55,3.96 6.43,15.49 5.13,19.25 q -3.2,9.28 -3.15,17.9 c 0.02,2.93 -0.33,5.98 0.19,9.84 q 0.58,4.25 -0.25,17.49 0.34,1.26 1.23,2.23 0.57,5.01 -1.11,9.85 a 0.4,0.4 0 0 1 -0.6,0.2 q -5.59,-3.73 -9.46,-9.16 c -4.63,-6.47 -11.52,-12.15 -16.95,-18.11 q -1.96,-2.15 -4.96,-4.19 -6.5,-4.43 -11.49,-10.8 a 1.06,1.06 0 0 0 -1.58,-0.1 c -7.39,7.37 -12.09,13.43 -18.27,24.51 -1.48,2.63 -2.74,6.62 -5,9.63 a 0.42,0.42 0 0 1 -0.64,0.04 c -0.56,-0.58 1.65,-5.31 1.97,-6.37 q 0.15,-0.49 -0.19,-0.11 l -4.47,5.11 q -2.7,8.19 -2.91,16.84 L 197.07,240 q 0.76,-15.23 -0.29,-30.43 a 0.43,0.43 0 0 1 0.43,-0.47 q 0.94,0 1.08,-0.85 l 3.8,5.26 a 0.8,0.79 -35.6 0 0 1.1,0.18 q 4.46,-3.15 7.89,-7.41 a 1.91,1.9 44.9 0 0 -0.01,-2.4 q -7.8,-9.52 -9.86,-21.71 -0.31,-1.83 1,-3.15 c 0.95,-0.95 4.26,-4.03 4.16,-5.82 a 0.43,0.43 0 0 0 -0.56,-0.39 l -4.6,1.48 a 1.36,1.36 0 0 1 -1.78,-1.27 l -0.25,-15.52 a 1.67,1.64 -27.4 0 1 0.34,-1.03 c 0.63,-0.82 2.82,-2.65 0.98,-3.51 l 1.37,-0.88 a 0.61,0.61 0 0 0 0.24,-0.74 c -1.43,-3.46 -0.15,-4.47 -0.18,-7.69 a 1.23,1.22 22.2 0 0 -0.36,-0.84 L 196.75,138 q -0.35,-0.35 -0.81,-0.51 l -4.02,-1.38 0.12,-1.11 q 1.52,-2.1 1.64,-4.73 a 1.35,1.34 -84.4 0 1 1.54,-1.27 l 1.45,0.23 a 0.71,0.71 0 0 0 0.78,-0.48 q 1.64,-4.9 4.76,-9.15 1.47,-1.99 1.72,-4.45 0.16,-1.54 -0.08,-2.87 c -1.23,-6.81 1.82,-16.67 -1.95,-23.13 a 0.78,0.76 47.7 0 1 0.03,-0.83 q 1.87,-2.62 1.75,-4.38 -0.49,-7.7 -0.85,-15.39 a 0.32,0.32 0 0 0 -0.27,-0.29 l -0.31,-0.05 q 4.69,-1.74 8.5,-1.96 2.05,-0.12 1.61,1.89 -5.14,23.46 -5.65,46.86 z m 47.67,87.57 0.46,2.37 a 0.77,0.75 8.4 0 0 0.4,0.53 l 2.01,1.04 q 0.46,0.24 0.42,-0.28 c -0.26,-2.88 -4.85,-3.21 -1.99,-7.12 q 1.16,-1.58 -0.32,-2.86 c -1.05,-0.91 -9.61,-7.85 -10.39,-7.26 a 0.41,0.4 -41.6 0 0 -0.04,0.62 l 4.18,3.95 a 0.61,0.61 0 0 1 0.08,0.81 q -1.01,1.44 0.24,2.7 a 0.8,0.79 -56.5 0 1 0.17,0.86 q -1,2.55 1.53,3.49 a 0.9,0.89 -84.8 0 1 0.56,0.68 l 0.19,1.13 q 0.13,0.73 0.62,0.18 l 0.98,-1.09 q 0.71,-0.78 0.9,0.25 z m 4.9571,1.7988 a 1.73,1.14 79.1 0 0 0.7923,-1.9144 1.73,1.14 79.1 0 0 -1.4465,-1.4832 1.73,1.14 79.1 0 0 -0.7923,1.9144 1.73,1.14 79.1 0 0 1.4465,1.4832 z"
         inkscape:connector-curvature="0"
         style="fill:#bdbdbd" />
      <path
         id="path26242"
         d="m 318.46,86.5 h -1.1 a 1.17,1.17 0 0 0 -0.88,0.4 l -3.99,4.55 a 1.76,1.73 11.2 0 1 -0.79,0.52 l -0.91,0.28 q 0.16,-11.49 1.74,-23.07 a 0.8,0.79 -1 0 1 0.65,-0.67 l 8.72,-1.55 a 0.41,0.4 -89.5 0 1 0.47,0.48 z"
         inkscape:connector-curvature="0"
         style="fill:#d6d6d6" />
      <path
         id="path26244"
         d="m 74.87,72.18 c 3.99,4.77 4.56,17.19 4.71,23.76 0.42,18.23 -5.03,23.1 -22.27,25.14 q -3.98,0.47 -6.92,-0.73 a 0.45,0.45 0 0 1 -0.15,-0.73 l 2.1,-2.08 a 0.6,0.6 0 0 0 -0.05,-0.89 l -1.15,-0.92 a 1.07,1.06 19.9 0 1 -0.39,-0.82 v -10.86 a 1.23,1.22 -18.7 0 1 0.49,-0.98 q 3.54,-2.65 5.85,-6.4 a 0.9,0.88 -42 0 0 0.05,-0.84 C 55.92,93.17 53.63,93.59 51.35,93.4 a 0.69,0.68 -87.8 0 1 -0.63,-0.69 l 0.09,-10.33 a 1.57,1.52 -25.2 0 1 0.38,-1.01 C 56.78,74.99 62.6,68.92 71.21,70.25 q 2.34,0.36 3.66,1.93 z"
         inkscape:connector-curvature="0"
         style="fill:#ffffff" />
      <path
         id="path26246"
         d="m 301.21,108.25 h -0.37 a 0.85,0.85 0 0 0 -0.61,0.26 c -2.55,2.64 -3.52,5.87 -5.91,8.42 q -4.75,5.06 -8.3,11.07 a 0.81,0.8 43.4 0 0 0.03,0.85 c 9.07,13.32 20.91,24.52 32.26,35.83 2.55,2.53 2.49,6.31 4.47,9.08 3.09,4.36 5.62,7.59 10.35,10.79 q 7.52,5.1 12.42,12.9 c 2.2,3.52 7.09,2.69 10.47,3.75 6.51,2.03 12.98,16.38 15.45,16.52 a 0.5,0.5 0 0 0 0.53,-0.5 v -0.77 a 0.61,0.61 0 0 1 0.84,-0.56 l 3.23,1.33 q 0.47,0.2 0.98,0.18 1.57,-0.06 1.17,-1.67 -0.34,-1.35 0.72,-0.44 l 6.63,5.72 q 1.13,0.97 -0.34,1.22 c -2.22,0.37 -4.71,-2.5 -6.14,-3.97 a 0.67,0.66 -37.1 0 0 -0.81,-0.11 c -2.41,1.43 6.28,8.15 7.43,9.13 a 1.55,1.5 15.4 0 1 0.51,0.87 q 1.37,6.97 7.77,10.05 a 0.87,0.87 0 0 1 0.5,0.8 q -0.01,0.77 -0.8,1 h -87.75 l -5.45,-0.45 a 0.75,0.75 0 0 1 -0.64,-0.52 c -1.53,-4.73 -4.6,-4.8 -7.56,-7.81 -2.82,-2.88 -11.12,-11.62 -13.77,-10.74 q 0.83,-13.24 0.25,-17.49 c -0.52,-3.86 -0.17,-6.91 -0.19,-9.84 q -0.05,-8.62 3.15,-17.9 c 1.3,-3.76 -3.58,-15.29 -5.13,-19.25 a 0.31,0.3 -34.8 0 0 -0.51,-0.09 c -2.88,3.09 -4.95,-3.12 -6.09,-4.62 a 0.89,0.88 37.2 0 1 -0.12,-0.84 l 0.38,-1.03 q 0.82,-2.23 0.75,0.15 l -0.01,0.48 q -0.02,0.61 0.52,0.32 c 1.06,-0.59 0.3,-5.82 0.01,-6.83 l 1.26,-3.54 c 1.96,0.5 0.95,4.03 1.9,5.82 a 1.14,1.13 42.2 0 1 0.05,0.96 q -1.06,2.57 0.95,4.23 0.57,0.47 0.67,-0.26 0.54,-4.06 -0.24,-7.96 c -0.33,-1.65 -0.1,-2.86 -0.12,-4.5 l 1.75,-1.33 0.7,0.04 a 1.39,1.36 -61.1 0 0 0.94,-0.28 q 2.97,-2.22 4.03,-5.72 a 1.3,1.29 85.1 0 1 0.65,-0.78 l 0.25,-0.13 a 0.87,0.87 0 0 0 0.43,-1.08 l -1.72,-4.57 q -0.3,-0.78 -0.54,0.01 -0.31,1.03 -1.24,1.55 a 0.74,0.73 -38.7 0 1 -0.85,-0.09 q -1.9,-1.75 -2.19,-4.41 c 12.45,-8.04 20.05,-18.27 19.24,-33.39 -0.28,-5.21 -1.79,-9.48 -4.66,-13.69 a 0.65,0.65 0 0 1 0.39,-0.99 l 13.57,-3.28 q 0.51,-0.13 0.18,0.28 c -4.07,4.91 -4.35,7.37 -4.8,13.75 q -0.93,13.48 -0.92,24.07 z m 30.12,79.04 0.15,1.51 a 0.53,0.53 0 0 0 0.63,0.47 l 3.22,-0.63 a 0.52,0.52 0 0 0 0.38,-0.7 q -0.83,-2.11 -3.23,-1.97 a 1.22,1.21 -4.1 0 0 -1.15,1.32 z m 0.92,5.22 q 4.59,4.82 10.46,7.95 a 0.7,0.69 -53.5 0 0 0.83,-0.13 c 1,-1.03 -6.2,-8.22 -7.27,-9.57 a 0.89,0.87 62.8 0 0 -0.9,-0.3 l -2.73,0.68 a 0.82,0.82 0 0 0 -0.39,1.37 z m -33.31,42.25 c 2.9,-5.22 -7.33,-10.96 -10.95,-12.91 q -0.39,-0.21 -0.64,-0.57 l -1.25,-1.79 q -0.61,-0.87 -0.48,0.18 l 0.55,4.33 a 1.81,1.73 -70.1 0 0 0.4,0.91 q 1.98,2.34 4.78,3.64 0.5,0.24 0.84,0.67 2.68,3.35 6.33,5.65 a 0.3,0.3 0 0 0 0.42,-0.11 z"
         inkscape:connector-curvature="0"
         style="fill:#d6d6d6" />
      <path
         id="path26248"
         d="m 245.54,75.04 q 1.45,1.23 2.08,3.04 a 2.39,2.39 0 0 1 -0.78,2.65 l -10.59,8.36 q -0.38,0.3 -0.42,-0.18 -0.55,-6.81 0.89,-13.46 a 0.67,0.67 0 0 1 0.52,-0.52 l 4.3,-0.9 q 2.24,-0.47 4,1.01 z"
         inkscape:connector-curvature="0"
         style="fill:#bdbdbd" />
      <path
         id="path26250"
         d="m 266.98,74.64 c -2.17,5.55 -5.25,12.66 -6.27,18.44 a 0.21,0.19 -84.6 0 1 -0.19,0.17 h -0.3 a 0.15,0.15 0 0 1 -0.15,-0.14 l -0.99,-14.68 a 1.08,1.07 72.2 0 1 0.5,-0.98 q 3.32,-2.08 7.09,-3.15 0.5,-0.14 0.31,0.34 z"
         inkscape:connector-curvature="0"
         style="fill:#bdbdbd" />
      <path
         id="path26252"
         d="m 282.48,107.39 -5.14,3.54 a 1.72,1.7 28 0 1 -1,0.3 c -3.96,-0.12 -5.8,-2.35 -6.01,-6.3 q -0.85,-15.39 3.1,-30 a 0.53,0.53 0 0 1 0.81,-0.31 q 18.46,12.25 12.38,33.96 -1.94,6.92 -8.67,6.42 -0.5,-0.04 -0.13,-0.38 c 0.87,-0.8 6.19,-6.09 5.3,-7.14 a 0.48,0.48 0 0 0 -0.64,-0.09 z"
         inkscape:connector-curvature="0"
         style="fill:#d6d6d6" />
      <path
         id="path26254"
         d="m 243.24,118.05 c -5.44,2.41 -10.56,-1.65 -9.67,-7.6 q 1.13,-7.66 1.38,-14.71 0.09,-2.33 1.99,-3.67 l 11.07,-7.79 q 1.51,-1.06 1.58,0.78 c 0.41,11.04 2.02,21.11 -2.23,31.92 a 0.97,0.97 0 0 1 -0.8,0.6 l -2.44,0.24 q -0.46,0.05 -0.88,0.23 z"
         inkscape:connector-curvature="0"
         style="fill:#ababab" />
      <path
         id="path26256"
         d="m 226.59,87.07 q 0,5.89 -0.69,11.83 c -0.74,6.26 -6.02,12.59 -2.98,19.25 a 1.53,1.52 -52.9 0 1 0.12,0.9 q -0.52,2.87 1.19,5.15 a 1.57,1.54 -62.4 0 1 0.31,1.02 q -1.17,26 -0.78,52.04 -3.88,-0.58 -4.72,-3.87 a 0.47,0.47 0 0 1 0.53,-0.58 l 1.36,0.22 a 0.49,0.48 5.9 0 0 0.56,-0.45 l 0.01,-0.35 a 0.28,0.28 0 0 0 -0.12,-0.25 q -3.76,-2.53 -8.3,-8.3 c -2.11,-2.68 -9.29,-7.43 -9.05,-12.37 0.09,-1.9 -0.98,-6.77 1.83,-6.48 q 0.72,0.07 0.18,-0.42 l -3.07,-2.75 a 0.93,0.9 26 0 1 -0.3,-0.83 q 1.19,-8.23 -1.58,-16.14 -0.87,-2.47 1.49,-3.61 0.83,-0.4 1.87,-0.31 a 0.63,0.63 0 0 0 0.66,-0.44 l 1.6,-5.33 0.1,21.65 q 0.01,3.82 3.32,1.91 c 2.67,-1.53 9.68,-7.9 8.59,-11.94 a 0.33,0.32 60.7 0 0 -0.54,-0.16 l -1.34,1.26 q -0.69,0.66 -0.69,-0.3 l 0.06,-25.17 c 0.44,1.23 1.29,1.53 2.27,0.54 q 6.6,-6.6 8.11,-15.72 z"
         inkscape:connector-curvature="0"
         style="fill:#ababab" />
      <path
         id="path26258"
         d="m 375.94,109.12 q -3.36,-8.47 -1.12,-17.4 a 2.5,2.49 -88.9 0 1 1.91,-1.84 c 15.77,-3.28 17.28,7.49 16.69,19.6 -0.45,9.29 -16.74,8.55 -22.77,7.22 q -0.64,-0.14 -0.12,-0.54 3.21,-2.45 5.31,-5.91 a 1.28,1.28 0 0 0 0.1,-1.13 z"
         inkscape:connector-curvature="0"
         style="fill:#ffffff" />
      <path
         id="path26260"
         d="m 277,122.29 q 0.13,3.22 -0.83,6.21 a 1.87,1.82 48.6 0 0 -0.05,0.98 l 1.63,7.48 -1.75,1.33 q -1.38,0.31 -2.07,-0.57 a 1.35,1.33 29.4 0 1 -0.27,-0.94 q 0.51,-5.18 -0.61,-10.22 a 0.73,0.72 83.2 0 0 -0.72,-0.57 l -0.5,0.01 a 0.58,0.58 0 0 0 -0.56,0.51 q -0.95,6.91 1.52,13.49 l -1.26,3.54 q -6.66,10.29 -14.71,19.52 -0.95,1.09 -1.3,4.89 a 1.78,1.74 67.6 0 1 -0.38,0.94 l -9.94,12.74 a 0.34,0.34 0 0 1 -0.58,-0.09 c -1.12,-2.76 6.14,-12.27 8.16,-14.4 a 0.43,0.43 0 0 0 -0.09,-0.67 c -1.53,-0.94 -8.76,6.2 -8.55,8.33 q 0.05,0.49 -0.08,0.96 c -1.87,6.44 -5.54,8.69 -9.49,12.77 a 0.84,0.84 0 0 1 -1.2,0.02 l -6.99,-6.87 q 4.25,-3.53 7.11,-8.02 a 1.7,1.7 0 0 0 0.27,-0.92 q 0.1,-17.88 -0.18,-35.63 c -0.04,-2.42 0.28,-5.57 0.12,-8.49 a 1.43,1.42 -3 0 1 1.36,-1.5 l 3.43,-0.17 q 0.52,-0.02 0.99,-0.25 11.51,-5.75 17.26,-17.29 0.47,-0.94 0.49,0.11 c 0.05,3.47 -0.7,8.79 1.12,11.51 2.9,4.33 8.97,3.25 13.5,3.22 2.08,-0.01 3.42,-1 5.15,-1.96 z"
         inkscape:connector-curvature="0"
         style="fill:#ababab" />
      <path
         id="path26262"
         d="m 169.04,111 c -9.69,11.67 -27.45,16.42 -42.02,15.99 a 0.35,0.34 -78.3 0 1 -0.31,-0.48 c 2.34,-5.67 6.39,-8.38 12.55,-8.57 q 14.61,-0.47 27.69,-8.06 0.85,-0.32 1.97,-0.23 a 0.57,0.56 3.6 0 1 0.53,0.59 q -0.02,0.4 -0.41,0.76 z"
         inkscape:connector-curvature="0"
         style="fill:#0b0b0b" />
      <path
         id="path26264"
         d="m 278.21,121.5 q 0.29,2.66 2.19,4.41 a 0.74,0.73 -38.7 0 0 0.85,0.09 q 0.93,-0.52 1.24,-1.55 0.24,-0.79 0.54,-0.01 l 1.72,4.57 a 0.87,0.87 0 0 1 -0.43,1.08 l -0.25,0.13 a 1.3,1.29 85.1 0 0 -0.65,0.78 q -1.06,3.5 -4.03,5.72 a 1.39,1.36 -61.1 0 1 -0.94,0.28 l -0.7,-0.04 -1.63,-7.48 a 1.87,1.82 48.6 0 1 0.05,-0.98 q 0.96,-2.99 0.83,-6.21 z"
         inkscape:connector-curvature="0"
         style="fill:#bdbdbd" />
      <path
         id="path26266"
         d="m 276,138.29 c 0.02,1.64 -0.21,2.85 0.12,4.5 q 0.78,3.9 0.24,7.96 -0.1,0.73 -0.67,0.26 -2.01,-1.66 -0.95,-4.23 a 1.14,1.13 42.2 0 0 -0.05,-0.96 c -0.95,-1.79 0.06,-5.32 -1.9,-5.82 q -2.47,-6.58 -1.52,-13.49 a 0.58,0.58 0 0 1 0.56,-0.51 l 0.5,-0.01 a 0.73,0.72 83.2 0 1 0.72,0.57 q 1.12,5.04 0.61,10.22 a 1.35,1.33 29.4 0 0 0.27,0.94 q 0.69,0.88 2.07,0.57 z"
         inkscape:connector-curvature="0"
         style="fill:#bdbdbd" />
      <path
         id="path26268"
         d="m 191.92,136.11 4.02,1.38 q 0.46,0.16 0.81,0.51 l 4.82,4.81 a 1.23,1.22 22.2 0 1 0.36,0.84 c 0.03,3.22 -1.25,4.23 0.18,7.69 a 0.61,0.61 0 0 1 -0.24,0.74 l -1.37,0.88 q -1.53,-0.29 -1.89,-1.8 a 0.5,0.5 0 0 0 -0.83,-0.25 c -1.48,1.38 -2.86,2.47 -4.9,3.11 q -11.69,3.66 -21.89,10.46 a 0.43,0.42 61.7 0 1 -0.63,-0.19 c -0.69,-1.72 4.61,-7.8 5.78,-9.41 q 2.08,-1.67 3.59,-3.83 2.72,-3.88 3.01,-4.23 4.52,-5.4 9.18,-10.71 z"
         inkscape:connector-curvature="0"
         style="fill:#d6d6d6" />
      <path
         id="path26270"
         d="m 176.14,154.88 c -1.17,1.61 -6.47,7.69 -5.78,9.41 a 0.43,0.42 61.7 0 0 0.63,0.19 q 10.2,-6.8 21.89,-10.46 c 2.04,-0.64 3.42,-1.73 4.9,-3.11 a 0.5,0.5 0 0 1 0.83,0.25 q 0.36,1.51 1.89,1.8 c 1.84,0.86 -0.35,2.69 -0.98,3.51 a 1.67,1.64 -27.4 0 0 -0.34,1.03 l 0.25,15.52 a 1.36,1.36 0 0 0 1.78,1.27 l 4.6,-1.48 a 0.43,0.43 0 0 1 0.56,0.39 c 0.1,1.79 -3.21,4.87 -4.16,5.82 q -1.31,1.32 -1,3.15 2.06,12.19 9.86,21.71 a 1.91,1.9 44.9 0 1 0.01,2.4 q -3.43,4.26 -7.89,7.41 a 0.8,0.79 -35.6 0 1 -1.1,-0.18 l -3.8,-5.26 q -4.91,-8.69 -6.53,-17.38 -0.35,-1.87 -1.25,-0.19 -4.44,8.28 -8.37,16.66 c -4.48,9.57 -11.33,16.14 -20.34,21.63 q -1.55,0.94 -0.78,-0.7 c 2.26,-4.88 7.23,-7.03 10.51,-11.23 q 1.44,-1.84 3.29,-5.98 6.27,-14.06 15.68,-26.27 0.4,-0.52 -0.24,-0.38 -9.89,2.13 -20.01,1.5 a 1,1 0 0 0 -1.06,1.02 c 0.09,3.94 -0.66,17.46 1.76,19.95 a 1.15,1.13 46.1 0 1 -0.02,1.62 l -7.17,6.95 q -1.84,1.79 -2.84,-0.58 -1,-2.36 -0.98,-5.87 0.09,-14.75 0.02,-29.5 l 1.19,-8.18 q 0.05,-0.33 -0.23,-0.14 l -11,7.52 q -1.46,0.99 -1.25,2.74 l 1.58,13.35 1.32,6.72 a 1.34,1.31 -35.8 0 1 -0.16,0.91 q -3.14,5.23 -8.16,8.79 -0.54,0.25 -1.03,0.19 a 0.56,0.55 1.3 0 1 -0.48,-0.5 l -0.94,-8.85 q -0.1,-0.88 -0.77,-0.32 c -12.86,10.65 -25.02,10.75 -41.49,10.48 q -0.94,-0.01 -0.29,-0.7 2.52,-2.64 3.12,-6.19 0.17,-1.02 -0.58,-0.3 c -2.66,2.55 -7.71,8.36 -11.14,8.9 -3.56,0.56 -5.17,-2.54 -5.18,-5.79 Q 84.4,188.9 88,169.91 q 0.22,-1.14 -0.43,-0.18 -3.17,4.7 -6.71,9.43 c -1.45,1.93 -1.84,2.03 -0.08,3.84 a 1.89,1.89 0 0 1 0.26,2.3 q -2.81,4.58 -7.7,7 a 1.03,1.03 0 0 1 -1.06,-0.1 l -1.13,-0.84 a 0.64,0.64 0 0 0 -0.9,0.12 q -4.29,5.61 -9.78,10.02 a 1.02,0.99 -21.7 0 0 -0.38,0.84 c 0.17,3.85 -4.36,7.11 -6.9,9.82 q -2.29,2.44 -2.48,-0.9 -0.12,-2.12 0.15,-6.08 1.25,-18.2 0.82,-36.53 -0.04,-1.64 1,-2.91 l 4.26,-5.27 a 1.43,1.43 0 0 0 0.31,-0.89 v -4.74 a 1.63,1.61 63.6 0 1 0.32,-0.97 q 3.3,-4.4 8,-7.21 a 0.45,0.44 69.6 0 1 0.67,0.31 q 2.85,16.47 10.52,31.29 a 0.37,0.37 0 0 0 0.63,0.04 q 5.62,-8.15 11.11,-16.58 c 4.15,-6.36 3.6,-12.76 11.56,-16.48 a 0.8,0.79 72.6 0 1 1.12,0.59 c 0.14,0.84 0.2,2.19 -0.17,3.12 q -3.53,8.8 -4.64,18.34 -0.1,0.84 0.34,0.11 c 8.1,-13.42 26.64,-20.86 41.46,-22.63 a 3.23,3.2 -27.9 0 1 2.48,0.75 c 2.81,2.42 -5.57,8.98 -7.25,10.39 a 0.63,0.62 -42.9 0 1 -0.85,-0.03 l -1.27,-1.26 a 1.36,1.33 -21 0 0 -0.9,-0.39 c -6.87,-0.24 -16.5,3.26 -21.64,6.07 q -3.64,1.99 -0.84,5.66 a 0.42,0.42 0 0 0 0.66,0.02 q 2.14,-2.6 5.04,-4.37 3.55,-2.17 1.55,1.48 -2.34,4.26 -2.95,9.11 a 0.77,0.77 0 0 0 1.01,0.83 q 8.6,-2.79 17.48,-4.07 5.21,-0.75 1.78,3.24 -3.08,3.57 -6.9,6.26 a 1.69,1.63 27.1 0 1 -0.99,0.3 q -6.04,-0.18 -11.89,1.33 a 1.83,1.82 -7.7 0 0 -1.37,1.79 l 0.2,20.37 a 0.49,0.48 -87.3 0 0 0.42,0.47 q 14.68,1.83 27.7,-4.68 a 0.72,0.72 0 0 0 0.4,-0.69 l -0.69,-12.64 a 0.31,0.31 0 0 0 -0.43,-0.27 c -2.5,0.98 -9.96,4.62 -12.24,4.34 a 0.9,0.82 -69.2 0 1 -0.53,-1.35 q 4.54,-7.22 12.83,-9.07 a 0.62,0.61 -6.5 0 0 0.48,-0.6 c 0.12,-9.93 -3.18,-22.3 8.71,-27.17 a 0.42,0.42 0 0 1 0.58,0.39 v 22.31 a 0.52,0.52 0 0 0 0.77,0.46 l 11.89,-6.52 a 0.92,0.91 -14.4 0 0 0.48,-0.8 q 0.13,-10.95 9.53,-16.57 2.6,-1.56 4.99,0.06 a 0.82,0.81 21.5 0 1 0.35,0.8 z m -6.62,18.16 c 1.85,5.17 14.51,3.81 20,3.6 a 0.46,0.46 0 0 0 0.44,-0.5 l -1.08,-12.96 a 0.85,0.85 0 0 0 -1.09,-0.74 q -8.29,2.5 -16.19,6.1 c -2,0.91 -2.81,2.47 -2.08,4.5 z m -70.86,10.54 1.42,-2.78 a 1.44,1.39 54.6 0 0 0.13,-0.85 q -0.91,-5.41 -3.97,-10.06 -0.27,-0.43 -0.33,0.08 c -0.47,4.24 -3.84,31.94 -0.83,33.96 a 1.48,1.47 -60.6 0 0 2.16,-0.61 c 1.3,-2.79 8.54,-19.54 1.79,-19.18 q -0.68,0.04 -0.37,-0.56 z M 61,173.25 c 0.05,7.59 -0.63,14.73 -0.73,22.51 a 0.4,0.39 -13.6 0 0 0.58,0.35 q 4.64,-2.46 7.46,-6.98 a 0.79,0.78 45.9 0 0 0.01,-0.81 q -4.13,-7.23 -6.83,-15.11 -0.06,-0.18 -0.21,-0.2 A 0.24,0.24 0 0 0 61,173.25 Z"
         inkscape:connector-curvature="0"
         style="fill:#0b0b0b" />
      <path
         id="path26272"
         d="m 169.52,173.04 c -0.73,-2.03 0.08,-3.59 2.08,-4.5 q 7.9,-3.6 16.19,-6.1 a 0.85,0.85 0 0 1 1.09,0.74 l 1.08,12.96 a 0.46,0.46 0 0 1 -0.44,0.5 c -5.49,0.21 -18.15,1.57 -20,-3.6 z"
         inkscape:connector-curvature="0"
         style="fill:#d6d6d6" />
      <path
         id="path26274"
         d="m 99.03,184.14 c 6.75,-0.36 -0.49,16.39 -1.79,19.18 a 1.48,1.47 -60.6 0 1 -2.16,0.61 c -3.01,-2.02 0.36,-29.72 0.83,-33.96 q 0.06,-0.51 0.33,-0.08 3.06,4.65 3.97,10.06 a 1.44,1.39 54.6 0 1 -0.13,0.85 l -1.42,2.78 q -0.31,0.6 0.37,0.56 z"
         inkscape:connector-curvature="0"
         style="fill:#ffffff" />
      <path
         id="path26276"
         d="m 159.96,179.5 q -5.31,7.35 -9.71,15.29 l -1.58,-13.35 q -0.21,-1.75 1.25,-2.74 l 11,-7.52 q 0.28,-0.19 0.23,0.14 z"
         inkscape:connector-curvature="0"
         style="fill:#ffffff" />
      <path
         id="path26278"
         d="m 60.27,195.76 c 0.1,-7.78 0.78,-14.92 0.73,-22.51 a 0.24,0.24 0 0 1 0.28,-0.24 q 0.15,0.02 0.21,0.2 2.7,7.88 6.83,15.11 a 0.79,0.78 45.9 0 1 -0.01,0.81 q -2.82,4.52 -7.46,6.98 a 0.4,0.39 -13.6 0 1 -0.58,-0.35 z"
         inkscape:connector-curvature="0"
         style="fill:#ffffff" />
      <path
         id="path26280"
         d="m 159.96,179.5 q 0.07,14.75 -0.02,29.5 -0.02,3.51 0.98,5.87 1,2.37 2.84,0.58 l 7.17,-6.95 a 1.15,1.13 46.1 0 0 0.02,-1.62 c -2.42,-2.49 -1.67,-16.01 -1.76,-19.95 a 1,1 0 0 1 1.06,-1.02 q 10.12,0.63 20.01,-1.5 0.64,-0.14 0.24,0.38 -9.41,12.21 -15.68,26.27 -1.85,4.14 -3.29,5.98 c -3.28,4.2 -8.25,6.35 -10.51,11.23 q -0.77,1.64 0.78,0.7 c 9.01,-5.49 15.86,-12.06 20.34,-21.63 q 3.93,-8.38 8.37,-16.66 0.9,-1.68 1.25,0.19 1.62,8.69 6.53,17.38 -0.14,0.85 -1.08,0.85 a 0.43,0.43 0 0 0 -0.43,0.47 q 1.05,15.2 0.29,30.43 h -74.13 q -0.6,-0.05 -0.95,-0.49 a 0.7,0.69 -46.6 0 1 -0.02,-0.84 c 4.1,-5.68 8.54,-10.6 12.11,-16.85 0.56,-0.98 4.61,-8.46 5.89,-7.99 a 0.54,0.54 0 0 1 0.28,0.79 l -8.03,13.32 a 0.28,0.28 0 0 0 0.18,0.41 c 5.84,1.32 10.25,-11.27 11.48,-16.09 a 0.76,0.75 -64.3 0 0 -0.27,-0.78 l -0.36,-0.27 q 5.02,-3.56 8.16,-8.79 a 1.34,1.31 -35.8 0 0 0.16,-0.91 l -1.32,-6.72 q 4.4,-7.94 9.71,-15.29 z m -2.6594,16.5406 a 0.44,0.44 0 0 0 -0.2491,-0.5702 l -0.4283,-0.1678 a 0.44,0.44 0 0 0 -0.5702,0.2491 l -2.3936,6.1077 a 0.44,0.44 0 0 0 0.2491,0.5702 l 0.4283,0.1678 a 0.44,0.44 0 0 0 0.5702,-0.2491 z"
         inkscape:connector-curvature="0"
         style="fill:#d6d6d6" />
      <path
         id="path26282"
         d="m 331.33,187.29 a 1.22,1.21 -4.1 0 1 1.15,-1.32 q 2.4,-0.14 3.23,1.97 a 0.52,0.52 0 0 1 -0.38,0.7 l -3.22,0.63 a 0.53,0.53 0 0 1 -0.63,-0.47 z"
         inkscape:connector-curvature="0"
         style="fill:#ffffff" />
      <path
         id="path26284"
         d="m 253.48,202.32 -0.98,1.09 q -0.49,0.55 -0.62,-0.18 l -0.19,-1.13 a 0.9,0.89 -84.8 0 0 -0.56,-0.68 q -2.53,-0.94 -1.53,-3.49 a 0.8,0.79 -56.5 0 0 -0.17,-0.86 q -1.25,-1.26 -0.24,-2.7 a 0.61,0.61 0 0 0 -0.08,-0.81 l -4.18,-3.95 a 0.41,0.4 -41.6 0 1 0.04,-0.62 c 0.78,-0.59 9.34,6.35 10.39,7.26 q 1.48,1.28 0.32,2.86 c -2.86,3.91 1.73,4.24 1.99,7.12 q 0.04,0.52 -0.42,0.28 l -2.01,-1.04 a 0.77,0.75 8.4 0 1 -0.4,-0.53 l -0.46,-2.37 q -0.19,-1.03 -0.9,-0.25 z"
         inkscape:connector-curvature="0"
         style="fill:#d6d6d6" />
      <path
         id="path26286"
         d="m 279.75,222.71 c 1.72,1.55 19.36,15.88 10.94,17.29 h -3.5 l -8.32,-6.11 q -0.72,-0.53 -0.81,0.36 l -0.62,5.75 h -69.25 q -0.83,-8.12 -0.45,-16.29 a 0.49,0.49 0 0 0 -0.41,-0.51 q -0.15,-0.02 -0.33,0.01 l 4.47,-5.11 q 0.34,-0.38 0.19,0.11 c -0.32,1.06 -2.53,5.79 -1.97,6.37 a 0.42,0.42 0 0 0 0.64,-0.04 c 2.26,-3.01 3.52,-7 5,-9.63 6.18,-11.08 10.88,-17.14 18.27,-24.51 a 1.06,1.06 0 0 1 1.58,0.1 q 4.99,6.37 11.49,10.8 3,2.04 4.96,4.19 c 5.43,5.96 12.32,11.64 16.95,18.11 q 3.87,5.43 9.46,9.16 a 0.4,0.4 0 0 0 0.6,-0.2 q 1.68,-4.84 1.11,-9.85 z"
         inkscape:connector-curvature="0"
         style="fill:#d6d6d6" />
      <path
         id="path26288"
         d="m 332.25,192.51 a 0.82,0.82 0 0 1 0.39,-1.37 l 2.73,-0.68 a 0.89,0.87 62.8 0 1 0.9,0.3 c 1.07,1.35 8.27,8.54 7.27,9.57 a 0.7,0.69 -53.5 0 1 -0.83,0.13 q -5.87,-3.13 -10.46,-7.95 z"
         inkscape:connector-curvature="0"
         style="fill:#ffffff" />
      <rect
         id="rect26290"
         rx="0.44"
         height="7.4400001"
         width="1.34"
         transform="rotate(21.4,-448.45194,510.85232)"
         y="-3.72"
         x="-0.67000002"
         style="fill:#ffffff" />
      <ellipse
         id="ellipse26292"
         ry="1.14"
         rx="1.73"
         transform="rotate(79.1,6.7941516,258.1581)"
         cy="0"
         cx="0"
         style="fill:#d6d6d6" />
      <path
         id="path26294"
         d="m 287.99,221.85 c 3.62,1.95 13.85,7.69 10.95,12.91 a 0.3,0.3 0 0 1 -0.42,0.11 q -3.65,-2.3 -6.33,-5.65 -0.34,-0.43 -0.84,-0.67 -2.8,-1.3 -4.78,-3.64 a 1.81,1.73 -70.1 0 1 -0.4,-0.91 l -0.55,-4.33 q -0.13,-1.05 0.48,-0.18 l 1.25,1.79 q 0.25,0.36 0.64,0.57 z"
         inkscape:connector-curvature="0"
         style="fill:#ffffff" />
      <path
         id="path26296"
         d="m 305.94,240 h -15.25 c 8.42,-1.41 -9.22,-15.74 -10.94,-17.29 q -0.89,-0.97 -1.23,-2.23 c 2.65,-0.88 10.95,7.86 13.77,10.74 2.96,3.01 6.03,3.08 7.56,7.81 a 0.75,0.75 0 0 0 0.64,0.52 z"
         inkscape:connector-curvature="0"
         style="fill:#ffffff" />
      <path
         id="path26298"
         d="m 207,223.21 q 0.18,-0.03 0.33,-0.01 a 0.49,0.49 0 0 1 0.41,0.51 q -0.38,8.17 0.45,16.29 l -4.1,0.05 q 0.21,-8.65 2.91,-16.84 z"
         inkscape:connector-curvature="0"
         style="fill:#ffffff" />
      <path
         id="path26300"
         d="m 287.19,240 h -9.75 l 0.62,-5.75 q 0.09,-0.89 0.81,-0.36 z"
         inkscape:connector-curvature="0"
         style="fill:#ffffff" />
    </g>
  </g>
</svg>
