<?xml version="1.0" encoding="UTF-8" standalone="no"?>
<!DOCTYPE svg PUBLIC "-//W3C//DTD SVG 1.1//EN" "http://www.w3.org/Graphics/SVG/1.1/DTD/svg11.dtd">
<svg xmlns="http://www.w3.org/2000/svg" version="1.1" viewBox="0 0 442 238">
<g stroke-width="2.00" fill="none" stroke-linecap="butt">
<path stroke="#ececec" vector-effect="non-scaling-stroke" d="
  M 442.00 200.31
  Q 434.84 199.26 427.57 198.94
  Q 425.39 198.84 423.09 197.85
  C 416.13 194.85 410.43 195.47 401.19 195.62
  Q 400.37 195.64 399.68 195.00
  A 0.40 0.40 0.0 0 1 399.76 194.35
  Q 400.76 193.80 400.65 192.74
  A 0.44 0.44 0.0 0 0 400.05 192.38
  Q 398.62 192.98 397.19 192.76
  Q 396.18 192.60 397.08 192.11
  Q 403.20 188.76 410.11 189.51
  A 0.34 0.34 0.0 0 0 410.48 189.09
  C 409.66 186.12 392.32 186.52 389.59 186.42
  C 381.60 186.14 376.62 190.06 369.86 192.98
  C 366.73 194.33 363.71 196.66 359.29 196.75"
/>
<path stroke="#818281" vector-effect="non-scaling-stroke" d="
  M 359.29 196.75
  C 359.61 179.58 362.54 162.99 365.07 146.17
  Q 365.28 144.79 364.00 145.36
  Q 359.39 147.40 356.97 151.10
  Q 355.38 153.51 354.37 159.37
  Q 350.61 181.06 348.96 203.00"
/>
<path stroke="#ececec" vector-effect="non-scaling-stroke" d="
  M 348.96 203.00
  Q 342.48 202.52 337.60 206.26
  C 329.33 212.60 320.22 217.50 310.70 221.79
  Q 308.54 222.76 307.70 220.54
  Q 306.28 216.77 302.50 215.40
  Q 302.00 215.22 301.65 214.82
  Q 300.10 213.04 296.99 211.95
  Q 295.39 211.38 290.19 208.41
  A 1.90 1.90 0.0 0 1 289.47 207.69
  Q 289.09 207.01 288.24 207.27
  A 1.01 1.01 0.0 0 1 287.23 207.02
  L 283.20 203.06
  Q 282.84 202.71 282.41 202.46
  L 279.50 200.71"
/>
<path stroke="#818281" vector-effect="non-scaling-stroke" d="
  M 279.50 200.71
  Q 280.05 198.79 280.04 198.00
  Q 279.89 186.72 280.11 175.43
  C 280.24 168.41 285.88 168.13 288.95 162.41
  Q 289.81 160.81 288.22 161.68
  L 283.12 164.45
  Q 281.35 165.41 281.68 163.42
  Q 283.66 151.40 284.65 139.26
  Q 284.80 137.50 283.26 138.36
  C 279.21 140.62 274.95 144.24 274.44 149.14
  C 273.68 156.41 274.10 164.59 271.27 168.24
  A 1.25 1.22 -74.9 0 1 270.46 168.72
  L 259.67 170.22
  A 0.59 0.59 0.0 0 1 259.00 169.64
  L 259.00 140.27
  A 0.37 0.37 0.0 0 0 258.50 139.93
  C 254.27 141.59 249.02 146.57 249.01 151.00
  Q 248.99 160.12 249.01 169.28
  A 0.65 0.65 0.0 0 1 248.48 169.92
  L 237.72 172.07
  A 1.06 1.06 0.0 0 1 236.46 171.22
  Q 234.19 158.43 233.83 145.47
  A 0.54 0.53 -14.3 0 0 233.05 145.01
  C 228.53 147.33 224.29 151.21 224.00 156.63
  C 223.68 162.51 224.88 169.80 225.19 174.50
  A 0.63 0.62 80.9 0 1 224.73 175.14
  L 214.31 177.85
  Q 213.72 178.00 213.90 177.41
  Q 220.16 156.82 232.74 139.42
  Q 234.12 137.50 231.86 136.83
  C 227.74 135.60 224.06 135.90 219.29 136.43
  C 207.77 137.70 198.18 142.08 189.28 149.35
  C 184.37 153.35 180.95 156.02 178.18 160.86
  A 0.51 0.51 0.0 0 0 178.48 161.60
  L 178.79 161.70
  A 0.93 0.93 0.0 0 0 179.72 161.46
  Q 196.80 143.92 221.65 146.23
  A 0.90 0.89 19.6 0 1 222.31 147.62
  Q 211.24 164.07 204.76 182.71
  Q 204.50 183.47 202.67 185.91
  A 0.19 0.11 -57.0 0 1 202.50 186.00
  L 202.25 185.91
  A 0.37 0.36 -81.9 0 1 202.01 185.58
  C 201.93 173.70 203.18 161.79 202.84 149.76
  A 0.32 0.32 0.0 0 0 202.38 149.48
  C 198.39 151.48 193.30 155.59 193.10 160.45
  C 192.44 176.35 190.97 186.92 192.92 199.54
  A 0.45 0.44 70.7 0 0 193.58 199.86
  Q 197.34 197.65 200.07 194.17
  A 0.45 0.43 18.1 0 1 200.42 194.00
  L 200.70 193.99
  A 0.40 0.39 -87.4 0 1 201.10 194.43
  L 199.78 206.24"
/>
<path stroke="#ececec" vector-effect="non-scaling-stroke" d="
  M 199.78 206.24
  C 195.00 206.24 193.48 210.77 188.71 210.76
  Q 181.28 210.73 173.99 208.01
  Q 173.45 207.81 172.94 208.06
  A 0.40 0.40 0.0 0 0 172.83 208.70
  L 174.32 210.19
  A 0.67 0.65 28.1 0 1 174.50 210.75
  L 174.46 211.09
  A 0.54 0.53 -80.3 0 1 173.83 211.54
  Q 171.62 211.11 170.27 209.37
  A 1.65 1.57 77.6 0 0 169.44 208.81
  Q 167.84 208.36 167.00 207.04"
/>
<path stroke="#818281" vector-effect="non-scaling-stroke" d="
  M 167.00 207.04
  Q 178.39 204.53 185.03 194.92
  A 0.41 0.41 0.0 0 0 184.75 194.28
  Q 184.26 194.20 183.63 194.47
  Q 173.86 198.58 163.22 197.97
  A 1.44 1.43 12.5 0 1 161.97 196.01
  L 164.63 189.27
  Q 165.46 187.19 166.99 185.56
  Q 175.99 176.05 183.18 165.11
  Q 183.98 163.89 182.53 164.02
  C 177.48 164.45 169.60 169.13 164.10 171.81
  Q 162.01 172.83 162.01 170.50
  L 162.00 154.77
  A 0.41 0.41 0.0 0 0 161.40 154.41
  C 157.48 156.47 152.54 160.48 152.26 165.24
  Q 151.35 180.90 152.71 196.50"
/>
<path stroke="#ececec" vector-effect="non-scaling-stroke" d="
  M 152.71 196.50
  L 150.75 196.46"
/>
<path stroke="#818281" vector-effect="non-scaling-stroke" d="
  M 150.75 196.46
  Q 150.00 195.56 149.05 196.31
  A 0.83 0.83 0.0 0 1 148.21 196.41
  Q 146.07 195.43 146.00 193.49
  Q 145.25 172.49 149.03 147.00
  Q 149.34 144.88 148.16 143.83
  A 0.47 0.47 0.0 0 1 148.17 143.13
  Q 151.58 140.23 153.99 136.47
  Q 154.64 135.46 153.47 135.75
  C 151.23 136.32 148.92 137.31 147.10 138.90
  C 131.73 152.31 122.35 170.42 113.79 188.55
  A 0.31 0.31 0.0 0 1 113.48 188.73
  C 113.19 188.71 113.08 188.50 113.07 188.21
  C 112.59 168.72 113.36 155.14 116.71 136.48
  Q 116.80 135.98 116.32 136.16
  C 106.96 139.60 106.43 146.41 104.98 155.09
  A 1.82 1.81 -10.3 0 1 104.09 156.37
  C 98.35 159.62 93.97 169.05 90.54 174.62
  Q 90.28 175.06 90.20 174.55
  Q 89.84 171.96 90.13 168.18
  Q 91.01 156.69 91.91 145.20
  C 91.94 144.75 91.71 144.10 91.64 143.65
  A 0.65 0.64 -23.1 0 0 90.60 143.24
  C 86.12 146.67 82.49 148.47 81.84 154.72
  Q 80.20 170.49 79.94 186.35
  C 79.88 190.26 78.21 192.38 75.61 194.90
  A 0.39 0.38 53.1 0 1 75.00 194.81
  C 72.96 191.20 70.76 186.96 66.45 185.66
  A 0.37 0.37 0.0 0 1 66.24 185.11
  C 74.95 171.71 82.81 154.18 79.50 137.99
  C 76.76 124.64 48.54 141.42 42.40 145.12
  Q 37.13 148.30 34.79 152.66
  Q 33.39 155.27 35.95 153.79
  C 40.66 151.07 67.34 135.41 69.49 147.03
  C 71.99 160.58 67.80 173.32 60.39 185.98
  A 1.14 1.12 11.2 0 1 59.55 186.53
  Q 52.32 187.40 46.47 191.70
  Q 46.05 192.00 46.01 191.49
  Q 44.50 171.50 45.11 151.46
  A 1.21 1.21 0.0 0 0 43.37 150.34
  C 39.75 152.10 35.27 156.24 35.13 160.74
  Q 34.50 180.62 36.06 200.53
  A 1.25 1.24 -27.8 0 1 35.78 201.42
  Q 29.97 208.72 32.29 218.00"
/>
<path stroke="#ececec" vector-effect="non-scaling-stroke" d="
  M 32.29 218.00
  L 31.28 219.96
  Q 31.04 220.43 30.63 220.74
  Q 22.04 227.15 17.36 236.85
  A 0.65 0.65 0.0 0 0 17.93 237.78
  L 26.44 238.00"
/>
<path stroke="#818281" vector-effect="non-scaling-stroke" d="
  M 93.81 109.36
  C 99.26 122.76 113.22 116.07 119.98 108.55
  A 1.27 1.27 0.0 0 1 121.92 108.61
  C 124.70 112.19 132.74 112.82 137.02 113.26
  C 143.68 113.95 147.96 108.94 152.53 104.97
  Q 153.36 104.25 153.06 105.31
  C 151.57 110.49 150.26 123.72 159.17 123.33
  C 176.33 122.57 189.21 111.36 199.21 98.38
  A 0.50 0.50 0.0 0 1 200.04 98.44
  Q 201.55 101.14 200.71 104.22
  Q 200.57 104.73 200.21 105.11
  Q 196.92 108.69 194.99 113.15
  A 0.42 0.42 0.0 0 0 195.35 113.74
  C 210.86 114.84 224.43 114.17 236.44 103.27
  Q 236.95 102.82 236.96 103.50
  L 237.11 112.32
  A 1.04 1.04 0.0 0 0 237.76 113.27
  L 240.84 114.51
  Q 241.31 114.71 241.67 115.08
  Q 243.27 116.78 245.32 117.38
  C 255.77 120.46 263.39 114.91 270.51 108.15
  Q 271.27 107.43 271.13 108.46
  C 270.02 117.09 275.17 119.12 282.65 118.50
  Q 299.26 117.12 310.86 104.89
  Q 311.23 104.50 311.19 105.03
  L 310.96 108.47
  Q 310.74 111.60 313.73 112.57
  C 321.81 115.20 328.03 111.44 331.88 104.37
  Q 332.27 103.66 331.47 103.72
  Q 326.60 104.09 322.08 102.30
  A 1.88 1.88 0.0 0 1 320.92 100.24
  L 321.77 95.09
  A 1.07 1.07 0.0 0 1 322.51 94.23
  L 332.25 91.10
  A 0.52 0.51 -13.4 0 1 332.92 91.51
  Q 334.08 98.65 335.55 105.74
  C 336.34 109.59 333.16 112.00 338.51 114.76
  A 0.86 0.83 -79.5 0 1 338.97 115.45
  L 339.09 117.33
  A 0.51 0.51 0.0 0 0 339.88 117.72
  Q 347.49 112.72 353.47 105.87
  Q 354.04 105.23 353.18 105.18
  L 349.44 104.94
  A 1.40 1.40 0.0 0 1 348.27 104.16
  C 344.08 95.62 347.30 88.27 351.51 80.48
  C 357.18 69.97 360.68 62.44 370.17 55.16
  C 370.86 54.64 372.66 52.40 372.74 51.91
  Q 373.18 49.34 371.06 50.86
  C 360.70 58.30 353.12 67.87 346.77 78.73
  Q 345.61 80.70 343.48 79.94
  A 0.69 0.68 9.5 0 1 343.01 79.29
  L 342.97 61.09
  Q 342.97 58.90 341.14 60.10
  C 337.56 62.43 333.11 65.98 332.87 70.53
  Q 332.53 76.79 332.97 83.16
  A 0.75 0.75 0.0 0 1 332.43 83.94
  L 325.11 86.04
  Q 323.49 86.51 324.01 84.90
  Q 328.83 70.15 336.27 56.53
  A 0.15 0.15 0.0 0 0 336.25 56.36
  L 336.07 56.18
  A 0.22 0.21 52.2 0 0 335.81 56.14
  L 312.92 69.45
  Q 312.12 69.91 312.57 69.10
  C 316.62 61.89 322.55 58.36 320.84 48.91
  Q 320.51 47.06 318.64 47.26
  C 309.07 48.29 300.98 48.64 295.96 58.19
  Q 295.41 59.23 296.58 59.05
  L 308.97 57.18
  A 1.66 1.66 0.0 0 1 310.87 58.60
  Q 311.98 66.75 305.65 71.61
  Q 305.00 72.11 305.00 71.29
  L 305.00 64.26
  A 0.40 0.40 0.0 0 0 304.44 63.89
  Q 296.59 67.25 294.64 75.50
  A 1.44 1.43 78.2 0 1 294.11 76.31
  L 289.21 80.04
  A 0.59 0.59 0.0 0 1 288.43 79.99
  Q 288.14 79.70 288.24 79.24
  C 289.84 71.14 292.23 62.00 282.57 58.69
  Q 270.99 54.72 261.00 64.59
  Q 259.16 66.40 260.32 64.10
  L 261.49 61.79
  Q 263.02 58.73 260.05 60.43
  C 252.32 64.84 250.81 72.00 247.67 79.56
  Q 247.47 80.02 247.51 79.52
  Q 248.11 71.10 249.28 62.72
  C 250.09 56.87 265.01 55.07 269.09 54.79
  C 273.73 54.47 277.73 49.88 280.01 46.18
  A 0.78 0.78 0.0 0 0 279.38 44.99
  C 267.69 44.59 255.36 51.15 244.63 56.53
  C 236.93 60.39 223.17 67.83 221.48 75.09
  A 0.71 0.70 -87.5 0 1 220.90 75.63
  Q 216.11 76.38 212.72 79.72
  Q 212.14 80.30 212.31 79.49
  L 216.08 61.58
  A 0.66 0.66 0.0 0 1 216.61 61.06
  Q 222.55 59.97 228.49 58.97
  C 233.49 58.13 237.00 53.57 240.00 50.34
  Q 241.78 48.41 239.20 48.87
  L 217.90 52.60
  A 0.57 0.57 0.0 0 1 217.24 52.12
  L 216.93 49.95
  A 1.25 1.25 0.0 0 0 215.42 48.91
  C 205.93 51.05 198.38 56.24 190.57 61.73
  Q 190.01 62.12 190.27 61.49
  Q 192.87 55.24 191.74 48.47
  Q 191.27 45.64 188.43 46.09
  C 179.75 47.48 172.05 53.26 167.16 60.17
  Q 166.38 61.28 166.15 59.95
  C 164.10 48.15 150.78 44.25 142.01 51.04
  C 126.06 63.37 119.85 82.20 119.96 102.15
  C 119.97 104.77 119.46 106.54 116.68 106.88
  C 110.87 107.60 103.82 106.18 103.91 98.76
  Q 104.12 80.51 113.52 65.06
  Q 114.52 63.42 116.73 62.90
  Q 117.23 62.78 116.94 63.21
  C 115.96 64.65 113.19 68.81 114.14 69.70
  A 0.75 0.75 0.0 0 0 115.03 69.80
  Q 122.90 65.27 126.77 57.20
  Q 129.08 52.40 123.90 53.64
  C 120.13 54.55 115.31 58.98 112.08 62.30
  C 102.39 72.26 95.56 85.87 94.72 100.00
  Q 94.70 100.35 94.49 100.45
  A 0.32 0.32 0.0 0 1 94.04 100.17
  Q 93.89 97.49 94.15 94.82
  Q 95.98 76.24 97.21 57.52
  A 0.98 0.97 88.6 0 1 98.06 56.62
  L 107.67 55.40
  A 0.53 0.53 0.0 0 1 108.26 55.93
  L 108.23 57.19
  Q 108.19 58.91 109.64 57.99
  Q 115.46 54.34 118.45 48.18
  Q 119.40 46.21 117.22 46.05
  C 105.26 45.16 89.80 52.28 79.46 58.01
  Q 79.03 58.25 79.10 57.76
  Q 80.89 46.51 78.95 37.07
  C 76.36 24.46 61.77 9.44 48.32 19.06
  C 40.04 24.99 33.29 34.98 30.77 45.31
  C 26.26 63.75 24.98 80.17 24.18 97.93
  C 23.87 104.91 24.48 114.63 31.70 118.17
  A 0.91 0.90 -47.8 0 0 32.58 118.12
  Q 34.70 116.78 35.99 117.23
  C 41.43 119.16 45.29 117.90 49.83 114.22
  Q 73.36 95.10 78.33 64.51
  A 1.01 1.00 83.9 0 1 78.95 63.73
  L 92.18 58.48
  Q 93.38 58.01 92.42 58.87
  C 89.89 61.16 87.58 63.24 87.23 66.92
  Q 84.73 93.29 83.14 119.74
  Q 83.03 121.48 83.64 122.72
  A 1.04 1.04 0.0 0 0 85.30 123.00
  L 93.43 114.99
  A 1.23 1.22 -26.4 0 0 93.78 113.96
  L 93.22 109.51
  Q 92.92 107.19 93.81 109.36"
/>
<path stroke="#818281" vector-effect="non-scaling-stroke" d="
  M 387.00 85.71
  L 387.00 66.31
  A 0.60 0.60 0.0 0 0 386.12 65.78
  Q 381.55 68.14 378.46 72.25
  Q 377.01 74.20 377.01 76.62
  Q 377.01 85.57 376.99 94.79
  C 376.98 97.88 376.13 99.82 373.88 101.70
  A 1.01 1.01 0.0 0 1 372.30 101.32
  Q 370.41 96.84 370.47 91.49
  Q 370.65 77.62 371.11 63.47
  A 1.24 1.23 -10.7 0 0 369.39 62.30
  C 365.07 64.13 361.29 68.37 361.10 73.39
  Q 360.29 94.81 360.46 99.50
  C 360.62 104.06 360.94 109.07 363.65 112.66
  C 368.18 118.64 372.87 112.09 376.20 109.38
  A 0.33 0.32 -27.4 0 1 376.72 109.54
  C 380.56 123.25 387.34 115.30 392.04 108.75
  A 0.88 0.87 -66.3 0 0 391.51 107.38
  C 386.30 106.29 386.33 96.08 387.29 92.52
  C 388.50 88.03 393.88 83.26 397.16 80.26
  Q 399.47 78.16 399.14 81.26
  Q 396.79 103.11 397.00 125.08
  Q 397.02 127.28 398.58 125.73
  L 406.48 117.91
  A 1.76 1.73 67.7 0 0 407.00 116.64
  C 406.83 101.24 408.25 85.67 409.11 70.01
  A 2.10 2.10 0.0 0 1 409.99 68.40
  C 412.02 66.99 420.99 60.25 420.91 57.87
  A 0.57 0.57 0.0 0 0 420.35 57.32
  C 418.83 57.28 411.37 63.52 409.53 64.81
  Q 408.73 65.37 408.74 64.39
  L 408.75 63.36
  A 0.40 0.39 -11.9 0 0 408.19 63.00
  Q 403.64 65.08 400.72 69.08
  C 399.27 71.05 399.35 73.88 398.03 75.51
  Q 395.09 79.14 387.40 85.89
  Q 387.00 86.25 387.00 85.71"
/>
<path stroke="#818281" vector-effect="non-scaling-stroke" d="
  M 327.59 177.97
  L 329.16 136.55
  A 0.52 0.52 0.0 0 0 328.58 136.02
  C 315.93 137.43 294.36 143.38 287.44 155.33
  A 0.46 0.46 0.0 0 0 287.65 155.99
  Q 288.26 156.26 288.73 156.02
  C 299.61 150.70 307.35 147.47 318.29 146.02
  A 0.78 0.77 -2.5 0 1 319.17 146.82
  L 318.01 174.95
  A 1.48 1.47 70.3 0 1 317.53 175.97
  Q 312.22 180.84 309.25 187.40
  A 0.58 0.57 23.6 0 1 308.50 187.69
  C 307.23 187.15 307.77 153.35 307.90 149.82
  Q 307.96 148.27 306.62 149.06
  Q 301.90 151.84 298.49 156.13
  A 3.40 3.33 66.1 0 0 297.76 158.08
  Q 296.95 176.60 298.25 195.00
  Q 298.44 197.72 300.47 204.16
  A 1.02 1.01 -36.8 0 1 300.34 205.04
  L 298.57 207.58
  Q 297.30 209.41 299.47 209.92
  C 302.84 210.69 306.87 206.45 309.16 204.28
  A 0.44 0.43 49.2 0 1 309.81 204.33
  Q 311.86 206.98 314.57 207.64
  C 326.22 210.48 336.04 203.69 342.99 195.01
  C 348.39 188.27 347.60 179.58 346.91 171.53
  A 0.60 0.60 0.0 0 0 346.31 170.98
  C 340.80 170.98 336.14 172.32 331.86 175.78
  Q 330.07 177.22 327.99 178.24
  A 0.28 0.28 0.0 0 1 327.59 177.97"
/>
<path stroke="#818281" vector-effect="non-scaling-stroke" d="
  M 190.49 138.95
  C 175.47 138.70 162.84 141.38 153.29 153.58
  C 152.94 154.02 152.90 155.06 153.12 155.51
  A 0.41 0.40 57.1 0 0 153.75 155.65
  C 161.19 149.36 172.88 148.36 182.17 148.58
  A 1.33 1.32 25.3 0 0 183.05 148.27
  C 184.61 146.94 190.92 141.37 191.01 139.50
  A 0.52 0.52 0.0 0 0 190.49 138.95"
/>
<path stroke="#818281" vector-effect="non-scaling-stroke" d="
  M 65.97 71.33
  C 66.87 69.37 68.38 68.02 68.71 65.84
  C 70.93 51.37 69.87 38.02 57.08 28.89
  Q 52.07 25.31 47.32 25.89
  Q 44.87 26.19 44.03 28.51
  C 36.43 49.36 36.49 69.66 37.21 91.18
  Q 37.35 95.46 39.22 100.05
  C 42.23 107.49 50.83 112.17 56.46 103.68
  Q 66.45 88.61 68.38 71.39
  Q 68.45 70.73 67.86 71.03
  L 66.40 71.75
  Q 65.60 72.15 65.97 71.33"
/>
<path stroke="#818281" vector-effect="non-scaling-stroke" d="
  M 179.00 59.62
  L 179.00 70.02
  Q 179.00 72.50 180.03 70.25
  Q 182.82 64.13 181.78 57.44
  Q 181.43 55.18 179.21 55.72
  C 173.06 57.20 167.36 61.89 166.78 68.52
  Q 166.21 75.01 165.10 81.47
  Q 165.01 81.98 165.47 81.75
  C 171.66 78.66 167.50 71.59 169.98 66.81
  Q 172.09 62.74 178.36 59.24
  A 0.43 0.43 0.0 0 1 179.00 59.62"
/>
<path stroke="#818281" vector-effect="non-scaling-stroke" d="
  M 156.51 72.29
  C 156.14 62.57 148.97 55.78 138.99 58.17
  A 1.26 1.24 8.7 0 0 138.21 58.73
  Q 135.57 62.98 134.17 67.79
  Q 133.85 68.91 134.78 68.21
  L 137.07 66.48
  A 0.96 0.94 32.9 0 1 137.85 66.32
  C 141.29 67.19 134.96 87.27 133.62 90.37
  C 129.81 99.16 141.64 103.49 147.89 103.71
  Q 149.80 103.77 150.59 102.04
  Q 157.11 87.81 156.51 72.29"
/>
<path stroke="#818281" vector-effect="non-scaling-stroke" d="
  M 198.80 69.38
  C 199.29 65.75 202.73 62.64 204.96 60.35
  Q 207.06 58.19 204.24 59.25
  Q 194.77 62.81 186.68 68.70
  Q 182.62 71.65 187.56 70.72
  Q 192.79 69.73 198.01 70.04
  A 0.76 0.75 -84.7 0 0 198.80 69.38"
/>
<path stroke="#818281" vector-effect="non-scaling-stroke" d="
  M 216.97 93.00
  C 214.29 96.87 211.14 97.47 211.89 103.20
  A 1.23 1.23 0.0 0 0 213.06 104.26
  Q 225.34 104.68 236.53 99.59
  A 0.75 0.75 0.0 0 0 236.97 98.91
  Q 237.04 81.46 240.86 64.43
  Q 241.05 63.60 240.30 64.02
  L 224.38 73.17
  A 0.39 0.39 0.0 0 0 224.21 73.63
  L 224.34 74.03
  A 0.17 0.16 -22.1 0 0 224.56 74.12
  Q 229.05 72.19 233.98 71.83
  Q 236.03 71.67 235.01 73.45
  Q 232.21 78.33 227.57 81.64
  A 1.59 1.58 -63.1 0 1 226.63 81.95
  Q 218.72 81.96 211.75 85.69
  A 1.41 1.40 76.5 0 0 211.00 86.92
  L 211.00 94.47
  A 0.40 0.39 -13.8 0 0 211.59 94.82
  C 212.57 94.29 216.08 91.53 216.87 92.20
  A 0.61 0.60 38.3 0 1 216.97 93.00"
/>
<path stroke="#818281" vector-effect="non-scaling-stroke" d="
  M 321.98 73.58
  C 322.26 72.82 325.03 67.43 325.02 67.36
  A 0.22 0.21 -20.8 0 0 324.68 67.21
  L 317.42 72.26
  Q 316.89 72.63 317.52 72.78
  L 321.70 73.72
  A 0.24 0.24 0.0 0 0 321.98 73.58"
/>
<path stroke="#818281" vector-effect="non-scaling-stroke" d="
  M 252.39 106.11
  Q 258.50 109.55 264.64 107.93
  C 274.17 105.43 282.38 80.82 278.50 72.99
  C 276.07 68.09 268.87 67.37 263.99 67.24
  A 1.86 1.85 -75.1 0 0 262.31 68.22
  C 257.26 77.65 256.20 86.66 254.92 97.06
  C 254.64 99.38 253.30 101.32 251.89 102.81
  Q 250.02 104.78 252.39 106.11"
/>
<path stroke="#818281" vector-effect="non-scaling-stroke" d="
  M 179.35 96.26
  Q 176.24 101.23 170.98 103.93
  Q 169.03 104.92 169.03 102.74
  L 168.99 87.30
  Q 168.99 86.14 168.28 87.07
  C 163.08 93.94 159.83 103.52 163.71 111.74
  Q 164.73 113.91 167.13 113.77
  Q 174.63 113.33 181.24 110.78
  C 193.63 105.98 197.51 92.25 193.23 80.51
  A 0.81 0.80 79.2 0 0 192.46 79.98
  L 180.41 80.12
  A 1.30 1.29 -88.3 0 0 179.13 81.33
  Q 178.69 88.34 179.56 95.29
  A 1.48 1.45 -33.2 0 1 179.35 96.26"
/>
<path stroke="#818281" vector-effect="non-scaling-stroke" d="
  M 305.54 94.78
  L 312.41 89.15
  A 1.28 1.25 74.2 0 0 312.86 88.32
  C 313.45 83.30 310.21 81.58 305.72 82.77
  A 0.86 0.85 -7.3 0 0 305.09 83.58
  L 304.96 94.50
  Q 304.95 95.25 305.54 94.78"
/>
<path stroke="#818281" vector-effect="non-scaling-stroke" d="
  M 294.39 84.98
  C 287.49 88.40 277.64 95.27 281.50 104.32
  C 283.78 109.67 289.73 110.06 294.48 107.88
  A 0.83 0.82 77.7 0 0 294.96 107.13
  L 295.01 85.36
  A 0.43 0.43 0.0 0 0 294.39 84.98"
/>
<path stroke="#818281" vector-effect="non-scaling-stroke" d="
  M 311.69 97.84
  C 305.14 97.47 302.42 103.37 298.22 107.14
  Q 297.84 107.48 298.34 107.41
  Q 303.94 106.63 308.45 103.41
  C 310.23 102.14 310.94 100.20 311.96 98.31
  A 0.32 0.32 0.0 0 0 311.69 97.84"
/>
<path stroke="#6e6f6e" vector-effect="non-scaling-stroke" d="
  M 150.75 196.46
  Q 147.48 202.06 141.98 205.38
  C 134.28 210.03 135.95 195.61 135.96 192.50"
/>
<path stroke="#818281" vector-effect="non-scaling-stroke" d="
  M 135.96 192.50
  Q 136.45 172.65 139.33 152.99
  Q 139.41 152.47 139.69 152.03
  L 140.71 150.44
  Q 141.01 149.98 140.47 150.08
  C 138.47 150.45 126.78 174.03 125.28 177.23
  Q 121.76 184.76 120.79 188.84"
/>
<path stroke="#6e6f6e" vector-effect="non-scaling-stroke" d="
  M 120.79 188.84
  L 120.67 193.08
  A 0.60 0.59 3.7 0 0 121.20 193.68
  L 125.64 194.17
  A 0.43 0.42 19.9 0 1 125.95 194.82
  C 122.99 199.26 116.50 207.25 110.59 202.37
  A 0.51 0.51 0.0 0 0 109.84 202.48
  Q 108.38 204.66 105.68 204.35
  Q 103.00 204.05 103.00 201.35
  L 102.99 184.29"
/>
<path stroke="#818281" vector-effect="non-scaling-stroke" d="
  M 102.99 184.29
  Q 102.81 174.73 103.98 162.50
  Q 104.01 162.16 103.78 162.05
  A 0.51 0.50 27.4 0 0 103.13 162.25
  Q 97.43 171.68 90.92 180.57
  C 89.87 182.00 89.83 183.35 90.04 185.00"
/>
<path stroke="#6e6f6e" vector-effect="non-scaling-stroke" d="
  M 90.04 185.00
  Q 89.74 190.32 90.77 195.62
  A 1.09 1.08 57.3 0 1 90.59 196.46
  Q 87.25 201.16 82.39 204.14
  Q 80.01 205.59 80.01 202.80
  L 80.00 197.38
  Q 80.00 196.03 79.23 197.14
  L 75.83 202.05
  A 1.33 1.31 57.9 0 0 75.61 203.05
  C 77.34 212.21 67.64 220.79 60.69 224.75
  Q 58.65 225.91 58.74 223.57
  C 58.94 217.88 61.21 212.82 63.23 207.53
  C 64.84 203.30 63.11 199.43 59.59 197.02
  A 1.18 1.18 0.0 0 0 58.03 197.22
  C 51.57 204.73 43.15 215.19 32.29 218.00"
/>
<path stroke="#818281" vector-effect="non-scaling-stroke" d="
  M 146.6231 144.3508
  A 2.83 0.42 -36.9 0 0 144.1078 145.7141
  A 2.83 0.42 -36.9 0 0 142.0969 147.7492
  A 2.83 0.42 -36.9 0 0 144.6122 146.3859
  A 2.83 0.42 -36.9 0 0 146.6231 144.3508"
/>
<path stroke="#818281" vector-effect="non-scaling-stroke" d="
  M 47.59 205.14
  L 54.26 196.73
  Q 55.21 195.54 53.72 195.85
  L 47.37 197.18
  A 0.62 0.61 -12.4 0 0 46.89 197.92
  Q 47.63 201.33 46.61 204.62
  Q 45.70 207.53 47.59 205.14"
/>
<path stroke="#6e6f6e" vector-effect="non-scaling-stroke" d="
  M 279.50 200.71
  L 272.12 208.02
  Q 270.05 210.07 270.02 207.16
  L 269.93 195.08"
/>
<path stroke="#818281" vector-effect="non-scaling-stroke" d="
  M 269.93 195.08
  L 270.59 176.73
  A 0.45 0.44 83.7 0 0 270.04 176.28
  L 259.56 178.94
  A 0.62 0.62 0.0 0 0 259.09 179.54
  L 259.04 190.75"
/>
<path stroke="#6e6f6e" vector-effect="non-scaling-stroke" d="
  M 259.04 190.75
  Q 260.55 202.54 249.91 206.96
  A 0.65 0.65 0.0 0 1 249.01 206.36
  L 248.96 193.00"
/>
<path stroke="#818281" vector-effect="non-scaling-stroke" d="
  M 248.96 193.00
  L 248.99 180.56
  A 0.55 0.55 0.0 0 0 248.34 180.02
  L 244.11 180.79
  A 0.73 0.72 -15.1 0 1 243.31 180.33
  L 242.99 179.46
  A 0.68 0.67 -21.4 0 0 242.10 179.08
  L 239.32 180.24
  A 0.61 0.61 0.0 0 0 238.99 181.02
  C 240.66 185.39 241.64 189.61 240.32 193.86"
/>
<path stroke="#6e6f6e" vector-effect="non-scaling-stroke" d="
  M 240.32 193.86
  C 238.58 196.10 231.44 203.78 228.66 202.94
  A 0.53 0.52 -65.0 0 1 228.38 202.15
  L 230.77 198.47
  A 1.17 1.17 0.0 0 0 230.92 197.50
  L 229.32 191.85"
/>
<path stroke="#818281" vector-effect="non-scaling-stroke" d="
  M 229.32 191.85
  L 227.03 183.68
  A 1.12 1.11 -14.0 0 0 225.70 182.89
  L 211.62 186.11
  A 0.75 0.73 -5.7 0 0 211.04 186.80
  L 210.69 196.57
  Q 210.62 198.60 212.59 198.09
  L 215.94 197.23
  Q 216.48 197.09 216.28 197.61
  L 215.08 200.83"
/>
<path stroke="#6e6f6e" vector-effect="non-scaling-stroke" d="
  M 215.08 200.83
  C 212.40 203.14 209.07 207.04 206.16 208.01
  Q 202.75 209.15 199.78 206.24"
/>
<path stroke="#818281" vector-effect="non-scaling-stroke" d="
  M 328.30 183.22
  C 327.16 187.98 327.99 192.89 326.93 197.83
  A 0.40 0.39 3.8 0 0 327.35 198.30
  L 335.15 197.58
  Q 337.16 197.39 337.16 195.37
  L 337.17 181.76
  A 0.75 0.75 0.0 0 0 336.44 181.01
  Q 332.48 180.92 328.87 182.53
  A 1.03 1.00 85.4 0 0 328.30 183.22"
/>
<path stroke="#6e6f6e" vector-effect="non-scaling-stroke" d="
  M 359.29 196.75
  Q 358.60 202.52 359.74 207.90
  A 2.74 2.73 58.3 0 1 359.21 210.15
  Q 355.68 214.63 350.92 217.71
  A 0.76 0.76 0.0 0 1 349.76 217.20
  Q 348.60 210.31 348.96 203.00"
/>
<path stroke="#ececec" vector-effect="non-scaling-stroke" d="
  M 135.96 192.50
  L 120.79 188.84"
/>
<path stroke="#6e6f6e" vector-effect="non-scaling-stroke" d="
  M 167.00 207.04
  Q 159.82 208.42 152.53 207.59
  Q 149.60 207.26 150.94 204.63
  Q 152.92 200.73 152.71 196.50"
/>
<path stroke="#818281" vector-effect="non-scaling-stroke" d="
  M 162.21 178.85
  A 0.54 0.54 0.0 0 0 161.90 179.37
  L 162.22 185.18
  A 0.54 0.54 0.0 0 0 163.16 185.50
  L 172.05 175.28
  A 0.54 0.54 0.0 0 0 171.41 174.44
  L 162.21 178.85"
/>
<path stroke="#ececec" vector-effect="non-scaling-stroke" d="
  M 102.99 184.29
  Q 97.64 183.35 92.58 185.05
  Q 92.11 185.21 91.62 185.16
  L 90.04 185.00"
/>
<path stroke="#ececec" vector-effect="non-scaling-stroke" d="
  M 269.93 195.08
  L 262.94 193.41
  A 1.46 1.41 -11.3 0 1 262.16 192.91
  Q 260.93 191.34 259.04 190.75"
/>
<path stroke="#ececec" vector-effect="non-scaling-stroke" d="
  M 248.96 193.00
  L 240.32 193.86"
/>
<path stroke="#ececec" vector-effect="non-scaling-stroke" d="
  M 229.32 191.85
  Q 226.38 191.93 223.78 193.09
  A 1.61 1.52 1.7 0 0 223.06 193.73
  Q 220.24 198.62 215.08 200.83"
/>
<path stroke="#ececec" vector-effect="non-scaling-stroke" d="
  M 389.2197 189.5340
  A 2.60 0.74 -10.1 0 0 386.5302 189.2615
  A 2.60 0.74 -10.1 0 0 384.1003 190.4460
  A 2.60 0.74 -10.1 0 0 386.7898 190.7185
  A 2.60 0.74 -10.1 0 0 389.2197 189.5340"
/>
<path stroke="#ececec" vector-effect="non-scaling-stroke" d="
  M 293.82 221.68
  Q 287.92 213.72 280.87 206.74
  A 0.94 0.93 -28.6 0 0 280.01 206.49
  L 279.00 206.73
  A 0.48 0.47 66.8 0 0 278.71 207.46
  C 284.37 215.98 287.98 219.68 296.62 225.20
  Q 297.08 225.50 296.82 225.02
  C 296.04 223.64 294.60 222.73 293.82 221.68"
/>
<path stroke="#ececec" vector-effect="non-scaling-stroke" d="
  M 319.69 224.67
  L 320.25 223.23
  Q 320.77 221.91 319.45 222.41
  L 317.42 223.17
  Q 316.64 223.46 317.30 223.98
  L 318.55 224.97
  A 0.74 0.73 30.0 0 0 319.69 224.67"
/>
</g>
<path fill="#ffffff" d="
  M 0.00 0.00
  L 442.00 0.00
  L 442.00 200.31
  Q 434.84 199.26 427.57 198.94
  Q 425.39 198.84 423.09 197.85
  C 416.13 194.85 410.43 195.47 401.19 195.62
  Q 400.37 195.64 399.68 195.00
  A 0.40 0.40 0.0 0 1 399.76 194.35
  Q 400.76 193.80 400.65 192.74
  A 0.44 0.44 0.0 0 0 400.05 192.38
  Q 398.62 192.98 397.19 192.76
  Q 396.18 192.60 397.08 192.11
  Q 403.20 188.76 410.11 189.51
  A 0.34 0.34 0.0 0 0 410.48 189.09
  C 409.66 186.12 392.32 186.52 389.59 186.42
  C 381.60 186.14 376.62 190.06 369.86 192.98
  C 366.73 194.33 363.71 196.66 359.29 196.75
  C 359.61 179.58 362.54 162.99 365.07 146.17
  Q 365.28 144.79 364.00 145.36
  Q 359.39 147.40 356.97 151.10
  Q 355.38 153.51 354.37 159.37
  Q 350.61 181.06 348.96 203.00
  Q 342.48 202.52 337.60 206.26
  C 329.33 212.60 320.22 217.50 310.70 221.79
  Q 308.54 222.76 307.70 220.54
  Q 306.28 216.77 302.50 215.40
  Q 302.00 215.22 301.65 214.82
  Q 300.10 213.04 296.99 211.95
  Q 295.39 211.38 290.19 208.41
  A 1.90 1.90 0.0 0 1 289.47 207.69
  Q 289.09 207.01 288.24 207.27
  A 1.01 1.01 0.0 0 1 287.23 207.02
  L 283.20 203.06
  Q 282.84 202.71 282.41 202.46
  L 279.50 200.71
  Q 280.05 198.79 280.04 198.00
  Q 279.89 186.72 280.11 175.43
  C 280.24 168.41 285.88 168.13 288.95 162.41
  Q 289.81 160.81 288.22 161.68
  L 283.12 164.45
  Q 281.35 165.41 281.68 163.42
  Q 283.66 151.40 284.65 139.26
  Q 284.80 137.50 283.26 138.36
  C 279.21 140.62 274.95 144.24 274.44 149.14
  C 273.68 156.41 274.10 164.59 271.27 168.24
  A 1.25 1.22 -74.9 0 1 270.46 168.72
  L 259.67 170.22
  A 0.59 0.59 0.0 0 1 259.00 169.64
  L 259.00 140.27
  A 0.37 0.37 0.0 0 0 258.50 139.93
  C 254.27 141.59 249.02 146.57 249.01 151.00
  Q 248.99 160.12 249.01 169.28
  A 0.65 0.65 0.0 0 1 248.48 169.92
  L 237.72 172.07
  A 1.06 1.06 0.0 0 1 236.46 171.22
  Q 234.19 158.43 233.83 145.47
  A 0.54 0.53 -14.3 0 0 233.05 145.01
  C 228.53 147.33 224.29 151.21 224.00 156.63
  C 223.68 162.51 224.88 169.80 225.19 174.50
  A 0.63 0.62 80.9 0 1 224.73 175.14
  L 214.31 177.85
  Q 213.72 178.00 213.90 177.41
  Q 220.16 156.82 232.74 139.42
  Q 234.12 137.50 231.86 136.83
  C 227.74 135.60 224.06 135.90 219.29 136.43
  C 207.77 137.70 198.18 142.08 189.28 149.35
  C 184.37 153.35 180.95 156.02 178.18 160.86
  A 0.51 0.51 0.0 0 0 178.48 161.60
  L 178.79 161.70
  A 0.93 0.93 0.0 0 0 179.72 161.46
  Q 196.80 143.92 221.65 146.23
  A 0.90 0.89 19.6 0 1 222.31 147.62
  Q 211.24 164.07 204.76 182.71
  Q 204.50 183.47 202.67 185.91
  A 0.19 0.11 -57.0 0 1 202.50 186.00
  L 202.25 185.91
  A 0.37 0.36 -81.9 0 1 202.01 185.58
  C 201.93 173.70 203.18 161.79 202.84 149.76
  A 0.32 0.32 0.0 0 0 202.38 149.48
  C 198.39 151.48 193.30 155.59 193.10 160.45
  C 192.44 176.35 190.97 186.92 192.92 199.54
  A 0.45 0.44 70.7 0 0 193.58 199.86
  Q 197.34 197.65 200.07 194.17
  A 0.45 0.43 18.1 0 1 200.42 194.00
  L 200.70 193.99
  A 0.40 0.39 -87.4 0 1 201.10 194.43
  L 199.78 206.24
  C 195.00 206.24 193.48 210.77 188.71 210.76
  Q 181.28 210.73 173.99 208.01
  Q 173.45 207.81 172.94 208.06
  A 0.40 0.40 0.0 0 0 172.83 208.70
  L 174.32 210.19
  A 0.67 0.65 28.1 0 1 174.50 210.75
  L 174.46 211.09
  A 0.54 0.53 -80.3 0 1 173.83 211.54
  Q 171.62 211.11 170.27 209.37
  A 1.65 1.57 77.6 0 0 169.44 208.81
  Q 167.84 208.36 167.00 207.04
  Q 178.39 204.53 185.03 194.92
  A 0.41 0.41 0.0 0 0 184.75 194.28
  Q 184.26 194.20 183.63 194.47
  Q 173.86 198.58 163.22 197.97
  A 1.44 1.43 12.5 0 1 161.97 196.01
  L 164.63 189.27
  Q 165.46 187.19 166.99 185.56
  Q 175.99 176.05 183.18 165.11
  Q 183.98 163.89 182.53 164.02
  C 177.48 164.45 169.60 169.13 164.10 171.81
  Q 162.01 172.83 162.01 170.50
  L 162.00 154.77
  A 0.41 0.41 0.0 0 0 161.40 154.41
  C 157.48 156.47 152.54 160.48 152.26 165.24
  Q 151.35 180.90 152.71 196.50
  L 150.75 196.46
  Q 150.00 195.56 149.05 196.31
  A 0.83 0.83 0.0 0 1 148.21 196.41
  Q 146.07 195.43 146.00 193.49
  Q 145.25 172.49 149.03 147.00
  Q 149.34 144.88 148.16 143.83
  A 0.47 0.47 0.0 0 1 148.17 143.13
  Q 151.58 140.23 153.99 136.47
  Q 154.64 135.46 153.47 135.75
  C 151.23 136.32 148.92 137.31 147.10 138.90
  C 131.73 152.31 122.35 170.42 113.79 188.55
  A 0.31 0.31 0.0 0 1 113.48 188.73
  C 113.19 188.71 113.08 188.50 113.07 188.21
  C 112.59 168.72 113.36 155.14 116.71 136.48
  Q 116.80 135.98 116.32 136.16
  C 106.96 139.60 106.43 146.41 104.98 155.09
  A 1.82 1.81 -10.3 0 1 104.09 156.37
  C 98.35 159.62 93.97 169.05 90.54 174.62
  Q 90.28 175.06 90.20 174.55
  Q 89.84 171.96 90.13 168.18
  Q 91.01 156.69 91.91 145.20
  C 91.94 144.75 91.71 144.10 91.64 143.65
  A 0.65 0.64 -23.1 0 0 90.60 143.24
  C 86.12 146.67 82.49 148.47 81.84 154.72
  Q 80.20 170.49 79.94 186.35
  C 79.88 190.26 78.21 192.38 75.61 194.90
  A 0.39 0.38 53.1 0 1 75.00 194.81
  C 72.96 191.20 70.76 186.96 66.45 185.66
  A 0.37 0.37 0.0 0 1 66.24 185.11
  C 74.95 171.71 82.81 154.18 79.50 137.99
  C 76.76 124.64 48.54 141.42 42.40 145.12
  Q 37.13 148.30 34.79 152.66
  Q 33.39 155.27 35.95 153.79
  C 40.66 151.07 67.34 135.41 69.49 147.03
  C 71.99 160.58 67.80 173.32 60.39 185.98
  A 1.14 1.12 11.2 0 1 59.55 186.53
  Q 52.32 187.40 46.47 191.70
  Q 46.05 192.00 46.01 191.49
  Q 44.50 171.50 45.11 151.46
  A 1.21 1.21 0.0 0 0 43.37 150.34
  C 39.75 152.10 35.27 156.24 35.13 160.74
  Q 34.50 180.62 36.06 200.53
  A 1.25 1.24 -27.8 0 1 35.78 201.42
  Q 29.97 208.72 32.29 218.00
  L 31.28 219.96
  Q 31.04 220.43 30.63 220.74
  Q 22.04 227.15 17.36 236.85
  A 0.65 0.65 0.0 0 0 17.93 237.78
  L 26.44 238.00
  L 0.00 238.00
  L 0.00 0.00
  Z
  M 93.81 109.36
  C 99.26 122.76 113.22 116.07 119.98 108.55
  A 1.27 1.27 0.0 0 1 121.92 108.61
  C 124.70 112.19 132.74 112.82 137.02 113.26
  C 143.68 113.95 147.96 108.94 152.53 104.97
  Q 153.36 104.25 153.06 105.31
  C 151.57 110.49 150.26 123.72 159.17 123.33
  C 176.33 122.57 189.21 111.36 199.21 98.38
  A 0.50 0.50 0.0 0 1 200.04 98.44
  Q 201.55 101.14 200.71 104.22
  Q 200.57 104.73 200.21 105.11
  Q 196.92 108.69 194.99 113.15
  A 0.42 0.42 0.0 0 0 195.35 113.74
  C 210.86 114.84 224.43 114.17 236.44 103.27
  Q 236.95 102.82 236.96 103.50
  L 237.11 112.32
  A 1.04 1.04 0.0 0 0 237.76 113.27
  L 240.84 114.51
  Q 241.31 114.71 241.67 115.08
  Q 243.27 116.78 245.32 117.38
  C 255.77 120.46 263.39 114.91 270.51 108.15
  Q 271.27 107.43 271.13 108.46
  C 270.02 117.09 275.17 119.12 282.65 118.50
  Q 299.26 117.12 310.86 104.89
  Q 311.23 104.50 311.19 105.03
  L 310.96 108.47
  Q 310.74 111.60 313.73 112.57
  C 321.81 115.20 328.03 111.44 331.88 104.37
  Q 332.27 103.66 331.47 103.72
  Q 326.60 104.09 322.08 102.30
  A 1.88 1.88 0.0 0 1 320.92 100.24
  L 321.77 95.09
  A 1.07 1.07 0.0 0 1 322.51 94.23
  L 332.25 91.10
  A 0.52 0.51 -13.4 0 1 332.92 91.51
  Q 334.08 98.65 335.55 105.74
  C 336.34 109.59 333.16 112.00 338.51 114.76
  A 0.86 0.83 -79.5 0 1 338.97 115.45
  L 339.09 117.33
  A 0.51 0.51 0.0 0 0 339.88 117.72
  Q 347.49 112.72 353.47 105.87
  Q 354.04 105.23 353.18 105.18
  L 349.44 104.94
  A 1.40 1.40 0.0 0 1 348.27 104.16
  C 344.08 95.62 347.30 88.27 351.51 80.48
  C 357.18 69.97 360.68 62.44 370.17 55.16
  C 370.86 54.64 372.66 52.40 372.74 51.91
  Q 373.18 49.34 371.06 50.86
  C 360.70 58.30 353.12 67.87 346.77 78.73
  Q 345.61 80.70 343.48 79.94
  A 0.69 0.68 9.5 0 1 343.01 79.29
  L 342.97 61.09
  Q 342.97 58.90 341.14 60.10
  C 337.56 62.43 333.11 65.98 332.87 70.53
  Q 332.53 76.79 332.97 83.16
  A 0.75 0.75 0.0 0 1 332.43 83.94
  L 325.11 86.04
  Q 323.49 86.51 324.01 84.90
  Q 328.83 70.15 336.27 56.53
  A 0.15 0.15 0.0 0 0 336.25 56.36
  L 336.07 56.18
  A 0.22 0.21 52.2 0 0 335.81 56.14
  L 312.92 69.45
  Q 312.12 69.91 312.57 69.10
  C 316.62 61.89 322.55 58.36 320.84 48.91
  Q 320.51 47.06 318.64 47.26
  C 309.07 48.29 300.98 48.64 295.96 58.19
  Q 295.41 59.23 296.58 59.05
  L 308.97 57.18
  A 1.66 1.66 0.0 0 1 310.87 58.60
  Q 311.98 66.75 305.65 71.61
  Q 305.00 72.11 305.00 71.29
  L 305.00 64.26
  A 0.40 0.40 0.0 0 0 304.44 63.89
  Q 296.59 67.25 294.64 75.50
  A 1.44 1.43 78.2 0 1 294.11 76.31
  L 289.21 80.04
  A 0.59 0.59 0.0 0 1 288.43 79.99
  Q 288.14 79.70 288.24 79.24
  C 289.84 71.14 292.23 62.00 282.57 58.69
  Q 270.99 54.72 261.00 64.59
  Q 259.16 66.40 260.32 64.10
  L 261.49 61.79
  Q 263.02 58.73 260.05 60.43
  C 252.32 64.84 250.81 72.00 247.67 79.56
  Q 247.47 80.02 247.51 79.52
  Q 248.11 71.10 249.28 62.72
  C 250.09 56.87 265.01 55.07 269.09 54.79
  C 273.73 54.47 277.73 49.88 280.01 46.18
  A 0.78 0.78 0.0 0 0 279.38 44.99
  C 267.69 44.59 255.36 51.15 244.63 56.53
  C 236.93 60.39 223.17 67.83 221.48 75.09
  A 0.71 0.70 -87.5 0 1 220.90 75.63
  Q 216.11 76.38 212.72 79.72
  Q 212.14 80.30 212.31 79.49
  L 216.08 61.58
  A 0.66 0.66 0.0 0 1 216.61 61.06
  Q 222.55 59.97 228.49 58.97
  C 233.49 58.13 237.00 53.57 240.00 50.34
  Q 241.78 48.41 239.20 48.87
  L 217.90 52.60
  A 0.57 0.57 0.0 0 1 217.24 52.12
  L 216.93 49.95
  A 1.25 1.25 0.0 0 0 215.42 48.91
  C 205.93 51.05 198.38 56.24 190.57 61.73
  Q 190.01 62.12 190.27 61.49
  Q 192.87 55.24 191.74 48.47
  Q 191.27 45.64 188.43 46.09
  C 179.75 47.48 172.05 53.26 167.16 60.17
  Q 166.38 61.28 166.15 59.95
  C 164.10 48.15 150.78 44.25 142.01 51.04
  C 126.06 63.37 119.85 82.20 119.96 102.15
  C 119.97 104.77 119.46 106.54 116.68 106.88
  C 110.87 107.60 103.82 106.18 103.91 98.76
  Q 104.12 80.51 113.52 65.06
  Q 114.52 63.42 116.73 62.90
  Q 117.23 62.78 116.94 63.21
  C 115.96 64.65 113.19 68.81 114.14 69.70
  A 0.75 0.75 0.0 0 0 115.03 69.80
  Q 122.90 65.27 126.77 57.20
  Q 129.08 52.40 123.90 53.64
  C 120.13 54.55 115.31 58.98 112.08 62.30
  C 102.39 72.26 95.56 85.87 94.72 100.00
  Q 94.70 100.35 94.49 100.45
  A 0.32 0.32 0.0 0 1 94.04 100.17
  Q 93.89 97.49 94.15 94.82
  Q 95.98 76.24 97.21 57.52
  A 0.98 0.97 88.6 0 1 98.06 56.62
  L 107.67 55.40
  A 0.53 0.53 0.0 0 1 108.26 55.93
  L 108.23 57.19
  Q 108.19 58.91 109.64 57.99
  Q 115.46 54.34 118.45 48.18
  Q 119.40 46.21 117.22 46.05
  C 105.26 45.16 89.80 52.28 79.46 58.01
  Q 79.03 58.25 79.10 57.76
  Q 80.89 46.51 78.95 37.07
  C 76.36 24.46 61.77 9.44 48.32 19.06
  C 40.04 24.99 33.29 34.98 30.77 45.31
  C 26.26 63.75 24.98 80.17 24.18 97.93
  C 23.87 104.91 24.48 114.63 31.70 118.17
  A 0.91 0.90 -47.8 0 0 32.58 118.12
  Q 34.70 116.78 35.99 117.23
  C 41.43 119.16 45.29 117.90 49.83 114.22
  Q 73.36 95.10 78.33 64.51
  A 1.01 1.00 83.9 0 1 78.95 63.73
  L 92.18 58.48
  Q 93.38 58.01 92.42 58.87
  C 89.89 61.16 87.58 63.24 87.23 66.92
  Q 84.73 93.29 83.14 119.74
  Q 83.03 121.48 83.64 122.72
  A 1.04 1.04 0.0 0 0 85.30 123.00
  L 93.43 114.99
  A 1.23 1.22 -26.4 0 0 93.78 113.96
  L 93.22 109.51
  Q 92.92 107.19 93.81 109.36
  Z
  M 387.00 85.71
  L 387.00 66.31
  A 0.60 0.60 0.0 0 0 386.12 65.78
  Q 381.55 68.14 378.46 72.25
  Q 377.01 74.20 377.01 76.62
  Q 377.01 85.57 376.99 94.79
  C 376.98 97.88 376.13 99.82 373.88 101.70
  A 1.01 1.01 0.0 0 1 372.30 101.32
  Q 370.41 96.84 370.47 91.49
  Q 370.65 77.62 371.11 63.47
  A 1.24 1.23 -10.7 0 0 369.39 62.30
  C 365.07 64.13 361.29 68.37 361.10 73.39
  Q 360.29 94.81 360.46 99.50
  C 360.62 104.06 360.94 109.07 363.65 112.66
  C 368.18 118.64 372.87 112.09 376.20 109.38
  A 0.33 0.32 -27.4 0 1 376.72 109.54
  C 380.56 123.25 387.34 115.30 392.04 108.75
  A 0.88 0.87 -66.3 0 0 391.51 107.38
  C 386.30 106.29 386.33 96.08 387.29 92.52
  C 388.50 88.03 393.88 83.26 397.16 80.26
  Q 399.47 78.16 399.14 81.26
  Q 396.79 103.11 397.00 125.08
  Q 397.02 127.28 398.58 125.73
  L 406.48 117.91
  A 1.76 1.73 67.7 0 0 407.00 116.64
  C 406.83 101.24 408.25 85.67 409.11 70.01
  A 2.10 2.10 0.0 0 1 409.99 68.40
  C 412.02 66.99 420.99 60.25 420.91 57.87
  A 0.57 0.57 0.0 0 0 420.35 57.32
  C 418.83 57.28 411.37 63.52 409.53 64.81
  Q 408.73 65.37 408.74 64.39
  L 408.75 63.36
  A 0.40 0.39 -11.9 0 0 408.19 63.00
  Q 403.64 65.08 400.72 69.08
  C 399.27 71.05 399.35 73.88 398.03 75.51
  Q 395.09 79.14 387.40 85.89
  Q 387.00 86.25 387.00 85.71
  Z
  M 327.59 177.97
  L 329.16 136.55
  A 0.52 0.52 0.0 0 0 328.58 136.02
  C 315.93 137.43 294.36 143.38 287.44 155.33
  A 0.46 0.46 0.0 0 0 287.65 155.99
  Q 288.26 156.26 288.73 156.02
  C 299.61 150.70 307.35 147.47 318.29 146.02
  A 0.78 0.77 -2.5 0 1 319.17 146.82
  L 318.01 174.95
  A 1.48 1.47 70.3 0 1 317.53 175.97
  Q 312.22 180.84 309.25 187.40
  A 0.58 0.57 23.6 0 1 308.50 187.69
  C 307.23 187.15 307.77 153.35 307.90 149.82
  Q 307.96 148.27 306.62 149.06
  Q 301.90 151.84 298.49 156.13
  A 3.40 3.33 66.1 0 0 297.76 158.08
  Q 296.95 176.60 298.25 195.00
  Q 298.44 197.72 300.47 204.16
  A 1.02 1.01 -36.8 0 1 300.34 205.04
  L 298.57 207.58
  Q 297.30 209.41 299.47 209.92
  C 302.84 210.69 306.87 206.45 309.16 204.28
  A 0.44 0.43 49.2 0 1 309.81 204.33
  Q 311.86 206.98 314.57 207.64
  C 326.22 210.48 336.04 203.69 342.99 195.01
  C 348.39 188.27 347.60 179.58 346.91 171.53
  A 0.60 0.60 0.0 0 0 346.31 170.98
  C 340.80 170.98 336.14 172.32 331.86 175.78
  Q 330.07 177.22 327.99 178.24
  A 0.28 0.28 0.0 0 1 327.59 177.97
  Z
  M 190.49 138.95
  C 175.47 138.70 162.84 141.38 153.29 153.58
  C 152.94 154.02 152.90 155.06 153.12 155.51
  A 0.41 0.40 57.1 0 0 153.75 155.65
  C 161.19 149.36 172.88 148.36 182.17 148.58
  A 1.33 1.32 25.3 0 0 183.05 148.27
  C 184.61 146.94 190.92 141.37 191.01 139.50
  A 0.52 0.52 0.0 0 0 190.49 138.95
  Z"
/>
<path fill="#030403" d="
  M 93.22 109.51
  L 93.78 113.96
  A 1.23 1.22 -26.4 0 1 93.43 114.99
  L 85.30 123.00
  A 1.04 1.04 0.0 0 1 83.64 122.72
  Q 83.03 121.48 83.14 119.74
  Q 84.73 93.29 87.23 66.92
  C 87.58 63.24 89.89 61.16 92.42 58.87
  Q 93.38 58.01 92.18 58.48
  L 78.95 63.73
  A 1.01 1.00 83.9 0 0 78.33 64.51
  Q 73.36 95.10 49.83 114.22
  C 45.29 117.90 41.43 119.16 35.99 117.23
  Q 34.70 116.78 32.58 118.12
  A 0.91 0.90 -47.8 0 1 31.70 118.17
  C 24.48 114.63 23.87 104.91 24.18 97.93
  C 24.98 80.17 26.26 63.75 30.77 45.31
  C 33.29 34.98 40.04 24.99 48.32 19.06
  C 61.77 9.44 76.36 24.46 78.95 37.07
  Q 80.89 46.51 79.10 57.76
  Q 79.03 58.25 79.46 58.01
  C 89.80 52.28 105.26 45.16 117.22 46.05
  Q 119.40 46.21 118.45 48.18
  Q 115.46 54.34 109.64 57.99
  Q 108.19 58.91 108.23 57.19
  L 108.26 55.93
  A 0.53 0.53 0.0 0 0 107.67 55.40
  L 98.06 56.62
  A 0.98 0.97 88.6 0 0 97.21 57.52
  Q 95.98 76.24 94.15 94.82
  Q 93.89 97.49 94.04 100.17
  A 0.32 0.32 0.0 0 0 94.49 100.45
  Q 94.70 100.35 94.72 100.00
  C 95.56 85.87 102.39 72.26 112.08 62.30
  C 115.31 58.98 120.13 54.55 123.90 53.64
  Q 129.08 52.40 126.77 57.20
  Q 122.90 65.27 115.03 69.80
  A 0.75 0.75 0.0 0 1 114.14 69.70
  C 113.19 68.81 115.96 64.65 116.94 63.21
  Q 117.23 62.78 116.73 62.90
  Q 114.52 63.42 113.52 65.06
  Q 104.12 80.51 103.91 98.76
  C 103.82 106.18 110.87 107.60 116.68 106.88
  C 119.46 106.54 119.97 104.77 119.96 102.15
  C 119.85 82.20 126.06 63.37 142.01 51.04
  C 150.78 44.25 164.10 48.15 166.15 59.95
  Q 166.38 61.28 167.16 60.17
  C 172.05 53.26 179.75 47.48 188.43 46.09
  Q 191.27 45.64 191.74 48.47
  Q 192.87 55.24 190.27 61.49
  Q 190.01 62.12 190.57 61.73
  C 198.38 56.24 205.93 51.05 215.42 48.91
  A 1.25 1.25 0.0 0 1 216.93 49.95
  L 217.24 52.12
  A 0.57 0.57 0.0 0 0 217.90 52.60
  L 239.20 48.87
  Q 241.78 48.41 240.00 50.34
  C 237.00 53.57 233.49 58.13 228.49 58.97
  Q 222.55 59.97 216.61 61.06
  A 0.66 0.66 0.0 0 0 216.08 61.58
  L 212.31 79.49
  Q 212.14 80.30 212.72 79.72
  Q 216.11 76.38 220.90 75.63
  A 0.71 0.70 -87.5 0 0 221.48 75.09
  C 223.17 67.83 236.93 60.39 244.63 56.53
  C 255.36 51.15 267.69 44.59 279.38 44.99
  A 0.78 0.78 0.0 0 1 280.01 46.18
  C 277.73 49.88 273.73 54.47 269.09 54.79
  C 265.01 55.07 250.09 56.87 249.28 62.72
  Q 248.11 71.10 247.51 79.52
  Q 247.47 80.02 247.67 79.56
  C 250.81 72.00 252.32 64.84 260.05 60.43
  Q 263.02 58.73 261.49 61.79
  L 260.32 64.10
  Q 259.16 66.40 261.00 64.59
  Q 270.99 54.72 282.57 58.69
  C 292.23 62.00 289.84 71.14 288.24 79.24
  Q 288.14 79.70 288.43 79.99
  A 0.59 0.59 0.0 0 0 289.21 80.04
  L 294.11 76.31
  A 1.44 1.43 78.2 0 0 294.64 75.50
  Q 296.59 67.25 304.44 63.89
  A 0.40 0.40 0.0 0 1 305.00 64.26
  L 305.00 71.29
  Q 305.00 72.11 305.65 71.61
  Q 311.98 66.75 310.87 58.60
  A 1.66 1.66 0.0 0 0 308.97 57.18
  L 296.58 59.05
  Q 295.41 59.23 295.96 58.19
  C 300.98 48.64 309.07 48.29 318.64 47.26
  Q 320.51 47.06 320.84 48.91
  C 322.55 58.36 316.62 61.89 312.57 69.10
  Q 312.12 69.91 312.92 69.45
  L 335.81 56.14
  A 0.22 0.21 52.2 0 1 336.07 56.18
  L 336.25 56.36
  A 0.15 0.15 0.0 0 1 336.27 56.53
  Q 328.83 70.15 324.01 84.90
  Q 323.49 86.51 325.11 86.04
  L 332.43 83.94
  A 0.75 0.75 0.0 0 0 332.97 83.16
  Q 332.53 76.79 332.87 70.53
  C 333.11 65.98 337.56 62.43 341.14 60.10
  Q 342.97 58.90 342.97 61.09
  L 343.01 79.29
  A 0.69 0.68 9.5 0 0 343.48 79.94
  Q 345.61 80.70 346.77 78.73
  C 353.12 67.87 360.70 58.30 371.06 50.86
  Q 373.18 49.34 372.74 51.91
  C 372.66 52.40 370.86 54.64 370.17 55.16
  C 360.68 62.44 357.18 69.97 351.51 80.48
  C 347.30 88.27 344.08 95.62 348.27 104.16
  A 1.40 1.40 0.0 0 0 349.44 104.94
  L 353.18 105.18
  Q 354.04 105.23 353.47 105.87
  Q 347.49 112.72 339.88 117.72
  A 0.51 0.51 0.0 0 1 339.09 117.33
  L 338.97 115.45
  A 0.86 0.83 -79.5 0 0 338.51 114.76
  C 333.16 112.00 336.34 109.59 335.55 105.74
  Q 334.08 98.65 332.92 91.51
  A 0.52 0.51 -13.4 0 0 332.25 91.10
  L 322.51 94.23
  A 1.07 1.07 0.0 0 0 321.77 95.09
  L 320.92 100.24
  A 1.88 1.88 0.0 0 0 322.08 102.30
  Q 326.60 104.09 331.47 103.72
  Q 332.27 103.66 331.88 104.37
  C 328.03 111.44 321.81 115.20 313.73 112.57
  Q 310.74 111.60 310.96 108.47
  L 311.19 105.03
  Q 311.23 104.50 310.86 104.89
  Q 299.26 117.12 282.65 118.50
  C 275.17 119.12 270.02 117.09 271.13 108.46
  Q 271.27 107.43 270.51 108.15
  C 263.39 114.91 255.77 120.46 245.32 117.38
  Q 243.27 116.78 241.67 115.08
  Q 241.31 114.71 240.84 114.51
  L 237.76 113.27
  A 1.04 1.04 0.0 0 1 237.11 112.32
  L 236.96 103.50
  Q 236.95 102.82 236.44 103.27
  C 224.43 114.17 210.86 114.84 195.35 113.74
  A 0.42 0.42 0.0 0 1 194.99 113.15
  Q 196.92 108.69 200.21 105.11
  Q 200.57 104.73 200.71 104.22
  Q 201.55 101.14 200.04 98.44
  A 0.50 0.50 0.0 0 0 199.21 98.38
  C 189.21 111.36 176.33 122.57 159.17 123.33
  C 150.26 123.72 151.57 110.49 153.06 105.31
  Q 153.36 104.25 152.53 104.97
  C 147.96 108.94 143.68 113.95 137.02 113.26
  C 132.74 112.82 124.70 112.19 121.92 108.61
  A 1.27 1.27 0.0 0 0 119.98 108.55
  C 113.22 116.07 99.26 122.76 93.81 109.36
  Q 92.92 107.19 93.22 109.51
  Z
  M 65.97 71.33
  C 66.87 69.37 68.38 68.02 68.71 65.84
  C 70.93 51.37 69.87 38.02 57.08 28.89
  Q 52.07 25.31 47.32 25.89
  Q 44.87 26.19 44.03 28.51
  C 36.43 49.36 36.49 69.66 37.21 91.18
  Q 37.35 95.46 39.22 100.05
  C 42.23 107.49 50.83 112.17 56.46 103.68
  Q 66.45 88.61 68.38 71.39
  Q 68.45 70.73 67.86 71.03
  L 66.40 71.75
  Q 65.60 72.15 65.97 71.33
  Z
  M 179.00 59.62
  L 179.00 70.02
  Q 179.00 72.50 180.03 70.25
  Q 182.82 64.13 181.78 57.44
  Q 181.43 55.18 179.21 55.72
  C 173.06 57.20 167.36 61.89 166.78 68.52
  Q 166.21 75.01 165.10 81.47
  Q 165.01 81.98 165.47 81.75
  C 171.66 78.66 167.50 71.59 169.98 66.81
  Q 172.09 62.74 178.36 59.24
  A 0.43 0.43 0.0 0 1 179.00 59.62
  Z
  M 156.51 72.29
  C 156.14 62.57 148.97 55.78 138.99 58.17
  A 1.26 1.24 8.7 0 0 138.21 58.73
  Q 135.57 62.98 134.17 67.79
  Q 133.85 68.91 134.78 68.21
  L 137.07 66.48
  A 0.96 0.94 32.9 0 1 137.85 66.32
  C 141.29 67.19 134.96 87.27 133.62 90.37
  C 129.81 99.16 141.64 103.49 147.89 103.71
  Q 149.80 103.77 150.59 102.04
  Q 157.11 87.81 156.51 72.29
  Z
  M 198.80 69.38
  C 199.29 65.75 202.73 62.64 204.96 60.35
  Q 207.06 58.19 204.24 59.25
  Q 194.77 62.81 186.68 68.70
  Q 182.62 71.65 187.56 70.72
  Q 192.79 69.73 198.01 70.04
  A 0.76 0.75 -84.7 0 0 198.80 69.38
  Z
  M 216.97 93.00
  C 214.29 96.87 211.14 97.47 211.89 103.20
  A 1.23 1.23 0.0 0 0 213.06 104.26
  Q 225.34 104.68 236.53 99.59
  A 0.75 0.75 0.0 0 0 236.97 98.91
  Q 237.04 81.46 240.86 64.43
  Q 241.05 63.60 240.30 64.02
  L 224.38 73.17
  A 0.39 0.39 0.0 0 0 224.21 73.63
  L 224.34 74.03
  A 0.17 0.16 -22.1 0 0 224.56 74.12
  Q 229.05 72.19 233.98 71.83
  Q 236.03 71.67 235.01 73.45
  Q 232.21 78.33 227.57 81.64
  A 1.59 1.58 -63.1 0 1 226.63 81.95
  Q 218.72 81.96 211.75 85.69
  A 1.41 1.40 76.5 0 0 211.00 86.92
  L 211.00 94.47
  A 0.40 0.39 -13.8 0 0 211.59 94.82
  C 212.57 94.29 216.08 91.53 216.87 92.20
  A 0.61 0.60 38.3 0 1 216.97 93.00
  Z
  M 321.98 73.58
  C 322.26 72.82 325.03 67.43 325.02 67.36
  A 0.22 0.21 -20.8 0 0 324.68 67.21
  L 317.42 72.26
  Q 316.89 72.63 317.52 72.78
  L 321.70 73.72
  A 0.24 0.24 0.0 0 0 321.98 73.58
  Z
  M 252.39 106.11
  Q 258.50 109.55 264.64 107.93
  C 274.17 105.43 282.38 80.82 278.50 72.99
  C 276.07 68.09 268.87 67.37 263.99 67.24
  A 1.86 1.85 -75.1 0 0 262.31 68.22
  C 257.26 77.65 256.20 86.66 254.92 97.06
  C 254.64 99.38 253.30 101.32 251.89 102.81
  Q 250.02 104.78 252.39 106.11
  Z
  M 179.35 96.26
  Q 176.24 101.23 170.98 103.93
  Q 169.03 104.92 169.03 102.74
  L 168.99 87.30
  Q 168.99 86.14 168.28 87.07
  C 163.08 93.94 159.83 103.52 163.71 111.74
  Q 164.73 113.91 167.13 113.77
  Q 174.63 113.33 181.24 110.78
  C 193.63 105.98 197.51 92.25 193.23 80.51
  A 0.81 0.80 79.2 0 0 192.46 79.98
  L 180.41 80.12
  A 1.30 1.29 -88.3 0 0 179.13 81.33
  Q 178.69 88.34 179.56 95.29
  A 1.48 1.45 -33.2 0 1 179.35 96.26
  Z
  M 305.54 94.78
  L 312.41 89.15
  A 1.28 1.25 74.2 0 0 312.86 88.32
  C 313.45 83.30 310.21 81.58 305.72 82.77
  A 0.86 0.85 -7.3 0 0 305.09 83.58
  L 304.96 94.50
  Q 304.95 95.25 305.54 94.78
  Z
  M 294.39 84.98
  C 287.49 88.40 277.64 95.27 281.50 104.32
  C 283.78 109.67 289.73 110.06 294.48 107.88
  A 0.83 0.82 77.7 0 0 294.96 107.13
  L 295.01 85.36
  A 0.43 0.43 0.0 0 0 294.39 84.98
  Z
  M 311.69 97.84
  C 305.14 97.47 302.42 103.37 298.22 107.14
  Q 297.84 107.48 298.34 107.41
  Q 303.94 106.63 308.45 103.41
  C 310.23 102.14 310.94 100.20 311.96 98.31
  A 0.32 0.32 0.0 0 0 311.69 97.84
  Z"
/>
<path fill="#ffffff" d="
  M 66.40 71.75
  L 67.86 71.03
  Q 68.45 70.73 68.38 71.39
  Q 66.45 88.61 56.46 103.68
  C 50.83 112.17 42.23 107.49 39.22 100.05
  Q 37.35 95.46 37.21 91.18
  C 36.49 69.66 36.43 49.36 44.03 28.51
  Q 44.87 26.19 47.32 25.89
  Q 52.07 25.31 57.08 28.89
  C 69.87 38.02 70.93 51.37 68.71 65.84
  C 68.38 68.02 66.87 69.37 65.97 71.33
  Q 65.60 72.15 66.40 71.75
  Z"
/>
<path fill="#ffffff" d="
  M 178.36 59.24
  Q 172.09 62.74 169.98 66.81
  C 167.50 71.59 171.66 78.66 165.47 81.75
  Q 165.01 81.98 165.10 81.47
  Q 166.21 75.01 166.78 68.52
  C 167.36 61.89 173.06 57.20 179.21 55.72
  Q 181.43 55.18 181.78 57.44
  Q 182.82 64.13 180.03 70.25
  Q 179.00 72.50 179.00 70.02
  L 179.00 59.62
  A 0.43 0.43 0.0 0 0 178.36 59.24
  Z"
/>
<path fill="#030403" d="
  M 387.40 85.89
  Q 395.09 79.14 398.03 75.51
  C 399.35 73.88 399.27 71.05 400.72 69.08
  Q 403.64 65.08 408.19 63.00
  A 0.40 0.39 -11.9 0 1 408.75 63.36
  L 408.74 64.39
  Q 408.73 65.37 409.53 64.81
  C 411.37 63.52 418.83 57.28 420.35 57.32
  A 0.57 0.57 0.0 0 1 420.91 57.87
  C 420.99 60.25 412.02 66.99 409.99 68.40
  A 2.10 2.10 0.0 0 0 409.11 70.01
  C 408.25 85.67 406.83 101.24 407.00 116.64
  A 1.76 1.73 67.7 0 1 406.48 117.91
  L 398.58 125.73
  Q 397.02 127.28 397.00 125.08
  Q 396.79 103.11 399.14 81.26
  Q 399.47 78.16 397.16 80.26
  C 393.88 83.26 388.50 88.03 387.29 92.52
  C 386.33 96.08 386.30 106.29 391.51 107.38
  A 0.88 0.87 -66.3 0 1 392.04 108.75
  C 387.34 115.30 380.56 123.25 376.72 109.54
  A 0.33 0.32 -27.4 0 0 376.20 109.38
  C 372.87 112.09 368.18 118.64 363.65 112.66
  C 360.94 109.07 360.62 104.06 360.46 99.50
  Q 360.29 94.81 361.10 73.39
  C 361.29 68.37 365.07 64.13 369.39 62.30
  A 1.24 1.23 -10.7 0 1 371.11 63.47
  Q 370.65 77.62 370.47 91.49
  Q 370.41 96.84 372.30 101.32
  A 1.01 1.01 0.0 0 0 373.88 101.70
  C 376.13 99.82 376.98 97.88 376.99 94.79
  Q 377.01 85.57 377.01 76.62
  Q 377.01 74.20 378.46 72.25
  Q 381.55 68.14 386.12 65.78
  A 0.60 0.60 0.0 0 1 387.00 66.31
  L 387.00 85.71
  Q 387.00 86.25 387.40 85.89
  Z"
/>
<path fill="#ffffff" d="
  M 138.99 58.17
  C 148.97 55.78 156.14 62.57 156.51 72.29
  Q 157.11 87.81 150.59 102.04
  Q 149.80 103.77 147.89 103.71
  C 141.64 103.49 129.81 99.16 133.62 90.37
  C 134.96 87.27 141.29 67.19 137.85 66.32
  A 0.96 0.94 32.9 0 0 137.07 66.48
  L 134.78 68.21
  Q 133.85 68.91 134.17 67.79
  Q 135.57 62.98 138.21 58.73
  A 1.26 1.24 8.7 0 1 138.99 58.17
  Z"
/>
<path fill="#ffffff" d="
  M 198.80 69.38
  A 0.76 0.75 -84.7 0 1 198.01 70.04
  Q 192.79 69.73 187.56 70.72
  Q 182.62 71.65 186.68 68.70
  Q 194.77 62.81 204.24 59.25
  Q 207.06 58.19 204.96 60.35
  C 202.73 62.64 199.29 65.75 198.80 69.38
  Z"
/>
<path fill="#ffffff" d="
  M 216.87 92.20
  C 216.08 91.53 212.57 94.29 211.59 94.82
  A 0.40 0.39 -13.8 0 1 211.00 94.47
  L 211.00 86.92
  A 1.41 1.40 76.5 0 1 211.75 85.69
  Q 218.72 81.96 226.63 81.95
  A 1.59 1.58 -63.1 0 0 227.57 81.64
  Q 232.21 78.33 235.01 73.45
  Q 236.03 71.67 233.98 71.83
  Q 229.05 72.19 224.56 74.12
  A 0.17 0.16 -22.1 0 1 224.34 74.03
  L 224.21 73.63
  A 0.39 0.39 0.0 0 1 224.38 73.17
  L 240.30 64.02
  Q 241.05 63.60 240.86 64.43
  Q 237.04 81.46 236.97 98.91
  A 0.75 0.75 0.0 0 1 236.53 99.59
  Q 225.34 104.68 213.06 104.26
  A 1.23 1.23 0.0 0 1 211.89 103.20
  C 211.14 97.47 214.29 96.87 216.97 93.00
  A 0.61 0.60 38.3 0 0 216.87 92.20
  Z"
/>
<path fill="#ffffff" d="
  M 325.02 67.36
  C 325.03 67.43 322.26 72.82 321.98 73.58
  A 0.24 0.24 0.0 0 1 321.70 73.72
  L 317.52 72.78
  Q 316.89 72.63 317.42 72.26
  L 324.68 67.21
  A 0.22 0.21 -20.8 0 1 325.02 67.36
  Z"
/>
<path fill="#ffffff" d="
  M 252.39 106.11
  Q 250.02 104.78 251.89 102.81
  C 253.30 101.32 254.64 99.38 254.92 97.06
  C 256.20 86.66 257.26 77.65 262.31 68.22
  A 1.86 1.85 -75.1 0 1 263.99 67.24
  C 268.87 67.37 276.07 68.09 278.50 72.99
  C 282.38 80.82 274.17 105.43 264.64 107.93
  Q 258.50 109.55 252.39 106.11
  Z"
/>
<path fill="#ffffff" d="
  M 179.56 95.29
  Q 178.69 88.34 179.13 81.33
  A 1.30 1.29 -88.3 0 1 180.41 80.12
  L 192.46 79.98
  A 0.81 0.80 79.2 0 1 193.23 80.51
  C 197.51 92.25 193.63 105.98 181.24 110.78
  Q 174.63 113.33 167.13 113.77
  Q 164.73 113.91 163.71 111.74
  C 159.83 103.52 163.08 93.94 168.28 87.07
  Q 168.99 86.14 168.99 87.30
  L 169.03 102.74
  Q 169.03 104.92 170.98 103.93
  Q 176.24 101.23 179.35 96.26
  A 1.48 1.45 -33.2 0 0 179.56 95.29
  Z"
/>
<path fill="#ffffff" d="
  M 305.54 94.78
  Q 304.95 95.25 304.96 94.50
  L 305.09 83.58
  A 0.86 0.85 -7.3 0 1 305.72 82.77
  C 310.21 81.58 313.45 83.30 312.86 88.32
  A 1.28 1.25 74.2 0 1 312.41 89.15
  L 305.54 94.78
  Z"
/>
<path fill="#ffffff" d="
  M 281.50 104.32
  C 277.64 95.27 287.49 88.40 294.39 84.98
  A 0.43 0.43 0.0 0 1 295.01 85.36
  L 294.96 107.13
  A 0.83 0.82 77.7 0 1 294.48 107.88
  C 289.73 110.06 283.78 109.67 281.50 104.32
  Z"
/>
<path fill="#ffffff" d="
  M 298.22 107.14
  C 302.42 103.37 305.14 97.47 311.69 97.84
  A 0.32 0.32 0.0 0 1 311.96 98.31
  C 310.94 100.20 310.23 102.14 308.45 103.41
  Q 303.94 106.63 298.34 107.41
  Q 297.84 107.48 298.22 107.14
  Z"
/>
<path fill="#030403" d="
  M 150.75 196.46
  Q 147.48 202.06 141.98 205.38
  C 134.28 210.03 135.95 195.61 135.96 192.50
  Q 136.45 172.65 139.33 152.99
  Q 139.41 152.47 139.69 152.03
  L 140.71 150.44
  Q 141.01 149.98 140.47 150.08
  C 138.47 150.45 126.78 174.03 125.28 177.23
  Q 121.76 184.76 120.79 188.84
  L 120.67 193.08
  A 0.60 0.59 3.7 0 0 121.20 193.68
  L 125.64 194.17
  A 0.43 0.42 19.9 0 1 125.95 194.82
  C 122.99 199.26 116.50 207.25 110.59 202.37
  A 0.51 0.51 0.0 0 0 109.84 202.48
  Q 108.38 204.66 105.68 204.35
  Q 103.00 204.05 103.00 201.35
  L 102.99 184.29
  Q 102.81 174.73 103.98 162.50
  Q 104.01 162.16 103.78 162.05
  A 0.51 0.50 27.4 0 0 103.13 162.25
  Q 97.43 171.68 90.92 180.57
  C 89.87 182.00 89.83 183.35 90.04 185.00
  Q 89.74 190.32 90.77 195.62
  A 1.09 1.08 57.3 0 1 90.59 196.46
  Q 87.25 201.16 82.39 204.14
  Q 80.01 205.59 80.01 202.80
  L 80.00 197.38
  Q 80.00 196.03 79.23 197.14
  L 75.83 202.05
  A 1.33 1.31 57.9 0 0 75.61 203.05
  C 77.34 212.21 67.64 220.79 60.69 224.75
  Q 58.65 225.91 58.74 223.57
  C 58.94 217.88 61.21 212.82 63.23 207.53
  C 64.84 203.30 63.11 199.43 59.59 197.02
  A 1.18 1.18 0.0 0 0 58.03 197.22
  C 51.57 204.73 43.15 215.19 32.29 218.00
  Q 29.97 208.72 35.78 201.42
  A 1.25 1.24 -27.8 0 0 36.06 200.53
  Q 34.50 180.62 35.13 160.74
  C 35.27 156.24 39.75 152.10 43.37 150.34
  A 1.21 1.21 0.0 0 1 45.11 151.46
  Q 44.50 171.50 46.01 191.49
  Q 46.05 192.00 46.47 191.70
  Q 52.32 187.40 59.55 186.53
  A 1.14 1.12 11.2 0 0 60.39 185.98
  C 67.80 173.32 71.99 160.58 69.49 147.03
  C 67.34 135.41 40.66 151.07 35.95 153.79
  Q 33.39 155.27 34.79 152.66
  Q 37.13 148.30 42.40 145.12
  C 48.54 141.42 76.76 124.64 79.50 137.99
  C 82.81 154.18 74.95 171.71 66.24 185.11
  A 0.37 0.37 0.0 0 0 66.45 185.66
  C 70.76 186.96 72.96 191.20 75.00 194.81
  A 0.39 0.38 53.1 0 0 75.61 194.90
  C 78.21 192.38 79.88 190.26 79.94 186.35
  Q 80.20 170.49 81.84 154.72
  C 82.49 148.47 86.12 146.67 90.60 143.24
  A 0.65 0.64 -23.1 0 1 91.64 143.65
  C 91.71 144.10 91.94 144.75 91.91 145.20
  Q 91.01 156.69 90.13 168.18
  Q 89.84 171.96 90.20 174.55
  Q 90.28 175.06 90.54 174.62
  C 93.97 169.05 98.35 159.62 104.09 156.37
  A 1.82 1.81 -10.3 0 0 104.98 155.09
  C 106.43 146.41 106.96 139.60 116.32 136.16
  Q 116.80 135.98 116.71 136.48
  C 113.36 155.14 112.59 168.72 113.07 188.21
  C 113.08 188.50 113.19 188.71 113.48 188.73
  A 0.31 0.31 0.0 0 0 113.79 188.55
  C 122.35 170.42 131.73 152.31 147.10 138.90
  C 148.92 137.31 151.23 136.32 153.47 135.75
  Q 154.64 135.46 153.99 136.47
  Q 151.58 140.23 148.17 143.13
  A 0.47 0.47 0.0 0 0 148.16 143.83
  Q 149.34 144.88 149.03 147.00
  Q 145.25 172.49 146.00 193.49
  Q 146.07 195.43 148.21 196.41
  A 0.83 0.83 0.0 0 0 149.05 196.31
  Q 150.00 195.56 150.75 196.46
  Z
  M 146.6231 144.3508
  A 2.83 0.42 -36.9 0 0 144.1078 145.7141
  A 2.83 0.42 -36.9 0 0 142.0969 147.7492
  A 2.83 0.42 -36.9 0 0 144.6122 146.3859
  A 2.83 0.42 -36.9 0 0 146.6231 144.3508
  Z
  M 47.59 205.14
  L 54.26 196.73
  Q 55.21 195.54 53.72 195.85
  L 47.37 197.18
  A 0.62 0.61 -12.4 0 0 46.89 197.92
  Q 47.63 201.33 46.61 204.62
  Q 45.70 207.53 47.59 205.14
  Z"
/>
<path fill="#030403" d="
  M 279.50 200.71
  L 272.12 208.02
  Q 270.05 210.07 270.02 207.16
  L 269.93 195.08
  L 270.59 176.73
  A 0.45 0.44 83.7 0 0 270.04 176.28
  L 259.56 178.94
  A 0.62 0.62 0.0 0 0 259.09 179.54
  L 259.04 190.75
  Q 260.55 202.54 249.91 206.96
  A 0.65 0.65 0.0 0 1 249.01 206.36
  L 248.96 193.00
  L 248.99 180.56
  A 0.55 0.55 0.0 0 0 248.34 180.02
  L 244.11 180.79
  A 0.73 0.72 -15.1 0 1 243.31 180.33
  L 242.99 179.46
  A 0.68 0.67 -21.4 0 0 242.10 179.08
  L 239.32 180.24
  A 0.61 0.61 0.0 0 0 238.99 181.02
  C 240.66 185.39 241.64 189.61 240.32 193.86
  C 238.58 196.10 231.44 203.78 228.66 202.94
  A 0.53 0.52 -65.0 0 1 228.38 202.15
  L 230.77 198.47
  A 1.17 1.17 0.0 0 0 230.92 197.50
  L 229.32 191.85
  L 227.03 183.68
  A 1.12 1.11 -14.0 0 0 225.70 182.89
  L 211.62 186.11
  A 0.75 0.73 -5.7 0 0 211.04 186.80
  L 210.69 196.57
  Q 210.62 198.60 212.59 198.09
  L 215.94 197.23
  Q 216.48 197.09 216.28 197.61
  L 215.08 200.83
  C 212.40 203.14 209.07 207.04 206.16 208.01
  Q 202.75 209.15 199.78 206.24
  L 201.10 194.43
  A 0.40 0.39 -87.4 0 0 200.70 193.99
  L 200.42 194.00
  A 0.45 0.43 18.1 0 0 200.07 194.17
  Q 197.34 197.65 193.58 199.86
  A 0.45 0.44 70.7 0 1 192.92 199.54
  C 190.97 186.92 192.44 176.35 193.10 160.45
  C 193.30 155.59 198.39 151.48 202.38 149.48
  A 0.32 0.32 0.0 0 1 202.84 149.76
  C 203.18 161.79 201.93 173.70 202.01 185.58
  A 0.37 0.36 -81.9 0 0 202.25 185.91
  L 202.50 186.00
  A 0.19 0.11 -57.0 0 0 202.67 185.91
  Q 204.50 183.47 204.76 182.71
  Q 211.24 164.07 222.31 147.62
  A 0.90 0.89 19.6 0 0 221.65 146.23
  Q 196.80 143.92 179.72 161.46
  A 0.93 0.93 0.0 0 1 178.79 161.70
  L 178.48 161.60
  A 0.51 0.51 0.0 0 1 178.18 160.86
  C 180.95 156.02 184.37 153.35 189.28 149.35
  C 198.18 142.08 207.77 137.70 219.29 136.43
  C 224.06 135.90 227.74 135.60 231.86 136.83
  Q 234.12 137.50 232.74 139.42
  Q 220.16 156.82 213.90 177.41
  Q 213.72 178.00 214.31 177.85
  L 224.73 175.14
  A 0.63 0.62 80.9 0 0 225.19 174.50
  C 224.88 169.80 223.68 162.51 224.00 156.63
  C 224.29 151.21 228.53 147.33 233.05 145.01
  A 0.54 0.53 -14.3 0 1 233.83 145.47
  Q 234.19 158.43 236.46 171.22
  A 1.06 1.06 0.0 0 0 237.72 172.07
  L 248.48 169.92
  A 0.65 0.65 0.0 0 0 249.01 169.28
  Q 248.99 160.12 249.01 151.00
  C 249.02 146.57 254.27 141.59 258.50 139.93
  A 0.37 0.37 0.0 0 1 259.00 140.27
  L 259.00 169.64
  A 0.59 0.59 0.0 0 0 259.67 170.22
  L 270.46 168.72
  A 1.25 1.22 -74.9 0 0 271.27 168.24
  C 274.10 164.59 273.68 156.41 274.44 149.14
  C 274.95 144.24 279.21 140.62 283.26 138.36
  Q 284.80 137.50 284.65 139.26
  Q 283.66 151.40 281.68 163.42
  Q 281.35 165.41 283.12 164.45
  L 288.22 161.68
  Q 289.81 160.81 288.95 162.41
  C 285.88 168.13 280.24 168.41 280.11 175.43
  Q 279.89 186.72 280.04 198.00
  Q 280.05 198.79 279.50 200.71
  Z"
/>
<path fill="#030403" d="
  M 327.99 178.24
  Q 330.07 177.22 331.86 175.78
  C 336.14 172.32 340.80 170.98 346.31 170.98
  A 0.60 0.60 0.0 0 1 346.91 171.53
  C 347.60 179.58 348.39 188.27 342.99 195.01
  C 336.04 203.69 326.22 210.48 314.57 207.64
  Q 311.86 206.98 309.81 204.33
  A 0.44 0.43 49.2 0 0 309.16 204.28
  C 306.87 206.45 302.84 210.69 299.47 209.92
  Q 297.30 209.41 298.57 207.58
  L 300.34 205.04
  A 1.02 1.01 -36.8 0 0 300.47 204.16
  Q 298.44 197.72 298.25 195.00
  Q 296.95 176.60 297.76 158.08
  A 3.40 3.33 66.1 0 1 298.49 156.13
  Q 301.90 151.84 306.62 149.06
  Q 307.96 148.27 307.90 149.82
  C 307.77 153.35 307.23 187.15 308.50 187.69
  A 0.58 0.57 23.6 0 0 309.25 187.40
  Q 312.22 180.84 317.53 175.97
  A 1.48 1.47 70.3 0 0 318.01 174.95
  L 319.17 146.82
  A 0.78 0.77 -2.5 0 0 318.29 146.02
  C 307.35 147.47 299.61 150.70 288.73 156.02
  Q 288.26 156.26 287.65 155.99
  A 0.46 0.46 0.0 0 1 287.44 155.33
  C 294.36 143.38 315.93 137.43 328.58 136.02
  A 0.52 0.52 0.0 0 1 329.16 136.55
  L 327.59 177.97
  A 0.28 0.28 0.0 0 0 327.99 178.24
  Z
  M 328.30 183.22
  C 327.16 187.98 327.99 192.89 326.93 197.83
  A 0.40 0.39 3.8 0 0 327.35 198.30
  L 335.15 197.58
  Q 337.16 197.39 337.16 195.37
  L 337.17 181.76
  A 0.75 0.75 0.0 0 0 336.44 181.01
  Q 332.48 180.92 328.87 182.53
  A 1.03 1.00 85.4 0 0 328.30 183.22
  Z"
/>
<path fill="#030403" d="
  M 190.49 138.95
  A 0.52 0.52 0.0 0 1 191.01 139.50
  C 190.92 141.37 184.61 146.94 183.05 148.27
  A 1.33 1.32 25.3 0 1 182.17 148.58
  C 172.88 148.36 161.19 149.36 153.75 155.65
  A 0.41 0.40 57.1 0 1 153.12 155.51
  C 152.90 155.06 152.94 154.02 153.29 153.58
  C 162.84 141.38 175.47 138.70 190.49 138.95
  Z"
/>
<ellipse fill="#ffffff" cx="0.00" cy="0.00" transform="translate(144.36,146.05) rotate(-36.9)" rx="2.83" ry="0.42"/>
<path fill="#030403" d="
  M 359.29 196.75
  Q 358.60 202.52 359.74 207.90
  A 2.74 2.73 58.3 0 1 359.21 210.15
  Q 355.68 214.63 350.92 217.71
  A 0.76 0.76 0.0 0 1 349.76 217.20
  Q 348.60 210.31 348.96 203.00
  Q 350.61 181.06 354.37 159.37
  Q 355.38 153.51 356.97 151.10
  Q 359.39 147.40 364.00 145.36
  Q 365.28 144.79 365.07 146.17
  C 362.54 162.99 359.61 179.58 359.29 196.75
  Z"
/>
<path fill="#ffffff" d="
  M 135.96 192.50
  L 120.79 188.84
  Q 121.76 184.76 125.28 177.23
  C 126.78 174.03 138.47 150.45 140.47 150.08
  Q 141.01 149.98 140.71 150.44
  L 139.69 152.03
  Q 139.41 152.47 139.33 152.99
  Q 136.45 172.65 135.96 192.50
  Z"
/>
<path fill="#030403" d="
  M 167.00 207.04
  Q 159.82 208.42 152.53 207.59
  Q 149.60 207.26 150.94 204.63
  Q 152.92 200.73 152.71 196.50
  Q 151.35 180.90 152.26 165.24
  C 152.54 160.48 157.48 156.47 161.40 154.41
  A 0.41 0.41 0.0 0 1 162.00 154.77
  L 162.01 170.50
  Q 162.01 172.83 164.10 171.81
  C 169.60 169.13 177.48 164.45 182.53 164.02
  Q 183.98 163.89 183.18 165.11
  Q 175.99 176.05 166.99 185.56
  Q 165.46 187.19 164.63 189.27
  L 161.97 196.01
  A 1.44 1.43 12.5 0 0 163.22 197.97
  Q 173.86 198.58 183.63 194.47
  Q 184.26 194.20 184.75 194.28
  A 0.41 0.41 0.0 0 1 185.03 194.92
  Q 178.39 204.53 167.00 207.04
  Z
  M 162.21 178.85
  A 0.54 0.54 0.0 0 0 161.90 179.37
  L 162.22 185.18
  A 0.54 0.54 0.0 0 0 163.16 185.50
  L 172.05 175.28
  A 0.54 0.54 0.0 0 0 171.41 174.44
  L 162.21 178.85
  Z"
/>
<path fill="#ffffff" d="
  M 102.99 184.29
  Q 97.64 183.35 92.58 185.05
  Q 92.11 185.21 91.62 185.16
  L 90.04 185.00
  C 89.83 183.35 89.87 182.00 90.92 180.57
  Q 97.43 171.68 103.13 162.25
  A 0.51 0.50 27.4 0 1 103.78 162.05
  Q 104.01 162.16 103.98 162.50
  Q 102.81 174.73 102.99 184.29
  Z"
/>
<path fill="#ffffff" d="
  M 162.21 178.85
  L 171.41 174.44
  A 0.54 0.54 0.0 0 1 172.05 175.28
  L 163.16 185.50
  A 0.54 0.54 0.0 0 1 162.22 185.18
  L 161.90 179.37
  A 0.54 0.54 0.0 0 1 162.21 178.85
  Z"
/>
<path fill="#ffffff" d="
  M 269.93 195.08
  L 262.94 193.41
  A 1.46 1.41 -11.3 0 1 262.16 192.91
  Q 260.93 191.34 259.04 190.75
  L 259.09 179.54
  A 0.62 0.62 0.0 0 1 259.56 178.94
  L 270.04 176.28
  A 0.45 0.44 83.7 0 1 270.59 176.73
  L 269.93 195.08
  Z"
/>
<path fill="#ffffff" d="
  M 248.96 193.00
  L 240.32 193.86
  C 241.64 189.61 240.66 185.39 238.99 181.02
  A 0.61 0.61 0.0 0 1 239.32 180.24
  L 242.10 179.08
  A 0.68 0.67 -21.4 0 1 242.99 179.46
  L 243.31 180.33
  A 0.73 0.72 -15.1 0 0 244.11 180.79
  L 248.34 180.02
  A 0.55 0.55 0.0 0 1 248.99 180.56
  L 248.96 193.00
  Z"
/>
<path fill="#ffffff" d="
  M 328.30 183.22
  A 1.03 1.00 85.4 0 1 328.87 182.53
  Q 332.48 180.92 336.44 181.01
  A 0.75 0.75 0.0 0 1 337.17 181.76
  L 337.16 195.37
  Q 337.16 197.39 335.15 197.58
  L 327.35 198.30
  A 0.40 0.39 3.8 0 1 326.93 197.83
  C 327.99 192.89 327.16 187.98 328.30 183.22
  Z"
/>
<path fill="#ffffff" d="
  M 229.32 191.85
  Q 226.38 191.93 223.78 193.09
  A 1.61 1.52 1.7 0 0 223.06 193.73
  Q 220.24 198.62 215.08 200.83
  L 216.28 197.61
  Q 216.48 197.09 215.94 197.23
  L 212.59 198.09
  Q 210.62 198.60 210.69 196.57
  L 211.04 186.80
  A 0.75 0.73 -5.7 0 1 211.62 186.11
  L 225.70 182.89
  A 1.12 1.11 -14.0 0 1 227.03 183.68
  L 229.32 191.85
  Z"
/>
<path fill="#d9d9d9" d="
  M 102.99 184.29
  L 103.00 201.35
  Q 103.00 204.05 105.68 204.35
  Q 108.38 204.66 109.84 202.48
  A 0.51 0.51 0.0 0 1 110.59 202.37
  C 116.50 207.25 122.99 199.26 125.95 194.82
  A 0.43 0.42 19.9 0 0 125.64 194.17
  L 121.20 193.68
  A 0.60 0.59 3.7 0 1 120.67 193.08
  L 120.79 188.84
  L 135.96 192.50
  C 135.95 195.61 134.28 210.03 141.98 205.38
  Q 147.48 202.06 150.75 196.46
  L 152.71 196.50
  Q 152.92 200.73 150.94 204.63
  Q 149.60 207.26 152.53 207.59
  Q 159.82 208.42 167.00 207.04
  Q 167.84 208.36 169.44 208.81
  A 1.65 1.57 77.6 0 1 170.27 209.37
  Q 171.62 211.11 173.83 211.54
  A 0.54 0.53 -80.3 0 0 174.46 211.09
  L 174.50 210.75
  A 0.67 0.65 28.1 0 0 174.32 210.19
  L 172.83 208.70
  A 0.40 0.40 0.0 0 1 172.94 208.06
  Q 173.45 207.81 173.99 208.01
  Q 181.28 210.73 188.71 210.76
  C 193.48 210.77 195.00 206.24 199.78 206.24
  Q 202.75 209.15 206.16 208.01
  C 209.07 207.04 212.40 203.14 215.08 200.83
  Q 220.24 198.62 223.06 193.73
  A 1.61 1.52 1.7 0 1 223.78 193.09
  Q 226.38 191.93 229.32 191.85
  L 230.92 197.50
  A 1.17 1.17 0.0 0 1 230.77 198.47
  L 228.38 202.15
  A 0.53 0.52 -65.0 0 0 228.66 202.94
  C 231.44 203.78 238.58 196.10 240.32 193.86
  L 248.96 193.00
  L 249.01 206.36
  A 0.65 0.65 0.0 0 0 249.91 206.96
  Q 260.55 202.54 259.04 190.75
  Q 260.93 191.34 262.16 192.91
  A 1.46 1.41 -11.3 0 0 262.94 193.41
  L 269.93 195.08
  L 270.02 207.16
  Q 270.05 210.07 272.12 208.02
  L 279.50 200.71
  L 282.41 202.46
  Q 282.84 202.71 283.20 203.06
  L 287.23 207.02
  A 1.01 1.01 0.0 0 0 288.24 207.27
  Q 289.09 207.01 289.47 207.69
  A 1.90 1.90 0.0 0 0 290.19 208.41
  Q 295.39 211.38 296.99 211.95
  Q 300.10 213.04 301.65 214.82
  Q 302.00 215.22 302.50 215.40
  Q 306.28 216.77 307.70 220.54
  Q 308.54 222.76 310.70 221.79
  C 320.22 217.50 329.33 212.60 337.60 206.26
  Q 342.48 202.52 348.96 203.00
  Q 348.60 210.31 349.76 217.20
  A 0.76 0.76 0.0 0 0 350.92 217.71
  Q 355.68 214.63 359.21 210.15
  A 2.74 2.73 58.3 0 0 359.74 207.90
  Q 358.60 202.52 359.29 196.75
  C 363.71 196.66 366.73 194.33 369.86 192.98
  C 376.62 190.06 381.60 186.14 389.59 186.42
  C 392.32 186.52 409.66 186.12 410.48 189.09
  A 0.34 0.34 0.0 0 1 410.11 189.51
  Q 403.20 188.76 397.08 192.11
  Q 396.18 192.60 397.19 192.76
  Q 398.62 192.98 400.05 192.38
  A 0.44 0.44 0.0 0 1 400.65 192.74
  Q 400.76 193.80 399.76 194.35
  A 0.40 0.40 0.0 0 0 399.68 195.00
  Q 400.37 195.64 401.19 195.62
  C 410.43 195.47 416.13 194.85 423.09 197.85
  Q 425.39 198.84 427.57 198.94
  Q 434.84 199.26 442.00 200.31
  L 442.00 238.00
  L 26.44 238.00
  L 17.93 237.78
  A 0.65 0.65 0.0 0 1 17.36 236.85
  Q 22.04 227.15 30.63 220.74
  Q 31.04 220.43 31.28 219.96
  L 32.29 218.00
  C 43.15 215.19 51.57 204.73 58.03 197.22
  A 1.18 1.18 0.0 0 1 59.59 197.02
  C 63.11 199.43 64.84 203.30 63.23 207.53
  C 61.21 212.82 58.94 217.88 58.74 223.57
  Q 58.65 225.91 60.69 224.75
  C 67.64 220.79 77.34 212.21 75.61 203.05
  A 1.33 1.31 57.9 0 1 75.83 202.05
  L 79.23 197.14
  Q 80.00 196.03 80.00 197.38
  L 80.01 202.80
  Q 80.01 205.59 82.39 204.14
  Q 87.25 201.16 90.59 196.46
  A 1.09 1.08 57.3 0 0 90.77 195.62
  Q 89.74 190.32 90.04 185.00
  L 91.62 185.16
  Q 92.11 185.21 92.58 185.05
  Q 97.64 183.35 102.99 184.29
  Z
  M 389.2197 189.5340
  A 2.60 0.74 -10.1 0 0 386.5302 189.2615
  A 2.60 0.74 -10.1 0 0 384.1003 190.4460
  A 2.60 0.74 -10.1 0 0 386.7898 190.7185
  A 2.60 0.74 -10.1 0 0 389.2197 189.5340
  Z
  M 293.82 221.68
  Q 287.92 213.72 280.87 206.74
  A 0.94 0.93 -28.6 0 0 280.01 206.49
  L 279.00 206.73
  A 0.48 0.47 66.8 0 0 278.71 207.46
  C 284.37 215.98 287.98 219.68 296.62 225.20
  Q 297.08 225.50 296.82 225.02
  C 296.04 223.64 294.60 222.73 293.82 221.68
  Z
  M 319.69 224.67
  L 320.25 223.23
  Q 320.77 221.91 319.45 222.41
  L 317.42 223.17
  Q 316.64 223.46 317.30 223.98
  L 318.55 224.97
  A 0.74 0.73 30.0 0 0 319.69 224.67
  Z"
/>
<ellipse fill="#ffffff" cx="0.00" cy="0.00" transform="translate(386.66,189.99) rotate(-10.1)" rx="2.60" ry="0.74"/>
<path fill="#ffffff" d="
  M 47.59 205.14
  Q 45.70 207.53 46.61 204.62
  Q 47.63 201.33 46.89 197.92
  A 0.62 0.61 -12.4 0 1 47.37 197.18
  L 53.72 195.85
  Q 55.21 195.54 54.26 196.73
  L 47.59 205.14
  Z"
/>
<path fill="#ffffff" d="
  M 293.82 221.68
  C 294.60 222.73 296.04 223.64 296.82 225.02
  Q 297.08 225.50 296.62 225.20
  C 287.98 219.68 284.37 215.98 278.71 207.46
  A 0.48 0.47 66.8 0 1 279.00 206.73
  L 280.01 206.49
  A 0.94 0.93 -28.6 0 1 280.87 206.74
  Q 287.92 213.72 293.82 221.68
  Z"
/>
<path fill="#ffffff" d="
  M 319.69 224.67
  A 0.74 0.73 30.0 0 1 318.55 224.97
  L 317.30 223.98
  Q 316.64 223.46 317.42 223.17
  L 319.45 222.41
  Q 320.77 221.91 320.25 223.23
  L 319.69 224.67
  Z"
/>
</svg>
