<?xml version="1.0" encoding="UTF-8" standalone="no"?>
<!-- Created with Inkscape (http://www.inkscape.org/) -->

<svg
   xmlns:dc="http://purl.org/dc/elements/1.1/"
   xmlns:cc="http://creativecommons.org/ns#"
   xmlns:rdf="http://www.w3.org/1999/02/22-rdf-syntax-ns#"
   xmlns:svg="http://www.w3.org/2000/svg"
   xmlns="http://www.w3.org/2000/svg"
   xmlns:sodipodi="http://sodipodi.sourceforge.net/DTD/sodipodi-0.dtd"
   xmlns:inkscape="http://www.inkscape.org/namespaces/inkscape"
   width="400"
   height="600"
   viewBox="0 0 105.83333 158.75"
   version="1.1"
   id="svg8"
   inkscape:version="0.92.4 (5da689c313, 2019-01-14)"
   sodipodi:docname="22_m.svg">
  <defs
     id="defs2" />
  <sodipodi:namedview
     id="base"
     pagecolor="#ffffff"
     bordercolor="#666666"
     borderopacity="1.0"
     inkscape:pageopacity="0.0"
     inkscape:pageshadow="2"
     inkscape:zoom="1.2816667"
     inkscape:cx="200"
     inkscape:cy="362.41873"
     inkscape:document-units="mm"
     inkscape:current-layer="layer1"
     showgrid="false"
     units="px"
     showguides="true"
     inkscape:guide-bbox="true"
     inkscape:window-width="1280"
     inkscape:window-height="968"
     inkscape:window-x="0"
     inkscape:window-y="0"
     inkscape:window-maximized="1">
    <sodipodi:guide
       position="20.78869,60.476191"
       orientation="1,0"
       id="guide859"
       inkscape:locked="false" />
    <sodipodi:guide
       position="20.78869,128.88988"
       orientation="1,0"
       id="guide863"
       inkscape:locked="false" />
    <sodipodi:guide
       position="12.85119,57.641369"
       orientation="1,0"
       id="guide865"
       inkscape:locked="false" />
    <sodipodi:guide
       position="32.339612,108.51143"
       orientation="0,1"
       id="guide867"
       inkscape:locked="false" />
    <sodipodi:guide
       position="-9.0871638,97.553376"
       orientation="0,1"
       id="guide2596"
       inkscape:locked="false" />
    <sodipodi:guide
       position="-16.036171,64.144687"
       orientation="0,1"
       id="guide2598"
       inkscape:locked="false" />
  </sodipodi:namedview>
  <metadata
     id="metadata5">
    <rdf:RDF>
      <cc:Work
         rdf:about="">
        <dc:format>image/svg+xml</dc:format>
        <dc:type
           rdf:resource="http://purl.org/dc/dcmitype/StillImage" />
        <dc:title></dc:title>
      </cc:Work>
    </rdf:RDF>
  </metadata>
  <g
     inkscape:label="Layer 1"
     inkscape:groupmode="layer"
     id="layer1"
     transform="translate(0,-138.24998)">
    <rect
       style="opacity:1;fill:#ffffff;fill-opacity:0.60101007;stroke:#000000;stroke-width:0.27790931;stroke-miterlimit:4;stroke-dasharray:none;stroke-dashoffset:0;stroke-opacity:1"
       id="rect10"
       width="105.4538"
       height="158.75175"
       x="0.17799145"
       y="138.24911"
       ry="7.9375877" />
    <flowRoot
       xml:space="preserve"
       id="flowRoot851"
       style="fill:black;fill-opacity:1;stroke:none;font-family:sans-serif;font-style:normal;font-weight:normal;font-size:40px;line-height:0;letter-spacing:0px;word-spacing:0px"><flowRegion
         id="flowRegion853"><rect
           id="rect855"
           width="114.28571"
           height="65.714287"
           x="47.142857"
           y="194.28572" /></flowRegion><flowPara
         id="flowPara857" /></flowRoot>    <text
       xml:space="preserve"
       style="font-style:normal;font-weight:normal;font-size:33.90801239px;line-height:0;font-family:sans-serif;letter-spacing:0px;word-spacing:0px;fill:#666666;fill-opacity:1;stroke:none;stroke-width:0.84770024"
       x="19.838701"
       y="174.63515"
       id="text827"><tspan
         sodipodi:role="line"
         id="tspan825"
         x="19.838701"
         y="174.63515"
         style="font-style:normal;font-variant:normal;font-weight:bold;font-stretch:normal;font-family:Arsenal;-inkscape-font-specification:'Arsenal Bold';fill:#666666;stroke-width:0.84770024">22</tspan></text>
    <g
       id="g26953"
       transform="matrix(0.20190763,0,0,0.20190763,12.85119,175.98965)">
      <g
         id="g26793"
         style="fill:none;stroke-width:2;stroke-linecap:butt">
        <path
           id="path26693"
           d="m 442,200.31 q -7.16,-1.05 -14.43,-1.37 -2.18,-0.1 -4.48,-1.09 c -6.96,-3 -12.66,-2.38 -21.9,-2.23 q -0.82,0.02 -1.51,-0.62 a 0.4,0.4 0 0 1 0.08,-0.65 q 1,-0.55 0.89,-1.61 a 0.44,0.44 0 0 0 -0.6,-0.36 q -1.43,0.6 -2.86,0.38 -1.01,-0.16 -0.11,-0.65 6.12,-3.35 13.03,-2.6 a 0.34,0.34 0 0 0 0.37,-0.42 c -0.82,-2.97 -18.16,-2.57 -20.89,-2.67 -7.99,-0.28 -12.97,3.64 -19.73,6.56 -3.13,1.35 -6.15,3.68 -10.57,3.77"
           inkscape:connector-curvature="0"
           style="vector-effect:non-scaling-stroke;stroke:#ececec" />
        <path
           id="path26695"
           d="m 359.29,196.75 c 0.32,-17.17 3.25,-33.76 5.78,-50.58 q 0.21,-1.38 -1.07,-0.81 -4.61,2.04 -7.03,5.74 -1.59,2.41 -2.6,8.27 -3.76,21.69 -5.41,43.63"
           inkscape:connector-curvature="0"
           style="vector-effect:non-scaling-stroke;stroke:#818281" />
        <path
           id="path26697"
           d="m 348.96,203 q -6.48,-0.48 -11.36,3.26 c -8.27,6.34 -17.38,11.24 -26.9,15.53 q -2.16,0.97 -3,-1.25 -1.42,-3.77 -5.2,-5.14 -0.5,-0.18 -0.85,-0.58 -1.55,-1.78 -4.66,-2.87 -1.6,-0.57 -6.8,-3.54 a 1.9,1.9 0 0 1 -0.72,-0.72 q -0.38,-0.68 -1.23,-0.42 a 1.01,1.01 0 0 1 -1.01,-0.25 l -4.03,-3.96 q -0.36,-0.35 -0.79,-0.6 l -2.91,-1.75"
           inkscape:connector-curvature="0"
           style="vector-effect:non-scaling-stroke;stroke:#ececec" />
        <path
           id="path26699"
           d="m 279.5,200.71 q 0.55,-1.92 0.54,-2.71 -0.15,-11.28 0.07,-22.57 c 0.13,-7.02 5.77,-7.3 8.84,-13.02 q 0.86,-1.6 -0.73,-0.73 l -5.1,2.77 q -1.77,0.96 -1.44,-1.03 1.98,-12.02 2.97,-24.16 0.15,-1.76 -1.39,-0.9 c -4.05,2.26 -8.31,5.88 -8.82,10.78 -0.76,7.27 -0.34,15.45 -3.17,19.1 a 1.25,1.22 -74.9 0 1 -0.81,0.48 l -10.79,1.5 A 0.59,0.59 0 0 1 259,169.64 v -29.37 a 0.37,0.37 0 0 0 -0.5,-0.34 c -4.23,1.66 -9.48,6.64 -9.49,11.07 q -0.02,9.12 0,18.28 a 0.65,0.65 0 0 1 -0.53,0.64 l -10.76,2.15 a 1.06,1.06 0 0 1 -1.26,-0.85 q -2.27,-12.79 -2.63,-25.75 a 0.54,0.53 -14.3 0 0 -0.78,-0.46 c -4.52,2.32 -8.76,6.2 -9.05,11.62 -0.32,5.88 0.88,13.17 1.19,17.87 a 0.63,0.62 80.9 0 1 -0.46,0.64 l -10.42,2.71 q -0.59,0.15 -0.41,-0.44 6.26,-20.59 18.84,-37.99 1.38,-1.92 -0.88,-2.59 c -4.12,-1.23 -7.8,-0.93 -12.57,-0.4 -11.52,1.27 -21.11,5.65 -30.01,12.92 -4.91,4 -8.33,6.67 -11.1,11.51 a 0.51,0.51 0 0 0 0.3,0.74 l 0.31,0.1 a 0.93,0.93 0 0 0 0.93,-0.24 q 17.08,-17.54 41.93,-15.23 a 0.9,0.89 19.6 0 1 0.66,1.39 q -11.07,16.45 -17.55,35.09 -0.26,0.76 -2.09,3.2 A 0.19,0.11 -57 0 1 202.5,186 l -0.25,-0.09 a 0.37,0.36 -81.9 0 1 -0.24,-0.33 c -0.08,-11.88 1.17,-23.79 0.83,-35.82 a 0.32,0.32 0 0 0 -0.46,-0.28 c -3.99,2 -9.08,6.11 -9.28,10.97 -0.66,15.9 -2.13,26.47 -0.18,39.09 a 0.45,0.44 70.7 0 0 0.66,0.32 q 3.76,-2.21 6.49,-5.69 a 0.45,0.43 18.1 0 1 0.35,-0.17 l 0.28,-0.01 a 0.4,0.39 -87.4 0 1 0.4,0.44 l -1.32,11.81"
           inkscape:connector-curvature="0"
           style="vector-effect:non-scaling-stroke;stroke:#818281" />
        <path
           id="path26701"
           d="m 199.78,206.24 c -4.78,0 -6.3,4.53 -11.07,4.52 q -7.43,-0.03 -14.72,-2.75 -0.54,-0.2 -1.05,0.05 a 0.4,0.4 0 0 0 -0.11,0.64 l 1.49,1.49 a 0.67,0.65 28.1 0 1 0.18,0.56 l -0.04,0.34 a 0.54,0.53 -80.3 0 1 -0.63,0.45 q -2.21,-0.43 -3.56,-2.17 a 1.65,1.57 77.6 0 0 -0.83,-0.56 q -1.6,-0.45 -2.44,-1.77"
           inkscape:connector-curvature="0"
           style="vector-effect:non-scaling-stroke;stroke:#ececec" />
        <path
           id="path26703"
           d="m 167,207.04 q 11.39,-2.51 18.03,-12.12 a 0.41,0.41 0 0 0 -0.28,-0.64 q -0.49,-0.08 -1.12,0.19 -9.77,4.11 -20.41,3.5 a 1.44,1.43 12.5 0 1 -1.25,-1.96 l 2.66,-6.74 q 0.83,-2.08 2.36,-3.71 9,-9.51 16.19,-20.45 0.8,-1.22 -0.65,-1.09 c -5.05,0.43 -12.93,5.11 -18.43,7.79 q -2.09,1.02 -2.09,-1.31 L 162,154.77 a 0.41,0.41 0 0 0 -0.6,-0.36 c -3.92,2.06 -8.86,6.07 -9.14,10.83 q -0.91,15.66 0.45,31.26"
           inkscape:connector-curvature="0"
           style="vector-effect:non-scaling-stroke;stroke:#818281" />
        <path
           id="path26705"
           d="m 152.71,196.5 -1.96,-0.04"
           inkscape:connector-curvature="0"
           style="vector-effect:non-scaling-stroke;stroke:#ececec" />
        <path
           id="path26707"
           d="m 150.75,196.46 q -0.75,-0.9 -1.7,-0.15 a 0.83,0.83 0 0 1 -0.84,0.1 q -2.14,-0.98 -2.21,-2.92 -0.75,-21 3.03,-46.49 0.31,-2.12 -0.87,-3.17 a 0.47,0.47 0 0 1 0.01,-0.7 q 3.41,-2.9 5.82,-6.66 0.65,-1.01 -0.52,-0.72 c -2.24,0.57 -4.55,1.56 -6.37,3.15 -15.37,13.41 -24.75,31.52 -33.31,49.65 a 0.31,0.31 0 0 1 -0.31,0.18 c -0.29,-0.02 -0.4,-0.23 -0.41,-0.52 -0.48,-19.49 0.29,-33.07 3.64,-51.73 q 0.09,-0.5 -0.39,-0.32 c -9.36,3.44 -9.89,10.25 -11.34,18.93 a 1.82,1.81 -10.3 0 1 -0.89,1.28 c -5.74,3.25 -10.12,12.68 -13.55,18.25 q -0.26,0.44 -0.34,-0.07 -0.36,-2.59 -0.07,-6.37 0.88,-11.49 1.78,-22.98 c 0.03,-0.45 -0.2,-1.1 -0.27,-1.55 a 0.65,0.64 -23.1 0 0 -1.04,-0.41 c -4.48,3.43 -8.11,5.23 -8.76,11.48 q -1.64,15.77 -1.9,31.63 c -0.06,3.91 -1.73,6.03 -4.33,8.55 A 0.39,0.38 53.1 0 1 75,194.81 c -2.04,-3.61 -4.24,-7.85 -8.55,-9.15 a 0.37,0.37 0 0 1 -0.21,-0.55 c 8.71,-13.4 16.57,-30.93 13.26,-47.12 -2.74,-13.35 -30.96,3.43 -37.1,7.13 q -5.27,3.18 -7.61,7.54 -1.4,2.61 1.16,1.13 c 4.71,-2.72 31.39,-18.38 33.54,-6.76 2.5,13.55 -1.69,26.29 -9.1,38.95 a 1.14,1.12 11.2 0 1 -0.84,0.55 q -7.23,0.87 -13.08,5.17 -0.42,0.3 -0.46,-0.21 -1.51,-19.99 -0.9,-40.03 a 1.21,1.21 0 0 0 -1.74,-1.12 c -3.62,1.76 -8.1,5.9 -8.24,10.4 q -0.63,19.88 0.93,39.79 a 1.25,1.24 -27.8 0 1 -0.28,0.89 q -5.81,7.3 -3.49,16.58"
           inkscape:connector-curvature="0"
           style="vector-effect:non-scaling-stroke;stroke:#818281" />
        <path
           id="path26709"
           d="m 32.29,218 -1.01,1.96 q -0.24,0.47 -0.65,0.78 -8.59,6.41 -13.27,16.11 a 0.65,0.65 0 0 0 0.57,0.93 l 8.51,0.22"
           inkscape:connector-curvature="0"
           style="vector-effect:non-scaling-stroke;stroke:#ececec" />
        <path
           id="path26711"
           d="m 93.81,109.36 c 5.45,13.4 19.41,6.71 26.17,-0.81 a 1.27,1.27 0 0 1 1.94,0.06 c 2.78,3.58 10.82,4.21 15.1,4.65 6.66,0.69 10.94,-4.32 15.51,-8.29 q 0.83,-0.72 0.53,0.34 c -1.49,5.18 -2.8,18.41 6.11,18.02 17.16,-0.76 30.04,-11.97 40.04,-24.95 a 0.5,0.5 0 0 1 0.83,0.06 q 1.51,2.7 0.67,5.78 -0.14,0.51 -0.5,0.89 -3.29,3.58 -5.22,8.04 a 0.42,0.42 0 0 0 0.36,0.59 c 15.51,1.1 29.08,0.43 41.09,-10.47 q 0.51,-0.45 0.52,0.23 l 0.15,8.82 a 1.04,1.04 0 0 0 0.65,0.95 l 3.08,1.24 q 0.47,0.2 0.83,0.57 1.6,1.7 3.65,2.3 c 10.45,3.08 18.07,-2.47 25.19,-9.23 q 0.76,-0.72 0.62,0.31 c -1.11,8.63 4.04,10.66 11.52,10.04 q 16.61,-1.38 28.21,-13.61 0.37,-0.39 0.33,0.14 l -0.23,3.44 q -0.22,3.13 2.77,4.1 c 8.08,2.63 14.3,-1.13 18.15,-8.2 q 0.39,-0.71 -0.41,-0.65 -4.87,0.37 -9.39,-1.42 a 1.88,1.88 0 0 1 -1.16,-2.06 l 0.85,-5.15 a 1.07,1.07 0 0 1 0.74,-0.86 l 9.74,-3.13 a 0.52,0.51 -13.4 0 1 0.67,0.41 q 1.16,7.14 2.63,14.23 c 0.79,3.85 -2.39,6.26 2.96,9.02 a 0.86,0.83 -79.5 0 1 0.46,0.69 l 0.12,1.88 a 0.51,0.51 0 0 0 0.79,0.39 q 7.61,-5 13.59,-11.85 0.57,-0.64 -0.29,-0.69 l -3.74,-0.24 a 1.4,1.4 0 0 1 -1.17,-0.78 c -4.19,-8.54 -0.97,-15.89 3.24,-23.68 5.67,-10.51 9.17,-18.04 18.66,-25.32 0.69,-0.52 2.49,-2.76 2.57,-3.25 q 0.44,-2.57 -1.68,-1.05 C 360.7,58.3 353.12,67.87 346.77,78.73 q -1.16,1.97 -3.29,1.21 a 0.69,0.68 9.5 0 1 -0.47,-0.65 l -0.04,-18.2 q 0,-2.19 -1.83,-0.99 c -3.58,2.33 -8.03,5.88 -8.27,10.43 q -0.34,6.26 0.1,12.63 a 0.75,0.75 0 0 1 -0.54,0.78 l -7.32,2.1 q -1.62,0.47 -1.1,-1.14 4.82,-14.75 12.26,-28.37 a 0.15,0.15 0 0 0 -0.02,-0.17 l -0.18,-0.18 a 0.22,0.21 52.2 0 0 -0.26,-0.04 l -22.89,13.31 q -0.8,0.46 -0.35,-0.35 c 4.05,-7.21 9.98,-10.74 8.27,-20.19 q -0.33,-1.85 -2.2,-1.65 c -9.57,1.03 -17.66,1.38 -22.68,10.93 q -0.55,1.04 0.62,0.86 l 12.39,-1.87 a 1.66,1.66 0 0 1 1.9,1.42 q 1.11,8.15 -5.22,13.01 -0.65,0.5 -0.65,-0.32 v -7.03 a 0.4,0.4 0 0 0 -0.56,-0.37 q -7.85,3.36 -9.8,11.61 a 1.44,1.43 78.2 0 1 -0.53,0.81 l -4.9,3.73 a 0.59,0.59 0 0 1 -0.78,-0.05 q -0.29,-0.29 -0.19,-0.75 c 1.6,-8.1 3.99,-17.24 -5.67,-20.55 q -11.58,-3.97 -21.57,5.9 -1.84,1.81 -0.68,-0.49 l 1.17,-2.31 q 1.53,-3.06 -1.44,-1.36 c -7.73,4.41 -9.24,11.57 -12.38,19.13 q -0.2,0.46 -0.16,-0.04 0.6,-8.42 1.77,-16.8 c 0.81,-5.85 15.73,-7.65 19.81,-7.93 4.64,-0.32 8.64,-4.91 10.92,-8.61 a 0.78,0.78 0 0 0 -0.63,-1.19 c -11.69,-0.4 -24.02,6.16 -34.75,11.54 -7.7,3.86 -21.46,11.3 -23.15,18.56 a 0.71,0.7 -87.5 0 1 -0.58,0.54 q -4.79,0.75 -8.18,4.09 -0.58,0.58 -0.41,-0.23 l 3.77,-17.91 a 0.66,0.66 0 0 1 0.53,-0.52 q 5.94,-1.09 11.88,-2.09 c 5,-0.84 8.51,-5.4 11.51,-8.63 q 1.78,-1.93 -0.8,-1.47 l -21.3,3.73 a 0.57,0.57 0 0 1 -0.66,-0.48 l -0.31,-2.17 a 1.25,1.25 0 0 0 -1.51,-1.04 c -9.49,2.14 -17.04,7.33 -24.85,12.82 q -0.56,0.39 -0.3,-0.24 2.6,-6.25 1.47,-13.02 -0.47,-2.83 -3.31,-2.38 c -8.68,1.39 -16.38,7.17 -21.27,14.08 q -0.78,1.11 -1.01,-0.22 c -2.05,-11.8 -15.37,-15.7 -24.14,-8.91 -15.95,12.33 -22.16,31.16 -22.05,51.11 0.01,2.62 -0.5,4.39 -3.28,4.73 -5.81,0.72 -12.86,-0.7 -12.77,-8.12 q 0.21,-18.25 9.61,-33.7 1,-1.64 3.21,-2.16 0.5,-0.12 0.21,0.31 c -0.98,1.44 -3.75,5.6 -2.8,6.49 a 0.75,0.75 0 0 0 0.89,0.1 q 7.87,-4.53 11.74,-12.6 2.31,-4.8 -2.87,-3.56 c -3.77,0.91 -8.59,5.34 -11.82,8.66 -9.69,9.96 -16.52,23.57 -17.36,37.7 q -0.02,0.35 -0.23,0.45 a 0.32,0.32 0 0 1 -0.45,-0.28 q -0.15,-2.68 0.11,-5.35 1.83,-18.58 3.06,-37.3 a 0.98,0.97 88.6 0 1 0.85,-0.9 l 9.61,-1.22 a 0.53,0.53 0 0 1 0.59,0.53 l -0.03,1.26 q -0.04,1.72 1.41,0.8 5.82,-3.65 8.81,-9.81 0.95,-1.97 -1.23,-2.13 C 105.26,45.16 89.8,52.28 79.46,58.01 Q 79.03,58.25 79.1,57.76 80.89,46.51 78.95,37.07 C 76.36,24.46 61.77,9.44 48.32,19.06 40.04,24.99 33.29,34.98 30.77,45.31 c -4.51,18.44 -5.79,34.86 -6.59,52.62 -0.31,6.98 0.3,16.7 7.52,20.24 a 0.91,0.9 -47.8 0 0 0.88,-0.05 q 2.12,-1.34 3.41,-0.89 c 5.44,1.93 9.3,0.67 13.84,-3.01 Q 73.36,95.1 78.33,64.51 a 1.01,1 83.9 0 1 0.62,-0.78 l 13.23,-5.25 q 1.2,-0.47 0.24,0.39 c -2.53,2.29 -4.84,4.37 -5.19,8.05 q -2.5,26.37 -4.09,52.82 -0.11,1.74 0.5,2.98 A 1.04,1.04 0 0 0 85.3,123 l 8.13,-8.01 a 1.23,1.22 -26.4 0 0 0.35,-1.03 l -0.56,-4.45 q -0.3,-2.32 0.59,-0.15"
           inkscape:connector-curvature="0"
           style="vector-effect:non-scaling-stroke;stroke:#818281" />
        <path
           id="path26713"
           d="m 387,85.71 v -19.4 a 0.6,0.6 0 0 0 -0.88,-0.53 q -4.57,2.36 -7.66,6.47 -1.45,1.95 -1.45,4.37 0,8.95 -0.02,18.17 c -0.01,3.09 -0.86,5.03 -3.11,6.91 a 1.01,1.01 0 0 1 -1.58,-0.38 q -1.89,-4.48 -1.83,-9.83 0.18,-13.87 0.64,-28.02 a 1.24,1.23 -10.7 0 0 -1.72,-1.17 c -4.32,1.83 -8.1,6.07 -8.29,11.09 q -0.81,21.42 -0.64,26.11 c 0.16,4.56 0.48,9.57 3.19,13.16 4.53,5.98 9.22,-0.57 12.55,-3.28 a 0.33,0.32 -27.4 0 1 0.52,0.16 c 3.84,13.71 10.62,5.76 15.32,-0.79 a 0.88,0.87 -66.3 0 0 -0.53,-1.37 c -5.21,-1.09 -5.18,-11.3 -4.22,-14.86 1.21,-4.49 6.59,-9.26 9.87,-12.26 q 2.31,-2.1 1.98,1 -2.35,21.85 -2.14,43.82 0.02,2.2 1.58,0.65 l 7.9,-7.82 a 1.76,1.73 67.7 0 0 0.52,-1.27 c -0.17,-15.4 1.25,-30.97 2.11,-46.63 a 2.1,2.1 0 0 1 0.88,-1.61 c 2.03,-1.41 11,-8.15 10.92,-10.53 a 0.57,0.57 0 0 0 -0.56,-0.55 c -1.52,-0.04 -8.98,6.2 -10.82,7.49 q -0.8,0.56 -0.79,-0.42 l 0.01,-1.03 A 0.4,0.39 -11.9 0 0 408.19,63 q -4.55,2.08 -7.47,6.08 c -1.45,1.97 -1.37,4.8 -2.69,6.43 q -2.94,3.63 -10.63,10.38 -0.4,0.36 -0.4,-0.18"
           inkscape:connector-curvature="0"
           style="vector-effect:non-scaling-stroke;stroke:#818281" />
        <path
           id="path26715"
           d="m 327.59,177.97 1.57,-41.42 a 0.52,0.52 0 0 0 -0.58,-0.53 c -12.65,1.41 -34.22,7.36 -41.14,19.31 a 0.46,0.46 0 0 0 0.21,0.66 q 0.61,0.27 1.08,0.03 c 10.88,-5.32 18.62,-8.55 29.56,-10 a 0.78,0.77 -2.5 0 1 0.88,0.8 l -1.16,28.13 a 1.48,1.47 70.3 0 1 -0.48,1.02 q -5.31,4.87 -8.28,11.43 a 0.58,0.57 23.6 0 1 -0.75,0.29 c -1.27,-0.54 -0.73,-34.34 -0.6,-37.87 q 0.06,-1.55 -1.28,-0.76 -4.72,2.78 -8.13,7.07 a 3.4,3.33 66.1 0 0 -0.73,1.95 q -0.81,18.52 0.49,36.92 0.19,2.72 2.22,9.16 a 1.02,1.01 -36.8 0 1 -0.13,0.88 l -1.77,2.54 q -1.27,1.83 0.9,2.34 c 3.37,0.77 7.4,-3.47 9.69,-5.64 a 0.44,0.43 49.2 0 1 0.65,0.05 q 2.05,2.65 4.76,3.31 c 11.65,2.84 21.47,-3.95 28.42,-12.63 5.4,-6.74 4.61,-15.43 3.92,-23.48 a 0.6,0.6 0 0 0 -0.6,-0.55 c -5.51,0 -10.17,1.34 -14.45,4.8 q -1.79,1.44 -3.87,2.46 a 0.28,0.28 0 0 1 -0.4,-0.27"
           inkscape:connector-curvature="0"
           style="vector-effect:non-scaling-stroke;stroke:#818281" />
        <path
           id="path26717"
           d="m 190.49,138.95 c -15.02,-0.25 -27.65,2.43 -37.2,14.63 -0.35,0.44 -0.39,1.48 -0.17,1.93 a 0.41,0.4 57.1 0 0 0.63,0.14 c 7.44,-6.29 19.13,-7.29 28.42,-7.07 a 1.33,1.32 25.3 0 0 0.88,-0.31 c 1.56,-1.33 7.87,-6.9 7.96,-8.77 a 0.52,0.52 0 0 0 -0.52,-0.55"
           inkscape:connector-curvature="0"
           style="vector-effect:non-scaling-stroke;stroke:#818281" />
        <path
           id="path26719"
           d="m 65.97,71.33 c 0.9,-1.96 2.41,-3.31 2.74,-5.49 2.22,-14.47 1.16,-27.82 -11.63,-36.95 q -5.01,-3.58 -9.76,-3 -2.45,0.3 -3.29,2.62 c -7.6,20.85 -7.54,41.15 -6.82,62.67 q 0.14,4.28 2.01,8.87 c 3.01,7.44 11.61,12.12 17.24,3.63 q 9.99,-15.07 11.92,-32.29 0.07,-0.66 -0.52,-0.36 l -1.46,0.72 q -0.8,0.4 -0.43,-0.42"
           inkscape:connector-curvature="0"
           style="vector-effect:non-scaling-stroke;stroke:#818281" />
        <path
           id="path26721"
           d="m 179,59.62 v 10.4 q 0,2.48 1.03,0.23 2.79,-6.12 1.75,-12.81 -0.35,-2.26 -2.57,-1.72 c -6.15,1.48 -11.85,6.17 -12.43,12.8 q -0.57,6.49 -1.68,12.95 -0.09,0.51 0.37,0.28 c 6.19,-3.09 2.03,-10.16 4.51,-14.94 q 2.11,-4.07 8.38,-7.57 a 0.43,0.43 0 0 1 0.64,0.38"
           inkscape:connector-curvature="0"
           style="vector-effect:non-scaling-stroke;stroke:#818281" />
        <path
           id="path26723"
           d="m 156.51,72.29 c -0.37,-9.72 -7.54,-16.51 -17.52,-14.12 a 1.26,1.24 8.7 0 0 -0.78,0.56 q -2.64,4.25 -4.04,9.06 -0.32,1.12 0.61,0.42 l 2.29,-1.73 a 0.96,0.94 32.9 0 1 0.78,-0.16 c 3.44,0.87 -2.89,20.95 -4.23,24.05 -3.81,8.79 8.02,13.12 14.27,13.34 q 1.91,0.06 2.7,-1.67 6.52,-14.23 5.92,-29.75"
           inkscape:connector-curvature="0"
           style="vector-effect:non-scaling-stroke;stroke:#818281" />
        <path
           id="path26725"
           d="m 198.8,69.38 c 0.49,-3.63 3.93,-6.74 6.16,-9.03 q 2.1,-2.16 -0.72,-1.1 -9.47,3.56 -17.56,9.45 -4.06,2.95 0.88,2.02 5.23,-0.99 10.45,-0.68 a 0.76,0.75 -84.7 0 0 0.79,-0.66"
           inkscape:connector-curvature="0"
           style="vector-effect:non-scaling-stroke;stroke:#818281" />
        <path
           id="path26727"
           d="m 216.97,93 c -2.68,3.87 -5.83,4.47 -5.08,10.2 a 1.23,1.23 0 0 0 1.17,1.06 q 12.28,0.42 23.47,-4.67 a 0.75,0.75 0 0 0 0.44,-0.68 q 0.07,-17.45 3.89,-34.48 0.19,-0.83 -0.56,-0.41 l -15.92,9.15 a 0.39,0.39 0 0 0 -0.17,0.46 l 0.13,0.4 a 0.17,0.16 -22.1 0 0 0.22,0.09 q 4.49,-1.93 9.42,-2.29 2.05,-0.16 1.03,1.62 -2.8,4.88 -7.44,8.19 a 1.59,1.58 -63.1 0 1 -0.94,0.31 q -7.91,0.01 -14.88,3.74 A 1.41,1.4 76.5 0 0 211,86.92 v 7.55 a 0.4,0.39 -13.8 0 0 0.59,0.35 c 0.98,-0.53 4.49,-3.29 5.28,-2.62 a 0.61,0.6 38.3 0 1 0.1,0.8"
           inkscape:connector-curvature="0"
           style="vector-effect:non-scaling-stroke;stroke:#818281" />
        <path
           id="path26729"
           d="m 321.98,73.58 c 0.28,-0.76 3.05,-6.15 3.04,-6.22 a 0.22,0.21 -20.8 0 0 -0.34,-0.15 l -7.26,5.05 q -0.53,0.37 0.1,0.52 l 4.18,0.94 a 0.24,0.24 0 0 0 0.28,-0.14"
           inkscape:connector-curvature="0"
           style="vector-effect:non-scaling-stroke;stroke:#818281" />
        <path
           id="path26731"
           d="m 252.39,106.11 q 6.11,3.44 12.25,1.82 c 9.53,-2.5 17.74,-27.11 13.86,-34.94 -2.43,-4.9 -9.63,-5.62 -14.51,-5.75 a 1.86,1.85 -75.1 0 0 -1.68,0.98 c -5.05,9.43 -6.11,18.44 -7.39,28.84 -0.28,2.32 -1.62,4.26 -3.03,5.75 q -1.87,1.97 0.5,3.3"
           inkscape:connector-curvature="0"
           style="vector-effect:non-scaling-stroke;stroke:#818281" />
        <path
           id="path26733"
           d="m 179.35,96.26 q -3.11,4.97 -8.37,7.67 -1.95,0.99 -1.95,-1.19 L 168.99,87.3 q 0,-1.16 -0.71,-0.23 c -5.2,6.87 -8.45,16.45 -4.57,24.67 q 1.02,2.17 3.42,2.03 7.5,-0.44 14.11,-2.99 c 12.39,-4.8 16.27,-18.53 11.99,-30.27 a 0.81,0.8 79.2 0 0 -0.77,-0.53 l -12.05,0.14 a 1.3,1.29 -88.3 0 0 -1.28,1.21 q -0.44,7.01 0.43,13.96 a 1.48,1.45 -33.2 0 1 -0.21,0.97"
           inkscape:connector-curvature="0"
           style="vector-effect:non-scaling-stroke;stroke:#818281" />
        <path
           id="path26735"
           d="m 305.54,94.78 6.87,-5.63 a 1.28,1.25 74.2 0 0 0.45,-0.83 c 0.59,-5.02 -2.65,-6.74 -7.14,-5.55 a 0.86,0.85 -7.3 0 0 -0.63,0.81 l -0.13,10.92 q -0.01,0.75 0.58,0.28"
           inkscape:connector-curvature="0"
           style="vector-effect:non-scaling-stroke;stroke:#818281" />
        <path
           id="path26737"
           d="m 294.39,84.98 c -6.9,3.42 -16.75,10.29 -12.89,19.34 2.28,5.35 8.23,5.74 12.98,3.56 a 0.83,0.82 77.7 0 0 0.48,-0.75 l 0.05,-21.77 a 0.43,0.43 0 0 0 -0.62,-0.38"
           inkscape:connector-curvature="0"
           style="vector-effect:non-scaling-stroke;stroke:#818281" />
        <path
           id="path26739"
           d="m 311.69,97.84 c -6.55,-0.37 -9.27,5.53 -13.47,9.3 q -0.38,0.34 0.12,0.27 5.6,-0.78 10.11,-4 c 1.78,-1.27 2.49,-3.21 3.51,-5.1 a 0.32,0.32 0 0 0 -0.27,-0.47"
           inkscape:connector-curvature="0"
           style="vector-effect:non-scaling-stroke;stroke:#818281" />
        <path
           id="path26741"
           d="m 150.75,196.46 q -3.27,5.6 -8.77,8.92 c -7.7,4.65 -6.03,-9.77 -6.02,-12.88"
           inkscape:connector-curvature="0"
           style="vector-effect:non-scaling-stroke;stroke:#6e6f6e" />
        <path
           id="path26743"
           d="m 135.96,192.5 q 0.49,-19.85 3.37,-39.51 0.08,-0.52 0.36,-0.96 l 1.02,-1.59 q 0.3,-0.46 -0.24,-0.36 c -2,0.37 -13.69,23.95 -15.19,27.15 q -3.52,7.53 -4.49,11.61"
           inkscape:connector-curvature="0"
           style="vector-effect:non-scaling-stroke;stroke:#818281" />
        <path
           id="path26745"
           d="m 120.79,188.84 -0.12,4.24 a 0.6,0.59 3.7 0 0 0.53,0.6 l 4.44,0.49 a 0.43,0.42 19.9 0 1 0.31,0.65 c -2.96,4.44 -9.45,12.43 -15.36,7.55 a 0.51,0.51 0 0 0 -0.75,0.11 q -1.46,2.18 -4.16,1.87 -2.68,-0.3 -2.68,-3 l -0.01,-17.06"
           inkscape:connector-curvature="0"
           style="vector-effect:non-scaling-stroke;stroke:#6e6f6e" />
        <path
           id="path26747"
           d="m 102.99,184.29 q -0.18,-9.56 0.99,-21.79 0.03,-0.34 -0.2,-0.45 a 0.51,0.5 27.4 0 0 -0.65,0.2 q -5.7,9.43 -12.21,18.32 c -1.05,1.43 -1.09,2.78 -0.88,4.43"
           inkscape:connector-curvature="0"
           style="vector-effect:non-scaling-stroke;stroke:#818281" />
        <path
           id="path26749"
           d="m 90.04,185 q -0.3,5.32 0.73,10.62 a 1.09,1.08 57.3 0 1 -0.18,0.84 q -3.34,4.7 -8.2,7.68 -2.38,1.45 -2.38,-1.34 L 80,197.38 q 0,-1.35 -0.77,-0.24 l -3.4,4.91 a 1.33,1.31 57.9 0 0 -0.22,1 c 1.73,9.16 -7.97,17.74 -14.92,21.7 q -2.04,1.16 -1.95,-1.18 c 0.2,-5.69 2.47,-10.75 4.49,-16.04 1.61,-4.23 -0.12,-8.1 -3.64,-10.51 a 1.18,1.18 0 0 0 -1.56,0.2 C 51.57,204.73 43.15,215.19 32.29,218"
           inkscape:connector-curvature="0"
           style="vector-effect:non-scaling-stroke;stroke:#6e6f6e" />
        <path
           id="path26751"
           d="m 146.6231,144.3508 a 2.83,0.42 -36.9 0 0 -2.5153,1.3633 2.83,0.42 -36.9 0 0 -2.0109,2.0351 2.83,0.42 -36.9 0 0 2.5153,-1.3633 2.83,0.42 -36.9 0 0 2.0109,-2.0351"
           inkscape:connector-curvature="0"
           style="vector-effect:non-scaling-stroke;stroke:#818281" />
        <path
           id="path26753"
           d="m 47.59,205.14 6.67,-8.41 q 0.95,-1.19 -0.54,-0.88 l -6.35,1.33 a 0.62,0.61 -12.4 0 0 -0.48,0.74 q 0.74,3.41 -0.28,6.7 -0.91,2.91 0.98,0.52"
           inkscape:connector-curvature="0"
           style="vector-effect:non-scaling-stroke;stroke:#818281" />
        <path
           id="path26755"
           d="m 279.5,200.71 -7.38,7.31 q -2.07,2.05 -2.1,-0.86 l -0.09,-12.08"
           inkscape:connector-curvature="0"
           style="vector-effect:non-scaling-stroke;stroke:#6e6f6e" />
        <path
           id="path26757"
           d="m 269.93,195.08 0.66,-18.35 a 0.45,0.44 83.7 0 0 -0.55,-0.45 l -10.48,2.66 a 0.62,0.62 0 0 0 -0.47,0.6 l -0.05,11.21"
           inkscape:connector-curvature="0"
           style="vector-effect:non-scaling-stroke;stroke:#818281" />
        <path
           id="path26759"
           d="m 259.04,190.75 q 1.51,11.79 -9.13,16.21 a 0.65,0.65 0 0 1 -0.9,-0.6 L 248.96,193"
           inkscape:connector-curvature="0"
           style="vector-effect:non-scaling-stroke;stroke:#6e6f6e" />
        <path
           id="path26761"
           d="m 248.96,193 0.03,-12.44 a 0.55,0.55 0 0 0 -0.65,-0.54 l -4.23,0.77 a 0.73,0.72 -15.1 0 1 -0.8,-0.46 l -0.32,-0.87 a 0.68,0.67 -21.4 0 0 -0.89,-0.38 l -2.78,1.16 a 0.61,0.61 0 0 0 -0.33,0.78 c 1.67,4.37 2.65,8.59 1.33,12.84"
           inkscape:connector-curvature="0"
           style="vector-effect:non-scaling-stroke;stroke:#818281" />
        <path
           id="path26763"
           d="m 240.32,193.86 c -1.74,2.24 -8.88,9.92 -11.66,9.08 a 0.53,0.52 -65 0 1 -0.28,-0.79 l 2.39,-3.68 a 1.17,1.17 0 0 0 0.15,-0.97 l -1.6,-5.65"
           inkscape:connector-curvature="0"
           style="vector-effect:non-scaling-stroke;stroke:#6e6f6e" />
        <path
           id="path26765"
           d="m 229.32,191.85 -2.29,-8.17 a 1.12,1.11 -14 0 0 -1.33,-0.79 l -14.08,3.22 a 0.75,0.73 -5.7 0 0 -0.58,0.69 l -0.35,9.77 q -0.07,2.03 1.9,1.52 l 3.35,-0.86 q 0.54,-0.14 0.34,0.38 l -1.2,3.22"
           inkscape:connector-curvature="0"
           style="vector-effect:non-scaling-stroke;stroke:#818281" />
        <path
           id="path26767"
           d="m 215.08,200.83 c -2.68,2.31 -6.01,6.21 -8.92,7.18 q -3.41,1.14 -6.38,-1.77"
           inkscape:connector-curvature="0"
           style="vector-effect:non-scaling-stroke;stroke:#6e6f6e" />
        <path
           id="path26769"
           d="m 328.3,183.22 c -1.14,4.76 -0.31,9.67 -1.37,14.61 a 0.4,0.39 3.8 0 0 0.42,0.47 l 7.8,-0.72 q 2.01,-0.19 2.01,-2.21 l 0.01,-13.61 a 0.75,0.75 0 0 0 -0.73,-0.75 q -3.96,-0.09 -7.57,1.52 a 1.03,1 85.4 0 0 -0.57,0.69"
           inkscape:connector-curvature="0"
           style="vector-effect:non-scaling-stroke;stroke:#818281" />
        <path
           id="path26771"
           d="m 359.29,196.75 q -0.69,5.77 0.45,11.15 a 2.74,2.73 58.3 0 1 -0.53,2.25 q -3.53,4.48 -8.29,7.56 a 0.76,0.76 0 0 1 -1.16,-0.51 q -1.16,-6.89 -0.8,-14.2"
           inkscape:connector-curvature="0"
           style="vector-effect:non-scaling-stroke;stroke:#6e6f6e" />
        <path
           id="path26773"
           d="m 135.96,192.5 -15.17,-3.66"
           inkscape:connector-curvature="0"
           style="vector-effect:non-scaling-stroke;stroke:#ececec" />
        <path
           id="path26775"
           d="m 167,207.04 q -7.18,1.38 -14.47,0.55 -2.93,-0.33 -1.59,-2.96 1.98,-3.9 1.77,-8.13"
           inkscape:connector-curvature="0"
           style="vector-effect:non-scaling-stroke;stroke:#6e6f6e" />
        <path
           id="path26777"
           d="m 162.21,178.85 a 0.54,0.54 0 0 0 -0.31,0.52 l 0.32,5.81 a 0.54,0.54 0 0 0 0.94,0.32 l 8.89,-10.22 a 0.54,0.54 0 0 0 -0.64,-0.84 l -9.2,4.41"
           inkscape:connector-curvature="0"
           style="vector-effect:non-scaling-stroke;stroke:#818281" />
        <path
           id="path26779"
           d="m 102.99,184.29 q -5.35,-0.94 -10.41,0.76 -0.47,0.16 -0.96,0.11 L 90.04,185"
           inkscape:connector-curvature="0"
           style="vector-effect:non-scaling-stroke;stroke:#ececec" />
        <path
           id="path26781"
           d="m 269.93,195.08 -6.99,-1.67 a 1.46,1.41 -11.3 0 1 -0.78,-0.5 q -1.23,-1.57 -3.12,-2.16"
           inkscape:connector-curvature="0"
           style="vector-effect:non-scaling-stroke;stroke:#ececec" />
        <path
           id="path26783"
           d="m 248.96,193 -8.64,0.86"
           inkscape:connector-curvature="0"
           style="vector-effect:non-scaling-stroke;stroke:#ececec" />
        <path
           id="path26785"
           d="m 229.32,191.85 q -2.94,0.08 -5.54,1.24 a 1.61,1.52 1.7 0 0 -0.72,0.64 q -2.82,4.89 -7.98,7.1"
           inkscape:connector-curvature="0"
           style="vector-effect:non-scaling-stroke;stroke:#ececec" />
        <path
           id="path26787"
           d="m 389.2197,189.534 a 2.6,0.74 -10.1 0 0 -2.6895,-0.2725 2.6,0.74 -10.1 0 0 -2.4299,1.1845 2.6,0.74 -10.1 0 0 2.6895,0.2725 2.6,0.74 -10.1 0 0 2.4299,-1.1845"
           inkscape:connector-curvature="0"
           style="vector-effect:non-scaling-stroke;stroke:#ececec" />
        <path
           id="path26789"
           d="m 293.82,221.68 q -5.9,-7.96 -12.95,-14.94 a 0.94,0.93 -28.6 0 0 -0.86,-0.25 l -1.01,0.24 a 0.48,0.47 66.8 0 0 -0.29,0.73 c 5.66,8.52 9.27,12.22 17.91,17.74 q 0.46,0.3 0.2,-0.18 c -0.78,-1.38 -2.22,-2.29 -3,-3.34"
           inkscape:connector-curvature="0"
           style="vector-effect:non-scaling-stroke;stroke:#ececec" />
        <path
           id="path26791"
           d="m 319.69,224.67 0.56,-1.44 q 0.52,-1.32 -0.8,-0.82 l -2.03,0.76 q -0.78,0.29 -0.12,0.81 l 1.25,0.99 a 0.74,0.73 30 0 0 1.14,-0.3"
           inkscape:connector-curvature="0"
           style="vector-effect:non-scaling-stroke;stroke:#ececec" />
      </g>
      <path
         id="path26795"
         d="m 0,0 h 442 v 200.31 q -7.16,-1.05 -14.43,-1.37 -2.18,-0.1 -4.48,-1.09 c -6.96,-3 -12.66,-2.38 -21.9,-2.23 q -0.82,0.02 -1.51,-0.62 a 0.4,0.4 0 0 1 0.08,-0.65 q 1,-0.55 0.89,-1.61 a 0.44,0.44 0 0 0 -0.6,-0.36 q -1.43,0.6 -2.86,0.38 -1.01,-0.16 -0.11,-0.65 6.12,-3.35 13.03,-2.6 a 0.34,0.34 0 0 0 0.37,-0.42 c -0.82,-2.97 -18.16,-2.57 -20.89,-2.67 -7.99,-0.28 -12.97,3.64 -19.73,6.56 -3.13,1.35 -6.15,3.68 -10.57,3.77 0.32,-17.17 3.25,-33.76 5.78,-50.58 q 0.21,-1.38 -1.07,-0.81 -4.61,2.04 -7.03,5.74 -1.59,2.41 -2.6,8.27 -3.76,21.69 -5.41,43.63 -6.48,-0.48 -11.36,3.26 c -8.27,6.34 -17.38,11.24 -26.9,15.53 q -2.16,0.97 -3,-1.25 -1.42,-3.77 -5.2,-5.14 -0.5,-0.18 -0.85,-0.58 -1.55,-1.78 -4.66,-2.87 -1.6,-0.57 -6.8,-3.54 a 1.9,1.9 0 0 1 -0.72,-0.72 q -0.38,-0.68 -1.23,-0.42 a 1.01,1.01 0 0 1 -1.01,-0.25 l -4.03,-3.96 q -0.36,-0.35 -0.79,-0.6 l -2.91,-1.75 q 0.55,-1.92 0.54,-2.71 -0.15,-11.28 0.07,-22.57 c 0.13,-7.02 5.77,-7.3 8.84,-13.02 q 0.86,-1.6 -0.73,-0.73 l -5.1,2.77 q -1.77,0.96 -1.44,-1.03 1.98,-12.02 2.97,-24.16 0.15,-1.76 -1.39,-0.9 c -4.05,2.26 -8.31,5.88 -8.82,10.78 -0.76,7.27 -0.34,15.45 -3.17,19.1 a 1.25,1.22 -74.9 0 1 -0.81,0.48 l -10.79,1.5 A 0.59,0.59 0 0 1 259,169.64 v -29.37 a 0.37,0.37 0 0 0 -0.5,-0.34 c -4.23,1.66 -9.48,6.64 -9.49,11.07 q -0.02,9.12 0,18.28 a 0.65,0.65 0 0 1 -0.53,0.64 l -10.76,2.15 a 1.06,1.06 0 0 1 -1.26,-0.85 q -2.27,-12.79 -2.63,-25.75 a 0.54,0.53 -14.3 0 0 -0.78,-0.46 c -4.52,2.32 -8.76,6.2 -9.05,11.62 -0.32,5.88 0.88,13.17 1.19,17.87 a 0.63,0.62 80.9 0 1 -0.46,0.64 l -10.42,2.71 q -0.59,0.15 -0.41,-0.44 6.26,-20.59 18.84,-37.99 1.38,-1.92 -0.88,-2.59 c -4.12,-1.23 -7.8,-0.93 -12.57,-0.4 -11.52,1.27 -21.11,5.65 -30.01,12.92 -4.91,4 -8.33,6.67 -11.1,11.51 a 0.51,0.51 0 0 0 0.3,0.74 l 0.31,0.1 a 0.93,0.93 0 0 0 0.93,-0.24 q 17.08,-17.54 41.93,-15.23 a 0.9,0.89 19.6 0 1 0.66,1.39 q -11.07,16.45 -17.55,35.09 -0.26,0.76 -2.09,3.2 A 0.19,0.11 -57 0 1 202.5,186 l -0.25,-0.09 a 0.37,0.36 -81.9 0 1 -0.24,-0.33 c -0.08,-11.88 1.17,-23.79 0.83,-35.82 a 0.32,0.32 0 0 0 -0.46,-0.28 c -3.99,2 -9.08,6.11 -9.28,10.97 -0.66,15.9 -2.13,26.47 -0.18,39.09 a 0.45,0.44 70.7 0 0 0.66,0.32 q 3.76,-2.21 6.49,-5.69 a 0.45,0.43 18.1 0 1 0.35,-0.17 l 0.28,-0.01 a 0.4,0.39 -87.4 0 1 0.4,0.44 l -1.32,11.81 c -4.78,0 -6.3,4.53 -11.07,4.52 q -7.43,-0.03 -14.72,-2.75 -0.54,-0.2 -1.05,0.05 a 0.4,0.4 0 0 0 -0.11,0.64 l 1.49,1.49 a 0.67,0.65 28.1 0 1 0.18,0.56 l -0.04,0.34 a 0.54,0.53 -80.3 0 1 -0.63,0.45 q -2.21,-0.43 -3.56,-2.17 a 1.65,1.57 77.6 0 0 -0.83,-0.56 q -1.6,-0.45 -2.44,-1.77 11.39,-2.51 18.03,-12.12 a 0.41,0.41 0 0 0 -0.28,-0.64 q -0.49,-0.08 -1.12,0.19 -9.77,4.11 -20.41,3.5 a 1.44,1.43 12.5 0 1 -1.25,-1.96 l 2.66,-6.74 q 0.83,-2.08 2.36,-3.71 9,-9.51 16.19,-20.45 0.8,-1.22 -0.65,-1.09 c -5.05,0.43 -12.93,5.11 -18.43,7.79 q -2.09,1.02 -2.09,-1.31 L 162,154.77 a 0.41,0.41 0 0 0 -0.6,-0.36 c -3.92,2.06 -8.86,6.07 -9.14,10.83 q -0.91,15.66 0.45,31.26 l -1.96,-0.04 q -0.75,-0.9 -1.7,-0.15 a 0.83,0.83 0 0 1 -0.84,0.1 q -2.14,-0.98 -2.21,-2.92 -0.75,-21 3.03,-46.49 0.31,-2.12 -0.87,-3.17 a 0.47,0.47 0 0 1 0.01,-0.7 q 3.41,-2.9 5.82,-6.66 0.65,-1.01 -0.52,-0.72 c -2.24,0.57 -4.55,1.56 -6.37,3.15 -15.37,13.41 -24.75,31.52 -33.31,49.65 a 0.31,0.31 0 0 1 -0.31,0.18 c -0.29,-0.02 -0.4,-0.23 -0.41,-0.52 -0.48,-19.49 0.29,-33.07 3.64,-51.73 q 0.09,-0.5 -0.39,-0.32 c -9.36,3.44 -9.89,10.25 -11.34,18.93 a 1.82,1.81 -10.3 0 1 -0.89,1.28 c -5.74,3.25 -10.12,12.68 -13.55,18.25 q -0.26,0.44 -0.34,-0.07 -0.36,-2.59 -0.07,-6.37 0.88,-11.49 1.78,-22.98 c 0.03,-0.45 -0.2,-1.1 -0.27,-1.55 a 0.65,0.64 -23.1 0 0 -1.04,-0.41 c -4.48,3.43 -8.11,5.23 -8.76,11.48 q -1.64,15.77 -1.9,31.63 c -0.06,3.91 -1.73,6.03 -4.33,8.55 A 0.39,0.38 53.1 0 1 75,194.81 c -2.04,-3.61 -4.24,-7.85 -8.55,-9.15 a 0.37,0.37 0 0 1 -0.21,-0.55 c 8.71,-13.4 16.57,-30.93 13.26,-47.12 -2.74,-13.35 -30.96,3.43 -37.1,7.13 q -5.27,3.18 -7.61,7.54 -1.4,2.61 1.16,1.13 c 4.71,-2.72 31.39,-18.38 33.54,-6.76 2.5,13.55 -1.69,26.29 -9.1,38.95 a 1.14,1.12 11.2 0 1 -0.84,0.55 q -7.23,0.87 -13.08,5.17 -0.42,0.3 -0.46,-0.21 -1.51,-19.99 -0.9,-40.03 a 1.21,1.21 0 0 0 -1.74,-1.12 c -3.62,1.76 -8.1,5.9 -8.24,10.4 q -0.63,19.88 0.93,39.79 a 1.25,1.24 -27.8 0 1 -0.28,0.89 q -5.81,7.3 -3.49,16.58 l -1.01,1.96 q -0.24,0.47 -0.65,0.78 -8.59,6.41 -13.27,16.11 a 0.65,0.65 0 0 0 0.57,0.93 L 26.44,238 H 0 Z m 93.81,109.36 c 5.45,13.4 19.41,6.71 26.17,-0.81 a 1.27,1.27 0 0 1 1.94,0.06 c 2.78,3.58 10.82,4.21 15.1,4.65 6.66,0.69 10.94,-4.32 15.51,-8.29 q 0.83,-0.72 0.53,0.34 c -1.49,5.18 -2.8,18.41 6.11,18.02 17.16,-0.76 30.04,-11.97 40.04,-24.95 a 0.5,0.5 0 0 1 0.83,0.06 q 1.51,2.7 0.67,5.78 -0.14,0.51 -0.5,0.89 -3.29,3.58 -5.22,8.04 a 0.42,0.42 0 0 0 0.36,0.59 c 15.51,1.1 29.08,0.43 41.09,-10.47 q 0.51,-0.45 0.52,0.23 l 0.15,8.82 a 1.04,1.04 0 0 0 0.65,0.95 l 3.08,1.24 q 0.47,0.2 0.83,0.57 1.6,1.7 3.65,2.3 c 10.45,3.08 18.07,-2.47 25.19,-9.23 q 0.76,-0.72 0.62,0.31 c -1.11,8.63 4.04,10.66 11.52,10.04 q 16.61,-1.38 28.21,-13.61 0.37,-0.39 0.33,0.14 l -0.23,3.44 q -0.22,3.13 2.77,4.1 c 8.08,2.63 14.3,-1.13 18.15,-8.2 q 0.39,-0.71 -0.41,-0.65 -4.87,0.37 -9.39,-1.42 a 1.88,1.88 0 0 1 -1.16,-2.06 l 0.85,-5.15 a 1.07,1.07 0 0 1 0.74,-0.86 l 9.74,-3.13 a 0.52,0.51 -13.4 0 1 0.67,0.41 q 1.16,7.14 2.63,14.23 c 0.79,3.85 -2.39,6.26 2.96,9.02 a 0.86,0.83 -79.5 0 1 0.46,0.69 l 0.12,1.88 a 0.51,0.51 0 0 0 0.79,0.39 q 7.61,-5 13.59,-11.85 0.57,-0.64 -0.29,-0.69 l -3.74,-0.24 a 1.4,1.4 0 0 1 -1.17,-0.78 c -4.19,-8.54 -0.97,-15.89 3.24,-23.68 5.67,-10.51 9.17,-18.04 18.66,-25.32 0.69,-0.52 2.49,-2.76 2.57,-3.25 q 0.44,-2.57 -1.68,-1.05 C 360.7,58.3 353.12,67.87 346.77,78.73 q -1.16,1.97 -3.29,1.21 a 0.69,0.68 9.5 0 1 -0.47,-0.65 l -0.04,-18.2 q 0,-2.19 -1.83,-0.99 c -3.58,2.33 -8.03,5.88 -8.27,10.43 q -0.34,6.26 0.1,12.63 a 0.75,0.75 0 0 1 -0.54,0.78 l -7.32,2.1 q -1.62,0.47 -1.1,-1.14 4.82,-14.75 12.26,-28.37 a 0.15,0.15 0 0 0 -0.02,-0.17 l -0.18,-0.18 a 0.22,0.21 52.2 0 0 -0.26,-0.04 l -22.89,13.31 q -0.8,0.46 -0.35,-0.35 c 4.05,-7.21 9.98,-10.74 8.27,-20.19 q -0.33,-1.85 -2.2,-1.65 c -9.57,1.03 -17.66,1.38 -22.68,10.93 q -0.55,1.04 0.62,0.86 l 12.39,-1.87 a 1.66,1.66 0 0 1 1.9,1.42 q 1.11,8.15 -5.22,13.01 -0.65,0.5 -0.65,-0.32 v -7.03 a 0.4,0.4 0 0 0 -0.56,-0.37 q -7.85,3.36 -9.8,11.61 a 1.44,1.43 78.2 0 1 -0.53,0.81 l -4.9,3.73 a 0.59,0.59 0 0 1 -0.78,-0.05 q -0.29,-0.29 -0.19,-0.75 c 1.6,-8.1 3.99,-17.24 -5.67,-20.55 q -11.58,-3.97 -21.57,5.9 -1.84,1.81 -0.68,-0.49 l 1.17,-2.31 q 1.53,-3.06 -1.44,-1.36 c -7.73,4.41 -9.24,11.57 -12.38,19.13 q -0.2,0.46 -0.16,-0.04 0.6,-8.42 1.77,-16.8 c 0.81,-5.85 15.73,-7.65 19.81,-7.93 4.64,-0.32 8.64,-4.91 10.92,-8.61 a 0.78,0.78 0 0 0 -0.63,-1.19 c -11.69,-0.4 -24.02,6.16 -34.75,11.54 -7.7,3.86 -21.46,11.3 -23.15,18.56 a 0.71,0.7 -87.5 0 1 -0.58,0.54 q -4.79,0.75 -8.18,4.09 -0.58,0.58 -0.41,-0.23 l 3.77,-17.91 a 0.66,0.66 0 0 1 0.53,-0.52 q 5.94,-1.09 11.88,-2.09 c 5,-0.84 8.51,-5.4 11.51,-8.63 q 1.78,-1.93 -0.8,-1.47 l -21.3,3.73 a 0.57,0.57 0 0 1 -0.66,-0.48 l -0.31,-2.17 a 1.25,1.25 0 0 0 -1.51,-1.04 c -9.49,2.14 -17.04,7.33 -24.85,12.82 q -0.56,0.39 -0.3,-0.24 2.6,-6.25 1.47,-13.02 -0.47,-2.83 -3.31,-2.38 c -8.68,1.39 -16.38,7.17 -21.27,14.08 q -0.78,1.11 -1.01,-0.22 c -2.05,-11.8 -15.37,-15.7 -24.14,-8.91 -15.95,12.33 -22.16,31.16 -22.05,51.11 0.01,2.62 -0.5,4.39 -3.28,4.73 -5.81,0.72 -12.86,-0.7 -12.77,-8.12 q 0.21,-18.25 9.61,-33.7 1,-1.64 3.21,-2.16 0.5,-0.12 0.21,0.31 c -0.98,1.44 -3.75,5.6 -2.8,6.49 a 0.75,0.75 0 0 0 0.89,0.1 q 7.87,-4.53 11.74,-12.6 2.31,-4.8 -2.87,-3.56 c -3.77,0.91 -8.59,5.34 -11.82,8.66 -9.69,9.96 -16.52,23.57 -17.36,37.7 q -0.02,0.35 -0.23,0.45 a 0.32,0.32 0 0 1 -0.45,-0.28 q -0.15,-2.68 0.11,-5.35 1.83,-18.58 3.06,-37.3 a 0.98,0.97 88.6 0 1 0.85,-0.9 l 9.61,-1.22 a 0.53,0.53 0 0 1 0.59,0.53 l -0.03,1.26 q -0.04,1.72 1.41,0.8 5.82,-3.65 8.81,-9.81 0.95,-1.97 -1.23,-2.13 C 105.26,45.16 89.8,52.28 79.46,58.01 Q 79.03,58.25 79.1,57.76 80.89,46.51 78.95,37.07 C 76.36,24.46 61.77,9.44 48.32,19.06 40.04,24.99 33.29,34.98 30.77,45.31 c -4.51,18.44 -5.79,34.86 -6.59,52.62 -0.31,6.98 0.3,16.7 7.52,20.24 a 0.91,0.9 -47.8 0 0 0.88,-0.05 q 2.12,-1.34 3.41,-0.89 c 5.44,1.93 9.3,0.67 13.84,-3.01 Q 73.36,95.1 78.33,64.51 a 1.01,1 83.9 0 1 0.62,-0.78 l 13.23,-5.25 q 1.2,-0.47 0.24,0.39 c -2.53,2.29 -4.84,4.37 -5.19,8.05 q -2.5,26.37 -4.09,52.82 -0.11,1.74 0.5,2.98 A 1.04,1.04 0 0 0 85.3,123 l 8.13,-8.01 a 1.23,1.22 -26.4 0 0 0.35,-1.03 l -0.56,-4.45 q -0.3,-2.32 0.59,-0.15 z M 387,85.71 v -19.4 a 0.6,0.6 0 0 0 -0.88,-0.53 q -4.57,2.36 -7.66,6.47 -1.45,1.95 -1.45,4.37 0,8.95 -0.02,18.17 c -0.01,3.09 -0.86,5.03 -3.11,6.91 a 1.01,1.01 0 0 1 -1.58,-0.38 q -1.89,-4.48 -1.83,-9.83 0.18,-13.87 0.64,-28.02 a 1.24,1.23 -10.7 0 0 -1.72,-1.17 c -4.32,1.83 -8.1,6.07 -8.29,11.09 q -0.81,21.42 -0.64,26.11 c 0.16,4.56 0.48,9.57 3.19,13.16 4.53,5.98 9.22,-0.57 12.55,-3.28 a 0.33,0.32 -27.4 0 1 0.52,0.16 c 3.84,13.71 10.62,5.76 15.32,-0.79 a 0.88,0.87 -66.3 0 0 -0.53,-1.37 c -5.21,-1.09 -5.18,-11.3 -4.22,-14.86 1.21,-4.49 6.59,-9.26 9.87,-12.26 q 2.31,-2.1 1.98,1 -2.35,21.85 -2.14,43.82 0.02,2.2 1.58,0.65 l 7.9,-7.82 a 1.76,1.73 67.7 0 0 0.52,-1.27 c -0.17,-15.4 1.25,-30.97 2.11,-46.63 a 2.1,2.1 0 0 1 0.88,-1.61 c 2.03,-1.41 11,-8.15 10.92,-10.53 a 0.57,0.57 0 0 0 -0.56,-0.55 c -1.52,-0.04 -8.98,6.2 -10.82,7.49 q -0.8,0.56 -0.79,-0.42 l 0.01,-1.03 A 0.4,0.39 -11.9 0 0 408.19,63 q -4.55,2.08 -7.47,6.08 c -1.45,1.97 -1.37,4.8 -2.69,6.43 q -2.94,3.63 -10.63,10.38 -0.4,0.36 -0.4,-0.18 z m -59.41,92.26 1.57,-41.42 a 0.52,0.52 0 0 0 -0.58,-0.53 c -12.65,1.41 -34.22,7.36 -41.14,19.31 a 0.46,0.46 0 0 0 0.21,0.66 q 0.61,0.27 1.08,0.03 c 10.88,-5.32 18.62,-8.55 29.56,-10 a 0.78,0.77 -2.5 0 1 0.88,0.8 l -1.16,28.13 a 1.48,1.47 70.3 0 1 -0.48,1.02 q -5.31,4.87 -8.28,11.43 a 0.58,0.57 23.6 0 1 -0.75,0.29 c -1.27,-0.54 -0.73,-34.34 -0.6,-37.87 q 0.06,-1.55 -1.28,-0.76 -4.72,2.78 -8.13,7.07 a 3.4,3.33 66.1 0 0 -0.73,1.95 q -0.81,18.52 0.49,36.92 0.19,2.72 2.22,9.16 a 1.02,1.01 -36.8 0 1 -0.13,0.88 l -1.77,2.54 q -1.27,1.83 0.9,2.34 c 3.37,0.77 7.4,-3.47 9.69,-5.64 a 0.44,0.43 49.2 0 1 0.65,0.05 q 2.05,2.65 4.76,3.31 c 11.65,2.84 21.47,-3.95 28.42,-12.63 5.4,-6.74 4.61,-15.43 3.92,-23.48 a 0.6,0.6 0 0 0 -0.6,-0.55 c -5.51,0 -10.17,1.34 -14.45,4.8 q -1.79,1.44 -3.87,2.46 a 0.28,0.28 0 0 1 -0.4,-0.27 z m -137.1,-39.02 c -15.02,-0.25 -27.65,2.43 -37.2,14.63 -0.35,0.44 -0.39,1.48 -0.17,1.93 a 0.41,0.4 57.1 0 0 0.63,0.14 c 7.44,-6.29 19.13,-7.29 28.42,-7.07 a 1.33,1.32 25.3 0 0 0.88,-0.31 c 1.56,-1.33 7.87,-6.9 7.96,-8.77 a 0.52,0.52 0 0 0 -0.52,-0.55 z"
         inkscape:connector-curvature="0"
         style="fill:#ffffff" />
      <path
         id="path26797"
         d="m 93.22,109.51 0.56,4.45 a 1.23,1.22 -26.4 0 1 -0.35,1.03 L 85.3,123 a 1.04,1.04 0 0 1 -1.66,-0.28 q -0.61,-1.24 -0.5,-2.98 1.59,-26.45 4.09,-52.82 c 0.35,-3.68 2.66,-5.76 5.19,-8.05 q 0.96,-0.86 -0.24,-0.39 l -13.23,5.25 a 1.01,1 83.9 0 0 -0.62,0.78 q -4.97,30.59 -28.5,49.71 c -4.54,3.68 -8.4,4.94 -13.84,3.01 q -1.29,-0.45 -3.41,0.89 a 0.91,0.9 -47.8 0 1 -0.88,0.05 c -7.22,-3.54 -7.83,-13.26 -7.52,-20.24 0.8,-17.76 2.08,-34.18 6.59,-52.62 2.52,-10.33 9.27,-20.32 17.55,-26.25 13.45,-9.62 28.04,5.4 30.63,18.01 q 1.94,9.44 0.15,20.69 -0.07,0.49 0.36,0.25 c 10.34,-5.73 25.8,-12.85 37.76,-11.96 q 2.18,0.16 1.23,2.13 -2.99,6.16 -8.81,9.81 -1.45,0.92 -1.41,-0.8 l 0.03,-1.26 a 0.53,0.53 0 0 0 -0.59,-0.53 l -9.61,1.22 a 0.98,0.97 88.6 0 0 -0.85,0.9 q -1.23,18.72 -3.06,37.3 -0.26,2.67 -0.11,5.35 a 0.32,0.32 0 0 0 0.45,0.28 q 0.21,-0.1 0.23,-0.45 c 0.84,-14.13 7.67,-27.74 17.36,-37.7 3.23,-3.32 8.05,-7.75 11.82,-8.66 q 5.18,-1.24 2.87,3.56 -3.87,8.07 -11.74,12.6 a 0.75,0.75 0 0 1 -0.89,-0.1 c -0.95,-0.89 1.82,-5.05 2.8,-6.49 q 0.29,-0.43 -0.21,-0.31 -2.21,0.52 -3.21,2.16 -9.4,15.45 -9.61,33.7 c -0.09,7.42 6.96,8.84 12.77,8.12 2.78,-0.34 3.29,-2.11 3.28,-4.73 -0.11,-19.95 6.1,-38.78 22.05,-51.11 8.77,-6.79 22.09,-2.89 24.14,8.91 q 0.23,1.33 1.01,0.22 c 4.89,-6.91 12.59,-12.69 21.27,-14.08 q 2.84,-0.45 3.31,2.38 1.13,6.77 -1.47,13.02 -0.26,0.63 0.3,0.24 c 7.81,-5.49 15.36,-10.68 24.85,-12.82 a 1.25,1.25 0 0 1 1.51,1.04 l 0.31,2.17 a 0.57,0.57 0 0 0 0.66,0.48 l 21.3,-3.73 q 2.58,-0.46 0.8,1.47 c -3,3.23 -6.51,7.79 -11.51,8.63 q -5.94,1 -11.88,2.09 a 0.66,0.66 0 0 0 -0.53,0.52 l -3.77,17.91 q -0.17,0.81 0.41,0.23 3.39,-3.34 8.18,-4.09 a 0.71,0.7 -87.5 0 0 0.58,-0.54 c 1.69,-7.26 15.45,-14.7 23.15,-18.56 10.73,-5.38 23.06,-11.94 34.75,-11.54 a 0.78,0.78 0 0 1 0.63,1.19 c -2.28,3.7 -6.28,8.29 -10.92,8.61 -4.08,0.28 -19,2.08 -19.81,7.93 q -1.17,8.38 -1.77,16.8 -0.04,0.5 0.16,0.04 c 3.14,-7.56 4.65,-14.72 12.38,-19.13 q 2.97,-1.7 1.44,1.36 l -1.17,2.31 q -1.16,2.3 0.68,0.49 9.99,-9.87 21.57,-5.9 c 9.66,3.31 7.27,12.45 5.67,20.55 q -0.1,0.46 0.19,0.75 a 0.59,0.59 0 0 0 0.78,0.05 l 4.9,-3.73 a 1.44,1.43 78.2 0 0 0.53,-0.81 q 1.95,-8.25 9.8,-11.61 a 0.4,0.4 0 0 1 0.56,0.37 v 7.03 q 0,0.82 0.65,0.32 6.33,-4.86 5.22,-13.01 a 1.66,1.66 0 0 0 -1.9,-1.42 l -12.39,1.87 q -1.17,0.18 -0.62,-0.86 c 5.02,-9.55 13.11,-9.9 22.68,-10.93 q 1.87,-0.2 2.2,1.65 c 1.71,9.45 -4.22,12.98 -8.27,20.19 q -0.45,0.81 0.35,0.35 l 22.89,-13.31 a 0.22,0.21 52.2 0 1 0.26,0.04 l 0.18,0.18 a 0.15,0.15 0 0 1 0.02,0.17 q -7.44,13.62 -12.26,28.37 -0.52,1.61 1.1,1.14 l 7.32,-2.1 a 0.75,0.75 0 0 0 0.54,-0.78 q -0.44,-6.37 -0.1,-12.63 c 0.24,-4.55 4.69,-8.1 8.27,-10.43 q 1.83,-1.2 1.83,0.99 l 0.04,18.2 a 0.69,0.68 9.5 0 0 0.47,0.65 q 2.13,0.76 3.29,-1.21 C 353.12,67.87 360.7,58.3 371.06,50.86 q 2.12,-1.52 1.68,1.05 c -0.08,0.49 -1.88,2.73 -2.57,3.25 -9.49,7.28 -12.99,14.81 -18.66,25.32 -4.21,7.79 -7.43,15.14 -3.24,23.68 a 1.4,1.4 0 0 0 1.17,0.78 l 3.74,0.24 q 0.86,0.05 0.29,0.69 -5.98,6.85 -13.59,11.85 a 0.51,0.51 0 0 1 -0.79,-0.39 l -0.12,-1.88 a 0.86,0.83 -79.5 0 0 -0.46,-0.69 c -5.35,-2.76 -2.17,-5.17 -2.96,-9.02 q -1.47,-7.09 -2.63,-14.23 a 0.52,0.51 -13.4 0 0 -0.67,-0.41 l -9.74,3.13 a 1.07,1.07 0 0 0 -0.74,0.86 l -0.85,5.15 a 1.88,1.88 0 0 0 1.16,2.06 q 4.52,1.79 9.39,1.42 0.8,-0.06 0.41,0.65 c -3.85,7.07 -10.07,10.83 -18.15,8.2 q -2.99,-0.97 -2.77,-4.1 l 0.23,-3.44 q 0.04,-0.53 -0.33,-0.14 -11.6,12.23 -28.21,13.61 c -7.48,0.62 -12.63,-1.41 -11.52,-10.04 q 0.14,-1.03 -0.62,-0.31 c -7.12,6.76 -14.74,12.31 -25.19,9.23 q -2.05,-0.6 -3.65,-2.3 -0.36,-0.37 -0.83,-0.57 l -3.08,-1.24 a 1.04,1.04 0 0 1 -0.65,-0.95 l -0.15,-8.82 q -0.01,-0.68 -0.52,-0.23 c -12.01,10.9 -25.58,11.57 -41.09,10.47 a 0.42,0.42 0 0 1 -0.36,-0.59 q 1.93,-4.46 5.22,-8.04 0.36,-0.38 0.5,-0.89 0.84,-3.08 -0.67,-5.78 a 0.5,0.5 0 0 0 -0.83,-0.06 c -10,12.98 -22.88,24.19 -40.04,24.95 -8.91,0.39 -7.6,-12.84 -6.11,-18.02 q 0.3,-1.06 -0.53,-0.34 c -4.57,3.97 -8.85,8.98 -15.51,8.29 -4.28,-0.44 -12.32,-1.07 -15.1,-4.65 a 1.27,1.27 0 0 0 -1.94,-0.06 c -6.76,7.52 -20.72,14.21 -26.17,0.81 q -0.89,-2.17 -0.59,0.15 z M 65.97,71.33 c 0.9,-1.96 2.41,-3.31 2.74,-5.49 2.22,-14.47 1.16,-27.82 -11.63,-36.95 q -5.01,-3.58 -9.76,-3 -2.45,0.3 -3.29,2.62 c -7.6,20.85 -7.54,41.15 -6.82,62.67 q 0.14,4.28 2.01,8.87 c 3.01,7.44 11.61,12.12 17.24,3.63 q 9.99,-15.07 11.92,-32.29 0.07,-0.66 -0.52,-0.36 l -1.46,0.72 q -0.8,0.4 -0.43,-0.42 z M 179,59.62 v 10.4 q 0,2.48 1.03,0.23 2.79,-6.12 1.75,-12.81 -0.35,-2.26 -2.57,-1.72 c -6.15,1.48 -11.85,6.17 -12.43,12.8 q -0.57,6.49 -1.68,12.95 -0.09,0.51 0.37,0.28 c 6.19,-3.09 2.03,-10.16 4.51,-14.94 q 2.11,-4.07 8.38,-7.57 a 0.43,0.43 0 0 1 0.64,0.38 z m -22.49,12.67 c -0.37,-9.72 -7.54,-16.51 -17.52,-14.12 a 1.26,1.24 8.7 0 0 -0.78,0.56 q -2.64,4.25 -4.04,9.06 -0.32,1.12 0.61,0.42 l 2.29,-1.73 a 0.96,0.94 32.9 0 1 0.78,-0.16 c 3.44,0.87 -2.89,20.95 -4.23,24.05 -3.81,8.79 8.02,13.12 14.27,13.34 q 1.91,0.06 2.7,-1.67 6.52,-14.23 5.92,-29.75 z m 42.29,-2.91 c 0.49,-3.63 3.93,-6.74 6.16,-9.03 q 2.1,-2.16 -0.72,-1.1 -9.47,3.56 -17.56,9.45 -4.06,2.95 0.88,2.02 5.23,-0.99 10.45,-0.68 a 0.76,0.75 -84.7 0 0 0.79,-0.66 z M 216.97,93 c -2.68,3.87 -5.83,4.47 -5.08,10.2 a 1.23,1.23 0 0 0 1.17,1.06 q 12.28,0.42 23.47,-4.67 a 0.75,0.75 0 0 0 0.44,-0.68 q 0.07,-17.45 3.89,-34.48 0.19,-0.83 -0.56,-0.41 l -15.92,9.15 a 0.39,0.39 0 0 0 -0.17,0.46 l 0.13,0.4 a 0.17,0.16 -22.1 0 0 0.22,0.09 q 4.49,-1.93 9.42,-2.29 2.05,-0.16 1.03,1.62 -2.8,4.88 -7.44,8.19 a 1.59,1.58 -63.1 0 1 -0.94,0.31 q -7.91,0.01 -14.88,3.74 A 1.41,1.4 76.5 0 0 211,86.92 v 7.55 a 0.4,0.39 -13.8 0 0 0.59,0.35 c 0.98,-0.53 4.49,-3.29 5.28,-2.62 a 0.61,0.6 38.3 0 1 0.1,0.8 z M 321.98,73.58 c 0.28,-0.76 3.05,-6.15 3.04,-6.22 a 0.22,0.21 -20.8 0 0 -0.34,-0.15 l -7.26,5.05 q -0.53,0.37 0.1,0.52 l 4.18,0.94 a 0.24,0.24 0 0 0 0.28,-0.14 z m -69.59,32.53 q 6.11,3.44 12.25,1.82 c 9.53,-2.5 17.74,-27.11 13.86,-34.94 -2.43,-4.9 -9.63,-5.62 -14.51,-5.75 a 1.86,1.85 -75.1 0 0 -1.68,0.98 c -5.05,9.43 -6.11,18.44 -7.39,28.84 -0.28,2.32 -1.62,4.26 -3.03,5.75 q -1.87,1.97 0.5,3.3 z m -73.04,-9.85 q -3.11,4.97 -8.37,7.67 -1.95,0.99 -1.95,-1.19 L 168.99,87.3 q 0,-1.16 -0.71,-0.23 c -5.2,6.87 -8.45,16.45 -4.57,24.67 q 1.02,2.17 3.42,2.03 7.5,-0.44 14.11,-2.99 c 12.39,-4.8 16.27,-18.53 11.99,-30.27 a 0.81,0.8 79.2 0 0 -0.77,-0.53 l -12.05,0.14 a 1.3,1.29 -88.3 0 0 -1.28,1.21 q -0.44,7.01 0.43,13.96 a 1.48,1.45 -33.2 0 1 -0.21,0.97 z m 126.19,-1.48 6.87,-5.63 a 1.28,1.25 74.2 0 0 0.45,-0.83 c 0.59,-5.02 -2.65,-6.74 -7.14,-5.55 a 0.86,0.85 -7.3 0 0 -0.63,0.81 l -0.13,10.92 q -0.01,0.75 0.58,0.28 z m -11.15,-9.8 c -6.9,3.42 -16.75,10.29 -12.89,19.34 2.28,5.35 8.23,5.74 12.98,3.56 a 0.83,0.82 77.7 0 0 0.48,-0.75 l 0.05,-21.77 a 0.43,0.43 0 0 0 -0.62,-0.38 z m 17.3,12.86 c -6.55,-0.37 -9.27,5.53 -13.47,9.3 q -0.38,0.34 0.12,0.27 5.6,-0.78 10.11,-4 c 1.78,-1.27 2.49,-3.21 3.51,-5.1 a 0.32,0.32 0 0 0 -0.27,-0.47 z"
         inkscape:connector-curvature="0"
         style="fill:#030403" />
      <path
         id="path26799"
         d="m 66.4,71.75 1.46,-0.72 q 0.59,-0.3 0.52,0.36 -1.93,17.22 -11.92,32.29 c -5.63,8.49 -14.23,3.81 -17.24,-3.63 Q 37.35,95.46 37.21,91.18 C 36.49,69.66 36.43,49.36 44.03,28.51 q 0.84,-2.32 3.29,-2.62 4.75,-0.58 9.76,3 c 12.79,9.13 13.85,22.48 11.63,36.95 -0.33,2.18 -1.84,3.53 -2.74,5.49 q -0.37,0.82 0.43,0.42 z"
         inkscape:connector-curvature="0"
         style="fill:#ffffff" />
      <path
         id="path26801"
         d="m 178.36,59.24 q -6.27,3.5 -8.38,7.57 c -2.48,4.78 1.68,11.85 -4.51,14.94 q -0.46,0.23 -0.37,-0.28 1.11,-6.46 1.68,-12.95 c 0.58,-6.63 6.28,-11.32 12.43,-12.8 q 2.22,-0.54 2.57,1.72 1.04,6.69 -1.75,12.81 Q 179,72.5 179,70.02 v -10.4 a 0.43,0.43 0 0 0 -0.64,-0.38 z"
         inkscape:connector-curvature="0"
         style="fill:#ffffff" />
      <path
         id="path26803"
         d="m 387.4,85.89 q 7.69,-6.75 10.63,-10.38 c 1.32,-1.63 1.24,-4.46 2.69,-6.43 q 2.92,-4 7.47,-6.08 a 0.4,0.39 -11.9 0 1 0.56,0.36 l -0.01,1.03 q -0.01,0.98 0.79,0.42 c 1.84,-1.29 9.3,-7.53 10.82,-7.49 a 0.57,0.57 0 0 1 0.56,0.55 c 0.08,2.38 -8.89,9.12 -10.92,10.53 a 2.1,2.1 0 0 0 -0.88,1.61 c -0.86,15.66 -2.28,31.23 -2.11,46.63 a 1.76,1.73 67.7 0 1 -0.52,1.27 l -7.9,7.82 q -1.56,1.55 -1.58,-0.65 -0.21,-21.97 2.14,-43.82 0.33,-3.1 -1.98,-1 c -3.28,3 -8.66,7.77 -9.87,12.26 -0.96,3.56 -0.99,13.77 4.22,14.86 a 0.88,0.87 -66.3 0 1 0.53,1.37 c -4.7,6.55 -11.48,14.5 -15.32,0.79 a 0.33,0.32 -27.4 0 0 -0.52,-0.16 c -3.33,2.71 -8.02,9.26 -12.55,3.28 -2.71,-3.59 -3.03,-8.6 -3.19,-13.16 q -0.17,-4.69 0.64,-26.11 c 0.19,-5.02 3.97,-9.26 8.29,-11.09 a 1.24,1.23 -10.7 0 1 1.72,1.17 q -0.46,14.15 -0.64,28.02 -0.06,5.35 1.83,9.83 a 1.01,1.01 0 0 0 1.58,0.38 c 2.25,-1.88 3.1,-3.82 3.11,-6.91 q 0.02,-9.22 0.02,-18.17 0,-2.42 1.45,-4.37 3.09,-4.11 7.66,-6.47 a 0.6,0.6 0 0 1 0.88,0.53 v 19.4 q 0,0.54 0.4,0.18 z"
         inkscape:connector-curvature="0"
         style="fill:#030403" />
      <path
         id="path26805"
         d="m 138.99,58.17 c 9.98,-2.39 17.15,4.4 17.52,14.12 q 0.6,15.52 -5.92,29.75 -0.79,1.73 -2.7,1.67 c -6.25,-0.22 -18.08,-4.55 -14.27,-13.34 1.34,-3.1 7.67,-23.18 4.23,-24.05 a 0.96,0.94 32.9 0 0 -0.78,0.16 l -2.29,1.73 q -0.93,0.7 -0.61,-0.42 1.4,-4.81 4.04,-9.06 a 1.26,1.24 8.7 0 1 0.78,-0.56 z"
         inkscape:connector-curvature="0"
         style="fill:#ffffff" />
      <path
         id="path26807"
         d="m 198.8,69.38 a 0.76,0.75 -84.7 0 1 -0.79,0.66 q -5.22,-0.31 -10.45,0.68 -4.94,0.93 -0.88,-2.02 8.09,-5.89 17.56,-9.45 2.82,-1.06 0.72,1.1 c -2.23,2.29 -5.67,5.4 -6.16,9.03 z"
         inkscape:connector-curvature="0"
         style="fill:#ffffff" />
      <path
         id="path26809"
         d="m 216.87,92.2 c -0.79,-0.67 -4.3,2.09 -5.28,2.62 A 0.4,0.39 -13.8 0 1 211,94.47 v -7.55 a 1.41,1.4 76.5 0 1 0.75,-1.23 q 6.97,-3.73 14.88,-3.74 a 1.59,1.58 -63.1 0 0 0.94,-0.31 q 4.64,-3.31 7.44,-8.19 1.02,-1.78 -1.03,-1.62 -4.93,0.36 -9.42,2.29 a 0.17,0.16 -22.1 0 1 -0.22,-0.09 l -0.13,-0.4 a 0.39,0.39 0 0 1 0.17,-0.46 l 15.92,-9.15 q 0.75,-0.42 0.56,0.41 -3.82,17.03 -3.89,34.48 a 0.75,0.75 0 0 1 -0.44,0.68 q -11.19,5.09 -23.47,4.67 a 1.23,1.23 0 0 1 -1.17,-1.06 c -0.75,-5.73 2.4,-6.33 5.08,-10.2 a 0.61,0.6 38.3 0 0 -0.1,-0.8 z"
         inkscape:connector-curvature="0"
         style="fill:#ffffff" />
      <path
         id="path26811"
         d="m 325.02,67.36 c 0.01,0.07 -2.76,5.46 -3.04,6.22 a 0.24,0.24 0 0 1 -0.28,0.14 l -4.18,-0.94 q -0.63,-0.15 -0.1,-0.52 l 7.26,-5.05 a 0.22,0.21 -20.8 0 1 0.34,0.15 z"
         inkscape:connector-curvature="0"
         style="fill:#ffffff" />
      <path
         id="path26813"
         d="m 252.39,106.11 q -2.37,-1.33 -0.5,-3.3 c 1.41,-1.49 2.75,-3.43 3.03,-5.75 1.28,-10.4 2.34,-19.41 7.39,-28.84 a 1.86,1.85 -75.1 0 1 1.68,-0.98 c 4.88,0.13 12.08,0.85 14.51,5.75 3.88,7.83 -4.33,32.44 -13.86,34.94 q -6.14,1.62 -12.25,-1.82 z"
         inkscape:connector-curvature="0"
         style="fill:#ffffff" />
      <path
         id="path26815"
         d="m 179.56,95.29 q -0.87,-6.95 -0.43,-13.96 a 1.3,1.29 -88.3 0 1 1.28,-1.21 l 12.05,-0.14 a 0.81,0.8 79.2 0 1 0.77,0.53 c 4.28,11.74 0.4,25.47 -11.99,30.27 q -6.61,2.55 -14.11,2.99 -2.4,0.14 -3.42,-2.03 c -3.88,-8.22 -0.63,-17.8 4.57,-24.67 q 0.71,-0.93 0.71,0.23 l 0.04,15.44 q 0,2.18 1.95,1.19 5.26,-2.7 8.37,-7.67 a 1.48,1.45 -33.2 0 0 0.21,-0.97 z"
         inkscape:connector-curvature="0"
         style="fill:#ffffff" />
      <path
         id="path26817"
         d="m 305.54,94.78 q -0.59,0.47 -0.58,-0.28 l 0.13,-10.92 a 0.86,0.85 -7.3 0 1 0.63,-0.81 c 4.49,-1.19 7.73,0.53 7.14,5.55 a 1.28,1.25 74.2 0 1 -0.45,0.83 z"
         inkscape:connector-curvature="0"
         style="fill:#ffffff" />
      <path
         id="path26819"
         d="m 281.5,104.32 c -3.86,-9.05 5.99,-15.92 12.89,-19.34 a 0.43,0.43 0 0 1 0.62,0.38 l -0.05,21.77 a 0.83,0.82 77.7 0 1 -0.48,0.75 c -4.75,2.18 -10.7,1.79 -12.98,-3.56 z"
         inkscape:connector-curvature="0"
         style="fill:#ffffff" />
      <path
         id="path26821"
         d="m 298.22,107.14 c 4.2,-3.77 6.92,-9.67 13.47,-9.3 a 0.32,0.32 0 0 1 0.27,0.47 c -1.02,1.89 -1.73,3.83 -3.51,5.1 q -4.51,3.22 -10.11,4 -0.5,0.07 -0.12,-0.27 z"
         inkscape:connector-curvature="0"
         style="fill:#ffffff" />
      <path
         id="path26823"
         d="m 150.75,196.46 q -3.27,5.6 -8.77,8.92 c -7.7,4.65 -6.03,-9.77 -6.02,-12.88 q 0.49,-19.85 3.37,-39.51 0.08,-0.52 0.36,-0.96 l 1.02,-1.59 q 0.3,-0.46 -0.24,-0.36 c -2,0.37 -13.69,23.95 -15.19,27.15 q -3.52,7.53 -4.49,11.61 l -0.12,4.24 a 0.6,0.59 3.7 0 0 0.53,0.6 l 4.44,0.49 a 0.43,0.42 19.9 0 1 0.31,0.65 c -2.96,4.44 -9.45,12.43 -15.36,7.55 a 0.51,0.51 0 0 0 -0.75,0.11 q -1.46,2.18 -4.16,1.87 -2.68,-0.3 -2.68,-3 l -0.01,-17.06 q -0.18,-9.56 0.99,-21.79 0.03,-0.34 -0.2,-0.45 a 0.51,0.5 27.4 0 0 -0.65,0.2 q -5.7,9.43 -12.21,18.32 c -1.05,1.43 -1.09,2.78 -0.88,4.43 q -0.3,5.32 0.73,10.62 a 1.09,1.08 57.3 0 1 -0.18,0.84 q -3.34,4.7 -8.2,7.68 -2.38,1.45 -2.38,-1.34 L 80,197.38 q 0,-1.35 -0.77,-0.24 l -3.4,4.91 a 1.33,1.31 57.9 0 0 -0.22,1 c 1.73,9.16 -7.97,17.74 -14.92,21.7 q -2.04,1.16 -1.95,-1.18 c 0.2,-5.69 2.47,-10.75 4.49,-16.04 1.61,-4.23 -0.12,-8.1 -3.64,-10.51 a 1.18,1.18 0 0 0 -1.56,0.2 C 51.57,204.73 43.15,215.19 32.29,218 q -2.32,-9.28 3.49,-16.58 a 1.25,1.24 -27.8 0 0 0.28,-0.89 Q 34.5,180.62 35.13,160.74 c 0.14,-4.5 4.62,-8.64 8.24,-10.4 a 1.21,1.21 0 0 1 1.74,1.12 q -0.61,20.04 0.9,40.03 0.04,0.51 0.46,0.21 5.85,-4.3 13.08,-5.17 a 1.14,1.12 11.2 0 0 0.84,-0.55 c 7.41,-12.66 11.6,-25.4 9.1,-38.95 -2.15,-11.62 -28.83,4.04 -33.54,6.76 q -2.56,1.48 -1.16,-1.13 2.34,-4.36 7.61,-7.54 c 6.14,-3.7 34.36,-20.48 37.1,-7.13 3.31,16.19 -4.55,33.72 -13.26,47.12 a 0.37,0.37 0 0 0 0.21,0.55 c 4.31,1.3 6.51,5.54 8.55,9.15 a 0.39,0.38 53.1 0 0 0.61,0.09 c 2.6,-2.52 4.27,-4.64 4.33,-8.55 q 0.26,-15.86 1.9,-31.63 c 0.65,-6.25 4.28,-8.05 8.76,-11.48 a 0.65,0.64 -23.1 0 1 1.04,0.41 c 0.07,0.45 0.3,1.1 0.27,1.55 q -0.9,11.49 -1.78,22.98 -0.29,3.78 0.07,6.37 0.08,0.51 0.34,0.07 c 3.43,-5.57 7.81,-15 13.55,-18.25 a 1.82,1.81 -10.3 0 0 0.89,-1.28 c 1.45,-8.68 1.98,-15.49 11.34,-18.93 q 0.48,-0.18 0.39,0.32 c -3.35,18.66 -4.12,32.24 -3.64,51.73 0.01,0.29 0.12,0.5 0.41,0.52 a 0.31,0.31 0 0 0 0.31,-0.18 c 8.56,-18.13 17.94,-36.24 33.31,-49.65 1.82,-1.59 4.13,-2.58 6.37,-3.15 q 1.17,-0.29 0.52,0.72 -2.41,3.76 -5.82,6.66 a 0.47,0.47 0 0 0 -0.01,0.7 q 1.18,1.05 0.87,3.17 -3.78,25.49 -3.03,46.49 0.07,1.94 2.21,2.92 a 0.83,0.83 0 0 0 0.84,-0.1 q 0.95,-0.75 1.7,0.15 z m -4.1269,-52.1092 a 2.83,0.42 -36.9 0 0 -2.5153,1.3633 2.83,0.42 -36.9 0 0 -2.0109,2.0351 2.83,0.42 -36.9 0 0 2.5153,-1.3633 2.83,0.42 -36.9 0 0 2.0109,-2.0351 z M 47.59,205.14 l 6.67,-8.41 q 0.95,-1.19 -0.54,-0.88 l -6.35,1.33 a 0.62,0.61 -12.4 0 0 -0.48,0.74 q 0.74,3.41 -0.28,6.7 -0.91,2.91 0.98,0.52 z"
         inkscape:connector-curvature="0"
         style="fill:#030403" />
      <path
         id="path26825"
         d="m 279.5,200.71 -7.38,7.31 q -2.07,2.05 -2.1,-0.86 l -0.09,-12.08 0.66,-18.35 a 0.45,0.44 83.7 0 0 -0.55,-0.45 l -10.48,2.66 a 0.62,0.62 0 0 0 -0.47,0.6 l -0.05,11.21 q 1.51,11.79 -9.13,16.21 a 0.65,0.65 0 0 1 -0.9,-0.6 l -0.05,-13.36 0.03,-12.44 a 0.55,0.55 0 0 0 -0.65,-0.54 l -4.23,0.77 a 0.73,0.72 -15.1 0 1 -0.8,-0.46 l -0.32,-0.87 a 0.68,0.67 -21.4 0 0 -0.89,-0.38 l -2.78,1.16 a 0.61,0.61 0 0 0 -0.33,0.78 c 1.67,4.37 2.65,8.59 1.33,12.84 -1.74,2.24 -8.88,9.92 -11.66,9.08 a 0.53,0.52 -65 0 1 -0.28,-0.79 l 2.39,-3.68 a 1.17,1.17 0 0 0 0.15,-0.97 l -1.6,-5.65 -2.29,-8.17 a 1.12,1.11 -14 0 0 -1.33,-0.79 l -14.08,3.22 a 0.75,0.73 -5.7 0 0 -0.58,0.69 l -0.35,9.77 q -0.07,2.03 1.9,1.52 l 3.35,-0.86 q 0.54,-0.14 0.34,0.38 l -1.2,3.22 c -2.68,2.31 -6.01,6.21 -8.92,7.18 q -3.41,1.14 -6.38,-1.77 l 1.32,-11.81 a 0.4,0.39 -87.4 0 0 -0.4,-0.44 l -0.28,0.01 a 0.45,0.43 18.1 0 0 -0.35,0.17 q -2.73,3.48 -6.49,5.69 a 0.45,0.44 70.7 0 1 -0.66,-0.32 c -1.95,-12.62 -0.48,-23.19 0.18,-39.09 0.2,-4.86 5.29,-8.97 9.28,-10.97 a 0.32,0.32 0 0 1 0.46,0.28 c 0.34,12.03 -0.91,23.94 -0.83,35.82 a 0.37,0.36 -81.9 0 0 0.24,0.33 l 0.25,0.09 a 0.19,0.11 -57 0 0 0.17,-0.09 q 1.83,-2.44 2.09,-3.2 6.48,-18.64 17.55,-35.09 a 0.9,0.89 19.6 0 0 -0.66,-1.39 q -24.85,-2.31 -41.93,15.23 a 0.93,0.93 0 0 1 -0.93,0.24 l -0.31,-0.1 a 0.51,0.51 0 0 1 -0.3,-0.74 c 2.77,-4.84 6.19,-7.51 11.1,-11.51 8.9,-7.27 18.49,-11.65 30.01,-12.92 4.77,-0.53 8.45,-0.83 12.57,0.4 q 2.26,0.67 0.88,2.59 -12.58,17.4 -18.84,37.99 -0.18,0.59 0.41,0.44 l 10.42,-2.71 a 0.63,0.62 80.9 0 0 0.46,-0.64 c -0.31,-4.7 -1.51,-11.99 -1.19,-17.87 0.29,-5.42 4.53,-9.3 9.05,-11.62 a 0.54,0.53 -14.3 0 1 0.78,0.46 q 0.36,12.96 2.63,25.75 a 1.06,1.06 0 0 0 1.26,0.85 l 10.76,-2.15 a 0.65,0.65 0 0 0 0.53,-0.64 q -0.02,-9.16 0,-18.28 c 0.01,-4.43 5.26,-9.41 9.49,-11.07 a 0.37,0.37 0 0 1 0.5,0.34 v 29.37 a 0.59,0.59 0 0 0 0.67,0.58 l 10.79,-1.5 a 1.25,1.22 -74.9 0 0 0.81,-0.48 c 2.83,-3.65 2.41,-11.83 3.17,-19.1 0.51,-4.9 4.77,-8.52 8.82,-10.78 q 1.54,-0.86 1.39,0.9 -0.99,12.14 -2.97,24.16 -0.33,1.99 1.44,1.03 l 5.1,-2.77 q 1.59,-0.87 0.73,0.73 c -3.07,5.72 -8.71,6 -8.84,13.02 q -0.22,11.29 -0.07,22.57 0.01,0.79 -0.54,2.71 z"
         inkscape:connector-curvature="0"
         style="fill:#030403" />
      <path
         id="path26827"
         d="m 327.99,178.24 q 2.08,-1.02 3.87,-2.46 c 4.28,-3.46 8.94,-4.8 14.45,-4.8 a 0.6,0.6 0 0 1 0.6,0.55 c 0.69,8.05 1.48,16.74 -3.92,23.48 -6.95,8.68 -16.77,15.47 -28.42,12.63 q -2.71,-0.66 -4.76,-3.31 a 0.44,0.43 49.2 0 0 -0.65,-0.05 c -2.29,2.17 -6.32,6.41 -9.69,5.64 q -2.17,-0.51 -0.9,-2.34 l 1.77,-2.54 a 1.02,1.01 -36.8 0 0 0.13,-0.88 q -2.03,-6.44 -2.22,-9.16 -1.3,-18.4 -0.49,-36.92 a 3.4,3.33 66.1 0 1 0.73,-1.95 q 3.41,-4.29 8.13,-7.07 1.34,-0.79 1.28,0.76 c -0.13,3.53 -0.67,37.33 0.6,37.87 a 0.58,0.57 23.6 0 0 0.75,-0.29 q 2.97,-6.56 8.28,-11.43 a 1.48,1.47 70.3 0 0 0.48,-1.02 l 1.16,-28.13 a 0.78,0.77 -2.5 0 0 -0.88,-0.8 c -10.94,1.45 -18.68,4.68 -29.56,10 q -0.47,0.24 -1.08,-0.03 a 0.46,0.46 0 0 1 -0.21,-0.66 c 6.92,-11.95 28.49,-17.9 41.14,-19.31 a 0.52,0.52 0 0 1 0.58,0.53 l -1.57,41.42 a 0.28,0.28 0 0 0 0.4,0.27 z m 0.31,4.98 c -1.14,4.76 -0.31,9.67 -1.37,14.61 a 0.4,0.39 3.8 0 0 0.42,0.47 l 7.8,-0.72 q 2.01,-0.19 2.01,-2.21 l 0.01,-13.61 a 0.75,0.75 0 0 0 -0.73,-0.75 q -3.96,-0.09 -7.57,1.52 a 1.03,1 85.4 0 0 -0.57,0.69 z"
         inkscape:connector-curvature="0"
         style="fill:#030403" />
      <path
         id="path26829"
         d="m 190.49,138.95 a 0.52,0.52 0 0 1 0.52,0.55 c -0.09,1.87 -6.4,7.44 -7.96,8.77 a 1.33,1.32 25.3 0 1 -0.88,0.31 c -9.29,-0.22 -20.98,0.78 -28.42,7.07 a 0.41,0.4 57.1 0 1 -0.63,-0.14 c -0.22,-0.45 -0.18,-1.49 0.17,-1.93 9.55,-12.2 22.18,-14.88 37.2,-14.63 z"
         inkscape:connector-curvature="0"
         style="fill:#030403" />
      <ellipse
         id="ellipse26831"
         ry="0.41999999"
         rx="2.8299999"
         transform="rotate(-36.9,291.06332,-143.32554)"
         cy="0"
         cx="0"
         style="fill:#ffffff" />
      <path
         id="path26833"
         d="m 359.29,196.75 q -0.69,5.77 0.45,11.15 a 2.74,2.73 58.3 0 1 -0.53,2.25 q -3.53,4.48 -8.29,7.56 a 0.76,0.76 0 0 1 -1.16,-0.51 q -1.16,-6.89 -0.8,-14.2 1.65,-21.94 5.41,-43.63 1.01,-5.86 2.6,-8.27 2.42,-3.7 7.03,-5.74 1.28,-0.57 1.07,0.81 c -2.53,16.82 -5.46,33.41 -5.78,50.58 z"
         inkscape:connector-curvature="0"
         style="fill:#030403" />
      <path
         id="path26835"
         d="m 135.96,192.5 -15.17,-3.66 q 0.97,-4.08 4.49,-11.61 c 1.5,-3.2 13.19,-26.78 15.19,-27.15 q 0.54,-0.1 0.24,0.36 l -1.02,1.59 q -0.28,0.44 -0.36,0.96 -2.88,19.66 -3.37,39.51 z"
         inkscape:connector-curvature="0"
         style="fill:#ffffff" />
      <path
         id="path26837"
         d="m 167,207.04 q -7.18,1.38 -14.47,0.55 -2.93,-0.33 -1.59,-2.96 1.98,-3.9 1.77,-8.13 -1.36,-15.6 -0.45,-31.26 c 0.28,-4.76 5.22,-8.77 9.14,-10.83 a 0.41,0.41 0 0 1 0.6,0.36 l 0.01,15.73 q 0,2.33 2.09,1.31 c 5.5,-2.68 13.38,-7.36 18.43,-7.79 q 1.45,-0.13 0.65,1.09 -7.19,10.94 -16.19,20.45 -1.53,1.63 -2.36,3.71 l -2.66,6.74 a 1.44,1.43 12.5 0 0 1.25,1.96 q 10.64,0.61 20.41,-3.5 0.63,-0.27 1.12,-0.19 a 0.41,0.41 0 0 1 0.28,0.64 q -6.64,9.61 -18.03,12.12 z m -4.79,-28.19 a 0.54,0.54 0 0 0 -0.31,0.52 l 0.32,5.81 a 0.54,0.54 0 0 0 0.94,0.32 l 8.89,-10.22 a 0.54,0.54 0 0 0 -0.64,-0.84 z"
         inkscape:connector-curvature="0"
         style="fill:#030403" />
      <path
         id="path26839"
         d="m 102.99,184.29 q -5.35,-0.94 -10.41,0.76 -0.47,0.16 -0.96,0.11 L 90.04,185 c -0.21,-1.65 -0.17,-3 0.88,-4.43 q 6.51,-8.89 12.21,-18.32 a 0.51,0.5 27.4 0 1 0.65,-0.2 q 0.23,0.11 0.2,0.45 -1.17,12.23 -0.99,21.79 z"
         inkscape:connector-curvature="0"
         style="fill:#ffffff" />
      <path
         id="path26841"
         d="m 162.21,178.85 9.2,-4.41 a 0.54,0.54 0 0 1 0.64,0.84 l -8.89,10.22 a 0.54,0.54 0 0 1 -0.94,-0.32 l -0.32,-5.81 a 0.54,0.54 0 0 1 0.31,-0.52 z"
         inkscape:connector-curvature="0"
         style="fill:#ffffff" />
      <path
         id="path26843"
         d="m 269.93,195.08 -6.99,-1.67 a 1.46,1.41 -11.3 0 1 -0.78,-0.5 q -1.23,-1.57 -3.12,-2.16 l 0.05,-11.21 a 0.62,0.62 0 0 1 0.47,-0.6 l 10.48,-2.66 a 0.45,0.44 83.7 0 1 0.55,0.45 z"
         inkscape:connector-curvature="0"
         style="fill:#ffffff" />
      <path
         id="path26845"
         d="m 248.96,193 -8.64,0.86 c 1.32,-4.25 0.34,-8.47 -1.33,-12.84 a 0.61,0.61 0 0 1 0.33,-0.78 l 2.78,-1.16 a 0.68,0.67 -21.4 0 1 0.89,0.38 l 0.32,0.87 a 0.73,0.72 -15.1 0 0 0.8,0.46 l 4.23,-0.77 a 0.55,0.55 0 0 1 0.65,0.54 z"
         inkscape:connector-curvature="0"
         style="fill:#ffffff" />
      <path
         id="path26847"
         d="m 328.3,183.22 a 1.03,1 85.4 0 1 0.57,-0.69 q 3.61,-1.61 7.57,-1.52 a 0.75,0.75 0 0 1 0.73,0.75 l -0.01,13.61 q 0,2.02 -2.01,2.21 l -7.8,0.72 a 0.4,0.39 3.8 0 1 -0.42,-0.47 c 1.06,-4.94 0.23,-9.85 1.37,-14.61 z"
         inkscape:connector-curvature="0"
         style="fill:#ffffff" />
      <path
         id="path26849"
         d="m 229.32,191.85 q -2.94,0.08 -5.54,1.24 a 1.61,1.52 1.7 0 0 -0.72,0.64 q -2.82,4.89 -7.98,7.1 l 1.2,-3.22 q 0.2,-0.52 -0.34,-0.38 l -3.35,0.86 q -1.97,0.51 -1.9,-1.52 l 0.35,-9.77 a 0.75,0.73 -5.7 0 1 0.58,-0.69 l 14.08,-3.22 a 1.12,1.11 -14 0 1 1.33,0.79 z"
         inkscape:connector-curvature="0"
         style="fill:#ffffff" />
      <path
         id="path26851"
         d="m 102.99,184.29 0.01,17.06 q 0,2.7 2.68,3 2.7,0.31 4.16,-1.87 a 0.51,0.51 0 0 1 0.75,-0.11 c 5.91,4.88 12.4,-3.11 15.36,-7.55 a 0.43,0.42 19.9 0 0 -0.31,-0.65 l -4.44,-0.49 a 0.6,0.59 3.7 0 1 -0.53,-0.6 l 0.12,-4.24 15.17,3.66 c -0.01,3.11 -1.68,17.53 6.02,12.88 q 5.5,-3.32 8.77,-8.92 l 1.96,0.04 q 0.21,4.23 -1.77,8.13 -1.34,2.63 1.59,2.96 7.29,0.83 14.47,-0.55 0.84,1.32 2.44,1.77 a 1.65,1.57 77.6 0 1 0.83,0.56 q 1.35,1.74 3.56,2.17 a 0.54,0.53 -80.3 0 0 0.63,-0.45 l 0.04,-0.34 a 0.67,0.65 28.1 0 0 -0.18,-0.56 l -1.49,-1.49 a 0.4,0.4 0 0 1 0.11,-0.64 q 0.51,-0.25 1.05,-0.05 7.29,2.72 14.72,2.75 c 4.77,0.01 6.29,-4.52 11.07,-4.52 q 2.97,2.91 6.38,1.77 c 2.91,-0.97 6.24,-4.87 8.92,-7.18 q 5.16,-2.21 7.98,-7.1 a 1.61,1.52 1.7 0 1 0.72,-0.64 q 2.6,-1.16 5.54,-1.24 l 1.6,5.65 a 1.17,1.17 0 0 1 -0.15,0.97 l -2.39,3.68 a 0.53,0.52 -65 0 0 0.28,0.79 c 2.78,0.84 9.92,-6.84 11.66,-9.08 l 8.64,-0.86 0.05,13.36 a 0.65,0.65 0 0 0 0.9,0.6 q 10.64,-4.42 9.13,-16.21 1.89,0.59 3.12,2.16 a 1.46,1.41 -11.3 0 0 0.78,0.5 l 6.99,1.67 0.09,12.08 q 0.03,2.91 2.1,0.86 l 7.38,-7.31 2.91,1.75 q 0.43,0.25 0.79,0.6 l 4.03,3.96 a 1.01,1.01 0 0 0 1.01,0.25 q 0.85,-0.26 1.23,0.42 a 1.9,1.9 0 0 0 0.72,0.72 q 5.2,2.97 6.8,3.54 3.11,1.09 4.66,2.87 0.35,0.4 0.85,0.58 3.78,1.37 5.2,5.14 0.84,2.22 3,1.25 c 9.52,-4.29 18.63,-9.19 26.9,-15.53 q 4.88,-3.74 11.36,-3.26 -0.36,7.31 0.8,14.2 a 0.76,0.76 0 0 0 1.16,0.51 q 4.76,-3.08 8.29,-7.56 a 2.74,2.73 58.3 0 0 0.53,-2.25 q -1.14,-5.38 -0.45,-11.15 c 4.42,-0.09 7.44,-2.42 10.57,-3.77 6.76,-2.92 11.74,-6.84 19.73,-6.56 2.73,0.1 20.07,-0.3 20.89,2.67 a 0.34,0.34 0 0 1 -0.37,0.42 q -6.91,-0.75 -13.03,2.6 -0.9,0.49 0.11,0.65 1.43,0.22 2.86,-0.38 a 0.44,0.44 0 0 1 0.6,0.36 q 0.11,1.06 -0.89,1.61 a 0.4,0.4 0 0 0 -0.08,0.65 q 0.69,0.64 1.51,0.62 c 9.24,-0.15 14.94,-0.77 21.9,2.23 q 2.3,0.99 4.48,1.09 7.27,0.32 14.43,1.37 V 238 H 26.44 l -8.51,-0.22 a 0.65,0.65 0 0 1 -0.57,-0.93 q 4.68,-9.7 13.27,-16.11 0.41,-0.31 0.65,-0.78 L 32.29,218 c 10.86,-2.81 19.28,-13.27 25.74,-20.78 a 1.18,1.18 0 0 1 1.56,-0.2 c 3.52,2.41 5.25,6.28 3.64,10.51 -2.02,5.29 -4.29,10.35 -4.49,16.04 q -0.09,2.34 1.95,1.18 c 6.95,-3.96 16.65,-12.54 14.92,-21.7 a 1.33,1.31 57.9 0 1 0.22,-1 l 3.4,-4.91 Q 80,196.03 80,197.38 l 0.01,5.42 q 0,2.79 2.38,1.34 4.86,-2.98 8.2,-7.68 a 1.09,1.08 57.3 0 0 0.18,-0.84 Q 89.74,190.32 90.04,185 l 1.58,0.16 q 0.49,0.05 0.96,-0.11 5.06,-1.7 10.41,-0.76 z m 286.2297,5.244 a 2.6,0.74 -10.1 0 0 -2.6895,-0.2725 2.6,0.74 -10.1 0 0 -2.4299,1.1845 2.6,0.74 -10.1 0 0 2.6895,0.2725 2.6,0.74 -10.1 0 0 2.4299,-1.1845 z M 293.82,221.68 q -5.9,-7.96 -12.95,-14.94 a 0.94,0.93 -28.6 0 0 -0.86,-0.25 l -1.01,0.24 a 0.48,0.47 66.8 0 0 -0.29,0.73 c 5.66,8.52 9.27,12.22 17.91,17.74 q 0.46,0.3 0.2,-0.18 c -0.78,-1.38 -2.22,-2.29 -3,-3.34 z m 25.87,2.99 0.56,-1.44 q 0.52,-1.32 -0.8,-0.82 l -2.03,0.76 q -0.78,0.29 -0.12,0.81 l 1.25,0.99 a 0.74,0.73 30 0 0 1.14,-0.3 z"
         inkscape:connector-curvature="0"
         style="fill:#d9d9d9" />
      <ellipse
         id="ellipse26853"
         ry="0.74000001"
         rx="2.5999999"
         transform="rotate(-10.1,1268.3223,-2092.786)"
         cy="0"
         cx="0"
         style="fill:#ffffff" />
      <path
         id="path26855"
         d="m 47.59,205.14 q -1.89,2.39 -0.98,-0.52 1.02,-3.29 0.28,-6.7 a 0.62,0.61 -12.4 0 1 0.48,-0.74 l 6.35,-1.33 q 1.49,-0.31 0.54,0.88 z"
         inkscape:connector-curvature="0"
         style="fill:#ffffff" />
      <path
         id="path26857"
         d="m 293.82,221.68 c 0.78,1.05 2.22,1.96 3,3.34 q 0.26,0.48 -0.2,0.18 c -8.64,-5.52 -12.25,-9.22 -17.91,-17.74 a 0.48,0.47 66.8 0 1 0.29,-0.73 l 1.01,-0.24 a 0.94,0.93 -28.6 0 1 0.86,0.25 q 7.05,6.98 12.95,14.94 z"
         inkscape:connector-curvature="0"
         style="fill:#ffffff" />
      <path
         id="path26859"
         d="m 319.69,224.67 a 0.74,0.73 30 0 1 -1.14,0.3 l -1.25,-0.99 q -0.66,-0.52 0.12,-0.81 l 2.03,-0.76 q 1.32,-0.5 0.8,0.82 z"
         inkscape:connector-curvature="0"
         style="fill:#ffffff" />
    </g>
  </g>
</svg>
