<?xml version="1.0" encoding="UTF-8" standalone="no"?>
<!DOCTYPE svg PUBLIC "-//W3C//DTD SVG 1.1//EN" "http://www.w3.org/Graphics/SVG/1.1/DTD/svg11.dtd">
<svg xmlns="http://www.w3.org/2000/svg" version="1.1" viewBox="0 0 445 231">
<g stroke-width="2.00" fill="none" stroke-linecap="butt">
<path stroke="#eeeeee" vector-effect="non-scaling-stroke" d="
  M 203.31 0.00
  Q 189.26 12.26 176.71 26.03
  C 172.55 30.59 168.25 36.58 163.75 41.71"
/>
<path stroke="#818181" vector-effect="non-scaling-stroke" d="
  M 163.75 41.71
  C 150.72 44.77 139.70 54.40 132.71 65.50"
/>
<path stroke="#eeeeee" vector-effect="non-scaling-stroke" d="
  M 132.71 65.50
  L 131.92 65.46
  A 0.44 0.43 -2.4 0 1 131.51 65.09
  L 131.46 64.75"
/>
<path stroke="#818181" vector-effect="non-scaling-stroke" d="
  M 131.46 64.75
  Q 137.06 55.96 137.07 46.24
  Q 137.07 43.83 134.69 43.46
  C 131.01 42.91 128.12 43.06 124.77 45.00
  Q 109.44 53.90 100.92 69.64
  A 0.41 0.41 0.0 0 1 100.25 69.71
  C 99.87 69.30 100.35 60.77 100.22 58.98
  C 99.71 51.58 96.84 46.79 89.25 45.95
  C 83.04 45.27 77.81 50.04 74.30 54.56
  C 66.51 64.60 64.52 84.97 63.70 97.99
  C 63.44 102.21 62.08 105.05 59.11 107.67
  A 1.48 1.47 -67.0 0 1 58.23 108.03
  C 42.42 108.95 37.10 95.62 36.80 82.44
  C 36.49 68.70 38.55 7.62 67.43 20.21
  C 73.97 23.06 66.40 28.86 66.13 32.60
  Q 65.80 37.13 66.16 41.98
  Q 66.36 44.67 68.78 43.48
  C 79.09 38.37 80.63 28.07 80.12 17.49
  C 79.91 13.10 79.91 9.54 74.49 9.90
  Q 67.97 10.33 61.43 11.28
  Q 59.22 11.60 57.36 12.83
  C 29.44 31.19 24.90 67.45 27.50 98.00
  C 28.07 104.68 32.24 112.30 38.15 115.73
  C 48.38 121.68 55.58 115.60 63.14 108.49
  Q 64.18 107.51 64.03 108.93
  C 63.20 116.74 73.26 116.20 77.27 113.76
  Q 86.02 108.45 92.26 97.39
  Q 92.52 96.94 92.63 97.44
  C 94.04 103.57 91.50 107.22 98.04 111.25"
/>
<path stroke="#eeeeee" vector-effect="non-scaling-stroke" d="
  M 98.04 111.25
  Q 97.41 112.02 97.25 113.01
  A 1.03 1.03 0.0 0 0 97.57 113.92
  Q 99.83 116.03 101.04 118.99
  Q 102.17 121.78 99.24 122.46
  L 94.33 123.60
  A 1.12 1.12 0.0 0 0 93.55 124.29
  Q 91.89 128.76 88.94 131.47"
/>
<path stroke="#818181" vector-effect="non-scaling-stroke" d="
  M 88.94 131.47
  Q 71.10 137.81 72.40 157.43
  Q 72.56 159.90 70.17 160.50
  L 62.52 162.45
  A 0.42 0.42 0.0 0 1 62.00 162.04
  L 62.00 141.45
  A 0.54 0.53 -12.9 0 0 61.23 140.97
  Q 56.34 143.34 53.39 147.73
  C 50.96 151.35 51.93 161.21 52.04 165.65
  A 1.64 1.58 -29.2 0 1 51.74 166.64
  L 48.11 171.70
  A 0.58 0.58 0.0 0 0 48.28 172.54
  Q 49.49 173.29 50.99 172.95
  A 0.82 0.82 0.0 0 1 51.99 173.75
  L 52.02 200.02
  A 1.19 1.19 0.0 0 0 53.29 201.21
  Q 54.13 201.15 55.25 200.21"
/>
<path stroke="#eeeeee" vector-effect="non-scaling-stroke" d="
  M 55.25 200.21
  Q 55.98 200.48 56.15 201.04
  A 0.97 0.97 0.0 0 1 55.98 201.93
  C 52.61 205.95 50.79 210.29 44.79 213.37
  A 1.27 1.25 -6.6 0 0 44.14 214.18
  L 43.41 217.00
  Q 43.30 217.44 43.03 217.81
  Q 38.62 223.86 36.33 230.96"
/>
<path stroke="#eeeeee" vector-effect="non-scaling-stroke" d="
  M 156.1578 40.2958
  A 3.24 0.52 -41.2 0 0 153.3775 42.0387
  A 3.24 0.52 -41.2 0 0 151.2822 44.5642
  A 3.24 0.52 -41.2 0 0 154.0625 42.8213
  A 3.24 0.52 -41.2 0 0 156.1578 40.2958"
/>
<path stroke="#eeeeee" vector-effect="non-scaling-stroke" d="
  M 300.81 0.00
  L 302.29 0.38
  Q 302.77 0.51 302.41 0.86
  C 296.79 6.37 289.94 10.83 284.24 15.53
  C 279.08 19.77 273.90 23.27 268.04 26.47
  Q 264.36 28.48 261.02 32.01
  C 258.58 34.59 251.83 41.44 252.26 42.28
  A 0.27 0.27 0.0 0 0 252.72 42.31
  C 255.04 38.97 259.05 36.99 261.25 35.13
  Q 267.64 29.73 273.81 24.07
  Q 275.03 22.96 277.72 23.35
  A 1.05 1.03 27.5 0 0 278.57 23.09
  C 280.43 21.40 281.90 19.55 283.91 18.10
  Q 287.91 15.22 291.81 12.21
  C 297.39 7.91 303.85 4.75 309.79 0.72
  A 1.81 1.77 -63.4 0 1 310.69 0.41
  L 317.31 0.00"
/>
<path stroke="#eeeeee" vector-effect="non-scaling-stroke" d="
  M 323.06 0.00
  Q 323.33 0.24 323.75 0.34
  A 0.52 0.51 -75.3 0 1 324.11 0.97
  C 324.07 1.11 315.27 2.60 313.80 3.38
  Q 309.58 5.61 305.87 8.60
  C 295.07 17.28 283.41 24.84 273.36 34.41
  Q 266.24 41.18 258.51 47.29
  Q 256.98 48.50 255.89 50.50
  Q 252.14 57.39 245.09 61.20"
/>
<path stroke="#6f6f6f" vector-effect="non-scaling-stroke" d="
  M 245.09 61.20
  C 243.05 57.14 245.46 52.40 247.04 48.63
  Q 247.75 46.91 246.28 48.05
  L 241.59 51.65
  A 0.35 0.35 0.0 0 1 241.03 51.43
  L 240.86 50.45
  A 0.73 0.72 0.6 0 0 240.27 49.85
  C 238.20 49.47 233.23 55.06 231.86 56.69
  Q 230.20 58.67 231.24 61.03
  L 233.25 65.58
  A 1.72 1.71 39.8 0 1 233.35 66.63
  L 231.29 76.00"
/>
<path stroke="#eeeeee" vector-effect="non-scaling-stroke" d="
  M 231.29 76.00
  Q 230.77 75.72 230.23 75.89
  A 0.90 0.90 0.0 0 0 229.62 76.54
  Q 229.39 77.41 228.51 77.47
  A 1.02 1.01 15.6 0 0 227.74 77.90
  C 225.58 80.97 223.70 84.09 221.04 84.75"
/>
<path stroke="#6f6f6f" vector-effect="non-scaling-stroke" d="
  M 221.04 84.75
  Q 221.60 70.35 223.01 56.00
  Q 223.25 53.62 222.83 48.90
  A 0.37 0.37 0.0 0 0 222.32 48.59
  C 218.09 50.42 212.58 55.31 212.99 59.77
  Q 213.38 64.04 212.57 71.14
  A 1.08 1.06 -10.4 0 1 212.00 71.95
  Q 205.29 75.38 197.76 75.51
  A 0.47 0.47 0.0 0 1 197.29 74.94
  C 198.34 70.13 201.69 67.89 206.17 64.18
  Q 208.08 62.60 207.51 60.17
  A 0.41 0.40 -21.4 0 0 206.91 59.91
  Q 192.74 68.20 187.10 83.71
  A 1.08 1.08 0.0 0 0 188.07 85.16
  C 195.75 85.53 203.58 81.91 210.86 79.89
  Q 212.76 79.37 212.03 81.19
  C 209.58 87.39 197.83 96.38 192.21 100.14
  A 0.62 0.62 0.0 0 1 191.26 99.76
  Q 190.50 96.03 188.33 92.91
  Q 187.01 91.01 184.69 91.01
  L 176.52 91.00
  A 0.34 0.34 0.0 0 1 176.22 90.50
  C 184.29 75.00 189.58 59.75 187.81 42.15
  A 0.72 0.70 -0.4 0 0 187.16 41.52
  C 181.60 41.11 178.34 43.30 173.29 46.66
  C 169.80 48.98 160.65 55.92 160.15 60.21
  A 0.48 0.48 0.0 0 0 160.60 60.75
  L 161.35 60.78
  A 0.61 0.61 0.0 0 1 161.94 61.41
  L 160.82 98.60
  A 3.39 3.38 69.9 0 1 159.71 100.99
  C 156.21 104.14 148.33 111.59 150.20 116.73
  A 0.91 0.90 -20.1 0 0 151.37 117.27
  Q 154.64 116.03 157.38 114.02
  C 162.15 110.51 166.76 108.36 170.44 103.55
  C 174.37 98.43 179.22 101.42 180.45 106.49
  A 1.05 1.05 0.0 0 1 180.22 107.43
  Q 173.85 114.74 174.92 124.60
  A 1.62 1.60 -5.3 0 0 176.66 126.03
  C 181.26 125.65 187.02 119.23 189.67 115.71
  C 192.14 112.43 192.31 109.17 192.02 105.27
  A 0.97 0.94 69.5 0 1 192.38 104.44
  Q 201.95 96.99 210.22 88.14
  Q 211.32 86.96 211.22 88.57
  L 210.71 96.50"
/>
<path stroke="#eeeeee" vector-effect="non-scaling-stroke" d="
  M 210.71 96.50
  L 209.36 96.51
  A 1.32 1.30 22.1 0 0 208.47 96.88
  Q 206.35 98.92 205.11 101.61
  A 2.00 1.93 86.2 0 1 204.44 102.40
  Q 198.11 106.61 194.37 113.09
  C 192.34 116.58 182.10 128.60 178.27 129.05
  A 1.49 1.48 19.4 0 0 177.41 129.46
  L 168.71 137.75"
/>
<path stroke="#6f6f6f" vector-effect="non-scaling-stroke" d="
  M 168.71 137.75
  Q 163.36 139.93 159.44 145.42
  A 4.09 4.05 62.7 0 0 158.69 147.81
  L 158.89 161.67"
/>
<path stroke="#eeeeee" vector-effect="non-scaling-stroke" d="
  M 158.89 161.67
  Q 154.90 166.90 151.47 172.46
  Q 150.66 173.76 150.69 175.26
  A 1.43 1.41 -28.5 0 1 150.42 176.15
  C 144.30 184.66 141.64 194.93 135.05 202.97
  Q 131.76 206.98 131.06 209.31
  Q 127.74 220.33 123.47 231.01"
/>
<path stroke="#6f6f6f" vector-effect="non-scaling-stroke" d="
  M 55.25 200.21
  C 58.78 197.33 61.72 194.75 62.29 190.00"
/>
<path stroke="#eeeeee" vector-effect="non-scaling-stroke" d="
  M 62.29 190.00
  Q 63.53 190.20 63.77 189.26
  Q 66.17 179.83 64.37 169.42"
/>
<path stroke="#6f6f6f" vector-effect="non-scaling-stroke" d="
  M 64.37 169.42
  Q 67.23 167.35 71.52 166.14
  A 0.38 0.37 82.6 0 1 71.99 166.51
  C 71.81 177.01 70.20 190.46 76.88 196.53
  Q 78.28 197.80 79.93 196.88
  Q 87.44 192.70 91.45 185.17
  Q 91.76 184.59 91.81 185.24
  C 92.08 188.31 91.18 195.63 93.33 197.39
  A 1.06 1.06 0.0 0 1 93.72 198.19
  Q 93.76 199.75 94.99 200.03
  C 105.56 202.43 125.26 192.58 132.96 184.75"
/>
<path stroke="#eeeeee" vector-effect="non-scaling-stroke" d="
  M 132.96 184.75
  C 135.07 187.94 131.73 190.82 130.96 194.04
  A 0.38 0.37 -82.2 0 0 131.30 194.50
  C 132.44 194.56 145.47 168.01 146.93 165.31
  Q 147.67 163.94 146.31 164.70
  Q 142.56 166.81 140.13 170.40
  Q 137.97 173.57 135.00 180.12"
/>
<path stroke="#6f6f6f" vector-effect="non-scaling-stroke" d="
  M 135.00 180.12
  Q 125.13 185.99 114.20 189.57
  Q 110.11 190.91 105.71 190.39
  Q 103.19 190.09 103.91 187.65
  C 104.85 184.46 106.56 181.63 108.94 178.84
  Q 116.17 170.37 122.54 161.24
  A 1.43 1.42 -30.4 0 0 122.79 160.29
  L 122.66 158.82
  A 1.17 1.17 0.0 0 0 121.12 157.81
  L 103.37 163.78
  A 0.96 0.96 0.0 0 1 102.11 162.96
  Q 101.45 155.47 102.01 147.24
  C 102.50 139.90 113.52 138.09 119.05 138.68
  A 0.92 0.90 90.0 0 1 119.85 139.49
  L 120.38 144.36
  Q 120.52 145.72 121.54 144.81
  C 125.48 141.31 132.30 136.60 129.71 130.54
  A 2.55 2.54 -6.5 0 0 127.81 129.03
  C 114.29 126.69 99.66 141.09 93.14 151.31
  Q 91.72 153.54 91.20 156.52
  C 89.61 165.64 88.05 176.32 84.43 184.83
  Q 84.24 185.29 84.07 184.83
  C 81.24 177.36 81.63 166.25 81.99 158.28
  A 1.37 1.31 68.8 0 1 82.35 157.41
  C 87.77 151.56 98.62 138.99 88.94 131.47"
/>
<path stroke="#6f6f6f" vector-effect="non-scaling-stroke" d="
  M 98.04 111.25
  C 113.99 119.13 120.98 109.22 130.44 98.85
  Q 131.15 98.07 130.86 99.09
  Q 130.13 101.58 128.34 103.50
  A 1.35 1.32 66.3 0 0 127.99 104.43
  L 128.00 105.21
  A 0.66 0.64 7.3 0 0 128.48 105.82
  C 132.04 106.78 138.45 102.69 141.85 101.22
  Q 151.69 96.99 158.77 88.48
  A 1.10 1.09 45.9 0 0 158.79 87.10
  Q 158.60 86.86 158.12 87.15
  Q 150.33 91.94 141.63 94.98
  A 0.50 0.50 0.0 0 1 140.97 94.50
  L 141.07 78.27
  A 1.91 1.91 0.0 0 1 142.90 76.37
  C 147.50 76.18 153.62 69.59 155.99 65.89
  Q 156.35 65.32 155.69 65.44
  Q 148.81 66.67 142.58 69.86
  Q 142.10 70.11 142.27 69.59
  Q 143.25 66.51 142.79 63.50"
/>
<path stroke="#eeeeee" vector-effect="non-scaling-stroke" d="
  M 142.79 63.50
  Q 143.22 64.11 143.94 64.07
  A 1.06 1.05 -75.7 0 0 144.78 63.57
  Q 148.13 58.10 152.70 53.58
  A 1.03 1.01 -22.8 0 0 153.00 52.86
  L 153.00 52.29"
/>
<path stroke="#6f6f6f" vector-effect="non-scaling-stroke" d="
  M 153.00 52.29
  Q 155.42 51.53 157.21 52.77
  A 1.24 1.24 0.0 0 0 158.70 52.71
  Q 163.59 48.71 166.90 43.33
  A 0.74 0.73 -53.0 0 0 166.77 42.40
  Q 165.49 41.23 163.75 41.71"
/>
<path stroke="#eeeeee" vector-effect="non-scaling-stroke" d="
  M 67.97 190.25
  C 66.52 189.56 60.91 204.82 61.25 205.55
  A 0.41 0.41 0.0 0 0 61.90 205.68
  C 64.90 202.93 66.90 196.22 68.67 192.12
  A 1.44 1.44 0.0 0 0 67.97 190.25"
/>
<path stroke="#eeeeee" vector-effect="non-scaling-stroke" d="
  M 333.31 0.00
  L 332.66 0.35
  Q 331.79 0.81 332.78 0.80
  L 335.64 0.76
  A 0.89 0.87 74.5 0 1 336.42 1.21
  Q 339.32 6.44 338.64 12.49
  A 1.09 1.09 0.0 0 0 339.10 13.50
  L 341.38 15.13
  A 1.48 1.48 0.0 0 0 342.31 15.39
  L 347.64 15.01
  A 0.61 0.61 0.0 0 1 348.28 15.71
  L 347.84 18.72
  A 0.39 0.39 0.0 0 1 347.33 19.03
  L 346.99 18.91
  A 0.36 0.35 23.7 0 1 346.79 18.41
  Q 347.51 16.99 346.69 16.03
  A 1.07 1.05 69.1 0 0 345.89 15.66
  Q 341.64 15.62 341.01 20.07
  Q 340.67 22.48 342.94 23.36
  L 361.25 30.40
  Q 361.73 30.59 362.07 30.98
  C 364.46 33.75 367.07 31.72 367.65 28.84
  A 0.32 0.32 0.0 0 0 367.27 28.46
  L 365.84 28.79
  A 0.48 0.48 0.0 0 1 365.25 28.33
  L 365.24 27.95
  A 0.52 0.52 0.0 0 1 365.71 27.42
  Q 367.75 27.19 368.64 25.47
  Q 369.75 23.32 370.79 25.51
  L 372.63 29.37
  A 0.62 0.62 0.0 0 1 372.06 30.26
  L 370.79 30.24
  Q 369.97 30.23 370.54 30.82
  C 373.67 34.02 378.36 32.71 381.84 31.33
  Q 384.05 30.45 383.51 32.77
  L 382.55 36.85
  Q 381.92 39.54 384.36 38.26
  L 391.43 34.57
  A 1.46 1.43 -53.2 0 1 392.33 34.43
  C 394.04 34.75 396.07 27.93 397.53 28.51
  A 0.45 0.44 -69.1 0 1 397.78 29.08
  Q 396.83 31.68 397.11 34.54
  A 0.35 0.35 0.0 0 0 397.61 34.82
  C 403.31 32.08 406.17 27.82 410.85 23.96
  A 0.98 0.96 -56.8 0 1 411.72 23.77
  C 416.86 25.16 417.10 20.57 421.39 19.46
  A 1.21 1.21 0.0 0 0 422.13 18.89
  L 424.30 15.03
  A 1.59 1.57 -33.3 0 0 424.50 14.09
  Q 424.25 11.78 422.95 9.86
  A 1.02 1.00 -55.0 0 1 422.81 9.03
  C 423.32 7.21 427.51 3.50 426.68 7.35
  C 426.36 8.85 425.32 11.04 427.03 12.07
  A 0.73 0.72 40.7 0 0 427.88 12.01
  C 429.72 10.47 426.60 8.26 429.10 5.99
  A 1.94 1.88 77.8 0 0 429.61 5.17
  Q 430.42 2.61 430.06 0.00"
/>
<path stroke="#818181" vector-effect="non-scaling-stroke" d="
  M 158.89 161.67
  L 159.08 165.90
  A 1.26 1.20 -25.7 0 1 158.75 166.78
  C 156.79 168.90 153.12 171.69 152.29 174.43
  Q 151.85 175.89 153.09 175.01
  L 159.13 170.74
  Q 159.92 170.18 159.93 171.15
  L 160.17 197.26
  A 0.61 0.60 76.2 0 0 161.05 197.80
  Q 167.08 194.73 170.25 188.84
  Q 170.51 188.37 170.49 187.82
  L 169.86 164.95
  A 1.09 1.08 69.9 0 1 170.27 164.06
  L 175.38 160.08
  Q 176.03 159.58 175.89 160.39
  Q 173.41 174.59 173.59 186.51
  Q 173.69 193.87 180.73 196.75
  A 1.11 1.09 -49.0 0 0 181.72 196.67
  L 184.14 195.20
  A 0.56 0.56 0.0 0 1 184.93 195.42
  C 191.79 208.63 210.32 188.42 209.57 186.81
  A 0.42 0.42 0.0 0 0 208.99 186.61
  C 204.30 189.05 200.39 192.49 195.72 187.50
  A 1.25 1.25 0.0 0 1 195.39 186.58
  L 195.88 178.19
  A 1.52 1.52 0.0 0 1 197.06 176.80
  L 213.18 173.21
  A 0.44 0.44 0.0 0 1 213.71 173.55
  L 219.33 200.23
  A 0.44 0.44 0.0 0 0 219.99 200.52
  C 224.60 197.73 229.97 193.12 228.62 187.17
  Q 226.85 179.42 225.02 171.63
  Q 224.61 169.89 225.87 168.64
  L 233.79 160.81
  A 0.46 0.46 0.0 0 0 233.64 160.06
  C 232.82 159.73 225.39 161.96 223.94 162.16
  A 0.55 0.54 -5.9 0 1 223.32 161.66
  L 222.05 143.29
  A 1.32 1.29 -25.6 0 1 222.41 142.30
  L 228.93 135.51
  Q 229.69 134.71 228.59 134.80
  Q 225.56 135.05 221.67 137.43
  C 203.83 148.34 191.59 163.09 186.48 183.17
  Q 186.04 184.89 185.14 183.36
  C 182.47 178.86 183.78 154.13 187.48 150.13
  C 192.87 144.31 198.23 140.36 201.15 132.27
  A 0.58 0.58 0.0 0 0 200.87 131.56
  C 190.76 126.44 179.80 146.78 177.94 154.16
  A 1.10 1.07 82.2 0 1 177.44 154.84
  L 170.80 158.83
  A 0.71 0.71 0.0 0 1 169.73 158.31
  Q 168.65 149.54 169.01 140.75
  Q 169.07 139.22 168.71 137.75"
/>
<path stroke="#818181" vector-effect="non-scaling-stroke" d="
  M 210.71 96.50
  C 210.48 99.60 209.29 109.63 213.05 110.88
  C 217.51 112.36 223.30 105.56 224.94 102.11
  Q 225.62 100.70 224.08 100.97
  C 218.54 101.94 220.95 87.39 221.04 84.75"
/>
<path stroke="#818181" vector-effect="non-scaling-stroke" d="
  M 231.29 76.00
  C 229.41 86.57 229.99 96.82 230.01 107.23
  A 0.69 0.69 0.0 0 0 230.50 107.89
  C 234.08 109.03 242.05 100.71 244.66 97.49
  A 0.80 0.80 0.0 0 0 244.68 96.52
  Q 243.93 95.47 244.73 94.61
  A 0.57 0.57 0.0 0 1 245.57 94.61
  C 251.08 100.51 256.39 93.86 259.96 90.13
  Q 262.02 87.97 259.21 86.98
  Q 255.49 85.68 253.15 82.69
  A 0.99 0.98 -46.1 0 1 253.13 81.49
  L 267.11 62.60
  Q 267.62 61.91 267.49 62.76
  C 265.59 75.37 263.16 87.05 262.97 101.22
  C 262.92 104.75 263.43 107.46 266.08 109.54
  A 1.20 1.18 49.3 0 0 267.40 109.65
  Q 273.12 106.53 276.32 100.86
  A 0.57 0.57 0.0 0 0 276.20 100.15
  C 274.17 98.37 272.90 97.07 272.94 94.09
  Q 273.17 73.67 277.81 53.76
  Q 278.07 52.63 277.57 49.39
  A 0.36 0.36 0.0 0 0 277.04 49.13
  Q 272.49 51.62 268.32 56.58
  Q 257.42 69.54 251.28 78.12
  Q 250.99 78.53 250.79 78.07
  Q 247.16 69.65 245.09 61.20"
/>
<path stroke="#eeeeee" vector-effect="non-scaling-stroke" d="
  M 330.26 0.77
  C 328.19 0.38 326.67 0.35 325.39 2.18
  Q 325.01 2.72 325.67 2.65
  L 329.78 2.21
  A 0.77 0.76 1.5 0 0 330.44 1.59
  L 330.51 1.14
  A 0.33 0.32 -79.8 0 0 330.26 0.77"
/>
<path stroke="#818181" vector-effect="non-scaling-stroke" d="
  M 374.50 50.80
  L 374.51 51.29
  A 1.28 1.25 66.2 0 1 374.18 52.17
  C 371.78 54.80 366.90 58.97 366.13 62.40
  Q 365.93 63.27 366.68 62.78
  L 370.47 60.24
  Q 371.08 59.83 370.77 60.50
  C 365.61 71.72 362.24 82.25 362.03 93.74
  C 361.74 109.06 382.83 109.05 391.23 101.98
  C 400.27 94.37 406.00 87.62 407.49 75.50
  C 408.59 66.47 409.14 56.22 403.44 49.06
  C 398.94 43.40 391.76 41.85 385.12 44.21
  Q 384.06 44.59 384.34 43.50
  C 385.63 38.54 379.96 39.85 377.57 40.33
  C 364.18 43.02 349.14 45.79 338.40 53.71
  Q 337.88 54.09 337.93 53.45
  Q 338.51 45.51 336.03 37.97
  A 0.98 0.96 -3.9 0 0 335.27 37.32
  Q 331.88 36.76 328.39 38.87
  C 314.07 47.57 310.13 59.56 311.20 75.72
  A 1.19 1.17 -26.8 0 1 310.90 76.60
  C 307.79 80.16 304.14 82.77 301.33 86.93
  C 297.05 93.25 296.01 100.85 302.18 106.19
  C 306.82 110.20 314.47 111.84 319.93 108.69
  C 333.24 101.02 335.98 82.12 337.92 69.04
  A 0.98 0.96 80.5 0 1 338.43 68.31
  L 348.21 63.12
  Q 348.68 62.87 348.63 63.40
  C 348.02 69.80 345.59 100.14 349.49 103.97
  Q 351.57 106.02 353.60 103.93
  L 360.28 97.09
  A 1.64 1.63 70.0 0 0 360.72 96.14
  Q 361.01 93.23 358.58 91.79
  A 1.25 1.22 9.1 0 1 358.00 91.01
  Q 357.47 88.79 357.46 86.50
  Q 357.40 71.23 358.51 56.00
  C 358.95 50.01 370.36 49.93 374.00 50.27
  A 0.54 0.54 0.0 0 1 374.50 50.80"
/>
<path stroke="#818181" vector-effect="non-scaling-stroke" d="
  M 247.03 188.47
  C 245.87 173.07 247.06 156.35 246.98 141.73
  A 0.69 0.68 76.5 0 0 245.99 141.12
  C 240.11 144.03 236.95 147.72 237.03 154.50
  C 237.17 167.43 235.66 182.04 236.56 195.89
  A 1.13 1.11 -24.6 0 1 236.23 196.75
  C 232.55 200.39 226.47 206.26 226.98 211.83
  Q 227.18 213.95 229.20 213.29
  C 239.76 209.84 248.51 202.85 257.35 194.27
  A 1.23 1.23 0.0 0 1 258.22 193.91
  C 267.26 193.76 267.67 204.01 266.83 210.38
  A 0.89 0.89 0.0 0 1 265.49 211.02
  C 263.15 209.59 264.90 204.37 264.63 201.73
  A 0.34 0.34 0.0 0 0 264.13 201.46
  Q 255.51 206.05 254.01 215.62
  C 253.85 216.64 254.16 219.18 254.69 219.86
  Q 256.29 221.92 258.62 220.75
  C 266.51 216.80 276.82 208.65 277.18 199.21
  A 0.32 0.32 0.0 0 1 277.64 198.94
  C 283.90 202.09 291.00 202.37 296.91 198.16
  C 308.47 189.94 318.47 176.92 320.92 162.68
  Q 322.14 155.56 321.39 150.18
  C 319.99 140.18 309.64 134.04 300.36 133.93
  C 294.80 133.87 291.36 133.98 287.64 137.88
  Q 279.08 146.84 274.63 156.95
  A 0.15 0.15 0.0 0 1 274.39 157.01
  L 274.14 156.78
  A 0.75 0.75 0.0 0 1 273.89 156.18
  Q 274.51 146.08 273.65 136.01
  C 273.25 131.39 271.32 127.10 265.73 128.00
  C 256.91 129.43 243.51 131.99 239.86 141.59
  Q 239.68 142.07 240.17 141.93
  C 246.89 140.10 251.86 137.74 259.74 137.99
  A 1.61 1.61 0.0 0 1 260.64 138.31
  C 265.87 142.32 264.34 160.75 263.53 167.51
  Q 262.58 175.51 258.54 184.51
  A 0.88 0.87 -82.7 0 1 257.90 185.01
  Q 252.40 186.02 247.54 188.75
  A 0.35 0.34 73.5 0 1 247.03 188.47"
/>
<path stroke="#eeeeee" vector-effect="non-scaling-stroke" d="
  M 413.0642 21.1444
  A 1.36 1.21 -5.3 0 0 411.5982 20.0652
  A 1.36 1.21 -5.3 0 0 410.3558 21.3956
  A 1.36 1.21 -5.3 0 0 411.8218 22.4748
  A 1.36 1.21 -5.3 0 0 413.0642 21.1444"
/>
<path stroke="#6f6f6f" vector-effect="non-scaling-stroke" d="
  M 131.46 64.75
  L 125.75 71.71"
/>
<path stroke="#818181" vector-effect="non-scaling-stroke" d="
  M 125.75 71.71
  L 120.70 75.60
  A 0.42 0.42 0.0 0 1 120.07 75.45
  Q 119.56 74.38 120.16 73.64
  Q 125.86 66.60 126.78 58.60
  C 127.13 55.62 127.80 53.36 124.00 53.07
  C 115.25 52.40 111.96 58.98 108.51 65.64
  Q 100.36 81.36 104.28 99.19"
/>
<path stroke="#6f6f6f" vector-effect="non-scaling-stroke" d="
  M 104.28 99.19
  Q 110.83 103.95 117.79 104.36
  C 125.61 104.81 130.02 89.43 130.96 82.75"
/>
<path stroke="#818181" vector-effect="non-scaling-stroke" d="
  M 130.96 82.75
  L 130.84 77.62"
/>
<path stroke="#6f6f6f" vector-effect="non-scaling-stroke" d="
  M 130.84 77.62
  C 130.96 72.94 130.72 69.93 132.71 65.50"
/>
<path stroke="#818181" vector-effect="non-scaling-stroke" d="
  M 153.00 52.29
  C 147.95 53.12 140.73 57.04 141.00 63.00
  A 0.54 0.54 0.0 0 0 141.55 63.52
  L 142.79 63.50"
/>
<path stroke="#818181" vector-effect="non-scaling-stroke" d="
  M 89.99 66.16
  C 89.59 60.91 87.30 56.96 81.70 56.13
  A 0.53 0.52 5.9 0 0 81.09 56.62
  Q 80.29 72.45 75.81 87.56
  C 74.29 92.70 75.11 98.55 75.28 103.84
  A 0.83 0.82 5.4 0 0 75.93 104.62
  L 80.31 105.57
  Q 82.33 106.01 83.33 104.20
  C 89.86 92.33 91.01 79.44 89.99 66.16"
/>
<path stroke="#818181" vector-effect="non-scaling-stroke" d="
  M 325.50 46.98
  C 320.47 45.03 321.02 67.07 321.18 69.52
  A 0.46 0.46 0.0 0 0 321.79 69.92
  Q 324.81 68.88 327.41 67.08
  A 1.15 1.15 0.0 0 0 327.90 66.20
  Q 328.49 56.80 326.16 47.72
  A 1.08 1.08 0.0 0 0 325.50 46.98"
/>
<path stroke="#818181" vector-effect="non-scaling-stroke" d="
  M 379.95 53.90
  C 375.65 63.78 372.21 74.00 371.94 84.88
  C 371.80 90.50 374.88 94.40 380.16 95.71
  C 384.42 96.76 389.55 97.30 393.77 95.48
  A 1.41 1.39 1.6 0 0 394.47 94.83
  Q 396.46 90.89 397.27 85.01
  C 399.05 72.10 398.99 52.78 380.73 53.38
  A 0.87 0.86 11.0 0 0 379.95 53.90"
/>
<path stroke="#818181" vector-effect="non-scaling-stroke" d="
  M 351.62 54.09
  L 338.67 58.38
  A 0.98 0.98 0.0 0 0 337.99 59.31
  L 338.00 61.99
  A 0.43 0.42 79.3 0 0 338.58 62.39
  Q 345.57 59.66 351.94 55.67
  A 0.69 0.69 0.0 0 0 352.20 54.79
  L 351.94 54.23
  A 0.27 0.26 68.4 0 0 351.62 54.09"
/>
<path stroke="#818181" vector-effect="non-scaling-stroke" d="
  M 308.77 83.88
  C 305.53 92.64 313.33 100.84 322.04 99.91
  A 0.89 0.88 9.2 0 0 322.76 99.40
  C 325.90 92.75 327.09 82.53 328.09 75.08
  A 0.97 0.97 0.0 0 0 326.76 74.05
  Q 318.43 77.47 310.56 81.81
  A 3.92 3.91 85.9 0 0 308.77 83.88"
/>
<path stroke="#6f6f6f" vector-effect="non-scaling-stroke" d="
  M 172.18 52.76
  C 171.86 56.74 170.43 86.61 171.22 86.94
  A 0.46 0.46 0.0 0 0 171.83 86.68
  C 176.50 74.48 179.13 64.61 177.90 51.80
  A 0.63 0.62 82.1 0 0 177.16 51.24
  L 172.73 52.13
  A 0.70 0.68 86.8 0 0 172.18 52.76"
/>
<path stroke="#6f6f6f" vector-effect="non-scaling-stroke" d="
  M 160.4624 107.1300
  A 1.46 0.49 90.3 0 0 160.9600 105.6726
  A 1.46 0.49 90.3 0 0 160.4776 104.2100
  A 1.46 0.49 90.3 0 0 159.9800 105.6674
  A 1.46 0.49 90.3 0 0 160.4624 107.1300"
/>
<path stroke="#818181" vector-effect="non-scaling-stroke" d="
  M 241.64 91.80
  Q 242.29 89.36 240.70 87.26
  Q 240.01 86.35 240.00 87.49
  L 239.98 91.78
  Q 239.95 98.08 241.64 91.80"
/>
<path stroke="#eeeeee" vector-effect="non-scaling-stroke" d="
  M 125.75 71.71
  Q 126.95 72.97 125.70 74.21
  Q 121.02 78.85 117.28 84.31
  A 1.67 1.58 4.5 0 1 116.55 84.90
  C 114.32 85.81 108.69 94.69 107.04 97.05
  Q 106.78 98.17 104.28 99.19"
/>
<path stroke="#eeeeee" vector-effect="non-scaling-stroke" d="
  M 130.84 77.62
  C 128.09 80.72 125.19 84.74 123.96 88.71
  Q 123.71 89.54 124.39 89.01
  Q 128.06 86.21 130.96 82.75"
/>
<path stroke="#818181" vector-effect="non-scaling-stroke" d="
  M 289.07 143.78
  Q 283.03 162.25 283.97 181.31
  C 284.41 190.37 291.54 192.09 299.23 191.07
  C 302.29 190.67 303.78 188.65 305.24 186.22
  Q 313.06 173.23 310.97 157.99
  C 309.66 148.49 297.67 143.41 289.34 143.58
  A 0.30 0.28 -79.8 0 0 289.07 143.78"
/>
<path stroke="#818181" vector-effect="non-scaling-stroke" d="
  M 268.69 175.94
  Q 267.31 177.68 264.45 184.31
  Q 264.20 184.89 264.82 184.75
  Q 269.34 183.75 273.44 185.66
  A 0.37 0.37 0.0 0 0 273.96 185.32
  L 274.08 172.26
  Q 274.09 171.83 273.73 172.07
  Q 269.42 175.01 268.69 175.94"
/>
<path stroke="#818181" vector-effect="non-scaling-stroke" d="
  M 251.50 195.00
  C 245.07 193.64 243.48 202.27 238.90 201.95
  A 0.77 0.75 -10.5 0 1 238.26 201.52
  L 237.76 200.49
  Q 236.65 198.21 236.96 200.73
  L 237.19 202.55
  A 1.05 1.03 76.6 0 0 238.57 203.41
  Q 246.11 200.68 252.09 195.33
  A 0.31 0.31 0.0 0 0 252.01 194.81
  Q 251.73 194.67 251.50 195.00"
/>
<path stroke="#818181" vector-effect="non-scaling-stroke" d="
  M 135.00 180.12
  Q 134.96 183.27 132.96 184.75"
/>
<path stroke="#818181" vector-effect="non-scaling-stroke" d="
  M 64.37 169.42
  C 61.94 169.70 62.02 170.42 61.99 172.20
  Q 61.83 181.10 62.29 190.00"
/>
<path stroke="#6f6f6f" vector-effect="non-scaling-stroke" d="
  M 102.00 181.36
  A 0.32 0.32 0.0 0 0 102.57 181.56
  L 113.56 168.01
  A 0.32 0.32 0.0 0 0 113.22 167.51
  L 102.22 171.11
  A 0.32 0.32 0.0 0 0 102.00 171.41
  L 102.00 181.36"
/>
<path stroke="#818181" vector-effect="non-scaling-stroke" d="
  M 190.36 140.85
  C 188.97 141.43 188.33 143.66 188.05 145.05
  Q 187.77 146.49 188.57 145.26
  L 190.97 141.59
  Q 191.88 140.21 190.36 140.85"
/>
<path stroke="#818181" vector-effect="non-scaling-stroke" d="
  M 211.35 148.95
  C 205.38 152.38 200.77 161.15 199.04 167.11
  A 0.45 0.44 3.3 0 0 199.54 167.67
  L 212.14 165.75
  A 0.70 0.69 -6.4 0 0 212.73 165.02
  L 211.83 149.21
  A 0.32 0.32 0.0 0 0 211.35 148.95"
/>
</g>
<path fill="#ffffff" d="
  M 0.00 0.00
  L 203.31 0.00
  Q 189.26 12.26 176.71 26.03
  C 172.55 30.59 168.25 36.58 163.75 41.71
  C 150.72 44.77 139.70 54.40 132.71 65.50
  L 131.92 65.46
  A 0.44 0.43 -2.4 0 1 131.51 65.09
  L 131.46 64.75
  Q 137.06 55.96 137.07 46.24
  Q 137.07 43.83 134.69 43.46
  C 131.01 42.91 128.12 43.06 124.77 45.00
  Q 109.44 53.90 100.92 69.64
  A 0.41 0.41 0.0 0 1 100.25 69.71
  C 99.87 69.30 100.35 60.77 100.22 58.98
  C 99.71 51.58 96.84 46.79 89.25 45.95
  C 83.04 45.27 77.81 50.04 74.30 54.56
  C 66.51 64.60 64.52 84.97 63.70 97.99
  C 63.44 102.21 62.08 105.05 59.11 107.67
  A 1.48 1.47 -67.0 0 1 58.23 108.03
  C 42.42 108.95 37.10 95.62 36.80 82.44
  C 36.49 68.70 38.55 7.62 67.43 20.21
  C 73.97 23.06 66.40 28.86 66.13 32.60
  Q 65.80 37.13 66.16 41.98
  Q 66.36 44.67 68.78 43.48
  C 79.09 38.37 80.63 28.07 80.12 17.49
  C 79.91 13.10 79.91 9.54 74.49 9.90
  Q 67.97 10.33 61.43 11.28
  Q 59.22 11.60 57.36 12.83
  C 29.44 31.19 24.90 67.45 27.50 98.00
  C 28.07 104.68 32.24 112.30 38.15 115.73
  C 48.38 121.68 55.58 115.60 63.14 108.49
  Q 64.18 107.51 64.03 108.93
  C 63.20 116.74 73.26 116.20 77.27 113.76
  Q 86.02 108.45 92.26 97.39
  Q 92.52 96.94 92.63 97.44
  C 94.04 103.57 91.50 107.22 98.04 111.25
  Q 97.41 112.02 97.25 113.01
  A 1.03 1.03 0.0 0 0 97.57 113.92
  Q 99.83 116.03 101.04 118.99
  Q 102.17 121.78 99.24 122.46
  L 94.33 123.60
  A 1.12 1.12 0.0 0 0 93.55 124.29
  Q 91.89 128.76 88.94 131.47
  Q 71.10 137.81 72.40 157.43
  Q 72.56 159.90 70.17 160.50
  L 62.52 162.45
  A 0.42 0.42 0.0 0 1 62.00 162.04
  L 62.00 141.45
  A 0.54 0.53 -12.9 0 0 61.23 140.97
  Q 56.34 143.34 53.39 147.73
  C 50.96 151.35 51.93 161.21 52.04 165.65
  A 1.64 1.58 -29.2 0 1 51.74 166.64
  L 48.11 171.70
  A 0.58 0.58 0.0 0 0 48.28 172.54
  Q 49.49 173.29 50.99 172.95
  A 0.82 0.82 0.0 0 1 51.99 173.75
  L 52.02 200.02
  A 1.19 1.19 0.0 0 0 53.29 201.21
  Q 54.13 201.15 55.25 200.21
  Q 55.98 200.48 56.15 201.04
  A 0.97 0.97 0.0 0 1 55.98 201.93
  C 52.61 205.95 50.79 210.29 44.79 213.37
  A 1.27 1.25 -6.6 0 0 44.14 214.18
  L 43.41 217.00
  Q 43.30 217.44 43.03 217.81
  Q 38.62 223.86 36.33 230.96
  L 0.00 231.00
  L 0.00 0.00
  Z
  M 156.1578 40.2958
  A 3.24 0.52 -41.2 0 0 153.3775 42.0387
  A 3.24 0.52 -41.2 0 0 151.2822 44.5642
  A 3.24 0.52 -41.2 0 0 154.0625 42.8213
  A 3.24 0.52 -41.2 0 0 156.1578 40.2958
  Z"
/>
<path fill="#dcdcdc" d="
  M 203.31 0.00
  L 300.81 0.00
  L 302.29 0.38
  Q 302.77 0.51 302.41 0.86
  C 296.79 6.37 289.94 10.83 284.24 15.53
  C 279.08 19.77 273.90 23.27 268.04 26.47
  Q 264.36 28.48 261.02 32.01
  C 258.58 34.59 251.83 41.44 252.26 42.28
  A 0.27 0.27 0.0 0 0 252.72 42.31
  C 255.04 38.97 259.05 36.99 261.25 35.13
  Q 267.64 29.73 273.81 24.07
  Q 275.03 22.96 277.72 23.35
  A 1.05 1.03 27.5 0 0 278.57 23.09
  C 280.43 21.40 281.90 19.55 283.91 18.10
  Q 287.91 15.22 291.81 12.21
  C 297.39 7.91 303.85 4.75 309.79 0.72
  A 1.81 1.77 -63.4 0 1 310.69 0.41
  L 317.31 0.00
  L 323.06 0.00
  Q 323.33 0.24 323.75 0.34
  A 0.52 0.51 -75.3 0 1 324.11 0.97
  C 324.07 1.11 315.27 2.60 313.80 3.38
  Q 309.58 5.61 305.87 8.60
  C 295.07 17.28 283.41 24.84 273.36 34.41
  Q 266.24 41.18 258.51 47.29
  Q 256.98 48.50 255.89 50.50
  Q 252.14 57.39 245.09 61.20
  C 243.05 57.14 245.46 52.40 247.04 48.63
  Q 247.75 46.91 246.28 48.05
  L 241.59 51.65
  A 0.35 0.35 0.0 0 1 241.03 51.43
  L 240.86 50.45
  A 0.73 0.72 0.6 0 0 240.27 49.85
  C 238.20 49.47 233.23 55.06 231.86 56.69
  Q 230.20 58.67 231.24 61.03
  L 233.25 65.58
  A 1.72 1.71 39.8 0 1 233.35 66.63
  L 231.29 76.00
  Q 230.77 75.72 230.23 75.89
  A 0.90 0.90 0.0 0 0 229.62 76.54
  Q 229.39 77.41 228.51 77.47
  A 1.02 1.01 15.6 0 0 227.74 77.90
  C 225.58 80.97 223.70 84.09 221.04 84.75
  Q 221.60 70.35 223.01 56.00
  Q 223.25 53.62 222.83 48.90
  A 0.37 0.37 0.0 0 0 222.32 48.59
  C 218.09 50.42 212.58 55.31 212.99 59.77
  Q 213.38 64.04 212.57 71.14
  A 1.08 1.06 -10.4 0 1 212.00 71.95
  Q 205.29 75.38 197.76 75.51
  A 0.47 0.47 0.0 0 1 197.29 74.94
  C 198.34 70.13 201.69 67.89 206.17 64.18
  Q 208.08 62.60 207.51 60.17
  A 0.41 0.40 -21.4 0 0 206.91 59.91
  Q 192.74 68.20 187.10 83.71
  A 1.08 1.08 0.0 0 0 188.07 85.16
  C 195.75 85.53 203.58 81.91 210.86 79.89
  Q 212.76 79.37 212.03 81.19
  C 209.58 87.39 197.83 96.38 192.21 100.14
  A 0.62 0.62 0.0 0 1 191.26 99.76
  Q 190.50 96.03 188.33 92.91
  Q 187.01 91.01 184.69 91.01
  L 176.52 91.00
  A 0.34 0.34 0.0 0 1 176.22 90.50
  C 184.29 75.00 189.58 59.75 187.81 42.15
  A 0.72 0.70 -0.4 0 0 187.16 41.52
  C 181.60 41.11 178.34 43.30 173.29 46.66
  C 169.80 48.98 160.65 55.92 160.15 60.21
  A 0.48 0.48 0.0 0 0 160.60 60.75
  L 161.35 60.78
  A 0.61 0.61 0.0 0 1 161.94 61.41
  L 160.82 98.60
  A 3.39 3.38 69.9 0 1 159.71 100.99
  C 156.21 104.14 148.33 111.59 150.20 116.73
  A 0.91 0.90 -20.1 0 0 151.37 117.27
  Q 154.64 116.03 157.38 114.02
  C 162.15 110.51 166.76 108.36 170.44 103.55
  C 174.37 98.43 179.22 101.42 180.45 106.49
  A 1.05 1.05 0.0 0 1 180.22 107.43
  Q 173.85 114.74 174.92 124.60
  A 1.62 1.60 -5.3 0 0 176.66 126.03
  C 181.26 125.65 187.02 119.23 189.67 115.71
  C 192.14 112.43 192.31 109.17 192.02 105.27
  A 0.97 0.94 69.5 0 1 192.38 104.44
  Q 201.95 96.99 210.22 88.14
  Q 211.32 86.96 211.22 88.57
  L 210.71 96.50
  L 209.36 96.51
  A 1.32 1.30 22.1 0 0 208.47 96.88
  Q 206.35 98.92 205.11 101.61
  A 2.00 1.93 86.2 0 1 204.44 102.40
  Q 198.11 106.61 194.37 113.09
  C 192.34 116.58 182.10 128.60 178.27 129.05
  A 1.49 1.48 19.4 0 0 177.41 129.46
  L 168.71 137.75
  Q 163.36 139.93 159.44 145.42
  A 4.09 4.05 62.7 0 0 158.69 147.81
  L 158.89 161.67
  Q 154.90 166.90 151.47 172.46
  Q 150.66 173.76 150.69 175.26
  A 1.43 1.41 -28.5 0 1 150.42 176.15
  C 144.30 184.66 141.64 194.93 135.05 202.97
  Q 131.76 206.98 131.06 209.31
  Q 127.74 220.33 123.47 231.01
  L 36.33 230.96
  Q 38.62 223.86 43.03 217.81
  Q 43.30 217.44 43.41 217.00
  L 44.14 214.18
  A 1.27 1.25 -6.6 0 1 44.79 213.37
  C 50.79 210.29 52.61 205.95 55.98 201.93
  A 0.97 0.97 0.0 0 0 56.15 201.04
  Q 55.98 200.48 55.25 200.21
  C 58.78 197.33 61.72 194.75 62.29 190.00
  Q 63.53 190.20 63.77 189.26
  Q 66.17 179.83 64.37 169.42
  Q 67.23 167.35 71.52 166.14
  A 0.38 0.37 82.6 0 1 71.99 166.51
  C 71.81 177.01 70.20 190.46 76.88 196.53
  Q 78.28 197.80 79.93 196.88
  Q 87.44 192.70 91.45 185.17
  Q 91.76 184.59 91.81 185.24
  C 92.08 188.31 91.18 195.63 93.33 197.39
  A 1.06 1.06 0.0 0 1 93.72 198.19
  Q 93.76 199.75 94.99 200.03
  C 105.56 202.43 125.26 192.58 132.96 184.75
  C 135.07 187.94 131.73 190.82 130.96 194.04
  A 0.38 0.37 -82.2 0 0 131.30 194.50
  C 132.44 194.56 145.47 168.01 146.93 165.31
  Q 147.67 163.94 146.31 164.70
  Q 142.56 166.81 140.13 170.40
  Q 137.97 173.57 135.00 180.12
  Q 125.13 185.99 114.20 189.57
  Q 110.11 190.91 105.71 190.39
  Q 103.19 190.09 103.91 187.65
  C 104.85 184.46 106.56 181.63 108.94 178.84
  Q 116.17 170.37 122.54 161.24
  A 1.43 1.42 -30.4 0 0 122.79 160.29
  L 122.66 158.82
  A 1.17 1.17 0.0 0 0 121.12 157.81
  L 103.37 163.78
  A 0.96 0.96 0.0 0 1 102.11 162.96
  Q 101.45 155.47 102.01 147.24
  C 102.50 139.90 113.52 138.09 119.05 138.68
  A 0.92 0.90 90.0 0 1 119.85 139.49
  L 120.38 144.36
  Q 120.52 145.72 121.54 144.81
  C 125.48 141.31 132.30 136.60 129.71 130.54
  A 2.55 2.54 -6.5 0 0 127.81 129.03
  C 114.29 126.69 99.66 141.09 93.14 151.31
  Q 91.72 153.54 91.20 156.52
  C 89.61 165.64 88.05 176.32 84.43 184.83
  Q 84.24 185.29 84.07 184.83
  C 81.24 177.36 81.63 166.25 81.99 158.28
  A 1.37 1.31 68.8 0 1 82.35 157.41
  C 87.77 151.56 98.62 138.99 88.94 131.47
  Q 91.89 128.76 93.55 124.29
  A 1.12 1.12 0.0 0 1 94.33 123.60
  L 99.24 122.46
  Q 102.17 121.78 101.04 118.99
  Q 99.83 116.03 97.57 113.92
  A 1.03 1.03 0.0 0 1 97.25 113.01
  Q 97.41 112.02 98.04 111.25
  C 113.99 119.13 120.98 109.22 130.44 98.85
  Q 131.15 98.07 130.86 99.09
  Q 130.13 101.58 128.34 103.50
  A 1.35 1.32 66.3 0 0 127.99 104.43
  L 128.00 105.21
  A 0.66 0.64 7.3 0 0 128.48 105.82
  C 132.04 106.78 138.45 102.69 141.85 101.22
  Q 151.69 96.99 158.77 88.48
  A 1.10 1.09 45.9 0 0 158.79 87.10
  Q 158.60 86.86 158.12 87.15
  Q 150.33 91.94 141.63 94.98
  A 0.50 0.50 0.0 0 1 140.97 94.50
  L 141.07 78.27
  A 1.91 1.91 0.0 0 1 142.90 76.37
  C 147.50 76.18 153.62 69.59 155.99 65.89
  Q 156.35 65.32 155.69 65.44
  Q 148.81 66.67 142.58 69.86
  Q 142.10 70.11 142.27 69.59
  Q 143.25 66.51 142.79 63.50
  Q 143.22 64.11 143.94 64.07
  A 1.06 1.05 -75.7 0 0 144.78 63.57
  Q 148.13 58.10 152.70 53.58
  A 1.03 1.01 -22.8 0 0 153.00 52.86
  L 153.00 52.29
  Q 155.42 51.53 157.21 52.77
  A 1.24 1.24 0.0 0 0 158.70 52.71
  Q 163.59 48.71 166.90 43.33
  A 0.74 0.73 -53.0 0 0 166.77 42.40
  Q 165.49 41.23 163.75 41.71
  C 168.25 36.58 172.55 30.59 176.71 26.03
  Q 189.26 12.26 203.31 0.00
  Z
  M 67.97 190.25
  C 66.52 189.56 60.91 204.82 61.25 205.55
  A 0.41 0.41 0.0 0 0 61.90 205.68
  C 64.90 202.93 66.90 196.22 68.67 192.12
  A 1.44 1.44 0.0 0 0 67.97 190.25
  Z"
/>
<path fill="#ffffff" d="
  M 300.81 0.00
  L 317.31 0.00
  L 310.69 0.41
  A 1.81 1.77 -63.4 0 0 309.79 0.72
  C 303.85 4.75 297.39 7.91 291.81 12.21
  Q 287.91 15.22 283.91 18.10
  C 281.90 19.55 280.43 21.40 278.57 23.09
  A 1.05 1.03 27.5 0 1 277.72 23.35
  Q 275.03 22.96 273.81 24.07
  Q 267.64 29.73 261.25 35.13
  C 259.05 36.99 255.04 38.97 252.72 42.31
  A 0.27 0.27 0.0 0 1 252.26 42.28
  C 251.83 41.44 258.58 34.59 261.02 32.01
  Q 264.36 28.48 268.04 26.47
  C 273.90 23.27 279.08 19.77 284.24 15.53
  C 289.94 10.83 296.79 6.37 302.41 0.86
  Q 302.77 0.51 302.29 0.38
  L 300.81 0.00
  Z"
/>
<path fill="#ffffff" d="
  M 323.06 0.00
  L 333.31 0.00
  L 332.66 0.35
  Q 331.79 0.81 332.78 0.80
  L 335.64 0.76
  A 0.89 0.87 74.5 0 1 336.42 1.21
  Q 339.32 6.44 338.64 12.49
  A 1.09 1.09 0.0 0 0 339.10 13.50
  L 341.38 15.13
  A 1.48 1.48 0.0 0 0 342.31 15.39
  L 347.64 15.01
  A 0.61 0.61 0.0 0 1 348.28 15.71
  L 347.84 18.72
  A 0.39 0.39 0.0 0 1 347.33 19.03
  L 346.99 18.91
  A 0.36 0.35 23.7 0 1 346.79 18.41
  Q 347.51 16.99 346.69 16.03
  A 1.07 1.05 69.1 0 0 345.89 15.66
  Q 341.64 15.62 341.01 20.07
  Q 340.67 22.48 342.94 23.36
  L 361.25 30.40
  Q 361.73 30.59 362.07 30.98
  C 364.46 33.75 367.07 31.72 367.65 28.84
  A 0.32 0.32 0.0 0 0 367.27 28.46
  L 365.84 28.79
  A 0.48 0.48 0.0 0 1 365.25 28.33
  L 365.24 27.95
  A 0.52 0.52 0.0 0 1 365.71 27.42
  Q 367.75 27.19 368.64 25.47
  Q 369.75 23.32 370.79 25.51
  L 372.63 29.37
  A 0.62 0.62 0.0 0 1 372.06 30.26
  L 370.79 30.24
  Q 369.97 30.23 370.54 30.82
  C 373.67 34.02 378.36 32.71 381.84 31.33
  Q 384.05 30.45 383.51 32.77
  L 382.55 36.85
  Q 381.92 39.54 384.36 38.26
  L 391.43 34.57
  A 1.46 1.43 -53.2 0 1 392.33 34.43
  C 394.04 34.75 396.07 27.93 397.53 28.51
  A 0.45 0.44 -69.1 0 1 397.78 29.08
  Q 396.83 31.68 397.11 34.54
  A 0.35 0.35 0.0 0 0 397.61 34.82
  C 403.31 32.08 406.17 27.82 410.85 23.96
  A 0.98 0.96 -56.8 0 1 411.72 23.77
  C 416.86 25.16 417.10 20.57 421.39 19.46
  A 1.21 1.21 0.0 0 0 422.13 18.89
  L 424.30 15.03
  A 1.59 1.57 -33.3 0 0 424.50 14.09
  Q 424.25 11.78 422.95 9.86
  A 1.02 1.00 -55.0 0 1 422.81 9.03
  C 423.32 7.21 427.51 3.50 426.68 7.35
  C 426.36 8.85 425.32 11.04 427.03 12.07
  A 0.73 0.72 40.7 0 0 427.88 12.01
  C 429.72 10.47 426.60 8.26 429.10 5.99
  A 1.94 1.88 77.8 0 0 429.61 5.17
  Q 430.42 2.61 430.06 0.00
  L 445.00 0.00
  L 445.00 231.00
  L 123.47 231.01
  Q 127.74 220.33 131.06 209.31
  Q 131.76 206.98 135.05 202.97
  C 141.64 194.93 144.30 184.66 150.42 176.15
  A 1.43 1.41 -28.5 0 0 150.69 175.26
  Q 150.66 173.76 151.47 172.46
  Q 154.90 166.90 158.89 161.67
  L 159.08 165.90
  A 1.26 1.20 -25.7 0 1 158.75 166.78
  C 156.79 168.90 153.12 171.69 152.29 174.43
  Q 151.85 175.89 153.09 175.01
  L 159.13 170.74
  Q 159.92 170.18 159.93 171.15
  L 160.17 197.26
  A 0.61 0.60 76.2 0 0 161.05 197.80
  Q 167.08 194.73 170.25 188.84
  Q 170.51 188.37 170.49 187.82
  L 169.86 164.95
  A 1.09 1.08 69.9 0 1 170.27 164.06
  L 175.38 160.08
  Q 176.03 159.58 175.89 160.39
  Q 173.41 174.59 173.59 186.51
  Q 173.69 193.87 180.73 196.75
  A 1.11 1.09 -49.0 0 0 181.72 196.67
  L 184.14 195.20
  A 0.56 0.56 0.0 0 1 184.93 195.42
  C 191.79 208.63 210.32 188.42 209.57 186.81
  A 0.42 0.42 0.0 0 0 208.99 186.61
  C 204.30 189.05 200.39 192.49 195.72 187.50
  A 1.25 1.25 0.0 0 1 195.39 186.58
  L 195.88 178.19
  A 1.52 1.52 0.0 0 1 197.06 176.80
  L 213.18 173.21
  A 0.44 0.44 0.0 0 1 213.71 173.55
  L 219.33 200.23
  A 0.44 0.44 0.0 0 0 219.99 200.52
  C 224.60 197.73 229.97 193.12 228.62 187.17
  Q 226.85 179.42 225.02 171.63
  Q 224.61 169.89 225.87 168.64
  L 233.79 160.81
  A 0.46 0.46 0.0 0 0 233.64 160.06
  C 232.82 159.73 225.39 161.96 223.94 162.16
  A 0.55 0.54 -5.9 0 1 223.32 161.66
  L 222.05 143.29
  A 1.32 1.29 -25.6 0 1 222.41 142.30
  L 228.93 135.51
  Q 229.69 134.71 228.59 134.80
  Q 225.56 135.05 221.67 137.43
  C 203.83 148.34 191.59 163.09 186.48 183.17
  Q 186.04 184.89 185.14 183.36
  C 182.47 178.86 183.78 154.13 187.48 150.13
  C 192.87 144.31 198.23 140.36 201.15 132.27
  A 0.58 0.58 0.0 0 0 200.87 131.56
  C 190.76 126.44 179.80 146.78 177.94 154.16
  A 1.10 1.07 82.2 0 1 177.44 154.84
  L 170.80 158.83
  A 0.71 0.71 0.0 0 1 169.73 158.31
  Q 168.65 149.54 169.01 140.75
  Q 169.07 139.22 168.71 137.75
  L 177.41 129.46
  A 1.49 1.48 19.4 0 1 178.27 129.05
  C 182.10 128.60 192.34 116.58 194.37 113.09
  Q 198.11 106.61 204.44 102.40
  A 2.00 1.93 86.2 0 0 205.11 101.61
  Q 206.35 98.92 208.47 96.88
  A 1.32 1.30 22.1 0 1 209.36 96.51
  L 210.71 96.50
  C 210.48 99.60 209.29 109.63 213.05 110.88
  C 217.51 112.36 223.30 105.56 224.94 102.11
  Q 225.62 100.70 224.08 100.97
  C 218.54 101.94 220.95 87.39 221.04 84.75
  C 223.70 84.09 225.58 80.97 227.74 77.90
  A 1.02 1.01 15.6 0 1 228.51 77.47
  Q 229.39 77.41 229.62 76.54
  A 0.90 0.90 0.0 0 1 230.23 75.89
  Q 230.77 75.72 231.29 76.00
  C 229.41 86.57 229.99 96.82 230.01 107.23
  A 0.69 0.69 0.0 0 0 230.50 107.89
  C 234.08 109.03 242.05 100.71 244.66 97.49
  A 0.80 0.80 0.0 0 0 244.68 96.52
  Q 243.93 95.47 244.73 94.61
  A 0.57 0.57 0.0 0 1 245.57 94.61
  C 251.08 100.51 256.39 93.86 259.96 90.13
  Q 262.02 87.97 259.21 86.98
  Q 255.49 85.68 253.15 82.69
  A 0.99 0.98 -46.1 0 1 253.13 81.49
  L 267.11 62.60
  Q 267.62 61.91 267.49 62.76
  C 265.59 75.37 263.16 87.05 262.97 101.22
  C 262.92 104.75 263.43 107.46 266.08 109.54
  A 1.20 1.18 49.3 0 0 267.40 109.65
  Q 273.12 106.53 276.32 100.86
  A 0.57 0.57 0.0 0 0 276.20 100.15
  C 274.17 98.37 272.90 97.07 272.94 94.09
  Q 273.17 73.67 277.81 53.76
  Q 278.07 52.63 277.57 49.39
  A 0.36 0.36 0.0 0 0 277.04 49.13
  Q 272.49 51.62 268.32 56.58
  Q 257.42 69.54 251.28 78.12
  Q 250.99 78.53 250.79 78.07
  Q 247.16 69.65 245.09 61.20
  Q 252.14 57.39 255.89 50.50
  Q 256.98 48.50 258.51 47.29
  Q 266.24 41.18 273.36 34.41
  C 283.41 24.84 295.07 17.28 305.87 8.60
  Q 309.58 5.61 313.80 3.38
  C 315.27 2.60 324.07 1.11 324.11 0.97
  A 0.52 0.51 -75.3 0 0 323.75 0.34
  Q 323.33 0.24 323.06 0.00
  Z
  M 330.26 0.77
  C 328.19 0.38 326.67 0.35 325.39 2.18
  Q 325.01 2.72 325.67 2.65
  L 329.78 2.21
  A 0.77 0.76 1.5 0 0 330.44 1.59
  L 330.51 1.14
  A 0.33 0.32 -79.8 0 0 330.26 0.77
  Z
  M 374.50 50.80
  L 374.51 51.29
  A 1.28 1.25 66.2 0 1 374.18 52.17
  C 371.78 54.80 366.90 58.97 366.13 62.40
  Q 365.93 63.27 366.68 62.78
  L 370.47 60.24
  Q 371.08 59.83 370.77 60.50
  C 365.61 71.72 362.24 82.25 362.03 93.74
  C 361.74 109.06 382.83 109.05 391.23 101.98
  C 400.27 94.37 406.00 87.62 407.49 75.50
  C 408.59 66.47 409.14 56.22 403.44 49.06
  C 398.94 43.40 391.76 41.85 385.12 44.21
  Q 384.06 44.59 384.34 43.50
  C 385.63 38.54 379.96 39.85 377.57 40.33
  C 364.18 43.02 349.14 45.79 338.40 53.71
  Q 337.88 54.09 337.93 53.45
  Q 338.51 45.51 336.03 37.97
  A 0.98 0.96 -3.9 0 0 335.27 37.32
  Q 331.88 36.76 328.39 38.87
  C 314.07 47.57 310.13 59.56 311.20 75.72
  A 1.19 1.17 -26.8 0 1 310.90 76.60
  C 307.79 80.16 304.14 82.77 301.33 86.93
  C 297.05 93.25 296.01 100.85 302.18 106.19
  C 306.82 110.20 314.47 111.84 319.93 108.69
  C 333.24 101.02 335.98 82.12 337.92 69.04
  A 0.98 0.96 80.5 0 1 338.43 68.31
  L 348.21 63.12
  Q 348.68 62.87 348.63 63.40
  C 348.02 69.80 345.59 100.14 349.49 103.97
  Q 351.57 106.02 353.60 103.93
  L 360.28 97.09
  A 1.64 1.63 70.0 0 0 360.72 96.14
  Q 361.01 93.23 358.58 91.79
  A 1.25 1.22 9.1 0 1 358.00 91.01
  Q 357.47 88.79 357.46 86.50
  Q 357.40 71.23 358.51 56.00
  C 358.95 50.01 370.36 49.93 374.00 50.27
  A 0.54 0.54 0.0 0 1 374.50 50.80
  Z
  M 247.03 188.47
  C 245.87 173.07 247.06 156.35 246.98 141.73
  A 0.69 0.68 76.5 0 0 245.99 141.12
  C 240.11 144.03 236.95 147.72 237.03 154.50
  C 237.17 167.43 235.66 182.04 236.56 195.89
  A 1.13 1.11 -24.6 0 1 236.23 196.75
  C 232.55 200.39 226.47 206.26 226.98 211.83
  Q 227.18 213.95 229.20 213.29
  C 239.76 209.84 248.51 202.85 257.35 194.27
  A 1.23 1.23 0.0 0 1 258.22 193.91
  C 267.26 193.76 267.67 204.01 266.83 210.38
  A 0.89 0.89 0.0 0 1 265.49 211.02
  C 263.15 209.59 264.90 204.37 264.63 201.73
  A 0.34 0.34 0.0 0 0 264.13 201.46
  Q 255.51 206.05 254.01 215.62
  C 253.85 216.64 254.16 219.18 254.69 219.86
  Q 256.29 221.92 258.62 220.75
  C 266.51 216.80 276.82 208.65 277.18 199.21
  A 0.32 0.32 0.0 0 1 277.64 198.94
  C 283.90 202.09 291.00 202.37 296.91 198.16
  C 308.47 189.94 318.47 176.92 320.92 162.68
  Q 322.14 155.56 321.39 150.18
  C 319.99 140.18 309.64 134.04 300.36 133.93
  C 294.80 133.87 291.36 133.98 287.64 137.88
  Q 279.08 146.84 274.63 156.95
  A 0.15 0.15 0.0 0 1 274.39 157.01
  L 274.14 156.78
  A 0.75 0.75 0.0 0 1 273.89 156.18
  Q 274.51 146.08 273.65 136.01
  C 273.25 131.39 271.32 127.10 265.73 128.00
  C 256.91 129.43 243.51 131.99 239.86 141.59
  Q 239.68 142.07 240.17 141.93
  C 246.89 140.10 251.86 137.74 259.74 137.99
  A 1.61 1.61 0.0 0 1 260.64 138.31
  C 265.87 142.32 264.34 160.75 263.53 167.51
  Q 262.58 175.51 258.54 184.51
  A 0.88 0.87 -82.7 0 1 257.90 185.01
  Q 252.40 186.02 247.54 188.75
  A 0.35 0.34 73.5 0 1 247.03 188.47
  Z"
/>
<path fill="#dcdcdc" d="
  M 333.31 0.00
  L 430.06 0.00
  Q 430.42 2.61 429.61 5.17
  A 1.94 1.88 77.8 0 1 429.10 5.99
  C 426.60 8.26 429.72 10.47 427.88 12.01
  A 0.73 0.72 40.7 0 1 427.03 12.07
  C 425.32 11.04 426.36 8.85 426.68 7.35
  C 427.51 3.50 423.32 7.21 422.81 9.03
  A 1.02 1.00 -55.0 0 0 422.95 9.86
  Q 424.25 11.78 424.50 14.09
  A 1.59 1.57 -33.3 0 1 424.30 15.03
  L 422.13 18.89
  A 1.21 1.21 0.0 0 1 421.39 19.46
  C 417.10 20.57 416.86 25.16 411.72 23.77
  A 0.98 0.96 -56.8 0 0 410.85 23.96
  C 406.17 27.82 403.31 32.08 397.61 34.82
  A 0.35 0.35 0.0 0 1 397.11 34.54
  Q 396.83 31.68 397.78 29.08
  A 0.45 0.44 -69.1 0 0 397.53 28.51
  C 396.07 27.93 394.04 34.75 392.33 34.43
  A 1.46 1.43 -53.2 0 0 391.43 34.57
  L 384.36 38.26
  Q 381.92 39.54 382.55 36.85
  L 383.51 32.77
  Q 384.05 30.45 381.84 31.33
  C 378.36 32.71 373.67 34.02 370.54 30.82
  Q 369.97 30.23 370.79 30.24
  L 372.06 30.26
  A 0.62 0.62 0.0 0 0 372.63 29.37
  L 370.79 25.51
  Q 369.75 23.32 368.64 25.47
  Q 367.75 27.19 365.71 27.42
  A 0.52 0.52 0.0 0 0 365.24 27.95
  L 365.25 28.33
  A 0.48 0.48 0.0 0 0 365.84 28.79
  L 367.27 28.46
  A 0.32 0.32 0.0 0 1 367.65 28.84
  C 367.07 31.72 364.46 33.75 362.07 30.98
  Q 361.73 30.59 361.25 30.40
  L 342.94 23.36
  Q 340.67 22.48 341.01 20.07
  Q 341.64 15.62 345.89 15.66
  A 1.07 1.05 69.1 0 1 346.69 16.03
  Q 347.51 16.99 346.79 18.41
  A 0.36 0.35 23.7 0 0 346.99 18.91
  L 347.33 19.03
  A 0.39 0.39 0.0 0 0 347.84 18.72
  L 348.28 15.71
  A 0.61 0.61 0.0 0 0 347.64 15.01
  L 342.31 15.39
  A 1.48 1.48 0.0 0 1 341.38 15.13
  L 339.10 13.50
  A 1.09 1.09 0.0 0 1 338.64 12.49
  Q 339.32 6.44 336.42 1.21
  A 0.89 0.87 74.5 0 0 335.64 0.76
  L 332.78 0.80
  Q 331.79 0.81 332.66 0.35
  L 333.31 0.00
  Z
  M 413.0642 21.1444
  A 1.36 1.21 -5.3 0 0 411.5982 20.0652
  A 1.36 1.21 -5.3 0 0 410.3558 21.3956
  A 1.36 1.21 -5.3 0 0 411.8218 22.4748
  A 1.36 1.21 -5.3 0 0 413.0642 21.1444
  Z"
/>
<path fill="#dcdcdc" d="
  M 325.39 2.18
  C 326.67 0.35 328.19 0.38 330.26 0.77
  A 0.33 0.32 -79.8 0 1 330.51 1.14
  L 330.44 1.59
  A 0.77 0.76 1.5 0 1 329.78 2.21
  L 325.67 2.65
  Q 325.01 2.72 325.39 2.18
  Z"
/>
<path fill="#020202" d="
  M 131.46 64.75
  L 125.75 71.71
  L 120.70 75.60
  A 0.42 0.42 0.0 0 1 120.07 75.45
  Q 119.56 74.38 120.16 73.64
  Q 125.86 66.60 126.78 58.60
  C 127.13 55.62 127.80 53.36 124.00 53.07
  C 115.25 52.40 111.96 58.98 108.51 65.64
  Q 100.36 81.36 104.28 99.19
  Q 110.83 103.95 117.79 104.36
  C 125.61 104.81 130.02 89.43 130.96 82.75
  L 130.84 77.62
  C 130.96 72.94 130.72 69.93 132.71 65.50
  C 139.70 54.40 150.72 44.77 163.75 41.71
  Q 165.49 41.23 166.77 42.40
  A 0.74 0.73 -53.0 0 1 166.90 43.33
  Q 163.59 48.71 158.70 52.71
  A 1.24 1.24 0.0 0 1 157.21 52.77
  Q 155.42 51.53 153.00 52.29
  C 147.95 53.12 140.73 57.04 141.00 63.00
  A 0.54 0.54 0.0 0 0 141.55 63.52
  L 142.79 63.50
  Q 143.25 66.51 142.27 69.59
  Q 142.10 70.11 142.58 69.86
  Q 148.81 66.67 155.69 65.44
  Q 156.35 65.32 155.99 65.89
  C 153.62 69.59 147.50 76.18 142.90 76.37
  A 1.91 1.91 0.0 0 0 141.07 78.27
  L 140.97 94.50
  A 0.50 0.50 0.0 0 0 141.63 94.98
  Q 150.33 91.94 158.12 87.15
  Q 158.60 86.86 158.79 87.10
  A 1.10 1.09 45.9 0 1 158.77 88.48
  Q 151.69 96.99 141.85 101.22
  C 138.45 102.69 132.04 106.78 128.48 105.82
  A 0.66 0.64 7.3 0 1 128.00 105.21
  L 127.99 104.43
  A 1.35 1.32 66.3 0 1 128.34 103.50
  Q 130.13 101.58 130.86 99.09
  Q 131.15 98.07 130.44 98.85
  C 120.98 109.22 113.99 119.13 98.04 111.25
  C 91.50 107.22 94.04 103.57 92.63 97.44
  Q 92.52 96.94 92.26 97.39
  Q 86.02 108.45 77.27 113.76
  C 73.26 116.20 63.20 116.74 64.03 108.93
  Q 64.18 107.51 63.14 108.49
  C 55.58 115.60 48.38 121.68 38.15 115.73
  C 32.24 112.30 28.07 104.68 27.50 98.00
  C 24.90 67.45 29.44 31.19 57.36 12.83
  Q 59.22 11.60 61.43 11.28
  Q 67.97 10.33 74.49 9.90
  C 79.91 9.54 79.91 13.10 80.12 17.49
  C 80.63 28.07 79.09 38.37 68.78 43.48
  Q 66.36 44.67 66.16 41.98
  Q 65.80 37.13 66.13 32.60
  C 66.40 28.86 73.97 23.06 67.43 20.21
  C 38.55 7.62 36.49 68.70 36.80 82.44
  C 37.10 95.62 42.42 108.95 58.23 108.03
  A 1.48 1.47 -67.0 0 0 59.11 107.67
  C 62.08 105.05 63.44 102.21 63.70 97.99
  C 64.52 84.97 66.51 64.60 74.30 54.56
  C 77.81 50.04 83.04 45.27 89.25 45.95
  C 96.84 46.79 99.71 51.58 100.22 58.98
  C 100.35 60.77 99.87 69.30 100.25 69.71
  A 0.41 0.41 0.0 0 0 100.92 69.64
  Q 109.44 53.90 124.77 45.00
  C 128.12 43.06 131.01 42.91 134.69 43.46
  Q 137.07 43.83 137.07 46.24
  Q 137.06 55.96 131.46 64.75
  Z
  M 89.99 66.16
  C 89.59 60.91 87.30 56.96 81.70 56.13
  A 0.53 0.52 5.9 0 0 81.09 56.62
  Q 80.29 72.45 75.81 87.56
  C 74.29 92.70 75.11 98.55 75.28 103.84
  A 0.83 0.82 5.4 0 0 75.93 104.62
  L 80.31 105.57
  Q 82.33 106.01 83.33 104.20
  C 89.86 92.33 91.01 79.44 89.99 66.16
  Z"
/>
<ellipse fill="#ffffff" cx="0.00" cy="0.00" transform="translate(411.71,21.27) rotate(-5.3)" rx="1.36" ry="1.21"/>
<path fill="#020202" d="
  M 374.00 50.27
  C 370.36 49.93 358.95 50.01 358.51 56.00
  Q 357.40 71.23 357.46 86.50
  Q 357.47 88.79 358.00 91.01
  A 1.25 1.22 9.1 0 0 358.58 91.79
  Q 361.01 93.23 360.72 96.14
  A 1.64 1.63 70.0 0 1 360.28 97.09
  L 353.60 103.93
  Q 351.57 106.02 349.49 103.97
  C 345.59 100.14 348.02 69.80 348.63 63.40
  Q 348.68 62.87 348.21 63.12
  L 338.43 68.31
  A 0.98 0.96 80.5 0 0 337.92 69.04
  C 335.98 82.12 333.24 101.02 319.93 108.69
  C 314.47 111.84 306.82 110.20 302.18 106.19
  C 296.01 100.85 297.05 93.25 301.33 86.93
  C 304.14 82.77 307.79 80.16 310.90 76.60
  A 1.19 1.17 -26.8 0 0 311.20 75.72
  C 310.13 59.56 314.07 47.57 328.39 38.87
  Q 331.88 36.76 335.27 37.32
  A 0.98 0.96 -3.9 0 1 336.03 37.97
  Q 338.51 45.51 337.93 53.45
  Q 337.88 54.09 338.40 53.71
  C 349.14 45.79 364.18 43.02 377.57 40.33
  C 379.96 39.85 385.63 38.54 384.34 43.50
  Q 384.06 44.59 385.12 44.21
  C 391.76 41.85 398.94 43.40 403.44 49.06
  C 409.14 56.22 408.59 66.47 407.49 75.50
  C 406.00 87.62 400.27 94.37 391.23 101.98
  C 382.83 109.05 361.74 109.06 362.03 93.74
  C 362.24 82.25 365.61 71.72 370.77 60.50
  Q 371.08 59.83 370.47 60.24
  L 366.68 62.78
  Q 365.93 63.27 366.13 62.40
  C 366.90 58.97 371.78 54.80 374.18 52.17
  A 1.28 1.25 66.2 0 0 374.51 51.29
  L 374.50 50.80
  A 0.54 0.54 0.0 0 0 374.00 50.27
  Z
  M 325.50 46.98
  C 320.47 45.03 321.02 67.07 321.18 69.52
  A 0.46 0.46 0.0 0 0 321.79 69.92
  Q 324.81 68.88 327.41 67.08
  A 1.15 1.15 0.0 0 0 327.90 66.20
  Q 328.49 56.80 326.16 47.72
  A 1.08 1.08 0.0 0 0 325.50 46.98
  Z
  M 379.95 53.90
  C 375.65 63.78 372.21 74.00 371.94 84.88
  C 371.80 90.50 374.88 94.40 380.16 95.71
  C 384.42 96.76 389.55 97.30 393.77 95.48
  A 1.41 1.39 1.6 0 0 394.47 94.83
  Q 396.46 90.89 397.27 85.01
  C 399.05 72.10 398.99 52.78 380.73 53.38
  A 0.87 0.86 11.0 0 0 379.95 53.90
  Z
  M 351.62 54.09
  L 338.67 58.38
  A 0.98 0.98 0.0 0 0 337.99 59.31
  L 338.00 61.99
  A 0.43 0.42 79.3 0 0 338.58 62.39
  Q 345.57 59.66 351.94 55.67
  A 0.69 0.69 0.0 0 0 352.20 54.79
  L 351.94 54.23
  A 0.27 0.26 68.4 0 0 351.62 54.09
  Z
  M 308.77 83.88
  C 305.53 92.64 313.33 100.84 322.04 99.91
  A 0.89 0.88 9.2 0 0 322.76 99.40
  C 325.90 92.75 327.09 82.53 328.09 75.08
  A 0.97 0.97 0.0 0 0 326.76 74.05
  Q 318.43 77.47 310.56 81.81
  A 3.92 3.91 85.9 0 0 308.77 83.88
  Z"
/>
<ellipse fill="#dcdcdc" cx="0.00" cy="0.00" transform="translate(153.72,42.43) rotate(-41.2)" rx="3.24" ry="0.52"/>
<path fill="#020202" d="
  M 221.04 84.75
  C 220.95 87.39 218.54 101.94 224.08 100.97
  Q 225.62 100.70 224.94 102.11
  C 223.30 105.56 217.51 112.36 213.05 110.88
  C 209.29 109.63 210.48 99.60 210.71 96.50
  L 211.22 88.57
  Q 211.32 86.96 210.22 88.14
  Q 201.95 96.99 192.38 104.44
  A 0.97 0.94 69.5 0 0 192.02 105.27
  C 192.31 109.17 192.14 112.43 189.67 115.71
  C 187.02 119.23 181.26 125.65 176.66 126.03
  A 1.62 1.60 -5.3 0 1 174.92 124.60
  Q 173.85 114.74 180.22 107.43
  A 1.05 1.05 0.0 0 0 180.45 106.49
  C 179.22 101.42 174.37 98.43 170.44 103.55
  C 166.76 108.36 162.15 110.51 157.38 114.02
  Q 154.64 116.03 151.37 117.27
  A 0.91 0.90 -20.1 0 1 150.20 116.73
  C 148.33 111.59 156.21 104.14 159.71 100.99
  A 3.39 3.38 69.9 0 0 160.82 98.60
  L 161.94 61.41
  A 0.61 0.61 0.0 0 0 161.35 60.78
  L 160.60 60.75
  A 0.48 0.48 0.0 0 1 160.15 60.21
  C 160.65 55.92 169.80 48.98 173.29 46.66
  C 178.34 43.30 181.60 41.11 187.16 41.52
  A 0.72 0.70 -0.4 0 1 187.81 42.15
  C 189.58 59.75 184.29 75.00 176.22 90.50
  A 0.34 0.34 0.0 0 0 176.52 91.00
  L 184.69 91.01
  Q 187.01 91.01 188.33 92.91
  Q 190.50 96.03 191.26 99.76
  A 0.62 0.62 0.0 0 0 192.21 100.14
  C 197.83 96.38 209.58 87.39 212.03 81.19
  Q 212.76 79.37 210.86 79.89
  C 203.58 81.91 195.75 85.53 188.07 85.16
  A 1.08 1.08 0.0 0 1 187.10 83.71
  Q 192.74 68.20 206.91 59.91
  A 0.41 0.40 -21.4 0 1 207.51 60.17
  Q 208.08 62.60 206.17 64.18
  C 201.69 67.89 198.34 70.13 197.29 74.94
  A 0.47 0.47 0.0 0 0 197.76 75.51
  Q 205.29 75.38 212.00 71.95
  A 1.08 1.06 -10.4 0 0 212.57 71.14
  Q 213.38 64.04 212.99 59.77
  C 212.58 55.31 218.09 50.42 222.32 48.59
  A 0.37 0.37 0.0 0 1 222.83 48.90
  Q 223.25 53.62 223.01 56.00
  Q 221.60 70.35 221.04 84.75
  Z
  M 172.18 52.76
  C 171.86 56.74 170.43 86.61 171.22 86.94
  A 0.46 0.46 0.0 0 0 171.83 86.68
  C 176.50 74.48 179.13 64.61 177.90 51.80
  A 0.63 0.62 82.1 0 0 177.16 51.24
  L 172.73 52.13
  A 0.70 0.68 86.8 0 0 172.18 52.76
  Z
  M 160.4624 107.1300
  A 1.46 0.49 90.3 0 0 160.9600 105.6726
  A 1.46 0.49 90.3 0 0 160.4776 104.2100
  A 1.46 0.49 90.3 0 0 159.9800 105.6674
  A 1.46 0.49 90.3 0 0 160.4624 107.1300
  Z"
/>
<path fill="#ffffff" d="
  M 321.18 69.52
  C 321.02 67.07 320.47 45.03 325.50 46.98
  A 1.08 1.08 0.0 0 1 326.16 47.72
  Q 328.49 56.80 327.90 66.20
  A 1.15 1.15 0.0 0 1 327.41 67.08
  Q 324.81 68.88 321.79 69.92
  A 0.46 0.46 0.0 0 1 321.18 69.52
  Z"
/>
<path fill="#020202" d="
  M 245.09 61.20
  Q 247.16 69.65 250.79 78.07
  Q 250.99 78.53 251.28 78.12
  Q 257.42 69.54 268.32 56.58
  Q 272.49 51.62 277.04 49.13
  A 0.36 0.36 0.0 0 1 277.57 49.39
  Q 278.07 52.63 277.81 53.76
  Q 273.17 73.67 272.94 94.09
  C 272.90 97.07 274.17 98.37 276.20 100.15
  A 0.57 0.57 0.0 0 1 276.32 100.86
  Q 273.12 106.53 267.40 109.65
  A 1.20 1.18 49.3 0 1 266.08 109.54
  C 263.43 107.46 262.92 104.75 262.97 101.22
  C 263.16 87.05 265.59 75.37 267.49 62.76
  Q 267.62 61.91 267.11 62.60
  L 253.13 81.49
  A 0.99 0.98 -46.1 0 0 253.15 82.69
  Q 255.49 85.68 259.21 86.98
  Q 262.02 87.97 259.96 90.13
  C 256.39 93.86 251.08 100.51 245.57 94.61
  A 0.57 0.57 0.0 0 0 244.73 94.61
  Q 243.93 95.47 244.68 96.52
  A 0.80 0.80 0.0 0 1 244.66 97.49
  C 242.05 100.71 234.08 109.03 230.50 107.89
  A 0.69 0.69 0.0 0 1 230.01 107.23
  C 229.99 96.82 229.41 86.57 231.29 76.00
  L 233.35 66.63
  A 1.72 1.71 39.8 0 0 233.25 65.58
  L 231.24 61.03
  Q 230.20 58.67 231.86 56.69
  C 233.23 55.06 238.20 49.47 240.27 49.85
  A 0.73 0.72 0.6 0 1 240.86 50.45
  L 241.03 51.43
  A 0.35 0.35 0.0 0 0 241.59 51.65
  L 246.28 48.05
  Q 247.75 46.91 247.04 48.63
  C 245.46 52.40 243.05 57.14 245.09 61.20
  Z
  M 241.64 91.80
  Q 242.29 89.36 240.70 87.26
  Q 240.01 86.35 240.00 87.49
  L 239.98 91.78
  Q 239.95 98.08 241.64 91.80
  Z"
/>
<path fill="#dcdcdc" d="
  M 171.22 86.94
  C 170.43 86.61 171.86 56.74 172.18 52.76
  A 0.70 0.68 86.8 0 1 172.73 52.13
  L 177.16 51.24
  A 0.63 0.62 82.1 0 1 177.90 51.80
  C 179.13 64.61 176.50 74.48 171.83 86.68
  A 0.46 0.46 0.0 0 1 171.22 86.94
  Z"
/>
<path fill="#ffffff" d="
  M 153.00 52.29
  L 153.00 52.86
  A 1.03 1.01 -22.8 0 1 152.70 53.58
  Q 148.13 58.10 144.78 63.57
  A 1.06 1.05 -75.7 0 1 143.94 64.07
  Q 143.22 64.11 142.79 63.50
  L 141.55 63.52
  A 0.54 0.54 0.0 0 1 141.00 63.00
  C 140.73 57.04 147.95 53.12 153.00 52.29
  Z"
/>
<path fill="#ffffff" d="
  M 125.75 71.71
  Q 126.95 72.97 125.70 74.21
  Q 121.02 78.85 117.28 84.31
  A 1.67 1.58 4.5 0 1 116.55 84.90
  C 114.32 85.81 108.69 94.69 107.04 97.05
  Q 106.78 98.17 104.28 99.19
  Q 100.36 81.36 108.51 65.64
  C 111.96 58.98 115.25 52.40 124.00 53.07
  C 127.80 53.36 127.13 55.62 126.78 58.60
  Q 125.86 66.60 120.16 73.64
  Q 119.56 74.38 120.07 75.45
  A 0.42 0.42 0.0 0 0 120.70 75.60
  L 125.75 71.71
  Z"
/>
<path fill="#ffffff" d="
  M 379.95 53.90
  A 0.87 0.86 11.0 0 1 380.73 53.38
  C 398.99 52.78 399.05 72.10 397.27 85.01
  Q 396.46 90.89 394.47 94.83
  A 1.41 1.39 1.6 0 1 393.77 95.48
  C 389.55 97.30 384.42 96.76 380.16 95.71
  C 374.88 94.40 371.80 90.50 371.94 84.88
  C 372.21 74.00 375.65 63.78 379.95 53.90
  Z"
/>
<path fill="#ffffff" d="
  M 351.62 54.09
  A 0.27 0.26 68.4 0 1 351.94 54.23
  L 352.20 54.79
  A 0.69 0.69 0.0 0 1 351.94 55.67
  Q 345.57 59.66 338.58 62.39
  A 0.43 0.42 79.3 0 1 338.00 61.99
  L 337.99 59.31
  A 0.98 0.98 0.0 0 1 338.67 58.38
  L 351.62 54.09
  Z"
/>
<path fill="#ffffff" d="
  M 81.70 56.13
  C 87.30 56.96 89.59 60.91 89.99 66.16
  C 91.01 79.44 89.86 92.33 83.33 104.20
  Q 82.33 106.01 80.31 105.57
  L 75.93 104.62
  A 0.83 0.82 5.4 0 1 75.28 103.84
  C 75.11 98.55 74.29 92.70 75.81 87.56
  Q 80.29 72.45 81.09 56.62
  A 0.53 0.52 5.9 0 1 81.70 56.13
  Z"
/>
<path fill="#dcdcdc" d="
  M 131.46 64.75
  L 131.51 65.09
  A 0.44 0.43 -2.4 0 0 131.92 65.46
  L 132.71 65.50
  C 130.72 69.93 130.96 72.94 130.84 77.62
  C 128.09 80.72 125.19 84.74 123.96 88.71
  Q 123.71 89.54 124.39 89.01
  Q 128.06 86.21 130.96 82.75
  C 130.02 89.43 125.61 104.81 117.79 104.36
  Q 110.83 103.95 104.28 99.19
  Q 106.78 98.17 107.04 97.05
  C 108.69 94.69 114.32 85.81 116.55 84.90
  A 1.67 1.58 4.5 0 0 117.28 84.31
  Q 121.02 78.85 125.70 74.21
  Q 126.95 72.97 125.75 71.71
  L 131.46 64.75
  Z"
/>
<path fill="#ffffff" d="
  M 308.77 83.88
  A 3.92 3.91 85.9 0 1 310.56 81.81
  Q 318.43 77.47 326.76 74.05
  A 0.97 0.97 0.0 0 1 328.09 75.08
  C 327.09 82.53 325.90 92.75 322.76 99.40
  A 0.89 0.88 9.2 0 1 322.04 99.91
  C 313.33 100.84 305.53 92.64 308.77 83.88
  Z"
/>
<path fill="#ffffff" d="
  M 130.84 77.62
  L 130.96 82.75
  Q 128.06 86.21 124.39 89.01
  Q 123.71 89.54 123.96 88.71
  C 125.19 84.74 128.09 80.72 130.84 77.62
  Z"
/>
<path fill="#ffffff" d="
  M 241.64 91.80
  Q 239.95 98.08 239.98 91.78
  L 240.00 87.49
  Q 240.01 86.35 240.70 87.26
  Q 242.29 89.36 241.64 91.80
  Z"
/>
<ellipse fill="#dcdcdc" cx="0.00" cy="0.00" transform="translate(160.47,105.67) rotate(90.3)" rx="1.46" ry="0.49"/>
<path fill="#020202" d="
  M 247.54 188.75
  Q 252.40 186.02 257.90 185.01
  A 0.88 0.87 -82.7 0 0 258.54 184.51
  Q 262.58 175.51 263.53 167.51
  C 264.34 160.75 265.87 142.32 260.64 138.31
  A 1.61 1.61 0.0 0 0 259.74 137.99
  C 251.86 137.74 246.89 140.10 240.17 141.93
  Q 239.68 142.07 239.86 141.59
  C 243.51 131.99 256.91 129.43 265.73 128.00
  C 271.32 127.10 273.25 131.39 273.65 136.01
  Q 274.51 146.08 273.89 156.18
  A 0.75 0.75 0.0 0 0 274.14 156.78
  L 274.39 157.01
  A 0.15 0.15 0.0 0 0 274.63 156.95
  Q 279.08 146.84 287.64 137.88
  C 291.36 133.98 294.80 133.87 300.36 133.93
  C 309.64 134.04 319.99 140.18 321.39 150.18
  Q 322.14 155.56 320.92 162.68
  C 318.47 176.92 308.47 189.94 296.91 198.16
  C 291.00 202.37 283.90 202.09 277.64 198.94
  A 0.32 0.32 0.0 0 0 277.18 199.21
  C 276.82 208.65 266.51 216.80 258.62 220.75
  Q 256.29 221.92 254.69 219.86
  C 254.16 219.18 253.85 216.64 254.01 215.62
  Q 255.51 206.05 264.13 201.46
  A 0.34 0.34 0.0 0 1 264.63 201.73
  C 264.90 204.37 263.15 209.59 265.49 211.02
  A 0.89 0.89 0.0 0 0 266.83 210.38
  C 267.67 204.01 267.26 193.76 258.22 193.91
  A 1.23 1.23 0.0 0 0 257.35 194.27
  C 248.51 202.85 239.76 209.84 229.20 213.29
  Q 227.18 213.95 226.98 211.83
  C 226.47 206.26 232.55 200.39 236.23 196.75
  A 1.13 1.11 -24.6 0 0 236.56 195.89
  C 235.66 182.04 237.17 167.43 237.03 154.50
  C 236.95 147.72 240.11 144.03 245.99 141.12
  A 0.69 0.68 76.5 0 1 246.98 141.73
  C 247.06 156.35 245.87 173.07 247.03 188.47
  A 0.35 0.34 73.5 0 0 247.54 188.75
  Z
  M 289.07 143.78
  Q 283.03 162.25 283.97 181.31
  C 284.41 190.37 291.54 192.09 299.23 191.07
  C 302.29 190.67 303.78 188.65 305.24 186.22
  Q 313.06 173.23 310.97 157.99
  C 309.66 148.49 297.67 143.41 289.34 143.58
  A 0.30 0.28 -79.8 0 0 289.07 143.78
  Z
  M 268.69 175.94
  Q 267.31 177.68 264.45 184.31
  Q 264.20 184.89 264.82 184.75
  Q 269.34 183.75 273.44 185.66
  A 0.37 0.37 0.0 0 0 273.96 185.32
  L 274.08 172.26
  Q 274.09 171.83 273.73 172.07
  Q 269.42 175.01 268.69 175.94
  Z
  M 251.50 195.00
  C 245.07 193.64 243.48 202.27 238.90 201.95
  A 0.77 0.75 -10.5 0 1 238.26 201.52
  L 237.76 200.49
  Q 236.65 198.21 236.96 200.73
  L 237.19 202.55
  A 1.05 1.03 76.6 0 0 238.57 203.41
  Q 246.11 200.68 252.09 195.33
  A 0.31 0.31 0.0 0 0 252.01 194.81
  Q 251.73 194.67 251.50 195.00
  Z"
/>
<path fill="#020202" d="
  M 135.00 180.12
  Q 134.96 183.27 132.96 184.75
  C 125.26 192.58 105.56 202.43 94.99 200.03
  Q 93.76 199.75 93.72 198.19
  A 1.06 1.06 0.0 0 0 93.33 197.39
  C 91.18 195.63 92.08 188.31 91.81 185.24
  Q 91.76 184.59 91.45 185.17
  Q 87.44 192.70 79.93 196.88
  Q 78.28 197.80 76.88 196.53
  C 70.20 190.46 71.81 177.01 71.99 166.51
  A 0.38 0.37 82.6 0 0 71.52 166.14
  Q 67.23 167.35 64.37 169.42
  C 61.94 169.70 62.02 170.42 61.99 172.20
  Q 61.83 181.10 62.29 190.00
  C 61.72 194.75 58.78 197.33 55.25 200.21
  Q 54.13 201.15 53.29 201.21
  A 1.19 1.19 0.0 0 1 52.02 200.02
  L 51.99 173.75
  A 0.82 0.82 0.0 0 0 50.99 172.95
  Q 49.49 173.29 48.28 172.54
  A 0.58 0.58 0.0 0 1 48.11 171.70
  L 51.74 166.64
  A 1.64 1.58 -29.2 0 0 52.04 165.65
  C 51.93 161.21 50.96 151.35 53.39 147.73
  Q 56.34 143.34 61.23 140.97
  A 0.54 0.53 -12.9 0 1 62.00 141.45
  L 62.00 162.04
  A 0.42 0.42 0.0 0 0 62.52 162.45
  L 70.17 160.50
  Q 72.56 159.90 72.40 157.43
  Q 71.10 137.81 88.94 131.47
  C 98.62 138.99 87.77 151.56 82.35 157.41
  A 1.37 1.31 68.8 0 0 81.99 158.28
  C 81.63 166.25 81.24 177.36 84.07 184.83
  Q 84.24 185.29 84.43 184.83
  C 88.05 176.32 89.61 165.64 91.20 156.52
  Q 91.72 153.54 93.14 151.31
  C 99.66 141.09 114.29 126.69 127.81 129.03
  A 2.55 2.54 -6.5 0 1 129.71 130.54
  C 132.30 136.60 125.48 141.31 121.54 144.81
  Q 120.52 145.72 120.38 144.36
  L 119.85 139.49
  A 0.92 0.90 90.0 0 0 119.05 138.68
  C 113.52 138.09 102.50 139.90 102.01 147.24
  Q 101.45 155.47 102.11 162.96
  A 0.96 0.96 0.0 0 0 103.37 163.78
  L 121.12 157.81
  A 1.17 1.17 0.0 0 1 122.66 158.82
  L 122.79 160.29
  A 1.43 1.42 -30.4 0 1 122.54 161.24
  Q 116.17 170.37 108.94 178.84
  C 106.56 181.63 104.85 184.46 103.91 187.65
  Q 103.19 190.09 105.71 190.39
  Q 110.11 190.91 114.20 189.57
  Q 125.13 185.99 135.00 180.12
  Z
  M 102.00 181.36
  A 0.32 0.32 0.0 0 0 102.57 181.56
  L 113.56 168.01
  A 0.32 0.32 0.0 0 0 113.22 167.51
  L 102.22 171.11
  A 0.32 0.32 0.0 0 0 102.00 171.41
  L 102.00 181.36
  Z"
/>
<path fill="#020202" d="
  M 158.89 161.67
  L 158.69 147.81
  A 4.09 4.05 62.7 0 1 159.44 145.42
  Q 163.36 139.93 168.71 137.75
  Q 169.07 139.22 169.01 140.75
  Q 168.65 149.54 169.73 158.31
  A 0.71 0.71 0.0 0 0 170.80 158.83
  L 177.44 154.84
  A 1.10 1.07 82.2 0 0 177.94 154.16
  C 179.80 146.78 190.76 126.44 200.87 131.56
  A 0.58 0.58 0.0 0 1 201.15 132.27
  C 198.23 140.36 192.87 144.31 187.48 150.13
  C 183.78 154.13 182.47 178.86 185.14 183.36
  Q 186.04 184.89 186.48 183.17
  C 191.59 163.09 203.83 148.34 221.67 137.43
  Q 225.56 135.05 228.59 134.80
  Q 229.69 134.71 228.93 135.51
  L 222.41 142.30
  A 1.32 1.29 -25.6 0 0 222.05 143.29
  L 223.32 161.66
  A 0.55 0.54 -5.9 0 0 223.94 162.16
  C 225.39 161.96 232.82 159.73 233.64 160.06
  A 0.46 0.46 0.0 0 1 233.79 160.81
  L 225.87 168.64
  Q 224.61 169.89 225.02 171.63
  Q 226.85 179.42 228.62 187.17
  C 229.97 193.12 224.60 197.73 219.99 200.52
  A 0.44 0.44 0.0 0 1 219.33 200.23
  L 213.71 173.55
  A 0.44 0.44 0.0 0 0 213.18 173.21
  L 197.06 176.80
  A 1.52 1.52 0.0 0 0 195.88 178.19
  L 195.39 186.58
  A 1.25 1.25 0.0 0 0 195.72 187.50
  C 200.39 192.49 204.30 189.05 208.99 186.61
  A 0.42 0.42 0.0 0 1 209.57 186.81
  C 210.32 188.42 191.79 208.63 184.93 195.42
  A 0.56 0.56 0.0 0 0 184.14 195.20
  L 181.72 196.67
  A 1.11 1.09 -49.0 0 1 180.73 196.75
  Q 173.69 193.87 173.59 186.51
  Q 173.41 174.59 175.89 160.39
  Q 176.03 159.58 175.38 160.08
  L 170.27 164.06
  A 1.09 1.08 69.9 0 0 169.86 164.95
  L 170.49 187.82
  Q 170.51 188.37 170.25 188.84
  Q 167.08 194.73 161.05 197.80
  A 0.61 0.60 76.2 0 1 160.17 197.26
  L 159.93 171.15
  Q 159.92 170.18 159.13 170.74
  L 153.09 175.01
  Q 151.85 175.89 152.29 174.43
  C 153.12 171.69 156.79 168.90 158.75 166.78
  A 1.26 1.20 -25.7 0 0 159.08 165.90
  L 158.89 161.67
  Z
  M 190.36 140.85
  C 188.97 141.43 188.33 143.66 188.05 145.05
  Q 187.77 146.49 188.57 145.26
  L 190.97 141.59
  Q 191.88 140.21 190.36 140.85
  Z
  M 211.35 148.95
  C 205.38 152.38 200.77 161.15 199.04 167.11
  A 0.45 0.44 3.3 0 0 199.54 167.67
  L 212.14 165.75
  A 0.70 0.69 -6.4 0 0 212.73 165.02
  L 211.83 149.21
  A 0.32 0.32 0.0 0 0 211.35 148.95
  Z"
/>
<path fill="#ffffff" d="
  M 188.05 145.05
  C 188.33 143.66 188.97 141.43 190.36 140.85
  Q 191.88 140.21 190.97 141.59
  L 188.57 145.26
  Q 187.77 146.49 188.05 145.05
  Z"
/>
<path fill="#ffffff" d="
  M 289.07 143.78
  A 0.30 0.28 -79.8 0 1 289.34 143.58
  C 297.67 143.41 309.66 148.49 310.97 157.99
  Q 313.06 173.23 305.24 186.22
  C 303.78 188.65 302.29 190.67 299.23 191.07
  C 291.54 192.09 284.41 190.37 283.97 181.31
  Q 283.03 162.25 289.07 143.78
  Z"
/>
<path fill="#ffffff" d="
  M 199.04 167.11
  C 200.77 161.15 205.38 152.38 211.35 148.95
  A 0.32 0.32 0.0 0 1 211.83 149.21
  L 212.73 165.02
  A 0.70 0.69 -6.4 0 1 212.14 165.75
  L 199.54 167.67
  A 0.45 0.44 3.3 0 1 199.04 167.11
  Z"
/>
<path fill="#ffffff" d="
  M 132.96 184.75
  Q 134.96 183.27 135.00 180.12
  Q 137.97 173.57 140.13 170.40
  Q 142.56 166.81 146.31 164.70
  Q 147.67 163.94 146.93 165.31
  C 145.47 168.01 132.44 194.56 131.30 194.50
  A 0.38 0.37 -82.2 0 1 130.96 194.04
  C 131.73 190.82 135.07 187.94 132.96 184.75
  Z"
/>
<path fill="#dcdcdc" d="
  M 102.00 181.36
  L 102.00 171.41
  A 0.32 0.32 0.0 0 1 102.22 171.11
  L 113.22 167.51
  A 0.32 0.32 0.0 0 1 113.56 168.01
  L 102.57 181.56
  A 0.32 0.32 0.0 0 1 102.00 181.36
  Z"
/>
<path fill="#ffffff" d="
  M 64.37 169.42
  Q 66.17 179.83 63.77 189.26
  Q 63.53 190.20 62.29 190.00
  Q 61.83 181.10 61.99 172.20
  C 62.02 170.42 61.94 169.70 64.37 169.42
  Z"
/>
<path fill="#ffffff" d="
  M 268.69 175.94
  Q 269.42 175.01 273.73 172.07
  Q 274.09 171.83 274.08 172.26
  L 273.96 185.32
  A 0.37 0.37 0.0 0 1 273.44 185.66
  Q 269.34 183.75 264.82 184.75
  Q 264.20 184.89 264.45 184.31
  Q 267.31 177.68 268.69 175.94
  Z"
/>
<path fill="#ffffff" d="
  M 61.25 205.55
  C 60.91 204.82 66.52 189.56 67.97 190.25
  A 1.44 1.44 0.0 0 1 68.67 192.12
  C 66.90 196.22 64.90 202.93 61.90 205.68
  A 0.41 0.41 0.0 0 1 61.25 205.55
  Z"
/>
<path fill="#ffffff" d="
  M 251.50 195.00
  Q 251.73 194.67 252.01 194.81
  A 0.31 0.31 0.0 0 1 252.09 195.33
  Q 246.11 200.68 238.57 203.41
  A 1.05 1.03 76.6 0 1 237.19 202.55
  L 236.96 200.73
  Q 236.65 198.21 237.76 200.49
  L 238.26 201.52
  A 0.77 0.75 -10.5 0 0 238.90 201.95
  C 243.48 202.27 245.07 193.64 251.50 195.00
  Z"
/>
</svg>
