<?xml version="1.0" encoding="UTF-8" standalone="no"?>
<!-- Created with Inkscape (http://www.inkscape.org/) -->

<svg
   xmlns:dc="http://purl.org/dc/elements/1.1/"
   xmlns:cc="http://creativecommons.org/ns#"
   xmlns:rdf="http://www.w3.org/1999/02/22-rdf-syntax-ns#"
   xmlns:svg="http://www.w3.org/2000/svg"
   xmlns="http://www.w3.org/2000/svg"
   xmlns:sodipodi="http://sodipodi.sourceforge.net/DTD/sodipodi-0.dtd"
   xmlns:inkscape="http://www.inkscape.org/namespaces/inkscape"
   width="400"
   height="600"
   viewBox="0 0 105.83333 158.75"
   version="1.1"
   id="svg8"
   inkscape:version="0.92.4 (5da689c313, 2019-01-14)"
   sodipodi:docname="24_m.svg">
  <defs
     id="defs2" />
  <sodipodi:namedview
     id="base"
     pagecolor="#ffffff"
     bordercolor="#666666"
     borderopacity="1.0"
     inkscape:pageopacity="0.0"
     inkscape:pageshadow="2"
     inkscape:zoom="1.2816667"
     inkscape:cx="200"
     inkscape:cy="362.41873"
     inkscape:document-units="mm"
     inkscape:current-layer="layer1"
     showgrid="false"
     units="px"
     showguides="true"
     inkscape:guide-bbox="true"
     inkscape:window-width="1280"
     inkscape:window-height="968"
     inkscape:window-x="0"
     inkscape:window-y="0"
     inkscape:window-maximized="1">
    <sodipodi:guide
       position="20.78869,60.476191"
       orientation="1,0"
       id="guide859"
       inkscape:locked="false" />
    <sodipodi:guide
       position="20.78869,128.88988"
       orientation="1,0"
       id="guide863"
       inkscape:locked="false" />
    <sodipodi:guide
       position="12.85119,57.641369"
       orientation="1,0"
       id="guide865"
       inkscape:locked="false" />
    <sodipodi:guide
       position="32.339612,108.51143"
       orientation="0,1"
       id="guide867"
       inkscape:locked="false" />
    <sodipodi:guide
       position="-9.0871638,97.553376"
       orientation="0,1"
       id="guide2596"
       inkscape:locked="false" />
    <sodipodi:guide
       position="-16.036171,64.144687"
       orientation="0,1"
       id="guide2598"
       inkscape:locked="false" />
  </sodipodi:namedview>
  <metadata
     id="metadata5">
    <rdf:RDF>
      <cc:Work
         rdf:about="">
        <dc:format>image/svg+xml</dc:format>
        <dc:type
           rdf:resource="http://purl.org/dc/dcmitype/StillImage" />
        <dc:title></dc:title>
      </cc:Work>
    </rdf:RDF>
  </metadata>
  <g
     inkscape:label="Layer 1"
     inkscape:groupmode="layer"
     id="layer1"
     transform="translate(0,-138.24998)">
    <rect
       style="opacity:1;fill:#ffffff;fill-opacity:0.60101007;stroke:#000000;stroke-width:0.27790931;stroke-miterlimit:4;stroke-dasharray:none;stroke-dashoffset:0;stroke-opacity:1"
       id="rect10"
       width="105.4538"
       height="158.75175"
       x="0.17799145"
       y="138.24911"
       ry="7.9375877" />
    <flowRoot
       xml:space="preserve"
       id="flowRoot851"
       style="fill:black;fill-opacity:1;stroke:none;font-family:sans-serif;font-style:normal;font-weight:normal;font-size:40px;line-height:0;letter-spacing:0px;word-spacing:0px"><flowRegion
         id="flowRegion853"><rect
           id="rect855"
           width="114.28571"
           height="65.714287"
           x="47.142857"
           y="194.28572" /></flowRegion><flowPara
         id="flowPara857" /></flowRoot>    <text
       xml:space="preserve"
       style="font-style:normal;font-weight:normal;font-size:33.90801239px;line-height:0;font-family:sans-serif;letter-spacing:0px;word-spacing:0px;fill:#666666;fill-opacity:1;stroke:none;stroke-width:0.84770024"
       x="19.838701"
       y="174.63515"
       id="text827"><tspan
         sodipodi:role="line"
         id="tspan825"
         x="19.838701"
         y="174.63515"
         style="font-style:normal;font-variant:normal;font-weight:bold;font-stretch:normal;font-family:Arsenal;-inkscape-font-specification:'Arsenal Bold';fill:#666666;stroke-width:0.84770024">24</tspan></text>
    <g
       id="g30738"
       transform="matrix(0.1952436,0,0,0.1952436,14.947391,179.18549)">
      <g
         id="g30562"
         style="fill:none;stroke-width:2;stroke-linecap:butt">
        <path
           id="path30448"
           d="m 203.31,0 q -14.05,12.26 -26.6,26.03 c -4.16,4.56 -8.46,10.55 -12.96,15.68"
           inkscape:connector-curvature="0"
           style="vector-effect:non-scaling-stroke;stroke:#eeeeee" />
        <path
           id="path30450"
           d="M 163.75,41.71 C 150.72,44.77 139.7,54.4 132.71,65.5"
           inkscape:connector-curvature="0"
           style="vector-effect:non-scaling-stroke;stroke:#818181" />
        <path
           id="path30452"
           d="m 132.71,65.5 -0.79,-0.04 a 0.44,0.43 -2.4 0 1 -0.41,-0.37 l -0.05,-0.34"
           inkscape:connector-curvature="0"
           style="vector-effect:non-scaling-stroke;stroke:#eeeeee" />
        <path
           id="path30454"
           d="m 131.46,64.75 q 5.6,-8.79 5.61,-18.51 0,-2.41 -2.38,-2.78 c -3.68,-0.55 -6.57,-0.4 -9.92,1.54 q -15.33,8.9 -23.85,24.64 a 0.41,0.41 0 0 1 -0.67,0.07 C 99.87,69.3 100.35,60.77 100.22,58.98 99.71,51.58 96.84,46.79 89.25,45.95 83.04,45.27 77.81,50.04 74.3,54.56 66.51,64.6 64.52,84.97 63.7,97.99 c -0.26,4.22 -1.62,7.06 -4.59,9.68 a 1.48,1.47 -67 0 1 -0.88,0.36 C 42.42,108.95 37.1,95.62 36.8,82.44 36.49,68.7 38.55,7.62 67.43,20.21 c 6.54,2.85 -1.03,8.65 -1.3,12.39 q -0.33,4.53 0.03,9.38 0.2,2.69 2.62,1.5 C 79.09,38.37 80.63,28.07 80.12,17.49 79.91,13.1 79.91,9.54 74.49,9.9 q -6.52,0.43 -13.06,1.38 -2.21,0.32 -4.07,1.55 C 29.44,31.19 24.9,67.45 27.5,98 c 0.57,6.68 4.74,14.3 10.65,17.73 10.23,5.95 17.43,-0.13 24.99,-7.24 q 1.04,-0.98 0.89,0.44 c -0.83,7.81 9.23,7.27 13.24,4.83 q 8.75,-5.31 14.99,-16.37 0.26,-0.45 0.37,0.05 c 1.41,6.13 -1.13,9.78 5.41,13.81"
           inkscape:connector-curvature="0"
           style="vector-effect:non-scaling-stroke;stroke:#818181" />
        <path
           id="path30456"
           d="m 98.04,111.25 q -0.63,0.77 -0.79,1.76 a 1.03,1.03 0 0 0 0.32,0.91 q 2.26,2.11 3.47,5.07 1.13,2.79 -1.8,3.47 l -4.91,1.14 a 1.12,1.12 0 0 0 -0.78,0.69 q -1.66,4.47 -4.61,7.18"
           inkscape:connector-curvature="0"
           style="vector-effect:non-scaling-stroke;stroke:#eeeeee" />
        <path
           id="path30458"
           d="m 88.94,131.47 q -17.84,6.34 -16.54,25.96 0.16,2.47 -2.23,3.07 l -7.65,1.95 A 0.42,0.42 0 0 1 62,162.04 v -20.59 a 0.54,0.53 -12.9 0 0 -0.77,-0.48 q -4.89,2.37 -7.84,6.76 c -2.43,3.62 -1.46,13.48 -1.35,17.92 a 1.64,1.58 -29.2 0 1 -0.3,0.99 l -3.63,5.06 a 0.58,0.58 0 0 0 0.17,0.84 q 1.21,0.75 2.71,0.41 a 0.82,0.82 0 0 1 1,0.8 l 0.03,26.27 a 1.19,1.19 0 0 0 1.27,1.19 q 0.84,-0.06 1.96,-1"
           inkscape:connector-curvature="0"
           style="vector-effect:non-scaling-stroke;stroke:#818181" />
        <path
           id="path30460"
           d="m 55.25,200.21 q 0.73,0.27 0.9,0.83 a 0.97,0.97 0 0 1 -0.17,0.89 c -3.37,4.02 -5.19,8.36 -11.19,11.44 a 1.27,1.25 -6.6 0 0 -0.65,0.81 L 43.41,217 q -0.11,0.44 -0.38,0.81 -4.41,6.05 -6.7,13.15"
           inkscape:connector-curvature="0"
           style="vector-effect:non-scaling-stroke;stroke:#eeeeee" />
        <path
           id="path30462"
           d="m 156.1578,40.2958 a 3.24,0.52 -41.2 0 0 -2.7803,1.7429 3.24,0.52 -41.2 0 0 -2.0953,2.5255 3.24,0.52 -41.2 0 0 2.7803,-1.7429 3.24,0.52 -41.2 0 0 2.0953,-2.5255"
           inkscape:connector-curvature="0"
           style="vector-effect:non-scaling-stroke;stroke:#eeeeee" />
        <path
           id="path30464"
           d="m 300.81,0 1.48,0.38 q 0.48,0.13 0.12,0.48 c -5.62,5.51 -12.47,9.97 -18.17,14.67 -5.16,4.24 -10.34,7.74 -16.2,10.94 q -3.68,2.01 -7.02,5.54 c -2.44,2.58 -9.19,9.43 -8.76,10.27 a 0.27,0.27 0 0 0 0.46,0.03 c 2.32,-3.34 6.33,-5.32 8.53,-7.18 q 6.39,-5.4 12.56,-11.06 1.22,-1.11 3.91,-0.72 a 1.05,1.03 27.5 0 0 0.85,-0.26 c 1.86,-1.69 3.33,-3.54 5.34,-4.99 q 4,-2.88 7.9,-5.89 c 5.58,-4.3 12.04,-7.46 17.98,-11.49 a 1.81,1.77 -63.4 0 1 0.9,-0.31 L 317.31,0"
           inkscape:connector-curvature="0"
           style="vector-effect:non-scaling-stroke;stroke:#eeeeee" />
        <path
           id="path30466"
           d="m 323.06,0 q 0.27,0.24 0.69,0.34 a 0.52,0.51 -75.3 0 1 0.36,0.63 c -0.04,0.14 -8.84,1.63 -10.31,2.41 q -4.22,2.23 -7.93,5.22 c -10.8,8.68 -22.46,16.24 -32.51,25.81 q -7.12,6.77 -14.85,12.88 -1.53,1.21 -2.62,3.21 -3.75,6.89 -10.8,10.7"
           inkscape:connector-curvature="0"
           style="vector-effect:non-scaling-stroke;stroke:#eeeeee" />
        <path
           id="path30468"
           d="m 245.09,61.2 c -2.04,-4.06 0.37,-8.8 1.95,-12.57 q 0.71,-1.72 -0.76,-0.58 l -4.69,3.6 a 0.35,0.35 0 0 1 -0.56,-0.22 l -0.17,-0.98 a 0.73,0.72 0.6 0 0 -0.59,-0.6 c -2.07,-0.38 -7.04,5.21 -8.41,6.84 q -1.66,1.98 -0.62,4.34 l 2.01,4.55 a 1.72,1.71 39.8 0 1 0.1,1.05 L 231.29,76"
           inkscape:connector-curvature="0"
           style="vector-effect:non-scaling-stroke;stroke:#6f6f6f" />
        <path
           id="path30470"
           d="m 231.29,76 q -0.52,-0.28 -1.06,-0.11 a 0.9,0.9 0 0 0 -0.61,0.65 q -0.23,0.87 -1.11,0.93 a 1.02,1.01 15.6 0 0 -0.77,0.43 c -2.16,3.07 -4.04,6.19 -6.7,6.85"
           inkscape:connector-curvature="0"
           style="vector-effect:non-scaling-stroke;stroke:#eeeeee" />
        <path
           id="path30472"
           d="m 221.04,84.75 q 0.56,-14.4 1.97,-28.75 0.24,-2.38 -0.18,-7.1 a 0.37,0.37 0 0 0 -0.51,-0.31 c -4.23,1.83 -9.74,6.72 -9.33,11.18 q 0.39,4.27 -0.42,11.37 A 1.08,1.06 -10.4 0 1 212,71.95 q -6.71,3.43 -14.24,3.56 a 0.47,0.47 0 0 1 -0.47,-0.57 c 1.05,-4.81 4.4,-7.05 8.88,-10.76 q 1.91,-1.58 1.34,-4.01 a 0.41,0.4 -21.4 0 0 -0.6,-0.26 q -14.17,8.29 -19.81,23.8 a 1.08,1.08 0 0 0 0.97,1.45 c 7.68,0.37 15.51,-3.25 22.79,-5.27 q 1.9,-0.52 1.17,1.3 c -2.45,6.2 -14.2,15.19 -19.82,18.95 a 0.62,0.62 0 0 1 -0.95,-0.38 q -0.76,-3.73 -2.93,-6.85 -1.32,-1.9 -3.64,-1.9 L 176.52,91 a 0.34,0.34 0 0 1 -0.3,-0.5 C 184.29,75 189.58,59.75 187.81,42.15 a 0.72,0.7 -0.4 0 0 -0.65,-0.63 c -5.56,-0.41 -8.82,1.78 -13.87,5.14 -3.49,2.32 -12.64,9.26 -13.14,13.55 a 0.48,0.48 0 0 0 0.45,0.54 l 0.75,0.03 a 0.61,0.61 0 0 1 0.59,0.63 l -1.12,37.19 a 3.39,3.38 69.9 0 1 -1.11,2.39 c -3.5,3.15 -11.38,10.6 -9.51,15.74 a 0.91,0.9 -20.1 0 0 1.17,0.54 q 3.27,-1.24 6.01,-3.25 c 4.77,-3.51 9.38,-5.66 13.06,-10.47 3.93,-5.12 8.78,-2.13 10.01,2.94 a 1.05,1.05 0 0 1 -0.23,0.94 q -6.37,7.31 -5.3,17.17 a 1.62,1.6 -5.3 0 0 1.74,1.43 c 4.6,-0.38 10.36,-6.8 13.01,-10.32 2.47,-3.28 2.64,-6.54 2.35,-10.44 a 0.97,0.94 69.5 0 1 0.36,-0.83 q 9.57,-7.45 17.84,-16.3 1.1,-1.18 1,0.43 l -0.51,7.93"
           inkscape:connector-curvature="0"
           style="vector-effect:non-scaling-stroke;stroke:#6f6f6f" />
        <path
           id="path30474"
           d="m 210.71,96.5 -1.35,0.01 a 1.32,1.3 22.1 0 0 -0.89,0.37 q -2.12,2.04 -3.36,4.73 a 2,1.93 86.2 0 1 -0.67,0.79 q -6.33,4.21 -10.07,10.69 c -2.03,3.49 -12.27,15.51 -16.1,15.96 a 1.49,1.48 19.4 0 0 -0.86,0.41 l -8.7,8.29"
           inkscape:connector-curvature="0"
           style="vector-effect:non-scaling-stroke;stroke:#eeeeee" />
        <path
           id="path30476"
           d="m 168.71,137.75 q -5.35,2.18 -9.27,7.67 a 4.09,4.05 62.7 0 0 -0.75,2.39 l 0.2,13.86"
           inkscape:connector-curvature="0"
           style="vector-effect:non-scaling-stroke;stroke:#6f6f6f" />
        <path
           id="path30478"
           d="m 158.89,161.67 q -3.99,5.23 -7.42,10.79 -0.81,1.3 -0.78,2.8 a 1.43,1.41 -28.5 0 1 -0.27,0.89 c -6.12,8.51 -8.78,18.78 -15.37,26.82 q -3.29,4.01 -3.99,6.34 -3.32,11.02 -7.59,21.7"
           inkscape:connector-curvature="0"
           style="vector-effect:non-scaling-stroke;stroke:#eeeeee" />
        <path
           id="path30480"
           d="m 55.25,200.21 c 3.53,-2.88 6.47,-5.46 7.04,-10.21"
           inkscape:connector-curvature="0"
           style="vector-effect:non-scaling-stroke;stroke:#6f6f6f" />
        <path
           id="path30482"
           d="m 62.29,190 q 1.24,0.2 1.48,-0.74 2.4,-9.43 0.6,-19.84"
           inkscape:connector-curvature="0"
           style="vector-effect:non-scaling-stroke;stroke:#eeeeee" />
        <path
           id="path30484"
           d="m 64.37,169.42 q 2.86,-2.07 7.15,-3.28 a 0.38,0.37 82.6 0 1 0.47,0.37 c -0.18,10.5 -1.79,23.95 4.89,30.02 q 1.4,1.27 3.05,0.35 7.51,-4.18 11.52,-11.71 0.31,-0.58 0.36,0.07 c 0.27,3.07 -0.63,10.39 1.52,12.15 a 1.06,1.06 0 0 1 0.39,0.8 q 0.04,1.56 1.27,1.84 c 10.57,2.4 30.27,-7.45 37.97,-15.28"
           inkscape:connector-curvature="0"
           style="vector-effect:non-scaling-stroke;stroke:#6f6f6f" />
        <path
           id="path30486"
           d="m 132.96,184.75 c 2.11,3.19 -1.23,6.07 -2,9.29 a 0.38,0.37 -82.2 0 0 0.34,0.46 c 1.14,0.06 14.17,-26.49 15.63,-29.19 q 0.74,-1.37 -0.62,-0.61 -3.75,2.11 -6.18,5.7 -2.16,3.17 -5.13,9.72"
           inkscape:connector-curvature="0"
           style="vector-effect:non-scaling-stroke;stroke:#eeeeee" />
        <path
           id="path30488"
           d="m 135,180.12 q -9.87,5.87 -20.8,9.45 -4.09,1.34 -8.49,0.82 -2.52,-0.3 -1.8,-2.74 c 0.94,-3.19 2.65,-6.02 5.03,-8.81 q 7.23,-8.47 13.6,-17.6 a 1.43,1.42 -30.4 0 0 0.25,-0.95 l -0.13,-1.47 a 1.17,1.17 0 0 0 -1.54,-1.01 l -17.75,5.97 a 0.96,0.96 0 0 1 -1.26,-0.82 q -0.66,-7.49 -0.1,-15.72 c 0.49,-7.34 11.51,-9.15 17.04,-8.56 a 0.92,0.9 90 0 1 0.8,0.81 l 0.53,4.87 q 0.14,1.36 1.16,0.45 c 3.94,-3.5 10.76,-8.21 8.17,-14.27 a 2.55,2.54 -6.5 0 0 -1.9,-1.51 c -13.52,-2.34 -28.15,12.06 -34.67,22.28 q -1.42,2.23 -1.94,5.21 c -1.59,9.12 -3.15,19.8 -6.77,28.31 q -0.19,0.46 -0.36,0 c -2.83,-7.47 -2.44,-18.58 -2.08,-26.55 a 1.37,1.31 68.8 0 1 0.36,-0.87 c 5.42,-5.85 16.27,-18.42 6.59,-25.94"
           inkscape:connector-curvature="0"
           style="vector-effect:non-scaling-stroke;stroke:#6f6f6f" />
        <path
           id="path30490"
           d="m 98.04,111.25 c 15.95,7.88 22.94,-2.03 32.4,-12.4 q 0.71,-0.78 0.42,0.24 -0.73,2.49 -2.52,4.41 a 1.35,1.32 66.3 0 0 -0.35,0.93 l 0.01,0.78 a 0.66,0.64 7.3 0 0 0.48,0.61 c 3.56,0.96 9.97,-3.13 13.37,-4.6 q 9.84,-4.23 16.92,-12.74 a 1.1,1.09 45.9 0 0 0.02,-1.38 q -0.19,-0.24 -0.67,0.05 -7.79,4.79 -16.49,7.83 a 0.5,0.5 0 0 1 -0.66,-0.48 l 0.1,-16.23 a 1.91,1.91 0 0 1 1.83,-1.9 c 4.6,-0.19 10.72,-6.78 13.09,-10.48 q 0.36,-0.57 -0.3,-0.45 -6.88,1.23 -13.11,4.42 -0.48,0.25 -0.31,-0.27 0.98,-3.08 0.52,-6.09"
           inkscape:connector-curvature="0"
           style="vector-effect:non-scaling-stroke;stroke:#6f6f6f" />
        <path
           id="path30492"
           d="m 142.79,63.5 q 0.43,0.61 1.15,0.57 a 1.06,1.05 -75.7 0 0 0.84,-0.5 q 3.35,-5.47 7.92,-9.99 a 1.03,1.01 -22.8 0 0 0.3,-0.72 v -0.57"
           inkscape:connector-curvature="0"
           style="vector-effect:non-scaling-stroke;stroke:#eeeeee" />
        <path
           id="path30494"
           d="m 153,52.29 q 2.42,-0.76 4.21,0.48 a 1.24,1.24 0 0 0 1.49,-0.06 q 4.89,-4 8.2,-9.38 a 0.74,0.73 -53 0 0 -0.13,-0.93 q -1.28,-1.17 -3.02,-0.69"
           inkscape:connector-curvature="0"
           style="vector-effect:non-scaling-stroke;stroke:#6f6f6f" />
        <path
           id="path30496"
           d="m 67.97,190.25 c -1.45,-0.69 -7.06,14.57 -6.72,15.3 a 0.41,0.41 0 0 0 0.65,0.13 c 3,-2.75 5,-9.46 6.77,-13.56 a 1.44,1.44 0 0 0 -0.7,-1.87"
           inkscape:connector-curvature="0"
           style="vector-effect:non-scaling-stroke;stroke:#eeeeee" />
        <path
           id="path30498"
           d="m 333.31,0 -0.65,0.35 q -0.87,0.46 0.12,0.45 l 2.86,-0.04 a 0.89,0.87 74.5 0 1 0.78,0.45 q 2.9,5.23 2.22,11.28 a 1.09,1.09 0 0 0 0.46,1.01 l 2.28,1.63 a 1.48,1.48 0 0 0 0.93,0.26 l 5.33,-0.38 a 0.61,0.61 0 0 1 0.64,0.7 l -0.44,3.01 a 0.39,0.39 0 0 1 -0.51,0.31 l -0.34,-0.12 a 0.36,0.35 23.7 0 1 -0.2,-0.5 q 0.72,-1.42 -0.1,-2.38 a 1.07,1.05 69.1 0 0 -0.8,-0.37 q -4.25,-0.04 -4.88,4.41 -0.34,2.41 1.93,3.29 l 18.31,7.04 q 0.48,0.19 0.82,0.58 c 2.39,2.77 5,0.74 5.58,-2.14 a 0.32,0.32 0 0 0 -0.38,-0.38 l -1.43,0.33 a 0.48,0.48 0 0 1 -0.59,-0.46 l -0.01,-0.38 a 0.52,0.52 0 0 1 0.47,-0.53 q 2.04,-0.23 2.93,-1.95 1.11,-2.15 2.15,0.04 l 1.84,3.86 a 0.62,0.62 0 0 1 -0.57,0.89 l -1.27,-0.02 q -0.82,-0.01 -0.25,0.58 c 3.13,3.2 7.82,1.89 11.3,0.51 q 2.21,-0.88 1.67,1.44 l -0.96,4.08 q -0.63,2.69 1.81,1.41 l 7.07,-3.69 a 1.46,1.43 -53.2 0 1 0.9,-0.14 c 1.71,0.32 3.74,-6.5 5.2,-5.92 a 0.45,0.44 -69.1 0 1 0.25,0.57 q -0.95,2.6 -0.67,5.46 a 0.35,0.35 0 0 0 0.5,0.28 c 5.7,-2.74 8.56,-7 13.24,-10.86 a 0.98,0.96 -56.8 0 1 0.87,-0.19 c 5.14,1.39 5.38,-3.2 9.67,-4.31 a 1.21,1.21 0 0 0 0.74,-0.57 l 2.17,-3.86 a 1.59,1.57 -33.3 0 0 0.2,-0.94 q -0.25,-2.31 -1.55,-4.23 a 1.02,1 -55 0 1 -0.14,-0.83 c 0.51,-1.82 4.7,-5.53 3.87,-1.68 -0.32,1.5 -1.36,3.69 0.35,4.72 a 0.73,0.72 40.7 0 0 0.85,-0.06 c 1.84,-1.54 -1.28,-3.75 1.22,-6.02 a 1.94,1.88 77.8 0 0 0.51,-0.82 Q 430.42,2.61 430.06,0"
           inkscape:connector-curvature="0"
           style="vector-effect:non-scaling-stroke;stroke:#eeeeee" />
        <path
           id="path30500"
           d="m 158.89,161.67 0.19,4.23 a 1.26,1.2 -25.7 0 1 -0.33,0.88 c -1.96,2.12 -5.63,4.91 -6.46,7.65 q -0.44,1.46 0.8,0.58 l 6.04,-4.27 q 0.79,-0.56 0.8,0.41 l 0.24,26.11 a 0.61,0.6 76.2 0 0 0.88,0.54 q 6.03,-3.07 9.2,-8.96 0.26,-0.47 0.24,-1.02 l -0.63,-22.87 a 1.09,1.08 69.9 0 1 0.41,-0.89 l 5.11,-3.98 q 0.65,-0.5 0.51,0.31 -2.48,14.2 -2.3,26.12 0.1,7.36 7.14,10.24 a 1.11,1.09 -49 0 0 0.99,-0.08 l 2.42,-1.47 a 0.56,0.56 0 0 1 0.79,0.22 c 6.86,13.21 25.39,-7 24.64,-8.61 a 0.42,0.42 0 0 0 -0.58,-0.2 c -4.69,2.44 -8.6,5.88 -13.27,0.89 a 1.25,1.25 0 0 1 -0.33,-0.92 l 0.49,-8.39 a 1.52,1.52 0 0 1 1.18,-1.39 l 16.12,-3.59 a 0.44,0.44 0 0 1 0.53,0.34 l 5.62,26.68 a 0.44,0.44 0 0 0 0.66,0.29 c 4.61,-2.79 9.98,-7.4 8.63,-13.35 q -1.77,-7.75 -3.6,-15.54 -0.41,-1.74 0.85,-2.99 l 7.92,-7.83 a 0.46,0.46 0 0 0 -0.15,-0.75 c -0.82,-0.33 -8.25,1.9 -9.7,2.1 a 0.55,0.54 -5.9 0 1 -0.62,-0.5 l -1.27,-18.37 a 1.32,1.29 -25.6 0 1 0.36,-0.99 l 6.52,-6.79 q 0.76,-0.8 -0.34,-0.71 -3.03,0.25 -6.92,2.63 c -17.84,10.91 -30.08,25.66 -35.19,45.74 q -0.44,1.72 -1.34,0.19 c -2.67,-4.5 -1.36,-29.23 2.34,-33.23 5.39,-5.82 10.75,-9.77 13.67,-17.86 a 0.58,0.58 0 0 0 -0.28,-0.71 c -10.11,-5.12 -21.07,15.22 -22.93,22.6 a 1.1,1.07 82.2 0 1 -0.5,0.68 l -6.64,3.99 a 0.71,0.71 0 0 1 -1.07,-0.52 q -1.08,-8.77 -0.72,-17.56 0.06,-1.53 -0.3,-3"
           inkscape:connector-curvature="0"
           style="vector-effect:non-scaling-stroke;stroke:#818181" />
        <path
           id="path30502"
           d="m 210.71,96.5 c -0.23,3.1 -1.42,13.13 2.34,14.38 4.46,1.48 10.25,-5.32 11.89,-8.77 q 0.68,-1.41 -0.86,-1.14 c -5.54,0.97 -3.13,-13.58 -3.04,-16.22"
           inkscape:connector-curvature="0"
           style="vector-effect:non-scaling-stroke;stroke:#818181" />
        <path
           id="path30504"
           d="m 231.29,76 c -1.88,10.57 -1.3,20.82 -1.28,31.23 a 0.69,0.69 0 0 0 0.49,0.66 c 3.58,1.14 11.55,-7.18 14.16,-10.4 a 0.8,0.8 0 0 0 0.02,-0.97 q -0.75,-1.05 0.05,-1.91 a 0.57,0.57 0 0 1 0.84,0 c 5.51,5.9 10.82,-0.75 14.39,-4.48 q 2.06,-2.16 -0.75,-3.15 -3.72,-1.3 -6.06,-4.29 a 0.99,0.98 -46.1 0 1 -0.02,-1.2 L 267.11,62.6 q 0.51,-0.69 0.38,0.16 c -1.9,12.61 -4.33,24.29 -4.52,38.46 -0.05,3.53 0.46,6.24 3.11,8.32 a 1.2,1.18 49.3 0 0 1.32,0.11 q 5.72,-3.12 8.92,-8.79 a 0.57,0.57 0 0 0 -0.12,-0.71 c -2.03,-1.78 -3.3,-3.08 -3.26,-6.06 q 0.23,-20.42 4.87,-40.33 0.26,-1.13 -0.24,-4.37 a 0.36,0.36 0 0 0 -0.53,-0.26 q -4.55,2.49 -8.72,7.45 -10.9,12.96 -17.04,21.54 -0.29,0.41 -0.49,-0.05 -3.63,-8.42 -5.7,-16.87"
           inkscape:connector-curvature="0"
           style="vector-effect:non-scaling-stroke;stroke:#818181" />
        <path
           id="path30506"
           d="m 330.26,0.77 c -2.07,-0.39 -3.59,-0.42 -4.87,1.41 q -0.38,0.54 0.28,0.47 l 4.11,-0.44 a 0.77,0.76 1.5 0 0 0.66,-0.62 l 0.07,-0.45 a 0.33,0.32 -79.8 0 0 -0.25,-0.37"
           inkscape:connector-curvature="0"
           style="vector-effect:non-scaling-stroke;stroke:#eeeeee" />
        <path
           id="path30508"
           d="m 374.5,50.8 0.01,0.49 a 1.28,1.25 66.2 0 1 -0.33,0.88 c -2.4,2.63 -7.28,6.8 -8.05,10.23 q -0.2,0.87 0.55,0.38 l 3.79,-2.54 q 0.61,-0.41 0.3,0.26 c -5.16,11.22 -8.53,21.75 -8.74,33.24 -0.29,15.32 20.8,15.31 29.2,8.24 9.04,-7.61 14.77,-14.36 16.26,-26.48 1.1,-9.03 1.65,-19.28 -4.05,-26.44 -4.5,-5.66 -11.68,-7.21 -18.32,-4.85 q -1.06,0.38 -0.78,-0.71 c 1.29,-4.96 -4.38,-3.65 -6.77,-3.17 -13.39,2.69 -28.43,5.46 -39.17,13.38 q -0.52,0.38 -0.47,-0.26 0.58,-7.94 -1.9,-15.48 a 0.98,0.96 -3.9 0 0 -0.76,-0.65 q -3.39,-0.56 -6.88,1.55 c -14.32,8.7 -18.26,20.69 -17.19,36.85 a 1.19,1.17 -26.8 0 1 -0.3,0.88 c -3.11,3.56 -6.76,6.17 -9.57,10.33 -4.28,6.32 -5.32,13.92 0.85,19.26 4.64,4.01 12.29,5.65 17.75,2.5 13.31,-7.67 16.05,-26.57 17.99,-39.65 a 0.98,0.96 80.5 0 1 0.51,-0.73 l 9.78,-5.19 q 0.47,-0.25 0.42,0.28 c -0.61,6.4 -3.04,36.74 0.86,40.57 q 2.08,2.05 4.11,-0.04 l 6.68,-6.84 a 1.64,1.63 70 0 0 0.44,-0.95 q 0.29,-2.91 -2.14,-4.35 A 1.25,1.22 9.1 0 1 358,91.01 Q 357.47,88.79 357.46,86.5 357.4,71.23 358.51,56 c 0.44,-5.99 11.85,-6.07 15.49,-5.73 a 0.54,0.54 0 0 1 0.5,0.53"
           inkscape:connector-curvature="0"
           style="vector-effect:non-scaling-stroke;stroke:#818181" />
        <path
           id="path30510"
           d="m 247.03,188.47 c -1.16,-15.4 0.03,-32.12 -0.05,-46.74 a 0.69,0.68 76.5 0 0 -0.99,-0.61 c -5.88,2.91 -9.04,6.6 -8.96,13.38 0.14,12.93 -1.37,27.54 -0.47,41.39 a 1.13,1.11 -24.6 0 1 -0.33,0.86 c -3.68,3.64 -9.76,9.51 -9.25,15.08 q 0.2,2.12 2.22,1.46 c 10.56,-3.45 19.31,-10.44 28.15,-19.02 a 1.23,1.23 0 0 1 0.87,-0.36 c 9.04,-0.15 9.45,10.1 8.61,16.47 a 0.89,0.89 0 0 1 -1.34,0.64 c -2.34,-1.43 -0.59,-6.65 -0.86,-9.29 a 0.34,0.34 0 0 0 -0.5,-0.27 q -8.62,4.59 -10.12,14.16 c -0.16,1.02 0.15,3.56 0.68,4.24 q 1.6,2.06 3.93,0.89 c 7.89,-3.95 18.2,-12.1 18.56,-21.54 a 0.32,0.32 0 0 1 0.46,-0.27 c 6.26,3.15 13.36,3.43 19.27,-0.78 11.56,-8.22 21.56,-21.24 24.01,-35.48 q 1.22,-7.12 0.47,-12.5 c -1.4,-10 -11.75,-16.14 -21.03,-16.25 -5.56,-0.06 -9,0.05 -12.72,3.95 q -8.56,8.96 -13.01,19.07 a 0.15,0.15 0 0 1 -0.24,0.06 l -0.25,-0.23 a 0.75,0.75 0 0 1 -0.25,-0.6 q 0.62,-10.1 -0.24,-20.17 c -0.4,-4.62 -2.33,-8.91 -7.92,-8.01 -8.82,1.43 -22.22,3.99 -25.87,13.59 q -0.18,0.48 0.31,0.34 c 6.72,-1.83 11.69,-4.19 19.57,-3.94 a 1.61,1.61 0 0 1 0.9,0.32 c 5.23,4.01 3.7,22.44 2.89,29.2 q -0.95,8 -4.99,17 a 0.88,0.87 -82.7 0 1 -0.64,0.5 q -5.5,1.01 -10.36,3.74 a 0.35,0.34 73.5 0 1 -0.51,-0.28"
           inkscape:connector-curvature="0"
           style="vector-effect:non-scaling-stroke;stroke:#818181" />
        <path
           id="path30512"
           d="m 413.0642,21.1444 a 1.36,1.21 -5.3 0 0 -1.466,-1.0792 1.36,1.21 -5.3 0 0 -1.2424,1.3304 1.36,1.21 -5.3 0 0 1.466,1.0792 1.36,1.21 -5.3 0 0 1.2424,-1.3304"
           inkscape:connector-curvature="0"
           style="vector-effect:non-scaling-stroke;stroke:#eeeeee" />
        <path
           id="path30514"
           d="m 131.46,64.75 -5.71,6.96"
           inkscape:connector-curvature="0"
           style="vector-effect:non-scaling-stroke;stroke:#6f6f6f" />
        <path
           id="path30516"
           d="m 125.75,71.71 -5.05,3.89 a 0.42,0.42 0 0 1 -0.63,-0.15 q -0.51,-1.07 0.09,-1.81 5.7,-7.04 6.62,-15.04 c 0.35,-2.98 1.02,-5.24 -2.78,-5.53 -8.75,-0.67 -12.04,5.91 -15.49,12.57 q -8.15,15.72 -4.23,33.55"
           inkscape:connector-curvature="0"
           style="vector-effect:non-scaling-stroke;stroke:#818181" />
        <path
           id="path30518"
           d="m 104.28,99.19 q 6.55,4.76 13.51,5.17 c 7.82,0.45 12.23,-14.93 13.17,-21.61"
           inkscape:connector-curvature="0"
           style="vector-effect:non-scaling-stroke;stroke:#6f6f6f" />
        <path
           id="path30520"
           d="m 130.96,82.75 -0.12,-5.13"
           inkscape:connector-curvature="0"
           style="vector-effect:non-scaling-stroke;stroke:#818181" />
        <path
           id="path30522"
           d="m 130.84,77.62 c 0.12,-4.68 -0.12,-7.69 1.87,-12.12"
           inkscape:connector-curvature="0"
           style="vector-effect:non-scaling-stroke;stroke:#6f6f6f" />
        <path
           id="path30524"
           d="m 153,52.29 c -5.05,0.83 -12.27,4.75 -12,10.71 a 0.54,0.54 0 0 0 0.55,0.52 l 1.24,-0.02"
           inkscape:connector-curvature="0"
           style="vector-effect:non-scaling-stroke;stroke:#818181" />
        <path
           id="path30526"
           d="M 89.99,66.16 C 89.59,60.91 87.3,56.96 81.7,56.13 a 0.53,0.52 5.9 0 0 -0.61,0.49 q -0.8,15.83 -5.28,30.94 c -1.52,5.14 -0.7,10.99 -0.53,16.28 a 0.83,0.82 5.4 0 0 0.65,0.78 l 4.38,0.95 q 2.02,0.44 3.02,-1.37 c 6.53,-11.87 7.68,-24.76 6.66,-38.04"
           inkscape:connector-curvature="0"
           style="vector-effect:non-scaling-stroke;stroke:#818181" />
        <path
           id="path30528"
           d="m 325.5,46.98 c -5.03,-1.95 -4.48,20.09 -4.32,22.54 a 0.46,0.46 0 0 0 0.61,0.4 q 3.02,-1.04 5.62,-2.84 a 1.15,1.15 0 0 0 0.49,-0.88 q 0.59,-9.4 -1.74,-18.48 a 1.08,1.08 0 0 0 -0.66,-0.74"
           inkscape:connector-curvature="0"
           style="vector-effect:non-scaling-stroke;stroke:#818181" />
        <path
           id="path30530"
           d="m 379.95,53.9 c -4.3,9.88 -7.74,20.1 -8.01,30.98 -0.14,5.62 2.94,9.52 8.22,10.83 4.26,1.05 9.39,1.59 13.61,-0.23 a 1.41,1.39 1.6 0 0 0.7,-0.65 q 1.99,-3.94 2.8,-9.82 c 1.78,-12.91 1.72,-32.23 -16.54,-31.63 a 0.87,0.86 11 0 0 -0.78,0.52"
           inkscape:connector-curvature="0"
           style="vector-effect:non-scaling-stroke;stroke:#818181" />
        <path
           id="path30532"
           d="m 351.62,54.09 -12.95,4.29 a 0.98,0.98 0 0 0 -0.68,0.93 l 0.01,2.68 a 0.43,0.42 79.3 0 0 0.58,0.4 q 6.99,-2.73 13.36,-6.72 a 0.69,0.69 0 0 0 0.26,-0.88 l -0.26,-0.56 a 0.27,0.26 68.4 0 0 -0.32,-0.14"
           inkscape:connector-curvature="0"
           style="vector-effect:non-scaling-stroke;stroke:#818181" />
        <path
           id="path30534"
           d="m 308.77,83.88 c -3.24,8.76 4.56,16.96 13.27,16.03 a 0.89,0.88 9.2 0 0 0.72,-0.51 c 3.14,-6.65 4.33,-16.87 5.33,-24.32 a 0.97,0.97 0 0 0 -1.33,-1.03 q -8.33,3.42 -16.2,7.76 a 3.92,3.91 85.9 0 0 -1.79,2.07"
           inkscape:connector-curvature="0"
           style="vector-effect:non-scaling-stroke;stroke:#818181" />
        <path
           id="path30536"
           d="m 172.18,52.76 c -0.32,3.98 -1.75,33.85 -0.96,34.18 a 0.46,0.46 0 0 0 0.61,-0.26 c 4.67,-12.2 7.3,-22.07 6.07,-34.88 a 0.63,0.62 82.1 0 0 -0.74,-0.56 l -4.43,0.89 a 0.7,0.68 86.8 0 0 -0.55,0.63"
           inkscape:connector-curvature="0"
           style="vector-effect:non-scaling-stroke;stroke:#6f6f6f" />
        <path
           id="path30538"
           d="m 160.4624,107.13 a 1.46,0.49 90.3 0 0 0.4976,-1.4574 1.46,0.49 90.3 0 0 -0.4824,-1.4626 1.46,0.49 90.3 0 0 -0.4976,1.4574 1.46,0.49 90.3 0 0 0.4824,1.4626"
           inkscape:connector-curvature="0"
           style="vector-effect:non-scaling-stroke;stroke:#6f6f6f" />
        <path
           id="path30540"
           d="m 241.64,91.8 q 0.65,-2.44 -0.94,-4.54 -0.69,-0.91 -0.7,0.23 l -0.02,4.29 q -0.03,6.3 1.66,0.02"
           inkscape:connector-curvature="0"
           style="vector-effect:non-scaling-stroke;stroke:#818181" />
        <path
           id="path30542"
           d="m 125.75,71.71 q 1.2,1.26 -0.05,2.5 -4.68,4.64 -8.42,10.1 a 1.67,1.58 4.5 0 1 -0.73,0.59 c -2.23,0.91 -7.86,9.79 -9.51,12.15 q -0.26,1.12 -2.76,2.14"
           inkscape:connector-curvature="0"
           style="vector-effect:non-scaling-stroke;stroke:#eeeeee" />
        <path
           id="path30544"
           d="m 130.84,77.62 c -2.75,3.1 -5.65,7.12 -6.88,11.09 q -0.25,0.83 0.43,0.3 3.67,-2.8 6.57,-6.26"
           inkscape:connector-curvature="0"
           style="vector-effect:non-scaling-stroke;stroke:#eeeeee" />
        <path
           id="path30546"
           d="m 289.07,143.78 q -6.04,18.47 -5.1,37.53 c 0.44,9.06 7.57,10.78 15.26,9.76 3.06,-0.4 4.55,-2.42 6.01,-4.85 q 7.82,-12.99 5.73,-28.23 c -1.31,-9.5 -13.3,-14.58 -21.63,-14.41 a 0.3,0.28 -79.8 0 0 -0.27,0.2"
           inkscape:connector-curvature="0"
           style="vector-effect:non-scaling-stroke;stroke:#818181" />
        <path
           id="path30548"
           d="m 268.69,175.94 q -1.38,1.74 -4.24,8.37 -0.25,0.58 0.37,0.44 4.52,-1 8.62,0.91 a 0.37,0.37 0 0 0 0.52,-0.34 l 0.12,-13.06 q 0.01,-0.43 -0.35,-0.19 -4.31,2.94 -5.04,3.87"
           inkscape:connector-curvature="0"
           style="vector-effect:non-scaling-stroke;stroke:#818181" />
        <path
           id="path30550"
           d="m 251.5,195 c -6.43,-1.36 -8.02,7.27 -12.6,6.95 a 0.77,0.75 -10.5 0 1 -0.64,-0.43 l -0.5,-1.03 q -1.11,-2.28 -0.8,0.24 l 0.23,1.82 a 1.05,1.03 76.6 0 0 1.38,0.86 q 7.54,-2.73 13.52,-8.08 a 0.31,0.31 0 0 0 -0.08,-0.52 q -0.28,-0.14 -0.51,0.19"
           inkscape:connector-curvature="0"
           style="vector-effect:non-scaling-stroke;stroke:#818181" />
        <path
           id="path30552"
           d="m 135,180.12 q -0.04,3.15 -2.04,4.63"
           inkscape:connector-curvature="0"
           style="vector-effect:non-scaling-stroke;stroke:#818181" />
        <path
           id="path30554"
           d="m 64.37,169.42 c -2.43,0.28 -2.35,1 -2.38,2.78 q -0.16,8.9 0.3,17.8"
           inkscape:connector-curvature="0"
           style="vector-effect:non-scaling-stroke;stroke:#818181" />
        <path
           id="path30556"
           d="m 102,181.36 a 0.32,0.32 0 0 0 0.57,0.2 l 10.99,-13.55 a 0.32,0.32 0 0 0 -0.34,-0.5 l -11,3.6 a 0.32,0.32 0 0 0 -0.22,0.3 v 9.95"
           inkscape:connector-curvature="0"
           style="vector-effect:non-scaling-stroke;stroke:#6f6f6f" />
        <path
           id="path30558"
           d="m 190.36,140.85 c -1.39,0.58 -2.03,2.81 -2.31,4.2 q -0.28,1.44 0.52,0.21 l 2.4,-3.67 q 0.91,-1.38 -0.61,-0.74"
           inkscape:connector-curvature="0"
           style="vector-effect:non-scaling-stroke;stroke:#818181" />
        <path
           id="path30560"
           d="m 211.35,148.95 c -5.97,3.43 -10.58,12.2 -12.31,18.16 a 0.45,0.44 3.3 0 0 0.5,0.56 l 12.6,-1.92 a 0.7,0.69 -6.4 0 0 0.59,-0.73 l -0.9,-15.81 a 0.32,0.32 0 0 0 -0.48,-0.26"
           inkscape:connector-curvature="0"
           style="vector-effect:non-scaling-stroke;stroke:#818181" />
      </g>
      <path
         id="path30564"
         d="m 0,0 h 203.31 q -14.05,12.26 -26.6,26.03 c -4.16,4.56 -8.46,10.55 -12.96,15.68 -13.03,3.06 -24.05,12.69 -31.04,23.79 l -0.79,-0.04 a 0.44,0.43 -2.4 0 1 -0.41,-0.37 l -0.05,-0.34 q 5.6,-8.79 5.61,-18.51 0,-2.41 -2.38,-2.78 c -3.68,-0.55 -6.57,-0.4 -9.92,1.54 q -15.33,8.9 -23.85,24.64 a 0.41,0.41 0 0 1 -0.67,0.07 C 99.87,69.3 100.35,60.77 100.22,58.98 99.71,51.58 96.84,46.79 89.25,45.95 83.04,45.27 77.81,50.04 74.3,54.56 66.51,64.6 64.52,84.97 63.7,97.99 c -0.26,4.22 -1.62,7.06 -4.59,9.68 a 1.48,1.47 -67 0 1 -0.88,0.36 C 42.42,108.95 37.1,95.62 36.8,82.44 36.49,68.7 38.55,7.62 67.43,20.21 c 6.54,2.85 -1.03,8.65 -1.3,12.39 q -0.33,4.53 0.03,9.38 0.2,2.69 2.62,1.5 C 79.09,38.37 80.63,28.07 80.12,17.49 79.91,13.1 79.91,9.54 74.49,9.9 q -6.52,0.43 -13.06,1.38 -2.21,0.32 -4.07,1.55 C 29.44,31.19 24.9,67.45 27.5,98 c 0.57,6.68 4.74,14.3 10.65,17.73 10.23,5.95 17.43,-0.13 24.99,-7.24 q 1.04,-0.98 0.89,0.44 c -0.83,7.81 9.23,7.27 13.24,4.83 q 8.75,-5.31 14.99,-16.37 0.26,-0.45 0.37,0.05 c 1.41,6.13 -1.13,9.78 5.41,13.81 q -0.63,0.77 -0.79,1.76 a 1.03,1.03 0 0 0 0.32,0.91 q 2.26,2.11 3.47,5.07 1.13,2.79 -1.8,3.47 l -4.91,1.14 a 1.12,1.12 0 0 0 -0.78,0.69 q -1.66,4.47 -4.61,7.18 -17.84,6.34 -16.54,25.96 0.16,2.47 -2.23,3.07 l -7.65,1.95 A 0.42,0.42 0 0 1 62,162.04 v -20.59 a 0.54,0.53 -12.9 0 0 -0.77,-0.48 q -4.89,2.37 -7.84,6.76 c -2.43,3.62 -1.46,13.48 -1.35,17.92 a 1.64,1.58 -29.2 0 1 -0.3,0.99 l -3.63,5.06 a 0.58,0.58 0 0 0 0.17,0.84 q 1.21,0.75 2.71,0.41 a 0.82,0.82 0 0 1 1,0.8 l 0.03,26.27 a 1.19,1.19 0 0 0 1.27,1.19 q 0.84,-0.06 1.96,-1 0.73,0.27 0.9,0.83 a 0.97,0.97 0 0 1 -0.17,0.89 c -3.37,4.02 -5.19,8.36 -11.19,11.44 a 1.27,1.25 -6.6 0 0 -0.65,0.81 L 43.41,217 q -0.11,0.44 -0.38,0.81 -4.41,6.05 -6.7,13.15 L 0,231 Z m 156.1578,40.2958 a 3.24,0.52 -41.2 0 0 -2.7803,1.7429 3.24,0.52 -41.2 0 0 -2.0953,2.5255 3.24,0.52 -41.2 0 0 2.7803,-1.7429 3.24,0.52 -41.2 0 0 2.0953,-2.5255 z"
         inkscape:connector-curvature="0"
         style="fill:#ffffff" />
      <path
         id="path30566"
         d="m 203.31,0 h 97.5 l 1.48,0.38 q 0.48,0.13 0.12,0.48 c -5.62,5.51 -12.47,9.97 -18.17,14.67 -5.16,4.24 -10.34,7.74 -16.2,10.94 q -3.68,2.01 -7.02,5.54 c -2.44,2.58 -9.19,9.43 -8.76,10.27 a 0.27,0.27 0 0 0 0.46,0.03 c 2.32,-3.34 6.33,-5.32 8.53,-7.18 q 6.39,-5.4 12.56,-11.06 1.22,-1.11 3.91,-0.72 a 1.05,1.03 27.5 0 0 0.85,-0.26 c 1.86,-1.69 3.33,-3.54 5.34,-4.99 q 4,-2.88 7.9,-5.89 c 5.58,-4.3 12.04,-7.46 17.98,-11.49 a 1.81,1.77 -63.4 0 1 0.9,-0.31 L 317.31,0 h 5.75 q 0.27,0.24 0.69,0.34 a 0.52,0.51 -75.3 0 1 0.36,0.63 c -0.04,0.14 -8.84,1.63 -10.31,2.41 q -4.22,2.23 -7.93,5.22 c -10.8,8.68 -22.46,16.24 -32.51,25.81 q -7.12,6.77 -14.85,12.88 -1.53,1.21 -2.62,3.21 -3.75,6.89 -10.8,10.7 c -2.04,-4.06 0.37,-8.8 1.95,-12.57 q 0.71,-1.72 -0.76,-0.58 l -4.69,3.6 a 0.35,0.35 0 0 1 -0.56,-0.22 l -0.17,-0.98 a 0.73,0.72 0.6 0 0 -0.59,-0.6 c -2.07,-0.38 -7.04,5.21 -8.41,6.84 q -1.66,1.98 -0.62,4.34 l 2.01,4.55 a 1.72,1.71 39.8 0 1 0.1,1.05 L 231.29,76 q -0.52,-0.28 -1.06,-0.11 a 0.9,0.9 0 0 0 -0.61,0.65 q -0.23,0.87 -1.11,0.93 a 1.02,1.01 15.6 0 0 -0.77,0.43 c -2.16,3.07 -4.04,6.19 -6.7,6.85 q 0.56,-14.4 1.97,-28.75 0.24,-2.38 -0.18,-7.1 a 0.37,0.37 0 0 0 -0.51,-0.31 c -4.23,1.83 -9.74,6.72 -9.33,11.18 q 0.39,4.27 -0.42,11.37 A 1.08,1.06 -10.4 0 1 212,71.95 q -6.71,3.43 -14.24,3.56 a 0.47,0.47 0 0 1 -0.47,-0.57 c 1.05,-4.81 4.4,-7.05 8.88,-10.76 q 1.91,-1.58 1.34,-4.01 a 0.41,0.4 -21.4 0 0 -0.6,-0.26 q -14.17,8.29 -19.81,23.8 a 1.08,1.08 0 0 0 0.97,1.45 c 7.68,0.37 15.51,-3.25 22.79,-5.27 q 1.9,-0.52 1.17,1.3 c -2.45,6.2 -14.2,15.19 -19.82,18.95 a 0.62,0.62 0 0 1 -0.95,-0.38 q -0.76,-3.73 -2.93,-6.85 -1.32,-1.9 -3.64,-1.9 L 176.52,91 a 0.34,0.34 0 0 1 -0.3,-0.5 C 184.29,75 189.58,59.75 187.81,42.15 a 0.72,0.7 -0.4 0 0 -0.65,-0.63 c -5.56,-0.41 -8.82,1.78 -13.87,5.14 -3.49,2.32 -12.64,9.26 -13.14,13.55 a 0.48,0.48 0 0 0 0.45,0.54 l 0.75,0.03 a 0.61,0.61 0 0 1 0.59,0.63 l -1.12,37.19 a 3.39,3.38 69.9 0 1 -1.11,2.39 c -3.5,3.15 -11.38,10.6 -9.51,15.74 a 0.91,0.9 -20.1 0 0 1.17,0.54 q 3.27,-1.24 6.01,-3.25 c 4.77,-3.51 9.38,-5.66 13.06,-10.47 3.93,-5.12 8.78,-2.13 10.01,2.94 a 1.05,1.05 0 0 1 -0.23,0.94 q -6.37,7.31 -5.3,17.17 a 1.62,1.6 -5.3 0 0 1.74,1.43 c 4.6,-0.38 10.36,-6.8 13.01,-10.32 2.47,-3.28 2.64,-6.54 2.35,-10.44 a 0.97,0.94 69.5 0 1 0.36,-0.83 q 9.57,-7.45 17.84,-16.3 1.1,-1.18 1,0.43 l -0.51,7.93 -1.35,0.01 a 1.32,1.3 22.1 0 0 -0.89,0.37 q -2.12,2.04 -3.36,4.73 a 2,1.93 86.2 0 1 -0.67,0.79 q -6.33,4.21 -10.07,10.69 c -2.03,3.49 -12.27,15.51 -16.1,15.96 a 1.49,1.48 19.4 0 0 -0.86,0.41 l -8.7,8.29 q -5.35,2.18 -9.27,7.67 a 4.09,4.05 62.7 0 0 -0.75,2.39 l 0.2,13.86 q -3.99,5.23 -7.42,10.79 -0.81,1.3 -0.78,2.8 a 1.43,1.41 -28.5 0 1 -0.27,0.89 c -6.12,8.51 -8.78,18.78 -15.37,26.82 q -3.29,4.01 -3.99,6.34 -3.32,11.02 -7.59,21.7 l -87.14,-0.05 q 2.29,-7.1 6.7,-13.15 0.27,-0.37 0.38,-0.81 l 0.73,-2.82 a 1.27,1.25 -6.6 0 1 0.65,-0.81 c 6,-3.08 7.82,-7.42 11.19,-11.44 a 0.97,0.97 0 0 0 0.17,-0.89 q -0.17,-0.56 -0.9,-0.83 c 3.53,-2.88 6.47,-5.46 7.04,-10.21 q 1.24,0.2 1.48,-0.74 2.4,-9.43 0.6,-19.84 2.86,-2.07 7.15,-3.28 a 0.38,0.37 82.6 0 1 0.47,0.37 c -0.18,10.5 -1.79,23.95 4.89,30.02 q 1.4,1.27 3.05,0.35 7.51,-4.18 11.52,-11.71 0.31,-0.58 0.36,0.07 c 0.27,3.07 -0.63,10.39 1.52,12.15 a 1.06,1.06 0 0 1 0.39,0.8 q 0.04,1.56 1.27,1.84 c 10.57,2.4 30.27,-7.45 37.97,-15.28 2.11,3.19 -1.23,6.07 -2,9.29 a 0.38,0.37 -82.2 0 0 0.34,0.46 c 1.14,0.06 14.17,-26.49 15.63,-29.19 q 0.74,-1.37 -0.62,-0.61 -3.75,2.11 -6.18,5.7 -2.16,3.17 -5.13,9.72 -9.87,5.87 -20.8,9.45 -4.09,1.34 -8.49,0.82 -2.52,-0.3 -1.8,-2.74 c 0.94,-3.19 2.65,-6.02 5.03,-8.81 q 7.23,-8.47 13.6,-17.6 a 1.43,1.42 -30.4 0 0 0.25,-0.95 l -0.13,-1.47 a 1.17,1.17 0 0 0 -1.54,-1.01 l -17.75,5.97 a 0.96,0.96 0 0 1 -1.26,-0.82 q -0.66,-7.49 -0.1,-15.72 c 0.49,-7.34 11.51,-9.15 17.04,-8.56 a 0.92,0.9 90 0 1 0.8,0.81 l 0.53,4.87 q 0.14,1.36 1.16,0.45 c 3.94,-3.5 10.76,-8.21 8.17,-14.27 a 2.55,2.54 -6.5 0 0 -1.9,-1.51 c -13.52,-2.34 -28.15,12.06 -34.67,22.28 q -1.42,2.23 -1.94,5.21 c -1.59,9.12 -3.15,19.8 -6.77,28.31 q -0.19,0.46 -0.36,0 c -2.83,-7.47 -2.44,-18.58 -2.08,-26.55 a 1.37,1.31 68.8 0 1 0.36,-0.87 c 5.42,-5.85 16.27,-18.42 6.59,-25.94 q 2.95,-2.71 4.61,-7.18 a 1.12,1.12 0 0 1 0.78,-0.69 l 4.91,-1.14 q 2.93,-0.68 1.8,-3.47 -1.21,-2.96 -3.47,-5.07 a 1.03,1.03 0 0 1 -0.32,-0.91 q 0.16,-0.99 0.79,-1.76 c 15.95,7.88 22.94,-2.03 32.4,-12.4 q 0.71,-0.78 0.42,0.24 -0.73,2.49 -2.52,4.41 a 1.35,1.32 66.3 0 0 -0.35,0.93 l 0.01,0.78 a 0.66,0.64 7.3 0 0 0.48,0.61 c 3.56,0.96 9.97,-3.13 13.37,-4.6 q 9.84,-4.23 16.92,-12.74 a 1.1,1.09 45.9 0 0 0.02,-1.38 q -0.19,-0.24 -0.67,0.05 -7.79,4.79 -16.49,7.83 a 0.5,0.5 0 0 1 -0.66,-0.48 l 0.1,-16.23 a 1.91,1.91 0 0 1 1.83,-1.9 c 4.6,-0.19 10.72,-6.78 13.09,-10.48 q 0.36,-0.57 -0.3,-0.45 -6.88,1.23 -13.11,4.42 -0.48,0.25 -0.31,-0.27 0.98,-3.08 0.52,-6.09 0.43,0.61 1.15,0.57 a 1.06,1.05 -75.7 0 0 0.84,-0.5 q 3.35,-5.47 7.92,-9.99 a 1.03,1.01 -22.8 0 0 0.3,-0.72 v -0.57 q 2.42,-0.76 4.21,0.48 a 1.24,1.24 0 0 0 1.49,-0.06 q 4.89,-4 8.2,-9.38 a 0.74,0.73 -53 0 0 -0.13,-0.93 q -1.28,-1.17 -3.02,-0.69 c 4.5,-5.13 8.8,-11.12 12.96,-15.68 Q 189.26,12.26 203.31,0 Z M 67.97,190.25 c -1.45,-0.69 -7.06,14.57 -6.72,15.3 a 0.41,0.41 0 0 0 0.65,0.13 c 3,-2.75 5,-9.46 6.77,-13.56 a 1.44,1.44 0 0 0 -0.7,-1.87 z"
         inkscape:connector-curvature="0"
         style="fill:#dcdcdc" />
      <path
         id="path30568"
         d="m 300.81,0 h 16.5 l -6.62,0.41 a 1.81,1.77 -63.4 0 0 -0.9,0.31 c -5.94,4.03 -12.4,7.19 -17.98,11.49 q -3.9,3.01 -7.9,5.89 c -2.01,1.45 -3.48,3.3 -5.34,4.99 a 1.05,1.03 27.5 0 1 -0.85,0.26 q -2.69,-0.39 -3.91,0.72 -6.17,5.66 -12.56,11.06 c -2.2,1.86 -6.21,3.84 -8.53,7.18 a 0.27,0.27 0 0 1 -0.46,-0.03 c -0.43,-0.84 6.32,-7.69 8.76,-10.27 q 3.34,-3.53 7.02,-5.54 c 5.86,-3.2 11.04,-6.7 16.2,-10.94 5.7,-4.7 12.55,-9.16 18.17,-14.67 q 0.36,-0.35 -0.12,-0.48 z"
         inkscape:connector-curvature="0"
         style="fill:#ffffff" />
      <path
         id="path30570"
         d="m 323.06,0 h 10.25 l -0.65,0.35 q -0.87,0.46 0.12,0.45 l 2.86,-0.04 a 0.89,0.87 74.5 0 1 0.78,0.45 q 2.9,5.23 2.22,11.28 a 1.09,1.09 0 0 0 0.46,1.01 l 2.28,1.63 a 1.48,1.48 0 0 0 0.93,0.26 l 5.33,-0.38 a 0.61,0.61 0 0 1 0.64,0.7 l -0.44,3.01 a 0.39,0.39 0 0 1 -0.51,0.31 l -0.34,-0.12 a 0.36,0.35 23.7 0 1 -0.2,-0.5 q 0.72,-1.42 -0.1,-2.38 a 1.07,1.05 69.1 0 0 -0.8,-0.37 q -4.25,-0.04 -4.88,4.41 -0.34,2.41 1.93,3.29 l 18.31,7.04 q 0.48,0.19 0.82,0.58 c 2.39,2.77 5,0.74 5.58,-2.14 a 0.32,0.32 0 0 0 -0.38,-0.38 l -1.43,0.33 a 0.48,0.48 0 0 1 -0.59,-0.46 l -0.01,-0.38 a 0.52,0.52 0 0 1 0.47,-0.53 q 2.04,-0.23 2.93,-1.95 1.11,-2.15 2.15,0.04 l 1.84,3.86 a 0.62,0.62 0 0 1 -0.57,0.89 l -1.27,-0.02 q -0.82,-0.01 -0.25,0.58 c 3.13,3.2 7.82,1.89 11.3,0.51 q 2.21,-0.88 1.67,1.44 l -0.96,4.08 q -0.63,2.69 1.81,1.41 l 7.07,-3.69 a 1.46,1.43 -53.2 0 1 0.9,-0.14 c 1.71,0.32 3.74,-6.5 5.2,-5.92 a 0.45,0.44 -69.1 0 1 0.25,0.57 q -0.95,2.6 -0.67,5.46 a 0.35,0.35 0 0 0 0.5,0.28 c 5.7,-2.74 8.56,-7 13.24,-10.86 a 0.98,0.96 -56.8 0 1 0.87,-0.19 c 5.14,1.39 5.38,-3.2 9.67,-4.31 a 1.21,1.21 0 0 0 0.74,-0.57 l 2.17,-3.86 a 1.59,1.57 -33.3 0 0 0.2,-0.94 q -0.25,-2.31 -1.55,-4.23 a 1.02,1 -55 0 1 -0.14,-0.83 c 0.51,-1.82 4.7,-5.53 3.87,-1.68 -0.32,1.5 -1.36,3.69 0.35,4.72 a 0.73,0.72 40.7 0 0 0.85,-0.06 c 1.84,-1.54 -1.28,-3.75 1.22,-6.02 a 1.94,1.88 77.8 0 0 0.51,-0.82 Q 430.42,2.61 430.06,0 H 445 v 231 l -321.53,0.01 q 4.27,-10.68 7.59,-21.7 0.7,-2.33 3.99,-6.34 c 6.59,-8.04 9.25,-18.31 15.37,-26.82 a 1.43,1.41 -28.5 0 0 0.27,-0.89 q -0.03,-1.5 0.78,-2.8 3.43,-5.56 7.42,-10.79 l 0.19,4.23 a 1.26,1.2 -25.7 0 1 -0.33,0.88 c -1.96,2.12 -5.63,4.91 -6.46,7.65 q -0.44,1.46 0.8,0.58 l 6.04,-4.27 q 0.79,-0.56 0.8,0.41 l 0.24,26.11 a 0.61,0.6 76.2 0 0 0.88,0.54 q 6.03,-3.07 9.2,-8.96 0.26,-0.47 0.24,-1.02 l -0.63,-22.87 a 1.09,1.08 69.9 0 1 0.41,-0.89 l 5.11,-3.98 q 0.65,-0.5 0.51,0.31 -2.48,14.2 -2.3,26.12 0.1,7.36 7.14,10.24 a 1.11,1.09 -49 0 0 0.99,-0.08 l 2.42,-1.47 a 0.56,0.56 0 0 1 0.79,0.22 c 6.86,13.21 25.39,-7 24.64,-8.61 a 0.42,0.42 0 0 0 -0.58,-0.2 c -4.69,2.44 -8.6,5.88 -13.27,0.89 a 1.25,1.25 0 0 1 -0.33,-0.92 l 0.49,-8.39 a 1.52,1.52 0 0 1 1.18,-1.39 l 16.12,-3.59 a 0.44,0.44 0 0 1 0.53,0.34 l 5.62,26.68 a 0.44,0.44 0 0 0 0.66,0.29 c 4.61,-2.79 9.98,-7.4 8.63,-13.35 q -1.77,-7.75 -3.6,-15.54 -0.41,-1.74 0.85,-2.99 l 7.92,-7.83 a 0.46,0.46 0 0 0 -0.15,-0.75 c -0.82,-0.33 -8.25,1.9 -9.7,2.1 a 0.55,0.54 -5.9 0 1 -0.62,-0.5 l -1.27,-18.37 a 1.32,1.29 -25.6 0 1 0.36,-0.99 l 6.52,-6.79 q 0.76,-0.8 -0.34,-0.71 -3.03,0.25 -6.92,2.63 c -17.84,10.91 -30.08,25.66 -35.19,45.74 q -0.44,1.72 -1.34,0.19 c -2.67,-4.5 -1.36,-29.23 2.34,-33.23 5.39,-5.82 10.75,-9.77 13.67,-17.86 a 0.58,0.58 0 0 0 -0.28,-0.71 c -10.11,-5.12 -21.07,15.22 -22.93,22.6 a 1.1,1.07 82.2 0 1 -0.5,0.68 l -6.64,3.99 a 0.71,0.71 0 0 1 -1.07,-0.52 q -1.08,-8.77 -0.72,-17.56 0.06,-1.53 -0.3,-3 l 8.7,-8.29 a 1.49,1.48 19.4 0 1 0.86,-0.41 c 3.83,-0.45 14.07,-12.47 16.1,-15.96 q 3.74,-6.48 10.07,-10.69 a 2,1.93 86.2 0 0 0.67,-0.79 q 1.24,-2.69 3.36,-4.73 a 1.32,1.3 22.1 0 1 0.89,-0.37 l 1.35,-0.01 c -0.23,3.1 -1.42,13.13 2.34,14.38 4.46,1.48 10.25,-5.32 11.89,-8.77 q 0.68,-1.41 -0.86,-1.14 c -5.54,0.97 -3.13,-13.58 -3.04,-16.22 2.66,-0.66 4.54,-3.78 6.7,-6.85 a 1.02,1.01 15.6 0 1 0.77,-0.43 q 0.88,-0.06 1.11,-0.93 a 0.9,0.9 0 0 1 0.61,-0.65 q 0.54,-0.17 1.06,0.11 c -1.88,10.57 -1.3,20.82 -1.28,31.23 a 0.69,0.69 0 0 0 0.49,0.66 c 3.58,1.14 11.55,-7.18 14.16,-10.4 a 0.8,0.8 0 0 0 0.02,-0.97 q -0.75,-1.05 0.05,-1.91 a 0.57,0.57 0 0 1 0.84,0 c 5.51,5.9 10.82,-0.75 14.39,-4.48 q 2.06,-2.16 -0.75,-3.15 -3.72,-1.3 -6.06,-4.29 a 0.99,0.98 -46.1 0 1 -0.02,-1.2 L 267.11,62.6 q 0.51,-0.69 0.38,0.16 c -1.9,12.61 -4.33,24.29 -4.52,38.46 -0.05,3.53 0.46,6.24 3.11,8.32 a 1.2,1.18 49.3 0 0 1.32,0.11 q 5.72,-3.12 8.92,-8.79 a 0.57,0.57 0 0 0 -0.12,-0.71 c -2.03,-1.78 -3.3,-3.08 -3.26,-6.06 q 0.23,-20.42 4.87,-40.33 0.26,-1.13 -0.24,-4.37 a 0.36,0.36 0 0 0 -0.53,-0.26 q -4.55,2.49 -8.72,7.45 -10.9,12.96 -17.04,21.54 -0.29,0.41 -0.49,-0.05 -3.63,-8.42 -5.7,-16.87 7.05,-3.81 10.8,-10.7 1.09,-2 2.62,-3.21 7.73,-6.11 14.85,-12.88 C 283.41,24.84 295.07,17.28 305.87,8.6 q 3.71,-2.99 7.93,-5.22 C 315.27,2.6 324.07,1.11 324.11,0.97 A 0.52,0.51 -75.3 0 0 323.75,0.34 Q 323.33,0.24 323.06,0 Z m 7.2,0.77 c -2.07,-0.39 -3.59,-0.42 -4.87,1.41 q -0.38,0.54 0.28,0.47 l 4.11,-0.44 a 0.77,0.76 1.5 0 0 0.66,-0.62 l 0.07,-0.45 a 0.33,0.32 -79.8 0 0 -0.25,-0.37 z m 44.24,50.03 0.01,0.49 a 1.28,1.25 66.2 0 1 -0.33,0.88 c -2.4,2.63 -7.28,6.8 -8.05,10.23 q -0.2,0.87 0.55,0.38 l 3.79,-2.54 q 0.61,-0.41 0.3,0.26 c -5.16,11.22 -8.53,21.75 -8.74,33.24 -0.29,15.32 20.8,15.31 29.2,8.24 9.04,-7.61 14.77,-14.36 16.26,-26.48 1.1,-9.03 1.65,-19.28 -4.05,-26.44 -4.5,-5.66 -11.68,-7.21 -18.32,-4.85 q -1.06,0.38 -0.78,-0.71 c 1.29,-4.96 -4.38,-3.65 -6.77,-3.17 -13.39,2.69 -28.43,5.46 -39.17,13.38 q -0.52,0.38 -0.47,-0.26 0.58,-7.94 -1.9,-15.48 a 0.98,0.96 -3.9 0 0 -0.76,-0.65 q -3.39,-0.56 -6.88,1.55 c -14.32,8.7 -18.26,20.69 -17.19,36.85 a 1.19,1.17 -26.8 0 1 -0.3,0.88 c -3.11,3.56 -6.76,6.17 -9.57,10.33 -4.28,6.32 -5.32,13.92 0.85,19.26 4.64,4.01 12.29,5.65 17.75,2.5 13.31,-7.67 16.05,-26.57 17.99,-39.65 a 0.98,0.96 80.5 0 1 0.51,-0.73 l 9.78,-5.19 q 0.47,-0.25 0.42,0.28 c -0.61,6.4 -3.04,36.74 0.86,40.57 q 2.08,2.05 4.11,-0.04 l 6.68,-6.84 a 1.64,1.63 70 0 0 0.44,-0.95 q 0.29,-2.91 -2.14,-4.35 A 1.25,1.22 9.1 0 1 358,91.01 Q 357.47,88.79 357.46,86.5 357.4,71.23 358.51,56 c 0.44,-5.99 11.85,-6.07 15.49,-5.73 a 0.54,0.54 0 0 1 0.5,0.53 z M 247.03,188.47 c -1.16,-15.4 0.03,-32.12 -0.05,-46.74 a 0.69,0.68 76.5 0 0 -0.99,-0.61 c -5.88,2.91 -9.04,6.6 -8.96,13.38 0.14,12.93 -1.37,27.54 -0.47,41.39 a 1.13,1.11 -24.6 0 1 -0.33,0.86 c -3.68,3.64 -9.76,9.51 -9.25,15.08 q 0.2,2.12 2.22,1.46 c 10.56,-3.45 19.31,-10.44 28.15,-19.02 a 1.23,1.23 0 0 1 0.87,-0.36 c 9.04,-0.15 9.45,10.1 8.61,16.47 a 0.89,0.89 0 0 1 -1.34,0.64 c -2.34,-1.43 -0.59,-6.65 -0.86,-9.29 a 0.34,0.34 0 0 0 -0.5,-0.27 q -8.62,4.59 -10.12,14.16 c -0.16,1.02 0.15,3.56 0.68,4.24 q 1.6,2.06 3.93,0.89 c 7.89,-3.95 18.2,-12.1 18.56,-21.54 a 0.32,0.32 0 0 1 0.46,-0.27 c 6.26,3.15 13.36,3.43 19.27,-0.78 11.56,-8.22 21.56,-21.24 24.01,-35.48 q 1.22,-7.12 0.47,-12.5 c -1.4,-10 -11.75,-16.14 -21.03,-16.25 -5.56,-0.06 -9,0.05 -12.72,3.95 q -8.56,8.96 -13.01,19.07 a 0.15,0.15 0 0 1 -0.24,0.06 l -0.25,-0.23 a 0.75,0.75 0 0 1 -0.25,-0.6 q 0.62,-10.1 -0.24,-20.17 c -0.4,-4.62 -2.33,-8.91 -7.92,-8.01 -8.82,1.43 -22.22,3.99 -25.87,13.59 q -0.18,0.48 0.31,0.34 c 6.72,-1.83 11.69,-4.19 19.57,-3.94 a 1.61,1.61 0 0 1 0.9,0.32 c 5.23,4.01 3.7,22.44 2.89,29.2 q -0.95,8 -4.99,17 a 0.88,0.87 -82.7 0 1 -0.64,0.5 q -5.5,1.01 -10.36,3.74 a 0.35,0.34 73.5 0 1 -0.51,-0.28 z"
         inkscape:connector-curvature="0"
         style="fill:#ffffff" />
      <path
         id="path30572"
         d="m 333.31,0 h 96.75 q 0.36,2.61 -0.45,5.17 a 1.94,1.88 77.8 0 1 -0.51,0.82 c -2.5,2.27 0.62,4.48 -1.22,6.02 a 0.73,0.72 40.7 0 1 -0.85,0.06 c -1.71,-1.03 -0.67,-3.22 -0.35,-4.72 0.83,-3.85 -3.36,-0.14 -3.87,1.68 a 1.02,1 -55 0 0 0.14,0.83 q 1.3,1.92 1.55,4.23 a 1.59,1.57 -33.3 0 1 -0.2,0.94 l -2.17,3.86 a 1.21,1.21 0 0 1 -0.74,0.57 c -4.29,1.11 -4.53,5.7 -9.67,4.31 a 0.98,0.96 -56.8 0 0 -0.87,0.19 c -4.68,3.86 -7.54,8.12 -13.24,10.86 a 0.35,0.35 0 0 1 -0.5,-0.28 q -0.28,-2.86 0.67,-5.46 a 0.45,0.44 -69.1 0 0 -0.25,-0.57 c -1.46,-0.58 -3.49,6.24 -5.2,5.92 a 1.46,1.43 -53.2 0 0 -0.9,0.14 l -7.07,3.69 q -2.44,1.28 -1.81,-1.41 l 0.96,-4.08 q 0.54,-2.32 -1.67,-1.44 c -3.48,1.38 -8.17,2.69 -11.3,-0.51 q -0.57,-0.59 0.25,-0.58 l 1.27,0.02 a 0.62,0.62 0 0 0 0.57,-0.89 l -1.84,-3.86 q -1.04,-2.19 -2.15,-0.04 -0.89,1.72 -2.93,1.95 a 0.52,0.52 0 0 0 -0.47,0.53 l 0.01,0.38 a 0.48,0.48 0 0 0 0.59,0.46 l 1.43,-0.33 a 0.32,0.32 0 0 1 0.38,0.38 c -0.58,2.88 -3.19,4.91 -5.58,2.14 q -0.34,-0.39 -0.82,-0.58 l -18.31,-7.04 q -2.27,-0.88 -1.93,-3.29 0.63,-4.45 4.88,-4.41 a 1.07,1.05 69.1 0 1 0.8,0.37 q 0.82,0.96 0.1,2.38 a 0.36,0.35 23.7 0 0 0.2,0.5 l 0.34,0.12 a 0.39,0.39 0 0 0 0.51,-0.31 l 0.44,-3.01 a 0.61,0.61 0 0 0 -0.64,-0.7 l -5.33,0.38 a 1.48,1.48 0 0 1 -0.93,-0.26 L 339.1,13.5 a 1.09,1.09 0 0 1 -0.46,-1.01 q 0.68,-6.05 -2.22,-11.28 a 0.89,0.87 74.5 0 0 -0.78,-0.45 l -2.86,0.04 q -0.99,0.01 -0.12,-0.45 z m 79.7542,21.1444 a 1.36,1.21 -5.3 0 0 -1.466,-1.0792 1.36,1.21 -5.3 0 0 -1.2424,1.3304 1.36,1.21 -5.3 0 0 1.466,1.0792 1.36,1.21 -5.3 0 0 1.2424,-1.3304 z"
         inkscape:connector-curvature="0"
         style="fill:#dcdcdc" />
      <path
         id="path30574"
         d="m 325.39,2.18 c 1.28,-1.83 2.8,-1.8 4.87,-1.41 a 0.33,0.32 -79.8 0 1 0.25,0.37 l -0.07,0.45 a 0.77,0.76 1.5 0 1 -0.66,0.62 l -4.11,0.44 q -0.66,0.07 -0.28,-0.47 z"
         inkscape:connector-curvature="0"
         style="fill:#dcdcdc" />
      <path
         id="path30576"
         d="m 131.46,64.75 -5.71,6.96 -5.05,3.89 a 0.42,0.42 0 0 1 -0.63,-0.15 q -0.51,-1.07 0.09,-1.81 5.7,-7.04 6.62,-15.04 c 0.35,-2.98 1.02,-5.24 -2.78,-5.53 -8.75,-0.67 -12.04,5.91 -15.49,12.57 q -8.15,15.72 -4.23,33.55 6.55,4.76 13.51,5.17 c 7.82,0.45 12.23,-14.93 13.17,-21.61 l -0.12,-5.13 c 0.12,-4.68 -0.12,-7.69 1.87,-12.12 6.99,-11.1 18.01,-20.73 31.04,-23.79 q 1.74,-0.48 3.02,0.69 a 0.74,0.73 -53 0 1 0.13,0.93 q -3.31,5.38 -8.2,9.38 a 1.24,1.24 0 0 1 -1.49,0.06 Q 155.42,51.53 153,52.29 c -5.05,0.83 -12.27,4.75 -12,10.71 a 0.54,0.54 0 0 0 0.55,0.52 l 1.24,-0.02 q 0.46,3.01 -0.52,6.09 -0.17,0.52 0.31,0.27 6.23,-3.19 13.11,-4.42 0.66,-0.12 0.3,0.45 c -2.37,3.7 -8.49,10.29 -13.09,10.48 a 1.91,1.91 0 0 0 -1.83,1.9 l -0.1,16.23 a 0.5,0.5 0 0 0 0.66,0.48 q 8.7,-3.04 16.49,-7.83 0.48,-0.29 0.67,-0.05 a 1.1,1.09 45.9 0 1 -0.02,1.38 q -7.08,8.51 -16.92,12.74 c -3.4,1.47 -9.81,5.56 -13.37,4.6 A 0.66,0.64 7.3 0 1 128,105.21 l -0.01,-0.78 a 1.35,1.32 66.3 0 1 0.35,-0.93 q 1.79,-1.92 2.52,-4.41 0.29,-1.02 -0.42,-0.24 c -9.46,10.37 -16.45,20.28 -32.4,12.4 -6.54,-4.03 -4,-7.68 -5.41,-13.81 q -0.11,-0.5 -0.37,-0.05 -6.24,11.06 -14.99,16.37 c -4.01,2.44 -14.07,2.98 -13.24,-4.83 q 0.15,-1.42 -0.89,-0.44 C 55.58,115.6 48.38,121.68 38.15,115.73 32.24,112.3 28.07,104.68 27.5,98 24.9,67.45 29.44,31.19 57.36,12.83 q 1.86,-1.23 4.07,-1.55 6.54,-0.95 13.06,-1.38 c 5.42,-0.36 5.42,3.2 5.63,7.59 0.51,10.58 -1.03,20.88 -11.34,25.99 Q 66.36,44.67 66.16,41.98 65.8,37.13 66.13,32.6 C 66.4,28.86 73.97,23.06 67.43,20.21 38.55,7.62 36.49,68.7 36.8,82.44 c 0.3,13.18 5.62,26.51 21.43,25.59 a 1.48,1.47 -67 0 0 0.88,-0.36 c 2.97,-2.62 4.33,-5.46 4.59,-9.68 0.82,-13.02 2.81,-33.39 10.6,-43.43 3.51,-4.52 8.74,-9.29 14.95,-8.61 7.59,0.84 10.46,5.63 10.97,13.03 0.13,1.79 -0.35,10.32 0.03,10.73 a 0.41,0.41 0 0 0 0.67,-0.07 Q 109.44,53.9 124.77,45 c 3.35,-1.94 6.24,-2.09 9.92,-1.54 q 2.38,0.37 2.38,2.78 -0.01,9.72 -5.61,18.51 z M 89.99,66.16 C 89.59,60.91 87.3,56.96 81.7,56.13 a 0.53,0.52 5.9 0 0 -0.61,0.49 q -0.8,15.83 -5.28,30.94 c -1.52,5.14 -0.7,10.99 -0.53,16.28 a 0.83,0.82 5.4 0 0 0.65,0.78 l 4.38,0.95 q 2.02,0.44 3.02,-1.37 c 6.53,-11.87 7.68,-24.76 6.66,-38.04 z"
         inkscape:connector-curvature="0"
         style="fill:#020202" />
      <ellipse
         id="ellipse30578"
         ry="1.21"
         rx="1.36"
         transform="rotate(-5.3,435.63087,-4436.9919)"
         cy="0"
         cx="0"
         style="fill:#ffffff" />
      <path
         id="path30580"
         d="M 374,50.27 C 370.36,49.93 358.95,50.01 358.51,56 q -1.11,15.23 -1.05,30.5 0.01,2.29 0.54,4.51 a 1.25,1.22 9.1 0 0 0.58,0.78 q 2.43,1.44 2.14,4.35 a 1.64,1.63 70 0 1 -0.44,0.95 l -6.68,6.84 q -2.03,2.09 -4.11,0.04 c -3.9,-3.83 -1.47,-34.17 -0.86,-40.57 q 0.05,-0.53 -0.42,-0.28 l -9.78,5.19 a 0.98,0.96 80.5 0 0 -0.51,0.73 c -1.94,13.08 -4.68,31.98 -17.99,39.65 -5.46,3.15 -13.11,1.51 -17.75,-2.5 -6.17,-5.34 -5.13,-12.94 -0.85,-19.26 2.81,-4.16 6.46,-6.77 9.57,-10.33 a 1.19,1.17 -26.8 0 0 0.3,-0.88 c -1.07,-16.16 2.87,-28.15 17.19,-36.85 q 3.49,-2.11 6.88,-1.55 a 0.98,0.96 -3.9 0 1 0.76,0.65 q 2.48,7.54 1.9,15.48 -0.05,0.64 0.47,0.26 c 10.74,-7.92 25.78,-10.69 39.17,-13.38 2.39,-0.48 8.06,-1.79 6.77,3.17 q -0.28,1.09 0.78,0.71 c 6.64,-2.36 13.82,-0.81 18.32,4.85 5.7,7.16 5.15,17.41 4.05,26.44 -1.49,12.12 -7.22,18.87 -16.26,26.48 -8.4,7.07 -29.49,7.08 -29.2,-8.24 0.21,-11.49 3.58,-22.02 8.74,-33.24 q 0.31,-0.67 -0.3,-0.26 l -3.79,2.54 q -0.75,0.49 -0.55,-0.38 c 0.77,-3.43 5.65,-7.6 8.05,-10.23 a 1.28,1.25 66.2 0 0 0.33,-0.88 L 374.5,50.8 A 0.54,0.54 0 0 0 374,50.27 Z m -48.5,-3.29 c -5.03,-1.95 -4.48,20.09 -4.32,22.54 a 0.46,0.46 0 0 0 0.61,0.4 q 3.02,-1.04 5.62,-2.84 a 1.15,1.15 0 0 0 0.49,-0.88 q 0.59,-9.4 -1.74,-18.48 a 1.08,1.08 0 0 0 -0.66,-0.74 z m 54.45,6.92 c -4.3,9.88 -7.74,20.1 -8.01,30.98 -0.14,5.62 2.94,9.52 8.22,10.83 4.26,1.05 9.39,1.59 13.61,-0.23 a 1.41,1.39 1.6 0 0 0.7,-0.65 q 1.99,-3.94 2.8,-9.82 c 1.78,-12.91 1.72,-32.23 -16.54,-31.63 a 0.87,0.86 11 0 0 -0.78,0.52 z m -28.33,0.19 -12.95,4.29 a 0.98,0.98 0 0 0 -0.68,0.93 l 0.01,2.68 a 0.43,0.42 79.3 0 0 0.58,0.4 q 6.99,-2.73 13.36,-6.72 a 0.69,0.69 0 0 0 0.26,-0.88 l -0.26,-0.56 a 0.27,0.26 68.4 0 0 -0.32,-0.14 z m -42.85,29.79 c -3.24,8.76 4.56,16.96 13.27,16.03 a 0.89,0.88 9.2 0 0 0.72,-0.51 c 3.14,-6.65 4.33,-16.87 5.33,-24.32 a 0.97,0.97 0 0 0 -1.33,-1.03 q -8.33,3.42 -16.2,7.76 a 3.92,3.91 85.9 0 0 -1.79,2.07 z"
         inkscape:connector-curvature="0"
         style="fill:#020202" />
      <ellipse
         id="ellipse30582"
         ry="0.51999998"
         rx="3.24"
         transform="rotate(-41.2,133.30159,-183.26772)"
         cy="0"
         cx="0"
         style="fill:#dcdcdc" />
      <path
         id="path30584"
         d="m 221.04,84.75 c -0.09,2.64 -2.5,17.19 3.04,16.22 q 1.54,-0.27 0.86,1.14 c -1.64,3.45 -7.43,10.25 -11.89,8.77 -3.76,-1.25 -2.57,-11.28 -2.34,-14.38 l 0.51,-7.93 q 0.1,-1.61 -1,-0.43 -8.27,8.85 -17.84,16.3 a 0.97,0.94 69.5 0 0 -0.36,0.83 c 0.29,3.9 0.12,7.16 -2.35,10.44 -2.65,3.52 -8.41,9.94 -13.01,10.32 a 1.62,1.6 -5.3 0 1 -1.74,-1.43 q -1.07,-9.86 5.3,-17.17 a 1.05,1.05 0 0 0 0.23,-0.94 c -1.23,-5.07 -6.08,-8.06 -10.01,-2.94 -3.68,4.81 -8.29,6.96 -13.06,10.47 q -2.74,2.01 -6.01,3.25 a 0.91,0.9 -20.1 0 1 -1.17,-0.54 c -1.87,-5.14 6.01,-12.59 9.51,-15.74 a 3.39,3.38 69.9 0 0 1.11,-2.39 l 1.12,-37.19 a 0.61,0.61 0 0 0 -0.59,-0.63 l -0.75,-0.03 a 0.48,0.48 0 0 1 -0.45,-0.54 c 0.5,-4.29 9.65,-11.23 13.14,-13.55 5.05,-3.36 8.31,-5.55 13.87,-5.14 a 0.72,0.7 -0.4 0 1 0.65,0.63 c 1.77,17.6 -3.52,32.85 -11.59,48.35 a 0.34,0.34 0 0 0 0.3,0.5 l 8.17,0.01 q 2.32,0 3.64,1.9 2.17,3.12 2.93,6.85 a 0.62,0.62 0 0 0 0.95,0.38 c 5.62,-3.76 17.37,-12.75 19.82,-18.95 q 0.73,-1.82 -1.17,-1.3 c -7.28,2.02 -15.11,5.64 -22.79,5.27 a 1.08,1.08 0 0 1 -0.97,-1.45 q 5.64,-15.51 19.81,-23.8 a 0.41,0.4 -21.4 0 1 0.6,0.26 q 0.57,2.43 -1.34,4.01 c -4.48,3.71 -7.83,5.95 -8.88,10.76 a 0.47,0.47 0 0 0 0.47,0.57 q 7.53,-0.13 14.24,-3.56 a 1.08,1.06 -10.4 0 0 0.57,-0.81 q 0.81,-7.1 0.42,-11.37 c -0.41,-4.46 5.1,-9.35 9.33,-11.18 a 0.37,0.37 0 0 1 0.51,0.31 q 0.42,4.72 0.18,7.1 -1.41,14.35 -1.97,28.75 z M 172.18,52.76 c -0.32,3.98 -1.75,33.85 -0.96,34.18 a 0.46,0.46 0 0 0 0.61,-0.26 c 4.67,-12.2 7.3,-22.07 6.07,-34.88 a 0.63,0.62 82.1 0 0 -0.74,-0.56 l -4.43,0.89 a 0.7,0.68 86.8 0 0 -0.55,0.63 z m -11.7176,54.37 a 1.46,0.49 90.3 0 0 0.4976,-1.4574 1.46,0.49 90.3 0 0 -0.4824,-1.4626 1.46,0.49 90.3 0 0 -0.4976,1.4574 1.46,0.49 90.3 0 0 0.4824,1.4626 z"
         inkscape:connector-curvature="0"
         style="fill:#020202" />
      <path
         id="path30586"
         d="m 321.18,69.52 c -0.16,-2.45 -0.71,-24.49 4.32,-22.54 a 1.08,1.08 0 0 1 0.66,0.74 q 2.33,9.08 1.74,18.48 a 1.15,1.15 0 0 1 -0.49,0.88 q -2.6,1.8 -5.62,2.84 a 0.46,0.46 0 0 1 -0.61,-0.4 z"
         inkscape:connector-curvature="0"
         style="fill:#ffffff" />
      <path
         id="path30588"
         d="m 245.09,61.2 q 2.07,8.45 5.7,16.87 0.2,0.46 0.49,0.05 6.14,-8.58 17.04,-21.54 4.17,-4.96 8.72,-7.45 a 0.36,0.36 0 0 1 0.53,0.26 q 0.5,3.24 0.24,4.37 -4.64,19.91 -4.87,40.33 c -0.04,2.98 1.23,4.28 3.26,6.06 a 0.57,0.57 0 0 1 0.12,0.71 q -3.2,5.67 -8.92,8.79 a 1.2,1.18 49.3 0 1 -1.32,-0.11 c -2.65,-2.08 -3.16,-4.79 -3.11,-8.32 0.19,-14.17 2.62,-25.85 4.52,-38.46 q 0.13,-0.85 -0.38,-0.16 l -13.98,18.89 a 0.99,0.98 -46.1 0 0 0.02,1.2 q 2.34,2.99 6.06,4.29 2.81,0.99 0.75,3.15 c -3.57,3.73 -8.88,10.38 -14.39,4.48 a 0.57,0.57 0 0 0 -0.84,0 q -0.8,0.86 -0.05,1.91 a 0.8,0.8 0 0 1 -0.02,0.97 c -2.61,3.22 -10.58,11.54 -14.16,10.4 a 0.69,0.69 0 0 1 -0.49,-0.66 C 229.99,96.82 229.41,86.57 231.29,76 l 2.06,-9.37 a 1.72,1.71 39.8 0 0 -0.1,-1.05 l -2.01,-4.55 q -1.04,-2.36 0.62,-4.34 c 1.37,-1.63 6.34,-7.22 8.41,-6.84 a 0.73,0.72 0.6 0 1 0.59,0.6 l 0.17,0.98 a 0.35,0.35 0 0 0 0.56,0.22 l 4.69,-3.6 q 1.47,-1.14 0.76,0.58 c -1.58,3.77 -3.99,8.51 -1.95,12.57 z m -3.45,30.6 q 0.65,-2.44 -0.94,-4.54 -0.69,-0.91 -0.7,0.23 l -0.02,4.29 q -0.03,6.3 1.66,0.02 z"
         inkscape:connector-curvature="0"
         style="fill:#020202" />
      <path
         id="path30590"
         d="m 171.22,86.94 c -0.79,-0.33 0.64,-30.2 0.96,-34.18 a 0.7,0.68 86.8 0 1 0.55,-0.63 l 4.43,-0.89 a 0.63,0.62 82.1 0 1 0.74,0.56 c 1.23,12.81 -1.4,22.68 -6.07,34.88 a 0.46,0.46 0 0 1 -0.61,0.26 z"
         inkscape:connector-curvature="0"
         style="fill:#dcdcdc" />
      <path
         id="path30592"
         d="m 153,52.29 v 0.57 a 1.03,1.01 -22.8 0 1 -0.3,0.72 q -4.57,4.52 -7.92,9.99 a 1.06,1.05 -75.7 0 1 -0.84,0.5 q -0.72,0.04 -1.15,-0.57 l -1.24,0.02 A 0.54,0.54 0 0 1 141,63 c -0.27,-5.96 6.95,-9.88 12,-10.71 z"
         inkscape:connector-curvature="0"
         style="fill:#ffffff" />
      <path
         id="path30594"
         d="m 125.75,71.71 q 1.2,1.26 -0.05,2.5 -4.68,4.64 -8.42,10.1 a 1.67,1.58 4.5 0 1 -0.73,0.59 c -2.23,0.91 -7.86,9.79 -9.51,12.15 q -0.26,1.12 -2.76,2.14 -3.92,-17.83 4.23,-33.55 c 3.45,-6.66 6.74,-13.24 15.49,-12.57 3.8,0.29 3.13,2.55 2.78,5.53 q -0.92,8 -6.62,15.04 -0.6,0.74 -0.09,1.81 a 0.42,0.42 0 0 0 0.63,0.15 z"
         inkscape:connector-curvature="0"
         style="fill:#ffffff" />
      <path
         id="path30596"
         d="m 379.95,53.9 a 0.87,0.86 11 0 1 0.78,-0.52 c 18.26,-0.6 18.32,18.72 16.54,31.63 q -0.81,5.88 -2.8,9.82 a 1.41,1.39 1.6 0 1 -0.7,0.65 c -4.22,1.82 -9.35,1.28 -13.61,0.23 -5.28,-1.31 -8.36,-5.21 -8.22,-10.83 0.27,-10.88 3.71,-21.1 8.01,-30.98 z"
         inkscape:connector-curvature="0"
         style="fill:#ffffff" />
      <path
         id="path30598"
         d="m 351.62,54.09 a 0.27,0.26 68.4 0 1 0.32,0.14 l 0.26,0.56 a 0.69,0.69 0 0 1 -0.26,0.88 q -6.37,3.99 -13.36,6.72 A 0.43,0.42 79.3 0 1 338,61.99 l -0.01,-2.68 a 0.98,0.98 0 0 1 0.68,-0.93 z"
         inkscape:connector-curvature="0"
         style="fill:#ffffff" />
      <path
         id="path30600"
         d="m 81.7,56.13 c 5.6,0.83 7.89,4.78 8.29,10.03 1.02,13.28 -0.13,26.17 -6.66,38.04 q -1,1.81 -3.02,1.37 l -4.38,-0.95 a 0.83,0.82 5.4 0 1 -0.65,-0.78 C 75.11,98.55 74.29,92.7 75.81,87.56 q 4.48,-15.11 5.28,-30.94 a 0.53,0.52 5.9 0 1 0.61,-0.49 z"
         inkscape:connector-curvature="0"
         style="fill:#ffffff" />
      <path
         id="path30602"
         d="m 131.46,64.75 0.05,0.34 a 0.44,0.43 -2.4 0 0 0.41,0.37 l 0.79,0.04 c -1.99,4.43 -1.75,7.44 -1.87,12.12 -2.75,3.1 -5.65,7.12 -6.88,11.09 q -0.25,0.83 0.43,0.3 3.67,-2.8 6.57,-6.26 c -0.94,6.68 -5.35,22.06 -13.17,21.61 q -6.96,-0.41 -13.51,-5.17 2.5,-1.02 2.76,-2.14 c 1.65,-2.36 7.28,-11.24 9.51,-12.15 a 1.67,1.58 4.5 0 0 0.73,-0.59 q 3.74,-5.46 8.42,-10.1 1.25,-1.24 0.05,-2.5 z"
         inkscape:connector-curvature="0"
         style="fill:#dcdcdc" />
      <path
         id="path30604"
         d="m 308.77,83.88 a 3.92,3.91 85.9 0 1 1.79,-2.07 q 7.87,-4.34 16.2,-7.76 a 0.97,0.97 0 0 1 1.33,1.03 c -1,7.45 -2.19,17.67 -5.33,24.32 a 0.89,0.88 9.2 0 1 -0.72,0.51 c -8.71,0.93 -16.51,-7.27 -13.27,-16.03 z"
         inkscape:connector-curvature="0"
         style="fill:#ffffff" />
      <path
         id="path30606"
         d="m 130.84,77.62 0.12,5.13 q -2.9,3.46 -6.57,6.26 -0.68,0.53 -0.43,-0.3 c 1.23,-3.97 4.13,-7.99 6.88,-11.09 z"
         inkscape:connector-curvature="0"
         style="fill:#ffffff" />
      <path
         id="path30608"
         d="m 241.64,91.8 q -1.69,6.28 -1.66,-0.02 L 240,87.49 q 0.01,-1.14 0.7,-0.23 1.59,2.1 0.94,4.54 z"
         inkscape:connector-curvature="0"
         style="fill:#ffffff" />
      <ellipse
         id="ellipse30610"
         ry="0.49000001"
         rx="1.46"
         transform="rotate(90.3,27.675922,132.65099)"
         cy="0"
         cx="0"
         style="fill:#dcdcdc" />
      <path
         id="path30612"
         d="m 247.54,188.75 q 4.86,-2.73 10.36,-3.74 a 0.88,0.87 -82.7 0 0 0.64,-0.5 q 4.04,-9 4.99,-17 c 0.81,-6.76 2.34,-25.19 -2.89,-29.2 a 1.61,1.61 0 0 0 -0.9,-0.32 c -7.88,-0.25 -12.85,2.11 -19.57,3.94 q -0.49,0.14 -0.31,-0.34 c 3.65,-9.6 17.05,-12.16 25.87,-13.59 5.59,-0.9 7.52,3.39 7.92,8.01 q 0.86,10.07 0.24,20.17 a 0.75,0.75 0 0 0 0.25,0.6 l 0.25,0.23 a 0.15,0.15 0 0 0 0.24,-0.06 q 4.45,-10.11 13.01,-19.07 c 3.72,-3.9 7.16,-4.01 12.72,-3.95 9.28,0.11 19.63,6.25 21.03,16.25 q 0.75,5.38 -0.47,12.5 c -2.45,14.24 -12.45,27.26 -24.01,35.48 -5.91,4.21 -13.01,3.93 -19.27,0.78 a 0.32,0.32 0 0 0 -0.46,0.27 c -0.36,9.44 -10.67,17.59 -18.56,21.54 q -2.33,1.17 -3.93,-0.89 c -0.53,-0.68 -0.84,-3.22 -0.68,-4.24 q 1.5,-9.57 10.12,-14.16 a 0.34,0.34 0 0 1 0.5,0.27 c 0.27,2.64 -1.48,7.86 0.86,9.29 a 0.89,0.89 0 0 0 1.34,-0.64 c 0.84,-6.37 0.43,-16.62 -8.61,-16.47 a 1.23,1.23 0 0 0 -0.87,0.36 c -8.84,8.58 -17.59,15.57 -28.15,19.02 q -2.02,0.66 -2.22,-1.46 c -0.51,-5.57 5.57,-11.44 9.25,-15.08 a 1.13,1.11 -24.6 0 0 0.33,-0.86 c -0.9,-13.85 0.61,-28.46 0.47,-41.39 -0.08,-6.78 3.08,-10.47 8.96,-13.38 a 0.69,0.68 76.5 0 1 0.99,0.61 c 0.08,14.62 -1.11,31.34 0.05,46.74 a 0.35,0.34 73.5 0 0 0.51,0.28 z m 41.53,-44.97 q -6.04,18.47 -5.1,37.53 c 0.44,9.06 7.57,10.78 15.26,9.76 3.06,-0.4 4.55,-2.42 6.01,-4.85 q 7.82,-12.99 5.73,-28.23 c -1.31,-9.5 -13.3,-14.58 -21.63,-14.41 a 0.3,0.28 -79.8 0 0 -0.27,0.2 z m -20.38,32.16 q -1.38,1.74 -4.24,8.37 -0.25,0.58 0.37,0.44 4.52,-1 8.62,0.91 a 0.37,0.37 0 0 0 0.52,-0.34 l 0.12,-13.06 q 0.01,-0.43 -0.35,-0.19 -4.31,2.94 -5.04,3.87 z M 251.5,195 c -6.43,-1.36 -8.02,7.27 -12.6,6.95 a 0.77,0.75 -10.5 0 1 -0.64,-0.43 l -0.5,-1.03 q -1.11,-2.28 -0.8,0.24 l 0.23,1.82 a 1.05,1.03 76.6 0 0 1.38,0.86 q 7.54,-2.73 13.52,-8.08 a 0.31,0.31 0 0 0 -0.08,-0.52 q -0.28,-0.14 -0.51,0.19 z"
         inkscape:connector-curvature="0"
         style="fill:#020202" />
      <path
         id="path30614"
         d="m 135,180.12 q -0.04,3.15 -2.04,4.63 c -7.7,7.83 -27.4,17.68 -37.97,15.28 q -1.23,-0.28 -1.27,-1.84 a 1.06,1.06 0 0 0 -0.39,-0.8 c -2.15,-1.76 -1.25,-9.08 -1.52,-12.15 q -0.05,-0.65 -0.36,-0.07 -4.01,7.53 -11.52,11.71 -1.65,0.92 -3.05,-0.35 c -6.68,-6.07 -5.07,-19.52 -4.89,-30.02 a 0.38,0.37 82.6 0 0 -0.47,-0.37 q -4.29,1.21 -7.15,3.28 c -2.43,0.28 -2.35,1 -2.38,2.78 q -0.16,8.9 0.3,17.8 c -0.57,4.75 -3.51,7.33 -7.04,10.21 q -1.12,0.94 -1.96,1 a 1.19,1.19 0 0 1 -1.27,-1.19 l -0.03,-26.27 a 0.82,0.82 0 0 0 -1,-0.8 q -1.5,0.34 -2.71,-0.41 a 0.58,0.58 0 0 1 -0.17,-0.84 l 3.63,-5.06 a 1.64,1.58 -29.2 0 0 0.3,-0.99 c -0.11,-4.44 -1.08,-14.3 1.35,-17.92 q 2.95,-4.39 7.84,-6.76 a 0.54,0.53 -12.9 0 1 0.77,0.48 v 20.59 a 0.42,0.42 0 0 0 0.52,0.41 l 7.65,-1.95 q 2.39,-0.6 2.23,-3.07 -1.3,-19.62 16.54,-25.96 c 9.68,7.52 -1.17,20.09 -6.59,25.94 a 1.37,1.31 68.8 0 0 -0.36,0.87 c -0.36,7.97 -0.75,19.08 2.08,26.55 q 0.17,0.46 0.36,0 c 3.62,-8.51 5.18,-19.19 6.77,-28.31 q 0.52,-2.98 1.94,-5.21 c 6.52,-10.22 21.15,-24.62 34.67,-22.28 a 2.55,2.54 -6.5 0 1 1.9,1.51 c 2.59,6.06 -4.23,10.77 -8.17,14.27 q -1.02,0.91 -1.16,-0.45 l -0.53,-4.87 a 0.92,0.9 90 0 0 -0.8,-0.81 c -5.53,-0.59 -16.55,1.22 -17.04,8.56 q -0.56,8.23 0.1,15.72 a 0.96,0.96 0 0 0 1.26,0.82 l 17.75,-5.97 a 1.17,1.17 0 0 1 1.54,1.01 l 0.13,1.47 a 1.43,1.42 -30.4 0 1 -0.25,0.95 q -6.37,9.13 -13.6,17.6 c -2.38,2.79 -4.09,5.62 -5.03,8.81 q -0.72,2.44 1.8,2.74 4.4,0.52 8.49,-0.82 10.93,-3.58 20.8,-9.45 z m -33,1.24 a 0.32,0.32 0 0 0 0.57,0.2 l 10.99,-13.55 a 0.32,0.32 0 0 0 -0.34,-0.5 l -11,3.6 a 0.32,0.32 0 0 0 -0.22,0.3 z"
         inkscape:connector-curvature="0"
         style="fill:#020202" />
      <path
         id="path30616"
         d="m 158.89,161.67 -0.2,-13.86 a 4.09,4.05 62.7 0 1 0.75,-2.39 q 3.92,-5.49 9.27,-7.67 0.36,1.47 0.3,3 -0.36,8.79 0.72,17.56 a 0.71,0.71 0 0 0 1.07,0.52 l 6.64,-3.99 a 1.1,1.07 82.2 0 0 0.5,-0.68 c 1.86,-7.38 12.82,-27.72 22.93,-22.6 a 0.58,0.58 0 0 1 0.28,0.71 c -2.92,8.09 -8.28,12.04 -13.67,17.86 -3.7,4 -5.01,28.73 -2.34,33.23 q 0.9,1.53 1.34,-0.19 c 5.11,-20.08 17.35,-34.83 35.19,-45.74 q 3.89,-2.38 6.92,-2.63 1.1,-0.09 0.34,0.71 l -6.52,6.79 a 1.32,1.29 -25.6 0 0 -0.36,0.99 l 1.27,18.37 a 0.55,0.54 -5.9 0 0 0.62,0.5 c 1.45,-0.2 8.88,-2.43 9.7,-2.1 a 0.46,0.46 0 0 1 0.15,0.75 l -7.92,7.83 q -1.26,1.25 -0.85,2.99 1.83,7.79 3.6,15.54 c 1.35,5.95 -4.02,10.56 -8.63,13.35 a 0.44,0.44 0 0 1 -0.66,-0.29 l -5.62,-26.68 a 0.44,0.44 0 0 0 -0.53,-0.34 l -16.12,3.59 a 1.52,1.52 0 0 0 -1.18,1.39 l -0.49,8.39 a 1.25,1.25 0 0 0 0.33,0.92 c 4.67,4.99 8.58,1.55 13.27,-0.89 a 0.42,0.42 0 0 1 0.58,0.2 c 0.75,1.61 -17.78,21.82 -24.64,8.61 a 0.56,0.56 0 0 0 -0.79,-0.22 l -2.42,1.47 a 1.11,1.09 -49 0 1 -0.99,0.08 q -7.04,-2.88 -7.14,-10.24 -0.18,-11.92 2.3,-26.12 0.14,-0.81 -0.51,-0.31 l -5.11,3.98 a 1.09,1.08 69.9 0 0 -0.41,0.89 l 0.63,22.87 q 0.02,0.55 -0.24,1.02 -3.17,5.89 -9.2,8.96 a 0.61,0.6 76.2 0 1 -0.88,-0.54 l -0.24,-26.11 q -0.01,-0.97 -0.8,-0.41 l -6.04,4.27 q -1.24,0.88 -0.8,-0.58 c 0.83,-2.74 4.5,-5.53 6.46,-7.65 a 1.26,1.2 -25.7 0 0 0.33,-0.88 z m 31.47,-20.82 c -1.39,0.58 -2.03,2.81 -2.31,4.2 q -0.28,1.44 0.52,0.21 l 2.4,-3.67 q 0.91,-1.38 -0.61,-0.74 z m 20.99,8.1 c -5.97,3.43 -10.58,12.2 -12.31,18.16 a 0.45,0.44 3.3 0 0 0.5,0.56 l 12.6,-1.92 a 0.7,0.69 -6.4 0 0 0.59,-0.73 l -0.9,-15.81 a 0.32,0.32 0 0 0 -0.48,-0.26 z"
         inkscape:connector-curvature="0"
         style="fill:#020202" />
      <path
         id="path30618"
         d="m 188.05,145.05 c 0.28,-1.39 0.92,-3.62 2.31,-4.2 q 1.52,-0.64 0.61,0.74 l -2.4,3.67 q -0.8,1.23 -0.52,-0.21 z"
         inkscape:connector-curvature="0"
         style="fill:#ffffff" />
      <path
         id="path30620"
         d="m 289.07,143.78 a 0.3,0.28 -79.8 0 1 0.27,-0.2 c 8.33,-0.17 20.32,4.91 21.63,14.41 q 2.09,15.24 -5.73,28.23 c -1.46,2.43 -2.95,4.45 -6.01,4.85 -7.69,1.02 -14.82,-0.7 -15.26,-9.76 q -0.94,-19.06 5.1,-37.53 z"
         inkscape:connector-curvature="0"
         style="fill:#ffffff" />
      <path
         id="path30622"
         d="m 199.04,167.11 c 1.73,-5.96 6.34,-14.73 12.31,-18.16 a 0.32,0.32 0 0 1 0.48,0.26 l 0.9,15.81 a 0.7,0.69 -6.4 0 1 -0.59,0.73 l -12.6,1.92 a 0.45,0.44 3.3 0 1 -0.5,-0.56 z"
         inkscape:connector-curvature="0"
         style="fill:#ffffff" />
      <path
         id="path30624"
         d="m 132.96,184.75 q 2,-1.48 2.04,-4.63 2.97,-6.55 5.13,-9.72 2.43,-3.59 6.18,-5.7 1.36,-0.76 0.62,0.61 c -1.46,2.7 -14.49,29.25 -15.63,29.19 a 0.38,0.37 -82.2 0 1 -0.34,-0.46 c 0.77,-3.22 4.11,-6.1 2,-9.29 z"
         inkscape:connector-curvature="0"
         style="fill:#ffffff" />
      <path
         id="path30626"
         d="m 102,181.36 v -9.95 a 0.32,0.32 0 0 1 0.22,-0.3 l 11,-3.6 a 0.32,0.32 0 0 1 0.34,0.5 l -10.99,13.55 a 0.32,0.32 0 0 1 -0.57,-0.2 z"
         inkscape:connector-curvature="0"
         style="fill:#dcdcdc" />
      <path
         id="path30628"
         d="m 64.37,169.42 q 1.8,10.41 -0.6,19.84 -0.24,0.94 -1.48,0.74 -0.46,-8.9 -0.3,-17.8 c 0.03,-1.78 -0.05,-2.5 2.38,-2.78 z"
         inkscape:connector-curvature="0"
         style="fill:#ffffff" />
      <path
         id="path30630"
         d="m 268.69,175.94 q 0.73,-0.93 5.04,-3.87 0.36,-0.24 0.35,0.19 l -0.12,13.06 a 0.37,0.37 0 0 1 -0.52,0.34 q -4.1,-1.91 -8.62,-0.91 -0.62,0.14 -0.37,-0.44 2.86,-6.63 4.24,-8.37 z"
         inkscape:connector-curvature="0"
         style="fill:#ffffff" />
      <path
         id="path30632"
         d="m 61.25,205.55 c -0.34,-0.73 5.27,-15.99 6.72,-15.3 a 1.44,1.44 0 0 1 0.7,1.87 c -1.77,4.1 -3.77,10.81 -6.77,13.56 a 0.41,0.41 0 0 1 -0.65,-0.13 z"
         inkscape:connector-curvature="0"
         style="fill:#ffffff" />
      <path
         id="path30634"
         d="m 251.5,195 q 0.23,-0.33 0.51,-0.19 a 0.31,0.31 0 0 1 0.08,0.52 q -5.98,5.35 -13.52,8.08 a 1.05,1.03 76.6 0 1 -1.38,-0.86 l -0.23,-1.82 q -0.31,-2.52 0.8,-0.24 l 0.5,1.03 a 0.77,0.75 -10.5 0 0 0.64,0.43 c 4.58,0.32 6.17,-8.31 12.6,-6.95 z"
         inkscape:connector-curvature="0"
         style="fill:#ffffff" />
    </g>
  </g>
</svg>
