<?xml version="1.0" encoding="UTF-8" standalone="no"?>
<!DOCTYPE svg PUBLIC "-//W3C//DTD SVG 1.1//EN" "http://www.w3.org/Graphics/SVG/1.1/DTD/svg11.dtd">
<svg xmlns="http://www.w3.org/2000/svg" version="1.1" viewBox="0 0 446 367">
<g stroke-width="2.00" fill="none" stroke-linecap="butt">
<path stroke="#ececec" vector-effect="non-scaling-stroke" d="
  M 128.56 0.00
  L 126.49 0.52
  A 0.91 0.89 -88.1 0 0 125.84 1.14
  Q 121.89 14.57 112.85 25.35
  Q 112.35 25.94 112.59 25.20
  L 114.00 20.87
  Q 114.10 20.56 113.85 20.77
  Q 111.38 22.92 110.45 25.19
  Q 107.92 31.37 104.71 35.32"
/>
<path stroke="#838383" vector-effect="non-scaling-stroke" d="
  M 104.71 35.32
  L 106.06 6.11
  Q 106.14 4.35 104.59 5.19
  C 100.01 7.69 96.49 11.05 96.20 16.52
  Q 94.60 47.00 92.46 77.45
  C 92.17 81.51 88.69 83.55 85.01 84.02
  A 0.98 0.98 0.0 0 1 84.17 83.71
  Q 82.28 81.65 81.80 79.18
  C 78.53 62.52 79.21 46.21 78.98 29.05
  Q 78.96 27.47 77.66 28.37
  C 73.87 30.98 69.44 34.77 69.19 39.62
  Q 67.97 62.66 71.15 85.50
  C 71.67 89.23 74.01 95.81 78.94 93.44
  Q 80.27 92.80 86.00 89.21"
/>
<path stroke="#ececec" vector-effect="non-scaling-stroke" d="
  M 86.00 89.21
  Q 87.72 91.17 86.43 95.00
  Q 86.27 95.47 86.64 95.13
  C 88.02 93.89 89.81 95.16 90.37 96.35
  C 91.73 99.23 86.55 106.56 87.24 111.06
  C 88.35 118.31 86.45 128.27 82.96 135.36
  A 0.25 0.24 9.7 0 1 82.75 135.50
  L 82.49 135.51
  A 0.28 0.28 0.0 0 1 82.20 135.24
  L 82.12 130.74
  Q 82.11 130.28 82.23 129.83
  Q 83.13 126.43 83.11 123.70
  Q 83.10 122.48 82.08 122.13
  A 0.62 0.62 0.0 0 0 81.34 122.40
  C 79.08 126.18 79.00 129.56 78.60 133.83
  C 78.36 136.30 79.47 138.02 80.29 140.25"
/>
<path stroke="#838383" vector-effect="non-scaling-stroke" d="
  M 80.29 140.25
  C 76.47 142.65 71.68 145.65 69.93 150.00
  Q 69.48 151.13 70.60 150.65
  L 79.84 146.72"
/>
<path stroke="#ececec" vector-effect="non-scaling-stroke" d="
  M 79.84 146.72
  L 79.66 154.62
  Q 79.64 155.90 79.12 154.72
  L 78.98 154.38
  Q 78.57 153.46 78.43 154.46
  C 78.11 156.64 78.69 158.88 78.72 160.76
  Q 78.88 170.82 78.96 180.88
  C 78.99 185.02 80.03 191.96 79.00 197.81
  A 3.96 3.94 -54.7 0 0 79.44 200.41
  Q 81.90 204.79 82.45 210.25
  Q 82.74 213.17 86.04 214.50"
/>
<path stroke="#838383" vector-effect="non-scaling-stroke" d="
  M 86.04 214.50
  Q 81.48 217.42 78.14 221.79
  A 1.56 1.51 -26.8 0 0 77.83 222.68
  C 77.44 237.01 75.72 252.94 78.09 267.03
  A 1.25 1.25 0.0 0 0 79.89 267.93
  Q 85.31 265.17 88.51 260.00
  A 1.21 1.21 0.0 0 0 88.65 259.04
  C 86.35 250.92 87.03 243.52 86.94 234.91
  Q 86.91 232.60 87.95 234.67
  L 93.84 246.41
  A 0.96 0.95 44.7 0 1 93.85 247.23
  L 90.24 254.75
  A 0.87 0.87 0.0 0 0 90.91 255.99
  C 95.31 256.59 108.39 246.28 109.94 242.15
  A 0.53 0.53 0.0 0 0 109.69 241.50
  L 105.70 239.38
  A 1.49 1.49 0.0 0 1 105.20 237.18
  C 110.72 229.71 116.53 221.58 123.23 215.20
  Q 124.16 214.31 123.71 215.51
  C 118.68 228.89 117.57 240.59 117.76 256.80
  C 117.78 258.97 117.74 261.11 119.47 262.49
  C 126.19 267.81 130.96 262.28 136.14 258.25
  A 0.40 0.40 0.0 0 1 136.74 258.41
  C 139.29 264.19 149.34 262.14 153.58 259.48
  A 1.91 1.86 27.3 0 1 154.50 259.20
  C 161.10 259.03 166.90 253.77 171.46 249.25"
/>
<path stroke="#ececec" vector-effect="non-scaling-stroke" d="
  M 171.46 249.25
  C 172.41 250.67 171.98 251.79 170.48 252.57
  C 160.71 257.66 165.02 266.32 162.07 274.48
  C 160.62 278.48 157.74 280.51 156.05 284.10
  Q 152.92 290.77 150.03 297.56
  C 149.00 299.96 142.36 320.16 143.10 321.71
  Q 143.44 322.42 144.29 322.75"
/>
<path stroke="#838383" vector-effect="non-scaling-stroke" d="
  M 144.29 322.75
  C 140.02 330.15 133.67 346.66 147.50 348.04"
/>
<path stroke="#ececec" vector-effect="non-scaling-stroke" d="
  M 147.50 348.04
  Q 147.16 352.12 147.56 356.14
  C 147.86 359.26 149.78 362.03 148.79 365.97
  A 0.80 0.79 -63.5 0 0 149.06 366.79
  Q 149.22 366.92 149.44 367.00"
/>
<path stroke="#838383" vector-effect="non-scaling-stroke" d="
  M 80.29 306.45
  A 0.54 0.53 79.9 0 1 81.01 306.96
  Q 80.97 330.62 81.03 354.19
  Q 81.04 356.24 81.92 359.48
  A 0.39 0.39 0.0 0 0 82.50 359.70
  Q 87.26 356.64 90.79 352.26
  A 1.55 1.52 -26.4 0 0 91.14 351.26
  L 90.94 300.09
  A 0.86 0.86 0.0 0 1 91.50 299.27
  Q 98.28 296.73 105.50 295.92
  C 110.16 295.40 108.70 300.19 108.75 302.72
  Q 108.76 303.25 109.19 302.93
  C 112.32 300.65 119.11 294.88 119.15 290.74
  C 119.20 286.11 115.33 285.74 111.53 286.37
  C 99.62 288.36 84.23 295.17 78.24 306.37
  Q 77.67 307.44 78.80 307.01
  L 80.29 306.45"
/>
<path stroke="#838383" vector-effect="non-scaling-stroke" d="
  M 104.44 353.81
  Q 114.89 359.56 123.73 351.73
  C 131.09 345.22 138.31 337.86 139.91 328.93
  Q 140.99 322.87 141.95 309.50
  C 142.57 300.91 140.30 292.42 130.51 291.19
  C 119.45 289.79 108.49 310.75 105.29 319.06
  C 102.84 325.44 96.80 349.61 104.44 353.81"
/>
<path stroke="#ececec" vector-effect="non-scaling-stroke" d="
  M 227.31 0.00
  L 239.00 0.33
  Q 239.47 0.34 239.09 0.62
  C 223.47 12.32 209.44 27.32 197.20 42.45
  Q 192.65 48.08 186.53 50.35
  C 182.40 51.88 178.45 56.74 175.21 59.75"
/>
<path stroke="#6f6f6f" vector-effect="non-scaling-stroke" d="
  M 175.21 59.75
  C 170.02 55.57 159.49 48.88 152.63 53.47
  A 0.30 0.29 -19.9 0 1 152.17 53.26
  Q 151.59 48.15 145.92 49.14
  Q 125.22 52.76 110.32 65.80
  C 109.94 66.14 106.44 69.69 107.17 70.81
  A 0.53 0.53 0.0 0 0 107.88 70.97
  L 119.31 64.06
  Q 120.08 63.59 120.07 64.50
  L 119.38 112.76
  A 0.39 0.39 0.0 0 0 119.94 113.11
  C 124.32 110.94 129.75 106.33 129.76 100.96
  Q 129.80 80.81 130.08 60.65
  A 0.72 0.72 0.0 0 1 130.71 59.95
  L 139.32 58.85
  Q 141.81 58.54 141.89 61.04
  C 141.95 62.97 142.27 65.37 141.72 67.26
  C 138.05 79.82 137.47 89.23 137.96 102.67
  C 138.06 105.23 137.46 108.92 138.17 112.00
  Q 138.73 114.48 140.98 115.67
  Q 146.72 118.72 153.33 117.78"
/>
<path stroke="#ececec" vector-effect="non-scaling-stroke" d="
  M 153.33 117.78
  Q 152.40 122.86 152.27 127.95
  C 152.13 133.05 149.11 136.35 144.56 138.18
  A 1.22 1.17 -1.7 0 0 143.90 138.85
  Q 143.21 140.70 143.13 143.75
  Q 142.81 156.06 143.00 160.04"
/>
<path stroke="#6f6f6f" vector-effect="non-scaling-stroke" d="
  M 143.00 160.04
  L 139.78 160.68
  Q 137.84 161.07 137.62 159.10
  L 134.97 134.55
  A 0.80 0.80 0.0 0 0 133.79 133.94
  C 130.47 135.75 124.54 140.23 125.00 144.75
  Q 125.83 153.01 127.06 162.51
  A 1.03 1.03 0.0 0 1 126.30 163.64
  L 109.70 168.02
  A 0.53 0.53 0.0 0 1 109.05 167.37
  C 111.31 159.00 115.93 145.67 123.13 140.88
  Q 129.08 136.91 133.89 131.58
  Q 136.75 128.41 132.48 128.27
  Q 105.40 127.42 80.29 140.25"
/>
<path stroke="#6f6f6f" vector-effect="non-scaling-stroke" d="
  M 86.00 89.21
  Q 88.42 87.09 91.12 86.10
  A 0.65 0.65 0.0 0 1 92.00 86.71
  L 92.00 109.66
  Q 92.00 113.52 95.43 111.75
  Q 101.29 108.71 104.62 102.88
  A 0.54 0.54 0.0 0 0 104.22 102.08
  L 103.04 101.94
  A 1.02 1.02 0.0 0 1 102.15 100.95
  L 101.95 83.57
  A 1.08 1.08 0.0 0 1 102.29 82.76
  L 111.82 73.86
  Q 113.47 72.32 111.22 72.52
  Q 106.77 72.94 102.72 74.64
  A 0.24 0.24 0.0 0 1 102.39 74.41
  L 104.71 35.32"
/>
<path stroke="#ececec" vector-effect="non-scaling-stroke" d="
  M 111.17 33.12
  L 108.44 37.65
  Q 108.06 38.28 108.73 38.00
  Q 111.74 36.76 112.03 33.40
  Q 112.20 31.41 111.17 33.12"
/>
<path stroke="#ececec" vector-effect="non-scaling-stroke" d="
  M 305.06 0.00
  L 301.57 0.64
  Q 300.62 0.82 301.39 1.40
  L 302.25 2.06
  A 0.81 0.81 0.0 0 0 303.28 2.01
  L 304.29 1.07
  Q 304.97 0.44 304.99 1.37
  Q 305.02 2.76 303.79 2.75
  Q 303.00 2.75 303.45 3.41
  C 306.44 7.78 305.48 11.80 304.22 17.54
  A 1.83 1.78 42.1 0 0 304.28 18.49
  C 305.81 22.97 306.23 26.53 305.00 31.44
  C 304.11 35.03 301.15 44.18 302.85 47.35
  A 1.46 1.44 35.7 0 1 303.01 48.28
  C 301.67 57.13 293.86 63.43 289.26 70.54
  Q 282.23 81.41 276.17 92.86
  C 273.22 98.44 268.94 103.64 265.75 109.43
  C 264.94 110.89 263.91 111.95 262.89 113.26
  A 0.61 0.61 0.0 0 0 262.92 114.05
  L 263.16 114.32
  A 0.54 0.53 -49.5 0 0 264.00 114.25
  L 269.29 106.13
  A 1.37 1.37 0.0 0 1 271.30 105.82
  C 275.36 109.13 276.92 106.18 279.22 102.81
  Q 286.54 92.12 293.27 81.04
  Q 293.84 80.09 295.52 79.22
  A 0.40 0.40 0.0 0 1 296.09 79.49
  C 296.71 82.29 296.30 84.22 294.44 86.57
  Q 286.81 96.18 279.99 106.40
  C 278.64 108.42 276.51 109.76 275.30 112.21
  Q 273.69 115.49 273.11 116.42
  C 271.94 118.27 270.81 123.65 268.31 122.81
  A 0.61 0.61 0.0 0 1 267.97 121.95
  L 268.75 120.47
  Q 269.05 119.91 268.52 120.27
  Q 264.88 122.77 265.71 127.02
  A 1.16 1.15 57.8 0 1 265.50 127.96
  L 262.50 131.96"
/>
<path stroke="#838383" vector-effect="non-scaling-stroke" d="
  M 262.50 131.96
  C 257.60 131.98 251.99 131.54 247.19 132.38
  C 229.44 135.47 227.51 156.78 227.96 170.75"
/>
<path stroke="#ececec" vector-effect="non-scaling-stroke" d="
  M 227.96 170.75
  C 223.65 173.16 217.94 184.91 215.68 189.55
  A 0.83 0.83 0.0 0 0 215.70 190.30
  L 216.45 191.68
  Q 216.98 192.65 215.94 192.25
  C 211.18 190.41 209.59 195.00 205.99 196.77
  Q 205.30 197.11 205.59 196.40
  Q 206.80 193.48 209.26 191.43
  Q 209.80 190.98 209.10 190.91
  C 204.51 190.46 203.77 199.33 199.29 199.26
  A 0.74 0.72 72.3 0 1 198.69 198.94
  L 197.94 197.88
  A 0.65 0.64 44.8 0 0 196.89 197.88
  L 189.03 209.10
  A 1.39 1.35 58.2 0 0 188.81 210.10
  L 189.04 211.50"
/>
<path stroke="#838383" vector-effect="non-scaling-stroke" d="
  M 189.04 211.50
  Q 180.71 217.36 175.57 226.00
  C 170.85 233.92 178.08 242.03 167.12 248.75
  Q 165.31 249.86 166.40 248.04
  C 167.74 245.81 169.80 243.63 170.82 241.40
  C 172.44 237.82 172.70 233.46 173.22 230.56
  Q 174.69 222.31 173.90 213.94
  C 172.84 202.82 160.42 200.57 152.29 205.50"
/>
<path stroke="#ececec" vector-effect="non-scaling-stroke" d="
  M 152.29 205.50
  Q 151.54 204.75 152.08 203.87
  A 0.98 0.96 -40.4 0 0 152.16 203.00
  C 150.73 199.26 151.12 196.01 149.69 192.97
  A 0.58 0.58 0.0 0 1 149.87 192.26
  C 151.37 191.16 150.64 186.66 150.76 183.50
  C 150.80 182.25 148.84 180.25 150.50 179.46"
/>
<path stroke="#838383" vector-effect="non-scaling-stroke" d="
  M 150.50 179.46
  C 153.71 185.19 157.59 181.04 160.46 178.16
  A 0.96 0.94 27.0 0 1 161.31 177.89
  Q 171.85 179.68 173.99 179.78
  C 181.83 180.16 195.23 175.37 198.23 166.51
  Q 198.51 165.71 197.76 166.12
  C 188.27 171.36 173.60 171.61 165.44 164.43
  C 161.48 160.95 162.57 154.09 163.51 149.26
  Q 165.60 138.51 174.63 135.07
  C 179.74 133.13 182.56 130.69 185.29 126.21
  A 0.78 0.78 0.0 0 0 184.67 125.03
  L 183.49 124.98
  A 1.97 1.97 0.0 0 0 182.47 125.20
  Q 171.40 131.04 163.11 140.42
  Q 162.45 141.16 162.58 140.19
  L 163.99 129.69
  Q 164.19 128.24 162.90 128.94
  C 158.57 131.26 153.28 135.67 153.04 141.02
  Q 152.68 149.06 151.07 158.27
  A 0.71 0.71 0.0 0 1 150.48 158.86
  L 143.00 160.04"
/>
<path stroke="#838383" vector-effect="non-scaling-stroke" d="
  M 153.33 117.78
  L 156.18 117.05"
/>
<path stroke="#ececec" vector-effect="non-scaling-stroke" d="
  M 156.18 117.05
  Q 154.23 122.48 155.06 128.07
  Q 155.13 128.60 154.95 129.11
  L 154.75 129.64
  Q 154.31 130.83 155.29 130.03
  C 158.86 127.06 161.42 119.01 163.41 114.64
  A 1.24 1.21 47.4 0 0 163.44 113.70
  Q 163.23 113.13 162.71 112.75"
/>
<path stroke="#838383" vector-effect="non-scaling-stroke" d="
  M 162.71 112.75
  C 174.38 101.78 181.68 93.76 182.68 76.46
  Q 183.32 65.64 175.21 59.75"
/>
<path stroke="#838383" vector-effect="non-scaling-stroke" d="
  M 238.64 59.72
  C 232.82 67.64 231.22 76.65 230.52 86.54
  Q 230.45 87.55 231.34 87.07
  L 233.85 85.73
  Q 234.66 85.30 234.50 86.20
  Q 233.31 93.17 233.10 101.00
  C 232.88 109.39 241.81 112.33 248.40 111.06
  C 260.04 108.80 274.26 91.41 275.75 80.25
  C 276.87 71.91 278.07 60.64 269.71 55.28
  Q 264.26 51.78 257.72 51.80
  A 0.76 0.76 0.0 0 1 256.96 51.09
  L 256.81 48.59
  A 0.71 0.71 0.0 0 0 256.04 47.93
  C 248.12 48.54 240.22 51.70 232.96 54.83
  A 0.53 0.51 -27.1 0 1 232.31 54.63
  L 231.66 53.53
  A 0.74 0.74 0.0 0 0 230.74 53.23
  C 228.23 54.29 226.35 56.39 224.64 57.62
  C 219.93 61.01 214.41 63.69 212.08 69.41
  Q 211.69 70.37 212.63 69.94
  L 221.34 65.93
  A 0.37 0.37 0.0 0 1 221.87 66.25
  Q 222.12 70.59 221.72 73.69
  Q 219.88 87.96 218.39 108.69
  Q 218.06 113.22 218.49 116.55
  A 0.38 0.38 0.0 0 0 219.02 116.85
  C 223.47 114.87 227.71 110.95 227.95 105.78
  Q 228.98 83.90 232.19 62.17
  A 0.99 0.98 -6.7 0 1 232.81 61.39
  L 238.31 59.28
  Q 239.21 58.94 238.64 59.72"
/>
<path stroke="#838383" vector-effect="non-scaling-stroke" d="
  M 211.10 66.09
  C 206.83 68.27 188.54 79.41 188.09 83.91
  Q 187.96 85.24 189.09 84.51
  C 192.03 82.59 213.70 69.27 211.85 66.30
  A 0.58 0.57 60.5 0 0 211.10 66.09"
/>
<path stroke="#ececec" vector-effect="non-scaling-stroke" d="
  M 381.06 0.00
  Q 382.08 0.05 383.08 0.64
  A 0.85 0.84 -74.4 0 1 383.50 1.39
  Q 383.41 8.90 385.53 15.95
  C 387.97 24.06 388.90 28.72 386.95 36.18
  A 1.18 1.15 -53.3 0 0 387.07 37.08
  Q 387.81 38.36 387.46 39.20
  Q 385.19 44.60 385.35 51.64
  A 0.66 0.66 0.0 0 1 384.96 52.26
  L 382.22 53.47
  A 0.81 0.81 0.0 0 0 381.77 54.41
  C 383.33 60.35 380.50 64.96 378.84 70.59
  A 1.03 1.00 33.2 0 0 379.05 71.53
  L 381.11 73.88
  A 0.85 0.84 -54.0 0 1 381.25 74.77
  C 378.58 80.83 377.84 87.32 372.81 92.04
  Q 371.00 93.74 369.80 95.92
  Q 367.77 99.63 367.11 103.84"
/>
<path stroke="#6f6f6f" vector-effect="non-scaling-stroke" d="
  M 367.11 103.84
  Q 359.22 106.03 350.58 104.81
  A 0.98 0.98 0.0 0 1 349.77 103.60
  C 352.54 92.81 361.75 88.78 367.34 79.92
  C 368.37 78.31 368.26 76.37 367.34 74.81
  A 1.10 1.07 -9.5 0 0 366.59 74.29
  Q 361.01 73.25 355.41 74.24
  C 353.48 74.58 352.28 76.00 350.43 76.80
  A 0.43 0.42 70.5 0 1 349.85 76.52
  Q 348.64 71.74 349.03 66.76
  Q 349.18 64.79 351.00 64.01
  C 356.76 61.54 366.56 57.24 371.88 59.88
  A 0.71 0.70 -53.3 0 0 372.68 59.76
  C 375.38 57.27 382.46 51.15 380.85 49.22
  A 1.00 0.99 -21.1 0 0 380.02 48.86
  C 365.75 49.64 355.09 55.60 344.26 64.77
  C 340.30 68.13 338.73 70.92 337.48 76.32
  Q 335.24 86.08 332.10 95.05
  A 1.29 1.28 -62.5 0 1 330.14 95.67
  C 326.82 93.27 327.76 84.73 328.06 81.32
  Q 328.21 79.66 329.54 78.67
  C 334.10 75.27 339.62 69.70 340.12 63.75
  C 340.59 58.09 339.94 52.33 335.13 48.76
  Q 333.58 47.61 331.88 48.54
  C 320.46 54.88 320.70 64.22 319.30 75.62
  Q 319.08 77.36 317.39 77.86
  L 309.67 80.13
  A 0.51 0.51 0.0 0 1 309.02 79.62
  Q 309.55 63.80 312.70 48.35"
/>
<path stroke="#ececec" vector-effect="non-scaling-stroke" d="
  M 312.70 48.35
  L 317.10 46.44
  A 1.44 1.42 1.7 0 0 317.78 45.81
  Q 319.63 42.42 318.05 38.93
  A 0.30 0.29 77.6 0 0 317.78 38.75
  L 317.49 38.74
  A 0.26 0.25 -3.0 0 0 317.23 39.02
  Q 317.35 40.49 316.96 41.02
  Q 315.27 43.30 316.14 40.72
  Q 317.88 35.55 316.95 30.16
  A 0.80 0.80 0.0 0 0 316.15 29.50
  L 315.07 29.51
  A 1.08 1.07 -15.0 0 1 314.14 28.98
  L 313.38 27.70
  Q 312.71 26.57 312.85 27.88
  C 313.04 29.82 312.41 31.52 312.52 33.34
  Q 312.86 39.43 310.61 45.08
  Q 310.42 45.55 310.45 46.07
  Q 310.50 47.01 310.24 47.98
  A 0.54 0.54 0.0 0 0 310.67 48.65
  L 311.50 48.79"
/>
<path stroke="#6f6f6f" vector-effect="non-scaling-stroke" d="
  M 311.50 48.79
  C 305.49 52.04 302.59 56.34 301.40 63.37
  Q 299.52 74.49 299.06 85.83
  A 2.62 2.62 0.0 0 1 297.75 87.99
  Q 295.80 89.11 295.99 91.35
  A 0.49 0.49 0.0 0 0 296.65 91.77
  L 298.10 91.25
  A 0.65 0.64 -10.1 0 1 298.96 91.85
  L 299.09 109.09
  Q 299.12 112.35 301.55 110.18
  L 307.85 104.56
  Q 309.33 103.25 309.28 101.27
  L 308.95 88.25
  A 1.20 1.19 81.6 0 1 309.82 87.07
  L 317.95 84.69
  A 0.35 0.34 84.2 0 1 318.39 85.05
  C 317.99 89.40 316.08 104.10 321.33 105.87
  C 327.84 108.08 334.62 99.49 337.88 94.78
  Q 339.01 93.13 338.96 95.13
  C 338.91 96.99 338.24 105.96 343.31 102.32
  A 0.27 0.27 0.0 0 1 343.71 102.41
  C 344.37 103.65 337.47 110.99 340.66 114.21
  C 342.93 116.50 355.49 114.60 358.64 113.96"
/>
<path stroke="#ececec" vector-effect="non-scaling-stroke" d="
  M 358.64 113.96
  Q 356.14 123.41 349.76 130.44
  C 345.78 134.83 343.55 141.22 341.13 146.56
  Q 338.37 152.68 335.25 157.68
  C 329.29 167.22 323.53 176.41 316.66 185.67
  Q 308.62 196.51 300.68 207.43
  Q 296.05 213.78 288.84 217.08
  Q 288.05 217.44 288.24 216.59
  Q 288.52 215.32 289.40 214.29
  A 0.51 0.51 0.0 0 0 289.50 214.02
  L 289.51 213.73
  A 0.27 0.27 0.0 0 0 289.17 213.46
  Q 285.18 214.63 281.07 214.15
  A 1.07 1.05 25.1 0 0 280.19 214.46
  C 278.98 215.73 275.63 217.12 275.24 218.48
  Q 274.36 221.56 272.96 224.42
  A 1.53 1.47 -1.2 0 1 272.28 225.10
  Q 267.16 227.59 261.52 228.08
  A 0.79 0.78 4.7 0 0 260.83 228.66
  L 258.58 237.23
  A 0.58 0.58 0.0 0 0 258.89 237.91
  C 260.13 238.50 259.99 239.68 259.20 240.67
  Q 255.70 245.08 251.26 248.55"
/>
<path stroke="#6f6f6f" vector-effect="non-scaling-stroke" d="
  M 251.26 248.55
  Q 249.88 245.33 249.57 242.19
  C 248.91 235.65 245.92 213.43 249.56 209.82
  C 252.95 206.46 259.23 201.06 257.82 199.69
  A 0.61 0.60 -41.8 0 0 257.04 199.65
  C 244.27 209.51 237.30 217.96 228.40 229.53
  Q 226.01 232.64 226.01 228.71
  L 226.00 209.80
  Q 226.00 208.40 224.80 209.12
  Q 220.99 211.40 218.12 214.67
  C 214.83 218.39 216.03 222.09 216.01 226.49
  Q 215.96 233.82 216.04 241.26
  A 1.70 1.66 60.9 0 1 215.79 242.18
  C 210.76 250.44 199.64 251.79 190.99 250.81
  A 0.71 0.71 0.0 0 1 190.38 250.20
  L 189.93 246.15
  A 1.13 1.12 64.0 0 1 190.24 245.24
  C 196.30 239.05 204.96 232.49 208.70 224.64
  Q 209.87 222.17 207.15 222.45
  Q 199.28 223.25 191.25 225.96"
/>
<path stroke="#ececec" vector-effect="non-scaling-stroke" d="
  M 191.25 225.96
  Q 189.72 219.37 193.74 214.32
  A 0.57 0.56 -44.6 0 0 193.75 213.62
  L 193.50 213.29"
/>
<path stroke="#6f6f6f" vector-effect="non-scaling-stroke" d="
  M 193.50 213.29
  Q 197.20 211.21 201.46 211.01
  A 0.67 0.67 0.0 0 1 202.12 211.47
  C 202.49 212.61 202.07 219.43 204.33 217.28
  C 209.14 212.69 215.62 207.44 212.18 202.04
  Q 211.23 200.56 209.52 200.93
  C 201.37 202.64 196.56 206.01 189.04 211.50"
/>
<path stroke="#6f6f6f" vector-effect="non-scaling-stroke" d="
  M 227.96 170.75
  Q 226.14 185.95 240.63 187.07
  A 0.28 0.23 64.4 0 1 240.76 187.13
  L 240.95 187.32
  A 0.22 0.21 52.4 0 1 240.91 187.67
  L 238.33 189.12
  A 0.80 0.80 0.0 0 0 237.97 190.08
  L 239.07 193.15
  A 0.49 0.49 0.0 0 0 239.66 193.46
  Q 244.31 192.24 243.84 187.75
  A 0.50 0.49 86.9 0 1 244.33 187.20
  C 260.60 187.15 278.86 179.15 286.47 163.88
  Q 287.77 161.28 285.42 159.57
  Q 284.44 158.86 283.27 158.91
  C 279.65 159.06 274.69 164.94 273.02 167.88
  A 0.55 0.54 -68.2 0 0 273.36 168.68
  L 275.26 169.13
  A 0.99 0.98 89.5 0 1 275.97 169.83
  Q 276.42 171.61 274.92 172.36
  C 264.54 177.59 233.80 183.80 238.22 161.37"
/>
<path stroke="#ececec" vector-effect="non-scaling-stroke" d="
  M 238.22 161.37
  Q 244.48 151.05 252.84 142.33"
/>
<path stroke="#6f6f6f" vector-effect="non-scaling-stroke" d="
  M 252.84 142.33
  Q 255.96 141.41 258.54 139.03
  Q 261.17 136.60 263.96 133.08
  A 0.53 0.53 0.0 0 0 263.88 132.34
  Q 263.28 131.86 262.50 131.96"
/>
<path stroke="#ececec" vector-effect="non-scaling-stroke" d="
  M 313.32 17.41
  C 312.63 18.03 313.04 24.40 314.05 24.51
  A 0.26 0.26 0.0 0 0 314.34 24.23
  L 313.63 17.53
  Q 313.59 17.17 313.32 17.41"
/>
<path stroke="#ececec" vector-effect="non-scaling-stroke" d="
  M 381.60 33.07
  Q 381.50 34.64 382.64 33.54
  Q 385.16 31.11 383.85 27.71
  A 0.73 0.73 0.0 0 0 383.07 27.25
  C 381.13 27.49 381.71 31.34 381.60 33.07"
/>
<path stroke="#ececec" vector-effect="non-scaling-stroke" d="
  M 381.78 37.05
  C 378.00 35.37 378.02 46.20 378.14 47.80
  A 0.42 0.42 0.0 0 0 378.72 48.15
  Q 379.05 48.02 379.13 47.56
  Q 379.96 42.75 382.26 38.44
  A 1.01 1.00 26.1 0 0 381.78 37.05"
/>
<path stroke="#ececec" vector-effect="non-scaling-stroke" d="
  M 219.45 367.01
  Q 221.79 361.78 222.03 356.00
  C 222.16 352.84 220.21 351.40 220.00 348.79
  Q 219.77 346.01 220.38 343.67
  C 220.95 341.48 226.19 323.16 228.22 321.97
  A 0.33 0.33 0.0 0 1 228.72 322.25
  L 228.79 326.00"
/>
<path stroke="#838383" vector-effect="non-scaling-stroke" d="
  M 228.79 326.00
  Q 227.63 342.94 227.74 346.03
  Q 228.01 353.97 236.07 354.70
  C 244.50 355.46 251.88 354.09 257.81 347.79
  Q 260.13 345.33 261.26 344.34
  A 0.30 0.30 0.0 0 1 261.75 344.51
  Q 263.21 351.12 269.91 352.63
  C 284.87 355.98 294.36 345.48 302.49 335.38
  Q 302.81 334.98 302.98 335.46
  C 303.90 338.04 297.43 348.33 296.05 351.42
  Q 295.00 353.76 297.56 353.88
  Q 301.04 354.05 303.11 351.15
  A 0.39 0.39 0.0 0 1 303.75 351.16
  L 305.23 353.42
  A 1.17 1.16 -13.0 0 0 306.09 353.95
  C 310.26 354.36 314.49 349.26 316.65 346.12
  A 1.36 1.36 0.0 0 0 316.11 344.12
  C 311.71 342.06 311.99 332.49 314.25 329.10
  Q 320.13 320.26 328.67 309.17
  Q 330.79 306.42 333.10 304.82
  Q 333.52 304.53 333.49 305.04
  Q 332.09 326.26 331.95 347.52
  C 331.92 353.45 336.95 355.31 341.31 351.81
  C 342.48 350.88 350.56 343.61 350.03 342.52
  A 0.61 0.61 0.0 0 0 349.19 342.26
  L 346.57 343.74
  A 1.49 1.46 -53.5 0 1 345.58 343.90
  C 343.23 343.47 342.05 342.19 342.01 339.67
  Q 341.70 317.92 343.80 296.28
  C 343.98 294.43 345.01 293.29 345.99 291.84
  Q 347.06 290.26 345.29 290.96
  Q 342.09 292.23 339.47 294.47
  Q 324.41 307.32 313.46 323.92
  Q 312.62 325.18 312.77 323.68
  L 314.98 300.68
  Q 315.11 299.32 313.91 299.97
  Q 309.69 302.24 306.74 306.05
  A 0.37 0.37 0.0 0 1 306.11 305.97
  Q 300.24 292.72 286.29 293.88
  C 277.77 294.59 270.94 305.15 265.71 310.98
  Q 263.78 313.14 261.65 312.64
  C 257.68 311.71 252.01 312.08 248.86 313.20
  Q 245.65 314.35 248.21 312.09
  C 251.97 308.77 264.47 294.36 259.41 289.32
  A 1.06 1.03 63.2 0 0 258.53 289.02
  Q 247.03 290.62 236.79 296.00"
/>
<path stroke="#ececec" vector-effect="non-scaling-stroke" d="
  M 236.79 296.00
  L 236.65 295.57
  A 1.00 0.99 53.6 0 1 236.78 294.68
  C 238.77 291.86 238.20 288.97 239.16 286.26
  Q 242.77 275.97 247.19 265.93
  A 1.88 1.86 85.0 0 1 247.81 265.18
  Q 253.10 261.44 254.34 255.19
  C 254.75 253.12 255.80 252.03 256.63 250.19
  Q 256.88 249.63 256.42 250.04
  L 253.14 252.93"
/>
<path stroke="#838383" vector-effect="non-scaling-stroke" d="
  M 253.14 252.93
  Q 251.27 250.39 251.26 248.55"
/>
<path stroke="#838383" vector-effect="non-scaling-stroke" d="
  M 358.64 113.96
  C 367.64 110.67 374.29 107.65 379.69 100.44
  Q 380.33 99.58 380.13 98.64
  A 0.39 0.38 69.2 0 0 379.57 98.38
  Q 373.77 101.75 367.11 103.84"
/>
<path stroke="#ececec" vector-effect="non-scaling-stroke" d="
  M 355.54 126.36
  C 355.07 127.66 353.01 129.46 351.96 130.38
  A 0.62 0.62 0.0 0 0 351.87 131.20
  L 352.04 131.43
  A 0.52 0.52 0.0 0 0 352.89 131.41
  L 355.94 126.86
  A 0.25 0.25 0.0 0 0 355.91 126.54
  L 355.70 126.33
  A 0.10 0.10 0.0 0 0 355.54 126.36"
/>
<path stroke="#838383" vector-effect="non-scaling-stroke" d="
  M 352.50 245.03
  C 341.32 245.40 326.92 262.90 325.74 273.33
  Q 325.61 274.48 326.48 273.72
  Q 330.24 270.45 333.60 266.76
  C 335.94 264.19 336.46 260.96 337.95 257.79
  Q 339.30 254.93 342.45 254.78
  Q 348.49 254.48 354.37 255.82
  A 1.40 1.35 -52.1 0 0 355.35 255.68
  Q 360.25 253.01 363.27 248.33
  Q 364.86 245.88 361.96 245.51
  Q 356.95 244.88 352.50 245.03"
/>
<path stroke="#ececec" vector-effect="non-scaling-stroke" d="
  M 224.99 359.75
  L 224.19 365.85
  Q 224.08 366.67 224.77 366.22
  L 226.09 365.35
  A 0.73 0.73 0.0 0 0 226.42 364.61
  C 226.22 363.26 226.74 360.52 226.02 359.56
  Q 225.17 358.42 224.99 359.75"
/>
<path stroke="#838383" vector-effect="non-scaling-stroke" d="
  M 312.70 48.35
  L 311.50 48.79"
/>
<path stroke="#838383" vector-effect="non-scaling-stroke" d="
  M 243.78 60.87
  A 0.30 0.30 0.0 0 0 243.40 61.09
  L 242.45 65.39
  A 0.30 0.30 0.0 0 0 243.00 65.60
  L 245.30 61.75
  A 0.30 0.30 0.0 0 0 245.13 61.31
  L 243.78 60.87"
/>
<path stroke="#838383" vector-effect="non-scaling-stroke" d="
  M 264.86 70.69
  C 262.59 65.88 256.12 61.48 250.32 62.29
  A 0.92 0.91 -81.5 0 0 249.62 62.81
  Q 243.29 76.55 243.14 91.76
  Q 243.07 98.27 249.19 100.35
  C 264.57 105.56 266.10 90.82 266.31 80.45
  Q 266.45 74.04 264.86 70.69"
/>
<path stroke="#6f6f6f" vector-effect="non-scaling-stroke" d="
  M 329.9733 67.0073
  A 0.42 0.42 0.0 0 0 329.5599 66.5807
  L 329.5200 66.5801
  A 0.42 0.42 0.0 0 0 329.0934 66.9934
  L 329.0067 72.5127
  A 0.42 0.42 0.0 0 0 329.4201 72.9393
  L 329.4600 72.9399
  A 0.42 0.42 0.0 0 0 329.8866 72.5266
  L 329.9733 67.0073"
/>
<path stroke="#6f6f6f" vector-effect="non-scaling-stroke" d="
  M 352.55 91.75
  C 354.29 90.74 357.63 87.22 357.97 85.17
  A 0.62 0.61 -82.4 0 0 357.43 84.46
  L 352.01 83.88
  A 0.50 0.50 0.0 0 0 351.46 84.43
  L 352.13 91.54
  A 0.28 0.28 0.0 0 0 352.55 91.75"
/>
<path stroke="#6f6f6f" vector-effect="non-scaling-stroke" d="
  M 162.71 112.75
  L 156.18 117.05"
/>
<path stroke="#838383" vector-effect="non-scaling-stroke" d="
  M 151.28 106.14
  Q 154.81 108.01 158.63 108.07"
/>
<path stroke="#6f6f6f" vector-effect="non-scaling-stroke" d="
  M 158.63 108.07
  C 164.79 108.77 168.54 103.69 170.21 98.25"
/>
<path stroke="#838383" vector-effect="non-scaling-stroke" d="
  M 170.21 98.25
  L 171.79 91.50"
/>
<path stroke="#6f6f6f" vector-effect="non-scaling-stroke" d="
  M 171.79 91.50
  Q 173.24 84.35 172.70 81.05
  C 171.11 71.30 161.50 65.75 152.71 62.23
  A 0.43 0.42 16.3 0 0 152.14 62.54
  C 150.39 71.27 148.27 80.33 147.99 89.10
  C 147.86 93.18 145.97 104.21 151.28 106.14"
/>
<path stroke="#ececec" vector-effect="non-scaling-stroke" d="
  M 171.79 91.50
  L 171.75 90.78
  A 0.58 0.58 0.0 0 0 171.10 90.24
  C 168.87 90.47 168.70 95.82 169.10 97.49
  A 0.85 0.84 1.9 0 0 169.69 98.11
  L 170.21 98.25"
/>
<path stroke="#ececec" vector-effect="non-scaling-stroke" d="
  M 158.63 108.07
  Q 159.07 99.05 162.97 91.06
  Q 163.50 89.97 162.40 90.49
  Q 161.34 90.99 160.76 92.00
  Q 159.97 93.37 160.17 91.99
  L 160.72 88.06
  A 0.39 0.37 29.3 0 0 160.62 87.74
  L 160.42 87.53
  A 0.32 0.32 0.0 0 0 159.93 87.57
  Q 157.81 90.60 156.14 93.92
  Q 153.18 99.83 151.28 106.14"
/>
<path stroke="#ececec" vector-effect="non-scaling-stroke" d="
  M 166.74 85.61
  Q 167.26 84.12 165.72 84.46
  L 163.86 84.87
  A 0.69 0.68 -14.1 0 0 163.35 85.72
  C 163.83 87.45 166.03 87.64 166.74 85.61"
/>
<path stroke="#6f6f6f" vector-effect="non-scaling-stroke" d="
  M 150.50 179.46
  Q 149.39 172.13 150.43 164.72
  Q 150.53 164.04 150.07 164.55
  Q 145.79 169.34 139.26 169.00
  A 0.67 0.67 0.0 0 0 138.56 169.72
  L 139.36 180.19
  A 1.41 1.39 62.3 0 1 139.05 181.20
  Q 135.64 185.57 131.20 188.82
  Q 129.24 190.26 129.07 187.84
  L 127.91 171.42
  A 0.39 0.39 0.0 0 0 127.43 171.06
  L 107.71 176.02
  A 1.03 1.02 -1.5 0 0 106.96 176.80
  Q 105.52 183.56 106.12 190.52
  Q 106.26 192.06 107.36 190.97
  Q 110.57 187.82 114.47 185.57
  A 0.39 0.39 0.0 0 1 115.03 185.75
  C 115.82 187.53 101.92 201.11 98.78 201.20
  Q 96.04 201.28 95.98 198.55
  C 95.47 176.69 104.67 153.61 120.69 138.56
  Q 121.29 138.00 120.47 138.01
  Q 108.01 138.29 95.87 140.95
  A 0.75 0.75 0.0 0 0 95.28 141.68
  Q 95.23 159.46 95.04 177.28
  Q 94.98 183.74 93.55 186.54
  Q 91.23 191.09 85.82 192.93
  A 0.62 0.62 0.0 0 1 85.00 192.34
  Q 85.00 172.27 85.00 152.22
  Q 85.00 147.18 89.67 143.51
  Q 90.06 143.20 89.57 143.29
  Q 84.28 144.23 79.84 146.72"
/>
<path stroke="#838383" vector-effect="non-scaling-stroke" d="
  M 252.84 142.33
  L 241.07 142.06
  A 1.80 1.79 -84.1 0 0 239.27 143.53
  Q 237.66 152.20 238.22 161.37"
/>
<path stroke="#6f6f6f" vector-effect="non-scaling-stroke" d="
  M 152.29 205.50
  L 145.54 211.75"
/>
<path stroke="#ececec" vector-effect="non-scaling-stroke" d="
  M 145.54 211.75
  Q 143.64 210.23 144.97 208.17
  A 1.28 1.27 59.0 0 0 145.17 207.36
  L 144.95 205.04
  Q 144.83 203.66 145.72 204.73
  L 146.89 206.13
  A 0.75 0.75 0.0 0 0 147.71 206.36
  C 149.48 205.76 149.12 202.90 148.80 201.49
  A 0.48 0.47 -13.8 0 0 148.22 201.14
  Q 146.83 201.53 146.84 200.20
  Q 146.92 191.98 146.80 183.75
  Q 146.74 179.91 144.61 178.24
  Q 143.02 176.99 143.03 179.01
  Q 143.08 186.81 142.54 194.54
  C 142.28 198.16 143.67 200.80 143.16 204.65
  Q 142.54 209.26 143.56 213.83"
/>
<path stroke="#6f6f6f" vector-effect="non-scaling-stroke" d="
  M 143.56 213.83
  Q 139.14 220.63 137.79 229.00"
/>
<path stroke="#ececec" vector-effect="non-scaling-stroke" d="
  M 137.79 229.00
  L 137.76 228.68
  A 0.42 0.41 -88.3 0 0 137.41 228.30
  Q 134.82 227.89 133.15 229.77
  A 0.76 0.76 0.0 0 1 132.36 230.00
  Q 130.20 229.35 128.29 230.75"
/>
<path stroke="#6f6f6f" vector-effect="non-scaling-stroke" d="
  M 128.29 230.75
  C 129.20 221.73 131.09 210.61 136.52 203.10
  C 137.13 202.25 136.64 201.61 135.57 201.75
  A 4.40 4.36 22.3 0 0 133.42 202.64
  Q 118.07 214.55 106.29 230.00"
/>
<path stroke="#ececec" vector-effect="non-scaling-stroke" d="
  M 106.29 230.00
  Q 104.44 226.96 104.64 223.24
  Q 104.66 222.75 104.40 223.17
  Q 103.19 225.14 102.67 227.33
  C 102.29 228.98 103.62 230.91 100.96 231.75"
/>
<path stroke="#6f6f6f" vector-effect="non-scaling-stroke" d="
  M 100.96 231.75
  L 93.42 214.83
  Q 92.36 212.45 90.39 214.16
  L 88.48 215.83
  A 0.57 0.56 59.1 0 1 87.58 215.60
  L 87.24 214.69
  A 0.71 0.69 -8.7 0 0 86.61 214.24
  Q 86.31 214.23 86.04 214.50"
/>
<path stroke="#ececec" vector-effect="non-scaling-stroke" d="
  M 89.44 212.06
  Q 89.56 212.25 89.82 212.27
  A 0.57 0.57 0.0 0 0 90.37 211.46
  C 88.08 206.46 89.29 199.11 88.79 193.97
  A 0.42 0.42 0.0 0 0 88.19 193.63
  C 86.33 194.49 88.11 209.44 88.50 211.32
  A 0.38 0.33 17.7 0 0 88.63 211.54
  Q 88.73 211.62 88.84 211.69
  Q 89.39 211.99 89.44 212.06"
/>
<path stroke="#838383" vector-effect="non-scaling-stroke" d="
  M 145.54 211.75
  L 143.56 213.83"
/>
<path stroke="#6f6f6f" vector-effect="non-scaling-stroke" d="
  M 253.14 252.93
  Q 249.66 258.75 243.50 262.40
  A 0.46 0.45 61.6 0 1 242.86 262.20
  Q 240.45 257.29 239.66 251.06
  Q 237.93 237.34 237.98 223.41
  Q 237.98 222.72 237.54 223.26
  C 231.17 231.07 221.06 236.69 227.85 248.64
  A 1.17 1.16 -36.7 0 1 227.64 250.06
  L 219.98 257.35
  Q 217.55 259.67 216.90 256.37
  L 215.75 250.41
  A 0.16 0.16 0.0 0 0 215.49 250.31
  C 205.03 258.05 191.11 263.45 178.08 259.65
  A 0.64 0.63 9.1 0 1 177.63 259.03
  Q 177.76 252.11 175.79 245.44
  Q 175.62 244.83 175.18 245.29
  L 171.46 249.25"
/>
<path stroke="#838383" vector-effect="non-scaling-stroke" d="
  M 100.96 231.75
  L 102.37 234.51
  A 0.36 0.36 0.0 0 0 102.98 234.56
  L 106.29 230.00"
/>
<path stroke="#838383" vector-effect="non-scaling-stroke" d="
  M 128.29 230.75
  Q 127.85 239.70 127.97 248.79
  C 128.03 252.97 130.56 254.74 134.48 254.48
  A 0.84 0.83 -79.3 0 0 135.19 253.99
  Q 136.74 250.64 136.78 247.50
  Q 136.94 236.59 137.79 229.00"
/>
<path stroke="#838383" vector-effect="non-scaling-stroke" d="
  M 193.50 213.29
  C 186.30 215.46 186.57 222.22 186.71 227.78
  Q 186.72 228.27 187.10 227.96
  Q 188.96 226.43 191.25 225.96"
/>
<path stroke="#838383" vector-effect="non-scaling-stroke" d="
  M 148.52 235.04
  C 146.29 241.96 153.14 248.30 159.23 248.97
  Q 161.43 249.22 161.85 247.04
  C 163.73 237.31 169.26 211.74 151.64 213.02
  Q 149.51 213.18 149.02 215.25
  C 148.12 218.99 145.19 232.98 148.24 234.40
  A 0.53 0.53 0.0 0 1 148.52 235.04"
/>
<path stroke="#6f6f6f" vector-effect="non-scaling-stroke" d="
  M 186.67 236.36
  L 187.83 242.51
  Q 188.02 243.51 188.75 242.79
  L 198.86 232.87
  Q 199.79 231.96 198.51 232.20
  L 188.14 234.19
  Q 186.32 234.53 186.67 236.36"
/>
<path stroke="#6f6f6f" vector-effect="non-scaling-stroke" d="
  M 236.79 296.00
  C 234.03 297.49 222.08 305.51 223.32 308.28
  A 0.49 0.48 64.4 0 0 223.99 308.52
  L 234.75 303.04"
/>
<path stroke="#ececec" vector-effect="non-scaling-stroke" d="
  M 234.75 303.04
  Q 235.18 304.70 236.50 305.79"
/>
<path stroke="#6f6f6f" vector-effect="non-scaling-stroke" d="
  M 236.50 305.79
  C 228.10 311.13 229.30 317.33 228.79 326.00"
/>
<path stroke="#6f6f6f" vector-effect="non-scaling-stroke" d="
  M 147.50 348.04
  Q 155.06 349.22 161.52 345.24
  A 0.40 0.40 0.0 0 1 162.11 345.44
  C 165.09 353.44 173.58 355.26 179.04 348.25
  Q 179.57 347.56 179.75 348.41
  Q 180.63 352.54 184.56 353.69
  C 194.10 356.48 199.34 352.17 206.31 345.44
  C 216.04 336.04 221.70 323.08 222.10 309.23
  C 222.28 303.03 218.31 300.03 212.80 298.28
  C 187.38 290.19 181.21 317.05 180.62 335.25
  C 180.56 337.30 179.51 339.17 178.91 341.00
  A 1.47 1.46 24.4 0 1 176.77 341.80
  C 173.09 339.61 171.95 336.97 171.97 332.53
  Q 172.04 314.06 176.00 295.95
  Q 176.28 294.65 175.10 295.26
  C 168.80 298.50 165.98 302.64 164.72 309.90
  Q 162.35 323.59 161.81 337.53
  A 0.61 0.61 0.0 0 1 161.30 338.11
  C 154.10 339.26 147.93 336.25 149.36 327.92
  C 151.39 316.06 159.51 307.42 167.28 299.23
  C 172.14 294.11 179.01 292.97 181.92 285.95
  A 0.39 0.39 0.0 0 0 181.61 285.41
  C 177.60 284.94 162.43 299.91 159.29 303.25"
/>
<path stroke="#ececec" vector-effect="non-scaling-stroke" d="
  M 159.29 303.25
  L 156.90 300.99
  A 0.38 0.38 0.0 0 0 156.29 301.12
  L 153.57 307.51
  A 1.22 1.20 46.1 0 0 153.56 308.42
  Q 153.77 308.96 154.21 309.25"
/>
<path stroke="#6f6f6f" vector-effect="non-scaling-stroke" d="
  M 154.21 309.25
  L 144.29 322.75"
/>
<path stroke="#ececec" vector-effect="non-scaling-stroke" d="
  M 170.91 276.01
  L 171.88 271.65
  A 0.35 0.35 0.0 0 0 171.55 271.23
  C 170.21 271.20 170.05 275.05 170.18 276.07
  A 1.54 1.53 -35.4 0 1 170.02 277.00
  L 169.65 277.72
  A 0.53 0.53 0.0 0 0 170.05 278.50
  L 170.43 278.55
  A 0.47 0.47 0.0 0 1 170.80 279.19
  L 170.07 281.06
  A 0.32 0.32 0.0 0 0 170.41 281.49
  L 170.70 281.45
  A 1.48 1.45 -72.1 0 0 171.58 280.99
  Q 174.22 278.17 174.98 274.48
  Q 175.73 270.83 174.41 274.19
  Q 173.64 276.15 171.46 276.57
  A 0.47 0.47 0.0 0 1 170.91 276.01"
/>
<path stroke="#ececec" vector-effect="non-scaling-stroke" d="
  M 168.4179 290.9952
  A 4.46 0.77 116.1 0 0 171.0715 287.3288
  A 4.46 0.77 116.1 0 0 172.3421 282.9848
  A 4.46 0.77 116.1 0 0 169.6885 286.6512
  A 4.46 0.77 116.1 0 0 168.4179 290.9952"
/>
<path stroke="#ececec" vector-effect="non-scaling-stroke" d="
  M 158.64 312.18
  Q 157.65 321.56 155.12 330.65
  A 0.52 0.50 -65.7 0 0 155.32 331.21
  L 155.57 331.38
  A 0.50 0.50 0.0 0 0 156.32 331.16
  Q 160.15 321.68 160.38 311.51
  A 0.51 0.51 0.0 0 0 159.86 310.98
  Q 158.76 311.00 158.64 312.18"
/>
<path stroke="#838383" vector-effect="non-scaling-stroke" d="
  M 154.21 309.25
  L 159.29 303.25"
/>
<path stroke="#6f6f6f" vector-effect="non-scaling-stroke" d="
  M 193.18 343.44
  C 208.13 351.45 211.49 326.88 212.03 318.00
  C 212.57 309.22 202.17 307.03 195.65 306.79
  Q 193.11 306.69 192.67 309.20
  Q 189.88 324.84 191.37 340.71
  Q 191.54 342.56 193.18 343.44"
/>
<path stroke="#838383" vector-effect="non-scaling-stroke" d="
  M 236.50 305.79
  Q 237.51 304.96 238.78 305.15
  A 0.57 0.56 5.7 0 1 239.26 305.73
  L 238.93 315.78
  Q 238.89 317.11 239.94 316.30
  C 244.72 312.61 249.50 307.56 250.54 301.15
  Q 250.90 298.96 248.68 299.18
  Q 241.64 299.87 234.75 303.04"
/>
<path stroke="#838383" vector-effect="non-scaling-stroke" d="
  M 271.33 330.31
  C 271.02 337.56 276.86 341.00 283.50 340.23
  A 0.43 0.43 0.0 0 1 283.95 340.80
  L 283.44 342.25
  A 0.46 0.45 -75.4 0 0 283.79 342.85
  C 295.81 344.95 297.27 335.64 297.96 326.48
  C 298.81 315.26 291.10 301.96 278.23 303.86
  A 2.54 2.53 -81.0 0 0 276.31 305.26
  C 272.49 313.05 271.70 321.77 271.33 330.31"
/>
<path stroke="#838383" vector-effect="non-scaling-stroke" d="
  M 238.28 324.30
  L 237.91 331.48
  Q 237.86 332.35 238.56 331.83
  L 250.49 322.91
  Q 251.63 322.05 250.20 322.01
  Q 244.56 321.85 239.13 323.26
  A 1.14 1.13 -5.9 0 0 238.28 324.30"
/>
<path stroke="#838383" vector-effect="non-scaling-stroke" d="
  M 242.00 341.24
  L 241.06 342.64
  A 0.63 0.62 27.9 0 0 241.35 343.56
  Q 248.64 346.50 256.02 343.78
  A 1.02 1.00 -5.0 0 0 256.65 343.04
  C 257.72 337.71 256.19 329.85 254.93 324.56
  A 0.54 0.54 0.0 0 0 254.08 324.26
  L 238.55 335.93
  A 0.84 0.83 -23.8 0 0 238.23 336.74
  C 238.71 339.51 240.10 339.07 241.87 340.42
  A 0.61 0.61 0.0 0 1 242.00 341.24"
/>
<path stroke="#838383" vector-effect="non-scaling-stroke" d="
  M 113.12 343.39
  Q 117.99 346.73 124.00 346.16
  Q 126.42 345.93 127.62 343.81
  C 131.58 336.83 132.00 319.65 131.41 311.31
  Q 130.79 302.46 121.75 301.32
  A 0.65 0.65 0.0 0 0 121.07 301.72
  Q 118.71 307.64 117.78 313.93
  C 116.92 319.83 111.98 321.46 111.20 326.93
  Q 110.22 333.70 111.26 340.42
  Q 111.55 342.31 113.12 343.39"
/>
</g>
<path fill="#ffffff" d="
  M 0.00 0.00
  L 128.56 0.00
  L 126.49 0.52
  A 0.91 0.89 -88.1 0 0 125.84 1.14
  Q 121.89 14.57 112.85 25.35
  Q 112.35 25.94 112.59 25.20
  L 114.00 20.87
  Q 114.10 20.56 113.85 20.77
  Q 111.38 22.92 110.45 25.19
  Q 107.92 31.37 104.71 35.32
  L 106.06 6.11
  Q 106.14 4.35 104.59 5.19
  C 100.01 7.69 96.49 11.05 96.20 16.52
  Q 94.60 47.00 92.46 77.45
  C 92.17 81.51 88.69 83.55 85.01 84.02
  A 0.98 0.98 0.0 0 1 84.17 83.71
  Q 82.28 81.65 81.80 79.18
  C 78.53 62.52 79.21 46.21 78.98 29.05
  Q 78.96 27.47 77.66 28.37
  C 73.87 30.98 69.44 34.77 69.19 39.62
  Q 67.97 62.66 71.15 85.50
  C 71.67 89.23 74.01 95.81 78.94 93.44
  Q 80.27 92.80 86.00 89.21
  Q 87.72 91.17 86.43 95.00
  Q 86.27 95.47 86.64 95.13
  C 88.02 93.89 89.81 95.16 90.37 96.35
  C 91.73 99.23 86.55 106.56 87.24 111.06
  C 88.35 118.31 86.45 128.27 82.96 135.36
  A 0.25 0.24 9.7 0 1 82.75 135.50
  L 82.49 135.51
  A 0.28 0.28 0.0 0 1 82.20 135.24
  L 82.12 130.74
  Q 82.11 130.28 82.23 129.83
  Q 83.13 126.43 83.11 123.70
  Q 83.10 122.48 82.08 122.13
  A 0.62 0.62 0.0 0 0 81.34 122.40
  C 79.08 126.18 79.00 129.56 78.60 133.83
  C 78.36 136.30 79.47 138.02 80.29 140.25
  C 76.47 142.65 71.68 145.65 69.93 150.00
  Q 69.48 151.13 70.60 150.65
  L 79.84 146.72
  L 79.66 154.62
  Q 79.64 155.90 79.12 154.72
  L 78.98 154.38
  Q 78.57 153.46 78.43 154.46
  C 78.11 156.64 78.69 158.88 78.72 160.76
  Q 78.88 170.82 78.96 180.88
  C 78.99 185.02 80.03 191.96 79.00 197.81
  A 3.96 3.94 -54.7 0 0 79.44 200.41
  Q 81.90 204.79 82.45 210.25
  Q 82.74 213.17 86.04 214.50
  Q 81.48 217.42 78.14 221.79
  A 1.56 1.51 -26.8 0 0 77.83 222.68
  C 77.44 237.01 75.72 252.94 78.09 267.03
  A 1.25 1.25 0.0 0 0 79.89 267.93
  Q 85.31 265.17 88.51 260.00
  A 1.21 1.21 0.0 0 0 88.65 259.04
  C 86.35 250.92 87.03 243.52 86.94 234.91
  Q 86.91 232.60 87.95 234.67
  L 93.84 246.41
  A 0.96 0.95 44.7 0 1 93.85 247.23
  L 90.24 254.75
  A 0.87 0.87 0.0 0 0 90.91 255.99
  C 95.31 256.59 108.39 246.28 109.94 242.15
  A 0.53 0.53 0.0 0 0 109.69 241.50
  L 105.70 239.38
  A 1.49 1.49 0.0 0 1 105.20 237.18
  C 110.72 229.71 116.53 221.58 123.23 215.20
  Q 124.16 214.31 123.71 215.51
  C 118.68 228.89 117.57 240.59 117.76 256.80
  C 117.78 258.97 117.74 261.11 119.47 262.49
  C 126.19 267.81 130.96 262.28 136.14 258.25
  A 0.40 0.40 0.0 0 1 136.74 258.41
  C 139.29 264.19 149.34 262.14 153.58 259.48
  A 1.91 1.86 27.3 0 1 154.50 259.20
  C 161.10 259.03 166.90 253.77 171.46 249.25
  C 172.41 250.67 171.98 251.79 170.48 252.57
  C 160.71 257.66 165.02 266.32 162.07 274.48
  C 160.62 278.48 157.74 280.51 156.05 284.10
  Q 152.92 290.77 150.03 297.56
  C 149.00 299.96 142.36 320.16 143.10 321.71
  Q 143.44 322.42 144.29 322.75
  C 140.02 330.15 133.67 346.66 147.50 348.04
  Q 147.16 352.12 147.56 356.14
  C 147.86 359.26 149.78 362.03 148.79 365.97
  A 0.80 0.79 -63.5 0 0 149.06 366.79
  Q 149.22 366.92 149.44 367.00
  L 0.00 367.00
  L 0.00 0.00
  Z
  M 80.29 306.45
  A 0.54 0.53 79.9 0 1 81.01 306.96
  Q 80.97 330.62 81.03 354.19
  Q 81.04 356.24 81.92 359.48
  A 0.39 0.39 0.0 0 0 82.50 359.70
  Q 87.26 356.64 90.79 352.26
  A 1.55 1.52 -26.4 0 0 91.14 351.26
  L 90.94 300.09
  A 0.86 0.86 0.0 0 1 91.50 299.27
  Q 98.28 296.73 105.50 295.92
  C 110.16 295.40 108.70 300.19 108.75 302.72
  Q 108.76 303.25 109.19 302.93
  C 112.32 300.65 119.11 294.88 119.15 290.74
  C 119.20 286.11 115.33 285.74 111.53 286.37
  C 99.62 288.36 84.23 295.17 78.24 306.37
  Q 77.67 307.44 78.80 307.01
  L 80.29 306.45
  Z
  M 104.44 353.81
  Q 114.89 359.56 123.73 351.73
  C 131.09 345.22 138.31 337.86 139.91 328.93
  Q 140.99 322.87 141.95 309.50
  C 142.57 300.91 140.30 292.42 130.51 291.19
  C 119.45 289.79 108.49 310.75 105.29 319.06
  C 102.84 325.44 96.80 349.61 104.44 353.81
  Z"
/>
<path fill="#d8d8d8" d="
  M 128.56 0.00
  L 227.31 0.00
  L 239.00 0.33
  Q 239.47 0.34 239.09 0.62
  C 223.47 12.32 209.44 27.32 197.20 42.45
  Q 192.65 48.08 186.53 50.35
  C 182.40 51.88 178.45 56.74 175.21 59.75
  C 170.02 55.57 159.49 48.88 152.63 53.47
  A 0.30 0.29 -19.9 0 1 152.17 53.26
  Q 151.59 48.15 145.92 49.14
  Q 125.22 52.76 110.32 65.80
  C 109.94 66.14 106.44 69.69 107.17 70.81
  A 0.53 0.53 0.0 0 0 107.88 70.97
  L 119.31 64.06
  Q 120.08 63.59 120.07 64.50
  L 119.38 112.76
  A 0.39 0.39 0.0 0 0 119.94 113.11
  C 124.32 110.94 129.75 106.33 129.76 100.96
  Q 129.80 80.81 130.08 60.65
  A 0.72 0.72 0.0 0 1 130.71 59.95
  L 139.32 58.85
  Q 141.81 58.54 141.89 61.04
  C 141.95 62.97 142.27 65.37 141.72 67.26
  C 138.05 79.82 137.47 89.23 137.96 102.67
  C 138.06 105.23 137.46 108.92 138.17 112.00
  Q 138.73 114.48 140.98 115.67
  Q 146.72 118.72 153.33 117.78
  Q 152.40 122.86 152.27 127.95
  C 152.13 133.05 149.11 136.35 144.56 138.18
  A 1.22 1.17 -1.7 0 0 143.90 138.85
  Q 143.21 140.70 143.13 143.75
  Q 142.81 156.06 143.00 160.04
  L 139.78 160.68
  Q 137.84 161.07 137.62 159.10
  L 134.97 134.55
  A 0.80 0.80 0.0 0 0 133.79 133.94
  C 130.47 135.75 124.54 140.23 125.00 144.75
  Q 125.83 153.01 127.06 162.51
  A 1.03 1.03 0.0 0 1 126.30 163.64
  L 109.70 168.02
  A 0.53 0.53 0.0 0 1 109.05 167.37
  C 111.31 159.00 115.93 145.67 123.13 140.88
  Q 129.08 136.91 133.89 131.58
  Q 136.75 128.41 132.48 128.27
  Q 105.40 127.42 80.29 140.25
  C 79.47 138.02 78.36 136.30 78.60 133.83
  C 79.00 129.56 79.08 126.18 81.34 122.40
  A 0.62 0.62 0.0 0 1 82.08 122.13
  Q 83.10 122.48 83.11 123.70
  Q 83.13 126.43 82.23 129.83
  Q 82.11 130.28 82.12 130.74
  L 82.20 135.24
  A 0.28 0.28 0.0 0 0 82.49 135.51
  L 82.75 135.50
  A 0.25 0.24 9.7 0 0 82.96 135.36
  C 86.45 128.27 88.35 118.31 87.24 111.06
  C 86.55 106.56 91.73 99.23 90.37 96.35
  C 89.81 95.16 88.02 93.89 86.64 95.13
  Q 86.27 95.47 86.43 95.00
  Q 87.72 91.17 86.00 89.21
  Q 88.42 87.09 91.12 86.10
  A 0.65 0.65 0.0 0 1 92.00 86.71
  L 92.00 109.66
  Q 92.00 113.52 95.43 111.75
  Q 101.29 108.71 104.62 102.88
  A 0.54 0.54 0.0 0 0 104.22 102.08
  L 103.04 101.94
  A 1.02 1.02 0.0 0 1 102.15 100.95
  L 101.95 83.57
  A 1.08 1.08 0.0 0 1 102.29 82.76
  L 111.82 73.86
  Q 113.47 72.32 111.22 72.52
  Q 106.77 72.94 102.72 74.64
  A 0.24 0.24 0.0 0 1 102.39 74.41
  L 104.71 35.32
  Q 107.92 31.37 110.45 25.19
  Q 111.38 22.92 113.85 20.77
  Q 114.10 20.56 114.00 20.87
  L 112.59 25.20
  Q 112.35 25.94 112.85 25.35
  Q 121.89 14.57 125.84 1.14
  A 0.91 0.89 -88.1 0 1 126.49 0.52
  L 128.56 0.00
  Z
  M 111.17 33.12
  L 108.44 37.65
  Q 108.06 38.28 108.73 38.00
  Q 111.74 36.76 112.03 33.40
  Q 112.20 31.41 111.17 33.12
  Z"
/>
<path fill="#ffffff" d="
  M 227.31 0.00
  L 305.06 0.00
  L 301.57 0.64
  Q 300.62 0.82 301.39 1.40
  L 302.25 2.06
  A 0.81 0.81 0.0 0 0 303.28 2.01
  L 304.29 1.07
  Q 304.97 0.44 304.99 1.37
  Q 305.02 2.76 303.79 2.75
  Q 303.00 2.75 303.45 3.41
  C 306.44 7.78 305.48 11.80 304.22 17.54
  A 1.83 1.78 42.1 0 0 304.28 18.49
  C 305.81 22.97 306.23 26.53 305.00 31.44
  C 304.11 35.03 301.15 44.18 302.85 47.35
  A 1.46 1.44 35.7 0 1 303.01 48.28
  C 301.67 57.13 293.86 63.43 289.26 70.54
  Q 282.23 81.41 276.17 92.86
  C 273.22 98.44 268.94 103.64 265.75 109.43
  C 264.94 110.89 263.91 111.95 262.89 113.26
  A 0.61 0.61 0.0 0 0 262.92 114.05
  L 263.16 114.32
  A 0.54 0.53 -49.5 0 0 264.00 114.25
  L 269.29 106.13
  A 1.37 1.37 0.0 0 1 271.30 105.82
  C 275.36 109.13 276.92 106.18 279.22 102.81
  Q 286.54 92.12 293.27 81.04
  Q 293.84 80.09 295.52 79.22
  A 0.40 0.40 0.0 0 1 296.09 79.49
  C 296.71 82.29 296.30 84.22 294.44 86.57
  Q 286.81 96.18 279.99 106.40
  C 278.64 108.42 276.51 109.76 275.30 112.21
  Q 273.69 115.49 273.11 116.42
  C 271.94 118.27 270.81 123.65 268.31 122.81
  A 0.61 0.61 0.0 0 1 267.97 121.95
  L 268.75 120.47
  Q 269.05 119.91 268.52 120.27
  Q 264.88 122.77 265.71 127.02
  A 1.16 1.15 57.8 0 1 265.50 127.96
  L 262.50 131.96
  C 257.60 131.98 251.99 131.54 247.19 132.38
  C 229.44 135.47 227.51 156.78 227.96 170.75
  C 223.65 173.16 217.94 184.91 215.68 189.55
  A 0.83 0.83 0.0 0 0 215.70 190.30
  L 216.45 191.68
  Q 216.98 192.65 215.94 192.25
  C 211.18 190.41 209.59 195.00 205.99 196.77
  Q 205.30 197.11 205.59 196.40
  Q 206.80 193.48 209.26 191.43
  Q 209.80 190.98 209.10 190.91
  C 204.51 190.46 203.77 199.33 199.29 199.26
  A 0.74 0.72 72.3 0 1 198.69 198.94
  L 197.94 197.88
  A 0.65 0.64 44.8 0 0 196.89 197.88
  L 189.03 209.10
  A 1.39 1.35 58.2 0 0 188.81 210.10
  L 189.04 211.50
  Q 180.71 217.36 175.57 226.00
  C 170.85 233.92 178.08 242.03 167.12 248.75
  Q 165.31 249.86 166.40 248.04
  C 167.74 245.81 169.80 243.63 170.82 241.40
  C 172.44 237.82 172.70 233.46 173.22 230.56
  Q 174.69 222.31 173.90 213.94
  C 172.84 202.82 160.42 200.57 152.29 205.50
  Q 151.54 204.75 152.08 203.87
  A 0.98 0.96 -40.4 0 0 152.16 203.00
  C 150.73 199.26 151.12 196.01 149.69 192.97
  A 0.58 0.58 0.0 0 1 149.87 192.26
  C 151.37 191.16 150.64 186.66 150.76 183.50
  C 150.80 182.25 148.84 180.25 150.50 179.46
  C 153.71 185.19 157.59 181.04 160.46 178.16
  A 0.96 0.94 27.0 0 1 161.31 177.89
  Q 171.85 179.68 173.99 179.78
  C 181.83 180.16 195.23 175.37 198.23 166.51
  Q 198.51 165.71 197.76 166.12
  C 188.27 171.36 173.60 171.61 165.44 164.43
  C 161.48 160.95 162.57 154.09 163.51 149.26
  Q 165.60 138.51 174.63 135.07
  C 179.74 133.13 182.56 130.69 185.29 126.21
  A 0.78 0.78 0.0 0 0 184.67 125.03
  L 183.49 124.98
  A 1.97 1.97 0.0 0 0 182.47 125.20
  Q 171.40 131.04 163.11 140.42
  Q 162.45 141.16 162.58 140.19
  L 163.99 129.69
  Q 164.19 128.24 162.90 128.94
  C 158.57 131.26 153.28 135.67 153.04 141.02
  Q 152.68 149.06 151.07 158.27
  A 0.71 0.71 0.0 0 1 150.48 158.86
  L 143.00 160.04
  Q 142.81 156.06 143.13 143.75
  Q 143.21 140.70 143.90 138.85
  A 1.22 1.17 -1.7 0 1 144.56 138.18
  C 149.11 136.35 152.13 133.05 152.27 127.95
  Q 152.40 122.86 153.33 117.78
  L 156.18 117.05
  Q 154.23 122.48 155.06 128.07
  Q 155.13 128.60 154.95 129.11
  L 154.75 129.64
  Q 154.31 130.83 155.29 130.03
  C 158.86 127.06 161.42 119.01 163.41 114.64
  A 1.24 1.21 47.4 0 0 163.44 113.70
  Q 163.23 113.13 162.71 112.75
  C 174.38 101.78 181.68 93.76 182.68 76.46
  Q 183.32 65.64 175.21 59.75
  C 178.45 56.74 182.40 51.88 186.53 50.35
  Q 192.65 48.08 197.20 42.45
  C 209.44 27.32 223.47 12.32 239.09 0.62
  Q 239.47 0.34 239.00 0.33
  L 227.31 0.00
  Z
  M 238.64 59.72
  C 232.82 67.64 231.22 76.65 230.52 86.54
  Q 230.45 87.55 231.34 87.07
  L 233.85 85.73
  Q 234.66 85.30 234.50 86.20
  Q 233.31 93.17 233.10 101.00
  C 232.88 109.39 241.81 112.33 248.40 111.06
  C 260.04 108.80 274.26 91.41 275.75 80.25
  C 276.87 71.91 278.07 60.64 269.71 55.28
  Q 264.26 51.78 257.72 51.80
  A 0.76 0.76 0.0 0 1 256.96 51.09
  L 256.81 48.59
  A 0.71 0.71 0.0 0 0 256.04 47.93
  C 248.12 48.54 240.22 51.70 232.96 54.83
  A 0.53 0.51 -27.1 0 1 232.31 54.63
  L 231.66 53.53
  A 0.74 0.74 0.0 0 0 230.74 53.23
  C 228.23 54.29 226.35 56.39 224.64 57.62
  C 219.93 61.01 214.41 63.69 212.08 69.41
  Q 211.69 70.37 212.63 69.94
  L 221.34 65.93
  A 0.37 0.37 0.0 0 1 221.87 66.25
  Q 222.12 70.59 221.72 73.69
  Q 219.88 87.96 218.39 108.69
  Q 218.06 113.22 218.49 116.55
  A 0.38 0.38 0.0 0 0 219.02 116.85
  C 223.47 114.87 227.71 110.95 227.95 105.78
  Q 228.98 83.90 232.19 62.17
  A 0.99 0.98 -6.7 0 1 232.81 61.39
  L 238.31 59.28
  Q 239.21 58.94 238.64 59.72
  Z
  M 211.10 66.09
  C 206.83 68.27 188.54 79.41 188.09 83.91
  Q 187.96 85.24 189.09 84.51
  C 192.03 82.59 213.70 69.27 211.85 66.30
  A 0.58 0.57 60.5 0 0 211.10 66.09
  Z"
/>
<path fill="#d8d8d8" d="
  M 305.06 0.00
  L 381.06 0.00
  Q 382.08 0.05 383.08 0.64
  A 0.85 0.84 -74.4 0 1 383.50 1.39
  Q 383.41 8.90 385.53 15.95
  C 387.97 24.06 388.90 28.72 386.95 36.18
  A 1.18 1.15 -53.3 0 0 387.07 37.08
  Q 387.81 38.36 387.46 39.20
  Q 385.19 44.60 385.35 51.64
  A 0.66 0.66 0.0 0 1 384.96 52.26
  L 382.22 53.47
  A 0.81 0.81 0.0 0 0 381.77 54.41
  C 383.33 60.35 380.50 64.96 378.84 70.59
  A 1.03 1.00 33.2 0 0 379.05 71.53
  L 381.11 73.88
  A 0.85 0.84 -54.0 0 1 381.25 74.77
  C 378.58 80.83 377.84 87.32 372.81 92.04
  Q 371.00 93.74 369.80 95.92
  Q 367.77 99.63 367.11 103.84
  Q 359.22 106.03 350.58 104.81
  A 0.98 0.98 0.0 0 1 349.77 103.60
  C 352.54 92.81 361.75 88.78 367.34 79.92
  C 368.37 78.31 368.26 76.37 367.34 74.81
  A 1.10 1.07 -9.5 0 0 366.59 74.29
  Q 361.01 73.25 355.41 74.24
  C 353.48 74.58 352.28 76.00 350.43 76.80
  A 0.43 0.42 70.5 0 1 349.85 76.52
  Q 348.64 71.74 349.03 66.76
  Q 349.18 64.79 351.00 64.01
  C 356.76 61.54 366.56 57.24 371.88 59.88
  A 0.71 0.70 -53.3 0 0 372.68 59.76
  C 375.38 57.27 382.46 51.15 380.85 49.22
  A 1.00 0.99 -21.1 0 0 380.02 48.86
  C 365.75 49.64 355.09 55.60 344.26 64.77
  C 340.30 68.13 338.73 70.92 337.48 76.32
  Q 335.24 86.08 332.10 95.05
  A 1.29 1.28 -62.5 0 1 330.14 95.67
  C 326.82 93.27 327.76 84.73 328.06 81.32
  Q 328.21 79.66 329.54 78.67
  C 334.10 75.27 339.62 69.70 340.12 63.75
  C 340.59 58.09 339.94 52.33 335.13 48.76
  Q 333.58 47.61 331.88 48.54
  C 320.46 54.88 320.70 64.22 319.30 75.62
  Q 319.08 77.36 317.39 77.86
  L 309.67 80.13
  A 0.51 0.51 0.0 0 1 309.02 79.62
  Q 309.55 63.80 312.70 48.35
  L 317.10 46.44
  A 1.44 1.42 1.7 0 0 317.78 45.81
  Q 319.63 42.42 318.05 38.93
  A 0.30 0.29 77.6 0 0 317.78 38.75
  L 317.49 38.74
  A 0.26 0.25 -3.0 0 0 317.23 39.02
  Q 317.35 40.49 316.96 41.02
  Q 315.27 43.30 316.14 40.72
  Q 317.88 35.55 316.95 30.16
  A 0.80 0.80 0.0 0 0 316.15 29.50
  L 315.07 29.51
  A 1.08 1.07 -15.0 0 1 314.14 28.98
  L 313.38 27.70
  Q 312.71 26.57 312.85 27.88
  C 313.04 29.82 312.41 31.52 312.52 33.34
  Q 312.86 39.43 310.61 45.08
  Q 310.42 45.55 310.45 46.07
  Q 310.50 47.01 310.24 47.98
  A 0.54 0.54 0.0 0 0 310.67 48.65
  L 311.50 48.79
  C 305.49 52.04 302.59 56.34 301.40 63.37
  Q 299.52 74.49 299.06 85.83
  A 2.62 2.62 0.0 0 1 297.75 87.99
  Q 295.80 89.11 295.99 91.35
  A 0.49 0.49 0.0 0 0 296.65 91.77
  L 298.10 91.25
  A 0.65 0.64 -10.1 0 1 298.96 91.85
  L 299.09 109.09
  Q 299.12 112.35 301.55 110.18
  L 307.85 104.56
  Q 309.33 103.25 309.28 101.27
  L 308.95 88.25
  A 1.20 1.19 81.6 0 1 309.82 87.07
  L 317.95 84.69
  A 0.35 0.34 84.2 0 1 318.39 85.05
  C 317.99 89.40 316.08 104.10 321.33 105.87
  C 327.84 108.08 334.62 99.49 337.88 94.78
  Q 339.01 93.13 338.96 95.13
  C 338.91 96.99 338.24 105.96 343.31 102.32
  A 0.27 0.27 0.0 0 1 343.71 102.41
  C 344.37 103.65 337.47 110.99 340.66 114.21
  C 342.93 116.50 355.49 114.60 358.64 113.96
  Q 356.14 123.41 349.76 130.44
  C 345.78 134.83 343.55 141.22 341.13 146.56
  Q 338.37 152.68 335.25 157.68
  C 329.29 167.22 323.53 176.41 316.66 185.67
  Q 308.62 196.51 300.68 207.43
  Q 296.05 213.78 288.84 217.08
  Q 288.05 217.44 288.24 216.59
  Q 288.52 215.32 289.40 214.29
  A 0.51 0.51 0.0 0 0 289.50 214.02
  L 289.51 213.73
  A 0.27 0.27 0.0 0 0 289.17 213.46
  Q 285.18 214.63 281.07 214.15
  A 1.07 1.05 25.1 0 0 280.19 214.46
  C 278.98 215.73 275.63 217.12 275.24 218.48
  Q 274.36 221.56 272.96 224.42
  A 1.53 1.47 -1.2 0 1 272.28 225.10
  Q 267.16 227.59 261.52 228.08
  A 0.79 0.78 4.7 0 0 260.83 228.66
  L 258.58 237.23
  A 0.58 0.58 0.0 0 0 258.89 237.91
  C 260.13 238.50 259.99 239.68 259.20 240.67
  Q 255.70 245.08 251.26 248.55
  Q 249.88 245.33 249.57 242.19
  C 248.91 235.65 245.92 213.43 249.56 209.82
  C 252.95 206.46 259.23 201.06 257.82 199.69
  A 0.61 0.60 -41.8 0 0 257.04 199.65
  C 244.27 209.51 237.30 217.96 228.40 229.53
  Q 226.01 232.64 226.01 228.71
  L 226.00 209.80
  Q 226.00 208.40 224.80 209.12
  Q 220.99 211.40 218.12 214.67
  C 214.83 218.39 216.03 222.09 216.01 226.49
  Q 215.96 233.82 216.04 241.26
  A 1.70 1.66 60.9 0 1 215.79 242.18
  C 210.76 250.44 199.64 251.79 190.99 250.81
  A 0.71 0.71 0.0 0 1 190.38 250.20
  L 189.93 246.15
  A 1.13 1.12 64.0 0 1 190.24 245.24
  C 196.30 239.05 204.96 232.49 208.70 224.64
  Q 209.87 222.17 207.15 222.45
  Q 199.28 223.25 191.25 225.96
  Q 189.72 219.37 193.74 214.32
  A 0.57 0.56 -44.6 0 0 193.75 213.62
  L 193.50 213.29
  Q 197.20 211.21 201.46 211.01
  A 0.67 0.67 0.0 0 1 202.12 211.47
  C 202.49 212.61 202.07 219.43 204.33 217.28
  C 209.14 212.69 215.62 207.44 212.18 202.04
  Q 211.23 200.56 209.52 200.93
  C 201.37 202.64 196.56 206.01 189.04 211.50
  L 188.81 210.10
  A 1.39 1.35 58.2 0 1 189.03 209.10
  L 196.89 197.88
  A 0.65 0.64 44.8 0 1 197.94 197.88
  L 198.69 198.94
  A 0.74 0.72 72.3 0 0 199.29 199.26
  C 203.77 199.33 204.51 190.46 209.10 190.91
  Q 209.80 190.98 209.26 191.43
  Q 206.80 193.48 205.59 196.40
  Q 205.30 197.11 205.99 196.77
  C 209.59 195.00 211.18 190.41 215.94 192.25
  Q 216.98 192.65 216.45 191.68
  L 215.70 190.30
  A 0.83 0.83 0.0 0 1 215.68 189.55
  C 217.94 184.91 223.65 173.16 227.96 170.75
  Q 226.14 185.95 240.63 187.07
  A 0.28 0.23 64.4 0 1 240.76 187.13
  L 240.95 187.32
  A 0.22 0.21 52.4 0 1 240.91 187.67
  L 238.33 189.12
  A 0.80 0.80 0.0 0 0 237.97 190.08
  L 239.07 193.15
  A 0.49 0.49 0.0 0 0 239.66 193.46
  Q 244.31 192.24 243.84 187.75
  A 0.50 0.49 86.9 0 1 244.33 187.20
  C 260.60 187.15 278.86 179.15 286.47 163.88
  Q 287.77 161.28 285.42 159.57
  Q 284.44 158.86 283.27 158.91
  C 279.65 159.06 274.69 164.94 273.02 167.88
  A 0.55 0.54 -68.2 0 0 273.36 168.68
  L 275.26 169.13
  A 0.99 0.98 89.5 0 1 275.97 169.83
  Q 276.42 171.61 274.92 172.36
  C 264.54 177.59 233.80 183.80 238.22 161.37
  Q 244.48 151.05 252.84 142.33
  Q 255.96 141.41 258.54 139.03
  Q 261.17 136.60 263.96 133.08
  A 0.53 0.53 0.0 0 0 263.88 132.34
  Q 263.28 131.86 262.50 131.96
  L 265.50 127.96
  A 1.16 1.15 57.8 0 0 265.71 127.02
  Q 264.88 122.77 268.52 120.27
  Q 269.05 119.91 268.75 120.47
  L 267.97 121.95
  A 0.61 0.61 0.0 0 0 268.31 122.81
  C 270.81 123.65 271.94 118.27 273.11 116.42
  Q 273.69 115.49 275.30 112.21
  C 276.51 109.76 278.64 108.42 279.99 106.40
  Q 286.81 96.18 294.44 86.57
  C 296.30 84.22 296.71 82.29 296.09 79.49
  A 0.40 0.40 0.0 0 0 295.52 79.22
  Q 293.84 80.09 293.27 81.04
  Q 286.54 92.12 279.22 102.81
  C 276.92 106.18 275.36 109.13 271.30 105.82
  A 1.37 1.37 0.0 0 0 269.29 106.13
  L 264.00 114.25
  A 0.54 0.53 -49.5 0 1 263.16 114.32
  L 262.92 114.05
  A 0.61 0.61 0.0 0 1 262.89 113.26
  C 263.91 111.95 264.94 110.89 265.75 109.43
  C 268.94 103.64 273.22 98.44 276.17 92.86
  Q 282.23 81.41 289.26 70.54
  C 293.86 63.43 301.67 57.13 303.01 48.28
  A 1.46 1.44 35.7 0 0 302.85 47.35
  C 301.15 44.18 304.11 35.03 305.00 31.44
  C 306.23 26.53 305.81 22.97 304.28 18.49
  A 1.83 1.78 42.1 0 1 304.22 17.54
  C 305.48 11.80 306.44 7.78 303.45 3.41
  Q 303.00 2.75 303.79 2.75
  Q 305.02 2.76 304.99 1.37
  Q 304.97 0.44 304.29 1.07
  L 303.28 2.01
  A 0.81 0.81 0.0 0 1 302.25 2.06
  L 301.39 1.40
  Q 300.62 0.82 301.57 0.64
  L 305.06 0.00
  Z
  M 313.32 17.41
  C 312.63 18.03 313.04 24.40 314.05 24.51
  A 0.26 0.26 0.0 0 0 314.34 24.23
  L 313.63 17.53
  Q 313.59 17.17 313.32 17.41
  Z
  M 381.60 33.07
  Q 381.50 34.64 382.64 33.54
  Q 385.16 31.11 383.85 27.71
  A 0.73 0.73 0.0 0 0 383.07 27.25
  C 381.13 27.49 381.71 31.34 381.60 33.07
  Z
  M 381.78 37.05
  C 378.00 35.37 378.02 46.20 378.14 47.80
  A 0.42 0.42 0.0 0 0 378.72 48.15
  Q 379.05 48.02 379.13 47.56
  Q 379.96 42.75 382.26 38.44
  A 1.01 1.00 26.1 0 0 381.78 37.05
  Z"
/>
<path fill="#ffffff" d="
  M 381.06 0.00
  L 446.00 0.00
  L 446.00 367.00
  L 219.45 367.01
  Q 221.79 361.78 222.03 356.00
  C 222.16 352.84 220.21 351.40 220.00 348.79
  Q 219.77 346.01 220.38 343.67
  C 220.95 341.48 226.19 323.16 228.22 321.97
  A 0.33 0.33 0.0 0 1 228.72 322.25
  L 228.79 326.00
  Q 227.63 342.94 227.74 346.03
  Q 228.01 353.97 236.07 354.70
  C 244.50 355.46 251.88 354.09 257.81 347.79
  Q 260.13 345.33 261.26 344.34
  A 0.30 0.30 0.0 0 1 261.75 344.51
  Q 263.21 351.12 269.91 352.63
  C 284.87 355.98 294.36 345.48 302.49 335.38
  Q 302.81 334.98 302.98 335.46
  C 303.90 338.04 297.43 348.33 296.05 351.42
  Q 295.00 353.76 297.56 353.88
  Q 301.04 354.05 303.11 351.15
  A 0.39 0.39 0.0 0 1 303.75 351.16
  L 305.23 353.42
  A 1.17 1.16 -13.0 0 0 306.09 353.95
  C 310.26 354.36 314.49 349.26 316.65 346.12
  A 1.36 1.36 0.0 0 0 316.11 344.12
  C 311.71 342.06 311.99 332.49 314.25 329.10
  Q 320.13 320.26 328.67 309.17
  Q 330.79 306.42 333.10 304.82
  Q 333.52 304.53 333.49 305.04
  Q 332.09 326.26 331.95 347.52
  C 331.92 353.45 336.95 355.31 341.31 351.81
  C 342.48 350.88 350.56 343.61 350.03 342.52
  A 0.61 0.61 0.0 0 0 349.19 342.26
  L 346.57 343.74
  A 1.49 1.46 -53.5 0 1 345.58 343.90
  C 343.23 343.47 342.05 342.19 342.01 339.67
  Q 341.70 317.92 343.80 296.28
  C 343.98 294.43 345.01 293.29 345.99 291.84
  Q 347.06 290.26 345.29 290.96
  Q 342.09 292.23 339.47 294.47
  Q 324.41 307.32 313.46 323.92
  Q 312.62 325.18 312.77 323.68
  L 314.98 300.68
  Q 315.11 299.32 313.91 299.97
  Q 309.69 302.24 306.74 306.05
  A 0.37 0.37 0.0 0 1 306.11 305.97
  Q 300.24 292.72 286.29 293.88
  C 277.77 294.59 270.94 305.15 265.71 310.98
  Q 263.78 313.14 261.65 312.64
  C 257.68 311.71 252.01 312.08 248.86 313.20
  Q 245.65 314.35 248.21 312.09
  C 251.97 308.77 264.47 294.36 259.41 289.32
  A 1.06 1.03 63.2 0 0 258.53 289.02
  Q 247.03 290.62 236.79 296.00
  L 236.65 295.57
  A 1.00 0.99 53.6 0 1 236.78 294.68
  C 238.77 291.86 238.20 288.97 239.16 286.26
  Q 242.77 275.97 247.19 265.93
  A 1.88 1.86 85.0 0 1 247.81 265.18
  Q 253.10 261.44 254.34 255.19
  C 254.75 253.12 255.80 252.03 256.63 250.19
  Q 256.88 249.63 256.42 250.04
  L 253.14 252.93
  Q 251.27 250.39 251.26 248.55
  Q 255.70 245.08 259.20 240.67
  C 259.99 239.68 260.13 238.50 258.89 237.91
  A 0.58 0.58 0.0 0 1 258.58 237.23
  L 260.83 228.66
  A 0.79 0.78 4.7 0 1 261.52 228.08
  Q 267.16 227.59 272.28 225.10
  A 1.53 1.47 -1.2 0 0 272.96 224.42
  Q 274.36 221.56 275.24 218.48
  C 275.63 217.12 278.98 215.73 280.19 214.46
  A 1.07 1.05 25.1 0 1 281.07 214.15
  Q 285.18 214.63 289.17 213.46
  A 0.27 0.27 0.0 0 1 289.51 213.73
  L 289.50 214.02
  A 0.51 0.51 0.0 0 1 289.40 214.29
  Q 288.52 215.32 288.24 216.59
  Q 288.05 217.44 288.84 217.08
  Q 296.05 213.78 300.68 207.43
  Q 308.62 196.51 316.66 185.67
  C 323.53 176.41 329.29 167.22 335.25 157.68
  Q 338.37 152.68 341.13 146.56
  C 343.55 141.22 345.78 134.83 349.76 130.44
  Q 356.14 123.41 358.64 113.96
  C 367.64 110.67 374.29 107.65 379.69 100.44
  Q 380.33 99.58 380.13 98.64
  A 0.39 0.38 69.2 0 0 379.57 98.38
  Q 373.77 101.75 367.11 103.84
  Q 367.77 99.63 369.80 95.92
  Q 371.00 93.74 372.81 92.04
  C 377.84 87.32 378.58 80.83 381.25 74.77
  A 0.85 0.84 -54.0 0 0 381.11 73.88
  L 379.05 71.53
  A 1.03 1.00 33.2 0 1 378.84 70.59
  C 380.50 64.96 383.33 60.35 381.77 54.41
  A 0.81 0.81 0.0 0 1 382.22 53.47
  L 384.96 52.26
  A 0.66 0.66 0.0 0 0 385.35 51.64
  Q 385.19 44.60 387.46 39.20
  Q 387.81 38.36 387.07 37.08
  A 1.18 1.15 -53.3 0 1 386.95 36.18
  C 388.90 28.72 387.97 24.06 385.53 15.95
  Q 383.41 8.90 383.50 1.39
  A 0.85 0.84 -74.4 0 0 383.08 0.64
  Q 382.08 0.05 381.06 0.00
  Z
  M 355.54 126.36
  C 355.07 127.66 353.01 129.46 351.96 130.38
  A 0.62 0.62 0.0 0 0 351.87 131.20
  L 352.04 131.43
  A 0.52 0.52 0.0 0 0 352.89 131.41
  L 355.94 126.86
  A 0.25 0.25 0.0 0 0 355.91 126.54
  L 355.70 126.33
  A 0.10 0.10 0.0 0 0 355.54 126.36
  Z
  M 352.50 245.03
  C 341.32 245.40 326.92 262.90 325.74 273.33
  Q 325.61 274.48 326.48 273.72
  Q 330.24 270.45 333.60 266.76
  C 335.94 264.19 336.46 260.96 337.95 257.79
  Q 339.30 254.93 342.45 254.78
  Q 348.49 254.48 354.37 255.82
  A 1.40 1.35 -52.1 0 0 355.35 255.68
  Q 360.25 253.01 363.27 248.33
  Q 364.86 245.88 361.96 245.51
  Q 356.95 244.88 352.50 245.03
  Z
  M 224.99 359.75
  L 224.19 365.85
  Q 224.08 366.67 224.77 366.22
  L 226.09 365.35
  A 0.73 0.73 0.0 0 0 226.42 364.61
  C 226.22 363.26 226.74 360.52 226.02 359.56
  Q 225.17 358.42 224.99 359.75
  Z"
/>
<path fill="#060606" d="
  M 104.71 35.32
  L 102.39 74.41
  A 0.24 0.24 0.0 0 0 102.72 74.64
  Q 106.77 72.94 111.22 72.52
  Q 113.47 72.32 111.82 73.86
  L 102.29 82.76
  A 1.08 1.08 0.0 0 0 101.95 83.57
  L 102.15 100.95
  A 1.02 1.02 0.0 0 0 103.04 101.94
  L 104.22 102.08
  A 0.54 0.54 0.0 0 1 104.62 102.88
  Q 101.29 108.71 95.43 111.75
  Q 92.00 113.52 92.00 109.66
  L 92.00 86.71
  A 0.65 0.65 0.0 0 0 91.12 86.10
  Q 88.42 87.09 86.00 89.21
  Q 80.27 92.80 78.94 93.44
  C 74.01 95.81 71.67 89.23 71.15 85.50
  Q 67.97 62.66 69.19 39.62
  C 69.44 34.77 73.87 30.98 77.66 28.37
  Q 78.96 27.47 78.98 29.05
  C 79.21 46.21 78.53 62.52 81.80 79.18
  Q 82.28 81.65 84.17 83.71
  A 0.98 0.98 0.0 0 0 85.01 84.02
  C 88.69 83.55 92.17 81.51 92.46 77.45
  Q 94.60 47.00 96.20 16.52
  C 96.49 11.05 100.01 7.69 104.59 5.19
  Q 106.14 4.35 106.06 6.11
  L 104.71 35.32
  Z"
/>
<path fill="#ffffff" d="
  M 314.05 24.51
  C 313.04 24.40 312.63 18.03 313.32 17.41
  Q 313.59 17.17 313.63 17.53
  L 314.34 24.23
  A 0.26 0.26 0.0 0 1 314.05 24.51
  Z"
/>
<path fill="#ffffff" d="
  M 381.60 33.07
  C 381.71 31.34 381.13 27.49 383.07 27.25
  A 0.73 0.73 0.0 0 1 383.85 27.71
  Q 385.16 31.11 382.64 33.54
  Q 381.50 34.64 381.60 33.07
  Z"
/>
<path fill="#ffffff" d="
  M 312.70 48.35
  L 311.50 48.79
  L 310.67 48.65
  A 0.54 0.54 0.0 0 1 310.24 47.98
  Q 310.50 47.01 310.45 46.07
  Q 310.42 45.55 310.61 45.08
  Q 312.86 39.43 312.52 33.34
  C 312.41 31.52 313.04 29.82 312.85 27.88
  Q 312.71 26.57 313.38 27.70
  L 314.14 28.98
  A 1.08 1.07 -15.0 0 0 315.07 29.51
  L 316.15 29.50
  A 0.80 0.80 0.0 0 1 316.95 30.16
  Q 317.88 35.55 316.14 40.72
  Q 315.27 43.30 316.96 41.02
  Q 317.35 40.49 317.23 39.02
  A 0.26 0.25 -3.0 0 1 317.49 38.74
  L 317.78 38.75
  A 0.30 0.29 77.6 0 1 318.05 38.93
  Q 319.63 42.42 317.78 45.81
  A 1.44 1.42 1.7 0 1 317.10 46.44
  L 312.70 48.35
  Z"
/>
<path fill="#ffffff" d="
  M 111.17 33.12
  Q 112.20 31.41 112.03 33.40
  Q 111.74 36.76 108.73 38.00
  Q 108.06 38.28 108.44 37.65
  L 111.17 33.12
  Z"
/>
<path fill="#ffffff" d="
  M 378.14 47.80
  C 378.02 46.20 378.00 35.37 381.78 37.05
  A 1.01 1.00 26.1 0 1 382.26 38.44
  Q 379.96 42.75 379.13 47.56
  Q 379.05 48.02 378.72 48.15
  A 0.42 0.42 0.0 0 1 378.14 47.80
  Z"
/>
<path fill="#060606" d="
  M 238.31 59.28
  L 232.81 61.39
  A 0.99 0.98 -6.7 0 0 232.19 62.17
  Q 228.98 83.90 227.95 105.78
  C 227.71 110.95 223.47 114.87 219.02 116.85
  A 0.38 0.38 0.0 0 1 218.49 116.55
  Q 218.06 113.22 218.39 108.69
  Q 219.88 87.96 221.72 73.69
  Q 222.12 70.59 221.87 66.25
  A 0.37 0.37 0.0 0 0 221.34 65.93
  L 212.63 69.94
  Q 211.69 70.37 212.08 69.41
  C 214.41 63.69 219.93 61.01 224.64 57.62
  C 226.35 56.39 228.23 54.29 230.74 53.23
  A 0.74 0.74 0.0 0 1 231.66 53.53
  L 232.31 54.63
  A 0.53 0.51 -27.1 0 0 232.96 54.83
  C 240.22 51.70 248.12 48.54 256.04 47.93
  A 0.71 0.71 0.0 0 1 256.81 48.59
  L 256.96 51.09
  A 0.76 0.76 0.0 0 0 257.72 51.80
  Q 264.26 51.78 269.71 55.28
  C 278.07 60.64 276.87 71.91 275.75 80.25
  C 274.26 91.41 260.04 108.80 248.40 111.06
  C 241.81 112.33 232.88 109.39 233.10 101.00
  Q 233.31 93.17 234.50 86.20
  Q 234.66 85.30 233.85 85.73
  L 231.34 87.07
  Q 230.45 87.55 230.52 86.54
  C 231.22 76.65 232.82 67.64 238.64 59.72
  Q 239.21 58.94 238.31 59.28
  Z
  M 243.78 60.87
  A 0.30 0.30 0.0 0 0 243.40 61.09
  L 242.45 65.39
  A 0.30 0.30 0.0 0 0 243.00 65.60
  L 245.30 61.75
  A 0.30 0.30 0.0 0 0 245.13 61.31
  L 243.78 60.87
  Z
  M 264.86 70.69
  C 262.59 65.88 256.12 61.48 250.32 62.29
  A 0.92 0.91 -81.5 0 0 249.62 62.81
  Q 243.29 76.55 243.14 91.76
  Q 243.07 98.27 249.19 100.35
  C 264.57 105.56 266.10 90.82 266.31 80.45
  Q 266.45 74.04 264.86 70.69
  Z"
/>
<path fill="#060606" d="
  M 312.70 48.35
  Q 309.55 63.80 309.02 79.62
  A 0.51 0.51 0.0 0 0 309.67 80.13
  L 317.39 77.86
  Q 319.08 77.36 319.30 75.62
  C 320.70 64.22 320.46 54.88 331.88 48.54
  Q 333.58 47.61 335.13 48.76
  C 339.94 52.33 340.59 58.09 340.12 63.75
  C 339.62 69.70 334.10 75.27 329.54 78.67
  Q 328.21 79.66 328.06 81.32
  C 327.76 84.73 326.82 93.27 330.14 95.67
  A 1.29 1.28 -62.5 0 0 332.10 95.05
  Q 335.24 86.08 337.48 76.32
  C 338.73 70.92 340.30 68.13 344.26 64.77
  C 355.09 55.60 365.75 49.64 380.02 48.86
  A 1.00 0.99 -21.1 0 1 380.85 49.22
  C 382.46 51.15 375.38 57.27 372.68 59.76
  A 0.71 0.70 -53.3 0 1 371.88 59.88
  C 366.56 57.24 356.76 61.54 351.00 64.01
  Q 349.18 64.79 349.03 66.76
  Q 348.64 71.74 349.85 76.52
  A 0.43 0.42 70.5 0 0 350.43 76.80
  C 352.28 76.00 353.48 74.58 355.41 74.24
  Q 361.01 73.25 366.59 74.29
  A 1.10 1.07 -9.5 0 1 367.34 74.81
  C 368.26 76.37 368.37 78.31 367.34 79.92
  C 361.75 88.78 352.54 92.81 349.77 103.60
  A 0.98 0.98 0.0 0 0 350.58 104.81
  Q 359.22 106.03 367.11 103.84
  Q 373.77 101.75 379.57 98.38
  A 0.39 0.38 69.2 0 1 380.13 98.64
  Q 380.33 99.58 379.69 100.44
  C 374.29 107.65 367.64 110.67 358.64 113.96
  C 355.49 114.60 342.93 116.50 340.66 114.21
  C 337.47 110.99 344.37 103.65 343.71 102.41
  A 0.27 0.27 0.0 0 0 343.31 102.32
  C 338.24 105.96 338.91 96.99 338.96 95.13
  Q 339.01 93.13 337.88 94.78
  C 334.62 99.49 327.84 108.08 321.33 105.87
  C 316.08 104.10 317.99 89.40 318.39 85.05
  A 0.35 0.34 84.2 0 0 317.95 84.69
  L 309.82 87.07
  A 1.20 1.19 81.6 0 0 308.95 88.25
  L 309.28 101.27
  Q 309.33 103.25 307.85 104.56
  L 301.55 110.18
  Q 299.12 112.35 299.09 109.09
  L 298.96 91.85
  A 0.65 0.64 -10.1 0 0 298.10 91.25
  L 296.65 91.77
  A 0.49 0.49 0.0 0 1 295.99 91.35
  Q 295.80 89.11 297.75 87.99
  A 2.62 2.62 0.0 0 0 299.06 85.83
  Q 299.52 74.49 301.40 63.37
  C 302.59 56.34 305.49 52.04 311.50 48.79
  L 312.70 48.35
  Z
  M 329.9733 67.0073
  A 0.42 0.42 0.0 0 0 329.5599 66.5807
  L 329.5200 66.5801
  A 0.42 0.42 0.0 0 0 329.0934 66.9934
  L 329.0067 72.5127
  A 0.42 0.42 0.0 0 0 329.4201 72.9393
  L 329.4600 72.9399
  A 0.42 0.42 0.0 0 0 329.8866 72.5266
  L 329.9733 67.0073
  Z
  M 352.55 91.75
  C 354.29 90.74 357.63 87.22 357.97 85.17
  A 0.62 0.61 -82.4 0 0 357.43 84.46
  L 352.01 83.88
  A 0.50 0.50 0.0 0 0 351.46 84.43
  L 352.13 91.54
  A 0.28 0.28 0.0 0 0 352.55 91.75
  Z"
/>
<path fill="#060606" d="
  M 175.21 59.75
  Q 183.32 65.64 182.68 76.46
  C 181.68 93.76 174.38 101.78 162.71 112.75
  L 156.18 117.05
  L 153.33 117.78
  Q 146.72 118.72 140.98 115.67
  Q 138.73 114.48 138.17 112.00
  C 137.46 108.92 138.06 105.23 137.96 102.67
  C 137.47 89.23 138.05 79.82 141.72 67.26
  C 142.27 65.37 141.95 62.97 141.89 61.04
  Q 141.81 58.54 139.32 58.85
  L 130.71 59.95
  A 0.72 0.72 0.0 0 0 130.08 60.65
  Q 129.80 80.81 129.76 100.96
  C 129.75 106.33 124.32 110.94 119.94 113.11
  A 0.39 0.39 0.0 0 1 119.38 112.76
  L 120.07 64.50
  Q 120.08 63.59 119.31 64.06
  L 107.88 70.97
  A 0.53 0.53 0.0 0 1 107.17 70.81
  C 106.44 69.69 109.94 66.14 110.32 65.80
  Q 125.22 52.76 145.92 49.14
  Q 151.59 48.15 152.17 53.26
  A 0.30 0.29 -19.9 0 0 152.63 53.47
  C 159.49 48.88 170.02 55.57 175.21 59.75
  Z
  M 151.28 106.14
  Q 154.81 108.01 158.63 108.07
  C 164.79 108.77 168.54 103.69 170.21 98.25
  L 171.79 91.50
  Q 173.24 84.35 172.70 81.05
  C 171.11 71.30 161.50 65.75 152.71 62.23
  A 0.43 0.42 16.3 0 0 152.14 62.54
  C 150.39 71.27 148.27 80.33 147.99 89.10
  C 147.86 93.18 145.97 104.21 151.28 106.14
  Z"
/>
<path fill="#ffffff" d="
  M 243.78 60.87
  L 245.13 61.31
  A 0.30 0.30 0.0 0 1 245.30 61.75
  L 243.00 65.60
  A 0.30 0.30 0.0 0 1 242.45 65.39
  L 243.40 61.09
  A 0.30 0.30 0.0 0 1 243.78 60.87
  Z"
/>
<path fill="#d8d8d8" d="
  M 171.79 91.50
  L 171.75 90.78
  A 0.58 0.58 0.0 0 0 171.10 90.24
  C 168.87 90.47 168.70 95.82 169.10 97.49
  A 0.85 0.84 1.9 0 0 169.69 98.11
  L 170.21 98.25
  C 168.54 103.69 164.79 108.77 158.63 108.07
  Q 159.07 99.05 162.97 91.06
  Q 163.50 89.97 162.40 90.49
  Q 161.34 90.99 160.76 92.00
  Q 159.97 93.37 160.17 91.99
  L 160.72 88.06
  A 0.39 0.37 29.3 0 0 160.62 87.74
  L 160.42 87.53
  A 0.32 0.32 0.0 0 0 159.93 87.57
  Q 157.81 90.60 156.14 93.92
  Q 153.18 99.83 151.28 106.14
  C 145.97 104.21 147.86 93.18 147.99 89.10
  C 148.27 80.33 150.39 71.27 152.14 62.54
  A 0.43 0.42 16.3 0 1 152.71 62.23
  C 161.50 65.75 171.11 71.30 172.70 81.05
  Q 173.24 84.35 171.79 91.50
  Z
  M 166.74 85.61
  Q 167.26 84.12 165.72 84.46
  L 163.86 84.87
  A 0.69 0.68 -14.1 0 0 163.35 85.72
  C 163.83 87.45 166.03 87.64 166.74 85.61
  Z"
/>
<path fill="#ffffff" d="
  M 250.32 62.29
  C 256.12 61.48 262.59 65.88 264.86 70.69
  Q 266.45 74.04 266.31 80.45
  C 266.10 90.82 264.57 105.56 249.19 100.35
  Q 243.07 98.27 243.14 91.76
  Q 243.29 76.55 249.62 62.81
  A 0.92 0.91 -81.5 0 1 250.32 62.29
  Z"
/>
<path fill="#060606" d="
  M 188.09 83.91
  C 188.54 79.41 206.83 68.27 211.10 66.09
  A 0.58 0.57 60.5 0 1 211.85 66.30
  C 213.70 69.27 192.03 82.59 189.09 84.51
  Q 187.96 85.24 188.09 83.91
  Z"
/>
<rect fill="#d8d8d8" x="-0.44" y="-3.18" transform="translate(329.49,69.76) rotate(0.9)" width="0.88" height="6.36" rx="0.42"/>
<path fill="#d8d8d8" d="
  M 357.97 85.17
  C 357.63 87.22 354.29 90.74 352.55 91.75
  A 0.28 0.28 0.0 0 1 352.13 91.54
  L 351.46 84.43
  A 0.50 0.50 0.0 0 1 352.01 83.88
  L 357.43 84.46
  A 0.62 0.61 -82.4 0 1 357.97 85.17
  Z"
/>
<path fill="#ffffff" d="
  M 166.74 85.61
  C 166.03 87.64 163.83 87.45 163.35 85.72
  A 0.69 0.68 -14.1 0 1 163.86 84.87
  L 165.72 84.46
  Q 167.26 84.12 166.74 85.61
  Z"
/>
<path fill="#ffffff" d="
  M 158.63 108.07
  Q 154.81 108.01 151.28 106.14
  Q 153.18 99.83 156.14 93.92
  Q 157.81 90.60 159.93 87.57
  A 0.32 0.32 0.0 0 1 160.42 87.53
  L 160.62 87.74
  A 0.39 0.37 29.3 0 1 160.72 88.06
  L 160.17 91.99
  Q 159.97 93.37 160.76 92.00
  Q 161.34 90.99 162.40 90.49
  Q 163.50 89.97 162.97 91.06
  Q 159.07 99.05 158.63 108.07
  Z"
/>
<path fill="#ffffff" d="
  M 171.79 91.50
  L 170.21 98.25
  L 169.69 98.11
  A 0.85 0.84 1.9 0 1 169.10 97.49
  C 168.70 95.82 168.87 90.47 171.10 90.24
  A 0.58 0.58 0.0 0 1 171.75 90.78
  L 171.79 91.50
  Z"
/>
<path fill="#d8d8d8" d="
  M 162.71 112.75
  Q 163.23 113.13 163.44 113.70
  A 1.24 1.21 47.4 0 1 163.41 114.64
  C 161.42 119.01 158.86 127.06 155.29 130.03
  Q 154.31 130.83 154.75 129.64
  L 154.95 129.11
  Q 155.13 128.60 155.06 128.07
  Q 154.23 122.48 156.18 117.05
  L 162.71 112.75
  Z"
/>
<path fill="#060606" d="
  M 150.50 179.46
  Q 149.39 172.13 150.43 164.72
  Q 150.53 164.04 150.07 164.55
  Q 145.79 169.34 139.26 169.00
  A 0.67 0.67 0.0 0 0 138.56 169.72
  L 139.36 180.19
  A 1.41 1.39 62.3 0 1 139.05 181.20
  Q 135.64 185.57 131.20 188.82
  Q 129.24 190.26 129.07 187.84
  L 127.91 171.42
  A 0.39 0.39 0.0 0 0 127.43 171.06
  L 107.71 176.02
  A 1.03 1.02 -1.5 0 0 106.96 176.80
  Q 105.52 183.56 106.12 190.52
  Q 106.26 192.06 107.36 190.97
  Q 110.57 187.82 114.47 185.57
  A 0.39 0.39 0.0 0 1 115.03 185.75
  C 115.82 187.53 101.92 201.11 98.78 201.20
  Q 96.04 201.28 95.98 198.55
  C 95.47 176.69 104.67 153.61 120.69 138.56
  Q 121.29 138.00 120.47 138.01
  Q 108.01 138.29 95.87 140.95
  A 0.75 0.75 0.0 0 0 95.28 141.68
  Q 95.23 159.46 95.04 177.28
  Q 94.98 183.74 93.55 186.54
  Q 91.23 191.09 85.82 192.93
  A 0.62 0.62 0.0 0 1 85.00 192.34
  Q 85.00 172.27 85.00 152.22
  Q 85.00 147.18 89.67 143.51
  Q 90.06 143.20 89.57 143.29
  Q 84.28 144.23 79.84 146.72
  L 70.60 150.65
  Q 69.48 151.13 69.93 150.00
  C 71.68 145.65 76.47 142.65 80.29 140.25
  Q 105.40 127.42 132.48 128.27
  Q 136.75 128.41 133.89 131.58
  Q 129.08 136.91 123.13 140.88
  C 115.93 145.67 111.31 159.00 109.05 167.37
  A 0.53 0.53 0.0 0 0 109.70 168.02
  L 126.30 163.64
  A 1.03 1.03 0.0 0 0 127.06 162.51
  Q 125.83 153.01 125.00 144.75
  C 124.54 140.23 130.47 135.75 133.79 133.94
  A 0.80 0.80 0.0 0 1 134.97 134.55
  L 137.62 159.10
  Q 137.84 161.07 139.78 160.68
  L 143.00 160.04
  L 150.48 158.86
  A 0.71 0.71 0.0 0 0 151.07 158.27
  Q 152.68 149.06 153.04 141.02
  C 153.28 135.67 158.57 131.26 162.90 128.94
  Q 164.19 128.24 163.99 129.69
  L 162.58 140.19
  Q 162.45 141.16 163.11 140.42
  Q 171.40 131.04 182.47 125.20
  A 1.97 1.97 0.0 0 1 183.49 124.98
  L 184.67 125.03
  A 0.78 0.78 0.0 0 1 185.29 126.21
  C 182.56 130.69 179.74 133.13 174.63 135.07
  Q 165.60 138.51 163.51 149.26
  C 162.57 154.09 161.48 160.95 165.44 164.43
  C 173.60 171.61 188.27 171.36 197.76 166.12
  Q 198.51 165.71 198.23 166.51
  C 195.23 175.37 181.83 180.16 173.99 179.78
  Q 171.85 179.68 161.31 177.89
  A 0.96 0.94 27.0 0 0 160.46 178.16
  C 157.59 181.04 153.71 185.19 150.50 179.46
  Z"
/>
<path fill="#d8d8d8" d="
  M 351.96 130.38
  C 353.01 129.46 355.07 127.66 355.54 126.36
  A 0.10 0.10 0.0 0 1 355.70 126.33
  L 355.91 126.54
  A 0.25 0.25 0.0 0 1 355.94 126.86
  L 352.89 131.41
  A 0.52 0.52 0.0 0 1 352.04 131.43
  L 351.87 131.20
  A 0.62 0.62 0.0 0 1 351.96 130.38
  Z"
/>
<path fill="#060606" d="
  M 262.50 131.96
  Q 263.28 131.86 263.88 132.34
  A 0.53 0.53 0.0 0 1 263.96 133.08
  Q 261.17 136.60 258.54 139.03
  Q 255.96 141.41 252.84 142.33
  L 241.07 142.06
  A 1.80 1.79 -84.1 0 0 239.27 143.53
  Q 237.66 152.20 238.22 161.37
  C 233.80 183.80 264.54 177.59 274.92 172.36
  Q 276.42 171.61 275.97 169.83
  A 0.99 0.98 89.5 0 0 275.26 169.13
  L 273.36 168.68
  A 0.55 0.54 -68.2 0 1 273.02 167.88
  C 274.69 164.94 279.65 159.06 283.27 158.91
  Q 284.44 158.86 285.42 159.57
  Q 287.77 161.28 286.47 163.88
  C 278.86 179.15 260.60 187.15 244.33 187.20
  A 0.50 0.49 86.9 0 0 243.84 187.75
  Q 244.31 192.24 239.66 193.46
  A 0.49 0.49 0.0 0 1 239.07 193.15
  L 237.97 190.08
  A 0.80 0.80 0.0 0 1 238.33 189.12
  L 240.91 187.67
  A 0.22 0.21 52.4 0 0 240.95 187.32
  L 240.76 187.13
  A 0.28 0.23 64.4 0 0 240.63 187.07
  Q 226.14 185.95 227.96 170.75
  C 227.51 156.78 229.44 135.47 247.19 132.38
  C 251.99 131.54 257.60 131.98 262.50 131.96
  Z"
/>
<path fill="#d8d8d8" d="
  M 150.50 179.46
  C 148.84 180.25 150.80 182.25 150.76 183.50
  C 150.64 186.66 151.37 191.16 149.87 192.26
  A 0.58 0.58 0.0 0 0 149.69 192.97
  C 151.12 196.01 150.73 199.26 152.16 203.00
  A 0.98 0.96 -40.4 0 1 152.08 203.87
  Q 151.54 204.75 152.29 205.50
  L 145.54 211.75
  Q 143.64 210.23 144.97 208.17
  A 1.28 1.27 59.0 0 0 145.17 207.36
  L 144.95 205.04
  Q 144.83 203.66 145.72 204.73
  L 146.89 206.13
  A 0.75 0.75 0.0 0 0 147.71 206.36
  C 149.48 205.76 149.12 202.90 148.80 201.49
  A 0.48 0.47 -13.8 0 0 148.22 201.14
  Q 146.83 201.53 146.84 200.20
  Q 146.92 191.98 146.80 183.75
  Q 146.74 179.91 144.61 178.24
  Q 143.02 176.99 143.03 179.01
  Q 143.08 186.81 142.54 194.54
  C 142.28 198.16 143.67 200.80 143.16 204.65
  Q 142.54 209.26 143.56 213.83
  Q 139.14 220.63 137.79 229.00
  L 137.76 228.68
  A 0.42 0.41 -88.3 0 0 137.41 228.30
  Q 134.82 227.89 133.15 229.77
  A 0.76 0.76 0.0 0 1 132.36 230.00
  Q 130.20 229.35 128.29 230.75
  C 129.20 221.73 131.09 210.61 136.52 203.10
  C 137.13 202.25 136.64 201.61 135.57 201.75
  A 4.40 4.36 22.3 0 0 133.42 202.64
  Q 118.07 214.55 106.29 230.00
  Q 104.44 226.96 104.64 223.24
  Q 104.66 222.75 104.40 223.17
  Q 103.19 225.14 102.67 227.33
  C 102.29 228.98 103.62 230.91 100.96 231.75
  L 93.42 214.83
  Q 92.36 212.45 90.39 214.16
  L 88.48 215.83
  A 0.57 0.56 59.1 0 1 87.58 215.60
  L 87.24 214.69
  A 0.71 0.69 -8.7 0 0 86.61 214.24
  Q 86.31 214.23 86.04 214.50
  Q 82.74 213.17 82.45 210.25
  Q 81.90 204.79 79.44 200.41
  A 3.96 3.94 -54.7 0 1 79.00 197.81
  C 80.03 191.96 78.99 185.02 78.96 180.88
  Q 78.88 170.82 78.72 160.76
  C 78.69 158.88 78.11 156.64 78.43 154.46
  Q 78.57 153.46 78.98 154.38
  L 79.12 154.72
  Q 79.64 155.90 79.66 154.62
  L 79.84 146.72
  Q 84.28 144.23 89.57 143.29
  Q 90.06 143.20 89.67 143.51
  Q 85.00 147.18 85.00 152.22
  Q 85.00 172.27 85.00 192.34
  A 0.62 0.62 0.0 0 0 85.82 192.93
  Q 91.23 191.09 93.55 186.54
  Q 94.98 183.74 95.04 177.28
  Q 95.23 159.46 95.28 141.68
  A 0.75 0.75 0.0 0 1 95.87 140.95
  Q 108.01 138.29 120.47 138.01
  Q 121.29 138.00 120.69 138.56
  C 104.67 153.61 95.47 176.69 95.98 198.55
  Q 96.04 201.28 98.78 201.20
  C 101.92 201.11 115.82 187.53 115.03 185.75
  A 0.39 0.39 0.0 0 0 114.47 185.57
  Q 110.57 187.82 107.36 190.97
  Q 106.26 192.06 106.12 190.52
  Q 105.52 183.56 106.96 176.80
  A 1.03 1.02 -1.5 0 1 107.71 176.02
  L 127.43 171.06
  A 0.39 0.39 0.0 0 1 127.91 171.42
  L 129.07 187.84
  Q 129.24 190.26 131.20 188.82
  Q 135.64 185.57 139.05 181.20
  A 1.41 1.39 62.3 0 0 139.36 180.19
  L 138.56 169.72
  A 0.67 0.67 0.0 0 1 139.26 169.00
  Q 145.79 169.34 150.07 164.55
  Q 150.53 164.04 150.43 164.72
  Q 149.39 172.13 150.50 179.46
  Z
  M 89.44 212.06
  Q 89.56 212.25 89.82 212.27
  A 0.57 0.57 0.0 0 0 90.37 211.46
  C 88.08 206.46 89.29 199.11 88.79 193.97
  A 0.42 0.42 0.0 0 0 88.19 193.63
  C 86.33 194.49 88.11 209.44 88.50 211.32
  A 0.38 0.33 17.7 0 0 88.63 211.54
  Q 88.73 211.62 88.84 211.69
  Q 89.39 211.99 89.44 212.06
  Z"
/>
<path fill="#ffffff" d="
  M 252.84 142.33
  Q 244.48 151.05 238.22 161.37
  Q 237.66 152.20 239.27 143.53
  A 1.80 1.79 -84.1 0 1 241.07 142.06
  L 252.84 142.33
  Z"
/>
<path fill="#ffffff" d="
  M 145.54 211.75
  L 143.56 213.83
  Q 142.54 209.26 143.16 204.65
  C 143.67 200.80 142.28 198.16 142.54 194.54
  Q 143.08 186.81 143.03 179.01
  Q 143.02 176.99 144.61 178.24
  Q 146.74 179.91 146.80 183.75
  Q 146.92 191.98 146.84 200.20
  Q 146.83 201.53 148.22 201.14
  A 0.48 0.47 -13.8 0 1 148.80 201.49
  C 149.12 202.90 149.48 205.76 147.71 206.36
  A 0.75 0.75 0.0 0 1 146.89 206.13
  L 145.72 204.73
  Q 144.83 203.66 144.95 205.04
  L 145.17 207.36
  A 1.28 1.27 59.0 0 1 144.97 208.17
  Q 143.64 210.23 145.54 211.75
  Z"
/>
<path fill="#ffffff" d="
  M 88.84 211.69
  Q 88.73 211.62 88.63 211.54
  A 0.38 0.33 17.7 0 1 88.50 211.32
  C 88.11 209.44 86.33 194.49 88.19 193.63
  A 0.42 0.42 0.0 0 1 88.79 193.97
  C 89.29 199.11 88.08 206.46 90.37 211.46
  A 0.57 0.57 0.0 0 1 89.82 212.27
  Q 89.56 212.25 89.44 212.06
  Q 89.39 211.99 88.84 211.69
  Z"
/>
<path fill="#060606" d="
  M 251.26 248.55
  Q 251.27 250.39 253.14 252.93
  Q 249.66 258.75 243.50 262.40
  A 0.46 0.45 61.6 0 1 242.86 262.20
  Q 240.45 257.29 239.66 251.06
  Q 237.93 237.34 237.98 223.41
  Q 237.98 222.72 237.54 223.26
  C 231.17 231.07 221.06 236.69 227.85 248.64
  A 1.17 1.16 -36.7 0 1 227.64 250.06
  L 219.98 257.35
  Q 217.55 259.67 216.90 256.37
  L 215.75 250.41
  A 0.16 0.16 0.0 0 0 215.49 250.31
  C 205.03 258.05 191.11 263.45 178.08 259.65
  A 0.64 0.63 9.1 0 1 177.63 259.03
  Q 177.76 252.11 175.79 245.44
  Q 175.62 244.83 175.18 245.29
  L 171.46 249.25
  C 166.90 253.77 161.10 259.03 154.50 259.20
  A 1.91 1.86 27.3 0 0 153.58 259.48
  C 149.34 262.14 139.29 264.19 136.74 258.41
  A 0.40 0.40 0.0 0 0 136.14 258.25
  C 130.96 262.28 126.19 267.81 119.47 262.49
  C 117.74 261.11 117.78 258.97 117.76 256.80
  C 117.57 240.59 118.68 228.89 123.71 215.51
  Q 124.16 214.31 123.23 215.20
  C 116.53 221.58 110.72 229.71 105.20 237.18
  A 1.49 1.49 0.0 0 0 105.70 239.38
  L 109.69 241.50
  A 0.53 0.53 0.0 0 1 109.94 242.15
  C 108.39 246.28 95.31 256.59 90.91 255.99
  A 0.87 0.87 0.0 0 1 90.24 254.75
  L 93.85 247.23
  A 0.96 0.95 44.7 0 0 93.84 246.41
  L 87.95 234.67
  Q 86.91 232.60 86.94 234.91
  C 87.03 243.52 86.35 250.92 88.65 259.04
  A 1.21 1.21 0.0 0 1 88.51 260.00
  Q 85.31 265.17 79.89 267.93
  A 1.25 1.25 0.0 0 1 78.09 267.03
  C 75.72 252.94 77.44 237.01 77.83 222.68
  A 1.56 1.51 -26.8 0 1 78.14 221.79
  Q 81.48 217.42 86.04 214.50
  Q 86.31 214.23 86.61 214.24
  A 0.71 0.69 -8.7 0 1 87.24 214.69
  L 87.58 215.60
  A 0.57 0.56 59.1 0 0 88.48 215.83
  L 90.39 214.16
  Q 92.36 212.45 93.42 214.83
  L 100.96 231.75
  L 102.37 234.51
  A 0.36 0.36 0.0 0 0 102.98 234.56
  L 106.29 230.00
  Q 118.07 214.55 133.42 202.64
  A 4.40 4.36 22.3 0 1 135.57 201.75
  C 136.64 201.61 137.13 202.25 136.52 203.10
  C 131.09 210.61 129.20 221.73 128.29 230.75
  Q 127.85 239.70 127.97 248.79
  C 128.03 252.97 130.56 254.74 134.48 254.48
  A 0.84 0.83 -79.3 0 0 135.19 253.99
  Q 136.74 250.64 136.78 247.50
  Q 136.94 236.59 137.79 229.00
  Q 139.14 220.63 143.56 213.83
  L 145.54 211.75
  L 152.29 205.50
  C 160.42 200.57 172.84 202.82 173.90 213.94
  Q 174.69 222.31 173.22 230.56
  C 172.70 233.46 172.44 237.82 170.82 241.40
  C 169.80 243.63 167.74 245.81 166.40 248.04
  Q 165.31 249.86 167.12 248.75
  C 178.08 242.03 170.85 233.92 175.57 226.00
  Q 180.71 217.36 189.04 211.50
  C 196.56 206.01 201.37 202.64 209.52 200.93
  Q 211.23 200.56 212.18 202.04
  C 215.62 207.44 209.14 212.69 204.33 217.28
  C 202.07 219.43 202.49 212.61 202.12 211.47
  A 0.67 0.67 0.0 0 0 201.46 211.01
  Q 197.20 211.21 193.50 213.29
  C 186.30 215.46 186.57 222.22 186.71 227.78
  Q 186.72 228.27 187.10 227.96
  Q 188.96 226.43 191.25 225.96
  Q 199.28 223.25 207.15 222.45
  Q 209.87 222.17 208.70 224.64
  C 204.96 232.49 196.30 239.05 190.24 245.24
  A 1.13 1.12 64.0 0 0 189.93 246.15
  L 190.38 250.20
  A 0.71 0.71 0.0 0 0 190.99 250.81
  C 199.64 251.79 210.76 250.44 215.79 242.18
  A 1.70 1.66 60.9 0 0 216.04 241.26
  Q 215.96 233.82 216.01 226.49
  C 216.03 222.09 214.83 218.39 218.12 214.67
  Q 220.99 211.40 224.80 209.12
  Q 226.00 208.40 226.00 209.80
  L 226.01 228.71
  Q 226.01 232.64 228.40 229.53
  C 237.30 217.96 244.27 209.51 257.04 199.65
  A 0.61 0.60 -41.8 0 1 257.82 199.69
  C 259.23 201.06 252.95 206.46 249.56 209.82
  C 245.92 213.43 248.91 235.65 249.57 242.19
  Q 249.88 245.33 251.26 248.55
  Z
  M 148.52 235.04
  C 146.29 241.96 153.14 248.30 159.23 248.97
  Q 161.43 249.22 161.85 247.04
  C 163.73 237.31 169.26 211.74 151.64 213.02
  Q 149.51 213.18 149.02 215.25
  C 148.12 218.99 145.19 232.98 148.24 234.40
  A 0.53 0.53 0.0 0 1 148.52 235.04
  Z
  M 186.67 236.36
  L 187.83 242.51
  Q 188.02 243.51 188.75 242.79
  L 198.86 232.87
  Q 199.79 231.96 198.51 232.20
  L 188.14 234.19
  Q 186.32 234.53 186.67 236.36
  Z"
/>
<path fill="#ffffff" d="
  M 148.24 234.40
  C 145.19 232.98 148.12 218.99 149.02 215.25
  Q 149.51 213.18 151.64 213.02
  C 169.26 211.74 163.73 237.31 161.85 247.04
  Q 161.43 249.22 159.23 248.97
  C 153.14 248.30 146.29 241.96 148.52 235.04
  A 0.53 0.53 0.0 0 0 148.24 234.40
  Z"
/>
<path fill="#ffffff" d="
  M 193.50 213.29
  L 193.75 213.62
  A 0.57 0.56 -44.6 0 1 193.74 214.32
  Q 189.72 219.37 191.25 225.96
  Q 188.96 226.43 187.10 227.96
  Q 186.72 228.27 186.71 227.78
  C 186.57 222.22 186.30 215.46 193.50 213.29
  Z"
/>
<path fill="#ffffff" d="
  M 106.29 230.00
  L 102.98 234.56
  A 0.36 0.36 0.0 0 1 102.37 234.51
  L 100.96 231.75
  C 103.62 230.91 102.29 228.98 102.67 227.33
  Q 103.19 225.14 104.40 223.17
  Q 104.66 222.75 104.64 223.24
  Q 104.44 226.96 106.29 230.00
  Z"
/>
<path fill="#d8d8d8" d="
  M 253.14 252.93
  L 256.42 250.04
  Q 256.88 249.63 256.63 250.19
  C 255.80 252.03 254.75 253.12 254.34 255.19
  Q 253.10 261.44 247.81 265.18
  A 1.88 1.86 85.0 0 0 247.19 265.93
  Q 242.77 275.97 239.16 286.26
  C 238.20 288.97 238.77 291.86 236.78 294.68
  A 1.00 0.99 53.6 0 0 236.65 295.57
  L 236.79 296.00
  C 234.03 297.49 222.08 305.51 223.32 308.28
  A 0.49 0.48 64.4 0 0 223.99 308.52
  L 234.75 303.04
  Q 235.18 304.70 236.50 305.79
  C 228.10 311.13 229.30 317.33 228.79 326.00
  L 228.72 322.25
  A 0.33 0.33 0.0 0 0 228.22 321.97
  C 226.19 323.16 220.95 341.48 220.38 343.67
  Q 219.77 346.01 220.00 348.79
  C 220.21 351.40 222.16 352.84 222.03 356.00
  Q 221.79 361.78 219.45 367.01
  L 149.44 367.00
  Q 149.22 366.92 149.06 366.79
  A 0.80 0.79 -63.5 0 1 148.79 365.97
  C 149.78 362.03 147.86 359.26 147.56 356.14
  Q 147.16 352.12 147.50 348.04
  Q 155.06 349.22 161.52 345.24
  A 0.40 0.40 0.0 0 1 162.11 345.44
  C 165.09 353.44 173.58 355.26 179.04 348.25
  Q 179.57 347.56 179.75 348.41
  Q 180.63 352.54 184.56 353.69
  C 194.10 356.48 199.34 352.17 206.31 345.44
  C 216.04 336.04 221.70 323.08 222.10 309.23
  C 222.28 303.03 218.31 300.03 212.80 298.28
  C 187.38 290.19 181.21 317.05 180.62 335.25
  C 180.56 337.30 179.51 339.17 178.91 341.00
  A 1.47 1.46 24.4 0 1 176.77 341.80
  C 173.09 339.61 171.95 336.97 171.97 332.53
  Q 172.04 314.06 176.00 295.95
  Q 176.28 294.65 175.10 295.26
  C 168.80 298.50 165.98 302.64 164.72 309.90
  Q 162.35 323.59 161.81 337.53
  A 0.61 0.61 0.0 0 1 161.30 338.11
  C 154.10 339.26 147.93 336.25 149.36 327.92
  C 151.39 316.06 159.51 307.42 167.28 299.23
  C 172.14 294.11 179.01 292.97 181.92 285.95
  A 0.39 0.39 0.0 0 0 181.61 285.41
  C 177.60 284.94 162.43 299.91 159.29 303.25
  L 156.90 300.99
  A 0.38 0.38 0.0 0 0 156.29 301.12
  L 153.57 307.51
  A 1.22 1.20 46.1 0 0 153.56 308.42
  Q 153.77 308.96 154.21 309.25
  L 144.29 322.75
  Q 143.44 322.42 143.10 321.71
  C 142.36 320.16 149.00 299.96 150.03 297.56
  Q 152.92 290.77 156.05 284.10
  C 157.74 280.51 160.62 278.48 162.07 274.48
  C 165.02 266.32 160.71 257.66 170.48 252.57
  C 171.98 251.79 172.41 250.67 171.46 249.25
  L 175.18 245.29
  Q 175.62 244.83 175.79 245.44
  Q 177.76 252.11 177.63 259.03
  A 0.64 0.63 9.1 0 0 178.08 259.65
  C 191.11 263.45 205.03 258.05 215.49 250.31
  A 0.16 0.16 0.0 0 1 215.75 250.41
  L 216.90 256.37
  Q 217.55 259.67 219.98 257.35
  L 227.64 250.06
  A 1.17 1.16 -36.7 0 0 227.85 248.64
  C 221.06 236.69 231.17 231.07 237.54 223.26
  Q 237.98 222.72 237.98 223.41
  Q 237.93 237.34 239.66 251.06
  Q 240.45 257.29 242.86 262.20
  A 0.46 0.45 61.6 0 0 243.50 262.40
  Q 249.66 258.75 253.14 252.93
  Z
  M 170.91 276.01
  L 171.88 271.65
  A 0.35 0.35 0.0 0 0 171.55 271.23
  C 170.21 271.20 170.05 275.05 170.18 276.07
  A 1.54 1.53 -35.4 0 1 170.02 277.00
  L 169.65 277.72
  A 0.53 0.53 0.0 0 0 170.05 278.50
  L 170.43 278.55
  A 0.47 0.47 0.0 0 1 170.80 279.19
  L 170.07 281.06
  A 0.32 0.32 0.0 0 0 170.41 281.49
  L 170.70 281.45
  A 1.48 1.45 -72.1 0 0 171.58 280.99
  Q 174.22 278.17 174.98 274.48
  Q 175.73 270.83 174.41 274.19
  Q 173.64 276.15 171.46 276.57
  A 0.47 0.47 0.0 0 1 170.91 276.01
  Z
  M 168.4179 290.9952
  A 4.46 0.77 116.1 0 0 171.0715 287.3288
  A 4.46 0.77 116.1 0 0 172.3421 282.9848
  A 4.46 0.77 116.1 0 0 169.6885 286.6512
  A 4.46 0.77 116.1 0 0 168.4179 290.9952
  Z
  M 158.64 312.18
  Q 157.65 321.56 155.12 330.65
  A 0.52 0.50 -65.7 0 0 155.32 331.21
  L 155.57 331.38
  A 0.50 0.50 0.0 0 0 156.32 331.16
  Q 160.15 321.68 160.38 311.51
  A 0.51 0.51 0.0 0 0 159.86 310.98
  Q 158.76 311.00 158.64 312.18
  Z"
/>
<path fill="#ffffff" d="
  M 137.79 229.00
  Q 136.94 236.59 136.78 247.50
  Q 136.74 250.64 135.19 253.99
  A 0.84 0.83 -79.3 0 1 134.48 254.48
  C 130.56 254.74 128.03 252.97 127.97 248.79
  Q 127.85 239.70 128.29 230.75
  Q 130.20 229.35 132.36 230.00
  A 0.76 0.76 0.0 0 0 133.15 229.77
  Q 134.82 227.89 137.41 228.30
  A 0.42 0.41 -88.3 0 1 137.76 228.68
  L 137.79 229.00
  Z"
/>
<path fill="#d8d8d8" d="
  M 186.67 236.36
  Q 186.32 234.53 188.14 234.19
  L 198.51 232.20
  Q 199.79 231.96 198.86 232.87
  L 188.75 242.79
  Q 188.02 243.51 187.83 242.51
  L 186.67 236.36
  Z"
/>
<path fill="#060606" d="
  M 325.74 273.33
  C 326.92 262.90 341.32 245.40 352.50 245.03
  Q 356.95 244.88 361.96 245.51
  Q 364.86 245.88 363.27 248.33
  Q 360.25 253.01 355.35 255.68
  A 1.40 1.35 -52.1 0 1 354.37 255.82
  Q 348.49 254.48 342.45 254.78
  Q 339.30 254.93 337.95 257.79
  C 336.46 260.96 335.94 264.19 333.60 266.76
  Q 330.24 270.45 326.48 273.72
  Q 325.61 274.48 325.74 273.33
  Z"
/>
<path fill="#ffffff" d="
  M 171.46 276.57
  Q 173.64 276.15 174.41 274.19
  Q 175.73 270.83 174.98 274.48
  Q 174.22 278.17 171.58 280.99
  A 1.48 1.45 -72.1 0 1 170.70 281.45
  L 170.41 281.49
  A 0.32 0.32 0.0 0 1 170.07 281.06
  L 170.80 279.19
  A 0.47 0.47 0.0 0 0 170.43 278.55
  L 170.05 278.50
  A 0.53 0.53 0.0 0 1 169.65 277.72
  L 170.02 277.00
  A 1.54 1.53 -35.4 0 0 170.18 276.07
  C 170.05 275.05 170.21 271.20 171.55 271.23
  A 0.35 0.35 0.0 0 1 171.88 271.65
  L 170.91 276.01
  A 0.47 0.47 0.0 0 0 171.46 276.57
  Z"
/>
<ellipse fill="#ffffff" cx="0.00" cy="0.00" transform="translate(170.38,286.99) rotate(116.1)" rx="4.46" ry="0.77"/>
<path fill="#060606" d="
  M 147.50 348.04
  C 133.67 346.66 140.02 330.15 144.29 322.75
  L 154.21 309.25
  L 159.29 303.25
  C 162.43 299.91 177.60 284.94 181.61 285.41
  A 0.39 0.39 0.0 0 1 181.92 285.95
  C 179.01 292.97 172.14 294.11 167.28 299.23
  C 159.51 307.42 151.39 316.06 149.36 327.92
  C 147.93 336.25 154.10 339.26 161.30 338.11
  A 0.61 0.61 0.0 0 0 161.81 337.53
  Q 162.35 323.59 164.72 309.90
  C 165.98 302.64 168.80 298.50 175.10 295.26
  Q 176.28 294.65 176.00 295.95
  Q 172.04 314.06 171.97 332.53
  C 171.95 336.97 173.09 339.61 176.77 341.80
  A 1.47 1.46 24.4 0 0 178.91 341.00
  C 179.51 339.17 180.56 337.30 180.62 335.25
  C 181.21 317.05 187.38 290.19 212.80 298.28
  C 218.31 300.03 222.28 303.03 222.10 309.23
  C 221.70 323.08 216.04 336.04 206.31 345.44
  C 199.34 352.17 194.10 356.48 184.56 353.69
  Q 180.63 352.54 179.75 348.41
  Q 179.57 347.56 179.04 348.25
  C 173.58 355.26 165.09 353.44 162.11 345.44
  A 0.40 0.40 0.0 0 0 161.52 345.24
  Q 155.06 349.22 147.50 348.04
  Z
  M 193.18 343.44
  C 208.13 351.45 211.49 326.88 212.03 318.00
  C 212.57 309.22 202.17 307.03 195.65 306.79
  Q 193.11 306.69 192.67 309.20
  Q 189.88 324.84 191.37 340.71
  Q 191.54 342.56 193.18 343.44
  Z"
/>
<path fill="#060606" d="
  M 80.29 306.45
  L 78.80 307.01
  Q 77.67 307.44 78.24 306.37
  C 84.23 295.17 99.62 288.36 111.53 286.37
  C 115.33 285.74 119.20 286.11 119.15 290.74
  C 119.11 294.88 112.32 300.65 109.19 302.93
  Q 108.76 303.25 108.75 302.72
  C 108.70 300.19 110.16 295.40 105.50 295.92
  Q 98.28 296.73 91.50 299.27
  A 0.86 0.86 0.0 0 0 90.94 300.09
  L 91.14 351.26
  A 1.55 1.52 -26.4 0 1 90.79 352.26
  Q 87.26 356.64 82.50 359.70
  A 0.39 0.39 0.0 0 1 81.92 359.48
  Q 81.04 356.24 81.03 354.19
  Q 80.97 330.62 81.01 306.96
  A 0.54 0.53 79.9 0 0 80.29 306.45
  Z"
/>
<path fill="#060606" d="
  M 228.79 326.00
  C 229.30 317.33 228.10 311.13 236.50 305.79
  Q 237.51 304.96 238.78 305.15
  A 0.57 0.56 5.7 0 1 239.26 305.73
  L 238.93 315.78
  Q 238.89 317.11 239.94 316.30
  C 244.72 312.61 249.50 307.56 250.54 301.15
  Q 250.90 298.96 248.68 299.18
  Q 241.64 299.87 234.75 303.04
  L 223.99 308.52
  A 0.49 0.48 64.4 0 1 223.32 308.28
  C 222.08 305.51 234.03 297.49 236.79 296.00
  Q 247.03 290.62 258.53 289.02
  A 1.06 1.03 63.2 0 1 259.41 289.32
  C 264.47 294.36 251.97 308.77 248.21 312.09
  Q 245.65 314.35 248.86 313.20
  C 252.01 312.08 257.68 311.71 261.65 312.64
  Q 263.78 313.14 265.71 310.98
  C 270.94 305.15 277.77 294.59 286.29 293.88
  Q 300.24 292.72 306.11 305.97
  A 0.37 0.37 0.0 0 0 306.74 306.05
  Q 309.69 302.24 313.91 299.97
  Q 315.11 299.32 314.98 300.68
  L 312.77 323.68
  Q 312.62 325.18 313.46 323.92
  Q 324.41 307.32 339.47 294.47
  Q 342.09 292.23 345.29 290.96
  Q 347.06 290.26 345.99 291.84
  C 345.01 293.29 343.98 294.43 343.80 296.28
  Q 341.70 317.92 342.01 339.67
  C 342.05 342.19 343.23 343.47 345.58 343.90
  A 1.49 1.46 -53.5 0 0 346.57 343.74
  L 349.19 342.26
  A 0.61 0.61 0.0 0 1 350.03 342.52
  C 350.56 343.61 342.48 350.88 341.31 351.81
  C 336.95 355.31 331.92 353.45 331.95 347.52
  Q 332.09 326.26 333.49 305.04
  Q 333.52 304.53 333.10 304.82
  Q 330.79 306.42 328.67 309.17
  Q 320.13 320.26 314.25 329.10
  C 311.99 332.49 311.71 342.06 316.11 344.12
  A 1.36 1.36 0.0 0 1 316.65 346.12
  C 314.49 349.26 310.26 354.36 306.09 353.95
  A 1.17 1.16 -13.0 0 1 305.23 353.42
  L 303.75 351.16
  A 0.39 0.39 0.0 0 0 303.11 351.15
  Q 301.04 354.05 297.56 353.88
  Q 295.00 353.76 296.05 351.42
  C 297.43 348.33 303.90 338.04 302.98 335.46
  Q 302.81 334.98 302.49 335.38
  C 294.36 345.48 284.87 355.98 269.91 352.63
  Q 263.21 351.12 261.75 344.51
  A 0.30 0.30 0.0 0 0 261.26 344.34
  Q 260.13 345.33 257.81 347.79
  C 251.88 354.09 244.50 355.46 236.07 354.70
  Q 228.01 353.97 227.74 346.03
  Q 227.63 342.94 228.79 326.00
  Z
  M 271.33 330.31
  C 271.02 337.56 276.86 341.00 283.50 340.23
  A 0.43 0.43 0.0 0 1 283.95 340.80
  L 283.44 342.25
  A 0.46 0.45 -75.4 0 0 283.79 342.85
  C 295.81 344.95 297.27 335.64 297.96 326.48
  C 298.81 315.26 291.10 301.96 278.23 303.86
  A 2.54 2.53 -81.0 0 0 276.31 305.26
  C 272.49 313.05 271.70 321.77 271.33 330.31
  Z
  M 238.28 324.30
  L 237.91 331.48
  Q 237.86 332.35 238.56 331.83
  L 250.49 322.91
  Q 251.63 322.05 250.20 322.01
  Q 244.56 321.85 239.13 323.26
  A 1.14 1.13 -5.9 0 0 238.28 324.30
  Z
  M 242.00 341.24
  L 241.06 342.64
  A 0.63 0.62 27.9 0 0 241.35 343.56
  Q 248.64 346.50 256.02 343.78
  A 1.02 1.00 -5.0 0 0 256.65 343.04
  C 257.72 337.71 256.19 329.85 254.93 324.56
  A 0.54 0.54 0.0 0 0 254.08 324.26
  L 238.55 335.93
  A 0.84 0.83 -23.8 0 0 238.23 336.74
  C 238.71 339.51 240.10 339.07 241.87 340.42
  A 0.61 0.61 0.0 0 1 242.00 341.24
  Z"
/>
<path fill="#060606" d="
  M 104.44 353.81
  C 96.80 349.61 102.84 325.44 105.29 319.06
  C 108.49 310.75 119.45 289.79 130.51 291.19
  C 140.30 292.42 142.57 300.91 141.95 309.50
  Q 140.99 322.87 139.91 328.93
  C 138.31 337.86 131.09 345.22 123.73 351.73
  Q 114.89 359.56 104.44 353.81
  Z
  M 113.12 343.39
  Q 117.99 346.73 124.00 346.16
  Q 126.42 345.93 127.62 343.81
  C 131.58 336.83 132.00 319.65 131.41 311.31
  Q 130.79 302.46 121.75 301.32
  A 0.65 0.65 0.0 0 0 121.07 301.72
  Q 118.71 307.64 117.78 313.93
  C 116.92 319.83 111.98 321.46 111.20 326.93
  Q 110.22 333.70 111.26 340.42
  Q 111.55 342.31 113.12 343.39
  Z"
/>
<path fill="#ffffff" d="
  M 236.50 305.79
  Q 235.18 304.70 234.75 303.04
  Q 241.64 299.87 248.68 299.18
  Q 250.90 298.96 250.54 301.15
  C 249.50 307.56 244.72 312.61 239.94 316.30
  Q 238.89 317.11 238.93 315.78
  L 239.26 305.73
  A 0.57 0.56 5.7 0 0 238.78 305.15
  Q 237.51 304.96 236.50 305.79
  Z"
/>
<path fill="#ffffff" d="
  M 159.29 303.25
  L 154.21 309.25
  Q 153.77 308.96 153.56 308.42
  A 1.22 1.20 46.1 0 1 153.57 307.51
  L 156.29 301.12
  A 0.38 0.38 0.0 0 1 156.90 300.99
  L 159.29 303.25
  Z"
/>
<path fill="#ffffff" d="
  M 113.12 343.39
  Q 111.55 342.31 111.26 340.42
  Q 110.22 333.70 111.20 326.93
  C 111.98 321.46 116.92 319.83 117.78 313.93
  Q 118.71 307.64 121.07 301.72
  A 0.65 0.65 0.0 0 1 121.75 301.32
  Q 130.79 302.46 131.41 311.31
  C 132.00 319.65 131.58 336.83 127.62 343.81
  Q 126.42 345.93 124.00 346.16
  Q 117.99 346.73 113.12 343.39
  Z"
/>
<path fill="#ffffff" d="
  M 283.50 340.23
  C 276.86 341.00 271.02 337.56 271.33 330.31
  C 271.70 321.77 272.49 313.05 276.31 305.26
  A 2.54 2.53 -81.0 0 1 278.23 303.86
  C 291.10 301.96 298.81 315.26 297.96 326.48
  C 297.27 335.64 295.81 344.95 283.79 342.85
  A 0.46 0.45 -75.4 0 1 283.44 342.25
  L 283.95 340.80
  A 0.43 0.43 0.0 0 0 283.50 340.23
  Z"
/>
<path fill="#d8d8d8" d="
  M 193.18 343.44
  Q 191.54 342.56 191.37 340.71
  Q 189.88 324.84 192.67 309.20
  Q 193.11 306.69 195.65 306.79
  C 202.17 307.03 212.57 309.22 212.03 318.00
  C 211.49 326.88 208.13 351.45 193.18 343.44
  Z"
/>
<path fill="#ffffff" d="
  M 158.64 312.18
  Q 158.76 311.00 159.86 310.98
  A 0.51 0.51 0.0 0 1 160.38 311.51
  Q 160.15 321.68 156.32 331.16
  A 0.50 0.50 0.0 0 1 155.57 331.38
  L 155.32 331.21
  A 0.52 0.50 -65.7 0 1 155.12 330.65
  Q 157.65 321.56 158.64 312.18
  Z"
/>
<path fill="#ffffff" d="
  M 238.28 324.30
  A 1.14 1.13 -5.9 0 1 239.13 323.26
  Q 244.56 321.85 250.20 322.01
  Q 251.63 322.05 250.49 322.91
  L 238.56 331.83
  Q 237.86 332.35 237.91 331.48
  L 238.28 324.30
  Z"
/>
<path fill="#ffffff" d="
  M 241.87 340.42
  C 240.10 339.07 238.71 339.51 238.23 336.74
  A 0.84 0.83 -23.8 0 1 238.55 335.93
  L 254.08 324.26
  A 0.54 0.54 0.0 0 1 254.93 324.56
  C 256.19 329.85 257.72 337.71 256.65 343.04
  A 1.02 1.00 -5.0 0 1 256.02 343.78
  Q 248.64 346.50 241.35 343.56
  A 0.63 0.62 27.9 0 1 241.06 342.64
  L 242.00 341.24
  A 0.61 0.61 0.0 0 0 241.87 340.42
  Z"
/>
<path fill="#d8d8d8" d="
  M 224.99 359.75
  Q 225.17 358.42 226.02 359.56
  C 226.74 360.52 226.22 363.26 226.42 364.61
  A 0.73 0.73 0.0 0 1 226.09 365.35
  L 224.77 366.22
  Q 224.08 366.67 224.19 365.85
  L 224.99 359.75
  Z"
/>
</svg>
