<?xml version="1.0" encoding="UTF-8" standalone="no"?>
<!-- Created with Inkscape (http://www.inkscape.org/) -->

<svg
   xmlns:dc="http://purl.org/dc/elements/1.1/"
   xmlns:cc="http://creativecommons.org/ns#"
   xmlns:rdf="http://www.w3.org/1999/02/22-rdf-syntax-ns#"
   xmlns:svg="http://www.w3.org/2000/svg"
   xmlns="http://www.w3.org/2000/svg"
   xmlns:sodipodi="http://sodipodi.sourceforge.net/DTD/sodipodi-0.dtd"
   xmlns:inkscape="http://www.inkscape.org/namespaces/inkscape"
   width="400"
   height="600"
   viewBox="0 0 105.83333 158.75"
   version="1.1"
   id="svg8"
   inkscape:version="0.92.4 (5da689c313, 2019-01-14)"
   sodipodi:docname="25_m.svg">
  <defs
     id="defs2" />
  <sodipodi:namedview
     id="base"
     pagecolor="#ffffff"
     bordercolor="#666666"
     borderopacity="1.0"
     inkscape:pageopacity="0.0"
     inkscape:pageshadow="2"
     inkscape:zoom="1.2816667"
     inkscape:cx="200"
     inkscape:cy="362.41873"
     inkscape:document-units="mm"
     inkscape:current-layer="layer1"
     showgrid="false"
     units="px"
     showguides="true"
     inkscape:guide-bbox="true"
     inkscape:window-width="1280"
     inkscape:window-height="968"
     inkscape:window-x="0"
     inkscape:window-y="0"
     inkscape:window-maximized="1">
    <sodipodi:guide
       position="20.78869,60.476191"
       orientation="1,0"
       id="guide859"
       inkscape:locked="false" />
    <sodipodi:guide
       position="20.78869,128.88988"
       orientation="1,0"
       id="guide863"
       inkscape:locked="false" />
    <sodipodi:guide
       position="12.85119,57.641369"
       orientation="1,0"
       id="guide865"
       inkscape:locked="false" />
    <sodipodi:guide
       position="32.339612,108.51143"
       orientation="0,1"
       id="guide867"
       inkscape:locked="false" />
    <sodipodi:guide
       position="-9.0871638,97.553376"
       orientation="0,1"
       id="guide2596"
       inkscape:locked="false" />
    <sodipodi:guide
       position="-16.036171,64.144687"
       orientation="0,1"
       id="guide2598"
       inkscape:locked="false" />
  </sodipodi:namedview>
  <metadata
     id="metadata5">
    <rdf:RDF>
      <cc:Work
         rdf:about="">
        <dc:format>image/svg+xml</dc:format>
        <dc:type
           rdf:resource="http://purl.org/dc/dcmitype/StillImage" />
        <dc:title></dc:title>
      </cc:Work>
    </rdf:RDF>
  </metadata>
  <g
     inkscape:label="Layer 1"
     inkscape:groupmode="layer"
     id="layer1"
     transform="translate(0,-138.24998)">
    <rect
       style="opacity:1;fill:#ffffff;fill-opacity:0.60101007;stroke:#000000;stroke-width:0.27790931;stroke-miterlimit:4;stroke-dasharray:none;stroke-dashoffset:0;stroke-opacity:1"
       id="rect10"
       width="105.4538"
       height="158.75175"
       x="0.17799145"
       y="138.24911"
       ry="7.9375877" />
    <flowRoot
       xml:space="preserve"
       id="flowRoot851"
       style="fill:black;fill-opacity:1;stroke:none;font-family:sans-serif;font-style:normal;font-weight:normal;font-size:40px;line-height:0;letter-spacing:0px;word-spacing:0px"><flowRegion
         id="flowRegion853"><rect
           id="rect855"
           width="114.28571"
           height="65.714287"
           x="47.142857"
           y="194.28572" /></flowRegion><flowPara
         id="flowPara857" /></flowRoot>    <text
       xml:space="preserve"
       style="font-style:normal;font-weight:normal;font-size:33.90801239px;line-height:0;font-family:sans-serif;letter-spacing:0px;word-spacing:0px;fill:#666666;fill-opacity:1;stroke:none;stroke-width:0.84770024"
       x="19.838701"
       y="174.63515"
       id="text827"><tspan
         sodipodi:role="line"
         id="tspan825"
         x="19.838701"
         y="174.63515"
         style="font-style:normal;font-variant:normal;font-weight:bold;font-stretch:normal;font-family:Arsenal;-inkscape-font-specification:'Arsenal Bold';fill:#666666;stroke-width:0.84770024">25</tspan></text>
    <g
       id="g31568"
       transform="matrix(0.21174528,0,0,0.21174528,4.9136908,176.90146)">
      <g
         id="g31299"
         style="fill:none;stroke-width:2;stroke-linecap:butt">
        <path
           id="path31107"
           d="m 128.56,0 -2.07,0.52 a 0.91,0.89 -88.1 0 0 -0.65,0.62 q -3.95,13.43 -12.99,24.21 -0.5,0.59 -0.26,-0.15 L 114,20.87 q 0.1,-0.31 -0.15,-0.1 -2.47,2.15 -3.4,4.42 -2.53,6.18 -5.74,10.13"
           inkscape:connector-curvature="0"
           style="vector-effect:non-scaling-stroke;stroke:#ececec" />
        <path
           id="path31109"
           d="m 104.71,35.32 1.35,-29.21 q 0.08,-1.76 -1.47,-0.92 c -4.58,2.5 -8.1,5.86 -8.39,11.33 Q 94.6,47 92.46,77.45 c -0.29,4.06 -3.77,6.1 -7.45,6.57 A 0.98,0.98 0 0 1 84.17,83.71 Q 82.28,81.65 81.8,79.18 C 78.53,62.52 79.21,46.21 78.98,29.05 q -0.02,-1.58 -1.32,-0.68 c -3.79,2.61 -8.22,6.4 -8.47,11.25 q -1.22,23.04 1.96,45.88 c 0.52,3.73 2.86,10.31 7.79,7.94 Q 80.27,92.8 86,89.21"
           inkscape:connector-curvature="0"
           style="vector-effect:non-scaling-stroke;stroke:#838383" />
        <path
           id="path31111"
           d="m 86,89.21 q 1.72,1.96 0.43,5.79 -0.16,0.47 0.21,0.13 c 1.38,-1.24 3.17,0.03 3.73,1.22 1.36,2.88 -3.82,10.21 -3.13,14.71 1.11,7.25 -0.79,17.21 -4.28,24.3 a 0.25,0.24 9.7 0 1 -0.21,0.14 l -0.26,0.01 a 0.28,0.28 0 0 1 -0.29,-0.27 l -0.08,-4.5 q -0.01,-0.46 0.11,-0.91 0.9,-3.4 0.88,-6.13 -0.01,-1.22 -1.03,-1.57 a 0.62,0.62 0 0 0 -0.74,0.27 c -2.26,3.78 -2.34,7.16 -2.74,11.43 -0.24,2.47 0.87,4.19 1.69,6.42"
           inkscape:connector-curvature="0"
           style="vector-effect:non-scaling-stroke;stroke:#ececec" />
        <path
           id="path31113"
           d="m 80.29,140.25 c -3.82,2.4 -8.61,5.4 -10.36,9.75 q -0.45,1.13 0.67,0.65 l 9.24,-3.93"
           inkscape:connector-curvature="0"
           style="vector-effect:non-scaling-stroke;stroke:#838383" />
        <path
           id="path31115"
           d="m 79.84,146.72 -0.18,7.9 q -0.02,1.28 -0.54,0.1 l -0.14,-0.34 q -0.41,-0.92 -0.55,0.08 c -0.32,2.18 0.26,4.42 0.29,6.3 q 0.16,10.06 0.24,20.12 c 0.03,4.14 1.07,11.08 0.04,16.93 a 3.96,3.94 -54.7 0 0 0.44,2.6 q 2.46,4.38 3.01,9.84 0.29,2.92 3.59,4.25"
           inkscape:connector-curvature="0"
           style="vector-effect:non-scaling-stroke;stroke:#ececec" />
        <path
           id="path31117"
           d="m 86.04,214.5 q -4.56,2.92 -7.9,7.29 a 1.56,1.51 -26.8 0 0 -0.31,0.89 c -0.39,14.33 -2.11,30.26 0.26,44.35 a 1.25,1.25 0 0 0 1.8,0.9 q 5.42,-2.76 8.62,-7.93 a 1.21,1.21 0 0 0 0.14,-0.96 c -2.3,-8.12 -1.62,-15.52 -1.71,-24.13 q -0.03,-2.31 1.01,-0.24 l 5.89,11.74 a 0.96,0.95 44.7 0 1 0.01,0.82 l -3.61,7.52 a 0.87,0.87 0 0 0 0.67,1.24 c 4.4,0.6 17.48,-9.71 19.03,-13.84 a 0.53,0.53 0 0 0 -0.25,-0.65 l -3.99,-2.12 a 1.49,1.49 0 0 1 -0.5,-2.2 c 5.52,-7.47 11.33,-15.6 18.03,-21.98 q 0.93,-0.89 0.48,0.31 c -5.03,13.38 -6.14,25.08 -5.95,41.29 0.02,2.17 -0.02,4.31 1.71,5.69 6.72,5.32 11.49,-0.21 16.67,-4.24 a 0.4,0.4 0 0 1 0.6,0.16 c 2.55,5.78 12.6,3.73 16.84,1.07 a 1.91,1.86 27.3 0 1 0.92,-0.28 c 6.6,-0.17 12.4,-5.43 16.96,-9.95"
           inkscape:connector-curvature="0"
           style="vector-effect:non-scaling-stroke;stroke:#838383" />
        <path
           id="path31119"
           d="m 171.46,249.25 c 0.95,1.42 0.52,2.54 -0.98,3.32 -9.77,5.09 -5.46,13.75 -8.41,21.91 -1.45,4 -4.33,6.03 -6.02,9.62 q -3.13,6.67 -6.02,13.46 c -1.03,2.4 -7.67,22.6 -6.93,24.15 q 0.34,0.71 1.19,1.04"
           inkscape:connector-curvature="0"
           style="vector-effect:non-scaling-stroke;stroke:#ececec" />
        <path
           id="path31121"
           d="m 144.29,322.75 c -4.27,7.4 -10.62,23.91 3.21,25.29"
           inkscape:connector-curvature="0"
           style="vector-effect:non-scaling-stroke;stroke:#838383" />
        <path
           id="path31123"
           d="m 147.5,348.04 q -0.34,4.08 0.06,8.1 c 0.3,3.12 2.22,5.89 1.23,9.83 a 0.8,0.79 -63.5 0 0 0.27,0.82 q 0.16,0.13 0.38,0.21"
           inkscape:connector-curvature="0"
           style="vector-effect:non-scaling-stroke;stroke:#ececec" />
        <path
           id="path31125"
           d="m 80.29,306.45 a 0.54,0.53 79.9 0 1 0.72,0.51 q -0.04,23.66 0.02,47.23 0.01,2.05 0.89,5.29 a 0.39,0.39 0 0 0 0.58,0.22 q 4.76,-3.06 8.29,-7.44 a 1.55,1.52 -26.4 0 0 0.35,-1 l -0.2,-51.17 a 0.86,0.86 0 0 1 0.56,-0.82 q 6.78,-2.54 14,-3.35 c 4.66,-0.52 3.2,4.27 3.25,6.8 q 0.01,0.53 0.44,0.21 c 3.13,-2.28 9.92,-8.05 9.96,-12.19 0.05,-4.63 -3.82,-5 -7.62,-4.37 -11.91,1.99 -27.3,8.8 -33.29,20 q -0.57,1.07 0.56,0.64 l 1.49,-0.56"
           inkscape:connector-curvature="0"
           style="vector-effect:non-scaling-stroke;stroke:#838383" />
        <path
           id="path31127"
           d="m 104.44,353.81 q 10.45,5.75 19.29,-2.08 c 7.36,-6.51 14.58,-13.87 16.18,-22.8 q 1.08,-6.06 2.04,-19.43 c 0.62,-8.59 -1.65,-17.08 -11.44,-18.31 -11.06,-1.4 -22.02,19.56 -25.22,27.87 -2.45,6.38 -8.49,30.55 -0.85,34.75"
           inkscape:connector-curvature="0"
           style="vector-effect:non-scaling-stroke;stroke:#838383" />
        <path
           id="path31129"
           d="M 227.31,0 239,0.33 q 0.47,0.01 0.09,0.29 c -15.62,11.7 -29.65,26.7 -41.89,41.83 q -4.55,5.63 -10.67,7.9 c -4.13,1.53 -8.08,6.39 -11.32,9.4"
           inkscape:connector-curvature="0"
           style="vector-effect:non-scaling-stroke;stroke:#ececec" />
        <path
           id="path31131"
           d="m 175.21,59.75 c -5.19,-4.18 -15.72,-10.87 -22.58,-6.28 a 0.3,0.29 -19.9 0 1 -0.46,-0.21 q -0.58,-5.11 -6.25,-4.12 -20.7,3.62 -35.6,16.66 c -0.38,0.34 -3.88,3.89 -3.15,5.01 a 0.53,0.53 0 0 0 0.71,0.16 l 11.43,-6.91 q 0.77,-0.47 0.76,0.44 l -0.69,48.26 a 0.39,0.39 0 0 0 0.56,0.35 c 4.38,-2.17 9.81,-6.78 9.82,-12.15 q 0.04,-20.15 0.32,-40.31 a 0.72,0.72 0 0 1 0.63,-0.7 l 8.61,-1.1 q 2.49,-0.31 2.57,2.19 c 0.06,1.93 0.38,4.33 -0.17,6.22 -3.67,12.56 -4.25,21.97 -3.76,35.41 0.1,2.56 -0.5,6.25 0.21,9.33 q 0.56,2.48 2.81,3.67 5.74,3.05 12.35,2.11"
           inkscape:connector-curvature="0"
           style="vector-effect:non-scaling-stroke;stroke:#6f6f6f" />
        <path
           id="path31133"
           d="m 153.33,117.78 q -0.93,5.08 -1.06,10.17 c -0.14,5.1 -3.16,8.4 -7.71,10.23 a 1.22,1.17 -1.7 0 0 -0.66,0.67 q -0.69,1.85 -0.77,4.9 -0.32,12.31 -0.13,16.29"
           inkscape:connector-curvature="0"
           style="vector-effect:non-scaling-stroke;stroke:#ececec" />
        <path
           id="path31135"
           d="m 143,160.04 -3.22,0.64 q -1.94,0.39 -2.16,-1.58 l -2.65,-24.55 a 0.8,0.8 0 0 0 -1.18,-0.61 c -3.32,1.81 -9.25,6.29 -8.79,10.81 q 0.83,8.26 2.06,17.76 a 1.03,1.03 0 0 1 -0.76,1.13 l -16.6,4.38 a 0.53,0.53 0 0 1 -0.65,-0.65 c 2.26,-8.37 6.88,-21.7 14.08,-26.49 q 5.95,-3.97 10.76,-9.3 2.86,-3.17 -1.41,-3.31 -27.08,-0.85 -52.19,11.98"
           inkscape:connector-curvature="0"
           style="vector-effect:non-scaling-stroke;stroke:#6f6f6f" />
        <path
           id="path31137"
           d="m 86,89.21 q 2.42,-2.12 5.12,-3.11 A 0.65,0.65 0 0 1 92,86.71 v 22.95 q 0,3.86 3.43,2.09 5.86,-3.04 9.19,-8.87 a 0.54,0.54 0 0 0 -0.4,-0.8 l -1.18,-0.14 a 1.02,1.02 0 0 1 -0.89,-0.99 l -0.2,-17.38 a 1.08,1.08 0 0 1 0.34,-0.81 l 9.53,-8.9 q 1.65,-1.54 -0.6,-1.34 -4.45,0.42 -8.5,2.12 a 0.24,0.24 0 0 1 -0.33,-0.23 l 2.32,-39.09"
           inkscape:connector-curvature="0"
           style="vector-effect:non-scaling-stroke;stroke:#6f6f6f" />
        <path
           id="path31139"
           d="m 111.17,33.12 -2.73,4.53 q -0.38,0.63 0.29,0.35 3.01,-1.24 3.3,-4.6 0.17,-1.99 -0.86,-0.28"
           inkscape:connector-curvature="0"
           style="vector-effect:non-scaling-stroke;stroke:#ececec" />
        <path
           id="path31141"
           d="m 305.06,0 -3.49,0.64 q -0.95,0.18 -0.18,0.76 l 0.86,0.66 a 0.81,0.81 0 0 0 1.03,-0.05 l 1.01,-0.94 q 0.68,-0.63 0.7,0.3 0.03,1.39 -1.2,1.38 -0.79,0 -0.34,0.66 c 2.99,4.37 2.03,8.39 0.77,14.13 a 1.83,1.78 42.1 0 0 0.06,0.95 c 1.53,4.48 1.95,8.04 0.72,12.95 -0.89,3.59 -3.85,12.74 -2.15,15.91 a 1.46,1.44 35.7 0 1 0.16,0.93 c -1.34,8.85 -9.15,15.15 -13.75,22.26 q -7.03,10.87 -13.09,22.32 c -2.95,5.58 -7.23,10.78 -10.42,16.57 -0.81,1.46 -1.84,2.52 -2.86,3.83 a 0.61,0.61 0 0 0 0.03,0.79 l 0.24,0.27 a 0.54,0.53 -49.5 0 0 0.84,-0.07 l 5.29,-8.12 a 1.37,1.37 0 0 1 2.01,-0.31 c 4.06,3.31 5.62,0.36 7.92,-3.01 q 7.32,-10.69 14.05,-21.77 0.57,-0.95 2.25,-1.82 a 0.4,0.4 0 0 1 0.57,0.27 c 0.62,2.8 0.21,4.73 -1.65,7.08 q -7.63,9.61 -14.45,19.83 c -1.35,2.02 -3.48,3.36 -4.69,5.81 q -1.61,3.28 -2.19,4.21 c -1.17,1.85 -2.3,7.23 -4.8,6.39 a 0.61,0.61 0 0 1 -0.34,-0.86 l 0.78,-1.48 q 0.3,-0.56 -0.23,-0.2 -3.64,2.5 -2.81,6.75 a 1.16,1.15 57.8 0 1 -0.21,0.94 l -3,4"
           inkscape:connector-curvature="0"
           style="vector-effect:non-scaling-stroke;stroke:#ececec" />
        <path
           id="path31143"
           d="m 262.5,131.96 c -4.9,0.02 -10.51,-0.42 -15.31,0.42 -17.75,3.09 -19.68,24.4 -19.23,38.37"
           inkscape:connector-curvature="0"
           style="vector-effect:non-scaling-stroke;stroke:#838383" />
        <path
           id="path31145"
           d="m 227.96,170.75 c -4.31,2.41 -10.02,14.16 -12.28,18.8 a 0.83,0.83 0 0 0 0.02,0.75 l 0.75,1.38 q 0.53,0.97 -0.51,0.57 c -4.76,-1.84 -6.35,2.75 -9.95,4.52 q -0.69,0.34 -0.4,-0.37 1.21,-2.92 3.67,-4.97 0.54,-0.45 -0.16,-0.52 c -4.59,-0.45 -5.33,8.42 -9.81,8.35 a 0.74,0.72 72.3 0 1 -0.6,-0.32 l -0.75,-1.06 a 0.65,0.64 44.8 0 0 -1.05,0 l -7.86,11.22 a 1.39,1.35 58.2 0 0 -0.22,1 l 0.23,1.4"
           inkscape:connector-curvature="0"
           style="vector-effect:non-scaling-stroke;stroke:#ececec" />
        <path
           id="path31147"
           d="m 189.04,211.5 q -8.33,5.86 -13.47,14.5 c -4.72,7.92 2.51,16.03 -8.45,22.75 q -1.81,1.11 -0.72,-0.71 c 1.34,-2.23 3.4,-4.41 4.42,-6.64 1.62,-3.58 1.88,-7.94 2.4,-10.84 q 1.47,-8.25 0.68,-16.62 c -1.06,-11.12 -13.48,-13.37 -21.61,-8.44"
           inkscape:connector-curvature="0"
           style="vector-effect:non-scaling-stroke;stroke:#838383" />
        <path
           id="path31149"
           d="m 152.29,205.5 q -0.75,-0.75 -0.21,-1.63 a 0.98,0.96 -40.4 0 0 0.08,-0.87 c -1.43,-3.74 -1.04,-6.99 -2.47,-10.03 a 0.58,0.58 0 0 1 0.18,-0.71 c 1.5,-1.1 0.77,-5.6 0.89,-8.76 0.04,-1.25 -1.92,-3.25 -0.26,-4.04"
           inkscape:connector-curvature="0"
           style="vector-effect:non-scaling-stroke;stroke:#ececec" />
        <path
           id="path31151"
           d="m 150.5,179.46 c 3.21,5.73 7.09,1.58 9.96,-1.3 a 0.96,0.94 27 0 1 0.85,-0.27 q 10.54,1.79 12.68,1.89 c 7.84,0.38 21.24,-4.41 24.24,-13.27 q 0.28,-0.8 -0.47,-0.39 c -9.49,5.24 -24.16,5.49 -32.32,-1.69 -3.96,-3.48 -2.87,-10.34 -1.93,-15.17 q 2.09,-10.75 11.12,-14.19 c 5.11,-1.94 7.93,-4.38 10.66,-8.86 a 0.78,0.78 0 0 0 -0.62,-1.18 l -1.18,-0.05 a 1.97,1.97 0 0 0 -1.02,0.22 q -11.07,5.84 -19.36,15.22 -0.66,0.74 -0.53,-0.23 l 1.41,-10.5 q 0.2,-1.45 -1.09,-0.75 c -4.33,2.32 -9.62,6.73 -9.86,12.08 q -0.36,8.04 -1.97,17.25 a 0.71,0.71 0 0 1 -0.59,0.59 l -7.48,1.18"
           inkscape:connector-curvature="0"
           style="vector-effect:non-scaling-stroke;stroke:#838383" />
        <path
           id="path31153"
           d="m 153.33,117.78 2.85,-0.73"
           inkscape:connector-curvature="0"
           style="vector-effect:non-scaling-stroke;stroke:#838383" />
        <path
           id="path31155"
           d="m 156.18,117.05 q -1.95,5.43 -1.12,11.02 0.07,0.53 -0.11,1.04 l -0.2,0.53 q -0.44,1.19 0.54,0.39 c 3.57,-2.97 6.13,-11.02 8.12,-15.39 a 1.24,1.21 47.4 0 0 0.03,-0.94 q -0.21,-0.57 -0.73,-0.95"
           inkscape:connector-curvature="0"
           style="vector-effect:non-scaling-stroke;stroke:#ececec" />
        <path
           id="path31157"
           d="m 162.71,112.75 c 11.67,-10.97 18.97,-18.99 19.97,-36.29 q 0.64,-10.82 -7.47,-16.71"
           inkscape:connector-curvature="0"
           style="vector-effect:non-scaling-stroke;stroke:#838383" />
        <path
           id="path31159"
           d="m 238.64,59.72 c -5.82,7.92 -7.42,16.93 -8.12,26.82 q -0.07,1.01 0.82,0.53 l 2.51,-1.34 q 0.81,-0.43 0.65,0.47 -1.19,6.97 -1.4,14.8 c -0.22,8.39 8.71,11.33 15.3,10.06 11.64,-2.26 25.86,-19.65 27.35,-30.81 1.12,-8.34 2.32,-19.61 -6.04,-24.97 q -5.45,-3.5 -11.99,-3.48 a 0.76,0.76 0 0 1 -0.76,-0.71 l -0.15,-2.5 a 0.71,0.71 0 0 0 -0.77,-0.66 c -7.92,0.61 -15.82,3.77 -23.08,6.9 a 0.53,0.51 -27.1 0 1 -0.65,-0.2 l -0.65,-1.1 a 0.74,0.74 0 0 0 -0.92,-0.3 c -2.51,1.06 -4.39,3.16 -6.1,4.39 -4.71,3.39 -10.23,6.07 -12.56,11.79 q -0.39,0.96 0.55,0.53 l 8.71,-4.01 a 0.37,0.37 0 0 1 0.53,0.32 q 0.25,4.34 -0.15,7.44 -1.84,14.27 -3.33,35 -0.33,4.53 0.1,7.86 a 0.38,0.38 0 0 0 0.53,0.3 c 4.45,-1.98 8.69,-5.9 8.93,-11.07 q 1.03,-21.88 4.24,-43.61 a 0.99,0.98 -6.7 0 1 0.62,-0.78 l 5.5,-2.11 q 0.9,-0.34 0.33,0.44"
           inkscape:connector-curvature="0"
           style="vector-effect:non-scaling-stroke;stroke:#838383" />
        <path
           id="path31161"
           d="m 211.1,66.09 c -4.27,2.18 -22.56,13.32 -23.01,17.82 q -0.13,1.33 1,0.6 c 2.94,-1.92 24.61,-15.24 22.76,-18.21 a 0.58,0.57 60.5 0 0 -0.75,-0.21"
           inkscape:connector-curvature="0"
           style="vector-effect:non-scaling-stroke;stroke:#838383" />
        <path
           id="path31163"
           d="m 381.06,0 q 1.02,0.05 2.02,0.64 a 0.85,0.84 -74.4 0 1 0.42,0.75 q -0.09,7.51 2.03,14.56 c 2.44,8.11 3.37,12.77 1.42,20.23 a 1.18,1.15 -53.3 0 0 0.12,0.9 q 0.74,1.28 0.39,2.12 -2.27,5.4 -2.11,12.44 a 0.66,0.66 0 0 1 -0.39,0.62 l -2.74,1.21 a 0.81,0.81 0 0 0 -0.45,0.94 c 1.56,5.94 -1.27,10.55 -2.93,16.18 a 1.03,1 33.2 0 0 0.21,0.94 l 2.06,2.35 a 0.85,0.84 -54 0 1 0.14,0.89 c -2.67,6.06 -3.41,12.55 -8.44,17.27 q -1.81,1.7 -3.01,3.88 -2.03,3.71 -2.69,7.92"
           inkscape:connector-curvature="0"
           style="vector-effect:non-scaling-stroke;stroke:#ececec" />
        <path
           id="path31165"
           d="m 367.11,103.84 q -7.89,2.19 -16.53,0.97 a 0.98,0.98 0 0 1 -0.81,-1.21 c 2.77,-10.79 11.98,-14.82 17.57,-23.68 1.03,-1.61 0.92,-3.55 0,-5.11 a 1.1,1.07 -9.5 0 0 -0.75,-0.52 q -5.58,-1.04 -11.18,-0.05 c -1.93,0.34 -3.13,1.76 -4.98,2.56 a 0.43,0.42 70.5 0 1 -0.58,-0.28 q -1.21,-4.78 -0.82,-9.76 0.15,-1.97 1.97,-2.75 c 5.76,-2.47 15.56,-6.77 20.88,-4.13 a 0.71,0.7 -53.3 0 0 0.8,-0.12 c 2.7,-2.49 9.78,-8.61 8.17,-10.54 a 1,0.99 -21.1 0 0 -0.83,-0.36 c -14.27,0.78 -24.93,6.74 -35.76,15.91 -3.96,3.36 -5.53,6.15 -6.78,11.55 q -2.24,9.76 -5.38,18.73 a 1.29,1.28 -62.5 0 1 -1.96,0.62 c -3.32,-2.4 -2.38,-10.94 -2.08,-14.35 q 0.15,-1.66 1.48,-2.65 c 4.56,-3.4 10.08,-8.97 10.58,-14.92 0.47,-5.66 -0.18,-11.42 -4.99,-14.99 q -1.55,-1.15 -3.25,-0.22 C 320.46,54.88 320.7,64.22 319.3,75.62 q -0.22,1.74 -1.91,2.24 l -7.72,2.27 a 0.51,0.51 0 0 1 -0.65,-0.51 q 0.53,-15.82 3.68,-31.27"
           inkscape:connector-curvature="0"
           style="vector-effect:non-scaling-stroke;stroke:#6f6f6f" />
        <path
           id="path31167"
           d="m 312.7,48.35 4.4,-1.91 a 1.44,1.42 1.7 0 0 0.68,-0.63 q 1.85,-3.39 0.27,-6.88 a 0.3,0.29 77.6 0 0 -0.27,-0.18 l -0.29,-0.01 a 0.26,0.25 -3 0 0 -0.26,0.28 q 0.12,1.47 -0.27,2 -1.69,2.28 -0.82,-0.3 1.74,-5.17 0.81,-10.56 a 0.8,0.8 0 0 0 -0.8,-0.66 l -1.08,0.01 a 1.08,1.07 -15 0 1 -0.93,-0.53 l -0.76,-1.28 q -0.67,-1.13 -0.53,0.18 c 0.19,1.94 -0.44,3.64 -0.33,5.46 q 0.34,6.09 -1.91,11.74 -0.19,0.47 -0.16,0.99 0.05,0.94 -0.21,1.91 a 0.54,0.54 0 0 0 0.43,0.67 l 0.83,0.14"
           inkscape:connector-curvature="0"
           style="vector-effect:non-scaling-stroke;stroke:#ececec" />
        <path
           id="path31169"
           d="m 311.5,48.79 c -6.01,3.25 -8.91,7.55 -10.1,14.58 q -1.88,11.12 -2.34,22.46 a 2.62,2.62 0 0 1 -1.31,2.16 q -1.95,1.12 -1.76,3.36 a 0.49,0.49 0 0 0 0.66,0.42 l 1.45,-0.52 a 0.65,0.64 -10.1 0 1 0.86,0.6 l 0.13,17.24 q 0.03,3.26 2.46,1.09 l 6.3,-5.62 q 1.48,-1.31 1.43,-3.29 l -0.33,-13.02 a 1.2,1.19 81.6 0 1 0.87,-1.18 l 8.13,-2.38 a 0.35,0.34 84.2 0 1 0.44,0.36 c -0.4,4.35 -2.31,19.05 2.94,20.82 6.51,2.21 13.29,-6.38 16.55,-11.09 q 1.13,-1.65 1.08,0.35 c -0.05,1.86 -0.72,10.83 4.35,7.19 a 0.27,0.27 0 0 1 0.4,0.09 c 0.66,1.24 -6.24,8.58 -3.05,11.8 2.27,2.29 14.83,0.39 17.98,-0.25"
           inkscape:connector-curvature="0"
           style="vector-effect:non-scaling-stroke;stroke:#6f6f6f" />
        <path
           id="path31171"
           d="m 358.64,113.96 q -2.5,9.45 -8.88,16.48 c -3.98,4.39 -6.21,10.78 -8.63,16.12 q -2.76,6.12 -5.88,11.12 c -5.96,9.54 -11.72,18.73 -18.59,27.99 q -8.04,10.84 -15.98,21.76 -4.63,6.35 -11.84,9.65 -0.79,0.36 -0.6,-0.49 0.28,-1.27 1.16,-2.3 a 0.51,0.51 0 0 0 0.1,-0.27 l 0.01,-0.29 a 0.27,0.27 0 0 0 -0.34,-0.27 q -3.99,1.17 -8.1,0.69 a 1.07,1.05 25.1 0 0 -0.88,0.31 c -1.21,1.27 -4.56,2.66 -4.95,4.02 q -0.88,3.08 -2.28,5.94 a 1.53,1.47 -1.2 0 1 -0.68,0.68 q -5.12,2.49 -10.76,2.98 a 0.79,0.78 4.7 0 0 -0.69,0.58 l -2.25,8.57 a 0.58,0.58 0 0 0 0.31,0.68 c 1.24,0.59 1.1,1.77 0.31,2.76 q -3.5,4.41 -7.94,7.88"
           inkscape:connector-curvature="0"
           style="vector-effect:non-scaling-stroke;stroke:#ececec" />
        <path
           id="path31173"
           d="m 251.26,248.55 q -1.38,-3.22 -1.69,-6.36 c -0.66,-6.54 -3.65,-28.76 -0.01,-32.37 3.39,-3.36 9.67,-8.76 8.26,-10.13 a 0.61,0.6 -41.8 0 0 -0.78,-0.04 c -12.77,9.86 -19.74,18.31 -28.64,29.88 q -2.39,3.11 -2.39,-0.82 L 226,209.8 q 0,-1.4 -1.2,-0.68 -3.81,2.28 -6.68,5.55 c -3.29,3.72 -2.09,7.42 -2.11,11.82 q -0.05,7.33 0.03,14.77 a 1.7,1.66 60.9 0 1 -0.25,0.92 c -5.03,8.26 -16.15,9.61 -24.8,8.63 a 0.71,0.71 0 0 1 -0.61,-0.61 l -0.45,-4.05 a 1.13,1.12 64 0 1 0.31,-0.91 c 6.06,-6.19 14.72,-12.75 18.46,-20.6 q 1.17,-2.47 -1.55,-2.19 -7.87,0.8 -15.9,3.51"
           inkscape:connector-curvature="0"
           style="vector-effect:non-scaling-stroke;stroke:#6f6f6f" />
        <path
           id="path31175"
           d="m 191.25,225.96 q -1.53,-6.59 2.49,-11.64 a 0.57,0.56 -44.6 0 0 0.01,-0.7 l -0.25,-0.33"
           inkscape:connector-curvature="0"
           style="vector-effect:non-scaling-stroke;stroke:#ececec" />
        <path
           id="path31177"
           d="m 193.5,213.29 q 3.7,-2.08 7.96,-2.28 a 0.67,0.67 0 0 1 0.66,0.46 c 0.37,1.14 -0.05,7.96 2.21,5.81 4.81,-4.59 11.29,-9.84 7.85,-15.24 q -0.95,-1.48 -2.66,-1.11 c -8.15,1.71 -12.96,5.08 -20.48,10.57"
           inkscape:connector-curvature="0"
           style="vector-effect:non-scaling-stroke;stroke:#6f6f6f" />
        <path
           id="path31179"
           d="m 227.96,170.75 q -1.82,15.2 12.67,16.32 a 0.28,0.23 64.4 0 1 0.13,0.06 l 0.19,0.19 a 0.22,0.21 52.4 0 1 -0.04,0.35 l -2.58,1.45 a 0.8,0.8 0 0 0 -0.36,0.96 l 1.1,3.07 a 0.49,0.49 0 0 0 0.59,0.31 q 4.65,-1.22 4.18,-5.71 a 0.5,0.49 86.9 0 1 0.49,-0.55 c 16.27,-0.05 34.53,-8.05 42.14,-23.32 q 1.3,-2.6 -1.05,-4.31 -0.98,-0.71 -2.15,-0.66 c -3.62,0.15 -8.58,6.03 -10.25,8.97 a 0.55,0.54 -68.2 0 0 0.34,0.8 l 1.9,0.45 a 0.99,0.98 89.5 0 1 0.71,0.7 q 0.45,1.78 -1.05,2.53 c -10.38,5.23 -41.12,11.44 -36.7,-10.99"
           inkscape:connector-curvature="0"
           style="vector-effect:non-scaling-stroke;stroke:#6f6f6f" />
        <path
           id="path31181"
           d="m 238.22,161.37 q 6.26,-10.32 14.62,-19.04"
           inkscape:connector-curvature="0"
           style="vector-effect:non-scaling-stroke;stroke:#ececec" />
        <path
           id="path31183"
           d="m 252.84,142.33 q 3.12,-0.92 5.7,-3.3 2.63,-2.43 5.42,-5.95 a 0.53,0.53 0 0 0 -0.08,-0.74 q -0.6,-0.48 -1.38,-0.38"
           inkscape:connector-curvature="0"
           style="vector-effect:non-scaling-stroke;stroke:#6f6f6f" />
        <path
           id="path31185"
           d="m 313.32,17.41 c -0.69,0.62 -0.28,6.99 0.73,7.1 a 0.26,0.26 0 0 0 0.29,-0.28 l -0.71,-6.7 q -0.04,-0.36 -0.31,-0.12"
           inkscape:connector-curvature="0"
           style="vector-effect:non-scaling-stroke;stroke:#ececec" />
        <path
           id="path31187"
           d="m 381.6,33.07 q -0.1,1.57 1.04,0.47 2.52,-2.43 1.21,-5.83 a 0.73,0.73 0 0 0 -0.78,-0.46 c -1.94,0.24 -1.36,4.09 -1.47,5.82"
           inkscape:connector-curvature="0"
           style="vector-effect:non-scaling-stroke;stroke:#ececec" />
        <path
           id="path31189"
           d="M 381.78,37.05 C 378,35.37 378.02,46.2 378.14,47.8 a 0.42,0.42 0 0 0 0.58,0.35 q 0.33,-0.13 0.41,-0.59 0.83,-4.81 3.13,-9.12 a 1.01,1 26.1 0 0 -0.48,-1.39"
           inkscape:connector-curvature="0"
           style="vector-effect:non-scaling-stroke;stroke:#ececec" />
        <path
           id="path31191"
           d="m 219.45,367.01 q 2.34,-5.23 2.58,-11.01 c 0.13,-3.16 -1.82,-4.6 -2.03,-7.21 q -0.23,-2.78 0.38,-5.12 c 0.57,-2.19 5.81,-20.51 7.84,-21.7 a 0.33,0.33 0 0 1 0.5,0.28 l 0.07,3.75"
           inkscape:connector-curvature="0"
           style="vector-effect:non-scaling-stroke;stroke:#ececec" />
        <path
           id="path31193"
           d="m 228.79,326 q -1.16,16.94 -1.05,20.03 0.27,7.94 8.33,8.67 c 8.43,0.76 15.81,-0.61 21.74,-6.91 q 2.32,-2.46 3.45,-3.45 a 0.3,0.3 0 0 1 0.49,0.17 q 1.46,6.61 8.16,8.12 c 14.96,3.35 24.45,-7.15 32.58,-17.25 q 0.32,-0.4 0.49,0.08 c 0.92,2.58 -5.55,12.87 -6.93,15.96 q -1.05,2.34 1.51,2.46 3.48,0.17 5.55,-2.73 a 0.39,0.39 0 0 1 0.64,0.01 l 1.48,2.26 a 1.17,1.16 -13 0 0 0.86,0.53 c 4.17,0.41 8.4,-4.69 10.56,-7.83 a 1.36,1.36 0 0 0 -0.54,-2 c -4.4,-2.06 -4.12,-11.63 -1.86,-15.02 q 5.88,-8.84 14.42,-19.93 2.12,-2.75 4.43,-4.35 0.42,-0.29 0.39,0.22 -1.4,21.22 -1.54,42.48 c -0.03,5.93 5,7.79 9.36,4.29 1.17,-0.93 9.25,-8.2 8.72,-9.29 a 0.61,0.61 0 0 0 -0.84,-0.26 l -2.62,1.48 a 1.49,1.46 -53.5 0 1 -0.99,0.16 c -2.35,-0.43 -3.53,-1.71 -3.57,-4.23 q -0.31,-21.75 1.79,-43.39 c 0.18,-1.85 1.21,-2.99 2.19,-4.44 q 1.07,-1.58 -0.7,-0.88 -3.2,1.27 -5.82,3.51 -15.06,12.85 -26.01,29.45 -0.84,1.26 -0.69,-0.24 l 2.21,-23 q 0.13,-1.36 -1.07,-0.71 -4.22,2.27 -7.17,6.08 a 0.37,0.37 0 0 1 -0.63,-0.08 q -5.87,-13.25 -19.82,-12.09 c -8.52,0.71 -15.35,11.27 -20.58,17.1 q -1.93,2.16 -4.06,1.66 c -3.97,-0.93 -9.64,-0.56 -12.79,0.56 q -3.21,1.15 -0.65,-1.11 c 3.76,-3.32 16.26,-17.73 11.2,-22.77 a 1.06,1.03 63.2 0 0 -0.88,-0.3 q -11.5,1.6 -21.74,6.98"
           inkscape:connector-curvature="0"
           style="vector-effect:non-scaling-stroke;stroke:#838383" />
        <path
           id="path31195"
           d="m 236.79,296 -0.14,-0.43 a 1,0.99 53.6 0 1 0.13,-0.89 c 1.99,-2.82 1.42,-5.71 2.38,-8.42 q 3.61,-10.29 8.03,-20.33 a 1.88,1.86 85 0 1 0.62,-0.75 q 5.29,-3.74 6.53,-9.99 c 0.41,-2.07 1.46,-3.16 2.29,-5 q 0.25,-0.56 -0.21,-0.15 l -3.28,2.89"
           inkscape:connector-curvature="0"
           style="vector-effect:non-scaling-stroke;stroke:#ececec" />
        <path
           id="path31197"
           d="m 253.14,252.93 q -1.87,-2.54 -1.88,-4.38"
           inkscape:connector-curvature="0"
           style="vector-effect:non-scaling-stroke;stroke:#838383" />
        <path
           id="path31199"
           d="m 358.64,113.96 c 9,-3.29 15.65,-6.31 21.05,-13.52 q 0.64,-0.86 0.44,-1.8 a 0.39,0.38 69.2 0 0 -0.56,-0.26 q -5.8,3.37 -12.46,5.46"
           inkscape:connector-curvature="0"
           style="vector-effect:non-scaling-stroke;stroke:#838383" />
        <path
           id="path31201"
           d="m 355.54,126.36 c -0.47,1.3 -2.53,3.1 -3.58,4.02 a 0.62,0.62 0 0 0 -0.09,0.82 l 0.17,0.23 a 0.52,0.52 0 0 0 0.85,-0.02 l 3.05,-4.55 a 0.25,0.25 0 0 0 -0.03,-0.32 l -0.21,-0.21 a 0.1,0.1 0 0 0 -0.16,0.03"
           inkscape:connector-curvature="0"
           style="vector-effect:non-scaling-stroke;stroke:#ececec" />
        <path
           id="path31203"
           d="m 352.5,245.03 c -11.18,0.37 -25.58,17.87 -26.76,28.3 q -0.13,1.15 0.74,0.39 3.76,-3.27 7.12,-6.96 c 2.34,-2.57 2.86,-5.8 4.35,-8.97 q 1.35,-2.86 4.5,-3.01 6.04,-0.3 11.92,1.04 a 1.4,1.35 -52.1 0 0 0.98,-0.14 q 4.9,-2.67 7.92,-7.35 1.59,-2.45 -1.31,-2.82 -5.01,-0.63 -9.46,-0.48"
           inkscape:connector-curvature="0"
           style="vector-effect:non-scaling-stroke;stroke:#838383" />
        <path
           id="path31205"
           d="m 224.99,359.75 -0.8,6.1 q -0.11,0.82 0.58,0.37 l 1.32,-0.87 a 0.73,0.73 0 0 0 0.33,-0.74 c -0.2,-1.35 0.32,-4.09 -0.4,-5.05 q -0.85,-1.14 -1.03,0.19"
           inkscape:connector-curvature="0"
           style="vector-effect:non-scaling-stroke;stroke:#ececec" />
        <path
           id="path31207"
           d="m 312.7,48.35 -1.2,0.44"
           inkscape:connector-curvature="0"
           style="vector-effect:non-scaling-stroke;stroke:#838383" />
        <path
           id="path31209"
           d="m 243.78,60.87 a 0.3,0.3 0 0 0 -0.38,0.22 l -0.95,4.3 A 0.3,0.3 0 0 0 243,65.6 l 2.3,-3.85 a 0.3,0.3 0 0 0 -0.17,-0.44 l -1.35,-0.44"
           inkscape:connector-curvature="0"
           style="vector-effect:non-scaling-stroke;stroke:#838383" />
        <path
           id="path31211"
           d="m 264.86,70.69 c -2.27,-4.81 -8.74,-9.21 -14.54,-8.4 a 0.92,0.91 -81.5 0 0 -0.7,0.52 q -6.33,13.74 -6.48,28.95 -0.07,6.51 6.05,8.59 c 15.38,5.21 16.91,-9.53 17.12,-19.9 q 0.14,-6.41 -1.45,-9.76"
           inkscape:connector-curvature="0"
           style="vector-effect:non-scaling-stroke;stroke:#838383" />
        <path
           id="path31213"
           d="m 329.9733,67.0073 a 0.42,0.42 0 0 0 -0.4134,-0.4266 l -0.0399,-6e-4 a 0.42,0.42 0 0 0 -0.4266,0.4133 l -0.0867,5.5193 a 0.42,0.42 0 0 0 0.4134,0.4266 l 0.0399,6e-4 a 0.42,0.42 0 0 0 0.4266,-0.4133 l 0.0867,-5.5193"
           inkscape:connector-curvature="0"
           style="vector-effect:non-scaling-stroke;stroke:#6f6f6f" />
        <path
           id="path31215"
           d="m 352.55,91.75 c 1.74,-1.01 5.08,-4.53 5.42,-6.58 a 0.62,0.61 -82.4 0 0 -0.54,-0.71 l -5.42,-0.58 a 0.5,0.5 0 0 0 -0.55,0.55 l 0.67,7.11 a 0.28,0.28 0 0 0 0.42,0.21"
           inkscape:connector-curvature="0"
           style="vector-effect:non-scaling-stroke;stroke:#6f6f6f" />
        <path
           id="path31217"
           d="m 162.71,112.75 -6.53,4.3"
           inkscape:connector-curvature="0"
           style="vector-effect:non-scaling-stroke;stroke:#6f6f6f" />
        <path
           id="path31219"
           d="m 151.28,106.14 q 3.53,1.87 7.35,1.93"
           inkscape:connector-curvature="0"
           style="vector-effect:non-scaling-stroke;stroke:#838383" />
        <path
           id="path31221"
           d="m 158.63,108.07 c 6.16,0.7 9.91,-4.38 11.58,-9.82"
           inkscape:connector-curvature="0"
           style="vector-effect:non-scaling-stroke;stroke:#6f6f6f" />
        <path
           id="path31223"
           d="m 170.21,98.25 1.58,-6.75"
           inkscape:connector-curvature="0"
           style="vector-effect:non-scaling-stroke;stroke:#838383" />
        <path
           id="path31225"
           d="m 171.79,91.5 q 1.45,-7.15 0.91,-10.45 C 171.11,71.3 161.5,65.75 152.71,62.23 a 0.43,0.42 16.3 0 0 -0.57,0.31 c -1.75,8.73 -3.87,17.79 -4.15,26.56 -0.13,4.08 -2.02,15.11 3.29,17.04"
           inkscape:connector-curvature="0"
           style="vector-effect:non-scaling-stroke;stroke:#6f6f6f" />
        <path
           id="path31227"
           d="m 171.79,91.5 -0.04,-0.72 a 0.58,0.58 0 0 0 -0.65,-0.54 c -2.23,0.23 -2.4,5.58 -2,7.25 a 0.85,0.84 1.9 0 0 0.59,0.62 l 0.52,0.14"
           inkscape:connector-curvature="0"
           style="vector-effect:non-scaling-stroke;stroke:#ececec" />
        <path
           id="path31229"
           d="m 158.63,108.07 q 0.44,-9.02 4.34,-17.01 0.53,-1.09 -0.57,-0.57 -1.06,0.5 -1.64,1.51 -0.79,1.37 -0.59,-0.01 l 0.55,-3.93 a 0.39,0.37 29.3 0 0 -0.1,-0.32 l -0.2,-0.21 a 0.32,0.32 0 0 0 -0.49,0.04 q -2.12,3.03 -3.79,6.35 -2.96,5.91 -4.86,12.22"
           inkscape:connector-curvature="0"
           style="vector-effect:non-scaling-stroke;stroke:#ececec" />
        <path
           id="path31231"
           d="m 166.74,85.61 q 0.52,-1.49 -1.02,-1.15 l -1.86,0.41 a 0.69,0.68 -14.1 0 0 -0.51,0.85 c 0.48,1.73 2.68,1.92 3.39,-0.11"
           inkscape:connector-curvature="0"
           style="vector-effect:non-scaling-stroke;stroke:#ececec" />
        <path
           id="path31233"
           d="m 150.5,179.46 q -1.11,-7.33 -0.07,-14.74 0.1,-0.68 -0.36,-0.17 -4.28,4.79 -10.81,4.45 a 0.67,0.67 0 0 0 -0.7,0.72 l 0.8,10.47 a 1.41,1.39 62.3 0 1 -0.31,1.01 q -3.41,4.37 -7.85,7.62 -1.96,1.44 -2.13,-0.98 l -1.16,-16.42 a 0.39,0.39 0 0 0 -0.48,-0.36 l -19.72,4.96 a 1.03,1.02 -1.5 0 0 -0.75,0.78 q -1.44,6.76 -0.84,13.72 0.14,1.54 1.24,0.45 3.21,-3.15 7.11,-5.4 a 0.39,0.39 0 0 1 0.56,0.18 c 0.79,1.78 -13.11,15.36 -16.25,15.45 q -2.74,0.08 -2.8,-2.65 c -0.51,-21.86 8.69,-44.94 24.71,-59.99 q 0.6,-0.56 -0.22,-0.55 -12.46,0.28 -24.6,2.94 a 0.75,0.75 0 0 0 -0.59,0.73 q -0.05,17.78 -0.24,35.6 -0.06,6.46 -1.49,9.26 -2.32,4.55 -7.73,6.39 A 0.62,0.62 0 0 1 85,192.34 q 0,-20.07 0,-40.12 0,-5.04 4.67,-8.71 0.39,-0.31 -0.1,-0.22 -5.29,0.94 -9.73,3.43"
           inkscape:connector-curvature="0"
           style="vector-effect:non-scaling-stroke;stroke:#6f6f6f" />
        <path
           id="path31235"
           d="m 252.84,142.33 -11.77,-0.27 a 1.8,1.79 -84.1 0 0 -1.8,1.47 q -1.61,8.67 -1.05,17.84"
           inkscape:connector-curvature="0"
           style="vector-effect:non-scaling-stroke;stroke:#838383" />
        <path
           id="path31237"
           d="m 152.29,205.5 -6.75,6.25"
           inkscape:connector-curvature="0"
           style="vector-effect:non-scaling-stroke;stroke:#6f6f6f" />
        <path
           id="path31239"
           d="m 145.54,211.75 q -1.9,-1.52 -0.57,-3.58 a 1.28,1.27 59 0 0 0.2,-0.81 l -0.22,-2.32 q -0.12,-1.38 0.77,-0.31 l 1.17,1.4 a 0.75,0.75 0 0 0 0.82,0.23 c 1.77,-0.6 1.41,-3.46 1.09,-4.87 a 0.48,0.47 -13.8 0 0 -0.58,-0.35 q -1.39,0.39 -1.38,-0.94 0.08,-8.22 -0.04,-16.45 -0.06,-3.84 -2.19,-5.51 -1.59,-1.25 -1.58,0.77 0.05,7.8 -0.49,15.53 c -0.26,3.62 1.13,6.26 0.62,10.11 q -0.62,4.61 0.4,9.18"
           inkscape:connector-curvature="0"
           style="vector-effect:non-scaling-stroke;stroke:#ececec" />
        <path
           id="path31241"
           d="m 143.56,213.83 q -4.42,6.8 -5.77,15.17"
           inkscape:connector-curvature="0"
           style="vector-effect:non-scaling-stroke;stroke:#6f6f6f" />
        <path
           id="path31243"
           d="m 137.79,229 -0.03,-0.32 a 0.42,0.41 -88.3 0 0 -0.35,-0.38 q -2.59,-0.41 -4.26,1.47 a 0.76,0.76 0 0 1 -0.79,0.23 q -2.16,-0.65 -4.07,0.75"
           inkscape:connector-curvature="0"
           style="vector-effect:non-scaling-stroke;stroke:#ececec" />
        <path
           id="path31245"
           d="m 128.29,230.75 c 0.91,-9.02 2.8,-20.14 8.23,-27.65 0.61,-0.85 0.12,-1.49 -0.95,-1.35 a 4.4,4.36 22.3 0 0 -2.15,0.89 Q 118.07,214.55 106.29,230"
           inkscape:connector-curvature="0"
           style="vector-effect:non-scaling-stroke;stroke:#6f6f6f" />
        <path
           id="path31247"
           d="m 106.29,230 q -1.85,-3.04 -1.65,-6.76 0.02,-0.49 -0.24,-0.07 -1.21,1.97 -1.73,4.16 c -0.38,1.65 0.95,3.58 -1.71,4.42"
           inkscape:connector-curvature="0"
           style="vector-effect:non-scaling-stroke;stroke:#ececec" />
        <path
           id="path31249"
           d="m 100.96,231.75 -7.54,-16.92 q -1.06,-2.38 -3.03,-0.67 l -1.91,1.67 a 0.57,0.56 59.1 0 1 -0.9,-0.23 l -0.34,-0.91 a 0.71,0.69 -8.7 0 0 -0.63,-0.45 q -0.3,-0.01 -0.57,0.26"
           inkscape:connector-curvature="0"
           style="vector-effect:non-scaling-stroke;stroke:#6f6f6f" />
        <path
           id="path31251"
           d="m 89.44,212.06 q 0.12,0.19 0.38,0.21 a 0.57,0.57 0 0 0 0.55,-0.81 c -2.29,-5 -1.08,-12.35 -1.58,-17.49 a 0.42,0.42 0 0 0 -0.6,-0.34 c -1.86,0.86 -0.08,15.81 0.31,17.69 a 0.38,0.33 17.7 0 0 0.13,0.22 q 0.1,0.08 0.21,0.15 0.55,0.3 0.6,0.37"
           inkscape:connector-curvature="0"
           style="vector-effect:non-scaling-stroke;stroke:#ececec" />
        <path
           id="path31253"
           d="m 145.54,211.75 -1.98,2.08"
           inkscape:connector-curvature="0"
           style="vector-effect:non-scaling-stroke;stroke:#838383" />
        <path
           id="path31255"
           d="m 253.14,252.93 q -3.48,5.82 -9.64,9.47 a 0.46,0.45 61.6 0 1 -0.64,-0.2 q -2.41,-4.91 -3.2,-11.14 -1.73,-13.72 -1.68,-27.65 0,-0.69 -0.44,-0.15 c -6.37,7.81 -16.48,13.43 -9.69,25.38 a 1.17,1.16 -36.7 0 1 -0.21,1.42 l -7.66,7.29 q -2.43,2.32 -3.08,-0.98 l -1.15,-5.96 a 0.16,0.16 0 0 0 -0.26,-0.1 c -10.46,7.74 -24.38,13.14 -37.41,9.34 a 0.64,0.63 9.1 0 1 -0.45,-0.62 q 0.13,-6.92 -1.84,-13.59 -0.17,-0.61 -0.61,-0.15 l -3.72,3.96"
           inkscape:connector-curvature="0"
           style="vector-effect:non-scaling-stroke;stroke:#6f6f6f" />
        <path
           id="path31257"
           d="m 100.96,231.75 1.41,2.76 a 0.36,0.36 0 0 0 0.61,0.05 l 3.31,-4.56"
           inkscape:connector-curvature="0"
           style="vector-effect:non-scaling-stroke;stroke:#838383" />
        <path
           id="path31259"
           d="m 128.29,230.75 q -0.44,8.95 -0.32,18.04 c 0.06,4.18 2.59,5.95 6.51,5.69 a 0.84,0.83 -79.3 0 0 0.71,-0.49 q 1.55,-3.35 1.59,-6.49 0.16,-10.91 1.01,-18.5"
           inkscape:connector-curvature="0"
           style="vector-effect:non-scaling-stroke;stroke:#838383" />
        <path
           id="path31261"
           d="m 193.5,213.29 c -7.2,2.17 -6.93,8.93 -6.79,14.49 q 0.01,0.49 0.39,0.18 1.86,-1.53 4.15,-2"
           inkscape:connector-curvature="0"
           style="vector-effect:non-scaling-stroke;stroke:#838383" />
        <path
           id="path31263"
           d="m 148.52,235.04 c -2.23,6.92 4.62,13.26 10.71,13.93 q 2.2,0.25 2.62,-1.93 c 1.88,-9.73 7.41,-35.3 -10.21,-34.02 q -2.13,0.16 -2.62,2.23 c -0.9,3.74 -3.83,17.73 -0.78,19.15 a 0.53,0.53 0 0 1 0.28,0.64"
           inkscape:connector-curvature="0"
           style="vector-effect:non-scaling-stroke;stroke:#838383" />
        <path
           id="path31265"
           d="m 186.67,236.36 1.16,6.15 q 0.19,1 0.92,0.28 l 10.11,-9.92 q 0.93,-0.91 -0.35,-0.67 l -10.37,1.99 q -1.82,0.34 -1.47,2.17"
           inkscape:connector-curvature="0"
           style="vector-effect:non-scaling-stroke;stroke:#6f6f6f" />
        <path
           id="path31267"
           d="m 236.79,296 c -2.76,1.49 -14.71,9.51 -13.47,12.28 a 0.49,0.48 64.4 0 0 0.67,0.24 l 10.76,-5.48"
           inkscape:connector-curvature="0"
           style="vector-effect:non-scaling-stroke;stroke:#6f6f6f" />
        <path
           id="path31269"
           d="m 234.75,303.04 q 0.43,1.66 1.75,2.75"
           inkscape:connector-curvature="0"
           style="vector-effect:non-scaling-stroke;stroke:#ececec" />
        <path
           id="path31271"
           d="m 236.5,305.79 c -8.4,5.34 -7.2,11.54 -7.71,20.21"
           inkscape:connector-curvature="0"
           style="vector-effect:non-scaling-stroke;stroke:#6f6f6f" />
        <path
           id="path31273"
           d="m 147.5,348.04 q 7.56,1.18 14.02,-2.8 a 0.4,0.4 0 0 1 0.59,0.2 c 2.98,8 11.47,9.82 16.93,2.81 q 0.53,-0.69 0.71,0.16 0.88,4.13 4.81,5.28 c 9.54,2.79 14.78,-1.52 21.75,-8.25 9.73,-9.4 15.39,-22.36 15.79,-36.21 0.18,-6.2 -3.79,-9.2 -9.3,-10.95 -25.42,-8.09 -31.59,18.77 -32.18,36.97 -0.06,2.05 -1.11,3.92 -1.71,5.75 a 1.47,1.46 24.4 0 1 -2.14,0.8 c -3.68,-2.19 -4.82,-4.83 -4.8,-9.27 q 0.07,-18.47 4.03,-36.58 0.28,-1.3 -0.9,-0.69 c -6.3,3.24 -9.12,7.38 -10.38,14.64 q -2.37,13.69 -2.91,27.63 a 0.61,0.61 0 0 1 -0.51,0.58 c -7.2,1.15 -13.37,-1.86 -11.94,-10.19 2.03,-11.86 10.15,-20.5 17.92,-28.69 4.86,-5.12 11.73,-6.26 14.64,-13.28 a 0.39,0.39 0 0 0 -0.31,-0.54 c -4.01,-0.47 -19.18,14.5 -22.32,17.84"
           inkscape:connector-curvature="0"
           style="vector-effect:non-scaling-stroke;stroke:#6f6f6f" />
        <path
           id="path31275"
           d="m 159.29,303.25 -2.39,-2.26 a 0.38,0.38 0 0 0 -0.61,0.13 l -2.72,6.39 a 1.22,1.2 46.1 0 0 -0.01,0.91 q 0.21,0.54 0.65,0.83"
           inkscape:connector-curvature="0"
           style="vector-effect:non-scaling-stroke;stroke:#ececec" />
        <path
           id="path31277"
           d="m 154.21,309.25 -9.92,13.5"
           inkscape:connector-curvature="0"
           style="vector-effect:non-scaling-stroke;stroke:#6f6f6f" />
        <path
           id="path31279"
           d="m 170.91,276.01 0.97,-4.36 a 0.35,0.35 0 0 0 -0.33,-0.42 c -1.34,-0.03 -1.5,3.82 -1.37,4.84 a 1.54,1.53 -35.4 0 1 -0.16,0.93 l -0.37,0.72 a 0.53,0.53 0 0 0 0.4,0.78 l 0.38,0.05 a 0.47,0.47 0 0 1 0.37,0.64 l -0.73,1.87 a 0.32,0.32 0 0 0 0.34,0.43 l 0.29,-0.04 a 1.48,1.45 -72.1 0 0 0.88,-0.46 q 2.64,-2.82 3.4,-6.51 0.75,-3.65 -0.57,-0.29 -0.77,1.96 -2.95,2.38 a 0.47,0.47 0 0 1 -0.55,-0.56"
           inkscape:connector-curvature="0"
           style="vector-effect:non-scaling-stroke;stroke:#ececec" />
        <path
           id="path31281"
           d="m 168.4179,290.9952 a 4.46,0.77 116.1 0 0 2.6536,-3.6664 4.46,0.77 116.1 0 0 1.2706,-4.344 4.46,0.77 116.1 0 0 -2.6536,3.6664 4.46,0.77 116.1 0 0 -1.2706,4.344"
           inkscape:connector-curvature="0"
           style="vector-effect:non-scaling-stroke;stroke:#ececec" />
        <path
           id="path31283"
           d="m 158.64,312.18 q -0.99,9.38 -3.52,18.47 a 0.52,0.5 -65.7 0 0 0.2,0.56 l 0.25,0.17 a 0.5,0.5 0 0 0 0.75,-0.22 q 3.83,-9.48 4.06,-19.65 a 0.51,0.51 0 0 0 -0.52,-0.53 q -1.1,0.02 -1.22,1.2"
           inkscape:connector-curvature="0"
           style="vector-effect:non-scaling-stroke;stroke:#ececec" />
        <path
           id="path31285"
           d="m 154.21,309.25 5.08,-6"
           inkscape:connector-curvature="0"
           style="vector-effect:non-scaling-stroke;stroke:#838383" />
        <path
           id="path31287"
           d="m 193.18,343.44 c 14.95,8.01 18.31,-16.56 18.85,-25.44 0.54,-8.78 -9.86,-10.97 -16.38,-11.21 q -2.54,-0.1 -2.98,2.41 -2.79,15.64 -1.3,31.51 0.17,1.85 1.81,2.73"
           inkscape:connector-curvature="0"
           style="vector-effect:non-scaling-stroke;stroke:#6f6f6f" />
        <path
           id="path31289"
           d="m 236.5,305.79 q 1.01,-0.83 2.28,-0.64 a 0.57,0.56 5.7 0 1 0.48,0.58 l -0.33,10.05 q -0.04,1.33 1.01,0.52 c 4.78,-3.69 9.56,-8.74 10.6,-15.15 q 0.36,-2.19 -1.86,-1.97 -7.04,0.69 -13.93,3.86"
           inkscape:connector-curvature="0"
           style="vector-effect:non-scaling-stroke;stroke:#838383" />
        <path
           id="path31291"
           d="m 271.33,330.31 c -0.31,7.25 5.53,10.69 12.17,9.92 a 0.43,0.43 0 0 1 0.45,0.57 l -0.51,1.45 a 0.46,0.45 -75.4 0 0 0.35,0.6 c 12.02,2.1 13.48,-7.21 14.17,-16.37 0.85,-11.22 -6.86,-24.52 -19.73,-22.62 a 2.54,2.53 -81 0 0 -1.92,1.4 c -3.82,7.79 -4.61,16.51 -4.98,25.05"
           inkscape:connector-curvature="0"
           style="vector-effect:non-scaling-stroke;stroke:#838383" />
        <path
           id="path31293"
           d="m 238.28,324.3 -0.37,7.18 q -0.05,0.87 0.65,0.35 l 11.93,-8.92 q 1.14,-0.86 -0.29,-0.9 -5.64,-0.16 -11.07,1.25 a 1.14,1.13 -5.9 0 0 -0.85,1.04"
           inkscape:connector-curvature="0"
           style="vector-effect:non-scaling-stroke;stroke:#838383" />
        <path
           id="path31295"
           d="m 242,341.24 -0.94,1.4 a 0.63,0.62 27.9 0 0 0.29,0.92 q 7.29,2.94 14.67,0.22 a 1.02,1 -5 0 0 0.63,-0.74 c 1.07,-5.33 -0.46,-13.19 -1.72,-18.48 a 0.54,0.54 0 0 0 -0.85,-0.3 l -15.53,11.67 a 0.84,0.83 -23.8 0 0 -0.32,0.81 c 0.48,2.77 1.87,2.33 3.64,3.68 a 0.61,0.61 0 0 1 0.13,0.82"
           inkscape:connector-curvature="0"
           style="vector-effect:non-scaling-stroke;stroke:#838383" />
        <path
           id="path31297"
           d="m 113.12,343.39 q 4.87,3.34 10.88,2.77 2.42,-0.23 3.62,-2.35 c 3.96,-6.98 4.38,-24.16 3.79,-32.5 q -0.62,-8.85 -9.66,-9.99 a 0.65,0.65 0 0 0 -0.68,0.4 q -2.36,5.92 -3.29,12.21 c -0.86,5.9 -5.8,7.53 -6.58,13 q -0.98,6.77 0.06,13.49 0.29,1.89 1.86,2.97"
           inkscape:connector-curvature="0"
           style="vector-effect:non-scaling-stroke;stroke:#838383" />
      </g>
      <path
         id="path31301"
         d="m 0,0 h 128.56 l -2.07,0.52 a 0.91,0.89 -88.1 0 0 -0.65,0.62 q -3.95,13.43 -12.99,24.21 -0.5,0.59 -0.26,-0.15 L 114,20.87 q 0.1,-0.31 -0.15,-0.1 -2.47,2.15 -3.4,4.42 -2.53,6.18 -5.74,10.13 l 1.35,-29.21 q 0.08,-1.76 -1.47,-0.92 c -4.58,2.5 -8.1,5.86 -8.39,11.33 Q 94.6,47 92.46,77.45 c -0.29,4.06 -3.77,6.1 -7.45,6.57 A 0.98,0.98 0 0 1 84.17,83.71 Q 82.28,81.65 81.8,79.18 C 78.53,62.52 79.21,46.21 78.98,29.05 q -0.02,-1.58 -1.32,-0.68 c -3.79,2.61 -8.22,6.4 -8.47,11.25 q -1.22,23.04 1.96,45.88 c 0.52,3.73 2.86,10.31 7.79,7.94 q 1.33,-0.64 7.06,-4.23 1.72,1.96 0.43,5.79 -0.16,0.47 0.21,0.13 c 1.38,-1.24 3.17,0.03 3.73,1.22 1.36,2.88 -3.82,10.21 -3.13,14.71 1.11,7.25 -0.79,17.21 -4.28,24.3 a 0.25,0.24 9.7 0 1 -0.21,0.14 l -0.26,0.01 a 0.28,0.28 0 0 1 -0.29,-0.27 l -0.08,-4.5 q -0.01,-0.46 0.11,-0.91 0.9,-3.4 0.88,-6.13 -0.01,-1.22 -1.03,-1.57 a 0.62,0.62 0 0 0 -0.74,0.27 c -2.26,3.78 -2.34,7.16 -2.74,11.43 -0.24,2.47 0.87,4.19 1.69,6.42 -3.82,2.4 -8.61,5.4 -10.36,9.75 q -0.45,1.13 0.67,0.65 l 9.24,-3.93 -0.18,7.9 q -0.02,1.28 -0.54,0.1 l -0.14,-0.34 q -0.41,-0.92 -0.55,0.08 c -0.32,2.18 0.26,4.42 0.29,6.3 q 0.16,10.06 0.24,20.12 c 0.03,4.14 1.07,11.08 0.04,16.93 a 3.96,3.94 -54.7 0 0 0.44,2.6 q 2.46,4.38 3.01,9.84 0.29,2.92 3.59,4.25 -4.56,2.92 -7.9,7.29 a 1.56,1.51 -26.8 0 0 -0.31,0.89 c -0.39,14.33 -2.11,30.26 0.26,44.35 a 1.25,1.25 0 0 0 1.8,0.9 q 5.42,-2.76 8.62,-7.93 a 1.21,1.21 0 0 0 0.14,-0.96 c -2.3,-8.12 -1.62,-15.52 -1.71,-24.13 q -0.03,-2.31 1.01,-0.24 l 5.89,11.74 a 0.96,0.95 44.7 0 1 0.01,0.82 l -3.61,7.52 a 0.87,0.87 0 0 0 0.67,1.24 c 4.4,0.6 17.48,-9.71 19.03,-13.84 a 0.53,0.53 0 0 0 -0.25,-0.65 l -3.99,-2.12 a 1.49,1.49 0 0 1 -0.5,-2.2 c 5.52,-7.47 11.33,-15.6 18.03,-21.98 q 0.93,-0.89 0.48,0.31 c -5.03,13.38 -6.14,25.08 -5.95,41.29 0.02,2.17 -0.02,4.31 1.71,5.69 6.72,5.32 11.49,-0.21 16.67,-4.24 a 0.4,0.4 0 0 1 0.6,0.16 c 2.55,5.78 12.6,3.73 16.84,1.07 a 1.91,1.86 27.3 0 1 0.92,-0.28 c 6.6,-0.17 12.4,-5.43 16.96,-9.95 0.95,1.42 0.52,2.54 -0.98,3.32 -9.77,5.09 -5.46,13.75 -8.41,21.91 -1.45,4 -4.33,6.03 -6.02,9.62 q -3.13,6.67 -6.02,13.46 c -1.03,2.4 -7.67,22.6 -6.93,24.15 q 0.34,0.71 1.19,1.04 c -4.27,7.4 -10.62,23.91 3.21,25.29 q -0.34,4.08 0.06,8.1 c 0.3,3.12 2.22,5.89 1.23,9.83 a 0.8,0.79 -63.5 0 0 0.27,0.82 q 0.16,0.13 0.38,0.21 H 0 Z m 80.29,306.45 a 0.54,0.53 79.9 0 1 0.72,0.51 q -0.04,23.66 0.02,47.23 0.01,2.05 0.89,5.29 a 0.39,0.39 0 0 0 0.58,0.22 q 4.76,-3.06 8.29,-7.44 a 1.55,1.52 -26.4 0 0 0.35,-1 l -0.2,-51.17 a 0.86,0.86 0 0 1 0.56,-0.82 q 6.78,-2.54 14,-3.35 c 4.66,-0.52 3.2,4.27 3.25,6.8 q 0.01,0.53 0.44,0.21 c 3.13,-2.28 9.92,-8.05 9.96,-12.19 0.05,-4.63 -3.82,-5 -7.62,-4.37 -11.91,1.99 -27.3,8.8 -33.29,20 q -0.57,1.07 0.56,0.64 z m 24.15,47.36 q 10.45,5.75 19.29,-2.08 c 7.36,-6.51 14.58,-13.87 16.18,-22.8 q 1.08,-6.06 2.04,-19.43 c 0.62,-8.59 -1.65,-17.08 -11.44,-18.31 -11.06,-1.4 -22.02,19.56 -25.22,27.87 -2.45,6.38 -8.49,30.55 -0.85,34.75 z"
         inkscape:connector-curvature="0"
         style="fill:#ffffff" />
      <path
         id="path31303"
         d="m 128.56,0 h 98.75 L 239,0.33 q 0.47,0.01 0.09,0.29 c -15.62,11.7 -29.65,26.7 -41.89,41.83 q -4.55,5.63 -10.67,7.9 c -4.13,1.53 -8.08,6.39 -11.32,9.4 -5.19,-4.18 -15.72,-10.87 -22.58,-6.28 a 0.3,0.29 -19.9 0 1 -0.46,-0.21 q -0.58,-5.11 -6.25,-4.12 -20.7,3.62 -35.6,16.66 c -0.38,0.34 -3.88,3.89 -3.15,5.01 a 0.53,0.53 0 0 0 0.71,0.16 l 11.43,-6.91 q 0.77,-0.47 0.76,0.44 l -0.69,48.26 a 0.39,0.39 0 0 0 0.56,0.35 c 4.38,-2.17 9.81,-6.78 9.82,-12.15 q 0.04,-20.15 0.32,-40.31 a 0.72,0.72 0 0 1 0.63,-0.7 l 8.61,-1.1 q 2.49,-0.31 2.57,2.19 c 0.06,1.93 0.38,4.33 -0.17,6.22 -3.67,12.56 -4.25,21.97 -3.76,35.41 0.1,2.56 -0.5,6.25 0.21,9.33 q 0.56,2.48 2.81,3.67 5.74,3.05 12.35,2.11 -0.93,5.08 -1.06,10.17 c -0.14,5.1 -3.16,8.4 -7.71,10.23 a 1.22,1.17 -1.7 0 0 -0.66,0.67 q -0.69,1.85 -0.77,4.9 -0.32,12.31 -0.13,16.29 l -3.22,0.64 q -1.94,0.39 -2.16,-1.58 l -2.65,-24.55 a 0.8,0.8 0 0 0 -1.18,-0.61 c -3.32,1.81 -9.25,6.29 -8.79,10.81 q 0.83,8.26 2.06,17.76 a 1.03,1.03 0 0 1 -0.76,1.13 l -16.6,4.38 a 0.53,0.53 0 0 1 -0.65,-0.65 c 2.26,-8.37 6.88,-21.7 14.08,-26.49 q 5.95,-3.97 10.76,-9.3 2.86,-3.17 -1.41,-3.31 -27.08,-0.85 -52.19,11.98 c -0.82,-2.23 -1.93,-3.95 -1.69,-6.42 0.4,-4.27 0.48,-7.65 2.74,-11.43 a 0.62,0.62 0 0 1 0.74,-0.27 q 1.02,0.35 1.03,1.57 0.02,2.73 -0.88,6.13 -0.12,0.45 -0.11,0.91 l 0.08,4.5 a 0.28,0.28 0 0 0 0.29,0.27 l 0.26,-0.01 a 0.25,0.24 9.7 0 0 0.21,-0.14 c 3.49,-7.09 5.39,-17.05 4.28,-24.3 -0.69,-4.5 4.49,-11.83 3.13,-14.71 -0.56,-1.19 -2.35,-2.46 -3.73,-1.22 Q 86.27,95.47 86.43,95 87.72,91.17 86,89.21 88.42,87.09 91.12,86.1 A 0.65,0.65 0 0 1 92,86.71 v 22.95 q 0,3.86 3.43,2.09 5.86,-3.04 9.19,-8.87 a 0.54,0.54 0 0 0 -0.4,-0.8 l -1.18,-0.14 a 1.02,1.02 0 0 1 -0.89,-0.99 l -0.2,-17.38 a 1.08,1.08 0 0 1 0.34,-0.81 l 9.53,-8.9 q 1.65,-1.54 -0.6,-1.34 -4.45,0.42 -8.5,2.12 a 0.24,0.24 0 0 1 -0.33,-0.23 l 2.32,-39.09 q 3.21,-3.95 5.74,-10.13 0.93,-2.27 3.4,-4.42 0.25,-0.21 0.15,0.1 l -1.41,4.33 q -0.24,0.74 0.26,0.15 9.04,-10.78 12.99,-24.21 a 0.91,0.89 -88.1 0 1 0.65,-0.62 z m -17.39,33.12 -2.73,4.53 q -0.38,0.63 0.29,0.35 3.01,-1.24 3.3,-4.6 0.17,-1.99 -0.86,-0.28 z"
         inkscape:connector-curvature="0"
         style="fill:#d8d8d8" />
      <path
         id="path31305"
         d="m 227.31,0 h 77.75 l -3.49,0.64 q -0.95,0.18 -0.18,0.76 l 0.86,0.66 a 0.81,0.81 0 0 0 1.03,-0.05 l 1.01,-0.94 q 0.68,-0.63 0.7,0.3 0.03,1.39 -1.2,1.38 -0.79,0 -0.34,0.66 c 2.99,4.37 2.03,8.39 0.77,14.13 a 1.83,1.78 42.1 0 0 0.06,0.95 c 1.53,4.48 1.95,8.04 0.72,12.95 -0.89,3.59 -3.85,12.74 -2.15,15.91 a 1.46,1.44 35.7 0 1 0.16,0.93 c -1.34,8.85 -9.15,15.15 -13.75,22.26 q -7.03,10.87 -13.09,22.32 c -2.95,5.58 -7.23,10.78 -10.42,16.57 -0.81,1.46 -1.84,2.52 -2.86,3.83 a 0.61,0.61 0 0 0 0.03,0.79 l 0.24,0.27 a 0.54,0.53 -49.5 0 0 0.84,-0.07 l 5.29,-8.12 a 1.37,1.37 0 0 1 2.01,-0.31 c 4.06,3.31 5.62,0.36 7.92,-3.01 q 7.32,-10.69 14.05,-21.77 0.57,-0.95 2.25,-1.82 a 0.4,0.4 0 0 1 0.57,0.27 c 0.62,2.8 0.21,4.73 -1.65,7.08 q -7.63,9.61 -14.45,19.83 c -1.35,2.02 -3.48,3.36 -4.69,5.81 q -1.61,3.28 -2.19,4.21 c -1.17,1.85 -2.3,7.23 -4.8,6.39 a 0.61,0.61 0 0 1 -0.34,-0.86 l 0.78,-1.48 q 0.3,-0.56 -0.23,-0.2 -3.64,2.5 -2.81,6.75 a 1.16,1.15 57.8 0 1 -0.21,0.94 l -3,4 c -4.9,0.02 -10.51,-0.42 -15.31,0.42 -17.75,3.09 -19.68,24.4 -19.23,38.37 -4.31,2.41 -10.02,14.16 -12.28,18.8 a 0.83,0.83 0 0 0 0.02,0.75 l 0.75,1.38 q 0.53,0.97 -0.51,0.57 c -4.76,-1.84 -6.35,2.75 -9.95,4.52 q -0.69,0.34 -0.4,-0.37 1.21,-2.92 3.67,-4.97 0.54,-0.45 -0.16,-0.52 c -4.59,-0.45 -5.33,8.42 -9.81,8.35 a 0.74,0.72 72.3 0 1 -0.6,-0.32 l -0.75,-1.06 a 0.65,0.64 44.8 0 0 -1.05,0 l -7.86,11.22 a 1.39,1.35 58.2 0 0 -0.22,1 l 0.23,1.4 q -8.33,5.86 -13.47,14.5 c -4.72,7.92 2.51,16.03 -8.45,22.75 q -1.81,1.11 -0.72,-0.71 c 1.34,-2.23 3.4,-4.41 4.42,-6.64 1.62,-3.58 1.88,-7.94 2.4,-10.84 q 1.47,-8.25 0.68,-16.62 c -1.06,-11.12 -13.48,-13.37 -21.61,-8.44 q -0.75,-0.75 -0.21,-1.63 a 0.98,0.96 -40.4 0 0 0.08,-0.87 c -1.43,-3.74 -1.04,-6.99 -2.47,-10.03 a 0.58,0.58 0 0 1 0.18,-0.71 c 1.5,-1.1 0.77,-5.6 0.89,-8.76 0.04,-1.25 -1.92,-3.25 -0.26,-4.04 3.21,5.73 7.09,1.58 9.96,-1.3 a 0.96,0.94 27 0 1 0.85,-0.27 q 10.54,1.79 12.68,1.89 c 7.84,0.38 21.24,-4.41 24.24,-13.27 q 0.28,-0.8 -0.47,-0.39 c -9.49,5.24 -24.16,5.49 -32.32,-1.69 -3.96,-3.48 -2.87,-10.34 -1.93,-15.17 q 2.09,-10.75 11.12,-14.19 c 5.11,-1.94 7.93,-4.38 10.66,-8.86 a 0.78,0.78 0 0 0 -0.62,-1.18 l -1.18,-0.05 a 1.97,1.97 0 0 0 -1.02,0.22 q -11.07,5.84 -19.36,15.22 -0.66,0.74 -0.53,-0.23 l 1.41,-10.5 q 0.2,-1.45 -1.09,-0.75 c -4.33,2.32 -9.62,6.73 -9.86,12.08 q -0.36,8.04 -1.97,17.25 a 0.71,0.71 0 0 1 -0.59,0.59 l -7.48,1.18 q -0.19,-3.98 0.13,-16.29 0.08,-3.05 0.77,-4.9 a 1.22,1.17 -1.7 0 1 0.66,-0.67 c 4.55,-1.83 7.57,-5.13 7.71,-10.23 q 0.13,-5.09 1.06,-10.17 l 2.85,-0.73 q -1.95,5.43 -1.12,11.02 0.07,0.53 -0.11,1.04 l -0.2,0.53 q -0.44,1.19 0.54,0.39 c 3.57,-2.97 6.13,-11.02 8.12,-15.39 a 1.24,1.21 47.4 0 0 0.03,-0.94 q -0.21,-0.57 -0.73,-0.95 c 11.67,-10.97 18.97,-18.99 19.97,-36.29 q 0.64,-10.82 -7.47,-16.71 c 3.24,-3.01 7.19,-7.87 11.32,-9.4 q 6.12,-2.27 10.67,-7.9 C 209.44,27.32 223.47,12.32 239.09,0.62 Q 239.47,0.34 239,0.33 Z m 11.33,59.72 c -5.82,7.92 -7.42,16.93 -8.12,26.82 q -0.07,1.01 0.82,0.53 l 2.51,-1.34 q 0.81,-0.43 0.65,0.47 -1.19,6.97 -1.4,14.8 c -0.22,8.39 8.71,11.33 15.3,10.06 11.64,-2.26 25.86,-19.65 27.35,-30.81 1.12,-8.34 2.32,-19.61 -6.04,-24.97 q -5.45,-3.5 -11.99,-3.48 a 0.76,0.76 0 0 1 -0.76,-0.71 l -0.15,-2.5 a 0.71,0.71 0 0 0 -0.77,-0.66 c -7.92,0.61 -15.82,3.77 -23.08,6.9 a 0.53,0.51 -27.1 0 1 -0.65,-0.2 l -0.65,-1.1 a 0.74,0.74 0 0 0 -0.92,-0.3 c -2.51,1.06 -4.39,3.16 -6.1,4.39 -4.71,3.39 -10.23,6.07 -12.56,11.79 q -0.39,0.96 0.55,0.53 l 8.71,-4.01 a 0.37,0.37 0 0 1 0.53,0.32 q 0.25,4.34 -0.15,7.44 -1.84,14.27 -3.33,35 -0.33,4.53 0.1,7.86 a 0.38,0.38 0 0 0 0.53,0.3 c 4.45,-1.98 8.69,-5.9 8.93,-11.07 q 1.03,-21.88 4.24,-43.61 a 0.99,0.98 -6.7 0 1 0.62,-0.78 l 5.5,-2.11 q 0.9,-0.34 0.33,0.44 z m -27.54,6.37 c -4.27,2.18 -22.56,13.32 -23.01,17.82 q -0.13,1.33 1,0.6 c 2.94,-1.92 24.61,-15.24 22.76,-18.21 a 0.58,0.57 60.5 0 0 -0.75,-0.21 z"
         inkscape:connector-curvature="0"
         style="fill:#ffffff" />
      <path
         id="path31307"
         d="m 305.06,0 h 76 q 1.02,0.05 2.02,0.64 a 0.85,0.84 -74.4 0 1 0.42,0.75 q -0.09,7.51 2.03,14.56 c 2.44,8.11 3.37,12.77 1.42,20.23 a 1.18,1.15 -53.3 0 0 0.12,0.9 q 0.74,1.28 0.39,2.12 -2.27,5.4 -2.11,12.44 a 0.66,0.66 0 0 1 -0.39,0.62 l -2.74,1.21 a 0.81,0.81 0 0 0 -0.45,0.94 c 1.56,5.94 -1.27,10.55 -2.93,16.18 a 1.03,1 33.2 0 0 0.21,0.94 l 2.06,2.35 a 0.85,0.84 -54 0 1 0.14,0.89 c -2.67,6.06 -3.41,12.55 -8.44,17.27 q -1.81,1.7 -3.01,3.88 -2.03,3.71 -2.69,7.92 -7.89,2.19 -16.53,0.97 a 0.98,0.98 0 0 1 -0.81,-1.21 c 2.77,-10.79 11.98,-14.82 17.57,-23.68 1.03,-1.61 0.92,-3.55 0,-5.11 a 1.1,1.07 -9.5 0 0 -0.75,-0.52 q -5.58,-1.04 -11.18,-0.05 c -1.93,0.34 -3.13,1.76 -4.98,2.56 a 0.43,0.42 70.5 0 1 -0.58,-0.28 q -1.21,-4.78 -0.82,-9.76 0.15,-1.97 1.97,-2.75 c 5.76,-2.47 15.56,-6.77 20.88,-4.13 a 0.71,0.7 -53.3 0 0 0.8,-0.12 c 2.7,-2.49 9.78,-8.61 8.17,-10.54 a 1,0.99 -21.1 0 0 -0.83,-0.36 c -14.27,0.78 -24.93,6.74 -35.76,15.91 -3.96,3.36 -5.53,6.15 -6.78,11.55 q -2.24,9.76 -5.38,18.73 a 1.29,1.28 -62.5 0 1 -1.96,0.62 c -3.32,-2.4 -2.38,-10.94 -2.08,-14.35 q 0.15,-1.66 1.48,-2.65 c 4.56,-3.4 10.08,-8.97 10.58,-14.92 0.47,-5.66 -0.18,-11.42 -4.99,-14.99 q -1.55,-1.15 -3.25,-0.22 C 320.46,54.88 320.7,64.22 319.3,75.62 q -0.22,1.74 -1.91,2.24 l -7.72,2.27 a 0.51,0.51 0 0 1 -0.65,-0.51 q 0.53,-15.82 3.68,-31.27 l 4.4,-1.91 a 1.44,1.42 1.7 0 0 0.68,-0.63 q 1.85,-3.39 0.27,-6.88 a 0.3,0.29 77.6 0 0 -0.27,-0.18 l -0.29,-0.01 a 0.26,0.25 -3 0 0 -0.26,0.28 q 0.12,1.47 -0.27,2 -1.69,2.28 -0.82,-0.3 1.74,-5.17 0.81,-10.56 a 0.8,0.8 0 0 0 -0.8,-0.66 l -1.08,0.01 a 1.08,1.07 -15 0 1 -0.93,-0.53 l -0.76,-1.28 q -0.67,-1.13 -0.53,0.18 c 0.19,1.94 -0.44,3.64 -0.33,5.46 q 0.34,6.09 -1.91,11.74 -0.19,0.47 -0.16,0.99 0.05,0.94 -0.21,1.91 a 0.54,0.54 0 0 0 0.43,0.67 l 0.83,0.14 c -6.01,3.25 -8.91,7.55 -10.1,14.58 q -1.88,11.12 -2.34,22.46 a 2.62,2.62 0 0 1 -1.31,2.16 q -1.95,1.12 -1.76,3.36 a 0.49,0.49 0 0 0 0.66,0.42 l 1.45,-0.52 a 0.65,0.64 -10.1 0 1 0.86,0.6 l 0.13,17.24 q 0.03,3.26 2.46,1.09 l 6.3,-5.62 q 1.48,-1.31 1.43,-3.29 l -0.33,-13.02 a 1.2,1.19 81.6 0 1 0.87,-1.18 l 8.13,-2.38 a 0.35,0.34 84.2 0 1 0.44,0.36 c -0.4,4.35 -2.31,19.05 2.94,20.82 6.51,2.21 13.29,-6.38 16.55,-11.09 q 1.13,-1.65 1.08,0.35 c -0.05,1.86 -0.72,10.83 4.35,7.19 a 0.27,0.27 0 0 1 0.4,0.09 c 0.66,1.24 -6.24,8.58 -3.05,11.8 2.27,2.29 14.83,0.39 17.98,-0.25 q -2.5,9.45 -8.88,16.48 c -3.98,4.39 -6.21,10.78 -8.63,16.12 q -2.76,6.12 -5.88,11.12 c -5.96,9.54 -11.72,18.73 -18.59,27.99 q -8.04,10.84 -15.98,21.76 -4.63,6.35 -11.84,9.65 -0.79,0.36 -0.6,-0.49 0.28,-1.27 1.16,-2.3 a 0.51,0.51 0 0 0 0.1,-0.27 l 0.01,-0.29 a 0.27,0.27 0 0 0 -0.34,-0.27 q -3.99,1.17 -8.1,0.69 a 1.07,1.05 25.1 0 0 -0.88,0.31 c -1.21,1.27 -4.56,2.66 -4.95,4.02 q -0.88,3.08 -2.28,5.94 a 1.53,1.47 -1.2 0 1 -0.68,0.68 q -5.12,2.49 -10.76,2.98 a 0.79,0.78 4.7 0 0 -0.69,0.58 l -2.25,8.57 a 0.58,0.58 0 0 0 0.31,0.68 c 1.24,0.59 1.1,1.77 0.31,2.76 q -3.5,4.41 -7.94,7.88 -1.38,-3.22 -1.69,-6.36 c -0.66,-6.54 -3.65,-28.76 -0.01,-32.37 3.39,-3.36 9.67,-8.76 8.26,-10.13 a 0.61,0.6 -41.8 0 0 -0.78,-0.04 c -12.77,9.86 -19.74,18.31 -28.64,29.88 q -2.39,3.11 -2.39,-0.82 L 226,209.8 q 0,-1.4 -1.2,-0.68 -3.81,2.28 -6.68,5.55 c -3.29,3.72 -2.09,7.42 -2.11,11.82 q -0.05,7.33 0.03,14.77 a 1.7,1.66 60.9 0 1 -0.25,0.92 c -5.03,8.26 -16.15,9.61 -24.8,8.63 a 0.71,0.71 0 0 1 -0.61,-0.61 l -0.45,-4.05 a 1.13,1.12 64 0 1 0.31,-0.91 c 6.06,-6.19 14.72,-12.75 18.46,-20.6 q 1.17,-2.47 -1.55,-2.19 -7.87,0.8 -15.9,3.51 -1.53,-6.59 2.49,-11.64 a 0.57,0.56 -44.6 0 0 0.01,-0.7 l -0.25,-0.33 q 3.7,-2.08 7.96,-2.28 a 0.67,0.67 0 0 1 0.66,0.46 c 0.37,1.14 -0.05,7.96 2.21,5.81 4.81,-4.59 11.29,-9.84 7.85,-15.24 q -0.95,-1.48 -2.66,-1.11 c -8.15,1.71 -12.96,5.08 -20.48,10.57 l -0.23,-1.4 a 1.39,1.35 58.2 0 1 0.22,-1 l 7.86,-11.22 a 0.65,0.64 44.8 0 1 1.05,0 l 0.75,1.06 a 0.74,0.72 72.3 0 0 0.6,0.32 c 4.48,0.07 5.22,-8.8 9.81,-8.35 q 0.7,0.07 0.16,0.52 -2.46,2.05 -3.67,4.97 -0.29,0.71 0.4,0.37 c 3.6,-1.77 5.19,-6.36 9.95,-4.52 q 1.04,0.4 0.51,-0.57 l -0.75,-1.38 a 0.83,0.83 0 0 1 -0.02,-0.75 c 2.26,-4.64 7.97,-16.39 12.28,-18.8 q -1.82,15.2 12.67,16.32 a 0.28,0.23 64.4 0 1 0.13,0.06 l 0.19,0.19 a 0.22,0.21 52.4 0 1 -0.04,0.35 l -2.58,1.45 a 0.8,0.8 0 0 0 -0.36,0.96 l 1.1,3.07 a 0.49,0.49 0 0 0 0.59,0.31 q 4.65,-1.22 4.18,-5.71 a 0.5,0.49 86.9 0 1 0.49,-0.55 c 16.27,-0.05 34.53,-8.05 42.14,-23.32 q 1.3,-2.6 -1.05,-4.31 -0.98,-0.71 -2.15,-0.66 c -3.62,0.15 -8.58,6.03 -10.25,8.97 a 0.55,0.54 -68.2 0 0 0.34,0.8 l 1.9,0.45 a 0.99,0.98 89.5 0 1 0.71,0.7 q 0.45,1.78 -1.05,2.53 c -10.38,5.23 -41.12,11.44 -36.7,-10.99 q 6.26,-10.32 14.62,-19.04 3.12,-0.92 5.7,-3.3 2.63,-2.43 5.42,-5.95 a 0.53,0.53 0 0 0 -0.08,-0.74 q -0.6,-0.48 -1.38,-0.38 l 3,-4 a 1.16,1.15 57.8 0 0 0.21,-0.94 q -0.83,-4.25 2.81,-6.75 0.53,-0.36 0.23,0.2 l -0.78,1.48 a 0.61,0.61 0 0 0 0.34,0.86 c 2.5,0.84 3.63,-4.54 4.8,-6.39 q 0.58,-0.93 2.19,-4.21 c 1.21,-2.45 3.34,-3.79 4.69,-5.81 q 6.82,-10.22 14.45,-19.83 c 1.86,-2.35 2.27,-4.28 1.65,-7.08 a 0.4,0.4 0 0 0 -0.57,-0.27 q -1.68,0.87 -2.25,1.82 -6.73,11.08 -14.05,21.77 c -2.3,3.37 -3.86,6.32 -7.92,3.01 a 1.37,1.37 0 0 0 -2.01,0.31 l -5.29,8.12 a 0.54,0.53 -49.5 0 1 -0.84,0.07 l -0.24,-0.27 a 0.61,0.61 0 0 1 -0.03,-0.79 c 1.02,-1.31 2.05,-2.37 2.86,-3.83 3.19,-5.79 7.47,-10.99 10.42,-16.57 q 6.06,-11.45 13.09,-22.32 c 4.6,-7.11 12.41,-13.41 13.75,-22.26 a 1.46,1.44 35.7 0 0 -0.16,-0.93 c -1.7,-3.17 1.26,-12.32 2.15,-15.91 1.23,-4.91 0.81,-8.47 -0.72,-12.95 a 1.83,1.78 42.1 0 1 -0.06,-0.95 c 1.26,-5.74 2.22,-9.76 -0.77,-14.13 q -0.45,-0.66 0.34,-0.66 1.23,0.01 1.2,-1.38 -0.02,-0.93 -0.7,-0.3 l -1.01,0.94 a 0.81,0.81 0 0 1 -1.03,0.05 L 301.39,1.4 q -0.77,-0.58 0.18,-0.76 z m 8.26,17.41 c -0.69,0.62 -0.28,6.99 0.73,7.1 a 0.26,0.26 0 0 0 0.29,-0.28 l -0.71,-6.7 q -0.04,-0.36 -0.31,-0.12 z m 68.28,15.66 q -0.1,1.57 1.04,0.47 2.52,-2.43 1.21,-5.83 a 0.73,0.73 0 0 0 -0.78,-0.46 c -1.94,0.24 -1.36,4.09 -1.47,5.82 z m 0.18,3.98 C 378,35.37 378.02,46.2 378.14,47.8 a 0.42,0.42 0 0 0 0.58,0.35 q 0.33,-0.13 0.41,-0.59 0.83,-4.81 3.13,-9.12 a 1.01,1 26.1 0 0 -0.48,-1.39 z"
         inkscape:connector-curvature="0"
         style="fill:#d8d8d8" />
      <path
         id="path31309"
         d="M 381.06,0 H 446 v 367 l -226.55,0.01 q 2.34,-5.23 2.58,-11.01 c 0.13,-3.16 -1.82,-4.6 -2.03,-7.21 q -0.23,-2.78 0.38,-5.12 c 0.57,-2.19 5.81,-20.51 7.84,-21.7 a 0.33,0.33 0 0 1 0.5,0.28 l 0.07,3.75 q -1.16,16.94 -1.05,20.03 0.27,7.94 8.33,8.67 c 8.43,0.76 15.81,-0.61 21.74,-6.91 q 2.32,-2.46 3.45,-3.45 a 0.3,0.3 0 0 1 0.49,0.17 q 1.46,6.61 8.16,8.12 c 14.96,3.35 24.45,-7.15 32.58,-17.25 q 0.32,-0.4 0.49,0.08 c 0.92,2.58 -5.55,12.87 -6.93,15.96 q -1.05,2.34 1.51,2.46 3.48,0.17 5.55,-2.73 a 0.39,0.39 0 0 1 0.64,0.01 l 1.48,2.26 a 1.17,1.16 -13 0 0 0.86,0.53 c 4.17,0.41 8.4,-4.69 10.56,-7.83 a 1.36,1.36 0 0 0 -0.54,-2 c -4.4,-2.06 -4.12,-11.63 -1.86,-15.02 q 5.88,-8.84 14.42,-19.93 2.12,-2.75 4.43,-4.35 0.42,-0.29 0.39,0.22 -1.4,21.22 -1.54,42.48 c -0.03,5.93 5,7.79 9.36,4.29 1.17,-0.93 9.25,-8.2 8.72,-9.29 a 0.61,0.61 0 0 0 -0.84,-0.26 l -2.62,1.48 a 1.49,1.46 -53.5 0 1 -0.99,0.16 c -2.35,-0.43 -3.53,-1.71 -3.57,-4.23 q -0.31,-21.75 1.79,-43.39 c 0.18,-1.85 1.21,-2.99 2.19,-4.44 q 1.07,-1.58 -0.7,-0.88 -3.2,1.27 -5.82,3.51 -15.06,12.85 -26.01,29.45 -0.84,1.26 -0.69,-0.24 l 2.21,-23 q 0.13,-1.36 -1.07,-0.71 -4.22,2.27 -7.17,6.08 a 0.37,0.37 0 0 1 -0.63,-0.08 q -5.87,-13.25 -19.82,-12.09 c -8.52,0.71 -15.35,11.27 -20.58,17.1 q -1.93,2.16 -4.06,1.66 c -3.97,-0.93 -9.64,-0.56 -12.79,0.56 q -3.21,1.15 -0.65,-1.11 c 3.76,-3.32 16.26,-17.73 11.2,-22.77 a 1.06,1.03 63.2 0 0 -0.88,-0.3 q -11.5,1.6 -21.74,6.98 l -0.14,-0.43 a 1,0.99 53.6 0 1 0.13,-0.89 c 1.99,-2.82 1.42,-5.71 2.38,-8.42 q 3.61,-10.29 8.03,-20.33 a 1.88,1.86 85 0 1 0.62,-0.75 q 5.29,-3.74 6.53,-9.99 c 0.41,-2.07 1.46,-3.16 2.29,-5 q 0.25,-0.56 -0.21,-0.15 l -3.28,2.89 q -1.87,-2.54 -1.88,-4.38 4.44,-3.47 7.94,-7.88 c 0.79,-0.99 0.93,-2.17 -0.31,-2.76 a 0.58,0.58 0 0 1 -0.31,-0.68 l 2.25,-8.57 a 0.79,0.78 4.7 0 1 0.69,-0.58 q 5.64,-0.49 10.76,-2.98 a 1.53,1.47 -1.2 0 0 0.68,-0.68 q 1.4,-2.86 2.28,-5.94 c 0.39,-1.36 3.74,-2.75 4.95,-4.02 a 1.07,1.05 25.1 0 1 0.88,-0.31 q 4.11,0.48 8.1,-0.69 a 0.27,0.27 0 0 1 0.34,0.27 l -0.01,0.29 a 0.51,0.51 0 0 1 -0.1,0.27 q -0.88,1.03 -1.16,2.3 -0.19,0.85 0.6,0.49 7.21,-3.3 11.84,-9.65 7.94,-10.92 15.98,-21.76 c 6.87,-9.26 12.63,-18.45 18.59,-27.99 q 3.12,-5 5.88,-11.12 c 2.42,-5.34 4.65,-11.73 8.63,-16.12 q 6.38,-7.03 8.88,-16.48 c 9,-3.29 15.65,-6.31 21.05,-13.52 q 0.64,-0.86 0.44,-1.8 a 0.39,0.38 69.2 0 0 -0.56,-0.26 q -5.8,3.37 -12.46,5.46 0.66,-4.21 2.69,-7.92 1.2,-2.18 3.01,-3.88 c 5.03,-4.72 5.77,-11.21 8.44,-17.27 a 0.85,0.84 -54 0 0 -0.14,-0.89 l -2.06,-2.35 a 1.03,1 33.2 0 1 -0.21,-0.94 c 1.66,-5.63 4.49,-10.24 2.93,-16.18 a 0.81,0.81 0 0 1 0.45,-0.94 l 2.74,-1.21 a 0.66,0.66 0 0 0 0.39,-0.62 q -0.16,-7.04 2.11,-12.44 0.35,-0.84 -0.39,-2.12 a 1.18,1.15 -53.3 0 1 -0.12,-0.9 c 1.95,-7.46 1.02,-12.12 -1.42,-20.23 Q 383.41,8.9 383.5,1.39 a 0.85,0.84 -74.4 0 0 -0.42,-0.75 q -1,-0.59 -2.02,-0.64 z m -25.52,126.36 c -0.47,1.3 -2.53,3.1 -3.58,4.02 a 0.62,0.62 0 0 0 -0.09,0.82 l 0.17,0.23 a 0.52,0.52 0 0 0 0.85,-0.02 l 3.05,-4.55 a 0.25,0.25 0 0 0 -0.03,-0.32 l -0.21,-0.21 a 0.1,0.1 0 0 0 -0.16,0.03 z m -3.04,118.67 c -11.18,0.37 -25.58,17.87 -26.76,28.3 q -0.13,1.15 0.74,0.39 3.76,-3.27 7.12,-6.96 c 2.34,-2.57 2.86,-5.8 4.35,-8.97 q 1.35,-2.86 4.5,-3.01 6.04,-0.3 11.92,1.04 a 1.4,1.35 -52.1 0 0 0.98,-0.14 q 4.9,-2.67 7.92,-7.35 1.59,-2.45 -1.31,-2.82 -5.01,-0.63 -9.46,-0.48 z m -127.51,114.72 -0.8,6.1 q -0.11,0.82 0.58,0.37 l 1.32,-0.87 a 0.73,0.73 0 0 0 0.33,-0.74 c -0.2,-1.35 0.32,-4.09 -0.4,-5.05 q -0.85,-1.14 -1.03,0.19 z"
         inkscape:connector-curvature="0"
         style="fill:#ffffff" />
      <path
         id="path31311"
         d="m 104.71,35.32 -2.32,39.09 a 0.24,0.24 0 0 0 0.33,0.23 q 4.05,-1.7 8.5,-2.12 2.25,-0.2 0.6,1.34 l -9.53,8.9 a 1.08,1.08 0 0 0 -0.34,0.81 l 0.2,17.38 a 1.02,1.02 0 0 0 0.89,0.99 l 1.18,0.14 a 0.54,0.54 0 0 1 0.4,0.8 q -3.33,5.83 -9.19,8.87 Q 92,113.52 92,109.66 V 86.71 A 0.65,0.65 0 0 0 91.12,86.1 q -2.7,0.99 -5.12,3.11 -5.73,3.59 -7.06,4.23 C 74.01,95.81 71.67,89.23 71.15,85.5 Q 67.97,62.66 69.19,39.62 c 0.25,-4.85 4.68,-8.64 8.47,-11.25 q 1.3,-0.9 1.32,0.68 c 0.23,17.16 -0.45,33.47 2.82,50.13 q 0.48,2.47 2.37,4.53 a 0.98,0.98 0 0 0 0.84,0.31 c 3.68,-0.47 7.16,-2.51 7.45,-6.57 Q 94.6,47 96.2,16.52 c 0.29,-5.47 3.81,-8.83 8.39,-11.33 q 1.55,-0.84 1.47,0.92 z"
         inkscape:connector-curvature="0"
         style="fill:#060606" />
      <path
         id="path31313"
         d="m 314.05,24.51 c -1.01,-0.11 -1.42,-6.48 -0.73,-7.1 q 0.27,-0.24 0.31,0.12 l 0.71,6.7 a 0.26,0.26 0 0 1 -0.29,0.28 z"
         inkscape:connector-curvature="0"
         style="fill:#ffffff" />
      <path
         id="path31315"
         d="m 381.6,33.07 c 0.11,-1.73 -0.47,-5.58 1.47,-5.82 a 0.73,0.73 0 0 1 0.78,0.46 q 1.31,3.4 -1.21,5.83 -1.14,1.1 -1.04,-0.47 z"
         inkscape:connector-curvature="0"
         style="fill:#ffffff" />
      <path
         id="path31317"
         d="m 312.7,48.35 -1.2,0.44 -0.83,-0.14 a 0.54,0.54 0 0 1 -0.43,-0.67 q 0.26,-0.97 0.21,-1.91 -0.03,-0.52 0.16,-0.99 2.25,-5.65 1.91,-11.74 c -0.11,-1.82 0.52,-3.52 0.33,-5.46 q -0.14,-1.31 0.53,-0.18 l 0.76,1.28 a 1.08,1.07 -15 0 0 0.93,0.53 l 1.08,-0.01 a 0.8,0.8 0 0 1 0.8,0.66 q 0.93,5.39 -0.81,10.56 -0.87,2.58 0.82,0.3 0.39,-0.53 0.27,-2 a 0.26,0.25 -3 0 1 0.26,-0.28 l 0.29,0.01 a 0.3,0.29 77.6 0 1 0.27,0.18 q 1.58,3.49 -0.27,6.88 a 1.44,1.42 1.7 0 1 -0.68,0.63 z"
         inkscape:connector-curvature="0"
         style="fill:#ffffff" />
      <path
         id="path31319"
         d="m 111.17,33.12 q 1.03,-1.71 0.86,0.28 -0.29,3.36 -3.3,4.6 -0.67,0.28 -0.29,-0.35 z"
         inkscape:connector-curvature="0"
         style="fill:#ffffff" />
      <path
         id="path31321"
         d="M 378.14,47.8 C 378.02,46.2 378,35.37 381.78,37.05 a 1.01,1 26.1 0 1 0.48,1.39 q -2.3,4.31 -3.13,9.12 -0.08,0.46 -0.41,0.59 a 0.42,0.42 0 0 1 -0.58,-0.35 z"
         inkscape:connector-curvature="0"
         style="fill:#ffffff" />
      <path
         id="path31323"
         d="m 238.31,59.28 -5.5,2.11 a 0.99,0.98 -6.7 0 0 -0.62,0.78 q -3.21,21.73 -4.24,43.61 c -0.24,5.17 -4.48,9.09 -8.93,11.07 a 0.38,0.38 0 0 1 -0.53,-0.3 q -0.43,-3.33 -0.1,-7.86 1.49,-20.73 3.33,-35 0.4,-3.1 0.15,-7.44 a 0.37,0.37 0 0 0 -0.53,-0.32 l -8.71,4.01 q -0.94,0.43 -0.55,-0.53 c 2.33,-5.72 7.85,-8.4 12.56,-11.79 1.71,-1.23 3.59,-3.33 6.1,-4.39 a 0.74,0.74 0 0 1 0.92,0.3 l 0.65,1.1 a 0.53,0.51 -27.1 0 0 0.65,0.2 c 7.26,-3.13 15.16,-6.29 23.08,-6.9 a 0.71,0.71 0 0 1 0.77,0.66 l 0.15,2.5 a 0.76,0.76 0 0 0 0.76,0.71 q 6.54,-0.02 11.99,3.48 c 8.36,5.36 7.16,16.63 6.04,24.97 -1.49,11.16 -15.71,28.55 -27.35,30.81 -6.59,1.27 -15.52,-1.67 -15.3,-10.06 q 0.21,-7.83 1.4,-14.8 0.16,-0.9 -0.65,-0.47 l -2.51,1.34 q -0.89,0.48 -0.82,-0.53 c 0.7,-9.89 2.3,-18.9 8.12,-26.82 q 0.57,-0.78 -0.33,-0.44 z m 5.47,1.59 a 0.3,0.3 0 0 0 -0.38,0.22 l -0.95,4.3 A 0.3,0.3 0 0 0 243,65.6 l 2.3,-3.85 a 0.3,0.3 0 0 0 -0.17,-0.44 z m 21.08,9.82 c -2.27,-4.81 -8.74,-9.21 -14.54,-8.4 a 0.92,0.91 -81.5 0 0 -0.7,0.52 q -6.33,13.74 -6.48,28.95 -0.07,6.51 6.05,8.59 c 15.38,5.21 16.91,-9.53 17.12,-19.9 q 0.14,-6.41 -1.45,-9.76 z"
         inkscape:connector-curvature="0"
         style="fill:#060606" />
      <path
         id="path31325"
         d="m 312.7,48.35 q -3.15,15.45 -3.68,31.27 a 0.51,0.51 0 0 0 0.65,0.51 l 7.72,-2.27 q 1.69,-0.5 1.91,-2.24 c 1.4,-11.4 1.16,-20.74 12.58,-27.08 q 1.7,-0.93 3.25,0.22 c 4.81,3.57 5.46,9.33 4.99,14.99 -0.5,5.95 -6.02,11.52 -10.58,14.92 q -1.33,0.99 -1.48,2.65 c -0.3,3.41 -1.24,11.95 2.08,14.35 a 1.29,1.28 -62.5 0 0 1.96,-0.62 q 3.14,-8.97 5.38,-18.73 c 1.25,-5.4 2.82,-8.19 6.78,-11.55 10.83,-9.17 21.49,-15.13 35.76,-15.91 a 1,0.99 -21.1 0 1 0.83,0.36 c 1.61,1.93 -5.47,8.05 -8.17,10.54 a 0.71,0.7 -53.3 0 1 -0.8,0.12 c -5.32,-2.64 -15.12,1.66 -20.88,4.13 q -1.82,0.78 -1.97,2.75 -0.39,4.98 0.82,9.76 a 0.43,0.42 70.5 0 0 0.58,0.28 c 1.85,-0.8 3.05,-2.22 4.98,-2.56 q 5.6,-0.99 11.18,0.05 a 1.1,1.07 -9.5 0 1 0.75,0.52 c 0.92,1.56 1.03,3.5 0,5.11 -5.59,8.86 -14.8,12.89 -17.57,23.68 a 0.98,0.98 0 0 0 0.81,1.21 q 8.64,1.22 16.53,-0.97 6.66,-2.09 12.46,-5.46 a 0.39,0.38 69.2 0 1 0.56,0.26 q 0.2,0.94 -0.44,1.8 c -5.4,7.21 -12.05,10.23 -21.05,13.52 -3.15,0.64 -15.71,2.54 -17.98,0.25 -3.19,-3.22 3.71,-10.56 3.05,-11.8 a 0.27,0.27 0 0 0 -0.4,-0.09 c -5.07,3.64 -4.4,-5.33 -4.35,-7.19 q 0.05,-2 -1.08,-0.35 c -3.26,4.71 -10.04,13.3 -16.55,11.09 -5.25,-1.77 -3.34,-16.47 -2.94,-20.82 a 0.35,0.34 84.2 0 0 -0.44,-0.36 l -8.13,2.38 a 1.2,1.19 81.6 0 0 -0.87,1.18 l 0.33,13.02 q 0.05,1.98 -1.43,3.29 l -6.3,5.62 q -2.43,2.17 -2.46,-1.09 l -0.13,-17.24 a 0.65,0.64 -10.1 0 0 -0.86,-0.6 l -1.45,0.52 a 0.49,0.49 0 0 1 -0.66,-0.42 q -0.19,-2.24 1.76,-3.36 a 2.62,2.62 0 0 0 1.31,-2.16 q 0.46,-11.34 2.34,-22.46 c 1.19,-7.03 4.09,-11.33 10.1,-14.58 z m 17.2733,18.6573 a 0.42,0.42 0 0 0 -0.4134,-0.4266 l -0.0399,-6e-4 a 0.42,0.42 0 0 0 -0.4266,0.4133 l -0.0867,5.5193 a 0.42,0.42 0 0 0 0.4134,0.4266 l 0.0399,6e-4 a 0.42,0.42 0 0 0 0.4266,-0.4133 z M 352.55,91.75 c 1.74,-1.01 5.08,-4.53 5.42,-6.58 a 0.62,0.61 -82.4 0 0 -0.54,-0.71 l -5.42,-0.58 a 0.5,0.5 0 0 0 -0.55,0.55 l 0.67,7.11 a 0.28,0.28 0 0 0 0.42,0.21 z"
         inkscape:connector-curvature="0"
         style="fill:#060606" />
      <path
         id="path31327"
         d="m 175.21,59.75 q 8.11,5.89 7.47,16.71 c -1,17.3 -8.3,25.32 -19.97,36.29 l -6.53,4.3 -2.85,0.73 q -6.61,0.94 -12.35,-2.11 -2.25,-1.19 -2.81,-3.67 c -0.71,-3.08 -0.11,-6.77 -0.21,-9.33 -0.49,-13.44 0.09,-22.85 3.76,-35.41 0.55,-1.89 0.23,-4.29 0.17,-6.22 q -0.08,-2.5 -2.57,-2.19 l -8.61,1.1 a 0.72,0.72 0 0 0 -0.63,0.7 q -0.28,20.16 -0.32,40.31 c -0.01,5.37 -5.44,9.98 -9.82,12.15 a 0.39,0.39 0 0 1 -0.56,-0.35 l 0.69,-48.26 q 0.01,-0.91 -0.76,-0.44 l -11.43,6.91 a 0.53,0.53 0 0 1 -0.71,-0.16 c -0.73,-1.12 2.77,-4.67 3.15,-5.01 q 14.9,-13.04 35.6,-16.66 5.67,-0.99 6.25,4.12 a 0.3,0.29 -19.9 0 0 0.46,0.21 c 6.86,-4.59 17.39,2.1 22.58,6.28 z m -23.93,46.39 q 3.53,1.87 7.35,1.93 c 6.16,0.7 9.91,-4.38 11.58,-9.82 l 1.58,-6.75 q 1.45,-7.15 0.91,-10.45 C 171.11,71.3 161.5,65.75 152.71,62.23 a 0.43,0.42 16.3 0 0 -0.57,0.31 c -1.75,8.73 -3.87,17.79 -4.15,26.56 -0.13,4.08 -2.02,15.11 3.29,17.04 z"
         inkscape:connector-curvature="0"
         style="fill:#060606" />
      <path
         id="path31329"
         d="m 243.78,60.87 1.35,0.44 a 0.3,0.3 0 0 1 0.17,0.44 L 243,65.6 a 0.3,0.3 0 0 1 -0.55,-0.21 l 0.95,-4.3 a 0.3,0.3 0 0 1 0.38,-0.22 z"
         inkscape:connector-curvature="0"
         style="fill:#ffffff" />
      <path
         id="path31331"
         d="m 171.79,91.5 -0.04,-0.72 a 0.58,0.58 0 0 0 -0.65,-0.54 c -2.23,0.23 -2.4,5.58 -2,7.25 a 0.85,0.84 1.9 0 0 0.59,0.62 l 0.52,0.14 c -1.67,5.44 -5.42,10.52 -11.58,9.82 q 0.44,-9.02 4.34,-17.01 0.53,-1.09 -0.57,-0.57 -1.06,0.5 -1.64,1.51 -0.79,1.37 -0.59,-0.01 l 0.55,-3.93 a 0.39,0.37 29.3 0 0 -0.1,-0.32 l -0.2,-0.21 a 0.32,0.32 0 0 0 -0.49,0.04 q -2.12,3.03 -3.79,6.35 -2.96,5.91 -4.86,12.22 c -5.31,-1.93 -3.42,-12.96 -3.29,-17.04 0.28,-8.77 2.4,-17.83 4.15,-26.56 a 0.43,0.42 16.3 0 1 0.57,-0.31 c 8.79,3.52 18.4,9.07 19.99,18.82 q 0.54,3.3 -0.91,10.45 z m -5.05,-5.89 q 0.52,-1.49 -1.02,-1.15 l -1.86,0.41 a 0.69,0.68 -14.1 0 0 -0.51,0.85 c 0.48,1.73 2.68,1.92 3.39,-0.11 z"
         inkscape:connector-curvature="0"
         style="fill:#d8d8d8" />
      <path
         id="path31333"
         d="m 250.32,62.29 c 5.8,-0.81 12.27,3.59 14.54,8.4 q 1.59,3.35 1.45,9.76 c -0.21,10.37 -1.74,25.11 -17.12,19.9 q -6.12,-2.08 -6.05,-8.59 0.15,-15.21 6.48,-28.95 a 0.92,0.91 -81.5 0 1 0.7,-0.52 z"
         inkscape:connector-curvature="0"
         style="fill:#ffffff" />
      <path
         id="path31335"
         d="m 188.09,83.91 c 0.45,-4.5 18.74,-15.64 23.01,-17.82 a 0.58,0.57 60.5 0 1 0.75,0.21 c 1.85,2.97 -19.82,16.29 -22.76,18.21 q -1.13,0.73 -1,-0.6 z"
         inkscape:connector-curvature="0"
         style="fill:#060606" />
      <rect
         id="rect31337"
         rx="0.41999999"
         height="6.3600001"
         width="0.88"
         transform="rotate(0.9,-4276.2232,21010.434)"
         y="-3.1800001"
         x="-0.44"
         style="fill:#d8d8d8" />
      <path
         id="path31339"
         d="m 357.97,85.17 c -0.34,2.05 -3.68,5.57 -5.42,6.58 a 0.28,0.28 0 0 1 -0.42,-0.21 l -0.67,-7.11 a 0.5,0.5 0 0 1 0.55,-0.55 l 5.42,0.58 a 0.62,0.61 -82.4 0 1 0.54,0.71 z"
         inkscape:connector-curvature="0"
         style="fill:#d8d8d8" />
      <path
         id="path31341"
         d="m 166.74,85.61 c -0.71,2.03 -2.91,1.84 -3.39,0.11 a 0.69,0.68 -14.1 0 1 0.51,-0.85 l 1.86,-0.41 q 1.54,-0.34 1.02,1.15 z"
         inkscape:connector-curvature="0"
         style="fill:#ffffff" />
      <path
         id="path31343"
         d="m 158.63,108.07 q -3.82,-0.06 -7.35,-1.93 1.9,-6.31 4.86,-12.22 1.67,-3.32 3.79,-6.35 a 0.32,0.32 0 0 1 0.49,-0.04 l 0.2,0.21 a 0.39,0.37 29.3 0 1 0.1,0.32 l -0.55,3.93 q -0.2,1.38 0.59,0.01 0.58,-1.01 1.64,-1.51 1.1,-0.52 0.57,0.57 -3.9,7.99 -4.34,17.01 z"
         inkscape:connector-curvature="0"
         style="fill:#ffffff" />
      <path
         id="path31345"
         d="m 171.79,91.5 -1.58,6.75 -0.52,-0.14 a 0.85,0.84 1.9 0 1 -0.59,-0.62 c -0.4,-1.67 -0.23,-7.02 2,-7.25 a 0.58,0.58 0 0 1 0.65,0.54 z"
         inkscape:connector-curvature="0"
         style="fill:#ffffff" />
      <path
         id="path31347"
         d="m 162.71,112.75 q 0.52,0.38 0.73,0.95 a 1.24,1.21 47.4 0 1 -0.03,0.94 c -1.99,4.37 -4.55,12.42 -8.12,15.39 q -0.98,0.8 -0.54,-0.39 l 0.2,-0.53 q 0.18,-0.51 0.11,-1.04 -0.83,-5.59 1.12,-11.02 z"
         inkscape:connector-curvature="0"
         style="fill:#d8d8d8" />
      <path
         id="path31349"
         d="m 150.5,179.46 q -1.11,-7.33 -0.07,-14.74 0.1,-0.68 -0.36,-0.17 -4.28,4.79 -10.81,4.45 a 0.67,0.67 0 0 0 -0.7,0.72 l 0.8,10.47 a 1.41,1.39 62.3 0 1 -0.31,1.01 q -3.41,4.37 -7.85,7.62 -1.96,1.44 -2.13,-0.98 l -1.16,-16.42 a 0.39,0.39 0 0 0 -0.48,-0.36 l -19.72,4.96 a 1.03,1.02 -1.5 0 0 -0.75,0.78 q -1.44,6.76 -0.84,13.72 0.14,1.54 1.24,0.45 3.21,-3.15 7.11,-5.4 a 0.39,0.39 0 0 1 0.56,0.18 c 0.79,1.78 -13.11,15.36 -16.25,15.45 q -2.74,0.08 -2.8,-2.65 c -0.51,-21.86 8.69,-44.94 24.71,-59.99 q 0.6,-0.56 -0.22,-0.55 -12.46,0.28 -24.6,2.94 a 0.75,0.75 0 0 0 -0.59,0.73 q -0.05,17.78 -0.24,35.6 -0.06,6.46 -1.49,9.26 -2.32,4.55 -7.73,6.39 A 0.62,0.62 0 0 1 85,192.34 q 0,-20.07 0,-40.12 0,-5.04 4.67,-8.71 0.39,-0.31 -0.1,-0.22 -5.29,0.94 -9.73,3.43 l -9.24,3.93 q -1.12,0.48 -0.67,-0.65 c 1.75,-4.35 6.54,-7.35 10.36,-9.75 q 25.11,-12.83 52.19,-11.98 4.27,0.14 1.41,3.31 -4.81,5.33 -10.76,9.3 c -7.2,4.79 -11.82,18.12 -14.08,26.49 a 0.53,0.53 0 0 0 0.65,0.65 l 16.6,-4.38 a 1.03,1.03 0 0 0 0.76,-1.13 q -1.23,-9.5 -2.06,-17.76 c -0.46,-4.52 5.47,-9 8.79,-10.81 a 0.8,0.8 0 0 1 1.18,0.61 l 2.65,24.55 q 0.22,1.97 2.16,1.58 l 3.22,-0.64 7.48,-1.18 a 0.71,0.71 0 0 0 0.59,-0.59 q 1.61,-9.21 1.97,-17.25 c 0.24,-5.35 5.53,-9.76 9.86,-12.08 q 1.29,-0.7 1.09,0.75 l -1.41,10.5 q -0.13,0.97 0.53,0.23 8.29,-9.38 19.36,-15.22 a 1.97,1.97 0 0 1 1.02,-0.22 l 1.18,0.05 a 0.78,0.78 0 0 1 0.62,1.18 c -2.73,4.48 -5.55,6.92 -10.66,8.86 q -9.03,3.44 -11.12,14.19 c -0.94,4.83 -2.03,11.69 1.93,15.17 8.16,7.18 22.83,6.93 32.32,1.69 q 0.75,-0.41 0.47,0.39 c -3,8.86 -16.4,13.65 -24.24,13.27 q -2.14,-0.1 -12.68,-1.89 a 0.96,0.94 27 0 0 -0.85,0.27 c -2.87,2.88 -6.75,7.03 -9.96,1.3 z"
         inkscape:connector-curvature="0"
         style="fill:#060606" />
      <path
         id="path31351"
         d="m 351.96,130.38 c 1.05,-0.92 3.11,-2.72 3.58,-4.02 a 0.1,0.1 0 0 1 0.16,-0.03 l 0.21,0.21 a 0.25,0.25 0 0 1 0.03,0.32 l -3.05,4.55 a 0.52,0.52 0 0 1 -0.85,0.02 l -0.17,-0.23 a 0.62,0.62 0 0 1 0.09,-0.82 z"
         inkscape:connector-curvature="0"
         style="fill:#d8d8d8" />
      <path
         id="path31353"
         d="m 262.5,131.96 q 0.78,-0.1 1.38,0.38 a 0.53,0.53 0 0 1 0.08,0.74 q -2.79,3.52 -5.42,5.95 -2.58,2.38 -5.7,3.3 l -11.77,-0.27 a 1.8,1.79 -84.1 0 0 -1.8,1.47 q -1.61,8.67 -1.05,17.84 c -4.42,22.43 26.32,16.22 36.7,10.99 q 1.5,-0.75 1.05,-2.53 a 0.99,0.98 89.5 0 0 -0.71,-0.7 l -1.9,-0.45 a 0.55,0.54 -68.2 0 1 -0.34,-0.8 c 1.67,-2.94 6.63,-8.82 10.25,-8.97 q 1.17,-0.05 2.15,0.66 2.35,1.71 1.05,4.31 c -7.61,15.27 -25.87,23.27 -42.14,23.32 a 0.5,0.49 86.9 0 0 -0.49,0.55 q 0.47,4.49 -4.18,5.71 a 0.49,0.49 0 0 1 -0.59,-0.31 l -1.1,-3.07 a 0.8,0.8 0 0 1 0.36,-0.96 l 2.58,-1.45 a 0.22,0.21 52.4 0 0 0.04,-0.35 l -0.19,-0.19 a 0.28,0.23 64.4 0 0 -0.13,-0.06 q -14.49,-1.12 -12.67,-16.32 c -0.45,-13.97 1.48,-35.28 19.23,-38.37 4.8,-0.84 10.41,-0.4 15.31,-0.42 z"
         inkscape:connector-curvature="0"
         style="fill:#060606" />
      <path
         id="path31355"
         d="m 150.5,179.46 c -1.66,0.79 0.3,2.79 0.26,4.04 -0.12,3.16 0.61,7.66 -0.89,8.76 a 0.58,0.58 0 0 0 -0.18,0.71 c 1.43,3.04 1.04,6.29 2.47,10.03 a 0.98,0.96 -40.4 0 1 -0.08,0.87 q -0.54,0.88 0.21,1.63 l -6.75,6.25 q -1.9,-1.52 -0.57,-3.58 a 1.28,1.27 59 0 0 0.2,-0.81 l -0.22,-2.32 q -0.12,-1.38 0.77,-0.31 l 1.17,1.4 a 0.75,0.75 0 0 0 0.82,0.23 c 1.77,-0.6 1.41,-3.46 1.09,-4.87 a 0.48,0.47 -13.8 0 0 -0.58,-0.35 q -1.39,0.39 -1.38,-0.94 0.08,-8.22 -0.04,-16.45 -0.06,-3.84 -2.19,-5.51 -1.59,-1.25 -1.58,0.77 0.05,7.8 -0.49,15.53 c -0.26,3.62 1.13,6.26 0.62,10.11 q -0.62,4.61 0.4,9.18 -4.42,6.8 -5.77,15.17 l -0.03,-0.32 a 0.42,0.41 -88.3 0 0 -0.35,-0.38 q -2.59,-0.41 -4.26,1.47 a 0.76,0.76 0 0 1 -0.79,0.23 q -2.16,-0.65 -4.07,0.75 c 0.91,-9.02 2.8,-20.14 8.23,-27.65 0.61,-0.85 0.12,-1.49 -0.95,-1.35 a 4.4,4.36 22.3 0 0 -2.15,0.89 q -15.35,11.91 -27.13,27.36 -1.85,-3.04 -1.65,-6.76 0.02,-0.49 -0.24,-0.07 -1.21,1.97 -1.73,4.16 c -0.38,1.65 0.95,3.58 -1.71,4.42 l -7.54,-16.92 q -1.06,-2.38 -3.03,-0.67 l -1.91,1.67 a 0.57,0.56 59.1 0 1 -0.9,-0.23 l -0.34,-0.91 a 0.71,0.69 -8.7 0 0 -0.63,-0.45 q -0.3,-0.01 -0.57,0.26 -3.3,-1.33 -3.59,-4.25 -0.55,-5.46 -3.01,-9.84 A 3.96,3.94 -54.7 0 1 79,197.81 c 1.03,-5.85 -0.01,-12.79 -0.04,-16.93 q -0.08,-10.06 -0.24,-20.12 c -0.03,-1.88 -0.61,-4.12 -0.29,-6.3 q 0.14,-1 0.55,-0.08 l 0.14,0.34 q 0.52,1.18 0.54,-0.1 l 0.18,-7.9 q 4.44,-2.49 9.73,-3.43 0.49,-0.09 0.1,0.22 -4.67,3.67 -4.67,8.71 0,20.05 0,40.12 a 0.62,0.62 0 0 0 0.82,0.59 q 5.41,-1.84 7.73,-6.39 1.43,-2.8 1.49,-9.26 0.19,-17.82 0.24,-35.6 a 0.75,0.75 0 0 1 0.59,-0.73 q 12.14,-2.66 24.6,-2.94 0.82,-0.01 0.22,0.55 c -16.02,15.05 -25.22,38.13 -24.71,59.99 q 0.06,2.73 2.8,2.65 c 3.14,-0.09 17.04,-13.67 16.25,-15.45 a 0.39,0.39 0 0 0 -0.56,-0.18 q -3.9,2.25 -7.11,5.4 -1.1,1.09 -1.24,-0.45 -0.6,-6.96 0.84,-13.72 a 1.03,1.02 -1.5 0 1 0.75,-0.78 l 19.72,-4.96 a 0.39,0.39 0 0 1 0.48,0.36 l 1.16,16.42 q 0.17,2.42 2.13,0.98 4.44,-3.25 7.85,-7.62 a 1.41,1.39 62.3 0 0 0.31,-1.01 l -0.8,-10.47 a 0.67,0.67 0 0 1 0.7,-0.72 q 6.53,0.34 10.81,-4.45 0.46,-0.51 0.36,0.17 -1.04,7.41 0.07,14.74 z m -61.06,32.6 q 0.12,0.19 0.38,0.21 a 0.57,0.57 0 0 0 0.55,-0.81 c -2.29,-5 -1.08,-12.35 -1.58,-17.49 a 0.42,0.42 0 0 0 -0.6,-0.34 c -1.86,0.86 -0.08,15.81 0.31,17.69 a 0.38,0.33 17.7 0 0 0.13,0.22 q 0.1,0.08 0.21,0.15 0.55,0.3 0.6,0.37 z"
         inkscape:connector-curvature="0"
         style="fill:#d8d8d8" />
      <path
         id="path31357"
         d="m 252.84,142.33 q -8.36,8.72 -14.62,19.04 -0.56,-9.17 1.05,-17.84 a 1.8,1.79 -84.1 0 1 1.8,-1.47 z"
         inkscape:connector-curvature="0"
         style="fill:#ffffff" />
      <path
         id="path31359"
         d="m 145.54,211.75 -1.98,2.08 q -1.02,-4.57 -0.4,-9.18 c 0.51,-3.85 -0.88,-6.49 -0.62,-10.11 q 0.54,-7.73 0.49,-15.53 -0.01,-2.02 1.58,-0.77 2.13,1.67 2.19,5.51 0.12,8.23 0.04,16.45 -0.01,1.33 1.38,0.94 a 0.48,0.47 -13.8 0 1 0.58,0.35 c 0.32,1.41 0.68,4.27 -1.09,4.87 a 0.75,0.75 0 0 1 -0.82,-0.23 l -1.17,-1.4 q -0.89,-1.07 -0.77,0.31 l 0.22,2.32 a 1.28,1.27 59 0 1 -0.2,0.81 q -1.33,2.06 0.57,3.58 z"
         inkscape:connector-curvature="0"
         style="fill:#ffffff" />
      <path
         id="path31361"
         d="m 88.84,211.69 q -0.11,-0.07 -0.21,-0.15 a 0.38,0.33 17.7 0 1 -0.13,-0.22 c -0.39,-1.88 -2.17,-16.83 -0.31,-17.69 a 0.42,0.42 0 0 1 0.6,0.34 c 0.5,5.14 -0.71,12.49 1.58,17.49 a 0.57,0.57 0 0 1 -0.55,0.81 q -0.26,-0.02 -0.38,-0.21 -0.05,-0.07 -0.6,-0.37 z"
         inkscape:connector-curvature="0"
         style="fill:#ffffff" />
      <path
         id="path31363"
         d="m 251.26,248.55 q 0.01,1.84 1.88,4.38 -3.48,5.82 -9.64,9.47 a 0.46,0.45 61.6 0 1 -0.64,-0.2 q -2.41,-4.91 -3.2,-11.14 -1.73,-13.72 -1.68,-27.65 0,-0.69 -0.44,-0.15 c -6.37,7.81 -16.48,13.43 -9.69,25.38 a 1.17,1.16 -36.7 0 1 -0.21,1.42 l -7.66,7.29 q -2.43,2.32 -3.08,-0.98 l -1.15,-5.96 a 0.16,0.16 0 0 0 -0.26,-0.1 c -10.46,7.74 -24.38,13.14 -37.41,9.34 a 0.64,0.63 9.1 0 1 -0.45,-0.62 q 0.13,-6.92 -1.84,-13.59 -0.17,-0.61 -0.61,-0.15 l -3.72,3.96 c -4.56,4.52 -10.36,9.78 -16.96,9.95 a 1.91,1.86 27.3 0 0 -0.92,0.28 c -4.24,2.66 -14.29,4.71 -16.84,-1.07 a 0.4,0.4 0 0 0 -0.6,-0.16 c -5.18,4.03 -9.95,9.56 -16.67,4.24 -1.73,-1.38 -1.69,-3.52 -1.71,-5.69 -0.19,-16.21 0.92,-27.91 5.95,-41.29 q 0.45,-1.2 -0.48,-0.31 c -6.7,6.38 -12.51,14.51 -18.03,21.98 a 1.49,1.49 0 0 0 0.5,2.2 l 3.99,2.12 a 0.53,0.53 0 0 1 0.25,0.65 c -1.55,4.13 -14.63,14.44 -19.03,13.84 a 0.87,0.87 0 0 1 -0.67,-1.24 l 3.61,-7.52 a 0.96,0.95 44.7 0 0 -0.01,-0.82 l -5.89,-11.74 q -1.04,-2.07 -1.01,0.24 c 0.09,8.61 -0.59,16.01 1.71,24.13 A 1.21,1.21 0 0 1 88.51,260 q -3.2,5.17 -8.62,7.93 a 1.25,1.25 0 0 1 -1.8,-0.9 c -2.37,-14.09 -0.65,-30.02 -0.26,-44.35 a 1.56,1.51 -26.8 0 1 0.31,-0.89 q 3.34,-4.37 7.9,-7.29 0.27,-0.27 0.57,-0.26 a 0.71,0.69 -8.7 0 1 0.63,0.45 l 0.34,0.91 a 0.57,0.56 59.1 0 0 0.9,0.23 l 1.91,-1.67 q 1.97,-1.71 3.03,0.67 l 7.54,16.92 1.41,2.76 a 0.36,0.36 0 0 0 0.61,0.05 l 3.31,-4.56 q 11.78,-15.45 27.13,-27.36 a 4.4,4.36 22.3 0 1 2.15,-0.89 c 1.07,-0.14 1.56,0.5 0.95,1.35 -5.43,7.51 -7.32,18.63 -8.23,27.65 q -0.44,8.95 -0.32,18.04 c 0.06,4.18 2.59,5.95 6.51,5.69 a 0.84,0.83 -79.3 0 0 0.71,-0.49 q 1.55,-3.35 1.59,-6.49 0.16,-10.91 1.01,-18.5 1.35,-8.37 5.77,-15.17 l 1.98,-2.08 6.75,-6.25 c 8.13,-4.93 20.55,-2.68 21.61,8.44 q 0.79,8.37 -0.68,16.62 c -0.52,2.9 -0.78,7.26 -2.4,10.84 -1.02,2.23 -3.08,4.41 -4.42,6.64 q -1.09,1.82 0.72,0.71 c 10.96,-6.72 3.73,-14.83 8.45,-22.75 q 5.14,-8.64 13.47,-14.5 c 7.52,-5.49 12.33,-8.86 20.48,-10.57 q 1.71,-0.37 2.66,1.11 c 3.44,5.4 -3.04,10.65 -7.85,15.24 -2.26,2.15 -1.84,-4.67 -2.21,-5.81 a 0.67,0.67 0 0 0 -0.66,-0.46 q -4.26,0.2 -7.96,2.28 c -7.2,2.17 -6.93,8.93 -6.79,14.49 q 0.01,0.49 0.39,0.18 1.86,-1.53 4.15,-2 8.03,-2.71 15.9,-3.51 2.72,-0.28 1.55,2.19 c -3.74,7.85 -12.4,14.41 -18.46,20.6 a 1.13,1.12 64 0 0 -0.31,0.91 l 0.45,4.05 a 0.71,0.71 0 0 0 0.61,0.61 c 8.65,0.98 19.77,-0.37 24.8,-8.63 a 1.7,1.66 60.9 0 0 0.25,-0.92 q -0.08,-7.44 -0.03,-14.77 c 0.02,-4.4 -1.18,-8.1 2.11,-11.82 q 2.87,-3.27 6.68,-5.55 1.2,-0.72 1.2,0.68 l 0.01,18.91 q 0,3.93 2.39,0.82 c 8.9,-11.57 15.87,-20.02 28.64,-29.88 a 0.61,0.6 -41.8 0 1 0.78,0.04 c 1.41,1.37 -4.87,6.77 -8.26,10.13 -3.64,3.61 -0.65,25.83 0.01,32.37 q 0.31,3.14 1.69,6.36 z M 148.52,235.04 c -2.23,6.92 4.62,13.26 10.71,13.93 q 2.2,0.25 2.62,-1.93 c 1.88,-9.73 7.41,-35.3 -10.21,-34.02 q -2.13,0.16 -2.62,2.23 c -0.9,3.74 -3.83,17.73 -0.78,19.15 a 0.53,0.53 0 0 1 0.28,0.64 z m 38.15,1.32 1.16,6.15 q 0.19,1 0.92,0.28 l 10.11,-9.92 q 0.93,-0.91 -0.35,-0.67 l -10.37,1.99 q -1.82,0.34 -1.47,2.17 z"
         inkscape:connector-curvature="0"
         style="fill:#060606" />
      <path
         id="path31365"
         d="m 148.24,234.4 c -3.05,-1.42 -0.12,-15.41 0.78,-19.15 q 0.49,-2.07 2.62,-2.23 c 17.62,-1.28 12.09,24.29 10.21,34.02 q -0.42,2.18 -2.62,1.93 c -6.09,-0.67 -12.94,-7.01 -10.71,-13.93 a 0.53,0.53 0 0 0 -0.28,-0.64 z"
         inkscape:connector-curvature="0"
         style="fill:#ffffff" />
      <path
         id="path31367"
         d="m 193.5,213.29 0.25,0.33 a 0.57,0.56 -44.6 0 1 -0.01,0.7 q -4.02,5.05 -2.49,11.64 -2.29,0.47 -4.15,2 -0.38,0.31 -0.39,-0.18 c -0.14,-5.56 -0.41,-12.32 6.79,-14.49 z"
         inkscape:connector-curvature="0"
         style="fill:#ffffff" />
      <path
         id="path31369"
         d="m 106.29,230 -3.31,4.56 a 0.36,0.36 0 0 1 -0.61,-0.05 l -1.41,-2.76 c 2.66,-0.84 1.33,-2.77 1.71,-4.42 q 0.52,-2.19 1.73,-4.16 0.26,-0.42 0.24,0.07 -0.2,3.72 1.65,6.76 z"
         inkscape:connector-curvature="0"
         style="fill:#ffffff" />
      <path
         id="path31371"
         d="m 253.14,252.93 3.28,-2.89 q 0.46,-0.41 0.21,0.15 c -0.83,1.84 -1.88,2.93 -2.29,5 q -1.24,6.25 -6.53,9.99 a 1.88,1.86 85 0 0 -0.62,0.75 q -4.42,10.04 -8.03,20.33 c -0.96,2.71 -0.39,5.6 -2.38,8.42 a 1,0.99 53.6 0 0 -0.13,0.89 l 0.14,0.43 c -2.76,1.49 -14.71,9.51 -13.47,12.28 a 0.49,0.48 64.4 0 0 0.67,0.24 l 10.76,-5.48 q 0.43,1.66 1.75,2.75 c -8.4,5.34 -7.2,11.54 -7.71,20.21 l -0.07,-3.75 a 0.33,0.33 0 0 0 -0.5,-0.28 c -2.03,1.19 -7.27,19.51 -7.84,21.7 q -0.61,2.34 -0.38,5.12 c 0.21,2.61 2.16,4.05 2.03,7.21 q -0.24,5.78 -2.58,11.01 L 149.44,367 q -0.22,-0.08 -0.38,-0.21 a 0.8,0.79 -63.5 0 1 -0.27,-0.82 c 0.99,-3.94 -0.93,-6.71 -1.23,-9.83 q -0.4,-4.02 -0.06,-8.1 7.56,1.18 14.02,-2.8 a 0.4,0.4 0 0 1 0.59,0.2 c 2.98,8 11.47,9.82 16.93,2.81 q 0.53,-0.69 0.71,0.16 0.88,4.13 4.81,5.28 c 9.54,2.79 14.78,-1.52 21.75,-8.25 9.73,-9.4 15.39,-22.36 15.79,-36.21 0.18,-6.2 -3.79,-9.2 -9.3,-10.95 -25.42,-8.09 -31.59,18.77 -32.18,36.97 -0.06,2.05 -1.11,3.92 -1.71,5.75 a 1.47,1.46 24.4 0 1 -2.14,0.8 c -3.68,-2.19 -4.82,-4.83 -4.8,-9.27 q 0.07,-18.47 4.03,-36.58 0.28,-1.3 -0.9,-0.69 c -6.3,3.24 -9.12,7.38 -10.38,14.64 q -2.37,13.69 -2.91,27.63 a 0.61,0.61 0 0 1 -0.51,0.58 c -7.2,1.15 -13.37,-1.86 -11.94,-10.19 2.03,-11.86 10.15,-20.5 17.92,-28.69 4.86,-5.12 11.73,-6.26 14.64,-13.28 a 0.39,0.39 0 0 0 -0.31,-0.54 c -4.01,-0.47 -19.18,14.5 -22.32,17.84 l -2.39,-2.26 a 0.38,0.38 0 0 0 -0.61,0.13 l -2.72,6.39 a 1.22,1.2 46.1 0 0 -0.01,0.91 q 0.21,0.54 0.65,0.83 l -9.92,13.5 q -0.85,-0.33 -1.19,-1.04 c -0.74,-1.55 5.9,-21.75 6.93,-24.15 q 2.89,-6.79 6.02,-13.46 c 1.69,-3.59 4.57,-5.62 6.02,-9.62 2.95,-8.16 -1.36,-16.82 8.41,-21.91 1.5,-0.78 1.93,-1.9 0.98,-3.32 l 3.72,-3.96 q 0.44,-0.46 0.61,0.15 1.97,6.67 1.84,13.59 a 0.64,0.63 9.1 0 0 0.45,0.62 c 13.03,3.8 26.95,-1.6 37.41,-9.34 a 0.16,0.16 0 0 1 0.26,0.1 l 1.15,5.96 q 0.65,3.3 3.08,0.98 l 7.66,-7.29 a 1.17,1.16 -36.7 0 0 0.21,-1.42 c -6.79,-11.95 3.32,-17.57 9.69,-25.38 q 0.44,-0.54 0.44,0.15 -0.05,13.93 1.68,27.65 0.79,6.23 3.2,11.14 a 0.46,0.45 61.6 0 0 0.64,0.2 q 6.16,-3.65 9.64,-9.47 z m -82.23,23.08 0.97,-4.36 a 0.35,0.35 0 0 0 -0.33,-0.42 c -1.34,-0.03 -1.5,3.82 -1.37,4.84 a 1.54,1.53 -35.4 0 1 -0.16,0.93 l -0.37,0.72 a 0.53,0.53 0 0 0 0.4,0.78 l 0.38,0.05 a 0.47,0.47 0 0 1 0.37,0.64 l -0.73,1.87 a 0.32,0.32 0 0 0 0.34,0.43 l 0.29,-0.04 a 1.48,1.45 -72.1 0 0 0.88,-0.46 q 2.64,-2.82 3.4,-6.51 0.75,-3.65 -0.57,-0.29 -0.77,1.96 -2.95,2.38 a 0.47,0.47 0 0 1 -0.55,-0.56 z m -2.4921,14.9852 a 4.46,0.77 116.1 0 0 2.6536,-3.6664 4.46,0.77 116.1 0 0 1.2706,-4.344 4.46,0.77 116.1 0 0 -2.6536,3.6664 4.46,0.77 116.1 0 0 -1.2706,4.344 z M 158.64,312.18 q -0.99,9.38 -3.52,18.47 a 0.52,0.5 -65.7 0 0 0.2,0.56 l 0.25,0.17 a 0.5,0.5 0 0 0 0.75,-0.22 q 3.83,-9.48 4.06,-19.65 a 0.51,0.51 0 0 0 -0.52,-0.53 q -1.1,0.02 -1.22,1.2 z"
         inkscape:connector-curvature="0"
         style="fill:#d8d8d8" />
      <path
         id="path31373"
         d="m 137.79,229 q -0.85,7.59 -1.01,18.5 -0.04,3.14 -1.59,6.49 a 0.84,0.83 -79.3 0 1 -0.71,0.49 c -3.92,0.26 -6.45,-1.51 -6.51,-5.69 q -0.12,-9.09 0.32,-18.04 1.91,-1.4 4.07,-0.75 a 0.76,0.76 0 0 0 0.79,-0.23 q 1.67,-1.88 4.26,-1.47 a 0.42,0.41 -88.3 0 1 0.35,0.38 z"
         inkscape:connector-curvature="0"
         style="fill:#ffffff" />
      <path
         id="path31375"
         d="m 186.67,236.36 q -0.35,-1.83 1.47,-2.17 l 10.37,-1.99 q 1.28,-0.24 0.35,0.67 l -10.11,9.92 q -0.73,0.72 -0.92,-0.28 z"
         inkscape:connector-curvature="0"
         style="fill:#d8d8d8" />
      <path
         id="path31377"
         d="m 325.74,273.33 c 1.18,-10.43 15.58,-27.93 26.76,-28.3 q 4.45,-0.15 9.46,0.48 2.9,0.37 1.31,2.82 -3.02,4.68 -7.92,7.35 a 1.4,1.35 -52.1 0 1 -0.98,0.14 q -5.88,-1.34 -11.92,-1.04 -3.15,0.15 -4.5,3.01 c -1.49,3.17 -2.01,6.4 -4.35,8.97 q -3.36,3.69 -7.12,6.96 -0.87,0.76 -0.74,-0.39 z"
         inkscape:connector-curvature="0"
         style="fill:#060606" />
      <path
         id="path31379"
         d="m 171.46,276.57 q 2.18,-0.42 2.95,-2.38 1.32,-3.36 0.57,0.29 -0.76,3.69 -3.4,6.51 a 1.48,1.45 -72.1 0 1 -0.88,0.46 l -0.29,0.04 a 0.32,0.32 0 0 1 -0.34,-0.43 l 0.73,-1.87 a 0.47,0.47 0 0 0 -0.37,-0.64 l -0.38,-0.05 a 0.53,0.53 0 0 1 -0.4,-0.78 l 0.37,-0.72 a 1.54,1.53 -35.4 0 0 0.16,-0.93 c -0.13,-1.02 0.03,-4.87 1.37,-4.84 a 0.35,0.35 0 0 1 0.33,0.42 l -0.97,4.36 a 0.47,0.47 0 0 0 0.55,0.56 z"
         inkscape:connector-curvature="0"
         style="fill:#ffffff" />
      <ellipse
         id="ellipse31381"
         ry="0.76999998"
         rx="4.46"
         transform="rotate(116.1,-4.3016047,196.62431)"
         cy="0"
         cx="0"
         style="fill:#ffffff" />
      <path
         id="path31383"
         d="m 147.5,348.04 c -13.83,-1.38 -7.48,-17.89 -3.21,-25.29 l 9.92,-13.5 5.08,-6 c 3.14,-3.34 18.31,-18.31 22.32,-17.84 a 0.39,0.39 0 0 1 0.31,0.54 c -2.91,7.02 -9.78,8.16 -14.64,13.28 -7.77,8.19 -15.89,16.83 -17.92,28.69 -1.43,8.33 4.74,11.34 11.94,10.19 a 0.61,0.61 0 0 0 0.51,-0.58 q 0.54,-13.94 2.91,-27.63 c 1.26,-7.26 4.08,-11.4 10.38,-14.64 q 1.18,-0.61 0.9,0.69 -3.96,18.11 -4.03,36.58 c -0.02,4.44 1.12,7.08 4.8,9.27 a 1.47,1.46 24.4 0 0 2.14,-0.8 c 0.6,-1.83 1.65,-3.7 1.71,-5.75 0.59,-18.2 6.76,-45.06 32.18,-36.97 5.51,1.75 9.48,4.75 9.3,10.95 -0.4,13.85 -6.06,26.81 -15.79,36.21 -6.97,6.73 -12.21,11.04 -21.75,8.25 q -3.93,-1.15 -4.81,-5.28 -0.18,-0.85 -0.71,-0.16 c -5.46,7.01 -13.95,5.19 -16.93,-2.81 a 0.4,0.4 0 0 0 -0.59,-0.2 q -6.46,3.98 -14.02,2.8 z m 45.68,-4.6 c 14.95,8.01 18.31,-16.56 18.85,-25.44 0.54,-8.78 -9.86,-10.97 -16.38,-11.21 q -2.54,-0.1 -2.98,2.41 -2.79,15.64 -1.3,31.51 0.17,1.85 1.81,2.73 z"
         inkscape:connector-curvature="0"
         style="fill:#060606" />
      <path
         id="path31385"
         d="m 80.29,306.45 -1.49,0.56 q -1.13,0.43 -0.56,-0.64 c 5.99,-11.2 21.38,-18.01 33.29,-20 3.8,-0.63 7.67,-0.26 7.62,4.37 -0.04,4.14 -6.83,9.91 -9.96,12.19 q -0.43,0.32 -0.44,-0.21 c -0.05,-2.53 1.41,-7.32 -3.25,-6.8 q -7.22,0.81 -14,3.35 a 0.86,0.86 0 0 0 -0.56,0.82 l 0.2,51.17 a 1.55,1.52 -26.4 0 1 -0.35,1 q -3.53,4.38 -8.29,7.44 a 0.39,0.39 0 0 1 -0.58,-0.22 q -0.88,-3.24 -0.89,-5.29 -0.06,-23.57 -0.02,-47.23 a 0.54,0.53 79.9 0 0 -0.72,-0.51 z"
         inkscape:connector-curvature="0"
         style="fill:#060606" />
      <path
         id="path31387"
         d="m 228.79,326 c 0.51,-8.67 -0.69,-14.87 7.71,-20.21 q 1.01,-0.83 2.28,-0.64 a 0.57,0.56 5.7 0 1 0.48,0.58 l -0.33,10.05 q -0.04,1.33 1.01,0.52 c 4.78,-3.69 9.56,-8.74 10.6,-15.15 q 0.36,-2.19 -1.86,-1.97 -7.04,0.69 -13.93,3.86 l -10.76,5.48 a 0.49,0.48 64.4 0 1 -0.67,-0.24 c -1.24,-2.77 10.71,-10.79 13.47,-12.28 q 10.24,-5.38 21.74,-6.98 a 1.06,1.03 63.2 0 1 0.88,0.3 c 5.06,5.04 -7.44,19.45 -11.2,22.77 q -2.56,2.26 0.65,1.11 c 3.15,-1.12 8.82,-1.49 12.79,-0.56 q 2.13,0.5 4.06,-1.66 c 5.23,-5.83 12.06,-16.39 20.58,-17.1 q 13.95,-1.16 19.82,12.09 a 0.37,0.37 0 0 0 0.63,0.08 q 2.95,-3.81 7.17,-6.08 1.2,-0.65 1.07,0.71 l -2.21,23 q -0.15,1.5 0.69,0.24 10.95,-16.6 26.01,-29.45 2.62,-2.24 5.82,-3.51 1.77,-0.7 0.7,0.88 c -0.98,1.45 -2.01,2.59 -2.19,4.44 q -2.1,21.64 -1.79,43.39 c 0.04,2.52 1.22,3.8 3.57,4.23 a 1.49,1.46 -53.5 0 0 0.99,-0.16 l 2.62,-1.48 a 0.61,0.61 0 0 1 0.84,0.26 c 0.53,1.09 -7.55,8.36 -8.72,9.29 -4.36,3.5 -9.39,1.64 -9.36,-4.29 q 0.14,-21.26 1.54,-42.48 0.03,-0.51 -0.39,-0.22 -2.31,1.6 -4.43,4.35 -8.54,11.09 -14.42,19.93 c -2.26,3.39 -2.54,12.96 1.86,15.02 a 1.36,1.36 0 0 1 0.54,2 c -2.16,3.14 -6.39,8.24 -10.56,7.83 a 1.17,1.16 -13 0 1 -0.86,-0.53 l -1.48,-2.26 a 0.39,0.39 0 0 0 -0.64,-0.01 q -2.07,2.9 -5.55,2.73 -2.56,-0.12 -1.51,-2.46 c 1.38,-3.09 7.85,-13.38 6.93,-15.96 q -0.17,-0.48 -0.49,-0.08 c -8.13,10.1 -17.62,20.6 -32.58,17.25 q -6.7,-1.51 -8.16,-8.12 a 0.3,0.3 0 0 0 -0.49,-0.17 q -1.13,0.99 -3.45,3.45 c -5.93,6.3 -13.31,7.67 -21.74,6.91 q -8.06,-0.73 -8.33,-8.67 -0.11,-3.09 1.05,-20.03 z m 42.54,4.31 c -0.31,7.25 5.53,10.69 12.17,9.92 a 0.43,0.43 0 0 1 0.45,0.57 l -0.51,1.45 a 0.46,0.45 -75.4 0 0 0.35,0.6 c 12.02,2.1 13.48,-7.21 14.17,-16.37 0.85,-11.22 -6.86,-24.52 -19.73,-22.62 a 2.54,2.53 -81 0 0 -1.92,1.4 c -3.82,7.79 -4.61,16.51 -4.98,25.05 z m -33.05,-6.01 -0.37,7.18 q -0.05,0.87 0.65,0.35 l 11.93,-8.92 q 1.14,-0.86 -0.29,-0.9 -5.64,-0.16 -11.07,1.25 a 1.14,1.13 -5.9 0 0 -0.85,1.04 z m 3.72,16.94 -0.94,1.4 a 0.63,0.62 27.9 0 0 0.29,0.92 q 7.29,2.94 14.67,0.22 a 1.02,1 -5 0 0 0.63,-0.74 c 1.07,-5.33 -0.46,-13.19 -1.72,-18.48 a 0.54,0.54 0 0 0 -0.85,-0.3 l -15.53,11.67 a 0.84,0.83 -23.8 0 0 -0.32,0.81 c 0.48,2.77 1.87,2.33 3.64,3.68 a 0.61,0.61 0 0 1 0.13,0.82 z"
         inkscape:connector-curvature="0"
         style="fill:#060606" />
      <path
         id="path31389"
         d="m 104.44,353.81 c -7.64,-4.2 -1.6,-28.37 0.85,-34.75 3.2,-8.31 14.16,-29.27 25.22,-27.87 9.79,1.23 12.06,9.72 11.44,18.31 q -0.96,13.37 -2.04,19.43 c -1.6,8.93 -8.82,16.29 -16.18,22.8 q -8.84,7.83 -19.29,2.08 z m 8.68,-10.42 q 4.87,3.34 10.88,2.77 2.42,-0.23 3.62,-2.35 c 3.96,-6.98 4.38,-24.16 3.79,-32.5 q -0.62,-8.85 -9.66,-9.99 a 0.65,0.65 0 0 0 -0.68,0.4 q -2.36,5.92 -3.29,12.21 c -0.86,5.9 -5.8,7.53 -6.58,13 q -0.98,6.77 0.06,13.49 0.29,1.89 1.86,2.97 z"
         inkscape:connector-curvature="0"
         style="fill:#060606" />
      <path
         id="path31391"
         d="m 236.5,305.79 q -1.32,-1.09 -1.75,-2.75 6.89,-3.17 13.93,-3.86 2.22,-0.22 1.86,1.97 c -1.04,6.41 -5.82,11.46 -10.6,15.15 q -1.05,0.81 -1.01,-0.52 l 0.33,-10.05 a 0.57,0.56 5.7 0 0 -0.48,-0.58 q -1.27,-0.19 -2.28,0.64 z"
         inkscape:connector-curvature="0"
         style="fill:#ffffff" />
      <path
         id="path31393"
         d="m 159.29,303.25 -5.08,6 q -0.44,-0.29 -0.65,-0.83 a 1.22,1.2 46.1 0 1 0.01,-0.91 l 2.72,-6.39 a 0.38,0.38 0 0 1 0.61,-0.13 z"
         inkscape:connector-curvature="0"
         style="fill:#ffffff" />
      <path
         id="path31395"
         d="m 113.12,343.39 q -1.57,-1.08 -1.86,-2.97 -1.04,-6.72 -0.06,-13.49 c 0.78,-5.47 5.72,-7.1 6.58,-13 q 0.93,-6.29 3.29,-12.21 a 0.65,0.65 0 0 1 0.68,-0.4 q 9.04,1.14 9.66,9.99 c 0.59,8.34 0.17,25.52 -3.79,32.5 q -1.2,2.12 -3.62,2.35 -6.01,0.57 -10.88,-2.77 z"
         inkscape:connector-curvature="0"
         style="fill:#ffffff" />
      <path
         id="path31397"
         d="m 283.5,340.23 c -6.64,0.77 -12.48,-2.67 -12.17,-9.92 0.37,-8.54 1.16,-17.26 4.98,-25.05 a 2.54,2.53 -81 0 1 1.92,-1.4 c 12.87,-1.9 20.58,11.4 19.73,22.62 -0.69,9.16 -2.15,18.47 -14.17,16.37 a 0.46,0.45 -75.4 0 1 -0.35,-0.6 l 0.51,-1.45 a 0.43,0.43 0 0 0 -0.45,-0.57 z"
         inkscape:connector-curvature="0"
         style="fill:#ffffff" />
      <path
         id="path31399"
         d="m 193.18,343.44 q -1.64,-0.88 -1.81,-2.73 -1.49,-15.87 1.3,-31.51 0.44,-2.51 2.98,-2.41 c 6.52,0.24 16.92,2.43 16.38,11.21 -0.54,8.88 -3.9,33.45 -18.85,25.44 z"
         inkscape:connector-curvature="0"
         style="fill:#d8d8d8" />
      <path
         id="path31401"
         d="m 158.64,312.18 q 0.12,-1.18 1.22,-1.2 a 0.51,0.51 0 0 1 0.52,0.53 q -0.23,10.17 -4.06,19.65 a 0.5,0.5 0 0 1 -0.75,0.22 l -0.25,-0.17 a 0.52,0.5 -65.7 0 1 -0.2,-0.56 q 2.53,-9.09 3.52,-18.47 z"
         inkscape:connector-curvature="0"
         style="fill:#ffffff" />
      <path
         id="path31403"
         d="m 238.28,324.3 a 1.14,1.13 -5.9 0 1 0.85,-1.04 q 5.43,-1.41 11.07,-1.25 1.43,0.04 0.29,0.9 l -11.93,8.92 q -0.7,0.52 -0.65,-0.35 z"
         inkscape:connector-curvature="0"
         style="fill:#ffffff" />
      <path
         id="path31405"
         d="m 241.87,340.42 c -1.77,-1.35 -3.16,-0.91 -3.64,-3.68 a 0.84,0.83 -23.8 0 1 0.32,-0.81 l 15.53,-11.67 a 0.54,0.54 0 0 1 0.85,0.3 c 1.26,5.29 2.79,13.15 1.72,18.48 a 1.02,1 -5 0 1 -0.63,0.74 q -7.38,2.72 -14.67,-0.22 a 0.63,0.62 27.9 0 1 -0.29,-0.92 l 0.94,-1.4 a 0.61,0.61 0 0 0 -0.13,-0.82 z"
         inkscape:connector-curvature="0"
         style="fill:#ffffff" />
      <path
         id="path31407"
         d="m 224.99,359.75 q 0.18,-1.33 1.03,-0.19 c 0.72,0.96 0.2,3.7 0.4,5.05 a 0.73,0.73 0 0 1 -0.33,0.74 l -1.32,0.87 q -0.69,0.45 -0.58,-0.37 z"
         inkscape:connector-curvature="0"
         style="fill:#d8d8d8" />
    </g>
  </g>
</svg>
