<?xml version="1.0" encoding="UTF-8" standalone="no"?>
<!DOCTYPE svg PUBLIC "-//W3C//DTD SVG 1.1//EN" "http://www.w3.org/Graphics/SVG/1.1/DTD/svg11.dtd">
<svg xmlns="http://www.w3.org/2000/svg" version="1.1" viewBox="0 0 450 224">
<g stroke-width="2.00" fill="none" stroke-linecap="butt">
<path stroke="#f0f0f0" vector-effect="non-scaling-stroke" d="
  M 217.31 0.00
  L 216.42 0.73
  A 1.35 1.34 -17.0 0 0 215.92 1.66
  Q 215.28 7.98 211.10 12.65
  A 0.78 0.77 -46.4 0 0 211.12 13.70
  L 213.20 15.86
  A 1.49 1.49 0.0 0 1 213.27 17.86
  Q 210.98 20.55 210.71 24.09
  A 1.12 1.10 -66.5 0 0 211.05 24.98
  L 217.66 31.19
  A 1.17 1.16 24.5 0 1 218.02 32.14
  Q 217.84 34.37 218.73 36.37
  A 0.56 0.55 -24.8 0 0 219.48 36.64
  L 220.62 36.07
  A 0.50 0.50 0.0 0 1 221.31 36.33
  C 224.55 44.55 231.61 47.05 239.51 43.77
  Q 243.69 42.04 248.02 40.62
  A 0.99 0.99 0.0 0 0 248.68 39.91
  Q 249.28 37.42 251.87 36.88
  A 1.79 1.76 -74.8 0 0 252.83 36.32
  L 256.12 32.51
  A 1.11 1.09 59.9 0 0 256.36 31.59
  L 255.84 28.96
  A 0.82 0.82 0.0 0 1 256.16 28.14
  Q 259.52 25.67 258.99 21.53
  Q 258.93 21.00 259.12 20.51
  L 260.48 17.08
  A 1.10 1.09 -52.4 0 0 260.35 16.02
  Q 259.18 14.39 260.51 13.13
  A 1.92 1.82 -16.0 0 0 261.04 12.23
  C 261.54 10.35 263.99 2.51 263.21 1.11
  Q 262.58 -0.03 260.81 0.00"
/>
<path stroke="#e6e6e6" vector-effect="non-scaling-stroke" d="
  M 237.44 224.00
  Q 238.61 221.57 237.51 218.96
  A 1.08 1.07 60.9 0 1 237.88 217.66
  Q 240.67 215.72 240.49 212.25
  A 0.60 0.58 4.4 0 0 240.01 211.70
  L 238.81 211.47
  A 0.52 0.51 16.7 0 1 238.43 210.77
  Q 241.42 203.40 234.73 199.78
  A 1.57 1.52 -89.2 0 1 234.06 199.07
  C 233.09 197.01 232.85 195.01 231.69 193.25
  C 226.28 185.12 215.85 187.26 207.46 189.88
  C 203.71 191.05 200.50 194.40 196.84 196.28
  C 191.81 198.86 189.38 203.48 189.34 209.08
  C 189.28 215.68 183.10 217.67 183.08 222.67
  A 0.59 0.58 3.3 0 0 183.60 223.25
  L 190.69 224.00"
/>
<path stroke="#838383" vector-effect="non-scaling-stroke" d="
  M 81.06 116.28
  C 80.94 101.03 80.90 86.68 81.50 70.52
  Q 81.82 61.95 81.74 52.90
  Q 81.72 50.71 79.84 51.84
  Q 75.57 54.39 72.69 58.35
  Q 71.78 59.61 71.78 61.17
  C 71.80 84.81 70.40 108.17 71.87 131.81
  C 72.06 134.86 71.37 136.73 70.01 139.25
  Q 66.10 146.51 62.56 154.53
  A 1.11 1.11 0.0 0 0 63.43 156.07
  C 65.15 156.30 72.21 147.93 73.18 146.62
  Q 74.32 145.08 74.56 146.98
  L 75.33 153.18
  Q 75.64 155.65 77.53 154.03
  L 84.27 148.25
  Q 85.84 146.89 85.54 144.83
  L 82.93 127.16
  A 4.94 4.93 -36.5 0 1 83.36 124.31
  Q 90.94 108.52 99.97 93.52
  Q 100.90 91.97 100.98 93.78
  Q 101.15 97.66 100.88 102.57
  Q 99.82 122.27 100.02 142.00
  C 100.08 148.46 100.01 154.72 102.71 159.24
  A 1.39 1.39 0.0 0 0 104.89 159.51
  L 113.86 150.47
  A 0.58 0.58 0.0 0 0 113.77 149.58
  L 112.03 148.42
  A 1.27 1.25 -80.4 0 1 111.54 147.72
  Q 110.12 142.34 110.06 136.75
  Q 109.69 101.05 112.88 65.49
  Q 113.02 63.91 112.98 62.76
  A 0.69 0.68 74.7 0 0 111.97 62.18
  Q 106.60 65.16 103.35 70.30
  A 1.80 1.77 -30.9 0 0 103.08 71.34
  C 103.35 77.55 101.97 81.62 98.54 87.24
  Q 89.78 101.64 81.51 116.39
  Q 81.07 117.19 81.06 116.28"
/>
<path stroke="#838383" vector-effect="non-scaling-stroke" d="
  M 131.01 114.51
  L 130.98 86.08
  Q 130.98 83.80 129.27 85.31
  L 122.93 90.92
  Q 121.00 92.63 121.00 95.20
  Q 121.01 106.16 120.99 117.04
  C 120.98 120.31 119.25 122.24 117.28 124.53
  Q 116.44 125.51 117.72 125.69
  L 120.60 126.11
  A 0.49 0.48 5.2 0 1 121.02 126.61
  L 120.35 147.24
  Q 120.31 148.45 121.37 147.88
  C 125.45 145.68 130.77 141.08 130.75 135.99
  Q 130.73 129.41 130.77 122.88
  A 0.87 0.86 -11.1 0 1 131.31 122.08
  L 141.21 118.01
  A 0.46 0.46 0.0 0 1 141.84 118.45
  L 140.85 149.67
  Q 140.78 151.79 142.66 152.80
  C 146.45 154.83 157.07 140.26 158.74 137.36
  A 0.96 0.95 43.7 0 0 158.71 136.35
  C 157.90 135.11 152.31 140.17 151.53 140.90
  Q 151.10 141.30 151.08 140.72
  Q 150.61 127.20 151.94 113.74
  A 1.36 1.36 0.0 0 1 152.67 112.66
  Q 157.49 110.17 161.30 106.33
  Q 161.66 105.97 161.61 106.47
  Q 160.52 119.21 159.79 132.00
  C 159.11 144.02 170.99 147.38 180.48 145.98
  Q 185.04 145.30 189.55 141.70
  C 205.23 129.18 208.67 107.89 208.02 88.94
  C 207.59 76.35 186.76 76.27 179.58 81.09
  Q 168.24 88.69 162.94 101.24
  A 1.47 1.45 -1.9 0 1 162.25 101.97
  L 154.12 106.02
  A 0.72 0.71 -12.0 0 1 153.08 105.35
  L 154.18 80.10
  A 0.90 0.90 0.0 0 0 152.89 79.25
  C 149.13 81.05 144.27 85.31 144.11 89.97
  Q 143.77 99.72 143.21 109.53
  A 2.38 2.38 0.0 0 1 141.59 111.64
  L 131.61 114.94
  A 0.46 0.45 -9.3 0 1 131.01 114.51"
/>
<path stroke="#838383" vector-effect="non-scaling-stroke" d="
  M 304.06 115.18
  Q 304.12 114.31 304.69 113.68
  Q 317.05 100.08 331.75 92.54
  Q 334.74 91.01 334.21 94.32
  Q 330.06 120.35 330.74 145.74
  Q 330.88 150.97 331.99 154.34
  Q 332.95 157.26 335.14 155.10
  L 341.94 148.38
  A 2.07 2.06 57.3 0 0 342.42 146.16
  C 341.46 143.66 341.05 141.09 341.03 138.19
  C 340.96 127.19 340.59 116.09 341.78 105.19
  C 342.68 96.97 344.52 89.07 343.74 81.47
  A 0.38 0.38 0.0 0 0 343.19 81.18
  Q 321.81 92.05 305.14 109.35
  Q 303.68 110.87 303.95 108.78
  Q 305.62 96.04 306.07 83.19
  A 0.79 0.78 -9.9 0 0 304.99 82.44
  C 297.94 85.27 291.10 93.37 285.98 98.65
  Q 284.61 100.06 282.64 100.02
  Q 273.13 99.82 264.19 103.03
  A 0.09 0.09 0.0 0 1 264.08 102.99
  L 263.98 102.74
  A 0.78 0.76 53.6 0 1 264.09 101.94
  Q 271.79 92.60 277.08 81.72
  A 1.22 1.22 0.0 0 0 275.97 79.97
  C 266.23 80.05 254.20 90.80 248.17 98.22
  A 1.27 1.27 0.0 0 0 248.29 99.95
  C 248.53 100.17 249.59 99.80 249.86 99.50
  Q 256.52 91.94 266.05 89.78
  Q 267.40 89.48 266.76 90.70
  Q 261.07 101.60 253.09 110.99
  A 1.42 1.41 39.4 0 0 253.29 113.01
  Q 253.65 113.30 254.73 112.93
  Q 264.20 109.73 274.26 109.80
  Q 275.82 109.81 274.69 110.89
  Q 265.25 119.93 256.84 130.59
  Q 253.52 134.79 252.06 137.81
  C 250.09 141.89 249.93 151.92 256.81 151.89
  C 261.56 151.88 265.76 150.12 269.85 147.29
  Q 292.86 131.33 286.97 102.13
  A 1.03 1.00 62.2 0 1 287.24 101.21
  L 295.31 93.14
  Q 296.10 92.35 296.03 93.47
  Q 295.23 106.75 293.88 120.03
  Q 293.67 122.00 292.51 123.82
  C 288.15 130.64 284.86 136.26 285.93 144.67
  Q 286.55 149.50 290.75 150.02
  C 304.70 151.75 313.68 144.48 322.73 134.72
  Q 331.51 125.26 328.20 112.70
  C 325.73 103.32 309.34 112.97 304.50 115.47
  Q 304.02 115.71 304.06 115.18"
/>
<path stroke="#838383" vector-effect="non-scaling-stroke" d="
  M 230.08 118.42
  C 226.39 122.08 196.85 152.05 199.74 155.58
  A 0.64 0.63 -36.4 0 0 200.58 155.70
  Q 208.02 150.57 213.07 143.07
  A 1.23 1.21 -35.7 0 0 213.24 142.08
  L 213.09 141.49
  A 1.20 1.18 -32.2 0 1 213.34 140.43
  Q 222.30 129.81 232.30 120.15
  Q 232.73 119.74 232.83 120.32
  C 234.00 127.00 234.29 136.71 237.49 140.88
  A 0.63 0.63 0.0 0 0 238.34 141.02
  Q 243.63 137.43 247.73 132.49
  A 0.64 0.64 0.0 0 0 247.70 131.64
  C 241.14 124.63 242.98 91.56 242.81 81.43
  Q 242.80 80.61 242.10 81.04
  C 237.42 83.92 233.57 88.61 230.19 91.53
  C 220.14 100.23 211.45 110.63 205.98 122.82
  C 205.37 124.19 205.15 125.58 205.23 126.98
  A 1.17 1.17 0.0 0 0 206.70 128.05
  C 214.47 125.99 221.84 120.99 229.96 118.22
  Q 230.44 118.06 230.08 118.42"
/>
<path stroke="#838383" vector-effect="non-scaling-stroke" d="
  M 365.96 99.36
  L 369.30 89.91
  Q 369.72 88.75 368.61 89.29
  C 357.38 94.83 355.97 109.33 351.91 120.12
  C 348.90 128.09 348.97 138.05 349.02 146.51
  Q 349.04 148.54 350.68 149.75
  C 355.75 153.47 360.32 146.91 363.64 144.01
  A 0.97 0.97 0.0 0 1 364.51 143.80
  C 374.62 146.42 386.62 148.75 395.51 141.05
  C 396.76 139.97 405.13 131.50 404.49 130.24
  A 0.46 0.45 61.3 0 0 403.85 130.05
  C 400.67 132.00 397.89 135.35 394.63 136.29
  C 391.49 137.21 388.53 136.60 385.61 136.34
  C 376.79 135.58 367.04 132.06 360.90 125.44
  A 2.98 2.94 -65.6 0 1 360.11 123.30
  C 360.69 109.04 368.82 98.70 381.01 92.05
  Q 384.24 90.29 387.88 84.73
  A 0.43 0.43 0.0 0 0 387.68 84.09
  C 384.54 82.84 369.34 97.15 366.80 99.87
  Q 365.16 101.63 365.96 99.36"
/>
<path stroke="#838383" vector-effect="non-scaling-stroke" d="
  M 189.59 134.03
  L 188.53 135.10
  A 0.42 0.42 0.0 0 0 188.63 135.77
  C 190.30 136.62 191.45 135.86 192.12 134.23
  Q 195.59 125.81 196.74 116.75
  C 197.95 107.30 201.27 92.43 191.82 89.65
  Q 186.25 88.00 178.21 88.02
  C 175.31 88.03 176.27 90.47 175.75 92.20
  C 173.14 100.94 167.99 117.43 172.83 125.85
  C 176.27 131.81 182.39 132.99 189.31 133.30
  Q 190.29 133.34 189.59 134.03"
/>
<path stroke="#838383" vector-effect="non-scaling-stroke" d="
  M 276.45 113.20
  C 272.84 115.36 266.93 122.90 264.07 126.34
  C 259.95 131.32 258.51 143.47 268.56 141.81
  C 272.78 141.12 274.79 139.46 276.13 135.26
  Q 279.47 124.87 277.45 113.65
  A 0.67 0.66 -20.6 0 0 276.45 113.20"
/>
<path stroke="#838383" vector-effect="non-scaling-stroke" d="
  M 305.99 130.90
  Q 305.99 132.68 304.71 133.93
  L 299.21 139.29
  Q 298.62 139.87 299.44 139.96
  C 305.28 140.61 316.70 140.47 318.49 133.50
  Q 320.23 126.68 317.29 119.94
  A 1.87 1.86 75.0 0 0 315.38 118.83
  L 306.69 119.76
  A 0.77 0.77 0.0 0 0 306.00 120.53
  L 305.99 130.90"
/>
<path stroke="#838383" vector-effect="non-scaling-stroke" d="
  M 231.46 95.12
  C 224.07 99.00 217.80 109.16 214.96 116.87
  A 0.86 0.86 0.0 0 0 215.67 118.02
  C 218.60 118.38 229.64 112.27 232.61 110.63
  A 0.85 0.83 75.3 0 0 233.03 109.90
  L 232.93 96.00
  A 1.00 1.00 0.0 0 0 231.46 95.12"
/>
</g>
<path fill="#ffffff" d="
  M 0.00 0.00
  L 217.31 0.00
  L 216.42 0.73
  A 1.35 1.34 -17.0 0 0 215.92 1.66
  Q 215.28 7.98 211.10 12.65
  A 0.78 0.77 -46.4 0 0 211.12 13.70
  L 213.20 15.86
  A 1.49 1.49 0.0 0 1 213.27 17.86
  Q 210.98 20.55 210.71 24.09
  A 1.12 1.10 -66.5 0 0 211.05 24.98
  L 217.66 31.19
  A 1.17 1.16 24.5 0 1 218.02 32.14
  Q 217.84 34.37 218.73 36.37
  A 0.56 0.55 -24.8 0 0 219.48 36.64
  L 220.62 36.07
  A 0.50 0.50 0.0 0 1 221.31 36.33
  C 224.55 44.55 231.61 47.05 239.51 43.77
  Q 243.69 42.04 248.02 40.62
  A 0.99 0.99 0.0 0 0 248.68 39.91
  Q 249.28 37.42 251.87 36.88
  A 1.79 1.76 -74.8 0 0 252.83 36.32
  L 256.12 32.51
  A 1.11 1.09 59.9 0 0 256.36 31.59
  L 255.84 28.96
  A 0.82 0.82 0.0 0 1 256.16 28.14
  Q 259.52 25.67 258.99 21.53
  Q 258.93 21.00 259.12 20.51
  L 260.48 17.08
  A 1.10 1.09 -52.4 0 0 260.35 16.02
  Q 259.18 14.39 260.51 13.13
  A 1.92 1.82 -16.0 0 0 261.04 12.23
  C 261.54 10.35 263.99 2.51 263.21 1.11
  Q 262.58 -0.03 260.81 0.00
  L 450.00 0.00
  L 450.00 224.00
  L 237.44 224.00
  Q 238.61 221.57 237.51 218.96
  A 1.08 1.07 60.9 0 1 237.88 217.66
  Q 240.67 215.72 240.49 212.25
  A 0.60 0.58 4.4 0 0 240.01 211.70
  L 238.81 211.47
  A 0.52 0.51 16.7 0 1 238.43 210.77
  Q 241.42 203.40 234.73 199.78
  A 1.57 1.52 -89.2 0 1 234.06 199.07
  C 233.09 197.01 232.85 195.01 231.69 193.25
  C 226.28 185.12 215.85 187.26 207.46 189.88
  C 203.71 191.05 200.50 194.40 196.84 196.28
  C 191.81 198.86 189.38 203.48 189.34 209.08
  C 189.28 215.68 183.10 217.67 183.08 222.67
  A 0.59 0.58 3.3 0 0 183.60 223.25
  L 190.69 224.00
  L 0.00 224.00
  L 0.00 0.00
  Z
  M 81.06 116.28
  C 80.94 101.03 80.90 86.68 81.50 70.52
  Q 81.82 61.95 81.74 52.90
  Q 81.72 50.71 79.84 51.84
  Q 75.57 54.39 72.69 58.35
  Q 71.78 59.61 71.78 61.17
  C 71.80 84.81 70.40 108.17 71.87 131.81
  C 72.06 134.86 71.37 136.73 70.01 139.25
  Q 66.10 146.51 62.56 154.53
  A 1.11 1.11 0.0 0 0 63.43 156.07
  C 65.15 156.30 72.21 147.93 73.18 146.62
  Q 74.32 145.08 74.56 146.98
  L 75.33 153.18
  Q 75.64 155.65 77.53 154.03
  L 84.27 148.25
  Q 85.84 146.89 85.54 144.83
  L 82.93 127.16
  A 4.94 4.93 -36.5 0 1 83.36 124.31
  Q 90.94 108.52 99.97 93.52
  Q 100.90 91.97 100.98 93.78
  Q 101.15 97.66 100.88 102.57
  Q 99.82 122.27 100.02 142.00
  C 100.08 148.46 100.01 154.72 102.71 159.24
  A 1.39 1.39 0.0 0 0 104.89 159.51
  L 113.86 150.47
  A 0.58 0.58 0.0 0 0 113.77 149.58
  L 112.03 148.42
  A 1.27 1.25 -80.4 0 1 111.54 147.72
  Q 110.12 142.34 110.06 136.75
  Q 109.69 101.05 112.88 65.49
  Q 113.02 63.91 112.98 62.76
  A 0.69 0.68 74.7 0 0 111.97 62.18
  Q 106.60 65.16 103.35 70.30
  A 1.80 1.77 -30.9 0 0 103.08 71.34
  C 103.35 77.55 101.97 81.62 98.54 87.24
  Q 89.78 101.64 81.51 116.39
  Q 81.07 117.19 81.06 116.28
  Z
  M 131.01 114.51
  L 130.98 86.08
  Q 130.98 83.80 129.27 85.31
  L 122.93 90.92
  Q 121.00 92.63 121.00 95.20
  Q 121.01 106.16 120.99 117.04
  C 120.98 120.31 119.25 122.24 117.28 124.53
  Q 116.44 125.51 117.72 125.69
  L 120.60 126.11
  A 0.49 0.48 5.2 0 1 121.02 126.61
  L 120.35 147.24
  Q 120.31 148.45 121.37 147.88
  C 125.45 145.68 130.77 141.08 130.75 135.99
  Q 130.73 129.41 130.77 122.88
  A 0.87 0.86 -11.1 0 1 131.31 122.08
  L 141.21 118.01
  A 0.46 0.46 0.0 0 1 141.84 118.45
  L 140.85 149.67
  Q 140.78 151.79 142.66 152.80
  C 146.45 154.83 157.07 140.26 158.74 137.36
  A 0.96 0.95 43.7 0 0 158.71 136.35
  C 157.90 135.11 152.31 140.17 151.53 140.90
  Q 151.10 141.30 151.08 140.72
  Q 150.61 127.20 151.94 113.74
  A 1.36 1.36 0.0 0 1 152.67 112.66
  Q 157.49 110.17 161.30 106.33
  Q 161.66 105.97 161.61 106.47
  Q 160.52 119.21 159.79 132.00
  C 159.11 144.02 170.99 147.38 180.48 145.98
  Q 185.04 145.30 189.55 141.70
  C 205.23 129.18 208.67 107.89 208.02 88.94
  C 207.59 76.35 186.76 76.27 179.58 81.09
  Q 168.24 88.69 162.94 101.24
  A 1.47 1.45 -1.9 0 1 162.25 101.97
  L 154.12 106.02
  A 0.72 0.71 -12.0 0 1 153.08 105.35
  L 154.18 80.10
  A 0.90 0.90 0.0 0 0 152.89 79.25
  C 149.13 81.05 144.27 85.31 144.11 89.97
  Q 143.77 99.72 143.21 109.53
  A 2.38 2.38 0.0 0 1 141.59 111.64
  L 131.61 114.94
  A 0.46 0.45 -9.3 0 1 131.01 114.51
  Z
  M 304.06 115.18
  Q 304.12 114.31 304.69 113.68
  Q 317.05 100.08 331.75 92.54
  Q 334.74 91.01 334.21 94.32
  Q 330.06 120.35 330.74 145.74
  Q 330.88 150.97 331.99 154.34
  Q 332.95 157.26 335.14 155.10
  L 341.94 148.38
  A 2.07 2.06 57.3 0 0 342.42 146.16
  C 341.46 143.66 341.05 141.09 341.03 138.19
  C 340.96 127.19 340.59 116.09 341.78 105.19
  C 342.68 96.97 344.52 89.07 343.74 81.47
  A 0.38 0.38 0.0 0 0 343.19 81.18
  Q 321.81 92.05 305.14 109.35
  Q 303.68 110.87 303.95 108.78
  Q 305.62 96.04 306.07 83.19
  A 0.79 0.78 -9.9 0 0 304.99 82.44
  C 297.94 85.27 291.10 93.37 285.98 98.65
  Q 284.61 100.06 282.64 100.02
  Q 273.13 99.82 264.19 103.03
  A 0.09 0.09 0.0 0 1 264.08 102.99
  L 263.98 102.74
  A 0.78 0.76 53.6 0 1 264.09 101.94
  Q 271.79 92.60 277.08 81.72
  A 1.22 1.22 0.0 0 0 275.97 79.97
  C 266.23 80.05 254.20 90.80 248.17 98.22
  A 1.27 1.27 0.0 0 0 248.29 99.95
  C 248.53 100.17 249.59 99.80 249.86 99.50
  Q 256.52 91.94 266.05 89.78
  Q 267.40 89.48 266.76 90.70
  Q 261.07 101.60 253.09 110.99
  A 1.42 1.41 39.4 0 0 253.29 113.01
  Q 253.65 113.30 254.73 112.93
  Q 264.20 109.73 274.26 109.80
  Q 275.82 109.81 274.69 110.89
  Q 265.25 119.93 256.84 130.59
  Q 253.52 134.79 252.06 137.81
  C 250.09 141.89 249.93 151.92 256.81 151.89
  C 261.56 151.88 265.76 150.12 269.85 147.29
  Q 292.86 131.33 286.97 102.13
  A 1.03 1.00 62.2 0 1 287.24 101.21
  L 295.31 93.14
  Q 296.10 92.35 296.03 93.47
  Q 295.23 106.75 293.88 120.03
  Q 293.67 122.00 292.51 123.82
  C 288.15 130.64 284.86 136.26 285.93 144.67
  Q 286.55 149.50 290.75 150.02
  C 304.70 151.75 313.68 144.48 322.73 134.72
  Q 331.51 125.26 328.20 112.70
  C 325.73 103.32 309.34 112.97 304.50 115.47
  Q 304.02 115.71 304.06 115.18
  Z
  M 230.08 118.42
  C 226.39 122.08 196.85 152.05 199.74 155.58
  A 0.64 0.63 -36.4 0 0 200.58 155.70
  Q 208.02 150.57 213.07 143.07
  A 1.23 1.21 -35.7 0 0 213.24 142.08
  L 213.09 141.49
  A 1.20 1.18 -32.2 0 1 213.34 140.43
  Q 222.30 129.81 232.30 120.15
  Q 232.73 119.74 232.83 120.32
  C 234.00 127.00 234.29 136.71 237.49 140.88
  A 0.63 0.63 0.0 0 0 238.34 141.02
  Q 243.63 137.43 247.73 132.49
  A 0.64 0.64 0.0 0 0 247.70 131.64
  C 241.14 124.63 242.98 91.56 242.81 81.43
  Q 242.80 80.61 242.10 81.04
  C 237.42 83.92 233.57 88.61 230.19 91.53
  C 220.14 100.23 211.45 110.63 205.98 122.82
  C 205.37 124.19 205.15 125.58 205.23 126.98
  A 1.17 1.17 0.0 0 0 206.70 128.05
  C 214.47 125.99 221.84 120.99 229.96 118.22
  Q 230.44 118.06 230.08 118.42
  Z
  M 365.96 99.36
  L 369.30 89.91
  Q 369.72 88.75 368.61 89.29
  C 357.38 94.83 355.97 109.33 351.91 120.12
  C 348.90 128.09 348.97 138.05 349.02 146.51
  Q 349.04 148.54 350.68 149.75
  C 355.75 153.47 360.32 146.91 363.64 144.01
  A 0.97 0.97 0.0 0 1 364.51 143.80
  C 374.62 146.42 386.62 148.75 395.51 141.05
  C 396.76 139.97 405.13 131.50 404.49 130.24
  A 0.46 0.45 61.3 0 0 403.85 130.05
  C 400.67 132.00 397.89 135.35 394.63 136.29
  C 391.49 137.21 388.53 136.60 385.61 136.34
  C 376.79 135.58 367.04 132.06 360.90 125.44
  A 2.98 2.94 -65.6 0 1 360.11 123.30
  C 360.69 109.04 368.82 98.70 381.01 92.05
  Q 384.24 90.29 387.88 84.73
  A 0.43 0.43 0.0 0 0 387.68 84.09
  C 384.54 82.84 369.34 97.15 366.80 99.87
  Q 365.16 101.63 365.96 99.36
  Z"
/>
<path fill="#e1e1e1" d="
  M 217.31 0.00
  L 260.81 0.00
  Q 262.58 -0.03 263.21 1.11
  C 263.99 2.51 261.54 10.35 261.04 12.23
  A 1.92 1.82 -16.0 0 1 260.51 13.13
  Q 259.18 14.39 260.35 16.02
  A 1.10 1.09 -52.4 0 1 260.48 17.08
  L 259.12 20.51
  Q 258.93 21.00 258.99 21.53
  Q 259.52 25.67 256.16 28.14
  A 0.82 0.82 0.0 0 0 255.84 28.96
  L 256.36 31.59
  A 1.11 1.09 59.9 0 1 256.12 32.51
  L 252.83 36.32
  A 1.79 1.76 -74.8 0 1 251.87 36.88
  Q 249.28 37.42 248.68 39.91
  A 0.99 0.99 0.0 0 1 248.02 40.62
  Q 243.69 42.04 239.51 43.77
  C 231.61 47.05 224.55 44.55 221.31 36.33
  A 0.50 0.50 0.0 0 0 220.62 36.07
  L 219.48 36.64
  A 0.56 0.55 -24.8 0 1 218.73 36.37
  Q 217.84 34.37 218.02 32.14
  A 1.17 1.16 24.5 0 0 217.66 31.19
  L 211.05 24.98
  A 1.12 1.10 -66.5 0 1 210.71 24.09
  Q 210.98 20.55 213.27 17.86
  A 1.49 1.49 0.0 0 0 213.20 15.86
  L 211.12 13.70
  A 0.78 0.77 -46.4 0 1 211.10 12.65
  Q 215.28 7.98 215.92 1.66
  A 1.35 1.34 -17.0 0 1 216.42 0.73
  L 217.31 0.00
  Z"
/>
<path fill="#070706" d="
  M 81.06 116.28
  Q 81.07 117.19 81.51 116.39
  Q 89.78 101.64 98.54 87.24
  C 101.97 81.62 103.35 77.55 103.08 71.34
  A 1.80 1.77 -30.9 0 1 103.35 70.30
  Q 106.60 65.16 111.97 62.18
  A 0.69 0.68 74.7 0 1 112.98 62.76
  Q 113.02 63.91 112.88 65.49
  Q 109.69 101.05 110.06 136.75
  Q 110.12 142.34 111.54 147.72
  A 1.27 1.25 -80.4 0 0 112.03 148.42
  L 113.77 149.58
  A 0.58 0.58 0.0 0 1 113.86 150.47
  L 104.89 159.51
  A 1.39 1.39 0.0 0 1 102.71 159.24
  C 100.01 154.72 100.08 148.46 100.02 142.00
  Q 99.82 122.27 100.88 102.57
  Q 101.15 97.66 100.98 93.78
  Q 100.90 91.97 99.97 93.52
  Q 90.94 108.52 83.36 124.31
  A 4.94 4.93 -36.5 0 0 82.93 127.16
  L 85.54 144.83
  Q 85.84 146.89 84.27 148.25
  L 77.53 154.03
  Q 75.64 155.65 75.33 153.18
  L 74.56 146.98
  Q 74.32 145.08 73.18 146.62
  C 72.21 147.93 65.15 156.30 63.43 156.07
  A 1.11 1.11 0.0 0 1 62.56 154.53
  Q 66.10 146.51 70.01 139.25
  C 71.37 136.73 72.06 134.86 71.87 131.81
  C 70.40 108.17 71.80 84.81 71.78 61.17
  Q 71.78 59.61 72.69 58.35
  Q 75.57 54.39 79.84 51.84
  Q 81.72 50.71 81.74 52.90
  Q 81.82 61.95 81.50 70.52
  C 80.90 86.68 80.94 101.03 81.06 116.28
  Z"
/>
<path fill="#070706" d="
  M 131.61 114.94
  L 141.59 111.64
  A 2.38 2.38 0.0 0 0 143.21 109.53
  Q 143.77 99.72 144.11 89.97
  C 144.27 85.31 149.13 81.05 152.89 79.25
  A 0.90 0.90 0.0 0 1 154.18 80.10
  L 153.08 105.35
  A 0.72 0.71 -12.0 0 0 154.12 106.02
  L 162.25 101.97
  A 1.47 1.45 -1.9 0 0 162.94 101.24
  Q 168.24 88.69 179.58 81.09
  C 186.76 76.27 207.59 76.35 208.02 88.94
  C 208.67 107.89 205.23 129.18 189.55 141.70
  Q 185.04 145.30 180.48 145.98
  C 170.99 147.38 159.11 144.02 159.79 132.00
  Q 160.52 119.21 161.61 106.47
  Q 161.66 105.97 161.30 106.33
  Q 157.49 110.17 152.67 112.66
  A 1.36 1.36 0.0 0 0 151.94 113.74
  Q 150.61 127.20 151.08 140.72
  Q 151.10 141.30 151.53 140.90
  C 152.31 140.17 157.90 135.11 158.71 136.35
  A 0.96 0.95 43.7 0 1 158.74 137.36
  C 157.07 140.26 146.45 154.83 142.66 152.80
  Q 140.78 151.79 140.85 149.67
  L 141.84 118.45
  A 0.46 0.46 0.0 0 0 141.21 118.01
  L 131.31 122.08
  A 0.87 0.86 -11.1 0 0 130.77 122.88
  Q 130.73 129.41 130.75 135.99
  C 130.77 141.08 125.45 145.68 121.37 147.88
  Q 120.31 148.45 120.35 147.24
  L 121.02 126.61
  A 0.49 0.48 5.2 0 0 120.60 126.11
  L 117.72 125.69
  Q 116.44 125.51 117.28 124.53
  C 119.25 122.24 120.98 120.31 120.99 117.04
  Q 121.01 106.16 121.00 95.20
  Q 121.00 92.63 122.93 90.92
  L 129.27 85.31
  Q 130.98 83.80 130.98 86.08
  L 131.01 114.51
  A 0.46 0.45 -9.3 0 0 131.61 114.94
  Z
  M 189.59 134.03
  L 188.53 135.10
  A 0.42 0.42 0.0 0 0 188.63 135.77
  C 190.30 136.62 191.45 135.86 192.12 134.23
  Q 195.59 125.81 196.74 116.75
  C 197.95 107.30 201.27 92.43 191.82 89.65
  Q 186.25 88.00 178.21 88.02
  C 175.31 88.03 176.27 90.47 175.75 92.20
  C 173.14 100.94 167.99 117.43 172.83 125.85
  C 176.27 131.81 182.39 132.99 189.31 133.30
  Q 190.29 133.34 189.59 134.03
  Z"
/>
<path fill="#070706" d="
  M 304.50 115.47
  C 309.34 112.97 325.73 103.32 328.20 112.70
  Q 331.51 125.26 322.73 134.72
  C 313.68 144.48 304.70 151.75 290.75 150.02
  Q 286.55 149.50 285.93 144.67
  C 284.86 136.26 288.15 130.64 292.51 123.82
  Q 293.67 122.00 293.88 120.03
  Q 295.23 106.75 296.03 93.47
  Q 296.10 92.35 295.31 93.14
  L 287.24 101.21
  A 1.03 1.00 62.2 0 0 286.97 102.13
  Q 292.86 131.33 269.85 147.29
  C 265.76 150.12 261.56 151.88 256.81 151.89
  C 249.93 151.92 250.09 141.89 252.06 137.81
  Q 253.52 134.79 256.84 130.59
  Q 265.25 119.93 274.69 110.89
  Q 275.82 109.81 274.26 109.80
  Q 264.20 109.73 254.73 112.93
  Q 253.65 113.30 253.29 113.01
  A 1.42 1.41 39.4 0 1 253.09 110.99
  Q 261.07 101.60 266.76 90.70
  Q 267.40 89.48 266.05 89.78
  Q 256.52 91.94 249.86 99.50
  C 249.59 99.80 248.53 100.17 248.29 99.95
  A 1.27 1.27 0.0 0 1 248.17 98.22
  C 254.20 90.80 266.23 80.05 275.97 79.97
  A 1.22 1.22 0.0 0 1 277.08 81.72
  Q 271.79 92.60 264.09 101.94
  A 0.78 0.76 53.6 0 0 263.98 102.74
  L 264.08 102.99
  A 0.09 0.09 0.0 0 0 264.19 103.03
  Q 273.13 99.82 282.64 100.02
  Q 284.61 100.06 285.98 98.65
  C 291.10 93.37 297.94 85.27 304.99 82.44
  A 0.79 0.78 -9.9 0 1 306.07 83.19
  Q 305.62 96.04 303.95 108.78
  Q 303.68 110.87 305.14 109.35
  Q 321.81 92.05 343.19 81.18
  A 0.38 0.38 0.0 0 1 343.74 81.47
  C 344.52 89.07 342.68 96.97 341.78 105.19
  C 340.59 116.09 340.96 127.19 341.03 138.19
  C 341.05 141.09 341.46 143.66 342.42 146.16
  A 2.07 2.06 57.3 0 1 341.94 148.38
  L 335.14 155.10
  Q 332.95 157.26 331.99 154.34
  Q 330.88 150.97 330.74 145.74
  Q 330.06 120.35 334.21 94.32
  Q 334.74 91.01 331.75 92.54
  Q 317.05 100.08 304.69 113.68
  Q 304.12 114.31 304.06 115.18
  Q 304.02 115.71 304.50 115.47
  Z
  M 276.45 113.20
  C 272.84 115.36 266.93 122.90 264.07 126.34
  C 259.95 131.32 258.51 143.47 268.56 141.81
  C 272.78 141.12 274.79 139.46 276.13 135.26
  Q 279.47 124.87 277.45 113.65
  A 0.67 0.66 -20.6 0 0 276.45 113.20
  Z
  M 305.99 130.90
  Q 305.99 132.68 304.71 133.93
  L 299.21 139.29
  Q 298.62 139.87 299.44 139.96
  C 305.28 140.61 316.70 140.47 318.49 133.50
  Q 320.23 126.68 317.29 119.94
  A 1.87 1.86 75.0 0 0 315.38 118.83
  L 306.69 119.76
  A 0.77 0.77 0.0 0 0 306.00 120.53
  L 305.99 130.90
  Z"
/>
<path fill="#070706" d="
  M 229.96 118.22
  C 221.84 120.99 214.47 125.99 206.70 128.05
  A 1.17 1.17 0.0 0 1 205.23 126.98
  C 205.15 125.58 205.37 124.19 205.98 122.82
  C 211.45 110.63 220.14 100.23 230.19 91.53
  C 233.57 88.61 237.42 83.92 242.10 81.04
  Q 242.80 80.61 242.81 81.43
  C 242.98 91.56 241.14 124.63 247.70 131.64
  A 0.64 0.64 0.0 0 1 247.73 132.49
  Q 243.63 137.43 238.34 141.02
  A 0.63 0.63 0.0 0 1 237.49 140.88
  C 234.29 136.71 234.00 127.00 232.83 120.32
  Q 232.73 119.74 232.30 120.15
  Q 222.30 129.81 213.34 140.43
  A 1.20 1.18 -32.2 0 0 213.09 141.49
  L 213.24 142.08
  A 1.23 1.21 -35.7 0 1 213.07 143.07
  Q 208.02 150.57 200.58 155.70
  A 0.64 0.63 -36.4 0 1 199.74 155.58
  C 196.85 152.05 226.39 122.08 230.08 118.42
  Q 230.44 118.06 229.96 118.22
  Z
  M 231.46 95.12
  C 224.07 99.00 217.80 109.16 214.96 116.87
  A 0.86 0.86 0.0 0 0 215.67 118.02
  C 218.60 118.38 229.64 112.27 232.61 110.63
  A 0.85 0.83 75.3 0 0 233.03 109.90
  L 232.93 96.00
  A 1.00 1.00 0.0 0 0 231.46 95.12
  Z"
/>
<path fill="#070706" d="
  M 365.96 99.36
  Q 365.16 101.63 366.80 99.87
  C 369.34 97.15 384.54 82.84 387.68 84.09
  A 0.43 0.43 0.0 0 1 387.88 84.73
  Q 384.24 90.29 381.01 92.05
  C 368.82 98.70 360.69 109.04 360.11 123.30
  A 2.98 2.94 -65.6 0 0 360.90 125.44
  C 367.04 132.06 376.79 135.58 385.61 136.34
  C 388.53 136.60 391.49 137.21 394.63 136.29
  C 397.89 135.35 400.67 132.00 403.85 130.05
  A 0.46 0.45 61.3 0 1 404.49 130.24
  C 405.13 131.50 396.76 139.97 395.51 141.05
  C 386.62 148.75 374.62 146.42 364.51 143.80
  A 0.97 0.97 0.0 0 0 363.64 144.01
  C 360.32 146.91 355.75 153.47 350.68 149.75
  Q 349.04 148.54 349.02 146.51
  C 348.97 138.05 348.90 128.09 351.91 120.12
  C 355.97 109.33 357.38 94.83 368.61 89.29
  Q 369.72 88.75 369.30 89.91
  L 365.96 99.36
  Z"
/>
<path fill="#ffffff" d="
  M 189.31 133.30
  C 182.39 132.99 176.27 131.81 172.83 125.85
  C 167.99 117.43 173.14 100.94 175.75 92.20
  C 176.27 90.47 175.31 88.03 178.21 88.02
  Q 186.25 88.00 191.82 89.65
  C 201.27 92.43 197.95 107.30 196.74 116.75
  Q 195.59 125.81 192.12 134.23
  C 191.45 135.86 190.30 136.62 188.63 135.77
  A 0.42 0.42 0.0 0 1 188.53 135.10
  L 189.59 134.03
  Q 190.29 133.34 189.31 133.30
  Z"
/>
<path fill="#ffffff" d="
  M 214.96 116.87
  C 217.80 109.16 224.07 99.00 231.46 95.12
  A 1.00 1.00 0.0 0 1 232.93 96.00
  L 233.03 109.90
  A 0.85 0.83 75.3 0 1 232.61 110.63
  C 229.64 112.27 218.60 118.38 215.67 118.02
  A 0.86 0.86 0.0 0 1 214.96 116.87
  Z"
/>
<path fill="#ffffff" d="
  M 264.07 126.34
  C 266.93 122.90 272.84 115.36 276.45 113.20
  A 0.67 0.66 -20.6 0 1 277.45 113.65
  Q 279.47 124.87 276.13 135.26
  C 274.79 139.46 272.78 141.12 268.56 141.81
  C 258.51 143.47 259.95 131.32 264.07 126.34
  Z"
/>
<path fill="#ffffff" d="
  M 305.99 130.90
  L 306.00 120.53
  A 0.77 0.77 0.0 0 1 306.69 119.76
  L 315.38 118.83
  A 1.87 1.86 75.0 0 1 317.29 119.94
  Q 320.23 126.68 318.49 133.50
  C 316.70 140.47 305.28 140.61 299.44 139.96
  Q 298.62 139.87 299.21 139.29
  L 304.71 133.93
  Q 305.99 132.68 305.99 130.90
  Z"
/>
<path fill="#cccccc" d="
  M 237.44 224.00
  L 190.69 224.00
  L 183.60 223.25
  A 0.59 0.58 3.3 0 1 183.08 222.67
  C 183.10 217.67 189.28 215.68 189.34 209.08
  C 189.38 203.48 191.81 198.86 196.84 196.28
  C 200.50 194.40 203.71 191.05 207.46 189.88
  C 215.85 187.26 226.28 185.12 231.69 193.25
  C 232.85 195.01 233.09 197.01 234.06 199.07
  A 1.57 1.52 -89.2 0 0 234.73 199.78
  Q 241.42 203.40 238.43 210.77
  A 0.52 0.51 16.7 0 0 238.81 211.47
  L 240.01 211.70
  A 0.60 0.58 4.4 0 1 240.49 212.25
  Q 240.67 215.72 237.88 217.66
  A 1.08 1.07 60.9 0 0 237.51 218.96
  Q 238.61 221.57 237.44 224.00
  Z"
/>
</svg>
