<?xml version="1.0" encoding="UTF-8" standalone="no"?>
<!-- Created with Inkscape (http://www.inkscape.org/) -->

<svg
   xmlns:dc="http://purl.org/dc/elements/1.1/"
   xmlns:cc="http://creativecommons.org/ns#"
   xmlns:rdf="http://www.w3.org/1999/02/22-rdf-syntax-ns#"
   xmlns:svg="http://www.w3.org/2000/svg"
   xmlns="http://www.w3.org/2000/svg"
   xmlns:sodipodi="http://sodipodi.sourceforge.net/DTD/sodipodi-0.dtd"
   xmlns:inkscape="http://www.inkscape.org/namespaces/inkscape"
   width="400"
   height="600"
   viewBox="0 0 105.83333 158.75"
   version="1.1"
   id="svg8"
   inkscape:version="0.92.4 (5da689c313, 2019-01-14)"
   sodipodi:docname="26_m.svg">
  <defs
     id="defs2" />
  <sodipodi:namedview
     id="base"
     pagecolor="#ffffff"
     bordercolor="#666666"
     borderopacity="1.0"
     inkscape:pageopacity="0.0"
     inkscape:pageshadow="2"
     inkscape:zoom="1.2816667"
     inkscape:cx="200"
     inkscape:cy="362.41873"
     inkscape:document-units="mm"
     inkscape:current-layer="layer1"
     showgrid="false"
     units="px"
     showguides="true"
     inkscape:guide-bbox="true"
     inkscape:window-width="1280"
     inkscape:window-height="968"
     inkscape:window-x="0"
     inkscape:window-y="0"
     inkscape:window-maximized="1">
    <sodipodi:guide
       position="20.78869,60.476191"
       orientation="1,0"
       id="guide859"
       inkscape:locked="false" />
    <sodipodi:guide
       position="20.78869,128.88988"
       orientation="1,0"
       id="guide863"
       inkscape:locked="false" />
    <sodipodi:guide
       position="12.85119,57.641369"
       orientation="1,0"
       id="guide865"
       inkscape:locked="false" />
    <sodipodi:guide
       position="32.339612,108.51143"
       orientation="0,1"
       id="guide867"
       inkscape:locked="false" />
    <sodipodi:guide
       position="-9.0871638,97.553376"
       orientation="0,1"
       id="guide2596"
       inkscape:locked="false" />
    <sodipodi:guide
       position="-16.036171,64.144687"
       orientation="0,1"
       id="guide2598"
       inkscape:locked="false" />
  </sodipodi:namedview>
  <metadata
     id="metadata5">
    <rdf:RDF>
      <cc:Work
         rdf:about="">
        <dc:format>image/svg+xml</dc:format>
        <dc:type
           rdf:resource="http://purl.org/dc/dcmitype/StillImage" />
        <dc:title></dc:title>
      </cc:Work>
    </rdf:RDF>
  </metadata>
  <g
     inkscape:label="Layer 1"
     inkscape:groupmode="layer"
     id="layer1"
     transform="translate(0,-138.24998)">
    <rect
       style="opacity:1;fill:#ffffff;fill-opacity:0.60101007;stroke:#000000;stroke-width:0.27790931;stroke-miterlimit:4;stroke-dasharray:none;stroke-dashoffset:0;stroke-opacity:1"
       id="rect10"
       width="105.4538"
       height="158.75175"
       x="0.17799145"
       y="138.24911"
       ry="7.9375877" />
    <flowRoot
       xml:space="preserve"
       id="flowRoot851"
       style="fill:black;fill-opacity:1;stroke:none;font-family:sans-serif;font-style:normal;font-weight:normal;font-size:40px;line-height:0;letter-spacing:0px;word-spacing:0px"><flowRegion
         id="flowRegion853"><rect
           id="rect855"
           width="114.28571"
           height="65.714287"
           x="47.142857"
           y="194.28572" /></flowRegion><flowPara
         id="flowPara857" /></flowRoot>    <g
       id="g31817"
       transform="matrix(0.20462611,0,0,0.20462611,8.2020852,170.94829)">
      <g
         id="g31759"
         style="fill:none;stroke-width:2;stroke-linecap:butt">
        <path
           id="path31737"
           d="m 217.31,0 -0.89,0.73 a 1.35,1.34 -17 0 0 -0.5,0.93 q -0.64,6.32 -4.82,10.99 a 0.78,0.77 -46.4 0 0 0.02,1.05 l 2.08,2.16 a 1.49,1.49 0 0 1 0.07,2 q -2.29,2.69 -2.56,6.23 a 1.12,1.1 -66.5 0 0 0.34,0.89 l 6.61,6.21 a 1.17,1.16 24.5 0 1 0.36,0.95 q -0.18,2.23 0.71,4.23 a 0.56,0.55 -24.8 0 0 0.75,0.27 l 1.14,-0.57 a 0.5,0.5 0 0 1 0.69,0.26 c 3.24,8.22 10.3,10.72 18.2,7.44 q 4.18,-1.73 8.51,-3.15 a 0.99,0.99 0 0 0 0.66,-0.71 q 0.6,-2.49 3.19,-3.03 a 1.79,1.76 -74.8 0 0 0.96,-0.56 l 3.29,-3.81 a 1.11,1.09 59.9 0 0 0.24,-0.92 l -0.52,-2.63 a 0.82,0.82 0 0 1 0.32,-0.82 q 3.36,-2.47 2.83,-6.61 -0.06,-0.53 0.13,-1.02 l 1.36,-3.43 a 1.1,1.09 -52.4 0 0 -0.13,-1.06 q -1.17,-1.63 0.16,-2.89 a 1.92,1.82 -16 0 0 0.53,-0.9 c 0.5,-1.88 2.95,-9.72 2.17,-11.12 Q 262.58,-0.03 260.81,0"
           inkscape:connector-curvature="0"
           style="vector-effect:non-scaling-stroke;stroke:#f0f0f0" />
        <path
           id="path31739"
           d="m 237.44,224 q 1.17,-2.43 0.07,-5.04 a 1.08,1.07 60.9 0 1 0.37,-1.3 q 2.79,-1.94 2.61,-5.41 a 0.6,0.58 4.4 0 0 -0.48,-0.55 l -1.2,-0.23 a 0.52,0.51 16.7 0 1 -0.38,-0.7 q 2.99,-7.37 -3.7,-10.99 a 1.57,1.52 -89.2 0 1 -0.67,-0.71 c -0.97,-2.06 -1.21,-4.06 -2.37,-5.82 -5.41,-8.13 -15.84,-5.99 -24.23,-3.37 -3.75,1.17 -6.96,4.52 -10.62,6.4 -5.03,2.58 -7.46,7.2 -7.5,12.8 -0.06,6.6 -6.24,8.59 -6.26,13.59 a 0.59,0.58 3.3 0 0 0.52,0.58 l 7.09,0.75"
           inkscape:connector-curvature="0"
           style="vector-effect:non-scaling-stroke;stroke:#e6e6e6" />
        <path
           id="path31741"
           d="M 81.06,116.28 C 80.94,101.03 80.9,86.68 81.5,70.52 q 0.32,-8.57 0.24,-17.62 -0.02,-2.19 -1.9,-1.06 -4.27,2.55 -7.15,6.51 -0.91,1.26 -0.91,2.82 c 0.02,23.64 -1.38,47 0.09,70.64 0.19,3.05 -0.5,4.92 -1.86,7.44 q -3.91,7.26 -7.45,15.28 a 1.11,1.11 0 0 0 0.87,1.54 c 1.72,0.23 8.78,-8.14 9.75,-9.45 q 1.14,-1.54 1.38,0.36 l 0.77,6.2 q 0.31,2.47 2.2,0.85 l 6.74,-5.78 q 1.57,-1.36 1.27,-3.42 l -2.61,-17.67 a 4.94,4.93 -36.5 0 1 0.43,-2.85 q 7.58,-15.79 16.61,-30.79 0.93,-1.55 1.01,0.26 0.17,3.88 -0.1,8.79 -1.06,19.7 -0.86,39.43 c 0.06,6.46 -0.01,12.72 2.69,17.24 a 1.39,1.39 0 0 0 2.18,0.27 l 8.97,-9.04 a 0.58,0.58 0 0 0 -0.09,-0.89 l -1.74,-1.16 a 1.27,1.25 -80.4 0 1 -0.49,-0.7 q -1.42,-5.38 -1.48,-10.97 -0.37,-35.7 2.82,-71.26 0.14,-1.58 0.1,-2.73 a 0.69,0.68 74.7 0 0 -1.01,-0.58 q -5.37,2.98 -8.62,8.12 a 1.8,1.77 -30.9 0 0 -0.27,1.04 c 0.27,6.21 -1.11,10.28 -4.54,15.9 q -8.76,14.4 -17.03,29.15 -0.44,0.8 -0.45,-0.11"
           inkscape:connector-curvature="0"
           style="vector-effect:non-scaling-stroke;stroke:#838383" />
        <path
           id="path31743"
           d="m 131.01,114.51 -0.03,-28.43 q 0,-2.28 -1.71,-0.77 l -6.34,5.61 Q 121,92.63 121,95.2 q 0.01,10.96 -0.01,21.84 c -0.01,3.27 -1.74,5.2 -3.71,7.49 q -0.84,0.98 0.44,1.16 l 2.88,0.42 a 0.49,0.48 5.2 0 1 0.42,0.5 l -0.67,20.63 q -0.04,1.21 1.02,0.64 c 4.08,-2.2 9.4,-6.8 9.38,-11.89 q -0.02,-6.58 0.02,-13.11 a 0.87,0.86 -11.1 0 1 0.54,-0.8 l 9.9,-4.07 a 0.46,0.46 0 0 1 0.63,0.44 l -0.99,31.22 q -0.07,2.12 1.81,3.13 c 3.79,2.03 14.41,-12.54 16.08,-15.44 a 0.96,0.95 43.7 0 0 -0.03,-1.01 c -0.81,-1.24 -6.4,3.82 -7.18,4.55 q -0.43,0.4 -0.45,-0.18 -0.47,-13.52 0.86,-26.98 a 1.36,1.36 0 0 1 0.73,-1.08 q 4.82,-2.49 8.63,-6.33 0.36,-0.36 0.31,0.14 -1.09,12.74 -1.82,25.53 c -0.68,12.02 11.2,15.38 20.69,13.98 q 4.56,-0.68 9.07,-4.28 c 15.68,-12.52 19.12,-33.81 18.47,-52.76 -0.43,-12.59 -21.26,-12.67 -28.44,-7.85 q -11.34,7.6 -16.64,20.15 a 1.47,1.45 -1.9 0 1 -0.69,0.73 l -8.13,4.05 a 0.72,0.71 -12 0 1 -1.04,-0.67 l 1.1,-25.25 a 0.9,0.9 0 0 0 -1.29,-0.85 c -3.76,1.8 -8.62,6.06 -8.78,10.72 q -0.34,9.75 -0.9,19.56 a 2.38,2.38 0 0 1 -1.62,2.11 l -9.98,3.3 a 0.46,0.45 -9.3 0 1 -0.6,-0.43"
           inkscape:connector-curvature="0"
           style="vector-effect:non-scaling-stroke;stroke:#838383" />
        <path
           id="path31745"
           d="m 304.06,115.18 q 0.06,-0.87 0.63,-1.5 12.36,-13.6 27.06,-21.14 2.99,-1.53 2.46,1.78 -4.15,26.03 -3.47,51.42 0.14,5.23 1.25,8.6 0.96,2.92 3.15,0.76 l 6.8,-6.72 a 2.07,2.06 57.3 0 0 0.48,-2.22 c -0.96,-2.5 -1.37,-5.07 -1.39,-7.97 -0.07,-11 -0.44,-22.1 0.75,-33 0.9,-8.22 2.74,-16.12 1.96,-23.72 a 0.38,0.38 0 0 0 -0.55,-0.29 q -21.38,10.87 -38.05,28.17 -1.46,1.52 -1.19,-0.57 1.67,-12.74 2.12,-25.59 a 0.79,0.78 -9.9 0 0 -1.08,-0.75 c -7.05,2.83 -13.89,10.93 -19.01,16.21 q -1.37,1.41 -3.34,1.37 -9.51,-0.2 -18.45,3.01 a 0.09,0.09 0 0 1 -0.11,-0.04 l -0.1,-0.25 a 0.78,0.76 53.6 0 1 0.11,-0.8 q 7.7,-9.34 12.99,-20.22 a 1.22,1.22 0 0 0 -1.11,-1.75 c -9.74,0.08 -21.77,10.83 -27.8,18.25 a 1.27,1.27 0 0 0 0.12,1.73 c 0.24,0.22 1.3,-0.15 1.57,-0.45 q 6.66,-7.56 16.19,-9.72 1.35,-0.3 0.71,0.92 -5.69,10.9 -13.67,20.29 a 1.42,1.41 39.4 0 0 0.2,2.02 q 0.36,0.29 1.44,-0.08 9.47,-3.2 19.53,-3.13 1.56,0.01 0.43,1.09 -9.44,9.04 -17.85,19.7 -3.32,4.2 -4.78,7.22 c -1.97,4.08 -2.13,14.11 4.75,14.08 4.75,-0.01 8.95,-1.77 13.04,-4.6 q 23.01,-15.96 17.12,-45.16 a 1.03,1 62.2 0 1 0.27,-0.92 l 8.07,-8.07 q 0.79,-0.79 0.72,0.33 -0.8,13.28 -2.15,26.56 -0.21,1.97 -1.37,3.79 c -4.36,6.82 -7.65,12.44 -6.58,20.85 q 0.62,4.83 4.82,5.35 c 13.95,1.73 22.93,-5.54 31.98,-15.3 q 8.78,-9.46 5.47,-22.02 c -2.47,-9.38 -18.86,0.27 -23.7,2.77 q -0.48,0.24 -0.44,-0.29"
           inkscape:connector-curvature="0"
           style="vector-effect:non-scaling-stroke;stroke:#838383" />
        <path
           id="path31747"
           d="m 230.08,118.42 c -3.69,3.66 -33.23,33.63 -30.34,37.16 a 0.64,0.63 -36.4 0 0 0.84,0.12 q 7.44,-5.13 12.49,-12.63 a 1.23,1.21 -35.7 0 0 0.17,-0.99 l -0.15,-0.59 a 1.2,1.18 -32.2 0 1 0.25,-1.06 q 8.96,-10.62 18.96,-20.28 0.43,-0.41 0.53,0.17 c 1.17,6.68 1.46,16.39 4.66,20.56 a 0.63,0.63 0 0 0 0.85,0.14 q 5.29,-3.59 9.39,-8.53 a 0.64,0.64 0 0 0 -0.03,-0.85 c -6.56,-7.01 -4.72,-40.08 -4.89,-50.21 q -0.01,-0.82 -0.71,-0.39 c -4.68,2.88 -8.53,7.57 -11.91,10.49 -10.05,8.7 -18.74,19.1 -24.21,31.29 -0.61,1.37 -0.83,2.76 -0.75,4.16 a 1.17,1.17 0 0 0 1.47,1.07 c 7.77,-2.06 15.14,-7.06 23.26,-9.83 q 0.48,-0.16 0.12,0.2"
           inkscape:connector-curvature="0"
           style="vector-effect:non-scaling-stroke;stroke:#838383" />
        <path
           id="path31749"
           d="m 365.96,99.36 3.34,-9.45 q 0.42,-1.16 -0.69,-0.62 c -11.23,5.54 -12.64,20.04 -16.7,30.83 -3.01,7.97 -2.94,17.93 -2.89,26.39 q 0.02,2.03 1.66,3.24 c 5.07,3.72 9.64,-2.84 12.96,-5.74 a 0.97,0.97 0 0 1 0.87,-0.21 c 10.11,2.62 22.11,4.95 31,-2.75 1.25,-1.08 9.62,-9.55 8.98,-10.81 a 0.46,0.45 61.3 0 0 -0.64,-0.19 c -3.18,1.95 -5.96,5.3 -9.22,6.24 -3.14,0.92 -6.1,0.31 -9.02,0.05 -8.82,-0.76 -18.57,-4.28 -24.71,-10.9 a 2.98,2.94 -65.6 0 1 -0.79,-2.14 c 0.58,-14.26 8.71,-24.6 20.9,-31.25 q 3.23,-1.76 6.87,-7.32 a 0.43,0.43 0 0 0 -0.2,-0.64 c -3.14,-1.25 -18.34,13.06 -20.88,15.78 q -1.64,1.76 -0.84,-0.51"
           inkscape:connector-curvature="0"
           style="vector-effect:non-scaling-stroke;stroke:#838383" />
        <path
           id="path31751"
           d="m 189.59,134.03 -1.06,1.07 a 0.42,0.42 0 0 0 0.1,0.67 c 1.67,0.85 2.82,0.09 3.49,-1.54 q 3.47,-8.42 4.62,-17.48 c 1.21,-9.45 4.53,-24.32 -4.92,-27.1 Q 186.25,88 178.21,88.02 c -2.9,0.01 -1.94,2.45 -2.46,4.18 -2.61,8.74 -7.76,25.23 -2.92,33.65 3.44,5.96 9.56,7.14 16.48,7.45 q 0.98,0.04 0.28,0.73"
           inkscape:connector-curvature="0"
           style="vector-effect:non-scaling-stroke;stroke:#838383" />
        <path
           id="path31753"
           d="m 276.45,113.2 c -3.61,2.16 -9.52,9.7 -12.38,13.14 -4.12,4.98 -5.56,17.13 4.49,15.47 4.22,-0.69 6.23,-2.35 7.57,-6.55 q 3.34,-10.39 1.32,-21.61 a 0.67,0.66 -20.6 0 0 -1,-0.45"
           inkscape:connector-curvature="0"
           style="vector-effect:non-scaling-stroke;stroke:#838383" />
        <path
           id="path31755"
           d="m 305.99,130.9 q 0,1.78 -1.28,3.03 l -5.5,5.36 q -0.59,0.58 0.23,0.67 c 5.84,0.65 17.26,0.51 19.05,-6.46 q 1.74,-6.82 -1.2,-13.56 a 1.87,1.86 75 0 0 -1.91,-1.11 l -8.69,0.93 a 0.77,0.77 0 0 0 -0.69,0.77 l -0.01,10.37"
           inkscape:connector-curvature="0"
           style="vector-effect:non-scaling-stroke;stroke:#838383" />
        <path
           id="path31757"
           d="m 231.46,95.12 c -7.39,3.88 -13.66,14.04 -16.5,21.75 a 0.86,0.86 0 0 0 0.71,1.15 c 2.93,0.36 13.97,-5.75 16.94,-7.39 a 0.85,0.83 75.3 0 0 0.42,-0.73 L 232.93,96 a 1,1 0 0 0 -1.47,-0.88"
           inkscape:connector-curvature="0"
           style="vector-effect:non-scaling-stroke;stroke:#838383" />
      </g>
      <path
         id="path31761"
         d="m 0,0 h 217.31 l -0.89,0.73 a 1.35,1.34 -17 0 0 -0.5,0.93 q -0.64,6.32 -4.82,10.99 a 0.78,0.77 -46.4 0 0 0.02,1.05 l 2.08,2.16 a 1.49,1.49 0 0 1 0.07,2 q -2.29,2.69 -2.56,6.23 a 1.12,1.1 -66.5 0 0 0.34,0.89 l 6.61,6.21 a 1.17,1.16 24.5 0 1 0.36,0.95 q -0.18,2.23 0.71,4.23 a 0.56,0.55 -24.8 0 0 0.75,0.27 l 1.14,-0.57 a 0.5,0.5 0 0 1 0.69,0.26 c 3.24,8.22 10.3,10.72 18.2,7.44 q 4.18,-1.73 8.51,-3.15 a 0.99,0.99 0 0 0 0.66,-0.71 q 0.6,-2.49 3.19,-3.03 a 1.79,1.76 -74.8 0 0 0.96,-0.56 l 3.29,-3.81 a 1.11,1.09 59.9 0 0 0.24,-0.92 l -0.52,-2.63 a 0.82,0.82 0 0 1 0.32,-0.82 q 3.36,-2.47 2.83,-6.61 -0.06,-0.53 0.13,-1.02 l 1.36,-3.43 a 1.1,1.09 -52.4 0 0 -0.13,-1.06 q -1.17,-1.63 0.16,-2.89 a 1.92,1.82 -16 0 0 0.53,-0.9 c 0.5,-1.88 2.95,-9.72 2.17,-11.12 Q 262.58,-0.03 260.81,0 H 450 V 224 H 237.44 q 1.17,-2.43 0.07,-5.04 a 1.08,1.07 60.9 0 1 0.37,-1.3 q 2.79,-1.94 2.61,-5.41 a 0.6,0.58 4.4 0 0 -0.48,-0.55 l -1.2,-0.23 a 0.52,0.51 16.7 0 1 -0.38,-0.7 q 2.99,-7.37 -3.7,-10.99 a 1.57,1.52 -89.2 0 1 -0.67,-0.71 c -0.97,-2.06 -1.21,-4.06 -2.37,-5.82 -5.41,-8.13 -15.84,-5.99 -24.23,-3.37 -3.75,1.17 -6.96,4.52 -10.62,6.4 -5.03,2.58 -7.46,7.2 -7.5,12.8 -0.06,6.6 -6.24,8.59 -6.26,13.59 a 0.59,0.58 3.3 0 0 0.52,0.58 l 7.09,0.75 H 0 Z M 81.06,116.28 C 80.94,101.03 80.9,86.68 81.5,70.52 q 0.32,-8.57 0.24,-17.62 -0.02,-2.19 -1.9,-1.06 -4.27,2.55 -7.15,6.51 -0.91,1.26 -0.91,2.82 c 0.02,23.64 -1.38,47 0.09,70.64 0.19,3.05 -0.5,4.92 -1.86,7.44 q -3.91,7.26 -7.45,15.28 a 1.11,1.11 0 0 0 0.87,1.54 c 1.72,0.23 8.78,-8.14 9.75,-9.45 q 1.14,-1.54 1.38,0.36 l 0.77,6.2 q 0.31,2.47 2.2,0.85 l 6.74,-5.78 q 1.57,-1.36 1.27,-3.42 l -2.61,-17.67 a 4.94,4.93 -36.5 0 1 0.43,-2.85 q 7.58,-15.79 16.61,-30.79 0.93,-1.55 1.01,0.26 0.17,3.88 -0.1,8.79 -1.06,19.7 -0.86,39.43 c 0.06,6.46 -0.01,12.72 2.69,17.24 a 1.39,1.39 0 0 0 2.18,0.27 l 8.97,-9.04 a 0.58,0.58 0 0 0 -0.09,-0.89 l -1.74,-1.16 a 1.27,1.25 -80.4 0 1 -0.49,-0.7 q -1.42,-5.38 -1.48,-10.97 -0.37,-35.7 2.82,-71.26 0.14,-1.58 0.1,-2.73 a 0.69,0.68 74.7 0 0 -1.01,-0.58 q -5.37,2.98 -8.62,8.12 a 1.8,1.77 -30.9 0 0 -0.27,1.04 c 0.27,6.21 -1.11,10.28 -4.54,15.9 q -8.76,14.4 -17.03,29.15 -0.44,0.8 -0.45,-0.11 z m 49.95,-1.77 -0.03,-28.43 q 0,-2.28 -1.71,-0.77 l -6.34,5.61 Q 121,92.63 121,95.2 q 0.01,10.96 -0.01,21.84 c -0.01,3.27 -1.74,5.2 -3.71,7.49 q -0.84,0.98 0.44,1.16 l 2.88,0.42 a 0.49,0.48 5.2 0 1 0.42,0.5 l -0.67,20.63 q -0.04,1.21 1.02,0.64 c 4.08,-2.2 9.4,-6.8 9.38,-11.89 q -0.02,-6.58 0.02,-13.11 a 0.87,0.86 -11.1 0 1 0.54,-0.8 l 9.9,-4.07 a 0.46,0.46 0 0 1 0.63,0.44 l -0.99,31.22 q -0.07,2.12 1.81,3.13 c 3.79,2.03 14.41,-12.54 16.08,-15.44 a 0.96,0.95 43.7 0 0 -0.03,-1.01 c -0.81,-1.24 -6.4,3.82 -7.18,4.55 q -0.43,0.4 -0.45,-0.18 -0.47,-13.52 0.86,-26.98 a 1.36,1.36 0 0 1 0.73,-1.08 q 4.82,-2.49 8.63,-6.33 0.36,-0.36 0.31,0.14 -1.09,12.74 -1.82,25.53 c -0.68,12.02 11.2,15.38 20.69,13.98 q 4.56,-0.68 9.07,-4.28 c 15.68,-12.52 19.12,-33.81 18.47,-52.76 -0.43,-12.59 -21.26,-12.67 -28.44,-7.85 q -11.34,7.6 -16.64,20.15 a 1.47,1.45 -1.9 0 1 -0.69,0.73 l -8.13,4.05 a 0.72,0.71 -12 0 1 -1.04,-0.67 l 1.1,-25.25 a 0.9,0.9 0 0 0 -1.29,-0.85 c -3.76,1.8 -8.62,6.06 -8.78,10.72 q -0.34,9.75 -0.9,19.56 a 2.38,2.38 0 0 1 -1.62,2.11 l -9.98,3.3 a 0.46,0.45 -9.3 0 1 -0.6,-0.43 z m 173.05,0.67 q 0.06,-0.87 0.63,-1.5 12.36,-13.6 27.06,-21.14 2.99,-1.53 2.46,1.78 -4.15,26.03 -3.47,51.42 0.14,5.23 1.25,8.6 0.96,2.92 3.15,0.76 l 6.8,-6.72 a 2.07,2.06 57.3 0 0 0.48,-2.22 c -0.96,-2.5 -1.37,-5.07 -1.39,-7.97 -0.07,-11 -0.44,-22.1 0.75,-33 0.9,-8.22 2.74,-16.12 1.96,-23.72 a 0.38,0.38 0 0 0 -0.55,-0.29 q -21.38,10.87 -38.05,28.17 -1.46,1.52 -1.19,-0.57 1.67,-12.74 2.12,-25.59 a 0.79,0.78 -9.9 0 0 -1.08,-0.75 c -7.05,2.83 -13.89,10.93 -19.01,16.21 q -1.37,1.41 -3.34,1.37 -9.51,-0.2 -18.45,3.01 a 0.09,0.09 0 0 1 -0.11,-0.04 l -0.1,-0.25 a 0.78,0.76 53.6 0 1 0.11,-0.8 q 7.7,-9.34 12.99,-20.22 a 1.22,1.22 0 0 0 -1.11,-1.75 c -9.74,0.08 -21.77,10.83 -27.8,18.25 a 1.27,1.27 0 0 0 0.12,1.73 c 0.24,0.22 1.3,-0.15 1.57,-0.45 q 6.66,-7.56 16.19,-9.72 1.35,-0.3 0.71,0.92 -5.69,10.9 -13.67,20.29 a 1.42,1.41 39.4 0 0 0.2,2.02 q 0.36,0.29 1.44,-0.08 9.47,-3.2 19.53,-3.13 1.56,0.01 0.43,1.09 -9.44,9.04 -17.85,19.7 -3.32,4.2 -4.78,7.22 c -1.97,4.08 -2.13,14.11 4.75,14.08 4.75,-0.01 8.95,-1.77 13.04,-4.6 q 23.01,-15.96 17.12,-45.16 a 1.03,1 62.2 0 1 0.27,-0.92 l 8.07,-8.07 q 0.79,-0.79 0.72,0.33 -0.8,13.28 -2.15,26.56 -0.21,1.97 -1.37,3.79 c -4.36,6.82 -7.65,12.44 -6.58,20.85 q 0.62,4.83 4.82,5.35 c 13.95,1.73 22.93,-5.54 31.98,-15.3 q 8.78,-9.46 5.47,-22.02 c -2.47,-9.38 -18.86,0.27 -23.7,2.77 q -0.48,0.24 -0.44,-0.29 z m -73.98,3.24 c -3.69,3.66 -33.23,33.63 -30.34,37.16 a 0.64,0.63 -36.4 0 0 0.84,0.12 q 7.44,-5.13 12.49,-12.63 a 1.23,1.21 -35.7 0 0 0.17,-0.99 l -0.15,-0.59 a 1.2,1.18 -32.2 0 1 0.25,-1.06 q 8.96,-10.62 18.96,-20.28 0.43,-0.41 0.53,0.17 c 1.17,6.68 1.46,16.39 4.66,20.56 a 0.63,0.63 0 0 0 0.85,0.14 q 5.29,-3.59 9.39,-8.53 a 0.64,0.64 0 0 0 -0.03,-0.85 c -6.56,-7.01 -4.72,-40.08 -4.89,-50.21 q -0.01,-0.82 -0.71,-0.39 c -4.68,2.88 -8.53,7.57 -11.91,10.49 -10.05,8.7 -18.74,19.1 -24.21,31.29 -0.61,1.37 -0.83,2.76 -0.75,4.16 a 1.17,1.17 0 0 0 1.47,1.07 c 7.77,-2.06 15.14,-7.06 23.26,-9.83 q 0.48,-0.16 0.12,0.2 z m 135.88,-19.06 3.34,-9.45 q 0.42,-1.16 -0.69,-0.62 c -11.23,5.54 -12.64,20.04 -16.7,30.83 -3.01,7.97 -2.94,17.93 -2.89,26.39 q 0.02,2.03 1.66,3.24 c 5.07,3.72 9.64,-2.84 12.96,-5.74 a 0.97,0.97 0 0 1 0.87,-0.21 c 10.11,2.62 22.11,4.95 31,-2.75 1.25,-1.08 9.62,-9.55 8.98,-10.81 a 0.46,0.45 61.3 0 0 -0.64,-0.19 c -3.18,1.95 -5.96,5.3 -9.22,6.24 -3.14,0.92 -6.1,0.31 -9.02,0.05 -8.82,-0.76 -18.57,-4.28 -24.71,-10.9 a 2.98,2.94 -65.6 0 1 -0.79,-2.14 c 0.58,-14.26 8.71,-24.6 20.9,-31.25 q 3.23,-1.76 6.87,-7.32 a 0.43,0.43 0 0 0 -0.2,-0.64 c -3.14,-1.25 -18.34,13.06 -20.88,15.78 q -1.64,1.76 -0.84,-0.51 z"
         inkscape:connector-curvature="0"
         style="fill:#ffffff" />
      <path
         id="path31763"
         d="m 217.31,0 h 43.5 q 1.77,-0.03 2.4,1.11 c 0.78,1.4 -1.67,9.24 -2.17,11.12 a 1.92,1.82 -16 0 1 -0.53,0.9 q -1.33,1.26 -0.16,2.89 a 1.1,1.09 -52.4 0 1 0.13,1.06 l -1.36,3.43 q -0.19,0.49 -0.13,1.02 0.53,4.14 -2.83,6.61 a 0.82,0.82 0 0 0 -0.32,0.82 l 0.52,2.63 a 1.11,1.09 59.9 0 1 -0.24,0.92 l -3.29,3.81 a 1.79,1.76 -74.8 0 1 -0.96,0.56 q -2.59,0.54 -3.19,3.03 a 0.99,0.99 0 0 1 -0.66,0.71 q -4.33,1.42 -8.51,3.15 c -7.9,3.28 -14.96,0.78 -18.2,-7.44 a 0.5,0.5 0 0 0 -0.69,-0.26 l -1.14,0.57 a 0.56,0.55 -24.8 0 1 -0.75,-0.27 q -0.89,-2 -0.71,-4.23 a 1.17,1.16 24.5 0 0 -0.36,-0.95 l -6.61,-6.21 a 1.12,1.1 -66.5 0 1 -0.34,-0.89 q 0.27,-3.54 2.56,-6.23 a 1.49,1.49 0 0 0 -0.07,-2 l -2.08,-2.16 a 0.78,0.77 -46.4 0 1 -0.02,-1.05 q 4.18,-4.67 4.82,-10.99 a 1.35,1.34 -17 0 1 0.5,-0.93 z"
         inkscape:connector-curvature="0"
         style="fill:#e1e1e1" />
      <path
         id="path31765"
         d="m 81.06,116.28 q 0.01,0.91 0.45,0.11 8.27,-14.75 17.03,-29.15 c 3.43,-5.62 4.81,-9.69 4.54,-15.9 a 1.8,1.77 -30.9 0 1 0.27,-1.04 q 3.25,-5.14 8.62,-8.12 a 0.69,0.68 74.7 0 1 1.01,0.58 q 0.04,1.15 -0.1,2.73 -3.19,35.56 -2.82,71.26 0.06,5.59 1.48,10.97 a 1.27,1.25 -80.4 0 0 0.49,0.7 l 1.74,1.16 a 0.58,0.58 0 0 1 0.09,0.89 l -8.97,9.04 a 1.39,1.39 0 0 1 -2.18,-0.27 c -2.7,-4.52 -2.63,-10.78 -2.69,-17.24 q -0.2,-19.73 0.86,-39.43 0.27,-4.91 0.1,-8.79 -0.08,-1.81 -1.01,-0.26 -9.03,15 -16.61,30.79 a 4.94,4.93 -36.5 0 0 -0.43,2.85 l 2.61,17.67 q 0.3,2.06 -1.27,3.42 l -6.74,5.78 q -1.89,1.62 -2.2,-0.85 l -0.77,-6.2 q -0.24,-1.9 -1.38,-0.36 c -0.97,1.31 -8.03,9.68 -9.75,9.45 a 1.11,1.11 0 0 1 -0.87,-1.54 q 3.54,-8.02 7.45,-15.28 c 1.36,-2.52 2.05,-4.39 1.86,-7.44 -1.47,-23.64 -0.07,-47 -0.09,-70.64 q 0,-1.56 0.91,-2.82 2.88,-3.96 7.15,-6.51 1.88,-1.13 1.9,1.06 0.08,9.05 -0.24,17.62 c -0.6,16.16 -0.56,30.51 -0.44,45.76 z"
         inkscape:connector-curvature="0"
         style="fill:#070706" />
      <path
         id="path31767"
         d="m 131.61,114.94 9.98,-3.3 a 2.38,2.38 0 0 0 1.62,-2.11 q 0.56,-9.81 0.9,-19.56 c 0.16,-4.66 5.02,-8.92 8.78,-10.72 a 0.9,0.9 0 0 1 1.29,0.85 l -1.1,25.25 a 0.72,0.71 -12 0 0 1.04,0.67 l 8.13,-4.05 a 1.47,1.45 -1.9 0 0 0.69,-0.73 q 5.3,-12.55 16.64,-20.15 c 7.18,-4.82 28.01,-4.74 28.44,7.85 0.65,18.95 -2.79,40.24 -18.47,52.76 q -4.51,3.6 -9.07,4.28 c -9.49,1.4 -21.37,-1.96 -20.69,-13.98 q 0.73,-12.79 1.82,-25.53 0.05,-0.5 -0.31,-0.14 -3.81,3.84 -8.63,6.33 a 1.36,1.36 0 0 0 -0.73,1.08 q -1.33,13.46 -0.86,26.98 0.02,0.58 0.45,0.18 c 0.78,-0.73 6.37,-5.79 7.18,-4.55 a 0.96,0.95 43.7 0 1 0.03,1.01 c -1.67,2.9 -12.29,17.47 -16.08,15.44 q -1.88,-1.01 -1.81,-3.13 l 0.99,-31.22 a 0.46,0.46 0 0 0 -0.63,-0.44 l -9.9,4.07 a 0.87,0.86 -11.1 0 0 -0.54,0.8 q -0.04,6.53 -0.02,13.11 c 0.02,5.09 -5.3,9.69 -9.38,11.89 q -1.06,0.57 -1.02,-0.64 l 0.67,-20.63 a 0.49,0.48 5.2 0 0 -0.42,-0.5 l -2.88,-0.42 q -1.28,-0.18 -0.44,-1.16 c 1.97,-2.29 3.7,-4.22 3.71,-7.49 q 0.02,-10.88 0.01,-21.84 0,-2.57 1.93,-4.28 l 6.34,-5.61 q 1.71,-1.51 1.71,0.77 l 0.03,28.43 a 0.46,0.45 -9.3 0 0 0.6,0.43 z m 57.98,19.09 -1.06,1.07 a 0.42,0.42 0 0 0 0.1,0.67 c 1.67,0.85 2.82,0.09 3.49,-1.54 q 3.47,-8.42 4.62,-17.48 c 1.21,-9.45 4.53,-24.32 -4.92,-27.1 Q 186.25,88 178.21,88.02 c -2.9,0.01 -1.94,2.45 -2.46,4.18 -2.61,8.74 -7.76,25.23 -2.92,33.65 3.44,5.96 9.56,7.14 16.48,7.45 q 0.98,0.04 0.28,0.73 z"
         inkscape:connector-curvature="0"
         style="fill:#070706" />
      <path
         id="path31769"
         d="m 304.5,115.47 c 4.84,-2.5 21.23,-12.15 23.7,-2.77 q 3.31,12.56 -5.47,22.02 c -9.05,9.76 -18.03,17.03 -31.98,15.3 q -4.2,-0.52 -4.82,-5.35 c -1.07,-8.41 2.22,-14.03 6.58,-20.85 q 1.16,-1.82 1.37,-3.79 1.35,-13.28 2.15,-26.56 0.07,-1.12 -0.72,-0.33 l -8.07,8.07 a 1.03,1 62.2 0 0 -0.27,0.92 q 5.89,29.2 -17.12,45.16 c -4.09,2.83 -8.29,4.59 -13.04,4.6 -6.88,0.03 -6.72,-10 -4.75,-14.08 q 1.46,-3.02 4.78,-7.22 8.41,-10.66 17.85,-19.7 1.13,-1.08 -0.43,-1.09 -10.06,-0.07 -19.53,3.13 -1.08,0.37 -1.44,0.08 a 1.42,1.41 39.4 0 1 -0.2,-2.02 q 7.98,-9.39 13.67,-20.29 0.64,-1.22 -0.71,-0.92 -9.53,2.16 -16.19,9.72 c -0.27,0.3 -1.33,0.67 -1.57,0.45 a 1.27,1.27 0 0 1 -0.12,-1.73 c 6.03,-7.42 18.06,-18.17 27.8,-18.25 a 1.22,1.22 0 0 1 1.11,1.75 q -5.29,10.88 -12.99,20.22 a 0.78,0.76 53.6 0 0 -0.11,0.8 l 0.1,0.25 a 0.09,0.09 0 0 0 0.11,0.04 q 8.94,-3.21 18.45,-3.01 1.97,0.04 3.34,-1.37 c 5.12,-5.28 11.96,-13.38 19.01,-16.21 a 0.79,0.78 -9.9 0 1 1.08,0.75 q -0.45,12.85 -2.12,25.59 -0.27,2.09 1.19,0.57 16.67,-17.3 38.05,-28.17 a 0.38,0.38 0 0 1 0.55,0.29 c 0.78,7.6 -1.06,15.5 -1.96,23.72 -1.19,10.9 -0.82,22 -0.75,33 0.02,2.9 0.43,5.47 1.39,7.97 a 2.07,2.06 57.3 0 1 -0.48,2.22 l -6.8,6.72 q -2.19,2.16 -3.15,-0.76 -1.11,-3.37 -1.25,-8.6 -0.68,-25.39 3.47,-51.42 0.53,-3.31 -2.46,-1.78 -14.7,7.54 -27.06,21.14 -0.57,0.63 -0.63,1.5 -0.04,0.53 0.44,0.29 z m -28.05,-2.27 c -3.61,2.16 -9.52,9.7 -12.38,13.14 -4.12,4.98 -5.56,17.13 4.49,15.47 4.22,-0.69 6.23,-2.35 7.57,-6.55 q 3.34,-10.39 1.32,-21.61 a 0.67,0.66 -20.6 0 0 -1,-0.45 z m 29.54,17.7 q 0,1.78 -1.28,3.03 l -5.5,5.36 q -0.59,0.58 0.23,0.67 c 5.84,0.65 17.26,0.51 19.05,-6.46 q 1.74,-6.82 -1.2,-13.56 a 1.87,1.86 75 0 0 -1.91,-1.11 l -8.69,0.93 a 0.77,0.77 0 0 0 -0.69,0.77 z"
         inkscape:connector-curvature="0"
         style="fill:#070706" />
      <path
         id="path31771"
         d="m 229.96,118.22 c -8.12,2.77 -15.49,7.77 -23.26,9.83 a 1.17,1.17 0 0 1 -1.47,-1.07 c -0.08,-1.4 0.14,-2.79 0.75,-4.16 5.47,-12.19 14.16,-22.59 24.21,-31.29 3.38,-2.92 7.23,-7.61 11.91,-10.49 q 0.7,-0.43 0.71,0.39 c 0.17,10.13 -1.67,43.2 4.89,50.21 a 0.64,0.64 0 0 1 0.03,0.85 q -4.1,4.94 -9.39,8.53 a 0.63,0.63 0 0 1 -0.85,-0.14 C 234.29,136.71 234,127 232.83,120.32 q -0.1,-0.58 -0.53,-0.17 -10,9.66 -18.96,20.28 a 1.2,1.18 -32.2 0 0 -0.25,1.06 l 0.15,0.59 a 1.23,1.21 -35.7 0 1 -0.17,0.99 q -5.05,7.5 -12.49,12.63 a 0.64,0.63 -36.4 0 1 -0.84,-0.12 c -2.89,-3.53 26.65,-33.5 30.34,-37.16 q 0.36,-0.36 -0.12,-0.2 z m 1.5,-23.1 c -7.39,3.88 -13.66,14.04 -16.5,21.75 a 0.86,0.86 0 0 0 0.71,1.15 c 2.93,0.36 13.97,-5.75 16.94,-7.39 a 0.85,0.83 75.3 0 0 0.42,-0.73 L 232.93,96 a 1,1 0 0 0 -1.47,-0.88 z"
         inkscape:connector-curvature="0"
         style="fill:#070706" />
      <path
         id="path31773"
         d="m 365.96,99.36 q -0.8,2.27 0.84,0.51 c 2.54,-2.72 17.74,-17.03 20.88,-15.78 a 0.43,0.43 0 0 1 0.2,0.64 q -3.64,5.56 -6.87,7.32 c -12.19,6.65 -20.32,16.99 -20.9,31.25 a 2.98,2.94 -65.6 0 0 0.79,2.14 c 6.14,6.62 15.89,10.14 24.71,10.9 2.92,0.26 5.88,0.87 9.02,-0.05 3.26,-0.94 6.04,-4.29 9.22,-6.24 a 0.46,0.45 61.3 0 1 0.64,0.19 c 0.64,1.26 -7.73,9.73 -8.98,10.81 -8.89,7.7 -20.89,5.37 -31,2.75 a 0.97,0.97 0 0 0 -0.87,0.21 c -3.32,2.9 -7.89,9.46 -12.96,5.74 q -1.64,-1.21 -1.66,-3.24 c -0.05,-8.46 -0.12,-18.42 2.89,-26.39 4.06,-10.79 5.47,-25.29 16.7,-30.83 q 1.11,-0.54 0.69,0.62 z"
         inkscape:connector-curvature="0"
         style="fill:#070706" />
      <path
         id="path31775"
         d="m 189.31,133.3 c -6.92,-0.31 -13.04,-1.49 -16.48,-7.45 -4.84,-8.42 0.31,-24.91 2.92,-33.65 0.52,-1.73 -0.44,-4.17 2.46,-4.18 q 8.04,-0.02 13.61,1.63 c 9.45,2.78 6.13,17.65 4.92,27.1 q -1.15,9.06 -4.62,17.48 c -0.67,1.63 -1.82,2.39 -3.49,1.54 a 0.42,0.42 0 0 1 -0.1,-0.67 l 1.06,-1.07 q 0.7,-0.69 -0.28,-0.73 z"
         inkscape:connector-curvature="0"
         style="fill:#ffffff" />
      <path
         id="path31777"
         d="m 214.96,116.87 c 2.84,-7.71 9.11,-17.87 16.5,-21.75 a 1,1 0 0 1 1.47,0.88 l 0.1,13.9 a 0.85,0.83 75.3 0 1 -0.42,0.73 c -2.97,1.64 -14.01,7.75 -16.94,7.39 a 0.86,0.86 0 0 1 -0.71,-1.15 z"
         inkscape:connector-curvature="0"
         style="fill:#ffffff" />
      <path
         id="path31779"
         d="m 264.07,126.34 c 2.86,-3.44 8.77,-10.98 12.38,-13.14 a 0.67,0.66 -20.6 0 1 1,0.45 q 2.02,11.22 -1.32,21.61 c -1.34,4.2 -3.35,5.86 -7.57,6.55 -10.05,1.66 -8.61,-10.49 -4.49,-15.47 z"
         inkscape:connector-curvature="0"
         style="fill:#ffffff" />
      <path
         id="path31781"
         d="M 305.99,130.9 306,120.53 a 0.77,0.77 0 0 1 0.69,-0.77 l 8.69,-0.93 a 1.87,1.86 75 0 1 1.91,1.11 q 2.94,6.74 1.2,13.56 c -1.79,6.97 -13.21,7.11 -19.05,6.46 q -0.82,-0.09 -0.23,-0.67 l 5.5,-5.36 q 1.28,-1.25 1.28,-3.03 z"
         inkscape:connector-curvature="0"
         style="fill:#ffffff" />
      <path
         id="path31783"
         d="m 237.44,224 h -46.75 l -7.09,-0.75 a 0.59,0.58 3.3 0 1 -0.52,-0.58 c 0.02,-5 6.2,-6.99 6.26,-13.59 0.04,-5.6 2.47,-10.22 7.5,-12.8 3.66,-1.88 6.87,-5.23 10.62,-6.4 8.39,-2.62 18.82,-4.76 24.23,3.37 1.16,1.76 1.4,3.76 2.37,5.82 a 1.57,1.52 -89.2 0 0 0.67,0.71 q 6.69,3.62 3.7,10.99 a 0.52,0.51 16.7 0 0 0.38,0.7 l 1.2,0.23 a 0.6,0.58 4.4 0 1 0.48,0.55 q 0.18,3.47 -2.61,5.41 a 1.08,1.07 60.9 0 0 -0.37,1.3 q 1.1,2.61 -0.07,5.04 z"
         inkscape:connector-curvature="0"
         style="fill:#cccccc" />
    </g>
    <text
       xml:space="preserve"
       style="font-style:normal;font-weight:normal;font-size:33.90801239px;line-height:0;font-family:sans-serif;letter-spacing:0px;word-spacing:0px;fill:#666666;fill-opacity:1;stroke:none;stroke-width:0.84770024"
       x="19.838701"
       y="174.63515"
       id="text827"><tspan
         sodipodi:role="line"
         id="tspan825"
         x="19.838701"
         y="174.63515"
         style="font-style:normal;font-variant:normal;font-weight:bold;font-stretch:normal;font-family:Arsenal;-inkscape-font-specification:'Arsenal Bold';fill:#666666;stroke-width:0.84770024">26</tspan></text>
  </g>
</svg>
