<?xml version="1.0" encoding="UTF-8" standalone="no"?>
<!DOCTYPE svg PUBLIC "-//W3C//DTD SVG 1.1//EN" "http://www.w3.org/Graphics/SVG/1.1/DTD/svg11.dtd">
<svg xmlns="http://www.w3.org/2000/svg" version="1.1" viewBox="0 0 448 226">
<g stroke-width="2.00" fill="none" stroke-linecap="butt">
<path stroke="#e9e9e9" vector-effect="non-scaling-stroke" d="
  M 203.56 0.00
  L 200.01 0.37
  A 0.36 0.36 0.0 0 0 199.73 0.90
  L 200.24 1.89
  A 0.55 0.55 0.0 0 1 199.86 2.69
  Q 197.87 3.09 197.16 4.94
  A 0.76 0.76 0.0 0 1 196.51 5.43
  C 190.21 5.90 186.22 5.68 179.24 7.72
  Q 177.43 8.25 168.04 9.45
  A 1.06 1.05 -82.7 0 0 167.20 10.11
  L 165.95 13.33
  Q 165.32 14.96 163.68 15.58
  Q 158.61 17.49 155.35 21.80
  A 1.57 1.57 0.0 0 1 154.54 22.37
  C 150.68 23.51 148.04 24.28 144.51 26.80
  C 140.00 30.03 138.18 30.19 135.40 35.52
  A 0.51 0.50 20.3 0 1 134.85 35.77
  L 131.63 35.08
  A 0.76 0.75 14.3 0 0 130.75 35.59
  L 129.82 38.64
  A 1.33 1.33 0.0 0 1 129.17 39.43
  C 125.18 41.58 121.56 44.78 117.64 46.31
  Q 111.30 48.77 104.47 49.80
  A 1.32 1.30 16.5 0 0 103.70 50.21
  Q 98.83 55.53 92.92 59.62
  A 1.42 1.42 0.0 0 0 92.36 60.40
  Q 91.82 62.27 90.00 62.50
  Q 85.21 63.10 82.43 65.85"
/>
<path stroke="#868686" vector-effect="non-scaling-stroke" d="
  M 82.43 65.85
  C 72.90 67.35 65.25 73.01 57.02 78.69
  A 0.33 0.33 0.0 0 1 56.51 78.45
  Q 55.14 64.66 55.56 50.80
  A 0.86 0.84 -10.4 0 1 56.09 50.05
  Q 68.12 45.07 81.07 43.93
  C 85.96 43.50 89.31 39.99 91.18 35.72
  A 0.67 0.66 9.4 0 0 90.51 34.79
  Q 72.24 36.35 55.89 44.58
  Q 55.06 44.99 55.25 44.09
  L 55.51 42.84
  Q 55.71 41.92 54.85 42.30
  C 47.71 45.47 46.30 51.56 42.52 57.68
  A 0.45 0.43 38.6 0 0 42.59 58.22
  L 42.83 58.46
  A 0.40 0.40 0.0 0 0 43.38 58.46
  L 44.93 57.00
  Q 46.60 55.41 46.54 57.72
  Q 46.13 72.44 47.18 87.13
  A 1.02 0.98 -27.5 0 1 46.93 87.86
  L 45.29 89.74
  Q 44.41 90.74 45.71 90.46
  L 46.50 90.29
  A 0.57 0.56 79.5 0 1 47.18 90.76
  L 47.73 94.43
  A 0.85 0.85 0.0 0 1 47.37 95.26
  Q 43.24 98.16 40.46 102.34
  A 1.04 1.03 48.7 0 0 40.40 103.36
  L 42.79 108.25"
/>
<path stroke="#f0f0f0" vector-effect="non-scaling-stroke" d="
  M 42.79 108.25
  Q 41.87 109.06 38.72 108.21
  A 1.78 1.77 -71.4 0 0 36.60 109.27
  Q 35.20 112.81 33.94 116.06
  C 33.10 118.23 27.89 121.32 30.87 123.98
  Q 32.81 125.70 30.76 127.30
  L 24.42 132.23
  Q 22.82 133.48 24.37 134.79
  Q 25.83 136.03 24.89 137.72
  A 1.60 1.59 -86.1 0 1 24.07 138.44
  Q 22.02 139.25 20.74 140.99
  A 1.08 1.07 54.5 0 0 20.58 141.98
  C 22.00 146.23 23.36 148.96 21.68 154.04
  C 21.27 155.25 21.61 155.89 22.22 156.86
  A 1.74 1.72 29.5 0 1 22.48 157.77
  Q 22.54 169.51 34.44 172.55
  Q 43.68 174.91 50.96 173.40"
/>
<path stroke="#868686" vector-effect="non-scaling-stroke" d="
  M 50.96 173.40
  C 50.56 178.04 49.51 183.46 50.71 187.88
  C 52.45 194.29 58.72 199.10 64.94 200.71
  C 70.53 202.17 74.23 200.12 78.20 196.41
  C 90.32 185.09 89.43 170.47 89.41 154.60
  A 1.07 1.07 0.0 0 1 89.78 153.79
  Q 93.03 150.91 97.14 149.45
  A 0.38 0.38 0.0 0 1 97.65 149.83
  C 96.43 170.17 96.05 187.11 97.74 202.54
  A 0.36 0.36 0.0 0 0 98.29 202.80
  Q 103.01 199.81 106.35 195.34
  A 1.46 1.43 61.5 0 0 106.63 194.37
  Q 104.64 170.22 106.85 146.10
  A 1.33 1.33 0.0 0 1 107.95 144.92
  L 115.92 143.59
  A 0.82 0.82 0.0 0 1 116.82 144.12
  L 117.45 145.92
  A 0.43 0.43 0.0 0 0 118.13 146.12
  C 119.82 144.80 127.83 138.00 125.91 135.78
  Q 124.51 134.16 122.41 134.58
  Q 103.90 138.27 89.17 149.97
  A 0.44 0.44 0.0 0 1 88.46 149.70
  Q 87.55 144.01 83.46 140.00"
/>
<path stroke="#e9e9e9" vector-effect="non-scaling-stroke" d="
  M 83.46 140.00
  Q 85.32 137.89 84.46 135.22
  A 0.80 0.79 73.4 0 1 85.00 134.21
  L 91.61 132.39
  A 0.71 0.71 0.0 0 0 92.13 131.68
  L 91.97 128.24
  A 0.72 0.71 79.4 0 1 92.46 127.52
  C 99.45 125.37 101.37 119.99 105.00 114.79"
/>
<path stroke="#868686" vector-effect="non-scaling-stroke" d="
  M 105.00 114.79
  Q 126.15 113.27 136.31 112.31
  Q 136.82 112.26 137.58 111.76
  A 0.58 0.58 0.0 0 1 138.32 111.84
  Q 140.73 114.32 144.25 114.40
  C 156.40 114.67 164.32 108.66 170.93 99.11
  Q 171.22 98.69 171.34 99.18
  Q 172.66 104.44 170.42 109.24
  C 169.92 110.30 169.75 111.87 170.41 112.70
  Q 171.67 114.28 173.38 113.20
  Q 177.37 110.67 180.33 107.10
  C 183.18 103.68 180.96 95.44 180.77 91.52
  A 0.59 0.58 82.3 0 1 181.22 90.92
  L 189.19 89.03
  A 0.42 0.42 0.0 0 1 189.71 89.44
  C 189.73 93.65 189.04 112.97 196.67 112.11
  A 0.52 0.51 82.3 0 1 197.23 112.54
  C 198.24 118.73 205.83 119.27 210.17 116.42
  C 212.72 114.75 219.30 109.62 219.65 106.48
  Q 219.71 105.95 219.25 106.21
  C 217.36 107.24 215.51 108.63 213.47 108.95
  C 207.32 109.90 205.36 105.05 206.52 99.57
  A 0.76 0.75 -1.4 0 1 207.06 99.01
  L 221.69 95.14
  A 0.63 0.63 0.0 0 1 222.42 95.49
  C 224.00 99.11 228.47 105.69 228.54 109.28
  Q 228.59 111.58 230.24 109.97
  L 237.01 103.37
  Q 239.13 101.30 237.66 98.73
  L 233.49 91.44
  A 0.58 0.58 0.0 0 1 233.56 90.75
  L 237.87 85.83
  Q 238.32 85.31 238.41 85.99
  L 240.68 103.20
  A 0.97 0.95 -22.9 0 1 240.31 104.08
  C 237.38 106.28 226.00 115.57 226.40 119.28
  Q 226.65 121.61 228.81 120.70
  C 235.95 117.72 242.49 114.03 247.90 108.66
  Q 250.29 106.28 253.60 107.45
  C 256.60 108.51 257.66 111.69 258.41 114.55
  A 0.78 0.77 -27.4 0 1 258.15 115.35
  C 253.45 119.20 249.00 123.88 252.09 129.57
  Q 253.13 131.49 255.11 130.55
  C 262.08 127.26 267.63 122.18 267.81 114.15
  A 0.54 0.53 -0.6 0 1 268.33 113.63
  Q 276.57 113.38 284.52 111.10
  Q 285.38 110.85 284.88 111.59
  Q 279.60 119.43 275.93 128.14
  A 0.60 0.60 0.0 0 0 276.20 128.90
  C 276.81 129.21 277.69 129.01 278.27 128.55
  Q 283.09 124.80 283.77 123.22
  C 287.34 114.88 290.88 107.93 297.34 101.43
  A 0.84 0.83 -31.4 0 0 297.55 100.59
  L 297.21 99.51
  A 1.25 1.25 0.0 0 1 297.32 98.50
  Q 300.81 92.56 305.25 87.29
  A 0.47 0.46 -41.7 0 1 305.99 87.33
  C 309.05 91.95 306.94 94.72 306.97 99.34
  Q 307.06 109.81 306.96 120.25"
/>
<path stroke="#f0f0f0" vector-effect="non-scaling-stroke" d="
  M 306.96 120.25
  Q 306.66 121.37 304.40 120.58
  A 1.52 1.50 44.0 0 0 303.35 120.59
  C 298.89 122.23 299.05 123.31 297.19 127.26
  A 1.64 1.62 87.0 0 1 296.55 127.98
  C 293.34 129.95 289.39 131.52 290.69 136.30
  A 1.69 1.68 -42.8 0 1 290.65 137.25
  Q 290.17 138.65 289.55 139.99
  C 288.53 142.20 288.76 144.67 286.67 146.65
  A 1.47 1.47 0.0 0 0 286.62 148.74
  L 288.36 150.54
  A 1.13 1.11 29.0 0 1 288.66 151.55
  C 287.63 156.77 289.50 163.47 290.83 168.58
  C 291.12 169.70 290.78 170.30 290.41 171.31
  A 1.73 1.65 -41.6 0 0 290.33 172.26
  C 290.94 175.43 292.57 178.16 292.99 181.26
  Q 293.27 183.29 293.67 185.32
  A 0.70 0.70 0.0 0 0 294.24 185.88
  L 297.57 186.46
  A 0.74 0.74 0.0 0 1 298.18 187.08
  Q 299.06 193.22 302.51 198.41
  A 1.25 1.25 0.0 0 1 302.70 199.35
  L 301.83 204.03
  Q 301.74 204.51 301.42 204.88
  Q 299.82 206.76 300.34 209.28
  A 1.61 1.57 16.7 0 0 300.79 210.09
  C 302.62 211.85 303.78 212.74 304.43 215.38
  Q 305.59 220.12 306.75 224.82
  A 0.93 0.91 2.5 0 0 307.37 225.48
  L 308.94 226.00"
/>
<path stroke="#868686" vector-effect="non-scaling-stroke" d="
  M 181.15 148.47
  Q 181.36 147.82 182.04 147.28
  Q 185.72 144.38 188.25 139.99
  A 0.41 0.41 0.0 0 0 188.01 139.40
  C 183.60 138.04 174.32 140.42 170.71 141.34
  Q 154.87 145.34 139.75 151.56
  Q 139.19 151.79 139.66 151.40
  Q 144.34 147.53 145.19 141.45
  Q 145.61 138.50 142.64 138.28
  C 133.76 137.62 125.37 147.74 121.50 154.97
  Q 112.00 172.70 112.19 191.81
  C 112.22 194.80 113.06 197.05 115.67 198.37
  C 130.08 205.63 143.01 192.96 150.96 182.33
  Q 151.26 181.92 151.32 182.42
  C 151.80 186.53 152.77 195.85 150.69 199.39
  A 0.61 0.61 0.0 0 0 150.84 200.17
  C 151.95 201.06 154.32 199.28 155.17 198.70
  Q 156.53 197.75 156.28 199.40
  C 155.79 202.63 157.68 204.31 160.81 204.00
  C 165.38 203.54 175.20 195.39 175.44 191.76
  A 0.32 0.31 79.0 0 0 174.99 191.45
  C 171.56 193.11 171.84 195.20 167.23 194.92
  A 1.59 1.59 0.0 0 1 165.73 193.29
  Q 165.86 188.67 166.38 183.54
  Q 166.72 180.25 169.43 179.65
  C 172.66 178.92 175.82 177.92 179.17 177.30
  A 0.59 0.59 0.0 0 1 179.86 177.78
  L 183.08 195.91
  A 1.25 1.23 -31.7 0 1 182.84 196.89
  L 181.15 199.11
  A 0.81 0.80 42.9 0 0 181.19 200.14
  C 182.20 201.25 187.72 195.75 188.46 194.87
  Q 189.34 193.82 189.49 195.18
  C 190.01 199.99 194.53 202.70 199.01 202.06
  C 202.86 201.51 205.91 197.69 208.36 194.71
  Q 210.01 192.70 207.43 193.05
  Q 198.04 194.30 198.34 184.00
  C 198.78 169.05 207.19 152.01 222.51 147.51
  Q 223.01 147.36 222.62 147.72
  C 216.62 153.12 215.98 153.63 215.51 162.35
  Q 214.53 180.74 214.78 199.20
  Q 214.82 202.38 217.50 200.67
  Q 221.72 197.98 224.35 193.89
  A 1.26 1.24 54.4 0 0 224.51 192.87
  Q 223.73 190.12 223.72 187.99
  Q 223.62 170.19 225.27 149.84
  C 225.61 145.65 229.51 142.65 232.64 139.89
  Q 233.18 139.42 232.95 138.75
  A 0.68 0.67 78.3 0 0 232.26 138.29
  C 220.42 139.38 207.23 153.67 200.22 162.39
  C 197.42 165.88 193.48 166.92 189.28 167.42
  A 0.48 0.47 82.0 0 1 188.75 167.02
  L 185.60 147.79
  A 1.25 1.25 0.0 0 0 183.61 147.00
  L 181.44 148.67
  Q 180.97 149.03 181.15 148.47"
/>
<path stroke="#e9e9e9" vector-effect="non-scaling-stroke" d="
  M 381.31 0.00
  L 388.21 1.41
  A 0.38 0.38 0.0 0 1 388.46 1.98
  Q 386.72 4.88 383.85 6.54
  A 1.40 1.37 -6.8 0 0 383.23 7.31
  C 382.36 10.06 381.87 12.32 379.35 14.03
  C 373.35 18.11 369.87 18.59 363.24 15.31
  A 0.59 0.58 -58.6 0 0 362.52 15.49
  C 361.79 16.47 361.59 16.65 360.28 16.32
  C 349.99 13.75 337.01 10.63 328.78 18.39
  A 0.67 0.66 41.3 0 1 327.93 18.44
  L 321.47 13.77
  A 0.52 0.52 0.0 0 0 320.68 13.99
  Q 318.14 20.33 311.23 17.98
  A 0.62 0.62 0.0 0 0 310.44 18.37
  L 309.55 21.00
  A 1.91 1.91 0.0 0 1 307.27 22.25
  Q 301.61 20.84 296.31 23.24
  A 1.23 1.22 -45.3 0 1 295.35 23.25
  Q 292.26 21.92 290.03 19.39
  A 0.48 0.48 0.0 0 0 289.24 19.51
  L 289.01 20.00
  A 1.28 1.24 1.9 0 1 288.26 20.68
  C 282.54 22.69 277.38 24.04 271.35 24.78
  Q 268.25 25.15 264.95 26.71
  Q 250.51 33.52 243.68 36.96
  Q 241.10 38.27 238.53 38.44
  C 235.18 38.68 230.95 38.01 227.97 39.52
  Q 225.17 40.95 222.34 42.36
  C 220.44 43.31 219.74 45.53 217.85 46.77
  Q 213.76 49.45 209.42 51.06
  Q 208.20 51.51 206.91 51.38
  L 203.55 51.04
  Q 202.30 50.92 203.19 51.81
  L 204.50 53.12
  A 0.43 0.42 -32.4 0 1 204.34 53.82
  L 199.04 55.75"
/>
<path stroke="#707070" vector-effect="non-scaling-stroke" d="
  M 199.04 55.75
  L 198.95 54.32
  Q 198.88 53.29 198.12 54.00
  L 192.29 59.50"
/>
<path stroke="#e9e9e9" vector-effect="non-scaling-stroke" d="
  M 192.29 59.50
  Q 191.23 58.50 189.81 58.66
  A 0.62 0.61 -0.7 0 0 189.27 59.20
  C 189.14 60.42 188.62 60.83 187.39 61.05
  Q 183.18 61.80 179.31 63.85"
/>
<path stroke="#707070" vector-effect="non-scaling-stroke" d="
  M 179.31 63.85
  L 179.21 57.44
  Q 179.18 55.84 177.93 56.83
  C 174.20 59.76 169.13 63.83 170.12 69.24
  A 0.31 0.31 0.0 0 1 169.73 69.59
  C 163.97 67.97 158.22 69.40 152.73 71.52
  Q 152.27 71.70 152.53 71.28
  C 153.92 69.03 163.28 55.49 158.25 54.05
  A 1.36 1.34 -48.8 0 0 157.31 54.12
  Q 148.31 58.22 142.55 66.15
  C 140.62 68.81 139.52 69.85 136.49 70.48
  Q 123.88 73.08 110.72 78.34
  A 0.37 0.36 -9.6 0 1 110.22 77.99
  L 110.40 72.38
  A 0.90 0.90 0.0 0 1 111.03 71.55
  L 126.18 66.80
  Q 129.21 65.85 127.44 68.48
  L 126.40 70.01
  A 0.48 0.48 0.0 0 0 126.53 70.67
  C 128.07 71.74 140.94 58.30 140.61 57.25
  A 0.62 0.61 -13.8 0 0 139.91 56.83
  Q 124.90 59.71 110.85 65.71
  A 0.38 0.38 0.0 0 1 110.32 65.36
  L 110.34 61.80
  Q 110.35 60.90 109.61 61.42
  Q 105.06 64.71 101.74 69.21
  C 100.30 71.16 91.76 77.70 92.79 79.93
  A 0.44 0.43 60.0 0 0 93.43 80.11
  C 95.62 78.59 98.05 76.25 100.76 75.86
  A 0.43 0.42 -4.1 0 1 101.25 76.28
  L 101.25 103.07
  A 1.64 1.64 0.0 0 1 100.94 104.03
  L 95.11 111.94
  A 1.15 1.15 0.0 0 0 95.91 113.77
  L 105.00 114.79"
/>
<path stroke="#707070" vector-effect="non-scaling-stroke" d="
  M 83.46 140.00
  Q 76.90 136.70 70.54 140.25"
/>
<path stroke="#dadada" vector-effect="non-scaling-stroke" d="
  M 70.54 140.25
  Q 72.15 134.94 67.09 132.92
  A 1.44 1.43 -2.4 0 1 66.37 132.26
  L 65.67 130.90
  A 1.36 1.35 37.6 0 1 65.55 130.00
  L 66.02 127.78
  A 0.70 0.70 0.0 0 0 65.64 127.01
  Q 62.98 125.73 63.22 122.72
  A 1.42 1.42 0.0 0 0 61.97 121.20
  Q 59.27 120.89 58.67 118.38
  A 0.18 0.17 -6.2 0 0 58.50 118.25
  L 58.24 118.26
  Q 58.04 118.26 58.33 118.00
  Q 58.59 117.76 58.50 117.29"
/>
<path stroke="#707070" vector-effect="non-scaling-stroke" d="
  M 58.50 117.29
  C 79.36 117.43 92.92 99.50 89.81 79.42
  C 89.04 74.40 88.65 65.59 82.43 65.85"
/>
<path stroke="#f0f0f0" vector-effect="non-scaling-stroke" d="
  M 359.44 226.00
  L 359.72 225.77
  A 0.45 0.45 0.0 0 0 359.83 225.19
  C 356.45 219.43 355.47 213.41 354.01 207.02
  C 353.60 205.23 352.36 204.25 351.80 202.44
  A 1.34 1.34 0.0 0 1 351.91 201.39
  L 354.00 197.70
  A 0.70 0.69 -48.1 0 0 353.97 196.97
  Q 350.11 191.36 348.19 184.79
  A 1.42 1.39 -83.7 0 0 347.54 183.96
  L 344.24 182.07
  Q 342.36 180.99 343.22 179.01
  L 344.79 175.39
  A 0.65 0.65 0.0 0 0 344.56 174.60
  L 342.74 173.35
  A 1.05 1.05 0.0 0 1 342.28 172.43
  Q 342.43 168.05 340.40 164.34
  C 338.47 160.83 338.13 157.25 336.88 153.57
  C 335.51 149.54 335.84 146.67 337.18 142.94
  A 1.09 1.06 40.2 0 0 337.09 142.03
  C 335.87 140.02 331.67 136.49 333.85 133.90
  A 0.85 0.84 51.3 0 0 333.95 132.97
  L 332.63 130.41
  A 0.64 0.63 67.1 0 0 331.88 130.10
  L 330.11 130.65
  A 0.56 0.56 0.0 0 1 329.39 130.23
  L 328.62 126.66
  A 1.69 1.69 0.0 0 0 327.16 125.33
  Q 325.21 125.12 325.55 122.98
  A 0.36 0.36 0.0 0 0 325.15 122.56
  C 323.71 122.74 317.71 125.10 317.21 123.00"
/>
<path stroke="#868686" vector-effect="non-scaling-stroke" d="
  M 317.21 123.00
  C 318.74 121.29 321.97 119.67 317.18 118.57
  A 0.67 0.66 88.3 0 1 316.70 118.11
  C 315.33 113.59 316.29 108.54 316.03 103.79
  A 0.43 0.42 65.3 0 1 316.14 103.48
  L 316.32 103.30
  A 0.25 0.25 0.0 0 1 316.71 103.34
  L 325.69 117.59
  A 0.72 0.72 0.0 0 0 326.63 117.85
  Q 330.39 115.91 332.97 112.52
  Q 334.02 111.14 334.26 112.86
  Q 334.64 115.59 337.07 115.35
  A 1.43 1.42 19.5 0 0 337.94 114.94
  L 343.68 109.19
  Q 344.28 108.59 344.37 109.43
  Q 344.71 112.60 346.72 115.15
  Q 348.35 117.23 350.47 115.65
  Q 354.44 112.69 357.57 108.79
  A 0.51 0.50 -46.1 0 1 358.34 108.77
  Q 361.62 112.54 367.53 114.14
  C 377.32 116.79 382.85 113.59 389.85 106.59
  Q 403.66 92.77 401.21 71.71
  C 399.88 60.37 382.67 52.51 373.18 58.43
  C 364.37 63.92 360.18 72.83 355.57 81.81
  Q 355.33 82.26 354.99 82.34
  A 0.38 0.37 89.6 0 1 354.55 81.90
  Q 356.57 71.16 356.24 60.24
  A 0.39 0.39 0.0 0 0 355.65 59.91
  C 352.17 61.97 347.47 65.90 347.31 70.32
  Q 346.99 78.96 346.06 87.62
  A 0.81 0.80 -3.0 0 1 345.42 88.32
  L 341.52 89.11
  A 0.64 0.63 -5.9 0 1 340.75 88.49
  L 340.75 67.35
  A 0.37 0.37 0.0 0 0 340.24 67.01
  C 329.45 71.59 331.43 80.28 331.85 89.76
  A 0.91 0.91 0.0 0 1 330.94 90.72
  Q 327.61 90.71 325.19 92.98
  A 0.56 0.56 0.0 0 1 324.34 92.88
  L 317.38 82.53
  A 1.40 1.37 -59.1 0 1 317.16 81.60
  L 318.01 74.49
  A 1.64 1.64 0.0 0 1 318.38 73.64
  C 319.43 72.38 326.82 64.98 326.80 64.34
  A 0.42 0.42 0.0 0 0 326.22 63.97
  Q 322.34 65.60 319.44 68.71
  Q 318.88 69.32 319.06 68.51
  L 322.22 53.96
  Q 322.43 53.03 321.56 53.43
  C 314.54 56.66 312.43 62.49 311.45 69.82
  Q 311.27 71.22 310.65 69.95
  L 307.60 63.64
  A 0.56 0.56 0.0 0 0 306.83 63.40
  Q 302.56 65.81 299.45 69.61
  Q 298.13 71.23 299.05 73.11
  L 303.78 82.67
  A 1.81 1.81 0.0 0 1 303.56 84.61
  Q 297.49 92.01 292.06 99.83
  C 288.59 104.83 280.94 104.48 276.07 104.50
  A 0.53 0.53 0.0 0 1 275.53 103.99
  L 274.90 89.74
  Q 274.82 87.83 276.70 87.53
  C 285.44 86.10 293.73 87.80 298.57 78.18
  Q 299.35 76.63 297.63 76.82
  Q 287.17 77.97 276.77 79.68
  Q 276.09 79.79 275.31 80.10
  A 0.44 0.44 0.0 0 1 274.70 79.68
  L 274.89 69.65
  A 0.82 0.80 -9.6 0 1 275.43 68.91
  Q 282.60 66.43 290.10 67.42
  A 1.46 1.44 31.6 0 0 291.09 67.19
  Q 295.29 64.39 297.95 59.97
  Q 299.50 57.40 296.51 57.63
  C 286.62 58.38 270.81 60.51 265.68 69.76
  A 1.54 1.53 -33.8 0 0 265.49 70.70
  Q 265.97 74.53 265.90 78.39
  C 265.76 85.62 265.82 92.84 265.60 100.08
  Q 265.58 100.74 265.08 100.31
  Q 261.14 96.87 256.11 99.03
  Q 254.68 99.65 255.52 98.34
  Q 268.05 78.93 262.26 56.17
  Q 261.64 53.75 259.16 53.51
  C 252.07 52.84 237.60 63.18 235.64 69.98
  A 0.32 0.32 0.0 0 0 236.02 70.38
  C 237.95 69.95 240.34 67.24 241.80 65.90
  C 244.29 63.62 247.36 62.61 250.44 62.50
  Q 252.84 62.41 253.27 64.77
  C 255.39 76.46 256.01 86.88 250.54 97.76
  Q 250.32 98.22 250.21 97.72
  C 249.34 93.82 249.30 89.37 248.75 85.94
  Q 247.19 76.14 246.38 65.65
  A 0.51 0.50 -15.1 0 0 245.66 65.24
  Q 234.28 70.56 238.50 82.87
  A 0.93 0.93 0.0 0 1 237.83 84.07
  L 233.12 85.15
  Q 231.05 85.63 230.65 83.53
  Q 228.89 74.17 229.28 65.49
  Q 229.37 63.63 228.50 62.96"
/>
<path stroke="#e9e9e9" vector-effect="non-scaling-stroke" d="
  M 228.50 62.96
  L 228.46 62.50"
/>
<path stroke="#868686" vector-effect="non-scaling-stroke" d="
  M 228.46 62.50
  C 233.24 59.13 236.50 57.05 238.95 52.93
  A 0.37 0.37 0.0 0 0 238.70 52.38
  C 235.24 51.80 223.03 63.72 220.44 66.56
  Q 208.76 79.30 199.72 94.12
  Q 199.09 95.14 199.08 93.94
  L 198.97 86.66
  A 1.21 1.21 0.0 0 1 199.42 85.70
  C 200.78 84.61 210.48 76.50 209.09 74.53
  A 0.48 0.48 0.0 0 0 208.38 74.43
  Q 204.82 77.37 200.52 79.09
  A 1.10 1.09 79.1 0 1 199.02 78.07
  L 199.04 55.75"
/>
<path stroke="#868686" vector-effect="non-scaling-stroke" d="
  M 285.5441 24.6978
  A 10.35 1.31 -42.8 0 0 277.0599 30.7688
  A 10.35 1.31 -42.8 0 0 270.3559 38.7622
  A 10.35 1.31 -42.8 0 0 278.8401 32.6912
  A 10.35 1.31 -42.8 0 0 285.5441 24.6978"
/>
<path stroke="#868686" vector-effect="non-scaling-stroke" d="
  M 279.8684 45.0465
  A 10.13 1.43 133.1 0 0 287.8341 38.6271
  A 10.13 1.43 133.1 0 0 293.7116 30.2535
  A 10.13 1.43 133.1 0 0 285.7459 36.6729
  A 10.13 1.43 133.1 0 0 279.8684 45.0465"
/>
<path stroke="#767676" vector-effect="non-scaling-stroke" d="
  M 58.50 117.29
  C 51.91 117.73 46.43 113.26 42.79 108.25"
/>
<path stroke="#868686" vector-effect="non-scaling-stroke" d="
  M 72.84 75.30
  Q 63.81 77.11 56.89 82.91
  A 0.93 0.91 -24.9 0 0 56.58 83.73
  L 58.04 94.25"
/>
<path stroke="#767676" vector-effect="non-scaling-stroke" d="
  M 58.04 94.25
  Q 58.29 100.45 60.47 106.10
  Q 61.21 108.01 63.25 108.17
  C 68.15 108.55 79.19 108.51 80.35 102.51
  C 81.06 98.82 82.56 71.63 72.84 75.30"
/>
<path stroke="#f0f0f0" vector-effect="non-scaling-stroke" d="
  M 58.04 94.25
  Q 61.12 93.89 61.44 90.21
  Q 61.80 86.04 66.06 82.30
  Q 71.07 77.90 72.84 75.30"
/>
<path stroke="#707070" vector-effect="non-scaling-stroke" d="
  M 228.46 62.50
  Q 226.29 63.36 225.07 65.26
  Q 224.77 65.72 225.27 65.50
  Q 227.16 64.64 228.50 62.96"
/>
<path stroke="#767676" vector-effect="non-scaling-stroke" d="
  M 317.21 123.00
  C 315.08 124.96 311.42 130.26 308.25 127.25
  C 306.44 125.54 306.94 122.62 306.96 120.25"
/>
<path stroke="#868686" vector-effect="non-scaling-stroke" d="
  M 179.31 63.85
  L 179.82 82.07
  A 0.60 0.60 0.0 0 0 180.48 82.65
  L 189.09 81.85
  A 0.77 0.76 88.7 0 0 189.78 81.12
  C 190.04 75.35 188.50 63.71 192.29 59.50"
/>
<path stroke="#868686" vector-effect="non-scaling-stroke" d="
  M 117.25 105.21
  Q 120.15 105.25 123.06 105.26
  C 126.28 105.27 130.00 104.11 133.83 104.59
  A 0.59 0.59 0.0 0 0 134.48 103.87
  C 132.72 96.38 142.90 88.61 148.54 85.50"
/>
<path stroke="#707070" vector-effect="non-scaling-stroke" d="
  M 148.54 85.50
  L 153.79 83.43"
/>
<path stroke="#868686" vector-effect="non-scaling-stroke" d="
  M 153.79 83.43
  Q 157.59 82.57 161.09 80.68
  Q 162.59 79.87 161.08 79.07
  L 159.01 77.97"
/>
<path stroke="#707070" vector-effect="non-scaling-stroke" d="
  M 159.01 77.97
  Q 147.78 77.74 138.71 84.19
  Q 138.18 84.57 137.75 84.53
  A 0.60 0.60 0.0 0 1 137.30 83.61
  C 139.76 79.84 143.74 77.36 145.87 74.47
  Q 149.48 69.56 150.60 63.40
  A 0.14 0.12 -77.5 0 0 150.52 63.25
  L 150.27 63.20
  A 0.14 0.13 -64.3 0 0 150.15 63.25
  C 146.46 67.89 141.94 71.39 138.44 76.17
  Q 135.04 80.81 130.03 83.99
  Q 129.26 84.49 129.44 83.59
  Q 129.93 81.26 131.75 79.67
  A 0.38 0.38 0.0 0 0 131.71 79.06
  C 130.38 78.14 113.45 83.70 110.94 84.59
  A 0.74 0.74 0.0 0 0 110.45 85.26
  Q 110.00 93.92 110.87 102.52
  Q 111.16 105.31 113.97 105.26
  L 117.25 105.21"
/>
<path stroke="#e9e9e9" vector-effect="non-scaling-stroke" d="
  M 159.01 77.97
  Q 155.70 80.38 153.79 83.43"
/>
<path stroke="#e9e9e9" vector-effect="non-scaling-stroke" d="
  M 148.54 85.50
  Q 142.76 85.60 137.99 88.91
  A 1.43 1.42 -60.8 0 1 137.08 89.17
  Q 132.72 88.95 133.01 93.43
  Q 133.21 96.66 130.08 97.46
  Q 126.70 98.33 123.37 97.60
  A 0.45 0.44 -86.7 0 0 122.84 98.08
  Q 123.13 101.06 120.08 100.89
  A 0.79 0.79 0.0 0 0 119.34 101.30
  L 117.25 105.21"
/>
<path stroke="#868686" vector-effect="non-scaling-stroke" d="
  M 369.18 75.33
  L 369.40 75.85
  A 1.16 1.15 -49.2 0 1 369.45 76.59
  Q 366.99 85.01 366.24 93.74
  C 365.43 103.00 374.14 105.33 381.28 106.18
  C 392.62 107.54 392.76 88.49 392.23 81.16
  C 391.50 70.95 379.83 65.13 370.95 65.20
  A 2.13 2.11 -74.4 0 0 369.13 66.24
  C 368.06 68.02 363.10 77.23 363.49 78.78
  A 0.21 0.20 -25.0 0 0 363.81 78.89
  L 368.75 75.21
  A 0.29 0.29 0.0 0 1 369.18 75.33"
/>
<path stroke="#868686" vector-effect="non-scaling-stroke" d="
  M 219.61 71.74
  Q 211.87 80.47 206.97 91.04
  Q 206.55 91.94 207.52 91.71
  L 220.28 88.70
  A 0.66 0.66 0.0 0 0 220.79 87.98
  Q 219.82 80.05 220.36 72.06
  Q 220.44 70.80 219.61 71.74"
/>
<path stroke="#868686" vector-effect="non-scaling-stroke" d="
  M 147.53 103.61
  A 4.60 4.59 -15.7 0 0 150.03 105.01
  Q 156.48 106.29 162.41 103.70
  Q 164.02 103.00 164.13 101.25
  Q 164.70 92.32 163.13 83.46
  Q 162.76 81.39 161.45 83.03
  C 156.41 89.32 151.05 90.76 143.99 93.61
  A 0.68 0.67 77.5 0 0 143.57 94.28
  Q 143.91 99.71 147.53 103.61"
/>
<path stroke="#868686" vector-effect="non-scaling-stroke" d="
  M 353.83 91.05
  C 353.21 95.46 352.35 104.20 356.85 107.22
  Q 357.34 107.55 357.30 106.96
  Q 356.65 95.50 360.17 84.60
  Q 360.35 84.04 359.84 84.33
  C 356.96 85.91 354.33 87.49 353.83 91.05"
/>
<path stroke="#868686" vector-effect="non-scaling-stroke" d="
  M 343.58 105.00
  A 0.32 0.32 0.0 0 0 344.20 104.93
  L 345.02 95.54
  A 0.32 0.32 0.0 0 0 344.61 95.20
  L 341.05 96.25
  A 0.32 0.32 0.0 0 0 340.83 96.65
  L 343.58 105.00"
/>
<path stroke="#868686" vector-effect="non-scaling-stroke" d="
  M 331.66 100.52
  Q 331.83 99.92 331.54 99.40
  A 0.91 0.90 -14.6 0 0 330.73 98.93
  L 329.49 98.97
  A 0.48 0.48 0.0 0 0 329.09 99.68
  L 330.88 102.96
  Q 331.19 103.53 331.48 102.94
  Q 331.89 102.08 331.66 101.13
  Q 331.58 100.83 331.66 100.52"
/>
<path stroke="#767676" vector-effect="non-scaling-stroke" d="
  M 236.11 111.60
  Q 239.15 111.37 240.72 109.45
  Q 241.37 108.65 240.46 109.11
  L 236.03 111.31
  Q 235.33 111.65 236.11 111.60"
/>
<path stroke="#767676" vector-effect="non-scaling-stroke" d="
  M 70.54 140.25
  Q 63.04 145.94 57.28 153.30
  C 52.55 159.34 51.20 165.97 50.96 173.40"
/>
<path stroke="#868686" vector-effect="non-scaling-stroke" d="
  M 62.04 165.75
  C 61.94 176.09 59.90 189.82 75.19 189.51
  A 0.50 0.50 0.0 0 1 75.67 190.19
  L 75.28 191.23
  A 0.55 0.55 0.0 0 0 75.64 191.96
  Q 77.66 192.55 78.08 190.76
  Q 80.67 179.77 80.09 164.44
  Q 79.82 157.17 77.25 152.46"
/>
<path stroke="#767676" vector-effect="non-scaling-stroke" d="
  M 77.25 152.46
  Q 74.60 146.89 68.06 147.45
  Q 66.34 147.60 65.62 149.17
  Q 62.12 156.85 62.04 165.75"
/>
<path stroke="#f0f0f0" vector-effect="non-scaling-stroke" d="
  M 77.25 152.46
  Q 71.97 155.56 68.80 160.83
  A 1.65 1.64 -86.3 0 1 68.05 161.49
  L 64.77 162.92
  A 1.01 1.00 -2.9 0 0 64.22 163.52
  Q 63.65 165.19 62.04 165.75"
/>
<path stroke="#868686" vector-effect="non-scaling-stroke" d="
  M 134.22 158.44
  L 135.56 156.30
  Q 135.92 155.73 135.34 156.08
  C 134.06 156.85 132.00 158.50 130.53 158.17
  Q 129.79 158.00 129.27 157.44
  Q 127.51 155.55 129.31 153.69
  L 134.97 147.84
  Q 135.35 147.45 134.82 147.35
  C 132.30 146.83 130.36 147.69 129.15 150.10
  Q 121.12 166.12 121.12 184.12
  C 121.12 192.04 132.87 192.27 137.97 190.79
  C 144.56 188.87 148.65 178.30 150.18 172.37
  C 151.63 166.77 150.71 160.30 150.98 154.22
  A 0.34 0.34 0.0 0 0 150.54 153.88
  L 134.78 159.14
  Q 133.53 159.56 134.22 158.44"
/>
<path stroke="#868686" vector-effect="non-scaling-stroke" d="
  M 161.45 176.89
  Q 166.81 161.38 176.99 148.51
  Q 177.37 148.02 176.75 148.06
  Q 168.82 148.54 161.25 150.94
  A 0.75 0.74 81.3 0 0 160.72 151.67
  L 160.82 176.78
  Q 160.83 178.67 161.45 176.89"
/>
<path stroke="#868686" vector-effect="non-scaling-stroke" d="
  M 176.04 157.05
  Q 172.12 164.41 169.56 172.34
  Q 169.29 173.16 170.11 172.90
  L 178.21 170.35
  A 0.87 0.86 -13.7 0 0 178.80 169.39
  L 176.78 157.17
  Q 176.59 156.03 176.04 157.05"
/>
<path stroke="#868686" vector-effect="non-scaling-stroke" d="
  M 190.56 178.78
  A 0.34 0.34 0.0 0 0 191.20 178.84
  L 193.59 173.73
  A 0.34 0.34 0.0 0 0 193.19 173.26
  L 189.79 174.23
  A 0.34 0.34 0.0 0 0 189.56 174.64
  L 190.56 178.78"
/>
</g>
<path fill="#ffffff" d="
  M 0.00 0.00
  L 203.56 0.00
  L 200.01 0.37
  A 0.36 0.36 0.0 0 0 199.73 0.90
  L 200.24 1.89
  A 0.55 0.55 0.0 0 1 199.86 2.69
  Q 197.87 3.09 197.16 4.94
  A 0.76 0.76 0.0 0 1 196.51 5.43
  C 190.21 5.90 186.22 5.68 179.24 7.72
  Q 177.43 8.25 168.04 9.45
  A 1.06 1.05 -82.7 0 0 167.20 10.11
  L 165.95 13.33
  Q 165.32 14.96 163.68 15.58
  Q 158.61 17.49 155.35 21.80
  A 1.57 1.57 0.0 0 1 154.54 22.37
  C 150.68 23.51 148.04 24.28 144.51 26.80
  C 140.00 30.03 138.18 30.19 135.40 35.52
  A 0.51 0.50 20.3 0 1 134.85 35.77
  L 131.63 35.08
  A 0.76 0.75 14.3 0 0 130.75 35.59
  L 129.82 38.64
  A 1.33 1.33 0.0 0 1 129.17 39.43
  C 125.18 41.58 121.56 44.78 117.64 46.31
  Q 111.30 48.77 104.47 49.80
  A 1.32 1.30 16.5 0 0 103.70 50.21
  Q 98.83 55.53 92.92 59.62
  A 1.42 1.42 0.0 0 0 92.36 60.40
  Q 91.82 62.27 90.00 62.50
  Q 85.21 63.10 82.43 65.85
  C 72.90 67.35 65.25 73.01 57.02 78.69
  A 0.33 0.33 0.0 0 1 56.51 78.45
  Q 55.14 64.66 55.56 50.80
  A 0.86 0.84 -10.4 0 1 56.09 50.05
  Q 68.12 45.07 81.07 43.93
  C 85.96 43.50 89.31 39.99 91.18 35.72
  A 0.67 0.66 9.4 0 0 90.51 34.79
  Q 72.24 36.35 55.89 44.58
  Q 55.06 44.99 55.25 44.09
  L 55.51 42.84
  Q 55.71 41.92 54.85 42.30
  C 47.71 45.47 46.30 51.56 42.52 57.68
  A 0.45 0.43 38.6 0 0 42.59 58.22
  L 42.83 58.46
  A 0.40 0.40 0.0 0 0 43.38 58.46
  L 44.93 57.00
  Q 46.60 55.41 46.54 57.72
  Q 46.13 72.44 47.18 87.13
  A 1.02 0.98 -27.5 0 1 46.93 87.86
  L 45.29 89.74
  Q 44.41 90.74 45.71 90.46
  L 46.50 90.29
  A 0.57 0.56 79.5 0 1 47.18 90.76
  L 47.73 94.43
  A 0.85 0.85 0.0 0 1 47.37 95.26
  Q 43.24 98.16 40.46 102.34
  A 1.04 1.03 48.7 0 0 40.40 103.36
  L 42.79 108.25
  Q 41.87 109.06 38.72 108.21
  A 1.78 1.77 -71.4 0 0 36.60 109.27
  Q 35.20 112.81 33.94 116.06
  C 33.10 118.23 27.89 121.32 30.87 123.98
  Q 32.81 125.70 30.76 127.30
  L 24.42 132.23
  Q 22.82 133.48 24.37 134.79
  Q 25.83 136.03 24.89 137.72
  A 1.60 1.59 -86.1 0 1 24.07 138.44
  Q 22.02 139.25 20.74 140.99
  A 1.08 1.07 54.5 0 0 20.58 141.98
  C 22.00 146.23 23.36 148.96 21.68 154.04
  C 21.27 155.25 21.61 155.89 22.22 156.86
  A 1.74 1.72 29.5 0 1 22.48 157.77
  Q 22.54 169.51 34.44 172.55
  Q 43.68 174.91 50.96 173.40
  C 50.56 178.04 49.51 183.46 50.71 187.88
  C 52.45 194.29 58.72 199.10 64.94 200.71
  C 70.53 202.17 74.23 200.12 78.20 196.41
  C 90.32 185.09 89.43 170.47 89.41 154.60
  A 1.07 1.07 0.0 0 1 89.78 153.79
  Q 93.03 150.91 97.14 149.45
  A 0.38 0.38 0.0 0 1 97.65 149.83
  C 96.43 170.17 96.05 187.11 97.74 202.54
  A 0.36 0.36 0.0 0 0 98.29 202.80
  Q 103.01 199.81 106.35 195.34
  A 1.46 1.43 61.5 0 0 106.63 194.37
  Q 104.64 170.22 106.85 146.10
  A 1.33 1.33 0.0 0 1 107.95 144.92
  L 115.92 143.59
  A 0.82 0.82 0.0 0 1 116.82 144.12
  L 117.45 145.92
  A 0.43 0.43 0.0 0 0 118.13 146.12
  C 119.82 144.80 127.83 138.00 125.91 135.78
  Q 124.51 134.16 122.41 134.58
  Q 103.90 138.27 89.17 149.97
  A 0.44 0.44 0.0 0 1 88.46 149.70
  Q 87.55 144.01 83.46 140.00
  Q 85.32 137.89 84.46 135.22
  A 0.80 0.79 73.4 0 1 85.00 134.21
  L 91.61 132.39
  A 0.71 0.71 0.0 0 0 92.13 131.68
  L 91.97 128.24
  A 0.72 0.71 79.4 0 1 92.46 127.52
  C 99.45 125.37 101.37 119.99 105.00 114.79
  Q 126.15 113.27 136.31 112.31
  Q 136.82 112.26 137.58 111.76
  A 0.58 0.58 0.0 0 1 138.32 111.84
  Q 140.73 114.32 144.25 114.40
  C 156.40 114.67 164.32 108.66 170.93 99.11
  Q 171.22 98.69 171.34 99.18
  Q 172.66 104.44 170.42 109.24
  C 169.92 110.30 169.75 111.87 170.41 112.70
  Q 171.67 114.28 173.38 113.20
  Q 177.37 110.67 180.33 107.10
  C 183.18 103.68 180.96 95.44 180.77 91.52
  A 0.59 0.58 82.3 0 1 181.22 90.92
  L 189.19 89.03
  A 0.42 0.42 0.0 0 1 189.71 89.44
  C 189.73 93.65 189.04 112.97 196.67 112.11
  A 0.52 0.51 82.3 0 1 197.23 112.54
  C 198.24 118.73 205.83 119.27 210.17 116.42
  C 212.72 114.75 219.30 109.62 219.65 106.48
  Q 219.71 105.95 219.25 106.21
  C 217.36 107.24 215.51 108.63 213.47 108.95
  C 207.32 109.90 205.36 105.05 206.52 99.57
  A 0.76 0.75 -1.4 0 1 207.06 99.01
  L 221.69 95.14
  A 0.63 0.63 0.0 0 1 222.42 95.49
  C 224.00 99.11 228.47 105.69 228.54 109.28
  Q 228.59 111.58 230.24 109.97
  L 237.01 103.37
  Q 239.13 101.30 237.66 98.73
  L 233.49 91.44
  A 0.58 0.58 0.0 0 1 233.56 90.75
  L 237.87 85.83
  Q 238.32 85.31 238.41 85.99
  L 240.68 103.20
  A 0.97 0.95 -22.9 0 1 240.31 104.08
  C 237.38 106.28 226.00 115.57 226.40 119.28
  Q 226.65 121.61 228.81 120.70
  C 235.95 117.72 242.49 114.03 247.90 108.66
  Q 250.29 106.28 253.60 107.45
  C 256.60 108.51 257.66 111.69 258.41 114.55
  A 0.78 0.77 -27.4 0 1 258.15 115.35
  C 253.45 119.20 249.00 123.88 252.09 129.57
  Q 253.13 131.49 255.11 130.55
  C 262.08 127.26 267.63 122.18 267.81 114.15
  A 0.54 0.53 -0.6 0 1 268.33 113.63
  Q 276.57 113.38 284.52 111.10
  Q 285.38 110.85 284.88 111.59
  Q 279.60 119.43 275.93 128.14
  A 0.60 0.60 0.0 0 0 276.20 128.90
  C 276.81 129.21 277.69 129.01 278.27 128.55
  Q 283.09 124.80 283.77 123.22
  C 287.34 114.88 290.88 107.93 297.34 101.43
  A 0.84 0.83 -31.4 0 0 297.55 100.59
  L 297.21 99.51
  A 1.25 1.25 0.0 0 1 297.32 98.50
  Q 300.81 92.56 305.25 87.29
  A 0.47 0.46 -41.7 0 1 305.99 87.33
  C 309.05 91.95 306.94 94.72 306.97 99.34
  Q 307.06 109.81 306.96 120.25
  Q 306.66 121.37 304.40 120.58
  A 1.52 1.50 44.0 0 0 303.35 120.59
  C 298.89 122.23 299.05 123.31 297.19 127.26
  A 1.64 1.62 87.0 0 1 296.55 127.98
  C 293.34 129.95 289.39 131.52 290.69 136.30
  A 1.69 1.68 -42.8 0 1 290.65 137.25
  Q 290.17 138.65 289.55 139.99
  C 288.53 142.20 288.76 144.67 286.67 146.65
  A 1.47 1.47 0.0 0 0 286.62 148.74
  L 288.36 150.54
  A 1.13 1.11 29.0 0 1 288.66 151.55
  C 287.63 156.77 289.50 163.47 290.83 168.58
  C 291.12 169.70 290.78 170.30 290.41 171.31
  A 1.73 1.65 -41.6 0 0 290.33 172.26
  C 290.94 175.43 292.57 178.16 292.99 181.26
  Q 293.27 183.29 293.67 185.32
  A 0.70 0.70 0.0 0 0 294.24 185.88
  L 297.57 186.46
  A 0.74 0.74 0.0 0 1 298.18 187.08
  Q 299.06 193.22 302.51 198.41
  A 1.25 1.25 0.0 0 1 302.70 199.35
  L 301.83 204.03
  Q 301.74 204.51 301.42 204.88
  Q 299.82 206.76 300.34 209.28
  A 1.61 1.57 16.7 0 0 300.79 210.09
  C 302.62 211.85 303.78 212.74 304.43 215.38
  Q 305.59 220.12 306.75 224.82
  A 0.93 0.91 2.5 0 0 307.37 225.48
  L 308.94 226.00
  L 0.00 226.00
  L 0.00 0.00
  Z
  M 181.15 148.47
  Q 181.36 147.82 182.04 147.28
  Q 185.72 144.38 188.25 139.99
  A 0.41 0.41 0.0 0 0 188.01 139.40
  C 183.60 138.04 174.32 140.42 170.71 141.34
  Q 154.87 145.34 139.75 151.56
  Q 139.19 151.79 139.66 151.40
  Q 144.34 147.53 145.19 141.45
  Q 145.61 138.50 142.64 138.28
  C 133.76 137.62 125.37 147.74 121.50 154.97
  Q 112.00 172.70 112.19 191.81
  C 112.22 194.80 113.06 197.05 115.67 198.37
  C 130.08 205.63 143.01 192.96 150.96 182.33
  Q 151.26 181.92 151.32 182.42
  C 151.80 186.53 152.77 195.85 150.69 199.39
  A 0.61 0.61 0.0 0 0 150.84 200.17
  C 151.95 201.06 154.32 199.28 155.17 198.70
  Q 156.53 197.75 156.28 199.40
  C 155.79 202.63 157.68 204.31 160.81 204.00
  C 165.38 203.54 175.20 195.39 175.44 191.76
  A 0.32 0.31 79.0 0 0 174.99 191.45
  C 171.56 193.11 171.84 195.20 167.23 194.92
  A 1.59 1.59 0.0 0 1 165.73 193.29
  Q 165.86 188.67 166.38 183.54
  Q 166.72 180.25 169.43 179.65
  C 172.66 178.92 175.82 177.92 179.17 177.30
  A 0.59 0.59 0.0 0 1 179.86 177.78
  L 183.08 195.91
  A 1.25 1.23 -31.7 0 1 182.84 196.89
  L 181.15 199.11
  A 0.81 0.80 42.9 0 0 181.19 200.14
  C 182.20 201.25 187.72 195.75 188.46 194.87
  Q 189.34 193.82 189.49 195.18
  C 190.01 199.99 194.53 202.70 199.01 202.06
  C 202.86 201.51 205.91 197.69 208.36 194.71
  Q 210.01 192.70 207.43 193.05
  Q 198.04 194.30 198.34 184.00
  C 198.78 169.05 207.19 152.01 222.51 147.51
  Q 223.01 147.36 222.62 147.72
  C 216.62 153.12 215.98 153.63 215.51 162.35
  Q 214.53 180.74 214.78 199.20
  Q 214.82 202.38 217.50 200.67
  Q 221.72 197.98 224.35 193.89
  A 1.26 1.24 54.4 0 0 224.51 192.87
  Q 223.73 190.12 223.72 187.99
  Q 223.62 170.19 225.27 149.84
  C 225.61 145.65 229.51 142.65 232.64 139.89
  Q 233.18 139.42 232.95 138.75
  A 0.68 0.67 78.3 0 0 232.26 138.29
  C 220.42 139.38 207.23 153.67 200.22 162.39
  C 197.42 165.88 193.48 166.92 189.28 167.42
  A 0.48 0.47 82.0 0 1 188.75 167.02
  L 185.60 147.79
  A 1.25 1.25 0.0 0 0 183.61 147.00
  L 181.44 148.67
  Q 180.97 149.03 181.15 148.47
  Z"
/>
<path fill="#d3d3d3" d="
  M 203.56 0.00
  L 381.31 0.00
  L 388.21 1.41
  A 0.38 0.38 0.0 0 1 388.46 1.98
  Q 386.72 4.88 383.85 6.54
  A 1.40 1.37 -6.8 0 0 383.23 7.31
  C 382.36 10.06 381.87 12.32 379.35 14.03
  C 373.35 18.11 369.87 18.59 363.24 15.31
  A 0.59 0.58 -58.6 0 0 362.52 15.49
  C 361.79 16.47 361.59 16.65 360.28 16.32
  C 349.99 13.75 337.01 10.63 328.78 18.39
  A 0.67 0.66 41.3 0 1 327.93 18.44
  L 321.47 13.77
  A 0.52 0.52 0.0 0 0 320.68 13.99
  Q 318.14 20.33 311.23 17.98
  A 0.62 0.62 0.0 0 0 310.44 18.37
  L 309.55 21.00
  A 1.91 1.91 0.0 0 1 307.27 22.25
  Q 301.61 20.84 296.31 23.24
  A 1.23 1.22 -45.3 0 1 295.35 23.25
  Q 292.26 21.92 290.03 19.39
  A 0.48 0.48 0.0 0 0 289.24 19.51
  L 289.01 20.00
  A 1.28 1.24 1.9 0 1 288.26 20.68
  C 282.54 22.69 277.38 24.04 271.35 24.78
  Q 268.25 25.15 264.95 26.71
  Q 250.51 33.52 243.68 36.96
  Q 241.10 38.27 238.53 38.44
  C 235.18 38.68 230.95 38.01 227.97 39.52
  Q 225.17 40.95 222.34 42.36
  C 220.44 43.31 219.74 45.53 217.85 46.77
  Q 213.76 49.45 209.42 51.06
  Q 208.20 51.51 206.91 51.38
  L 203.55 51.04
  Q 202.30 50.92 203.19 51.81
  L 204.50 53.12
  A 0.43 0.42 -32.4 0 1 204.34 53.82
  L 199.04 55.75
  L 198.95 54.32
  Q 198.88 53.29 198.12 54.00
  L 192.29 59.50
  Q 191.23 58.50 189.81 58.66
  A 0.62 0.61 -0.7 0 0 189.27 59.20
  C 189.14 60.42 188.62 60.83 187.39 61.05
  Q 183.18 61.80 179.31 63.85
  L 179.21 57.44
  Q 179.18 55.84 177.93 56.83
  C 174.20 59.76 169.13 63.83 170.12 69.24
  A 0.31 0.31 0.0 0 1 169.73 69.59
  C 163.97 67.97 158.22 69.40 152.73 71.52
  Q 152.27 71.70 152.53 71.28
  C 153.92 69.03 163.28 55.49 158.25 54.05
  A 1.36 1.34 -48.8 0 0 157.31 54.12
  Q 148.31 58.22 142.55 66.15
  C 140.62 68.81 139.52 69.85 136.49 70.48
  Q 123.88 73.08 110.72 78.34
  A 0.37 0.36 -9.6 0 1 110.22 77.99
  L 110.40 72.38
  A 0.90 0.90 0.0 0 1 111.03 71.55
  L 126.18 66.80
  Q 129.21 65.85 127.44 68.48
  L 126.40 70.01
  A 0.48 0.48 0.0 0 0 126.53 70.67
  C 128.07 71.74 140.94 58.30 140.61 57.25
  A 0.62 0.61 -13.8 0 0 139.91 56.83
  Q 124.90 59.71 110.85 65.71
  A 0.38 0.38 0.0 0 1 110.32 65.36
  L 110.34 61.80
  Q 110.35 60.90 109.61 61.42
  Q 105.06 64.71 101.74 69.21
  C 100.30 71.16 91.76 77.70 92.79 79.93
  A 0.44 0.43 60.0 0 0 93.43 80.11
  C 95.62 78.59 98.05 76.25 100.76 75.86
  A 0.43 0.42 -4.1 0 1 101.25 76.28
  L 101.25 103.07
  A 1.64 1.64 0.0 0 1 100.94 104.03
  L 95.11 111.94
  A 1.15 1.15 0.0 0 0 95.91 113.77
  L 105.00 114.79
  C 101.37 119.99 99.45 125.37 92.46 127.52
  A 0.72 0.71 79.4 0 0 91.97 128.24
  L 92.13 131.68
  A 0.71 0.71 0.0 0 1 91.61 132.39
  L 85.00 134.21
  A 0.80 0.79 73.4 0 0 84.46 135.22
  Q 85.32 137.89 83.46 140.00
  Q 76.90 136.70 70.54 140.25
  Q 72.15 134.94 67.09 132.92
  A 1.44 1.43 -2.4 0 1 66.37 132.26
  L 65.67 130.90
  A 1.36 1.35 37.6 0 1 65.55 130.00
  L 66.02 127.78
  A 0.70 0.70 0.0 0 0 65.64 127.01
  Q 62.98 125.73 63.22 122.72
  A 1.42 1.42 0.0 0 0 61.97 121.20
  Q 59.27 120.89 58.67 118.38
  A 0.18 0.17 -6.2 0 0 58.50 118.25
  L 58.24 118.26
  Q 58.04 118.26 58.33 118.00
  Q 58.59 117.76 58.50 117.29
  C 79.36 117.43 92.92 99.50 89.81 79.42
  C 89.04 74.40 88.65 65.59 82.43 65.85
  Q 85.21 63.10 90.00 62.50
  Q 91.82 62.27 92.36 60.40
  A 1.42 1.42 0.0 0 1 92.92 59.62
  Q 98.83 55.53 103.70 50.21
  A 1.32 1.30 16.5 0 1 104.47 49.80
  Q 111.30 48.77 117.64 46.31
  C 121.56 44.78 125.18 41.58 129.17 39.43
  A 1.33 1.33 0.0 0 0 129.82 38.64
  L 130.75 35.59
  A 0.76 0.75 14.3 0 1 131.63 35.08
  L 134.85 35.77
  A 0.51 0.50 20.3 0 0 135.40 35.52
  C 138.18 30.19 140.00 30.03 144.51 26.80
  C 148.04 24.28 150.68 23.51 154.54 22.37
  A 1.57 1.57 0.0 0 0 155.35 21.80
  Q 158.61 17.49 163.68 15.58
  Q 165.32 14.96 165.95 13.33
  L 167.20 10.11
  A 1.06 1.05 -82.7 0 1 168.04 9.45
  Q 177.43 8.25 179.24 7.72
  C 186.22 5.68 190.21 5.90 196.51 5.43
  A 0.76 0.76 0.0 0 0 197.16 4.94
  Q 197.87 3.09 199.86 2.69
  A 0.55 0.55 0.0 0 0 200.24 1.89
  L 199.73 0.90
  A 0.36 0.36 0.0 0 1 200.01 0.37
  L 203.56 0.00
  Z"
/>
<path fill="#ffffff" d="
  M 381.31 0.00
  L 448.00 0.00
  L 448.00 226.00
  L 359.44 226.00
  L 359.72 225.77
  A 0.45 0.45 0.0 0 0 359.83 225.19
  C 356.45 219.43 355.47 213.41 354.01 207.02
  C 353.60 205.23 352.36 204.25 351.80 202.44
  A 1.34 1.34 0.0 0 1 351.91 201.39
  L 354.00 197.70
  A 0.70 0.69 -48.1 0 0 353.97 196.97
  Q 350.11 191.36 348.19 184.79
  A 1.42 1.39 -83.7 0 0 347.54 183.96
  L 344.24 182.07
  Q 342.36 180.99 343.22 179.01
  L 344.79 175.39
  A 0.65 0.65 0.0 0 0 344.56 174.60
  L 342.74 173.35
  A 1.05 1.05 0.0 0 1 342.28 172.43
  Q 342.43 168.05 340.40 164.34
  C 338.47 160.83 338.13 157.25 336.88 153.57
  C 335.51 149.54 335.84 146.67 337.18 142.94
  A 1.09 1.06 40.2 0 0 337.09 142.03
  C 335.87 140.02 331.67 136.49 333.85 133.90
  A 0.85 0.84 51.3 0 0 333.95 132.97
  L 332.63 130.41
  A 0.64 0.63 67.1 0 0 331.88 130.10
  L 330.11 130.65
  A 0.56 0.56 0.0 0 1 329.39 130.23
  L 328.62 126.66
  A 1.69 1.69 0.0 0 0 327.16 125.33
  Q 325.21 125.12 325.55 122.98
  A 0.36 0.36 0.0 0 0 325.15 122.56
  C 323.71 122.74 317.71 125.10 317.21 123.00
  C 318.74 121.29 321.97 119.67 317.18 118.57
  A 0.67 0.66 88.3 0 1 316.70 118.11
  C 315.33 113.59 316.29 108.54 316.03 103.79
  A 0.43 0.42 65.3 0 1 316.14 103.48
  L 316.32 103.30
  A 0.25 0.25 0.0 0 1 316.71 103.34
  L 325.69 117.59
  A 0.72 0.72 0.0 0 0 326.63 117.85
  Q 330.39 115.91 332.97 112.52
  Q 334.02 111.14 334.26 112.86
  Q 334.64 115.59 337.07 115.35
  A 1.43 1.42 19.5 0 0 337.94 114.94
  L 343.68 109.19
  Q 344.28 108.59 344.37 109.43
  Q 344.71 112.60 346.72 115.15
  Q 348.35 117.23 350.47 115.65
  Q 354.44 112.69 357.57 108.79
  A 0.51 0.50 -46.1 0 1 358.34 108.77
  Q 361.62 112.54 367.53 114.14
  C 377.32 116.79 382.85 113.59 389.85 106.59
  Q 403.66 92.77 401.21 71.71
  C 399.88 60.37 382.67 52.51 373.18 58.43
  C 364.37 63.92 360.18 72.83 355.57 81.81
  Q 355.33 82.26 354.99 82.34
  A 0.38 0.37 89.6 0 1 354.55 81.90
  Q 356.57 71.16 356.24 60.24
  A 0.39 0.39 0.0 0 0 355.65 59.91
  C 352.17 61.97 347.47 65.90 347.31 70.32
  Q 346.99 78.96 346.06 87.62
  A 0.81 0.80 -3.0 0 1 345.42 88.32
  L 341.52 89.11
  A 0.64 0.63 -5.9 0 1 340.75 88.49
  L 340.75 67.35
  A 0.37 0.37 0.0 0 0 340.24 67.01
  C 329.45 71.59 331.43 80.28 331.85 89.76
  A 0.91 0.91 0.0 0 1 330.94 90.72
  Q 327.61 90.71 325.19 92.98
  A 0.56 0.56 0.0 0 1 324.34 92.88
  L 317.38 82.53
  A 1.40 1.37 -59.1 0 1 317.16 81.60
  L 318.01 74.49
  A 1.64 1.64 0.0 0 1 318.38 73.64
  C 319.43 72.38 326.82 64.98 326.80 64.34
  A 0.42 0.42 0.0 0 0 326.22 63.97
  Q 322.34 65.60 319.44 68.71
  Q 318.88 69.32 319.06 68.51
  L 322.22 53.96
  Q 322.43 53.03 321.56 53.43
  C 314.54 56.66 312.43 62.49 311.45 69.82
  Q 311.27 71.22 310.65 69.95
  L 307.60 63.64
  A 0.56 0.56 0.0 0 0 306.83 63.40
  Q 302.56 65.81 299.45 69.61
  Q 298.13 71.23 299.05 73.11
  L 303.78 82.67
  A 1.81 1.81 0.0 0 1 303.56 84.61
  Q 297.49 92.01 292.06 99.83
  C 288.59 104.83 280.94 104.48 276.07 104.50
  A 0.53 0.53 0.0 0 1 275.53 103.99
  L 274.90 89.74
  Q 274.82 87.83 276.70 87.53
  C 285.44 86.10 293.73 87.80 298.57 78.18
  Q 299.35 76.63 297.63 76.82
  Q 287.17 77.97 276.77 79.68
  Q 276.09 79.79 275.31 80.10
  A 0.44 0.44 0.0 0 1 274.70 79.68
  L 274.89 69.65
  A 0.82 0.80 -9.6 0 1 275.43 68.91
  Q 282.60 66.43 290.10 67.42
  A 1.46 1.44 31.6 0 0 291.09 67.19
  Q 295.29 64.39 297.95 59.97
  Q 299.50 57.40 296.51 57.63
  C 286.62 58.38 270.81 60.51 265.68 69.76
  A 1.54 1.53 -33.8 0 0 265.49 70.70
  Q 265.97 74.53 265.90 78.39
  C 265.76 85.62 265.82 92.84 265.60 100.08
  Q 265.58 100.74 265.08 100.31
  Q 261.14 96.87 256.11 99.03
  Q 254.68 99.65 255.52 98.34
  Q 268.05 78.93 262.26 56.17
  Q 261.64 53.75 259.16 53.51
  C 252.07 52.84 237.60 63.18 235.64 69.98
  A 0.32 0.32 0.0 0 0 236.02 70.38
  C 237.95 69.95 240.34 67.24 241.80 65.90
  C 244.29 63.62 247.36 62.61 250.44 62.50
  Q 252.84 62.41 253.27 64.77
  C 255.39 76.46 256.01 86.88 250.54 97.76
  Q 250.32 98.22 250.21 97.72
  C 249.34 93.82 249.30 89.37 248.75 85.94
  Q 247.19 76.14 246.38 65.65
  A 0.51 0.50 -15.1 0 0 245.66 65.24
  Q 234.28 70.56 238.50 82.87
  A 0.93 0.93 0.0 0 1 237.83 84.07
  L 233.12 85.15
  Q 231.05 85.63 230.65 83.53
  Q 228.89 74.17 229.28 65.49
  Q 229.37 63.63 228.50 62.96
  L 228.46 62.50
  C 233.24 59.13 236.50 57.05 238.95 52.93
  A 0.37 0.37 0.0 0 0 238.70 52.38
  C 235.24 51.80 223.03 63.72 220.44 66.56
  Q 208.76 79.30 199.72 94.12
  Q 199.09 95.14 199.08 93.94
  L 198.97 86.66
  A 1.21 1.21 0.0 0 1 199.42 85.70
  C 200.78 84.61 210.48 76.50 209.09 74.53
  A 0.48 0.48 0.0 0 0 208.38 74.43
  Q 204.82 77.37 200.52 79.09
  A 1.10 1.09 79.1 0 1 199.02 78.07
  L 199.04 55.75
  L 204.34 53.82
  A 0.43 0.42 -32.4 0 0 204.50 53.12
  L 203.19 51.81
  Q 202.30 50.92 203.55 51.04
  L 206.91 51.38
  Q 208.20 51.51 209.42 51.06
  Q 213.76 49.45 217.85 46.77
  C 219.74 45.53 220.44 43.31 222.34 42.36
  Q 225.17 40.95 227.97 39.52
  C 230.95 38.01 235.18 38.68 238.53 38.44
  Q 241.10 38.27 243.68 36.96
  Q 250.51 33.52 264.95 26.71
  Q 268.25 25.15 271.35 24.78
  C 277.38 24.04 282.54 22.69 288.26 20.68
  A 1.28 1.24 1.9 0 0 289.01 20.00
  L 289.24 19.51
  A 0.48 0.48 0.0 0 1 290.03 19.39
  Q 292.26 21.92 295.35 23.25
  A 1.23 1.22 -45.3 0 0 296.31 23.24
  Q 301.61 20.84 307.27 22.25
  A 1.91 1.91 0.0 0 0 309.55 21.00
  L 310.44 18.37
  A 0.62 0.62 0.0 0 1 311.23 17.98
  Q 318.14 20.33 320.68 13.99
  A 0.52 0.52 0.0 0 1 321.47 13.77
  L 327.93 18.44
  A 0.67 0.66 41.3 0 0 328.78 18.39
  C 337.01 10.63 349.99 13.75 360.28 16.32
  C 361.59 16.65 361.79 16.47 362.52 15.49
  A 0.59 0.58 -58.6 0 1 363.24 15.31
  C 369.87 18.59 373.35 18.11 379.35 14.03
  C 381.87 12.32 382.36 10.06 383.23 7.31
  A 1.40 1.37 -6.8 0 1 383.85 6.54
  Q 386.72 4.88 388.46 1.98
  A 0.38 0.38 0.0 0 0 388.21 1.41
  L 381.31 0.00
  Z
  M 285.5441 24.6978
  A 10.35 1.31 -42.8 0 0 277.0599 30.7688
  A 10.35 1.31 -42.8 0 0 270.3559 38.7622
  A 10.35 1.31 -42.8 0 0 278.8401 32.6912
  A 10.35 1.31 -42.8 0 0 285.5441 24.6978
  Z
  M 279.8684 45.0465
  A 10.13 1.43 133.1 0 0 287.8341 38.6271
  A 10.13 1.43 133.1 0 0 293.7116 30.2535
  A 10.13 1.43 133.1 0 0 285.7459 36.6729
  A 10.13 1.43 133.1 0 0 279.8684 45.0465
  Z"
/>
<ellipse fill="#0c0c0c" cx="0.00" cy="0.00" transform="translate(277.95,31.73) rotate(-42.8)" rx="10.35" ry="1.31"/>
<ellipse fill="#0c0c0c" cx="0.00" cy="0.00" transform="translate(286.79,37.65) rotate(133.1)" rx="10.13" ry="1.43"/>
<path fill="#0c0c0c" d="
  M 82.43 65.85
  C 88.65 65.59 89.04 74.40 89.81 79.42
  C 92.92 99.50 79.36 117.43 58.50 117.29
  C 51.91 117.73 46.43 113.26 42.79 108.25
  L 40.40 103.36
  A 1.04 1.03 48.7 0 1 40.46 102.34
  Q 43.24 98.16 47.37 95.26
  A 0.85 0.85 0.0 0 0 47.73 94.43
  L 47.18 90.76
  A 0.57 0.56 79.5 0 0 46.50 90.29
  L 45.71 90.46
  Q 44.41 90.74 45.29 89.74
  L 46.93 87.86
  A 1.02 0.98 -27.5 0 0 47.18 87.13
  Q 46.13 72.44 46.54 57.72
  Q 46.60 55.41 44.93 57.00
  L 43.38 58.46
  A 0.40 0.40 0.0 0 1 42.83 58.46
  L 42.59 58.22
  A 0.45 0.43 38.6 0 1 42.52 57.68
  C 46.30 51.56 47.71 45.47 54.85 42.30
  Q 55.71 41.92 55.51 42.84
  L 55.25 44.09
  Q 55.06 44.99 55.89 44.58
  Q 72.24 36.35 90.51 34.79
  A 0.67 0.66 9.4 0 1 91.18 35.72
  C 89.31 39.99 85.96 43.50 81.07 43.93
  Q 68.12 45.07 56.09 50.05
  A 0.86 0.84 -10.4 0 0 55.56 50.80
  Q 55.14 64.66 56.51 78.45
  A 0.33 0.33 0.0 0 0 57.02 78.69
  C 65.25 73.01 72.90 67.35 82.43 65.85
  Z
  M 72.84 75.30
  Q 63.81 77.11 56.89 82.91
  A 0.93 0.91 -24.9 0 0 56.58 83.73
  L 58.04 94.25
  Q 58.29 100.45 60.47 106.10
  Q 61.21 108.01 63.25 108.17
  C 68.15 108.55 79.19 108.51 80.35 102.51
  C 81.06 98.82 82.56 71.63 72.84 75.30
  Z"
/>
<path fill="#0c0c0c" d="
  M 228.46 62.50
  Q 226.29 63.36 225.07 65.26
  Q 224.77 65.72 225.27 65.50
  Q 227.16 64.64 228.50 62.96
  Q 229.37 63.63 229.28 65.49
  Q 228.89 74.17 230.65 83.53
  Q 231.05 85.63 233.12 85.15
  L 237.83 84.07
  A 0.93 0.93 0.0 0 0 238.50 82.87
  Q 234.28 70.56 245.66 65.24
  A 0.51 0.50 -15.1 0 1 246.38 65.65
  Q 247.19 76.14 248.75 85.94
  C 249.30 89.37 249.34 93.82 250.21 97.72
  Q 250.32 98.22 250.54 97.76
  C 256.01 86.88 255.39 76.46 253.27 64.77
  Q 252.84 62.41 250.44 62.50
  C 247.36 62.61 244.29 63.62 241.80 65.90
  C 240.34 67.24 237.95 69.95 236.02 70.38
  A 0.32 0.32 0.0 0 1 235.64 69.98
  C 237.60 63.18 252.07 52.84 259.16 53.51
  Q 261.64 53.75 262.26 56.17
  Q 268.05 78.93 255.52 98.34
  Q 254.68 99.65 256.11 99.03
  Q 261.14 96.87 265.08 100.31
  Q 265.58 100.74 265.60 100.08
  C 265.82 92.84 265.76 85.62 265.90 78.39
  Q 265.97 74.53 265.49 70.70
  A 1.54 1.53 -33.8 0 1 265.68 69.76
  C 270.81 60.51 286.62 58.38 296.51 57.63
  Q 299.50 57.40 297.95 59.97
  Q 295.29 64.39 291.09 67.19
  A 1.46 1.44 31.6 0 1 290.10 67.42
  Q 282.60 66.43 275.43 68.91
  A 0.82 0.80 -9.6 0 0 274.89 69.65
  L 274.70 79.68
  A 0.44 0.44 0.0 0 0 275.31 80.10
  Q 276.09 79.79 276.77 79.68
  Q 287.17 77.97 297.63 76.82
  Q 299.35 76.63 298.57 78.18
  C 293.73 87.80 285.44 86.10 276.70 87.53
  Q 274.82 87.83 274.90 89.74
  L 275.53 103.99
  A 0.53 0.53 0.0 0 0 276.07 104.50
  C 280.94 104.48 288.59 104.83 292.06 99.83
  Q 297.49 92.01 303.56 84.61
  A 1.81 1.81 0.0 0 0 303.78 82.67
  L 299.05 73.11
  Q 298.13 71.23 299.45 69.61
  Q 302.56 65.81 306.83 63.40
  A 0.56 0.56 0.0 0 1 307.60 63.64
  L 310.65 69.95
  Q 311.27 71.22 311.45 69.82
  C 312.43 62.49 314.54 56.66 321.56 53.43
  Q 322.43 53.03 322.22 53.96
  L 319.06 68.51
  Q 318.88 69.32 319.44 68.71
  Q 322.34 65.60 326.22 63.97
  A 0.42 0.42 0.0 0 1 326.80 64.34
  C 326.82 64.98 319.43 72.38 318.38 73.64
  A 1.64 1.64 0.0 0 0 318.01 74.49
  L 317.16 81.60
  A 1.40 1.37 -59.1 0 0 317.38 82.53
  L 324.34 92.88
  A 0.56 0.56 0.0 0 0 325.19 92.98
  Q 327.61 90.71 330.94 90.72
  A 0.91 0.91 0.0 0 0 331.85 89.76
  C 331.43 80.28 329.45 71.59 340.24 67.01
  A 0.37 0.37 0.0 0 1 340.75 67.35
  L 340.75 88.49
  A 0.64 0.63 -5.9 0 0 341.52 89.11
  L 345.42 88.32
  A 0.81 0.80 -3.0 0 0 346.06 87.62
  Q 346.99 78.96 347.31 70.32
  C 347.47 65.90 352.17 61.97 355.65 59.91
  A 0.39 0.39 0.0 0 1 356.24 60.24
  Q 356.57 71.16 354.55 81.90
  A 0.38 0.37 89.6 0 0 354.99 82.34
  Q 355.33 82.26 355.57 81.81
  C 360.18 72.83 364.37 63.92 373.18 58.43
  C 382.67 52.51 399.88 60.37 401.21 71.71
  Q 403.66 92.77 389.85 106.59
  C 382.85 113.59 377.32 116.79 367.53 114.14
  Q 361.62 112.54 358.34 108.77
  A 0.51 0.50 -46.1 0 0 357.57 108.79
  Q 354.44 112.69 350.47 115.65
  Q 348.35 117.23 346.72 115.15
  Q 344.71 112.60 344.37 109.43
  Q 344.28 108.59 343.68 109.19
  L 337.94 114.94
  A 1.43 1.42 19.5 0 1 337.07 115.35
  Q 334.64 115.59 334.26 112.86
  Q 334.02 111.14 332.97 112.52
  Q 330.39 115.91 326.63 117.85
  A 0.72 0.72 0.0 0 1 325.69 117.59
  L 316.71 103.34
  A 0.25 0.25 0.0 0 0 316.32 103.30
  L 316.14 103.48
  A 0.43 0.42 65.3 0 0 316.03 103.79
  C 316.29 108.54 315.33 113.59 316.70 118.11
  A 0.67 0.66 88.3 0 0 317.18 118.57
  C 321.97 119.67 318.74 121.29 317.21 123.00
  C 315.08 124.96 311.42 130.26 308.25 127.25
  C 306.44 125.54 306.94 122.62 306.96 120.25
  Q 307.06 109.81 306.97 99.34
  C 306.94 94.72 309.05 91.95 305.99 87.33
  A 0.47 0.46 -41.7 0 0 305.25 87.29
  Q 300.81 92.56 297.32 98.50
  A 1.25 1.25 0.0 0 0 297.21 99.51
  L 297.55 100.59
  A 0.84 0.83 -31.4 0 1 297.34 101.43
  C 290.88 107.93 287.34 114.88 283.77 123.22
  Q 283.09 124.80 278.27 128.55
  C 277.69 129.01 276.81 129.21 276.20 128.90
  A 0.60 0.60 0.0 0 1 275.93 128.14
  Q 279.60 119.43 284.88 111.59
  Q 285.38 110.85 284.52 111.10
  Q 276.57 113.38 268.33 113.63
  A 0.54 0.53 -0.6 0 0 267.81 114.15
  C 267.63 122.18 262.08 127.26 255.11 130.55
  Q 253.13 131.49 252.09 129.57
  C 249.00 123.88 253.45 119.20 258.15 115.35
  A 0.78 0.77 -27.4 0 0 258.41 114.55
  C 257.66 111.69 256.60 108.51 253.60 107.45
  Q 250.29 106.28 247.90 108.66
  C 242.49 114.03 235.95 117.72 228.81 120.70
  Q 226.65 121.61 226.40 119.28
  C 226.00 115.57 237.38 106.28 240.31 104.08
  A 0.97 0.95 -22.9 0 0 240.68 103.20
  L 238.41 85.99
  Q 238.32 85.31 237.87 85.83
  L 233.56 90.75
  A 0.58 0.58 0.0 0 0 233.49 91.44
  L 237.66 98.73
  Q 239.13 101.30 237.01 103.37
  L 230.24 109.97
  Q 228.59 111.58 228.54 109.28
  C 228.47 105.69 224.00 99.11 222.42 95.49
  A 0.63 0.63 0.0 0 0 221.69 95.14
  L 207.06 99.01
  A 0.76 0.75 -1.4 0 0 206.52 99.57
  C 205.36 105.05 207.32 109.90 213.47 108.95
  C 215.51 108.63 217.36 107.24 219.25 106.21
  Q 219.71 105.95 219.65 106.48
  C 219.30 109.62 212.72 114.75 210.17 116.42
  C 205.83 119.27 198.24 118.73 197.23 112.54
  A 0.52 0.51 82.3 0 0 196.67 112.11
  C 189.04 112.97 189.73 93.65 189.71 89.44
  A 0.42 0.42 0.0 0 0 189.19 89.03
  L 181.22 90.92
  A 0.59 0.58 82.3 0 0 180.77 91.52
  C 180.96 95.44 183.18 103.68 180.33 107.10
  Q 177.37 110.67 173.38 113.20
  Q 171.67 114.28 170.41 112.70
  C 169.75 111.87 169.92 110.30 170.42 109.24
  Q 172.66 104.44 171.34 99.18
  Q 171.22 98.69 170.93 99.11
  C 164.32 108.66 156.40 114.67 144.25 114.40
  Q 140.73 114.32 138.32 111.84
  A 0.58 0.58 0.0 0 0 137.58 111.76
  Q 136.82 112.26 136.31 112.31
  Q 126.15 113.27 105.00 114.79
  L 95.91 113.77
  A 1.15 1.15 0.0 0 1 95.11 111.94
  L 100.94 104.03
  A 1.64 1.64 0.0 0 0 101.25 103.07
  L 101.25 76.28
  A 0.43 0.42 -4.1 0 0 100.76 75.86
  C 98.05 76.25 95.62 78.59 93.43 80.11
  A 0.44 0.43 60.0 0 1 92.79 79.93
  C 91.76 77.70 100.30 71.16 101.74 69.21
  Q 105.06 64.71 109.61 61.42
  Q 110.35 60.90 110.34 61.80
  L 110.32 65.36
  A 0.38 0.38 0.0 0 0 110.85 65.71
  Q 124.90 59.71 139.91 56.83
  A 0.62 0.61 -13.8 0 1 140.61 57.25
  C 140.94 58.30 128.07 71.74 126.53 70.67
  A 0.48 0.48 0.0 0 1 126.40 70.01
  L 127.44 68.48
  Q 129.21 65.85 126.18 66.80
  L 111.03 71.55
  A 0.90 0.90 0.0 0 0 110.40 72.38
  L 110.22 77.99
  A 0.37 0.36 -9.6 0 0 110.72 78.34
  Q 123.88 73.08 136.49 70.48
  C 139.52 69.85 140.62 68.81 142.55 66.15
  Q 148.31 58.22 157.31 54.12
  A 1.36 1.34 -48.8 0 1 158.25 54.05
  C 163.28 55.49 153.92 69.03 152.53 71.28
  Q 152.27 71.70 152.73 71.52
  C 158.22 69.40 163.97 67.97 169.73 69.59
  A 0.31 0.31 0.0 0 0 170.12 69.24
  C 169.13 63.83 174.20 59.76 177.93 56.83
  Q 179.18 55.84 179.21 57.44
  L 179.31 63.85
  L 179.82 82.07
  A 0.60 0.60 0.0 0 0 180.48 82.65
  L 189.09 81.85
  A 0.77 0.76 88.7 0 0 189.78 81.12
  C 190.04 75.35 188.50 63.71 192.29 59.50
  L 198.12 54.00
  Q 198.88 53.29 198.95 54.32
  L 199.04 55.75
  L 199.02 78.07
  A 1.10 1.09 79.1 0 0 200.52 79.09
  Q 204.82 77.37 208.38 74.43
  A 0.48 0.48 0.0 0 1 209.09 74.53
  C 210.48 76.50 200.78 84.61 199.42 85.70
  A 1.21 1.21 0.0 0 0 198.97 86.66
  L 199.08 93.94
  Q 199.09 95.14 199.72 94.12
  Q 208.76 79.30 220.44 66.56
  C 223.03 63.72 235.24 51.80 238.70 52.38
  A 0.37 0.37 0.0 0 1 238.95 52.93
  C 236.50 57.05 233.24 59.13 228.46 62.50
  Z
  M 117.25 105.21
  Q 120.15 105.25 123.06 105.26
  C 126.28 105.27 130.00 104.11 133.83 104.59
  A 0.59 0.59 0.0 0 0 134.48 103.87
  C 132.72 96.38 142.90 88.61 148.54 85.50
  L 153.79 83.43
  Q 157.59 82.57 161.09 80.68
  Q 162.59 79.87 161.08 79.07
  L 159.01 77.97
  Q 147.78 77.74 138.71 84.19
  Q 138.18 84.57 137.75 84.53
  A 0.60 0.60 0.0 0 1 137.30 83.61
  C 139.76 79.84 143.74 77.36 145.87 74.47
  Q 149.48 69.56 150.60 63.40
  A 0.14 0.12 -77.5 0 0 150.52 63.25
  L 150.27 63.20
  A 0.14 0.13 -64.3 0 0 150.15 63.25
  C 146.46 67.89 141.94 71.39 138.44 76.17
  Q 135.04 80.81 130.03 83.99
  Q 129.26 84.49 129.44 83.59
  Q 129.93 81.26 131.75 79.67
  A 0.38 0.38 0.0 0 0 131.71 79.06
  C 130.38 78.14 113.45 83.70 110.94 84.59
  A 0.74 0.74 0.0 0 0 110.45 85.26
  Q 110.00 93.92 110.87 102.52
  Q 111.16 105.31 113.97 105.26
  L 117.25 105.21
  Z
  M 369.18 75.33
  L 369.40 75.85
  A 1.16 1.15 -49.2 0 1 369.45 76.59
  Q 366.99 85.01 366.24 93.74
  C 365.43 103.00 374.14 105.33 381.28 106.18
  C 392.62 107.54 392.76 88.49 392.23 81.16
  C 391.50 70.95 379.83 65.13 370.95 65.20
  A 2.13 2.11 -74.4 0 0 369.13 66.24
  C 368.06 68.02 363.10 77.23 363.49 78.78
  A 0.21 0.20 -25.0 0 0 363.81 78.89
  L 368.75 75.21
  A 0.29 0.29 0.0 0 1 369.18 75.33
  Z
  M 219.61 71.74
  Q 211.87 80.47 206.97 91.04
  Q 206.55 91.94 207.52 91.71
  L 220.28 88.70
  A 0.66 0.66 0.0 0 0 220.79 87.98
  Q 219.82 80.05 220.36 72.06
  Q 220.44 70.80 219.61 71.74
  Z
  M 147.53 103.61
  A 4.60 4.59 -15.7 0 0 150.03 105.01
  Q 156.48 106.29 162.41 103.70
  Q 164.02 103.00 164.13 101.25
  Q 164.70 92.32 163.13 83.46
  Q 162.76 81.39 161.45 83.03
  C 156.41 89.32 151.05 90.76 143.99 93.61
  A 0.68 0.67 77.5 0 0 143.57 94.28
  Q 143.91 99.71 147.53 103.61
  Z
  M 353.83 91.05
  C 353.21 95.46 352.35 104.20 356.85 107.22
  Q 357.34 107.55 357.30 106.96
  Q 356.65 95.50 360.17 84.60
  Q 360.35 84.04 359.84 84.33
  C 356.96 85.91 354.33 87.49 353.83 91.05
  Z
  M 343.58 105.00
  A 0.32 0.32 0.0 0 0 344.20 104.93
  L 345.02 95.54
  A 0.32 0.32 0.0 0 0 344.61 95.20
  L 341.05 96.25
  A 0.32 0.32 0.0 0 0 340.83 96.65
  L 343.58 105.00
  Z
  M 331.66 100.52
  Q 331.83 99.92 331.54 99.40
  A 0.91 0.90 -14.6 0 0 330.73 98.93
  L 329.49 98.97
  A 0.48 0.48 0.0 0 0 329.09 99.68
  L 330.88 102.96
  Q 331.19 103.53 331.48 102.94
  Q 331.89 102.08 331.66 101.13
  Q 331.58 100.83 331.66 100.52
  Z
  M 236.11 111.60
  Q 239.15 111.37 240.72 109.45
  Q 241.37 108.65 240.46 109.11
  L 236.03 111.31
  Q 235.33 111.65 236.11 111.60
  Z"
/>
<path fill="#ffffff" d="
  M 192.29 59.50
  C 188.50 63.71 190.04 75.35 189.78 81.12
  A 0.77 0.76 88.7 0 1 189.09 81.85
  L 180.48 82.65
  A 0.60 0.60 0.0 0 1 179.82 82.07
  L 179.31 63.85
  Q 183.18 61.80 187.39 61.05
  C 188.62 60.83 189.14 60.42 189.27 59.20
  A 0.62 0.61 -0.7 0 1 189.81 58.66
  Q 191.23 58.50 192.29 59.50
  Z"
/>
<path fill="#d3d3d3" d="
  M 228.46 62.50
  L 228.50 62.96
  Q 227.16 64.64 225.27 65.50
  Q 224.77 65.72 225.07 65.26
  Q 226.29 63.36 228.46 62.50
  Z"
/>
<path fill="#d3d3d3" d="
  M 159.01 77.97
  Q 155.70 80.38 153.79 83.43
  L 148.54 85.50
  Q 142.76 85.60 137.99 88.91
  A 1.43 1.42 -60.8 0 1 137.08 89.17
  Q 132.72 88.95 133.01 93.43
  Q 133.21 96.66 130.08 97.46
  Q 126.70 98.33 123.37 97.60
  A 0.45 0.44 -86.7 0 0 122.84 98.08
  Q 123.13 101.06 120.08 100.89
  A 0.79 0.79 0.0 0 0 119.34 101.30
  L 117.25 105.21
  L 113.97 105.26
  Q 111.16 105.31 110.87 102.52
  Q 110.00 93.92 110.45 85.26
  A 0.74 0.74 0.0 0 1 110.94 84.59
  C 113.45 83.70 130.38 78.14 131.71 79.06
  A 0.38 0.38 0.0 0 1 131.75 79.67
  Q 129.93 81.26 129.44 83.59
  Q 129.26 84.49 130.03 83.99
  Q 135.04 80.81 138.44 76.17
  C 141.94 71.39 146.46 67.89 150.15 63.25
  A 0.14 0.13 -64.3 0 1 150.27 63.20
  L 150.52 63.25
  A 0.14 0.12 -77.5 0 1 150.60 63.40
  Q 149.48 69.56 145.87 74.47
  C 143.74 77.36 139.76 79.84 137.30 83.61
  A 0.60 0.60 0.0 0 0 137.75 84.53
  Q 138.18 84.57 138.71 84.19
  Q 147.78 77.74 159.01 77.97
  Z"
/>
<path fill="#ffffff" d="
  M 368.75 75.21
  L 363.81 78.89
  A 0.21 0.20 -25.0 0 1 363.49 78.78
  C 363.10 77.23 368.06 68.02 369.13 66.24
  A 2.13 2.11 -74.4 0 1 370.95 65.20
  C 379.83 65.13 391.50 70.95 392.23 81.16
  C 392.76 88.49 392.62 107.54 381.28 106.18
  C 374.14 105.33 365.43 103.00 366.24 93.74
  Q 366.99 85.01 369.45 76.59
  A 1.16 1.15 -49.2 0 0 369.40 75.85
  L 369.18 75.33
  A 0.29 0.29 0.0 0 0 368.75 75.21
  Z"
/>
<path fill="#ffffff" d="
  M 219.61 71.74
  Q 220.44 70.80 220.36 72.06
  Q 219.82 80.05 220.79 87.98
  A 0.66 0.66 0.0 0 1 220.28 88.70
  L 207.52 91.71
  Q 206.55 91.94 206.97 91.04
  Q 211.87 80.47 219.61 71.74
  Z"
/>
<path fill="#e0e0e0" d="
  M 58.04 94.25
  Q 61.12 93.89 61.44 90.21
  Q 61.80 86.04 66.06 82.30
  Q 71.07 77.90 72.84 75.30
  C 82.56 71.63 81.06 98.82 80.35 102.51
  C 79.19 108.51 68.15 108.55 63.25 108.17
  Q 61.21 108.01 60.47 106.10
  Q 58.29 100.45 58.04 94.25
  Z"
/>
<path fill="#ffffff" d="
  M 72.84 75.30
  Q 71.07 77.90 66.06 82.30
  Q 61.80 86.04 61.44 90.21
  Q 61.12 93.89 58.04 94.25
  L 56.58 83.73
  A 0.93 0.91 -24.9 0 1 56.89 82.91
  Q 63.81 77.11 72.84 75.30
  Z"
/>
<path fill="#ffffff" d="
  M 159.01 77.97
  L 161.08 79.07
  Q 162.59 79.87 161.09 80.68
  Q 157.59 82.57 153.79 83.43
  Q 155.70 80.38 159.01 77.97
  Z"
/>
<path fill="#ffffff" d="
  M 147.53 103.61
  Q 143.91 99.71 143.57 94.28
  A 0.68 0.67 77.5 0 1 143.99 93.61
  C 151.05 90.76 156.41 89.32 161.45 83.03
  Q 162.76 81.39 163.13 83.46
  Q 164.70 92.32 164.13 101.25
  Q 164.02 103.00 162.41 103.70
  Q 156.48 106.29 150.03 105.01
  A 4.60 4.59 -15.7 0 1 147.53 103.61
  Z"
/>
<path fill="#ffffff" d="
  M 353.83 91.05
  C 354.33 87.49 356.96 85.91 359.84 84.33
  Q 360.35 84.04 360.17 84.60
  Q 356.65 95.50 357.30 106.96
  Q 357.34 107.55 356.85 107.22
  C 352.35 104.20 353.21 95.46 353.83 91.05
  Z"
/>
<path fill="#ffffff" d="
  M 148.54 85.50
  C 142.90 88.61 132.72 96.38 134.48 103.87
  A 0.59 0.59 0.0 0 1 133.83 104.59
  C 130.00 104.11 126.28 105.27 123.06 105.26
  Q 120.15 105.25 117.25 105.21
  L 119.34 101.30
  A 0.79 0.79 0.0 0 1 120.08 100.89
  Q 123.13 101.06 122.84 98.08
  A 0.45 0.44 -86.7 0 1 123.37 97.60
  Q 126.70 98.33 130.08 97.46
  Q 133.21 96.66 133.01 93.43
  Q 132.72 88.95 137.08 89.17
  A 1.43 1.42 -60.8 0 0 137.99 88.91
  Q 142.76 85.60 148.54 85.50
  Z"
/>
<path fill="#ffffff" d="
  M 343.58 105.00
  L 340.83 96.65
  A 0.32 0.32 0.0 0 1 341.05 96.25
  L 344.61 95.20
  A 0.32 0.32 0.0 0 1 345.02 95.54
  L 344.20 104.93
  A 0.32 0.32 0.0 0 1 343.58 105.00
  Z"
/>
<path fill="#ffffff" d="
  M 331.66 101.13
  Q 331.89 102.08 331.48 102.94
  Q 331.19 103.53 330.88 102.96
  L 329.09 99.68
  A 0.48 0.48 0.0 0 1 329.49 98.97
  L 330.73 98.93
  A 0.91 0.90 -14.6 0 1 331.54 99.40
  Q 331.83 99.92 331.66 100.52
  Q 331.58 100.83 331.66 101.13
  Z"
/>
<path fill="#e0e0e0" d="
  M 42.79 108.25
  C 46.43 113.26 51.91 117.73 58.50 117.29
  Q 58.59 117.76 58.33 118.00
  Q 58.04 118.26 58.24 118.26
  L 58.50 118.25
  A 0.18 0.17 -6.2 0 1 58.67 118.38
  Q 59.27 120.89 61.97 121.20
  A 1.42 1.42 0.0 0 1 63.22 122.72
  Q 62.98 125.73 65.64 127.01
  A 0.70 0.70 0.0 0 1 66.02 127.78
  L 65.55 130.00
  A 1.36 1.35 37.6 0 0 65.67 130.90
  L 66.37 132.26
  A 1.44 1.43 -2.4 0 0 67.09 132.92
  Q 72.15 134.94 70.54 140.25
  Q 63.04 145.94 57.28 153.30
  C 52.55 159.34 51.20 165.97 50.96 173.40
  Q 43.68 174.91 34.44 172.55
  Q 22.54 169.51 22.48 157.77
  A 1.74 1.72 29.5 0 0 22.22 156.86
  C 21.61 155.89 21.27 155.25 21.68 154.04
  C 23.36 148.96 22.00 146.23 20.58 141.98
  A 1.08 1.07 54.5 0 1 20.74 140.99
  Q 22.02 139.25 24.07 138.44
  A 1.60 1.59 -86.1 0 0 24.89 137.72
  Q 25.83 136.03 24.37 134.79
  Q 22.82 133.48 24.42 132.23
  L 30.76 127.30
  Q 32.81 125.70 30.87 123.98
  C 27.89 121.32 33.10 118.23 33.94 116.06
  Q 35.20 112.81 36.60 109.27
  A 1.78 1.77 -71.4 0 1 38.72 108.21
  Q 41.87 109.06 42.79 108.25
  Z"
/>
<path fill="#e0e0e0" d="
  M 236.11 111.60
  Q 235.33 111.65 236.03 111.31
  L 240.46 109.11
  Q 241.37 108.65 240.72 109.45
  Q 239.15 111.37 236.11 111.60
  Z"
/>
<path fill="#e0e0e0" d="
  M 306.96 120.25
  C 306.94 122.62 306.44 125.54 308.25 127.25
  C 311.42 130.26 315.08 124.96 317.21 123.00
  C 317.71 125.10 323.71 122.74 325.15 122.56
  A 0.36 0.36 0.0 0 1 325.55 122.98
  Q 325.21 125.12 327.16 125.33
  A 1.69 1.69 0.0 0 1 328.62 126.66
  L 329.39 130.23
  A 0.56 0.56 0.0 0 0 330.11 130.65
  L 331.88 130.10
  A 0.64 0.63 67.1 0 1 332.63 130.41
  L 333.95 132.97
  A 0.85 0.84 51.3 0 1 333.85 133.90
  C 331.67 136.49 335.87 140.02 337.09 142.03
  A 1.09 1.06 40.2 0 1 337.18 142.94
  C 335.84 146.67 335.51 149.54 336.88 153.57
  C 338.13 157.25 338.47 160.83 340.40 164.34
  Q 342.43 168.05 342.28 172.43
  A 1.05 1.05 0.0 0 0 342.74 173.35
  L 344.56 174.60
  A 0.65 0.65 0.0 0 1 344.79 175.39
  L 343.22 179.01
  Q 342.36 180.99 344.24 182.07
  L 347.54 183.96
  A 1.42 1.39 -83.7 0 1 348.19 184.79
  Q 350.11 191.36 353.97 196.97
  A 0.70 0.69 -48.1 0 1 354.00 197.70
  L 351.91 201.39
  A 1.34 1.34 0.0 0 0 351.80 202.44
  C 352.36 204.25 353.60 205.23 354.01 207.02
  C 355.47 213.41 356.45 219.43 359.83 225.19
  A 0.45 0.45 0.0 0 1 359.72 225.77
  L 359.44 226.00
  L 308.94 226.00
  L 307.37 225.48
  A 0.93 0.91 2.5 0 1 306.75 224.82
  Q 305.59 220.12 304.43 215.38
  C 303.78 212.74 302.62 211.85 300.79 210.09
  A 1.61 1.57 16.7 0 1 300.34 209.28
  Q 299.82 206.76 301.42 204.88
  Q 301.74 204.51 301.83 204.03
  L 302.70 199.35
  A 1.25 1.25 0.0 0 0 302.51 198.41
  Q 299.06 193.22 298.18 187.08
  A 0.74 0.74 0.0 0 0 297.57 186.46
  L 294.24 185.88
  A 0.70 0.70 0.0 0 1 293.67 185.32
  Q 293.27 183.29 292.99 181.26
  C 292.57 178.16 290.94 175.43 290.33 172.26
  A 1.73 1.65 -41.6 0 1 290.41 171.31
  C 290.78 170.30 291.12 169.70 290.83 168.58
  C 289.50 163.47 287.63 156.77 288.66 151.55
  A 1.13 1.11 29.0 0 0 288.36 150.54
  L 286.62 148.74
  A 1.47 1.47 0.0 0 1 286.67 146.65
  C 288.76 144.67 288.53 142.20 289.55 139.99
  Q 290.17 138.65 290.65 137.25
  A 1.69 1.68 -42.8 0 0 290.69 136.30
  C 289.39 131.52 293.34 129.95 296.55 127.98
  A 1.64 1.62 87.0 0 0 297.19 127.26
  C 299.05 123.31 298.89 122.23 303.35 120.59
  A 1.52 1.50 44.0 0 1 304.40 120.58
  Q 306.66 121.37 306.96 120.25
  Z"
/>
<path fill="#0c0c0c" d="
  M 50.96 173.40
  C 51.20 165.97 52.55 159.34 57.28 153.30
  Q 63.04 145.94 70.54 140.25
  Q 76.90 136.70 83.46 140.00
  Q 87.55 144.01 88.46 149.70
  A 0.44 0.44 0.0 0 0 89.17 149.97
  Q 103.90 138.27 122.41 134.58
  Q 124.51 134.16 125.91 135.78
  C 127.83 138.00 119.82 144.80 118.13 146.12
  A 0.43 0.43 0.0 0 1 117.45 145.92
  L 116.82 144.12
  A 0.82 0.82 0.0 0 0 115.92 143.59
  L 107.95 144.92
  A 1.33 1.33 0.0 0 0 106.85 146.10
  Q 104.64 170.22 106.63 194.37
  A 1.46 1.43 61.5 0 1 106.35 195.34
  Q 103.01 199.81 98.29 202.80
  A 0.36 0.36 0.0 0 1 97.74 202.54
  C 96.05 187.11 96.43 170.17 97.65 149.83
  A 0.38 0.38 0.0 0 0 97.14 149.45
  Q 93.03 150.91 89.78 153.79
  A 1.07 1.07 0.0 0 0 89.41 154.60
  C 89.43 170.47 90.32 185.09 78.20 196.41
  C 74.23 200.12 70.53 202.17 64.94 200.71
  C 58.72 199.10 52.45 194.29 50.71 187.88
  C 49.51 183.46 50.56 178.04 50.96 173.40
  Z
  M 62.04 165.75
  C 61.94 176.09 59.90 189.82 75.19 189.51
  A 0.50 0.50 0.0 0 1 75.67 190.19
  L 75.28 191.23
  A 0.55 0.55 0.0 0 0 75.64 191.96
  Q 77.66 192.55 78.08 190.76
  Q 80.67 179.77 80.09 164.44
  Q 79.82 157.17 77.25 152.46
  Q 74.60 146.89 68.06 147.45
  Q 66.34 147.60 65.62 149.17
  Q 62.12 156.85 62.04 165.75
  Z"
/>
<path fill="#0c0c0c" d="
  M 181.44 148.67
  L 183.61 147.00
  A 1.25 1.25 0.0 0 1 185.60 147.79
  L 188.75 167.02
  A 0.48 0.47 82.0 0 0 189.28 167.42
  C 193.48 166.92 197.42 165.88 200.22 162.39
  C 207.23 153.67 220.42 139.38 232.26 138.29
  A 0.68 0.67 78.3 0 1 232.95 138.75
  Q 233.18 139.42 232.64 139.89
  C 229.51 142.65 225.61 145.65 225.27 149.84
  Q 223.62 170.19 223.72 187.99
  Q 223.73 190.12 224.51 192.87
  A 1.26 1.24 54.4 0 1 224.35 193.89
  Q 221.72 197.98 217.50 200.67
  Q 214.82 202.38 214.78 199.20
  Q 214.53 180.74 215.51 162.35
  C 215.98 153.63 216.62 153.12 222.62 147.72
  Q 223.01 147.36 222.51 147.51
  C 207.19 152.01 198.78 169.05 198.34 184.00
  Q 198.04 194.30 207.43 193.05
  Q 210.01 192.70 208.36 194.71
  C 205.91 197.69 202.86 201.51 199.01 202.06
  C 194.53 202.70 190.01 199.99 189.49 195.18
  Q 189.34 193.82 188.46 194.87
  C 187.72 195.75 182.20 201.25 181.19 200.14
  A 0.81 0.80 42.9 0 1 181.15 199.11
  L 182.84 196.89
  A 1.25 1.23 -31.7 0 0 183.08 195.91
  L 179.86 177.78
  A 0.59 0.59 0.0 0 0 179.17 177.30
  C 175.82 177.92 172.66 178.92 169.43 179.65
  Q 166.72 180.25 166.38 183.54
  Q 165.86 188.67 165.73 193.29
  A 1.59 1.59 0.0 0 0 167.23 194.92
  C 171.84 195.20 171.56 193.11 174.99 191.45
  A 0.32 0.31 79.0 0 1 175.44 191.76
  C 175.20 195.39 165.38 203.54 160.81 204.00
  C 157.68 204.31 155.79 202.63 156.28 199.40
  Q 156.53 197.75 155.17 198.70
  C 154.32 199.28 151.95 201.06 150.84 200.17
  A 0.61 0.61 0.0 0 1 150.69 199.39
  C 152.77 195.85 151.80 186.53 151.32 182.42
  Q 151.26 181.92 150.96 182.33
  C 143.01 192.96 130.08 205.63 115.67 198.37
  C 113.06 197.05 112.22 194.80 112.19 191.81
  Q 112.00 172.70 121.50 154.97
  C 125.37 147.74 133.76 137.62 142.64 138.28
  Q 145.61 138.50 145.19 141.45
  Q 144.34 147.53 139.66 151.40
  Q 139.19 151.79 139.75 151.56
  Q 154.87 145.34 170.71 141.34
  C 174.32 140.42 183.60 138.04 188.01 139.40
  A 0.41 0.41 0.0 0 1 188.25 139.99
  Q 185.72 144.38 182.04 147.28
  Q 181.36 147.82 181.15 148.47
  Q 180.97 149.03 181.44 148.67
  Z
  M 134.22 158.44
  L 135.56 156.30
  Q 135.92 155.73 135.34 156.08
  C 134.06 156.85 132.00 158.50 130.53 158.17
  Q 129.79 158.00 129.27 157.44
  Q 127.51 155.55 129.31 153.69
  L 134.97 147.84
  Q 135.35 147.45 134.82 147.35
  C 132.30 146.83 130.36 147.69 129.15 150.10
  Q 121.12 166.12 121.12 184.12
  C 121.12 192.04 132.87 192.27 137.97 190.79
  C 144.56 188.87 148.65 178.30 150.18 172.37
  C 151.63 166.77 150.71 160.30 150.98 154.22
  A 0.34 0.34 0.0 0 0 150.54 153.88
  L 134.78 159.14
  Q 133.53 159.56 134.22 158.44
  Z
  M 161.45 176.89
  Q 166.81 161.38 176.99 148.51
  Q 177.37 148.02 176.75 148.06
  Q 168.82 148.54 161.25 150.94
  A 0.75 0.74 81.3 0 0 160.72 151.67
  L 160.82 176.78
  Q 160.83 178.67 161.45 176.89
  Z
  M 176.04 157.05
  Q 172.12 164.41 169.56 172.34
  Q 169.29 173.16 170.11 172.90
  L 178.21 170.35
  A 0.87 0.86 -13.7 0 0 178.80 169.39
  L 176.78 157.17
  Q 176.59 156.03 176.04 157.05
  Z
  M 190.56 178.78
  A 0.34 0.34 0.0 0 0 191.20 178.84
  L 193.59 173.73
  A 0.34 0.34 0.0 0 0 193.19 173.26
  L 189.79 174.23
  A 0.34 0.34 0.0 0 0 189.56 174.64
  L 190.56 178.78
  Z"
/>
<path fill="#e0e0e0" d="
  M 77.25 152.46
  Q 71.97 155.56 68.80 160.83
  A 1.65 1.64 -86.3 0 1 68.05 161.49
  L 64.77 162.92
  A 1.01 1.00 -2.9 0 0 64.22 163.52
  Q 63.65 165.19 62.04 165.75
  Q 62.12 156.85 65.62 149.17
  Q 66.34 147.60 68.06 147.45
  Q 74.60 146.89 77.25 152.46
  Z"
/>
<path fill="#ffffff" d="
  M 134.78 159.14
  L 150.54 153.88
  A 0.34 0.34 0.0 0 1 150.98 154.22
  C 150.71 160.30 151.63 166.77 150.18 172.37
  C 148.65 178.30 144.56 188.87 137.97 190.79
  C 132.87 192.27 121.12 192.04 121.12 184.12
  Q 121.12 166.12 129.15 150.10
  C 130.36 147.69 132.30 146.83 134.82 147.35
  Q 135.35 147.45 134.97 147.84
  L 129.31 153.69
  Q 127.51 155.55 129.27 157.44
  Q 129.79 158.00 130.53 158.17
  C 132.00 158.50 134.06 156.85 135.34 156.08
  Q 135.92 155.73 135.56 156.30
  L 134.22 158.44
  Q 133.53 159.56 134.78 159.14
  Z"
/>
<path fill="#ffffff" d="
  M 160.82 176.78
  L 160.72 151.67
  A 0.75 0.74 81.3 0 1 161.25 150.94
  Q 168.82 148.54 176.75 148.06
  Q 177.37 148.02 176.99 148.51
  Q 166.81 161.38 161.45 176.89
  Q 160.83 178.67 160.82 176.78
  Z"
/>
<path fill="#ffffff" d="
  M 77.25 152.46
  Q 79.82 157.17 80.09 164.44
  Q 80.67 179.77 78.08 190.76
  Q 77.66 192.55 75.64 191.96
  A 0.55 0.55 0.0 0 1 75.28 191.23
  L 75.67 190.19
  A 0.50 0.50 0.0 0 0 75.19 189.51
  C 59.90 189.82 61.94 176.09 62.04 165.75
  Q 63.65 165.19 64.22 163.52
  A 1.01 1.00 -2.9 0 1 64.77 162.92
  L 68.05 161.49
  A 1.65 1.64 -86.3 0 0 68.80 160.83
  Q 71.97 155.56 77.25 152.46
  Z"
/>
<path fill="#ffffff" d="
  M 176.78 157.17
  L 178.80 169.39
  A 0.87 0.86 -13.7 0 1 178.21 170.35
  L 170.11 172.90
  Q 169.29 173.16 169.56 172.34
  Q 172.12 164.41 176.04 157.05
  Q 176.59 156.03 176.78 157.17
  Z"
/>
<path fill="#ffffff" d="
  M 190.56 178.78
  L 189.56 174.64
  A 0.34 0.34 0.0 0 1 189.79 174.23
  L 193.19 173.26
  A 0.34 0.34 0.0 0 1 193.59 173.73
  L 191.20 178.84
  A 0.34 0.34 0.0 0 1 190.56 178.78
  Z"
/>
</svg>
