<?xml version="1.0" encoding="UTF-8" standalone="no"?>
<!-- Created with Inkscape (http://www.inkscape.org/) -->

<svg
   xmlns:dc="http://purl.org/dc/elements/1.1/"
   xmlns:cc="http://creativecommons.org/ns#"
   xmlns:rdf="http://www.w3.org/1999/02/22-rdf-syntax-ns#"
   xmlns:svg="http://www.w3.org/2000/svg"
   xmlns="http://www.w3.org/2000/svg"
   xmlns:sodipodi="http://sodipodi.sourceforge.net/DTD/sodipodi-0.dtd"
   xmlns:inkscape="http://www.inkscape.org/namespaces/inkscape"
   width="400"
   height="600"
   viewBox="0 0 105.83333 158.75"
   version="1.1"
   id="svg8"
   inkscape:version="0.92.4 (5da689c313, 2019-01-14)"
   sodipodi:docname="27_m.svg">
  <defs
     id="defs2" />
  <sodipodi:namedview
     id="base"
     pagecolor="#ffffff"
     bordercolor="#666666"
     borderopacity="1.0"
     inkscape:pageopacity="0.0"
     inkscape:pageshadow="2"
     inkscape:zoom="1.2816667"
     inkscape:cx="344.69014"
     inkscape:cy="333.77498"
     inkscape:document-units="mm"
     inkscape:current-layer="layer1"
     showgrid="false"
     units="px"
     showguides="true"
     inkscape:guide-bbox="true"
     inkscape:window-width="1280"
     inkscape:window-height="968"
     inkscape:window-x="0"
     inkscape:window-y="0"
     inkscape:window-maximized="1">
    <sodipodi:guide
       position="20.78869,60.476191"
       orientation="1,0"
       id="guide859"
       inkscape:locked="false" />
    <sodipodi:guide
       position="20.78869,128.88988"
       orientation="1,0"
       id="guide863"
       inkscape:locked="false" />
    <sodipodi:guide
       position="12.85119,57.641369"
       orientation="1,0"
       id="guide865"
       inkscape:locked="false" />
    <sodipodi:guide
       position="32.339612,108.51143"
       orientation="0,1"
       id="guide867"
       inkscape:locked="false" />
    <sodipodi:guide
       position="-9.0871638,97.553376"
       orientation="0,1"
       id="guide2596"
       inkscape:locked="false" />
    <sodipodi:guide
       position="-16.036171,64.144687"
       orientation="0,1"
       id="guide2598"
       inkscape:locked="false" />
  </sodipodi:namedview>
  <metadata
     id="metadata5">
    <rdf:RDF>
      <cc:Work
         rdf:about="">
        <dc:format>image/svg+xml</dc:format>
        <dc:type
           rdf:resource="http://purl.org/dc/dcmitype/StillImage" />
        <dc:title></dc:title>
      </cc:Work>
    </rdf:RDF>
  </metadata>
  <g
     inkscape:label="Layer 1"
     inkscape:groupmode="layer"
     id="layer1"
     transform="translate(0,-138.24998)">
    <rect
       style="opacity:1;fill:#ffffff;fill-opacity:0.60101007;stroke:#000000;stroke-width:0.27790931;stroke-miterlimit:4;stroke-dasharray:none;stroke-dashoffset:0;stroke-opacity:1"
       id="rect10"
       width="105.4538"
       height="158.75175"
       x="0.17799145"
       y="138.24911"
       ry="7.9375877" />
    <flowRoot
       xml:space="preserve"
       id="flowRoot851"
       style="fill:black;fill-opacity:1;stroke:none;font-family:sans-serif;font-style:normal;font-weight:normal;font-size:40px;line-height:0;letter-spacing:0px;word-spacing:0px"><flowRegion
         id="flowRegion853"><rect
           id="rect855"
           width="114.28571"
           height="65.714287"
           x="47.142857"
           y="194.28572" /></flowRegion><flowPara
         id="flowPara857" /></flowRoot>    <text
       xml:space="preserve"
       style="font-style:normal;font-weight:normal;font-size:33.90801239px;line-height:0;font-family:sans-serif;letter-spacing:0px;word-spacing:0px;fill:#666666;fill-opacity:1;stroke:none;stroke-width:0.84770024"
       x="19.838701"
       y="174.63515"
       id="text827"><tspan
         sodipodi:role="line"
         id="tspan825"
         x="19.838701"
         y="174.63515"
         style="font-style:normal;font-variant:normal;font-weight:bold;font-stretch:normal;font-family:Arsenal;-inkscape-font-specification:'Arsenal Bold';fill:#666666;stroke-width:0.84770024">27</tspan></text>
    <g
       id="g32297"
       transform="matrix(0.2039443,0,0,0.2039443,9.5250016,175.98064)">
      <g
         id="g32144"
         style="fill:none;stroke-width:2;stroke-linecap:butt">
        <path
           id="path32046"
           d="m 203.56,0 -3.55,0.37 a 0.36,0.36 0 0 0 -0.28,0.53 l 0.51,0.99 a 0.55,0.55 0 0 1 -0.38,0.8 q -1.99,0.4 -2.7,2.25 a 0.76,0.76 0 0 1 -0.65,0.49 c -6.3,0.47 -10.29,0.25 -17.27,2.29 q -1.81,0.53 -11.2,1.73 a 1.06,1.05 -82.7 0 0 -0.84,0.66 l -1.25,3.22 q -0.63,1.63 -2.27,2.25 -5.07,1.91 -8.33,6.22 a 1.57,1.57 0 0 1 -0.81,0.57 c -3.86,1.14 -6.5,1.91 -10.03,4.43 -4.51,3.23 -6.33,3.39 -9.11,8.72 a 0.51,0.5 20.3 0 1 -0.55,0.25 l -3.22,-0.69 a 0.76,0.75 14.3 0 0 -0.88,0.51 l -0.93,3.05 a 1.33,1.33 0 0 1 -0.65,0.79 c -3.99,2.15 -7.61,5.35 -11.53,6.88 q -6.34,2.46 -13.17,3.49 a 1.32,1.3 16.5 0 0 -0.77,0.41 q -4.87,5.32 -10.78,9.41 a 1.42,1.42 0 0 0 -0.56,0.78 q -0.54,1.87 -2.36,2.1 -4.79,0.6 -7.57,3.35"
           inkscape:connector-curvature="0"
           style="vector-effect:non-scaling-stroke;stroke:#e9e9e9" />
        <path
           id="path32048"
           d="M 82.43,65.85 C 72.9,67.35 65.25,73.01 57.02,78.69 A 0.33,0.33 0 0 1 56.51,78.45 Q 55.14,64.66 55.56,50.8 a 0.86,0.84 -10.4 0 1 0.53,-0.75 q 12.03,-4.98 24.98,-6.12 c 4.89,-0.43 8.24,-3.94 10.11,-8.21 a 0.67,0.66 9.4 0 0 -0.67,-0.93 q -18.27,1.56 -34.62,9.79 -0.83,0.41 -0.64,-0.49 l 0.26,-1.25 q 0.2,-0.92 -0.66,-0.54 c -7.14,3.17 -8.55,9.26 -12.33,15.38 a 0.45,0.43 38.6 0 0 0.07,0.54 l 0.24,0.24 a 0.4,0.4 0 0 0 0.55,0 L 44.93,57 q 1.67,-1.59 1.61,0.72 -0.41,14.72 0.64,29.41 a 1.02,0.98 -27.5 0 1 -0.25,0.73 l -1.64,1.88 q -0.88,1 0.42,0.72 l 0.79,-0.17 a 0.57,0.56 79.5 0 1 0.68,0.47 l 0.55,3.67 a 0.85,0.85 0 0 1 -0.36,0.83 q -4.13,2.9 -6.91,7.08 a 1.04,1.03 48.7 0 0 -0.06,1.02 l 2.39,4.89"
           inkscape:connector-curvature="0"
           style="vector-effect:non-scaling-stroke;stroke:#868686" />
        <path
           id="path32050"
           d="m 42.79,108.25 q -0.92,0.81 -4.07,-0.04 a 1.78,1.77 -71.4 0 0 -2.12,1.06 q -1.4,3.54 -2.66,6.79 c -0.84,2.17 -6.05,5.26 -3.07,7.92 q 1.94,1.72 -0.11,3.32 l -6.34,4.93 q -1.6,1.25 -0.05,2.56 1.46,1.24 0.52,2.93 a 1.6,1.59 -86.1 0 1 -0.82,0.72 q -2.05,0.81 -3.33,2.55 a 1.08,1.07 54.5 0 0 -0.16,0.99 c 1.42,4.25 2.78,6.98 1.1,12.06 -0.41,1.21 -0.07,1.85 0.54,2.82 a 1.74,1.72 29.5 0 1 0.26,0.91 q 0.06,11.74 11.96,14.78 9.24,2.36 16.52,0.85"
           inkscape:connector-curvature="0"
           style="vector-effect:non-scaling-stroke;stroke:#f0f0f0" />
        <path
           id="path32052"
           d="m 50.96,173.4 c -0.4,4.64 -1.45,10.06 -0.25,14.48 1.74,6.41 8.01,11.22 14.23,12.83 5.59,1.46 9.29,-0.59 13.26,-4.3 12.12,-11.32 11.23,-25.94 11.21,-41.81 a 1.07,1.07 0 0 1 0.37,-0.81 q 3.25,-2.88 7.36,-4.34 a 0.38,0.38 0 0 1 0.51,0.38 c -1.22,20.34 -1.6,37.28 0.09,52.71 a 0.36,0.36 0 0 0 0.55,0.26 q 4.72,-2.99 8.06,-7.46 a 1.46,1.43 61.5 0 0 0.28,-0.97 q -1.99,-24.15 0.22,-48.27 a 1.33,1.33 0 0 1 1.1,-1.18 l 7.97,-1.33 a 0.82,0.82 0 0 1 0.9,0.53 l 0.63,1.8 a 0.43,0.43 0 0 0 0.68,0.2 c 1.69,-1.32 9.7,-8.12 7.78,-10.34 q -1.4,-1.62 -3.5,-1.2 -18.51,3.69 -33.24,15.39 a 0.44,0.44 0 0 1 -0.71,-0.27 q -0.91,-5.69 -5,-9.7"
           inkscape:connector-curvature="0"
           style="vector-effect:non-scaling-stroke;stroke:#868686" />
        <path
           id="path32054"
           d="m 83.46,140 q 1.86,-2.11 1,-4.78 A 0.8,0.79 73.4 0 1 85,134.21 l 6.61,-1.82 a 0.71,0.71 0 0 0 0.52,-0.71 l -0.16,-3.44 a 0.72,0.71 79.4 0 1 0.49,-0.72 c 6.99,-2.15 8.91,-7.53 12.54,-12.73"
           inkscape:connector-curvature="0"
           style="vector-effect:non-scaling-stroke;stroke:#e9e9e9" />
        <path
           id="path32056"
           d="m 105,114.79 q 21.15,-1.52 31.31,-2.48 0.51,-0.05 1.27,-0.55 a 0.58,0.58 0 0 1 0.74,0.08 q 2.41,2.48 5.93,2.56 c 12.15,0.27 20.07,-5.74 26.68,-15.29 q 0.29,-0.42 0.41,0.07 1.32,5.26 -0.92,10.06 c -0.5,1.06 -0.67,2.63 -0.01,3.46 q 1.26,1.58 2.97,0.5 3.99,-2.53 6.95,-6.1 c 2.85,-3.42 0.63,-11.66 0.44,-15.58 a 0.59,0.58 82.3 0 1 0.45,-0.6 l 7.97,-1.89 a 0.42,0.42 0 0 1 0.52,0.41 c 0.02,4.21 -0.67,23.53 6.96,22.67 a 0.52,0.51 82.3 0 1 0.56,0.43 c 1.01,6.19 8.6,6.73 12.94,3.88 2.55,-1.67 9.13,-6.8 9.48,-9.94 q 0.06,-0.53 -0.4,-0.27 c -1.89,1.03 -3.74,2.42 -5.78,2.74 -6.15,0.95 -8.11,-3.9 -6.95,-9.38 a 0.76,0.75 -1.4 0 1 0.54,-0.56 l 14.63,-3.87 a 0.63,0.63 0 0 1 0.73,0.35 c 1.58,3.62 6.05,10.2 6.12,13.79 q 0.05,2.3 1.7,0.69 l 6.77,-6.6 q 2.12,-2.07 0.65,-4.64 l -4.17,-7.29 a 0.58,0.58 0 0 1 0.07,-0.69 l 4.31,-4.92 q 0.45,-0.52 0.54,0.16 l 2.27,17.21 a 0.97,0.95 -22.9 0 1 -0.37,0.88 c -2.93,2.2 -14.31,11.49 -13.91,15.2 q 0.25,2.33 2.41,1.42 c 7.14,-2.98 13.68,-6.67 19.09,-12.04 q 2.39,-2.38 5.7,-1.21 c 3,1.06 4.06,4.24 4.81,7.1 a 0.78,0.77 -27.4 0 1 -0.26,0.8 c -4.7,3.85 -9.15,8.53 -6.06,14.22 q 1.04,1.92 3.02,0.98 c 6.97,-3.29 12.52,-8.37 12.7,-16.4 a 0.54,0.53 -0.6 0 1 0.52,-0.52 q 8.24,-0.25 16.19,-2.53 0.86,-0.25 0.36,0.49 -5.28,7.84 -8.95,16.55 a 0.6,0.6 0 0 0 0.27,0.76 c 0.61,0.31 1.49,0.11 2.07,-0.35 q 4.82,-3.75 5.5,-5.33 c 3.57,-8.34 7.11,-15.29 13.57,-21.79 a 0.84,0.83 -31.4 0 0 0.21,-0.84 l -0.34,-1.08 a 1.25,1.25 0 0 1 0.11,-1.01 q 3.49,-5.94 7.93,-11.21 a 0.47,0.46 -41.7 0 1 0.74,0.04 c 3.06,4.62 0.95,7.39 0.98,12.01 q 0.09,10.47 -0.01,20.91"
           inkscape:connector-curvature="0"
           style="vector-effect:non-scaling-stroke;stroke:#868686" />
        <path
           id="path32058"
           d="m 306.96,120.25 q -0.3,1.12 -2.56,0.33 a 1.52,1.5 44 0 0 -1.05,0.01 c -4.46,1.64 -4.3,2.72 -6.16,6.67 a 1.64,1.62 87 0 1 -0.64,0.72 c -3.21,1.97 -7.16,3.54 -5.86,8.32 a 1.69,1.68 -42.8 0 1 -0.04,0.95 q -0.48,1.4 -1.1,2.74 c -1.02,2.21 -0.79,4.68 -2.88,6.66 a 1.47,1.47 0 0 0 -0.05,2.09 l 1.74,1.8 a 1.13,1.11 29 0 1 0.3,1.01 c -1.03,5.22 0.84,11.92 2.17,17.03 0.29,1.12 -0.05,1.72 -0.42,2.73 a 1.73,1.65 -41.6 0 0 -0.08,0.95 c 0.61,3.17 2.24,5.9 2.66,9 q 0.28,2.03 0.68,4.06 a 0.7,0.7 0 0 0 0.57,0.56 l 3.33,0.58 a 0.74,0.74 0 0 1 0.61,0.62 q 0.88,6.14 4.33,11.33 a 1.25,1.25 0 0 1 0.19,0.94 l -0.87,4.68 q -0.09,0.48 -0.41,0.85 -1.6,1.88 -1.08,4.4 a 1.61,1.57 16.7 0 0 0.45,0.81 c 1.83,1.76 2.99,2.65 3.64,5.29 q 1.16,4.74 2.32,9.44 a 0.93,0.91 2.5 0 0 0.62,0.66 l 1.57,0.52"
           inkscape:connector-curvature="0"
           style="vector-effect:non-scaling-stroke;stroke:#f0f0f0" />
        <path
           id="path32060"
           d="m 181.15,148.47 q 0.21,-0.65 0.89,-1.19 3.68,-2.9 6.21,-7.29 a 0.41,0.41 0 0 0 -0.24,-0.59 c -4.41,-1.36 -13.69,1.02 -17.3,1.94 q -15.84,4 -30.96,10.22 -0.56,0.23 -0.09,-0.16 4.68,-3.87 5.53,-9.95 0.42,-2.95 -2.55,-3.17 c -8.88,-0.66 -17.27,9.46 -21.14,16.69 q -9.5,17.73 -9.31,36.84 c 0.03,2.99 0.87,5.24 3.48,6.56 14.41,7.26 27.34,-5.41 35.29,-16.04 q 0.3,-0.41 0.36,0.09 c 0.48,4.11 1.45,13.43 -0.63,16.97 a 0.61,0.61 0 0 0 0.15,0.78 c 1.11,0.89 3.48,-0.89 4.33,-1.47 q 1.36,-0.95 1.11,0.7 c -0.49,3.23 1.4,4.91 4.53,4.6 4.57,-0.46 14.39,-8.61 14.63,-12.24 a 0.32,0.31 79 0 0 -0.45,-0.31 c -3.43,1.66 -3.15,3.75 -7.76,3.47 a 1.59,1.59 0 0 1 -1.5,-1.63 q 0.13,-4.62 0.65,-9.75 0.34,-3.29 3.05,-3.89 c 3.23,-0.73 6.39,-1.73 9.74,-2.35 a 0.59,0.59 0 0 1 0.69,0.48 l 3.22,18.13 a 1.25,1.23 -31.7 0 1 -0.24,0.98 l -1.69,2.22 a 0.81,0.8 42.9 0 0 0.04,1.03 c 1.01,1.11 6.53,-4.39 7.27,-5.27 q 0.88,-1.05 1.03,0.31 c 0.52,4.81 5.04,7.52 9.52,6.88 3.85,-0.55 6.9,-4.37 9.35,-7.35 q 1.65,-2.01 -0.93,-1.66 -9.39,1.25 -9.09,-9.05 c 0.44,-14.95 8.85,-31.99 24.17,-36.49 q 0.5,-0.15 0.11,0.21 c -6,5.4 -6.64,5.91 -7.11,14.63 q -0.98,18.39 -0.73,36.85 0.04,3.18 2.72,1.47 4.22,-2.69 6.85,-6.78 a 1.26,1.24 54.4 0 0 0.16,-1.02 q -0.78,-2.75 -0.79,-4.88 -0.1,-17.8 1.55,-38.15 c 0.34,-4.19 4.24,-7.19 7.37,-9.95 q 0.54,-0.47 0.31,-1.14 a 0.68,0.67 78.3 0 0 -0.69,-0.46 c -11.84,1.09 -25.03,15.38 -32.04,24.1 -2.8,3.49 -6.74,4.53 -10.94,5.03 a 0.48,0.47 82 0 1 -0.53,-0.4 L 185.6,147.79 A 1.25,1.25 0 0 0 183.61,147 l -2.17,1.67 q -0.47,0.36 -0.29,-0.2"
           inkscape:connector-curvature="0"
           style="vector-effect:non-scaling-stroke;stroke:#868686" />
        <path
           id="path32062"
           d="m 381.31,0 6.9,1.41 a 0.38,0.38 0 0 1 0.25,0.57 q -1.74,2.9 -4.61,4.56 a 1.4,1.37 -6.8 0 0 -0.62,0.77 c -0.87,2.75 -1.36,5.01 -3.88,6.72 -6,4.08 -9.48,4.56 -16.11,1.28 a 0.59,0.58 -58.6 0 0 -0.72,0.18 c -0.73,0.98 -0.93,1.16 -2.24,0.83 -10.29,-2.57 -23.27,-5.69 -31.5,2.07 a 0.67,0.66 41.3 0 1 -0.85,0.05 l -6.46,-4.67 a 0.52,0.52 0 0 0 -0.79,0.22 q -2.54,6.34 -9.45,3.99 a 0.62,0.62 0 0 0 -0.79,0.39 L 309.55,21 a 1.91,1.91 0 0 1 -2.28,1.25 q -5.66,-1.41 -10.96,0.99 a 1.23,1.22 -45.3 0 1 -0.96,0.01 q -3.09,-1.33 -5.32,-3.86 a 0.48,0.48 0 0 0 -0.79,0.12 L 289.01,20 a 1.28,1.24 1.9 0 1 -0.75,0.68 c -5.72,2.01 -10.88,3.36 -16.91,4.1 q -3.1,0.37 -6.4,1.93 -14.44,6.81 -21.27,10.25 -2.58,1.31 -5.15,1.48 c -3.35,0.24 -7.58,-0.43 -10.56,1.08 q -2.8,1.43 -5.63,2.84 c -1.9,0.95 -2.6,3.17 -4.49,4.41 q -4.09,2.68 -8.43,4.29 -1.22,0.45 -2.51,0.32 l -3.36,-0.34 q -1.25,-0.12 -0.36,0.77 l 1.31,1.31 a 0.43,0.42 -32.4 0 1 -0.16,0.7 l -5.3,1.93"
           inkscape:connector-curvature="0"
           style="vector-effect:non-scaling-stroke;stroke:#e9e9e9" />
        <path
           id="path32064"
           d="m 199.04,55.75 -0.09,-1.43 Q 198.88,53.29 198.12,54 l -5.83,5.5"
           inkscape:connector-curvature="0"
           style="vector-effect:non-scaling-stroke;stroke:#707070" />
        <path
           id="path32066"
           d="m 192.29,59.5 q -1.06,-1 -2.48,-0.84 a 0.62,0.61 -0.7 0 0 -0.54,0.54 c -0.13,1.22 -0.65,1.63 -1.88,1.85 q -4.21,0.75 -8.08,2.8"
           inkscape:connector-curvature="0"
           style="vector-effect:non-scaling-stroke;stroke:#e9e9e9" />
        <path
           id="path32068"
           d="m 179.31,63.85 -0.1,-6.41 q -0.03,-1.6 -1.28,-0.61 c -3.73,2.93 -8.8,7 -7.81,12.41 a 0.31,0.31 0 0 1 -0.39,0.35 c -5.76,-1.62 -11.51,-0.19 -17,1.93 q -0.46,0.18 -0.2,-0.24 c 1.39,-2.25 10.75,-15.79 5.72,-17.23 a 1.36,1.34 -48.8 0 0 -0.94,0.07 q -9,4.1 -14.76,12.03 c -1.93,2.66 -3.03,3.7 -6.06,4.33 q -12.61,2.6 -25.77,7.86 a 0.37,0.36 -9.6 0 1 -0.5,-0.35 l 0.18,-5.61 a 0.9,0.9 0 0 1 0.63,-0.83 l 15.15,-4.75 q 3.03,-0.95 1.26,1.68 l -1.04,1.53 a 0.48,0.48 0 0 0 0.13,0.66 c 1.54,1.07 14.41,-12.37 14.08,-13.42 a 0.62,0.61 -13.8 0 0 -0.7,-0.42 q -15.01,2.88 -29.06,8.88 a 0.38,0.38 0 0 1 -0.53,-0.35 l 0.02,-3.56 q 0.01,-0.9 -0.73,-0.38 -4.55,3.29 -7.87,7.79 c -1.44,1.95 -9.98,8.49 -8.95,10.72 a 0.44,0.43 60 0 0 0.64,0.18 c 2.19,-1.52 4.62,-3.86 7.33,-4.25 a 0.43,0.42 -4.1 0 1 0.49,0.42 v 26.79 a 1.64,1.64 0 0 1 -0.31,0.96 l -5.83,7.91 a 1.15,1.15 0 0 0 0.8,1.83 l 9.09,1.02"
           inkscape:connector-curvature="0"
           style="vector-effect:non-scaling-stroke;stroke:#707070" />
        <path
           id="path32070"
           d="m 83.46,140 q -6.56,-3.3 -12.92,0.25"
           inkscape:connector-curvature="0"
           style="vector-effect:non-scaling-stroke;stroke:#707070" />
        <path
           id="path32072"
           d="m 70.54,140.25 q 1.61,-5.31 -3.45,-7.33 a 1.44,1.43 -2.4 0 1 -0.72,-0.66 l -0.7,-1.36 A 1.36,1.35 37.6 0 1 65.55,130 l 0.47,-2.22 a 0.7,0.7 0 0 0 -0.38,-0.77 q -2.66,-1.28 -2.42,-4.29 a 1.42,1.42 0 0 0 -1.25,-1.52 q -2.7,-0.31 -3.3,-2.82 a 0.18,0.17 -6.2 0 0 -0.17,-0.13 l -0.26,0.01 q -0.2,0 0.09,-0.26 0.26,-0.24 0.17,-0.71"
           inkscape:connector-curvature="0"
           style="vector-effect:non-scaling-stroke;stroke:#dadada" />
        <path
           id="path32074"
           d="M 58.5,117.29 C 79.36,117.43 92.92,99.5 89.81,79.42 89.04,74.4 88.65,65.59 82.43,65.85"
           inkscape:connector-curvature="0"
           style="vector-effect:non-scaling-stroke;stroke:#707070" />
        <path
           id="path32076"
           d="m 359.44,226 0.28,-0.23 a 0.45,0.45 0 0 0 0.11,-0.58 c -3.38,-5.76 -4.36,-11.78 -5.82,-18.17 -0.41,-1.79 -1.65,-2.77 -2.21,-4.58 a 1.34,1.34 0 0 1 0.11,-1.05 L 354,197.7 a 0.7,0.69 -48.1 0 0 -0.03,-0.73 q -3.86,-5.61 -5.78,-12.18 a 1.42,1.39 -83.7 0 0 -0.65,-0.83 l -3.3,-1.89 q -1.88,-1.08 -1.02,-3.06 l 1.57,-3.62 a 0.65,0.65 0 0 0 -0.23,-0.79 l -1.82,-1.25 a 1.05,1.05 0 0 1 -0.46,-0.92 q 0.15,-4.38 -1.88,-8.09 c -1.93,-3.51 -2.27,-7.09 -3.52,-10.77 -1.37,-4.03 -1.04,-6.9 0.3,-10.63 a 1.09,1.06 40.2 0 0 -0.09,-0.91 c -1.22,-2.01 -5.42,-5.54 -3.24,-8.13 a 0.85,0.84 51.3 0 0 0.1,-0.93 l -1.32,-2.56 a 0.64,0.63 67.1 0 0 -0.75,-0.31 l -1.77,0.55 a 0.56,0.56 0 0 1 -0.72,-0.42 l -0.77,-3.57 a 1.69,1.69 0 0 0 -1.46,-1.33 q -1.95,-0.21 -1.61,-2.35 a 0.36,0.36 0 0 0 -0.4,-0.42 c -1.44,0.18 -7.44,2.54 -7.94,0.44"
           inkscape:connector-curvature="0"
           style="vector-effect:non-scaling-stroke;stroke:#f0f0f0" />
        <path
           id="path32078"
           d="m 317.21,123 c 1.53,-1.71 4.76,-3.33 -0.03,-4.43 a 0.67,0.66 88.3 0 1 -0.48,-0.46 c -1.37,-4.52 -0.41,-9.57 -0.67,-14.32 a 0.43,0.42 65.3 0 1 0.11,-0.31 l 0.18,-0.18 a 0.25,0.25 0 0 1 0.39,0.04 l 8.98,14.25 a 0.72,0.72 0 0 0 0.94,0.26 q 3.76,-1.94 6.34,-5.33 1.05,-1.38 1.29,0.34 0.38,2.73 2.81,2.49 a 1.43,1.42 19.5 0 0 0.87,-0.41 l 5.74,-5.75 q 0.6,-0.6 0.69,0.24 0.34,3.17 2.35,5.72 1.63,2.08 3.75,0.5 3.97,-2.96 7.1,-6.86 a 0.51,0.5 -46.1 0 1 0.77,-0.02 q 3.28,3.77 9.19,5.37 c 9.79,2.65 15.32,-0.55 22.32,-7.55 q 13.81,-13.82 11.36,-34.88 c -1.33,-11.34 -18.54,-19.2 -28.03,-13.28 -8.81,5.49 -13,14.4 -17.61,23.38 q -0.24,0.45 -0.58,0.53 a 0.38,0.37 89.6 0 1 -0.44,-0.44 q 2.02,-10.74 1.69,-21.66 a 0.39,0.39 0 0 0 -0.59,-0.33 c -3.48,2.06 -8.18,5.99 -8.34,10.41 q -0.32,8.64 -1.25,17.3 a 0.81,0.8 -3 0 1 -0.64,0.7 l -3.9,0.79 a 0.64,0.63 -5.9 0 1 -0.77,-0.62 V 67.35 a 0.37,0.37 0 0 0 -0.51,-0.34 c -10.79,4.58 -8.81,13.27 -8.39,22.75 a 0.91,0.91 0 0 1 -0.91,0.96 q -3.33,-0.01 -5.75,2.26 a 0.56,0.56 0 0 1 -0.85,-0.1 l -6.96,-10.35 a 1.4,1.37 -59.1 0 1 -0.22,-0.93 l 0.85,-7.11 a 1.64,1.64 0 0 1 0.37,-0.85 c 1.05,-1.26 8.44,-8.66 8.42,-9.3 a 0.42,0.42 0 0 0 -0.58,-0.37 q -3.88,1.63 -6.78,4.74 -0.56,0.61 -0.38,-0.2 l 3.16,-14.55 q 0.21,-0.93 -0.66,-0.53 c -7.02,3.23 -9.13,9.06 -10.11,16.39 q -0.18,1.4 -0.8,0.13 l -3.05,-6.31 a 0.56,0.56 0 0 0 -0.77,-0.24 q -4.27,2.41 -7.38,6.21 -1.32,1.62 -0.4,3.5 l 4.73,9.56 a 1.81,1.81 0 0 1 -0.22,1.94 q -6.07,7.4 -11.5,15.22 c -3.47,5 -11.12,4.65 -15.99,4.67 a 0.53,0.53 0 0 1 -0.54,-0.51 L 274.9,89.74 q -0.08,-1.91 1.8,-2.21 c 8.74,-1.43 17.03,0.27 21.87,-9.35 q 0.78,-1.55 -0.94,-1.36 -10.46,1.15 -20.86,2.86 -0.68,0.11 -1.46,0.42 a 0.44,0.44 0 0 1 -0.61,-0.42 l 0.19,-10.03 a 0.82,0.8 -9.6 0 1 0.54,-0.74 q 7.17,-2.48 14.67,-1.49 a 1.46,1.44 31.6 0 0 0.99,-0.23 q 4.2,-2.8 6.86,-7.22 1.55,-2.57 -1.44,-2.34 c -9.89,0.75 -25.7,2.88 -30.83,12.13 a 1.54,1.53 -33.8 0 0 -0.19,0.94 q 0.48,3.83 0.41,7.69 c -0.14,7.23 -0.08,14.45 -0.3,21.69 q -0.02,0.66 -0.52,0.23 -3.94,-3.44 -8.97,-1.28 -1.43,0.62 -0.59,-0.69 12.53,-19.41 6.74,-42.17 -0.62,-2.42 -3.1,-2.66 c -7.09,-0.67 -21.56,9.67 -23.52,16.47 a 0.32,0.32 0 0 0 0.38,0.4 c 1.93,-0.43 4.32,-3.14 5.78,-4.48 2.49,-2.28 5.56,-3.29 8.64,-3.4 q 2.4,-0.09 2.83,2.27 c 2.12,11.69 2.74,22.11 -2.73,32.99 q -0.22,0.46 -0.33,-0.04 c -0.87,-3.9 -0.91,-8.35 -1.46,-11.78 q -1.56,-9.8 -2.37,-20.29 a 0.51,0.5 -15.1 0 0 -0.72,-0.41 q -11.38,5.32 -7.16,17.63 a 0.93,0.93 0 0 1 -0.67,1.2 l -4.71,1.08 q -2.07,0.48 -2.47,-1.62 -1.76,-9.36 -1.37,-18.04 0.09,-1.86 -0.78,-2.53"
           inkscape:connector-curvature="0"
           style="vector-effect:non-scaling-stroke;stroke:#868686" />
        <path
           id="path32080"
           d="M 228.5,62.96 228.46,62.5"
           inkscape:connector-curvature="0"
           style="vector-effect:non-scaling-stroke;stroke:#e9e9e9" />
        <path
           id="path32082"
           d="m 228.46,62.5 c 4.78,-3.37 8.04,-5.45 10.49,-9.57 a 0.37,0.37 0 0 0 -0.25,-0.55 c -3.46,-0.58 -15.67,11.34 -18.26,14.18 q -11.68,12.74 -20.72,27.56 -0.63,1.02 -0.64,-0.18 l -0.11,-7.28 a 1.21,1.21 0 0 1 0.45,-0.96 c 1.36,-1.09 11.06,-9.2 9.67,-11.17 a 0.48,0.48 0 0 0 -0.71,-0.1 q -3.56,2.94 -7.86,4.66 a 1.1,1.09 79.1 0 1 -1.5,-1.02 l 0.02,-22.32"
           inkscape:connector-curvature="0"
           style="vector-effect:non-scaling-stroke;stroke:#868686" />
        <path
           id="path32084"
           d="m 285.5441,24.6978 a 10.35,1.31 -42.8 0 0 -8.4842,6.071 10.35,1.31 -42.8 0 0 -6.704,7.9934 10.35,1.31 -42.8 0 0 8.4842,-6.071 10.35,1.31 -42.8 0 0 6.704,-7.9934"
           inkscape:connector-curvature="0"
           style="vector-effect:non-scaling-stroke;stroke:#868686" />
        <path
           id="path32086"
           d="m 279.8684,45.0465 a 10.13,1.43 133.1 0 0 7.9657,-6.4194 10.13,1.43 133.1 0 0 5.8775,-8.3736 10.13,1.43 133.1 0 0 -7.9657,6.4194 10.13,1.43 133.1 0 0 -5.8775,8.3736"
           inkscape:connector-curvature="0"
           style="vector-effect:non-scaling-stroke;stroke:#868686" />
        <path
           id="path32088"
           d="m 58.5,117.29 c -6.59,0.44 -12.07,-4.03 -15.71,-9.04"
           inkscape:connector-curvature="0"
           style="vector-effect:non-scaling-stroke;stroke:#767676" />
        <path
           id="path32090"
           d="m 72.84,75.3 q -9.03,1.81 -15.95,7.61 a 0.93,0.91 -24.9 0 0 -0.31,0.82 l 1.46,10.52"
           inkscape:connector-curvature="0"
           style="vector-effect:non-scaling-stroke;stroke:#868686" />
        <path
           id="path32092"
           d="m 58.04,94.25 q 0.25,6.2 2.43,11.85 0.74,1.91 2.78,2.07 c 4.9,0.38 15.94,0.34 17.1,-5.66 0.71,-3.69 2.21,-30.88 -7.51,-27.21"
           inkscape:connector-curvature="0"
           style="vector-effect:non-scaling-stroke;stroke:#767676" />
        <path
           id="path32094"
           d="m 58.04,94.25 q 3.08,-0.36 3.4,-4.04 0.36,-4.17 4.62,-7.91 5.01,-4.4 6.78,-7"
           inkscape:connector-curvature="0"
           style="vector-effect:non-scaling-stroke;stroke:#f0f0f0" />
        <path
           id="path32096"
           d="m 228.46,62.5 q -2.17,0.86 -3.39,2.76 -0.3,0.46 0.2,0.24 1.89,-0.86 3.23,-2.54"
           inkscape:connector-curvature="0"
           style="vector-effect:non-scaling-stroke;stroke:#707070" />
        <path
           id="path32098"
           d="m 317.21,123 c -2.13,1.96 -5.79,7.26 -8.96,4.25 -1.81,-1.71 -1.31,-4.63 -1.29,-7"
           inkscape:connector-curvature="0"
           style="vector-effect:non-scaling-stroke;stroke:#767676" />
        <path
           id="path32100"
           d="m 179.31,63.85 0.51,18.22 a 0.6,0.6 0 0 0 0.66,0.58 l 8.61,-0.8 a 0.77,0.76 88.7 0 0 0.69,-0.73 c 0.26,-5.77 -1.28,-17.41 2.51,-21.62"
           inkscape:connector-curvature="0"
           style="vector-effect:non-scaling-stroke;stroke:#868686" />
        <path
           id="path32102"
           d="m 117.25,105.21 q 2.9,0.04 5.81,0.05 c 3.22,0.01 6.94,-1.15 10.77,-0.67 a 0.59,0.59 0 0 0 0.65,-0.72 c -1.76,-7.49 8.42,-15.26 14.06,-18.37"
           inkscape:connector-curvature="0"
           style="vector-effect:non-scaling-stroke;stroke:#868686" />
        <path
           id="path32104"
           d="m 148.54,85.5 5.25,-2.07"
           inkscape:connector-curvature="0"
           style="vector-effect:non-scaling-stroke;stroke:#707070" />
        <path
           id="path32106"
           d="m 153.79,83.43 q 3.8,-0.86 7.3,-2.75 1.5,-0.81 -0.01,-1.61 l -2.07,-1.1"
           inkscape:connector-curvature="0"
           style="vector-effect:non-scaling-stroke;stroke:#868686" />
        <path
           id="path32108"
           d="m 159.01,77.97 q -11.23,-0.23 -20.3,6.22 -0.53,0.38 -0.96,0.34 a 0.6,0.6 0 0 1 -0.45,-0.92 c 2.46,-3.77 6.44,-6.25 8.57,-9.14 q 3.61,-4.91 4.73,-11.07 a 0.14,0.12 -77.5 0 0 -0.08,-0.15 l -0.25,-0.05 a 0.14,0.13 -64.3 0 0 -0.12,0.05 c -3.69,4.64 -8.21,8.14 -11.71,12.92 q -3.4,4.64 -8.41,7.82 -0.77,0.5 -0.59,-0.4 0.49,-2.33 2.31,-3.92 a 0.38,0.38 0 0 0 -0.04,-0.61 c -1.33,-0.92 -18.26,4.64 -20.77,5.53 a 0.74,0.74 0 0 0 -0.49,0.67 q -0.45,8.66 0.42,17.26 0.29,2.79 3.1,2.74 l 3.28,-0.05"
           inkscape:connector-curvature="0"
           style="vector-effect:non-scaling-stroke;stroke:#707070" />
        <path
           id="path32110"
           d="m 159.01,77.97 q -3.31,2.41 -5.22,5.46"
           inkscape:connector-curvature="0"
           style="vector-effect:non-scaling-stroke;stroke:#e9e9e9" />
        <path
           id="path32112"
           d="m 148.54,85.5 q -5.78,0.1 -10.55,3.41 a 1.43,1.42 -60.8 0 1 -0.91,0.26 q -4.36,-0.22 -4.07,4.26 0.2,3.23 -2.93,4.03 -3.38,0.87 -6.71,0.14 a 0.45,0.44 -86.7 0 0 -0.53,0.48 q 0.29,2.98 -2.76,2.81 a 0.79,0.79 0 0 0 -0.74,0.41 l -2.09,3.91"
           inkscape:connector-curvature="0"
           style="vector-effect:non-scaling-stroke;stroke:#e9e9e9" />
        <path
           id="path32114"
           d="m 369.18,75.33 0.22,0.52 a 1.16,1.15 -49.2 0 1 0.05,0.74 q -2.46,8.42 -3.21,17.15 c -0.81,9.26 7.9,11.59 15.04,12.44 11.34,1.36 11.48,-17.69 10.95,-25.02 C 391.5,70.95 379.83,65.13 370.95,65.2 a 2.13,2.11 -74.4 0 0 -1.82,1.04 c -1.07,1.78 -6.03,10.99 -5.64,12.54 a 0.21,0.2 -25 0 0 0.32,0.11 l 4.94,-3.68 a 0.29,0.29 0 0 1 0.43,0.12"
           inkscape:connector-curvature="0"
           style="vector-effect:non-scaling-stroke;stroke:#868686" />
        <path
           id="path32116"
           d="m 219.61,71.74 q -7.74,8.73 -12.64,19.3 -0.42,0.9 0.55,0.67 l 12.76,-3.01 a 0.66,0.66 0 0 0 0.51,-0.72 q -0.97,-7.93 -0.43,-15.92 0.08,-1.26 -0.75,-0.32"
           inkscape:connector-curvature="0"
           style="vector-effect:non-scaling-stroke;stroke:#868686" />
        <path
           id="path32118"
           d="m 147.53,103.61 a 4.6,4.59 -15.7 0 0 2.5,1.4 q 6.45,1.28 12.38,-1.31 1.61,-0.7 1.72,-2.45 0.57,-8.93 -1,-17.79 -0.37,-2.07 -1.68,-0.43 c -5.04,6.29 -10.4,7.73 -17.46,10.58 a 0.68,0.67 77.5 0 0 -0.42,0.67 q 0.34,5.43 3.96,9.33"
           inkscape:connector-curvature="0"
           style="vector-effect:non-scaling-stroke;stroke:#868686" />
        <path
           id="path32120"
           d="m 353.83,91.05 c -0.62,4.41 -1.48,13.15 3.02,16.17 q 0.49,0.33 0.45,-0.26 -0.65,-11.46 2.87,-22.36 0.18,-0.56 -0.33,-0.27 c -2.88,1.58 -5.51,3.16 -6.01,6.72"
           inkscape:connector-curvature="0"
           style="vector-effect:non-scaling-stroke;stroke:#868686" />
        <path
           id="path32122"
           d="m 343.58,105 a 0.32,0.32 0 0 0 0.62,-0.07 l 0.82,-9.39 a 0.32,0.32 0 0 0 -0.41,-0.34 l -3.56,1.05 a 0.32,0.32 0 0 0 -0.22,0.4 l 2.75,8.35"
           inkscape:connector-curvature="0"
           style="vector-effect:non-scaling-stroke;stroke:#868686" />
        <path
           id="path32124"
           d="m 331.66,100.52 q 0.17,-0.6 -0.12,-1.12 a 0.91,0.9 -14.6 0 0 -0.81,-0.47 l -1.24,0.04 a 0.48,0.48 0 0 0 -0.4,0.71 l 1.79,3.28 q 0.31,0.57 0.6,-0.02 0.41,-0.86 0.18,-1.81 -0.08,-0.3 0,-0.61"
           inkscape:connector-curvature="0"
           style="vector-effect:non-scaling-stroke;stroke:#868686" />
        <path
           id="path32126"
           d="m 236.11,111.6 q 3.04,-0.23 4.61,-2.15 0.65,-0.8 -0.26,-0.34 l -4.43,2.2 q -0.7,0.34 0.08,0.29"
           inkscape:connector-curvature="0"
           style="vector-effect:non-scaling-stroke;stroke:#767676" />
        <path
           id="path32128"
           d="m 70.54,140.25 q -7.5,5.69 -13.26,13.05 c -4.73,6.04 -6.08,12.67 -6.32,20.1"
           inkscape:connector-curvature="0"
           style="vector-effect:non-scaling-stroke;stroke:#767676" />
        <path
           id="path32130"
           d="m 62.04,165.75 c -0.1,10.34 -2.14,24.07 13.15,23.76 a 0.5,0.5 0 0 1 0.48,0.68 l -0.39,1.04 a 0.55,0.55 0 0 0 0.36,0.73 q 2.02,0.59 2.44,-1.2 2.59,-10.99 2.01,-26.32 -0.27,-7.27 -2.84,-11.98"
           inkscape:connector-curvature="0"
           style="vector-effect:non-scaling-stroke;stroke:#868686" />
        <path
           id="path32132"
           d="m 77.25,152.46 q -2.65,-5.57 -9.19,-5.01 -1.72,0.15 -2.44,1.72 -3.5,7.68 -3.58,16.58"
           inkscape:connector-curvature="0"
           style="vector-effect:non-scaling-stroke;stroke:#767676" />
        <path
           id="path32134"
           d="m 77.25,152.46 q -5.28,3.1 -8.45,8.37 a 1.65,1.64 -86.3 0 1 -0.75,0.66 l -3.28,1.43 a 1.01,1 -2.9 0 0 -0.55,0.6 q -0.57,1.67 -2.18,2.23"
           inkscape:connector-curvature="0"
           style="vector-effect:non-scaling-stroke;stroke:#f0f0f0" />
        <path
           id="path32136"
           d="m 134.22,158.44 1.34,-2.14 q 0.36,-0.57 -0.22,-0.22 c -1.28,0.77 -3.34,2.42 -4.81,2.09 q -0.74,-0.17 -1.26,-0.73 -1.76,-1.89 0.04,-3.75 l 5.66,-5.85 q 0.38,-0.39 -0.15,-0.49 c -2.52,-0.52 -4.46,0.34 -5.67,2.75 q -8.03,16.02 -8.03,34.02 c 0,7.92 11.75,8.15 16.85,6.67 6.59,-1.92 10.68,-12.49 12.21,-18.42 1.45,-5.6 0.53,-12.07 0.8,-18.15 a 0.34,0.34 0 0 0 -0.44,-0.34 l -15.76,5.26 q -1.25,0.42 -0.56,-0.7"
           inkscape:connector-curvature="0"
           style="vector-effect:non-scaling-stroke;stroke:#868686" />
        <path
           id="path32138"
           d="m 161.45,176.89 q 5.36,-15.51 15.54,-28.38 0.38,-0.49 -0.24,-0.45 -7.93,0.48 -15.5,2.88 a 0.75,0.74 81.3 0 0 -0.53,0.73 l 0.1,25.11 q 0.01,1.89 0.63,0.11"
           inkscape:connector-curvature="0"
           style="vector-effect:non-scaling-stroke;stroke:#868686" />
        <path
           id="path32140"
           d="m 176.04,157.05 q -3.92,7.36 -6.48,15.29 -0.27,0.82 0.55,0.56 l 8.1,-2.55 a 0.87,0.86 -13.7 0 0 0.59,-0.96 l -2.02,-12.22 q -0.19,-1.14 -0.74,-0.12"
           inkscape:connector-curvature="0"
           style="vector-effect:non-scaling-stroke;stroke:#868686" />
        <path
           id="path32142"
           d="m 190.56,178.78 a 0.34,0.34 0 0 0 0.64,0.06 l 2.39,-5.11 a 0.34,0.34 0 0 0 -0.4,-0.47 l -3.4,0.97 a 0.34,0.34 0 0 0 -0.23,0.41 l 1,4.14"
           inkscape:connector-curvature="0"
           style="vector-effect:non-scaling-stroke;stroke:#868686" />
      </g>
      <path
         id="path32146"
         d="m 0,0 h 203.56 l -3.55,0.37 a 0.36,0.36 0 0 0 -0.28,0.53 l 0.51,0.99 a 0.55,0.55 0 0 1 -0.38,0.8 q -1.99,0.4 -2.7,2.25 a 0.76,0.76 0 0 1 -0.65,0.49 c -6.3,0.47 -10.29,0.25 -17.27,2.29 q -1.81,0.53 -11.2,1.73 a 1.06,1.05 -82.7 0 0 -0.84,0.66 l -1.25,3.22 q -0.63,1.63 -2.27,2.25 -5.07,1.91 -8.33,6.22 a 1.57,1.57 0 0 1 -0.81,0.57 c -3.86,1.14 -6.5,1.91 -10.03,4.43 -4.51,3.23 -6.33,3.39 -9.11,8.72 a 0.51,0.5 20.3 0 1 -0.55,0.25 l -3.22,-0.69 a 0.76,0.75 14.3 0 0 -0.88,0.51 l -0.93,3.05 a 1.33,1.33 0 0 1 -0.65,0.79 c -3.99,2.15 -7.61,5.35 -11.53,6.88 q -6.34,2.46 -13.17,3.49 a 1.32,1.3 16.5 0 0 -0.77,0.41 q -4.87,5.32 -10.78,9.41 a 1.42,1.42 0 0 0 -0.56,0.78 q -0.54,1.87 -2.36,2.1 -4.79,0.6 -7.57,3.35 C 72.9,67.35 65.25,73.01 57.02,78.69 A 0.33,0.33 0 0 1 56.51,78.45 Q 55.14,64.66 55.56,50.8 a 0.86,0.84 -10.4 0 1 0.53,-0.75 q 12.03,-4.98 24.98,-6.12 c 4.89,-0.43 8.24,-3.94 10.11,-8.21 a 0.67,0.66 9.4 0 0 -0.67,-0.93 q -18.27,1.56 -34.62,9.79 -0.83,0.41 -0.64,-0.49 l 0.26,-1.25 q 0.2,-0.92 -0.66,-0.54 c -7.14,3.17 -8.55,9.26 -12.33,15.38 a 0.45,0.43 38.6 0 0 0.07,0.54 l 0.24,0.24 a 0.4,0.4 0 0 0 0.55,0 L 44.93,57 q 1.67,-1.59 1.61,0.72 -0.41,14.72 0.64,29.41 a 1.02,0.98 -27.5 0 1 -0.25,0.73 l -1.64,1.88 q -0.88,1 0.42,0.72 l 0.79,-0.17 a 0.57,0.56 79.5 0 1 0.68,0.47 l 0.55,3.67 a 0.85,0.85 0 0 1 -0.36,0.83 q -4.13,2.9 -6.91,7.08 a 1.04,1.03 48.7 0 0 -0.06,1.02 l 2.39,4.89 q -0.92,0.81 -4.07,-0.04 a 1.78,1.77 -71.4 0 0 -2.12,1.06 q -1.4,3.54 -2.66,6.79 c -0.84,2.17 -6.05,5.26 -3.07,7.92 q 1.94,1.72 -0.11,3.32 l -6.34,4.93 q -1.6,1.25 -0.05,2.56 1.46,1.24 0.52,2.93 a 1.6,1.59 -86.1 0 1 -0.82,0.72 q -2.05,0.81 -3.33,2.55 a 1.08,1.07 54.5 0 0 -0.16,0.99 c 1.42,4.25 2.78,6.98 1.1,12.06 -0.41,1.21 -0.07,1.85 0.54,2.82 a 1.74,1.72 29.5 0 1 0.26,0.91 q 0.06,11.74 11.96,14.78 9.24,2.36 16.52,0.85 c -0.4,4.64 -1.45,10.06 -0.25,14.48 1.74,6.41 8.01,11.22 14.23,12.83 5.59,1.46 9.29,-0.59 13.26,-4.3 12.12,-11.32 11.23,-25.94 11.21,-41.81 a 1.07,1.07 0 0 1 0.37,-0.81 q 3.25,-2.88 7.36,-4.34 a 0.38,0.38 0 0 1 0.51,0.38 c -1.22,20.34 -1.6,37.28 0.09,52.71 a 0.36,0.36 0 0 0 0.55,0.26 q 4.72,-2.99 8.06,-7.46 a 1.46,1.43 61.5 0 0 0.28,-0.97 q -1.99,-24.15 0.22,-48.27 a 1.33,1.33 0 0 1 1.1,-1.18 l 7.97,-1.33 a 0.82,0.82 0 0 1 0.9,0.53 l 0.63,1.8 a 0.43,0.43 0 0 0 0.68,0.2 c 1.69,-1.32 9.7,-8.12 7.78,-10.34 q -1.4,-1.62 -3.5,-1.2 -18.51,3.69 -33.24,15.39 a 0.44,0.44 0 0 1 -0.71,-0.27 q -0.91,-5.69 -5,-9.7 1.86,-2.11 1,-4.78 A 0.8,0.79 73.4 0 1 85,134.21 l 6.61,-1.82 a 0.71,0.71 0 0 0 0.52,-0.71 l -0.16,-3.44 a 0.72,0.71 79.4 0 1 0.49,-0.72 c 6.99,-2.15 8.91,-7.53 12.54,-12.73 q 21.15,-1.52 31.31,-2.48 0.51,-0.05 1.27,-0.55 a 0.58,0.58 0 0 1 0.74,0.08 q 2.41,2.48 5.93,2.56 c 12.15,0.27 20.07,-5.74 26.68,-15.29 q 0.29,-0.42 0.41,0.07 1.32,5.26 -0.92,10.06 c -0.5,1.06 -0.67,2.63 -0.01,3.46 q 1.26,1.58 2.97,0.5 3.99,-2.53 6.95,-6.1 c 2.85,-3.42 0.63,-11.66 0.44,-15.58 a 0.59,0.58 82.3 0 1 0.45,-0.6 l 7.97,-1.89 a 0.42,0.42 0 0 1 0.52,0.41 c 0.02,4.21 -0.67,23.53 6.96,22.67 a 0.52,0.51 82.3 0 1 0.56,0.43 c 1.01,6.19 8.6,6.73 12.94,3.88 2.55,-1.67 9.13,-6.8 9.48,-9.94 q 0.06,-0.53 -0.4,-0.27 c -1.89,1.03 -3.74,2.42 -5.78,2.74 -6.15,0.95 -8.11,-3.9 -6.95,-9.38 a 0.76,0.75 -1.4 0 1 0.54,-0.56 l 14.63,-3.87 a 0.63,0.63 0 0 1 0.73,0.35 c 1.58,3.62 6.05,10.2 6.12,13.79 q 0.05,2.3 1.7,0.69 l 6.77,-6.6 q 2.12,-2.07 0.65,-4.64 l -4.17,-7.29 a 0.58,0.58 0 0 1 0.07,-0.69 l 4.31,-4.92 q 0.45,-0.52 0.54,0.16 l 2.27,17.21 a 0.97,0.95 -22.9 0 1 -0.37,0.88 c -2.93,2.2 -14.31,11.49 -13.91,15.2 q 0.25,2.33 2.41,1.42 c 7.14,-2.98 13.68,-6.67 19.09,-12.04 q 2.39,-2.38 5.7,-1.21 c 3,1.06 4.06,4.24 4.81,7.1 a 0.78,0.77 -27.4 0 1 -0.26,0.8 c -4.7,3.85 -9.15,8.53 -6.06,14.22 q 1.04,1.92 3.02,0.98 c 6.97,-3.29 12.52,-8.37 12.7,-16.4 a 0.54,0.53 -0.6 0 1 0.52,-0.52 q 8.24,-0.25 16.19,-2.53 0.86,-0.25 0.36,0.49 -5.28,7.84 -8.95,16.55 a 0.6,0.6 0 0 0 0.27,0.76 c 0.61,0.31 1.49,0.11 2.07,-0.35 q 4.82,-3.75 5.5,-5.33 c 3.57,-8.34 7.11,-15.29 13.57,-21.79 a 0.84,0.83 -31.4 0 0 0.21,-0.84 l -0.34,-1.08 a 1.25,1.25 0 0 1 0.11,-1.01 q 3.49,-5.94 7.93,-11.21 a 0.47,0.46 -41.7 0 1 0.74,0.04 c 3.06,4.62 0.95,7.39 0.98,12.01 q 0.09,10.47 -0.01,20.91 -0.3,1.12 -2.56,0.33 a 1.52,1.5 44 0 0 -1.05,0.01 c -4.46,1.64 -4.3,2.72 -6.16,6.67 a 1.64,1.62 87 0 1 -0.64,0.72 c -3.21,1.97 -7.16,3.54 -5.86,8.32 a 1.69,1.68 -42.8 0 1 -0.04,0.95 q -0.48,1.4 -1.1,2.74 c -1.02,2.21 -0.79,4.68 -2.88,6.66 a 1.47,1.47 0 0 0 -0.05,2.09 l 1.74,1.8 a 1.13,1.11 29 0 1 0.3,1.01 c -1.03,5.22 0.84,11.92 2.17,17.03 0.29,1.12 -0.05,1.72 -0.42,2.73 a 1.73,1.65 -41.6 0 0 -0.08,0.95 c 0.61,3.17 2.24,5.9 2.66,9 q 0.28,2.03 0.68,4.06 a 0.7,0.7 0 0 0 0.57,0.56 l 3.33,0.58 a 0.74,0.74 0 0 1 0.61,0.62 q 0.88,6.14 4.33,11.33 a 1.25,1.25 0 0 1 0.19,0.94 l -0.87,4.68 q -0.09,0.48 -0.41,0.85 -1.6,1.88 -1.08,4.4 a 1.61,1.57 16.7 0 0 0.45,0.81 c 1.83,1.76 2.99,2.65 3.64,5.29 q 1.16,4.74 2.32,9.44 a 0.93,0.91 2.5 0 0 0.62,0.66 l 1.57,0.52 H 0 Z m 181.15,148.47 q 0.21,-0.65 0.89,-1.19 3.68,-2.9 6.21,-7.29 a 0.41,0.41 0 0 0 -0.24,-0.59 c -4.41,-1.36 -13.69,1.02 -17.3,1.94 q -15.84,4 -30.96,10.22 -0.56,0.23 -0.09,-0.16 4.68,-3.87 5.53,-9.95 0.42,-2.95 -2.55,-3.17 c -8.88,-0.66 -17.27,9.46 -21.14,16.69 q -9.5,17.73 -9.31,36.84 c 0.03,2.99 0.87,5.24 3.48,6.56 14.41,7.26 27.34,-5.41 35.29,-16.04 q 0.3,-0.41 0.36,0.09 c 0.48,4.11 1.45,13.43 -0.63,16.97 a 0.61,0.61 0 0 0 0.15,0.78 c 1.11,0.89 3.48,-0.89 4.33,-1.47 q 1.36,-0.95 1.11,0.7 c -0.49,3.23 1.4,4.91 4.53,4.6 4.57,-0.46 14.39,-8.61 14.63,-12.24 a 0.32,0.31 79 0 0 -0.45,-0.31 c -3.43,1.66 -3.15,3.75 -7.76,3.47 a 1.59,1.59 0 0 1 -1.5,-1.63 q 0.13,-4.62 0.65,-9.75 0.34,-3.29 3.05,-3.89 c 3.23,-0.73 6.39,-1.73 9.74,-2.35 a 0.59,0.59 0 0 1 0.69,0.48 l 3.22,18.13 a 1.25,1.23 -31.7 0 1 -0.24,0.98 l -1.69,2.22 a 0.81,0.8 42.9 0 0 0.04,1.03 c 1.01,1.11 6.53,-4.39 7.27,-5.27 q 0.88,-1.05 1.03,0.31 c 0.52,4.81 5.04,7.52 9.52,6.88 3.85,-0.55 6.9,-4.37 9.35,-7.35 q 1.65,-2.01 -0.93,-1.66 -9.39,1.25 -9.09,-9.05 c 0.44,-14.95 8.85,-31.99 24.17,-36.49 q 0.5,-0.15 0.11,0.21 c -6,5.4 -6.64,5.91 -7.11,14.63 q -0.98,18.39 -0.73,36.85 0.04,3.18 2.72,1.47 4.22,-2.69 6.85,-6.78 a 1.26,1.24 54.4 0 0 0.16,-1.02 q -0.78,-2.75 -0.79,-4.88 -0.1,-17.8 1.55,-38.15 c 0.34,-4.19 4.24,-7.19 7.37,-9.95 q 0.54,-0.47 0.31,-1.14 a 0.68,0.67 78.3 0 0 -0.69,-0.46 c -11.84,1.09 -25.03,15.38 -32.04,24.1 -2.8,3.49 -6.74,4.53 -10.94,5.03 a 0.48,0.47 82 0 1 -0.53,-0.4 L 185.6,147.79 A 1.25,1.25 0 0 0 183.61,147 l -2.17,1.67 q -0.47,0.36 -0.29,-0.2 z"
         inkscape:connector-curvature="0"
         style="fill:#ffffff" />
      <path
         id="path32148"
         d="m 203.56,0 h 177.75 l 6.9,1.41 a 0.38,0.38 0 0 1 0.25,0.57 q -1.74,2.9 -4.61,4.56 a 1.4,1.37 -6.8 0 0 -0.62,0.77 c -0.87,2.75 -1.36,5.01 -3.88,6.72 -6,4.08 -9.48,4.56 -16.11,1.28 a 0.59,0.58 -58.6 0 0 -0.72,0.18 c -0.73,0.98 -0.93,1.16 -2.24,0.83 -10.29,-2.57 -23.27,-5.69 -31.5,2.07 a 0.67,0.66 41.3 0 1 -0.85,0.05 l -6.46,-4.67 a 0.52,0.52 0 0 0 -0.79,0.22 q -2.54,6.34 -9.45,3.99 a 0.62,0.62 0 0 0 -0.79,0.39 L 309.55,21 a 1.91,1.91 0 0 1 -2.28,1.25 q -5.66,-1.41 -10.96,0.99 a 1.23,1.22 -45.3 0 1 -0.96,0.01 q -3.09,-1.33 -5.32,-3.86 a 0.48,0.48 0 0 0 -0.79,0.12 L 289.01,20 a 1.28,1.24 1.9 0 1 -0.75,0.68 c -5.72,2.01 -10.88,3.36 -16.91,4.1 q -3.1,0.37 -6.4,1.93 -14.44,6.81 -21.27,10.25 -2.58,1.31 -5.15,1.48 c -3.35,0.24 -7.58,-0.43 -10.56,1.08 q -2.8,1.43 -5.63,2.84 c -1.9,0.95 -2.6,3.17 -4.49,4.41 q -4.09,2.68 -8.43,4.29 -1.22,0.45 -2.51,0.32 l -3.36,-0.34 q -1.25,-0.12 -0.36,0.77 l 1.31,1.31 a 0.43,0.42 -32.4 0 1 -0.16,0.7 l -5.3,1.93 -0.09,-1.43 Q 198.88,53.29 198.12,54 l -5.83,5.5 q -1.06,-1 -2.48,-0.84 a 0.62,0.61 -0.7 0 0 -0.54,0.54 c -0.13,1.22 -0.65,1.63 -1.88,1.85 q -4.21,0.75 -8.08,2.8 l -0.1,-6.41 q -0.03,-1.6 -1.28,-0.61 c -3.73,2.93 -8.8,7 -7.81,12.41 a 0.31,0.31 0 0 1 -0.39,0.35 c -5.76,-1.62 -11.51,-0.19 -17,1.93 q -0.46,0.18 -0.2,-0.24 c 1.39,-2.25 10.75,-15.79 5.72,-17.23 a 1.36,1.34 -48.8 0 0 -0.94,0.07 q -9,4.1 -14.76,12.03 c -1.93,2.66 -3.03,3.7 -6.06,4.33 q -12.61,2.6 -25.77,7.86 a 0.37,0.36 -9.6 0 1 -0.5,-0.35 l 0.18,-5.61 a 0.9,0.9 0 0 1 0.63,-0.83 l 15.15,-4.75 q 3.03,-0.95 1.26,1.68 l -1.04,1.53 a 0.48,0.48 0 0 0 0.13,0.66 c 1.54,1.07 14.41,-12.37 14.08,-13.42 a 0.62,0.61 -13.8 0 0 -0.7,-0.42 q -15.01,2.88 -29.06,8.88 a 0.38,0.38 0 0 1 -0.53,-0.35 l 0.02,-3.56 q 0.01,-0.9 -0.73,-0.38 -4.55,3.29 -7.87,7.79 c -1.44,1.95 -9.98,8.49 -8.95,10.72 a 0.44,0.43 60 0 0 0.64,0.18 c 2.19,-1.52 4.62,-3.86 7.33,-4.25 a 0.43,0.42 -4.1 0 1 0.49,0.42 v 26.79 a 1.64,1.64 0 0 1 -0.31,0.96 l -5.83,7.91 a 1.15,1.15 0 0 0 0.8,1.83 l 9.09,1.02 c -3.63,5.2 -5.55,10.58 -12.54,12.73 a 0.72,0.71 79.4 0 0 -0.49,0.72 l 0.16,3.44 a 0.71,0.71 0 0 1 -0.52,0.71 L 85,134.21 a 0.8,0.79 73.4 0 0 -0.54,1.01 q 0.86,2.67 -1,4.78 -6.56,-3.3 -12.92,0.25 1.61,-5.31 -3.45,-7.33 a 1.44,1.43 -2.4 0 1 -0.72,-0.66 l -0.7,-1.36 A 1.36,1.35 37.6 0 1 65.55,130 l 0.47,-2.22 a 0.7,0.7 0 0 0 -0.38,-0.77 q -2.66,-1.28 -2.42,-4.29 a 1.42,1.42 0 0 0 -1.25,-1.52 q -2.7,-0.31 -3.3,-2.82 a 0.18,0.17 -6.2 0 0 -0.17,-0.13 l -0.26,0.01 q -0.2,0 0.09,-0.26 0.26,-0.24 0.17,-0.71 C 79.36,117.43 92.92,99.5 89.81,79.42 89.04,74.4 88.65,65.59 82.43,65.85 Q 85.21,63.1 90,62.5 q 1.82,-0.23 2.36,-2.1 a 1.42,1.42 0 0 1 0.56,-0.78 q 5.91,-4.09 10.78,-9.41 a 1.32,1.3 16.5 0 1 0.77,-0.41 q 6.83,-1.03 13.17,-3.49 c 3.92,-1.53 7.54,-4.73 11.53,-6.88 a 1.33,1.33 0 0 0 0.65,-0.79 l 0.93,-3.05 a 0.76,0.75 14.3 0 1 0.88,-0.51 l 3.22,0.69 a 0.51,0.5 20.3 0 0 0.55,-0.25 c 2.78,-5.33 4.6,-5.49 9.11,-8.72 3.53,-2.52 6.17,-3.29 10.03,-4.43 a 1.57,1.57 0 0 0 0.81,-0.57 q 3.26,-4.31 8.33,-6.22 1.64,-0.62 2.27,-2.25 l 1.25,-3.22 a 1.06,1.05 -82.7 0 1 0.84,-0.66 q 9.39,-1.2 11.2,-1.73 c 6.98,-2.04 10.97,-1.82 17.27,-2.29 a 0.76,0.76 0 0 0 0.65,-0.49 q 0.71,-1.85 2.7,-2.25 a 0.55,0.55 0 0 0 0.38,-0.8 L 199.73,0.9 a 0.36,0.36 0 0 1 0.28,-0.53 z"
         inkscape:connector-curvature="0"
         style="fill:#d3d3d3" />
      <path
         id="path32150"
         d="m 390.21923,0 h 69.9485 v 237.04247 h -92.88708 l 0.29368,-0.24124 a 0.47198722,0.47198722 0 0 0 0.11538,-0.60834 c -3.54515,-6.04143 -4.57304,-12.35557 -6.10437,-19.05779 -0.43004,-1.87746 -1.73062,-2.90534 -2.31798,-4.80378 a 1.4054731,1.4054731 0 0 1 0.11537,-1.10131 l 2.19212,-3.87029 a 0.72371374,0.73420234 41.9 0 0 -0.0315,-0.76567 q -4.0486,-5.88411 -6.06241,-12.77512 a 1.4579161,1.4893819 6.3 0 0 -0.68176,-0.87055 l -3.46124,-1.98235 q -1.97186,-1.13277 -1.06984,-3.20951 l 1.64671,-3.79688 a 0.68175932,0.68175932 0 0 0 -0.24123,-0.8286 l -1.90893,-1.31107 a 1.1013035,1.1013035 0 0 1 -0.48248,-0.96496 q 0.15733,-4.594 -1.97185,-8.48528 c -2.0243,-3.6815 -2.38092,-7.43642 -3.69199,-11.29622 -1.43694,-4.22691 -1.09082,-7.23714 0.31466,-11.14939 a 1.1432579,1.1117921 40.2 0 0 -0.0944,-0.95446 c -1.27961,-2.10821 -5.68483,-5.81069 -3.39831,-8.52724 a 0.89153142,0.88104281 51.3 0 0 0.10489,-0.97544 l -1.3845,-2.68508 a 0.67127071,0.66078211 67.1 0 0 -0.78665,-0.32515 l -1.85648,0.57687 a 0.58736188,0.58736188 0 0 1 -0.75518,-0.44052 l -0.80762,-3.74443 a 1.7725742,1.7725742 0 0 0 -1.53134,-1.39498 q -2.04527,-0.22027 -1.68866,-2.46483 a 0.37758978,0.37758978 0 0 0 -0.41955,-0.44052 c -1.51036,0.1888 -7.80352,2.66411 -8.32795,0.4615 1.60476,-1.79355 4.99258,-3.49271 -0.0315,-4.64645 a 0.70273653,0.69224792 88.3 0 1 -0.50346,-0.48248 c -1.43694,-4.74085 -0.43003,-10.03759 -0.70273,-15.01968 a 0.45101001,0.44052141 65.3 0 1 0.11537,-0.32515 l 0.1888,-0.18879 a 0.26221512,0.26221512 0 0 1 0.40905,0.0419 l 9.41877,14.94627 a 0.75517955,0.75517955 0 0 0 0.98593,0.2727 q 3.94371,-2.03479 6.64977,-5.59043 1.10131,-1.44743 1.35303,0.35662 0.39857,2.86338 2.9473,2.61166 a 1.4998705,1.4893819 19.5 0 0 0.91251,-0.43004 l 6.02046,-6.03094 q 0.62931,-0.62932 0.72371,0.25172 0.35661,3.32489 2.46482,5.99949 1.70965,2.18163 3.93323,0.52443 4.16398,-3.10463 7.44691,-7.19519 a 0.52443025,0.53491885 43.9 0 1 0.80762,-0.021 q 3.44027,3.9542 9.63903,5.63238 c 10.26835,2.77948 16.06854,-0.57688 23.41057,-7.9189 Q 413.66126,97.302788 411.09155,75.213786 C 409.69657,63.319708 391.64568,55.075664 381.69199,61.284918 372.45153,67.043163 368.05681,76.38851 363.22156,85.807277 q -0.25173,0.471987 -0.60834,0.555896 a 0.39856699,0.38807838 89.6 0 1 -0.4615,-0.461499 q 2.1187,-11.264761 1.77258,-22.718318 a 0.40905559,0.40905559 0 0 0 -0.61883,-0.346124 c -3.65004,2.160653 -8.57968,6.282674 -8.7475,10.918638 q -0.33563,9.062154 -1.31107,18.145286 a 0.83908839,0.849577 87 0 1 -0.67127,0.734203 l -4.09056,0.828599 a 0.66078211,0.67127071 84.1 0 1 -0.80762,-0.650293 V 70.640754 a 0.38807838,0.38807838 0 0 0 -0.53492,-0.356612 c -11.31721,4.803781 -9.24046,13.918378 -8.79994,23.861576 a 0.95446305,0.95446305 0 0 1 -0.95446,1.006906 q -3.49271,-0.01049 -6.03095,2.370424 a 0.58736188,0.58736188 0 0 1 -0.89153,-0.104886 l -7.30007,-10.855706 a 1.4369389,1.4684047 30.9 0 1 -0.23075,-0.97544 l 0.89153,-7.457398 a 1.7201312,1.7201312 0 0 1 0.38808,-0.891531 c 1.1013,-1.321565 8.85238,-9.083132 8.8314,-9.754403 a 0.44052141,0.44052141 0 0 0 -0.60834,-0.388078 q -4.06957,1.709642 -7.11127,4.971598 -0.58736,0.639805 -0.39857,-0.209772 l 3.3144,-15.26092 q 0.22026,-0.97544 -0.69225,-0.555896 c -7.363,3.387819 -9.57609,9.502676 -10.60398,17.190823 q -0.18879,1.468405 -0.83908,0.136352 l -3.19903,-6.618309 a 0.58736188,0.58736188 0 0 0 -0.80762,-0.251727 q -4.47863,2.527754 -7.74059,6.513424 -1.3845,1.699154 -0.41955,3.671012 l 4.96111,10.027106 a 1.8984375,1.8984375 0 0 1 -0.23074,2.034789 q -6.36659,7.761568 -12.0619,15.963654 c -3.63955,5.24431 -11.66333,4.8772 -16.77128,4.89818 a 0.55589606,0.55589606 0 0 1 -0.56638,-0.53492 l -0.66079,-14.94626 q -0.0839,-2.003323 1.88795,-2.317981 c 9.16704,-1.499871 17.8621,0.283192 22.93858,-9.806846 q 0.81811,-1.625734 -0.98593,-1.42645 -10.97108,1.206189 -21.87923,2.999741 -0.71322,0.115375 -1.53133,0.440521 a 0.46149862,0.46149862 0 0 1 -0.63981,-0.440521 l 0.19929,-10.520071 a 0.83908839,0.8600656 80.4 0 1 0.56638,-0.776157 q 7.52033,-2.601174 15.38678,-1.562802 a 1.5313363,1.5103591 31.6 0 0 1.03838,-0.241238 q 4.40521,-2.936809 7.19518,-7.572772 1.62573,-2.695572 -1.51036,-2.454334 c -10.37323,0.786645 -26.95572,3.020718 -32.33637,12.722678 a 1.6047566,1.6152452 56.2 0 0 -0.19928,0.985929 q 0.50345,4.017135 0.43003,8.065737 c -0.14684,7.583261 -0.0839,15.156034 -0.31466,22.749786 q -0.021,0.69225 -0.54541,0.24124 -4.13251,-3.60808 -9.40827,-1.34255 -1.49988,0.6503 -0.61883,-0.72371 13.14222,-20.358381 7.06932,-44.230446 -0.6503,-2.538243 -3.25147,-2.789969 c -7.43642,-0.702737 -22.61343,10.142481 -24.6692,17.274732 a 0.33563536,0.33563536 0 0 0 0.39857,0.419544 c 2.0243,-0.45101 4.53108,-3.293422 6.06241,-4.698895 2.61166,-2.391402 5.83167,-3.450751 9.06216,-3.566125 q 2.51726,-0.0944 2.96827,2.380913 c 2.22359,12.261179 2.87388,23.190305 -2.86339,34.601906 q -0.23075,0.48248 -0.34612,-0.042 c -0.91251,-4.090559 -0.95446,-8.757988 -1.53134,-12.355579 q -1.63622,-10.278833 -2.4858,-21.28138 a 0.52443025,0.53491885 74.9 0 0 -0.75518,-0.430033 q -11.93603,5.579938 -7.50984,18.491411 a 0.97544026,0.97544026 0 0 1 -0.70273,1.258632 l -4.94014,1.13277 q -2.17114,0.503453 -2.59068,-1.699154 -1.846,-9.817334 -1.43694,-18.921443 0.0944,-1.950881 -0.81811,-2.653617 l -0.042,-0.482476 c 5.01356,-3.53466 8.43284,-5.71629 11.00255,-10.037595 a 0.38807838,0.38807838 0 0 0 -0.26222,-0.576873 C 237.01214,54.330923 224.20555,66.83334 221.489,69.812104 q -12.25069,13.362483 -21.73239,28.906595 -0.66078,1.069838 -0.67127,-0.188794 L 198.96997,90.8942 a 1.2691212,1.2691212 0 0 1 0.47198,-1.006906 c 1.42645,-1.143258 11.6004,-9.649516 10.14248,-11.715772 a 0.50345304,0.50345304 0 0 0 -0.74469,-0.104886 q -3.73394,3.08365 -8.24404,4.88769 a 1.1537465,1.1432579 79.1 0 1 -1.57329,-1.069837 l 0.021,-23.410567 5.55896,-2.0243 a 0.44052141,0.45101001 57.6 0 0 0.16782,-0.734203 l -1.37401,-1.374007 q -0.93349,-0.933486 0.37759,-0.807623 l 3.52417,0.356613 q 1.35303,0.136352 2.63264,-0.335635 4.55205,-1.688666 8.84189,-4.499612 c 1.98235,-1.300587 2.71655,-3.629057 4.70939,-4.625475 q 2.96827,-1.478893 5.90508,-2.978763 c 3.12561,-1.58378 7.56229,-0.881043 11.07597,-1.13277 q 2.69557,-0.178306 5.40163,-1.552313 7.16372,-3.60808 22.30926,-10.75082 3.46124,-1.636223 6.71271,-2.024301 c 6.32463,-0.776157 11.73675,-2.192118 17.73623,-4.300328 a 1.3425414,1.300587 1.9 0 0 0.78665,-0.713225 l 0.24123,-0.513942 a 0.50345304,0.50345304 0 0 1 0.8286,-0.125863 q 2.33896,2.653617 5.57994,4.048601 a 1.2796098,1.2900984 44.7 0 0 1.00691,-0.01049 q 5.55896,-2.517265 11.49551,-1.038372 a 2.0033235,2.0033235 0 0 0 2.3914,-1.311076 l 0.93349,-2.758503 a 0.6502935,0.6502935 0 0 1 0.8286,-0.409055 q 7.24762,2.464822 9.91173,-4.184954 a 0.54540746,0.54540746 0 0 1 0.8286,-0.230749 l 6.77564,4.898178 a 0.70273653,0.69224792 41.3 0 0 0.89153,-0.05244 c 8.63212,-8.139157 22.24633,-4.866712 33.0391,-2.171141 1.37401,0.346124 1.58378,0.157329 2.34945,-0.870554 a 0.60833908,0.61882769 31.4 0 1 0.75518,-0.188795 c 6.95394,3.440263 10.60398,2.936809 16.89714,-1.342541 2.64313,-1.793552 3.15707,-4.163976 4.06958,-7.0483428 a 1.4369389,1.4684047 83.2 0 1 0.65029,-0.8076226 q 3.01023,-1.7411084 4.83525,-4.7828038 A 0.39856699,0.39856699 0 0 0 397.45637,1.4788933 Z M 289.77416,25.904547 a 1.3740072,10.855706 47.2 0 0 -8.89874,6.367632 1.3740072,10.855706 47.2 0 0 -7.03156,8.383961 1.3740072,10.855706 47.2 0 0 8.89874,-6.367632 1.3740072,10.855706 47.2 0 0 7.03156,-8.383961 z m -5.95302,21.342947 a 1.4998705,10.624957 43.1 0 0 8.35491,-6.733055 1.4998705,10.624957 43.1 0 0 6.16468,-8.782738 1.4998705,10.624957 43.1 0 0 -8.35491,6.733055 1.4998705,10.624957 43.1 0 0 -6.16468,8.782738 z"
         inkscape:connector-curvature="0"
         style="fill:#ffffff;stroke-width:1.04886055" />
      <ellipse
         id="ellipse32152"
         ry="1.3099999"
         rx="10.35"
         transform="rotate(-42.8,179.45771,-338.7574)"
         cy="0"
         cx="0"
         style="fill:#0c0c0c" />
      <ellipse
         id="ellipse32154"
         ry="1.4299999"
         rx="10.13"
         transform="rotate(133.1,135.22918,81.026183)"
         cy="0"
         cx="0"
         style="fill:#0c0c0c" />
      <path
         id="path32156"
         d="m 82.43,65.85 c 6.22,-0.26 6.61,8.55 7.38,13.57 3.11,20.08 -10.45,38.01 -31.31,37.87 -6.59,0.44 -12.07,-4.03 -15.71,-9.04 l -2.39,-4.89 a 1.04,1.03 48.7 0 1 0.06,-1.02 q 2.78,-4.18 6.91,-7.08 a 0.85,0.85 0 0 0 0.36,-0.83 L 47.18,90.76 A 0.57,0.56 79.5 0 0 46.5,90.29 l -0.79,0.17 q -1.3,0.28 -0.42,-0.72 l 1.64,-1.88 a 1.02,0.98 -27.5 0 0 0.25,-0.73 Q 46.13,72.44 46.54,57.72 46.6,55.41 44.93,57 l -1.55,1.46 a 0.4,0.4 0 0 1 -0.55,0 L 42.59,58.22 A 0.45,0.43 38.6 0 1 42.52,57.68 C 46.3,51.56 47.71,45.47 54.85,42.3 q 0.86,-0.38 0.66,0.54 l -0.26,1.25 q -0.19,0.9 0.64,0.49 16.35,-8.23 34.62,-9.79 a 0.67,0.66 9.4 0 1 0.67,0.93 c -1.87,4.27 -5.22,7.78 -10.11,8.21 q -12.95,1.14 -24.98,6.12 a 0.86,0.84 -10.4 0 0 -0.53,0.75 q -0.42,13.86 0.95,27.65 a 0.33,0.33 0 0 0 0.51,0.24 C 65.25,73.01 72.9,67.35 82.43,65.85 Z m -9.59,9.45 q -9.03,1.81 -15.95,7.61 a 0.93,0.91 -24.9 0 0 -0.31,0.82 l 1.46,10.52 q 0.25,6.2 2.43,11.85 0.74,1.91 2.78,2.07 c 4.9,0.38 15.94,0.34 17.1,-5.66 0.71,-3.69 2.21,-30.88 -7.51,-27.21 z"
         inkscape:connector-curvature="0"
         style="fill:#0c0c0c" />
      <path
         id="path32158"
         d="m 228.46,62.5 q -2.17,0.86 -3.39,2.76 -0.3,0.46 0.2,0.24 1.89,-0.86 3.23,-2.54 0.87,0.67 0.78,2.53 -0.39,8.68 1.37,18.04 0.4,2.1 2.47,1.62 l 4.71,-1.08 a 0.93,0.93 0 0 0 0.67,-1.2 q -4.22,-12.31 7.16,-17.63 a 0.51,0.5 -15.1 0 1 0.72,0.41 q 0.81,10.49 2.37,20.29 c 0.55,3.43 0.59,7.88 1.46,11.78 q 0.11,0.5 0.33,0.04 c 5.47,-10.88 4.85,-21.3 2.73,-32.99 q -0.43,-2.36 -2.83,-2.27 c -3.08,0.11 -6.15,1.12 -8.64,3.4 -1.46,1.34 -3.85,4.05 -5.78,4.48 a 0.32,0.32 0 0 1 -0.38,-0.4 c 1.96,-6.8 16.43,-17.14 23.52,-16.47 q 2.48,0.24 3.1,2.66 5.79,22.76 -6.74,42.17 -0.84,1.31 0.59,0.69 5.03,-2.16 8.97,1.28 0.5,0.43 0.52,-0.23 c 0.22,-7.24 0.16,-14.46 0.3,-21.69 q 0.07,-3.86 -0.41,-7.69 a 1.54,1.53 -33.8 0 1 0.19,-0.94 c 5.13,-9.25 20.94,-11.38 30.83,-12.13 q 2.99,-0.23 1.44,2.34 -2.66,4.42 -6.86,7.22 a 1.46,1.44 31.6 0 1 -0.99,0.23 q -7.5,-0.99 -14.67,1.49 a 0.82,0.8 -9.6 0 0 -0.54,0.74 l -0.19,10.03 a 0.44,0.44 0 0 0 0.61,0.42 q 0.78,-0.31 1.46,-0.42 10.4,-1.71 20.86,-2.86 1.72,-0.19 0.94,1.36 c -4.84,9.62 -13.13,7.92 -21.87,9.35 q -1.88,0.3 -1.8,2.21 l 0.63,14.25 a 0.53,0.53 0 0 0 0.54,0.51 c 4.87,-0.02 12.52,0.33 15.99,-4.67 q 5.43,-7.82 11.5,-15.22 a 1.81,1.81 0 0 0 0.22,-1.94 l -4.73,-9.56 q -0.92,-1.88 0.4,-3.5 3.11,-3.8 7.38,-6.21 a 0.56,0.56 0 0 1 0.77,0.24 l 3.05,6.31 q 0.62,1.27 0.8,-0.13 c 0.98,-7.33 3.09,-13.16 10.11,-16.39 q 0.87,-0.4 0.66,0.53 l -3.16,14.55 q -0.18,0.81 0.38,0.2 2.9,-3.11 6.78,-4.74 a 0.42,0.42 0 0 1 0.58,0.37 c 0.02,0.64 -7.37,8.04 -8.42,9.3 a 1.64,1.64 0 0 0 -0.37,0.85 l -0.85,7.11 a 1.4,1.37 -59.1 0 0 0.22,0.93 l 6.96,10.35 a 0.56,0.56 0 0 0 0.85,0.1 q 2.42,-2.27 5.75,-2.26 a 0.91,0.91 0 0 0 0.91,-0.96 c -0.42,-9.48 -2.4,-18.17 8.39,-22.75 a 0.37,0.37 0 0 1 0.51,0.34 v 21.14 a 0.64,0.63 -5.9 0 0 0.77,0.62 l 3.9,-0.79 a 0.81,0.8 -3 0 0 0.64,-0.7 q 0.93,-8.66 1.25,-17.3 c 0.16,-4.42 4.86,-8.35 8.34,-10.41 a 0.39,0.39 0 0 1 0.59,0.33 q 0.33,10.92 -1.69,21.66 a 0.38,0.37 89.6 0 0 0.44,0.44 q 0.34,-0.08 0.58,-0.53 c 4.61,-8.98 8.8,-17.89 17.61,-23.38 9.49,-5.92 26.7,1.94 28.03,13.28 q 2.45,21.06 -11.36,34.88 c -7,7 -12.53,10.2 -22.32,7.55 q -5.91,-1.6 -9.19,-5.37 a 0.51,0.5 -46.1 0 0 -0.77,0.02 q -3.13,3.9 -7.1,6.86 -2.12,1.58 -3.75,-0.5 -2.01,-2.55 -2.35,-5.72 -0.09,-0.84 -0.69,-0.24 l -5.74,5.75 a 1.43,1.42 19.5 0 1 -0.87,0.41 q -2.43,0.24 -2.81,-2.49 -0.24,-1.72 -1.29,-0.34 -2.58,3.39 -6.34,5.33 a 0.72,0.72 0 0 1 -0.94,-0.26 l -8.98,-14.25 a 0.25,0.25 0 0 0 -0.39,-0.04 l -0.18,0.18 a 0.43,0.42 65.3 0 0 -0.11,0.31 c 0.26,4.75 -0.7,9.8 0.67,14.32 a 0.67,0.66 88.3 0 0 0.48,0.46 c 4.79,1.1 1.56,2.72 0.03,4.43 -2.13,1.96 -5.79,7.26 -8.96,4.25 -1.81,-1.71 -1.31,-4.63 -1.29,-7 q 0.1,-10.44 0.01,-20.91 c -0.03,-4.62 2.08,-7.39 -0.98,-12.01 a 0.47,0.46 -41.7 0 0 -0.74,-0.04 q -4.44,5.27 -7.93,11.21 a 1.25,1.25 0 0 0 -0.11,1.01 l 0.34,1.08 a 0.84,0.83 -31.4 0 1 -0.21,0.84 c -6.46,6.5 -10,13.45 -13.57,21.79 q -0.68,1.58 -5.5,5.33 c -0.58,0.46 -1.46,0.66 -2.07,0.35 a 0.6,0.6 0 0 1 -0.27,-0.76 q 3.67,-8.71 8.95,-16.55 0.5,-0.74 -0.36,-0.49 -7.95,2.28 -16.19,2.53 a 0.54,0.53 -0.6 0 0 -0.52,0.52 c -0.18,8.03 -5.73,13.11 -12.7,16.4 q -1.98,0.94 -3.02,-0.98 c -3.09,-5.69 1.36,-10.37 6.06,-14.22 a 0.78,0.77 -27.4 0 0 0.26,-0.8 c -0.75,-2.86 -1.81,-6.04 -4.81,-7.1 q -3.31,-1.17 -5.7,1.21 c -5.41,5.37 -11.95,9.06 -19.09,12.04 q -2.16,0.91 -2.41,-1.42 c -0.4,-3.71 10.98,-13 13.91,-15.2 a 0.97,0.95 -22.9 0 0 0.37,-0.88 l -2.27,-17.21 q -0.09,-0.68 -0.54,-0.16 l -4.31,4.92 a 0.58,0.58 0 0 0 -0.07,0.69 l 4.17,7.29 q 1.47,2.57 -0.65,4.64 l -6.77,6.6 q -1.65,1.61 -1.7,-0.69 C 228.47,105.69 224,99.11 222.42,95.49 a 0.63,0.63 0 0 0 -0.73,-0.35 l -14.63,3.87 a 0.76,0.75 -1.4 0 0 -0.54,0.56 c -1.16,5.48 0.8,10.33 6.95,9.38 2.04,-0.32 3.89,-1.71 5.78,-2.74 q 0.46,-0.26 0.4,0.27 c -0.35,3.14 -6.93,8.27 -9.48,9.94 -4.34,2.85 -11.93,2.31 -12.94,-3.88 a 0.52,0.51 82.3 0 0 -0.56,-0.43 c -7.63,0.86 -6.94,-18.46 -6.96,-22.67 a 0.42,0.42 0 0 0 -0.52,-0.41 l -7.97,1.89 a 0.59,0.58 82.3 0 0 -0.45,0.6 c 0.19,3.92 2.41,12.16 -0.44,15.58 q -2.96,3.57 -6.95,6.1 -1.71,1.08 -2.97,-0.5 c -0.66,-0.83 -0.49,-2.4 0.01,-3.46 q 2.24,-4.8 0.92,-10.06 -0.12,-0.49 -0.41,-0.07 c -6.61,9.55 -14.53,15.56 -26.68,15.29 q -3.52,-0.08 -5.93,-2.56 a 0.58,0.58 0 0 0 -0.74,-0.08 q -0.76,0.5 -1.27,0.55 -10.16,0.96 -31.31,2.48 l -9.09,-1.02 a 1.15,1.15 0 0 1 -0.8,-1.83 l 5.83,-7.91 a 1.64,1.64 0 0 0 0.31,-0.96 V 76.28 a 0.43,0.42 -4.1 0 0 -0.49,-0.42 c -2.71,0.39 -5.14,2.73 -7.33,4.25 a 0.44,0.43 60 0 1 -0.64,-0.18 c -1.03,-2.23 7.51,-8.77 8.95,-10.72 q 3.32,-4.5 7.87,-7.79 0.74,-0.52 0.73,0.38 l -0.02,3.56 a 0.38,0.38 0 0 0 0.53,0.35 q 14.05,-6 29.06,-8.88 a 0.62,0.61 -13.8 0 1 0.7,0.42 c 0.33,1.05 -12.54,14.49 -14.08,13.42 a 0.48,0.48 0 0 1 -0.13,-0.66 l 1.04,-1.53 q 1.77,-2.63 -1.26,-1.68 l -15.15,4.75 a 0.9,0.9 0 0 0 -0.63,0.83 l -0.18,5.61 a 0.37,0.36 -9.6 0 0 0.5,0.35 q 13.16,-5.26 25.77,-7.86 c 3.03,-0.63 4.13,-1.67 6.06,-4.33 q 5.76,-7.93 14.76,-12.03 a 1.36,1.34 -48.8 0 1 0.94,-0.07 c 5.03,1.44 -4.33,14.98 -5.72,17.23 q -0.26,0.42 0.2,0.24 c 5.49,-2.12 11.24,-3.55 17,-1.93 a 0.31,0.31 0 0 0 0.39,-0.35 c -0.99,-5.41 4.08,-9.48 7.81,-12.41 q 1.25,-0.99 1.28,0.61 l 0.1,6.41 0.51,18.22 a 0.6,0.6 0 0 0 0.66,0.58 l 8.61,-0.8 a 0.77,0.76 88.7 0 0 0.69,-0.73 c 0.26,-5.77 -1.28,-17.41 2.51,-21.62 l 5.83,-5.5 q 0.76,-0.71 0.83,0.32 l 0.09,1.43 -0.02,22.32 a 1.1,1.09 79.1 0 0 1.5,1.02 q 4.3,-1.72 7.86,-4.66 a 0.48,0.48 0 0 1 0.71,0.1 c 1.39,1.97 -8.31,10.08 -9.67,11.17 a 1.21,1.21 0 0 0 -0.45,0.96 l 0.11,7.28 q 0.01,1.2 0.64,0.18 9.04,-14.82 20.72,-27.56 c 2.59,-2.84 14.8,-14.76 18.26,-14.18 a 0.37,0.37 0 0 1 0.25,0.55 c -2.45,4.12 -5.71,6.2 -10.49,9.57 z m -111.21,42.71 q 2.9,0.04 5.81,0.05 c 3.22,0.01 6.94,-1.15 10.77,-0.67 a 0.59,0.59 0 0 0 0.65,-0.72 c -1.76,-7.49 8.42,-15.26 14.06,-18.37 l 5.25,-2.07 q 3.8,-0.86 7.3,-2.75 1.5,-0.81 -0.01,-1.61 l -2.07,-1.1 q -11.23,-0.23 -20.3,6.22 -0.53,0.38 -0.96,0.34 a 0.6,0.6 0 0 1 -0.45,-0.92 c 2.46,-3.77 6.44,-6.25 8.57,-9.14 q 3.61,-4.91 4.73,-11.07 a 0.14,0.12 -77.5 0 0 -0.08,-0.15 l -0.25,-0.05 a 0.14,0.13 -64.3 0 0 -0.12,0.05 c -3.69,4.64 -8.21,8.14 -11.71,12.92 q -3.4,4.64 -8.41,7.82 -0.77,0.5 -0.59,-0.4 0.49,-2.33 2.31,-3.92 a 0.38,0.38 0 0 0 -0.04,-0.61 c -1.33,-0.92 -18.26,4.64 -20.77,5.53 a 0.74,0.74 0 0 0 -0.49,0.67 q -0.45,8.66 0.42,17.26 0.29,2.79 3.1,2.74 z m 251.93,-29.88 0.22,0.52 a 1.16,1.15 -49.2 0 1 0.05,0.74 q -2.46,8.42 -3.21,17.15 c -0.81,9.26 7.9,11.59 15.04,12.44 11.34,1.36 11.48,-17.69 10.95,-25.02 C 391.5,70.95 379.83,65.13 370.95,65.2 a 2.13,2.11 -74.4 0 0 -1.82,1.04 c -1.07,1.78 -6.03,10.99 -5.64,12.54 a 0.21,0.2 -25 0 0 0.32,0.11 l 4.94,-3.68 a 0.29,0.29 0 0 1 0.43,0.12 z M 219.61,71.74 q -7.74,8.73 -12.64,19.3 -0.42,0.9 0.55,0.67 l 12.76,-3.01 a 0.66,0.66 0 0 0 0.51,-0.72 q -0.97,-7.93 -0.43,-15.92 0.08,-1.26 -0.75,-0.32 z m -72.08,31.87 a 4.6,4.59 -15.7 0 0 2.5,1.4 q 6.45,1.28 12.38,-1.31 1.61,-0.7 1.72,-2.45 0.57,-8.93 -1,-17.79 -0.37,-2.07 -1.68,-0.43 c -5.04,6.29 -10.4,7.73 -17.46,10.58 a 0.68,0.67 77.5 0 0 -0.42,0.67 q 0.34,5.43 3.96,9.33 z m 206.3,-12.56 c -0.62,4.41 -1.48,13.15 3.02,16.17 q 0.49,0.33 0.45,-0.26 -0.65,-11.46 2.87,-22.36 0.18,-0.56 -0.33,-0.27 c -2.88,1.58 -5.51,3.16 -6.01,6.72 z M 343.58,105 a 0.32,0.32 0 0 0 0.62,-0.07 l 0.82,-9.39 a 0.32,0.32 0 0 0 -0.41,-0.34 l -3.56,1.05 a 0.32,0.32 0 0 0 -0.22,0.4 z m -11.92,-4.48 q 0.17,-0.6 -0.12,-1.12 a 0.91,0.9 -14.6 0 0 -0.81,-0.47 l -1.24,0.04 a 0.48,0.48 0 0 0 -0.4,0.71 l 1.79,3.28 q 0.31,0.57 0.6,-0.02 0.41,-0.86 0.18,-1.81 -0.08,-0.3 0,-0.61 z m -95.55,11.08 q 3.04,-0.23 4.61,-2.15 0.65,-0.8 -0.26,-0.34 l -4.43,2.2 q -0.7,0.34 0.08,0.29 z"
         inkscape:connector-curvature="0"
         style="fill:#0c0c0c" />
      <path
         id="path32160"
         d="m 192.29,59.5 c -3.79,4.21 -2.25,15.85 -2.51,21.62 a 0.77,0.76 88.7 0 1 -0.69,0.73 l -8.61,0.8 a 0.6,0.6 0 0 1 -0.66,-0.58 l -0.51,-18.22 q 3.87,-2.05 8.08,-2.8 c 1.23,-0.22 1.75,-0.63 1.88,-1.85 a 0.62,0.61 -0.7 0 1 0.54,-0.54 q 1.42,-0.16 2.48,0.84 z"
         inkscape:connector-curvature="0"
         style="fill:#ffffff" />
      <path
         id="path32162"
         d="m 228.46,62.5 0.04,0.46 q -1.34,1.68 -3.23,2.54 -0.5,0.22 -0.2,-0.24 1.22,-1.9 3.39,-2.76 z"
         inkscape:connector-curvature="0"
         style="fill:#d3d3d3" />
      <path
         id="path32164"
         d="m 159.01,77.97 q -3.31,2.41 -5.22,5.46 l -5.25,2.07 q -5.78,0.1 -10.55,3.41 a 1.43,1.42 -60.8 0 1 -0.91,0.26 q -4.36,-0.22 -4.07,4.26 0.2,3.23 -2.93,4.03 -3.38,0.87 -6.71,0.14 a 0.45,0.44 -86.7 0 0 -0.53,0.48 q 0.29,2.98 -2.76,2.81 a 0.79,0.79 0 0 0 -0.74,0.41 l -2.09,3.91 -3.28,0.05 q -2.81,0.05 -3.1,-2.74 -0.87,-8.6 -0.42,-17.26 a 0.74,0.74 0 0 1 0.49,-0.67 c 2.51,-0.89 19.44,-6.45 20.77,-5.53 a 0.38,0.38 0 0 1 0.04,0.61 q -1.82,1.59 -2.31,3.92 -0.18,0.9 0.59,0.4 5.01,-3.18 8.41,-7.82 c 3.5,-4.78 8.02,-8.28 11.71,-12.92 a 0.14,0.13 -64.3 0 1 0.12,-0.05 l 0.25,0.05 a 0.14,0.12 -77.5 0 1 0.08,0.15 q -1.12,6.16 -4.73,11.07 c -2.13,2.89 -6.11,5.37 -8.57,9.14 a 0.6,0.6 0 0 0 0.45,0.92 q 0.43,0.04 0.96,-0.34 9.07,-6.45 20.3,-6.22 z"
         inkscape:connector-curvature="0"
         style="fill:#d3d3d3" />
      <path
         id="path32166"
         d="m 368.75,75.21 -4.94,3.68 a 0.21,0.2 -25 0 1 -0.32,-0.11 c -0.39,-1.55 4.57,-10.76 5.64,-12.54 a 2.13,2.11 -74.4 0 1 1.82,-1.04 c 8.88,-0.07 20.55,5.75 21.28,15.96 0.53,7.33 0.39,26.38 -10.95,25.02 -7.14,-0.85 -15.85,-3.18 -15.04,-12.44 q 0.75,-8.73 3.21,-17.15 a 1.16,1.15 -49.2 0 0 -0.05,-0.74 l -0.22,-0.52 a 0.29,0.29 0 0 0 -0.43,-0.12 z"
         inkscape:connector-curvature="0"
         style="fill:#ffffff" />
      <path
         id="path32168"
         d="m 219.61,71.74 q 0.83,-0.94 0.75,0.32 -0.54,7.99 0.43,15.92 a 0.66,0.66 0 0 1 -0.51,0.72 l -12.76,3.01 q -0.97,0.23 -0.55,-0.67 4.9,-10.57 12.64,-19.3 z"
         inkscape:connector-curvature="0"
         style="fill:#ffffff" />
      <path
         id="path32170"
         d="m 58.04,94.25 q 3.08,-0.36 3.4,-4.04 0.36,-4.17 4.62,-7.91 5.01,-4.4 6.78,-7 c 9.72,-3.67 8.22,23.52 7.51,27.21 -1.16,6 -12.2,6.04 -17.1,5.66 q -2.04,-0.16 -2.78,-2.07 -2.18,-5.65 -2.43,-11.85 z"
         inkscape:connector-curvature="0"
         style="fill:#e0e0e0" />
      <path
         id="path32172"
         d="m 72.84,75.3 q -1.77,2.6 -6.78,7 -4.26,3.74 -4.62,7.91 -0.32,3.68 -3.4,4.04 L 56.58,83.73 a 0.93,0.91 -24.9 0 1 0.31,-0.82 q 6.92,-5.8 15.95,-7.61 z"
         inkscape:connector-curvature="0"
         style="fill:#ffffff" />
      <path
         id="path32174"
         d="m 159.01,77.97 2.07,1.1 q 1.51,0.8 0.01,1.61 -3.5,1.89 -7.3,2.75 1.91,-3.05 5.22,-5.46 z"
         inkscape:connector-curvature="0"
         style="fill:#ffffff" />
      <path
         id="path32176"
         d="m 147.53,103.61 q -3.62,-3.9 -3.96,-9.33 a 0.68,0.67 77.5 0 1 0.42,-0.67 c 7.06,-2.85 12.42,-4.29 17.46,-10.58 q 1.31,-1.64 1.68,0.43 1.57,8.86 1,17.79 -0.11,1.75 -1.72,2.45 -5.93,2.59 -12.38,1.31 a 4.6,4.59 -15.7 0 1 -2.5,-1.4 z"
         inkscape:connector-curvature="0"
         style="fill:#ffffff" />
      <path
         id="path32178"
         d="m 353.83,91.05 c 0.5,-3.56 3.13,-5.14 6.01,-6.72 q 0.51,-0.29 0.33,0.27 -3.52,10.9 -2.87,22.36 0.04,0.59 -0.45,0.26 c -4.5,-3.02 -3.64,-11.76 -3.02,-16.17 z"
         inkscape:connector-curvature="0"
         style="fill:#ffffff" />
      <path
         id="path32180"
         d="m 148.54,85.5 c -5.64,3.11 -15.82,10.88 -14.06,18.37 a 0.59,0.59 0 0 1 -0.65,0.72 c -3.83,-0.48 -7.55,0.68 -10.77,0.67 q -2.91,-0.01 -5.81,-0.05 l 2.09,-3.91 a 0.79,0.79 0 0 1 0.74,-0.41 q 3.05,0.17 2.76,-2.81 a 0.45,0.44 -86.7 0 1 0.53,-0.48 q 3.33,0.73 6.71,-0.14 3.13,-0.8 2.93,-4.03 -0.29,-4.48 4.07,-4.26 a 1.43,1.42 -60.8 0 0 0.91,-0.26 q 4.77,-3.31 10.55,-3.41 z"
         inkscape:connector-curvature="0"
         style="fill:#ffffff" />
      <path
         id="path32182"
         d="m 343.58,105 -2.75,-8.35 a 0.32,0.32 0 0 1 0.22,-0.4 l 3.56,-1.05 a 0.32,0.32 0 0 1 0.41,0.34 l -0.82,9.39 a 0.32,0.32 0 0 1 -0.62,0.07 z"
         inkscape:connector-curvature="0"
         style="fill:#ffffff" />
      <path
         id="path32184"
         d="m 331.66,101.13 q 0.23,0.95 -0.18,1.81 -0.29,0.59 -0.6,0.02 l -1.79,-3.28 a 0.48,0.48 0 0 1 0.4,-0.71 l 1.24,-0.04 a 0.91,0.9 -14.6 0 1 0.81,0.47 q 0.29,0.52 0.12,1.12 -0.08,0.31 0,0.61 z"
         inkscape:connector-curvature="0"
         style="fill:#ffffff" />
      <path
         id="path32186"
         d="m 42.79,108.25 c 3.64,5.01 9.12,9.48 15.71,9.04 q 0.09,0.47 -0.17,0.71 -0.29,0.26 -0.09,0.26 l 0.26,-0.01 a 0.18,0.17 -6.2 0 1 0.17,0.13 q 0.6,2.51 3.3,2.82 a 1.42,1.42 0 0 1 1.25,1.52 q -0.24,3.01 2.42,4.29 a 0.7,0.7 0 0 1 0.38,0.77 L 65.55,130 a 1.36,1.35 37.6 0 0 0.12,0.9 l 0.7,1.36 a 1.44,1.43 -2.4 0 0 0.72,0.66 q 5.06,2.02 3.45,7.33 -7.5,5.69 -13.26,13.05 c -4.73,6.04 -6.08,12.67 -6.32,20.1 q -7.28,1.51 -16.52,-0.85 -11.9,-3.04 -11.96,-14.78 a 1.74,1.72 29.5 0 0 -0.26,-0.91 c -0.61,-0.97 -0.95,-1.61 -0.54,-2.82 1.68,-5.08 0.32,-7.81 -1.1,-12.06 a 1.08,1.07 54.5 0 1 0.16,-0.99 q 1.28,-1.74 3.33,-2.55 a 1.6,1.59 -86.1 0 0 0.82,-0.72 q 0.94,-1.69 -0.52,-2.93 -1.55,-1.31 0.05,-2.56 l 6.34,-4.93 q 2.05,-1.6 0.11,-3.32 c -2.98,-2.66 2.23,-5.75 3.07,-7.92 q 1.26,-3.25 2.66,-6.79 a 1.78,1.77 -71.4 0 1 2.12,-1.06 q 3.15,0.85 4.07,0.04 z"
         inkscape:connector-curvature="0"
         style="fill:#e0e0e0" />
      <path
         id="path32188"
         d="m 236.11,111.6 q -0.78,0.05 -0.08,-0.29 l 4.43,-2.2 q 0.91,-0.46 0.26,0.34 -1.57,1.92 -4.61,2.15 z"
         inkscape:connector-curvature="0"
         style="fill:#e0e0e0" />
      <path
         id="path32190"
         d="m 306.96,120.25 c -0.02,2.37 -0.52,5.29 1.29,7 3.17,3.01 6.83,-2.29 8.96,-4.25 0.5,2.1 6.5,-0.26 7.94,-0.44 a 0.36,0.36 0 0 1 0.4,0.42 q -0.34,2.14 1.61,2.35 a 1.69,1.69 0 0 1 1.46,1.33 l 0.77,3.57 a 0.56,0.56 0 0 0 0.72,0.42 l 1.77,-0.55 a 0.64,0.63 67.1 0 1 0.75,0.31 l 1.32,2.56 a 0.85,0.84 51.3 0 1 -0.1,0.93 c -2.18,2.59 2.02,6.12 3.24,8.13 a 1.09,1.06 40.2 0 1 0.09,0.91 c -1.34,3.73 -1.67,6.6 -0.3,10.63 1.25,3.68 1.59,7.26 3.52,10.77 q 2.03,3.71 1.88,8.09 a 1.05,1.05 0 0 0 0.46,0.92 l 1.82,1.25 a 0.65,0.65 0 0 1 0.23,0.79 l -1.57,3.62 q -0.86,1.98 1.02,3.06 l 3.3,1.89 a 1.42,1.39 -83.7 0 1 0.65,0.83 q 1.92,6.57 5.78,12.18 a 0.7,0.69 -48.1 0 1 0.03,0.73 l -2.09,3.69 a 1.34,1.34 0 0 0 -0.11,1.05 c 0.56,1.81 1.8,2.79 2.21,4.58 1.46,6.39 2.44,12.41 5.82,18.17 a 0.45,0.45 0 0 1 -0.11,0.58 l -0.28,0.23 h -50.5 l -1.57,-0.52 a 0.93,0.91 2.5 0 1 -0.62,-0.66 q -1.16,-4.7 -2.32,-9.44 c -0.65,-2.64 -1.81,-3.53 -3.64,-5.29 a 1.61,1.57 16.7 0 1 -0.45,-0.81 q -0.52,-2.52 1.08,-4.4 0.32,-0.37 0.41,-0.85 l 0.87,-4.68 a 1.25,1.25 0 0 0 -0.19,-0.94 q -3.45,-5.19 -4.33,-11.33 a 0.74,0.74 0 0 0 -0.61,-0.62 l -3.33,-0.58 a 0.7,0.7 0 0 1 -0.57,-0.56 q -0.4,-2.03 -0.68,-4.06 c -0.42,-3.1 -2.05,-5.83 -2.66,-9 a 1.73,1.65 -41.6 0 1 0.08,-0.95 c 0.37,-1.01 0.71,-1.61 0.42,-2.73 -1.33,-5.11 -3.2,-11.81 -2.17,-17.03 a 1.13,1.11 29 0 0 -0.3,-1.01 l -1.74,-1.8 a 1.47,1.47 0 0 1 0.05,-2.09 c 2.09,-1.98 1.86,-4.45 2.88,-6.66 q 0.62,-1.34 1.1,-2.74 a 1.69,1.68 -42.8 0 0 0.04,-0.95 c -1.3,-4.78 2.65,-6.35 5.86,-8.32 a 1.64,1.62 87 0 0 0.64,-0.72 c 1.86,-3.95 1.7,-5.03 6.16,-6.67 a 1.52,1.5 44 0 1 1.05,-0.01 q 2.26,0.79 2.56,-0.33 z"
         inkscape:connector-curvature="0"
         style="fill:#e0e0e0" />
      <path
         id="path32192"
         d="m 50.96,173.4 c 0.24,-7.43 1.59,-14.06 6.32,-20.1 q 5.76,-7.36 13.26,-13.05 6.36,-3.55 12.92,-0.25 4.09,4.01 5,9.7 a 0.44,0.44 0 0 0 0.71,0.27 q 14.73,-11.7 33.24,-15.39 2.1,-0.42 3.5,1.2 c 1.92,2.22 -6.09,9.02 -7.78,10.34 a 0.43,0.43 0 0 1 -0.68,-0.2 l -0.63,-1.8 a 0.82,0.82 0 0 0 -0.9,-0.53 l -7.97,1.33 a 1.33,1.33 0 0 0 -1.1,1.18 q -2.21,24.12 -0.22,48.27 a 1.46,1.43 61.5 0 1 -0.28,0.97 q -3.34,4.47 -8.06,7.46 a 0.36,0.36 0 0 1 -0.55,-0.26 c -1.69,-15.43 -1.31,-32.37 -0.09,-52.71 a 0.38,0.38 0 0 0 -0.51,-0.38 q -4.11,1.46 -7.36,4.34 a 1.07,1.07 0 0 0 -0.37,0.81 c 0.02,15.87 0.91,30.49 -11.21,41.81 -3.97,3.71 -7.67,5.76 -13.26,4.3 -6.22,-1.61 -12.49,-6.42 -14.23,-12.83 -1.2,-4.42 -0.15,-9.84 0.25,-14.48 z m 11.08,-7.65 c -0.1,10.34 -2.14,24.07 13.15,23.76 a 0.5,0.5 0 0 1 0.48,0.68 l -0.39,1.04 a 0.55,0.55 0 0 0 0.36,0.73 q 2.02,0.59 2.44,-1.2 2.59,-10.99 2.01,-26.32 -0.27,-7.27 -2.84,-11.98 -2.65,-5.57 -9.19,-5.01 -1.72,0.15 -2.44,1.72 -3.5,7.68 -3.58,16.58 z"
         inkscape:connector-curvature="0"
         style="fill:#0c0c0c" />
      <path
         id="path32194"
         d="m 181.44,148.67 2.17,-1.67 a 1.25,1.25 0 0 1 1.99,0.79 l 3.15,19.23 a 0.48,0.47 82 0 0 0.53,0.4 c 4.2,-0.5 8.14,-1.54 10.94,-5.03 7.01,-8.72 20.2,-23.01 32.04,-24.1 a 0.68,0.67 78.3 0 1 0.69,0.46 q 0.23,0.67 -0.31,1.14 c -3.13,2.76 -7.03,5.76 -7.37,9.95 q -1.65,20.35 -1.55,38.15 0.01,2.13 0.79,4.88 a 1.26,1.24 54.4 0 1 -0.16,1.02 q -2.63,4.09 -6.85,6.78 -2.68,1.71 -2.72,-1.47 -0.25,-18.46 0.73,-36.85 c 0.47,-8.72 1.11,-9.23 7.11,-14.63 q 0.39,-0.36 -0.11,-0.21 c -15.32,4.5 -23.73,21.54 -24.17,36.49 q -0.3,10.3 9.09,9.05 2.58,-0.35 0.93,1.66 c -2.45,2.98 -5.5,6.8 -9.35,7.35 -4.48,0.64 -9,-2.07 -9.52,-6.88 q -0.15,-1.36 -1.03,-0.31 c -0.74,0.88 -6.26,6.38 -7.27,5.27 a 0.81,0.8 42.9 0 1 -0.04,-1.03 l 1.69,-2.22 a 1.25,1.23 -31.7 0 0 0.24,-0.98 l -3.22,-18.13 a 0.59,0.59 0 0 0 -0.69,-0.48 c -3.35,0.62 -6.51,1.62 -9.74,2.35 q -2.71,0.6 -3.05,3.89 -0.52,5.13 -0.65,9.75 a 1.59,1.59 0 0 0 1.5,1.63 c 4.61,0.28 4.33,-1.81 7.76,-3.47 a 0.32,0.31 79 0 1 0.45,0.31 c -0.24,3.63 -10.06,11.78 -14.63,12.24 -3.13,0.31 -5.02,-1.37 -4.53,-4.6 q 0.25,-1.65 -1.11,-0.7 c -0.85,0.58 -3.22,2.36 -4.33,1.47 a 0.61,0.61 0 0 1 -0.15,-0.78 c 2.08,-3.54 1.11,-12.86 0.63,-16.97 q -0.06,-0.5 -0.36,-0.09 c -7.95,10.63 -20.88,23.3 -35.29,16.04 -2.61,-1.32 -3.45,-3.57 -3.48,-6.56 Q 112,172.7 121.5,154.97 c 3.87,-7.23 12.26,-17.35 21.14,-16.69 q 2.97,0.22 2.55,3.17 -0.85,6.08 -5.53,9.95 -0.47,0.39 0.09,0.16 15.12,-6.22 30.96,-10.22 c 3.61,-0.92 12.89,-3.3 17.3,-1.94 a 0.41,0.41 0 0 1 0.24,0.59 q -2.53,4.39 -6.21,7.29 -0.68,0.54 -0.89,1.19 -0.18,0.56 0.29,0.2 z m -47.22,9.77 1.34,-2.14 q 0.36,-0.57 -0.22,-0.22 c -1.28,0.77 -3.34,2.42 -4.81,2.09 q -0.74,-0.17 -1.26,-0.73 -1.76,-1.89 0.04,-3.75 l 5.66,-5.85 q 0.38,-0.39 -0.15,-0.49 c -2.52,-0.52 -4.46,0.34 -5.67,2.75 q -8.03,16.02 -8.03,34.02 c 0,7.92 11.75,8.15 16.85,6.67 6.59,-1.92 10.68,-12.49 12.21,-18.42 1.45,-5.6 0.53,-12.07 0.8,-18.15 a 0.34,0.34 0 0 0 -0.44,-0.34 l -15.76,5.26 q -1.25,0.42 -0.56,-0.7 z m 27.23,18.45 q 5.36,-15.51 15.54,-28.38 0.38,-0.49 -0.24,-0.45 -7.93,0.48 -15.5,2.88 a 0.75,0.74 81.3 0 0 -0.53,0.73 l 0.1,25.11 q 0.01,1.89 0.63,0.11 z m 14.59,-19.84 q -3.92,7.36 -6.48,15.29 -0.27,0.82 0.55,0.56 l 8.1,-2.55 a 0.87,0.86 -13.7 0 0 0.59,-0.96 l -2.02,-12.22 q -0.19,-1.14 -0.74,-0.12 z m 14.52,21.73 a 0.34,0.34 0 0 0 0.64,0.06 l 2.39,-5.11 a 0.34,0.34 0 0 0 -0.4,-0.47 l -3.4,0.97 a 0.34,0.34 0 0 0 -0.23,0.41 z"
         inkscape:connector-curvature="0"
         style="fill:#0c0c0c" />
      <path
         id="path32196"
         d="m 77.25,152.46 q -5.28,3.1 -8.45,8.37 a 1.65,1.64 -86.3 0 1 -0.75,0.66 l -3.28,1.43 a 1.01,1 -2.9 0 0 -0.55,0.6 q -0.57,1.67 -2.18,2.23 0.08,-8.9 3.58,-16.58 0.72,-1.57 2.44,-1.72 6.54,-0.56 9.19,5.01 z"
         inkscape:connector-curvature="0"
         style="fill:#e0e0e0" />
      <path
         id="path32198"
         d="m 134.78,159.14 15.76,-5.26 a 0.34,0.34 0 0 1 0.44,0.34 c -0.27,6.08 0.65,12.55 -0.8,18.15 -1.53,5.93 -5.62,16.5 -12.21,18.42 -5.1,1.48 -16.85,1.25 -16.85,-6.67 q 0,-18 8.03,-34.02 c 1.21,-2.41 3.15,-3.27 5.67,-2.75 q 0.53,0.1 0.15,0.49 l -5.66,5.85 q -1.8,1.86 -0.04,3.75 0.52,0.56 1.26,0.73 c 1.47,0.33 3.53,-1.32 4.81,-2.09 q 0.58,-0.35 0.22,0.22 l -1.34,2.14 q -0.69,1.12 0.56,0.7 z"
         inkscape:connector-curvature="0"
         style="fill:#ffffff" />
      <path
         id="path32200"
         d="m 160.82,176.78 -0.1,-25.11 a 0.75,0.74 81.3 0 1 0.53,-0.73 q 7.57,-2.4 15.5,-2.88 0.62,-0.04 0.24,0.45 -10.18,12.87 -15.54,28.38 -0.62,1.78 -0.63,-0.11 z"
         inkscape:connector-curvature="0"
         style="fill:#ffffff" />
      <path
         id="path32202"
         d="m 77.25,152.46 q 2.57,4.71 2.84,11.98 0.58,15.33 -2.01,26.32 -0.42,1.79 -2.44,1.2 a 0.55,0.55 0 0 1 -0.36,-0.73 l 0.39,-1.04 a 0.5,0.5 0 0 0 -0.48,-0.68 C 59.9,189.82 61.94,176.09 62.04,165.75 q 1.61,-0.56 2.18,-2.23 a 1.01,1 -2.9 0 1 0.55,-0.6 l 3.28,-1.43 a 1.65,1.64 -86.3 0 0 0.75,-0.66 q 3.17,-5.27 8.45,-8.37 z"
         inkscape:connector-curvature="0"
         style="fill:#ffffff" />
      <path
         id="path32204"
         d="m 176.78,157.17 2.02,12.22 a 0.87,0.86 -13.7 0 1 -0.59,0.96 l -8.1,2.55 q -0.82,0.26 -0.55,-0.56 2.56,-7.93 6.48,-15.29 0.55,-1.02 0.74,0.12 z"
         inkscape:connector-curvature="0"
         style="fill:#ffffff" />
      <path
         id="path32206"
         d="m 190.56,178.78 -1,-4.14 a 0.34,0.34 0 0 1 0.23,-0.41 l 3.4,-0.97 a 0.34,0.34 0 0 1 0.4,0.47 l -2.39,5.11 a 0.34,0.34 0 0 1 -0.64,-0.06 z"
         inkscape:connector-curvature="0"
         style="fill:#ffffff" />
    </g>
  </g>
</svg>
