<?xml version="1.0" encoding="UTF-8" standalone="no"?>
<!DOCTYPE svg PUBLIC "-//W3C//DTD SVG 1.1//EN" "http://www.w3.org/Graphics/SVG/1.1/DTD/svg11.dtd">
<svg xmlns="http://www.w3.org/2000/svg" version="1.1" viewBox="0 0 446 273">
<g stroke-width="2.00" fill="none" stroke-linecap="butt">
<path stroke="#f0f0f0" vector-effect="non-scaling-stroke" d="
  M 5.06 0.00
  Q 3.07 0.07 1.36 0.95
  A 1.06 1.03 -9.1 0 0 0.81 1.69
  L 0.00 6.19"
/>
<path stroke="#f0f0f0" vector-effect="non-scaling-stroke" d="
  M 60.06 0.00
  L 60.89 0.40
  A 0.66 0.65 20.7 0 1 61.24 1.16
  C 60.00 6.02 57.51 9.01 57.02 14.74
  A 1.11 1.10 -15.7 0 1 56.56 15.55
  C 55.08 16.61 53.01 16.88 51.73 17.78
  Q 45.18 22.36 46.72 31.04
  A 1.28 1.27 -17.2 0 1 45.99 32.42
  C 40.91 34.72 37.86 35.67 39.13 42.30
  A 1.56 1.55 71.0 0 1 38.33 43.96
  L 33.29 46.60
  Q 31.85 47.36 31.55 48.96
  Q 30.58 54.24 31.20 59.58
  A 0.76 0.76 0.0 0 1 30.76 60.37
  L 26.97 62.08
  A 3.07 3.07 0.0 0 0 25.22 64.34
  Q 24.47 68.71 25.76 72.90
  A 0.59 0.59 0.0 0 1 25.41 73.63
  C 19.19 76.13 16.81 83.11 17.57 89.29
  C 17.85 91.60 17.30 92.97 16.62 95.03
  A 1.87 1.81 -12.0 0 1 16.06 95.86
  Q 13.54 98.00 12.01 100.92
  A 1.35 1.33 50.0 0 0 11.93 101.94
  L 13.07 105.30
  A 1.23 1.22 -40.6 0 1 12.99 106.27
  L 11.75 108.54
  A 0.97 0.96 42.8 0 0 11.79 109.52
  C 12.82 111.09 13.07 112.44 12.24 114.30
  C 10.72 117.68 11.05 121.21 9.50 124.33
  C 7.55 128.25 5.87 132.66 5.59 137.07
  C 5.37 140.55 2.31 143.02 6.17 145.88
  A 0.90 0.88 -70.5 0 1 6.52 146.63
  Q 6.44 148.02 5.20 148.79
  A 0.69 0.69 0.0 0 0 4.90 149.55
  Q 5.83 153.01 4.05 156.08
  A 1.00 0.99 -46.4 0 0 4.07 157.12
  L 7.82 163.01
  A 1.27 1.27 0.0 0 1 8.00 163.90
  Q 7.69 165.75 6.24 167.06
  Q 4.65 168.49 5.39 170.49
  Q 5.98 172.11 7.61 172.90
  A 1.06 1.05 35.9 0 1 7.89 174.60
  C 3.03 179.36 7.40 182.32 6.24 187.57
  A 3.17 3.17 0.0 0 0 6.91 190.30
  C 10.38 194.41 8.00 198.48 8.01 203.21
  A 1.24 1.23 23.0 0 0 8.36 204.07
  C 11.41 207.20 10.90 212.04 11.31 216.14
  C 11.97 222.53 14.62 228.42 16.73 234.49
  C 18.52 239.64 23.34 242.48 25.40 247.26
  Q 26.63 250.11 27.18 253.22
  A 1.45 1.42 -75.0 0 0 27.65 254.05
  Q 32.47 258.11 33.89 264.12
  C 34.68 267.43 36.25 268.93 38.01 271.57
  A 0.64 0.64 0.0 0 1 37.57 272.56
  L 34.69 273.00"
/>
<path stroke="#f0f0f0" vector-effect="non-scaling-stroke" d="
  M 0.00 183.94
  C 0.45 173.98 0.28 164.70 0.66 154.04
  Q 1.11 141.61 0.00 129.19"
/>
<path stroke="#f0f0f0" vector-effect="non-scaling-stroke" d="
  M 364.31 0.00
  L 354.49 0.72
  Q 354.01 0.76 354.40 1.04
  Q 358.71 4.14 363.41 6.70
  C 367.97 9.19 365.97 12.87 368.15 16.35
  C 369.67 18.77 372.10 20.27 373.55 22.54
  Q 377.42 28.62 382.04 35.12
  Q 383.23 36.79 382.00 38.43
  L 380.95 39.84
  A 0.84 0.82 46.8 0 0 380.93 40.81
  C 384.23 45.60 387.28 51.35 391.89 61.02
  Q 392.90 63.14 393.71 66.78
  Q 395.37 74.17 400.56 79.85
  C 401.51 80.89 401.51 81.74 400.39 82.58
  A 1.54 1.52 -10.9 0 0 399.84 83.38
  L 398.34 88.62
  Q 398.20 89.09 398.32 89.57
  C 399.71 95.36 400.94 100.57 405.63 102.50
  A 0.90 0.90 0.0 0 1 405.93 103.95
  Q 401.89 108.15 405.89 112.41
  A 0.76 0.75 37.6 0 1 406.01 113.29
  L 404.10 116.78
  A 2.58 2.58 0.0 0 0 403.99 118.99
  Q 405.17 121.78 405.93 123.74
  C 407.78 128.51 404.90 133.88 410.12 136.73
  A 0.56 0.55 -59.7 0 1 410.32 137.51
  Q 407.81 141.51 406.97 146.16
  A 1.78 1.72 40.2 0 0 407.07 147.16
  Q 409.23 152.64 404.35 156.06
  A 1.04 1.02 73.8 0 0 403.92 156.86
  C 403.69 168.66 402.48 183.73 396.83 194.32
  C 395.16 197.46 394.62 204.17 391.33 209.87
  C 390.48 211.34 390.66 213.03 390.06 214.72
  A 1.49 1.45 -6.9 0 1 389.43 215.50
  Q 386.89 217.00 385.35 219.47
  A 1.55 1.55 0.0 0 0 385.12 220.47
  C 385.67 225.83 383.39 228.01 380.98 232.22
  Q 376.67 239.73 370.79 246.08
  A 1.66 1.60 -20.9 0 0 370.39 246.93
  L 369.99 249.87
  A 1.55 1.52 -20.3 0 1 369.58 250.74
  L 364.77 255.82
  A 2.39 2.39 0.0 0 0 364.29 258.35
  L 365.28 260.81
  A 0.74 0.74 0.0 0 1 364.94 261.73
  Q 357.97 265.35 354.19 272.18
  A 0.32 0.32 0.0 0 0 354.46 272.66
  L 370.44 273.00"
/>
<path stroke="#f0f0f0" vector-effect="non-scaling-stroke" d="
  M 143.94 273.00
  L 151.64 272.62
  Q 152.15 272.60 151.80 272.22
  C 150.48 270.76 148.24 270.80 146.92 270.18
  Q 144.36 268.97 141.77 267.63
  A 1.26 1.23 -87.1 0 1 141.16 266.94
  Q 140.15 264.20 138.46 261.84
  C 136.27 258.77 135.47 255.55 132.91 252.67
  C 130.81 250.31 130.47 248.08 129.33 245.33
  A 1.74 1.71 6.8 0 0 128.73 244.58
  C 125.15 242.07 120.96 241.36 121.03 236.12
  Q 121.06 233.72 119.58 231.82
  C 118.17 230.00 117.01 227.76 116.77 225.21
  Q 115.95 216.62 110.42 208.07
  Q 109.47 206.60 110.44 205.25"
/>
<path stroke="#828282" vector-effect="non-scaling-stroke" d="
  M 110.44 205.25
  Q 116.79 207.26 121.53 202.73
  C 124.58 199.83 131.91 193.14 131.97 191.55
  A 0.53 0.53 0.0 0 0 131.46 191.00
  C 130.92 190.98 124.81 195.65 123.54 196.31
  Q 120.92 197.65 120.28 194.78
  Q 119.98 193.41 120.56 192.27
  C 121.69 190.06 130.97 188.13 133.52 187.50
  A 0.35 0.34 82.6 0 1 133.94 187.83
  C 133.99 194.74 136.11 201.79 135.55 208.48
  A 0.58 0.56 9.1 0 0 136.00 209.09
  C 138.84 209.73 144.37 203.40 145.94 201.51
  Q 147.29 199.89 146.72 197.87
  Q 144.79 191.06 143.94 184.02
  A 0.75 0.75 0.0 0 1 144.21 183.35
  L 151.65 177.26
  Q 151.99 176.99 151.99 177.42
  L 152.00 191.47
  A 1.52 1.51 -28.8 0 1 151.74 192.35
  C 145.30 201.93 148.66 211.72 160.50 212.51
  Q 163.04 212.68 169.75 211.71"
/>
<path stroke="#f0f0f0" vector-effect="non-scaling-stroke" d="
  M 169.75 211.71
  C 169.85 213.25 170.40 214.30 171.99 214.83
  Q 178.58 217.01 182.72 222.60
  A 0.57 0.56 56.0 0 0 183.47 222.75
  L 184.90 221.85
  A 0.56 0.55 63.1 0 1 185.71 222.12
  L 187.13 225.67
  A 1.69 1.67 -84.7 0 0 187.78 226.46
  L 190.88 228.48
  A 1.68 1.62 -27.5 0 0 191.79 228.75
  L 195.21 228.75
  A 1.69 1.66 -27.7 0 1 196.14 229.03
  Q 202.02 232.98 209.02 234.16
  C 212.87 234.81 214.52 237.13 218.97 237.22
  Q 223.59 237.32 227.76 239.46
  A 1.69 1.69 0.0 0 1 228.46 240.13
  C 230.99 244.54 235.65 240.66 238.30 238.93
  A 1.19 1.19 0.0 0 1 240.08 239.54
  C 241.77 244.47 247.70 240.37 250.30 238.99
  C 252.28 237.93 254.35 238.10 256.48 237.27
  A 0.80 0.79 80.6 0 0 256.97 236.58
  L 257.08 234.10
  A 0.69 0.67 84.1 0 1 257.57 233.48
  Q 264.09 231.61 270.07 234.76
  A 1.19 1.19 0.0 0 0 271.52 234.50
  Q 275.43 230.07 281.10 228.19
  Q 283.46 227.41 283.43 224.92
  Q 283.43 224.03 283.87 223.31
  Q 284.26 222.69 285.51 222.14
  Q 289.60 220.35 292.63 216.97
  A 0.69 0.68 43.4 0 0 292.60 216.03
  L 291.53 214.96
  A 0.44 0.44 0.0 0 1 291.57 214.31
  C 292.15 213.86 295.87 213.26 296.98 212.83
  A 1.23 1.21 89.6 0 0 297.69 212.10
  L 298.27 210.43
  A 0.70 0.69 15.5 0 1 299.08 209.98
  L 300.28 210.25
  Q 300.99 210.42 300.76 209.72
  L 299.15 204.81
  A 0.71 0.71 0.0 0 1 299.39 204.02
  L 303.51 200.86
  Q 303.92 200.54 304.13 200.07
  L 305.54 196.75"
/>
<path stroke="#828282" vector-effect="non-scaling-stroke" d="
  M 305.54 196.75
  L 308.78 197.68
  A 1.35 1.34 -51.7 0 0 309.83 197.55
  Q 315.35 194.36 318.70 188.94
  A 0.48 0.48 0.0 0 0 318.54 188.28
  L 313.47 185.22
  Q 311.57 184.08 312.94 182.33
  L 329.97 160.60
  Q 331.00 159.29 331.00 160.95
  C 330.96 173.14 329.19 188.46 335.16 198.97
  A 1.55 1.54 -34.1 0 1 334.78 200.93
  Q 312.48 218.79 289.06 234.20
  C 285.95 236.25 275.98 243.06 275.12 246.41
  Q 274.57 248.59 276.41 247.32
  C 297.37 232.93 316.39 220.10 336.87 202.77
  A 0.52 0.52 0.0 0 1 337.59 202.81
  C 341.37 206.79 345.47 208.57 350.06 204.31
  C 351.68 202.81 357.89 196.94 357.09 195.71
  A 0.45 0.44 -32.8 0 0 356.47 195.58
  Q 351.82 198.65 348.51 193.90
  A 1.73 1.72 50.4 0 1 348.71 191.70
  L 368.01 172.39
  Q 368.49 171.91 368.52 172.58
  C 369.04 181.84 367.19 190.34 373.96 197.97
  A 0.61 0.60 49.5 0 0 374.80 198.04
  Q 379.70 194.08 383.91 189.36
  A 0.58 0.58 0.0 0 0 383.90 188.58
  C 377.98 182.21 378.42 175.03 378.73 165.46
  C 378.83 162.44 380.32 160.68 381.93 158.33
  A 0.62 0.62 0.0 0 0 381.81 157.50
  Q 380.94 156.76 379.75 156.99
  A 0.83 0.83 0.0 0 1 378.76 156.17
  L 378.73 139.51
  A 0.81 0.81 0.0 0 0 377.59 138.77
  Q 372.38 141.05 369.58 146.23
  C 368.08 149.00 368.88 153.39 368.56 156.62
  A 0.60 0.60 0.0 0 1 367.74 157.11
  Q 365.36 156.12 365.99 153.26
  Q 366.55 150.67 364.25 151.97
  C 360.70 153.97 355.13 159.35 355.95 164.18
  Q 356.36 166.65 358.87 166.74
  L 367.70 167.07
  Q 369.50 167.14 368.23 168.41
  L 346.29 190.27
  A 0.47 0.47 0.0 0 1 345.55 190.17
  C 342.53 185.02 341.31 180.40 341.09 174.03
  Q 340.65 160.90 341.01 147.99
  A 3.98 3.98 0.0 0 1 342.07 145.39
  L 346.03 141.15
  A 0.48 0.47 34.1 0 0 345.88 140.39
  Q 344.82 139.90 342.15 142.43
  Q 339.19 145.23 340.79 142.11
  Q 341.18 141.37 340.98 140.67
  A 0.74 0.73 -22.0 0 0 339.93 140.23
  C 334.61 143.04 331.16 146.46 331.00 152.73
  A 1.55 1.55 0.0 0 1 330.69 153.63
  L 318.54 169.75"
/>
<path stroke="#f0f0f0" vector-effect="non-scaling-stroke" d="
  M 318.54 169.75
  C 316.91 167.81 317.47 166.44 319.37 164.97
  C 322.61 162.48 322.13 159.38 324.01 156.44
  Q 326.20 153.03 329.06 150.13
  C 330.32 148.85 330.34 147.64 328.80 146.66
  A 0.73 0.73 0.0 0 1 328.49 145.88
  L 329.16 143.08
  Q 329.28 142.58 329.23 142.06
  Q 328.98 139.31 328.83 136.55
  Q 328.71 134.27 327.87 130.70
  C 326.78 126.03 328.49 122.54 328.98 118.28
  A 0.89 0.88 22.9 0 0 328.65 117.48
  Q 325.77 115.18 324.50 111.79"
/>
<path stroke="#828282" vector-effect="non-scaling-stroke" d="
  M 324.50 111.79
  C 332.30 112.72 338.25 113.65 344.32 110.84
  C 357.13 104.90 369.66 92.04 370.25 77.20
  C 370.85 61.81 350.63 50.69 337.15 51.03
  C 329.19 51.23 320.98 62.49 317.07 68.57
  A 0.94 0.94 0.0 0 1 316.36 69.00
  L 303.57 70.12
  Q 302.49 70.22 303.20 69.40
  C 307.06 64.94 312.34 58.99 312.02 52.72
  Q 311.89 50.22 309.39 50.38
  Q 299.90 51.02 291.04 54.51
  A 0.38 0.38 0.0 0 1 290.52 54.15
  C 290.55 52.72 291.21 46.57 288.75 46.96"
/>
<path stroke="#f0f0f0" vector-effect="non-scaling-stroke" d="
  M 288.75 46.96
  C 287.55 41.66 268.27 32.22 263.12 30.02
  Q 258.69 28.12 253.95 24.53
  C 250.68 22.04 246.71 22.49 243.20 21.45
  Q 237.56 19.77 231.67 19.29
  C 228.76 19.05 227.15 17.62 224.71 16.27
  A 0.52 0.51 -76.4 0 0 223.95 16.74
  L 223.97 18.01
  A 0.40 0.40 0.0 0 1 223.47 18.40
  C 221.21 17.77 219.11 16.15 216.95 16.10
  C 211.07 15.94 209.63 22.52 203.07 18.17
  A 0.88 0.86 43.9 0 0 202.09 18.18
  L 199.71 19.88
  A 0.99 0.98 37.1 0 1 198.80 20.00
  L 193.20 17.91
  A 1.03 1.02 35.2 0 0 192.20 18.08
  C 188.66 20.93 185.34 19.95 181.72 20.71
  C 174.54 22.22 165.96 22.03 161.31 28.84
  A 1.23 1.22 10.9 0 1 160.53 29.36
  L 155.14 30.46
  A 1.62 1.62 0.0 0 0 154.33 30.90
  C 152.30 32.97 150.84 34.87 148.04 36.02
  C 144.31 37.55 141.22 38.34 138.00 41.53
  A 0.80 0.77 -66.1 0 1 137.46 41.75
  L 137.12 41.76
  A 1.53 1.50 -64.0 0 0 136.22 42.08
  L 130.42 46.66
  A 0.55 0.55 0.0 0 0 130.31 47.40
  Q 130.83 48.14 130.75 48.96"
/>
<path stroke="#828282" vector-effect="non-scaling-stroke" d="
  M 130.75 48.96
  C 125.73 49.24 119.25 53.24 114.55 56.04
  Q 113.29 56.79 109.50 61.79"
/>
<path stroke="#f0f0f0" vector-effect="non-scaling-stroke" d="
  M 109.50 61.79
  Q 106.00 61.87 104.26 64.51
  C 101.24 69.10 97.72 72.35 93.04 75.25"
/>
<path stroke="#828282" vector-effect="non-scaling-stroke" d="
  M 93.04 75.25
  Q 90.91 42.00 93.01 8.69
  A 1.16 1.16 0.0 0 0 91.38 7.56
  C 84.89 10.47 82.27 16.52 82.16 23.65
  C 81.88 42.06 77.78 62.53 69.41 78.85
  Q 68.38 80.85 66.28 80.05
  C 62.39 78.58 61.24 75.89 61.16 71.67
  Q 60.65 45.20 61.62 18.67
  Q 61.71 16.32 59.89 17.81
  C 57.53 19.74 52.13 23.30 51.90 26.25
  Q 50.46 44.36 51.12 80.04
  C 51.34 91.72 59.66 92.39 67.33 86.00
  Q 77.01 77.93 81.38 65.75
  Q 81.39 65.72 81.42 65.72
  L 81.71 65.74
  A 0.27 0.27 0.0 0 1 81.96 66.01
  L 82.71 95.50"
/>
<path stroke="#f0f0f0" vector-effect="non-scaling-stroke" d="
  M 82.71 95.50
  L 81.48 95.79
  A 1.04 1.01 3.2 0 0 80.77 96.41
  Q 78.82 101.21 74.14 103.62
  A 1.09 1.07 -14.4 0 0 73.56 104.59
  L 73.66 108.65
  A 1.87 1.86 -14.6 0 1 72.66 110.35
  Q 69.65 111.91 70.25 115.46"
/>
<path stroke="#828282" vector-effect="non-scaling-stroke" d="
  M 70.25 115.46
  C 64.54 116.82 59.05 116.84 55.27 111.87
  A 0.58 0.57 -41.4 0 1 55.32 111.11
  C 56.55 109.84 60.23 106.76 60.07 105.01
  A 0.52 0.51 -4.4 0 0 59.51 104.54
  C 54.19 105.03 46.35 111.14 45.12 116.40
  C 43.92 121.51 48.35 125.67 53.25 125.99
  Q 60.16 126.44 67.75 123.96"
/>
<path stroke="#f0f0f0" vector-effect="non-scaling-stroke" d="
  M 67.75 123.96
  Q 67.21 131.77 64.34 138.80"
/>
<path stroke="#828282" vector-effect="non-scaling-stroke" d="
  M 64.34 138.80
  C 43.10 152.63 37.40 177.86 37.54 201.57
  C 37.64 216.96 53.18 217.81 62.71 210.25"
/>
<path stroke="#f0f0f0" vector-effect="non-scaling-stroke" d="
  M 62.71 210.25
  L 62.92 216.77
  A 1.09 1.08 70.3 0 1 62.50 217.67
  L 61.40 218.50
  A 0.74 0.73 -33.7 0 0 61.21 219.44
  Q 64.57 225.46 66.45 232.11
  A 1.63 1.63 0.0 0 0 67.04 232.97
  Q 70.86 235.83 72.30 240.43
  Q 72.63 241.48 74.24 242.11
  A 0.72 0.71 11.0 0 1 74.69 242.77
  Q 74.70 243.43 74.96 244.00"
/>
<path stroke="#828282" vector-effect="non-scaling-stroke" d="
  M 74.96 244.00
  Q 74.88 247.83 74.79 251.66
  C 74.70 255.90 73.05 259.90 73.24 264.57
  A 0.54 0.54 0.0 0 0 73.94 265.06
  Q 76.39 264.32 77.86 262.77"
/>
<path stroke="#f0f0f0" vector-effect="non-scaling-stroke" d="
  M 77.86 262.77
  Q 79.93 263.57 81.50 264.84
  C 83.46 266.41 83.60 268.63 84.23 270.97
  A 0.88 0.86 89.8 0 0 84.84 271.59
  Q 89.59 272.88 94.44 273.00"
/>
<path stroke="#f0f0f0" vector-effect="non-scaling-stroke" d="
  M 413.56 0.00
  L 416.04 0.43
  A 1.09 1.07 78.5 0 1 416.78 0.93
  C 419.29 4.92 421.97 8.75 423.98 12.97
  C 427.76 20.91 431.17 28.91 435.72 36.46
  C 439.38 42.54 442.17 51.47 444.00 56.76
  Q 445.71 61.72 446.00 73.56"
/>
<path stroke="#f0f0f0" vector-effect="non-scaling-stroke" d="
  M 446.00 192.31
  Q 445.45 199.00 445.69 205.74
  C 445.80 208.95 444.30 210.61 442.38 212.86
  A 0.95 0.95 0.0 0 0 442.19 213.72
  C 444.28 221.66 439.27 230.48 434.82 236.43
  C 433.47 238.23 431.23 239.73 429.63 241.65
  A 1.63 1.60 69.0 0 0 429.27 242.48
  Q 428.41 249.29 423.93 254.53
  A 0.99 0.97 55.2 0 0 423.76 255.52
  L 424.59 257.65
  A 1.60 1.58 -47.7 0 1 424.63 258.69
  L 420.44 273.00"
/>
<path stroke="#737373" vector-effect="non-scaling-stroke" d="
  M 93.04 75.25
  Q 93.33 89.05 92.46 95.43
  C 90.65 108.68 79.24 118.90 67.75 123.96"
/>
<path stroke="#737373" vector-effect="non-scaling-stroke" d="
  M 70.25 115.46
  C 83.03 114.67 82.93 105.48 82.71 95.50"
/>
<path stroke="#737373" vector-effect="non-scaling-stroke" d="
  M 288.75 46.96
  C 276.32 50.06 267.73 54.45 257.77 60.20
  Q 256.56 60.90 256.98 59.57
  C 258.21 55.67 259.56 49.77 254.03 48.53
  C 238.83 45.11 225.89 58.28 218.75 70.29"
/>
<path stroke="#f0f0f0" vector-effect="non-scaling-stroke" d="
  M 218.75 70.29
  Q 216.88 69.52 215.90 67.75
  A 0.87 0.86 -12.5 0 0 215.17 67.29
  L 214.29 67.25"
/>
<path stroke="#737373" vector-effect="non-scaling-stroke" d="
  M 214.29 67.25
  L 213.81 53.37
  A 1.45 1.45 0.0 0 0 212.38 51.97
  C 202.57 51.81 190.38 59.23 183.75 66.61
  A 0.32 0.32 0.0 0 1 183.22 66.53
  C 179.97 59.56 176.72 53.26 167.93 53.76
  C 160.34 54.19 153.36 62.58 149.92 68.76
  Q 149.32 69.83 149.16 68.62
  L 148.87 66.48
  A 0.58 0.58 0.0 0 0 148.31 65.98
  Q 145.32 65.96 142.83 67.57
  A 0.43 0.43 0.0 0 1 142.17 67.26
  Q 141.42 60.60 139.60 54.18
  C 138.27 49.52 135.52 47.57 130.75 48.96"
/>
<path stroke="#737373" vector-effect="non-scaling-stroke" d="
  M 324.50 111.79
  Q 317.50 110.91 314.63 104.75
  A 0.38 0.37 57.2 0 0 314.05 104.62
  Q 307.21 110.47 304.72 111.75
  C 296.64 115.89 284.45 118.36 275.84 114.28"
/>
<path stroke="#828282" vector-effect="non-scaling-stroke" d="
  M 275.84 114.28
  Q 273.02 111.26 271.96 107.00"
/>
<path stroke="#737373" vector-effect="non-scaling-stroke" d="
  M 271.96 107.00
  C 271.28 101.91 273.10 99.19 276.60 95.76
  C 279.59 92.84 280.25 89.39 279.90 85.40
  A 0.50 0.50 0.0 0 0 279.22 84.98
  L 277.61 85.63
  A 0.47 0.47 0.0 0 1 276.99 85.35
  C 276.18 82.95 279.96 82.06 279.99 79.12
  Q 280.07 72.54 279.93 66.46
  A 0.64 0.64 0.0 0 0 279.05 65.88
  Q 277.28 66.59 275.41 66.62
  Q 274.53 66.63 275.01 65.89
  C 276.11 64.20 280.55 59.36 280.14 57.64
  A 0.53 0.53 0.0 0 0 279.51 57.24
  Q 268.44 59.61 258.64 65.18
  C 253.35 68.18 251.18 73.64 245.91 76.82"
/>
<path stroke="#828282" vector-effect="non-scaling-stroke" d="
  M 245.91 76.82
  L 244.44 74.51
  A 0.44 0.44 0.0 0 0 243.84 74.37
  Q 242.46 75.18 241.21 74.50"
/>
<path stroke="#737373" vector-effect="non-scaling-stroke" d="
  M 241.21 74.50
  C 244.09 70.10 247.41 67.96 248.05 62.46
  Q 248.32 60.07 246.11 59.14
  Q 240.32 56.68 234.13 58.63
  C 229.17 60.19 226.23 65.75 224.52 70.32"
/>
<path stroke="#828282" vector-effect="non-scaling-stroke" d="
  M 224.52 70.32
  C 221.17 76.57 213.84 97.14 223.32 101.21
  C 237.95 107.49 252.11 102.77 256.16 86.13"
/>
<path stroke="#737373" vector-effect="non-scaling-stroke" d="
  M 256.16 86.13
  Q 256.74 82.13 257.02 78.24
  C 257.54 70.91 261.80 65.56 268.25 62.21
  A 0.54 0.54 0.0 0 1 269.04 62.68
  Q 269.20 69.08 267.45 75.11
  C 264.99 83.58 265.41 96.33 266.79 105.00"
/>
<path stroke="#828282" vector-effect="non-scaling-stroke" d="
  M 266.79 105.00
  C 266.13 105.87 256.42 118.53 256.17 111.95
  Q 255.86 103.92 256.01 96.56
  Q 256.04 95.03 255.08 96.22
  C 249.38 103.27 241.20 111.09 232.10 113.08
  C 228.01 113.97 223.06 113.19 218.58 112.89
  A 0.47 0.47 0.0 0 0 218.08 113.35
  C 218.05 117.47 219.19 126.96 217.46 130.21
  Q 213.20 138.23 205.28 142.41
  A 1.59 1.58 78.9 0 0 204.44 143.67
  L 202.19 169.73
  A 1.30 1.29 -88.8 0 0 203.54 171.14
  L 213.87 170.59
  A 1.33 1.32 -89.0 0 0 215.12 169.38
  Q 215.70 162.26 216.05 154.92
  C 216.27 150.40 220.98 146.26 224.59 144.37
  A 1.01 1.00 -12.9 0 1 226.06 145.29
  L 225.78 155.44
  A 0.48 0.47 88.9 0 0 226.28 155.93
  Q 226.76 155.91 227.12 155.33
  Q 230.79 149.39 237.20 146.63
  C 245.54 143.05 256.09 138.49 265.17 137.95
  A 0.86 0.86 0.0 0 1 266.07 138.95
  C 265.50 142.33 254.75 155.69 251.41 155.75
  Q 250.29 155.77 250.97 154.88
  L 255.66 148.67
  Q 256.62 147.39 255.06 147.73
  C 244.85 149.96 235.59 153.85 225.94 157.67
  A 0.99 0.97 -9.1 0 0 225.31 158.52
  L 224.89 164.67
  Q 224.80 165.90 225.50 164.88
  Q 229.81 158.52 237.36 157.06
  A 0.54 0.54 0.0 0 1 238.00 157.59
  L 238.00 161.19
  A 0.41 0.40 85.2 0 0 238.47 161.59
  Q 244.71 160.52 250.91 159.26
  C 252.21 158.99 254.60 158.11 256.44 158.24
  Q 257.74 158.34 256.88 159.32
  Q 253.95 162.66 250.71 165.70
  C 246.25 169.89 238.79 171.14 238.10 178.65
  Q 237.51 185.07 238.04 191.50"
/>
<path stroke="#737373" vector-effect="non-scaling-stroke" d="
  M 238.04 191.50
  L 238.16 193.62
  A 0.95 0.94 -77.6 0 0 238.65 194.40
  C 244.65 197.75 251.14 196.87 256.59 197.19
  A 0.30 0.30 0.0 0 1 256.82 197.65
  C 248.92 210.33 235.36 209.18 224.34 201.78
  Q 222.41 200.48 223.13 198.26
  Q 224.91 192.83 226.95 187.26
  C 228.86 182.07 228.09 175.02 227.95 169.52
  A 0.32 0.31 75.7 0 0 227.49 169.24
  Q 224.35 170.92 223.81 174.32
  Q 222.47 182.79 221.87 193.64
  C 221.56 199.19 217.32 203.24 212.62 205.66
  A 0.33 0.33 0.0 0 1 212.13 205.39
  C 211.52 198.15 212.77 190.79 213.99 179.46
  A 0.45 0.45 0.0 0 0 213.46 178.97
  L 201.74 180.97
  A 0.67 0.67 0.0 0 0 201.19 181.56
  C 200.67 186.86 201.43 194.83 199.34 199.27
  C 196.98 204.29 187.51 211.64 183.25 204.14
  A 0.39 0.39 0.0 0 0 182.64 204.05
  Q 176.98 209.26 169.75 211.71"
/>
<path stroke="#737373" vector-effect="non-scaling-stroke" d="
  M 110.44 205.25
  Q 109.95 199.06 113.03 193.69
  Q 113.37 193.10 112.71 193.28
  L 105.75 195.16
  A 1.31 1.30 -82.4 0 0 104.96 195.77
  C 102.33 200.37 95.62 208.23 90.05 208.94
  Q 88.83 209.09 87.59 209.49
  A 0.74 0.74 0.0 0 0 87.07 210.14
  Q 85.46 229.64 84.21 249.17
  C 83.76 256.10 83.18 258.20 77.86 262.77"
/>
<path stroke="#737373" vector-effect="non-scaling-stroke" d="
  M 74.96 244.00
  L 77.66 208.70
  A 0.79 0.79 0.0 0 0 77.37 208.03
  L 71.29 203.10
  A 0.58 0.57 43.3 0 0 70.55 203.12
  L 62.71 210.25"
/>
<path stroke="#737373" vector-effect="non-scaling-stroke" d="
  M 64.34 138.80
  L 69.76 139.08
  Q 72.03 139.19 71.81 141.46
  Q 70.97 149.81 69.74 157.75
  C 69.03 162.30 63.39 166.48 60.58 168.69
  A 0.63 0.62 46.2 0 1 59.79 168.67
  C 58.33 167.40 60.31 159.96 60.46 158.75"
/>
<path stroke="#828282" vector-effect="non-scaling-stroke" d="
  M 60.46 158.75
  L 61.15 149.89
  A 0.69 0.69 0.0 0 0 60.70 149.19
  C 58.22 148.25 56.54 149.45 55.53 151.82
  Q 46.55 172.95 47.71 196.07
  C 48.06 202.99 54.87 204.82 60.69 205.00"
/>
<path stroke="#737373" vector-effect="non-scaling-stroke" d="
  M 60.69 205.00
  Q 66.13 204.39 69.22 200.17
  A 1.26 1.22 59.6 0 0 69.44 199.27
  C 68.46 192.20 73.42 186.51 77.62 181.45
  A 1.41 1.40 -24.5 0 0 77.93 180.63
  L 78.23 169.61
  A 1.63 1.63 0.0 0 1 78.61 168.62
  Q 82.15 164.47 80.90 158.88
  A 0.59 0.59 0.0 0 0 80.03 158.50
  L 78.43 159.43
  A 0.28 0.28 0.0 0 1 78.04 159.32
  C 77.77 158.81 80.53 154.03 80.93 153.10
  C 83.09 148.10 85.61 145.54 90.10 143.04
  A 0.43 0.43 0.0 0 1 90.73 143.32
  L 90.95 144.23
  A 0.52 0.52 0.0 0 0 91.76 144.53
  Q 96.20 141.36 101.43 139.77
  A 0.84 0.84 0.0 0 0 102.02 139.06
  C 102.98 129.83 103.43 120.50 104.72 111.38
  Q 107.37 92.62 108.92 73.75
  Q 109.03 72.43 109.00 71.76
  Q 108.92 70.30 108.01 71.44
  Q 104.35 76.04 99.71 79.69
  A 0.37 0.37 0.0 0 1 99.13 79.52
  C 98.23 76.89 106.43 65.99 109.50 61.79"
/>
<path stroke="#828282" vector-effect="non-scaling-stroke" d="
  M 214.29 67.25
  Q 210.26 86.43 198.38 101.07
  Q 197.34 102.35 198.96 101.99
  L 208.35 99.86
  A 0.74 0.74 0.0 0 0 208.92 99.21
  C 210.01 88.42 213.13 79.58 218.75 70.29"
/>
<path stroke="#737373" vector-effect="non-scaling-stroke" d="
  M 124.84 58.78
  L 120.62 58.83
  A 1.66 1.66 0.0 0 0 118.98 60.44
  Q 118.62 72.75 117.11 85.32
  Q 116.89 87.09 116.99 88.19
  Q 117.15 90.09 118.21 88.51
  Q 123.51 80.66 131.24 75.13
  A 0.95 0.95 0.0 0 0 131.63 74.29
  Q 131.14 67.77 128.95 61.64
  Q 127.91 58.75 124.84 58.78"
/>
<path stroke="#737373" vector-effect="non-scaling-stroke" d="
  M 290.56 62.38
  L 290.09 73.47
  A 0.30 0.30 0.0 0 0 290.52 73.76
  C 297.04 70.82 302.81 68.59 301.95 61.49
  A 1.54 1.53 82.5 0 0 300.21 60.15
  L 291.42 61.43
  A 1.00 0.99 -3.1 0 0 290.56 62.38"
/>
<path stroke="#828282" vector-effect="non-scaling-stroke" d="
  M 328.36 60.71
  C 325.81 61.26 319.96 70.42 321.26 72.78
  Q 321.80 73.75 322.33 72.78
  L 328.70 61.16
  Q 329.03 60.56 328.36 60.71"
/>
<path stroke="#828282" vector-effect="non-scaling-stroke" d="
  M 333.84 61.61
  C 330.41 68.62 318.65 94.89 328.28 99.77
  C 334.82 103.08 352.25 105.69 357.18 97.53
  C 367.91 79.77 350.22 64.96 334.80 61.16
  A 0.84 0.83 -69.8 0 0 333.84 61.61"
/>
<path stroke="#828282" vector-effect="non-scaling-stroke" d="
  M 195.04 69.75
  L 195.13 98.77
  Q 195.13 99.28 195.39 98.84
  C 201.46 88.42 204.77 79.07 204.21 67.25"
/>
<path stroke="#737373" vector-effect="non-scaling-stroke" d="
  M 204.21 67.25
  L 203.93 62.48
  A 0.73 0.73 0.0 0 0 203.09 61.81
  L 195.83 62.94
  A 0.83 0.83 0.0 0 0 195.13 63.75
  L 195.04 69.75"
/>
<path stroke="#f0f0f0" vector-effect="non-scaling-stroke" d="
  M 204.21 67.25
  C 201.21 67.96 198.79 71.16 195.04 69.75"
/>
<path stroke="#828282" vector-effect="non-scaling-stroke" d="
  M 149.79 90.75
  C 149.31 99.01 155.47 108.05 164.42 105.74
  C 175.55 102.87 175.19 83.50 172.96 75.50"
/>
<path stroke="#737373" vector-effect="non-scaling-stroke" d="
  M 172.96 75.50
  C 171.26 69.63 164.83 61.31 157.73 64.31
  A 1.38 1.34 -87.2 0 0 157.04 64.95
  C 152.99 72.65 149.34 81.94 149.79 90.75"
/>
<path stroke="#f0f0f0" vector-effect="non-scaling-stroke" d="
  M 172.96 75.50
  Q 169.79 77.56 168.23 81.07
  Q 167.12 83.57 164.41 83.92
  L 159.64 84.53
  Q 158.81 84.64 159.34 85.29
  L 160.34 86.49
  A 0.47 0.47 0.0 0 1 160.11 87.24
  Q 157.63 87.98 155.22 87.27
  A 1.42 1.41 16.1 0 0 153.46 88.24
  Q 152.83 90.49 149.79 90.75"
/>
<path stroke="#737373" vector-effect="non-scaling-stroke" d="
  M 160.75 115.54
  Q 158.66 117.25 156.00 117.79"
/>
<path stroke="#828282" vector-effect="non-scaling-stroke" d="
  M 156.00 117.79
  Q 154.31 117.46 145.02 114.72
  C 137.30 112.43 139.10 107.18 138.96 101.00"
/>
<path stroke="#737373" vector-effect="non-scaling-stroke" d="
  M 138.96 101.00
  L 138.96 94.53
  Q 138.96 93.13 138.29 94.36
  C 133.13 103.79 124.51 112.69 113.80 115.50
  A 0.69 0.69 0.0 0 0 113.29 116.14
  L 112.04 149.75"
/>
<path stroke="#828282" vector-effect="non-scaling-stroke" d="
  M 112.04 149.75
  L 112.06 155.43
  Q 112.06 155.94 112.49 155.67
  Q 129.67 144.99 148.75 138.21"
/>
<path stroke="#737373" vector-effect="non-scaling-stroke" d="
  M 148.75 138.21
  L 152.49 138.03
  Q 154.07 137.96 153.03 139.16
  L 145.25 148.21"
/>
<path stroke="#828282" vector-effect="non-scaling-stroke" d="
  M 145.25 148.21
  Q 142.86 150.27 142.83 154.18
  Q 142.75 163.62 143.22 175.05
  A 1.56 1.55 -7.9 0 0 145.13 176.49
  Q 147.92 175.82 151.74 173.59"
/>
<path stroke="#737373" vector-effect="non-scaling-stroke" d="
  M 151.74 173.59
  L 152.14 158.21
  A 1.82 1.79 -27.7 0 1 152.46 157.22
  L 155.71 152.48
  Q 156.22 151.75 155.44 152.18
  L 149.90 155.21
  A 0.33 0.32 -35.9 0 1 149.51 155.15
  L 149.32 154.96
  A 0.68 0.68 0.0 0 1 149.24 154.12
  C 153.34 147.90 158.44 145.12 165.73 141.52
  C 169.61 139.61 176.04 136.27 180.39 136.86
  Q 182.09 137.10 182.45 138.77
  C 183.96 145.65 182.29 152.89 178.94 158.31
  Q 177.68 160.35 180.06 160.04
  Q 189.91 158.77 191.49 168.22
  Q 192.43 173.86 193.00 168.28
  Q 193.59 162.39 194.04 153.85
  C 194.25 149.82 195.89 147.36 198.68 144.83
  A 0.74 0.74 0.0 0 0 198.87 144.02
  C 195.58 135.59 199.87 130.11 207.48 127.01"
/>
<path stroke="#828282" vector-effect="non-scaling-stroke" d="
  M 207.48 127.01
  Q 208.51 122.19 206.27 115.71
  Q 203.56 107.87 196.00 110.51"
/>
<path stroke="#737373" vector-effect="non-scaling-stroke" d="
  M 196.00 110.51
  C 186.95 111.98 180.95 119.31 173.64 124.03
  Q 171.57 125.36 172.11 122.96
  C 172.97 119.15 181.29 112.60 184.45 110.04
  A 1.09 1.09 0.0 0 0 184.86 109.21
  L 184.96 105.00"
/>
<path stroke="#828282" vector-effect="non-scaling-stroke" d="
  M 184.96 105.00
  C 184.99 93.11 184.14 80.26 185.65 68.52
  Q 185.72 67.99 185.24 68.23
  C 183.65 69.01 183.93 75.28 183.85 78.42
  C 183.41 95.30 173.01 104.56 160.75 115.54"
/>
<path stroke="#f0f0f0" vector-effect="non-scaling-stroke" d="
  M 184.96 105.00
  Q 183.22 105.12 182.89 104.17
  A 1.37 1.37 0.0 0 0 180.99 103.38
  C 173.75 106.91 169.23 108.11 164.02 115.19
  A 3.42 3.42 0.0 0 1 161.84 116.53
  Q 161.27 116.62 160.75 115.54"
/>
<path stroke="#f0f0f0" vector-effect="non-scaling-stroke" d="
  M 196.00 110.51
  Q 199.20 115.54 203.72 119.28
  Q 205.46 120.72 207.48 127.01"
/>
<path stroke="#f0f0f0" vector-effect="non-scaling-stroke" d="
  M 151.74 173.59
  C 148.29 173.34 147.26 168.26 147.03 165.77
  A 1.35 1.34 20.4 0 0 146.64 164.93
  C 144.56 162.88 144.93 157.95 144.82 155.08
  C 144.75 152.95 145.87 151.18 146.24 149.05
  A 0.71 0.71 0.0 0 0 145.85 148.29
  Q 145.60 148.16 145.25 148.21"
/>
<path stroke="#f0f0f0" vector-effect="non-scaling-stroke" d="
  M 156.00 117.79
  C 156.02 118.17 156.06 118.34 155.85 118.68
  Q 151.84 125.25 151.84 133.01
  Q 151.83 134.99 148.75 138.21"
/>
<path stroke="#f0f0f0" vector-effect="non-scaling-stroke" d="
  M 138.96 101.00
  L 135.46 101.21
  A 1.18 1.15 -74.3 0 0 134.59 101.71
  Q 133.31 103.58 133.91 105.85
  A 0.84 0.83 -29.5 0 1 133.67 106.69
  Q 124.29 115.49 119.53 127.48
  A 1.74 1.73 -6.1 0 1 118.88 128.28
  C 116.09 130.09 113.20 130.97 114.16 135.23
  C 115.46 141.08 112.41 144.33 112.04 149.75"
/>
<path stroke="#737373" vector-effect="non-scaling-stroke" d="
  M 297.20 85.68
  C 297.17 88.71 291.37 92.99 289.50 94.41
  A 1.03 1.01 73.2 0 0 289.11 95.15
  L 288.45 105.30
  A 0.46 0.45 5.6 0 0 288.84 105.77
  Q 299.02 107.08 308.75 103.99
  C 312.82 102.70 313.20 99.55 313.17 95.74
  C 313.13 89.18 314.37 78.89 304.73 78.76
  Q 302.13 78.73 293.63 80.14
  C 289.84 80.77 288.55 83.03 289.21 86.64
  A 0.55 0.54 -8.4 0 0 289.81 87.08
  Q 293.31 86.65 296.58 85.26
  A 0.45 0.45 0.0 0 1 297.20 85.68"
/>
<path stroke="#737373" vector-effect="non-scaling-stroke" d="
  M 122.67 104.72
  C 132.37 107.57 132.58 83.96 131.78 79.21
  A 0.30 0.30 0.0 0 0 131.32 79.01
  C 123.12 84.55 117.10 94.26 121.97 104.13
  A 1.13 1.13 0.0 0 0 122.67 104.72"
/>
<path stroke="#737373" vector-effect="non-scaling-stroke" d="
  M 171.67 160.67
  Q 173.70 154.95 172.75 148.92
  Q 172.44 146.93 170.43 146.96
  Q 166.07 147.04 162.46 149.37
  A 0.99 0.98 -16.2 0 0 162.00 150.20
  L 162.00 165.54
  Q 162.00 166.34 162.64 165.86
  Q 166.43 163.07 170.86 161.48
  A 1.32 1.32 0.0 0 0 171.67 160.67"
/>
<path stroke="#828282" vector-effect="non-scaling-stroke" d="
  M 108.24 190.41
  Q 111.94 186.03 117.45 184.39
  A 1.11 1.09 -85.3 0 0 118.12 183.81
  Q 127.37 164.80 140.75 148.45
  Q 141.30 147.78 140.48 148.07
  Q 126.19 153.21 112.95 160.64
  A 1.96 1.96 0.0 0 0 111.95 162.43
  C 112.11 166.28 112.52 170.66 110.85 174.06
  Q 110.34 175.10 110.23 176.20
  Q 109.53 183.59 107.31 189.87
  Q 106.31 192.69 108.24 190.41"
/>
<path stroke="#737373" vector-effect="non-scaling-stroke" d="
  M 96.62 148.99
  Q 93.78 148.71 91.41 150.19
  A 0.97 0.95 -17.9 0 0 90.97 151.03
  Q 91.28 160.55 90.01 170.00
  Q 89.89 170.87 90.60 170.36
  L 99.71 163.79
  A 1.16 1.16 0.0 0 0 100.19 162.87
  Q 100.28 156.90 99.00 151.09
  Q 98.57 149.18 96.62 148.99"
/>
<path stroke="#828282" vector-effect="non-scaling-stroke" d="
  M 132.52 167.24
  C 132.00 167.41 125.67 180.01 124.91 181.52
  Q 124.55 182.23 125.33 182.07
  L 131.33 180.87
  A 2.05 2.04 -5.6 0 0 132.97 178.88
  L 133.01 167.59
  A 0.37 0.37 0.0 0 0 132.52 167.24"
/>
<path stroke="#737373" vector-effect="non-scaling-stroke" d="
  M 88.40 198.91
  C 89.97 199.52 93.32 199.86 94.83 199.75
  Q 97.17 199.58 97.76 197.31
  Q 101.44 183.29 100.98 168.76
  A 0.59 0.58 -15.5 0 0 100.11 168.28
  C 95.32 170.93 89.51 173.53 89.29 180.00
  Q 89.19 183.05 87.97 198.21
  A 0.69 0.68 13.7 0 0 88.40 198.91"
/>
<path stroke="#737373" vector-effect="non-scaling-stroke" d="
  M 173.29 169.94
  C 169.93 169.71 160.45 176.84 162.25 180.61
  A 0.23 0.23 0.0 0 0 162.62 180.68
  L 173.54 170.65
  Q 174.26 170.00 173.29 169.94"
/>
<path stroke="#737373" vector-effect="non-scaling-stroke" d="
  M 176.52 170.15
  A 0.51 0.50 -60.2 0 0 175.73 170.37
  C 173.83 175.39 166.26 180.93 162.54 185.17
  A 1.59 1.58 -20.8 0 0 162.15 186.03
  Q 161.25 192.75 162.13 199.47
  A 1.22 1.21 -75.5 0 0 162.59 200.26
  C 167.70 204.21 175.13 202.46 181.25 200.84
  A 0.62 0.61 -9.2 0 0 181.71 200.21
  C 181.46 195.45 180.34 191.02 181.72 186.02
  Q 182.67 182.55 182.41 180.55
  Q 181.59 174.29 176.52 170.15"
/>
<path stroke="#f0f0f0" vector-effect="non-scaling-stroke" d="
  M 271.96 107.00
  L 271.15 107.00
  A 1.46 1.44 64.9 0 1 270.26 106.67
  Q 268.74 105.41 266.79 105.00"
/>
<path stroke="#f0f0f0" vector-effect="non-scaling-stroke" d="
  M 256.16 86.13
  L 251.68 78.94
  A 1.39 1.37 82.1 0 0 250.94 78.37
  L 245.91 76.82"
/>
<path stroke="#f0f0f0" vector-effect="non-scaling-stroke" d="
  M 241.21 74.50
  L 224.52 70.32"
/>
<path stroke="#f0f0f0" vector-effect="non-scaling-stroke" d="
  M 60.69 205.00
  Q 59.11 201.66 58.71 197.99
  A 1.62 1.56 -36.8 0 1 58.85 197.14
  L 60.68 193.20
  A 1.07 1.06 41.5 0 0 60.61 192.17
  L 57.75 187.67
  A 0.42 0.42 0.0 0 1 58.07 187.03
  L 59.16 186.96
  A 0.76 0.74 6.2 0 0 59.82 186.44
  Q 59.92 186.14 59.74 185.78
  C 57.70 181.57 57.14 177.65 55.69 173.40
  Q 54.80 170.77 54.53 168.02
  A 1.11 1.10 -25.9 0 1 54.84 167.14
  Q 58.00 163.91 58.48 159.35
  A 0.62 0.62 0.0 0 1 59.07 158.80
  L 60.46 158.75"
/>
<path stroke="#f0f0f0" vector-effect="non-scaling-stroke" d="
  M 275.84 114.28
  Q 277.31 124.15 279.25 133.93
  C 280.11 138.25 277.97 141.73 275.03 144.59
  A 1.60 1.59 74.0 0 0 274.58 145.41
  L 274.25 146.96"
/>
<path stroke="#828282" vector-effect="non-scaling-stroke" d="
  M 274.25 146.96
  C 269.54 148.95 264.86 153.11 264.99 158.62
  C 265.09 162.81 265.48 167.90 264.18 171.36
  C 263.29 173.69 260.44 175.93 258.82 178.17
  A 0.50 0.50 0.0 0 0 259.16 178.96
  L 259.75 179.04"
/>
<path stroke="#f0f0f0" vector-effect="non-scaling-stroke" d="
  M 259.75 179.04
  C 261.23 185.23 250.15 185.42 246.65 184.48
  Q 244.57 183.93 243.42 185.75
  Q 241.47 188.80 238.04 191.50"
/>
<path stroke="#737373" vector-effect="non-scaling-stroke" d="
  M 318.54 169.75
  L 312.32 177.82
  Q 312.00 178.23 312.00 177.71
  L 312.00 151.26
  A 0.38 0.37 -10.3 0 0 311.49 150.91
  C 306.07 152.92 302.05 157.11 301.98 163.12
  Q 301.82 175.82 301.44 188.58
  A 1.03 1.02 -15.2 0 1 300.96 189.41
  Q 296.62 192.13 294.22 196.74
  A 1.09 0.97 -65.4 0 0 294.67 198.20
  C 295.66 198.59 300.93 194.36 301.85 193.68
  A 0.41 0.41 0.0 0 1 302.38 193.71
  L 305.54 196.75"
/>
<path stroke="#737373" vector-effect="non-scaling-stroke" d="
  M 259.75 179.04
  L 263.14 179.03
  A 0.42 0.42 0.0 0 1 263.57 179.49
  L 261.72 200.47
  Q 261.40 204.15 264.00 201.52
  L 271.41 194.03
  A 1.42 1.41 -20.4 0 0 271.82 193.14
  L 273.08 178.02
  A 0.83 0.83 0.0 0 1 273.67 177.30
  Q 278.42 175.93 282.81 173.57
  Q 284.18 172.83 284.13 174.39
  C 283.97 179.20 283.06 195.74 285.44 198.06
  Q 286.88 199.46 288.30 198.04
  L 295.77 190.56
  A 1.11 1.10 46.8 0 0 295.81 189.05
  C 292.61 185.46 293.73 169.41 294.14 164.48
  A 1.57 1.55 67.7 0 1 294.50 163.60
  C 299.41 157.61 302.40 147.07 296.87 140.34
  Q 295.16 138.25 292.74 139.44
  C 280.93 145.21 284.50 154.81 283.89 165.88
  A 1.83 1.83 0.0 0 1 282.44 167.57
  L 275.28 169.06
  A 1.09 1.09 0.0 0 1 273.98 167.88
  C 274.27 165.14 276.02 148.31 274.25 146.96"
/>
</g>
<path fill="#ffffff" d="
  M 0.00 0.00
  L 5.06 0.00
  Q 3.07 0.07 1.36 0.95
  A 1.06 1.03 -9.1 0 0 0.81 1.69
  L 0.00 6.19
  L 0.00 0.00
  Z"
/>
<path fill="#e1e1e1" d="
  M 5.06 0.00
  L 60.06 0.00
  L 60.89 0.40
  A 0.66 0.65 20.7 0 1 61.24 1.16
  C 60.00 6.02 57.51 9.01 57.02 14.74
  A 1.11 1.10 -15.7 0 1 56.56 15.55
  C 55.08 16.61 53.01 16.88 51.73 17.78
  Q 45.18 22.36 46.72 31.04
  A 1.28 1.27 -17.2 0 1 45.99 32.42
  C 40.91 34.72 37.86 35.67 39.13 42.30
  A 1.56 1.55 71.0 0 1 38.33 43.96
  L 33.29 46.60
  Q 31.85 47.36 31.55 48.96
  Q 30.58 54.24 31.20 59.58
  A 0.76 0.76 0.0 0 1 30.76 60.37
  L 26.97 62.08
  A 3.07 3.07 0.0 0 0 25.22 64.34
  Q 24.47 68.71 25.76 72.90
  A 0.59 0.59 0.0 0 1 25.41 73.63
  C 19.19 76.13 16.81 83.11 17.57 89.29
  C 17.85 91.60 17.30 92.97 16.62 95.03
  A 1.87 1.81 -12.0 0 1 16.06 95.86
  Q 13.54 98.00 12.01 100.92
  A 1.35 1.33 50.0 0 0 11.93 101.94
  L 13.07 105.30
  A 1.23 1.22 -40.6 0 1 12.99 106.27
  L 11.75 108.54
  A 0.97 0.96 42.8 0 0 11.79 109.52
  C 12.82 111.09 13.07 112.44 12.24 114.30
  C 10.72 117.68 11.05 121.21 9.50 124.33
  C 7.55 128.25 5.87 132.66 5.59 137.07
  C 5.37 140.55 2.31 143.02 6.17 145.88
  A 0.90 0.88 -70.5 0 1 6.52 146.63
  Q 6.44 148.02 5.20 148.79
  A 0.69 0.69 0.0 0 0 4.90 149.55
  Q 5.83 153.01 4.05 156.08
  A 1.00 0.99 -46.4 0 0 4.07 157.12
  L 7.82 163.01
  A 1.27 1.27 0.0 0 1 8.00 163.90
  Q 7.69 165.75 6.24 167.06
  Q 4.65 168.49 5.39 170.49
  Q 5.98 172.11 7.61 172.90
  A 1.06 1.05 35.9 0 1 7.89 174.60
  C 3.03 179.36 7.40 182.32 6.24 187.57
  A 3.17 3.17 0.0 0 0 6.91 190.30
  C 10.38 194.41 8.00 198.48 8.01 203.21
  A 1.24 1.23 23.0 0 0 8.36 204.07
  C 11.41 207.20 10.90 212.04 11.31 216.14
  C 11.97 222.53 14.62 228.42 16.73 234.49
  C 18.52 239.64 23.34 242.48 25.40 247.26
  Q 26.63 250.11 27.18 253.22
  A 1.45 1.42 -75.0 0 0 27.65 254.05
  Q 32.47 258.11 33.89 264.12
  C 34.68 267.43 36.25 268.93 38.01 271.57
  A 0.64 0.64 0.0 0 1 37.57 272.56
  L 34.69 273.00
  L 0.00 273.00
  L 0.00 183.94
  C 0.45 173.98 0.28 164.70 0.66 154.04
  Q 1.11 141.61 0.00 129.19
  L 0.00 6.19
  L 0.81 1.69
  A 1.06 1.03 -9.1 0 1 1.36 0.95
  Q 3.07 0.07 5.06 0.00
  Z"
/>
<path fill="#ffffff" d="
  M 60.06 0.00
  L 364.31 0.00
  L 354.49 0.72
  Q 354.01 0.76 354.40 1.04
  Q 358.71 4.14 363.41 6.70
  C 367.97 9.19 365.97 12.87 368.15 16.35
  C 369.67 18.77 372.10 20.27 373.55 22.54
  Q 377.42 28.62 382.04 35.12
  Q 383.23 36.79 382.00 38.43
  L 380.95 39.84
  A 0.84 0.82 46.8 0 0 380.93 40.81
  C 384.23 45.60 387.28 51.35 391.89 61.02
  Q 392.90 63.14 393.71 66.78
  Q 395.37 74.17 400.56 79.85
  C 401.51 80.89 401.51 81.74 400.39 82.58
  A 1.54 1.52 -10.9 0 0 399.84 83.38
  L 398.34 88.62
  Q 398.20 89.09 398.32 89.57
  C 399.71 95.36 400.94 100.57 405.63 102.50
  A 0.90 0.90 0.0 0 1 405.93 103.95
  Q 401.89 108.15 405.89 112.41
  A 0.76 0.75 37.6 0 1 406.01 113.29
  L 404.10 116.78
  A 2.58 2.58 0.0 0 0 403.99 118.99
  Q 405.17 121.78 405.93 123.74
  C 407.78 128.51 404.90 133.88 410.12 136.73
  A 0.56 0.55 -59.7 0 1 410.32 137.51
  Q 407.81 141.51 406.97 146.16
  A 1.78 1.72 40.2 0 0 407.07 147.16
  Q 409.23 152.64 404.35 156.06
  A 1.04 1.02 73.8 0 0 403.92 156.86
  C 403.69 168.66 402.48 183.73 396.83 194.32
  C 395.16 197.46 394.62 204.17 391.33 209.87
  C 390.48 211.34 390.66 213.03 390.06 214.72
  A 1.49 1.45 -6.9 0 1 389.43 215.50
  Q 386.89 217.00 385.35 219.47
  A 1.55 1.55 0.0 0 0 385.12 220.47
  C 385.67 225.83 383.39 228.01 380.98 232.22
  Q 376.67 239.73 370.79 246.08
  A 1.66 1.60 -20.9 0 0 370.39 246.93
  L 369.99 249.87
  A 1.55 1.52 -20.3 0 1 369.58 250.74
  L 364.77 255.82
  A 2.39 2.39 0.0 0 0 364.29 258.35
  L 365.28 260.81
  A 0.74 0.74 0.0 0 1 364.94 261.73
  Q 357.97 265.35 354.19 272.18
  A 0.32 0.32 0.0 0 0 354.46 272.66
  L 370.44 273.00
  L 143.94 273.00
  L 151.64 272.62
  Q 152.15 272.60 151.80 272.22
  C 150.48 270.76 148.24 270.80 146.92 270.18
  Q 144.36 268.97 141.77 267.63
  A 1.26 1.23 -87.1 0 1 141.16 266.94
  Q 140.15 264.20 138.46 261.84
  C 136.27 258.77 135.47 255.55 132.91 252.67
  C 130.81 250.31 130.47 248.08 129.33 245.33
  A 1.74 1.71 6.8 0 0 128.73 244.58
  C 125.15 242.07 120.96 241.36 121.03 236.12
  Q 121.06 233.72 119.58 231.82
  C 118.17 230.00 117.01 227.76 116.77 225.21
  Q 115.95 216.62 110.42 208.07
  Q 109.47 206.60 110.44 205.25
  Q 116.79 207.26 121.53 202.73
  C 124.58 199.83 131.91 193.14 131.97 191.55
  A 0.53 0.53 0.0 0 0 131.46 191.00
  C 130.92 190.98 124.81 195.65 123.54 196.31
  Q 120.92 197.65 120.28 194.78
  Q 119.98 193.41 120.56 192.27
  C 121.69 190.06 130.97 188.13 133.52 187.50
  A 0.35 0.34 82.6 0 1 133.94 187.83
  C 133.99 194.74 136.11 201.79 135.55 208.48
  A 0.58 0.56 9.1 0 0 136.00 209.09
  C 138.84 209.73 144.37 203.40 145.94 201.51
  Q 147.29 199.89 146.72 197.87
  Q 144.79 191.06 143.94 184.02
  A 0.75 0.75 0.0 0 1 144.21 183.35
  L 151.65 177.26
  Q 151.99 176.99 151.99 177.42
  L 152.00 191.47
  A 1.52 1.51 -28.8 0 1 151.74 192.35
  C 145.30 201.93 148.66 211.72 160.50 212.51
  Q 163.04 212.68 169.75 211.71
  C 169.85 213.25 170.40 214.30 171.99 214.83
  Q 178.58 217.01 182.72 222.60
  A 0.57 0.56 56.0 0 0 183.47 222.75
  L 184.90 221.85
  A 0.56 0.55 63.1 0 1 185.71 222.12
  L 187.13 225.67
  A 1.69 1.67 -84.7 0 0 187.78 226.46
  L 190.88 228.48
  A 1.68 1.62 -27.5 0 0 191.79 228.75
  L 195.21 228.75
  A 1.69 1.66 -27.7 0 1 196.14 229.03
  Q 202.02 232.98 209.02 234.16
  C 212.87 234.81 214.52 237.13 218.97 237.22
  Q 223.59 237.32 227.76 239.46
  A 1.69 1.69 0.0 0 1 228.46 240.13
  C 230.99 244.54 235.65 240.66 238.30 238.93
  A 1.19 1.19 0.0 0 1 240.08 239.54
  C 241.77 244.47 247.70 240.37 250.30 238.99
  C 252.28 237.93 254.35 238.10 256.48 237.27
  A 0.80 0.79 80.6 0 0 256.97 236.58
  L 257.08 234.10
  A 0.69 0.67 84.1 0 1 257.57 233.48
  Q 264.09 231.61 270.07 234.76
  A 1.19 1.19 0.0 0 0 271.52 234.50
  Q 275.43 230.07 281.10 228.19
  Q 283.46 227.41 283.43 224.92
  Q 283.43 224.03 283.87 223.31
  Q 284.26 222.69 285.51 222.14
  Q 289.60 220.35 292.63 216.97
  A 0.69 0.68 43.4 0 0 292.60 216.03
  L 291.53 214.96
  A 0.44 0.44 0.0 0 1 291.57 214.31
  C 292.15 213.86 295.87 213.26 296.98 212.83
  A 1.23 1.21 89.6 0 0 297.69 212.10
  L 298.27 210.43
  A 0.70 0.69 15.5 0 1 299.08 209.98
  L 300.28 210.25
  Q 300.99 210.42 300.76 209.72
  L 299.15 204.81
  A 0.71 0.71 0.0 0 1 299.39 204.02
  L 303.51 200.86
  Q 303.92 200.54 304.13 200.07
  L 305.54 196.75
  L 308.78 197.68
  A 1.35 1.34 -51.7 0 0 309.83 197.55
  Q 315.35 194.36 318.70 188.94
  A 0.48 0.48 0.0 0 0 318.54 188.28
  L 313.47 185.22
  Q 311.57 184.08 312.94 182.33
  L 329.97 160.60
  Q 331.00 159.29 331.00 160.95
  C 330.96 173.14 329.19 188.46 335.16 198.97
  A 1.55 1.54 -34.1 0 1 334.78 200.93
  Q 312.48 218.79 289.06 234.20
  C 285.95 236.25 275.98 243.06 275.12 246.41
  Q 274.57 248.59 276.41 247.32
  C 297.37 232.93 316.39 220.10 336.87 202.77
  A 0.52 0.52 0.0 0 1 337.59 202.81
  C 341.37 206.79 345.47 208.57 350.06 204.31
  C 351.68 202.81 357.89 196.94 357.09 195.71
  A 0.45 0.44 -32.8 0 0 356.47 195.58
  Q 351.82 198.65 348.51 193.90
  A 1.73 1.72 50.4 0 1 348.71 191.70
  L 368.01 172.39
  Q 368.49 171.91 368.52 172.58
  C 369.04 181.84 367.19 190.34 373.96 197.97
  A 0.61 0.60 49.5 0 0 374.80 198.04
  Q 379.70 194.08 383.91 189.36
  A 0.58 0.58 0.0 0 0 383.90 188.58
  C 377.98 182.21 378.42 175.03 378.73 165.46
  C 378.83 162.44 380.32 160.68 381.93 158.33
  A 0.62 0.62 0.0 0 0 381.81 157.50
  Q 380.94 156.76 379.75 156.99
  A 0.83 0.83 0.0 0 1 378.76 156.17
  L 378.73 139.51
  A 0.81 0.81 0.0 0 0 377.59 138.77
  Q 372.38 141.05 369.58 146.23
  C 368.08 149.00 368.88 153.39 368.56 156.62
  A 0.60 0.60 0.0 0 1 367.74 157.11
  Q 365.36 156.12 365.99 153.26
  Q 366.55 150.67 364.25 151.97
  C 360.70 153.97 355.13 159.35 355.95 164.18
  Q 356.36 166.65 358.87 166.74
  L 367.70 167.07
  Q 369.50 167.14 368.23 168.41
  L 346.29 190.27
  A 0.47 0.47 0.0 0 1 345.55 190.17
  C 342.53 185.02 341.31 180.40 341.09 174.03
  Q 340.65 160.90 341.01 147.99
  A 3.98 3.98 0.0 0 1 342.07 145.39
  L 346.03 141.15
  A 0.48 0.47 34.1 0 0 345.88 140.39
  Q 344.82 139.90 342.15 142.43
  Q 339.19 145.23 340.79 142.11
  Q 341.18 141.37 340.98 140.67
  A 0.74 0.73 -22.0 0 0 339.93 140.23
  C 334.61 143.04 331.16 146.46 331.00 152.73
  A 1.55 1.55 0.0 0 1 330.69 153.63
  L 318.54 169.75
  C 316.91 167.81 317.47 166.44 319.37 164.97
  C 322.61 162.48 322.13 159.38 324.01 156.44
  Q 326.20 153.03 329.06 150.13
  C 330.32 148.85 330.34 147.64 328.80 146.66
  A 0.73 0.73 0.0 0 1 328.49 145.88
  L 329.16 143.08
  Q 329.28 142.58 329.23 142.06
  Q 328.98 139.31 328.83 136.55
  Q 328.71 134.27 327.87 130.70
  C 326.78 126.03 328.49 122.54 328.98 118.28
  A 0.89 0.88 22.9 0 0 328.65 117.48
  Q 325.77 115.18 324.50 111.79
  C 332.30 112.72 338.25 113.65 344.32 110.84
  C 357.13 104.90 369.66 92.04 370.25 77.20
  C 370.85 61.81 350.63 50.69 337.15 51.03
  C 329.19 51.23 320.98 62.49 317.07 68.57
  A 0.94 0.94 0.0 0 1 316.36 69.00
  L 303.57 70.12
  Q 302.49 70.22 303.20 69.40
  C 307.06 64.94 312.34 58.99 312.02 52.72
  Q 311.89 50.22 309.39 50.38
  Q 299.90 51.02 291.04 54.51
  A 0.38 0.38 0.0 0 1 290.52 54.15
  C 290.55 52.72 291.21 46.57 288.75 46.96
  C 287.55 41.66 268.27 32.22 263.12 30.02
  Q 258.69 28.12 253.95 24.53
  C 250.68 22.04 246.71 22.49 243.20 21.45
  Q 237.56 19.77 231.67 19.29
  C 228.76 19.05 227.15 17.62 224.71 16.27
  A 0.52 0.51 -76.4 0 0 223.95 16.74
  L 223.97 18.01
  A 0.40 0.40 0.0 0 1 223.47 18.40
  C 221.21 17.77 219.11 16.15 216.95 16.10
  C 211.07 15.94 209.63 22.52 203.07 18.17
  A 0.88 0.86 43.9 0 0 202.09 18.18
  L 199.71 19.88
  A 0.99 0.98 37.1 0 1 198.80 20.00
  L 193.20 17.91
  A 1.03 1.02 35.2 0 0 192.20 18.08
  C 188.66 20.93 185.34 19.95 181.72 20.71
  C 174.54 22.22 165.96 22.03 161.31 28.84
  A 1.23 1.22 10.9 0 1 160.53 29.36
  L 155.14 30.46
  A 1.62 1.62 0.0 0 0 154.33 30.90
  C 152.30 32.97 150.84 34.87 148.04 36.02
  C 144.31 37.55 141.22 38.34 138.00 41.53
  A 0.80 0.77 -66.1 0 1 137.46 41.75
  L 137.12 41.76
  A 1.53 1.50 -64.0 0 0 136.22 42.08
  L 130.42 46.66
  A 0.55 0.55 0.0 0 0 130.31 47.40
  Q 130.83 48.14 130.75 48.96
  C 125.73 49.24 119.25 53.24 114.55 56.04
  Q 113.29 56.79 109.50 61.79
  Q 106.00 61.87 104.26 64.51
  C 101.24 69.10 97.72 72.35 93.04 75.25
  Q 90.91 42.00 93.01 8.69
  A 1.16 1.16 0.0 0 0 91.38 7.56
  C 84.89 10.47 82.27 16.52 82.16 23.65
  C 81.88 42.06 77.78 62.53 69.41 78.85
  Q 68.38 80.85 66.28 80.05
  C 62.39 78.58 61.24 75.89 61.16 71.67
  Q 60.65 45.20 61.62 18.67
  Q 61.71 16.32 59.89 17.81
  C 57.53 19.74 52.13 23.30 51.90 26.25
  Q 50.46 44.36 51.12 80.04
  C 51.34 91.72 59.66 92.39 67.33 86.00
  Q 77.01 77.93 81.38 65.75
  Q 81.39 65.72 81.42 65.72
  L 81.71 65.74
  A 0.27 0.27 0.0 0 1 81.96 66.01
  L 82.71 95.50
  L 81.48 95.79
  A 1.04 1.01 3.2 0 0 80.77 96.41
  Q 78.82 101.21 74.14 103.62
  A 1.09 1.07 -14.4 0 0 73.56 104.59
  L 73.66 108.65
  A 1.87 1.86 -14.6 0 1 72.66 110.35
  Q 69.65 111.91 70.25 115.46
  C 64.54 116.82 59.05 116.84 55.27 111.87
  A 0.58 0.57 -41.4 0 1 55.32 111.11
  C 56.55 109.84 60.23 106.76 60.07 105.01
  A 0.52 0.51 -4.4 0 0 59.51 104.54
  C 54.19 105.03 46.35 111.14 45.12 116.40
  C 43.92 121.51 48.35 125.67 53.25 125.99
  Q 60.16 126.44 67.75 123.96
  Q 67.21 131.77 64.34 138.80
  C 43.10 152.63 37.40 177.86 37.54 201.57
  C 37.64 216.96 53.18 217.81 62.71 210.25
  L 62.92 216.77
  A 1.09 1.08 70.3 0 1 62.50 217.67
  L 61.40 218.50
  A 0.74 0.73 -33.7 0 0 61.21 219.44
  Q 64.57 225.46 66.45 232.11
  A 1.63 1.63 0.0 0 0 67.04 232.97
  Q 70.86 235.83 72.30 240.43
  Q 72.63 241.48 74.24 242.11
  A 0.72 0.71 11.0 0 1 74.69 242.77
  Q 74.70 243.43 74.96 244.00
  Q 74.88 247.83 74.79 251.66
  C 74.70 255.90 73.05 259.90 73.24 264.57
  A 0.54 0.54 0.0 0 0 73.94 265.06
  Q 76.39 264.32 77.86 262.77
  Q 79.93 263.57 81.50 264.84
  C 83.46 266.41 83.60 268.63 84.23 270.97
  A 0.88 0.86 89.8 0 0 84.84 271.59
  Q 89.59 272.88 94.44 273.00
  L 34.69 273.00
  L 37.57 272.56
  A 0.64 0.64 0.0 0 0 38.01 271.57
  C 36.25 268.93 34.68 267.43 33.89 264.12
  Q 32.47 258.11 27.65 254.05
  A 1.45 1.42 -75.0 0 1 27.18 253.22
  Q 26.63 250.11 25.40 247.26
  C 23.34 242.48 18.52 239.64 16.73 234.49
  C 14.62 228.42 11.97 222.53 11.31 216.14
  C 10.90 212.04 11.41 207.20 8.36 204.07
  A 1.24 1.23 23.0 0 1 8.01 203.21
  C 8.00 198.48 10.38 194.41 6.91 190.30
  A 3.17 3.17 0.0 0 1 6.24 187.57
  C 7.40 182.32 3.03 179.36 7.89 174.60
  A 1.06 1.05 35.9 0 0 7.61 172.90
  Q 5.98 172.11 5.39 170.49
  Q 4.65 168.49 6.24 167.06
  Q 7.69 165.75 8.00 163.90
  A 1.27 1.27 0.0 0 0 7.82 163.01
  L 4.07 157.12
  A 1.00 0.99 -46.4 0 1 4.05 156.08
  Q 5.83 153.01 4.90 149.55
  A 0.69 0.69 0.0 0 1 5.20 148.79
  Q 6.44 148.02 6.52 146.63
  A 0.90 0.88 -70.5 0 0 6.17 145.88
  C 2.31 143.02 5.37 140.55 5.59 137.07
  C 5.87 132.66 7.55 128.25 9.50 124.33
  C 11.05 121.21 10.72 117.68 12.24 114.30
  C 13.07 112.44 12.82 111.09 11.79 109.52
  A 0.97 0.96 42.8 0 1 11.75 108.54
  L 12.99 106.27
  A 1.23 1.22 -40.6 0 0 13.07 105.30
  L 11.93 101.94
  A 1.35 1.33 50.0 0 1 12.01 100.92
  Q 13.54 98.00 16.06 95.86
  A 1.87 1.81 -12.0 0 0 16.62 95.03
  C 17.30 92.97 17.85 91.60 17.57 89.29
  C 16.81 83.11 19.19 76.13 25.41 73.63
  A 0.59 0.59 0.0 0 0 25.76 72.90
  Q 24.47 68.71 25.22 64.34
  A 3.07 3.07 0.0 0 1 26.97 62.08
  L 30.76 60.37
  A 0.76 0.76 0.0 0 0 31.20 59.58
  Q 30.58 54.24 31.55 48.96
  Q 31.85 47.36 33.29 46.60
  L 38.33 43.96
  A 1.56 1.55 71.0 0 0 39.13 42.30
  C 37.86 35.67 40.91 34.72 45.99 32.42
  A 1.28 1.27 -17.2 0 0 46.72 31.04
  Q 45.18 22.36 51.73 17.78
  C 53.01 16.88 55.08 16.61 56.56 15.55
  A 1.11 1.10 -15.7 0 0 57.02 14.74
  C 57.51 9.01 60.00 6.02 61.24 1.16
  A 0.66 0.65 20.7 0 0 60.89 0.40
  L 60.06 0.00
  Z"
/>
<path fill="#e1e1e1" d="
  M 364.31 0.00
  L 413.56 0.00
  L 416.04 0.43
  A 1.09 1.07 78.5 0 1 416.78 0.93
  C 419.29 4.92 421.97 8.75 423.98 12.97
  C 427.76 20.91 431.17 28.91 435.72 36.46
  C 439.38 42.54 442.17 51.47 444.00 56.76
  Q 445.71 61.72 446.00 73.56
  L 446.00 192.31
  Q 445.45 199.00 445.69 205.74
  C 445.80 208.95 444.30 210.61 442.38 212.86
  A 0.95 0.95 0.0 0 0 442.19 213.72
  C 444.28 221.66 439.27 230.48 434.82 236.43
  C 433.47 238.23 431.23 239.73 429.63 241.65
  A 1.63 1.60 69.0 0 0 429.27 242.48
  Q 428.41 249.29 423.93 254.53
  A 0.99 0.97 55.2 0 0 423.76 255.52
  L 424.59 257.65
  A 1.60 1.58 -47.7 0 1 424.63 258.69
  L 420.44 273.00
  L 370.44 273.00
  L 354.46 272.66
  A 0.32 0.32 0.0 0 1 354.19 272.18
  Q 357.97 265.35 364.94 261.73
  A 0.74 0.74 0.0 0 0 365.28 260.81
  L 364.29 258.35
  A 2.39 2.39 0.0 0 1 364.77 255.82
  L 369.58 250.74
  A 1.55 1.52 -20.3 0 0 369.99 249.87
  L 370.39 246.93
  A 1.66 1.60 -20.9 0 1 370.79 246.08
  Q 376.67 239.73 380.98 232.22
  C 383.39 228.01 385.67 225.83 385.12 220.47
  A 1.55 1.55 0.0 0 1 385.35 219.47
  Q 386.89 217.00 389.43 215.50
  A 1.49 1.45 -6.9 0 0 390.06 214.72
  C 390.66 213.03 390.48 211.34 391.33 209.87
  C 394.62 204.17 395.16 197.46 396.83 194.32
  C 402.48 183.73 403.69 168.66 403.92 156.86
  A 1.04 1.02 73.8 0 1 404.35 156.06
  Q 409.23 152.64 407.07 147.16
  A 1.78 1.72 40.2 0 1 406.97 146.16
  Q 407.81 141.51 410.32 137.51
  A 0.56 0.55 -59.7 0 0 410.12 136.73
  C 404.90 133.88 407.78 128.51 405.93 123.74
  Q 405.17 121.78 403.99 118.99
  A 2.58 2.58 0.0 0 1 404.10 116.78
  L 406.01 113.29
  A 0.76 0.75 37.6 0 0 405.89 112.41
  Q 401.89 108.15 405.93 103.95
  A 0.90 0.90 0.0 0 0 405.63 102.50
  C 400.94 100.57 399.71 95.36 398.32 89.57
  Q 398.20 89.09 398.34 88.62
  L 399.84 83.38
  A 1.54 1.52 -10.9 0 1 400.39 82.58
  C 401.51 81.74 401.51 80.89 400.56 79.85
  Q 395.37 74.17 393.71 66.78
  Q 392.90 63.14 391.89 61.02
  C 387.28 51.35 384.23 45.60 380.93 40.81
  A 0.84 0.82 46.8 0 1 380.95 39.84
  L 382.00 38.43
  Q 383.23 36.79 382.04 35.12
  Q 377.42 28.62 373.55 22.54
  C 372.10 20.27 369.67 18.77 368.15 16.35
  C 365.97 12.87 367.97 9.19 363.41 6.70
  Q 358.71 4.14 354.40 1.04
  Q 354.01 0.76 354.49 0.72
  L 364.31 0.00
  Z"
/>
<path fill="#ffffff" d="
  M 413.56 0.00
  L 446.00 0.00
  L 446.00 73.56
  Q 445.71 61.72 444.00 56.76
  C 442.17 51.47 439.38 42.54 435.72 36.46
  C 431.17 28.91 427.76 20.91 423.98 12.97
  C 421.97 8.75 419.29 4.92 416.78 0.93
  A 1.09 1.07 78.5 0 0 416.04 0.43
  L 413.56 0.00
  Z"
/>
<path fill="#040404" d="
  M 93.04 75.25
  Q 93.33 89.05 92.46 95.43
  C 90.65 108.68 79.24 118.90 67.75 123.96
  Q 60.16 126.44 53.25 125.99
  C 48.35 125.67 43.92 121.51 45.12 116.40
  C 46.35 111.14 54.19 105.03 59.51 104.54
  A 0.52 0.51 -4.4 0 1 60.07 105.01
  C 60.23 106.76 56.55 109.84 55.32 111.11
  A 0.58 0.57 -41.4 0 0 55.27 111.87
  C 59.05 116.84 64.54 116.82 70.25 115.46
  C 83.03 114.67 82.93 105.48 82.71 95.50
  L 81.96 66.01
  A 0.27 0.27 0.0 0 0 81.71 65.74
  L 81.42 65.72
  Q 81.39 65.72 81.38 65.75
  Q 77.01 77.93 67.33 86.00
  C 59.66 92.39 51.34 91.72 51.12 80.04
  Q 50.46 44.36 51.90 26.25
  C 52.13 23.30 57.53 19.74 59.89 17.81
  Q 61.71 16.32 61.62 18.67
  Q 60.65 45.20 61.16 71.67
  C 61.24 75.89 62.39 78.58 66.28 80.05
  Q 68.38 80.85 69.41 78.85
  C 77.78 62.53 81.88 42.06 82.16 23.65
  C 82.27 16.52 84.89 10.47 91.38 7.56
  A 1.16 1.16 0.0 0 1 93.01 8.69
  Q 90.91 42.00 93.04 75.25
  Z"
/>
<path fill="#e1e1e1" d="
  M 288.75 46.96
  C 276.32 50.06 267.73 54.45 257.77 60.20
  Q 256.56 60.90 256.98 59.57
  C 258.21 55.67 259.56 49.77 254.03 48.53
  C 238.83 45.11 225.89 58.28 218.75 70.29
  Q 216.88 69.52 215.90 67.75
  A 0.87 0.86 -12.5 0 0 215.17 67.29
  L 214.29 67.25
  L 213.81 53.37
  A 1.45 1.45 0.0 0 0 212.38 51.97
  C 202.57 51.81 190.38 59.23 183.75 66.61
  A 0.32 0.32 0.0 0 1 183.22 66.53
  C 179.97 59.56 176.72 53.26 167.93 53.76
  C 160.34 54.19 153.36 62.58 149.92 68.76
  Q 149.32 69.83 149.16 68.62
  L 148.87 66.48
  A 0.58 0.58 0.0 0 0 148.31 65.98
  Q 145.32 65.96 142.83 67.57
  A 0.43 0.43 0.0 0 1 142.17 67.26
  Q 141.42 60.60 139.60 54.18
  C 138.27 49.52 135.52 47.57 130.75 48.96
  Q 130.83 48.14 130.31 47.40
  A 0.55 0.55 0.0 0 1 130.42 46.66
  L 136.22 42.08
  A 1.53 1.50 -64.0 0 1 137.12 41.76
  L 137.46 41.75
  A 0.80 0.77 -66.1 0 0 138.00 41.53
  C 141.22 38.34 144.31 37.55 148.04 36.02
  C 150.84 34.87 152.30 32.97 154.33 30.90
  A 1.62 1.62 0.0 0 1 155.14 30.46
  L 160.53 29.36
  A 1.23 1.22 10.9 0 0 161.31 28.84
  C 165.96 22.03 174.54 22.22 181.72 20.71
  C 185.34 19.95 188.66 20.93 192.20 18.08
  A 1.03 1.02 35.2 0 1 193.20 17.91
  L 198.80 20.00
  A 0.99 0.98 37.1 0 0 199.71 19.88
  L 202.09 18.18
  A 0.88 0.86 43.9 0 1 203.07 18.17
  C 209.63 22.52 211.07 15.94 216.95 16.10
  C 219.11 16.15 221.21 17.77 223.47 18.40
  A 0.40 0.40 0.0 0 0 223.97 18.01
  L 223.95 16.74
  A 0.52 0.51 -76.4 0 1 224.71 16.27
  C 227.15 17.62 228.76 19.05 231.67 19.29
  Q 237.56 19.77 243.20 21.45
  C 246.71 22.49 250.68 22.04 253.95 24.53
  Q 258.69 28.12 263.12 30.02
  C 268.27 32.22 287.55 41.66 288.75 46.96
  Z"
/>
<path fill="#040404" d="
  M 288.75 46.96
  C 291.21 46.57 290.55 52.72 290.52 54.15
  A 0.38 0.38 0.0 0 0 291.04 54.51
  Q 299.90 51.02 309.39 50.38
  Q 311.89 50.22 312.02 52.72
  C 312.34 58.99 307.06 64.94 303.20 69.40
  Q 302.49 70.22 303.57 70.12
  L 316.36 69.00
  A 0.94 0.94 0.0 0 0 317.07 68.57
  C 320.98 62.49 329.19 51.23 337.15 51.03
  C 350.63 50.69 370.85 61.81 370.25 77.20
  C 369.66 92.04 357.13 104.90 344.32 110.84
  C 338.25 113.65 332.30 112.72 324.50 111.79
  Q 317.50 110.91 314.63 104.75
  A 0.38 0.37 57.2 0 0 314.05 104.62
  Q 307.21 110.47 304.72 111.75
  C 296.64 115.89 284.45 118.36 275.84 114.28
  Q 273.02 111.26 271.96 107.00
  C 271.28 101.91 273.10 99.19 276.60 95.76
  C 279.59 92.84 280.25 89.39 279.90 85.40
  A 0.50 0.50 0.0 0 0 279.22 84.98
  L 277.61 85.63
  A 0.47 0.47 0.0 0 1 276.99 85.35
  C 276.18 82.95 279.96 82.06 279.99 79.12
  Q 280.07 72.54 279.93 66.46
  A 0.64 0.64 0.0 0 0 279.05 65.88
  Q 277.28 66.59 275.41 66.62
  Q 274.53 66.63 275.01 65.89
  C 276.11 64.20 280.55 59.36 280.14 57.64
  A 0.53 0.53 0.0 0 0 279.51 57.24
  Q 268.44 59.61 258.64 65.18
  C 253.35 68.18 251.18 73.64 245.91 76.82
  L 244.44 74.51
  A 0.44 0.44 0.0 0 0 243.84 74.37
  Q 242.46 75.18 241.21 74.50
  C 244.09 70.10 247.41 67.96 248.05 62.46
  Q 248.32 60.07 246.11 59.14
  Q 240.32 56.68 234.13 58.63
  C 229.17 60.19 226.23 65.75 224.52 70.32
  C 221.17 76.57 213.84 97.14 223.32 101.21
  C 237.95 107.49 252.11 102.77 256.16 86.13
  Q 256.74 82.13 257.02 78.24
  C 257.54 70.91 261.80 65.56 268.25 62.21
  A 0.54 0.54 0.0 0 1 269.04 62.68
  Q 269.20 69.08 267.45 75.11
  C 264.99 83.58 265.41 96.33 266.79 105.00
  C 266.13 105.87 256.42 118.53 256.17 111.95
  Q 255.86 103.92 256.01 96.56
  Q 256.04 95.03 255.08 96.22
  C 249.38 103.27 241.20 111.09 232.10 113.08
  C 228.01 113.97 223.06 113.19 218.58 112.89
  A 0.47 0.47 0.0 0 0 218.08 113.35
  C 218.05 117.47 219.19 126.96 217.46 130.21
  Q 213.20 138.23 205.28 142.41
  A 1.59 1.58 78.9 0 0 204.44 143.67
  L 202.19 169.73
  A 1.30 1.29 -88.8 0 0 203.54 171.14
  L 213.87 170.59
  A 1.33 1.32 -89.0 0 0 215.12 169.38
  Q 215.70 162.26 216.05 154.92
  C 216.27 150.40 220.98 146.26 224.59 144.37
  A 1.01 1.00 -12.9 0 1 226.06 145.29
  L 225.78 155.44
  A 0.48 0.47 88.9 0 0 226.28 155.93
  Q 226.76 155.91 227.12 155.33
  Q 230.79 149.39 237.20 146.63
  C 245.54 143.05 256.09 138.49 265.17 137.95
  A 0.86 0.86 0.0 0 1 266.07 138.95
  C 265.50 142.33 254.75 155.69 251.41 155.75
  Q 250.29 155.77 250.97 154.88
  L 255.66 148.67
  Q 256.62 147.39 255.06 147.73
  C 244.85 149.96 235.59 153.85 225.94 157.67
  A 0.99 0.97 -9.1 0 0 225.31 158.52
  L 224.89 164.67
  Q 224.80 165.90 225.50 164.88
  Q 229.81 158.52 237.36 157.06
  A 0.54 0.54 0.0 0 1 238.00 157.59
  L 238.00 161.19
  A 0.41 0.40 85.2 0 0 238.47 161.59
  Q 244.71 160.52 250.91 159.26
  C 252.21 158.99 254.60 158.11 256.44 158.24
  Q 257.74 158.34 256.88 159.32
  Q 253.95 162.66 250.71 165.70
  C 246.25 169.89 238.79 171.14 238.10 178.65
  Q 237.51 185.07 238.04 191.50
  L 238.16 193.62
  A 0.95 0.94 -77.6 0 0 238.65 194.40
  C 244.65 197.75 251.14 196.87 256.59 197.19
  A 0.30 0.30 0.0 0 1 256.82 197.65
  C 248.92 210.33 235.36 209.18 224.34 201.78
  Q 222.41 200.48 223.13 198.26
  Q 224.91 192.83 226.95 187.26
  C 228.86 182.07 228.09 175.02 227.95 169.52
  A 0.32 0.31 75.7 0 0 227.49 169.24
  Q 224.35 170.92 223.81 174.32
  Q 222.47 182.79 221.87 193.64
  C 221.56 199.19 217.32 203.24 212.62 205.66
  A 0.33 0.33 0.0 0 1 212.13 205.39
  C 211.52 198.15 212.77 190.79 213.99 179.46
  A 0.45 0.45 0.0 0 0 213.46 178.97
  L 201.74 180.97
  A 0.67 0.67 0.0 0 0 201.19 181.56
  C 200.67 186.86 201.43 194.83 199.34 199.27
  C 196.98 204.29 187.51 211.64 183.25 204.14
  A 0.39 0.39 0.0 0 0 182.64 204.05
  Q 176.98 209.26 169.75 211.71
  Q 163.04 212.68 160.50 212.51
  C 148.66 211.72 145.30 201.93 151.74 192.35
  A 1.52 1.51 -28.8 0 0 152.00 191.47
  L 151.99 177.42
  Q 151.99 176.99 151.65 177.26
  L 144.21 183.35
  A 0.75 0.75 0.0 0 0 143.94 184.02
  Q 144.79 191.06 146.72 197.87
  Q 147.29 199.89 145.94 201.51
  C 144.37 203.40 138.84 209.73 136.00 209.09
  A 0.58 0.56 9.1 0 1 135.55 208.48
  C 136.11 201.79 133.99 194.74 133.94 187.83
  A 0.35 0.34 82.6 0 0 133.52 187.50
  C 130.97 188.13 121.69 190.06 120.56 192.27
  Q 119.98 193.41 120.28 194.78
  Q 120.92 197.65 123.54 196.31
  C 124.81 195.65 130.92 190.98 131.46 191.00
  A 0.53 0.53 0.0 0 1 131.97 191.55
  C 131.91 193.14 124.58 199.83 121.53 202.73
  Q 116.79 207.26 110.44 205.25
  Q 109.95 199.06 113.03 193.69
  Q 113.37 193.10 112.71 193.28
  L 105.75 195.16
  A 1.31 1.30 -82.4 0 0 104.96 195.77
  C 102.33 200.37 95.62 208.23 90.05 208.94
  Q 88.83 209.09 87.59 209.49
  A 0.74 0.74 0.0 0 0 87.07 210.14
  Q 85.46 229.64 84.21 249.17
  C 83.76 256.10 83.18 258.20 77.86 262.77
  Q 76.39 264.32 73.94 265.06
  A 0.54 0.54 0.0 0 1 73.24 264.57
  C 73.05 259.90 74.70 255.90 74.79 251.66
  Q 74.88 247.83 74.96 244.00
  L 77.66 208.70
  A 0.79 0.79 0.0 0 0 77.37 208.03
  L 71.29 203.10
  A 0.58 0.57 43.3 0 0 70.55 203.12
  L 62.71 210.25
  C 53.18 217.81 37.64 216.96 37.54 201.57
  C 37.40 177.86 43.10 152.63 64.34 138.80
  L 69.76 139.08
  Q 72.03 139.19 71.81 141.46
  Q 70.97 149.81 69.74 157.75
  C 69.03 162.30 63.39 166.48 60.58 168.69
  A 0.63 0.62 46.2 0 1 59.79 168.67
  C 58.33 167.40 60.31 159.96 60.46 158.75
  L 61.15 149.89
  A 0.69 0.69 0.0 0 0 60.70 149.19
  C 58.22 148.25 56.54 149.45 55.53 151.82
  Q 46.55 172.95 47.71 196.07
  C 48.06 202.99 54.87 204.82 60.69 205.00
  Q 66.13 204.39 69.22 200.17
  A 1.26 1.22 59.6 0 0 69.44 199.27
  C 68.46 192.20 73.42 186.51 77.62 181.45
  A 1.41 1.40 -24.5 0 0 77.93 180.63
  L 78.23 169.61
  A 1.63 1.63 0.0 0 1 78.61 168.62
  Q 82.15 164.47 80.90 158.88
  A 0.59 0.59 0.0 0 0 80.03 158.50
  L 78.43 159.43
  A 0.28 0.28 0.0 0 1 78.04 159.32
  C 77.77 158.81 80.53 154.03 80.93 153.10
  C 83.09 148.10 85.61 145.54 90.10 143.04
  A 0.43 0.43 0.0 0 1 90.73 143.32
  L 90.95 144.23
  A 0.52 0.52 0.0 0 0 91.76 144.53
  Q 96.20 141.36 101.43 139.77
  A 0.84 0.84 0.0 0 0 102.02 139.06
  C 102.98 129.83 103.43 120.50 104.72 111.38
  Q 107.37 92.62 108.92 73.75
  Q 109.03 72.43 109.00 71.76
  Q 108.92 70.30 108.01 71.44
  Q 104.35 76.04 99.71 79.69
  A 0.37 0.37 0.0 0 1 99.13 79.52
  C 98.23 76.89 106.43 65.99 109.50 61.79
  Q 113.29 56.79 114.55 56.04
  C 119.25 53.24 125.73 49.24 130.75 48.96
  C 135.52 47.57 138.27 49.52 139.60 54.18
  Q 141.42 60.60 142.17 67.26
  A 0.43 0.43 0.0 0 0 142.83 67.57
  Q 145.32 65.96 148.31 65.98
  A 0.58 0.58 0.0 0 1 148.87 66.48
  L 149.16 68.62
  Q 149.32 69.83 149.92 68.76
  C 153.36 62.58 160.34 54.19 167.93 53.76
  C 176.72 53.26 179.97 59.56 183.22 66.53
  A 0.32 0.32 0.0 0 0 183.75 66.61
  C 190.38 59.23 202.57 51.81 212.38 51.97
  A 1.45 1.45 0.0 0 1 213.81 53.37
  L 214.29 67.25
  Q 210.26 86.43 198.38 101.07
  Q 197.34 102.35 198.96 101.99
  L 208.35 99.86
  A 0.74 0.74 0.0 0 0 208.92 99.21
  C 210.01 88.42 213.13 79.58 218.75 70.29
  C 225.89 58.28 238.83 45.11 254.03 48.53
  C 259.56 49.77 258.21 55.67 256.98 59.57
  Q 256.56 60.90 257.77 60.20
  C 267.73 54.45 276.32 50.06 288.75 46.96
  Z
  M 124.84 58.78
  L 120.62 58.83
  A 1.66 1.66 0.0 0 0 118.98 60.44
  Q 118.62 72.75 117.11 85.32
  Q 116.89 87.09 116.99 88.19
  Q 117.15 90.09 118.21 88.51
  Q 123.51 80.66 131.24 75.13
  A 0.95 0.95 0.0 0 0 131.63 74.29
  Q 131.14 67.77 128.95 61.64
  Q 127.91 58.75 124.84 58.78
  Z
  M 290.56 62.38
  L 290.09 73.47
  A 0.30 0.30 0.0 0 0 290.52 73.76
  C 297.04 70.82 302.81 68.59 301.95 61.49
  A 1.54 1.53 82.5 0 0 300.21 60.15
  L 291.42 61.43
  A 1.00 0.99 -3.1 0 0 290.56 62.38
  Z
  M 328.36 60.71
  C 325.81 61.26 319.96 70.42 321.26 72.78
  Q 321.80 73.75 322.33 72.78
  L 328.70 61.16
  Q 329.03 60.56 328.36 60.71
  Z
  M 333.84 61.61
  C 330.41 68.62 318.65 94.89 328.28 99.77
  C 334.82 103.08 352.25 105.69 357.18 97.53
  C 367.91 79.77 350.22 64.96 334.80 61.16
  A 0.84 0.83 -69.8 0 0 333.84 61.61
  Z
  M 195.04 69.75
  L 195.13 98.77
  Q 195.13 99.28 195.39 98.84
  C 201.46 88.42 204.77 79.07 204.21 67.25
  L 203.93 62.48
  A 0.73 0.73 0.0 0 0 203.09 61.81
  L 195.83 62.94
  A 0.83 0.83 0.0 0 0 195.13 63.75
  L 195.04 69.75
  Z
  M 149.79 90.75
  C 149.31 99.01 155.47 108.05 164.42 105.74
  C 175.55 102.87 175.19 83.50 172.96 75.50
  C 171.26 69.63 164.83 61.31 157.73 64.31
  A 1.38 1.34 -87.2 0 0 157.04 64.95
  C 152.99 72.65 149.34 81.94 149.79 90.75
  Z
  M 160.75 115.54
  Q 158.66 117.25 156.00 117.79
  Q 154.31 117.46 145.02 114.72
  C 137.30 112.43 139.10 107.18 138.96 101.00
  L 138.96 94.53
  Q 138.96 93.13 138.29 94.36
  C 133.13 103.79 124.51 112.69 113.80 115.50
  A 0.69 0.69 0.0 0 0 113.29 116.14
  L 112.04 149.75
  L 112.06 155.43
  Q 112.06 155.94 112.49 155.67
  Q 129.67 144.99 148.75 138.21
  L 152.49 138.03
  Q 154.07 137.96 153.03 139.16
  L 145.25 148.21
  Q 142.86 150.27 142.83 154.18
  Q 142.75 163.62 143.22 175.05
  A 1.56 1.55 -7.9 0 0 145.13 176.49
  Q 147.92 175.82 151.74 173.59
  L 152.14 158.21
  A 1.82 1.79 -27.7 0 1 152.46 157.22
  L 155.71 152.48
  Q 156.22 151.75 155.44 152.18
  L 149.90 155.21
  A 0.33 0.32 -35.9 0 1 149.51 155.15
  L 149.32 154.96
  A 0.68 0.68 0.0 0 1 149.24 154.12
  C 153.34 147.90 158.44 145.12 165.73 141.52
  C 169.61 139.61 176.04 136.27 180.39 136.86
  Q 182.09 137.10 182.45 138.77
  C 183.96 145.65 182.29 152.89 178.94 158.31
  Q 177.68 160.35 180.06 160.04
  Q 189.91 158.77 191.49 168.22
  Q 192.43 173.86 193.00 168.28
  Q 193.59 162.39 194.04 153.85
  C 194.25 149.82 195.89 147.36 198.68 144.83
  A 0.74 0.74 0.0 0 0 198.87 144.02
  C 195.58 135.59 199.87 130.11 207.48 127.01
  Q 208.51 122.19 206.27 115.71
  Q 203.56 107.87 196.00 110.51
  C 186.95 111.98 180.95 119.31 173.64 124.03
  Q 171.57 125.36 172.11 122.96
  C 172.97 119.15 181.29 112.60 184.45 110.04
  A 1.09 1.09 0.0 0 0 184.86 109.21
  L 184.96 105.00
  C 184.99 93.11 184.14 80.26 185.65 68.52
  Q 185.72 67.99 185.24 68.23
  C 183.65 69.01 183.93 75.28 183.85 78.42
  C 183.41 95.30 173.01 104.56 160.75 115.54
  Z
  M 297.20 85.68
  C 297.17 88.71 291.37 92.99 289.50 94.41
  A 1.03 1.01 73.2 0 0 289.11 95.15
  L 288.45 105.30
  A 0.46 0.45 5.6 0 0 288.84 105.77
  Q 299.02 107.08 308.75 103.99
  C 312.82 102.70 313.20 99.55 313.17 95.74
  C 313.13 89.18 314.37 78.89 304.73 78.76
  Q 302.13 78.73 293.63 80.14
  C 289.84 80.77 288.55 83.03 289.21 86.64
  A 0.55 0.54 -8.4 0 0 289.81 87.08
  Q 293.31 86.65 296.58 85.26
  A 0.45 0.45 0.0 0 1 297.20 85.68
  Z
  M 122.67 104.72
  C 132.37 107.57 132.58 83.96 131.78 79.21
  A 0.30 0.30 0.0 0 0 131.32 79.01
  C 123.12 84.55 117.10 94.26 121.97 104.13
  A 1.13 1.13 0.0 0 0 122.67 104.72
  Z
  M 171.67 160.67
  Q 173.70 154.95 172.75 148.92
  Q 172.44 146.93 170.43 146.96
  Q 166.07 147.04 162.46 149.37
  A 0.99 0.98 -16.2 0 0 162.00 150.20
  L 162.00 165.54
  Q 162.00 166.34 162.64 165.86
  Q 166.43 163.07 170.86 161.48
  A 1.32 1.32 0.0 0 0 171.67 160.67
  Z
  M 108.24 190.41
  Q 111.94 186.03 117.45 184.39
  A 1.11 1.09 -85.3 0 0 118.12 183.81
  Q 127.37 164.80 140.75 148.45
  Q 141.30 147.78 140.48 148.07
  Q 126.19 153.21 112.95 160.64
  A 1.96 1.96 0.0 0 0 111.95 162.43
  C 112.11 166.28 112.52 170.66 110.85 174.06
  Q 110.34 175.10 110.23 176.20
  Q 109.53 183.59 107.31 189.87
  Q 106.31 192.69 108.24 190.41
  Z
  M 96.62 148.99
  Q 93.78 148.71 91.41 150.19
  A 0.97 0.95 -17.9 0 0 90.97 151.03
  Q 91.28 160.55 90.01 170.00
  Q 89.89 170.87 90.60 170.36
  L 99.71 163.79
  A 1.16 1.16 0.0 0 0 100.19 162.87
  Q 100.28 156.90 99.00 151.09
  Q 98.57 149.18 96.62 148.99
  Z
  M 132.52 167.24
  C 132.00 167.41 125.67 180.01 124.91 181.52
  Q 124.55 182.23 125.33 182.07
  L 131.33 180.87
  A 2.05 2.04 -5.6 0 0 132.97 178.88
  L 133.01 167.59
  A 0.37 0.37 0.0 0 0 132.52 167.24
  Z
  M 88.40 198.91
  C 89.97 199.52 93.32 199.86 94.83 199.75
  Q 97.17 199.58 97.76 197.31
  Q 101.44 183.29 100.98 168.76
  A 0.59 0.58 -15.5 0 0 100.11 168.28
  C 95.32 170.93 89.51 173.53 89.29 180.00
  Q 89.19 183.05 87.97 198.21
  A 0.69 0.68 13.7 0 0 88.40 198.91
  Z
  M 173.29 169.94
  C 169.93 169.71 160.45 176.84 162.25 180.61
  A 0.23 0.23 0.0 0 0 162.62 180.68
  L 173.54 170.65
  Q 174.26 170.00 173.29 169.94
  Z
  M 176.52 170.15
  A 0.51 0.50 -60.2 0 0 175.73 170.37
  C 173.83 175.39 166.26 180.93 162.54 185.17
  A 1.59 1.58 -20.8 0 0 162.15 186.03
  Q 161.25 192.75 162.13 199.47
  A 1.22 1.21 -75.5 0 0 162.59 200.26
  C 167.70 204.21 175.13 202.46 181.25 200.84
  A 0.62 0.61 -9.2 0 0 181.71 200.21
  C 181.46 195.45 180.34 191.02 181.72 186.02
  Q 182.67 182.55 182.41 180.55
  Q 181.59 174.29 176.52 170.15
  Z"
/>
<path fill="#e1e1e1" d="
  M 271.96 107.00
  L 271.15 107.00
  A 1.46 1.44 64.9 0 1 270.26 106.67
  Q 268.74 105.41 266.79 105.00
  C 265.41 96.33 264.99 83.58 267.45 75.11
  Q 269.20 69.08 269.04 62.68
  A 0.54 0.54 0.0 0 0 268.25 62.21
  C 261.80 65.56 257.54 70.91 257.02 78.24
  Q 256.74 82.13 256.16 86.13
  L 251.68 78.94
  A 1.39 1.37 82.1 0 0 250.94 78.37
  L 245.91 76.82
  C 251.18 73.64 253.35 68.18 258.64 65.18
  Q 268.44 59.61 279.51 57.24
  A 0.53 0.53 0.0 0 1 280.14 57.64
  C 280.55 59.36 276.11 64.20 275.01 65.89
  Q 274.53 66.63 275.41 66.62
  Q 277.28 66.59 279.05 65.88
  A 0.64 0.64 0.0 0 1 279.93 66.46
  Q 280.07 72.54 279.99 79.12
  C 279.96 82.06 276.18 82.95 276.99 85.35
  A 0.47 0.47 0.0 0 0 277.61 85.63
  L 279.22 84.98
  A 0.50 0.50 0.0 0 1 279.90 85.40
  C 280.25 89.39 279.59 92.84 276.60 95.76
  C 273.10 99.19 271.28 101.91 271.96 107.00
  Z"
/>
<path fill="#e1e1e1" d="
  M 241.21 74.50
  L 224.52 70.32
  C 226.23 65.75 229.17 60.19 234.13 58.63
  Q 240.32 56.68 246.11 59.14
  Q 248.32 60.07 248.05 62.46
  C 247.41 67.96 244.09 70.10 241.21 74.50
  Z"
/>
<path fill="#e1e1e1" d="
  M 124.84 58.78
  Q 127.91 58.75 128.95 61.64
  Q 131.14 67.77 131.63 74.29
  A 0.95 0.95 0.0 0 1 131.24 75.13
  Q 123.51 80.66 118.21 88.51
  Q 117.15 90.09 116.99 88.19
  Q 116.89 87.09 117.11 85.32
  Q 118.62 72.75 118.98 60.44
  A 1.66 1.66 0.0 0 1 120.62 58.83
  L 124.84 58.78
  Z"
/>
<path fill="#e1e1e1" d="
  M 290.56 62.38
  A 1.00 0.99 -3.1 0 1 291.42 61.43
  L 300.21 60.15
  A 1.54 1.53 82.5 0 1 301.95 61.49
  C 302.81 68.59 297.04 70.82 290.52 73.76
  A 0.30 0.30 0.0 0 1 290.09 73.47
  L 290.56 62.38
  Z"
/>
<path fill="#ffffff" d="
  M 321.26 72.78
  C 319.96 70.42 325.81 61.26 328.36 60.71
  Q 329.03 60.56 328.70 61.16
  L 322.33 72.78
  Q 321.80 73.75 321.26 72.78
  Z"
/>
<path fill="#ffffff" d="
  M 333.84 61.61
  A 0.84 0.83 -69.8 0 1 334.80 61.16
  C 350.22 64.96 367.91 79.77 357.18 97.53
  C 352.25 105.69 334.82 103.08 328.28 99.77
  C 318.65 94.89 330.41 68.62 333.84 61.61
  Z"
/>
<path fill="#e1e1e1" d="
  M 109.50 61.79
  C 106.43 65.99 98.23 76.89 99.13 79.52
  A 0.37 0.37 0.0 0 0 99.71 79.69
  Q 104.35 76.04 108.01 71.44
  Q 108.92 70.30 109.00 71.76
  Q 109.03 72.43 108.92 73.75
  Q 107.37 92.62 104.72 111.38
  C 103.43 120.50 102.98 129.83 102.02 139.06
  A 0.84 0.84 0.0 0 1 101.43 139.77
  Q 96.20 141.36 91.76 144.53
  A 0.52 0.52 0.0 0 1 90.95 144.23
  L 90.73 143.32
  A 0.43 0.43 0.0 0 0 90.10 143.04
  C 85.61 145.54 83.09 148.10 80.93 153.10
  C 80.53 154.03 77.77 158.81 78.04 159.32
  A 0.28 0.28 0.0 0 0 78.43 159.43
  L 80.03 158.50
  A 0.59 0.59 0.0 0 1 80.90 158.88
  Q 82.15 164.47 78.61 168.62
  A 1.63 1.63 0.0 0 0 78.23 169.61
  L 77.93 180.63
  A 1.41 1.40 -24.5 0 1 77.62 181.45
  C 73.42 186.51 68.46 192.20 69.44 199.27
  A 1.26 1.22 59.6 0 1 69.22 200.17
  Q 66.13 204.39 60.69 205.00
  Q 59.11 201.66 58.71 197.99
  A 1.62 1.56 -36.8 0 1 58.85 197.14
  L 60.68 193.20
  A 1.07 1.06 41.5 0 0 60.61 192.17
  L 57.75 187.67
  A 0.42 0.42 0.0 0 1 58.07 187.03
  L 59.16 186.96
  A 0.76 0.74 6.2 0 0 59.82 186.44
  Q 59.92 186.14 59.74 185.78
  C 57.70 181.57 57.14 177.65 55.69 173.40
  Q 54.80 170.77 54.53 168.02
  A 1.11 1.10 -25.9 0 1 54.84 167.14
  Q 58.00 163.91 58.48 159.35
  A 0.62 0.62 0.0 0 1 59.07 158.80
  L 60.46 158.75
  C 60.31 159.96 58.33 167.40 59.79 168.67
  A 0.63 0.62 46.2 0 0 60.58 168.69
  C 63.39 166.48 69.03 162.30 69.74 157.75
  Q 70.97 149.81 71.81 141.46
  Q 72.03 139.19 69.76 139.08
  L 64.34 138.80
  Q 67.21 131.77 67.75 123.96
  C 79.24 118.90 90.65 108.68 92.46 95.43
  Q 93.33 89.05 93.04 75.25
  C 97.72 72.35 101.24 69.10 104.26 64.51
  Q 106.00 61.87 109.50 61.79
  Z"
/>
<path fill="#e1e1e1" d="
  M 204.21 67.25
  C 201.21 67.96 198.79 71.16 195.04 69.75
  L 195.13 63.75
  A 0.83 0.83 0.0 0 1 195.83 62.94
  L 203.09 61.81
  A 0.73 0.73 0.0 0 1 203.93 62.48
  L 204.21 67.25
  Z"
/>
<path fill="#e1e1e1" d="
  M 172.96 75.50
  Q 169.79 77.56 168.23 81.07
  Q 167.12 83.57 164.41 83.92
  L 159.64 84.53
  Q 158.81 84.64 159.34 85.29
  L 160.34 86.49
  A 0.47 0.47 0.0 0 1 160.11 87.24
  Q 157.63 87.98 155.22 87.27
  A 1.42 1.41 16.1 0 0 153.46 88.24
  Q 152.83 90.49 149.79 90.75
  C 149.34 81.94 152.99 72.65 157.04 64.95
  A 1.38 1.34 -87.2 0 1 157.73 64.31
  C 164.83 61.31 171.26 69.63 172.96 75.50
  Z"
/>
<path fill="#ffffff" d="
  M 204.21 67.25
  C 204.77 79.07 201.46 88.42 195.39 98.84
  Q 195.13 99.28 195.13 98.77
  L 195.04 69.75
  C 198.79 71.16 201.21 67.96 204.21 67.25
  Z"
/>
<path fill="#ffffff" d="
  M 214.29 67.25
  L 215.17 67.29
  A 0.87 0.86 -12.5 0 1 215.90 67.75
  Q 216.88 69.52 218.75 70.29
  C 213.13 79.58 210.01 88.42 208.92 99.21
  A 0.74 0.74 0.0 0 1 208.35 99.86
  L 198.96 101.99
  Q 197.34 102.35 198.38 101.07
  Q 210.26 86.43 214.29 67.25
  Z"
/>
<path fill="#ffffff" d="
  M 184.96 105.00
  Q 183.22 105.12 182.89 104.17
  A 1.37 1.37 0.0 0 0 180.99 103.38
  C 173.75 106.91 169.23 108.11 164.02 115.19
  A 3.42 3.42 0.0 0 1 161.84 116.53
  Q 161.27 116.62 160.75 115.54
  C 173.01 104.56 183.41 95.30 183.85 78.42
  C 183.93 75.28 183.65 69.01 185.24 68.23
  Q 185.72 67.99 185.65 68.52
  C 184.14 80.26 184.99 93.11 184.96 105.00
  Z"
/>
<path fill="#ffffff" d="
  M 224.52 70.32
  L 241.21 74.50
  Q 242.46 75.18 243.84 74.37
  A 0.44 0.44 0.0 0 1 244.44 74.51
  L 245.91 76.82
  L 250.94 78.37
  A 1.39 1.37 82.1 0 1 251.68 78.94
  L 256.16 86.13
  C 252.11 102.77 237.95 107.49 223.32 101.21
  C 213.84 97.14 221.17 76.57 224.52 70.32
  Z"
/>
<path fill="#ffffff" d="
  M 172.96 75.50
  C 175.19 83.50 175.55 102.87 164.42 105.74
  C 155.47 108.05 149.31 99.01 149.79 90.75
  Q 152.83 90.49 153.46 88.24
  A 1.42 1.41 16.1 0 1 155.22 87.27
  Q 157.63 87.98 160.11 87.24
  A 0.47 0.47 0.0 0 0 160.34 86.49
  L 159.34 85.29
  Q 158.81 84.64 159.64 84.53
  L 164.41 83.92
  Q 167.12 83.57 168.23 81.07
  Q 169.79 77.56 172.96 75.50
  Z"
/>
<path fill="#e1e1e1" d="
  M 296.58 85.26
  Q 293.31 86.65 289.81 87.08
  A 0.55 0.54 -8.4 0 1 289.21 86.64
  C 288.55 83.03 289.84 80.77 293.63 80.14
  Q 302.13 78.73 304.73 78.76
  C 314.37 78.89 313.13 89.18 313.17 95.74
  C 313.20 99.55 312.82 102.70 308.75 103.99
  Q 299.02 107.08 288.84 105.77
  A 0.46 0.45 5.6 0 1 288.45 105.30
  L 289.11 95.15
  A 1.03 1.01 73.2 0 1 289.50 94.41
  C 291.37 92.99 297.17 88.71 297.20 85.68
  A 0.45 0.45 0.0 0 0 296.58 85.26
  Z"
/>
<path fill="#e1e1e1" d="
  M 121.97 104.13
  C 117.10 94.26 123.12 84.55 131.32 79.01
  A 0.30 0.30 0.0 0 1 131.78 79.21
  C 132.58 83.96 132.37 107.57 122.67 104.72
  A 1.13 1.13 0.0 0 1 121.97 104.13
  Z"
/>
<path fill="#e1e1e1" d="
  M 138.96 101.00
  L 135.46 101.21
  A 1.18 1.15 -74.3 0 0 134.59 101.71
  Q 133.31 103.58 133.91 105.85
  A 0.84 0.83 -29.5 0 1 133.67 106.69
  Q 124.29 115.49 119.53 127.48
  A 1.74 1.73 -6.1 0 1 118.88 128.28
  C 116.09 130.09 113.20 130.97 114.16 135.23
  C 115.46 141.08 112.41 144.33 112.04 149.75
  L 113.29 116.14
  A 0.69 0.69 0.0 0 1 113.80 115.50
  C 124.51 112.69 133.13 103.79 138.29 94.36
  Q 138.96 93.13 138.96 94.53
  L 138.96 101.00
  Z"
/>
<path fill="#e1e1e1" d="
  M 82.71 95.50
  C 82.93 105.48 83.03 114.67 70.25 115.46
  Q 69.65 111.91 72.66 110.35
  A 1.87 1.86 -14.6 0 0 73.66 108.65
  L 73.56 104.59
  A 1.09 1.07 -14.4 0 1 74.14 103.62
  Q 78.82 101.21 80.77 96.41
  A 1.04 1.01 3.2 0 1 81.48 95.79
  L 82.71 95.50
  Z"
/>
<path fill="#ffffff" d="
  M 266.79 105.00
  Q 268.74 105.41 270.26 106.67
  A 1.46 1.44 64.9 0 0 271.15 107.00
  L 271.96 107.00
  Q 273.02 111.26 275.84 114.28
  Q 277.31 124.15 279.25 133.93
  C 280.11 138.25 277.97 141.73 275.03 144.59
  A 1.60 1.59 74.0 0 0 274.58 145.41
  L 274.25 146.96
  C 269.54 148.95 264.86 153.11 264.99 158.62
  C 265.09 162.81 265.48 167.90 264.18 171.36
  C 263.29 173.69 260.44 175.93 258.82 178.17
  A 0.50 0.50 0.0 0 0 259.16 178.96
  L 259.75 179.04
  C 261.23 185.23 250.15 185.42 246.65 184.48
  Q 244.57 183.93 243.42 185.75
  Q 241.47 188.80 238.04 191.50
  Q 237.51 185.07 238.10 178.65
  C 238.79 171.14 246.25 169.89 250.71 165.70
  Q 253.95 162.66 256.88 159.32
  Q 257.74 158.34 256.44 158.24
  C 254.60 158.11 252.21 158.99 250.91 159.26
  Q 244.71 160.52 238.47 161.59
  A 0.41 0.40 85.2 0 1 238.00 161.19
  L 238.00 157.59
  A 0.54 0.54 0.0 0 0 237.36 157.06
  Q 229.81 158.52 225.50 164.88
  Q 224.80 165.90 224.89 164.67
  L 225.31 158.52
  A 0.99 0.97 -9.1 0 1 225.94 157.67
  C 235.59 153.85 244.85 149.96 255.06 147.73
  Q 256.62 147.39 255.66 148.67
  L 250.97 154.88
  Q 250.29 155.77 251.41 155.75
  C 254.75 155.69 265.50 142.33 266.07 138.95
  A 0.86 0.86 0.0 0 0 265.17 137.95
  C 256.09 138.49 245.54 143.05 237.20 146.63
  Q 230.79 149.39 227.12 155.33
  Q 226.76 155.91 226.28 155.93
  A 0.48 0.47 88.9 0 1 225.78 155.44
  L 226.06 145.29
  A 1.01 1.00 -12.9 0 0 224.59 144.37
  C 220.98 146.26 216.27 150.40 216.05 154.92
  Q 215.70 162.26 215.12 169.38
  A 1.33 1.32 -89.0 0 1 213.87 170.59
  L 203.54 171.14
  A 1.30 1.29 -88.8 0 1 202.19 169.73
  L 204.44 143.67
  A 1.59 1.58 78.9 0 1 205.28 142.41
  Q 213.20 138.23 217.46 130.21
  C 219.19 126.96 218.05 117.47 218.08 113.35
  A 0.47 0.47 0.0 0 1 218.58 112.89
  C 223.06 113.19 228.01 113.97 232.10 113.08
  C 241.20 111.09 249.38 103.27 255.08 96.22
  Q 256.04 95.03 256.01 96.56
  Q 255.86 103.92 256.17 111.95
  C 256.42 118.53 266.13 105.87 266.79 105.00
  Z"
/>
<path fill="#ffffff" d="
  M 138.96 101.00
  C 139.10 107.18 137.30 112.43 145.02 114.72
  Q 154.31 117.46 156.00 117.79
  C 156.02 118.17 156.06 118.34 155.85 118.68
  Q 151.84 125.25 151.84 133.01
  Q 151.83 134.99 148.75 138.21
  Q 129.67 144.99 112.49 155.67
  Q 112.06 155.94 112.06 155.43
  L 112.04 149.75
  C 112.41 144.33 115.46 141.08 114.16 135.23
  C 113.20 130.97 116.09 130.09 118.88 128.28
  A 1.74 1.73 -6.1 0 0 119.53 127.48
  Q 124.29 115.49 133.67 106.69
  A 0.84 0.83 -29.5 0 0 133.91 105.85
  Q 133.31 103.58 134.59 101.71
  A 1.18 1.15 -74.3 0 1 135.46 101.21
  L 138.96 101.00
  Z"
/>
<path fill="#e1e1e1" d="
  M 184.96 105.00
  L 184.86 109.21
  A 1.09 1.09 0.0 0 1 184.45 110.04
  C 181.29 112.60 172.97 119.15 172.11 122.96
  Q 171.57 125.36 173.64 124.03
  C 180.95 119.31 186.95 111.98 196.00 110.51
  Q 199.20 115.54 203.72 119.28
  Q 205.46 120.72 207.48 127.01
  C 199.87 130.11 195.58 135.59 198.87 144.02
  A 0.74 0.74 0.0 0 1 198.68 144.83
  C 195.89 147.36 194.25 149.82 194.04 153.85
  Q 193.59 162.39 193.00 168.28
  Q 192.43 173.86 191.49 168.22
  Q 189.91 158.77 180.06 160.04
  Q 177.68 160.35 178.94 158.31
  C 182.29 152.89 183.96 145.65 182.45 138.77
  Q 182.09 137.10 180.39 136.86
  C 176.04 136.27 169.61 139.61 165.73 141.52
  C 158.44 145.12 153.34 147.90 149.24 154.12
  A 0.68 0.68 0.0 0 0 149.32 154.96
  L 149.51 155.15
  A 0.33 0.32 -35.9 0 0 149.90 155.21
  L 155.44 152.18
  Q 156.22 151.75 155.71 152.48
  L 152.46 157.22
  A 1.82 1.79 -27.7 0 0 152.14 158.21
  L 151.74 173.59
  C 148.29 173.34 147.26 168.26 147.03 165.77
  A 1.35 1.34 20.4 0 0 146.64 164.93
  C 144.56 162.88 144.93 157.95 144.82 155.08
  C 144.75 152.95 145.87 151.18 146.24 149.05
  A 0.71 0.71 0.0 0 0 145.85 148.29
  Q 145.60 148.16 145.25 148.21
  L 153.03 139.16
  Q 154.07 137.96 152.49 138.03
  L 148.75 138.21
  Q 151.83 134.99 151.84 133.01
  Q 151.84 125.25 155.85 118.68
  C 156.06 118.34 156.02 118.17 156.00 117.79
  Q 158.66 117.25 160.75 115.54
  Q 161.27 116.62 161.84 116.53
  A 3.42 3.42 0.0 0 0 164.02 115.19
  C 169.23 108.11 173.75 106.91 180.99 103.38
  A 1.37 1.37 0.0 0 1 182.89 104.17
  Q 183.22 105.12 184.96 105.00
  Z"
/>
<path fill="#e1e1e1" d="
  M 324.50 111.79
  Q 325.77 115.18 328.65 117.48
  A 0.89 0.88 22.9 0 1 328.98 118.28
  C 328.49 122.54 326.78 126.03 327.87 130.70
  Q 328.71 134.27 328.83 136.55
  Q 328.98 139.31 329.23 142.06
  Q 329.28 142.58 329.16 143.08
  L 328.49 145.88
  A 0.73 0.73 0.0 0 0 328.80 146.66
  C 330.34 147.64 330.32 148.85 329.06 150.13
  Q 326.20 153.03 324.01 156.44
  C 322.13 159.38 322.61 162.48 319.37 164.97
  C 317.47 166.44 316.91 167.81 318.54 169.75
  L 312.32 177.82
  Q 312.00 178.23 312.00 177.71
  L 312.00 151.26
  A 0.38 0.37 -10.3 0 0 311.49 150.91
  C 306.07 152.92 302.05 157.11 301.98 163.12
  Q 301.82 175.82 301.44 188.58
  A 1.03 1.02 -15.2 0 1 300.96 189.41
  Q 296.62 192.13 294.22 196.74
  A 1.09 0.97 -65.4 0 0 294.67 198.20
  C 295.66 198.59 300.93 194.36 301.85 193.68
  A 0.41 0.41 0.0 0 1 302.38 193.71
  L 305.54 196.75
  L 304.13 200.07
  Q 303.92 200.54 303.51 200.86
  L 299.39 204.02
  A 0.71 0.71 0.0 0 0 299.15 204.81
  L 300.76 209.72
  Q 300.99 210.42 300.28 210.25
  L 299.08 209.98
  A 0.70 0.69 15.5 0 0 298.27 210.43
  L 297.69 212.10
  A 1.23 1.21 89.6 0 1 296.98 212.83
  C 295.87 213.26 292.15 213.86 291.57 214.31
  A 0.44 0.44 0.0 0 0 291.53 214.96
  L 292.60 216.03
  A 0.69 0.68 43.4 0 1 292.63 216.97
  Q 289.60 220.35 285.51 222.14
  Q 284.26 222.69 283.87 223.31
  Q 283.43 224.03 283.43 224.92
  Q 283.46 227.41 281.10 228.19
  Q 275.43 230.07 271.52 234.50
  A 1.19 1.19 0.0 0 1 270.07 234.76
  Q 264.09 231.61 257.57 233.48
  A 0.69 0.67 84.1 0 0 257.08 234.10
  L 256.97 236.58
  A 0.80 0.79 80.6 0 1 256.48 237.27
  C 254.35 238.10 252.28 237.93 250.30 238.99
  C 247.70 240.37 241.77 244.47 240.08 239.54
  A 1.19 1.19 0.0 0 0 238.30 238.93
  C 235.65 240.66 230.99 244.54 228.46 240.13
  A 1.69 1.69 0.0 0 0 227.76 239.46
  Q 223.59 237.32 218.97 237.22
  C 214.52 237.13 212.87 234.81 209.02 234.16
  Q 202.02 232.98 196.14 229.03
  A 1.69 1.66 -27.7 0 0 195.21 228.75
  L 191.79 228.75
  A 1.68 1.62 -27.5 0 1 190.88 228.48
  L 187.78 226.46
  A 1.69 1.67 -84.7 0 1 187.13 225.67
  L 185.71 222.12
  A 0.56 0.55 63.1 0 0 184.90 221.85
  L 183.47 222.75
  A 0.57 0.56 56.0 0 1 182.72 222.60
  Q 178.58 217.01 171.99 214.83
  C 170.40 214.30 169.85 213.25 169.75 211.71
  Q 176.98 209.26 182.64 204.05
  A 0.39 0.39 0.0 0 1 183.25 204.14
  C 187.51 211.64 196.98 204.29 199.34 199.27
  C 201.43 194.83 200.67 186.86 201.19 181.56
  A 0.67 0.67 0.0 0 1 201.74 180.97
  L 213.46 178.97
  A 0.45 0.45 0.0 0 1 213.99 179.46
  C 212.77 190.79 211.52 198.15 212.13 205.39
  A 0.33 0.33 0.0 0 0 212.62 205.66
  C 217.32 203.24 221.56 199.19 221.87 193.64
  Q 222.47 182.79 223.81 174.32
  Q 224.35 170.92 227.49 169.24
  A 0.32 0.31 75.7 0 1 227.95 169.52
  C 228.09 175.02 228.86 182.07 226.95 187.26
  Q 224.91 192.83 223.13 198.26
  Q 222.41 200.48 224.34 201.78
  C 235.36 209.18 248.92 210.33 256.82 197.65
  A 0.30 0.30 0.0 0 0 256.59 197.19
  C 251.14 196.87 244.65 197.75 238.65 194.40
  A 0.95 0.94 -77.6 0 1 238.16 193.62
  L 238.04 191.50
  Q 241.47 188.80 243.42 185.75
  Q 244.57 183.93 246.65 184.48
  C 250.15 185.42 261.23 185.23 259.75 179.04
  L 263.14 179.03
  A 0.42 0.42 0.0 0 1 263.57 179.49
  L 261.72 200.47
  Q 261.40 204.15 264.00 201.52
  L 271.41 194.03
  A 1.42 1.41 -20.4 0 0 271.82 193.14
  L 273.08 178.02
  A 0.83 0.83 0.0 0 1 273.67 177.30
  Q 278.42 175.93 282.81 173.57
  Q 284.18 172.83 284.13 174.39
  C 283.97 179.20 283.06 195.74 285.44 198.06
  Q 286.88 199.46 288.30 198.04
  L 295.77 190.56
  A 1.11 1.10 46.8 0 0 295.81 189.05
  C 292.61 185.46 293.73 169.41 294.14 164.48
  A 1.57 1.55 67.7 0 1 294.50 163.60
  C 299.41 157.61 302.40 147.07 296.87 140.34
  Q 295.16 138.25 292.74 139.44
  C 280.93 145.21 284.50 154.81 283.89 165.88
  A 1.83 1.83 0.0 0 1 282.44 167.57
  L 275.28 169.06
  A 1.09 1.09 0.0 0 1 273.98 167.88
  C 274.27 165.14 276.02 148.31 274.25 146.96
  L 274.58 145.41
  A 1.60 1.59 74.0 0 1 275.03 144.59
  C 277.97 141.73 280.11 138.25 279.25 133.93
  Q 277.31 124.15 275.84 114.28
  C 284.45 118.36 296.64 115.89 304.72 111.75
  Q 307.21 110.47 314.05 104.62
  A 0.38 0.37 57.2 0 1 314.63 104.75
  Q 317.50 110.91 324.50 111.79
  Z"
/>
<path fill="#ffffff" d="
  M 207.48 127.01
  Q 205.46 120.72 203.72 119.28
  Q 199.20 115.54 196.00 110.51
  Q 203.56 107.87 206.27 115.71
  Q 208.51 122.19 207.48 127.01
  Z"
/>
<path fill="#ffffff" d="
  M 0.00 129.19
  Q 1.11 141.61 0.66 154.04
  C 0.28 164.70 0.45 173.98 0.00 183.94
  L 0.00 129.19
  Z"
/>
<path fill="#040404" d="
  M 305.54 196.75
  L 302.38 193.71
  A 0.41 0.41 0.0 0 0 301.85 193.68
  C 300.93 194.36 295.66 198.59 294.67 198.20
  A 1.09 0.97 -65.4 0 1 294.22 196.74
  Q 296.62 192.13 300.96 189.41
  A 1.03 1.02 -15.2 0 0 301.44 188.58
  Q 301.82 175.82 301.98 163.12
  C 302.05 157.11 306.07 152.92 311.49 150.91
  A 0.38 0.37 -10.3 0 1 312.00 151.26
  L 312.00 177.71
  Q 312.00 178.23 312.32 177.82
  L 318.54 169.75
  L 330.69 153.63
  A 1.55 1.55 0.0 0 0 331.00 152.73
  C 331.16 146.46 334.61 143.04 339.93 140.23
  A 0.74 0.73 -22.0 0 1 340.98 140.67
  Q 341.18 141.37 340.79 142.11
  Q 339.19 145.23 342.15 142.43
  Q 344.82 139.90 345.88 140.39
  A 0.48 0.47 34.1 0 1 346.03 141.15
  L 342.07 145.39
  A 3.98 3.98 0.0 0 0 341.01 147.99
  Q 340.65 160.90 341.09 174.03
  C 341.31 180.40 342.53 185.02 345.55 190.17
  A 0.47 0.47 0.0 0 0 346.29 190.27
  L 368.23 168.41
  Q 369.50 167.14 367.70 167.07
  L 358.87 166.74
  Q 356.36 166.65 355.95 164.18
  C 355.13 159.35 360.70 153.97 364.25 151.97
  Q 366.55 150.67 365.99 153.26
  Q 365.36 156.12 367.74 157.11
  A 0.60 0.60 0.0 0 0 368.56 156.62
  C 368.88 153.39 368.08 149.00 369.58 146.23
  Q 372.38 141.05 377.59 138.77
  A 0.81 0.81 0.0 0 1 378.73 139.51
  L 378.76 156.17
  A 0.83 0.83 0.0 0 0 379.75 156.99
  Q 380.94 156.76 381.81 157.50
  A 0.62 0.62 0.0 0 1 381.93 158.33
  C 380.32 160.68 378.83 162.44 378.73 165.46
  C 378.42 175.03 377.98 182.21 383.90 188.58
  A 0.58 0.58 0.0 0 1 383.91 189.36
  Q 379.70 194.08 374.80 198.04
  A 0.61 0.60 49.5 0 1 373.96 197.97
  C 367.19 190.34 369.04 181.84 368.52 172.58
  Q 368.49 171.91 368.01 172.39
  L 348.71 191.70
  A 1.73 1.72 50.4 0 0 348.51 193.90
  Q 351.82 198.65 356.47 195.58
  A 0.45 0.44 -32.8 0 1 357.09 195.71
  C 357.89 196.94 351.68 202.81 350.06 204.31
  C 345.47 208.57 341.37 206.79 337.59 202.81
  A 0.52 0.52 0.0 0 0 336.87 202.77
  C 316.39 220.10 297.37 232.93 276.41 247.32
  Q 274.57 248.59 275.12 246.41
  C 275.98 243.06 285.95 236.25 289.06 234.20
  Q 312.48 218.79 334.78 200.93
  A 1.55 1.54 -34.1 0 0 335.16 198.97
  C 329.19 188.46 330.96 173.14 331.00 160.95
  Q 331.00 159.29 329.97 160.60
  L 312.94 182.33
  Q 311.57 184.08 313.47 185.22
  L 318.54 188.28
  A 0.48 0.48 0.0 0 1 318.70 188.94
  Q 315.35 194.36 309.83 197.55
  A 1.35 1.34 -51.7 0 1 308.78 197.68
  L 305.54 196.75
  Z"
/>
<path fill="#040404" d="
  M 259.75 179.04
  L 259.16 178.96
  A 0.50 0.50 0.0 0 1 258.82 178.17
  C 260.44 175.93 263.29 173.69 264.18 171.36
  C 265.48 167.90 265.09 162.81 264.99 158.62
  C 264.86 153.11 269.54 148.95 274.25 146.96
  C 276.02 148.31 274.27 165.14 273.98 167.88
  A 1.09 1.09 0.0 0 0 275.28 169.06
  L 282.44 167.57
  A 1.83 1.83 0.0 0 0 283.89 165.88
  C 284.50 154.81 280.93 145.21 292.74 139.44
  Q 295.16 138.25 296.87 140.34
  C 302.40 147.07 299.41 157.61 294.50 163.60
  A 1.57 1.55 67.7 0 0 294.14 164.48
  C 293.73 169.41 292.61 185.46 295.81 189.05
  A 1.11 1.10 46.8 0 1 295.77 190.56
  L 288.30 198.04
  Q 286.88 199.46 285.44 198.06
  C 283.06 195.74 283.97 179.20 284.13 174.39
  Q 284.18 172.83 282.81 173.57
  Q 278.42 175.93 273.67 177.30
  A 0.83 0.83 0.0 0 0 273.08 178.02
  L 271.82 193.14
  A 1.42 1.41 -20.4 0 1 271.41 194.03
  L 264.00 201.52
  Q 261.40 204.15 261.72 200.47
  L 263.57 179.49
  A 0.42 0.42 0.0 0 0 263.14 179.03
  L 259.75 179.04
  Z"
/>
<path fill="#e1e1e1" d="
  M 170.86 161.48
  Q 166.43 163.07 162.64 165.86
  Q 162.00 166.34 162.00 165.54
  L 162.00 150.20
  A 0.99 0.98 -16.2 0 1 162.46 149.37
  Q 166.07 147.04 170.43 146.96
  Q 172.44 146.93 172.75 148.92
  Q 173.70 154.95 171.67 160.67
  A 1.32 1.32 0.0 0 1 170.86 161.48
  Z"
/>
<path fill="#ffffff" d="
  M 108.24 190.41
  Q 106.31 192.69 107.31 189.87
  Q 109.53 183.59 110.23 176.20
  Q 110.34 175.10 110.85 174.06
  C 112.52 170.66 112.11 166.28 111.95 162.43
  A 1.96 1.96 0.0 0 1 112.95 160.64
  Q 126.19 153.21 140.48 148.07
  Q 141.30 147.78 140.75 148.45
  Q 127.37 164.80 118.12 183.81
  A 1.11 1.09 -85.3 0 1 117.45 184.39
  Q 111.94 186.03 108.24 190.41
  Z"
/>
<path fill="#ffffff" d="
  M 145.25 148.21
  Q 145.60 148.16 145.85 148.29
  A 0.71 0.71 0.0 0 1 146.24 149.05
  C 145.87 151.18 144.75 152.95 144.82 155.08
  C 144.93 157.95 144.56 162.88 146.64 164.93
  A 1.35 1.34 20.4 0 1 147.03 165.77
  C 147.26 168.26 148.29 173.34 151.74 173.59
  Q 147.92 175.82 145.13 176.49
  A 1.56 1.55 -7.9 0 1 143.22 175.05
  Q 142.75 163.62 142.83 154.18
  Q 142.86 150.27 145.25 148.21
  Z"
/>
<path fill="#ffffff" d="
  M 60.46 158.75
  L 59.07 158.80
  A 0.62 0.62 0.0 0 0 58.48 159.35
  Q 58.00 163.91 54.84 167.14
  A 1.11 1.10 -25.9 0 0 54.53 168.02
  Q 54.80 170.77 55.69 173.40
  C 57.14 177.65 57.70 181.57 59.74 185.78
  Q 59.92 186.14 59.82 186.44
  A 0.76 0.74 6.2 0 1 59.16 186.96
  L 58.07 187.03
  A 0.42 0.42 0.0 0 0 57.75 187.67
  L 60.61 192.17
  A 1.07 1.06 41.5 0 1 60.68 193.20
  L 58.85 197.14
  A 1.62 1.56 -36.8 0 0 58.71 197.99
  Q 59.11 201.66 60.69 205.00
  C 54.87 204.82 48.06 202.99 47.71 196.07
  Q 46.55 172.95 55.53 151.82
  C 56.54 149.45 58.22 148.25 60.70 149.19
  A 0.69 0.69 0.0 0 1 61.15 149.89
  L 60.46 158.75
  Z"
/>
<path fill="#e1e1e1" d="
  M 96.62 148.99
  Q 98.57 149.18 99.00 151.09
  Q 100.28 156.90 100.19 162.87
  A 1.16 1.16 0.0 0 1 99.71 163.79
  L 90.60 170.36
  Q 89.89 170.87 90.01 170.00
  Q 91.28 160.55 90.97 151.03
  A 0.97 0.95 -17.9 0 1 91.41 150.19
  Q 93.78 148.71 96.62 148.99
  Z"
/>
<path fill="#ffffff" d="
  M 124.91 181.52
  C 125.67 180.01 132.00 167.41 132.52 167.24
  A 0.37 0.37 0.0 0 1 133.01 167.59
  L 132.97 178.88
  A 2.05 2.04 -5.6 0 1 131.33 180.87
  L 125.33 182.07
  Q 124.55 182.23 124.91 181.52
  Z"
/>
<path fill="#e1e1e1" d="
  M 94.83 199.75
  C 93.32 199.86 89.97 199.52 88.40 198.91
  A 0.69 0.68 13.7 0 1 87.97 198.21
  Q 89.19 183.05 89.29 180.00
  C 89.51 173.53 95.32 170.93 100.11 168.28
  A 0.59 0.58 -15.5 0 1 100.98 168.76
  Q 101.44 183.29 97.76 197.31
  Q 97.17 199.58 94.83 199.75
  Z"
/>
<path fill="#e1e1e1" d="
  M 173.29 169.94
  Q 174.26 170.00 173.54 170.65
  L 162.62 180.68
  A 0.23 0.23 0.0 0 1 162.25 180.61
  C 160.45 176.84 169.93 169.71 173.29 169.94
  Z"
/>
<path fill="#e1e1e1" d="
  M 176.52 170.15
  Q 181.59 174.29 182.41 180.55
  Q 182.67 182.55 181.72 186.02
  C 180.34 191.02 181.46 195.45 181.71 200.21
  A 0.62 0.61 -9.2 0 1 181.25 200.84
  C 175.13 202.46 167.70 204.21 162.59 200.26
  A 1.22 1.21 -75.5 0 1 162.13 199.47
  Q 161.25 192.75 162.15 186.03
  A 1.59 1.58 -20.8 0 1 162.54 185.17
  C 166.26 180.93 173.83 175.39 175.73 170.37
  A 0.51 0.50 -60.2 0 1 176.52 170.15
  Z"
/>
<path fill="#ffffff" d="
  M 446.00 192.31
  L 446.00 273.00
  L 420.44 273.00
  L 424.63 258.69
  A 1.60 1.58 -47.7 0 0 424.59 257.65
  L 423.76 255.52
  A 0.99 0.97 55.2 0 1 423.93 254.53
  Q 428.41 249.29 429.27 242.48
  A 1.63 1.60 69.0 0 1 429.63 241.65
  C 431.23 239.73 433.47 238.23 434.82 236.43
  C 439.27 230.48 444.28 221.66 442.19 213.72
  A 0.95 0.95 0.0 0 1 442.38 212.86
  C 444.30 210.61 445.80 208.95 445.69 205.74
  Q 445.45 199.00 446.00 192.31
  Z"
/>
<path fill="#e1e1e1" d="
  M 110.44 205.25
  Q 109.47 206.60 110.42 208.07
  Q 115.95 216.62 116.77 225.21
  C 117.01 227.76 118.17 230.00 119.58 231.82
  Q 121.06 233.72 121.03 236.12
  C 120.96 241.36 125.15 242.07 128.73 244.58
  A 1.74 1.71 6.8 0 1 129.33 245.33
  C 130.47 248.08 130.81 250.31 132.91 252.67
  C 135.47 255.55 136.27 258.77 138.46 261.84
  Q 140.15 264.20 141.16 266.94
  A 1.26 1.23 -87.1 0 0 141.77 267.63
  Q 144.36 268.97 146.92 270.18
  C 148.24 270.80 150.48 270.76 151.80 272.22
  Q 152.15 272.60 151.64 272.62
  L 143.94 273.00
  L 94.44 273.00
  Q 89.59 272.88 84.84 271.59
  A 0.88 0.86 89.8 0 1 84.23 270.97
  C 83.60 268.63 83.46 266.41 81.50 264.84
  Q 79.93 263.57 77.86 262.77
  C 83.18 258.20 83.76 256.10 84.21 249.17
  Q 85.46 229.64 87.07 210.14
  A 0.74 0.74 0.0 0 1 87.59 209.49
  Q 88.83 209.09 90.05 208.94
  C 95.62 208.23 102.33 200.37 104.96 195.77
  A 1.31 1.30 -82.4 0 1 105.75 195.16
  L 112.71 193.28
  Q 113.37 193.10 113.03 193.69
  Q 109.95 199.06 110.44 205.25
  Z"
/>
<path fill="#e1e1e1" d="
  M 74.96 244.00
  Q 74.70 243.43 74.69 242.77
  A 0.72 0.71 11.0 0 0 74.24 242.11
  Q 72.63 241.48 72.30 240.43
  Q 70.86 235.83 67.04 232.97
  A 1.63 1.63 0.0 0 1 66.45 232.11
  Q 64.57 225.46 61.21 219.44
  A 0.74 0.73 -33.7 0 1 61.40 218.50
  L 62.50 217.67
  A 1.09 1.08 70.3 0 0 62.92 216.77
  L 62.71 210.25
  L 70.55 203.12
  A 0.58 0.57 43.3 0 1 71.29 203.10
  L 77.37 208.03
  A 0.79 0.79 0.0 0 1 77.66 208.70
  L 74.96 244.00
  Z"
/>
</svg>
