<?xml version="1.0" encoding="UTF-8" standalone="no"?>
<!-- Created with Inkscape (http://www.inkscape.org/) -->

<svg
   xmlns:dc="http://purl.org/dc/elements/1.1/"
   xmlns:cc="http://creativecommons.org/ns#"
   xmlns:rdf="http://www.w3.org/1999/02/22-rdf-syntax-ns#"
   xmlns:svg="http://www.w3.org/2000/svg"
   xmlns="http://www.w3.org/2000/svg"
   xmlns:sodipodi="http://sodipodi.sourceforge.net/DTD/sodipodi-0.dtd"
   xmlns:inkscape="http://www.inkscape.org/namespaces/inkscape"
   width="400"
   height="600"
   viewBox="0 0 105.83333 158.75"
   version="1.1"
   id="svg8"
   inkscape:version="0.92.4 (5da689c313, 2019-01-14)"
   sodipodi:docname="28_m.svg">
  <defs
     id="defs2" />
  <sodipodi:namedview
     id="base"
     pagecolor="#ffffff"
     bordercolor="#666666"
     borderopacity="1.0"
     inkscape:pageopacity="0.0"
     inkscape:pageshadow="2"
     inkscape:zoom="1.2816667"
     inkscape:cx="241.96523"
     inkscape:cy="347.3477"
     inkscape:document-units="mm"
     inkscape:current-layer="layer1"
     showgrid="false"
     units="px"
     showguides="true"
     inkscape:guide-bbox="true"
     inkscape:window-width="1280"
     inkscape:window-height="968"
     inkscape:window-x="0"
     inkscape:window-y="0"
     inkscape:window-maximized="1">
    <sodipodi:guide
       position="20.78869,60.476191"
       orientation="1,0"
       id="guide859"
       inkscape:locked="false" />
    <sodipodi:guide
       position="20.78869,128.88988"
       orientation="1,0"
       id="guide863"
       inkscape:locked="false" />
    <sodipodi:guide
       position="12.85119,57.641369"
       orientation="1,0"
       id="guide865"
       inkscape:locked="false" />
    <sodipodi:guide
       position="32.339612,108.51143"
       orientation="0,1"
       id="guide867"
       inkscape:locked="false" />
    <sodipodi:guide
       position="-9.0871638,97.553376"
       orientation="0,1"
       id="guide2596"
       inkscape:locked="false" />
    <sodipodi:guide
       position="-16.036171,64.144687"
       orientation="0,1"
       id="guide2598"
       inkscape:locked="false" />
  </sodipodi:namedview>
  <metadata
     id="metadata5">
    <rdf:RDF>
      <cc:Work
         rdf:about="">
        <dc:format>image/svg+xml</dc:format>
        <dc:type
           rdf:resource="http://purl.org/dc/dcmitype/StillImage" />
        <dc:title></dc:title>
      </cc:Work>
    </rdf:RDF>
  </metadata>
  <g
     inkscape:label="Layer 1"
     inkscape:groupmode="layer"
     id="layer1"
     transform="translate(0,-138.24998)">
    <rect
       style="opacity:1;fill:#ffffff;fill-opacity:0.60101007;stroke:#000000;stroke-width:0.27790931;stroke-miterlimit:4;stroke-dasharray:none;stroke-dashoffset:0;stroke-opacity:1"
       id="rect10"
       width="105.4538"
       height="158.75175"
       x="0.17799145"
       y="138.24911"
       ry="7.9375877" />
    <flowRoot
       xml:space="preserve"
       id="flowRoot851"
       style="fill:black;fill-opacity:1;stroke:none;font-family:sans-serif;font-style:normal;font-weight:normal;font-size:40px;line-height:0;letter-spacing:0px;word-spacing:0px"><flowRegion
         id="flowRegion853"><rect
           id="rect855"
           width="114.28571"
           height="65.714287"
           x="47.142857"
           y="194.28572" /></flowRegion><flowPara
         id="flowPara857" /></flowRoot>    <text
       xml:space="preserve"
       style="font-style:normal;font-weight:normal;font-size:33.90801239px;line-height:0;font-family:sans-serif;letter-spacing:0px;word-spacing:0px;fill:#666666;fill-opacity:1;stroke:none;stroke-width:0.84770024"
       x="19.838701"
       y="174.63515"
       id="text827"><tspan
         sodipodi:role="line"
         id="tspan825"
         x="19.838701"
         y="174.63515"
         style="font-style:normal;font-variant:normal;font-weight:bold;font-stretch:normal;font-family:Arsenal;-inkscape-font-specification:'Arsenal Bold';fill:#666666;stroke-width:0.84770024">28</tspan></text>
    <g
       id="g33037"
       transform="matrix(0.20627422,0,0,0.20627422,11.08594,178.48823)">
      <g
         id="g32802"
         style="fill:none;stroke-width:2;stroke-linecap:butt">
        <path
           id="path32630"
           d="M 5.06,0 Q 3.07,0.07 1.36,0.95 A 1.06,1.03 -9.1 0 0 0.81,1.69 L 0,6.19"
           inkscape:connector-curvature="0"
           style="vector-effect:non-scaling-stroke;stroke:#f0f0f0" />
        <path
           id="path32632"
           d="m 60.06,0 0.83,0.4 a 0.66,0.65 20.7 0 1 0.35,0.76 C 60,6.02 57.51,9.01 57.02,14.74 a 1.11,1.1 -15.7 0 1 -0.46,0.81 c -1.48,1.06 -3.55,1.33 -4.83,2.23 q -6.55,4.58 -5.01,13.26 a 1.28,1.27 -17.2 0 1 -0.73,1.38 c -5.08,2.3 -8.13,3.25 -6.86,9.88 a 1.56,1.55 71 0 1 -0.8,1.66 l -5.04,2.64 q -1.44,0.76 -1.74,2.36 -0.97,5.28 -0.35,10.62 a 0.76,0.76 0 0 1 -0.44,0.79 l -3.79,1.71 a 3.07,3.07 0 0 0 -1.75,2.26 q -0.75,4.37 0.54,8.56 a 0.59,0.59 0 0 1 -0.35,0.73 c -6.22,2.5 -8.6,9.48 -7.84,15.66 0.28,2.31 -0.27,3.68 -0.95,5.74 a 1.87,1.81 -12 0 1 -0.56,0.83 q -2.52,2.14 -4.05,5.06 a 1.35,1.33 50 0 0 -0.08,1.02 l 1.14,3.36 a 1.23,1.22 -40.6 0 1 -0.08,0.97 l -1.24,2.27 a 0.97,0.96 42.8 0 0 0.04,0.98 c 1.03,1.57 1.28,2.92 0.45,4.78 -1.52,3.38 -1.19,6.91 -2.74,10.03 -1.95,3.92 -3.63,8.33 -3.91,12.74 -0.22,3.48 -3.28,5.95 0.58,8.81 a 0.9,0.88 -70.5 0 1 0.35,0.75 q -0.08,1.39 -1.32,2.16 a 0.69,0.69 0 0 0 -0.3,0.76 q 0.93,3.46 -0.85,6.53 a 1,0.99 -46.4 0 0 0.02,1.04 l 3.75,5.89 A 1.27,1.27 0 0 1 8,163.9 q -0.31,1.85 -1.76,3.16 -1.59,1.43 -0.85,3.43 0.59,1.62 2.22,2.41 a 1.06,1.05 35.9 0 1 0.28,1.7 c -4.86,4.76 -0.49,7.72 -1.65,12.97 a 3.17,3.17 0 0 0 0.67,2.73 c 3.47,4.11 1.09,8.18 1.1,12.91 a 1.24,1.23 23 0 0 0.35,0.86 c 3.05,3.13 2.54,7.97 2.95,12.07 0.66,6.39 3.31,12.28 5.42,18.35 1.79,5.15 6.61,7.99 8.67,12.77 q 1.23,2.85 1.78,5.96 a 1.45,1.42 -75 0 0 0.47,0.83 q 4.82,4.06 6.24,10.07 c 0.79,3.31 2.36,4.81 4.12,7.45 a 0.64,0.64 0 0 1 -0.44,0.99 L 34.69,273"
           inkscape:connector-curvature="0"
           style="vector-effect:non-scaling-stroke;stroke:#f0f0f0" />
        <path
           id="path32634"
           d="m 0,183.94 c 0.45,-9.96 0.28,-19.24 0.66,-29.9 Q 1.11,141.61 0,129.19"
           inkscape:connector-curvature="0"
           style="vector-effect:non-scaling-stroke;stroke:#f0f0f0" />
        <path
           id="path32636"
           d="m 364.31,0 -9.82,0.72 q -0.48,0.04 -0.09,0.32 4.31,3.1 9.01,5.66 c 4.56,2.49 2.56,6.17 4.74,9.65 1.52,2.42 3.95,3.92 5.4,6.19 q 3.87,6.08 8.49,12.58 1.19,1.67 -0.04,3.31 l -1.05,1.41 a 0.84,0.82 46.8 0 0 -0.02,0.97 c 3.3,4.79 6.35,10.54 10.96,20.21 q 1.01,2.12 1.82,5.76 1.66,7.39 6.85,13.07 c 0.95,1.04 0.95,1.89 -0.17,2.73 a 1.54,1.52 -10.9 0 0 -0.55,0.8 l -1.5,5.24 q -0.14,0.47 -0.02,0.95 c 1.39,5.79 2.62,11 7.31,12.93 a 0.9,0.9 0 0 1 0.3,1.45 q -4.04,4.2 -0.04,8.46 a 0.76,0.75 37.6 0 1 0.12,0.88 l -1.91,3.49 a 2.58,2.58 0 0 0 -0.11,2.21 q 1.18,2.79 1.94,4.75 c 1.85,4.77 -1.03,10.14 4.19,12.99 a 0.56,0.55 -59.7 0 1 0.2,0.78 q -2.51,4 -3.35,8.65 a 1.78,1.72 40.2 0 0 0.1,1 q 2.16,5.48 -2.72,8.9 a 1.04,1.02 73.8 0 0 -0.43,0.8 c -0.23,11.8 -1.44,26.87 -7.09,37.46 -1.67,3.14 -2.21,9.85 -5.5,15.55 -0.85,1.47 -0.67,3.16 -1.27,4.85 a 1.49,1.45 -6.9 0 1 -0.63,0.78 q -2.54,1.5 -4.08,3.97 a 1.55,1.55 0 0 0 -0.23,1 c 0.55,5.36 -1.73,7.54 -4.14,11.75 q -4.31,7.51 -10.19,13.86 a 1.66,1.6 -20.9 0 0 -0.4,0.85 l -0.4,2.94 a 1.55,1.52 -20.3 0 1 -0.41,0.87 l -4.81,5.08 a 2.39,2.39 0 0 0 -0.48,2.53 l 0.99,2.46 a 0.74,0.74 0 0 1 -0.34,0.92 q -6.97,3.62 -10.75,10.45 a 0.32,0.32 0 0 0 0.27,0.48 l 15.98,0.34"
           inkscape:connector-curvature="0"
           style="vector-effect:non-scaling-stroke;stroke:#f0f0f0" />
        <path
           id="path32638"
           d="m 143.94,273 7.7,-0.38 q 0.51,-0.02 0.16,-0.4 c -1.32,-1.46 -3.56,-1.42 -4.88,-2.04 q -2.56,-1.21 -5.15,-2.55 a 1.26,1.23 -87.1 0 1 -0.61,-0.69 q -1.01,-2.74 -2.7,-5.1 c -2.19,-3.07 -2.99,-6.29 -5.55,-9.17 -2.1,-2.36 -2.44,-4.59 -3.58,-7.34 a 1.74,1.71 6.8 0 0 -0.6,-0.75 c -3.58,-2.51 -7.77,-3.22 -7.7,-8.46 q 0.03,-2.4 -1.45,-4.3 c -1.41,-1.82 -2.57,-4.06 -2.81,-6.61 q -0.82,-8.59 -6.35,-17.14 -0.95,-1.47 0.02,-2.82"
           inkscape:connector-curvature="0"
           style="vector-effect:non-scaling-stroke;stroke:#f0f0f0" />
        <path
           id="path32640"
           d="m 110.44,205.25 q 6.35,2.01 11.09,-2.52 c 3.05,-2.9 10.38,-9.59 10.44,-11.18 A 0.53,0.53 0 0 0 131.46,191 c -0.54,-0.02 -6.65,4.65 -7.92,5.31 q -2.62,1.34 -3.26,-1.53 -0.3,-1.37 0.28,-2.51 c 1.13,-2.21 10.41,-4.14 12.96,-4.77 a 0.35,0.34 82.6 0 1 0.42,0.33 c 0.05,6.91 2.17,13.96 1.61,20.65 a 0.58,0.56 9.1 0 0 0.45,0.61 c 2.84,0.64 8.37,-5.69 9.94,-7.58 q 1.35,-1.62 0.78,-3.64 -1.93,-6.81 -2.78,-13.85 a 0.75,0.75 0 0 1 0.27,-0.67 l 7.44,-6.09 q 0.34,-0.27 0.34,0.16 l 0.01,14.05 a 1.52,1.51 -28.8 0 1 -0.26,0.88 c -6.44,9.58 -3.08,19.37 8.76,20.16 q 2.54,0.17 9.25,-0.8"
           inkscape:connector-curvature="0"
           style="vector-effect:non-scaling-stroke;stroke:#828282" />
        <path
           id="path32642"
           d="m 169.75,211.71 c 0.1,1.54 0.65,2.59 2.24,3.12 q 6.59,2.18 10.73,7.77 a 0.57,0.56 56 0 0 0.75,0.15 l 1.43,-0.9 a 0.56,0.55 63.1 0 1 0.81,0.27 l 1.42,3.55 a 1.69,1.67 -84.7 0 0 0.65,0.79 l 3.1,2.02 a 1.68,1.62 -27.5 0 0 0.91,0.27 h 3.42 a 1.69,1.66 -27.7 0 1 0.93,0.28 q 5.88,3.95 12.88,5.13 c 3.85,0.65 5.5,2.97 9.95,3.06 q 4.62,0.1 8.79,2.24 a 1.69,1.69 0 0 1 0.7,0.67 c 2.53,4.41 7.19,0.53 9.84,-1.2 a 1.19,1.19 0 0 1 1.78,0.61 c 1.69,4.93 7.62,0.83 10.22,-0.55 1.98,-1.06 4.05,-0.89 6.18,-1.72 a 0.8,0.79 80.6 0 0 0.49,-0.69 l 0.11,-2.48 a 0.69,0.67 84.1 0 1 0.49,-0.62 q 6.52,-1.87 12.5,1.28 a 1.19,1.19 0 0 0 1.45,-0.26 q 3.91,-4.43 9.58,-6.31 2.36,-0.78 2.33,-3.27 0,-0.89 0.44,-1.61 0.39,-0.62 1.64,-1.17 4.09,-1.79 7.12,-5.17 a 0.69,0.68 43.4 0 0 -0.03,-0.94 l -1.07,-1.07 a 0.44,0.44 0 0 1 0.04,-0.65 c 0.58,-0.45 4.3,-1.05 5.41,-1.48 a 1.23,1.21 89.6 0 0 0.71,-0.73 l 0.58,-1.67 a 0.7,0.69 15.5 0 1 0.81,-0.45 l 1.2,0.27 q 0.71,0.17 0.48,-0.53 l -1.61,-4.91 a 0.71,0.71 0 0 1 0.24,-0.79 l 4.12,-3.16 q 0.41,-0.32 0.62,-0.79 l 1.41,-3.32"
           inkscape:connector-curvature="0"
           style="vector-effect:non-scaling-stroke;stroke:#f0f0f0" />
        <path
           id="path32644"
           d="m 305.54,196.75 3.24,0.93 a 1.35,1.34 -51.7 0 0 1.05,-0.13 q 5.52,-3.19 8.87,-8.61 a 0.48,0.48 0 0 0 -0.16,-0.66 l -5.07,-3.06 q -1.9,-1.14 -0.53,-2.89 l 17.03,-21.73 q 1.03,-1.31 1.03,0.35 c -0.04,12.19 -1.81,27.51 4.16,38.02 a 1.55,1.54 -34.1 0 1 -0.38,1.96 q -22.3,17.86 -45.72,33.27 c -3.11,2.05 -13.08,8.86 -13.94,12.21 q -0.55,2.18 1.29,0.91 c 20.96,-14.39 39.98,-27.22 60.46,-44.55 a 0.52,0.52 0 0 1 0.72,0.04 c 3.78,3.98 7.88,5.76 12.47,1.5 1.62,-1.5 7.83,-7.37 7.03,-8.6 a 0.45,0.44 -32.8 0 0 -0.62,-0.13 q -4.65,3.07 -7.96,-1.68 a 1.73,1.72 50.4 0 1 0.2,-2.2 l 19.3,-19.31 q 0.48,-0.48 0.51,0.19 c 0.52,9.26 -1.33,17.76 5.44,25.39 a 0.61,0.6 49.5 0 0 0.84,0.07 q 4.9,-3.96 9.11,-8.68 a 0.58,0.58 0 0 0 -0.01,-0.78 c -5.92,-6.37 -5.48,-13.55 -5.17,-23.12 0.1,-3.02 1.59,-4.78 3.2,-7.13 a 0.62,0.62 0 0 0 -0.12,-0.83 q -0.87,-0.74 -2.06,-0.51 a 0.83,0.83 0 0 1 -0.99,-0.82 l -0.03,-16.66 a 0.81,0.81 0 0 0 -1.14,-0.74 q -5.21,2.28 -8.01,7.46 c -1.5,2.77 -0.7,7.16 -1.02,10.39 a 0.6,0.6 0 0 1 -0.82,0.49 q -2.38,-0.99 -1.75,-3.85 0.56,-2.59 -1.74,-1.29 c -3.55,2 -9.12,7.38 -8.3,12.21 q 0.41,2.47 2.92,2.56 l 8.83,0.33 q 1.8,0.07 0.53,1.34 l -21.94,21.86 a 0.47,0.47 0 0 1 -0.74,-0.1 c -3.02,-5.15 -4.24,-9.77 -4.46,-16.14 q -0.44,-13.13 -0.08,-26.04 a 3.98,3.98 0 0 1 1.06,-2.6 l 3.96,-4.24 a 0.48,0.47 34.1 0 0 -0.15,-0.76 q -1.06,-0.49 -3.73,2.04 -2.96,2.8 -1.36,-0.32 0.39,-0.74 0.19,-1.44 a 0.74,0.73 -22 0 0 -1.05,-0.44 c -5.32,2.81 -8.77,6.23 -8.93,12.5 a 1.55,1.55 0 0 1 -0.31,0.9 l -12.15,16.12"
           inkscape:connector-curvature="0"
           style="vector-effect:non-scaling-stroke;stroke:#828282" />
        <path
           id="path32646"
           d="m 318.54,169.75 c -1.63,-1.94 -1.07,-3.31 0.83,-4.78 3.24,-2.49 2.76,-5.59 4.64,-8.53 q 2.19,-3.41 5.05,-6.31 c 1.26,-1.28 1.28,-2.49 -0.26,-3.47 a 0.73,0.73 0 0 1 -0.31,-0.78 l 0.67,-2.8 q 0.12,-0.5 0.07,-1.02 -0.25,-2.75 -0.4,-5.51 -0.12,-2.28 -0.96,-5.85 c -1.09,-4.67 0.62,-8.16 1.11,-12.42 a 0.89,0.88 22.9 0 0 -0.33,-0.8 q -2.88,-2.3 -4.15,-5.69"
           inkscape:connector-curvature="0"
           style="vector-effect:non-scaling-stroke;stroke:#f0f0f0" />
        <path
           id="path32648"
           d="m 324.5,111.79 c 7.8,0.93 13.75,1.86 19.82,-0.95 12.81,-5.94 25.34,-18.8 25.93,-33.64 0.6,-15.39 -19.62,-26.51 -33.1,-26.17 -7.96,0.2 -16.17,11.46 -20.08,17.54 A 0.94,0.94 0 0 1 316.36,69 l -12.79,1.12 q -1.08,0.1 -0.37,-0.72 c 3.86,-4.46 9.14,-10.41 8.82,-16.68 q -0.13,-2.5 -2.63,-2.34 -9.49,0.64 -18.35,4.13 a 0.38,0.38 0 0 1 -0.52,-0.36 c 0.03,-1.43 0.69,-7.58 -1.77,-7.19"
           inkscape:connector-curvature="0"
           style="vector-effect:non-scaling-stroke;stroke:#828282" />
        <path
           id="path32650"
           d="m 288.75,46.96 c -1.2,-5.3 -20.48,-14.74 -25.63,-16.94 q -4.43,-1.9 -9.17,-5.49 c -3.27,-2.49 -7.24,-2.04 -10.75,-3.08 q -5.64,-1.68 -11.53,-2.16 c -2.91,-0.24 -4.52,-1.67 -6.96,-3.02 a 0.52,0.51 -76.4 0 0 -0.76,0.47 l 0.02,1.27 a 0.4,0.4 0 0 1 -0.5,0.39 c -2.26,-0.63 -4.36,-2.25 -6.52,-2.3 -5.88,-0.16 -7.32,6.42 -13.88,2.07 a 0.88,0.86 43.9 0 0 -0.98,0.01 l -2.38,1.7 A 0.99,0.98 37.1 0 1 198.8,20 l -5.6,-2.09 a 1.03,1.02 35.2 0 0 -1,0.17 c -3.54,2.85 -6.86,1.87 -10.48,2.63 -7.18,1.51 -15.76,1.32 -20.41,8.13 a 1.23,1.22 10.9 0 1 -0.78,0.52 l -5.39,1.1 a 1.62,1.62 0 0 0 -0.81,0.44 c -2.03,2.07 -3.49,3.97 -6.29,5.12 -3.73,1.53 -6.82,2.32 -10.04,5.51 a 0.8,0.77 -66.1 0 1 -0.54,0.22 l -0.34,0.01 a 1.53,1.5 -64 0 0 -0.9,0.32 l -5.8,4.58 a 0.55,0.55 0 0 0 -0.11,0.74 q 0.52,0.74 0.44,1.56"
           inkscape:connector-curvature="0"
           style="vector-effect:non-scaling-stroke;stroke:#f0f0f0" />
        <path
           id="path32652"
           d="m 130.75,48.96 c -5.02,0.28 -11.5,4.28 -16.2,7.08 q -1.26,0.75 -5.05,5.75"
           inkscape:connector-curvature="0"
           style="vector-effect:non-scaling-stroke;stroke:#828282" />
        <path
           id="path32654"
           d="m 109.5,61.79 q -3.5,0.08 -5.24,2.72 c -3.02,4.59 -6.54,7.84 -11.22,10.74"
           inkscape:connector-curvature="0"
           style="vector-effect:non-scaling-stroke;stroke:#f0f0f0" />
        <path
           id="path32656"
           d="M 93.04,75.25 Q 90.91,42 93.01,8.69 A 1.16,1.16 0 0 0 91.38,7.56 c -6.49,2.91 -9.11,8.96 -9.22,16.09 -0.28,18.41 -4.38,38.88 -12.75,55.2 q -1.03,2 -3.13,1.2 c -3.89,-1.47 -5.04,-4.16 -5.12,-8.38 q -0.51,-26.47 0.46,-53 0.09,-2.35 -1.73,-0.86 c -2.36,1.93 -7.76,5.49 -7.99,8.44 q -1.44,18.11 -0.78,53.79 c 0.22,11.68 8.54,12.35 16.21,5.96 q 9.68,-8.07 14.05,-20.25 0.01,-0.03 0.04,-0.03 l 0.29,0.02 a 0.27,0.27 0 0 1 0.25,0.27 l 0.75,29.49"
           inkscape:connector-curvature="0"
           style="vector-effect:non-scaling-stroke;stroke:#828282" />
        <path
           id="path32658"
           d="m 82.71,95.5 -1.23,0.29 a 1.04,1.01 3.2 0 0 -0.71,0.62 q -1.95,4.8 -6.63,7.21 a 1.09,1.07 -14.4 0 0 -0.58,0.97 l 0.1,4.06 a 1.87,1.86 -14.6 0 1 -1,1.7 q -3.01,1.56 -2.41,5.11"
           inkscape:connector-curvature="0"
           style="vector-effect:non-scaling-stroke;stroke:#f0f0f0" />
        <path
           id="path32660"
           d="m 70.25,115.46 c -5.71,1.36 -11.2,1.38 -14.98,-3.59 a 0.58,0.57 -41.4 0 1 0.05,-0.76 c 1.23,-1.27 4.91,-4.35 4.75,-6.1 a 0.52,0.51 -4.4 0 0 -0.56,-0.47 c -5.32,0.49 -13.16,6.6 -14.39,11.86 -1.2,5.11 3.23,9.27 8.13,9.59 q 6.91,0.45 14.5,-2.03"
           inkscape:connector-curvature="0"
           style="vector-effect:non-scaling-stroke;stroke:#828282" />
        <path
           id="path32662"
           d="m 67.75,123.96 q -0.54,7.81 -3.41,14.84"
           inkscape:connector-curvature="0"
           style="vector-effect:non-scaling-stroke;stroke:#f0f0f0" />
        <path
           id="path32664"
           d="m 64.34,138.8 c -21.24,13.83 -26.94,39.06 -26.8,62.77 0.1,15.39 15.64,16.24 25.17,8.68"
           inkscape:connector-curvature="0"
           style="vector-effect:non-scaling-stroke;stroke:#828282" />
        <path
           id="path32666"
           d="m 62.71,210.25 0.21,6.52 a 1.09,1.08 70.3 0 1 -0.42,0.9 l -1.1,0.83 a 0.74,0.73 -33.7 0 0 -0.19,0.94 q 3.36,6.02 5.24,12.67 a 1.63,1.63 0 0 0 0.59,0.86 q 3.82,2.86 5.26,7.46 0.33,1.05 1.94,1.68 a 0.72,0.71 11 0 1 0.45,0.66 q 0.01,0.66 0.27,1.23"
           inkscape:connector-curvature="0"
           style="vector-effect:non-scaling-stroke;stroke:#f0f0f0" />
        <path
           id="path32668"
           d="m 74.96,244 q -0.08,3.83 -0.17,7.66 c -0.09,4.24 -1.74,8.24 -1.55,12.91 a 0.54,0.54 0 0 0 0.7,0.49 q 2.45,-0.74 3.92,-2.29"
           inkscape:connector-curvature="0"
           style="vector-effect:non-scaling-stroke;stroke:#828282" />
        <path
           id="path32670"
           d="m 77.86,262.77 q 2.07,0.8 3.64,2.07 c 1.96,1.57 2.1,3.79 2.73,6.13 a 0.88,0.86 89.8 0 0 0.61,0.62 q 4.75,1.29 9.6,1.41"
           inkscape:connector-curvature="0"
           style="vector-effect:non-scaling-stroke;stroke:#f0f0f0" />
        <path
           id="path32672"
           d="m 413.56,0 2.48,0.43 a 1.09,1.07 78.5 0 1 0.74,0.5 c 2.51,3.99 5.19,7.82 7.2,12.04 3.78,7.94 7.19,15.94 11.74,23.49 3.66,6.08 6.45,15.01 8.28,20.3 q 1.71,4.96 2,16.8"
           inkscape:connector-curvature="0"
           style="vector-effect:non-scaling-stroke;stroke:#f0f0f0" />
        <path
           id="path32674"
           d="m 446,192.31 q -0.55,6.69 -0.31,13.43 c 0.11,3.21 -1.39,4.87 -3.31,7.12 a 0.95,0.95 0 0 0 -0.19,0.86 c 2.09,7.94 -2.92,16.76 -7.37,22.71 -1.35,1.8 -3.59,3.3 -5.19,5.22 a 1.63,1.6 69 0 0 -0.36,0.83 q -0.86,6.81 -5.34,12.05 a 0.99,0.97 55.2 0 0 -0.17,0.99 l 0.83,2.13 a 1.6,1.58 -47.7 0 1 0.04,1.04 L 420.44,273"
           inkscape:connector-curvature="0"
           style="vector-effect:non-scaling-stroke;stroke:#f0f0f0" />
        <path
           id="path32676"
           d="m 93.04,75.25 q 0.29,13.8 -0.58,20.18 c -1.81,13.25 -13.22,23.47 -24.71,28.53"
           inkscape:connector-curvature="0"
           style="vector-effect:non-scaling-stroke;stroke:#737373" />
        <path
           id="path32678"
           d="M 70.25,115.46 C 83.03,114.67 82.93,105.48 82.71,95.5"
           inkscape:connector-curvature="0"
           style="vector-effect:non-scaling-stroke;stroke:#737373" />
        <path
           id="path32680"
           d="m 288.75,46.96 c -12.43,3.1 -21.02,7.49 -30.98,13.24 q -1.21,0.7 -0.79,-0.63 c 1.23,-3.9 2.58,-9.8 -2.95,-11.04 -15.2,-3.42 -28.14,9.75 -35.28,21.76"
           inkscape:connector-curvature="0"
           style="vector-effect:non-scaling-stroke;stroke:#737373" />
        <path
           id="path32682"
           d="m 218.75,70.29 q -1.87,-0.77 -2.85,-2.54 a 0.87,0.86 -12.5 0 0 -0.73,-0.46 l -0.88,-0.04"
           inkscape:connector-curvature="0"
           style="vector-effect:non-scaling-stroke;stroke:#f0f0f0" />
        <path
           id="path32684"
           d="m 214.29,67.25 -0.48,-13.88 a 1.45,1.45 0 0 0 -1.43,-1.4 c -9.81,-0.16 -22,7.26 -28.63,14.64 a 0.32,0.32 0 0 1 -0.53,-0.08 c -3.25,-6.97 -6.5,-13.27 -15.29,-12.77 -7.59,0.43 -14.57,8.82 -18.01,15 q -0.6,1.07 -0.76,-0.14 l -0.29,-2.14 a 0.58,0.58 0 0 0 -0.56,-0.5 q -2.99,-0.02 -5.48,1.59 a 0.43,0.43 0 0 1 -0.66,-0.31 Q 141.42,60.6 139.6,54.18 c -1.33,-4.66 -4.08,-6.61 -8.85,-5.22"
           inkscape:connector-curvature="0"
           style="vector-effect:non-scaling-stroke;stroke:#737373" />
        <path
           id="path32686"
           d="m 324.5,111.79 q -7,-0.88 -9.87,-7.04 a 0.38,0.37 57.2 0 0 -0.58,-0.13 q -6.84,5.85 -9.33,7.13 c -8.08,4.14 -20.27,6.61 -28.88,2.53"
           inkscape:connector-curvature="0"
           style="vector-effect:non-scaling-stroke;stroke:#737373" />
        <path
           id="path32688"
           d="m 275.84,114.28 q -2.82,-3.02 -3.88,-7.28"
           inkscape:connector-curvature="0"
           style="vector-effect:non-scaling-stroke;stroke:#828282" />
        <path
           id="path32690"
           d="m 271.96,107 c -0.68,-5.09 1.14,-7.81 4.64,-11.24 2.99,-2.92 3.65,-6.37 3.3,-10.36 a 0.5,0.5 0 0 0 -0.68,-0.42 l -1.61,0.65 a 0.47,0.47 0 0 1 -0.62,-0.28 c -0.81,-2.4 2.97,-3.29 3,-6.23 q 0.08,-6.58 -0.06,-12.66 a 0.64,0.64 0 0 0 -0.88,-0.58 q -1.77,0.71 -3.64,0.74 -0.88,0.01 -0.4,-0.73 c 1.1,-1.69 5.54,-6.53 5.13,-8.25 a 0.53,0.53 0 0 0 -0.63,-0.4 q -11.07,2.37 -20.87,7.94 c -5.29,3 -7.46,8.46 -12.73,11.64"
           inkscape:connector-curvature="0"
           style="vector-effect:non-scaling-stroke;stroke:#737373" />
        <path
           id="path32692"
           d="m 245.91,76.82 -1.47,-2.31 a 0.44,0.44 0 0 0 -0.6,-0.14 q -1.38,0.81 -2.63,0.13"
           inkscape:connector-curvature="0"
           style="vector-effect:non-scaling-stroke;stroke:#828282" />
        <path
           id="path32694"
           d="m 241.21,74.5 c 2.88,-4.4 6.2,-6.54 6.84,-12.04 q 0.27,-2.39 -1.94,-3.32 -5.79,-2.46 -11.98,-0.51 c -4.96,1.56 -7.9,7.12 -9.61,11.69"
           inkscape:connector-curvature="0"
           style="vector-effect:non-scaling-stroke;stroke:#737373" />
        <path
           id="path32696"
           d="m 224.52,70.32 c -3.35,6.25 -10.68,26.82 -1.2,30.89 14.63,6.28 28.79,1.56 32.84,-15.08"
           inkscape:connector-curvature="0"
           style="vector-effect:non-scaling-stroke;stroke:#828282" />
        <path
           id="path32698"
           d="m 256.16,86.13 q 0.58,-4 0.86,-7.89 c 0.52,-7.33 4.78,-12.68 11.23,-16.03 a 0.54,0.54 0 0 1 0.79,0.47 q 0.16,6.4 -1.59,12.43 c -2.46,8.47 -2.04,21.22 -0.66,29.89"
           inkscape:connector-curvature="0"
           style="vector-effect:non-scaling-stroke;stroke:#737373" />
        <path
           id="path32700"
           d="m 266.79,105 c -0.66,0.87 -10.37,13.53 -10.62,6.95 q -0.31,-8.03 -0.16,-15.39 0.03,-1.53 -0.93,-0.34 c -5.7,7.05 -13.88,14.87 -22.98,16.86 -4.09,0.89 -9.04,0.11 -13.52,-0.19 a 0.47,0.47 0 0 0 -0.5,0.46 c -0.03,4.12 1.11,13.61 -0.62,16.86 q -4.26,8.02 -12.18,12.2 a 1.59,1.58 78.9 0 0 -0.84,1.26 l -2.25,26.06 a 1.3,1.29 -88.8 0 0 1.35,1.41 l 10.33,-0.55 a 1.33,1.32 -89 0 0 1.25,-1.21 q 0.58,-7.12 0.93,-14.46 c 0.22,-4.52 4.93,-8.66 8.54,-10.55 a 1.01,1 -12.9 0 1 1.47,0.92 l -0.28,10.15 a 0.48,0.47 88.9 0 0 0.5,0.49 q 0.48,-0.02 0.84,-0.6 3.67,-5.94 10.08,-8.7 c 8.34,-3.58 18.89,-8.14 27.97,-8.68 a 0.86,0.86 0 0 1 0.9,1 c -0.57,3.38 -11.32,16.74 -14.66,16.8 q -1.12,0.02 -0.44,-0.87 l 4.69,-6.21 q 0.96,-1.28 -0.6,-0.94 c -10.21,2.23 -19.47,6.12 -29.12,9.94 a 0.99,0.97 -9.1 0 0 -0.63,0.85 l -0.42,6.15 q -0.09,1.23 0.61,0.21 4.31,-6.36 11.86,-7.82 a 0.54,0.54 0 0 1 0.64,0.53 v 3.6 a 0.41,0.4 85.2 0 0 0.47,0.4 q 6.24,-1.07 12.44,-2.33 c 1.3,-0.27 3.69,-1.15 5.53,-1.02 q 1.3,0.1 0.44,1.08 -2.93,3.34 -6.17,6.38 c -4.46,4.19 -11.92,5.44 -12.61,12.95 q -0.59,6.42 -0.06,12.85"
           inkscape:connector-curvature="0"
           style="vector-effect:non-scaling-stroke;stroke:#828282" />
        <path
           id="path32702"
           d="m 238.04,191.5 0.12,2.12 a 0.95,0.94 -77.6 0 0 0.49,0.78 c 6,3.35 12.49,2.47 17.94,2.79 a 0.3,0.3 0 0 1 0.23,0.46 c -7.9,12.68 -21.46,11.53 -32.48,4.13 q -1.93,-1.3 -1.21,-3.52 1.78,-5.43 3.82,-11 c 1.91,-5.19 1.14,-12.24 1,-17.74 a 0.32,0.31 75.7 0 0 -0.46,-0.28 q -3.14,1.68 -3.68,5.08 -1.34,8.47 -1.94,19.32 c -0.31,5.55 -4.55,9.6 -9.25,12.02 a 0.33,0.33 0 0 1 -0.49,-0.27 c -0.61,-7.24 0.64,-14.6 1.86,-25.93 a 0.45,0.45 0 0 0 -0.53,-0.49 l -11.72,2 a 0.67,0.67 0 0 0 -0.55,0.59 c -0.52,5.3 0.24,13.27 -1.85,17.71 -2.36,5.02 -11.83,12.37 -16.09,4.87 a 0.39,0.39 0 0 0 -0.61,-0.09 q -5.66,5.21 -12.89,7.66"
           inkscape:connector-curvature="0"
           style="vector-effect:non-scaling-stroke;stroke:#737373" />
        <path
           id="path32704"
           d="m 110.44,205.25 q -0.49,-6.19 2.59,-11.56 0.34,-0.59 -0.32,-0.41 l -6.96,1.88 a 1.31,1.3 -82.4 0 0 -0.79,0.61 c -2.63,4.6 -9.34,12.46 -14.91,13.17 q -1.22,0.15 -2.46,0.55 a 0.74,0.74 0 0 0 -0.52,0.65 q -1.61,19.5 -2.86,39.03 c -0.45,6.93 -1.03,9.03 -6.35,13.6"
           inkscape:connector-curvature="0"
           style="vector-effect:non-scaling-stroke;stroke:#737373" />
        <path
           id="path32706"
           d="m 74.96,244 2.7,-35.3 a 0.79,0.79 0 0 0 -0.29,-0.67 l -6.08,-4.93 a 0.58,0.57 43.3 0 0 -0.74,0.02 l -7.84,7.13"
           inkscape:connector-curvature="0"
           style="vector-effect:non-scaling-stroke;stroke:#737373" />
        <path
           id="path32708"
           d="m 64.34,138.8 5.42,0.28 q 2.27,0.11 2.05,2.38 -0.84,8.35 -2.07,16.29 c -0.71,4.55 -6.35,8.73 -9.16,10.94 a 0.63,0.62 46.2 0 1 -0.79,-0.02 c -1.46,-1.27 0.52,-8.71 0.67,-9.92"
           inkscape:connector-curvature="0"
           style="vector-effect:non-scaling-stroke;stroke:#737373" />
        <path
           id="path32710"
           d="m 60.46,158.75 0.69,-8.86 a 0.69,0.69 0 0 0 -0.45,-0.7 c -2.48,-0.94 -4.16,0.26 -5.17,2.63 q -8.98,21.13 -7.82,44.25 c 0.35,6.92 7.16,8.75 12.98,8.93"
           inkscape:connector-curvature="0"
           style="vector-effect:non-scaling-stroke;stroke:#828282" />
        <path
           id="path32712"
           d="m 60.69,205 q 5.44,-0.61 8.53,-4.83 a 1.26,1.22 59.6 0 0 0.22,-0.9 c -0.98,-7.07 3.98,-12.76 8.18,-17.82 a 1.41,1.4 -24.5 0 0 0.31,-0.82 l 0.3,-11.02 a 1.63,1.63 0 0 1 0.38,-0.99 q 3.54,-4.15 2.29,-9.74 a 0.59,0.59 0 0 0 -0.87,-0.38 l -1.6,0.93 a 0.28,0.28 0 0 1 -0.39,-0.11 c -0.27,-0.51 2.49,-5.29 2.89,-6.22 2.16,-5 4.68,-7.56 9.17,-10.06 a 0.43,0.43 0 0 1 0.63,0.28 l 0.22,0.91 a 0.52,0.52 0 0 0 0.81,0.3 q 4.44,-3.17 9.67,-4.76 a 0.84,0.84 0 0 0 0.59,-0.71 c 0.96,-9.23 1.41,-18.56 2.7,-27.68 q 2.65,-18.76 4.2,-37.63 0.11,-1.32 0.08,-1.99 -0.08,-1.46 -0.99,-0.32 -3.66,4.6 -8.3,8.25 a 0.37,0.37 0 0 1 -0.58,-0.17 c -0.9,-2.63 7.3,-13.53 10.37,-17.73"
           inkscape:connector-curvature="0"
           style="vector-effect:non-scaling-stroke;stroke:#737373" />
        <path
           id="path32714"
           d="m 214.29,67.25 q -4.03,19.18 -15.91,33.82 -1.04,1.28 0.58,0.92 l 9.39,-2.13 a 0.74,0.74 0 0 0 0.57,-0.65 c 1.09,-10.79 4.21,-19.63 9.83,-28.92"
           inkscape:connector-curvature="0"
           style="vector-effect:non-scaling-stroke;stroke:#828282" />
        <path
           id="path32716"
           d="m 124.84,58.78 -4.22,0.05 a 1.66,1.66 0 0 0 -1.64,1.61 q -0.36,12.31 -1.87,24.88 -0.22,1.77 -0.12,2.87 0.16,1.9 1.22,0.32 5.3,-7.85 13.03,-13.38 a 0.95,0.95 0 0 0 0.39,-0.84 q -0.49,-6.52 -2.68,-12.65 -1.04,-2.89 -4.11,-2.86"
           inkscape:connector-curvature="0"
           style="vector-effect:non-scaling-stroke;stroke:#737373" />
        <path
           id="path32718"
           d="m 290.56,62.38 -0.47,11.09 a 0.3,0.3 0 0 0 0.43,0.29 c 6.52,-2.94 12.29,-5.17 11.43,-12.27 a 1.54,1.53 82.5 0 0 -1.74,-1.34 l -8.79,1.28 a 1,0.99 -3.1 0 0 -0.86,0.95"
           inkscape:connector-curvature="0"
           style="vector-effect:non-scaling-stroke;stroke:#737373" />
        <path
           id="path32720"
           d="m 328.36,60.71 c -2.55,0.55 -8.4,9.71 -7.1,12.07 q 0.54,0.97 1.07,0 l 6.37,-11.62 q 0.33,-0.6 -0.34,-0.45"
           inkscape:connector-curvature="0"
           style="vector-effect:non-scaling-stroke;stroke:#828282" />
        <path
           id="path32722"
           d="m 333.84,61.61 c -3.43,7.01 -15.19,33.28 -5.56,38.16 6.54,3.31 23.97,5.92 28.9,-2.24 10.73,-17.76 -6.96,-32.57 -22.38,-36.37 a 0.84,0.83 -69.8 0 0 -0.96,0.45"
           inkscape:connector-curvature="0"
           style="vector-effect:non-scaling-stroke;stroke:#828282" />
        <path
           id="path32724"
           d="m 195.04,69.75 0.09,29.02 q 0,0.51 0.26,0.07 c 6.07,-10.42 9.38,-19.77 8.82,-31.59"
           inkscape:connector-curvature="0"
           style="vector-effect:non-scaling-stroke;stroke:#828282" />
        <path
           id="path32726"
           d="m 204.21,67.25 -0.28,-4.77 a 0.73,0.73 0 0 0 -0.84,-0.67 l -7.26,1.13 a 0.83,0.83 0 0 0 -0.7,0.81 l -0.09,6"
           inkscape:connector-curvature="0"
           style="vector-effect:non-scaling-stroke;stroke:#737373" />
        <path
           id="path32728"
           d="m 204.21,67.25 c -3,0.71 -5.42,3.91 -9.17,2.5"
           inkscape:connector-curvature="0"
           style="vector-effect:non-scaling-stroke;stroke:#f0f0f0" />
        <path
           id="path32730"
           d="m 149.79,90.75 c -0.48,8.26 5.68,17.3 14.63,14.99 11.13,-2.87 10.77,-22.24 8.54,-30.24"
           inkscape:connector-curvature="0"
           style="vector-effect:non-scaling-stroke;stroke:#828282" />
        <path
           id="path32732"
           d="m 172.96,75.5 c -1.7,-5.87 -8.13,-14.19 -15.23,-11.19 a 1.38,1.34 -87.2 0 0 -0.69,0.64 c -4.05,7.7 -7.7,16.99 -7.25,25.8"
           inkscape:connector-curvature="0"
           style="vector-effect:non-scaling-stroke;stroke:#737373" />
        <path
           id="path32734"
           d="m 172.96,75.5 q -3.17,2.06 -4.73,5.57 -1.11,2.5 -3.82,2.85 l -4.77,0.61 q -0.83,0.11 -0.3,0.76 l 1,1.2 a 0.47,0.47 0 0 1 -0.23,0.75 q -2.48,0.74 -4.89,0.03 a 1.42,1.41 16.1 0 0 -1.76,0.97 q -0.63,2.25 -3.67,2.51"
           inkscape:connector-curvature="0"
           style="vector-effect:non-scaling-stroke;stroke:#f0f0f0" />
        <path
           id="path32736"
           d="m 160.75,115.54 q -2.09,1.71 -4.75,2.25"
           inkscape:connector-curvature="0"
           style="vector-effect:non-scaling-stroke;stroke:#737373" />
        <path
           id="path32738"
           d="m 156,117.79 q -1.69,-0.33 -10.98,-3.07 c -7.72,-2.29 -5.92,-7.54 -6.06,-13.72"
           inkscape:connector-curvature="0"
           style="vector-effect:non-scaling-stroke;stroke:#828282" />
        <path
           id="path32740"
           d="m 138.96,101 v -6.47 q 0,-1.4 -0.67,-0.17 c -5.16,9.43 -13.78,18.33 -24.49,21.14 a 0.69,0.69 0 0 0 -0.51,0.64 l -1.25,33.61"
           inkscape:connector-curvature="0"
           style="vector-effect:non-scaling-stroke;stroke:#737373" />
        <path
           id="path32742"
           d="m 112.04,149.75 0.02,5.68 q 0,0.51 0.43,0.24 17.18,-10.68 36.26,-17.46"
           inkscape:connector-curvature="0"
           style="vector-effect:non-scaling-stroke;stroke:#828282" />
        <path
           id="path32744"
           d="m 148.75,138.21 3.74,-0.18 q 1.58,-0.07 0.54,1.13 l -7.78,9.05"
           inkscape:connector-curvature="0"
           style="vector-effect:non-scaling-stroke;stroke:#737373" />
        <path
           id="path32746"
           d="m 145.25,148.21 q -2.39,2.06 -2.42,5.97 -0.08,9.44 0.39,20.87 a 1.56,1.55 -7.9 0 0 1.91,1.44 q 2.79,-0.67 6.61,-2.9"
           inkscape:connector-curvature="0"
           style="vector-effect:non-scaling-stroke;stroke:#828282" />
        <path
           id="path32748"
           d="m 151.74,173.59 0.4,-15.38 a 1.82,1.79 -27.7 0 1 0.32,-0.99 l 3.25,-4.74 q 0.51,-0.73 -0.27,-0.3 l -5.54,3.03 a 0.33,0.32 -35.9 0 1 -0.39,-0.06 l -0.19,-0.19 a 0.68,0.68 0 0 1 -0.08,-0.84 c 4.1,-6.22 9.2,-9 16.49,-12.6 3.88,-1.91 10.31,-5.25 14.66,-4.66 q 1.7,0.24 2.06,1.91 c 1.51,6.88 -0.16,14.12 -3.51,19.54 q -1.26,2.04 1.12,1.73 9.85,-1.27 11.43,8.18 0.94,5.64 1.51,0.06 0.59,-5.89 1.04,-14.43 c 0.21,-4.03 1.85,-6.49 4.64,-9.02 a 0.74,0.74 0 0 0 0.19,-0.81 c -3.29,-8.43 1,-13.91 8.61,-17.01"
           inkscape:connector-curvature="0"
           style="vector-effect:non-scaling-stroke;stroke:#737373" />
        <path
           id="path32750"
           d="m 207.48,127.01 q 1.03,-4.82 -1.21,-11.3 -2.71,-7.84 -10.27,-5.2"
           inkscape:connector-curvature="0"
           style="vector-effect:non-scaling-stroke;stroke:#828282" />
        <path
           id="path32752"
           d="m 196,110.51 c -9.05,1.47 -15.05,8.8 -22.36,13.52 q -2.07,1.33 -1.53,-1.07 c 0.86,-3.81 9.18,-10.36 12.34,-12.92 a 1.09,1.09 0 0 0 0.41,-0.83 l 0.1,-4.21"
           inkscape:connector-curvature="0"
           style="vector-effect:non-scaling-stroke;stroke:#737373" />
        <path
           id="path32754"
           d="m 184.96,105 c 0.03,-11.89 -0.82,-24.74 0.69,-36.48 q 0.07,-0.53 -0.41,-0.29 c -1.59,0.78 -1.31,7.05 -1.39,10.19 -0.44,16.88 -10.84,26.14 -23.1,37.12"
           inkscape:connector-curvature="0"
           style="vector-effect:non-scaling-stroke;stroke:#828282" />
        <path
           id="path32756"
           d="m 184.96,105 q -1.74,0.12 -2.07,-0.83 a 1.37,1.37 0 0 0 -1.9,-0.79 c -7.24,3.53 -11.76,4.73 -16.97,11.81 a 3.42,3.42 0 0 1 -2.18,1.34 q -0.57,0.09 -1.09,-0.99"
           inkscape:connector-curvature="0"
           style="vector-effect:non-scaling-stroke;stroke:#f0f0f0" />
        <path
           id="path32758"
           d="m 196,110.51 q 3.2,5.03 7.72,8.77 1.74,1.44 3.76,7.73"
           inkscape:connector-curvature="0"
           style="vector-effect:non-scaling-stroke;stroke:#f0f0f0" />
        <path
           id="path32760"
           d="m 151.74,173.59 c -3.45,-0.25 -4.48,-5.33 -4.71,-7.82 a 1.35,1.34 20.4 0 0 -0.39,-0.84 c -2.08,-2.05 -1.71,-6.98 -1.82,-9.85 -0.07,-2.13 1.05,-3.9 1.42,-6.03 a 0.71,0.71 0 0 0 -0.39,-0.76 q -0.25,-0.13 -0.6,-0.08"
           inkscape:connector-curvature="0"
           style="vector-effect:non-scaling-stroke;stroke:#f0f0f0" />
        <path
           id="path32762"
           d="m 156,117.79 c 0.02,0.38 0.06,0.55 -0.15,0.89 q -4.01,6.57 -4.01,14.33 -0.01,1.98 -3.09,5.2"
           inkscape:connector-curvature="0"
           style="vector-effect:non-scaling-stroke;stroke:#f0f0f0" />
        <path
           id="path32764"
           d="m 138.96,101 -3.5,0.21 a 1.18,1.15 -74.3 0 0 -0.87,0.5 q -1.28,1.87 -0.68,4.14 a 0.84,0.83 -29.5 0 1 -0.24,0.84 q -9.38,8.8 -14.14,20.79 a 1.74,1.73 -6.1 0 1 -0.65,0.8 c -2.79,1.81 -5.68,2.69 -4.72,6.95 1.3,5.85 -1.75,9.1 -2.12,14.52"
           inkscape:connector-curvature="0"
           style="vector-effect:non-scaling-stroke;stroke:#f0f0f0" />
        <path
           id="path32766"
           d="m 297.2,85.68 c -0.03,3.03 -5.83,7.31 -7.7,8.73 a 1.03,1.01 73.2 0 0 -0.39,0.74 l -0.66,10.15 a 0.46,0.45 5.6 0 0 0.39,0.47 q 10.18,1.31 19.91,-1.78 c 4.07,-1.29 4.45,-4.44 4.42,-8.25 -0.04,-6.56 1.2,-16.85 -8.44,-16.98 q -2.6,-0.03 -11.1,1.38 c -3.79,0.63 -5.08,2.89 -4.42,6.5 a 0.55,0.54 -8.4 0 0 0.6,0.44 q 3.5,-0.43 6.77,-1.82 a 0.45,0.45 0 0 1 0.62,0.42"
           inkscape:connector-curvature="0"
           style="vector-effect:non-scaling-stroke;stroke:#737373" />
        <path
           id="path32768"
           d="m 122.67,104.72 c 9.7,2.85 9.91,-20.76 9.11,-25.51 a 0.3,0.3 0 0 0 -0.46,-0.2 c -8.2,5.54 -14.22,15.25 -9.35,25.12 a 1.13,1.13 0 0 0 0.7,0.59"
           inkscape:connector-curvature="0"
           style="vector-effect:non-scaling-stroke;stroke:#737373" />
        <path
           id="path32770"
           d="m 171.67,160.67 q 2.03,-5.72 1.08,-11.75 -0.31,-1.99 -2.32,-1.96 -4.36,0.08 -7.97,2.41 A 0.99,0.98 -16.2 0 0 162,150.2 v 15.34 q 0,0.8 0.64,0.32 3.79,-2.79 8.22,-4.38 a 1.32,1.32 0 0 0 0.81,-0.81"
           inkscape:connector-curvature="0"
           style="vector-effect:non-scaling-stroke;stroke:#737373" />
        <path
           id="path32772"
           d="m 108.24,190.41 q 3.7,-4.38 9.21,-6.02 a 1.11,1.09 -85.3 0 0 0.67,-0.58 q 9.25,-19.01 22.63,-35.36 0.55,-0.67 -0.27,-0.38 -14.29,5.14 -27.53,12.57 a 1.96,1.96 0 0 0 -1,1.79 c 0.16,3.85 0.57,8.23 -1.1,11.63 q -0.51,1.04 -0.62,2.14 -0.7,7.39 -2.92,13.67 -1,2.82 0.93,0.54"
           inkscape:connector-curvature="0"
           style="vector-effect:non-scaling-stroke;stroke:#828282" />
        <path
           id="path32774"
           d="m 96.62,148.99 q -2.84,-0.28 -5.21,1.2 a 0.97,0.95 -17.9 0 0 -0.44,0.84 q 0.31,9.52 -0.96,18.97 -0.12,0.87 0.59,0.36 l 9.11,-6.57 a 1.16,1.16 0 0 0 0.48,-0.92 q 0.09,-5.97 -1.19,-11.78 -0.43,-1.91 -2.38,-2.1"
           inkscape:connector-curvature="0"
           style="vector-effect:non-scaling-stroke;stroke:#737373" />
        <path
           id="path32776"
           d="m 132.52,167.24 c -0.52,0.17 -6.85,12.77 -7.61,14.28 q -0.36,0.71 0.42,0.55 l 6,-1.2 a 2.05,2.04 -5.6 0 0 1.64,-1.99 l 0.04,-11.29 a 0.37,0.37 0 0 0 -0.49,-0.35"
           inkscape:connector-curvature="0"
           style="vector-effect:non-scaling-stroke;stroke:#828282" />
        <path
           id="path32778"
           d="m 88.4,198.91 c 1.57,0.61 4.92,0.95 6.43,0.84 q 2.34,-0.17 2.93,-2.44 3.68,-14.02 3.22,-28.55 a 0.59,0.58 -15.5 0 0 -0.87,-0.48 c -4.79,2.65 -10.6,5.25 -10.82,11.72 q -0.1,3.05 -1.32,18.21 a 0.69,0.68 13.7 0 0 0.43,0.7"
           inkscape:connector-curvature="0"
           style="vector-effect:non-scaling-stroke;stroke:#737373" />
        <path
           id="path32780"
           d="m 173.29,169.94 c -3.36,-0.23 -12.84,6.9 -11.04,10.67 a 0.23,0.23 0 0 0 0.37,0.07 l 10.92,-10.03 q 0.72,-0.65 -0.25,-0.71"
           inkscape:connector-curvature="0"
           style="vector-effect:non-scaling-stroke;stroke:#737373" />
        <path
           id="path32782"
           d="m 176.52,170.15 a 0.51,0.5 -60.2 0 0 -0.79,0.22 c -1.9,5.02 -9.47,10.56 -13.19,14.8 a 1.59,1.58 -20.8 0 0 -0.39,0.86 q -0.9,6.72 -0.02,13.44 a 1.22,1.21 -75.5 0 0 0.46,0.79 c 5.11,3.95 12.54,2.2 18.66,0.58 a 0.62,0.61 -9.2 0 0 0.46,-0.63 c -0.25,-4.76 -1.37,-9.19 0.01,-14.19 q 0.95,-3.47 0.69,-5.47 -0.82,-6.26 -5.89,-10.4"
           inkscape:connector-curvature="0"
           style="vector-effect:non-scaling-stroke;stroke:#737373" />
        <path
           id="path32784"
           d="m 271.96,107 h -0.81 a 1.46,1.44 64.9 0 1 -0.89,-0.33 q -1.52,-1.26 -3.47,-1.67"
           inkscape:connector-curvature="0"
           style="vector-effect:non-scaling-stroke;stroke:#f0f0f0" />
        <path
           id="path32786"
           d="m 256.16,86.13 -4.48,-7.19 a 1.39,1.37 82.1 0 0 -0.74,-0.57 l -5.03,-1.55"
           inkscape:connector-curvature="0"
           style="vector-effect:non-scaling-stroke;stroke:#f0f0f0" />
        <path
           id="path32788"
           d="M 241.21,74.5 224.52,70.32"
           inkscape:connector-curvature="0"
           style="vector-effect:non-scaling-stroke;stroke:#f0f0f0" />
        <path
           id="path32790"
           d="m 60.69,205 q -1.58,-3.34 -1.98,-7.01 a 1.62,1.56 -36.8 0 1 0.14,-0.85 l 1.83,-3.94 a 1.07,1.06 41.5 0 0 -0.07,-1.03 l -2.86,-4.5 a 0.42,0.42 0 0 1 0.32,-0.64 l 1.09,-0.07 a 0.76,0.74 6.2 0 0 0.66,-0.52 q 0.1,-0.3 -0.08,-0.66 c -2.04,-4.21 -2.6,-8.13 -4.05,-12.38 q -0.89,-2.63 -1.16,-5.38 a 1.11,1.1 -25.9 0 1 0.31,-0.88 q 3.16,-3.23 3.64,-7.79 a 0.62,0.62 0 0 1 0.59,-0.55 l 1.39,-0.05"
           inkscape:connector-curvature="0"
           style="vector-effect:non-scaling-stroke;stroke:#f0f0f0" />
        <path
           id="path32792"
           d="m 275.84,114.28 q 1.47,9.87 3.41,19.65 c 0.86,4.32 -1.28,7.8 -4.22,10.66 a 1.6,1.59 74 0 0 -0.45,0.82 l -0.33,1.55"
           inkscape:connector-curvature="0"
           style="vector-effect:non-scaling-stroke;stroke:#f0f0f0" />
        <path
           id="path32794"
           d="m 274.25,146.96 c -4.71,1.99 -9.39,6.15 -9.26,11.66 0.1,4.19 0.49,9.28 -0.81,12.74 -0.89,2.33 -3.74,4.57 -5.36,6.81 a 0.5,0.5 0 0 0 0.34,0.79 l 0.59,0.08"
           inkscape:connector-curvature="0"
           style="vector-effect:non-scaling-stroke;stroke:#828282" />
        <path
           id="path32796"
           d="m 259.75,179.04 c 1.48,6.19 -9.6,6.38 -13.1,5.44 q -2.08,-0.55 -3.23,1.27 -1.95,3.05 -5.38,5.75"
           inkscape:connector-curvature="0"
           style="vector-effect:non-scaling-stroke;stroke:#f0f0f0" />
        <path
           id="path32798"
           d="m 318.54,169.75 -6.22,8.07 Q 312,178.23 312,177.71 v -26.45 a 0.38,0.37 -10.3 0 0 -0.51,-0.35 c -5.42,2.01 -9.44,6.2 -9.51,12.21 q -0.16,12.7 -0.54,25.46 a 1.03,1.02 -15.2 0 1 -0.48,0.83 q -4.34,2.72 -6.74,7.33 a 1.09,0.97 -65.4 0 0 0.45,1.46 c 0.99,0.39 6.26,-3.84 7.18,-4.52 a 0.41,0.41 0 0 1 0.53,0.03 l 3.16,3.04"
           inkscape:connector-curvature="0"
           style="vector-effect:non-scaling-stroke;stroke:#737373" />
        <path
           id="path32800"
           d="m 259.75,179.04 3.39,-0.01 a 0.42,0.42 0 0 1 0.43,0.46 l -1.85,20.98 q -0.32,3.68 2.28,1.05 l 7.41,-7.49 a 1.42,1.41 -20.4 0 0 0.41,-0.89 l 1.26,-15.12 a 0.83,0.83 0 0 1 0.59,-0.72 q 4.75,-1.37 9.14,-3.73 1.37,-0.74 1.32,0.82 c -0.16,4.81 -1.07,21.35 1.31,23.67 q 1.44,1.4 2.86,-0.02 l 7.47,-7.48 a 1.11,1.1 46.8 0 0 0.04,-1.51 c -3.2,-3.59 -2.08,-19.64 -1.67,-24.57 a 1.57,1.55 67.7 0 1 0.36,-0.88 c 4.91,-5.99 7.9,-16.53 2.37,-23.26 q -1.71,-2.09 -4.13,-0.9 c -11.81,5.77 -8.24,15.37 -8.85,26.44 a 1.83,1.83 0 0 1 -1.45,1.69 l -7.16,1.49 a 1.09,1.09 0 0 1 -1.3,-1.18 c 0.29,-2.74 2.04,-19.57 0.27,-20.92"
           inkscape:connector-curvature="0"
           style="vector-effect:non-scaling-stroke;stroke:#737373" />
      </g>
      <path
         id="path32804"
         d="M 0,0 H 5.06 Q 3.07,0.07 1.36,0.95 A 1.06,1.03 -9.1 0 0 0.81,1.69 L 0,6.19 Z"
         inkscape:connector-curvature="0"
         style="fill:#ffffff" />
      <path
         id="path32806"
         d="m 5.06,0 h 55 l 0.83,0.4 a 0.66,0.65 20.7 0 1 0.35,0.76 C 60,6.02 57.51,9.01 57.02,14.74 a 1.11,1.1 -15.7 0 1 -0.46,0.81 c -1.48,1.06 -3.55,1.33 -4.83,2.23 q -6.55,4.58 -5.01,13.26 a 1.28,1.27 -17.2 0 1 -0.73,1.38 c -5.08,2.3 -8.13,3.25 -6.86,9.88 a 1.56,1.55 71 0 1 -0.8,1.66 l -5.04,2.64 q -1.44,0.76 -1.74,2.36 -0.97,5.28 -0.35,10.62 a 0.76,0.76 0 0 1 -0.44,0.79 l -3.79,1.71 a 3.07,3.07 0 0 0 -1.75,2.26 q -0.75,4.37 0.54,8.56 a 0.59,0.59 0 0 1 -0.35,0.73 c -6.22,2.5 -8.6,9.48 -7.84,15.66 0.28,2.31 -0.27,3.68 -0.95,5.74 a 1.87,1.81 -12 0 1 -0.56,0.83 q -2.52,2.14 -4.05,5.06 a 1.35,1.33 50 0 0 -0.08,1.02 l 1.14,3.36 a 1.23,1.22 -40.6 0 1 -0.08,0.97 l -1.24,2.27 a 0.97,0.96 42.8 0 0 0.04,0.98 c 1.03,1.57 1.28,2.92 0.45,4.78 -1.52,3.38 -1.19,6.91 -2.74,10.03 -1.95,3.92 -3.63,8.33 -3.91,12.74 -0.22,3.48 -3.28,5.95 0.58,8.81 a 0.9,0.88 -70.5 0 1 0.35,0.75 q -0.08,1.39 -1.32,2.16 a 0.69,0.69 0 0 0 -0.3,0.76 q 0.93,3.46 -0.85,6.53 a 1,0.99 -46.4 0 0 0.02,1.04 l 3.75,5.89 A 1.27,1.27 0 0 1 8,163.9 q -0.31,1.85 -1.76,3.16 -1.59,1.43 -0.85,3.43 0.59,1.62 2.22,2.41 a 1.06,1.05 35.9 0 1 0.28,1.7 c -4.86,4.76 -0.49,7.72 -1.65,12.97 a 3.17,3.17 0 0 0 0.67,2.73 c 3.47,4.11 1.09,8.18 1.1,12.91 a 1.24,1.23 23 0 0 0.35,0.86 c 3.05,3.13 2.54,7.97 2.95,12.07 0.66,6.39 3.31,12.28 5.42,18.35 1.79,5.15 6.61,7.99 8.67,12.77 q 1.23,2.85 1.78,5.96 a 1.45,1.42 -75 0 0 0.47,0.83 q 4.82,4.06 6.24,10.07 c 0.79,3.31 2.36,4.81 4.12,7.45 a 0.64,0.64 0 0 1 -0.44,0.99 L 34.69,273 H 0 v -89.06 c 0.45,-9.96 0.28,-19.24 0.66,-29.9 Q 1.11,141.61 0,129.19 V 6.19 L 0.81,1.69 A 1.06,1.03 -9.1 0 1 1.36,0.95 Q 3.07,0.07 5.06,0 Z"
         inkscape:connector-curvature="0"
         style="fill:#e1e1e1" />
      <path
         id="path32808"
         d="m 60.06,0 h 304.25 l -9.82,0.72 q -0.48,0.04 -0.09,0.32 4.31,3.1 9.01,5.66 c 4.56,2.49 2.56,6.17 4.74,9.65 1.52,2.42 3.95,3.92 5.4,6.19 q 3.87,6.08 8.49,12.58 1.19,1.67 -0.04,3.31 l -1.05,1.41 a 0.84,0.82 46.8 0 0 -0.02,0.97 c 3.3,4.79 6.35,10.54 10.96,20.21 q 1.01,2.12 1.82,5.76 1.66,7.39 6.85,13.07 c 0.95,1.04 0.95,1.89 -0.17,2.73 a 1.54,1.52 -10.9 0 0 -0.55,0.8 l -1.5,5.24 q -0.14,0.47 -0.02,0.95 c 1.39,5.79 2.62,11 7.31,12.93 a 0.9,0.9 0 0 1 0.3,1.45 q -4.04,4.2 -0.04,8.46 a 0.76,0.75 37.6 0 1 0.12,0.88 l -1.91,3.49 a 2.58,2.58 0 0 0 -0.11,2.21 q 1.18,2.79 1.94,4.75 c 1.85,4.77 -1.03,10.14 4.19,12.99 a 0.56,0.55 -59.7 0 1 0.2,0.78 q -2.51,4 -3.35,8.65 a 1.78,1.72 40.2 0 0 0.1,1 q 2.16,5.48 -2.72,8.9 a 1.04,1.02 73.8 0 0 -0.43,0.8 c -0.23,11.8 -1.44,26.87 -7.09,37.46 -1.67,3.14 -2.21,9.85 -5.5,15.55 -0.85,1.47 -0.67,3.16 -1.27,4.85 a 1.49,1.45 -6.9 0 1 -0.63,0.78 q -2.54,1.5 -4.08,3.97 a 1.55,1.55 0 0 0 -0.23,1 c 0.55,5.36 -1.73,7.54 -4.14,11.75 q -4.31,7.51 -10.19,13.86 a 1.66,1.6 -20.9 0 0 -0.4,0.85 l -0.4,2.94 a 1.55,1.52 -20.3 0 1 -0.41,0.87 l -4.81,5.08 a 2.39,2.39 0 0 0 -0.48,2.53 l 0.99,2.46 a 0.74,0.74 0 0 1 -0.34,0.92 q -6.97,3.62 -10.75,10.45 a 0.32,0.32 0 0 0 0.27,0.48 l 15.98,0.34 h -226.5 l 7.7,-0.38 q 0.51,-0.02 0.16,-0.4 c -1.32,-1.46 -3.56,-1.42 -4.88,-2.04 q -2.56,-1.21 -5.15,-2.55 a 1.26,1.23 -87.1 0 1 -0.61,-0.69 q -1.01,-2.74 -2.7,-5.1 c -2.19,-3.07 -2.99,-6.29 -5.55,-9.17 -2.1,-2.36 -2.44,-4.59 -3.58,-7.34 a 1.74,1.71 6.8 0 0 -0.6,-0.75 c -3.58,-2.51 -7.77,-3.22 -7.7,-8.46 q 0.03,-2.4 -1.45,-4.3 c -1.41,-1.82 -2.57,-4.06 -2.81,-6.61 q -0.82,-8.59 -6.35,-17.14 -0.95,-1.47 0.02,-2.82 6.35,2.01 11.09,-2.52 c 3.05,-2.9 10.38,-9.59 10.44,-11.18 A 0.53,0.53 0 0 0 131.46,191 c -0.54,-0.02 -6.65,4.65 -7.92,5.31 q -2.62,1.34 -3.26,-1.53 -0.3,-1.37 0.28,-2.51 c 1.13,-2.21 10.41,-4.14 12.96,-4.77 a 0.35,0.34 82.6 0 1 0.42,0.33 c 0.05,6.91 2.17,13.96 1.61,20.65 a 0.58,0.56 9.1 0 0 0.45,0.61 c 2.84,0.64 8.37,-5.69 9.94,-7.58 q 1.35,-1.62 0.78,-3.64 -1.93,-6.81 -2.78,-13.85 a 0.75,0.75 0 0 1 0.27,-0.67 l 7.44,-6.09 q 0.34,-0.27 0.34,0.16 l 0.01,14.05 a 1.52,1.51 -28.8 0 1 -0.26,0.88 c -6.44,9.58 -3.08,19.37 8.76,20.16 q 2.54,0.17 9.25,-0.8 c 0.1,1.54 0.65,2.59 2.24,3.12 q 6.59,2.18 10.73,7.77 a 0.57,0.56 56 0 0 0.75,0.15 l 1.43,-0.9 a 0.56,0.55 63.1 0 1 0.81,0.27 l 1.42,3.55 a 1.69,1.67 -84.7 0 0 0.65,0.79 l 3.1,2.02 a 1.68,1.62 -27.5 0 0 0.91,0.27 h 3.42 a 1.69,1.66 -27.7 0 1 0.93,0.28 q 5.88,3.95 12.88,5.13 c 3.85,0.65 5.5,2.97 9.95,3.06 q 4.62,0.1 8.79,2.24 a 1.69,1.69 0 0 1 0.7,0.67 c 2.53,4.41 7.19,0.53 9.84,-1.2 a 1.19,1.19 0 0 1 1.78,0.61 c 1.69,4.93 7.62,0.83 10.22,-0.55 1.98,-1.06 4.05,-0.89 6.18,-1.72 a 0.8,0.79 80.6 0 0 0.49,-0.69 l 0.11,-2.48 a 0.69,0.67 84.1 0 1 0.49,-0.62 q 6.52,-1.87 12.5,1.28 a 1.19,1.19 0 0 0 1.45,-0.26 q 3.91,-4.43 9.58,-6.31 2.36,-0.78 2.33,-3.27 0,-0.89 0.44,-1.61 0.39,-0.62 1.64,-1.17 4.09,-1.79 7.12,-5.17 a 0.69,0.68 43.4 0 0 -0.03,-0.94 l -1.07,-1.07 a 0.44,0.44 0 0 1 0.04,-0.65 c 0.58,-0.45 4.3,-1.05 5.41,-1.48 a 1.23,1.21 89.6 0 0 0.71,-0.73 l 0.58,-1.67 a 0.7,0.69 15.5 0 1 0.81,-0.45 l 1.2,0.27 q 0.71,0.17 0.48,-0.53 l -1.61,-4.91 a 0.71,0.71 0 0 1 0.24,-0.79 l 4.12,-3.16 q 0.41,-0.32 0.62,-0.79 l 1.41,-3.32 3.24,0.93 a 1.35,1.34 -51.7 0 0 1.05,-0.13 q 5.52,-3.19 8.87,-8.61 a 0.48,0.48 0 0 0 -0.16,-0.66 l -5.07,-3.06 q -1.9,-1.14 -0.53,-2.89 l 17.03,-21.73 q 1.03,-1.31 1.03,0.35 c -0.04,12.19 -1.81,27.51 4.16,38.02 a 1.55,1.54 -34.1 0 1 -0.38,1.96 q -22.3,17.86 -45.72,33.27 c -3.11,2.05 -13.08,8.86 -13.94,12.21 q -0.55,2.18 1.29,0.91 c 20.96,-14.39 39.98,-27.22 60.46,-44.55 a 0.52,0.52 0 0 1 0.72,0.04 c 3.78,3.98 7.88,5.76 12.47,1.5 1.62,-1.5 7.83,-7.37 7.03,-8.6 a 0.45,0.44 -32.8 0 0 -0.62,-0.13 q -4.65,3.07 -7.96,-1.68 a 1.73,1.72 50.4 0 1 0.2,-2.2 l 19.3,-19.31 q 0.48,-0.48 0.51,0.19 c 0.52,9.26 -1.33,17.76 5.44,25.39 a 0.61,0.6 49.5 0 0 0.84,0.07 q 4.9,-3.96 9.11,-8.68 a 0.58,0.58 0 0 0 -0.01,-0.78 c -5.92,-6.37 -5.48,-13.55 -5.17,-23.12 0.1,-3.02 1.59,-4.78 3.2,-7.13 a 0.62,0.62 0 0 0 -0.12,-0.83 q -0.87,-0.74 -2.06,-0.51 a 0.83,0.83 0 0 1 -0.99,-0.82 l -0.03,-16.66 a 0.81,0.81 0 0 0 -1.14,-0.74 q -5.21,2.28 -8.01,7.46 c -1.5,2.77 -0.7,7.16 -1.02,10.39 a 0.6,0.6 0 0 1 -0.82,0.49 q -2.38,-0.99 -1.75,-3.85 0.56,-2.59 -1.74,-1.29 c -3.55,2 -9.12,7.38 -8.3,12.21 q 0.41,2.47 2.92,2.56 l 8.83,0.33 q 1.8,0.07 0.53,1.34 l -21.94,21.86 a 0.47,0.47 0 0 1 -0.74,-0.1 c -3.02,-5.15 -4.24,-9.77 -4.46,-16.14 q -0.44,-13.13 -0.08,-26.04 a 3.98,3.98 0 0 1 1.06,-2.6 l 3.96,-4.24 a 0.48,0.47 34.1 0 0 -0.15,-0.76 q -1.06,-0.49 -3.73,2.04 -2.96,2.8 -1.36,-0.32 0.39,-0.74 0.19,-1.44 a 0.74,0.73 -22 0 0 -1.05,-0.44 c -5.32,2.81 -8.77,6.23 -8.93,12.5 a 1.55,1.55 0 0 1 -0.31,0.9 l -12.15,16.12 c -1.63,-1.94 -1.07,-3.31 0.83,-4.78 3.24,-2.49 2.76,-5.59 4.64,-8.53 q 2.19,-3.41 5.05,-6.31 c 1.26,-1.28 1.28,-2.49 -0.26,-3.47 a 0.73,0.73 0 0 1 -0.31,-0.78 l 0.67,-2.8 q 0.12,-0.5 0.07,-1.02 -0.25,-2.75 -0.4,-5.51 -0.12,-2.28 -0.96,-5.85 c -1.09,-4.67 0.62,-8.16 1.11,-12.42 a 0.89,0.88 22.9 0 0 -0.33,-0.8 q -2.88,-2.3 -4.15,-5.69 c 7.8,0.93 13.75,1.86 19.82,-0.95 12.81,-5.94 25.34,-18.8 25.93,-33.64 0.6,-15.39 -19.62,-26.51 -33.1,-26.17 -7.96,0.2 -16.17,11.46 -20.08,17.54 A 0.94,0.94 0 0 1 316.36,69 l -12.79,1.12 q -1.08,0.1 -0.37,-0.72 c 3.86,-4.46 9.14,-10.41 8.82,-16.68 q -0.13,-2.5 -2.63,-2.34 -9.49,0.64 -18.35,4.13 a 0.38,0.38 0 0 1 -0.52,-0.36 c 0.03,-1.43 0.69,-7.58 -1.77,-7.19 -1.2,-5.3 -20.48,-14.74 -25.63,-16.94 q -4.43,-1.9 -9.17,-5.49 c -3.27,-2.49 -7.24,-2.04 -10.75,-3.08 q -5.64,-1.68 -11.53,-2.16 c -2.91,-0.24 -4.52,-1.67 -6.96,-3.02 a 0.52,0.51 -76.4 0 0 -0.76,0.47 l 0.02,1.27 a 0.4,0.4 0 0 1 -0.5,0.39 c -2.26,-0.63 -4.36,-2.25 -6.52,-2.3 -5.88,-0.16 -7.32,6.42 -13.88,2.07 a 0.88,0.86 43.9 0 0 -0.98,0.01 l -2.38,1.7 A 0.99,0.98 37.1 0 1 198.8,20 l -5.6,-2.09 a 1.03,1.02 35.2 0 0 -1,0.17 c -3.54,2.85 -6.86,1.87 -10.48,2.63 -7.18,1.51 -15.76,1.32 -20.41,8.13 a 1.23,1.22 10.9 0 1 -0.78,0.52 l -5.39,1.1 a 1.62,1.62 0 0 0 -0.81,0.44 c -2.03,2.07 -3.49,3.97 -6.29,5.12 -3.73,1.53 -6.82,2.32 -10.04,5.51 a 0.8,0.77 -66.1 0 1 -0.54,0.22 l -0.34,0.01 a 1.53,1.5 -64 0 0 -0.9,0.32 l -5.8,4.58 a 0.55,0.55 0 0 0 -0.11,0.74 q 0.52,0.74 0.44,1.56 c -5.02,0.28 -11.5,4.28 -16.2,7.08 q -1.26,0.75 -5.05,5.75 -3.5,0.08 -5.24,2.72 c -3.02,4.59 -6.54,7.84 -11.22,10.74 Q 90.91,42 93.01,8.69 A 1.16,1.16 0 0 0 91.38,7.56 c -6.49,2.91 -9.11,8.96 -9.22,16.09 -0.28,18.41 -4.38,38.88 -12.75,55.2 q -1.03,2 -3.13,1.2 c -3.89,-1.47 -5.04,-4.16 -5.12,-8.38 q -0.51,-26.47 0.46,-53 0.09,-2.35 -1.73,-0.86 c -2.36,1.93 -7.76,5.49 -7.99,8.44 q -1.44,18.11 -0.78,53.79 c 0.22,11.68 8.54,12.35 16.21,5.96 q 9.68,-8.07 14.05,-20.25 0.01,-0.03 0.04,-0.03 l 0.29,0.02 a 0.27,0.27 0 0 1 0.25,0.27 l 0.75,29.49 -1.23,0.29 a 1.04,1.01 3.2 0 0 -0.71,0.62 q -1.95,4.8 -6.63,7.21 a 1.09,1.07 -14.4 0 0 -0.58,0.97 l 0.1,4.06 a 1.87,1.86 -14.6 0 1 -1,1.7 q -3.01,1.56 -2.41,5.11 c -5.71,1.36 -11.2,1.38 -14.98,-3.59 a 0.58,0.57 -41.4 0 1 0.05,-0.76 c 1.23,-1.27 4.91,-4.35 4.75,-6.1 a 0.52,0.51 -4.4 0 0 -0.56,-0.47 c -5.32,0.49 -13.16,6.6 -14.39,11.86 -1.2,5.11 3.23,9.27 8.13,9.59 q 6.91,0.45 14.5,-2.03 -0.54,7.81 -3.41,14.84 c -21.24,13.83 -26.94,39.06 -26.8,62.77 0.1,15.39 15.64,16.24 25.17,8.68 l 0.21,6.52 a 1.09,1.08 70.3 0 1 -0.42,0.9 l -1.1,0.83 a 0.74,0.73 -33.7 0 0 -0.19,0.94 q 3.36,6.02 5.24,12.67 a 1.63,1.63 0 0 0 0.59,0.86 q 3.82,2.86 5.26,7.46 0.33,1.05 1.94,1.68 a 0.72,0.71 11 0 1 0.45,0.66 q 0.01,0.66 0.27,1.23 -0.08,3.83 -0.17,7.66 c -0.09,4.24 -1.74,8.24 -1.55,12.91 a 0.54,0.54 0 0 0 0.7,0.49 q 2.45,-0.74 3.92,-2.29 2.07,0.8 3.64,2.07 c 1.96,1.57 2.1,3.79 2.73,6.13 a 0.88,0.86 89.8 0 0 0.61,0.62 q 4.75,1.29 9.6,1.41 H 34.69 l 2.88,-0.44 a 0.64,0.64 0 0 0 0.44,-0.99 c -1.76,-2.64 -3.33,-4.14 -4.12,-7.45 q -1.42,-6.01 -6.24,-10.07 a 1.45,1.42 -75 0 1 -0.47,-0.83 q -0.55,-3.11 -1.78,-5.96 c -2.06,-4.78 -6.88,-7.62 -8.67,-12.77 -2.11,-6.07 -4.76,-11.96 -5.42,-18.35 -0.41,-4.1 0.1,-8.94 -2.95,-12.07 A 1.24,1.23 23 0 1 8.01,203.21 C 8,198.48 10.38,194.41 6.91,190.3 A 3.17,3.17 0 0 1 6.24,187.57 C 7.4,182.32 3.03,179.36 7.89,174.6 a 1.06,1.05 35.9 0 0 -0.28,-1.7 q -1.63,-0.79 -2.22,-2.41 -0.74,-2 0.85,-3.43 1.45,-1.31 1.76,-3.16 a 1.27,1.27 0 0 0 -0.18,-0.89 l -3.75,-5.89 a 1,0.99 -46.4 0 1 -0.02,-1.04 q 1.78,-3.07 0.85,-6.53 a 0.69,0.69 0 0 1 0.3,-0.76 q 1.24,-0.77 1.32,-2.16 a 0.9,0.88 -70.5 0 0 -0.35,-0.75 c -3.86,-2.86 -0.8,-5.33 -0.58,-8.81 0.28,-4.41 1.96,-8.82 3.91,-12.74 1.55,-3.12 1.22,-6.65 2.74,-10.03 0.83,-1.86 0.58,-3.21 -0.45,-4.78 a 0.97,0.96 42.8 0 1 -0.04,-0.98 l 1.24,-2.27 a 1.23,1.22 -40.6 0 0 0.08,-0.97 l -1.14,-3.36 a 1.35,1.33 50 0 1 0.08,-1.02 Q 13.54,98 16.06,95.86 a 1.87,1.81 -12 0 0 0.56,-0.83 c 0.68,-2.06 1.23,-3.43 0.95,-5.74 -0.76,-6.18 1.62,-13.16 7.84,-15.66 a 0.59,0.59 0 0 0 0.35,-0.73 q -1.29,-4.19 -0.54,-8.56 a 3.07,3.07 0 0 1 1.75,-2.26 l 3.79,-1.71 a 0.76,0.76 0 0 0 0.44,-0.79 q -0.62,-5.34 0.35,-10.62 0.3,-1.6 1.74,-2.36 l 5.04,-2.64 a 1.56,1.55 71 0 0 0.8,-1.66 c -1.27,-6.63 1.78,-7.58 6.86,-9.88 a 1.28,1.27 -17.2 0 0 0.73,-1.38 q -1.54,-8.68 5.01,-13.26 c 1.28,-0.9 3.35,-1.17 4.83,-2.23 a 1.11,1.1 -15.7 0 0 0.46,-0.81 C 57.51,9.01 60,6.02 61.24,1.16 A 0.66,0.65 20.7 0 0 60.89,0.4 Z"
         inkscape:connector-curvature="0"
         style="fill:#ffffff" />
      <path
         id="path32810"
         d="m 364.31,0 h 49.25 l 2.48,0.43 a 1.09,1.07 78.5 0 1 0.74,0.5 c 2.51,3.99 5.19,7.82 7.2,12.04 3.78,7.94 7.19,15.94 11.74,23.49 3.66,6.08 6.45,15.01 8.28,20.3 q 1.71,4.96 2,16.8 v 118.75 q -0.55,6.69 -0.31,13.43 c 0.11,3.21 -1.39,4.87 -3.31,7.12 a 0.95,0.95 0 0 0 -0.19,0.86 c 2.09,7.94 -2.92,16.76 -7.37,22.71 -1.35,1.8 -3.59,3.3 -5.19,5.22 a 1.63,1.6 69 0 0 -0.36,0.83 q -0.86,6.81 -5.34,12.05 a 0.99,0.97 55.2 0 0 -0.17,0.99 l 0.83,2.13 a 1.6,1.58 -47.7 0 1 0.04,1.04 L 420.44,273 h -50 l -15.98,-0.34 a 0.32,0.32 0 0 1 -0.27,-0.48 q 3.78,-6.83 10.75,-10.45 a 0.74,0.74 0 0 0 0.34,-0.92 l -0.99,-2.46 a 2.39,2.39 0 0 1 0.48,-2.53 l 4.81,-5.08 a 1.55,1.52 -20.3 0 0 0.41,-0.87 l 0.4,-2.94 a 1.66,1.6 -20.9 0 1 0.4,-0.85 q 5.88,-6.35 10.19,-13.86 c 2.41,-4.21 4.69,-6.39 4.14,-11.75 a 1.55,1.55 0 0 1 0.23,-1 q 1.54,-2.47 4.08,-3.97 a 1.49,1.45 -6.9 0 0 0.63,-0.78 c 0.6,-1.69 0.42,-3.38 1.27,-4.85 3.29,-5.7 3.83,-12.41 5.5,-15.55 5.65,-10.59 6.86,-25.66 7.09,-37.46 a 1.04,1.02 73.8 0 1 0.43,-0.8 q 4.88,-3.42 2.72,-8.9 a 1.78,1.72 40.2 0 1 -0.1,-1 q 0.84,-4.65 3.35,-8.65 a 0.56,0.55 -59.7 0 0 -0.2,-0.78 c -5.22,-2.85 -2.34,-8.22 -4.19,-12.99 q -0.76,-1.96 -1.94,-4.75 a 2.58,2.58 0 0 1 0.11,-2.21 l 1.91,-3.49 a 0.76,0.75 37.6 0 0 -0.12,-0.88 q -4,-4.26 0.04,-8.46 a 0.9,0.9 0 0 0 -0.3,-1.45 c -4.69,-1.93 -5.92,-7.14 -7.31,-12.93 q -0.12,-0.48 0.02,-0.95 l 1.5,-5.24 a 1.54,1.52 -10.9 0 1 0.55,-0.8 c 1.12,-0.84 1.12,-1.69 0.17,-2.73 q -5.19,-5.68 -6.85,-13.07 -0.81,-3.64 -1.82,-5.76 C 387.28,51.35 384.23,45.6 380.93,40.81 a 0.84,0.82 46.8 0 1 0.02,-0.97 L 382,38.43 q 1.23,-1.64 0.04,-3.31 -4.62,-6.5 -8.49,-12.58 c -1.45,-2.27 -3.88,-3.77 -5.4,-6.19 -2.18,-3.48 -0.18,-7.16 -4.74,-9.65 q -4.7,-2.56 -9.01,-5.66 -0.39,-0.28 0.09,-0.32 z"
         inkscape:connector-curvature="0"
         style="fill:#e1e1e1" />
      <path
         id="path32812"
         d="M 413.56,0 H 446 v 73.56 q -0.29,-11.84 -2,-16.8 c -1.83,-5.29 -4.62,-14.22 -8.28,-20.3 -4.55,-7.55 -7.96,-15.55 -11.74,-23.49 -2.01,-4.22 -4.69,-8.05 -7.2,-12.04 a 1.09,1.07 78.5 0 0 -0.74,-0.5 z"
         inkscape:connector-curvature="0"
         style="fill:#ffffff" />
      <path
         id="path32814"
         d="m 93.04,75.25 q 0.29,13.8 -0.58,20.18 c -1.81,13.25 -13.22,23.47 -24.71,28.53 q -7.59,2.48 -14.5,2.03 c -4.9,-0.32 -9.33,-4.48 -8.13,-9.59 1.23,-5.26 9.07,-11.37 14.39,-11.86 a 0.52,0.51 -4.4 0 1 0.56,0.47 c 0.16,1.75 -3.52,4.83 -4.75,6.1 a 0.58,0.57 -41.4 0 0 -0.05,0.76 c 3.78,4.97 9.27,4.95 14.98,3.59 12.78,-0.79 12.68,-9.98 12.46,-19.96 L 81.96,66.01 a 0.27,0.27 0 0 0 -0.25,-0.27 l -0.29,-0.02 q -0.03,0 -0.04,0.03 Q 77.01,77.93 67.33,86 C 59.66,92.39 51.34,91.72 51.12,80.04 Q 50.46,44.36 51.9,26.25 c 0.23,-2.95 5.63,-6.51 7.99,-8.44 q 1.82,-1.49 1.73,0.86 -0.97,26.53 -0.46,53 c 0.08,4.22 1.23,6.91 5.12,8.38 q 2.1,0.8 3.13,-1.2 C 77.78,62.53 81.88,42.06 82.16,23.65 82.27,16.52 84.89,10.47 91.38,7.56 a 1.16,1.16 0 0 1 1.63,1.13 Q 90.91,42 93.04,75.25 Z"
         inkscape:connector-curvature="0"
         style="fill:#040404" />
      <path
         id="path32816"
         d="m 288.75,46.96 c -12.43,3.1 -21.02,7.49 -30.98,13.24 q -1.21,0.7 -0.79,-0.63 c 1.23,-3.9 2.58,-9.8 -2.95,-11.04 -15.2,-3.42 -28.14,9.75 -35.28,21.76 q -1.87,-0.77 -2.85,-2.54 a 0.87,0.86 -12.5 0 0 -0.73,-0.46 l -0.88,-0.04 -0.48,-13.88 a 1.45,1.45 0 0 0 -1.43,-1.4 c -9.81,-0.16 -22,7.26 -28.63,14.64 a 0.32,0.32 0 0 1 -0.53,-0.08 c -3.25,-6.97 -6.5,-13.27 -15.29,-12.77 -7.59,0.43 -14.57,8.82 -18.01,15 q -0.6,1.07 -0.76,-0.14 l -0.29,-2.14 a 0.58,0.58 0 0 0 -0.56,-0.5 q -2.99,-0.02 -5.48,1.59 a 0.43,0.43 0 0 1 -0.66,-0.31 Q 141.42,60.6 139.6,54.18 c -1.33,-4.66 -4.08,-6.61 -8.85,-5.22 q 0.08,-0.82 -0.44,-1.56 a 0.55,0.55 0 0 1 0.11,-0.74 l 5.8,-4.58 a 1.53,1.5 -64 0 1 0.9,-0.32 l 0.34,-0.01 A 0.8,0.77 -66.1 0 0 138,41.53 c 3.22,-3.19 6.31,-3.98 10.04,-5.51 2.8,-1.15 4.26,-3.05 6.29,-5.12 a 1.62,1.62 0 0 1 0.81,-0.44 l 5.39,-1.1 a 1.23,1.22 10.9 0 0 0.78,-0.52 c 4.65,-6.81 13.23,-6.62 20.41,-8.13 3.62,-0.76 6.94,0.22 10.48,-2.63 a 1.03,1.02 35.2 0 1 1,-0.17 l 5.6,2.09 a 0.99,0.98 37.1 0 0 0.91,-0.12 l 2.38,-1.7 a 0.88,0.86 43.9 0 1 0.98,-0.01 c 6.56,4.35 8,-2.23 13.88,-2.07 2.16,0.05 4.26,1.67 6.52,2.3 a 0.4,0.4 0 0 0 0.5,-0.39 l -0.02,-1.27 a 0.52,0.51 -76.4 0 1 0.76,-0.47 c 2.44,1.35 4.05,2.78 6.96,3.02 q 5.89,0.48 11.53,2.16 c 3.51,1.04 7.48,0.59 10.75,3.08 q 4.74,3.59 9.17,5.49 c 5.15,2.2 24.43,11.64 25.63,16.94 z"
         inkscape:connector-curvature="0"
         style="fill:#e1e1e1" />
      <path
         id="path32818"
         d="m 288.75,46.96 c 2.46,-0.39 1.8,5.76 1.77,7.19 a 0.38,0.38 0 0 0 0.52,0.36 q 8.86,-3.49 18.35,-4.13 2.5,-0.16 2.63,2.34 c 0.32,6.27 -4.96,12.22 -8.82,16.68 q -0.71,0.82 0.37,0.72 L 316.36,69 a 0.94,0.94 0 0 0 0.71,-0.43 c 3.91,-6.08 12.12,-17.34 20.08,-17.54 13.48,-0.34 33.7,10.78 33.1,26.17 -0.59,14.84 -13.12,27.7 -25.93,33.64 -6.07,2.81 -12.02,1.88 -19.82,0.95 q -7,-0.88 -9.87,-7.04 a 0.38,0.37 57.2 0 0 -0.58,-0.13 q -6.84,5.85 -9.33,7.13 c -8.08,4.14 -20.27,6.61 -28.88,2.53 q -2.82,-3.02 -3.88,-7.28 c -0.68,-5.09 1.14,-7.81 4.64,-11.24 2.99,-2.92 3.65,-6.37 3.3,-10.36 a 0.5,0.5 0 0 0 -0.68,-0.42 l -1.61,0.65 a 0.47,0.47 0 0 1 -0.62,-0.28 c -0.81,-2.4 2.97,-3.29 3,-6.23 q 0.08,-6.58 -0.06,-12.66 a 0.64,0.64 0 0 0 -0.88,-0.58 q -1.77,0.71 -3.64,0.74 -0.88,0.01 -0.4,-0.73 c 1.1,-1.69 5.54,-6.53 5.13,-8.25 a 0.53,0.53 0 0 0 -0.63,-0.4 q -11.07,2.37 -20.87,7.94 c -5.29,3 -7.46,8.46 -12.73,11.64 l -1.47,-2.31 a 0.44,0.44 0 0 0 -0.6,-0.14 q -1.38,0.81 -2.63,0.13 c 2.88,-4.4 6.2,-6.54 6.84,-12.04 q 0.27,-2.39 -1.94,-3.32 -5.79,-2.46 -11.98,-0.51 c -4.96,1.56 -7.9,7.12 -9.61,11.69 -3.35,6.25 -10.68,26.82 -1.2,30.89 14.63,6.28 28.79,1.56 32.84,-15.08 q 0.58,-4 0.86,-7.89 c 0.52,-7.33 4.78,-12.68 11.23,-16.03 a 0.54,0.54 0 0 1 0.79,0.47 q 0.16,6.4 -1.59,12.43 c -2.46,8.47 -2.04,21.22 -0.66,29.89 -0.66,0.87 -10.37,13.53 -10.62,6.95 q -0.31,-8.03 -0.16,-15.39 0.03,-1.53 -0.93,-0.34 c -5.7,7.05 -13.88,14.87 -22.98,16.86 -4.09,0.89 -9.04,0.11 -13.52,-0.19 a 0.47,0.47 0 0 0 -0.5,0.46 c -0.03,4.12 1.11,13.61 -0.62,16.86 q -4.26,8.02 -12.18,12.2 a 1.59,1.58 78.9 0 0 -0.84,1.26 l -2.25,26.06 a 1.3,1.29 -88.8 0 0 1.35,1.41 l 10.33,-0.55 a 1.33,1.32 -89 0 0 1.25,-1.21 q 0.58,-7.12 0.93,-14.46 c 0.22,-4.52 4.93,-8.66 8.54,-10.55 a 1.01,1 -12.9 0 1 1.47,0.92 l -0.28,10.15 a 0.48,0.47 88.9 0 0 0.5,0.49 q 0.48,-0.02 0.84,-0.6 3.67,-5.94 10.08,-8.7 c 8.34,-3.58 18.89,-8.14 27.97,-8.68 a 0.86,0.86 0 0 1 0.9,1 c -0.57,3.38 -11.32,16.74 -14.66,16.8 q -1.12,0.02 -0.44,-0.87 l 4.69,-6.21 q 0.96,-1.28 -0.6,-0.94 c -10.21,2.23 -19.47,6.12 -29.12,9.94 a 0.99,0.97 -9.1 0 0 -0.63,0.85 l -0.42,6.15 q -0.09,1.23 0.61,0.21 4.31,-6.36 11.86,-7.82 a 0.54,0.54 0 0 1 0.64,0.53 v 3.6 a 0.41,0.4 85.2 0 0 0.47,0.4 q 6.24,-1.07 12.44,-2.33 c 1.3,-0.27 3.69,-1.15 5.53,-1.02 q 1.3,0.1 0.44,1.08 -2.93,3.34 -6.17,6.38 c -4.46,4.19 -11.92,5.44 -12.61,12.95 q -0.59,6.42 -0.06,12.85 l 0.12,2.12 a 0.95,0.94 -77.6 0 0 0.49,0.78 c 6,3.35 12.49,2.47 17.94,2.79 a 0.3,0.3 0 0 1 0.23,0.46 c -7.9,12.68 -21.46,11.53 -32.48,4.13 q -1.93,-1.3 -1.21,-3.52 1.78,-5.43 3.82,-11 c 1.91,-5.19 1.14,-12.24 1,-17.74 a 0.32,0.31 75.7 0 0 -0.46,-0.28 q -3.14,1.68 -3.68,5.08 -1.34,8.47 -1.94,19.32 c -0.31,5.55 -4.55,9.6 -9.25,12.02 a 0.33,0.33 0 0 1 -0.49,-0.27 c -0.61,-7.24 0.64,-14.6 1.86,-25.93 a 0.45,0.45 0 0 0 -0.53,-0.49 l -11.72,2 a 0.67,0.67 0 0 0 -0.55,0.59 c -0.52,5.3 0.24,13.27 -1.85,17.71 -2.36,5.02 -11.83,12.37 -16.09,4.87 a 0.39,0.39 0 0 0 -0.61,-0.09 q -5.66,5.21 -12.89,7.66 -6.71,0.97 -9.25,0.8 c -11.84,-0.79 -15.2,-10.58 -8.76,-20.16 a 1.52,1.51 -28.8 0 0 0.26,-0.88 l -0.01,-14.05 q 0,-0.43 -0.34,-0.16 l -7.44,6.09 a 0.75,0.75 0 0 0 -0.27,0.67 q 0.85,7.04 2.78,13.85 0.57,2.02 -0.78,3.64 c -1.57,1.89 -7.1,8.22 -9.94,7.58 a 0.58,0.56 9.1 0 1 -0.45,-0.61 c 0.56,-6.69 -1.56,-13.74 -1.61,-20.65 a 0.35,0.34 82.6 0 0 -0.42,-0.33 c -2.55,0.63 -11.83,2.56 -12.96,4.77 q -0.58,1.14 -0.28,2.51 0.64,2.87 3.26,1.53 c 1.27,-0.66 7.38,-5.33 7.92,-5.31 a 0.53,0.53 0 0 1 0.51,0.55 c -0.06,1.59 -7.39,8.28 -10.44,11.18 q -4.74,4.53 -11.09,2.52 -0.49,-6.19 2.59,-11.56 0.34,-0.59 -0.32,-0.41 l -6.96,1.88 a 1.31,1.3 -82.4 0 0 -0.79,0.61 c -2.63,4.6 -9.34,12.46 -14.91,13.17 q -1.22,0.15 -2.46,0.55 a 0.74,0.74 0 0 0 -0.52,0.65 q -1.61,19.5 -2.86,39.03 c -0.45,6.93 -1.03,9.03 -6.35,13.6 q -1.47,1.55 -3.92,2.29 a 0.54,0.54 0 0 1 -0.7,-0.49 c -0.19,-4.67 1.46,-8.67 1.55,-12.91 q 0.09,-3.83 0.17,-7.66 l 2.7,-35.3 a 0.79,0.79 0 0 0 -0.29,-0.67 l -6.08,-4.93 a 0.58,0.57 43.3 0 0 -0.74,0.02 l -7.84,7.13 c -9.53,7.56 -25.07,6.71 -25.17,-8.68 -0.14,-23.71 5.56,-48.94 26.8,-62.77 l 5.42,0.28 q 2.27,0.11 2.05,2.38 -0.84,8.35 -2.07,16.29 c -0.71,4.55 -6.35,8.73 -9.16,10.94 a 0.63,0.62 46.2 0 1 -0.79,-0.02 c -1.46,-1.27 0.52,-8.71 0.67,-9.92 l 0.69,-8.86 a 0.69,0.69 0 0 0 -0.45,-0.7 c -2.48,-0.94 -4.16,0.26 -5.17,2.63 q -8.98,21.13 -7.82,44.25 c 0.35,6.92 7.16,8.75 12.98,8.93 q 5.44,-0.61 8.53,-4.83 a 1.26,1.22 59.6 0 0 0.22,-0.9 c -0.98,-7.07 3.98,-12.76 8.18,-17.82 a 1.41,1.4 -24.5 0 0 0.31,-0.82 l 0.3,-11.02 a 1.63,1.63 0 0 1 0.38,-0.99 q 3.54,-4.15 2.29,-9.74 a 0.59,0.59 0 0 0 -0.87,-0.38 l -1.6,0.93 a 0.28,0.28 0 0 1 -0.39,-0.11 c -0.27,-0.51 2.49,-5.29 2.89,-6.22 2.16,-5 4.68,-7.56 9.17,-10.06 a 0.43,0.43 0 0 1 0.63,0.28 l 0.22,0.91 a 0.52,0.52 0 0 0 0.81,0.3 q 4.44,-3.17 9.67,-4.76 a 0.84,0.84 0 0 0 0.59,-0.71 c 0.96,-9.23 1.41,-18.56 2.7,-27.68 q 2.65,-18.76 4.2,-37.63 0.11,-1.32 0.08,-1.99 -0.08,-1.46 -0.99,-0.32 -3.66,4.6 -8.3,8.25 a 0.37,0.37 0 0 1 -0.58,-0.17 c -0.9,-2.63 7.3,-13.53 10.37,-17.73 q 3.79,-5 5.05,-5.75 c 4.7,-2.8 11.18,-6.8 16.2,-7.08 4.77,-1.39 7.52,0.56 8.85,5.22 q 1.82,6.42 2.57,13.08 a 0.43,0.43 0 0 0 0.66,0.31 q 2.49,-1.61 5.48,-1.59 a 0.58,0.58 0 0 1 0.56,0.5 l 0.29,2.14 q 0.16,1.21 0.76,0.14 c 3.44,-6.18 10.42,-14.57 18.01,-15 8.79,-0.5 12.04,5.8 15.29,12.77 a 0.32,0.32 0 0 0 0.53,0.08 c 6.63,-7.38 18.82,-14.8 28.63,-14.64 a 1.45,1.45 0 0 1 1.43,1.4 l 0.48,13.88 q -4.03,19.18 -15.91,33.82 -1.04,1.28 0.58,0.92 l 9.39,-2.13 a 0.74,0.74 0 0 0 0.57,-0.65 c 1.09,-10.79 4.21,-19.63 9.83,-28.92 7.14,-12.01 20.08,-25.18 35.28,-21.76 5.53,1.24 4.18,7.14 2.95,11.04 q -0.42,1.33 0.79,0.63 c 9.96,-5.75 18.55,-10.14 30.98,-13.24 z m -163.91,11.82 -4.22,0.05 a 1.66,1.66 0 0 0 -1.64,1.61 q -0.36,12.31 -1.87,24.88 -0.22,1.77 -0.12,2.87 0.16,1.9 1.22,0.32 5.3,-7.85 13.03,-13.38 a 0.95,0.95 0 0 0 0.39,-0.84 q -0.49,-6.52 -2.68,-12.65 -1.04,-2.89 -4.11,-2.86 z m 165.72,3.6 -0.47,11.09 a 0.3,0.3 0 0 0 0.43,0.29 c 6.52,-2.94 12.29,-5.17 11.43,-12.27 a 1.54,1.53 82.5 0 0 -1.74,-1.34 l -8.79,1.28 a 1,0.99 -3.1 0 0 -0.86,0.95 z m 37.8,-1.67 c -2.55,0.55 -8.4,9.71 -7.1,12.07 q 0.54,0.97 1.07,0 l 6.37,-11.62 q 0.33,-0.6 -0.34,-0.45 z m 5.48,0.9 c -3.43,7.01 -15.19,33.28 -5.56,38.16 6.54,3.31 23.97,5.92 28.9,-2.24 10.73,-17.76 -6.96,-32.57 -22.38,-36.37 a 0.84,0.83 -69.8 0 0 -0.96,0.45 z m -138.8,8.14 0.09,29.02 q 0,0.51 0.26,0.07 c 6.07,-10.42 9.38,-19.77 8.82,-31.59 l -0.28,-4.77 a 0.73,0.73 0 0 0 -0.84,-0.67 l -7.26,1.13 a 0.83,0.83 0 0 0 -0.7,0.81 z m -45.25,21 c -0.48,8.26 5.68,17.3 14.63,14.99 11.13,-2.87 10.77,-22.24 8.54,-30.24 -1.7,-5.87 -8.13,-14.19 -15.23,-11.19 a 1.38,1.34 -87.2 0 0 -0.69,0.64 c -4.05,7.7 -7.7,16.99 -7.25,25.8 z m 10.96,24.79 q -2.09,1.71 -4.75,2.25 -1.69,-0.33 -10.98,-3.07 c -7.72,-2.29 -5.92,-7.54 -6.06,-13.72 v -6.47 q 0,-1.4 -0.67,-0.17 c -5.16,9.43 -13.78,18.33 -24.49,21.14 a 0.69,0.69 0 0 0 -0.51,0.64 l -1.25,33.61 0.02,5.68 q 0,0.51 0.43,0.24 17.18,-10.68 36.26,-17.46 l 3.74,-0.18 q 1.58,-0.07 0.54,1.13 l -7.78,9.05 q -2.39,2.06 -2.42,5.97 -0.08,9.44 0.39,20.87 a 1.56,1.55 -7.9 0 0 1.91,1.44 q 2.79,-0.67 6.61,-2.9 l 0.4,-15.38 a 1.82,1.79 -27.7 0 1 0.32,-0.99 l 3.25,-4.74 q 0.51,-0.73 -0.27,-0.3 l -5.54,3.03 a 0.33,0.32 -35.9 0 1 -0.39,-0.06 l -0.19,-0.19 a 0.68,0.68 0 0 1 -0.08,-0.84 c 4.1,-6.22 9.2,-9 16.49,-12.6 3.88,-1.91 10.31,-5.25 14.66,-4.66 q 1.7,0.24 2.06,1.91 c 1.51,6.88 -0.16,14.12 -3.51,19.54 q -1.26,2.04 1.12,1.73 9.85,-1.27 11.43,8.18 0.94,5.64 1.51,0.06 0.59,-5.89 1.04,-14.43 c 0.21,-4.03 1.85,-6.49 4.64,-9.02 a 0.74,0.74 0 0 0 0.19,-0.81 c -3.29,-8.43 1,-13.91 8.61,-17.01 q 1.03,-4.82 -1.21,-11.3 -2.71,-7.84 -10.27,-5.2 c -9.05,1.47 -15.05,8.8 -22.36,13.52 q -2.07,1.33 -1.53,-1.07 c 0.86,-3.81 9.18,-10.36 12.34,-12.92 a 1.09,1.09 0 0 0 0.41,-0.83 l 0.1,-4.21 c 0.03,-11.89 -0.82,-24.74 0.69,-36.48 q 0.07,-0.53 -0.41,-0.29 c -1.59,0.78 -1.31,7.05 -1.39,10.19 -0.44,16.88 -10.84,26.14 -23.1,37.12 z M 297.2,85.68 c -0.03,3.03 -5.83,7.31 -7.7,8.73 a 1.03,1.01 73.2 0 0 -0.39,0.74 l -0.66,10.15 a 0.46,0.45 5.6 0 0 0.39,0.47 q 10.18,1.31 19.91,-1.78 c 4.07,-1.29 4.45,-4.44 4.42,-8.25 -0.04,-6.56 1.2,-16.85 -8.44,-16.98 q -2.6,-0.03 -11.1,1.38 c -3.79,0.63 -5.08,2.89 -4.42,6.5 a 0.55,0.54 -8.4 0 0 0.6,0.44 q 3.5,-0.43 6.77,-1.82 a 0.45,0.45 0 0 1 0.62,0.42 z m -174.53,19.04 c 9.7,2.85 9.91,-20.76 9.11,-25.51 a 0.3,0.3 0 0 0 -0.46,-0.2 c -8.2,5.54 -14.22,15.25 -9.35,25.12 a 1.13,1.13 0 0 0 0.7,0.59 z m 49,55.95 q 2.03,-5.72 1.08,-11.75 -0.31,-1.99 -2.32,-1.96 -4.36,0.08 -7.97,2.41 A 0.99,0.98 -16.2 0 0 162,150.2 v 15.34 q 0,0.8 0.64,0.32 3.79,-2.79 8.22,-4.38 a 1.32,1.32 0 0 0 0.81,-0.81 z m -63.43,29.74 q 3.7,-4.38 9.21,-6.02 a 1.11,1.09 -85.3 0 0 0.67,-0.58 q 9.25,-19.01 22.63,-35.36 0.55,-0.67 -0.27,-0.38 -14.29,5.14 -27.53,12.57 a 1.96,1.96 0 0 0 -1,1.79 c 0.16,3.85 0.57,8.23 -1.1,11.63 q -0.51,1.04 -0.62,2.14 -0.7,7.39 -2.92,13.67 -1,2.82 0.93,0.54 z M 96.62,148.99 q -2.84,-0.28 -5.21,1.2 a 0.97,0.95 -17.9 0 0 -0.44,0.84 q 0.31,9.52 -0.96,18.97 -0.12,0.87 0.59,0.36 l 9.11,-6.57 a 1.16,1.16 0 0 0 0.48,-0.92 q 0.09,-5.97 -1.19,-11.78 -0.43,-1.91 -2.38,-2.1 z m 35.9,18.25 c -0.52,0.17 -6.85,12.77 -7.61,14.28 q -0.36,0.71 0.42,0.55 l 6,-1.2 a 2.05,2.04 -5.6 0 0 1.64,-1.99 l 0.04,-11.29 a 0.37,0.37 0 0 0 -0.49,-0.35 z M 88.4,198.91 c 1.57,0.61 4.92,0.95 6.43,0.84 q 2.34,-0.17 2.93,-2.44 3.68,-14.02 3.22,-28.55 a 0.59,0.58 -15.5 0 0 -0.87,-0.48 c -4.79,2.65 -10.6,5.25 -10.82,11.72 q -0.1,3.05 -1.32,18.21 a 0.69,0.68 13.7 0 0 0.43,0.7 z m 84.89,-28.97 c -3.36,-0.23 -12.84,6.9 -11.04,10.67 a 0.23,0.23 0 0 0 0.37,0.07 l 10.92,-10.03 q 0.72,-0.65 -0.25,-0.71 z m 3.23,0.21 a 0.51,0.5 -60.2 0 0 -0.79,0.22 c -1.9,5.02 -9.47,10.56 -13.19,14.8 a 1.59,1.58 -20.8 0 0 -0.39,0.86 q -0.9,6.72 -0.02,13.44 a 1.22,1.21 -75.5 0 0 0.46,0.79 c 5.11,3.95 12.54,2.2 18.66,0.58 a 0.62,0.61 -9.2 0 0 0.46,-0.63 c -0.25,-4.76 -1.37,-9.19 0.01,-14.19 q 0.95,-3.47 0.69,-5.47 -0.82,-6.26 -5.89,-10.4 z"
         inkscape:connector-curvature="0"
         style="fill:#040404" />
      <path
         id="path32820"
         d="m 271.96,107 h -0.81 a 1.46,1.44 64.9 0 1 -0.89,-0.33 q -1.52,-1.26 -3.47,-1.67 c -1.38,-8.67 -1.8,-21.42 0.66,-29.89 q 1.75,-6.03 1.59,-12.43 a 0.54,0.54 0 0 0 -0.79,-0.47 c -6.45,3.35 -10.71,8.7 -11.23,16.03 q -0.28,3.89 -0.86,7.89 l -4.48,-7.19 a 1.39,1.37 82.1 0 0 -0.74,-0.57 l -5.03,-1.55 c 5.27,-3.18 7.44,-8.64 12.73,-11.64 q 9.8,-5.57 20.87,-7.94 a 0.53,0.53 0 0 1 0.63,0.4 c 0.41,1.72 -4.03,6.56 -5.13,8.25 q -0.48,0.74 0.4,0.73 1.87,-0.03 3.64,-0.74 a 0.64,0.64 0 0 1 0.88,0.58 q 0.14,6.08 0.06,12.66 c -0.03,2.94 -3.81,3.83 -3,6.23 a 0.47,0.47 0 0 0 0.62,0.28 l 1.61,-0.65 a 0.5,0.5 0 0 1 0.68,0.42 c 0.35,3.99 -0.31,7.44 -3.3,10.36 -3.5,3.43 -5.32,6.15 -4.64,11.24 z"
         inkscape:connector-curvature="0"
         style="fill:#e1e1e1" />
      <path
         id="path32822"
         d="m 241.21,74.5 -16.69,-4.18 c 1.71,-4.57 4.65,-10.13 9.61,-11.69 q 6.19,-1.95 11.98,0.51 2.21,0.93 1.94,3.32 c -0.64,5.5 -3.96,7.64 -6.84,12.04 z"
         inkscape:connector-curvature="0"
         style="fill:#e1e1e1" />
      <path
         id="path32824"
         d="m 124.84,58.78 q 3.07,-0.03 4.11,2.86 2.19,6.13 2.68,12.65 a 0.95,0.95 0 0 1 -0.39,0.84 q -7.73,5.53 -13.03,13.38 -1.06,1.58 -1.22,-0.32 -0.1,-1.1 0.12,-2.87 1.51,-12.57 1.87,-24.88 a 1.66,1.66 0 0 1 1.64,-1.61 z"
         inkscape:connector-curvature="0"
         style="fill:#e1e1e1" />
      <path
         id="path32826"
         d="m 290.56,62.38 a 1,0.99 -3.1 0 1 0.86,-0.95 l 8.79,-1.28 a 1.54,1.53 82.5 0 1 1.74,1.34 c 0.86,7.1 -4.91,9.33 -11.43,12.27 a 0.3,0.3 0 0 1 -0.43,-0.29 z"
         inkscape:connector-curvature="0"
         style="fill:#e1e1e1" />
      <path
         id="path32828"
         d="m 321.26,72.78 c -1.3,-2.36 4.55,-11.52 7.1,-12.07 q 0.67,-0.15 0.34,0.45 l -6.37,11.62 q -0.53,0.97 -1.07,0 z"
         inkscape:connector-curvature="0"
         style="fill:#ffffff" />
      <path
         id="path32830"
         d="m 333.84,61.61 a 0.84,0.83 -69.8 0 1 0.96,-0.45 c 15.42,3.8 33.11,18.61 22.38,36.37 -4.93,8.16 -22.36,5.55 -28.9,2.24 -9.63,-4.88 2.13,-31.15 5.56,-38.16 z"
         inkscape:connector-curvature="0"
         style="fill:#ffffff" />
      <path
         id="path32832"
         d="m 109.5,61.79 c -3.07,4.2 -11.27,15.1 -10.37,17.73 a 0.37,0.37 0 0 0 0.58,0.17 q 4.64,-3.65 8.3,-8.25 0.91,-1.14 0.99,0.32 0.03,0.67 -0.08,1.99 -1.55,18.87 -4.2,37.63 c -1.29,9.12 -1.74,18.45 -2.7,27.68 a 0.84,0.84 0 0 1 -0.59,0.71 q -5.23,1.59 -9.67,4.76 a 0.52,0.52 0 0 1 -0.81,-0.3 l -0.22,-0.91 a 0.43,0.43 0 0 0 -0.63,-0.28 c -4.49,2.5 -7.01,5.06 -9.17,10.06 -0.4,0.93 -3.16,5.71 -2.89,6.22 a 0.28,0.28 0 0 0 0.39,0.11 l 1.6,-0.93 a 0.59,0.59 0 0 1 0.87,0.38 q 1.25,5.59 -2.29,9.74 a 1.63,1.63 0 0 0 -0.38,0.99 l -0.3,11.02 a 1.41,1.4 -24.5 0 1 -0.31,0.82 c -4.2,5.06 -9.16,10.75 -8.18,17.82 a 1.26,1.22 59.6 0 1 -0.22,0.9 q -3.09,4.22 -8.53,4.83 -1.58,-3.34 -1.98,-7.01 a 1.62,1.56 -36.8 0 1 0.14,-0.85 l 1.83,-3.94 a 1.07,1.06 41.5 0 0 -0.07,-1.03 l -2.86,-4.5 a 0.42,0.42 0 0 1 0.32,-0.64 l 1.09,-0.07 a 0.76,0.74 6.2 0 0 0.66,-0.52 q 0.1,-0.3 -0.08,-0.66 c -2.04,-4.21 -2.6,-8.13 -4.05,-12.38 q -0.89,-2.63 -1.16,-5.38 a 1.11,1.1 -25.9 0 1 0.31,-0.88 q 3.16,-3.23 3.64,-7.79 a 0.62,0.62 0 0 1 0.59,-0.55 l 1.39,-0.05 c -0.15,1.21 -2.13,8.65 -0.67,9.92 a 0.63,0.62 46.2 0 0 0.79,0.02 c 2.81,-2.21 8.45,-6.39 9.16,-10.94 q 1.23,-7.94 2.07,-16.29 0.22,-2.27 -2.05,-2.38 l -5.42,-0.28 q 2.87,-7.03 3.41,-14.84 c 11.49,-5.06 22.9,-15.28 24.71,-28.53 q 0.87,-6.38 0.58,-20.18 c 4.68,-2.9 8.2,-6.15 11.22,-10.74 q 1.74,-2.64 5.24,-2.72 z"
         inkscape:connector-curvature="0"
         style="fill:#e1e1e1" />
      <path
         id="path32834"
         d="m 204.21,67.25 c -3,0.71 -5.42,3.91 -9.17,2.5 l 0.09,-6 a 0.83,0.83 0 0 1 0.7,-0.81 l 7.26,-1.13 a 0.73,0.73 0 0 1 0.84,0.67 z"
         inkscape:connector-curvature="0"
         style="fill:#e1e1e1" />
      <path
         id="path32836"
         d="m 172.96,75.5 q -3.17,2.06 -4.73,5.57 -1.11,2.5 -3.82,2.85 l -4.77,0.61 q -0.83,0.11 -0.3,0.76 l 1,1.2 a 0.47,0.47 0 0 1 -0.23,0.75 q -2.48,0.74 -4.89,0.03 a 1.42,1.41 16.1 0 0 -1.76,0.97 q -0.63,2.25 -3.67,2.51 c -0.45,-8.81 3.2,-18.1 7.25,-25.8 a 1.38,1.34 -87.2 0 1 0.69,-0.64 c 7.1,-3 13.53,5.32 15.23,11.19 z"
         inkscape:connector-curvature="0"
         style="fill:#e1e1e1" />
      <path
         id="path32838"
         d="m 204.21,67.25 c 0.56,11.82 -2.75,21.17 -8.82,31.59 q -0.26,0.44 -0.26,-0.07 l -0.09,-29.02 c 3.75,1.41 6.17,-1.79 9.17,-2.5 z"
         inkscape:connector-curvature="0"
         style="fill:#ffffff" />
      <path
         id="path32840"
         d="m 214.29,67.25 0.88,0.04 a 0.87,0.86 -12.5 0 1 0.73,0.46 q 0.98,1.77 2.85,2.54 c -5.62,9.29 -8.74,18.13 -9.83,28.92 a 0.74,0.74 0 0 1 -0.57,0.65 l -9.39,2.13 q -1.62,0.36 -0.58,-0.92 11.88,-14.64 15.91,-33.82 z"
         inkscape:connector-curvature="0"
         style="fill:#ffffff" />
      <path
         id="path32842"
         d="m 184.96,105 q -1.74,0.12 -2.07,-0.83 a 1.37,1.37 0 0 0 -1.9,-0.79 c -7.24,3.53 -11.76,4.73 -16.97,11.81 a 3.42,3.42 0 0 1 -2.18,1.34 q -0.57,0.09 -1.09,-0.99 c 12.26,-10.98 22.66,-20.24 23.1,-37.12 0.08,-3.14 -0.2,-9.41 1.39,-10.19 q 0.48,-0.24 0.41,0.29 c -1.51,11.74 -0.66,24.59 -0.69,36.48 z"
         inkscape:connector-curvature="0"
         style="fill:#ffffff" />
      <path
         id="path32844"
         d="m 224.52,70.32 16.69,4.18 q 1.25,0.68 2.63,-0.13 a 0.44,0.44 0 0 1 0.6,0.14 l 1.47,2.31 5.03,1.55 a 1.39,1.37 82.1 0 1 0.74,0.57 l 4.48,7.19 c -4.05,16.64 -18.21,21.36 -32.84,15.08 -9.48,-4.07 -2.15,-24.64 1.2,-30.89 z"
         inkscape:connector-curvature="0"
         style="fill:#ffffff" />
      <path
         id="path32846"
         d="m 172.96,75.5 c 2.23,8 2.59,27.37 -8.54,30.24 -8.95,2.31 -15.11,-6.73 -14.63,-14.99 q 3.04,-0.26 3.67,-2.51 a 1.42,1.41 16.1 0 1 1.76,-0.97 q 2.41,0.71 4.89,-0.03 a 0.47,0.47 0 0 0 0.23,-0.75 l -1,-1.2 q -0.53,-0.65 0.3,-0.76 l 4.77,-0.61 q 2.71,-0.35 3.82,-2.85 1.56,-3.51 4.73,-5.57 z"
         inkscape:connector-curvature="0"
         style="fill:#ffffff" />
      <path
         id="path32848"
         d="m 296.58,85.26 q -3.27,1.39 -6.77,1.82 a 0.55,0.54 -8.4 0 1 -0.6,-0.44 c -0.66,-3.61 0.63,-5.87 4.42,-6.5 q 8.5,-1.41 11.1,-1.38 c 9.64,0.13 8.4,10.42 8.44,16.98 0.03,3.81 -0.35,6.96 -4.42,8.25 q -9.73,3.09 -19.91,1.78 a 0.46,0.45 5.6 0 1 -0.39,-0.47 l 0.66,-10.15 a 1.03,1.01 73.2 0 1 0.39,-0.74 c 1.87,-1.42 7.67,-5.7 7.7,-8.73 a 0.45,0.45 0 0 0 -0.62,-0.42 z"
         inkscape:connector-curvature="0"
         style="fill:#e1e1e1" />
      <path
         id="path32850"
         d="m 121.97,104.13 c -4.87,-9.87 1.15,-19.58 9.35,-25.12 a 0.3,0.3 0 0 1 0.46,0.2 c 0.8,4.75 0.59,28.36 -9.11,25.51 a 1.13,1.13 0 0 1 -0.7,-0.59 z"
         inkscape:connector-curvature="0"
         style="fill:#e1e1e1" />
      <path
         id="path32852"
         d="m 138.96,101 -3.5,0.21 a 1.18,1.15 -74.3 0 0 -0.87,0.5 q -1.28,1.87 -0.68,4.14 a 0.84,0.83 -29.5 0 1 -0.24,0.84 q -9.38,8.8 -14.14,20.79 a 1.74,1.73 -6.1 0 1 -0.65,0.8 c -2.79,1.81 -5.68,2.69 -4.72,6.95 1.3,5.85 -1.75,9.1 -2.12,14.52 l 1.25,-33.61 a 0.69,0.69 0 0 1 0.51,-0.64 c 10.71,-2.81 19.33,-11.71 24.49,-21.14 q 0.67,-1.23 0.67,0.17 z"
         inkscape:connector-curvature="0"
         style="fill:#e1e1e1" />
      <path
         id="path32854"
         d="m 82.71,95.5 c 0.22,9.98 0.32,19.17 -12.46,19.96 q -0.6,-3.55 2.41,-5.11 a 1.87,1.86 -14.6 0 0 1,-1.7 l -0.1,-4.06 a 1.09,1.07 -14.4 0 1 0.58,-0.97 q 4.68,-2.41 6.63,-7.21 a 1.04,1.01 3.2 0 1 0.71,-0.62 z"
         inkscape:connector-curvature="0"
         style="fill:#e1e1e1" />
      <path
         id="path32856"
         d="m 266.79,105 q 1.95,0.41 3.47,1.67 a 1.46,1.44 64.9 0 0 0.89,0.33 h 0.81 q 1.06,4.26 3.88,7.28 1.47,9.87 3.41,19.65 c 0.86,4.32 -1.28,7.8 -4.22,10.66 a 1.6,1.59 74 0 0 -0.45,0.82 l -0.33,1.55 c -4.71,1.99 -9.39,6.15 -9.26,11.66 0.1,4.19 0.49,9.28 -0.81,12.74 -0.89,2.33 -3.74,4.57 -5.36,6.81 a 0.5,0.5 0 0 0 0.34,0.79 l 0.59,0.08 c 1.48,6.19 -9.6,6.38 -13.1,5.44 q -2.08,-0.55 -3.23,1.27 -1.95,3.05 -5.38,5.75 -0.53,-6.43 0.06,-12.85 c 0.69,-7.51 8.15,-8.76 12.61,-12.95 q 3.24,-3.04 6.17,-6.38 0.86,-0.98 -0.44,-1.08 c -1.84,-0.13 -4.23,0.75 -5.53,1.02 q -6.2,1.26 -12.44,2.33 a 0.41,0.4 85.2 0 1 -0.47,-0.4 v -3.6 a 0.54,0.54 0 0 0 -0.64,-0.53 q -7.55,1.46 -11.86,7.82 -0.7,1.02 -0.61,-0.21 l 0.42,-6.15 a 0.99,0.97 -9.1 0 1 0.63,-0.85 c 9.65,-3.82 18.91,-7.71 29.12,-9.94 q 1.56,-0.34 0.6,0.94 l -4.69,6.21 q -0.68,0.89 0.44,0.87 c 3.34,-0.06 14.09,-13.42 14.66,-16.8 a 0.86,0.86 0 0 0 -0.9,-1 c -9.08,0.54 -19.63,5.1 -27.97,8.68 q -6.41,2.76 -10.08,8.7 -0.36,0.58 -0.84,0.6 a 0.48,0.47 88.9 0 1 -0.5,-0.49 l 0.28,-10.15 a 1.01,1 -12.9 0 0 -1.47,-0.92 c -3.61,1.89 -8.32,6.03 -8.54,10.55 q -0.35,7.34 -0.93,14.46 a 1.33,1.32 -89 0 1 -1.25,1.21 l -10.33,0.55 a 1.3,1.29 -88.8 0 1 -1.35,-1.41 l 2.25,-26.06 a 1.59,1.58 78.9 0 1 0.84,-1.26 q 7.92,-4.18 12.18,-12.2 c 1.73,-3.25 0.59,-12.74 0.62,-16.86 a 0.47,0.47 0 0 1 0.5,-0.46 c 4.48,0.3 9.43,1.08 13.52,0.19 9.1,-1.99 17.28,-9.81 22.98,-16.86 q 0.96,-1.19 0.93,0.34 -0.15,7.36 0.16,15.39 c 0.25,6.58 9.96,-6.08 10.62,-6.95 z"
         inkscape:connector-curvature="0"
         style="fill:#ffffff" />
      <path
         id="path32858"
         d="m 138.96,101 c 0.14,6.18 -1.66,11.43 6.06,13.72 q 9.29,2.74 10.98,3.07 c 0.02,0.38 0.06,0.55 -0.15,0.89 q -4.01,6.57 -4.01,14.33 -0.01,1.98 -3.09,5.2 -19.08,6.78 -36.26,17.46 -0.43,0.27 -0.43,-0.24 l -0.02,-5.68 c 0.37,-5.42 3.42,-8.67 2.12,-14.52 -0.96,-4.26 1.93,-5.14 4.72,-6.95 a 1.74,1.73 -6.1 0 0 0.65,-0.8 q 4.76,-11.99 14.14,-20.79 a 0.84,0.83 -29.5 0 0 0.24,-0.84 q -0.6,-2.27 0.68,-4.14 a 1.18,1.15 -74.3 0 1 0.87,-0.5 z"
         inkscape:connector-curvature="0"
         style="fill:#ffffff" />
      <path
         id="path32860"
         d="m 184.96,105 -0.1,4.21 a 1.09,1.09 0 0 1 -0.41,0.83 c -3.16,2.56 -11.48,9.11 -12.34,12.92 q -0.54,2.4 1.53,1.07 c 7.31,-4.72 13.31,-12.05 22.36,-13.52 q 3.2,5.03 7.72,8.77 1.74,1.44 3.76,7.73 c -7.61,3.1 -11.9,8.58 -8.61,17.01 a 0.74,0.74 0 0 1 -0.19,0.81 c -2.79,2.53 -4.43,4.99 -4.64,9.02 q -0.45,8.54 -1.04,14.43 -0.57,5.58 -1.51,-0.06 -1.58,-9.45 -11.43,-8.18 -2.38,0.31 -1.12,-1.73 c 3.35,-5.42 5.02,-12.66 3.51,-19.54 q -0.36,-1.67 -2.06,-1.91 c -4.35,-0.59 -10.78,2.75 -14.66,4.66 -7.29,3.6 -12.39,6.38 -16.49,12.6 a 0.68,0.68 0 0 0 0.08,0.84 l 0.19,0.19 a 0.33,0.32 -35.9 0 0 0.39,0.06 l 5.54,-3.03 q 0.78,-0.43 0.27,0.3 l -3.25,4.74 a 1.82,1.79 -27.7 0 0 -0.32,0.99 l -0.4,15.38 c -3.45,-0.25 -4.48,-5.33 -4.71,-7.82 a 1.35,1.34 20.4 0 0 -0.39,-0.84 c -2.08,-2.05 -1.71,-6.98 -1.82,-9.85 -0.07,-2.13 1.05,-3.9 1.42,-6.03 a 0.71,0.71 0 0 0 -0.39,-0.76 q -0.25,-0.13 -0.6,-0.08 l 7.78,-9.05 q 1.04,-1.2 -0.54,-1.13 l -3.74,0.18 q 3.08,-3.22 3.09,-5.2 0,-7.76 4.01,-14.33 c 0.21,-0.34 0.17,-0.51 0.15,-0.89 q 2.66,-0.54 4.75,-2.25 0.52,1.08 1.09,0.99 a 3.42,3.42 0 0 0 2.18,-1.34 c 5.21,-7.08 9.73,-8.28 16.97,-11.81 a 1.37,1.37 0 0 1 1.9,0.79 q 0.33,0.95 2.07,0.83 z"
         inkscape:connector-curvature="0"
         style="fill:#e1e1e1" />
      <path
         id="path32862"
         d="m 324.5,111.79 q 1.27,3.39 4.15,5.69 a 0.89,0.88 22.9 0 1 0.33,0.8 c -0.49,4.26 -2.2,7.75 -1.11,12.42 q 0.84,3.57 0.96,5.85 0.15,2.76 0.4,5.51 0.05,0.52 -0.07,1.02 l -0.67,2.8 a 0.73,0.73 0 0 0 0.31,0.78 c 1.54,0.98 1.52,2.19 0.26,3.47 q -2.86,2.9 -5.05,6.31 c -1.88,2.94 -1.4,6.04 -4.64,8.53 -1.9,1.47 -2.46,2.84 -0.83,4.78 l -6.22,8.07 Q 312,178.23 312,177.71 v -26.45 a 0.38,0.37 -10.3 0 0 -0.51,-0.35 c -5.42,2.01 -9.44,6.2 -9.51,12.21 q -0.16,12.7 -0.54,25.46 a 1.03,1.02 -15.2 0 1 -0.48,0.83 q -4.34,2.72 -6.74,7.33 a 1.09,0.97 -65.4 0 0 0.45,1.46 c 0.99,0.39 6.26,-3.84 7.18,-4.52 a 0.41,0.41 0 0 1 0.53,0.03 l 3.16,3.04 -1.41,3.32 q -0.21,0.47 -0.62,0.79 l -4.12,3.16 a 0.71,0.71 0 0 0 -0.24,0.79 l 1.61,4.91 q 0.23,0.7 -0.48,0.53 l -1.2,-0.27 a 0.7,0.69 15.5 0 0 -0.81,0.45 l -0.58,1.67 a 1.23,1.21 89.6 0 1 -0.71,0.73 c -1.11,0.43 -4.83,1.03 -5.41,1.48 a 0.44,0.44 0 0 0 -0.04,0.65 l 1.07,1.07 a 0.69,0.68 43.4 0 1 0.03,0.94 q -3.03,3.38 -7.12,5.17 -1.25,0.55 -1.64,1.17 -0.44,0.72 -0.44,1.61 0.03,2.49 -2.33,3.27 -5.67,1.88 -9.58,6.31 a 1.19,1.19 0 0 1 -1.45,0.26 q -5.98,-3.15 -12.5,-1.28 a 0.69,0.67 84.1 0 0 -0.49,0.62 l -0.11,2.48 a 0.8,0.79 80.6 0 1 -0.49,0.69 c -2.13,0.83 -4.2,0.66 -6.18,1.72 -2.6,1.38 -8.53,5.48 -10.22,0.55 a 1.19,1.19 0 0 0 -1.78,-0.61 c -2.65,1.73 -7.31,5.61 -9.84,1.2 a 1.69,1.69 0 0 0 -0.7,-0.67 q -4.17,-2.14 -8.79,-2.24 c -4.45,-0.09 -6.1,-2.41 -9.95,-3.06 q -7,-1.18 -12.88,-5.13 a 1.69,1.66 -27.7 0 0 -0.93,-0.28 h -3.42 a 1.68,1.62 -27.5 0 1 -0.91,-0.27 l -3.1,-2.02 a 1.69,1.67 -84.7 0 1 -0.65,-0.79 l -1.42,-3.55 a 0.56,0.55 63.1 0 0 -0.81,-0.27 l -1.43,0.9 a 0.57,0.56 56 0 1 -0.75,-0.15 q -4.14,-5.59 -10.73,-7.77 c -1.59,-0.53 -2.14,-1.58 -2.24,-3.12 q 7.23,-2.45 12.89,-7.66 a 0.39,0.39 0 0 1 0.61,0.09 c 4.26,7.5 13.73,0.15 16.09,-4.87 2.09,-4.44 1.33,-12.41 1.85,-17.71 a 0.67,0.67 0 0 1 0.55,-0.59 l 11.72,-2 a 0.45,0.45 0 0 1 0.53,0.49 c -1.22,11.33 -2.47,18.69 -1.86,25.93 a 0.33,0.33 0 0 0 0.49,0.27 c 4.7,-2.42 8.94,-6.47 9.25,-12.02 q 0.6,-10.85 1.94,-19.32 0.54,-3.4 3.68,-5.08 a 0.32,0.31 75.7 0 1 0.46,0.28 c 0.14,5.5 0.91,12.55 -1,17.74 q -2.04,5.57 -3.82,11 -0.72,2.22 1.21,3.52 c 11.02,7.4 24.58,8.55 32.48,-4.13 a 0.3,0.3 0 0 0 -0.23,-0.46 c -5.45,-0.32 -11.94,0.56 -17.94,-2.79 a 0.95,0.94 -77.6 0 1 -0.49,-0.78 l -0.12,-2.12 q 3.43,-2.7 5.38,-5.75 1.15,-1.82 3.23,-1.27 c 3.5,0.94 14.58,0.75 13.1,-5.44 l 3.39,-0.01 a 0.42,0.42 0 0 1 0.43,0.46 l -1.85,20.98 q -0.32,3.68 2.28,1.05 l 7.41,-7.49 a 1.42,1.41 -20.4 0 0 0.41,-0.89 l 1.26,-15.12 a 0.83,0.83 0 0 1 0.59,-0.72 q 4.75,-1.37 9.14,-3.73 1.37,-0.74 1.32,0.82 c -0.16,4.81 -1.07,21.35 1.31,23.67 q 1.44,1.4 2.86,-0.02 l 7.47,-7.48 a 1.11,1.1 46.8 0 0 0.04,-1.51 c -3.2,-3.59 -2.08,-19.64 -1.67,-24.57 a 1.57,1.55 67.7 0 1 0.36,-0.88 c 4.91,-5.99 7.9,-16.53 2.37,-23.26 q -1.71,-2.09 -4.13,-0.9 c -11.81,5.77 -8.24,15.37 -8.85,26.44 a 1.83,1.83 0 0 1 -1.45,1.69 l -7.16,1.49 a 1.09,1.09 0 0 1 -1.3,-1.18 c 0.29,-2.74 2.04,-19.57 0.27,-20.92 l 0.33,-1.55 a 1.6,1.59 74 0 1 0.45,-0.82 c 2.94,-2.86 5.08,-6.34 4.22,-10.66 q -1.94,-9.78 -3.41,-19.65 c 8.61,4.08 20.8,1.61 28.88,-2.53 q 2.49,-1.28 9.33,-7.13 a 0.38,0.37 57.2 0 1 0.58,0.13 q 2.87,6.16 9.87,7.04 z"
         inkscape:connector-curvature="0"
         style="fill:#e1e1e1" />
      <path
         id="path32864"
         d="m 207.48,127.01 q -2.02,-6.29 -3.76,-7.73 -4.52,-3.74 -7.72,-8.77 7.56,-2.64 10.27,5.2 2.24,6.48 1.21,11.3 z"
         inkscape:connector-curvature="0"
         style="fill:#ffffff" />
      <path
         id="path32866"
         d="m 0,129.19 q 1.11,12.42 0.66,24.85 C 0.28,164.7 0.45,173.98 0,183.94 Z"
         inkscape:connector-curvature="0"
         style="fill:#ffffff" />
      <path
         id="path32868"
         d="m 305.54,196.75 -3.16,-3.04 a 0.41,0.41 0 0 0 -0.53,-0.03 c -0.92,0.68 -6.19,4.91 -7.18,4.52 a 1.09,0.97 -65.4 0 1 -0.45,-1.46 q 2.4,-4.61 6.74,-7.33 a 1.03,1.02 -15.2 0 0 0.48,-0.83 q 0.38,-12.76 0.54,-25.46 c 0.07,-6.01 4.09,-10.2 9.51,-12.21 a 0.38,0.37 -10.3 0 1 0.51,0.35 v 26.45 q 0,0.52 0.32,0.11 l 6.22,-8.07 12.15,-16.12 a 1.55,1.55 0 0 0 0.31,-0.9 c 0.16,-6.27 3.61,-9.69 8.93,-12.5 a 0.74,0.73 -22 0 1 1.05,0.44 q 0.2,0.7 -0.19,1.44 -1.6,3.12 1.36,0.32 2.67,-2.53 3.73,-2.04 a 0.48,0.47 34.1 0 1 0.15,0.76 l -3.96,4.24 a 3.98,3.98 0 0 0 -1.06,2.6 q -0.36,12.91 0.08,26.04 c 0.22,6.37 1.44,10.99 4.46,16.14 a 0.47,0.47 0 0 0 0.74,0.1 l 21.94,-21.86 q 1.27,-1.27 -0.53,-1.34 l -8.83,-0.33 q -2.51,-0.09 -2.92,-2.56 c -0.82,-4.83 4.75,-10.21 8.3,-12.21 q 2.3,-1.3 1.74,1.29 -0.63,2.86 1.75,3.85 a 0.6,0.6 0 0 0 0.82,-0.49 c 0.32,-3.23 -0.48,-7.62 1.02,-10.39 q 2.8,-5.18 8.01,-7.46 a 0.81,0.81 0 0 1 1.14,0.74 l 0.03,16.66 a 0.83,0.83 0 0 0 0.99,0.82 q 1.19,-0.23 2.06,0.51 a 0.62,0.62 0 0 1 0.12,0.83 c -1.61,2.35 -3.1,4.11 -3.2,7.13 -0.31,9.57 -0.75,16.75 5.17,23.12 a 0.58,0.58 0 0 1 0.01,0.78 q -4.21,4.72 -9.11,8.68 a 0.61,0.6 49.5 0 1 -0.84,-0.07 c -6.77,-7.63 -4.92,-16.13 -5.44,-25.39 q -0.03,-0.67 -0.51,-0.19 l -19.3,19.31 a 1.73,1.72 50.4 0 0 -0.2,2.2 q 3.31,4.75 7.96,1.68 a 0.45,0.44 -32.8 0 1 0.62,0.13 c 0.8,1.23 -5.41,7.1 -7.03,8.6 -4.59,4.26 -8.69,2.48 -12.47,-1.5 a 0.52,0.52 0 0 0 -0.72,-0.04 c -20.48,17.33 -39.5,30.16 -60.46,44.55 q -1.84,1.27 -1.29,-0.91 c 0.86,-3.35 10.83,-10.16 13.94,-12.21 q 23.42,-15.41 45.72,-33.27 a 1.55,1.54 -34.1 0 0 0.38,-1.96 c -5.97,-10.51 -4.2,-25.83 -4.16,-38.02 q 0,-1.66 -1.03,-0.35 l -17.03,21.73 q -1.37,1.75 0.53,2.89 l 5.07,3.06 a 0.48,0.48 0 0 1 0.16,0.66 q -3.35,5.42 -8.87,8.61 a 1.35,1.34 -51.7 0 1 -1.05,0.13 z"
         inkscape:connector-curvature="0"
         style="fill:#040404" />
      <path
         id="path32870"
         d="m 259.75,179.04 -0.59,-0.08 a 0.5,0.5 0 0 1 -0.34,-0.79 c 1.62,-2.24 4.47,-4.48 5.36,-6.81 1.3,-3.46 0.91,-8.55 0.81,-12.74 -0.13,-5.51 4.55,-9.67 9.26,-11.66 1.77,1.35 0.02,18.18 -0.27,20.92 a 1.09,1.09 0 0 0 1.3,1.18 l 7.16,-1.49 a 1.83,1.83 0 0 0 1.45,-1.69 c 0.61,-11.07 -2.96,-20.67 8.85,-26.44 q 2.42,-1.19 4.13,0.9 c 5.53,6.73 2.54,17.27 -2.37,23.26 a 1.57,1.55 67.7 0 0 -0.36,0.88 c -0.41,4.93 -1.53,20.98 1.67,24.57 a 1.11,1.1 46.8 0 1 -0.04,1.51 l -7.47,7.48 q -1.42,1.42 -2.86,0.02 c -2.38,-2.32 -1.47,-18.86 -1.31,-23.67 q 0.05,-1.56 -1.32,-0.82 -4.39,2.36 -9.14,3.73 a 0.83,0.83 0 0 0 -0.59,0.72 l -1.26,15.12 a 1.42,1.41 -20.4 0 1 -0.41,0.89 l -7.41,7.49 q -2.6,2.63 -2.28,-1.05 l 1.85,-20.98 a 0.42,0.42 0 0 0 -0.43,-0.46 z"
         inkscape:connector-curvature="0"
         style="fill:#040404" />
      <path
         id="path32872"
         d="m 170.86,161.48 q -4.43,1.59 -8.22,4.38 -0.64,0.48 -0.64,-0.32 V 150.2 a 0.99,0.98 -16.2 0 1 0.46,-0.83 q 3.61,-2.33 7.97,-2.41 2.01,-0.03 2.32,1.96 0.95,6.03 -1.08,11.75 a 1.32,1.32 0 0 1 -0.81,0.81 z"
         inkscape:connector-curvature="0"
         style="fill:#e1e1e1" />
      <path
         id="path32874"
         d="m 108.24,190.41 q -1.93,2.28 -0.93,-0.54 2.22,-6.28 2.92,-13.67 0.11,-1.1 0.62,-2.14 c 1.67,-3.4 1.26,-7.78 1.1,-11.63 a 1.96,1.96 0 0 1 1,-1.79 q 13.24,-7.43 27.53,-12.57 0.82,-0.29 0.27,0.38 -13.38,16.35 -22.63,35.36 a 1.11,1.09 -85.3 0 1 -0.67,0.58 q -5.51,1.64 -9.21,6.02 z"
         inkscape:connector-curvature="0"
         style="fill:#ffffff" />
      <path
         id="path32876"
         d="m 145.25,148.21 q 0.35,-0.05 0.6,0.08 a 0.71,0.71 0 0 1 0.39,0.76 c -0.37,2.13 -1.49,3.9 -1.42,6.03 0.11,2.87 -0.26,7.8 1.82,9.85 a 1.35,1.34 20.4 0 1 0.39,0.84 c 0.23,2.49 1.26,7.57 4.71,7.82 q -3.82,2.23 -6.61,2.9 a 1.56,1.55 -7.9 0 1 -1.91,-1.44 q -0.47,-11.43 -0.39,-20.87 0.03,-3.91 2.42,-5.97 z"
         inkscape:connector-curvature="0"
         style="fill:#ffffff" />
      <path
         id="path32878"
         d="m 60.46,158.75 -1.39,0.05 a 0.62,0.62 0 0 0 -0.59,0.55 q -0.48,4.56 -3.64,7.79 a 1.11,1.1 -25.9 0 0 -0.31,0.88 q 0.27,2.75 1.16,5.38 c 1.45,4.25 2.01,8.17 4.05,12.38 q 0.18,0.36 0.08,0.66 a 0.76,0.74 6.2 0 1 -0.66,0.52 l -1.09,0.07 a 0.42,0.42 0 0 0 -0.32,0.64 l 2.86,4.5 a 1.07,1.06 41.5 0 1 0.07,1.03 l -1.83,3.94 a 1.62,1.56 -36.8 0 0 -0.14,0.85 q 0.4,3.67 1.98,7.01 c -5.82,-0.18 -12.63,-2.01 -12.98,-8.93 q -1.16,-23.12 7.82,-44.25 c 1.01,-2.37 2.69,-3.57 5.17,-2.63 a 0.69,0.69 0 0 1 0.45,0.7 z"
         inkscape:connector-curvature="0"
         style="fill:#ffffff" />
      <path
         id="path32880"
         d="m 96.62,148.99 q 1.95,0.19 2.38,2.1 1.28,5.81 1.19,11.78 a 1.16,1.16 0 0 1 -0.48,0.92 l -9.11,6.57 q -0.71,0.51 -0.59,-0.36 1.27,-9.45 0.96,-18.97 a 0.97,0.95 -17.9 0 1 0.44,-0.84 q 2.37,-1.48 5.21,-1.2 z"
         inkscape:connector-curvature="0"
         style="fill:#e1e1e1" />
      <path
         id="path32882"
         d="m 124.91,181.52 c 0.76,-1.51 7.09,-14.11 7.61,-14.28 a 0.37,0.37 0 0 1 0.49,0.35 l -0.04,11.29 a 2.05,2.04 -5.6 0 1 -1.64,1.99 l -6,1.2 q -0.78,0.16 -0.42,-0.55 z"
         inkscape:connector-curvature="0"
         style="fill:#ffffff" />
      <path
         id="path32884"
         d="m 94.83,199.75 c -1.51,0.11 -4.86,-0.23 -6.43,-0.84 a 0.69,0.68 13.7 0 1 -0.43,-0.7 Q 89.19,183.05 89.29,180 c 0.22,-6.47 6.03,-9.07 10.82,-11.72 a 0.59,0.58 -15.5 0 1 0.87,0.48 q 0.46,14.53 -3.22,28.55 -0.59,2.27 -2.93,2.44 z"
         inkscape:connector-curvature="0"
         style="fill:#e1e1e1" />
      <path
         id="path32886"
         d="m 173.29,169.94 q 0.97,0.06 0.25,0.71 l -10.92,10.03 a 0.23,0.23 0 0 1 -0.37,-0.07 c -1.8,-3.77 7.68,-10.9 11.04,-10.67 z"
         inkscape:connector-curvature="0"
         style="fill:#e1e1e1" />
      <path
         id="path32888"
         d="m 176.52,170.15 q 5.07,4.14 5.89,10.4 0.26,2 -0.69,5.47 c -1.38,5 -0.26,9.43 -0.01,14.19 a 0.62,0.61 -9.2 0 1 -0.46,0.63 c -6.12,1.62 -13.55,3.37 -18.66,-0.58 a 1.22,1.21 -75.5 0 1 -0.46,-0.79 q -0.88,-6.72 0.02,-13.44 a 1.59,1.58 -20.8 0 1 0.39,-0.86 c 3.72,-4.24 11.29,-9.78 13.19,-14.8 a 0.51,0.5 -60.2 0 1 0.79,-0.22 z"
         inkscape:connector-curvature="0"
         style="fill:#e1e1e1" />
      <path
         id="path32890"
         d="M 446,192.31 V 273 h -25.56 l 4.19,-14.31 a 1.6,1.58 -47.7 0 0 -0.04,-1.04 l -0.83,-2.13 a 0.99,0.97 55.2 0 1 0.17,-0.99 q 4.48,-5.24 5.34,-12.05 a 1.63,1.6 69 0 1 0.36,-0.83 c 1.6,-1.92 3.84,-3.42 5.19,-5.22 4.45,-5.95 9.46,-14.77 7.37,-22.71 a 0.95,0.95 0 0 1 0.19,-0.86 c 1.92,-2.25 3.42,-3.91 3.31,-7.12 Q 445.45,199 446,192.31 Z"
         inkscape:connector-curvature="0"
         style="fill:#ffffff" />
      <path
         id="path32892"
         d="m 110.44,205.25 q -0.97,1.35 -0.02,2.82 5.53,8.55 6.35,17.14 c 0.24,2.55 1.4,4.79 2.81,6.61 q 1.48,1.9 1.45,4.3 c -0.07,5.24 4.12,5.95 7.7,8.46 a 1.74,1.71 6.8 0 1 0.6,0.75 c 1.14,2.75 1.48,4.98 3.58,7.34 2.56,2.88 3.36,6.1 5.55,9.17 q 1.69,2.36 2.7,5.1 a 1.26,1.23 -87.1 0 0 0.61,0.69 q 2.59,1.34 5.15,2.55 c 1.32,0.62 3.56,0.58 4.88,2.04 q 0.35,0.38 -0.16,0.4 l -7.7,0.38 h -49.5 q -4.85,-0.12 -9.6,-1.41 a 0.88,0.86 89.8 0 1 -0.61,-0.62 c -0.63,-2.34 -0.77,-4.56 -2.73,-6.13 q -1.57,-1.27 -3.64,-2.07 c 5.32,-4.57 5.9,-6.67 6.35,-13.6 q 1.25,-19.53 2.86,-39.03 a 0.74,0.74 0 0 1 0.52,-0.65 q 1.24,-0.4 2.46,-0.55 c 5.57,-0.71 12.28,-8.57 14.91,-13.17 a 1.31,1.3 -82.4 0 1 0.79,-0.61 l 6.96,-1.88 q 0.66,-0.18 0.32,0.41 -3.08,5.37 -2.59,11.56 z"
         inkscape:connector-curvature="0"
         style="fill:#e1e1e1" />
      <path
         id="path32894"
         d="m 74.96,244 q -0.26,-0.57 -0.27,-1.23 a 0.72,0.71 11 0 0 -0.45,-0.66 q -1.61,-0.63 -1.94,-1.68 -1.44,-4.6 -5.26,-7.46 a 1.63,1.63 0 0 1 -0.59,-0.86 q -1.88,-6.65 -5.24,-12.67 a 0.74,0.73 -33.7 0 1 0.19,-0.94 l 1.1,-0.83 a 1.09,1.08 70.3 0 0 0.42,-0.9 l -0.21,-6.52 7.84,-7.13 a 0.58,0.57 43.3 0 1 0.74,-0.02 l 6.08,4.93 a 0.79,0.79 0 0 1 0.29,0.67 z"
         inkscape:connector-curvature="0"
         style="fill:#e1e1e1" />
    </g>
  </g>
</svg>
