<?xml version="1.0" encoding="UTF-8" standalone="no"?>
<!DOCTYPE svg PUBLIC "-//W3C//DTD SVG 1.1//EN" "http://www.w3.org/Graphics/SVG/1.1/DTD/svg11.dtd">
<svg xmlns="http://www.w3.org/2000/svg" version="1.1" viewBox="0 0 450 270">
<g stroke-width="2.00" fill="none" stroke-linecap="butt">
<path stroke="#f2f2f2" vector-effect="non-scaling-stroke" d="
  M 285.81 0.00
  L 283.96 0.39
  A 1.25 1.22 9.9 0 0 283.21 0.90
  C 281.84 2.96 280.18 4.24 279.72 6.77
  Q 279.19 9.65 278.81 12.61
  A 1.02 1.02 0.0 0 1 278.24 13.40
  Q 275.20 14.89 271.88 14.50
  A 1.10 1.09 26.4 0 0 271.03 14.78
  C 268.36 17.27 268.78 21.35 266.36 23.11
  Q 264.89 24.18 263.55 25.50
  A 1.09 1.04 70.3 0 0 263.23 26.22
  L 262.91 33.26
  A 0.81 0.81 0.0 0 1 262.25 34.02
  L 259.59 34.52
  A 1.20 1.19 -75.7 0 0 258.87 34.95
  L 255.22 39.56
  A 1.24 1.19 -24.9 0 0 254.95 40.26
  Q 254.65 45.46 252.01 49.94
  A 1.64 1.62 58.3 0 0 251.78 50.94
  L 252.05 53.97
  A 1.14 1.11 65.8 0 1 251.72 54.88
  L 246.16 60.40"
/>
<path stroke="#838383" vector-effect="non-scaling-stroke" d="
  M 246.16 60.40
  L 245.94 57.84
  A 0.82 0.82 0.0 0 0 244.73 57.20
  Q 238.93 60.38 235.98 66.06"
/>
<path stroke="#f2f2f2" vector-effect="non-scaling-stroke" d="
  M 235.98 66.06
  Q 231.11 69.18 229.80 74.89
  C 229.45 76.40 224.74 85.15 223.60 85.26
  A 0.52 0.52 0.0 0 1 223.02 84.77
  L 222.96 83.50"
/>
<path stroke="#838383" vector-effect="non-scaling-stroke" d="
  M 222.96 83.50
  L 224.11 61.92
  Q 224.20 60.29 222.76 61.07
  Q 217.09 64.13 213.78 69.77
  C 209.45 77.15 203.60 83.70 198.63 90.71
  Q 198.00 91.59 198.00 90.51
  L 198.00 59.54
  A 0.58 0.57 -12.1 0 0 197.19 59.02
  Q 192.65 61.10 189.76 65.07
  C 186.96 68.91 188.03 75.97 188.10 80.79
  A 1.41 1.41 0.0 0 1 187.71 81.79
  L 183.50 86.18
  Q 183.17 86.52 183.03 86.96
  L 178.62 101.22
  A 0.68 0.68 0.0 0 1 177.80 101.68
  L 171.48 100.12
  A 0.45 0.45 0.0 0 1 171.18 99.51
  C 177.27 85.17 184.05 68.03 180.76 50.78
  A 2.17 2.16 -2.6 0 0 178.83 49.03
  C 171.77 48.40 163.19 53.12 156.94 56.20
  Q 151.12 59.08 147.73 64.60
  A 0.61 0.60 -66.6 0 0 148.08 65.50
  L 149.00 65.76
  A 0.23 0.23 0.0 0 1 149.10 66.14
  C 146.96 68.38 145.21 70.35 145.16 73.71
  Q 144.84 92.22 145.06 110.77
  A 1.41 1.39 -25.6 0 1 144.74 111.66
  C 139.67 117.74 134.46 120.46 136.28 129.83
  A 1.81 1.80 -7.4 0 0 138.18 131.29
  C 148.84 130.56 159.74 119.08 165.25 110.66
  A 0.60 0.59 -60.8 0 1 165.98 110.45
  C 170.04 112.28 172.10 115.39 171.64 120.04
  Q 170.91 127.46 170.98 134.55
  Q 171.00 136.95 173.07 135.75
  Q 179.75 131.91 183.76 125.42
  A 1.86 1.82 -30.4 0 0 184.04 124.38
  C 183.91 120.08 183.22 116.99 187.29 114.26
  A 0.41 0.41 0.0 0 1 187.90 114.44
  L 190.07 119.51
  A 1.34 1.34 0.0 0 0 192.20 119.97
  L 198.25 114.46"
/>
<path stroke="#f2f2f2" vector-effect="non-scaling-stroke" d="
  M 198.25 114.46
  L 200.59 117.35
  A 0.69 0.69 0.0 0 1 200.55 118.25
  Q 196.55 122.55 193.40 127.52
  A 1.99 1.98 2.8 0 1 192.59 128.25
  Q 189.34 129.83 187.64 133.02
  A 1.93 1.88 89.2 0 1 186.94 133.76
  C 183.60 135.79 181.66 138.24 181.45 142.22
  Q 181.27 145.81 177.97 147.13
  C 176.25 147.82 175.37 148.62 176.30 150.50
  A 1.17 1.16 -22.9 0 1 175.64 152.11
  Q 173.49 152.86 171.85 154.31
  C 169.39 156.49 168.45 161.91 163.75 160.04"
/>
<path stroke="#838383" vector-effect="non-scaling-stroke" d="
  M 163.75 160.04
  C 157.21 160.85 151.06 173.60 147.69 178.64
  Q 147.14 179.46 147.23 178.48
  Q 148.37 165.62 148.01 152.68
  A 0.23 0.23 0.0 0 0 147.69 152.48
  Q 141.29 155.27 138.76 161.55
  C 137.93 163.60 138.41 166.15 138.01 168.48
  A 0.87 0.85 86.1 0 1 137.44 169.15
  L 131.92 171.03
  A 0.43 0.43 0.0 0 1 131.35 170.56
  L 133.43 154.86
  Q 133.53 154.09 132.83 154.43
  C 128.69 156.43 123.33 160.55 123.00 165.50
  Q 122.68 170.31 121.83 173.60
  A 0.87 0.86 -1.3 0 1 121.23 174.22
  L 112.88 176.57
  A 0.28 0.28 0.0 0 1 112.53 176.29
  L 113.11 156.02
  A 0.97 0.97 0.0 0 0 111.69 155.13
  L 108.68 156.73
  A 0.69 0.68 52.5 0 1 107.89 156.62
  C 101.84 150.74 89.94 151.59 83.69 156.94
  C 73.06 166.04 70.15 177.63 67.52 190.76
  C 66.16 197.53 61.27 209.36 52.01 205.37
  A 1.96 1.95 -78.2 0 1 50.83 203.56
  L 50.97 188.57
  A 2.92 2.89 65.2 0 1 51.63 186.75
  C 63.02 172.95 73.01 158.10 84.65 144.56
  A 0.95 0.95 0.0 0 0 84.24 143.04
  C 80.51 141.71 55.67 176.68 52.44 181.12
  A 1.07 1.07 0.0 0 1 50.63 181.00
  Q 50.51 180.76 50.57 179.23
  Q 51.27 163.12 50.87 146.91
  A 0.42 0.42 0.0 0 0 50.25 146.56
  Q 45.75 149.09 42.56 153.18
  Q 41.00 155.17 41.00 157.71
  L 41.00 194.95
  A 1.30 1.28 65.7 0 1 40.69 195.79
  Q 35.86 201.39 37.09 208.54
  C 37.49 210.91 39.05 212.50 40.61 214.24
  A 1.34 1.30 -67.0 0 1 40.94 215.09
  L 41.13 223.50
  Q 41.16 224.49 42.00 223.97
  C 46.71 221.09 49.08 216.71 53.35 213.86
  Q 59.80 209.55 65.47 204.09
  Q 65.83 203.75 65.83 204.24
  C 65.89 212.01 66.83 221.29 77.17 218.84
  Q 79.28 218.34 81.86 216.38
  Q 94.56 206.72 101.31 192.04
  Q 102.37 189.75 102.23 192.27
  L 101.10 212.99
  A 1.07 1.07 0.0 0 0 102.31 214.11
  C 104.31 213.85 108.88 208.51 110.44 206.91
  A 2.61 2.58 -21.9 0 0 111.16 205.25
  L 112.15 184.61
  A 0.68 0.67 84.8 0 1 112.66 183.99
  L 120.04 182.13
  A 0.46 0.45 -5.7 0 1 120.61 182.59
  L 119.34 212.37"
/>
<path stroke="#f2f2f2" vector-effect="non-scaling-stroke" d="
  M 119.34 212.37
  Q 114.57 217.86 109.80 223.31
  C 106.24 227.37 103.38 232.44 99.64 236.82
  C 94.69 242.62 90.52 247.91 84.06 253.44
  C 81.34 255.78 80.73 257.93 80.34 261.29
  A 1.26 1.25 -14.1 0 1 79.81 262.16
  L 73.86 266.25
  Q 73.44 266.53 72.96 266.64
  L 66.68 267.99
  Q 65.34 268.28 66.67 268.58
  C 70.62 269.48 74.20 268.30 77.81 268.75
  Q 82.63 269.34 87.44 270.00"
/>
<path stroke="#838383" vector-effect="non-scaling-stroke" d="
  M 44.09 38.30
  Q 38.10 69.49 40.62 101.18
  Q 41.37 110.54 46.55 118.52
  A 0.61 0.61 0.0 0 0 47.37 118.72
  Q 53.34 115.34 56.70 109.37
  A 0.76 0.76 0.0 0 0 56.38 108.32
  L 55.57 107.90
  A 1.57 1.57 0.0 0 1 54.84 107.14
  Q 50.53 97.82 50.11 84.75
  Q 49.24 57.69 53.75 30.98
  A 1.22 1.20 83.2 0 1 54.46 30.07
  C 56.86 29.03 69.62 23.51 71.35 23.98
  A 0.44 0.44 0.0 0 1 71.65 24.52
  L 71.14 26.23
  Q 70.77 27.47 71.84 26.75
  Q 78.36 22.39 82.11 15.53
  A 0.98 0.98 0.0 0 0 81.68 14.18
  C 78.66 12.72 59.24 21.84 55.61 23.77
  Q 55.15 24.01 55.27 23.51
  L 57.84 12.75
  Q 58.08 11.74 57.14 12.18
  C 48.87 16.07 47.67 21.47 45.94 29.87
  A 4.04 4.03 -14.4 0 1 44.60 32.13
  Q 39.83 36.21 36.40 41.39
  A 1.28 1.28 0.0 0 0 37.01 43.30
  C 37.99 43.68 42.55 38.82 43.76 38.07
  Q 44.19 37.80 44.09 38.30"
/>
<path stroke="#838383" vector-effect="non-scaling-stroke" d="
  M 109.10 80.53
  Q 110.46 63.54 110.90 59.57
  Q 111.28 56.12 110.61 53.49
  A 0.41 0.40 68.8 0 0 110.03 53.23
  C 106.25 55.27 101.59 59.07 101.25 63.71
  Q 100.19 78.03 98.72 92.40
  A 0.74 0.73 89.6 0 1 98.08 93.06
  L 89.57 94.07
  A 0.56 0.56 0.0 0 1 88.94 93.56
  Q 87.84 80.42 87.89 67.24
  Q 87.89 65.29 89.18 63.83
  L 93.51 58.90
  A 0.48 0.48 0.0 0 0 93.38 58.16
  C 92.84 57.87 91.33 57.97 90.72 58.33
  C 72.35 69.02 59.15 87.65 58.04 109.27
  Q 57.87 112.54 58.03 123.44
  C 58.12 129.82 62.23 137.82 69.57 131.80
  Q 73.65 128.44 76.93 124.22
  Q 77.24 123.83 76.75 123.89
  C 67.64 125.08 67.44 115.07 67.83 109.07
  A 2.32 2.32 0.0 0 1 69.52 106.99
  L 77.62 104.73
  A 1.31 1.30 79.7 0 1 79.27 105.88
  L 80.43 119.32
  A 0.55 0.54 -17.6 0 0 81.25 119.74
  Q 85.48 117.23 88.52 113.29
  C 90.56 110.64 90.11 106.88 89.96 103.72
  A 0.89 0.89 0.0 0 1 90.74 102.79
  L 97.07 102.01
  A 0.53 0.53 0.0 0 1 97.67 102.56
  L 96.93 117.39
  Q 96.79 120.16 99.26 118.90
  Q 104.44 116.27 107.41 111.28
  A 1.38 1.37 56.3 0 0 107.59 110.35
  Q 106.29 101.68 108.79 93.34
  A 1.15 1.14 -53.4 0 0 108.65 92.37
  L 108.10 91.53
  A 0.95 0.95 0.0 0 1 108.70 90.08
  Q 116.09 88.55 123.20 85.96
  A 0.30 0.30 0.0 0 1 123.60 86.25
  L 122.30 119.15
  Q 122.22 121.34 124.34 120.76
  C 126.08 120.29 131.07 114.52 132.38 112.90
  A 1.45 1.44 64.9 0 0 132.71 111.98
  L 133.01 83.21
  A 1.29 1.27 75.8 0 1 133.66 82.11
  Q 139.84 78.58 143.71 72.68
  Q 144.36 71.69 143.26 72.12
  L 135.03 75.32
  A 0.70 0.70 0.0 0 1 134.08 74.56
  Q 135.87 62.05 136.04 49.44
  A 1.08 1.08 0.0 0 0 134.44 48.48
  C 131.03 50.33 126.53 54.36 126.23 58.68
  Q 125.57 67.96 125.03 77.21
  A 1.77 1.77 0.0 0 1 123.77 78.79
  Q 116.82 80.88 109.60 81.06
  A 0.49 0.49 0.0 0 1 109.10 80.53"
/>
<path stroke="#f2f2f2" vector-effect="non-scaling-stroke" d="
  M 342.06 0.00
  L 342.98 0.34
  A 0.44 0.44 0.0 0 1 343.18 1.01
  C 340.00 5.19 334.94 9.19 332.65 13.74
  Q 328.95 21.09 322.64 26.41
  A 1.44 1.43 76.0 0 0 322.16 27.22
  C 320.53 34.89 318.59 45.99 309.66 47.62
  A 0.53 0.52 -7.6 0 0 309.22 48.19
  Q 309.68 53.37 307.50 57.96"
/>
<path stroke="#767676" vector-effect="non-scaling-stroke" d="
  M 307.50 57.96
  C 299.35 54.64 288.84 54.29 281.64 60.18
  C 269.36 70.23 261.52 85.16 262.86 101.34
  A 0.49 0.49 0.0 0 1 262.42 101.87
  Q 255.09 102.63 248.16 100.62
  Q 245.19 99.76 244.83 96.69
  C 243.57 86.01 248.33 69.40 259.05 63.84
  Q 264.91 60.80 268.89 55.25
  A 0.78 0.78 0.0 0 0 268.44 54.04
  C 263.25 52.81 250.02 67.30 246.95 71.45
  Q 245.99 72.75 246.01 71.14
  L 246.16 60.40"
/>
<path stroke="#f2f2f2" vector-effect="non-scaling-stroke" d="
  M 136.21 270.02
  Q 140.91 264.70 142.41 257.71
  A 0.75 0.72 -88.0 0 1 143.00 257.14
  Q 149.21 256.00 153.25 251.21"
/>
<path stroke="#838383" vector-effect="non-scaling-stroke" d="
  M 153.25 251.21
  C 160.57 254.17 169.93 255.54 177.16 251.62
  Q 189.39 245.01 192.16 230.84
  Q 194.26 220.12 195.22 205.36
  Q 195.25 204.91 195.52 205.27
  L 199.86 211.04
  A 1.25 1.20 29.3 0 1 200.11 211.86
  C 199.23 227.89 198.38 243.87 198.29 259.91
  Q 198.28 262.04 199.80 260.54
  L 207.08 253.31
  A 2.54 2.52 -21.2 0 0 207.82 251.65
  L 209.57 211.77
  A 2.02 2.02 0.0 0 1 210.95 209.94
  C 219.30 207.17 227.19 196.00 230.63 188.33
  C 231.10 187.29 232.16 186.52 233.17 186.19
  A 0.31 0.31 0.0 0 1 233.58 186.53
  Q 232.75 191.92 229.43 196.27
  A 1.80 1.71 65.1 0 0 229.08 197.30
  L 229.02 211.14
  A 0.51 0.50 -5.5 0 0 229.63 211.64
  C 241.57 209.03 251.42 207.60 262.14 201.03
  A 0.73 0.72 71.5 0 1 263.24 201.58
  C 263.40 203.35 260.24 206.44 259.43 208.45
  A 0.38 0.38 0.0 0 0 259.76 208.97
  Q 261.88 209.09 263.73 207.48
  C 267.91 203.85 273.11 200.06 273.00 194.49
  Q 272.89 188.53 273.13 182.44
  A 0.74 0.74 0.0 0 1 273.66 181.76
  L 280.34 179.86
  A 0.54 0.54 0.0 0 1 281.03 180.40
  Q 280.53 192.32 280.01 204.26
  Q 279.87 207.35 280.45 210.51
  A 0.39 0.39 0.0 0 0 281.00 210.79
  C 285.09 208.80 290.42 204.60 290.34 199.57
  Q 290.11 186.29 291.09 172.95
  A 1.37 1.34 70.2 0 1 291.48 172.10
  C 292.97 170.61 300.48 162.98 299.97 161.24
  A 0.53 0.52 -19.2 0 0 299.26 160.90
  Q 295.31 162.55 292.76 166.01
  Q 291.99 167.05 291.99 165.75
  L 292.02 158.98
  A 1.58 1.57 -13.6 0 1 292.88 157.58
  Q 306.27 150.72 321.05 147.97
  A 0.48 0.47 79.9 0 1 321.60 148.36
  Q 321.62 148.55 321.44 148.74
  C 311.65 159.00 311.57 172.39 311.45 186.22
  A 0.86 0.86 0.0 0 0 312.66 187.01
  L 314.38 186.25
  A 0.43 0.43 0.0 0 1 314.99 186.66
  C 314.83 193.53 314.65 200.38 321.70 204.06
  C 326.23 206.43 334.31 207.15 339.12 204.13
  Q 350.70 196.86 352.71 182.58
  Q 354.85 167.43 353.93 159.55
  C 352.78 149.67 346.79 146.15 338.33 142.93
  Q 337.09 142.46 338.26 141.83
  Q 340.75 140.52 341.07 137.79
  A 0.71 0.71 0.0 0 0 340.32 137.00
  C 325.02 138.01 303.45 142.93 292.63 154.73
  Q 291.99 155.44 291.99 154.48
  L 292.01 150.76
  Q 292.01 149.70 291.11 150.26
  C 282.85 155.40 280.94 160.40 282.26 170.04
  Q 282.52 171.95 280.65 172.39
  L 273.62 174.08
  A 0.49 0.48 -6.6 0 1 273.02 173.61
  L 272.96 145.38
  Q 272.96 144.28 272.05 144.91
  L 266.35 148.82
  Q 266.26 148.88 266.33 148.79
  C 267.40 147.36 269.73 145.56 269.93 143.75
  A 0.42 0.42 0.0 0 0 269.47 143.28
  C 259.77 144.13 250.40 149.76 239.25 150.29"
/>
<path stroke="#f2f2f2" vector-effect="non-scaling-stroke" d="
  M 239.25 150.29
  L 238.98 150.25
  A 0.25 0.24 84.0 0 1 238.78 150.08
  Q 238.44 149.16 239.27 148.94
  C 244.19 147.67 242.86 144.02 241.85 140.49
  A 0.99 0.98 -34.5 0 1 242.02 139.61
  C 246.69 133.60 253.30 129.30 258.95 122.46
  A 1.29 1.28 -25.8 0 0 259.25 121.61
  L 259.24 120.00
  A 1.12 1.10 69.4 0 1 259.61 119.17
  Q 264.50 114.83 267.51 109.12"
/>
<path stroke="#838383" vector-effect="non-scaling-stroke" d="
  M 267.51 109.12
  Q 274.65 120.81 288.00 114.00
  Q 291.40 112.27 299.45 104.05
  Q 300.00 103.48 300.00 104.27
  L 300.00 114.63
  Q 300.00 116.80 300.38 118.93
  Q 301.00 122.46 302.85 123.19
  A 1.04 1.03 -52.2 0 0 303.86 123.06
  Q 309.61 118.72 314.04 113.03
  Q 314.79 112.07 313.60 112.36
  L 311.70 112.83
  A 0.57 0.57 0.0 0 1 311.03 112.46
  C 308.88 106.24 309.93 95.29 310.04 88.56
  Q 310.07 86.22 312.45 79.95
  Q 313.41 77.42 313.73 68.76
  Q 313.99 61.77 307.50 57.96"
/>
<path stroke="#838383" vector-effect="non-scaling-stroke" d="
  M 328.49 68.17
  Q 336.81 66.03 345.49 65.98
  Q 348.05 65.97 347.20 68.38
  C 341.86 83.51 336.72 95.90 338.16 113.08
  Q 338.36 115.49 341.39 115.95
  A 1.31 1.30 31.5 0 0 342.37 115.72
  Q 346.96 112.41 350.58 108.08
  A 1.24 1.18 25.8 0 0 349.85 106.14
  C 348.86 105.91 348.02 104.55 347.93 103.41
  C 346.85 89.62 350.49 77.57 355.68 64.43
  Q 357.24 60.47 356.87 56.60
  A 0.58 0.57 87.7 0 0 356.31 56.08
  C 348.51 55.92 338.35 57.27 331.82 59.62
  C 326.08 61.68 314.56 68.38 317.66 76.27
  Q 319.40 80.70 320.97 84.54
  Q 322.07 87.23 321.94 90.13
  L 320.86 113.68
  Q 320.80 115.10 322.05 114.42
  C 327.06 111.68 332.24 106.48 332.06 100.25
  Q 331.60 85.02 333.98 70.00
  Q 334.12 69.12 333.45 68.54
  A 0.75 0.74 -38.6 0 0 332.60 68.45
  C 331.41 69.10 329.21 70.75 328.22 68.75
  A 0.41 0.41 0.0 0 1 328.49 68.17"
/>
<path stroke="#838383" vector-effect="non-scaling-stroke" d="
  M 384.07 162.99
  Q 383.42 162.98 383.89 162.53
  C 387.83 158.71 394.15 151.27 392.49 145.49
  Q 391.32 141.43 387.35 141.80
  C 375.78 142.90 364.49 144.27 358.44 155.55
  Q 358.04 156.29 358.82 155.97
  L 361.22 154.98
  Q 363.11 154.20 362.83 156.23
  Q 360.65 172.23 361.12 188.38
  Q 361.18 190.30 359.90 191.74
  C 358.78 193.01 357.12 194.02 356.53 195.83
  C 353.51 205.06 357.48 210.58 366.89 210.89
  Q 390.14 211.66 401.75 192.13
  C 405.27 186.19 405.34 170.79 401.00 165.26
  Q 399.24 163.03 396.39 163.02
  L 384.07 162.99"
/>
<path stroke="#838383" vector-effect="non-scaling-stroke" d="
  M 308.52 160.20
  C 305.31 161.40 300.12 166.55 300.07 170.06
  Q 299.81 190.08 300.20 210.15
  Q 300.27 213.27 302.91 211.61
  Q 306.93 209.07 309.79 205.34
  A 3.90 3.86 -30.1 0 0 310.56 202.52
  C 309.78 196.26 310.13 188.87 309.97 184.08
  Q 309.61 173.29 310.19 161.42
  A 1.24 1.23 81.0 0 0 308.52 160.20"
/>
<path stroke="#838383" vector-effect="non-scaling-stroke" d="
  M 76.86 73.45
  Q 69.08 85.36 68.09 99.63
  A 1.02 1.01 -9.5 0 0 69.50 100.63
  L 77.76 97.15
  A 0.69 0.68 -11.9 0 0 78.19 96.50
  L 77.84 73.73
  Q 77.81 71.99 76.86 73.45"
/>
<path stroke="#767676" vector-effect="non-scaling-stroke" d="
  M 222.96 83.50
  Q 221.52 97.73 222.02 106.26
  Q 222.24 110.08 226.17 112.58
  A 0.51 0.51 0.0 0 1 226.25 113.38
  L 217.84 121.55
  A 2.03 2.03 0.0 0 1 215.28 121.76
  C 210.18 118.22 212.00 104.34 212.21 98.75"
/>
<path stroke="#838383" vector-effect="non-scaling-stroke" d="
  M 212.21 98.75
  L 213.52 76.98
  Q 213.55 76.46 213.23 76.87
  Q 206.11 86.12 199.95 95.94
  C 196.60 101.29 197.20 106.38 201.18 111.11"
/>
<path stroke="#767676" vector-effect="non-scaling-stroke" d="
  M 201.18 111.11
  L 198.25 114.46"
/>
<path stroke="#838383" vector-effect="non-scaling-stroke" d="
  M 169.46 58.92
  Q 161.79 59.04 155.42 63.34
  A 1.01 1.00 -17.6 0 0 154.99 64.16
  C 154.99 77.02 154.44 90.17 155.52 102.96
  A 0.69 0.69 0.0 0 0 156.44 103.55
  L 163.41 101.04
  A 1.32 1.31 1.0 0 0 164.19 100.29
  C 170.07 85.84 173.03 73.95 170.74 60.00
  A 1.29 1.27 84.8 0 0 169.46 58.92"
/>
<path stroke="#838383" vector-effect="non-scaling-stroke" d="
  M 187.40 95.62
  C 185.73 100.05 182.25 108.26 183.14 112.57
  Q 183.24 113.08 183.62 112.72
  C 188.60 107.93 188.54 101.70 187.78 95.66
  Q 187.68 94.88 187.40 95.62"
/>
<path stroke="#838383" vector-effect="non-scaling-stroke" d="
  M 156.33 116.33
  L 151.13 120.83
  Q 150.72 121.19 151.22 120.97
  Q 155.05 119.25 156.70 116.65
  Q 157.58 115.25 156.33 116.33"
/>
<path stroke="#838383" vector-effect="non-scaling-stroke" d="
  M 147.19 121.99
  Q 148.17 123.39 148.03 121.69
  Q 147.83 119.25 146.62 117.11
  Q 146.15 116.27 146.03 117.23
  Q 145.71 119.87 147.19 121.99"
/>
<path stroke="#767676" vector-effect="non-scaling-stroke" d="
  M 267.51 109.12
  L 264.73 106.79
  A 0.63 0.61 -40.3 0 0 264.00 106.74
  C 256.57 111.43 250.74 113.34 242.10 111.33
  A 1.07 1.05 -58.9 0 0 241.14 111.58
  Q 239.73 112.87 237.72 112.91
  Q 235.48 112.95 235.11 110.74
  C 234.32 105.97 234.10 102.24 234.55 97.11
  Q 235.89 81.80 235.98 66.06"
/>
<path stroke="#838383" vector-effect="non-scaling-stroke" d="
  M 279.79 95.25
  Q 279.45 97.76 280.13 100.28
  A 1.14 1.12 6.4 0 0 280.71 100.99
  C 286.67 103.91 290.09 101.62 295.36 98.79
  A 0.27 0.27 0.0 0 1 295.67 98.83
  C 296.55 99.67 290.69 105.41 289.90 106.07
  Q 289.51 106.39 290.02 106.41
  C 294.71 106.52 297.41 101.61 298.89 97.68
  C 301.58 90.51 297.46 79.37 302.49 73.86
  A 0.77 0.77 0.0 0 0 302.63 73.03
  Q 301.54 70.55 299.34 68.71"
/>
<path stroke="#767676" vector-effect="non-scaling-stroke" d="
  M 299.34 68.71
  Q 290.14 64.11 280.03 66.31
  A 1.29 1.27 -79.4 0 0 279.22 66.87
  Q 272.79 76.83 272.87 88.71
  Q 272.87 89.38 273.22 88.82
  C 277.13 82.56 279.71 78.26 285.85 75.28
  A 0.96 0.95 73.8 0 1 287.22 76.04
  C 287.95 82.57 279.73 87.38 279.79 95.25"
/>
<path stroke="#f2f2f2" vector-effect="non-scaling-stroke" d="
  M 299.34 68.71
  Q 296.95 69.79 295.65 71.84
  A 0.68 0.66 -50.0 0 0 295.71 72.64
  C 297.65 74.76 294.89 76.65 293.11 77.21
  A 1.72 1.65 -78.2 0 0 292.32 77.75
  Q 287.75 83.43 287.69 90.69
  A 1.99 1.98 86.3 0 1 285.97 92.65
  Q 282.83 93.08 279.79 95.25"
/>
<path stroke="#767676" vector-effect="non-scaling-stroke" d="
  M 239.25 150.29
  L 234.75 150.95
  A 0.59 0.59 0.0 0 1 234.09 150.53
  C 232.46 144.70 231.46 138.22 224.25 137.67
  C 220.70 137.41 211.85 138.95 208.52 141.03
  Q 204.54 143.52 198.52 151.42
  Q 197.90 152.23 197.95 151.22
  L 198.28 142.86
  Q 198.36 141.00 196.72 141.90
  Q 191.81 144.60 188.89 149.41
  Q 187.82 151.19 187.92 153.26
  Q 188.96 175.74 180.81 196.67
  Q 179.64 199.68 177.01 197.80
  C 171.62 193.92 172.05 189.21 174.81 183.61
  Q 179.16 174.81 179.57 165.02
  Q 179.65 162.94 177.83 163.96
  C 166.63 170.23 162.89 182.00 163.04 194.17
  A 0.91 0.91 0.0 0 1 162.15 195.10
  C 158.13 195.16 144.73 196.53 148.46 188.23
  Q 153.71 176.57 161.78 164.27
  Q 163.07 162.29 163.75 160.04"
/>
<path stroke="#f2f2f2" vector-effect="non-scaling-stroke" d="
  M 201.18 111.11
  Q 204.14 108.01 205.33 103.86
  A 1.64 1.61 -11.9 0 1 205.86 103.06
  L 210.85 99.05
  A 1.36 1.34 25.2 0 1 211.70 98.75
  L 212.21 98.75"
/>
<path stroke="#767676" vector-effect="non-scaling-stroke" d="
  M 153.25 251.21
  C 148.88 249.07 133.18 241.53 140.25 234.23
  Q 143.66 230.71 147.32 228.32
  A 0.44 0.44 0.0 0 1 147.96 228.51
  C 151.27 235.80 157.13 239.33 164.43 241.95"
/>
<path stroke="#838383" vector-effect="non-scaling-stroke" d="
  M 164.43 241.95
  Q 172.13 244.79 179.19 243.99
  Q 181.24 243.76 181.63 241.73
  Q 183.77 230.57 184.75 219.54"
/>
<path stroke="#767676" vector-effect="non-scaling-stroke" d="
  M 184.75 219.54
  L 186.88 195.72
  Q 187.00 194.46 186.27 195.49
  C 183.32 199.65 176.22 208.09 170.64 208.07
  C 165.00 208.05 164.65 204.33 162.52 200.34
  A 0.35 0.35 0.0 0 0 161.95 200.27
  Q 157.33 205.56 150.32 205.03
  A 1.27 1.24 -62.9 0 0 149.40 205.34
  L 145.57 208.73
  Q 143.32 210.72 140.78 209.11
  C 134.68 205.26 137.22 184.52 138.13 178.15
  A 0.99 0.99 0.0 0 0 136.92 177.04
  L 131.10 178.45
  A 1.43 1.41 83.5 0 0 130.02 179.82
  C 129.96 188.25 128.96 199.03 130.71 207.14
  A 1.03 1.01 -28.6 0 1 130.42 208.09
  L 123.02 215.17
  A 1.79 1.79 0.0 0 1 120.52 215.15
  Q 119.82 214.45 119.34 212.37"
/>
<path stroke="#767676" vector-effect="non-scaling-stroke" d="
  M 222.97 155.74
  C 221.52 149.43 218.39 146.72 211.66 148.15
  A 0.84 0.83 84.1 0 0 211.00 148.97
  L 211.00 164.46
  Q 211.00 164.99 211.42 164.68
  L 222.67 156.54
  A 0.79 0.78 65.8 0 0 222.97 155.74"
/>
<path stroke="#838383" vector-effect="non-scaling-stroke" d="
  M 263.00 168.61
  L 263.24 154.03
  A 1.83 1.78 62.7 0 1 263.53 153.08
  L 264.98 150.82
  Q 266.05 149.15 264.48 150.36
  L 262.11 152.19
  Q 261.74 152.48 261.28 152.59
  L 247.62 155.98
  A 0.73 0.73 0.0 0 0 247.06 156.68
  Q 246.85 166.27 244.20 175.47
  Q 244.01 176.11 244.62 175.85
  Q 253.15 172.16 262.13 169.73
  A 1.19 1.18 83.2 0 0 263.00 168.61"
/>
<path stroke="#838383" vector-effect="non-scaling-stroke" d="
  M 323.2681 156.8080
  A 2.45 0.51 109.6 0 0 324.5704 154.6711
  A 2.45 0.51 109.6 0 0 324.9119 152.1920
  A 2.45 0.51 109.6 0 0 323.6096 154.3289
  A 2.45 0.51 109.6 0 0 323.2681 156.8080"
/>
<path stroke="#767676" vector-effect="non-scaling-stroke" d="
  M 200.42 153.39
  C 199.27 153.52 198.24 155.28 198.24 156.39
  Q 198.25 168.60 197.17 181.43
  Q 196.98 183.61 198.27 181.84
  C 199.97 179.49 201.02 176.70 201.02 173.52
  Q 201.02 163.75 200.94 153.85
  A 0.47 0.46 -3.3 0 0 200.42 153.39"
/>
<path stroke="#838383" vector-effect="non-scaling-stroke" d="
  M 331.25 154.51
  C 327.28 163.11 321.24 183.39 327.54 191.27
  C 330.34 194.77 335.88 196.41 340.27 196.03
  A 2.16 2.15 -88.0 0 0 342.22 194.21
  Q 343.82 183.67 344.01 173.15
  C 344.18 163.83 341.11 157.28 332.19 154.12
  A 0.76 0.75 22.3 0 0 331.25 154.51"
/>
<path stroke="#838383" vector-effect="non-scaling-stroke" d="
  M 235.01 160.23
  C 235.06 167.32 234.49 173.30 233.19 180.00
  Q 232.81 181.95 234.13 180.47
  C 237.38 176.85 237.04 165.37 235.93 160.47
  A 0.56 0.23 82.1 0 0 235.69 160.06
  L 235.37 159.96
  A 0.28 0.28 0.0 0 0 235.01 160.23"
/>
<path stroke="#838383" vector-effect="non-scaling-stroke" d="
  M 211.04 184.50
  L 210.30 200.51
  A 0.56 0.55 5.8 0 0 210.77 201.08
  C 215.65 201.87 218.88 201.24 220.47 196.67
  Q 225.68 181.75 224.21 166.75"
/>
<path stroke="#767676" vector-effect="non-scaling-stroke" d="
  M 224.21 166.75
  L 223.84 162.34
  A 0.41 0.41 0.0 0 0 223.28 162.00
  Q 217.19 164.47 211.94 168.42
  A 2.23 2.23 0.0 0 0 211.04 170.21
  L 211.04 184.50"
/>
<path stroke="#f2f2f2" vector-effect="non-scaling-stroke" d="
  M 224.21 166.75
  Q 222.34 167.33 221.04 168.82
  A 0.74 0.73 52.2 0 0 220.94 169.63
  Q 221.48 170.73 220.47 171.25
  Q 215.99 173.58 214.30 177.54
  C 213.49 179.42 213.84 181.59 213.55 183.75
  A 0.77 0.76 86.7 0 1 212.99 184.39
  Q 212.03 184.66 211.04 184.50"
/>
<path stroke="#838383" vector-effect="non-scaling-stroke" d="
  M 98.76 170.95
  C 99.02 162.51 90.19 162.26 84.15 162.21
  A 0.97 0.95 17.5 0 0 83.34 162.62
  Q 79.98 167.37 80.94 173.02
  A 4.86 4.84 51.0 0 1 80.67 175.66
  Q 77.40 183.93 77.04 192.99
  C 76.72 201.40 83.59 202.33 90.16 201.90
  A 0.89 0.86 -77.7 0 0 90.88 201.42
  Q 98.25 187.05 98.76 170.95"
/>
<path stroke="#838383" vector-effect="non-scaling-stroke" d="
  M 262.61 182.95
  C 262.54 180.32 263.05 177.32 263.00 174.42
  Q 262.99 173.56 262.42 174.20
  C 257.67 179.59 249.76 180.71 243.08 182.80
  A 1.41 1.40 -4.2 0 0 242.11 183.91
  L 239.32 200.35
  A 0.44 0.43 -87.3 0 0 239.77 200.86
  Q 251.05 200.11 261.50 195.88
  Q 263.25 195.18 263.12 193.30
  Q 262.76 187.86 262.61 182.95"
/>
<path stroke="#838383" vector-effect="non-scaling-stroke" d="
  M 85.0185 209.0975
  A 2.80 0.50 133.9 0 0 87.3203 207.4267
  A 2.80 0.50 133.9 0 0 88.9015 205.0625
  A 2.80 0.50 133.9 0 0 86.5997 206.7333
  A 2.80 0.50 133.9 0 0 85.0185 209.0975"
/>
<path stroke="#838383" vector-effect="non-scaling-stroke" d="
  M 372.07 152.81
  L 371.08 167.47
  Q 371.02 168.34 371.63 167.72
  C 376.20 163.04 385.96 161.62 381.69 152.51
  A 0.89 0.88 77.3 0 0 380.89 152.00
  L 372.94 152.00
  A 0.87 0.86 1.7 0 0 372.07 152.81"
/>
<path stroke="#838383" vector-effect="non-scaling-stroke" d="
  M 376.48 194.90
  C 375.15 196.70 372.82 198.28 371.71 200.36
  A 0.33 0.33 0.0 0 0 371.97 200.85
  C 375.93 201.21 390.72 201.05 393.04 197.32
  C 395.32 193.66 393.73 181.71 393.26 178.85
  Q 392.32 172.99 386.55 172.93
  Q 379.26 172.84 372.22 173.46
  A 1.29 1.29 0.0 0 0 371.04 174.73
  C 370.95 181.28 369.05 190.60 376.33 194.27
  A 0.43 0.42 -58.8 0 1 376.48 194.90"
/>
<path stroke="#f2f2f2" vector-effect="non-scaling-stroke" d="
  M 184.75 219.54
  C 180.16 218.96 173.76 228.05 171.99 231.56
  C 169.73 236.04 167.46 238.45 164.43 241.95"
/>
</g>
<path fill="#ffffff" d="
  M 0.00 0.00
  L 285.81 0.00
  L 283.96 0.39
  A 1.25 1.22 9.9 0 0 283.21 0.90
  C 281.84 2.96 280.18 4.24 279.72 6.77
  Q 279.19 9.65 278.81 12.61
  A 1.02 1.02 0.0 0 1 278.24 13.40
  Q 275.20 14.89 271.88 14.50
  A 1.10 1.09 26.4 0 0 271.03 14.78
  C 268.36 17.27 268.78 21.35 266.36 23.11
  Q 264.89 24.18 263.55 25.50
  A 1.09 1.04 70.3 0 0 263.23 26.22
  L 262.91 33.26
  A 0.81 0.81 0.0 0 1 262.25 34.02
  L 259.59 34.52
  A 1.20 1.19 -75.7 0 0 258.87 34.95
  L 255.22 39.56
  A 1.24 1.19 -24.9 0 0 254.95 40.26
  Q 254.65 45.46 252.01 49.94
  A 1.64 1.62 58.3 0 0 251.78 50.94
  L 252.05 53.97
  A 1.14 1.11 65.8 0 1 251.72 54.88
  L 246.16 60.40
  L 245.94 57.84
  A 0.82 0.82 0.0 0 0 244.73 57.20
  Q 238.93 60.38 235.98 66.06
  Q 231.11 69.18 229.80 74.89
  C 229.45 76.40 224.74 85.15 223.60 85.26
  A 0.52 0.52 0.0 0 1 223.02 84.77
  L 222.96 83.50
  L 224.11 61.92
  Q 224.20 60.29 222.76 61.07
  Q 217.09 64.13 213.78 69.77
  C 209.45 77.15 203.60 83.70 198.63 90.71
  Q 198.00 91.59 198.00 90.51
  L 198.00 59.54
  A 0.58 0.57 -12.1 0 0 197.19 59.02
  Q 192.65 61.10 189.76 65.07
  C 186.96 68.91 188.03 75.97 188.10 80.79
  A 1.41 1.41 0.0 0 1 187.71 81.79
  L 183.50 86.18
  Q 183.17 86.52 183.03 86.96
  L 178.62 101.22
  A 0.68 0.68 0.0 0 1 177.80 101.68
  L 171.48 100.12
  A 0.45 0.45 0.0 0 1 171.18 99.51
  C 177.27 85.17 184.05 68.03 180.76 50.78
  A 2.17 2.16 -2.6 0 0 178.83 49.03
  C 171.77 48.40 163.19 53.12 156.94 56.20
  Q 151.12 59.08 147.73 64.60
  A 0.61 0.60 -66.6 0 0 148.08 65.50
  L 149.00 65.76
  A 0.23 0.23 0.0 0 1 149.10 66.14
  C 146.96 68.38 145.21 70.35 145.16 73.71
  Q 144.84 92.22 145.06 110.77
  A 1.41 1.39 -25.6 0 1 144.74 111.66
  C 139.67 117.74 134.46 120.46 136.28 129.83
  A 1.81 1.80 -7.4 0 0 138.18 131.29
  C 148.84 130.56 159.74 119.08 165.25 110.66
  A 0.60 0.59 -60.8 0 1 165.98 110.45
  C 170.04 112.28 172.10 115.39 171.64 120.04
  Q 170.91 127.46 170.98 134.55
  Q 171.00 136.95 173.07 135.75
  Q 179.75 131.91 183.76 125.42
  A 1.86 1.82 -30.4 0 0 184.04 124.38
  C 183.91 120.08 183.22 116.99 187.29 114.26
  A 0.41 0.41 0.0 0 1 187.90 114.44
  L 190.07 119.51
  A 1.34 1.34 0.0 0 0 192.20 119.97
  L 198.25 114.46
  L 200.59 117.35
  A 0.69 0.69 0.0 0 1 200.55 118.25
  Q 196.55 122.55 193.40 127.52
  A 1.99 1.98 2.8 0 1 192.59 128.25
  Q 189.34 129.83 187.64 133.02
  A 1.93 1.88 89.2 0 1 186.94 133.76
  C 183.60 135.79 181.66 138.24 181.45 142.22
  Q 181.27 145.81 177.97 147.13
  C 176.25 147.82 175.37 148.62 176.30 150.50
  A 1.17 1.16 -22.9 0 1 175.64 152.11
  Q 173.49 152.86 171.85 154.31
  C 169.39 156.49 168.45 161.91 163.75 160.04
  C 157.21 160.85 151.06 173.60 147.69 178.64
  Q 147.14 179.46 147.23 178.48
  Q 148.37 165.62 148.01 152.68
  A 0.23 0.23 0.0 0 0 147.69 152.48
  Q 141.29 155.27 138.76 161.55
  C 137.93 163.60 138.41 166.15 138.01 168.48
  A 0.87 0.85 86.1 0 1 137.44 169.15
  L 131.92 171.03
  A 0.43 0.43 0.0 0 1 131.35 170.56
  L 133.43 154.86
  Q 133.53 154.09 132.83 154.43
  C 128.69 156.43 123.33 160.55 123.00 165.50
  Q 122.68 170.31 121.83 173.60
  A 0.87 0.86 -1.3 0 1 121.23 174.22
  L 112.88 176.57
  A 0.28 0.28 0.0 0 1 112.53 176.29
  L 113.11 156.02
  A 0.97 0.97 0.0 0 0 111.69 155.13
  L 108.68 156.73
  A 0.69 0.68 52.5 0 1 107.89 156.62
  C 101.84 150.74 89.94 151.59 83.69 156.94
  C 73.06 166.04 70.15 177.63 67.52 190.76
  C 66.16 197.53 61.27 209.36 52.01 205.37
  A 1.96 1.95 -78.2 0 1 50.83 203.56
  L 50.97 188.57
  A 2.92 2.89 65.2 0 1 51.63 186.75
  C 63.02 172.95 73.01 158.10 84.65 144.56
  A 0.95 0.95 0.0 0 0 84.24 143.04
  C 80.51 141.71 55.67 176.68 52.44 181.12
  A 1.07 1.07 0.0 0 1 50.63 181.00
  Q 50.51 180.76 50.57 179.23
  Q 51.27 163.12 50.87 146.91
  A 0.42 0.42 0.0 0 0 50.25 146.56
  Q 45.75 149.09 42.56 153.18
  Q 41.00 155.17 41.00 157.71
  L 41.00 194.95
  A 1.30 1.28 65.7 0 1 40.69 195.79
  Q 35.86 201.39 37.09 208.54
  C 37.49 210.91 39.05 212.50 40.61 214.24
  A 1.34 1.30 -67.0 0 1 40.94 215.09
  L 41.13 223.50
  Q 41.16 224.49 42.00 223.97
  C 46.71 221.09 49.08 216.71 53.35 213.86
  Q 59.80 209.55 65.47 204.09
  Q 65.83 203.75 65.83 204.24
  C 65.89 212.01 66.83 221.29 77.17 218.84
  Q 79.28 218.34 81.86 216.38
  Q 94.56 206.72 101.31 192.04
  Q 102.37 189.75 102.23 192.27
  L 101.10 212.99
  A 1.07 1.07 0.0 0 0 102.31 214.11
  C 104.31 213.85 108.88 208.51 110.44 206.91
  A 2.61 2.58 -21.9 0 0 111.16 205.25
  L 112.15 184.61
  A 0.68 0.67 84.8 0 1 112.66 183.99
  L 120.04 182.13
  A 0.46 0.45 -5.7 0 1 120.61 182.59
  L 119.34 212.37
  Q 114.57 217.86 109.80 223.31
  C 106.24 227.37 103.38 232.44 99.64 236.82
  C 94.69 242.62 90.52 247.91 84.06 253.44
  C 81.34 255.78 80.73 257.93 80.34 261.29
  A 1.26 1.25 -14.1 0 1 79.81 262.16
  L 73.86 266.25
  Q 73.44 266.53 72.96 266.64
  L 66.68 267.99
  Q 65.34 268.28 66.67 268.58
  C 70.62 269.48 74.20 268.30 77.81 268.75
  Q 82.63 269.34 87.44 270.00
  L 0.00 270.00
  L 0.00 0.00
  Z
  M 44.09 38.30
  Q 38.10 69.49 40.62 101.18
  Q 41.37 110.54 46.55 118.52
  A 0.61 0.61 0.0 0 0 47.37 118.72
  Q 53.34 115.34 56.70 109.37
  A 0.76 0.76 0.0 0 0 56.38 108.32
  L 55.57 107.90
  A 1.57 1.57 0.0 0 1 54.84 107.14
  Q 50.53 97.82 50.11 84.75
  Q 49.24 57.69 53.75 30.98
  A 1.22 1.20 83.2 0 1 54.46 30.07
  C 56.86 29.03 69.62 23.51 71.35 23.98
  A 0.44 0.44 0.0 0 1 71.65 24.52
  L 71.14 26.23
  Q 70.77 27.47 71.84 26.75
  Q 78.36 22.39 82.11 15.53
  A 0.98 0.98 0.0 0 0 81.68 14.18
  C 78.66 12.72 59.24 21.84 55.61 23.77
  Q 55.15 24.01 55.27 23.51
  L 57.84 12.75
  Q 58.08 11.74 57.14 12.18
  C 48.87 16.07 47.67 21.47 45.94 29.87
  A 4.04 4.03 -14.4 0 1 44.60 32.13
  Q 39.83 36.21 36.40 41.39
  A 1.28 1.28 0.0 0 0 37.01 43.30
  C 37.99 43.68 42.55 38.82 43.76 38.07
  Q 44.19 37.80 44.09 38.30
  Z
  M 109.10 80.53
  Q 110.46 63.54 110.90 59.57
  Q 111.28 56.12 110.61 53.49
  A 0.41 0.40 68.8 0 0 110.03 53.23
  C 106.25 55.27 101.59 59.07 101.25 63.71
  Q 100.19 78.03 98.72 92.40
  A 0.74 0.73 89.6 0 1 98.08 93.06
  L 89.57 94.07
  A 0.56 0.56 0.0 0 1 88.94 93.56
  Q 87.84 80.42 87.89 67.24
  Q 87.89 65.29 89.18 63.83
  L 93.51 58.90
  A 0.48 0.48 0.0 0 0 93.38 58.16
  C 92.84 57.87 91.33 57.97 90.72 58.33
  C 72.35 69.02 59.15 87.65 58.04 109.27
  Q 57.87 112.54 58.03 123.44
  C 58.12 129.82 62.23 137.82 69.57 131.80
  Q 73.65 128.44 76.93 124.22
  Q 77.24 123.83 76.75 123.89
  C 67.64 125.08 67.44 115.07 67.83 109.07
  A 2.32 2.32 0.0 0 1 69.52 106.99
  L 77.62 104.73
  A 1.31 1.30 79.7 0 1 79.27 105.88
  L 80.43 119.32
  A 0.55 0.54 -17.6 0 0 81.25 119.74
  Q 85.48 117.23 88.52 113.29
  C 90.56 110.64 90.11 106.88 89.96 103.72
  A 0.89 0.89 0.0 0 1 90.74 102.79
  L 97.07 102.01
  A 0.53 0.53 0.0 0 1 97.67 102.56
  L 96.93 117.39
  Q 96.79 120.16 99.26 118.90
  Q 104.44 116.27 107.41 111.28
  A 1.38 1.37 56.3 0 0 107.59 110.35
  Q 106.29 101.68 108.79 93.34
  A 1.15 1.14 -53.4 0 0 108.65 92.37
  L 108.10 91.53
  A 0.95 0.95 0.0 0 1 108.70 90.08
  Q 116.09 88.55 123.20 85.96
  A 0.30 0.30 0.0 0 1 123.60 86.25
  L 122.30 119.15
  Q 122.22 121.34 124.34 120.76
  C 126.08 120.29 131.07 114.52 132.38 112.90
  A 1.45 1.44 64.9 0 0 132.71 111.98
  L 133.01 83.21
  A 1.29 1.27 75.8 0 1 133.66 82.11
  Q 139.84 78.58 143.71 72.68
  Q 144.36 71.69 143.26 72.12
  L 135.03 75.32
  A 0.70 0.70 0.0 0 1 134.08 74.56
  Q 135.87 62.05 136.04 49.44
  A 1.08 1.08 0.0 0 0 134.44 48.48
  C 131.03 50.33 126.53 54.36 126.23 58.68
  Q 125.57 67.96 125.03 77.21
  A 1.77 1.77 0.0 0 1 123.77 78.79
  Q 116.82 80.88 109.60 81.06
  A 0.49 0.49 0.0 0 1 109.10 80.53
  Z"
/>
<path fill="#e5e5e5" d="
  M 285.81 0.00
  L 342.06 0.00
  L 342.98 0.34
  A 0.44 0.44 0.0 0 1 343.18 1.01
  C 340.00 5.19 334.94 9.19 332.65 13.74
  Q 328.95 21.09 322.64 26.41
  A 1.44 1.43 76.0 0 0 322.16 27.22
  C 320.53 34.89 318.59 45.99 309.66 47.62
  A 0.53 0.52 -7.6 0 0 309.22 48.19
  Q 309.68 53.37 307.50 57.96
  C 299.35 54.64 288.84 54.29 281.64 60.18
  C 269.36 70.23 261.52 85.16 262.86 101.34
  A 0.49 0.49 0.0 0 1 262.42 101.87
  Q 255.09 102.63 248.16 100.62
  Q 245.19 99.76 244.83 96.69
  C 243.57 86.01 248.33 69.40 259.05 63.84
  Q 264.91 60.80 268.89 55.25
  A 0.78 0.78 0.0 0 0 268.44 54.04
  C 263.25 52.81 250.02 67.30 246.95 71.45
  Q 245.99 72.75 246.01 71.14
  L 246.16 60.40
  L 251.72 54.88
  A 1.14 1.11 65.8 0 0 252.05 53.97
  L 251.78 50.94
  A 1.64 1.62 58.3 0 1 252.01 49.94
  Q 254.65 45.46 254.95 40.26
  A 1.24 1.19 -24.9 0 1 255.22 39.56
  L 258.87 34.95
  A 1.20 1.19 -75.7 0 1 259.59 34.52
  L 262.25 34.02
  A 0.81 0.81 0.0 0 0 262.91 33.26
  L 263.23 26.22
  A 1.09 1.04 70.3 0 1 263.55 25.50
  Q 264.89 24.18 266.36 23.11
  C 268.78 21.35 268.36 17.27 271.03 14.78
  A 1.10 1.09 26.4 0 1 271.88 14.50
  Q 275.20 14.89 278.24 13.40
  A 1.02 1.02 0.0 0 0 278.81 12.61
  Q 279.19 9.65 279.72 6.77
  C 280.18 4.24 281.84 2.96 283.21 0.90
  A 1.25 1.22 9.9 0 1 283.96 0.39
  L 285.81 0.00
  Z"
/>
<path fill="#ffffff" d="
  M 342.06 0.00
  L 450.00 0.00
  L 450.00 270.00
  L 136.21 270.02
  Q 140.91 264.70 142.41 257.71
  A 0.75 0.72 -88.0 0 1 143.00 257.14
  Q 149.21 256.00 153.25 251.21
  C 160.57 254.17 169.93 255.54 177.16 251.62
  Q 189.39 245.01 192.16 230.84
  Q 194.26 220.12 195.22 205.36
  Q 195.25 204.91 195.52 205.27
  L 199.86 211.04
  A 1.25 1.20 29.3 0 1 200.11 211.86
  C 199.23 227.89 198.38 243.87 198.29 259.91
  Q 198.28 262.04 199.80 260.54
  L 207.08 253.31
  A 2.54 2.52 -21.2 0 0 207.82 251.65
  L 209.57 211.77
  A 2.02 2.02 0.0 0 1 210.95 209.94
  C 219.30 207.17 227.19 196.00 230.63 188.33
  C 231.10 187.29 232.16 186.52 233.17 186.19
  A 0.31 0.31 0.0 0 1 233.58 186.53
  Q 232.75 191.92 229.43 196.27
  A 1.80 1.71 65.1 0 0 229.08 197.30
  L 229.02 211.14
  A 0.51 0.50 -5.5 0 0 229.63 211.64
  C 241.57 209.03 251.42 207.60 262.14 201.03
  A 0.73 0.72 71.5 0 1 263.24 201.58
  C 263.40 203.35 260.24 206.44 259.43 208.45
  A 0.38 0.38 0.0 0 0 259.76 208.97
  Q 261.88 209.09 263.73 207.48
  C 267.91 203.85 273.11 200.06 273.00 194.49
  Q 272.89 188.53 273.13 182.44
  A 0.74 0.74 0.0 0 1 273.66 181.76
  L 280.34 179.86
  A 0.54 0.54 0.0 0 1 281.03 180.40
  Q 280.53 192.32 280.01 204.26
  Q 279.87 207.35 280.45 210.51
  A 0.39 0.39 0.0 0 0 281.00 210.79
  C 285.09 208.80 290.42 204.60 290.34 199.57
  Q 290.11 186.29 291.09 172.95
  A 1.37 1.34 70.2 0 1 291.48 172.10
  C 292.97 170.61 300.48 162.98 299.97 161.24
  A 0.53 0.52 -19.2 0 0 299.26 160.90
  Q 295.31 162.55 292.76 166.01
  Q 291.99 167.05 291.99 165.75
  L 292.02 158.98
  A 1.58 1.57 -13.6 0 1 292.88 157.58
  Q 306.27 150.72 321.05 147.97
  A 0.48 0.47 79.9 0 1 321.60 148.36
  Q 321.62 148.55 321.44 148.74
  C 311.65 159.00 311.57 172.39 311.45 186.22
  A 0.86 0.86 0.0 0 0 312.66 187.01
  L 314.38 186.25
  A 0.43 0.43 0.0 0 1 314.99 186.66
  C 314.83 193.53 314.65 200.38 321.70 204.06
  C 326.23 206.43 334.31 207.15 339.12 204.13
  Q 350.70 196.86 352.71 182.58
  Q 354.85 167.43 353.93 159.55
  C 352.78 149.67 346.79 146.15 338.33 142.93
  Q 337.09 142.46 338.26 141.83
  Q 340.75 140.52 341.07 137.79
  A 0.71 0.71 0.0 0 0 340.32 137.00
  C 325.02 138.01 303.45 142.93 292.63 154.73
  Q 291.99 155.44 291.99 154.48
  L 292.01 150.76
  Q 292.01 149.70 291.11 150.26
  C 282.85 155.40 280.94 160.40 282.26 170.04
  Q 282.52 171.95 280.65 172.39
  L 273.62 174.08
  A 0.49 0.48 -6.6 0 1 273.02 173.61
  L 272.96 145.38
  Q 272.96 144.28 272.05 144.91
  L 266.35 148.82
  Q 266.26 148.88 266.33 148.79
  C 267.40 147.36 269.73 145.56 269.93 143.75
  A 0.42 0.42 0.0 0 0 269.47 143.28
  C 259.77 144.13 250.40 149.76 239.25 150.29
  L 238.98 150.25
  A 0.25 0.24 84.0 0 1 238.78 150.08
  Q 238.44 149.16 239.27 148.94
  C 244.19 147.67 242.86 144.02 241.85 140.49
  A 0.99 0.98 -34.5 0 1 242.02 139.61
  C 246.69 133.60 253.30 129.30 258.95 122.46
  A 1.29 1.28 -25.8 0 0 259.25 121.61
  L 259.24 120.00
  A 1.12 1.10 69.4 0 1 259.61 119.17
  Q 264.50 114.83 267.51 109.12
  Q 274.65 120.81 288.00 114.00
  Q 291.40 112.27 299.45 104.05
  Q 300.00 103.48 300.00 104.27
  L 300.00 114.63
  Q 300.00 116.80 300.38 118.93
  Q 301.00 122.46 302.85 123.19
  A 1.04 1.03 -52.2 0 0 303.86 123.06
  Q 309.61 118.72 314.04 113.03
  Q 314.79 112.07 313.60 112.36
  L 311.70 112.83
  A 0.57 0.57 0.0 0 1 311.03 112.46
  C 308.88 106.24 309.93 95.29 310.04 88.56
  Q 310.07 86.22 312.45 79.95
  Q 313.41 77.42 313.73 68.76
  Q 313.99 61.77 307.50 57.96
  Q 309.68 53.37 309.22 48.19
  A 0.53 0.52 -7.6 0 1 309.66 47.62
  C 318.59 45.99 320.53 34.89 322.16 27.22
  A 1.44 1.43 76.0 0 1 322.64 26.41
  Q 328.95 21.09 332.65 13.74
  C 334.94 9.19 340.00 5.19 343.18 1.01
  A 0.44 0.44 0.0 0 0 342.98 0.34
  L 342.06 0.00
  Z
  M 328.49 68.17
  Q 336.81 66.03 345.49 65.98
  Q 348.05 65.97 347.20 68.38
  C 341.86 83.51 336.72 95.90 338.16 113.08
  Q 338.36 115.49 341.39 115.95
  A 1.31 1.30 31.5 0 0 342.37 115.72
  Q 346.96 112.41 350.58 108.08
  A 1.24 1.18 25.8 0 0 349.85 106.14
  C 348.86 105.91 348.02 104.55 347.93 103.41
  C 346.85 89.62 350.49 77.57 355.68 64.43
  Q 357.24 60.47 356.87 56.60
  A 0.58 0.57 87.7 0 0 356.31 56.08
  C 348.51 55.92 338.35 57.27 331.82 59.62
  C 326.08 61.68 314.56 68.38 317.66 76.27
  Q 319.40 80.70 320.97 84.54
  Q 322.07 87.23 321.94 90.13
  L 320.86 113.68
  Q 320.80 115.10 322.05 114.42
  C 327.06 111.68 332.24 106.48 332.06 100.25
  Q 331.60 85.02 333.98 70.00
  Q 334.12 69.12 333.45 68.54
  A 0.75 0.74 -38.6 0 0 332.60 68.45
  C 331.41 69.10 329.21 70.75 328.22 68.75
  A 0.41 0.41 0.0 0 1 328.49 68.17
  Z
  M 384.07 162.99
  Q 383.42 162.98 383.89 162.53
  C 387.83 158.71 394.15 151.27 392.49 145.49
  Q 391.32 141.43 387.35 141.80
  C 375.78 142.90 364.49 144.27 358.44 155.55
  Q 358.04 156.29 358.82 155.97
  L 361.22 154.98
  Q 363.11 154.20 362.83 156.23
  Q 360.65 172.23 361.12 188.38
  Q 361.18 190.30 359.90 191.74
  C 358.78 193.01 357.12 194.02 356.53 195.83
  C 353.51 205.06 357.48 210.58 366.89 210.89
  Q 390.14 211.66 401.75 192.13
  C 405.27 186.19 405.34 170.79 401.00 165.26
  Q 399.24 163.03 396.39 163.02
  L 384.07 162.99
  Z
  M 308.52 160.20
  C 305.31 161.40 300.12 166.55 300.07 170.06
  Q 299.81 190.08 300.20 210.15
  Q 300.27 213.27 302.91 211.61
  Q 306.93 209.07 309.79 205.34
  A 3.90 3.86 -30.1 0 0 310.56 202.52
  C 309.78 196.26 310.13 188.87 309.97 184.08
  Q 309.61 173.29 310.19 161.42
  A 1.24 1.23 81.0 0 0 308.52 160.20
  Z"
/>
<path fill="#060606" d="
  M 43.76 38.07
  C 42.55 38.82 37.99 43.68 37.01 43.30
  A 1.28 1.28 0.0 0 1 36.40 41.39
  Q 39.83 36.21 44.60 32.13
  A 4.04 4.03 -14.4 0 0 45.94 29.87
  C 47.67 21.47 48.87 16.07 57.14 12.18
  Q 58.08 11.74 57.84 12.75
  L 55.27 23.51
  Q 55.15 24.01 55.61 23.77
  C 59.24 21.84 78.66 12.72 81.68 14.18
  A 0.98 0.98 0.0 0 1 82.11 15.53
  Q 78.36 22.39 71.84 26.75
  Q 70.77 27.47 71.14 26.23
  L 71.65 24.52
  A 0.44 0.44 0.0 0 0 71.35 23.98
  C 69.62 23.51 56.86 29.03 54.46 30.07
  A 1.22 1.20 83.2 0 0 53.75 30.98
  Q 49.24 57.69 50.11 84.75
  Q 50.53 97.82 54.84 107.14
  A 1.57 1.57 0.0 0 0 55.57 107.90
  L 56.38 108.32
  A 0.76 0.76 0.0 0 1 56.70 109.37
  Q 53.34 115.34 47.37 118.72
  A 0.61 0.61 0.0 0 1 46.55 118.52
  Q 41.37 110.54 40.62 101.18
  Q 38.10 69.49 44.09 38.30
  Q 44.19 37.80 43.76 38.07
  Z"
/>
<path fill="#060606" d="
  M 109.60 81.06
  Q 116.82 80.88 123.77 78.79
  A 1.77 1.77 0.0 0 0 125.03 77.21
  Q 125.57 67.96 126.23 58.68
  C 126.53 54.36 131.03 50.33 134.44 48.48
  A 1.08 1.08 0.0 0 1 136.04 49.44
  Q 135.87 62.05 134.08 74.56
  A 0.70 0.70 0.0 0 0 135.03 75.32
  L 143.26 72.12
  Q 144.36 71.69 143.71 72.68
  Q 139.84 78.58 133.66 82.11
  A 1.29 1.27 75.8 0 0 133.01 83.21
  L 132.71 111.98
  A 1.45 1.44 64.9 0 1 132.38 112.90
  C 131.07 114.52 126.08 120.29 124.34 120.76
  Q 122.22 121.34 122.30 119.15
  L 123.60 86.25
  A 0.30 0.30 0.0 0 0 123.20 85.96
  Q 116.09 88.55 108.70 90.08
  A 0.95 0.95 0.0 0 0 108.10 91.53
  L 108.65 92.37
  A 1.15 1.14 -53.4 0 1 108.79 93.34
  Q 106.29 101.68 107.59 110.35
  A 1.38 1.37 56.3 0 1 107.41 111.28
  Q 104.44 116.27 99.26 118.90
  Q 96.79 120.16 96.93 117.39
  L 97.67 102.56
  A 0.53 0.53 0.0 0 0 97.07 102.01
  L 90.74 102.79
  A 0.89 0.89 0.0 0 0 89.96 103.72
  C 90.11 106.88 90.56 110.64 88.52 113.29
  Q 85.48 117.23 81.25 119.74
  A 0.55 0.54 -17.6 0 1 80.43 119.32
  L 79.27 105.88
  A 1.31 1.30 79.7 0 0 77.62 104.73
  L 69.52 106.99
  A 2.32 2.32 0.0 0 0 67.83 109.07
  C 67.44 115.07 67.64 125.08 76.75 123.89
  Q 77.24 123.83 76.93 124.22
  Q 73.65 128.44 69.57 131.80
  C 62.23 137.82 58.12 129.82 58.03 123.44
  Q 57.87 112.54 58.04 109.27
  C 59.15 87.65 72.35 69.02 90.72 58.33
  C 91.33 57.97 92.84 57.87 93.38 58.16
  A 0.48 0.48 0.0 0 1 93.51 58.90
  L 89.18 63.83
  Q 87.89 65.29 87.89 67.24
  Q 87.84 80.42 88.94 93.56
  A 0.56 0.56 0.0 0 0 89.57 94.07
  L 98.08 93.06
  A 0.74 0.73 89.6 0 0 98.72 92.40
  Q 100.19 78.03 101.25 63.71
  C 101.59 59.07 106.25 55.27 110.03 53.23
  A 0.41 0.40 68.8 0 1 110.61 53.49
  Q 111.28 56.12 110.90 59.57
  Q 110.46 63.54 109.10 80.53
  A 0.49 0.49 0.0 0 0 109.60 81.06
  Z
  M 76.86 73.45
  Q 69.08 85.36 68.09 99.63
  A 1.02 1.01 -9.5 0 0 69.50 100.63
  L 77.76 97.15
  A 0.69 0.68 -11.9 0 0 78.19 96.50
  L 77.84 73.73
  Q 77.81 71.99 76.86 73.45
  Z"
/>
<path fill="#060606" d="
  M 222.96 83.50
  Q 221.52 97.73 222.02 106.26
  Q 222.24 110.08 226.17 112.58
  A 0.51 0.51 0.0 0 1 226.25 113.38
  L 217.84 121.55
  A 2.03 2.03 0.0 0 1 215.28 121.76
  C 210.18 118.22 212.00 104.34 212.21 98.75
  L 213.52 76.98
  Q 213.55 76.46 213.23 76.87
  Q 206.11 86.12 199.95 95.94
  C 196.60 101.29 197.20 106.38 201.18 111.11
  L 198.25 114.46
  L 192.20 119.97
  A 1.34 1.34 0.0 0 1 190.07 119.51
  L 187.90 114.44
  A 0.41 0.41 0.0 0 0 187.29 114.26
  C 183.22 116.99 183.91 120.08 184.04 124.38
  A 1.86 1.82 -30.4 0 1 183.76 125.42
  Q 179.75 131.91 173.07 135.75
  Q 171.00 136.95 170.98 134.55
  Q 170.91 127.46 171.64 120.04
  C 172.10 115.39 170.04 112.28 165.98 110.45
  A 0.60 0.59 -60.8 0 0 165.25 110.66
  C 159.74 119.08 148.84 130.56 138.18 131.29
  A 1.81 1.80 -7.4 0 1 136.28 129.83
  C 134.46 120.46 139.67 117.74 144.74 111.66
  A 1.41 1.39 -25.6 0 0 145.06 110.77
  Q 144.84 92.22 145.16 73.71
  C 145.21 70.35 146.96 68.38 149.10 66.14
  A 0.23 0.23 0.0 0 0 149.00 65.76
  L 148.08 65.50
  A 0.61 0.60 -66.6 0 1 147.73 64.60
  Q 151.12 59.08 156.94 56.20
  C 163.19 53.12 171.77 48.40 178.83 49.03
  A 2.17 2.16 -2.6 0 1 180.76 50.78
  C 184.05 68.03 177.27 85.17 171.18 99.51
  A 0.45 0.45 0.0 0 0 171.48 100.12
  L 177.80 101.68
  A 0.68 0.68 0.0 0 0 178.62 101.22
  L 183.03 86.96
  Q 183.17 86.52 183.50 86.18
  L 187.71 81.79
  A 1.41 1.41 0.0 0 0 188.10 80.79
  C 188.03 75.97 186.96 68.91 189.76 65.07
  Q 192.65 61.10 197.19 59.02
  A 0.58 0.57 -12.1 0 1 198.00 59.54
  L 198.00 90.51
  Q 198.00 91.59 198.63 90.71
  C 203.60 83.70 209.45 77.15 213.78 69.77
  Q 217.09 64.13 222.76 61.07
  Q 224.20 60.29 224.11 61.92
  L 222.96 83.50
  Z
  M 169.46 58.92
  Q 161.79 59.04 155.42 63.34
  A 1.01 1.00 -17.6 0 0 154.99 64.16
  C 154.99 77.02 154.44 90.17 155.52 102.96
  A 0.69 0.69 0.0 0 0 156.44 103.55
  L 163.41 101.04
  A 1.32 1.31 1.0 0 0 164.19 100.29
  C 170.07 85.84 173.03 73.95 170.74 60.00
  A 1.29 1.27 84.8 0 0 169.46 58.92
  Z
  M 187.40 95.62
  C 185.73 100.05 182.25 108.26 183.14 112.57
  Q 183.24 113.08 183.62 112.72
  C 188.60 107.93 188.54 101.70 187.78 95.66
  Q 187.68 94.88 187.40 95.62
  Z
  M 156.33 116.33
  L 151.13 120.83
  Q 150.72 121.19 151.22 120.97
  Q 155.05 119.25 156.70 116.65
  Q 157.58 115.25 156.33 116.33
  Z
  M 147.19 121.99
  Q 148.17 123.39 148.03 121.69
  Q 147.83 119.25 146.62 117.11
  Q 146.15 116.27 146.03 117.23
  Q 145.71 119.87 147.19 121.99
  Z"
/>
<path fill="#060606" d="
  M 307.50 57.96
  Q 313.99 61.77 313.73 68.76
  Q 313.41 77.42 312.45 79.95
  Q 310.07 86.22 310.04 88.56
  C 309.93 95.29 308.88 106.24 311.03 112.46
  A 0.57 0.57 0.0 0 0 311.70 112.83
  L 313.60 112.36
  Q 314.79 112.07 314.04 113.03
  Q 309.61 118.72 303.86 123.06
  A 1.04 1.03 -52.2 0 1 302.85 123.19
  Q 301.00 122.46 300.38 118.93
  Q 300.00 116.80 300.00 114.63
  L 300.00 104.27
  Q 300.00 103.48 299.45 104.05
  Q 291.40 112.27 288.00 114.00
  Q 274.65 120.81 267.51 109.12
  L 264.73 106.79
  A 0.63 0.61 -40.3 0 0 264.00 106.74
  C 256.57 111.43 250.74 113.34 242.10 111.33
  A 1.07 1.05 -58.9 0 0 241.14 111.58
  Q 239.73 112.87 237.72 112.91
  Q 235.48 112.95 235.11 110.74
  C 234.32 105.97 234.10 102.24 234.55 97.11
  Q 235.89 81.80 235.98 66.06
  Q 238.93 60.38 244.73 57.20
  A 0.82 0.82 0.0 0 1 245.94 57.84
  L 246.16 60.40
  L 246.01 71.14
  Q 245.99 72.75 246.95 71.45
  C 250.02 67.30 263.25 52.81 268.44 54.04
  A 0.78 0.78 0.0 0 1 268.89 55.25
  Q 264.91 60.80 259.05 63.84
  C 248.33 69.40 243.57 86.01 244.83 96.69
  Q 245.19 99.76 248.16 100.62
  Q 255.09 102.63 262.42 101.87
  A 0.49 0.49 0.0 0 0 262.86 101.34
  C 261.52 85.16 269.36 70.23 281.64 60.18
  C 288.84 54.29 299.35 54.64 307.50 57.96
  Z
  M 279.79 95.25
  Q 279.45 97.76 280.13 100.28
  A 1.14 1.12 6.4 0 0 280.71 100.99
  C 286.67 103.91 290.09 101.62 295.36 98.79
  A 0.27 0.27 0.0 0 1 295.67 98.83
  C 296.55 99.67 290.69 105.41 289.90 106.07
  Q 289.51 106.39 290.02 106.41
  C 294.71 106.52 297.41 101.61 298.89 97.68
  C 301.58 90.51 297.46 79.37 302.49 73.86
  A 0.77 0.77 0.0 0 0 302.63 73.03
  Q 301.54 70.55 299.34 68.71
  Q 290.14 64.11 280.03 66.31
  A 1.29 1.27 -79.4 0 0 279.22 66.87
  Q 272.79 76.83 272.87 88.71
  Q 272.87 89.38 273.22 88.82
  C 277.13 82.56 279.71 78.26 285.85 75.28
  A 0.96 0.95 73.8 0 1 287.22 76.04
  C 287.95 82.57 279.73 87.38 279.79 95.25
  Z"
/>
<path fill="#060606" d="
  M 328.22 68.75
  C 329.21 70.75 331.41 69.10 332.60 68.45
  A 0.75 0.74 -38.6 0 1 333.45 68.54
  Q 334.12 69.12 333.98 70.00
  Q 331.60 85.02 332.06 100.25
  C 332.24 106.48 327.06 111.68 322.05 114.42
  Q 320.80 115.10 320.86 113.68
  L 321.94 90.13
  Q 322.07 87.23 320.97 84.54
  Q 319.40 80.70 317.66 76.27
  C 314.56 68.38 326.08 61.68 331.82 59.62
  C 338.35 57.27 348.51 55.92 356.31 56.08
  A 0.58 0.57 87.7 0 1 356.87 56.60
  Q 357.24 60.47 355.68 64.43
  C 350.49 77.57 346.85 89.62 347.93 103.41
  C 348.02 104.55 348.86 105.91 349.85 106.14
  A 1.24 1.18 25.8 0 1 350.58 108.08
  Q 346.96 112.41 342.37 115.72
  A 1.31 1.30 31.5 0 1 341.39 115.95
  Q 338.36 115.49 338.16 113.08
  C 336.72 95.90 341.86 83.51 347.20 68.38
  Q 348.05 65.97 345.49 65.98
  Q 336.81 66.03 328.49 68.17
  A 0.41 0.41 0.0 0 0 328.22 68.75
  Z"
/>
<path fill="#ffffff" d="
  M 169.46 58.92
  A 1.29 1.27 84.8 0 1 170.74 60.00
  C 173.03 73.95 170.07 85.84 164.19 100.29
  A 1.32 1.31 1.0 0 1 163.41 101.04
  L 156.44 103.55
  A 0.69 0.69 0.0 0 1 155.52 102.96
  C 154.44 90.17 154.99 77.02 154.99 64.16
  A 1.01 1.00 -17.6 0 1 155.42 63.34
  Q 161.79 59.04 169.46 58.92
  Z"
/>
<path fill="#e5e5e5" d="
  M 299.34 68.71
  Q 296.95 69.79 295.65 71.84
  A 0.68 0.66 -50.0 0 0 295.71 72.64
  C 297.65 74.76 294.89 76.65 293.11 77.21
  A 1.72 1.65 -78.2 0 0 292.32 77.75
  Q 287.75 83.43 287.69 90.69
  A 1.99 1.98 86.3 0 1 285.97 92.65
  Q 282.83 93.08 279.79 95.25
  C 279.73 87.38 287.95 82.57 287.22 76.04
  A 0.96 0.95 73.8 0 0 285.85 75.28
  C 279.71 78.26 277.13 82.56 273.22 88.82
  Q 272.87 89.38 272.87 88.71
  Q 272.79 76.83 279.22 66.87
  A 1.29 1.27 -79.4 0 1 280.03 66.31
  Q 290.14 64.11 299.34 68.71
  Z"
/>
<path fill="#e5e5e5" d="
  M 235.98 66.06
  Q 235.89 81.80 234.55 97.11
  C 234.10 102.24 234.32 105.97 235.11 110.74
  Q 235.48 112.95 237.72 112.91
  Q 239.73 112.87 241.14 111.58
  A 1.07 1.05 -58.9 0 1 242.10 111.33
  C 250.74 113.34 256.57 111.43 264.00 106.74
  A 0.63 0.61 -40.3 0 1 264.73 106.79
  L 267.51 109.12
  Q 264.50 114.83 259.61 119.17
  A 1.12 1.10 69.4 0 0 259.24 120.00
  L 259.25 121.61
  A 1.29 1.28 -25.8 0 1 258.95 122.46
  C 253.30 129.30 246.69 133.60 242.02 139.61
  A 0.99 0.98 -34.5 0 0 241.85 140.49
  C 242.86 144.02 244.19 147.67 239.27 148.94
  Q 238.44 149.16 238.78 150.08
  A 0.25 0.24 84.0 0 0 238.98 150.25
  L 239.25 150.29
  L 234.75 150.95
  A 0.59 0.59 0.0 0 1 234.09 150.53
  C 232.46 144.70 231.46 138.22 224.25 137.67
  C 220.70 137.41 211.85 138.95 208.52 141.03
  Q 204.54 143.52 198.52 151.42
  Q 197.90 152.23 197.95 151.22
  L 198.28 142.86
  Q 198.36 141.00 196.72 141.90
  Q 191.81 144.60 188.89 149.41
  Q 187.82 151.19 187.92 153.26
  Q 188.96 175.74 180.81 196.67
  Q 179.64 199.68 177.01 197.80
  C 171.62 193.92 172.05 189.21 174.81 183.61
  Q 179.16 174.81 179.57 165.02
  Q 179.65 162.94 177.83 163.96
  C 166.63 170.23 162.89 182.00 163.04 194.17
  A 0.91 0.91 0.0 0 1 162.15 195.10
  C 158.13 195.16 144.73 196.53 148.46 188.23
  Q 153.71 176.57 161.78 164.27
  Q 163.07 162.29 163.75 160.04
  C 168.45 161.91 169.39 156.49 171.85 154.31
  Q 173.49 152.86 175.64 152.11
  A 1.17 1.16 -22.9 0 0 176.30 150.50
  C 175.37 148.62 176.25 147.82 177.97 147.13
  Q 181.27 145.81 181.45 142.22
  C 181.66 138.24 183.60 135.79 186.94 133.76
  A 1.93 1.88 89.2 0 0 187.64 133.02
  Q 189.34 129.83 192.59 128.25
  A 1.99 1.98 2.8 0 0 193.40 127.52
  Q 196.55 122.55 200.55 118.25
  A 0.69 0.69 0.0 0 0 200.59 117.35
  L 198.25 114.46
  L 201.18 111.11
  Q 204.14 108.01 205.33 103.86
  A 1.64 1.61 -11.9 0 1 205.86 103.06
  L 210.85 99.05
  A 1.36 1.34 25.2 0 1 211.70 98.75
  L 212.21 98.75
  C 212.00 104.34 210.18 118.22 215.28 121.76
  A 2.03 2.03 0.0 0 0 217.84 121.55
  L 226.25 113.38
  A 0.51 0.51 0.0 0 0 226.17 112.58
  Q 222.24 110.08 222.02 106.26
  Q 221.52 97.73 222.96 83.50
  L 223.02 84.77
  A 0.52 0.52 0.0 0 0 223.60 85.26
  C 224.74 85.15 229.45 76.40 229.80 74.89
  Q 231.11 69.18 235.98 66.06
  Z"
/>
<path fill="#ffffff" d="
  M 299.34 68.71
  Q 301.54 70.55 302.63 73.03
  A 0.77 0.77 0.0 0 1 302.49 73.86
  C 297.46 79.37 301.58 90.51 298.89 97.68
  C 297.41 101.61 294.71 106.52 290.02 106.41
  Q 289.51 106.39 289.90 106.07
  C 290.69 105.41 296.55 99.67 295.67 98.83
  A 0.27 0.27 0.0 0 0 295.36 98.79
  C 290.09 101.62 286.67 103.91 280.71 100.99
  A 1.14 1.12 6.4 0 1 280.13 100.28
  Q 279.45 97.76 279.79 95.25
  Q 282.83 93.08 285.97 92.65
  A 1.99 1.98 86.3 0 0 287.69 90.69
  Q 287.75 83.43 292.32 77.75
  A 1.72 1.65 -78.2 0 1 293.11 77.21
  C 294.89 76.65 297.65 74.76 295.71 72.64
  A 0.68 0.66 -50.0 0 1 295.65 71.84
  Q 296.95 69.79 299.34 68.71
  Z"
/>
<path fill="#ffffff" d="
  M 77.84 73.73
  L 78.19 96.50
  A 0.69 0.68 -11.9 0 1 77.76 97.15
  L 69.50 100.63
  A 1.02 1.01 -9.5 0 1 68.09 99.63
  Q 69.08 85.36 76.86 73.45
  Q 77.81 71.99 77.84 73.73
  Z"
/>
<path fill="#ffffff" d="
  M 212.21 98.75
  L 211.70 98.75
  A 1.36 1.34 25.2 0 0 210.85 99.05
  L 205.86 103.06
  A 1.64 1.61 -11.9 0 0 205.33 103.86
  Q 204.14 108.01 201.18 111.11
  C 197.20 106.38 196.60 101.29 199.95 95.94
  Q 206.11 86.12 213.23 76.87
  Q 213.55 76.46 213.52 76.98
  L 212.21 98.75
  Z"
/>
<path fill="#ffffff" d="
  M 187.40 95.62
  Q 187.68 94.88 187.78 95.66
  C 188.54 101.70 188.60 107.93 183.62 112.72
  Q 183.24 113.08 183.14 112.57
  C 182.25 108.26 185.73 100.05 187.40 95.62
  Z"
/>
<path fill="#ffffff" d="
  M 156.33 116.33
  Q 157.58 115.25 156.70 116.65
  Q 155.05 119.25 151.22 120.97
  Q 150.72 121.19 151.13 120.83
  L 156.33 116.33
  Z"
/>
<path fill="#ffffff" d="
  M 147.19 121.99
  Q 145.71 119.87 146.03 117.23
  Q 146.15 116.27 146.62 117.11
  Q 147.83 119.25 148.03 121.69
  Q 148.17 123.39 147.19 121.99
  Z"
/>
<path fill="#060606" d="
  M 153.25 251.21
  C 148.88 249.07 133.18 241.53 140.25 234.23
  Q 143.66 230.71 147.32 228.32
  A 0.44 0.44 0.0 0 1 147.96 228.51
  C 151.27 235.80 157.13 239.33 164.43 241.95
  Q 172.13 244.79 179.19 243.99
  Q 181.24 243.76 181.63 241.73
  Q 183.77 230.57 184.75 219.54
  L 186.88 195.72
  Q 187.00 194.46 186.27 195.49
  C 183.32 199.65 176.22 208.09 170.64 208.07
  C 165.00 208.05 164.65 204.33 162.52 200.34
  A 0.35 0.35 0.0 0 0 161.95 200.27
  Q 157.33 205.56 150.32 205.03
  A 1.27 1.24 -62.9 0 0 149.40 205.34
  L 145.57 208.73
  Q 143.32 210.72 140.78 209.11
  C 134.68 205.26 137.22 184.52 138.13 178.15
  A 0.99 0.99 0.0 0 0 136.92 177.04
  L 131.10 178.45
  A 1.43 1.41 83.5 0 0 130.02 179.82
  C 129.96 188.25 128.96 199.03 130.71 207.14
  A 1.03 1.01 -28.6 0 1 130.42 208.09
  L 123.02 215.17
  A 1.79 1.79 0.0 0 1 120.52 215.15
  Q 119.82 214.45 119.34 212.37
  L 120.61 182.59
  A 0.46 0.45 -5.7 0 0 120.04 182.13
  L 112.66 183.99
  A 0.68 0.67 84.8 0 0 112.15 184.61
  L 111.16 205.25
  A 2.61 2.58 -21.9 0 1 110.44 206.91
  C 108.88 208.51 104.31 213.85 102.31 214.11
  A 1.07 1.07 0.0 0 1 101.10 212.99
  L 102.23 192.27
  Q 102.37 189.75 101.31 192.04
  Q 94.56 206.72 81.86 216.38
  Q 79.28 218.34 77.17 218.84
  C 66.83 221.29 65.89 212.01 65.83 204.24
  Q 65.83 203.75 65.47 204.09
  Q 59.80 209.55 53.35 213.86
  C 49.08 216.71 46.71 221.09 42.00 223.97
  Q 41.16 224.49 41.13 223.50
  L 40.94 215.09
  A 1.34 1.30 -67.0 0 0 40.61 214.24
  C 39.05 212.50 37.49 210.91 37.09 208.54
  Q 35.86 201.39 40.69 195.79
  A 1.30 1.28 65.7 0 0 41.00 194.95
  L 41.00 157.71
  Q 41.00 155.17 42.56 153.18
  Q 45.75 149.09 50.25 146.56
  A 0.42 0.42 0.0 0 1 50.87 146.91
  Q 51.27 163.12 50.57 179.23
  Q 50.51 180.76 50.63 181.00
  A 1.07 1.07 0.0 0 0 52.44 181.12
  C 55.67 176.68 80.51 141.71 84.24 143.04
  A 0.95 0.95 0.0 0 1 84.65 144.56
  C 73.01 158.10 63.02 172.95 51.63 186.75
  A 2.92 2.89 65.2 0 0 50.97 188.57
  L 50.83 203.56
  A 1.96 1.95 -78.2 0 0 52.01 205.37
  C 61.27 209.36 66.16 197.53 67.52 190.76
  C 70.15 177.63 73.06 166.04 83.69 156.94
  C 89.94 151.59 101.84 150.74 107.89 156.62
  A 0.69 0.68 52.5 0 0 108.68 156.73
  L 111.69 155.13
  A 0.97 0.97 0.0 0 1 113.11 156.02
  L 112.53 176.29
  A 0.28 0.28 0.0 0 0 112.88 176.57
  L 121.23 174.22
  A 0.87 0.86 -1.3 0 0 121.83 173.60
  Q 122.68 170.31 123.00 165.50
  C 123.33 160.55 128.69 156.43 132.83 154.43
  Q 133.53 154.09 133.43 154.86
  L 131.35 170.56
  A 0.43 0.43 0.0 0 0 131.92 171.03
  L 137.44 169.15
  A 0.87 0.85 86.1 0 0 138.01 168.48
  C 138.41 166.15 137.93 163.60 138.76 161.55
  Q 141.29 155.27 147.69 152.48
  A 0.23 0.23 0.0 0 1 148.01 152.68
  Q 148.37 165.62 147.23 178.48
  Q 147.14 179.46 147.69 178.64
  C 151.06 173.60 157.21 160.85 163.75 160.04
  Q 163.07 162.29 161.78 164.27
  Q 153.71 176.57 148.46 188.23
  C 144.73 196.53 158.13 195.16 162.15 195.10
  A 0.91 0.91 0.0 0 0 163.04 194.17
  C 162.89 182.00 166.63 170.23 177.83 163.96
  Q 179.65 162.94 179.57 165.02
  Q 179.16 174.81 174.81 183.61
  C 172.05 189.21 171.62 193.92 177.01 197.80
  Q 179.64 199.68 180.81 196.67
  Q 188.96 175.74 187.92 153.26
  Q 187.82 151.19 188.89 149.41
  Q 191.81 144.60 196.72 141.90
  Q 198.36 141.00 198.28 142.86
  L 197.95 151.22
  Q 197.90 152.23 198.52 151.42
  Q 204.54 143.52 208.52 141.03
  C 211.85 138.95 220.70 137.41 224.25 137.67
  C 231.46 138.22 232.46 144.70 234.09 150.53
  A 0.59 0.59 0.0 0 0 234.75 150.95
  L 239.25 150.29
  C 250.40 149.76 259.77 144.13 269.47 143.28
  A 0.42 0.42 0.0 0 1 269.93 143.75
  C 269.73 145.56 267.40 147.36 266.33 148.79
  Q 266.26 148.88 266.35 148.82
  L 272.05 144.91
  Q 272.96 144.28 272.96 145.38
  L 273.02 173.61
  A 0.49 0.48 -6.6 0 0 273.62 174.08
  L 280.65 172.39
  Q 282.52 171.95 282.26 170.04
  C 280.94 160.40 282.85 155.40 291.11 150.26
  Q 292.01 149.70 292.01 150.76
  L 291.99 154.48
  Q 291.99 155.44 292.63 154.73
  C 303.45 142.93 325.02 138.01 340.32 137.00
  A 0.71 0.71 0.0 0 1 341.07 137.79
  Q 340.75 140.52 338.26 141.83
  Q 337.09 142.46 338.33 142.93
  C 346.79 146.15 352.78 149.67 353.93 159.55
  Q 354.85 167.43 352.71 182.58
  Q 350.70 196.86 339.12 204.13
  C 334.31 207.15 326.23 206.43 321.70 204.06
  C 314.65 200.38 314.83 193.53 314.99 186.66
  A 0.43 0.43 0.0 0 0 314.38 186.25
  L 312.66 187.01
  A 0.86 0.86 0.0 0 1 311.45 186.22
  C 311.57 172.39 311.65 159.00 321.44 148.74
  Q 321.62 148.55 321.60 148.36
  A 0.48 0.47 79.9 0 0 321.05 147.97
  Q 306.27 150.72 292.88 157.58
  A 1.58 1.57 -13.6 0 0 292.02 158.98
  L 291.99 165.75
  Q 291.99 167.05 292.76 166.01
  Q 295.31 162.55 299.26 160.90
  A 0.53 0.52 -19.2 0 1 299.97 161.24
  C 300.48 162.98 292.97 170.61 291.48 172.10
  A 1.37 1.34 70.2 0 0 291.09 172.95
  Q 290.11 186.29 290.34 199.57
  C 290.42 204.60 285.09 208.80 281.00 210.79
  A 0.39 0.39 0.0 0 1 280.45 210.51
  Q 279.87 207.35 280.01 204.26
  Q 280.53 192.32 281.03 180.40
  A 0.54 0.54 0.0 0 0 280.34 179.86
  L 273.66 181.76
  A 0.74 0.74 0.0 0 0 273.13 182.44
  Q 272.89 188.53 273.00 194.49
  C 273.11 200.06 267.91 203.85 263.73 207.48
  Q 261.88 209.09 259.76 208.97
  A 0.38 0.38 0.0 0 1 259.43 208.45
  C 260.24 206.44 263.40 203.35 263.24 201.58
  A 0.73 0.72 71.5 0 0 262.14 201.03
  C 251.42 207.60 241.57 209.03 229.63 211.64
  A 0.51 0.50 -5.5 0 1 229.02 211.14
  L 229.08 197.30
  A 1.80 1.71 65.1 0 1 229.43 196.27
  Q 232.75 191.92 233.58 186.53
  A 0.31 0.31 0.0 0 0 233.17 186.19
  C 232.16 186.52 231.10 187.29 230.63 188.33
  C 227.19 196.00 219.30 207.17 210.95 209.94
  A 2.02 2.02 0.0 0 0 209.57 211.77
  L 207.82 251.65
  A 2.54 2.52 -21.2 0 1 207.08 253.31
  L 199.80 260.54
  Q 198.28 262.04 198.29 259.91
  C 198.38 243.87 199.23 227.89 200.11 211.86
  A 1.25 1.20 29.3 0 0 199.86 211.04
  L 195.52 205.27
  Q 195.25 204.91 195.22 205.36
  Q 194.26 220.12 192.16 230.84
  Q 189.39 245.01 177.16 251.62
  C 169.93 255.54 160.57 254.17 153.25 251.21
  Z
  M 222.97 155.74
  C 221.52 149.43 218.39 146.72 211.66 148.15
  A 0.84 0.83 84.1 0 0 211.00 148.97
  L 211.00 164.46
  Q 211.00 164.99 211.42 164.68
  L 222.67 156.54
  A 0.79 0.78 65.8 0 0 222.97 155.74
  Z
  M 263.00 168.61
  L 263.24 154.03
  A 1.83 1.78 62.7 0 1 263.53 153.08
  L 264.98 150.82
  Q 266.05 149.15 264.48 150.36
  L 262.11 152.19
  Q 261.74 152.48 261.28 152.59
  L 247.62 155.98
  A 0.73 0.73 0.0 0 0 247.06 156.68
  Q 246.85 166.27 244.20 175.47
  Q 244.01 176.11 244.62 175.85
  Q 253.15 172.16 262.13 169.73
  A 1.19 1.18 83.2 0 0 263.00 168.61
  Z
  M 323.2681 156.8080
  A 2.45 0.51 109.6 0 0 324.5704 154.6711
  A 2.45 0.51 109.6 0 0 324.9119 152.1920
  A 2.45 0.51 109.6 0 0 323.6096 154.3289
  A 2.45 0.51 109.6 0 0 323.2681 156.8080
  Z
  M 200.42 153.39
  C 199.27 153.52 198.24 155.28 198.24 156.39
  Q 198.25 168.60 197.17 181.43
  Q 196.98 183.61 198.27 181.84
  C 199.97 179.49 201.02 176.70 201.02 173.52
  Q 201.02 163.75 200.94 153.85
  A 0.47 0.46 -3.3 0 0 200.42 153.39
  Z
  M 331.25 154.51
  C 327.28 163.11 321.24 183.39 327.54 191.27
  C 330.34 194.77 335.88 196.41 340.27 196.03
  A 2.16 2.15 -88.0 0 0 342.22 194.21
  Q 343.82 183.67 344.01 173.15
  C 344.18 163.83 341.11 157.28 332.19 154.12
  A 0.76 0.75 22.3 0 0 331.25 154.51
  Z
  M 235.01 160.23
  C 235.06 167.32 234.49 173.30 233.19 180.00
  Q 232.81 181.95 234.13 180.47
  C 237.38 176.85 237.04 165.37 235.93 160.47
  A 0.56 0.23 82.1 0 0 235.69 160.06
  L 235.37 159.96
  A 0.28 0.28 0.0 0 0 235.01 160.23
  Z
  M 211.04 184.50
  L 210.30 200.51
  A 0.56 0.55 5.8 0 0 210.77 201.08
  C 215.65 201.87 218.88 201.24 220.47 196.67
  Q 225.68 181.75 224.21 166.75
  L 223.84 162.34
  A 0.41 0.41 0.0 0 0 223.28 162.00
  Q 217.19 164.47 211.94 168.42
  A 2.23 2.23 0.0 0 0 211.04 170.21
  L 211.04 184.50
  Z
  M 98.76 170.95
  C 99.02 162.51 90.19 162.26 84.15 162.21
  A 0.97 0.95 17.5 0 0 83.34 162.62
  Q 79.98 167.37 80.94 173.02
  A 4.86 4.84 51.0 0 1 80.67 175.66
  Q 77.40 183.93 77.04 192.99
  C 76.72 201.40 83.59 202.33 90.16 201.90
  A 0.89 0.86 -77.7 0 0 90.88 201.42
  Q 98.25 187.05 98.76 170.95
  Z
  M 262.61 182.95
  C 262.54 180.32 263.05 177.32 263.00 174.42
  Q 262.99 173.56 262.42 174.20
  C 257.67 179.59 249.76 180.71 243.08 182.80
  A 1.41 1.40 -4.2 0 0 242.11 183.91
  L 239.32 200.35
  A 0.44 0.43 -87.3 0 0 239.77 200.86
  Q 251.05 200.11 261.50 195.88
  Q 263.25 195.18 263.12 193.30
  Q 262.76 187.86 262.61 182.95
  Z
  M 85.0185 209.0975
  A 2.80 0.50 133.9 0 0 87.3203 207.4267
  A 2.80 0.50 133.9 0 0 88.9015 205.0625
  A 2.80 0.50 133.9 0 0 86.5997 206.7333
  A 2.80 0.50 133.9 0 0 85.0185 209.0975
  Z"
/>
<path fill="#060606" d="
  M 384.07 162.99
  L 396.39 163.02
  Q 399.24 163.03 401.00 165.26
  C 405.34 170.79 405.27 186.19 401.75 192.13
  Q 390.14 211.66 366.89 210.89
  C 357.48 210.58 353.51 205.06 356.53 195.83
  C 357.12 194.02 358.78 193.01 359.90 191.74
  Q 361.18 190.30 361.12 188.38
  Q 360.65 172.23 362.83 156.23
  Q 363.11 154.20 361.22 154.98
  L 358.82 155.97
  Q 358.04 156.29 358.44 155.55
  C 364.49 144.27 375.78 142.90 387.35 141.80
  Q 391.32 141.43 392.49 145.49
  C 394.15 151.27 387.83 158.71 383.89 162.53
  Q 383.42 162.98 384.07 162.99
  Z
  M 372.07 152.81
  L 371.08 167.47
  Q 371.02 168.34 371.63 167.72
  C 376.20 163.04 385.96 161.62 381.69 152.51
  A 0.89 0.88 77.3 0 0 380.89 152.00
  L 372.94 152.00
  A 0.87 0.86 1.7 0 0 372.07 152.81
  Z
  M 376.48 194.90
  C 375.15 196.70 372.82 198.28 371.71 200.36
  A 0.33 0.33 0.0 0 0 371.97 200.85
  C 375.93 201.21 390.72 201.05 393.04 197.32
  C 395.32 193.66 393.73 181.71 393.26 178.85
  Q 392.32 172.99 386.55 172.93
  Q 379.26 172.84 372.22 173.46
  A 1.29 1.29 0.0 0 0 371.04 174.73
  C 370.95 181.28 369.05 190.60 376.33 194.27
  A 0.43 0.42 -58.8 0 1 376.48 194.90
  Z"
/>
<path fill="#e5e5e5" d="
  M 211.66 148.15
  C 218.39 146.72 221.52 149.43 222.97 155.74
  A 0.79 0.78 65.8 0 1 222.67 156.54
  L 211.42 164.68
  Q 211.00 164.99 211.00 164.46
  L 211.00 148.97
  A 0.84 0.83 84.1 0 1 211.66 148.15
  Z"
/>
<path fill="#ffffff" d="
  M 263.00 168.61
  A 1.19 1.18 83.2 0 1 262.13 169.73
  Q 253.15 172.16 244.62 175.85
  Q 244.01 176.11 244.20 175.47
  Q 246.85 166.27 247.06 156.68
  A 0.73 0.73 0.0 0 1 247.62 155.98
  L 261.28 152.59
  Q 261.74 152.48 262.11 152.19
  L 264.48 150.36
  Q 266.05 149.15 264.98 150.82
  L 263.53 153.08
  A 1.83 1.78 62.7 0 0 263.24 154.03
  L 263.00 168.61
  Z"
/>
<path fill="#ffffff" d="
  M 372.07 152.81
  A 0.87 0.86 1.7 0 1 372.94 152.00
  L 380.89 152.00
  A 0.89 0.88 77.3 0 1 381.69 152.51
  C 385.96 161.62 376.20 163.04 371.63 167.72
  Q 371.02 168.34 371.08 167.47
  L 372.07 152.81
  Z"
/>
<ellipse fill="#ffffff" cx="0.00" cy="0.00" transform="translate(324.09,154.50) rotate(109.6)" rx="2.45" ry="0.51"/>
<path fill="#e5e5e5" d="
  M 198.24 156.39
  C 198.24 155.28 199.27 153.52 200.42 153.39
  A 0.47 0.46 -3.3 0 1 200.94 153.85
  Q 201.02 163.75 201.02 173.52
  C 201.02 176.70 199.97 179.49 198.27 181.84
  Q 196.98 183.61 197.17 181.43
  Q 198.25 168.60 198.24 156.39
  Z"
/>
<path fill="#ffffff" d="
  M 331.25 154.51
  A 0.76 0.75 22.3 0 1 332.19 154.12
  C 341.11 157.28 344.18 163.83 344.01 173.15
  Q 343.82 183.67 342.22 194.21
  A 2.16 2.15 -88.0 0 1 340.27 196.03
  C 335.88 196.41 330.34 194.77 327.54 191.27
  C 321.24 183.39 327.28 163.11 331.25 154.51
  Z"
/>
<path fill="#060606" d="
  M 300.07 170.06
  C 300.12 166.55 305.31 161.40 308.52 160.20
  A 1.24 1.23 81.0 0 1 310.19 161.42
  Q 309.61 173.29 309.97 184.08
  C 310.13 188.87 309.78 196.26 310.56 202.52
  A 3.90 3.86 -30.1 0 1 309.79 205.34
  Q 306.93 209.07 302.91 211.61
  Q 300.27 213.27 300.20 210.15
  Q 299.81 190.08 300.07 170.06
  Z"
/>
<path fill="#ffffff" d="
  M 233.19 180.00
  C 234.49 173.30 235.06 167.32 235.01 160.23
  A 0.28 0.28 0.0 0 1 235.37 159.96
  L 235.69 160.06
  A 0.56 0.23 82.1 0 1 235.93 160.47
  C 237.04 165.37 237.38 176.85 234.13 180.47
  Q 232.81 181.95 233.19 180.00
  Z"
/>
<path fill="#e5e5e5" d="
  M 224.21 166.75
  Q 222.34 167.33 221.04 168.82
  A 0.74 0.73 52.2 0 0 220.94 169.63
  Q 221.48 170.73 220.47 171.25
  Q 215.99 173.58 214.30 177.54
  C 213.49 179.42 213.84 181.59 213.55 183.75
  A 0.77 0.76 86.7 0 1 212.99 184.39
  Q 212.03 184.66 211.04 184.50
  L 211.04 170.21
  A 2.23 2.23 0.0 0 1 211.94 168.42
  Q 217.19 164.47 223.28 162.00
  A 0.41 0.41 0.0 0 1 223.84 162.34
  L 224.21 166.75
  Z"
/>
<path fill="#ffffff" d="
  M 84.15 162.21
  C 90.19 162.26 99.02 162.51 98.76 170.95
  Q 98.25 187.05 90.88 201.42
  A 0.89 0.86 -77.7 0 1 90.16 201.90
  C 83.59 202.33 76.72 201.40 77.04 192.99
  Q 77.40 183.93 80.67 175.66
  A 4.86 4.84 51.0 0 0 80.94 173.02
  Q 79.98 167.37 83.34 162.62
  A 0.97 0.95 17.5 0 1 84.15 162.21
  Z"
/>
<path fill="#ffffff" d="
  M 224.21 166.75
  Q 225.68 181.75 220.47 196.67
  C 218.88 201.24 215.65 201.87 210.77 201.08
  A 0.56 0.55 5.8 0 1 210.30 200.51
  L 211.04 184.50
  Q 212.03 184.66 212.99 184.39
  A 0.77 0.76 86.7 0 0 213.55 183.75
  C 213.84 181.59 213.49 179.42 214.30 177.54
  Q 215.99 173.58 220.47 171.25
  Q 221.48 170.73 220.94 169.63
  A 0.74 0.73 52.2 0 1 221.04 168.82
  Q 222.34 167.33 224.21 166.75
  Z"
/>
<path fill="#ffffff" d="
  M 371.71 200.36
  C 372.82 198.28 375.15 196.70 376.48 194.90
  A 0.43 0.42 -58.8 0 0 376.33 194.27
  C 369.05 190.60 370.95 181.28 371.04 174.73
  A 1.29 1.29 0.0 0 1 372.22 173.46
  Q 379.26 172.84 386.55 172.93
  Q 392.32 172.99 393.26 178.85
  C 393.73 181.71 395.32 193.66 393.04 197.32
  C 390.72 201.05 375.93 201.21 371.97 200.85
  A 0.33 0.33 0.0 0 1 371.71 200.36
  Z"
/>
<path fill="#ffffff" d="
  M 262.61 182.95
  Q 262.76 187.86 263.12 193.30
  Q 263.25 195.18 261.50 195.88
  Q 251.05 200.11 239.77 200.86
  A 0.44 0.43 -87.3 0 1 239.32 200.35
  L 242.11 183.91
  A 1.41 1.40 -4.2 0 1 243.08 182.80
  C 249.76 180.71 257.67 179.59 262.42 174.20
  Q 262.99 173.56 263.00 174.42
  C 263.05 177.32 262.54 180.32 262.61 182.95
  Z"
/>
<path fill="#e5e5e5" d="
  M 184.75 219.54
  C 180.16 218.96 173.76 228.05 171.99 231.56
  C 169.73 236.04 167.46 238.45 164.43 241.95
  C 157.13 239.33 151.27 235.80 147.96 228.51
  A 0.44 0.44 0.0 0 0 147.32 228.32
  Q 143.66 230.71 140.25 234.23
  C 133.18 241.53 148.88 249.07 153.25 251.21
  Q 149.21 256.00 143.00 257.14
  A 0.75 0.72 -88.0 0 0 142.41 257.71
  Q 140.91 264.70 136.21 270.02
  L 87.44 270.00
  Q 82.63 269.34 77.81 268.75
  C 74.20 268.30 70.62 269.48 66.67 268.58
  Q 65.34 268.28 66.68 267.99
  L 72.96 266.64
  Q 73.44 266.53 73.86 266.25
  L 79.81 262.16
  A 1.26 1.25 -14.1 0 0 80.34 261.29
  C 80.73 257.93 81.34 255.78 84.06 253.44
  C 90.52 247.91 94.69 242.62 99.64 236.82
  C 103.38 232.44 106.24 227.37 109.80 223.31
  Q 114.57 217.86 119.34 212.37
  Q 119.82 214.45 120.52 215.15
  A 1.79 1.79 0.0 0 0 123.02 215.17
  L 130.42 208.09
  A 1.03 1.01 -28.6 0 0 130.71 207.14
  C 128.96 199.03 129.96 188.25 130.02 179.82
  A 1.43 1.41 83.5 0 1 131.10 178.45
  L 136.92 177.04
  A 0.99 0.99 0.0 0 1 138.13 178.15
  C 137.22 184.52 134.68 205.26 140.78 209.11
  Q 143.32 210.72 145.57 208.73
  L 149.40 205.34
  A 1.27 1.24 -62.9 0 1 150.32 205.03
  Q 157.33 205.56 161.95 200.27
  A 0.35 0.35 0.0 0 1 162.52 200.34
  C 164.65 204.33 165.00 208.05 170.64 208.07
  C 176.22 208.09 183.32 199.65 186.27 195.49
  Q 187.00 194.46 186.88 195.72
  L 184.75 219.54
  Z"
/>
<ellipse fill="#ffffff" cx="0.00" cy="0.00" transform="translate(86.96,207.08) rotate(133.9)" rx="2.80" ry="0.50"/>
<path fill="#ffffff" d="
  M 184.75 219.54
  Q 183.77 230.57 181.63 241.73
  Q 181.24 243.76 179.19 243.99
  Q 172.13 244.79 164.43 241.95
  C 167.46 238.45 169.73 236.04 171.99 231.56
  C 173.76 228.05 180.16 218.96 184.75 219.54
  Z"
/>
</svg>
