<?xml version="1.0" encoding="UTF-8" standalone="no"?>
<!-- Created with Inkscape (http://www.inkscape.org/) -->

<svg
   xmlns:dc="http://purl.org/dc/elements/1.1/"
   xmlns:cc="http://creativecommons.org/ns#"
   xmlns:rdf="http://www.w3.org/1999/02/22-rdf-syntax-ns#"
   xmlns:svg="http://www.w3.org/2000/svg"
   xmlns="http://www.w3.org/2000/svg"
   xmlns:sodipodi="http://sodipodi.sourceforge.net/DTD/sodipodi-0.dtd"
   xmlns:inkscape="http://www.inkscape.org/namespaces/inkscape"
   width="400"
   height="600"
   viewBox="0 0 105.83333 158.75"
   version="1.1"
   id="svg8"
   inkscape:version="0.92.4 (5da689c313, 2019-01-14)"
   sodipodi:docname="29_m.svg">
  <defs
     id="defs2" />
  <sodipodi:namedview
     id="base"
     pagecolor="#ffffff"
     bordercolor="#666666"
     borderopacity="1.0"
     inkscape:pageopacity="0.0"
     inkscape:pageshadow="2"
     inkscape:zoom="1.2816667"
     inkscape:cx="241.96523"
     inkscape:cy="347.3477"
     inkscape:document-units="mm"
     inkscape:current-layer="layer1"
     showgrid="false"
     units="px"
     showguides="true"
     inkscape:guide-bbox="true"
     inkscape:window-width="1280"
     inkscape:window-height="968"
     inkscape:window-x="0"
     inkscape:window-y="0"
     inkscape:window-maximized="1">
    <sodipodi:guide
       position="20.78869,60.476191"
       orientation="1,0"
       id="guide859"
       inkscape:locked="false" />
    <sodipodi:guide
       position="20.78869,128.88988"
       orientation="1,0"
       id="guide863"
       inkscape:locked="false" />
    <sodipodi:guide
       position="12.85119,57.641369"
       orientation="1,0"
       id="guide865"
       inkscape:locked="false" />
    <sodipodi:guide
       position="32.339612,108.51143"
       orientation="0,1"
       id="guide867"
       inkscape:locked="false" />
    <sodipodi:guide
       position="-9.0871638,97.553376"
       orientation="0,1"
       id="guide2596"
       inkscape:locked="false" />
    <sodipodi:guide
       position="-16.036171,64.144687"
       orientation="0,1"
       id="guide2598"
       inkscape:locked="false" />
  </sodipodi:namedview>
  <metadata
     id="metadata5">
    <rdf:RDF>
      <cc:Work
         rdf:about="">
        <dc:format>image/svg+xml</dc:format>
        <dc:type
           rdf:resource="http://purl.org/dc/dcmitype/StillImage" />
        <dc:title></dc:title>
      </cc:Work>
    </rdf:RDF>
  </metadata>
  <g
     inkscape:label="Layer 1"
     inkscape:groupmode="layer"
     id="layer1"
     transform="translate(0,-138.24998)">
    <rect
       style="opacity:1;fill:#ffffff;fill-opacity:0.60101007;stroke:#000000;stroke-width:0.27790931;stroke-miterlimit:4;stroke-dasharray:none;stroke-dashoffset:0;stroke-opacity:1"
       id="rect10"
       width="105.4538"
       height="158.75175"
       x="0.17799145"
       y="138.24911"
       ry="7.9375877" />
    <flowRoot
       xml:space="preserve"
       id="flowRoot851"
       style="fill:black;fill-opacity:1;stroke:none;font-family:sans-serif;font-style:normal;font-weight:normal;font-size:40px;line-height:0;letter-spacing:0px;word-spacing:0px"><flowRegion
         id="flowRegion853"><rect
           id="rect855"
           width="114.28571"
           height="65.714287"
           x="47.142857"
           y="194.28572" /></flowRegion><flowPara
         id="flowPara857" /></flowRoot>    <text
       xml:space="preserve"
       style="font-style:normal;font-weight:normal;font-size:33.90801239px;line-height:0;font-family:sans-serif;letter-spacing:0px;word-spacing:0px;fill:#666666;fill-opacity:1;stroke:none;stroke-width:0.84770024"
       x="19.838701"
       y="174.63515"
       id="text827"><tspan
         sodipodi:role="line"
         id="tspan825"
         x="19.838701"
         y="174.63515"
         style="font-style:normal;font-variant:normal;font-weight:bold;font-stretch:normal;font-family:Arsenal;-inkscape-font-specification:'Arsenal Bold';fill:#666666;stroke-width:0.84770024">29</tspan></text>
    <g
       id="g33542"
       transform="matrix(0.21004631,0,0,0.21004631,10.347399,175.5577)">
      <g
         id="g33376"
         style="fill:none;stroke-width:2;stroke-linecap:butt">
        <path
           id="path33276"
           d="m 285.81,0 -1.85,0.39 a 1.25,1.22 9.9 0 0 -0.75,0.51 c -1.37,2.06 -3.03,3.34 -3.49,5.87 q -0.53,2.88 -0.91,5.84 a 1.02,1.02 0 0 1 -0.57,0.79 q -3.04,1.49 -6.36,1.1 a 1.1,1.09 26.4 0 0 -0.85,0.28 c -2.67,2.49 -2.25,6.57 -4.67,8.33 q -1.47,1.07 -2.81,2.39 a 1.09,1.04 70.3 0 0 -0.32,0.72 l -0.32,7.04 a 0.81,0.81 0 0 1 -0.66,0.76 l -2.66,0.5 a 1.2,1.19 -75.7 0 0 -0.72,0.43 l -3.65,4.61 a 1.24,1.19 -24.9 0 0 -0.27,0.7 q -0.3,5.2 -2.94,9.68 a 1.64,1.62 58.3 0 0 -0.23,1 l 0.27,3.03 a 1.14,1.11 65.8 0 1 -0.33,0.91 l -5.56,5.52"
           inkscape:connector-curvature="0"
           style="vector-effect:non-scaling-stroke;stroke:#f2f2f2" />
        <path
           id="path33278"
           d="m 246.16,60.4 -0.22,-2.56 a 0.82,0.82 0 0 0 -1.21,-0.64 q -5.8,3.18 -8.75,8.86"
           inkscape:connector-curvature="0"
           style="vector-effect:non-scaling-stroke;stroke:#838383" />
        <path
           id="path33280"
           d="m 235.98,66.06 q -4.87,3.12 -6.18,8.83 c -0.35,1.51 -5.06,10.26 -6.2,10.37 a 0.52,0.52 0 0 1 -0.58,-0.49 l -0.06,-1.27"
           inkscape:connector-curvature="0"
           style="vector-effect:non-scaling-stroke;stroke:#f2f2f2" />
        <path
           id="path33282"
           d="m 222.96,83.5 1.15,-21.58 q 0.09,-1.63 -1.35,-0.85 -5.67,3.06 -8.98,8.7 C 209.45,77.15 203.6,83.7 198.63,90.71 Q 198,91.59 198,90.51 V 59.54 a 0.58,0.57 -12.1 0 0 -0.81,-0.52 q -4.54,2.08 -7.43,6.05 c -2.8,3.84 -1.73,10.9 -1.66,15.72 a 1.41,1.41 0 0 1 -0.39,1 l -4.21,4.39 q -0.33,0.34 -0.47,0.78 l -4.41,14.26 a 0.68,0.68 0 0 1 -0.82,0.46 l -6.32,-1.56 a 0.45,0.45 0 0 1 -0.3,-0.61 c 6.09,-14.34 12.87,-31.48 9.58,-48.73 a 2.17,2.16 -2.6 0 0 -1.93,-1.75 c -7.06,-0.63 -15.64,4.09 -21.89,7.17 q -5.82,2.88 -9.21,8.4 a 0.61,0.6 -66.6 0 0 0.35,0.9 l 0.92,0.26 a 0.23,0.23 0 0 1 0.1,0.38 c -2.14,2.24 -3.89,4.21 -3.94,7.57 q -0.32,18.51 -0.1,37.06 a 1.41,1.39 -25.6 0 1 -0.32,0.89 c -5.07,6.08 -10.28,8.8 -8.46,18.17 a 1.81,1.8 -7.4 0 0 1.9,1.46 c 10.66,-0.73 21.56,-12.21 27.07,-20.63 a 0.6,0.59 -60.8 0 1 0.73,-0.21 c 4.06,1.83 6.12,4.94 5.66,9.59 q -0.73,7.42 -0.66,14.51 0.02,2.4 2.09,1.2 6.68,-3.84 10.69,-10.33 a 1.86,1.82 -30.4 0 0 0.28,-1.04 c -0.13,-4.3 -0.82,-7.39 3.25,-10.12 a 0.41,0.41 0 0 1 0.61,0.18 l 2.17,5.07 a 1.34,1.34 0 0 0 2.13,0.46 l 6.05,-5.51"
           inkscape:connector-curvature="0"
           style="vector-effect:non-scaling-stroke;stroke:#838383" />
        <path
           id="path33284"
           d="m 198.25,114.46 2.34,2.89 a 0.69,0.69 0 0 1 -0.04,0.9 q -4,4.3 -7.15,9.27 a 1.99,1.98 2.8 0 1 -0.81,0.73 q -3.25,1.58 -4.95,4.77 a 1.93,1.88 89.2 0 1 -0.7,0.74 c -3.34,2.03 -5.28,4.48 -5.49,8.46 q -0.18,3.59 -3.48,4.91 c -1.72,0.69 -2.6,1.49 -1.67,3.37 a 1.17,1.16 -22.9 0 1 -0.66,1.61 q -2.15,0.75 -3.79,2.2 c -2.46,2.18 -3.4,7.6 -8.1,5.73"
           inkscape:connector-curvature="0"
           style="vector-effect:non-scaling-stroke;stroke:#f2f2f2" />
        <path
           id="path33286"
           d="m 163.75,160.04 c -6.54,0.81 -12.69,13.56 -16.06,18.6 q -0.55,0.82 -0.46,-0.16 1.14,-12.86 0.78,-25.8 a 0.23,0.23 0 0 0 -0.32,-0.2 q -6.4,2.79 -8.93,9.07 c -0.83,2.05 -0.35,4.6 -0.75,6.93 a 0.87,0.85 86.1 0 1 -0.57,0.67 l -5.52,1.88 a 0.43,0.43 0 0 1 -0.57,-0.47 l 2.08,-15.7 q 0.1,-0.77 -0.6,-0.43 c -4.14,2 -9.5,6.12 -9.83,11.07 q -0.32,4.81 -1.17,8.1 a 0.87,0.86 -1.3 0 1 -0.6,0.62 l -8.35,2.35 a 0.28,0.28 0 0 1 -0.35,-0.28 l 0.58,-20.27 a 0.97,0.97 0 0 0 -1.42,-0.89 l -3.01,1.6 a 0.69,0.68 52.5 0 1 -0.79,-0.11 c -6.05,-5.88 -17.95,-5.03 -24.2,0.32 -10.63,9.1 -13.54,20.69 -16.17,33.82 -1.36,6.77 -6.25,18.6 -15.51,14.61 a 1.96,1.95 -78.2 0 1 -1.18,-1.81 l 0.14,-14.99 a 2.92,2.89 65.2 0 1 0.66,-1.82 c 11.39,-13.8 21.38,-28.65 33.02,-42.19 a 0.95,0.95 0 0 0 -0.41,-1.52 c -3.73,-1.33 -28.57,33.64 -31.8,38.08 A 1.07,1.07 0 0 1 50.63,181 q -0.12,-0.24 -0.06,-1.77 0.7,-16.11 0.3,-32.32 a 0.42,0.42 0 0 0 -0.62,-0.35 q -4.5,2.53 -7.69,6.62 -1.56,1.99 -1.56,4.53 v 37.24 a 1.3,1.28 65.7 0 1 -0.31,0.84 q -4.83,5.6 -3.6,12.75 c 0.4,2.37 1.96,3.96 3.52,5.7 a 1.34,1.3 -67 0 1 0.33,0.85 l 0.19,8.41 q 0.03,0.99 0.87,0.47 c 4.71,-2.88 7.08,-7.26 11.35,-10.11 q 6.45,-4.31 12.12,-9.77 0.36,-0.34 0.36,0.15 c 0.06,7.77 1,17.05 11.34,14.6 q 2.11,-0.5 4.69,-2.46 12.7,-9.66 19.45,-24.34 1.06,-2.29 0.92,0.23 l -1.13,20.72 a 1.07,1.07 0 0 0 1.21,1.12 c 2,-0.26 6.57,-5.6 8.13,-7.2 a 2.61,2.58 -21.9 0 0 0.72,-1.66 l 0.99,-20.64 a 0.68,0.67 84.8 0 1 0.51,-0.62 l 7.38,-1.86 a 0.46,0.45 -5.7 0 1 0.57,0.46 l -1.27,29.78"
           inkscape:connector-curvature="0"
           style="vector-effect:non-scaling-stroke;stroke:#838383" />
        <path
           id="path33288"
           d="m 119.34,212.37 q -4.77,5.49 -9.54,10.94 c -3.56,4.06 -6.42,9.13 -10.16,13.51 -4.95,5.8 -9.12,11.09 -15.58,16.62 -2.72,2.34 -3.33,4.49 -3.72,7.85 a 1.26,1.25 -14.1 0 1 -0.53,0.87 l -5.95,4.09 q -0.42,0.28 -0.9,0.39 l -6.28,1.35 q -1.34,0.29 -0.01,0.59 c 3.95,0.9 7.53,-0.28 11.14,0.17 q 4.82,0.59 9.63,1.25"
           inkscape:connector-curvature="0"
           style="vector-effect:non-scaling-stroke;stroke:#f2f2f2" />
        <path
           id="path33290"
           d="m 44.09,38.3 q -5.99,31.19 -3.47,62.88 0.75,9.36 5.93,17.34 a 0.61,0.61 0 0 0 0.82,0.2 q 5.97,-3.38 9.33,-9.35 a 0.76,0.76 0 0 0 -0.32,-1.05 l -0.81,-0.42 a 1.57,1.57 0 0 1 -0.73,-0.76 Q 50.53,97.82 50.11,84.75 49.24,57.69 53.75,30.98 a 1.22,1.2 83.2 0 1 0.71,-0.91 c 2.4,-1.04 15.16,-6.56 16.89,-6.09 a 0.44,0.44 0 0 1 0.3,0.54 l -0.51,1.71 q -0.37,1.24 0.7,0.52 6.52,-4.36 10.27,-11.22 a 0.98,0.98 0 0 0 -0.43,-1.35 c -3.02,-1.46 -22.44,7.66 -26.07,9.59 q -0.46,0.24 -0.34,-0.26 l 2.57,-10.76 q 0.24,-1.01 -0.7,-0.57 c -8.27,3.89 -9.47,9.29 -11.2,17.69 a 4.04,4.03 -14.4 0 1 -1.34,2.26 q -4.77,4.08 -8.2,9.26 a 1.28,1.28 0 0 0 0.61,1.91 c 0.98,0.38 5.54,-4.48 6.75,-5.23 q 0.43,-0.27 0.33,0.23"
           inkscape:connector-curvature="0"
           style="vector-effect:non-scaling-stroke;stroke:#838383" />
        <path
           id="path33292"
           d="m 109.1,80.53 q 1.36,-16.99 1.8,-20.96 0.38,-3.45 -0.29,-6.08 a 0.41,0.4 68.8 0 0 -0.58,-0.26 c -3.78,2.04 -8.44,5.84 -8.78,10.48 q -1.06,14.32 -2.53,28.69 a 0.74,0.73 89.6 0 1 -0.64,0.66 l -8.51,1.01 a 0.56,0.56 0 0 1 -0.63,-0.51 q -1.1,-13.14 -1.05,-26.32 0,-1.95 1.29,-3.41 L 93.51,58.9 A 0.48,0.48 0 0 0 93.38,58.16 C 92.84,57.87 91.33,57.97 90.72,58.33 72.35,69.02 59.15,87.65 58.04,109.27 q -0.17,3.27 -0.01,14.17 c 0.09,6.38 4.2,14.38 11.54,8.36 q 4.08,-3.36 7.36,-7.58 0.31,-0.39 -0.18,-0.33 c -9.11,1.19 -9.31,-8.82 -8.92,-14.82 a 2.32,2.32 0 0 1 1.69,-2.08 l 8.1,-2.26 a 1.31,1.3 79.7 0 1 1.65,1.15 l 1.16,13.44 a 0.55,0.54 -17.6 0 0 0.82,0.42 q 4.23,-2.51 7.27,-6.45 c 2.04,-2.65 1.59,-6.41 1.44,-9.57 a 0.89,0.89 0 0 1 0.78,-0.93 l 6.33,-0.78 a 0.53,0.53 0 0 1 0.6,0.55 l -0.74,14.83 q -0.14,2.77 2.33,1.51 5.18,-2.63 8.15,-7.62 a 1.38,1.37 56.3 0 0 0.18,-0.93 q -1.3,-8.67 1.2,-17.01 a 1.15,1.14 -53.4 0 0 -0.14,-0.97 l -0.55,-0.84 a 0.95,0.95 0 0 1 0.6,-1.45 q 7.39,-1.53 14.5,-4.12 a 0.3,0.3 0 0 1 0.4,0.29 l -1.3,32.9 q -0.08,2.19 2.04,1.61 c 1.74,-0.47 6.73,-6.24 8.04,-7.86 a 1.45,1.44 64.9 0 0 0.33,-0.92 l 0.3,-28.77 a 1.29,1.27 75.8 0 1 0.65,-1.1 q 6.18,-3.53 10.05,-9.43 0.65,-0.99 -0.45,-0.56 l -8.23,3.2 a 0.7,0.7 0 0 1 -0.95,-0.76 q 1.79,-12.51 1.96,-25.12 a 1.08,1.08 0 0 0 -1.6,-0.96 c -3.41,1.85 -7.91,5.88 -8.21,10.2 q -0.66,9.28 -1.2,18.53 a 1.77,1.77 0 0 1 -1.26,1.58 q -6.95,2.09 -14.17,2.27 a 0.49,0.49 0 0 1 -0.5,-0.53"
           inkscape:connector-curvature="0"
           style="vector-effect:non-scaling-stroke;stroke:#838383" />
        <path
           id="path33294"
           d="m 342.06,0 0.92,0.34 a 0.44,0.44 0 0 1 0.2,0.67 C 340,5.19 334.94,9.19 332.65,13.74 q -3.7,7.35 -10.01,12.67 a 1.44,1.43 76 0 0 -0.48,0.81 c -1.63,7.67 -3.57,18.77 -12.5,20.4 a 0.53,0.52 -7.6 0 0 -0.44,0.57 q 0.46,5.18 -1.72,9.77"
           inkscape:connector-curvature="0"
           style="vector-effect:non-scaling-stroke;stroke:#f2f2f2" />
        <path
           id="path33296"
           d="m 307.5,57.96 c -8.15,-3.32 -18.66,-3.67 -25.86,2.22 -12.28,10.05 -20.12,24.98 -18.78,41.16 a 0.49,0.49 0 0 1 -0.44,0.53 q -7.33,0.76 -14.26,-1.25 -2.97,-0.86 -3.33,-3.93 c -1.26,-10.68 3.5,-27.29 14.22,-32.85 q 5.86,-3.04 9.84,-8.59 a 0.78,0.78 0 0 0 -0.45,-1.21 c -5.19,-1.23 -18.42,13.26 -21.49,17.41 q -0.96,1.3 -0.94,-0.31 l 0.15,-10.74"
           inkscape:connector-curvature="0"
           style="vector-effect:non-scaling-stroke;stroke:#767676" />
        <path
           id="path33298"
           d="m 136.21,270.02 q 4.7,-5.32 6.2,-12.31 a 0.75,0.72 -88 0 1 0.59,-0.57 q 6.21,-1.14 10.25,-5.93"
           inkscape:connector-curvature="0"
           style="vector-effect:non-scaling-stroke;stroke:#f2f2f2" />
        <path
           id="path33300"
           d="m 153.25,251.21 c 7.32,2.96 16.68,4.33 23.91,0.41 q 12.23,-6.61 15,-20.78 2.1,-10.72 3.06,-25.48 0.03,-0.45 0.3,-0.09 l 4.34,5.77 a 1.25,1.2 29.3 0 1 0.25,0.82 c -0.88,16.03 -1.73,32.01 -1.82,48.05 q -0.01,2.13 1.51,0.63 l 7.28,-7.23 a 2.54,2.52 -21.2 0 0 0.74,-1.66 l 1.75,-39.88 a 2.02,2.02 0 0 1 1.38,-1.83 c 8.35,-2.77 16.24,-13.94 19.68,-21.61 0.47,-1.04 1.53,-1.81 2.54,-2.14 a 0.31,0.31 0 0 1 0.41,0.34 q -0.83,5.39 -4.15,9.74 a 1.8,1.71 65.1 0 0 -0.35,1.03 l -0.06,13.84 a 0.51,0.5 -5.5 0 0 0.61,0.5 c 11.94,-2.61 21.79,-4.04 32.51,-10.61 a 0.73,0.72 71.5 0 1 1.1,0.55 c 0.16,1.77 -3,4.86 -3.81,6.87 a 0.38,0.38 0 0 0 0.33,0.52 q 2.12,0.12 3.97,-1.49 c 4.18,-3.63 9.38,-7.42 9.27,-12.99 q -0.11,-5.96 0.13,-12.05 a 0.74,0.74 0 0 1 0.53,-0.68 l 6.68,-1.9 a 0.54,0.54 0 0 1 0.69,0.54 q -0.5,11.92 -1.02,23.86 -0.14,3.09 0.44,6.25 a 0.39,0.39 0 0 0 0.55,0.28 c 4.09,-1.99 9.42,-6.19 9.34,-11.22 q -0.23,-13.28 0.75,-26.62 a 1.37,1.34 70.2 0 1 0.39,-0.85 c 1.49,-1.49 9,-9.12 8.49,-10.86 a 0.53,0.52 -19.2 0 0 -0.71,-0.34 q -3.95,1.65 -6.5,5.11 -0.77,1.04 -0.77,-0.26 l 0.03,-6.77 a 1.58,1.57 -13.6 0 1 0.86,-1.4 q 13.39,-6.86 28.17,-9.61 a 0.48,0.47 79.9 0 1 0.55,0.39 q 0.02,0.19 -0.16,0.38 c -9.79,10.26 -9.87,23.65 -9.99,37.48 a 0.86,0.86 0 0 0 1.21,0.79 l 1.72,-0.76 a 0.43,0.43 0 0 1 0.61,0.41 c -0.16,6.87 -0.34,13.72 6.71,17.4 4.53,2.37 12.61,3.09 17.42,0.07 q 11.58,-7.27 13.59,-21.55 2.14,-15.15 1.22,-23.03 c -1.15,-9.88 -7.14,-13.4 -15.6,-16.62 q -1.24,-0.47 -0.07,-1.1 2.49,-1.31 2.81,-4.04 A 0.71,0.71 0 0 0 340.32,137 c -15.3,1.01 -36.87,5.93 -47.69,17.73 q -0.64,0.71 -0.64,-0.25 l 0.02,-3.72 q 0,-1.06 -0.9,-0.5 c -8.26,5.14 -10.17,10.14 -8.85,19.78 q 0.26,1.91 -1.61,2.35 l -7.03,1.69 a 0.49,0.48 -6.6 0 1 -0.6,-0.47 l -0.06,-28.23 q 0,-1.1 -0.91,-0.47 l -5.7,3.91 q -0.09,0.06 -0.02,-0.03 c 1.07,-1.43 3.4,-3.23 3.6,-5.04 a 0.42,0.42 0 0 0 -0.46,-0.47 c -9.7,0.85 -19.07,6.48 -30.22,7.01"
           inkscape:connector-curvature="0"
           style="vector-effect:non-scaling-stroke;stroke:#838383" />
        <path
           id="path33302"
           d="m 239.25,150.29 -0.27,-0.04 a 0.25,0.24 84 0 1 -0.2,-0.17 q -0.34,-0.92 0.49,-1.14 c 4.92,-1.27 3.59,-4.92 2.58,-8.45 a 0.99,0.98 -34.5 0 1 0.17,-0.88 c 4.67,-6.01 11.28,-10.31 16.93,-17.15 a 1.29,1.28 -25.8 0 0 0.3,-0.85 L 259.24,120 a 1.12,1.1 69.4 0 1 0.37,-0.83 q 4.89,-4.34 7.9,-10.05"
           inkscape:connector-curvature="0"
           style="vector-effect:non-scaling-stroke;stroke:#f2f2f2" />
        <path
           id="path33304"
           d="m 267.51,109.12 q 7.14,11.69 20.49,4.88 3.4,-1.73 11.45,-9.95 0.55,-0.57 0.55,0.22 v 10.36 q 0,2.17 0.38,4.3 0.62,3.53 2.47,4.26 a 1.04,1.03 -52.2 0 0 1.01,-0.13 q 5.75,-4.34 10.18,-10.03 0.75,-0.96 -0.44,-0.67 l -1.9,0.47 a 0.57,0.57 0 0 1 -0.67,-0.37 c -2.15,-6.22 -1.1,-17.17 -0.99,-23.9 q 0.03,-2.34 2.41,-8.61 0.96,-2.53 1.28,-11.19 0.26,-6.99 -6.23,-10.8"
           inkscape:connector-curvature="0"
           style="vector-effect:non-scaling-stroke;stroke:#838383" />
        <path
           id="path33306"
           d="m 328.49,68.17 q 8.32,-2.14 17,-2.19 2.56,-0.01 1.71,2.4 c -5.34,15.13 -10.48,27.52 -9.04,44.7 q 0.2,2.41 3.23,2.87 a 1.31,1.3 31.5 0 0 0.98,-0.23 q 4.59,-3.31 8.21,-7.64 a 1.24,1.18 25.8 0 0 -0.73,-1.94 c -0.99,-0.23 -1.83,-1.59 -1.92,-2.73 -1.08,-13.79 2.56,-25.84 7.75,-38.98 q 1.56,-3.96 1.19,-7.83 a 0.58,0.57 87.7 0 0 -0.56,-0.52 c -7.8,-0.16 -17.96,1.19 -24.49,3.54 -5.74,2.06 -17.26,8.76 -14.16,16.65 q 1.74,4.43 3.31,8.27 1.1,2.69 0.97,5.59 l -1.08,23.55 q -0.06,1.42 1.19,0.74 c 5.01,-2.74 10.19,-7.94 10.01,-14.17 Q 331.6,85.02 333.98,70 q 0.14,-0.88 -0.53,-1.46 a 0.75,0.74 -38.6 0 0 -0.85,-0.09 c -1.19,0.65 -3.39,2.3 -4.38,0.3 a 0.41,0.41 0 0 1 0.27,-0.58"
           inkscape:connector-curvature="0"
           style="vector-effect:non-scaling-stroke;stroke:#838383" />
        <path
           id="path33308"
           d="m 384.07,162.99 q -0.65,-0.01 -0.18,-0.46 c 3.94,-3.82 10.26,-11.26 8.6,-17.04 q -1.17,-4.06 -5.14,-3.69 c -11.57,1.1 -22.86,2.47 -28.91,13.75 q -0.4,0.74 0.38,0.42 l 2.4,-0.99 q 1.89,-0.78 1.61,1.25 -2.18,16 -1.71,32.15 0.06,1.92 -1.22,3.36 c -1.12,1.27 -2.78,2.28 -3.37,4.09 -3.02,9.23 0.95,14.75 10.36,15.06 q 23.25,0.77 34.86,-18.76 c 3.52,-5.94 3.59,-21.34 -0.75,-26.87 q -1.76,-2.23 -4.61,-2.24 l -12.32,-0.03"
           inkscape:connector-curvature="0"
           style="vector-effect:non-scaling-stroke;stroke:#838383" />
        <path
           id="path33310"
           d="m 308.52,160.2 c -3.21,1.2 -8.4,6.35 -8.45,9.86 q -0.26,20.02 0.13,40.09 0.07,3.12 2.71,1.46 4.02,-2.54 6.88,-6.27 a 3.9,3.86 -30.1 0 0 0.77,-2.82 c -0.78,-6.26 -0.43,-13.65 -0.59,-18.44 q -0.36,-10.79 0.22,-22.66 a 1.24,1.23 81 0 0 -1.67,-1.22"
           inkscape:connector-curvature="0"
           style="vector-effect:non-scaling-stroke;stroke:#838383" />
        <path
           id="path33312"
           d="m 76.86,73.45 q -7.78,11.91 -8.77,26.18 a 1.02,1.01 -9.5 0 0 1.41,1 l 8.26,-3.48 A 0.69,0.68 -11.9 0 0 78.19,96.5 L 77.84,73.73 q -0.03,-1.74 -0.98,-0.28"
           inkscape:connector-curvature="0"
           style="vector-effect:non-scaling-stroke;stroke:#838383" />
        <path
           id="path33314"
           d="m 222.96,83.5 q -1.44,14.23 -0.94,22.76 0.22,3.82 4.15,6.32 a 0.51,0.51 0 0 1 0.08,0.8 l -8.41,8.17 a 2.03,2.03 0 0 1 -2.56,0.21 c -5.1,-3.54 -3.28,-17.42 -3.07,-23.01"
           inkscape:connector-curvature="0"
           style="vector-effect:non-scaling-stroke;stroke:#767676" />
        <path
           id="path33316"
           d="m 212.21,98.75 1.31,-21.77 q 0.03,-0.52 -0.29,-0.11 -7.12,9.25 -13.28,19.07 c -3.35,5.35 -2.75,10.44 1.23,15.17"
           inkscape:connector-curvature="0"
           style="vector-effect:non-scaling-stroke;stroke:#838383" />
        <path
           id="path33318"
           d="m 201.18,111.11 -2.93,3.35"
           inkscape:connector-curvature="0"
           style="vector-effect:non-scaling-stroke;stroke:#767676" />
        <path
           id="path33320"
           d="m 169.46,58.92 q -7.67,0.12 -14.04,4.42 a 1.01,1 -17.6 0 0 -0.43,0.82 c 0,12.86 -0.55,26.01 0.53,38.8 a 0.69,0.69 0 0 0 0.92,0.59 l 6.97,-2.51 a 1.32,1.31 1 0 0 0.78,-0.75 c 5.88,-14.45 8.84,-26.34 6.55,-40.29 a 1.29,1.27 84.8 0 0 -1.28,-1.08"
           inkscape:connector-curvature="0"
           style="vector-effect:non-scaling-stroke;stroke:#838383" />
        <path
           id="path33322"
           d="m 187.4,95.62 c -1.67,4.43 -5.15,12.64 -4.26,16.95 q 0.1,0.51 0.48,0.15 c 4.98,-4.79 4.92,-11.02 4.16,-17.06 q -0.1,-0.78 -0.38,-0.04"
           inkscape:connector-curvature="0"
           style="vector-effect:non-scaling-stroke;stroke:#838383" />
        <path
           id="path33324"
           d="m 156.33,116.33 -5.2,4.5 q -0.41,0.36 0.09,0.14 3.83,-1.72 5.48,-4.32 0.88,-1.4 -0.37,-0.32"
           inkscape:connector-curvature="0"
           style="vector-effect:non-scaling-stroke;stroke:#838383" />
        <path
           id="path33326"
           d="m 147.19,121.99 q 0.98,1.4 0.84,-0.3 -0.2,-2.44 -1.41,-4.58 -0.47,-0.84 -0.59,0.12 -0.32,2.64 1.16,4.76"
           inkscape:connector-curvature="0"
           style="vector-effect:non-scaling-stroke;stroke:#838383" />
        <path
           id="path33328"
           d="m 267.51,109.12 -2.78,-2.33 A 0.63,0.61 -40.3 0 0 264,106.74 c -7.43,4.69 -13.26,6.6 -21.9,4.59 a 1.07,1.05 -58.9 0 0 -0.96,0.25 q -1.41,1.29 -3.42,1.33 -2.24,0.04 -2.61,-2.17 c -0.79,-4.77 -1.01,-8.5 -0.56,-13.63 q 1.34,-15.31 1.43,-31.05"
           inkscape:connector-curvature="0"
           style="vector-effect:non-scaling-stroke;stroke:#767676" />
        <path
           id="path33330"
           d="m 279.79,95.25 q -0.34,2.51 0.34,5.03 a 1.14,1.12 6.4 0 0 0.58,0.71 c 5.96,2.92 9.38,0.63 14.65,-2.2 a 0.27,0.27 0 0 1 0.31,0.04 c 0.88,0.84 -4.98,6.58 -5.77,7.24 q -0.39,0.32 0.12,0.34 c 4.69,0.11 7.39,-4.8 8.87,-8.73 2.69,-7.17 -1.43,-18.31 3.6,-23.82 a 0.77,0.77 0 0 0 0.14,-0.83 q -1.09,-2.48 -3.29,-4.32"
           inkscape:connector-curvature="0"
           style="vector-effect:non-scaling-stroke;stroke:#838383" />
        <path
           id="path33332"
           d="m 299.34,68.71 q -9.2,-4.6 -19.31,-2.4 a 1.29,1.27 -79.4 0 0 -0.81,0.56 q -6.43,9.96 -6.35,21.84 0,0.67 0.35,0.11 c 3.91,-6.26 6.49,-10.56 12.63,-13.54 a 0.96,0.95 73.8 0 1 1.37,0.76 c 0.73,6.53 -7.49,11.34 -7.43,19.21"
           inkscape:connector-curvature="0"
           style="vector-effect:non-scaling-stroke;stroke:#767676" />
        <path
           id="path33334"
           d="m 299.34,68.71 q -2.39,1.08 -3.69,3.13 a 0.68,0.66 -50 0 0 0.06,0.8 c 1.94,2.12 -0.82,4.01 -2.6,4.57 a 1.72,1.65 -78.2 0 0 -0.79,0.54 q -4.57,5.68 -4.63,12.94 a 1.99,1.98 86.3 0 1 -1.72,1.96 q -3.14,0.43 -6.18,2.6"
           inkscape:connector-curvature="0"
           style="vector-effect:non-scaling-stroke;stroke:#f2f2f2" />
        <path
           id="path33336"
           d="m 239.25,150.29 -4.5,0.66 a 0.59,0.59 0 0 1 -0.66,-0.42 c -1.63,-5.83 -2.63,-12.31 -9.84,-12.86 -3.55,-0.26 -12.4,1.28 -15.73,3.36 q -3.98,2.49 -10,10.39 -0.62,0.81 -0.57,-0.2 l 0.33,-8.36 q 0.08,-1.86 -1.56,-0.96 -4.91,2.7 -7.83,7.51 -1.07,1.78 -0.97,3.85 1.04,22.48 -7.11,43.41 -1.17,3.01 -3.8,1.13 c -5.39,-3.88 -4.96,-8.59 -2.2,-14.19 q 4.35,-8.8 4.76,-18.59 0.08,-2.08 -1.74,-1.06 c -11.2,6.27 -14.94,18.04 -14.79,30.21 a 0.91,0.91 0 0 1 -0.89,0.93 c -4.02,0.06 -17.42,1.43 -13.69,-6.87 q 5.25,-11.66 13.32,-23.96 1.29,-1.98 1.97,-4.23"
           inkscape:connector-curvature="0"
           style="vector-effect:non-scaling-stroke;stroke:#767676" />
        <path
           id="path33338"
           d="m 201.18,111.11 q 2.96,-3.1 4.15,-7.25 a 1.64,1.61 -11.9 0 1 0.53,-0.8 l 4.99,-4.01 a 1.36,1.34 25.2 0 1 0.85,-0.3 h 0.51"
           inkscape:connector-curvature="0"
           style="vector-effect:non-scaling-stroke;stroke:#f2f2f2" />
        <path
           id="path33340"
           d="m 153.25,251.21 c -4.37,-2.14 -20.07,-9.68 -13,-16.98 q 3.41,-3.52 7.07,-5.91 a 0.44,0.44 0 0 1 0.64,0.19 c 3.31,7.29 9.17,10.82 16.47,13.44"
           inkscape:connector-curvature="0"
           style="vector-effect:non-scaling-stroke;stroke:#767676" />
        <path
           id="path33342"
           d="m 164.43,241.95 q 7.7,2.84 14.76,2.04 2.05,-0.23 2.44,-2.26 2.14,-11.16 3.12,-22.19"
           inkscape:connector-curvature="0"
           style="vector-effect:non-scaling-stroke;stroke:#838383" />
        <path
           id="path33344"
           d="m 184.75,219.54 2.13,-23.82 q 0.12,-1.26 -0.61,-0.23 c -2.95,4.16 -10.05,12.6 -15.63,12.58 -5.64,-0.02 -5.99,-3.74 -8.12,-7.73 a 0.35,0.35 0 0 0 -0.57,-0.07 q -4.62,5.29 -11.63,4.76 a 1.27,1.24 -62.9 0 0 -0.92,0.31 l -3.83,3.39 q -2.25,1.99 -4.79,0.38 c -6.1,-3.85 -3.56,-24.59 -2.65,-30.96 a 0.99,0.99 0 0 0 -1.21,-1.11 l -5.82,1.41 a 1.43,1.41 83.5 0 0 -1.08,1.37 c -0.06,8.43 -1.06,19.21 0.69,27.32 a 1.03,1.01 -28.6 0 1 -0.29,0.95 l -7.4,7.08 a 1.79,1.79 0 0 1 -2.5,-0.02 q -0.7,-0.7 -1.18,-2.78"
           inkscape:connector-curvature="0"
           style="vector-effect:non-scaling-stroke;stroke:#767676" />
        <path
           id="path33346"
           d="m 222.97,155.74 c -1.45,-6.31 -4.58,-9.02 -11.31,-7.59 a 0.84,0.83 84.1 0 0 -0.66,0.82 v 15.49 q 0,0.53 0.42,0.22 l 11.25,-8.14 a 0.79,0.78 65.8 0 0 0.3,-0.8"
           inkscape:connector-curvature="0"
           style="vector-effect:non-scaling-stroke;stroke:#767676" />
        <path
           id="path33348"
           d="m 263,168.61 0.24,-14.58 a 1.83,1.78 62.7 0 1 0.29,-0.95 l 1.45,-2.26 q 1.07,-1.67 -0.5,-0.46 l -2.37,1.83 q -0.37,0.29 -0.83,0.4 l -13.66,3.39 a 0.73,0.73 0 0 0 -0.56,0.7 q -0.21,9.59 -2.86,18.79 -0.19,0.64 0.42,0.38 8.53,-3.69 17.51,-6.12 a 1.19,1.18 83.2 0 0 0.87,-1.12"
           inkscape:connector-curvature="0"
           style="vector-effect:non-scaling-stroke;stroke:#838383" />
        <path
           id="path33350"
           d="m 323.2681,156.808 a 2.45,0.51 109.6 0 0 1.3023,-2.1369 2.45,0.51 109.6 0 0 0.3415,-2.4791 2.45,0.51 109.6 0 0 -1.3023,2.1369 2.45,0.51 109.6 0 0 -0.3415,2.4791"
           inkscape:connector-curvature="0"
           style="vector-effect:non-scaling-stroke;stroke:#838383" />
        <path
           id="path33352"
           d="m 200.42,153.39 c -1.15,0.13 -2.18,1.89 -2.18,3 q 0.01,12.21 -1.07,25.04 -0.19,2.18 1.1,0.41 c 1.7,-2.35 2.75,-5.14 2.75,-8.32 q 0,-9.77 -0.08,-19.67 a 0.47,0.46 -3.3 0 0 -0.52,-0.46"
           inkscape:connector-curvature="0"
           style="vector-effect:non-scaling-stroke;stroke:#767676" />
        <path
           id="path33354"
           d="m 331.25,154.51 c -3.97,8.6 -10.01,28.88 -3.71,36.76 2.8,3.5 8.34,5.14 12.73,4.76 a 2.16,2.15 -88 0 0 1.95,-1.82 q 1.6,-10.54 1.79,-21.06 c 0.17,-9.32 -2.9,-15.87 -11.82,-19.03 a 0.76,0.75 22.3 0 0 -0.94,0.39"
           inkscape:connector-curvature="0"
           style="vector-effect:non-scaling-stroke;stroke:#838383" />
        <path
           id="path33356"
           d="m 235.01,160.23 c 0.05,7.09 -0.52,13.07 -1.82,19.77 q -0.38,1.95 0.94,0.47 c 3.25,-3.62 2.91,-15.1 1.8,-20 a 0.56,0.23 82.1 0 0 -0.24,-0.41 l -0.32,-0.1 a 0.28,0.28 0 0 0 -0.36,0.27"
           inkscape:connector-curvature="0"
           style="vector-effect:non-scaling-stroke;stroke:#838383" />
        <path
           id="path33358"
           d="m 211.04,184.5 -0.74,16.01 a 0.56,0.55 5.8 0 0 0.47,0.57 c 4.88,0.79 8.11,0.16 9.7,-4.41 q 5.21,-14.92 3.74,-29.92"
           inkscape:connector-curvature="0"
           style="vector-effect:non-scaling-stroke;stroke:#838383" />
        <path
           id="path33360"
           d="m 224.21,166.75 -0.37,-4.41 A 0.41,0.41 0 0 0 223.28,162 q -6.09,2.47 -11.34,6.42 a 2.23,2.23 0 0 0 -0.9,1.79 v 14.29"
           inkscape:connector-curvature="0"
           style="vector-effect:non-scaling-stroke;stroke:#767676" />
        <path
           id="path33362"
           d="m 224.21,166.75 q -1.87,0.58 -3.17,2.07 a 0.74,0.73 52.2 0 0 -0.1,0.81 q 0.54,1.1 -0.47,1.62 -4.48,2.33 -6.17,6.29 c -0.81,1.88 -0.46,4.05 -0.75,6.21 a 0.77,0.76 86.7 0 1 -0.56,0.64 q -0.96,0.27 -1.95,0.11"
           inkscape:connector-curvature="0"
           style="vector-effect:non-scaling-stroke;stroke:#f2f2f2" />
        <path
           id="path33364"
           d="m 98.76,170.95 c 0.26,-8.44 -8.57,-8.69 -14.61,-8.74 a 0.97,0.95 17.5 0 0 -0.81,0.41 q -3.36,4.75 -2.4,10.4 a 4.86,4.84 51 0 1 -0.27,2.64 q -3.27,8.27 -3.63,17.33 c -0.32,8.41 6.55,9.34 13.12,8.91 a 0.89,0.86 -77.7 0 0 0.72,-0.48 q 7.37,-14.37 7.88,-30.47"
           inkscape:connector-curvature="0"
           style="vector-effect:non-scaling-stroke;stroke:#838383" />
        <path
           id="path33366"
           d="m 262.61,182.95 c -0.07,-2.63 0.44,-5.63 0.39,-8.53 q -0.01,-0.86 -0.58,-0.22 c -4.75,5.39 -12.66,6.51 -19.34,8.6 a 1.41,1.4 -4.2 0 0 -0.97,1.11 l -2.79,16.44 a 0.44,0.43 -87.3 0 0 0.45,0.51 q 11.28,-0.75 21.73,-4.98 1.75,-0.7 1.62,-2.58 -0.36,-5.44 -0.51,-10.35"
           inkscape:connector-curvature="0"
           style="vector-effect:non-scaling-stroke;stroke:#838383" />
        <path
           id="path33368"
           d="m 85.0185,209.0975 a 2.8,0.5 133.9 0 0 2.3018,-1.6708 2.8,0.5 133.9 0 0 1.5812,-2.3642 2.8,0.5 133.9 0 0 -2.3018,1.6708 2.8,0.5 133.9 0 0 -1.5812,2.3642"
           inkscape:connector-curvature="0"
           style="vector-effect:non-scaling-stroke;stroke:#838383" />
        <path
           id="path33370"
           d="m 372.07,152.81 -0.99,14.66 q -0.06,0.87 0.55,0.25 c 4.57,-4.68 14.33,-6.1 10.06,-15.21 a 0.89,0.88 77.3 0 0 -0.8,-0.51 h -7.95 a 0.87,0.86 1.7 0 0 -0.87,0.81"
           inkscape:connector-curvature="0"
           style="vector-effect:non-scaling-stroke;stroke:#838383" />
        <path
           id="path33372"
           d="m 376.48,194.9 c -1.33,1.8 -3.66,3.38 -4.77,5.46 a 0.33,0.33 0 0 0 0.26,0.49 c 3.96,0.36 18.75,0.2 21.07,-3.53 2.28,-3.66 0.69,-15.61 0.22,-18.47 q -0.94,-5.86 -6.71,-5.92 -7.29,-0.09 -14.33,0.53 a 1.29,1.29 0 0 0 -1.18,1.27 c -0.09,6.55 -1.99,15.87 5.29,19.54 a 0.43,0.42 -58.8 0 1 0.15,0.63"
           inkscape:connector-curvature="0"
           style="vector-effect:non-scaling-stroke;stroke:#838383" />
        <path
           id="path33374"
           d="m 184.75,219.54 c -4.59,-0.58 -10.99,8.51 -12.76,12.02 -2.26,4.48 -4.53,6.89 -7.56,10.39"
           inkscape:connector-curvature="0"
           style="vector-effect:non-scaling-stroke;stroke:#f2f2f2" />
      </g>
      <path
         id="path33378"
         d="m 0,0 h 285.81 l -1.85,0.39 a 1.25,1.22 9.9 0 0 -0.75,0.51 c -1.37,2.06 -3.03,3.34 -3.49,5.87 q -0.53,2.88 -0.91,5.84 a 1.02,1.02 0 0 1 -0.57,0.79 q -3.04,1.49 -6.36,1.1 a 1.1,1.09 26.4 0 0 -0.85,0.28 c -2.67,2.49 -2.25,6.57 -4.67,8.33 q -1.47,1.07 -2.81,2.39 a 1.09,1.04 70.3 0 0 -0.32,0.72 l -0.32,7.04 a 0.81,0.81 0 0 1 -0.66,0.76 l -2.66,0.5 a 1.2,1.19 -75.7 0 0 -0.72,0.43 l -3.65,4.61 a 1.24,1.19 -24.9 0 0 -0.27,0.7 q -0.3,5.2 -2.94,9.68 a 1.64,1.62 58.3 0 0 -0.23,1 l 0.27,3.03 a 1.14,1.11 65.8 0 1 -0.33,0.91 l -5.56,5.52 -0.22,-2.56 a 0.82,0.82 0 0 0 -1.21,-0.64 q -5.8,3.18 -8.75,8.86 -4.87,3.12 -6.18,8.83 c -0.35,1.51 -5.06,10.26 -6.2,10.37 a 0.52,0.52 0 0 1 -0.58,-0.49 l -0.06,-1.27 1.15,-21.58 q 0.09,-1.63 -1.35,-0.85 -5.67,3.06 -8.98,8.7 C 209.45,77.15 203.6,83.7 198.63,90.71 Q 198,91.59 198,90.51 V 59.54 a 0.58,0.57 -12.1 0 0 -0.81,-0.52 q -4.54,2.08 -7.43,6.05 c -2.8,3.84 -1.73,10.9 -1.66,15.72 a 1.41,1.41 0 0 1 -0.39,1 l -4.21,4.39 q -0.33,0.34 -0.47,0.78 l -4.41,14.26 a 0.68,0.68 0 0 1 -0.82,0.46 l -6.32,-1.56 a 0.45,0.45 0 0 1 -0.3,-0.61 c 6.09,-14.34 12.87,-31.48 9.58,-48.73 a 2.17,2.16 -2.6 0 0 -1.93,-1.75 c -7.06,-0.63 -15.64,4.09 -21.89,7.17 q -5.82,2.88 -9.21,8.4 a 0.61,0.6 -66.6 0 0 0.35,0.9 l 0.92,0.26 a 0.23,0.23 0 0 1 0.1,0.38 c -2.14,2.24 -3.89,4.21 -3.94,7.57 q -0.32,18.51 -0.1,37.06 a 1.41,1.39 -25.6 0 1 -0.32,0.89 c -5.07,6.08 -10.28,8.8 -8.46,18.17 a 1.81,1.8 -7.4 0 0 1.9,1.46 c 10.66,-0.73 21.56,-12.21 27.07,-20.63 a 0.6,0.59 -60.8 0 1 0.73,-0.21 c 4.06,1.83 6.12,4.94 5.66,9.59 q -0.73,7.42 -0.66,14.51 0.02,2.4 2.09,1.2 6.68,-3.84 10.69,-10.33 a 1.86,1.82 -30.4 0 0 0.28,-1.04 c -0.13,-4.3 -0.82,-7.39 3.25,-10.12 a 0.41,0.41 0 0 1 0.61,0.18 l 2.17,5.07 a 1.34,1.34 0 0 0 2.13,0.46 l 6.05,-5.51 2.34,2.89 a 0.69,0.69 0 0 1 -0.04,0.9 q -4,4.3 -7.15,9.27 a 1.99,1.98 2.8 0 1 -0.81,0.73 q -3.25,1.58 -4.95,4.77 a 1.93,1.88 89.2 0 1 -0.7,0.74 c -3.34,2.03 -5.28,4.48 -5.49,8.46 q -0.18,3.59 -3.48,4.91 c -1.72,0.69 -2.6,1.49 -1.67,3.37 a 1.17,1.16 -22.9 0 1 -0.66,1.61 q -2.15,0.75 -3.79,2.2 c -2.46,2.18 -3.4,7.6 -8.1,5.73 -6.54,0.81 -12.69,13.56 -16.06,18.6 q -0.55,0.82 -0.46,-0.16 1.14,-12.86 0.78,-25.8 a 0.23,0.23 0 0 0 -0.32,-0.2 q -6.4,2.79 -8.93,9.07 c -0.83,2.05 -0.35,4.6 -0.75,6.93 a 0.87,0.85 86.1 0 1 -0.57,0.67 l -5.52,1.88 a 0.43,0.43 0 0 1 -0.57,-0.47 l 2.08,-15.7 q 0.1,-0.77 -0.6,-0.43 c -4.14,2 -9.5,6.12 -9.83,11.07 q -0.32,4.81 -1.17,8.1 a 0.87,0.86 -1.3 0 1 -0.6,0.62 l -8.35,2.35 a 0.28,0.28 0 0 1 -0.35,-0.28 l 0.58,-20.27 a 0.97,0.97 0 0 0 -1.42,-0.89 l -3.01,1.6 a 0.69,0.68 52.5 0 1 -0.79,-0.11 c -6.05,-5.88 -17.95,-5.03 -24.2,0.32 -10.63,9.1 -13.54,20.69 -16.17,33.82 -1.36,6.77 -6.25,18.6 -15.51,14.61 a 1.96,1.95 -78.2 0 1 -1.18,-1.81 l 0.14,-14.99 a 2.92,2.89 65.2 0 1 0.66,-1.82 c 11.39,-13.8 21.38,-28.65 33.02,-42.19 a 0.95,0.95 0 0 0 -0.41,-1.52 c -3.73,-1.33 -28.57,33.64 -31.8,38.08 A 1.07,1.07 0 0 1 50.63,181 q -0.12,-0.24 -0.06,-1.77 0.7,-16.11 0.3,-32.32 a 0.42,0.42 0 0 0 -0.62,-0.35 q -4.5,2.53 -7.69,6.62 -1.56,1.99 -1.56,4.53 v 37.24 a 1.3,1.28 65.7 0 1 -0.31,0.84 q -4.83,5.6 -3.6,12.75 c 0.4,2.37 1.96,3.96 3.52,5.7 a 1.34,1.3 -67 0 1 0.33,0.85 l 0.19,8.41 q 0.03,0.99 0.87,0.47 c 4.71,-2.88 7.08,-7.26 11.35,-10.11 q 6.45,-4.31 12.12,-9.77 0.36,-0.34 0.36,0.15 c 0.06,7.77 1,17.05 11.34,14.6 q 2.11,-0.5 4.69,-2.46 12.7,-9.66 19.45,-24.34 1.06,-2.29 0.92,0.23 l -1.13,20.72 a 1.07,1.07 0 0 0 1.21,1.12 c 2,-0.26 6.57,-5.6 8.13,-7.2 a 2.61,2.58 -21.9 0 0 0.72,-1.66 l 0.99,-20.64 a 0.68,0.67 84.8 0 1 0.51,-0.62 l 7.38,-1.86 a 0.46,0.45 -5.7 0 1 0.57,0.46 l -1.27,29.78 q -4.77,5.49 -9.54,10.94 c -3.56,4.06 -6.42,9.13 -10.16,13.51 -4.95,5.8 -9.12,11.09 -15.58,16.62 -2.72,2.34 -3.33,4.49 -3.72,7.85 a 1.26,1.25 -14.1 0 1 -0.53,0.87 l -5.95,4.09 q -0.42,0.28 -0.9,0.39 l -6.28,1.35 q -1.34,0.29 -0.01,0.59 c 3.95,0.9 7.53,-0.28 11.14,0.17 q 4.82,0.59 9.63,1.25 H 0 Z m 44.09,38.3 q -5.99,31.19 -3.47,62.88 0.75,9.36 5.93,17.34 a 0.61,0.61 0 0 0 0.82,0.2 q 5.97,-3.38 9.33,-9.35 a 0.76,0.76 0 0 0 -0.32,-1.05 l -0.81,-0.42 a 1.57,1.57 0 0 1 -0.73,-0.76 Q 50.53,97.82 50.11,84.75 49.24,57.69 53.75,30.98 a 1.22,1.2 83.2 0 1 0.71,-0.91 c 2.4,-1.04 15.16,-6.56 16.89,-6.09 a 0.44,0.44 0 0 1 0.3,0.54 l -0.51,1.71 q -0.37,1.24 0.7,0.52 6.52,-4.36 10.27,-11.22 a 0.98,0.98 0 0 0 -0.43,-1.35 c -3.02,-1.46 -22.44,7.66 -26.07,9.59 q -0.46,0.24 -0.34,-0.26 l 2.57,-10.76 q 0.24,-1.01 -0.7,-0.57 c -8.27,3.89 -9.47,9.29 -11.2,17.69 a 4.04,4.03 -14.4 0 1 -1.34,2.26 q -4.77,4.08 -8.2,9.26 a 1.28,1.28 0 0 0 0.61,1.91 c 0.98,0.38 5.54,-4.48 6.75,-5.23 q 0.43,-0.27 0.33,0.23 z m 65.01,42.23 q 1.36,-16.99 1.8,-20.96 0.38,-3.45 -0.29,-6.08 a 0.41,0.4 68.8 0 0 -0.58,-0.26 c -3.78,2.04 -8.44,5.84 -8.78,10.48 q -1.06,14.32 -2.53,28.69 a 0.74,0.73 89.6 0 1 -0.64,0.66 l -8.51,1.01 a 0.56,0.56 0 0 1 -0.63,-0.51 q -1.1,-13.14 -1.05,-26.32 0,-1.95 1.29,-3.41 L 93.51,58.9 A 0.48,0.48 0 0 0 93.38,58.16 C 92.84,57.87 91.33,57.97 90.72,58.33 72.35,69.02 59.15,87.65 58.04,109.27 q -0.17,3.27 -0.01,14.17 c 0.09,6.38 4.2,14.38 11.54,8.36 q 4.08,-3.36 7.36,-7.58 0.31,-0.39 -0.18,-0.33 c -9.11,1.19 -9.31,-8.82 -8.92,-14.82 a 2.32,2.32 0 0 1 1.69,-2.08 l 8.1,-2.26 a 1.31,1.3 79.7 0 1 1.65,1.15 l 1.16,13.44 a 0.55,0.54 -17.6 0 0 0.82,0.42 q 4.23,-2.51 7.27,-6.45 c 2.04,-2.65 1.59,-6.41 1.44,-9.57 a 0.89,0.89 0 0 1 0.78,-0.93 l 6.33,-0.78 a 0.53,0.53 0 0 1 0.6,0.55 l -0.74,14.83 q -0.14,2.77 2.33,1.51 5.18,-2.63 8.15,-7.62 a 1.38,1.37 56.3 0 0 0.18,-0.93 q -1.3,-8.67 1.2,-17.01 a 1.15,1.14 -53.4 0 0 -0.14,-0.97 l -0.55,-0.84 a 0.95,0.95 0 0 1 0.6,-1.45 q 7.39,-1.53 14.5,-4.12 a 0.3,0.3 0 0 1 0.4,0.29 l -1.3,32.9 q -0.08,2.19 2.04,1.61 c 1.74,-0.47 6.73,-6.24 8.04,-7.86 a 1.45,1.44 64.9 0 0 0.33,-0.92 l 0.3,-28.77 a 1.29,1.27 75.8 0 1 0.65,-1.1 q 6.18,-3.53 10.05,-9.43 0.65,-0.99 -0.45,-0.56 l -8.23,3.2 a 0.7,0.7 0 0 1 -0.95,-0.76 q 1.79,-12.51 1.96,-25.12 a 1.08,1.08 0 0 0 -1.6,-0.96 c -3.41,1.85 -7.91,5.88 -8.21,10.2 q -0.66,9.28 -1.2,18.53 a 1.77,1.77 0 0 1 -1.26,1.58 q -6.95,2.09 -14.17,2.27 a 0.49,0.49 0 0 1 -0.5,-0.53 z"
         inkscape:connector-curvature="0"
         style="fill:#ffffff" />
      <path
         id="path33380"
         d="m 285.81,0 h 56.25 l 0.92,0.34 a 0.44,0.44 0 0 1 0.2,0.67 C 340,5.19 334.94,9.19 332.65,13.74 q -3.7,7.35 -10.01,12.67 a 1.44,1.43 76 0 0 -0.48,0.81 c -1.63,7.67 -3.57,18.77 -12.5,20.4 a 0.53,0.52 -7.6 0 0 -0.44,0.57 q 0.46,5.18 -1.72,9.77 c -8.15,-3.32 -18.66,-3.67 -25.86,2.22 -12.28,10.05 -20.12,24.98 -18.78,41.16 a 0.49,0.49 0 0 1 -0.44,0.53 q -7.33,0.76 -14.26,-1.25 -2.97,-0.86 -3.33,-3.93 c -1.26,-10.68 3.5,-27.29 14.22,-32.85 q 5.86,-3.04 9.84,-8.59 a 0.78,0.78 0 0 0 -0.45,-1.21 c -5.19,-1.23 -18.42,13.26 -21.49,17.41 q -0.96,1.3 -0.94,-0.31 l 0.15,-10.74 5.56,-5.52 a 1.14,1.11 65.8 0 0 0.33,-0.91 l -0.27,-3.03 a 1.64,1.62 58.3 0 1 0.23,-1 q 2.64,-4.48 2.94,-9.68 a 1.24,1.19 -24.9 0 1 0.27,-0.7 l 3.65,-4.61 a 1.2,1.19 -75.7 0 1 0.72,-0.43 l 2.66,-0.5 a 0.81,0.81 0 0 0 0.66,-0.76 l 0.32,-7.04 a 1.09,1.04 70.3 0 1 0.32,-0.72 q 1.34,-1.32 2.81,-2.39 c 2.42,-1.76 2,-5.84 4.67,-8.33 a 1.1,1.09 26.4 0 1 0.85,-0.28 q 3.32,0.39 6.36,-1.1 a 1.02,1.02 0 0 0 0.57,-0.79 q 0.38,-2.96 0.91,-5.84 c 0.46,-2.53 2.12,-3.81 3.49,-5.87 a 1.25,1.22 9.9 0 1 0.75,-0.51 z"
         inkscape:connector-curvature="0"
         style="fill:#e5e5e5" />
      <path
         id="path33382"
         d="M 342.06,0 H 450 v 270 l -313.79,0.02 q 4.7,-5.32 6.2,-12.31 a 0.75,0.72 -88 0 1 0.59,-0.57 q 6.21,-1.14 10.25,-5.93 c 7.32,2.96 16.68,4.33 23.91,0.41 q 12.23,-6.61 15,-20.78 2.1,-10.72 3.06,-25.48 0.03,-0.45 0.3,-0.09 l 4.34,5.77 a 1.25,1.2 29.3 0 1 0.25,0.82 c -0.88,16.03 -1.73,32.01 -1.82,48.05 q -0.01,2.13 1.51,0.63 l 7.28,-7.23 a 2.54,2.52 -21.2 0 0 0.74,-1.66 l 1.75,-39.88 a 2.02,2.02 0 0 1 1.38,-1.83 c 8.35,-2.77 16.24,-13.94 19.68,-21.61 0.47,-1.04 1.53,-1.81 2.54,-2.14 a 0.31,0.31 0 0 1 0.41,0.34 q -0.83,5.39 -4.15,9.74 a 1.8,1.71 65.1 0 0 -0.35,1.03 l -0.06,13.84 a 0.51,0.5 -5.5 0 0 0.61,0.5 c 11.94,-2.61 21.79,-4.04 32.51,-10.61 a 0.73,0.72 71.5 0 1 1.1,0.55 c 0.16,1.77 -3,4.86 -3.81,6.87 a 0.38,0.38 0 0 0 0.33,0.52 q 2.12,0.12 3.97,-1.49 c 4.18,-3.63 9.38,-7.42 9.27,-12.99 q -0.11,-5.96 0.13,-12.05 a 0.74,0.74 0 0 1 0.53,-0.68 l 6.68,-1.9 a 0.54,0.54 0 0 1 0.69,0.54 q -0.5,11.92 -1.02,23.86 -0.14,3.09 0.44,6.25 a 0.39,0.39 0 0 0 0.55,0.28 c 4.09,-1.99 9.42,-6.19 9.34,-11.22 q -0.23,-13.28 0.75,-26.62 a 1.37,1.34 70.2 0 1 0.39,-0.85 c 1.49,-1.49 9,-9.12 8.49,-10.86 a 0.53,0.52 -19.2 0 0 -0.71,-0.34 q -3.95,1.65 -6.5,5.11 -0.77,1.04 -0.77,-0.26 l 0.03,-6.77 a 1.58,1.57 -13.6 0 1 0.86,-1.4 q 13.39,-6.86 28.17,-9.61 a 0.48,0.47 79.9 0 1 0.55,0.39 q 0.02,0.19 -0.16,0.38 c -9.79,10.26 -9.87,23.65 -9.99,37.48 a 0.86,0.86 0 0 0 1.21,0.79 l 1.72,-0.76 a 0.43,0.43 0 0 1 0.61,0.41 c -0.16,6.87 -0.34,13.72 6.71,17.4 4.53,2.37 12.61,3.09 17.42,0.07 q 11.58,-7.27 13.59,-21.55 2.14,-15.15 1.22,-23.03 c -1.15,-9.88 -7.14,-13.4 -15.6,-16.62 q -1.24,-0.47 -0.07,-1.1 2.49,-1.31 2.81,-4.04 A 0.71,0.71 0 0 0 340.32,137 c -15.3,1.01 -36.87,5.93 -47.69,17.73 q -0.64,0.71 -0.64,-0.25 l 0.02,-3.72 q 0,-1.06 -0.9,-0.5 c -8.26,5.14 -10.17,10.14 -8.85,19.78 q 0.26,1.91 -1.61,2.35 l -7.03,1.69 a 0.49,0.48 -6.6 0 1 -0.6,-0.47 l -0.06,-28.23 q 0,-1.1 -0.91,-0.47 l -5.7,3.91 q -0.09,0.06 -0.02,-0.03 c 1.07,-1.43 3.4,-3.23 3.6,-5.04 a 0.42,0.42 0 0 0 -0.46,-0.47 c -9.7,0.85 -19.07,6.48 -30.22,7.01 l -0.27,-0.04 a 0.25,0.24 84 0 1 -0.2,-0.17 q -0.34,-0.92 0.49,-1.14 c 4.92,-1.27 3.59,-4.92 2.58,-8.45 a 0.99,0.98 -34.5 0 1 0.17,-0.88 c 4.67,-6.01 11.28,-10.31 16.93,-17.15 a 1.29,1.28 -25.8 0 0 0.3,-0.85 L 259.24,120 a 1.12,1.1 69.4 0 1 0.37,-0.83 q 4.89,-4.34 7.9,-10.05 7.14,11.69 20.49,4.88 3.4,-1.73 11.45,-9.95 0.55,-0.57 0.55,0.22 v 10.36 q 0,2.17 0.38,4.3 0.62,3.53 2.47,4.26 a 1.04,1.03 -52.2 0 0 1.01,-0.13 q 5.75,-4.34 10.18,-10.03 0.75,-0.96 -0.44,-0.67 l -1.9,0.47 a 0.57,0.57 0 0 1 -0.67,-0.37 c -2.15,-6.22 -1.1,-17.17 -0.99,-23.9 q 0.03,-2.34 2.41,-8.61 0.96,-2.53 1.28,-11.19 0.26,-6.99 -6.23,-10.8 2.18,-4.59 1.72,-9.77 a 0.53,0.52 -7.6 0 1 0.44,-0.57 c 8.93,-1.63 10.87,-12.73 12.5,-20.4 a 1.44,1.43 76 0 1 0.48,-0.81 q 6.31,-5.32 10.01,-12.67 C 334.94,9.19 340,5.19 343.18,1.01 a 0.44,0.44 0 0 0 -0.2,-0.67 z m -13.57,68.17 q 8.32,-2.14 17,-2.19 2.56,-0.01 1.71,2.4 c -5.34,15.13 -10.48,27.52 -9.04,44.7 q 0.2,2.41 3.23,2.87 a 1.31,1.3 31.5 0 0 0.98,-0.23 q 4.59,-3.31 8.21,-7.64 a 1.24,1.18 25.8 0 0 -0.73,-1.94 c -0.99,-0.23 -1.83,-1.59 -1.92,-2.73 -1.08,-13.79 2.56,-25.84 7.75,-38.98 q 1.56,-3.96 1.19,-7.83 a 0.58,0.57 87.7 0 0 -0.56,-0.52 c -7.8,-0.16 -17.96,1.19 -24.49,3.54 -5.74,2.06 -17.26,8.76 -14.16,16.65 q 1.74,4.43 3.31,8.27 1.1,2.69 0.97,5.59 l -1.08,23.55 q -0.06,1.42 1.19,0.74 c 5.01,-2.74 10.19,-7.94 10.01,-14.17 Q 331.6,85.02 333.98,70 q 0.14,-0.88 -0.53,-1.46 a 0.75,0.74 -38.6 0 0 -0.85,-0.09 c -1.19,0.65 -3.39,2.3 -4.38,0.3 a 0.41,0.41 0 0 1 0.27,-0.58 z m 55.58,94.82 q -0.65,-0.01 -0.18,-0.46 c 3.94,-3.82 10.26,-11.26 8.6,-17.04 q -1.17,-4.06 -5.14,-3.69 c -11.57,1.1 -22.86,2.47 -28.91,13.75 q -0.4,0.74 0.38,0.42 l 2.4,-0.99 q 1.89,-0.78 1.61,1.25 -2.18,16 -1.71,32.15 0.06,1.92 -1.22,3.36 c -1.12,1.27 -2.78,2.28 -3.37,4.09 -3.02,9.23 0.95,14.75 10.36,15.06 q 23.25,0.77 34.86,-18.76 c 3.52,-5.94 3.59,-21.34 -0.75,-26.87 q -1.76,-2.23 -4.61,-2.24 z m -75.55,-2.79 c -3.21,1.2 -8.4,6.35 -8.45,9.86 q -0.26,20.02 0.13,40.09 0.07,3.12 2.71,1.46 4.02,-2.54 6.88,-6.27 a 3.9,3.86 -30.1 0 0 0.77,-2.82 c -0.78,-6.26 -0.43,-13.65 -0.59,-18.44 q -0.36,-10.79 0.22,-22.66 a 1.24,1.23 81 0 0 -1.67,-1.22 z"
         inkscape:connector-curvature="0"
         style="fill:#ffffff" />
      <path
         id="path33384"
         d="m 43.76,38.07 c -1.21,0.75 -5.77,5.61 -6.75,5.23 A 1.28,1.28 0 0 1 36.4,41.39 q 3.43,-5.18 8.2,-9.26 a 4.04,4.03 -14.4 0 0 1.34,-2.26 c 1.73,-8.4 2.93,-13.8 11.2,-17.69 q 0.94,-0.44 0.7,0.57 l -2.57,10.76 q -0.12,0.5 0.34,0.26 c 3.63,-1.93 23.05,-11.05 26.07,-9.59 a 0.98,0.98 0 0 1 0.43,1.35 q -3.75,6.86 -10.27,11.22 -1.07,0.72 -0.7,-0.52 l 0.51,-1.71 a 0.44,0.44 0 0 0 -0.3,-0.54 c -1.73,-0.47 -14.49,5.05 -16.89,6.09 a 1.22,1.2 83.2 0 0 -0.71,0.91 q -4.51,26.71 -3.64,53.77 0.42,13.07 4.73,22.39 a 1.57,1.57 0 0 0 0.73,0.76 l 0.81,0.42 a 0.76,0.76 0 0 1 0.32,1.05 q -3.36,5.97 -9.33,9.35 a 0.61,0.61 0 0 1 -0.82,-0.2 q -5.18,-7.98 -5.93,-17.34 -2.52,-31.69 3.47,-62.88 0.1,-0.5 -0.33,-0.23 z"
         inkscape:connector-curvature="0"
         style="fill:#060606" />
      <path
         id="path33386"
         d="m 109.6,81.06 q 7.22,-0.18 14.17,-2.27 a 1.77,1.77 0 0 0 1.26,-1.58 q 0.54,-9.25 1.2,-18.53 c 0.3,-4.32 4.8,-8.35 8.21,-10.2 a 1.08,1.08 0 0 1 1.6,0.96 q -0.17,12.61 -1.96,25.12 a 0.7,0.7 0 0 0 0.95,0.76 l 8.23,-3.2 q 1.1,-0.43 0.45,0.56 -3.87,5.9 -10.05,9.43 a 1.29,1.27 75.8 0 0 -0.65,1.1 l -0.3,28.77 a 1.45,1.44 64.9 0 1 -0.33,0.92 c -1.31,1.62 -6.3,7.39 -8.04,7.86 q -2.12,0.58 -2.04,-1.61 l 1.3,-32.9 a 0.3,0.3 0 0 0 -0.4,-0.29 q -7.11,2.59 -14.5,4.12 a 0.95,0.95 0 0 0 -0.6,1.45 l 0.55,0.84 a 1.15,1.14 -53.4 0 1 0.14,0.97 q -2.5,8.34 -1.2,17.01 a 1.38,1.37 56.3 0 1 -0.18,0.93 q -2.97,4.99 -8.15,7.62 -2.47,1.26 -2.33,-1.51 l 0.74,-14.83 a 0.53,0.53 0 0 0 -0.6,-0.55 l -6.33,0.78 a 0.89,0.89 0 0 0 -0.78,0.93 c 0.15,3.16 0.6,6.92 -1.44,9.57 q -3.04,3.94 -7.27,6.45 a 0.55,0.54 -17.6 0 1 -0.82,-0.42 l -1.16,-13.44 a 1.31,1.3 79.7 0 0 -1.65,-1.15 l -8.1,2.26 a 2.32,2.32 0 0 0 -1.69,2.08 c -0.39,6 -0.19,16.01 8.92,14.82 q 0.49,-0.06 0.18,0.33 -3.28,4.22 -7.36,7.58 c -7.34,6.02 -11.45,-1.98 -11.54,-8.36 q -0.16,-10.9 0.01,-14.17 c 1.11,-21.62 14.31,-40.25 32.68,-50.94 0.61,-0.36 2.12,-0.46 2.66,-0.17 a 0.48,0.48 0 0 1 0.13,0.74 l -4.33,4.93 q -1.29,1.46 -1.29,3.41 -0.05,13.18 1.05,26.32 a 0.56,0.56 0 0 0 0.63,0.51 l 8.51,-1.01 a 0.74,0.73 89.6 0 0 0.64,-0.66 q 1.47,-14.37 2.53,-28.69 c 0.34,-4.64 5,-8.44 8.78,-10.48 a 0.41,0.4 68.8 0 1 0.58,0.26 q 0.67,2.63 0.29,6.08 -0.44,3.97 -1.8,20.96 a 0.49,0.49 0 0 0 0.5,0.53 z M 76.86,73.45 q -7.78,11.91 -8.77,26.18 a 1.02,1.01 -9.5 0 0 1.41,1 l 8.26,-3.48 A 0.69,0.68 -11.9 0 0 78.19,96.5 L 77.84,73.73 q -0.03,-1.74 -0.98,-0.28 z"
         inkscape:connector-curvature="0"
         style="fill:#060606" />
      <path
         id="path33388"
         d="m 222.96,83.5 q -1.44,14.23 -0.94,22.76 0.22,3.82 4.15,6.32 a 0.51,0.51 0 0 1 0.08,0.8 l -8.41,8.17 a 2.03,2.03 0 0 1 -2.56,0.21 c -5.1,-3.54 -3.28,-17.42 -3.07,-23.01 l 1.31,-21.77 q 0.03,-0.52 -0.29,-0.11 -7.12,9.25 -13.28,19.07 c -3.35,5.35 -2.75,10.44 1.23,15.17 l -2.93,3.35 -6.05,5.51 a 1.34,1.34 0 0 1 -2.13,-0.46 l -2.17,-5.07 a 0.41,0.41 0 0 0 -0.61,-0.18 c -4.07,2.73 -3.38,5.82 -3.25,10.12 a 1.86,1.82 -30.4 0 1 -0.28,1.04 q -4.01,6.49 -10.69,10.33 -2.07,1.2 -2.09,-1.2 -0.07,-7.09 0.66,-14.51 c 0.46,-4.65 -1.6,-7.76 -5.66,-9.59 a 0.6,0.59 -60.8 0 0 -0.73,0.21 c -5.51,8.42 -16.41,19.9 -27.07,20.63 a 1.81,1.8 -7.4 0 1 -1.9,-1.46 c -1.82,-9.37 3.39,-12.09 8.46,-18.17 a 1.41,1.39 -25.6 0 0 0.32,-0.89 q -0.22,-18.55 0.1,-37.06 c 0.05,-3.36 1.8,-5.33 3.94,-7.57 A 0.23,0.23 0 0 0 149,65.76 l -0.92,-0.26 a 0.61,0.6 -66.6 0 1 -0.35,-0.9 q 3.39,-5.52 9.21,-8.4 c 6.25,-3.08 14.83,-7.8 21.89,-7.17 a 2.17,2.16 -2.6 0 1 1.93,1.75 c 3.29,17.25 -3.49,34.39 -9.58,48.73 a 0.45,0.45 0 0 0 0.3,0.61 l 6.32,1.56 a 0.68,0.68 0 0 0 0.82,-0.46 l 4.41,-14.26 q 0.14,-0.44 0.47,-0.78 l 4.21,-4.39 a 1.41,1.41 0 0 0 0.39,-1 c -0.07,-4.82 -1.14,-11.88 1.66,-15.72 q 2.89,-3.97 7.43,-6.05 a 0.58,0.57 -12.1 0 1 0.81,0.52 v 30.97 q 0,1.08 0.63,0.2 c 4.97,-7.01 10.82,-13.56 15.15,-20.94 q 3.31,-5.64 8.98,-8.7 1.44,-0.78 1.35,0.85 z m -53.5,-24.58 q -7.67,0.12 -14.04,4.42 a 1.01,1 -17.6 0 0 -0.43,0.82 c 0,12.86 -0.55,26.01 0.53,38.8 a 0.69,0.69 0 0 0 0.92,0.59 l 6.97,-2.51 a 1.32,1.31 1 0 0 0.78,-0.75 c 5.88,-14.45 8.84,-26.34 6.55,-40.29 a 1.29,1.27 84.8 0 0 -1.28,-1.08 z m 17.94,36.7 c -1.67,4.43 -5.15,12.64 -4.26,16.95 q 0.1,0.51 0.48,0.15 c 4.98,-4.79 4.92,-11.02 4.16,-17.06 q -0.1,-0.78 -0.38,-0.04 z m -31.07,20.71 -5.2,4.5 q -0.41,0.36 0.09,0.14 3.83,-1.72 5.48,-4.32 0.88,-1.4 -0.37,-0.32 z m -9.14,5.66 q 0.98,1.4 0.84,-0.3 -0.2,-2.44 -1.41,-4.58 -0.47,-0.84 -0.59,0.12 -0.32,2.64 1.16,4.76 z"
         inkscape:connector-curvature="0"
         style="fill:#060606" />
      <path
         id="path33390"
         d="m 307.5,57.96 q 6.49,3.81 6.23,10.8 -0.32,8.66 -1.28,11.19 -2.38,6.27 -2.41,8.61 c -0.11,6.73 -1.16,17.68 0.99,23.9 a 0.57,0.57 0 0 0 0.67,0.37 l 1.9,-0.47 q 1.19,-0.29 0.44,0.67 -4.43,5.69 -10.18,10.03 a 1.04,1.03 -52.2 0 1 -1.01,0.13 Q 301,122.46 300.38,118.93 300,116.8 300,114.63 v -10.36 q 0,-0.79 -0.55,-0.22 -8.05,8.22 -11.45,9.95 -13.35,6.81 -20.49,-4.88 l -2.78,-2.33 A 0.63,0.61 -40.3 0 0 264,106.74 c -7.43,4.69 -13.26,6.6 -21.9,4.59 a 1.07,1.05 -58.9 0 0 -0.96,0.25 q -1.41,1.29 -3.42,1.33 -2.24,0.04 -2.61,-2.17 c -0.79,-4.77 -1.01,-8.5 -0.56,-13.63 q 1.34,-15.31 1.43,-31.05 2.95,-5.68 8.75,-8.86 a 0.82,0.82 0 0 1 1.21,0.64 l 0.22,2.56 -0.15,10.74 q -0.02,1.61 0.94,0.31 c 3.07,-4.15 16.3,-18.64 21.49,-17.41 a 0.78,0.78 0 0 1 0.45,1.21 q -3.98,5.55 -9.84,8.59 c -10.72,5.56 -15.48,22.17 -14.22,32.85 q 0.36,3.07 3.33,3.93 6.93,2.01 14.26,1.25 a 0.49,0.49 0 0 0 0.44,-0.53 c -1.34,-16.18 6.5,-31.11 18.78,-41.16 7.2,-5.89 17.71,-5.54 25.86,-2.22 z m -27.71,37.29 q -0.34,2.51 0.34,5.03 a 1.14,1.12 6.4 0 0 0.58,0.71 c 5.96,2.92 9.38,0.63 14.65,-2.2 a 0.27,0.27 0 0 1 0.31,0.04 c 0.88,0.84 -4.98,6.58 -5.77,7.24 q -0.39,0.32 0.12,0.34 c 4.69,0.11 7.39,-4.8 8.87,-8.73 2.69,-7.17 -1.43,-18.31 3.6,-23.82 a 0.77,0.77 0 0 0 0.14,-0.83 q -1.09,-2.48 -3.29,-4.32 -9.2,-4.6 -19.31,-2.4 a 1.29,1.27 -79.4 0 0 -0.81,0.56 q -6.43,9.96 -6.35,21.84 0,0.67 0.35,0.11 c 3.91,-6.26 6.49,-10.56 12.63,-13.54 a 0.96,0.95 73.8 0 1 1.37,0.76 c 0.73,6.53 -7.49,11.34 -7.43,19.21 z"
         inkscape:connector-curvature="0"
         style="fill:#060606" />
      <path
         id="path33392"
         d="m 328.22,68.75 c 0.99,2 3.19,0.35 4.38,-0.3 a 0.75,0.74 -38.6 0 1 0.85,0.09 q 0.67,0.58 0.53,1.46 -2.38,15.02 -1.92,30.25 c 0.18,6.23 -5,11.43 -10.01,14.17 q -1.25,0.68 -1.19,-0.74 l 1.08,-23.55 q 0.13,-2.9 -0.97,-5.59 -1.57,-3.84 -3.31,-8.27 c -3.1,-7.89 8.42,-14.59 14.16,-16.65 6.53,-2.35 16.69,-3.7 24.49,-3.54 a 0.58,0.57 87.7 0 1 0.56,0.52 q 0.37,3.87 -1.19,7.83 c -5.19,13.14 -8.83,25.19 -7.75,38.98 0.09,1.14 0.93,2.5 1.92,2.73 a 1.24,1.18 25.8 0 1 0.73,1.94 q -3.62,4.33 -8.21,7.64 a 1.31,1.3 31.5 0 1 -0.98,0.23 q -3.03,-0.46 -3.23,-2.87 c -1.44,-17.18 3.7,-29.57 9.04,-44.7 q 0.85,-2.41 -1.71,-2.4 -8.68,0.05 -17,2.19 a 0.41,0.41 0 0 0 -0.27,0.58 z"
         inkscape:connector-curvature="0"
         style="fill:#060606" />
      <path
         id="path33394"
         d="m 169.46,58.92 a 1.29,1.27 84.8 0 1 1.28,1.08 c 2.29,13.95 -0.67,25.84 -6.55,40.29 a 1.32,1.31 1 0 1 -0.78,0.75 l -6.97,2.51 a 0.69,0.69 0 0 1 -0.92,-0.59 c -1.08,-12.79 -0.53,-25.94 -0.53,-38.8 a 1.01,1 -17.6 0 1 0.43,-0.82 q 6.37,-4.3 14.04,-4.42 z"
         inkscape:connector-curvature="0"
         style="fill:#ffffff" />
      <path
         id="path33396"
         d="m 299.34,68.71 q -2.39,1.08 -3.69,3.13 a 0.68,0.66 -50 0 0 0.06,0.8 c 1.94,2.12 -0.82,4.01 -2.6,4.57 a 1.72,1.65 -78.2 0 0 -0.79,0.54 q -4.57,5.68 -4.63,12.94 a 1.99,1.98 86.3 0 1 -1.72,1.96 q -3.14,0.43 -6.18,2.6 c -0.06,-7.87 8.16,-12.68 7.43,-19.21 a 0.96,0.95 73.8 0 0 -1.37,-0.76 c -6.14,2.98 -8.72,7.28 -12.63,13.54 q -0.35,0.56 -0.35,-0.11 -0.08,-11.88 6.35,-21.84 a 1.29,1.27 -79.4 0 1 0.81,-0.56 q 10.11,-2.2 19.31,2.4 z"
         inkscape:connector-curvature="0"
         style="fill:#e5e5e5" />
      <path
         id="path33398"
         d="m 235.98,66.06 q -0.09,15.74 -1.43,31.05 c -0.45,5.13 -0.23,8.86 0.56,13.63 q 0.37,2.21 2.61,2.17 2.01,-0.04 3.42,-1.33 a 1.07,1.05 -58.9 0 1 0.96,-0.25 c 8.64,2.01 14.47,0.1 21.9,-4.59 a 0.63,0.61 -40.3 0 1 0.73,0.05 l 2.78,2.33 q -3.01,5.71 -7.9,10.05 a 1.12,1.1 69.4 0 0 -0.37,0.83 l 0.01,1.61 a 1.29,1.28 -25.8 0 1 -0.3,0.85 c -5.65,6.84 -12.26,11.14 -16.93,17.15 a 0.99,0.98 -34.5 0 0 -0.17,0.88 c 1.01,3.53 2.34,7.18 -2.58,8.45 q -0.83,0.22 -0.49,1.14 a 0.25,0.24 84 0 0 0.2,0.17 l 0.27,0.04 -4.5,0.66 a 0.59,0.59 0 0 1 -0.66,-0.42 c -1.63,-5.83 -2.63,-12.31 -9.84,-12.86 -3.55,-0.26 -12.4,1.28 -15.73,3.36 q -3.98,2.49 -10,10.39 -0.62,0.81 -0.57,-0.2 l 0.33,-8.36 q 0.08,-1.86 -1.56,-0.96 -4.91,2.7 -7.83,7.51 -1.07,1.78 -0.97,3.85 1.04,22.48 -7.11,43.41 -1.17,3.01 -3.8,1.13 c -5.39,-3.88 -4.96,-8.59 -2.2,-14.19 q 4.35,-8.8 4.76,-18.59 0.08,-2.08 -1.74,-1.06 c -11.2,6.27 -14.94,18.04 -14.79,30.21 a 0.91,0.91 0 0 1 -0.89,0.93 c -4.02,0.06 -17.42,1.43 -13.69,-6.87 q 5.25,-11.66 13.32,-23.96 1.29,-1.98 1.97,-4.23 c 4.7,1.87 5.64,-3.55 8.1,-5.73 q 1.64,-1.45 3.79,-2.2 a 1.17,1.16 -22.9 0 0 0.66,-1.61 c -0.93,-1.88 -0.05,-2.68 1.67,-3.37 q 3.3,-1.32 3.48,-4.91 c 0.21,-3.98 2.15,-6.43 5.49,-8.46 a 1.93,1.88 89.2 0 0 0.7,-0.74 q 1.7,-3.19 4.95,-4.77 a 1.99,1.98 2.8 0 0 0.81,-0.73 q 3.15,-4.97 7.15,-9.27 a 0.69,0.69 0 0 0 0.04,-0.9 l -2.34,-2.89 2.93,-3.35 q 2.96,-3.1 4.15,-7.25 a 1.64,1.61 -11.9 0 1 0.53,-0.8 l 4.99,-4.01 a 1.36,1.34 25.2 0 1 0.85,-0.3 h 0.51 c -0.21,5.59 -2.03,19.47 3.07,23.01 a 2.03,2.03 0 0 0 2.56,-0.21 l 8.41,-8.17 a 0.51,0.51 0 0 0 -0.08,-0.8 q -3.93,-2.5 -4.15,-6.32 -0.5,-8.53 0.94,-22.76 l 0.06,1.27 a 0.52,0.52 0 0 0 0.58,0.49 c 1.14,-0.11 5.85,-8.86 6.2,-10.37 q 1.31,-5.71 6.18,-8.83 z"
         inkscape:connector-curvature="0"
         style="fill:#e5e5e5" />
      <path
         id="path33400"
         d="m 299.34,68.71 q 2.2,1.84 3.29,4.32 a 0.77,0.77 0 0 1 -0.14,0.83 c -5.03,5.51 -0.91,16.65 -3.6,23.82 -1.48,3.93 -4.18,8.84 -8.87,8.73 q -0.51,-0.02 -0.12,-0.34 c 0.79,-0.66 6.65,-6.4 5.77,-7.24 a 0.27,0.27 0 0 0 -0.31,-0.04 c -5.27,2.83 -8.69,5.12 -14.65,2.2 a 1.14,1.12 6.4 0 1 -0.58,-0.71 q -0.68,-2.52 -0.34,-5.03 3.04,-2.17 6.18,-2.6 a 1.99,1.98 86.3 0 0 1.72,-1.96 q 0.06,-7.26 4.63,-12.94 a 1.72,1.65 -78.2 0 1 0.79,-0.54 c 1.78,-0.56 4.54,-2.45 2.6,-4.57 a 0.68,0.66 -50 0 1 -0.06,-0.8 q 1.3,-2.05 3.69,-3.13 z"
         inkscape:connector-curvature="0"
         style="fill:#ffffff" />
      <path
         id="path33402"
         d="m 77.84,73.73 0.35,22.77 a 0.69,0.68 -11.9 0 1 -0.43,0.65 l -8.26,3.48 a 1.02,1.01 -9.5 0 1 -1.41,-1 q 0.99,-14.27 8.77,-26.18 0.95,-1.46 0.98,0.28 z"
         inkscape:connector-curvature="0"
         style="fill:#ffffff" />
      <path
         id="path33404"
         d="m 212.21,98.75 h -0.51 a 1.36,1.34 25.2 0 0 -0.85,0.3 l -4.99,4.01 a 1.64,1.61 -11.9 0 0 -0.53,0.8 q -1.19,4.15 -4.15,7.25 c -3.98,-4.73 -4.58,-9.82 -1.23,-15.17 q 6.16,-9.82 13.28,-19.07 0.32,-0.41 0.29,0.11 z"
         inkscape:connector-curvature="0"
         style="fill:#ffffff" />
      <path
         id="path33406"
         d="m 187.4,95.62 q 0.28,-0.74 0.38,0.04 c 0.76,6.04 0.82,12.27 -4.16,17.06 q -0.38,0.36 -0.48,-0.15 c -0.89,-4.31 2.59,-12.52 4.26,-16.95 z"
         inkscape:connector-curvature="0"
         style="fill:#ffffff" />
      <path
         id="path33408"
         d="m 156.33,116.33 q 1.25,-1.08 0.37,0.32 -1.65,2.6 -5.48,4.32 -0.5,0.22 -0.09,-0.14 z"
         inkscape:connector-curvature="0"
         style="fill:#ffffff" />
      <path
         id="path33410"
         d="m 147.19,121.99 q -1.48,-2.12 -1.16,-4.76 0.12,-0.96 0.59,-0.12 1.21,2.14 1.41,4.58 0.14,1.7 -0.84,0.3 z"
         inkscape:connector-curvature="0"
         style="fill:#ffffff" />
      <path
         id="path33412"
         d="m 153.25,251.21 c -4.37,-2.14 -20.07,-9.68 -13,-16.98 q 3.41,-3.52 7.07,-5.91 a 0.44,0.44 0 0 1 0.64,0.19 c 3.31,7.29 9.17,10.82 16.47,13.44 q 7.7,2.84 14.76,2.04 2.05,-0.23 2.44,-2.26 2.14,-11.16 3.12,-22.19 l 2.13,-23.82 q 0.12,-1.26 -0.61,-0.23 c -2.95,4.16 -10.05,12.6 -15.63,12.58 -5.64,-0.02 -5.99,-3.74 -8.12,-7.73 a 0.35,0.35 0 0 0 -0.57,-0.07 q -4.62,5.29 -11.63,4.76 a 1.27,1.24 -62.9 0 0 -0.92,0.31 l -3.83,3.39 q -2.25,1.99 -4.79,0.38 c -6.1,-3.85 -3.56,-24.59 -2.65,-30.96 a 0.99,0.99 0 0 0 -1.21,-1.11 l -5.82,1.41 a 1.43,1.41 83.5 0 0 -1.08,1.37 c -0.06,8.43 -1.06,19.21 0.69,27.32 a 1.03,1.01 -28.6 0 1 -0.29,0.95 l -7.4,7.08 a 1.79,1.79 0 0 1 -2.5,-0.02 q -0.7,-0.7 -1.18,-2.78 l 1.27,-29.78 a 0.46,0.45 -5.7 0 0 -0.57,-0.46 l -7.38,1.86 a 0.68,0.67 84.8 0 0 -0.51,0.62 l -0.99,20.64 a 2.61,2.58 -21.9 0 1 -0.72,1.66 c -1.56,1.6 -6.13,6.94 -8.13,7.2 a 1.07,1.07 0 0 1 -1.21,-1.12 l 1.13,-20.72 q 0.14,-2.52 -0.92,-0.23 -6.75,14.68 -19.45,24.34 -2.58,1.96 -4.69,2.46 c -10.34,2.45 -11.28,-6.83 -11.34,-14.6 q 0,-0.49 -0.36,-0.15 -5.67,5.46 -12.12,9.77 c -4.27,2.85 -6.64,7.23 -11.35,10.11 q -0.84,0.52 -0.87,-0.47 l -0.19,-8.41 a 1.34,1.3 -67 0 0 -0.33,-0.85 c -1.56,-1.74 -3.12,-3.33 -3.52,-5.7 q -1.23,-7.15 3.6,-12.75 A 1.3,1.28 65.7 0 0 41,194.95 v -37.24 q 0,-2.54 1.56,-4.53 3.19,-4.09 7.69,-6.62 a 0.42,0.42 0 0 1 0.62,0.35 q 0.4,16.21 -0.3,32.32 -0.06,1.53 0.06,1.77 a 1.07,1.07 0 0 0 1.81,0.12 c 3.23,-4.44 28.07,-39.41 31.8,-38.08 a 0.95,0.95 0 0 1 0.41,1.52 C 73.01,158.1 63.02,172.95 51.63,186.75 a 2.92,2.89 65.2 0 0 -0.66,1.82 l -0.14,14.99 a 1.96,1.95 -78.2 0 0 1.18,1.81 c 9.26,3.99 14.15,-7.84 15.51,-14.61 2.63,-13.13 5.54,-24.72 16.17,-33.82 6.25,-5.35 18.15,-6.2 24.2,-0.32 a 0.69,0.68 52.5 0 0 0.79,0.11 l 3.01,-1.6 a 0.97,0.97 0 0 1 1.42,0.89 l -0.58,20.27 a 0.28,0.28 0 0 0 0.35,0.28 l 8.35,-2.35 a 0.87,0.86 -1.3 0 0 0.6,-0.62 q 0.85,-3.29 1.17,-8.1 c 0.33,-4.95 5.69,-9.07 9.83,-11.07 q 0.7,-0.34 0.6,0.43 l -2.08,15.7 a 0.43,0.43 0 0 0 0.57,0.47 l 5.52,-1.88 a 0.87,0.85 86.1 0 0 0.57,-0.67 c 0.4,-2.33 -0.08,-4.88 0.75,-6.93 q 2.53,-6.28 8.93,-9.07 a 0.23,0.23 0 0 1 0.32,0.2 q 0.36,12.94 -0.78,25.8 -0.09,0.98 0.46,0.16 c 3.37,-5.04 9.52,-17.79 16.06,-18.6 q -0.68,2.25 -1.97,4.23 -8.07,12.3 -13.32,23.96 c -3.73,8.3 9.67,6.93 13.69,6.87 a 0.91,0.91 0 0 0 0.89,-0.93 c -0.15,-12.17 3.59,-23.94 14.79,-30.21 q 1.82,-1.02 1.74,1.06 -0.41,9.79 -4.76,18.59 c -2.76,5.6 -3.19,10.31 2.2,14.19 q 2.63,1.88 3.8,-1.13 8.15,-20.93 7.11,-43.41 -0.1,-2.07 0.97,-3.85 2.92,-4.81 7.83,-7.51 1.64,-0.9 1.56,0.96 l -0.33,8.36 q -0.05,1.01 0.57,0.2 6.02,-7.9 10,-10.39 c 3.33,-2.08 12.18,-3.62 15.73,-3.36 7.21,0.55 8.21,7.03 9.84,12.86 a 0.59,0.59 0 0 0 0.66,0.42 l 4.5,-0.66 c 11.15,-0.53 20.52,-6.16 30.22,-7.01 a 0.42,0.42 0 0 1 0.46,0.47 c -0.2,1.81 -2.53,3.61 -3.6,5.04 q -0.07,0.09 0.02,0.03 l 5.7,-3.91 q 0.91,-0.63 0.91,0.47 l 0.06,28.23 a 0.49,0.48 -6.6 0 0 0.6,0.47 l 7.03,-1.69 q 1.87,-0.44 1.61,-2.35 c -1.32,-9.64 0.59,-14.64 8.85,-19.78 q 0.9,-0.56 0.9,0.5 l -0.02,3.72 q 0,0.96 0.64,0.25 c 10.82,-11.8 32.39,-16.72 47.69,-17.73 a 0.71,0.71 0 0 1 0.75,0.79 q -0.32,2.73 -2.81,4.04 -1.17,0.63 0.07,1.1 c 8.46,3.22 14.45,6.74 15.6,16.62 q 0.92,7.88 -1.22,23.03 -2.01,14.28 -13.59,21.55 c -4.81,3.02 -12.89,2.3 -17.42,-0.07 -7.05,-3.68 -6.87,-10.53 -6.71,-17.4 a 0.43,0.43 0 0 0 -0.61,-0.41 l -1.72,0.76 a 0.86,0.86 0 0 1 -1.21,-0.79 c 0.12,-13.83 0.2,-27.22 9.99,-37.48 q 0.18,-0.19 0.16,-0.38 a 0.48,0.47 79.9 0 0 -0.55,-0.39 q -14.78,2.75 -28.17,9.61 a 1.58,1.57 -13.6 0 0 -0.86,1.4 l -0.03,6.77 q 0,1.3 0.77,0.26 2.55,-3.46 6.5,-5.11 a 0.53,0.52 -19.2 0 1 0.71,0.34 c 0.51,1.74 -7,9.37 -8.49,10.86 a 1.37,1.34 70.2 0 0 -0.39,0.85 q -0.98,13.34 -0.75,26.62 c 0.08,5.03 -5.25,9.23 -9.34,11.22 a 0.39,0.39 0 0 1 -0.55,-0.28 q -0.58,-3.16 -0.44,-6.25 0.52,-11.94 1.02,-23.86 a 0.54,0.54 0 0 0 -0.69,-0.54 l -6.68,1.9 a 0.74,0.74 0 0 0 -0.53,0.68 q -0.24,6.09 -0.13,12.05 c 0.11,5.57 -5.09,9.36 -9.27,12.99 q -1.85,1.61 -3.97,1.49 a 0.38,0.38 0 0 1 -0.33,-0.52 c 0.81,-2.01 3.97,-5.1 3.81,-6.87 a 0.73,0.72 71.5 0 0 -1.1,-0.55 c -10.72,6.57 -20.57,8 -32.51,10.61 a 0.51,0.5 -5.5 0 1 -0.61,-0.5 l 0.06,-13.84 a 1.8,1.71 65.1 0 1 0.35,-1.03 q 3.32,-4.35 4.15,-9.74 a 0.31,0.31 0 0 0 -0.41,-0.34 c -1.01,0.33 -2.07,1.1 -2.54,2.14 -3.44,7.67 -11.33,18.84 -19.68,21.61 a 2.02,2.02 0 0 0 -1.38,1.83 l -1.75,39.88 a 2.54,2.52 -21.2 0 1 -0.74,1.66 l -7.28,7.23 q -1.52,1.5 -1.51,-0.63 c 0.09,-16.04 0.94,-32.02 1.82,-48.05 a 1.25,1.2 29.3 0 0 -0.25,-0.82 l -4.34,-5.77 q -0.27,-0.36 -0.3,0.09 -0.96,14.76 -3.06,25.48 -2.77,14.17 -15,20.78 c -7.23,3.92 -16.59,2.55 -23.91,-0.41 z m 69.72,-95.47 c -1.45,-6.31 -4.58,-9.02 -11.31,-7.59 a 0.84,0.83 84.1 0 0 -0.66,0.82 v 15.49 q 0,0.53 0.42,0.22 l 11.25,-8.14 a 0.79,0.78 65.8 0 0 0.3,-0.8 z m 40.03,12.87 0.24,-14.58 a 1.83,1.78 62.7 0 1 0.29,-0.95 l 1.45,-2.26 q 1.07,-1.67 -0.5,-0.46 l -2.37,1.83 q -0.37,0.29 -0.83,0.4 l -13.66,3.39 a 0.73,0.73 0 0 0 -0.56,0.7 q -0.21,9.59 -2.86,18.79 -0.19,0.64 0.42,0.38 8.53,-3.69 17.51,-6.12 a 1.19,1.18 83.2 0 0 0.87,-1.12 z m 60.2681,-11.802 a 2.45,0.51 109.6 0 0 1.3023,-2.1369 2.45,0.51 109.6 0 0 0.3415,-2.4791 2.45,0.51 109.6 0 0 -1.3023,2.1369 2.45,0.51 109.6 0 0 -0.3415,2.4791 z M 200.42,153.39 c -1.15,0.13 -2.18,1.89 -2.18,3 q 0.01,12.21 -1.07,25.04 -0.19,2.18 1.1,0.41 c 1.7,-2.35 2.75,-5.14 2.75,-8.32 q 0,-9.77 -0.08,-19.67 a 0.47,0.46 -3.3 0 0 -0.52,-0.46 z m 130.83,1.12 c -3.97,8.6 -10.01,28.88 -3.71,36.76 2.8,3.5 8.34,5.14 12.73,4.76 a 2.16,2.15 -88 0 0 1.95,-1.82 q 1.6,-10.54 1.79,-21.06 c 0.17,-9.32 -2.9,-15.87 -11.82,-19.03 a 0.76,0.75 22.3 0 0 -0.94,0.39 z m -96.24,5.72 c 0.05,7.09 -0.52,13.07 -1.82,19.77 q -0.38,1.95 0.94,0.47 c 3.25,-3.62 2.91,-15.1 1.8,-20 a 0.56,0.23 82.1 0 0 -0.24,-0.41 l -0.32,-0.1 a 0.28,0.28 0 0 0 -0.36,0.27 z m -23.97,24.27 -0.74,16.01 a 0.56,0.55 5.8 0 0 0.47,0.57 c 4.88,0.79 8.11,0.16 9.7,-4.41 q 5.21,-14.92 3.74,-29.92 l -0.37,-4.41 A 0.41,0.41 0 0 0 223.28,162 q -6.09,2.47 -11.34,6.42 a 2.23,2.23 0 0 0 -0.9,1.79 z M 98.76,170.95 c 0.26,-8.44 -8.57,-8.69 -14.61,-8.74 a 0.97,0.95 17.5 0 0 -0.81,0.41 q -3.36,4.75 -2.4,10.4 a 4.86,4.84 51 0 1 -0.27,2.64 q -3.27,8.27 -3.63,17.33 c -0.32,8.41 6.55,9.34 13.12,8.91 a 0.89,0.86 -77.7 0 0 0.72,-0.48 q 7.37,-14.37 7.88,-30.47 z m 163.85,12 c -0.07,-2.63 0.44,-5.63 0.39,-8.53 q -0.01,-0.86 -0.58,-0.22 c -4.75,5.39 -12.66,6.51 -19.34,8.6 a 1.41,1.4 -4.2 0 0 -0.97,1.11 l -2.79,16.44 a 0.44,0.43 -87.3 0 0 0.45,0.51 q 11.28,-0.75 21.73,-4.98 1.75,-0.7 1.62,-2.58 -0.36,-5.44 -0.51,-10.35 z M 85.0185,209.0975 a 2.8,0.5 133.9 0 0 2.3018,-1.6708 2.8,0.5 133.9 0 0 1.5812,-2.3642 2.8,0.5 133.9 0 0 -2.3018,1.6708 2.8,0.5 133.9 0 0 -1.5812,2.3642 z"
         inkscape:connector-curvature="0"
         style="fill:#060606" />
      <path
         id="path33414"
         d="m 384.07,162.99 12.32,0.03 q 2.85,0.01 4.61,2.24 c 4.34,5.53 4.27,20.93 0.75,26.87 q -11.61,19.53 -34.86,18.76 c -9.41,-0.31 -13.38,-5.83 -10.36,-15.06 0.59,-1.81 2.25,-2.82 3.37,-4.09 q 1.28,-1.44 1.22,-3.36 -0.47,-16.15 1.71,-32.15 0.28,-2.03 -1.61,-1.25 l -2.4,0.99 q -0.78,0.32 -0.38,-0.42 c 6.05,-11.28 17.34,-12.65 28.91,-13.75 q 3.97,-0.37 5.14,3.69 c 1.66,5.78 -4.66,13.22 -8.6,17.04 q -0.47,0.45 0.18,0.46 z m -12,-10.18 -0.99,14.66 q -0.06,0.87 0.55,0.25 c 4.57,-4.68 14.33,-6.1 10.06,-15.21 a 0.89,0.88 77.3 0 0 -0.8,-0.51 h -7.95 a 0.87,0.86 1.7 0 0 -0.87,0.81 z m 4.41,42.09 c -1.33,1.8 -3.66,3.38 -4.77,5.46 a 0.33,0.33 0 0 0 0.26,0.49 c 3.96,0.36 18.75,0.2 21.07,-3.53 2.28,-3.66 0.69,-15.61 0.22,-18.47 q -0.94,-5.86 -6.71,-5.92 -7.29,-0.09 -14.33,0.53 a 1.29,1.29 0 0 0 -1.18,1.27 c -0.09,6.55 -1.99,15.87 5.29,19.54 a 0.43,0.42 -58.8 0 1 0.15,0.63 z"
         inkscape:connector-curvature="0"
         style="fill:#060606" />
      <path
         id="path33416"
         d="m 211.66,148.15 c 6.73,-1.43 9.86,1.28 11.31,7.59 a 0.79,0.78 65.8 0 1 -0.3,0.8 l -11.25,8.14 Q 211,164.99 211,164.46 v -15.49 a 0.84,0.83 84.1 0 1 0.66,-0.82 z"
         inkscape:connector-curvature="0"
         style="fill:#e5e5e5" />
      <path
         id="path33418"
         d="m 263,168.61 a 1.19,1.18 83.2 0 1 -0.87,1.12 q -8.98,2.43 -17.51,6.12 -0.61,0.26 -0.42,-0.38 2.65,-9.2 2.86,-18.79 a 0.73,0.73 0 0 1 0.56,-0.7 l 13.66,-3.39 q 0.46,-0.11 0.83,-0.4 l 2.37,-1.83 q 1.57,-1.21 0.5,0.46 l -1.45,2.26 a 1.83,1.78 62.7 0 0 -0.29,0.95 z"
         inkscape:connector-curvature="0"
         style="fill:#ffffff" />
      <path
         id="path33420"
         d="m 372.07,152.81 a 0.87,0.86 1.7 0 1 0.87,-0.81 h 7.95 a 0.89,0.88 77.3 0 1 0.8,0.51 c 4.27,9.11 -5.49,10.53 -10.06,15.21 q -0.61,0.62 -0.55,-0.25 z"
         inkscape:connector-curvature="0"
         style="fill:#ffffff" />
      <ellipse
         id="ellipse33422"
         ry="0.50999999"
         rx="2.45"
         transform="rotate(109.6,107.55112,191.56017)"
         cy="0"
         cx="0"
         style="fill:#ffffff" />
      <path
         id="path33424"
         d="m 198.24,156.39 c 0,-1.11 1.03,-2.87 2.18,-3 a 0.47,0.46 -3.3 0 1 0.52,0.46 q 0.08,9.9 0.08,19.67 c 0,3.18 -1.05,5.97 -2.75,8.32 q -1.29,1.77 -1.1,-0.41 1.08,-12.83 1.07,-25.04 z"
         inkscape:connector-curvature="0"
         style="fill:#e5e5e5" />
      <path
         id="path33426"
         d="m 331.25,154.51 a 0.76,0.75 22.3 0 1 0.94,-0.39 c 8.92,3.16 11.99,9.71 11.82,19.03 q -0.19,10.52 -1.79,21.06 a 2.16,2.15 -88 0 1 -1.95,1.82 c -4.39,0.38 -9.93,-1.26 -12.73,-4.76 -6.3,-7.88 -0.26,-28.16 3.71,-36.76 z"
         inkscape:connector-curvature="0"
         style="fill:#ffffff" />
      <path
         id="path33428"
         d="m 300.07,170.06 c 0.05,-3.51 5.24,-8.66 8.45,-9.86 a 1.24,1.23 81 0 1 1.67,1.22 q -0.58,11.87 -0.22,22.66 c 0.16,4.79 -0.19,12.18 0.59,18.44 a 3.9,3.86 -30.1 0 1 -0.77,2.82 q -2.86,3.73 -6.88,6.27 -2.64,1.66 -2.71,-1.46 -0.39,-20.07 -0.13,-40.09 z"
         inkscape:connector-curvature="0"
         style="fill:#060606" />
      <path
         id="path33430"
         d="m 233.19,180 c 1.3,-6.7 1.87,-12.68 1.82,-19.77 a 0.28,0.28 0 0 1 0.36,-0.27 l 0.32,0.1 a 0.56,0.23 82.1 0 1 0.24,0.41 c 1.11,4.9 1.45,16.38 -1.8,20 q -1.32,1.48 -0.94,-0.47 z"
         inkscape:connector-curvature="0"
         style="fill:#ffffff" />
      <path
         id="path33432"
         d="m 224.21,166.75 q -1.87,0.58 -3.17,2.07 a 0.74,0.73 52.2 0 0 -0.1,0.81 q 0.54,1.1 -0.47,1.62 -4.48,2.33 -6.17,6.29 c -0.81,1.88 -0.46,4.05 -0.75,6.21 a 0.77,0.76 86.7 0 1 -0.56,0.64 q -0.96,0.27 -1.95,0.11 v -14.29 a 2.23,2.23 0 0 1 0.9,-1.79 q 5.25,-3.95 11.34,-6.42 a 0.41,0.41 0 0 1 0.56,0.34 z"
         inkscape:connector-curvature="0"
         style="fill:#e5e5e5" />
      <path
         id="path33434"
         d="m 84.15,162.21 c 6.04,0.05 14.87,0.3 14.61,8.74 q -0.51,16.1 -7.88,30.47 a 0.89,0.86 -77.7 0 1 -0.72,0.48 c -6.57,0.43 -13.44,-0.5 -13.12,-8.91 q 0.36,-9.06 3.63,-17.33 a 4.86,4.84 51 0 0 0.27,-2.64 q -0.96,-5.65 2.4,-10.4 a 0.97,0.95 17.5 0 1 0.81,-0.41 z"
         inkscape:connector-curvature="0"
         style="fill:#ffffff" />
      <path
         id="path33436"
         d="m 224.21,166.75 q 1.47,15 -3.74,29.92 c -1.59,4.57 -4.82,5.2 -9.7,4.41 a 0.56,0.55 5.8 0 1 -0.47,-0.57 l 0.74,-16.01 q 0.99,0.16 1.95,-0.11 a 0.77,0.76 86.7 0 0 0.56,-0.64 c 0.29,-2.16 -0.06,-4.33 0.75,-6.21 q 1.69,-3.96 6.17,-6.29 1.01,-0.52 0.47,-1.62 a 0.74,0.73 52.2 0 1 0.1,-0.81 q 1.3,-1.49 3.17,-2.07 z"
         inkscape:connector-curvature="0"
         style="fill:#ffffff" />
      <path
         id="path33438"
         d="m 371.71,200.36 c 1.11,-2.08 3.44,-3.66 4.77,-5.46 a 0.43,0.42 -58.8 0 0 -0.15,-0.63 c -7.28,-3.67 -5.38,-12.99 -5.29,-19.54 a 1.29,1.29 0 0 1 1.18,-1.27 q 7.04,-0.62 14.33,-0.53 5.77,0.06 6.71,5.92 c 0.47,2.86 2.06,14.81 -0.22,18.47 -2.32,3.73 -17.11,3.89 -21.07,3.53 a 0.33,0.33 0 0 1 -0.26,-0.49 z"
         inkscape:connector-curvature="0"
         style="fill:#ffffff" />
      <path
         id="path33440"
         d="m 262.61,182.95 q 0.15,4.91 0.51,10.35 0.13,1.88 -1.62,2.58 -10.45,4.23 -21.73,4.98 a 0.44,0.43 -87.3 0 1 -0.45,-0.51 l 2.79,-16.44 a 1.41,1.4 -4.2 0 1 0.97,-1.11 c 6.68,-2.09 14.59,-3.21 19.34,-8.6 q 0.57,-0.64 0.58,0.22 c 0.05,2.9 -0.46,5.9 -0.39,8.53 z"
         inkscape:connector-curvature="0"
         style="fill:#ffffff" />
      <path
         id="path33442"
         d="m 184.75,219.54 c -4.59,-0.58 -10.99,8.51 -12.76,12.02 -2.26,4.48 -4.53,6.89 -7.56,10.39 -7.3,-2.62 -13.16,-6.15 -16.47,-13.44 a 0.44,0.44 0 0 0 -0.64,-0.19 q -3.66,2.39 -7.07,5.91 c -7.07,7.3 8.63,14.84 13,16.98 Q 149.21,256 143,257.14 a 0.75,0.72 -88 0 0 -0.59,0.57 q -1.5,6.99 -6.2,12.31 L 87.44,270 q -4.81,-0.66 -9.63,-1.25 c -3.61,-0.45 -7.19,0.73 -11.14,-0.17 q -1.33,-0.3 0.01,-0.59 l 6.28,-1.35 q 0.48,-0.11 0.9,-0.39 l 5.95,-4.09 a 1.26,1.25 -14.1 0 0 0.53,-0.87 c 0.39,-3.36 1,-5.51 3.72,-7.85 6.46,-5.53 10.63,-10.82 15.58,-16.62 3.74,-4.38 6.6,-9.45 10.16,-13.51 q 4.77,-5.45 9.54,-10.94 0.48,2.08 1.18,2.78 a 1.79,1.79 0 0 0 2.5,0.02 l 7.4,-7.08 a 1.03,1.01 -28.6 0 0 0.29,-0.95 c -1.75,-8.11 -0.75,-18.89 -0.69,-27.32 a 1.43,1.41 83.5 0 1 1.08,-1.37 l 5.82,-1.41 a 0.99,0.99 0 0 1 1.21,1.11 c -0.91,6.37 -3.45,27.11 2.65,30.96 q 2.54,1.61 4.79,-0.38 l 3.83,-3.39 a 1.27,1.24 -62.9 0 1 0.92,-0.31 q 7.01,0.53 11.63,-4.76 a 0.35,0.35 0 0 1 0.57,0.07 c 2.13,3.99 2.48,7.71 8.12,7.73 5.58,0.02 12.68,-8.42 15.63,-12.58 q 0.73,-1.03 0.61,0.23 z"
         inkscape:connector-curvature="0"
         style="fill:#e5e5e5" />
      <ellipse
         id="ellipse33444"
         ry="0.5"
         rx="2.8"
         transform="rotate(133.9,-0.5767979,122.04096)"
         cy="0"
         cx="0"
         style="fill:#ffffff" />
      <path
         id="path33446"
         d="m 184.75,219.54 q -0.98,11.03 -3.12,22.19 -0.39,2.03 -2.44,2.26 -7.06,0.8 -14.76,-2.04 c 3.03,-3.5 5.3,-5.91 7.56,-10.39 1.77,-3.51 8.17,-12.6 12.76,-12.02 z"
         inkscape:connector-curvature="0"
         style="fill:#ffffff" />
    </g>
  </g>
</svg>
