<?xml version="1.0" encoding="UTF-8" standalone="no"?>
<!DOCTYPE svg PUBLIC "-//W3C//DTD SVG 1.1//EN" "http://www.w3.org/Graphics/SVG/1.1/DTD/svg11.dtd">
<svg xmlns="http://www.w3.org/2000/svg" version="1.1" viewBox="0 0 450 204">
<g stroke-width="2.00" fill="none" stroke-linecap="butt">
<path stroke="#ececec" vector-effect="non-scaling-stroke" d="
  M 219.83 -0.01
  Q 223.61 2.84 224.73 7.40
  Q 225.27 9.60 226.24 10.94
  C 232.54 19.64 235.24 27.34 238.35 37.07
  C 239.53 40.76 238.15 47.49 241.75 49.54"
/>
<path stroke="#727272" vector-effect="non-scaling-stroke" d="
  M 241.75 49.54
  L 237.75 51.46"
/>
<path stroke="#ececec" vector-effect="non-scaling-stroke" d="
  M 237.75 51.46
  Q 237.61 49.74 236.46 48.49
  A 0.71 0.70 55.7 0 0 235.62 48.33
  Q 234.05 49.13 233.09 50.64
  Q 232.80 51.08 232.37 51.37
  L 230.29 52.75"
/>
<path stroke="#727272" vector-effect="non-scaling-stroke" d="
  M 230.29 52.75
  Q 229.63 50.39 230.23 47.90
  Q 230.50 46.79 229.51 47.36
  C 226.27 49.23 221.51 53.07 221.38 57.22
  Q 221.14 65.03 221.26 72.89
  A 0.62 0.62 0.0 0 1 220.74 73.51
  L 210.73 75.28
  Q 208.42 75.69 209.44 73.58
  Q 215.14 61.84 222.70 49.60
  C 224.32 46.97 227.10 44.91 228.78 41.86
  A 0.52 0.51 -62.0 0 0 228.57 41.15
  C 226.30 39.98 219.36 48.23 218.05 50.17
  Q 212.53 58.37 207.81 67.15
  Q 207.58 67.57 207.37 67.14
  C 204.35 60.82 198.37 62.21 192.71 62.54
  A 0.35 0.34 -81.1 0 1 192.37 62.07
  Q 195.76 53.32 192.54 44.53
  A 1.10 1.10 0.0 0 0 191.44 43.81
  Q 183.05 44.22 176.45 49.21
  Q 175.86 49.65 176.21 49.01
  C 176.28 48.87 178.18 45.80 178.06 45.39
  A 0.46 0.45 66.1 0 0 177.39 45.13
  Q 174.06 47.11 171.59 50.10
  Q 165.21 57.81 158.78 65.58
  A 0.41 0.41 0.0 0 1 158.10 65.50
  L 151.42 51.77
  A 0.55 0.55 0.0 0 0 150.68 51.52
  Q 145.67 54.08 142.64 58.77
  A 0.80 0.80 0.0 0 0 142.59 59.56
  L 148.85 72.72
  Q 149.89 74.91 148.03 76.45
  Q 136.47 85.99 126.56 94.32
  Q 123.64 96.78 122.07 101.14
  A 1.02 1.01 -52.3 0 0 122.18 102.04
  C 123.66 104.34 129.95 96.52 130.81 95.41
  C 136.03 88.68 144.20 83.02 150.67 77.28
  A 0.48 0.48 0.0 0 1 151.42 77.45
  Q 155.09 85.75 161.75 91.88
  A 1.28 1.26 20.0 0 1 162.16 92.74
  L 162.53 99.58
  Q 162.68 102.35 165.45 102.50
  L 171.48 102.84
  A 0.63 0.63 0.0 0 1 172.07 103.48
  L 171.83 123.40
  A 0.25 0.25 0.0 0 0 172.19 123.62
  Q 176.91 121.12 179.59 116.65
  C 181.64 113.23 180.75 106.46 180.77 102.46
  A 0.75 0.74 82.4 0 1 181.31 101.74
  Q 189.16 99.58 195.78 94.88
  A 0.36 0.36 0.0 0 1 196.34 95.08
  C 198.15 101.62 209.16 97.31 212.04 94.55
  C 212.84 93.78 216.74 89.63 216.51 88.67
  A 0.44 0.44 0.0 0 0 215.91 88.37
  Q 211.54 90.20 206.78 89.30
  A 1.64 1.64 0.0 0 1 205.45 87.58
  L 205.69 84.23
  A 0.83 0.83 0.0 0 1 206.35 83.47
  L 220.76 80.46
  A 0.51 0.50 86.7 0 1 221.37 81.01
  Q 220.44 90.24 224.31 98.57
  A 0.73 0.73 0.0 0 0 225.48 98.79
  L 232.77 91.82
  A 1.08 1.06 -29.9 0 0 233.06 90.78
  L 231.79 86.25"
/>
<path stroke="#ececec" vector-effect="non-scaling-stroke" d="
  M 231.79 86.25
  L 235.12 85.32
  A 1.75 1.74 74.6 0 1 237.28 86.55
  Q 239.28 94.12 242.93 101.02
  A 1.02 1.01 52.9 0 0 244.56 101.25
  C 245.73 100.04 247.55 103.14 248.54 103.61
  Q 249.60 104.11 249.09 103.05
  L 247.96 100.74
  Q 247.79 100.37 247.78 99.96
  Q 247.77 98.32 246.50 97.21"
/>
<path stroke="#727272" vector-effect="non-scaling-stroke" d="
  M 246.50 97.21
  L 249.21 95.25"
/>
<path stroke="#ececec" vector-effect="non-scaling-stroke" d="
  M 249.21 95.25
  C 249.76 97.90 250.64 102.74 253.12 102.22
  A 0.55 0.55 0.0 0 1 253.75 102.57
  C 254.07 103.46 256.35 107.40 254.97 108.21
  A 0.59 0.58 -28.7 0 0 254.74 108.98
  L 255.51 110.48
  A 0.61 0.60 49.3 0 1 255.47 111.09
  C 254.75 112.14 257.84 115.45 256.40 115.94
  A 0.52 0.52 0.0 0 1 255.72 115.53
  Q 255.21 112.32 252.15 111.82
  A 0.49 0.48 13.6 0 1 251.76 111.19
  Q 252.41 109.18 251.45 107.36
  Q 251.02 106.56 250.80 107.44
  L 250.17 110.02
  A 1.04 1.02 -57.9 0 0 250.37 110.93
  Q 253.07 114.24 254.88 118.10
  C 255.76 119.98 257.41 121.06 258.33 123.04
  A 0.86 0.85 79.9 0 0 259.04 123.54
  L 262.25 123.79"
/>
<path stroke="#727272" vector-effect="non-scaling-stroke" d="
  M 262.25 123.79
  L 248.36 126.36
  A 1.28 1.28 0.0 0 1 246.85 124.99
  C 246.94 123.86 248.53 120.97 246.47 120.36
  Q 244.89 119.90 243.31 120.39
  C 232.43 123.77 219.39 128.12 212.63 137.50
  A 0.67 0.66 -66.1 0 0 213.03 138.54
  C 213.92 138.73 222.03 134.18 223.44 133.46
  Q 225.09 132.63 224.16 134.23
  Q 223.31 135.70 222.09 136.85
  A 0.62 0.62 0.0 0 0 222.04 137.70
  L 223.57 139.52
  A 1.22 1.21 -65.5 0 1 223.86 140.31
  Q 223.91 151.41 222.73 162.44
  C 222.09 168.40 222.27 173.93 222.26 179.75
  A 0.38 0.38 0.0 0 0 222.78 180.10
  C 228.28 177.90 230.69 174.18 230.96 168.11
  Q 231.67 152.21 232.16 147.93
  C 232.92 141.37 232.41 136.71 233.67 130.50
  A 1.29 1.28 -11.9 0 1 234.21 129.68
  Q 235.94 128.48 238.03 129.23
  A 0.77 0.76 -60.0 0 1 238.35 130.44
  C 237.47 131.49 233.65 135.33 234.04 136.64
  A 0.59 0.58 71.7 0 0 234.79 137.02
  L 236.41 136.45
  Q 237.16 136.19 236.93 136.95
  Q 231.73 154.48 232.62 172.80
  Q 232.64 173.28 232.45 173.71
  L 230.97 177.19
  A 0.77 0.76 -78.3 0 0 231.67 178.26
  C 240.99 178.25 257.12 176.95 264.68 170.79
  Q 265.16 170.39 265.19 171.01
  L 265.44 175.68
  Q 265.56 178.07 267.29 176.41
  L 274.41 169.54
  A 0.88 0.86 -32.5 0 0 274.62 168.64
  Q 273.52 165.48 274.57 161.79"
/>
<path stroke="#ececec" vector-effect="non-scaling-stroke" d="
  M 274.57 161.79
  Q 282.43 182.34 289.92 203.03
  Q 290.17 203.70 289.44 204.00"
/>
<path stroke="#ececec" vector-effect="non-scaling-stroke" d="
  M 48.69 204.00
  C 46.69 199.43 45.44 194.65 43.41 190.15
  C 40.58 183.89 39.33 177.55 35.53 171.55
  Q 34.94 170.61 34.96 171.72
  L 34.98 172.86
  Q 35.00 173.66 34.34 173.21
  Q 34.17 173.10 34.08 172.93
  A 0.76 0.76 0.0 0 0 33.42 172.55
  L 30.51 172.52
  Q 29.67 172.51 30.21 173.14
  C 33.79 177.32 35.38 180.52 37.25 186.39
  Q 40.11 195.33 46.01 202.78
  C 46.34 203.21 46.34 203.65 45.94 204.00"
/>
<path stroke="#ececec" vector-effect="non-scaling-stroke" d="
  M 35.19 204.00
  L 31.47 198.05
  A 0.85 0.85 0.0 0 1 31.51 197.10
  L 31.71 196.83
  Q 32.22 196.14 31.37 196.12
  Q 30.18 196.08 29.39 196.98
  A 0.52 0.52 0.0 0 0 29.44 197.72
  Q 32.35 200.27 32.94 204.00"
/>
<path stroke="#ececec" vector-effect="non-scaling-stroke" d="
  M 17.69 204.00
  Q 14.89 203.73 13.78 201.72
  Q 10.44 195.71 7.27 191.73
  C 6.38 190.61 2.78 189.24 2.72 188.78
  A 0.60 0.59 -11.2 0 1 3.17 188.12
  Q 3.96 187.92 4.26 187.24
  A 0.61 0.61 0.0 0 0 3.72 186.38
  L 0.88 186.34
  A 0.54 0.53 -0.6 0 1 0.35 185.83
  L 0.00 177.94"
/>
<path stroke="#ececec" vector-effect="non-scaling-stroke" d="
  M 0.00 128.94
  Q -0.01 128.25 0.43 127.78
  A 0.37 0.37 0.0 0 1 1.04 127.87
  Q 4.46 134.98 7.08 142.43
  C 8.43 146.30 14.84 151.09 13.59 155.13
  A 0.78 0.77 -62.0 0 0 13.84 155.97
  Q 17.84 159.16 17.92 164.32
  A 1.17 1.15 18.9 0 0 18.38 165.24
  Q 18.81 165.56 18.76 166.11
  A 0.45 0.45 0.0 0 1 18.20 166.51
  L 17.11 166.23
  Q 16.45 166.06 16.69 166.70
  L 17.43 168.66
  A 0.56 0.56 0.0 0 0 18.07 169.01
  Q 18.74 168.86 19.09 168.25
  A 1.08 1.07 -77.3 0 1 19.92 167.72
  C 20.48 167.67 20.83 168.14 20.96 168.69
  C 21.79 172.27 25.97 177.69 28.37 180.57
  Q 28.70 180.96 28.51 180.49
  Q 25.16 172.50 21.60 164.61
  C 20.69 162.61 20.98 160.67 18.36 159.34
  A 0.44 0.43 -49.3 0 1 18.31 158.60
  L 21.32 156.44
  A 0.81 0.80 56.5 0 0 21.53 155.37
  L 19.58 152.26
  A 0.78 0.77 -29.9 0 0 18.56 151.99
  Q 17.43 152.58 16.87 151.38
  A 1.16 1.16 0.0 0 0 16.18 150.76
  C 13.88 150.01 8.36 136.46 10.67 134.11
  A 0.56 0.56 0.0 0 0 10.58 133.24
  L 10.00 132.85
  A 0.61 0.61 0.0 0 0 9.06 133.27
  L 8.81 134.99
  A 0.24 0.24 0.0 0 1 8.50 135.19
  L 7.91 135.00
  A 0.94 0.94 0.0 0 1 7.30 134.35
  L 6.49 131.29
  A 1.69 1.67 13.5 0 0 5.95 130.42
  C 4.49 129.12 3.25 125.42 0.92 126.17
  A 0.49 0.48 79.9 0 1 0.29 125.73
  L 0.23 124.82
  Q 0.17 123.81 0.89 124.52
  L 1.17 124.79
  A 0.46 0.46 0.0 0 0 1.90 124.68
  L 2.16 124.18
  A 0.59 0.59 0.0 0 0 1.95 123.40
  C -0.88 121.67 0.50 116.30 0.00 112.44"
/>
<path stroke="#ececec" vector-effect="non-scaling-stroke" d="
  M 190.69 6.56
  Q 190.53 8.04 191.64 8.63
  Q 192.49 9.08 192.10 8.21
  L 191.00 5.74
  Q 190.80 5.27 190.54 5.72
  Q 190.32 6.11 190.69 6.56"
/>
<path stroke="#ececec" vector-effect="non-scaling-stroke" d="
  M 213.89 8.88
  Q 214.54 7.86 213.93 6.87
  A 0.88 0.85 68.0 0 0 213.04 6.48
  L 211.17 6.84
  A 0.49 0.49 0.0 0 0 210.82 7.54
  C 211.18 8.25 213.60 13.20 214.22 13.02
  A 0.51 0.50 -16.5 0 0 214.57 12.38
  L 213.76 9.89
  A 1.22 1.19 52.9 0 1 213.89 8.88"
/>
<path stroke="#727272" vector-effect="non-scaling-stroke" d="
  M 82.00 97.31
  Q 81.51 98.29 81.51 97.19
  L 81.50 69.70
  A 0.52 0.51 -88.9 0 1 82.03 69.18
  Q 92.67 69.60 97.40 60.37
  Q 97.77 59.65 96.96 59.76
  L 82.16 61.76
  A 0.37 0.36 88.1 0 1 81.75 61.37
  C 82.85 45.65 85.16 29.52 85.24 13.81
  A 0.34 0.34 0.0 0 0 84.77 13.50
  C 80.24 15.43 77.00 18.56 76.58 23.74
  Q 74.96 43.75 73.30 63.80
  A 0.78 0.77 -5.3 0 1 72.72 64.49
  L 66.00 66.32
  A 0.38 0.38 0.0 0 1 65.52 65.93
  Q 66.69 44.12 66.50 22.28
  A 0.35 0.35 0.0 0 0 66.02 21.96
  C 61.25 23.86 58.04 27.45 57.96 32.82
  Q 57.67 50.57 56.82 68.39
  A 2.12 2.10 -12.9 0 1 55.69 70.17
  Q 51.54 72.36 49.55 76.65
  A 0.40 0.40 0.0 0 0 49.93 77.22
  Q 53.40 77.11 56.43 75.40
  Q 57.05 75.05 56.99 75.76
  Q 55.89 88.93 56.30 102.20
  Q 56.39 105.16 58.50 103.08
  L 65.13 96.51
  A 1.29 1.28 -22.4 0 0 65.52 95.59
  L 65.49 74.20
  A 1.50 1.50 0.0 0 1 66.56 72.76
  L 72.24 71.08
  A 0.39 0.39 0.0 0 1 72.74 71.46
  L 72.76 105.19
  Q 72.76 107.96 75.53 107.80
  Q 77.52 107.68 79.05 106.29
  Q 81.71 103.86 84.14 101.19
  C 88.09 96.86 90.55 90.70 93.26 85.44
  Q 93.51 84.95 93.62 85.49
  L 95.55 94.81
  Q 96.13 97.62 99.00 97.52
  Q 106.75 97.24 115.05 95.67
  C 123.90 94.00 130.19 92.69 134.31 85.24
  Q 135.07 83.86 133.55 84.29
  Q 120.00 88.10 105.93 88.82
  A 0.65 0.64 88.3 0 1 105.25 88.17
  L 105.25 78.05
  A 0.72 0.72 0.0 0 1 105.77 77.36
  Q 112.47 75.44 119.46 75.22
  A 1.33 1.33 0.0 0 0 120.36 74.82
  L 127.32 67.67
  Q 127.84 67.13 127.11 66.98
  C 121.18 65.79 111.22 69.06 105.06 70.31
  A 0.48 0.48 0.0 0 1 104.48 69.84
  L 104.54 60.13
  A 0.77 0.77 0.0 0 1 105.03 59.41
  C 109.78 57.49 120.06 54.16 124.70 55.55
  A 1.00 1.00 0.0 0 0 125.58 55.39
  C 128.20 53.44 132.54 50.20 132.50 47.01
  A 0.49 0.49 0.0 0 0 131.99 46.52
  C 118.53 46.92 105.46 51.87 97.68 63.26
  C 96.24 65.36 95.34 68.34 93.77 70.76
  Q 91.98 73.51 91.25 75.61
  Q 87.31 86.81 82.00 97.31"
/>
<path stroke="#ececec" vector-effect="non-scaling-stroke" d="
  M 222.7597 21.7455
  A 1.48 0.63 55.9 0 0 222.4517 20.1668
  A 1.48 0.63 55.9 0 0 221.1003 19.2945
  A 1.48 0.63 55.9 0 0 221.4083 20.8732
  A 1.48 0.63 55.9 0 0 222.7597 21.7455"
/>
<path stroke="#ececec" vector-effect="non-scaling-stroke" d="
  M 215.25 36.50
  Q 215.13 32.15 212.34 29.57
  Q 212.03 29.28 212.00 29.70
  L 211.98 30.06
  A 1.47 1.47 0.0 0 0 212.22 30.96
  Q 215.62 36.11 215.05 42.07
  C 214.90 43.67 215.48 49.66 217.54 49.52
  A 0.40 0.39 78.4 0 0 217.88 49.00
  Q 215.39 41.36 215.25 36.50"
/>
<path stroke="#727272" vector-effect="non-scaling-stroke" d="
  M 64.64 147.94
  L 65.20 124.96
  Q 65.27 122.26 63.31 124.10
  L 58.13 128.96
  Q 56.01 130.94 56.01 133.85
  L 56.00 157.67
  A 1.59 1.52 -29.1 0 1 55.73 158.54
  C 52.72 162.94 50.38 172.00 54.68 176.34
  C 55.86 177.54 56.06 178.55 56.61 180.02
  A 1.38 1.38 0.0 0 0 58.62 180.74
  C 60.03 179.90 60.74 178.95 62.39 178.55
  C 69.41 176.87 72.12 173.23 77.34 169.23
  A 0.47 0.46 -34.8 0 1 78.01 169.35
  C 80.47 173.17 82.69 177.46 86.30 178.42
  C 95.19 180.78 100.18 176.59 106.70 170.35
  Q 121.11 156.53 119.45 135.26
  Q 118.62 124.56 107.73 124.46
  Q 102.53 124.42 100.32 125.52
  Q 77.39 137.08 76.80 162.58
  C 76.63 169.78 71.24 170.11 65.25 169.31
  A 0.59 0.58 3.9 0 1 64.74 168.73
  L 64.77 153.56
  A 3.04 3.02 66.1 0 1 65.54 151.54
  Q 77.87 137.89 87.77 122.40
  A 0.42 0.42 0.0 0 0 87.51 121.77
  C 85.24 121.28 80.33 127.31 79.00 129.36
  Q 72.61 139.15 65.09 148.10
  Q 64.63 148.66 64.64 147.94"
/>
<path stroke="#ececec" vector-effect="non-scaling-stroke" d="
  M 9.94 122.11
  C 6.06 120.80 5.85 129.82 10.93 132.09
  C 12.39 132.74 12.91 133.42 13.59 134.74
  A 0.86 0.85 -10.4 0 0 14.26 135.20
  L 17.19 135.52
  Q 17.80 135.59 17.50 135.04
  L 10.73 122.77
  A 1.45 1.45 0.0 0 0 9.94 122.11"
/>
<path stroke="#727272" vector-effect="non-scaling-stroke" d="
  M 184.85 149.12
  Q 186.68 137.61 185.95 125.99
  A 1.40 1.39 83.5 0 0 184.34 124.70
  C 176.02 126.04 163.04 129.85 159.39 138.31
  Q 159.02 139.17 159.86 138.77
  L 165.06 136.31
  A 0.25 0.04 -26.8 0 1 165.25 136.25
  L 165.52 136.34
  A 0.12 0.11 -61.0 0 1 165.57 136.53
  Q 162.78 139.75 162.53 141.99
  C 161.15 154.26 159.35 166.44 159.50 178.83
  Q 159.52 180.02 160.52 179.37
  C 163.38 177.51 167.93 174.34 168.07 170.50
  Q 168.72 152.77 171.29 135.17
  A 0.95 0.94 87.4 0 1 172.00 134.38
  L 176.64 133.24
  A 0.55 0.55 0.0 0 1 177.32 133.75
  C 177.71 146.22 175.75 157.26 174.62 169.07
  Q 174.33 172.08 174.48 173.79
  Q 174.70 176.18 176.57 174.69
  Q 182.09 170.30 185.29 163.95
  Q 185.71 163.11 185.70 164.05
  L 185.49 175.34
  A 1.35 1.35 0.0 0 0 187.12 176.69
  C 198.55 174.25 213.31 174.45 220.27 162.90
  Q 220.96 161.75 219.70 162.21
  Q 208.40 166.38 196.37 166.88
  A 0.48 0.48 0.0 0 1 195.86 166.37
  L 196.78 152.08
  A 2.02 2.02 0.0 0 1 198.58 150.19
  L 210.68 148.93
  A 1.73 1.73 0.0 0 0 211.59 148.56
  Q 215.60 145.40 218.43 141.15
  Q 218.98 140.32 217.99 140.36
  Q 207.41 140.72 197.29 143.88
  A 0.42 0.42 0.0 0 1 196.74 143.47
  L 196.78 134.90
  Q 196.79 132.97 198.68 132.55
  Q 205.12 131.12 211.71 131.57
  A 0.79 0.78 83.7 0 1 212.42 132.15
  Q 212.68 133.14 213.57 133.51
  A 0.94 0.94 0.0 0 0 214.53 133.37
  C 217.49 130.90 221.39 127.97 221.29 123.75
  A 0.64 0.63 -86.1 0 0 220.77 123.15
  C 205.70 120.38 190.53 129.66 187.74 144.97
  C 187.37 147.01 186.39 147.78 185.17 149.26
  Q 184.75 149.77 184.85 149.12"
/>
<path stroke="#727272" vector-effect="non-scaling-stroke" d="
  M 139.44 154.53
  C 140.15 153.55 146.18 144.65 146.47 144.73
  A 0.39 0.38 -79.3 0 1 146.76 145.16
  Q 144.33 163.29 144.94 181.58
  Q 145.03 184.34 147.01 182.41
  L 153.93 175.70
  A 0.98 0.97 -31.0 0 0 154.18 174.71
  Q 153.47 172.40 153.47 171.75
  C 153.44 156.08 155.72 140.54 155.14 124.94
  A 0.36 0.36 0.0 0 0 154.64 124.62
  Q 145.24 128.60 146.59 138.94
  A 1.47 1.43 -30.8 0 1 146.31 139.98
  L 138.01 151.03
  A 0.45 0.44 49.8 0 1 137.26 150.96
  Q 132.80 142.07 131.18 132.19
  Q 130.58 128.56 127.55 130.65
  C 119.68 136.08 122.59 139.57 121.26 147.46
  C 119.14 160.04 118.04 169.83 118.63 179.91
  A 0.99 0.99 0.0 0 0 120.04 180.74
  Q 124.76 178.50 127.57 174.14
  A 0.95 0.93 -43.3 0 0 127.61 173.19
  C 126.21 170.62 129.78 168.01 131.44 166.49
  A 0.97 0.96 -58.2 0 1 132.36 166.27
  L 133.51 166.60
  A 0.97 0.96 -53.6 0 0 134.28 166.48
  C 137.13 164.62 143.95 159.41 139.61 155.79
  A 0.93 0.93 0.0 0 1 139.44 154.53"
/>
<path stroke="#ececec" vector-effect="non-scaling-stroke" d="
  M 20.83 150.45
  L 22.23 151.47
  Q 23.09 152.09 23.01 151.03
  Q 22.84 148.92 21.20 147.66
  A 0.66 0.65 31.7 0 0 20.21 147.89
  L 19.53 149.30
  Q 19.05 150.31 18.68 149.25
  L 15.80 140.97
  A 1.82 1.80 8.2 0 0 15.15 140.11
  L 13.14 138.69
  Q 12.59 138.31 12.73 138.96
  Q 12.96 140.09 13.90 140.76
  A 0.84 0.83 26.2 0 1 14.22 141.68
  L 13.72 143.39
  A 1.02 1.01 30.4 0 0 13.98 144.38
  Q 16.27 146.60 17.00 149.68
  A 1.65 1.64 -77.3 0 0 17.56 150.57
  L 18.33 151.21
  A 0.67 0.66 -47.4 0 0 19.22 151.17
  L 19.84 150.53
  A 0.77 0.77 0.0 0 1 20.83 150.45"
/>
<path stroke="#ececec" vector-effect="non-scaling-stroke" d="
  M 2.81 163.19
  Q 2.52 162.70 2.08 162.58
  A 0.46 0.45 7.9 0 0 1.50 163.01
  L 1.50 164.37
  A 0.57 0.57 0.0 0 0 2.19 164.93
  C 2.89 164.78 3.95 163.25 2.81 163.19"
/>
<path stroke="#ececec" vector-effect="non-scaling-stroke" d="
  M 280.43 185.19
  C 282.31 183.18 279.59 178.76 278.40 176.82
  Q 277.73 175.72 277.77 177.01
  Q 277.87 180.26 279.31 183.13
  A 1.76 1.75 -54.8 0 1 279.49 184.19
  Q 279.25 186.00 280.46 187.41
  Q 280.93 187.97 280.89 187.24
  Q 280.86 186.54 280.40 185.96
  A 0.59 0.58 -43.5 0 1 280.43 185.19"
/>
<path stroke="#ececec" vector-effect="non-scaling-stroke" d="
  M 10.28 177.92
  C 10.72 178.87 13.42 184.41 14.20 184.18
  A 0.53 0.53 0.0 0 0 14.50 183.41
  Q 12.76 180.44 10.57 177.74
  Q 9.72 176.68 10.28 177.92"
/>
<path stroke="#ececec" vector-effect="non-scaling-stroke" d="
  M 44.97 182.16
  Q 44.75 185.35 47.58 187.19
  Q 48.47 187.76 48.06 186.79
  L 45.99 181.99
  Q 45.12 179.95 44.97 182.16"
/>
<path stroke="#ececec" vector-effect="non-scaling-stroke" d="
  M 27.48 183.70
  Q 26.86 184.74 26.78 185.61
  A 1.07 1.04 25.0 0 0 27.11 186.48
  Q 32.56 191.69 34.89 198.84
  Q 35.26 199.99 35.98 199.03
  Q 36.36 198.52 36.20 198.07
  Q 34.82 194.18 34.74 194.03
  Q 32.29 189.27 30.10 184.36
  C 29.57 183.17 28.80 182.45 27.62 183.53
  Q 27.54 183.60 27.48 183.70"
/>
<path stroke="#858585" vector-effect="non-scaling-stroke" d="
  M 274.57 161.79
  Q 273.42 155.75 274.28 149.17
  A 0.60 0.59 88.7 0 1 274.75 148.67
  L 284.36 146.81
  A 0.32 0.32 0.0 0 1 284.73 147.18
  Q 282.74 158.58 282.80 170.22
  C 282.81 172.34 282.66 174.07 283.69 175.96
  Q 285.08 178.50 287.59 177.05
  Q 292.41 174.27 295.20 169.50
  A 0.43 0.43 0.0 0 0 294.94 168.87
  Q 291.78 167.99 291.57 165.20
  Q 290.80 155.10 293.12 142.26
  A 1.58 1.56 -17.2 0 1 293.57 141.42
  C 298.89 136.13 305.62 128.77 297.62 121.65
  A 1.91 1.91 0.0 0 0 295.44 121.40
  C 287.42 125.77 287.11 130.63 286.14 138.96
  A 0.82 0.81 -0.0 0 1 285.41 139.68
  L 275.68 140.66
  A 0.45 0.44 89.0 0 1 275.19 140.18
  L 275.91 128.55
  A 0.50 0.49 80.9 0 0 275.24 128.06
  Q 266.91 131.28 266.96 140.25"
/>
<path stroke="#ececec" vector-effect="non-scaling-stroke" d="
  M 266.96 140.25
  L 266.31 140.36
  A 0.65 0.65 0.0 0 1 265.61 139.97
  L 262.50 132.79"
/>
<path stroke="#858585" vector-effect="non-scaling-stroke" d="
  M 262.50 132.79
  Q 267.62 129.69 270.46 124.49
  A 0.33 0.33 0.0 0 0 270.17 124.00
  L 262.25 123.79"
/>
<path stroke="#858585" vector-effect="non-scaling-stroke" d="
  M 249.21 95.25
  Q 251.77 92.97 253.56 89.94
  A 1.78 1.74 -31.9 0 0 253.79 89.00
  Q 253.45 79.46 254.15 69.97
  C 254.56 64.36 254.42 58.72 254.79 53.08
  A 0.60 0.60 0.0 0 1 255.32 52.52
  C 262.91 51.68 270.39 52.88 274.52 44.65
  Q 275.52 42.65 273.29 42.81
  Q 256.86 43.98 241.75 49.54"
/>
<path stroke="#858585" vector-effect="non-scaling-stroke" d="
  M 282.06 66.64
  C 281.69 60.58 282.21 55.11 281.56 48.51
  A 0.37 0.37 0.0 0 0 281.05 48.21
  C 276.54 50.18 273.22 53.72 273.24 58.92
  Q 273.27 68.71 273.24 78.56
  A 3.57 3.57 0.0 0 1 272.62 80.57
  Q 268.98 85.98 267.06 92.15
  Q 266.25 94.76 268.88 95.48
  L 272.71 96.53
  A 0.72 0.72 0.0 0 1 273.24 97.21
  L 273.28 100.27
  Q 273.29 100.96 273.86 100.58
  C 277.01 98.48 279.43 95.79 282.61 93.87
  Q 287.99 90.61 292.82 86.49
  A 0.58 0.58 0.0 0 1 293.76 86.82
  C 294.54 90.83 297.29 93.66 300.54 95.92
  C 302.78 97.48 305.57 97.54 308.26 98.18
  A 1.88 1.82 41.8 0 0 309.26 98.14
  Q 316.85 95.64 321.80 89.41
  Q 322.22 88.89 322.27 89.56
  C 322.48 92.64 321.58 102.39 324.15 103.92
  A 0.86 0.84 44.4 0 0 325.02 103.92
  Q 329.39 101.34 332.19 97.10
  A 0.88 0.87 -41.3 0 0 332.25 96.23
  Q 331.50 94.63 331.41 93.69
  C 330.73 86.48 330.55 79.63 332.63 72.61
  C 335.46 63.06 337.66 51.26 325.05 47.68
  Q 320.50 46.39 316.11 47.32
  C 304.84 49.71 293.40 70.48 294.21 81.07
  A 2.21 2.20 70.0 0 1 293.30 83.02
  Q 288.82 86.29 283.49 87.80
  A 1.22 1.22 0.0 0 1 281.94 86.71
  C 281.60 81.79 280.74 73.66 283.81 69.31
  Q 289.62 61.08 297.09 54.34
  Q 298.13 53.40 298.78 52.18
  A 0.29 0.29 0.0 0 0 298.56 51.76
  C 294.46 51.29 284.49 63.35 282.39 66.73
  Q 282.10 67.20 282.06 66.64"
/>
<path stroke="#ececec" vector-effect="non-scaling-stroke" d="
  M 264.76 100.22
  Q 264.85 102.20 263.89 103.96
  A 1.30 1.30 0.0 0 0 263.79 104.96
  Q 264.58 107.52 266.13 109.74
  Q 266.91 110.86 266.62 109.53
  Q 266.38 108.39 265.76 107.24
  A 0.43 0.43 0.0 0 1 266.10 106.60
  L 267.61 106.46
  A 0.52 0.52 0.0 0 0 268.08 105.88
  Q 267.69 102.52 266.08 99.52
  Q 265.84 99.08 265.78 98.58
  L 265.65 97.37
  A 0.71 0.70 85.9 0 0 264.94 96.75
  L 261.70 96.75
  A 0.49 0.49 0.0 0 0 261.21 97.29
  Q 261.46 100.00 264.22 99.75
  A 0.50 0.50 0.0 0 1 264.76 100.22"
/>
<path stroke="#ececec" vector-effect="non-scaling-stroke" d="
  M 366.00 173.96
  L 366.29 174.25"
/>
<path stroke="#858585" vector-effect="non-scaling-stroke" d="
  M 366.29 174.25
  Q 365.28 175.36 365.47 176.75
  A 0.35 0.34 69.1 0 0 366.00 176.99
  Q 370.99 173.69 374.50 168.85
  Q 374.93 168.27 375.09 168.97
  L 376.46 174.80
  A 1.01 1.00 -19.7 0 0 377.88 175.47
  Q 382.73 173.13 385.32 168.40
  A 1.44 1.42 51.9 0 0 385.44 167.37
  C 384.19 162.74 383.42 156.34 386.42 152.18
  Q 390.74 146.20 395.74 140.56
  Q 396.07 140.19 396.08 140.69
  Q 396.43 160.48 396.18 180.27
  C 396.17 180.95 395.78 181.69 395.77 182.43
  Q 395.76 182.96 396.21 182.66
  C 399.42 180.51 404.99 176.38 404.99 172.50
  Q 405.02 147.52 404.98 122.30
  Q 404.98 120.47 403.40 121.41
  Q 399.54 123.73 396.81 127.29
  A 3.34 3.33 -31.4 0 0 396.17 129.91
  C 397.22 135.90 388.59 144.61 385.02 149.15
  Q 384.47 149.85 384.52 148.96
  L 385.46 131.68
  A 1.01 1.01 0.0 0 0 384.07 130.69
  C 380.09 132.31 377.03 136.30 376.58 140.87
  Q 375.73 149.62 375.43 158.41
  C 375.29 162.42 374.00 165.04 371.31 167.68
  A 0.32 0.31 -30.7 0 1 370.79 167.55
  Q 369.51 163.26 369.68 159.50
  Q 370.45 141.88 370.84 124.18
  A 0.64 0.63 -12.5 0 0 369.92 123.60
  Q 368.11 124.49 366.44 126.19
  Q 353.92 138.87 344.01 153.69
  Q 343.33 154.71 343.34 153.48
  L 343.54 122.99
  A 0.55 0.55 0.0 0 0 342.74 122.50
  Q 339.04 124.37 336.46 127.64
  Q 334.76 129.80 334.76 132.54
  Q 334.74 149.19 334.76 164.76
  Q 334.76 166.58 332.31 172.55
  Q 331.85 173.70 332.86 172.99
  L 334.83 171.63
  A 0.43 0.43 0.0 0 1 335.44 171.77
  L 337.02 174.44
  A 0.73 0.72 61.9 0 0 337.95 174.73
  Q 342.99 172.41 345.68 167.62
  A 0.93 0.91 -42.9 0 0 345.72 166.81
  L 343.97 162.76
  Q 342.89 160.26 344.49 158.06
  L 360.39 136.20
  Q 362.14 133.79 362.04 136.77
  C 361.85 142.20 359.65 173.84 362.48 176.18
  A 0.60 0.59 45.4 0 0 363.24 176.19
  L 366.00 173.96"
/>
<path stroke="#727272" vector-effect="non-scaling-stroke" d="
  M 366.29 174.25
  L 368.41 171.74
  Q 368.92 171.14 368.26 171.56
  Q 366.84 172.45 366.00 173.96"
/>
<path stroke="#858585" vector-effect="non-scaling-stroke" d="
  M 316.55 168.22
  L 314.81 181.95
  Q 314.71 182.81 315.45 182.35
  C 319.08 180.05 323.03 176.68 323.68 172.15
  C 325.79 157.28 330.55 142.32 330.29 127.27
  A 0.34 0.33 77.3 0 0 329.82 126.97
  C 325.22 129.05 322.16 132.33 321.49 137.56
  C 320.73 143.51 318.97 156.56 315.11 162.14
  A 0.60 0.60 0.0 0 1 314.36 162.34
  Q 308.97 159.66 309.02 152.76
  Q 309.12 137.16 314.37 124.88
  Q 314.50 124.58 314.50 124.24
  L 314.52 123.51
  A 0.66 0.66 0.0 0 0 313.56 122.91
  Q 307.57 126.01 305.21 132.12
  C 302.21 139.88 297.19 160.29 301.88 167.51
  Q 304.53 171.58 310.45 171.80
  A 1.60 1.57 27.6 0 0 311.44 171.50
  L 316.26 168.05
  Q 316.60 167.80 316.55 168.22"
/>
<path stroke="#858585" vector-effect="non-scaling-stroke" d="
  M 315.83 187.14
  C 314.45 188.78 310.60 192.55 314.43 193.95
  A 2.10 2.09 -52.7 0 0 316.39 193.68
  C 319.14 191.68 329.10 182.14 328.27 178.53
  A 0.35 0.35 0.0 0 0 327.72 178.32
  L 317.30 185.78
  Q 316.48 186.37 315.83 187.14"
/>
<path stroke="#858585" vector-effect="non-scaling-stroke" d="
  M 230.29 52.75
  L 230.31 55.18
  A 0.30 0.29 75.3 0 0 230.75 55.44
  L 237.75 51.46"
/>
<path stroke="#858585" vector-effect="non-scaling-stroke" d="
  M 246.50 97.21
  Q 245.94 97.88 245.81 97.93
  A 0.95 0.91 80.7 0 1 244.56 96.99
  L 246.00 59.10
  A 1.82 1.79 67.3 0 1 246.44 58.00
  L 250.06 53.91
  Q 250.69 53.20 249.77 53.43
  Q 239.90 55.92 230.63 60.12
  A 0.90 0.89 -12.5 0 0 230.11 60.93
  L 229.96 71.02
  A 0.50 0.50 0.0 0 0 230.52 71.52
  L 242.63 70.07
  Q 243.33 69.98 243.01 70.62
  Q 239.27 78.02 231.07 79.20
  A 1.07 1.06 -11.9 0 0 230.19 80.54
  L 231.79 86.25"
/>
<path stroke="#727272" vector-effect="non-scaling-stroke" d="
  M 184.88 64.12
  C 185.37 62.25 185.69 50.24 181.33 52.73
  A 1.05 1.04 75.3 0 0 180.80 53.64
  L 180.78 64.99
  A 0.62 0.62 0.0 0 0 181.57 65.59
  L 184.20 64.82
  A 1.00 0.99 -1.1 0 0 184.88 64.12"
/>
<path stroke="#727272" vector-effect="non-scaling-stroke" d="
  M 173.58 55.12
  C 167.88 58.46 164.74 62.90 159.86 67.81
  A 0.82 0.81 52.3 0 0 159.74 68.79
  L 165.30 78.25
  A 0.53 0.53 0.0 0 0 166.16 78.32
  L 171.74 71.56
  A 1.44 1.44 0.0 0 0 172.08 70.66
  C 172.20 65.80 170.62 59.27 173.70 55.25
  Q 174.00 54.87 173.58 55.12"
/>
<path stroke="#727272" vector-effect="non-scaling-stroke" d="
  M 195.42 71.77
  Q 187.05 68.35 181.42 74.93
  A 2.89 2.85 65.5 0 0 180.74 76.79
  L 180.77 92.97
  A 1.05 1.05 0.0 0 0 181.86 94.02
  C 185.01 93.91 195.75 92.23 197.42 89.09
  C 199.66 84.90 199.95 78.90 198.18 74.53
  Q 197.39 72.57 195.42 71.77"
/>
<path stroke="#727272" vector-effect="non-scaling-stroke" d="
  M 171.29 83.40
  C 171.19 83.98 170.72 84.51 171.27 84.97
  A 0.53 0.53 0.0 0 0 172.08 84.80
  Q 172.55 83.87 171.75 83.23
  A 0.29 0.28 24.0 0 0 171.29 83.40"
/>
<path stroke="#858585" vector-effect="non-scaling-stroke" d="
  M 315.78 85.98
  L 313.97 88.71
  A 0.32 0.32 0.0 0 0 314.14 89.19
  C 320.33 91.32 323.16 83.09 323.14 78.24
  Q 323.09 69.98 323.97 61.71
  A 1.44 1.43 -58.7 0 0 323.75 60.79
  C 320.65 55.93 313.86 55.12 308.65 56.47
  A 1.25 1.21 -81.9 0 0 307.89 57.06
  Q 304.22 63.46 302.96 70.73
  Q 302.76 71.93 303.81 71.34
  L 306.97 69.60
  Q 307.82 69.13 307.58 70.07
  Q 305.91 76.73 306.66 83.61
  A 1.26 1.24 5.4 0 0 307.55 84.67
  Q 311.47 85.84 315.44 85.43
  Q 316.19 85.35 315.78 85.98"
/>
<path stroke="#727272" vector-effect="non-scaling-stroke" d="
  M 262.50 132.79
  Q 253.44 131.70 244.78 134.41
  A 0.82 0.80 87.7 0 0 244.23 135.02
  L 242.42 144.31
  Q 241.92 146.88 244.47 146.31
  Q 254.15 144.17 264.00 143.28
  Q 265.41 143.15 264.80 144.43
  C 260.57 153.36 250.56 152.65 242.12 153.63
  A 0.66 0.66 0.0 0 0 241.54 154.27
  L 241.39 161.67
  A 0.48 0.48 0.0 0 0 242.09 162.10
  L 243.06 161.60
  A 0.86 0.86 0.0 0 1 243.86 161.60
  C 244.96 162.16 244.56 167.76 244.49 168.76
  A 0.72 0.72 0.0 0 0 245.27 169.54
  Q 254.88 168.81 264.11 166.09
  A 1.42 1.41 -7.2 0 0 265.12 164.79
  Q 265.58 151.57 266.96 140.25"
/>
<path stroke="#727272" vector-effect="non-scaling-stroke" d="
  M 93.92 143.47
  Q 93.23 147.09 90.91 149.98
  A 2.07 2.03 -23.4 0 0 90.48 151.04
  L 89.37 162.68
  Q 89.18 164.63 90.93 165.52
  Q 97.70 168.96 105.24 167.35
  A 1.13 1.12 -79.5 0 0 105.93 166.87
  C 110.08 160.33 110.92 152.76 110.73 145.15
  C 110.56 137.89 108.14 134.11 100.76 133.34
  C 90.29 132.25 87.04 139.34 86.27 147.89
  Q 86.20 148.65 86.67 148.05
  Q 89.32 144.71 93.20 142.91
  Q 94.10 142.49 93.92 143.47"
/>
<path stroke="#727272" vector-effect="non-scaling-stroke" d="
  M 127.32 158.98
  L 127.22 163.58
  Q 127.20 164.66 127.85 163.80
  Q 129.75 161.32 128.32 158.73
  Q 127.36 157.00 127.32 158.98"
/>
</g>
<path fill="#d8d8d8" d="
  M 0.00 0.00
  L 219.83 -0.01
  Q 223.61 2.84 224.73 7.40
  Q 225.27 9.60 226.24 10.94
  C 232.54 19.64 235.24 27.34 238.35 37.07
  C 239.53 40.76 238.15 47.49 241.75 49.54
  L 237.75 51.46
  Q 237.61 49.74 236.46 48.49
  A 0.71 0.70 55.7 0 0 235.62 48.33
  Q 234.05 49.13 233.09 50.64
  Q 232.80 51.08 232.37 51.37
  L 230.29 52.75
  Q 229.63 50.39 230.23 47.90
  Q 230.50 46.79 229.51 47.36
  C 226.27 49.23 221.51 53.07 221.38 57.22
  Q 221.14 65.03 221.26 72.89
  A 0.62 0.62 0.0 0 1 220.74 73.51
  L 210.73 75.28
  Q 208.42 75.69 209.44 73.58
  Q 215.14 61.84 222.70 49.60
  C 224.32 46.97 227.10 44.91 228.78 41.86
  A 0.52 0.51 -62.0 0 0 228.57 41.15
  C 226.30 39.98 219.36 48.23 218.05 50.17
  Q 212.53 58.37 207.81 67.15
  Q 207.58 67.57 207.37 67.14
  C 204.35 60.82 198.37 62.21 192.71 62.54
  A 0.35 0.34 -81.1 0 1 192.37 62.07
  Q 195.76 53.32 192.54 44.53
  A 1.10 1.10 0.0 0 0 191.44 43.81
  Q 183.05 44.22 176.45 49.21
  Q 175.86 49.65 176.21 49.01
  C 176.28 48.87 178.18 45.80 178.06 45.39
  A 0.46 0.45 66.1 0 0 177.39 45.13
  Q 174.06 47.11 171.59 50.10
  Q 165.21 57.81 158.78 65.58
  A 0.41 0.41 0.0 0 1 158.10 65.50
  L 151.42 51.77
  A 0.55 0.55 0.0 0 0 150.68 51.52
  Q 145.67 54.08 142.64 58.77
  A 0.80 0.80 0.0 0 0 142.59 59.56
  L 148.85 72.72
  Q 149.89 74.91 148.03 76.45
  Q 136.47 85.99 126.56 94.32
  Q 123.64 96.78 122.07 101.14
  A 1.02 1.01 -52.3 0 0 122.18 102.04
  C 123.66 104.34 129.95 96.52 130.81 95.41
  C 136.03 88.68 144.20 83.02 150.67 77.28
  A 0.48 0.48 0.0 0 1 151.42 77.45
  Q 155.09 85.75 161.75 91.88
  A 1.28 1.26 20.0 0 1 162.16 92.74
  L 162.53 99.58
  Q 162.68 102.35 165.45 102.50
  L 171.48 102.84
  A 0.63 0.63 0.0 0 1 172.07 103.48
  L 171.83 123.40
  A 0.25 0.25 0.0 0 0 172.19 123.62
  Q 176.91 121.12 179.59 116.65
  C 181.64 113.23 180.75 106.46 180.77 102.46
  A 0.75 0.74 82.4 0 1 181.31 101.74
  Q 189.16 99.58 195.78 94.88
  A 0.36 0.36 0.0 0 1 196.34 95.08
  C 198.15 101.62 209.16 97.31 212.04 94.55
  C 212.84 93.78 216.74 89.63 216.51 88.67
  A 0.44 0.44 0.0 0 0 215.91 88.37
  Q 211.54 90.20 206.78 89.30
  A 1.64 1.64 0.0 0 1 205.45 87.58
  L 205.69 84.23
  A 0.83 0.83 0.0 0 1 206.35 83.47
  L 220.76 80.46
  A 0.51 0.50 86.7 0 1 221.37 81.01
  Q 220.44 90.24 224.31 98.57
  A 0.73 0.73 0.0 0 0 225.48 98.79
  L 232.77 91.82
  A 1.08 1.06 -29.9 0 0 233.06 90.78
  L 231.79 86.25
  L 235.12 85.32
  A 1.75 1.74 74.6 0 1 237.28 86.55
  Q 239.28 94.12 242.93 101.02
  A 1.02 1.01 52.9 0 0 244.56 101.25
  C 245.73 100.04 247.55 103.14 248.54 103.61
  Q 249.60 104.11 249.09 103.05
  L 247.96 100.74
  Q 247.79 100.37 247.78 99.96
  Q 247.77 98.32 246.50 97.21
  L 249.21 95.25
  C 249.76 97.90 250.64 102.74 253.12 102.22
  A 0.55 0.55 0.0 0 1 253.75 102.57
  C 254.07 103.46 256.35 107.40 254.97 108.21
  A 0.59 0.58 -28.7 0 0 254.74 108.98
  L 255.51 110.48
  A 0.61 0.60 49.3 0 1 255.47 111.09
  C 254.75 112.14 257.84 115.45 256.40 115.94
  A 0.52 0.52 0.0 0 1 255.72 115.53
  Q 255.21 112.32 252.15 111.82
  A 0.49 0.48 13.6 0 1 251.76 111.19
  Q 252.41 109.18 251.45 107.36
  Q 251.02 106.56 250.80 107.44
  L 250.17 110.02
  A 1.04 1.02 -57.9 0 0 250.37 110.93
  Q 253.07 114.24 254.88 118.10
  C 255.76 119.98 257.41 121.06 258.33 123.04
  A 0.86 0.85 79.9 0 0 259.04 123.54
  L 262.25 123.79
  L 248.36 126.36
  A 1.28 1.28 0.0 0 1 246.85 124.99
  C 246.94 123.86 248.53 120.97 246.47 120.36
  Q 244.89 119.90 243.31 120.39
  C 232.43 123.77 219.39 128.12 212.63 137.50
  A 0.67 0.66 -66.1 0 0 213.03 138.54
  C 213.92 138.73 222.03 134.18 223.44 133.46
  Q 225.09 132.63 224.16 134.23
  Q 223.31 135.70 222.09 136.85
  A 0.62 0.62 0.0 0 0 222.04 137.70
  L 223.57 139.52
  A 1.22 1.21 -65.5 0 1 223.86 140.31
  Q 223.91 151.41 222.73 162.44
  C 222.09 168.40 222.27 173.93 222.26 179.75
  A 0.38 0.38 0.0 0 0 222.78 180.10
  C 228.28 177.90 230.69 174.18 230.96 168.11
  Q 231.67 152.21 232.16 147.93
  C 232.92 141.37 232.41 136.71 233.67 130.50
  A 1.29 1.28 -11.9 0 1 234.21 129.68
  Q 235.94 128.48 238.03 129.23
  A 0.77 0.76 -60.0 0 1 238.35 130.44
  C 237.47 131.49 233.65 135.33 234.04 136.64
  A 0.59 0.58 71.7 0 0 234.79 137.02
  L 236.41 136.45
  Q 237.16 136.19 236.93 136.95
  Q 231.73 154.48 232.62 172.80
  Q 232.64 173.28 232.45 173.71
  L 230.97 177.19
  A 0.77 0.76 -78.3 0 0 231.67 178.26
  C 240.99 178.25 257.12 176.95 264.68 170.79
  Q 265.16 170.39 265.19 171.01
  L 265.44 175.68
  Q 265.56 178.07 267.29 176.41
  L 274.41 169.54
  A 0.88 0.86 -32.5 0 0 274.62 168.64
  Q 273.52 165.48 274.57 161.79
  Q 282.43 182.34 289.92 203.03
  Q 290.17 203.70 289.44 204.00
  L 48.69 204.00
  C 46.69 199.43 45.44 194.65 43.41 190.15
  C 40.58 183.89 39.33 177.55 35.53 171.55
  Q 34.94 170.61 34.96 171.72
  L 34.98 172.86
  Q 35.00 173.66 34.34 173.21
  Q 34.17 173.10 34.08 172.93
  A 0.76 0.76 0.0 0 0 33.42 172.55
  L 30.51 172.52
  Q 29.67 172.51 30.21 173.14
  C 33.79 177.32 35.38 180.52 37.25 186.39
  Q 40.11 195.33 46.01 202.78
  C 46.34 203.21 46.34 203.65 45.94 204.00
  L 35.19 204.00
  L 31.47 198.05
  A 0.85 0.85 0.0 0 1 31.51 197.10
  L 31.71 196.83
  Q 32.22 196.14 31.37 196.12
  Q 30.18 196.08 29.39 196.98
  A 0.52 0.52 0.0 0 0 29.44 197.72
  Q 32.35 200.27 32.94 204.00
  L 17.69 204.00
  Q 14.89 203.73 13.78 201.72
  Q 10.44 195.71 7.27 191.73
  C 6.38 190.61 2.78 189.24 2.72 188.78
  A 0.60 0.59 -11.2 0 1 3.17 188.12
  Q 3.96 187.92 4.26 187.24
  A 0.61 0.61 0.0 0 0 3.72 186.38
  L 0.88 186.34
  A 0.54 0.53 -0.6 0 1 0.35 185.83
  L 0.00 177.94
  L 0.00 128.94
  Q -0.01 128.25 0.43 127.78
  A 0.37 0.37 0.0 0 1 1.04 127.87
  Q 4.46 134.98 7.08 142.43
  C 8.43 146.30 14.84 151.09 13.59 155.13
  A 0.78 0.77 -62.0 0 0 13.84 155.97
  Q 17.84 159.16 17.92 164.32
  A 1.17 1.15 18.9 0 0 18.38 165.24
  Q 18.81 165.56 18.76 166.11
  A 0.45 0.45 0.0 0 1 18.20 166.51
  L 17.11 166.23
  Q 16.45 166.06 16.69 166.70
  L 17.43 168.66
  A 0.56 0.56 0.0 0 0 18.07 169.01
  Q 18.74 168.86 19.09 168.25
  A 1.08 1.07 -77.3 0 1 19.92 167.72
  C 20.48 167.67 20.83 168.14 20.96 168.69
  C 21.79 172.27 25.97 177.69 28.37 180.57
  Q 28.70 180.96 28.51 180.49
  Q 25.16 172.50 21.60 164.61
  C 20.69 162.61 20.98 160.67 18.36 159.34
  A 0.44 0.43 -49.3 0 1 18.31 158.60
  L 21.32 156.44
  A 0.81 0.80 56.5 0 0 21.53 155.37
  L 19.58 152.26
  A 0.78 0.77 -29.9 0 0 18.56 151.99
  Q 17.43 152.58 16.87 151.38
  A 1.16 1.16 0.0 0 0 16.18 150.76
  C 13.88 150.01 8.36 136.46 10.67 134.11
  A 0.56 0.56 0.0 0 0 10.58 133.24
  L 10.00 132.85
  A 0.61 0.61 0.0 0 0 9.06 133.27
  L 8.81 134.99
  A 0.24 0.24 0.0 0 1 8.50 135.19
  L 7.91 135.00
  A 0.94 0.94 0.0 0 1 7.30 134.35
  L 6.49 131.29
  A 1.69 1.67 13.5 0 0 5.95 130.42
  C 4.49 129.12 3.25 125.42 0.92 126.17
  A 0.49 0.48 79.9 0 1 0.29 125.73
  L 0.23 124.82
  Q 0.17 123.81 0.89 124.52
  L 1.17 124.79
  A 0.46 0.46 0.0 0 0 1.90 124.68
  L 2.16 124.18
  A 0.59 0.59 0.0 0 0 1.95 123.40
  C -0.88 121.67 0.50 116.30 0.00 112.44
  L 0.00 0.00
  Z
  M 190.69 6.56
  Q 190.53 8.04 191.64 8.63
  Q 192.49 9.08 192.10 8.21
  L 191.00 5.74
  Q 190.80 5.27 190.54 5.72
  Q 190.32 6.11 190.69 6.56
  Z
  M 213.89 8.88
  Q 214.54 7.86 213.93 6.87
  A 0.88 0.85 68.0 0 0 213.04 6.48
  L 211.17 6.84
  A 0.49 0.49 0.0 0 0 210.82 7.54
  C 211.18 8.25 213.60 13.20 214.22 13.02
  A 0.51 0.50 -16.5 0 0 214.57 12.38
  L 213.76 9.89
  A 1.22 1.19 52.9 0 1 213.89 8.88
  Z
  M 82.00 97.31
  Q 81.51 98.29 81.51 97.19
  L 81.50 69.70
  A 0.52 0.51 -88.9 0 1 82.03 69.18
  Q 92.67 69.60 97.40 60.37
  Q 97.77 59.65 96.96 59.76
  L 82.16 61.76
  A 0.37 0.36 88.1 0 1 81.75 61.37
  C 82.85 45.65 85.16 29.52 85.24 13.81
  A 0.34 0.34 0.0 0 0 84.77 13.50
  C 80.24 15.43 77.00 18.56 76.58 23.74
  Q 74.96 43.75 73.30 63.80
  A 0.78 0.77 -5.3 0 1 72.72 64.49
  L 66.00 66.32
  A 0.38 0.38 0.0 0 1 65.52 65.93
  Q 66.69 44.12 66.50 22.28
  A 0.35 0.35 0.0 0 0 66.02 21.96
  C 61.25 23.86 58.04 27.45 57.96 32.82
  Q 57.67 50.57 56.82 68.39
  A 2.12 2.10 -12.9 0 1 55.69 70.17
  Q 51.54 72.36 49.55 76.65
  A 0.40 0.40 0.0 0 0 49.93 77.22
  Q 53.40 77.11 56.43 75.40
  Q 57.05 75.05 56.99 75.76
  Q 55.89 88.93 56.30 102.20
  Q 56.39 105.16 58.50 103.08
  L 65.13 96.51
  A 1.29 1.28 -22.4 0 0 65.52 95.59
  L 65.49 74.20
  A 1.50 1.50 0.0 0 1 66.56 72.76
  L 72.24 71.08
  A 0.39 0.39 0.0 0 1 72.74 71.46
  L 72.76 105.19
  Q 72.76 107.96 75.53 107.80
  Q 77.52 107.68 79.05 106.29
  Q 81.71 103.86 84.14 101.19
  C 88.09 96.86 90.55 90.70 93.26 85.44
  Q 93.51 84.95 93.62 85.49
  L 95.55 94.81
  Q 96.13 97.62 99.00 97.52
  Q 106.75 97.24 115.05 95.67
  C 123.90 94.00 130.19 92.69 134.31 85.24
  Q 135.07 83.86 133.55 84.29
  Q 120.00 88.10 105.93 88.82
  A 0.65 0.64 88.3 0 1 105.25 88.17
  L 105.25 78.05
  A 0.72 0.72 0.0 0 1 105.77 77.36
  Q 112.47 75.44 119.46 75.22
  A 1.33 1.33 0.0 0 0 120.36 74.82
  L 127.32 67.67
  Q 127.84 67.13 127.11 66.98
  C 121.18 65.79 111.22 69.06 105.06 70.31
  A 0.48 0.48 0.0 0 1 104.48 69.84
  L 104.54 60.13
  A 0.77 0.77 0.0 0 1 105.03 59.41
  C 109.78 57.49 120.06 54.16 124.70 55.55
  A 1.00 1.00 0.0 0 0 125.58 55.39
  C 128.20 53.44 132.54 50.20 132.50 47.01
  A 0.49 0.49 0.0 0 0 131.99 46.52
  C 118.53 46.92 105.46 51.87 97.68 63.26
  C 96.24 65.36 95.34 68.34 93.77 70.76
  Q 91.98 73.51 91.25 75.61
  Q 87.31 86.81 82.00 97.31
  Z
  M 222.7597 21.7455
  A 1.48 0.63 55.9 0 0 222.4517 20.1668
  A 1.48 0.63 55.9 0 0 221.1003 19.2945
  A 1.48 0.63 55.9 0 0 221.4083 20.8732
  A 1.48 0.63 55.9 0 0 222.7597 21.7455
  Z
  M 215.25 36.50
  Q 215.13 32.15 212.34 29.57
  Q 212.03 29.28 212.00 29.70
  L 211.98 30.06
  A 1.47 1.47 0.0 0 0 212.22 30.96
  Q 215.62 36.11 215.05 42.07
  C 214.90 43.67 215.48 49.66 217.54 49.52
  A 0.40 0.39 78.4 0 0 217.88 49.00
  Q 215.39 41.36 215.25 36.50
  Z
  M 64.64 147.94
  L 65.20 124.96
  Q 65.27 122.26 63.31 124.10
  L 58.13 128.96
  Q 56.01 130.94 56.01 133.85
  L 56.00 157.67
  A 1.59 1.52 -29.1 0 1 55.73 158.54
  C 52.72 162.94 50.38 172.00 54.68 176.34
  C 55.86 177.54 56.06 178.55 56.61 180.02
  A 1.38 1.38 0.0 0 0 58.62 180.74
  C 60.03 179.90 60.74 178.95 62.39 178.55
  C 69.41 176.87 72.12 173.23 77.34 169.23
  A 0.47 0.46 -34.8 0 1 78.01 169.35
  C 80.47 173.17 82.69 177.46 86.30 178.42
  C 95.19 180.78 100.18 176.59 106.70 170.35
  Q 121.11 156.53 119.45 135.26
  Q 118.62 124.56 107.73 124.46
  Q 102.53 124.42 100.32 125.52
  Q 77.39 137.08 76.80 162.58
  C 76.63 169.78 71.24 170.11 65.25 169.31
  A 0.59 0.58 3.9 0 1 64.74 168.73
  L 64.77 153.56
  A 3.04 3.02 66.1 0 1 65.54 151.54
  Q 77.87 137.89 87.77 122.40
  A 0.42 0.42 0.0 0 0 87.51 121.77
  C 85.24 121.28 80.33 127.31 79.00 129.36
  Q 72.61 139.15 65.09 148.10
  Q 64.63 148.66 64.64 147.94
  Z
  M 9.94 122.11
  C 6.06 120.80 5.85 129.82 10.93 132.09
  C 12.39 132.74 12.91 133.42 13.59 134.74
  A 0.86 0.85 -10.4 0 0 14.26 135.20
  L 17.19 135.52
  Q 17.80 135.59 17.50 135.04
  L 10.73 122.77
  A 1.45 1.45 0.0 0 0 9.94 122.11
  Z
  M 184.85 149.12
  Q 186.68 137.61 185.95 125.99
  A 1.40 1.39 83.5 0 0 184.34 124.70
  C 176.02 126.04 163.04 129.85 159.39 138.31
  Q 159.02 139.17 159.86 138.77
  L 165.06 136.31
  A 0.25 0.04 -26.8 0 1 165.25 136.25
  L 165.52 136.34
  A 0.12 0.11 -61.0 0 1 165.57 136.53
  Q 162.78 139.75 162.53 141.99
  C 161.15 154.26 159.35 166.44 159.50 178.83
  Q 159.52 180.02 160.52 179.37
  C 163.38 177.51 167.93 174.34 168.07 170.50
  Q 168.72 152.77 171.29 135.17
  A 0.95 0.94 87.4 0 1 172.00 134.38
  L 176.64 133.24
  A 0.55 0.55 0.0 0 1 177.32 133.75
  C 177.71 146.22 175.75 157.26 174.62 169.07
  Q 174.33 172.08 174.48 173.79
  Q 174.70 176.18 176.57 174.69
  Q 182.09 170.30 185.29 163.95
  Q 185.71 163.11 185.70 164.05
  L 185.49 175.34
  A 1.35 1.35 0.0 0 0 187.12 176.69
  C 198.55 174.25 213.31 174.45 220.27 162.90
  Q 220.96 161.75 219.70 162.21
  Q 208.40 166.38 196.37 166.88
  A 0.48 0.48 0.0 0 1 195.86 166.37
  L 196.78 152.08
  A 2.02 2.02 0.0 0 1 198.58 150.19
  L 210.68 148.93
  A 1.73 1.73 0.0 0 0 211.59 148.56
  Q 215.60 145.40 218.43 141.15
  Q 218.98 140.32 217.99 140.36
  Q 207.41 140.72 197.29 143.88
  A 0.42 0.42 0.0 0 1 196.74 143.47
  L 196.78 134.90
  Q 196.79 132.97 198.68 132.55
  Q 205.12 131.12 211.71 131.57
  A 0.79 0.78 83.7 0 1 212.42 132.15
  Q 212.68 133.14 213.57 133.51
  A 0.94 0.94 0.0 0 0 214.53 133.37
  C 217.49 130.90 221.39 127.97 221.29 123.75
  A 0.64 0.63 -86.1 0 0 220.77 123.15
  C 205.70 120.38 190.53 129.66 187.74 144.97
  C 187.37 147.01 186.39 147.78 185.17 149.26
  Q 184.75 149.77 184.85 149.12
  Z
  M 139.44 154.53
  C 140.15 153.55 146.18 144.65 146.47 144.73
  A 0.39 0.38 -79.3 0 1 146.76 145.16
  Q 144.33 163.29 144.94 181.58
  Q 145.03 184.34 147.01 182.41
  L 153.93 175.70
  A 0.98 0.97 -31.0 0 0 154.18 174.71
  Q 153.47 172.40 153.47 171.75
  C 153.44 156.08 155.72 140.54 155.14 124.94
  A 0.36 0.36 0.0 0 0 154.64 124.62
  Q 145.24 128.60 146.59 138.94
  A 1.47 1.43 -30.8 0 1 146.31 139.98
  L 138.01 151.03
  A 0.45 0.44 49.8 0 1 137.26 150.96
  Q 132.80 142.07 131.18 132.19
  Q 130.58 128.56 127.55 130.65
  C 119.68 136.08 122.59 139.57 121.26 147.46
  C 119.14 160.04 118.04 169.83 118.63 179.91
  A 0.99 0.99 0.0 0 0 120.04 180.74
  Q 124.76 178.50 127.57 174.14
  A 0.95 0.93 -43.3 0 0 127.61 173.19
  C 126.21 170.62 129.78 168.01 131.44 166.49
  A 0.97 0.96 -58.2 0 1 132.36 166.27
  L 133.51 166.60
  A 0.97 0.96 -53.6 0 0 134.28 166.48
  C 137.13 164.62 143.95 159.41 139.61 155.79
  A 0.93 0.93 0.0 0 1 139.44 154.53
  Z
  M 20.83 150.45
  L 22.23 151.47
  Q 23.09 152.09 23.01 151.03
  Q 22.84 148.92 21.20 147.66
  A 0.66 0.65 31.7 0 0 20.21 147.89
  L 19.53 149.30
  Q 19.05 150.31 18.68 149.25
  L 15.80 140.97
  A 1.82 1.80 8.2 0 0 15.15 140.11
  L 13.14 138.69
  Q 12.59 138.31 12.73 138.96
  Q 12.96 140.09 13.90 140.76
  A 0.84 0.83 26.2 0 1 14.22 141.68
  L 13.72 143.39
  A 1.02 1.01 30.4 0 0 13.98 144.38
  Q 16.27 146.60 17.00 149.68
  A 1.65 1.64 -77.3 0 0 17.56 150.57
  L 18.33 151.21
  A 0.67 0.66 -47.4 0 0 19.22 151.17
  L 19.84 150.53
  A 0.77 0.77 0.0 0 1 20.83 150.45
  Z
  M 2.81 163.19
  Q 2.52 162.70 2.08 162.58
  A 0.46 0.45 7.9 0 0 1.50 163.01
  L 1.50 164.37
  A 0.57 0.57 0.0 0 0 2.19 164.93
  C 2.89 164.78 3.95 163.25 2.81 163.19
  Z
  M 280.43 185.19
  C 282.31 183.18 279.59 178.76 278.40 176.82
  Q 277.73 175.72 277.77 177.01
  Q 277.87 180.26 279.31 183.13
  A 1.76 1.75 -54.8 0 1 279.49 184.19
  Q 279.25 186.00 280.46 187.41
  Q 280.93 187.97 280.89 187.24
  Q 280.86 186.54 280.40 185.96
  A 0.59 0.58 -43.5 0 1 280.43 185.19
  Z
  M 10.28 177.92
  C 10.72 178.87 13.42 184.41 14.20 184.18
  A 0.53 0.53 0.0 0 0 14.50 183.41
  Q 12.76 180.44 10.57 177.74
  Q 9.72 176.68 10.28 177.92
  Z
  M 44.97 182.16
  Q 44.75 185.35 47.58 187.19
  Q 48.47 187.76 48.06 186.79
  L 45.99 181.99
  Q 45.12 179.95 44.97 182.16
  Z
  M 27.48 183.70
  Q 26.86 184.74 26.78 185.61
  A 1.07 1.04 25.0 0 0 27.11 186.48
  Q 32.56 191.69 34.89 198.84
  Q 35.26 199.99 35.98 199.03
  Q 36.36 198.52 36.20 198.07
  Q 34.82 194.18 34.74 194.03
  Q 32.29 189.27 30.10 184.36
  C 29.57 183.17 28.80 182.45 27.62 183.53
  Q 27.54 183.60 27.48 183.70
  Z"
/>
<path fill="#ffffff" d="
  M 219.83 -0.01
  L 450.00 0.00
  L 450.00 204.00
  L 289.44 204.00
  Q 290.17 203.70 289.92 203.03
  Q 282.43 182.34 274.57 161.79
  Q 273.42 155.75 274.28 149.17
  A 0.60 0.59 88.7 0 1 274.75 148.67
  L 284.36 146.81
  A 0.32 0.32 0.0 0 1 284.73 147.18
  Q 282.74 158.58 282.80 170.22
  C 282.81 172.34 282.66 174.07 283.69 175.96
  Q 285.08 178.50 287.59 177.05
  Q 292.41 174.27 295.20 169.50
  A 0.43 0.43 0.0 0 0 294.94 168.87
  Q 291.78 167.99 291.57 165.20
  Q 290.80 155.10 293.12 142.26
  A 1.58 1.56 -17.2 0 1 293.57 141.42
  C 298.89 136.13 305.62 128.77 297.62 121.65
  A 1.91 1.91 0.0 0 0 295.44 121.40
  C 287.42 125.77 287.11 130.63 286.14 138.96
  A 0.82 0.81 -0.0 0 1 285.41 139.68
  L 275.68 140.66
  A 0.45 0.44 89.0 0 1 275.19 140.18
  L 275.91 128.55
  A 0.50 0.49 80.9 0 0 275.24 128.06
  Q 266.91 131.28 266.96 140.25
  L 266.31 140.36
  A 0.65 0.65 0.0 0 1 265.61 139.97
  L 262.50 132.79
  Q 267.62 129.69 270.46 124.49
  A 0.33 0.33 0.0 0 0 270.17 124.00
  L 262.25 123.79
  L 259.04 123.54
  A 0.86 0.85 79.9 0 1 258.33 123.04
  C 257.41 121.06 255.76 119.98 254.88 118.10
  Q 253.07 114.24 250.37 110.93
  A 1.04 1.02 -57.9 0 1 250.17 110.02
  L 250.80 107.44
  Q 251.02 106.56 251.45 107.36
  Q 252.41 109.18 251.76 111.19
  A 0.49 0.48 13.6 0 0 252.15 111.82
  Q 255.21 112.32 255.72 115.53
  A 0.52 0.52 0.0 0 0 256.40 115.94
  C 257.84 115.45 254.75 112.14 255.47 111.09
  A 0.61 0.60 49.3 0 0 255.51 110.48
  L 254.74 108.98
  A 0.59 0.58 -28.7 0 1 254.97 108.21
  C 256.35 107.40 254.07 103.46 253.75 102.57
  A 0.55 0.55 0.0 0 0 253.12 102.22
  C 250.64 102.74 249.76 97.90 249.21 95.25
  Q 251.77 92.97 253.56 89.94
  A 1.78 1.74 -31.9 0 0 253.79 89.00
  Q 253.45 79.46 254.15 69.97
  C 254.56 64.36 254.42 58.72 254.79 53.08
  A 0.60 0.60 0.0 0 1 255.32 52.52
  C 262.91 51.68 270.39 52.88 274.52 44.65
  Q 275.52 42.65 273.29 42.81
  Q 256.86 43.98 241.75 49.54
  C 238.15 47.49 239.53 40.76 238.35 37.07
  C 235.24 27.34 232.54 19.64 226.24 10.94
  Q 225.27 9.60 224.73 7.40
  Q 223.61 2.84 219.83 -0.01
  Z
  M 282.06 66.64
  C 281.69 60.58 282.21 55.11 281.56 48.51
  A 0.37 0.37 0.0 0 0 281.05 48.21
  C 276.54 50.18 273.22 53.72 273.24 58.92
  Q 273.27 68.71 273.24 78.56
  A 3.57 3.57 0.0 0 1 272.62 80.57
  Q 268.98 85.98 267.06 92.15
  Q 266.25 94.76 268.88 95.48
  L 272.71 96.53
  A 0.72 0.72 0.0 0 1 273.24 97.21
  L 273.28 100.27
  Q 273.29 100.96 273.86 100.58
  C 277.01 98.48 279.43 95.79 282.61 93.87
  Q 287.99 90.61 292.82 86.49
  A 0.58 0.58 0.0 0 1 293.76 86.82
  C 294.54 90.83 297.29 93.66 300.54 95.92
  C 302.78 97.48 305.57 97.54 308.26 98.18
  A 1.88 1.82 41.8 0 0 309.26 98.14
  Q 316.85 95.64 321.80 89.41
  Q 322.22 88.89 322.27 89.56
  C 322.48 92.64 321.58 102.39 324.15 103.92
  A 0.86 0.84 44.4 0 0 325.02 103.92
  Q 329.39 101.34 332.19 97.10
  A 0.88 0.87 -41.3 0 0 332.25 96.23
  Q 331.50 94.63 331.41 93.69
  C 330.73 86.48 330.55 79.63 332.63 72.61
  C 335.46 63.06 337.66 51.26 325.05 47.68
  Q 320.50 46.39 316.11 47.32
  C 304.84 49.71 293.40 70.48 294.21 81.07
  A 2.21 2.20 70.0 0 1 293.30 83.02
  Q 288.82 86.29 283.49 87.80
  A 1.22 1.22 0.0 0 1 281.94 86.71
  C 281.60 81.79 280.74 73.66 283.81 69.31
  Q 289.62 61.08 297.09 54.34
  Q 298.13 53.40 298.78 52.18
  A 0.29 0.29 0.0 0 0 298.56 51.76
  C 294.46 51.29 284.49 63.35 282.39 66.73
  Q 282.10 67.20 282.06 66.64
  Z
  M 264.76 100.22
  Q 264.85 102.20 263.89 103.96
  A 1.30 1.30 0.0 0 0 263.79 104.96
  Q 264.58 107.52 266.13 109.74
  Q 266.91 110.86 266.62 109.53
  Q 266.38 108.39 265.76 107.24
  A 0.43 0.43 0.0 0 1 266.10 106.60
  L 267.61 106.46
  A 0.52 0.52 0.0 0 0 268.08 105.88
  Q 267.69 102.52 266.08 99.52
  Q 265.84 99.08 265.78 98.58
  L 265.65 97.37
  A 0.71 0.70 85.9 0 0 264.94 96.75
  L 261.70 96.75
  A 0.49 0.49 0.0 0 0 261.21 97.29
  Q 261.46 100.00 264.22 99.75
  A 0.50 0.50 0.0 0 1 264.76 100.22
  Z
  M 366.00 173.96
  L 366.29 174.25
  Q 365.28 175.36 365.47 176.75
  A 0.35 0.34 69.1 0 0 366.00 176.99
  Q 370.99 173.69 374.50 168.85
  Q 374.93 168.27 375.09 168.97
  L 376.46 174.80
  A 1.01 1.00 -19.7 0 0 377.88 175.47
  Q 382.73 173.13 385.32 168.40
  A 1.44 1.42 51.9 0 0 385.44 167.37
  C 384.19 162.74 383.42 156.34 386.42 152.18
  Q 390.74 146.20 395.74 140.56
  Q 396.07 140.19 396.08 140.69
  Q 396.43 160.48 396.18 180.27
  C 396.17 180.95 395.78 181.69 395.77 182.43
  Q 395.76 182.96 396.21 182.66
  C 399.42 180.51 404.99 176.38 404.99 172.50
  Q 405.02 147.52 404.98 122.30
  Q 404.98 120.47 403.40 121.41
  Q 399.54 123.73 396.81 127.29
  A 3.34 3.33 -31.4 0 0 396.17 129.91
  C 397.22 135.90 388.59 144.61 385.02 149.15
  Q 384.47 149.85 384.52 148.96
  L 385.46 131.68
  A 1.01 1.01 0.0 0 0 384.07 130.69
  C 380.09 132.31 377.03 136.30 376.58 140.87
  Q 375.73 149.62 375.43 158.41
  C 375.29 162.42 374.00 165.04 371.31 167.68
  A 0.32 0.31 -30.7 0 1 370.79 167.55
  Q 369.51 163.26 369.68 159.50
  Q 370.45 141.88 370.84 124.18
  A 0.64 0.63 -12.5 0 0 369.92 123.60
  Q 368.11 124.49 366.44 126.19
  Q 353.92 138.87 344.01 153.69
  Q 343.33 154.71 343.34 153.48
  L 343.54 122.99
  A 0.55 0.55 0.0 0 0 342.74 122.50
  Q 339.04 124.37 336.46 127.64
  Q 334.76 129.80 334.76 132.54
  Q 334.74 149.19 334.76 164.76
  Q 334.76 166.58 332.31 172.55
  Q 331.85 173.70 332.86 172.99
  L 334.83 171.63
  A 0.43 0.43 0.0 0 1 335.44 171.77
  L 337.02 174.44
  A 0.73 0.72 61.9 0 0 337.95 174.73
  Q 342.99 172.41 345.68 167.62
  A 0.93 0.91 -42.9 0 0 345.72 166.81
  L 343.97 162.76
  Q 342.89 160.26 344.49 158.06
  L 360.39 136.20
  Q 362.14 133.79 362.04 136.77
  C 361.85 142.20 359.65 173.84 362.48 176.18
  A 0.60 0.59 45.4 0 0 363.24 176.19
  L 366.00 173.96
  Z
  M 316.55 168.22
  L 314.81 181.95
  Q 314.71 182.81 315.45 182.35
  C 319.08 180.05 323.03 176.68 323.68 172.15
  C 325.79 157.28 330.55 142.32 330.29 127.27
  A 0.34 0.33 77.3 0 0 329.82 126.97
  C 325.22 129.05 322.16 132.33 321.49 137.56
  C 320.73 143.51 318.97 156.56 315.11 162.14
  A 0.60 0.60 0.0 0 1 314.36 162.34
  Q 308.97 159.66 309.02 152.76
  Q 309.12 137.16 314.37 124.88
  Q 314.50 124.58 314.50 124.24
  L 314.52 123.51
  A 0.66 0.66 0.0 0 0 313.56 122.91
  Q 307.57 126.01 305.21 132.12
  C 302.21 139.88 297.19 160.29 301.88 167.51
  Q 304.53 171.58 310.45 171.80
  A 1.60 1.57 27.6 0 0 311.44 171.50
  L 316.26 168.05
  Q 316.60 167.80 316.55 168.22
  Z
  M 315.83 187.14
  C 314.45 188.78 310.60 192.55 314.43 193.95
  A 2.10 2.09 -52.7 0 0 316.39 193.68
  C 319.14 191.68 329.10 182.14 328.27 178.53
  A 0.35 0.35 0.0 0 0 327.72 178.32
  L 317.30 185.78
  Q 316.48 186.37 315.83 187.14
  Z"
/>
<path fill="#ffffff" d="
  M 190.69 6.56
  Q 190.32 6.11 190.54 5.72
  Q 190.80 5.27 191.00 5.74
  L 192.10 8.21
  Q 192.49 9.08 191.64 8.63
  Q 190.53 8.04 190.69 6.56
  Z"
/>
<path fill="#ffffff" d="
  M 213.76 9.89
  L 214.57 12.38
  A 0.51 0.50 -16.5 0 1 214.22 13.02
  C 213.60 13.20 211.18 8.25 210.82 7.54
  A 0.49 0.49 0.0 0 1 211.17 6.84
  L 213.04 6.48
  A 0.88 0.85 68.0 0 1 213.93 6.87
  Q 214.54 7.86 213.89 8.88
  A 1.22 1.19 52.9 0 0 213.76 9.89
  Z"
/>
<path fill="#0b0b0b" d="
  M 82.00 97.31
  Q 87.31 86.81 91.25 75.61
  Q 91.98 73.51 93.77 70.76
  C 95.34 68.34 96.24 65.36 97.68 63.26
  C 105.46 51.87 118.53 46.92 131.99 46.52
  A 0.49 0.49 0.0 0 1 132.50 47.01
  C 132.54 50.20 128.20 53.44 125.58 55.39
  A 1.00 1.00 0.0 0 1 124.70 55.55
  C 120.06 54.16 109.78 57.49 105.03 59.41
  A 0.77 0.77 0.0 0 0 104.54 60.13
  L 104.48 69.84
  A 0.48 0.48 0.0 0 0 105.06 70.31
  C 111.22 69.06 121.18 65.79 127.11 66.98
  Q 127.84 67.13 127.32 67.67
  L 120.36 74.82
  A 1.33 1.33 0.0 0 1 119.46 75.22
  Q 112.47 75.44 105.77 77.36
  A 0.72 0.72 0.0 0 0 105.25 78.05
  L 105.25 88.17
  A 0.65 0.64 88.3 0 0 105.93 88.82
  Q 120.00 88.10 133.55 84.29
  Q 135.07 83.86 134.31 85.24
  C 130.19 92.69 123.90 94.00 115.05 95.67
  Q 106.75 97.24 99.00 97.52
  Q 96.13 97.62 95.55 94.81
  L 93.62 85.49
  Q 93.51 84.95 93.26 85.44
  C 90.55 90.70 88.09 96.86 84.14 101.19
  Q 81.71 103.86 79.05 106.29
  Q 77.52 107.68 75.53 107.80
  Q 72.76 107.96 72.76 105.19
  L 72.74 71.46
  A 0.39 0.39 0.0 0 0 72.24 71.08
  L 66.56 72.76
  A 1.50 1.50 0.0 0 0 65.49 74.20
  L 65.52 95.59
  A 1.29 1.28 -22.4 0 1 65.13 96.51
  L 58.50 103.08
  Q 56.39 105.16 56.30 102.20
  Q 55.89 88.93 56.99 75.76
  Q 57.05 75.05 56.43 75.40
  Q 53.40 77.11 49.93 77.22
  A 0.40 0.40 0.0 0 1 49.55 76.65
  Q 51.54 72.36 55.69 70.17
  A 2.12 2.10 -12.9 0 0 56.82 68.39
  Q 57.67 50.57 57.96 32.82
  C 58.04 27.45 61.25 23.86 66.02 21.96
  A 0.35 0.35 0.0 0 1 66.50 22.28
  Q 66.69 44.12 65.52 65.93
  A 0.38 0.38 0.0 0 0 66.00 66.32
  L 72.72 64.49
  A 0.78 0.77 -5.3 0 0 73.30 63.80
  Q 74.96 43.75 76.58 23.74
  C 77.00 18.56 80.24 15.43 84.77 13.50
  A 0.34 0.34 0.0 0 1 85.24 13.81
  C 85.16 29.52 82.85 45.65 81.75 61.37
  A 0.37 0.36 88.1 0 0 82.16 61.76
  L 96.96 59.76
  Q 97.77 59.65 97.40 60.37
  Q 92.67 69.60 82.03 69.18
  A 0.52 0.51 -88.9 0 0 81.50 69.70
  L 81.51 97.19
  Q 81.51 98.29 82.00 97.31
  Z"
/>
<ellipse fill="#ffffff" cx="0.00" cy="0.00" transform="translate(221.93,20.52) rotate(55.9)" rx="1.48" ry="0.63"/>
<path fill="#ffffff" d="
  M 215.25 36.50
  Q 215.39 41.36 217.88 49.00
  A 0.40 0.39 78.4 0 1 217.54 49.52
  C 215.48 49.66 214.90 43.67 215.05 42.07
  Q 215.62 36.11 212.22 30.96
  A 1.47 1.47 0.0 0 1 211.98 30.06
  L 212.00 29.70
  Q 212.03 29.28 212.34 29.57
  Q 215.13 32.15 215.25 36.50
  Z"
/>
<path fill="#0b0b0b" d="
  M 230.29 52.75
  L 230.31 55.18
  A 0.30 0.29 75.3 0 0 230.75 55.44
  L 237.75 51.46
  L 241.75 49.54
  Q 256.86 43.98 273.29 42.81
  Q 275.52 42.65 274.52 44.65
  C 270.39 52.88 262.91 51.68 255.32 52.52
  A 0.60 0.60 0.0 0 0 254.79 53.08
  C 254.42 58.72 254.56 64.36 254.15 69.97
  Q 253.45 79.46 253.79 89.00
  A 1.78 1.74 -31.9 0 1 253.56 89.94
  Q 251.77 92.97 249.21 95.25
  L 246.50 97.21
  Q 245.94 97.88 245.81 97.93
  A 0.95 0.91 80.7 0 1 244.56 96.99
  L 246.00 59.10
  A 1.82 1.79 67.3 0 1 246.44 58.00
  L 250.06 53.91
  Q 250.69 53.20 249.77 53.43
  Q 239.90 55.92 230.63 60.12
  A 0.90 0.89 -12.5 0 0 230.11 60.93
  L 229.96 71.02
  A 0.50 0.50 0.0 0 0 230.52 71.52
  L 242.63 70.07
  Q 243.33 69.98 243.01 70.62
  Q 239.27 78.02 231.07 79.20
  A 1.07 1.06 -11.9 0 0 230.19 80.54
  L 231.79 86.25
  L 233.06 90.78
  A 1.08 1.06 -29.9 0 1 232.77 91.82
  L 225.48 98.79
  A 0.73 0.73 0.0 0 1 224.31 98.57
  Q 220.44 90.24 221.37 81.01
  A 0.51 0.50 86.7 0 0 220.76 80.46
  L 206.35 83.47
  A 0.83 0.83 0.0 0 0 205.69 84.23
  L 205.45 87.58
  A 1.64 1.64 0.0 0 0 206.78 89.30
  Q 211.54 90.20 215.91 88.37
  A 0.44 0.44 0.0 0 1 216.51 88.67
  C 216.74 89.63 212.84 93.78 212.04 94.55
  C 209.16 97.31 198.15 101.62 196.34 95.08
  A 0.36 0.36 0.0 0 0 195.78 94.88
  Q 189.16 99.58 181.31 101.74
  A 0.75 0.74 82.4 0 0 180.77 102.46
  C 180.75 106.46 181.64 113.23 179.59 116.65
  Q 176.91 121.12 172.19 123.62
  A 0.25 0.25 0.0 0 1 171.83 123.40
  L 172.07 103.48
  A 0.63 0.63 0.0 0 0 171.48 102.84
  L 165.45 102.50
  Q 162.68 102.35 162.53 99.58
  L 162.16 92.74
  A 1.28 1.26 20.0 0 0 161.75 91.88
  Q 155.09 85.75 151.42 77.45
  A 0.48 0.48 0.0 0 0 150.67 77.28
  C 144.20 83.02 136.03 88.68 130.81 95.41
  C 129.95 96.52 123.66 104.34 122.18 102.04
  A 1.02 1.01 -52.3 0 1 122.07 101.14
  Q 123.64 96.78 126.56 94.32
  Q 136.47 85.99 148.03 76.45
  Q 149.89 74.91 148.85 72.72
  L 142.59 59.56
  A 0.80 0.80 0.0 0 1 142.64 58.77
  Q 145.67 54.08 150.68 51.52
  A 0.55 0.55 0.0 0 1 151.42 51.77
  L 158.10 65.50
  A 0.41 0.41 0.0 0 0 158.78 65.58
  Q 165.21 57.81 171.59 50.10
  Q 174.06 47.11 177.39 45.13
  A 0.46 0.45 66.1 0 1 178.06 45.39
  C 178.18 45.80 176.28 48.87 176.21 49.01
  Q 175.86 49.65 176.45 49.21
  Q 183.05 44.22 191.44 43.81
  A 1.10 1.10 0.0 0 1 192.54 44.53
  Q 195.76 53.32 192.37 62.07
  A 0.35 0.34 -81.1 0 0 192.71 62.54
  C 198.37 62.21 204.35 60.82 207.37 67.14
  Q 207.58 67.57 207.81 67.15
  Q 212.53 58.37 218.05 50.17
  C 219.36 48.23 226.30 39.98 228.57 41.15
  A 0.52 0.51 -62.0 0 1 228.78 41.86
  C 227.10 44.91 224.32 46.97 222.70 49.60
  Q 215.14 61.84 209.44 73.58
  Q 208.42 75.69 210.73 75.28
  L 220.74 73.51
  A 0.62 0.62 0.0 0 0 221.26 72.89
  Q 221.14 65.03 221.38 57.22
  C 221.51 53.07 226.27 49.23 229.51 47.36
  Q 230.50 46.79 230.23 47.90
  Q 229.63 50.39 230.29 52.75
  Z
  M 184.88 64.12
  C 185.37 62.25 185.69 50.24 181.33 52.73
  A 1.05 1.04 75.3 0 0 180.80 53.64
  L 180.78 64.99
  A 0.62 0.62 0.0 0 0 181.57 65.59
  L 184.20 64.82
  A 1.00 0.99 -1.1 0 0 184.88 64.12
  Z
  M 173.58 55.12
  C 167.88 58.46 164.74 62.90 159.86 67.81
  A 0.82 0.81 52.3 0 0 159.74 68.79
  L 165.30 78.25
  A 0.53 0.53 0.0 0 0 166.16 78.32
  L 171.74 71.56
  A 1.44 1.44 0.0 0 0 172.08 70.66
  C 172.20 65.80 170.62 59.27 173.70 55.25
  Q 174.00 54.87 173.58 55.12
  Z
  M 195.42 71.77
  Q 187.05 68.35 181.42 74.93
  A 2.89 2.85 65.5 0 0 180.74 76.79
  L 180.77 92.97
  A 1.05 1.05 0.0 0 0 181.86 94.02
  C 185.01 93.91 195.75 92.23 197.42 89.09
  C 199.66 84.90 199.95 78.90 198.18 74.53
  Q 197.39 72.57 195.42 71.77
  Z
  M 171.29 83.40
  C 171.19 83.98 170.72 84.51 171.27 84.97
  A 0.53 0.53 0.0 0 0 172.08 84.80
  Q 172.55 83.87 171.75 83.23
  A 0.29 0.28 24.0 0 0 171.29 83.40
  Z"
/>
<path fill="#0b0b0b" d="
  M 282.06 66.64
  Q 282.10 67.20 282.39 66.73
  C 284.49 63.35 294.46 51.29 298.56 51.76
  A 0.29 0.29 0.0 0 1 298.78 52.18
  Q 298.13 53.40 297.09 54.34
  Q 289.62 61.08 283.81 69.31
  C 280.74 73.66 281.60 81.79 281.94 86.71
  A 1.22 1.22 0.0 0 0 283.49 87.80
  Q 288.82 86.29 293.30 83.02
  A 2.21 2.20 70.0 0 0 294.21 81.07
  C 293.40 70.48 304.84 49.71 316.11 47.32
  Q 320.50 46.39 325.05 47.68
  C 337.66 51.26 335.46 63.06 332.63 72.61
  C 330.55 79.63 330.73 86.48 331.41 93.69
  Q 331.50 94.63 332.25 96.23
  A 0.88 0.87 -41.3 0 1 332.19 97.10
  Q 329.39 101.34 325.02 103.92
  A 0.86 0.84 44.4 0 1 324.15 103.92
  C 321.58 102.39 322.48 92.64 322.27 89.56
  Q 322.22 88.89 321.80 89.41
  Q 316.85 95.64 309.26 98.14
  A 1.88 1.82 41.8 0 1 308.26 98.18
  C 305.57 97.54 302.78 97.48 300.54 95.92
  C 297.29 93.66 294.54 90.83 293.76 86.82
  A 0.58 0.58 0.0 0 0 292.82 86.49
  Q 287.99 90.61 282.61 93.87
  C 279.43 95.79 277.01 98.48 273.86 100.58
  Q 273.29 100.96 273.28 100.27
  L 273.24 97.21
  A 0.72 0.72 0.0 0 0 272.71 96.53
  L 268.88 95.48
  Q 266.25 94.76 267.06 92.15
  Q 268.98 85.98 272.62 80.57
  A 3.57 3.57 0.0 0 0 273.24 78.56
  Q 273.27 68.71 273.24 58.92
  C 273.22 53.72 276.54 50.18 281.05 48.21
  A 0.37 0.37 0.0 0 1 281.56 48.51
  C 282.21 55.11 281.69 60.58 282.06 66.64
  Z
  M 315.78 85.98
  L 313.97 88.71
  A 0.32 0.32 0.0 0 0 314.14 89.19
  C 320.33 91.32 323.16 83.09 323.14 78.24
  Q 323.09 69.98 323.97 61.71
  A 1.44 1.43 -58.7 0 0 323.75 60.79
  C 320.65 55.93 313.86 55.12 308.65 56.47
  A 1.25 1.21 -81.9 0 0 307.89 57.06
  Q 304.22 63.46 302.96 70.73
  Q 302.76 71.93 303.81 71.34
  L 306.97 69.60
  Q 307.82 69.13 307.58 70.07
  Q 305.91 76.73 306.66 83.61
  A 1.26 1.24 5.4 0 0 307.55 84.67
  Q 311.47 85.84 315.44 85.43
  Q 316.19 85.35 315.78 85.98
  Z"
/>
<path fill="#ffffff" d="
  M 237.75 51.46
  L 230.75 55.44
  A 0.30 0.29 75.3 0 1 230.31 55.18
  L 230.29 52.75
  L 232.37 51.37
  Q 232.80 51.08 233.09 50.64
  Q 234.05 49.13 235.62 48.33
  A 0.71 0.70 55.7 0 1 236.46 48.49
  Q 237.61 49.74 237.75 51.46
  Z"
/>
<path fill="#d8d8d8" d="
  M 181.33 52.73
  C 185.69 50.24 185.37 62.25 184.88 64.12
  A 1.00 0.99 -1.1 0 1 184.20 64.82
  L 181.57 65.59
  A 0.62 0.62 0.0 0 1 180.78 64.99
  L 180.80 53.64
  A 1.05 1.04 75.3 0 1 181.33 52.73
  Z"
/>
<path fill="#ffffff" d="
  M 246.50 97.21
  Q 247.77 98.32 247.78 99.96
  Q 247.79 100.37 247.96 100.74
  L 249.09 103.05
  Q 249.60 104.11 248.54 103.61
  C 247.55 103.14 245.73 100.04 244.56 101.25
  A 1.02 1.01 52.9 0 1 242.93 101.02
  Q 239.28 94.12 237.28 86.55
  A 1.75 1.74 74.6 0 0 235.12 85.32
  L 231.79 86.25
  L 230.19 80.54
  A 1.07 1.06 -11.9 0 1 231.07 79.20
  Q 239.27 78.02 243.01 70.62
  Q 243.33 69.98 242.63 70.07
  L 230.52 71.52
  A 0.50 0.50 0.0 0 1 229.96 71.02
  L 230.11 60.93
  A 0.90 0.89 -12.5 0 1 230.63 60.12
  Q 239.90 55.92 249.77 53.43
  Q 250.69 53.20 250.06 53.91
  L 246.44 58.00
  A 1.82 1.79 67.3 0 0 246.00 59.10
  L 244.56 96.99
  A 0.95 0.91 80.7 0 0 245.81 97.93
  Q 245.94 97.88 246.50 97.21
  Z"
/>
<path fill="#d8d8d8" d="
  M 159.86 67.81
  C 164.74 62.90 167.88 58.46 173.58 55.12
  Q 174.00 54.87 173.70 55.25
  C 170.62 59.27 172.20 65.80 172.08 70.66
  A 1.44 1.44 0.0 0 1 171.74 71.56
  L 166.16 78.32
  A 0.53 0.53 0.0 0 1 165.30 78.25
  L 159.74 68.79
  A 0.82 0.81 52.3 0 1 159.86 67.81
  Z"
/>
<path fill="#ffffff" d="
  M 315.44 85.43
  Q 311.47 85.84 307.55 84.67
  A 1.26 1.24 5.4 0 1 306.66 83.61
  Q 305.91 76.73 307.58 70.07
  Q 307.82 69.13 306.97 69.60
  L 303.81 71.34
  Q 302.76 71.93 302.96 70.73
  Q 304.22 63.46 307.89 57.06
  A 1.25 1.21 -81.9 0 1 308.65 56.47
  C 313.86 55.12 320.65 55.93 323.75 60.79
  A 1.44 1.43 -58.7 0 1 323.97 61.71
  Q 323.09 69.98 323.14 78.24
  C 323.16 83.09 320.33 91.32 314.14 89.19
  A 0.32 0.32 0.0 0 1 313.97 88.71
  L 315.78 85.98
  Q 316.19 85.35 315.44 85.43
  Z"
/>
<path fill="#d8d8d8" d="
  M 195.42 71.77
  Q 197.39 72.57 198.18 74.53
  C 199.95 78.90 199.66 84.90 197.42 89.09
  C 195.75 92.23 185.01 93.91 181.86 94.02
  A 1.05 1.05 0.0 0 1 180.77 92.97
  L 180.74 76.79
  A 2.89 2.85 65.5 0 1 181.42 74.93
  Q 187.05 68.35 195.42 71.77
  Z"
/>
<path fill="#d8d8d8" d="
  M 171.27 84.97
  C 170.72 84.51 171.19 83.98 171.29 83.40
  A 0.29 0.28 24.0 0 1 171.75 83.23
  Q 172.55 83.87 172.08 84.80
  A 0.53 0.53 0.0 0 1 171.27 84.97
  Z"
/>
<path fill="#d8d8d8" d="
  M 264.22 99.75
  Q 261.46 100.00 261.21 97.29
  A 0.49 0.49 0.0 0 1 261.70 96.75
  L 264.94 96.75
  A 0.71 0.70 85.9 0 1 265.65 97.37
  L 265.78 98.58
  Q 265.84 99.08 266.08 99.52
  Q 267.69 102.52 268.08 105.88
  A 0.52 0.52 0.0 0 1 267.61 106.46
  L 266.10 106.60
  A 0.43 0.43 0.0 0 0 265.76 107.24
  Q 266.38 108.39 266.62 109.53
  Q 266.91 110.86 266.13 109.74
  Q 264.58 107.52 263.79 104.96
  A 1.30 1.30 0.0 0 1 263.89 103.96
  Q 264.85 102.20 264.76 100.22
  A 0.50 0.50 0.0 0 0 264.22 99.75
  Z"
/>
<path fill="#ffffff" d="
  M 0.00 112.44
  C 0.50 116.30 -0.88 121.67 1.95 123.40
  A 0.59 0.59 0.0 0 1 2.16 124.18
  L 1.90 124.68
  A 0.46 0.46 0.0 0 1 1.17 124.79
  L 0.89 124.52
  Q 0.17 123.81 0.23 124.82
  L 0.29 125.73
  A 0.49 0.48 79.9 0 0 0.92 126.17
  C 3.25 125.42 4.49 129.12 5.95 130.42
  A 1.69 1.67 13.5 0 1 6.49 131.29
  L 7.30 134.35
  A 0.94 0.94 0.0 0 0 7.91 135.00
  L 8.50 135.19
  A 0.24 0.24 0.0 0 0 8.81 134.99
  L 9.06 133.27
  A 0.61 0.61 0.0 0 1 10.00 132.85
  L 10.58 133.24
  A 0.56 0.56 0.0 0 1 10.67 134.11
  C 8.36 136.46 13.88 150.01 16.18 150.76
  A 1.16 1.16 0.0 0 1 16.87 151.38
  Q 17.43 152.58 18.56 151.99
  A 0.78 0.77 -29.9 0 1 19.58 152.26
  L 21.53 155.37
  A 0.81 0.80 56.5 0 1 21.32 156.44
  L 18.31 158.60
  A 0.44 0.43 -49.3 0 0 18.36 159.34
  C 20.98 160.67 20.69 162.61 21.60 164.61
  Q 25.16 172.50 28.51 180.49
  Q 28.70 180.96 28.37 180.57
  C 25.97 177.69 21.79 172.27 20.96 168.69
  C 20.83 168.14 20.48 167.67 19.92 167.72
  A 1.08 1.07 -77.3 0 0 19.09 168.25
  Q 18.74 168.86 18.07 169.01
  A 0.56 0.56 0.0 0 1 17.43 168.66
  L 16.69 166.70
  Q 16.45 166.06 17.11 166.23
  L 18.20 166.51
  A 0.45 0.45 0.0 0 0 18.76 166.11
  Q 18.81 165.56 18.38 165.24
  A 1.17 1.15 18.9 0 1 17.92 164.32
  Q 17.84 159.16 13.84 155.97
  A 0.78 0.77 -62.0 0 1 13.59 155.13
  C 14.84 151.09 8.43 146.30 7.08 142.43
  Q 4.46 134.98 1.04 127.87
  A 0.37 0.37 0.0 0 0 0.43 127.78
  Q -0.01 128.25 0.00 128.94
  L 0.00 112.44
  Z"
/>
<path fill="#0b0b0b" d="
  M 262.25 123.79
  L 270.17 124.00
  A 0.33 0.33 0.0 0 1 270.46 124.49
  Q 267.62 129.69 262.50 132.79
  Q 253.44 131.70 244.78 134.41
  A 0.82 0.80 87.7 0 0 244.23 135.02
  L 242.42 144.31
  Q 241.92 146.88 244.47 146.31
  Q 254.15 144.17 264.00 143.28
  Q 265.41 143.15 264.80 144.43
  C 260.57 153.36 250.56 152.65 242.12 153.63
  A 0.66 0.66 0.0 0 0 241.54 154.27
  L 241.39 161.67
  A 0.48 0.48 0.0 0 0 242.09 162.10
  L 243.06 161.60
  A 0.86 0.86 0.0 0 1 243.86 161.60
  C 244.96 162.16 244.56 167.76 244.49 168.76
  A 0.72 0.72 0.0 0 0 245.27 169.54
  Q 254.88 168.81 264.11 166.09
  A 1.42 1.41 -7.2 0 0 265.12 164.79
  Q 265.58 151.57 266.96 140.25
  Q 266.91 131.28 275.24 128.06
  A 0.50 0.49 80.9 0 1 275.91 128.55
  L 275.19 140.18
  A 0.45 0.44 89.0 0 0 275.68 140.66
  L 285.41 139.68
  A 0.82 0.81 -0.0 0 0 286.14 138.96
  C 287.11 130.63 287.42 125.77 295.44 121.40
  A 1.91 1.91 0.0 0 1 297.62 121.65
  C 305.62 128.77 298.89 136.13 293.57 141.42
  A 1.58 1.56 -17.2 0 0 293.12 142.26
  Q 290.80 155.10 291.57 165.20
  Q 291.78 167.99 294.94 168.87
  A 0.43 0.43 0.0 0 1 295.20 169.50
  Q 292.41 174.27 287.59 177.05
  Q 285.08 178.50 283.69 175.96
  C 282.66 174.07 282.81 172.34 282.80 170.22
  Q 282.74 158.58 284.73 147.18
  A 0.32 0.32 0.0 0 0 284.36 146.81
  L 274.75 148.67
  A 0.60 0.59 88.7 0 0 274.28 149.17
  Q 273.42 155.75 274.57 161.79
  Q 273.52 165.48 274.62 168.64
  A 0.88 0.86 -32.5 0 1 274.41 169.54
  L 267.29 176.41
  Q 265.56 178.07 265.44 175.68
  L 265.19 171.01
  Q 265.16 170.39 264.68 170.79
  C 257.12 176.95 240.99 178.25 231.67 178.26
  A 0.77 0.76 -78.3 0 1 230.97 177.19
  L 232.45 173.71
  Q 232.64 173.28 232.62 172.80
  Q 231.73 154.48 236.93 136.95
  Q 237.16 136.19 236.41 136.45
  L 234.79 137.02
  A 0.59 0.58 71.7 0 1 234.04 136.64
  C 233.65 135.33 237.47 131.49 238.35 130.44
  A 0.77 0.76 -60.0 0 0 238.03 129.23
  Q 235.94 128.48 234.21 129.68
  A 1.29 1.28 -11.9 0 0 233.67 130.50
  C 232.41 136.71 232.92 141.37 232.16 147.93
  Q 231.67 152.21 230.96 168.11
  C 230.69 174.18 228.28 177.90 222.78 180.10
  A 0.38 0.38 0.0 0 1 222.26 179.75
  C 222.27 173.93 222.09 168.40 222.73 162.44
  Q 223.91 151.41 223.86 140.31
  A 1.22 1.21 -65.5 0 0 223.57 139.52
  L 222.04 137.70
  A 0.62 0.62 0.0 0 1 222.09 136.85
  Q 223.31 135.70 224.16 134.23
  Q 225.09 132.63 223.44 133.46
  C 222.03 134.18 213.92 138.73 213.03 138.54
  A 0.67 0.66 -66.1 0 1 212.63 137.50
  C 219.39 128.12 232.43 123.77 243.31 120.39
  Q 244.89 119.90 246.47 120.36
  C 248.53 120.97 246.94 123.86 246.85 124.99
  A 1.28 1.28 0.0 0 0 248.36 126.36
  L 262.25 123.79
  Z"
/>
<path fill="#0b0b0b" d="
  M 366.29 174.25
  L 368.41 171.74
  Q 368.92 171.14 368.26 171.56
  Q 366.84 172.45 366.00 173.96
  L 363.24 176.19
  A 0.60 0.59 45.4 0 1 362.48 176.18
  C 359.65 173.84 361.85 142.20 362.04 136.77
  Q 362.14 133.79 360.39 136.20
  L 344.49 158.06
  Q 342.89 160.26 343.97 162.76
  L 345.72 166.81
  A 0.93 0.91 -42.9 0 1 345.68 167.62
  Q 342.99 172.41 337.95 174.73
  A 0.73 0.72 61.9 0 1 337.02 174.44
  L 335.44 171.77
  A 0.43 0.43 0.0 0 0 334.83 171.63
  L 332.86 172.99
  Q 331.85 173.70 332.31 172.55
  Q 334.76 166.58 334.76 164.76
  Q 334.74 149.19 334.76 132.54
  Q 334.76 129.80 336.46 127.64
  Q 339.04 124.37 342.74 122.50
  A 0.55 0.55 0.0 0 1 343.54 122.99
  L 343.34 153.48
  Q 343.33 154.71 344.01 153.69
  Q 353.92 138.87 366.44 126.19
  Q 368.11 124.49 369.92 123.60
  A 0.64 0.63 -12.5 0 1 370.84 124.18
  Q 370.45 141.88 369.68 159.50
  Q 369.51 163.26 370.79 167.55
  A 0.32 0.31 -30.7 0 0 371.31 167.68
  C 374.00 165.04 375.29 162.42 375.43 158.41
  Q 375.73 149.62 376.58 140.87
  C 377.03 136.30 380.09 132.31 384.07 130.69
  A 1.01 1.01 0.0 0 1 385.46 131.68
  L 384.52 148.96
  Q 384.47 149.85 385.02 149.15
  C 388.59 144.61 397.22 135.90 396.17 129.91
  A 3.34 3.33 -31.4 0 1 396.81 127.29
  Q 399.54 123.73 403.40 121.41
  Q 404.98 120.47 404.98 122.30
  Q 405.02 147.52 404.99 172.50
  C 404.99 176.38 399.42 180.51 396.21 182.66
  Q 395.76 182.96 395.77 182.43
  C 395.78 181.69 396.17 180.95 396.18 180.27
  Q 396.43 160.48 396.08 140.69
  Q 396.07 140.19 395.74 140.56
  Q 390.74 146.20 386.42 152.18
  C 383.42 156.34 384.19 162.74 385.44 167.37
  A 1.44 1.42 51.9 0 1 385.32 168.40
  Q 382.73 173.13 377.88 175.47
  A 1.01 1.00 -19.7 0 1 376.46 174.80
  L 375.09 168.97
  Q 374.93 168.27 374.50 168.85
  Q 370.99 173.69 366.00 176.99
  A 0.35 0.34 69.1 0 1 365.47 176.75
  Q 365.28 175.36 366.29 174.25
  Z"
/>
<path fill="#0b0b0b" d="
  M 65.09 148.10
  Q 72.61 139.15 79.00 129.36
  C 80.33 127.31 85.24 121.28 87.51 121.77
  A 0.42 0.42 0.0 0 1 87.77 122.40
  Q 77.87 137.89 65.54 151.54
  A 3.04 3.02 66.1 0 0 64.77 153.56
  L 64.74 168.73
  A 0.59 0.58 3.9 0 0 65.25 169.31
  C 71.24 170.11 76.63 169.78 76.80 162.58
  Q 77.39 137.08 100.32 125.52
  Q 102.53 124.42 107.73 124.46
  Q 118.62 124.56 119.45 135.26
  Q 121.11 156.53 106.70 170.35
  C 100.18 176.59 95.19 180.78 86.30 178.42
  C 82.69 177.46 80.47 173.17 78.01 169.35
  A 0.47 0.46 -34.8 0 0 77.34 169.23
  C 72.12 173.23 69.41 176.87 62.39 178.55
  C 60.74 178.95 60.03 179.90 58.62 180.74
  A 1.38 1.38 0.0 0 1 56.61 180.02
  C 56.06 178.55 55.86 177.54 54.68 176.34
  C 50.38 172.00 52.72 162.94 55.73 158.54
  A 1.59 1.52 -29.1 0 0 56.00 157.67
  L 56.01 133.85
  Q 56.01 130.94 58.13 128.96
  L 63.31 124.10
  Q 65.27 122.26 65.20 124.96
  L 64.64 147.94
  Q 64.63 148.66 65.09 148.10
  Z
  M 93.92 143.47
  Q 93.23 147.09 90.91 149.98
  A 2.07 2.03 -23.4 0 0 90.48 151.04
  L 89.37 162.68
  Q 89.18 164.63 90.93 165.52
  Q 97.70 168.96 105.24 167.35
  A 1.13 1.12 -79.5 0 0 105.93 166.87
  C 110.08 160.33 110.92 152.76 110.73 145.15
  C 110.56 137.89 108.14 134.11 100.76 133.34
  C 90.29 132.25 87.04 139.34 86.27 147.89
  Q 86.20 148.65 86.67 148.05
  Q 89.32 144.71 93.20 142.91
  Q 94.10 142.49 93.92 143.47
  Z"
/>
<path fill="#ffffff" d="
  M 10.93 132.09
  C 5.85 129.82 6.06 120.80 9.94 122.11
  A 1.45 1.45 0.0 0 1 10.73 122.77
  L 17.50 135.04
  Q 17.80 135.59 17.19 135.52
  L 14.26 135.20
  A 0.86 0.85 -10.4 0 1 13.59 134.74
  C 12.91 133.42 12.39 132.74 10.93 132.09
  Z"
/>
<path fill="#0b0b0b" d="
  M 185.17 149.26
  C 186.39 147.78 187.37 147.01 187.74 144.97
  C 190.53 129.66 205.70 120.38 220.77 123.15
  A 0.64 0.63 -86.1 0 1 221.29 123.75
  C 221.39 127.97 217.49 130.90 214.53 133.37
  A 0.94 0.94 0.0 0 1 213.57 133.51
  Q 212.68 133.14 212.42 132.15
  A 0.79 0.78 83.7 0 0 211.71 131.57
  Q 205.12 131.12 198.68 132.55
  Q 196.79 132.97 196.78 134.90
  L 196.74 143.47
  A 0.42 0.42 0.0 0 0 197.29 143.88
  Q 207.41 140.72 217.99 140.36
  Q 218.98 140.32 218.43 141.15
  Q 215.60 145.40 211.59 148.56
  A 1.73 1.73 0.0 0 1 210.68 148.93
  L 198.58 150.19
  A 2.02 2.02 0.0 0 0 196.78 152.08
  L 195.86 166.37
  A 0.48 0.48 0.0 0 0 196.37 166.88
  Q 208.40 166.38 219.70 162.21
  Q 220.96 161.75 220.27 162.90
  C 213.31 174.45 198.55 174.25 187.12 176.69
  A 1.35 1.35 0.0 0 1 185.49 175.34
  L 185.70 164.05
  Q 185.71 163.11 185.29 163.95
  Q 182.09 170.30 176.57 174.69
  Q 174.70 176.18 174.48 173.79
  Q 174.33 172.08 174.62 169.07
  C 175.75 157.26 177.71 146.22 177.32 133.75
  A 0.55 0.55 0.0 0 0 176.64 133.24
  L 172.00 134.38
  A 0.95 0.94 87.4 0 0 171.29 135.17
  Q 168.72 152.77 168.07 170.50
  C 167.93 174.34 163.38 177.51 160.52 179.37
  Q 159.52 180.02 159.50 178.83
  C 159.35 166.44 161.15 154.26 162.53 141.99
  Q 162.78 139.75 165.57 136.53
  A 0.12 0.11 -61.0 0 0 165.52 136.34
  L 165.25 136.25
  A 0.25 0.04 -26.8 0 0 165.06 136.31
  L 159.86 138.77
  Q 159.02 139.17 159.39 138.31
  C 163.04 129.85 176.02 126.04 184.34 124.70
  A 1.40 1.39 83.5 0 1 185.95 125.99
  Q 186.68 137.61 184.85 149.12
  Q 184.75 149.77 185.17 149.26
  Z"
/>
<path fill="#0b0b0b" d="
  M 316.26 168.05
  L 311.44 171.50
  A 1.60 1.57 27.6 0 1 310.45 171.80
  Q 304.53 171.58 301.88 167.51
  C 297.19 160.29 302.21 139.88 305.21 132.12
  Q 307.57 126.01 313.56 122.91
  A 0.66 0.66 0.0 0 1 314.52 123.51
  L 314.50 124.24
  Q 314.50 124.58 314.37 124.88
  Q 309.12 137.16 309.02 152.76
  Q 308.97 159.66 314.36 162.34
  A 0.60 0.60 0.0 0 0 315.11 162.14
  C 318.97 156.56 320.73 143.51 321.49 137.56
  C 322.16 132.33 325.22 129.05 329.82 126.97
  A 0.34 0.33 77.3 0 1 330.29 127.27
  C 330.55 142.32 325.79 157.28 323.68 172.15
  C 323.03 176.68 319.08 180.05 315.45 182.35
  Q 314.71 182.81 314.81 181.95
  L 316.55 168.22
  Q 316.60 167.80 316.26 168.05
  Z"
/>
<path fill="#0b0b0b" d="
  M 146.47 144.73
  C 146.18 144.65 140.15 153.55 139.44 154.53
  A 0.93 0.93 0.0 0 0 139.61 155.79
  C 143.95 159.41 137.13 164.62 134.28 166.48
  A 0.97 0.96 -53.6 0 1 133.51 166.60
  L 132.36 166.27
  A 0.97 0.96 -58.2 0 0 131.44 166.49
  C 129.78 168.01 126.21 170.62 127.61 173.19
  A 0.95 0.93 -43.3 0 1 127.57 174.14
  Q 124.76 178.50 120.04 180.74
  A 0.99 0.99 0.0 0 1 118.63 179.91
  C 118.04 169.83 119.14 160.04 121.26 147.46
  C 122.59 139.57 119.68 136.08 127.55 130.65
  Q 130.58 128.56 131.18 132.19
  Q 132.80 142.07 137.26 150.96
  A 0.45 0.44 49.8 0 0 138.01 151.03
  L 146.31 139.98
  A 1.47 1.43 -30.8 0 0 146.59 138.94
  Q 145.24 128.60 154.64 124.62
  A 0.36 0.36 0.0 0 1 155.14 124.94
  C 155.72 140.54 153.44 156.08 153.47 171.75
  Q 153.47 172.40 154.18 174.71
  A 0.98 0.97 -31.0 0 1 153.93 175.70
  L 147.01 182.41
  Q 145.03 184.34 144.94 181.58
  Q 144.33 163.29 146.76 145.16
  A 0.39 0.38 -79.3 0 0 146.47 144.73
  Z
  M 127.32 158.98
  L 127.22 163.58
  Q 127.20 164.66 127.85 163.80
  Q 129.75 161.32 128.32 158.73
  Q 127.36 157.00 127.32 158.98
  Z"
/>
<path fill="#d8d8d8" d="
  M 262.50 132.79
  L 265.61 139.97
  A 0.65 0.65 0.0 0 0 266.31 140.36
  L 266.96 140.25
  Q 265.58 151.57 265.12 164.79
  A 1.42 1.41 -7.2 0 1 264.11 166.09
  Q 254.88 168.81 245.27 169.54
  A 0.72 0.72 0.0 0 1 244.49 168.76
  C 244.56 167.76 244.96 162.16 243.86 161.60
  A 0.86 0.86 0.0 0 0 243.06 161.60
  L 242.09 162.10
  A 0.48 0.48 0.0 0 1 241.39 161.67
  L 241.54 154.27
  A 0.66 0.66 0.0 0 1 242.12 153.63
  C 250.56 152.65 260.57 153.36 264.80 144.43
  Q 265.41 143.15 264.00 143.28
  Q 254.15 144.17 244.47 146.31
  Q 241.92 146.88 242.42 144.31
  L 244.23 135.02
  A 0.82 0.80 87.7 0 1 244.78 134.41
  Q 253.44 131.70 262.50 132.79
  Z"
/>
<path fill="#d8d8d8" d="
  M 93.20 142.91
  Q 89.32 144.71 86.67 148.05
  Q 86.20 148.65 86.27 147.89
  C 87.04 139.34 90.29 132.25 100.76 133.34
  C 108.14 134.11 110.56 137.89 110.73 145.15
  C 110.92 152.76 110.08 160.33 105.93 166.87
  A 1.13 1.12 -79.5 0 1 105.24 167.35
  Q 97.70 168.96 90.93 165.52
  Q 89.18 164.63 89.37 162.68
  L 90.48 151.04
  A 2.07 2.03 -23.4 0 1 90.91 149.98
  Q 93.23 147.09 93.92 143.47
  Q 94.10 142.49 93.20 142.91
  Z"
/>
<path fill="#ffffff" d="
  M 19.84 150.53
  L 19.22 151.17
  A 0.67 0.66 -47.4 0 1 18.33 151.21
  L 17.56 150.57
  A 1.65 1.64 -77.3 0 1 17.00 149.68
  Q 16.27 146.60 13.98 144.38
  A 1.02 1.01 30.4 0 1 13.72 143.39
  L 14.22 141.68
  A 0.84 0.83 26.2 0 0 13.90 140.76
  Q 12.96 140.09 12.73 138.96
  Q 12.59 138.31 13.14 138.69
  L 15.15 140.11
  A 1.82 1.80 8.2 0 1 15.80 140.97
  L 18.68 149.25
  Q 19.05 150.31 19.53 149.30
  L 20.21 147.89
  A 0.66 0.65 31.7 0 1 21.20 147.66
  Q 22.84 148.92 23.01 151.03
  Q 23.09 152.09 22.23 151.47
  L 20.83 150.45
  A 0.77 0.77 0.0 0 0 19.84 150.53
  Z"
/>
<path fill="#d8d8d8" d="
  M 127.32 158.98
  Q 127.36 157.00 128.32 158.73
  Q 129.75 161.32 127.85 163.80
  Q 127.20 164.66 127.22 163.58
  L 127.32 158.98
  Z"
/>
<path fill="#ffffff" d="
  M 2.81 163.19
  C 3.95 163.25 2.89 164.78 2.19 164.93
  A 0.57 0.57 0.0 0 1 1.50 164.37
  L 1.50 163.01
  A 0.46 0.45 7.9 0 1 2.08 162.58
  Q 2.52 162.70 2.81 163.19
  Z"
/>
<path fill="#ffffff" d="
  M 48.69 204.00
  L 45.94 204.00
  C 46.34 203.65 46.34 203.21 46.01 202.78
  Q 40.11 195.33 37.25 186.39
  C 35.38 180.52 33.79 177.32 30.21 173.14
  Q 29.67 172.51 30.51 172.52
  L 33.42 172.55
  A 0.76 0.76 0.0 0 1 34.08 172.93
  Q 34.17 173.10 34.34 173.21
  Q 35.00 173.66 34.98 172.86
  L 34.96 171.72
  Q 34.94 170.61 35.53 171.55
  C 39.33 177.55 40.58 183.89 43.41 190.15
  C 45.44 194.65 46.69 199.43 48.69 204.00
  Z"
/>
<path fill="#d8d8d8" d="
  M 366.29 174.25
  L 366.00 173.96
  Q 366.84 172.45 368.26 171.56
  Q 368.92 171.14 368.41 171.74
  L 366.29 174.25
  Z"
/>
<path fill="#ffffff" d="
  M 280.40 185.96
  Q 280.86 186.54 280.89 187.24
  Q 280.93 187.97 280.46 187.41
  Q 279.25 186.00 279.49 184.19
  A 1.76 1.75 -54.8 0 0 279.31 183.13
  Q 277.87 180.26 277.77 177.01
  Q 277.73 175.72 278.40 176.82
  C 279.59 178.76 282.31 183.18 280.43 185.19
  A 0.59 0.58 -43.5 0 0 280.40 185.96
  Z"
/>
<path fill="#ffffff" d="
  M 14.20 184.18
  C 13.42 184.41 10.72 178.87 10.28 177.92
  Q 9.72 176.68 10.57 177.74
  Q 12.76 180.44 14.50 183.41
  A 0.53 0.53 0.0 0 1 14.20 184.18
  Z"
/>
<path fill="#ffffff" d="
  M 0.00 177.94
  L 0.35 185.83
  A 0.54 0.53 -0.6 0 0 0.88 186.34
  L 3.72 186.38
  A 0.61 0.61 0.0 0 1 4.26 187.24
  Q 3.96 187.92 3.17 188.12
  A 0.60 0.59 -11.2 0 0 2.72 188.78
  C 2.78 189.24 6.38 190.61 7.27 191.73
  Q 10.44 195.71 13.78 201.72
  Q 14.89 203.73 17.69 204.00
  L 0.00 204.00
  L 0.00 177.94
  Z"
/>
<path fill="#0b0b0b" d="
  M 315.83 187.14
  Q 316.48 186.37 317.30 185.78
  L 327.72 178.32
  A 0.35 0.35 0.0 0 1 328.27 178.53
  C 329.10 182.14 319.14 191.68 316.39 193.68
  A 2.10 2.09 -52.7 0 1 314.43 193.95
  C 310.60 192.55 314.45 188.78 315.83 187.14
  Z"
/>
<path fill="#ffffff" d="
  M 44.97 182.16
  Q 45.12 179.95 45.99 181.99
  L 48.06 186.79
  Q 48.47 187.76 47.58 187.19
  Q 44.75 185.35 44.97 182.16
  Z"
/>
<path fill="#ffffff" d="
  M 27.48 183.70
  Q 27.54 183.60 27.62 183.53
  C 28.80 182.45 29.57 183.17 30.10 184.36
  Q 32.29 189.27 34.74 194.03
  Q 34.82 194.18 36.20 198.07
  Q 36.36 198.52 35.98 199.03
  Q 35.26 199.99 34.89 198.84
  Q 32.56 191.69 27.11 186.48
  A 1.07 1.04 25.0 0 1 26.78 185.61
  Q 26.86 184.74 27.48 183.70
  Z"
/>
<path fill="#ffffff" d="
  M 35.19 204.00
  L 32.94 204.00
  Q 32.35 200.27 29.44 197.72
  A 0.52 0.52 0.0 0 1 29.39 196.98
  Q 30.18 196.08 31.37 196.12
  Q 32.22 196.14 31.71 196.83
  L 31.51 197.10
  A 0.85 0.85 0.0 0 0 31.47 198.05
  L 35.19 204.00
  Z"
/>
</svg>
