<?xml version="1.0" encoding="UTF-8" standalone="no"?>
<!-- Created with Inkscape (http://www.inkscape.org/) -->

<svg
   xmlns:dc="http://purl.org/dc/elements/1.1/"
   xmlns:cc="http://creativecommons.org/ns#"
   xmlns:rdf="http://www.w3.org/1999/02/22-rdf-syntax-ns#"
   xmlns:svg="http://www.w3.org/2000/svg"
   xmlns="http://www.w3.org/2000/svg"
   xmlns:sodipodi="http://sodipodi.sourceforge.net/DTD/sodipodi-0.dtd"
   xmlns:inkscape="http://www.inkscape.org/namespaces/inkscape"
   width="400"
   height="600"
   viewBox="0 0 105.83333 158.75"
   version="1.1"
   id="svg8"
   inkscape:version="0.92.4 (5da689c313, 2019-01-14)"
   sodipodi:docname="30_m.svg">
  <defs
     id="defs2" />
  <sodipodi:namedview
     id="base"
     pagecolor="#ffffff"
     bordercolor="#666666"
     borderopacity="1.0"
     inkscape:pageopacity="0.0"
     inkscape:pageshadow="2"
     inkscape:zoom="1.2816667"
     inkscape:cx="241.96523"
     inkscape:cy="347.3477"
     inkscape:document-units="mm"
     inkscape:current-layer="layer1"
     showgrid="false"
     units="px"
     showguides="true"
     inkscape:guide-bbox="true"
     inkscape:window-width="1280"
     inkscape:window-height="968"
     inkscape:window-x="0"
     inkscape:window-y="0"
     inkscape:window-maximized="1">
    <sodipodi:guide
       position="20.78869,60.476191"
       orientation="1,0"
       id="guide859"
       inkscape:locked="false" />
    <sodipodi:guide
       position="20.78869,128.88988"
       orientation="1,0"
       id="guide863"
       inkscape:locked="false" />
    <sodipodi:guide
       position="12.85119,57.641369"
       orientation="1,0"
       id="guide865"
       inkscape:locked="false" />
    <sodipodi:guide
       position="32.339612,108.51143"
       orientation="0,1"
       id="guide867"
       inkscape:locked="false" />
    <sodipodi:guide
       position="-9.0871638,97.553376"
       orientation="0,1"
       id="guide2596"
       inkscape:locked="false" />
    <sodipodi:guide
       position="-16.036171,64.144687"
       orientation="0,1"
       id="guide2598"
       inkscape:locked="false" />
  </sodipodi:namedview>
  <metadata
     id="metadata5">
    <rdf:RDF>
      <cc:Work
         rdf:about="">
        <dc:format>image/svg+xml</dc:format>
        <dc:type
           rdf:resource="http://purl.org/dc/dcmitype/StillImage" />
        <dc:title></dc:title>
      </cc:Work>
    </rdf:RDF>
  </metadata>
  <g
     inkscape:label="Layer 1"
     inkscape:groupmode="layer"
     id="layer1"
     transform="translate(0,-138.24998)">
    <rect
       style="opacity:1;fill:#ffffff;fill-opacity:0.60101007;stroke:#000000;stroke-width:0.27790931;stroke-miterlimit:4;stroke-dasharray:none;stroke-dashoffset:0;stroke-opacity:1"
       id="rect10"
       width="105.4538"
       height="158.75175"
       x="0.17799145"
       y="138.24911"
       ry="7.9375877" />
    <flowRoot
       xml:space="preserve"
       id="flowRoot851"
       style="fill:black;fill-opacity:1;stroke:none;font-family:sans-serif;font-style:normal;font-weight:normal;font-size:40px;line-height:0;letter-spacing:0px;word-spacing:0px"><flowRegion
         id="flowRegion853"><rect
           id="rect855"
           width="114.28571"
           height="65.714287"
           x="47.142857"
           y="194.28572" /></flowRegion><flowPara
         id="flowPara857" /></flowRoot>    <text
       xml:space="preserve"
       style="font-style:normal;font-weight:normal;font-size:33.90801239px;line-height:0;font-family:sans-serif;letter-spacing:0px;word-spacing:0px;fill:#666666;fill-opacity:1;stroke:none;stroke-width:0.84770024"
       x="16.134531"
       y="174.63515"
       id="text827"><tspan
         sodipodi:role="line"
         id="tspan825"
         x="16.134531"
         y="174.63515"
         style="font-style:normal;font-variant:normal;font-weight:bold;font-stretch:normal;font-family:Arsenal;-inkscape-font-specification:'Arsenal Bold';fill:#666666;stroke-width:0.84770024">30</tspan></text>
    <g
       id="g34062"
       transform="matrix(0.21974808,0,0,0.21974808,5.6793569,178.08489)">
      <g
         id="g33885"
         style="fill:none;stroke-width:2;stroke-linecap:butt">
        <path
           id="path33787"
           d="m 219.83,-0.01 q 3.78,2.85 4.9,7.41 0.54,2.2 1.51,3.54 c 6.3,8.7 9,16.4 12.11,26.13 1.18,3.69 -0.2,10.42 3.4,12.47"
           inkscape:connector-curvature="0"
           style="vector-effect:non-scaling-stroke;stroke:#ececec" />
        <path
           id="path33789"
           d="m 241.75,49.54 -4,1.92"
           inkscape:connector-curvature="0"
           style="vector-effect:non-scaling-stroke;stroke:#727272" />
        <path
           id="path33791"
           d="m 237.75,51.46 q -0.14,-1.72 -1.29,-2.97 a 0.71,0.7 55.7 0 0 -0.84,-0.16 q -1.57,0.8 -2.53,2.31 -0.29,0.44 -0.72,0.73 l -2.08,1.38"
           inkscape:connector-curvature="0"
           style="vector-effect:non-scaling-stroke;stroke:#ececec" />
        <path
           id="path33793"
           d="m 230.29,52.75 q -0.66,-2.36 -0.06,-4.85 0.27,-1.11 -0.72,-0.54 c -3.24,1.87 -8,5.71 -8.13,9.86 q -0.24,7.81 -0.12,15.67 a 0.62,0.62 0 0 1 -0.52,0.62 l -10.01,1.77 q -2.31,0.41 -1.29,-1.7 5.7,-11.74 13.26,-23.98 c 1.62,-2.63 4.4,-4.69 6.08,-7.74 a 0.52,0.51 -62 0 0 -0.21,-0.71 c -2.27,-1.17 -9.21,7.08 -10.52,9.02 q -5.52,8.2 -10.24,16.98 -0.23,0.42 -0.44,-0.01 c -3.02,-6.32 -9,-4.93 -14.66,-4.6 a 0.35,0.34 -81.1 0 1 -0.34,-0.47 q 3.39,-8.75 0.17,-17.54 a 1.1,1.1 0 0 0 -1.1,-0.72 q -8.39,0.41 -14.99,5.4 -0.59,0.44 -0.24,-0.2 c 0.07,-0.14 1.97,-3.21 1.85,-3.62 a 0.46,0.45 66.1 0 0 -0.67,-0.26 q -3.33,1.98 -5.8,4.97 -6.38,7.71 -12.81,15.48 A 0.41,0.41 0 0 1 158.1,65.5 l -6.68,-13.73 a 0.55,0.55 0 0 0 -0.74,-0.25 q -5.01,2.56 -8.04,7.25 a 0.8,0.8 0 0 0 -0.05,0.79 l 6.26,13.16 q 1.04,2.19 -0.82,3.73 -11.56,9.54 -21.47,17.87 -2.92,2.46 -4.49,6.82 a 1.02,1.01 -52.3 0 0 0.11,0.9 c 1.48,2.3 7.77,-5.52 8.63,-6.63 5.22,-6.73 13.39,-12.39 19.86,-18.13 a 0.48,0.48 0 0 1 0.75,0.17 q 3.67,8.3 10.33,14.43 a 1.28,1.26 20 0 1 0.41,0.86 l 0.37,6.84 q 0.15,2.77 2.92,2.92 l 6.03,0.34 a 0.63,0.63 0 0 1 0.59,0.64 l -0.24,19.92 a 0.25,0.25 0 0 0 0.36,0.22 q 4.72,-2.5 7.4,-6.97 c 2.05,-3.42 1.16,-10.19 1.18,-14.19 a 0.75,0.74 82.4 0 1 0.54,-0.72 q 7.85,-2.16 14.47,-6.86 a 0.36,0.36 0 0 1 0.56,0.2 c 1.81,6.54 12.82,2.23 15.7,-0.53 0.8,-0.77 4.7,-4.92 4.47,-5.88 a 0.44,0.44 0 0 0 -0.6,-0.3 q -4.37,1.83 -9.13,0.93 a 1.64,1.64 0 0 1 -1.33,-1.72 l 0.24,-3.35 a 0.83,0.83 0 0 1 0.66,-0.76 l 14.41,-3.01 a 0.51,0.5 86.7 0 1 0.61,0.55 q -0.93,9.23 2.94,17.56 a 0.73,0.73 0 0 0 1.17,0.22 l 7.29,-6.97 a 1.08,1.06 -29.9 0 0 0.29,-1.04 l -1.27,-4.53"
           inkscape:connector-curvature="0"
           style="vector-effect:non-scaling-stroke;stroke:#727272" />
        <path
           id="path33795"
           d="m 231.79,86.25 3.33,-0.93 a 1.75,1.74 74.6 0 1 2.16,1.23 q 2,7.57 5.65,14.47 a 1.02,1.01 52.9 0 0 1.63,0.23 c 1.17,-1.21 2.99,1.89 3.98,2.36 q 1.06,0.5 0.55,-0.56 l -1.13,-2.31 q -0.17,-0.37 -0.18,-0.78 -0.01,-1.64 -1.28,-2.75"
           inkscape:connector-curvature="0"
           style="vector-effect:non-scaling-stroke;stroke:#ececec" />
        <path
           id="path33797"
           d="m 246.5,97.21 2.71,-1.96"
           inkscape:connector-curvature="0"
           style="vector-effect:non-scaling-stroke;stroke:#727272" />
        <path
           id="path33799"
           d="m 249.21,95.25 c 0.55,2.65 1.43,7.49 3.91,6.97 a 0.55,0.55 0 0 1 0.63,0.35 c 0.32,0.89 2.6,4.83 1.22,5.64 a 0.59,0.58 -28.7 0 0 -0.23,0.77 l 0.77,1.5 a 0.61,0.6 49.3 0 1 -0.04,0.61 c -0.72,1.05 2.37,4.36 0.93,4.85 a 0.52,0.52 0 0 1 -0.68,-0.41 q -0.51,-3.21 -3.57,-3.71 a 0.49,0.48 13.6 0 1 -0.39,-0.63 q 0.65,-2.01 -0.31,-3.83 -0.43,-0.8 -0.65,0.08 l -0.63,2.58 a 1.04,1.02 -57.9 0 0 0.2,0.91 q 2.7,3.31 4.51,7.17 c 0.88,1.88 2.53,2.96 3.45,4.94 a 0.86,0.85 79.9 0 0 0.71,0.5 l 3.21,0.25"
           inkscape:connector-curvature="0"
           style="vector-effect:non-scaling-stroke;stroke:#ececec" />
        <path
           id="path33801"
           d="m 262.25,123.79 -13.89,2.57 a 1.28,1.28 0 0 1 -1.51,-1.37 c 0.09,-1.13 1.68,-4.02 -0.38,-4.63 q -1.58,-0.46 -3.16,0.03 c -10.88,3.38 -23.92,7.73 -30.68,17.11 a 0.67,0.66 -66.1 0 0 0.4,1.04 c 0.89,0.19 9,-4.36 10.41,-5.08 q 1.65,-0.83 0.72,0.77 -0.85,1.47 -2.07,2.62 a 0.62,0.62 0 0 0 -0.05,0.85 l 1.53,1.82 a 1.22,1.21 -65.5 0 1 0.29,0.79 q 0.05,11.1 -1.13,22.13 c -0.64,5.96 -0.46,11.49 -0.47,17.31 a 0.38,0.38 0 0 0 0.52,0.35 c 5.5,-2.2 7.91,-5.92 8.18,-11.99 q 0.71,-15.9 1.2,-20.18 c 0.76,-6.56 0.25,-11.22 1.51,-17.43 a 1.29,1.28 -11.9 0 1 0.54,-0.82 q 1.73,-1.2 3.82,-0.45 a 0.77,0.76 -60 0 1 0.32,1.21 c -0.88,1.05 -4.7,4.89 -4.31,6.2 a 0.59,0.58 71.7 0 0 0.75,0.38 l 1.62,-0.57 q 0.75,-0.26 0.52,0.5 -5.2,17.53 -4.31,35.85 0.02,0.48 -0.17,0.91 l -1.48,3.48 a 0.77,0.76 -78.3 0 0 0.7,1.07 c 9.32,-0.01 25.45,-1.31 33.01,-7.47 q 0.48,-0.4 0.51,0.22 l 0.25,4.67 q 0.12,2.39 1.85,0.73 l 7.12,-6.87 a 0.88,0.86 -32.5 0 0 0.21,-0.9 q -1.1,-3.16 -0.05,-6.85"
           inkscape:connector-curvature="0"
           style="vector-effect:non-scaling-stroke;stroke:#727272" />
        <path
           id="path33803"
           d="m 274.57,161.79 q 7.86,20.55 15.35,41.24 0.25,0.67 -0.48,0.97"
           inkscape:connector-curvature="0"
           style="vector-effect:non-scaling-stroke;stroke:#ececec" />
        <path
           id="path33805"
           d="m 48.69,204 c -2,-4.57 -3.25,-9.35 -5.28,-13.85 -2.83,-6.26 -4.08,-12.6 -7.88,-18.6 q -0.59,-0.94 -0.57,0.17 l 0.02,1.14 q 0.02,0.8 -0.64,0.35 -0.17,-0.11 -0.26,-0.28 a 0.76,0.76 0 0 0 -0.66,-0.38 l -2.91,-0.03 q -0.84,-0.01 -0.3,0.62 c 3.58,4.18 5.17,7.38 7.04,13.25 q 2.86,8.94 8.76,16.39 c 0.33,0.43 0.33,0.87 -0.07,1.22"
           inkscape:connector-curvature="0"
           style="vector-effect:non-scaling-stroke;stroke:#ececec" />
        <path
           id="path33807"
           d="m 35.19,204 -3.72,-5.95 a 0.85,0.85 0 0 1 0.04,-0.95 l 0.2,-0.27 q 0.51,-0.69 -0.34,-0.71 -1.19,-0.04 -1.98,0.86 a 0.52,0.52 0 0 0 0.05,0.74 q 2.91,2.55 3.5,6.28"
           inkscape:connector-curvature="0"
           style="vector-effect:non-scaling-stroke;stroke:#ececec" />
        <path
           id="path33809"
           d="m 17.69,204 q -2.8,-0.27 -3.91,-2.28 -3.34,-6.01 -6.51,-9.99 c -0.89,-1.12 -4.49,-2.49 -4.55,-2.95 a 0.6,0.59 -11.2 0 1 0.45,-0.66 q 0.79,-0.2 1.09,-0.88 A 0.61,0.61 0 0 0 3.72,186.38 L 0.88,186.34 A 0.54,0.53 -0.6 0 1 0.35,185.83 L 0,177.94"
           inkscape:connector-curvature="0"
           style="vector-effect:non-scaling-stroke;stroke:#ececec" />
        <path
           id="path33811"
           d="m 0,128.94 q -0.01,-0.69 0.43,-1.16 a 0.37,0.37 0 0 1 0.61,0.09 q 3.42,7.11 6.04,14.56 c 1.35,3.87 7.76,8.66 6.51,12.7 a 0.78,0.77 -62 0 0 0.25,0.84 q 4,3.19 4.08,8.35 a 1.17,1.15 18.9 0 0 0.46,0.92 q 0.43,0.32 0.38,0.87 a 0.45,0.45 0 0 1 -0.56,0.4 l -1.09,-0.28 q -0.66,-0.17 -0.42,0.47 l 0.74,1.96 a 0.56,0.56 0 0 0 0.64,0.35 q 0.67,-0.15 1.02,-0.76 a 1.08,1.07 -77.3 0 1 0.83,-0.53 c 0.56,-0.05 0.91,0.42 1.04,0.97 0.83,3.58 5.01,9 7.41,11.88 q 0.33,0.39 0.14,-0.08 -3.35,-7.99 -6.91,-15.88 c -0.91,-2 -0.62,-3.94 -3.24,-5.27 a 0.44,0.43 -49.3 0 1 -0.05,-0.74 l 3.01,-2.16 a 0.81,0.8 56.5 0 0 0.21,-1.07 l -1.95,-3.11 a 0.78,0.77 -29.9 0 0 -1.02,-0.27 q -1.13,0.59 -1.69,-0.61 a 1.16,1.16 0 0 0 -0.69,-0.62 c -2.3,-0.75 -7.82,-14.3 -5.51,-16.65 a 0.56,0.56 0 0 0 -0.09,-0.87 L 10,132.85 a 0.61,0.61 0 0 0 -0.94,0.42 l -0.25,1.72 a 0.24,0.24 0 0 1 -0.31,0.2 L 7.91,135 A 0.94,0.94 0 0 1 7.3,134.35 l -0.81,-3.06 a 1.69,1.67 13.5 0 0 -0.54,-0.87 c -1.46,-1.3 -2.7,-5 -5.03,-4.25 a 0.49,0.48 79.9 0 1 -0.63,-0.44 l -0.06,-0.91 q -0.06,-1.01 0.66,-0.3 l 0.28,0.27 a 0.46,0.46 0 0 0 0.73,-0.11 l 0.26,-0.5 A 0.59,0.59 0 0 0 1.95,123.4 C -0.88,121.67 0.5,116.3 0,112.44"
           inkscape:connector-curvature="0"
           style="vector-effect:non-scaling-stroke;stroke:#ececec" />
        <path
           id="path33813"
           d="m 190.69,6.56 q -0.16,1.48 0.95,2.07 0.85,0.45 0.46,-0.42 L 191,5.74 q -0.2,-0.47 -0.46,-0.02 -0.22,0.39 0.15,0.84"
           inkscape:connector-curvature="0"
           style="vector-effect:non-scaling-stroke;stroke:#ececec" />
        <path
           id="path33815"
           d="m 213.89,8.88 q 0.65,-1.02 0.04,-2.01 a 0.88,0.85 68 0 0 -0.89,-0.39 l -1.87,0.36 a 0.49,0.49 0 0 0 -0.35,0.7 c 0.36,0.71 2.78,5.66 3.4,5.48 a 0.51,0.5 -16.5 0 0 0.35,-0.64 l -0.81,-2.49 a 1.22,1.19 52.9 0 1 0.13,-1.01"
           inkscape:connector-curvature="0"
           style="vector-effect:non-scaling-stroke;stroke:#ececec" />
        <path
           id="path33817"
           d="m 82,97.31 q -0.49,0.98 -0.49,-0.12 L 81.5,69.7 a 0.52,0.51 -88.9 0 1 0.53,-0.52 q 10.64,0.42 15.37,-8.81 0.37,-0.72 -0.44,-0.61 l -14.8,2 a 0.37,0.36 88.1 0 1 -0.41,-0.39 c 1.1,-15.72 3.41,-31.85 3.49,-47.56 A 0.34,0.34 0 0 0 84.77,13.5 C 80.24,15.43 77,18.56 76.58,23.74 Q 74.96,43.75 73.3,63.8 a 0.78,0.77 -5.3 0 1 -0.58,0.69 L 66,66.32 A 0.38,0.38 0 0 1 65.52,65.93 Q 66.69,44.12 66.5,22.28 a 0.35,0.35 0 0 0 -0.48,-0.32 c -4.77,1.9 -7.98,5.49 -8.06,10.86 q -0.29,17.75 -1.14,35.57 a 2.12,2.1 -12.9 0 1 -1.13,1.78 q -4.15,2.19 -6.14,6.48 a 0.4,0.4 0 0 0 0.38,0.57 q 3.47,-0.11 6.5,-1.82 0.62,-0.35 0.56,0.36 -1.1,13.17 -0.69,26.44 0.09,2.96 2.2,0.88 l 6.63,-6.57 a 1.29,1.28 -22.4 0 0 0.39,-0.92 L 65.49,74.2 a 1.5,1.5 0 0 1 1.07,-1.44 l 5.68,-1.68 a 0.39,0.39 0 0 1 0.5,0.38 l 0.02,33.73 q 0,2.77 2.77,2.61 1.99,-0.12 3.52,-1.51 2.66,-2.43 5.09,-5.1 c 3.95,-4.33 6.41,-10.49 9.12,-15.75 q 0.25,-0.49 0.36,0.05 l 1.93,9.32 q 0.58,2.81 3.45,2.71 7.75,-0.28 16.05,-1.85 C 123.9,94 130.19,92.69 134.31,85.24 q 0.76,-1.38 -0.76,-0.95 -13.55,3.81 -27.62,4.53 a 0.65,0.64 88.3 0 1 -0.68,-0.65 V 78.05 a 0.72,0.72 0 0 1 0.52,-0.69 q 6.7,-1.92 13.69,-2.14 a 1.33,1.33 0 0 0 0.9,-0.4 l 6.96,-7.15 q 0.52,-0.54 -0.21,-0.69 c -5.93,-1.19 -15.89,2.08 -22.05,3.33 a 0.48,0.48 0 0 1 -0.58,-0.47 l 0.06,-9.71 a 0.77,0.77 0 0 1 0.49,-0.72 c 4.75,-1.92 15.03,-5.25 19.67,-3.86 a 1,1 0 0 0 0.88,-0.16 c 2.62,-1.95 6.96,-5.19 6.92,-8.38 a 0.49,0.49 0 0 0 -0.51,-0.49 c -13.46,0.4 -26.53,5.35 -34.31,16.74 -1.44,2.1 -2.34,5.08 -3.91,7.5 q -1.79,2.75 -2.52,4.85 -3.94,11.2 -9.25,21.7"
           inkscape:connector-curvature="0"
           style="vector-effect:non-scaling-stroke;stroke:#727272" />
        <path
           id="path33819"
           d="m 222.7597,21.7455 a 1.48,0.63 55.9 0 0 -0.308,-1.5787 1.48,0.63 55.9 0 0 -1.3514,-0.8723 1.48,0.63 55.9 0 0 0.308,1.5787 1.48,0.63 55.9 0 0 1.3514,0.8723"
           inkscape:connector-curvature="0"
           style="vector-effect:non-scaling-stroke;stroke:#ececec" />
        <path
           id="path33821"
           d="m 215.25,36.5 q -0.12,-4.35 -2.91,-6.93 -0.31,-0.29 -0.34,0.13 l -0.02,0.36 a 1.47,1.47 0 0 0 0.24,0.9 q 3.4,5.15 2.83,11.11 c -0.15,1.6 0.43,7.59 2.49,7.45 A 0.4,0.39 78.4 0 0 217.88,49 q -2.49,-7.64 -2.63,-12.5"
           inkscape:connector-curvature="0"
           style="vector-effect:non-scaling-stroke;stroke:#ececec" />
        <path
           id="path33823"
           d="m 64.64,147.94 0.56,-22.98 q 0.07,-2.7 -1.89,-0.86 l -5.18,4.86 q -2.12,1.98 -2.12,4.89 L 56,157.67 a 1.59,1.52 -29.1 0 1 -0.27,0.87 c -3.01,4.4 -5.35,13.46 -1.05,17.8 1.18,1.2 1.38,2.21 1.93,3.68 a 1.38,1.38 0 0 0 2.01,0.72 c 1.41,-0.84 2.12,-1.79 3.77,-2.19 7.02,-1.68 9.73,-5.32 14.95,-9.32 a 0.47,0.46 -34.8 0 1 0.67,0.12 c 2.46,3.82 4.68,8.11 8.29,9.07 8.89,2.36 13.88,-1.83 20.4,-8.07 q 14.41,-13.82 12.75,-35.09 -0.83,-10.7 -11.72,-10.8 -5.2,-0.04 -7.41,1.06 -22.93,11.56 -23.52,37.06 c -0.17,7.2 -5.56,7.53 -11.55,6.73 a 0.59,0.58 3.9 0 1 -0.51,-0.58 l 0.03,-15.17 a 3.04,3.02 66.1 0 1 0.77,-2.02 Q 77.87,137.89 87.77,122.4 a 0.42,0.42 0 0 0 -0.26,-0.63 c -2.27,-0.49 -7.18,5.54 -8.51,7.59 q -6.39,9.79 -13.91,18.74 -0.46,0.56 -0.45,-0.16"
           inkscape:connector-curvature="0"
           style="vector-effect:non-scaling-stroke;stroke:#727272" />
        <path
           id="path33825"
           d="m 9.94,122.11 c -3.88,-1.31 -4.09,7.71 0.99,9.98 1.46,0.65 1.98,1.33 2.66,2.65 a 0.86,0.85 -10.4 0 0 0.67,0.46 l 2.93,0.32 q 0.61,0.07 0.31,-0.48 l -6.77,-12.27 a 1.45,1.45 0 0 0 -0.79,-0.66"
           inkscape:connector-curvature="0"
           style="vector-effect:non-scaling-stroke;stroke:#ececec" />
        <path
           id="path33827"
           d="m 184.85,149.12 q 1.83,-11.51 1.1,-23.13 a 1.4,1.39 83.5 0 0 -1.61,-1.29 c -8.32,1.34 -21.3,5.15 -24.95,13.61 q -0.37,0.86 0.47,0.46 l 5.2,-2.46 a 0.25,0.04 -26.8 0 1 0.19,-0.06 l 0.27,0.09 a 0.12,0.11 -61 0 1 0.05,0.19 q -2.79,3.22 -3.04,5.46 c -1.38,12.27 -3.18,24.45 -3.03,36.84 q 0.02,1.19 1.02,0.54 c 2.86,-1.86 7.41,-5.03 7.55,-8.87 q 0.65,-17.73 3.22,-35.33 a 0.95,0.94 87.4 0 1 0.71,-0.79 l 4.64,-1.14 a 0.55,0.55 0 0 1 0.68,0.51 c 0.39,12.47 -1.57,23.51 -2.7,35.32 q -0.29,3.01 -0.14,4.72 0.22,2.39 2.09,0.9 5.52,-4.39 8.72,-10.74 0.42,-0.84 0.41,0.1 l -0.21,11.29 a 1.35,1.35 0 0 0 1.63,1.35 c 11.43,-2.44 26.19,-2.24 33.15,-13.79 q 0.69,-1.15 -0.57,-0.69 -11.3,4.17 -23.33,4.67 a 0.48,0.48 0 0 1 -0.51,-0.51 l 0.92,-14.29 a 2.02,2.02 0 0 1 1.8,-1.89 l 12.1,-1.26 a 1.73,1.73 0 0 0 0.91,-0.37 q 4.01,-3.16 6.84,-7.41 0.55,-0.83 -0.44,-0.79 -10.58,0.36 -20.7,3.52 a 0.42,0.42 0 0 1 -0.55,-0.41 l 0.04,-8.57 q 0.01,-1.93 1.9,-2.35 6.44,-1.43 13.03,-0.98 a 0.79,0.78 83.7 0 1 0.71,0.58 q 0.26,0.99 1.15,1.36 a 0.94,0.94 0 0 0 0.96,-0.14 c 2.96,-2.47 6.86,-5.4 6.76,-9.62 a 0.64,0.63 -86.1 0 0 -0.52,-0.6 c -15.07,-2.77 -30.24,6.51 -33.03,21.82 -0.37,2.04 -1.35,2.81 -2.57,4.29 q -0.42,0.51 -0.32,-0.14"
           inkscape:connector-curvature="0"
           style="vector-effect:non-scaling-stroke;stroke:#727272" />
        <path
           id="path33829"
           d="m 139.44,154.53 c 0.71,-0.98 6.74,-9.88 7.03,-9.8 a 0.39,0.38 -79.3 0 1 0.29,0.43 q -2.43,18.13 -1.82,36.42 0.09,2.76 2.07,0.83 l 6.92,-6.71 a 0.98,0.97 -31 0 0 0.25,-0.99 q -0.71,-2.31 -0.71,-2.96 c -0.03,-15.67 2.25,-31.21 1.67,-46.81 a 0.36,0.36 0 0 0 -0.5,-0.32 q -9.4,3.98 -8.05,14.32 a 1.47,1.43 -30.8 0 1 -0.28,1.04 l -8.3,11.05 a 0.45,0.44 49.8 0 1 -0.75,-0.07 q -4.46,-8.89 -6.08,-18.77 -0.6,-3.63 -3.63,-1.54 c -7.87,5.43 -4.96,8.92 -6.29,16.81 -2.12,12.58 -3.22,22.37 -2.63,32.45 a 0.99,0.99 0 0 0 1.41,0.83 q 4.72,-2.24 7.53,-6.6 a 0.95,0.93 -43.3 0 0 0.04,-0.95 c -1.4,-2.57 2.17,-5.18 3.83,-6.7 a 0.97,0.96 -58.2 0 1 0.92,-0.22 l 1.15,0.33 a 0.97,0.96 -53.6 0 0 0.77,-0.12 c 2.85,-1.86 9.67,-7.07 5.33,-10.69 a 0.93,0.93 0 0 1 -0.17,-1.26"
           inkscape:connector-curvature="0"
           style="vector-effect:non-scaling-stroke;stroke:#727272" />
        <path
           id="path33831"
           d="m 20.83,150.45 1.4,1.02 q 0.86,0.62 0.78,-0.44 -0.17,-2.11 -1.81,-3.37 a 0.66,0.65 31.7 0 0 -0.99,0.23 l -0.68,1.41 q -0.48,1.01 -0.85,-0.05 l -2.88,-8.28 a 1.82,1.8 8.2 0 0 -0.65,-0.86 l -2.01,-1.42 q -0.55,-0.38 -0.41,0.27 0.23,1.13 1.17,1.8 a 0.84,0.83 26.2 0 1 0.32,0.92 l -0.5,1.71 a 1.02,1.01 30.4 0 0 0.26,0.99 q 2.29,2.22 3.02,5.3 a 1.65,1.64 -77.3 0 0 0.56,0.89 l 0.77,0.64 a 0.67,0.66 -47.4 0 0 0.89,-0.04 l 0.62,-0.64 a 0.77,0.77 0 0 1 0.99,-0.08"
           inkscape:connector-curvature="0"
           style="vector-effect:non-scaling-stroke;stroke:#ececec" />
        <path
           id="path33833"
           d="M 2.81,163.19 Q 2.52,162.7 2.08,162.58 a 0.46,0.45 7.9 0 0 -0.58,0.43 v 1.36 a 0.57,0.57 0 0 0 0.69,0.56 c 0.7,-0.15 1.76,-1.68 0.62,-1.74"
           inkscape:connector-curvature="0"
           style="vector-effect:non-scaling-stroke;stroke:#ececec" />
        <path
           id="path33835"
           d="m 280.43,185.19 c 1.88,-2.01 -0.84,-6.43 -2.03,-8.37 q -0.67,-1.1 -0.63,0.19 0.1,3.25 1.54,6.12 a 1.76,1.75 -54.8 0 1 0.18,1.06 q -0.24,1.81 0.97,3.22 0.47,0.56 0.43,-0.17 -0.03,-0.7 -0.49,-1.28 a 0.59,0.58 -43.5 0 1 0.03,-0.77"
           inkscape:connector-curvature="0"
           style="vector-effect:non-scaling-stroke;stroke:#ececec" />
        <path
           id="path33837"
           d="m 10.28,177.92 c 0.44,0.95 3.14,6.49 3.92,6.26 a 0.53,0.53 0 0 0 0.3,-0.77 q -1.74,-2.97 -3.93,-5.67 -0.85,-1.06 -0.29,0.18"
           inkscape:connector-curvature="0"
           style="vector-effect:non-scaling-stroke;stroke:#ececec" />
        <path
           id="path33839"
           d="m 44.97,182.16 q -0.22,3.19 2.61,5.03 0.89,0.57 0.48,-0.4 l -2.07,-4.8 q -0.87,-2.04 -1.02,0.17"
           inkscape:connector-curvature="0"
           style="vector-effect:non-scaling-stroke;stroke:#ececec" />
        <path
           id="path33841"
           d="m 27.48,183.7 q -0.62,1.04 -0.7,1.91 a 1.07,1.04 25 0 0 0.33,0.87 q 5.45,5.21 7.78,12.36 0.37,1.15 1.09,0.19 0.38,-0.51 0.22,-0.96 -1.38,-3.89 -1.46,-4.04 -2.45,-4.76 -4.64,-9.67 c -0.53,-1.19 -1.3,-1.91 -2.48,-0.83 q -0.08,0.07 -0.14,0.17"
           inkscape:connector-curvature="0"
           style="vector-effect:non-scaling-stroke;stroke:#ececec" />
        <path
           id="path33843"
           d="m 274.57,161.79 q -1.15,-6.04 -0.29,-12.62 a 0.6,0.59 88.7 0 1 0.47,-0.5 l 9.61,-1.86 a 0.32,0.32 0 0 1 0.37,0.37 q -1.99,11.4 -1.93,23.04 c 0.01,2.12 -0.14,3.85 0.89,5.74 q 1.39,2.54 3.9,1.09 4.82,-2.78 7.61,-7.55 a 0.43,0.43 0 0 0 -0.26,-0.63 q -3.16,-0.88 -3.37,-3.67 -0.77,-10.1 1.55,-22.94 a 1.58,1.56 -17.2 0 1 0.45,-0.84 c 5.32,-5.29 12.05,-12.65 4.05,-19.77 a 1.91,1.91 0 0 0 -2.18,-0.25 c -8.02,4.37 -8.33,9.23 -9.3,17.56 a 0.82,0.81 0 0 1 -0.73,0.72 l -9.73,0.98 a 0.45,0.44 89 0 1 -0.49,-0.48 l 0.72,-11.63 a 0.5,0.49 80.9 0 0 -0.67,-0.49 q -8.33,3.22 -8.28,12.19"
           inkscape:connector-curvature="0"
           style="vector-effect:non-scaling-stroke;stroke:#858585" />
        <path
           id="path33845"
           d="m 266.96,140.25 -0.65,0.11 a 0.65,0.65 0 0 1 -0.7,-0.39 l -3.11,-7.18"
           inkscape:connector-curvature="0"
           style="vector-effect:non-scaling-stroke;stroke:#ececec" />
        <path
           id="path33847"
           d="m 262.5,132.79 q 5.12,-3.1 7.96,-8.3 A 0.33,0.33 0 0 0 270.17,124 l -7.92,-0.21"
           inkscape:connector-curvature="0"
           style="vector-effect:non-scaling-stroke;stroke:#858585" />
        <path
           id="path33849"
           d="m 249.21,95.25 q 2.56,-2.28 4.35,-5.31 A 1.78,1.74 -31.9 0 0 253.79,89 q -0.34,-9.54 0.36,-19.03 c 0.41,-5.61 0.27,-11.25 0.64,-16.89 a 0.6,0.6 0 0 1 0.53,-0.56 c 7.59,-0.84 15.07,0.36 19.2,-7.87 q 1,-2 -1.23,-1.84 -16.43,1.17 -31.54,6.73"
           inkscape:connector-curvature="0"
           style="vector-effect:non-scaling-stroke;stroke:#858585" />
        <path
           id="path33851"
           d="m 282.06,66.64 c -0.37,-6.06 0.15,-11.53 -0.5,-18.13 a 0.37,0.37 0 0 0 -0.51,-0.3 c -4.51,1.97 -7.83,5.51 -7.81,10.71 q 0.03,9.79 0,19.64 a 3.57,3.57 0 0 1 -0.62,2.01 q -3.64,5.41 -5.56,11.58 -0.81,2.61 1.82,3.33 l 3.83,1.05 a 0.72,0.72 0 0 1 0.53,0.68 l 0.04,3.06 q 0.01,0.69 0.58,0.31 c 3.15,-2.1 5.57,-4.79 8.75,-6.71 q 5.38,-3.26 10.21,-7.38 a 0.58,0.58 0 0 1 0.94,0.33 c 0.78,4.01 3.53,6.84 6.78,9.1 2.24,1.56 5.03,1.62 7.72,2.26 a 1.88,1.82 41.8 0 0 1,-0.04 q 7.59,-2.5 12.54,-8.73 0.42,-0.52 0.47,0.15 c 0.21,3.08 -0.69,12.83 1.88,14.36 a 0.86,0.84 44.4 0 0 0.87,0 q 4.37,-2.58 7.17,-6.82 a 0.88,0.87 -41.3 0 0 0.06,-0.87 q -0.75,-1.6 -0.84,-2.54 c -0.68,-7.21 -0.86,-14.06 1.22,-21.08 2.83,-9.55 5.03,-21.35 -7.58,-24.93 q -4.55,-1.29 -8.94,-0.36 c -11.27,2.39 -22.71,23.16 -21.9,33.75 a 2.21,2.2 70 0 1 -0.91,1.95 q -4.48,3.27 -9.81,4.78 a 1.22,1.22 0 0 1 -1.55,-1.09 c -0.34,-4.92 -1.2,-13.05 1.87,-17.4 q 5.81,-8.23 13.28,-14.97 1.04,-0.94 1.69,-2.16 a 0.29,0.29 0 0 0 -0.22,-0.42 c -4.1,-0.47 -14.07,11.59 -16.17,14.97 q -0.29,0.47 -0.33,-0.09"
           inkscape:connector-curvature="0"
           style="vector-effect:non-scaling-stroke;stroke:#858585" />
        <path
           id="path33853"
           d="m 264.76,100.22 q 0.09,1.98 -0.87,3.74 a 1.3,1.3 0 0 0 -0.1,1 q 0.79,2.56 2.34,4.78 0.78,1.12 0.49,-0.21 -0.24,-1.14 -0.86,-2.29 a 0.43,0.43 0 0 1 0.34,-0.64 l 1.51,-0.14 a 0.52,0.52 0 0 0 0.47,-0.58 q -0.39,-3.36 -2,-6.36 -0.24,-0.44 -0.3,-0.94 l -0.13,-1.21 a 0.71,0.7 85.9 0 0 -0.71,-0.62 h -3.24 a 0.49,0.49 0 0 0 -0.49,0.54 q 0.25,2.71 3.01,2.46 a 0.5,0.5 0 0 1 0.54,0.47"
           inkscape:connector-curvature="0"
           style="vector-effect:non-scaling-stroke;stroke:#ececec" />
        <path
           id="path33855"
           d="m 366,173.96 0.29,0.29"
           inkscape:connector-curvature="0"
           style="vector-effect:non-scaling-stroke;stroke:#ececec" />
        <path
           id="path33857"
           d="m 366.29,174.25 q -1.01,1.11 -0.82,2.5 a 0.35,0.34 69.1 0 0 0.53,0.24 q 4.99,-3.3 8.5,-8.14 0.43,-0.58 0.59,0.12 l 1.37,5.83 a 1.01,1 -19.7 0 0 1.42,0.67 q 4.85,-2.34 7.44,-7.07 a 1.44,1.42 51.9 0 0 0.12,-1.03 c -1.25,-4.63 -2.02,-11.03 0.98,-15.19 q 4.32,-5.98 9.32,-11.62 0.33,-0.37 0.34,0.13 0.35,19.79 0.1,39.58 c -0.01,0.68 -0.4,1.42 -0.41,2.16 q -0.01,0.53 0.44,0.23 c 3.21,-2.15 8.78,-6.28 8.78,-10.16 q 0.03,-24.98 -0.01,-50.2 0,-1.83 -1.58,-0.89 -3.86,2.32 -6.59,5.88 a 3.34,3.33 -31.4 0 0 -0.64,2.62 c 1.05,5.99 -7.58,14.7 -11.15,19.24 q -0.55,0.7 -0.5,-0.19 l 0.94,-17.28 a 1.01,1.01 0 0 0 -1.39,-0.99 c -3.98,1.62 -7.04,5.61 -7.49,10.18 q -0.85,8.75 -1.15,17.54 c -0.14,4.01 -1.43,6.63 -4.12,9.27 a 0.32,0.31 -30.7 0 1 -0.52,-0.13 q -1.28,-4.29 -1.11,-8.05 0.77,-17.62 1.16,-35.32 a 0.64,0.63 -12.5 0 0 -0.92,-0.58 q -1.81,0.89 -3.48,2.59 -12.52,12.68 -22.43,27.5 -0.68,1.02 -0.67,-0.21 l 0.2,-30.49 a 0.55,0.55 0 0 0 -0.8,-0.49 q -3.7,1.87 -6.28,5.14 -1.7,2.16 -1.7,4.9 -0.02,16.65 0,32.22 0,1.82 -2.45,7.79 -0.46,1.15 0.55,0.44 l 1.97,-1.36 a 0.43,0.43 0 0 1 0.61,0.14 l 1.58,2.67 a 0.73,0.72 61.9 0 0 0.93,0.29 q 5.04,-2.32 7.73,-7.11 a 0.93,0.91 -42.9 0 0 0.04,-0.81 l -1.75,-4.05 q -1.08,-2.5 0.52,-4.7 l 15.9,-21.86 q 1.75,-2.41 1.65,0.57 c -0.19,5.43 -2.39,37.07 0.44,39.41 a 0.6,0.59 45.4 0 0 0.76,0.01 l 2.76,-2.23"
           inkscape:connector-curvature="0"
           style="vector-effect:non-scaling-stroke;stroke:#858585" />
        <path
           id="path33859"
           d="m 366.29,174.25 2.12,-2.51 q 0.51,-0.6 -0.15,-0.18 -1.42,0.89 -2.26,2.4"
           inkscape:connector-curvature="0"
           style="vector-effect:non-scaling-stroke;stroke:#727272" />
        <path
           id="path33861"
           d="m 316.55,168.22 -1.74,13.73 q -0.1,0.86 0.64,0.4 c 3.63,-2.3 7.58,-5.67 8.23,-10.2 2.11,-14.87 6.87,-29.83 6.61,-44.88 a 0.34,0.33 77.3 0 0 -0.47,-0.3 c -4.6,2.08 -7.66,5.36 -8.33,10.59 -0.76,5.95 -2.52,19 -6.38,24.58 a 0.6,0.6 0 0 1 -0.75,0.2 q -5.39,-2.68 -5.34,-9.58 0.1,-15.6 5.35,-27.88 0.13,-0.3 0.13,-0.64 l 0.02,-0.73 a 0.66,0.66 0 0 0 -0.96,-0.6 q -5.99,3.1 -8.35,9.21 c -3,7.76 -8.02,28.17 -3.33,35.39 q 2.65,4.07 8.57,4.29 a 1.6,1.57 27.6 0 0 0.99,-0.3 l 4.82,-3.45 q 0.34,-0.25 0.29,0.17"
           inkscape:connector-curvature="0"
           style="vector-effect:non-scaling-stroke;stroke:#858585" />
        <path
           id="path33863"
           d="m 315.83,187.14 c -1.38,1.64 -5.23,5.41 -1.4,6.81 a 2.1,2.09 -52.7 0 0 1.96,-0.27 c 2.75,-2 12.71,-11.54 11.88,-15.15 a 0.35,0.35 0 0 0 -0.55,-0.21 l -10.42,7.46 q -0.82,0.59 -1.47,1.36"
           inkscape:connector-curvature="0"
           style="vector-effect:non-scaling-stroke;stroke:#858585" />
        <path
           id="path33865"
           d="m 230.29,52.75 0.02,2.43 a 0.3,0.29 75.3 0 0 0.44,0.26 l 7,-3.98"
           inkscape:connector-curvature="0"
           style="vector-effect:non-scaling-stroke;stroke:#858585" />
        <path
           id="path33867"
           d="m 246.5,97.21 q -0.56,0.67 -0.69,0.72 a 0.95,0.91 80.7 0 1 -1.25,-0.94 L 246,59.1 a 1.82,1.79 67.3 0 1 0.44,-1.1 l 3.62,-4.09 q 0.63,-0.71 -0.29,-0.48 -9.87,2.49 -19.14,6.69 a 0.9,0.89 -12.5 0 0 -0.52,0.81 l -0.15,10.09 a 0.5,0.5 0 0 0 0.56,0.5 l 12.11,-1.45 q 0.7,-0.09 0.38,0.55 -3.74,7.4 -11.94,8.58 a 1.07,1.06 -11.9 0 0 -0.88,1.34 l 1.6,5.71"
           inkscape:connector-curvature="0"
           style="vector-effect:non-scaling-stroke;stroke:#858585" />
        <path
           id="path33869"
           d="m 184.88,64.12 c 0.49,-1.87 0.81,-13.88 -3.55,-11.39 a 1.05,1.04 75.3 0 0 -0.53,0.91 l -0.02,11.35 a 0.62,0.62 0 0 0 0.79,0.6 l 2.63,-0.77 a 1,0.99 -1.1 0 0 0.68,-0.7"
           inkscape:connector-curvature="0"
           style="vector-effect:non-scaling-stroke;stroke:#727272" />
        <path
           id="path33871"
           d="m 173.58,55.12 c -5.7,3.34 -8.84,7.78 -13.72,12.69 a 0.82,0.81 52.3 0 0 -0.12,0.98 l 5.56,9.46 a 0.53,0.53 0 0 0 0.86,0.07 l 5.58,-6.76 a 1.44,1.44 0 0 0 0.34,-0.9 c 0.12,-4.86 -1.46,-11.39 1.62,-15.41 q 0.3,-0.38 -0.12,-0.13"
           inkscape:connector-curvature="0"
           style="vector-effect:non-scaling-stroke;stroke:#727272" />
        <path
           id="path33873"
           d="m 195.42,71.77 q -8.37,-3.42 -14,3.16 a 2.89,2.85 65.5 0 0 -0.68,1.86 l 0.03,16.18 a 1.05,1.05 0 0 0 1.09,1.05 c 3.15,-0.11 13.89,-1.79 15.56,-4.93 2.24,-4.19 2.53,-10.19 0.76,-14.56 q -0.79,-1.96 -2.76,-2.76"
           inkscape:connector-curvature="0"
           style="vector-effect:non-scaling-stroke;stroke:#727272" />
        <path
           id="path33875"
           d="m 171.29,83.4 c -0.1,0.58 -0.57,1.11 -0.02,1.57 a 0.53,0.53 0 0 0 0.81,-0.17 q 0.47,-0.93 -0.33,-1.57 a 0.29,0.28 24 0 0 -0.46,0.17"
           inkscape:connector-curvature="0"
           style="vector-effect:non-scaling-stroke;stroke:#727272" />
        <path
           id="path33877"
           d="m 315.78,85.98 -1.81,2.73 a 0.32,0.32 0 0 0 0.17,0.48 c 6.19,2.13 9.02,-6.1 9,-10.95 q -0.05,-8.26 0.83,-16.53 a 1.44,1.43 -58.7 0 0 -0.22,-0.92 c -3.1,-4.86 -9.89,-5.67 -15.1,-4.32 a 1.25,1.21 -81.9 0 0 -0.76,0.59 q -3.67,6.4 -4.93,13.67 -0.2,1.2 0.85,0.61 l 3.16,-1.74 q 0.85,-0.47 0.61,0.47 -1.67,6.66 -0.92,13.54 a 1.26,1.24 5.4 0 0 0.89,1.06 q 3.92,1.17 7.89,0.76 0.75,-0.08 0.34,0.55"
           inkscape:connector-curvature="0"
           style="vector-effect:non-scaling-stroke;stroke:#858585" />
        <path
           id="path33879"
           d="m 262.5,132.79 q -9.06,-1.09 -17.72,1.62 a 0.82,0.8 87.7 0 0 -0.55,0.61 l -1.81,9.29 q -0.5,2.57 2.05,2 9.68,-2.14 19.53,-3.03 1.41,-0.13 0.8,1.15 c -4.23,8.93 -14.24,8.22 -22.68,9.2 a 0.66,0.66 0 0 0 -0.58,0.64 l -0.15,7.4 a 0.48,0.48 0 0 0 0.7,0.43 l 0.97,-0.5 a 0.86,0.86 0 0 1 0.8,0 c 1.1,0.56 0.7,6.16 0.63,7.16 a 0.72,0.72 0 0 0 0.78,0.78 q 9.61,-0.73 18.84,-3.45 a 1.42,1.41 -7.2 0 0 1.01,-1.3 q 0.46,-13.22 1.84,-24.54"
           inkscape:connector-curvature="0"
           style="vector-effect:non-scaling-stroke;stroke:#727272" />
        <path
           id="path33881"
           d="m 93.92,143.47 q -0.69,3.62 -3.01,6.51 a 2.07,2.03 -23.4 0 0 -0.43,1.06 l -1.11,11.64 q -0.19,1.95 1.56,2.84 6.77,3.44 14.31,1.83 a 1.13,1.12 -79.5 0 0 0.69,-0.48 c 4.15,-6.54 4.99,-14.11 4.8,-21.72 -0.17,-7.26 -2.59,-11.04 -9.97,-11.81 -10.47,-1.09 -13.72,6 -14.49,14.55 q -0.07,0.76 0.4,0.16 2.65,-3.34 6.53,-5.14 0.9,-0.42 0.72,0.56"
           inkscape:connector-curvature="0"
           style="vector-effect:non-scaling-stroke;stroke:#727272" />
        <path
           id="path33883"
           d="m 127.32,158.98 -0.1,4.6 q -0.02,1.08 0.63,0.22 1.9,-2.48 0.47,-5.07 -0.96,-1.73 -1,0.25"
           inkscape:connector-curvature="0"
           style="vector-effect:non-scaling-stroke;stroke:#727272" />
      </g>
      <path
         id="path33887"
         d="m 0,0 219.83,-0.01 q 3.78,2.85 4.9,7.41 0.54,2.2 1.51,3.54 c 6.3,8.7 9,16.4 12.11,26.13 1.18,3.69 -0.2,10.42 3.4,12.47 l -4,1.92 q -0.14,-1.72 -1.29,-2.97 a 0.71,0.7 55.7 0 0 -0.84,-0.16 q -1.57,0.8 -2.53,2.31 -0.29,0.44 -0.72,0.73 l -2.08,1.38 q -0.66,-2.36 -0.06,-4.85 0.27,-1.11 -0.72,-0.54 c -3.24,1.87 -8,5.71 -8.13,9.86 q -0.24,7.81 -0.12,15.67 a 0.62,0.62 0 0 1 -0.52,0.62 l -10.01,1.77 q -2.31,0.41 -1.29,-1.7 5.7,-11.74 13.26,-23.98 c 1.62,-2.63 4.4,-4.69 6.08,-7.74 a 0.52,0.51 -62 0 0 -0.21,-0.71 c -2.27,-1.17 -9.21,7.08 -10.52,9.02 q -5.52,8.2 -10.24,16.98 -0.23,0.42 -0.44,-0.01 c -3.02,-6.32 -9,-4.93 -14.66,-4.6 a 0.35,0.34 -81.1 0 1 -0.34,-0.47 q 3.39,-8.75 0.17,-17.54 a 1.1,1.1 0 0 0 -1.1,-0.72 q -8.39,0.41 -14.99,5.4 -0.59,0.44 -0.24,-0.2 c 0.07,-0.14 1.97,-3.21 1.85,-3.62 a 0.46,0.45 66.1 0 0 -0.67,-0.26 q -3.33,1.98 -5.8,4.97 -6.38,7.71 -12.81,15.48 A 0.41,0.41 0 0 1 158.1,65.5 l -6.68,-13.73 a 0.55,0.55 0 0 0 -0.74,-0.25 q -5.01,2.56 -8.04,7.25 a 0.8,0.8 0 0 0 -0.05,0.79 l 6.26,13.16 q 1.04,2.19 -0.82,3.73 -11.56,9.54 -21.47,17.87 -2.92,2.46 -4.49,6.82 a 1.02,1.01 -52.3 0 0 0.11,0.9 c 1.48,2.3 7.77,-5.52 8.63,-6.63 5.22,-6.73 13.39,-12.39 19.86,-18.13 a 0.48,0.48 0 0 1 0.75,0.17 q 3.67,8.3 10.33,14.43 a 1.28,1.26 20 0 1 0.41,0.86 l 0.37,6.84 q 0.15,2.77 2.92,2.92 l 6.03,0.34 a 0.63,0.63 0 0 1 0.59,0.64 l -0.24,19.92 a 0.25,0.25 0 0 0 0.36,0.22 q 4.72,-2.5 7.4,-6.97 c 2.05,-3.42 1.16,-10.19 1.18,-14.19 a 0.75,0.74 82.4 0 1 0.54,-0.72 q 7.85,-2.16 14.47,-6.86 a 0.36,0.36 0 0 1 0.56,0.2 c 1.81,6.54 12.82,2.23 15.7,-0.53 0.8,-0.77 4.7,-4.92 4.47,-5.88 a 0.44,0.44 0 0 0 -0.6,-0.3 q -4.37,1.83 -9.13,0.93 a 1.64,1.64 0 0 1 -1.33,-1.72 l 0.24,-3.35 a 0.83,0.83 0 0 1 0.66,-0.76 l 14.41,-3.01 a 0.51,0.5 86.7 0 1 0.61,0.55 q -0.93,9.23 2.94,17.56 a 0.73,0.73 0 0 0 1.17,0.22 l 7.29,-6.97 a 1.08,1.06 -29.9 0 0 0.29,-1.04 l -1.27,-4.53 3.33,-0.93 a 1.75,1.74 74.6 0 1 2.16,1.23 q 2,7.57 5.65,14.47 a 1.02,1.01 52.9 0 0 1.63,0.23 c 1.17,-1.21 2.99,1.89 3.98,2.36 q 1.06,0.5 0.55,-0.56 l -1.13,-2.31 q -0.17,-0.37 -0.18,-0.78 -0.01,-1.64 -1.28,-2.75 l 2.71,-1.96 c 0.55,2.65 1.43,7.49 3.91,6.97 a 0.55,0.55 0 0 1 0.63,0.35 c 0.32,0.89 2.6,4.83 1.22,5.64 a 0.59,0.58 -28.7 0 0 -0.23,0.77 l 0.77,1.5 a 0.61,0.6 49.3 0 1 -0.04,0.61 c -0.72,1.05 2.37,4.36 0.93,4.85 a 0.52,0.52 0 0 1 -0.68,-0.41 q -0.51,-3.21 -3.57,-3.71 a 0.49,0.48 13.6 0 1 -0.39,-0.63 q 0.65,-2.01 -0.31,-3.83 -0.43,-0.8 -0.65,0.08 l -0.63,2.58 a 1.04,1.02 -57.9 0 0 0.2,0.91 q 2.7,3.31 4.51,7.17 c 0.88,1.88 2.53,2.96 3.45,4.94 a 0.86,0.85 79.9 0 0 0.71,0.5 l 3.21,0.25 -13.89,2.57 a 1.28,1.28 0 0 1 -1.51,-1.37 c 0.09,-1.13 1.68,-4.02 -0.38,-4.63 q -1.58,-0.46 -3.16,0.03 c -10.88,3.38 -23.92,7.73 -30.68,17.11 a 0.67,0.66 -66.1 0 0 0.4,1.04 c 0.89,0.19 9,-4.36 10.41,-5.08 q 1.65,-0.83 0.72,0.77 -0.85,1.47 -2.07,2.62 a 0.62,0.62 0 0 0 -0.05,0.85 l 1.53,1.82 a 1.22,1.21 -65.5 0 1 0.29,0.79 q 0.05,11.1 -1.13,22.13 c -0.64,5.96 -0.46,11.49 -0.47,17.31 a 0.38,0.38 0 0 0 0.52,0.35 c 5.5,-2.2 7.91,-5.92 8.18,-11.99 q 0.71,-15.9 1.2,-20.18 c 0.76,-6.56 0.25,-11.22 1.51,-17.43 a 1.29,1.28 -11.9 0 1 0.54,-0.82 q 1.73,-1.2 3.82,-0.45 a 0.77,0.76 -60 0 1 0.32,1.21 c -0.88,1.05 -4.7,4.89 -4.31,6.2 a 0.59,0.58 71.7 0 0 0.75,0.38 l 1.62,-0.57 q 0.75,-0.26 0.52,0.5 -5.2,17.53 -4.31,35.85 0.02,0.48 -0.17,0.91 l -1.48,3.48 a 0.77,0.76 -78.3 0 0 0.7,1.07 c 9.32,-0.01 25.45,-1.31 33.01,-7.47 q 0.48,-0.4 0.51,0.22 l 0.25,4.67 q 0.12,2.39 1.85,0.73 l 7.12,-6.87 a 0.88,0.86 -32.5 0 0 0.21,-0.9 q -1.1,-3.16 -0.05,-6.85 7.86,20.55 15.35,41.24 0.25,0.67 -0.48,0.97 H 48.69 c -2,-4.57 -3.25,-9.35 -5.28,-13.85 -2.83,-6.26 -4.08,-12.6 -7.88,-18.6 q -0.59,-0.94 -0.57,0.17 l 0.02,1.14 q 0.02,0.8 -0.64,0.35 -0.17,-0.11 -0.26,-0.28 a 0.76,0.76 0 0 0 -0.66,-0.38 l -2.91,-0.03 q -0.84,-0.01 -0.3,0.62 c 3.58,4.18 5.17,7.38 7.04,13.25 q 2.86,8.94 8.76,16.39 c 0.33,0.43 0.33,0.87 -0.07,1.22 H 35.19 l -3.72,-5.95 a 0.85,0.85 0 0 1 0.04,-0.95 l 0.2,-0.27 q 0.51,-0.69 -0.34,-0.71 -1.19,-0.04 -1.98,0.86 a 0.52,0.52 0 0 0 0.05,0.74 q 2.91,2.55 3.5,6.28 H 17.69 q -2.8,-0.27 -3.91,-2.28 -3.34,-6.01 -6.51,-9.99 c -0.89,-1.12 -4.49,-2.49 -4.55,-2.95 a 0.6,0.59 -11.2 0 1 0.45,-0.66 q 0.79,-0.2 1.09,-0.88 A 0.61,0.61 0 0 0 3.72,186.38 L 0.88,186.34 A 0.54,0.53 -0.6 0 1 0.35,185.83 L 0,177.94 v -49 q -0.01,-0.69 0.43,-1.16 a 0.37,0.37 0 0 1 0.61,0.09 q 3.42,7.11 6.04,14.56 c 1.35,3.87 7.76,8.66 6.51,12.7 a 0.78,0.77 -62 0 0 0.25,0.84 q 4,3.19 4.08,8.35 a 1.17,1.15 18.9 0 0 0.46,0.92 q 0.43,0.32 0.38,0.87 a 0.45,0.45 0 0 1 -0.56,0.4 l -1.09,-0.28 q -0.66,-0.17 -0.42,0.47 l 0.74,1.96 a 0.56,0.56 0 0 0 0.64,0.35 q 0.67,-0.15 1.02,-0.76 a 1.08,1.07 -77.3 0 1 0.83,-0.53 c 0.56,-0.05 0.91,0.42 1.04,0.97 0.83,3.58 5.01,9 7.41,11.88 q 0.33,0.39 0.14,-0.08 -3.35,-7.99 -6.91,-15.88 c -0.91,-2 -0.62,-3.94 -3.24,-5.27 a 0.44,0.43 -49.3 0 1 -0.05,-0.74 l 3.01,-2.16 a 0.81,0.8 56.5 0 0 0.21,-1.07 l -1.95,-3.11 a 0.78,0.77 -29.9 0 0 -1.02,-0.27 q -1.13,0.59 -1.69,-0.61 a 1.16,1.16 0 0 0 -0.69,-0.62 c -2.3,-0.75 -7.82,-14.3 -5.51,-16.65 a 0.56,0.56 0 0 0 -0.09,-0.87 L 10,132.85 a 0.61,0.61 0 0 0 -0.94,0.42 l -0.25,1.72 a 0.24,0.24 0 0 1 -0.31,0.2 L 7.91,135 A 0.94,0.94 0 0 1 7.3,134.35 l -0.81,-3.06 a 1.69,1.67 13.5 0 0 -0.54,-0.87 c -1.46,-1.3 -2.7,-5 -5.03,-4.25 a 0.49,0.48 79.9 0 1 -0.63,-0.44 l -0.06,-0.91 q -0.06,-1.01 0.66,-0.3 l 0.28,0.27 a 0.46,0.46 0 0 0 0.73,-0.11 l 0.26,-0.5 A 0.59,0.59 0 0 0 1.95,123.4 C -0.88,121.67 0.5,116.3 0,112.44 Z m 190.69,6.56 q -0.16,1.48 0.95,2.07 0.85,0.45 0.46,-0.42 L 191,5.74 q -0.2,-0.47 -0.46,-0.02 -0.22,0.39 0.15,0.84 z m 23.2,2.32 q 0.65,-1.02 0.04,-2.01 a 0.88,0.85 68 0 0 -0.89,-0.39 l -1.87,0.36 a 0.49,0.49 0 0 0 -0.35,0.7 c 0.36,0.71 2.78,5.66 3.4,5.48 a 0.51,0.5 -16.5 0 0 0.35,-0.64 l -0.81,-2.49 a 1.22,1.19 52.9 0 1 0.13,-1.01 z M 82,97.31 q -0.49,0.98 -0.49,-0.12 L 81.5,69.7 a 0.52,0.51 -88.9 0 1 0.53,-0.52 q 10.64,0.42 15.37,-8.81 0.37,-0.72 -0.44,-0.61 l -14.8,2 a 0.37,0.36 88.1 0 1 -0.41,-0.39 c 1.1,-15.72 3.41,-31.85 3.49,-47.56 A 0.34,0.34 0 0 0 84.77,13.5 C 80.24,15.43 77,18.56 76.58,23.74 Q 74.96,43.75 73.3,63.8 a 0.78,0.77 -5.3 0 1 -0.58,0.69 L 66,66.32 A 0.38,0.38 0 0 1 65.52,65.93 Q 66.69,44.12 66.5,22.28 a 0.35,0.35 0 0 0 -0.48,-0.32 c -4.77,1.9 -7.98,5.49 -8.06,10.86 q -0.29,17.75 -1.14,35.57 a 2.12,2.1 -12.9 0 1 -1.13,1.78 q -4.15,2.19 -6.14,6.48 a 0.4,0.4 0 0 0 0.38,0.57 q 3.47,-0.11 6.5,-1.82 0.62,-0.35 0.56,0.36 -1.1,13.17 -0.69,26.44 0.09,2.96 2.2,0.88 l 6.63,-6.57 a 1.29,1.28 -22.4 0 0 0.39,-0.92 L 65.49,74.2 a 1.5,1.5 0 0 1 1.07,-1.44 l 5.68,-1.68 a 0.39,0.39 0 0 1 0.5,0.38 l 0.02,33.73 q 0,2.77 2.77,2.61 1.99,-0.12 3.52,-1.51 2.66,-2.43 5.09,-5.1 c 3.95,-4.33 6.41,-10.49 9.12,-15.75 q 0.25,-0.49 0.36,0.05 l 1.93,9.32 q 0.58,2.81 3.45,2.71 7.75,-0.28 16.05,-1.85 C 123.9,94 130.19,92.69 134.31,85.24 q 0.76,-1.38 -0.76,-0.95 -13.55,3.81 -27.62,4.53 a 0.65,0.64 88.3 0 1 -0.68,-0.65 V 78.05 a 0.72,0.72 0 0 1 0.52,-0.69 q 6.7,-1.92 13.69,-2.14 a 1.33,1.33 0 0 0 0.9,-0.4 l 6.96,-7.15 q 0.52,-0.54 -0.21,-0.69 c -5.93,-1.19 -15.89,2.08 -22.05,3.33 a 0.48,0.48 0 0 1 -0.58,-0.47 l 0.06,-9.71 a 0.77,0.77 0 0 1 0.49,-0.72 c 4.75,-1.92 15.03,-5.25 19.67,-3.86 a 1,1 0 0 0 0.88,-0.16 c 2.62,-1.95 6.96,-5.19 6.92,-8.38 a 0.49,0.49 0 0 0 -0.51,-0.49 c -13.46,0.4 -26.53,5.35 -34.31,16.74 -1.44,2.1 -2.34,5.08 -3.91,7.5 q -1.79,2.75 -2.52,4.85 -3.94,11.2 -9.25,21.7 z M 222.7597,21.7455 a 1.48,0.63 55.9 0 0 -0.308,-1.5787 1.48,0.63 55.9 0 0 -1.3514,-0.8723 1.48,0.63 55.9 0 0 0.308,1.5787 1.48,0.63 55.9 0 0 1.3514,0.8723 z M 215.25,36.5 q -0.12,-4.35 -2.91,-6.93 -0.31,-0.29 -0.34,0.13 l -0.02,0.36 a 1.47,1.47 0 0 0 0.24,0.9 q 3.4,5.15 2.83,11.11 c -0.15,1.6 0.43,7.59 2.49,7.45 A 0.4,0.39 78.4 0 0 217.88,49 q -2.49,-7.64 -2.63,-12.5 z M 64.64,147.94 65.2,124.96 q 0.07,-2.7 -1.89,-0.86 l -5.18,4.86 q -2.12,1.98 -2.12,4.89 L 56,157.67 a 1.59,1.52 -29.1 0 1 -0.27,0.87 c -3.01,4.4 -5.35,13.46 -1.05,17.8 1.18,1.2 1.38,2.21 1.93,3.68 a 1.38,1.38 0 0 0 2.01,0.72 c 1.41,-0.84 2.12,-1.79 3.77,-2.19 7.02,-1.68 9.73,-5.32 14.95,-9.32 a 0.47,0.46 -34.8 0 1 0.67,0.12 c 2.46,3.82 4.68,8.11 8.29,9.07 8.89,2.36 13.88,-1.83 20.4,-8.07 q 14.41,-13.82 12.75,-35.09 -0.83,-10.7 -11.72,-10.8 -5.2,-0.04 -7.41,1.06 -22.93,11.56 -23.52,37.06 c -0.17,7.2 -5.56,7.53 -11.55,6.73 a 0.59,0.58 3.9 0 1 -0.51,-0.58 l 0.03,-15.17 a 3.04,3.02 66.1 0 1 0.77,-2.02 Q 77.87,137.89 87.77,122.4 a 0.42,0.42 0 0 0 -0.26,-0.63 c -2.27,-0.49 -7.18,5.54 -8.51,7.59 q -6.39,9.79 -13.91,18.74 -0.46,0.56 -0.45,-0.16 z M 9.94,122.11 c -3.88,-1.31 -4.09,7.71 0.99,9.98 1.46,0.65 1.98,1.33 2.66,2.65 a 0.86,0.85 -10.4 0 0 0.67,0.46 l 2.93,0.32 q 0.61,0.07 0.31,-0.48 l -6.77,-12.27 a 1.45,1.45 0 0 0 -0.79,-0.66 z m 174.91,27.01 q 1.83,-11.51 1.1,-23.13 a 1.4,1.39 83.5 0 0 -1.61,-1.29 c -8.32,1.34 -21.3,5.15 -24.95,13.61 q -0.37,0.86 0.47,0.46 l 5.2,-2.46 a 0.25,0.04 -26.8 0 1 0.19,-0.06 l 0.27,0.09 a 0.12,0.11 -61 0 1 0.05,0.19 q -2.79,3.22 -3.04,5.46 c -1.38,12.27 -3.18,24.45 -3.03,36.84 q 0.02,1.19 1.02,0.54 c 2.86,-1.86 7.41,-5.03 7.55,-8.87 q 0.65,-17.73 3.22,-35.33 a 0.95,0.94 87.4 0 1 0.71,-0.79 l 4.64,-1.14 a 0.55,0.55 0 0 1 0.68,0.51 c 0.39,12.47 -1.57,23.51 -2.7,35.32 q -0.29,3.01 -0.14,4.72 0.22,2.39 2.09,0.9 5.52,-4.39 8.72,-10.74 0.42,-0.84 0.41,0.1 l -0.21,11.29 a 1.35,1.35 0 0 0 1.63,1.35 c 11.43,-2.44 26.19,-2.24 33.15,-13.79 q 0.69,-1.15 -0.57,-0.69 -11.3,4.17 -23.33,4.67 a 0.48,0.48 0 0 1 -0.51,-0.51 l 0.92,-14.29 a 2.02,2.02 0 0 1 1.8,-1.89 l 12.1,-1.26 a 1.73,1.73 0 0 0 0.91,-0.37 q 4.01,-3.16 6.84,-7.41 0.55,-0.83 -0.44,-0.79 -10.58,0.36 -20.7,3.52 a 0.42,0.42 0 0 1 -0.55,-0.41 l 0.04,-8.57 q 0.01,-1.93 1.9,-2.35 6.44,-1.43 13.03,-0.98 a 0.79,0.78 83.7 0 1 0.71,0.58 q 0.26,0.99 1.15,1.36 a 0.94,0.94 0 0 0 0.96,-0.14 c 2.96,-2.47 6.86,-5.4 6.76,-9.62 a 0.64,0.63 -86.1 0 0 -0.52,-0.6 c -15.07,-2.77 -30.24,6.51 -33.03,21.82 -0.37,2.04 -1.35,2.81 -2.57,4.29 q -0.42,0.51 -0.32,-0.14 z m -45.41,5.41 c 0.71,-0.98 6.74,-9.88 7.03,-9.8 a 0.39,0.38 -79.3 0 1 0.29,0.43 q -2.43,18.13 -1.82,36.42 0.09,2.76 2.07,0.83 l 6.92,-6.71 a 0.98,0.97 -31 0 0 0.25,-0.99 q -0.71,-2.31 -0.71,-2.96 c -0.03,-15.67 2.25,-31.21 1.67,-46.81 a 0.36,0.36 0 0 0 -0.5,-0.32 q -9.4,3.98 -8.05,14.32 a 1.47,1.43 -30.8 0 1 -0.28,1.04 l -8.3,11.05 a 0.45,0.44 49.8 0 1 -0.75,-0.07 q -4.46,-8.89 -6.08,-18.77 -0.6,-3.63 -3.63,-1.54 c -7.87,5.43 -4.96,8.92 -6.29,16.81 -2.12,12.58 -3.22,22.37 -2.63,32.45 a 0.99,0.99 0 0 0 1.41,0.83 q 4.72,-2.24 7.53,-6.6 a 0.95,0.93 -43.3 0 0 0.04,-0.95 c -1.4,-2.57 2.17,-5.18 3.83,-6.7 a 0.97,0.96 -58.2 0 1 0.92,-0.22 l 1.15,0.33 a 0.97,0.96 -53.6 0 0 0.77,-0.12 c 2.85,-1.86 9.67,-7.07 5.33,-10.69 a 0.93,0.93 0 0 1 -0.17,-1.26 z m -118.61,-4.08 1.4,1.02 q 0.86,0.62 0.78,-0.44 -0.17,-2.11 -1.81,-3.37 a 0.66,0.65 31.7 0 0 -0.99,0.23 l -0.68,1.41 q -0.48,1.01 -0.85,-0.05 l -2.88,-8.28 a 1.82,1.8 8.2 0 0 -0.65,-0.86 l -2.01,-1.42 q -0.55,-0.38 -0.41,0.27 0.23,1.13 1.17,1.8 a 0.84,0.83 26.2 0 1 0.32,0.92 l -0.5,1.71 a 1.02,1.01 30.4 0 0 0.26,0.99 q 2.29,2.22 3.02,5.3 a 1.65,1.64 -77.3 0 0 0.56,0.89 l 0.77,0.64 a 0.67,0.66 -47.4 0 0 0.89,-0.04 l 0.62,-0.64 a 0.77,0.77 0 0 1 0.99,-0.08 z M 2.81,163.19 Q 2.52,162.7 2.08,162.58 a 0.46,0.45 7.9 0 0 -0.58,0.43 v 1.36 a 0.57,0.57 0 0 0 0.69,0.56 c 0.7,-0.15 1.76,-1.68 0.62,-1.74 z m 277.62,22 c 1.88,-2.01 -0.84,-6.43 -2.03,-8.37 q -0.67,-1.1 -0.63,0.19 0.1,3.25 1.54,6.12 a 1.76,1.75 -54.8 0 1 0.18,1.06 q -0.24,1.81 0.97,3.22 0.47,0.56 0.43,-0.17 -0.03,-0.7 -0.49,-1.28 a 0.59,0.58 -43.5 0 1 0.03,-0.77 z M 10.28,177.92 c 0.44,0.95 3.14,6.49 3.92,6.26 a 0.53,0.53 0 0 0 0.3,-0.77 q -1.74,-2.97 -3.93,-5.67 -0.85,-1.06 -0.29,0.18 z m 34.69,4.24 q -0.22,3.19 2.61,5.03 0.89,0.57 0.48,-0.4 l -2.07,-4.8 q -0.87,-2.04 -1.02,0.17 z m -17.49,1.54 q -0.62,1.04 -0.7,1.91 a 1.07,1.04 25 0 0 0.33,0.87 q 5.45,5.21 7.78,12.36 0.37,1.15 1.09,0.19 0.38,-0.51 0.22,-0.96 -1.38,-3.89 -1.46,-4.04 -2.45,-4.76 -4.64,-9.67 c -0.53,-1.19 -1.3,-1.91 -2.48,-0.83 q -0.08,0.07 -0.14,0.17 z"
         inkscape:connector-curvature="0"
         style="fill:#d8d8d8" />
      <path
         id="path33889"
         d="M 219.83,-0.01 450,0 V 204 H 289.44 q 0.73,-0.3 0.48,-0.97 -7.49,-20.69 -15.35,-41.24 -1.15,-6.04 -0.29,-12.62 a 0.6,0.59 88.7 0 1 0.47,-0.5 l 9.61,-1.86 a 0.32,0.32 0 0 1 0.37,0.37 q -1.99,11.4 -1.93,23.04 c 0.01,2.12 -0.14,3.85 0.89,5.74 q 1.39,2.54 3.9,1.09 4.82,-2.78 7.61,-7.55 a 0.43,0.43 0 0 0 -0.26,-0.63 q -3.16,-0.88 -3.37,-3.67 -0.77,-10.1 1.55,-22.94 a 1.58,1.56 -17.2 0 1 0.45,-0.84 c 5.32,-5.29 12.05,-12.65 4.05,-19.77 a 1.91,1.91 0 0 0 -2.18,-0.25 c -8.02,4.37 -8.33,9.23 -9.3,17.56 a 0.82,0.81 0 0 1 -0.73,0.72 l -9.73,0.98 a 0.45,0.44 89 0 1 -0.49,-0.48 l 0.72,-11.63 a 0.5,0.49 80.9 0 0 -0.67,-0.49 q -8.33,3.22 -8.28,12.19 l -0.65,0.11 a 0.65,0.65 0 0 1 -0.7,-0.39 l -3.11,-7.18 q 5.12,-3.1 7.96,-8.3 A 0.33,0.33 0 0 0 270.17,124 l -7.92,-0.21 -3.21,-0.25 a 0.86,0.85 79.9 0 1 -0.71,-0.5 c -0.92,-1.98 -2.57,-3.06 -3.45,-4.94 q -1.81,-3.86 -4.51,-7.17 a 1.04,1.02 -57.9 0 1 -0.2,-0.91 l 0.63,-2.58 q 0.22,-0.88 0.65,-0.08 0.96,1.82 0.31,3.83 a 0.49,0.48 13.6 0 0 0.39,0.63 q 3.06,0.5 3.57,3.71 a 0.52,0.52 0 0 0 0.68,0.41 c 1.44,-0.49 -1.65,-3.8 -0.93,-4.85 a 0.61,0.6 49.3 0 0 0.04,-0.61 l -0.77,-1.5 a 0.59,0.58 -28.7 0 1 0.23,-0.77 c 1.38,-0.81 -0.9,-4.75 -1.22,-5.64 a 0.55,0.55 0 0 0 -0.63,-0.35 c -2.48,0.52 -3.36,-4.32 -3.91,-6.97 q 2.56,-2.28 4.35,-5.31 A 1.78,1.74 -31.9 0 0 253.79,89 q -0.34,-9.54 0.36,-19.03 c 0.41,-5.61 0.27,-11.25 0.64,-16.89 a 0.6,0.6 0 0 1 0.53,-0.56 c 7.59,-0.84 15.07,0.36 19.2,-7.87 q 1,-2 -1.23,-1.84 -16.43,1.17 -31.54,6.73 c -3.6,-2.05 -2.22,-8.78 -3.4,-12.47 -3.11,-9.73 -5.81,-17.43 -12.11,-26.13 q -0.97,-1.34 -1.51,-3.54 -1.12,-4.56 -4.9,-7.41 z m 62.23,66.65 c -0.37,-6.06 0.15,-11.53 -0.5,-18.13 a 0.37,0.37 0 0 0 -0.51,-0.3 c -4.51,1.97 -7.83,5.51 -7.81,10.71 q 0.03,9.79 0,19.64 a 3.57,3.57 0 0 1 -0.62,2.01 q -3.64,5.41 -5.56,11.58 -0.81,2.61 1.82,3.33 l 3.83,1.05 a 0.72,0.72 0 0 1 0.53,0.68 l 0.04,3.06 q 0.01,0.69 0.58,0.31 c 3.15,-2.1 5.57,-4.79 8.75,-6.71 q 5.38,-3.26 10.21,-7.38 a 0.58,0.58 0 0 1 0.94,0.33 c 0.78,4.01 3.53,6.84 6.78,9.1 2.24,1.56 5.03,1.62 7.72,2.26 a 1.88,1.82 41.8 0 0 1,-0.04 q 7.59,-2.5 12.54,-8.73 0.42,-0.52 0.47,0.15 c 0.21,3.08 -0.69,12.83 1.88,14.36 a 0.86,0.84 44.4 0 0 0.87,0 q 4.37,-2.58 7.17,-6.82 a 0.88,0.87 -41.3 0 0 0.06,-0.87 q -0.75,-1.6 -0.84,-2.54 c -0.68,-7.21 -0.86,-14.06 1.22,-21.08 2.83,-9.55 5.03,-21.35 -7.58,-24.93 q -4.55,-1.29 -8.94,-0.36 c -11.27,2.39 -22.71,23.16 -21.9,33.75 a 2.21,2.2 70 0 1 -0.91,1.95 q -4.48,3.27 -9.81,4.78 a 1.22,1.22 0 0 1 -1.55,-1.09 c -0.34,-4.92 -1.2,-13.05 1.87,-17.4 q 5.81,-8.23 13.28,-14.97 1.04,-0.94 1.69,-2.16 a 0.29,0.29 0 0 0 -0.22,-0.42 c -4.1,-0.47 -14.07,11.59 -16.17,14.97 q -0.29,0.47 -0.33,-0.09 z m -17.3,33.58 q 0.09,1.98 -0.87,3.74 a 1.3,1.3 0 0 0 -0.1,1 q 0.79,2.56 2.34,4.78 0.78,1.12 0.49,-0.21 -0.24,-1.14 -0.86,-2.29 a 0.43,0.43 0 0 1 0.34,-0.64 l 1.51,-0.14 a 0.52,0.52 0 0 0 0.47,-0.58 q -0.39,-3.36 -2,-6.36 -0.24,-0.44 -0.3,-0.94 l -0.13,-1.21 a 0.71,0.7 85.9 0 0 -0.71,-0.62 h -3.24 a 0.49,0.49 0 0 0 -0.49,0.54 q 0.25,2.71 3.01,2.46 a 0.5,0.5 0 0 1 0.54,0.47 z m 101.24,73.74 0.29,0.29 q -1.01,1.11 -0.82,2.5 a 0.35,0.34 69.1 0 0 0.53,0.24 q 4.99,-3.3 8.5,-8.14 0.43,-0.58 0.59,0.12 l 1.37,5.83 a 1.01,1 -19.7 0 0 1.42,0.67 q 4.85,-2.34 7.44,-7.07 a 1.44,1.42 51.9 0 0 0.12,-1.03 c -1.25,-4.63 -2.02,-11.03 0.98,-15.19 q 4.32,-5.98 9.32,-11.62 0.33,-0.37 0.34,0.13 0.35,19.79 0.1,39.58 c -0.01,0.68 -0.4,1.42 -0.41,2.16 q -0.01,0.53 0.44,0.23 c 3.21,-2.15 8.78,-6.28 8.78,-10.16 q 0.03,-24.98 -0.01,-50.2 0,-1.83 -1.58,-0.89 -3.86,2.32 -6.59,5.88 a 3.34,3.33 -31.4 0 0 -0.64,2.62 c 1.05,5.99 -7.58,14.7 -11.15,19.24 q -0.55,0.7 -0.5,-0.19 l 0.94,-17.28 a 1.01,1.01 0 0 0 -1.39,-0.99 c -3.98,1.62 -7.04,5.61 -7.49,10.18 q -0.85,8.75 -1.15,17.54 c -0.14,4.01 -1.43,6.63 -4.12,9.27 a 0.32,0.31 -30.7 0 1 -0.52,-0.13 q -1.28,-4.29 -1.11,-8.05 0.77,-17.62 1.16,-35.32 a 0.64,0.63 -12.5 0 0 -0.92,-0.58 q -1.81,0.89 -3.48,2.59 -12.52,12.68 -22.43,27.5 -0.68,1.02 -0.67,-0.21 l 0.2,-30.49 a 0.55,0.55 0 0 0 -0.8,-0.49 q -3.7,1.87 -6.28,5.14 -1.7,2.16 -1.7,4.9 -0.02,16.65 0,32.22 0,1.82 -2.45,7.79 -0.46,1.15 0.55,0.44 l 1.97,-1.36 a 0.43,0.43 0 0 1 0.61,0.14 l 1.58,2.67 a 0.73,0.72 61.9 0 0 0.93,0.29 q 5.04,-2.32 7.73,-7.11 a 0.93,0.91 -42.9 0 0 0.04,-0.81 l -1.75,-4.05 q -1.08,-2.5 0.52,-4.7 l 15.9,-21.86 q 1.75,-2.41 1.65,0.57 c -0.19,5.43 -2.39,37.07 0.44,39.41 a 0.6,0.59 45.4 0 0 0.76,0.01 z m -49.45,-5.74 -1.74,13.73 q -0.1,0.86 0.64,0.4 c 3.63,-2.3 7.58,-5.67 8.23,-10.2 2.11,-14.87 6.87,-29.83 6.61,-44.88 a 0.34,0.33 77.3 0 0 -0.47,-0.3 c -4.6,2.08 -7.66,5.36 -8.33,10.59 -0.76,5.95 -2.52,19 -6.38,24.58 a 0.6,0.6 0 0 1 -0.75,0.2 q -5.39,-2.68 -5.34,-9.58 0.1,-15.6 5.35,-27.88 0.13,-0.3 0.13,-0.64 l 0.02,-0.73 a 0.66,0.66 0 0 0 -0.96,-0.6 q -5.99,3.1 -8.35,9.21 c -3,7.76 -8.02,28.17 -3.33,35.39 q 2.65,4.07 8.57,4.29 a 1.6,1.57 27.6 0 0 0.99,-0.3 l 4.82,-3.45 q 0.34,-0.25 0.29,0.17 z m -0.72,18.92 c -1.38,1.64 -5.23,5.41 -1.4,6.81 a 2.1,2.09 -52.7 0 0 1.96,-0.27 c 2.75,-2 12.71,-11.54 11.88,-15.15 a 0.35,0.35 0 0 0 -0.55,-0.21 l -10.42,7.46 q -0.82,0.59 -1.47,1.36 z"
         inkscape:connector-curvature="0"
         style="fill:#ffffff" />
      <path
         id="path33891"
         d="M 190.69,6.56 Q 190.32,6.11 190.54,5.72 190.8,5.27 191,5.74 l 1.1,2.47 q 0.39,0.87 -0.46,0.42 -1.11,-0.59 -0.95,-2.07 z"
         inkscape:connector-curvature="0"
         style="fill:#ffffff" />
      <path
         id="path33893"
         d="m 213.76,9.89 0.81,2.49 a 0.51,0.5 -16.5 0 1 -0.35,0.64 c -0.62,0.18 -3.04,-4.77 -3.4,-5.48 a 0.49,0.49 0 0 1 0.35,-0.7 l 1.87,-0.36 a 0.88,0.85 68 0 1 0.89,0.39 q 0.61,0.99 -0.04,2.01 a 1.22,1.19 52.9 0 0 -0.13,1.01 z"
         inkscape:connector-curvature="0"
         style="fill:#ffffff" />
      <path
         id="path33895"
         d="m 82,97.31 q 5.31,-10.5 9.25,-21.7 0.73,-2.1 2.52,-4.85 c 1.57,-2.42 2.47,-5.4 3.91,-7.5 7.78,-11.39 20.85,-16.34 34.31,-16.74 a 0.49,0.49 0 0 1 0.51,0.49 c 0.04,3.19 -4.3,6.43 -6.92,8.38 a 1,1 0 0 1 -0.88,0.16 c -4.64,-1.39 -14.92,1.94 -19.67,3.86 a 0.77,0.77 0 0 0 -0.49,0.72 l -0.06,9.71 a 0.48,0.48 0 0 0 0.58,0.47 c 6.16,-1.25 16.12,-4.52 22.05,-3.33 q 0.73,0.15 0.21,0.69 l -6.96,7.15 a 1.33,1.33 0 0 1 -0.9,0.4 q -6.99,0.22 -13.69,2.14 a 0.72,0.72 0 0 0 -0.52,0.69 v 10.12 a 0.65,0.64 88.3 0 0 0.68,0.65 q 14.07,-0.72 27.62,-4.53 1.52,-0.43 0.76,0.95 C 130.19,92.69 123.9,94 115.05,95.67 q -8.3,1.57 -16.05,1.85 -2.87,0.1 -3.45,-2.71 l -1.93,-9.32 q -0.11,-0.54 -0.36,-0.05 c -2.71,5.26 -5.17,11.42 -9.12,15.75 q -2.43,2.67 -5.09,5.1 -1.53,1.39 -3.52,1.51 -2.77,0.16 -2.77,-2.61 L 72.74,71.46 a 0.39,0.39 0 0 0 -0.5,-0.38 l -5.68,1.68 a 1.5,1.5 0 0 0 -1.07,1.44 l 0.03,21.39 a 1.29,1.28 -22.4 0 1 -0.39,0.92 l -6.63,6.57 q -2.11,2.08 -2.2,-0.88 -0.41,-13.27 0.69,-26.44 0.06,-0.71 -0.56,-0.36 -3.03,1.71 -6.5,1.82 a 0.4,0.4 0 0 1 -0.38,-0.57 q 1.99,-4.29 6.14,-6.48 a 2.12,2.1 -12.9 0 0 1.13,-1.78 q 0.85,-17.82 1.14,-35.57 c 0.08,-5.37 3.29,-8.96 8.06,-10.86 a 0.35,0.35 0 0 1 0.48,0.32 q 0.19,21.84 -0.98,43.65 A 0.38,0.38 0 0 0 66,66.32 l 6.72,-1.83 A 0.78,0.77 -5.3 0 0 73.3,63.8 Q 74.96,43.75 76.58,23.74 C 77,18.56 80.24,15.43 84.77,13.5 a 0.34,0.34 0 0 1 0.47,0.31 c -0.08,15.71 -2.39,31.84 -3.49,47.56 a 0.37,0.36 88.1 0 0 0.41,0.39 l 14.8,-2 q 0.81,-0.11 0.44,0.61 -4.73,9.23 -15.37,8.81 A 0.52,0.51 -88.9 0 0 81.5,69.7 l 0.01,27.49 q 0,1.1 0.49,0.12 z"
         inkscape:connector-curvature="0"
         style="fill:#0b0b0b" />
      <ellipse
         id="ellipse33897"
         ry="0.63"
         rx="1.48"
         transform="rotate(55.9,91.628056,219.39489)"
         cy="0"
         cx="0"
         style="fill:#ffffff" />
      <path
         id="path33899"
         d="m 215.25,36.5 q 0.14,4.86 2.63,12.5 a 0.4,0.39 78.4 0 1 -0.34,0.52 c -2.06,0.14 -2.64,-5.85 -2.49,-7.45 q 0.57,-5.96 -2.83,-11.11 a 1.47,1.47 0 0 1 -0.24,-0.9 L 212,29.7 q 0.03,-0.42 0.34,-0.13 2.79,2.58 2.91,6.93 z"
         inkscape:connector-curvature="0"
         style="fill:#ffffff" />
      <path
         id="path33901"
         d="m 230.29,52.75 0.02,2.43 a 0.3,0.29 75.3 0 0 0.44,0.26 l 7,-3.98 4,-1.92 q 15.11,-5.56 31.54,-6.73 2.23,-0.16 1.23,1.84 c -4.13,8.23 -11.61,7.03 -19.2,7.87 a 0.6,0.6 0 0 0 -0.53,0.56 c -0.37,5.64 -0.23,11.28 -0.64,16.89 q -0.7,9.49 -0.36,19.03 a 1.78,1.74 -31.9 0 1 -0.23,0.94 q -1.79,3.03 -4.35,5.31 l -2.71,1.96 q -0.56,0.67 -0.69,0.72 a 0.95,0.91 80.7 0 1 -1.25,-0.94 L 246,59.1 a 1.82,1.79 67.3 0 1 0.44,-1.1 l 3.62,-4.09 q 0.63,-0.71 -0.29,-0.48 -9.87,2.49 -19.14,6.69 a 0.9,0.89 -12.5 0 0 -0.52,0.81 l -0.15,10.09 a 0.5,0.5 0 0 0 0.56,0.5 l 12.11,-1.45 q 0.7,-0.09 0.38,0.55 -3.74,7.4 -11.94,8.58 a 1.07,1.06 -11.9 0 0 -0.88,1.34 l 1.6,5.71 1.27,4.53 a 1.08,1.06 -29.9 0 1 -0.29,1.04 l -7.29,6.97 a 0.73,0.73 0 0 1 -1.17,-0.22 q -3.87,-8.33 -2.94,-17.56 a 0.51,0.5 86.7 0 0 -0.61,-0.55 l -14.41,3.01 a 0.83,0.83 0 0 0 -0.66,0.76 l -0.24,3.35 a 1.64,1.64 0 0 0 1.33,1.72 q 4.76,0.9 9.13,-0.93 a 0.44,0.44 0 0 1 0.6,0.3 c 0.23,0.96 -3.67,5.11 -4.47,5.88 -2.88,2.76 -13.89,7.07 -15.7,0.53 a 0.36,0.36 0 0 0 -0.56,-0.2 q -6.62,4.7 -14.47,6.86 a 0.75,0.74 82.4 0 0 -0.54,0.72 c -0.02,4 0.87,10.77 -1.18,14.19 q -2.68,4.47 -7.4,6.97 a 0.25,0.25 0 0 1 -0.36,-0.22 l 0.24,-19.92 a 0.63,0.63 0 0 0 -0.59,-0.64 l -6.03,-0.34 q -2.77,-0.15 -2.92,-2.92 l -0.37,-6.84 a 1.28,1.26 20 0 0 -0.41,-0.86 q -6.66,-6.13 -10.33,-14.43 a 0.48,0.48 0 0 0 -0.75,-0.17 c -6.47,5.74 -14.64,11.4 -19.86,18.13 -0.86,1.11 -7.15,8.93 -8.63,6.63 a 1.02,1.01 -52.3 0 1 -0.11,-0.9 q 1.57,-4.36 4.49,-6.82 9.91,-8.33 21.47,-17.87 1.86,-1.54 0.82,-3.73 l -6.26,-13.16 a 0.8,0.8 0 0 1 0.05,-0.79 q 3.03,-4.69 8.04,-7.25 a 0.55,0.55 0 0 1 0.74,0.25 l 6.68,13.73 a 0.41,0.41 0 0 0 0.68,0.08 q 6.43,-7.77 12.81,-15.48 2.47,-2.99 5.8,-4.97 a 0.46,0.45 66.1 0 1 0.67,0.26 c 0.12,0.41 -1.78,3.48 -1.85,3.62 q -0.35,0.64 0.24,0.2 6.6,-4.99 14.99,-5.4 a 1.1,1.1 0 0 1 1.1,0.72 q 3.22,8.79 -0.17,17.54 a 0.35,0.34 -81.1 0 0 0.34,0.47 c 5.66,-0.33 11.64,-1.72 14.66,4.6 q 0.21,0.43 0.44,0.01 4.72,-8.78 10.24,-16.98 c 1.31,-1.94 8.25,-10.19 10.52,-9.02 a 0.52,0.51 -62 0 1 0.21,0.71 c -1.68,3.05 -4.46,5.11 -6.08,7.74 q -7.56,12.24 -13.26,23.98 -1.02,2.11 1.29,1.7 l 10.01,-1.77 a 0.62,0.62 0 0 0 0.52,-0.62 q -0.12,-7.86 0.12,-15.67 c 0.13,-4.15 4.89,-7.99 8.13,-9.86 q 0.99,-0.57 0.72,0.54 -0.6,2.49 0.06,4.85 z m -45.41,11.37 c 0.49,-1.87 0.81,-13.88 -3.55,-11.39 a 1.05,1.04 75.3 0 0 -0.53,0.91 l -0.02,11.35 a 0.62,0.62 0 0 0 0.79,0.6 l 2.63,-0.77 a 1,0.99 -1.1 0 0 0.68,-0.7 z m -11.3,-9 c -5.7,3.34 -8.84,7.78 -13.72,12.69 a 0.82,0.81 52.3 0 0 -0.12,0.98 l 5.56,9.46 a 0.53,0.53 0 0 0 0.86,0.07 l 5.58,-6.76 a 1.44,1.44 0 0 0 0.34,-0.9 c 0.12,-4.86 -1.46,-11.39 1.62,-15.41 q 0.3,-0.38 -0.12,-0.13 z m 21.84,16.65 q -8.37,-3.42 -14,3.16 a 2.89,2.85 65.5 0 0 -0.68,1.86 l 0.03,16.18 a 1.05,1.05 0 0 0 1.09,1.05 c 3.15,-0.11 13.89,-1.79 15.56,-4.93 2.24,-4.19 2.53,-10.19 0.76,-14.56 q -0.79,-1.96 -2.76,-2.76 z M 171.29,83.4 c -0.1,0.58 -0.57,1.11 -0.02,1.57 a 0.53,0.53 0 0 0 0.81,-0.17 q 0.47,-0.93 -0.33,-1.57 a 0.29,0.28 24 0 0 -0.46,0.17 z"
         inkscape:connector-curvature="0"
         style="fill:#0b0b0b" />
      <path
         id="path33903"
         d="m 282.06,66.64 q 0.04,0.56 0.33,0.09 c 2.1,-3.38 12.07,-15.44 16.17,-14.97 a 0.29,0.29 0 0 1 0.22,0.42 q -0.65,1.22 -1.69,2.16 -7.47,6.74 -13.28,14.97 c -3.07,4.35 -2.21,12.48 -1.87,17.4 a 1.22,1.22 0 0 0 1.55,1.09 q 5.33,-1.51 9.81,-4.78 a 2.21,2.2 70 0 0 0.91,-1.95 c -0.81,-10.59 10.63,-31.36 21.9,-33.75 q 4.39,-0.93 8.94,0.36 c 12.61,3.58 10.41,15.38 7.58,24.93 -2.08,7.02 -1.9,13.87 -1.22,21.08 q 0.09,0.94 0.84,2.54 a 0.88,0.87 -41.3 0 1 -0.06,0.87 q -2.8,4.24 -7.17,6.82 a 0.86,0.84 44.4 0 1 -0.87,0 c -2.57,-1.53 -1.67,-11.28 -1.88,-14.36 q -0.05,-0.67 -0.47,-0.15 -4.95,6.23 -12.54,8.73 a 1.88,1.82 41.8 0 1 -1,0.04 c -2.69,-0.64 -5.48,-0.7 -7.72,-2.26 -3.25,-2.26 -6,-5.09 -6.78,-9.1 a 0.58,0.58 0 0 0 -0.94,-0.33 q -4.83,4.12 -10.21,7.38 c -3.18,1.92 -5.6,4.61 -8.75,6.71 q -0.57,0.38 -0.58,-0.31 l -0.04,-3.06 a 0.72,0.72 0 0 0 -0.53,-0.68 l -3.83,-1.05 q -2.63,-0.72 -1.82,-3.33 1.92,-6.17 5.56,-11.58 a 3.57,3.57 0 0 0 0.62,-2.01 q 0.03,-9.85 0,-19.64 c -0.02,-5.2 3.3,-8.74 7.81,-10.71 a 0.37,0.37 0 0 1 0.51,0.3 c 0.65,6.6 0.13,12.07 0.5,18.13 z m 33.72,19.34 -1.81,2.73 a 0.32,0.32 0 0 0 0.17,0.48 c 6.19,2.13 9.02,-6.1 9,-10.95 q -0.05,-8.26 0.83,-16.53 a 1.44,1.43 -58.7 0 0 -0.22,-0.92 c -3.1,-4.86 -9.89,-5.67 -15.1,-4.32 a 1.25,1.21 -81.9 0 0 -0.76,0.59 q -3.67,6.4 -4.93,13.67 -0.2,1.2 0.85,0.61 l 3.16,-1.74 q 0.85,-0.47 0.61,0.47 -1.67,6.66 -0.92,13.54 a 1.26,1.24 5.4 0 0 0.89,1.06 q 3.92,1.17 7.89,0.76 0.75,-0.08 0.34,0.55 z"
         inkscape:connector-curvature="0"
         style="fill:#0b0b0b" />
      <path
         id="path33905"
         d="m 237.75,51.46 -7,3.98 a 0.3,0.29 75.3 0 1 -0.44,-0.26 l -0.02,-2.43 2.08,-1.38 q 0.43,-0.29 0.72,-0.73 0.96,-1.51 2.53,-2.31 a 0.71,0.7 55.7 0 1 0.84,0.16 q 1.15,1.25 1.29,2.97 z"
         inkscape:connector-curvature="0"
         style="fill:#ffffff" />
      <path
         id="path33907"
         d="m 181.33,52.73 c 4.36,-2.49 4.04,9.52 3.55,11.39 a 1,0.99 -1.1 0 1 -0.68,0.7 l -2.63,0.77 a 0.62,0.62 0 0 1 -0.79,-0.6 l 0.02,-11.35 a 1.05,1.04 75.3 0 1 0.53,-0.91 z"
         inkscape:connector-curvature="0"
         style="fill:#d8d8d8" />
      <path
         id="path33909"
         d="m 246.5,97.21 q 1.27,1.11 1.28,2.75 0.01,0.41 0.18,0.78 l 1.13,2.31 q 0.51,1.06 -0.55,0.56 c -0.99,-0.47 -2.81,-3.57 -3.98,-2.36 a 1.02,1.01 52.9 0 1 -1.63,-0.23 q -3.65,-6.9 -5.65,-14.47 a 1.75,1.74 74.6 0 0 -2.16,-1.23 l -3.33,0.93 -1.6,-5.71 a 1.07,1.06 -11.9 0 1 0.88,-1.34 q 8.2,-1.18 11.94,-8.58 0.32,-0.64 -0.38,-0.55 l -12.11,1.45 a 0.5,0.5 0 0 1 -0.56,-0.5 l 0.15,-10.09 a 0.9,0.89 -12.5 0 1 0.52,-0.81 q 9.27,-4.2 19.14,-6.69 0.92,-0.23 0.29,0.48 L 246.44,58 A 1.82,1.79 67.3 0 0 246,59.1 l -1.44,37.89 a 0.95,0.91 80.7 0 0 1.25,0.94 q 0.13,-0.05 0.69,-0.72 z"
         inkscape:connector-curvature="0"
         style="fill:#ffffff" />
      <path
         id="path33911"
         d="m 159.86,67.81 c 4.88,-4.91 8.02,-9.35 13.72,-12.69 q 0.42,-0.25 0.12,0.13 c -3.08,4.02 -1.5,10.55 -1.62,15.41 a 1.44,1.44 0 0 1 -0.34,0.9 l -5.58,6.76 a 0.53,0.53 0 0 1 -0.86,-0.07 l -5.56,-9.46 a 0.82,0.81 52.3 0 1 0.12,-0.98 z"
         inkscape:connector-curvature="0"
         style="fill:#d8d8d8" />
      <path
         id="path33913"
         d="m 315.44,85.43 q -3.97,0.41 -7.89,-0.76 a 1.26,1.24 5.4 0 1 -0.89,-1.06 q -0.75,-6.88 0.92,-13.54 0.24,-0.94 -0.61,-0.47 l -3.16,1.74 q -1.05,0.59 -0.85,-0.61 1.26,-7.27 4.93,-13.67 a 1.25,1.21 -81.9 0 1 0.76,-0.59 c 5.21,-1.35 12,-0.54 15.1,4.32 a 1.44,1.43 -58.7 0 1 0.22,0.92 q -0.88,8.27 -0.83,16.53 c 0.02,4.85 -2.81,13.08 -9,10.95 a 0.32,0.32 0 0 1 -0.17,-0.48 l 1.81,-2.73 q 0.41,-0.63 -0.34,-0.55 z"
         inkscape:connector-curvature="0"
         style="fill:#ffffff" />
      <path
         id="path33915"
         d="m 195.42,71.77 q 1.97,0.8 2.76,2.76 c 1.77,4.37 1.48,10.37 -0.76,14.56 -1.67,3.14 -12.41,4.82 -15.56,4.93 a 1.05,1.05 0 0 1 -1.09,-1.05 l -0.03,-16.18 a 2.89,2.85 65.5 0 1 0.68,-1.86 q 5.63,-6.58 14,-3.16 z"
         inkscape:connector-curvature="0"
         style="fill:#d8d8d8" />
      <path
         id="path33917"
         d="m 171.27,84.97 c -0.55,-0.46 -0.08,-0.99 0.02,-1.57 a 0.29,0.28 24 0 1 0.46,-0.17 q 0.8,0.64 0.33,1.57 a 0.53,0.53 0 0 1 -0.81,0.17 z"
         inkscape:connector-curvature="0"
         style="fill:#d8d8d8" />
      <path
         id="path33919"
         d="m 264.22,99.75 q -2.76,0.25 -3.01,-2.46 a 0.49,0.49 0 0 1 0.49,-0.54 h 3.24 a 0.71,0.7 85.9 0 1 0.71,0.62 l 0.13,1.21 q 0.06,0.5 0.3,0.94 1.61,3 2,6.36 a 0.52,0.52 0 0 1 -0.47,0.58 l -1.51,0.14 a 0.43,0.43 0 0 0 -0.34,0.64 q 0.62,1.15 0.86,2.29 0.29,1.33 -0.49,0.21 -1.55,-2.22 -2.34,-4.78 a 1.3,1.3 0 0 1 0.1,-1 q 0.96,-1.76 0.87,-3.74 a 0.5,0.5 0 0 0 -0.54,-0.47 z"
         inkscape:connector-curvature="0"
         style="fill:#d8d8d8" />
      <path
         id="path33921"
         d="m 0,112.44 c 0.5,3.86 -0.88,9.23 1.95,10.96 a 0.59,0.59 0 0 1 0.21,0.78 l -0.26,0.5 a 0.46,0.46 0 0 1 -0.73,0.11 l -0.28,-0.27 q -0.72,-0.71 -0.66,0.3 l 0.06,0.91 a 0.49,0.48 79.9 0 0 0.63,0.44 c 2.33,-0.75 3.57,2.95 5.03,4.25 a 1.69,1.67 13.5 0 1 0.54,0.87 l 0.81,3.06 A 0.94,0.94 0 0 0 7.91,135 l 0.59,0.19 a 0.24,0.24 0 0 0 0.31,-0.2 l 0.25,-1.72 A 0.61,0.61 0 0 1 10,132.85 l 0.58,0.39 a 0.56,0.56 0 0 1 0.09,0.87 c -2.31,2.35 3.21,15.9 5.51,16.65 a 1.16,1.16 0 0 1 0.69,0.62 q 0.56,1.2 1.69,0.61 a 0.78,0.77 -29.9 0 1 1.02,0.27 l 1.95,3.11 a 0.81,0.8 56.5 0 1 -0.21,1.07 l -3.01,2.16 a 0.44,0.43 -49.3 0 0 0.05,0.74 c 2.62,1.33 2.33,3.27 3.24,5.27 q 3.56,7.89 6.91,15.88 0.19,0.47 -0.14,0.08 c -2.4,-2.88 -6.58,-8.3 -7.41,-11.88 -0.13,-0.55 -0.48,-1.02 -1.04,-0.97 a 1.08,1.07 -77.3 0 0 -0.83,0.53 q -0.35,0.61 -1.02,0.76 a 0.56,0.56 0 0 1 -0.64,-0.35 l -0.74,-1.96 q -0.24,-0.64 0.42,-0.47 l 1.09,0.28 a 0.45,0.45 0 0 0 0.56,-0.4 q 0.05,-0.55 -0.38,-0.87 a 1.17,1.15 18.9 0 1 -0.46,-0.92 q -0.08,-5.16 -4.08,-8.35 a 0.78,0.77 -62 0 1 -0.25,-0.84 c 1.25,-4.04 -5.16,-8.83 -6.51,-12.7 Q 4.46,134.98 1.04,127.87 a 0.37,0.37 0 0 0 -0.61,-0.09 q -0.44,0.47 -0.43,1.16 z"
         inkscape:connector-curvature="0"
         style="fill:#ffffff" />
      <path
         id="path33923"
         d="m 262.25,123.79 7.92,0.21 a 0.33,0.33 0 0 1 0.29,0.49 q -2.84,5.2 -7.96,8.3 -9.06,-1.09 -17.72,1.62 a 0.82,0.8 87.7 0 0 -0.55,0.61 l -1.81,9.29 q -0.5,2.57 2.05,2 9.68,-2.14 19.53,-3.03 1.41,-0.13 0.8,1.15 c -4.23,8.93 -14.24,8.22 -22.68,9.2 a 0.66,0.66 0 0 0 -0.58,0.64 l -0.15,7.4 a 0.48,0.48 0 0 0 0.7,0.43 l 0.97,-0.5 a 0.86,0.86 0 0 1 0.8,0 c 1.1,0.56 0.7,6.16 0.63,7.16 a 0.72,0.72 0 0 0 0.78,0.78 q 9.61,-0.73 18.84,-3.45 a 1.42,1.41 -7.2 0 0 1.01,-1.3 q 0.46,-13.22 1.84,-24.54 -0.05,-8.97 8.28,-12.19 a 0.5,0.49 80.9 0 1 0.67,0.49 l -0.72,11.63 a 0.45,0.44 89 0 0 0.49,0.48 l 9.73,-0.98 a 0.82,0.81 0 0 0 0.73,-0.72 c 0.97,-8.33 1.28,-13.19 9.3,-17.56 a 1.91,1.91 0 0 1 2.18,0.25 c 8,7.12 1.27,14.48 -4.05,19.77 a 1.58,1.56 -17.2 0 0 -0.45,0.84 q -2.32,12.84 -1.55,22.94 0.21,2.79 3.37,3.67 a 0.43,0.43 0 0 1 0.26,0.63 q -2.79,4.77 -7.61,7.55 -2.51,1.45 -3.9,-1.09 c -1.03,-1.89 -0.88,-3.62 -0.89,-5.74 q -0.06,-11.64 1.93,-23.04 a 0.32,0.32 0 0 0 -0.37,-0.37 l -9.61,1.86 a 0.6,0.59 88.7 0 0 -0.47,0.5 q -0.86,6.58 0.29,12.62 -1.05,3.69 0.05,6.85 a 0.88,0.86 -32.5 0 1 -0.21,0.9 l -7.12,6.87 q -1.73,1.66 -1.85,-0.73 l -0.25,-4.67 q -0.03,-0.62 -0.51,-0.22 c -7.56,6.16 -23.69,7.46 -33.01,7.47 a 0.77,0.76 -78.3 0 1 -0.7,-1.07 l 1.48,-3.48 q 0.19,-0.43 0.17,-0.91 -0.89,-18.32 4.31,-35.85 0.23,-0.76 -0.52,-0.5 l -1.62,0.57 a 0.59,0.58 71.7 0 1 -0.75,-0.38 c -0.39,-1.31 3.43,-5.15 4.31,-6.2 a 0.77,0.76 -60 0 0 -0.32,-1.21 q -2.09,-0.75 -3.82,0.45 a 1.29,1.28 -11.9 0 0 -0.54,0.82 c -1.26,6.21 -0.75,10.87 -1.51,17.43 q -0.49,4.28 -1.2,20.18 c -0.27,6.07 -2.68,9.79 -8.18,11.99 a 0.38,0.38 0 0 1 -0.52,-0.35 c 0.01,-5.82 -0.17,-11.35 0.47,-17.31 q 1.18,-11.03 1.13,-22.13 a 1.22,1.21 -65.5 0 0 -0.29,-0.79 l -1.53,-1.82 a 0.62,0.62 0 0 1 0.05,-0.85 q 1.22,-1.15 2.07,-2.62 0.93,-1.6 -0.72,-0.77 c -1.41,0.72 -9.52,5.27 -10.41,5.08 a 0.67,0.66 -66.1 0 1 -0.4,-1.04 c 6.76,-9.38 19.8,-13.73 30.68,-17.11 q 1.58,-0.49 3.16,-0.03 c 2.06,0.61 0.47,3.5 0.38,4.63 a 1.28,1.28 0 0 0 1.51,1.37 z"
         inkscape:connector-curvature="0"
         style="fill:#0b0b0b" />
      <path
         id="path33925"
         d="m 366.29,174.25 2.12,-2.51 q 0.51,-0.6 -0.15,-0.18 -1.42,0.89 -2.26,2.4 l -2.76,2.23 a 0.6,0.59 45.4 0 1 -0.76,-0.01 c -2.83,-2.34 -0.63,-33.98 -0.44,-39.41 q 0.1,-2.98 -1.65,-0.57 l -15.9,21.86 q -1.6,2.2 -0.52,4.7 l 1.75,4.05 a 0.93,0.91 -42.9 0 1 -0.04,0.81 q -2.69,4.79 -7.73,7.11 a 0.73,0.72 61.9 0 1 -0.93,-0.29 l -1.58,-2.67 a 0.43,0.43 0 0 0 -0.61,-0.14 l -1.97,1.36 q -1.01,0.71 -0.55,-0.44 2.45,-5.97 2.45,-7.79 -0.02,-15.57 0,-32.22 0,-2.74 1.7,-4.9 2.58,-3.27 6.28,-5.14 a 0.55,0.55 0 0 1 0.8,0.49 l -0.2,30.49 q -0.01,1.23 0.67,0.21 9.91,-14.82 22.43,-27.5 1.67,-1.7 3.48,-2.59 a 0.64,0.63 -12.5 0 1 0.92,0.58 q -0.39,17.7 -1.16,35.32 -0.17,3.76 1.11,8.05 a 0.32,0.31 -30.7 0 0 0.52,0.13 c 2.69,-2.64 3.98,-5.26 4.12,-9.27 q 0.3,-8.79 1.15,-17.54 c 0.45,-4.57 3.51,-8.56 7.49,-10.18 a 1.01,1.01 0 0 1 1.39,0.99 l -0.94,17.28 q -0.05,0.89 0.5,0.19 c 3.57,-4.54 12.2,-13.25 11.15,-19.24 a 3.34,3.33 -31.4 0 1 0.64,-2.62 q 2.73,-3.56 6.59,-5.88 1.58,-0.94 1.58,0.89 0.04,25.22 0.01,50.2 c 0,3.88 -5.57,8.01 -8.78,10.16 q -0.45,0.3 -0.44,-0.23 c 0.01,-0.74 0.4,-1.48 0.41,-2.16 q 0.25,-19.79 -0.1,-39.58 -0.01,-0.5 -0.34,-0.13 -5,5.64 -9.32,11.62 c -3,4.16 -2.23,10.56 -0.98,15.19 a 1.44,1.42 51.9 0 1 -0.12,1.03 q -2.59,4.73 -7.44,7.07 a 1.01,1 -19.7 0 1 -1.42,-0.67 l -1.37,-5.83 q -0.16,-0.7 -0.59,-0.12 -3.51,4.84 -8.5,8.14 a 0.35,0.34 69.1 0 1 -0.53,-0.24 q -0.19,-1.39 0.82,-2.5 z"
         inkscape:connector-curvature="0"
         style="fill:#0b0b0b" />
      <path
         id="path33927"
         d="M 65.09,148.1 Q 72.61,139.15 79,129.36 c 1.33,-2.05 6.24,-8.08 8.51,-7.59 a 0.42,0.42 0 0 1 0.26,0.63 q -9.9,15.49 -22.23,29.14 a 3.04,3.02 66.1 0 0 -0.77,2.02 l -0.03,15.17 a 0.59,0.58 3.9 0 0 0.51,0.58 c 5.99,0.8 11.38,0.47 11.55,-6.73 q 0.59,-25.5 23.52,-37.06 2.21,-1.1 7.41,-1.06 10.89,0.1 11.72,10.8 1.66,21.27 -12.75,35.09 c -6.52,6.24 -11.51,10.43 -20.4,8.07 -3.61,-0.96 -5.83,-5.25 -8.29,-9.07 a 0.47,0.46 -34.8 0 0 -0.67,-0.12 c -5.22,4 -7.93,7.64 -14.95,9.32 -1.65,0.4 -2.36,1.35 -3.77,2.19 a 1.38,1.38 0 0 1 -2.01,-0.72 c -0.55,-1.47 -0.75,-2.48 -1.93,-3.68 -4.3,-4.34 -1.96,-13.4 1.05,-17.8 A 1.59,1.52 -29.1 0 0 56,157.67 l 0.01,-23.82 q 0,-2.91 2.12,-4.89 l 5.18,-4.86 q 1.96,-1.84 1.89,0.86 l -0.56,22.98 q -0.01,0.72 0.45,0.16 z m 28.83,-4.63 q -0.69,3.62 -3.01,6.51 a 2.07,2.03 -23.4 0 0 -0.43,1.06 l -1.11,11.64 q -0.19,1.95 1.56,2.84 6.77,3.44 14.31,1.83 a 1.13,1.12 -79.5 0 0 0.69,-0.48 c 4.15,-6.54 4.99,-14.11 4.8,-21.72 -0.17,-7.26 -2.59,-11.04 -9.97,-11.81 -10.47,-1.09 -13.72,6 -14.49,14.55 q -0.07,0.76 0.4,0.16 2.65,-3.34 6.53,-5.14 0.9,-0.42 0.72,0.56 z"
         inkscape:connector-curvature="0"
         style="fill:#0b0b0b" />
      <path
         id="path33929"
         d="M 10.93,132.09 C 5.85,129.82 6.06,120.8 9.94,122.11 a 1.45,1.45 0 0 1 0.79,0.66 l 6.77,12.27 q 0.3,0.55 -0.31,0.48 l -2.93,-0.32 a 0.86,0.85 -10.4 0 1 -0.67,-0.46 c -0.68,-1.32 -1.2,-2 -2.66,-2.65 z"
         inkscape:connector-curvature="0"
         style="fill:#ffffff" />
      <path
         id="path33931"
         d="m 185.17,149.26 c 1.22,-1.48 2.2,-2.25 2.57,-4.29 2.79,-15.31 17.96,-24.59 33.03,-21.82 a 0.64,0.63 -86.1 0 1 0.52,0.6 c 0.1,4.22 -3.8,7.15 -6.76,9.62 a 0.94,0.94 0 0 1 -0.96,0.14 q -0.89,-0.37 -1.15,-1.36 a 0.79,0.78 83.7 0 0 -0.71,-0.58 q -6.59,-0.45 -13.03,0.98 -1.89,0.42 -1.9,2.35 l -0.04,8.57 a 0.42,0.42 0 0 0 0.55,0.41 q 10.12,-3.16 20.7,-3.52 0.99,-0.04 0.44,0.79 -2.83,4.25 -6.84,7.41 a 1.73,1.73 0 0 1 -0.91,0.37 l -12.1,1.26 a 2.02,2.02 0 0 0 -1.8,1.89 l -0.92,14.29 a 0.48,0.48 0 0 0 0.51,0.51 q 12.03,-0.5 23.33,-4.67 1.26,-0.46 0.57,0.69 c -6.96,11.55 -21.72,11.35 -33.15,13.79 a 1.35,1.35 0 0 1 -1.63,-1.35 l 0.21,-11.29 q 0.01,-0.94 -0.41,-0.1 -3.2,6.35 -8.72,10.74 -1.87,1.49 -2.09,-0.9 -0.15,-1.71 0.14,-4.72 c 1.13,-11.81 3.09,-22.85 2.7,-35.32 a 0.55,0.55 0 0 0 -0.68,-0.51 l -4.64,1.14 a 0.95,0.94 87.4 0 0 -0.71,0.79 q -2.57,17.6 -3.22,35.33 c -0.14,3.84 -4.69,7.01 -7.55,8.87 q -1,0.65 -1.02,-0.54 c -0.15,-12.39 1.65,-24.57 3.03,-36.84 q 0.25,-2.24 3.04,-5.46 a 0.12,0.11 -61 0 0 -0.05,-0.19 l -0.27,-0.09 a 0.25,0.04 -26.8 0 0 -0.19,0.06 l -5.2,2.46 q -0.84,0.4 -0.47,-0.46 c 3.65,-8.46 16.63,-12.27 24.95,-13.61 a 1.4,1.39 83.5 0 1 1.61,1.29 q 0.73,11.62 -1.1,23.13 -0.1,0.65 0.32,0.14 z"
         inkscape:connector-curvature="0"
         style="fill:#0b0b0b" />
      <path
         id="path33933"
         d="m 316.26,168.05 -4.82,3.45 a 1.6,1.57 27.6 0 1 -0.99,0.3 q -5.92,-0.22 -8.57,-4.29 c -4.69,-7.22 0.33,-27.63 3.33,-35.39 q 2.36,-6.11 8.35,-9.21 a 0.66,0.66 0 0 1 0.96,0.6 l -0.02,0.73 q 0,0.34 -0.13,0.64 -5.25,12.28 -5.35,27.88 -0.05,6.9 5.34,9.58 a 0.6,0.6 0 0 0 0.75,-0.2 c 3.86,-5.58 5.62,-18.63 6.38,-24.58 0.67,-5.23 3.73,-8.51 8.33,-10.59 a 0.34,0.33 77.3 0 1 0.47,0.3 c 0.26,15.05 -4.5,30.01 -6.61,44.88 -0.65,4.53 -4.6,7.9 -8.23,10.2 q -0.74,0.46 -0.64,-0.4 l 1.74,-13.73 q 0.05,-0.42 -0.29,-0.17 z"
         inkscape:connector-curvature="0"
         style="fill:#0b0b0b" />
      <path
         id="path33935"
         d="m 146.47,144.73 c -0.29,-0.08 -6.32,8.82 -7.03,9.8 a 0.93,0.93 0 0 0 0.17,1.26 c 4.34,3.62 -2.48,8.83 -5.33,10.69 a 0.97,0.96 -53.6 0 1 -0.77,0.12 l -1.15,-0.33 a 0.97,0.96 -58.2 0 0 -0.92,0.22 c -1.66,1.52 -5.23,4.13 -3.83,6.7 a 0.95,0.93 -43.3 0 1 -0.04,0.95 q -2.81,4.36 -7.53,6.6 a 0.99,0.99 0 0 1 -1.41,-0.83 c -0.59,-10.08 0.51,-19.87 2.63,-32.45 1.33,-7.89 -1.58,-11.38 6.29,-16.81 q 3.03,-2.09 3.63,1.54 1.62,9.88 6.08,18.77 a 0.45,0.44 49.8 0 0 0.75,0.07 l 8.3,-11.05 a 1.47,1.43 -30.8 0 0 0.28,-1.04 q -1.35,-10.34 8.05,-14.32 a 0.36,0.36 0 0 1 0.5,0.32 c 0.58,15.6 -1.7,31.14 -1.67,46.81 q 0,0.65 0.71,2.96 a 0.98,0.97 -31 0 1 -0.25,0.99 l -6.92,6.71 q -1.98,1.93 -2.07,-0.83 -0.61,-18.29 1.82,-36.42 a 0.39,0.38 -79.3 0 0 -0.29,-0.43 z m -19.15,14.25 -0.1,4.6 q -0.02,1.08 0.63,0.22 1.9,-2.48 0.47,-5.07 -0.96,-1.73 -1,0.25 z"
         inkscape:connector-curvature="0"
         style="fill:#0b0b0b" />
      <path
         id="path33937"
         d="m 262.5,132.79 3.11,7.18 a 0.65,0.65 0 0 0 0.7,0.39 l 0.65,-0.11 q -1.38,11.32 -1.84,24.54 a 1.42,1.41 -7.2 0 1 -1.01,1.3 q -9.23,2.72 -18.84,3.45 a 0.72,0.72 0 0 1 -0.78,-0.78 c 0.07,-1 0.47,-6.6 -0.63,-7.16 a 0.86,0.86 0 0 0 -0.8,0 l -0.97,0.5 a 0.48,0.48 0 0 1 -0.7,-0.43 l 0.15,-7.4 a 0.66,0.66 0 0 1 0.58,-0.64 c 8.44,-0.98 18.45,-0.27 22.68,-9.2 q 0.61,-1.28 -0.8,-1.15 -9.85,0.89 -19.53,3.03 -2.55,0.57 -2.05,-2 l 1.81,-9.29 a 0.82,0.8 87.7 0 1 0.55,-0.61 q 8.66,-2.71 17.72,-1.62 z"
         inkscape:connector-curvature="0"
         style="fill:#d8d8d8" />
      <path
         id="path33939"
         d="m 93.2,142.91 q -3.88,1.8 -6.53,5.14 -0.47,0.6 -0.4,-0.16 c 0.77,-8.55 4.02,-15.64 14.49,-14.55 7.38,0.77 9.8,4.55 9.97,11.81 0.19,7.61 -0.65,15.18 -4.8,21.72 a 1.13,1.12 -79.5 0 1 -0.69,0.48 q -7.54,1.61 -14.31,-1.83 -1.75,-0.89 -1.56,-2.84 l 1.11,-11.64 a 2.07,2.03 -23.4 0 1 0.43,-1.06 q 2.32,-2.89 3.01,-6.51 0.18,-0.98 -0.72,-0.56 z"
         inkscape:connector-curvature="0"
         style="fill:#d8d8d8" />
      <path
         id="path33941"
         d="m 19.84,150.53 -0.62,0.64 a 0.67,0.66 -47.4 0 1 -0.89,0.04 l -0.77,-0.64 A 1.65,1.64 -77.3 0 1 17,149.68 q -0.73,-3.08 -3.02,-5.3 a 1.02,1.01 30.4 0 1 -0.26,-0.99 l 0.5,-1.71 a 0.84,0.83 26.2 0 0 -0.32,-0.92 q -0.94,-0.67 -1.17,-1.8 -0.14,-0.65 0.41,-0.27 l 2.01,1.42 a 1.82,1.8 8.2 0 1 0.65,0.86 l 2.88,8.28 q 0.37,1.06 0.85,0.05 l 0.68,-1.41 a 0.66,0.65 31.7 0 1 0.99,-0.23 q 1.64,1.26 1.81,3.37 0.08,1.06 -0.78,0.44 l -1.4,-1.02 a 0.77,0.77 0 0 0 -0.99,0.08 z"
         inkscape:connector-curvature="0"
         style="fill:#ffffff" />
      <path
         id="path33943"
         d="m 127.32,158.98 q 0.04,-1.98 1,-0.25 1.43,2.59 -0.47,5.07 -0.65,0.86 -0.63,-0.22 z"
         inkscape:connector-curvature="0"
         style="fill:#d8d8d8" />
      <path
         id="path33945"
         d="m 2.81,163.19 c 1.14,0.06 0.08,1.59 -0.62,1.74 A 0.57,0.57 0 0 1 1.5,164.37 v -1.36 a 0.46,0.45 7.9 0 1 0.58,-0.43 q 0.44,0.12 0.73,0.61 z"
         inkscape:connector-curvature="0"
         style="fill:#ffffff" />
      <path
         id="path33947"
         d="m 48.69,204 h -2.75 c 0.4,-0.35 0.4,-0.79 0.07,-1.22 q -5.9,-7.45 -8.76,-16.39 c -1.87,-5.87 -3.46,-9.07 -7.04,-13.25 q -0.54,-0.63 0.3,-0.62 l 2.91,0.03 a 0.76,0.76 0 0 1 0.66,0.38 q 0.09,0.17 0.26,0.28 0.66,0.45 0.64,-0.35 l -0.02,-1.14 q -0.02,-1.11 0.57,-0.17 c 3.8,6 5.05,12.34 7.88,18.6 2.03,4.5 3.28,9.28 5.28,13.85 z"
         inkscape:connector-curvature="0"
         style="fill:#ffffff" />
      <path
         id="path33949"
         d="M 366.29,174.25 366,173.96 q 0.84,-1.51 2.26,-2.4 0.66,-0.42 0.15,0.18 z"
         inkscape:connector-curvature="0"
         style="fill:#d8d8d8" />
      <path
         id="path33951"
         d="m 280.4,185.96 q 0.46,0.58 0.49,1.28 0.04,0.73 -0.43,0.17 -1.21,-1.41 -0.97,-3.22 a 1.76,1.75 -54.8 0 0 -0.18,-1.06 q -1.44,-2.87 -1.54,-6.12 -0.04,-1.29 0.63,-0.19 c 1.19,1.94 3.91,6.36 2.03,8.37 a 0.59,0.58 -43.5 0 0 -0.03,0.77 z"
         inkscape:connector-curvature="0"
         style="fill:#ffffff" />
      <path
         id="path33953"
         d="m 14.2,184.18 c -0.78,0.23 -3.48,-5.31 -3.92,-6.26 q -0.56,-1.24 0.29,-0.18 2.19,2.7 3.93,5.67 a 0.53,0.53 0 0 1 -0.3,0.77 z"
         inkscape:connector-curvature="0"
         style="fill:#ffffff" />
      <path
         id="path33955"
         d="m 0,177.94 0.35,7.89 a 0.54,0.53 -0.6 0 0 0.53,0.51 l 2.84,0.04 a 0.61,0.61 0 0 1 0.54,0.86 q -0.3,0.68 -1.09,0.88 a 0.6,0.59 -11.2 0 0 -0.45,0.66 c 0.06,0.46 3.66,1.83 4.55,2.95 q 3.17,3.98 6.51,9.99 1.11,2.01 3.91,2.28 H 0 Z"
         inkscape:connector-curvature="0"
         style="fill:#ffffff" />
      <path
         id="path33957"
         d="m 315.83,187.14 q 0.65,-0.77 1.47,-1.36 l 10.42,-7.46 a 0.35,0.35 0 0 1 0.55,0.21 c 0.83,3.61 -9.13,13.15 -11.88,15.15 a 2.1,2.09 -52.7 0 1 -1.96,0.27 c -3.83,-1.4 0.02,-5.17 1.4,-6.81 z"
         inkscape:connector-curvature="0"
         style="fill:#0b0b0b" />
      <path
         id="path33959"
         d="m 44.97,182.16 q 0.15,-2.21 1.02,-0.17 l 2.07,4.8 q 0.41,0.97 -0.48,0.4 -2.83,-1.84 -2.61,-5.03 z"
         inkscape:connector-curvature="0"
         style="fill:#ffffff" />
      <path
         id="path33961"
         d="m 27.48,183.7 q 0.06,-0.1 0.14,-0.17 c 1.18,-1.08 1.95,-0.36 2.48,0.83 q 2.19,4.91 4.64,9.67 0.08,0.15 1.46,4.04 0.16,0.45 -0.22,0.96 -0.72,0.96 -1.09,-0.19 -2.33,-7.15 -7.78,-12.36 a 1.07,1.04 25 0 1 -0.33,-0.87 q 0.08,-0.87 0.7,-1.91 z"
         inkscape:connector-curvature="0"
         style="fill:#ffffff" />
      <path
         id="path33963"
         d="m 35.19,204 h -2.25 q -0.59,-3.73 -3.5,-6.28 a 0.52,0.52 0 0 1 -0.05,-0.74 q 0.79,-0.9 1.98,-0.86 0.85,0.02 0.34,0.71 l -0.2,0.27 a 0.85,0.85 0 0 0 -0.04,0.95 z"
         inkscape:connector-curvature="0"
         style="fill:#ffffff" />
    </g>
  </g>
</svg>
