<?xml version="1.0" encoding="UTF-8" standalone="no"?>
<!DOCTYPE svg PUBLIC "-//W3C//DTD SVG 1.1//EN" "http://www.w3.org/Graphics/SVG/1.1/DTD/svg11.dtd">
<svg xmlns="http://www.w3.org/2000/svg" version="1.1" viewBox="0 0 450 244">
<g stroke-width="2.00" fill="none" stroke-linecap="butt">
<path stroke="#d2d2d2" vector-effect="non-scaling-stroke" d="
  M 76.06 0.00
  L 76.17 3.84
  A 0.81 0.80 74.0 0 1 75.78 4.55
  Q 69.32 8.51 62.61 12.05
  C 58.78 14.06 55.67 16.65 52.23 19.18
  A 1.26 1.22 -60.0 0 1 51.39 19.42
  L 43.85 18.86
  Q 42.73 18.78 43.78 18.37
  Q 45.28 17.78 46.91 17.69
  A 0.60 0.60 0.0 0 0 47.48 17.08
  Q 47.45 15.74 45.87 15.27
  A 2.64 2.63 -52.5 0 0 43.70 15.56
  Q 37.37 19.54 30.26 19.53
  Q 17.26 19.53 4.25 19.48
  Q 2.88 19.48 0.76 20.27
  A 0.75 0.73 -7.2 0 0 0.28 20.88
  L 0.00 23.69"
/>
<path stroke="#d2d2d2" vector-effect="non-scaling-stroke" d="
  M 163.31 0.00
  Q 161.89 1.14 161.44 2.84
  A 1.20 1.20 0.0 0 1 160.85 3.57
  L 151.57 8.42
  Q 149.86 9.31 151.72 8.80
  Q 154.89 7.94 157.84 6.31
  A 0.77 0.77 0.0 0 1 158.71 6.39
  L 159.51 7.03
  A 0.63 0.63 0.0 0 0 160.30 7.04
  L 162.69 5.20
  A 1.06 1.05 34.0 0 1 163.65 5.02
  Q 165.19 5.49 165.96 6.91
  A 0.59 0.59 0.0 0 0 166.71 7.17
  L 173.06 4.53
  A 0.66 0.64 59.2 0 1 173.82 4.73
  L 174.06 5.04
  A 0.34 0.33 48.4 0 1 174.04 5.49
  Q 172.72 6.86 173.65 8.08
  A 0.66 0.65 63.0 0 1 173.32 9.11
  L 167.43 10.92
  Q 166.03 11.35 167.35 11.98
  Q 170.04 13.23 172.94 12.72
  A 0.62 0.60 -13.6 0 1 173.63 13.13
  C 173.91 13.96 171.66 15.11 171.28 16.25
  Q 171.14 16.69 171.58 16.55
  L 174.05 15.73
  Q 175.30 15.32 174.49 16.36
  C 173.23 17.94 170.86 16.82 170.40 17.83
  A 0.59 0.58 -70.6 0 0 170.78 18.64
  L 174.32 19.53
  Q 175.19 19.75 174.53 20.37
  Q 173.53 21.30 172.09 20.94
  Q 171.18 20.71 171.50 21.59
  L 171.70 22.13
  A 0.80 0.79 61.2 0 1 171.45 23.02
  L 166.71 26.73
  Q 165.00 28.08 167.03 27.29
  Q 172.34 25.22 177.99 25.21
  Q 180.18 25.21 179.62 27.33
  C 177.95 33.70 176.91 36.66 170.36 40.54
  A 0.24 0.22 -17.7 0 0 170.25 40.73
  L 170.25 41.01
  A 0.23 0.23 0.0 0 0 170.48 41.25
  L 173.25 41.25
  A 0.70 0.70 0.0 0 1 173.92 41.75
  Q 174.20 42.68 173.52 43.52
  Q 169.09 49.04 162.04 47.75"
/>
<path stroke="#686868" vector-effect="non-scaling-stroke" d="
  M 162.04 47.75
  L 162.04 38.61
  A 0.88 0.88 0.0 0 0 161.05 37.74
  C 154.61 38.60 148.27 42.07 142.32 44.57
  Q 139.65 45.69 127.37 55.39
  Q 123.63 58.35 121.16 62.78
  Q 120.46 64.05 121.82 63.56
  C 122.31 63.39 123.13 63.01 123.57 62.60
  Q 128.08 58.32 133.50 55.25
  A 0.32 0.31 -13.9 0 1 133.97 55.53
  L 133.96 71.50"
/>
<path stroke="#d2d2d2" vector-effect="non-scaling-stroke" d="
  M 133.96 71.50
  Q 132.64 71.39 132.33 72.83
  A 1.11 1.11 0.0 0 1 131.73 73.58
  L 127.77 75.51
  Q 125.49 76.62 127.48 78.19
  Q 130.53 80.58 133.96 78.75"
/>
<path stroke="#686868" vector-effect="non-scaling-stroke" d="
  M 133.96 78.75
  L 133.96 86.75"
/>
<path stroke="#d2d2d2" vector-effect="non-scaling-stroke" d="
  M 133.96 86.75
  Q 132.45 86.93 132.03 88.45
  A 1.13 1.13 0.0 0 1 131.43 89.16
  Q 129.68 90.02 128.84 91.81
  A 1.22 1.19 -88.5 0 1 128.19 92.44
  C 123.83 94.25 121.61 89.38 119.53 86.56
  Q 118.26 84.84 116.52 86.09
  L 112.56 88.95
  A 1.58 1.52 -61.0 0 1 111.59 89.25
  L 110.50 89.21"
/>
<path stroke="#686868" vector-effect="non-scaling-stroke" d="
  M 110.50 89.21
  C 119.75 75.12 120.62 62.36 121.67 44.49
  C 122.95 22.87 106.05 6.16 84.35 10.24
  C 71.97 12.56 61.54 29.56 59.08 40.56
  Q 55.01 58.84 55.89 77.56
  C 56.47 90.04 65.25 98.90 76.00 104.46"
/>
<path stroke="#d2d2d2" vector-effect="non-scaling-stroke" d="
  M 76.00 104.46
  Q 75.15 104.54 74.97 105.25
  A 0.67 0.67 0.0 0 1 74.39 105.76
  Q 66.62 106.65 59.41 109.71
  C 55.58 111.33 53.91 114.01 48.77 112.51
  Q 48.10 112.31 48.61 111.83
  Q 49.29 111.19 50.35 111.26
  A 0.57 0.57 0.0 0 0 50.96 110.69
  L 50.96 109.93
  Q 50.96 108.50 49.94 109.51
  C 45.78 113.61 41.44 112.13 37.19 114.78
  A 1.03 1.02 38.8 0 1 36.30 114.87
  C 32.08 113.33 24.93 115.18 20.33 115.49
  A 0.98 0.96 -22.1 0 1 19.51 115.15
  Q 18.60 114.09 17.44 114.18
  Q 8.87 114.86 0.29 115.50"
/>
<path stroke="#e3e3e3" vector-effect="non-scaling-stroke" d="
  M 0.29 115.50
  L 0.00 114.19"
/>
<path stroke="#e3e3e3" vector-effect="non-scaling-stroke" d="
  M 0.00 105.94
  Q 0.63 103.81 0.00 101.69"
/>
<path stroke="#d2d2d2" vector-effect="non-scaling-stroke" d="
  M 22.02 102.66
  Q 23.00 101.66 24.29 102.34
  Q 25.03 102.73 24.85 101.91
  C 24.63 100.97 20.35 101.73 19.48 101.98
  C 13.98 103.53 7.97 103.59 2.29 104.30
  A 0.81 0.81 0.0 0 0 1.59 104.95
  L 1.40 105.86
  A 0.76 0.76 0.0 0 0 2.05 106.77
  L 8.10 107.56
  A 0.75 0.74 -71.2 0 0 8.85 107.19
  C 9.24 106.49 9.73 106.23 10.59 106.25
  Q 18.84 106.47 27.00 107.56
  Q 27.46 107.62 27.91 107.51
  L 33.25 106.13
  Q 33.85 105.98 33.38 105.57
  C 30.82 103.29 21.81 106.44 21.78 103.27
  A 0.91 0.89 -24.0 0 1 22.02 102.66"
/>
<path stroke="#d2d2d2" vector-effect="non-scaling-stroke" d="
  M 256.56 0.00
  L 256.35 2.30
  A 0.53 0.53 0.0 0 0 256.79 2.87
  C 262.50 3.89 269.77 6.55 275.29 3.66
  A 0.92 0.91 -44.1 0 1 276.16 3.67
  C 280.40 6.00 284.98 4.74 289.72 5.58
  Q 290.23 5.67 289.72 5.73
  Q 282.99 6.57 277.50 5.99
  Q 276.48 5.88 275.83 6.21
  A 0.40 0.40 0.0 0 0 275.73 6.85
  L 276.15 7.28
  Q 277.02 8.14 275.80 8.14
  L 265.05 8.18
  Q 262.78 8.19 264.17 9.98
  C 265.27 11.40 268.62 12.29 268.72 14.62
  A 0.77 0.77 0.0 0 1 268.12 15.41
  L 264.98 16.14
  Q 264.64 16.21 264.91 16.44
  Q 265.78 17.15 266.75 17.23
  C 280.30 18.44 294.10 17.83 307.98 17.52
  Q 314.68 17.38 322.50 16.04
  Q 329.67 14.81 337.80 16.79
  Q 338.29 16.91 338.79 16.84
  L 341.34 16.50
  A 1.14 1.11 61.5 0 1 342.21 16.77
  C 345.64 19.87 357.15 20.20 360.45 16.94
  A 1.63 1.63 0.0 0 1 361.38 16.49
  Q 367.00 15.78 371.93 18.53
  Q 372.60 18.90 371.85 19.05
  Q 369.69 19.48 367.56 18.46
  A 0.90 0.90 0.0 0 0 366.62 18.56
  L 364.72 20.06
  Q 362.74 21.63 365.15 22.38
  Q 372.76 24.76 379.83 28.30
  C 384.74 30.75 388.81 34.83 394.81 35.41
  A 0.32 0.31 17.6 0 1 395.06 35.88
  C 392.60 40.34 398.78 45.47 401.40 48.65
  A 0.98 0.95 -58.0 0 1 401.59 49.52
  C 400.61 53.21 405.78 63.54 406.75 64.98
  Q 407.99 66.80 412.56 68.86
  A 0.66 0.65 -58.3 0 0 413.34 68.67
  C 417.74 63.17 417.85 52.85 416.27 46.74
  Q 416.14 46.23 416.55 45.84
  Q 416.95 45.45 417.03 46.00
  Q 417.79 51.26 418.62 56.51
  C 419.53 62.25 422.46 67.36 424.77 72.51
  Q 425.76 74.72 426.66 72.47
  Q 428.35 68.26 428.74 63.72
  A 1.57 1.49 -26.5 0 1 429.03 62.93
  L 430.02 61.53
  Q 430.49 60.86 430.68 61.66
  C 431.41 64.65 432.01 67.40 434.77 68.56
  A 0.46 0.45 18.3 0 0 435.38 68.26
  C 436.13 65.48 436.07 62.86 436.86 59.98
  Q 437.71 56.87 437.52 53.54
  A 0.58 0.57 5.5 0 1 438.24 52.95
  L 439.96 53.42
  A 0.91 0.91 0.0 0 1 440.59 54.02
  C 441.32 56.30 444.59 66.25 446.24 65.77
  A 0.56 0.55 -14.7 0 0 446.62 65.12
  Q 445.54 60.55 447.14 56.14
  Q 447.51 55.14 447.78 56.17
  L 448.67 59.62
  A 0.71 0.71 0.0 0 0 449.24 60.15
  Q 449.63 60.22 450.00 60.06"
/>
<path stroke="#eeeeee" vector-effect="non-scaling-stroke" d="
  M 450.00 116.31
  L 449.49 117.26
  Q 449.30 117.61 449.15 117.25
  Q 448.41 115.61 446.71 116.52
  Q 445.79 117.00 446.01 115.99
  L 446.36 114.34
  A 0.81 0.80 -63.8 0 0 446.10 113.56
  L 444.69 112.30
  A 0.57 0.57 0.0 0 0 443.90 112.34
  Q 441.45 115.02 443.06 118.11
  A 1.51 1.47 -52.9 0 1 443.19 119.15
  Q 442.57 121.79 443.19 124.37
  A 0.85 0.84 62.4 0 1 442.94 125.18
  C 440.16 127.81 443.88 129.62 442.54 132.96
  A 1.11 1.11 0.0 0 0 442.58 133.88
  Q 443.99 136.73 442.15 139.47
  Q 441.96 139.74 441.86 139.43
  C 441.04 137.09 439.26 137.30 438.25 135.61
  A 0.69 0.68 -22.6 0 0 437.50 135.31
  C 435.06 135.96 436.58 140.65 437.42 142.05
  A 0.82 0.80 -34.5 0 1 437.22 143.09
  Q 434.20 145.49 430.97 147.51
  C 428.45 149.09 425.69 148.38 424.07 151.93
  A 1.03 1.03 0.0 0 0 424.02 152.65
  L 424.55 154.56
  Q 424.82 155.56 423.88 155.11
  C 418.98 152.80 413.90 147.91 410.05 144.06
  C 408.90 142.92 399.25 133.88 398.29 134.58
  A 0.44 0.44 0.0 0 0 398.24 135.25
  Q 405.98 142.87 413.14 151.03
  C 414.97 153.11 422.90 159.23 422.58 161.83
  Q 422.40 163.38 420.92 164.47
  A 1.78 1.77 60.0 0 0 420.35 166.62
  L 421.58 169.39
  Q 421.93 170.17 421.10 169.94
  Q 417.62 169.00 415.69 166.13
  A 1.17 1.16 -52.5 0 1 415.56 165.10
  C 416.32 162.90 418.58 159.88 415.76 158.09
  A 0.56 0.56 0.0 0 0 414.90 158.52
  L 414.67 161.21
  A 1.79 1.78 67.3 0 1 414.28 162.17
  Q 411.73 165.37 411.99 169.54
  A 0.65 0.64 -6.3 0 1 411.44 170.22
  L 409.56 170.49
  Q 408.86 170.59 409.31 171.14
  C 410.56 172.65 412.78 175.46 410.60 176.84
  A 1.10 1.09 -32.5 0 0 410.26 178.36
  L 412.32 181.54
  Q 412.77 182.25 411.93 182.25
  L 408.93 182.25
  A 0.69 0.69 0.0 0 0 408.25 182.82
  L 407.82 185.30
  A 0.66 0.66 0.0 0 1 407.08 185.84
  L 406.74 185.79
  A 0.86 0.86 0.0 0 1 406.05 185.24
  L 404.62 181.32
  A 0.39 0.39 0.0 0 0 403.97 181.18
  C 402.28 182.94 404.24 185.41 403.22 186.24
  A 0.55 0.55 0.0 0 1 402.46 186.17
  C 400.50 183.95 398.83 177.41 398.81 174.48
  Q 398.81 173.98 398.52 174.39
  Q 397.33 176.06 396.97 178.04
  C 396.50 180.65 395.48 182.21 394.90 184.53
  A 0.86 0.86 0.0 0 1 393.61 185.05
  L 390.25 182.96"
/>
<path stroke="#737373" vector-effect="non-scaling-stroke" d="
  M 390.25 182.96
  L 390.86 181.57
  Q 391.17 180.85 390.44 181.14
  L 386.50 182.71"
/>
<path stroke="#eeeeee" vector-effect="non-scaling-stroke" d="
  M 386.50 182.71
  Q 385.05 181.89 383.54 181.30
  C 379.38 179.69 374.45 174.59 371.23 171.44
  A 1.91 1.91 0.0 0 1 370.85 169.22
  Q 372.51 165.86 369.75 162.21"
/>
<path stroke="#737373" vector-effect="non-scaling-stroke" d="
  M 369.75 162.21
  Q 376.25 159.36 378.89 152.76
  A 0.30 0.30 0.0 0 0 378.58 152.35
  C 372.86 153.04 360.94 154.05 357.42 159.08
  Q 356.27 160.72 355.96 158.74
  Q 354.80 151.34 355.00 143.86
  Q 355.04 142.10 356.58 141.23
  Q 367.76 134.97 380.57 133.84
  A 0.58 0.58 0.0 0 1 381.15 134.67
  L 378.02 141.40
  A 0.50 0.50 0.0 0 0 378.24 142.05
  Q 378.60 142.23 378.97 141.99
  C 383.57 139.00 390.78 131.36 390.72 125.24
  A 1.40 1.39 -3.7 0 0 389.16 123.88
  Q 369.98 126.18 355.75 137.77
  C 347.08 144.82 341.43 150.50 341.21 162.75"
/>
<path stroke="#eeeeee" vector-effect="non-scaling-stroke" d="
  M 341.21 162.75
  L 334.81 162.09"
/>
<path stroke="#737373" vector-effect="non-scaling-stroke" d="
  M 334.81 162.09
  Q 334.47 156.64 335.17 150.77
  A 1.49 1.48 70.6 0 1 335.58 149.91
  Q 343.13 142.05 342.93 132.10
  C 342.86 128.52 339.68 128.58 337.32 130.11
  C 329.23 135.36 327.12 143.35 325.70 152.70
  A 0.58 0.57 -86.9 0 1 325.16 153.19
  L 312.53 153.77
  A 0.50 0.49 -1.1 0 1 312.01 153.28
  L 311.98 129.18
  Q 311.98 127.42 310.48 128.34
  C 306.66 130.70 302.00 134.25 302.00 139.50
  Q 302.01 147.72 301.99 155.99
  C 301.97 161.37 298.99 164.42 293.66 164.76
  A 0.49 0.49 0.0 0 1 293.14 164.28
  Q 292.92 155.61 293.12 139.18
  Q 293.17 135.02 294.86 132.00
  A 0.54 0.54 0.0 0 0 294.49 131.21
  L 293.78 131.07
  A 1.03 1.02 -12.1 0 1 293.17 130.68
  C 291.48 128.32 286.83 133.70 285.65 135.39
  Q 282.13 140.40 277.79 144.75"
/>
<path stroke="#eeeeee" vector-effect="non-scaling-stroke" d="
  M 277.79 144.75
  Q 276.77 143.54 276.35 141.98
  A 1.36 1.36 0.0 0 0 275.83 141.21
  C 273.73 139.69 271.76 138.57 270.09 136.52
  C 267.13 132.89 264.14 127.20 258.48 128.24
  A 1.93 1.90 50.0 0 1 257.52 128.15
  Q 254.32 126.98 250.95 127.04
  C 248.37 127.09 245.39 128.62 242.18 128.37
  C 239.13 128.13 238.09 128.63 235.55 129.68
  C 231.89 131.18 228.72 131.40 225.04 132.00"
/>
<path stroke="#737373" vector-effect="non-scaling-stroke" d="
  M 225.04 132.00
  L 225.04 105.26
  A 1.27 1.27 0.0 0 1 226.56 104.02
  Q 231.41 105.03 236.20 101.99
  C 253.31 91.16 251.40 75.40 250.79 55.12
  A 0.81 0.80 -9.5 0 1 251.36 54.33
  L 259.37 51.89
  Q 261.36 51.28 261.29 53.36
  Q 260.85 65.57 257.99 77.39
  Q 257.08 81.15 255.44 83.63
  C 251.86 89.04 247.77 91.94 247.83 99.49
  C 247.87 104.72 250.60 107.70 255.91 108.21
  C 267.56 109.33 276.25 103.47 283.83 94.56
  C 289.73 87.62 289.68 79.18 287.57 70.84
  Q 286.90 68.21 284.19 68.31
  C 276.56 68.62 273.70 72.47 267.44 75.57
  Q 266.98 75.80 267.35 75.44
  C 277.09 66.05 284.28 59.66 293.80 53.35
  Q 295.44 52.27 295.06 54.20
  Q 290.59 76.49 290.58 99.16
  C 290.58 101.70 290.29 104.00 291.05 106.64
  A 0.74 0.74 0.0 0 0 292.23 107.01
  Q 296.82 103.26 300.63 98.70
  A 1.40 1.39 63.6 0 0 300.95 97.73
  Q 299.81 71.11 305.19 45.03
  Q 305.66 42.75 303.37 42.80
  Q 302.92 42.81 301.21 43.93
  Q 284.36 54.91 269.53 69.81
  A 1.01 1.01 0.0 0 1 267.94 69.60
  Q 267.86 69.45 268.11 68.53
  Q 271.67 55.66 271.10 42.92
  A 1.32 1.32 0.0 0 0 269.52 41.69
  Q 259.07 43.81 250.33 49.93
  A 0.52 0.52 0.0 0 1 249.56 49.72
  L 247.29 44.88
  Q 246.33 42.85 244.09 43.02
  Q 236.02 43.67 229.72 48.60
  Q 229.12 49.07 229.06 48.31
  L 228.83 45.66
  A 0.55 0.54 74.9 0 0 228.06 45.21
  Q 220.12 48.87 218.08 57.78
  Q 217.63 59.78 215.47 60.78
  Q 215.01 61.00 215.06 60.49
  C 216.31 47.84 200.00 44.72 190.71 45.00
  C 179.08 45.34 168.42 62.74 165.90 72.31
  C 164.51 77.57 164.37 84.37 163.76 90.32
  Q 163.45 93.42 160.48 92.93
  Q 158.10 92.54 158.17 90.13
  C 158.63 75.80 161.19 61.98 162.04 47.75"
/>
<path stroke="#eeeeee" vector-effect="non-scaling-stroke" d="
  M 418.7001 99.9731
  A 2.37 0.53 36.3 0 0 417.1038 98.1429
  A 2.37 0.53 36.3 0 0 414.8799 97.1669
  A 2.37 0.53 36.3 0 0 416.4762 98.9971
  A 2.37 0.53 36.3 0 0 418.7001 99.9731"
/>
<path stroke="#d2d2d2" vector-effect="non-scaling-stroke" d="
  M 448.46 16.59
  Q 448.80 14.92 448.02 13.59
  A 1.31 1.30 -5.2 0 0 447.33 13.02
  Q 440.26 10.53 434.37 5.98
  C 433.99 5.68 433.24 5.63 432.87 5.86
  A 0.57 0.56 59.6 0 0 432.68 6.61
  C 433.75 8.53 434.46 10.22 436.49 11.39
  Q 441.62 14.35 446.74 17.36
  A 1.16 1.16 0.0 0 0 448.46 16.59"
/>
<path stroke="#d2d2d2" vector-effect="non-scaling-stroke" d="
  M 349.31 10.58
  L 357.56 12.56
  A 1.83 1.78 -47.5 0 0 358.61 12.50
  C 361.18 11.56 362.90 12.88 364.91 13.18
  Q 368.53 13.73 372.30 13.69
  Q 372.94 13.68 372.54 13.18
  Q 368.77 8.45 363.27 11.32
  A 1.51 1.47 -55.3 0 1 362.45 11.48
  C 358.44 11.15 353.95 9.68 349.85 9.76
  A 0.56 0.54 22.0 0 0 349.46 9.92
  L 349.20 10.17
  Q 348.89 10.47 349.31 10.58"
/>
<path stroke="#d2d2d2" vector-effect="non-scaling-stroke" d="
  M 350.83 12.86
  Q 346.60 11.15 342.04 12.15
  Q 341.69 12.22 342.03 12.32
  L 350.63 14.67
  A 0.50 0.48 -82.1 0 0 351.25 14.19
  L 351.24 13.47
  A 0.66 0.66 0.0 0 0 350.83 12.86"
/>
<path stroke="#d2d2d2" vector-effect="non-scaling-stroke" d="
  M 385.51 23.91
  L 389.60 25.95
  A 0.68 0.67 -67.6 0 0 390.54 25.55
  L 390.76 24.91
  A 0.74 0.73 21.9 0 0 390.37 24.01
  Q 388.17 22.99 385.67 23.13
  Q 384.13 23.22 385.51 23.91"
/>
<path stroke="#d2d2d2" vector-effect="non-scaling-stroke" d="
  M 409.20 39.76
  L 409.81 42.05
  A 0.60 0.59 -18.6 0 0 410.62 42.45
  C 411.72 41.97 410.07 40.23 409.76 39.66
  Q 408.59 37.44 409.20 39.76"
/>
<path stroke="#737373" vector-effect="non-scaling-stroke" d="
  M 110.50 89.21
  C 104.61 96.72 98.96 100.54 93.00 106.46"
/>
<path stroke="#848484" vector-effect="non-scaling-stroke" d="
  M 93.00 106.46
  L 90.25 107.29"
/>
<path stroke="#737373" vector-effect="non-scaling-stroke" d="
  M 90.25 107.29
  Q 82.78 107.51 76.00 104.46"
/>
<path stroke="#686868" vector-effect="non-scaling-stroke" d="
  M 76.80 83.31
  C 82.38 90.34 91.12 95.08 100.39 94.53
  Q 102.51 94.41 103.47 92.52
  Q 109.61 80.45 110.80 67.01
  Q 112.06 52.85 111.43 46.06
  C 110.08 31.41 97.07 19.88 82.18 19.71
  A 2.33 2.32 10.5 0 0 79.99 21.21
  Q 71.85 42.84 71.72 66.51
  C 71.68 73.37 72.75 78.23 76.80 83.31"
/>
<path stroke="#737373" vector-effect="non-scaling-stroke" d="
  M 74.8860 20.4645
  A 0.26 0.26 0.0 0 0 74.7760 20.1136
  L 74.5633 20.0024
  A 0.26 0.26 0.0 0 0 74.2125 20.1124
  L 70.1540 27.8755
  A 0.26 0.26 0.0 0 0 70.2640 28.2264
  L 70.4767 28.3376
  A 0.26 0.26 0.0 0 0 70.8275 28.2276
  L 74.8860 20.4645"
/>
<path stroke="#848484" vector-effect="non-scaling-stroke" d="
  M 225.04 132.00
  L 225.04 136.75"
/>
<path stroke="#737373" vector-effect="non-scaling-stroke" d="
  M 225.04 136.75
  Q 224.71 138.74 225.50 140.54"
/>
<path stroke="#848484" vector-effect="non-scaling-stroke" d="
  M 225.50 140.54
  L 234.07 161.49
  Q 234.26 161.97 234.54 161.53
  Q 240.52 152.02 247.37 143.11
  C 250.02 139.66 252.31 136.21 256.17 134.35
  Q 258.24 133.35 257.96 135.64
  C 256.10 150.62 253.94 166.19 254.02 181.17
  A 0.33 0.32 -6.5 0 0 254.42 181.48
  Q 254.62 181.43 254.70 181.19
  Q 256.38 175.74 258.82 171.62
  Q 267.21 157.40 277.79 144.75"
/>
<path stroke="#848484" vector-effect="non-scaling-stroke" d="
  M 334.81 162.09
  C 335.01 169.13 334.74 173.86 338.73 178.43
  Q 339.68 179.52 339.81 178.08
  L 341.21 162.75"
/>
<path stroke="#848484" vector-effect="non-scaling-stroke" d="
  M 369.75 162.21
  L 358.70 164.06
  A 1.01 1.00 79.8 0 0 357.89 165.24
  C 359.12 171.76 360.74 180.95 356.33 186.57
  Q 356.02 186.96 356.52 186.99
  C 366.82 187.58 377.70 187.74 386.50 182.71"
/>
<path stroke="#848484" vector-effect="non-scaling-stroke" d="
  M 390.25 182.96
  Q 380.01 195.11 363.98 196.81
  C 359.73 197.26 341.27 198.16 338.78 194.56
  Q 337.28 192.41 339.14 190.56
  L 345.55 184.18
  A 1.64 1.63 74.6 0 0 345.98 183.42
  L 346.21 182.50
  A 0.21 0.20 6.7 0 0 346.01 182.25
  L 345.73 182.25
  A 0.51 0.48 22.2 0 0 345.39 182.38
  L 338.66 188.59
  Q 337.13 190.00 335.06 189.91
  Q 328.45 189.63 325.96 183.00"
/>
<path stroke="#737373" vector-effect="non-scaling-stroke" d="
  M 325.96 183.00
  C 324.21 175.59 325.15 167.30 324.85 159.65
  A 0.37 0.37 0.0 0 0 324.29 159.35
  Q 318.89 162.50 312.70 163.31
  A 0.67 0.67 0.0 0 0 312.11 163.96
  L 312.04 168.00"
/>
<path stroke="#848484" vector-effect="non-scaling-stroke" d="
  M 312.04 168.00
  L 312.01 191.33
  A 2.21 2.19 -25.0 0 1 311.48 192.76
  Q 307.65 197.17 303.06 200.79
  Q 302.02 201.62 302.01 200.28
  L 301.99 191.37
  Q 301.98 190.59 301.55 191.24
  Q 298.94 195.13 294.79 197.58
  Q 292.04 199.20 289.98 196.78
  C 284.92 190.82 283.84 184.08 283.01 176.75
  A 0.75 0.75 0.0 0 0 282.16 176.09
  L 264.78 178.63
  A 0.72 0.72 0.0 0 0 264.16 179.28
  L 263.95 181.34
  A 0.61 0.61 0.0 0 0 264.58 182.01
  L 267.32 181.97
  Q 270.74 181.91 268.32 184.34
  Q 260.83 191.86 252.39 197.86
  C 245.92 202.46 243.74 193.04 243.89 188.99
  Q 244.52 171.19 246.97 153.33
  Q 247.53 149.19 245.20 152.66
  L 236.97 164.91
  A 0.64 0.64 0.0 0 0 237.17 165.82
  L 240.52 167.84
  A 0.51 0.49 -62.1 0 1 240.71 168.49
  Q 237.53 174.98 229.86 178.17
  Q 226.66 179.50 223.22 183.29
  A 0.86 0.86 0.0 0 0 223.07 184.18
  L 224.48 187.55
  Q 225.30 189.52 223.96 191.18
  Q 220.62 195.35 215.94 197.92
  A 1.30 1.29 68.6 0 1 214.06 197.09
  Q 212.73 191.71 212.48 186.25
  Q 211.81 171.63 212.03 157.00
  Q 212.07 154.19 214.97 151.30
  A 0.73 0.73 0.0 0 0 215.08 150.41
  L 213.69 148.03
  A 1.07 1.06 42.4 0 1 213.64 147.05
  Q 214.76 144.61 214.54 142.00"
/>
<path stroke="#737373" vector-effect="non-scaling-stroke" d="
  M 214.54 142.00
  C 215.18 117.40 215.89 93.17 218.08 68.51
  Q 218.30 66.07 216.57 67.80
  L 214.91 69.46
  Q 214.59 69.78 214.47 70.22
  Q 209.60 88.28 195.05 100.03
  Q 189.93 104.16 184.78 108.28
  C 178.76 113.11 170.15 107.21 167.06 101.69
  Q 166.20 100.16 164.68 96.49
  A 0.36 0.36 0.0 0 0 164.11 96.36
  C 159.82 100.26 147.37 109.86 148.16 95.63
  Q 149.11 78.37 151.59 61.22
  Q 151.74 60.15 151.75 59.04"
/>
<path stroke="#686868" vector-effect="non-scaling-stroke" d="
  M 151.75 59.04
  Q 152.78 53.60 151.82 48.12
  A 0.58 0.57 75.2 0 0 151.06 47.67
  L 144.61 49.94
  A 0.88 0.87 80.7 0 0 144.02 50.77
  L 144.04 63.75"
/>
<path stroke="#737373" vector-effect="non-scaling-stroke" d="
  M 144.04 63.75
  L 144.12 97.26
  A 1.20 1.18 -67.7 0 0 144.44 98.05
  L 145.72 99.41
  A 0.83 0.82 40.1 0 1 145.81 100.44
  Q 141.98 106.13 136.25 109.91
  A 0.52 0.52 0.0 0 1 135.52 109.76
  C 132.71 105.33 133.99 92.30 133.96 86.75"
/>
<path stroke="#737373" vector-effect="non-scaling-stroke" d="
  M 133.96 78.75
  L 133.96 71.50"
/>
<path stroke="#737373" vector-effect="non-scaling-stroke" d="
  M 238.62 57.03
  C 236.89 52.20 232.79 52.23 228.97 54.50
  A 1.13 1.12 -11.8 0 0 228.43 55.32
  Q 227.74 60.61 228.05 65.95
  Q 228.08 66.45 227.90 66.91
  Q 227.41 68.14 227.45 69.50
  Q 227.47 70.05 227.86 69.66
  L 238.08 59.45
  A 2.31 2.31 0.0 0 0 238.62 57.03"
/>
<path stroke="#737373" vector-effect="non-scaling-stroke" d="
  M 178.70 68.34
  Q 179.19 75.85 179.02 83.45
  C 178.83 91.74 182.50 97.00 191.60 96.95
  Q 194.08 96.94 195.95 95.32
  C 202.55 89.61 208.24 71.12 203.90 63.34
  C 199.93 56.20 187.56 54.48 180.40 54.95
  A 1.52 1.50 12.5 0 0 179.16 55.73
  Q 175.65 62.07 174.97 69.32
  Q 174.89 70.09 175.53 69.65
  L 177.96 67.98
  Q 178.65 67.51 178.70 68.34"
/>
<path stroke="#737373" vector-effect="non-scaling-stroke" d="
  M 228.67 87.93
  C 229.79 92.29 234.34 95.10 238.90 93.82
  A 1.62 1.61 -4.2 0 0 240.06 92.48
  C 241.27 83.18 241.95 71.72 240.03 62.49
  A 0.33 0.32 -24.1 0 0 239.52 62.30
  C 230.35 69.11 225.58 75.95 228.67 87.93"
/>
<path stroke="#737373" vector-effect="non-scaling-stroke" d="
  M 268.79 80.13
  L 267.84 97.21
  A 0.71 0.71 0.0 0 0 268.46 97.95
  Q 272.61 98.41 276.43 96.84
  A 1.55 1.50 3.7 0 0 277.12 96.25
  C 279.82 91.88 278.79 84.55 277.45 80.17
  Q 276.72 77.82 274.30 78.27
  L 269.68 79.12
  A 1.10 1.09 -3.7 0 0 268.79 80.13"
/>
<path stroke="#848484" vector-effect="non-scaling-stroke" d="
  M 281.48 145.23
  Q 273.00 156.41 266.00 168.58
  Q 265.63 169.23 266.37 169.17
  L 282.44 167.92
  A 0.60 0.60 0.0 0 0 283.00 167.32
  L 283.00 145.74
  Q 283.00 143.21 281.48 145.23"
/>
<path stroke="#848484" vector-effect="non-scaling-stroke" d="
  M 299.52 186.90
  Q 302.00 190.04 302.00 186.03
  L 302.00 167.77
  Q 302.00 167.12 301.45 167.47
  L 294.14 172.16
  A 0.78 0.77 70.5 0 0 293.79 172.91
  Q 294.67 180.77 299.52 186.90"
/>
<path stroke="#848484" vector-effect="non-scaling-stroke" d="
  M 225.63 174.64
  A 0.98 0.97 -38.8 0 0 225.76 173.49
  L 222.62 168.07
  A 0.14 0.14 0.0 0 0 222.50 168.00
  L 222.24 168.00
  A 0.32 0.32 0.0 0 0 221.91 168.34
  L 222.38 176.35
  Q 222.49 178.12 223.68 176.80
  L 225.63 174.64"
/>
<path stroke="#d2d2d2" vector-effect="non-scaling-stroke" d="
  M 151.75 59.04
  L 150.18 59.34
  A 1.44 1.41 -75.4 0 0 149.38 59.82
  Q 147.18 62.42 144.04 63.75"
/>
<path stroke="#eeeeee" vector-effect="non-scaling-stroke" d="
  M 214.54 142.00
  C 214.74 141.16 214.43 140.89 213.64 141.09
  Q 209.40 142.18 205.04 142.00"
/>
<path stroke="#737373" vector-effect="non-scaling-stroke" d="
  M 205.04 142.00
  L 205.00 132.93
  A 0.93 0.93 0.0 0 0 203.69 132.09
  C 199.10 134.19 195.53 138.32 194.98 143.59
  Q 194.26 150.59 193.00 157.54"
/>
<path stroke="#eeeeee" vector-effect="non-scaling-stroke" d="
  M 193.00 157.54
  L 184.29 158.50"
/>
<path stroke="#737373" vector-effect="non-scaling-stroke" d="
  M 184.29 158.50
  Q 185.48 143.32 189.11 128.03
  Q 189.55 126.20 187.70 125.83
  Q 186.40 125.58 183.81 125.87
  C 168.73 127.58 156.12 132.56 140.71 139.16
  C 135.44 141.41 124.72 147.44 122.99 153.59
  Q 122.83 154.15 123.35 153.87
  Q 137.83 146.12 153.43 140.89
  A 0.38 0.38 0.0 0 1 153.93 141.25
  L 153.96 164.50"
/>
<path stroke="#eeeeee" vector-effect="non-scaling-stroke" d="
  M 153.96 164.50
  Q 145.95 166.68 138.01 169.08
  C 136.29 169.60 134.42 168.92 132.60 169.20
  Q 123.31 170.67 113.98 168.89"
/>
<path stroke="#737373" vector-effect="non-scaling-stroke" d="
  M 113.98 168.89
  C 113.09 159.99 112.84 150.79 100.09 153.77
  Q 98.19 154.22 99.16 152.53
  C 104.07 144.01 107.36 135.39 104.82 125.41
  A 0.64 0.63 81.7 0 0 104.20 124.94
  Q 99.07 125.02 94.25 126.96"
/>
<path stroke="#eeeeee" vector-effect="non-scaling-stroke" d="
  M 94.25 126.96
  Q 93.61 125.62 92.27 126.08
  A 1.76 1.75 -47.2 0 1 91.30 126.12
  L 88.11 125.32
  A 0.73 0.73 0.0 0 0 87.28 125.70
  L 86.99 126.30
  A 0.81 0.80 -52.2 0 0 87.10 127.20
  Q 88.09 128.35 89.50 129.04"
/>
<path stroke="#737373" vector-effect="non-scaling-stroke" d="
  M 89.50 129.04
  C 85.39 130.98 76.82 136.23 76.13 141.16
  Q 76.03 141.83 76.61 141.46
  Q 78.33 140.34 80.17 139.41
  Q 82.46 138.25 80.31 139.68
  C 76.46 142.23 74.97 145.13 74.99 150.00
  Q 75.04 158.01 74.96 166.00"
/>
<path stroke="#eeeeee" vector-effect="non-scaling-stroke" d="
  M 74.96 166.00
  L 71.47 164.63
  A 0.54 0.53 26.0 0 0 70.81 164.85
  Q 69.52 166.97 66.92 167.30
  A 0.75 0.74 86.9 0 0 66.27 168.03
  L 66.24 171.05
  A 0.49 0.48 1.1 0 1 65.73 171.53
  Q 61.71 171.34 61.69 175.23
  A 0.97 0.96 -6.4 0 1 60.93 176.17
  Q 53.36 177.85 45.63 176.81
  Q 45.01 176.73 44.38 176.74
  C 41.15 176.81 39.88 176.72 37.37 174.43
  Q 30.63 168.31 23.59 162.51
  C 22.30 161.44 21.98 159.95 21.10 158.56
  A 0.62 0.61 60.7 0 0 20.30 158.33
  L 19.34 158.79
  A 0.54 0.54 0.0 0 0 19.21 159.67
  C 21.34 161.65 33.66 173.71 33.41 175.05
  Q 33.31 175.63 32.91 175.20
  C 27.54 169.51 21.38 165.01 15.38 160.08
  A 0.46 0.46 0.0 0 0 14.77 160.10
  L 14.52 160.34
  A 0.52 0.52 0.0 0 0 14.52 161.09
  Q 15.70 162.23 15.67 163.72
  A 0.86 0.86 0.0 0 1 15.22 164.46
  Q 13.42 165.47 12.81 167.43
  A 0.76 0.74 25.2 0 0 13.12 168.27
  Q 14.67 169.28 16.56 168.94
  A 1.03 1.02 67.3 0 1 17.59 169.37
  L 19.74 172.50
  A 0.51 0.50 -22.9 0 1 19.42 173.28
  C 13.88 174.31 9.49 173.13 4.08 172.59
  C 1.41 172.32 -0.67 169.56 0.67 166.82
  A 1.28 1.27 48.9 0 0 0.73 165.85
  L 0.18 164.22
  A 0.76 0.76 0.0 0 1 0.68 163.26
  L 1.82 162.90
  A 0.37 0.36 -19.6 0 0 2.05 162.42
  C 1.46 160.94 -0.21 160.99 0.34 158.65
  A 0.67 0.67 0.0 0 1 1.05 158.13
  Q 3.15 158.32 5.02 157.11
  A 1.32 1.32 0.0 0 1 6.07 156.95
  L 13.20 158.82
  A 0.23 0.23 0.0 0 0 13.49 158.55
  L 13.20 157.03
  A 0.49 0.49 0.0 0 1 13.74 156.45
  L 15.97 156.73
  A 0.62 0.62 0.0 0 0 16.65 156.29
  C 16.76 155.89 8.09 147.50 6.15 145.29
  Q 3.36 142.10 -0.04 139.48"
/>
<path stroke="#eeeeee" vector-effect="non-scaling-stroke" d="
  M 0.00 137.44
  Q 13.93 136.15 18.44 136.10
  Q 20.01 136.08 20.85 135.68
  A 1.52 1.49 -53.1 0 1 21.77 135.54
  C 23.91 135.89 24.28 134.30 25.53 133.61
  Q 27.14 132.73 29.03 132.46
  A 1.05 1.04 -28.1 0 1 29.90 132.72
  C 31.18 133.89 33.62 137.22 34.94 137.78
  A 1.07 1.07 0.0 0 0 35.86 137.74
  C 38.07 136.55 40.73 133.23 43.30 134.74
  Q 43.71 134.99 44.18 135.12
  L 49.28 136.52
  Q 51.14 137.03 50.36 135.27
  L 49.53 133.39
  A 0.57 0.57 0.0 0 0 48.83 133.08
  Q 43.89 134.71 39.48 132.21
  A 0.59 0.59 0.0 0 1 39.23 131.47
  L 39.75 130.20
  A 0.84 0.83 -77.9 0 1 40.55 129.68
  L 49.14 129.96
  A 0.72 0.72 0.0 0 1 49.84 130.59
  C 50.92 138.62 57.35 134.42 62.00 136.32
  Q 62.53 136.54 62.45 135.97
  Q 61.96 132.75 59.15 130.96
  Q 58.11 130.28 59.32 130.03
  L 63.18 129.21
  Q 64.70 128.89 63.36 128.10
  Q 60.60 126.48 57.59 127.85
  A 0.89 0.87 -41.5 0 1 56.78 127.81
  Q 50.79 124.15 46.15 118.84
  Q 45.50 118.10 43.16 116.81
  A 0.58 0.58 0.0 0 0 42.46 116.93
  L 41.43 118.04
  A 0.74 0.74 0.0 0 1 40.60 118.22
  L 37.58 116.95
  Q 36.84 116.64 36.96 117.44
  L 37.67 121.96
  Q 38.00 124.08 35.87 124.33
  L 14.08 126.90
  A 0.49 0.49 0.0 0 1 13.54 126.39
  C 13.58 125.49 30.11 122.70 31.10 122.47
  A 0.50 0.49 76.5 0 0 31.47 121.86
  L 30.93 119.84
  A 0.57 0.56 76.5 0 0 30.27 119.43
  Q 24.06 120.73 18.76 119.98
  Q 14.97 119.44 14.41 122.58
  A 0.81 0.81 0.0 0 1 13.73 123.23
  Q 10.35 123.71 7.16 122.39
  A 1.19 1.17 -0.5 0 1 6.54 121.79
  Q 5.04 118.33 1.24 117.74
  A 1.06 1.04 -7.2 0 1 0.44 117.13
  Q 0.06 116.25 0.29 115.50"
/>
<path stroke="#eeeeee" vector-effect="non-scaling-stroke" d="
  M 90.25 107.29
  Q 88.36 107.99 88.25 110.26
  Q 88.09 113.35 91.13 112.78
  Q 93.14 112.41 95.07 113.15
  A 0.84 0.83 35.7 0 0 95.89 113.02
  Q 97.42 111.80 96.50 110.04"
/>
<path stroke="#d2d2d2" vector-effect="non-scaling-stroke" d="
  M 96.50 110.04
  L 99.11 110.24
  A 0.80 0.79 11.7 0 0 99.93 109.71
  L 100.99 106.65
  Q 101.49 105.20 100.13 105.93
  L 95.25 108.54"
/>
<path stroke="#eeeeee" vector-effect="non-scaling-stroke" d="
  M 95.25 108.54
  L 93.00 106.46"
/>
<path stroke="#eeeeee" vector-effect="non-scaling-stroke" d="
  M 122.93 120.84
  L 120.38 122.42
  A 0.78 0.78 0.0 0 0 120.06 123.34
  C 120.68 125.10 125.44 123.54 126.24 123.74
  C 128.18 124.23 133.96 124.91 135.70 123.01
  Q 136.07 122.60 135.53 122.48
  C 133.33 122.01 130.37 122.84 128.57 121.57
  A 0.69 0.69 0.0 0 1 128.31 120.78
  C 129.10 118.41 136.46 122.02 136.26 118.89
  A 0.66 0.66 0.0 0 0 135.53 118.27
  L 131.97 118.67
  A 0.34 0.31 -16.2 0 1 131.65 118.51
  L 131.48 118.24
  A 0.39 0.38 57.7 0 1 131.59 117.73
  C 134.77 115.47 128.95 111.93 127.30 110.68
  A 1.11 1.11 0.0 0 0 126.41 110.48
  Q 123.69 111.02 122.74 113.53
  A 0.55 0.55 0.0 0 1 122.01 113.84
  Q 118.38 112.27 114.40 113.27
  A 0.56 0.56 0.0 0 0 114.05 114.09
  Q 115.40 116.45 115.09 119.15
  A 1.05 1.05 0.0 0 0 116.50 120.26
  Q 119.54 119.15 122.78 119.93
  Q 123.94 120.21 122.93 120.84"
/>
<path stroke="#eeeeee" vector-effect="non-scaling-stroke" d="
  M 103.06 115.20
  Q 102.92 114.53 101.02 114.48
  A 0.73 0.72 83.9 0 0 100.30 115.38
  L 100.58 116.46
  A 1.42 1.39 49.0 0 1 100.53 117.28
  Q 100.13 118.30 100.39 119.31
  A 0.88 0.88 0.0 0 0 101.24 119.97
  L 111.73 119.88
  Q 112.65 119.88 112.17 119.10
  Q 110.01 115.57 105.99 114.65
  A 0.81 0.80 23.8 0 0 105.15 114.97
  Q 104.57 115.75 103.64 115.70
  A 0.63 0.63 0.0 0 1 103.06 115.20"
/>
<path stroke="#eeeeee" vector-effect="non-scaling-stroke" d="
  M 67.64 118.23
  L 70.91 119.40
  A 0.32 0.07 20.9 0 0 71.19 119.44
  L 71.39 119.23
  A 0.36 0.35 44.4 0 0 71.38 118.71
  Q 69.58 117.08 67.15 117.04
  Q 66.69 117.03 66.28 116.81
  Q 64.30 115.73 62.07 115.48
  Q 61.02 115.36 61.86 116.00
  C 62.65 116.59 66.32 120.16 67.00 118.51
  A 0.50 0.50 0.0 0 1 67.64 118.23"
/>
<path stroke="#eeeeee" vector-effect="non-scaling-stroke" d="
  M 92.73 121.66
  C 91.69 121.09 84.12 118.40 85.60 122.08
  A 0.64 0.64 0.0 0 0 86.32 122.48
  Q 88.70 122.03 91.04 122.72
  A 1.76 1.69 -43.9 0 0 91.97 122.72
  L 92.63 122.54
  Q 93.75 122.22 92.73 121.66"
/>
<path stroke="#eeeeee" vector-effect="non-scaling-stroke" d="
  M 69.38 126.55
  C 68.56 127.14 65.61 127.36 65.47 127.94
  A 0.39 0.38 -86.2 0 0 65.88 128.41
  C 72.94 127.81 74.36 135.39 83.25 130.71
  A 0.43 0.43 0.0 0 0 83.43 130.12
  Q 82.59 128.62 83.22 127.03
  A 0.80 0.80 0.0 0 0 83.00 126.14
  C 78.77 122.45 73.06 122.18 67.70 121.40
  A 0.43 0.43 0.0 0 0 67.22 121.90
  Q 67.64 124.24 69.41 125.79
  A 0.48 0.48 0.0 0 1 69.38 126.55"
/>
<path stroke="#eeeeee" vector-effect="non-scaling-stroke" d="
  M 25.37 149.69
  C 24.51 148.91 24.39 147.64 23.86 146.92
  Q 22.22 144.72 19.50 144.05
  Q 18.99 143.93 18.60 143.59
  L 15.87 141.33
  Q 14.77 140.40 15.02 141.82
  L 15.14 142.47
  A 2.20 2.19 9.6 0 0 16.25 144.02
  Q 20.89 146.57 24.50 150.45
  Q 25.97 152.02 27.06 150.17
  Q 28.92 147.00 32.55 146.68
  A 0.51 0.51 0.0 0 0 33.02 146.12
  L 32.79 143.82
  A 0.62 0.61 5.7 0 0 32.35 143.29
  Q 28.46 142.20 25.84 139.19
  Q 24.72 137.92 23.09 137.47
  Q 20.31 136.71 19.47 137.75
  A 0.68 0.67 45.4 0 0 19.47 138.58
  C 20.59 140.05 21.08 141.54 22.57 142.73
  C 24.11 143.96 27.95 147.93 26.14 149.69
  A 0.57 0.56 44.6 0 1 25.37 149.69"
/>
<path stroke="#eeeeee" vector-effect="non-scaling-stroke" d="
  M 70.74 140.17
  L 58.06 138.33
  A 0.45 0.45 0.0 0 0 57.55 138.72
  L 57.33 140.49
  A 0.57 0.57 0.0 0 0 57.78 141.12
  Q 60.67 141.75 62.51 144.10
  A 1.03 1.02 68.5 0 0 63.39 144.49
  Q 67.63 144.17 71.11 141.82
  Q 73.05 140.51 70.74 140.17"
/>
<path stroke="#eeeeee" vector-effect="non-scaling-stroke" d="
  M 7.65 143.97
  Q 7.13 144.49 8.31 145.51
  Q 8.72 145.85 9.19 146.09
  L 14.72 148.84
  A 0.34 0.34 0.0 0 0 15.10 148.78
  L 15.28 148.60
  A 0.37 0.36 44.4 0 0 15.27 148.08
  C 13.87 146.72 10.27 142.32 8.23 142.87
  A 0.23 0.22 -87.1 0 0 8.08 143.01
  L 7.90 143.56
  Q 7.82 143.79 7.65 143.97"
/>
<path stroke="#eeeeee" vector-effect="non-scaling-stroke" d="
  M 25.63 156.23
  Q 24.18 153.91 21.40 154.26
  Q 20.41 154.38 21.19 155.00
  Q 22.88 156.34 24.84 157.17
  Q 26.73 157.96 25.63 156.23"
/>
<path stroke="#e3e3e3" vector-effect="non-scaling-stroke" d="
  M 96.50 110.04
  Q 95.40 109.65 95.25 108.54"
/>
<path stroke="#eeeeee" vector-effect="non-scaling-stroke" d="
  M 450.00 121.06
  Q 448.86 118.39 445.99 118.29
  A 0.81 0.79 12.0 0 0 445.22 118.78
  L 444.69 120.03
  A 0.84 0.84 0.0 0 0 444.85 120.94
  L 445.93 122.06
  A 0.43 0.42 57.4 0 1 445.78 122.75
  L 444.18 123.36
  A 1.01 1.01 0.0 0 0 443.73 124.92
  L 448.43 131.09
  A 0.53 0.53 0.0 0 1 448.29 131.86
  Q 446.98 132.70 445.76 131.23
  Q 445.08 130.40 445.10 131.47
  Q 445.12 133.00 445.93 134.31
  A 0.68 0.68 0.0 0 0 446.76 134.58
  L 450.00 133.31"
/>
<path stroke="#848484" vector-effect="non-scaling-stroke" d="
  M 74.96 166.00
  L 75.09 178.52
  A 1.53 1.52 -28.1 0 1 74.81 179.43
  C 71.75 183.76 67.98 186.69 69.15 192.94
  C 70.35 199.38 74.66 203.09 81.21 203.88
  C 93.06 205.32 104.15 197.58 110.42 187.92
  C 114.32 181.89 114.47 175.80 113.98 168.89"
/>
<path stroke="#848484" vector-effect="non-scaling-stroke" d="
  M 153.96 164.50
  L 153.99 194.03
  Q 153.99 196.03 155.70 194.99
  Q 160.38 192.13 163.39 187.52
  A 3.84 3.81 61.8 0 0 164.01 185.43
  L 164.04 164.25"
/>
<path stroke="#eeeeee" vector-effect="non-scaling-stroke" d="
  M 164.04 164.25
  L 174.46 163.75"
/>
<path stroke="#848484" vector-effect="non-scaling-stroke" d="
  M 174.46 163.75
  Q 173.87 174.12 174.00 184.55
  C 174.05 188.45 175.23 191.49 179.35 191.89
  C 184.32 192.38 191.85 182.76 194.32 179.00
  Q 194.75 178.34 194.80 179.13
  C 195.62 191.98 195.58 211.78 189.79 223.55
  A 2.64 2.61 -81.4 0 1 187.87 224.98
  C 176.71 226.82 169.69 219.09 169.77 208.67
  Q 169.79 206.58 171.27 205.11
  C 172.07 204.31 179.28 197.49 179.03 196.69
  A 0.66 0.66 0.0 0 0 178.33 196.24
  Q 173.13 196.81 167.59 201.16
  Q 155.49 210.66 161.26 224.77
  C 163.83 231.06 167.19 235.10 174.44 235.19
  C 189.39 235.35 200.50 218.85 202.87 206.02
  C 206.60 185.86 205.01 162.83 205.04 142.00"
/>
<path stroke="#eeeeee" vector-effect="non-scaling-stroke" d="
  M 312.04 168.00
  C 314.64 167.84 316.93 170.49 318.61 172.28
  A 0.63 0.62 43.1 0 1 318.64 173.10
  L 316.17 176.17
  A 0.89 0.87 56.2 0 0 316.02 176.98
  Q 316.91 179.76 320.00 179.72
  A 0.93 0.93 0.0 0 1 320.81 180.16
  Q 321.61 181.43 323.14 181.42
  A 0.83 0.82 75.1 0 1 323.88 181.85
  Q 324.52 183.09 325.96 183.00"
/>
<path stroke="#eeeeee" vector-effect="non-scaling-stroke" d="
  M 55.3655 133.2803
  A 1.53 0.81 49.9 0 0 54.9996 131.5883
  A 1.53 0.81 49.9 0 0 53.3945 130.9397
  A 1.53 0.81 49.9 0 0 53.7604 132.6317
  A 1.53 0.81 49.9 0 0 55.3655 133.2803"
/>
<path stroke="#eeeeee" vector-effect="non-scaling-stroke" d="
  M 450.05 122.86
  L 447.79 125.15
  A 0.52 0.52 0.0 0 0 447.78 125.87
  Q 449.27 127.50 450.00 129.56"
/>
<path stroke="#848484" vector-effect="non-scaling-stroke" d="
  M 89.50 129.04
  L 94.25 126.96"
/>
<path stroke="#737373" vector-effect="non-scaling-stroke" d="
  M 85.00 138.25
  L 85.00 159.45
  A 0.34 0.34 0.0 0 0 85.47 159.77
  C 95.14 155.99 96.37 144.56 95.00 135.73
  A 0.88 0.87 84.4 0 0 94.11 134.99
  Q 89.58 135.14 85.62 137.22
  A 1.17 1.17 0.0 0 0 85.00 138.25"
/>
<path stroke="#848484" vector-effect="non-scaling-stroke" d="
  M 88.67 171.84
  L 85.32 175.35
  A 1.14 1.13 67.1 0 0 85.00 176.14
  L 85.04 191.97
  A 1.46 1.46 0.0 0 0 86.16 193.39
  C 90.77 194.52 102.46 195.37 103.79 189.03
  C 104.79 184.22 105.03 165.30 97.29 163.08
  C 91.97 161.55 86.93 166.32 84.80 170.83
  C 84.78 170.88 84.82 171.41 84.86 171.48
  A 0.37 0.36 -20.6 0 0 85.26 171.65
  L 88.19 170.99
  Q 89.84 170.61 88.67 171.84"
/>
<path stroke="#848484" vector-effect="non-scaling-stroke" d="
  M 184.29 158.50
  C 184.12 160.99 182.76 181.54 186.16 181.04
  A 1.71 1.69 4.6 0 0 187.55 179.87
  Q 191.39 167.82 193.00 157.54"
/>
<path stroke="#737373" vector-effect="non-scaling-stroke" d="
  M 174.46 163.75
  Q 176.07 149.98 179.06 136.34
  A 0.60 0.59 -87.2 0 0 178.41 135.61
  L 165.04 137.10
  A 1.16 1.16 0.0 0 0 164.01 138.25
  L 164.04 164.25"
/>
<path stroke="#eeeeee" vector-effect="non-scaling-stroke" d="
  M 225.50 140.54
  C 228.20 140.46 231.09 141.76 233.62 140.32
  A 0.56 0.56 0.0 0 0 233.86 139.60
  C 232.32 136.11 228.43 135.82 225.04 136.75"
/>
<path stroke="#eeeeee" vector-effect="non-scaling-stroke" d="
  M 375.5126 181.5768
  A 4.09 0.96 50.3 0 0 373.6386 177.8168
  A 4.09 0.96 50.3 0 0 370.2874 175.2832
  A 4.09 0.96 50.3 0 0 372.1614 179.0432
  A 4.09 0.96 50.3 0 0 375.5126 181.5768"
/>
</g>
<path fill="#dddddd" d="
  M 0.00 0.00
  L 76.06 0.00
  L 76.17 3.84
  A 0.81 0.80 74.0 0 1 75.78 4.55
  Q 69.32 8.51 62.61 12.05
  C 58.78 14.06 55.67 16.65 52.23 19.18
  A 1.26 1.22 -60.0 0 1 51.39 19.42
  L 43.85 18.86
  Q 42.73 18.78 43.78 18.37
  Q 45.28 17.78 46.91 17.69
  A 0.60 0.60 0.0 0 0 47.48 17.08
  Q 47.45 15.74 45.87 15.27
  A 2.64 2.63 -52.5 0 0 43.70 15.56
  Q 37.37 19.54 30.26 19.53
  Q 17.26 19.53 4.25 19.48
  Q 2.88 19.48 0.76 20.27
  A 0.75 0.73 -7.2 0 0 0.28 20.88
  L 0.00 23.69
  L 0.00 0.00
  Z"
/>
<path fill="#c7c7c7" d="
  M 76.06 0.00
  L 163.31 0.00
  Q 161.89 1.14 161.44 2.84
  A 1.20 1.20 0.0 0 1 160.85 3.57
  L 151.57 8.42
  Q 149.86 9.31 151.72 8.80
  Q 154.89 7.94 157.84 6.31
  A 0.77 0.77 0.0 0 1 158.71 6.39
  L 159.51 7.03
  A 0.63 0.63 0.0 0 0 160.30 7.04
  L 162.69 5.20
  A 1.06 1.05 34.0 0 1 163.65 5.02
  Q 165.19 5.49 165.96 6.91
  A 0.59 0.59 0.0 0 0 166.71 7.17
  L 173.06 4.53
  A 0.66 0.64 59.2 0 1 173.82 4.73
  L 174.06 5.04
  A 0.34 0.33 48.4 0 1 174.04 5.49
  Q 172.72 6.86 173.65 8.08
  A 0.66 0.65 63.0 0 1 173.32 9.11
  L 167.43 10.92
  Q 166.03 11.35 167.35 11.98
  Q 170.04 13.23 172.94 12.72
  A 0.62 0.60 -13.6 0 1 173.63 13.13
  C 173.91 13.96 171.66 15.11 171.28 16.25
  Q 171.14 16.69 171.58 16.55
  L 174.05 15.73
  Q 175.30 15.32 174.49 16.36
  C 173.23 17.94 170.86 16.82 170.40 17.83
  A 0.59 0.58 -70.6 0 0 170.78 18.64
  L 174.32 19.53
  Q 175.19 19.75 174.53 20.37
  Q 173.53 21.30 172.09 20.94
  Q 171.18 20.71 171.50 21.59
  L 171.70 22.13
  A 0.80 0.79 61.2 0 1 171.45 23.02
  L 166.71 26.73
  Q 165.00 28.08 167.03 27.29
  Q 172.34 25.22 177.99 25.21
  Q 180.18 25.21 179.62 27.33
  C 177.95 33.70 176.91 36.66 170.36 40.54
  A 0.24 0.22 -17.7 0 0 170.25 40.73
  L 170.25 41.01
  A 0.23 0.23 0.0 0 0 170.48 41.25
  L 173.25 41.25
  A 0.70 0.70 0.0 0 1 173.92 41.75
  Q 174.20 42.68 173.52 43.52
  Q 169.09 49.04 162.04 47.75
  L 162.04 38.61
  A 0.88 0.88 0.0 0 0 161.05 37.74
  C 154.61 38.60 148.27 42.07 142.32 44.57
  Q 139.65 45.69 127.37 55.39
  Q 123.63 58.35 121.16 62.78
  Q 120.46 64.05 121.82 63.56
  C 122.31 63.39 123.13 63.01 123.57 62.60
  Q 128.08 58.32 133.50 55.25
  A 0.32 0.31 -13.9 0 1 133.97 55.53
  L 133.96 71.50
  Q 132.64 71.39 132.33 72.83
  A 1.11 1.11 0.0 0 1 131.73 73.58
  L 127.77 75.51
  Q 125.49 76.62 127.48 78.19
  Q 130.53 80.58 133.96 78.75
  L 133.96 86.75
  Q 132.45 86.93 132.03 88.45
  A 1.13 1.13 0.0 0 1 131.43 89.16
  Q 129.68 90.02 128.84 91.81
  A 1.22 1.19 -88.5 0 1 128.19 92.44
  C 123.83 94.25 121.61 89.38 119.53 86.56
  Q 118.26 84.84 116.52 86.09
  L 112.56 88.95
  A 1.58 1.52 -61.0 0 1 111.59 89.25
  L 110.50 89.21
  C 119.75 75.12 120.62 62.36 121.67 44.49
  C 122.95 22.87 106.05 6.16 84.35 10.24
  C 71.97 12.56 61.54 29.56 59.08 40.56
  Q 55.01 58.84 55.89 77.56
  C 56.47 90.04 65.25 98.90 76.00 104.46
  Q 75.15 104.54 74.97 105.25
  A 0.67 0.67 0.0 0 1 74.39 105.76
  Q 66.62 106.65 59.41 109.71
  C 55.58 111.33 53.91 114.01 48.77 112.51
  Q 48.10 112.31 48.61 111.83
  Q 49.29 111.19 50.35 111.26
  A 0.57 0.57 0.0 0 0 50.96 110.69
  L 50.96 109.93
  Q 50.96 108.50 49.94 109.51
  C 45.78 113.61 41.44 112.13 37.19 114.78
  A 1.03 1.02 38.8 0 1 36.30 114.87
  C 32.08 113.33 24.93 115.18 20.33 115.49
  A 0.98 0.96 -22.1 0 1 19.51 115.15
  Q 18.60 114.09 17.44 114.18
  Q 8.87 114.86 0.29 115.50
  L 0.00 114.19
  L 0.00 105.94
  Q 0.63 103.81 0.00 101.69
  L 0.00 23.69
  L 0.28 20.88
  A 0.75 0.73 -7.2 0 1 0.76 20.27
  Q 2.88 19.48 4.25 19.48
  Q 17.26 19.53 30.26 19.53
  Q 37.37 19.54 43.70 15.56
  A 2.64 2.63 -52.5 0 1 45.87 15.27
  Q 47.45 15.74 47.48 17.08
  A 0.60 0.60 0.0 0 1 46.91 17.69
  Q 45.28 17.78 43.78 18.37
  Q 42.73 18.78 43.85 18.86
  L 51.39 19.42
  A 1.26 1.22 -60.0 0 0 52.23 19.18
  C 55.67 16.65 58.78 14.06 62.61 12.05
  Q 69.32 8.51 75.78 4.55
  A 0.81 0.80 74.0 0 0 76.17 3.84
  L 76.06 0.00
  Z
  M 22.02 102.66
  Q 23.00 101.66 24.29 102.34
  Q 25.03 102.73 24.85 101.91
  C 24.63 100.97 20.35 101.73 19.48 101.98
  C 13.98 103.53 7.97 103.59 2.29 104.30
  A 0.81 0.81 0.0 0 0 1.59 104.95
  L 1.40 105.86
  A 0.76 0.76 0.0 0 0 2.05 106.77
  L 8.10 107.56
  A 0.75 0.74 -71.2 0 0 8.85 107.19
  C 9.24 106.49 9.73 106.23 10.59 106.25
  Q 18.84 106.47 27.00 107.56
  Q 27.46 107.62 27.91 107.51
  L 33.25 106.13
  Q 33.85 105.98 33.38 105.57
  C 30.82 103.29 21.81 106.44 21.78 103.27
  A 0.91 0.89 -24.0 0 1 22.02 102.66
  Z"
/>
<path fill="#dddddd" d="
  M 163.31 0.00
  L 256.56 0.00
  L 256.35 2.30
  A 0.53 0.53 0.0 0 0 256.79 2.87
  C 262.50 3.89 269.77 6.55 275.29 3.66
  A 0.92 0.91 -44.1 0 1 276.16 3.67
  C 280.40 6.00 284.98 4.74 289.72 5.58
  Q 290.23 5.67 289.72 5.73
  Q 282.99 6.57 277.50 5.99
  Q 276.48 5.88 275.83 6.21
  A 0.40 0.40 0.0 0 0 275.73 6.85
  L 276.15 7.28
  Q 277.02 8.14 275.80 8.14
  L 265.05 8.18
  Q 262.78 8.19 264.17 9.98
  C 265.27 11.40 268.62 12.29 268.72 14.62
  A 0.77 0.77 0.0 0 1 268.12 15.41
  L 264.98 16.14
  Q 264.64 16.21 264.91 16.44
  Q 265.78 17.15 266.75 17.23
  C 280.30 18.44 294.10 17.83 307.98 17.52
  Q 314.68 17.38 322.50 16.04
  Q 329.67 14.81 337.80 16.79
  Q 338.29 16.91 338.79 16.84
  L 341.34 16.50
  A 1.14 1.11 61.5 0 1 342.21 16.77
  C 345.64 19.87 357.15 20.20 360.45 16.94
  A 1.63 1.63 0.0 0 1 361.38 16.49
  Q 367.00 15.78 371.93 18.53
  Q 372.60 18.90 371.85 19.05
  Q 369.69 19.48 367.56 18.46
  A 0.90 0.90 0.0 0 0 366.62 18.56
  L 364.72 20.06
  Q 362.74 21.63 365.15 22.38
  Q 372.76 24.76 379.83 28.30
  C 384.74 30.75 388.81 34.83 394.81 35.41
  A 0.32 0.31 17.6 0 1 395.06 35.88
  C 392.60 40.34 398.78 45.47 401.40 48.65
  A 0.98 0.95 -58.0 0 1 401.59 49.52
  C 400.61 53.21 405.78 63.54 406.75 64.98
  Q 407.99 66.80 412.56 68.86
  A 0.66 0.65 -58.3 0 0 413.34 68.67
  C 417.74 63.17 417.85 52.85 416.27 46.74
  Q 416.14 46.23 416.55 45.84
  Q 416.95 45.45 417.03 46.00
  Q 417.79 51.26 418.62 56.51
  C 419.53 62.25 422.46 67.36 424.77 72.51
  Q 425.76 74.72 426.66 72.47
  Q 428.35 68.26 428.74 63.72
  A 1.57 1.49 -26.5 0 1 429.03 62.93
  L 430.02 61.53
  Q 430.49 60.86 430.68 61.66
  C 431.41 64.65 432.01 67.40 434.77 68.56
  A 0.46 0.45 18.3 0 0 435.38 68.26
  C 436.13 65.48 436.07 62.86 436.86 59.98
  Q 437.71 56.87 437.52 53.54
  A 0.58 0.57 5.5 0 1 438.24 52.95
  L 439.96 53.42
  A 0.91 0.91 0.0 0 1 440.59 54.02
  C 441.32 56.30 444.59 66.25 446.24 65.77
  A 0.56 0.55 -14.7 0 0 446.62 65.12
  Q 445.54 60.55 447.14 56.14
  Q 447.51 55.14 447.78 56.17
  L 448.67 59.62
  A 0.71 0.71 0.0 0 0 449.24 60.15
  Q 449.63 60.22 450.00 60.06
  L 450.00 116.31
  L 449.49 117.26
  Q 449.30 117.61 449.15 117.25
  Q 448.41 115.61 446.71 116.52
  Q 445.79 117.00 446.01 115.99
  L 446.36 114.34
  A 0.81 0.80 -63.8 0 0 446.10 113.56
  L 444.69 112.30
  A 0.57 0.57 0.0 0 0 443.90 112.34
  Q 441.45 115.02 443.06 118.11
  A 1.51 1.47 -52.9 0 1 443.19 119.15
  Q 442.57 121.79 443.19 124.37
  A 0.85 0.84 62.4 0 1 442.94 125.18
  C 440.16 127.81 443.88 129.62 442.54 132.96
  A 1.11 1.11 0.0 0 0 442.58 133.88
  Q 443.99 136.73 442.15 139.47
  Q 441.96 139.74 441.86 139.43
  C 441.04 137.09 439.26 137.30 438.25 135.61
  A 0.69 0.68 -22.6 0 0 437.50 135.31
  C 435.06 135.96 436.58 140.65 437.42 142.05
  A 0.82 0.80 -34.5 0 1 437.22 143.09
  Q 434.20 145.49 430.97 147.51
  C 428.45 149.09 425.69 148.38 424.07 151.93
  A 1.03 1.03 0.0 0 0 424.02 152.65
  L 424.55 154.56
  Q 424.82 155.56 423.88 155.11
  C 418.98 152.80 413.90 147.91 410.05 144.06
  C 408.90 142.92 399.25 133.88 398.29 134.58
  A 0.44 0.44 0.0 0 0 398.24 135.25
  Q 405.98 142.87 413.14 151.03
  C 414.97 153.11 422.90 159.23 422.58 161.83
  Q 422.40 163.38 420.92 164.47
  A 1.78 1.77 60.0 0 0 420.35 166.62
  L 421.58 169.39
  Q 421.93 170.17 421.10 169.94
  Q 417.62 169.00 415.69 166.13
  A 1.17 1.16 -52.5 0 1 415.56 165.10
  C 416.32 162.90 418.58 159.88 415.76 158.09
  A 0.56 0.56 0.0 0 0 414.90 158.52
  L 414.67 161.21
  A 1.79 1.78 67.3 0 1 414.28 162.17
  Q 411.73 165.37 411.99 169.54
  A 0.65 0.64 -6.3 0 1 411.44 170.22
  L 409.56 170.49
  Q 408.86 170.59 409.31 171.14
  C 410.56 172.65 412.78 175.46 410.60 176.84
  A 1.10 1.09 -32.5 0 0 410.26 178.36
  L 412.32 181.54
  Q 412.77 182.25 411.93 182.25
  L 408.93 182.25
  A 0.69 0.69 0.0 0 0 408.25 182.82
  L 407.82 185.30
  A 0.66 0.66 0.0 0 1 407.08 185.84
  L 406.74 185.79
  A 0.86 0.86 0.0 0 1 406.05 185.24
  L 404.62 181.32
  A 0.39 0.39 0.0 0 0 403.97 181.18
  C 402.28 182.94 404.24 185.41 403.22 186.24
  A 0.55 0.55 0.0 0 1 402.46 186.17
  C 400.50 183.95 398.83 177.41 398.81 174.48
  Q 398.81 173.98 398.52 174.39
  Q 397.33 176.06 396.97 178.04
  C 396.50 180.65 395.48 182.21 394.90 184.53
  A 0.86 0.86 0.0 0 1 393.61 185.05
  L 390.25 182.96
  L 390.86 181.57
  Q 391.17 180.85 390.44 181.14
  L 386.50 182.71
  Q 385.05 181.89 383.54 181.30
  C 379.38 179.69 374.45 174.59 371.23 171.44
  A 1.91 1.91 0.0 0 1 370.85 169.22
  Q 372.51 165.86 369.75 162.21
  Q 376.25 159.36 378.89 152.76
  A 0.30 0.30 0.0 0 0 378.58 152.35
  C 372.86 153.04 360.94 154.05 357.42 159.08
  Q 356.27 160.72 355.96 158.74
  Q 354.80 151.34 355.00 143.86
  Q 355.04 142.10 356.58 141.23
  Q 367.76 134.97 380.57 133.84
  A 0.58 0.58 0.0 0 1 381.15 134.67
  L 378.02 141.40
  A 0.50 0.50 0.0 0 0 378.24 142.05
  Q 378.60 142.23 378.97 141.99
  C 383.57 139.00 390.78 131.36 390.72 125.24
  A 1.40 1.39 -3.7 0 0 389.16 123.88
  Q 369.98 126.18 355.75 137.77
  C 347.08 144.82 341.43 150.50 341.21 162.75
  L 334.81 162.09
  Q 334.47 156.64 335.17 150.77
  A 1.49 1.48 70.6 0 1 335.58 149.91
  Q 343.13 142.05 342.93 132.10
  C 342.86 128.52 339.68 128.58 337.32 130.11
  C 329.23 135.36 327.12 143.35 325.70 152.70
  A 0.58 0.57 -86.9 0 1 325.16 153.19
  L 312.53 153.77
  A 0.50 0.49 -1.1 0 1 312.01 153.28
  L 311.98 129.18
  Q 311.98 127.42 310.48 128.34
  C 306.66 130.70 302.00 134.25 302.00 139.50
  Q 302.01 147.72 301.99 155.99
  C 301.97 161.37 298.99 164.42 293.66 164.76
  A 0.49 0.49 0.0 0 1 293.14 164.28
  Q 292.92 155.61 293.12 139.18
  Q 293.17 135.02 294.86 132.00
  A 0.54 0.54 0.0 0 0 294.49 131.21
  L 293.78 131.07
  A 1.03 1.02 -12.1 0 1 293.17 130.68
  C 291.48 128.32 286.83 133.70 285.65 135.39
  Q 282.13 140.40 277.79 144.75
  Q 276.77 143.54 276.35 141.98
  A 1.36 1.36 0.0 0 0 275.83 141.21
  C 273.73 139.69 271.76 138.57 270.09 136.52
  C 267.13 132.89 264.14 127.20 258.48 128.24
  A 1.93 1.90 50.0 0 1 257.52 128.15
  Q 254.32 126.98 250.95 127.04
  C 248.37 127.09 245.39 128.62 242.18 128.37
  C 239.13 128.13 238.09 128.63 235.55 129.68
  C 231.89 131.18 228.72 131.40 225.04 132.00
  L 225.04 105.26
  A 1.27 1.27 0.0 0 1 226.56 104.02
  Q 231.41 105.03 236.20 101.99
  C 253.31 91.16 251.40 75.40 250.79 55.12
  A 0.81 0.80 -9.5 0 1 251.36 54.33
  L 259.37 51.89
  Q 261.36 51.28 261.29 53.36
  Q 260.85 65.57 257.99 77.39
  Q 257.08 81.15 255.44 83.63
  C 251.86 89.04 247.77 91.94 247.83 99.49
  C 247.87 104.72 250.60 107.70 255.91 108.21
  C 267.56 109.33 276.25 103.47 283.83 94.56
  C 289.73 87.62 289.68 79.18 287.57 70.84
  Q 286.90 68.21 284.19 68.31
  C 276.56 68.62 273.70 72.47 267.44 75.57
  Q 266.98 75.80 267.35 75.44
  C 277.09 66.05 284.28 59.66 293.80 53.35
  Q 295.44 52.27 295.06 54.20
  Q 290.59 76.49 290.58 99.16
  C 290.58 101.70 290.29 104.00 291.05 106.64
  A 0.74 0.74 0.0 0 0 292.23 107.01
  Q 296.82 103.26 300.63 98.70
  A 1.40 1.39 63.6 0 0 300.95 97.73
  Q 299.81 71.11 305.19 45.03
  Q 305.66 42.75 303.37 42.80
  Q 302.92 42.81 301.21 43.93
  Q 284.36 54.91 269.53 69.81
  A 1.01 1.01 0.0 0 1 267.94 69.60
  Q 267.86 69.45 268.11 68.53
  Q 271.67 55.66 271.10 42.92
  A 1.32 1.32 0.0 0 0 269.52 41.69
  Q 259.07 43.81 250.33 49.93
  A 0.52 0.52 0.0 0 1 249.56 49.72
  L 247.29 44.88
  Q 246.33 42.85 244.09 43.02
  Q 236.02 43.67 229.72 48.60
  Q 229.12 49.07 229.06 48.31
  L 228.83 45.66
  A 0.55 0.54 74.9 0 0 228.06 45.21
  Q 220.12 48.87 218.08 57.78
  Q 217.63 59.78 215.47 60.78
  Q 215.01 61.00 215.06 60.49
  C 216.31 47.84 200.00 44.72 190.71 45.00
  C 179.08 45.34 168.42 62.74 165.90 72.31
  C 164.51 77.57 164.37 84.37 163.76 90.32
  Q 163.45 93.42 160.48 92.93
  Q 158.10 92.54 158.17 90.13
  C 158.63 75.80 161.19 61.98 162.04 47.75
  Q 169.09 49.04 173.52 43.52
  Q 174.20 42.68 173.92 41.75
  A 0.70 0.70 0.0 0 0 173.25 41.25
  L 170.48 41.25
  A 0.23 0.23 0.0 0 1 170.25 41.01
  L 170.25 40.73
  A 0.24 0.22 -17.7 0 1 170.36 40.54
  C 176.91 36.66 177.95 33.70 179.62 27.33
  Q 180.18 25.21 177.99 25.21
  Q 172.34 25.22 167.03 27.29
  Q 165.00 28.08 166.71 26.73
  L 171.45 23.02
  A 0.80 0.79 61.2 0 0 171.70 22.13
  L 171.50 21.59
  Q 171.18 20.71 172.09 20.94
  Q 173.53 21.30 174.53 20.37
  Q 175.19 19.75 174.32 19.53
  L 170.78 18.64
  A 0.59 0.58 -70.6 0 1 170.40 17.83
  C 170.86 16.82 173.23 17.94 174.49 16.36
  Q 175.30 15.32 174.05 15.73
  L 171.58 16.55
  Q 171.14 16.69 171.28 16.25
  C 171.66 15.11 173.91 13.96 173.63 13.13
  A 0.62 0.60 -13.6 0 0 172.94 12.72
  Q 170.04 13.23 167.35 11.98
  Q 166.03 11.35 167.43 10.92
  L 173.32 9.11
  A 0.66 0.65 63.0 0 0 173.65 8.08
  Q 172.72 6.86 174.04 5.49
  A 0.34 0.33 48.4 0 0 174.06 5.04
  L 173.82 4.73
  A 0.66 0.64 59.2 0 0 173.06 4.53
  L 166.71 7.17
  A 0.59 0.59 0.0 0 1 165.96 6.91
  Q 165.19 5.49 163.65 5.02
  A 1.06 1.05 34.0 0 0 162.69 5.20
  L 160.30 7.04
  A 0.63 0.63 0.0 0 1 159.51 7.03
  L 158.71 6.39
  A 0.77 0.77 0.0 0 0 157.84 6.31
  Q 154.89 7.94 151.72 8.80
  Q 149.86 9.31 151.57 8.42
  L 160.85 3.57
  A 1.20 1.20 0.0 0 0 161.44 2.84
  Q 161.89 1.14 163.31 0.00
  Z
  M 418.7001 99.9731
  A 2.37 0.53 36.3 0 0 417.1038 98.1429
  A 2.37 0.53 36.3 0 0 414.8799 97.1669
  A 2.37 0.53 36.3 0 0 416.4762 98.9971
  A 2.37 0.53 36.3 0 0 418.7001 99.9731
  Z"
/>
<path fill="#c7c7c7" d="
  M 256.56 0.00
  L 450.00 0.00
  L 450.00 60.06
  Q 449.63 60.22 449.24 60.15
  A 0.71 0.71 0.0 0 1 448.67 59.62
  L 447.78 56.17
  Q 447.51 55.14 447.14 56.14
  Q 445.54 60.55 446.62 65.12
  A 0.56 0.55 -14.7 0 1 446.24 65.77
  C 444.59 66.25 441.32 56.30 440.59 54.02
  A 0.91 0.91 0.0 0 0 439.96 53.42
  L 438.24 52.95
  A 0.58 0.57 5.5 0 0 437.52 53.54
  Q 437.71 56.87 436.86 59.98
  C 436.07 62.86 436.13 65.48 435.38 68.26
  A 0.46 0.45 18.3 0 1 434.77 68.56
  C 432.01 67.40 431.41 64.65 430.68 61.66
  Q 430.49 60.86 430.02 61.53
  L 429.03 62.93
  A 1.57 1.49 -26.5 0 0 428.74 63.72
  Q 428.35 68.26 426.66 72.47
  Q 425.76 74.72 424.77 72.51
  C 422.46 67.36 419.53 62.25 418.62 56.51
  Q 417.79 51.26 417.03 46.00
  Q 416.95 45.45 416.55 45.84
  Q 416.14 46.23 416.27 46.74
  C 417.85 52.85 417.74 63.17 413.34 68.67
  A 0.66 0.65 -58.3 0 1 412.56 68.86
  Q 407.99 66.80 406.75 64.98
  C 405.78 63.54 400.61 53.21 401.59 49.52
  A 0.98 0.95 -58.0 0 0 401.40 48.65
  C 398.78 45.47 392.60 40.34 395.06 35.88
  A 0.32 0.31 17.6 0 0 394.81 35.41
  C 388.81 34.83 384.74 30.75 379.83 28.30
  Q 372.76 24.76 365.15 22.38
  Q 362.74 21.63 364.72 20.06
  L 366.62 18.56
  A 0.90 0.90 0.0 0 1 367.56 18.46
  Q 369.69 19.48 371.85 19.05
  Q 372.60 18.90 371.93 18.53
  Q 367.00 15.78 361.38 16.49
  A 1.63 1.63 0.0 0 0 360.45 16.94
  C 357.15 20.20 345.64 19.87 342.21 16.77
  A 1.14 1.11 61.5 0 0 341.34 16.50
  L 338.79 16.84
  Q 338.29 16.91 337.80 16.79
  Q 329.67 14.81 322.50 16.04
  Q 314.68 17.38 307.98 17.52
  C 294.10 17.83 280.30 18.44 266.75 17.23
  Q 265.78 17.15 264.91 16.44
  Q 264.64 16.21 264.98 16.14
  L 268.12 15.41
  A 0.77 0.77 0.0 0 0 268.72 14.62
  C 268.62 12.29 265.27 11.40 264.17 9.98
  Q 262.78 8.19 265.05 8.18
  L 275.80 8.14
  Q 277.02 8.14 276.15 7.28
  L 275.73 6.85
  A 0.40 0.40 0.0 0 1 275.83 6.21
  Q 276.48 5.88 277.50 5.99
  Q 282.99 6.57 289.72 5.73
  Q 290.23 5.67 289.72 5.58
  C 284.98 4.74 280.40 6.00 276.16 3.67
  A 0.92 0.91 -44.1 0 0 275.29 3.66
  C 269.77 6.55 262.50 3.89 256.79 2.87
  A 0.53 0.53 0.0 0 1 256.35 2.30
  L 256.56 0.00
  Z
  M 448.46 16.59
  Q 448.80 14.92 448.02 13.59
  A 1.31 1.30 -5.2 0 0 447.33 13.02
  Q 440.26 10.53 434.37 5.98
  C 433.99 5.68 433.24 5.63 432.87 5.86
  A 0.57 0.56 59.6 0 0 432.68 6.61
  C 433.75 8.53 434.46 10.22 436.49 11.39
  Q 441.62 14.35 446.74 17.36
  A 1.16 1.16 0.0 0 0 448.46 16.59
  Z
  M 349.31 10.58
  L 357.56 12.56
  A 1.83 1.78 -47.5 0 0 358.61 12.50
  C 361.18 11.56 362.90 12.88 364.91 13.18
  Q 368.53 13.73 372.30 13.69
  Q 372.94 13.68 372.54 13.18
  Q 368.77 8.45 363.27 11.32
  A 1.51 1.47 -55.3 0 1 362.45 11.48
  C 358.44 11.15 353.95 9.68 349.85 9.76
  A 0.56 0.54 22.0 0 0 349.46 9.92
  L 349.20 10.17
  Q 348.89 10.47 349.31 10.58
  Z
  M 350.83 12.86
  Q 346.60 11.15 342.04 12.15
  Q 341.69 12.22 342.03 12.32
  L 350.63 14.67
  A 0.50 0.48 -82.1 0 0 351.25 14.19
  L 351.24 13.47
  A 0.66 0.66 0.0 0 0 350.83 12.86
  Z
  M 385.51 23.91
  L 389.60 25.95
  A 0.68 0.67 -67.6 0 0 390.54 25.55
  L 390.76 24.91
  A 0.74 0.73 21.9 0 0 390.37 24.01
  Q 388.17 22.99 385.67 23.13
  Q 384.13 23.22 385.51 23.91
  Z
  M 409.20 39.76
  L 409.81 42.05
  A 0.60 0.59 -18.6 0 0 410.62 42.45
  C 411.72 41.97 410.07 40.23 409.76 39.66
  Q 408.59 37.44 409.20 39.76
  Z"
/>
<path fill="#dddddd" d="
  M 448.46 16.59
  A 1.16 1.16 0.0 0 1 446.74 17.36
  Q 441.62 14.35 436.49 11.39
  C 434.46 10.22 433.75 8.53 432.68 6.61
  A 0.57 0.56 59.6 0 1 432.87 5.86
  C 433.24 5.63 433.99 5.68 434.37 5.98
  Q 440.26 10.53 447.33 13.02
  A 1.31 1.30 -5.2 0 1 448.02 13.59
  Q 448.80 14.92 448.46 16.59
  Z"
/>
<path fill="#090909" d="
  M 110.50 89.21
  C 104.61 96.72 98.96 100.54 93.00 106.46
  L 90.25 107.29
  Q 82.78 107.51 76.00 104.46
  C 65.25 98.90 56.47 90.04 55.89 77.56
  Q 55.01 58.84 59.08 40.56
  C 61.54 29.56 71.97 12.56 84.35 10.24
  C 106.05 6.16 122.95 22.87 121.67 44.49
  C 120.62 62.36 119.75 75.12 110.50 89.21
  Z
  M 76.80 83.31
  C 82.38 90.34 91.12 95.08 100.39 94.53
  Q 102.51 94.41 103.47 92.52
  Q 109.61 80.45 110.80 67.01
  Q 112.06 52.85 111.43 46.06
  C 110.08 31.41 97.07 19.88 82.18 19.71
  A 2.33 2.32 10.5 0 0 79.99 21.21
  Q 71.85 42.84 71.72 66.51
  C 71.68 73.37 72.75 78.23 76.80 83.31
  Z
  M 74.8860 20.4645
  A 0.26 0.26 0.0 0 0 74.7760 20.1136
  L 74.5633 20.0024
  A 0.26 0.26 0.0 0 0 74.2125 20.1124
  L 70.1540 27.8755
  A 0.26 0.26 0.0 0 0 70.2640 28.2264
  L 70.4767 28.3376
  A 0.26 0.26 0.0 0 0 70.8275 28.2276
  L 74.8860 20.4645
  Z"
/>
<path fill="#dddddd" d="
  M 349.31 10.58
  Q 348.89 10.47 349.20 10.17
  L 349.46 9.92
  A 0.56 0.54 22.0 0 1 349.85 9.76
  C 353.95 9.68 358.44 11.15 362.45 11.48
  A 1.51 1.47 -55.3 0 0 363.27 11.32
  Q 368.77 8.45 372.54 13.18
  Q 372.94 13.68 372.30 13.69
  Q 368.53 13.73 364.91 13.18
  C 362.90 12.88 361.18 11.56 358.61 12.50
  A 1.83 1.78 -47.5 0 1 357.56 12.56
  L 349.31 10.58
  Z"
/>
<path fill="#dddddd" d="
  M 351.24 13.47
  L 351.25 14.19
  A 0.50 0.48 -82.1 0 1 350.63 14.67
  L 342.03 12.32
  Q 341.69 12.22 342.04 12.15
  Q 346.60 11.15 350.83 12.86
  A 0.66 0.66 0.0 0 1 351.24 13.47
  Z"
/>
<path fill="#c7c7c7" d="
  M 76.80 83.31
  C 72.75 78.23 71.68 73.37 71.72 66.51
  Q 71.85 42.84 79.99 21.21
  A 2.33 2.32 10.5 0 1 82.18 19.71
  C 97.07 19.88 110.08 31.41 111.43 46.06
  Q 112.06 52.85 110.80 67.01
  Q 109.61 80.45 103.47 92.52
  Q 102.51 94.41 100.39 94.53
  C 91.12 95.08 82.38 90.34 76.80 83.31
  Z"
/>
<rect fill="#dddddd" x="-0.38" y="-4.64" transform="translate(72.52,24.17) rotate(27.6)" width="0.76" height="9.28" rx="0.26"/>
<path fill="#dddddd" d="
  M 385.51 23.91
  Q 384.13 23.22 385.67 23.13
  Q 388.17 22.99 390.37 24.01
  A 0.74 0.73 21.9 0 1 390.76 24.91
  L 390.54 25.55
  A 0.68 0.67 -67.6 0 1 389.60 25.95
  L 385.51 23.91
  Z"
/>
<path fill="#090909" d="
  M 162.04 47.75
  C 161.19 61.98 158.63 75.80 158.17 90.13
  Q 158.10 92.54 160.48 92.93
  Q 163.45 93.42 163.76 90.32
  C 164.37 84.37 164.51 77.57 165.90 72.31
  C 168.42 62.74 179.08 45.34 190.71 45.00
  C 200.00 44.72 216.31 47.84 215.06 60.49
  Q 215.01 61.00 215.47 60.78
  Q 217.63 59.78 218.08 57.78
  Q 220.12 48.87 228.06 45.21
  A 0.55 0.54 74.9 0 1 228.83 45.66
  L 229.06 48.31
  Q 229.12 49.07 229.72 48.60
  Q 236.02 43.67 244.09 43.02
  Q 246.33 42.85 247.29 44.88
  L 249.56 49.72
  A 0.52 0.52 0.0 0 0 250.33 49.93
  Q 259.07 43.81 269.52 41.69
  A 1.32 1.32 0.0 0 1 271.10 42.92
  Q 271.67 55.66 268.11 68.53
  Q 267.86 69.45 267.94 69.60
  A 1.01 1.01 0.0 0 0 269.53 69.81
  Q 284.36 54.91 301.21 43.93
  Q 302.92 42.81 303.37 42.80
  Q 305.66 42.75 305.19 45.03
  Q 299.81 71.11 300.95 97.73
  A 1.40 1.39 63.6 0 1 300.63 98.70
  Q 296.82 103.26 292.23 107.01
  A 0.74 0.74 0.0 0 1 291.05 106.64
  C 290.29 104.00 290.58 101.70 290.58 99.16
  Q 290.59 76.49 295.06 54.20
  Q 295.44 52.27 293.80 53.35
  C 284.28 59.66 277.09 66.05 267.35 75.44
  Q 266.98 75.80 267.44 75.57
  C 273.70 72.47 276.56 68.62 284.19 68.31
  Q 286.90 68.21 287.57 70.84
  C 289.68 79.18 289.73 87.62 283.83 94.56
  C 276.25 103.47 267.56 109.33 255.91 108.21
  C 250.60 107.70 247.87 104.72 247.83 99.49
  C 247.77 91.94 251.86 89.04 255.44 83.63
  Q 257.08 81.15 257.99 77.39
  Q 260.85 65.57 261.29 53.36
  Q 261.36 51.28 259.37 51.89
  L 251.36 54.33
  A 0.81 0.80 -9.5 0 0 250.79 55.12
  C 251.40 75.40 253.31 91.16 236.20 101.99
  Q 231.41 105.03 226.56 104.02
  A 1.27 1.27 0.0 0 0 225.04 105.26
  L 225.04 132.00
  L 225.04 136.75
  Q 224.71 138.74 225.50 140.54
  L 234.07 161.49
  Q 234.26 161.97 234.54 161.53
  Q 240.52 152.02 247.37 143.11
  C 250.02 139.66 252.31 136.21 256.17 134.35
  Q 258.24 133.35 257.96 135.64
  C 256.10 150.62 253.94 166.19 254.02 181.17
  A 0.33 0.32 -6.5 0 0 254.42 181.48
  Q 254.62 181.43 254.70 181.19
  Q 256.38 175.74 258.82 171.62
  Q 267.21 157.40 277.79 144.75
  Q 282.13 140.40 285.65 135.39
  C 286.83 133.70 291.48 128.32 293.17 130.68
  A 1.03 1.02 -12.1 0 0 293.78 131.07
  L 294.49 131.21
  A 0.54 0.54 0.0 0 1 294.86 132.00
  Q 293.17 135.02 293.12 139.18
  Q 292.92 155.61 293.14 164.28
  A 0.49 0.49 0.0 0 0 293.66 164.76
  C 298.99 164.42 301.97 161.37 301.99 155.99
  Q 302.01 147.72 302.00 139.50
  C 302.00 134.25 306.66 130.70 310.48 128.34
  Q 311.98 127.42 311.98 129.18
  L 312.01 153.28
  A 0.50 0.49 -1.1 0 0 312.53 153.77
  L 325.16 153.19
  A 0.58 0.57 -86.9 0 0 325.70 152.70
  C 327.12 143.35 329.23 135.36 337.32 130.11
  C 339.68 128.58 342.86 128.52 342.93 132.10
  Q 343.13 142.05 335.58 149.91
  A 1.49 1.48 70.6 0 0 335.17 150.77
  Q 334.47 156.64 334.81 162.09
  C 335.01 169.13 334.74 173.86 338.73 178.43
  Q 339.68 179.52 339.81 178.08
  L 341.21 162.75
  C 341.43 150.50 347.08 144.82 355.75 137.77
  Q 369.98 126.18 389.16 123.88
  A 1.40 1.39 -3.7 0 1 390.72 125.24
  C 390.78 131.36 383.57 139.00 378.97 141.99
  Q 378.60 142.23 378.24 142.05
  A 0.50 0.50 0.0 0 1 378.02 141.40
  L 381.15 134.67
  A 0.58 0.58 0.0 0 0 380.57 133.84
  Q 367.76 134.97 356.58 141.23
  Q 355.04 142.10 355.00 143.86
  Q 354.80 151.34 355.96 158.74
  Q 356.27 160.72 357.42 159.08
  C 360.94 154.05 372.86 153.04 378.58 152.35
  A 0.30 0.30 0.0 0 1 378.89 152.76
  Q 376.25 159.36 369.75 162.21
  L 358.70 164.06
  A 1.01 1.00 79.8 0 0 357.89 165.24
  C 359.12 171.76 360.74 180.95 356.33 186.57
  Q 356.02 186.96 356.52 186.99
  C 366.82 187.58 377.70 187.74 386.50 182.71
  L 390.44 181.14
  Q 391.17 180.85 390.86 181.57
  L 390.25 182.96
  Q 380.01 195.11 363.98 196.81
  C 359.73 197.26 341.27 198.16 338.78 194.56
  Q 337.28 192.41 339.14 190.56
  L 345.55 184.18
  A 1.64 1.63 74.6 0 0 345.98 183.42
  L 346.21 182.50
  A 0.21 0.20 6.7 0 0 346.01 182.25
  L 345.73 182.25
  A 0.51 0.48 22.2 0 0 345.39 182.38
  L 338.66 188.59
  Q 337.13 190.00 335.06 189.91
  Q 328.45 189.63 325.96 183.00
  C 324.21 175.59 325.15 167.30 324.85 159.65
  A 0.37 0.37 0.0 0 0 324.29 159.35
  Q 318.89 162.50 312.70 163.31
  A 0.67 0.67 0.0 0 0 312.11 163.96
  L 312.04 168.00
  L 312.01 191.33
  A 2.21 2.19 -25.0 0 1 311.48 192.76
  Q 307.65 197.17 303.06 200.79
  Q 302.02 201.62 302.01 200.28
  L 301.99 191.37
  Q 301.98 190.59 301.55 191.24
  Q 298.94 195.13 294.79 197.58
  Q 292.04 199.20 289.98 196.78
  C 284.92 190.82 283.84 184.08 283.01 176.75
  A 0.75 0.75 0.0 0 0 282.16 176.09
  L 264.78 178.63
  A 0.72 0.72 0.0 0 0 264.16 179.28
  L 263.95 181.34
  A 0.61 0.61 0.0 0 0 264.58 182.01
  L 267.32 181.97
  Q 270.74 181.91 268.32 184.34
  Q 260.83 191.86 252.39 197.86
  C 245.92 202.46 243.74 193.04 243.89 188.99
  Q 244.52 171.19 246.97 153.33
  Q 247.53 149.19 245.20 152.66
  L 236.97 164.91
  A 0.64 0.64 0.0 0 0 237.17 165.82
  L 240.52 167.84
  A 0.51 0.49 -62.1 0 1 240.71 168.49
  Q 237.53 174.98 229.86 178.17
  Q 226.66 179.50 223.22 183.29
  A 0.86 0.86 0.0 0 0 223.07 184.18
  L 224.48 187.55
  Q 225.30 189.52 223.96 191.18
  Q 220.62 195.35 215.94 197.92
  A 1.30 1.29 68.6 0 1 214.06 197.09
  Q 212.73 191.71 212.48 186.25
  Q 211.81 171.63 212.03 157.00
  Q 212.07 154.19 214.97 151.30
  A 0.73 0.73 0.0 0 0 215.08 150.41
  L 213.69 148.03
  A 1.07 1.06 42.4 0 1 213.64 147.05
  Q 214.76 144.61 214.54 142.00
  C 215.18 117.40 215.89 93.17 218.08 68.51
  Q 218.30 66.07 216.57 67.80
  L 214.91 69.46
  Q 214.59 69.78 214.47 70.22
  Q 209.60 88.28 195.05 100.03
  Q 189.93 104.16 184.78 108.28
  C 178.76 113.11 170.15 107.21 167.06 101.69
  Q 166.20 100.16 164.68 96.49
  A 0.36 0.36 0.0 0 0 164.11 96.36
  C 159.82 100.26 147.37 109.86 148.16 95.63
  Q 149.11 78.37 151.59 61.22
  Q 151.74 60.15 151.75 59.04
  Q 152.78 53.60 151.82 48.12
  A 0.58 0.57 75.2 0 0 151.06 47.67
  L 144.61 49.94
  A 0.88 0.87 80.7 0 0 144.02 50.77
  L 144.04 63.75
  L 144.12 97.26
  A 1.20 1.18 -67.7 0 0 144.44 98.05
  L 145.72 99.41
  A 0.83 0.82 40.1 0 1 145.81 100.44
  Q 141.98 106.13 136.25 109.91
  A 0.52 0.52 0.0 0 1 135.52 109.76
  C 132.71 105.33 133.99 92.30 133.96 86.75
  L 133.96 78.75
  L 133.96 71.50
  L 133.97 55.53
  A 0.32 0.31 -13.9 0 0 133.50 55.25
  Q 128.08 58.32 123.57 62.60
  C 123.13 63.01 122.31 63.39 121.82 63.56
  Q 120.46 64.05 121.16 62.78
  Q 123.63 58.35 127.37 55.39
  Q 139.65 45.69 142.32 44.57
  C 148.27 42.07 154.61 38.60 161.05 37.74
  A 0.88 0.88 0.0 0 1 162.04 38.61
  L 162.04 47.75
  Z
  M 238.62 57.03
  C 236.89 52.20 232.79 52.23 228.97 54.50
  A 1.13 1.12 -11.8 0 0 228.43 55.32
  Q 227.74 60.61 228.05 65.95
  Q 228.08 66.45 227.90 66.91
  Q 227.41 68.14 227.45 69.50
  Q 227.47 70.05 227.86 69.66
  L 238.08 59.45
  A 2.31 2.31 0.0 0 0 238.62 57.03
  Z
  M 178.70 68.34
  Q 179.19 75.85 179.02 83.45
  C 178.83 91.74 182.50 97.00 191.60 96.95
  Q 194.08 96.94 195.95 95.32
  C 202.55 89.61 208.24 71.12 203.90 63.34
  C 199.93 56.20 187.56 54.48 180.40 54.95
  A 1.52 1.50 12.5 0 0 179.16 55.73
  Q 175.65 62.07 174.97 69.32
  Q 174.89 70.09 175.53 69.65
  L 177.96 67.98
  Q 178.65 67.51 178.70 68.34
  Z
  M 228.67 87.93
  C 229.79 92.29 234.34 95.10 238.90 93.82
  A 1.62 1.61 -4.2 0 0 240.06 92.48
  C 241.27 83.18 241.95 71.72 240.03 62.49
  A 0.33 0.32 -24.1 0 0 239.52 62.30
  C 230.35 69.11 225.58 75.95 228.67 87.93
  Z
  M 268.79 80.13
  L 267.84 97.21
  A 0.71 0.71 0.0 0 0 268.46 97.95
  Q 272.61 98.41 276.43 96.84
  A 1.55 1.50 3.7 0 0 277.12 96.25
  C 279.82 91.88 278.79 84.55 277.45 80.17
  Q 276.72 77.82 274.30 78.27
  L 269.68 79.12
  A 1.10 1.09 -3.7 0 0 268.79 80.13
  Z
  M 281.48 145.23
  Q 273.00 156.41 266.00 168.58
  Q 265.63 169.23 266.37 169.17
  L 282.44 167.92
  A 0.60 0.60 0.0 0 0 283.00 167.32
  L 283.00 145.74
  Q 283.00 143.21 281.48 145.23
  Z
  M 299.52 186.90
  Q 302.00 190.04 302.00 186.03
  L 302.00 167.77
  Q 302.00 167.12 301.45 167.47
  L 294.14 172.16
  A 0.78 0.77 70.5 0 0 293.79 172.91
  Q 294.67 180.77 299.52 186.90
  Z
  M 225.63 174.64
  A 0.98 0.97 -38.8 0 0 225.76 173.49
  L 222.62 168.07
  A 0.14 0.14 0.0 0 0 222.50 168.00
  L 222.24 168.00
  A 0.32 0.32 0.0 0 0 221.91 168.34
  L 222.38 176.35
  Q 222.49 178.12 223.68 176.80
  L 225.63 174.64
  Z"
/>
<path fill="#dddddd" d="
  M 409.20 39.76
  Q 408.59 37.44 409.76 39.66
  C 410.07 40.23 411.72 41.97 410.62 42.45
  A 0.60 0.59 -18.6 0 1 409.81 42.05
  L 409.20 39.76
  Z"
/>
<path fill="#c7c7c7" d="
  M 151.75 59.04
  L 150.18 59.34
  A 1.44 1.41 -75.4 0 0 149.38 59.82
  Q 147.18 62.42 144.04 63.75
  L 144.02 50.77
  A 0.88 0.87 80.7 0 1 144.61 49.94
  L 151.06 47.67
  A 0.58 0.57 75.2 0 1 151.82 48.12
  Q 152.78 53.60 151.75 59.04
  Z"
/>
<path fill="#dddddd" d="
  M 228.97 54.50
  C 232.79 52.23 236.89 52.20 238.62 57.03
  A 2.31 2.31 0.0 0 1 238.08 59.45
  L 227.86 69.66
  Q 227.47 70.05 227.45 69.50
  Q 227.41 68.14 227.90 66.91
  Q 228.08 66.45 228.05 65.95
  Q 227.74 60.61 228.43 55.32
  A 1.13 1.12 -11.8 0 1 228.97 54.50
  Z"
/>
<path fill="#dddddd" d="
  M 177.96 67.98
  L 175.53 69.65
  Q 174.89 70.09 174.97 69.32
  Q 175.65 62.07 179.16 55.73
  A 1.52 1.50 12.5 0 1 180.40 54.95
  C 187.56 54.48 199.93 56.20 203.90 63.34
  C 208.24 71.12 202.55 89.61 195.95 95.32
  Q 194.08 96.94 191.60 96.95
  C 182.50 97.00 178.83 91.74 179.02 83.45
  Q 179.19 75.85 178.70 68.34
  Q 178.65 67.51 177.96 67.98
  Z"
/>
<path fill="#dddddd" d="
  M 151.75 59.04
  Q 151.74 60.15 151.59 61.22
  Q 149.11 78.37 148.16 95.63
  C 147.37 109.86 159.82 100.26 164.11 96.36
  A 0.36 0.36 0.0 0 1 164.68 96.49
  Q 166.20 100.16 167.06 101.69
  C 170.15 107.21 178.76 113.11 184.78 108.28
  Q 189.93 104.16 195.05 100.03
  Q 209.60 88.28 214.47 70.22
  Q 214.59 69.78 214.91 69.46
  L 216.57 67.80
  Q 218.30 66.07 218.08 68.51
  C 215.89 93.17 215.18 117.40 214.54 142.00
  C 214.74 141.16 214.43 140.89 213.64 141.09
  Q 209.40 142.18 205.04 142.00
  L 205.00 132.93
  A 0.93 0.93 0.0 0 0 203.69 132.09
  C 199.10 134.19 195.53 138.32 194.98 143.59
  Q 194.26 150.59 193.00 157.54
  L 184.29 158.50
  Q 185.48 143.32 189.11 128.03
  Q 189.55 126.20 187.70 125.83
  Q 186.40 125.58 183.81 125.87
  C 168.73 127.58 156.12 132.56 140.71 139.16
  C 135.44 141.41 124.72 147.44 122.99 153.59
  Q 122.83 154.15 123.35 153.87
  Q 137.83 146.12 153.43 140.89
  A 0.38 0.38 0.0 0 1 153.93 141.25
  L 153.96 164.50
  Q 145.95 166.68 138.01 169.08
  C 136.29 169.60 134.42 168.92 132.60 169.20
  Q 123.31 170.67 113.98 168.89
  C 113.09 159.99 112.84 150.79 100.09 153.77
  Q 98.19 154.22 99.16 152.53
  C 104.07 144.01 107.36 135.39 104.82 125.41
  A 0.64 0.63 81.7 0 0 104.20 124.94
  Q 99.07 125.02 94.25 126.96
  Q 93.61 125.62 92.27 126.08
  A 1.76 1.75 -47.2 0 1 91.30 126.12
  L 88.11 125.32
  A 0.73 0.73 0.0 0 0 87.28 125.70
  L 86.99 126.30
  A 0.81 0.80 -52.2 0 0 87.10 127.20
  Q 88.09 128.35 89.50 129.04
  C 85.39 130.98 76.82 136.23 76.13 141.16
  Q 76.03 141.83 76.61 141.46
  Q 78.33 140.34 80.17 139.41
  Q 82.46 138.25 80.31 139.68
  C 76.46 142.23 74.97 145.13 74.99 150.00
  Q 75.04 158.01 74.96 166.00
  L 71.47 164.63
  A 0.54 0.53 26.0 0 0 70.81 164.85
  Q 69.52 166.97 66.92 167.30
  A 0.75 0.74 86.9 0 0 66.27 168.03
  L 66.24 171.05
  A 0.49 0.48 1.1 0 1 65.73 171.53
  Q 61.71 171.34 61.69 175.23
  A 0.97 0.96 -6.4 0 1 60.93 176.17
  Q 53.36 177.85 45.63 176.81
  Q 45.01 176.73 44.38 176.74
  C 41.15 176.81 39.88 176.72 37.37 174.43
  Q 30.63 168.31 23.59 162.51
  C 22.30 161.44 21.98 159.95 21.10 158.56
  A 0.62 0.61 60.7 0 0 20.30 158.33
  L 19.34 158.79
  A 0.54 0.54 0.0 0 0 19.21 159.67
  C 21.34 161.65 33.66 173.71 33.41 175.05
  Q 33.31 175.63 32.91 175.20
  C 27.54 169.51 21.38 165.01 15.38 160.08
  A 0.46 0.46 0.0 0 0 14.77 160.10
  L 14.52 160.34
  A 0.52 0.52 0.0 0 0 14.52 161.09
  Q 15.70 162.23 15.67 163.72
  A 0.86 0.86 0.0 0 1 15.22 164.46
  Q 13.42 165.47 12.81 167.43
  A 0.76 0.74 25.2 0 0 13.12 168.27
  Q 14.67 169.28 16.56 168.94
  A 1.03 1.02 67.3 0 1 17.59 169.37
  L 19.74 172.50
  A 0.51 0.50 -22.9 0 1 19.42 173.28
  C 13.88 174.31 9.49 173.13 4.08 172.59
  C 1.41 172.32 -0.67 169.56 0.67 166.82
  A 1.28 1.27 48.9 0 0 0.73 165.85
  L 0.18 164.22
  A 0.76 0.76 0.0 0 1 0.68 163.26
  L 1.82 162.90
  A 0.37 0.36 -19.6 0 0 2.05 162.42
  C 1.46 160.94 -0.21 160.99 0.34 158.65
  A 0.67 0.67 0.0 0 1 1.05 158.13
  Q 3.15 158.32 5.02 157.11
  A 1.32 1.32 0.0 0 1 6.07 156.95
  L 13.20 158.82
  A 0.23 0.23 0.0 0 0 13.49 158.55
  L 13.20 157.03
  A 0.49 0.49 0.0 0 1 13.74 156.45
  L 15.97 156.73
  A 0.62 0.62 0.0 0 0 16.65 156.29
  C 16.76 155.89 8.09 147.50 6.15 145.29
  Q 3.36 142.10 -0.04 139.48
  L 0.00 137.44
  Q 13.93 136.15 18.44 136.10
  Q 20.01 136.08 20.85 135.68
  A 1.52 1.49 -53.1 0 1 21.77 135.54
  C 23.91 135.89 24.28 134.30 25.53 133.61
  Q 27.14 132.73 29.03 132.46
  A 1.05 1.04 -28.1 0 1 29.90 132.72
  C 31.18 133.89 33.62 137.22 34.94 137.78
  A 1.07 1.07 0.0 0 0 35.86 137.74
  C 38.07 136.55 40.73 133.23 43.30 134.74
  Q 43.71 134.99 44.18 135.12
  L 49.28 136.52
  Q 51.14 137.03 50.36 135.27
  L 49.53 133.39
  A 0.57 0.57 0.0 0 0 48.83 133.08
  Q 43.89 134.71 39.48 132.21
  A 0.59 0.59 0.0 0 1 39.23 131.47
  L 39.75 130.20
  A 0.84 0.83 -77.9 0 1 40.55 129.68
  L 49.14 129.96
  A 0.72 0.72 0.0 0 1 49.84 130.59
  C 50.92 138.62 57.35 134.42 62.00 136.32
  Q 62.53 136.54 62.45 135.97
  Q 61.96 132.75 59.15 130.96
  Q 58.11 130.28 59.32 130.03
  L 63.18 129.21
  Q 64.70 128.89 63.36 128.10
  Q 60.60 126.48 57.59 127.85
  A 0.89 0.87 -41.5 0 1 56.78 127.81
  Q 50.79 124.15 46.15 118.84
  Q 45.50 118.10 43.16 116.81
  A 0.58 0.58 0.0 0 0 42.46 116.93
  L 41.43 118.04
  A 0.74 0.74 0.0 0 1 40.60 118.22
  L 37.58 116.95
  Q 36.84 116.64 36.96 117.44
  L 37.67 121.96
  Q 38.00 124.08 35.87 124.33
  L 14.08 126.90
  A 0.49 0.49 0.0 0 1 13.54 126.39
  C 13.58 125.49 30.11 122.70 31.10 122.47
  A 0.50 0.49 76.5 0 0 31.47 121.86
  L 30.93 119.84
  A 0.57 0.56 76.5 0 0 30.27 119.43
  Q 24.06 120.73 18.76 119.98
  Q 14.97 119.44 14.41 122.58
  A 0.81 0.81 0.0 0 1 13.73 123.23
  Q 10.35 123.71 7.16 122.39
  A 1.19 1.17 -0.5 0 1 6.54 121.79
  Q 5.04 118.33 1.24 117.74
  A 1.06 1.04 -7.2 0 1 0.44 117.13
  Q 0.06 116.25 0.29 115.50
  Q 8.87 114.86 17.44 114.18
  Q 18.60 114.09 19.51 115.15
  A 0.98 0.96 -22.1 0 0 20.33 115.49
  C 24.93 115.18 32.08 113.33 36.30 114.87
  A 1.03 1.02 38.8 0 0 37.19 114.78
  C 41.44 112.13 45.78 113.61 49.94 109.51
  Q 50.96 108.50 50.96 109.93
  L 50.96 110.69
  A 0.57 0.57 0.0 0 1 50.35 111.26
  Q 49.29 111.19 48.61 111.83
  Q 48.10 112.31 48.77 112.51
  C 53.91 114.01 55.58 111.33 59.41 109.71
  Q 66.62 106.65 74.39 105.76
  A 0.67 0.67 0.0 0 0 74.97 105.25
  Q 75.15 104.54 76.00 104.46
  Q 82.78 107.51 90.25 107.29
  Q 88.36 107.99 88.25 110.26
  Q 88.09 113.35 91.13 112.78
  Q 93.14 112.41 95.07 113.15
  A 0.84 0.83 35.7 0 0 95.89 113.02
  Q 97.42 111.80 96.50 110.04
  L 99.11 110.24
  A 0.80 0.79 11.7 0 0 99.93 109.71
  L 100.99 106.65
  Q 101.49 105.20 100.13 105.93
  L 95.25 108.54
  L 93.00 106.46
  C 98.96 100.54 104.61 96.72 110.50 89.21
  L 111.59 89.25
  A 1.58 1.52 -61.0 0 0 112.56 88.95
  L 116.52 86.09
  Q 118.26 84.84 119.53 86.56
  C 121.61 89.38 123.83 94.25 128.19 92.44
  A 1.22 1.19 -88.5 0 0 128.84 91.81
  Q 129.68 90.02 131.43 89.16
  A 1.13 1.13 0.0 0 0 132.03 88.45
  Q 132.45 86.93 133.96 86.75
  C 133.99 92.30 132.71 105.33 135.52 109.76
  A 0.52 0.52 0.0 0 0 136.25 109.91
  Q 141.98 106.13 145.81 100.44
  A 0.83 0.82 40.1 0 0 145.72 99.41
  L 144.44 98.05
  A 1.20 1.18 -67.7 0 1 144.12 97.26
  L 144.04 63.75
  Q 147.18 62.42 149.38 59.82
  A 1.44 1.41 -75.4 0 1 150.18 59.34
  L 151.75 59.04
  Z
  M 122.93 120.84
  L 120.38 122.42
  A 0.78 0.78 0.0 0 0 120.06 123.34
  C 120.68 125.10 125.44 123.54 126.24 123.74
  C 128.18 124.23 133.96 124.91 135.70 123.01
  Q 136.07 122.60 135.53 122.48
  C 133.33 122.01 130.37 122.84 128.57 121.57
  A 0.69 0.69 0.0 0 1 128.31 120.78
  C 129.10 118.41 136.46 122.02 136.26 118.89
  A 0.66 0.66 0.0 0 0 135.53 118.27
  L 131.97 118.67
  A 0.34 0.31 -16.2 0 1 131.65 118.51
  L 131.48 118.24
  A 0.39 0.38 57.7 0 1 131.59 117.73
  C 134.77 115.47 128.95 111.93 127.30 110.68
  A 1.11 1.11 0.0 0 0 126.41 110.48
  Q 123.69 111.02 122.74 113.53
  A 0.55 0.55 0.0 0 1 122.01 113.84
  Q 118.38 112.27 114.40 113.27
  A 0.56 0.56 0.0 0 0 114.05 114.09
  Q 115.40 116.45 115.09 119.15
  A 1.05 1.05 0.0 0 0 116.50 120.26
  Q 119.54 119.15 122.78 119.93
  Q 123.94 120.21 122.93 120.84
  Z
  M 103.06 115.20
  Q 102.92 114.53 101.02 114.48
  A 0.73 0.72 83.9 0 0 100.30 115.38
  L 100.58 116.46
  A 1.42 1.39 49.0 0 1 100.53 117.28
  Q 100.13 118.30 100.39 119.31
  A 0.88 0.88 0.0 0 0 101.24 119.97
  L 111.73 119.88
  Q 112.65 119.88 112.17 119.10
  Q 110.01 115.57 105.99 114.65
  A 0.81 0.80 23.8 0 0 105.15 114.97
  Q 104.57 115.75 103.64 115.70
  A 0.63 0.63 0.0 0 1 103.06 115.20
  Z
  M 67.64 118.23
  L 70.91 119.40
  A 0.32 0.07 20.9 0 0 71.19 119.44
  L 71.39 119.23
  A 0.36 0.35 44.4 0 0 71.38 118.71
  Q 69.58 117.08 67.15 117.04
  Q 66.69 117.03 66.28 116.81
  Q 64.30 115.73 62.07 115.48
  Q 61.02 115.36 61.86 116.00
  C 62.65 116.59 66.32 120.16 67.00 118.51
  A 0.50 0.50 0.0 0 1 67.64 118.23
  Z
  M 92.73 121.66
  C 91.69 121.09 84.12 118.40 85.60 122.08
  A 0.64 0.64 0.0 0 0 86.32 122.48
  Q 88.70 122.03 91.04 122.72
  A 1.76 1.69 -43.9 0 0 91.97 122.72
  L 92.63 122.54
  Q 93.75 122.22 92.73 121.66
  Z
  M 69.38 126.55
  C 68.56 127.14 65.61 127.36 65.47 127.94
  A 0.39 0.38 -86.2 0 0 65.88 128.41
  C 72.94 127.81 74.36 135.39 83.25 130.71
  A 0.43 0.43 0.0 0 0 83.43 130.12
  Q 82.59 128.62 83.22 127.03
  A 0.80 0.80 0.0 0 0 83.00 126.14
  C 78.77 122.45 73.06 122.18 67.70 121.40
  A 0.43 0.43 0.0 0 0 67.22 121.90
  Q 67.64 124.24 69.41 125.79
  A 0.48 0.48 0.0 0 1 69.38 126.55
  Z
  M 25.37 149.69
  C 24.51 148.91 24.39 147.64 23.86 146.92
  Q 22.22 144.72 19.50 144.05
  Q 18.99 143.93 18.60 143.59
  L 15.87 141.33
  Q 14.77 140.40 15.02 141.82
  L 15.14 142.47
  A 2.20 2.19 9.6 0 0 16.25 144.02
  Q 20.89 146.57 24.50 150.45
  Q 25.97 152.02 27.06 150.17
  Q 28.92 147.00 32.55 146.68
  A 0.51 0.51 0.0 0 0 33.02 146.12
  L 32.79 143.82
  A 0.62 0.61 5.7 0 0 32.35 143.29
  Q 28.46 142.20 25.84 139.19
  Q 24.72 137.92 23.09 137.47
  Q 20.31 136.71 19.47 137.75
  A 0.68 0.67 45.4 0 0 19.47 138.58
  C 20.59 140.05 21.08 141.54 22.57 142.73
  C 24.11 143.96 27.95 147.93 26.14 149.69
  A 0.57 0.56 44.6 0 1 25.37 149.69
  Z
  M 70.74 140.17
  L 58.06 138.33
  A 0.45 0.45 0.0 0 0 57.55 138.72
  L 57.33 140.49
  A 0.57 0.57 0.0 0 0 57.78 141.12
  Q 60.67 141.75 62.51 144.10
  A 1.03 1.02 68.5 0 0 63.39 144.49
  Q 67.63 144.17 71.11 141.82
  Q 73.05 140.51 70.74 140.17
  Z
  M 7.65 143.97
  Q 7.13 144.49 8.31 145.51
  Q 8.72 145.85 9.19 146.09
  L 14.72 148.84
  A 0.34 0.34 0.0 0 0 15.10 148.78
  L 15.28 148.60
  A 0.37 0.36 44.4 0 0 15.27 148.08
  C 13.87 146.72 10.27 142.32 8.23 142.87
  A 0.23 0.22 -87.1 0 0 8.08 143.01
  L 7.90 143.56
  Q 7.82 143.79 7.65 143.97
  Z
  M 25.63 156.23
  Q 24.18 153.91 21.40 154.26
  Q 20.41 154.38 21.19 155.00
  Q 22.88 156.34 24.84 157.17
  Q 26.73 157.96 25.63 156.23
  Z"
/>
<path fill="#dddddd" d="
  M 238.90 93.82
  C 234.34 95.10 229.79 92.29 228.67 87.93
  C 225.58 75.95 230.35 69.11 239.52 62.30
  A 0.33 0.32 -24.1 0 1 240.03 62.49
  C 241.95 71.72 241.27 83.18 240.06 92.48
  A 1.62 1.61 -4.2 0 1 238.90 93.82
  Z"
/>
<path fill="#dddddd" d="
  M 133.96 71.50
  L 133.96 78.75
  Q 130.53 80.58 127.48 78.19
  Q 125.49 76.62 127.77 75.51
  L 131.73 73.58
  A 1.11 1.11 0.0 0 0 132.33 72.83
  Q 132.64 71.39 133.96 71.50
  Z"
/>
<path fill="#dddddd" d="
  M 268.79 80.13
  A 1.10 1.09 -3.7 0 1 269.68 79.12
  L 274.30 78.27
  Q 276.72 77.82 277.45 80.17
  C 278.79 84.55 279.82 91.88 277.12 96.25
  A 1.55 1.50 3.7 0 1 276.43 96.84
  Q 272.61 98.41 268.46 97.95
  A 0.71 0.71 0.0 0 1 267.84 97.21
  L 268.79 80.13
  Z"
/>
<ellipse fill="#ffffff" cx="0.00" cy="0.00" transform="translate(416.79,98.57) rotate(36.3)" rx="2.37" ry="0.53"/>
<path fill="#dddddd" d="
  M 22.02 102.66
  A 0.91 0.89 -24.0 0 0 21.78 103.27
  C 21.81 106.44 30.82 103.29 33.38 105.57
  Q 33.85 105.98 33.25 106.13
  L 27.91 107.51
  Q 27.46 107.62 27.00 107.56
  Q 18.84 106.47 10.59 106.25
  C 9.73 106.23 9.24 106.49 8.85 107.19
  A 0.75 0.74 -71.2 0 1 8.10 107.56
  L 2.05 106.77
  A 0.76 0.76 0.0 0 1 1.40 105.86
  L 1.59 104.95
  A 0.81 0.81 0.0 0 1 2.29 104.30
  C 7.97 103.59 13.98 103.53 19.48 101.98
  C 20.35 101.73 24.63 100.97 24.85 101.91
  Q 25.03 102.73 24.29 102.34
  Q 23.00 101.66 22.02 102.66
  Z"
/>
<path fill="#ffffff" d="
  M 0.00 101.69
  Q 0.63 103.81 0.00 105.94
  L 0.00 101.69
  Z"
/>
<path fill="#c7c7c7" d="
  M 96.50 110.04
  Q 95.40 109.65 95.25 108.54
  L 100.13 105.93
  Q 101.49 105.20 100.99 106.65
  L 99.93 109.71
  A 0.80 0.79 11.7 0 1 99.11 110.24
  L 96.50 110.04
  Z"
/>
<path fill="#ffffff" d="
  M 93.00 106.46
  L 95.25 108.54
  Q 95.40 109.65 96.50 110.04
  Q 97.42 111.80 95.89 113.02
  A 0.84 0.83 35.7 0 1 95.07 113.15
  Q 93.14 112.41 91.13 112.78
  Q 88.09 113.35 88.25 110.26
  Q 88.36 107.99 90.25 107.29
  L 93.00 106.46
  Z"
/>
<path fill="#ffffff" d="
  M 122.93 120.84
  Q 123.94 120.21 122.78 119.93
  Q 119.54 119.15 116.50 120.26
  A 1.05 1.05 0.0 0 1 115.09 119.15
  Q 115.40 116.45 114.05 114.09
  A 0.56 0.56 0.0 0 1 114.40 113.27
  Q 118.38 112.27 122.01 113.84
  A 0.55 0.55 0.0 0 0 122.74 113.53
  Q 123.69 111.02 126.41 110.48
  A 1.11 1.11 0.0 0 1 127.30 110.68
  C 128.95 111.93 134.77 115.47 131.59 117.73
  A 0.39 0.38 57.7 0 0 131.48 118.24
  L 131.65 118.51
  A 0.34 0.31 -16.2 0 0 131.97 118.67
  L 135.53 118.27
  A 0.66 0.66 0.0 0 1 136.26 118.89
  C 136.46 122.02 129.10 118.41 128.31 120.78
  A 0.69 0.69 0.0 0 0 128.57 121.57
  C 130.37 122.84 133.33 122.01 135.53 122.48
  Q 136.07 122.60 135.70 123.01
  C 133.96 124.91 128.18 124.23 126.24 123.74
  C 125.44 123.54 120.68 125.10 120.06 123.34
  A 0.78 0.78 0.0 0 1 120.38 122.42
  L 122.93 120.84
  Z"
/>
<path fill="#ffffff" d="
  M 450.00 116.31
  L 450.00 121.06
  Q 448.86 118.39 445.99 118.29
  A 0.81 0.79 12.0 0 0 445.22 118.78
  L 444.69 120.03
  A 0.84 0.84 0.0 0 0 444.85 120.94
  L 445.93 122.06
  A 0.43 0.42 57.4 0 1 445.78 122.75
  L 444.18 123.36
  A 1.01 1.01 0.0 0 0 443.73 124.92
  L 448.43 131.09
  A 0.53 0.53 0.0 0 1 448.29 131.86
  Q 446.98 132.70 445.76 131.23
  Q 445.08 130.40 445.10 131.47
  Q 445.12 133.00 445.93 134.31
  A 0.68 0.68 0.0 0 0 446.76 134.58
  L 450.00 133.31
  L 450.00 244.00
  L 0.00 244.00
  L -0.04 139.48
  Q 3.36 142.10 6.15 145.29
  C 8.09 147.50 16.76 155.89 16.65 156.29
  A 0.62 0.62 0.0 0 1 15.97 156.73
  L 13.74 156.45
  A 0.49 0.49 0.0 0 0 13.20 157.03
  L 13.49 158.55
  A 0.23 0.23 0.0 0 1 13.20 158.82
  L 6.07 156.95
  A 1.32 1.32 0.0 0 0 5.02 157.11
  Q 3.15 158.32 1.05 158.13
  A 0.67 0.67 0.0 0 0 0.34 158.65
  C -0.21 160.99 1.46 160.94 2.05 162.42
  A 0.37 0.36 -19.6 0 1 1.82 162.90
  L 0.68 163.26
  A 0.76 0.76 0.0 0 0 0.18 164.22
  L 0.73 165.85
  A 1.28 1.27 48.9 0 1 0.67 166.82
  C -0.67 169.56 1.41 172.32 4.08 172.59
  C 9.49 173.13 13.88 174.31 19.42 173.28
  A 0.51 0.50 -22.9 0 0 19.74 172.50
  L 17.59 169.37
  A 1.03 1.02 67.3 0 0 16.56 168.94
  Q 14.67 169.28 13.12 168.27
  A 0.76 0.74 25.2 0 1 12.81 167.43
  Q 13.42 165.47 15.22 164.46
  A 0.86 0.86 0.0 0 0 15.67 163.72
  Q 15.70 162.23 14.52 161.09
  A 0.52 0.52 0.0 0 1 14.52 160.34
  L 14.77 160.10
  A 0.46 0.46 0.0 0 1 15.38 160.08
  C 21.38 165.01 27.54 169.51 32.91 175.20
  Q 33.31 175.63 33.41 175.05
  C 33.66 173.71 21.34 161.65 19.21 159.67
  A 0.54 0.54 0.0 0 1 19.34 158.79
  L 20.30 158.33
  A 0.62 0.61 60.7 0 1 21.10 158.56
  C 21.98 159.95 22.30 161.44 23.59 162.51
  Q 30.63 168.31 37.37 174.43
  C 39.88 176.72 41.15 176.81 44.38 176.74
  Q 45.01 176.73 45.63 176.81
  Q 53.36 177.85 60.93 176.17
  A 0.97 0.96 -6.4 0 0 61.69 175.23
  Q 61.71 171.34 65.73 171.53
  A 0.49 0.48 1.1 0 0 66.24 171.05
  L 66.27 168.03
  A 0.75 0.74 86.9 0 1 66.92 167.30
  Q 69.52 166.97 70.81 164.85
  A 0.54 0.53 26.0 0 1 71.47 164.63
  L 74.96 166.00
  L 75.09 178.52
  A 1.53 1.52 -28.1 0 1 74.81 179.43
  C 71.75 183.76 67.98 186.69 69.15 192.94
  C 70.35 199.38 74.66 203.09 81.21 203.88
  C 93.06 205.32 104.15 197.58 110.42 187.92
  C 114.32 181.89 114.47 175.80 113.98 168.89
  Q 123.31 170.67 132.60 169.20
  C 134.42 168.92 136.29 169.60 138.01 169.08
  Q 145.95 166.68 153.96 164.50
  L 153.99 194.03
  Q 153.99 196.03 155.70 194.99
  Q 160.38 192.13 163.39 187.52
  A 3.84 3.81 61.8 0 0 164.01 185.43
  L 164.04 164.25
  L 174.46 163.75
  Q 173.87 174.12 174.00 184.55
  C 174.05 188.45 175.23 191.49 179.35 191.89
  C 184.32 192.38 191.85 182.76 194.32 179.00
  Q 194.75 178.34 194.80 179.13
  C 195.62 191.98 195.58 211.78 189.79 223.55
  A 2.64 2.61 -81.4 0 1 187.87 224.98
  C 176.71 226.82 169.69 219.09 169.77 208.67
  Q 169.79 206.58 171.27 205.11
  C 172.07 204.31 179.28 197.49 179.03 196.69
  A 0.66 0.66 0.0 0 0 178.33 196.24
  Q 173.13 196.81 167.59 201.16
  Q 155.49 210.66 161.26 224.77
  C 163.83 231.06 167.19 235.10 174.44 235.19
  C 189.39 235.35 200.50 218.85 202.87 206.02
  C 206.60 185.86 205.01 162.83 205.04 142.00
  Q 209.40 142.18 213.64 141.09
  C 214.43 140.89 214.74 141.16 214.54 142.00
  Q 214.76 144.61 213.64 147.05
  A 1.07 1.06 42.4 0 0 213.69 148.03
  L 215.08 150.41
  A 0.73 0.73 0.0 0 1 214.97 151.30
  Q 212.07 154.19 212.03 157.00
  Q 211.81 171.63 212.48 186.25
  Q 212.73 191.71 214.06 197.09
  A 1.30 1.29 68.6 0 0 215.94 197.92
  Q 220.62 195.35 223.96 191.18
  Q 225.30 189.52 224.48 187.55
  L 223.07 184.18
  A 0.86 0.86 0.0 0 1 223.22 183.29
  Q 226.66 179.50 229.86 178.17
  Q 237.53 174.98 240.71 168.49
  A 0.51 0.49 -62.1 0 0 240.52 167.84
  L 237.17 165.82
  A 0.64 0.64 0.0 0 1 236.97 164.91
  L 245.20 152.66
  Q 247.53 149.19 246.97 153.33
  Q 244.52 171.19 243.89 188.99
  C 243.74 193.04 245.92 202.46 252.39 197.86
  Q 260.83 191.86 268.32 184.34
  Q 270.74 181.91 267.32 181.97
  L 264.58 182.01
  A 0.61 0.61 0.0 0 1 263.95 181.34
  L 264.16 179.28
  A 0.72 0.72 0.0 0 1 264.78 178.63
  L 282.16 176.09
  A 0.75 0.75 0.0 0 1 283.01 176.75
  C 283.84 184.08 284.92 190.82 289.98 196.78
  Q 292.04 199.20 294.79 197.58
  Q 298.94 195.13 301.55 191.24
  Q 301.98 190.59 301.99 191.37
  L 302.01 200.28
  Q 302.02 201.62 303.06 200.79
  Q 307.65 197.17 311.48 192.76
  A 2.21 2.19 -25.0 0 0 312.01 191.33
  L 312.04 168.00
  C 314.64 167.84 316.93 170.49 318.61 172.28
  A 0.63 0.62 43.1 0 1 318.64 173.10
  L 316.17 176.17
  A 0.89 0.87 56.2 0 0 316.02 176.98
  Q 316.91 179.76 320.00 179.72
  A 0.93 0.93 0.0 0 1 320.81 180.16
  Q 321.61 181.43 323.14 181.42
  A 0.83 0.82 75.1 0 1 323.88 181.85
  Q 324.52 183.09 325.96 183.00
  Q 328.45 189.63 335.06 189.91
  Q 337.13 190.00 338.66 188.59
  L 345.39 182.38
  A 0.51 0.48 22.2 0 1 345.73 182.25
  L 346.01 182.25
  A 0.21 0.20 6.7 0 1 346.21 182.50
  L 345.98 183.42
  A 1.64 1.63 74.6 0 1 345.55 184.18
  L 339.14 190.56
  Q 337.28 192.41 338.78 194.56
  C 341.27 198.16 359.73 197.26 363.98 196.81
  Q 380.01 195.11 390.25 182.96
  L 393.61 185.05
  A 0.86 0.86 0.0 0 0 394.90 184.53
  C 395.48 182.21 396.50 180.65 396.97 178.04
  Q 397.33 176.06 398.52 174.39
  Q 398.81 173.98 398.81 174.48
  C 398.83 177.41 400.50 183.95 402.46 186.17
  A 0.55 0.55 0.0 0 0 403.22 186.24
  C 404.24 185.41 402.28 182.94 403.97 181.18
  A 0.39 0.39 0.0 0 1 404.62 181.32
  L 406.05 185.24
  A 0.86 0.86 0.0 0 0 406.74 185.79
  L 407.08 185.84
  A 0.66 0.66 0.0 0 0 407.82 185.30
  L 408.25 182.82
  A 0.69 0.69 0.0 0 1 408.93 182.25
  L 411.93 182.25
  Q 412.77 182.25 412.32 181.54
  L 410.26 178.36
  A 1.10 1.09 -32.5 0 1 410.60 176.84
  C 412.78 175.46 410.56 172.65 409.31 171.14
  Q 408.86 170.59 409.56 170.49
  L 411.44 170.22
  A 0.65 0.64 -6.3 0 0 411.99 169.54
  Q 411.73 165.37 414.28 162.17
  A 1.79 1.78 67.3 0 0 414.67 161.21
  L 414.90 158.52
  A 0.56 0.56 0.0 0 1 415.76 158.09
  C 418.58 159.88 416.32 162.90 415.56 165.10
  A 1.17 1.16 -52.5 0 0 415.69 166.13
  Q 417.62 169.00 421.10 169.94
  Q 421.93 170.17 421.58 169.39
  L 420.35 166.62
  A 1.78 1.77 60.0 0 1 420.92 164.47
  Q 422.40 163.38 422.58 161.83
  C 422.90 159.23 414.97 153.11 413.14 151.03
  Q 405.98 142.87 398.24 135.25
  A 0.44 0.44 0.0 0 1 398.29 134.58
  C 399.25 133.88 408.90 142.92 410.05 144.06
  C 413.90 147.91 418.98 152.80 423.88 155.11
  Q 424.82 155.56 424.55 154.56
  L 424.02 152.65
  A 1.03 1.03 0.0 0 1 424.07 151.93
  C 425.69 148.38 428.45 149.09 430.97 147.51
  Q 434.20 145.49 437.22 143.09
  A 0.82 0.80 -34.5 0 0 437.42 142.05
  C 436.58 140.65 435.06 135.96 437.50 135.31
  A 0.69 0.68 -22.6 0 1 438.25 135.61
  C 439.26 137.30 441.04 137.09 441.86 139.43
  Q 441.96 139.74 442.15 139.47
  Q 443.99 136.73 442.58 133.88
  A 1.11 1.11 0.0 0 1 442.54 132.96
  C 443.88 129.62 440.16 127.81 442.94 125.18
  A 0.85 0.84 62.4 0 0 443.19 124.37
  Q 442.57 121.79 443.19 119.15
  A 1.51 1.47 -52.9 0 0 443.06 118.11
  Q 441.45 115.02 443.90 112.34
  A 0.57 0.57 0.0 0 1 444.69 112.30
  L 446.10 113.56
  A 0.81 0.80 -63.8 0 1 446.36 114.34
  L 446.01 115.99
  Q 445.79 117.00 446.71 116.52
  Q 448.41 115.61 449.15 117.25
  Q 449.30 117.61 449.49 117.26
  L 450.00 116.31
  Z"
/>
<path fill="#ffffff" d="
  M 0.00 114.19
  L 0.29 115.50
  Q 0.06 116.25 0.44 117.13
  A 1.06 1.04 -7.2 0 0 1.24 117.74
  Q 5.04 118.33 6.54 121.79
  A 1.19 1.17 -0.5 0 0 7.16 122.39
  Q 10.35 123.71 13.73 123.23
  A 0.81 0.81 0.0 0 0 14.41 122.58
  Q 14.97 119.44 18.76 119.98
  Q 24.06 120.73 30.27 119.43
  A 0.57 0.56 76.5 0 1 30.93 119.84
  L 31.47 121.86
  A 0.50 0.49 76.5 0 1 31.10 122.47
  C 30.11 122.70 13.58 125.49 13.54 126.39
  A 0.49 0.49 0.0 0 0 14.08 126.90
  L 35.87 124.33
  Q 38.00 124.08 37.67 121.96
  L 36.96 117.44
  Q 36.84 116.64 37.58 116.95
  L 40.60 118.22
  A 0.74 0.74 0.0 0 0 41.43 118.04
  L 42.46 116.93
  A 0.58 0.58 0.0 0 1 43.16 116.81
  Q 45.50 118.10 46.15 118.84
  Q 50.79 124.15 56.78 127.81
  A 0.89 0.87 -41.5 0 0 57.59 127.85
  Q 60.60 126.48 63.36 128.10
  Q 64.70 128.89 63.18 129.21
  L 59.32 130.03
  Q 58.11 130.28 59.15 130.96
  Q 61.96 132.75 62.45 135.97
  Q 62.53 136.54 62.00 136.32
  C 57.35 134.42 50.92 138.62 49.84 130.59
  A 0.72 0.72 0.0 0 0 49.14 129.96
  L 40.55 129.68
  A 0.84 0.83 -77.9 0 0 39.75 130.20
  L 39.23 131.47
  A 0.59 0.59 0.0 0 0 39.48 132.21
  Q 43.89 134.71 48.83 133.08
  A 0.57 0.57 0.0 0 1 49.53 133.39
  L 50.36 135.27
  Q 51.14 137.03 49.28 136.52
  L 44.18 135.12
  Q 43.71 134.99 43.30 134.74
  C 40.73 133.23 38.07 136.55 35.86 137.74
  A 1.07 1.07 0.0 0 1 34.94 137.78
  C 33.62 137.22 31.18 133.89 29.90 132.72
  A 1.05 1.04 -28.1 0 0 29.03 132.46
  Q 27.14 132.73 25.53 133.61
  C 24.28 134.30 23.91 135.89 21.77 135.54
  A 1.52 1.49 -53.1 0 0 20.85 135.68
  Q 20.01 136.08 18.44 136.10
  Q 13.93 136.15 0.00 137.44
  L 0.00 114.19
  Z
  M 55.3655 133.2803
  A 1.53 0.81 49.9 0 0 54.9996 131.5883
  A 1.53 0.81 49.9 0 0 53.3945 130.9397
  A 1.53 0.81 49.9 0 0 53.7604 132.6317
  A 1.53 0.81 49.9 0 0 55.3655 133.2803
  Z"
/>
<path fill="#ffffff" d="
  M 103.64 115.70
  Q 104.57 115.75 105.15 114.97
  A 0.81 0.80 23.8 0 1 105.99 114.65
  Q 110.01 115.57 112.17 119.10
  Q 112.65 119.88 111.73 119.88
  L 101.24 119.97
  A 0.88 0.88 0.0 0 1 100.39 119.31
  Q 100.13 118.30 100.53 117.28
  A 1.42 1.39 49.0 0 0 100.58 116.46
  L 100.30 115.38
  A 0.73 0.72 83.9 0 1 101.02 114.48
  Q 102.92 114.53 103.06 115.20
  A 0.63 0.63 0.0 0 0 103.64 115.70
  Z"
/>
<path fill="#ffffff" d="
  M 67.00 118.51
  C 66.32 120.16 62.65 116.59 61.86 116.00
  Q 61.02 115.36 62.07 115.48
  Q 64.30 115.73 66.28 116.81
  Q 66.69 117.03 67.15 117.04
  Q 69.58 117.08 71.38 118.71
  A 0.36 0.35 44.4 0 1 71.39 119.23
  L 71.19 119.44
  A 0.32 0.07 20.9 0 1 70.91 119.40
  L 67.64 118.23
  A 0.50 0.50 0.0 0 0 67.00 118.51
  Z"
/>
<path fill="#dddddd" d="
  M 450.00 121.06
  L 450.05 122.86
  L 447.79 125.15
  A 0.52 0.52 0.0 0 0 447.78 125.87
  Q 449.27 127.50 450.00 129.56
  L 450.00 133.31
  L 446.76 134.58
  A 0.68 0.68 0.0 0 1 445.93 134.31
  Q 445.12 133.00 445.10 131.47
  Q 445.08 130.40 445.76 131.23
  Q 446.98 132.70 448.29 131.86
  A 0.53 0.53 0.0 0 0 448.43 131.09
  L 443.73 124.92
  A 1.01 1.01 0.0 0 1 444.18 123.36
  L 445.78 122.75
  A 0.43 0.42 57.4 0 0 445.93 122.06
  L 444.85 120.94
  A 0.84 0.84 0.0 0 1 444.69 120.03
  L 445.22 118.78
  A 0.81 0.79 12.0 0 1 445.99 118.29
  Q 448.86 118.39 450.00 121.06
  Z"
/>
<path fill="#ffffff" d="
  M 92.73 121.66
  Q 93.75 122.22 92.63 122.54
  L 91.97 122.72
  A 1.76 1.69 -43.9 0 1 91.04 122.72
  Q 88.70 122.03 86.32 122.48
  A 0.64 0.64 0.0 0 1 85.60 122.08
  C 84.12 118.40 91.69 121.09 92.73 121.66
  Z"
/>
<path fill="#ffffff" d="
  M 69.41 125.79
  Q 67.64 124.24 67.22 121.90
  A 0.43 0.43 0.0 0 1 67.70 121.40
  C 73.06 122.18 78.77 122.45 83.00 126.14
  A 0.80 0.80 0.0 0 1 83.22 127.03
  Q 82.59 128.62 83.43 130.12
  A 0.43 0.43 0.0 0 1 83.25 130.71
  C 74.36 135.39 72.94 127.81 65.88 128.41
  A 0.39 0.38 -86.2 0 1 65.47 127.94
  C 65.61 127.36 68.56 127.14 69.38 126.55
  A 0.48 0.48 0.0 0 0 69.41 125.79
  Z"
/>
<path fill="#ffffff" d="
  M 450.05 122.86
  L 450.00 129.56
  Q 449.27 127.50 447.78 125.87
  A 0.52 0.52 0.0 0 1 447.79 125.15
  L 450.05 122.86
  Z"
/>
<path fill="#090909" d="
  M 113.98 168.89
  C 114.47 175.80 114.32 181.89 110.42 187.92
  C 104.15 197.58 93.06 205.32 81.21 203.88
  C 74.66 203.09 70.35 199.38 69.15 192.94
  C 67.98 186.69 71.75 183.76 74.81 179.43
  A 1.53 1.52 -28.1 0 0 75.09 178.52
  L 74.96 166.00
  Q 75.04 158.01 74.99 150.00
  C 74.97 145.13 76.46 142.23 80.31 139.68
  Q 82.46 138.25 80.17 139.41
  Q 78.33 140.34 76.61 141.46
  Q 76.03 141.83 76.13 141.16
  C 76.82 136.23 85.39 130.98 89.50 129.04
  L 94.25 126.96
  Q 99.07 125.02 104.20 124.94
  A 0.64 0.63 81.7 0 1 104.82 125.41
  C 107.36 135.39 104.07 144.01 99.16 152.53
  Q 98.19 154.22 100.09 153.77
  C 112.84 150.79 113.09 159.99 113.98 168.89
  Z
  M 85.00 138.25
  L 85.00 159.45
  A 0.34 0.34 0.0 0 0 85.47 159.77
  C 95.14 155.99 96.37 144.56 95.00 135.73
  A 0.88 0.87 84.4 0 0 94.11 134.99
  Q 89.58 135.14 85.62 137.22
  A 1.17 1.17 0.0 0 0 85.00 138.25
  Z
  M 88.67 171.84
  L 85.32 175.35
  A 1.14 1.13 67.1 0 0 85.00 176.14
  L 85.04 191.97
  A 1.46 1.46 0.0 0 0 86.16 193.39
  C 90.77 194.52 102.46 195.37 103.79 189.03
  C 104.79 184.22 105.03 165.30 97.29 163.08
  C 91.97 161.55 86.93 166.32 84.80 170.83
  C 84.78 170.88 84.82 171.41 84.86 171.48
  A 0.37 0.36 -20.6 0 0 85.26 171.65
  L 88.19 170.99
  Q 89.84 170.61 88.67 171.84
  Z"
/>
<path fill="#ffffff" d="
  M 94.25 126.96
  L 89.50 129.04
  Q 88.09 128.35 87.10 127.20
  A 0.81 0.80 -52.2 0 1 86.99 126.30
  L 87.28 125.70
  A 0.73 0.73 0.0 0 1 88.11 125.32
  L 91.30 126.12
  A 1.76 1.75 -47.2 0 0 92.27 126.08
  Q 93.61 125.62 94.25 126.96
  Z"
/>
<path fill="#090909" d="
  M 184.29 158.50
  C 184.12 160.99 182.76 181.54 186.16 181.04
  A 1.71 1.69 4.6 0 0 187.55 179.87
  Q 191.39 167.82 193.00 157.54
  Q 194.26 150.59 194.98 143.59
  C 195.53 138.32 199.10 134.19 203.69 132.09
  A 0.93 0.93 0.0 0 1 205.00 132.93
  L 205.04 142.00
  C 205.01 162.83 206.60 185.86 202.87 206.02
  C 200.50 218.85 189.39 235.35 174.44 235.19
  C 167.19 235.10 163.83 231.06 161.26 224.77
  Q 155.49 210.66 167.59 201.16
  Q 173.13 196.81 178.33 196.24
  A 0.66 0.66 0.0 0 1 179.03 196.69
  C 179.28 197.49 172.07 204.31 171.27 205.11
  Q 169.79 206.58 169.77 208.67
  C 169.69 219.09 176.71 226.82 187.87 224.98
  A 2.64 2.61 -81.4 0 0 189.79 223.55
  C 195.58 211.78 195.62 191.98 194.80 179.13
  Q 194.75 178.34 194.32 179.00
  C 191.85 182.76 184.32 192.38 179.35 191.89
  C 175.23 191.49 174.05 188.45 174.00 184.55
  Q 173.87 174.12 174.46 163.75
  Q 176.07 149.98 179.06 136.34
  A 0.60 0.59 -87.2 0 0 178.41 135.61
  L 165.04 137.10
  A 1.16 1.16 0.0 0 0 164.01 138.25
  L 164.04 164.25
  L 164.01 185.43
  A 3.84 3.81 61.8 0 1 163.39 187.52
  Q 160.38 192.13 155.70 194.99
  Q 153.99 196.03 153.99 194.03
  L 153.96 164.50
  L 153.93 141.25
  A 0.38 0.38 0.0 0 0 153.43 140.89
  Q 137.83 146.12 123.35 153.87
  Q 122.83 154.15 122.99 153.59
  C 124.72 147.44 135.44 141.41 140.71 139.16
  C 156.12 132.56 168.73 127.58 183.81 125.87
  Q 186.40 125.58 187.70 125.83
  Q 189.55 126.20 189.11 128.03
  Q 185.48 143.32 184.29 158.50
  Z"
/>
<path fill="#ffffff" d="
  M 277.79 144.75
  Q 267.21 157.40 258.82 171.62
  Q 256.38 175.74 254.70 181.19
  Q 254.62 181.43 254.42 181.48
  A 0.33 0.32 -6.5 0 1 254.02 181.17
  C 253.94 166.19 256.10 150.62 257.96 135.64
  Q 258.24 133.35 256.17 134.35
  C 252.31 136.21 250.02 139.66 247.37 143.11
  Q 240.52 152.02 234.54 161.53
  Q 234.26 161.97 234.07 161.49
  L 225.50 140.54
  C 228.20 140.46 231.09 141.76 233.62 140.32
  A 0.56 0.56 0.0 0 0 233.86 139.60
  C 232.32 136.11 228.43 135.82 225.04 136.75
  L 225.04 132.00
  C 228.72 131.40 231.89 131.18 235.55 129.68
  C 238.09 128.63 239.13 128.13 242.18 128.37
  C 245.39 128.62 248.37 127.09 250.95 127.04
  Q 254.32 126.98 257.52 128.15
  A 1.93 1.90 50.0 0 0 258.48 128.24
  C 264.14 127.20 267.13 132.89 270.09 136.52
  C 271.76 138.57 273.73 139.69 275.83 141.21
  A 1.36 1.36 0.0 0 1 276.35 141.98
  Q 276.77 143.54 277.79 144.75
  Z"
/>
<ellipse fill="#dddddd" cx="0.00" cy="0.00" transform="translate(54.38,132.11) rotate(49.9)" rx="1.53" ry="0.81"/>
<path fill="#dddddd" d="
  M 85.62 137.22
  Q 89.58 135.14 94.11 134.99
  A 0.88 0.87 84.4 0 1 95.00 135.73
  C 96.37 144.56 95.14 155.99 85.47 159.77
  A 0.34 0.34 0.0 0 1 85.00 159.45
  L 85.00 138.25
  A 1.17 1.17 0.0 0 1 85.62 137.22
  Z"
/>
<path fill="#dddddd" d="
  M 174.46 163.75
  L 164.04 164.25
  L 164.01 138.25
  A 1.16 1.16 0.0 0 1 165.04 137.10
  L 178.41 135.61
  A 0.60 0.59 -87.2 0 1 179.06 136.34
  Q 176.07 149.98 174.46 163.75
  Z"
/>
<path fill="#dddddd" d="
  M 225.50 140.54
  Q 224.71 138.74 225.04 136.75
  C 228.43 135.82 232.32 136.11 233.86 139.60
  A 0.56 0.56 0.0 0 1 233.62 140.32
  C 231.09 141.76 228.20 140.46 225.50 140.54
  Z"
/>
<path fill="#ffffff" d="
  M 26.14 149.69
  C 27.95 147.93 24.11 143.96 22.57 142.73
  C 21.08 141.54 20.59 140.05 19.47 138.58
  A 0.68 0.67 45.4 0 1 19.47 137.75
  Q 20.31 136.71 23.09 137.47
  Q 24.72 137.92 25.84 139.19
  Q 28.46 142.20 32.35 143.29
  A 0.62 0.61 5.7 0 1 32.79 143.82
  L 33.02 146.12
  A 0.51 0.51 0.0 0 1 32.55 146.68
  Q 28.92 147.00 27.06 150.17
  Q 25.97 152.02 24.50 150.45
  Q 20.89 146.57 16.25 144.02
  A 2.20 2.19 9.6 0 1 15.14 142.47
  L 15.02 141.82
  Q 14.77 140.40 15.87 141.33
  L 18.60 143.59
  Q 18.99 143.93 19.50 144.05
  Q 22.22 144.72 23.86 146.92
  C 24.39 147.64 24.51 148.91 25.37 149.69
  A 0.57 0.56 44.6 0 0 26.14 149.69
  Z"
/>
<path fill="#ffffff" d="
  M 70.74 140.17
  Q 73.05 140.51 71.11 141.82
  Q 67.63 144.17 63.39 144.49
  A 1.03 1.02 68.5 0 1 62.51 144.10
  Q 60.67 141.75 57.78 141.12
  A 0.57 0.57 0.0 0 1 57.33 140.49
  L 57.55 138.72
  A 0.45 0.45 0.0 0 1 58.06 138.33
  L 70.74 140.17
  Z"
/>
<path fill="#ffffff" d="
  M 7.90 143.56
  L 8.08 143.01
  A 0.23 0.22 -87.1 0 1 8.23 142.87
  C 10.27 142.32 13.87 146.72 15.27 148.08
  A 0.37 0.36 44.4 0 1 15.28 148.60
  L 15.10 148.78
  A 0.34 0.34 0.0 0 1 14.72 148.84
  L 9.19 146.09
  Q 8.72 145.85 8.31 145.51
  Q 7.13 144.49 7.65 143.97
  Q 7.82 143.79 7.90 143.56
  Z"
/>
<path fill="#ffffff" d="
  M 281.48 145.23
  Q 283.00 143.21 283.00 145.74
  L 283.00 167.32
  A 0.60 0.60 0.0 0 1 282.44 167.92
  L 266.37 169.17
  Q 265.63 169.23 266.00 168.58
  Q 273.00 156.41 281.48 145.23
  Z"
/>
<path fill="#ffffff" d="
  M 25.63 156.23
  Q 26.73 157.96 24.84 157.17
  Q 22.88 156.34 21.19 155.00
  Q 20.41 154.38 21.40 154.26
  Q 24.18 153.91 25.63 156.23
  Z"
/>
<path fill="#ffffff" d="
  M 193.00 157.54
  Q 191.39 167.82 187.55 179.87
  A 1.71 1.69 4.6 0 1 186.16 181.04
  C 182.76 181.54 184.12 160.99 184.29 158.50
  L 193.00 157.54
  Z"
/>
<path fill="#dddddd" d="
  M 325.96 183.00
  Q 324.52 183.09 323.88 181.85
  A 0.83 0.82 75.1 0 0 323.14 181.42
  Q 321.61 181.43 320.81 180.16
  A 0.93 0.93 0.0 0 0 320.00 179.72
  Q 316.91 179.76 316.02 176.98
  A 0.89 0.87 56.2 0 1 316.17 176.17
  L 318.64 173.10
  A 0.63 0.62 43.1 0 0 318.61 172.28
  C 316.93 170.49 314.64 167.84 312.04 168.00
  L 312.11 163.96
  A 0.67 0.67 0.0 0 1 312.70 163.31
  Q 318.89 162.50 324.29 159.35
  A 0.37 0.37 0.0 0 1 324.85 159.65
  C 325.15 167.30 324.21 175.59 325.96 183.00
  Z"
/>
<path fill="#ffffff" d="
  M 341.21 162.75
  L 339.81 178.08
  Q 339.68 179.52 338.73 178.43
  C 334.74 173.86 335.01 169.13 334.81 162.09
  L 341.21 162.75
  Z"
/>
<path fill="#ffffff" d="
  M 369.75 162.21
  Q 372.51 165.86 370.85 169.22
  A 1.91 1.91 0.0 0 0 371.23 171.44
  C 374.45 174.59 379.38 179.69 383.54 181.30
  Q 385.05 181.89 386.50 182.71
  C 377.70 187.74 366.82 187.58 356.52 186.99
  Q 356.02 186.96 356.33 186.57
  C 360.74 180.95 359.12 171.76 357.89 165.24
  A 1.01 1.00 79.8 0 1 358.70 164.06
  L 369.75 162.21
  Z
  M 375.5126 181.5768
  A 4.09 0.96 50.3 0 0 373.6386 177.8168
  A 4.09 0.96 50.3 0 0 370.2874 175.2832
  A 4.09 0.96 50.3 0 0 372.1614 179.0432
  A 4.09 0.96 50.3 0 0 375.5126 181.5768
  Z"
/>
<path fill="#ffffff" d="
  M 88.19 170.99
  L 85.26 171.65
  A 0.37 0.36 -20.6 0 1 84.86 171.48
  C 84.82 171.41 84.78 170.88 84.80 170.83
  C 86.93 166.32 91.97 161.55 97.29 163.08
  C 105.03 165.30 104.79 184.22 103.79 189.03
  C 102.46 195.37 90.77 194.52 86.16 193.39
  A 1.46 1.46 0.0 0 1 85.04 191.97
  L 85.00 176.14
  A 1.14 1.13 67.1 0 1 85.32 175.35
  L 88.67 171.84
  Q 89.84 170.61 88.19 170.99
  Z"
/>
<path fill="#ffffff" d="
  M 299.52 186.90
  Q 294.67 180.77 293.79 172.91
  A 0.78 0.77 70.5 0 1 294.14 172.16
  L 301.45 167.47
  Q 302.00 167.12 302.00 167.77
  L 302.00 186.03
  Q 302.00 190.04 299.52 186.90
  Z"
/>
<path fill="#ffffff" d="
  M 225.63 174.64
  L 223.68 176.80
  Q 222.49 178.12 222.38 176.35
  L 221.91 168.34
  A 0.32 0.32 0.0 0 1 222.24 168.00
  L 222.50 168.00
  A 0.14 0.14 0.0 0 1 222.62 168.07
  L 225.76 173.49
  A 0.98 0.97 -38.8 0 1 225.63 174.64
  Z"
/>
<ellipse fill="#dddddd" cx="0.00" cy="0.00" transform="translate(372.90,178.43) rotate(50.3)" rx="4.09" ry="0.96"/>
</svg>
