<?xml version="1.0" encoding="UTF-8" standalone="no"?>
<!-- Created with Inkscape (http://www.inkscape.org/) -->

<svg
   xmlns:dc="http://purl.org/dc/elements/1.1/"
   xmlns:cc="http://creativecommons.org/ns#"
   xmlns:rdf="http://www.w3.org/1999/02/22-rdf-syntax-ns#"
   xmlns:svg="http://www.w3.org/2000/svg"
   xmlns="http://www.w3.org/2000/svg"
   xmlns:sodipodi="http://sodipodi.sourceforge.net/DTD/sodipodi-0.dtd"
   xmlns:inkscape="http://www.inkscape.org/namespaces/inkscape"
   width="400"
   height="600"
   viewBox="0 0 105.83333 158.75"
   version="1.1"
   id="svg8"
   inkscape:version="0.92.4 (5da689c313, 2019-01-14)"
   sodipodi:docname="31_m.svg">
  <defs
     id="defs2" />
  <sodipodi:namedview
     id="base"
     pagecolor="#ffffff"
     bordercolor="#666666"
     borderopacity="1.0"
     inkscape:pageopacity="0.0"
     inkscape:pageshadow="2"
     inkscape:zoom="1.2816667"
     inkscape:cx="241.96523"
     inkscape:cy="347.3477"
     inkscape:document-units="mm"
     inkscape:current-layer="layer1"
     showgrid="false"
     units="px"
     showguides="true"
     inkscape:guide-bbox="true"
     inkscape:window-width="1280"
     inkscape:window-height="968"
     inkscape:window-x="0"
     inkscape:window-y="0"
     inkscape:window-maximized="1">
    <sodipodi:guide
       position="20.78869,60.476191"
       orientation="1,0"
       id="guide859"
       inkscape:locked="false" />
    <sodipodi:guide
       position="20.78869,128.88988"
       orientation="1,0"
       id="guide863"
       inkscape:locked="false" />
    <sodipodi:guide
       position="12.85119,57.641369"
       orientation="1,0"
       id="guide865"
       inkscape:locked="false" />
    <sodipodi:guide
       position="32.339612,108.51143"
       orientation="0,1"
       id="guide867"
       inkscape:locked="false" />
    <sodipodi:guide
       position="-9.0871638,97.553376"
       orientation="0,1"
       id="guide2596"
       inkscape:locked="false" />
    <sodipodi:guide
       position="-16.036171,64.144687"
       orientation="0,1"
       id="guide2598"
       inkscape:locked="false" />
  </sodipodi:namedview>
  <metadata
     id="metadata5">
    <rdf:RDF>
      <cc:Work
         rdf:about="">
        <dc:format>image/svg+xml</dc:format>
        <dc:type
           rdf:resource="http://purl.org/dc/dcmitype/StillImage" />
        <dc:title></dc:title>
      </cc:Work>
    </rdf:RDF>
  </metadata>
  <g
     inkscape:label="Layer 1"
     inkscape:groupmode="layer"
     id="layer1"
     transform="translate(0,-138.24998)">
    <rect
       style="opacity:1;fill:#ffffff;fill-opacity:0.60101007;stroke:#000000;stroke-width:0.27790931;stroke-miterlimit:4;stroke-dasharray:none;stroke-dashoffset:0;stroke-opacity:1"
       id="rect10"
       width="105.4538"
       height="158.75175"
       x="0.17799145"
       y="138.24911"
       ry="7.9375877" />
    <flowRoot
       xml:space="preserve"
       id="flowRoot851"
       style="fill:black;fill-opacity:1;stroke:none;font-family:sans-serif;font-style:normal;font-weight:normal;font-size:40px;line-height:0;letter-spacing:0px;word-spacing:0px"><flowRegion
         id="flowRegion853"><rect
           id="rect855"
           width="114.28571"
           height="65.714287"
           x="47.142857"
           y="194.28572" /></flowRegion><flowPara
         id="flowPara857" /></flowRoot>    <text
       xml:space="preserve"
       style="font-style:normal;font-weight:normal;font-size:33.90801239px;line-height:0;font-family:sans-serif;letter-spacing:0px;word-spacing:0px;fill:#666666;fill-opacity:1;stroke:none;stroke-width:0.84770024"
       x="16.134531"
       y="174.63515"
       id="text827"><tspan
         sodipodi:role="line"
         id="tspan825"
         x="16.134531"
         y="174.63515"
         style="font-style:normal;font-variant:normal;font-weight:bold;font-stretch:normal;font-family:Arsenal;-inkscape-font-specification:'Arsenal Bold';fill:#666666;stroke-width:0.84770024">31</tspan></text>
    <g
       id="g35121"
       transform="matrix(0.19457627,0,0,0.19457627,6.6364095,179.99421)">
      <g
         id="g34856"
         style="fill:none;stroke-width:2;stroke-linecap:butt">
        <path
           id="path34678"
           d="m 76.06,0 0.11,3.84 a 0.81,0.8 74 0 1 -0.39,0.71 q -6.46,3.96 -13.17,7.5 c -3.83,2.01 -6.94,4.6 -10.38,7.13 a 1.26,1.22 -60 0 1 -0.84,0.24 l -7.54,-0.56 q -1.12,-0.08 -0.07,-0.49 1.5,-0.59 3.13,-0.68 a 0.6,0.6 0 0 0 0.57,-0.61 q -0.03,-1.34 -1.61,-1.81 a 2.64,2.63 -52.5 0 0 -2.17,0.29 q -6.33,3.98 -13.44,3.97 -13,0 -26.01,-0.05 -1.37,0 -3.49,0.79 A 0.75,0.73 -7.2 0 0 0.28,20.88 L 0,23.69"
           inkscape:connector-curvature="0"
           style="vector-effect:non-scaling-stroke;stroke:#d2d2d2" />
        <path
           id="path34680"
           d="m 163.31,0 q -1.42,1.14 -1.87,2.84 a 1.2,1.2 0 0 1 -0.59,0.73 l -9.28,4.85 q -1.71,0.89 0.15,0.38 3.17,-0.86 6.12,-2.49 a 0.77,0.77 0 0 1 0.87,0.08 l 0.8,0.64 a 0.63,0.63 0 0 0 0.79,0.01 l 2.39,-1.84 a 1.06,1.05 34 0 1 0.96,-0.18 q 1.54,0.47 2.31,1.89 a 0.59,0.59 0 0 0 0.75,0.26 l 6.35,-2.64 a 0.66,0.64 59.2 0 1 0.76,0.2 l 0.24,0.31 a 0.34,0.33 48.4 0 1 -0.02,0.45 q -1.32,1.37 -0.39,2.59 a 0.66,0.65 63 0 1 -0.33,1.03 l -5.89,1.81 q -1.4,0.43 -0.08,1.06 2.69,1.25 5.59,0.74 a 0.62,0.6 -13.6 0 1 0.69,0.41 c 0.28,0.83 -1.97,1.98 -2.35,3.12 q -0.14,0.44 0.3,0.3 l 2.47,-0.82 q 1.25,-0.41 0.44,0.63 c -1.26,1.58 -3.63,0.46 -4.09,1.47 a 0.59,0.58 -70.6 0 0 0.38,0.81 l 3.54,0.89 q 0.87,0.22 0.21,0.84 -1,0.93 -2.44,0.57 -0.91,-0.23 -0.59,0.65 l 0.2,0.54 a 0.8,0.79 61.2 0 1 -0.25,0.89 l -4.74,3.71 q -1.71,1.35 0.32,0.56 5.31,-2.07 10.96,-2.08 2.19,0 1.63,2.12 c -1.67,6.37 -2.71,9.33 -9.26,13.21 a 0.24,0.22 -17.7 0 0 -0.11,0.19 v 0.28 a 0.23,0.23 0 0 0 0.23,0.24 h 2.77 a 0.7,0.7 0 0 1 0.67,0.5 q 0.28,0.93 -0.4,1.77 -4.43,5.52 -11.48,4.23"
           inkscape:connector-curvature="0"
           style="vector-effect:non-scaling-stroke;stroke:#d2d2d2" />
        <path
           id="path34682"
           d="m 162.04,47.75 v -9.14 a 0.88,0.88 0 0 0 -0.99,-0.87 c -6.44,0.86 -12.78,4.33 -18.73,6.83 q -2.67,1.12 -14.95,10.82 -3.74,2.96 -6.21,7.39 -0.7,1.27 0.66,0.78 c 0.49,-0.17 1.31,-0.55 1.75,-0.96 q 4.51,-4.28 9.93,-7.35 a 0.32,0.31 -13.9 0 1 0.47,0.28 l -0.01,15.97"
           inkscape:connector-curvature="0"
           style="vector-effect:non-scaling-stroke;stroke:#686868" />
        <path
           id="path34684"
           d="m 133.96,71.5 q -1.32,-0.11 -1.63,1.33 a 1.11,1.11 0 0 1 -0.6,0.75 l -3.96,1.93 q -2.28,1.11 -0.29,2.68 3.05,2.39 6.48,0.56"
           inkscape:connector-curvature="0"
           style="vector-effect:non-scaling-stroke;stroke:#d2d2d2" />
        <path
           id="path34686"
           d="m 133.96,78.75 v 8"
           inkscape:connector-curvature="0"
           style="vector-effect:non-scaling-stroke;stroke:#686868" />
        <path
           id="path34688"
           d="m 133.96,86.75 q -1.51,0.18 -1.93,1.7 a 1.13,1.13 0 0 1 -0.6,0.71 q -1.75,0.86 -2.59,2.65 a 1.22,1.19 -88.5 0 1 -0.65,0.63 c -4.36,1.81 -6.58,-3.06 -8.66,-5.88 q -1.27,-1.72 -3.01,-0.47 l -3.96,2.86 a 1.58,1.52 -61 0 1 -0.97,0.3 l -1.09,-0.04"
           inkscape:connector-curvature="0"
           style="vector-effect:non-scaling-stroke;stroke:#d2d2d2" />
        <path
           id="path34690"
           d="M 110.5,89.21 C 119.75,75.12 120.62,62.36 121.67,44.49 122.95,22.87 106.05,6.16 84.35,10.24 71.97,12.56 61.54,29.56 59.08,40.56 q -4.07,18.28 -3.19,37 c 0.58,12.48 9.36,21.34 20.11,26.9"
           inkscape:connector-curvature="0"
           style="vector-effect:non-scaling-stroke;stroke:#686868" />
        <path
           id="path34692"
           d="m 76,104.46 q -0.85,0.08 -1.03,0.79 a 0.67,0.67 0 0 1 -0.58,0.51 q -7.77,0.89 -14.98,3.95 c -3.83,1.62 -5.5,4.3 -10.64,2.8 q -0.67,-0.2 -0.16,-0.68 0.68,-0.64 1.74,-0.57 a 0.57,0.57 0 0 0 0.61,-0.57 v -0.76 q 0,-1.43 -1.02,-0.42 c -4.16,4.1 -8.5,2.62 -12.75,5.27 a 1.03,1.02 38.8 0 1 -0.89,0.09 c -4.22,-1.54 -11.37,0.31 -15.97,0.62 a 0.98,0.96 -22.1 0 1 -0.82,-0.34 q -0.91,-1.06 -2.07,-0.97 -8.57,0.68 -17.15,1.32"
           inkscape:connector-curvature="0"
           style="vector-effect:non-scaling-stroke;stroke:#d2d2d2" />
        <path
           id="path34694"
           d="M 0.29,115.5 0,114.19"
           inkscape:connector-curvature="0"
           style="vector-effect:non-scaling-stroke;stroke:#e3e3e3" />
        <path
           id="path34696"
           d="m 0,105.94 q 0.63,-2.13 0,-4.25"
           inkscape:connector-curvature="0"
           style="vector-effect:non-scaling-stroke;stroke:#e3e3e3" />
        <path
           id="path34698"
           d="m 22.02,102.66 q 0.98,-1 2.27,-0.32 0.74,0.39 0.56,-0.43 c -0.22,-0.94 -4.5,-0.18 -5.37,0.07 -5.5,1.55 -11.51,1.61 -17.19,2.32 a 0.81,0.81 0 0 0 -0.7,0.65 l -0.19,0.91 a 0.76,0.76 0 0 0 0.65,0.91 l 6.05,0.79 a 0.75,0.74 -71.2 0 0 0.75,-0.37 c 0.39,-0.7 0.88,-0.96 1.74,-0.94 q 8.25,0.22 16.41,1.31 0.46,0.06 0.91,-0.05 l 5.34,-1.38 q 0.6,-0.15 0.13,-0.56 c -2.56,-2.28 -11.57,0.87 -11.6,-2.3 a 0.91,0.89 -24 0 1 0.24,-0.61"
           inkscape:connector-curvature="0"
           style="vector-effect:non-scaling-stroke;stroke:#d2d2d2" />
        <path
           id="path34700"
           d="m 256.56,0 -0.21,2.3 a 0.53,0.53 0 0 0 0.44,0.57 c 5.71,1.02 12.98,3.68 18.5,0.79 a 0.92,0.91 -44.1 0 1 0.87,0.01 c 4.24,2.33 8.82,1.07 13.56,1.91 q 0.51,0.09 0,0.15 -6.73,0.84 -12.22,0.26 -1.02,-0.11 -1.67,0.22 a 0.4,0.4 0 0 0 -0.1,0.64 l 0.42,0.43 q 0.87,0.86 -0.35,0.86 l -10.75,0.04 q -2.27,0.01 -0.88,1.8 c 1.1,1.42 4.45,2.31 4.55,4.64 a 0.77,0.77 0 0 1 -0.6,0.79 l -3.14,0.73 q -0.34,0.07 -0.07,0.3 0.87,0.71 1.84,0.79 c 13.55,1.21 27.35,0.6 41.23,0.29 q 6.7,-0.14 14.52,-1.48 7.17,-1.23 15.3,0.75 0.49,0.12 0.99,0.05 l 2.55,-0.34 a 1.14,1.11 61.5 0 1 0.87,0.27 c 3.43,3.1 14.94,3.43 18.24,0.17 a 1.63,1.63 0 0 1 0.93,-0.45 q 5.62,-0.71 10.55,2.04 0.67,0.37 -0.08,0.52 -2.16,0.43 -4.29,-0.59 a 0.9,0.9 0 0 0 -0.94,0.1 l -1.9,1.5 q -1.98,1.57 0.43,2.32 7.61,2.38 14.68,5.92 c 4.91,2.45 8.98,6.53 14.98,7.11 a 0.32,0.31 17.6 0 1 0.25,0.47 c -2.46,4.46 3.72,9.59 6.34,12.77 a 0.98,0.95 -58 0 1 0.19,0.87 c -0.98,3.69 4.19,14.02 5.16,15.46 q 1.24,1.82 5.81,3.88 a 0.66,0.65 -58.3 0 0 0.78,-0.19 c 4.4,-5.5 4.51,-15.82 2.93,-21.93 q -0.13,-0.51 0.28,-0.9 0.4,-0.39 0.48,0.16 0.76,5.26 1.59,10.51 c 0.91,5.74 3.84,10.85 6.15,16 q 0.99,2.21 1.89,-0.04 1.69,-4.21 2.08,-8.75 a 1.57,1.49 -26.5 0 1 0.29,-0.79 l 0.99,-1.4 q 0.47,-0.67 0.66,0.13 c 0.73,2.99 1.33,5.74 4.09,6.9 a 0.46,0.45 18.3 0 0 0.61,-0.3 c 0.75,-2.78 0.69,-5.4 1.48,-8.28 q 0.85,-3.11 0.66,-6.44 a 0.58,0.57 5.5 0 1 0.72,-0.59 l 1.72,0.47 a 0.91,0.91 0 0 1 0.63,0.6 c 0.73,2.28 4,12.23 5.65,11.75 a 0.56,0.55 -14.7 0 0 0.38,-0.65 q -1.08,-4.57 0.52,-8.98 0.37,-1 0.64,0.03 l 0.89,3.45 a 0.71,0.71 0 0 0 0.57,0.53 q 0.39,0.07 0.76,-0.09"
           inkscape:connector-curvature="0"
           style="vector-effect:non-scaling-stroke;stroke:#d2d2d2" />
        <path
           id="path34702"
           d="m 450,116.31 -0.51,0.95 q -0.19,0.35 -0.34,-0.01 -0.74,-1.64 -2.44,-0.73 -0.92,0.48 -0.7,-0.53 l 0.35,-1.65 a 0.81,0.8 -63.8 0 0 -0.26,-0.78 l -1.41,-1.26 a 0.57,0.57 0 0 0 -0.79,0.04 q -2.45,2.68 -0.84,5.77 a 1.51,1.47 -52.9 0 1 0.13,1.04 q -0.62,2.64 0,5.22 a 0.85,0.84 62.4 0 1 -0.25,0.81 c -2.78,2.63 0.94,4.44 -0.4,7.78 a 1.11,1.11 0 0 0 0.04,0.92 q 1.41,2.85 -0.43,5.59 -0.19,0.27 -0.29,-0.04 c -0.82,-2.34 -2.6,-2.13 -3.61,-3.82 a 0.69,0.68 -22.6 0 0 -0.75,-0.3 c -2.44,0.65 -0.92,5.34 -0.08,6.74 a 0.82,0.8 -34.5 0 1 -0.2,1.04 q -3.02,2.4 -6.25,4.42 c -2.52,1.58 -5.28,0.87 -6.9,4.42 a 1.03,1.03 0 0 0 -0.05,0.72 l 0.53,1.91 q 0.27,1 -0.67,0.55 c -4.9,-2.31 -9.98,-7.2 -13.83,-11.05 -1.15,-1.14 -10.8,-10.18 -11.76,-9.48 a 0.44,0.44 0 0 0 -0.05,0.67 q 7.74,7.62 14.9,15.78 c 1.83,2.08 9.76,8.2 9.44,10.8 q -0.18,1.55 -1.66,2.64 a 1.78,1.77 60 0 0 -0.57,2.15 l 1.23,2.77 q 0.35,0.78 -0.48,0.55 -3.48,-0.94 -5.41,-3.81 a 1.17,1.16 -52.5 0 1 -0.13,-1.03 c 0.76,-2.2 3.02,-5.22 0.2,-7.01 a 0.56,0.56 0 0 0 -0.86,0.43 l -0.23,2.69 a 1.79,1.78 67.3 0 1 -0.39,0.96 q -2.55,3.2 -2.29,7.37 a 0.65,0.64 -6.3 0 1 -0.55,0.68 l -1.88,0.27 q -0.7,0.1 -0.25,0.65 c 1.25,1.51 3.47,4.32 1.29,5.7 a 1.1,1.09 -32.5 0 0 -0.34,1.52 l 2.06,3.18 q 0.45,0.71 -0.39,0.71 h -3 a 0.69,0.69 0 0 0 -0.68,0.57 l -0.43,2.48 a 0.66,0.66 0 0 1 -0.74,0.54 l -0.34,-0.05 a 0.86,0.86 0 0 1 -0.69,-0.55 l -1.43,-3.92 a 0.39,0.39 0 0 0 -0.65,-0.14 c -1.69,1.76 0.27,4.23 -0.75,5.06 a 0.55,0.55 0 0 1 -0.76,-0.07 c -1.96,-2.22 -3.63,-8.76 -3.65,-11.69 q 0,-0.5 -0.29,-0.09 -1.19,1.67 -1.55,3.65 c -0.47,2.61 -1.49,4.17 -2.07,6.49 a 0.86,0.86 0 0 1 -1.29,0.52 l -3.36,-2.09"
           inkscape:connector-curvature="0"
           style="vector-effect:non-scaling-stroke;stroke:#eeeeee" />
        <path
           id="path34704"
           d="m 390.25,182.96 0.61,-1.39 q 0.31,-0.72 -0.42,-0.43 l -3.94,1.57"
           inkscape:connector-curvature="0"
           style="vector-effect:non-scaling-stroke;stroke:#737373" />
        <path
           id="path34706"
           d="m 386.5,182.71 q -1.45,-0.82 -2.96,-1.41 c -4.16,-1.61 -9.09,-6.71 -12.31,-9.86 a 1.91,1.91 0 0 1 -0.38,-2.22 q 1.66,-3.36 -1.1,-7.01"
           inkscape:connector-curvature="0"
           style="vector-effect:non-scaling-stroke;stroke:#eeeeee" />
        <path
           id="path34708"
           d="m 369.75,162.21 q 6.5,-2.85 9.14,-9.45 a 0.3,0.3 0 0 0 -0.31,-0.41 c -5.72,0.69 -17.64,1.7 -21.16,6.73 q -1.15,1.64 -1.46,-0.34 -1.16,-7.4 -0.96,-14.88 0.04,-1.76 1.58,-2.63 11.18,-6.26 23.99,-7.39 a 0.58,0.58 0 0 1 0.58,0.83 l -3.13,6.73 a 0.5,0.5 0 0 0 0.22,0.65 q 0.36,0.18 0.73,-0.06 c 4.6,-2.99 11.81,-10.63 11.75,-16.75 a 1.4,1.39 -3.7 0 0 -1.56,-1.36 q -19.18,2.3 -33.41,13.89 c -8.67,7.05 -14.32,12.73 -14.54,24.98"
           inkscape:connector-curvature="0"
           style="vector-effect:non-scaling-stroke;stroke:#737373" />
        <path
           id="path34710"
           d="m 341.21,162.75 -6.4,-0.66"
           inkscape:connector-curvature="0"
           style="vector-effect:non-scaling-stroke;stroke:#eeeeee" />
        <path
           id="path34712"
           d="m 334.81,162.09 q -0.34,-5.45 0.36,-11.32 a 1.49,1.48 70.6 0 1 0.41,-0.86 q 7.55,-7.86 7.35,-17.81 c -0.07,-3.58 -3.25,-3.52 -5.61,-1.99 -8.09,5.25 -10.2,13.24 -11.62,22.59 a 0.58,0.57 -86.9 0 1 -0.54,0.49 l -12.63,0.58 a 0.5,0.49 -1.1 0 1 -0.52,-0.49 l -0.03,-24.1 q 0,-1.76 -1.5,-0.84 c -3.82,2.36 -8.48,5.91 -8.48,11.16 q 0.01,8.22 -0.01,16.49 c -0.02,5.38 -3,8.43 -8.33,8.77 a 0.49,0.49 0 0 1 -0.52,-0.48 q -0.22,-8.67 -0.02,-25.1 0.05,-4.16 1.74,-7.18 a 0.54,0.54 0 0 0 -0.37,-0.79 l -0.71,-0.14 a 1.03,1.02 -12.1 0 1 -0.61,-0.39 c -1.69,-2.36 -6.34,3.02 -7.52,4.71 q -3.52,5.01 -7.86,9.36"
           inkscape:connector-curvature="0"
           style="vector-effect:non-scaling-stroke;stroke:#737373" />
        <path
           id="path34714"
           d="m 277.79,144.75 q -1.02,-1.21 -1.44,-2.77 a 1.36,1.36 0 0 0 -0.52,-0.77 c -2.1,-1.52 -4.07,-2.64 -5.74,-4.69 -2.96,-3.63 -5.95,-9.32 -11.61,-8.28 a 1.93,1.9 50 0 1 -0.96,-0.09 q -3.2,-1.17 -6.57,-1.11 c -2.58,0.05 -5.56,1.58 -8.77,1.33 -3.05,-0.24 -4.09,0.26 -6.63,1.31 -3.66,1.5 -6.83,1.72 -10.51,2.32"
           inkscape:connector-curvature="0"
           style="vector-effect:non-scaling-stroke;stroke:#eeeeee" />
        <path
           id="path34716"
           d="m 225.04,132 v -26.74 a 1.27,1.27 0 0 1 1.52,-1.24 q 4.85,1.01 9.64,-2.03 C 253.31,91.16 251.4,75.4 250.79,55.12 a 0.81,0.8 -9.5 0 1 0.57,-0.79 l 8.01,-2.44 q 1.99,-0.61 1.92,1.47 -0.44,12.21 -3.3,24.03 -0.91,3.76 -2.55,6.24 c -3.58,5.41 -7.67,8.31 -7.61,15.86 0.04,5.23 2.77,8.21 8.08,8.72 11.65,1.12 20.34,-4.74 27.92,-13.65 5.9,-6.94 5.85,-15.38 3.74,-23.72 q -0.67,-2.63 -3.38,-2.53 c -7.63,0.31 -10.49,4.16 -16.75,7.26 q -0.46,0.23 -0.09,-0.13 c 9.74,-9.39 16.93,-15.78 26.45,-22.09 q 1.64,-1.08 1.26,0.85 -4.47,22.29 -4.48,44.96 c 0,2.54 -0.29,4.84 0.47,7.48 a 0.74,0.74 0 0 0 1.18,0.37 q 4.59,-3.75 8.4,-8.31 a 1.4,1.39 63.6 0 0 0.32,-0.97 q -1.14,-26.62 4.24,-52.7 0.47,-2.28 -1.82,-2.23 -0.45,0.01 -2.16,1.13 -16.85,10.98 -31.68,25.88 a 1.01,1.01 0 0 1 -1.59,-0.21 q -0.08,-0.15 0.17,-1.07 3.56,-12.87 2.99,-25.61 a 1.32,1.32 0 0 0 -1.58,-1.23 q -10.45,2.12 -19.19,8.24 a 0.52,0.52 0 0 1 -0.77,-0.21 l -2.27,-4.84 q -0.96,-2.03 -3.2,-1.86 -8.07,0.65 -14.37,5.58 -0.6,0.47 -0.66,-0.29 l -0.23,-2.65 a 0.55,0.54 74.9 0 0 -0.77,-0.45 q -7.94,3.66 -9.98,12.57 -0.45,2 -2.61,3 -0.46,0.22 -0.41,-0.29 C 216.31,47.84 200,44.72 190.71,45 c -11.63,0.34 -22.29,17.74 -24.81,27.31 -1.39,5.26 -1.53,12.06 -2.14,18.01 q -0.31,3.1 -3.28,2.61 -2.38,-0.39 -2.31,-2.8 c 0.46,-14.33 3.02,-28.15 3.87,-42.38"
           inkscape:connector-curvature="0"
           style="vector-effect:non-scaling-stroke;stroke:#737373" />
        <path
           id="path34718"
           d="m 418.7001,99.9731 a 2.37,0.53 36.3 0 0 -1.5963,-1.8302 2.37,0.53 36.3 0 0 -2.2239,-0.976 2.37,0.53 36.3 0 0 1.5963,1.8302 2.37,0.53 36.3 0 0 2.2239,0.976"
           inkscape:connector-curvature="0"
           style="vector-effect:non-scaling-stroke;stroke:#eeeeee" />
        <path
           id="path34720"
           d="m 448.46,16.59 q 0.34,-1.67 -0.44,-3 a 1.31,1.3 -5.2 0 0 -0.69,-0.57 q -7.07,-2.49 -12.96,-7.04 c -0.38,-0.3 -1.13,-0.35 -1.5,-0.12 a 0.57,0.56 59.6 0 0 -0.19,0.75 c 1.07,1.92 1.78,3.61 3.81,4.78 q 5.13,2.96 10.25,5.97 a 1.16,1.16 0 0 0 1.72,-0.77"
           inkscape:connector-curvature="0"
           style="vector-effect:non-scaling-stroke;stroke:#d2d2d2" />
        <path
           id="path34722"
           d="m 349.31,10.58 8.25,1.98 a 1.83,1.78 -47.5 0 0 1.05,-0.06 c 2.57,-0.94 4.29,0.38 6.3,0.68 q 3.62,0.55 7.39,0.51 0.64,-0.01 0.24,-0.51 -3.77,-4.73 -9.27,-1.86 a 1.51,1.47 -55.3 0 1 -0.82,0.16 c -4.01,-0.33 -8.5,-1.8 -12.6,-1.72 a 0.56,0.54 22 0 0 -0.39,0.16 l -0.26,0.25 q -0.31,0.3 0.11,0.41"
           inkscape:connector-curvature="0"
           style="vector-effect:non-scaling-stroke;stroke:#d2d2d2" />
        <path
           id="path34724"
           d="m 350.83,12.86 q -4.23,-1.71 -8.79,-0.71 -0.35,0.07 -0.01,0.17 l 8.6,2.35 a 0.5,0.48 -82.1 0 0 0.62,-0.48 l -0.01,-0.72 a 0.66,0.66 0 0 0 -0.41,-0.61"
           inkscape:connector-curvature="0"
           style="vector-effect:non-scaling-stroke;stroke:#d2d2d2" />
        <path
           id="path34726"
           d="m 385.51,23.91 4.09,2.04 a 0.68,0.67 -67.6 0 0 0.94,-0.4 l 0.22,-0.64 a 0.74,0.73 21.9 0 0 -0.39,-0.9 q -2.2,-1.02 -4.7,-0.88 -1.54,0.09 -0.16,0.78"
           inkscape:connector-curvature="0"
           style="vector-effect:non-scaling-stroke;stroke:#d2d2d2" />
        <path
           id="path34728"
           d="m 409.2,39.76 0.61,2.29 a 0.6,0.59 -18.6 0 0 0.81,0.4 c 1.1,-0.48 -0.55,-2.22 -0.86,-2.79 q -1.17,-2.22 -0.56,0.1"
           inkscape:connector-curvature="0"
           style="vector-effect:non-scaling-stroke;stroke:#d2d2d2" />
        <path
           id="path34730"
           d="M 110.5,89.21 C 104.61,96.72 98.96,100.54 93,106.46"
           inkscape:connector-curvature="0"
           style="vector-effect:non-scaling-stroke;stroke:#737373" />
        <path
           id="path34732"
           d="m 93,106.46 -2.75,0.83"
           inkscape:connector-curvature="0"
           style="vector-effect:non-scaling-stroke;stroke:#848484" />
        <path
           id="path34734"
           d="M 90.25,107.29 Q 82.78,107.51 76,104.46"
           inkscape:connector-curvature="0"
           style="vector-effect:non-scaling-stroke;stroke:#737373" />
        <path
           id="path34736"
           d="m 76.8,83.31 c 5.58,7.03 14.32,11.77 23.59,11.22 q 2.12,-0.12 3.08,-2.01 6.14,-12.07 7.33,-25.51 1.26,-14.16 0.63,-20.95 C 110.08,31.41 97.07,19.88 82.18,19.71 a 2.33,2.32 10.5 0 0 -2.19,1.5 q -8.14,21.63 -8.27,45.3 c -0.04,6.86 1.03,11.72 5.08,16.8"
           inkscape:connector-curvature="0"
           style="vector-effect:non-scaling-stroke;stroke:#686868" />
        <path
           id="path34738"
           d="m 74.886,20.4645 a 0.26,0.26 0 0 0 -0.11,-0.3509 l -0.2127,-0.1112 a 0.26,0.26 0 0 0 -0.3508,0.11 l -4.0585,7.7631 a 0.26,0.26 0 0 0 0.11,0.3509 l 0.2127,0.1112 a 0.26,0.26 0 0 0 0.3508,-0.11 l 4.0585,-7.7631"
           inkscape:connector-curvature="0"
           style="vector-effect:non-scaling-stroke;stroke:#737373" />
        <path
           id="path34740"
           d="m 225.04,132 v 4.75"
           inkscape:connector-curvature="0"
           style="vector-effect:non-scaling-stroke;stroke:#848484" />
        <path
           id="path34742"
           d="m 225.04,136.75 q -0.33,1.99 0.46,3.79"
           inkscape:connector-curvature="0"
           style="vector-effect:non-scaling-stroke;stroke:#737373" />
        <path
           id="path34744"
           d="m 225.5,140.54 8.57,20.95 q 0.19,0.48 0.47,0.04 5.98,-9.51 12.83,-18.42 c 2.65,-3.45 4.94,-6.9 8.8,-8.76 q 2.07,-1 1.79,1.29 c -1.86,14.98 -4.02,30.55 -3.94,45.53 a 0.33,0.32 -6.5 0 0 0.4,0.31 q 0.2,-0.05 0.28,-0.29 1.68,-5.45 4.12,-9.57 8.39,-14.22 18.97,-26.87"
           inkscape:connector-curvature="0"
           style="vector-effect:non-scaling-stroke;stroke:#848484" />
        <path
           id="path34746"
           d="m 334.81,162.09 c 0.2,7.04 -0.07,11.77 3.92,16.34 q 0.95,1.09 1.08,-0.35 l 1.4,-15.33"
           inkscape:connector-curvature="0"
           style="vector-effect:non-scaling-stroke;stroke:#848484" />
        <path
           id="path34748"
           d="m 369.75,162.21 -11.05,1.85 a 1.01,1 79.8 0 0 -0.81,1.18 c 1.23,6.52 2.85,15.71 -1.56,21.33 q -0.31,0.39 0.19,0.42 c 10.3,0.59 21.18,0.75 29.98,-4.28"
           inkscape:connector-curvature="0"
           style="vector-effect:non-scaling-stroke;stroke:#848484" />
        <path
           id="path34750"
           d="m 390.25,182.96 q -10.24,12.15 -26.27,13.85 c -4.25,0.45 -22.71,1.35 -25.2,-2.25 q -1.5,-2.15 0.36,-4 l 6.41,-6.38 a 1.64,1.63 74.6 0 0 0.43,-0.76 l 0.23,-0.92 a 0.21,0.2 6.7 0 0 -0.2,-0.25 h -0.28 a 0.51,0.48 22.2 0 0 -0.34,0.13 l -6.73,6.21 q -1.53,1.41 -3.6,1.32 -6.61,-0.28 -9.1,-6.91"
           inkscape:connector-curvature="0"
           style="vector-effect:non-scaling-stroke;stroke:#848484" />
        <path
           id="path34752"
           d="m 325.96,183 c -1.75,-7.41 -0.81,-15.7 -1.11,-23.35 a 0.37,0.37 0 0 0 -0.56,-0.3 q -5.4,3.15 -11.59,3.96 a 0.67,0.67 0 0 0 -0.59,0.65 l -0.07,4.04"
           inkscape:connector-curvature="0"
           style="vector-effect:non-scaling-stroke;stroke:#737373" />
        <path
           id="path34754"
           d="m 312.04,168 -0.03,23.33 a 2.21,2.19 -25 0 1 -0.53,1.43 q -3.83,4.41 -8.42,8.03 -1.04,0.83 -1.05,-0.51 l -0.02,-8.91 q -0.01,-0.78 -0.44,-0.13 -2.61,3.89 -6.76,6.34 -2.75,1.62 -4.81,-0.8 c -5.06,-5.96 -6.14,-12.7 -6.97,-20.03 a 0.75,0.75 0 0 0 -0.85,-0.66 l -17.38,2.54 a 0.72,0.72 0 0 0 -0.62,0.65 l -0.21,2.06 a 0.61,0.61 0 0 0 0.63,0.67 l 2.74,-0.04 q 3.42,-0.06 1,2.37 -7.49,7.52 -15.93,13.52 c -6.47,4.6 -8.65,-4.82 -8.5,-8.87 q 0.63,-17.8 3.08,-35.66 0.56,-4.14 -1.77,-0.67 l -8.23,12.25 a 0.64,0.64 0 0 0 0.2,0.91 l 3.35,2.02 a 0.51,0.49 -62.1 0 1 0.19,0.65 q -3.18,6.49 -10.85,9.68 -3.2,1.33 -6.64,5.12 a 0.86,0.86 0 0 0 -0.15,0.89 l 1.41,3.37 q 0.82,1.97 -0.52,3.63 -3.34,4.17 -8.02,6.74 a 1.3,1.29 68.6 0 1 -1.88,-0.83 q -1.33,-5.38 -1.58,-10.84 -0.67,-14.62 -0.45,-29.25 0.04,-2.81 2.94,-5.7 a 0.73,0.73 0 0 0 0.11,-0.89 l -1.39,-2.38 a 1.07,1.06 42.4 0 1 -0.05,-0.98 q 1.12,-2.44 0.9,-5.05"
           inkscape:connector-curvature="0"
           style="vector-effect:non-scaling-stroke;stroke:#848484" />
        <path
           id="path34756"
           d="m 214.54,142 c 0.64,-24.6 1.35,-48.83 3.54,-73.49 q 0.22,-2.44 -1.51,-0.71 l -1.66,1.66 q -0.32,0.32 -0.44,0.76 -4.87,18.06 -19.42,29.81 -5.12,4.13 -10.27,8.25 c -6.02,4.83 -14.63,-1.07 -17.72,-6.59 q -0.86,-1.53 -2.38,-5.2 a 0.36,0.36 0 0 0 -0.57,-0.13 c -4.29,3.9 -16.74,13.5 -15.95,-0.73 q 0.95,-17.26 3.43,-34.41 0.15,-1.07 0.16,-2.18"
           inkscape:connector-curvature="0"
           style="vector-effect:non-scaling-stroke;stroke:#737373" />
        <path
           id="path34758"
           d="m 151.75,59.04 q 1.03,-5.44 0.07,-10.92 a 0.58,0.57 75.2 0 0 -0.76,-0.45 l -6.45,2.27 a 0.88,0.87 80.7 0 0 -0.59,0.83 l 0.02,12.98"
           inkscape:connector-curvature="0"
           style="vector-effect:non-scaling-stroke;stroke:#686868" />
        <path
           id="path34760"
           d="m 144.04,63.75 0.08,33.51 a 1.2,1.18 -67.7 0 0 0.32,0.79 l 1.28,1.36 a 0.83,0.82 40.1 0 1 0.09,1.03 q -3.83,5.69 -9.56,9.47 a 0.52,0.52 0 0 1 -0.73,-0.15 c -2.81,-4.43 -1.53,-17.46 -1.56,-23.01"
           inkscape:connector-curvature="0"
           style="vector-effect:non-scaling-stroke;stroke:#737373" />
        <path
           id="path34762"
           d="M 133.96,78.75 V 71.5"
           inkscape:connector-curvature="0"
           style="vector-effect:non-scaling-stroke;stroke:#737373" />
        <path
           id="path34764"
           d="m 238.62,57.03 c -1.73,-4.83 -5.83,-4.8 -9.65,-2.53 a 1.13,1.12 -11.8 0 0 -0.54,0.82 q -0.69,5.29 -0.38,10.63 0.03,0.5 -0.15,0.96 -0.49,1.23 -0.45,2.59 0.02,0.55 0.41,0.16 l 10.22,-10.21 a 2.31,2.31 0 0 0 0.54,-2.42"
           inkscape:connector-curvature="0"
           style="vector-effect:non-scaling-stroke;stroke:#737373" />
        <path
           id="path34766"
           d="m 178.7,68.34 q 0.49,7.51 0.32,15.11 c -0.19,8.29 3.48,13.55 12.58,13.5 q 2.48,-0.01 4.35,-1.63 c 6.6,-5.71 12.29,-24.2 7.95,-31.98 -3.97,-7.14 -16.34,-8.86 -23.5,-8.39 a 1.52,1.5 12.5 0 0 -1.24,0.78 q -3.51,6.34 -4.19,13.59 -0.08,0.77 0.56,0.33 l 2.43,-1.67 q 0.69,-0.47 0.74,0.36"
           inkscape:connector-curvature="0"
           style="vector-effect:non-scaling-stroke;stroke:#737373" />
        <path
           id="path34768"
           d="m 228.67,87.93 c 1.12,4.36 5.67,7.17 10.23,5.89 a 1.62,1.61 -4.2 0 0 1.16,-1.34 c 1.21,-9.3 1.89,-20.76 -0.03,-29.99 a 0.33,0.32 -24.1 0 0 -0.51,-0.19 c -9.17,6.81 -13.94,13.65 -10.85,25.63"
           inkscape:connector-curvature="0"
           style="vector-effect:non-scaling-stroke;stroke:#737373" />
        <path
           id="path34770"
           d="m 268.79,80.13 -0.95,17.08 a 0.71,0.71 0 0 0 0.62,0.74 q 4.15,0.46 7.97,-1.11 a 1.55,1.5 3.7 0 0 0.69,-0.59 c 2.7,-4.37 1.67,-11.7 0.33,-16.08 q -0.73,-2.35 -3.15,-1.9 l -4.62,0.85 a 1.1,1.09 -3.7 0 0 -0.89,1.01"
           inkscape:connector-curvature="0"
           style="vector-effect:non-scaling-stroke;stroke:#737373" />
        <path
           id="path34772"
           d="M 281.48,145.23 Q 273,156.41 266,168.58 q -0.37,0.65 0.37,0.59 l 16.07,-1.25 a 0.6,0.6 0 0 0 0.56,-0.6 v -21.58 q 0,-2.53 -1.52,-0.51"
           inkscape:connector-curvature="0"
           style="vector-effect:non-scaling-stroke;stroke:#848484" />
        <path
           id="path34774"
           d="m 299.52,186.9 q 2.48,3.14 2.48,-0.87 v -18.26 q 0,-0.65 -0.55,-0.3 l -7.31,4.69 a 0.78,0.77 70.5 0 0 -0.35,0.75 q 0.88,7.86 5.73,13.99"
           inkscape:connector-curvature="0"
           style="vector-effect:non-scaling-stroke;stroke:#848484" />
        <path
           id="path34776"
           d="m 225.63,174.64 a 0.98,0.97 -38.8 0 0 0.13,-1.15 l -3.14,-5.42 A 0.14,0.14 0 0 0 222.5,168 h -0.26 a 0.32,0.32 0 0 0 -0.33,0.34 l 0.47,8.01 q 0.11,1.77 1.3,0.45 l 1.95,-2.16"
           inkscape:connector-curvature="0"
           style="vector-effect:non-scaling-stroke;stroke:#848484" />
        <path
           id="path34778"
           d="m 151.75,59.04 -1.57,0.3 a 1.44,1.41 -75.4 0 0 -0.8,0.48 q -2.2,2.6 -5.34,3.93"
           inkscape:connector-curvature="0"
           style="vector-effect:non-scaling-stroke;stroke:#d2d2d2" />
        <path
           id="path34780"
           d="m 214.54,142 c 0.2,-0.84 -0.11,-1.11 -0.9,-0.91 q -4.24,1.09 -8.6,0.91"
           inkscape:connector-curvature="0"
           style="vector-effect:non-scaling-stroke;stroke:#eeeeee" />
        <path
           id="path34782"
           d="M 205.04,142 205,132.93 a 0.93,0.93 0 0 0 -1.31,-0.84 c -4.59,2.1 -8.16,6.23 -8.71,11.5 q -0.72,7 -1.98,13.95"
           inkscape:connector-curvature="0"
           style="vector-effect:non-scaling-stroke;stroke:#737373" />
        <path
           id="path34784"
           d="m 193,157.54 -8.71,0.96"
           inkscape:connector-curvature="0"
           style="vector-effect:non-scaling-stroke;stroke:#eeeeee" />
        <path
           id="path34786"
           d="m 184.29,158.5 q 1.19,-15.18 4.82,-30.47 0.44,-1.83 -1.41,-2.2 -1.3,-0.25 -3.89,0.04 c -15.08,1.71 -27.69,6.69 -43.1,13.29 -5.27,2.25 -15.99,8.28 -17.72,14.43 q -0.16,0.56 0.36,0.28 14.48,-7.75 30.08,-12.98 a 0.38,0.38 0 0 1 0.5,0.36 l 0.03,23.25"
           inkscape:connector-curvature="0"
           style="vector-effect:non-scaling-stroke;stroke:#737373" />
        <path
           id="path34788"
           d="m 153.96,164.5 q -8.01,2.18 -15.95,4.58 c -1.72,0.52 -3.59,-0.16 -5.41,0.12 q -9.29,1.47 -18.62,-0.31"
           inkscape:connector-curvature="0"
           style="vector-effect:non-scaling-stroke;stroke:#eeeeee" />
        <path
           id="path34790"
           d="m 113.98,168.89 c -0.89,-8.9 -1.14,-18.1 -13.89,-15.12 q -1.9,0.45 -0.93,-1.24 c 4.91,-8.52 8.2,-17.14 5.66,-27.12 a 0.64,0.63 81.7 0 0 -0.62,-0.47 q -5.13,0.08 -9.95,2.02"
           inkscape:connector-curvature="0"
           style="vector-effect:non-scaling-stroke;stroke:#737373" />
        <path
           id="path34792"
           d="m 94.25,126.96 q -0.64,-1.34 -1.98,-0.88 a 1.76,1.75 -47.2 0 1 -0.97,0.04 l -3.19,-0.8 a 0.73,0.73 0 0 0 -0.83,0.38 l -0.29,0.6 a 0.81,0.8 -52.2 0 0 0.11,0.9 q 0.99,1.15 2.4,1.84"
           inkscape:connector-curvature="0"
           style="vector-effect:non-scaling-stroke;stroke:#eeeeee" />
        <path
           id="path34794"
           d="m 89.5,129.04 c -4.11,1.94 -12.68,7.19 -13.37,12.12 q -0.1,0.67 0.48,0.3 1.72,-1.12 3.56,-2.05 2.29,-1.16 0.14,0.27 c -3.85,2.55 -5.34,5.45 -5.32,10.32 q 0.05,8.01 -0.03,16"
           inkscape:connector-curvature="0"
           style="vector-effect:non-scaling-stroke;stroke:#737373" />
        <path
           id="path34796"
           d="m 74.96,166 -3.49,-1.37 a 0.54,0.53 26 0 0 -0.66,0.22 q -1.29,2.12 -3.89,2.45 a 0.75,0.74 86.9 0 0 -0.65,0.73 l -0.03,3.02 a 0.49,0.48 1.1 0 1 -0.51,0.48 q -4.02,-0.19 -4.04,3.7 a 0.97,0.96 -6.4 0 1 -0.76,0.94 q -7.57,1.68 -15.3,0.64 -0.62,-0.08 -1.25,-0.07 c -3.23,0.07 -4.5,-0.02 -7.01,-2.31 q -6.74,-6.12 -13.78,-11.92 c -1.29,-1.07 -1.61,-2.56 -2.49,-3.95 a 0.62,0.61 60.7 0 0 -0.8,-0.23 l -0.96,0.46 a 0.54,0.54 0 0 0 -0.13,0.88 c 2.13,1.98 14.45,14.04 14.2,15.38 q -0.1,0.58 -0.5,0.15 C 27.54,169.51 21.38,165.01 15.38,160.08 a 0.46,0.46 0 0 0 -0.61,0.02 l -0.25,0.24 a 0.52,0.52 0 0 0 0,0.75 q 1.18,1.14 1.15,2.63 a 0.86,0.86 0 0 1 -0.45,0.74 q -1.8,1.01 -2.41,2.97 a 0.76,0.74 25.2 0 0 0.31,0.84 q 1.55,1.01 3.44,0.67 a 1.03,1.02 67.3 0 1 1.03,0.43 l 2.15,3.13 a 0.51,0.5 -22.9 0 1 -0.32,0.78 c -5.54,1.03 -9.93,-0.15 -15.34,-0.69 -2.67,-0.27 -4.75,-3.03 -3.41,-5.77 a 1.28,1.27 48.9 0 0 0.06,-0.97 l -0.55,-1.63 a 0.76,0.76 0 0 1 0.5,-0.96 l 1.14,-0.36 a 0.37,0.36 -19.6 0 0 0.23,-0.48 c -0.59,-1.48 -2.26,-1.43 -1.71,-3.77 a 0.67,0.67 0 0 1 0.71,-0.52 q 2.1,0.19 3.97,-1.02 a 1.32,1.32 0 0 1 1.05,-0.16 l 7.13,1.87 a 0.23,0.23 0 0 0 0.29,-0.27 l -0.29,-1.52 a 0.49,0.49 0 0 1 0.54,-0.58 l 2.23,0.28 a 0.62,0.62 0 0 0 0.68,-0.44 c 0.11,-0.4 -8.56,-8.79 -10.5,-11 q -2.79,-3.19 -6.19,-5.81"
           inkscape:connector-curvature="0"
           style="vector-effect:non-scaling-stroke;stroke:#eeeeee" />
        <path
           id="path34798"
           d="m 0,137.44 q 13.93,-1.29 18.44,-1.34 1.57,-0.02 2.41,-0.42 a 1.52,1.49 -53.1 0 1 0.92,-0.14 c 2.14,0.35 2.51,-1.24 3.76,-1.93 q 1.61,-0.88 3.5,-1.15 a 1.05,1.04 -28.1 0 1 0.87,0.26 c 1.28,1.17 3.72,4.5 5.04,5.06 a 1.07,1.07 0 0 0 0.92,-0.04 c 2.21,-1.19 4.87,-4.51 7.44,-3 q 0.41,0.25 0.88,0.38 l 5.1,1.4 q 1.86,0.51 1.08,-1.25 l -0.83,-1.88 a 0.57,0.57 0 0 0 -0.7,-0.31 q -4.94,1.63 -9.35,-0.87 a 0.59,0.59 0 0 1 -0.25,-0.74 l 0.52,-1.27 a 0.84,0.83 -77.9 0 1 0.8,-0.52 l 8.59,0.28 a 0.72,0.72 0 0 1 0.7,0.63 c 1.08,8.03 7.51,3.83 12.16,5.73 q 0.53,0.22 0.45,-0.35 -0.49,-3.22 -3.3,-5.01 -1.04,-0.68 0.17,-0.93 l 3.86,-0.82 q 1.52,-0.32 0.18,-1.11 -2.76,-1.62 -5.77,-0.25 a 0.89,0.87 -41.5 0 1 -0.81,-0.04 q -5.99,-3.66 -10.63,-8.97 -0.65,-0.74 -2.99,-2.03 a 0.58,0.58 0 0 0 -0.7,0.12 l -1.03,1.11 a 0.74,0.74 0 0 1 -0.83,0.18 l -3.02,-1.27 q -0.74,-0.31 -0.62,0.49 l 0.71,4.52 q 0.33,2.12 -1.8,2.37 l -21.79,2.57 a 0.49,0.49 0 0 1 -0.54,-0.51 c 0.04,-0.9 16.57,-3.69 17.56,-3.92 a 0.5,0.49 76.5 0 0 0.37,-0.61 l -0.54,-2.02 a 0.57,0.56 76.5 0 0 -0.66,-0.41 q -6.21,1.3 -11.51,0.55 -3.79,-0.54 -4.35,2.6 a 0.81,0.81 0 0 1 -0.68,0.65 q -3.38,0.48 -6.57,-0.84 a 1.19,1.17 -0.5 0 1 -0.62,-0.6 q -1.5,-3.46 -5.3,-4.05 a 1.06,1.04 -7.2 0 1 -0.8,-0.61 Q 0.06,116.25 0.29,115.5"
           inkscape:connector-curvature="0"
           style="vector-effect:non-scaling-stroke;stroke:#eeeeee" />
        <path
           id="path34800"
           d="m 90.25,107.29 q -1.89,0.7 -2,2.97 -0.16,3.09 2.88,2.52 2.01,-0.37 3.94,0.37 a 0.84,0.83 35.7 0 0 0.82,-0.13 q 1.53,-1.22 0.61,-2.98"
           inkscape:connector-curvature="0"
           style="vector-effect:non-scaling-stroke;stroke:#eeeeee" />
        <path
           id="path34802"
           d="m 96.5,110.04 2.61,0.2 a 0.8,0.79 11.7 0 0 0.82,-0.53 l 1.06,-3.06 q 0.5,-1.45 -0.86,-0.72 l -4.88,2.61"
           inkscape:connector-curvature="0"
           style="vector-effect:non-scaling-stroke;stroke:#d2d2d2" />
        <path
           id="path34804"
           d="M 95.25,108.54 93,106.46"
           inkscape:connector-curvature="0"
           style="vector-effect:non-scaling-stroke;stroke:#eeeeee" />
        <path
           id="path34806"
           d="m 122.93,120.84 -2.55,1.58 a 0.78,0.78 0 0 0 -0.32,0.92 c 0.62,1.76 5.38,0.2 6.18,0.4 1.94,0.49 7.72,1.17 9.46,-0.73 q 0.37,-0.41 -0.17,-0.53 c -2.2,-0.47 -5.16,0.36 -6.96,-0.91 a 0.69,0.69 0 0 1 -0.26,-0.79 c 0.79,-2.37 8.15,1.24 7.95,-1.89 a 0.66,0.66 0 0 0 -0.73,-0.62 l -3.56,0.4 a 0.34,0.31 -16.2 0 1 -0.32,-0.16 l -0.17,-0.27 a 0.39,0.38 57.7 0 1 0.11,-0.51 c 3.18,-2.26 -2.64,-5.8 -4.29,-7.05 a 1.11,1.11 0 0 0 -0.89,-0.2 q -2.72,0.54 -3.67,3.05 a 0.55,0.55 0 0 1 -0.73,0.31 q -3.63,-1.57 -7.61,-0.57 a 0.56,0.56 0 0 0 -0.35,0.82 q 1.35,2.36 1.04,5.06 a 1.05,1.05 0 0 0 1.41,1.11 q 3.04,-1.11 6.28,-0.33 1.16,0.28 0.15,0.91"
           inkscape:connector-curvature="0"
           style="vector-effect:non-scaling-stroke;stroke:#eeeeee" />
        <path
           id="path34808"
           d="m 103.06,115.2 q -0.14,-0.67 -2.04,-0.72 a 0.73,0.72 83.9 0 0 -0.72,0.9 l 0.28,1.08 a 1.42,1.39 49 0 1 -0.05,0.82 q -0.4,1.02 -0.14,2.03 a 0.88,0.88 0 0 0 0.85,0.66 l 10.49,-0.09 q 0.92,0 0.44,-0.78 -2.16,-3.53 -6.18,-4.45 a 0.81,0.8 23.8 0 0 -0.84,0.32 q -0.58,0.78 -1.51,0.73 a 0.63,0.63 0 0 1 -0.58,-0.5"
           inkscape:connector-curvature="0"
           style="vector-effect:non-scaling-stroke;stroke:#eeeeee" />
        <path
           id="path34810"
           d="m 67.64,118.23 3.27,1.17 a 0.32,0.07 20.9 0 0 0.28,0.04 l 0.2,-0.21 a 0.36,0.35 44.4 0 0 -0.01,-0.52 q -1.8,-1.63 -4.23,-1.67 -0.46,-0.01 -0.87,-0.23 -1.98,-1.08 -4.21,-1.33 -1.05,-0.12 -0.21,0.52 c 0.79,0.59 4.46,4.16 5.14,2.51 a 0.5,0.5 0 0 1 0.64,-0.28"
           inkscape:connector-curvature="0"
           style="vector-effect:non-scaling-stroke;stroke:#eeeeee" />
        <path
           id="path34812"
           d="m 92.73,121.66 c -1.04,-0.57 -8.61,-3.26 -7.13,0.42 a 0.64,0.64 0 0 0 0.72,0.4 q 2.38,-0.45 4.72,0.24 a 1.76,1.69 -43.9 0 0 0.93,0 l 0.66,-0.18 q 1.12,-0.32 0.1,-0.88"
           inkscape:connector-curvature="0"
           style="vector-effect:non-scaling-stroke;stroke:#eeeeee" />
        <path
           id="path34814"
           d="m 69.38,126.55 c -0.82,0.59 -3.77,0.81 -3.91,1.39 a 0.39,0.38 -86.2 0 0 0.41,0.47 c 7.06,-0.6 8.48,6.98 17.37,2.3 a 0.43,0.43 0 0 0 0.18,-0.59 q -0.84,-1.5 -0.21,-3.09 A 0.8,0.8 0 0 0 83,126.14 c -4.23,-3.69 -9.94,-3.96 -15.3,-4.74 a 0.43,0.43 0 0 0 -0.48,0.5 q 0.42,2.34 2.19,3.89 a 0.48,0.48 0 0 1 -0.03,0.76"
           inkscape:connector-curvature="0"
           style="vector-effect:non-scaling-stroke;stroke:#eeeeee" />
        <path
           id="path34816"
           d="m 25.37,149.69 c -0.86,-0.78 -0.98,-2.05 -1.51,-2.77 q -1.64,-2.2 -4.36,-2.87 -0.51,-0.12 -0.9,-0.46 l -2.73,-2.26 q -1.1,-0.93 -0.85,0.49 l 0.12,0.65 a 2.2,2.19 9.6 0 0 1.11,1.55 q 4.64,2.55 8.25,6.43 1.47,1.57 2.56,-0.28 1.86,-3.17 5.49,-3.49 a 0.51,0.51 0 0 0 0.47,-0.56 l -0.23,-2.3 a 0.62,0.61 5.7 0 0 -0.44,-0.53 q -3.89,-1.09 -6.51,-4.1 -1.12,-1.27 -2.75,-1.72 -2.78,-0.76 -3.62,0.28 a 0.68,0.67 45.4 0 0 0,0.83 c 1.12,1.47 1.61,2.96 3.1,4.15 1.54,1.23 5.38,5.2 3.57,6.96 a 0.57,0.56 44.6 0 1 -0.77,0"
           inkscape:connector-curvature="0"
           style="vector-effect:non-scaling-stroke;stroke:#eeeeee" />
        <path
           id="path34818"
           d="m 70.74,140.17 -12.68,-1.84 a 0.45,0.45 0 0 0 -0.51,0.39 l -0.22,1.77 a 0.57,0.57 0 0 0 0.45,0.63 q 2.89,0.63 4.73,2.98 a 1.03,1.02 68.5 0 0 0.88,0.39 q 4.24,-0.32 7.72,-2.67 1.94,-1.31 -0.37,-1.65"
           inkscape:connector-curvature="0"
           style="vector-effect:non-scaling-stroke;stroke:#eeeeee" />
        <path
           id="path34820"
           d="m 7.65,143.97 q -0.52,0.52 0.66,1.54 0.41,0.34 0.88,0.58 l 5.53,2.75 a 0.34,0.34 0 0 0 0.38,-0.06 l 0.18,-0.18 a 0.37,0.36 44.4 0 0 -0.01,-0.52 c -1.4,-1.36 -5,-5.76 -7.04,-5.21 a 0.23,0.22 -87.1 0 0 -0.15,0.14 l -0.18,0.55 q -0.08,0.23 -0.25,0.41"
           inkscape:connector-curvature="0"
           style="vector-effect:non-scaling-stroke;stroke:#eeeeee" />
        <path
           id="path34822"
           d="m 25.63,156.23 q -1.45,-2.32 -4.23,-1.97 -0.99,0.12 -0.21,0.74 1.69,1.34 3.65,2.17 1.89,0.79 0.79,-0.94"
           inkscape:connector-curvature="0"
           style="vector-effect:non-scaling-stroke;stroke:#eeeeee" />
        <path
           id="path34824"
           d="m 96.5,110.04 q -1.1,-0.39 -1.25,-1.5"
           inkscape:connector-curvature="0"
           style="vector-effect:non-scaling-stroke;stroke:#e3e3e3" />
        <path
           id="path34826"
           d="m 450,121.06 q -1.14,-2.67 -4.01,-2.77 a 0.81,0.79 12 0 0 -0.77,0.49 l -0.53,1.25 a 0.84,0.84 0 0 0 0.16,0.91 l 1.08,1.12 a 0.43,0.42 57.4 0 1 -0.15,0.69 l -1.6,0.61 a 1.01,1.01 0 0 0 -0.45,1.56 l 4.7,6.17 a 0.53,0.53 0 0 1 -0.14,0.77 q -1.31,0.84 -2.53,-0.63 -0.68,-0.83 -0.66,0.24 0.02,1.53 0.83,2.84 a 0.68,0.68 0 0 0 0.83,0.27 l 3.24,-1.27"
           inkscape:connector-curvature="0"
           style="vector-effect:non-scaling-stroke;stroke:#eeeeee" />
        <path
           id="path34828"
           d="m 74.96,166 0.13,12.52 a 1.53,1.52 -28.1 0 1 -0.28,0.91 c -3.06,4.33 -6.83,7.26 -5.66,13.51 1.2,6.44 5.51,10.15 12.06,10.94 11.85,1.44 22.94,-6.3 29.21,-15.96 3.9,-6.03 4.05,-12.12 3.56,-19.03"
           inkscape:connector-curvature="0"
           style="vector-effect:non-scaling-stroke;stroke:#848484" />
        <path
           id="path34830"
           d="m 153.96,164.5 0.03,29.53 q 0,2 1.71,0.96 4.68,-2.86 7.69,-7.47 a 3.84,3.81 61.8 0 0 0.62,-2.09 l 0.03,-21.18"
           inkscape:connector-curvature="0"
           style="vector-effect:non-scaling-stroke;stroke:#848484" />
        <path
           id="path34832"
           d="m 164.04,164.25 10.42,-0.5"
           inkscape:connector-curvature="0"
           style="vector-effect:non-scaling-stroke;stroke:#eeeeee" />
        <path
           id="path34834"
           d="m 174.46,163.75 q -0.59,10.37 -0.46,20.8 c 0.05,3.9 1.23,6.94 5.35,7.34 4.97,0.49 12.5,-9.13 14.97,-12.89 q 0.43,-0.66 0.48,0.13 c 0.82,12.85 0.78,32.65 -5.01,44.42 a 2.64,2.61 -81.4 0 1 -1.92,1.43 c -11.16,1.84 -18.18,-5.89 -18.1,-16.31 q 0.02,-2.09 1.5,-3.56 c 0.8,-0.8 8.01,-7.62 7.76,-8.42 a 0.66,0.66 0 0 0 -0.7,-0.45 q -5.2,0.57 -10.74,4.92 -12.1,9.5 -6.33,23.61 c 2.57,6.29 5.93,10.33 13.18,10.42 14.95,0.16 26.06,-16.34 28.43,-29.17 3.73,-20.16 2.14,-43.19 2.17,-64.02"
           inkscape:connector-curvature="0"
           style="vector-effect:non-scaling-stroke;stroke:#848484" />
        <path
           id="path34836"
           d="m 312.04,168 c 2.6,-0.16 4.89,2.49 6.57,4.28 a 0.63,0.62 43.1 0 1 0.03,0.82 l -2.47,3.07 a 0.89,0.87 56.2 0 0 -0.15,0.81 q 0.89,2.78 3.98,2.74 a 0.93,0.93 0 0 1 0.81,0.44 q 0.8,1.27 2.33,1.26 a 0.83,0.82 75.1 0 1 0.74,0.43 q 0.64,1.24 2.08,1.15"
           inkscape:connector-curvature="0"
           style="vector-effect:non-scaling-stroke;stroke:#eeeeee" />
        <path
           id="path34838"
           d="m 55.3655,133.2803 a 1.53,0.81 49.9 0 0 -0.3659,-1.692 1.53,0.81 49.9 0 0 -1.6051,-0.6486 1.53,0.81 49.9 0 0 0.3659,1.692 1.53,0.81 49.9 0 0 1.6051,0.6486"
           inkscape:connector-curvature="0"
           style="vector-effect:non-scaling-stroke;stroke:#eeeeee" />
        <path
           id="path34840"
           d="m 450.05,122.86 -2.26,2.29 a 0.52,0.52 0 0 0 -0.01,0.72 q 1.49,1.63 2.22,3.69"
           inkscape:connector-curvature="0"
           style="vector-effect:non-scaling-stroke;stroke:#eeeeee" />
        <path
           id="path34842"
           d="m 89.5,129.04 4.75,-2.08"
           inkscape:connector-curvature="0"
           style="vector-effect:non-scaling-stroke;stroke:#848484" />
        <path
           id="path34844"
           d="m 85,138.25 v 21.2 a 0.34,0.34 0 0 0 0.47,0.32 c 9.67,-3.78 10.9,-15.21 9.53,-24.04 a 0.88,0.87 84.4 0 0 -0.89,-0.74 q -4.53,0.15 -8.49,2.23 A 1.17,1.17 0 0 0 85,138.25"
           inkscape:connector-curvature="0"
           style="vector-effect:non-scaling-stroke;stroke:#737373" />
        <path
           id="path34846"
           d="m 88.67,171.84 -3.35,3.51 A 1.14,1.13 67.1 0 0 85,176.14 l 0.04,15.83 a 1.46,1.46 0 0 0 1.12,1.42 c 4.61,1.13 16.3,1.98 17.63,-4.36 1,-4.81 1.24,-23.73 -6.5,-25.95 -5.32,-1.53 -10.36,3.24 -12.49,7.75 -0.02,0.05 0.02,0.58 0.06,0.65 a 0.37,0.36 -20.6 0 0 0.4,0.17 l 2.93,-0.66 q 1.65,-0.38 0.48,0.85"
           inkscape:connector-curvature="0"
           style="vector-effect:non-scaling-stroke;stroke:#848484" />
        <path
           id="path34848"
           d="m 184.29,158.5 c -0.17,2.49 -1.53,23.04 1.87,22.54 a 1.71,1.69 4.6 0 0 1.39,-1.17 q 3.84,-12.05 5.45,-22.33"
           inkscape:connector-curvature="0"
           style="vector-effect:non-scaling-stroke;stroke:#848484" />
        <path
           id="path34850"
           d="m 174.46,163.75 q 1.61,-13.77 4.6,-27.41 a 0.6,0.59 -87.2 0 0 -0.65,-0.73 l -13.37,1.49 a 1.16,1.16 0 0 0 -1.03,1.15 l 0.03,26"
           inkscape:connector-curvature="0"
           style="vector-effect:non-scaling-stroke;stroke:#737373" />
        <path
           id="path34852"
           d="m 225.5,140.54 c 2.7,-0.08 5.59,1.22 8.12,-0.22 a 0.56,0.56 0 0 0 0.24,-0.72 c -1.54,-3.49 -5.43,-3.78 -8.82,-2.85"
           inkscape:connector-curvature="0"
           style="vector-effect:non-scaling-stroke;stroke:#eeeeee" />
        <path
           id="path34854"
           d="m 375.5126,181.5768 a 4.09,0.96 50.3 0 0 -1.874,-3.76 4.09,0.96 50.3 0 0 -3.3512,-2.5336 4.09,0.96 50.3 0 0 1.874,3.76 4.09,0.96 50.3 0 0 3.3512,2.5336"
           inkscape:connector-curvature="0"
           style="vector-effect:non-scaling-stroke;stroke:#eeeeee" />
      </g>
      <path
         id="path34858"
         d="m 0,0 h 76.06 l 0.11,3.84 a 0.81,0.8 74 0 1 -0.39,0.71 q -6.46,3.96 -13.17,7.5 c -3.83,2.01 -6.94,4.6 -10.38,7.13 a 1.26,1.22 -60 0 1 -0.84,0.24 l -7.54,-0.56 q -1.12,-0.08 -0.07,-0.49 1.5,-0.59 3.13,-0.68 a 0.6,0.6 0 0 0 0.57,-0.61 q -0.03,-1.34 -1.61,-1.81 a 2.64,2.63 -52.5 0 0 -2.17,0.29 q -6.33,3.98 -13.44,3.97 -13,0 -26.01,-0.05 -1.37,0 -3.49,0.79 A 0.75,0.73 -7.2 0 0 0.28,20.88 L 0,23.69 Z"
         inkscape:connector-curvature="0"
         style="fill:#dddddd" />
      <path
         id="path34860"
         d="m 76.06,0 h 87.25 q -1.42,1.14 -1.87,2.84 a 1.2,1.2 0 0 1 -0.59,0.73 l -9.28,4.85 q -1.71,0.89 0.15,0.38 3.17,-0.86 6.12,-2.49 a 0.77,0.77 0 0 1 0.87,0.08 l 0.8,0.64 a 0.63,0.63 0 0 0 0.79,0.01 l 2.39,-1.84 a 1.06,1.05 34 0 1 0.96,-0.18 q 1.54,0.47 2.31,1.89 a 0.59,0.59 0 0 0 0.75,0.26 l 6.35,-2.64 a 0.66,0.64 59.2 0 1 0.76,0.2 l 0.24,0.31 a 0.34,0.33 48.4 0 1 -0.02,0.45 q -1.32,1.37 -0.39,2.59 a 0.66,0.65 63 0 1 -0.33,1.03 l -5.89,1.81 q -1.4,0.43 -0.08,1.06 2.69,1.25 5.59,0.74 a 0.62,0.6 -13.6 0 1 0.69,0.41 c 0.28,0.83 -1.97,1.98 -2.35,3.12 q -0.14,0.44 0.3,0.3 l 2.47,-0.82 q 1.25,-0.41 0.44,0.63 c -1.26,1.58 -3.63,0.46 -4.09,1.47 a 0.59,0.58 -70.6 0 0 0.38,0.81 l 3.54,0.89 q 0.87,0.22 0.21,0.84 -1,0.93 -2.44,0.57 -0.91,-0.23 -0.59,0.65 l 0.2,0.54 a 0.8,0.79 61.2 0 1 -0.25,0.89 l -4.74,3.71 q -1.71,1.35 0.32,0.56 5.31,-2.07 10.96,-2.08 2.19,0 1.63,2.12 c -1.67,6.37 -2.71,9.33 -9.26,13.21 a 0.24,0.22 -17.7 0 0 -0.11,0.19 v 0.28 a 0.23,0.23 0 0 0 0.23,0.24 h 2.77 a 0.7,0.7 0 0 1 0.67,0.5 q 0.28,0.93 -0.4,1.77 -4.43,5.52 -11.48,4.23 v -9.14 a 0.88,0.88 0 0 0 -0.99,-0.87 c -6.44,0.86 -12.78,4.33 -18.73,6.83 q -2.67,1.12 -14.95,10.82 -3.74,2.96 -6.21,7.39 -0.7,1.27 0.66,0.78 c 0.49,-0.17 1.31,-0.55 1.75,-0.96 q 4.51,-4.28 9.93,-7.35 a 0.32,0.31 -13.9 0 1 0.47,0.28 l -0.01,15.97 q -1.32,-0.11 -1.63,1.33 a 1.11,1.11 0 0 1 -0.6,0.75 l -3.96,1.93 q -2.28,1.11 -0.29,2.68 3.05,2.39 6.48,0.56 v 8 q -1.51,0.18 -1.93,1.7 a 1.13,1.13 0 0 1 -0.6,0.71 q -1.75,0.86 -2.59,2.65 a 1.22,1.19 -88.5 0 1 -0.65,0.63 c -4.36,1.81 -6.58,-3.06 -8.66,-5.88 q -1.27,-1.72 -3.01,-0.47 l -3.96,2.86 a 1.58,1.52 -61 0 1 -0.97,0.3 L 110.5,89.21 C 119.75,75.12 120.62,62.36 121.67,44.49 122.95,22.87 106.05,6.16 84.35,10.24 71.97,12.56 61.54,29.56 59.08,40.56 q -4.07,18.28 -3.19,37 c 0.58,12.48 9.36,21.34 20.11,26.9 q -0.85,0.08 -1.03,0.79 a 0.67,0.67 0 0 1 -0.58,0.51 q -7.77,0.89 -14.98,3.95 c -3.83,1.62 -5.5,4.3 -10.64,2.8 q -0.67,-0.2 -0.16,-0.68 0.68,-0.64 1.74,-0.57 a 0.57,0.57 0 0 0 0.61,-0.57 v -0.76 q 0,-1.43 -1.02,-0.42 c -4.16,4.1 -8.5,2.62 -12.75,5.27 a 1.03,1.02 38.8 0 1 -0.89,0.09 c -4.22,-1.54 -11.37,0.31 -15.97,0.62 a 0.98,0.96 -22.1 0 1 -0.82,-0.34 q -0.91,-1.06 -2.07,-0.97 -8.57,0.68 -17.15,1.32 L 0,114.19 v -8.25 q 0.63,-2.13 0,-4.25 v -78 l 0.28,-2.81 a 0.75,0.73 -7.2 0 1 0.48,-0.61 q 2.12,-0.79 3.49,-0.79 13.01,0.05 26.01,0.05 7.11,0.01 13.44,-3.97 a 2.64,2.63 -52.5 0 1 2.17,-0.29 q 1.58,0.47 1.61,1.81 a 0.6,0.6 0 0 1 -0.57,0.61 q -1.63,0.09 -3.13,0.68 -1.05,0.41 0.07,0.49 l 7.54,0.56 a 1.26,1.22 -60 0 0 0.84,-0.24 c 3.44,-2.53 6.55,-5.12 10.38,-7.13 Q 69.32,8.51 75.78,4.55 A 0.81,0.8 74 0 0 76.17,3.84 Z M 22.02,102.66 q 0.98,-1 2.27,-0.32 0.74,0.39 0.56,-0.43 c -0.22,-0.94 -4.5,-0.18 -5.37,0.07 -5.5,1.55 -11.51,1.61 -17.19,2.32 a 0.81,0.81 0 0 0 -0.7,0.65 l -0.19,0.91 a 0.76,0.76 0 0 0 0.65,0.91 l 6.05,0.79 a 0.75,0.74 -71.2 0 0 0.75,-0.37 c 0.39,-0.7 0.88,-0.96 1.74,-0.94 q 8.25,0.22 16.41,1.31 0.46,0.06 0.91,-0.05 l 5.34,-1.38 q 0.6,-0.15 0.13,-0.56 c -2.56,-2.28 -11.57,0.87 -11.6,-2.3 a 0.91,0.89 -24 0 1 0.24,-0.61 z"
         inkscape:connector-curvature="0"
         style="fill:#c7c7c7" />
      <path
         id="path34862"
         d="m 163.31,0 h 93.25 l -0.21,2.3 a 0.53,0.53 0 0 0 0.44,0.57 c 5.71,1.02 12.98,3.68 18.5,0.79 a 0.92,0.91 -44.1 0 1 0.87,0.01 c 4.24,2.33 8.82,1.07 13.56,1.91 q 0.51,0.09 0,0.15 -6.73,0.84 -12.22,0.26 -1.02,-0.11 -1.67,0.22 a 0.4,0.4 0 0 0 -0.1,0.64 l 0.42,0.43 q 0.87,0.86 -0.35,0.86 l -10.75,0.04 q -2.27,0.01 -0.88,1.8 c 1.1,1.42 4.45,2.31 4.55,4.64 a 0.77,0.77 0 0 1 -0.6,0.79 l -3.14,0.73 q -0.34,0.07 -0.07,0.3 0.87,0.71 1.84,0.79 c 13.55,1.21 27.35,0.6 41.23,0.29 q 6.7,-0.14 14.52,-1.48 7.17,-1.23 15.3,0.75 0.49,0.12 0.99,0.05 l 2.55,-0.34 a 1.14,1.11 61.5 0 1 0.87,0.27 c 3.43,3.1 14.94,3.43 18.24,0.17 a 1.63,1.63 0 0 1 0.93,-0.45 q 5.62,-0.71 10.55,2.04 0.67,0.37 -0.08,0.52 -2.16,0.43 -4.29,-0.59 a 0.9,0.9 0 0 0 -0.94,0.1 l -1.9,1.5 q -1.98,1.57 0.43,2.32 7.61,2.38 14.68,5.92 c 4.91,2.45 8.98,6.53 14.98,7.11 a 0.32,0.31 17.6 0 1 0.25,0.47 c -2.46,4.46 3.72,9.59 6.34,12.77 a 0.98,0.95 -58 0 1 0.19,0.87 c -0.98,3.69 4.19,14.02 5.16,15.46 q 1.24,1.82 5.81,3.88 a 0.66,0.65 -58.3 0 0 0.78,-0.19 c 4.4,-5.5 4.51,-15.82 2.93,-21.93 q -0.13,-0.51 0.28,-0.9 0.4,-0.39 0.48,0.16 0.76,5.26 1.59,10.51 c 0.91,5.74 3.84,10.85 6.15,16 q 0.99,2.21 1.89,-0.04 1.69,-4.21 2.08,-8.75 a 1.57,1.49 -26.5 0 1 0.29,-0.79 l 0.99,-1.4 q 0.47,-0.67 0.66,0.13 c 0.73,2.99 1.33,5.74 4.09,6.9 a 0.46,0.45 18.3 0 0 0.61,-0.3 c 0.75,-2.78 0.69,-5.4 1.48,-8.28 q 0.85,-3.11 0.66,-6.44 a 0.58,0.57 5.5 0 1 0.72,-0.59 l 1.72,0.47 a 0.91,0.91 0 0 1 0.63,0.6 c 0.73,2.28 4,12.23 5.65,11.75 a 0.56,0.55 -14.7 0 0 0.38,-0.65 q -1.08,-4.57 0.52,-8.98 0.37,-1 0.64,0.03 l 0.89,3.45 a 0.71,0.71 0 0 0 0.57,0.53 q 0.39,0.07 0.76,-0.09 v 56.25 l -0.51,0.95 q -0.19,0.35 -0.34,-0.01 -0.74,-1.64 -2.44,-0.73 -0.92,0.48 -0.7,-0.53 l 0.35,-1.65 a 0.81,0.8 -63.8 0 0 -0.26,-0.78 l -1.41,-1.26 a 0.57,0.57 0 0 0 -0.79,0.04 q -2.45,2.68 -0.84,5.77 a 1.51,1.47 -52.9 0 1 0.13,1.04 q -0.62,2.64 0,5.22 a 0.85,0.84 62.4 0 1 -0.25,0.81 c -2.78,2.63 0.94,4.44 -0.4,7.78 a 1.11,1.11 0 0 0 0.04,0.92 q 1.41,2.85 -0.43,5.59 -0.19,0.27 -0.29,-0.04 c -0.82,-2.34 -2.6,-2.13 -3.61,-3.82 a 0.69,0.68 -22.6 0 0 -0.75,-0.3 c -2.44,0.65 -0.92,5.34 -0.08,6.74 a 0.82,0.8 -34.5 0 1 -0.2,1.04 q -3.02,2.4 -6.25,4.42 c -2.52,1.58 -5.28,0.87 -6.9,4.42 a 1.03,1.03 0 0 0 -0.05,0.72 l 0.53,1.91 q 0.27,1 -0.67,0.55 c -4.9,-2.31 -9.98,-7.2 -13.83,-11.05 -1.15,-1.14 -10.8,-10.18 -11.76,-9.48 a 0.44,0.44 0 0 0 -0.05,0.67 q 7.74,7.62 14.9,15.78 c 1.83,2.08 9.76,8.2 9.44,10.8 q -0.18,1.55 -1.66,2.64 a 1.78,1.77 60 0 0 -0.57,2.15 l 1.23,2.77 q 0.35,0.78 -0.48,0.55 -3.48,-0.94 -5.41,-3.81 a 1.17,1.16 -52.5 0 1 -0.13,-1.03 c 0.76,-2.2 3.02,-5.22 0.2,-7.01 a 0.56,0.56 0 0 0 -0.86,0.43 l -0.23,2.69 a 1.79,1.78 67.3 0 1 -0.39,0.96 q -2.55,3.2 -2.29,7.37 a 0.65,0.64 -6.3 0 1 -0.55,0.68 l -1.88,0.27 q -0.7,0.1 -0.25,0.65 c 1.25,1.51 3.47,4.32 1.29,5.7 a 1.1,1.09 -32.5 0 0 -0.34,1.52 l 2.06,3.18 q 0.45,0.71 -0.39,0.71 h -3 a 0.69,0.69 0 0 0 -0.68,0.57 l -0.43,2.48 a 0.66,0.66 0 0 1 -0.74,0.54 l -0.34,-0.05 a 0.86,0.86 0 0 1 -0.69,-0.55 l -1.43,-3.92 a 0.39,0.39 0 0 0 -0.65,-0.14 c -1.69,1.76 0.27,4.23 -0.75,5.06 a 0.55,0.55 0 0 1 -0.76,-0.07 c -1.96,-2.22 -3.63,-8.76 -3.65,-11.69 q 0,-0.5 -0.29,-0.09 -1.19,1.67 -1.55,3.65 c -0.47,2.61 -1.49,4.17 -2.07,6.49 a 0.86,0.86 0 0 1 -1.29,0.52 l -3.36,-2.09 0.61,-1.39 q 0.31,-0.72 -0.42,-0.43 l -3.94,1.57 q -1.45,-0.82 -2.96,-1.41 c -4.16,-1.61 -9.09,-6.71 -12.31,-9.86 a 1.91,1.91 0 0 1 -0.38,-2.22 q 1.66,-3.36 -1.1,-7.01 6.5,-2.85 9.14,-9.45 a 0.3,0.3 0 0 0 -0.31,-0.41 c -5.72,0.69 -17.64,1.7 -21.16,6.73 q -1.15,1.64 -1.46,-0.34 -1.16,-7.4 -0.96,-14.88 0.04,-1.76 1.58,-2.63 11.18,-6.26 23.99,-7.39 a 0.58,0.58 0 0 1 0.58,0.83 l -3.13,6.73 a 0.5,0.5 0 0 0 0.22,0.65 q 0.36,0.18 0.73,-0.06 c 4.6,-2.99 11.81,-10.63 11.75,-16.75 a 1.4,1.39 -3.7 0 0 -1.56,-1.36 q -19.18,2.3 -33.41,13.89 c -8.67,7.05 -14.32,12.73 -14.54,24.98 l -6.4,-0.66 q -0.34,-5.45 0.36,-11.32 a 1.49,1.48 70.6 0 1 0.41,-0.86 q 7.55,-7.86 7.35,-17.81 c -0.07,-3.58 -3.25,-3.52 -5.61,-1.99 -8.09,5.25 -10.2,13.24 -11.62,22.59 a 0.58,0.57 -86.9 0 1 -0.54,0.49 l -12.63,0.58 a 0.5,0.49 -1.1 0 1 -0.52,-0.49 l -0.03,-24.1 q 0,-1.76 -1.5,-0.84 c -3.82,2.36 -8.48,5.91 -8.48,11.16 q 0.01,8.22 -0.01,16.49 c -0.02,5.38 -3,8.43 -8.33,8.77 a 0.49,0.49 0 0 1 -0.52,-0.48 q -0.22,-8.67 -0.02,-25.1 0.05,-4.16 1.74,-7.18 a 0.54,0.54 0 0 0 -0.37,-0.79 l -0.71,-0.14 a 1.03,1.02 -12.1 0 1 -0.61,-0.39 c -1.69,-2.36 -6.34,3.02 -7.52,4.71 q -3.52,5.01 -7.86,9.36 -1.02,-1.21 -1.44,-2.77 a 1.36,1.36 0 0 0 -0.52,-0.77 c -2.1,-1.52 -4.07,-2.64 -5.74,-4.69 -2.96,-3.63 -5.95,-9.32 -11.61,-8.28 a 1.93,1.9 50 0 1 -0.96,-0.09 q -3.2,-1.17 -6.57,-1.11 c -2.58,0.05 -5.56,1.58 -8.77,1.33 -3.05,-0.24 -4.09,0.26 -6.63,1.31 -3.66,1.5 -6.83,1.72 -10.51,2.32 v -26.74 a 1.27,1.27 0 0 1 1.52,-1.24 q 4.85,1.01 9.64,-2.03 C 253.31,91.16 251.4,75.4 250.79,55.12 a 0.81,0.8 -9.5 0 1 0.57,-0.79 l 8.01,-2.44 q 1.99,-0.61 1.92,1.47 -0.44,12.21 -3.3,24.03 -0.91,3.76 -2.55,6.24 c -3.58,5.41 -7.67,8.31 -7.61,15.86 0.04,5.23 2.77,8.21 8.08,8.72 11.65,1.12 20.34,-4.74 27.92,-13.65 5.9,-6.94 5.85,-15.38 3.74,-23.72 q -0.67,-2.63 -3.38,-2.53 c -7.63,0.31 -10.49,4.16 -16.75,7.26 q -0.46,0.23 -0.09,-0.13 c 9.74,-9.39 16.93,-15.78 26.45,-22.09 q 1.64,-1.08 1.26,0.85 -4.47,22.29 -4.48,44.96 c 0,2.54 -0.29,4.84 0.47,7.48 a 0.74,0.74 0 0 0 1.18,0.37 q 4.59,-3.75 8.4,-8.31 a 1.4,1.39 63.6 0 0 0.32,-0.97 q -1.14,-26.62 4.24,-52.7 0.47,-2.28 -1.82,-2.23 -0.45,0.01 -2.16,1.13 -16.85,10.98 -31.68,25.88 a 1.01,1.01 0 0 1 -1.59,-0.21 q -0.08,-0.15 0.17,-1.07 3.56,-12.87 2.99,-25.61 a 1.32,1.32 0 0 0 -1.58,-1.23 q -10.45,2.12 -19.19,8.24 a 0.52,0.52 0 0 1 -0.77,-0.21 l -2.27,-4.84 q -0.96,-2.03 -3.2,-1.86 -8.07,0.65 -14.37,5.58 -0.6,0.47 -0.66,-0.29 l -0.23,-2.65 a 0.55,0.54 74.9 0 0 -0.77,-0.45 q -7.94,3.66 -9.98,12.57 -0.45,2 -2.61,3 -0.46,0.22 -0.41,-0.29 C 216.31,47.84 200,44.72 190.71,45 c -11.63,0.34 -22.29,17.74 -24.81,27.31 -1.39,5.26 -1.53,12.06 -2.14,18.01 q -0.31,3.1 -3.28,2.61 -2.38,-0.39 -2.31,-2.8 c 0.46,-14.33 3.02,-28.15 3.87,-42.38 q 7.05,1.29 11.48,-4.23 0.68,-0.84 0.4,-1.77 a 0.7,0.7 0 0 0 -0.67,-0.5 h -2.77 a 0.23,0.23 0 0 1 -0.23,-0.24 v -0.28 a 0.24,0.22 -17.7 0 1 0.11,-0.19 c 6.55,-3.88 7.59,-6.84 9.26,-13.21 q 0.56,-2.12 -1.63,-2.12 -5.65,0.01 -10.96,2.08 -2.03,0.79 -0.32,-0.56 l 4.74,-3.71 a 0.8,0.79 61.2 0 0 0.25,-0.89 l -0.2,-0.54 q -0.32,-0.88 0.59,-0.65 1.44,0.36 2.44,-0.57 0.66,-0.62 -0.21,-0.84 l -3.54,-0.89 a 0.59,0.58 -70.6 0 1 -0.38,-0.81 c 0.46,-1.01 2.83,0.11 4.09,-1.47 q 0.81,-1.04 -0.44,-0.63 l -2.47,0.82 q -0.44,0.14 -0.3,-0.3 c 0.38,-1.14 2.63,-2.29 2.35,-3.12 a 0.62,0.6 -13.6 0 0 -0.69,-0.41 q -2.9,0.51 -5.59,-0.74 -1.32,-0.63 0.08,-1.06 l 5.89,-1.81 a 0.66,0.65 63 0 0 0.33,-1.03 q -0.93,-1.22 0.39,-2.59 a 0.34,0.33 48.4 0 0 0.02,-0.45 l -0.24,-0.31 a 0.66,0.64 59.2 0 0 -0.76,-0.2 l -6.35,2.64 a 0.59,0.59 0 0 1 -0.75,-0.26 q -0.77,-1.42 -2.31,-1.89 a 1.06,1.05 34 0 0 -0.96,0.18 l -2.39,1.84 a 0.63,0.63 0 0 1 -0.79,-0.01 l -0.8,-0.64 a 0.77,0.77 0 0 0 -0.87,-0.08 q -2.95,1.63 -6.12,2.49 -1.86,0.51 -0.15,-0.38 l 9.28,-4.85 a 1.2,1.2 0 0 0 0.59,-0.73 q 0.45,-1.7 1.87,-2.84 z m 255.3901,99.9731 a 2.37,0.53 36.3 0 0 -1.5963,-1.8302 2.37,0.53 36.3 0 0 -2.2239,-0.976 2.37,0.53 36.3 0 0 1.5963,1.8302 2.37,0.53 36.3 0 0 2.2239,0.976 z"
         inkscape:connector-curvature="0"
         style="fill:#dddddd" />
      <path
         id="path34864"
         d="M 256.56,0 H 450 v 60.06 q -0.37,0.16 -0.76,0.09 a 0.71,0.71 0 0 1 -0.57,-0.53 l -0.89,-3.45 q -0.27,-1.03 -0.64,-0.03 -1.6,4.41 -0.52,8.98 a 0.56,0.55 -14.7 0 1 -0.38,0.65 c -1.65,0.48 -4.92,-9.47 -5.65,-11.75 a 0.91,0.91 0 0 0 -0.63,-0.6 l -1.72,-0.47 a 0.58,0.57 5.5 0 0 -0.72,0.59 q 0.19,3.33 -0.66,6.44 c -0.79,2.88 -0.73,5.5 -1.48,8.28 a 0.46,0.45 18.3 0 1 -0.61,0.3 c -2.76,-1.16 -3.36,-3.91 -4.09,-6.9 q -0.19,-0.8 -0.66,-0.13 l -0.99,1.4 a 1.57,1.49 -26.5 0 0 -0.29,0.79 q -0.39,4.54 -2.08,8.75 -0.9,2.25 -1.89,0.04 c -2.31,-5.15 -5.24,-10.26 -6.15,-16 q -0.83,-5.25 -1.59,-10.51 -0.08,-0.55 -0.48,-0.16 -0.41,0.39 -0.28,0.9 c 1.58,6.11 1.47,16.43 -2.93,21.93 a 0.66,0.65 -58.3 0 1 -0.78,0.19 q -4.57,-2.06 -5.81,-3.88 c -0.97,-1.44 -6.14,-11.77 -5.16,-15.46 a 0.98,0.95 -58 0 0 -0.19,-0.87 c -2.62,-3.18 -8.8,-8.31 -6.34,-12.77 a 0.32,0.31 17.6 0 0 -0.25,-0.47 c -6,-0.58 -10.07,-4.66 -14.98,-7.11 q -7.07,-3.54 -14.68,-5.92 -2.41,-0.75 -0.43,-2.32 l 1.9,-1.5 a 0.9,0.9 0 0 1 0.94,-0.1 q 2.13,1.02 4.29,0.59 0.75,-0.15 0.08,-0.52 -4.93,-2.75 -10.55,-2.04 a 1.63,1.63 0 0 0 -0.93,0.45 c -3.3,3.26 -14.81,2.93 -18.24,-0.17 a 1.14,1.11 61.5 0 0 -0.87,-0.27 l -2.55,0.34 q -0.5,0.07 -0.99,-0.05 -8.13,-1.98 -15.3,-0.75 -7.82,1.34 -14.52,1.48 c -13.88,0.31 -27.68,0.92 -41.23,-0.29 q -0.97,-0.08 -1.84,-0.79 -0.27,-0.23 0.07,-0.3 l 3.14,-0.73 a 0.77,0.77 0 0 0 0.6,-0.79 c -0.1,-2.33 -3.45,-3.22 -4.55,-4.64 q -1.39,-1.79 0.88,-1.8 L 275.8,8.14 q 1.22,0 0.35,-0.86 l -0.42,-0.43 a 0.4,0.4 0 0 1 0.1,-0.64 q 0.65,-0.33 1.67,-0.22 5.49,0.58 12.22,-0.26 0.51,-0.06 0,-0.15 C 284.98,4.74 280.4,6 276.16,3.67 A 0.92,0.91 -44.1 0 0 275.29,3.66 C 269.77,6.55 262.5,3.89 256.79,2.87 A 0.53,0.53 0 0 1 256.35,2.3 Z m 191.9,16.59 q 0.34,-1.67 -0.44,-3 a 1.31,1.3 -5.2 0 0 -0.69,-0.57 q -7.07,-2.49 -12.96,-7.04 c -0.38,-0.3 -1.13,-0.35 -1.5,-0.12 a 0.57,0.56 59.6 0 0 -0.19,0.75 c 1.07,1.92 1.78,3.61 3.81,4.78 q 5.13,2.96 10.25,5.97 a 1.16,1.16 0 0 0 1.72,-0.77 z m -99.15,-6.01 8.25,1.98 a 1.83,1.78 -47.5 0 0 1.05,-0.06 c 2.57,-0.94 4.29,0.38 6.3,0.68 q 3.62,0.55 7.39,0.51 0.64,-0.01 0.24,-0.51 -3.77,-4.73 -9.27,-1.86 a 1.51,1.47 -55.3 0 1 -0.82,0.16 c -4.01,-0.33 -8.5,-1.8 -12.6,-1.72 a 0.56,0.54 22 0 0 -0.39,0.16 l -0.26,0.25 q -0.31,0.3 0.11,0.41 z m 1.52,2.28 q -4.23,-1.71 -8.79,-0.71 -0.35,0.07 -0.01,0.17 l 8.6,2.35 a 0.5,0.48 -82.1 0 0 0.62,-0.48 l -0.01,-0.72 a 0.66,0.66 0 0 0 -0.41,-0.61 z m 34.68,11.05 4.09,2.04 a 0.68,0.67 -67.6 0 0 0.94,-0.4 l 0.22,-0.64 a 0.74,0.73 21.9 0 0 -0.39,-0.9 q -2.2,-1.02 -4.7,-0.88 -1.54,0.09 -0.16,0.78 z m 23.69,15.85 0.61,2.29 a 0.6,0.59 -18.6 0 0 0.81,0.4 c 1.1,-0.48 -0.55,-2.22 -0.86,-2.79 q -1.17,-2.22 -0.56,0.1 z"
         inkscape:connector-curvature="0"
         style="fill:#c7c7c7" />
      <path
         id="path34866"
         d="m 448.46,16.59 a 1.16,1.16 0 0 1 -1.72,0.77 q -5.12,-3.01 -10.25,-5.97 c -2.03,-1.17 -2.74,-2.86 -3.81,-4.78 a 0.57,0.56 59.6 0 1 0.19,-0.75 c 0.37,-0.23 1.12,-0.18 1.5,0.12 q 5.89,4.55 12.96,7.04 a 1.31,1.3 -5.2 0 1 0.69,0.57 q 0.78,1.33 0.44,3 z"
         inkscape:connector-curvature="0"
         style="fill:#dddddd" />
      <path
         id="path34868"
         d="m 110.5,89.21 c -5.89,7.51 -11.54,11.33 -17.5,17.25 l -2.75,0.83 Q 82.78,107.51 76,104.46 C 65.25,98.9 56.47,90.04 55.89,77.56 q -0.88,-18.72 3.19,-37 c 2.46,-11 12.89,-28 25.27,-30.32 21.7,-4.08 38.6,12.63 37.32,34.25 -1.05,17.87 -1.92,30.63 -11.17,44.72 z m -33.7,-5.9 c 5.58,7.03 14.32,11.77 23.59,11.22 q 2.12,-0.12 3.08,-2.01 6.14,-12.07 7.33,-25.51 1.26,-14.16 0.63,-20.95 C 110.08,31.41 97.07,19.88 82.18,19.71 a 2.33,2.32 10.5 0 0 -2.19,1.5 q -8.14,21.63 -8.27,45.3 c -0.04,6.86 1.03,11.72 5.08,16.8 z M 74.886,20.4645 a 0.26,0.26 0 0 0 -0.11,-0.3509 l -0.2127,-0.1112 a 0.26,0.26 0 0 0 -0.3508,0.11 l -4.0585,7.7631 a 0.26,0.26 0 0 0 0.11,0.3509 l 0.2127,0.1112 a 0.26,0.26 0 0 0 0.3508,-0.11 z"
         inkscape:connector-curvature="0"
         style="fill:#090909" />
      <path
         id="path34870"
         d="m 349.31,10.58 q -0.42,-0.11 -0.11,-0.41 l 0.26,-0.25 a 0.56,0.54 22 0 1 0.39,-0.16 c 4.1,-0.08 8.59,1.39 12.6,1.72 a 1.51,1.47 -55.3 0 0 0.82,-0.16 q 5.5,-2.87 9.27,1.86 0.4,0.5 -0.24,0.51 -3.77,0.04 -7.39,-0.51 c -2.01,-0.3 -3.73,-1.62 -6.3,-0.68 a 1.83,1.78 -47.5 0 1 -1.05,0.06 z"
         inkscape:connector-curvature="0"
         style="fill:#dddddd" />
      <path
         id="path34872"
         d="m 351.24,13.47 0.01,0.72 a 0.5,0.48 -82.1 0 1 -0.62,0.48 l -8.6,-2.35 q -0.34,-0.1 0.01,-0.17 4.56,-1 8.79,0.71 a 0.66,0.66 0 0 1 0.41,0.61 z"
         inkscape:connector-curvature="0"
         style="fill:#dddddd" />
      <path
         id="path34874"
         d="m 76.8,83.31 c -4.05,-5.08 -5.12,-9.94 -5.08,-16.8 q 0.13,-23.67 8.27,-45.3 a 2.33,2.32 10.5 0 1 2.19,-1.5 c 14.89,0.17 27.9,11.7 29.25,26.35 q 0.63,6.79 -0.63,20.95 -1.19,13.44 -7.33,25.51 -0.96,1.89 -3.08,2.01 C 91.12,95.08 82.38,90.34 76.8,83.31 Z"
         inkscape:connector-curvature="0"
         style="fill:#c7c7c7" />
      <rect
         id="rect34876"
         rx="0.25999999"
         height="9.2799997"
         width="0.75999999"
         transform="rotate(27.6,-12.941307,159.70928)"
         y="-4.6399999"
         x="-0.38"
         style="fill:#dddddd" />
      <path
         id="path34878"
         d="m 385.51,23.91 q -1.38,-0.69 0.16,-0.78 2.5,-0.14 4.7,0.88 a 0.74,0.73 21.9 0 1 0.39,0.9 l -0.22,0.64 a 0.68,0.67 -67.6 0 1 -0.94,0.4 z"
         inkscape:connector-curvature="0"
         style="fill:#dddddd" />
      <path
         id="path34880"
         d="m 162.04,47.75 c -0.85,14.23 -3.41,28.05 -3.87,42.38 q -0.07,2.41 2.31,2.8 2.97,0.49 3.28,-2.61 c 0.61,-5.95 0.75,-12.75 2.14,-18.01 2.52,-9.57 13.18,-26.97 24.81,-27.31 9.29,-0.28 25.6,2.84 24.35,15.49 q -0.05,0.51 0.41,0.29 2.16,-1 2.61,-3 2.04,-8.91 9.98,-12.57 a 0.55,0.54 74.9 0 1 0.77,0.45 l 0.23,2.65 q 0.06,0.76 0.66,0.29 6.3,-4.93 14.37,-5.58 2.24,-0.17 3.2,1.86 l 2.27,4.84 a 0.52,0.52 0 0 0 0.77,0.21 q 8.74,-6.12 19.19,-8.24 a 1.32,1.32 0 0 1 1.58,1.23 q 0.57,12.74 -2.99,25.61 -0.25,0.92 -0.17,1.07 a 1.01,1.01 0 0 0 1.59,0.21 q 14.83,-14.9 31.68,-25.88 1.71,-1.12 2.16,-1.13 2.29,-0.05 1.82,2.23 -5.38,26.08 -4.24,52.7 a 1.4,1.39 63.6 0 1 -0.32,0.97 q -3.81,4.56 -8.4,8.31 a 0.74,0.74 0 0 1 -1.18,-0.37 c -0.76,-2.64 -0.47,-4.94 -0.47,-7.48 q 0.01,-22.67 4.48,-44.96 0.38,-1.93 -1.26,-0.85 c -9.52,6.31 -16.71,12.7 -26.45,22.09 q -0.37,0.36 0.09,0.13 c 6.26,-3.1 9.12,-6.95 16.75,-7.26 q 2.71,-0.1 3.38,2.53 c 2.11,8.34 2.16,16.78 -3.74,23.72 -7.58,8.91 -16.27,14.77 -27.92,13.65 -5.31,-0.51 -8.04,-3.49 -8.08,-8.72 -0.06,-7.55 4.03,-10.45 7.61,-15.86 q 1.64,-2.48 2.55,-6.24 2.86,-11.82 3.3,-24.03 0.07,-2.08 -1.92,-1.47 l -8.01,2.44 a 0.81,0.8 -9.5 0 0 -0.57,0.79 c 0.61,20.28 2.52,36.04 -14.59,46.87 q -4.79,3.04 -9.64,2.03 a 1.27,1.27 0 0 0 -1.52,1.24 v 26.74 4.75 q -0.33,1.99 0.46,3.79 l 8.57,20.95 q 0.19,0.48 0.47,0.04 5.98,-9.51 12.83,-18.42 c 2.65,-3.45 4.94,-6.9 8.8,-8.76 q 2.07,-1 1.79,1.29 c -1.86,14.98 -4.02,30.55 -3.94,45.53 a 0.33,0.32 -6.5 0 0 0.4,0.31 q 0.2,-0.05 0.28,-0.29 1.68,-5.45 4.12,-9.57 8.39,-14.22 18.97,-26.87 4.34,-4.35 7.86,-9.36 c 1.18,-1.69 5.83,-7.07 7.52,-4.71 a 1.03,1.02 -12.1 0 0 0.61,0.39 l 0.71,0.14 a 0.54,0.54 0 0 1 0.37,0.79 q -1.69,3.02 -1.74,7.18 -0.2,16.43 0.02,25.1 a 0.49,0.49 0 0 0 0.52,0.48 c 5.33,-0.34 8.31,-3.39 8.33,-8.77 q 0.02,-8.27 0.01,-16.49 c 0,-5.25 4.66,-8.8 8.48,-11.16 q 1.5,-0.92 1.5,0.84 l 0.03,24.1 a 0.5,0.49 -1.1 0 0 0.52,0.49 l 12.63,-0.58 a 0.58,0.57 -86.9 0 0 0.54,-0.49 c 1.42,-9.35 3.53,-17.34 11.62,-22.59 2.36,-1.53 5.54,-1.59 5.61,1.99 q 0.2,9.95 -7.35,17.81 a 1.49,1.48 70.6 0 0 -0.41,0.86 q -0.7,5.87 -0.36,11.32 c 0.2,7.04 -0.07,11.77 3.92,16.34 q 0.95,1.09 1.08,-0.35 l 1.4,-15.33 c 0.22,-12.25 5.87,-17.93 14.54,-24.98 q 14.23,-11.59 33.41,-13.89 a 1.4,1.39 -3.7 0 1 1.56,1.36 c 0.06,6.12 -7.15,13.76 -11.75,16.75 q -0.37,0.24 -0.73,0.06 a 0.5,0.5 0 0 1 -0.22,-0.65 l 3.13,-6.73 a 0.58,0.58 0 0 0 -0.58,-0.83 q -12.81,1.13 -23.99,7.39 -1.54,0.87 -1.58,2.63 -0.2,7.48 0.96,14.88 0.31,1.98 1.46,0.34 c 3.52,-5.03 15.44,-6.04 21.16,-6.73 a 0.3,0.3 0 0 1 0.31,0.41 q -2.64,6.6 -9.14,9.45 l -11.05,1.85 a 1.01,1 79.8 0 0 -0.81,1.18 c 1.23,6.52 2.85,15.71 -1.56,21.33 q -0.31,0.39 0.19,0.42 c 10.3,0.59 21.18,0.75 29.98,-4.28 l 3.94,-1.57 q 0.73,-0.29 0.42,0.43 l -0.61,1.39 q -10.24,12.15 -26.27,13.85 c -4.25,0.45 -22.71,1.35 -25.2,-2.25 q -1.5,-2.15 0.36,-4 l 6.41,-6.38 a 1.64,1.63 74.6 0 0 0.43,-0.76 l 0.23,-0.92 a 0.21,0.2 6.7 0 0 -0.2,-0.25 h -0.28 a 0.51,0.48 22.2 0 0 -0.34,0.13 l -6.73,6.21 q -1.53,1.41 -3.6,1.32 -6.61,-0.28 -9.1,-6.91 c -1.75,-7.41 -0.81,-15.7 -1.11,-23.35 a 0.37,0.37 0 0 0 -0.56,-0.3 q -5.4,3.15 -11.59,3.96 a 0.67,0.67 0 0 0 -0.59,0.65 l -0.07,4.04 -0.03,23.33 a 2.21,2.19 -25 0 1 -0.53,1.43 q -3.83,4.41 -8.42,8.03 -1.04,0.83 -1.05,-0.51 l -0.02,-8.91 q -0.01,-0.78 -0.44,-0.13 -2.61,3.89 -6.76,6.34 -2.75,1.62 -4.81,-0.8 c -5.06,-5.96 -6.14,-12.7 -6.97,-20.03 a 0.75,0.75 0 0 0 -0.85,-0.66 l -17.38,2.54 a 0.72,0.72 0 0 0 -0.62,0.65 l -0.21,2.06 a 0.61,0.61 0 0 0 0.63,0.67 l 2.74,-0.04 q 3.42,-0.06 1,2.37 -7.49,7.52 -15.93,13.52 c -6.47,4.6 -8.65,-4.82 -8.5,-8.87 q 0.63,-17.8 3.08,-35.66 0.56,-4.14 -1.77,-0.67 l -8.23,12.25 a 0.64,0.64 0 0 0 0.2,0.91 l 3.35,2.02 a 0.51,0.49 -62.1 0 1 0.19,0.65 q -3.18,6.49 -10.85,9.68 -3.2,1.33 -6.64,5.12 a 0.86,0.86 0 0 0 -0.15,0.89 l 1.41,3.37 q 0.82,1.97 -0.52,3.63 -3.34,4.17 -8.02,6.74 a 1.3,1.29 68.6 0 1 -1.88,-0.83 q -1.33,-5.38 -1.58,-10.84 -0.67,-14.62 -0.45,-29.25 0.04,-2.81 2.94,-5.7 a 0.73,0.73 0 0 0 0.11,-0.89 l -1.39,-2.38 a 1.07,1.06 42.4 0 1 -0.05,-0.98 q 1.12,-2.44 0.9,-5.05 c 0.64,-24.6 1.35,-48.83 3.54,-73.49 q 0.22,-2.44 -1.51,-0.71 l -1.66,1.66 q -0.32,0.32 -0.44,0.76 -4.87,18.06 -19.42,29.81 -5.12,4.13 -10.27,8.25 c -6.02,4.83 -14.63,-1.07 -17.72,-6.59 q -0.86,-1.53 -2.38,-5.2 a 0.36,0.36 0 0 0 -0.57,-0.13 c -4.29,3.9 -16.74,13.5 -15.95,-0.73 q 0.95,-17.26 3.43,-34.41 0.15,-1.07 0.16,-2.18 1.03,-5.44 0.07,-10.92 a 0.58,0.57 75.2 0 0 -0.76,-0.45 l -6.45,2.27 a 0.88,0.87 80.7 0 0 -0.59,0.83 l 0.02,12.98 0.08,33.51 a 1.2,1.18 -67.7 0 0 0.32,0.79 l 1.28,1.36 a 0.83,0.82 40.1 0 1 0.09,1.03 q -3.83,5.69 -9.56,9.47 a 0.52,0.52 0 0 1 -0.73,-0.15 c -2.81,-4.43 -1.53,-17.46 -1.56,-23.01 v -8 -7.25 l 0.01,-15.97 a 0.32,0.31 -13.9 0 0 -0.47,-0.28 q -5.42,3.07 -9.93,7.35 c -0.44,0.41 -1.26,0.79 -1.75,0.96 q -1.36,0.49 -0.66,-0.78 2.47,-4.43 6.21,-7.39 12.28,-9.7 14.95,-10.82 c 5.95,-2.5 12.29,-5.97 18.73,-6.83 a 0.88,0.88 0 0 1 0.99,0.87 z m 76.58,9.28 c -1.73,-4.83 -5.83,-4.8 -9.65,-2.53 a 1.13,1.12 -11.8 0 0 -0.54,0.82 q -0.69,5.29 -0.38,10.63 0.03,0.5 -0.15,0.96 -0.49,1.23 -0.45,2.59 0.02,0.55 0.41,0.16 l 10.22,-10.21 a 2.31,2.31 0 0 0 0.54,-2.42 z M 178.7,68.34 q 0.49,7.51 0.32,15.11 c -0.19,8.29 3.48,13.55 12.58,13.5 q 2.48,-0.01 4.35,-1.63 c 6.6,-5.71 12.29,-24.2 7.95,-31.98 -3.97,-7.14 -16.34,-8.86 -23.5,-8.39 a 1.52,1.5 12.5 0 0 -1.24,0.78 q -3.51,6.34 -4.19,13.59 -0.08,0.77 0.56,0.33 l 2.43,-1.67 q 0.69,-0.47 0.74,0.36 z m 49.97,19.59 c 1.12,4.36 5.67,7.17 10.23,5.89 a 1.62,1.61 -4.2 0 0 1.16,-1.34 c 1.21,-9.3 1.89,-20.76 -0.03,-29.99 a 0.33,0.32 -24.1 0 0 -0.51,-0.19 c -9.17,6.81 -13.94,13.65 -10.85,25.63 z m 40.12,-7.8 -0.95,17.08 a 0.71,0.71 0 0 0 0.62,0.74 q 4.15,0.46 7.97,-1.11 a 1.55,1.5 3.7 0 0 0.69,-0.59 c 2.7,-4.37 1.67,-11.7 0.33,-16.08 q -0.73,-2.35 -3.15,-1.9 l -4.62,0.85 a 1.1,1.09 -3.7 0 0 -0.89,1.01 z m 12.69,65.1 Q 273,156.41 266,168.58 q -0.37,0.65 0.37,0.59 l 16.07,-1.25 a 0.6,0.6 0 0 0 0.56,-0.6 v -21.58 q 0,-2.53 -1.52,-0.51 z m 18.04,41.67 q 2.48,3.14 2.48,-0.87 v -18.26 q 0,-0.65 -0.55,-0.3 l -7.31,4.69 a 0.78,0.77 70.5 0 0 -0.35,0.75 q 0.88,7.86 5.73,13.99 z m -73.89,-12.26 a 0.98,0.97 -38.8 0 0 0.13,-1.15 l -3.14,-5.42 A 0.14,0.14 0 0 0 222.5,168 h -0.26 a 0.32,0.32 0 0 0 -0.33,0.34 l 0.47,8.01 q 0.11,1.77 1.3,0.45 z"
         inkscape:connector-curvature="0"
         style="fill:#090909" />
      <path
         id="path34882"
         d="m 409.2,39.76 q -0.61,-2.32 0.56,-0.1 c 0.31,0.57 1.96,2.31 0.86,2.79 a 0.6,0.59 -18.6 0 1 -0.81,-0.4 z"
         inkscape:connector-curvature="0"
         style="fill:#dddddd" />
      <path
         id="path34884"
         d="m 151.75,59.04 -1.57,0.3 a 1.44,1.41 -75.4 0 0 -0.8,0.48 q -2.2,2.6 -5.34,3.93 l -0.02,-12.98 a 0.88,0.87 80.7 0 1 0.59,-0.83 l 6.45,-2.27 a 0.58,0.57 75.2 0 1 0.76,0.45 q 0.96,5.48 -0.07,10.92 z"
         inkscape:connector-curvature="0"
         style="fill:#c7c7c7" />
      <path
         id="path34886"
         d="m 228.97,54.5 c 3.82,-2.27 7.92,-2.3 9.65,2.53 a 2.31,2.31 0 0 1 -0.54,2.42 l -10.22,10.21 q -0.39,0.39 -0.41,-0.16 -0.04,-1.36 0.45,-2.59 0.18,-0.46 0.15,-0.96 -0.31,-5.34 0.38,-10.63 a 1.13,1.12 -11.8 0 1 0.54,-0.82 z"
         inkscape:connector-curvature="0"
         style="fill:#dddddd" />
      <path
         id="path34888"
         d="m 177.96,67.98 -2.43,1.67 q -0.64,0.44 -0.56,-0.33 0.68,-7.25 4.19,-13.59 a 1.52,1.5 12.5 0 1 1.24,-0.78 c 7.16,-0.47 19.53,1.25 23.5,8.39 4.34,7.78 -1.35,26.27 -7.95,31.98 q -1.87,1.62 -4.35,1.63 C 182.5,97 178.83,91.74 179.02,83.45 q 0.17,-7.6 -0.32,-15.11 -0.05,-0.83 -0.74,-0.36 z"
         inkscape:connector-curvature="0"
         style="fill:#dddddd" />
      <path
         id="path34890"
         d="m 151.75,59.04 q -0.01,1.11 -0.16,2.18 -2.48,17.15 -3.43,34.41 c -0.79,14.23 11.66,4.63 15.95,0.73 a 0.36,0.36 0 0 1 0.57,0.13 q 1.52,3.67 2.38,5.2 c 3.09,5.52 11.7,11.42 17.72,6.59 q 5.15,-4.12 10.27,-8.25 14.55,-11.75 19.42,-29.81 0.12,-0.44 0.44,-0.76 l 1.66,-1.66 q 1.73,-1.73 1.51,0.71 c -2.19,24.66 -2.9,48.89 -3.54,73.49 0.2,-0.84 -0.11,-1.11 -0.9,-0.91 q -4.24,1.09 -8.6,0.91 L 205,132.93 a 0.93,0.93 0 0 0 -1.31,-0.84 c -4.59,2.1 -8.16,6.23 -8.71,11.5 q -0.72,7 -1.98,13.95 l -8.71,0.96 q 1.19,-15.18 4.82,-30.47 0.44,-1.83 -1.41,-2.2 -1.3,-0.25 -3.89,0.04 c -15.08,1.71 -27.69,6.69 -43.1,13.29 -5.27,2.25 -15.99,8.28 -17.72,14.43 q -0.16,0.56 0.36,0.28 14.48,-7.75 30.08,-12.98 a 0.38,0.38 0 0 1 0.5,0.36 l 0.03,23.25 q -8.01,2.18 -15.95,4.58 c -1.72,0.52 -3.59,-0.16 -5.41,0.12 q -9.29,1.47 -18.62,-0.31 c -0.89,-8.9 -1.14,-18.1 -13.89,-15.12 q -1.9,0.45 -0.93,-1.24 c 4.91,-8.52 8.2,-17.14 5.66,-27.12 a 0.64,0.63 81.7 0 0 -0.62,-0.47 q -5.13,0.08 -9.95,2.02 -0.64,-1.34 -1.98,-0.88 a 1.76,1.75 -47.2 0 1 -0.97,0.04 l -3.19,-0.8 a 0.73,0.73 0 0 0 -0.83,0.38 l -0.29,0.6 a 0.81,0.8 -52.2 0 0 0.11,0.9 q 0.99,1.15 2.4,1.84 c -4.11,1.94 -12.68,7.19 -13.37,12.12 q -0.1,0.67 0.48,0.3 1.72,-1.12 3.56,-2.05 2.29,-1.16 0.14,0.27 c -3.85,2.55 -5.34,5.45 -5.32,10.32 q 0.05,8.01 -0.03,16 l -3.49,-1.37 a 0.54,0.53 26 0 0 -0.66,0.22 q -1.29,2.12 -3.89,2.45 a 0.75,0.74 86.9 0 0 -0.65,0.73 l -0.03,3.02 a 0.49,0.48 1.1 0 1 -0.51,0.48 q -4.02,-0.19 -4.04,3.7 a 0.97,0.96 -6.4 0 1 -0.76,0.94 q -7.57,1.68 -15.3,0.64 -0.62,-0.08 -1.25,-0.07 c -3.23,0.07 -4.5,-0.02 -7.01,-2.31 q -6.74,-6.12 -13.78,-11.92 c -1.29,-1.07 -1.61,-2.56 -2.49,-3.95 a 0.62,0.61 60.7 0 0 -0.8,-0.23 l -0.96,0.46 a 0.54,0.54 0 0 0 -0.13,0.88 c 2.13,1.98 14.45,14.04 14.2,15.38 q -0.1,0.58 -0.5,0.15 C 27.54,169.51 21.38,165.01 15.38,160.08 a 0.46,0.46 0 0 0 -0.61,0.02 l -0.25,0.24 a 0.52,0.52 0 0 0 0,0.75 q 1.18,1.14 1.15,2.63 a 0.86,0.86 0 0 1 -0.45,0.74 q -1.8,1.01 -2.41,2.97 a 0.76,0.74 25.2 0 0 0.31,0.84 q 1.55,1.01 3.44,0.67 a 1.03,1.02 67.3 0 1 1.03,0.43 l 2.15,3.13 a 0.51,0.5 -22.9 0 1 -0.32,0.78 c -5.54,1.03 -9.93,-0.15 -15.34,-0.69 -2.67,-0.27 -4.75,-3.03 -3.41,-5.77 a 1.28,1.27 48.9 0 0 0.06,-0.97 l -0.55,-1.63 a 0.76,0.76 0 0 1 0.5,-0.96 l 1.14,-0.36 a 0.37,0.36 -19.6 0 0 0.23,-0.48 c -0.59,-1.48 -2.26,-1.43 -1.71,-3.77 a 0.67,0.67 0 0 1 0.71,-0.52 q 2.1,0.19 3.97,-1.02 a 1.32,1.32 0 0 1 1.05,-0.16 l 7.13,1.87 a 0.23,0.23 0 0 0 0.29,-0.27 l -0.29,-1.52 a 0.49,0.49 0 0 1 0.54,-0.58 l 2.23,0.28 a 0.62,0.62 0 0 0 0.68,-0.44 c 0.11,-0.4 -8.56,-8.79 -10.5,-11 Q 3.36,142.1 -0.04,139.48 L 0,137.44 q 13.93,-1.29 18.44,-1.34 1.57,-0.02 2.41,-0.42 a 1.52,1.49 -53.1 0 1 0.92,-0.14 c 2.14,0.35 2.51,-1.24 3.76,-1.93 q 1.61,-0.88 3.5,-1.15 a 1.05,1.04 -28.1 0 1 0.87,0.26 c 1.28,1.17 3.72,4.5 5.04,5.06 a 1.07,1.07 0 0 0 0.92,-0.04 c 2.21,-1.19 4.87,-4.51 7.44,-3 q 0.41,0.25 0.88,0.38 l 5.1,1.4 q 1.86,0.51 1.08,-1.25 l -0.83,-1.88 a 0.57,0.57 0 0 0 -0.7,-0.31 q -4.94,1.63 -9.35,-0.87 a 0.59,0.59 0 0 1 -0.25,-0.74 l 0.52,-1.27 a 0.84,0.83 -77.9 0 1 0.8,-0.52 l 8.59,0.28 a 0.72,0.72 0 0 1 0.7,0.63 c 1.08,8.03 7.51,3.83 12.16,5.73 q 0.53,0.22 0.45,-0.35 -0.49,-3.22 -3.3,-5.01 -1.04,-0.68 0.17,-0.93 l 3.86,-0.82 q 1.52,-0.32 0.18,-1.11 -2.76,-1.62 -5.77,-0.25 a 0.89,0.87 -41.5 0 1 -0.81,-0.04 q -5.99,-3.66 -10.63,-8.97 -0.65,-0.74 -2.99,-2.03 a 0.58,0.58 0 0 0 -0.7,0.12 l -1.03,1.11 a 0.74,0.74 0 0 1 -0.83,0.18 l -3.02,-1.27 q -0.74,-0.31 -0.62,0.49 l 0.71,4.52 q 0.33,2.12 -1.8,2.37 l -21.79,2.57 a 0.49,0.49 0 0 1 -0.54,-0.51 c 0.04,-0.9 16.57,-3.69 17.56,-3.92 a 0.5,0.49 76.5 0 0 0.37,-0.61 l -0.54,-2.02 a 0.57,0.56 76.5 0 0 -0.66,-0.41 q -6.21,1.3 -11.51,0.55 -3.79,-0.54 -4.35,2.6 a 0.81,0.81 0 0 1 -0.68,0.65 q -3.38,0.48 -6.57,-0.84 a 1.19,1.17 -0.5 0 1 -0.62,-0.6 q -1.5,-3.46 -5.3,-4.05 a 1.06,1.04 -7.2 0 1 -0.8,-0.61 q -0.38,-0.88 -0.15,-1.63 8.58,-0.64 17.15,-1.32 1.16,-0.09 2.07,0.97 a 0.98,0.96 -22.1 0 0 0.82,0.34 c 4.6,-0.31 11.75,-2.16 15.97,-0.62 a 1.03,1.02 38.8 0 0 0.89,-0.09 c 4.25,-2.65 8.59,-1.17 12.75,-5.27 q 1.02,-1.01 1.02,0.42 v 0.76 a 0.57,0.57 0 0 1 -0.61,0.57 q -1.06,-0.07 -1.74,0.57 -0.51,0.48 0.16,0.68 c 5.14,1.5 6.81,-1.18 10.64,-2.8 q 7.21,-3.06 14.98,-3.95 a 0.67,0.67 0 0 0 0.58,-0.51 q 0.18,-0.71 1.03,-0.79 6.78,3.05 14.25,2.83 -1.89,0.7 -2,2.97 -0.16,3.09 2.88,2.52 2.01,-0.37 3.94,0.37 a 0.84,0.83 35.7 0 0 0.82,-0.13 q 1.53,-1.22 0.61,-2.98 l 2.61,0.2 a 0.8,0.79 11.7 0 0 0.82,-0.53 l 1.06,-3.06 q 0.5,-1.45 -0.86,-0.72 l -4.88,2.61 -2.25,-2.08 c 5.96,-5.92 11.61,-9.74 17.5,-17.25 l 1.09,0.04 a 1.58,1.52 -61 0 0 0.97,-0.3 l 3.96,-2.86 q 1.74,-1.25 3.01,0.47 c 2.08,2.82 4.3,7.69 8.66,5.88 a 1.22,1.19 -88.5 0 0 0.65,-0.63 q 0.84,-1.79 2.59,-2.65 a 1.13,1.13 0 0 0 0.6,-0.71 q 0.42,-1.52 1.93,-1.7 c 0.03,5.55 -1.25,18.58 1.56,23.01 a 0.52,0.52 0 0 0 0.73,0.15 q 5.73,-3.78 9.56,-9.47 a 0.83,0.82 40.1 0 0 -0.09,-1.03 l -1.28,-1.36 a 1.2,1.18 -67.7 0 1 -0.32,-0.79 l -0.08,-33.51 q 3.14,-1.33 5.34,-3.93 a 1.44,1.41 -75.4 0 1 0.8,-0.48 z m -28.82,61.8 -2.55,1.58 a 0.78,0.78 0 0 0 -0.32,0.92 c 0.62,1.76 5.38,0.2 6.18,0.4 1.94,0.49 7.72,1.17 9.46,-0.73 q 0.37,-0.41 -0.17,-0.53 c -2.2,-0.47 -5.16,0.36 -6.96,-0.91 a 0.69,0.69 0 0 1 -0.26,-0.79 c 0.79,-2.37 8.15,1.24 7.95,-1.89 a 0.66,0.66 0 0 0 -0.73,-0.62 l -3.56,0.4 a 0.34,0.31 -16.2 0 1 -0.32,-0.16 l -0.17,-0.27 a 0.39,0.38 57.7 0 1 0.11,-0.51 c 3.18,-2.26 -2.64,-5.8 -4.29,-7.05 a 1.11,1.11 0 0 0 -0.89,-0.2 q -2.72,0.54 -3.67,3.05 a 0.55,0.55 0 0 1 -0.73,0.31 q -3.63,-1.57 -7.61,-0.57 a 0.56,0.56 0 0 0 -0.35,0.82 q 1.35,2.36 1.04,5.06 a 1.05,1.05 0 0 0 1.41,1.11 q 3.04,-1.11 6.28,-0.33 1.16,0.28 0.15,0.91 z m -19.87,-5.64 q -0.14,-0.67 -2.04,-0.72 a 0.73,0.72 83.9 0 0 -0.72,0.9 l 0.28,1.08 a 1.42,1.39 49 0 1 -0.05,0.82 q -0.4,1.02 -0.14,2.03 a 0.88,0.88 0 0 0 0.85,0.66 l 10.49,-0.09 q 0.92,0 0.44,-0.78 -2.16,-3.53 -6.18,-4.45 a 0.81,0.8 23.8 0 0 -0.84,0.32 q -0.58,0.78 -1.51,0.73 a 0.63,0.63 0 0 1 -0.58,-0.5 z m -35.42,3.03 3.27,1.17 a 0.32,0.07 20.9 0 0 0.28,0.04 l 0.2,-0.21 a 0.36,0.35 44.4 0 0 -0.01,-0.52 q -1.8,-1.63 -4.23,-1.67 -0.46,-0.01 -0.87,-0.23 -1.98,-1.08 -4.21,-1.33 -1.05,-0.12 -0.21,0.52 c 0.79,0.59 4.46,4.16 5.14,2.51 a 0.5,0.5 0 0 1 0.64,-0.28 z m 25.09,3.43 c -1.04,-0.57 -8.61,-3.26 -7.13,0.42 a 0.64,0.64 0 0 0 0.72,0.4 q 2.38,-0.45 4.72,0.24 a 1.76,1.69 -43.9 0 0 0.93,0 l 0.66,-0.18 q 1.12,-0.32 0.1,-0.88 z m -23.35,4.89 c -0.82,0.59 -3.77,0.81 -3.91,1.39 a 0.39,0.38 -86.2 0 0 0.41,0.47 c 7.06,-0.6 8.48,6.98 17.37,2.3 a 0.43,0.43 0 0 0 0.18,-0.59 q -0.84,-1.5 -0.21,-3.09 A 0.8,0.8 0 0 0 83,126.14 c -4.23,-3.69 -9.94,-3.96 -15.3,-4.74 a 0.43,0.43 0 0 0 -0.48,0.5 q 0.42,2.34 2.19,3.89 a 0.48,0.48 0 0 1 -0.03,0.76 z m -44.01,23.14 c -0.86,-0.78 -0.98,-2.05 -1.51,-2.77 q -1.64,-2.2 -4.36,-2.87 -0.51,-0.12 -0.9,-0.46 l -2.73,-2.26 q -1.1,-0.93 -0.85,0.49 l 0.12,0.65 a 2.2,2.19 9.6 0 0 1.11,1.55 q 4.64,2.55 8.25,6.43 1.47,1.57 2.56,-0.28 1.86,-3.17 5.49,-3.49 a 0.51,0.51 0 0 0 0.47,-0.56 l -0.23,-2.3 a 0.62,0.61 5.7 0 0 -0.44,-0.53 q -3.89,-1.09 -6.51,-4.1 -1.12,-1.27 -2.75,-1.72 -2.78,-0.76 -3.62,0.28 a 0.68,0.67 45.4 0 0 0,0.83 c 1.12,1.47 1.61,2.96 3.1,4.15 1.54,1.23 5.38,5.2 3.57,6.96 a 0.57,0.56 44.6 0 1 -0.77,0 z m 45.37,-9.52 -12.68,-1.84 a 0.45,0.45 0 0 0 -0.51,0.39 l -0.22,1.77 a 0.57,0.57 0 0 0 0.45,0.63 q 2.89,0.63 4.73,2.98 a 1.03,1.02 68.5 0 0 0.88,0.39 q 4.24,-0.32 7.72,-2.67 1.94,-1.31 -0.37,-1.65 z m -63.09,3.8 q -0.52,0.52 0.66,1.54 0.41,0.34 0.88,0.58 l 5.53,2.75 a 0.34,0.34 0 0 0 0.38,-0.06 l 0.18,-0.18 a 0.37,0.36 44.4 0 0 -0.01,-0.52 c -1.4,-1.36 -5,-5.76 -7.04,-5.21 a 0.23,0.22 -87.1 0 0 -0.15,0.14 l -0.18,0.55 q -0.08,0.23 -0.25,0.41 z m 17.98,12.26 q -1.45,-2.32 -4.23,-1.97 -0.99,0.12 -0.21,0.74 1.69,1.34 3.65,2.17 1.89,0.79 0.79,-0.94 z"
         inkscape:connector-curvature="0"
         style="fill:#dddddd" />
      <path
         id="path34892"
         d="m 238.9,93.82 c -4.56,1.28 -9.11,-1.53 -10.23,-5.89 -3.09,-11.98 1.68,-18.82 10.85,-25.63 a 0.33,0.32 -24.1 0 1 0.51,0.19 c 1.92,9.23 1.24,20.69 0.03,29.99 a 1.62,1.61 -4.2 0 1 -1.16,1.34 z"
         inkscape:connector-curvature="0"
         style="fill:#dddddd" />
      <path
         id="path34894"
         d="m 133.96,71.5 v 7.25 q -3.43,1.83 -6.48,-0.56 -1.99,-1.57 0.29,-2.68 l 3.96,-1.93 a 1.11,1.11 0 0 0 0.6,-0.75 q 0.31,-1.44 1.63,-1.33 z"
         inkscape:connector-curvature="0"
         style="fill:#dddddd" />
      <path
         id="path34896"
         d="m 268.79,80.13 a 1.1,1.09 -3.7 0 1 0.89,-1.01 l 4.62,-0.85 q 2.42,-0.45 3.15,1.9 c 1.34,4.38 2.37,11.71 -0.33,16.08 a 1.55,1.5 3.7 0 1 -0.69,0.59 q -3.82,1.57 -7.97,1.11 a 0.71,0.71 0 0 1 -0.62,-0.74 z"
         inkscape:connector-curvature="0"
         style="fill:#dddddd" />
      <ellipse
         id="ellipse34898"
         ry="0.52999997"
         rx="2.3699999"
         transform="rotate(36.3,58.051767,684.99116)"
         cy="0"
         cx="0"
         style="fill:#ffffff" />
      <path
         id="path34900"
         d="m 22.02,102.66 a 0.91,0.89 -24 0 0 -0.24,0.61 c 0.03,3.17 9.04,0.02 11.6,2.3 q 0.47,0.41 -0.13,0.56 l -5.34,1.38 q -0.45,0.11 -0.91,0.05 -8.16,-1.09 -16.41,-1.31 c -0.86,-0.02 -1.35,0.24 -1.74,0.94 A 0.75,0.74 -71.2 0 1 8.1,107.56 L 2.05,106.77 A 0.76,0.76 0 0 1 1.4,105.86 l 0.19,-0.91 a 0.81,0.81 0 0 1 0.7,-0.65 c 5.68,-0.71 11.69,-0.77 17.19,-2.32 0.87,-0.25 5.15,-1.01 5.37,-0.07 q 0.18,0.82 -0.56,0.43 -1.29,-0.68 -2.27,0.32 z"
         inkscape:connector-curvature="0"
         style="fill:#dddddd" />
      <path
         id="path34902"
         d="m 0,101.69 q 0.63,2.12 0,4.25 z"
         inkscape:connector-curvature="0"
         style="fill:#ffffff" />
      <path
         id="path34904"
         d="m 96.5,110.04 q -1.1,-0.39 -1.25,-1.5 l 4.88,-2.61 q 1.36,-0.73 0.86,0.72 l -1.06,3.06 a 0.8,0.79 11.7 0 1 -0.82,0.53 z"
         inkscape:connector-curvature="0"
         style="fill:#c7c7c7" />
      <path
         id="path34906"
         d="m 93,106.46 2.25,2.08 q 0.15,1.11 1.25,1.5 0.92,1.76 -0.61,2.98 a 0.84,0.83 35.7 0 1 -0.82,0.13 q -1.93,-0.74 -3.94,-0.37 -3.04,0.57 -2.88,-2.52 0.11,-2.27 2,-2.97 z"
         inkscape:connector-curvature="0"
         style="fill:#ffffff" />
      <path
         id="path34908"
         d="m 122.93,120.84 q 1.01,-0.63 -0.15,-0.91 -3.24,-0.78 -6.28,0.33 a 1.05,1.05 0 0 1 -1.41,-1.11 q 0.31,-2.7 -1.04,-5.06 a 0.56,0.56 0 0 1 0.35,-0.82 q 3.98,-1 7.61,0.57 a 0.55,0.55 0 0 0 0.73,-0.31 q 0.95,-2.51 3.67,-3.05 a 1.11,1.11 0 0 1 0.89,0.2 c 1.65,1.25 7.47,4.79 4.29,7.05 a 0.39,0.38 57.7 0 0 -0.11,0.51 l 0.17,0.27 a 0.34,0.31 -16.2 0 0 0.32,0.16 l 3.56,-0.4 a 0.66,0.66 0 0 1 0.73,0.62 c 0.2,3.13 -7.16,-0.48 -7.95,1.89 a 0.69,0.69 0 0 0 0.26,0.79 c 1.8,1.27 4.76,0.44 6.96,0.91 q 0.54,0.12 0.17,0.53 c -1.74,1.9 -7.52,1.22 -9.46,0.73 -0.8,-0.2 -5.56,1.36 -6.18,-0.4 a 0.78,0.78 0 0 1 0.32,-0.92 z"
         inkscape:connector-curvature="0"
         style="fill:#ffffff" />
      <path
         id="path34910"
         d="m 450,116.31 v 4.75 q -1.14,-2.67 -4.01,-2.77 a 0.81,0.79 12 0 0 -0.77,0.49 l -0.53,1.25 a 0.84,0.84 0 0 0 0.16,0.91 l 1.08,1.12 a 0.43,0.42 57.4 0 1 -0.15,0.69 l -1.6,0.61 a 1.01,1.01 0 0 0 -0.45,1.56 l 4.7,6.17 a 0.53,0.53 0 0 1 -0.14,0.77 q -1.31,0.84 -2.53,-0.63 -0.68,-0.83 -0.66,0.24 0.02,1.53 0.83,2.84 a 0.68,0.68 0 0 0 0.83,0.27 L 450,133.31 V 244 H 0 L -0.04,139.48 q 3.4,2.62 6.19,5.81 c 1.94,2.21 10.61,10.6 10.5,11 a 0.62,0.62 0 0 1 -0.68,0.44 l -2.23,-0.28 a 0.49,0.49 0 0 0 -0.54,0.58 l 0.29,1.52 a 0.23,0.23 0 0 1 -0.29,0.27 l -7.13,-1.87 a 1.32,1.32 0 0 0 -1.05,0.16 q -1.87,1.21 -3.97,1.02 a 0.67,0.67 0 0 0 -0.71,0.52 c -0.55,2.34 1.12,2.29 1.71,3.77 a 0.37,0.36 -19.6 0 1 -0.23,0.48 l -1.14,0.36 a 0.76,0.76 0 0 0 -0.5,0.96 l 0.55,1.63 a 1.28,1.27 48.9 0 1 -0.06,0.97 c -1.34,2.74 0.74,5.5 3.41,5.77 5.41,0.54 9.8,1.72 15.34,0.69 a 0.51,0.5 -22.9 0 0 0.32,-0.78 l -2.15,-3.13 a 1.03,1.02 67.3 0 0 -1.03,-0.43 q -1.89,0.34 -3.44,-0.67 a 0.76,0.74 25.2 0 1 -0.31,-0.84 q 0.61,-1.96 2.41,-2.97 a 0.86,0.86 0 0 0 0.45,-0.74 q 0.03,-1.49 -1.15,-2.63 a 0.52,0.52 0 0 1 0,-0.75 l 0.25,-0.24 a 0.46,0.46 0 0 1 0.61,-0.02 c 6,4.93 12.16,9.43 17.53,15.12 q 0.4,0.43 0.5,-0.15 c 0.25,-1.34 -12.07,-13.4 -14.2,-15.38 a 0.54,0.54 0 0 1 0.13,-0.88 l 0.96,-0.46 a 0.62,0.61 60.7 0 1 0.8,0.23 c 0.88,1.39 1.2,2.88 2.49,3.95 q 7.04,5.8 13.78,11.92 c 2.51,2.29 3.78,2.38 7.01,2.31 q 0.63,-0.01 1.25,0.07 7.73,1.04 15.3,-0.64 a 0.97,0.96 -6.4 0 0 0.76,-0.94 q 0.02,-3.89 4.04,-3.7 a 0.49,0.48 1.1 0 0 0.51,-0.48 l 0.03,-3.02 a 0.75,0.74 86.9 0 1 0.65,-0.73 q 2.6,-0.33 3.89,-2.45 a 0.54,0.53 26 0 1 0.66,-0.22 l 3.49,1.37 0.13,12.52 a 1.53,1.52 -28.1 0 1 -0.28,0.91 c -3.06,4.33 -6.83,7.26 -5.66,13.51 1.2,6.44 5.51,10.15 12.06,10.94 11.85,1.44 22.94,-6.3 29.21,-15.96 3.9,-6.03 4.05,-12.12 3.56,-19.03 q 9.33,1.78 18.62,0.31 c 1.82,-0.28 3.69,0.4 5.41,-0.12 q 7.94,-2.4 15.95,-4.58 l 0.03,29.53 q 0,2 1.71,0.96 4.68,-2.86 7.69,-7.47 a 3.84,3.81 61.8 0 0 0.62,-2.09 l 0.03,-21.18 10.42,-0.5 q -0.59,10.37 -0.46,20.8 c 0.05,3.9 1.23,6.94 5.35,7.34 4.97,0.49 12.5,-9.13 14.97,-12.89 q 0.43,-0.66 0.48,0.13 c 0.82,12.85 0.78,32.65 -5.01,44.42 a 2.64,2.61 -81.4 0 1 -1.92,1.43 c -11.16,1.84 -18.18,-5.89 -18.1,-16.31 q 0.02,-2.09 1.5,-3.56 c 0.8,-0.8 8.01,-7.62 7.76,-8.42 a 0.66,0.66 0 0 0 -0.7,-0.45 q -5.2,0.57 -10.74,4.92 -12.1,9.5 -6.33,23.61 c 2.57,6.29 5.93,10.33 13.18,10.42 14.95,0.16 26.06,-16.34 28.43,-29.17 3.73,-20.16 2.14,-43.19 2.17,-64.02 q 4.36,0.18 8.6,-0.91 c 0.79,-0.2 1.1,0.07 0.9,0.91 q 0.22,2.61 -0.9,5.05 a 1.07,1.06 42.4 0 0 0.05,0.98 l 1.39,2.38 a 0.73,0.73 0 0 1 -0.11,0.89 q -2.9,2.89 -2.94,5.7 -0.22,14.63 0.45,29.25 0.25,5.46 1.58,10.84 a 1.3,1.29 68.6 0 0 1.88,0.83 q 4.68,-2.57 8.02,-6.74 1.34,-1.66 0.52,-3.63 l -1.41,-3.37 a 0.86,0.86 0 0 1 0.15,-0.89 q 3.44,-3.79 6.64,-5.12 7.67,-3.19 10.85,-9.68 a 0.51,0.49 -62.1 0 0 -0.19,-0.65 l -3.35,-2.02 a 0.64,0.64 0 0 1 -0.2,-0.91 l 8.23,-12.25 q 2.33,-3.47 1.77,0.67 -2.45,17.86 -3.08,35.66 c -0.15,4.05 2.03,13.47 8.5,8.87 q 8.44,-6 15.93,-13.52 2.42,-2.43 -1,-2.37 l -2.74,0.04 a 0.61,0.61 0 0 1 -0.63,-0.67 l 0.21,-2.06 a 0.72,0.72 0 0 1 0.62,-0.65 l 17.38,-2.54 a 0.75,0.75 0 0 1 0.85,0.66 c 0.83,7.33 1.91,14.07 6.97,20.03 q 2.06,2.42 4.81,0.8 4.15,-2.45 6.76,-6.34 0.43,-0.65 0.44,0.13 l 0.02,8.91 q 0.01,1.34 1.05,0.51 4.59,-3.62 8.42,-8.03 a 2.21,2.19 -25 0 0 0.53,-1.43 L 312.04,168 c 2.6,-0.16 4.89,2.49 6.57,4.28 a 0.63,0.62 43.1 0 1 0.03,0.82 l -2.47,3.07 a 0.89,0.87 56.2 0 0 -0.15,0.81 q 0.89,2.78 3.98,2.74 a 0.93,0.93 0 0 1 0.81,0.44 q 0.8,1.27 2.33,1.26 a 0.83,0.82 75.1 0 1 0.74,0.43 q 0.64,1.24 2.08,1.15 2.49,6.63 9.1,6.91 2.07,0.09 3.6,-1.32 l 6.73,-6.21 a 0.51,0.48 22.2 0 1 0.34,-0.13 h 0.28 a 0.21,0.2 6.7 0 1 0.2,0.25 l -0.23,0.92 a 1.64,1.63 74.6 0 1 -0.43,0.76 l -6.41,6.38 q -1.86,1.85 -0.36,4 c 2.49,3.6 20.95,2.7 25.2,2.25 q 16.03,-1.7 26.27,-13.85 l 3.36,2.09 a 0.86,0.86 0 0 0 1.29,-0.52 c 0.58,-2.32 1.6,-3.88 2.07,-6.49 q 0.36,-1.98 1.55,-3.65 0.29,-0.41 0.29,0.09 c 0.02,2.93 1.69,9.47 3.65,11.69 a 0.55,0.55 0 0 0 0.76,0.07 c 1.02,-0.83 -0.94,-3.3 0.75,-5.06 a 0.39,0.39 0 0 1 0.65,0.14 l 1.43,3.92 a 0.86,0.86 0 0 0 0.69,0.55 l 0.34,0.05 a 0.66,0.66 0 0 0 0.74,-0.54 l 0.43,-2.48 a 0.69,0.69 0 0 1 0.68,-0.57 h 3 q 0.84,0 0.39,-0.71 l -2.06,-3.18 a 1.1,1.09 -32.5 0 1 0.34,-1.52 c 2.18,-1.38 -0.04,-4.19 -1.29,-5.7 q -0.45,-0.55 0.25,-0.65 l 1.88,-0.27 a 0.65,0.64 -6.3 0 0 0.55,-0.68 q -0.26,-4.17 2.29,-7.37 a 1.79,1.78 67.3 0 0 0.39,-0.96 l 0.23,-2.69 a 0.56,0.56 0 0 1 0.86,-0.43 c 2.82,1.79 0.56,4.81 -0.2,7.01 a 1.17,1.16 -52.5 0 0 0.13,1.03 q 1.93,2.87 5.41,3.81 0.83,0.23 0.48,-0.55 l -1.23,-2.77 a 1.78,1.77 60 0 1 0.57,-2.15 q 1.48,-1.09 1.66,-2.64 c 0.32,-2.6 -7.61,-8.72 -9.44,-10.8 q -7.16,-8.16 -14.9,-15.78 a 0.44,0.44 0 0 1 0.05,-0.67 c 0.96,-0.7 10.61,8.34 11.76,9.48 3.85,3.85 8.93,8.74 13.83,11.05 q 0.94,0.45 0.67,-0.55 l -0.53,-1.91 a 1.03,1.03 0 0 1 0.05,-0.72 c 1.62,-3.55 4.38,-2.84 6.9,-4.42 q 3.23,-2.02 6.25,-4.42 a 0.82,0.8 -34.5 0 0 0.2,-1.04 c -0.84,-1.4 -2.36,-6.09 0.08,-6.74 a 0.69,0.68 -22.6 0 1 0.75,0.3 c 1.01,1.69 2.79,1.48 3.61,3.82 q 0.1,0.31 0.29,0.04 1.84,-2.74 0.43,-5.59 a 1.11,1.11 0 0 1 -0.04,-0.92 c 1.34,-3.34 -2.38,-5.15 0.4,-7.78 a 0.85,0.84 62.4 0 0 0.25,-0.81 q -0.62,-2.58 0,-5.22 a 1.51,1.47 -52.9 0 0 -0.13,-1.04 q -1.61,-3.09 0.84,-5.77 a 0.57,0.57 0 0 1 0.79,-0.04 l 1.41,1.26 a 0.81,0.8 -63.8 0 1 0.26,0.78 l -0.35,1.65 q -0.22,1.01 0.7,0.53 1.7,-0.91 2.44,0.73 0.15,0.36 0.34,0.01 z"
         inkscape:connector-curvature="0"
         style="fill:#ffffff" />
      <path
         id="path34912"
         d="m 0,114.19 0.29,1.31 q -0.23,0.75 0.15,1.63 a 1.06,1.04 -7.2 0 0 0.8,0.61 q 3.8,0.59 5.3,4.05 a 1.19,1.17 -0.5 0 0 0.62,0.6 q 3.19,1.32 6.57,0.84 a 0.81,0.81 0 0 0 0.68,-0.65 q 0.56,-3.14 4.35,-2.6 5.3,0.75 11.51,-0.55 a 0.57,0.56 76.5 0 1 0.66,0.41 l 0.54,2.02 a 0.5,0.49 76.5 0 1 -0.37,0.61 c -0.99,0.23 -17.52,3.02 -17.56,3.92 a 0.49,0.49 0 0 0 0.54,0.51 l 21.79,-2.57 q 2.13,-0.25 1.8,-2.37 l -0.71,-4.52 q -0.12,-0.8 0.62,-0.49 l 3.02,1.27 a 0.74,0.74 0 0 0 0.83,-0.18 l 1.03,-1.11 a 0.58,0.58 0 0 1 0.7,-0.12 q 2.34,1.29 2.99,2.03 4.64,5.31 10.63,8.97 a 0.89,0.87 -41.5 0 0 0.81,0.04 q 3.01,-1.37 5.77,0.25 1.34,0.79 -0.18,1.11 l -3.86,0.82 q -1.21,0.25 -0.17,0.93 2.81,1.79 3.3,5.01 0.08,0.57 -0.45,0.35 c -4.65,-1.9 -11.08,2.3 -12.16,-5.73 a 0.72,0.72 0 0 0 -0.7,-0.63 l -8.59,-0.28 a 0.84,0.83 -77.9 0 0 -0.8,0.52 l -0.52,1.27 a 0.59,0.59 0 0 0 0.25,0.74 q 4.41,2.5 9.35,0.87 a 0.57,0.57 0 0 1 0.7,0.31 l 0.83,1.88 q 0.78,1.76 -1.08,1.25 l -5.1,-1.4 q -0.47,-0.13 -0.88,-0.38 c -2.57,-1.51 -5.23,1.81 -7.44,3 a 1.07,1.07 0 0 1 -0.92,0.04 c -1.32,-0.56 -3.76,-3.89 -5.04,-5.06 a 1.05,1.04 -28.1 0 0 -0.87,-0.26 q -1.89,0.27 -3.5,1.15 c -1.25,0.69 -1.62,2.28 -3.76,1.93 a 1.52,1.49 -53.1 0 0 -0.92,0.14 q -0.84,0.4 -2.41,0.42 -4.51,0.05 -18.44,1.34 z m 55.3655,19.0903 a 1.53,0.81 49.9 0 0 -0.3659,-1.692 1.53,0.81 49.9 0 0 -1.6051,-0.6486 1.53,0.81 49.9 0 0 0.3659,1.692 1.53,0.81 49.9 0 0 1.6051,0.6486 z"
         inkscape:connector-curvature="0"
         style="fill:#ffffff" />
      <path
         id="path34914"
         d="m 103.64,115.7 q 0.93,0.05 1.51,-0.73 a 0.81,0.8 23.8 0 1 0.84,-0.32 q 4.02,0.92 6.18,4.45 0.48,0.78 -0.44,0.78 l -10.49,0.09 a 0.88,0.88 0 0 1 -0.85,-0.66 q -0.26,-1.01 0.14,-2.03 a 1.42,1.39 49 0 0 0.05,-0.82 l -0.28,-1.08 a 0.73,0.72 83.9 0 1 0.72,-0.9 q 1.9,0.05 2.04,0.72 a 0.63,0.63 0 0 0 0.58,0.5 z"
         inkscape:connector-curvature="0"
         style="fill:#ffffff" />
      <path
         id="path34916"
         d="m 67,118.51 c -0.68,1.65 -4.35,-1.92 -5.14,-2.51 q -0.84,-0.64 0.21,-0.52 2.23,0.25 4.21,1.33 0.41,0.22 0.87,0.23 2.43,0.04 4.23,1.67 a 0.36,0.35 44.4 0 1 0.01,0.52 l -0.2,0.21 a 0.32,0.07 20.9 0 1 -0.28,-0.04 l -3.27,-1.17 A 0.5,0.5 0 0 0 67,118.51 Z"
         inkscape:connector-curvature="0"
         style="fill:#ffffff" />
      <path
         id="path34918"
         d="m 450,121.06 0.05,1.8 -2.26,2.29 a 0.52,0.52 0 0 0 -0.01,0.72 q 1.49,1.63 2.22,3.69 v 3.75 l -3.24,1.27 a 0.68,0.68 0 0 1 -0.83,-0.27 q -0.81,-1.31 -0.83,-2.84 -0.02,-1.07 0.66,-0.24 1.22,1.47 2.53,0.63 a 0.53,0.53 0 0 0 0.14,-0.77 l -4.7,-6.17 a 1.01,1.01 0 0 1 0.45,-1.56 l 1.6,-0.61 a 0.43,0.42 57.4 0 0 0.15,-0.69 l -1.08,-1.12 a 0.84,0.84 0 0 1 -0.16,-0.91 l 0.53,-1.25 a 0.81,0.79 12 0 1 0.77,-0.49 q 2.87,0.1 4.01,2.77 z"
         inkscape:connector-curvature="0"
         style="fill:#dddddd" />
      <path
         id="path34920"
         d="m 92.73,121.66 q 1.02,0.56 -0.1,0.88 l -0.66,0.18 a 1.76,1.69 -43.9 0 1 -0.93,0 q -2.34,-0.69 -4.72,-0.24 a 0.64,0.64 0 0 1 -0.72,-0.4 c -1.48,-3.68 6.09,-0.99 7.13,-0.42 z"
         inkscape:connector-curvature="0"
         style="fill:#ffffff" />
      <path
         id="path34922"
         d="m 69.41,125.79 q -1.77,-1.55 -2.19,-3.89 a 0.43,0.43 0 0 1 0.48,-0.5 c 5.36,0.78 11.07,1.05 15.3,4.74 a 0.8,0.8 0 0 1 0.22,0.89 q -0.63,1.59 0.21,3.09 a 0.43,0.43 0 0 1 -0.18,0.59 c -8.89,4.68 -10.31,-2.9 -17.37,-2.3 a 0.39,0.38 -86.2 0 1 -0.41,-0.47 c 0.14,-0.58 3.09,-0.8 3.91,-1.39 a 0.48,0.48 0 0 0 0.03,-0.76 z"
         inkscape:connector-curvature="0"
         style="fill:#ffffff" />
      <path
         id="path34924"
         d="m 450.05,122.86 -0.05,6.7 q -0.73,-2.06 -2.22,-3.69 a 0.52,0.52 0 0 1 0.01,-0.72 z"
         inkscape:connector-curvature="0"
         style="fill:#ffffff" />
      <path
         id="path34926"
         d="m 113.98,168.89 c 0.49,6.91 0.34,13 -3.56,19.03 -6.27,9.66 -17.36,17.4 -29.21,15.96 -6.55,-0.79 -10.86,-4.5 -12.06,-10.94 -1.17,-6.25 2.6,-9.18 5.66,-13.51 a 1.53,1.52 -28.1 0 0 0.28,-0.91 L 74.96,166 q 0.08,-7.99 0.03,-16 c -0.02,-4.87 1.47,-7.77 5.32,-10.32 q 2.15,-1.43 -0.14,-0.27 -1.84,0.93 -3.56,2.05 -0.58,0.37 -0.48,-0.3 c 0.69,-4.93 9.26,-10.18 13.37,-12.12 l 4.75,-2.08 q 4.82,-1.94 9.95,-2.02 a 0.64,0.63 81.7 0 1 0.62,0.47 c 2.54,9.98 -0.75,18.6 -5.66,27.12 q -0.97,1.69 0.93,1.24 c 12.75,-2.98 13,6.22 13.89,15.12 z M 85,138.25 v 21.2 a 0.34,0.34 0 0 0 0.47,0.32 c 9.67,-3.78 10.9,-15.21 9.53,-24.04 a 0.88,0.87 84.4 0 0 -0.89,-0.74 q -4.53,0.15 -8.49,2.23 A 1.17,1.17 0 0 0 85,138.25 Z m 3.67,33.59 -3.35,3.51 A 1.14,1.13 67.1 0 0 85,176.14 l 0.04,15.83 a 1.46,1.46 0 0 0 1.12,1.42 c 4.61,1.13 16.3,1.98 17.63,-4.36 1,-4.81 1.24,-23.73 -6.5,-25.95 -5.32,-1.53 -10.36,3.24 -12.49,7.75 -0.02,0.05 0.02,0.58 0.06,0.65 a 0.37,0.36 -20.6 0 0 0.4,0.17 l 2.93,-0.66 q 1.65,-0.38 0.48,0.85 z"
         inkscape:connector-curvature="0"
         style="fill:#090909" />
      <path
         id="path34928"
         d="m 94.25,126.96 -4.75,2.08 q -1.41,-0.69 -2.4,-1.84 a 0.81,0.8 -52.2 0 1 -0.11,-0.9 l 0.29,-0.6 a 0.73,0.73 0 0 1 0.83,-0.38 l 3.19,0.8 a 1.76,1.75 -47.2 0 0 0.97,-0.04 q 1.34,-0.46 1.98,0.88 z"
         inkscape:connector-curvature="0"
         style="fill:#ffffff" />
      <path
         id="path34930"
         d="m 184.29,158.5 c -0.17,2.49 -1.53,23.04 1.87,22.54 a 1.71,1.69 4.6 0 0 1.39,-1.17 q 3.84,-12.05 5.45,-22.33 1.26,-6.95 1.98,-13.95 c 0.55,-5.27 4.12,-9.4 8.71,-11.5 a 0.93,0.93 0 0 1 1.31,0.84 l 0.04,9.07 c -0.03,20.83 1.56,43.86 -2.17,64.02 -2.37,12.83 -13.48,29.33 -28.43,29.17 -7.25,-0.09 -10.61,-4.13 -13.18,-10.42 q -5.77,-14.11 6.33,-23.61 5.54,-4.35 10.74,-4.92 a 0.66,0.66 0 0 1 0.7,0.45 c 0.25,0.8 -6.96,7.62 -7.76,8.42 q -1.48,1.47 -1.5,3.56 c -0.08,10.42 6.94,18.15 18.1,16.31 a 2.64,2.61 -81.4 0 0 1.92,-1.43 c 5.79,-11.77 5.83,-31.57 5.01,-44.42 q -0.05,-0.79 -0.48,-0.13 c -2.47,3.76 -10,13.38 -14.97,12.89 -4.12,-0.4 -5.3,-3.44 -5.35,-7.34 q -0.13,-10.43 0.46,-20.8 1.61,-13.77 4.6,-27.41 a 0.6,0.59 -87.2 0 0 -0.65,-0.73 l -13.37,1.49 a 1.16,1.16 0 0 0 -1.03,1.15 l 0.03,26 -0.03,21.18 a 3.84,3.81 61.8 0 1 -0.62,2.09 q -3.01,4.61 -7.69,7.47 -1.71,1.04 -1.71,-0.96 l -0.03,-29.53 -0.03,-23.25 a 0.38,0.38 0 0 0 -0.5,-0.36 q -15.6,5.23 -30.08,12.98 -0.52,0.28 -0.36,-0.28 c 1.73,-6.15 12.45,-12.18 17.72,-14.43 15.41,-6.6 28.02,-11.58 43.1,-13.29 q 2.59,-0.29 3.89,-0.04 1.85,0.37 1.41,2.2 -3.63,15.29 -4.82,30.47 z"
         inkscape:connector-curvature="0"
         style="fill:#090909" />
      <path
         id="path34932"
         d="m 277.79,144.75 q -10.58,12.65 -18.97,26.87 -2.44,4.12 -4.12,9.57 -0.08,0.24 -0.28,0.29 a 0.33,0.32 -6.5 0 1 -0.4,-0.31 c -0.08,-14.98 2.08,-30.55 3.94,-45.53 q 0.28,-2.29 -1.79,-1.29 c -3.86,1.86 -6.15,5.31 -8.8,8.76 q -6.85,8.91 -12.83,18.42 -0.28,0.44 -0.47,-0.04 l -8.57,-20.95 c 2.7,-0.08 5.59,1.22 8.12,-0.22 a 0.56,0.56 0 0 0 0.24,-0.72 c -1.54,-3.49 -5.43,-3.78 -8.82,-2.85 V 132 c 3.68,-0.6 6.85,-0.82 10.51,-2.32 2.54,-1.05 3.58,-1.55 6.63,-1.31 3.21,0.25 6.19,-1.28 8.77,-1.33 q 3.37,-0.06 6.57,1.11 a 1.93,1.9 50 0 0 0.96,0.09 c 5.66,-1.04 8.65,4.65 11.61,8.28 1.67,2.05 3.64,3.17 5.74,4.69 a 1.36,1.36 0 0 1 0.52,0.77 q 0.42,1.56 1.44,2.77 z"
         inkscape:connector-curvature="0"
         style="fill:#ffffff" />
      <ellipse
         id="ellipse34934"
         ry="0.81"
         rx="1.53"
         transform="rotate(49.9,-114.78875,124.49724)"
         cy="0"
         cx="0"
         style="fill:#dddddd" />
      <path
         id="path34936"
         d="m 85.62,137.22 q 3.96,-2.08 8.49,-2.23 a 0.88,0.87 84.4 0 1 0.89,0.74 c 1.37,8.83 0.14,20.26 -9.53,24.04 A 0.34,0.34 0 0 1 85,159.45 v -21.2 a 1.17,1.17 0 0 1 0.62,-1.03 z"
         inkscape:connector-curvature="0"
         style="fill:#dddddd" />
      <path
         id="path34938"
         d="m 174.46,163.75 -10.42,0.5 -0.03,-26 a 1.16,1.16 0 0 1 1.03,-1.15 l 13.37,-1.49 a 0.6,0.59 -87.2 0 1 0.65,0.73 q -2.99,13.64 -4.6,27.41 z"
         inkscape:connector-curvature="0"
         style="fill:#dddddd" />
      <path
         id="path34940"
         d="m 225.5,140.54 q -0.79,-1.8 -0.46,-3.79 c 3.39,-0.93 7.28,-0.64 8.82,2.85 a 0.56,0.56 0 0 1 -0.24,0.72 c -2.53,1.44 -5.42,0.14 -8.12,0.22 z"
         inkscape:connector-curvature="0"
         style="fill:#dddddd" />
      <path
         id="path34942"
         d="m 26.14,149.69 c 1.81,-1.76 -2.03,-5.73 -3.57,-6.96 -1.49,-1.19 -1.98,-2.68 -3.1,-4.15 a 0.68,0.67 45.4 0 1 0,-0.83 q 0.84,-1.04 3.62,-0.28 1.63,0.45 2.75,1.72 2.62,3.01 6.51,4.1 a 0.62,0.61 5.7 0 1 0.44,0.53 l 0.23,2.3 a 0.51,0.51 0 0 1 -0.47,0.56 q -3.63,0.32 -5.49,3.49 -1.09,1.85 -2.56,0.28 -3.61,-3.88 -8.25,-6.43 a 2.2,2.19 9.6 0 1 -1.11,-1.55 l -0.12,-0.65 q -0.25,-1.42 0.85,-0.49 l 2.73,2.26 q 0.39,0.34 0.9,0.46 2.72,0.67 4.36,2.87 c 0.53,0.72 0.65,1.99 1.51,2.77 a 0.57,0.56 44.6 0 0 0.77,0 z"
         inkscape:connector-curvature="0"
         style="fill:#ffffff" />
      <path
         id="path34944"
         d="m 70.74,140.17 q 2.31,0.34 0.37,1.65 -3.48,2.35 -7.72,2.67 a 1.03,1.02 68.5 0 1 -0.88,-0.39 q -1.84,-2.35 -4.73,-2.98 a 0.57,0.57 0 0 1 -0.45,-0.63 l 0.22,-1.77 a 0.45,0.45 0 0 1 0.51,-0.39 z"
         inkscape:connector-curvature="0"
         style="fill:#ffffff" />
      <path
         id="path34946"
         d="m 7.9,143.56 0.18,-0.55 a 0.23,0.22 -87.1 0 1 0.15,-0.14 c 2.04,-0.55 5.64,3.85 7.04,5.21 a 0.37,0.36 44.4 0 1 0.01,0.52 l -0.18,0.18 a 0.34,0.34 0 0 1 -0.38,0.06 l -5.53,-2.75 q -0.47,-0.24 -0.88,-0.58 -1.18,-1.02 -0.66,-1.54 0.17,-0.18 0.25,-0.41 z"
         inkscape:connector-curvature="0"
         style="fill:#ffffff" />
      <path
         id="path34948"
         d="m 281.48,145.23 q 1.52,-2.02 1.52,0.51 v 21.58 a 0.6,0.6 0 0 1 -0.56,0.6 l -16.07,1.25 q -0.74,0.06 -0.37,-0.59 7,-12.17 15.48,-23.35 z"
         inkscape:connector-curvature="0"
         style="fill:#ffffff" />
      <path
         id="path34950"
         d="m 25.63,156.23 q 1.1,1.73 -0.79,0.94 -1.96,-0.83 -3.65,-2.17 -0.78,-0.62 0.21,-0.74 2.78,-0.35 4.23,1.97 z"
         inkscape:connector-curvature="0"
         style="fill:#ffffff" />
      <path
         id="path34952"
         d="m 193,157.54 q -1.61,10.28 -5.45,22.33 a 1.71,1.69 4.6 0 1 -1.39,1.17 c -3.4,0.5 -2.04,-20.05 -1.87,-22.54 z"
         inkscape:connector-curvature="0"
         style="fill:#ffffff" />
      <path
         id="path34954"
         d="m 325.96,183 q -1.44,0.09 -2.08,-1.15 a 0.83,0.82 75.1 0 0 -0.74,-0.43 q -1.53,0.01 -2.33,-1.26 A 0.93,0.93 0 0 0 320,179.72 q -3.09,0.04 -3.98,-2.74 a 0.89,0.87 56.2 0 1 0.15,-0.81 l 2.47,-3.07 a 0.63,0.62 43.1 0 0 -0.03,-0.82 c -1.68,-1.79 -3.97,-4.44 -6.57,-4.28 l 0.07,-4.04 a 0.67,0.67 0 0 1 0.59,-0.65 q 6.19,-0.81 11.59,-3.96 a 0.37,0.37 0 0 1 0.56,0.3 c 0.3,7.65 -0.64,15.94 1.11,23.35 z"
         inkscape:connector-curvature="0"
         style="fill:#dddddd" />
      <path
         id="path34956"
         d="m 341.21,162.75 -1.4,15.33 q -0.13,1.44 -1.08,0.35 c -3.99,-4.57 -3.72,-9.3 -3.92,-16.34 z"
         inkscape:connector-curvature="0"
         style="fill:#ffffff" />
      <path
         id="path34958"
         d="m 369.75,162.21 q 2.76,3.65 1.1,7.01 a 1.91,1.91 0 0 0 0.38,2.22 c 3.22,3.15 8.15,8.25 12.31,9.86 q 1.51,0.59 2.96,1.41 c -8.8,5.03 -19.68,4.87 -29.98,4.28 q -0.5,-0.03 -0.19,-0.42 c 4.41,-5.62 2.79,-14.81 1.56,-21.33 a 1.01,1 79.8 0 1 0.81,-1.18 z m 5.7626,19.3668 a 4.09,0.96 50.3 0 0 -1.874,-3.76 4.09,0.96 50.3 0 0 -3.3512,-2.5336 4.09,0.96 50.3 0 0 1.874,3.76 4.09,0.96 50.3 0 0 3.3512,2.5336 z"
         inkscape:connector-curvature="0"
         style="fill:#ffffff" />
      <path
         id="path34960"
         d="m 88.19,170.99 -2.93,0.66 a 0.37,0.36 -20.6 0 1 -0.4,-0.17 c -0.04,-0.07 -0.08,-0.6 -0.06,-0.65 2.13,-4.51 7.17,-9.28 12.49,-7.75 7.74,2.22 7.5,21.14 6.5,25.95 -1.33,6.34 -13.02,5.49 -17.63,4.36 a 1.46,1.46 0 0 1 -1.12,-1.42 L 85,176.14 a 1.14,1.13 67.1 0 1 0.32,-0.79 l 3.35,-3.51 q 1.17,-1.23 -0.48,-0.85 z"
         inkscape:connector-curvature="0"
         style="fill:#ffffff" />
      <path
         id="path34962"
         d="m 299.52,186.9 q -4.85,-6.13 -5.73,-13.99 a 0.78,0.77 70.5 0 1 0.35,-0.75 l 7.31,-4.69 q 0.55,-0.35 0.55,0.3 v 18.26 q 0,4.01 -2.48,0.87 z"
         inkscape:connector-curvature="0"
         style="fill:#ffffff" />
      <path
         id="path34964"
         d="m 225.63,174.64 -1.95,2.16 q -1.19,1.32 -1.3,-0.45 l -0.47,-8.01 a 0.32,0.32 0 0 1 0.33,-0.34 h 0.26 a 0.14,0.14 0 0 1 0.12,0.07 l 3.14,5.42 a 0.98,0.97 -38.8 0 1 -0.13,1.15 z"
         inkscape:connector-curvature="0"
         style="fill:#ffffff" />
      <ellipse
         id="ellipse34966"
         ry="0.95999998"
         rx="4.0900002"
         transform="rotate(50.3,-3.5717772,486.3406)"
         cy="0"
         cx="0"
         style="fill:#dddddd" />
    </g>
  </g>
</svg>
