<?xml version="1.0" encoding="UTF-8" standalone="no"?>
<!DOCTYPE svg PUBLIC "-//W3C//DTD SVG 1.1//EN" "http://www.w3.org/Graphics/SVG/1.1/DTD/svg11.dtd">
<svg xmlns="http://www.w3.org/2000/svg" version="1.1" viewBox="0 0 449 250">
<g stroke-width="2.00" fill="none" stroke-linecap="butt">
<path stroke="#ebebeb" vector-effect="non-scaling-stroke" d="
  M 69.56 0.00
  L 71.28 7.06
  A 0.52 0.51 -17.3 0 0 71.96 7.41
  L 73.01 7.00
  A 0.51 0.50 -27.7 0 0 73.25 6.24
  L 72.47 5.12
  A 0.47 0.46 -33.5 0 1 72.61 4.47
  L 72.87 4.31
  A 0.60 0.60 0.0 0 1 73.60 4.40
  Q 76.13 6.92 73.74 9.40
  A 1.56 1.54 -20.9 0 0 73.32 10.32
  Q 72.34 19.86 73.71 29.29
  C 74.39 33.95 79.24 40.82 77.14 45.37
  A 0.70 0.69 -74.5 0 1 76.44 45.77
  Q 74.13 45.53 72.62 47.24
  Q 72.07 47.86 72.04 47.03
  L 72.00 46.17
  A 0.60 0.59 81.6 0 1 72.44 45.57
  C 74.61 45.01 72.48 41.59 72.10 40.23
  C 71.35 37.57 70.01 35.25 69.60 32.42
  C 69.34 30.64 68.46 29.69 67.36 28.40
  Q 67.03 28.01 67.00 28.53
  C 66.88 31.09 67.73 33.30 67.66 35.85
  Q 67.49 42.47 71.54 47.86
  A 1.53 1.51 -65.1 0 1 71.85 48.72
  Q 71.99 51.64 74.60 53.08
  A 0.84 0.83 16.8 0 1 75.03 53.87
  L 74.90 55.42
  Q 74.79 56.80 74.11 55.59
  L 72.98 53.57
  Q 72.50 52.70 72.45 53.69
  C 72.10 60.95 78.33 72.87 81.64 79.47"
/>
<path stroke="#858585" vector-effect="non-scaling-stroke" d="
  M 81.64 79.47
  L 81.71 95.05
  A 0.56 0.56 0.0 0 1 81.16 95.61
  L 64.85 96.10
  A 1.76 1.75 -3.7 0 1 63.05 94.52
  Q 62.46 88.69 62.38 83.00
  Q 61.96 50.75 61.86 18.88
  A 0.62 0.61 77.5 0 0 60.99 18.32
  C 55.42 20.88 52.50 24.64 52.48 30.94
  Q 52.38 60.69 52.89 90.44
  Q 52.99 96.29 53.72 102.83
  Q 54.00 105.34 56.53 105.24
  L 81.22 104.21
  A 0.51 0.50 -1.1 0 1 81.75 104.71
  L 81.75 111.06
  Q 81.75 112.06 82.56 111.47
  Q 87.78 107.65 91.40 102.34
  C 93.12 99.80 98.61 95.34 97.24 92.12
  A 0.39 0.39 0.0 0 0 96.67 91.95
  L 92.48 94.72
  Q 91.26 95.53 91.26 94.06
  L 91.29 79.25"
/>
<path stroke="#ebebeb" vector-effect="non-scaling-stroke" d="
  M 91.29 79.25
  L 93.67 79.35
  A 0.70 0.69 -4.1 0 1 94.33 79.92
  L 94.63 81.45
  A 1.19 1.16 14.0 0 0 95.08 82.18
  C 100.64 86.37 102.24 92.49 104.25 98.47
  Q 105.40 101.89 107.93 104.58
  Q 108.86 105.57 108.79 107.00"
/>
<path stroke="#858585" vector-effect="non-scaling-stroke" d="
  M 108.79 107.00
  L 107.94 110.13
  A 0.42 0.42 0.0 0 0 108.31 110.65
  L 110.25 110.79"
/>
<path stroke="#ebebeb" vector-effect="non-scaling-stroke" d="
  M 110.25 110.79
  Q 111.62 110.87 112.96 112.79
  Q 121.31 124.69 135.62 139.08
  C 136.10 139.56 136.96 139.88 137.54 140.25"
/>
<path stroke="#858585" vector-effect="non-scaling-stroke" d="
  M 137.54 140.25
  C 123.16 151.96 118.30 170.64 118.44 188.35
  A 1.64 1.63 1.6 0 1 116.70 189.99
  Q 112.15 189.70 108.68 186.85
  A 1.38 1.37 -75.7 0 1 108.20 186.03
  Q 106.89 178.53 107.04 170.96
  Q 107.08 168.56 108.84 166.93
  Q 122.40 154.40 132.94 139.21
  A 0.37 0.36 36.9 0 0 132.86 138.71
  C 131.17 137.39 124.82 144.79 123.86 146.10
  Q 116.56 156.03 107.63 164.46
  Q 107.21 164.85 107.21 164.28
  L 107.09 141.93
  Q 107.08 141.36 106.60 141.67
  L 81.45 158.00
  A 0.40 0.39 -18.6 0 1 80.84 157.70
  Q 80.16 148.31 76.82 139.56
  Q 76.15 137.82 74.33 138.20
  Q 72.55 138.57 70.14 140.11
  C 57.30 148.30 43.54 162.67 45.19 179.22
  A 0.35 0.35 0.0 0 0 45.73 179.47
  Q 50.59 176.12 53.98 171.29
  A 1.63 1.63 0.0 0 0 54.27 170.27
  C 53.79 161.47 57.39 151.16 66.05 147.40
  A 1.06 1.05 -21.3 0 1 67.47 148.02
  Q 70.17 155.83 71.41 164.03
  A 1.87 1.85 68.0 0 1 70.66 165.82
  C 63.23 171.15 27.22 202.70 66.84 196.84
  C 74.33 195.73 82.50 190.42 82.72 182.25
  Q 82.98 172.71 81.72 163.10
  A 1.80 1.80 0.0 0 1 82.57 161.33
  L 97.12 152.40
  Q 97.75 152.02 97.75 152.76
  L 97.75 172.46
  A 1.79 1.78 -28.2 0 1 97.45 173.45
  Q 90.43 183.72 97.04 193.53
  C 99.06 196.53 99.12 199.36 100.12 202.79
  Q 100.77 205.05 102.39 203.35
  C 104.52 201.13 107.52 199.44 110.97 199.50
  Q 118.46 199.63 125.28 196.62
  C 128.75 195.09 132.59 196.12 136.02 194.78
  C 144.66 191.41 150.14 185.12 156.65 178.84
  A 0.30 0.29 59.5 0 1 157.14 178.97
  L 160.08 189.43
  A 1.69 1.67 -44.7 0 1 160.07 190.33
  Q 159.75 191.43 160.75 192.04"
/>
<path stroke="#ebebeb" vector-effect="non-scaling-stroke" d="
  M 160.75 192.04
  C 160.93 193.93 153.22 201.08 151.57 202.45
  A 0.73 0.72 -31.1 0 0 151.36 203.27
  C 152.44 206.02 167.36 189.92 169.38 189.80
  Q 170.48 189.74 171.64 190.15
  Q 172.30 190.39 171.76 190.84
  Q 171.07 191.43 170.41 192.20
  Q 169.29 193.55 170.64 192.43
  L 172.36 191.02
  Q 174.34 189.40 172.88 191.50
  Q 167.34 199.43 159.40 204.90
  Q 158.73 205.36 158.74 204.55
  L 158.75 204.10
  A 0.59 0.58 -10.0 0 1 159.14 203.55
  Q 159.70 203.34 159.98 202.82
  Q 160.46 201.94 159.52 202.31
  C 156.98 203.32 151.05 205.39 148.48 205.02
  Q 146.19 204.69 144.67 206.43
  Q 141.29 210.29 141.74 215.44
  A 1.70 1.68 57.4 0 1 141.53 216.43
  C 136.43 225.53 125.84 233.74 117.40 239.67
  Q 116.97 239.97 117.00 239.45
  L 117.02 239.02
  Q 117.12 237.12 115.86 238.55
  L 106.95 248.76
  A 0.71 0.70 43.5 0 0 106.98 249.72
  Q 107.15 249.90 107.44 250.00"
/>
<path stroke="#ebebeb" vector-effect="non-scaling-stroke" d="
  M 63.31 0.49
  C 62.27 0.77 62.37 1.73 62.84 2.54
  Q 64.37 5.16 63.97 8.26
  A 0.62 0.61 -71.9 0 0 64.27 8.87
  L 64.56 9.04
  A 0.26 0.25 -72.2 0 0 64.94 8.84
  Q 65.28 6.00 64.29 3.34
  A 1.79 1.73 -50.0 0 1 64.22 2.35
  Q 64.37 1.63 64.18 0.99
  A 0.71 0.70 74.5 0 0 63.31 0.49"
/>
<path stroke="#858585" vector-effect="non-scaling-stroke" d="
  M 103.62 101.67
  C 99.56 103.22 94.32 107.80 94.26 112.26
  Q 94.19 117.88 94.27 145.22
  A 0.34 0.33 -11.8 0 0 94.74 145.52
  C 100.26 143.19 104.26 138.81 104.28 132.60
  Q 104.33 117.35 104.10 102.00
  A 0.36 0.35 79.1 0 0 103.62 101.67"
/>
<path stroke="#ebebeb" vector-effect="non-scaling-stroke" d="
  M 140.31 0.00
  L 141.14 0.34
  A 0.82 0.82 0.0 0 1 141.65 1.00
  Q 143.17 12.51 144.75 24.04
  Q 144.99 25.74 144.90 27.51
  Q 144.83 29.03 144.77 30.60
  A 0.98 0.95 -67.8 0 0 145.07 31.35
  L 147.32 33.47
  A 0.62 0.61 47.6 0 1 147.28 34.40
  Q 145.92 35.48 145.67 33.86
  Q 145.49 32.76 145.16 33.82
  Q 143.80 38.18 147.46 39.75"
/>
<path stroke="#717171" vector-effect="non-scaling-stroke" d="
  M 147.46 39.75
  L 145.90 46.45
  A 1.18 1.17 34.6 0 0 146.07 47.36
  C 148.19 50.44 150.80 46.41 152.46 45.25"
/>
<path stroke="#ebebeb" vector-effect="non-scaling-stroke" d="
  M 152.46 45.25
  Q 155.96 53.18 160.97 60.19
  C 163.19 63.30 164.50 66.50 166.31 69.79
  A 0.92 0.92 0.0 0 0 167.03 70.25
  L 167.50 70.29"
/>
<path stroke="#717171" vector-effect="non-scaling-stroke" d="
  M 167.50 70.29
  Q 161.69 78.93 154.82 86.95
  Q 154.25 87.62 154.25 86.74
  L 154.25 57.45
  Q 154.25 55.37 152.45 56.42
  C 148.74 58.57 144.73 61.84 144.74 66.44
  Q 144.76 82.97 144.75 99.20
  Q 144.75 101.25 142.70 101.25
  L 119.81 101.25
  A 0.70 0.69 -0.4 0 1 119.11 100.57
  L 118.62 81.68
  A 1.02 1.01 75.9 0 1 119.18 80.74
  Q 124.54 78.03 130.30 76.32
  C 135.89 74.66 139.78 70.87 142.91 66.22
  Q 143.47 65.39 142.51 65.67
  Q 131.24 68.90 120.67 74.04
  Q 118.84 74.93 118.35 72.96
  Q 118.17 72.21 119.08 70.86
  C 120.79 68.33 131.48 65.43 134.64 64.63
  C 135.72 64.36 136.10 64.66 137.02 65.07
  A 0.89 0.89 0.0 0 0 137.91 64.95
  Q 142.65 61.27 145.79 56.21
  A 0.64 0.64 0.0 0 0 145.27 55.23
  Q 143.74 55.18 142.06 55.59
  Q 121.20 60.65 105.97 75.91
  A 2.36 2.34 -28.7 0 0 105.33 78.07
  L 105.39 78.33
  A 0.63 0.62 -25.5 0 0 106.40 78.68
  L 108.29 77.15
  A 0.42 0.42 0.0 0 1 108.94 77.32
  C 109.87 79.67 106.05 83.61 104.78 85.67
  Q 104.08 86.79 105.33 86.35
  L 108.34 85.28
  A 0.47 0.46 80.3 0 1 108.96 85.72
  Q 108.92 95.91 109.01 105.92
  Q 109.01 106.50 108.79 107.00"
/>
<path stroke="#717171" vector-effect="non-scaling-stroke" d="
  M 91.29 79.25
  C 90.89 61.22 92.20 38.58 91.94 16.61
  A 0.42 0.41 77.1 0 0 91.35 16.24
  Q 86.31 18.64 83.39 23.44
  A 4.77 4.76 60.3 0 0 82.70 25.98
  Q 82.90 40.97 82.13 55.52
  C 81.69 63.68 81.80 71.47 81.64 79.47"
/>
<path stroke="#ebebeb" vector-effect="non-scaling-stroke" d="
  M 78.30 50.68
  Q 76.86 49.61 77.69 51.20
  L 80.25 56.11
  Q 80.49 56.58 80.75 56.11
  C 81.61 54.53 79.51 51.58 78.30 50.68"
/>
<path stroke="#ebebeb" vector-effect="non-scaling-stroke" d="
  M 311.81 0.00
  L 310.20 0.43
  A 0.83 0.82 88.9 0 0 309.62 1.04
  C 305.99 17.31 299.36 29.74 290.91 44.96
  A 1.59 1.57 -33.3 0 0 290.71 45.90
  Q 290.94 48.66 288.81 50.06"
/>
<path stroke="#858585" vector-effect="non-scaling-stroke" d="
  M 288.81 50.06
  C 283.39 49.16 274.38 48.08 269.46 50.87
  C 260.97 55.68 254.67 64.84 251.90 74.03
  A 0.82 0.81 30.3 0 1 250.55 74.38
  C 249.92 73.77 252.05 60.69 252.31 58.45
  Q 252.54 56.37 250.64 57.24
  C 242.31 61.03 242.88 68.40 241.84 76.01
  A 1.34 1.32 -3.3 0 1 240.84 77.12
  L 229.68 79.91
  A 0.55 0.54 -7.1 0 1 229.00 79.39
  L 229.00 53.38
  A 0.60 0.59 -86.1 0 0 228.49 52.79
  Q 227.79 52.69 226.32 53.28
  Q 226.23 53.31 226.31 53.26
  Q 228.58 51.72 229.16 49.07
  A 0.43 0.42 -82.5 0 0 228.77 48.55
  C 226.78 48.47 224.66 48.41 222.67 48.78
  Q 205.56 52.03 188.92 57.21
  C 184.97 58.44 182.83 60.65 179.99 63.41
  Q 179.34 64.04 179.68 63.20
  Q 181.79 58.00 180.33 52.56
  A 0.41 0.41 0.0 0 0 179.74 52.31
  C 174.88 54.90 172.34 58.23 171.24 63.58
  Q 170.45 67.44 167.50 70.29"
/>
<path stroke="#858585" vector-effect="non-scaling-stroke" d="
  M 152.46 45.25
  L 155.92 41.16
  A 0.89 0.87 54.0 0 0 156.05 40.27
  L 155.44 38.79
  A 1.81 1.79 39.2 0 1 155.33 37.76
  Q 157.32 27.36 164.44 19.90
  C 168.25 15.92 174.30 12.61 178.42 7.03
  A 0.48 0.48 0.0 0 0 178.29 6.33
  C 177.92 6.09 177.61 6.31 177.32 6.48
  Q 157.26 18.55 147.46 39.75"
/>
<path stroke="#ebebeb" vector-effect="non-scaling-stroke" d="
  M 160.37 55.25
  Q 160.87 55.65 161.12 56.25
  L 162.83 60.34
  A 0.51 0.50 -34.3 0 0 163.66 60.49
  L 164.00 60.13
  A 0.66 0.65 -41.3 0 0 164.06 59.29
  Q 160.43 54.35 157.95 48.70
  A 0.76 0.76 0.0 0 0 157.17 48.24
  L 156.76 48.28
  A 0.60 0.59 -11.7 0 0 156.25 49.04
  Q 157.36 52.83 160.37 55.25"
/>
<path stroke="#ebebeb" vector-effect="non-scaling-stroke" d="
  M 318.65 0.10
  Q 316.59 5.99 314.39 11.82
  C 313.84 13.28 313.88 15.00 315.79 15.12
  Q 316.30 15.15 316.03 14.72
  C 313.58 10.76 316.48 9.53 317.58 6.39
  C 318.61 3.43 319.21 0.61 321.56 0.00"
/>
<path stroke="#ebebeb" vector-effect="non-scaling-stroke" d="
  M 385.06 0.00
  Q 386.22 6.45 385.50 9.75
  Q 381.83 26.67 373.41 50.76
  Q 372.04 54.65 369.68 58.29
  C 365.29 65.03 360.34 72.06 356.97 79.37
  C 353.35 87.19 348.87 94.48 341.26 106.92
  C 338.24 111.85 333.98 123.36 329.53 126.45
  Q 329.09 126.75 329.34 126.28
  Q 332.96 119.45 336.48 112.56
  C 337.22 111.12 339.10 110.01 338.64 107.72
  Q 338.54 107.22 338.18 107.60
  C 332.07 114.15 326.62 121.24 322.67 129.31
  C 319.68 135.44 317.20 141.29 311.29 145.25"
/>
<path stroke="#717171" vector-effect="non-scaling-stroke" d="
  M 311.29 145.25
  L 311.32 138.54
  A 0.38 0.37 79.0 0 0 310.81 138.19
  Q 306.92 139.77 303.96 143.96
  Q 296.91 153.95 290.11 162.89
  Q 289.04 164.29 289.31 162.55
  L 293.74 134.09
  Q 294.25 130.81 291.08 131.81
  L 275.31 136.76
  A 0.41 0.41 0.0 0 1 274.81 136.50
  L 274.20 134.66
  A 0.69 0.69 0.0 0 0 273.42 134.20
  Q 262.88 136.12 253.88 141.87
  A 0.51 0.51 0.0 0 1 253.14 141.65
  C 248.73 132.07 237.23 134.19 231.25 140.54"
/>
<path stroke="#cbcbcb" vector-effect="non-scaling-stroke" d="
  M 231.25 140.54
  L 230.84 140.49
  A 0.70 0.68 -10.7 0 1 230.31 140.14
  Q 228.77 137.40 225.54 136.75"
/>
<path stroke="#717171" vector-effect="non-scaling-stroke" d="
  M 225.54 136.75
  L 225.15 135.76
  A 0.79 0.77 80.0 0 0 224.46 135.27
  C 221.75 135.21 219.34 134.99 216.71 135.95
  Q 204.07 140.56 199.33 143.59
  C 196.41 145.47 187.43 151.42 186.31 156.34
  Q 186.07 157.41 186.88 156.67
  L 188.45 155.26
  Q 189.99 153.87 189.99 155.95
  Q 189.99 171.72 190.02 187.44
  C 190.03 189.89 190.47 192.05 191.07 194.34
  A 1.61 1.61 0.0 0 0 193.23 195.42
  Q 194.45 194.92 195.75 195.79"
/>
<path stroke="#cbcbcb" vector-effect="non-scaling-stroke" d="
  M 195.75 195.79
  Q 196.03 197.04 195.35 198.39
  A 0.71 0.70 -53.6 0 0 195.47 199.20
  C 202.65 206.54 213.15 213.34 221.44 218.22
  A 0.96 0.95 -39.6 0 0 222.26 218.29
  Q 223.97 217.67 223.47 215.82
  A 1.42 1.39 8.0 0 0 222.83 214.99
  L 219.26 212.92
  A 0.47 0.47 0.0 0 1 219.22 212.14
  L 222.66 209.66
  A 0.16 0.16 0.0 0 1 222.91 209.74
  L 223.01 210.05
  A 0.28 0.26 65.4 0 1 222.90 210.37
  Q 221.83 211.02 221.29 212.05
  A 0.57 0.57 0.0 0 0 221.58 212.85
  L 224.31 213.98
  Q 225.02 214.27 224.91 213.51
  L 224.57 211.20
  A 0.47 0.46 -3.7 0 1 225.04 210.67
  Q 226.46 210.72 226.71 212.50"
/>
<path stroke="#717171" vector-effect="non-scaling-stroke" d="
  M 226.71 212.50
  L 225.71 227.25"
/>
<path stroke="#ebebeb" vector-effect="non-scaling-stroke" d="
  M 225.71 227.25
  Q 222.66 227.53 222.52 230.55
  A 1.51 1.48 -23.7 0 1 222.17 231.42
  C 218.47 235.69 213.54 239.59 210.06 242.99
  Q 206.35 246.61 202.44 250.00"
/>
<path stroke="#ebebeb" vector-effect="non-scaling-stroke" d="
  M 118.44 250.00
  Q 113.68 249.21 108.94 250.00"
/>
<path stroke="#717171" vector-effect="non-scaling-stroke" d="
  M 160.75 192.04
  Q 166.06 188.06 169.93 182.69
  A 0.91 0.89 -36.8 0 0 170.06 181.85
  L 169.00 178.79"
/>
<path stroke="#ebebeb" vector-effect="non-scaling-stroke" d="
  M 169.00 178.79
  Q 172.77 179.10 173.96 175.50"
/>
<path stroke="#717171" vector-effect="non-scaling-stroke" d="
  M 173.96 175.50
  C 173.65 183.84 173.63 196.33 178.18 203.65
  A 1.27 1.27 0.0 0 0 180.06 203.95
  Q 183.66 200.95 186.98 197.17
  C 188.28 195.70 188.17 194.26 188.46 192.41
  A 0.45 0.44 -87.9 0 0 187.99 191.90
  Q 187.36 191.95 186.86 192.55
  A 0.61 0.61 0.0 0 1 186.17 192.73
  Q 185.87 192.60 185.70 192.26
  Q 184.25 189.33 184.44 187.77
  C 184.84 184.56 183.51 181.80 183.48 179.05
  Q 183.20 158.12 186.48 136.36
  Q 186.78 134.33 184.73 134.19
  Q 184.35 134.17 182.55 134.68
  C 174.64 136.89 164.33 139.65 158.41 145.62
  Q 158.06 145.98 157.94 145.49
  C 156.91 141.28 157.09 138.57 152.25 137.21"
/>
<path stroke="#ebebeb" vector-effect="non-scaling-stroke" d="
  M 152.25 137.21
  C 150.71 133.89 146.04 133.04 143.36 130.96
  A 0.58 0.58 0.0 0 0 142.58 131.03
  C 141.91 131.76 144.27 133.08 142.75 134.82
  A 0.47 0.46 43.8 0 1 142.07 134.83
  Q 140.79 133.51 139.14 132.65
  Q 138.04 132.08 138.74 133.11
  L 141.75 137.54"
/>
<path stroke="#717171" vector-effect="non-scaling-stroke" d="
  M 141.75 137.54
  L 137.54 140.25"
/>
<path stroke="#717171" vector-effect="non-scaling-stroke" d="
  M 110.25 110.79
  L 131.98 110.80
  Q 132.48 110.80 132.19 111.21
  C 130.28 113.81 128.39 115.19 127.71 118.50
  Q 127.44 119.84 128.50 118.98
  C 133.86 114.61 138.50 109.91 144.07 105.76
  Q 144.73 105.26 144.74 106.09
  L 144.75 113.24
  Q 144.76 114.93 145.97 113.75
  L 153.68 106.18
  A 1.42 1.42 0.0 0 0 154.12 105.20
  Q 154.34 100.50 154.25 95.77
  C 154.18 91.93 155.72 91.20 157.90 88.41
  Q 164.01 80.63 169.36 73.50
  Q 170.40 72.11 170.25 73.84
  Q 168.74 91.35 168.46 108.54
  C 168.42 111.03 169.02 113.25 169.87 115.47
  Q 171.11 118.71 174.15 117.05
  Q 180.11 113.80 183.75 108.11
  Q 184.11 107.55 183.45 107.68
  C 175.89 109.14 177.82 93.17 178.53 88.44"
/>
<path stroke="#ebebeb" vector-effect="non-scaling-stroke" d="
  M 178.53 88.44
  Q 185.67 92.81 189.42 100.33
  Q 190.16 101.80 190.92 102.26
  Q 192.34 103.13 193.71 102.00"
/>
<path stroke="#717171" vector-effect="non-scaling-stroke" d="
  M 193.71 102.00
  L 193.74 111.09
  Q 193.74 111.97 194.44 111.44
  L 198.77 108.14"
/>
<path stroke="#ebebeb" vector-effect="non-scaling-stroke" d="
  M 198.77 108.14
  L 213.81 121.69
  A 0.62 0.62 0.0 0 1 214.01 122.26
  L 213.96 122.59
  A 0.39 0.39 0.0 0 1 213.34 122.83
  Q 212.53 122.20 211.55 121.78
  Q 209.86 121.07 211.08 122.44
  Q 215.37 127.25 220.89 130.45
  A 1.00 0.99 47.4 0 0 221.81 130.49
  Q 225.54 128.68 228.80 124.80
  Q 229.63 123.82 231.42 123.56
  Q 231.89 123.49 231.55 123.83
  L 231.30 124.08
  Q 230.56 124.80 231.58 124.95
  L 231.94 125.00
  A 0.67 0.67 0.0 0 0 232.52 124.80
  C 234.43 122.85 237.00 122.47 238.67 120.88
  Q 241.68 118.01 243.01 114.05"
/>
<path stroke="#717171" vector-effect="non-scaling-stroke" d="
  M 243.01 114.05
  Q 248.89 109.60 252.76 103.12"
/>
<path stroke="#ebebeb" vector-effect="non-scaling-stroke" d="
  M 252.76 103.12
  L 257.04 100.50"
/>
<path stroke="#717171" vector-effect="non-scaling-stroke" d="
  M 257.04 100.50
  C 260.29 103.96 262.79 109.29 267.69 110.36
  C 277.07 112.43 282.32 108.22 289.05 101.50
  Q 304.77 85.82 304.04 62.37
  A 0.82 0.82 0.0 0 1 304.59 61.57
  L 309.86 59.74
  A 0.45 0.44 -10.4 0 1 310.46 60.15
  C 310.80 77.78 309.47 95.33 309.83 113.02
  Q 309.91 116.50 312.90 114.72
  C 314.57 113.73 320.44 108.50 320.78 105.85
  Q 320.97 104.32 320.18 104.28
  A 1.36 1.36 0.0 0 1 318.89 102.89
  L 319.92 57.79
  A 0.67 0.67 0.0 0 1 320.55 57.13
  C 324.48 56.89 337.51 57.60 340.04 55.84
  Q 344.12 53.01 346.77 48.28
  A 0.34 0.34 0.0 0 0 346.51 47.78
  Q 334.16 46.42 322.11 49.27
  C 320.21 49.72 319.40 49.13 319.89 47.10
  Q 320.27 45.54 318.99 46.51
  Q 316.41 48.46 313.87 50.48
  C 310.33 53.31 305.86 54.41 301.96 57.02
  A 0.58 0.57 49.4 0 1 301.24 56.96
  Q 295.86 51.91 288.81 50.06"
/>
<path stroke="#ebebeb" vector-effect="non-scaling-stroke" d="
  M 374.24 20.58
  A 0.27 0.26 32.2 0 0 374.30 20.83
  L 374.54 21.06
  A 0.25 0.25 0.0 0 0 374.95 20.97
  C 375.45 19.63 380.65 9.61 378.42 9.11
  A 0.57 0.57 0.0 0 0 377.75 9.49
  L 374.24 20.58"
/>
<path stroke="#ebebeb" vector-effect="non-scaling-stroke" d="
  M 242.15 121.01
  Q 241.60 120.87 241.36 121.31
  A 0.41 0.41 0.0 0 0 241.47 121.84
  Q 242.73 122.80 242.28 124.28
  Q 242.07 125.00 242.74 124.68
  L 246.19 123.05
  A 1.79 1.77 1.6 0 0 246.95 122.34
  Q 248.03 120.36 249.70 118.89
  A 0.36 0.36 0.0 0 0 249.59 118.28
  Q 244.46 116.28 242.67 120.74
  A 0.45 0.44 17.2 0 1 242.15 121.01"
/>
<path stroke="#ebebeb" vector-effect="non-scaling-stroke" d="
  M 341.19 250.00
  L 342.00 249.70
  A 0.47 0.46 67.8 0 0 342.26 249.07
  Q 340.21 244.66 338.47 240.09
  C 336.23 234.20 331.15 233.27 328.86 228.34
  Q 325.67 221.51 322.16 214.85
  C 318.29 207.50 312.43 200.78 307.79 193.50
  A 1.83 1.78 86.2 0 0 307.08 192.86
  Q 306.21 192.44 305.96 191.50"
/>
<path stroke="#858585" vector-effect="non-scaling-stroke" d="
  M 305.96 191.50
  Q 310.63 188.17 314.12 183.54
  A 0.76 0.75 -60.3 0 0 313.81 182.38
  Q 310.51 181.02 310.41 176.81
  Q 310.02 161.01 311.29 145.25"
/>
<path stroke="#858585" vector-effect="non-scaling-stroke" d="
  M 367.85 161.92
  L 367.39 135.89
  A 0.81 0.80 76.2 0 0 366.23 135.18
  C 355.47 140.48 358.10 151.99 358.45 161.58
  C 358.64 166.64 357.63 169.77 354.55 173.39
  Q 354.22 173.78 354.28 173.27
  C 355.01 166.57 355.69 156.16 353.27 149.81
  Q 352.38 147.48 349.89 147.61
  Q 342.89 147.97 336.26 150.22
  Q 335.78 150.38 336.06 149.96
  C 339.91 144.01 341.86 141.36 340.43 133.89
  A 0.69 0.68 88.2 0 0 339.84 133.33
  C 329.88 132.03 320.07 142.95 315.91 151.02
  Q 313.91 154.88 317.56 152.51
  Q 322.68 149.19 325.31 143.64
  A 1.01 0.99 9.5 0 1 326.11 143.08
  L 330.32 142.65
  A 0.71 0.70 -10.8 0 1 331.07 143.15
  C 333.44 151.65 327.14 153.78 324.00 160.09
  Q 323.34 161.41 324.70 160.83
  Q 332.07 157.71 340.00 156.91
  Q 343.71 156.53 344.36 160.18
  Q 346.35 171.32 344.42 182.01
  A 1.97 1.94 -3.5 0 1 343.06 183.53
  Q 332.07 186.82 326.46 177.21
  A 1.01 1.00 64.5 0 1 326.97 175.76
  C 331.30 174.12 338.55 170.18 339.61 165.31
  A 0.34 0.34 0.0 0 0 339.21 164.91
  Q 327.94 167.14 320.01 176.24
  C 312.86 184.44 319.39 193.36 328.75 193.73
  C 339.46 194.15 346.10 187.64 351.73 179.47
  Q 352.01 179.07 351.89 179.54
  C 350.72 184.23 348.26 196.48 356.24 196.67
  C 372.22 197.06 381.80 189.68 390.15 177.19
  Q 390.43 176.78 390.45 177.28
  C 391.00 190.13 389.85 203.31 390.90 216.03
  A 0.34 0.34 0.0 0 0 391.39 216.31
  C 395.34 214.32 399.99 210.63 400.00 206.25
  Q 400.01 169.41 399.99 132.50
  A 0.88 0.88 0.0 0 0 398.74 131.70
  C 394.73 133.54 390.87 137.23 390.63 141.99
  C 390.31 148.50 391.18 153.46 390.46 159.25
  A 0.33 0.33 0.0 0 1 389.97 159.50
  C 383.70 155.97 373.93 158.45 368.40 162.21
  Q 367.86 162.57 367.85 161.92"
/>
<path stroke="#858585" vector-effect="non-scaling-stroke" d="
  M 257.04 100.50
  C 250.22 93.91 251.51 89.21 251.19 80.50
  Q 251.13 78.75 249.99 80.08
  Q 248.72 81.54 248.60 83.58
  Q 248.00 93.87 247.54 104.26
  Q 247.51 105.01 248.14 104.60
  L 251.95 102.14
  A 0.52 0.52 0.0 0 1 252.68 102.32
  Q 252.86 102.63 252.76 103.12"
/>
<path stroke="#858585" vector-effect="non-scaling-stroke" d="
  M 243.01 114.05
  L 240.59 115.10
  A 0.84 0.82 52.5 0 1 239.75 114.98
  Q 238.16 113.69 238.26 110.75
  Q 238.67 98.62 239.88 85.65
  A 0.98 0.98 0.0 0 0 238.63 84.62
  L 229.57 87.24
  A 0.75 0.74 83.0 0 0 229.04 87.93
  Q 228.82 96.77 230.13 105.50
  A 0.99 0.97 -26.5 0 1 229.84 106.34
  L 222.71 113.20
  Q 220.82 115.02 220.27 112.45
  C 218.78 105.53 219.62 97.47 219.40 90.21
  A 0.47 0.47 0.0 0 0 218.84 89.76
  L 208.55 91.75
  Q 206.41 92.16 207.44 90.24
  Q 211.10 83.43 218.75 82.04
  A 0.69 0.67 86.9 0 0 219.31 81.40
  C 219.53 75.68 218.12 62.11 221.41 57.79
  Q 221.84 57.22 221.14 57.32
  L 204.88 59.69
  A 0.77 0.76 87.7 0 0 204.23 60.40
  Q 203.42 73.21 203.16 91.57
  Q 203.08 97.13 203.89 101.50
  A 1.36 1.29 -35.6 0 1 203.71 102.43
  Q 201.86 105.43 198.77 108.14"
/>
<path stroke="#858585" vector-effect="non-scaling-stroke" d="
  M 193.71 102.00
  Q 193.56 83.75 195.12 65.58
  Q 195.17 65.05 195.35 64.56
  L 196.01 62.81
  Q 196.25 62.16 195.58 62.35
  L 180.01 66.79
  A 0.59 0.58 83.9 0 0 179.58 67.33
  L 178.53 88.44"
/>
<path stroke="#717171" vector-effect="non-scaling-stroke" d="
  M 266.54 88.50
  C 268.07 97.13 280.59 97.82 287.37 96.74
  Q 289.04 96.48 289.81 94.97
  Q 295.58 83.64 294.37 70.93
  Q 294.14 68.44 292.44 66.60
  Q 288.47 62.28 283.00 60.29"
/>
<path stroke="#858585" vector-effect="non-scaling-stroke" d="
  M 283.00 60.29
  C 276.11 58.24 261.27 54.20 261.69 67.02
  Q 261.70 67.51 262.07 67.18
  L 265.89 63.79
  Q 267.61 62.27 267.29 64.54
  Q 265.64 76.52 266.54 88.50"
/>
<path stroke="#ebebeb" vector-effect="non-scaling-stroke" d="
  M 283.00 60.29
  C 281.50 66.20 277.54 70.26 276.16 76.07
  A 0.42 0.41 5.2 0 0 276.59 76.58
  C 277.70 76.52 278.06 72.79 278.86 71.64
  A 0.67 0.66 -65.0 0 1 279.59 71.37
  L 280.79 71.70
  A 0.62 0.61 -68.8 0 0 281.50 71.38
  L 282.04 70.29
  Q 282.41 69.55 282.77 70.29
  Q 284.92 74.59 280.99 77.27
  Q 280.17 77.83 280.62 76.94
  L 282.23 73.76
  Q 283.04 72.17 281.53 73.12
  Q 277.98 75.36 277.06 79.62
  Q 276.86 80.54 277.60 79.95
  L 278.01 79.62
  A 0.58 0.58 0.0 0 1 278.87 79.78
  Q 279.55 80.90 278.93 81.93
  A 1.71 1.68 -31.5 0 0 278.69 82.90
  Q 278.75 83.83 278.21 84.60
  A 0.76 0.76 0.0 0 1 277.40 84.90
  Q 273.38 83.89 271.96 87.68
  Q 271.71 88.33 271.34 87.74
  L 270.66 86.64
  A 0.51 0.50 -34.6 0 0 269.92 86.51
  Q 267.19 88.63 266.54 88.50"
/>
<path stroke="#ebebeb" vector-effect="non-scaling-stroke" d="
  M 286.43 68.10
  L 286.00 69.42
  A 0.44 0.44 0.0 0 0 286.42 70.00
  L 288.35 70.00
  A 0.45 0.45 0.0 0 0 288.77 69.39
  L 287.87 67.08
  A 0.69 0.68 57.1 0 0 286.76 66.84
  Q 286.43 67.16 286.48 67.59
  Q 286.51 67.85 286.43 68.10"
/>
<path stroke="#858585" vector-effect="non-scaling-stroke" d="
  M 152.25 137.21
  Q 146.89 135.29 141.75 137.54"
/>
<path stroke="#717171" vector-effect="non-scaling-stroke" d="
  M 305.96 191.50
  L 305.04 191.62
  A 1.31 1.29 58.0 0 1 304.12 191.40
  Q 301.86 189.82 301.29 187.00"
/>
<path stroke="#858585" vector-effect="non-scaling-stroke" d="
  M 301.29 187.00
  L 301.21 161.00"
/>
<path stroke="#717171" vector-effect="non-scaling-stroke" d="
  M 301.21 161.00
  L 301.71 153.15
  Q 301.74 152.54 301.38 153.03
  L 290.10 168.50
  Q 289.06 169.92 288.93 171.68
  C 288.74 174.17 287.95 183.46 290.05 185.32
  A 1.71 1.71 0.0 0 1 290.33 187.57
  Q 287.18 192.17 282.28 194.84
  A 1.01 1.00 46.1 0 1 281.29 194.82
  C 278.91 193.41 279.46 188.21 279.24 185.73
  Q 279.14 184.58 278.57 185.58
  Q 277.13 188.08 274.29 188.05
  A 0.48 0.48 0.0 0 1 273.86 187.37
  C 275.70 183.46 278.85 179.35 279.37 175.07
  Q 281.28 159.48 284.21 143.05
  Q 284.60 140.84 282.43 141.41
  L 275.76 143.18
  A 0.90 0.90 0.0 0 0 275.10 143.88
  C 271.98 159.69 267.26 175.98 268.45 192.48
  A 1.79 1.75 -33.5 0 1 268.25 193.41
  Q 265.26 199.12 259.05 200.90"
/>
<path stroke="#656565" vector-effect="non-scaling-stroke" d="
  M 259.05 200.90
  C 257.89 185.68 261.75 171.10 264.74 156.50
  Q 265.62 152.19 265.21 147.76
  A 0.52 0.52 0.0 0 0 264.49 147.33
  L 257.35 150.38
  A 0.90 0.90 0.0 0 0 256.80 151.24
  C 256.92 154.93 258.00 159.11 257.70 162.36
  C 256.59 174.65 246.57 183.98 237.24 191.33
  A 2.70 2.70 0.0 0 0 236.21 193.55
  Q 236.65 205.58 235.22 217.68"
/>
<path stroke="#717171" vector-effect="non-scaling-stroke" d="
  M 235.22 217.68
  L 234.25 231.21"
/>
<path stroke="#858585" vector-effect="non-scaling-stroke" d="
  M 234.25 231.21
  Q 231.79 237.52 225.54 239.77
  A 0.33 0.33 0.0 0 1 225.09 239.44
  L 225.71 227.25"
/>
<path stroke="#656565" vector-effect="non-scaling-stroke" d="
  M 226.71 212.50
  L 227.01 195.98
  A 0.47 0.47 0.0 0 0 226.54 195.50
  C 221.37 195.40 221.95 190.38 221.14 186.88
  A 0.19 0.19 0.0 0 0 220.84 186.77
  Q 209.66 195.05 195.75 195.79"
/>
<path stroke="#656565" vector-effect="non-scaling-stroke" d="
  M 225.54 136.75
  C 225.38 141.07 220.36 145.29 217.08 147.82
  Q 215.53 149.02 215.51 147.06
  L 215.50 145.51
  A 0.71 0.70 -87.2 0 0 214.88 144.82
  C 210.23 144.25 204.56 146.72 199.94 148.86
  A 0.76 0.75 78.0 0 0 199.50 149.55
  L 199.50 160.22
  Q 199.50 160.78 199.96 160.47
  C 205.86 156.50 215.89 154.46 222.89 153.01
  Q 224.59 152.66 223.86 154.23
  C 221.63 159.01 218.08 162.04 212.67 162.95
  Q 206.09 164.07 199.88 166.70
  A 0.76 0.75 77.9 0 0 199.43 167.41
  L 199.67 183.16
  Q 199.73 186.84 203.39 186.53
  Q 212.26 185.77 220.31 182.35
  A 1.20 1.20 0.0 0 0 221.00 181.55
  Q 222.94 174.12 227.42 167.90
  A 1.71 1.70 63.3 0 0 227.75 166.89
  L 227.75 150.45
  Q 227.75 149.44 227.22 150.29
  Q 226.27 151.80 224.56 151.68
  A 0.74 0.73 -77.0 0 1 223.93 150.67
  Q 226.31 144.69 231.25 140.54"
/>
<path stroke="#656565" vector-effect="non-scaling-stroke" d="
  M 241.99 147.72
  L 238.51 144.66
  Q 237.39 143.68 237.34 145.17
  L 237.05 154.28
  Q 237.01 155.61 237.95 154.67
  L 242.08 150.53
  Q 243.54 149.08 241.99 147.72"
/>
<path stroke="#656565" vector-effect="non-scaling-stroke" d="
  M 256.86 146.39
  Q 255.22 145.01 256.38 147.27
  Q 256.61 147.71 256.85 147.27
  L 256.98 147.04
  A 0.52 0.51 35.0 0 0 256.86 146.39"
/>
<path stroke="#656565" vector-effect="non-scaling-stroke" d="
  M 238.74 157.69
  Q 237.24 159.11 237.24 161.18
  L 237.25 184.49
  A 0.71 0.70 10.1 0 0 237.72 185.15
  Q 238.95 185.58 239.79 185.04
  C 251.31 177.55 248.77 164.04 245.42 152.87
  A 0.77 0.77 0.0 0 0 244.15 152.53
  L 238.74 157.69"
/>
<path stroke="#858585" vector-effect="non-scaling-stroke" d="
  M 370.66 178.95
  Q 367.39 183.50 362.72 186.58
  Q 362.21 186.92 362.82 187.00
  Q 370.79 187.99 378.20 185.11
  C 384.32 182.73 382.68 173.97 380.86 169.40
  A 2.90 2.89 84.0 0 0 378.68 167.63
  Q 374.43 166.89 370.16 167.59
  A 0.45 0.44 -8.1 0 0 369.79 168.08
  L 370.93 177.90
  A 1.57 1.53 60.1 0 1 370.66 178.95"
/>
<path stroke="#858585" vector-effect="non-scaling-stroke" d="
  M 173.96 175.50
  L 174.04 173.50"
/>
<path stroke="#717171" vector-effect="non-scaling-stroke" d="
  M 174.04 173.50
  Q 174.53 168.06 174.82 162.59
  C 175.12 156.81 176.57 150.49 176.77 144.24
  A 0.52 0.52 0.0 0 0 176.20 143.71
  Q 172.41 144.06 169.00 145.73
  A 0.92 0.91 -13.0 0 0 168.49 146.53
  Q 168.40 153.64 167.21 158.74
  Q 166.12 163.36 166.54 167.25"
/>
<path stroke="#858585" vector-effect="non-scaling-stroke" d="
  M 166.54 167.25
  Q 166.75 173.24 169.00 178.79"
/>
<path stroke="#858585" vector-effect="non-scaling-stroke" d="
  M 148.53 165.81
  C 148.16 161.03 149.75 149.02 144.97 147.04
  C 141.92 145.77 136.29 143.97 134.48 148.03
  Q 128.13 162.33 127.78 178.80
  C 127.71 182.38 128.55 185.04 132.47 185.27
  A 0.96 0.96 0.0 0 0 133.28 184.91
  C 134.38 183.55 139.44 177.68 141.53 177.88
  A 0.42 0.41 -71.5 0 1 141.84 178.51
  L 137.52 185.59
  A 0.36 0.36 0.0 0 0 137.76 186.13
  Q 142.54 186.96 145.81 184.83
  Q 159.13 176.16 156.87 159.48
  Q 156.79 158.92 156.38 159.31
  L 149.28 166.10
  Q 148.61 166.74 148.53 165.81"
/>
<path stroke="#858585" vector-effect="non-scaling-stroke" d="
  M 60.09 186.86
  Q 66.22 189.26 72.72 187.77
  A 0.63 0.62 -6.4 0 0 73.21 187.16
  Q 73.26 178.24 72.12 169.41
  A 0.45 0.44 -20.6 0 0 71.43 169.10
  C 66.37 172.50 60.19 176.71 58.18 182.78
  Q 57.21 185.72 60.09 186.86"
/>
<path stroke="#ebebeb" vector-effect="non-scaling-stroke" d="
  M 301.21 161.00
  Q 296.48 162.55 293.77 166.88
  A 0.49 0.48 32.1 0 0 293.93 167.55
  L 295.36 168.46
  A 0.76 0.76 0.0 0 1 295.55 169.58
  L 293.34 172.40
  A 0.43 0.43 0.0 0 0 293.38 172.98
  L 295.62 175.02
  A 0.33 0.33 0.0 0 1 295.63 175.50
  L 295.38 175.74
  A 0.41 0.39 38.9 0 1 294.89 175.78
  Q 291.09 173.38 288.59 177.55
  A 1.17 1.17 0.0 0 0 288.96 179.14
  Q 289.21 179.30 289.52 179.25
  A 1.01 0.98 59.0 0 1 290.30 179.46
  L 300.58 187.83
  Q 301.15 188.29 301.23 187.56
  L 301.29 187.00"
/>
<path stroke="#ebebeb" vector-effect="non-scaling-stroke" d="
  M 266.19 250.00
  Q 265.29 249.58 263.28 249.82
  A 1.98 1.97 -16.2 0 1 261.26 248.71
  C 259.26 244.50 257.74 239.64 254.67 236.32
  Q 251.12 232.48 246.55 229.73
  Q 245.46 229.07 246.03 230.22
  L 246.62 231.39
  Q 246.94 232.04 246.27 231.77
  L 244.41 231.05
  A 0.84 0.82 38.2 0 0 243.66 231.13
  Q 241.13 232.79 239.13 230.06
  A 0.68 0.67 -41.5 0 1 239.19 229.18
  L 239.56 228.80
  A 0.41 0.41 0.0 0 0 239.38 228.12
  Q 238.37 227.83 234.86 228.92
  A 0.46 0.45 78.2 0 0 234.54 229.42
  Q 234.67 230.33 234.25 231.21"
/>
<path stroke="#cbcbcb" vector-effect="non-scaling-stroke" d="
  M 235.22 217.68
  Q 240.67 216.30 243.35 211.79
  C 245.86 207.57 252.87 203.22 256.78 200.04
  Q 257.98 199.07 259.05 200.90"
/>
<path stroke="#ebebeb" vector-effect="non-scaling-stroke" d="
  M 174.04 173.50
  L 173.97 171.84
  A 0.88 0.88 0.0 0 0 173.52 171.11
  L 166.54 167.25"
/>
</g>
<path fill="#ffffff" d="
  M 0.00 0.00
  L 69.56 0.00
  L 71.28 7.06
  A 0.52 0.51 -17.3 0 0 71.96 7.41
  L 73.01 7.00
  A 0.51 0.50 -27.7 0 0 73.25 6.24
  L 72.47 5.12
  A 0.47 0.46 -33.5 0 1 72.61 4.47
  L 72.87 4.31
  A 0.60 0.60 0.0 0 1 73.60 4.40
  Q 76.13 6.92 73.74 9.40
  A 1.56 1.54 -20.9 0 0 73.32 10.32
  Q 72.34 19.86 73.71 29.29
  C 74.39 33.95 79.24 40.82 77.14 45.37
  A 0.70 0.69 -74.5 0 1 76.44 45.77
  Q 74.13 45.53 72.62 47.24
  Q 72.07 47.86 72.04 47.03
  L 72.00 46.17
  A 0.60 0.59 81.6 0 1 72.44 45.57
  C 74.61 45.01 72.48 41.59 72.10 40.23
  C 71.35 37.57 70.01 35.25 69.60 32.42
  C 69.34 30.64 68.46 29.69 67.36 28.40
  Q 67.03 28.01 67.00 28.53
  C 66.88 31.09 67.73 33.30 67.66 35.85
  Q 67.49 42.47 71.54 47.86
  A 1.53 1.51 -65.1 0 1 71.85 48.72
  Q 71.99 51.64 74.60 53.08
  A 0.84 0.83 16.8 0 1 75.03 53.87
  L 74.90 55.42
  Q 74.79 56.80 74.11 55.59
  L 72.98 53.57
  Q 72.50 52.70 72.45 53.69
  C 72.10 60.95 78.33 72.87 81.64 79.47
  L 81.71 95.05
  A 0.56 0.56 0.0 0 1 81.16 95.61
  L 64.85 96.10
  A 1.76 1.75 -3.7 0 1 63.05 94.52
  Q 62.46 88.69 62.38 83.00
  Q 61.96 50.75 61.86 18.88
  A 0.62 0.61 77.5 0 0 60.99 18.32
  C 55.42 20.88 52.50 24.64 52.48 30.94
  Q 52.38 60.69 52.89 90.44
  Q 52.99 96.29 53.72 102.83
  Q 54.00 105.34 56.53 105.24
  L 81.22 104.21
  A 0.51 0.50 -1.1 0 1 81.75 104.71
  L 81.75 111.06
  Q 81.75 112.06 82.56 111.47
  Q 87.78 107.65 91.40 102.34
  C 93.12 99.80 98.61 95.34 97.24 92.12
  A 0.39 0.39 0.0 0 0 96.67 91.95
  L 92.48 94.72
  Q 91.26 95.53 91.26 94.06
  L 91.29 79.25
  L 93.67 79.35
  A 0.70 0.69 -4.1 0 1 94.33 79.92
  L 94.63 81.45
  A 1.19 1.16 14.0 0 0 95.08 82.18
  C 100.64 86.37 102.24 92.49 104.25 98.47
  Q 105.40 101.89 107.93 104.58
  Q 108.86 105.57 108.79 107.00
  L 107.94 110.13
  A 0.42 0.42 0.0 0 0 108.31 110.65
  L 110.25 110.79
  Q 111.62 110.87 112.96 112.79
  Q 121.31 124.69 135.62 139.08
  C 136.10 139.56 136.96 139.88 137.54 140.25
  C 123.16 151.96 118.30 170.64 118.44 188.35
  A 1.64 1.63 1.6 0 1 116.70 189.99
  Q 112.15 189.70 108.68 186.85
  A 1.38 1.37 -75.7 0 1 108.20 186.03
  Q 106.89 178.53 107.04 170.96
  Q 107.08 168.56 108.84 166.93
  Q 122.40 154.40 132.94 139.21
  A 0.37 0.36 36.9 0 0 132.86 138.71
  C 131.17 137.39 124.82 144.79 123.86 146.10
  Q 116.56 156.03 107.63 164.46
  Q 107.21 164.85 107.21 164.28
  L 107.09 141.93
  Q 107.08 141.36 106.60 141.67
  L 81.45 158.00
  A 0.40 0.39 -18.6 0 1 80.84 157.70
  Q 80.16 148.31 76.82 139.56
  Q 76.15 137.82 74.33 138.20
  Q 72.55 138.57 70.14 140.11
  C 57.30 148.30 43.54 162.67 45.19 179.22
  A 0.35 0.35 0.0 0 0 45.73 179.47
  Q 50.59 176.12 53.98 171.29
  A 1.63 1.63 0.0 0 0 54.27 170.27
  C 53.79 161.47 57.39 151.16 66.05 147.40
  A 1.06 1.05 -21.3 0 1 67.47 148.02
  Q 70.17 155.83 71.41 164.03
  A 1.87 1.85 68.0 0 1 70.66 165.82
  C 63.23 171.15 27.22 202.70 66.84 196.84
  C 74.33 195.73 82.50 190.42 82.72 182.25
  Q 82.98 172.71 81.72 163.10
  A 1.80 1.80 0.0 0 1 82.57 161.33
  L 97.12 152.40
  Q 97.75 152.02 97.75 152.76
  L 97.75 172.46
  A 1.79 1.78 -28.2 0 1 97.45 173.45
  Q 90.43 183.72 97.04 193.53
  C 99.06 196.53 99.12 199.36 100.12 202.79
  Q 100.77 205.05 102.39 203.35
  C 104.52 201.13 107.52 199.44 110.97 199.50
  Q 118.46 199.63 125.28 196.62
  C 128.75 195.09 132.59 196.12 136.02 194.78
  C 144.66 191.41 150.14 185.12 156.65 178.84
  A 0.30 0.29 59.5 0 1 157.14 178.97
  L 160.08 189.43
  A 1.69 1.67 -44.7 0 1 160.07 190.33
  Q 159.75 191.43 160.75 192.04
  C 160.93 193.93 153.22 201.08 151.57 202.45
  A 0.73 0.72 -31.1 0 0 151.36 203.27
  C 152.44 206.02 167.36 189.92 169.38 189.80
  Q 170.48 189.74 171.64 190.15
  Q 172.30 190.39 171.76 190.84
  Q 171.07 191.43 170.41 192.20
  Q 169.29 193.55 170.64 192.43
  L 172.36 191.02
  Q 174.34 189.40 172.88 191.50
  Q 167.34 199.43 159.40 204.90
  Q 158.73 205.36 158.74 204.55
  L 158.75 204.10
  A 0.59 0.58 -10.0 0 1 159.14 203.55
  Q 159.70 203.34 159.98 202.82
  Q 160.46 201.94 159.52 202.31
  C 156.98 203.32 151.05 205.39 148.48 205.02
  Q 146.19 204.69 144.67 206.43
  Q 141.29 210.29 141.74 215.44
  A 1.70 1.68 57.4 0 1 141.53 216.43
  C 136.43 225.53 125.84 233.74 117.40 239.67
  Q 116.97 239.97 117.00 239.45
  L 117.02 239.02
  Q 117.12 237.12 115.86 238.55
  L 106.95 248.76
  A 0.71 0.70 43.5 0 0 106.98 249.72
  Q 107.15 249.90 107.44 250.00
  L 0.00 250.00
  L 0.00 0.00
  Z
  M 63.31 0.49
  C 62.27 0.77 62.37 1.73 62.84 2.54
  Q 64.37 5.16 63.97 8.26
  A 0.62 0.61 -71.9 0 0 64.27 8.87
  L 64.56 9.04
  A 0.26 0.25 -72.2 0 0 64.94 8.84
  Q 65.28 6.00 64.29 3.34
  A 1.79 1.73 -50.0 0 1 64.22 2.35
  Q 64.37 1.63 64.18 0.99
  A 0.71 0.70 74.5 0 0 63.31 0.49
  Z
  M 103.62 101.67
  C 99.56 103.22 94.32 107.80 94.26 112.26
  Q 94.19 117.88 94.27 145.22
  A 0.34 0.33 -11.8 0 0 94.74 145.52
  C 100.26 143.19 104.26 138.81 104.28 132.60
  Q 104.33 117.35 104.10 102.00
  A 0.36 0.35 79.1 0 0 103.62 101.67
  Z"
/>
<path fill="#d7d7d7" d="
  M 69.56 0.00
  L 140.31 0.00
  L 141.14 0.34
  A 0.82 0.82 0.0 0 1 141.65 1.00
  Q 143.17 12.51 144.75 24.04
  Q 144.99 25.74 144.90 27.51
  Q 144.83 29.03 144.77 30.60
  A 0.98 0.95 -67.8 0 0 145.07 31.35
  L 147.32 33.47
  A 0.62 0.61 47.6 0 1 147.28 34.40
  Q 145.92 35.48 145.67 33.86
  Q 145.49 32.76 145.16 33.82
  Q 143.80 38.18 147.46 39.75
  L 145.90 46.45
  A 1.18 1.17 34.6 0 0 146.07 47.36
  C 148.19 50.44 150.80 46.41 152.46 45.25
  Q 155.96 53.18 160.97 60.19
  C 163.19 63.30 164.50 66.50 166.31 69.79
  A 0.92 0.92 0.0 0 0 167.03 70.25
  L 167.50 70.29
  Q 161.69 78.93 154.82 86.95
  Q 154.25 87.62 154.25 86.74
  L 154.25 57.45
  Q 154.25 55.37 152.45 56.42
  C 148.74 58.57 144.73 61.84 144.74 66.44
  Q 144.76 82.97 144.75 99.20
  Q 144.75 101.25 142.70 101.25
  L 119.81 101.25
  A 0.70 0.69 -0.4 0 1 119.11 100.57
  L 118.62 81.68
  A 1.02 1.01 75.9 0 1 119.18 80.74
  Q 124.54 78.03 130.30 76.32
  C 135.89 74.66 139.78 70.87 142.91 66.22
  Q 143.47 65.39 142.51 65.67
  Q 131.24 68.90 120.67 74.04
  Q 118.84 74.93 118.35 72.96
  Q 118.17 72.21 119.08 70.86
  C 120.79 68.33 131.48 65.43 134.64 64.63
  C 135.72 64.36 136.10 64.66 137.02 65.07
  A 0.89 0.89 0.0 0 0 137.91 64.95
  Q 142.65 61.27 145.79 56.21
  A 0.64 0.64 0.0 0 0 145.27 55.23
  Q 143.74 55.18 142.06 55.59
  Q 121.20 60.65 105.97 75.91
  A 2.36 2.34 -28.7 0 0 105.33 78.07
  L 105.39 78.33
  A 0.63 0.62 -25.5 0 0 106.40 78.68
  L 108.29 77.15
  A 0.42 0.42 0.0 0 1 108.94 77.32
  C 109.87 79.67 106.05 83.61 104.78 85.67
  Q 104.08 86.79 105.33 86.35
  L 108.34 85.28
  A 0.47 0.46 80.3 0 1 108.96 85.72
  Q 108.92 95.91 109.01 105.92
  Q 109.01 106.50 108.79 107.00
  Q 108.86 105.57 107.93 104.58
  Q 105.40 101.89 104.25 98.47
  C 102.24 92.49 100.64 86.37 95.08 82.18
  A 1.19 1.16 14.0 0 1 94.63 81.45
  L 94.33 79.92
  A 0.70 0.69 -4.1 0 0 93.67 79.35
  L 91.29 79.25
  C 90.89 61.22 92.20 38.58 91.94 16.61
  A 0.42 0.41 77.1 0 0 91.35 16.24
  Q 86.31 18.64 83.39 23.44
  A 4.77 4.76 60.3 0 0 82.70 25.98
  Q 82.90 40.97 82.13 55.52
  C 81.69 63.68 81.80 71.47 81.64 79.47
  C 78.33 72.87 72.10 60.95 72.45 53.69
  Q 72.50 52.70 72.98 53.57
  L 74.11 55.59
  Q 74.79 56.80 74.90 55.42
  L 75.03 53.87
  A 0.84 0.83 16.8 0 0 74.60 53.08
  Q 71.99 51.64 71.85 48.72
  A 1.53 1.51 -65.1 0 0 71.54 47.86
  Q 67.49 42.47 67.66 35.85
  C 67.73 33.30 66.88 31.09 67.00 28.53
  Q 67.03 28.01 67.36 28.40
  C 68.46 29.69 69.34 30.64 69.60 32.42
  C 70.01 35.25 71.35 37.57 72.10 40.23
  C 72.48 41.59 74.61 45.01 72.44 45.57
  A 0.60 0.59 81.6 0 0 72.00 46.17
  L 72.04 47.03
  Q 72.07 47.86 72.62 47.24
  Q 74.13 45.53 76.44 45.77
  A 0.70 0.69 -74.5 0 0 77.14 45.37
  C 79.24 40.82 74.39 33.95 73.71 29.29
  Q 72.34 19.86 73.32 10.32
  A 1.56 1.54 -20.9 0 1 73.74 9.40
  Q 76.13 6.92 73.60 4.40
  A 0.60 0.60 0.0 0 0 72.87 4.31
  L 72.61 4.47
  A 0.47 0.46 -33.5 0 0 72.47 5.12
  L 73.25 6.24
  A 0.51 0.50 -27.7 0 1 73.01 7.00
  L 71.96 7.41
  A 0.52 0.51 -17.3 0 1 71.28 7.06
  L 69.56 0.00
  Z
  M 78.30 50.68
  Q 76.86 49.61 77.69 51.20
  L 80.25 56.11
  Q 80.49 56.58 80.75 56.11
  C 81.61 54.53 79.51 51.58 78.30 50.68
  Z"
/>
<path fill="#ffffff" d="
  M 140.31 0.00
  L 311.81 0.00
  L 310.20 0.43
  A 0.83 0.82 88.9 0 0 309.62 1.04
  C 305.99 17.31 299.36 29.74 290.91 44.96
  A 1.59 1.57 -33.3 0 0 290.71 45.90
  Q 290.94 48.66 288.81 50.06
  C 283.39 49.16 274.38 48.08 269.46 50.87
  C 260.97 55.68 254.67 64.84 251.90 74.03
  A 0.82 0.81 30.3 0 1 250.55 74.38
  C 249.92 73.77 252.05 60.69 252.31 58.45
  Q 252.54 56.37 250.64 57.24
  C 242.31 61.03 242.88 68.40 241.84 76.01
  A 1.34 1.32 -3.3 0 1 240.84 77.12
  L 229.68 79.91
  A 0.55 0.54 -7.1 0 1 229.00 79.39
  L 229.00 53.38
  A 0.60 0.59 -86.1 0 0 228.49 52.79
  Q 227.79 52.69 226.32 53.28
  Q 226.23 53.31 226.31 53.26
  Q 228.58 51.72 229.16 49.07
  A 0.43 0.42 -82.5 0 0 228.77 48.55
  C 226.78 48.47 224.66 48.41 222.67 48.78
  Q 205.56 52.03 188.92 57.21
  C 184.97 58.44 182.83 60.65 179.99 63.41
  Q 179.34 64.04 179.68 63.20
  Q 181.79 58.00 180.33 52.56
  A 0.41 0.41 0.0 0 0 179.74 52.31
  C 174.88 54.90 172.34 58.23 171.24 63.58
  Q 170.45 67.44 167.50 70.29
  L 167.03 70.25
  A 0.92 0.92 0.0 0 1 166.31 69.79
  C 164.50 66.50 163.19 63.30 160.97 60.19
  Q 155.96 53.18 152.46 45.25
  L 155.92 41.16
  A 0.89 0.87 54.0 0 0 156.05 40.27
  L 155.44 38.79
  A 1.81 1.79 39.2 0 1 155.33 37.76
  Q 157.32 27.36 164.44 19.90
  C 168.25 15.92 174.30 12.61 178.42 7.03
  A 0.48 0.48 0.0 0 0 178.29 6.33
  C 177.92 6.09 177.61 6.31 177.32 6.48
  Q 157.26 18.55 147.46 39.75
  Q 143.80 38.18 145.16 33.82
  Q 145.49 32.76 145.67 33.86
  Q 145.92 35.48 147.28 34.40
  A 0.62 0.61 47.6 0 0 147.32 33.47
  L 145.07 31.35
  A 0.98 0.95 -67.8 0 1 144.77 30.60
  Q 144.83 29.03 144.90 27.51
  Q 144.99 25.74 144.75 24.04
  Q 143.17 12.51 141.65 1.00
  A 0.82 0.82 0.0 0 0 141.14 0.34
  L 140.31 0.00
  Z
  M 160.37 55.25
  Q 160.87 55.65 161.12 56.25
  L 162.83 60.34
  A 0.51 0.50 -34.3 0 0 163.66 60.49
  L 164.00 60.13
  A 0.66 0.65 -41.3 0 0 164.06 59.29
  Q 160.43 54.35 157.95 48.70
  A 0.76 0.76 0.0 0 0 157.17 48.24
  L 156.76 48.28
  A 0.60 0.59 -11.7 0 0 156.25 49.04
  Q 157.36 52.83 160.37 55.25
  Z"
/>
<path fill="#d7d7d7" d="
  M 311.81 0.00
  L 318.65 0.10
  Q 316.59 5.99 314.39 11.82
  C 313.84 13.28 313.88 15.00 315.79 15.12
  Q 316.30 15.15 316.03 14.72
  C 313.58 10.76 316.48 9.53 317.58 6.39
  C 318.61 3.43 319.21 0.61 321.56 0.00
  L 385.06 0.00
  Q 386.22 6.45 385.50 9.75
  Q 381.83 26.67 373.41 50.76
  Q 372.04 54.65 369.68 58.29
  C 365.29 65.03 360.34 72.06 356.97 79.37
  C 353.35 87.19 348.87 94.48 341.26 106.92
  C 338.24 111.85 333.98 123.36 329.53 126.45
  Q 329.09 126.75 329.34 126.28
  Q 332.96 119.45 336.48 112.56
  C 337.22 111.12 339.10 110.01 338.64 107.72
  Q 338.54 107.22 338.18 107.60
  C 332.07 114.15 326.62 121.24 322.67 129.31
  C 319.68 135.44 317.20 141.29 311.29 145.25
  L 311.32 138.54
  A 0.38 0.37 79.0 0 0 310.81 138.19
  Q 306.92 139.77 303.96 143.96
  Q 296.91 153.95 290.11 162.89
  Q 289.04 164.29 289.31 162.55
  L 293.74 134.09
  Q 294.25 130.81 291.08 131.81
  L 275.31 136.76
  A 0.41 0.41 0.0 0 1 274.81 136.50
  L 274.20 134.66
  A 0.69 0.69 0.0 0 0 273.42 134.20
  Q 262.88 136.12 253.88 141.87
  A 0.51 0.51 0.0 0 1 253.14 141.65
  C 248.73 132.07 237.23 134.19 231.25 140.54
  L 230.84 140.49
  A 0.70 0.68 -10.7 0 1 230.31 140.14
  Q 228.77 137.40 225.54 136.75
  L 225.15 135.76
  A 0.79 0.77 80.0 0 0 224.46 135.27
  C 221.75 135.21 219.34 134.99 216.71 135.95
  Q 204.07 140.56 199.33 143.59
  C 196.41 145.47 187.43 151.42 186.31 156.34
  Q 186.07 157.41 186.88 156.67
  L 188.45 155.26
  Q 189.99 153.87 189.99 155.95
  Q 189.99 171.72 190.02 187.44
  C 190.03 189.89 190.47 192.05 191.07 194.34
  A 1.61 1.61 0.0 0 0 193.23 195.42
  Q 194.45 194.92 195.75 195.79
  Q 196.03 197.04 195.35 198.39
  A 0.71 0.70 -53.6 0 0 195.47 199.20
  C 202.65 206.54 213.15 213.34 221.44 218.22
  A 0.96 0.95 -39.6 0 0 222.26 218.29
  Q 223.97 217.67 223.47 215.82
  A 1.42 1.39 8.0 0 0 222.83 214.99
  L 219.26 212.92
  A 0.47 0.47 0.0 0 1 219.22 212.14
  L 222.66 209.66
  A 0.16 0.16 0.0 0 1 222.91 209.74
  L 223.01 210.05
  A 0.28 0.26 65.4 0 1 222.90 210.37
  Q 221.83 211.02 221.29 212.05
  A 0.57 0.57 0.0 0 0 221.58 212.85
  L 224.31 213.98
  Q 225.02 214.27 224.91 213.51
  L 224.57 211.20
  A 0.47 0.46 -3.7 0 1 225.04 210.67
  Q 226.46 210.72 226.71 212.50
  L 225.71 227.25
  Q 222.66 227.53 222.52 230.55
  A 1.51 1.48 -23.7 0 1 222.17 231.42
  C 218.47 235.69 213.54 239.59 210.06 242.99
  Q 206.35 246.61 202.44 250.00
  L 118.44 250.00
  Q 113.68 249.21 108.94 250.00
  L 107.44 250.00
  Q 107.15 249.90 106.98 249.72
  A 0.71 0.70 43.5 0 1 106.95 248.76
  L 115.86 238.55
  Q 117.12 237.12 117.02 239.02
  L 117.00 239.45
  Q 116.97 239.97 117.40 239.67
  C 125.84 233.74 136.43 225.53 141.53 216.43
  A 1.70 1.68 57.4 0 0 141.74 215.44
  Q 141.29 210.29 144.67 206.43
  Q 146.19 204.69 148.48 205.02
  C 151.05 205.39 156.98 203.32 159.52 202.31
  Q 160.46 201.94 159.98 202.82
  Q 159.70 203.34 159.14 203.55
  A 0.59 0.58 -10.0 0 0 158.75 204.10
  L 158.74 204.55
  Q 158.73 205.36 159.40 204.90
  Q 167.34 199.43 172.88 191.50
  Q 174.34 189.40 172.36 191.02
  L 170.64 192.43
  Q 169.29 193.55 170.41 192.20
  Q 171.07 191.43 171.76 190.84
  Q 172.30 190.39 171.64 190.15
  Q 170.48 189.74 169.38 189.80
  C 167.36 189.92 152.44 206.02 151.36 203.27
  A 0.73 0.72 -31.1 0 1 151.57 202.45
  C 153.22 201.08 160.93 193.93 160.75 192.04
  Q 166.06 188.06 169.93 182.69
  A 0.91 0.89 -36.8 0 0 170.06 181.85
  L 169.00 178.79
  Q 172.77 179.10 173.96 175.50
  C 173.65 183.84 173.63 196.33 178.18 203.65
  A 1.27 1.27 0.0 0 0 180.06 203.95
  Q 183.66 200.95 186.98 197.17
  C 188.28 195.70 188.17 194.26 188.46 192.41
  A 0.45 0.44 -87.9 0 0 187.99 191.90
  Q 187.36 191.95 186.86 192.55
  A 0.61 0.61 0.0 0 1 186.17 192.73
  Q 185.87 192.60 185.70 192.26
  Q 184.25 189.33 184.44 187.77
  C 184.84 184.56 183.51 181.80 183.48 179.05
  Q 183.20 158.12 186.48 136.36
  Q 186.78 134.33 184.73 134.19
  Q 184.35 134.17 182.55 134.68
  C 174.64 136.89 164.33 139.65 158.41 145.62
  Q 158.06 145.98 157.94 145.49
  C 156.91 141.28 157.09 138.57 152.25 137.21
  C 150.71 133.89 146.04 133.04 143.36 130.96
  A 0.58 0.58 0.0 0 0 142.58 131.03
  C 141.91 131.76 144.27 133.08 142.75 134.82
  A 0.47 0.46 43.8 0 1 142.07 134.83
  Q 140.79 133.51 139.14 132.65
  Q 138.04 132.08 138.74 133.11
  L 141.75 137.54
  L 137.54 140.25
  C 136.96 139.88 136.10 139.56 135.62 139.08
  Q 121.31 124.69 112.96 112.79
  Q 111.62 110.87 110.25 110.79
  L 131.98 110.80
  Q 132.48 110.80 132.19 111.21
  C 130.28 113.81 128.39 115.19 127.71 118.50
  Q 127.44 119.84 128.50 118.98
  C 133.86 114.61 138.50 109.91 144.07 105.76
  Q 144.73 105.26 144.74 106.09
  L 144.75 113.24
  Q 144.76 114.93 145.97 113.75
  L 153.68 106.18
  A 1.42 1.42 0.0 0 0 154.12 105.20
  Q 154.34 100.50 154.25 95.77
  C 154.18 91.93 155.72 91.20 157.90 88.41
  Q 164.01 80.63 169.36 73.50
  Q 170.40 72.11 170.25 73.84
  Q 168.74 91.35 168.46 108.54
  C 168.42 111.03 169.02 113.25 169.87 115.47
  Q 171.11 118.71 174.15 117.05
  Q 180.11 113.80 183.75 108.11
  Q 184.11 107.55 183.45 107.68
  C 175.89 109.14 177.82 93.17 178.53 88.44
  Q 185.67 92.81 189.42 100.33
  Q 190.16 101.80 190.92 102.26
  Q 192.34 103.13 193.71 102.00
  L 193.74 111.09
  Q 193.74 111.97 194.44 111.44
  L 198.77 108.14
  L 213.81 121.69
  A 0.62 0.62 0.0 0 1 214.01 122.26
  L 213.96 122.59
  A 0.39 0.39 0.0 0 1 213.34 122.83
  Q 212.53 122.20 211.55 121.78
  Q 209.86 121.07 211.08 122.44
  Q 215.37 127.25 220.89 130.45
  A 1.00 0.99 47.4 0 0 221.81 130.49
  Q 225.54 128.68 228.80 124.80
  Q 229.63 123.82 231.42 123.56
  Q 231.89 123.49 231.55 123.83
  L 231.30 124.08
  Q 230.56 124.80 231.58 124.95
  L 231.94 125.00
  A 0.67 0.67 0.0 0 0 232.52 124.80
  C 234.43 122.85 237.00 122.47 238.67 120.88
  Q 241.68 118.01 243.01 114.05
  Q 248.89 109.60 252.76 103.12
  L 257.04 100.50
  C 260.29 103.96 262.79 109.29 267.69 110.36
  C 277.07 112.43 282.32 108.22 289.05 101.50
  Q 304.77 85.82 304.04 62.37
  A 0.82 0.82 0.0 0 1 304.59 61.57
  L 309.86 59.74
  A 0.45 0.44 -10.4 0 1 310.46 60.15
  C 310.80 77.78 309.47 95.33 309.83 113.02
  Q 309.91 116.50 312.90 114.72
  C 314.57 113.73 320.44 108.50 320.78 105.85
  Q 320.97 104.32 320.18 104.28
  A 1.36 1.36 0.0 0 1 318.89 102.89
  L 319.92 57.79
  A 0.67 0.67 0.0 0 1 320.55 57.13
  C 324.48 56.89 337.51 57.60 340.04 55.84
  Q 344.12 53.01 346.77 48.28
  A 0.34 0.34 0.0 0 0 346.51 47.78
  Q 334.16 46.42 322.11 49.27
  C 320.21 49.72 319.40 49.13 319.89 47.10
  Q 320.27 45.54 318.99 46.51
  Q 316.41 48.46 313.87 50.48
  C 310.33 53.31 305.86 54.41 301.96 57.02
  A 0.58 0.57 49.4 0 1 301.24 56.96
  Q 295.86 51.91 288.81 50.06
  Q 290.94 48.66 290.71 45.90
  A 1.59 1.57 -33.3 0 1 290.91 44.96
  C 299.36 29.74 305.99 17.31 309.62 1.04
  A 0.83 0.82 88.9 0 1 310.20 0.43
  L 311.81 0.00
  Z
  M 374.24 20.58
  A 0.27 0.26 32.2 0 0 374.30 20.83
  L 374.54 21.06
  A 0.25 0.25 0.0 0 0 374.95 20.97
  C 375.45 19.63 380.65 9.61 378.42 9.11
  A 0.57 0.57 0.0 0 0 377.75 9.49
  L 374.24 20.58
  Z
  M 242.15 121.01
  Q 241.60 120.87 241.36 121.31
  A 0.41 0.41 0.0 0 0 241.47 121.84
  Q 242.73 122.80 242.28 124.28
  Q 242.07 125.00 242.74 124.68
  L 246.19 123.05
  A 1.79 1.77 1.6 0 0 246.95 122.34
  Q 248.03 120.36 249.70 118.89
  A 0.36 0.36 0.0 0 0 249.59 118.28
  Q 244.46 116.28 242.67 120.74
  A 0.45 0.44 17.2 0 1 242.15 121.01
  Z"
/>
<path fill="#ffffff" d="
  M 318.65 0.10
  L 321.56 0.00
  C 319.21 0.61 318.61 3.43 317.58 6.39
  C 316.48 9.53 313.58 10.76 316.03 14.72
  Q 316.30 15.15 315.79 15.12
  C 313.88 15.00 313.84 13.28 314.39 11.82
  Q 316.59 5.99 318.65 0.10
  Z"
/>
<path fill="#ffffff" d="
  M 385.06 0.00
  L 449.00 0.00
  L 449.00 250.00
  L 341.19 250.00
  L 342.00 249.70
  A 0.47 0.46 67.8 0 0 342.26 249.07
  Q 340.21 244.66 338.47 240.09
  C 336.23 234.20 331.15 233.27 328.86 228.34
  Q 325.67 221.51 322.16 214.85
  C 318.29 207.50 312.43 200.78 307.79 193.50
  A 1.83 1.78 86.2 0 0 307.08 192.86
  Q 306.21 192.44 305.96 191.50
  Q 310.63 188.17 314.12 183.54
  A 0.76 0.75 -60.3 0 0 313.81 182.38
  Q 310.51 181.02 310.41 176.81
  Q 310.02 161.01 311.29 145.25
  C 317.20 141.29 319.68 135.44 322.67 129.31
  C 326.62 121.24 332.07 114.15 338.18 107.60
  Q 338.54 107.22 338.64 107.72
  C 339.10 110.01 337.22 111.12 336.48 112.56
  Q 332.96 119.45 329.34 126.28
  Q 329.09 126.75 329.53 126.45
  C 333.98 123.36 338.24 111.85 341.26 106.92
  C 348.87 94.48 353.35 87.19 356.97 79.37
  C 360.34 72.06 365.29 65.03 369.68 58.29
  Q 372.04 54.65 373.41 50.76
  Q 381.83 26.67 385.50 9.75
  Q 386.22 6.45 385.06 0.00
  Z
  M 367.85 161.92
  L 367.39 135.89
  A 0.81 0.80 76.2 0 0 366.23 135.18
  C 355.47 140.48 358.10 151.99 358.45 161.58
  C 358.64 166.64 357.63 169.77 354.55 173.39
  Q 354.22 173.78 354.28 173.27
  C 355.01 166.57 355.69 156.16 353.27 149.81
  Q 352.38 147.48 349.89 147.61
  Q 342.89 147.97 336.26 150.22
  Q 335.78 150.38 336.06 149.96
  C 339.91 144.01 341.86 141.36 340.43 133.89
  A 0.69 0.68 88.2 0 0 339.84 133.33
  C 329.88 132.03 320.07 142.95 315.91 151.02
  Q 313.91 154.88 317.56 152.51
  Q 322.68 149.19 325.31 143.64
  A 1.01 0.99 9.5 0 1 326.11 143.08
  L 330.32 142.65
  A 0.71 0.70 -10.8 0 1 331.07 143.15
  C 333.44 151.65 327.14 153.78 324.00 160.09
  Q 323.34 161.41 324.70 160.83
  Q 332.07 157.71 340.00 156.91
  Q 343.71 156.53 344.36 160.18
  Q 346.35 171.32 344.42 182.01
  A 1.97 1.94 -3.5 0 1 343.06 183.53
  Q 332.07 186.82 326.46 177.21
  A 1.01 1.00 64.5 0 1 326.97 175.76
  C 331.30 174.12 338.55 170.18 339.61 165.31
  A 0.34 0.34 0.0 0 0 339.21 164.91
  Q 327.94 167.14 320.01 176.24
  C 312.86 184.44 319.39 193.36 328.75 193.73
  C 339.46 194.15 346.10 187.64 351.73 179.47
  Q 352.01 179.07 351.89 179.54
  C 350.72 184.23 348.26 196.48 356.24 196.67
  C 372.22 197.06 381.80 189.68 390.15 177.19
  Q 390.43 176.78 390.45 177.28
  C 391.00 190.13 389.85 203.31 390.90 216.03
  A 0.34 0.34 0.0 0 0 391.39 216.31
  C 395.34 214.32 399.99 210.63 400.00 206.25
  Q 400.01 169.41 399.99 132.50
  A 0.88 0.88 0.0 0 0 398.74 131.70
  C 394.73 133.54 390.87 137.23 390.63 141.99
  C 390.31 148.50 391.18 153.46 390.46 159.25
  A 0.33 0.33 0.0 0 1 389.97 159.50
  C 383.70 155.97 373.93 158.45 368.40 162.21
  Q 367.86 162.57 367.85 161.92
  Z"
/>
<path fill="#d7d7d7" d="
  M 64.18 0.99
  Q 64.37 1.63 64.22 2.35
  A 1.79 1.73 -50.0 0 0 64.29 3.34
  Q 65.28 6.00 64.94 8.84
  A 0.26 0.25 -72.2 0 1 64.56 9.04
  L 64.27 8.87
  A 0.62 0.61 -71.9 0 1 63.97 8.26
  Q 64.37 5.16 62.84 2.54
  C 62.37 1.73 62.27 0.77 63.31 0.49
  A 0.71 0.70 74.5 0 1 64.18 0.99
  Z"
/>
<path fill="#0b0b0b" d="
  M 152.46 45.25
  C 150.80 46.41 148.19 50.44 146.07 47.36
  A 1.18 1.17 34.6 0 1 145.90 46.45
  L 147.46 39.75
  Q 157.26 18.55 177.32 6.48
  C 177.61 6.31 177.92 6.09 178.29 6.33
  A 0.48 0.48 0.0 0 1 178.42 7.03
  C 174.30 12.61 168.25 15.92 164.44 19.90
  Q 157.32 27.36 155.33 37.76
  A 1.81 1.79 39.2 0 0 155.44 38.79
  L 156.05 40.27
  A 0.89 0.87 54.0 0 1 155.92 41.16
  L 152.46 45.25
  Z"
/>
<path fill="#ffffff" d="
  M 374.24 20.58
  L 377.75 9.49
  A 0.57 0.57 0.0 0 1 378.42 9.11
  C 380.65 9.61 375.45 19.63 374.95 20.97
  A 0.25 0.25 0.0 0 1 374.54 21.06
  L 374.30 20.83
  A 0.27 0.26 32.2 0 1 374.24 20.58
  Z"
/>
<path fill="#0b0b0b" d="
  M 91.29 79.25
  L 91.26 94.06
  Q 91.26 95.53 92.48 94.72
  L 96.67 91.95
  A 0.39 0.39 0.0 0 1 97.24 92.12
  C 98.61 95.34 93.12 99.80 91.40 102.34
  Q 87.78 107.65 82.56 111.47
  Q 81.75 112.06 81.75 111.06
  L 81.75 104.71
  A 0.51 0.50 -1.1 0 0 81.22 104.21
  L 56.53 105.24
  Q 54.00 105.34 53.72 102.83
  Q 52.99 96.29 52.89 90.44
  Q 52.38 60.69 52.48 30.94
  C 52.50 24.64 55.42 20.88 60.99 18.32
  A 0.62 0.61 77.5 0 1 61.86 18.88
  Q 61.96 50.75 62.38 83.00
  Q 62.46 88.69 63.05 94.52
  A 1.76 1.75 -3.7 0 0 64.85 96.10
  L 81.16 95.61
  A 0.56 0.56 0.0 0 0 81.71 95.05
  L 81.64 79.47
  C 81.80 71.47 81.69 63.68 82.13 55.52
  Q 82.90 40.97 82.70 25.98
  A 4.77 4.76 60.3 0 1 83.39 23.44
  Q 86.31 18.64 91.35 16.24
  A 0.42 0.41 77.1 0 1 91.94 16.61
  C 92.20 38.58 90.89 61.22 91.29 79.25
  Z"
/>
<path fill="#0b0b0b" d="
  M 257.04 100.50
  C 250.22 93.91 251.51 89.21 251.19 80.50
  Q 251.13 78.75 249.99 80.08
  Q 248.72 81.54 248.60 83.58
  Q 248.00 93.87 247.54 104.26
  Q 247.51 105.01 248.14 104.60
  L 251.95 102.14
  A 0.52 0.52 0.0 0 1 252.68 102.32
  Q 252.86 102.63 252.76 103.12
  Q 248.89 109.60 243.01 114.05
  L 240.59 115.10
  A 0.84 0.82 52.5 0 1 239.75 114.98
  Q 238.16 113.69 238.26 110.75
  Q 238.67 98.62 239.88 85.65
  A 0.98 0.98 0.0 0 0 238.63 84.62
  L 229.57 87.24
  A 0.75 0.74 83.0 0 0 229.04 87.93
  Q 228.82 96.77 230.13 105.50
  A 0.99 0.97 -26.5 0 1 229.84 106.34
  L 222.71 113.20
  Q 220.82 115.02 220.27 112.45
  C 218.78 105.53 219.62 97.47 219.40 90.21
  A 0.47 0.47 0.0 0 0 218.84 89.76
  L 208.55 91.75
  Q 206.41 92.16 207.44 90.24
  Q 211.10 83.43 218.75 82.04
  A 0.69 0.67 86.9 0 0 219.31 81.40
  C 219.53 75.68 218.12 62.11 221.41 57.79
  Q 221.84 57.22 221.14 57.32
  L 204.88 59.69
  A 0.77 0.76 87.7 0 0 204.23 60.40
  Q 203.42 73.21 203.16 91.57
  Q 203.08 97.13 203.89 101.50
  A 1.36 1.29 -35.6 0 1 203.71 102.43
  Q 201.86 105.43 198.77 108.14
  L 194.44 111.44
  Q 193.74 111.97 193.74 111.09
  L 193.71 102.00
  Q 193.56 83.75 195.12 65.58
  Q 195.17 65.05 195.35 64.56
  L 196.01 62.81
  Q 196.25 62.16 195.58 62.35
  L 180.01 66.79
  A 0.59 0.58 83.9 0 0 179.58 67.33
  L 178.53 88.44
  C 177.82 93.17 175.89 109.14 183.45 107.68
  Q 184.11 107.55 183.75 108.11
  Q 180.11 113.80 174.15 117.05
  Q 171.11 118.71 169.87 115.47
  C 169.02 113.25 168.42 111.03 168.46 108.54
  Q 168.74 91.35 170.25 73.84
  Q 170.40 72.11 169.36 73.50
  Q 164.01 80.63 157.90 88.41
  C 155.72 91.20 154.18 91.93 154.25 95.77
  Q 154.34 100.50 154.12 105.20
  A 1.42 1.42 0.0 0 1 153.68 106.18
  L 145.97 113.75
  Q 144.76 114.93 144.75 113.24
  L 144.74 106.09
  Q 144.73 105.26 144.07 105.76
  C 138.50 109.91 133.86 114.61 128.50 118.98
  Q 127.44 119.84 127.71 118.50
  C 128.39 115.19 130.28 113.81 132.19 111.21
  Q 132.48 110.80 131.98 110.80
  L 110.25 110.79
  L 108.31 110.65
  A 0.42 0.42 0.0 0 1 107.94 110.13
  L 108.79 107.00
  Q 109.01 106.50 109.01 105.92
  Q 108.92 95.91 108.96 85.72
  A 0.47 0.46 80.3 0 0 108.34 85.28
  L 105.33 86.35
  Q 104.08 86.79 104.78 85.67
  C 106.05 83.61 109.87 79.67 108.94 77.32
  A 0.42 0.42 0.0 0 0 108.29 77.15
  L 106.40 78.68
  A 0.63 0.62 -25.5 0 1 105.39 78.33
  L 105.33 78.07
  A 2.36 2.34 -28.7 0 1 105.97 75.91
  Q 121.20 60.65 142.06 55.59
  Q 143.74 55.18 145.27 55.23
  A 0.64 0.64 0.0 0 1 145.79 56.21
  Q 142.65 61.27 137.91 64.95
  A 0.89 0.89 0.0 0 1 137.02 65.07
  C 136.10 64.66 135.72 64.36 134.64 64.63
  C 131.48 65.43 120.79 68.33 119.08 70.86
  Q 118.17 72.21 118.35 72.96
  Q 118.84 74.93 120.67 74.04
  Q 131.24 68.90 142.51 65.67
  Q 143.47 65.39 142.91 66.22
  C 139.78 70.87 135.89 74.66 130.30 76.32
  Q 124.54 78.03 119.18 80.74
  A 1.02 1.01 75.9 0 0 118.62 81.68
  L 119.11 100.57
  A 0.70 0.69 -0.4 0 0 119.81 101.25
  L 142.70 101.25
  Q 144.75 101.25 144.75 99.20
  Q 144.76 82.97 144.74 66.44
  C 144.73 61.84 148.74 58.57 152.45 56.42
  Q 154.25 55.37 154.25 57.45
  L 154.25 86.74
  Q 154.25 87.62 154.82 86.95
  Q 161.69 78.93 167.50 70.29
  Q 170.45 67.44 171.24 63.58
  C 172.34 58.23 174.88 54.90 179.74 52.31
  A 0.41 0.41 0.0 0 1 180.33 52.56
  Q 181.79 58.00 179.68 63.20
  Q 179.34 64.04 179.99 63.41
  C 182.83 60.65 184.97 58.44 188.92 57.21
  Q 205.56 52.03 222.67 48.78
  C 224.66 48.41 226.78 48.47 228.77 48.55
  A 0.43 0.42 -82.5 0 1 229.16 49.07
  Q 228.58 51.72 226.31 53.26
  Q 226.23 53.31 226.32 53.28
  Q 227.79 52.69 228.49 52.79
  A 0.60 0.59 -86.1 0 1 229.00 53.38
  L 229.00 79.39
  A 0.55 0.54 -7.1 0 0 229.68 79.91
  L 240.84 77.12
  A 1.34 1.32 -3.3 0 0 241.84 76.01
  C 242.88 68.40 242.31 61.03 250.64 57.24
  Q 252.54 56.37 252.31 58.45
  C 252.05 60.69 249.92 73.77 250.55 74.38
  A 0.82 0.81 30.3 0 0 251.90 74.03
  C 254.67 64.84 260.97 55.68 269.46 50.87
  C 274.38 48.08 283.39 49.16 288.81 50.06
  Q 295.86 51.91 301.24 56.96
  A 0.58 0.57 49.4 0 0 301.96 57.02
  C 305.86 54.41 310.33 53.31 313.87 50.48
  Q 316.41 48.46 318.99 46.51
  Q 320.27 45.54 319.89 47.10
  C 319.40 49.13 320.21 49.72 322.11 49.27
  Q 334.16 46.42 346.51 47.78
  A 0.34 0.34 0.0 0 1 346.77 48.28
  Q 344.12 53.01 340.04 55.84
  C 337.51 57.60 324.48 56.89 320.55 57.13
  A 0.67 0.67 0.0 0 0 319.92 57.79
  L 318.89 102.89
  A 1.36 1.36 0.0 0 0 320.18 104.28
  Q 320.97 104.32 320.78 105.85
  C 320.44 108.50 314.57 113.73 312.90 114.72
  Q 309.91 116.50 309.83 113.02
  C 309.47 95.33 310.80 77.78 310.46 60.15
  A 0.45 0.44 -10.4 0 0 309.86 59.74
  L 304.59 61.57
  A 0.82 0.82 0.0 0 0 304.04 62.37
  Q 304.77 85.82 289.05 101.50
  C 282.32 108.22 277.07 112.43 267.69 110.36
  C 262.79 109.29 260.29 103.96 257.04 100.50
  Z
  M 266.54 88.50
  C 268.07 97.13 280.59 97.82 287.37 96.74
  Q 289.04 96.48 289.81 94.97
  Q 295.58 83.64 294.37 70.93
  Q 294.14 68.44 292.44 66.60
  Q 288.47 62.28 283.00 60.29
  C 276.11 58.24 261.27 54.20 261.69 67.02
  Q 261.70 67.51 262.07 67.18
  L 265.89 63.79
  Q 267.61 62.27 267.29 64.54
  Q 265.64 76.52 266.54 88.50
  Z"
/>
<path fill="#d7d7d7" d="
  M 160.37 55.25
  Q 157.36 52.83 156.25 49.04
  A 0.60 0.59 -11.7 0 1 156.76 48.28
  L 157.17 48.24
  A 0.76 0.76 0.0 0 1 157.95 48.70
  Q 160.43 54.35 164.06 59.29
  A 0.66 0.65 -41.3 0 1 164.00 60.13
  L 163.66 60.49
  A 0.51 0.50 -34.3 0 1 162.83 60.34
  L 161.12 56.25
  Q 160.87 55.65 160.37 55.25
  Z"
/>
<path fill="#ffffff" d="
  M 78.30 50.68
  C 79.51 51.58 81.61 54.53 80.75 56.11
  Q 80.49 56.58 80.25 56.11
  L 77.69 51.20
  Q 76.86 49.61 78.30 50.68
  Z"
/>
<path fill="#ffffff" d="
  M 243.01 114.05
  Q 241.68 118.01 238.67 120.88
  C 237.00 122.47 234.43 122.85 232.52 124.80
  A 0.67 0.67 0.0 0 1 231.94 125.00
  L 231.58 124.95
  Q 230.56 124.80 231.30 124.08
  L 231.55 123.83
  Q 231.89 123.49 231.42 123.56
  Q 229.63 123.82 228.80 124.80
  Q 225.54 128.68 221.81 130.49
  A 1.00 0.99 47.4 0 1 220.89 130.45
  Q 215.37 127.25 211.08 122.44
  Q 209.86 121.07 211.55 121.78
  Q 212.53 122.20 213.34 122.83
  A 0.39 0.39 0.0 0 0 213.96 122.59
  L 214.01 122.26
  A 0.62 0.62 0.0 0 0 213.81 121.69
  L 198.77 108.14
  Q 201.86 105.43 203.71 102.43
  A 1.36 1.29 -35.6 0 0 203.89 101.50
  Q 203.08 97.13 203.16 91.57
  Q 203.42 73.21 204.23 60.40
  A 0.77 0.76 87.7 0 1 204.88 59.69
  L 221.14 57.32
  Q 221.84 57.22 221.41 57.79
  C 218.12 62.11 219.53 75.68 219.31 81.40
  A 0.69 0.67 86.9 0 1 218.75 82.04
  Q 211.10 83.43 207.44 90.24
  Q 206.41 92.16 208.55 91.75
  L 218.84 89.76
  A 0.47 0.47 0.0 0 1 219.40 90.21
  C 219.62 97.47 218.78 105.53 220.27 112.45
  Q 220.82 115.02 222.71 113.20
  L 229.84 106.34
  A 0.99 0.97 -26.5 0 0 230.13 105.50
  Q 228.82 96.77 229.04 87.93
  A 0.75 0.74 83.0 0 1 229.57 87.24
  L 238.63 84.62
  A 0.98 0.98 0.0 0 1 239.88 85.65
  Q 238.67 98.62 238.26 110.75
  Q 238.16 113.69 239.75 114.98
  A 0.84 0.82 52.5 0 0 240.59 115.10
  L 243.01 114.05
  Z"
/>
<path fill="#ffffff" d="
  M 283.00 60.29
  C 281.50 66.20 277.54 70.26 276.16 76.07
  A 0.42 0.41 5.2 0 0 276.59 76.58
  C 277.70 76.52 278.06 72.79 278.86 71.64
  A 0.67 0.66 -65.0 0 1 279.59 71.37
  L 280.79 71.70
  A 0.62 0.61 -68.8 0 0 281.50 71.38
  L 282.04 70.29
  Q 282.41 69.55 282.77 70.29
  Q 284.92 74.59 280.99 77.27
  Q 280.17 77.83 280.62 76.94
  L 282.23 73.76
  Q 283.04 72.17 281.53 73.12
  Q 277.98 75.36 277.06 79.62
  Q 276.86 80.54 277.60 79.95
  L 278.01 79.62
  A 0.58 0.58 0.0 0 1 278.87 79.78
  Q 279.55 80.90 278.93 81.93
  A 1.71 1.68 -31.5 0 0 278.69 82.90
  Q 278.75 83.83 278.21 84.60
  A 0.76 0.76 0.0 0 1 277.40 84.90
  Q 273.38 83.89 271.96 87.68
  Q 271.71 88.33 271.34 87.74
  L 270.66 86.64
  A 0.51 0.50 -34.6 0 0 269.92 86.51
  Q 267.19 88.63 266.54 88.50
  Q 265.64 76.52 267.29 64.54
  Q 267.61 62.27 265.89 63.79
  L 262.07 67.18
  Q 261.70 67.51 261.69 67.02
  C 261.27 54.20 276.11 58.24 283.00 60.29
  Z"
/>
<path fill="#d7d7d7" d="
  M 283.00 60.29
  Q 288.47 62.28 292.44 66.60
  Q 294.14 68.44 294.37 70.93
  Q 295.58 83.64 289.81 94.97
  Q 289.04 96.48 287.37 96.74
  C 280.59 97.82 268.07 97.13 266.54 88.50
  Q 267.19 88.63 269.92 86.51
  A 0.51 0.50 -34.6 0 1 270.66 86.64
  L 271.34 87.74
  Q 271.71 88.33 271.96 87.68
  Q 273.38 83.89 277.40 84.90
  A 0.76 0.76 0.0 0 0 278.21 84.60
  Q 278.75 83.83 278.69 82.90
  A 1.71 1.68 -31.5 0 1 278.93 81.93
  Q 279.55 80.90 278.87 79.78
  A 0.58 0.58 0.0 0 0 278.01 79.62
  L 277.60 79.95
  Q 276.86 80.54 277.06 79.62
  Q 277.98 75.36 281.53 73.12
  Q 283.04 72.17 282.23 73.76
  L 280.62 76.94
  Q 280.17 77.83 280.99 77.27
  Q 284.92 74.59 282.77 70.29
  Q 282.41 69.55 282.04 70.29
  L 281.50 71.38
  A 0.62 0.61 -68.8 0 1 280.79 71.70
  L 279.59 71.37
  A 0.67 0.66 -65.0 0 0 278.86 71.64
  C 278.06 72.79 277.70 76.52 276.59 76.58
  A 0.42 0.41 5.2 0 1 276.16 76.07
  C 277.54 70.26 281.50 66.20 283.00 60.29
  Z
  M 286.43 68.10
  L 286.00 69.42
  A 0.44 0.44 0.0 0 0 286.42 70.00
  L 288.35 70.00
  A 0.45 0.45 0.0 0 0 288.77 69.39
  L 287.87 67.08
  A 0.69 0.68 57.1 0 0 286.76 66.84
  Q 286.43 67.16 286.48 67.59
  Q 286.51 67.85 286.43 68.10
  Z"
/>
<path fill="#ffffff" d="
  M 193.71 102.00
  Q 192.34 103.13 190.92 102.26
  Q 190.16 101.80 189.42 100.33
  Q 185.67 92.81 178.53 88.44
  L 179.58 67.33
  A 0.59 0.58 83.9 0 1 180.01 66.79
  L 195.58 62.35
  Q 196.25 62.16 196.01 62.81
  L 195.35 64.56
  Q 195.17 65.05 195.12 65.58
  Q 193.56 83.75 193.71 102.00
  Z"
/>
<path fill="#ffffff" d="
  M 286.48 67.59
  Q 286.43 67.16 286.76 66.84
  A 0.69 0.68 57.1 0 1 287.87 67.08
  L 288.77 69.39
  A 0.45 0.45 0.0 0 1 288.35 70.00
  L 286.42 70.00
  A 0.44 0.44 0.0 0 1 286.00 69.42
  L 286.43 68.10
  Q 286.51 67.85 286.48 67.59
  Z"
/>
<path fill="#ffffff" d="
  M 257.04 100.50
  L 252.76 103.12
  Q 252.86 102.63 252.68 102.32
  A 0.52 0.52 0.0 0 0 251.95 102.14
  L 248.14 104.60
  Q 247.51 105.01 247.54 104.26
  Q 248.00 93.87 248.60 83.58
  Q 248.72 81.54 249.99 80.08
  Q 251.13 78.75 251.19 80.50
  C 251.51 89.21 250.22 93.91 257.04 100.50
  Z"
/>
<path fill="#0b0b0b" d="
  M 94.26 112.26
  C 94.32 107.80 99.56 103.22 103.62 101.67
  A 0.36 0.35 79.1 0 1 104.10 102.00
  Q 104.33 117.35 104.28 132.60
  C 104.26 138.81 100.26 143.19 94.74 145.52
  A 0.34 0.33 -11.8 0 1 94.27 145.22
  Q 94.19 117.88 94.26 112.26
  Z"
/>
<path fill="#ffffff" d="
  M 242.67 120.74
  Q 244.46 116.28 249.59 118.28
  A 0.36 0.36 0.0 0 1 249.70 118.89
  Q 248.03 120.36 246.95 122.34
  A 1.79 1.77 1.6 0 1 246.19 123.05
  L 242.74 124.68
  Q 242.07 125.00 242.28 124.28
  Q 242.73 122.80 241.47 121.84
  A 0.41 0.41 0.0 0 1 241.36 121.31
  Q 241.60 120.87 242.15 121.01
  A 0.45 0.44 17.2 0 0 242.67 120.74
  Z"
/>
<path fill="#ffffff" d="
  M 152.25 137.21
  Q 146.89 135.29 141.75 137.54
  L 138.74 133.11
  Q 138.04 132.08 139.14 132.65
  Q 140.79 133.51 142.07 134.83
  A 0.47 0.46 43.8 0 0 142.75 134.82
  C 144.27 133.08 141.91 131.76 142.58 131.03
  A 0.58 0.58 0.0 0 1 143.36 130.96
  C 146.04 133.04 150.71 133.89 152.25 137.21
  Z"
/>
<path fill="#0b0b0b" d="
  M 311.29 145.25
  Q 310.02 161.01 310.41 176.81
  Q 310.51 181.02 313.81 182.38
  A 0.76 0.75 -60.3 0 1 314.12 183.54
  Q 310.63 188.17 305.96 191.50
  L 305.04 191.62
  A 1.31 1.29 58.0 0 1 304.12 191.40
  Q 301.86 189.82 301.29 187.00
  L 301.21 161.00
  L 301.71 153.15
  Q 301.74 152.54 301.38 153.03
  L 290.10 168.50
  Q 289.06 169.92 288.93 171.68
  C 288.74 174.17 287.95 183.46 290.05 185.32
  A 1.71 1.71 0.0 0 1 290.33 187.57
  Q 287.18 192.17 282.28 194.84
  A 1.01 1.00 46.1 0 1 281.29 194.82
  C 278.91 193.41 279.46 188.21 279.24 185.73
  Q 279.14 184.58 278.57 185.58
  Q 277.13 188.08 274.29 188.05
  A 0.48 0.48 0.0 0 1 273.86 187.37
  C 275.70 183.46 278.85 179.35 279.37 175.07
  Q 281.28 159.48 284.21 143.05
  Q 284.60 140.84 282.43 141.41
  L 275.76 143.18
  A 0.90 0.90 0.0 0 0 275.10 143.88
  C 271.98 159.69 267.26 175.98 268.45 192.48
  A 1.79 1.75 -33.5 0 1 268.25 193.41
  Q 265.26 199.12 259.05 200.90
  C 257.89 185.68 261.75 171.10 264.74 156.50
  Q 265.62 152.19 265.21 147.76
  A 0.52 0.52 0.0 0 0 264.49 147.33
  L 257.35 150.38
  A 0.90 0.90 0.0 0 0 256.80 151.24
  C 256.92 154.93 258.00 159.11 257.70 162.36
  C 256.59 174.65 246.57 183.98 237.24 191.33
  A 2.70 2.70 0.0 0 0 236.21 193.55
  Q 236.65 205.58 235.22 217.68
  L 234.25 231.21
  Q 231.79 237.52 225.54 239.77
  A 0.33 0.33 0.0 0 1 225.09 239.44
  L 225.71 227.25
  L 226.71 212.50
  L 227.01 195.98
  A 0.47 0.47 0.0 0 0 226.54 195.50
  C 221.37 195.40 221.95 190.38 221.14 186.88
  A 0.19 0.19 0.0 0 0 220.84 186.77
  Q 209.66 195.05 195.75 195.79
  Q 194.45 194.92 193.23 195.42
  A 1.61 1.61 0.0 0 1 191.07 194.34
  C 190.47 192.05 190.03 189.89 190.02 187.44
  Q 189.99 171.72 189.99 155.95
  Q 189.99 153.87 188.45 155.26
  L 186.88 156.67
  Q 186.07 157.41 186.31 156.34
  C 187.43 151.42 196.41 145.47 199.33 143.59
  Q 204.07 140.56 216.71 135.95
  C 219.34 134.99 221.75 135.21 224.46 135.27
  A 0.79 0.77 80.0 0 1 225.15 135.76
  L 225.54 136.75
  C 225.38 141.07 220.36 145.29 217.08 147.82
  Q 215.53 149.02 215.51 147.06
  L 215.50 145.51
  A 0.71 0.70 -87.2 0 0 214.88 144.82
  C 210.23 144.25 204.56 146.72 199.94 148.86
  A 0.76 0.75 78.0 0 0 199.50 149.55
  L 199.50 160.22
  Q 199.50 160.78 199.96 160.47
  C 205.86 156.50 215.89 154.46 222.89 153.01
  Q 224.59 152.66 223.86 154.23
  C 221.63 159.01 218.08 162.04 212.67 162.95
  Q 206.09 164.07 199.88 166.70
  A 0.76 0.75 77.9 0 0 199.43 167.41
  L 199.67 183.16
  Q 199.73 186.84 203.39 186.53
  Q 212.26 185.77 220.31 182.35
  A 1.20 1.20 0.0 0 0 221.00 181.55
  Q 222.94 174.12 227.42 167.90
  A 1.71 1.70 63.3 0 0 227.75 166.89
  L 227.75 150.45
  Q 227.75 149.44 227.22 150.29
  Q 226.27 151.80 224.56 151.68
  A 0.74 0.73 -77.0 0 1 223.93 150.67
  Q 226.31 144.69 231.25 140.54
  C 237.23 134.19 248.73 132.07 253.14 141.65
  A 0.51 0.51 0.0 0 0 253.88 141.87
  Q 262.88 136.12 273.42 134.20
  A 0.69 0.69 0.0 0 1 274.20 134.66
  L 274.81 136.50
  A 0.41 0.41 0.0 0 0 275.31 136.76
  L 291.08 131.81
  Q 294.25 130.81 293.74 134.09
  L 289.31 162.55
  Q 289.04 164.29 290.11 162.89
  Q 296.91 153.95 303.96 143.96
  Q 306.92 139.77 310.81 138.19
  A 0.38 0.37 79.0 0 1 311.32 138.54
  L 311.29 145.25
  Z
  M 241.99 147.72
  L 238.51 144.66
  Q 237.39 143.68 237.34 145.17
  L 237.05 154.28
  Q 237.01 155.61 237.95 154.67
  L 242.08 150.53
  Q 243.54 149.08 241.99 147.72
  Z
  M 256.86 146.39
  Q 255.22 145.01 256.38 147.27
  Q 256.61 147.71 256.85 147.27
  L 256.98 147.04
  A 0.52 0.51 35.0 0 0 256.86 146.39
  Z
  M 238.74 157.69
  Q 237.24 159.11 237.24 161.18
  L 237.25 184.49
  A 0.71 0.70 10.1 0 0 237.72 185.15
  Q 238.95 185.58 239.79 185.04
  C 251.31 177.55 248.77 164.04 245.42 152.87
  A 0.77 0.77 0.0 0 0 244.15 152.53
  L 238.74 157.69
  Z"
/>
<path fill="#0b0b0b" d="
  M 368.40 162.21
  C 373.93 158.45 383.70 155.97 389.97 159.50
  A 0.33 0.33 0.0 0 0 390.46 159.25
  C 391.18 153.46 390.31 148.50 390.63 141.99
  C 390.87 137.23 394.73 133.54 398.74 131.70
  A 0.88 0.88 0.0 0 1 399.99 132.50
  Q 400.01 169.41 400.00 206.25
  C 399.99 210.63 395.34 214.32 391.39 216.31
  A 0.34 0.34 0.0 0 1 390.90 216.03
  C 389.85 203.31 391.00 190.13 390.45 177.28
  Q 390.43 176.78 390.15 177.19
  C 381.80 189.68 372.22 197.06 356.24 196.67
  C 348.26 196.48 350.72 184.23 351.89 179.54
  Q 352.01 179.07 351.73 179.47
  C 346.10 187.64 339.46 194.15 328.75 193.73
  C 319.39 193.36 312.86 184.44 320.01 176.24
  Q 327.94 167.14 339.21 164.91
  A 0.34 0.34 0.0 0 1 339.61 165.31
  C 338.55 170.18 331.30 174.12 326.97 175.76
  A 1.01 1.00 64.5 0 0 326.46 177.21
  Q 332.07 186.82 343.06 183.53
  A 1.97 1.94 -3.5 0 0 344.42 182.01
  Q 346.35 171.32 344.36 160.18
  Q 343.71 156.53 340.00 156.91
  Q 332.07 157.71 324.70 160.83
  Q 323.34 161.41 324.00 160.09
  C 327.14 153.78 333.44 151.65 331.07 143.15
  A 0.71 0.70 -10.8 0 0 330.32 142.65
  L 326.11 143.08
  A 1.01 0.99 9.5 0 0 325.31 143.64
  Q 322.68 149.19 317.56 152.51
  Q 313.91 154.88 315.91 151.02
  C 320.07 142.95 329.88 132.03 339.84 133.33
  A 0.69 0.68 88.2 0 1 340.43 133.89
  C 341.86 141.36 339.91 144.01 336.06 149.96
  Q 335.78 150.38 336.26 150.22
  Q 342.89 147.97 349.89 147.61
  Q 352.38 147.48 353.27 149.81
  C 355.69 156.16 355.01 166.57 354.28 173.27
  Q 354.22 173.78 354.55 173.39
  C 357.63 169.77 358.64 166.64 358.45 161.58
  C 358.10 151.99 355.47 140.48 366.23 135.18
  A 0.81 0.80 76.2 0 1 367.39 135.89
  L 367.85 161.92
  Q 367.86 162.57 368.40 162.21
  Z
  M 370.66 178.95
  Q 367.39 183.50 362.72 186.58
  Q 362.21 186.92 362.82 187.00
  Q 370.79 187.99 378.20 185.11
  C 384.32 182.73 382.68 173.97 380.86 169.40
  A 2.90 2.89 84.0 0 0 378.68 167.63
  Q 374.43 166.89 370.16 167.59
  A 0.45 0.44 -8.1 0 0 369.79 168.08
  L 370.93 177.90
  A 1.57 1.53 60.1 0 1 370.66 178.95
  Z"
/>
<path fill="#0b0b0b" d="
  M 173.96 175.50
  L 174.04 173.50
  Q 174.53 168.06 174.82 162.59
  C 175.12 156.81 176.57 150.49 176.77 144.24
  A 0.52 0.52 0.0 0 0 176.20 143.71
  Q 172.41 144.06 169.00 145.73
  A 0.92 0.91 -13.0 0 0 168.49 146.53
  Q 168.40 153.64 167.21 158.74
  Q 166.12 163.36 166.54 167.25
  Q 166.75 173.24 169.00 178.79
  L 170.06 181.85
  A 0.91 0.89 -36.8 0 1 169.93 182.69
  Q 166.06 188.06 160.75 192.04
  Q 159.75 191.43 160.07 190.33
  A 1.69 1.67 -44.7 0 0 160.08 189.43
  L 157.14 178.97
  A 0.30 0.29 59.5 0 0 156.65 178.84
  C 150.14 185.12 144.66 191.41 136.02 194.78
  C 132.59 196.12 128.75 195.09 125.28 196.62
  Q 118.46 199.63 110.97 199.50
  C 107.52 199.44 104.52 201.13 102.39 203.35
  Q 100.77 205.05 100.12 202.79
  C 99.12 199.36 99.06 196.53 97.04 193.53
  Q 90.43 183.72 97.45 173.45
  A 1.79 1.78 -28.2 0 0 97.75 172.46
  L 97.75 152.76
  Q 97.75 152.02 97.12 152.40
  L 82.57 161.33
  A 1.80 1.80 0.0 0 0 81.72 163.10
  Q 82.98 172.71 82.72 182.25
  C 82.50 190.42 74.33 195.73 66.84 196.84
  C 27.22 202.70 63.23 171.15 70.66 165.82
  A 1.87 1.85 68.0 0 0 71.41 164.03
  Q 70.17 155.83 67.47 148.02
  A 1.06 1.05 -21.3 0 0 66.05 147.40
  C 57.39 151.16 53.79 161.47 54.27 170.27
  A 1.63 1.63 0.0 0 1 53.98 171.29
  Q 50.59 176.12 45.73 179.47
  A 0.35 0.35 0.0 0 1 45.19 179.22
  C 43.54 162.67 57.30 148.30 70.14 140.11
  Q 72.55 138.57 74.33 138.20
  Q 76.15 137.82 76.82 139.56
  Q 80.16 148.31 80.84 157.70
  A 0.40 0.39 -18.6 0 0 81.45 158.00
  L 106.60 141.67
  Q 107.08 141.36 107.09 141.93
  L 107.21 164.28
  Q 107.21 164.85 107.63 164.46
  Q 116.56 156.03 123.86 146.10
  C 124.82 144.79 131.17 137.39 132.86 138.71
  A 0.37 0.36 36.9 0 1 132.94 139.21
  Q 122.40 154.40 108.84 166.93
  Q 107.08 168.56 107.04 170.96
  Q 106.89 178.53 108.20 186.03
  A 1.38 1.37 -75.7 0 0 108.68 186.85
  Q 112.15 189.70 116.70 189.99
  A 1.64 1.63 1.6 0 0 118.44 188.35
  C 118.30 170.64 123.16 151.96 137.54 140.25
  L 141.75 137.54
  Q 146.89 135.29 152.25 137.21
  C 157.09 138.57 156.91 141.28 157.94 145.49
  Q 158.06 145.98 158.41 145.62
  C 164.33 139.65 174.64 136.89 182.55 134.68
  Q 184.35 134.17 184.73 134.19
  Q 186.78 134.33 186.48 136.36
  Q 183.20 158.12 183.48 179.05
  C 183.51 181.80 184.84 184.56 184.44 187.77
  Q 184.25 189.33 185.70 192.26
  Q 185.87 192.60 186.17 192.73
  A 0.61 0.61 0.0 0 0 186.86 192.55
  Q 187.36 191.95 187.99 191.90
  A 0.45 0.44 -87.9 0 1 188.46 192.41
  C 188.17 194.26 188.28 195.70 186.98 197.17
  Q 183.66 200.95 180.06 203.95
  A 1.27 1.27 0.0 0 1 178.18 203.65
  C 173.63 196.33 173.65 183.84 173.96 175.50
  Z
  M 148.53 165.81
  C 148.16 161.03 149.75 149.02 144.97 147.04
  C 141.92 145.77 136.29 143.97 134.48 148.03
  Q 128.13 162.33 127.78 178.80
  C 127.71 182.38 128.55 185.04 132.47 185.27
  A 0.96 0.96 0.0 0 0 133.28 184.91
  C 134.38 183.55 139.44 177.68 141.53 177.88
  A 0.42 0.41 -71.5 0 1 141.84 178.51
  L 137.52 185.59
  A 0.36 0.36 0.0 0 0 137.76 186.13
  Q 142.54 186.96 145.81 184.83
  Q 159.13 176.16 156.87 159.48
  Q 156.79 158.92 156.38 159.31
  L 149.28 166.10
  Q 148.61 166.74 148.53 165.81
  Z
  M 60.09 186.86
  Q 66.22 189.26 72.72 187.77
  A 0.63 0.62 -6.4 0 0 73.21 187.16
  Q 73.26 178.24 72.12 169.41
  A 0.45 0.44 -20.6 0 0 71.43 169.10
  C 66.37 172.50 60.19 176.71 58.18 182.78
  Q 57.21 185.72 60.09 186.86
  Z"
/>
<path fill="#bebebe" d="
  M 225.54 136.75
  Q 228.77 137.40 230.31 140.14
  A 0.70 0.68 -10.7 0 0 230.84 140.49
  L 231.25 140.54
  Q 226.31 144.69 223.93 150.67
  A 0.74 0.73 -77.0 0 0 224.56 151.68
  Q 226.27 151.80 227.22 150.29
  Q 227.75 149.44 227.75 150.45
  L 227.75 166.89
  A 1.71 1.70 63.3 0 1 227.42 167.90
  Q 222.94 174.12 221.00 181.55
  A 1.20 1.20 0.0 0 1 220.31 182.35
  Q 212.26 185.77 203.39 186.53
  Q 199.73 186.84 199.67 183.16
  L 199.43 167.41
  A 0.76 0.75 77.9 0 1 199.88 166.70
  Q 206.09 164.07 212.67 162.95
  C 218.08 162.04 221.63 159.01 223.86 154.23
  Q 224.59 152.66 222.89 153.01
  C 215.89 154.46 205.86 156.50 199.96 160.47
  Q 199.50 160.78 199.50 160.22
  L 199.50 149.55
  A 0.76 0.75 78.0 0 1 199.94 148.86
  C 204.56 146.72 210.23 144.25 214.88 144.82
  A 0.71 0.70 -87.2 0 1 215.50 145.51
  L 215.51 147.06
  Q 215.53 149.02 217.08 147.82
  C 220.36 145.29 225.38 141.07 225.54 136.75
  Z"
/>
<path fill="#d7d7d7" d="
  M 301.21 161.00
  Q 296.48 162.55 293.77 166.88
  A 0.49 0.48 32.1 0 0 293.93 167.55
  L 295.36 168.46
  A 0.76 0.76 0.0 0 1 295.55 169.58
  L 293.34 172.40
  A 0.43 0.43 0.0 0 0 293.38 172.98
  L 295.62 175.02
  A 0.33 0.33 0.0 0 1 295.63 175.50
  L 295.38 175.74
  A 0.41 0.39 38.9 0 1 294.89 175.78
  Q 291.09 173.38 288.59 177.55
  A 1.17 1.17 0.0 0 0 288.96 179.14
  Q 289.21 179.30 289.52 179.25
  A 1.01 0.98 59.0 0 1 290.30 179.46
  L 300.58 187.83
  Q 301.15 188.29 301.23 187.56
  L 301.29 187.00
  Q 301.86 189.82 304.12 191.40
  A 1.31 1.29 58.0 0 0 305.04 191.62
  L 305.96 191.50
  Q 306.21 192.44 307.08 192.86
  A 1.83 1.78 86.2 0 1 307.79 193.50
  C 312.43 200.78 318.29 207.50 322.16 214.85
  Q 325.67 221.51 328.86 228.34
  C 331.15 233.27 336.23 234.20 338.47 240.09
  Q 340.21 244.66 342.26 249.07
  A 0.47 0.46 67.8 0 1 342.00 249.70
  L 341.19 250.00
  L 266.19 250.00
  Q 265.29 249.58 263.28 249.82
  A 1.98 1.97 -16.2 0 1 261.26 248.71
  C 259.26 244.50 257.74 239.64 254.67 236.32
  Q 251.12 232.48 246.55 229.73
  Q 245.46 229.07 246.03 230.22
  L 246.62 231.39
  Q 246.94 232.04 246.27 231.77
  L 244.41 231.05
  A 0.84 0.82 38.2 0 0 243.66 231.13
  Q 241.13 232.79 239.13 230.06
  A 0.68 0.67 -41.5 0 1 239.19 229.18
  L 239.56 228.80
  A 0.41 0.41 0.0 0 0 239.38 228.12
  Q 238.37 227.83 234.86 228.92
  A 0.46 0.45 78.2 0 0 234.54 229.42
  Q 234.67 230.33 234.25 231.21
  L 235.22 217.68
  Q 240.67 216.30 243.35 211.79
  C 245.86 207.57 252.87 203.22 256.78 200.04
  Q 257.98 199.07 259.05 200.90
  Q 265.26 199.12 268.25 193.41
  A 1.79 1.75 -33.5 0 0 268.45 192.48
  C 267.26 175.98 271.98 159.69 275.10 143.88
  A 0.90 0.90 0.0 0 1 275.76 143.18
  L 282.43 141.41
  Q 284.60 140.84 284.21 143.05
  Q 281.28 159.48 279.37 175.07
  C 278.85 179.35 275.70 183.46 273.86 187.37
  A 0.48 0.48 0.0 0 0 274.29 188.05
  Q 277.13 188.08 278.57 185.58
  Q 279.14 184.58 279.24 185.73
  C 279.46 188.21 278.91 193.41 281.29 194.82
  A 1.01 1.00 46.1 0 0 282.28 194.84
  Q 287.18 192.17 290.33 187.57
  A 1.71 1.71 0.0 0 0 290.05 185.32
  C 287.95 183.46 288.74 174.17 288.93 171.68
  Q 289.06 169.92 290.10 168.50
  L 301.38 153.03
  Q 301.74 152.54 301.71 153.15
  L 301.21 161.00
  Z"
/>
<path fill="#d7d7d7" d="
  M 174.04 173.50
  L 173.97 171.84
  A 0.88 0.88 0.0 0 0 173.52 171.11
  L 166.54 167.25
  Q 166.12 163.36 167.21 158.74
  Q 168.40 153.64 168.49 146.53
  A 0.92 0.91 -13.0 0 1 169.00 145.73
  Q 172.41 144.06 176.20 143.71
  A 0.52 0.52 0.0 0 1 176.77 144.24
  C 176.57 150.49 175.12 156.81 174.82 162.59
  Q 174.53 168.06 174.04 173.50
  Z"
/>
<path fill="#bebebe" d="
  M 241.99 147.72
  Q 243.54 149.08 242.08 150.53
  L 237.95 154.67
  Q 237.01 155.61 237.05 154.28
  L 237.34 145.17
  Q 237.39 143.68 238.51 144.66
  L 241.99 147.72
  Z"
/>
<path fill="#ffffff" d="
  M 149.28 166.10
  L 156.38 159.31
  Q 156.79 158.92 156.87 159.48
  Q 159.13 176.16 145.81 184.83
  Q 142.54 186.96 137.76 186.13
  A 0.36 0.36 0.0 0 1 137.52 185.59
  L 141.84 178.51
  A 0.42 0.41 -71.5 0 0 141.53 177.88
  C 139.44 177.68 134.38 183.55 133.28 184.91
  A 0.96 0.96 0.0 0 1 132.47 185.27
  C 128.55 185.04 127.71 182.38 127.78 178.80
  Q 128.13 162.33 134.48 148.03
  C 136.29 143.97 141.92 145.77 144.97 147.04
  C 149.75 149.02 148.16 161.03 148.53 165.81
  Q 148.61 166.74 149.28 166.10
  Z"
/>
<path fill="#bebebe" d="
  M 256.98 147.04
  L 256.85 147.27
  Q 256.61 147.71 256.38 147.27
  Q 255.22 145.01 256.86 146.39
  A 0.52 0.51 35.0 0 1 256.98 147.04
  Z"
/>
<path fill="#bebebe" d="
  M 259.05 200.90
  Q 257.98 199.07 256.78 200.04
  C 252.87 203.22 245.86 207.57 243.35 211.79
  Q 240.67 216.30 235.22 217.68
  Q 236.65 205.58 236.21 193.55
  A 2.70 2.70 0.0 0 1 237.24 191.33
  C 246.57 183.98 256.59 174.65 257.70 162.36
  C 258.00 159.11 256.92 154.93 256.80 151.24
  A 0.90 0.90 0.0 0 1 257.35 150.38
  L 264.49 147.33
  A 0.52 0.52 0.0 0 1 265.21 147.76
  Q 265.62 152.19 264.74 156.50
  C 261.75 171.10 257.89 185.68 259.05 200.90
  Z"
/>
<path fill="#bebebe" d="
  M 238.74 157.69
  L 244.15 152.53
  A 0.77 0.77 0.0 0 1 245.42 152.87
  C 248.77 164.04 251.31 177.55 239.79 185.04
  Q 238.95 185.58 237.72 185.15
  A 0.71 0.70 10.1 0 1 237.25 184.49
  L 237.24 161.18
  Q 237.24 159.11 238.74 157.69
  Z"
/>
<path fill="#ffffff" d="
  M 301.21 161.00
  L 301.29 187.00
  L 301.23 187.56
  Q 301.15 188.29 300.58 187.83
  L 290.30 179.46
  A 1.01 0.98 59.0 0 0 289.52 179.25
  Q 289.21 179.30 288.96 179.14
  A 1.17 1.17 0.0 0 1 288.59 177.55
  Q 291.09 173.38 294.89 175.78
  A 0.41 0.39 38.9 0 0 295.38 175.74
  L 295.63 175.50
  A 0.33 0.33 0.0 0 0 295.62 175.02
  L 293.38 172.98
  A 0.43 0.43 0.0 0 1 293.34 172.40
  L 295.55 169.58
  A 0.76 0.76 0.0 0 0 295.36 168.46
  L 293.93 167.55
  A 0.49 0.48 32.1 0 1 293.77 166.88
  Q 296.48 162.55 301.21 161.00
  Z"
/>
<path fill="#ffffff" d="
  M 166.54 167.25
  L 173.52 171.11
  A 0.88 0.88 0.0 0 1 173.97 171.84
  L 174.04 173.50
  L 173.96 175.50
  Q 172.77 179.10 169.00 178.79
  Q 166.75 173.24 166.54 167.25
  Z"
/>
<path fill="#ffffff" d="
  M 370.93 177.90
  L 369.79 168.08
  A 0.45 0.44 -8.1 0 1 370.16 167.59
  Q 374.43 166.89 378.68 167.63
  A 2.90 2.89 84.0 0 1 380.86 169.40
  C 382.68 173.97 384.32 182.73 378.20 185.11
  Q 370.79 187.99 362.82 187.00
  Q 362.21 186.92 362.72 186.58
  Q 367.39 183.50 370.66 178.95
  A 1.57 1.53 60.1 0 0 370.93 177.90
  Z"
/>
<path fill="#ffffff" d="
  M 60.09 186.86
  Q 57.21 185.72 58.18 182.78
  C 60.19 176.71 66.37 172.50 71.43 169.10
  A 0.45 0.44 -20.6 0 1 72.12 169.41
  Q 73.26 178.24 73.21 187.16
  A 0.63 0.62 -6.4 0 1 72.72 187.77
  Q 66.22 189.26 60.09 186.86
  Z"
/>
<path fill="#bebebe" d="
  M 226.71 212.50
  Q 226.46 210.72 225.04 210.67
  A 0.47 0.46 -3.7 0 0 224.57 211.20
  L 224.91 213.51
  Q 225.02 214.27 224.31 213.98
  L 221.58 212.85
  A 0.57 0.57 0.0 0 1 221.29 212.05
  Q 221.83 211.02 222.90 210.37
  A 0.28 0.26 65.4 0 0 223.01 210.05
  L 222.91 209.74
  A 0.16 0.16 0.0 0 0 222.66 209.66
  L 219.22 212.14
  A 0.47 0.47 0.0 0 0 219.26 212.92
  L 222.83 214.99
  A 1.42 1.39 8.0 0 1 223.47 215.82
  Q 223.97 217.67 222.26 218.29
  A 0.96 0.95 -39.6 0 1 221.44 218.22
  C 213.15 213.34 202.65 206.54 195.47 199.20
  A 0.71 0.70 -53.6 0 1 195.35 198.39
  Q 196.03 197.04 195.75 195.79
  Q 209.66 195.05 220.84 186.77
  A 0.19 0.19 0.0 0 1 221.14 186.88
  C 221.95 190.38 221.37 195.40 226.54 195.50
  A 0.47 0.47 0.0 0 1 227.01 195.98
  L 226.71 212.50
  Z"
/>
<path fill="#ffffff" d="
  M 225.71 227.25
  L 225.09 239.44
  A 0.33 0.33 0.0 0 0 225.54 239.77
  Q 231.79 237.52 234.25 231.21
  Q 234.67 230.33 234.54 229.42
  A 0.46 0.45 78.2 0 1 234.86 228.92
  Q 238.37 227.83 239.38 228.12
  A 0.41 0.41 0.0 0 1 239.56 228.80
  L 239.19 229.18
  A 0.68 0.67 -41.5 0 0 239.13 230.06
  Q 241.13 232.79 243.66 231.13
  A 0.84 0.82 38.2 0 1 244.41 231.05
  L 246.27 231.77
  Q 246.94 232.04 246.62 231.39
  L 246.03 230.22
  Q 245.46 229.07 246.55 229.73
  Q 251.12 232.48 254.67 236.32
  C 257.74 239.64 259.26 244.50 261.26 248.71
  A 1.98 1.97 -16.2 0 0 263.28 249.82
  Q 265.29 249.58 266.19 250.00
  L 202.44 250.00
  Q 206.35 246.61 210.06 242.99
  C 213.54 239.59 218.47 235.69 222.17 231.42
  A 1.51 1.48 -23.7 0 0 222.52 230.55
  Q 222.66 227.53 225.71 227.25
  Z"
/>
<path fill="#ffffff" d="
  M 118.44 250.00
  L 108.94 250.00
  Q 113.68 249.21 118.44 250.00
  Z"
/>
</svg>
