<?xml version="1.0" encoding="UTF-8" standalone="no"?>
<!-- Created with Inkscape (http://www.inkscape.org/) -->

<svg
   xmlns:dc="http://purl.org/dc/elements/1.1/"
   xmlns:cc="http://creativecommons.org/ns#"
   xmlns:rdf="http://www.w3.org/1999/02/22-rdf-syntax-ns#"
   xmlns:svg="http://www.w3.org/2000/svg"
   xmlns="http://www.w3.org/2000/svg"
   xmlns:sodipodi="http://sodipodi.sourceforge.net/DTD/sodipodi-0.dtd"
   xmlns:inkscape="http://www.inkscape.org/namespaces/inkscape"
   width="400"
   height="600"
   viewBox="0 0 105.83333 158.75"
   version="1.1"
   id="svg8"
   inkscape:version="0.92.4 (5da689c313, 2019-01-14)"
   sodipodi:docname="33_m.svg">
  <defs
     id="defs2" />
  <sodipodi:namedview
     id="base"
     pagecolor="#ffffff"
     bordercolor="#666666"
     borderopacity="1.0"
     inkscape:pageopacity="0.0"
     inkscape:pageshadow="2"
     inkscape:zoom="1.2816667"
     inkscape:cx="232.31038"
     inkscape:cy="399.52069"
     inkscape:document-units="mm"
     inkscape:current-layer="layer1"
     showgrid="false"
     units="px"
     showguides="true"
     inkscape:guide-bbox="true"
     inkscape:window-width="1280"
     inkscape:window-height="968"
     inkscape:window-x="0"
     inkscape:window-y="0"
     inkscape:window-maximized="1">
    <sodipodi:guide
       position="20.78869,60.476191"
       orientation="1,0"
       id="guide859"
       inkscape:locked="false" />
    <sodipodi:guide
       position="20.78869,128.88988"
       orientation="1,0"
       id="guide863"
       inkscape:locked="false" />
    <sodipodi:guide
       position="12.85119,57.641369"
       orientation="1,0"
       id="guide865"
       inkscape:locked="false" />
    <sodipodi:guide
       position="32.339612,108.51143"
       orientation="0,1"
       id="guide867"
       inkscape:locked="false" />
    <sodipodi:guide
       position="-9.0871638,97.553376"
       orientation="0,1"
       id="guide2596"
       inkscape:locked="false" />
    <sodipodi:guide
       position="-16.036171,64.144687"
       orientation="0,1"
       id="guide2598"
       inkscape:locked="false" />
  </sodipodi:namedview>
  <metadata
     id="metadata5">
    <rdf:RDF>
      <cc:Work
         rdf:about="">
        <dc:format>image/svg+xml</dc:format>
        <dc:type
           rdf:resource="http://purl.org/dc/dcmitype/StillImage" />
        <dc:title></dc:title>
      </cc:Work>
    </rdf:RDF>
  </metadata>
  <g
     inkscape:label="Layer 1"
     inkscape:groupmode="layer"
     id="layer1"
     transform="translate(0,-138.24998)">
    <rect
       style="opacity:1;fill:#ffffff;fill-opacity:0.60101007;stroke:#000000;stroke-width:0.27790931;stroke-miterlimit:4;stroke-dasharray:none;stroke-dashoffset:0;stroke-opacity:1"
       id="rect10"
       width="105.4538"
       height="158.75175"
       x="0.17799145"
       y="138.24911"
       ry="7.9375877" />
    <flowRoot
       xml:space="preserve"
       id="flowRoot851"
       style="fill:black;fill-opacity:1;stroke:none;font-family:sans-serif;font-style:normal;font-weight:normal;font-size:40px;line-height:0;letter-spacing:0px;word-spacing:0px"><flowRegion
         id="flowRegion853"><rect
           id="rect855"
           width="114.28571"
           height="65.714287"
           x="47.142857"
           y="194.28572" /></flowRegion><flowPara
         id="flowPara857" /></flowRoot>    <text
       xml:space="preserve"
       style="font-style:normal;font-weight:normal;font-size:33.90801239px;line-height:0;font-family:sans-serif;letter-spacing:0px;word-spacing:0px;fill:#666666;fill-opacity:1;stroke:none;stroke-width:0.84770024"
       x="16.134531"
       y="174.63515"
       id="text827"><tspan
         sodipodi:role="line"
         id="tspan825"
         x="16.134531"
         y="174.63515"
         style="font-style:normal;font-variant:normal;font-weight:bold;font-stretch:normal;font-family:Arsenal;-inkscape-font-specification:'Arsenal Bold';fill:#666666;stroke-width:0.84770024">33</tspan></text>
    <g
       id="g36596"
       transform="matrix(0.22079062,0,0,0.22079062,4.7501776,175.90375)">
      <g
         id="g36391"
         style="fill:none;stroke-width:2;stroke-linecap:butt">
        <path
           id="path36243"
           d="m 69.56,0 1.72,7.06 a 0.52,0.51 -17.3 0 0 0.68,0.35 L 73.01,7 A 0.51,0.5 -27.7 0 0 73.25,6.24 L 72.47,5.12 A 0.47,0.46 -33.5 0 1 72.61,4.47 L 72.87,4.31 A 0.6,0.6 0 0 1 73.6,4.4 q 2.53,2.52 0.14,5 a 1.56,1.54 -20.9 0 0 -0.42,0.92 q -0.98,9.54 0.39,18.97 c 0.68,4.66 5.53,11.53 3.43,16.08 a 0.7,0.69 -74.5 0 1 -0.7,0.4 q -2.31,-0.24 -3.82,1.47 -0.55,0.62 -0.58,-0.21 L 72,46.17 a 0.6,0.59 81.6 0 1 0.44,-0.6 C 74.61,45.01 72.48,41.59 72.1,40.23 71.35,37.57 70.01,35.25 69.6,32.42 69.34,30.64 68.46,29.69 67.36,28.4 Q 67.03,28.01 67,28.53 c -0.12,2.56 0.73,4.77 0.66,7.32 q -0.17,6.62 3.88,12.01 a 1.53,1.51 -65.1 0 1 0.31,0.86 q 0.14,2.92 2.75,4.36 a 0.84,0.83 16.8 0 1 0.43,0.79 l -0.13,1.55 q -0.11,1.38 -0.79,0.17 L 72.98,53.57 Q 72.5,52.7 72.45,53.69 c -0.35,7.26 5.88,19.18 9.19,25.78"
           inkscape:connector-curvature="0"
           style="vector-effect:non-scaling-stroke;stroke:#ebebeb" />
        <path
           id="path36245"
           d="m 81.64,79.47 0.07,15.58 a 0.56,0.56 0 0 1 -0.55,0.56 L 64.85,96.1 a 1.76,1.75 -3.7 0 1 -1.8,-1.58 Q 62.46,88.69 62.38,83 61.96,50.75 61.86,18.88 a 0.62,0.61 77.5 0 0 -0.87,-0.56 c -5.57,2.56 -8.49,6.32 -8.51,12.62 q -0.1,29.75 0.41,59.5 0.1,5.85 0.83,12.39 0.28,2.51 2.81,2.41 l 24.69,-1.03 a 0.51,0.5 -1.1 0 1 0.53,0.5 v 6.35 q 0,1 0.81,0.41 5.22,-3.82 8.84,-9.13 c 1.72,-2.54 7.21,-7 5.84,-10.22 a 0.39,0.39 0 0 0 -0.57,-0.17 l -4.19,2.77 q -1.22,0.81 -1.22,-0.66 l 0.03,-14.81"
           inkscape:connector-curvature="0"
           style="vector-effect:non-scaling-stroke;stroke:#858585" />
        <path
           id="path36247"
           d="m 91.29,79.25 2.38,0.1 a 0.7,0.69 -4.1 0 1 0.66,0.57 l 0.3,1.53 a 1.19,1.16 14 0 0 0.45,0.73 c 5.56,4.19 7.16,10.31 9.17,16.29 q 1.15,3.42 3.68,6.11 0.93,0.99 0.86,2.42"
           inkscape:connector-curvature="0"
           style="vector-effect:non-scaling-stroke;stroke:#ebebeb" />
        <path
           id="path36249"
           d="m 108.79,107 -0.85,3.13 a 0.42,0.42 0 0 0 0.37,0.52 l 1.94,0.14"
           inkscape:connector-curvature="0"
           style="vector-effect:non-scaling-stroke;stroke:#858585" />
        <path
           id="path36251"
           d="m 110.25,110.79 q 1.37,0.08 2.71,2 8.35,11.9 22.66,26.29 c 0.48,0.48 1.34,0.8 1.92,1.17"
           inkscape:connector-curvature="0"
           style="vector-effect:non-scaling-stroke;stroke:#ebebeb" />
        <path
           id="path36253"
           d="m 137.54,140.25 c -14.38,11.71 -19.24,30.39 -19.1,48.1 a 1.64,1.63 1.6 0 1 -1.74,1.64 q -4.55,-0.29 -8.02,-3.14 a 1.38,1.37 -75.7 0 1 -0.48,-0.82 q -1.31,-7.5 -1.16,-15.07 0.04,-2.4 1.8,-4.03 13.56,-12.53 24.1,-27.72 a 0.37,0.36 36.9 0 0 -0.08,-0.5 c -1.69,-1.32 -8.04,6.08 -9,7.39 q -7.3,9.93 -16.23,18.36 -0.42,0.39 -0.42,-0.18 l -0.12,-22.35 q -0.01,-0.57 -0.49,-0.26 L 81.45,158 a 0.4,0.39 -18.6 0 1 -0.61,-0.3 q -0.68,-9.39 -4.02,-18.14 -0.67,-1.74 -2.49,-1.36 -1.78,0.37 -4.19,1.91 c -12.84,8.19 -26.6,22.56 -24.95,39.11 a 0.35,0.35 0 0 0 0.54,0.25 q 4.86,-3.35 8.25,-8.18 a 1.63,1.63 0 0 0 0.29,-1.02 c -0.48,-8.8 3.12,-19.11 11.78,-22.87 a 1.06,1.05 -21.3 0 1 1.42,0.62 q 2.7,7.81 3.94,16.01 a 1.87,1.85 68 0 1 -0.75,1.79 c -7.43,5.33 -43.44,36.88 -3.82,31.02 7.49,-1.11 15.66,-6.42 15.88,-14.59 q 0.26,-9.54 -1,-19.15 a 1.8,1.8 0 0 1 0.85,-1.77 l 14.55,-8.93 q 0.63,-0.38 0.63,0.36 v 19.7 a 1.79,1.78 -28.2 0 1 -0.3,0.99 q -7.02,10.27 -0.41,20.08 c 2.02,3 2.08,5.83 3.08,9.26 q 0.65,2.26 2.27,0.56 c 2.13,-2.22 5.13,-3.91 8.58,-3.85 q 7.49,0.13 14.31,-2.88 c 3.47,-1.53 7.31,-0.5 10.74,-1.84 8.64,-3.37 14.12,-9.66 20.63,-15.94 a 0.3,0.29 59.5 0 1 0.49,0.13 l 2.94,10.46 a 1.69,1.67 -44.7 0 1 -0.01,0.9 q -0.32,1.1 0.68,1.71"
           inkscape:connector-curvature="0"
           style="vector-effect:non-scaling-stroke;stroke:#858585" />
        <path
           id="path36255"
           d="m 160.75,192.04 c 0.18,1.89 -7.53,9.04 -9.18,10.41 a 0.73,0.72 -31.1 0 0 -0.21,0.82 c 1.08,2.75 16,-13.35 18.02,-13.47 q 1.1,-0.06 2.26,0.35 0.66,0.24 0.12,0.69 -0.69,0.59 -1.35,1.36 -1.12,1.35 0.23,0.23 l 1.72,-1.41 q 1.98,-1.62 0.52,0.48 -5.54,7.93 -13.48,13.4 -0.67,0.46 -0.66,-0.35 l 0.01,-0.45 a 0.59,0.58 -10 0 1 0.39,-0.55 q 0.56,-0.21 0.84,-0.73 0.48,-0.88 -0.46,-0.51 c -2.54,1.01 -8.47,3.08 -11.04,2.71 q -2.29,-0.33 -3.81,1.41 -3.38,3.86 -2.93,9.01 a 1.7,1.68 57.4 0 1 -0.21,0.99 c -5.1,9.1 -15.69,17.31 -24.13,23.24 q -0.43,0.3 -0.4,-0.22 l 0.02,-0.43 q 0.1,-1.9 -1.16,-0.47 l -8.91,10.21 a 0.71,0.7 43.5 0 0 0.03,0.96 q 0.17,0.18 0.46,0.28"
           inkscape:connector-curvature="0"
           style="vector-effect:non-scaling-stroke;stroke:#ebebeb" />
        <path
           id="path36257"
           d="m 63.31,0.49 c -1.04,0.28 -0.94,1.24 -0.47,2.05 q 1.53,2.62 1.13,5.72 a 0.62,0.61 -71.9 0 0 0.3,0.61 l 0.29,0.17 a 0.26,0.25 -72.2 0 0 0.38,-0.2 Q 65.28,6 64.29,3.34 A 1.79,1.73 -50 0 1 64.22,2.35 Q 64.37,1.63 64.18,0.99 a 0.71,0.7 74.5 0 0 -0.87,-0.5"
           inkscape:connector-curvature="0"
           style="vector-effect:non-scaling-stroke;stroke:#ebebeb" />
        <path
           id="path36259"
           d="m 103.62,101.67 c -4.06,1.55 -9.3,6.13 -9.36,10.59 q -0.07,5.62 0.01,32.96 a 0.34,0.33 -11.8 0 0 0.47,0.3 c 5.52,-2.33 9.52,-6.71 9.54,-12.92 q 0.05,-15.25 -0.18,-30.6 a 0.36,0.35 79.1 0 0 -0.48,-0.33"
           inkscape:connector-curvature="0"
           style="vector-effect:non-scaling-stroke;stroke:#858585" />
        <path
           id="path36261"
           d="m 140.31,0 0.83,0.34 A 0.82,0.82 0 0 1 141.65,1 q 1.52,11.51 3.1,23.04 0.24,1.7 0.15,3.47 -0.07,1.52 -0.13,3.09 a 0.98,0.95 -67.8 0 0 0.3,0.75 l 2.25,2.12 a 0.62,0.61 47.6 0 1 -0.04,0.93 q -1.36,1.08 -1.61,-0.54 -0.18,-1.1 -0.51,-0.04 -1.36,4.36 2.3,5.93"
           inkscape:connector-curvature="0"
           style="vector-effect:non-scaling-stroke;stroke:#ebebeb" />
        <path
           id="path36263"
           d="m 147.46,39.75 -1.56,6.7 a 1.18,1.17 34.6 0 0 0.17,0.91 c 2.12,3.08 4.73,-0.95 6.39,-2.11"
           inkscape:connector-curvature="0"
           style="vector-effect:non-scaling-stroke;stroke:#717171" />
        <path
           id="path36265"
           d="m 152.46,45.25 q 3.5,7.93 8.51,14.94 c 2.22,3.11 3.53,6.31 5.34,9.6 a 0.92,0.92 0 0 0 0.72,0.46 l 0.47,0.04"
           inkscape:connector-curvature="0"
           style="vector-effect:non-scaling-stroke;stroke:#ebebeb" />
        <path
           id="path36267"
           d="m 167.5,70.29 q -5.81,8.64 -12.68,16.66 -0.57,0.67 -0.57,-0.21 V 57.45 q 0,-2.08 -1.8,-1.03 c -3.71,2.15 -7.72,5.42 -7.71,10.02 q 0.02,16.53 0.01,32.76 0,2.05 -2.05,2.05 h -22.89 a 0.7,0.69 -0.4 0 1 -0.7,-0.68 l -0.49,-18.89 a 1.02,1.01 75.9 0 1 0.56,-0.94 q 5.36,-2.71 11.12,-4.42 c 5.59,-1.66 9.48,-5.45 12.61,-10.1 q 0.56,-0.83 -0.4,-0.55 -11.27,3.23 -21.84,8.37 -1.83,0.89 -2.32,-1.08 -0.18,-0.75 0.73,-2.1 c 1.71,-2.53 12.4,-5.43 15.56,-6.23 1.08,-0.27 1.46,0.03 2.38,0.44 a 0.89,0.89 0 0 0 0.89,-0.12 q 4.74,-3.68 7.88,-8.74 a 0.64,0.64 0 0 0 -0.52,-0.98 q -1.53,-0.05 -3.21,0.36 -20.86,5.06 -36.09,20.32 a 2.36,2.34 -28.7 0 0 -0.64,2.16 l 0.06,0.26 a 0.63,0.62 -25.5 0 0 1.01,0.35 l 1.89,-1.53 a 0.42,0.42 0 0 1 0.65,0.17 c 0.93,2.35 -2.89,6.29 -4.16,8.35 q -0.7,1.12 0.55,0.68 l 3.01,-1.07 a 0.47,0.46 80.3 0 1 0.62,0.44 q -0.04,10.19 0.05,20.2 0,0.58 -0.22,1.08"
           inkscape:connector-curvature="0"
           style="vector-effect:non-scaling-stroke;stroke:#717171" />
        <path
           id="path36269"
           d="M 91.29,79.25 C 90.89,61.22 92.2,38.58 91.94,16.61 a 0.42,0.41 77.1 0 0 -0.59,-0.37 q -5.04,2.4 -7.96,7.2 a 4.77,4.76 60.3 0 0 -0.69,2.54 q 0.2,14.99 -0.57,29.54 c -0.44,8.16 -0.33,15.95 -0.49,23.95"
           inkscape:connector-curvature="0"
           style="vector-effect:non-scaling-stroke;stroke:#717171" />
        <path
           id="path36271"
           d="m 78.3,50.68 q -1.44,-1.07 -0.61,0.52 l 2.56,4.91 q 0.24,0.47 0.5,0 c 0.86,-1.58 -1.24,-4.53 -2.45,-5.43"
           inkscape:connector-curvature="0"
           style="vector-effect:non-scaling-stroke;stroke:#ebebeb" />
        <path
           id="path36273"
           d="m 311.81,0 -1.61,0.43 a 0.83,0.82 88.9 0 0 -0.58,0.61 c -3.63,16.27 -10.26,28.7 -18.71,43.92 a 1.59,1.57 -33.3 0 0 -0.2,0.94 q 0.23,2.76 -1.9,4.16"
           inkscape:connector-curvature="0"
           style="vector-effect:non-scaling-stroke;stroke:#ebebeb" />
        <path
           id="path36275"
           d="m 288.81,50.06 c -5.42,-0.9 -14.43,-1.98 -19.35,0.81 -8.49,4.81 -14.79,13.97 -17.56,23.16 a 0.82,0.81 30.3 0 1 -1.35,0.35 c -0.63,-0.61 1.5,-13.69 1.76,-15.93 q 0.23,-2.08 -1.67,-1.21 c -8.33,3.79 -7.76,11.16 -8.8,18.77 a 1.34,1.32 -3.3 0 1 -1,1.11 l -11.16,2.79 A 0.55,0.54 -7.1 0 1 229,79.39 V 53.38 a 0.6,0.59 -86.1 0 0 -0.51,-0.59 q -0.7,-0.1 -2.17,0.49 -0.09,0.03 -0.01,-0.02 2.27,-1.54 2.85,-4.19 a 0.43,0.42 -82.5 0 0 -0.39,-0.52 c -1.99,-0.08 -4.11,-0.14 -6.1,0.23 q -17.11,3.25 -33.75,8.43 c -3.95,1.23 -6.09,3.44 -8.93,6.2 q -0.65,0.63 -0.31,-0.21 2.11,-5.2 0.65,-10.64 a 0.41,0.41 0 0 0 -0.59,-0.25 c -4.86,2.59 -7.4,5.92 -8.5,11.27 q -0.79,3.86 -3.74,6.71"
           inkscape:connector-curvature="0"
           style="vector-effect:non-scaling-stroke;stroke:#858585" />
        <path
           id="path36277"
           d="m 152.46,45.25 3.46,-4.09 a 0.89,0.87 54 0 0 0.13,-0.89 l -0.61,-1.48 a 1.81,1.79 39.2 0 1 -0.11,-1.03 q 1.99,-10.4 9.11,-17.86 c 3.81,-3.98 9.86,-7.29 13.98,-12.87 a 0.48,0.48 0 0 0 -0.13,-0.7 c -0.37,-0.24 -0.68,-0.02 -0.97,0.15 q -20.06,12.07 -29.86,33.27"
           inkscape:connector-curvature="0"
           style="vector-effect:non-scaling-stroke;stroke:#858585" />
        <path
           id="path36279"
           d="m 160.37,55.25 q 0.5,0.4 0.75,1 l 1.71,4.09 a 0.51,0.5 -34.3 0 0 0.83,0.15 L 164,60.13 a 0.66,0.65 -41.3 0 0 0.06,-0.84 q -3.63,-4.94 -6.11,-10.59 a 0.76,0.76 0 0 0 -0.78,-0.46 l -0.41,0.04 a 0.6,0.59 -11.7 0 0 -0.51,0.76 q 1.11,3.79 4.12,6.21"
           inkscape:connector-curvature="0"
           style="vector-effect:non-scaling-stroke;stroke:#ebebeb" />
        <path
           id="path36281"
           d="m 318.65,0.1 q -2.06,5.89 -4.26,11.72 c -0.55,1.46 -0.51,3.18 1.4,3.3 q 0.51,0.03 0.24,-0.4 c -2.45,-3.96 0.45,-5.19 1.55,-8.33 1.03,-2.96 1.63,-5.78 3.98,-6.39"
           inkscape:connector-curvature="0"
           style="vector-effect:non-scaling-stroke;stroke:#ebebeb" />
        <path
           id="path36283"
           d="m 385.06,0 q 1.16,6.45 0.44,9.75 -3.67,16.92 -12.09,41.01 -1.37,3.89 -3.73,7.53 c -4.39,6.74 -9.34,13.77 -12.71,21.08 -3.62,7.82 -8.1,15.11 -15.71,27.55 -3.02,4.93 -7.28,16.44 -11.73,19.53 q -0.44,0.3 -0.19,-0.17 3.62,-6.83 7.14,-13.72 c 0.74,-1.44 2.62,-2.55 2.16,-4.84 q -0.1,-0.5 -0.46,-0.12 c -6.11,6.55 -11.56,13.64 -15.51,21.71 -2.99,6.13 -5.47,11.98 -11.38,15.94"
           inkscape:connector-curvature="0"
           style="vector-effect:non-scaling-stroke;stroke:#ebebeb" />
        <path
           id="path36285"
           d="m 311.29,145.25 0.03,-6.71 a 0.38,0.37 79 0 0 -0.51,-0.35 q -3.89,1.58 -6.85,5.77 -7.05,9.99 -13.85,18.93 -1.07,1.4 -0.8,-0.34 l 4.43,-28.46 q 0.51,-3.28 -2.66,-2.28 l -15.77,4.95 a 0.41,0.41 0 0 1 -0.5,-0.26 l -0.61,-1.84 a 0.69,0.69 0 0 0 -0.78,-0.46 q -10.54,1.92 -19.54,7.67 a 0.51,0.51 0 0 1 -0.74,-0.22 c -4.41,-9.58 -15.91,-7.46 -21.89,-1.11"
           inkscape:connector-curvature="0"
           style="vector-effect:non-scaling-stroke;stroke:#717171" />
        <path
           id="path36287"
           d="m 231.25,140.54 -0.41,-0.05 a 0.7,0.68 -10.7 0 1 -0.53,-0.35 q -1.54,-2.74 -4.77,-3.39"
           inkscape:connector-curvature="0"
           style="vector-effect:non-scaling-stroke;stroke:#cbcbcb" />
        <path
           id="path36289"
           d="m 225.54,136.75 -0.39,-0.99 a 0.79,0.77 80 0 0 -0.69,-0.49 c -2.71,-0.06 -5.12,-0.28 -7.75,0.68 q -12.64,4.61 -17.38,7.64 c -2.92,1.88 -11.9,7.83 -13.02,12.75 q -0.24,1.07 0.57,0.33 l 1.57,-1.41 q 1.54,-1.39 1.54,0.69 0,15.77 0.03,31.49 c 0.01,2.45 0.45,4.61 1.05,6.9 a 1.61,1.61 0 0 0 2.16,1.08 q 1.22,-0.5 2.52,0.37"
           inkscape:connector-curvature="0"
           style="vector-effect:non-scaling-stroke;stroke:#717171" />
        <path
           id="path36291"
           d="m 195.75,195.79 q 0.28,1.25 -0.4,2.6 a 0.71,0.7 -53.6 0 0 0.12,0.81 c 7.18,7.34 17.68,14.14 25.97,19.02 a 0.96,0.95 -39.6 0 0 0.82,0.07 q 1.71,-0.62 1.21,-2.47 a 1.42,1.39 8 0 0 -0.64,-0.83 l -3.57,-2.07 a 0.47,0.47 0 0 1 -0.04,-0.78 l 3.44,-2.48 a 0.16,0.16 0 0 1 0.25,0.08 l 0.1,0.31 a 0.28,0.26 65.4 0 1 -0.11,0.32 q -1.07,0.65 -1.61,1.68 a 0.57,0.57 0 0 0 0.29,0.8 l 2.73,1.13 q 0.71,0.29 0.6,-0.47 l -0.34,-2.31 a 0.47,0.46 -3.7 0 1 0.47,-0.53 q 1.42,0.05 1.67,1.83"
           inkscape:connector-curvature="0"
           style="vector-effect:non-scaling-stroke;stroke:#cbcbcb" />
        <path
           id="path36293"
           d="m 226.71,212.5 -1,14.75"
           inkscape:connector-curvature="0"
           style="vector-effect:non-scaling-stroke;stroke:#717171" />
        <path
           id="path36295"
           d="m 225.71,227.25 q -3.05,0.28 -3.19,3.3 a 1.51,1.48 -23.7 0 1 -0.35,0.87 c -3.7,4.27 -8.63,8.17 -12.11,11.57 q -3.71,3.62 -7.62,7.01"
           inkscape:connector-curvature="0"
           style="vector-effect:non-scaling-stroke;stroke:#ebebeb" />
        <path
           id="path36297"
           d="m 118.44,250 q -4.76,-0.79 -9.5,0"
           inkscape:connector-curvature="0"
           style="vector-effect:non-scaling-stroke;stroke:#ebebeb" />
        <path
           id="path36299"
           d="m 160.75,192.04 q 5.31,-3.98 9.18,-9.35 a 0.91,0.89 -36.8 0 0 0.13,-0.84 L 169,178.79"
           inkscape:connector-curvature="0"
           style="vector-effect:non-scaling-stroke;stroke:#717171" />
        <path
           id="path36301"
           d="m 169,178.79 q 3.77,0.31 4.96,-3.29"
           inkscape:connector-curvature="0"
           style="vector-effect:non-scaling-stroke;stroke:#ebebeb" />
        <path
           id="path36303"
           d="m 173.96,175.5 c -0.31,8.34 -0.33,20.83 4.22,28.15 a 1.27,1.27 0 0 0 1.88,0.3 q 3.6,-3 6.92,-6.78 c 1.3,-1.47 1.19,-2.91 1.48,-4.76 a 0.45,0.44 -87.9 0 0 -0.47,-0.51 q -0.63,0.05 -1.13,0.65 a 0.61,0.61 0 0 1 -0.69,0.18 q -0.3,-0.13 -0.47,-0.47 -1.45,-2.93 -1.26,-4.49 c 0.4,-3.21 -0.93,-5.97 -0.96,-8.72 q -0.28,-20.93 3,-42.69 0.3,-2.03 -1.75,-2.17 -0.38,-0.02 -2.18,0.49 c -7.91,2.21 -18.22,4.97 -24.14,10.94 q -0.35,0.36 -0.47,-0.13 c -1.03,-4.21 -0.85,-6.92 -5.69,-8.28"
           inkscape:connector-curvature="0"
           style="vector-effect:non-scaling-stroke;stroke:#717171" />
        <path
           id="path36305"
           d="m 152.25,137.21 c -1.54,-3.32 -6.21,-4.17 -8.89,-6.25 a 0.58,0.58 0 0 0 -0.78,0.07 c -0.67,0.73 1.69,2.05 0.17,3.79 a 0.47,0.46 43.8 0 1 -0.68,0.01 q -1.28,-1.32 -2.93,-2.18 -1.1,-0.57 -0.4,0.46 l 3.01,4.43"
           inkscape:connector-curvature="0"
           style="vector-effect:non-scaling-stroke;stroke:#ebebeb" />
        <path
           id="path36307"
           d="m 141.75,137.54 -4.21,2.71"
           inkscape:connector-curvature="0"
           style="vector-effect:non-scaling-stroke;stroke:#717171" />
        <path
           id="path36309"
           d="m 110.25,110.79 21.73,0.01 q 0.5,0 0.21,0.41 c -1.91,2.6 -3.8,3.98 -4.48,7.29 q -0.27,1.34 0.79,0.48 c 5.36,-4.37 10,-9.07 15.57,-13.22 q 0.66,-0.5 0.67,0.33 l 0.01,7.15 q 0.01,1.69 1.22,0.51 l 7.71,-7.57 a 1.42,1.42 0 0 0 0.44,-0.98 q 0.22,-4.7 0.13,-9.43 c -0.07,-3.84 1.47,-4.57 3.65,-7.36 q 6.11,-7.78 11.46,-14.91 1.04,-1.39 0.89,0.34 -1.51,17.51 -1.79,34.7 c -0.04,2.49 0.56,4.71 1.41,6.93 q 1.24,3.24 4.28,1.58 5.96,-3.25 9.6,-8.94 0.36,-0.56 -0.3,-0.43 c -7.56,1.46 -5.63,-14.51 -4.92,-19.24"
           inkscape:connector-curvature="0"
           style="vector-effect:non-scaling-stroke;stroke:#717171" />
        <path
           id="path36311"
           d="m 178.53,88.44 q 7.14,4.37 10.89,11.89 0.74,1.47 1.5,1.93 1.42,0.87 2.79,-0.26"
           inkscape:connector-curvature="0"
           style="vector-effect:non-scaling-stroke;stroke:#ebebeb" />
        <path
           id="path36313"
           d="m 193.71,102 0.03,9.09 q 0,0.88 0.7,0.35 l 4.33,-3.3"
           inkscape:connector-curvature="0"
           style="vector-effect:non-scaling-stroke;stroke:#717171" />
        <path
           id="path36315"
           d="m 198.77,108.14 15.04,13.55 a 0.62,0.62 0 0 1 0.2,0.57 l -0.05,0.33 a 0.39,0.39 0 0 1 -0.62,0.24 q -0.81,-0.63 -1.79,-1.05 -1.69,-0.71 -0.47,0.66 4.29,4.81 9.81,8.01 a 1,0.99 47.4 0 0 0.92,0.04 q 3.73,-1.81 6.99,-5.69 0.83,-0.98 2.62,-1.24 0.47,-0.07 0.13,0.27 l -0.25,0.25 q -0.74,0.72 0.28,0.87 l 0.36,0.05 a 0.67,0.67 0 0 0 0.58,-0.2 c 1.91,-1.95 4.48,-2.33 6.15,-3.92 q 3.01,-2.87 4.34,-6.83"
           inkscape:connector-curvature="0"
           style="vector-effect:non-scaling-stroke;stroke:#ebebeb" />
        <path
           id="path36317"
           d="m 243.01,114.05 q 5.88,-4.45 9.75,-10.93"
           inkscape:connector-curvature="0"
           style="vector-effect:non-scaling-stroke;stroke:#717171" />
        <path
           id="path36319"
           d="m 252.76,103.12 4.28,-2.62"
           inkscape:connector-curvature="0"
           style="vector-effect:non-scaling-stroke;stroke:#ebebeb" />
        <path
           id="path36321"
           d="m 257.04,100.5 c 3.25,3.46 5.75,8.79 10.65,9.86 9.38,2.07 14.63,-2.14 21.36,-8.86 q 15.72,-15.68 14.99,-39.13 a 0.82,0.82 0 0 1 0.55,-0.8 l 5.27,-1.83 a 0.45,0.44 -10.4 0 1 0.6,0.41 c 0.34,17.63 -0.99,35.18 -0.63,52.87 q 0.08,3.48 3.07,1.7 c 1.67,-0.99 7.54,-6.22 7.88,-8.87 q 0.19,-1.53 -0.6,-1.57 a 1.36,1.36 0 0 1 -1.29,-1.39 l 1.03,-45.1 a 0.67,0.67 0 0 1 0.63,-0.66 c 3.93,-0.24 16.96,0.47 19.49,-1.29 q 4.08,-2.83 6.73,-7.56 a 0.34,0.34 0 0 0 -0.26,-0.5 q -12.35,-1.36 -24.4,1.49 c -1.9,0.45 -2.71,-0.14 -2.22,-2.17 q 0.38,-1.56 -0.9,-0.59 -2.58,1.95 -5.12,3.97 c -3.54,2.83 -8.01,3.93 -11.91,6.54 a 0.58,0.57 49.4 0 1 -0.72,-0.06 q -5.38,-5.05 -12.43,-6.9"
           inkscape:connector-curvature="0"
           style="vector-effect:non-scaling-stroke;stroke:#717171" />
        <path
           id="path36323"
           d="m 374.24,20.58 a 0.27,0.26 32.2 0 0 0.06,0.25 l 0.24,0.23 a 0.25,0.25 0 0 0 0.41,-0.09 c 0.5,-1.34 5.7,-11.36 3.47,-11.86 a 0.57,0.57 0 0 0 -0.67,0.38 l -3.51,11.09"
           inkscape:connector-curvature="0"
           style="vector-effect:non-scaling-stroke;stroke:#ebebeb" />
        <path
           id="path36325"
           d="m 242.15,121.01 q -0.55,-0.14 -0.79,0.3 a 0.41,0.41 0 0 0 0.11,0.53 q 1.26,0.96 0.81,2.44 -0.21,0.72 0.46,0.4 l 3.45,-1.63 a 1.79,1.77 1.6 0 0 0.76,-0.71 q 1.08,-1.98 2.75,-3.45 a 0.36,0.36 0 0 0 -0.11,-0.61 q -5.13,-2 -6.92,2.46 a 0.45,0.44 17.2 0 1 -0.52,0.27"
           inkscape:connector-curvature="0"
           style="vector-effect:non-scaling-stroke;stroke:#ebebeb" />
        <path
           id="path36327"
           d="m 341.19,250 0.81,-0.3 a 0.47,0.46 67.8 0 0 0.26,-0.63 q -2.05,-4.41 -3.79,-8.98 c -2.24,-5.89 -7.32,-6.82 -9.61,-11.75 q -3.19,-6.83 -6.7,-13.49 c -3.87,-7.35 -9.73,-14.07 -14.37,-21.35 a 1.83,1.78 86.2 0 0 -0.71,-0.64 q -0.87,-0.42 -1.12,-1.36"
           inkscape:connector-curvature="0"
           style="vector-effect:non-scaling-stroke;stroke:#ebebeb" />
        <path
           id="path36329"
           d="m 305.96,191.5 q 4.67,-3.33 8.16,-7.96 a 0.76,0.75 -60.3 0 0 -0.31,-1.16 q -3.3,-1.36 -3.4,-5.57 -0.39,-15.8 0.88,-31.56"
           inkscape:connector-curvature="0"
           style="vector-effect:non-scaling-stroke;stroke:#858585" />
        <path
           id="path36331"
           d="m 367.85,161.92 -0.46,-26.03 a 0.81,0.8 76.2 0 0 -1.16,-0.71 c -10.76,5.3 -8.13,16.81 -7.78,26.4 0.19,5.06 -0.82,8.19 -3.9,11.81 q -0.33,0.39 -0.27,-0.12 c 0.73,-6.7 1.41,-17.11 -1.01,-23.46 q -0.89,-2.33 -3.38,-2.2 -7,0.36 -13.63,2.61 -0.48,0.16 -0.2,-0.26 c 3.85,-5.95 5.8,-8.6 4.37,-16.07 a 0.69,0.68 88.2 0 0 -0.59,-0.56 c -9.96,-1.3 -19.77,9.62 -23.93,17.69 q -2,3.86 1.65,1.49 5.12,-3.32 7.75,-8.87 a 1.01,0.99 9.5 0 1 0.8,-0.56 l 4.21,-0.43 a 0.71,0.7 -10.8 0 1 0.75,0.5 c 2.37,8.5 -3.93,10.63 -7.07,16.94 q -0.66,1.32 0.7,0.74 7.37,-3.12 15.3,-3.92 3.71,-0.38 4.36,3.27 1.99,11.14 0.06,21.83 a 1.97,1.94 -3.5 0 1 -1.36,1.52 q -10.99,3.29 -16.6,-6.32 a 1.01,1 64.5 0 1 0.51,-1.45 c 4.33,-1.64 11.58,-5.58 12.64,-10.45 a 0.34,0.34 0 0 0 -0.4,-0.4 q -11.27,2.23 -19.2,11.33 c -7.15,8.2 -0.62,17.12 8.74,17.49 10.71,0.42 17.35,-6.09 22.98,-14.26 q 0.28,-0.4 0.16,0.07 c -1.17,4.69 -3.63,16.94 4.35,17.13 15.98,0.39 25.56,-6.99 33.91,-19.48 q 0.28,-0.41 0.3,0.09 c 0.55,12.85 -0.6,26.03 0.45,38.75 a 0.34,0.34 0 0 0 0.49,0.28 c 3.95,-1.99 8.6,-5.68 8.61,-10.06 q 0.01,-36.84 -0.01,-73.75 a 0.88,0.88 0 0 0 -1.25,-0.8 c -4.01,1.84 -7.87,5.53 -8.11,10.29 -0.32,6.51 0.55,11.47 -0.17,17.26 a 0.33,0.33 0 0 1 -0.49,0.25 c -6.27,-3.53 -16.04,-1.05 -21.57,2.71 q -0.54,0.36 -0.55,-0.29"
           inkscape:connector-curvature="0"
           style="vector-effect:non-scaling-stroke;stroke:#858585" />
        <path
           id="path36333"
           d="m 257.04,100.5 c -6.82,-6.59 -5.53,-11.29 -5.85,-20 q -0.06,-1.75 -1.2,-0.42 -1.27,1.46 -1.39,3.5 -0.6,10.29 -1.06,20.68 -0.03,0.75 0.6,0.34 l 3.81,-2.46 a 0.52,0.52 0 0 1 0.73,0.18 q 0.18,0.31 0.08,0.8"
           inkscape:connector-curvature="0"
           style="vector-effect:non-scaling-stroke;stroke:#858585" />
        <path
           id="path36335"
           d="m 243.01,114.05 -2.42,1.05 a 0.84,0.82 52.5 0 1 -0.84,-0.12 q -1.59,-1.29 -1.49,-4.23 0.41,-12.13 1.62,-25.1 a 0.98,0.98 0 0 0 -1.25,-1.03 l -9.06,2.62 a 0.75,0.74 83 0 0 -0.53,0.69 q -0.22,8.84 1.09,17.57 a 0.99,0.97 -26.5 0 1 -0.29,0.84 l -7.13,6.86 q -1.89,1.82 -2.44,-0.75 c -1.49,-6.92 -0.65,-14.98 -0.87,-22.24 a 0.47,0.47 0 0 0 -0.56,-0.45 l -10.29,1.99 q -2.14,0.41 -1.11,-1.51 3.66,-6.81 11.31,-8.2 a 0.69,0.67 86.9 0 0 0.56,-0.64 c 0.22,-5.72 -1.19,-19.29 2.1,-23.61 q 0.43,-0.57 -0.27,-0.47 l -16.26,2.37 a 0.77,0.76 87.7 0 0 -0.65,0.71 q -0.81,12.81 -1.07,31.17 -0.08,5.56 0.73,9.93 a 1.36,1.29 -35.6 0 1 -0.18,0.93 q -1.85,3 -4.94,5.71"
           inkscape:connector-curvature="0"
           style="vector-effect:non-scaling-stroke;stroke:#858585" />
        <path
           id="path36337"
           d="m 193.71,102 q -0.15,-18.25 1.41,-36.42 0.05,-0.53 0.23,-1.02 l 0.66,-1.75 q 0.24,-0.65 -0.43,-0.46 l -15.57,4.44 a 0.59,0.58 83.9 0 0 -0.43,0.54 l -1.05,21.11"
           inkscape:connector-curvature="0"
           style="vector-effect:non-scaling-stroke;stroke:#858585" />
        <path
           id="path36339"
           d="m 266.54,88.5 c 1.53,8.63 14.05,9.32 20.83,8.24 q 1.67,-0.26 2.44,-1.77 5.77,-11.33 4.56,-24.04 -0.23,-2.49 -1.93,-4.33 -3.97,-4.32 -9.44,-6.31"
           inkscape:connector-curvature="0"
           style="vector-effect:non-scaling-stroke;stroke:#717171" />
        <path
           id="path36341"
           d="m 283,60.29 c -6.89,-2.05 -21.73,-6.09 -21.31,6.73 q 0.01,0.49 0.38,0.16 l 3.82,-3.39 q 1.72,-1.52 1.4,0.75 -1.65,11.98 -0.75,23.96"
           inkscape:connector-curvature="0"
           style="vector-effect:non-scaling-stroke;stroke:#858585" />
        <path
           id="path36343"
           d="m 283,60.29 c -1.5,5.91 -5.46,9.97 -6.84,15.78 a 0.42,0.41 5.2 0 0 0.43,0.51 c 1.11,-0.06 1.47,-3.79 2.27,-4.94 a 0.67,0.66 -65 0 1 0.73,-0.27 l 1.2,0.33 a 0.62,0.61 -68.8 0 0 0.71,-0.32 l 0.54,-1.09 q 0.37,-0.74 0.73,0 2.15,4.3 -1.78,6.98 -0.82,0.56 -0.37,-0.33 l 1.61,-3.18 q 0.81,-1.59 -0.7,-0.64 -3.55,2.24 -4.47,6.5 -0.2,0.92 0.54,0.33 l 0.41,-0.33 a 0.58,0.58 0 0 1 0.86,0.16 q 0.68,1.12 0.06,2.15 a 1.71,1.68 -31.5 0 0 -0.24,0.97 q 0.06,0.93 -0.48,1.7 a 0.76,0.76 0 0 1 -0.81,0.3 q -4.02,-1.01 -5.44,2.78 -0.25,0.65 -0.62,0.06 l -0.68,-1.1 a 0.51,0.5 -34.6 0 0 -0.74,-0.13 q -2.73,2.12 -3.38,1.99"
           inkscape:connector-curvature="0"
           style="vector-effect:non-scaling-stroke;stroke:#ebebeb" />
        <path
           id="path36345"
           d="M 286.43,68.1 286,69.42 a 0.44,0.44 0 0 0 0.42,0.58 h 1.93 a 0.45,0.45 0 0 0 0.42,-0.61 l -0.9,-2.31 a 0.69,0.68 57.1 0 0 -1.11,-0.24 q -0.33,0.32 -0.28,0.75 0.03,0.26 -0.05,0.51"
           inkscape:connector-curvature="0"
           style="vector-effect:non-scaling-stroke;stroke:#ebebeb" />
        <path
           id="path36347"
           d="m 152.25,137.21 q -5.36,-1.92 -10.5,0.33"
           inkscape:connector-curvature="0"
           style="vector-effect:non-scaling-stroke;stroke:#858585" />
        <path
           id="path36349"
           d="m 305.96,191.5 -0.92,0.12 a 1.31,1.29 58 0 1 -0.92,-0.22 q -2.26,-1.58 -2.83,-4.4"
           inkscape:connector-curvature="0"
           style="vector-effect:non-scaling-stroke;stroke:#717171" />
        <path
           id="path36351"
           d="m 301.29,187 -0.08,-26"
           inkscape:connector-curvature="0"
           style="vector-effect:non-scaling-stroke;stroke:#858585" />
        <path
           id="path36353"
           d="m 301.21,161 0.5,-7.85 q 0.03,-0.61 -0.33,-0.12 L 290.1,168.5 q -1.04,1.42 -1.17,3.18 c -0.19,2.49 -0.98,11.78 1.12,13.64 a 1.71,1.71 0 0 1 0.28,2.25 q -3.15,4.6 -8.05,7.27 a 1.01,1 46.1 0 1 -0.99,-0.02 c -2.38,-1.41 -1.83,-6.61 -2.05,-9.09 q -0.1,-1.15 -0.67,-0.15 -1.44,2.5 -4.28,2.47 a 0.48,0.48 0 0 1 -0.43,-0.68 c 1.84,-3.91 4.99,-8.02 5.51,-12.3 q 1.91,-15.59 4.84,-32.02 0.39,-2.21 -1.78,-1.64 l -6.67,1.77 a 0.9,0.9 0 0 0 -0.66,0.7 c -3.12,15.81 -7.84,32.1 -6.65,48.6 a 1.79,1.75 -33.5 0 1 -0.2,0.93 q -2.99,5.71 -9.2,7.49"
           inkscape:connector-curvature="0"
           style="vector-effect:non-scaling-stroke;stroke:#717171" />
        <path
           id="path36355"
           d="m 259.05,200.9 c -1.16,-15.22 2.7,-29.8 5.69,-44.4 q 0.88,-4.31 0.47,-8.74 a 0.52,0.52 0 0 0 -0.72,-0.43 l -7.14,3.05 a 0.9,0.9 0 0 0 -0.55,0.86 c 0.12,3.69 1.2,7.87 0.9,11.12 -1.11,12.29 -11.13,21.62 -20.46,28.97 a 2.7,2.7 0 0 0 -1.03,2.22 q 0.44,12.03 -0.99,24.13"
           inkscape:connector-curvature="0"
           style="vector-effect:non-scaling-stroke;stroke:#656565" />
        <path
           id="path36357"
           d="m 235.22,217.68 -0.97,13.53"
           inkscape:connector-curvature="0"
           style="vector-effect:non-scaling-stroke;stroke:#717171" />
        <path
           id="path36359"
           d="m 234.25,231.21 q -2.46,6.31 -8.71,8.56 a 0.33,0.33 0 0 1 -0.45,-0.33 l 0.62,-12.19"
           inkscape:connector-curvature="0"
           style="vector-effect:non-scaling-stroke;stroke:#858585" />
        <path
           id="path36361"
           d="m 226.71,212.5 0.3,-16.52 a 0.47,0.47 0 0 0 -0.47,-0.48 c -5.17,-0.1 -4.59,-5.12 -5.4,-8.62 a 0.19,0.19 0 0 0 -0.3,-0.11 q -11.18,8.28 -25.09,9.02"
           inkscape:connector-curvature="0"
           style="vector-effect:non-scaling-stroke;stroke:#656565" />
        <path
           id="path36363"
           d="m 225.54,136.75 c -0.16,4.32 -5.18,8.54 -8.46,11.07 q -1.55,1.2 -1.57,-0.76 l -0.01,-1.55 a 0.71,0.7 -87.2 0 0 -0.62,-0.69 c -4.65,-0.57 -10.32,1.9 -14.94,4.04 a 0.76,0.75 78 0 0 -0.44,0.69 v 10.67 q 0,0.56 0.46,0.25 c 5.9,-3.97 15.93,-6.01 22.93,-7.46 q 1.7,-0.35 0.97,1.22 c -2.23,4.78 -5.78,7.81 -11.19,8.72 q -6.58,1.12 -12.79,3.75 a 0.76,0.75 77.9 0 0 -0.45,0.71 l 0.24,15.75 q 0.06,3.68 3.72,3.37 8.87,-0.76 16.92,-4.18 a 1.2,1.2 0 0 0 0.69,-0.8 q 1.94,-7.43 6.42,-13.65 a 1.71,1.7 63.3 0 0 0.33,-1.01 v -16.44 q 0,-1.01 -0.53,-0.16 -0.95,1.51 -2.66,1.39 a 0.74,0.73 -77 0 1 -0.63,-1.01 q 2.38,-5.98 7.32,-10.13"
           inkscape:connector-curvature="0"
           style="vector-effect:non-scaling-stroke;stroke:#656565" />
        <path
           id="path36365"
           d="m 241.99,147.72 -3.48,-3.06 q -1.12,-0.98 -1.17,0.51 l -0.29,9.11 q -0.04,1.33 0.9,0.39 l 4.13,-4.14 q 1.46,-1.45 -0.09,-2.81"
           inkscape:connector-curvature="0"
           style="vector-effect:non-scaling-stroke;stroke:#656565" />
        <path
           id="path36367"
           d="m 256.86,146.39 q -1.64,-1.38 -0.48,0.88 0.23,0.44 0.47,0 l 0.13,-0.23 a 0.52,0.51 35 0 0 -0.12,-0.65"
           inkscape:connector-curvature="0"
           style="vector-effect:non-scaling-stroke;stroke:#656565" />
        <path
           id="path36369"
           d="m 238.74,157.69 q -1.5,1.42 -1.5,3.49 l 0.01,23.31 a 0.71,0.7 10.1 0 0 0.47,0.66 q 1.23,0.43 2.07,-0.11 c 11.52,-7.49 8.98,-21 5.63,-32.17 a 0.77,0.77 0 0 0 -1.27,-0.34 l -5.41,5.16"
           inkscape:connector-curvature="0"
           style="vector-effect:non-scaling-stroke;stroke:#656565" />
        <path
           id="path36371"
           d="m 370.66,178.95 q -3.27,4.55 -7.94,7.63 -0.51,0.34 0.1,0.42 7.97,0.99 15.38,-1.89 c 6.12,-2.38 4.48,-11.14 2.66,-15.71 a 2.9,2.89 84 0 0 -2.18,-1.77 q -4.25,-0.74 -8.52,-0.04 a 0.45,0.44 -8.1 0 0 -0.37,0.49 l 1.14,9.82 a 1.57,1.53 60.1 0 1 -0.27,1.05"
           inkscape:connector-curvature="0"
           style="vector-effect:non-scaling-stroke;stroke:#858585" />
        <path
           id="path36373"
           d="m 173.96,175.5 0.08,-2"
           inkscape:connector-curvature="0"
           style="vector-effect:non-scaling-stroke;stroke:#858585" />
        <path
           id="path36375"
           d="m 174.04,173.5 q 0.49,-5.44 0.78,-10.91 c 0.3,-5.78 1.75,-12.1 1.95,-18.35 a 0.52,0.52 0 0 0 -0.57,-0.53 q -3.79,0.35 -7.2,2.02 a 0.92,0.91 -13 0 0 -0.51,0.8 q -0.09,7.11 -1.28,12.21 -1.09,4.62 -0.67,8.51"
           inkscape:connector-curvature="0"
           style="vector-effect:non-scaling-stroke;stroke:#717171" />
        <path
           id="path36377"
           d="m 166.54,167.25 q 0.21,5.99 2.46,11.54"
           inkscape:connector-curvature="0"
           style="vector-effect:non-scaling-stroke;stroke:#858585" />
        <path
           id="path36379"
           d="m 148.53,165.81 c -0.37,-4.78 1.22,-16.79 -3.56,-18.77 -3.05,-1.27 -8.68,-3.07 -10.49,0.99 q -6.35,14.3 -6.7,30.77 c -0.07,3.58 0.77,6.24 4.69,6.47 a 0.96,0.96 0 0 0 0.81,-0.36 c 1.1,-1.36 6.16,-7.23 8.25,-7.03 a 0.42,0.41 -71.5 0 1 0.31,0.63 l -4.32,7.08 a 0.36,0.36 0 0 0 0.24,0.54 q 4.78,0.83 8.05,-1.3 13.32,-8.67 11.06,-25.35 -0.08,-0.56 -0.49,-0.17 l -7.1,6.79 q -0.67,0.64 -0.75,-0.29"
           inkscape:connector-curvature="0"
           style="vector-effect:non-scaling-stroke;stroke:#858585" />
        <path
           id="path36381"
           d="m 60.09,186.86 q 6.13,2.4 12.63,0.91 a 0.63,0.62 -6.4 0 0 0.49,-0.61 q 0.05,-8.92 -1.09,-17.75 a 0.45,0.44 -20.6 0 0 -0.69,-0.31 c -5.06,3.4 -11.24,7.61 -13.25,13.68 q -0.97,2.94 1.91,4.08"
           inkscape:connector-curvature="0"
           style="vector-effect:non-scaling-stroke;stroke:#858585" />
        <path
           id="path36383"
           d="m 301.21,161 q -4.73,1.55 -7.44,5.88 a 0.49,0.48 32.1 0 0 0.16,0.67 l 1.43,0.91 a 0.76,0.76 0 0 1 0.19,1.12 l -2.21,2.82 a 0.43,0.43 0 0 0 0.04,0.58 l 2.24,2.04 a 0.33,0.33 0 0 1 0.01,0.48 l -0.25,0.24 a 0.41,0.39 38.9 0 1 -0.49,0.04 q -3.8,-2.4 -6.3,1.77 a 1.17,1.17 0 0 0 0.37,1.59 q 0.25,0.16 0.56,0.11 a 1.01,0.98 59 0 1 0.78,0.21 l 10.28,8.37 q 0.57,0.46 0.65,-0.27 l 0.06,-0.56"
           inkscape:connector-curvature="0"
           style="vector-effect:non-scaling-stroke;stroke:#ebebeb" />
        <path
           id="path36385"
           d="m 266.19,250 q -0.9,-0.42 -2.91,-0.18 a 1.98,1.97 -16.2 0 1 -2.02,-1.11 c -2,-4.21 -3.52,-9.07 -6.59,-12.39 q -3.55,-3.84 -8.12,-6.59 -1.09,-0.66 -0.52,0.49 l 0.59,1.17 q 0.32,0.65 -0.35,0.38 l -1.86,-0.72 a 0.84,0.82 38.2 0 0 -0.75,0.08 q -2.53,1.66 -4.53,-1.07 a 0.68,0.67 -41.5 0 1 0.06,-0.88 l 0.37,-0.38 a 0.41,0.41 0 0 0 -0.18,-0.68 q -1.01,-0.29 -4.52,0.8 a 0.46,0.45 78.2 0 0 -0.32,0.5 q 0.13,0.91 -0.29,1.79"
           inkscape:connector-curvature="0"
           style="vector-effect:non-scaling-stroke;stroke:#ebebeb" />
        <path
           id="path36387"
           d="m 235.22,217.68 q 5.45,-1.38 8.13,-5.89 c 2.51,-4.22 9.52,-8.57 13.43,-11.75 q 1.2,-0.97 2.27,0.86"
           inkscape:connector-curvature="0"
           style="vector-effect:non-scaling-stroke;stroke:#cbcbcb" />
        <path
           id="path36389"
           d="m 174.04,173.5 -0.07,-1.66 a 0.88,0.88 0 0 0 -0.45,-0.73 l -6.98,-3.86"
           inkscape:connector-curvature="0"
           style="vector-effect:non-scaling-stroke;stroke:#ebebeb" />
      </g>
      <path
         id="path36393"
         d="m 0,0 h 69.56 l 1.72,7.06 a 0.52,0.51 -17.3 0 0 0.68,0.35 L 73.01,7 A 0.51,0.5 -27.7 0 0 73.25,6.24 L 72.47,5.12 A 0.47,0.46 -33.5 0 1 72.61,4.47 L 72.87,4.31 A 0.6,0.6 0 0 1 73.6,4.4 q 2.53,2.52 0.14,5 a 1.56,1.54 -20.9 0 0 -0.42,0.92 q -0.98,9.54 0.39,18.97 c 0.68,4.66 5.53,11.53 3.43,16.08 a 0.7,0.69 -74.5 0 1 -0.7,0.4 q -2.31,-0.24 -3.82,1.47 -0.55,0.62 -0.58,-0.21 L 72,46.17 a 0.6,0.59 81.6 0 1 0.44,-0.6 C 74.61,45.01 72.48,41.59 72.1,40.23 71.35,37.57 70.01,35.25 69.6,32.42 69.34,30.64 68.46,29.69 67.36,28.4 Q 67.03,28.01 67,28.53 c -0.12,2.56 0.73,4.77 0.66,7.32 q -0.17,6.62 3.88,12.01 a 1.53,1.51 -65.1 0 1 0.31,0.86 q 0.14,2.92 2.75,4.36 a 0.84,0.83 16.8 0 1 0.43,0.79 l -0.13,1.55 q -0.11,1.38 -0.79,0.17 L 72.98,53.57 Q 72.5,52.7 72.45,53.69 c -0.35,7.26 5.88,19.18 9.19,25.78 l 0.07,15.58 a 0.56,0.56 0 0 1 -0.55,0.56 L 64.85,96.1 a 1.76,1.75 -3.7 0 1 -1.8,-1.58 Q 62.46,88.69 62.38,83 61.96,50.75 61.86,18.88 a 0.62,0.61 77.5 0 0 -0.87,-0.56 c -5.57,2.56 -8.49,6.32 -8.51,12.62 q -0.1,29.75 0.41,59.5 0.1,5.85 0.83,12.39 0.28,2.51 2.81,2.41 l 24.69,-1.03 a 0.51,0.5 -1.1 0 1 0.53,0.5 v 6.35 q 0,1 0.81,0.41 5.22,-3.82 8.84,-9.13 c 1.72,-2.54 7.21,-7 5.84,-10.22 a 0.39,0.39 0 0 0 -0.57,-0.17 l -4.19,2.77 q -1.22,0.81 -1.22,-0.66 l 0.03,-14.81 2.38,0.1 a 0.7,0.69 -4.1 0 1 0.66,0.57 l 0.3,1.53 a 1.19,1.16 14 0 0 0.45,0.73 c 5.56,4.19 7.16,10.31 9.17,16.29 q 1.15,3.42 3.68,6.11 0.93,0.99 0.86,2.42 l -0.85,3.13 a 0.42,0.42 0 0 0 0.37,0.52 l 1.94,0.14 q 1.37,0.08 2.71,2 8.35,11.9 22.66,26.29 c 0.48,0.48 1.34,0.8 1.92,1.17 -14.38,11.71 -19.24,30.39 -19.1,48.1 a 1.64,1.63 1.6 0 1 -1.74,1.64 q -4.55,-0.29 -8.02,-3.14 a 1.38,1.37 -75.7 0 1 -0.48,-0.82 q -1.31,-7.5 -1.16,-15.07 0.04,-2.4 1.8,-4.03 13.56,-12.53 24.1,-27.72 a 0.37,0.36 36.9 0 0 -0.08,-0.5 c -1.69,-1.32 -8.04,6.08 -9,7.39 q -7.3,9.93 -16.23,18.36 -0.42,0.39 -0.42,-0.18 l -0.12,-22.35 q -0.01,-0.57 -0.49,-0.26 L 81.45,158 a 0.4,0.39 -18.6 0 1 -0.61,-0.3 q -0.68,-9.39 -4.02,-18.14 -0.67,-1.74 -2.49,-1.36 -1.78,0.37 -4.19,1.91 c -12.84,8.19 -26.6,22.56 -24.95,39.11 a 0.35,0.35 0 0 0 0.54,0.25 q 4.86,-3.35 8.25,-8.18 a 1.63,1.63 0 0 0 0.29,-1.02 c -0.48,-8.8 3.12,-19.11 11.78,-22.87 a 1.06,1.05 -21.3 0 1 1.42,0.62 q 2.7,7.81 3.94,16.01 a 1.87,1.85 68 0 1 -0.75,1.79 c -7.43,5.33 -43.44,36.88 -3.82,31.02 7.49,-1.11 15.66,-6.42 15.88,-14.59 q 0.26,-9.54 -1,-19.15 a 1.8,1.8 0 0 1 0.85,-1.77 l 14.55,-8.93 q 0.63,-0.38 0.63,0.36 v 19.7 a 1.79,1.78 -28.2 0 1 -0.3,0.99 q -7.02,10.27 -0.41,20.08 c 2.02,3 2.08,5.83 3.08,9.26 q 0.65,2.26 2.27,0.56 c 2.13,-2.22 5.13,-3.91 8.58,-3.85 q 7.49,0.13 14.31,-2.88 c 3.47,-1.53 7.31,-0.5 10.74,-1.84 8.64,-3.37 14.12,-9.66 20.63,-15.94 a 0.3,0.29 59.5 0 1 0.49,0.13 l 2.94,10.46 a 1.69,1.67 -44.7 0 1 -0.01,0.9 q -0.32,1.1 0.68,1.71 c 0.18,1.89 -7.53,9.04 -9.18,10.41 a 0.73,0.72 -31.1 0 0 -0.21,0.82 c 1.08,2.75 16,-13.35 18.02,-13.47 q 1.1,-0.06 2.26,0.35 0.66,0.24 0.12,0.69 -0.69,0.59 -1.35,1.36 -1.12,1.35 0.23,0.23 l 1.72,-1.41 q 1.98,-1.62 0.52,0.48 -5.54,7.93 -13.48,13.4 -0.67,0.46 -0.66,-0.35 l 0.01,-0.45 a 0.59,0.58 -10 0 1 0.39,-0.55 q 0.56,-0.21 0.84,-0.73 0.48,-0.88 -0.46,-0.51 c -2.54,1.01 -8.47,3.08 -11.04,2.71 q -2.29,-0.33 -3.81,1.41 -3.38,3.86 -2.93,9.01 a 1.7,1.68 57.4 0 1 -0.21,0.99 c -5.1,9.1 -15.69,17.31 -24.13,23.24 q -0.43,0.3 -0.4,-0.22 l 0.02,-0.43 q 0.1,-1.9 -1.16,-0.47 l -8.91,10.21 a 0.71,0.7 43.5 0 0 0.03,0.96 q 0.17,0.18 0.46,0.28 H 0 Z m 63.31,0.49 c -1.04,0.28 -0.94,1.24 -0.47,2.05 q 1.53,2.62 1.13,5.72 a 0.62,0.61 -71.9 0 0 0.3,0.61 l 0.29,0.17 a 0.26,0.25 -72.2 0 0 0.38,-0.2 Q 65.28,6 64.29,3.34 A 1.79,1.73 -50 0 1 64.22,2.35 Q 64.37,1.63 64.18,0.99 a 0.71,0.7 74.5 0 0 -0.87,-0.5 z m 40.31,101.18 c -4.06,1.55 -9.3,6.13 -9.36,10.59 q -0.07,5.62 0.01,32.96 a 0.34,0.33 -11.8 0 0 0.47,0.3 c 5.52,-2.33 9.52,-6.71 9.54,-12.92 q 0.05,-15.25 -0.18,-30.6 a 0.36,0.35 79.1 0 0 -0.48,-0.33 z"
         inkscape:connector-curvature="0"
         style="fill:#ffffff" />
      <path
         id="path36395"
         d="m 69.56,0 h 70.75 l 0.83,0.34 A 0.82,0.82 0 0 1 141.65,1 q 1.52,11.51 3.1,23.04 0.24,1.7 0.15,3.47 -0.07,1.52 -0.13,3.09 a 0.98,0.95 -67.8 0 0 0.3,0.75 l 2.25,2.12 a 0.62,0.61 47.6 0 1 -0.04,0.93 q -1.36,1.08 -1.61,-0.54 -0.18,-1.1 -0.51,-0.04 -1.36,4.36 2.3,5.93 l -1.56,6.7 a 1.18,1.17 34.6 0 0 0.17,0.91 c 2.12,3.08 4.73,-0.95 6.39,-2.11 q 3.5,7.93 8.51,14.94 c 2.22,3.11 3.53,6.31 5.34,9.6 a 0.92,0.92 0 0 0 0.72,0.46 l 0.47,0.04 q -5.81,8.64 -12.68,16.66 -0.57,0.67 -0.57,-0.21 V 57.45 q 0,-2.08 -1.8,-1.03 c -3.71,2.15 -7.72,5.42 -7.71,10.02 q 0.02,16.53 0.01,32.76 0,2.05 -2.05,2.05 h -22.89 a 0.7,0.69 -0.4 0 1 -0.7,-0.68 l -0.49,-18.89 a 1.02,1.01 75.9 0 1 0.56,-0.94 q 5.36,-2.71 11.12,-4.42 c 5.59,-1.66 9.48,-5.45 12.61,-10.1 q 0.56,-0.83 -0.4,-0.55 -11.27,3.23 -21.84,8.37 -1.83,0.89 -2.32,-1.08 -0.18,-0.75 0.73,-2.1 c 1.71,-2.53 12.4,-5.43 15.56,-6.23 1.08,-0.27 1.46,0.03 2.38,0.44 a 0.89,0.89 0 0 0 0.89,-0.12 q 4.74,-3.68 7.88,-8.74 a 0.64,0.64 0 0 0 -0.52,-0.98 q -1.53,-0.05 -3.21,0.36 -20.86,5.06 -36.09,20.32 a 2.36,2.34 -28.7 0 0 -0.64,2.16 l 0.06,0.26 a 0.63,0.62 -25.5 0 0 1.01,0.35 l 1.89,-1.53 a 0.42,0.42 0 0 1 0.65,0.17 c 0.93,2.35 -2.89,6.29 -4.16,8.35 q -0.7,1.12 0.55,0.68 l 3.01,-1.07 a 0.47,0.46 80.3 0 1 0.62,0.44 q -0.04,10.19 0.05,20.2 0,0.58 -0.22,1.08 0.07,-1.43 -0.86,-2.42 -2.53,-2.69 -3.68,-6.11 c -2.01,-5.98 -3.61,-12.1 -9.17,-16.29 a 1.19,1.16 14 0 1 -0.45,-0.73 l -0.3,-1.53 a 0.7,0.69 -4.1 0 0 -0.66,-0.57 l -2.38,-0.1 C 90.89,61.22 92.2,38.58 91.94,16.61 a 0.42,0.41 77.1 0 0 -0.59,-0.37 q -5.04,2.4 -7.96,7.2 a 4.77,4.76 60.3 0 0 -0.69,2.54 q 0.2,14.99 -0.57,29.54 C 81.69,63.68 81.8,71.47 81.64,79.47 78.33,72.87 72.1,60.95 72.45,53.69 q 0.05,-0.99 0.53,-0.12 l 1.13,2.02 q 0.68,1.21 0.79,-0.17 l 0.13,-1.55 A 0.84,0.83 16.8 0 0 74.6,53.08 Q 71.99,51.64 71.85,48.72 A 1.53,1.51 -65.1 0 0 71.54,47.86 Q 67.49,42.47 67.66,35.85 C 67.73,33.3 66.88,31.09 67,28.53 q 0.03,-0.52 0.36,-0.13 c 1.1,1.29 1.98,2.24 2.24,4.02 0.41,2.83 1.75,5.15 2.5,7.81 0.38,1.36 2.51,4.78 0.34,5.34 A 0.6,0.59 81.6 0 0 72,46.17 l 0.04,0.86 q 0.03,0.83 0.58,0.21 1.51,-1.71 3.82,-1.47 a 0.7,0.69 -74.5 0 0 0.7,-0.4 C 79.24,40.82 74.39,33.95 73.71,29.29 Q 72.34,19.86 73.32,10.32 A 1.56,1.54 -20.9 0 1 73.74,9.4 Q 76.13,6.92 73.6,4.4 A 0.6,0.6 0 0 0 72.87,4.31 l -0.26,0.16 a 0.47,0.46 -33.5 0 0 -0.14,0.65 l 0.78,1.12 A 0.51,0.5 -27.7 0 1 73.01,7 L 71.96,7.41 A 0.52,0.51 -17.3 0 1 71.28,7.06 Z m 8.74,50.68 q -1.44,-1.07 -0.61,0.52 l 2.56,4.91 q 0.24,0.47 0.5,0 c 0.86,-1.58 -1.24,-4.53 -2.45,-5.43 z"
         inkscape:connector-curvature="0"
         style="fill:#d7d7d7" />
      <path
         id="path36397"
         d="m 140.31,0 h 171.5 l -1.61,0.43 a 0.83,0.82 88.9 0 0 -0.58,0.61 c -3.63,16.27 -10.26,28.7 -18.71,43.92 a 1.59,1.57 -33.3 0 0 -0.2,0.94 q 0.23,2.76 -1.9,4.16 c -5.42,-0.9 -14.43,-1.98 -19.35,0.81 -8.49,4.81 -14.79,13.97 -17.56,23.16 a 0.82,0.81 30.3 0 1 -1.35,0.35 c -0.63,-0.61 1.5,-13.69 1.76,-15.93 q 0.23,-2.08 -1.67,-1.21 c -8.33,3.79 -7.76,11.16 -8.8,18.77 a 1.34,1.32 -3.3 0 1 -1,1.11 l -11.16,2.79 A 0.55,0.54 -7.1 0 1 229,79.39 V 53.38 a 0.6,0.59 -86.1 0 0 -0.51,-0.59 q -0.7,-0.1 -2.17,0.49 -0.09,0.03 -0.01,-0.02 2.27,-1.54 2.85,-4.19 a 0.43,0.42 -82.5 0 0 -0.39,-0.52 c -1.99,-0.08 -4.11,-0.14 -6.1,0.23 q -17.11,3.25 -33.75,8.43 c -3.95,1.23 -6.09,3.44 -8.93,6.2 q -0.65,0.63 -0.31,-0.21 2.11,-5.2 0.65,-10.64 a 0.41,0.41 0 0 0 -0.59,-0.25 c -4.86,2.59 -7.4,5.92 -8.5,11.27 q -0.79,3.86 -3.74,6.71 l -0.47,-0.04 a 0.92,0.92 0 0 1 -0.72,-0.46 c -1.81,-3.29 -3.12,-6.49 -5.34,-9.6 q -5.01,-7.01 -8.51,-14.94 l 3.46,-4.09 a 0.89,0.87 54 0 0 0.13,-0.89 l -0.61,-1.48 a 1.81,1.79 39.2 0 1 -0.11,-1.03 q 1.99,-10.4 9.11,-17.86 c 3.81,-3.98 9.86,-7.29 13.98,-12.87 a 0.48,0.48 0 0 0 -0.13,-0.7 c -0.37,-0.24 -0.68,-0.02 -0.97,0.15 q -20.06,12.07 -29.86,33.27 -3.66,-1.57 -2.3,-5.93 0.33,-1.06 0.51,0.04 0.25,1.62 1.61,0.54 a 0.62,0.61 47.6 0 0 0.04,-0.93 l -2.25,-2.12 a 0.98,0.95 -67.8 0 1 -0.3,-0.75 q 0.06,-1.57 0.13,-3.09 0.09,-1.77 -0.15,-3.47 Q 143.17,12.51 141.65,1 a 0.82,0.82 0 0 0 -0.51,-0.66 z m 20.06,55.25 q 0.5,0.4 0.75,1 l 1.71,4.09 a 0.51,0.5 -34.3 0 0 0.83,0.15 L 164,60.13 a 0.66,0.65 -41.3 0 0 0.06,-0.84 q -3.63,-4.94 -6.11,-10.59 a 0.76,0.76 0 0 0 -0.78,-0.46 l -0.41,0.04 a 0.6,0.59 -11.7 0 0 -0.51,0.76 q 1.11,3.79 4.12,6.21 z"
         inkscape:connector-curvature="0"
         style="fill:#ffffff" />
      <path
         id="path36399"
         d="m 311.81,0 6.84,0.1 q -2.06,5.89 -4.26,11.72 c -0.55,1.46 -0.51,3.18 1.4,3.3 q 0.51,0.03 0.24,-0.4 c -2.45,-3.96 0.45,-5.19 1.55,-8.33 1.03,-2.96 1.63,-5.78 3.98,-6.39 h 63.5 q 1.16,6.45 0.44,9.75 -3.67,16.92 -12.09,41.01 -1.37,3.89 -3.73,7.53 c -4.39,6.74 -9.34,13.77 -12.71,21.08 -3.62,7.82 -8.1,15.11 -15.71,27.55 -3.02,4.93 -7.28,16.44 -11.73,19.53 q -0.44,0.3 -0.19,-0.17 3.62,-6.83 7.14,-13.72 c 0.74,-1.44 2.62,-2.55 2.16,-4.84 q -0.1,-0.5 -0.46,-0.12 c -6.11,6.55 -11.56,13.64 -15.51,21.71 -2.99,6.13 -5.47,11.98 -11.38,15.94 l 0.03,-6.71 a 0.38,0.37 79 0 0 -0.51,-0.35 q -3.89,1.58 -6.85,5.77 -7.05,9.99 -13.85,18.93 -1.07,1.4 -0.8,-0.34 l 4.43,-28.46 q 0.51,-3.28 -2.66,-2.28 l -15.77,4.95 a 0.41,0.41 0 0 1 -0.5,-0.26 l -0.61,-1.84 a 0.69,0.69 0 0 0 -0.78,-0.46 q -10.54,1.92 -19.54,7.67 a 0.51,0.51 0 0 1 -0.74,-0.22 c -4.41,-9.58 -15.91,-7.46 -21.89,-1.11 l -0.41,-0.05 a 0.7,0.68 -10.7 0 1 -0.53,-0.35 q -1.54,-2.74 -4.77,-3.39 l -0.39,-0.99 a 0.79,0.77 80 0 0 -0.69,-0.49 c -2.71,-0.06 -5.12,-0.28 -7.75,0.68 q -12.64,4.61 -17.38,7.64 c -2.92,1.88 -11.9,7.83 -13.02,12.75 q -0.24,1.07 0.57,0.33 l 1.57,-1.41 q 1.54,-1.39 1.54,0.69 0,15.77 0.03,31.49 c 0.01,2.45 0.45,4.61 1.05,6.9 a 1.61,1.61 0 0 0 2.16,1.08 q 1.22,-0.5 2.52,0.37 0.28,1.25 -0.4,2.6 a 0.71,0.7 -53.6 0 0 0.12,0.81 c 7.18,7.34 17.68,14.14 25.97,19.02 a 0.96,0.95 -39.6 0 0 0.82,0.07 q 1.71,-0.62 1.21,-2.47 a 1.42,1.39 8 0 0 -0.64,-0.83 l -3.57,-2.07 a 0.47,0.47 0 0 1 -0.04,-0.78 l 3.44,-2.48 a 0.16,0.16 0 0 1 0.25,0.08 l 0.1,0.31 a 0.28,0.26 65.4 0 1 -0.11,0.32 q -1.07,0.65 -1.61,1.68 a 0.57,0.57 0 0 0 0.29,0.8 l 2.73,1.13 q 0.71,0.29 0.6,-0.47 l -0.34,-2.31 a 0.47,0.46 -3.7 0 1 0.47,-0.53 q 1.42,0.05 1.67,1.83 l -1,14.75 q -3.05,0.28 -3.19,3.3 a 1.51,1.48 -23.7 0 1 -0.35,0.87 c -3.7,4.27 -8.63,8.17 -12.11,11.57 q -3.71,3.62 -7.62,7.01 h -84 q -4.76,-0.79 -9.5,0 h -1.5 q -0.29,-0.1 -0.46,-0.28 a 0.71,0.7 43.5 0 1 -0.03,-0.96 l 8.91,-10.21 q 1.26,-1.43 1.16,0.47 l -0.02,0.43 q -0.03,0.52 0.4,0.22 c 8.44,-5.93 19.03,-14.14 24.13,-23.24 a 1.7,1.68 57.4 0 0 0.21,-0.99 q -0.45,-5.15 2.93,-9.01 1.52,-1.74 3.81,-1.41 c 2.57,0.37 8.5,-1.7 11.04,-2.71 q 0.94,-0.37 0.46,0.51 -0.28,0.52 -0.84,0.73 a 0.59,0.58 -10 0 0 -0.39,0.55 l -0.01,0.45 q -0.01,0.81 0.66,0.35 7.94,-5.47 13.48,-13.4 1.46,-2.1 -0.52,-0.48 l -1.72,1.41 q -1.35,1.12 -0.23,-0.23 0.66,-0.77 1.35,-1.36 0.54,-0.45 -0.12,-0.69 -1.16,-0.41 -2.26,-0.35 c -2.02,0.12 -16.94,16.22 -18.02,13.47 a 0.73,0.72 -31.1 0 1 0.21,-0.82 c 1.65,-1.37 9.36,-8.52 9.18,-10.41 q 5.31,-3.98 9.18,-9.35 a 0.91,0.89 -36.8 0 0 0.13,-0.84 L 169,178.79 q 3.77,0.31 4.96,-3.29 c -0.31,8.34 -0.33,20.83 4.22,28.15 a 1.27,1.27 0 0 0 1.88,0.3 q 3.6,-3 6.92,-6.78 c 1.3,-1.47 1.19,-2.91 1.48,-4.76 a 0.45,0.44 -87.9 0 0 -0.47,-0.51 q -0.63,0.05 -1.13,0.65 a 0.61,0.61 0 0 1 -0.69,0.18 q -0.3,-0.13 -0.47,-0.47 -1.45,-2.93 -1.26,-4.49 c 0.4,-3.21 -0.93,-5.97 -0.96,-8.72 q -0.28,-20.93 3,-42.69 0.3,-2.03 -1.75,-2.17 -0.38,-0.02 -2.18,0.49 c -7.91,2.21 -18.22,4.97 -24.14,10.94 q -0.35,0.36 -0.47,-0.13 c -1.03,-4.21 -0.85,-6.92 -5.69,-8.28 -1.54,-3.32 -6.21,-4.17 -8.89,-6.25 a 0.58,0.58 0 0 0 -0.78,0.07 c -0.67,0.73 1.69,2.05 0.17,3.79 a 0.47,0.46 43.8 0 1 -0.68,0.01 q -1.28,-1.32 -2.93,-2.18 -1.1,-0.57 -0.4,0.46 l 3.01,4.43 -4.21,2.71 c -0.58,-0.37 -1.44,-0.69 -1.92,-1.17 q -14.31,-14.39 -22.66,-26.29 -1.34,-1.92 -2.71,-2 l 21.73,0.01 q 0.5,0 0.21,0.41 c -1.91,2.6 -3.8,3.98 -4.48,7.29 q -0.27,1.34 0.79,0.48 c 5.36,-4.37 10,-9.07 15.57,-13.22 q 0.66,-0.5 0.67,0.33 l 0.01,7.15 q 0.01,1.69 1.22,0.51 l 7.71,-7.57 a 1.42,1.42 0 0 0 0.44,-0.98 q 0.22,-4.7 0.13,-9.43 c -0.07,-3.84 1.47,-4.57 3.65,-7.36 q 6.11,-7.78 11.46,-14.91 1.04,-1.39 0.89,0.34 -1.51,17.51 -1.79,34.7 c -0.04,2.49 0.56,4.71 1.41,6.93 q 1.24,3.24 4.28,1.58 5.96,-3.25 9.6,-8.94 0.36,-0.56 -0.3,-0.43 c -7.56,1.46 -5.63,-14.51 -4.92,-19.24 q 7.14,4.37 10.89,11.89 0.74,1.47 1.5,1.93 1.42,0.87 2.79,-0.26 l 0.03,9.09 q 0,0.88 0.7,0.35 l 4.33,-3.3 15.04,13.55 a 0.62,0.62 0 0 1 0.2,0.57 l -0.05,0.33 a 0.39,0.39 0 0 1 -0.62,0.24 q -0.81,-0.63 -1.79,-1.05 -1.69,-0.71 -0.47,0.66 4.29,4.81 9.81,8.01 a 1,0.99 47.4 0 0 0.92,0.04 q 3.73,-1.81 6.99,-5.69 0.83,-0.98 2.62,-1.24 0.47,-0.07 0.13,0.27 l -0.25,0.25 q -0.74,0.72 0.28,0.87 l 0.36,0.05 a 0.67,0.67 0 0 0 0.58,-0.2 c 1.91,-1.95 4.48,-2.33 6.15,-3.92 q 3.01,-2.87 4.34,-6.83 5.88,-4.45 9.75,-10.93 l 4.28,-2.62 c 3.25,3.46 5.75,8.79 10.65,9.86 9.38,2.07 14.63,-2.14 21.36,-8.86 q 15.72,-15.68 14.99,-39.13 a 0.82,0.82 0 0 1 0.55,-0.8 l 5.27,-1.83 a 0.45,0.44 -10.4 0 1 0.6,0.41 c 0.34,17.63 -0.99,35.18 -0.63,52.87 q 0.08,3.48 3.07,1.7 c 1.67,-0.99 7.54,-6.22 7.88,-8.87 q 0.19,-1.53 -0.6,-1.57 a 1.36,1.36 0 0 1 -1.29,-1.39 l 1.03,-45.1 a 0.67,0.67 0 0 1 0.63,-0.66 c 3.93,-0.24 16.96,0.47 19.49,-1.29 q 4.08,-2.83 6.73,-7.56 a 0.34,0.34 0 0 0 -0.26,-0.5 q -12.35,-1.36 -24.4,1.49 c -1.9,0.45 -2.71,-0.14 -2.22,-2.17 q 0.38,-1.56 -0.9,-0.59 -2.58,1.95 -5.12,3.97 c -3.54,2.83 -8.01,3.93 -11.91,6.54 a 0.58,0.57 49.4 0 1 -0.72,-0.06 q -5.38,-5.05 -12.43,-6.9 2.13,-1.4 1.9,-4.16 a 1.59,1.57 -33.3 0 1 0.2,-0.94 c 8.45,-15.22 15.08,-27.65 18.71,-43.92 a 0.83,0.82 88.9 0 1 0.58,-0.61 z m 62.43,20.58 a 0.27,0.26 32.2 0 0 0.06,0.25 l 0.24,0.23 a 0.25,0.25 0 0 0 0.41,-0.09 c 0.5,-1.34 5.7,-11.36 3.47,-11.86 a 0.57,0.57 0 0 0 -0.67,0.38 z M 242.15,121.01 q -0.55,-0.14 -0.79,0.3 a 0.41,0.41 0 0 0 0.11,0.53 q 1.26,0.96 0.81,2.44 -0.21,0.72 0.46,0.4 l 3.45,-1.63 a 1.79,1.77 1.6 0 0 0.76,-0.71 q 1.08,-1.98 2.75,-3.45 a 0.36,0.36 0 0 0 -0.11,-0.61 q -5.13,-2 -6.92,2.46 a 0.45,0.44 17.2 0 1 -0.52,0.27 z"
         inkscape:connector-curvature="0"
         style="fill:#d7d7d7" />
      <path
         id="path36401"
         d="M 318.65,0.1 321.56,0 c -2.35,0.61 -2.95,3.43 -3.98,6.39 -1.1,3.14 -4,4.37 -1.55,8.33 q 0.27,0.43 -0.24,0.4 c -1.91,-0.12 -1.95,-1.84 -1.4,-3.3 q 2.2,-5.83 4.26,-11.72 z"
         inkscape:connector-curvature="0"
         style="fill:#ffffff" />
      <path
         id="path36403"
         d="M 385.06,0 H 449 V 250 H 341.19 l 0.81,-0.3 a 0.47,0.46 67.8 0 0 0.26,-0.63 q -2.05,-4.41 -3.79,-8.98 c -2.24,-5.89 -7.32,-6.82 -9.61,-11.75 q -3.19,-6.83 -6.7,-13.49 c -3.87,-7.35 -9.73,-14.07 -14.37,-21.35 a 1.83,1.78 86.2 0 0 -0.71,-0.64 q -0.87,-0.42 -1.12,-1.36 4.67,-3.33 8.16,-7.96 a 0.76,0.75 -60.3 0 0 -0.31,-1.16 q -3.3,-1.36 -3.4,-5.57 -0.39,-15.8 0.88,-31.56 c 5.91,-3.96 8.39,-9.81 11.38,-15.94 3.95,-8.07 9.4,-15.16 15.51,-21.71 q 0.36,-0.38 0.46,0.12 c 0.46,2.29 -1.42,3.4 -2.16,4.84 q -3.52,6.89 -7.14,13.72 -0.25,0.47 0.19,0.17 c 4.45,-3.09 8.71,-14.6 11.73,-19.53 7.61,-12.44 12.09,-19.73 15.71,-27.55 3.37,-7.31 8.32,-14.34 12.71,-21.08 q 2.36,-3.64 3.73,-7.53 8.42,-24.09 12.09,-41.01 0.72,-3.3 -0.44,-9.75 z m -17.21,161.92 -0.46,-26.03 a 0.81,0.8 76.2 0 0 -1.16,-0.71 c -10.76,5.3 -8.13,16.81 -7.78,26.4 0.19,5.06 -0.82,8.19 -3.9,11.81 q -0.33,0.39 -0.27,-0.12 c 0.73,-6.7 1.41,-17.11 -1.01,-23.46 q -0.89,-2.33 -3.38,-2.2 -7,0.36 -13.63,2.61 -0.48,0.16 -0.2,-0.26 c 3.85,-5.95 5.8,-8.6 4.37,-16.07 a 0.69,0.68 88.2 0 0 -0.59,-0.56 c -9.96,-1.3 -19.77,9.62 -23.93,17.69 q -2,3.86 1.65,1.49 5.12,-3.32 7.75,-8.87 a 1.01,0.99 9.5 0 1 0.8,-0.56 l 4.21,-0.43 a 0.71,0.7 -10.8 0 1 0.75,0.5 c 2.37,8.5 -3.93,10.63 -7.07,16.94 q -0.66,1.32 0.7,0.74 7.37,-3.12 15.3,-3.92 3.71,-0.38 4.36,3.27 1.99,11.14 0.06,21.83 a 1.97,1.94 -3.5 0 1 -1.36,1.52 q -10.99,3.29 -16.6,-6.32 a 1.01,1 64.5 0 1 0.51,-1.45 c 4.33,-1.64 11.58,-5.58 12.64,-10.45 a 0.34,0.34 0 0 0 -0.4,-0.4 q -11.27,2.23 -19.2,11.33 c -7.15,8.2 -0.62,17.12 8.74,17.49 10.71,0.42 17.35,-6.09 22.98,-14.26 q 0.28,-0.4 0.16,0.07 c -1.17,4.69 -3.63,16.94 4.35,17.13 15.98,0.39 25.56,-6.99 33.91,-19.48 q 0.28,-0.41 0.3,0.09 c 0.55,12.85 -0.6,26.03 0.45,38.75 a 0.34,0.34 0 0 0 0.49,0.28 c 3.95,-1.99 8.6,-5.68 8.61,-10.06 q 0.01,-36.84 -0.01,-73.75 a 0.88,0.88 0 0 0 -1.25,-0.8 c -4.01,1.84 -7.87,5.53 -8.11,10.29 -0.32,6.51 0.55,11.47 -0.17,17.26 a 0.33,0.33 0 0 1 -0.49,0.25 c -6.27,-3.53 -16.04,-1.05 -21.57,2.71 q -0.54,0.36 -0.55,-0.29 z"
         inkscape:connector-curvature="0"
         style="fill:#ffffff" />
      <path
         id="path36405"
         d="m 64.18,0.99 q 0.19,0.64 0.04,1.36 a 1.79,1.73 -50 0 0 0.07,0.99 q 0.99,2.66 0.65,5.5 a 0.26,0.25 -72.2 0 1 -0.38,0.2 L 64.27,8.87 a 0.62,0.61 -71.9 0 1 -0.3,-0.61 q 0.4,-3.1 -1.13,-5.72 C 62.37,1.73 62.27,0.77 63.31,0.49 a 0.71,0.7 74.5 0 1 0.87,0.5 z"
         inkscape:connector-curvature="0"
         style="fill:#d7d7d7" />
      <path
         id="path36407"
         d="m 152.46,45.25 c -1.66,1.16 -4.27,5.19 -6.39,2.11 a 1.18,1.17 34.6 0 1 -0.17,-0.91 l 1.56,-6.7 q 9.8,-21.2 29.86,-33.27 c 0.29,-0.17 0.6,-0.39 0.97,-0.15 a 0.48,0.48 0 0 1 0.13,0.7 c -4.12,5.58 -10.17,8.89 -13.98,12.87 q -7.12,7.46 -9.11,17.86 a 1.81,1.79 39.2 0 0 0.11,1.03 l 0.61,1.48 a 0.89,0.87 54 0 1 -0.13,0.89 z"
         inkscape:connector-curvature="0"
         style="fill:#0b0b0b" />
      <path
         id="path36409"
         d="m 374.24,20.58 3.51,-11.09 a 0.57,0.57 0 0 1 0.67,-0.38 c 2.23,0.5 -2.97,10.52 -3.47,11.86 a 0.25,0.25 0 0 1 -0.41,0.09 l -0.24,-0.23 a 0.27,0.26 32.2 0 1 -0.06,-0.25 z"
         inkscape:connector-curvature="0"
         style="fill:#ffffff" />
      <path
         id="path36411"
         d="m 91.29,79.25 -0.03,14.81 q 0,1.47 1.22,0.66 l 4.19,-2.77 a 0.39,0.39 0 0 1 0.57,0.17 c 1.37,3.22 -4.12,7.68 -5.84,10.22 q -3.62,5.31 -8.84,9.13 -0.81,0.59 -0.81,-0.41 v -6.35 a 0.51,0.5 -1.1 0 0 -0.53,-0.5 l -24.69,1.03 Q 54,105.34 53.72,102.83 52.99,96.29 52.89,90.44 52.38,60.69 52.48,30.94 c 0.02,-6.3 2.94,-10.06 8.51,-12.62 a 0.62,0.61 77.5 0 1 0.87,0.56 q 0.1,31.87 0.52,64.12 0.08,5.69 0.67,11.52 a 1.76,1.75 -3.7 0 0 1.8,1.58 l 16.31,-0.49 a 0.56,0.56 0 0 0 0.55,-0.56 L 81.64,79.47 c 0.16,-8 0.05,-15.79 0.49,-23.95 Q 82.9,40.97 82.7,25.98 a 4.77,4.76 60.3 0 1 0.69,-2.54 q 2.92,-4.8 7.96,-7.2 a 0.42,0.41 77.1 0 1 0.59,0.37 c 0.26,21.97 -1.05,44.61 -0.65,62.64 z"
         inkscape:connector-curvature="0"
         style="fill:#0b0b0b" />
      <path
         id="path36413"
         d="m 257.04,100.5 c -6.82,-6.59 -5.53,-11.29 -5.85,-20 q -0.06,-1.75 -1.2,-0.42 -1.27,1.46 -1.39,3.5 -0.6,10.29 -1.06,20.68 -0.03,0.75 0.6,0.34 l 3.81,-2.46 a 0.52,0.52 0 0 1 0.73,0.18 q 0.18,0.31 0.08,0.8 -3.87,6.48 -9.75,10.93 l -2.42,1.05 a 0.84,0.82 52.5 0 1 -0.84,-0.12 q -1.59,-1.29 -1.49,-4.23 0.41,-12.13 1.62,-25.1 a 0.98,0.98 0 0 0 -1.25,-1.03 l -9.06,2.62 a 0.75,0.74 83 0 0 -0.53,0.69 q -0.22,8.84 1.09,17.57 a 0.99,0.97 -26.5 0 1 -0.29,0.84 l -7.13,6.86 q -1.89,1.82 -2.44,-0.75 c -1.49,-6.92 -0.65,-14.98 -0.87,-22.24 a 0.47,0.47 0 0 0 -0.56,-0.45 l -10.29,1.99 q -2.14,0.41 -1.11,-1.51 3.66,-6.81 11.31,-8.2 a 0.69,0.67 86.9 0 0 0.56,-0.64 c 0.22,-5.72 -1.19,-19.29 2.1,-23.61 q 0.43,-0.57 -0.27,-0.47 l -16.26,2.37 a 0.77,0.76 87.7 0 0 -0.65,0.71 q -0.81,12.81 -1.07,31.17 -0.08,5.56 0.73,9.93 a 1.36,1.29 -35.6 0 1 -0.18,0.93 q -1.85,3 -4.94,5.71 l -4.33,3.3 q -0.7,0.53 -0.7,-0.35 L 193.71,102 q -0.15,-18.25 1.41,-36.42 0.05,-0.53 0.23,-1.02 l 0.66,-1.75 q 0.24,-0.65 -0.43,-0.46 l -15.57,4.44 a 0.59,0.58 83.9 0 0 -0.43,0.54 l -1.05,21.11 c -0.71,4.73 -2.64,20.7 4.92,19.24 q 0.66,-0.13 0.3,0.43 -3.64,5.69 -9.6,8.94 -3.04,1.66 -4.28,-1.58 c -0.85,-2.22 -1.45,-4.44 -1.41,-6.93 q 0.28,-17.19 1.79,-34.7 0.15,-1.73 -0.89,-0.34 -5.35,7.13 -11.46,14.91 c -2.18,2.79 -3.72,3.52 -3.65,7.36 q 0.09,4.73 -0.13,9.43 a 1.42,1.42 0 0 1 -0.44,0.98 l -7.71,7.57 q -1.21,1.18 -1.22,-0.51 l -0.01,-7.15 q -0.01,-0.83 -0.67,-0.33 c -5.57,4.15 -10.21,8.85 -15.57,13.22 q -1.06,0.86 -0.79,-0.48 c 0.68,-3.31 2.57,-4.69 4.48,-7.29 q 0.29,-0.41 -0.21,-0.41 l -21.73,-0.01 -1.94,-0.14 a 0.42,0.42 0 0 1 -0.37,-0.52 l 0.85,-3.13 q 0.22,-0.5 0.22,-1.08 -0.09,-10.01 -0.05,-20.2 a 0.47,0.46 80.3 0 0 -0.62,-0.44 l -3.01,1.07 q -1.25,0.44 -0.55,-0.68 c 1.27,-2.06 5.09,-6 4.16,-8.35 a 0.42,0.42 0 0 0 -0.65,-0.17 l -1.89,1.53 a 0.63,0.62 -25.5 0 1 -1.01,-0.35 l -0.06,-0.26 a 2.36,2.34 -28.7 0 1 0.64,-2.16 q 15.23,-15.26 36.09,-20.32 1.68,-0.41 3.21,-0.36 a 0.64,0.64 0 0 1 0.52,0.98 q -3.14,5.06 -7.88,8.74 a 0.89,0.89 0 0 1 -0.89,0.12 c -0.92,-0.41 -1.3,-0.71 -2.38,-0.44 -3.16,0.8 -13.85,3.7 -15.56,6.23 q -0.91,1.35 -0.73,2.1 0.49,1.97 2.32,1.08 10.57,-5.14 21.84,-8.37 0.96,-0.28 0.4,0.55 c -3.13,4.65 -7.02,8.44 -12.61,10.1 q -5.76,1.71 -11.12,4.42 a 1.02,1.01 75.9 0 0 -0.56,0.94 l 0.49,18.89 a 0.7,0.69 -0.4 0 0 0.7,0.68 h 22.89 q 2.05,0 2.05,-2.05 0.01,-16.23 -0.01,-32.76 c -0.01,-4.6 4,-7.87 7.71,-10.02 q 1.8,-1.05 1.8,1.03 v 29.29 q 0,0.88 0.57,0.21 6.87,-8.02 12.68,-16.66 2.95,-2.85 3.74,-6.71 c 1.1,-5.35 3.64,-8.68 8.5,-11.27 a 0.41,0.41 0 0 1 0.59,0.25 q 1.46,5.44 -0.65,10.64 -0.34,0.84 0.31,0.21 c 2.84,-2.76 4.98,-4.97 8.93,-6.2 q 16.64,-5.18 33.75,-8.43 c 1.99,-0.37 4.11,-0.31 6.1,-0.23 a 0.43,0.42 -82.5 0 1 0.39,0.52 q -0.58,2.65 -2.85,4.19 -0.08,0.05 0.01,0.02 1.47,-0.59 2.17,-0.49 a 0.6,0.59 -86.1 0 1 0.51,0.59 v 26.01 a 0.55,0.54 -7.1 0 0 0.68,0.52 l 11.16,-2.79 a 1.34,1.32 -3.3 0 0 1,-1.11 c 1.04,-7.61 0.47,-14.98 8.8,-18.77 q 1.9,-0.87 1.67,1.21 c -0.26,2.24 -2.39,15.32 -1.76,15.93 a 0.82,0.81 30.3 0 0 1.35,-0.35 c 2.77,-9.19 9.07,-18.35 17.56,-23.16 4.92,-2.79 13.93,-1.71 19.35,-0.81 q 7.05,1.85 12.43,6.9 a 0.58,0.57 49.4 0 0 0.72,0.06 c 3.9,-2.61 8.37,-3.71 11.91,-6.54 q 2.54,-2.02 5.12,-3.97 1.28,-0.97 0.9,0.59 c -0.49,2.03 0.32,2.62 2.22,2.17 q 12.05,-2.85 24.4,-1.49 a 0.34,0.34 0 0 1 0.26,0.5 q -2.65,4.73 -6.73,7.56 c -2.53,1.76 -15.56,1.05 -19.49,1.29 a 0.67,0.67 0 0 0 -0.63,0.66 l -1.03,45.1 a 1.36,1.36 0 0 0 1.29,1.39 q 0.79,0.04 0.6,1.57 c -0.34,2.65 -6.21,7.88 -7.88,8.87 q -2.99,1.78 -3.07,-1.7 c -0.36,-17.69 0.97,-35.24 0.63,-52.87 a 0.45,0.44 -10.4 0 0 -0.6,-0.41 l -5.27,1.83 a 0.82,0.82 0 0 0 -0.55,0.8 q 0.73,23.45 -14.99,39.13 c -6.73,6.72 -11.98,10.93 -21.36,8.86 -4.9,-1.07 -7.4,-6.4 -10.65,-9.86 z m 9.5,-12 c 1.53,8.63 14.05,9.32 20.83,8.24 q 1.67,-0.26 2.44,-1.77 5.77,-11.33 4.56,-24.04 -0.23,-2.49 -1.93,-4.33 -3.97,-4.32 -9.44,-6.31 c -6.89,-2.05 -21.73,-6.09 -21.31,6.73 q 0.01,0.49 0.38,0.16 l 3.82,-3.39 q 1.72,-1.52 1.4,0.75 -1.65,11.98 -0.75,23.96 z"
         inkscape:connector-curvature="0"
         style="fill:#0b0b0b" />
      <path
         id="path36415"
         d="m 160.37,55.25 q -3.01,-2.42 -4.12,-6.21 a 0.6,0.59 -11.7 0 1 0.51,-0.76 l 0.41,-0.04 a 0.76,0.76 0 0 1 0.78,0.46 q 2.48,5.65 6.11,10.59 A 0.66,0.65 -41.3 0 1 164,60.13 l -0.34,0.36 a 0.51,0.5 -34.3 0 1 -0.83,-0.15 l -1.71,-4.09 q -0.25,-0.6 -0.75,-1 z"
         inkscape:connector-curvature="0"
         style="fill:#d7d7d7" />
      <path
         id="path36417"
         d="m 78.3,50.68 c 1.21,0.9 3.31,3.85 2.45,5.43 q -0.26,0.47 -0.5,0 L 77.69,51.2 q -0.83,-1.59 0.61,-0.52 z"
         inkscape:connector-curvature="0"
         style="fill:#ffffff" />
      <path
         id="path36419"
         d="m 243.01,114.05 q -1.33,3.96 -4.34,6.83 c -1.67,1.59 -4.24,1.97 -6.15,3.92 a 0.67,0.67 0 0 1 -0.58,0.2 l -0.36,-0.05 q -1.02,-0.15 -0.28,-0.87 l 0.25,-0.25 q 0.34,-0.34 -0.13,-0.27 -1.79,0.26 -2.62,1.24 -3.26,3.88 -6.99,5.69 a 1,0.99 47.4 0 1 -0.92,-0.04 q -5.52,-3.2 -9.81,-8.01 -1.22,-1.37 0.47,-0.66 0.98,0.42 1.79,1.05 a 0.39,0.39 0 0 0 0.62,-0.24 l 0.05,-0.33 a 0.62,0.62 0 0 0 -0.2,-0.57 l -15.04,-13.55 q 3.09,-2.71 4.94,-5.71 a 1.36,1.29 -35.6 0 0 0.18,-0.93 q -0.81,-4.37 -0.73,-9.93 0.26,-18.36 1.07,-31.17 a 0.77,0.76 87.7 0 1 0.65,-0.71 l 16.26,-2.37 q 0.7,-0.1 0.27,0.47 c -3.29,4.32 -1.88,17.89 -2.1,23.61 a 0.69,0.67 86.9 0 1 -0.56,0.64 q -7.65,1.39 -11.31,8.2 -1.03,1.92 1.11,1.51 l 10.29,-1.99 a 0.47,0.47 0 0 1 0.56,0.45 c 0.22,7.26 -0.62,15.32 0.87,22.24 q 0.55,2.57 2.44,0.75 l 7.13,-6.86 a 0.99,0.97 -26.5 0 0 0.29,-0.84 q -1.31,-8.73 -1.09,-17.57 a 0.75,0.74 83 0 1 0.53,-0.69 l 9.06,-2.62 a 0.98,0.98 0 0 1 1.25,1.03 q -1.21,12.97 -1.62,25.1 -0.1,2.94 1.49,4.23 a 0.84,0.82 52.5 0 0 0.84,0.12 z"
         inkscape:connector-curvature="0"
         style="fill:#ffffff" />
      <path
         id="path36421"
         d="m 283,60.29 c -1.5,5.91 -5.46,9.97 -6.84,15.78 a 0.42,0.41 5.2 0 0 0.43,0.51 c 1.11,-0.06 1.47,-3.79 2.27,-4.94 a 0.67,0.66 -65 0 1 0.73,-0.27 l 1.2,0.33 a 0.62,0.61 -68.8 0 0 0.71,-0.32 l 0.54,-1.09 q 0.37,-0.74 0.73,0 2.15,4.3 -1.78,6.98 -0.82,0.56 -0.37,-0.33 l 1.61,-3.18 q 0.81,-1.59 -0.7,-0.64 -3.55,2.24 -4.47,6.5 -0.2,0.92 0.54,0.33 l 0.41,-0.33 a 0.58,0.58 0 0 1 0.86,0.16 q 0.68,1.12 0.06,2.15 a 1.71,1.68 -31.5 0 0 -0.24,0.97 q 0.06,0.93 -0.48,1.7 a 0.76,0.76 0 0 1 -0.81,0.3 q -4.02,-1.01 -5.44,2.78 -0.25,0.65 -0.62,0.06 l -0.68,-1.1 a 0.51,0.5 -34.6 0 0 -0.74,-0.13 q -2.73,2.12 -3.38,1.99 -0.9,-11.98 0.75,-23.96 0.32,-2.27 -1.4,-0.75 l -3.82,3.39 q -0.37,0.33 -0.38,-0.16 C 261.27,54.2 276.11,58.24 283,60.29 Z"
         inkscape:connector-curvature="0"
         style="fill:#ffffff" />
      <path
         id="path36423"
         d="m 283,60.29 q 5.47,1.99 9.44,6.31 1.7,1.84 1.93,4.33 1.21,12.71 -4.56,24.04 -0.77,1.51 -2.44,1.77 c -6.78,1.08 -19.3,0.39 -20.83,-8.24 q 0.65,0.13 3.38,-1.99 a 0.51,0.5 -34.6 0 1 0.74,0.13 l 0.68,1.1 q 0.37,0.59 0.62,-0.06 1.42,-3.79 5.44,-2.78 a 0.76,0.76 0 0 0 0.81,-0.3 q 0.54,-0.77 0.48,-1.7 a 1.71,1.68 -31.5 0 1 0.24,-0.97 q 0.62,-1.03 -0.06,-2.15 a 0.58,0.58 0 0 0 -0.86,-0.16 l -0.41,0.33 q -0.74,0.59 -0.54,-0.33 0.92,-4.26 4.47,-6.5 1.51,-0.95 0.7,0.64 l -1.61,3.18 q -0.45,0.89 0.37,0.33 3.93,-2.68 1.78,-6.98 -0.36,-0.74 -0.73,0 l -0.54,1.09 a 0.62,0.61 -68.8 0 1 -0.71,0.32 l -1.2,-0.33 a 0.67,0.66 -65 0 0 -0.73,0.27 c -0.8,1.15 -1.16,4.88 -2.27,4.94 a 0.42,0.41 5.2 0 1 -0.43,-0.51 c 1.38,-5.81 5.34,-9.87 6.84,-15.78 z m 3.43,7.81 -0.43,1.32 a 0.44,0.44 0 0 0 0.42,0.58 h 1.93 a 0.45,0.45 0 0 0 0.42,-0.61 l -0.9,-2.31 a 0.69,0.68 57.1 0 0 -1.11,-0.24 q -0.33,0.32 -0.28,0.75 0.03,0.26 -0.05,0.51 z"
         inkscape:connector-curvature="0"
         style="fill:#d7d7d7" />
      <path
         id="path36425"
         d="m 193.71,102 q -1.37,1.13 -2.79,0.26 -0.76,-0.46 -1.5,-1.93 -3.75,-7.52 -10.89,-11.89 l 1.05,-21.11 a 0.59,0.58 83.9 0 1 0.43,-0.54 l 15.57,-4.44 q 0.67,-0.19 0.43,0.46 l -0.66,1.75 q -0.18,0.49 -0.23,1.02 -1.56,18.17 -1.41,36.42 z"
         inkscape:connector-curvature="0"
         style="fill:#ffffff" />
      <path
         id="path36427"
         d="m 286.48,67.59 q -0.05,-0.43 0.28,-0.75 a 0.69,0.68 57.1 0 1 1.11,0.24 l 0.9,2.31 A 0.45,0.45 0 0 1 288.35,70 h -1.93 A 0.44,0.44 0 0 1 286,69.42 l 0.43,-1.32 q 0.08,-0.25 0.05,-0.51 z"
         inkscape:connector-curvature="0"
         style="fill:#ffffff" />
      <path
         id="path36429"
         d="m 257.04,100.5 -4.28,2.62 q 0.1,-0.49 -0.08,-0.8 a 0.52,0.52 0 0 0 -0.73,-0.18 l -3.81,2.46 q -0.63,0.41 -0.6,-0.34 0.46,-10.39 1.06,-20.68 0.12,-2.04 1.39,-3.5 1.14,-1.33 1.2,0.42 c 0.32,8.71 -0.97,13.41 5.85,20 z"
         inkscape:connector-curvature="0"
         style="fill:#ffffff" />
      <path
         id="path36431"
         d="m 94.26,112.26 c 0.06,-4.46 5.3,-9.04 9.36,-10.59 a 0.36,0.35 79.1 0 1 0.48,0.33 q 0.23,15.35 0.18,30.6 c -0.02,6.21 -4.02,10.59 -9.54,12.92 a 0.34,0.33 -11.8 0 1 -0.47,-0.3 q -0.08,-27.34 -0.01,-32.96 z"
         inkscape:connector-curvature="0"
         style="fill:#0b0b0b" />
      <path
         id="path36433"
         d="m 242.67,120.74 q 1.79,-4.46 6.92,-2.46 a 0.36,0.36 0 0 1 0.11,0.61 q -1.67,1.47 -2.75,3.45 a 1.79,1.77 1.6 0 1 -0.76,0.71 l -3.45,1.63 q -0.67,0.32 -0.46,-0.4 0.45,-1.48 -0.81,-2.44 a 0.41,0.41 0 0 1 -0.11,-0.53 q 0.24,-0.44 0.79,-0.3 a 0.45,0.44 17.2 0 0 0.52,-0.27 z"
         inkscape:connector-curvature="0"
         style="fill:#ffffff" />
      <path
         id="path36435"
         d="m 152.25,137.21 q -5.36,-1.92 -10.5,0.33 l -3.01,-4.43 q -0.7,-1.03 0.4,-0.46 1.65,0.86 2.93,2.18 a 0.47,0.46 43.8 0 0 0.68,-0.01 c 1.52,-1.74 -0.84,-3.06 -0.17,-3.79 a 0.58,0.58 0 0 1 0.78,-0.07 c 2.68,2.08 7.35,2.93 8.89,6.25 z"
         inkscape:connector-curvature="0"
         style="fill:#ffffff" />
      <path
         id="path36437"
         d="m 311.29,145.25 q -1.27,15.76 -0.88,31.56 0.1,4.21 3.4,5.57 a 0.76,0.75 -60.3 0 1 0.31,1.16 q -3.49,4.63 -8.16,7.96 l -0.92,0.12 a 1.31,1.29 58 0 1 -0.92,-0.22 q -2.26,-1.58 -2.83,-4.4 l -0.08,-26 0.5,-7.85 q 0.03,-0.61 -0.33,-0.12 L 290.1,168.5 q -1.04,1.42 -1.17,3.18 c -0.19,2.49 -0.98,11.78 1.12,13.64 a 1.71,1.71 0 0 1 0.28,2.25 q -3.15,4.6 -8.05,7.27 a 1.01,1 46.1 0 1 -0.99,-0.02 c -2.38,-1.41 -1.83,-6.61 -2.05,-9.09 q -0.1,-1.15 -0.67,-0.15 -1.44,2.5 -4.28,2.47 a 0.48,0.48 0 0 1 -0.43,-0.68 c 1.84,-3.91 4.99,-8.02 5.51,-12.3 q 1.91,-15.59 4.84,-32.02 0.39,-2.21 -1.78,-1.64 l -6.67,1.77 a 0.9,0.9 0 0 0 -0.66,0.7 c -3.12,15.81 -7.84,32.1 -6.65,48.6 a 1.79,1.75 -33.5 0 1 -0.2,0.93 q -2.99,5.71 -9.2,7.49 c -1.16,-15.22 2.7,-29.8 5.69,-44.4 q 0.88,-4.31 0.47,-8.74 a 0.52,0.52 0 0 0 -0.72,-0.43 l -7.14,3.05 a 0.9,0.9 0 0 0 -0.55,0.86 c 0.12,3.69 1.2,7.87 0.9,11.12 -1.11,12.29 -11.13,21.62 -20.46,28.97 a 2.7,2.7 0 0 0 -1.03,2.22 q 0.44,12.03 -0.99,24.13 l -0.97,13.53 q -2.46,6.31 -8.71,8.56 a 0.33,0.33 0 0 1 -0.45,-0.33 l 0.62,-12.19 1,-14.75 0.3,-16.52 a 0.47,0.47 0 0 0 -0.47,-0.48 c -5.17,-0.1 -4.59,-5.12 -5.4,-8.62 a 0.19,0.19 0 0 0 -0.3,-0.11 q -11.18,8.28 -25.09,9.02 -1.3,-0.87 -2.52,-0.37 a 1.61,1.61 0 0 1 -2.16,-1.08 c -0.6,-2.29 -1.04,-4.45 -1.05,-6.9 q -0.03,-15.72 -0.03,-31.49 0,-2.08 -1.54,-0.69 l -1.57,1.41 q -0.81,0.74 -0.57,-0.33 c 1.12,-4.92 10.1,-10.87 13.02,-12.75 q 4.74,-3.03 17.38,-7.64 c 2.63,-0.96 5.04,-0.74 7.75,-0.68 a 0.79,0.77 80 0 1 0.69,0.49 l 0.39,0.99 c -0.16,4.32 -5.18,8.54 -8.46,11.07 q -1.55,1.2 -1.57,-0.76 l -0.01,-1.55 a 0.71,0.7 -87.2 0 0 -0.62,-0.69 c -4.65,-0.57 -10.32,1.9 -14.94,4.04 a 0.76,0.75 78 0 0 -0.44,0.69 v 10.67 q 0,0.56 0.46,0.25 c 5.9,-3.97 15.93,-6.01 22.93,-7.46 q 1.7,-0.35 0.97,1.22 c -2.23,4.78 -5.78,7.81 -11.19,8.72 q -6.58,1.12 -12.79,3.75 a 0.76,0.75 77.9 0 0 -0.45,0.71 l 0.24,15.75 q 0.06,3.68 3.72,3.37 8.87,-0.76 16.92,-4.18 a 1.2,1.2 0 0 0 0.69,-0.8 q 1.94,-7.43 6.42,-13.65 a 1.71,1.7 63.3 0 0 0.33,-1.01 v -16.44 q 0,-1.01 -0.53,-0.16 -0.95,1.51 -2.66,1.39 a 0.74,0.73 -77 0 1 -0.63,-1.01 q 2.38,-5.98 7.32,-10.13 c 5.98,-6.35 17.48,-8.47 21.89,1.11 a 0.51,0.51 0 0 0 0.74,0.22 q 9,-5.75 19.54,-7.67 a 0.69,0.69 0 0 1 0.78,0.46 l 0.61,1.84 a 0.41,0.41 0 0 0 0.5,0.26 l 15.77,-4.95 q 3.17,-1 2.66,2.28 l -4.43,28.46 q -0.27,1.74 0.8,0.34 6.8,-8.94 13.85,-18.93 2.96,-4.19 6.85,-5.77 a 0.38,0.37 79 0 1 0.51,0.35 z m -69.3,2.47 -3.48,-3.06 q -1.12,-0.98 -1.17,0.51 l -0.29,9.11 q -0.04,1.33 0.9,0.39 l 4.13,-4.14 q 1.46,-1.45 -0.09,-2.81 z m 14.87,-1.33 q -1.64,-1.38 -0.48,0.88 0.23,0.44 0.47,0 l 0.13,-0.23 a 0.52,0.51 35 0 0 -0.12,-0.65 z m -18.12,11.3 q -1.5,1.42 -1.5,3.49 l 0.01,23.31 a 0.71,0.7 10.1 0 0 0.47,0.66 q 1.23,0.43 2.07,-0.11 c 11.52,-7.49 8.98,-21 5.63,-32.17 a 0.77,0.77 0 0 0 -1.27,-0.34 z"
         inkscape:connector-curvature="0"
         style="fill:#0b0b0b" />
      <path
         id="path36439"
         d="m 368.4,162.21 c 5.53,-3.76 15.3,-6.24 21.57,-2.71 a 0.33,0.33 0 0 0 0.49,-0.25 c 0.72,-5.79 -0.15,-10.75 0.17,-17.26 0.24,-4.76 4.1,-8.45 8.11,-10.29 a 0.88,0.88 0 0 1 1.25,0.8 q 0.02,36.91 0.01,73.75 c -0.01,4.38 -4.66,8.07 -8.61,10.06 a 0.34,0.34 0 0 1 -0.49,-0.28 c -1.05,-12.72 0.1,-25.9 -0.45,-38.75 q -0.02,-0.5 -0.3,-0.09 c -8.35,12.49 -17.93,19.87 -33.91,19.48 -7.98,-0.19 -5.52,-12.44 -4.35,-17.13 q 0.12,-0.47 -0.16,-0.07 c -5.63,8.17 -12.27,14.68 -22.98,14.26 -9.36,-0.37 -15.89,-9.29 -8.74,-17.49 q 7.93,-9.1 19.2,-11.33 a 0.34,0.34 0 0 1 0.4,0.4 c -1.06,4.87 -8.31,8.81 -12.64,10.45 a 1.01,1 64.5 0 0 -0.51,1.45 q 5.61,9.61 16.6,6.32 a 1.97,1.94 -3.5 0 0 1.36,-1.52 q 1.93,-10.69 -0.06,-21.83 -0.65,-3.65 -4.36,-3.27 -7.93,0.8 -15.3,3.92 -1.36,0.58 -0.7,-0.74 c 3.14,-6.31 9.44,-8.44 7.07,-16.94 a 0.71,0.7 -10.8 0 0 -0.75,-0.5 l -4.21,0.43 a 1.01,0.99 9.5 0 0 -0.8,0.56 q -2.63,5.55 -7.75,8.87 -3.65,2.37 -1.65,-1.49 c 4.16,-8.07 13.97,-18.99 23.93,-17.69 a 0.69,0.68 88.2 0 1 0.59,0.56 c 1.43,7.47 -0.52,10.12 -4.37,16.07 q -0.28,0.42 0.2,0.26 6.63,-2.25 13.63,-2.61 2.49,-0.13 3.38,2.2 c 2.42,6.35 1.74,16.76 1.01,23.46 q -0.06,0.51 0.27,0.12 c 3.08,-3.62 4.09,-6.75 3.9,-11.81 -0.35,-9.59 -2.98,-21.1 7.78,-26.4 a 0.81,0.8 76.2 0 1 1.16,0.71 l 0.46,26.03 q 0.01,0.65 0.55,0.29 z m 2.26,16.74 q -3.27,4.55 -7.94,7.63 -0.51,0.34 0.1,0.42 7.97,0.99 15.38,-1.89 c 6.12,-2.38 4.48,-11.14 2.66,-15.71 a 2.9,2.89 84 0 0 -2.18,-1.77 q -4.25,-0.74 -8.52,-0.04 a 0.45,0.44 -8.1 0 0 -0.37,0.49 l 1.14,9.82 a 1.57,1.53 60.1 0 1 -0.27,1.05 z"
         inkscape:connector-curvature="0"
         style="fill:#0b0b0b" />
      <path
         id="path36441"
         d="m 173.96,175.5 0.08,-2 q 0.49,-5.44 0.78,-10.91 c 0.3,-5.78 1.75,-12.1 1.95,-18.35 a 0.52,0.52 0 0 0 -0.57,-0.53 q -3.79,0.35 -7.2,2.02 a 0.92,0.91 -13 0 0 -0.51,0.8 q -0.09,7.11 -1.28,12.21 -1.09,4.62 -0.67,8.51 0.21,5.99 2.46,11.54 l 1.06,3.06 a 0.91,0.89 -36.8 0 1 -0.13,0.84 q -3.87,5.37 -9.18,9.35 -1,-0.61 -0.68,-1.71 a 1.69,1.67 -44.7 0 0 0.01,-0.9 l -2.94,-10.46 a 0.3,0.29 59.5 0 0 -0.49,-0.13 c -6.51,6.28 -11.99,12.57 -20.63,15.94 -3.43,1.34 -7.27,0.31 -10.74,1.84 q -6.82,3.01 -14.31,2.88 c -3.45,-0.06 -6.45,1.63 -8.58,3.85 q -1.62,1.7 -2.27,-0.56 c -1,-3.43 -1.06,-6.26 -3.08,-9.26 q -6.61,-9.81 0.41,-20.08 a 1.79,1.78 -28.2 0 0 0.3,-0.99 v -19.7 q 0,-0.74 -0.63,-0.36 l -14.55,8.93 a 1.8,1.8 0 0 0 -0.85,1.77 q 1.26,9.61 1,19.15 c -0.22,8.17 -8.39,13.48 -15.88,14.59 -39.62,5.86 -3.61,-25.69 3.82,-31.02 a 1.87,1.85 68 0 0 0.75,-1.79 q -1.24,-8.2 -3.94,-16.01 a 1.06,1.05 -21.3 0 0 -1.42,-0.62 c -8.66,3.76 -12.26,14.07 -11.78,22.87 a 1.63,1.63 0 0 1 -0.29,1.02 q -3.39,4.83 -8.25,8.18 a 0.35,0.35 0 0 1 -0.54,-0.25 C 43.54,162.67 57.3,148.3 70.14,140.11 q 2.41,-1.54 4.19,-1.91 1.82,-0.38 2.49,1.36 3.34,8.75 4.02,18.14 a 0.4,0.39 -18.6 0 0 0.61,0.3 l 25.15,-16.33 q 0.48,-0.31 0.49,0.26 l 0.12,22.35 q 0,0.57 0.42,0.18 8.93,-8.43 16.23,-18.36 c 0.96,-1.31 7.31,-8.71 9,-7.39 a 0.37,0.36 36.9 0 1 0.08,0.5 q -10.54,15.19 -24.1,27.72 -1.76,1.63 -1.8,4.03 -0.15,7.57 1.16,15.07 a 1.38,1.37 -75.7 0 0 0.48,0.82 q 3.47,2.85 8.02,3.14 a 1.64,1.63 1.6 0 0 1.74,-1.64 c -0.14,-17.71 4.72,-36.39 19.1,-48.1 l 4.21,-2.71 q 5.14,-2.25 10.5,-0.33 c 4.84,1.36 4.66,4.07 5.69,8.28 q 0.12,0.49 0.47,0.13 c 5.92,-5.97 16.23,-8.73 24.14,-10.94 q 1.8,-0.51 2.18,-0.49 2.05,0.14 1.75,2.17 -3.28,21.76 -3,42.69 c 0.03,2.75 1.36,5.51 0.96,8.72 q -0.19,1.56 1.26,4.49 0.17,0.34 0.47,0.47 a 0.61,0.61 0 0 0 0.69,-0.18 q 0.5,-0.6 1.13,-0.65 a 0.45,0.44 -87.9 0 1 0.47,0.51 c -0.29,1.85 -0.18,3.29 -1.48,4.76 q -3.32,3.78 -6.92,6.78 a 1.27,1.27 0 0 1 -1.88,-0.3 c -4.55,-7.32 -4.53,-19.81 -4.22,-28.15 z m -25.43,-9.69 c -0.37,-4.78 1.22,-16.79 -3.56,-18.77 -3.05,-1.27 -8.68,-3.07 -10.49,0.99 q -6.35,14.3 -6.7,30.77 c -0.07,3.58 0.77,6.24 4.69,6.47 a 0.96,0.96 0 0 0 0.81,-0.36 c 1.1,-1.36 6.16,-7.23 8.25,-7.03 a 0.42,0.41 -71.5 0 1 0.31,0.63 l -4.32,7.08 a 0.36,0.36 0 0 0 0.24,0.54 q 4.78,0.83 8.05,-1.3 13.32,-8.67 11.06,-25.35 -0.08,-0.56 -0.49,-0.17 l -7.1,6.79 q -0.67,0.64 -0.75,-0.29 z m -88.44,21.05 q 6.13,2.4 12.63,0.91 a 0.63,0.62 -6.4 0 0 0.49,-0.61 q 0.05,-8.92 -1.09,-17.75 a 0.45,0.44 -20.6 0 0 -0.69,-0.31 c -5.06,3.4 -11.24,7.61 -13.25,13.68 q -0.97,2.94 1.91,4.08 z"
         inkscape:connector-curvature="0"
         style="fill:#0b0b0b" />
      <path
         id="path36443"
         d="m 225.54,136.75 q 3.23,0.65 4.77,3.39 a 0.7,0.68 -10.7 0 0 0.53,0.35 l 0.41,0.05 q -4.94,4.15 -7.32,10.13 a 0.74,0.73 -77 0 0 0.63,1.01 q 1.71,0.12 2.66,-1.39 0.53,-0.85 0.53,0.16 v 16.44 a 1.71,1.7 63.3 0 1 -0.33,1.01 q -4.48,6.22 -6.42,13.65 a 1.2,1.2 0 0 1 -0.69,0.8 q -8.05,3.42 -16.92,4.18 -3.66,0.31 -3.72,-3.37 l -0.24,-15.75 a 0.76,0.75 77.9 0 1 0.45,-0.71 q 6.21,-2.63 12.79,-3.75 c 5.41,-0.91 8.96,-3.94 11.19,-8.72 q 0.73,-1.57 -0.97,-1.22 c -7,1.45 -17.03,3.49 -22.93,7.46 q -0.46,0.31 -0.46,-0.25 v -10.67 a 0.76,0.75 78 0 1 0.44,-0.69 c 4.62,-2.14 10.29,-4.61 14.94,-4.04 a 0.71,0.7 -87.2 0 1 0.62,0.69 l 0.01,1.55 q 0.02,1.96 1.57,0.76 c 3.28,-2.53 8.3,-6.75 8.46,-11.07 z"
         inkscape:connector-curvature="0"
         style="fill:#bebebe" />
      <path
         id="path36445"
         d="m 301.21,161 q -4.73,1.55 -7.44,5.88 a 0.49,0.48 32.1 0 0 0.16,0.67 l 1.43,0.91 a 0.76,0.76 0 0 1 0.19,1.12 l -2.21,2.82 a 0.43,0.43 0 0 0 0.04,0.58 l 2.24,2.04 a 0.33,0.33 0 0 1 0.01,0.48 l -0.25,0.24 a 0.41,0.39 38.9 0 1 -0.49,0.04 q -3.8,-2.4 -6.3,1.77 a 1.17,1.17 0 0 0 0.37,1.59 q 0.25,0.16 0.56,0.11 a 1.01,0.98 59 0 1 0.78,0.21 l 10.28,8.37 q 0.57,0.46 0.65,-0.27 l 0.06,-0.56 q 0.57,2.82 2.83,4.4 a 1.31,1.29 58 0 0 0.92,0.22 l 0.92,-0.12 q 0.25,0.94 1.12,1.36 a 1.83,1.78 86.2 0 1 0.71,0.64 c 4.64,7.28 10.5,14 14.37,21.35 q 3.51,6.66 6.7,13.49 c 2.29,4.93 7.37,5.86 9.61,11.75 q 1.74,4.57 3.79,8.98 A 0.47,0.46 67.8 0 1 342,249.7 l -0.81,0.3 h -75 q -0.9,-0.42 -2.91,-0.18 a 1.98,1.97 -16.2 0 1 -2.02,-1.11 c -2,-4.21 -3.52,-9.07 -6.59,-12.39 q -3.55,-3.84 -8.12,-6.59 -1.09,-0.66 -0.52,0.49 l 0.59,1.17 q 0.32,0.65 -0.35,0.38 l -1.86,-0.72 a 0.84,0.82 38.2 0 0 -0.75,0.08 q -2.53,1.66 -4.53,-1.07 a 0.68,0.67 -41.5 0 1 0.06,-0.88 l 0.37,-0.38 a 0.41,0.41 0 0 0 -0.18,-0.68 q -1.01,-0.29 -4.52,0.8 a 0.46,0.45 78.2 0 0 -0.32,0.5 q 0.13,0.91 -0.29,1.79 l 0.97,-13.53 q 5.45,-1.38 8.13,-5.89 c 2.51,-4.22 9.52,-8.57 13.43,-11.75 q 1.2,-0.97 2.27,0.86 6.21,-1.78 9.2,-7.49 a 1.79,1.75 -33.5 0 0 0.2,-0.93 c -1.19,-16.5 3.53,-32.79 6.65,-48.6 a 0.9,0.9 0 0 1 0.66,-0.7 l 6.67,-1.77 q 2.17,-0.57 1.78,1.64 -2.93,16.43 -4.84,32.02 c -0.52,4.28 -3.67,8.39 -5.51,12.3 a 0.48,0.48 0 0 0 0.43,0.68 q 2.84,0.03 4.28,-2.47 0.57,-1 0.67,0.15 c 0.22,2.48 -0.33,7.68 2.05,9.09 a 1.01,1 46.1 0 0 0.99,0.02 q 4.9,-2.67 8.05,-7.27 a 1.71,1.71 0 0 0 -0.28,-2.25 c -2.1,-1.86 -1.31,-11.15 -1.12,-13.64 q 0.13,-1.76 1.17,-3.18 l 11.28,-15.47 q 0.36,-0.49 0.33,0.12 z"
         inkscape:connector-curvature="0"
         style="fill:#d7d7d7" />
      <path
         id="path36447"
         d="m 174.04,173.5 -0.07,-1.66 a 0.88,0.88 0 0 0 -0.45,-0.73 l -6.98,-3.86 q -0.42,-3.89 0.67,-8.51 1.19,-5.1 1.28,-12.21 a 0.92,0.91 -13 0 1 0.51,-0.8 q 3.41,-1.67 7.2,-2.02 a 0.52,0.52 0 0 1 0.57,0.53 c -0.2,6.25 -1.65,12.57 -1.95,18.35 q -0.29,5.47 -0.78,10.91 z"
         inkscape:connector-curvature="0"
         style="fill:#d7d7d7" />
      <path
         id="path36449"
         d="m 241.99,147.72 q 1.55,1.36 0.09,2.81 l -4.13,4.14 q -0.94,0.94 -0.9,-0.39 l 0.29,-9.11 q 0.05,-1.49 1.17,-0.51 z"
         inkscape:connector-curvature="0"
         style="fill:#bebebe" />
      <path
         id="path36451"
         d="m 149.28,166.1 7.1,-6.79 q 0.41,-0.39 0.49,0.17 2.26,16.68 -11.06,25.35 -3.27,2.13 -8.05,1.3 a 0.36,0.36 0 0 1 -0.24,-0.54 l 4.32,-7.08 a 0.42,0.41 -71.5 0 0 -0.31,-0.63 c -2.09,-0.2 -7.15,5.67 -8.25,7.03 a 0.96,0.96 0 0 1 -0.81,0.36 c -3.92,-0.23 -4.76,-2.89 -4.69,-6.47 q 0.35,-16.47 6.7,-30.77 c 1.81,-4.06 7.44,-2.26 10.49,-0.99 4.78,1.98 3.19,13.99 3.56,18.77 q 0.08,0.93 0.75,0.29 z"
         inkscape:connector-curvature="0"
         style="fill:#ffffff" />
      <path
         id="path36453"
         d="m 256.98,147.04 -0.13,0.23 q -0.24,0.44 -0.47,0 -1.16,-2.26 0.48,-0.88 a 0.52,0.51 35 0 1 0.12,0.65 z"
         inkscape:connector-curvature="0"
         style="fill:#bebebe" />
      <path
         id="path36455"
         d="m 259.05,200.9 q -1.07,-1.83 -2.27,-0.86 c -3.91,3.18 -10.92,7.53 -13.43,11.75 q -2.68,4.51 -8.13,5.89 1.43,-12.1 0.99,-24.13 a 2.7,2.7 0 0 1 1.03,-2.22 c 9.33,-7.35 19.35,-16.68 20.46,-28.97 0.3,-3.25 -0.78,-7.43 -0.9,-11.12 a 0.9,0.9 0 0 1 0.55,-0.86 l 7.14,-3.05 a 0.52,0.52 0 0 1 0.72,0.43 q 0.41,4.43 -0.47,8.74 c -2.99,14.6 -6.85,29.18 -5.69,44.4 z"
         inkscape:connector-curvature="0"
         style="fill:#bebebe" />
      <path
         id="path36457"
         d="m 238.74,157.69 5.41,-5.16 a 0.77,0.77 0 0 1 1.27,0.34 c 3.35,11.17 5.89,24.68 -5.63,32.17 q -0.84,0.54 -2.07,0.11 a 0.71,0.7 10.1 0 1 -0.47,-0.66 l -0.01,-23.31 q 0,-2.07 1.5,-3.49 z"
         inkscape:connector-curvature="0"
         style="fill:#bebebe" />
      <path
         id="path36459"
         d="m 301.21,161 0.08,26 -0.06,0.56 q -0.08,0.73 -0.65,0.27 l -10.28,-8.37 a 1.01,0.98 59 0 0 -0.78,-0.21 q -0.31,0.05 -0.56,-0.11 a 1.17,1.17 0 0 1 -0.37,-1.59 q 2.5,-4.17 6.3,-1.77 a 0.41,0.39 38.9 0 0 0.49,-0.04 l 0.25,-0.24 a 0.33,0.33 0 0 0 -0.01,-0.48 l -2.24,-2.04 a 0.43,0.43 0 0 1 -0.04,-0.58 l 2.21,-2.82 a 0.76,0.76 0 0 0 -0.19,-1.12 l -1.43,-0.91 a 0.49,0.48 32.1 0 1 -0.16,-0.67 q 2.71,-4.33 7.44,-5.88 z"
         inkscape:connector-curvature="0"
         style="fill:#ffffff" />
      <path
         id="path36461"
         d="m 166.54,167.25 6.98,3.86 a 0.88,0.88 0 0 1 0.45,0.73 l 0.07,1.66 -0.08,2 q -1.19,3.6 -4.96,3.29 -2.25,-5.55 -2.46,-11.54 z"
         inkscape:connector-curvature="0"
         style="fill:#ffffff" />
      <path
         id="path36463"
         d="m 370.93,177.9 -1.14,-9.82 a 0.45,0.44 -8.1 0 1 0.37,-0.49 q 4.27,-0.7 8.52,0.04 a 2.9,2.89 84 0 1 2.18,1.77 c 1.82,4.57 3.46,13.33 -2.66,15.71 q -7.41,2.88 -15.38,1.89 -0.61,-0.08 -0.1,-0.42 4.67,-3.08 7.94,-7.63 a 1.57,1.53 60.1 0 0 0.27,-1.05 z"
         inkscape:connector-curvature="0"
         style="fill:#ffffff" />
      <path
         id="path36465"
         d="m 60.09,186.86 q -2.88,-1.14 -1.91,-4.08 c 2.01,-6.07 8.19,-10.28 13.25,-13.68 a 0.45,0.44 -20.6 0 1 0.69,0.31 q 1.14,8.83 1.09,17.75 a 0.63,0.62 -6.4 0 1 -0.49,0.61 q -6.5,1.49 -12.63,-0.91 z"
         inkscape:connector-curvature="0"
         style="fill:#ffffff" />
      <path
         id="path36467"
         d="m 226.71,212.5 q -0.25,-1.78 -1.67,-1.83 a 0.47,0.46 -3.7 0 0 -0.47,0.53 l 0.34,2.31 q 0.11,0.76 -0.6,0.47 l -2.73,-1.13 a 0.57,0.57 0 0 1 -0.29,-0.8 q 0.54,-1.03 1.61,-1.68 a 0.28,0.26 65.4 0 0 0.11,-0.32 l -0.1,-0.31 a 0.16,0.16 0 0 0 -0.25,-0.08 l -3.44,2.48 a 0.47,0.47 0 0 0 0.04,0.78 l 3.57,2.07 a 1.42,1.39 8 0 1 0.64,0.83 q 0.5,1.85 -1.21,2.47 a 0.96,0.95 -39.6 0 1 -0.82,-0.07 c -8.29,-4.88 -18.79,-11.68 -25.97,-19.02 a 0.71,0.7 -53.6 0 1 -0.12,-0.81 q 0.68,-1.35 0.4,-2.6 13.91,-0.74 25.09,-9.02 a 0.19,0.19 0 0 1 0.3,0.11 c 0.81,3.5 0.23,8.52 5.4,8.62 a 0.47,0.47 0 0 1 0.47,0.48 z"
         inkscape:connector-curvature="0"
         style="fill:#bebebe" />
      <path
         id="path36469"
         d="m 225.71,227.25 -0.62,12.19 a 0.33,0.33 0 0 0 0.45,0.33 q 6.25,-2.25 8.71,-8.56 0.42,-0.88 0.29,-1.79 a 0.46,0.45 78.2 0 1 0.32,-0.5 q 3.51,-1.09 4.52,-0.8 a 0.41,0.41 0 0 1 0.18,0.68 l -0.37,0.38 a 0.68,0.67 -41.5 0 0 -0.06,0.88 q 2,2.73 4.53,1.07 a 0.84,0.82 38.2 0 1 0.75,-0.08 l 1.86,0.72 q 0.67,0.27 0.35,-0.38 l -0.59,-1.17 q -0.57,-1.15 0.52,-0.49 4.57,2.75 8.12,6.59 c 3.07,3.32 4.59,8.18 6.59,12.39 a 1.98,1.97 -16.2 0 0 2.02,1.11 q 2.01,-0.24 2.91,0.18 h -63.75 q 3.91,-3.39 7.62,-7.01 c 3.48,-3.4 8.41,-7.3 12.11,-11.57 a 1.51,1.48 -23.7 0 0 0.35,-0.87 q 0.14,-3.02 3.19,-3.3 z"
         inkscape:connector-curvature="0"
         style="fill:#ffffff" />
      <path
         id="path36471"
         d="m 118.44,250 h -9.5 q 4.74,-0.79 9.5,0 z"
         inkscape:connector-curvature="0"
         style="fill:#ffffff" />
    </g>
  </g>
</svg>
