<?xml version="1.0" encoding="UTF-8" standalone="no"?>
<!DOCTYPE svg PUBLIC "-//W3C//DTD SVG 1.1//EN" "http://www.w3.org/Graphics/SVG/1.1/DTD/svg11.dtd">
<svg xmlns="http://www.w3.org/2000/svg" version="1.1" viewBox="0 0 450 247">
<g stroke-width="2.00" fill="none" stroke-linecap="butt">
<path stroke="#ececec" vector-effect="non-scaling-stroke" d="
  M 31.31 0.00
  L 21.28 0.40
  Q 20.86 0.42 21.25 0.57
  C 24.91 2.04 29.51 1.41 33.04 2.08
  A 1.59 1.56 -16.5 0 1 33.89 2.53
  Q 42.38 11.15 50.01 20.60"
/>
<path stroke="#828282" vector-effect="non-scaling-stroke" d="
  M 50.01 20.60
  Q 48.51 22.04 49.13 23.35
  A 0.58 0.58 0.0 0 0 49.85 23.66
  L 51.05 23.25
  A 0.59 0.59 0.0 0 1 51.83 23.79
  C 52.59 49.51 51.28 74.93 54.91 100.53
  A 0.75 0.74 -18.8 0 1 54.54 101.28
  C 53.00 102.16 51.16 102.08 49.75 102.89
  Q 44.35 105.98 42.35 109.57
  Q 40.26 113.31 44.30 111.90
  Q 61.35 105.96 78.68 101.73"
/>
<path stroke="#ececec" vector-effect="non-scaling-stroke" d="
  M 78.68 101.73
  C 78.70 103.80 78.33 104.86 78.82 106.76
  Q 80.41 112.85 81.89 118.91
  Q 82.71 122.27 85.29 121.50"
/>
<path stroke="#828282" vector-effect="non-scaling-stroke" d="
  M 85.29 121.50
  L 82.14 130.92
  A 0.68 0.67 10.3 0 1 81.47 131.38
  C 73.57 131.12 65.61 137.61 59.76 142.76
  C 57.28 144.95 45.95 157.77 47.44 161.01
  A 1.11 1.10 55.8 0 0 49.20 161.35
  C 51.91 158.78 55.77 155.65 57.10 152.43
  C 59.99 145.45 63.63 142.15 71.29 141.21
  A 0.87 0.84 -20.6 0 1 72.09 141.56
  C 75.27 146.06 76.78 154.49 77.19 159.19
  A 0.72 0.70 76.2 0 1 76.77 159.90
  C 67.92 163.85 50.47 175.26 49.07 185.81
  Q 48.26 191.96 49.51 197.07
  Q 50.18 199.81 52.99 199.97
  Q 72.11 201.12 84.30 187.00
  C 89.22 181.29 87.99 174.88 88.00 168.28
  A 1.05 1.03 71.7 0 1 88.41 167.45
  Q 89.78 166.36 91.51 165.95"
/>
<path stroke="#ececec" vector-effect="non-scaling-stroke" d="
  M 91.51 165.95
  Q 92.63 173.82 92.11 182.18
  Q 92.04 183.37 91.50 184.43
  Q 89.35 188.70 86.78 191.31
  Q 85.04 193.09 84.36 194.66
  C 79.76 205.46 77.84 216.86 75.14 227.97
  C 74.20 231.81 72.21 238.03 68.44 239.60
  Q 67.65 239.94 67.97 239.14
  L 68.82 237.06
  Q 70.20 233.67 68.33 236.82
  L 62.91 245.89
  A 0.42 0.42 0.0 0 0 63.24 246.52
  L 69.44 247.00"
/>
<path stroke="#ececec" vector-effect="non-scaling-stroke" d="
  M 120.56 0.00
  Q 124.93 0.42 126.57 2.72
  Q 132.17 10.60 137.17 24.10
  C 138.33 27.24 139.72 29.65 139.82 33.36
  A 1.06 1.04 19.0 0 0 140.22 34.16
  C 144.90 37.78 141.49 40.94 143.79 45.00"
/>
<path stroke="#6e6e6e" vector-effect="non-scaling-stroke" d="
  M 143.79 45.00
  C 131.83 48.81 107.45 54.80 101.29 66.68
  Q 100.67 67.87 101.90 67.33
  L 112.98 62.37
  A 0.29 0.29 0.0 0 1 113.39 62.65
  L 112.68 73.87
  Q 112.65 74.35 112.43 74.79
  L 110.83 77.87
  A 0.61 0.61 0.0 0 0 111.24 78.75
  L 112.22 78.96
  A 0.79 0.78 -84.5 0 1 112.84 79.72
  L 113.05 97.72
  A 0.96 0.95 -17.1 0 1 112.61 98.54
  Q 108.84 101.05 107.00 105.27
  A 0.39 0.39 0.0 0 0 107.34 105.82
  Q 131.05 106.78 154.50 104.04"
/>
<path stroke="#ececec" vector-effect="non-scaling-stroke" d="
  M 154.50 104.04
  Q 156.11 106.26 155.50 109.50
  Q 155.28 110.68 156.71 110.75"
/>
<path stroke="#6e6e6e" vector-effect="non-scaling-stroke" d="
  M 156.71 110.75
  L 156.61 111.73
  A 0.87 0.84 -70.5 0 0 156.97 112.52
  Q 157.86 113.13 159.00 113.04"
/>
<path stroke="#ececec" vector-effect="non-scaling-stroke" d="
  M 159.00 113.04
  L 159.09 114.01
  A 1.49 1.47 57.8 0 1 158.89 114.92
  Q 157.45 117.32 157.60 119.00
  Q 158.33 127.13 157.79 135.25"
/>
<path stroke="#6e6e6e" vector-effect="non-scaling-stroke" d="
  M 157.79 135.25
  C 149.49 137.56 142.73 144.83 139.21 152.22
  C 134.79 161.48 134.53 173.89 135.14 184.74
  Q 135.18 185.58 134.45 186.03
  A 0.79 0.78 47.9 0 1 133.54 185.98
  Q 118.30 174.00 107.93 157.55
  A 0.59 0.58 57.4 0 1 108.10 156.75
  Q 127.59 144.18 131.67 141.16
  C 137.02 137.19 142.51 133.01 143.96 129.25
  Q 144.43 128.02 143.31 128.71
  C 138.55 131.62 133.75 135.57 129.71 138.20
  Q 118.28 145.64 107.04 152.27
  Q 105.75 153.03 105.96 151.54
  Q 107.23 142.79 106.99 133.94
  Q 106.97 133.32 106.45 133.65
  L 101.54 136.75"
/>
<path stroke="#ececec" vector-effect="non-scaling-stroke" d="
  M 101.54 136.75
  Q 100.32 127.20 96.87 118.13"
/>
<path stroke="#6e6e6e" vector-effect="non-scaling-stroke" d="
  M 96.87 118.13
  L 99.76 112.18
  Q 100.28 111.12 99.18 111.52
  Q 97.14 112.27 95.60 113.77
  Q 94.49 114.86 95.18 113.47
  Q 100.24 103.25 98.72 91.81
  A 0.69 0.68 -2.4 0 0 98.06 91.21
  L 92.07 90.94
  A 0.60 0.59 2.9 0 1 91.50 90.32
  Q 93.22 50.54 98.46 11.05
  Q 98.75 8.89 96.56 8.93
  Q 79.35 9.29 62.51 12.44
  A 0.44 0.43 85.0 0 1 62.00 12.01
  L 62.01 9.77
  A 0.37 0.37 0.0 0 0 61.47 9.44
  C 56.81 11.82 53.06 16.66 50.01 20.60"
/>
<path stroke="#ececec" vector-effect="non-scaling-stroke" d="
  M 116.74 6.64
  C 116.42 7.48 120.94 15.99 121.73 16.87
  Q 122.15 17.33 121.99 16.73
  Q 120.54 11.26 117.34 6.57
  Q 116.97 6.03 116.74 6.64"
/>
<path stroke="#ececec" vector-effect="non-scaling-stroke" d="
  M 264.06 0.00
  L 262.47 0.39
  A 1.21 1.16 7.6 0 0 261.73 0.93
  C 256.75 9.28 255.01 17.95 254.10 27.58
  C 253.59 32.96 251.87 36.83 249.73 41.50
  A 1.06 1.02 -46.7 0 0 249.74 42.38
  L 250.29 43.50"
/>
<path stroke="#828282" vector-effect="non-scaling-stroke" d="
  M 250.29 43.50
  C 234.44 55.54 223.41 71.05 214.70 88.74
  A 0.53 0.53 0.0 0 1 214.02 89.00
  Q 202.79 84.33 194.66 75.42
  C 190.57 70.94 190.61 63.80 194.02 58.99
  C 200.39 50.01 206.84 40.82 215.57 33.57
  Q 217.84 31.69 219.47 28.48
  Q 219.71 28.01 219.20 28.14
  C 211.00 30.25 198.15 47.53 193.21 54.23
  Q 192.21 55.60 192.27 53.90
  L 193.20 29.64
  A 0.59 0.59 0.0 0 0 192.37 29.08
  C 179.99 34.57 183.37 47.21 182.77 58.01
  Q 182.70 59.25 182.08 58.17
  C 179.37 53.46 175.45 46.68 170.67 43.90
  A 0.69 0.69 0.0 0 0 169.89 43.96
  Q 165.45 47.43 162.02 51.92
  A 0.80 0.80 0.0 0 0 162.02 52.88
  Q 170.22 63.92 177.49 75.61
  A 1.40 1.39 -45.3 0 1 177.49 77.10
  L 167.95 92.27
  A 1.54 1.49 5.4 0 1 167.15 92.91
  Q 160.96 95.06 154.50 95.04"
/>
<path stroke="#ececec" vector-effect="non-scaling-stroke" d="
  M 154.50 95.04
  L 154.22 95.00
  A 0.30 0.29 -87.6 0 1 153.98 94.73
  Q 153.03 83.60 145.44 75.12"
/>
<path stroke="#828282" vector-effect="non-scaling-stroke" d="
  M 145.44 75.12
  C 148.00 73.02 155.78 66.86 153.56 63.06
  A 0.85 0.84 -16.6 0 0 152.78 62.64
  L 143.00 63.29"
/>
<path stroke="#ececec" vector-effect="non-scaling-stroke" d="
  M 143.00 63.29
  Q 141.85 58.37 139.62 53.89"
/>
<path stroke="#828282" vector-effect="non-scaling-stroke" d="
  M 139.62 53.89
  L 150.26 51.28
  Q 151.00 51.10 150.71 51.80
  L 150.24 52.93
  A 0.62 0.62 0.0 0 0 150.59 53.75
  C 152.36 54.43 160.41 44.34 161.32 43.00
  Q 162.60 41.08 160.32 41.42
  Q 151.91 42.69 143.79 45.00"
/>
<path stroke="#ececec" vector-effect="non-scaling-stroke" d="
  M 330.81 0.00
  L 334.60 0.72
  A 0.28 0.28 0.0 0 1 334.77 1.17
  Q 328.66 8.84 328.76 18.47
  Q 328.76 18.83 329.00 18.94
  A 0.53 0.53 0.0 0 0 329.73 18.63
  L 330.08 17.57
  A 0.54 0.54 0.0 0 1 330.93 17.32
  L 331.33 17.64
  A 0.51 0.50 31.1 0 0 332.11 17.45
  C 334.05 12.86 334.52 9.72 337.94 5.84
  Q 338.27 5.47 338.09 5.93
  C 334.07 15.83 333.59 27.34 326.30 34.88
  A 0.54 0.54 0.0 0 1 325.43 34.75
  L 325.02 33.97
  A 0.83 0.83 0.0 0 1 325.17 33.00
  C 327.04 31.12 326.65 29.03 327.16 27.17
  Q 328.08 23.82 329.08 20.48
  A 0.12 0.11 19.1 0 0 329.00 20.33
  L 328.70 20.24
  A 0.30 0.29 18.1 0 0 328.33 20.42
  Q 326.04 26.98 323.80 33.56
  C 322.47 37.47 318.42 40.06 315.05 42.05
  Q 314.41 42.44 313.71 43.69
  A 1.49 1.49 0.0 0 1 313.04 44.33
  Q 311.96 44.83 312.12 46.02
  Q 312.21 46.69 312.66 46.19
  Q 313.85 44.88 315.11 46.32
  A 0.91 0.89 32.2 0 1 315.31 47.16
  Q 314.46 50.41 311.27 54.76
  Q 308.84 58.06 311.50 61.11"
/>
<path stroke="#6e6e6e" vector-effect="non-scaling-stroke" d="
  M 311.50 61.11
  C 311.18 63.91 310.42 79.82 308.71 80.78
  A 0.35 0.34 72.7 0 1 308.20 80.51
  C 307.52 73.12 304.94 67.73 296.25 68.91
  Q 295.77 68.97 296.11 68.64
  C 302.61 62.38 309.69 54.69 306.41 44.83
  A 0.93 0.91 82.1 0 0 305.58 44.19
  Q 295.97 43.63 286.49 45.03
  Q 284.04 45.39 283.59 43.54
  A 0.42 0.41 63.7 0 0 282.93 43.31
  L 279.12 46.30
  Q 278.75 46.60 278.28 46.68
  Q 269.58 48.25 264.36 55.36
  Q 262.10 58.45 265.82 57.57
  L 273.45 55.78
  A 0.60 0.60 0.0 0 1 274.18 56.40
  L 273.16 73.49
  A 1.27 1.27 0.0 0 1 272.63 74.44
  C 269.94 76.34 255.08 85.62 257.25 89.44
  A 0.75 0.74 67.2 0 0 258.10 89.79
  L 266.60 87.44
  A 0.40 0.40 0.0 0 1 267.11 87.82
  Q 267.10 88.01 266.95 88.20
  Q 263.06 93.08 260.95 98.93
  Q 260.79 99.38 260.50 99.00
  Q 255.14 91.89 253.68 83.12
  A 0.69 0.69 0.0 0 1 254.20 82.34
  Q 265.21 79.74 271.67 70.43
  Q 271.95 70.04 271.47 70.01
  Q 270.17 69.94 268.73 70.46
  Q 260.91 73.32 253.26 74.92
  Q 251.24 75.34 251.21 73.29
  L 250.84 49.87
  A 1.57 1.55 -27.6 0 1 251.15 48.91
  Q 252.24 47.42 256.00 43.00
  Q 256.78 42.08 256.05 41.31
  A 0.75 0.72 54.7 0 0 255.19 41.15
  L 250.29 43.50"
/>
<path stroke="#ececec" vector-effect="non-scaling-stroke" d="
  M 338.31 0.00
  Q 335.42 0.46 336.17 3.23
  A 0.79 0.78 -8.3 0 0 336.96 3.81
  L 337.62 3.79
  A 0.54 0.53 86.5 0 0 338.14 3.20
  L 338.01 2.10
  A 0.64 0.63 77.8 0 1 338.44 1.42
  L 339.95 0.91
  A 0.34 0.34 0.0 0 0 340.11 0.39
  L 339.81 0.00"
/>
<path stroke="#ececec" vector-effect="non-scaling-stroke" d="
  M 378.33 246.93
  Q 374.34 238.62 368.54 231.52
  Q 367.64 230.41 362.95 225.97
  C 360.54 223.69 351.83 212.87 353.93 209.19
  Q 354.22 208.70 354.49 209.20
  L 362.88 224.47
  A 0.95 0.95 0.0 0 0 363.90 224.94
  Q 365.02 224.72 365.79 225.74
  Q 366.71 226.94 366.23 225.28
  C 363.71 216.51 357.18 209.37 351.67 200.82
  Q 351.07 199.89 348.87 197.56
  A 1.11 1.10 -65.5 0 1 348.56 196.72
  Q 348.77 193.71 345.96 192.50"
/>
<path stroke="#828282" vector-effect="non-scaling-stroke" d="
  M 345.96 192.50
  L 345.75 191.46"
/>
<path stroke="#ececec" vector-effect="non-scaling-stroke" d="
  M 345.75 191.46
  C 345.98 190.82 346.16 190.20 345.83 189.52
  C 343.15 184.09 341.49 179.47 338.46 178.00"
/>
<path stroke="#828282" vector-effect="non-scaling-stroke" d="
  M 338.46 178.00
  Q 338.45 176.55 339.24 175.40
  A 0.94 0.94 0.0 0 1 340.01 175.00
  L 353.97 175.00
  A 0.57 0.57 0.0 0 1 354.54 175.50
  C 355.93 186.59 356.78 194.94 364.04 204.03
  A 0.66 0.65 -33.7 0 0 364.86 204.19
  Q 370.24 201.20 373.73 196.09
  A 1.23 1.22 43.8 0 0 373.70 194.67
  Q 366.95 185.72 365.54 174.53
  A 0.43 0.43 0.0 0 1 365.97 174.05
  C 371.65 174.13 375.47 169.29 379.72 164.45
  Q 380.22 163.87 379.46 163.91
  L 365.16 164.70
  A 1.05 1.04 88.2 0 1 364.06 163.66
  L 363.86 139.58
  A 0.69 0.68 75.6 0 0 362.85 138.98
  Q 357.62 141.82 354.21 146.69
  Q 353.14 148.21 353.25 150.06
  L 354.05 164.25
  A 0.64 0.63 -4.8 0 1 353.49 164.91
  L 342.54 166.06
  A 0.42 0.41 -82.9 0 1 342.11 165.50
  C 346.94 151.94 354.68 141.75 362.85 130.08
  Q 364.11 128.28 361.92 128.16
  Q 340.63 126.97 318.87 131.30"
/>
<path stroke="#ececec" vector-effect="non-scaling-stroke" d="
  M 318.87 131.30
  Q 318.29 124.90 316.94 118.77
  Q 316.62 117.29 315.73 117.56
  Q 314.92 117.81 315.42 117.13
  Q 317.97 113.69 316.71 111.00"
/>
<path stroke="#828282" vector-effect="non-scaling-stroke" d="
  M 316.71 111.00
  Q 319.74 108.65 321.01 105.01
  A 1.55 1.50 -45.8 0 0 321.01 104.02
  Q 318.03 95.07 319.19 85.62
  A 0.81 0.80 -0.1 0 1 319.89 84.93
  L 326.64 84.03
  A 0.33 0.33 0.0 0 1 327.01 84.42
  Q 325.40 93.55 325.30 102.75
  Q 325.18 113.23 335.01 116.16
  C 343.79 118.77 350.88 117.13 358.12 111.31
  C 373.68 98.79 379.38 84.00 379.22 64.24
  Q 379.12 51.14 367.09 46.62
  C 360.18 44.03 351.05 42.71 345.02 46.53
  C 334.04 53.48 326.47 64.30 319.64 75.57
  Q 319.37 76.01 319.42 75.50
  L 321.35 53.24
  Q 321.44 52.10 320.42 52.61
  Q 315.13 55.21 311.50 61.11"
/>
<path stroke="#828282" vector-effect="non-scaling-stroke" d="
  M 96.87 118.13
  C 93.10 124.26 90.80 130.17 84.33 134.01
  A 0.81 0.81 0.0 0 0 83.97 134.96
  Q 87.00 144.29 87.86 153.99
  C 88.14 157.23 87.88 161.32 88.13 165.00
  Q 88.16 165.43 88.40 165.08
  L 92.54 159.00"
/>
<path stroke="#6e6e6e" vector-effect="non-scaling-stroke" d="
  M 92.54 159.00
  L 95.32 156.89
  A 1.50 1.46 -11.6 0 0 95.86 156.09
  Q 97.26 150.85 96.69 145.99"
/>
<path stroke="#828282" vector-effect="non-scaling-stroke" d="
  M 96.69 145.99
  Q 97.27 140.04 101.54 136.75"
/>
<path stroke="#828282" vector-effect="non-scaling-stroke" d="
  M 157.79 135.25
  Q 168.58 133.89 177.51 136.48
  C 179.47 137.05 183.61 139.99 181.11 142.57
  A 0.26 0.25 -53.6 0 0 181.17 142.97
  C 181.31 143.05 181.79 142.95 181.95 142.82
  C 189.63 136.66 202.70 133.37 212.52 132.51
  A 1.36 1.36 0.0 0 1 214.00 133.86
  Q 214.00 162.87 214.25 191.00
  Q 214.26 191.99 215.03 192.49
  Q 216.74 193.63 215.28 195.08
  L 207.64 202.71
  Q 205.26 205.08 204.70 201.77
  Q 204.11 198.30 204.10 194.74
  Q 204.04 168.75 203.95 142.66
  A 0.61 0.60 -5.8 0 0 203.22 142.07
  L 194.62 143.85
  A 0.77 0.76 -5.5 0 0 194.00 144.60
  Q 193.78 165.20 196.12 185.66
  Q 196.38 187.92 195.12 189.81
  Q 191.78 194.83 186.34 197.26
  A 0.45 0.45 0.0 0 1 185.70 196.84
  Q 185.86 185.95 183.96 175.23
  Q 183.85 174.59 183.39 175.05
  C 174.70 183.87 169.11 190.04 160.50 196.04"
/>
<path stroke="#6e6e6e" vector-effect="non-scaling-stroke" d="
  M 160.50 196.04
  C 154.69 200.17 145.47 201.79 139.80 196.27
  A 0.46 0.46 0.0 0 0 139.13 196.30
  C 137.27 198.51 135.12 200.22 131.97 199.46
  C 122.86 197.28 112.34 186.71 106.99 179.69
  Q 106.13 178.54 106.01 179.97
  Q 105.39 187.71 107.67 195.11
  A 1.19 1.18 53.4 0 1 107.53 196.10
  Q 104.55 200.67 99.83 203.81
  Q 97.17 205.58 96.81 202.41
  C 95.39 189.94 96.00 177.04 95.99 164.49
  A 0.44 0.44 0.0 0 0 95.36 164.10
  L 91.51 165.95"
/>
<path stroke="#6e6e6e" vector-effect="non-scaling-stroke" d="
  M 85.29 121.50
  L 86.46 118.75"
/>
<path stroke="#828282" vector-effect="non-scaling-stroke" d="
  M 86.46 118.75
  Q 89.79 110.57 88.75 101.80
  A 0.72 0.71 2.9 0 0 88.19 101.19
  Q 84.16 100.31 81.71 103.75"
/>
<path stroke="#6e6e6e" vector-effect="non-scaling-stroke" d="
  M 81.71 103.75
  Q 80.67 104.25 79.67 103.95
  A 0.81 0.80 -88.8 0 1 79.12 103.37
  L 78.68 101.73"
/>
<path stroke="#828282" vector-effect="non-scaling-stroke" d="
  M 62.29 54.25
  Q 62.11 75.70 65.96 96.84
  A 0.61 0.61 0.0 0 0 66.74 97.31
  L 75.04 94.75"
/>
<path stroke="#6e6e6e" vector-effect="non-scaling-stroke" d="
  M 75.04 94.75
  L 81.33 93.16
  A 0.70 0.69 85.0 0 0 81.86 92.52
  Q 83.29 56.70 88.23 21.19
  Q 88.56 18.84 86.19 18.92
  Q 74.40 19.29 62.81 20.90
  A 0.62 0.61 86.3 0 0 62.28 21.51
  L 62.29 54.25"
/>
<path stroke="#ececec" vector-effect="non-scaling-stroke" d="
  M 75.04 94.75
  C 75.38 89.33 73.22 82.57 71.87 77.27
  C 71.22 74.72 71.82 72.46 71.51 69.81
  A 0.82 0.81 1.4 0 0 70.83 69.10
  L 69.85 68.94
  A 0.69 0.67 87.3 0 1 69.30 68.43
  L 67.82 62.13
  A 0.49 0.48 -5.8 0 0 67.34 61.75
  L 67.07 61.76
  A 0.77 0.76 77.0 0 1 66.36 61.31
  C 65.38 59.20 65.39 54.41 62.29 54.25"
/>
<path stroke="#828282" vector-effect="non-scaling-stroke" d="
  M 164.75 188.04
  C 179.55 179.42 183.92 166.76 184.24 150.15
  A 1.59 1.50 -30.0 0 1 184.47 149.38
  L 186.07 146.88
  Q 186.73 145.86 185.60 146.31
  L 178.80 149.03
  Q 177.39 149.59 178.14 148.27
  L 179.73 145.45
  Q 180.45 144.17 179.38 145.17
  L 173.71 150.46
  A 0.97 0.97 0.0 0 1 172.13 150.05
  C 170.81 145.94 162.26 145.00 158.79 145.00"
/>
<path stroke="#6e6e6e" vector-effect="non-scaling-stroke" d="
  M 158.79 145.00
  Q 154.01 144.29 149.25 145.39
  A 1.09 1.06 5.8 0 0 148.54 145.95
  C 145.06 152.81 144.71 163.92 145.25 171.21
  A 0.91 0.90 -80.2 0 0 145.78 171.97
  L 146.26 172.19
  A 0.89 0.88 -77.2 0 1 146.78 173.03
  C 146.63 176.55 146.13 182.41 148.54 185.26
  Q 154.99 192.89 164.75 188.04"
/>
<path stroke="#ececec" vector-effect="non-scaling-stroke" d="
  M 158.79 145.00
  C 158.72 148.63 160.52 151.64 161.90 154.88
  C 164.01 159.88 163.70 163.63 163.35 168.93
  Q 162.89 175.82 163.60 187.33
  A 0.77 0.75 -83.9 0 0 164.13 188.00
  Q 164.46 188.10 164.75 188.04"
/>
<path stroke="#828282" vector-effect="non-scaling-stroke" d="
  M 59.58 175.86
  Q 58.35 180.89 59.22 186.52
  C 59.85 190.56 62.00 189.94 65.65 190.03
  Q 71.69 190.17 77.50 187.84
  A 0.76 0.75 -10.9 0 0 77.98 187.14
  L 78.01 166.57
  A 0.43 0.43 0.0 0 0 77.41 166.17
  C 72.18 168.39 66.22 170.56 61.36 173.46
  Q 59.97 174.29 59.58 175.86"
/>
<path stroke="#ececec" vector-effect="non-scaling-stroke" d="
  M 70.01 52.05
  C 71.33 54.57 73.73 56.95 75.21 60.55
  Q 75.54 61.35 74.69 61.19
  L 73.86 61.03
  A 0.45 0.45 0.0 0 0 73.33 61.56
  Q 73.62 62.87 73.49 64.24
  Q 73.32 65.94 72.43 64.48
  Q 72.04 63.85 71.37 63.49
  Q 70.24 62.90 70.66 64.10
  L 72.29 68.76
  Q 72.46 69.25 72.52 69.76
  Q 72.64 71.01 73.59 71.80
  A 0.55 0.54 -60.0 0 0 74.44 71.57
  L 75.11 69.84
  Q 75.34 69.23 75.73 69.75
  L 77.18 71.71
  Q 77.78 72.52 78.10 71.57
  C 80.10 65.70 79.90 63.81 77.11 58.32
  C 75.75 55.64 72.80 53.82 70.79 51.34
  A 0.29 0.28 -34.6 0 0 70.43 51.28
  L 70.19 51.43
  A 0.47 0.46 -29.4 0 0 70.01 52.05"
/>
<path stroke="#6e6e6e" vector-effect="non-scaling-stroke" d="
  M 316.71 111.00
  L 312.63 114.52
  Q 310.31 116.53 309.62 113.54
  C 308.88 110.38 309.33 107.31 308.17 104.37
  Q 306.46 100.04 304.69 95.70
  Q 304.50 95.24 304.20 95.64
  C 297.28 104.95 288.85 112.60 276.71 113.15
  C 268.44 113.53 263.46 115.01 261.02 105.38
  Q 260.63 103.83 259.50 104.97
  L 255.05 109.44
  Q 253.52 110.98 251.93 109.52
  C 247.00 105.01 245.62 99.40 243.39 93.22"
/>
<path stroke="#828282" vector-effect="non-scaling-stroke" d="
  M 243.39 93.22
  L 241.86 86.25
  A 0.49 0.48 79.7 0 0 241.32 85.87
  L 222.52 88.34
  A 0.68 0.67 -6.3 0 0 221.94 89.06
  L 222.03 90.32
  A 0.73 0.72 -1.7 0 0 222.75 90.99
  L 228.52 91.03
  A 0.57 0.56 -76.6 0 1 229.02 91.85
  L 227.16 95.60
  A 0.28 0.28 0.0 0 0 227.40 96.01
  L 227.68 96.01
  A 1.14 1.11 -62.8 0 0 228.40 95.77
  L 235.47 90.17
  Q 236.86 89.07 236.16 90.70
  C 233.93 95.84 227.46 100.82 222.93 103.92
  Q 219.42 106.32 214.20 105.89
  Q 212.39 105.74 212.13 103.94
  L 211.70 100.94
  A 0.82 0.81 0.5 0 0 211.01 100.24
  Q 201.97 98.87 194.63 93.40
  A 0.33 0.18 43.8 0 0 194.35 93.32
  L 194.11 93.43
  A 0.07 0.07 0.0 0 0 194.08 93.52
  C 196.99 98.57 201.20 104.42 207.38 104.32
  Q 210.28 104.27 208.33 106.42
  C 203.05 112.25 196.91 118.22 189.49 110.19
  Q 180.27 100.21 181.91 86.43
  C 182.15 84.44 181.81 82.54 181.43 80.71
  Q 181.10 79.20 180.29 80.52
  L 167.08 101.97
  A 0.71 0.71 0.0 0 0 167.21 102.87
  C 167.57 103.20 170.73 102.00 171.70 102.01
  Q 172.49 102.01 172.07 102.69
  Q 167.35 110.30 159.00 113.04"
/>
<path stroke="#828282" vector-effect="non-scaling-stroke" d="
  M 156.71 110.75
  L 162.15 101.83
  A 0.44 0.43 28.4 0 0 161.96 101.21
  Q 161.73 101.11 161.49 101.23
  Q 157.88 103.18 154.50 104.04"
/>
<path stroke="#6e6e6e" vector-effect="non-scaling-stroke" d="
  M 139.62 53.89
  L 124.06 58.42
  A 1.44 1.43 82.1 0 0 123.03 59.79
  L 122.99 67.24
  A 0.83 0.82 83.0 0 0 124.02 68.05
  L 143.00 63.29"
/>
<path stroke="#6e6e6e" vector-effect="non-scaling-stroke" d="
  M 145.44 75.12
  Q 145.10 75.89 144.47 75.88
  A 0.45 0.44 4.9 0 1 144.03 75.36
  C 144.54 72.42 142.93 72.08 140.53 72.41
  Q 132.53 73.50 124.41 75.42
  A 1.95 1.95 0.0 0 0 122.92 77.35
  L 123.26 95.25
  A 0.66 0.66 0.0 0 0 123.90 95.90
  Q 139.28 96.43 154.50 95.04"
/>
<path stroke="#6e6e6e" vector-effect="non-scaling-stroke" d="
  M 288.19 69.49
  L 289.11 69.60
  A 1.78 1.75 -54.4 0 0 290.14 69.42
  Q 298.51 65.27 296.96 55.79
  Q 296.68 54.03 294.90 54.03
  L 284.67 53.99
  A 0.64 0.63 1.4 0 0 284.03 54.59
  L 283.18 70.20
  Q 283.10 71.77 284.50 71.06
  L 287.28 69.65
  A 1.57 1.57 0.0 0 1 288.19 69.49"
/>
<path stroke="#828282" vector-effect="non-scaling-stroke" d="
  M 346.79 75.23
  Q 343.11 81.01 336.71 83.35
  A 1.05 1.04 83.5 0 0 336.04 84.20
  Q 335.38 89.33 335.23 92.98
  C 334.74 105.03 344.83 108.17 354.80 107.14
  C 367.72 105.80 369.71 81.31 369.28 71.66
  C 368.72 59.32 356.07 54.36 345.47 54.04
  A 1.60 1.59 -77.3 0 0 343.95 55.01
  Q 340.20 63.74 337.85 72.95
  A 0.42 0.42 0.0 0 0 338.29 73.48
  L 345.42 72.94
  Q 348.40 72.71 346.79 75.23"
/>
<path stroke="#828282" vector-effect="non-scaling-stroke" d="
  M 238.76 57.71
  Q 231.57 66.96 226.25 77.48
  A 0.31 0.31 0.0 0 0 226.51 77.93
  Q 233.26 78.35 239.97 77.39
  A 1.07 1.07 0.0 0 0 240.89 76.31
  L 240.60 58.32
  Q 240.55 55.40 238.76 57.71"
/>
<path stroke="#828282" vector-effect="non-scaling-stroke" d="
  M 335.94 57.94
  C 331.70 63.87 328.36 69.95 323.76 75.56
  Q 323.17 76.28 324.08 76.09
  L 329.08 75.06
  A 0.86 0.85 -87.1 0 0 329.73 74.47
  Q 332.48 65.81 336.63 57.72
  Q 336.87 57.23 336.34 57.34
  Q 335.94 57.43 335.94 57.94"
/>
<path stroke="#6e6e6e" vector-effect="non-scaling-stroke" d="
  M 288.22 101.75
  L 288.24 102.20
  A 0.61 0.61 0.0 0 0 288.85 102.77
  C 296.18 102.74 298.66 98.06 298.30 91.46
  C 297.77 81.92 294.57 76.54 283.90 79.29
  A 0.80 0.80 0.0 0 0 283.32 79.92
  C 282.17 86.73 282.30 96.26 288.00 101.32
  A 0.63 0.63 0.0 0 1 288.22 101.75"
/>
<path stroke="#6e6e6e" vector-effect="non-scaling-stroke" d="
  M 272.1949 100.8600
  A 7.20 0.91 90.2 0 0 273.1300 93.6632
  A 7.20 0.91 90.2 0 0 272.2451 86.4600
  A 7.20 0.91 90.2 0 0 271.3100 93.6568
  A 7.20 0.91 90.2 0 0 272.1949 100.8600"
/>
<path stroke="#ececec" vector-effect="non-scaling-stroke" d="
  M 243.39 93.22
  Q 242.35 100.45 244.03 108.49
  Q 244.65 111.47 245.92 113.06
  Q 245.99 113.15 245.99 113.08
  Q 245.82 111.60 245.24 110.31
  A 0.73 0.72 -30.3 0 1 245.48 109.42
  C 247.22 108.16 249.52 114.36 249.53 114.50
  Q 250.77 124.89 252.06 135.22"
/>
<path stroke="#828282" vector-effect="non-scaling-stroke" d="
  M 252.06 135.22
  C 241.32 136.89 227.62 138.68 220.64 148.11
  Q 220.02 148.95 220.03 150.05
  A 0.41 0.41 0.0 0 0 220.55 150.44
  L 222.12 149.98
  A 0.39 0.39 0.0 0 1 222.62 150.42
  C 221.07 159.61 221.95 172.09 222.01 186.71
  A 1.39 1.38 63.8 0 1 221.71 187.60
  C 220.49 189.19 218.06 190.93 217.99 192.97
  A 0.78 0.77 -87.8 0 0 218.73 193.78
  L 221.31 193.91
  A 0.72 0.71 1.3 0 1 222.00 194.62
  L 222.00 200.42
  Q 222.00 201.17 222.58 200.69
  L 230.18 194.43
  A 1.36 1.34 -65.8 0 1 230.98 194.12
  C 236.98 193.87 248.39 194.14 252.91 189.67
  C 253.79 188.79 259.22 183.57 259.04 182.71
  A 0.54 0.54 0.0 0 0 258.41 182.29
  Q 245.59 184.67 232.54 183.88
  A 0.58 0.57 -88.4 0 1 232.00 183.30
  L 232.00 164.57
  A 1.73 1.72 -1.8 0 1 233.62 162.85
  Q 239.40 162.52 244.88 162.00
  C 248.91 161.61 252.21 158.30 254.75 155.46"
/>
<path stroke="#ececec" vector-effect="non-scaling-stroke" d="
  M 254.75 155.46
  L 257.85 156.35
  A 0.58 0.57 15.9 0 1 258.25 157.05
  L 256.81 162.26
  A 0.73 0.73 0.0 0 0 257.37 163.18
  L 260.12 163.70
  A 1.09 1.06 -12.0 0 1 260.80 164.13
  Q 263.06 167.27 263.54 171.00"
/>
<path stroke="#828282" vector-effect="non-scaling-stroke" d="
  M 263.54 171.00
  C 261.87 178.06 263.60 187.37 270.33 191.50
  A 0.90 0.86 17.3 0 1 270.75 192.26
  C 270.46 208.59 269.87 224.98 271.13 241.27
  A 0.89 0.88 -16.9 0 0 272.45 241.97
  Q 276.97 239.41 279.93 235.10
  Q 281.24 233.19 281.11 230.87
  Q 280.46 219.52 280.97 208.11"
/>
<path stroke="#ececec" vector-effect="non-scaling-stroke" d="
  M 280.97 208.11
  Q 288.02 217.78 294.20 228.01
  Q 294.48 228.47 293.95 228.38
  C 292.51 228.11 289.86 224.65 288.24 223.72
  A 0.43 0.42 -65.2 0 0 287.62 223.95
  C 286.84 226.31 290.99 227.08 290.14 229.12
  Q 289.48 230.68 288.59 229.24
  L 283.59 221.18
  A 0.59 0.55 45.6 0 0 282.62 221.14
  C 282.06 222.04 286.00 229.29 286.65 230.59
  Q 287.49 232.29 287.60 234.59
  Q 287.90 240.88 291.41 246.26
  A 1.00 0.99 75.9 0 0 292.13 246.70
  L 294.69 247.00"
/>
<path stroke="#ececec" vector-effect="non-scaling-stroke" d="
  M 147.44 247.00
  C 147.77 246.57 148.12 246.37 148.30 245.83
  C 152.13 234.39 155.36 222.43 156.93 210.46
  Q 157.62 205.20 160.76 200.03
  Q 161.95 198.08 160.50 196.04"
/>
<path stroke="#6e6e6e" vector-effect="non-scaling-stroke" d="
  M 318.87 131.30
  L 305.16 134.87
  A 0.82 0.80 61.6 0 1 304.36 134.62
  C 298.75 128.28 289.15 131.14 281.70 133.90
  A 0.46 0.45 72.1 0 1 281.10 133.59
  L 280.53 131.43
  A 0.49 0.49 0.0 0 0 279.83 131.13
  C 275.62 133.33 259.01 151.36 260.27 152.91
  A 0.62 0.61 53.8 0 0 261.08 153.04
  Q 266.15 149.77 270.08 145.20
  Q 270.50 144.71 270.58 145.35
  C 271.07 149.48 272.06 157.39 269.69 160.99
  C 267.43 164.41 265.40 166.49 263.54 171.00"
/>
<path stroke="#6e6e6e" vector-effect="non-scaling-stroke" d="
  M 254.75 155.46
  L 256.71 152.66
  A 0.33 0.33 0.0 0 0 256.51 152.14
  L 255.75 151.96"
/>
<path stroke="#ececec" vector-effect="non-scaling-stroke" d="
  M 255.75 151.96
  C 258.86 151.98 256.92 147.00 256.39 145.33
  A 0.51 0.50 -28.2 0 0 255.59 145.09
  L 255.34 145.31
  A 0.97 0.94 -22.5 0 0 254.99 146.12
  L 255.21 149.74
  Q 255.31 151.41 254.50 149.94
  Q 252.91 147.08 252.61 144.19"
/>
<path stroke="#6e6e6e" vector-effect="non-scaling-stroke" d="
  M 252.61 144.19
  Q 261.78 143.08 265.84 134.45
  Q 266.10 133.89 265.49 133.95
  L 252.06 135.22"
/>
<path stroke="#ececec" vector-effect="non-scaling-stroke" d="
  M 86.46 118.75
  L 85.94 118.75
  A 0.68 0.68 0.0 0 1 85.29 118.28
  Q 84.49 115.88 84.46 113.37
  C 84.43 111.01 83.89 109.20 83.55 107.02
  A 0.93 0.90 -82.9 0 0 83.03 106.33
  Q 81.55 105.66 81.71 103.75"
/>
<path stroke="#ececec" vector-effect="non-scaling-stroke" d="
  M 96.69 145.99
  Q 92.23 143.01 91.70 137.24
  A 0.51 0.50 2.2 0 0 91.27 136.78
  L 91.01 136.75
  A 0.39 0.38 5.5 0 0 90.57 137.11
  Q 90.01 148.20 92.54 159.00"
/>
<path stroke="#6e6e6e" vector-effect="non-scaling-stroke" d="
  M 338.46 178.00
  C 337.18 182.35 334.77 193.01 340.48 193.95
  A 1.46 1.44 -54.3 0 0 341.41 193.79
  L 345.75 191.46"
/>
<path stroke="#6e6e6e" vector-effect="non-scaling-stroke" d="
  M 345.96 192.50
  C 343.29 196.29 334.79 206.02 329.55 203.42
  Q 326.49 201.90 326.70 198.47
  Q 327.34 187.77 330.96 176.68
  A 0.52 0.52 0.0 0 0 330.47 176.00
  L 323.43 176.00
  A 0.73 0.73 0.0 0 0 322.71 176.60
  Q 321.32 183.93 323.67 190.92
  A 1.23 1.21 -37.9 0 1 323.53 191.98
  Q 320.07 197.29 314.69 200.64
  A 0.73 0.73 0.0 0 1 313.66 200.37
  C 312.69 198.64 312.12 196.60 312.15 194.47
  Q 312.55 171.81 315.00 147.58
  Q 315.26 144.98 312.65 144.99
  L 308.80 145.00
  A 0.57 0.57 0.0 0 0 308.24 145.66
  C 309.72 154.54 310.01 164.62 306.15 172.69
  C 302.11 181.14 292.51 191.36 282.30 191.21
  A 1.49 1.49 0.0 0 0 280.79 192.72
  L 280.97 208.11"
/>
<path stroke="#6e6e6e" vector-effect="non-scaling-stroke" d="
  M 324.00 153.46
  Q 322.83 161.87 323.06 170.49
  Q 323.08 170.99 323.46 170.68
  C 326.45 168.23 328.51 165.92 332.62 165.90"
/>
<path stroke="#828282" vector-effect="non-scaling-stroke" d="
  M 332.62 165.90
  Q 334.82 166.65 335.67 164.98
  C 340.59 155.42 346.36 147.49 352.23 138.57
  Q 352.55 138.09 351.97 138.07
  Q 338.94 137.66 325.97 138.69
  A 0.84 0.82 -0.0 0 0 325.21 139.44
  L 324.00 153.46"
/>
<path stroke="#ececec" vector-effect="non-scaling-stroke" d="
  M 332.62 165.90
  Q 331.37 162.56 329.58 159.45
  C 328.61 157.78 327.98 155.32 326.40 153.62
  A 1.01 1.00 65.3 0 0 325.57 153.31
  L 324.00 153.46"
/>
<path stroke="#6e6e6e" vector-effect="non-scaling-stroke" d="
  M 281.04 141.76
  L 280.98 150.44
  Q 280.98 150.91 281.37 150.66
  L 292.77 143.34
  A 0.53 0.53 0.0 0 0 292.83 142.48
  C 290.38 140.45 284.56 140.82 281.65 141.10
  A 0.68 0.67 -2.4 0 0 281.04 141.76"
/>
<path stroke="#6e6e6e" vector-effect="non-scaling-stroke" d="
  M 281.03 155.74
  L 280.99 181.46
  A 0.67 0.67 0.0 0 0 281.71 182.14
  L 293.69 181.25
  Q 297.12 181.00 297.83 177.64
  Q 300.91 163.05 296.81 148.65
  A 0.61 0.60 70.0 0 0 295.98 148.26
  L 281.64 154.79
  A 1.05 1.04 -12.4 0 0 281.03 155.74"
/>
<path stroke="#828282" vector-effect="non-scaling-stroke" d="
  M 252.61 144.19
  Q 242.30 144.66 232.48 147.26
  A 0.67 0.67 0.0 0 0 231.98 147.91
  L 232.04 156.23
  Q 232.05 156.92 232.59 156.48
  C 234.39 155.02 235.50 153.89 237.94 153.53
  Q 246.81 152.22 255.75 151.96"
/>
<path stroke="#ececec" vector-effect="non-scaling-stroke" d="
  M 159.48 167.48
  L 158.62 174.41
  A 0.74 0.74 0.0 0 0 159.17 175.22
  C 159.61 175.34 159.99 175.04 160.13 174.59
  Q 161.33 170.90 159.90 167.42
  Q 159.58 166.64 159.48 167.48"
/>
<path stroke="#ececec" vector-effect="non-scaling-stroke" d="
  M 376.69 247.00
  Q 371.74 245.45 366.69 247.00"
/>
</g>
<path fill="#ffffff" d="
  M 0.00 0.00
  L 31.31 0.00
  L 21.28 0.40
  Q 20.86 0.42 21.25 0.57
  C 24.91 2.04 29.51 1.41 33.04 2.08
  A 1.59 1.56 -16.5 0 1 33.89 2.53
  Q 42.38 11.15 50.01 20.60
  Q 48.51 22.04 49.13 23.35
  A 0.58 0.58 0.0 0 0 49.85 23.66
  L 51.05 23.25
  A 0.59 0.59 0.0 0 1 51.83 23.79
  C 52.59 49.51 51.28 74.93 54.91 100.53
  A 0.75 0.74 -18.8 0 1 54.54 101.28
  C 53.00 102.16 51.16 102.08 49.75 102.89
  Q 44.35 105.98 42.35 109.57
  Q 40.26 113.31 44.30 111.90
  Q 61.35 105.96 78.68 101.73
  C 78.70 103.80 78.33 104.86 78.82 106.76
  Q 80.41 112.85 81.89 118.91
  Q 82.71 122.27 85.29 121.50
  L 82.14 130.92
  A 0.68 0.67 10.3 0 1 81.47 131.38
  C 73.57 131.12 65.61 137.61 59.76 142.76
  C 57.28 144.95 45.95 157.77 47.44 161.01
  A 1.11 1.10 55.8 0 0 49.20 161.35
  C 51.91 158.78 55.77 155.65 57.10 152.43
  C 59.99 145.45 63.63 142.15 71.29 141.21
  A 0.87 0.84 -20.6 0 1 72.09 141.56
  C 75.27 146.06 76.78 154.49 77.19 159.19
  A 0.72 0.70 76.2 0 1 76.77 159.90
  C 67.92 163.85 50.47 175.26 49.07 185.81
  Q 48.26 191.96 49.51 197.07
  Q 50.18 199.81 52.99 199.97
  Q 72.11 201.12 84.30 187.00
  C 89.22 181.29 87.99 174.88 88.00 168.28
  A 1.05 1.03 71.7 0 1 88.41 167.45
  Q 89.78 166.36 91.51 165.95
  Q 92.63 173.82 92.11 182.18
  Q 92.04 183.37 91.50 184.43
  Q 89.35 188.70 86.78 191.31
  Q 85.04 193.09 84.36 194.66
  C 79.76 205.46 77.84 216.86 75.14 227.97
  C 74.20 231.81 72.21 238.03 68.44 239.60
  Q 67.65 239.94 67.97 239.14
  L 68.82 237.06
  Q 70.20 233.67 68.33 236.82
  L 62.91 245.89
  A 0.42 0.42 0.0 0 0 63.24 246.52
  L 69.44 247.00
  L 0.00 247.00
  L 0.00 0.00
  Z"
/>
<path fill="#d8d8d8" d="
  M 31.31 0.00
  L 120.56 0.00
  Q 124.93 0.42 126.57 2.72
  Q 132.17 10.60 137.17 24.10
  C 138.33 27.24 139.72 29.65 139.82 33.36
  A 1.06 1.04 19.0 0 0 140.22 34.16
  C 144.90 37.78 141.49 40.94 143.79 45.00
  C 131.83 48.81 107.45 54.80 101.29 66.68
  Q 100.67 67.87 101.90 67.33
  L 112.98 62.37
  A 0.29 0.29 0.0 0 1 113.39 62.65
  L 112.68 73.87
  Q 112.65 74.35 112.43 74.79
  L 110.83 77.87
  A 0.61 0.61 0.0 0 0 111.24 78.75
  L 112.22 78.96
  A 0.79 0.78 -84.5 0 1 112.84 79.72
  L 113.05 97.72
  A 0.96 0.95 -17.1 0 1 112.61 98.54
  Q 108.84 101.05 107.00 105.27
  A 0.39 0.39 0.0 0 0 107.34 105.82
  Q 131.05 106.78 154.50 104.04
  Q 156.11 106.26 155.50 109.50
  Q 155.28 110.68 156.71 110.75
  L 156.61 111.73
  A 0.87 0.84 -70.5 0 0 156.97 112.52
  Q 157.86 113.13 159.00 113.04
  L 159.09 114.01
  A 1.49 1.47 57.8 0 1 158.89 114.92
  Q 157.45 117.32 157.60 119.00
  Q 158.33 127.13 157.79 135.25
  C 149.49 137.56 142.73 144.83 139.21 152.22
  C 134.79 161.48 134.53 173.89 135.14 184.74
  Q 135.18 185.58 134.45 186.03
  A 0.79 0.78 47.9 0 1 133.54 185.98
  Q 118.30 174.00 107.93 157.55
  A 0.59 0.58 57.4 0 1 108.10 156.75
  Q 127.59 144.18 131.67 141.16
  C 137.02 137.19 142.51 133.01 143.96 129.25
  Q 144.43 128.02 143.31 128.71
  C 138.55 131.62 133.75 135.57 129.71 138.20
  Q 118.28 145.64 107.04 152.27
  Q 105.75 153.03 105.96 151.54
  Q 107.23 142.79 106.99 133.94
  Q 106.97 133.32 106.45 133.65
  L 101.54 136.75
  Q 100.32 127.20 96.87 118.13
  L 99.76 112.18
  Q 100.28 111.12 99.18 111.52
  Q 97.14 112.27 95.60 113.77
  Q 94.49 114.86 95.18 113.47
  Q 100.24 103.25 98.72 91.81
  A 0.69 0.68 -2.4 0 0 98.06 91.21
  L 92.07 90.94
  A 0.60 0.59 2.9 0 1 91.50 90.32
  Q 93.22 50.54 98.46 11.05
  Q 98.75 8.89 96.56 8.93
  Q 79.35 9.29 62.51 12.44
  A 0.44 0.43 85.0 0 1 62.00 12.01
  L 62.01 9.77
  A 0.37 0.37 0.0 0 0 61.47 9.44
  C 56.81 11.82 53.06 16.66 50.01 20.60
  Q 42.38 11.15 33.89 2.53
  A 1.59 1.56 -16.5 0 0 33.04 2.08
  C 29.51 1.41 24.91 2.04 21.25 0.57
  Q 20.86 0.42 21.28 0.40
  L 31.31 0.00
  Z
  M 116.74 6.64
  C 116.42 7.48 120.94 15.99 121.73 16.87
  Q 122.15 17.33 121.99 16.73
  Q 120.54 11.26 117.34 6.57
  Q 116.97 6.03 116.74 6.64
  Z"
/>
<path fill="#ffffff" d="
  M 120.56 0.00
  L 264.06 0.00
  L 262.47 0.39
  A 1.21 1.16 7.6 0 0 261.73 0.93
  C 256.75 9.28 255.01 17.95 254.10 27.58
  C 253.59 32.96 251.87 36.83 249.73 41.50
  A 1.06 1.02 -46.7 0 0 249.74 42.38
  L 250.29 43.50
  C 234.44 55.54 223.41 71.05 214.70 88.74
  A 0.53 0.53 0.0 0 1 214.02 89.00
  Q 202.79 84.33 194.66 75.42
  C 190.57 70.94 190.61 63.80 194.02 58.99
  C 200.39 50.01 206.84 40.82 215.57 33.57
  Q 217.84 31.69 219.47 28.48
  Q 219.71 28.01 219.20 28.14
  C 211.00 30.25 198.15 47.53 193.21 54.23
  Q 192.21 55.60 192.27 53.90
  L 193.20 29.64
  A 0.59 0.59 0.0 0 0 192.37 29.08
  C 179.99 34.57 183.37 47.21 182.77 58.01
  Q 182.70 59.25 182.08 58.17
  C 179.37 53.46 175.45 46.68 170.67 43.90
  A 0.69 0.69 0.0 0 0 169.89 43.96
  Q 165.45 47.43 162.02 51.92
  A 0.80 0.80 0.0 0 0 162.02 52.88
  Q 170.22 63.92 177.49 75.61
  A 1.40 1.39 -45.3 0 1 177.49 77.10
  L 167.95 92.27
  A 1.54 1.49 5.4 0 1 167.15 92.91
  Q 160.96 95.06 154.50 95.04
  L 154.22 95.00
  A 0.30 0.29 -87.6 0 1 153.98 94.73
  Q 153.03 83.60 145.44 75.12
  C 148.00 73.02 155.78 66.86 153.56 63.06
  A 0.85 0.84 -16.6 0 0 152.78 62.64
  L 143.00 63.29
  Q 141.85 58.37 139.62 53.89
  L 150.26 51.28
  Q 151.00 51.10 150.71 51.80
  L 150.24 52.93
  A 0.62 0.62 0.0 0 0 150.59 53.75
  C 152.36 54.43 160.41 44.34 161.32 43.00
  Q 162.60 41.08 160.32 41.42
  Q 151.91 42.69 143.79 45.00
  C 141.49 40.94 144.90 37.78 140.22 34.16
  A 1.06 1.04 19.0 0 1 139.82 33.36
  C 139.72 29.65 138.33 27.24 137.17 24.10
  Q 132.17 10.60 126.57 2.72
  Q 124.93 0.42 120.56 0.00
  Z"
/>
<path fill="#d8d8d8" d="
  M 264.06 0.00
  L 330.81 0.00
  L 334.60 0.72
  A 0.28 0.28 0.0 0 1 334.77 1.17
  Q 328.66 8.84 328.76 18.47
  Q 328.76 18.83 329.00 18.94
  A 0.53 0.53 0.0 0 0 329.73 18.63
  L 330.08 17.57
  A 0.54 0.54 0.0 0 1 330.93 17.32
  L 331.33 17.64
  A 0.51 0.50 31.1 0 0 332.11 17.45
  C 334.05 12.86 334.52 9.72 337.94 5.84
  Q 338.27 5.47 338.09 5.93
  C 334.07 15.83 333.59 27.34 326.30 34.88
  A 0.54 0.54 0.0 0 1 325.43 34.75
  L 325.02 33.97
  A 0.83 0.83 0.0 0 1 325.17 33.00
  C 327.04 31.12 326.65 29.03 327.16 27.17
  Q 328.08 23.82 329.08 20.48
  A 0.12 0.11 19.1 0 0 329.00 20.33
  L 328.70 20.24
  A 0.30 0.29 18.1 0 0 328.33 20.42
  Q 326.04 26.98 323.80 33.56
  C 322.47 37.47 318.42 40.06 315.05 42.05
  Q 314.41 42.44 313.71 43.69
  A 1.49 1.49 0.0 0 1 313.04 44.33
  Q 311.96 44.83 312.12 46.02
  Q 312.21 46.69 312.66 46.19
  Q 313.85 44.88 315.11 46.32
  A 0.91 0.89 32.2 0 1 315.31 47.16
  Q 314.46 50.41 311.27 54.76
  Q 308.84 58.06 311.50 61.11
  C 311.18 63.91 310.42 79.82 308.71 80.78
  A 0.35 0.34 72.7 0 1 308.20 80.51
  C 307.52 73.12 304.94 67.73 296.25 68.91
  Q 295.77 68.97 296.11 68.64
  C 302.61 62.38 309.69 54.69 306.41 44.83
  A 0.93 0.91 82.1 0 0 305.58 44.19
  Q 295.97 43.63 286.49 45.03
  Q 284.04 45.39 283.59 43.54
  A 0.42 0.41 63.7 0 0 282.93 43.31
  L 279.12 46.30
  Q 278.75 46.60 278.28 46.68
  Q 269.58 48.25 264.36 55.36
  Q 262.10 58.45 265.82 57.57
  L 273.45 55.78
  A 0.60 0.60 0.0 0 1 274.18 56.40
  L 273.16 73.49
  A 1.27 1.27 0.0 0 1 272.63 74.44
  C 269.94 76.34 255.08 85.62 257.25 89.44
  A 0.75 0.74 67.2 0 0 258.10 89.79
  L 266.60 87.44
  A 0.40 0.40 0.0 0 1 267.11 87.82
  Q 267.10 88.01 266.95 88.20
  Q 263.06 93.08 260.95 98.93
  Q 260.79 99.38 260.50 99.00
  Q 255.14 91.89 253.68 83.12
  A 0.69 0.69 0.0 0 1 254.20 82.34
  Q 265.21 79.74 271.67 70.43
  Q 271.95 70.04 271.47 70.01
  Q 270.17 69.94 268.73 70.46
  Q 260.91 73.32 253.26 74.92
  Q 251.24 75.34 251.21 73.29
  L 250.84 49.87
  A 1.57 1.55 -27.6 0 1 251.15 48.91
  Q 252.24 47.42 256.00 43.00
  Q 256.78 42.08 256.05 41.31
  A 0.75 0.72 54.7 0 0 255.19 41.15
  L 250.29 43.50
  L 249.74 42.38
  A 1.06 1.02 -46.7 0 1 249.73 41.50
  C 251.87 36.83 253.59 32.96 254.10 27.58
  C 255.01 17.95 256.75 9.28 261.73 0.93
  A 1.21 1.16 7.6 0 1 262.47 0.39
  L 264.06 0.00
  Z"
/>
<path fill="#ffffff" d="
  M 330.81 0.00
  L 338.31 0.00
  Q 335.42 0.46 336.17 3.23
  A 0.79 0.78 -8.3 0 0 336.96 3.81
  L 337.62 3.79
  A 0.54 0.53 86.5 0 0 338.14 3.20
  L 338.01 2.10
  A 0.64 0.63 77.8 0 1 338.44 1.42
  L 339.95 0.91
  A 0.34 0.34 0.0 0 0 340.11 0.39
  L 339.81 0.00
  L 450.00 0.00
  L 450.00 247.00
  L 378.33 246.93
  Q 374.34 238.62 368.54 231.52
  Q 367.64 230.41 362.95 225.97
  C 360.54 223.69 351.83 212.87 353.93 209.19
  Q 354.22 208.70 354.49 209.20
  L 362.88 224.47
  A 0.95 0.95 0.0 0 0 363.90 224.94
  Q 365.02 224.72 365.79 225.74
  Q 366.71 226.94 366.23 225.28
  C 363.71 216.51 357.18 209.37 351.67 200.82
  Q 351.07 199.89 348.87 197.56
  A 1.11 1.10 -65.5 0 1 348.56 196.72
  Q 348.77 193.71 345.96 192.50
  L 345.75 191.46
  C 345.98 190.82 346.16 190.20 345.83 189.52
  C 343.15 184.09 341.49 179.47 338.46 178.00
  Q 338.45 176.55 339.24 175.40
  A 0.94 0.94 0.0 0 1 340.01 175.00
  L 353.97 175.00
  A 0.57 0.57 0.0 0 1 354.54 175.50
  C 355.93 186.59 356.78 194.94 364.04 204.03
  A 0.66 0.65 -33.7 0 0 364.86 204.19
  Q 370.24 201.20 373.73 196.09
  A 1.23 1.22 43.8 0 0 373.70 194.67
  Q 366.95 185.72 365.54 174.53
  A 0.43 0.43 0.0 0 1 365.97 174.05
  C 371.65 174.13 375.47 169.29 379.72 164.45
  Q 380.22 163.87 379.46 163.91
  L 365.16 164.70
  A 1.05 1.04 88.2 0 1 364.06 163.66
  L 363.86 139.58
  A 0.69 0.68 75.6 0 0 362.85 138.98
  Q 357.62 141.82 354.21 146.69
  Q 353.14 148.21 353.25 150.06
  L 354.05 164.25
  A 0.64 0.63 -4.8 0 1 353.49 164.91
  L 342.54 166.06
  A 0.42 0.41 -82.9 0 1 342.11 165.50
  C 346.94 151.94 354.68 141.75 362.85 130.08
  Q 364.11 128.28 361.92 128.16
  Q 340.63 126.97 318.87 131.30
  Q 318.29 124.90 316.94 118.77
  Q 316.62 117.29 315.73 117.56
  Q 314.92 117.81 315.42 117.13
  Q 317.97 113.69 316.71 111.00
  Q 319.74 108.65 321.01 105.01
  A 1.55 1.50 -45.8 0 0 321.01 104.02
  Q 318.03 95.07 319.19 85.62
  A 0.81 0.80 -0.1 0 1 319.89 84.93
  L 326.64 84.03
  A 0.33 0.33 0.0 0 1 327.01 84.42
  Q 325.40 93.55 325.30 102.75
  Q 325.18 113.23 335.01 116.16
  C 343.79 118.77 350.88 117.13 358.12 111.31
  C 373.68 98.79 379.38 84.00 379.22 64.24
  Q 379.12 51.14 367.09 46.62
  C 360.18 44.03 351.05 42.71 345.02 46.53
  C 334.04 53.48 326.47 64.30 319.64 75.57
  Q 319.37 76.01 319.42 75.50
  L 321.35 53.24
  Q 321.44 52.10 320.42 52.61
  Q 315.13 55.21 311.50 61.11
  Q 308.84 58.06 311.27 54.76
  Q 314.46 50.41 315.31 47.16
  A 0.91 0.89 32.2 0 0 315.11 46.32
  Q 313.85 44.88 312.66 46.19
  Q 312.21 46.69 312.12 46.02
  Q 311.96 44.83 313.04 44.33
  A 1.49 1.49 0.0 0 0 313.71 43.69
  Q 314.41 42.44 315.05 42.05
  C 318.42 40.06 322.47 37.47 323.80 33.56
  Q 326.04 26.98 328.33 20.42
  A 0.30 0.29 18.1 0 1 328.70 20.24
  L 329.00 20.33
  A 0.12 0.11 19.1 0 1 329.08 20.48
  Q 328.08 23.82 327.16 27.17
  C 326.65 29.03 327.04 31.12 325.17 33.00
  A 0.83 0.83 0.0 0 0 325.02 33.97
  L 325.43 34.75
  A 0.54 0.54 0.0 0 0 326.30 34.88
  C 333.59 27.34 334.07 15.83 338.09 5.93
  Q 338.27 5.47 337.94 5.84
  C 334.52 9.72 334.05 12.86 332.11 17.45
  A 0.51 0.50 31.1 0 1 331.33 17.64
  L 330.93 17.32
  A 0.54 0.54 0.0 0 0 330.08 17.57
  L 329.73 18.63
  A 0.53 0.53 0.0 0 1 329.00 18.94
  Q 328.76 18.83 328.76 18.47
  Q 328.66 8.84 334.77 1.17
  A 0.28 0.28 0.0 0 0 334.60 0.72
  L 330.81 0.00
  Z"
/>
<path fill="#d8d8d8" d="
  M 338.31 0.00
  L 339.81 0.00
  L 340.11 0.39
  A 0.34 0.34 0.0 0 1 339.95 0.91
  L 338.44 1.42
  A 0.64 0.63 77.8 0 0 338.01 2.10
  L 338.14 3.20
  A 0.54 0.53 86.5 0 1 337.62 3.79
  L 336.96 3.81
  A 0.79 0.78 -8.3 0 1 336.17 3.23
  Q 335.42 0.46 338.31 0.00
  Z"
/>
<path fill="#ffffff" d="
  M 121.73 16.87
  C 120.94 15.99 116.42 7.48 116.74 6.64
  Q 116.97 6.03 117.34 6.57
  Q 120.54 11.26 121.99 16.73
  Q 122.15 17.33 121.73 16.87
  Z"
/>
<path fill="#040404" d="
  M 96.87 118.13
  C 93.10 124.26 90.80 130.17 84.33 134.01
  A 0.81 0.81 0.0 0 0 83.97 134.96
  Q 87.00 144.29 87.86 153.99
  C 88.14 157.23 87.88 161.32 88.13 165.00
  Q 88.16 165.43 88.40 165.08
  L 92.54 159.00
  L 95.32 156.89
  A 1.50 1.46 -11.6 0 0 95.86 156.09
  Q 97.26 150.85 96.69 145.99
  Q 97.27 140.04 101.54 136.75
  L 106.45 133.65
  Q 106.97 133.32 106.99 133.94
  Q 107.23 142.79 105.96 151.54
  Q 105.75 153.03 107.04 152.27
  Q 118.28 145.64 129.71 138.20
  C 133.75 135.57 138.55 131.62 143.31 128.71
  Q 144.43 128.02 143.96 129.25
  C 142.51 133.01 137.02 137.19 131.67 141.16
  Q 127.59 144.18 108.10 156.75
  A 0.59 0.58 57.4 0 0 107.93 157.55
  Q 118.30 174.00 133.54 185.98
  A 0.79 0.78 47.9 0 0 134.45 186.03
  Q 135.18 185.58 135.14 184.74
  C 134.53 173.89 134.79 161.48 139.21 152.22
  C 142.73 144.83 149.49 137.56 157.79 135.25
  Q 168.58 133.89 177.51 136.48
  C 179.47 137.05 183.61 139.99 181.11 142.57
  A 0.26 0.25 -53.6 0 0 181.17 142.97
  C 181.31 143.05 181.79 142.95 181.95 142.82
  C 189.63 136.66 202.70 133.37 212.52 132.51
  A 1.36 1.36 0.0 0 1 214.00 133.86
  Q 214.00 162.87 214.25 191.00
  Q 214.26 191.99 215.03 192.49
  Q 216.74 193.63 215.28 195.08
  L 207.64 202.71
  Q 205.26 205.08 204.70 201.77
  Q 204.11 198.30 204.10 194.74
  Q 204.04 168.75 203.95 142.66
  A 0.61 0.60 -5.8 0 0 203.22 142.07
  L 194.62 143.85
  A 0.77 0.76 -5.5 0 0 194.00 144.60
  Q 193.78 165.20 196.12 185.66
  Q 196.38 187.92 195.12 189.81
  Q 191.78 194.83 186.34 197.26
  A 0.45 0.45 0.0 0 1 185.70 196.84
  Q 185.86 185.95 183.96 175.23
  Q 183.85 174.59 183.39 175.05
  C 174.70 183.87 169.11 190.04 160.50 196.04
  C 154.69 200.17 145.47 201.79 139.80 196.27
  A 0.46 0.46 0.0 0 0 139.13 196.30
  C 137.27 198.51 135.12 200.22 131.97 199.46
  C 122.86 197.28 112.34 186.71 106.99 179.69
  Q 106.13 178.54 106.01 179.97
  Q 105.39 187.71 107.67 195.11
  A 1.19 1.18 53.4 0 1 107.53 196.10
  Q 104.55 200.67 99.83 203.81
  Q 97.17 205.58 96.81 202.41
  C 95.39 189.94 96.00 177.04 95.99 164.49
  A 0.44 0.44 0.0 0 0 95.36 164.10
  L 91.51 165.95
  Q 89.78 166.36 88.41 167.45
  A 1.05 1.03 71.7 0 0 88.00 168.28
  C 87.99 174.88 89.22 181.29 84.30 187.00
  Q 72.11 201.12 52.99 199.97
  Q 50.18 199.81 49.51 197.07
  Q 48.26 191.96 49.07 185.81
  C 50.47 175.26 67.92 163.85 76.77 159.90
  A 0.72 0.70 76.2 0 0 77.19 159.19
  C 76.78 154.49 75.27 146.06 72.09 141.56
  A 0.87 0.84 -20.6 0 0 71.29 141.21
  C 63.63 142.15 59.99 145.45 57.10 152.43
  C 55.77 155.65 51.91 158.78 49.20 161.35
  A 1.11 1.10 55.8 0 1 47.44 161.01
  C 45.95 157.77 57.28 144.95 59.76 142.76
  C 65.61 137.61 73.57 131.12 81.47 131.38
  A 0.68 0.67 10.3 0 0 82.14 130.92
  L 85.29 121.50
  L 86.46 118.75
  Q 89.79 110.57 88.75 101.80
  A 0.72 0.71 2.9 0 0 88.19 101.19
  Q 84.16 100.31 81.71 103.75
  Q 80.67 104.25 79.67 103.95
  A 0.81 0.80 -88.8 0 1 79.12 103.37
  L 78.68 101.73
  Q 61.35 105.96 44.30 111.90
  Q 40.26 113.31 42.35 109.57
  Q 44.35 105.98 49.75 102.89
  C 51.16 102.08 53.00 102.16 54.54 101.28
  A 0.75 0.74 -18.8 0 0 54.91 100.53
  C 51.28 74.93 52.59 49.51 51.83 23.79
  A 0.59 0.59 0.0 0 0 51.05 23.25
  L 49.85 23.66
  A 0.58 0.58 0.0 0 1 49.13 23.35
  Q 48.51 22.04 50.01 20.60
  C 53.06 16.66 56.81 11.82 61.47 9.44
  A 0.37 0.37 0.0 0 1 62.01 9.77
  L 62.00 12.01
  A 0.44 0.43 85.0 0 0 62.51 12.44
  Q 79.35 9.29 96.56 8.93
  Q 98.75 8.89 98.46 11.05
  Q 93.22 50.54 91.50 90.32
  A 0.60 0.59 2.9 0 0 92.07 90.94
  L 98.06 91.21
  A 0.69 0.68 -2.4 0 1 98.72 91.81
  Q 100.24 103.25 95.18 113.47
  Q 94.49 114.86 95.60 113.77
  Q 97.14 112.27 99.18 111.52
  Q 100.28 111.12 99.76 112.18
  L 96.87 118.13
  Z
  M 62.29 54.25
  Q 62.11 75.70 65.96 96.84
  A 0.61 0.61 0.0 0 0 66.74 97.31
  L 75.04 94.75
  L 81.33 93.16
  A 0.70 0.69 85.0 0 0 81.86 92.52
  Q 83.29 56.70 88.23 21.19
  Q 88.56 18.84 86.19 18.92
  Q 74.40 19.29 62.81 20.90
  A 0.62 0.61 86.3 0 0 62.28 21.51
  L 62.29 54.25
  Z
  M 164.75 188.04
  C 179.55 179.42 183.92 166.76 184.24 150.15
  A 1.59 1.50 -30.0 0 1 184.47 149.38
  L 186.07 146.88
  Q 186.73 145.86 185.60 146.31
  L 178.80 149.03
  Q 177.39 149.59 178.14 148.27
  L 179.73 145.45
  Q 180.45 144.17 179.38 145.17
  L 173.71 150.46
  A 0.97 0.97 0.0 0 1 172.13 150.05
  C 170.81 145.94 162.26 145.00 158.79 145.00
  Q 154.01 144.29 149.25 145.39
  A 1.09 1.06 5.8 0 0 148.54 145.95
  C 145.06 152.81 144.71 163.92 145.25 171.21
  A 0.91 0.90 -80.2 0 0 145.78 171.97
  L 146.26 172.19
  A 0.89 0.88 -77.2 0 1 146.78 173.03
  C 146.63 176.55 146.13 182.41 148.54 185.26
  Q 154.99 192.89 164.75 188.04
  Z
  M 59.58 175.86
  Q 58.35 180.89 59.22 186.52
  C 59.85 190.56 62.00 189.94 65.65 190.03
  Q 71.69 190.17 77.50 187.84
  A 0.76 0.75 -10.9 0 0 77.98 187.14
  L 78.01 166.57
  A 0.43 0.43 0.0 0 0 77.41 166.17
  C 72.18 168.39 66.22 170.56 61.36 173.46
  Q 59.97 174.29 59.58 175.86
  Z"
/>
<path fill="#d8d8d8" d="
  M 75.04 94.75
  C 75.38 89.33 73.22 82.57 71.87 77.27
  C 71.22 74.72 71.82 72.46 71.51 69.81
  A 0.82 0.81 1.4 0 0 70.83 69.10
  L 69.85 68.94
  A 0.69 0.67 87.3 0 1 69.30 68.43
  L 67.82 62.13
  A 0.49 0.48 -5.8 0 0 67.34 61.75
  L 67.07 61.76
  A 0.77 0.76 77.0 0 1 66.36 61.31
  C 65.38 59.20 65.39 54.41 62.29 54.25
  L 62.28 21.51
  A 0.62 0.61 86.3 0 1 62.81 20.90
  Q 74.40 19.29 86.19 18.92
  Q 88.56 18.84 88.23 21.19
  Q 83.29 56.70 81.86 92.52
  A 0.70 0.69 85.0 0 1 81.33 93.16
  L 75.04 94.75
  Z
  M 70.01 52.05
  C 71.33 54.57 73.73 56.95 75.21 60.55
  Q 75.54 61.35 74.69 61.19
  L 73.86 61.03
  A 0.45 0.45 0.0 0 0 73.33 61.56
  Q 73.62 62.87 73.49 64.24
  Q 73.32 65.94 72.43 64.48
  Q 72.04 63.85 71.37 63.49
  Q 70.24 62.90 70.66 64.10
  L 72.29 68.76
  Q 72.46 69.25 72.52 69.76
  Q 72.64 71.01 73.59 71.80
  A 0.55 0.54 -60.0 0 0 74.44 71.57
  L 75.11 69.84
  Q 75.34 69.23 75.73 69.75
  L 77.18 71.71
  Q 77.78 72.52 78.10 71.57
  C 80.10 65.70 79.90 63.81 77.11 58.32
  C 75.75 55.64 72.80 53.82 70.79 51.34
  A 0.29 0.28 -34.6 0 0 70.43 51.28
  L 70.19 51.43
  A 0.47 0.46 -29.4 0 0 70.01 52.05
  Z"
/>
<path fill="#040404" d="
  M 250.29 43.50
  L 255.19 41.15
  A 0.75 0.72 54.7 0 1 256.05 41.31
  Q 256.78 42.08 256.00 43.00
  Q 252.24 47.42 251.15 48.91
  A 1.57 1.55 -27.6 0 0 250.84 49.87
  L 251.21 73.29
  Q 251.24 75.34 253.26 74.92
  Q 260.91 73.32 268.73 70.46
  Q 270.17 69.94 271.47 70.01
  Q 271.95 70.04 271.67 70.43
  Q 265.21 79.74 254.20 82.34
  A 0.69 0.69 0.0 0 0 253.68 83.12
  Q 255.14 91.89 260.50 99.00
  Q 260.79 99.38 260.95 98.93
  Q 263.06 93.08 266.95 88.20
  Q 267.10 88.01 267.11 87.82
  A 0.40 0.40 0.0 0 0 266.60 87.44
  L 258.10 89.79
  A 0.75 0.74 67.2 0 1 257.25 89.44
  C 255.08 85.62 269.94 76.34 272.63 74.44
  A 1.27 1.27 0.0 0 0 273.16 73.49
  L 274.18 56.40
  A 0.60 0.60 0.0 0 0 273.45 55.78
  L 265.82 57.57
  Q 262.10 58.45 264.36 55.36
  Q 269.58 48.25 278.28 46.68
  Q 278.75 46.60 279.12 46.30
  L 282.93 43.31
  A 0.42 0.41 63.7 0 1 283.59 43.54
  Q 284.04 45.39 286.49 45.03
  Q 295.97 43.63 305.58 44.19
  A 0.93 0.91 82.1 0 1 306.41 44.83
  C 309.69 54.69 302.61 62.38 296.11 68.64
  Q 295.77 68.97 296.25 68.91
  C 304.94 67.73 307.52 73.12 308.20 80.51
  A 0.35 0.34 72.7 0 0 308.71 80.78
  C 310.42 79.82 311.18 63.91 311.50 61.11
  Q 315.13 55.21 320.42 52.61
  Q 321.44 52.10 321.35 53.24
  L 319.42 75.50
  Q 319.37 76.01 319.64 75.57
  C 326.47 64.30 334.04 53.48 345.02 46.53
  C 351.05 42.71 360.18 44.03 367.09 46.62
  Q 379.12 51.14 379.22 64.24
  C 379.38 84.00 373.68 98.79 358.12 111.31
  C 350.88 117.13 343.79 118.77 335.01 116.16
  Q 325.18 113.23 325.30 102.75
  Q 325.40 93.55 327.01 84.42
  A 0.33 0.33 0.0 0 0 326.64 84.03
  L 319.89 84.93
  A 0.81 0.80 -0.1 0 0 319.19 85.62
  Q 318.03 95.07 321.01 104.02
  A 1.55 1.50 -45.8 0 1 321.01 105.01
  Q 319.74 108.65 316.71 111.00
  L 312.63 114.52
  Q 310.31 116.53 309.62 113.54
  C 308.88 110.38 309.33 107.31 308.17 104.37
  Q 306.46 100.04 304.69 95.70
  Q 304.50 95.24 304.20 95.64
  C 297.28 104.95 288.85 112.60 276.71 113.15
  C 268.44 113.53 263.46 115.01 261.02 105.38
  Q 260.63 103.83 259.50 104.97
  L 255.05 109.44
  Q 253.52 110.98 251.93 109.52
  C 247.00 105.01 245.62 99.40 243.39 93.22
  L 241.86 86.25
  A 0.49 0.48 79.7 0 0 241.32 85.87
  L 222.52 88.34
  A 0.68 0.67 -6.3 0 0 221.94 89.06
  L 222.03 90.32
  A 0.73 0.72 -1.7 0 0 222.75 90.99
  L 228.52 91.03
  A 0.57 0.56 -76.6 0 1 229.02 91.85
  L 227.16 95.60
  A 0.28 0.28 0.0 0 0 227.40 96.01
  L 227.68 96.01
  A 1.14 1.11 -62.8 0 0 228.40 95.77
  L 235.47 90.17
  Q 236.86 89.07 236.16 90.70
  C 233.93 95.84 227.46 100.82 222.93 103.92
  Q 219.42 106.32 214.20 105.89
  Q 212.39 105.74 212.13 103.94
  L 211.70 100.94
  A 0.82 0.81 0.5 0 0 211.01 100.24
  Q 201.97 98.87 194.63 93.40
  A 0.33 0.18 43.8 0 0 194.35 93.32
  L 194.11 93.43
  A 0.07 0.07 0.0 0 0 194.08 93.52
  C 196.99 98.57 201.20 104.42 207.38 104.32
  Q 210.28 104.27 208.33 106.42
  C 203.05 112.25 196.91 118.22 189.49 110.19
  Q 180.27 100.21 181.91 86.43
  C 182.15 84.44 181.81 82.54 181.43 80.71
  Q 181.10 79.20 180.29 80.52
  L 167.08 101.97
  A 0.71 0.71 0.0 0 0 167.21 102.87
  C 167.57 103.20 170.73 102.00 171.70 102.01
  Q 172.49 102.01 172.07 102.69
  Q 167.35 110.30 159.00 113.04
  Q 157.86 113.13 156.97 112.52
  A 0.87 0.84 -70.5 0 1 156.61 111.73
  L 156.71 110.75
  L 162.15 101.83
  A 0.44 0.43 28.4 0 0 161.96 101.21
  Q 161.73 101.11 161.49 101.23
  Q 157.88 103.18 154.50 104.04
  Q 131.05 106.78 107.34 105.82
  A 0.39 0.39 0.0 0 1 107.00 105.27
  Q 108.84 101.05 112.61 98.54
  A 0.96 0.95 -17.1 0 0 113.05 97.72
  L 112.84 79.72
  A 0.79 0.78 -84.5 0 0 112.22 78.96
  L 111.24 78.75
  A 0.61 0.61 0.0 0 1 110.83 77.87
  L 112.43 74.79
  Q 112.65 74.35 112.68 73.87
  L 113.39 62.65
  A 0.29 0.29 0.0 0 0 112.98 62.37
  L 101.90 67.33
  Q 100.67 67.87 101.29 66.68
  C 107.45 54.80 131.83 48.81 143.79 45.00
  Q 151.91 42.69 160.32 41.42
  Q 162.60 41.08 161.32 43.00
  C 160.41 44.34 152.36 54.43 150.59 53.75
  A 0.62 0.62 0.0 0 1 150.24 52.93
  L 150.71 51.80
  Q 151.00 51.10 150.26 51.28
  L 139.62 53.89
  L 124.06 58.42
  A 1.44 1.43 82.1 0 0 123.03 59.79
  L 122.99 67.24
  A 0.83 0.82 83.0 0 0 124.02 68.05
  L 143.00 63.29
  L 152.78 62.64
  A 0.85 0.84 -16.6 0 1 153.56 63.06
  C 155.78 66.86 148.00 73.02 145.44 75.12
  Q 145.10 75.89 144.47 75.88
  A 0.45 0.44 4.9 0 1 144.03 75.36
  C 144.54 72.42 142.93 72.08 140.53 72.41
  Q 132.53 73.50 124.41 75.42
  A 1.95 1.95 0.0 0 0 122.92 77.35
  L 123.26 95.25
  A 0.66 0.66 0.0 0 0 123.90 95.90
  Q 139.28 96.43 154.50 95.04
  Q 160.96 95.06 167.15 92.91
  A 1.54 1.49 5.4 0 0 167.95 92.27
  L 177.49 77.10
  A 1.40 1.39 -45.3 0 0 177.49 75.61
  Q 170.22 63.92 162.02 52.88
  A 0.80 0.80 0.0 0 1 162.02 51.92
  Q 165.45 47.43 169.89 43.96
  A 0.69 0.69 0.0 0 1 170.67 43.90
  C 175.45 46.68 179.37 53.46 182.08 58.17
  Q 182.70 59.25 182.77 58.01
  C 183.37 47.21 179.99 34.57 192.37 29.08
  A 0.59 0.59 0.0 0 1 193.20 29.64
  L 192.27 53.90
  Q 192.21 55.60 193.21 54.23
  C 198.15 47.53 211.00 30.25 219.20 28.14
  Q 219.71 28.01 219.47 28.48
  Q 217.84 31.69 215.57 33.57
  C 206.84 40.82 200.39 50.01 194.02 58.99
  C 190.61 63.80 190.57 70.94 194.66 75.42
  Q 202.79 84.33 214.02 89.00
  A 0.53 0.53 0.0 0 0 214.70 88.74
  C 223.41 71.05 234.44 55.54 250.29 43.50
  Z
  M 288.19 69.49
  L 289.11 69.60
  A 1.78 1.75 -54.4 0 0 290.14 69.42
  Q 298.51 65.27 296.96 55.79
  Q 296.68 54.03 294.90 54.03
  L 284.67 53.99
  A 0.64 0.63 1.4 0 0 284.03 54.59
  L 283.18 70.20
  Q 283.10 71.77 284.50 71.06
  L 287.28 69.65
  A 1.57 1.57 0.0 0 1 288.19 69.49
  Z
  M 346.79 75.23
  Q 343.11 81.01 336.71 83.35
  A 1.05 1.04 83.5 0 0 336.04 84.20
  Q 335.38 89.33 335.23 92.98
  C 334.74 105.03 344.83 108.17 354.80 107.14
  C 367.72 105.80 369.71 81.31 369.28 71.66
  C 368.72 59.32 356.07 54.36 345.47 54.04
  A 1.60 1.59 -77.3 0 0 343.95 55.01
  Q 340.20 63.74 337.85 72.95
  A 0.42 0.42 0.0 0 0 338.29 73.48
  L 345.42 72.94
  Q 348.40 72.71 346.79 75.23
  Z
  M 238.76 57.71
  Q 231.57 66.96 226.25 77.48
  A 0.31 0.31 0.0 0 0 226.51 77.93
  Q 233.26 78.35 239.97 77.39
  A 1.07 1.07 0.0 0 0 240.89 76.31
  L 240.60 58.32
  Q 240.55 55.40 238.76 57.71
  Z
  M 335.94 57.94
  C 331.70 63.87 328.36 69.95 323.76 75.56
  Q 323.17 76.28 324.08 76.09
  L 329.08 75.06
  A 0.86 0.85 -87.1 0 0 329.73 74.47
  Q 332.48 65.81 336.63 57.72
  Q 336.87 57.23 336.34 57.34
  Q 335.94 57.43 335.94 57.94
  Z
  M 288.22 101.75
  L 288.24 102.20
  A 0.61 0.61 0.0 0 0 288.85 102.77
  C 296.18 102.74 298.66 98.06 298.30 91.46
  C 297.77 81.92 294.57 76.54 283.90 79.29
  A 0.80 0.80 0.0 0 0 283.32 79.92
  C 282.17 86.73 282.30 96.26 288.00 101.32
  A 0.63 0.63 0.0 0 1 288.22 101.75
  Z
  M 272.1949 100.8600
  A 7.20 0.91 90.2 0 0 273.1300 93.6632
  A 7.20 0.91 90.2 0 0 272.2451 86.4600
  A 7.20 0.91 90.2 0 0 271.3100 93.6568
  A 7.20 0.91 90.2 0 0 272.1949 100.8600
  Z"
/>
<path fill="#ffffff" d="
  M 75.21 60.55
  C 73.73 56.95 71.33 54.57 70.01 52.05
  A 0.47 0.46 -29.4 0 1 70.19 51.43
  L 70.43 51.28
  A 0.29 0.28 -34.6 0 1 70.79 51.34
  C 72.80 53.82 75.75 55.64 77.11 58.32
  C 79.90 63.81 80.10 65.70 78.10 71.57
  Q 77.78 72.52 77.18 71.71
  L 75.73 69.75
  Q 75.34 69.23 75.11 69.84
  L 74.44 71.57
  A 0.55 0.54 -60.0 0 1 73.59 71.80
  Q 72.64 71.01 72.52 69.76
  Q 72.46 69.25 72.29 68.76
  L 70.66 64.10
  Q 70.24 62.90 71.37 63.49
  Q 72.04 63.85 72.43 64.48
  Q 73.32 65.94 73.49 64.24
  Q 73.62 62.87 73.33 61.56
  A 0.45 0.45 0.0 0 1 73.86 61.03
  L 74.69 61.19
  Q 75.54 61.35 75.21 60.55
  Z"
/>
<path fill="#d8d8d8" d="
  M 139.62 53.89
  Q 141.85 58.37 143.00 63.29
  L 124.02 68.05
  A 0.83 0.82 83.0 0 1 122.99 67.24
  L 123.03 59.79
  A 1.44 1.43 82.1 0 1 124.06 58.42
  L 139.62 53.89
  Z"
/>
<path fill="#d8d8d8" d="
  M 287.28 69.65
  L 284.50 71.06
  Q 283.10 71.77 283.18 70.20
  L 284.03 54.59
  A 0.64 0.63 1.4 0 1 284.67 53.99
  L 294.90 54.03
  Q 296.68 54.03 296.96 55.79
  Q 298.51 65.27 290.14 69.42
  A 1.78 1.75 -54.4 0 1 289.11 69.60
  L 288.19 69.49
  A 1.57 1.57 0.0 0 0 287.28 69.65
  Z"
/>
<path fill="#ffffff" d="
  M 346.79 75.23
  Q 348.40 72.71 345.42 72.94
  L 338.29 73.48
  A 0.42 0.42 0.0 0 1 337.85 72.95
  Q 340.20 63.74 343.95 55.01
  A 1.60 1.59 -77.3 0 1 345.47 54.04
  C 356.07 54.36 368.72 59.32 369.28 71.66
  C 369.71 81.31 367.72 105.80 354.80 107.14
  C 344.83 108.17 334.74 105.03 335.23 92.98
  Q 335.38 89.33 336.04 84.20
  A 1.05 1.04 83.5 0 1 336.71 83.35
  Q 343.11 81.01 346.79 75.23
  Z"
/>
<path fill="#ffffff" d="
  M 62.29 54.25
  C 65.39 54.41 65.38 59.20 66.36 61.31
  A 0.77 0.76 77.0 0 0 67.07 61.76
  L 67.34 61.75
  A 0.49 0.48 -5.8 0 1 67.82 62.13
  L 69.30 68.43
  A 0.69 0.67 87.3 0 0 69.85 68.94
  L 70.83 69.10
  A 0.82 0.81 1.4 0 1 71.51 69.81
  C 71.82 72.46 71.22 74.72 71.87 77.27
  C 73.22 82.57 75.38 89.33 75.04 94.75
  L 66.74 97.31
  A 0.61 0.61 0.0 0 1 65.96 96.84
  Q 62.11 75.70 62.29 54.25
  Z"
/>
<path fill="#ffffff" d="
  M 238.76 57.71
  Q 240.55 55.40 240.60 58.32
  L 240.89 76.31
  A 1.07 1.07 0.0 0 1 239.97 77.39
  Q 233.26 78.35 226.51 77.93
  A 0.31 0.31 0.0 0 1 226.25 77.48
  Q 231.57 66.96 238.76 57.71
  Z"
/>
<path fill="#ffffff" d="
  M 335.94 57.94
  Q 335.94 57.43 336.34 57.34
  Q 336.87 57.23 336.63 57.72
  Q 332.48 65.81 329.73 74.47
  A 0.86 0.85 -87.1 0 1 329.08 75.06
  L 324.08 76.09
  Q 323.17 76.28 323.76 75.56
  C 328.36 69.95 331.70 63.87 335.94 57.94
  Z"
/>
<path fill="#d8d8d8" d="
  M 145.44 75.12
  Q 153.03 83.60 153.98 94.73
  A 0.30 0.29 -87.6 0 0 154.22 95.00
  L 154.50 95.04
  Q 139.28 96.43 123.90 95.90
  A 0.66 0.66 0.0 0 1 123.26 95.25
  L 122.92 77.35
  A 1.95 1.95 0.0 0 1 124.41 75.42
  Q 132.53 73.50 140.53 72.41
  C 142.93 72.08 144.54 72.42 144.03 75.36
  A 0.45 0.44 4.9 0 0 144.47 75.88
  Q 145.10 75.89 145.44 75.12
  Z"
/>
<path fill="#d8d8d8" d="
  M 288.00 101.32
  C 282.30 96.26 282.17 86.73 283.32 79.92
  A 0.80 0.80 0.0 0 1 283.90 79.29
  C 294.57 76.54 297.77 81.92 298.30 91.46
  C 298.66 98.06 296.18 102.74 288.85 102.77
  A 0.61 0.61 0.0 0 1 288.24 102.20
  L 288.22 101.75
  A 0.63 0.63 0.0 0 0 288.00 101.32
  Z"
/>
<path fill="#ffffff" d="
  M 243.39 93.22
  Q 242.35 100.45 244.03 108.49
  Q 244.65 111.47 245.92 113.06
  Q 245.99 113.15 245.99 113.08
  Q 245.82 111.60 245.24 110.31
  A 0.73 0.72 -30.3 0 1 245.48 109.42
  C 247.22 108.16 249.52 114.36 249.53 114.50
  Q 250.77 124.89 252.06 135.22
  C 241.32 136.89 227.62 138.68 220.64 148.11
  Q 220.02 148.95 220.03 150.05
  A 0.41 0.41 0.0 0 0 220.55 150.44
  L 222.12 149.98
  A 0.39 0.39 0.0 0 1 222.62 150.42
  C 221.07 159.61 221.95 172.09 222.01 186.71
  A 1.39 1.38 63.8 0 1 221.71 187.60
  C 220.49 189.19 218.06 190.93 217.99 192.97
  A 0.78 0.77 -87.8 0 0 218.73 193.78
  L 221.31 193.91
  A 0.72 0.71 1.3 0 1 222.00 194.62
  L 222.00 200.42
  Q 222.00 201.17 222.58 200.69
  L 230.18 194.43
  A 1.36 1.34 -65.8 0 1 230.98 194.12
  C 236.98 193.87 248.39 194.14 252.91 189.67
  C 253.79 188.79 259.22 183.57 259.04 182.71
  A 0.54 0.54 0.0 0 0 258.41 182.29
  Q 245.59 184.67 232.54 183.88
  A 0.58 0.57 -88.4 0 1 232.00 183.30
  L 232.00 164.57
  A 1.73 1.72 -1.8 0 1 233.62 162.85
  Q 239.40 162.52 244.88 162.00
  C 248.91 161.61 252.21 158.30 254.75 155.46
  L 257.85 156.35
  A 0.58 0.57 15.9 0 1 258.25 157.05
  L 256.81 162.26
  A 0.73 0.73 0.0 0 0 257.37 163.18
  L 260.12 163.70
  A 1.09 1.06 -12.0 0 1 260.80 164.13
  Q 263.06 167.27 263.54 171.00
  C 261.87 178.06 263.60 187.37 270.33 191.50
  A 0.90 0.86 17.3 0 1 270.75 192.26
  C 270.46 208.59 269.87 224.98 271.13 241.27
  A 0.89 0.88 -16.9 0 0 272.45 241.97
  Q 276.97 239.41 279.93 235.10
  Q 281.24 233.19 281.11 230.87
  Q 280.46 219.52 280.97 208.11
  Q 288.02 217.78 294.20 228.01
  Q 294.48 228.47 293.95 228.38
  C 292.51 228.11 289.86 224.65 288.24 223.72
  A 0.43 0.42 -65.2 0 0 287.62 223.95
  C 286.84 226.31 290.99 227.08 290.14 229.12
  Q 289.48 230.68 288.59 229.24
  L 283.59 221.18
  A 0.59 0.55 45.6 0 0 282.62 221.14
  C 282.06 222.04 286.00 229.29 286.65 230.59
  Q 287.49 232.29 287.60 234.59
  Q 287.90 240.88 291.41 246.26
  A 1.00 0.99 75.9 0 0 292.13 246.70
  L 294.69 247.00
  L 147.44 247.00
  C 147.77 246.57 148.12 246.37 148.30 245.83
  C 152.13 234.39 155.36 222.43 156.93 210.46
  Q 157.62 205.20 160.76 200.03
  Q 161.95 198.08 160.50 196.04
  C 169.11 190.04 174.70 183.87 183.39 175.05
  Q 183.85 174.59 183.96 175.23
  Q 185.86 185.95 185.70 196.84
  A 0.45 0.45 0.0 0 0 186.34 197.26
  Q 191.78 194.83 195.12 189.81
  Q 196.38 187.92 196.12 185.66
  Q 193.78 165.20 194.00 144.60
  A 0.77 0.76 -5.5 0 1 194.62 143.85
  L 203.22 142.07
  A 0.61 0.60 -5.8 0 1 203.95 142.66
  Q 204.04 168.75 204.10 194.74
  Q 204.11 198.30 204.70 201.77
  Q 205.26 205.08 207.64 202.71
  L 215.28 195.08
  Q 216.74 193.63 215.03 192.49
  Q 214.26 191.99 214.25 191.00
  Q 214.00 162.87 214.00 133.86
  A 1.36 1.36 0.0 0 0 212.52 132.51
  C 202.70 133.37 189.63 136.66 181.95 142.82
  C 181.79 142.95 181.31 143.05 181.17 142.97
  A 0.26 0.25 -53.6 0 1 181.11 142.57
  C 183.61 139.99 179.47 137.05 177.51 136.48
  Q 168.58 133.89 157.79 135.25
  Q 158.33 127.13 157.60 119.00
  Q 157.45 117.32 158.89 114.92
  A 1.49 1.47 57.8 0 0 159.09 114.01
  L 159.00 113.04
  Q 167.35 110.30 172.07 102.69
  Q 172.49 102.01 171.70 102.01
  C 170.73 102.00 167.57 103.20 167.21 102.87
  A 0.71 0.71 0.0 0 1 167.08 101.97
  L 180.29 80.52
  Q 181.10 79.20 181.43 80.71
  C 181.81 82.54 182.15 84.44 181.91 86.43
  Q 180.27 100.21 189.49 110.19
  C 196.91 118.22 203.05 112.25 208.33 106.42
  Q 210.28 104.27 207.38 104.32
  C 201.20 104.42 196.99 98.57 194.08 93.52
  A 0.07 0.07 0.0 0 1 194.11 93.43
  L 194.35 93.32
  A 0.33 0.18 43.8 0 1 194.63 93.40
  Q 201.97 98.87 211.01 100.24
  A 0.82 0.81 0.5 0 1 211.70 100.94
  L 212.13 103.94
  Q 212.39 105.74 214.20 105.89
  Q 219.42 106.32 222.93 103.92
  C 227.46 100.82 233.93 95.84 236.16 90.70
  Q 236.86 89.07 235.47 90.17
  L 228.40 95.77
  A 1.14 1.11 -62.8 0 1 227.68 96.01
  L 227.40 96.01
  A 0.28 0.28 0.0 0 1 227.16 95.60
  L 229.02 91.85
  A 0.57 0.56 -76.6 0 0 228.52 91.03
  L 222.75 90.99
  A 0.73 0.72 -1.7 0 1 222.03 90.32
  L 221.94 89.06
  A 0.68 0.67 -6.3 0 1 222.52 88.34
  L 241.32 85.87
  A 0.49 0.48 79.7 0 1 241.86 86.25
  L 243.39 93.22
  Z"
/>
<ellipse fill="#d8d8d8" cx="0.00" cy="0.00" transform="translate(272.22,93.66) rotate(90.2)" rx="7.20" ry="0.91"/>
<path fill="#d8d8d8" d="
  M 243.39 93.22
  C 245.62 99.40 247.00 105.01 251.93 109.52
  Q 253.52 110.98 255.05 109.44
  L 259.50 104.97
  Q 260.63 103.83 261.02 105.38
  C 263.46 115.01 268.44 113.53 276.71 113.15
  C 288.85 112.60 297.28 104.95 304.20 95.64
  Q 304.50 95.24 304.69 95.70
  Q 306.46 100.04 308.17 104.37
  C 309.33 107.31 308.88 110.38 309.62 113.54
  Q 310.31 116.53 312.63 114.52
  L 316.71 111.00
  Q 317.97 113.69 315.42 117.13
  Q 314.92 117.81 315.73 117.56
  Q 316.62 117.29 316.94 118.77
  Q 318.29 124.90 318.87 131.30
  L 305.16 134.87
  A 0.82 0.80 61.6 0 1 304.36 134.62
  C 298.75 128.28 289.15 131.14 281.70 133.90
  A 0.46 0.45 72.1 0 1 281.10 133.59
  L 280.53 131.43
  A 0.49 0.49 0.0 0 0 279.83 131.13
  C 275.62 133.33 259.01 151.36 260.27 152.91
  A 0.62 0.61 53.8 0 0 261.08 153.04
  Q 266.15 149.77 270.08 145.20
  Q 270.50 144.71 270.58 145.35
  C 271.07 149.48 272.06 157.39 269.69 160.99
  C 267.43 164.41 265.40 166.49 263.54 171.00
  Q 263.06 167.27 260.80 164.13
  A 1.09 1.06 -12.0 0 0 260.12 163.70
  L 257.37 163.18
  A 0.73 0.73 0.0 0 1 256.81 162.26
  L 258.25 157.05
  A 0.58 0.57 15.9 0 0 257.85 156.35
  L 254.75 155.46
  L 256.71 152.66
  A 0.33 0.33 0.0 0 0 256.51 152.14
  L 255.75 151.96
  C 258.86 151.98 256.92 147.00 256.39 145.33
  A 0.51 0.50 -28.2 0 0 255.59 145.09
  L 255.34 145.31
  A 0.97 0.94 -22.5 0 0 254.99 146.12
  L 255.21 149.74
  Q 255.31 151.41 254.50 149.94
  Q 252.91 147.08 252.61 144.19
  Q 261.78 143.08 265.84 134.45
  Q 266.10 133.89 265.49 133.95
  L 252.06 135.22
  Q 250.77 124.89 249.53 114.50
  C 249.52 114.36 247.22 108.16 245.48 109.42
  A 0.73 0.72 -30.3 0 0 245.24 110.31
  Q 245.82 111.60 245.99 113.08
  Q 245.99 113.15 245.92 113.06
  Q 244.65 111.47 244.03 108.49
  Q 242.35 100.45 243.39 93.22
  Z"
/>
<path fill="#ffffff" d="
  M 86.46 118.75
  L 85.94 118.75
  A 0.68 0.68 0.0 0 1 85.29 118.28
  Q 84.49 115.88 84.46 113.37
  C 84.43 111.01 83.89 109.20 83.55 107.02
  A 0.93 0.90 -82.9 0 0 83.03 106.33
  Q 81.55 105.66 81.71 103.75
  Q 84.16 100.31 88.19 101.19
  A 0.72 0.71 2.9 0 1 88.75 101.80
  Q 89.79 110.57 86.46 118.75
  Z"
/>
<path fill="#ffffff" d="
  M 156.71 110.75
  Q 155.28 110.68 155.50 109.50
  Q 156.11 106.26 154.50 104.04
  Q 157.88 103.18 161.49 101.23
  Q 161.73 101.11 161.96 101.21
  A 0.44 0.43 28.4 0 1 162.15 101.83
  L 156.71 110.75
  Z"
/>
<path fill="#d8d8d8" d="
  M 78.68 101.73
  L 79.12 103.37
  A 0.81 0.80 -88.8 0 0 79.67 103.95
  Q 80.67 104.25 81.71 103.75
  Q 81.55 105.66 83.03 106.33
  A 0.93 0.90 -82.9 0 1 83.55 107.02
  C 83.89 109.20 84.43 111.01 84.46 113.37
  Q 84.49 115.88 85.29 118.28
  A 0.68 0.68 0.0 0 0 85.94 118.75
  L 86.46 118.75
  L 85.29 121.50
  Q 82.71 122.27 81.89 118.91
  Q 80.41 112.85 78.82 106.76
  C 78.33 104.86 78.70 103.80 78.68 101.73
  Z"
/>
<path fill="#ffffff" d="
  M 96.87 118.13
  Q 100.32 127.20 101.54 136.75
  Q 97.27 140.04 96.69 145.99
  Q 92.23 143.01 91.70 137.24
  A 0.51 0.50 2.2 0 0 91.27 136.78
  L 91.01 136.75
  A 0.39 0.38 5.5 0 0 90.57 137.11
  Q 90.01 148.20 92.54 159.00
  L 88.40 165.08
  Q 88.16 165.43 88.13 165.00
  C 87.88 161.32 88.14 157.23 87.86 153.99
  Q 87.00 144.29 83.97 134.96
  A 0.81 0.81 0.0 0 1 84.33 134.01
  C 90.80 130.17 93.10 124.26 96.87 118.13
  Z"
/>
<path fill="#040404" d="
  M 338.46 178.00
  C 337.18 182.35 334.77 193.01 340.48 193.95
  A 1.46 1.44 -54.3 0 0 341.41 193.79
  L 345.75 191.46
  L 345.96 192.50
  C 343.29 196.29 334.79 206.02 329.55 203.42
  Q 326.49 201.90 326.70 198.47
  Q 327.34 187.77 330.96 176.68
  A 0.52 0.52 0.0 0 0 330.47 176.00
  L 323.43 176.00
  A 0.73 0.73 0.0 0 0 322.71 176.60
  Q 321.32 183.93 323.67 190.92
  A 1.23 1.21 -37.9 0 1 323.53 191.98
  Q 320.07 197.29 314.69 200.64
  A 0.73 0.73 0.0 0 1 313.66 200.37
  C 312.69 198.64 312.12 196.60 312.15 194.47
  Q 312.55 171.81 315.00 147.58
  Q 315.26 144.98 312.65 144.99
  L 308.80 145.00
  A 0.57 0.57 0.0 0 0 308.24 145.66
  C 309.72 154.54 310.01 164.62 306.15 172.69
  C 302.11 181.14 292.51 191.36 282.30 191.21
  A 1.49 1.49 0.0 0 0 280.79 192.72
  L 280.97 208.11
  Q 280.46 219.52 281.11 230.87
  Q 281.24 233.19 279.93 235.10
  Q 276.97 239.41 272.45 241.97
  A 0.89 0.88 -16.9 0 1 271.13 241.27
  C 269.87 224.98 270.46 208.59 270.75 192.26
  A 0.90 0.86 17.3 0 0 270.33 191.50
  C 263.60 187.37 261.87 178.06 263.54 171.00
  C 265.40 166.49 267.43 164.41 269.69 160.99
  C 272.06 157.39 271.07 149.48 270.58 145.35
  Q 270.50 144.71 270.08 145.20
  Q 266.15 149.77 261.08 153.04
  A 0.62 0.61 53.8 0 1 260.27 152.91
  C 259.01 151.36 275.62 133.33 279.83 131.13
  A 0.49 0.49 0.0 0 1 280.53 131.43
  L 281.10 133.59
  A 0.46 0.45 72.1 0 0 281.70 133.90
  C 289.15 131.14 298.75 128.28 304.36 134.62
  A 0.82 0.80 61.6 0 0 305.16 134.87
  L 318.87 131.30
  Q 340.63 126.97 361.92 128.16
  Q 364.11 128.28 362.85 130.08
  C 354.68 141.75 346.94 151.94 342.11 165.50
  A 0.42 0.41 -82.9 0 0 342.54 166.06
  L 353.49 164.91
  A 0.64 0.63 -4.8 0 0 354.05 164.25
  L 353.25 150.06
  Q 353.14 148.21 354.21 146.69
  Q 357.62 141.82 362.85 138.98
  A 0.69 0.68 75.6 0 1 363.86 139.58
  L 364.06 163.66
  A 1.05 1.04 88.2 0 0 365.16 164.70
  L 379.46 163.91
  Q 380.22 163.87 379.72 164.45
  C 375.47 169.29 371.65 174.13 365.97 174.05
  A 0.43 0.43 0.0 0 0 365.54 174.53
  Q 366.95 185.72 373.70 194.67
  A 1.23 1.22 43.8 0 1 373.73 196.09
  Q 370.24 201.20 364.86 204.19
  A 0.66 0.65 -33.7 0 1 364.04 204.03
  C 356.78 194.94 355.93 186.59 354.54 175.50
  A 0.57 0.57 0.0 0 0 353.97 175.00
  L 340.01 175.00
  A 0.94 0.94 0.0 0 0 339.24 175.40
  Q 338.45 176.55 338.46 178.00
  Z
  M 324.00 153.46
  Q 322.83 161.87 323.06 170.49
  Q 323.08 170.99 323.46 170.68
  C 326.45 168.23 328.51 165.92 332.62 165.90
  Q 334.82 166.65 335.67 164.98
  C 340.59 155.42 346.36 147.49 352.23 138.57
  Q 352.55 138.09 351.97 138.07
  Q 338.94 137.66 325.97 138.69
  A 0.84 0.82 -0.0 0 0 325.21 139.44
  L 324.00 153.46
  Z
  M 281.04 141.76
  L 280.98 150.44
  Q 280.98 150.91 281.37 150.66
  L 292.77 143.34
  A 0.53 0.53 0.0 0 0 292.83 142.48
  C 290.38 140.45 284.56 140.82 281.65 141.10
  A 0.68 0.67 -2.4 0 0 281.04 141.76
  Z
  M 281.03 155.74
  L 280.99 181.46
  A 0.67 0.67 0.0 0 0 281.71 182.14
  L 293.69 181.25
  Q 297.12 181.00 297.83 177.64
  Q 300.91 163.05 296.81 148.65
  A 0.61 0.60 70.0 0 0 295.98 148.26
  L 281.64 154.79
  A 1.05 1.04 -12.4 0 0 281.03 155.74
  Z"
/>
<path fill="#040404" d="
  M 252.61 144.19
  Q 242.30 144.66 232.48 147.26
  A 0.67 0.67 0.0 0 0 231.98 147.91
  L 232.04 156.23
  Q 232.05 156.92 232.59 156.48
  C 234.39 155.02 235.50 153.89 237.94 153.53
  Q 246.81 152.22 255.75 151.96
  L 256.51 152.14
  A 0.33 0.33 0.0 0 1 256.71 152.66
  L 254.75 155.46
  C 252.21 158.30 248.91 161.61 244.88 162.00
  Q 239.40 162.52 233.62 162.85
  A 1.73 1.72 -1.8 0 0 232.00 164.57
  L 232.00 183.30
  A 0.58 0.57 -88.4 0 0 232.54 183.88
  Q 245.59 184.67 258.41 182.29
  A 0.54 0.54 0.0 0 1 259.04 182.71
  C 259.22 183.57 253.79 188.79 252.91 189.67
  C 248.39 194.14 236.98 193.87 230.98 194.12
  A 1.36 1.34 -65.8 0 0 230.18 194.43
  L 222.58 200.69
  Q 222.00 201.17 222.00 200.42
  L 222.00 194.62
  A 0.72 0.71 1.3 0 0 221.31 193.91
  L 218.73 193.78
  A 0.78 0.77 -87.8 0 1 217.99 192.97
  C 218.06 190.93 220.49 189.19 221.71 187.60
  A 1.39 1.38 63.8 0 0 222.01 186.71
  C 221.95 172.09 221.07 159.61 222.62 150.42
  A 0.39 0.39 0.0 0 0 222.12 149.98
  L 220.55 150.44
  A 0.41 0.41 0.0 0 1 220.03 150.05
  Q 220.02 148.95 220.64 148.11
  C 227.62 138.68 241.32 136.89 252.06 135.22
  L 265.49 133.95
  Q 266.10 133.89 265.84 134.45
  Q 261.78 143.08 252.61 144.19
  Z"
/>
<path fill="#d8d8d8" d="
  M 96.69 145.99
  Q 97.26 150.85 95.86 156.09
  A 1.50 1.46 -11.6 0 1 95.32 156.89
  L 92.54 159.00
  Q 90.01 148.20 90.57 137.11
  A 0.39 0.38 5.5 0 1 91.01 136.75
  L 91.27 136.78
  A 0.51 0.50 2.2 0 1 91.70 137.24
  Q 92.23 143.01 96.69 145.99
  Z"
/>
<path fill="#ffffff" d="
  M 332.62 165.90
  Q 331.37 162.56 329.58 159.45
  C 328.61 157.78 327.98 155.32 326.40 153.62
  A 1.01 1.00 65.3 0 0 325.57 153.31
  L 324.00 153.46
  L 325.21 139.44
  A 0.84 0.82 -0.0 0 1 325.97 138.69
  Q 338.94 137.66 351.97 138.07
  Q 352.55 138.09 352.23 138.57
  C 346.36 147.49 340.59 155.42 335.67 164.98
  Q 334.82 166.65 332.62 165.90
  Z"
/>
<path fill="#d8d8d8" d="
  M 281.04 141.76
  A 0.68 0.67 -2.4 0 1 281.65 141.10
  C 284.56 140.82 290.38 140.45 292.83 142.48
  A 0.53 0.53 0.0 0 1 292.77 143.34
  L 281.37 150.66
  Q 280.98 150.91 280.98 150.44
  L 281.04 141.76
  Z"
/>
<path fill="#ffffff" d="
  M 252.61 144.19
  Q 252.91 147.08 254.50 149.94
  Q 255.31 151.41 255.21 149.74
  L 254.99 146.12
  A 0.97 0.94 -22.5 0 1 255.34 145.31
  L 255.59 145.09
  A 0.51 0.50 -28.2 0 1 256.39 145.33
  C 256.92 147.00 258.86 151.98 255.75 151.96
  Q 246.81 152.22 237.94 153.53
  C 235.50 153.89 234.39 155.02 232.59 156.48
  Q 232.05 156.92 232.04 156.23
  L 231.98 147.91
  A 0.67 0.67 0.0 0 1 232.48 147.26
  Q 242.30 144.66 252.61 144.19
  Z"
/>
<path fill="#d8d8d8" d="
  M 158.79 145.00
  C 158.72 148.63 160.52 151.64 161.90 154.88
  C 164.01 159.88 163.70 163.63 163.35 168.93
  Q 162.89 175.82 163.60 187.33
  A 0.77 0.75 -83.9 0 0 164.13 188.00
  Q 164.46 188.10 164.75 188.04
  Q 154.99 192.89 148.54 185.26
  C 146.13 182.41 146.63 176.55 146.78 173.03
  A 0.89 0.88 -77.2 0 0 146.26 172.19
  L 145.78 171.97
  A 0.91 0.90 -80.2 0 1 145.25 171.21
  C 144.71 163.92 145.06 152.81 148.54 145.95
  A 1.09 1.06 5.8 0 1 149.25 145.39
  Q 154.01 144.29 158.79 145.00
  Z
  M 159.48 167.48
  L 158.62 174.41
  A 0.74 0.74 0.0 0 0 159.17 175.22
  C 159.61 175.34 159.99 175.04 160.13 174.59
  Q 161.33 170.90 159.90 167.42
  Q 159.58 166.64 159.48 167.48
  Z"
/>
<path fill="#ffffff" d="
  M 158.79 145.00
  C 162.26 145.00 170.81 145.94 172.13 150.05
  A 0.97 0.97 0.0 0 0 173.71 150.46
  L 179.38 145.17
  Q 180.45 144.17 179.73 145.45
  L 178.14 148.27
  Q 177.39 149.59 178.80 149.03
  L 185.60 146.31
  Q 186.73 145.86 186.07 146.88
  L 184.47 149.38
  A 1.59 1.50 -30.0 0 0 184.24 150.15
  C 183.92 166.76 179.55 179.42 164.75 188.04
  Q 164.46 188.10 164.13 188.00
  A 0.77 0.75 -83.9 0 1 163.60 187.33
  Q 162.89 175.82 163.35 168.93
  C 163.70 163.63 164.01 159.88 161.90 154.88
  C 160.52 151.64 158.72 148.63 158.79 145.00
  Z"
/>
<path fill="#d8d8d8" d="
  M 345.96 192.50
  Q 348.77 193.71 348.56 196.72
  A 1.11 1.10 -65.5 0 0 348.87 197.56
  Q 351.07 199.89 351.67 200.82
  C 357.18 209.37 363.71 216.51 366.23 225.28
  Q 366.71 226.94 365.79 225.74
  Q 365.02 224.72 363.90 224.94
  A 0.95 0.95 0.0 0 1 362.88 224.47
  L 354.49 209.20
  Q 354.22 208.70 353.93 209.19
  C 351.83 212.87 360.54 223.69 362.95 225.97
  Q 367.64 230.41 368.54 231.52
  Q 374.34 238.62 378.33 246.93
  L 376.69 247.00
  Q 371.74 245.45 366.69 247.00
  L 294.69 247.00
  L 292.13 246.70
  A 1.00 0.99 75.9 0 1 291.41 246.26
  Q 287.90 240.88 287.60 234.59
  Q 287.49 232.29 286.65 230.59
  C 286.00 229.29 282.06 222.04 282.62 221.14
  A 0.59 0.55 45.6 0 1 283.59 221.18
  L 288.59 229.24
  Q 289.48 230.68 290.14 229.12
  C 290.99 227.08 286.84 226.31 287.62 223.95
  A 0.43 0.42 -65.2 0 1 288.24 223.72
  C 289.86 224.65 292.51 228.11 293.95 228.38
  Q 294.48 228.47 294.20 228.01
  Q 288.02 217.78 280.97 208.11
  L 280.79 192.72
  A 1.49 1.49 0.0 0 1 282.30 191.21
  C 292.51 191.36 302.11 181.14 306.15 172.69
  C 310.01 164.62 309.72 154.54 308.24 145.66
  A 0.57 0.57 0.0 0 1 308.80 145.00
  L 312.65 144.99
  Q 315.26 144.98 315.00 147.58
  Q 312.55 171.81 312.15 194.47
  C 312.12 196.60 312.69 198.64 313.66 200.37
  A 0.73 0.73 0.0 0 0 314.69 200.64
  Q 320.07 197.29 323.53 191.98
  A 1.23 1.21 -37.9 0 0 323.67 190.92
  Q 321.32 183.93 322.71 176.60
  A 0.73 0.73 0.0 0 1 323.43 176.00
  L 330.47 176.00
  A 0.52 0.52 0.0 0 1 330.96 176.68
  Q 327.34 187.77 326.70 198.47
  Q 326.49 201.90 329.55 203.42
  C 334.79 206.02 343.29 196.29 345.96 192.50
  Z"
/>
<path fill="#d8d8d8" d="
  M 281.03 155.74
  A 1.05 1.04 -12.4 0 1 281.64 154.79
  L 295.98 148.26
  A 0.61 0.60 70.0 0 1 296.81 148.65
  Q 300.91 163.05 297.83 177.64
  Q 297.12 181.00 293.69 181.25
  L 281.71 182.14
  A 0.67 0.67 0.0 0 1 280.99 181.46
  L 281.03 155.74
  Z"
/>
<path fill="#d8d8d8" d="
  M 332.62 165.90
  C 328.51 165.92 326.45 168.23 323.46 170.68
  Q 323.08 170.99 323.06 170.49
  Q 322.83 161.87 324.00 153.46
  L 325.57 153.31
  A 1.01 1.00 65.3 0 1 326.40 153.62
  C 327.98 155.32 328.61 157.78 329.58 159.45
  Q 331.37 162.56 332.62 165.90
  Z"
/>
<path fill="#d8d8d8" d="
  M 160.50 196.04
  Q 161.95 198.08 160.76 200.03
  Q 157.62 205.20 156.93 210.46
  C 155.36 222.43 152.13 234.39 148.30 245.83
  C 148.12 246.37 147.77 246.57 147.44 247.00
  L 69.44 247.00
  L 63.24 246.52
  A 0.42 0.42 0.0 0 1 62.91 245.89
  L 68.33 236.82
  Q 70.20 233.67 68.82 237.06
  L 67.97 239.14
  Q 67.65 239.94 68.44 239.60
  C 72.21 238.03 74.20 231.81 75.14 227.97
  C 77.84 216.86 79.76 205.46 84.36 194.66
  Q 85.04 193.09 86.78 191.31
  Q 89.35 188.70 91.50 184.43
  Q 92.04 183.37 92.11 182.18
  Q 92.63 173.82 91.51 165.95
  L 95.36 164.10
  A 0.44 0.44 0.0 0 1 95.99 164.49
  C 96.00 177.04 95.39 189.94 96.81 202.41
  Q 97.17 205.58 99.83 203.81
  Q 104.55 200.67 107.53 196.10
  A 1.19 1.18 53.4 0 0 107.67 195.11
  Q 105.39 187.71 106.01 179.97
  Q 106.13 178.54 106.99 179.69
  C 112.34 186.71 122.86 197.28 131.97 199.46
  C 135.12 200.22 137.27 198.51 139.13 196.30
  A 0.46 0.46 0.0 0 1 139.80 196.27
  C 145.47 201.79 154.69 200.17 160.50 196.04
  Z"
/>
<path fill="#ffffff" d="
  M 59.58 175.86
  Q 59.97 174.29 61.36 173.46
  C 66.22 170.56 72.18 168.39 77.41 166.17
  A 0.43 0.43 0.0 0 1 78.01 166.57
  L 77.98 187.14
  A 0.76 0.75 -10.9 0 1 77.50 187.84
  Q 71.69 190.17 65.65 190.03
  C 62.00 189.94 59.85 190.56 59.22 186.52
  Q 58.35 180.89 59.58 175.86
  Z"
/>
<path fill="#ffffff" d="
  M 159.90 167.42
  Q 161.33 170.90 160.13 174.59
  C 159.99 175.04 159.61 175.34 159.17 175.22
  A 0.74 0.74 0.0 0 1 158.62 174.41
  L 159.48 167.48
  Q 159.58 166.64 159.90 167.42
  Z"
/>
<path fill="#d8d8d8" d="
  M 338.46 178.00
  C 341.49 179.47 343.15 184.09 345.83 189.52
  C 346.16 190.20 345.98 190.82 345.75 191.46
  L 341.41 193.79
  A 1.46 1.44 -54.3 0 1 340.48 193.95
  C 334.77 193.01 337.18 182.35 338.46 178.00
  Z"
/>
<path fill="#ffffff" d="
  M 376.69 247.00
  L 366.69 247.00
  Q 371.74 245.45 376.69 247.00
  Z"
/>
</svg>
