<?xml version="1.0" encoding="UTF-8" standalone="no"?>
<!-- Created with Inkscape (http://www.inkscape.org/) -->

<svg
   xmlns:dc="http://purl.org/dc/elements/1.1/"
   xmlns:cc="http://creativecommons.org/ns#"
   xmlns:rdf="http://www.w3.org/1999/02/22-rdf-syntax-ns#"
   xmlns:svg="http://www.w3.org/2000/svg"
   xmlns="http://www.w3.org/2000/svg"
   xmlns:sodipodi="http://sodipodi.sourceforge.net/DTD/sodipodi-0.dtd"
   xmlns:inkscape="http://www.inkscape.org/namespaces/inkscape"
   width="400"
   height="600"
   viewBox="0 0 105.83333 158.75"
   version="1.1"
   id="svg8"
   inkscape:version="0.92.4 (5da689c313, 2019-01-14)"
   sodipodi:docname="35_m.svg">
  <defs
     id="defs2" />
  <sodipodi:namedview
     id="base"
     pagecolor="#ffffff"
     bordercolor="#666666"
     borderopacity="1.0"
     inkscape:pageopacity="0.0"
     inkscape:pageshadow="2"
     inkscape:zoom="1.2816667"
     inkscape:cx="232.31038"
     inkscape:cy="399.52069"
     inkscape:document-units="mm"
     inkscape:current-layer="layer1"
     showgrid="false"
     units="px"
     showguides="true"
     inkscape:guide-bbox="true"
     inkscape:window-width="1280"
     inkscape:window-height="968"
     inkscape:window-x="0"
     inkscape:window-y="0"
     inkscape:window-maximized="1">
    <sodipodi:guide
       position="20.78869,60.476191"
       orientation="1,0"
       id="guide859"
       inkscape:locked="false" />
    <sodipodi:guide
       position="20.78869,128.88988"
       orientation="1,0"
       id="guide863"
       inkscape:locked="false" />
    <sodipodi:guide
       position="12.85119,57.641369"
       orientation="1,0"
       id="guide865"
       inkscape:locked="false" />
    <sodipodi:guide
       position="32.339612,108.51143"
       orientation="0,1"
       id="guide867"
       inkscape:locked="false" />
    <sodipodi:guide
       position="-9.0871638,97.553376"
       orientation="0,1"
       id="guide2596"
       inkscape:locked="false" />
    <sodipodi:guide
       position="-16.036171,64.144687"
       orientation="0,1"
       id="guide2598"
       inkscape:locked="false" />
  </sodipodi:namedview>
  <metadata
     id="metadata5">
    <rdf:RDF>
      <cc:Work
         rdf:about="">
        <dc:format>image/svg+xml</dc:format>
        <dc:type
           rdf:resource="http://purl.org/dc/dcmitype/StillImage" />
        <dc:title></dc:title>
      </cc:Work>
    </rdf:RDF>
  </metadata>
  <g
     inkscape:label="Layer 1"
     inkscape:groupmode="layer"
     id="layer1"
     transform="translate(0,-138.24998)">
    <rect
       style="opacity:1;fill:#ffffff;fill-opacity:0.60101007;stroke:#000000;stroke-width:0.27790931;stroke-miterlimit:4;stroke-dasharray:none;stroke-dashoffset:0;stroke-opacity:1"
       id="rect10"
       width="105.4538"
       height="158.75175"
       x="0.17799145"
       y="138.24911"
       ry="7.9375877" />
    <flowRoot
       xml:space="preserve"
       id="flowRoot851"
       style="fill:black;fill-opacity:1;stroke:none;font-family:sans-serif;font-style:normal;font-weight:normal;font-size:40px;line-height:0;letter-spacing:0px;word-spacing:0px"><flowRegion
         id="flowRegion853"><rect
           id="rect855"
           width="114.28571"
           height="65.714287"
           x="47.142857"
           y="194.28572" /></flowRegion><flowPara
         id="flowPara857" /></flowRoot>    <text
       xml:space="preserve"
       style="font-style:normal;font-weight:normal;font-size:33.90801239px;line-height:0;font-family:sans-serif;letter-spacing:0px;word-spacing:0px;fill:#666666;fill-opacity:1;stroke:none;stroke-width:0.84770024"
       x="16.134531"
       y="174.63515"
       id="text827"><tspan
         sodipodi:role="line"
         id="tspan825"
         x="16.134531"
         y="174.63515"
         style="font-style:normal;font-variant:normal;font-weight:bold;font-stretch:normal;font-family:Arsenal;-inkscape-font-specification:'Arsenal Bold';fill:#666666;stroke-width:0.84770024">35</tspan></text>
    <g
       id="g38256"
       transform="matrix(0.2238389,0,0,0.2238389,4.3077947,176.25158)">
      <g
         id="g38041"
         style="fill:none;stroke-width:2;stroke-linecap:butt">
        <path
           id="path37885"
           d="M 31.31,0 21.28,0.4 q -0.42,0.02 -0.03,0.17 c 3.66,1.47 8.26,0.84 11.79,1.51 a 1.59,1.56 -16.5 0 1 0.85,0.45 q 8.49,8.62 16.12,18.07"
           inkscape:connector-curvature="0"
           style="vector-effect:non-scaling-stroke;stroke:#ececec" />
        <path
           id="path37887"
           d="m 50.01,20.6 q -1.5,1.44 -0.88,2.75 a 0.58,0.58 0 0 0 0.72,0.31 l 1.2,-0.41 a 0.59,0.59 0 0 1 0.78,0.54 c 0.76,25.72 -0.55,51.14 3.08,76.74 a 0.75,0.74 -18.8 0 1 -0.37,0.75 c -1.54,0.88 -3.38,0.8 -4.79,1.61 q -5.4,3.09 -7.4,6.68 -2.09,3.74 1.95,2.33 17.05,-5.94 34.38,-10.17"
           inkscape:connector-curvature="0"
           style="vector-effect:non-scaling-stroke;stroke:#828282" />
        <path
           id="path37889"
           d="m 78.68,101.73 c 0.02,2.07 -0.35,3.13 0.14,5.03 q 1.59,6.09 3.07,12.15 0.82,3.36 3.4,2.59"
           inkscape:connector-curvature="0"
           style="vector-effect:non-scaling-stroke;stroke:#ececec" />
        <path
           id="path37891"
           d="m 85.29,121.5 -3.15,9.42 a 0.68,0.67 10.3 0 1 -0.67,0.46 c -7.9,-0.26 -15.86,6.23 -21.71,11.38 -2.48,2.19 -13.81,15.01 -12.32,18.25 a 1.11,1.1 55.8 0 0 1.76,0.34 c 2.71,-2.57 6.57,-5.7 7.9,-8.92 2.89,-6.98 6.53,-10.28 14.19,-11.22 a 0.87,0.84 -20.6 0 1 0.8,0.35 c 3.18,4.5 4.69,12.93 5.1,17.63 a 0.72,0.7 76.2 0 1 -0.42,0.71 c -8.85,3.95 -26.3,15.36 -27.7,25.91 q -0.81,6.15 0.44,11.26 0.67,2.74 3.48,2.9 19.12,1.15 31.31,-12.97 c 4.92,-5.71 3.69,-12.12 3.7,-18.72 a 1.05,1.03 71.7 0 1 0.41,-0.83 q 1.37,-1.09 3.1,-1.5"
           inkscape:connector-curvature="0"
           style="vector-effect:non-scaling-stroke;stroke:#828282" />
        <path
           id="path37893"
           d="m 91.51,165.95 q 1.12,7.87 0.6,16.23 -0.07,1.19 -0.61,2.25 -2.15,4.27 -4.72,6.88 -1.74,1.78 -2.42,3.35 c -4.6,10.8 -6.52,22.2 -9.22,33.31 -0.94,3.84 -2.93,10.06 -6.7,11.63 q -0.79,0.34 -0.47,-0.46 l 0.85,-2.08 q 1.38,-3.39 -0.49,-0.24 l -5.42,9.07 a 0.42,0.42 0 0 0 0.33,0.63 l 6.2,0.48"
           inkscape:connector-curvature="0"
           style="vector-effect:non-scaling-stroke;stroke:#ececec" />
        <path
           id="path37895"
           d="m 120.56,0 q 4.37,0.42 6.01,2.72 5.6,7.88 10.6,21.38 c 1.16,3.14 2.55,5.55 2.65,9.26 a 1.06,1.04 19 0 0 0.4,0.8 c 4.68,3.62 1.27,6.78 3.57,10.84"
           inkscape:connector-curvature="0"
           style="vector-effect:non-scaling-stroke;stroke:#ececec" />
        <path
           id="path37897"
           d="m 143.79,45 c -11.96,3.81 -36.34,9.8 -42.5,21.68 q -0.62,1.19 0.61,0.65 l 11.08,-4.96 a 0.29,0.29 0 0 1 0.41,0.28 l -0.71,11.22 q -0.03,0.48 -0.25,0.92 l -1.6,3.08 a 0.61,0.61 0 0 0 0.41,0.88 l 0.98,0.21 a 0.79,0.78 -84.5 0 1 0.62,0.76 l 0.21,18 a 0.96,0.95 -17.1 0 1 -0.44,0.82 q -3.77,2.51 -5.61,6.73 a 0.39,0.39 0 0 0 0.34,0.55 q 23.71,0.96 47.16,-1.78"
           inkscape:connector-curvature="0"
           style="vector-effect:non-scaling-stroke;stroke:#6e6e6e" />
        <path
           id="path37899"
           d="m 154.5,104.04 q 1.61,2.22 1,5.46 -0.22,1.18 1.21,1.25"
           inkscape:connector-curvature="0"
           style="vector-effect:non-scaling-stroke;stroke:#ececec" />
        <path
           id="path37901"
           d="m 156.71,110.75 -0.1,0.98 a 0.87,0.84 -70.5 0 0 0.36,0.79 q 0.89,0.61 2.03,0.52"
           inkscape:connector-curvature="0"
           style="vector-effect:non-scaling-stroke;stroke:#6e6e6e" />
        <path
           id="path37903"
           d="m 159,113.04 0.09,0.97 a 1.49,1.47 57.8 0 1 -0.2,0.91 q -1.44,2.4 -1.29,4.08 0.73,8.13 0.19,16.25"
           inkscape:connector-curvature="0"
           style="vector-effect:non-scaling-stroke;stroke:#ececec" />
        <path
           id="path37905"
           d="m 157.79,135.25 c -8.3,2.31 -15.06,9.58 -18.58,16.97 -4.42,9.26 -4.68,21.67 -4.07,32.52 q 0.04,0.84 -0.69,1.29 a 0.79,0.78 47.9 0 1 -0.91,-0.05 Q 118.3,174 107.93,157.55 a 0.59,0.58 57.4 0 1 0.17,-0.8 q 19.49,-12.57 23.57,-15.59 c 5.35,-3.97 10.84,-8.15 12.29,-11.91 q 0.47,-1.23 -0.65,-0.54 c -4.76,2.91 -9.56,6.86 -13.6,9.49 q -11.43,7.44 -22.67,14.07 -1.29,0.76 -1.08,-0.73 1.27,-8.75 1.03,-17.6 -0.02,-0.62 -0.54,-0.29 l -4.91,3.1"
           inkscape:connector-curvature="0"
           style="vector-effect:non-scaling-stroke;stroke:#6e6e6e" />
        <path
           id="path37907"
           d="m 101.54,136.75 q -1.22,-9.55 -4.67,-18.62"
           inkscape:connector-curvature="0"
           style="vector-effect:non-scaling-stroke;stroke:#ececec" />
        <path
           id="path37909"
           d="m 96.87,118.13 2.89,-5.95 q 0.52,-1.06 -0.58,-0.66 -2.04,0.75 -3.58,2.25 -1.11,1.09 -0.42,-0.3 5.06,-10.22 3.54,-21.66 a 0.69,0.68 -2.4 0 0 -0.66,-0.6 L 92.07,90.94 A 0.6,0.59 2.9 0 1 91.5,90.32 Q 93.22,50.54 98.46,11.05 98.75,8.89 96.56,8.93 79.35,9.29 62.51,12.44 A 0.44,0.43 85 0 1 62,12.01 L 62.01,9.77 A 0.37,0.37 0 0 0 61.47,9.44 c -4.66,2.38 -8.41,7.22 -11.46,11.16"
           inkscape:connector-curvature="0"
           style="vector-effect:non-scaling-stroke;stroke:#6e6e6e" />
        <path
           id="path37911"
           d="m 116.74,6.64 c -0.32,0.84 4.2,9.35 4.99,10.23 q 0.42,0.46 0.26,-0.14 -1.45,-5.47 -4.65,-10.16 -0.37,-0.54 -0.6,0.07"
           inkscape:connector-curvature="0"
           style="vector-effect:non-scaling-stroke;stroke:#ececec" />
        <path
           id="path37913"
           d="m 264.06,0 -1.59,0.39 a 1.21,1.16 7.6 0 0 -0.74,0.54 c -4.98,8.35 -6.72,17.02 -7.63,26.65 -0.51,5.38 -2.23,9.25 -4.37,13.92 a 1.06,1.02 -46.7 0 0 0.01,0.88 l 0.55,1.12"
           inkscape:connector-curvature="0"
           style="vector-effect:non-scaling-stroke;stroke:#ececec" />
        <path
           id="path37915"
           d="M 250.29,43.5 C 234.44,55.54 223.41,71.05 214.7,88.74 A 0.53,0.53 0 0 1 214.02,89 Q 202.79,84.33 194.66,75.42 c -4.09,-4.48 -4.05,-11.62 -0.64,-16.43 6.37,-8.98 12.82,-18.17 21.55,-25.42 q 2.27,-1.88 3.9,-5.09 0.24,-0.47 -0.27,-0.34 c -8.2,2.11 -21.05,19.39 -25.99,26.09 q -1,1.37 -0.94,-0.33 l 0.93,-24.26 a 0.59,0.59 0 0 0 -0.83,-0.56 c -12.38,5.49 -9,18.13 -9.6,28.93 q -0.07,1.24 -0.69,0.16 C 179.37,53.46 175.45,46.68 170.67,43.9 a 0.69,0.69 0 0 0 -0.78,0.06 q -4.44,3.47 -7.87,7.96 a 0.8,0.8 0 0 0 0,0.96 q 8.2,11.04 15.47,22.73 a 1.4,1.39 -45.3 0 1 0,1.49 l -9.54,15.17 a 1.54,1.49 5.4 0 1 -0.8,0.64 q -6.19,2.15 -12.65,2.13"
           inkscape:connector-curvature="0"
           style="vector-effect:non-scaling-stroke;stroke:#828282" />
        <path
           id="path37917"
           d="M 154.5,95.04 154.22,95 a 0.3,0.29 -87.6 0 1 -0.24,-0.27 Q 153.03,83.6 145.44,75.12"
           inkscape:connector-curvature="0"
           style="vector-effect:non-scaling-stroke;stroke:#ececec" />
        <path
           id="path37919"
           d="m 145.44,75.12 c 2.56,-2.1 10.34,-8.26 8.12,-12.06 a 0.85,0.84 -16.6 0 0 -0.78,-0.42 L 143,63.29"
           inkscape:connector-curvature="0"
           style="vector-effect:non-scaling-stroke;stroke:#828282" />
        <path
           id="path37921"
           d="m 143,63.29 q -1.15,-4.92 -3.38,-9.4"
           inkscape:connector-curvature="0"
           style="vector-effect:non-scaling-stroke;stroke:#ececec" />
        <path
           id="path37923"
           d="m 139.62,53.89 10.64,-2.61 q 0.74,-0.18 0.45,0.52 l -0.47,1.13 a 0.62,0.62 0 0 0 0.35,0.82 c 1.77,0.68 9.82,-9.41 10.73,-10.75 q 1.28,-1.92 -1,-1.58 -8.41,1.27 -16.53,3.58"
           inkscape:connector-curvature="0"
           style="vector-effect:non-scaling-stroke;stroke:#828282" />
        <path
           id="path37925"
           d="m 330.81,0 3.79,0.72 a 0.28,0.28 0 0 1 0.17,0.45 q -6.11,7.67 -6.01,17.3 0,0.36 0.24,0.47 a 0.53,0.53 0 0 0 0.73,-0.31 l 0.35,-1.06 a 0.54,0.54 0 0 1 0.85,-0.25 l 0.4,0.32 a 0.51,0.5 31.1 0 0 0.78,-0.19 c 1.94,-4.59 2.41,-7.73 5.83,-11.61 q 0.33,-0.37 0.15,0.09 c -4.02,9.9 -4.5,21.41 -11.79,28.95 a 0.54,0.54 0 0 1 -0.87,-0.13 l -0.41,-0.78 A 0.83,0.83 0 0 1 325.17,33 c 1.87,-1.88 1.48,-3.97 1.99,-5.83 q 0.92,-3.35 1.92,-6.69 A 0.12,0.11 19.1 0 0 329,20.33 l -0.3,-0.09 a 0.3,0.29 18.1 0 0 -0.37,0.18 q -2.29,6.56 -4.53,13.14 c -1.33,3.91 -5.38,6.5 -8.75,8.49 q -0.64,0.39 -1.34,1.64 a 1.49,1.49 0 0 1 -0.67,0.64 q -1.08,0.5 -0.92,1.69 0.09,0.67 0.54,0.17 1.19,-1.31 2.45,0.13 a 0.91,0.89 32.2 0 1 0.2,0.84 q -0.85,3.25 -4.04,7.6 -2.43,3.3 0.23,6.35"
           inkscape:connector-curvature="0"
           style="vector-effect:non-scaling-stroke;stroke:#ececec" />
        <path
           id="path37927"
           d="m 311.5,61.11 c -0.32,2.8 -1.08,18.71 -2.79,19.67 a 0.35,0.34 72.7 0 1 -0.51,-0.27 c -0.68,-7.39 -3.26,-12.78 -11.95,-11.6 q -0.48,0.06 -0.14,-0.27 c 6.5,-6.26 13.58,-13.95 10.3,-23.81 a 0.93,0.91 82.1 0 0 -0.83,-0.64 q -9.61,-0.56 -19.09,0.84 -2.45,0.36 -2.9,-1.49 a 0.42,0.41 63.7 0 0 -0.66,-0.23 l -3.81,2.99 q -0.37,0.3 -0.84,0.38 -8.7,1.57 -13.92,8.68 -2.26,3.09 1.46,2.21 l 7.63,-1.79 a 0.6,0.6 0 0 1 0.73,0.62 l -1.02,17.09 a 1.27,1.27 0 0 1 -0.53,0.95 c -2.69,1.9 -17.55,11.18 -15.38,15 a 0.75,0.74 67.2 0 0 0.85,0.35 l 8.5,-2.35 a 0.4,0.4 0 0 1 0.51,0.38 q -0.01,0.19 -0.16,0.38 -3.89,4.88 -6,10.73 -0.16,0.45 -0.45,0.07 -5.36,-7.11 -6.82,-15.88 a 0.69,0.69 0 0 1 0.52,-0.78 q 11.01,-2.6 17.47,-11.91 0.28,-0.39 -0.2,-0.42 -1.3,-0.07 -2.74,0.45 -7.82,2.86 -15.47,4.46 -2.02,0.42 -2.05,-1.63 l -0.37,-23.42 a 1.57,1.55 -27.6 0 1 0.31,-0.96 q 1.09,-1.49 4.85,-5.91 0.78,-0.92 0.05,-1.69 a 0.75,0.72 54.7 0 0 -0.86,-0.16 l -4.9,2.35"
           inkscape:connector-curvature="0"
           style="vector-effect:non-scaling-stroke;stroke:#6e6e6e" />
        <path
           id="path37929"
           d="m 338.31,0 q -2.89,0.46 -2.14,3.23 a 0.79,0.78 -8.3 0 0 0.79,0.58 l 0.66,-0.02 a 0.54,0.53 86.5 0 0 0.52,-0.59 l -0.13,-1.1 a 0.64,0.63 77.8 0 1 0.43,-0.68 l 1.51,-0.51 a 0.34,0.34 0 0 0 0.16,-0.52 L 339.81,0"
           inkscape:connector-curvature="0"
           style="vector-effect:non-scaling-stroke;stroke:#ececec" />
        <path
           id="path37931"
           d="m 378.33,246.93 q -3.99,-8.31 -9.79,-15.41 -0.9,-1.11 -5.59,-5.55 c -2.41,-2.28 -11.12,-13.1 -9.02,-16.78 q 0.29,-0.49 0.56,0.01 l 8.39,15.27 a 0.95,0.95 0 0 0 1.02,0.47 q 1.12,-0.22 1.89,0.8 0.92,1.2 0.44,-0.46 c -2.52,-8.77 -9.05,-15.91 -14.56,-24.46 q -0.6,-0.93 -2.8,-3.26 a 1.11,1.1 -65.5 0 1 -0.31,-0.84 q 0.21,-3.01 -2.6,-4.22"
           inkscape:connector-curvature="0"
           style="vector-effect:non-scaling-stroke;stroke:#ececec" />
        <path
           id="path37933"
           d="m 345.96,192.5 -0.21,-1.04"
           inkscape:connector-curvature="0"
           style="vector-effect:non-scaling-stroke;stroke:#828282" />
        <path
           id="path37935"
           d="m 345.75,191.46 c 0.23,-0.64 0.41,-1.26 0.08,-1.94 -2.68,-5.43 -4.34,-10.05 -7.37,-11.52"
           inkscape:connector-curvature="0"
           style="vector-effect:non-scaling-stroke;stroke:#ececec" />
        <path
           id="path37937"
           d="m 338.46,178 q -0.01,-1.45 0.78,-2.6 a 0.94,0.94 0 0 1 0.77,-0.4 h 13.96 a 0.57,0.57 0 0 1 0.57,0.5 c 1.39,11.09 2.24,19.44 9.5,28.53 a 0.66,0.65 -33.7 0 0 0.82,0.16 q 5.38,-2.99 8.87,-8.1 a 1.23,1.22 43.8 0 0 -0.03,-1.42 q -6.75,-8.95 -8.16,-20.14 a 0.43,0.43 0 0 1 0.43,-0.48 c 5.68,0.08 9.5,-4.76 13.75,-9.6 q 0.5,-0.58 -0.26,-0.54 l -14.3,0.79 a 1.05,1.04 88.2 0 1 -1.1,-1.04 l -0.2,-24.08 a 0.69,0.68 75.6 0 0 -1.01,-0.6 q -5.23,2.84 -8.64,7.71 -1.07,1.52 -0.96,3.37 l 0.8,14.19 a 0.64,0.63 -4.8 0 1 -0.56,0.66 l -10.95,1.15 a 0.42,0.41 -82.9 0 1 -0.43,-0.56 c 4.83,-13.56 12.57,-23.75 20.74,-35.42 q 1.26,-1.8 -0.93,-1.92 -21.29,-1.19 -43.05,3.14"
           inkscape:connector-curvature="0"
           style="vector-effect:non-scaling-stroke;stroke:#828282" />
        <path
           id="path37939"
           d="m 318.87,131.3 q -0.58,-6.4 -1.93,-12.53 -0.32,-1.48 -1.21,-1.21 -0.81,0.25 -0.31,-0.43 2.55,-3.44 1.29,-6.13"
           inkscape:connector-curvature="0"
           style="vector-effect:non-scaling-stroke;stroke:#ececec" />
        <path
           id="path37941"
           d="m 316.71,111 q 3.03,-2.35 4.3,-5.99 a 1.55,1.5 -45.8 0 0 0,-0.99 q -2.98,-8.95 -1.82,-18.4 a 0.81,0.8 -0.1 0 1 0.7,-0.69 l 6.75,-0.9 a 0.33,0.33 0 0 1 0.37,0.39 q -1.61,9.13 -1.71,18.33 -0.12,10.48 9.71,13.41 c 8.78,2.61 15.87,0.97 23.11,-4.85 15.56,-12.52 21.26,-27.31 21.1,-47.07 q -0.1,-13.1 -12.13,-17.62 c -6.91,-2.59 -16.04,-3.91 -22.07,-0.09 -10.98,6.95 -18.55,17.77 -25.38,29.04 q -0.27,0.44 -0.22,-0.07 l 1.93,-22.26 q 0.09,-1.14 -0.93,-0.63 -5.29,2.6 -8.92,8.5"
           inkscape:connector-curvature="0"
           style="vector-effect:non-scaling-stroke;stroke:#828282" />
        <path
           id="path37943"
           d="m 96.87,118.13 c -3.77,6.13 -6.07,12.04 -12.54,15.88 a 0.81,0.81 0 0 0 -0.36,0.95 q 3.03,9.33 3.89,19.03 c 0.28,3.24 0.02,7.33 0.27,11.01 q 0.03,0.43 0.27,0.08 L 92.54,159"
           inkscape:connector-curvature="0"
           style="vector-effect:non-scaling-stroke;stroke:#828282" />
        <path
           id="path37945"
           d="m 92.54,159 2.78,-2.11 a 1.5,1.46 -11.6 0 0 0.54,-0.8 q 1.4,-5.24 0.83,-10.1"
           inkscape:connector-curvature="0"
           style="vector-effect:non-scaling-stroke;stroke:#6e6e6e" />
        <path
           id="path37947"
           d="m 96.69,145.99 q 0.58,-5.95 4.85,-9.24"
           inkscape:connector-curvature="0"
           style="vector-effect:non-scaling-stroke;stroke:#828282" />
        <path
           id="path37949"
           d="m 157.79,135.25 q 10.79,-1.36 19.72,1.23 c 1.96,0.57 6.1,3.51 3.6,6.09 a 0.26,0.25 -53.6 0 0 0.06,0.4 c 0.14,0.08 0.62,-0.02 0.78,-0.15 7.68,-6.16 20.75,-9.45 30.57,-10.31 a 1.36,1.36 0 0 1 1.48,1.35 q 0,29.01 0.25,57.14 0.01,0.99 0.78,1.49 1.71,1.14 0.25,2.59 l -7.64,7.63 q -2.38,2.37 -2.94,-0.94 -0.59,-3.47 -0.6,-7.03 -0.06,-25.99 -0.15,-52.08 a 0.61,0.6 -5.8 0 0 -0.73,-0.59 l -8.6,1.78 A 0.77,0.76 -5.5 0 0 194,144.6 q -0.22,20.6 2.12,41.06 0.26,2.26 -1,4.15 -3.34,5.02 -8.78,7.45 a 0.45,0.45 0 0 1 -0.64,-0.42 q 0.16,-10.89 -1.74,-21.61 -0.11,-0.64 -0.57,-0.18 c -8.69,8.82 -14.28,14.99 -22.89,20.99"
           inkscape:connector-curvature="0"
           style="vector-effect:non-scaling-stroke;stroke:#828282" />
        <path
           id="path37951"
           d="m 160.5,196.04 c -5.81,4.13 -15.03,5.75 -20.7,0.23 a 0.46,0.46 0 0 0 -0.67,0.03 c -1.86,2.21 -4.01,3.92 -7.16,3.16 -9.11,-2.18 -19.63,-12.75 -24.98,-19.77 q -0.86,-1.15 -0.98,0.28 -0.62,7.74 1.66,15.14 a 1.19,1.18 53.4 0 1 -0.14,0.99 q -2.98,4.57 -7.7,7.71 -2.66,1.77 -3.02,-1.4 C 95.39,189.94 96,177.04 95.99,164.49 a 0.44,0.44 0 0 0 -0.63,-0.39 l -3.85,1.85"
           inkscape:connector-curvature="0"
           style="vector-effect:non-scaling-stroke;stroke:#6e6e6e" />
        <path
           id="path37953"
           d="m 85.29,121.5 1.17,-2.75"
           inkscape:connector-curvature="0"
           style="vector-effect:non-scaling-stroke;stroke:#6e6e6e" />
        <path
           id="path37955"
           d="m 86.46,118.75 q 3.33,-8.18 2.29,-16.95 a 0.72,0.71 2.9 0 0 -0.56,-0.61 q -4.03,-0.88 -6.48,2.56"
           inkscape:connector-curvature="0"
           style="vector-effect:non-scaling-stroke;stroke:#828282" />
        <path
           id="path37957"
           d="m 81.71,103.75 q -1.04,0.5 -2.04,0.2 a 0.81,0.8 -88.8 0 1 -0.55,-0.58 l -0.44,-1.64"
           inkscape:connector-curvature="0"
           style="vector-effect:non-scaling-stroke;stroke:#6e6e6e" />
        <path
           id="path37959"
           d="m 62.29,54.25 q -0.18,21.45 3.67,42.59 a 0.61,0.61 0 0 0 0.78,0.47 l 8.3,-2.56"
           inkscape:connector-curvature="0"
           style="vector-effect:non-scaling-stroke;stroke:#828282" />
        <path
           id="path37961"
           d="m 75.04,94.75 6.29,-1.59 a 0.7,0.69 85 0 0 0.53,-0.64 Q 83.29,56.7 88.23,21.19 88.56,18.84 86.19,18.92 74.4,19.29 62.81,20.9 a 0.62,0.61 86.3 0 0 -0.53,0.61 l 0.01,32.74"
           inkscape:connector-curvature="0"
           style="vector-effect:non-scaling-stroke;stroke:#6e6e6e" />
        <path
           id="path37963"
           d="M 75.04,94.75 C 75.38,89.33 73.22,82.57 71.87,77.27 71.22,74.72 71.82,72.46 71.51,69.81 A 0.82,0.81 1.4 0 0 70.83,69.1 L 69.85,68.94 A 0.69,0.67 87.3 0 1 69.3,68.43 l -1.48,-6.3 a 0.49,0.48 -5.8 0 0 -0.48,-0.38 l -0.27,0.01 a 0.77,0.76 77 0 1 -0.71,-0.45 c -0.98,-2.11 -0.97,-6.9 -4.07,-7.06"
           inkscape:connector-curvature="0"
           style="vector-effect:non-scaling-stroke;stroke:#ececec" />
        <path
           id="path37965"
           d="m 164.75,188.04 c 14.8,-8.62 19.17,-21.28 19.49,-37.89 a 1.59,1.5 -30 0 1 0.23,-0.77 l 1.6,-2.5 q 0.66,-1.02 -0.47,-0.57 l -6.8,2.72 q -1.41,0.56 -0.66,-0.76 l 1.59,-2.82 q 0.72,-1.28 -0.35,-0.28 l -5.67,5.29 a 0.97,0.97 0 0 1 -1.58,-0.41 C 170.81,145.94 162.26,145 158.79,145"
           inkscape:connector-curvature="0"
           style="vector-effect:non-scaling-stroke;stroke:#828282" />
        <path
           id="path37967"
           d="m 158.79,145 q -4.78,-0.71 -9.54,0.39 a 1.09,1.06 5.8 0 0 -0.71,0.56 c -3.48,6.86 -3.83,17.97 -3.29,25.26 a 0.91,0.9 -80.2 0 0 0.53,0.76 l 0.48,0.22 a 0.89,0.88 -77.2 0 1 0.52,0.84 c -0.15,3.52 -0.65,9.38 1.76,12.23 q 6.45,7.63 16.21,2.78"
           inkscape:connector-curvature="0"
           style="vector-effect:non-scaling-stroke;stroke:#6e6e6e" />
        <path
           id="path37969"
           d="m 158.79,145 c -0.07,3.63 1.73,6.64 3.11,9.88 2.11,5 1.8,8.75 1.45,14.05 q -0.46,6.89 0.25,18.4 a 0.77,0.75 -83.9 0 0 0.53,0.67 q 0.33,0.1 0.62,0.04"
           inkscape:connector-curvature="0"
           style="vector-effect:non-scaling-stroke;stroke:#ececec" />
        <path
           id="path37971"
           d="m 59.58,175.86 q -1.23,5.03 -0.36,10.66 c 0.63,4.04 2.78,3.42 6.43,3.51 q 6.04,0.14 11.85,-2.19 a 0.76,0.75 -10.9 0 0 0.48,-0.7 l 0.03,-20.57 a 0.43,0.43 0 0 0 -0.6,-0.4 c -5.23,2.22 -11.19,4.39 -16.05,7.29 q -1.39,0.83 -1.78,2.4"
           inkscape:connector-curvature="0"
           style="vector-effect:non-scaling-stroke;stroke:#828282" />
        <path
           id="path37973"
           d="m 70.01,52.05 c 1.32,2.52 3.72,4.9 5.2,8.5 q 0.33,0.8 -0.52,0.64 l -0.83,-0.16 a 0.45,0.45 0 0 0 -0.53,0.53 q 0.29,1.31 0.16,2.68 -0.17,1.7 -1.06,0.24 -0.39,-0.63 -1.06,-0.99 -1.13,-0.59 -0.71,0.61 l 1.63,4.66 q 0.17,0.49 0.23,1 0.12,1.25 1.07,2.04 a 0.55,0.54 -60 0 0 0.85,-0.23 l 0.67,-1.73 q 0.23,-0.61 0.62,-0.09 l 1.45,1.96 q 0.6,0.81 0.92,-0.14 c 2,-5.87 1.8,-7.76 -0.99,-13.25 -1.36,-2.68 -4.31,-4.5 -6.32,-6.98 a 0.29,0.28 -34.6 0 0 -0.36,-0.06 l -0.24,0.15 a 0.47,0.46 -29.4 0 0 -0.18,0.62"
           inkscape:connector-curvature="0"
           style="vector-effect:non-scaling-stroke;stroke:#ececec" />
        <path
           id="path37975"
           d="m 316.71,111 -4.08,3.52 q -2.32,2.01 -3.01,-0.98 c -0.74,-3.16 -0.29,-6.23 -1.45,-9.17 q -1.71,-4.33 -3.48,-8.67 -0.19,-0.46 -0.49,-0.06 c -6.92,9.31 -15.35,16.96 -27.49,17.51 -8.27,0.38 -13.25,1.86 -15.69,-7.77 q -0.39,-1.55 -1.52,-0.41 l -4.45,4.47 q -1.53,1.54 -3.12,0.08 C 247,105.01 245.62,99.4 243.39,93.22"
           inkscape:connector-curvature="0"
           style="vector-effect:non-scaling-stroke;stroke:#6e6e6e" />
        <path
           id="path37977"
           d="m 243.39,93.22 -1.53,-6.97 a 0.49,0.48 79.7 0 0 -0.54,-0.38 l -18.8,2.47 a 0.68,0.67 -6.3 0 0 -0.58,0.72 l 0.09,1.26 a 0.73,0.72 -1.7 0 0 0.72,0.67 l 5.77,0.04 a 0.57,0.56 -76.6 0 1 0.5,0.82 l -1.86,3.75 a 0.28,0.28 0 0 0 0.24,0.41 h 0.28 a 1.14,1.11 -62.8 0 0 0.72,-0.24 l 7.07,-5.6 q 1.39,-1.1 0.69,0.53 c -2.23,5.14 -8.7,10.12 -13.23,13.22 q -3.51,2.4 -8.73,1.97 -1.81,-0.15 -2.07,-1.95 l -0.43,-3 a 0.82,0.81 0.5 0 0 -0.69,-0.7 q -9.04,-1.37 -16.38,-6.84 a 0.33,0.18 43.8 0 0 -0.28,-0.08 l -0.24,0.11 a 0.07,0.07 0 0 0 -0.03,0.09 c 2.91,5.05 7.12,10.9 13.3,10.8 q 2.9,-0.05 0.95,2.1 c -5.28,5.83 -11.42,11.8 -18.84,3.77 q -9.22,-9.98 -7.58,-23.76 c 0.24,-1.99 -0.1,-3.89 -0.48,-5.72 q -0.33,-1.51 -1.14,-0.19 l -13.21,21.45 a 0.71,0.71 0 0 0 0.13,0.9 c 0.36,0.33 3.52,-0.87 4.49,-0.86 q 0.79,0 0.37,0.68 -4.72,7.61 -13.07,10.35"
           inkscape:connector-curvature="0"
           style="vector-effect:non-scaling-stroke;stroke:#828282" />
        <path
           id="path37979"
           d="m 156.71,110.75 5.44,-8.92 a 0.44,0.43 28.4 0 0 -0.19,-0.62 q -0.23,-0.1 -0.47,0.02 -3.61,1.95 -6.99,2.81"
           inkscape:connector-curvature="0"
           style="vector-effect:non-scaling-stroke;stroke:#828282" />
        <path
           id="path37981"
           d="m 139.62,53.89 -15.56,4.53 a 1.44,1.43 82.1 0 0 -1.03,1.37 l -0.04,7.45 a 0.83,0.82 83 0 0 1.03,0.81 L 143,63.29"
           inkscape:connector-curvature="0"
           style="vector-effect:non-scaling-stroke;stroke:#6e6e6e" />
        <path
           id="path37983"
           d="m 145.44,75.12 q -0.34,0.77 -0.97,0.76 a 0.45,0.44 4.9 0 1 -0.44,-0.52 c 0.51,-2.94 -1.1,-3.28 -3.5,-2.95 q -8,1.09 -16.12,3.01 a 1.95,1.95 0 0 0 -1.49,1.93 l 0.34,17.9 a 0.66,0.66 0 0 0 0.64,0.65 q 15.38,0.53 30.6,-0.86"
           inkscape:connector-curvature="0"
           style="vector-effect:non-scaling-stroke;stroke:#6e6e6e" />
        <path
           id="path37985"
           d="m 288.19,69.49 0.92,0.11 a 1.78,1.75 -54.4 0 0 1.03,-0.18 q 8.37,-4.15 6.82,-13.63 -0.28,-1.76 -2.06,-1.76 l -10.23,-0.04 a 0.64,0.63 1.4 0 0 -0.64,0.6 l -0.85,15.61 q -0.08,1.57 1.32,0.86 l 2.78,-1.41 a 1.57,1.57 0 0 1 0.91,-0.16"
           inkscape:connector-curvature="0"
           style="vector-effect:non-scaling-stroke;stroke:#6e6e6e" />
        <path
           id="path37987"
           d="m 346.79,75.23 q -3.68,5.78 -10.08,8.12 a 1.05,1.04 83.5 0 0 -0.67,0.85 q -0.66,5.13 -0.81,8.78 c -0.49,12.05 9.6,15.19 19.57,14.16 12.92,-1.34 14.91,-25.83 14.48,-35.48 -0.56,-12.34 -13.21,-17.3 -23.81,-17.62 a 1.6,1.59 -77.3 0 0 -1.52,0.97 q -3.75,8.73 -6.1,17.94 a 0.42,0.42 0 0 0 0.44,0.53 l 7.13,-0.54 q 2.98,-0.23 1.37,2.29"
           inkscape:connector-curvature="0"
           style="vector-effect:non-scaling-stroke;stroke:#828282" />
        <path
           id="path37989"
           d="m 238.76,57.71 q -7.19,9.25 -12.51,19.77 a 0.31,0.31 0 0 0 0.26,0.45 q 6.75,0.42 13.46,-0.54 a 1.07,1.07 0 0 0 0.92,-1.08 L 240.6,58.32 q -0.05,-2.92 -1.84,-0.61"
           inkscape:connector-curvature="0"
           style="vector-effect:non-scaling-stroke;stroke:#828282" />
        <path
           id="path37991"
           d="m 335.94,57.94 c -4.24,5.93 -7.58,12.01 -12.18,17.62 q -0.59,0.72 0.32,0.53 l 5,-1.03 a 0.86,0.85 -87.1 0 0 0.65,-0.59 q 2.75,-8.66 6.9,-16.75 0.24,-0.49 -0.29,-0.38 -0.4,0.09 -0.4,0.6"
           inkscape:connector-curvature="0"
           style="vector-effect:non-scaling-stroke;stroke:#828282" />
        <path
           id="path37993"
           d="m 288.22,101.75 0.02,0.45 a 0.61,0.61 0 0 0 0.61,0.57 c 7.33,-0.03 9.81,-4.71 9.45,-11.31 -0.53,-9.54 -3.73,-14.92 -14.4,-12.17 a 0.8,0.8 0 0 0 -0.58,0.63 c -1.15,6.81 -1.02,16.34 4.68,21.4 a 0.63,0.63 0 0 1 0.22,0.43"
           inkscape:connector-curvature="0"
           style="vector-effect:non-scaling-stroke;stroke:#6e6e6e" />
        <path
           id="path37995"
           d="m 272.1949,100.86 a 7.2,0.91 90.2 0 0 0.9351,-7.1968 7.2,0.91 90.2 0 0 -0.8849,-7.2032 7.2,0.91 90.2 0 0 -0.9351,7.1968 7.2,0.91 90.2 0 0 0.8849,7.2032"
           inkscape:connector-curvature="0"
           style="vector-effect:non-scaling-stroke;stroke:#6e6e6e" />
        <path
           id="path37997"
           d="m 243.39,93.22 q -1.04,7.23 0.64,15.27 0.62,2.98 1.89,4.57 0.07,0.09 0.07,0.02 -0.17,-1.48 -0.75,-2.77 a 0.73,0.72 -30.3 0 1 0.24,-0.89 c 1.74,-1.26 4.04,4.94 4.05,5.08 q 1.24,10.39 2.53,20.72"
           inkscape:connector-curvature="0"
           style="vector-effect:non-scaling-stroke;stroke:#ececec" />
        <path
           id="path37999"
           d="m 252.06,135.22 c -10.74,1.67 -24.44,3.46 -31.42,12.89 q -0.62,0.84 -0.61,1.94 a 0.41,0.41 0 0 0 0.52,0.39 l 1.57,-0.46 a 0.39,0.39 0 0 1 0.5,0.44 c -1.55,9.19 -0.67,21.67 -0.61,36.29 a 1.39,1.38 63.8 0 1 -0.3,0.89 c -1.22,1.59 -3.65,3.33 -3.72,5.37 a 0.78,0.77 -87.8 0 0 0.74,0.81 l 2.58,0.13 a 0.72,0.71 1.3 0 1 0.69,0.71 v 5.8 q 0,0.75 0.58,0.27 l 7.6,-6.26 a 1.36,1.34 -65.8 0 1 0.8,-0.31 c 6,-0.25 17.41,0.02 21.93,-4.45 0.88,-0.88 6.31,-6.1 6.13,-6.96 a 0.54,0.54 0 0 0 -0.63,-0.42 q -12.82,2.38 -25.87,1.59 A 0.58,0.57 -88.4 0 1 232,183.3 v -18.73 a 1.73,1.72 -1.8 0 1 1.62,-1.72 q 5.78,-0.33 11.26,-0.85 c 4.03,-0.39 7.33,-3.7 9.87,-6.54"
           inkscape:connector-curvature="0"
           style="vector-effect:non-scaling-stroke;stroke:#828282" />
        <path
           id="path38001"
           d="m 254.75,155.46 3.1,0.89 a 0.58,0.57 15.9 0 1 0.4,0.7 l -1.44,5.21 a 0.73,0.73 0 0 0 0.56,0.92 l 2.75,0.52 a 1.09,1.06 -12 0 1 0.68,0.43 q 2.26,3.14 2.74,6.87"
           inkscape:connector-curvature="0"
           style="vector-effect:non-scaling-stroke;stroke:#ececec" />
        <path
           id="path38003"
           d="m 263.54,171 c -1.67,7.06 0.06,16.37 6.79,20.5 a 0.9,0.86 17.3 0 1 0.42,0.76 c -0.29,16.33 -0.88,32.72 0.38,49.01 a 0.89,0.88 -16.9 0 0 1.32,0.7 q 4.52,-2.56 7.48,-6.87 1.31,-1.91 1.18,-4.23 -0.65,-11.35 -0.14,-22.76"
           inkscape:connector-curvature="0"
           style="vector-effect:non-scaling-stroke;stroke:#828282" />
        <path
           id="path38005"
           d="m 280.97,208.11 q 7.05,9.67 13.23,19.9 0.28,0.46 -0.25,0.37 c -1.44,-0.27 -4.09,-3.73 -5.71,-4.66 a 0.43,0.42 -65.2 0 0 -0.62,0.23 c -0.78,2.36 3.37,3.13 2.52,5.17 q -0.66,1.56 -1.55,0.12 l -5,-8.06 a 0.59,0.55 45.6 0 0 -0.97,-0.04 c -0.56,0.9 3.38,8.15 4.03,9.45 q 0.84,1.7 0.95,4 0.3,6.29 3.81,11.67 a 1,0.99 75.9 0 0 0.72,0.44 l 2.56,0.3"
           inkscape:connector-curvature="0"
           style="vector-effect:non-scaling-stroke;stroke:#ececec" />
        <path
           id="path38007"
           d="m 147.44,247 c 0.33,-0.43 0.68,-0.63 0.86,-1.17 3.83,-11.44 7.06,-23.4 8.63,-35.37 q 0.69,-5.26 3.83,-10.43 1.19,-1.95 -0.26,-3.99"
           inkscape:connector-curvature="0"
           style="vector-effect:non-scaling-stroke;stroke:#ececec" />
        <path
           id="path38009"
           d="m 318.87,131.3 -13.71,3.57 a 0.82,0.8 61.6 0 1 -0.8,-0.25 c -5.61,-6.34 -15.21,-3.48 -22.66,-0.72 a 0.46,0.45 72.1 0 1 -0.6,-0.31 l -0.57,-2.16 a 0.49,0.49 0 0 0 -0.7,-0.3 c -4.21,2.2 -20.82,20.23 -19.56,21.78 a 0.62,0.61 53.8 0 0 0.81,0.13 q 5.07,-3.27 9,-7.84 0.42,-0.49 0.5,0.15 c 0.49,4.13 1.48,12.04 -0.89,15.64 -2.26,3.42 -4.29,5.5 -6.15,10.01"
           inkscape:connector-curvature="0"
           style="vector-effect:non-scaling-stroke;stroke:#6e6e6e" />
        <path
           id="path38011"
           d="m 254.75,155.46 1.96,-2.8 a 0.33,0.33 0 0 0 -0.2,-0.52 l -0.76,-0.18"
           inkscape:connector-curvature="0"
           style="vector-effect:non-scaling-stroke;stroke:#6e6e6e" />
        <path
           id="path38013"
           d="m 255.75,151.96 c 3.11,0.02 1.17,-4.96 0.64,-6.63 a 0.51,0.5 -28.2 0 0 -0.8,-0.24 l -0.25,0.22 a 0.97,0.94 -22.5 0 0 -0.35,0.81 l 0.22,3.62 q 0.1,1.67 -0.71,0.2 -1.59,-2.86 -1.89,-5.75"
           inkscape:connector-curvature="0"
           style="vector-effect:non-scaling-stroke;stroke:#ececec" />
        <path
           id="path38015"
           d="m 252.61,144.19 q 9.17,-1.11 13.23,-9.74 0.26,-0.56 -0.35,-0.5 l -13.43,1.27"
           inkscape:connector-curvature="0"
           style="vector-effect:non-scaling-stroke;stroke:#6e6e6e" />
        <path
           id="path38017"
           d="m 86.46,118.75 h -0.52 a 0.68,0.68 0 0 1 -0.65,-0.47 q -0.8,-2.4 -0.83,-4.91 c -0.03,-2.36 -0.57,-4.17 -0.91,-6.35 a 0.93,0.9 -82.9 0 0 -0.52,-0.69 q -1.48,-0.67 -1.32,-2.58"
           inkscape:connector-curvature="0"
           style="vector-effect:non-scaling-stroke;stroke:#ececec" />
        <path
           id="path38019"
           d="m 96.69,145.99 q -4.46,-2.98 -4.99,-8.75 a 0.51,0.5 2.2 0 0 -0.43,-0.46 l -0.26,-0.03 a 0.39,0.38 5.5 0 0 -0.44,0.36 Q 90.01,148.2 92.54,159"
           inkscape:connector-curvature="0"
           style="vector-effect:non-scaling-stroke;stroke:#ececec" />
        <path
           id="path38021"
           d="m 338.46,178 c -1.28,4.35 -3.69,15.01 2.02,15.95 a 1.46,1.44 -54.3 0 0 0.93,-0.16 l 4.34,-2.33"
           inkscape:connector-curvature="0"
           style="vector-effect:non-scaling-stroke;stroke:#6e6e6e" />
        <path
           id="path38023"
           d="m 345.96,192.5 c -2.67,3.79 -11.17,13.52 -16.41,10.92 q -3.06,-1.52 -2.85,-4.95 0.64,-10.7 4.26,-21.79 A 0.52,0.52 0 0 0 330.47,176 h -7.04 a 0.73,0.73 0 0 0 -0.72,0.6 q -1.39,7.33 0.96,14.32 a 1.23,1.21 -37.9 0 1 -0.14,1.06 q -3.46,5.31 -8.84,8.66 a 0.73,0.73 0 0 1 -1.03,-0.27 c -0.97,-1.73 -1.54,-3.77 -1.51,-5.9 q 0.4,-22.66 2.85,-46.89 0.26,-2.6 -2.35,-2.59 L 308.8,145 a 0.57,0.57 0 0 0 -0.56,0.66 c 1.48,8.88 1.77,18.96 -2.09,27.03 -4.04,8.45 -13.64,18.67 -23.85,18.52 a 1.49,1.49 0 0 0 -1.51,1.51 l 0.18,15.39"
           inkscape:connector-curvature="0"
           style="vector-effect:non-scaling-stroke;stroke:#6e6e6e" />
        <path
           id="path38025"
           d="m 324,153.46 q -1.17,8.41 -0.94,17.03 0.02,0.5 0.4,0.19 c 2.99,-2.45 5.05,-4.76 9.16,-4.78"
           inkscape:connector-curvature="0"
           style="vector-effect:non-scaling-stroke;stroke:#6e6e6e" />
        <path
           id="path38027"
           d="m 332.62,165.9 q 2.2,0.75 3.05,-0.92 c 4.92,-9.56 10.69,-17.49 16.56,-26.41 q 0.32,-0.48 -0.26,-0.5 -13.03,-0.41 -26,0.62 a 0.84,0.82 0 0 0 -0.76,0.75 L 324,153.46"
           inkscape:connector-curvature="0"
           style="vector-effect:non-scaling-stroke;stroke:#828282" />
        <path
           id="path38029"
           d="m 332.62,165.9 q -1.25,-3.34 -3.04,-6.45 c -0.97,-1.67 -1.6,-4.13 -3.18,-5.83 a 1.01,1 65.3 0 0 -0.83,-0.31 l -1.57,0.15"
           inkscape:connector-curvature="0"
           style="vector-effect:non-scaling-stroke;stroke:#ececec" />
        <path
           id="path38031"
           d="m 281.04,141.76 -0.06,8.68 q 0,0.47 0.39,0.22 l 11.4,-7.32 a 0.53,0.53 0 0 0 0.06,-0.86 c -2.45,-2.03 -8.27,-1.66 -11.18,-1.38 a 0.68,0.67 -2.4 0 0 -0.61,0.66"
           inkscape:connector-curvature="0"
           style="vector-effect:non-scaling-stroke;stroke:#6e6e6e" />
        <path
           id="path38033"
           d="m 281.03,155.74 -0.04,25.72 a 0.67,0.67 0 0 0 0.72,0.68 l 11.98,-0.89 q 3.43,-0.25 4.14,-3.61 3.08,-14.59 -1.02,-28.99 a 0.61,0.6 70 0 0 -0.83,-0.39 l -14.34,6.53 a 1.05,1.04 -12.4 0 0 -0.61,0.95"
           inkscape:connector-curvature="0"
           style="vector-effect:non-scaling-stroke;stroke:#6e6e6e" />
        <path
           id="path38035"
           d="m 252.61,144.19 q -10.31,0.47 -20.13,3.07 a 0.67,0.67 0 0 0 -0.5,0.65 l 0.06,8.32 q 0.01,0.69 0.55,0.25 c 1.8,-1.46 2.91,-2.59 5.35,-2.95 q 8.87,-1.31 17.81,-1.57"
           inkscape:connector-curvature="0"
           style="vector-effect:non-scaling-stroke;stroke:#828282" />
        <path
           id="path38037"
           d="m 159.48,167.48 -0.86,6.93 a 0.74,0.74 0 0 0 0.55,0.81 c 0.44,0.12 0.82,-0.18 0.96,-0.63 q 1.2,-3.69 -0.23,-7.17 -0.32,-0.78 -0.42,0.06"
           inkscape:connector-curvature="0"
           style="vector-effect:non-scaling-stroke;stroke:#ececec" />
        <path
           id="path38039"
           d="m 376.69,247 q -4.95,-1.55 -10,0"
           inkscape:connector-curvature="0"
           style="vector-effect:non-scaling-stroke;stroke:#ececec" />
      </g>
      <path
         id="path38043"
         d="M 0,0 H 31.31 L 21.28,0.4 q -0.42,0.02 -0.03,0.17 c 3.66,1.47 8.26,0.84 11.79,1.51 a 1.59,1.56 -16.5 0 1 0.85,0.45 q 8.49,8.62 16.12,18.07 -1.5,1.44 -0.88,2.75 a 0.58,0.58 0 0 0 0.72,0.31 l 1.2,-0.41 a 0.59,0.59 0 0 1 0.78,0.54 c 0.76,25.72 -0.55,51.14 3.08,76.74 a 0.75,0.74 -18.8 0 1 -0.37,0.75 c -1.54,0.88 -3.38,0.8 -4.79,1.61 q -5.4,3.09 -7.4,6.68 -2.09,3.74 1.95,2.33 17.05,-5.94 34.38,-10.17 c 0.02,2.07 -0.35,3.13 0.14,5.03 q 1.59,6.09 3.07,12.15 0.82,3.36 3.4,2.59 l -3.15,9.42 a 0.68,0.67 10.3 0 1 -0.67,0.46 c -7.9,-0.26 -15.86,6.23 -21.71,11.38 -2.48,2.19 -13.81,15.01 -12.32,18.25 a 1.11,1.1 55.8 0 0 1.76,0.34 c 2.71,-2.57 6.57,-5.7 7.9,-8.92 2.89,-6.98 6.53,-10.28 14.19,-11.22 a 0.87,0.84 -20.6 0 1 0.8,0.35 c 3.18,4.5 4.69,12.93 5.1,17.63 a 0.72,0.7 76.2 0 1 -0.42,0.71 c -8.85,3.95 -26.3,15.36 -27.7,25.91 q -0.81,6.15 0.44,11.26 0.67,2.74 3.48,2.9 19.12,1.15 31.31,-12.97 c 4.92,-5.71 3.69,-12.12 3.7,-18.72 a 1.05,1.03 71.7 0 1 0.41,-0.83 q 1.37,-1.09 3.1,-1.5 1.12,7.87 0.6,16.23 -0.07,1.19 -0.61,2.25 -2.15,4.27 -4.72,6.88 -1.74,1.78 -2.42,3.35 c -4.6,10.8 -6.52,22.2 -9.22,33.31 -0.94,3.84 -2.93,10.06 -6.7,11.63 q -0.79,0.34 -0.47,-0.46 l 0.85,-2.08 q 1.38,-3.39 -0.49,-0.24 l -5.42,9.07 a 0.42,0.42 0 0 0 0.33,0.63 l 6.2,0.48 H 0 Z"
         inkscape:connector-curvature="0"
         style="fill:#ffffff" />
      <path
         id="path38045"
         d="m 31.31,0 h 89.25 q 4.37,0.42 6.01,2.72 5.6,7.88 10.6,21.38 c 1.16,3.14 2.55,5.55 2.65,9.26 a 1.06,1.04 19 0 0 0.4,0.8 c 4.68,3.62 1.27,6.78 3.57,10.84 -11.96,3.81 -36.34,9.8 -42.5,21.68 q -0.62,1.19 0.61,0.65 l 11.08,-4.96 a 0.29,0.29 0 0 1 0.41,0.28 l -0.71,11.22 q -0.03,0.48 -0.25,0.92 l -1.6,3.08 a 0.61,0.61 0 0 0 0.41,0.88 l 0.98,0.21 a 0.79,0.78 -84.5 0 1 0.62,0.76 l 0.21,18 a 0.96,0.95 -17.1 0 1 -0.44,0.82 q -3.77,2.51 -5.61,6.73 a 0.39,0.39 0 0 0 0.34,0.55 q 23.71,0.96 47.16,-1.78 1.61,2.22 1,5.46 -0.22,1.18 1.21,1.25 l -0.1,0.98 a 0.87,0.84 -70.5 0 0 0.36,0.79 q 0.89,0.61 2.03,0.52 l 0.09,0.97 a 1.49,1.47 57.8 0 1 -0.2,0.91 q -1.44,2.4 -1.29,4.08 0.73,8.13 0.19,16.25 c -8.3,2.31 -15.06,9.58 -18.58,16.97 -4.42,9.26 -4.68,21.67 -4.07,32.52 q 0.04,0.84 -0.69,1.29 a 0.79,0.78 47.9 0 1 -0.91,-0.05 Q 118.3,174 107.93,157.55 a 0.59,0.58 57.4 0 1 0.17,-0.8 q 19.49,-12.57 23.57,-15.59 c 5.35,-3.97 10.84,-8.15 12.29,-11.91 q 0.47,-1.23 -0.65,-0.54 c -4.76,2.91 -9.56,6.86 -13.6,9.49 q -11.43,7.44 -22.67,14.07 -1.29,0.76 -1.08,-0.73 1.27,-8.75 1.03,-17.6 -0.02,-0.62 -0.54,-0.29 l -4.91,3.1 q -1.22,-9.55 -4.67,-18.62 l 2.89,-5.95 q 0.52,-1.06 -0.58,-0.66 -2.04,0.75 -3.58,2.25 -1.11,1.09 -0.42,-0.3 5.06,-10.22 3.54,-21.66 a 0.69,0.68 -2.4 0 0 -0.66,-0.6 L 92.07,90.94 A 0.6,0.59 2.9 0 1 91.5,90.32 Q 93.22,50.54 98.46,11.05 98.75,8.89 96.56,8.93 79.35,9.29 62.51,12.44 A 0.44,0.43 85 0 1 62,12.01 L 62.01,9.77 A 0.37,0.37 0 0 0 61.47,9.44 C 56.81,11.82 53.06,16.66 50.01,20.6 Q 42.38,11.15 33.89,2.53 A 1.59,1.56 -16.5 0 0 33.04,2.08 C 29.51,1.41 24.91,2.04 21.25,0.57 Q 20.86,0.42 21.28,0.4 Z m 85.43,6.64 c -0.32,0.84 4.2,9.35 4.99,10.23 q 0.42,0.46 0.26,-0.14 -1.45,-5.47 -4.65,-10.16 -0.37,-0.54 -0.6,0.07 z"
         inkscape:connector-curvature="0"
         style="fill:#d8d8d8" />
      <path
         id="path38047"
         d="m 120.56,0 h 143.5 l -1.59,0.39 a 1.21,1.16 7.6 0 0 -0.74,0.54 c -4.98,8.35 -6.72,17.02 -7.63,26.65 -0.51,5.38 -2.23,9.25 -4.37,13.92 a 1.06,1.02 -46.7 0 0 0.01,0.88 l 0.55,1.12 C 234.44,55.54 223.41,71.05 214.7,88.74 A 0.53,0.53 0 0 1 214.02,89 Q 202.79,84.33 194.66,75.42 c -4.09,-4.48 -4.05,-11.62 -0.64,-16.43 6.37,-8.98 12.82,-18.17 21.55,-25.42 q 2.27,-1.88 3.9,-5.09 0.24,-0.47 -0.27,-0.34 c -8.2,2.11 -21.05,19.39 -25.99,26.09 q -1,1.37 -0.94,-0.33 l 0.93,-24.26 a 0.59,0.59 0 0 0 -0.83,-0.56 c -12.38,5.49 -9,18.13 -9.6,28.93 q -0.07,1.24 -0.69,0.16 C 179.37,53.46 175.45,46.68 170.67,43.9 a 0.69,0.69 0 0 0 -0.78,0.06 q -4.44,3.47 -7.87,7.96 a 0.8,0.8 0 0 0 0,0.96 q 8.2,11.04 15.47,22.73 a 1.4,1.39 -45.3 0 1 0,1.49 l -9.54,15.17 a 1.54,1.49 5.4 0 1 -0.8,0.64 q -6.19,2.15 -12.65,2.13 L 154.22,95 a 0.3,0.29 -87.6 0 1 -0.24,-0.27 Q 153.03,83.6 145.44,75.12 c 2.56,-2.1 10.34,-8.26 8.12,-12.06 a 0.85,0.84 -16.6 0 0 -0.78,-0.42 L 143,63.29 q -1.15,-4.92 -3.38,-9.4 l 10.64,-2.61 q 0.74,-0.18 0.45,0.52 l -0.47,1.13 a 0.62,0.62 0 0 0 0.35,0.82 c 1.77,0.68 9.82,-9.41 10.73,-10.75 q 1.28,-1.92 -1,-1.58 -8.41,1.27 -16.53,3.58 c -2.3,-4.06 1.11,-7.22 -3.57,-10.84 a 1.06,1.04 19 0 1 -0.4,-0.8 c -0.1,-3.71 -1.49,-6.12 -2.65,-9.26 q -5,-13.5 -10.6,-21.38 -1.64,-2.3 -6.01,-2.72 z"
         inkscape:connector-curvature="0"
         style="fill:#ffffff" />
      <path
         id="path38049"
         d="m 264.06,0 h 66.75 l 3.79,0.72 a 0.28,0.28 0 0 1 0.17,0.45 q -6.11,7.67 -6.01,17.3 0,0.36 0.24,0.47 a 0.53,0.53 0 0 0 0.73,-0.31 l 0.35,-1.06 a 0.54,0.54 0 0 1 0.85,-0.25 l 0.4,0.32 a 0.51,0.5 31.1 0 0 0.78,-0.19 c 1.94,-4.59 2.41,-7.73 5.83,-11.61 q 0.33,-0.37 0.15,0.09 c -4.02,9.9 -4.5,21.41 -11.79,28.95 a 0.54,0.54 0 0 1 -0.87,-0.13 l -0.41,-0.78 A 0.83,0.83 0 0 1 325.17,33 c 1.87,-1.88 1.48,-3.97 1.99,-5.83 q 0.92,-3.35 1.92,-6.69 A 0.12,0.11 19.1 0 0 329,20.33 l -0.3,-0.09 a 0.3,0.29 18.1 0 0 -0.37,0.18 q -2.29,6.56 -4.53,13.14 c -1.33,3.91 -5.38,6.5 -8.75,8.49 q -0.64,0.39 -1.34,1.64 a 1.49,1.49 0 0 1 -0.67,0.64 q -1.08,0.5 -0.92,1.69 0.09,0.67 0.54,0.17 1.19,-1.31 2.45,0.13 a 0.91,0.89 32.2 0 1 0.2,0.84 q -0.85,3.25 -4.04,7.6 -2.43,3.3 0.23,6.35 c -0.32,2.8 -1.08,18.71 -2.79,19.67 a 0.35,0.34 72.7 0 1 -0.51,-0.27 c -0.68,-7.39 -3.26,-12.78 -11.95,-11.6 q -0.48,0.06 -0.14,-0.27 c 6.5,-6.26 13.58,-13.95 10.3,-23.81 a 0.93,0.91 82.1 0 0 -0.83,-0.64 q -9.61,-0.56 -19.09,0.84 -2.45,0.36 -2.9,-1.49 a 0.42,0.41 63.7 0 0 -0.66,-0.23 l -3.81,2.99 q -0.37,0.3 -0.84,0.38 -8.7,1.57 -13.92,8.68 -2.26,3.09 1.46,2.21 l 7.63,-1.79 a 0.6,0.6 0 0 1 0.73,0.62 l -1.02,17.09 a 1.27,1.27 0 0 1 -0.53,0.95 c -2.69,1.9 -17.55,11.18 -15.38,15 a 0.75,0.74 67.2 0 0 0.85,0.35 l 8.5,-2.35 a 0.4,0.4 0 0 1 0.51,0.38 q -0.01,0.19 -0.16,0.38 -3.89,4.88 -6,10.73 -0.16,0.45 -0.45,0.07 -5.36,-7.11 -6.82,-15.88 a 0.69,0.69 0 0 1 0.52,-0.78 q 11.01,-2.6 17.47,-11.91 0.28,-0.39 -0.2,-0.42 -1.3,-0.07 -2.74,0.45 -7.82,2.86 -15.47,4.46 -2.02,0.42 -2.05,-1.63 l -0.37,-23.42 a 1.57,1.55 -27.6 0 1 0.31,-0.96 q 1.09,-1.49 4.85,-5.91 0.78,-0.92 0.05,-1.69 a 0.75,0.72 54.7 0 0 -0.86,-0.16 l -4.9,2.35 -0.55,-1.12 a 1.06,1.02 -46.7 0 1 -0.01,-0.88 c 2.14,-4.67 3.86,-8.54 4.37,-13.92 0.91,-9.63 2.65,-18.3 7.63,-26.65 a 1.21,1.16 7.6 0 1 0.74,-0.54 z"
         inkscape:connector-curvature="0"
         style="fill:#d8d8d8" />
      <path
         id="path38051"
         d="m 330.81,0 h 7.5 q -2.89,0.46 -2.14,3.23 a 0.79,0.78 -8.3 0 0 0.79,0.58 l 0.66,-0.02 a 0.54,0.53 86.5 0 0 0.52,-0.59 l -0.13,-1.1 a 0.64,0.63 77.8 0 1 0.43,-0.68 l 1.51,-0.51 a 0.34,0.34 0 0 0 0.16,-0.52 L 339.81,0 H 450 v 247 l -71.67,-0.07 q -3.99,-8.31 -9.79,-15.41 -0.9,-1.11 -5.59,-5.55 c -2.41,-2.28 -11.12,-13.1 -9.02,-16.78 q 0.29,-0.49 0.56,0.01 l 8.39,15.27 a 0.95,0.95 0 0 0 1.02,0.47 q 1.12,-0.22 1.89,0.8 0.92,1.2 0.44,-0.46 c -2.52,-8.77 -9.05,-15.91 -14.56,-24.46 q -0.6,-0.93 -2.8,-3.26 a 1.11,1.1 -65.5 0 1 -0.31,-0.84 q 0.21,-3.01 -2.6,-4.22 l -0.21,-1.04 c 0.23,-0.64 0.41,-1.26 0.08,-1.94 -2.68,-5.43 -4.34,-10.05 -7.37,-11.52 q -0.01,-1.45 0.78,-2.6 a 0.94,0.94 0 0 1 0.77,-0.4 h 13.96 a 0.57,0.57 0 0 1 0.57,0.5 c 1.39,11.09 2.24,19.44 9.5,28.53 a 0.66,0.65 -33.7 0 0 0.82,0.16 q 5.38,-2.99 8.87,-8.1 a 1.23,1.22 43.8 0 0 -0.03,-1.42 q -6.75,-8.95 -8.16,-20.14 a 0.43,0.43 0 0 1 0.43,-0.48 c 5.68,0.08 9.5,-4.76 13.75,-9.6 q 0.5,-0.58 -0.26,-0.54 l -14.3,0.79 a 1.05,1.04 88.2 0 1 -1.1,-1.04 l -0.2,-24.08 a 0.69,0.68 75.6 0 0 -1.01,-0.6 q -5.23,2.84 -8.64,7.71 -1.07,1.52 -0.96,3.37 l 0.8,14.19 a 0.64,0.63 -4.8 0 1 -0.56,0.66 l -10.95,1.15 a 0.42,0.41 -82.9 0 1 -0.43,-0.56 c 4.83,-13.56 12.57,-23.75 20.74,-35.42 q 1.26,-1.8 -0.93,-1.92 -21.29,-1.19 -43.05,3.14 -0.58,-6.4 -1.93,-12.53 -0.32,-1.48 -1.21,-1.21 -0.81,0.25 -0.31,-0.43 2.55,-3.44 1.29,-6.13 3.03,-2.35 4.3,-5.99 a 1.55,1.5 -45.8 0 0 0,-0.99 q -2.98,-8.95 -1.82,-18.4 a 0.81,0.8 -0.1 0 1 0.7,-0.69 l 6.75,-0.9 a 0.33,0.33 0 0 1 0.37,0.39 q -1.61,9.13 -1.71,18.33 -0.12,10.48 9.71,13.41 c 8.78,2.61 15.87,0.97 23.11,-4.85 15.56,-12.52 21.26,-27.31 21.1,-47.07 q -0.1,-13.1 -12.13,-17.62 c -6.91,-2.59 -16.04,-3.91 -22.07,-0.09 -10.98,6.95 -18.55,17.77 -25.38,29.04 q -0.27,0.44 -0.22,-0.07 l 1.93,-22.26 q 0.09,-1.14 -0.93,-0.63 -5.29,2.6 -8.92,8.5 -2.66,-3.05 -0.23,-6.35 3.19,-4.35 4.04,-7.6 a 0.91,0.89 32.2 0 0 -0.2,-0.84 q -1.26,-1.44 -2.45,-0.13 -0.45,0.5 -0.54,-0.17 -0.16,-1.19 0.92,-1.69 a 1.49,1.49 0 0 0 0.67,-0.64 q 0.7,-1.25 1.34,-1.64 c 3.37,-1.99 7.42,-4.58 8.75,-8.49 q 2.24,-6.58 4.53,-13.14 a 0.3,0.29 18.1 0 1 0.37,-0.18 l 0.3,0.09 a 0.12,0.11 19.1 0 1 0.08,0.15 q -1,3.34 -1.92,6.69 c -0.51,1.86 -0.12,3.95 -1.99,5.83 a 0.83,0.83 0 0 0 -0.15,0.97 l 0.41,0.78 a 0.54,0.54 0 0 0 0.87,0.13 c 7.29,-7.54 7.77,-19.05 11.79,-28.95 q 0.18,-0.46 -0.15,-0.09 c -3.42,3.88 -3.89,7.02 -5.83,11.61 a 0.51,0.5 31.1 0 1 -0.78,0.19 l -0.4,-0.32 a 0.54,0.54 0 0 0 -0.85,0.25 l -0.35,1.06 A 0.53,0.53 0 0 1 329,18.94 q -0.24,-0.11 -0.24,-0.47 -0.1,-9.63 6.01,-17.3 A 0.28,0.28 0 0 0 334.6,0.72 Z"
         inkscape:connector-curvature="0"
         style="fill:#ffffff" />
      <path
         id="path38053"
         d="m 338.31,0 h 1.5 l 0.3,0.39 a 0.34,0.34 0 0 1 -0.16,0.52 l -1.51,0.51 a 0.64,0.63 77.8 0 0 -0.43,0.68 l 0.13,1.1 a 0.54,0.53 86.5 0 1 -0.52,0.59 l -0.66,0.02 A 0.79,0.78 -8.3 0 1 336.17,3.23 Q 335.42,0.46 338.31,0 Z"
         inkscape:connector-curvature="0"
         style="fill:#d8d8d8" />
      <path
         id="path38055"
         d="m 121.73,16.87 c -0.79,-0.88 -5.31,-9.39 -4.99,-10.23 q 0.23,-0.61 0.6,-0.07 3.2,4.69 4.65,10.16 0.16,0.6 -0.26,0.14 z"
         inkscape:connector-curvature="0"
         style="fill:#ffffff" />
      <path
         id="path38057"
         d="m 96.87,118.13 c -3.77,6.13 -6.07,12.04 -12.54,15.88 a 0.81,0.81 0 0 0 -0.36,0.95 q 3.03,9.33 3.89,19.03 c 0.28,3.24 0.02,7.33 0.27,11.01 q 0.03,0.43 0.27,0.08 l 4.14,-6.08 2.78,-2.11 a 1.5,1.46 -11.6 0 0 0.54,-0.8 q 1.4,-5.24 0.83,-10.1 0.58,-5.95 4.85,-9.24 l 4.91,-3.1 q 0.52,-0.33 0.54,0.29 0.24,8.85 -1.03,17.6 -0.21,1.49 1.08,0.73 11.24,-6.63 22.67,-14.07 c 4.04,-2.63 8.84,-6.58 13.6,-9.49 q 1.12,-0.69 0.65,0.54 c -1.45,3.76 -6.94,7.94 -12.29,11.91 q -4.08,3.02 -23.57,15.59 a 0.59,0.58 57.4 0 0 -0.17,0.8 q 10.37,16.45 25.61,28.43 a 0.79,0.78 47.9 0 0 0.91,0.05 q 0.73,-0.45 0.69,-1.29 c -0.61,-10.85 -0.35,-23.26 4.07,-32.52 3.52,-7.39 10.28,-14.66 18.58,-16.97 q 10.79,-1.36 19.72,1.23 c 1.96,0.57 6.1,3.51 3.6,6.09 a 0.26,0.25 -53.6 0 0 0.06,0.4 c 0.14,0.08 0.62,-0.02 0.78,-0.15 7.68,-6.16 20.75,-9.45 30.57,-10.31 a 1.36,1.36 0 0 1 1.48,1.35 q 0,29.01 0.25,57.14 0.01,0.99 0.78,1.49 1.71,1.14 0.25,2.59 l -7.64,7.63 q -2.38,2.37 -2.94,-0.94 -0.59,-3.47 -0.6,-7.03 -0.06,-25.99 -0.15,-52.08 a 0.61,0.6 -5.8 0 0 -0.73,-0.59 l -8.6,1.78 A 0.77,0.76 -5.5 0 0 194,144.6 q -0.22,20.6 2.12,41.06 0.26,2.26 -1,4.15 -3.34,5.02 -8.78,7.45 a 0.45,0.45 0 0 1 -0.64,-0.42 q 0.16,-10.89 -1.74,-21.61 -0.11,-0.64 -0.57,-0.18 c -8.69,8.82 -14.28,14.99 -22.89,20.99 -5.81,4.13 -15.03,5.75 -20.7,0.23 a 0.46,0.46 0 0 0 -0.67,0.03 c -1.86,2.21 -4.01,3.92 -7.16,3.16 -9.11,-2.18 -19.63,-12.75 -24.98,-19.77 q -0.86,-1.15 -0.98,0.28 -0.62,7.74 1.66,15.14 a 1.19,1.18 53.4 0 1 -0.14,0.99 q -2.98,4.57 -7.7,7.71 -2.66,1.77 -3.02,-1.4 C 95.39,189.94 96,177.04 95.99,164.49 a 0.44,0.44 0 0 0 -0.63,-0.39 l -3.85,1.85 q -1.73,0.41 -3.1,1.5 A 1.05,1.03 71.7 0 0 88,168.28 c -0.01,6.6 1.22,13.01 -3.7,18.72 q -12.19,14.12 -31.31,12.97 -2.81,-0.16 -3.48,-2.9 -1.25,-5.11 -0.44,-11.26 c 1.4,-10.55 18.85,-21.96 27.7,-25.91 a 0.72,0.7 76.2 0 0 0.42,-0.71 c -0.41,-4.7 -1.92,-13.13 -5.1,-17.63 a 0.87,0.84 -20.6 0 0 -0.8,-0.35 c -7.66,0.94 -11.3,4.24 -14.19,11.22 -1.33,3.22 -5.19,6.35 -7.9,8.92 a 1.11,1.1 55.8 0 1 -1.76,-0.34 c -1.49,-3.24 9.84,-16.06 12.32,-18.25 5.85,-5.15 13.81,-11.64 21.71,-11.38 a 0.68,0.67 10.3 0 0 0.67,-0.46 l 3.15,-9.42 1.17,-2.75 q 3.33,-8.18 2.29,-16.95 a 0.72,0.71 2.9 0 0 -0.56,-0.61 q -4.03,-0.88 -6.48,2.56 -1.04,0.5 -2.04,0.2 a 0.81,0.8 -88.8 0 1 -0.55,-0.58 l -0.44,-1.64 q -17.33,4.23 -34.38,10.17 -4.04,1.41 -1.95,-2.33 2,-3.59 7.4,-6.68 c 1.41,-0.81 3.25,-0.73 4.79,-1.61 a 0.75,0.74 -18.8 0 0 0.37,-0.75 C 51.28,74.93 52.59,49.51 51.83,23.79 a 0.59,0.59 0 0 0 -0.78,-0.54 l -1.2,0.41 a 0.58,0.58 0 0 1 -0.72,-0.31 q -0.62,-1.31 0.88,-2.75 c 3.05,-3.94 6.8,-8.78 11.46,-11.16 a 0.37,0.37 0 0 1 0.54,0.33 L 62,12.01 a 0.44,0.43 85 0 0 0.51,0.43 q 16.84,-3.15 34.05,-3.51 2.19,-0.04 1.9,2.12 -5.24,39.49 -6.96,79.27 a 0.6,0.59 2.9 0 0 0.57,0.62 l 5.99,0.27 a 0.69,0.68 -2.4 0 1 0.66,0.6 q 1.52,11.44 -3.54,21.66 -0.69,1.39 0.42,0.3 1.54,-1.5 3.58,-2.25 1.1,-0.4 0.58,0.66 z M 62.29,54.25 q -0.18,21.45 3.67,42.59 a 0.61,0.61 0 0 0 0.78,0.47 l 8.3,-2.56 6.29,-1.59 a 0.7,0.69 85 0 0 0.53,-0.64 Q 83.29,56.7 88.23,21.19 88.56,18.84 86.19,18.92 74.4,19.29 62.81,20.9 a 0.62,0.61 86.3 0 0 -0.53,0.61 z m 102.46,133.79 c 14.8,-8.62 19.17,-21.28 19.49,-37.89 a 1.59,1.5 -30 0 1 0.23,-0.77 l 1.6,-2.5 q 0.66,-1.02 -0.47,-0.57 l -6.8,2.72 q -1.41,0.56 -0.66,-0.76 l 1.59,-2.82 q 0.72,-1.28 -0.35,-0.28 l -5.67,5.29 a 0.97,0.97 0 0 1 -1.58,-0.41 C 170.81,145.94 162.26,145 158.79,145 q -4.78,-0.71 -9.54,0.39 a 1.09,1.06 5.8 0 0 -0.71,0.56 c -3.48,6.86 -3.83,17.97 -3.29,25.26 a 0.91,0.9 -80.2 0 0 0.53,0.76 l 0.48,0.22 a 0.89,0.88 -77.2 0 1 0.52,0.84 c -0.15,3.52 -0.65,9.38 1.76,12.23 q 6.45,7.63 16.21,2.78 z M 59.58,175.86 q -1.23,5.03 -0.36,10.66 c 0.63,4.04 2.78,3.42 6.43,3.51 q 6.04,0.14 11.85,-2.19 a 0.76,0.75 -10.9 0 0 0.48,-0.7 l 0.03,-20.57 a 0.43,0.43 0 0 0 -0.6,-0.4 c -5.23,2.22 -11.19,4.39 -16.05,7.29 q -1.39,0.83 -1.78,2.4 z"
         inkscape:connector-curvature="0"
         style="fill:#040404" />
      <path
         id="path38059"
         d="M 75.04,94.75 C 75.38,89.33 73.22,82.57 71.87,77.27 71.22,74.72 71.82,72.46 71.51,69.81 A 0.82,0.81 1.4 0 0 70.83,69.1 L 69.85,68.94 A 0.69,0.67 87.3 0 1 69.3,68.43 l -1.48,-6.3 a 0.49,0.48 -5.8 0 0 -0.48,-0.38 l -0.27,0.01 A 0.77,0.76 77 0 1 66.36,61.31 C 65.38,59.2 65.39,54.41 62.29,54.25 L 62.28,21.51 a 0.62,0.61 86.3 0 1 0.53,-0.61 q 11.59,-1.61 23.38,-1.98 2.37,-0.08 2.04,2.27 -4.94,35.51 -6.37,71.33 a 0.7,0.69 85 0 1 -0.53,0.64 z m -5.03,-42.7 c 1.32,2.52 3.72,4.9 5.2,8.5 q 0.33,0.8 -0.52,0.64 l -0.83,-0.16 a 0.45,0.45 0 0 0 -0.53,0.53 q 0.29,1.31 0.16,2.68 -0.17,1.7 -1.06,0.24 -0.39,-0.63 -1.06,-0.99 -1.13,-0.59 -0.71,0.61 l 1.63,4.66 q 0.17,0.49 0.23,1 0.12,1.25 1.07,2.04 a 0.55,0.54 -60 0 0 0.85,-0.23 l 0.67,-1.73 q 0.23,-0.61 0.62,-0.09 l 1.45,1.96 q 0.6,0.81 0.92,-0.14 c 2,-5.87 1.8,-7.76 -0.99,-13.25 -1.36,-2.68 -4.31,-4.5 -6.32,-6.98 a 0.29,0.28 -34.6 0 0 -0.36,-0.06 l -0.24,0.15 a 0.47,0.46 -29.4 0 0 -0.18,0.62 z"
         inkscape:connector-curvature="0"
         style="fill:#d8d8d8" />
      <path
         id="path38061"
         d="m 250.29,43.5 4.9,-2.35 a 0.75,0.72 54.7 0 1 0.86,0.16 q 0.73,0.77 -0.05,1.69 -3.76,4.42 -4.85,5.91 a 1.57,1.55 -27.6 0 0 -0.31,0.96 l 0.37,23.42 q 0.03,2.05 2.05,1.63 7.65,-1.6 15.47,-4.46 1.44,-0.52 2.74,-0.45 0.48,0.03 0.2,0.42 -6.46,9.31 -17.47,11.91 a 0.69,0.69 0 0 0 -0.52,0.78 q 1.46,8.77 6.82,15.88 0.29,0.38 0.45,-0.07 2.11,-5.85 6,-10.73 0.15,-0.19 0.16,-0.38 a 0.4,0.4 0 0 0 -0.51,-0.38 l -8.5,2.35 a 0.75,0.74 67.2 0 1 -0.85,-0.35 c -2.17,-3.82 12.69,-13.1 15.38,-15 a 1.27,1.27 0 0 0 0.53,-0.95 l 1.02,-17.09 a 0.6,0.6 0 0 0 -0.73,-0.62 l -7.63,1.79 q -3.72,0.88 -1.46,-2.21 5.22,-7.11 13.92,-8.68 0.47,-0.08 0.84,-0.38 l 3.81,-2.99 a 0.42,0.41 63.7 0 1 0.66,0.23 q 0.45,1.85 2.9,1.49 9.48,-1.4 19.09,-0.84 a 0.93,0.91 82.1 0 1 0.83,0.64 c 3.28,9.86 -3.8,17.55 -10.3,23.81 q -0.34,0.33 0.14,0.27 c 8.69,-1.18 11.27,4.21 11.95,11.6 a 0.35,0.34 72.7 0 0 0.51,0.27 c 1.71,-0.96 2.47,-16.87 2.79,-19.67 q 3.63,-5.9 8.92,-8.5 1.02,-0.51 0.93,0.63 l -1.93,22.26 q -0.05,0.51 0.22,0.07 c 6.83,-11.27 14.4,-22.09 25.38,-29.04 6.03,-3.82 15.16,-2.5 22.07,0.09 q 12.03,4.52 12.13,17.62 c 0.16,19.76 -5.54,34.55 -21.1,47.07 -7.24,5.82 -14.33,7.46 -23.11,4.85 q -9.83,-2.93 -9.71,-13.41 0.1,-9.2 1.71,-18.33 a 0.33,0.33 0 0 0 -0.37,-0.39 l -6.75,0.9 a 0.81,0.8 -0.1 0 0 -0.7,0.69 q -1.16,9.45 1.82,18.4 a 1.55,1.5 -45.8 0 1 0,0.99 q -1.27,3.64 -4.3,5.99 l -4.08,3.52 q -2.32,2.01 -3.01,-0.98 c -0.74,-3.16 -0.29,-6.23 -1.45,-9.17 q -1.71,-4.33 -3.48,-8.67 -0.19,-0.46 -0.49,-0.06 c -6.92,9.31 -15.35,16.96 -27.49,17.51 -8.27,0.38 -13.25,1.86 -15.69,-7.77 q -0.39,-1.55 -1.52,-0.41 l -4.45,4.47 q -1.53,1.54 -3.12,0.08 C 247,105.01 245.62,99.4 243.39,93.22 l -1.53,-6.97 a 0.49,0.48 79.7 0 0 -0.54,-0.38 l -18.8,2.47 a 0.68,0.67 -6.3 0 0 -0.58,0.72 l 0.09,1.26 a 0.73,0.72 -1.7 0 0 0.72,0.67 l 5.77,0.04 a 0.57,0.56 -76.6 0 1 0.5,0.82 l -1.86,3.75 a 0.28,0.28 0 0 0 0.24,0.41 h 0.28 a 1.14,1.11 -62.8 0 0 0.72,-0.24 l 7.07,-5.6 q 1.39,-1.1 0.69,0.53 c -2.23,5.14 -8.7,10.12 -13.23,13.22 q -3.51,2.4 -8.73,1.97 -1.81,-0.15 -2.07,-1.95 l -0.43,-3 a 0.82,0.81 0.5 0 0 -0.69,-0.7 q -9.04,-1.37 -16.38,-6.84 a 0.33,0.18 43.8 0 0 -0.28,-0.08 l -0.24,0.11 a 0.07,0.07 0 0 0 -0.03,0.09 c 2.91,5.05 7.12,10.9 13.3,10.8 q 2.9,-0.05 0.95,2.1 c -5.28,5.83 -11.42,11.8 -18.84,3.77 q -9.22,-9.98 -7.58,-23.76 c 0.24,-1.99 -0.1,-3.89 -0.48,-5.72 q -0.33,-1.51 -1.14,-0.19 l -13.21,21.45 a 0.71,0.71 0 0 0 0.13,0.9 c 0.36,0.33 3.52,-0.87 4.49,-0.86 q 0.79,0 0.37,0.68 -4.72,7.61 -13.07,10.35 -1.14,0.09 -2.03,-0.52 a 0.87,0.84 -70.5 0 1 -0.36,-0.79 l 0.1,-0.98 5.44,-8.92 a 0.44,0.43 28.4 0 0 -0.19,-0.62 q -0.23,-0.1 -0.47,0.02 -3.61,1.95 -6.99,2.81 -23.45,2.74 -47.16,1.78 A 0.39,0.39 0 0 1 107,105.27 q 1.84,-4.22 5.61,-6.73 a 0.96,0.95 -17.1 0 0 0.44,-0.82 l -0.21,-18 a 0.79,0.78 -84.5 0 0 -0.62,-0.76 l -0.98,-0.21 a 0.61,0.61 0 0 1 -0.41,-0.88 l 1.6,-3.08 q 0.22,-0.44 0.25,-0.92 l 0.71,-11.22 a 0.29,0.29 0 0 0 -0.41,-0.28 l -11.08,4.96 q -1.23,0.54 -0.61,-0.65 C 107.45,54.8 131.83,48.81 143.79,45 q 8.12,-2.31 16.53,-3.58 2.28,-0.34 1,1.58 c -0.91,1.34 -8.96,11.43 -10.73,10.75 a 0.62,0.62 0 0 1 -0.35,-0.82 l 0.47,-1.13 q 0.29,-0.7 -0.45,-0.52 l -10.64,2.61 -15.56,4.53 a 1.44,1.43 82.1 0 0 -1.03,1.37 l -0.04,7.45 a 0.83,0.82 83 0 0 1.03,0.81 l 18.98,-4.76 9.78,-0.65 a 0.85,0.84 -16.6 0 1 0.78,0.42 c 2.22,3.8 -5.56,9.96 -8.12,12.06 q -0.34,0.77 -0.97,0.76 a 0.45,0.44 4.9 0 1 -0.44,-0.52 c 0.51,-2.94 -1.1,-3.28 -3.5,-2.95 q -8,1.09 -16.12,3.01 a 1.95,1.95 0 0 0 -1.49,1.93 l 0.34,17.9 a 0.66,0.66 0 0 0 0.64,0.65 q 15.38,0.53 30.6,-0.86 6.46,0.02 12.65,-2.13 a 1.54,1.49 5.4 0 0 0.8,-0.64 l 9.54,-15.17 a 1.4,1.39 -45.3 0 0 0,-1.49 Q 170.22,63.92 162.02,52.88 a 0.8,0.8 0 0 1 0,-0.96 q 3.43,-4.49 7.87,-7.96 a 0.69,0.69 0 0 1 0.78,-0.06 c 4.78,2.78 8.7,9.56 11.41,14.27 q 0.62,1.08 0.69,-0.16 c 0.6,-10.8 -2.78,-23.44 9.6,-28.93 a 0.59,0.59 0 0 1 0.83,0.56 l -0.93,24.26 q -0.06,1.7 0.94,0.33 C 198.15,47.53 211,30.25 219.2,28.14 q 0.51,-0.13 0.27,0.34 -1.63,3.21 -3.9,5.09 c -8.73,7.25 -15.18,16.44 -21.55,25.42 -3.41,4.81 -3.45,11.95 0.64,16.43 q 8.13,8.91 19.36,13.58 a 0.53,0.53 0 0 0 0.68,-0.26 c 8.71,-17.69 19.74,-33.2 35.59,-45.24 z m 37.9,25.99 0.92,0.11 a 1.78,1.75 -54.4 0 0 1.03,-0.18 q 8.37,-4.15 6.82,-13.63 -0.28,-1.76 -2.06,-1.76 l -10.23,-0.04 a 0.64,0.63 1.4 0 0 -0.64,0.6 l -0.85,15.61 q -0.08,1.57 1.32,0.86 l 2.78,-1.41 a 1.57,1.57 0 0 1 0.91,-0.16 z m 58.6,5.74 q -3.68,5.78 -10.08,8.12 a 1.05,1.04 83.5 0 0 -0.67,0.85 q -0.66,5.13 -0.81,8.78 c -0.49,12.05 9.6,15.19 19.57,14.16 12.92,-1.34 14.91,-25.83 14.48,-35.48 -0.56,-12.34 -13.21,-17.3 -23.81,-17.62 a 1.6,1.59 -77.3 0 0 -1.52,0.97 q -3.75,8.73 -6.1,17.94 a 0.42,0.42 0 0 0 0.44,0.53 l 7.13,-0.54 q 2.98,-0.23 1.37,2.29 z M 238.76,57.71 q -7.19,9.25 -12.51,19.77 a 0.31,0.31 0 0 0 0.26,0.45 q 6.75,0.42 13.46,-0.54 a 1.07,1.07 0 0 0 0.92,-1.08 L 240.6,58.32 q -0.05,-2.92 -1.84,-0.61 z m 97.18,0.23 c -4.24,5.93 -7.58,12.01 -12.18,17.62 q -0.59,0.72 0.32,0.53 l 5,-1.03 a 0.86,0.85 -87.1 0 0 0.65,-0.59 q 2.75,-8.66 6.9,-16.75 0.24,-0.49 -0.29,-0.38 -0.4,0.09 -0.4,0.6 z m -47.72,43.81 0.02,0.45 a 0.61,0.61 0 0 0 0.61,0.57 c 7.33,-0.03 9.81,-4.71 9.45,-11.31 -0.53,-9.54 -3.73,-14.92 -14.4,-12.17 a 0.8,0.8 0 0 0 -0.58,0.63 c -1.15,6.81 -1.02,16.34 4.68,21.4 a 0.63,0.63 0 0 1 0.22,0.43 z m -16.0251,-0.89 a 7.2,0.91 90.2 0 0 0.9351,-7.1968 7.2,0.91 90.2 0 0 -0.8849,-7.2032 7.2,0.91 90.2 0 0 -0.9351,7.1968 7.2,0.91 90.2 0 0 0.8849,7.2032 z"
         inkscape:connector-curvature="0"
         style="fill:#040404" />
      <path
         id="path38063"
         d="m 75.21,60.55 c -1.48,-3.6 -3.88,-5.98 -5.2,-8.5 a 0.47,0.46 -29.4 0 1 0.18,-0.62 l 0.24,-0.15 a 0.29,0.28 -34.6 0 1 0.36,0.06 c 2.01,2.48 4.96,4.3 6.32,6.98 2.79,5.49 2.99,7.38 0.99,13.25 q -0.32,0.95 -0.92,0.14 l -1.45,-1.96 q -0.39,-0.52 -0.62,0.09 l -0.67,1.73 a 0.55,0.54 -60 0 1 -0.85,0.23 q -0.95,-0.79 -1.07,-2.04 -0.06,-0.51 -0.23,-1 L 70.66,64.1 q -0.42,-1.2 0.71,-0.61 0.67,0.36 1.06,0.99 0.89,1.46 1.06,-0.24 0.13,-1.37 -0.16,-2.68 a 0.45,0.45 0 0 1 0.53,-0.53 l 0.83,0.16 q 0.85,0.16 0.52,-0.64 z"
         inkscape:connector-curvature="0"
         style="fill:#ffffff" />
      <path
         id="path38065"
         d="m 139.62,53.89 q 2.23,4.48 3.38,9.4 l -18.98,4.76 a 0.83,0.82 83 0 1 -1.03,-0.81 l 0.04,-7.45 a 1.44,1.43 82.1 0 1 1.03,-1.37 z"
         inkscape:connector-curvature="0"
         style="fill:#d8d8d8" />
      <path
         id="path38067"
         d="m 287.28,69.65 -2.78,1.41 q -1.4,0.71 -1.32,-0.86 l 0.85,-15.61 a 0.64,0.63 1.4 0 1 0.64,-0.6 l 10.23,0.04 q 1.78,0 2.06,1.76 1.55,9.48 -6.82,13.63 a 1.78,1.75 -54.4 0 1 -1.03,0.18 l -0.92,-0.11 a 1.57,1.57 0 0 0 -0.91,0.16 z"
         inkscape:connector-curvature="0"
         style="fill:#d8d8d8" />
      <path
         id="path38069"
         d="m 346.79,75.23 q 1.61,-2.52 -1.37,-2.29 l -7.13,0.54 a 0.42,0.42 0 0 1 -0.44,-0.53 q 2.35,-9.21 6.1,-17.94 a 1.6,1.59 -77.3 0 1 1.52,-0.97 c 10.6,0.32 23.25,5.28 23.81,17.62 0.43,9.65 -1.56,34.14 -14.48,35.48 -9.97,1.03 -20.06,-2.11 -19.57,-14.16 q 0.15,-3.65 0.81,-8.78 a 1.05,1.04 83.5 0 1 0.67,-0.85 q 6.4,-2.34 10.08,-8.12 z"
         inkscape:connector-curvature="0"
         style="fill:#ffffff" />
      <path
         id="path38071"
         d="m 62.29,54.25 c 3.1,0.16 3.09,4.95 4.07,7.06 a 0.77,0.76 77 0 0 0.71,0.45 l 0.27,-0.01 a 0.49,0.48 -5.8 0 1 0.48,0.38 l 1.48,6.3 a 0.69,0.67 87.3 0 0 0.55,0.51 l 0.98,0.16 a 0.82,0.81 1.4 0 1 0.68,0.71 c 0.31,2.65 -0.29,4.91 0.36,7.46 1.35,5.3 3.51,12.06 3.17,17.48 l -8.3,2.56 A 0.61,0.61 0 0 1 65.96,96.84 Q 62.11,75.7 62.29,54.25 Z"
         inkscape:connector-curvature="0"
         style="fill:#ffffff" />
      <path
         id="path38073"
         d="m 238.76,57.71 q 1.79,-2.31 1.84,0.61 l 0.29,17.99 a 1.07,1.07 0 0 1 -0.92,1.08 q -6.71,0.96 -13.46,0.54 a 0.31,0.31 0 0 1 -0.26,-0.45 q 5.32,-10.52 12.51,-19.77 z"
         inkscape:connector-curvature="0"
         style="fill:#ffffff" />
      <path
         id="path38075"
         d="m 335.94,57.94 q 0,-0.51 0.4,-0.6 0.53,-0.11 0.29,0.38 -4.15,8.09 -6.9,16.75 a 0.86,0.85 -87.1 0 1 -0.65,0.59 l -5,1.03 q -0.91,0.19 -0.32,-0.53 c 4.6,-5.61 7.94,-11.69 12.18,-17.62 z"
         inkscape:connector-curvature="0"
         style="fill:#ffffff" />
      <path
         id="path38077"
         d="m 145.44,75.12 q 7.59,8.48 8.54,19.61 a 0.3,0.29 -87.6 0 0 0.24,0.27 l 0.28,0.04 q -15.22,1.39 -30.6,0.86 a 0.66,0.66 0 0 1 -0.64,-0.65 l -0.34,-17.9 a 1.95,1.95 0 0 1 1.49,-1.93 q 8.12,-1.92 16.12,-3.01 c 2.4,-0.33 4.01,0.01 3.5,2.95 a 0.45,0.44 4.9 0 0 0.44,0.52 q 0.63,0.01 0.97,-0.76 z"
         inkscape:connector-curvature="0"
         style="fill:#d8d8d8" />
      <path
         id="path38079"
         d="m 288,101.32 c -5.7,-5.06 -5.83,-14.59 -4.68,-21.4 a 0.8,0.8 0 0 1 0.58,-0.63 c 10.67,-2.75 13.87,2.63 14.4,12.17 0.36,6.6 -2.12,11.28 -9.45,11.31 a 0.61,0.61 0 0 1 -0.61,-0.57 l -0.02,-0.45 A 0.63,0.63 0 0 0 288,101.32 Z"
         inkscape:connector-curvature="0"
         style="fill:#d8d8d8" />
      <path
         id="path38081"
         d="m 243.39,93.22 q -1.04,7.23 0.64,15.27 0.62,2.98 1.89,4.57 0.07,0.09 0.07,0.02 -0.17,-1.48 -0.75,-2.77 a 0.73,0.72 -30.3 0 1 0.24,-0.89 c 1.74,-1.26 4.04,4.94 4.05,5.08 q 1.24,10.39 2.53,20.72 c -10.74,1.67 -24.44,3.46 -31.42,12.89 q -0.62,0.84 -0.61,1.94 a 0.41,0.41 0 0 0 0.52,0.39 l 1.57,-0.46 a 0.39,0.39 0 0 1 0.5,0.44 c -1.55,9.19 -0.67,21.67 -0.61,36.29 a 1.39,1.38 63.8 0 1 -0.3,0.89 c -1.22,1.59 -3.65,3.33 -3.72,5.37 a 0.78,0.77 -87.8 0 0 0.74,0.81 l 2.58,0.13 a 0.72,0.71 1.3 0 1 0.69,0.71 v 5.8 q 0,0.75 0.58,0.27 l 7.6,-6.26 a 1.36,1.34 -65.8 0 1 0.8,-0.31 c 6,-0.25 17.41,0.02 21.93,-4.45 0.88,-0.88 6.31,-6.1 6.13,-6.96 a 0.54,0.54 0 0 0 -0.63,-0.42 q -12.82,2.38 -25.87,1.59 A 0.58,0.57 -88.4 0 1 232,183.3 v -18.73 a 1.73,1.72 -1.8 0 1 1.62,-1.72 q 5.78,-0.33 11.26,-0.85 c 4.03,-0.39 7.33,-3.7 9.87,-6.54 l 3.1,0.89 a 0.58,0.57 15.9 0 1 0.4,0.7 l -1.44,5.21 a 0.73,0.73 0 0 0 0.56,0.92 l 2.75,0.52 a 1.09,1.06 -12 0 1 0.68,0.43 q 2.26,3.14 2.74,6.87 c -1.67,7.06 0.06,16.37 6.79,20.5 a 0.9,0.86 17.3 0 1 0.42,0.76 c -0.29,16.33 -0.88,32.72 0.38,49.01 a 0.89,0.88 -16.9 0 0 1.32,0.7 q 4.52,-2.56 7.48,-6.87 1.31,-1.91 1.18,-4.23 -0.65,-11.35 -0.14,-22.76 7.05,9.67 13.23,19.9 0.28,0.46 -0.25,0.37 c -1.44,-0.27 -4.09,-3.73 -5.71,-4.66 a 0.43,0.42 -65.2 0 0 -0.62,0.23 c -0.78,2.36 3.37,3.13 2.52,5.17 q -0.66,1.56 -1.55,0.12 l -5,-8.06 a 0.59,0.55 45.6 0 0 -0.97,-0.04 c -0.56,0.9 3.38,8.15 4.03,9.45 q 0.84,1.7 0.95,4 0.3,6.29 3.81,11.67 a 1,0.99 75.9 0 0 0.72,0.44 l 2.56,0.3 H 147.44 c 0.33,-0.43 0.68,-0.63 0.86,-1.17 3.83,-11.44 7.06,-23.4 8.63,-35.37 q 0.69,-5.26 3.83,-10.43 1.19,-1.95 -0.26,-3.99 c 8.61,-6 14.2,-12.17 22.89,-20.99 q 0.46,-0.46 0.57,0.18 1.9,10.72 1.74,21.61 a 0.45,0.45 0 0 0 0.64,0.42 q 5.44,-2.43 8.78,-7.45 1.26,-1.89 1,-4.15 Q 193.78,165.2 194,144.6 a 0.77,0.76 -5.5 0 1 0.62,-0.75 l 8.6,-1.78 a 0.61,0.6 -5.8 0 1 0.73,0.59 q 0.09,26.09 0.15,52.08 0.01,3.56 0.6,7.03 0.56,3.31 2.94,0.94 l 7.64,-7.63 q 1.46,-1.45 -0.25,-2.59 -0.77,-0.5 -0.78,-1.49 Q 214,162.87 214,133.86 a 1.36,1.36 0 0 0 -1.48,-1.35 c -9.82,0.86 -22.89,4.15 -30.57,10.31 -0.16,0.13 -0.64,0.23 -0.78,0.15 a 0.26,0.25 -53.6 0 1 -0.06,-0.4 c 2.5,-2.58 -1.64,-5.52 -3.6,-6.09 q -8.93,-2.59 -19.72,-1.23 0.54,-8.12 -0.19,-16.25 -0.15,-1.68 1.29,-4.08 a 1.49,1.47 57.8 0 0 0.2,-0.91 L 159,113.04 q 8.35,-2.74 13.07,-10.35 0.42,-0.68 -0.37,-0.68 c -0.97,-0.01 -4.13,1.19 -4.49,0.86 a 0.71,0.71 0 0 1 -0.13,-0.9 l 13.21,-21.45 q 0.81,-1.32 1.14,0.19 c 0.38,1.83 0.72,3.73 0.48,5.72 q -1.64,13.78 7.58,23.76 c 7.42,8.03 13.56,2.06 18.84,-3.77 q 1.95,-2.15 -0.95,-2.1 c -6.18,0.1 -10.39,-5.75 -13.3,-10.8 a 0.07,0.07 0 0 1 0.03,-0.09 l 0.24,-0.11 a 0.33,0.18 43.8 0 1 0.28,0.08 q 7.34,5.47 16.38,6.84 a 0.82,0.81 0.5 0 1 0.69,0.7 l 0.43,3 q 0.26,1.8 2.07,1.95 5.22,0.43 8.73,-1.97 c 4.53,-3.1 11,-8.08 13.23,-13.22 q 0.7,-1.63 -0.69,-0.53 l -7.07,5.6 a 1.14,1.11 -62.8 0 1 -0.72,0.24 h -0.28 a 0.28,0.28 0 0 1 -0.24,-0.41 l 1.86,-3.75 a 0.57,0.56 -76.6 0 0 -0.5,-0.82 l -5.77,-0.04 a 0.73,0.72 -1.7 0 1 -0.72,-0.67 l -0.09,-1.26 a 0.68,0.67 -6.3 0 1 0.58,-0.72 l 18.8,-2.47 a 0.49,0.48 79.7 0 1 0.54,0.38 z"
         inkscape:connector-curvature="0"
         style="fill:#ffffff" />
      <ellipse
         id="ellipse38083"
         ry="0.91000003"
         rx="7.1999998"
         transform="rotate(90.2,89.443183,182.46571)"
         cy="0"
         cx="0"
         style="fill:#d8d8d8" />
      <path
         id="path38085"
         d="m 243.39,93.22 c 2.23,6.18 3.61,11.79 8.54,16.3 q 1.59,1.46 3.12,-0.08 l 4.45,-4.47 q 1.13,-1.14 1.52,0.41 c 2.44,9.63 7.42,8.15 15.69,7.77 12.14,-0.55 20.57,-8.2 27.49,-17.51 q 0.3,-0.4 0.49,0.06 1.77,4.34 3.48,8.67 c 1.16,2.94 0.71,6.01 1.45,9.17 q 0.69,2.99 3.01,0.98 l 4.08,-3.52 q 1.26,2.69 -1.29,6.13 -0.5,0.68 0.31,0.43 0.89,-0.27 1.21,1.21 1.35,6.13 1.93,12.53 l -13.71,3.57 a 0.82,0.8 61.6 0 1 -0.8,-0.25 c -5.61,-6.34 -15.21,-3.48 -22.66,-0.72 a 0.46,0.45 72.1 0 1 -0.6,-0.31 l -0.57,-2.16 a 0.49,0.49 0 0 0 -0.7,-0.3 c -4.21,2.2 -20.82,20.23 -19.56,21.78 a 0.62,0.61 53.8 0 0 0.81,0.13 q 5.07,-3.27 9,-7.84 0.42,-0.49 0.5,0.15 c 0.49,4.13 1.48,12.04 -0.89,15.64 -2.26,3.42 -4.29,5.5 -6.15,10.01 q -0.48,-3.73 -2.74,-6.87 a 1.09,1.06 -12 0 0 -0.68,-0.43 l -2.75,-0.52 a 0.73,0.73 0 0 1 -0.56,-0.92 l 1.44,-5.21 a 0.58,0.57 15.9 0 0 -0.4,-0.7 l -3.1,-0.89 1.96,-2.8 a 0.33,0.33 0 0 0 -0.2,-0.52 l -0.76,-0.18 c 3.11,0.02 1.17,-4.96 0.64,-6.63 a 0.51,0.5 -28.2 0 0 -0.8,-0.24 l -0.25,0.22 a 0.97,0.94 -22.5 0 0 -0.35,0.81 l 0.22,3.62 q 0.1,1.67 -0.71,0.2 -1.59,-2.86 -1.89,-5.75 9.17,-1.11 13.23,-9.74 0.26,-0.56 -0.35,-0.5 l -13.43,1.27 q -1.29,-10.33 -2.53,-20.72 c -0.01,-0.14 -2.31,-6.34 -4.05,-5.08 a 0.73,0.72 -30.3 0 0 -0.24,0.89 q 0.58,1.29 0.75,2.77 0,0.07 -0.07,-0.02 -1.27,-1.59 -1.89,-4.57 -1.68,-8.04 -0.64,-15.27 z"
         inkscape:connector-curvature="0"
         style="fill:#d8d8d8" />
      <path
         id="path38087"
         d="m 86.46,118.75 h -0.52 a 0.68,0.68 0 0 1 -0.65,-0.47 q -0.8,-2.4 -0.83,-4.91 c -0.03,-2.36 -0.57,-4.17 -0.91,-6.35 a 0.93,0.9 -82.9 0 0 -0.52,-0.69 q -1.48,-0.67 -1.32,-2.58 2.45,-3.44 6.48,-2.56 a 0.72,0.71 2.9 0 1 0.56,0.61 q 1.04,8.77 -2.29,16.95 z"
         inkscape:connector-curvature="0"
         style="fill:#ffffff" />
      <path
         id="path38089"
         d="m 156.71,110.75 q -1.43,-0.07 -1.21,-1.25 0.61,-3.24 -1,-5.46 3.38,-0.86 6.99,-2.81 0.24,-0.12 0.47,-0.02 a 0.44,0.43 28.4 0 1 0.19,0.62 z"
         inkscape:connector-curvature="0"
         style="fill:#ffffff" />
      <path
         id="path38091"
         d="m 78.68,101.73 0.44,1.64 a 0.81,0.8 -88.8 0 0 0.55,0.58 q 1,0.3 2.04,-0.2 -0.16,1.91 1.32,2.58 a 0.93,0.9 -82.9 0 1 0.52,0.69 c 0.34,2.18 0.88,3.99 0.91,6.35 q 0.03,2.51 0.83,4.91 a 0.68,0.68 0 0 0 0.65,0.47 h 0.52 l -1.17,2.75 q -2.58,0.77 -3.4,-2.59 -1.48,-6.06 -3.07,-12.15 c -0.49,-1.9 -0.12,-2.96 -0.14,-5.03 z"
         inkscape:connector-curvature="0"
         style="fill:#d8d8d8" />
      <path
         id="path38093"
         d="m 96.87,118.13 q 3.45,9.07 4.67,18.62 -4.27,3.29 -4.85,9.24 -4.46,-2.98 -4.99,-8.75 a 0.51,0.5 2.2 0 0 -0.43,-0.46 l -0.26,-0.03 a 0.39,0.38 5.5 0 0 -0.44,0.36 Q 90.01,148.2 92.54,159 l -4.14,6.08 q -0.24,0.35 -0.27,-0.08 c -0.25,-3.68 0.01,-7.77 -0.27,-11.01 Q 87,144.29 83.97,134.96 a 0.81,0.81 0 0 1 0.36,-0.95 c 6.47,-3.84 8.77,-9.75 12.54,-15.88 z"
         inkscape:connector-curvature="0"
         style="fill:#ffffff" />
      <path
         id="path38095"
         d="m 338.46,178 c -1.28,4.35 -3.69,15.01 2.02,15.95 a 1.46,1.44 -54.3 0 0 0.93,-0.16 l 4.34,-2.33 0.21,1.04 c -2.67,3.79 -11.17,13.52 -16.41,10.92 q -3.06,-1.52 -2.85,-4.95 0.64,-10.7 4.26,-21.79 A 0.52,0.52 0 0 0 330.47,176 h -7.04 a 0.73,0.73 0 0 0 -0.72,0.6 q -1.39,7.33 0.96,14.32 a 1.23,1.21 -37.9 0 1 -0.14,1.06 q -3.46,5.31 -8.84,8.66 a 0.73,0.73 0 0 1 -1.03,-0.27 c -0.97,-1.73 -1.54,-3.77 -1.51,-5.9 q 0.4,-22.66 2.85,-46.89 0.26,-2.6 -2.35,-2.59 L 308.8,145 a 0.57,0.57 0 0 0 -0.56,0.66 c 1.48,8.88 1.77,18.96 -2.09,27.03 -4.04,8.45 -13.64,18.67 -23.85,18.52 a 1.49,1.49 0 0 0 -1.51,1.51 l 0.18,15.39 q -0.51,11.41 0.14,22.76 0.13,2.32 -1.18,4.23 -2.96,4.31 -7.48,6.87 a 0.89,0.88 -16.9 0 1 -1.32,-0.7 c -1.26,-16.29 -0.67,-32.68 -0.38,-49.01 a 0.9,0.86 17.3 0 0 -0.42,-0.76 c -6.73,-4.13 -8.46,-13.44 -6.79,-20.5 1.86,-4.51 3.89,-6.59 6.15,-10.01 2.37,-3.6 1.38,-11.51 0.89,-15.64 q -0.08,-0.64 -0.5,-0.15 -3.93,4.57 -9,7.84 a 0.62,0.61 53.8 0 1 -0.81,-0.13 c -1.26,-1.55 15.35,-19.58 19.56,-21.78 a 0.49,0.49 0 0 1 0.7,0.3 l 0.57,2.16 a 0.46,0.45 72.1 0 0 0.6,0.31 c 7.45,-2.76 17.05,-5.62 22.66,0.72 a 0.82,0.8 61.6 0 0 0.8,0.25 l 13.71,-3.57 q 21.76,-4.33 43.05,-3.14 2.19,0.12 0.93,1.92 c -8.17,11.67 -15.91,21.86 -20.74,35.42 a 0.42,0.41 -82.9 0 0 0.43,0.56 l 10.95,-1.15 a 0.64,0.63 -4.8 0 0 0.56,-0.66 l -0.8,-14.19 q -0.11,-1.85 0.96,-3.37 3.41,-4.87 8.64,-7.71 a 0.69,0.68 75.6 0 1 1.01,0.6 l 0.2,24.08 a 1.05,1.04 88.2 0 0 1.1,1.04 l 14.3,-0.79 q 0.76,-0.04 0.26,0.54 c -4.25,4.84 -8.07,9.68 -13.75,9.6 a 0.43,0.43 0 0 0 -0.43,0.48 q 1.41,11.19 8.16,20.14 a 1.23,1.22 43.8 0 1 0.03,1.42 q -3.49,5.11 -8.87,8.1 a 0.66,0.65 -33.7 0 1 -0.82,-0.16 c -7.26,-9.09 -8.11,-17.44 -9.5,-28.53 a 0.57,0.57 0 0 0 -0.57,-0.5 h -13.96 a 0.94,0.94 0 0 0 -0.77,0.4 q -0.79,1.15 -0.78,2.6 z M 324,153.46 q -1.17,8.41 -0.94,17.03 0.02,0.5 0.4,0.19 c 2.99,-2.45 5.05,-4.76 9.16,-4.78 q 2.2,0.75 3.05,-0.92 c 4.92,-9.56 10.69,-17.49 16.56,-26.41 q 0.32,-0.48 -0.26,-0.5 -13.03,-0.41 -26,0.62 a 0.84,0.82 0 0 0 -0.76,0.75 z m -42.96,-11.7 -0.06,8.68 q 0,0.47 0.39,0.22 l 11.4,-7.32 a 0.53,0.53 0 0 0 0.06,-0.86 c -2.45,-2.03 -8.27,-1.66 -11.18,-1.38 a 0.68,0.67 -2.4 0 0 -0.61,0.66 z m -0.01,13.98 -0.04,25.72 a 0.67,0.67 0 0 0 0.72,0.68 l 11.98,-0.89 q 3.43,-0.25 4.14,-3.61 3.08,-14.59 -1.02,-28.99 a 0.61,0.6 70 0 0 -0.83,-0.39 l -14.34,6.53 a 1.05,1.04 -12.4 0 0 -0.61,0.95 z"
         inkscape:connector-curvature="0"
         style="fill:#040404" />
      <path
         id="path38097"
         d="m 252.61,144.19 q -10.31,0.47 -20.13,3.07 a 0.67,0.67 0 0 0 -0.5,0.65 l 0.06,8.32 q 0.01,0.69 0.55,0.25 c 1.8,-1.46 2.91,-2.59 5.35,-2.95 q 8.87,-1.31 17.81,-1.57 l 0.76,0.18 a 0.33,0.33 0 0 1 0.2,0.52 l -1.96,2.8 c -2.54,2.84 -5.84,6.15 -9.87,6.54 q -5.48,0.52 -11.26,0.85 a 1.73,1.72 -1.8 0 0 -1.62,1.72 v 18.73 a 0.58,0.57 -88.4 0 0 0.54,0.58 q 13.05,0.79 25.87,-1.59 a 0.54,0.54 0 0 1 0.63,0.42 c 0.18,0.86 -5.25,6.08 -6.13,6.96 -4.52,4.47 -15.93,4.2 -21.93,4.45 a 1.36,1.34 -65.8 0 0 -0.8,0.31 l -7.6,6.26 Q 222,201.17 222,200.42 v -5.8 a 0.72,0.71 1.3 0 0 -0.69,-0.71 l -2.58,-0.13 a 0.78,0.77 -87.8 0 1 -0.74,-0.81 c 0.07,-2.04 2.5,-3.78 3.72,-5.37 a 1.39,1.38 63.8 0 0 0.3,-0.89 c -0.06,-14.62 -0.94,-27.1 0.61,-36.29 a 0.39,0.39 0 0 0 -0.5,-0.44 l -1.57,0.46 a 0.41,0.41 0 0 1 -0.52,-0.39 q -0.01,-1.1 0.61,-1.94 c 6.98,-9.43 20.68,-11.22 31.42,-12.89 l 13.43,-1.27 q 0.61,-0.06 0.35,0.5 -4.06,8.63 -13.23,9.74 z"
         inkscape:connector-curvature="0"
         style="fill:#040404" />
      <path
         id="path38099"
         d="m 96.69,145.99 q 0.57,4.86 -0.83,10.1 a 1.5,1.46 -11.6 0 1 -0.54,0.8 L 92.54,159 q -2.53,-10.8 -1.97,-21.89 a 0.39,0.38 5.5 0 1 0.44,-0.36 l 0.26,0.03 a 0.51,0.5 2.2 0 1 0.43,0.46 q 0.53,5.77 4.99,8.75 z"
         inkscape:connector-curvature="0"
         style="fill:#d8d8d8" />
      <path
         id="path38101"
         d="m 332.62,165.9 q -1.25,-3.34 -3.04,-6.45 c -0.97,-1.67 -1.6,-4.13 -3.18,-5.83 a 1.01,1 65.3 0 0 -0.83,-0.31 l -1.57,0.15 1.21,-14.02 a 0.84,0.82 0 0 1 0.76,-0.75 q 12.97,-1.03 26,-0.62 0.58,0.02 0.26,0.5 c -5.87,8.92 -11.64,16.85 -16.56,26.41 q -0.85,1.67 -3.05,0.92 z"
         inkscape:connector-curvature="0"
         style="fill:#ffffff" />
      <path
         id="path38103"
         d="m 281.04,141.76 a 0.68,0.67 -2.4 0 1 0.61,-0.66 c 2.91,-0.28 8.73,-0.65 11.18,1.38 a 0.53,0.53 0 0 1 -0.06,0.86 l -11.4,7.32 q -0.39,0.25 -0.39,-0.22 z"
         inkscape:connector-curvature="0"
         style="fill:#d8d8d8" />
      <path
         id="path38105"
         d="m 252.61,144.19 q 0.3,2.89 1.89,5.75 0.81,1.47 0.71,-0.2 l -0.22,-3.62 a 0.97,0.94 -22.5 0 1 0.35,-0.81 l 0.25,-0.22 a 0.51,0.5 -28.2 0 1 0.8,0.24 c 0.53,1.67 2.47,6.65 -0.64,6.63 q -8.94,0.26 -17.81,1.57 c -2.44,0.36 -3.55,1.49 -5.35,2.95 q -0.54,0.44 -0.55,-0.25 l -0.06,-8.32 a 0.67,0.67 0 0 1 0.5,-0.65 q 9.82,-2.6 20.13,-3.07 z"
         inkscape:connector-curvature="0"
         style="fill:#ffffff" />
      <path
         id="path38107"
         d="m 158.79,145 c -0.07,3.63 1.73,6.64 3.11,9.88 2.11,5 1.8,8.75 1.45,14.05 q -0.46,6.89 0.25,18.4 a 0.77,0.75 -83.9 0 0 0.53,0.67 q 0.33,0.1 0.62,0.04 -9.76,4.85 -16.21,-2.78 c -2.41,-2.85 -1.91,-8.71 -1.76,-12.23 a 0.89,0.88 -77.2 0 0 -0.52,-0.84 l -0.48,-0.22 a 0.91,0.9 -80.2 0 1 -0.53,-0.76 c -0.54,-7.29 -0.19,-18.4 3.29,-25.26 a 1.09,1.06 5.8 0 1 0.71,-0.56 q 4.76,-1.1 9.54,-0.39 z m 0.69,22.48 -0.86,6.93 a 0.74,0.74 0 0 0 0.55,0.81 c 0.44,0.12 0.82,-0.18 0.96,-0.63 q 1.2,-3.69 -0.23,-7.17 -0.32,-0.78 -0.42,0.06 z"
         inkscape:connector-curvature="0"
         style="fill:#d8d8d8" />
      <path
         id="path38109"
         d="m 158.79,145 c 3.47,0 12.02,0.94 13.34,5.05 a 0.97,0.97 0 0 0 1.58,0.41 l 5.67,-5.29 q 1.07,-1 0.35,0.28 l -1.59,2.82 q -0.75,1.32 0.66,0.76 l 6.8,-2.72 q 1.13,-0.45 0.47,0.57 l -1.6,2.5 a 1.59,1.5 -30 0 0 -0.23,0.77 c -0.32,16.61 -4.69,29.27 -19.49,37.89 q -0.29,0.06 -0.62,-0.04 a 0.77,0.75 -83.9 0 1 -0.53,-0.67 q -0.71,-11.51 -0.25,-18.4 c 0.35,-5.3 0.66,-9.05 -1.45,-14.05 -1.38,-3.24 -3.18,-6.25 -3.11,-9.88 z"
         inkscape:connector-curvature="0"
         style="fill:#ffffff" />
      <path
         id="path38111"
         d="m 345.96,192.5 q 2.81,1.21 2.6,4.22 a 1.11,1.1 -65.5 0 0 0.31,0.84 q 2.2,2.33 2.8,3.26 c 5.51,8.55 12.04,15.69 14.56,24.46 q 0.48,1.66 -0.44,0.46 -0.77,-1.02 -1.89,-0.8 a 0.95,0.95 0 0 1 -1.02,-0.47 l -8.39,-15.27 q -0.27,-0.5 -0.56,-0.01 c -2.1,3.68 6.61,14.5 9.02,16.78 q 4.69,4.44 5.59,5.55 5.8,7.1 9.79,15.41 l -1.64,0.07 q -4.95,-1.55 -10,0 h -72 l -2.56,-0.3 a 1,0.99 75.9 0 1 -0.72,-0.44 q -3.51,-5.38 -3.81,-11.67 -0.11,-2.3 -0.95,-4 c -0.65,-1.3 -4.59,-8.55 -4.03,-9.45 a 0.59,0.55 45.6 0 1 0.97,0.04 l 5,8.06 q 0.89,1.44 1.55,-0.12 c 0.85,-2.04 -3.3,-2.81 -2.52,-5.17 a 0.43,0.42 -65.2 0 1 0.62,-0.23 c 1.62,0.93 4.27,4.39 5.71,4.66 q 0.53,0.09 0.25,-0.37 -6.18,-10.23 -13.23,-19.9 l -0.18,-15.39 a 1.49,1.49 0 0 1 1.51,-1.51 c 10.21,0.15 19.81,-10.07 23.85,-18.52 3.86,-8.07 3.57,-18.15 2.09,-27.03 A 0.57,0.57 0 0 1 308.8,145 l 3.85,-0.01 q 2.61,-0.01 2.35,2.59 -2.45,24.23 -2.85,46.89 c -0.03,2.13 0.54,4.17 1.51,5.9 a 0.73,0.73 0 0 0 1.03,0.27 q 5.38,-3.35 8.84,-8.66 a 1.23,1.21 -37.9 0 0 0.14,-1.06 q -2.35,-6.99 -0.96,-14.32 a 0.73,0.73 0 0 1 0.72,-0.6 h 7.04 a 0.52,0.52 0 0 1 0.49,0.68 q -3.62,11.09 -4.26,21.79 -0.21,3.43 2.85,4.95 c 5.24,2.6 13.74,-7.13 16.41,-10.92 z"
         inkscape:connector-curvature="0"
         style="fill:#d8d8d8" />
      <path
         id="path38113"
         d="m 281.03,155.74 a 1.05,1.04 -12.4 0 1 0.61,-0.95 l 14.34,-6.53 a 0.61,0.6 70 0 1 0.83,0.39 q 4.1,14.4 1.02,28.99 -0.71,3.36 -4.14,3.61 l -11.98,0.89 a 0.67,0.67 0 0 1 -0.72,-0.68 z"
         inkscape:connector-curvature="0"
         style="fill:#d8d8d8" />
      <path
         id="path38115"
         d="m 332.62,165.9 c -4.11,0.02 -6.17,2.33 -9.16,4.78 q -0.38,0.31 -0.4,-0.19 -0.23,-8.62 0.94,-17.03 l 1.57,-0.15 a 1.01,1 65.3 0 1 0.83,0.31 c 1.58,1.7 2.21,4.16 3.18,5.83 q 1.79,3.11 3.04,6.45 z"
         inkscape:connector-curvature="0"
         style="fill:#d8d8d8" />
      <path
         id="path38117"
         d="m 160.5,196.04 q 1.45,2.04 0.26,3.99 -3.14,5.17 -3.83,10.43 c -1.57,11.97 -4.8,23.93 -8.63,35.37 -0.18,0.54 -0.53,0.74 -0.86,1.17 h -78 l -6.2,-0.48 a 0.42,0.42 0 0 1 -0.33,-0.63 l 5.42,-9.07 q 1.87,-3.15 0.49,0.24 l -0.85,2.08 q -0.32,0.8 0.47,0.46 c 3.77,-1.57 5.76,-7.79 6.7,-11.63 2.7,-11.11 4.62,-22.51 9.22,-33.31 q 0.68,-1.57 2.42,-3.35 2.57,-2.61 4.72,-6.88 0.54,-1.06 0.61,-2.25 0.52,-8.36 -0.6,-16.23 l 3.85,-1.85 a 0.44,0.44 0 0 1 0.63,0.39 c 0.01,12.55 -0.6,25.45 0.82,37.92 q 0.36,3.17 3.02,1.4 4.72,-3.14 7.7,-7.71 a 1.19,1.18 53.4 0 0 0.14,-0.99 q -2.28,-7.4 -1.66,-15.14 0.12,-1.43 0.98,-0.28 c 5.35,7.02 15.87,17.59 24.98,19.77 3.15,0.76 5.3,-0.95 7.16,-3.16 a 0.46,0.46 0 0 1 0.67,-0.03 c 5.67,5.52 14.89,3.9 20.7,-0.23 z"
         inkscape:connector-curvature="0"
         style="fill:#d8d8d8" />
      <path
         id="path38119"
         d="m 59.58,175.86 q 0.39,-1.57 1.78,-2.4 c 4.86,-2.9 10.82,-5.07 16.05,-7.29 a 0.43,0.43 0 0 1 0.6,0.4 l -0.03,20.57 a 0.76,0.75 -10.9 0 1 -0.48,0.7 q -5.81,2.33 -11.85,2.19 c -3.65,-0.09 -5.8,0.53 -6.43,-3.51 q -0.87,-5.63 0.36,-10.66 z"
         inkscape:connector-curvature="0"
         style="fill:#ffffff" />
      <path
         id="path38121"
         d="m 159.9,167.42 q 1.43,3.48 0.23,7.17 c -0.14,0.45 -0.52,0.75 -0.96,0.63 a 0.74,0.74 0 0 1 -0.55,-0.81 l 0.86,-6.93 q 0.1,-0.84 0.42,-0.06 z"
         inkscape:connector-curvature="0"
         style="fill:#ffffff" />
      <path
         id="path38123"
         d="m 338.46,178 c 3.03,1.47 4.69,6.09 7.37,11.52 0.33,0.68 0.15,1.3 -0.08,1.94 l -4.34,2.33 a 1.46,1.44 -54.3 0 1 -0.93,0.16 c -5.71,-0.94 -3.3,-11.6 -2.02,-15.95 z"
         inkscape:connector-curvature="0"
         style="fill:#d8d8d8" />
      <path
         id="path38125"
         d="m 376.69,247 h -10 q 5.05,-1.55 10,0 z"
         inkscape:connector-curvature="0"
         style="fill:#ffffff" />
    </g>
  </g>
</svg>
