<?xml version="1.0" encoding="UTF-8" standalone="no"?>
<!DOCTYPE svg PUBLIC "-//W3C//DTD SVG 1.1//EN" "http://www.w3.org/Graphics/SVG/1.1/DTD/svg11.dtd">
<svg xmlns="http://www.w3.org/2000/svg" version="1.1" viewBox="0 0 450 238">
<g stroke-width="2.00" fill="none" stroke-linecap="butt">
<path stroke="#f3f3f3" vector-effect="non-scaling-stroke" d="
  M 249.81 0.00
  Q 247.49 0.91 245.00 0.08
  Q 243.65 -0.36 244.10 0.98
  C 245.52 5.20 246.43 9.59 244.83 14.02
  C 242.72 19.85 241.45 25.45 238.58 31.07
  A 0.93 0.92 42.4 0 0 238.63 31.99
  L 239.47 33.32
  A 0.84 0.83 -42.3 0 1 239.42 34.29
  Q 236.90 37.51 234.71 40.95
  C 233.59 42.73 234.29 45.02 232.97 47.15
  C 230.48 51.17 226.78 56.78 231.54 60.00"
/>
<path stroke="#828282" vector-effect="non-scaling-stroke" d="
  M 231.54 60.00
  Q 220.22 70.95 210.99 83.78
  Q 210.18 84.90 210.19 83.52
  L 210.24 57.80
  A 1.02 1.01 77.3 0 0 208.79 56.88
  C 204.52 58.89 200.11 63.98 200.23 69.18
  Q 200.42 77.17 200.04 85.17
  A 0.60 0.59 87.1 0 1 199.53 85.74
  L 184.55 87.96
  A 0.41 0.41 0.0 0 1 184.08 87.56
  L 183.77 58.53
  Q 183.76 57.27 182.79 58.07
  L 179.52 60.75
  Q 179.00 61.18 178.94 60.51
  C 178.70 58.00 187.45 52.30 188.47 49.30
  Q 189.18 47.22 187.10 47.93
  C 174.74 52.13 164.00 58.29 152.68 64.59
  A 0.41 0.40 66.9 0 1 152.10 64.35
  C 150.80 60.01 148.90 54.67 145.06 51.64
  C 140.89 48.35 131.63 49.49 127.28 51.93
  Q 105.13 64.32 108.22 91.07
  A 0.46 0.45 -13.1 0 0 108.82 91.44
  Q 110.81 90.74 112.21 89.18
  A 0.43 0.42 -59.0 0 1 112.66 89.06
  C 113.29 89.30 112.07 96.03 111.93 96.95
  C 111.49 99.79 109.85 104.18 110.25 108.36
  C 111.55 122.09 111.21 136.42 110.89 150.14
  A 1.50 1.50 0.0 0 1 110.21 151.36
  C 108.40 152.54 97.92 161.47 99.82 163.68
  A 0.54 0.54 0.0 0 0 100.58 163.74
  C 101.74 162.77 109.66 155.95 110.51 156.26
  A 0.59 0.58 -83.7 0 1 110.90 156.75
  L 111.17 159.61
  A 0.56 0.56 0.0 0 0 112.05 160.01
  L 118.75 155.23
  Q 120.57 153.94 120.90 156.15
  Q 123.05 170.69 110.66 179.93
  Q 108.74 181.36 106.02 185.95
  C 102.68 191.59 93.03 195.93 96.80 204.10
  Q 102.30 216.02 116.02 217.22
  Q 132.05 218.63 141.90 206.16
  Q 145.50 201.60 145.45 195.50
  C 145.39 186.85 145.87 176.55 142.10 169.16
  Q 141.08 167.15 138.83 167.03
  C 132.74 166.70 129.79 168.18 124.26 170.07
  Q 123.79 170.23 124.07 169.82
  C 129.29 162.22 132.60 154.95 130.77 145.48
  A 0.73 0.72 -7.8 0 0 129.99 144.89
  L 122.11 145.63
  A 1.02 1.01 -2.6 0 1 121.00 144.62
  L 121.00 117.87
  A 0.57 0.57 0.0 0 1 121.48 117.31
  Q 134.49 115.14 143.74 104.76
  Q 144.71 103.67 146.53 103.90
  A 0.63 0.61 -86.9 0 1 147.07 104.52
  L 146.98 112.76
  A 1.22 1.22 0.0 0 0 147.97 113.97
  C 153.45 115.06 160.25 106.40 163.49 102.66
  Q 164.49 101.51 163.09 102.11
  L 158.36 104.12
  A 0.96 0.95 74.3 0 1 157.04 103.37
  Q 156.74 101.30 159.00 100.88
  Q 166.09 99.58 173.38 98.46
  A 0.44 0.44 0.0 0 1 173.89 98.88
  Q 174.03 108.20 174.60 117.51
  Q 174.79 120.50 174.64 121.72
  Q 174.26 124.97 176.62 122.69
  L 185.01 114.55
  A 1.37 1.36 65.0 0 0 185.41 113.43
  L 183.96 98.43
  Q 183.78 96.57 185.63 96.29
  L 199.64 94.17
  A 0.61 0.61 0.0 0 1 200.32 94.67
  Q 201.17 99.69 199.96 104.50"
/>
<path stroke="#f3f3f3" vector-effect="non-scaling-stroke" d="
  M 199.96 104.50
  Q 199.39 105.89 198.13 106.64
  A 0.92 0.90 -20.2 0 0 197.69 107.57
  L 198.18 110.48
  A 1.43 1.41 67.1 0 1 197.64 111.83
  Q 191.52 116.51 190.12 124.17
  A 2.17 2.12 -19.6 0 1 189.64 125.15
  Q 186.18 129.10 184.73 134.13
  C 183.93 136.92 181.92 138.50 180.90 141.89
  Q 179.36 147.00 173.45 147.19
  A 0.97 0.97 0.0 0 0 172.65 147.64
  Q 169.18 153.04 164.81 157.78
  Q 163.18 159.56 164.02 161.82
  C 166.54 168.61 163.17 171.57 159.89 176.87
  C 157.40 180.90 157.34 185.81 155.53 190.13
  C 153.47 195.03 148.72 199.04 147.91 204.18
  Q 147.20 208.69 145.25 212.89
  A 0.56 0.56 0.0 0 0 145.55 213.65
  L 147.15 214.31
  A 0.72 0.71 19.8 0 1 147.57 215.19
  L 143.90 226.74
  A 1.35 1.34 44.7 0 0 143.91 227.60
  C 144.98 230.73 146.89 233.63 147.02 236.97
  A 0.63 0.63 0.0 0 0 147.52 237.57
  L 149.44 238.00"
/>
<path stroke="#828282" vector-effect="non-scaling-stroke" d="
  M 90.58 104.83
  Q 89.59 105.13 90.21 104.30
  Q 103.74 86.35 106.38 63.97
  C 108.04 49.93 110.10 37.73 102.53 25.99
  Q 93.59 12.12 77.49 13.93
  C 69.85 14.78 62.36 23.53 58.24 29.35
  Q 57.95 29.76 58.05 29.27
  Q 58.87 25.09 60.89 21.31
  C 61.28 20.59 60.92 19.67 59.92 20.21
  Q 53.02 23.99 50.04 31.30
  C 42.29 50.31 39.94 70.25 39.83 92.00
  C 39.78 101.37 40.53 119.08 51.94 122.60
  Q 68.02 127.58 79.40 114.98
  A 1.32 1.31 -72.5 0 1 80.22 114.55
  Q 89.41 113.38 93.92 105.22
  Q 94.84 103.55 93.02 104.10
  L 90.58 104.83"
/>
<path stroke="#828282" vector-effect="non-scaling-stroke" d="
  M 66.06 180.08
  C 65.83 169.13 67.00 157.59 66.94 146.23
  A 0.34 0.34 0.0 0 0 66.47 145.92
  C 61.38 148.08 57.31 152.30 57.05 158.07
  Q 56.15 178.37 55.95 198.69
  Q 55.91 203.10 54.50 207.26
  A 0.55 0.55 0.0 0 0 54.81 207.94
  L 56.06 208.48
  A 1.08 1.06 9.0 0 1 56.71 209.36
  Q 57.06 212.68 58.85 215.48
  A 0.83 0.82 55.9 0 0 60.02 215.71
  Q 64.29 212.64 67.59 208.54
  Q 68.65 207.22 68.07 205.63
  C 64.73 196.35 65.86 193.15 70.22 184.35
  Q 74.91 174.90 80.19 165.73
  Q 80.44 165.29 80.41 165.79
  Q 79.07 187.64 78.19 209.50
  Q 77.94 215.85 79.45 222.11
  A 1.12 1.12 0.0 0 0 80.90 222.91
  C 83.06 222.17 87.53 216.85 89.31 215.04
  A 0.97 0.95 -28.1 0 0 89.58 214.19
  Q 88.15 206.37 88.68 194.68
  Q 90.24 160.00 91.00 150.75
  Q 91.26 147.55 94.78 144.49
  A 0.67 0.65 -21.8 0 0 95.00 144.00
  L 95.01 143.61
  A 0.45 0.45 0.0 0 0 94.36 143.20
  L 91.63 144.55
  Q 90.93 144.90 91.05 144.13
  L 91.28 142.56
  Q 91.58 140.59 89.79 141.45
  Q 80.32 145.98 81.05 156.47
  A 1.62 1.61 -29.6 0 1 80.76 157.51
  Q 72.99 168.41 66.74 180.24
  Q 66.08 181.47 66.06 180.08"
/>
<path stroke="#f3f3f3" vector-effect="non-scaling-stroke" d="
  M 297.06 0.00
  C 307.17 1.95 300.49 7.38 301.22 13.93
  C 301.66 17.87 300.23 20.51 297.44 22.97
  A 0.86 0.85 -26.9 0 0 297.17 23.78
  C 298.64 30.72 292.72 35.14 288.69 39.62
  A 1.21 1.18 65.1 0 0 288.38 40.50
  C 288.68 45.06 295.28 47.41 287.11 50.65
  Q 284.83 51.55 286.02 53.69
  L 287.29 55.97
  A 0.88 0.87 50.7 0 1 287.20 56.94
  C 285.66 58.81 283.72 60.40 282.74 62.62
  Q 280.67 67.29 278.70 71.97
  A 0.43 0.43 0.0 0 1 278.10 72.19
  Q 277.10 71.67 276.21 72.50"
/>
<path stroke="#767676" vector-effect="non-scaling-stroke" d="
  M 276.21 72.50
  Q 274.23 63.68 273.37 54.44
  A 1.38 1.38 0.0 0 0 271.44 53.31
  C 267.02 55.30 263.02 59.81 262.99 64.99
  C 262.94 74.42 262.34 86.56 258.67 95.35
  A 0.88 0.86 -82.7 0 1 257.99 95.89
  C 246.88 97.52 241.71 85.45 246.86 76.85
  Q 249.39 72.62 250.94 67.88
  Q 251.84 65.08 249.20 66.37
  Q 238.40 71.63 235.87 84.05
  C 234.80 89.33 227.04 96.70 221.84 97.86
  C 218.70 98.55 212.19 99.02 211.08 95.21
  C 208.54 86.48 232.92 62.32 239.55 56.79
  Q 241.78 54.93 243.49 52.44
  Q 243.79 51.99 243.25 52.00
  C 240.13 52.07 233.94 57.88 231.54 60.00"
/>
<path stroke="#f3f3f3" vector-effect="non-scaling-stroke" d="
  M 190.69 238.00
  L 195.57 237.38
  A 0.53 0.52 -11.5 0 0 196.01 236.72
  Q 195.28 234.07 193.50 232.01
  A 1.38 1.37 21.9 0 1 193.16 231.22
  C 192.58 224.84 194.46 223.76 198.72 219.90
  A 0.95 0.93 63.7 0 0 199.00 219.03
  Q 198.03 214.22 198.45 209.33
  A 0.87 0.86 81.3 0 1 198.99 208.59
  Q 199.46 208.39 199.71 208.75"
/>
<path stroke="#828282" vector-effect="non-scaling-stroke" d="
  M 199.71 208.75
  L 202.81 218.71
  Q 203.56 221.12 205.59 219.62
  C 208.30 217.61 214.41 213.42 213.48 209.64
  A 0.71 0.71 0.0 0 1 213.77 208.88
  Q 219.33 205.18 222.86 199.51
  Q 223.42 198.61 222.42 198.95
  Q 219.11 200.08 216.79 202.73
  Q 214.95 204.83 214.98 202.03
  L 215.05 195.43
  A 0.81 0.80 86.3 0 1 215.73 194.64
  L 233.17 191.87
  A 1.41 1.41 0.0 0 1 234.80 193.17
  Q 235.62 205.16 240.12 216.28
  Q 240.96 218.35 242.55 216.78
  L 249.68 209.76
  A 2.13 2.12 56.9 0 0 250.16 207.45
  Q 246.59 198.57 245.12 189.12
  A 0.78 0.77 69.4 0 1 245.46 188.36
  L 254.57 182.43
  Q 255.06 182.10 255.06 182.69
  L 254.99 216.15
  Q 254.99 219.00 257.49 217.64
  Q 262.04 215.17 265.02 210.96
  A 1.61 1.54 63.3 0 0 265.31 210.01
  L 264.89 182.40
  A 0.36 0.36 0.0 0 1 265.24 182.03
  C 265.42 182.03 265.78 182.32 265.86 182.50
  Q 268.76 189.33 273.51 195.11
  A 0.72 0.71 39.1 0 1 273.60 195.90
  L 272.20 198.63
  Q 271.69 199.63 272.69 199.12
  C 276.67 197.08 278.69 199.31 281.79 199.05
  C 285.86 198.71 289.39 194.20 291.85 191.19
  Q 293.38 189.31 290.95 189.30
  Q 288.18 189.29 285.91 187.72
  Q 284.38 186.67 285.44 185.15
  L 297.70 167.42
  Q 299.48 164.84 299.06 167.95
  Q 295.88 191.35 295.20 214.16
  C 294.97 221.71 304.37 212.09 305.58 210.71
  Q 306.81 209.30 306.18 207.54
  Q 305.49 205.60 305.53 202.50
  C 305.81 183.62 308.98 164.64 309.00 146.34
  A 1.16 1.16 0.0 0 0 307.38 145.28
  Q 302.79 147.28 299.90 152.30
  C 297.93 155.72 299.79 158.68 296.84 162.67
  Q 289.34 172.79 282.85 182.44
  A 1.27 1.27 0.0 0 1 280.68 182.35
  C 275.60 173.19 272.23 162.33 266.27 154.33
  Q 264.81 152.38 266.67 150.79
  Q 272.00 146.25 276.11 140.70
  C 279.52 136.10 279.94 129.45 280.00 123.92
  A 0.68 0.68 0.0 0 1 280.54 123.27
  L 283.28 122.73
  A 1.84 1.83 16.8 0 0 284.18 122.25
  L 292.17 114.42
  Q 293.26 113.35 291.74 113.24
  L 284.84 112.75
  Q 281.71 112.54 282.11 109.43
  C 282.49 106.52 283.86 103.19 285.55 100.44
  Q 295.19 84.76 308.00 71.37
  Q 309.12 70.20 309.09 71.81
  C 308.80 90.42 307.27 108.63 309.90 127.38
  A 0.57 0.57 0.0 0 0 310.77 127.77
  Q 315.65 124.54 319.10 119.80
  A 3.55 3.53 -31.1 0 0 319.74 117.25
  C 317.47 100.29 318.75 81.64 318.99 64.44
  A 1.01 1.00 -15.7 0 1 319.46 63.61
  Q 324.77 60.35 328.63 55.44
  Q 331.91 51.29 327.09 53.49
  L 317.52 57.86
  Q 315.48 58.79 314.00 60.47
  C 301.97 74.12 291.09 85.11 279.47 101.81
  Q 279.19 102.22 279.17 101.73
  Q 278.54 86.98 276.21 72.50"
/>
<path stroke="#828282" vector-effect="non-scaling-stroke" d="
  M 319.73 151.75
  C 314.74 156.07 312.83 156.54 312.96 164.14
  Q 313.31 185.52 312.40 206.44
  Q 312.34 207.76 313.36 206.92
  C 316.08 204.71 323.02 199.26 323.01 195.74
  Q 322.95 173.65 323.05 151.50
  A 0.66 0.65 87.6 0 1 323.65 150.84
  L 335.15 149.76
  A 0.41 0.41 0.0 0 1 335.59 150.19
  C 334.67 168.14 332.73 186.00 331.99 204.00
  Q 331.84 207.47 332.07 209.23
  Q 332.47 212.47 334.92 210.31
  Q 338.25 207.35 340.41 204.92
  C 342.43 202.65 341.81 199.52 341.91 196.96
  Q 342.89 171.91 345.79 147.00
  Q 346.03 144.96 345.56 140.71
  A 0.56 0.54 85.9 0 0 345.01 140.22
  Q 336.46 140.36 327.95 141.16
  C 322.98 141.62 319.80 145.41 317.06 149.34
  Q 316.03 150.82 317.83 150.93
  L 319.49 151.04
  Q 320.49 151.10 319.73 151.75"
/>
<path stroke="#828282" vector-effect="non-scaling-stroke" d="
  M 362.08 173.53
  L 364.26 141.75
  Q 364.35 140.39 363.15 141.04
  C 358.83 143.35 354.34 147.50 354.05 152.72
  Q 353.16 168.68 351.85 184.61
  Q 351.65 187.03 350.51 190.34
  C 348.68 195.66 345.53 213.07 356.24 211.99
  C 367.14 210.89 376.77 201.08 382.79 192.70
  C 387.74 185.79 388.58 178.05 384.85 170.58
  A 2.81 2.81 0.0 0 0 382.64 169.03
  Q 371.65 167.78 362.62 173.84
  Q 362.03 174.24 362.08 173.53"
/>
<path stroke="#828282" vector-effect="non-scaling-stroke" d="
  M 402.43 142.26
  C 399.23 143.61 393.49 148.14 393.21 151.88
  C 392.16 165.57 390.00 176.75 387.23 191.52
  C 385.18 202.48 384.39 212.04 383.93 222.76
  Q 383.75 226.95 387.00 224.30
  Q 390.74 221.24 393.70 217.53
  A 1.63 1.60 65.5 0 0 394.06 216.54
  Q 394.51 198.11 395.53 192.51
  C 398.86 174.18 402.55 158.80 402.89 142.57
  A 0.33 0.33 0.0 0 0 402.43 142.26"
/>
<path stroke="#828282" vector-effect="non-scaling-stroke" d="
  M 60.09 82.04
  C 63.89 92.19 72.90 103.42 84.78 104.09
  A 1.06 1.05 -66.9 0 0 85.62 103.75
  C 95.18 93.17 97.85 67.41 97.98 53.77
  C 98.13 37.89 87.15 21.97 69.89 23.49
  C 66.31 23.80 65.38 25.24 64.32 28.41
  C 59.17 43.81 54.35 66.74 60.09 82.04"
/>
<path stroke="#828282" vector-effect="non-scaling-stroke" d="
  M 71.03 113.26
  C 61.19 110.13 54.67 101.78 50.62 92.71
  Q 50.42 92.24 50.42 92.75
  C 50.52 104.56 57.46 115.98 70.99 113.87
  Q 72.31 113.67 71.03 113.26"
/>
<path stroke="#767676" vector-effect="non-scaling-stroke" d="
  M 199.71 208.75
  C 196.72 191.82 197.99 173.10 197.99 156.18
  Q 197.99 153.79 196.52 155.67
  Q 186.13 168.94 181.21 184.99
  C 179.53 190.47 177.04 202.49 181.18 206.58
  C 182.61 208.00 184.57 208.03 186.49 208.43
  A 0.34 0.34 0.0 0 1 186.71 208.95
  C 184.09 213.08 177.28 221.04 172.29 216.88
  C 165.96 211.60 170.19 196.66 172.29 190.23
  C 179.10 169.39 195.23 148.23 215.30 138.43
  Q 219.12 136.57 216.69 140.06
  Q 213.75 144.29 209.27 146.89
  A 2.54 2.53 -15.3 0 0 208.00 149.10
  L 208.00 186.87
  A 0.33 0.32 -14.4 0 0 208.48 187.15
  Q 208.67 187.04 208.75 186.76
  C 213.44 170.19 221.20 156.93 235.90 147.54
  A 0.48 0.48 0.0 0 0 236.03 146.86
  C 232.30 141.49 228.41 136.21 232.48 130.29
  Q 238.51 121.52 249.50 118.96"
/>
<path stroke="#828282" vector-effect="non-scaling-stroke" d="
  M 249.50 118.96
  Q 250.07 119.28 250.07 120.02
  A 1.23 1.20 -22.4 0 1 249.70 120.89
  L 241.46 128.88
  A 0.69 0.69 0.0 0 0 241.32 129.68
  C 246.30 139.71 255.47 146.74 267.12 144.76
  Q 268.93 144.45 269.00 142.62
  Q 269.95 117.14 267.79 91.76
  Q 267.67 90.34 266.97 91.58
  Q 262.07 100.22 253.74 105.45"
/>
<path stroke="#767676" vector-effect="non-scaling-stroke" d="
  M 253.74 105.45
  C 244.27 108.15 234.75 104.38 235.07 93.16
  Q 235.14 90.81 233.64 92.62
  Q 225.93 101.93 215.18 107.44
  A 1.59 1.59 0.0 0 0 214.46 108.19
  Q 211.49 114.60 205.47 118.27
  A 0.76 0.76 0.0 0 1 204.33 117.80
  Q 203.34 113.67 202.26 109.36
  C 201.78 107.45 200.84 106.23 199.96 104.50"
/>
<path stroke="#828282" vector-effect="non-scaling-stroke" d="
  M 152.97 70.19
  C 153.11 82.24 154.27 89.24 149.19 97.58
  Q 148.90 98.05 149.42 97.87
  Q 150.17 97.60 150.51 96.95
  Q 160.79 77.05 174.93 59.57
  Q 175.24 59.18 174.77 59.35
  Q 163.57 63.43 153.40 69.44
  A 0.87 0.86 75.0 0 0 152.97 70.19"
/>
<path stroke="#828282" vector-effect="non-scaling-stroke" d="
  M 141.24 71.61
  C 139.42 63.23 133.85 56.70 124.40 60.36
  A 0.77 0.76 80.6 0 0 123.92 61.04
  L 122.57 86.21
  Q 122.54 86.73 122.92 86.38
  Q 131.30 78.62 140.91 72.41
  A 0.77 0.75 68.0 0 0 141.24 71.61"
/>
<path stroke="#828282" vector-effect="non-scaling-stroke" d="
  M 173.50 67.25
  Q 165.30 78.84 159.18 91.67
  Q 158.39 93.33 160.19 92.93
  L 173.12 90.07
  A 0.73 0.72 -5.9 0 0 173.70 89.36
  L 174.01 67.42
  Q 174.02 66.53 173.50 67.25"
/>
<path stroke="#828282" vector-effect="non-scaling-stroke" d="
  M 124.72 106.62
  C 147.21 111.31 143.41 90.01 142.75 76.67
  A 0.67 0.66 72.3 0 0 141.73 76.14
  C 136.89 79.25 122.34 87.92 121.92 93.93
  Q 121.58 98.84 122.12 103.76
  Q 122.38 106.13 124.72 106.62"
/>
<path stroke="#828282" vector-effect="non-scaling-stroke" d="
  M 256.48 155.03
  C 251.19 155.01 247.65 155.09 242.44 152.22
  Q 241.98 151.97 242.02 152.49
  L 244.08 180.32
  A 1.01 1.01 0.0 0 0 245.39 181.21
  L 254.07 178.52
  A 1.39 1.37 81.1 0 0 255.04 177.17
  Q 254.81 167.92 255.69 159.31
  C 255.83 157.97 256.67 156.93 256.91 155.54
  A 0.44 0.44 0.0 0 0 256.48 155.03"
/>
<path stroke="#828282" vector-effect="non-scaling-stroke" d="
  M 231.44 154.83
  C 224.89 158.66 220.95 170.64 218.73 178.30
  C 218.23 180.00 217.08 182.34 217.04 184.76
  A 0.51 0.50 -2.1 0 0 217.60 185.27
  L 232.12 183.98
  A 1.49 1.49 0.0 0 0 233.47 182.41
  L 231.86 155.06
  A 0.28 0.28 0.0 0 0 231.44 154.83"
/>
<path stroke="#828282" vector-effect="non-scaling-stroke" d="
  M 129.92 177.23
  C 122.80 175.58 113.99 179.97 110.43 186.39
  Q 109.16 188.68 107.07 190.46
  Q 105.73 191.61 106.12 193.33
  Q 106.87 196.59 109.51 199.48
  Q 119.60 210.55 134.37 206.64
  A 0.66 0.66 0.0 0 0 134.87 206.01
  C 135.26 194.81 135.63 188.36 132.98 180.05
  Q 132.25 177.77 129.92 177.23"
/>
<path stroke="#f3f3f3" vector-effect="non-scaling-stroke" d="
  M 249.50 118.96
  Q 252.27 116.46 253.42 112.94
  Q 254.63 109.25 253.74 105.45"
/>
<path stroke="#828282" vector-effect="non-scaling-stroke" d="
  M 363.06 179.80
  L 362.97 194.59
  A 1.52 1.44 -30.6 0 1 362.75 195.36
  L 360.34 199.22
  Q 358.99 201.38 361.51 201.80
  C 373.94 203.84 378.84 194.90 376.53 183.93
  C 375.09 177.06 368.96 178.99 363.84 179.02
  A 0.78 0.78 0.0 0 0 363.06 179.80"
/>
</g>
<path fill="#ffffff" d="
  M 0.00 0.00
  L 249.81 0.00
  Q 247.49 0.91 245.00 0.08
  Q 243.65 -0.36 244.10 0.98
  C 245.52 5.20 246.43 9.59 244.83 14.02
  C 242.72 19.85 241.45 25.45 238.58 31.07
  A 0.93 0.92 42.4 0 0 238.63 31.99
  L 239.47 33.32
  A 0.84 0.83 -42.3 0 1 239.42 34.29
  Q 236.90 37.51 234.71 40.95
  C 233.59 42.73 234.29 45.02 232.97 47.15
  C 230.48 51.17 226.78 56.78 231.54 60.00
  Q 220.22 70.95 210.99 83.78
  Q 210.18 84.90 210.19 83.52
  L 210.24 57.80
  A 1.02 1.01 77.3 0 0 208.79 56.88
  C 204.52 58.89 200.11 63.98 200.23 69.18
  Q 200.42 77.17 200.04 85.17
  A 0.60 0.59 87.1 0 1 199.53 85.74
  L 184.55 87.96
  A 0.41 0.41 0.0 0 1 184.08 87.56
  L 183.77 58.53
  Q 183.76 57.27 182.79 58.07
  L 179.52 60.75
  Q 179.00 61.18 178.94 60.51
  C 178.70 58.00 187.45 52.30 188.47 49.30
  Q 189.18 47.22 187.10 47.93
  C 174.74 52.13 164.00 58.29 152.68 64.59
  A 0.41 0.40 66.9 0 1 152.10 64.35
  C 150.80 60.01 148.90 54.67 145.06 51.64
  C 140.89 48.35 131.63 49.49 127.28 51.93
  Q 105.13 64.32 108.22 91.07
  A 0.46 0.45 -13.1 0 0 108.82 91.44
  Q 110.81 90.74 112.21 89.18
  A 0.43 0.42 -59.0 0 1 112.66 89.06
  C 113.29 89.30 112.07 96.03 111.93 96.95
  C 111.49 99.79 109.85 104.18 110.25 108.36
  C 111.55 122.09 111.21 136.42 110.89 150.14
  A 1.50 1.50 0.0 0 1 110.21 151.36
  C 108.40 152.54 97.92 161.47 99.82 163.68
  A 0.54 0.54 0.0 0 0 100.58 163.74
  C 101.74 162.77 109.66 155.95 110.51 156.26
  A 0.59 0.58 -83.7 0 1 110.90 156.75
  L 111.17 159.61
  A 0.56 0.56 0.0 0 0 112.05 160.01
  L 118.75 155.23
  Q 120.57 153.94 120.90 156.15
  Q 123.05 170.69 110.66 179.93
  Q 108.74 181.36 106.02 185.95
  C 102.68 191.59 93.03 195.93 96.80 204.10
  Q 102.30 216.02 116.02 217.22
  Q 132.05 218.63 141.90 206.16
  Q 145.50 201.60 145.45 195.50
  C 145.39 186.85 145.87 176.55 142.10 169.16
  Q 141.08 167.15 138.83 167.03
  C 132.74 166.70 129.79 168.18 124.26 170.07
  Q 123.79 170.23 124.07 169.82
  C 129.29 162.22 132.60 154.95 130.77 145.48
  A 0.73 0.72 -7.8 0 0 129.99 144.89
  L 122.11 145.63
  A 1.02 1.01 -2.6 0 1 121.00 144.62
  L 121.00 117.87
  A 0.57 0.57 0.0 0 1 121.48 117.31
  Q 134.49 115.14 143.74 104.76
  Q 144.71 103.67 146.53 103.90
  A 0.63 0.61 -86.9 0 1 147.07 104.52
  L 146.98 112.76
  A 1.22 1.22 0.0 0 0 147.97 113.97
  C 153.45 115.06 160.25 106.40 163.49 102.66
  Q 164.49 101.51 163.09 102.11
  L 158.36 104.12
  A 0.96 0.95 74.3 0 1 157.04 103.37
  Q 156.74 101.30 159.00 100.88
  Q 166.09 99.58 173.38 98.46
  A 0.44 0.44 0.0 0 1 173.89 98.88
  Q 174.03 108.20 174.60 117.51
  Q 174.79 120.50 174.64 121.72
  Q 174.26 124.97 176.62 122.69
  L 185.01 114.55
  A 1.37 1.36 65.0 0 0 185.41 113.43
  L 183.96 98.43
  Q 183.78 96.57 185.63 96.29
  L 199.64 94.17
  A 0.61 0.61 0.0 0 1 200.32 94.67
  Q 201.17 99.69 199.96 104.50
  Q 199.39 105.89 198.13 106.64
  A 0.92 0.90 -20.2 0 0 197.69 107.57
  L 198.18 110.48
  A 1.43 1.41 67.1 0 1 197.64 111.83
  Q 191.52 116.51 190.12 124.17
  A 2.17 2.12 -19.6 0 1 189.64 125.15
  Q 186.18 129.10 184.73 134.13
  C 183.93 136.92 181.92 138.50 180.90 141.89
  Q 179.36 147.00 173.45 147.19
  A 0.97 0.97 0.0 0 0 172.65 147.64
  Q 169.18 153.04 164.81 157.78
  Q 163.18 159.56 164.02 161.82
  C 166.54 168.61 163.17 171.57 159.89 176.87
  C 157.40 180.90 157.34 185.81 155.53 190.13
  C 153.47 195.03 148.72 199.04 147.91 204.18
  Q 147.20 208.69 145.25 212.89
  A 0.56 0.56 0.0 0 0 145.55 213.65
  L 147.15 214.31
  A 0.72 0.71 19.8 0 1 147.57 215.19
  L 143.90 226.74
  A 1.35 1.34 44.7 0 0 143.91 227.60
  C 144.98 230.73 146.89 233.63 147.02 236.97
  A 0.63 0.63 0.0 0 0 147.52 237.57
  L 149.44 238.00
  L 0.00 238.00
  L 0.00 0.00
  Z
  M 90.58 104.83
  Q 89.59 105.13 90.21 104.30
  Q 103.74 86.35 106.38 63.97
  C 108.04 49.93 110.10 37.73 102.53 25.99
  Q 93.59 12.12 77.49 13.93
  C 69.85 14.78 62.36 23.53 58.24 29.35
  Q 57.95 29.76 58.05 29.27
  Q 58.87 25.09 60.89 21.31
  C 61.28 20.59 60.92 19.67 59.92 20.21
  Q 53.02 23.99 50.04 31.30
  C 42.29 50.31 39.94 70.25 39.83 92.00
  C 39.78 101.37 40.53 119.08 51.94 122.60
  Q 68.02 127.58 79.40 114.98
  A 1.32 1.31 -72.5 0 1 80.22 114.55
  Q 89.41 113.38 93.92 105.22
  Q 94.84 103.55 93.02 104.10
  L 90.58 104.83
  Z
  M 66.06 180.08
  C 65.83 169.13 67.00 157.59 66.94 146.23
  A 0.34 0.34 0.0 0 0 66.47 145.92
  C 61.38 148.08 57.31 152.30 57.05 158.07
  Q 56.15 178.37 55.95 198.69
  Q 55.91 203.10 54.50 207.26
  A 0.55 0.55 0.0 0 0 54.81 207.94
  L 56.06 208.48
  A 1.08 1.06 9.0 0 1 56.71 209.36
  Q 57.06 212.68 58.85 215.48
  A 0.83 0.82 55.9 0 0 60.02 215.71
  Q 64.29 212.64 67.59 208.54
  Q 68.65 207.22 68.07 205.63
  C 64.73 196.35 65.86 193.15 70.22 184.35
  Q 74.91 174.90 80.19 165.73
  Q 80.44 165.29 80.41 165.79
  Q 79.07 187.64 78.19 209.50
  Q 77.94 215.85 79.45 222.11
  A 1.12 1.12 0.0 0 0 80.90 222.91
  C 83.06 222.17 87.53 216.85 89.31 215.04
  A 0.97 0.95 -28.1 0 0 89.58 214.19
  Q 88.15 206.37 88.68 194.68
  Q 90.24 160.00 91.00 150.75
  Q 91.26 147.55 94.78 144.49
  A 0.67 0.65 -21.8 0 0 95.00 144.00
  L 95.01 143.61
  A 0.45 0.45 0.0 0 0 94.36 143.20
  L 91.63 144.55
  Q 90.93 144.90 91.05 144.13
  L 91.28 142.56
  Q 91.58 140.59 89.79 141.45
  Q 80.32 145.98 81.05 156.47
  A 1.62 1.61 -29.6 0 1 80.76 157.51
  Q 72.99 168.41 66.74 180.24
  Q 66.08 181.47 66.06 180.08
  Z"
/>
<path fill="#e7e7e7" d="
  M 249.81 0.00
  L 297.06 0.00
  C 307.17 1.95 300.49 7.38 301.22 13.93
  C 301.66 17.87 300.23 20.51 297.44 22.97
  A 0.86 0.85 -26.9 0 0 297.17 23.78
  C 298.64 30.72 292.72 35.14 288.69 39.62
  A 1.21 1.18 65.1 0 0 288.38 40.50
  C 288.68 45.06 295.28 47.41 287.11 50.65
  Q 284.83 51.55 286.02 53.69
  L 287.29 55.97
  A 0.88 0.87 50.7 0 1 287.20 56.94
  C 285.66 58.81 283.72 60.40 282.74 62.62
  Q 280.67 67.29 278.70 71.97
  A 0.43 0.43 0.0 0 1 278.10 72.19
  Q 277.10 71.67 276.21 72.50
  Q 274.23 63.68 273.37 54.44
  A 1.38 1.38 0.0 0 0 271.44 53.31
  C 267.02 55.30 263.02 59.81 262.99 64.99
  C 262.94 74.42 262.34 86.56 258.67 95.35
  A 0.88 0.86 -82.7 0 1 257.99 95.89
  C 246.88 97.52 241.71 85.45 246.86 76.85
  Q 249.39 72.62 250.94 67.88
  Q 251.84 65.08 249.20 66.37
  Q 238.40 71.63 235.87 84.05
  C 234.80 89.33 227.04 96.70 221.84 97.86
  C 218.70 98.55 212.19 99.02 211.08 95.21
  C 208.54 86.48 232.92 62.32 239.55 56.79
  Q 241.78 54.93 243.49 52.44
  Q 243.79 51.99 243.25 52.00
  C 240.13 52.07 233.94 57.88 231.54 60.00
  C 226.78 56.78 230.48 51.17 232.97 47.15
  C 234.29 45.02 233.59 42.73 234.71 40.95
  Q 236.90 37.51 239.42 34.29
  A 0.84 0.83 -42.3 0 0 239.47 33.32
  L 238.63 31.99
  A 0.93 0.92 42.4 0 1 238.58 31.07
  C 241.45 25.45 242.72 19.85 244.83 14.02
  C 246.43 9.59 245.52 5.20 244.10 0.98
  Q 243.65 -0.36 245.00 0.08
  Q 247.49 0.91 249.81 0.00
  Z"
/>
<path fill="#ffffff" d="
  M 297.06 0.00
  L 450.00 0.00
  L 450.00 238.00
  L 190.69 238.00
  L 195.57 237.38
  A 0.53 0.52 -11.5 0 0 196.01 236.72
  Q 195.28 234.07 193.50 232.01
  A 1.38 1.37 21.9 0 1 193.16 231.22
  C 192.58 224.84 194.46 223.76 198.72 219.90
  A 0.95 0.93 63.7 0 0 199.00 219.03
  Q 198.03 214.22 198.45 209.33
  A 0.87 0.86 81.3 0 1 198.99 208.59
  Q 199.46 208.39 199.71 208.75
  L 202.81 218.71
  Q 203.56 221.12 205.59 219.62
  C 208.30 217.61 214.41 213.42 213.48 209.64
  A 0.71 0.71 0.0 0 1 213.77 208.88
  Q 219.33 205.18 222.86 199.51
  Q 223.42 198.61 222.42 198.95
  Q 219.11 200.08 216.79 202.73
  Q 214.95 204.83 214.98 202.03
  L 215.05 195.43
  A 0.81 0.80 86.3 0 1 215.73 194.64
  L 233.17 191.87
  A 1.41 1.41 0.0 0 1 234.80 193.17
  Q 235.62 205.16 240.12 216.28
  Q 240.96 218.35 242.55 216.78
  L 249.68 209.76
  A 2.13 2.12 56.9 0 0 250.16 207.45
  Q 246.59 198.57 245.12 189.12
  A 0.78 0.77 69.4 0 1 245.46 188.36
  L 254.57 182.43
  Q 255.06 182.10 255.06 182.69
  L 254.99 216.15
  Q 254.99 219.00 257.49 217.64
  Q 262.04 215.17 265.02 210.96
  A 1.61 1.54 63.3 0 0 265.31 210.01
  L 264.89 182.40
  A 0.36 0.36 0.0 0 1 265.24 182.03
  C 265.42 182.03 265.78 182.32 265.86 182.50
  Q 268.76 189.33 273.51 195.11
  A 0.72 0.71 39.1 0 1 273.60 195.90
  L 272.20 198.63
  Q 271.69 199.63 272.69 199.12
  C 276.67 197.08 278.69 199.31 281.79 199.05
  C 285.86 198.71 289.39 194.20 291.85 191.19
  Q 293.38 189.31 290.95 189.30
  Q 288.18 189.29 285.91 187.72
  Q 284.38 186.67 285.44 185.15
  L 297.70 167.42
  Q 299.48 164.84 299.06 167.95
  Q 295.88 191.35 295.20 214.16
  C 294.97 221.71 304.37 212.09 305.58 210.71
  Q 306.81 209.30 306.18 207.54
  Q 305.49 205.60 305.53 202.50
  C 305.81 183.62 308.98 164.64 309.00 146.34
  A 1.16 1.16 0.0 0 0 307.38 145.28
  Q 302.79 147.28 299.90 152.30
  C 297.93 155.72 299.79 158.68 296.84 162.67
  Q 289.34 172.79 282.85 182.44
  A 1.27 1.27 0.0 0 1 280.68 182.35
  C 275.60 173.19 272.23 162.33 266.27 154.33
  Q 264.81 152.38 266.67 150.79
  Q 272.00 146.25 276.11 140.70
  C 279.52 136.10 279.94 129.45 280.00 123.92
  A 0.68 0.68 0.0 0 1 280.54 123.27
  L 283.28 122.73
  A 1.84 1.83 16.8 0 0 284.18 122.25
  L 292.17 114.42
  Q 293.26 113.35 291.74 113.24
  L 284.84 112.75
  Q 281.71 112.54 282.11 109.43
  C 282.49 106.52 283.86 103.19 285.55 100.44
  Q 295.19 84.76 308.00 71.37
  Q 309.12 70.20 309.09 71.81
  C 308.80 90.42 307.27 108.63 309.90 127.38
  A 0.57 0.57 0.0 0 0 310.77 127.77
  Q 315.65 124.54 319.10 119.80
  A 3.55 3.53 -31.1 0 0 319.74 117.25
  C 317.47 100.29 318.75 81.64 318.99 64.44
  A 1.01 1.00 -15.7 0 1 319.46 63.61
  Q 324.77 60.35 328.63 55.44
  Q 331.91 51.29 327.09 53.49
  L 317.52 57.86
  Q 315.48 58.79 314.00 60.47
  C 301.97 74.12 291.09 85.11 279.47 101.81
  Q 279.19 102.22 279.17 101.73
  Q 278.54 86.98 276.21 72.50
  Q 277.10 71.67 278.10 72.19
  A 0.43 0.43 0.0 0 0 278.70 71.97
  Q 280.67 67.29 282.74 62.62
  C 283.72 60.40 285.66 58.81 287.20 56.94
  A 0.88 0.87 50.7 0 0 287.29 55.97
  L 286.02 53.69
  Q 284.83 51.55 287.11 50.65
  C 295.28 47.41 288.68 45.06 288.38 40.50
  A 1.21 1.18 65.1 0 1 288.69 39.62
  C 292.72 35.14 298.64 30.72 297.17 23.78
  A 0.86 0.85 -26.9 0 1 297.44 22.97
  C 300.23 20.51 301.66 17.87 301.22 13.93
  C 300.49 7.38 307.17 1.95 297.06 0.00
  Z
  M 319.73 151.75
  C 314.74 156.07 312.83 156.54 312.96 164.14
  Q 313.31 185.52 312.40 206.44
  Q 312.34 207.76 313.36 206.92
  C 316.08 204.71 323.02 199.26 323.01 195.74
  Q 322.95 173.65 323.05 151.50
  A 0.66 0.65 87.6 0 1 323.65 150.84
  L 335.15 149.76
  A 0.41 0.41 0.0 0 1 335.59 150.19
  C 334.67 168.14 332.73 186.00 331.99 204.00
  Q 331.84 207.47 332.07 209.23
  Q 332.47 212.47 334.92 210.31
  Q 338.25 207.35 340.41 204.92
  C 342.43 202.65 341.81 199.52 341.91 196.96
  Q 342.89 171.91 345.79 147.00
  Q 346.03 144.96 345.56 140.71
  A 0.56 0.54 85.9 0 0 345.01 140.22
  Q 336.46 140.36 327.95 141.16
  C 322.98 141.62 319.80 145.41 317.06 149.34
  Q 316.03 150.82 317.83 150.93
  L 319.49 151.04
  Q 320.49 151.10 319.73 151.75
  Z
  M 362.08 173.53
  L 364.26 141.75
  Q 364.35 140.39 363.15 141.04
  C 358.83 143.35 354.34 147.50 354.05 152.72
  Q 353.16 168.68 351.85 184.61
  Q 351.65 187.03 350.51 190.34
  C 348.68 195.66 345.53 213.07 356.24 211.99
  C 367.14 210.89 376.77 201.08 382.79 192.70
  C 387.74 185.79 388.58 178.05 384.85 170.58
  A 2.81 2.81 0.0 0 0 382.64 169.03
  Q 371.65 167.78 362.62 173.84
  Q 362.03 174.24 362.08 173.53
  Z
  M 402.43 142.26
  C 399.23 143.61 393.49 148.14 393.21 151.88
  C 392.16 165.57 390.00 176.75 387.23 191.52
  C 385.18 202.48 384.39 212.04 383.93 222.76
  Q 383.75 226.95 387.00 224.30
  Q 390.74 221.24 393.70 217.53
  A 1.63 1.60 65.5 0 0 394.06 216.54
  Q 394.51 198.11 395.53 192.51
  C 398.86 174.18 402.55 158.80 402.89 142.57
  A 0.33 0.33 0.0 0 0 402.43 142.26
  Z"
/>
<path fill="#050505" d="
  M 90.58 104.83
  L 93.02 104.10
  Q 94.84 103.55 93.92 105.22
  Q 89.41 113.38 80.22 114.55
  A 1.32 1.31 -72.5 0 0 79.40 114.98
  Q 68.02 127.58 51.94 122.60
  C 40.53 119.08 39.78 101.37 39.83 92.00
  C 39.94 70.25 42.29 50.31 50.04 31.30
  Q 53.02 23.99 59.92 20.21
  C 60.92 19.67 61.28 20.59 60.89 21.31
  Q 58.87 25.09 58.05 29.27
  Q 57.95 29.76 58.24 29.35
  C 62.36 23.53 69.85 14.78 77.49 13.93
  Q 93.59 12.12 102.53 25.99
  C 110.10 37.73 108.04 49.93 106.38 63.97
  Q 103.74 86.35 90.21 104.30
  Q 89.59 105.13 90.58 104.83
  Z
  M 60.09 82.04
  C 63.89 92.19 72.90 103.42 84.78 104.09
  A 1.06 1.05 -66.9 0 0 85.62 103.75
  C 95.18 93.17 97.85 67.41 97.98 53.77
  C 98.13 37.89 87.15 21.97 69.89 23.49
  C 66.31 23.80 65.38 25.24 64.32 28.41
  C 59.17 43.81 54.35 66.74 60.09 82.04
  Z
  M 71.03 113.26
  C 61.19 110.13 54.67 101.78 50.62 92.71
  Q 50.42 92.24 50.42 92.75
  C 50.52 104.56 57.46 115.98 70.99 113.87
  Q 72.31 113.67 71.03 113.26
  Z"
/>
<path fill="#ffffff" d="
  M 84.78 104.09
  C 72.90 103.42 63.89 92.19 60.09 82.04
  C 54.35 66.74 59.17 43.81 64.32 28.41
  C 65.38 25.24 66.31 23.80 69.89 23.49
  C 87.15 21.97 98.13 37.89 97.98 53.77
  C 97.85 67.41 95.18 93.17 85.62 103.75
  A 1.06 1.05 -66.9 0 1 84.78 104.09
  Z"
/>
<path fill="#050505" d="
  M 231.54 60.00
  C 233.94 57.88 240.13 52.07 243.25 52.00
  Q 243.79 51.99 243.49 52.44
  Q 241.78 54.93 239.55 56.79
  C 232.92 62.32 208.54 86.48 211.08 95.21
  C 212.19 99.02 218.70 98.55 221.84 97.86
  C 227.04 96.70 234.80 89.33 235.87 84.05
  Q 238.40 71.63 249.20 66.37
  Q 251.84 65.08 250.94 67.88
  Q 249.39 72.62 246.86 76.85
  C 241.71 85.45 246.88 97.52 257.99 95.89
  A 0.88 0.86 -82.7 0 0 258.67 95.35
  C 262.34 86.56 262.94 74.42 262.99 64.99
  C 263.02 59.81 267.02 55.30 271.44 53.31
  A 1.38 1.38 0.0 0 1 273.37 54.44
  Q 274.23 63.68 276.21 72.50
  Q 278.54 86.98 279.17 101.73
  Q 279.19 102.22 279.47 101.81
  C 291.09 85.11 301.97 74.12 314.00 60.47
  Q 315.48 58.79 317.52 57.86
  L 327.09 53.49
  Q 331.91 51.29 328.63 55.44
  Q 324.77 60.35 319.46 63.61
  A 1.01 1.00 -15.7 0 0 318.99 64.44
  C 318.75 81.64 317.47 100.29 319.74 117.25
  A 3.55 3.53 -31.1 0 1 319.10 119.80
  Q 315.65 124.54 310.77 127.77
  A 0.57 0.57 0.0 0 1 309.90 127.38
  C 307.27 108.63 308.80 90.42 309.09 71.81
  Q 309.12 70.20 308.00 71.37
  Q 295.19 84.76 285.55 100.44
  C 283.86 103.19 282.49 106.52 282.11 109.43
  Q 281.71 112.54 284.84 112.75
  L 291.74 113.24
  Q 293.26 113.35 292.17 114.42
  L 284.18 122.25
  A 1.84 1.83 16.8 0 1 283.28 122.73
  L 280.54 123.27
  A 0.68 0.68 0.0 0 0 280.00 123.92
  C 279.94 129.45 279.52 136.10 276.11 140.70
  Q 272.00 146.25 266.67 150.79
  Q 264.81 152.38 266.27 154.33
  C 272.23 162.33 275.60 173.19 280.68 182.35
  A 1.27 1.27 0.0 0 0 282.85 182.44
  Q 289.34 172.79 296.84 162.67
  C 299.79 158.68 297.93 155.72 299.90 152.30
  Q 302.79 147.28 307.38 145.28
  A 1.16 1.16 0.0 0 1 309.00 146.34
  C 308.98 164.64 305.81 183.62 305.53 202.50
  Q 305.49 205.60 306.18 207.54
  Q 306.81 209.30 305.58 210.71
  C 304.37 212.09 294.97 221.71 295.20 214.16
  Q 295.88 191.35 299.06 167.95
  Q 299.48 164.84 297.70 167.42
  L 285.44 185.15
  Q 284.38 186.67 285.91 187.72
  Q 288.18 189.29 290.95 189.30
  Q 293.38 189.31 291.85 191.19
  C 289.39 194.20 285.86 198.71 281.79 199.05
  C 278.69 199.31 276.67 197.08 272.69 199.12
  Q 271.69 199.63 272.20 198.63
  L 273.60 195.90
  A 0.72 0.71 39.1 0 0 273.51 195.11
  Q 268.76 189.33 265.86 182.50
  C 265.78 182.32 265.42 182.03 265.24 182.03
  A 0.36 0.36 0.0 0 0 264.89 182.40
  L 265.31 210.01
  A 1.61 1.54 63.3 0 1 265.02 210.96
  Q 262.04 215.17 257.49 217.64
  Q 254.99 219.00 254.99 216.15
  L 255.06 182.69
  Q 255.06 182.10 254.57 182.43
  L 245.46 188.36
  A 0.78 0.77 69.4 0 0 245.12 189.12
  Q 246.59 198.57 250.16 207.45
  A 2.13 2.12 56.9 0 1 249.68 209.76
  L 242.55 216.78
  Q 240.96 218.35 240.12 216.28
  Q 235.62 205.16 234.80 193.17
  A 1.41 1.41 0.0 0 0 233.17 191.87
  L 215.73 194.64
  A 0.81 0.80 86.3 0 0 215.05 195.43
  L 214.98 202.03
  Q 214.95 204.83 216.79 202.73
  Q 219.11 200.08 222.42 198.95
  Q 223.42 198.61 222.86 199.51
  Q 219.33 205.18 213.77 208.88
  A 0.71 0.71 0.0 0 0 213.48 209.64
  C 214.41 213.42 208.30 217.61 205.59 219.62
  Q 203.56 221.12 202.81 218.71
  L 199.71 208.75
  C 196.72 191.82 197.99 173.10 197.99 156.18
  Q 197.99 153.79 196.52 155.67
  Q 186.13 168.94 181.21 184.99
  C 179.53 190.47 177.04 202.49 181.18 206.58
  C 182.61 208.00 184.57 208.03 186.49 208.43
  A 0.34 0.34 0.0 0 1 186.71 208.95
  C 184.09 213.08 177.28 221.04 172.29 216.88
  C 165.96 211.60 170.19 196.66 172.29 190.23
  C 179.10 169.39 195.23 148.23 215.30 138.43
  Q 219.12 136.57 216.69 140.06
  Q 213.75 144.29 209.27 146.89
  A 2.54 2.53 -15.3 0 0 208.00 149.10
  L 208.00 186.87
  A 0.33 0.32 -14.4 0 0 208.48 187.15
  Q 208.67 187.04 208.75 186.76
  C 213.44 170.19 221.20 156.93 235.90 147.54
  A 0.48 0.48 0.0 0 0 236.03 146.86
  C 232.30 141.49 228.41 136.21 232.48 130.29
  Q 238.51 121.52 249.50 118.96
  Q 250.07 119.28 250.07 120.02
  A 1.23 1.20 -22.4 0 1 249.70 120.89
  L 241.46 128.88
  A 0.69 0.69 0.0 0 0 241.32 129.68
  C 246.30 139.71 255.47 146.74 267.12 144.76
  Q 268.93 144.45 269.00 142.62
  Q 269.95 117.14 267.79 91.76
  Q 267.67 90.34 266.97 91.58
  Q 262.07 100.22 253.74 105.45
  C 244.27 108.15 234.75 104.38 235.07 93.16
  Q 235.14 90.81 233.64 92.62
  Q 225.93 101.93 215.18 107.44
  A 1.59 1.59 0.0 0 0 214.46 108.19
  Q 211.49 114.60 205.47 118.27
  A 0.76 0.76 0.0 0 1 204.33 117.80
  Q 203.34 113.67 202.26 109.36
  C 201.78 107.45 200.84 106.23 199.96 104.50
  Q 201.17 99.69 200.32 94.67
  A 0.61 0.61 0.0 0 0 199.64 94.17
  L 185.63 96.29
  Q 183.78 96.57 183.96 98.43
  L 185.41 113.43
  A 1.37 1.36 65.0 0 1 185.01 114.55
  L 176.62 122.69
  Q 174.26 124.97 174.64 121.72
  Q 174.79 120.50 174.60 117.51
  Q 174.03 108.20 173.89 98.88
  A 0.44 0.44 0.0 0 0 173.38 98.46
  Q 166.09 99.58 159.00 100.88
  Q 156.74 101.30 157.04 103.37
  A 0.96 0.95 74.3 0 0 158.36 104.12
  L 163.09 102.11
  Q 164.49 101.51 163.49 102.66
  C 160.25 106.40 153.45 115.06 147.97 113.97
  A 1.22 1.22 0.0 0 1 146.98 112.76
  L 147.07 104.52
  A 0.63 0.61 -86.9 0 0 146.53 103.90
  Q 144.71 103.67 143.74 104.76
  Q 134.49 115.14 121.48 117.31
  A 0.57 0.57 0.0 0 0 121.00 117.87
  L 121.00 144.62
  A 1.02 1.01 -2.6 0 0 122.11 145.63
  L 129.99 144.89
  A 0.73 0.72 -7.8 0 1 130.77 145.48
  C 132.60 154.95 129.29 162.22 124.07 169.82
  Q 123.79 170.23 124.26 170.07
  C 129.79 168.18 132.74 166.70 138.83 167.03
  Q 141.08 167.15 142.10 169.16
  C 145.87 176.55 145.39 186.85 145.45 195.50
  Q 145.50 201.60 141.90 206.16
  Q 132.05 218.63 116.02 217.22
  Q 102.30 216.02 96.80 204.10
  C 93.03 195.93 102.68 191.59 106.02 185.95
  Q 108.74 181.36 110.66 179.93
  Q 123.05 170.69 120.90 156.15
  Q 120.57 153.94 118.75 155.23
  L 112.05 160.01
  A 0.56 0.56 0.0 0 1 111.17 159.61
  L 110.90 156.75
  A 0.59 0.58 -83.7 0 0 110.51 156.26
  C 109.66 155.95 101.74 162.77 100.58 163.74
  A 0.54 0.54 0.0 0 1 99.82 163.68
  C 97.92 161.47 108.40 152.54 110.21 151.36
  A 1.50 1.50 0.0 0 0 110.89 150.14
  C 111.21 136.42 111.55 122.09 110.25 108.36
  C 109.85 104.18 111.49 99.79 111.93 96.95
  C 112.07 96.03 113.29 89.30 112.66 89.06
  A 0.43 0.42 -59.0 0 0 112.21 89.18
  Q 110.81 90.74 108.82 91.44
  A 0.46 0.45 -13.1 0 1 108.22 91.07
  Q 105.13 64.32 127.28 51.93
  C 131.63 49.49 140.89 48.35 145.06 51.64
  C 148.90 54.67 150.80 60.01 152.10 64.35
  A 0.41 0.40 66.9 0 0 152.68 64.59
  C 164.00 58.29 174.74 52.13 187.10 47.93
  Q 189.18 47.22 188.47 49.30
  C 187.45 52.30 178.70 58.00 178.94 60.51
  Q 179.00 61.18 179.52 60.75
  L 182.79 58.07
  Q 183.76 57.27 183.77 58.53
  L 184.08 87.56
  A 0.41 0.41 0.0 0 0 184.55 87.96
  L 199.53 85.74
  A 0.60 0.59 87.1 0 0 200.04 85.17
  Q 200.42 77.17 200.23 69.18
  C 200.11 63.98 204.52 58.89 208.79 56.88
  A 1.02 1.01 77.3 0 1 210.24 57.80
  L 210.19 83.52
  Q 210.18 84.90 210.99 83.78
  Q 220.22 70.95 231.54 60.00
  Z
  M 152.97 70.19
  C 153.11 82.24 154.27 89.24 149.19 97.58
  Q 148.90 98.05 149.42 97.87
  Q 150.17 97.60 150.51 96.95
  Q 160.79 77.05 174.93 59.57
  Q 175.24 59.18 174.77 59.35
  Q 163.57 63.43 153.40 69.44
  A 0.87 0.86 75.0 0 0 152.97 70.19
  Z
  M 141.24 71.61
  C 139.42 63.23 133.85 56.70 124.40 60.36
  A 0.77 0.76 80.6 0 0 123.92 61.04
  L 122.57 86.21
  Q 122.54 86.73 122.92 86.38
  Q 131.30 78.62 140.91 72.41
  A 0.77 0.75 68.0 0 0 141.24 71.61
  Z
  M 173.50 67.25
  Q 165.30 78.84 159.18 91.67
  Q 158.39 93.33 160.19 92.93
  L 173.12 90.07
  A 0.73 0.72 -5.9 0 0 173.70 89.36
  L 174.01 67.42
  Q 174.02 66.53 173.50 67.25
  Z
  M 124.72 106.62
  C 147.21 111.31 143.41 90.01 142.75 76.67
  A 0.67 0.66 72.3 0 0 141.73 76.14
  C 136.89 79.25 122.34 87.92 121.92 93.93
  Q 121.58 98.84 122.12 103.76
  Q 122.38 106.13 124.72 106.62
  Z
  M 256.48 155.03
  C 251.19 155.01 247.65 155.09 242.44 152.22
  Q 241.98 151.97 242.02 152.49
  L 244.08 180.32
  A 1.01 1.01 0.0 0 0 245.39 181.21
  L 254.07 178.52
  A 1.39 1.37 81.1 0 0 255.04 177.17
  Q 254.81 167.92 255.69 159.31
  C 255.83 157.97 256.67 156.93 256.91 155.54
  A 0.44 0.44 0.0 0 0 256.48 155.03
  Z
  M 231.44 154.83
  C 224.89 158.66 220.95 170.64 218.73 178.30
  C 218.23 180.00 217.08 182.34 217.04 184.76
  A 0.51 0.50 -2.1 0 0 217.60 185.27
  L 232.12 183.98
  A 1.49 1.49 0.0 0 0 233.47 182.41
  L 231.86 155.06
  A 0.28 0.28 0.0 0 0 231.44 154.83
  Z
  M 129.92 177.23
  C 122.80 175.58 113.99 179.97 110.43 186.39
  Q 109.16 188.68 107.07 190.46
  Q 105.73 191.61 106.12 193.33
  Q 106.87 196.59 109.51 199.48
  Q 119.60 210.55 134.37 206.64
  A 0.66 0.66 0.0 0 0 134.87 206.01
  C 135.26 194.81 135.63 188.36 132.98 180.05
  Q 132.25 177.77 129.92 177.23
  Z"
/>
<path fill="#ffffff" d="
  M 149.19 97.58
  C 154.27 89.24 153.11 82.24 152.97 70.19
  A 0.87 0.86 75.0 0 1 153.40 69.44
  Q 163.57 63.43 174.77 59.35
  Q 175.24 59.18 174.93 59.57
  Q 160.79 77.05 150.51 96.95
  Q 150.17 97.60 149.42 97.87
  Q 148.90 98.05 149.19 97.58
  Z"
/>
<path fill="#ffffff" d="
  M 124.40 60.36
  C 133.85 56.70 139.42 63.23 141.24 71.61
  A 0.77 0.75 68.0 0 1 140.91 72.41
  Q 131.30 78.62 122.92 86.38
  Q 122.54 86.73 122.57 86.21
  L 123.92 61.04
  A 0.77 0.76 80.6 0 1 124.40 60.36
  Z"
/>
<path fill="#ffffff" d="
  M 173.50 67.25
  Q 174.02 66.53 174.01 67.42
  L 173.70 89.36
  A 0.73 0.72 -5.9 0 1 173.12 90.07
  L 160.19 92.93
  Q 158.39 93.33 159.18 91.67
  Q 165.30 78.84 173.50 67.25
  Z"
/>
<path fill="#ffffff" d="
  M 124.72 106.62
  Q 122.38 106.13 122.12 103.76
  Q 121.58 98.84 121.92 93.93
  C 122.34 87.92 136.89 79.25 141.73 76.14
  A 0.67 0.66 72.3 0 1 142.75 76.67
  C 143.41 90.01 147.21 111.31 124.72 106.62
  Z"
/>
<path fill="#ffffff" d="
  M 249.50 118.96
  Q 252.27 116.46 253.42 112.94
  Q 254.63 109.25 253.74 105.45
  Q 262.07 100.22 266.97 91.58
  Q 267.67 90.34 267.79 91.76
  Q 269.95 117.14 269.00 142.62
  Q 268.93 144.45 267.12 144.76
  C 255.47 146.74 246.30 139.71 241.32 129.68
  A 0.69 0.69 0.0 0 1 241.46 128.88
  L 249.70 120.89
  A 1.23 1.20 -22.4 0 0 250.07 120.02
  Q 250.07 119.28 249.50 118.96
  Z"
/>
<path fill="#e7e7e7" d="
  M 253.74 105.45
  Q 254.63 109.25 253.42 112.94
  Q 252.27 116.46 249.50 118.96
  Q 238.51 121.52 232.48 130.29
  C 228.41 136.21 232.30 141.49 236.03 146.86
  A 0.48 0.48 0.0 0 1 235.90 147.54
  C 221.20 156.93 213.44 170.19 208.75 186.76
  Q 208.67 187.04 208.48 187.15
  A 0.33 0.32 -14.4 0 1 208.00 186.87
  L 208.00 149.10
  A 2.54 2.53 -15.3 0 1 209.27 146.89
  Q 213.75 144.29 216.69 140.06
  Q 219.12 136.57 215.30 138.43
  C 195.23 148.23 179.10 169.39 172.29 190.23
  C 170.19 196.66 165.96 211.60 172.29 216.88
  C 177.28 221.04 184.09 213.08 186.71 208.95
  A 0.34 0.34 0.0 0 0 186.49 208.43
  C 184.57 208.03 182.61 208.00 181.18 206.58
  C 177.04 202.49 179.53 190.47 181.21 184.99
  Q 186.13 168.94 196.52 155.67
  Q 197.99 153.79 197.99 156.18
  C 197.99 173.10 196.72 191.82 199.71 208.75
  Q 199.46 208.39 198.99 208.59
  A 0.87 0.86 81.3 0 0 198.45 209.33
  Q 198.03 214.22 199.00 219.03
  A 0.95 0.93 63.7 0 1 198.72 219.90
  C 194.46 223.76 192.58 224.84 193.16 231.22
  A 1.38 1.37 21.9 0 0 193.50 232.01
  Q 195.28 234.07 196.01 236.72
  A 0.53 0.52 -11.5 0 1 195.57 237.38
  L 190.69 238.00
  L 149.44 238.00
  L 147.52 237.57
  A 0.63 0.63 0.0 0 1 147.02 236.97
  C 146.89 233.63 144.98 230.73 143.91 227.60
  A 1.35 1.34 44.7 0 1 143.90 226.74
  L 147.57 215.19
  A 0.72 0.71 19.8 0 0 147.15 214.31
  L 145.55 213.65
  A 0.56 0.56 0.0 0 1 145.25 212.89
  Q 147.20 208.69 147.91 204.18
  C 148.72 199.04 153.47 195.03 155.53 190.13
  C 157.34 185.81 157.40 180.90 159.89 176.87
  C 163.17 171.57 166.54 168.61 164.02 161.82
  Q 163.18 159.56 164.81 157.78
  Q 169.18 153.04 172.65 147.64
  A 0.97 0.97 0.0 0 1 173.45 147.19
  Q 179.36 147.00 180.90 141.89
  C 181.92 138.50 183.93 136.92 184.73 134.13
  Q 186.18 129.10 189.64 125.15
  A 2.17 2.12 -19.6 0 0 190.12 124.17
  Q 191.52 116.51 197.64 111.83
  A 1.43 1.41 67.1 0 0 198.18 110.48
  L 197.69 107.57
  A 0.92 0.90 -20.2 0 1 198.13 106.64
  Q 199.39 105.89 199.96 104.50
  C 200.84 106.23 201.78 107.45 202.26 109.36
  Q 203.34 113.67 204.33 117.80
  A 0.76 0.76 0.0 0 0 205.47 118.27
  Q 211.49 114.60 214.46 108.19
  A 1.59 1.59 0.0 0 1 215.18 107.44
  Q 225.93 101.93 233.64 92.62
  Q 235.14 90.81 235.07 93.16
  C 234.75 104.38 244.27 108.15 253.74 105.45
  Z"
/>
<path fill="#ffffff" d="
  M 71.03 113.26
  Q 72.31 113.67 70.99 113.87
  C 57.46 115.98 50.52 104.56 50.42 92.75
  Q 50.42 92.24 50.62 92.71
  C 54.67 101.78 61.19 110.13 71.03 113.26
  Z"
/>
<path fill="#050505" d="
  M 319.49 151.04
  L 317.83 150.93
  Q 316.03 150.82 317.06 149.34
  C 319.80 145.41 322.98 141.62 327.95 141.16
  Q 336.46 140.36 345.01 140.22
  A 0.56 0.54 85.9 0 1 345.56 140.71
  Q 346.03 144.96 345.79 147.00
  Q 342.89 171.91 341.91 196.96
  C 341.81 199.52 342.43 202.65 340.41 204.92
  Q 338.25 207.35 334.92 210.31
  Q 332.47 212.47 332.07 209.23
  Q 331.84 207.47 331.99 204.00
  C 332.73 186.00 334.67 168.14 335.59 150.19
  A 0.41 0.41 0.0 0 0 335.15 149.76
  L 323.65 150.84
  A 0.66 0.65 87.6 0 0 323.05 151.50
  Q 322.95 173.65 323.01 195.74
  C 323.02 199.26 316.08 204.71 313.36 206.92
  Q 312.34 207.76 312.40 206.44
  Q 313.31 185.52 312.96 164.14
  C 312.83 156.54 314.74 156.07 319.73 151.75
  Q 320.49 151.10 319.49 151.04
  Z"
/>
<path fill="#050505" d="
  M 362.62 173.84
  Q 371.65 167.78 382.64 169.03
  A 2.81 2.81 0.0 0 1 384.85 170.58
  C 388.58 178.05 387.74 185.79 382.79 192.70
  C 376.77 201.08 367.14 210.89 356.24 211.99
  C 345.53 213.07 348.68 195.66 350.51 190.34
  Q 351.65 187.03 351.85 184.61
  Q 353.16 168.68 354.05 152.72
  C 354.34 147.50 358.83 143.35 363.15 141.04
  Q 364.35 140.39 364.26 141.75
  L 362.08 173.53
  Q 362.03 174.24 362.62 173.84
  Z
  M 363.06 179.80
  L 362.97 194.59
  A 1.52 1.44 -30.6 0 1 362.75 195.36
  L 360.34 199.22
  Q 358.99 201.38 361.51 201.80
  C 373.94 203.84 378.84 194.90 376.53 183.93
  C 375.09 177.06 368.96 178.99 363.84 179.02
  A 0.78 0.78 0.0 0 0 363.06 179.80
  Z"
/>
<path fill="#050505" d="
  M 66.06 180.08
  Q 66.08 181.47 66.74 180.24
  Q 72.99 168.41 80.76 157.51
  A 1.62 1.61 -29.6 0 0 81.05 156.47
  Q 80.32 145.98 89.79 141.45
  Q 91.58 140.59 91.28 142.56
  L 91.05 144.13
  Q 90.93 144.90 91.63 144.55
  L 94.36 143.20
  A 0.45 0.45 0.0 0 1 95.01 143.61
  L 95.00 144.00
  A 0.67 0.65 -21.8 0 1 94.78 144.49
  Q 91.26 147.55 91.00 150.75
  Q 90.24 160.00 88.68 194.68
  Q 88.15 206.37 89.58 214.19
  A 0.97 0.95 -28.1 0 1 89.31 215.04
  C 87.53 216.85 83.06 222.17 80.90 222.91
  A 1.12 1.12 0.0 0 1 79.45 222.11
  Q 77.94 215.85 78.19 209.50
  Q 79.07 187.64 80.41 165.79
  Q 80.44 165.29 80.19 165.73
  Q 74.91 174.90 70.22 184.35
  C 65.86 193.15 64.73 196.35 68.07 205.63
  Q 68.65 207.22 67.59 208.54
  Q 64.29 212.64 60.02 215.71
  A 0.83 0.82 55.9 0 1 58.85 215.48
  Q 57.06 212.68 56.71 209.36
  A 1.08 1.06 9.0 0 0 56.06 208.48
  L 54.81 207.94
  A 0.55 0.55 0.0 0 1 54.50 207.26
  Q 55.91 203.10 55.95 198.69
  Q 56.15 178.37 57.05 158.07
  C 57.31 152.30 61.38 148.08 66.47 145.92
  A 0.34 0.34 0.0 0 1 66.94 146.23
  C 67.00 157.59 65.83 169.13 66.06 180.08
  Z"
/>
<path fill="#050505" d="
  M 393.21 151.88
  C 393.49 148.14 399.23 143.61 402.43 142.26
  A 0.33 0.33 0.0 0 1 402.89 142.57
  C 402.55 158.80 398.86 174.18 395.53 192.51
  Q 394.51 198.11 394.06 216.54
  A 1.63 1.60 65.5 0 1 393.70 217.53
  Q 390.74 221.24 387.00 224.30
  Q 383.75 226.95 383.93 222.76
  C 384.39 212.04 385.18 202.48 387.23 191.52
  C 390.00 176.75 392.16 165.57 393.21 151.88
  Z"
/>
<path fill="#ffffff" d="
  M 242.44 152.22
  C 247.65 155.09 251.19 155.01 256.48 155.03
  A 0.44 0.44 0.0 0 1 256.91 155.54
  C 256.67 156.93 255.83 157.97 255.69 159.31
  Q 254.81 167.92 255.04 177.17
  A 1.39 1.37 81.1 0 1 254.07 178.52
  L 245.39 181.21
  A 1.01 1.01 0.0 0 1 244.08 180.32
  L 242.02 152.49
  Q 241.98 151.97 242.44 152.22
  Z"
/>
<path fill="#ffffff" d="
  M 218.73 178.30
  C 220.95 170.64 224.89 158.66 231.44 154.83
  A 0.28 0.28 0.0 0 1 231.86 155.06
  L 233.47 182.41
  A 1.49 1.49 0.0 0 1 232.12 183.98
  L 217.60 185.27
  A 0.51 0.50 -2.1 0 1 217.04 184.76
  C 217.08 182.34 218.23 180.00 218.73 178.30
  Z"
/>
<path fill="#ffffff" d="
  M 129.92 177.23
  Q 132.25 177.77 132.98 180.05
  C 135.63 188.36 135.26 194.81 134.87 206.01
  A 0.66 0.66 0.0 0 1 134.37 206.64
  Q 119.60 210.55 109.51 199.48
  Q 106.87 196.59 106.12 193.33
  Q 105.73 191.61 107.07 190.46
  Q 109.16 188.68 110.43 186.39
  C 113.99 179.97 122.80 175.58 129.92 177.23
  Z"
/>
<path fill="#ffffff" d="
  M 363.06 179.80
  A 0.78 0.78 0.0 0 1 363.84 179.02
  C 368.96 178.99 375.09 177.06 376.53 183.93
  C 378.84 194.90 373.94 203.84 361.51 201.80
  Q 358.99 201.38 360.34 199.22
  L 362.75 195.36
  A 1.52 1.44 -30.6 0 0 362.97 194.59
  L 363.06 179.80
  Z"
/>
</svg>
