<?xml version="1.0" encoding="UTF-8" standalone="no"?>
<!-- Created with Inkscape (http://www.inkscape.org/) -->

<svg
   xmlns:dc="http://purl.org/dc/elements/1.1/"
   xmlns:cc="http://creativecommons.org/ns#"
   xmlns:rdf="http://www.w3.org/1999/02/22-rdf-syntax-ns#"
   xmlns:svg="http://www.w3.org/2000/svg"
   xmlns="http://www.w3.org/2000/svg"
   xmlns:sodipodi="http://sodipodi.sourceforge.net/DTD/sodipodi-0.dtd"
   xmlns:inkscape="http://www.inkscape.org/namespaces/inkscape"
   width="400"
   height="600"
   viewBox="0 0 105.83333 158.75"
   version="1.1"
   id="svg8"
   inkscape:version="0.92.4 (5da689c313, 2019-01-14)"
   sodipodi:docname="36_m.svg">
  <defs
     id="defs2" />
  <sodipodi:namedview
     id="base"
     pagecolor="#ffffff"
     bordercolor="#666666"
     borderopacity="1.0"
     inkscape:pageopacity="0.0"
     inkscape:pageshadow="2"
     inkscape:zoom="1.8125504"
     inkscape:cx="209.92468"
     inkscape:cy="408.63151"
     inkscape:document-units="mm"
     inkscape:current-layer="layer1"
     showgrid="false"
     units="px"
     showguides="true"
     inkscape:guide-bbox="true"
     inkscape:window-width="1280"
     inkscape:window-height="968"
     inkscape:window-x="0"
     inkscape:window-y="0"
     inkscape:window-maximized="1">
    <sodipodi:guide
       position="20.78869,60.476191"
       orientation="1,0"
       id="guide859"
       inkscape:locked="false" />
    <sodipodi:guide
       position="20.78869,128.88988"
       orientation="1,0"
       id="guide863"
       inkscape:locked="false" />
    <sodipodi:guide
       position="12.85119,57.641369"
       orientation="1,0"
       id="guide865"
       inkscape:locked="false" />
    <sodipodi:guide
       position="32.339612,108.51143"
       orientation="0,1"
       id="guide867"
       inkscape:locked="false" />
    <sodipodi:guide
       position="-9.0871638,97.553376"
       orientation="0,1"
       id="guide2596"
       inkscape:locked="false" />
    <sodipodi:guide
       position="-16.036171,64.144687"
       orientation="0,1"
       id="guide2598"
       inkscape:locked="false" />
  </sodipodi:namedview>
  <metadata
     id="metadata5">
    <rdf:RDF>
      <cc:Work
         rdf:about="">
        <dc:format>image/svg+xml</dc:format>
        <dc:type
           rdf:resource="http://purl.org/dc/dcmitype/StillImage" />
        <dc:title></dc:title>
      </cc:Work>
    </rdf:RDF>
  </metadata>
  <g
     inkscape:label="Layer 1"
     inkscape:groupmode="layer"
     id="layer1"
     transform="translate(0,-138.24998)">
    <rect
       style="opacity:1;fill:#ffffff;fill-opacity:0.60101007;stroke:#000000;stroke-width:0.27790931;stroke-miterlimit:4;stroke-dasharray:none;stroke-dashoffset:0;stroke-opacity:1"
       id="rect10"
       width="105.4538"
       height="158.75175"
       x="0.17799145"
       y="138.24911"
       ry="7.9375877" />
    <flowRoot
       xml:space="preserve"
       id="flowRoot851"
       style="fill:black;fill-opacity:1;stroke:none;font-family:sans-serif;font-style:normal;font-weight:normal;font-size:40px;line-height:0;letter-spacing:0px;word-spacing:0px"><flowRegion
         id="flowRegion853"><rect
           id="rect855"
           width="114.28571"
           height="65.714287"
           x="47.142857"
           y="194.28572" /></flowRegion><flowPara
         id="flowPara857" /></flowRoot>    <text
       xml:space="preserve"
       style="font-style:normal;font-weight:normal;font-size:33.90801239px;line-height:0;font-family:sans-serif;letter-spacing:0px;word-spacing:0px;fill:#666666;fill-opacity:1;stroke:none;stroke-width:0.84770024"
       x="16.134531"
       y="174.63515"
       id="text827"><tspan
         sodipodi:role="line"
         id="tspan825"
         x="16.134531"
         y="174.63515"
         style="font-style:normal;font-variant:normal;font-weight:bold;font-stretch:normal;font-family:Arsenal;-inkscape-font-specification:'Arsenal Bold';fill:#666666;stroke-width:0.84770024">36</tspan></text>
    <g
       id="g38571"
       transform="matrix(0.21387516,0,0,0.21387516,9.1159569,176.61283)">
      <g
         id="g38471"
         style="fill:none;stroke-width:2;stroke-linecap:butt">
        <path
           id="path38419"
           d="m 249.81,0 q -2.32,0.91 -4.81,0.08 -1.35,-0.44 -0.9,0.9 c 1.42,4.22 2.33,8.61 0.73,13.04 -2.11,5.83 -3.38,11.43 -6.25,17.05 a 0.93,0.92 42.4 0 0 0.05,0.92 l 0.84,1.33 a 0.84,0.83 -42.3 0 1 -0.05,0.97 q -2.52,3.22 -4.71,6.66 c -1.12,1.78 -0.42,4.07 -1.74,6.2 -2.49,4.02 -6.19,9.63 -1.43,12.85"
           inkscape:connector-curvature="0"
           style="vector-effect:non-scaling-stroke;stroke:#f3f3f3" />
        <path
           id="path38421"
           d="m 231.54,60 q -11.32,10.95 -20.55,23.78 -0.81,1.12 -0.8,-0.26 l 0.05,-25.72 a 1.02,1.01 77.3 0 0 -1.45,-0.92 c -4.27,2.01 -8.68,7.1 -8.56,12.3 q 0.19,7.99 -0.19,15.99 a 0.6,0.59 87.1 0 1 -0.51,0.57 l -14.98,2.22 a 0.41,0.41 0 0 1 -0.47,-0.4 l -0.31,-29.03 q -0.01,-1.26 -0.98,-0.46 l -3.27,2.68 Q 179,61.18 178.94,60.51 C 178.7,58 187.45,52.3 188.47,49.3 q 0.71,-2.08 -1.37,-1.37 c -12.36,4.2 -23.1,10.36 -34.42,16.66 a 0.41,0.4 66.9 0 1 -0.58,-0.24 c -1.3,-4.34 -3.2,-9.68 -7.04,-12.71 -4.17,-3.29 -13.43,-2.15 -17.78,0.29 q -22.15,12.39 -19.06,39.14 a 0.46,0.45 -13.1 0 0 0.6,0.37 q 1.99,-0.7 3.39,-2.26 a 0.43,0.42 -59 0 1 0.45,-0.12 c 0.63,0.24 -0.59,6.97 -0.73,7.89 -0.44,2.84 -2.08,7.23 -1.68,11.41 1.3,13.73 0.96,28.06 0.64,41.78 a 1.5,1.5 0 0 1 -0.68,1.22 c -1.81,1.18 -12.29,10.11 -10.39,12.32 a 0.54,0.54 0 0 0 0.76,0.06 c 1.16,-0.97 9.08,-7.79 9.93,-7.48 a 0.59,0.58 -83.7 0 1 0.39,0.49 l 0.27,2.86 a 0.56,0.56 0 0 0 0.88,0.4 l 6.7,-4.78 q 1.82,-1.29 2.15,0.92 2.15,14.54 -10.24,23.78 -1.92,1.43 -4.64,6.02 c -3.34,5.64 -12.99,9.98 -9.22,18.15 q 5.5,11.92 19.22,13.12 16.03,1.41 25.88,-11.06 3.6,-4.56 3.55,-10.66 c -0.06,-8.65 0.42,-18.95 -3.35,-26.34 q -1.02,-2.01 -3.27,-2.13 c -6.09,-0.33 -9.04,1.15 -14.57,3.04 q -0.47,0.16 -0.19,-0.25 c 5.22,-7.6 8.53,-14.87 6.7,-24.34 a 0.73,0.72 -7.8 0 0 -0.78,-0.59 l -7.88,0.74 A 1.02,1.01 -2.6 0 1 121,144.62 v -26.75 a 0.57,0.57 0 0 1 0.48,-0.56 q 13.01,-2.17 22.26,-12.55 0.97,-1.09 2.79,-0.86 a 0.63,0.61 -86.9 0 1 0.54,0.62 l -0.09,8.24 a 1.22,1.22 0 0 0 0.99,1.21 c 5.48,1.09 12.28,-7.57 15.52,-11.31 q 1,-1.15 -0.4,-0.55 l -4.73,2.01 a 0.96,0.95 74.3 0 1 -1.32,-0.75 q -0.3,-2.07 1.96,-2.49 7.09,-1.3 14.38,-2.42 a 0.44,0.44 0 0 1 0.51,0.42 q 0.14,9.32 0.71,18.63 0.19,2.99 0.04,4.21 -0.38,3.25 1.98,0.97 l 8.39,-8.14 a 1.37,1.36 65 0 0 0.4,-1.12 l -1.45,-15 q -0.18,-1.86 1.67,-2.14 l 14.01,-2.12 a 0.61,0.61 0 0 1 0.68,0.5 q 0.85,5.02 -0.36,9.83"
           inkscape:connector-curvature="0"
           style="vector-effect:non-scaling-stroke;stroke:#828282" />
        <path
           id="path38423"
           d="m 199.96,104.5 q -0.57,1.39 -1.83,2.14 a 0.92,0.9 -20.2 0 0 -0.44,0.93 l 0.49,2.91 a 1.43,1.41 67.1 0 1 -0.54,1.35 q -6.12,4.68 -7.52,12.34 a 2.17,2.12 -19.6 0 1 -0.48,0.98 q -3.46,3.95 -4.91,8.98 c -0.8,2.79 -2.81,4.37 -3.83,7.76 q -1.54,5.11 -7.45,5.3 a 0.97,0.97 0 0 0 -0.8,0.45 q -3.47,5.4 -7.84,10.14 -1.63,1.78 -0.79,4.04 c 2.52,6.79 -0.85,9.75 -4.13,15.05 -2.49,4.03 -2.55,8.94 -4.36,13.26 -2.06,4.9 -6.81,8.91 -7.62,14.05 q -0.71,4.51 -2.66,8.71 a 0.56,0.56 0 0 0 0.3,0.76 l 1.6,0.66 a 0.72,0.71 19.8 0 1 0.42,0.88 l -3.67,11.55 a 1.35,1.34 44.7 0 0 0.01,0.86 c 1.07,3.13 2.98,6.03 3.11,9.37 a 0.63,0.63 0 0 0 0.5,0.6 l 1.92,0.43"
           inkscape:connector-curvature="0"
           style="vector-effect:non-scaling-stroke;stroke:#f3f3f3" />
        <path
           id="path38425"
           d="m 90.58,104.83 q -0.99,0.3 -0.37,-0.53 13.53,-17.95 16.17,-40.33 c 1.66,-14.04 3.72,-26.24 -3.85,-37.98 Q 93.59,12.12 77.49,13.93 c -7.64,0.85 -15.13,9.6 -19.25,15.42 q -0.29,0.41 -0.19,-0.08 0.82,-4.18 2.84,-7.96 c 0.39,-0.72 0.03,-1.64 -0.97,-1.1 q -6.9,3.78 -9.88,11.09 C 42.29,50.31 39.94,70.25 39.83,92 c -0.05,9.37 0.7,27.08 12.11,30.6 q 16.08,4.98 27.46,-7.62 a 1.32,1.31 -72.5 0 1 0.82,-0.43 q 9.19,-1.17 13.7,-9.33 0.92,-1.67 -0.9,-1.12 l -2.44,0.73"
           inkscape:connector-curvature="0"
           style="vector-effect:non-scaling-stroke;stroke:#828282" />
        <path
           id="path38427"
           d="M 66.06,180.08 C 65.83,169.13 67,157.59 66.94,146.23 a 0.34,0.34 0 0 0 -0.47,-0.31 c -5.09,2.16 -9.16,6.38 -9.42,12.15 q -0.9,20.3 -1.1,40.62 -0.04,4.41 -1.45,8.57 a 0.55,0.55 0 0 0 0.31,0.68 l 1.25,0.54 a 1.08,1.06 9 0 1 0.65,0.88 q 0.35,3.32 2.14,6.12 a 0.83,0.82 55.9 0 0 1.17,0.23 q 4.27,-3.07 7.57,-7.17 1.06,-1.32 0.48,-2.91 c -3.34,-9.28 -2.21,-12.48 2.15,-21.28 q 4.69,-9.45 9.97,-18.62 0.25,-0.44 0.22,0.06 -1.34,21.85 -2.22,43.71 -0.25,6.35 1.26,12.61 a 1.12,1.12 0 0 0 1.45,0.8 c 2.16,-0.74 6.63,-6.06 8.41,-7.87 a 0.97,0.95 -28.1 0 0 0.27,-0.85 q -1.43,-7.82 -0.9,-19.51 1.56,-34.68 2.32,-43.93 0.26,-3.2 3.78,-6.26 A 0.67,0.65 -21.8 0 0 95,144 l 0.01,-0.39 a 0.45,0.45 0 0 0 -0.65,-0.41 l -2.73,1.35 q -0.7,0.35 -0.58,-0.42 l 0.23,-1.57 q 0.3,-1.97 -1.49,-1.11 -9.47,4.53 -8.74,15.02 a 1.62,1.61 -29.6 0 1 -0.29,1.04 q -7.77,10.9 -14.02,22.73 -0.66,1.23 -0.68,-0.16"
           inkscape:connector-curvature="0"
           style="vector-effect:non-scaling-stroke;stroke:#828282" />
        <path
           id="path38429"
           d="m 297.06,0 c 10.11,1.95 3.43,7.38 4.16,13.93 0.44,3.94 -0.99,6.58 -3.78,9.04 a 0.86,0.85 -26.9 0 0 -0.27,0.81 c 1.47,6.94 -4.45,11.36 -8.48,15.84 a 1.21,1.18 65.1 0 0 -0.31,0.88 c 0.3,4.56 6.9,6.91 -1.27,10.15 q -2.28,0.9 -1.09,3.04 l 1.27,2.28 a 0.88,0.87 50.7 0 1 -0.09,0.97 c -1.54,1.87 -3.48,3.46 -4.46,5.68 q -2.07,4.67 -4.04,9.35 a 0.43,0.43 0 0 1 -0.6,0.22 q -1,-0.52 -1.89,0.31"
           inkscape:connector-curvature="0"
           style="vector-effect:non-scaling-stroke;stroke:#f3f3f3" />
        <path
           id="path38431"
           d="m 276.21,72.5 q -1.98,-8.82 -2.84,-18.06 a 1.38,1.38 0 0 0 -1.93,-1.13 c -4.42,1.99 -8.42,6.5 -8.45,11.68 -0.05,9.43 -0.65,21.57 -4.32,30.36 a 0.88,0.86 -82.7 0 1 -0.68,0.54 C 246.88,97.52 241.71,85.45 246.86,76.85 q 2.53,-4.23 4.08,-8.97 0.9,-2.8 -1.74,-1.51 -10.8,5.26 -13.33,17.68 c -1.07,5.28 -8.83,12.65 -14.03,13.81 -3.14,0.69 -9.65,1.16 -10.76,-2.65 -2.54,-8.73 21.84,-32.89 28.47,-38.42 q 2.23,-1.86 3.94,-4.35 0.3,-0.45 -0.24,-0.44 c -3.12,0.07 -9.31,5.88 -11.71,8"
           inkscape:connector-curvature="0"
           style="vector-effect:non-scaling-stroke;stroke:#767676" />
        <path
           id="path38433"
           d="m 190.69,238 4.88,-0.62 a 0.53,0.52 -11.5 0 0 0.44,-0.66 q -0.73,-2.65 -2.51,-4.71 a 1.38,1.37 21.9 0 1 -0.34,-0.79 c -0.58,-6.38 1.3,-7.46 5.56,-11.32 a 0.95,0.93 63.7 0 0 0.28,-0.87 q -0.97,-4.81 -0.55,-9.7 a 0.87,0.86 81.3 0 1 0.54,-0.74 q 0.47,-0.2 0.72,0.16"
           inkscape:connector-curvature="0"
           style="vector-effect:non-scaling-stroke;stroke:#f3f3f3" />
        <path
           id="path38435"
           d="m 199.71,208.75 3.1,9.96 q 0.75,2.41 2.78,0.91 c 2.71,-2.01 8.82,-6.2 7.89,-9.98 a 0.71,0.71 0 0 1 0.29,-0.76 q 5.56,-3.7 9.09,-9.37 0.56,-0.9 -0.44,-0.56 -3.31,1.13 -5.63,3.78 -1.84,2.1 -1.81,-0.7 l 0.07,-6.6 a 0.81,0.8 86.3 0 1 0.68,-0.79 l 17.44,-2.77 a 1.41,1.41 0 0 1 1.63,1.3 q 0.82,11.99 5.32,23.11 0.84,2.07 2.43,0.5 l 7.13,-7.02 a 2.13,2.12 56.9 0 0 0.48,-2.31 q -3.57,-8.88 -5.04,-18.33 a 0.78,0.77 69.4 0 1 0.34,-0.76 l 9.11,-5.93 q 0.49,-0.33 0.49,0.26 l -0.07,33.46 q 0,2.85 2.5,1.49 4.55,-2.47 7.53,-6.68 a 1.61,1.54 63.3 0 0 0.29,-0.95 l -0.42,-27.61 a 0.36,0.36 0 0 1 0.35,-0.37 c 0.18,0 0.54,0.29 0.62,0.47 q 2.9,6.83 7.65,12.61 a 0.72,0.71 39.1 0 1 0.09,0.79 l -1.4,2.73 q -0.51,1 0.49,0.49 c 3.98,-2.04 6,0.19 9.1,-0.07 4.07,-0.34 7.6,-4.85 10.06,-7.86 q 1.53,-1.88 -0.9,-1.89 -2.77,-0.01 -5.04,-1.58 -1.53,-1.05 -0.47,-2.57 l 12.26,-17.73 q 1.78,-2.58 1.36,0.53 -3.18,23.4 -3.86,46.21 c -0.23,7.55 9.17,-2.07 10.38,-3.45 q 1.23,-1.41 0.6,-3.17 -0.69,-1.94 -0.65,-5.04 c 0.28,-18.88 3.45,-37.86 3.47,-56.16 a 1.16,1.16 0 0 0 -1.62,-1.06 q -4.59,2 -7.48,7.02 c -1.97,3.42 -0.11,6.38 -3.06,10.37 q -7.5,10.12 -13.99,19.77 a 1.27,1.27 0 0 1 -2.17,-0.09 c -5.08,-9.16 -8.45,-20.02 -14.41,-28.02 q -1.46,-1.95 0.4,-3.54 5.33,-4.54 9.44,-10.09 c 3.41,-4.6 3.83,-11.25 3.89,-16.78 a 0.68,0.68 0 0 1 0.54,-0.65 l 2.74,-0.54 a 1.84,1.83 16.8 0 0 0.9,-0.48 l 7.99,-7.83 q 1.09,-1.07 -0.43,-1.18 l -6.9,-0.49 q -3.13,-0.21 -2.73,-3.32 c 0.38,-2.91 1.75,-6.24 3.44,-8.99 q 9.64,-15.68 22.45,-29.07 1.12,-1.17 1.09,0.44 c -0.29,18.61 -1.82,36.82 0.81,55.57 a 0.57,0.57 0 0 0 0.87,0.39 q 4.88,-3.23 8.33,-7.97 a 3.55,3.53 -31.1 0 0 0.64,-2.55 c -2.27,-16.96 -0.99,-35.61 -0.75,-52.81 a 1.01,1 -15.7 0 1 0.47,-0.83 q 5.31,-3.26 9.17,-8.17 3.28,-4.15 -1.54,-1.95 l -9.57,4.37 q -2.04,0.93 -3.52,2.61 c -12.03,13.65 -22.91,24.64 -34.53,41.34 q -0.28,0.41 -0.3,-0.08 -0.63,-14.75 -2.96,-29.23"
           inkscape:connector-curvature="0"
           style="vector-effect:non-scaling-stroke;stroke:#828282" />
        <path
           id="path38437"
           d="m 319.73,151.75 c -4.99,4.32 -6.9,4.79 -6.77,12.39 q 0.35,21.38 -0.56,42.3 -0.06,1.32 0.96,0.48 c 2.72,-2.21 9.66,-7.66 9.65,-11.18 q -0.06,-22.09 0.04,-44.24 a 0.66,0.65 87.6 0 1 0.6,-0.66 l 11.5,-1.08 a 0.41,0.41 0 0 1 0.44,0.43 c -0.92,17.95 -2.86,35.81 -3.6,53.81 q -0.15,3.47 0.08,5.23 0.4,3.24 2.85,1.08 3.33,-2.96 5.49,-5.39 c 2.02,-2.27 1.4,-5.4 1.5,-7.96 q 0.98,-25.05 3.88,-49.96 0.24,-2.04 -0.23,-6.29 a 0.56,0.54 85.9 0 0 -0.55,-0.49 q -8.55,0.14 -17.06,0.94 c -4.97,0.46 -8.15,4.25 -10.89,8.18 q -1.03,1.48 0.77,1.59 l 1.66,0.11 q 1,0.06 0.24,0.71"
           inkscape:connector-curvature="0"
           style="vector-effect:non-scaling-stroke;stroke:#828282" />
        <path
           id="path38439"
           d="m 362.08,173.53 2.18,-31.78 q 0.09,-1.36 -1.11,-0.71 c -4.32,2.31 -8.81,6.46 -9.1,11.68 q -0.89,15.96 -2.2,31.89 -0.2,2.42 -1.34,5.73 c -1.83,5.32 -4.98,22.73 5.73,21.65 10.9,-1.1 20.53,-10.91 26.55,-19.29 4.95,-6.91 5.79,-14.65 2.06,-22.12 a 2.81,2.81 0 0 0 -2.21,-1.55 q -10.99,-1.25 -20.02,4.81 -0.59,0.4 -0.54,-0.31"
           inkscape:connector-curvature="0"
           style="vector-effect:non-scaling-stroke;stroke:#828282" />
        <path
           id="path38441"
           d="m 402.43,142.26 c -3.2,1.35 -8.94,5.88 -9.22,9.62 -1.05,13.69 -3.21,24.87 -5.98,39.64 -2.05,10.96 -2.84,20.52 -3.3,31.24 q -0.18,4.19 3.07,1.54 3.74,-3.06 6.7,-6.77 a 1.63,1.6 65.5 0 0 0.36,-0.99 q 0.45,-18.43 1.47,-24.03 c 3.33,-18.33 7.02,-33.71 7.36,-49.94 a 0.33,0.33 0 0 0 -0.46,-0.31"
           inkscape:connector-curvature="0"
           style="vector-effect:non-scaling-stroke;stroke:#828282" />
        <path
           id="path38443"
           d="m 60.09,82.04 c 3.8,10.15 12.81,21.38 24.69,22.05 a 1.06,1.05 -66.9 0 0 0.84,-0.34 C 95.18,93.17 97.85,67.41 97.98,53.77 98.13,37.89 87.15,21.97 69.89,23.49 c -3.58,0.31 -4.51,1.75 -5.57,4.92 -5.15,15.4 -9.97,38.33 -4.23,53.63"
           inkscape:connector-curvature="0"
           style="vector-effect:non-scaling-stroke;stroke:#828282" />
        <path
           id="path38445"
           d="M 71.03,113.26 C 61.19,110.13 54.67,101.78 50.62,92.71 q -0.2,-0.47 -0.2,0.04 c 0.1,11.81 7.04,23.23 20.57,21.12 q 1.32,-0.2 0.04,-0.61"
           inkscape:connector-curvature="0"
           style="vector-effect:non-scaling-stroke;stroke:#828282" />
        <path
           id="path38447"
           d="m 199.71,208.75 c -2.99,-16.93 -1.72,-35.65 -1.72,-52.57 q 0,-2.39 -1.47,-0.51 -10.39,13.27 -15.31,29.32 c -1.68,5.48 -4.17,17.5 -0.03,21.59 1.43,1.42 3.39,1.45 5.31,1.85 a 0.34,0.34 0 0 1 0.22,0.52 c -2.62,4.13 -9.43,12.09 -14.42,7.93 -6.33,-5.28 -2.1,-20.22 0,-26.65 6.81,-20.84 22.94,-42 43.01,-51.8 q 3.82,-1.86 1.39,1.63 -2.94,4.23 -7.42,6.83 A 2.54,2.53 -15.3 0 0 208,149.1 v 37.77 a 0.33,0.32 -14.4 0 0 0.48,0.28 q 0.19,-0.11 0.27,-0.39 c 4.69,-16.57 12.45,-29.83 27.15,-39.22 a 0.48,0.48 0 0 0 0.13,-0.68 c -3.73,-5.37 -7.62,-10.65 -3.55,-16.57 q 6.03,-8.77 17.02,-11.33"
           inkscape:connector-curvature="0"
           style="vector-effect:non-scaling-stroke;stroke:#767676" />
        <path
           id="path38449"
           d="m 249.5,118.96 q 0.57,0.32 0.57,1.06 a 1.23,1.2 -22.4 0 1 -0.37,0.87 l -8.24,7.99 a 0.69,0.69 0 0 0 -0.14,0.8 c 4.98,10.03 14.15,17.06 25.8,15.08 q 1.81,-0.31 1.88,-2.14 0.95,-25.48 -1.21,-50.86 -0.12,-1.42 -0.82,-0.18 -4.9,8.64 -13.23,13.87"
           inkscape:connector-curvature="0"
           style="vector-effect:non-scaling-stroke;stroke:#828282" />
        <path
           id="path38451"
           d="m 253.74,105.45 c -9.47,2.7 -18.99,-1.07 -18.67,-12.29 q 0.07,-2.35 -1.43,-0.54 -7.71,9.31 -18.46,14.82 a 1.59,1.59 0 0 0 -0.72,0.75 q -2.97,6.41 -8.99,10.08 a 0.76,0.76 0 0 1 -1.14,-0.47 q -0.99,-4.13 -2.07,-8.44 c -0.48,-1.91 -1.42,-3.13 -2.3,-4.86"
           inkscape:connector-curvature="0"
           style="vector-effect:non-scaling-stroke;stroke:#767676" />
        <path
           id="path38453"
           d="m 152.97,70.19 c 0.14,12.05 1.3,19.05 -3.78,27.39 q -0.29,0.47 0.23,0.29 0.75,-0.27 1.09,-0.92 10.28,-19.9 24.42,-37.38 0.31,-0.39 -0.16,-0.22 -11.2,4.08 -21.37,10.09 a 0.87,0.86 75 0 0 -0.43,0.75"
           inkscape:connector-curvature="0"
           style="vector-effect:non-scaling-stroke;stroke:#828282" />
        <path
           id="path38455"
           d="M 141.24,71.61 C 139.42,63.23 133.85,56.7 124.4,60.36 a 0.77,0.76 80.6 0 0 -0.48,0.68 l -1.35,25.17 q -0.03,0.52 0.35,0.17 8.38,-7.76 17.99,-13.97 a 0.77,0.75 68 0 0 0.33,-0.8"
           inkscape:connector-curvature="0"
           style="vector-effect:non-scaling-stroke;stroke:#828282" />
        <path
           id="path38457"
           d="m 173.5,67.25 q -8.2,11.59 -14.32,24.42 -0.79,1.66 1.01,1.26 l 12.93,-2.86 a 0.73,0.72 -5.9 0 0 0.58,-0.71 l 0.31,-21.94 q 0.01,-0.89 -0.51,-0.17"
           inkscape:connector-curvature="0"
           style="vector-effect:non-scaling-stroke;stroke:#828282" />
        <path
           id="path38459"
           d="m 124.72,106.62 c 22.49,4.69 18.69,-16.61 18.03,-29.95 a 0.67,0.66 72.3 0 0 -1.02,-0.53 c -4.84,3.11 -19.39,11.78 -19.81,17.79 q -0.34,4.91 0.2,9.83 0.26,2.37 2.6,2.86"
           inkscape:connector-curvature="0"
           style="vector-effect:non-scaling-stroke;stroke:#828282" />
        <path
           id="path38461"
           d="m 256.48,155.03 c -5.29,-0.02 -8.83,0.06 -14.04,-2.81 q -0.46,-0.25 -0.42,0.27 l 2.06,27.83 a 1.01,1.01 0 0 0 1.31,0.89 l 8.68,-2.69 a 1.39,1.37 81.1 0 0 0.97,-1.35 q -0.23,-9.25 0.65,-17.86 c 0.14,-1.34 0.98,-2.38 1.22,-3.77 a 0.44,0.44 0 0 0 -0.43,-0.51"
           inkscape:connector-curvature="0"
           style="vector-effect:non-scaling-stroke;stroke:#828282" />
        <path
           id="path38463"
           d="m 231.44,154.83 c -6.55,3.83 -10.49,15.81 -12.71,23.47 -0.5,1.7 -1.65,4.04 -1.69,6.46 a 0.51,0.5 -2.1 0 0 0.56,0.51 l 14.52,-1.29 a 1.49,1.49 0 0 0 1.35,-1.57 l -1.61,-27.35 a 0.28,0.28 0 0 0 -0.42,-0.23"
           inkscape:connector-curvature="0"
           style="vector-effect:non-scaling-stroke;stroke:#828282" />
        <path
           id="path38465"
           d="m 129.92,177.23 c -7.12,-1.65 -15.93,2.74 -19.49,9.16 q -1.27,2.29 -3.36,4.07 -1.34,1.15 -0.95,2.87 0.75,3.26 3.39,6.15 10.09,11.07 24.86,7.16 a 0.66,0.66 0 0 0 0.5,-0.63 c 0.39,-11.2 0.76,-17.65 -1.89,-25.96 q -0.73,-2.28 -3.06,-2.82"
           inkscape:connector-curvature="0"
           style="vector-effect:non-scaling-stroke;stroke:#828282" />
        <path
           id="path38467"
           d="m 249.5,118.96 q 2.77,-2.5 3.92,-6.02 1.21,-3.69 0.32,-7.49"
           inkscape:connector-curvature="0"
           style="vector-effect:non-scaling-stroke;stroke:#f3f3f3" />
        <path
           id="path38469"
           d="m 363.06,179.8 -0.09,14.79 a 1.52,1.44 -30.6 0 1 -0.22,0.77 l -2.41,3.86 q -1.35,2.16 1.17,2.58 c 12.43,2.04 17.33,-6.9 15.02,-17.87 -1.44,-6.87 -7.57,-4.94 -12.69,-4.91 a 0.78,0.78 0 0 0 -0.78,0.78"
           inkscape:connector-curvature="0"
           style="vector-effect:non-scaling-stroke;stroke:#828282" />
      </g>
      <path
         id="path38473"
         d="m 0,0 h 249.81 q -2.32,0.91 -4.81,0.08 -1.35,-0.44 -0.9,0.9 c 1.42,4.22 2.33,8.61 0.73,13.04 -2.11,5.83 -3.38,11.43 -6.25,17.05 a 0.93,0.92 42.4 0 0 0.05,0.92 l 0.84,1.33 a 0.84,0.83 -42.3 0 1 -0.05,0.97 q -2.52,3.22 -4.71,6.66 c -1.12,1.78 -0.42,4.07 -1.74,6.2 -2.49,4.02 -6.19,9.63 -1.43,12.85 q -11.32,10.95 -20.55,23.78 -0.81,1.12 -0.8,-0.26 l 0.05,-25.72 a 1.02,1.01 77.3 0 0 -1.45,-0.92 c -4.27,2.01 -8.68,7.1 -8.56,12.3 q 0.19,7.99 -0.19,15.99 a 0.6,0.59 87.1 0 1 -0.51,0.57 l -14.98,2.22 a 0.41,0.41 0 0 1 -0.47,-0.4 l -0.31,-29.03 q -0.01,-1.26 -0.98,-0.46 l -3.27,2.68 Q 179,61.18 178.94,60.51 C 178.7,58 187.45,52.3 188.47,49.3 q 0.71,-2.08 -1.37,-1.37 c -12.36,4.2 -23.1,10.36 -34.42,16.66 a 0.41,0.4 66.9 0 1 -0.58,-0.24 c -1.3,-4.34 -3.2,-9.68 -7.04,-12.71 -4.17,-3.29 -13.43,-2.15 -17.78,0.29 q -22.15,12.39 -19.06,39.14 a 0.46,0.45 -13.1 0 0 0.6,0.37 q 1.99,-0.7 3.39,-2.26 a 0.43,0.42 -59 0 1 0.45,-0.12 c 0.63,0.24 -0.59,6.97 -0.73,7.89 -0.44,2.84 -2.08,7.23 -1.68,11.41 1.3,13.73 0.96,28.06 0.64,41.78 a 1.5,1.5 0 0 1 -0.68,1.22 c -1.81,1.18 -12.29,10.11 -10.39,12.32 a 0.54,0.54 0 0 0 0.76,0.06 c 1.16,-0.97 9.08,-7.79 9.93,-7.48 a 0.59,0.58 -83.7 0 1 0.39,0.49 l 0.27,2.86 a 0.56,0.56 0 0 0 0.88,0.4 l 6.7,-4.78 q 1.82,-1.29 2.15,0.92 2.15,14.54 -10.24,23.78 -1.92,1.43 -4.64,6.02 c -3.34,5.64 -12.99,9.98 -9.22,18.15 q 5.5,11.92 19.22,13.12 16.03,1.41 25.88,-11.06 3.6,-4.56 3.55,-10.66 c -0.06,-8.65 0.42,-18.95 -3.35,-26.34 q -1.02,-2.01 -3.27,-2.13 c -6.09,-0.33 -9.04,1.15 -14.57,3.04 q -0.47,0.16 -0.19,-0.25 c 5.22,-7.6 8.53,-14.87 6.7,-24.34 a 0.73,0.72 -7.8 0 0 -0.78,-0.59 l -7.88,0.74 A 1.02,1.01 -2.6 0 1 121,144.62 v -26.75 a 0.57,0.57 0 0 1 0.48,-0.56 q 13.01,-2.17 22.26,-12.55 0.97,-1.09 2.79,-0.86 a 0.63,0.61 -86.9 0 1 0.54,0.62 l -0.09,8.24 a 1.22,1.22 0 0 0 0.99,1.21 c 5.48,1.09 12.28,-7.57 15.52,-11.31 q 1,-1.15 -0.4,-0.55 l -4.73,2.01 a 0.96,0.95 74.3 0 1 -1.32,-0.75 q -0.3,-2.07 1.96,-2.49 7.09,-1.3 14.38,-2.42 a 0.44,0.44 0 0 1 0.51,0.42 q 0.14,9.32 0.71,18.63 0.19,2.99 0.04,4.21 -0.38,3.25 1.98,0.97 l 8.39,-8.14 a 1.37,1.36 65 0 0 0.4,-1.12 l -1.45,-15 q -0.18,-1.86 1.67,-2.14 l 14.01,-2.12 a 0.61,0.61 0 0 1 0.68,0.5 q 0.85,5.02 -0.36,9.83 -0.57,1.39 -1.83,2.14 a 0.92,0.9 -20.2 0 0 -0.44,0.93 l 0.49,2.91 a 1.43,1.41 67.1 0 1 -0.54,1.35 q -6.12,4.68 -7.52,12.34 a 2.17,2.12 -19.6 0 1 -0.48,0.98 q -3.46,3.95 -4.91,8.98 c -0.8,2.79 -2.81,4.37 -3.83,7.76 q -1.54,5.11 -7.45,5.3 a 0.97,0.97 0 0 0 -0.8,0.45 q -3.47,5.4 -7.84,10.14 -1.63,1.78 -0.79,4.04 c 2.52,6.79 -0.85,9.75 -4.13,15.05 -2.49,4.03 -2.55,8.94 -4.36,13.26 -2.06,4.9 -6.81,8.91 -7.62,14.05 q -0.71,4.51 -2.66,8.71 a 0.56,0.56 0 0 0 0.3,0.76 l 1.6,0.66 a 0.72,0.71 19.8 0 1 0.42,0.88 l -3.67,11.55 a 1.35,1.34 44.7 0 0 0.01,0.86 c 1.07,3.13 2.98,6.03 3.11,9.37 a 0.63,0.63 0 0 0 0.5,0.6 l 1.92,0.43 H 0 Z m 90.58,104.83 q -0.99,0.3 -0.37,-0.53 13.53,-17.95 16.17,-40.33 c 1.66,-14.04 3.72,-26.24 -3.85,-37.98 Q 93.59,12.12 77.49,13.93 c -7.64,0.85 -15.13,9.6 -19.25,15.42 q -0.29,0.41 -0.19,-0.08 0.82,-4.18 2.84,-7.96 c 0.39,-0.72 0.03,-1.64 -0.97,-1.1 q -6.9,3.78 -9.88,11.09 C 42.29,50.31 39.94,70.25 39.83,92 c -0.05,9.37 0.7,27.08 12.11,30.6 q 16.08,4.98 27.46,-7.62 a 1.32,1.31 -72.5 0 1 0.82,-0.43 q 9.19,-1.17 13.7,-9.33 0.92,-1.67 -0.9,-1.12 z M 66.06,180.08 C 65.83,169.13 67,157.59 66.94,146.23 a 0.34,0.34 0 0 0 -0.47,-0.31 c -5.09,2.16 -9.16,6.38 -9.42,12.15 q -0.9,20.3 -1.1,40.62 -0.04,4.41 -1.45,8.57 a 0.55,0.55 0 0 0 0.31,0.68 l 1.25,0.54 a 1.08,1.06 9 0 1 0.65,0.88 q 0.35,3.32 2.14,6.12 a 0.83,0.82 55.9 0 0 1.17,0.23 q 4.27,-3.07 7.57,-7.17 1.06,-1.32 0.48,-2.91 c -3.34,-9.28 -2.21,-12.48 2.15,-21.28 q 4.69,-9.45 9.97,-18.62 0.25,-0.44 0.22,0.06 -1.34,21.85 -2.22,43.71 -0.25,6.35 1.26,12.61 a 1.12,1.12 0 0 0 1.45,0.8 c 2.16,-0.74 6.63,-6.06 8.41,-7.87 a 0.97,0.95 -28.1 0 0 0.27,-0.85 q -1.43,-7.82 -0.9,-19.51 1.56,-34.68 2.32,-43.93 0.26,-3.2 3.78,-6.26 A 0.67,0.65 -21.8 0 0 95,144 l 0.01,-0.39 a 0.45,0.45 0 0 0 -0.65,-0.41 l -2.73,1.35 q -0.7,0.35 -0.58,-0.42 l 0.23,-1.57 q 0.3,-1.97 -1.49,-1.11 -9.47,4.53 -8.74,15.02 a 1.62,1.61 -29.6 0 1 -0.29,1.04 q -7.77,10.9 -14.02,22.73 -0.66,1.23 -0.68,-0.16 z"
         inkscape:connector-curvature="0"
         style="fill:#ffffff" />
      <path
         id="path38475"
         d="m 249.81,0 h 47.25 c 10.11,1.95 3.43,7.38 4.16,13.93 0.44,3.94 -0.99,6.58 -3.78,9.04 a 0.86,0.85 -26.9 0 0 -0.27,0.81 c 1.47,6.94 -4.45,11.36 -8.48,15.84 a 1.21,1.18 65.1 0 0 -0.31,0.88 c 0.3,4.56 6.9,6.91 -1.27,10.15 q -2.28,0.9 -1.09,3.04 l 1.27,2.28 a 0.88,0.87 50.7 0 1 -0.09,0.97 c -1.54,1.87 -3.48,3.46 -4.46,5.68 q -2.07,4.67 -4.04,9.35 a 0.43,0.43 0 0 1 -0.6,0.22 q -1,-0.52 -1.89,0.31 -1.98,-8.82 -2.84,-18.06 a 1.38,1.38 0 0 0 -1.93,-1.13 c -4.42,1.99 -8.42,6.5 -8.45,11.68 -0.05,9.43 -0.65,21.57 -4.32,30.36 a 0.88,0.86 -82.7 0 1 -0.68,0.54 C 246.88,97.52 241.71,85.45 246.86,76.85 q 2.53,-4.23 4.08,-8.97 0.9,-2.8 -1.74,-1.51 -10.8,5.26 -13.33,17.68 c -1.07,5.28 -8.83,12.65 -14.03,13.81 -3.14,0.69 -9.65,1.16 -10.76,-2.65 -2.54,-8.73 21.84,-32.89 28.47,-38.42 q 2.23,-1.86 3.94,-4.35 0.3,-0.45 -0.24,-0.44 c -3.12,0.07 -9.31,5.88 -11.71,8 -4.76,-3.22 -1.06,-8.83 1.43,-12.85 1.32,-2.13 0.62,-4.42 1.74,-6.2 q 2.19,-3.44 4.71,-6.66 a 0.84,0.83 -42.3 0 0 0.05,-0.97 l -0.84,-1.33 a 0.93,0.92 42.4 0 1 -0.05,-0.92 c 2.87,-5.62 4.14,-11.22 6.25,-17.05 1.6,-4.43 0.69,-8.82 -0.73,-13.04 q -0.45,-1.34 0.9,-0.9 2.49,0.83 4.81,-0.08 z"
         inkscape:connector-curvature="0"
         style="fill:#e7e7e7" />
      <path
         id="path38477"
         d="M 297.06,0 H 450 V 238 H 190.69 l 4.88,-0.62 a 0.53,0.52 -11.5 0 0 0.44,-0.66 q -0.73,-2.65 -2.51,-4.71 a 1.38,1.37 21.9 0 1 -0.34,-0.79 c -0.58,-6.38 1.3,-7.46 5.56,-11.32 a 0.95,0.93 63.7 0 0 0.28,-0.87 q -0.97,-4.81 -0.55,-9.7 a 0.87,0.86 81.3 0 1 0.54,-0.74 q 0.47,-0.2 0.72,0.16 l 3.1,9.96 q 0.75,2.41 2.78,0.91 c 2.71,-2.01 8.82,-6.2 7.89,-9.98 a 0.71,0.71 0 0 1 0.29,-0.76 q 5.56,-3.7 9.09,-9.37 0.56,-0.9 -0.44,-0.56 -3.31,1.13 -5.63,3.78 -1.84,2.1 -1.81,-0.7 l 0.07,-6.6 a 0.81,0.8 86.3 0 1 0.68,-0.79 l 17.44,-2.77 a 1.41,1.41 0 0 1 1.63,1.3 q 0.82,11.99 5.32,23.11 0.84,2.07 2.43,0.5 l 7.13,-7.02 a 2.13,2.12 56.9 0 0 0.48,-2.31 q -3.57,-8.88 -5.04,-18.33 a 0.78,0.77 69.4 0 1 0.34,-0.76 l 9.11,-5.93 q 0.49,-0.33 0.49,0.26 l -0.07,33.46 q 0,2.85 2.5,1.49 4.55,-2.47 7.53,-6.68 a 1.61,1.54 63.3 0 0 0.29,-0.95 l -0.42,-27.61 a 0.36,0.36 0 0 1 0.35,-0.37 c 0.18,0 0.54,0.29 0.62,0.47 q 2.9,6.83 7.65,12.61 a 0.72,0.71 39.1 0 1 0.09,0.79 l -1.4,2.73 q -0.51,1 0.49,0.49 c 3.98,-2.04 6,0.19 9.1,-0.07 4.07,-0.34 7.6,-4.85 10.06,-7.86 q 1.53,-1.88 -0.9,-1.89 -2.77,-0.01 -5.04,-1.58 -1.53,-1.05 -0.47,-2.57 l 12.26,-17.73 q 1.78,-2.58 1.36,0.53 -3.18,23.4 -3.86,46.21 c -0.23,7.55 9.17,-2.07 10.38,-3.45 q 1.23,-1.41 0.6,-3.17 -0.69,-1.94 -0.65,-5.04 c 0.28,-18.88 3.45,-37.86 3.47,-56.16 a 1.16,1.16 0 0 0 -1.62,-1.06 q -4.59,2 -7.48,7.02 c -1.97,3.42 -0.11,6.38 -3.06,10.37 q -7.5,10.12 -13.99,19.77 a 1.27,1.27 0 0 1 -2.17,-0.09 c -5.08,-9.16 -8.45,-20.02 -14.41,-28.02 q -1.46,-1.95 0.4,-3.54 5.33,-4.54 9.44,-10.09 c 3.41,-4.6 3.83,-11.25 3.89,-16.78 a 0.68,0.68 0 0 1 0.54,-0.65 l 2.74,-0.54 a 1.84,1.83 16.8 0 0 0.9,-0.48 l 7.99,-7.83 q 1.09,-1.07 -0.43,-1.18 l -6.9,-0.49 q -3.13,-0.21 -2.73,-3.32 c 0.38,-2.91 1.75,-6.24 3.44,-8.99 q 9.64,-15.68 22.45,-29.07 1.12,-1.17 1.09,0.44 c -0.29,18.61 -1.82,36.82 0.81,55.57 a 0.57,0.57 0 0 0 0.87,0.39 q 4.88,-3.23 8.33,-7.97 a 3.55,3.53 -31.1 0 0 0.64,-2.55 c -2.27,-16.96 -0.99,-35.61 -0.75,-52.81 a 1.01,1 -15.7 0 1 0.47,-0.83 q 5.31,-3.26 9.17,-8.17 3.28,-4.15 -1.54,-1.95 l -9.57,4.37 q -2.04,0.93 -3.52,2.61 c -12.03,13.65 -22.91,24.64 -34.53,41.34 q -0.28,0.41 -0.3,-0.08 -0.63,-14.75 -2.96,-29.23 0.89,-0.83 1.89,-0.31 a 0.43,0.43 0 0 0 0.6,-0.22 q 1.97,-4.68 4.04,-9.35 c 0.98,-2.22 2.92,-3.81 4.46,-5.68 a 0.88,0.87 50.7 0 0 0.09,-0.97 l -1.27,-2.28 q -1.19,-2.14 1.09,-3.04 c 8.17,-3.24 1.57,-5.59 1.27,-10.15 a 1.21,1.18 65.1 0 1 0.31,-0.88 c 4.03,-4.48 9.95,-8.9 8.48,-15.84 a 0.86,0.85 -26.9 0 1 0.27,-0.81 c 2.79,-2.46 4.22,-5.1 3.78,-9.04 C 300.49,7.38 307.17,1.95 297.06,0 Z m 22.67,151.75 c -4.99,4.32 -6.9,4.79 -6.77,12.39 q 0.35,21.38 -0.56,42.3 -0.06,1.32 0.96,0.48 c 2.72,-2.21 9.66,-7.66 9.65,-11.18 q -0.06,-22.09 0.04,-44.24 a 0.66,0.65 87.6 0 1 0.6,-0.66 l 11.5,-1.08 a 0.41,0.41 0 0 1 0.44,0.43 c -0.92,17.95 -2.86,35.81 -3.6,53.81 q -0.15,3.47 0.08,5.23 0.4,3.24 2.85,1.08 3.33,-2.96 5.49,-5.39 c 2.02,-2.27 1.4,-5.4 1.5,-7.96 q 0.98,-25.05 3.88,-49.96 0.24,-2.04 -0.23,-6.29 a 0.56,0.54 85.9 0 0 -0.55,-0.49 q -8.55,0.14 -17.06,0.94 c -4.97,0.46 -8.15,4.25 -10.89,8.18 q -1.03,1.48 0.77,1.59 l 1.66,0.11 q 1,0.06 0.24,0.71 z m 42.35,21.78 2.18,-31.78 q 0.09,-1.36 -1.11,-0.71 c -4.32,2.31 -8.81,6.46 -9.1,11.68 q -0.89,15.96 -2.2,31.89 -0.2,2.42 -1.34,5.73 c -1.83,5.32 -4.98,22.73 5.73,21.65 10.9,-1.1 20.53,-10.91 26.55,-19.29 4.95,-6.91 5.79,-14.65 2.06,-22.12 a 2.81,2.81 0 0 0 -2.21,-1.55 q -10.99,-1.25 -20.02,4.81 -0.59,0.4 -0.54,-0.31 z m 40.35,-31.27 c -3.2,1.35 -8.94,5.88 -9.22,9.62 -1.05,13.69 -3.21,24.87 -5.98,39.64 -2.05,10.96 -2.84,20.52 -3.3,31.24 q -0.18,4.19 3.07,1.54 3.74,-3.06 6.7,-6.77 a 1.63,1.6 65.5 0 0 0.36,-0.99 q 0.45,-18.43 1.47,-24.03 c 3.33,-18.33 7.02,-33.71 7.36,-49.94 a 0.33,0.33 0 0 0 -0.46,-0.31 z"
         inkscape:connector-curvature="0"
         style="fill:#ffffff" />
      <path
         id="path38479"
         d="m 90.58,104.83 2.44,-0.73 q 1.82,-0.55 0.9,1.12 -4.51,8.16 -13.7,9.33 a 1.32,1.31 -72.5 0 0 -0.82,0.43 q -11.38,12.6 -27.46,7.62 C 40.53,119.08 39.78,101.37 39.83,92 39.94,70.25 42.29,50.31 50.04,31.3 q 2.98,-7.31 9.88,-11.09 c 1,-0.54 1.36,0.38 0.97,1.1 q -2.02,3.78 -2.84,7.96 -0.1,0.49 0.19,0.08 C 62.36,23.53 69.85,14.78 77.49,13.93 q 16.1,-1.81 25.04,12.06 c 7.57,11.74 5.51,23.94 3.85,37.98 q -2.64,22.38 -16.17,40.33 -0.62,0.83 0.37,0.53 z M 60.09,82.04 c 3.8,10.15 12.81,21.38 24.69,22.05 a 1.06,1.05 -66.9 0 0 0.84,-0.34 C 95.18,93.17 97.85,67.41 97.98,53.77 98.13,37.89 87.15,21.97 69.89,23.49 c -3.58,0.31 -4.51,1.75 -5.57,4.92 -5.15,15.4 -9.97,38.33 -4.23,53.63 z m 10.94,31.22 C 61.19,110.13 54.67,101.78 50.62,92.71 q -0.2,-0.47 -0.2,0.04 c 0.1,11.81 7.04,23.23 20.57,21.12 q 1.32,-0.2 0.04,-0.61 z"
         inkscape:connector-curvature="0"
         style="fill:#050505" />
      <path
         id="path38481"
         d="M 84.78,104.09 C 72.9,103.42 63.89,92.19 60.09,82.04 54.35,66.74 59.17,43.81 64.32,28.41 c 1.06,-3.17 1.99,-4.61 5.57,-4.92 17.26,-1.52 28.24,14.4 28.09,30.28 -0.13,13.64 -2.8,39.4 -12.36,49.98 a 1.06,1.05 -66.9 0 1 -0.84,0.34 z"
         inkscape:connector-curvature="0"
         style="fill:#ffffff" />
      <path
         id="path38483"
         d="m 231.54,60 c 2.4,-2.12 8.59,-7.93 11.71,-8 q 0.54,-0.01 0.24,0.44 -1.71,2.49 -3.94,4.35 c -6.63,5.53 -31.01,29.69 -28.47,38.42 1.11,3.81 7.62,3.34 10.76,2.65 5.2,-1.16 12.96,-8.53 14.03,-13.81 q 2.53,-12.42 13.33,-17.68 2.64,-1.29 1.74,1.51 -1.55,4.74 -4.08,8.97 c -5.15,8.6 0.02,20.67 11.13,19.04 a 0.88,0.86 -82.7 0 0 0.68,-0.54 c 3.67,-8.79 4.27,-20.93 4.32,-30.36 0.03,-5.18 4.03,-9.69 8.45,-11.68 a 1.38,1.38 0 0 1 1.93,1.13 q 0.86,9.24 2.84,18.06 2.33,14.48 2.96,29.23 0.02,0.49 0.3,0.08 C 291.09,85.11 301.97,74.12 314,60.47 q 1.48,-1.68 3.52,-2.61 l 9.57,-4.37 q 4.82,-2.2 1.54,1.95 -3.86,4.91 -9.17,8.17 a 1.01,1 -15.7 0 0 -0.47,0.83 c -0.24,17.2 -1.52,35.85 0.75,52.81 a 3.55,3.53 -31.1 0 1 -0.64,2.55 q -3.45,4.74 -8.33,7.97 a 0.57,0.57 0 0 1 -0.87,-0.39 c -2.63,-18.75 -1.1,-36.96 -0.81,-55.57 q 0.03,-1.61 -1.09,-0.44 -12.81,13.39 -22.45,29.07 c -1.69,2.75 -3.06,6.08 -3.44,8.99 q -0.4,3.11 2.73,3.32 l 6.9,0.49 q 1.52,0.11 0.43,1.18 l -7.99,7.83 a 1.84,1.83 16.8 0 1 -0.9,0.48 l -2.74,0.54 a 0.68,0.68 0 0 0 -0.54,0.65 c -0.06,5.53 -0.48,12.18 -3.89,16.78 q -4.11,5.55 -9.44,10.09 -1.86,1.59 -0.4,3.54 c 5.96,8 9.33,18.86 14.41,28.02 a 1.27,1.27 0 0 0 2.17,0.09 q 6.49,-9.65 13.99,-19.77 c 2.95,-3.99 1.09,-6.95 3.06,-10.37 q 2.89,-5.02 7.48,-7.02 a 1.16,1.16 0 0 1 1.62,1.06 c -0.02,18.3 -3.19,37.28 -3.47,56.16 q -0.04,3.1 0.65,5.04 0.63,1.76 -0.6,3.17 c -1.21,1.38 -10.61,11 -10.38,3.45 q 0.68,-22.81 3.86,-46.21 0.42,-3.11 -1.36,-0.53 l -12.26,17.73 q -1.06,1.52 0.47,2.57 2.27,1.57 5.04,1.58 2.43,0.01 0.9,1.89 c -2.46,3.01 -5.99,7.52 -10.06,7.86 -3.1,0.26 -5.12,-1.97 -9.1,0.07 q -1,0.51 -0.49,-0.49 l 1.4,-2.73 a 0.72,0.71 39.1 0 0 -0.09,-0.79 q -4.75,-5.78 -7.65,-12.61 c -0.08,-0.18 -0.44,-0.47 -0.62,-0.47 a 0.36,0.36 0 0 0 -0.35,0.37 l 0.42,27.61 a 1.61,1.54 63.3 0 1 -0.29,0.95 q -2.98,4.21 -7.53,6.68 -2.5,1.36 -2.5,-1.49 l 0.07,-33.46 q 0,-0.59 -0.49,-0.26 l -9.11,5.93 a 0.78,0.77 69.4 0 0 -0.34,0.76 q 1.47,9.45 5.04,18.33 a 2.13,2.12 56.9 0 1 -0.48,2.31 l -7.13,7.02 q -1.59,1.57 -2.43,-0.5 -4.5,-11.12 -5.32,-23.11 a 1.41,1.41 0 0 0 -1.63,-1.3 l -17.44,2.77 a 0.81,0.8 86.3 0 0 -0.68,0.79 l -0.07,6.6 q -0.03,2.8 1.81,0.7 2.32,-2.65 5.63,-3.78 1,-0.34 0.44,0.56 -3.53,5.67 -9.09,9.37 a 0.71,0.71 0 0 0 -0.29,0.76 c 0.93,3.78 -5.18,7.97 -7.89,9.98 q -2.03,1.5 -2.78,-0.91 l -3.1,-9.96 c -2.99,-16.93 -1.72,-35.65 -1.72,-52.57 q 0,-2.39 -1.47,-0.51 -10.39,13.27 -15.31,29.32 c -1.68,5.48 -4.17,17.5 -0.03,21.59 1.43,1.42 3.39,1.45 5.31,1.85 a 0.34,0.34 0 0 1 0.22,0.52 c -2.62,4.13 -9.43,12.09 -14.42,7.93 -6.33,-5.28 -2.1,-20.22 0,-26.65 6.81,-20.84 22.94,-42 43.01,-51.8 q 3.82,-1.86 1.39,1.63 -2.94,4.23 -7.42,6.83 A 2.54,2.53 -15.3 0 0 208,149.1 v 37.77 a 0.33,0.32 -14.4 0 0 0.48,0.28 q 0.19,-0.11 0.27,-0.39 c 4.69,-16.57 12.45,-29.83 27.15,-39.22 a 0.48,0.48 0 0 0 0.13,-0.68 c -3.73,-5.37 -7.62,-10.65 -3.55,-16.57 q 6.03,-8.77 17.02,-11.33 0.57,0.32 0.57,1.06 a 1.23,1.2 -22.4 0 1 -0.37,0.87 l -8.24,7.99 a 0.69,0.69 0 0 0 -0.14,0.8 c 4.98,10.03 14.15,17.06 25.8,15.08 q 1.81,-0.31 1.88,-2.14 0.95,-25.48 -1.21,-50.86 -0.12,-1.42 -0.82,-0.18 -4.9,8.64 -13.23,13.87 c -9.47,2.7 -18.99,-1.07 -18.67,-12.29 q 0.07,-2.35 -1.43,-0.54 -7.71,9.31 -18.46,14.82 a 1.59,1.59 0 0 0 -0.72,0.75 q -2.97,6.41 -8.99,10.08 a 0.76,0.76 0 0 1 -1.14,-0.47 q -0.99,-4.13 -2.07,-8.44 c -0.48,-1.91 -1.42,-3.13 -2.3,-4.86 q 1.21,-4.81 0.36,-9.83 a 0.61,0.61 0 0 0 -0.68,-0.5 l -14.01,2.12 q -1.85,0.28 -1.67,2.14 l 1.45,15 a 1.37,1.36 65 0 1 -0.4,1.12 l -8.39,8.14 q -2.36,2.28 -1.98,-0.97 0.15,-1.22 -0.04,-4.21 -0.57,-9.31 -0.71,-18.63 a 0.44,0.44 0 0 0 -0.51,-0.42 q -7.29,1.12 -14.38,2.42 -2.26,0.42 -1.96,2.49 a 0.96,0.95 74.3 0 0 1.32,0.75 l 4.73,-2.01 q 1.4,-0.6 0.4,0.55 c -3.24,3.74 -10.04,12.4 -15.52,11.31 a 1.22,1.22 0 0 1 -0.99,-1.21 l 0.09,-8.24 a 0.63,0.61 -86.9 0 0 -0.54,-0.62 q -1.82,-0.23 -2.79,0.86 -9.25,10.38 -22.26,12.55 a 0.57,0.57 0 0 0 -0.48,0.56 v 26.75 a 1.02,1.01 -2.6 0 0 1.11,1.01 l 7.88,-0.74 a 0.73,0.72 -7.8 0 1 0.78,0.59 c 1.83,9.47 -1.48,16.74 -6.7,24.34 q -0.28,0.41 0.19,0.25 c 5.53,-1.89 8.48,-3.37 14.57,-3.04 q 2.25,0.12 3.27,2.13 c 3.77,7.39 3.29,17.69 3.35,26.34 q 0.05,6.1 -3.55,10.66 -9.85,12.47 -25.88,11.06 -13.72,-1.2 -19.22,-13.12 c -3.77,-8.17 5.88,-12.51 9.22,-18.15 q 2.72,-4.59 4.64,-6.02 12.39,-9.24 10.24,-23.78 -0.33,-2.21 -2.15,-0.92 l -6.7,4.78 a 0.56,0.56 0 0 1 -0.88,-0.4 l -0.27,-2.86 a 0.59,0.58 -83.7 0 0 -0.39,-0.49 c -0.85,-0.31 -8.77,6.51 -9.93,7.48 a 0.54,0.54 0 0 1 -0.76,-0.06 c -1.9,-2.21 8.58,-11.14 10.39,-12.32 a 1.5,1.5 0 0 0 0.68,-1.22 c 0.32,-13.72 0.66,-28.05 -0.64,-41.78 -0.4,-4.18 1.24,-8.57 1.68,-11.41 0.14,-0.92 1.36,-7.65 0.73,-7.89 a 0.43,0.42 -59 0 0 -0.45,0.12 q -1.4,1.56 -3.39,2.26 a 0.46,0.45 -13.1 0 1 -0.6,-0.37 q -3.09,-26.75 19.06,-39.14 c 4.35,-2.44 13.61,-3.58 17.78,-0.29 3.84,3.03 5.74,8.37 7.04,12.71 a 0.41,0.4 66.9 0 0 0.58,0.24 C 164,58.29 174.74,52.13 187.1,47.93 q 2.08,-0.71 1.37,1.37 c -1.02,3 -9.77,8.7 -9.53,11.21 q 0.06,0.67 0.58,0.24 l 3.27,-2.68 q 0.97,-0.8 0.98,0.46 l 0.31,29.03 a 0.41,0.41 0 0 0 0.47,0.4 l 14.98,-2.22 a 0.6,0.59 87.1 0 0 0.51,-0.57 q 0.38,-8 0.19,-15.99 c -0.12,-5.2 4.29,-10.29 8.56,-12.3 a 1.02,1.01 77.3 0 1 1.45,0.92 l -0.05,25.72 q -0.01,1.38 0.8,0.26 9.23,-12.83 20.55,-23.78 z m -78.57,10.19 c 0.14,12.05 1.3,19.05 -3.78,27.39 q -0.29,0.47 0.23,0.29 0.75,-0.27 1.09,-0.92 10.28,-19.9 24.42,-37.38 0.31,-0.39 -0.16,-0.22 -11.2,4.08 -21.37,10.09 a 0.87,0.86 75 0 0 -0.43,0.75 z m -11.73,1.42 C 139.42,63.23 133.85,56.7 124.4,60.36 a 0.77,0.76 80.6 0 0 -0.48,0.68 l -1.35,25.17 q -0.03,0.52 0.35,0.17 8.38,-7.76 17.99,-13.97 a 0.77,0.75 68 0 0 0.33,-0.8 z m 32.26,-4.36 q -8.2,11.59 -14.32,24.42 -0.79,1.66 1.01,1.26 l 12.93,-2.86 a 0.73,0.72 -5.9 0 0 0.58,-0.71 l 0.31,-21.94 q 0.01,-0.89 -0.51,-0.17 z m -48.78,39.37 c 22.49,4.69 18.69,-16.61 18.03,-29.95 a 0.67,0.66 72.3 0 0 -1.02,-0.53 c -4.84,3.11 -19.39,11.78 -19.81,17.79 q -0.34,4.91 0.2,9.83 0.26,2.37 2.6,2.86 z m 131.76,48.41 c -5.29,-0.02 -8.83,0.06 -14.04,-2.81 q -0.46,-0.25 -0.42,0.27 l 2.06,27.83 a 1.01,1.01 0 0 0 1.31,0.89 l 8.68,-2.69 a 1.39,1.37 81.1 0 0 0.97,-1.35 q -0.23,-9.25 0.65,-17.86 c 0.14,-1.34 0.98,-2.38 1.22,-3.77 a 0.44,0.44 0 0 0 -0.43,-0.51 z m -25.04,-0.2 c -6.55,3.83 -10.49,15.81 -12.71,23.47 -0.5,1.7 -1.65,4.04 -1.69,6.46 a 0.51,0.5 -2.1 0 0 0.56,0.51 l 14.52,-1.29 a 1.49,1.49 0 0 0 1.35,-1.57 l -1.61,-27.35 a 0.28,0.28 0 0 0 -0.42,-0.23 z m -101.52,22.4 c -7.12,-1.65 -15.93,2.74 -19.49,9.16 q -1.27,2.29 -3.36,4.07 -1.34,1.15 -0.95,2.87 0.75,3.26 3.39,6.15 10.09,11.07 24.86,7.16 a 0.66,0.66 0 0 0 0.5,-0.63 c 0.39,-11.2 0.76,-17.65 -1.89,-25.96 q -0.73,-2.28 -3.06,-2.82 z"
         inkscape:connector-curvature="0"
         style="fill:#050505" />
      <path
         id="path38485"
         d="m 149.19,97.58 c 5.08,-8.34 3.92,-15.34 3.78,-27.39 a 0.87,0.86 75 0 1 0.43,-0.75 q 10.17,-6.01 21.37,-10.09 0.47,-0.17 0.16,0.22 -14.14,17.48 -24.42,37.38 -0.34,0.65 -1.09,0.92 -0.52,0.18 -0.23,-0.29 z"
         inkscape:connector-curvature="0"
         style="fill:#ffffff" />
      <path
         id="path38487"
         d="m 124.4,60.36 c 9.45,-3.66 15.02,2.87 16.84,11.25 a 0.77,0.75 68 0 1 -0.33,0.8 q -9.61,6.21 -17.99,13.97 -0.38,0.35 -0.35,-0.17 l 1.35,-25.17 a 0.77,0.76 80.6 0 1 0.48,-0.68 z"
         inkscape:connector-curvature="0"
         style="fill:#ffffff" />
      <path
         id="path38489"
         d="m 173.5,67.25 q 0.52,-0.72 0.51,0.17 l -0.31,21.94 a 0.73,0.72 -5.9 0 1 -0.58,0.71 l -12.93,2.86 q -1.8,0.4 -1.01,-1.26 6.12,-12.83 14.32,-24.42 z"
         inkscape:connector-curvature="0"
         style="fill:#ffffff" />
      <path
         id="path38491"
         d="m 124.72,106.62 q -2.34,-0.49 -2.6,-2.86 -0.54,-4.92 -0.2,-9.83 c 0.42,-6.01 14.97,-14.68 19.81,-17.79 a 0.67,0.66 72.3 0 1 1.02,0.53 c 0.66,13.34 4.46,34.64 -18.03,29.95 z"
         inkscape:connector-curvature="0"
         style="fill:#ffffff" />
      <path
         id="path38493"
         d="m 249.5,118.96 q 2.77,-2.5 3.92,-6.02 1.21,-3.69 0.32,-7.49 8.33,-5.23 13.23,-13.87 0.7,-1.24 0.82,0.18 2.16,25.38 1.21,50.86 -0.07,1.83 -1.88,2.14 c -11.65,1.98 -20.82,-5.05 -25.8,-15.08 a 0.69,0.69 0 0 1 0.14,-0.8 l 8.24,-7.99 a 1.23,1.2 -22.4 0 0 0.37,-0.87 q 0,-0.74 -0.57,-1.06 z"
         inkscape:connector-curvature="0"
         style="fill:#ffffff" />
      <path
         id="path38495"
         d="m 253.74,105.45 q 0.89,3.8 -0.32,7.49 -1.15,3.52 -3.92,6.02 -10.99,2.56 -17.02,11.33 c -4.07,5.92 -0.18,11.2 3.55,16.57 a 0.48,0.48 0 0 1 -0.13,0.68 c -14.7,9.39 -22.46,22.65 -27.15,39.22 q -0.08,0.28 -0.27,0.39 A 0.33,0.32 -14.4 0 1 208,186.87 V 149.1 a 2.54,2.53 -15.3 0 1 1.27,-2.21 q 4.48,-2.6 7.42,-6.83 2.43,-3.49 -1.39,-1.63 c -20.07,9.8 -36.2,30.96 -43.01,51.8 -2.1,6.43 -6.33,21.37 0,26.65 4.99,4.16 11.8,-3.8 14.42,-7.93 a 0.34,0.34 0 0 0 -0.22,-0.52 c -1.92,-0.4 -3.88,-0.43 -5.31,-1.85 -4.14,-4.09 -1.65,-16.11 0.03,-21.59 q 4.92,-16.05 15.31,-29.32 1.47,-1.88 1.47,0.51 c 0,16.92 -1.27,35.64 1.72,52.57 q -0.25,-0.36 -0.72,-0.16 a 0.87,0.86 81.3 0 0 -0.54,0.74 q -0.42,4.89 0.55,9.7 a 0.95,0.93 63.7 0 1 -0.28,0.87 c -4.26,3.86 -6.14,4.94 -5.56,11.32 a 1.38,1.37 21.9 0 0 0.34,0.79 q 1.78,2.06 2.51,4.71 a 0.53,0.52 -11.5 0 1 -0.44,0.66 l -4.88,0.62 h -41.25 l -1.92,-0.43 a 0.63,0.63 0 0 1 -0.5,-0.6 c -0.13,-3.34 -2.04,-6.24 -3.11,-9.37 a 1.35,1.34 44.7 0 1 -0.01,-0.86 l 3.67,-11.55 a 0.72,0.71 19.8 0 0 -0.42,-0.88 l -1.6,-0.66 a 0.56,0.56 0 0 1 -0.3,-0.76 q 1.95,-4.2 2.66,-8.71 c 0.81,-5.14 5.56,-9.15 7.62,-14.05 1.81,-4.32 1.87,-9.23 4.36,-13.26 3.28,-5.3 6.65,-8.26 4.13,-15.05 q -0.84,-2.26 0.79,-4.04 4.37,-4.74 7.84,-10.14 a 0.97,0.97 0 0 1 0.8,-0.45 q 5.91,-0.19 7.45,-5.3 c 1.02,-3.39 3.03,-4.97 3.83,-7.76 q 1.45,-5.03 4.91,-8.98 a 2.17,2.12 -19.6 0 0 0.48,-0.98 q 1.4,-7.66 7.52,-12.34 a 1.43,1.41 67.1 0 0 0.54,-1.35 l -0.49,-2.91 a 0.92,0.9 -20.2 0 1 0.44,-0.93 q 1.26,-0.75 1.83,-2.14 c 0.88,1.73 1.82,2.95 2.3,4.86 q 1.08,4.31 2.07,8.44 a 0.76,0.76 0 0 0 1.14,0.47 q 6.02,-3.67 8.99,-10.08 a 1.59,1.59 0 0 1 0.72,-0.75 q 10.75,-5.51 18.46,-14.82 1.5,-1.81 1.43,0.54 c -0.32,11.22 9.2,14.99 18.67,12.29 z"
         inkscape:connector-curvature="0"
         style="fill:#e7e7e7" />
      <path
         id="path38497"
         d="m 71.03,113.26 q 1.28,0.41 -0.04,0.61 C 57.46,115.98 50.52,104.56 50.42,92.75 q 0,-0.51 0.2,-0.04 c 4.05,9.07 10.57,17.42 20.41,20.55 z"
         inkscape:connector-curvature="0"
         style="fill:#ffffff" />
      <path
         id="path38499"
         d="m 319.49,151.04 -1.66,-0.11 q -1.8,-0.11 -0.77,-1.59 c 2.74,-3.93 5.92,-7.72 10.89,-8.18 q 8.51,-0.8 17.06,-0.94 a 0.56,0.54 85.9 0 1 0.55,0.49 q 0.47,4.25 0.23,6.29 -2.9,24.91 -3.88,49.96 c -0.1,2.56 0.52,5.69 -1.5,7.96 q -2.16,2.43 -5.49,5.39 -2.45,2.16 -2.85,-1.08 -0.23,-1.76 -0.08,-5.23 c 0.74,-18 2.68,-35.86 3.6,-53.81 a 0.41,0.41 0 0 0 -0.44,-0.43 l -11.5,1.08 a 0.66,0.65 87.6 0 0 -0.6,0.66 q -0.1,22.15 -0.04,44.24 c 0.01,3.52 -6.93,8.97 -9.65,11.18 q -1.02,0.84 -0.96,-0.48 0.91,-20.92 0.56,-42.3 c -0.13,-7.6 1.78,-8.07 6.77,-12.39 q 0.76,-0.65 -0.24,-0.71 z"
         inkscape:connector-curvature="0"
         style="fill:#050505" />
      <path
         id="path38501"
         d="m 362.62,173.84 q 9.03,-6.06 20.02,-4.81 a 2.81,2.81 0 0 1 2.21,1.55 c 3.73,7.47 2.89,15.21 -2.06,22.12 -6.02,8.38 -15.65,18.19 -26.55,19.29 -10.71,1.08 -7.56,-16.33 -5.73,-21.65 q 1.14,-3.31 1.34,-5.73 1.31,-15.93 2.2,-31.89 c 0.29,-5.22 4.78,-9.37 9.1,-11.68 q 1.2,-0.65 1.11,0.71 l -2.18,31.78 q -0.05,0.71 0.54,0.31 z m 0.44,5.96 -0.09,14.79 a 1.52,1.44 -30.6 0 1 -0.22,0.77 l -2.41,3.86 q -1.35,2.16 1.17,2.58 c 12.43,2.04 17.33,-6.9 15.02,-17.87 -1.44,-6.87 -7.57,-4.94 -12.69,-4.91 a 0.78,0.78 0 0 0 -0.78,0.78 z"
         inkscape:connector-curvature="0"
         style="fill:#050505" />
      <path
         id="path38503"
         d="m 66.06,180.08 q 0.02,1.39 0.68,0.16 6.25,-11.83 14.02,-22.73 a 1.62,1.61 -29.6 0 0 0.29,-1.04 q -0.73,-10.49 8.74,-15.02 1.79,-0.86 1.49,1.11 l -0.23,1.57 q -0.12,0.77 0.58,0.42 l 2.73,-1.35 a 0.45,0.45 0 0 1 0.65,0.41 L 95,144 a 0.67,0.65 -21.8 0 1 -0.22,0.49 q -3.52,3.06 -3.78,6.26 -0.76,9.25 -2.32,43.93 -0.53,11.69 0.9,19.51 a 0.97,0.95 -28.1 0 1 -0.27,0.85 c -1.78,1.81 -6.25,7.13 -8.41,7.87 a 1.12,1.12 0 0 1 -1.45,-0.8 q -1.51,-6.26 -1.26,-12.61 0.88,-21.86 2.22,-43.71 0.03,-0.5 -0.22,-0.06 -5.28,9.17 -9.97,18.62 c -4.36,8.8 -5.49,12 -2.15,21.28 q 0.58,1.59 -0.48,2.91 -3.3,4.1 -7.57,7.17 a 0.83,0.82 55.9 0 1 -1.17,-0.23 q -1.79,-2.8 -2.14,-6.12 a 1.08,1.06 9 0 0 -0.65,-0.88 l -1.25,-0.54 a 0.55,0.55 0 0 1 -0.31,-0.68 q 1.41,-4.16 1.45,-8.57 0.2,-20.32 1.1,-40.62 c 0.26,-5.77 4.33,-9.99 9.42,-12.15 a 0.34,0.34 0 0 1 0.47,0.31 c 0.06,11.36 -1.11,22.9 -0.88,33.85 z"
         inkscape:connector-curvature="0"
         style="fill:#050505" />
      <path
         id="path38505"
         d="m 393.21,151.88 c 0.28,-3.74 6.02,-8.27 9.22,-9.62 a 0.33,0.33 0 0 1 0.46,0.31 c -0.34,16.23 -4.03,31.61 -7.36,49.94 q -1.02,5.6 -1.47,24.03 a 1.63,1.6 65.5 0 1 -0.36,0.99 q -2.96,3.71 -6.7,6.77 -3.25,2.65 -3.07,-1.54 c 0.46,-10.72 1.25,-20.28 3.3,-31.24 2.77,-14.77 4.93,-25.95 5.98,-39.64 z"
         inkscape:connector-curvature="0"
         style="fill:#050505" />
      <path
         id="path38507"
         d="m 242.44,152.22 c 5.21,2.87 8.75,2.79 14.04,2.81 a 0.44,0.44 0 0 1 0.43,0.51 c -0.24,1.39 -1.08,2.43 -1.22,3.77 q -0.88,8.61 -0.65,17.86 a 1.39,1.37 81.1 0 1 -0.97,1.35 l -8.68,2.69 a 1.01,1.01 0 0 1 -1.31,-0.89 l -2.06,-27.83 q -0.04,-0.52 0.42,-0.27 z"
         inkscape:connector-curvature="0"
         style="fill:#ffffff" />
      <path
         id="path38509"
         d="m 218.73,178.3 c 2.22,-7.66 6.16,-19.64 12.71,-23.47 a 0.28,0.28 0 0 1 0.42,0.23 l 1.61,27.35 a 1.49,1.49 0 0 1 -1.35,1.57 l -14.52,1.29 a 0.51,0.5 -2.1 0 1 -0.56,-0.51 c 0.04,-2.42 1.19,-4.76 1.69,-6.46 z"
         inkscape:connector-curvature="0"
         style="fill:#ffffff" />
      <path
         id="path38511"
         d="m 129.92,177.23 q 2.33,0.54 3.06,2.82 c 2.65,8.31 2.28,14.76 1.89,25.96 a 0.66,0.66 0 0 1 -0.5,0.63 q -14.77,3.91 -24.86,-7.16 -2.64,-2.89 -3.39,-6.15 -0.39,-1.72 0.95,-2.87 2.09,-1.78 3.36,-4.07 c 3.56,-6.42 12.37,-10.81 19.49,-9.16 z"
         inkscape:connector-curvature="0"
         style="fill:#ffffff" />
      <path
         id="path38513"
         d="m 363.06,179.8 a 0.78,0.78 0 0 1 0.78,-0.78 c 5.12,-0.03 11.25,-1.96 12.69,4.91 2.31,10.97 -2.59,19.91 -15.02,17.87 q -2.52,-0.42 -1.17,-2.58 l 2.41,-3.86 a 1.52,1.44 -30.6 0 0 0.22,-0.77 z"
         inkscape:connector-curvature="0"
         style="fill:#ffffff" />
    </g>
  </g>
</svg>
