<?xml version="1.0" encoding="UTF-8" standalone="no"?>
<!DOCTYPE svg PUBLIC "-//W3C//DTD SVG 1.1//EN" "http://www.w3.org/Graphics/SVG/1.1/DTD/svg11.dtd">
<svg xmlns="http://www.w3.org/2000/svg" version="1.1" viewBox="0 0 450 213">
<g stroke-width="2.00" fill="none" stroke-linecap="butt">
<path stroke="#f5f5f5" vector-effect="non-scaling-stroke" d="
  M 224.56 0.00
  Q 218.20 1.04 211.49 5.01
  Q 202.21 10.50 207.90 20.47
  Q 209.27 22.88 211.99 22.34
  C 219.32 20.88 226.87 15.24 233.72 11.77
  A 1.78 1.75 0.4 0 0 234.47 11.04
  L 235.40 9.26
  A 1.44 1.39 3.1 0 1 236.16 8.60
  Q 241.36 6.64 251.29 1.77
  Q 251.98 1.43 252.12 0.94
  A 0.45 0.45 0.0 0 0 251.74 0.37
  L 248.81 0.00"
/>
<path stroke="#f5f5f5" vector-effect="non-scaling-stroke" d="
  M 359.69 213.00
  L 363.02 212.22
  A 0.45 0.45 0.0 0 0 363.34 211.62
  C 361.49 207.02 349.51 206.25 347.80 210.85
  Q 347.08 212.76 349.13 212.81
  L 357.94 213.00"
/>
<path stroke="#818181" vector-effect="non-scaling-stroke" d="
  M 116.84 42.03
  C 123.40 32.34 130.45 22.16 128.82 9.73
  A 0.66 0.65 89.4 0 0 128.25 9.17
  C 113.93 7.46 96.04 25.92 89.17 36.88
  Q 87.76 39.14 88.01 41.07
  A 0.66 0.66 0.0 0 0 89.03 41.54
  Q 95.38 37.36 97.98 31.56
  C 101.55 23.56 109.65 19.35 118.23 18.73
  A 0.52 0.52 0.0 0 1 118.79 19.19
  C 120.56 33.55 111.23 42.89 103.47 53.43
  A 0.51 0.49 34.1 0 0 103.62 54.15
  C 103.84 54.28 104.97 54.23 105.24 54.06
  Q 117.52 46.34 131.99 44.95
  C 147.98 43.41 149.00 67.09 148.04 77.23
  C 147.49 83.01 142.01 86.39 136.96 88.42
  C 126.44 92.64 109.31 96.26 102.96 83.62
  C 96.45 70.67 112.49 69.84 119.66 71.99
  A 1.01 0.99 30.0 0 0 120.64 71.74
  L 128.66 63.68
  A 0.94 0.94 0.0 0 0 128.41 62.18
  Q 127.29 61.60 125.73 61.45
  C 114.27 60.29 105.86 66.05 98.16 73.67
  C 86.07 85.63 92.59 102.68 109.76 102.26
  C 127.86 101.81 140.07 93.13 151.96 80.26
  C 158.28 73.42 158.75 67.69 158.17 58.21
  C 157.67 50.16 154.53 35.45 144.23 35.28
  Q 130.30 35.05 117.00 42.20
  Q 116.57 42.43 116.84 42.03"
/>
<path stroke="#f5f5f5" vector-effect="non-scaling-stroke" d="
  M 196.21 105.50
  L 194.95 107.41
  Q 194.68 107.82 194.25 108.06
  Q 190.34 110.13 186.48 112.26
  C 181.47 115.02 177.99 119.78 173.23 122.78
  A 0.71 0.70 68.0 0 0 172.92 123.52
  Q 173.09 124.36 172.50 124.96"
/>
<path stroke="#818181" vector-effect="non-scaling-stroke" d="
  M 172.50 124.96
  Q 154.95 124.82 137.41 125.32
  C 125.83 125.66 118.41 125.26 113.33 135.39
  Q 112.97 136.11 113.77 136.04
  C 131.25 134.51 148.75 135.12 166.20 134.88
  Q 166.85 134.87 166.37 135.31
  Q 154.15 146.42 147.84 161.72
  A 0.39 0.39 0.0 0 1 147.33 161.93
  C 147.06 161.82 146.97 161.51 146.99 161.20
  Q 147.33 155.09 143.80 150.14
  A 1.55 1.53 -8.1 0 0 143.03 149.57
  C 134.12 146.61 118.84 152.03 110.70 156.07
  A 0.34 0.34 0.0 0 1 110.21 155.80
  L 107.67 130.30
  A 0.28 0.28 0.0 0 0 107.25 130.09
  C 101.16 133.88 97.35 137.02 98.15 144.82
  Q 99.40 157.16 99.75 159.75
  Q 100.40 164.48 97.26 167.47
  Q 96.38 168.30 97.57 168.08
  L 100.06 167.61
  A 0.85 0.85 0.0 0 1 101.06 168.49
  Q 100.67 175.39 101.63 182.23
  Q 101.74 183.00 101.14 182.51
  C 92.28 175.39 93.21 162.47 94.83 152.43
  Q 94.93 151.76 94.33 152.06
  C 87.63 155.39 84.41 160.50 83.85 168.15
  C 82.89 181.28 86.90 193.99 101.08 197.16
  C 105.74 198.20 113.47 197.29 117.75 196.51
  C 127.04 194.80 134.15 189.25 140.53 182.90
  Q 140.96 182.47 140.97 183.08
  L 141.05 192.84
  Q 141.08 196.49 144.12 194.47
  Q 149.15 191.11 152.56 186.16
  A 0.64 0.63 -57.0 0 0 152.37 185.25
  L 151.43 184.66
  A 0.93 0.92 15.2 0 1 151.00 183.92
  Q 150.34 168.79 156.90 155.16
  C 160.26 148.17 163.41 140.28 170.25 135.96"
/>
<path stroke="#f5f5f5" vector-effect="non-scaling-stroke" d="
  M 170.25 135.96
  Q 171.14 136.88 170.75 138.21"
/>
<path stroke="#818181" vector-effect="non-scaling-stroke" d="
  M 170.75 138.21
  C 166.98 140.73 164.31 144.00 164.08 148.82
  C 163.16 168.49 164.19 183.68 170.32 200.53
  A 1.02 1.01 58.9 0 0 171.95 200.94
  L 182.65 191.23
  Q 184.38 189.66 184.90 191.94
  L 185.93 196.51
  A 0.89 0.88 67.3 0 0 187.27 197.06
  Q 192.73 193.55 196.54 188.28
  A 0.65 0.65 0.0 0 0 196.48 187.45
  C 194.47 185.41 193.59 176.89 193.21 173.26
  A 1.84 1.80 55.2 0 1 193.37 172.31
  C 197.35 163.97 203.91 152.88 210.01 147.76
  A 0.50 0.50 0.0 0 1 210.70 147.81
  C 211.62 148.83 210.92 173.46 210.93 176.81
  Q 210.95 184.70 215.62 191.41
  Q 217.48 194.09 220.19 192.27
  Q 224.96 189.07 227.94 184.29
  A 0.55 0.54 33.7 0 0 227.79 183.55
  C 222.24 179.67 221.25 173.31 221.06 166.49
  Q 220.72 153.92 221.02 141.30
  A 1.50 1.43 67.2 0 1 221.36 140.41
  C 222.87 138.62 226.10 134.93 225.78 134.38
  A 0.60 0.59 -25.0 0 0 225.05 134.12
  L 222.68 135.02
  A 0.50 0.50 0.0 0 1 222.01 134.48
  Q 222.48 131.20 221.28 127.77"
/>
<path stroke="#f5f5f5" vector-effect="non-scaling-stroke" d="
  M 221.28 127.77
  Q 224.10 123.89 228.38 121.35
  Q 228.83 121.08 229.10 120.64
  Q 231.06 117.41 234.50 116.00
  A 0.72 0.71 76.2 0 0 234.93 115.27
  C 234.21 108.32 243.66 106.36 243.66 99.68
  Q 243.65 95.42 241.25 91.79"
/>
<path stroke="#818181" vector-effect="non-scaling-stroke" d="
  M 241.25 91.79
  Q 245.32 88.86 248.39 84.89
  Q 249.64 83.28 248.20 81.83
  L 247.32 80.96
  A 0.71 0.71 0.0 0 1 247.25 80.04
  L 260.37 62.04
  Q 260.89 61.33 260.95 62.21
  Q 261.14 64.84 260.91 67.57
  Q 259.71 81.89 260.07 96.25
  C 260.18 100.45 260.80 104.94 265.35 106.57
  Q 268.23 107.61 270.01 105.42
  A 0.50 0.49 -52.3 0 1 270.69 105.33
  C 277.94 110.62 287.09 101.13 290.48 95.72
  Q 290.64 95.48 290.54 95.27
  A 0.38 0.38 0.0 0 0 290.00 95.10
  Q 286.00 97.40 281.37 96.97
  A 0.55 0.54 -82.5 0 1 280.89 96.34
  L 281.98 89.79
  A 0.70 0.69 3.1 0 1 282.63 89.21
  L 304.34 87.87
  A 1.01 1.00 83.8 0 1 305.40 88.73
  C 306.41 95.73 310.32 107.32 317.79 109.90
  Q 319.97 110.65 321.82 109.28
  Q 327.29 105.23 330.99 99.51
  Q 331.65 98.48 330.53 98.97
  C 325.31 101.22 323.13 98.08 320.51 93.90
  Q 317.79 89.57 316.50 84.45
  A 0.82 0.81 -27.8 0 1 316.76 83.64
  C 317.79 82.75 323.27 77.82 323.03 76.68
  A 0.53 0.53 0.0 0 0 322.44 76.27
  L 316.08 77.15
  A 0.92 0.91 -4.2 0 1 315.04 76.26
  Q 314.82 60.28 315.10 44.00
  Q 315.17 40.12 314.79 36.49
  A 0.65 0.65 0.0 0 0 313.82 36.00
  C 309.35 38.58 303.83 42.45 305.04 48.58
  A 1.09 1.07 -30.8 0 1 304.81 49.46
  Q 300.62 54.55 296.26 59.50
  Q 282.19 75.47 273.16 94.76
  A 0.46 0.46 0.0 0 1 272.50 94.95
  C 268.97 92.73 269.90 76.82 270.12 72.81
  Q 271.01 55.67 271.82 38.74
  Q 271.90 37.24 270.59 37.99
  Q 265.56 40.88 262.34 45.58
  C 260.16 48.76 262.22 52.17 259.93 55.69
  Q 252.51 67.08 245.06 77.42
  A 0.90 0.90 0.0 0 1 243.52 77.28
  C 238.81 67.40 234.84 56.70 229.31 47.55
  A 0.49 0.49 0.0 0 0 228.65 47.37
  Q 223.16 50.33 219.95 55.63
  A 1.80 1.79 59.8 0 0 219.69 56.63
  Q 220.34 73.78 219.76 91.01"
/>
<path stroke="#f5f5f5" vector-effect="non-scaling-stroke" d="
  M 219.76 91.01
  Q 217.08 90.94 215.03 89.20
  A 1.54 1.53 13.2 0 1 214.53 88.40
  Q 212.58 81.10 205.08 80.90"
/>
<path stroke="#818181" vector-effect="non-scaling-stroke" d="
  M 205.08 80.90
  Q 204.70 59.64 205.83 37.00
  Q 205.97 34.20 203.60 35.69
  Q 195.34 40.85 193.11 50.31
  A 0.53 0.52 -83.4 0 0 193.62 50.96
  L 194.83 50.96
  A 0.38 0.38 0.0 0 1 195.21 51.39
  Q 195.16 51.81 194.90 52.19
  Q 185.36 66.26 176.47 80.82
  Q 176.21 81.26 176.17 80.75
  Q 175.78 75.16 176.05 69.56
  Q 176.93 51.42 177.05 32.91
  A 0.90 0.90 0.0 0 0 175.81 32.07
  C 171.29 33.91 166.67 38.63 166.72 43.99
  C 166.88 59.95 165.29 77.20 166.39 94.26
  A 1.62 1.56 -32.1 0 1 166.16 95.18
  L 161.29 103.20
  A 0.47 0.46 -66.2 0 0 161.55 103.88
  C 163.52 104.48 165.87 101.47 167.31 100.25
  Q 167.68 99.94 167.76 100.42
  C 168.73 106.40 177.63 95.64 178.66 93.71
  A 1.20 1.20 0.0 0 0 178.73 92.70
  L 177.34 89.06
  A 1.88 1.87 -39.8 0 1 177.49 87.43
  L 194.29 60.08
  Q 195.06 58.83 195.04 60.29
  Q 194.82 79.79 195.24 99.50
  Q 195.28 101.22 196.21 105.50"
/>
<path stroke="#767676" vector-effect="non-scaling-stroke" d="
  M 205.08 80.90
  Q 204.74 88.84 206.21 96.51
  A 0.58 0.58 0.0 0 0 207.00 96.94
  L 208.79 96.20
  A 0.38 0.38 0.0 0 1 209.32 96.53
  C 209.52 100.19 201.33 106.98 198.39 108.78
  A 0.56 0.55 55.4 0 1 197.65 108.64
  Q 196.57 107.25 196.21 105.50"
/>
<path stroke="#767676" vector-effect="non-scaling-stroke" d="
  M 221.28 127.77
  Q 216.35 130.28 212.79 134.75"
/>
<path stroke="#f5f5f5" vector-effect="non-scaling-stroke" d="
  M 212.79 134.75
  L 206.21 133.62
  A 1.78 1.76 -18.7 0 1 205.35 133.20
  Q 200.90 129.09 202.29 123.28
  Q 202.44 122.68 201.86 122.91
  Q 193.86 126.13 188.47 132.76
  A 1.42 1.40 -75.8 0 1 187.66 133.25
  Q 183.46 134.05 180.79 137.22
  C 178.65 139.77 176.97 140.44 174.04 139.00"
/>
<path stroke="#767676" vector-effect="non-scaling-stroke" d="
  M 174.04 139.00
  Q 174.17 138.00 173.73 137.23
  A 0.56 0.56 0.0 0 0 172.98 137.01
  L 170.75 138.21"
/>
<path stroke="#767676" vector-effect="non-scaling-stroke" d="
  M 170.25 135.96
  Q 174.77 132.33 177.82 127.32
  A 0.90 0.90 0.0 0 0 177.24 125.97
  L 172.50 124.96"
/>
<path stroke="#818181" vector-effect="non-scaling-stroke" d="
  M 212.79 134.75
  Q 211.57 137.49 212.08 140.57
  Q 212.41 142.60 210.71 143.76
  C 204.00 148.36 198.21 155.79 193.84 162.64
  Q 191.70 165.98 191.15 162.05
  Q 189.46 150.02 190.08 137.87
  Q 190.24 134.77 187.84 136.74
  L 181.82 141.67
  Q 179.96 143.19 179.85 145.60
  C 179.33 156.94 180.60 166.66 182.39 178.05
  C 183.06 182.28 181.96 185.08 179.68 188.38
  Q 179.39 188.80 179.23 188.32
  C 173.52 171.49 173.90 158.82 174.04 139.00"
/>
<path stroke="#767676" vector-effect="non-scaling-stroke" d="
  M 241.25 91.79
  L 238.13 92.06
  A 1.76 1.75 -66.4 0 0 237.15 92.45
  L 231.35 97.15
  A 1.05 1.04 67.7 0 0 230.98 98.05
  C 231.47 102.67 225.01 107.67 221.18 109.82
  A 0.77 0.77 0.0 0 1 220.04 109.16
  L 219.76 91.01"
/>
<path stroke="#f5f5f5" vector-effect="non-scaling-stroke" d="
  M 351.38 57.94
  C 343.17 64.81 335.27 68.90 327.69 75.16
  C 319.73 81.73 330.28 93.24 338.25 86.98
  Q 346.26 80.69 355.81 77.22
  A 1.53 1.52 7.8 0 0 356.51 76.69
  Q 357.70 75.03 359.54 74.26
  A 0.64 0.63 -25.6 0 1 360.32 74.53
  C 363.81 80.63 368.58 91.53 373.45 94.90
  C 378.04 98.08 384.10 96.31 387.59 91.42
  C 392.93 83.95 401.73 78.48 409.17 73.23
  C 414.67 69.35 412.64 61.73 406.51 59.84
  C 402.31 58.54 399.39 59.44 395.82 62.27
  Q 388.45 68.11 380.65 73.44
  A 0.91 0.91 0.0 0 1 379.46 73.29
  Q 376.26 69.65 374.42 65.14
  A 1.97 1.93 -52.0 0 1 374.30 64.08
  Q 375.89 54.19 367.49 48.89
  A 1.38 1.37 4.5 0 1 366.95 48.26
  C 364.18 41.99 361.93 34.13 353.05 35.76
  C 347.91 36.70 348.30 41.06 347.40 44.86
  Q 347.29 45.33 347.42 45.79
  Q 348.96 51.61 351.59 57.00
  A 0.79 0.78 -32.5 0 1 351.38 57.94"
/>
<path stroke="#818181" vector-effect="non-scaling-stroke" d="
  M 246.15 151.66
  C 250.69 144.54 254.69 137.50 253.98 128.68
  Q 253.74 125.72 251.04 126.99
  Q 238.02 133.14 229.81 145.04
  A 1.26 1.25 -48.2 0 0 229.89 146.57
  C 230.74 147.53 236.27 141.28 236.98 140.49
  Q 239.45 137.73 242.98 136.69
  A 0.74 0.73 -13.6 0 1 243.91 137.25
  C 245.55 145.79 239.29 155.82 233.98 161.96
  Q 232.35 163.85 231.97 165.57
  Q 231.86 166.08 232.29 165.79
  C 238.02 161.91 259.70 152.08 261.25 163.00
  Q 262.86 174.33 261.83 185.72
  A 1.22 1.22 0.0 0 1 260.81 186.82
  Q 248.34 188.86 242.51 178.12
  A 0.94 0.93 51.4 0 1 242.62 177.05
  L 247.20 171.77
  Q 248.60 170.17 246.49 169.91
  C 241.53 169.30 232.99 178.77 232.17 183.16
  Q 231.38 187.44 234.74 191.06
  C 242.65 199.58 253.47 198.72 261.89 191.62
  C 267.14 187.18 271.95 180.90 272.02 173.75
  Q 272.10 166.35 271.95 158.93
  C 271.84 153.44 270.30 147.69 263.50 148.29
  Q 254.82 149.05 246.66 152.28
  Q 245.44 152.77 246.15 151.66"
/>
<path stroke="#818181" vector-effect="non-scaling-stroke" d="
  M 291.39 150.30
  L 291.50 127.78
  Q 291.50 126.67 290.56 127.26
  Q 286.04 130.08 282.58 134.13
  A 4.27 4.24 65.8 0 0 281.58 136.79
  Q 281.39 147.01 281.28 157.20
  C 281.20 163.87 280.11 166.12 277.26 171.76
  Q 273.84 178.50 280.01 180.50
  A 1.53 1.51 11.9 0 1 281.06 182.09
  Q 280.34 189.36 284.68 195.07
  Q 285.89 196.67 287.57 195.57
  Q 292.10 192.59 295.44 188.39
  A 1.86 1.86 0.0 0 0 295.30 185.91
  L 293.23 183.86
  Q 292.64 183.28 293.45 183.11
  L 303.27 181.03
  A 0.59 0.58 79.9 0 1 303.97 181.52
  L 304.12 182.44
  Q 304.21 183.07 304.69 182.64
  L 307.65 179.98
  Q 308.21 179.48 308.31 180.23
  C 308.66 182.82 308.46 185.90 309.36 188.15
  Q 311.92 194.59 319.69 196.72
  Q 330.49 199.68 338.19 193.70
  C 351.83 183.11 359.70 170.46 359.85 152.81
  C 359.99 135.60 337.18 123.15 323.30 133.80
  Q 304.73 148.05 303.88 172.37
  A 0.58 0.57 4.2 0 1 303.24 172.92
  L 292.56 171.63
  A 1.76 1.76 0.0 0 1 291.00 169.89
  L 290.93 157.63
  A 1.72 1.61 -31.1 0 1 291.19 156.71
  Q 297.27 147.27 307.07 142.25
  C 312.07 139.68 314.75 137.45 317.20 132.98
  A 0.56 0.56 0.0 0 0 317.01 132.24
  C 313.79 130.22 294.85 147.62 292.11 150.59
  Q 291.38 151.37 291.39 150.30"
/>
<path stroke="#818181" vector-effect="non-scaling-stroke" d="
  M 304.45 55.02
  C 298.00 60.12 291.12 71.22 287.21 78.48
  A 0.36 0.36 0.0 0 0 287.52 79.01
  L 303.61 78.98
  A 1.40 1.39 90.0 0 0 305.00 77.58
  L 304.99 55.29
  Q 304.99 54.59 304.45 55.02"
/>
<path stroke="#767676" vector-effect="non-scaling-stroke" d="
  M 230.52 95.47
  L 234.89 89.29
  A 0.66 0.65 43.8 0 0 234.87 88.50
  Q 232.08 84.99 230.66 80.73
  A 0.23 0.22 87.1 0 0 230.51 80.59
  L 230.23 80.49
  A 0.18 0.18 0.0 0 0 230.00 80.66
  L 230.00 95.30
  Q 230.00 96.20 230.52 95.47"
/>
<path stroke="#818181" vector-effect="non-scaling-stroke" d="
  M 132.90 158.97
  Q 121.64 158.18 111.23 162.49
  A 0.49 0.48 -14.1 0 0 110.93 162.98
  L 112.81 187.43
  A 0.58 0.58 0.0 0 0 113.40 187.97
  Q 121.84 187.83 130.10 185.88
  C 138.30 183.93 137.95 177.98 137.39 170.68
  Q 136.97 165.23 134.74 160.26
  A 2.18 2.17 -9.9 0 0 132.90 158.97"
/>
<path stroke="#818181" vector-effect="non-scaling-stroke" d="
  M 319.48 142.46
  Q 315.34 149.40 314.53 157.55
  Q 314.45 158.41 314.99 157.74
  Q 318.39 153.61 323.07 151.04
  Q 325.23 149.85 325.79 152.25
  C 327.31 158.89 324.25 162.60 320.74 167.64
  Q 319.16 169.91 318.84 172.09
  C 317.22 183.11 325.67 187.28 335.04 188.05
  C 348.40 189.14 350.54 166.84 349.43 157.96
  C 348.08 147.31 336.55 140.38 326.69 139.89
  C 323.36 139.72 321.20 139.57 319.48 142.46"
/>
</g>
<path fill="#ffffff" d="
  M 0.00 0.00
  L 224.56 0.00
  Q 218.20 1.04 211.49 5.01
  Q 202.21 10.50 207.90 20.47
  Q 209.27 22.88 211.99 22.34
  C 219.32 20.88 226.87 15.24 233.72 11.77
  A 1.78 1.75 0.4 0 0 234.47 11.04
  L 235.40 9.26
  A 1.44 1.39 3.1 0 1 236.16 8.60
  Q 241.36 6.64 251.29 1.77
  Q 251.98 1.43 252.12 0.94
  A 0.45 0.45 0.0 0 0 251.74 0.37
  L 248.81 0.00
  L 450.00 0.00
  L 450.00 213.00
  L 359.69 213.00
  L 363.02 212.22
  A 0.45 0.45 0.0 0 0 363.34 211.62
  C 361.49 207.02 349.51 206.25 347.80 210.85
  Q 347.08 212.76 349.13 212.81
  L 357.94 213.00
  L 0.00 213.00
  L 0.00 0.00
  Z
  M 116.84 42.03
  C 123.40 32.34 130.45 22.16 128.82 9.73
  A 0.66 0.65 89.4 0 0 128.25 9.17
  C 113.93 7.46 96.04 25.92 89.17 36.88
  Q 87.76 39.14 88.01 41.07
  A 0.66 0.66 0.0 0 0 89.03 41.54
  Q 95.38 37.36 97.98 31.56
  C 101.55 23.56 109.65 19.35 118.23 18.73
  A 0.52 0.52 0.0 0 1 118.79 19.19
  C 120.56 33.55 111.23 42.89 103.47 53.43
  A 0.51 0.49 34.1 0 0 103.62 54.15
  C 103.84 54.28 104.97 54.23 105.24 54.06
  Q 117.52 46.34 131.99 44.95
  C 147.98 43.41 149.00 67.09 148.04 77.23
  C 147.49 83.01 142.01 86.39 136.96 88.42
  C 126.44 92.64 109.31 96.26 102.96 83.62
  C 96.45 70.67 112.49 69.84 119.66 71.99
  A 1.01 0.99 30.0 0 0 120.64 71.74
  L 128.66 63.68
  A 0.94 0.94 0.0 0 0 128.41 62.18
  Q 127.29 61.60 125.73 61.45
  C 114.27 60.29 105.86 66.05 98.16 73.67
  C 86.07 85.63 92.59 102.68 109.76 102.26
  C 127.86 101.81 140.07 93.13 151.96 80.26
  C 158.28 73.42 158.75 67.69 158.17 58.21
  C 157.67 50.16 154.53 35.45 144.23 35.28
  Q 130.30 35.05 117.00 42.20
  Q 116.57 42.43 116.84 42.03
  Z
  M 196.21 105.50
  L 194.95 107.41
  Q 194.68 107.82 194.25 108.06
  Q 190.34 110.13 186.48 112.26
  C 181.47 115.02 177.99 119.78 173.23 122.78
  A 0.71 0.70 68.0 0 0 172.92 123.52
  Q 173.09 124.36 172.50 124.96
  Q 154.95 124.82 137.41 125.32
  C 125.83 125.66 118.41 125.26 113.33 135.39
  Q 112.97 136.11 113.77 136.04
  C 131.25 134.51 148.75 135.12 166.20 134.88
  Q 166.85 134.87 166.37 135.31
  Q 154.15 146.42 147.84 161.72
  A 0.39 0.39 0.0 0 1 147.33 161.93
  C 147.06 161.82 146.97 161.51 146.99 161.20
  Q 147.33 155.09 143.80 150.14
  A 1.55 1.53 -8.1 0 0 143.03 149.57
  C 134.12 146.61 118.84 152.03 110.70 156.07
  A 0.34 0.34 0.0 0 1 110.21 155.80
  L 107.67 130.30
  A 0.28 0.28 0.0 0 0 107.25 130.09
  C 101.16 133.88 97.35 137.02 98.15 144.82
  Q 99.40 157.16 99.75 159.75
  Q 100.40 164.48 97.26 167.47
  Q 96.38 168.30 97.57 168.08
  L 100.06 167.61
  A 0.85 0.85 0.0 0 1 101.06 168.49
  Q 100.67 175.39 101.63 182.23
  Q 101.74 183.00 101.14 182.51
  C 92.28 175.39 93.21 162.47 94.83 152.43
  Q 94.93 151.76 94.33 152.06
  C 87.63 155.39 84.41 160.50 83.85 168.15
  C 82.89 181.28 86.90 193.99 101.08 197.16
  C 105.74 198.20 113.47 197.29 117.75 196.51
  C 127.04 194.80 134.15 189.25 140.53 182.90
  Q 140.96 182.47 140.97 183.08
  L 141.05 192.84
  Q 141.08 196.49 144.12 194.47
  Q 149.15 191.11 152.56 186.16
  A 0.64 0.63 -57.0 0 0 152.37 185.25
  L 151.43 184.66
  A 0.93 0.92 15.2 0 1 151.00 183.92
  Q 150.34 168.79 156.90 155.16
  C 160.26 148.17 163.41 140.28 170.25 135.96
  Q 171.14 136.88 170.75 138.21
  C 166.98 140.73 164.31 144.00 164.08 148.82
  C 163.16 168.49 164.19 183.68 170.32 200.53
  A 1.02 1.01 58.9 0 0 171.95 200.94
  L 182.65 191.23
  Q 184.38 189.66 184.90 191.94
  L 185.93 196.51
  A 0.89 0.88 67.3 0 0 187.27 197.06
  Q 192.73 193.55 196.54 188.28
  A 0.65 0.65 0.0 0 0 196.48 187.45
  C 194.47 185.41 193.59 176.89 193.21 173.26
  A 1.84 1.80 55.2 0 1 193.37 172.31
  C 197.35 163.97 203.91 152.88 210.01 147.76
  A 0.50 0.50 0.0 0 1 210.70 147.81
  C 211.62 148.83 210.92 173.46 210.93 176.81
  Q 210.95 184.70 215.62 191.41
  Q 217.48 194.09 220.19 192.27
  Q 224.96 189.07 227.94 184.29
  A 0.55 0.54 33.7 0 0 227.79 183.55
  C 222.24 179.67 221.25 173.31 221.06 166.49
  Q 220.72 153.92 221.02 141.30
  A 1.50 1.43 67.2 0 1 221.36 140.41
  C 222.87 138.62 226.10 134.93 225.78 134.38
  A 0.60 0.59 -25.0 0 0 225.05 134.12
  L 222.68 135.02
  A 0.50 0.50 0.0 0 1 222.01 134.48
  Q 222.48 131.20 221.28 127.77
  Q 224.10 123.89 228.38 121.35
  Q 228.83 121.08 229.10 120.64
  Q 231.06 117.41 234.50 116.00
  A 0.72 0.71 76.2 0 0 234.93 115.27
  C 234.21 108.32 243.66 106.36 243.66 99.68
  Q 243.65 95.42 241.25 91.79
  Q 245.32 88.86 248.39 84.89
  Q 249.64 83.28 248.20 81.83
  L 247.32 80.96
  A 0.71 0.71 0.0 0 1 247.25 80.04
  L 260.37 62.04
  Q 260.89 61.33 260.95 62.21
  Q 261.14 64.84 260.91 67.57
  Q 259.71 81.89 260.07 96.25
  C 260.18 100.45 260.80 104.94 265.35 106.57
  Q 268.23 107.61 270.01 105.42
  A 0.50 0.49 -52.3 0 1 270.69 105.33
  C 277.94 110.62 287.09 101.13 290.48 95.72
  Q 290.64 95.48 290.54 95.27
  A 0.38 0.38 0.0 0 0 290.00 95.10
  Q 286.00 97.40 281.37 96.97
  A 0.55 0.54 -82.5 0 1 280.89 96.34
  L 281.98 89.79
  A 0.70 0.69 3.1 0 1 282.63 89.21
  L 304.34 87.87
  A 1.01 1.00 83.8 0 1 305.40 88.73
  C 306.41 95.73 310.32 107.32 317.79 109.90
  Q 319.97 110.65 321.82 109.28
  Q 327.29 105.23 330.99 99.51
  Q 331.65 98.48 330.53 98.97
  C 325.31 101.22 323.13 98.08 320.51 93.90
  Q 317.79 89.57 316.50 84.45
  A 0.82 0.81 -27.8 0 1 316.76 83.64
  C 317.79 82.75 323.27 77.82 323.03 76.68
  A 0.53 0.53 0.0 0 0 322.44 76.27
  L 316.08 77.15
  A 0.92 0.91 -4.2 0 1 315.04 76.26
  Q 314.82 60.28 315.10 44.00
  Q 315.17 40.12 314.79 36.49
  A 0.65 0.65 0.0 0 0 313.82 36.00
  C 309.35 38.58 303.83 42.45 305.04 48.58
  A 1.09 1.07 -30.8 0 1 304.81 49.46
  Q 300.62 54.55 296.26 59.50
  Q 282.19 75.47 273.16 94.76
  A 0.46 0.46 0.0 0 1 272.50 94.95
  C 268.97 92.73 269.90 76.82 270.12 72.81
  Q 271.01 55.67 271.82 38.74
  Q 271.90 37.24 270.59 37.99
  Q 265.56 40.88 262.34 45.58
  C 260.16 48.76 262.22 52.17 259.93 55.69
  Q 252.51 67.08 245.06 77.42
  A 0.90 0.90 0.0 0 1 243.52 77.28
  C 238.81 67.40 234.84 56.70 229.31 47.55
  A 0.49 0.49 0.0 0 0 228.65 47.37
  Q 223.16 50.33 219.95 55.63
  A 1.80 1.79 59.8 0 0 219.69 56.63
  Q 220.34 73.78 219.76 91.01
  Q 217.08 90.94 215.03 89.20
  A 1.54 1.53 13.2 0 1 214.53 88.40
  Q 212.58 81.10 205.08 80.90
  Q 204.70 59.64 205.83 37.00
  Q 205.97 34.20 203.60 35.69
  Q 195.34 40.85 193.11 50.31
  A 0.53 0.52 -83.4 0 0 193.62 50.96
  L 194.83 50.96
  A 0.38 0.38 0.0 0 1 195.21 51.39
  Q 195.16 51.81 194.90 52.19
  Q 185.36 66.26 176.47 80.82
  Q 176.21 81.26 176.17 80.75
  Q 175.78 75.16 176.05 69.56
  Q 176.93 51.42 177.05 32.91
  A 0.90 0.90 0.0 0 0 175.81 32.07
  C 171.29 33.91 166.67 38.63 166.72 43.99
  C 166.88 59.95 165.29 77.20 166.39 94.26
  A 1.62 1.56 -32.1 0 1 166.16 95.18
  L 161.29 103.20
  A 0.47 0.46 -66.2 0 0 161.55 103.88
  C 163.52 104.48 165.87 101.47 167.31 100.25
  Q 167.68 99.94 167.76 100.42
  C 168.73 106.40 177.63 95.64 178.66 93.71
  A 1.20 1.20 0.0 0 0 178.73 92.70
  L 177.34 89.06
  A 1.88 1.87 -39.8 0 1 177.49 87.43
  L 194.29 60.08
  Q 195.06 58.83 195.04 60.29
  Q 194.82 79.79 195.24 99.50
  Q 195.28 101.22 196.21 105.50
  Z
  M 351.38 57.94
  C 343.17 64.81 335.27 68.90 327.69 75.16
  C 319.73 81.73 330.28 93.24 338.25 86.98
  Q 346.26 80.69 355.81 77.22
  A 1.53 1.52 7.8 0 0 356.51 76.69
  Q 357.70 75.03 359.54 74.26
  A 0.64 0.63 -25.6 0 1 360.32 74.53
  C 363.81 80.63 368.58 91.53 373.45 94.90
  C 378.04 98.08 384.10 96.31 387.59 91.42
  C 392.93 83.95 401.73 78.48 409.17 73.23
  C 414.67 69.35 412.64 61.73 406.51 59.84
  C 402.31 58.54 399.39 59.44 395.82 62.27
  Q 388.45 68.11 380.65 73.44
  A 0.91 0.91 0.0 0 1 379.46 73.29
  Q 376.26 69.65 374.42 65.14
  A 1.97 1.93 -52.0 0 1 374.30 64.08
  Q 375.89 54.19 367.49 48.89
  A 1.38 1.37 4.5 0 1 366.95 48.26
  C 364.18 41.99 361.93 34.13 353.05 35.76
  C 347.91 36.70 348.30 41.06 347.40 44.86
  Q 347.29 45.33 347.42 45.79
  Q 348.96 51.61 351.59 57.00
  A 0.79 0.78 -32.5 0 1 351.38 57.94
  Z
  M 246.15 151.66
  C 250.69 144.54 254.69 137.50 253.98 128.68
  Q 253.74 125.72 251.04 126.99
  Q 238.02 133.14 229.81 145.04
  A 1.26 1.25 -48.2 0 0 229.89 146.57
  C 230.74 147.53 236.27 141.28 236.98 140.49
  Q 239.45 137.73 242.98 136.69
  A 0.74 0.73 -13.6 0 1 243.91 137.25
  C 245.55 145.79 239.29 155.82 233.98 161.96
  Q 232.35 163.85 231.97 165.57
  Q 231.86 166.08 232.29 165.79
  C 238.02 161.91 259.70 152.08 261.25 163.00
  Q 262.86 174.33 261.83 185.72
  A 1.22 1.22 0.0 0 1 260.81 186.82
  Q 248.34 188.86 242.51 178.12
  A 0.94 0.93 51.4 0 1 242.62 177.05
  L 247.20 171.77
  Q 248.60 170.17 246.49 169.91
  C 241.53 169.30 232.99 178.77 232.17 183.16
  Q 231.38 187.44 234.74 191.06
  C 242.65 199.58 253.47 198.72 261.89 191.62
  C 267.14 187.18 271.95 180.90 272.02 173.75
  Q 272.10 166.35 271.95 158.93
  C 271.84 153.44 270.30 147.69 263.50 148.29
  Q 254.82 149.05 246.66 152.28
  Q 245.44 152.77 246.15 151.66
  Z
  M 291.39 150.30
  L 291.50 127.78
  Q 291.50 126.67 290.56 127.26
  Q 286.04 130.08 282.58 134.13
  A 4.27 4.24 65.8 0 0 281.58 136.79
  Q 281.39 147.01 281.28 157.20
  C 281.20 163.87 280.11 166.12 277.26 171.76
  Q 273.84 178.50 280.01 180.50
  A 1.53 1.51 11.9 0 1 281.06 182.09
  Q 280.34 189.36 284.68 195.07
  Q 285.89 196.67 287.57 195.57
  Q 292.10 192.59 295.44 188.39
  A 1.86 1.86 0.0 0 0 295.30 185.91
  L 293.23 183.86
  Q 292.64 183.28 293.45 183.11
  L 303.27 181.03
  A 0.59 0.58 79.9 0 1 303.97 181.52
  L 304.12 182.44
  Q 304.21 183.07 304.69 182.64
  L 307.65 179.98
  Q 308.21 179.48 308.31 180.23
  C 308.66 182.82 308.46 185.90 309.36 188.15
  Q 311.92 194.59 319.69 196.72
  Q 330.49 199.68 338.19 193.70
  C 351.83 183.11 359.70 170.46 359.85 152.81
  C 359.99 135.60 337.18 123.15 323.30 133.80
  Q 304.73 148.05 303.88 172.37
  A 0.58 0.57 4.2 0 1 303.24 172.92
  L 292.56 171.63
  A 1.76 1.76 0.0 0 1 291.00 169.89
  L 290.93 157.63
  A 1.72 1.61 -31.1 0 1 291.19 156.71
  Q 297.27 147.27 307.07 142.25
  C 312.07 139.68 314.75 137.45 317.20 132.98
  A 0.56 0.56 0.0 0 0 317.01 132.24
  C 313.79 130.22 294.85 147.62 292.11 150.59
  Q 291.38 151.37 291.39 150.30
  Z"
/>
<path fill="#eaeaea" d="
  M 224.56 0.00
  L 248.81 0.00
  L 251.74 0.37
  A 0.45 0.45 0.0 0 1 252.12 0.94
  Q 251.98 1.43 251.29 1.77
  Q 241.36 6.64 236.16 8.60
  A 1.44 1.39 3.1 0 0 235.40 9.26
  L 234.47 11.04
  A 1.78 1.75 0.4 0 1 233.72 11.77
  C 226.87 15.24 219.32 20.88 211.99 22.34
  Q 209.27 22.88 207.90 20.47
  Q 202.21 10.50 211.49 5.01
  Q 218.20 1.04 224.56 0.00
  Z"
/>
<path fill="#020202" d="
  M 117.00 42.20
  Q 130.30 35.05 144.23 35.28
  C 154.53 35.45 157.67 50.16 158.17 58.21
  C 158.75 67.69 158.28 73.42 151.96 80.26
  C 140.07 93.13 127.86 101.81 109.76 102.26
  C 92.59 102.68 86.07 85.63 98.16 73.67
  C 105.86 66.05 114.27 60.29 125.73 61.45
  Q 127.29 61.60 128.41 62.18
  A 0.94 0.94 0.0 0 1 128.66 63.68
  L 120.64 71.74
  A 1.01 0.99 30.0 0 1 119.66 71.99
  C 112.49 69.84 96.45 70.67 102.96 83.62
  C 109.31 96.26 126.44 92.64 136.96 88.42
  C 142.01 86.39 147.49 83.01 148.04 77.23
  C 149.00 67.09 147.98 43.41 131.99 44.95
  Q 117.52 46.34 105.24 54.06
  C 104.97 54.23 103.84 54.28 103.62 54.15
  A 0.51 0.49 34.1 0 1 103.47 53.43
  C 111.23 42.89 120.56 33.55 118.79 19.19
  A 0.52 0.52 0.0 0 0 118.23 18.73
  C 109.65 19.35 101.55 23.56 97.98 31.56
  Q 95.38 37.36 89.03 41.54
  A 0.66 0.66 0.0 0 1 88.01 41.07
  Q 87.76 39.14 89.17 36.88
  C 96.04 25.92 113.93 7.46 128.25 9.17
  A 0.66 0.65 89.4 0 1 128.82 9.73
  C 130.45 22.16 123.40 32.34 116.84 42.03
  Q 116.57 42.43 117.00 42.20
  Z"
/>
<path fill="#020202" d="
  M 205.08 80.90
  Q 204.74 88.84 206.21 96.51
  A 0.58 0.58 0.0 0 0 207.00 96.94
  L 208.79 96.20
  A 0.38 0.38 0.0 0 1 209.32 96.53
  C 209.52 100.19 201.33 106.98 198.39 108.78
  A 0.56 0.55 55.4 0 1 197.65 108.64
  Q 196.57 107.25 196.21 105.50
  Q 195.28 101.22 195.24 99.50
  Q 194.82 79.79 195.04 60.29
  Q 195.06 58.83 194.29 60.08
  L 177.49 87.43
  A 1.88 1.87 -39.8 0 0 177.34 89.06
  L 178.73 92.70
  A 1.20 1.20 0.0 0 1 178.66 93.71
  C 177.63 95.64 168.73 106.40 167.76 100.42
  Q 167.68 99.94 167.31 100.25
  C 165.87 101.47 163.52 104.48 161.55 103.88
  A 0.47 0.46 -66.2 0 1 161.29 103.20
  L 166.16 95.18
  A 1.62 1.56 -32.1 0 0 166.39 94.26
  C 165.29 77.20 166.88 59.95 166.72 43.99
  C 166.67 38.63 171.29 33.91 175.81 32.07
  A 0.90 0.90 0.0 0 1 177.05 32.91
  Q 176.93 51.42 176.05 69.56
  Q 175.78 75.16 176.17 80.75
  Q 176.21 81.26 176.47 80.82
  Q 185.36 66.26 194.90 52.19
  Q 195.16 51.81 195.21 51.39
  A 0.38 0.38 0.0 0 0 194.83 50.96
  L 193.62 50.96
  A 0.53 0.52 -83.4 0 1 193.11 50.31
  Q 195.34 40.85 203.60 35.69
  Q 205.97 34.20 205.83 37.00
  Q 204.70 59.64 205.08 80.90
  Z"
/>
<path fill="#eaeaea" d="
  M 351.59 57.00
  Q 348.96 51.61 347.42 45.79
  Q 347.29 45.33 347.40 44.86
  C 348.30 41.06 347.91 36.70 353.05 35.76
  C 361.93 34.13 364.18 41.99 366.95 48.26
  A 1.38 1.37 4.5 0 0 367.49 48.89
  Q 375.89 54.19 374.30 64.08
  A 1.97 1.93 -52.0 0 0 374.42 65.14
  Q 376.26 69.65 379.46 73.29
  A 0.91 0.91 0.0 0 0 380.65 73.44
  Q 388.45 68.11 395.82 62.27
  C 399.39 59.44 402.31 58.54 406.51 59.84
  C 412.64 61.73 414.67 69.35 409.17 73.23
  C 401.73 78.48 392.93 83.95 387.59 91.42
  C 384.10 96.31 378.04 98.08 373.45 94.90
  C 368.58 91.53 363.81 80.63 360.32 74.53
  A 0.64 0.63 -25.6 0 0 359.54 74.26
  Q 357.70 75.03 356.51 76.69
  A 1.53 1.52 7.8 0 1 355.81 77.22
  Q 346.26 80.69 338.25 86.98
  C 330.28 93.24 319.73 81.73 327.69 75.16
  C 335.27 68.90 343.17 64.81 351.38 57.94
  A 0.79 0.78 -32.5 0 0 351.59 57.00
  Z"
/>
<path fill="#020202" d="
  M 241.25 91.79
  L 238.13 92.06
  A 1.76 1.75 -66.4 0 0 237.15 92.45
  L 231.35 97.15
  A 1.05 1.04 67.7 0 0 230.98 98.05
  C 231.47 102.67 225.01 107.67 221.18 109.82
  A 0.77 0.77 0.0 0 1 220.04 109.16
  L 219.76 91.01
  Q 220.34 73.78 219.69 56.63
  A 1.80 1.79 59.8 0 1 219.95 55.63
  Q 223.16 50.33 228.65 47.37
  A 0.49 0.49 0.0 0 1 229.31 47.55
  C 234.84 56.70 238.81 67.40 243.52 77.28
  A 0.90 0.90 0.0 0 0 245.06 77.42
  Q 252.51 67.08 259.93 55.69
  C 262.22 52.17 260.16 48.76 262.34 45.58
  Q 265.56 40.88 270.59 37.99
  Q 271.90 37.24 271.82 38.74
  Q 271.01 55.67 270.12 72.81
  C 269.90 76.82 268.97 92.73 272.50 94.95
  A 0.46 0.46 0.0 0 0 273.16 94.76
  Q 282.19 75.47 296.26 59.50
  Q 300.62 54.55 304.81 49.46
  A 1.09 1.07 -30.8 0 0 305.04 48.58
  C 303.83 42.45 309.35 38.58 313.82 36.00
  A 0.65 0.65 0.0 0 1 314.79 36.49
  Q 315.17 40.12 315.10 44.00
  Q 314.82 60.28 315.04 76.26
  A 0.92 0.91 -4.2 0 0 316.08 77.15
  L 322.44 76.27
  A 0.53 0.53 0.0 0 1 323.03 76.68
  C 323.27 77.82 317.79 82.75 316.76 83.64
  A 0.82 0.81 -27.8 0 0 316.50 84.45
  Q 317.79 89.57 320.51 93.90
  C 323.13 98.08 325.31 101.22 330.53 98.97
  Q 331.65 98.48 330.99 99.51
  Q 327.29 105.23 321.82 109.28
  Q 319.97 110.65 317.79 109.90
  C 310.32 107.32 306.41 95.73 305.40 88.73
  A 1.01 1.00 83.8 0 0 304.34 87.87
  L 282.63 89.21
  A 0.70 0.69 3.1 0 0 281.98 89.79
  L 280.89 96.34
  A 0.55 0.54 -82.5 0 0 281.37 96.97
  Q 286.00 97.40 290.00 95.10
  A 0.38 0.38 0.0 0 1 290.54 95.27
  Q 290.64 95.48 290.48 95.72
  C 287.09 101.13 277.94 110.62 270.69 105.33
  A 0.50 0.49 -52.3 0 0 270.01 105.42
  Q 268.23 107.61 265.35 106.57
  C 260.80 104.94 260.18 100.45 260.07 96.25
  Q 259.71 81.89 260.91 67.57
  Q 261.14 64.84 260.95 62.21
  Q 260.89 61.33 260.37 62.04
  L 247.25 80.04
  A 0.71 0.71 0.0 0 0 247.32 80.96
  L 248.20 81.83
  Q 249.64 83.28 248.39 84.89
  Q 245.32 88.86 241.25 91.79
  Z
  M 304.45 55.02
  C 298.00 60.12 291.12 71.22 287.21 78.48
  A 0.36 0.36 0.0 0 0 287.52 79.01
  L 303.61 78.98
  A 1.40 1.39 90.0 0 0 305.00 77.58
  L 304.99 55.29
  Q 304.99 54.59 304.45 55.02
  Z
  M 230.52 95.47
  L 234.89 89.29
  A 0.66 0.65 43.8 0 0 234.87 88.50
  Q 232.08 84.99 230.66 80.73
  A 0.23 0.22 87.1 0 0 230.51 80.59
  L 230.23 80.49
  A 0.18 0.18 0.0 0 0 230.00 80.66
  L 230.00 95.30
  Q 230.00 96.20 230.52 95.47
  Z"
/>
<path fill="#ffffff" d="
  M 287.21 78.48
  C 291.12 71.22 298.00 60.12 304.45 55.02
  Q 304.99 54.59 304.99 55.29
  L 305.00 77.58
  A 1.40 1.39 -90.0 0 1 303.61 78.98
  L 287.52 79.01
  A 0.36 0.36 0.0 0 1 287.21 78.48
  Z"
/>
<path fill="#eaeaea" d="
  M 219.76 91.01
  L 220.04 109.16
  A 0.77 0.77 0.0 0 0 221.18 109.82
  C 225.01 107.67 231.47 102.67 230.98 98.05
  A 1.05 1.04 67.7 0 1 231.35 97.15
  L 237.15 92.45
  A 1.76 1.75 -66.4 0 1 238.13 92.06
  L 241.25 91.79
  Q 243.65 95.42 243.66 99.68
  C 243.66 106.36 234.21 108.32 234.93 115.27
  A 0.72 0.71 76.2 0 1 234.50 116.00
  Q 231.06 117.41 229.10 120.64
  Q 228.83 121.08 228.38 121.35
  Q 224.10 123.89 221.28 127.77
  Q 216.35 130.28 212.79 134.75
  L 206.21 133.62
  A 1.78 1.76 -18.7 0 1 205.35 133.20
  Q 200.90 129.09 202.29 123.28
  Q 202.44 122.68 201.86 122.91
  Q 193.86 126.13 188.47 132.76
  A 1.42 1.40 -75.8 0 1 187.66 133.25
  Q 183.46 134.05 180.79 137.22
  C 178.65 139.77 176.97 140.44 174.04 139.00
  Q 174.17 138.00 173.73 137.23
  A 0.56 0.56 0.0 0 0 172.98 137.01
  L 170.75 138.21
  Q 171.14 136.88 170.25 135.96
  Q 174.77 132.33 177.82 127.32
  A 0.90 0.90 0.0 0 0 177.24 125.97
  L 172.50 124.96
  Q 173.09 124.36 172.92 123.52
  A 0.71 0.70 68.0 0 1 173.23 122.78
  C 177.99 119.78 181.47 115.02 186.48 112.26
  Q 190.34 110.13 194.25 108.06
  Q 194.68 107.82 194.95 107.41
  L 196.21 105.50
  Q 196.57 107.25 197.65 108.64
  A 0.56 0.55 55.4 0 0 198.39 108.78
  C 201.33 106.98 209.52 100.19 209.32 96.53
  A 0.38 0.38 0.0 0 0 208.79 96.20
  L 207.00 96.94
  A 0.58 0.58 0.0 0 1 206.21 96.51
  Q 204.74 88.84 205.08 80.90
  Q 212.58 81.10 214.53 88.40
  A 1.54 1.53 13.2 0 0 215.03 89.20
  Q 217.08 90.94 219.76 91.01
  Z"
/>
<path fill="#eaeaea" d="
  M 230.52 95.47
  Q 230.00 96.20 230.00 95.30
  L 230.00 80.66
  A 0.18 0.18 0.0 0 1 230.23 80.49
  L 230.51 80.59
  A 0.23 0.22 87.1 0 1 230.66 80.73
  Q 232.08 84.99 234.87 88.50
  A 0.66 0.65 43.8 0 1 234.89 89.29
  L 230.52 95.47
  Z"
/>
<path fill="#ffffff" d="
  M 212.79 134.75
  Q 211.57 137.49 212.08 140.57
  Q 212.41 142.60 210.71 143.76
  C 204.00 148.36 198.21 155.79 193.84 162.64
  Q 191.70 165.98 191.15 162.05
  Q 189.46 150.02 190.08 137.87
  Q 190.24 134.77 187.84 136.74
  L 181.82 141.67
  Q 179.96 143.19 179.85 145.60
  C 179.33 156.94 180.60 166.66 182.39 178.05
  C 183.06 182.28 181.96 185.08 179.68 188.38
  Q 179.39 188.80 179.23 188.32
  C 173.52 171.49 173.90 158.82 174.04 139.00
  C 176.97 140.44 178.65 139.77 180.79 137.22
  Q 183.46 134.05 187.66 133.25
  A 1.42 1.40 -75.8 0 0 188.47 132.76
  Q 193.86 126.13 201.86 122.91
  Q 202.44 122.68 202.29 123.28
  Q 200.90 129.09 205.35 133.20
  A 1.78 1.76 -18.7 0 0 206.21 133.62
  L 212.79 134.75
  Z"
/>
<path fill="#020202" d="
  M 172.50 124.96
  L 177.24 125.97
  A 0.90 0.90 0.0 0 1 177.82 127.32
  Q 174.77 132.33 170.25 135.96
  C 163.41 140.28 160.26 148.17 156.90 155.16
  Q 150.34 168.79 151.00 183.92
  A 0.93 0.92 15.2 0 0 151.43 184.66
  L 152.37 185.25
  A 0.64 0.63 -57.0 0 1 152.56 186.16
  Q 149.15 191.11 144.12 194.47
  Q 141.08 196.49 141.05 192.84
  L 140.97 183.08
  Q 140.96 182.47 140.53 182.90
  C 134.15 189.25 127.04 194.80 117.75 196.51
  C 113.47 197.29 105.74 198.20 101.08 197.16
  C 86.90 193.99 82.89 181.28 83.85 168.15
  C 84.41 160.50 87.63 155.39 94.33 152.06
  Q 94.93 151.76 94.83 152.43
  C 93.21 162.47 92.28 175.39 101.14 182.51
  Q 101.74 183.00 101.63 182.23
  Q 100.67 175.39 101.06 168.49
  A 0.85 0.85 0.0 0 0 100.06 167.61
  L 97.57 168.08
  Q 96.38 168.30 97.26 167.47
  Q 100.40 164.48 99.75 159.75
  Q 99.40 157.16 98.15 144.82
  C 97.35 137.02 101.16 133.88 107.25 130.09
  A 0.28 0.28 0.0 0 1 107.67 130.30
  L 110.21 155.80
  A 0.34 0.34 0.0 0 0 110.70 156.07
  C 118.84 152.03 134.12 146.61 143.03 149.57
  A 1.55 1.53 -8.1 0 1 143.80 150.14
  Q 147.33 155.09 146.99 161.20
  C 146.97 161.51 147.06 161.82 147.33 161.93
  A 0.39 0.39 0.0 0 0 147.84 161.72
  Q 154.15 146.42 166.37 135.31
  Q 166.85 134.87 166.20 134.88
  C 148.75 135.12 131.25 134.51 113.77 136.04
  Q 112.97 136.11 113.33 135.39
  C 118.41 125.26 125.83 125.66 137.41 125.32
  Q 154.95 124.82 172.50 124.96
  Z
  M 132.90 158.97
  Q 121.64 158.18 111.23 162.49
  A 0.49 0.48 -14.1 0 0 110.93 162.98
  L 112.81 187.43
  A 0.58 0.58 0.0 0 0 113.40 187.97
  Q 121.84 187.83 130.10 185.88
  C 138.30 183.93 137.95 177.98 137.39 170.68
  Q 136.97 165.23 134.74 160.26
  A 2.18 2.17 -9.9 0 0 132.90 158.97
  Z"
/>
<path fill="#020202" d="
  M 246.15 151.66
  Q 245.44 152.77 246.66 152.28
  Q 254.82 149.05 263.50 148.29
  C 270.30 147.69 271.84 153.44 271.95 158.93
  Q 272.10 166.35 272.02 173.75
  C 271.95 180.90 267.14 187.18 261.89 191.62
  C 253.47 198.72 242.65 199.58 234.74 191.06
  Q 231.38 187.44 232.17 183.16
  C 232.99 178.77 241.53 169.30 246.49 169.91
  Q 248.60 170.17 247.20 171.77
  L 242.62 177.05
  A 0.94 0.93 51.4 0 0 242.51 178.12
  Q 248.34 188.86 260.81 186.82
  A 1.22 1.22 0.0 0 0 261.83 185.72
  Q 262.86 174.33 261.25 163.00
  C 259.70 152.08 238.02 161.91 232.29 165.79
  Q 231.86 166.08 231.97 165.57
  Q 232.35 163.85 233.98 161.96
  C 239.29 155.82 245.55 145.79 243.91 137.25
  A 0.74 0.73 -13.6 0 0 242.98 136.69
  Q 239.45 137.73 236.98 140.49
  C 236.27 141.28 230.74 147.53 229.89 146.57
  A 1.26 1.25 -48.2 0 1 229.81 145.04
  Q 238.02 133.14 251.04 126.99
  Q 253.74 125.72 253.98 128.68
  C 254.69 137.50 250.69 144.54 246.15 151.66
  Z"
/>
<path fill="#020202" d="
  M 291.39 150.30
  Q 291.38 151.37 292.11 150.59
  C 294.85 147.62 313.79 130.22 317.01 132.24
  A 0.56 0.56 0.0 0 1 317.20 132.98
  C 314.75 137.45 312.07 139.68 307.07 142.25
  Q 297.27 147.27 291.19 156.71
  A 1.72 1.61 -31.1 0 0 290.93 157.63
  L 291.00 169.89
  A 1.76 1.76 0.0 0 0 292.56 171.63
  L 303.24 172.92
  A 0.58 0.57 4.2 0 0 303.88 172.37
  Q 304.73 148.05 323.30 133.80
  C 337.18 123.15 359.99 135.60 359.85 152.81
  C 359.70 170.46 351.83 183.11 338.19 193.70
  Q 330.49 199.68 319.69 196.72
  Q 311.92 194.59 309.36 188.15
  C 308.46 185.90 308.66 182.82 308.31 180.23
  Q 308.21 179.48 307.65 179.98
  L 304.69 182.64
  Q 304.21 183.07 304.12 182.44
  L 303.97 181.52
  A 0.59 0.58 79.9 0 0 303.27 181.03
  L 293.45 183.11
  Q 292.64 183.28 293.23 183.86
  L 295.30 185.91
  A 1.86 1.86 0.0 0 1 295.44 188.39
  Q 292.10 192.59 287.57 195.57
  Q 285.89 196.67 284.68 195.07
  Q 280.34 189.36 281.06 182.09
  A 1.53 1.51 11.9 0 0 280.01 180.50
  Q 273.84 178.50 277.26 171.76
  C 280.11 166.12 281.20 163.87 281.28 157.20
  Q 281.39 147.01 281.58 136.79
  A 4.27 4.24 65.8 0 1 282.58 134.13
  Q 286.04 130.08 290.56 127.26
  Q 291.50 126.67 291.50 127.78
  L 291.39 150.30
  Z
  M 319.48 142.46
  Q 315.34 149.40 314.53 157.55
  Q 314.45 158.41 314.99 157.74
  Q 318.39 153.61 323.07 151.04
  Q 325.23 149.85 325.79 152.25
  C 327.31 158.89 324.25 162.60 320.74 167.64
  Q 319.16 169.91 318.84 172.09
  C 317.22 183.11 325.67 187.28 335.04 188.05
  C 348.40 189.14 350.54 166.84 349.43 157.96
  C 348.08 147.31 336.55 140.38 326.69 139.89
  C 323.36 139.72 321.20 139.57 319.48 142.46
  Z"
/>
<path fill="#020202" d="
  M 221.28 127.77
  Q 222.48 131.20 222.01 134.48
  A 0.50 0.50 0.0 0 0 222.68 135.02
  L 225.05 134.12
  A 0.60 0.59 -25.0 0 1 225.78 134.38
  C 226.10 134.93 222.87 138.62 221.36 140.41
  A 1.50 1.43 67.2 0 0 221.02 141.30
  Q 220.72 153.92 221.06 166.49
  C 221.25 173.31 222.24 179.67 227.79 183.55
  A 0.55 0.54 33.7 0 1 227.94 184.29
  Q 224.96 189.07 220.19 192.27
  Q 217.48 194.09 215.62 191.41
  Q 210.95 184.70 210.93 176.81
  C 210.92 173.46 211.62 148.83 210.70 147.81
  A 0.50 0.50 0.0 0 0 210.01 147.76
  C 203.91 152.88 197.35 163.97 193.37 172.31
  A 1.84 1.80 55.2 0 0 193.21 173.26
  C 193.59 176.89 194.47 185.41 196.48 187.45
  A 0.65 0.65 0.0 0 1 196.54 188.28
  Q 192.73 193.55 187.27 197.06
  A 0.89 0.88 67.3 0 1 185.93 196.51
  L 184.90 191.94
  Q 184.38 189.66 182.65 191.23
  L 171.95 200.94
  A 1.02 1.01 58.9 0 1 170.32 200.53
  C 164.19 183.68 163.16 168.49 164.08 148.82
  C 164.31 144.00 166.98 140.73 170.75 138.21
  L 172.98 137.01
  A 0.56 0.56 0.0 0 1 173.73 137.23
  Q 174.17 138.00 174.04 139.00
  C 173.90 158.82 173.52 171.49 179.23 188.32
  Q 179.39 188.80 179.68 188.38
  C 181.96 185.08 183.06 182.28 182.39 178.05
  C 180.60 166.66 179.33 156.94 179.85 145.60
  Q 179.96 143.19 181.82 141.67
  L 187.84 136.74
  Q 190.24 134.77 190.08 137.87
  Q 189.46 150.02 191.15 162.05
  Q 191.70 165.98 193.84 162.64
  C 198.21 155.79 204.00 148.36 210.71 143.76
  Q 212.41 142.60 212.08 140.57
  Q 211.57 137.49 212.79 134.75
  Q 216.35 130.28 221.28 127.77
  Z"
/>
<path fill="#ffffff" d="
  M 319.48 142.46
  C 321.20 139.57 323.36 139.72 326.69 139.89
  C 336.55 140.38 348.08 147.31 349.43 157.96
  C 350.54 166.84 348.40 189.14 335.04 188.05
  C 325.67 187.28 317.22 183.11 318.84 172.09
  Q 319.16 169.91 320.74 167.64
  C 324.25 162.60 327.31 158.89 325.79 152.25
  Q 325.23 149.85 323.07 151.04
  Q 318.39 153.61 314.99 157.74
  Q 314.45 158.41 314.53 157.55
  Q 315.34 149.40 319.48 142.46
  Z"
/>
<path fill="#ffffff" d="
  M 132.90 158.97
  A 2.18 2.17 -9.9 0 1 134.74 160.26
  Q 136.97 165.23 137.39 170.68
  C 137.95 177.98 138.30 183.93 130.10 185.88
  Q 121.84 187.83 113.40 187.97
  A 0.58 0.58 0.0 0 1 112.81 187.43
  L 110.93 162.98
  A 0.49 0.48 -14.1 0 1 111.23 162.49
  Q 121.64 158.18 132.90 158.97
  Z"
/>
<path fill="#eaeaea" d="
  M 359.69 213.00
  L 357.94 213.00
  L 349.13 212.81
  Q 347.08 212.76 347.80 210.85
  C 349.51 206.25 361.49 207.02 363.34 211.62
  A 0.45 0.45 0.0 0 1 363.02 212.22
  L 359.69 213.00
  Z"
/>
</svg>
