<?xml version="1.0" encoding="UTF-8" standalone="no"?>
<!-- Created with Inkscape (http://www.inkscape.org/) -->

<svg
   xmlns:dc="http://purl.org/dc/elements/1.1/"
   xmlns:cc="http://creativecommons.org/ns#"
   xmlns:rdf="http://www.w3.org/1999/02/22-rdf-syntax-ns#"
   xmlns:svg="http://www.w3.org/2000/svg"
   xmlns="http://www.w3.org/2000/svg"
   xmlns:sodipodi="http://sodipodi.sourceforge.net/DTD/sodipodi-0.dtd"
   xmlns:inkscape="http://www.inkscape.org/namespaces/inkscape"
   width="400"
   height="600"
   viewBox="0 0 105.83333 158.75"
   version="1.1"
   id="svg8"
   inkscape:version="0.92.4 (5da689c313, 2019-01-14)"
   sodipodi:docname="37_m.svg">
  <defs
     id="defs2" />
  <sodipodi:namedview
     id="base"
     pagecolor="#ffffff"
     bordercolor="#666666"
     borderopacity="1.0"
     inkscape:pageopacity="0.0"
     inkscape:pageshadow="2"
     inkscape:zoom="0.64083333"
     inkscape:cx="469.31145"
     inkscape:cy="369.45656"
     inkscape:document-units="mm"
     inkscape:current-layer="layer1"
     showgrid="false"
     units="px"
     showguides="true"
     inkscape:guide-bbox="true"
     inkscape:window-width="1280"
     inkscape:window-height="968"
     inkscape:window-x="0"
     inkscape:window-y="0"
     inkscape:window-maximized="1">
    <sodipodi:guide
       position="20.78869,60.476191"
       orientation="1,0"
       id="guide859"
       inkscape:locked="false" />
    <sodipodi:guide
       position="20.78869,128.88988"
       orientation="1,0"
       id="guide863"
       inkscape:locked="false" />
    <sodipodi:guide
       position="12.85119,57.641369"
       orientation="1,0"
       id="guide865"
       inkscape:locked="false" />
    <sodipodi:guide
       position="32.339612,108.51143"
       orientation="0,1"
       id="guide867"
       inkscape:locked="false" />
    <sodipodi:guide
       position="-9.0871638,97.553376"
       orientation="0,1"
       id="guide2596"
       inkscape:locked="false" />
    <sodipodi:guide
       position="-16.036171,64.144687"
       orientation="0,1"
       id="guide2598"
       inkscape:locked="false" />
  </sodipodi:namedview>
  <metadata
     id="metadata5">
    <rdf:RDF>
      <cc:Work
         rdf:about="">
        <dc:format>image/svg+xml</dc:format>
        <dc:type
           rdf:resource="http://purl.org/dc/dcmitype/StillImage" />
        <dc:title></dc:title>
      </cc:Work>
    </rdf:RDF>
  </metadata>
  <g
     inkscape:label="Layer 1"
     inkscape:groupmode="layer"
     id="layer1"
     transform="translate(0,-138.24998)">
    <rect
       style="opacity:1;fill:#ffffff;fill-opacity:0.60101007;stroke:#000000;stroke-width:0.27790931;stroke-miterlimit:4;stroke-dasharray:none;stroke-dashoffset:0;stroke-opacity:1"
       id="rect10"
       width="105.4538"
       height="158.75175"
       x="0.17799145"
       y="138.24911"
       ry="7.9375877" />
    <flowRoot
       xml:space="preserve"
       id="flowRoot851"
       style="fill:black;fill-opacity:1;stroke:none;font-family:sans-serif;font-style:normal;font-weight:normal;font-size:40px;line-height:0;letter-spacing:0px;word-spacing:0px"><flowRegion
         id="flowRegion853"><rect
           id="rect855"
           width="114.28571"
           height="65.714287"
           x="47.142857"
           y="194.28572" /></flowRegion><flowPara
         id="flowPara857" /></flowRoot>    <text
       xml:space="preserve"
       style="font-style:normal;font-weight:normal;font-size:33.90801239px;line-height:0;font-family:sans-serif;letter-spacing:0px;word-spacing:0px;fill:#666666;fill-opacity:1;stroke:none;stroke-width:0.84770024"
       x="16.134531"
       y="174.63515"
       id="text827"><tspan
         sodipodi:role="line"
         id="tspan825"
         x="16.134531"
         y="174.63515"
         style="font-style:normal;font-variant:normal;font-weight:bold;font-stretch:normal;font-family:Arsenal;-inkscape-font-specification:'Arsenal Bold';fill:#666666;stroke-width:0.84770024">37</tspan></text>
    <g
       id="g38861"
       transform="matrix(0.22810866,0,0,0.22810866,0.94631173,177.54049)">
      <g
         id="g38774"
         style="fill:none;stroke-width:2;stroke-linecap:butt">
        <path
           id="path38724"
           d="m 224.56,0 q -6.36,1.04 -13.07,5.01 -9.28,5.49 -3.59,15.46 1.37,2.41 4.09,1.87 c 7.33,-1.46 14.88,-7.1 21.73,-10.57 a 1.78,1.75 0.4 0 0 0.75,-0.73 l 0.93,-1.78 a 1.44,1.39 3.1 0 1 0.76,-0.66 q 5.2,-1.96 15.13,-6.83 0.69,-0.34 0.83,-0.83 A 0.45,0.45 0 0 0 251.74,0.37 L 248.81,0"
           inkscape:connector-curvature="0"
           style="vector-effect:non-scaling-stroke;stroke:#f5f5f5" />
        <path
           id="path38726"
           d="m 359.69,213 3.33,-0.78 a 0.45,0.45 0 0 0 0.32,-0.6 c -1.85,-4.6 -13.83,-5.37 -15.54,-0.77 q -0.72,1.91 1.33,1.96 l 8.81,0.19"
           inkscape:connector-curvature="0"
           style="vector-effect:non-scaling-stroke;stroke:#f5f5f5" />
        <path
           id="path38728"
           d="m 116.84,42.03 c 6.56,-9.69 13.61,-19.87 11.98,-32.3 A 0.66,0.65 89.4 0 0 128.25,9.17 C 113.93,7.46 96.04,25.92 89.17,36.88 q -1.41,2.26 -1.16,4.19 a 0.66,0.66 0 0 0 1.02,0.47 q 6.35,-4.18 8.95,-9.98 c 3.57,-8 11.67,-12.21 20.25,-12.83 a 0.52,0.52 0 0 1 0.56,0.46 c 1.77,14.36 -7.56,23.7 -15.32,34.24 a 0.51,0.49 34.1 0 0 0.15,0.72 c 0.22,0.13 1.35,0.08 1.62,-0.09 q 12.28,-7.72 26.75,-9.11 c 15.99,-1.54 17.01,22.14 16.05,32.28 -0.55,5.78 -6.03,9.16 -11.08,11.19 -10.52,4.22 -27.65,7.84 -34,-4.8 -6.51,-12.95 9.53,-13.78 16.7,-11.63 a 1.01,0.99 30 0 0 0.98,-0.25 l 8.02,-8.06 a 0.94,0.94 0 0 0 -0.25,-1.5 q -1.12,-0.58 -2.68,-0.73 c -11.46,-1.16 -19.87,4.6 -27.57,12.22 -12.09,11.96 -5.57,29.01 11.6,28.59 18.1,-0.45 30.31,-9.13 42.2,-22 6.32,-6.84 6.79,-12.57 6.21,-22.05 -0.5,-8.05 -3.64,-22.76 -13.94,-22.93 Q 130.3,35.05 117,42.2 q -0.43,0.23 -0.16,-0.17"
           inkscape:connector-curvature="0"
           style="vector-effect:non-scaling-stroke;stroke:#818181" />
        <path
           id="path38730"
           d="m 196.21,105.5 -1.26,1.91 q -0.27,0.41 -0.7,0.65 -3.91,2.07 -7.77,4.2 c -5.01,2.76 -8.49,7.52 -13.25,10.52 a 0.71,0.7 68 0 0 -0.31,0.74 q 0.17,0.84 -0.42,1.44"
           inkscape:connector-curvature="0"
           style="vector-effect:non-scaling-stroke;stroke:#f5f5f5" />
        <path
           id="path38732"
           d="m 172.5,124.96 q -17.55,-0.14 -35.09,0.36 c -11.58,0.34 -19,-0.06 -24.08,10.07 q -0.36,0.72 0.44,0.65 c 17.48,-1.53 34.98,-0.92 52.43,-1.16 q 0.65,-0.01 0.17,0.43 -12.22,11.11 -18.53,26.41 a 0.39,0.39 0 0 1 -0.51,0.21 c -0.27,-0.11 -0.36,-0.42 -0.34,-0.73 q 0.34,-6.11 -3.19,-11.06 a 1.55,1.53 -8.1 0 0 -0.77,-0.57 c -8.91,-2.96 -24.19,2.46 -32.33,6.5 a 0.34,0.34 0 0 1 -0.49,-0.27 l -2.54,-25.5 a 0.28,0.28 0 0 0 -0.42,-0.21 c -6.09,3.79 -9.9,6.93 -9.1,14.73 q 1.25,12.34 1.6,14.93 0.65,4.73 -2.49,7.72 -0.88,0.83 0.31,0.61 l 2.49,-0.47 a 0.85,0.85 0 0 1 1,0.88 q -0.39,6.9 0.57,13.74 0.11,0.77 -0.49,0.28 c -8.86,-7.12 -7.93,-20.04 -6.31,-30.08 q 0.1,-0.67 -0.5,-0.37 c -6.7,3.33 -9.92,8.44 -10.48,16.09 -0.96,13.13 3.05,25.84 17.23,29.01 4.66,1.04 12.39,0.13 16.67,-0.65 9.29,-1.71 16.4,-7.26 22.78,-13.61 q 0.43,-0.43 0.44,0.18 l 0.08,9.76 q 0.03,3.65 3.07,1.63 5.03,-3.36 8.44,-8.31 a 0.64,0.63 -57 0 0 -0.19,-0.91 l -0.94,-0.59 A 0.93,0.92 15.2 0 1 151,183.92 q -0.66,-15.13 5.9,-28.76 c 3.36,-6.99 6.51,-14.88 13.35,-19.2"
           inkscape:connector-curvature="0"
           style="vector-effect:non-scaling-stroke;stroke:#818181" />
        <path
           id="path38734"
           d="m 170.25,135.96 q 0.89,0.92 0.5,2.25"
           inkscape:connector-curvature="0"
           style="vector-effect:non-scaling-stroke;stroke:#f5f5f5" />
        <path
           id="path38736"
           d="m 170.75,138.21 c -3.77,2.52 -6.44,5.79 -6.67,10.61 -0.92,19.67 0.11,34.86 6.24,51.71 a 1.02,1.01 58.9 0 0 1.63,0.41 l 10.7,-9.71 q 1.73,-1.57 2.25,0.71 l 1.03,4.57 a 0.89,0.88 67.3 0 0 1.34,0.55 q 5.46,-3.51 9.27,-8.78 a 0.65,0.65 0 0 0 -0.06,-0.83 c -2.01,-2.04 -2.89,-10.56 -3.27,-14.19 a 1.84,1.8 55.2 0 1 0.16,-0.95 c 3.98,-8.34 10.54,-19.43 16.64,-24.55 a 0.5,0.5 0 0 1 0.69,0.05 c 0.92,1.02 0.22,25.65 0.23,29 q 0.02,7.89 4.69,14.6 1.86,2.68 4.57,0.86 4.77,-3.2 7.75,-7.98 a 0.55,0.54 33.7 0 0 -0.15,-0.74 c -5.55,-3.88 -6.54,-10.24 -6.73,-17.06 q -0.34,-12.57 -0.04,-25.19 a 1.5,1.43 67.2 0 1 0.34,-0.89 c 1.51,-1.79 4.74,-5.48 4.42,-6.03 a 0.6,0.59 -25 0 0 -0.73,-0.26 l -2.37,0.9 a 0.5,0.5 0 0 1 -0.67,-0.54 q 0.47,-3.28 -0.73,-6.71"
           inkscape:connector-curvature="0"
           style="vector-effect:non-scaling-stroke;stroke:#818181" />
        <path
           id="path38738"
           d="m 221.28,127.77 q 2.82,-3.88 7.1,-6.42 0.45,-0.27 0.72,-0.71 1.96,-3.23 5.4,-4.64 a 0.72,0.71 76.2 0 0 0.43,-0.73 c -0.72,-6.95 8.73,-8.91 8.73,-15.59 q -0.01,-4.26 -2.41,-7.89"
           inkscape:connector-curvature="0"
           style="vector-effect:non-scaling-stroke;stroke:#f5f5f5" />
        <path
           id="path38740"
           d="m 241.25,91.79 q 4.07,-2.93 7.14,-6.9 1.25,-1.61 -0.19,-3.06 l -0.88,-0.87 a 0.71,0.71 0 0 1 -0.07,-0.92 l 13.12,-18 q 0.52,-0.71 0.58,0.17 0.19,2.63 -0.04,5.36 -1.2,14.32 -0.84,28.68 c 0.11,4.2 0.73,8.69 5.28,10.32 q 2.88,1.04 4.66,-1.15 a 0.5,0.49 -52.3 0 1 0.68,-0.09 c 7.25,5.29 16.4,-4.2 19.79,-9.61 q 0.16,-0.24 0.06,-0.45 A 0.38,0.38 0 0 0 290,95.1 q -4,2.3 -8.63,1.87 a 0.55,0.54 -82.5 0 1 -0.48,-0.63 l 1.09,-6.55 a 0.7,0.69 3.1 0 1 0.65,-0.58 l 21.71,-1.34 a 1.01,1 83.8 0 1 1.06,0.86 c 1.01,7 4.92,18.59 12.39,21.17 q 2.18,0.75 4.03,-0.62 5.47,-4.05 9.17,-9.77 0.66,-1.03 -0.46,-0.54 c -5.22,2.25 -7.4,-0.89 -10.02,-5.07 q -2.72,-4.33 -4.01,-9.45 a 0.82,0.81 -27.8 0 1 0.26,-0.81 c 1.03,-0.89 6.51,-5.82 6.27,-6.96 a 0.53,0.53 0 0 0 -0.59,-0.41 l -6.36,0.88 a 0.92,0.91 -4.2 0 1 -1.04,-0.89 Q 314.82,60.28 315.1,44 q 0.07,-3.88 -0.31,-7.51 A 0.65,0.65 0 0 0 313.82,36 c -4.47,2.58 -9.99,6.45 -8.78,12.58 a 1.09,1.07 -30.8 0 1 -0.23,0.88 q -4.19,5.09 -8.55,10.04 -14.07,15.97 -23.1,35.26 a 0.46,0.46 0 0 1 -0.66,0.19 c -3.53,-2.22 -2.6,-18.13 -2.38,-22.14 q 0.89,-17.14 1.7,-34.07 0.08,-1.5 -1.23,-0.75 -5.03,2.89 -8.25,7.59 c -2.18,3.18 -0.12,6.59 -2.41,10.11 q -7.42,11.39 -14.87,21.73 a 0.9,0.9 0 0 1 -1.54,-0.14 C 238.81,67.4 234.84,56.7 229.31,47.55 a 0.49,0.49 0 0 0 -0.66,-0.18 q -5.49,2.96 -8.7,8.26 a 1.8,1.79 59.8 0 0 -0.26,1 q 0.65,17.15 0.07,34.38"
           inkscape:connector-curvature="0"
           style="vector-effect:non-scaling-stroke;stroke:#818181" />
        <path
           id="path38742"
           d="m 219.76,91.01 q -2.68,-0.07 -4.73,-1.81 a 1.54,1.53 13.2 0 1 -0.5,-0.8 q -1.95,-7.3 -9.45,-7.5"
           inkscape:connector-curvature="0"
           style="vector-effect:non-scaling-stroke;stroke:#f5f5f5" />
        <path
           id="path38744"
           d="m 205.08,80.9 q -0.38,-21.26 0.75,-43.9 0.14,-2.8 -2.23,-1.31 -8.26,5.16 -10.49,14.62 a 0.53,0.52 -83.4 0 0 0.51,0.65 h 1.21 a 0.38,0.38 0 0 1 0.38,0.43 q -0.05,0.42 -0.31,0.8 -9.54,14.07 -18.43,28.63 -0.26,0.44 -0.3,-0.07 -0.39,-5.59 -0.12,-11.19 0.88,-18.14 1,-36.65 a 0.9,0.9 0 0 0 -1.24,-0.84 c -4.52,1.84 -9.14,6.56 -9.09,11.92 0.16,15.96 -1.43,33.21 -0.33,50.27 a 1.62,1.56 -32.1 0 1 -0.23,0.92 l -4.87,8.02 a 0.47,0.46 -66.2 0 0 0.26,0.68 c 1.97,0.6 4.32,-2.41 5.76,-3.63 q 0.37,-0.31 0.45,0.17 c 0.97,5.98 9.87,-4.78 10.9,-6.71 a 1.2,1.2 0 0 0 0.07,-1.01 l -1.39,-3.64 a 1.88,1.87 -39.8 0 1 0.15,-1.63 l 16.8,-27.35 q 0.77,-1.25 0.75,0.21 -0.22,19.5 0.2,39.21 0.04,1.72 0.97,6"
           inkscape:connector-curvature="0"
           style="vector-effect:non-scaling-stroke;stroke:#818181" />
        <path
           id="path38746"
           d="m 205.08,80.9 q -0.34,7.94 1.13,15.61 a 0.58,0.58 0 0 0 0.79,0.43 l 1.79,-0.74 a 0.38,0.38 0 0 1 0.53,0.33 c 0.2,3.66 -7.99,10.45 -10.93,12.25 a 0.56,0.55 55.4 0 1 -0.74,-0.14 q -1.08,-1.39 -1.44,-3.14"
           inkscape:connector-curvature="0"
           style="vector-effect:non-scaling-stroke;stroke:#767676" />
        <path
           id="path38748"
           d="m 221.28,127.77 q -4.93,2.51 -8.49,6.98"
           inkscape:connector-curvature="0"
           style="vector-effect:non-scaling-stroke;stroke:#767676" />
        <path
           id="path38750"
           d="m 212.79,134.75 -6.58,-1.13 a 1.78,1.76 -18.7 0 1 -0.86,-0.42 q -4.45,-4.11 -3.06,-9.92 0.15,-0.6 -0.43,-0.37 -8,3.22 -13.39,9.85 a 1.42,1.4 -75.8 0 1 -0.81,0.49 q -4.2,0.8 -6.87,3.97 c -2.14,2.55 -3.82,3.22 -6.75,1.78"
           inkscape:connector-curvature="0"
           style="vector-effect:non-scaling-stroke;stroke:#f5f5f5" />
        <path
           id="path38752"
           d="m 174.04,139 q 0.13,-1 -0.31,-1.77 a 0.56,0.56 0 0 0 -0.75,-0.22 l -2.23,1.2"
           inkscape:connector-curvature="0"
           style="vector-effect:non-scaling-stroke;stroke:#767676" />
        <path
           id="path38754"
           d="m 170.25,135.96 q 4.52,-3.63 7.57,-8.64 a 0.9,0.9 0 0 0 -0.58,-1.35 l -4.74,-1.01"
           inkscape:connector-curvature="0"
           style="vector-effect:non-scaling-stroke;stroke:#767676" />
        <path
           id="path38756"
           d="m 212.79,134.75 q -1.22,2.74 -0.71,5.82 0.33,2.03 -1.37,3.19 c -6.71,4.6 -12.5,12.03 -16.87,18.88 q -2.14,3.34 -2.69,-0.59 -1.69,-12.03 -1.07,-24.18 0.16,-3.1 -2.24,-1.13 l -6.02,4.93 q -1.86,1.52 -1.97,3.93 c -0.52,11.34 0.75,21.06 2.54,32.45 0.67,4.23 -0.43,7.03 -2.71,10.33 q -0.29,0.42 -0.45,-0.06 c -5.71,-16.83 -5.33,-29.5 -5.19,-49.32"
           inkscape:connector-curvature="0"
           style="vector-effect:non-scaling-stroke;stroke:#818181" />
        <path
           id="path38758"
           d="m 241.25,91.79 -3.12,0.27 a 1.76,1.75 -66.4 0 0 -0.98,0.39 l -5.8,4.7 a 1.05,1.04 67.7 0 0 -0.37,0.9 c 0.49,4.62 -5.97,9.62 -9.8,11.77 a 0.77,0.77 0 0 1 -1.14,-0.66 l -0.28,-18.15"
           inkscape:connector-curvature="0"
           style="vector-effect:non-scaling-stroke;stroke:#767676" />
        <path
           id="path38760"
           d="m 351.38,57.94 c -8.21,6.87 -16.11,10.96 -23.69,17.22 -7.96,6.57 2.59,18.08 10.56,11.82 q 8.01,-6.29 17.56,-9.76 a 1.53,1.52 7.8 0 0 0.7,-0.53 q 1.19,-1.66 3.03,-2.43 a 0.64,0.63 -25.6 0 1 0.78,0.27 c 3.49,6.1 8.26,17 13.13,20.37 4.59,3.18 10.65,1.41 14.14,-3.48 5.34,-7.47 14.14,-12.94 21.58,-18.19 5.5,-3.88 3.47,-11.5 -2.66,-13.39 -4.2,-1.3 -7.12,-0.4 -10.69,2.43 q -7.37,5.84 -15.17,11.17 a 0.91,0.91 0 0 1 -1.19,-0.15 q -3.2,-3.64 -5.04,-8.15 a 1.97,1.93 -52 0 1 -0.12,-1.06 q 1.59,-9.89 -6.81,-15.19 a 1.38,1.37 4.5 0 1 -0.54,-0.63 c -2.77,-6.27 -5.02,-14.13 -13.9,-12.5 -5.14,0.94 -4.75,5.3 -5.65,9.1 q -0.11,0.47 0.02,0.93 1.54,5.82 4.17,11.21 a 0.79,0.78 -32.5 0 1 -0.21,0.94"
           inkscape:connector-curvature="0"
           style="vector-effect:non-scaling-stroke;stroke:#f5f5f5" />
        <path
           id="path38762"
           d="m 246.15,151.66 c 4.54,-7.12 8.54,-14.16 7.83,-22.98 q -0.24,-2.96 -2.94,-1.69 -13.02,6.15 -21.23,18.05 a 1.26,1.25 -48.2 0 0 0.08,1.53 c 0.85,0.96 6.38,-5.29 7.09,-6.08 q 2.47,-2.76 6,-3.8 a 0.74,0.73 -13.6 0 1 0.93,0.56 c 1.64,8.54 -4.62,18.57 -9.93,24.71 q -1.63,1.89 -2.01,3.61 -0.11,0.51 0.32,0.22 c 5.73,-3.88 27.41,-13.71 28.96,-2.79 q 1.61,11.33 0.58,22.72 a 1.22,1.22 0 0 1 -1.02,1.1 q -12.47,2.04 -18.3,-8.7 a 0.94,0.93 51.4 0 1 0.11,-1.07 l 4.58,-5.28 q 1.4,-1.6 -0.71,-1.86 c -4.96,-0.61 -13.5,8.86 -14.32,13.25 q -0.79,4.28 2.57,7.9 c 7.91,8.52 18.73,7.66 27.15,0.56 5.25,-4.44 10.06,-10.72 10.13,-17.87 q 0.08,-7.4 -0.07,-14.82 c -0.11,-5.49 -1.65,-11.24 -8.45,-10.64 q -8.68,0.76 -16.84,3.99 -1.22,0.49 -0.51,-0.62"
           inkscape:connector-curvature="0"
           style="vector-effect:non-scaling-stroke;stroke:#818181" />
        <path
           id="path38764"
           d="m 291.39,150.3 0.11,-22.52 q 0,-1.11 -0.94,-0.52 -4.52,2.82 -7.98,6.87 a 4.27,4.24 65.8 0 0 -1,2.66 q -0.19,10.22 -0.3,20.41 c -0.08,6.67 -1.17,8.92 -4.02,14.56 q -3.42,6.74 2.75,8.74 a 1.53,1.51 11.9 0 1 1.05,1.59 q -0.72,7.27 3.62,12.98 1.21,1.6 2.89,0.5 4.53,-2.98 7.87,-7.18 a 1.86,1.86 0 0 0 -0.14,-2.48 l -2.07,-2.05 q -0.59,-0.58 0.22,-0.75 l 9.82,-2.08 a 0.59,0.58 79.9 0 1 0.7,0.49 l 0.15,0.92 q 0.09,0.63 0.57,0.2 l 2.96,-2.66 q 0.56,-0.5 0.66,0.25 c 0.35,2.59 0.15,5.67 1.05,7.92 q 2.56,6.44 10.33,8.57 10.8,2.96 18.5,-3.02 c 13.64,-10.59 21.51,-23.24 21.66,-40.89 0.14,-17.21 -22.67,-29.66 -36.55,-19.01 q -18.57,14.25 -19.42,38.57 a 0.58,0.57 4.2 0 1 -0.64,0.55 l -10.68,-1.29 A 1.76,1.76 0 0 1 291,169.89 l -0.07,-12.26 a 1.72,1.61 -31.1 0 1 0.26,-0.92 q 6.08,-9.44 15.88,-14.46 c 5,-2.57 7.68,-4.8 10.13,-9.27 a 0.56,0.56 0 0 0 -0.19,-0.74 c -3.22,-2.02 -22.16,15.38 -24.9,18.35 q -0.73,0.78 -0.72,-0.29"
           inkscape:connector-curvature="0"
           style="vector-effect:non-scaling-stroke;stroke:#818181" />
        <path
           id="path38766"
           d="m 304.45,55.02 c -6.45,5.1 -13.33,16.2 -17.24,23.46 a 0.36,0.36 0 0 0 0.31,0.53 l 16.09,-0.03 a 1.4,1.39 90 0 0 1.39,-1.4 l -0.01,-22.29 q 0,-0.7 -0.54,-0.27"
           inkscape:connector-curvature="0"
           style="vector-effect:non-scaling-stroke;stroke:#818181" />
        <path
           id="path38768"
           d="m 230.52,95.47 4.37,-6.18 a 0.66,0.65 43.8 0 0 -0.02,-0.79 q -2.79,-3.51 -4.21,-7.77 a 0.23,0.22 87.1 0 0 -0.15,-0.14 l -0.28,-0.1 A 0.18,0.18 0 0 0 230,80.66 V 95.3 q 0,0.9 0.52,0.17"
           inkscape:connector-curvature="0"
           style="vector-effect:non-scaling-stroke;stroke:#767676" />
        <path
           id="path38770"
           d="m 132.9,158.97 q -11.26,-0.79 -21.67,3.52 a 0.49,0.48 -14.1 0 0 -0.3,0.49 l 1.88,24.45 a 0.58,0.58 0 0 0 0.59,0.54 q 8.44,-0.14 16.7,-2.09 c 8.2,-1.95 7.85,-7.9 7.29,-15.2 q -0.42,-5.45 -2.65,-10.42 a 2.18,2.17 -9.9 0 0 -1.84,-1.29"
           inkscape:connector-curvature="0"
           style="vector-effect:non-scaling-stroke;stroke:#818181" />
        <path
           id="path38772"
           d="m 319.48,142.46 q -4.14,6.94 -4.95,15.09 -0.08,0.86 0.46,0.19 3.4,-4.13 8.08,-6.7 2.16,-1.19 2.72,1.21 c 1.52,6.64 -1.54,10.35 -5.05,15.39 q -1.58,2.27 -1.9,4.45 c -1.62,11.02 6.83,15.19 16.2,15.96 13.36,1.09 15.5,-21.21 14.39,-30.09 -1.35,-10.65 -12.88,-17.58 -22.74,-18.07 -3.33,-0.17 -5.49,-0.32 -7.21,2.57"
           inkscape:connector-curvature="0"
           style="vector-effect:non-scaling-stroke;stroke:#818181" />
      </g>
      <path
         id="path38776"
         d="m 0,0 h 224.56 q -6.36,1.04 -13.07,5.01 -9.28,5.49 -3.59,15.46 1.37,2.41 4.09,1.87 c 7.33,-1.46 14.88,-7.1 21.73,-10.57 a 1.78,1.75 0.4 0 0 0.75,-0.73 l 0.93,-1.78 a 1.44,1.39 3.1 0 1 0.76,-0.66 q 5.2,-1.96 15.13,-6.83 0.69,-0.34 0.83,-0.83 A 0.45,0.45 0 0 0 251.74,0.37 L 248.81,0 H 450 v 213 h -90.31 l 3.33,-0.78 a 0.45,0.45 0 0 0 0.32,-0.6 c -1.85,-4.6 -13.83,-5.37 -15.54,-0.77 q -0.72,1.91 1.33,1.96 l 8.81,0.19 H 0 Z m 116.84,42.03 c 6.56,-9.69 13.61,-19.87 11.98,-32.3 A 0.66,0.65 89.4 0 0 128.25,9.17 C 113.93,7.46 96.04,25.92 89.17,36.88 q -1.41,2.26 -1.16,4.19 a 0.66,0.66 0 0 0 1.02,0.47 q 6.35,-4.18 8.95,-9.98 c 3.57,-8 11.67,-12.21 20.25,-12.83 a 0.52,0.52 0 0 1 0.56,0.46 c 1.77,14.36 -7.56,23.7 -15.32,34.24 a 0.51,0.49 34.1 0 0 0.15,0.72 c 0.22,0.13 1.35,0.08 1.62,-0.09 q 12.28,-7.72 26.75,-9.11 c 15.99,-1.54 17.01,22.14 16.05,32.28 -0.55,5.78 -6.03,9.16 -11.08,11.19 -10.52,4.22 -27.65,7.84 -34,-4.8 -6.51,-12.95 9.53,-13.78 16.7,-11.63 a 1.01,0.99 30 0 0 0.98,-0.25 l 8.02,-8.06 a 0.94,0.94 0 0 0 -0.25,-1.5 q -1.12,-0.58 -2.68,-0.73 c -11.46,-1.16 -19.87,4.6 -27.57,12.22 -12.09,11.96 -5.57,29.01 11.6,28.59 18.1,-0.45 30.31,-9.13 42.2,-22 6.32,-6.84 6.79,-12.57 6.21,-22.05 -0.5,-8.05 -3.64,-22.76 -13.94,-22.93 Q 130.3,35.05 117,42.2 q -0.43,0.23 -0.16,-0.17 z m 79.37,63.47 -1.26,1.91 q -0.27,0.41 -0.7,0.65 -3.91,2.07 -7.77,4.2 c -5.01,2.76 -8.49,7.52 -13.25,10.52 a 0.71,0.7 68 0 0 -0.31,0.74 q 0.17,0.84 -0.42,1.44 -17.55,-0.14 -35.09,0.36 c -11.58,0.34 -19,-0.06 -24.08,10.07 q -0.36,0.72 0.44,0.65 c 17.48,-1.53 34.98,-0.92 52.43,-1.16 q 0.65,-0.01 0.17,0.43 -12.22,11.11 -18.53,26.41 a 0.39,0.39 0 0 1 -0.51,0.21 c -0.27,-0.11 -0.36,-0.42 -0.34,-0.73 q 0.34,-6.11 -3.19,-11.06 a 1.55,1.53 -8.1 0 0 -0.77,-0.57 c -8.91,-2.96 -24.19,2.46 -32.33,6.5 a 0.34,0.34 0 0 1 -0.49,-0.27 l -2.54,-25.5 a 0.28,0.28 0 0 0 -0.42,-0.21 c -6.09,3.79 -9.9,6.93 -9.1,14.73 q 1.25,12.34 1.6,14.93 0.65,4.73 -2.49,7.72 -0.88,0.83 0.31,0.61 l 2.49,-0.47 a 0.85,0.85 0 0 1 1,0.88 q -0.39,6.9 0.57,13.74 0.11,0.77 -0.49,0.28 c -8.86,-7.12 -7.93,-20.04 -6.31,-30.08 q 0.1,-0.67 -0.5,-0.37 c -6.7,3.33 -9.92,8.44 -10.48,16.09 -0.96,13.13 3.05,25.84 17.23,29.01 4.66,1.04 12.39,0.13 16.67,-0.65 9.29,-1.71 16.4,-7.26 22.78,-13.61 q 0.43,-0.43 0.44,0.18 l 0.08,9.76 q 0.03,3.65 3.07,1.63 5.03,-3.36 8.44,-8.31 a 0.64,0.63 -57 0 0 -0.19,-0.91 l -0.94,-0.59 A 0.93,0.92 15.2 0 1 151,183.92 q -0.66,-15.13 5.9,-28.76 c 3.36,-6.99 6.51,-14.88 13.35,-19.2 q 0.89,0.92 0.5,2.25 c -3.77,2.52 -6.44,5.79 -6.67,10.61 -0.92,19.67 0.11,34.86 6.24,51.71 a 1.02,1.01 58.9 0 0 1.63,0.41 l 10.7,-9.71 q 1.73,-1.57 2.25,0.71 l 1.03,4.57 a 0.89,0.88 67.3 0 0 1.34,0.55 q 5.46,-3.51 9.27,-8.78 a 0.65,0.65 0 0 0 -0.06,-0.83 c -2.01,-2.04 -2.89,-10.56 -3.27,-14.19 a 1.84,1.8 55.2 0 1 0.16,-0.95 c 3.98,-8.34 10.54,-19.43 16.64,-24.55 a 0.5,0.5 0 0 1 0.69,0.05 c 0.92,1.02 0.22,25.65 0.23,29 q 0.02,7.89 4.69,14.6 1.86,2.68 4.57,0.86 4.77,-3.2 7.75,-7.98 a 0.55,0.54 33.7 0 0 -0.15,-0.74 c -5.55,-3.88 -6.54,-10.24 -6.73,-17.06 q -0.34,-12.57 -0.04,-25.19 a 1.5,1.43 67.2 0 1 0.34,-0.89 c 1.51,-1.79 4.74,-5.48 4.42,-6.03 a 0.6,0.59 -25 0 0 -0.73,-0.26 l -2.37,0.9 a 0.5,0.5 0 0 1 -0.67,-0.54 q 0.47,-3.28 -0.73,-6.71 2.82,-3.88 7.1,-6.42 0.45,-0.27 0.72,-0.71 1.96,-3.23 5.4,-4.64 a 0.72,0.71 76.2 0 0 0.43,-0.73 c -0.72,-6.95 8.73,-8.91 8.73,-15.59 q -0.01,-4.26 -2.41,-7.89 4.07,-2.93 7.14,-6.9 1.25,-1.61 -0.19,-3.06 l -0.88,-0.87 a 0.71,0.71 0 0 1 -0.07,-0.92 l 13.12,-18 q 0.52,-0.71 0.58,0.17 0.19,2.63 -0.04,5.36 -1.2,14.32 -0.84,28.68 c 0.11,4.2 0.73,8.69 5.28,10.32 q 2.88,1.04 4.66,-1.15 a 0.5,0.49 -52.3 0 1 0.68,-0.09 c 7.25,5.29 16.4,-4.2 19.79,-9.61 q 0.16,-0.24 0.06,-0.45 A 0.38,0.38 0 0 0 290,95.1 q -4,2.3 -8.63,1.87 a 0.55,0.54 -82.5 0 1 -0.48,-0.63 l 1.09,-6.55 a 0.7,0.69 3.1 0 1 0.65,-0.58 l 21.71,-1.34 a 1.01,1 83.8 0 1 1.06,0.86 c 1.01,7 4.92,18.59 12.39,21.17 q 2.18,0.75 4.03,-0.62 5.47,-4.05 9.17,-9.77 0.66,-1.03 -0.46,-0.54 c -5.22,2.25 -7.4,-0.89 -10.02,-5.07 q -2.72,-4.33 -4.01,-9.45 a 0.82,0.81 -27.8 0 1 0.26,-0.81 c 1.03,-0.89 6.51,-5.82 6.27,-6.96 a 0.53,0.53 0 0 0 -0.59,-0.41 l -6.36,0.88 a 0.92,0.91 -4.2 0 1 -1.04,-0.89 Q 314.82,60.28 315.1,44 q 0.07,-3.88 -0.31,-7.51 A 0.65,0.65 0 0 0 313.82,36 c -4.47,2.58 -9.99,6.45 -8.78,12.58 a 1.09,1.07 -30.8 0 1 -0.23,0.88 q -4.19,5.09 -8.55,10.04 -14.07,15.97 -23.1,35.26 a 0.46,0.46 0 0 1 -0.66,0.19 c -3.53,-2.22 -2.6,-18.13 -2.38,-22.14 q 0.89,-17.14 1.7,-34.07 0.08,-1.5 -1.23,-0.75 -5.03,2.89 -8.25,7.59 c -2.18,3.18 -0.12,6.59 -2.41,10.11 q -7.42,11.39 -14.87,21.73 a 0.9,0.9 0 0 1 -1.54,-0.14 C 238.81,67.4 234.84,56.7 229.31,47.55 a 0.49,0.49 0 0 0 -0.66,-0.18 q -5.49,2.96 -8.7,8.26 a 1.8,1.79 59.8 0 0 -0.26,1 q 0.65,17.15 0.07,34.38 -2.68,-0.07 -4.73,-1.81 a 1.54,1.53 13.2 0 1 -0.5,-0.8 q -1.95,-7.3 -9.45,-7.5 -0.38,-21.26 0.75,-43.9 0.14,-2.8 -2.23,-1.31 -8.26,5.16 -10.49,14.62 a 0.53,0.52 -83.4 0 0 0.51,0.65 h 1.21 a 0.38,0.38 0 0 1 0.38,0.43 q -0.05,0.42 -0.31,0.8 -9.54,14.07 -18.43,28.63 -0.26,0.44 -0.3,-0.07 -0.39,-5.59 -0.12,-11.19 0.88,-18.14 1,-36.65 a 0.9,0.9 0 0 0 -1.24,-0.84 c -4.52,1.84 -9.14,6.56 -9.09,11.92 0.16,15.96 -1.43,33.21 -0.33,50.27 a 1.62,1.56 -32.1 0 1 -0.23,0.92 l -4.87,8.02 a 0.47,0.46 -66.2 0 0 0.26,0.68 c 1.97,0.6 4.32,-2.41 5.76,-3.63 q 0.37,-0.31 0.45,0.17 c 0.97,5.98 9.87,-4.78 10.9,-6.71 a 1.2,1.2 0 0 0 0.07,-1.01 l -1.39,-3.64 a 1.88,1.87 -39.8 0 1 0.15,-1.63 l 16.8,-27.35 q 0.77,-1.25 0.75,0.21 -0.22,19.5 0.2,39.21 0.04,1.72 0.97,6 z M 351.38,57.94 c -8.21,6.87 -16.11,10.96 -23.69,17.22 -7.96,6.57 2.59,18.08 10.56,11.82 q 8.01,-6.29 17.56,-9.76 a 1.53,1.52 7.8 0 0 0.7,-0.53 q 1.19,-1.66 3.03,-2.43 a 0.64,0.63 -25.6 0 1 0.78,0.27 c 3.49,6.1 8.26,17 13.13,20.37 4.59,3.18 10.65,1.41 14.14,-3.48 5.34,-7.47 14.14,-12.94 21.58,-18.19 5.5,-3.88 3.47,-11.5 -2.66,-13.39 -4.2,-1.3 -7.12,-0.4 -10.69,2.43 q -7.37,5.84 -15.17,11.17 a 0.91,0.91 0 0 1 -1.19,-0.15 q -3.2,-3.64 -5.04,-8.15 a 1.97,1.93 -52 0 1 -0.12,-1.06 q 1.59,-9.89 -6.81,-15.19 a 1.38,1.37 4.5 0 1 -0.54,-0.63 c -2.77,-6.27 -5.02,-14.13 -13.9,-12.5 -5.14,0.94 -4.75,5.3 -5.65,9.1 q -0.11,0.47 0.02,0.93 1.54,5.82 4.17,11.21 a 0.79,0.78 -32.5 0 1 -0.21,0.94 z m -105.23,93.72 c 4.54,-7.12 8.54,-14.16 7.83,-22.98 q -0.24,-2.96 -2.94,-1.69 -13.02,6.15 -21.23,18.05 a 1.26,1.25 -48.2 0 0 0.08,1.53 c 0.85,0.96 6.38,-5.29 7.09,-6.08 q 2.47,-2.76 6,-3.8 a 0.74,0.73 -13.6 0 1 0.93,0.56 c 1.64,8.54 -4.62,18.57 -9.93,24.71 q -1.63,1.89 -2.01,3.61 -0.11,0.51 0.32,0.22 c 5.73,-3.88 27.41,-13.71 28.96,-2.79 q 1.61,11.33 0.58,22.72 a 1.22,1.22 0 0 1 -1.02,1.1 q -12.47,2.04 -18.3,-8.7 a 0.94,0.93 51.4 0 1 0.11,-1.07 l 4.58,-5.28 q 1.4,-1.6 -0.71,-1.86 c -4.96,-0.61 -13.5,8.86 -14.32,13.25 q -0.79,4.28 2.57,7.9 c 7.91,8.52 18.73,7.66 27.15,0.56 5.25,-4.44 10.06,-10.72 10.13,-17.87 q 0.08,-7.4 -0.07,-14.82 c -0.11,-5.49 -1.65,-11.24 -8.45,-10.64 q -8.68,0.76 -16.84,3.99 -1.22,0.49 -0.51,-0.62 z m 45.24,-1.36 0.11,-22.52 q 0,-1.11 -0.94,-0.52 -4.52,2.82 -7.98,6.87 a 4.27,4.24 65.8 0 0 -1,2.66 q -0.19,10.22 -0.3,20.41 c -0.08,6.67 -1.17,8.92 -4.02,14.56 q -3.42,6.74 2.75,8.74 a 1.53,1.51 11.9 0 1 1.05,1.59 q -0.72,7.27 3.62,12.98 1.21,1.6 2.89,0.5 4.53,-2.98 7.87,-7.18 a 1.86,1.86 0 0 0 -0.14,-2.48 l -2.07,-2.05 q -0.59,-0.58 0.22,-0.75 l 9.82,-2.08 a 0.59,0.58 79.9 0 1 0.7,0.49 l 0.15,0.92 q 0.09,0.63 0.57,0.2 l 2.96,-2.66 q 0.56,-0.5 0.66,0.25 c 0.35,2.59 0.15,5.67 1.05,7.92 q 2.56,6.44 10.33,8.57 10.8,2.96 18.5,-3.02 c 13.64,-10.59 21.51,-23.24 21.66,-40.89 0.14,-17.21 -22.67,-29.66 -36.55,-19.01 q -18.57,14.25 -19.42,38.57 a 0.58,0.57 4.2 0 1 -0.64,0.55 l -10.68,-1.29 A 1.76,1.76 0 0 1 291,169.89 l -0.07,-12.26 a 1.72,1.61 -31.1 0 1 0.26,-0.92 q 6.08,-9.44 15.88,-14.46 c 5,-2.57 7.68,-4.8 10.13,-9.27 a 0.56,0.56 0 0 0 -0.19,-0.74 c -3.22,-2.02 -22.16,15.38 -24.9,18.35 q -0.73,0.78 -0.72,-0.29 z"
         inkscape:connector-curvature="0"
         style="fill:#ffffff" />
      <path
         id="path38778"
         d="m 224.56,0 h 24.25 l 2.93,0.37 a 0.45,0.45 0 0 1 0.38,0.57 q -0.14,0.49 -0.83,0.83 -9.93,4.87 -15.13,6.83 a 1.44,1.39 3.1 0 0 -0.76,0.66 l -0.93,1.78 a 1.78,1.75 0.4 0 1 -0.75,0.73 c -6.85,3.47 -14.4,9.11 -21.73,10.57 Q 209.27,22.88 207.9,20.47 202.21,10.5 211.49,5.01 218.2,1.04 224.56,0 Z"
         inkscape:connector-curvature="0"
         style="fill:#eaeaea" />
      <path
         id="path38780"
         d="m 117,42.2 q 13.3,-7.15 27.23,-6.92 c 10.3,0.17 13.44,14.88 13.94,22.93 0.58,9.48 0.11,15.21 -6.21,22.05 -11.89,12.87 -24.1,21.55 -42.2,22 -17.17,0.42 -23.69,-16.63 -11.6,-28.59 7.7,-7.62 16.11,-13.38 27.57,-12.22 q 1.56,0.15 2.68,0.73 a 0.94,0.94 0 0 1 0.25,1.5 l -8.02,8.06 a 1.01,0.99 30 0 1 -0.98,0.25 c -7.17,-2.15 -23.21,-1.32 -16.7,11.63 6.35,12.64 23.48,9.02 34,4.8 5.05,-2.03 10.53,-5.41 11.08,-11.19 C 149,67.09 147.98,43.41 131.99,44.95 q -14.47,1.39 -26.75,9.11 c -0.27,0.17 -1.4,0.22 -1.62,0.09 a 0.51,0.49 34.1 0 1 -0.15,-0.72 c 7.76,-10.54 17.09,-19.88 15.32,-34.24 a 0.52,0.52 0 0 0 -0.56,-0.46 c -8.58,0.62 -16.68,4.83 -20.25,12.83 q -2.6,5.8 -8.95,9.98 a 0.66,0.66 0 0 1 -1.02,-0.47 q -0.25,-1.93 1.16,-4.19 C 96.04,25.92 113.93,7.46 128.25,9.17 a 0.66,0.65 89.4 0 1 0.57,0.56 c 1.63,12.43 -5.42,22.61 -11.98,32.3 q -0.27,0.4 0.16,0.17 z"
         inkscape:connector-curvature="0"
         style="fill:#020202" />
      <path
         id="path38782"
         d="m 205.08,80.9 q -0.34,7.94 1.13,15.61 a 0.58,0.58 0 0 0 0.79,0.43 l 1.79,-0.74 a 0.38,0.38 0 0 1 0.53,0.33 c 0.2,3.66 -7.99,10.45 -10.93,12.25 a 0.56,0.55 55.4 0 1 -0.74,-0.14 q -1.08,-1.39 -1.44,-3.14 -0.93,-4.28 -0.97,-6 -0.42,-19.71 -0.2,-39.21 0.02,-1.46 -0.75,-0.21 l -16.8,27.35 a 1.88,1.87 -39.8 0 0 -0.15,1.63 l 1.39,3.64 a 1.2,1.2 0 0 1 -0.07,1.01 c -1.03,1.93 -9.93,12.69 -10.9,6.71 q -0.08,-0.48 -0.45,-0.17 c -1.44,1.22 -3.79,4.23 -5.76,3.63 a 0.47,0.46 -66.2 0 1 -0.26,-0.68 l 4.87,-8.02 a 1.62,1.56 -32.1 0 0 0.23,-0.92 c -1.1,-17.06 0.49,-34.31 0.33,-50.27 -0.05,-5.36 4.57,-10.08 9.09,-11.92 a 0.9,0.9 0 0 1 1.24,0.84 q -0.12,18.51 -1,36.65 -0.27,5.6 0.12,11.19 0.04,0.51 0.3,0.07 8.89,-14.56 18.43,-28.63 0.26,-0.38 0.31,-0.8 a 0.38,0.38 0 0 0 -0.38,-0.43 h -1.21 a 0.53,0.52 -83.4 0 1 -0.51,-0.65 q 2.23,-9.46 10.49,-14.62 2.37,-1.49 2.23,1.31 -1.13,22.64 -0.75,43.9 z"
         inkscape:connector-curvature="0"
         style="fill:#020202" />
      <path
         id="path38784"
         d="m 351.59,57 q -2.63,-5.39 -4.17,-11.21 -0.13,-0.46 -0.02,-0.93 c 0.9,-3.8 0.51,-8.16 5.65,-9.1 8.88,-1.63 11.13,6.23 13.9,12.5 a 1.38,1.37 4.5 0 0 0.54,0.63 q 8.4,5.3 6.81,15.19 a 1.97,1.93 -52 0 0 0.12,1.06 q 1.84,4.51 5.04,8.15 a 0.91,0.91 0 0 0 1.19,0.15 q 7.8,-5.33 15.17,-11.17 c 3.57,-2.83 6.49,-3.73 10.69,-2.43 6.13,1.89 8.16,9.51 2.66,13.39 -7.44,5.25 -16.24,10.72 -21.58,18.19 -3.49,4.89 -9.55,6.66 -14.14,3.48 -4.87,-3.37 -9.64,-14.27 -13.13,-20.37 a 0.64,0.63 -25.6 0 0 -0.78,-0.27 q -1.84,0.77 -3.03,2.43 a 1.53,1.52 7.8 0 1 -0.7,0.53 q -9.55,3.47 -17.56,9.76 c -7.97,6.26 -18.52,-5.25 -10.56,-11.82 7.58,-6.26 15.48,-10.35 23.69,-17.22 A 0.79,0.78 -32.5 0 0 351.59,57 Z"
         inkscape:connector-curvature="0"
         style="fill:#eaeaea" />
      <path
         id="path38786"
         d="m 241.25,91.79 -3.12,0.27 a 1.76,1.75 -66.4 0 0 -0.98,0.39 l -5.8,4.7 a 1.05,1.04 67.7 0 0 -0.37,0.9 c 0.49,4.62 -5.97,9.62 -9.8,11.77 a 0.77,0.77 0 0 1 -1.14,-0.66 l -0.28,-18.15 q 0.58,-17.23 -0.07,-34.38 a 1.8,1.79 59.8 0 1 0.26,-1 q 3.21,-5.3 8.7,-8.26 a 0.49,0.49 0 0 1 0.66,0.18 c 5.53,9.15 9.5,19.85 14.21,29.73 a 0.9,0.9 0 0 0 1.54,0.14 q 7.45,-10.34 14.87,-21.73 c 2.29,-3.52 0.23,-6.93 2.41,-10.11 q 3.22,-4.7 8.25,-7.59 1.31,-0.75 1.23,0.75 -0.81,16.93 -1.7,34.07 c -0.22,4.01 -1.15,19.92 2.38,22.14 a 0.46,0.46 0 0 0 0.66,-0.19 q 9.03,-19.29 23.1,-35.26 4.36,-4.95 8.55,-10.04 a 1.09,1.07 -30.8 0 0 0.23,-0.88 c -1.21,-6.13 4.31,-10 8.78,-12.58 a 0.65,0.65 0 0 1 0.97,0.49 q 0.38,3.63 0.31,7.51 -0.28,16.28 -0.06,32.26 a 0.92,0.91 -4.2 0 0 1.04,0.89 l 6.36,-0.88 a 0.53,0.53 0 0 1 0.59,0.41 c 0.24,1.14 -5.24,6.07 -6.27,6.96 a 0.82,0.81 -27.8 0 0 -0.26,0.81 q 1.29,5.12 4.01,9.45 c 2.62,4.18 4.8,7.32 10.02,5.07 q 1.12,-0.49 0.46,0.54 -3.7,5.72 -9.17,9.77 -1.85,1.37 -4.03,0.62 C 310.32,107.32 306.41,95.73 305.4,88.73 a 1.01,1 83.8 0 0 -1.06,-0.86 l -21.71,1.34 a 0.7,0.69 3.1 0 0 -0.65,0.58 l -1.09,6.55 a 0.55,0.54 -82.5 0 0 0.48,0.63 Q 286,97.4 290,95.1 a 0.38,0.38 0 0 1 0.54,0.17 q 0.1,0.21 -0.06,0.45 c -3.39,5.41 -12.54,14.9 -19.79,9.61 a 0.5,0.49 -52.3 0 0 -0.68,0.09 q -1.78,2.19 -4.66,1.15 c -4.55,-1.63 -5.17,-6.12 -5.28,-10.32 q -0.36,-14.36 0.84,-28.68 0.23,-2.73 0.04,-5.36 -0.06,-0.88 -0.58,-0.17 l -13.12,18 a 0.71,0.71 0 0 0 0.07,0.92 l 0.88,0.87 q 1.44,1.45 0.19,3.06 -3.07,3.97 -7.14,6.9 z m 63.2,-36.77 c -6.45,5.1 -13.33,16.2 -17.24,23.46 a 0.36,0.36 0 0 0 0.31,0.53 l 16.09,-0.03 a 1.4,1.39 90 0 0 1.39,-1.4 l -0.01,-22.29 q 0,-0.7 -0.54,-0.27 z m -73.93,40.45 4.37,-6.18 a 0.66,0.65 43.8 0 0 -0.02,-0.79 q -2.79,-3.51 -4.21,-7.77 a 0.23,0.22 87.1 0 0 -0.15,-0.14 l -0.28,-0.1 A 0.18,0.18 0 0 0 230,80.66 V 95.3 q 0,0.9 0.52,0.17 z"
         inkscape:connector-curvature="0"
         style="fill:#020202" />
      <path
         id="path38788"
         d="M 287.21,78.48 C 291.12,71.22 298,60.12 304.45,55.02 q 0.54,-0.43 0.54,0.27 L 305,77.58 a 1.4,1.39 -90 0 1 -1.39,1.4 l -16.09,0.03 a 0.36,0.36 0 0 1 -0.31,-0.53 z"
         inkscape:connector-curvature="0"
         style="fill:#ffffff" />
      <path
         id="path38790"
         d="m 219.76,91.01 0.28,18.15 a 0.77,0.77 0 0 0 1.14,0.66 c 3.83,-2.15 10.29,-7.15 9.8,-11.77 a 1.05,1.04 67.7 0 1 0.37,-0.9 l 5.8,-4.7 a 1.76,1.75 -66.4 0 1 0.98,-0.39 l 3.12,-0.27 q 2.4,3.63 2.41,7.89 c 0,6.68 -9.45,8.64 -8.73,15.59 A 0.72,0.71 76.2 0 1 234.5,116 q -3.44,1.41 -5.4,4.64 -0.27,0.44 -0.72,0.71 -4.28,2.54 -7.1,6.42 -4.93,2.51 -8.49,6.98 l -6.58,-1.13 a 1.78,1.76 -18.7 0 1 -0.86,-0.42 q -4.45,-4.11 -3.06,-9.92 0.15,-0.6 -0.43,-0.37 -8,3.22 -13.39,9.85 a 1.42,1.4 -75.8 0 1 -0.81,0.49 q -4.2,0.8 -6.87,3.97 c -2.14,2.55 -3.82,3.22 -6.75,1.78 q 0.13,-1 -0.31,-1.77 a 0.56,0.56 0 0 0 -0.75,-0.22 l -2.23,1.2 q 0.39,-1.33 -0.5,-2.25 4.52,-3.63 7.57,-8.64 a 0.9,0.9 0 0 0 -0.58,-1.35 l -4.74,-1.01 q 0.59,-0.6 0.42,-1.44 a 0.71,0.7 68 0 1 0.31,-0.74 c 4.76,-3 8.24,-7.76 13.25,-10.52 q 3.86,-2.13 7.77,-4.2 0.43,-0.24 0.7,-0.65 l 1.26,-1.91 q 0.36,1.75 1.44,3.14 a 0.56,0.55 55.4 0 0 0.74,0.14 c 2.94,-1.8 11.13,-8.59 10.93,-12.25 A 0.38,0.38 0 0 0 208.79,96.2 L 207,96.94 a 0.58,0.58 0 0 1 -0.79,-0.43 q -1.47,-7.67 -1.13,-15.61 7.5,0.2 9.45,7.5 a 1.54,1.53 13.2 0 0 0.5,0.8 q 2.05,1.74 4.73,1.81 z"
         inkscape:connector-curvature="0"
         style="fill:#eaeaea" />
      <path
         id="path38792"
         d="M 230.52,95.47 Q 230,96.2 230,95.3 V 80.66 a 0.18,0.18 0 0 1 0.23,-0.17 l 0.28,0.1 a 0.23,0.22 87.1 0 1 0.15,0.14 q 1.42,4.26 4.21,7.77 a 0.66,0.65 43.8 0 1 0.02,0.79 z"
         inkscape:connector-curvature="0"
         style="fill:#eaeaea" />
      <path
         id="path38794"
         d="m 212.79,134.75 q -1.22,2.74 -0.71,5.82 0.33,2.03 -1.37,3.19 c -6.71,4.6 -12.5,12.03 -16.87,18.88 q -2.14,3.34 -2.69,-0.59 -1.69,-12.03 -1.07,-24.18 0.16,-3.1 -2.24,-1.13 l -6.02,4.93 q -1.86,1.52 -1.97,3.93 c -0.52,11.34 0.75,21.06 2.54,32.45 0.67,4.23 -0.43,7.03 -2.71,10.33 q -0.29,0.42 -0.45,-0.06 c -5.71,-16.83 -5.33,-29.5 -5.19,-49.32 2.93,1.44 4.61,0.77 6.75,-1.78 q 2.67,-3.17 6.87,-3.97 a 1.42,1.4 -75.8 0 0 0.81,-0.49 q 5.39,-6.63 13.39,-9.85 0.58,-0.23 0.43,0.37 -1.39,5.81 3.06,9.92 a 1.78,1.76 -18.7 0 0 0.86,0.42 z"
         inkscape:connector-curvature="0"
         style="fill:#ffffff" />
      <path
         id="path38796"
         d="m 172.5,124.96 4.74,1.01 a 0.9,0.9 0 0 1 0.58,1.35 q -3.05,5.01 -7.57,8.64 c -6.84,4.32 -9.99,12.21 -13.35,19.2 q -6.56,13.63 -5.9,28.76 a 0.93,0.92 15.2 0 0 0.43,0.74 l 0.94,0.59 a 0.64,0.63 -57 0 1 0.19,0.91 q -3.41,4.95 -8.44,8.31 -3.04,2.02 -3.07,-1.63 l -0.08,-9.76 q -0.01,-0.61 -0.44,-0.18 c -6.38,6.35 -13.49,11.9 -22.78,13.61 -4.28,0.78 -12.01,1.69 -16.67,0.65 -14.18,-3.17 -18.19,-15.88 -17.23,-29.01 0.56,-7.65 3.78,-12.76 10.48,-16.09 q 0.6,-0.3 0.5,0.37 c -1.62,10.04 -2.55,22.96 6.31,30.08 q 0.6,0.49 0.49,-0.28 -0.96,-6.84 -0.57,-13.74 a 0.85,0.85 0 0 0 -1,-0.88 l -2.49,0.47 q -1.19,0.22 -0.31,-0.61 3.14,-2.99 2.49,-7.72 -0.35,-2.59 -1.6,-14.93 c -0.8,-7.8 3.01,-10.94 9.1,-14.73 a 0.28,0.28 0 0 1 0.42,0.21 l 2.54,25.5 a 0.34,0.34 0 0 0 0.49,0.27 c 8.14,-4.04 23.42,-9.46 32.33,-6.5 a 1.55,1.53 -8.1 0 1 0.77,0.57 q 3.53,4.95 3.19,11.06 c -0.02,0.31 0.07,0.62 0.34,0.73 a 0.39,0.39 0 0 0 0.51,-0.21 q 6.31,-15.3 18.53,-26.41 0.48,-0.44 -0.17,-0.43 c -17.45,0.24 -34.95,-0.37 -52.43,1.16 q -0.8,0.07 -0.44,-0.65 c 5.08,-10.13 12.5,-9.73 24.08,-10.07 q 17.54,-0.5 35.09,-0.36 z m -39.6,34.01 q -11.26,-0.79 -21.67,3.52 a 0.49,0.48 -14.1 0 0 -0.3,0.49 l 1.88,24.45 a 0.58,0.58 0 0 0 0.59,0.54 q 8.44,-0.14 16.7,-2.09 c 8.2,-1.95 7.85,-7.9 7.29,-15.2 q -0.42,-5.45 -2.65,-10.42 a 2.18,2.17 -9.9 0 0 -1.84,-1.29 z"
         inkscape:connector-curvature="0"
         style="fill:#020202" />
      <path
         id="path38798"
         d="m 246.15,151.66 q -0.71,1.11 0.51,0.62 8.16,-3.23 16.84,-3.99 c 6.8,-0.6 8.34,5.15 8.45,10.64 q 0.15,7.42 0.07,14.82 c -0.07,7.15 -4.88,13.43 -10.13,17.87 -8.42,7.1 -19.24,7.96 -27.15,-0.56 q -3.36,-3.62 -2.57,-7.9 c 0.82,-4.39 9.36,-13.86 14.32,-13.25 q 2.11,0.26 0.71,1.86 l -4.58,5.28 a 0.94,0.93 51.4 0 0 -0.11,1.07 q 5.83,10.74 18.3,8.7 a 1.22,1.22 0 0 0 1.02,-1.1 q 1.03,-11.39 -0.58,-22.72 c -1.55,-10.92 -23.23,-1.09 -28.96,2.79 q -0.43,0.29 -0.32,-0.22 0.38,-1.72 2.01,-3.61 c 5.31,-6.14 11.57,-16.17 9.93,-24.71 a 0.74,0.73 -13.6 0 0 -0.93,-0.56 q -3.53,1.04 -6,3.8 c -0.71,0.79 -6.24,7.04 -7.09,6.08 a 1.26,1.25 -48.2 0 1 -0.08,-1.53 q 8.21,-11.9 21.23,-18.05 2.7,-1.27 2.94,1.69 c 0.71,8.82 -3.29,15.86 -7.83,22.98 z"
         inkscape:connector-curvature="0"
         style="fill:#020202" />
      <path
         id="path38800"
         d="m 291.39,150.3 q -0.01,1.07 0.72,0.29 c 2.74,-2.97 21.68,-20.37 24.9,-18.35 a 0.56,0.56 0 0 1 0.19,0.74 c -2.45,4.47 -5.13,6.7 -10.13,9.27 q -9.8,5.02 -15.88,14.46 a 1.72,1.61 -31.1 0 0 -0.26,0.92 l 0.07,12.26 a 1.76,1.76 0 0 0 1.56,1.74 l 10.68,1.29 a 0.58,0.57 4.2 0 0 0.64,-0.55 q 0.85,-24.32 19.42,-38.57 c 13.88,-10.65 36.69,1.8 36.55,19.01 -0.15,17.65 -8.02,30.3 -21.66,40.89 q -7.7,5.98 -18.5,3.02 -7.77,-2.13 -10.33,-8.57 c -0.9,-2.25 -0.7,-5.33 -1.05,-7.92 q -0.1,-0.75 -0.66,-0.25 l -2.96,2.66 q -0.48,0.43 -0.57,-0.2 l -0.15,-0.92 a 0.59,0.58 79.9 0 0 -0.7,-0.49 l -9.82,2.08 q -0.81,0.17 -0.22,0.75 l 2.07,2.05 a 1.86,1.86 0 0 1 0.14,2.48 q -3.34,4.2 -7.87,7.18 -1.68,1.1 -2.89,-0.5 -4.34,-5.71 -3.62,-12.98 a 1.53,1.51 11.9 0 0 -1.05,-1.59 q -6.17,-2 -2.75,-8.74 c 2.85,-5.64 3.94,-7.89 4.02,-14.56 q 0.11,-10.19 0.3,-20.41 a 4.27,4.24 65.8 0 1 1,-2.66 q 3.46,-4.05 7.98,-6.87 0.94,-0.59 0.94,0.52 z m 28.09,-7.84 q -4.14,6.94 -4.95,15.09 -0.08,0.86 0.46,0.19 3.4,-4.13 8.08,-6.7 2.16,-1.19 2.72,1.21 c 1.52,6.64 -1.54,10.35 -5.05,15.39 q -1.58,2.27 -1.9,4.45 c -1.62,11.02 6.83,15.19 16.2,15.96 13.36,1.09 15.5,-21.21 14.39,-30.09 -1.35,-10.65 -12.88,-17.58 -22.74,-18.07 -3.33,-0.17 -5.49,-0.32 -7.21,2.57 z"
         inkscape:connector-curvature="0"
         style="fill:#020202" />
      <path
         id="path38802"
         d="m 221.28,127.77 q 1.2,3.43 0.73,6.71 a 0.5,0.5 0 0 0 0.67,0.54 l 2.37,-0.9 a 0.6,0.59 -25 0 1 0.73,0.26 c 0.32,0.55 -2.91,4.24 -4.42,6.03 a 1.5,1.43 67.2 0 0 -0.34,0.89 q -0.3,12.62 0.04,25.19 c 0.19,6.82 1.18,13.18 6.73,17.06 a 0.55,0.54 33.7 0 1 0.15,0.74 q -2.98,4.78 -7.75,7.98 -2.71,1.82 -4.57,-0.86 -4.67,-6.71 -4.69,-14.6 c -0.01,-3.35 0.69,-27.98 -0.23,-29 a 0.5,0.5 0 0 0 -0.69,-0.05 c -6.1,5.12 -12.66,16.21 -16.64,24.55 a 1.84,1.8 55.2 0 0 -0.16,0.95 c 0.38,3.63 1.26,12.15 3.27,14.19 a 0.65,0.65 0 0 1 0.06,0.83 q -3.81,5.27 -9.27,8.78 a 0.89,0.88 67.3 0 1 -1.34,-0.55 l -1.03,-4.57 q -0.52,-2.28 -2.25,-0.71 l -10.7,9.71 a 1.02,1.01 58.9 0 1 -1.63,-0.41 c -6.13,-16.85 -7.16,-32.04 -6.24,-51.71 0.23,-4.82 2.9,-8.09 6.67,-10.61 l 2.23,-1.2 a 0.56,0.56 0 0 1 0.75,0.22 q 0.44,0.77 0.31,1.77 c -0.14,19.82 -0.52,32.49 5.19,49.32 q 0.16,0.48 0.45,0.06 c 2.28,-3.3 3.38,-6.1 2.71,-10.33 -1.79,-11.39 -3.06,-21.11 -2.54,-32.45 q 0.11,-2.41 1.97,-3.93 l 6.02,-4.93 q 2.4,-1.97 2.24,1.13 -0.62,12.15 1.07,24.18 0.55,3.93 2.69,0.59 c 4.37,-6.85 10.16,-14.28 16.87,-18.88 q 1.7,-1.16 1.37,-3.19 -0.51,-3.08 0.71,-5.82 3.56,-4.47 8.49,-6.98 z"
         inkscape:connector-curvature="0"
         style="fill:#020202" />
      <path
         id="path38804"
         d="m 319.48,142.46 c 1.72,-2.89 3.88,-2.74 7.21,-2.57 9.86,0.49 21.39,7.42 22.74,18.07 1.11,8.88 -1.03,31.18 -14.39,30.09 -9.37,-0.77 -17.82,-4.94 -16.2,-15.96 q 0.32,-2.18 1.9,-4.45 c 3.51,-5.04 6.57,-8.75 5.05,-15.39 q -0.56,-2.4 -2.72,-1.21 -4.68,2.57 -8.08,6.7 -0.54,0.67 -0.46,-0.19 0.81,-8.15 4.95,-15.09 z"
         inkscape:connector-curvature="0"
         style="fill:#ffffff" />
      <path
         id="path38806"
         d="m 132.9,158.97 a 2.18,2.17 -9.9 0 1 1.84,1.29 q 2.23,4.97 2.65,10.42 c 0.56,7.3 0.91,13.25 -7.29,15.2 q -8.26,1.95 -16.7,2.09 a 0.58,0.58 0 0 1 -0.59,-0.54 l -1.88,-24.45 a 0.49,0.48 -14.1 0 1 0.3,-0.49 q 10.41,-4.31 21.67,-3.52 z"
         inkscape:connector-curvature="0"
         style="fill:#ffffff" />
      <path
         id="path38808"
         d="m 359.69,213 h -1.75 l -8.81,-0.19 q -2.05,-0.05 -1.33,-1.96 c 1.71,-4.6 13.69,-3.83 15.54,0.77 a 0.45,0.45 0 0 1 -0.32,0.6 z"
         inkscape:connector-curvature="0"
         style="fill:#eaeaea" />
    </g>
  </g>
</svg>
