<?xml version="1.0" encoding="UTF-8" standalone="no"?>
<!DOCTYPE svg PUBLIC "-//W3C//DTD SVG 1.1//EN" "http://www.w3.org/Graphics/SVG/1.1/DTD/svg11.dtd">
<svg xmlns="http://www.w3.org/2000/svg" version="1.1" viewBox="0 0 450 286">
<g stroke-width="2.00" fill="none" stroke-linecap="butt">
<path stroke="#ededed" vector-effect="non-scaling-stroke" d="
  M 105.31 0.00
  L 103.75 0.42
  A 1.54 1.50 10.0 0 0 102.97 0.95
  C 100.41 4.31 95.40 10.21 95.50 14.46"
/>
<path stroke="#858585" vector-effect="non-scaling-stroke" d="
  M 95.50 14.46
  Q 71.32 21.91 67.02 23.53
  Q 60.40 26.02 56.67 32.46
  Q 55.41 34.62 55.28 37.68
  Q 53.72 72.59 57.79 107.25"
/>
<path stroke="#ededed" vector-effect="non-scaling-stroke" d="
  M 57.79 107.25
  L 57.75 108.26
  A 1.23 1.22 69.2 0 1 57.38 109.09
  Q 55.93 110.54 56.06 112.60
  Q 56.09 113.08 55.90 113.53
  Q 54.58 116.66 53.81 119.96
  C 52.85 124.05 50.46 127.11 49.54 131.22
  Q 49.10 133.22 48.24 135.10
  Q 48.02 135.57 47.99 135.05
  Q 47.66 128.98 50.20 123.44
  Q 50.57 122.63 50.07 120.24
  A 1.57 1.53 51.8 0 1 50.17 119.30
  C 50.61 118.30 51.91 114.05 50.92 113.69
  A 0.44 0.44 0.0 0 0 50.33 114.05
  C 49.97 117.82 48.87 125.71 46.48 128.67
  Q 45.84 129.47 45.99 128.46
  Q 46.30 126.38 45.96 124.26
  Q 45.73 122.81 45.49 124.26
  C 43.63 135.64 40.08 147.53 38.69 158.21
  C 37.12 170.29 37.57 183.14 38.58 195.27
  C 38.74 197.18 39.87 199.64 39.94 201.06
  C 40.24 207.51 40.33 213.84 41.39 220.16
  Q 43.46 232.47 45.98 244.73"
/>
<path stroke="#858585" vector-effect="non-scaling-stroke" d="
  M 45.98 244.73
  Q 40.29 248.59 37.28 254.74
  Q 37.06 255.19 37.56 255.13
  Q 41.78 254.55 45.75 252.96"
/>
<path stroke="#ededed" vector-effect="non-scaling-stroke" d="
  M 45.75 252.96
  Q 46.09 258.94 44.83 264.78
  Q 44.20 267.73 44.40 270.29
  Q 44.99 277.60 45.01 284.97
  A 0.56 0.55 2.9 0 0 45.51 285.52
  L 51.44 286.00"
/>
<path stroke="#cfcfcf" vector-effect="non-scaling-stroke" d="
  M 138.06 0.00
  Q 136.15 6.39 136.09 12.97
  C 136.02 21.25 131.05 25.12 128.71 32.25
  Q 126.28 39.71 122.75 46.71"
/>
<path stroke="#737373" vector-effect="non-scaling-stroke" d="
  M 122.75 46.71
  C 113.67 47.75 106.76 52.38 99.01 56.72
  Q 92.39 60.42 89.67 67.24
  C 89.02 68.87 83.25 75.78 85.27 76.99
  A 0.87 0.87 0.0 0 0 86.26 76.92
  L 88.84 74.78
  Q 89.31 74.39 89.35 74.99
  Q 89.60 78.04 89.30 83.81
  Q 87.90 110.86 88.65 144.72
  A 0.67 0.67 0.0 0 0 89.18 145.36
  L 99.79 147.65
  A 1.40 1.40 0.0 0 0 101.48 146.29
  L 101.51 127.00
  A 0.65 0.65 0.0 0 1 102.09 126.35
  C 108.74 125.67 113.73 126.96 120.41 123.59"
/>
<path stroke="#cfcfcf" vector-effect="non-scaling-stroke" d="
  M 120.41 123.59
  Q 121.89 127.99 119.65 132.56
  Q 119.21 133.45 119.99 132.83
  Q 120.77 132.20 120.93 131.21
  Q 121.02 130.67 121.37 130.24
  Q 125.16 125.60 126.38 119.77"
/>
<path stroke="#737373" vector-effect="non-scaling-stroke" d="
  M 126.38 119.77
  Q 133.33 113.41 138.29 106.14
  Q 139.12 104.92 139.28 103.46
  Q 141.54 81.65 137.93 60.11
  A 0.71 0.70 -22.8 0 1 138.22 59.41
  L 145.89 53.96
  Q 146.29 53.67 146.33 54.17
  C 146.55 57.18 146.73 60.34 146.11 63.41
  Q 141.20 87.63 141.13 112.47
  Q 141.12 114.19 140.31 115.71
  L 128.92 137.15
  A 0.33 0.33 0.0 0 0 129.13 137.62
  C 133.00 138.56 142.42 125.80 144.26 123.17
  C 145.13 121.92 146.81 121.98 148.00 120.91
  Q 152.97 116.38 157.91 111.07
  A 0.94 0.93 32.4 0 0 157.57 109.56
  C 153.49 107.94 153.97 104.27 155.88 100.94
  Q 164.87 85.29 174.83 69.99
  Q 176.45 67.51 176.24 70.46
  Q 174.41 96.94 175.09 124.85
  C 175.16 127.71 175.83 129.55 177.38 131.76
  A 1.27 1.27 0.0 0 0 179.27 131.97
  L 186.71 125.25"
/>
<path stroke="#ededed" vector-effect="non-scaling-stroke" d="
  M 186.71 125.25
  C 188.38 128.20 186.68 139.16 186.40 142.98
  C 186.00 148.43 189.42 152.27 188.92 157.26
  C 188.20 164.57 188.59 171.62 179.31 173.25
  A 0.50 0.49 71.4 0 0 178.96 173.97
  L 181.15 178.11
  Q 181.68 179.10 182.17 178.09
  L 182.91 176.56
  Q 183.22 175.92 183.46 176.59
  Q 183.98 178.02 182.65 179.12
  A 1.06 1.06 0.0 0 0 182.26 179.92
  C 182.19 182.67 183.53 187.62 182.62 189.88
  A 0.74 0.74 0.0 0 0 182.80 190.71
  Q 183.18 191.06 183.75 191.04"
/>
<path stroke="#737373" vector-effect="non-scaling-stroke" d="
  M 183.75 191.04
  C 175.13 199.54 168.55 207.61 165.21 217.72
  Q 164.86 218.77 164.76 217.67
  Q 164.04 209.72 162.00 202.01
  A 0.63 0.62 72.2 0 1 162.38 201.27
  C 168.95 198.78 176.61 194.08 179.17 187.13
  Q 179.50 186.25 178.60 186.52
  L 161.38 191.72
  A 0.90 0.89 77.7 0 1 160.23 190.98
  L 156.85 165.10
  A 1.42 1.41 -28.6 0 1 157.19 163.97
  L 161.19 159.36
  A 0.80 0.80 0.0 0 0 160.78 158.06
  C 158.91 157.61 153.97 161.54 152.48 162.74
  Q 136.77 175.46 125.04 192.05"
/>
<path stroke="#ededed" vector-effect="non-scaling-stroke" d="
  M 125.04 192.05
  Q 125.06 188.44 123.72 181.50
  Q 122.74 176.42 122.89 166.19
  Q 122.97 160.69 119.75 156.92
  Q 119.23 156.32 119.06 157.09
  Q 118.07 161.44 118.59 165.92
  A 0.59 0.58 6.4 0 0 118.99 166.41
  L 119.23 166.49
  A 0.73 0.73 0.0 0 1 119.71 167.29
  Q 117.88 178.57 118.31 190.01
  C 118.34 190.81 117.97 191.26 117.62 191.92
  A 0.76 0.76 0.0 0 0 117.77 192.84
  Q 119.28 194.27 119.72 196.38
  A 1.05 1.05 0.0 0 0 120.37 197.16
  Q 120.92 197.37 121.46 197.25"
/>
<path stroke="#737373" vector-effect="non-scaling-stroke" d="
  M 121.46 197.25
  L 115.04 208.00"
/>
<path stroke="#ededed" vector-effect="non-scaling-stroke" d="
  M 115.04 208.00
  Q 113.88 207.24 112.56 207.20
  A 0.67 0.66 -5.8 0 1 111.94 206.70
  C 111.11 203.31 114.19 201.62 112.05 197.15
  A 0.39 0.39 0.0 0 0 111.45 197.02
  C 111.25 197.19 111.06 197.51 111.07 197.79
  C 111.25 202.38 109.57 207.01 109.16 210.77
  Q 108.69 215.01 108.13 219.23
  A 0.80 0.80 0.0 0 0 108.48 220.01
  Q 109.03 220.39 109.71 220.50"
/>
<path stroke="#737373" vector-effect="non-scaling-stroke" d="
  M 109.71 220.50
  C 109.19 222.90 108.93 229.20 105.09 227.88
  A 1.69 1.68 -79.8 0 1 103.95 226.23
  C 104.45 210.83 104.48 195.28 108.04 180.25"
/>
<path stroke="#ededed" vector-effect="non-scaling-stroke" d="
  M 108.04 180.25
  C 108.69 181.24 110.97 185.35 112.20 185.16
  A 0.66 0.65 -3.8 0 0 112.75 184.54
  Q 113.14 175.17 112.99 165.81
  C 112.98 164.81 112.51 164.32 111.50 164.46"
/>
<path stroke="#737373" vector-effect="non-scaling-stroke" d="
  M 111.50 164.46
  L 111.96 158.72
  Q 112.14 156.34 109.80 155.90
  C 100.13 154.06 86.20 157.58 76.72 160.12
  C 65.60 163.11 59.95 171.14 53.90 180.10
  C 51.24 184.03 51.04 186.67 51.04 191.25
  C 51.02 210.04 51.15 224.16 53.70 240.01
  A 0.72 0.71 71.3 0 1 53.34 240.75
  L 45.98 244.73"
/>
<path stroke="#737373" vector-effect="non-scaling-stroke" d="
  M 57.79 107.25
  Q 60.06 121.63 63.54 135.82
  A 1.02 1.01 64.5 0 0 65.14 136.39
  Q 71.08 131.84 75.72 125.98
  Q 76.79 124.63 76.35 122.98
  Q 70.50 100.97 69.10 78.32"
/>
<path stroke="#ededed" vector-effect="non-scaling-stroke" d="
  M 69.10 78.32
  Q 74.34 71.13 73.23 62.21
  A 1.40 1.38 58.2 0 1 73.44 61.29
  Q 77.36 55.10 80.96 48.72
  Q 83.28 44.61 80.05 41.86
  A 0.83 0.82 -62.7 0 1 79.79 41.04
  L 83.09 27.81"
/>
<path stroke="#737373" vector-effect="non-scaling-stroke" d="
  M 83.09 27.81
  C 86.10 26.85 100.19 22.55 102.43 24.23
  Q 104.32 25.65 106.18 24.19
  Q 112.65 19.13 117.99 12.76
  Q 119.59 10.87 117.11 10.90
  Q 106.00 11.05 95.50 14.46"
/>
<path stroke="#ededed" vector-effect="non-scaling-stroke" d="
  M 41.50 200.04
  Q 40.72 205.00 41.86 209.86
  Q 42.07 210.76 42.52 209.96
  Q 45.42 204.73 42.03 199.92
  Q 41.62 199.32 41.50 200.04"
/>
<path stroke="#cfcfcf" vector-effect="non-scaling-stroke" d="
  M 206.56 0.00
  Q 206.75 0.25 207.04 0.31
  A 0.31 0.31 0.0 0 1 207.26 0.75
  Q 206.89 1.48 206.46 1.71
  Q 200.92 4.60 194.72 10.23
  C 183.72 20.24 173.83 28.04 166.66 37.89
  Q 163.47 42.27 159.95 46.36"
/>
<path stroke="#676767" vector-effect="non-scaling-stroke" d="
  M 159.95 46.36
  Q 160.08 43.18 159.00 40.71"
/>
<path stroke="#cfcfcf" vector-effect="non-scaling-stroke" d="
  M 159.00 40.71
  Q 164.31 36.89 168.23 31.28
  Q 169.68 29.22 167.22 29.76
  Q 165.44 30.16 163.88 31.03
  A 0.43 0.43 0.0 0 1 163.24 30.65
  L 163.25 29.79
  A 0.43 0.43 0.0 0 0 162.73 29.36
  Q 159.03 30.13 156.64 32.39
  Q 151.36 37.36 150.27 45.02"
/>
<path stroke="#676767" vector-effect="non-scaling-stroke" d="
  M 150.27 45.02
  L 137.65 54.67
  A 1.24 1.24 0.0 0 1 135.74 54.14
  Q 132.37 45.47 122.75 46.71"
/>
<path stroke="#ededed" vector-effect="non-scaling-stroke" d="
  M 214.56 0.00
  L 217.78 0.31
  A 0.39 0.38 10.0 0 1 218.12 0.79
  C 216.47 6.59 215.76 12.29 214.79 18.26
  Q 213.99 23.16 206.70 44.69
  Q 206.45 45.42 205.72 45.83
  Q 205.25 46.09 205.35 45.56
  Q 207.14 36.25 209.98 27.20
  Q 210.55 25.39 209.67 21.20
  Q 209.57 20.70 209.22 21.07
  Q 207.70 22.66 207.44 23.49
  Q 204.93 31.54 199.13 54.43"
/>
<path stroke="#737373" vector-effect="non-scaling-stroke" d="
  M 199.13 54.43
  L 198.21 61.75"
/>
<path stroke="#ededed" vector-effect="non-scaling-stroke" d="
  M 198.21 61.75
  Q 196.07 60.93 195.21 62.95
  Q 192.46 69.43 190.49 76.85
  A 1.53 1.53 0.0 0 0 191.70 78.76
  L 193.20 79.02
  A 0.44 0.44 0.0 0 1 193.48 79.71
  L 192.88 80.58
  A 0.42 0.42 0.0 0 1 192.19 80.58
  L 191.95 80.23
  A 0.40 0.40 0.0 0 0 191.26 80.28
  L 189.38 83.98
  A 1.26 1.21 4.9 0 1 188.63 84.59
  L 188.04 84.75"
/>
<path stroke="#737373" vector-effect="non-scaling-stroke" d="
  M 188.04 84.75
  L 189.17 57.85
  Q 189.31 54.63 186.85 56.72
  L 183.15 59.88
  Q 182.50 60.43 182.49 59.59
  L 182.48 59.24
  A 1.35 1.34 -24.7 0 1 182.81 58.36
  C 184.19 56.79 190.80 49.33 190.24 47.59
  A 0.82 0.82 0.0 0 0 189.01 47.15
  Q 183.47 50.78 179.43 55.91
  Q 165.86 73.16 155.90 89.66
  Q 153.42 93.76 153.95 88.99
  Q 156.36 67.24 159.95 46.36"
/>
<path stroke="#ededed" vector-effect="non-scaling-stroke" d="
  M 212.45 16.99
  A 0.78 0.77 24.9 0 1 212.12 16.11
  L 213.15 12.73
  A 0.70 0.70 0.0 0 0 212.56 11.83
  C 210.50 11.58 211.75 17.49 212.18 18.32
  Q 212.51 18.95 212.72 18.27
  Q 213.01 17.34 212.45 16.99"
/>
<path stroke="#ededed" vector-effect="non-scaling-stroke" d="
  M 405.31 0.00
  L 399.03 0.73
  Q 396.72 1.00 396.32 3.29
  C 395.71 6.74 402.47 8.44 404.96 9.50"
/>
<path stroke="#e1e1e1" vector-effect="non-scaling-stroke" d="
  M 404.96 9.50
  Q 407.10 11.82 409.03 14.30
  C 411.76 17.79 414.47 20.17 417.51 23.10
  Q 417.93 23.50 417.93 22.92
  C 417.95 21.10 409.46 11.84 407.46 9.75"
/>
<path stroke="#ededed" vector-effect="non-scaling-stroke" d="
  M 407.46 9.75
  Q 407.13 8.76 407.49 7.88
  A 0.47 0.46 -63.0 0 1 408.15 7.66
  Q 413.85 11.06 418.98 15.27
  C 426.58 21.52 428.60 31.82 433.98 39.33
  Q 440.11 47.87 449.04 53.75
  A 0.47 0.46 26.8 0 0 449.73 53.53
  C 449.98 52.85 448.89 50.59 449.15 49.20
  A 1.43 1.42 34.6 0 0 448.96 48.19
  L 445.82 43.16
  Q 445.53 42.70 445.97 43.01
  Q 447.82 44.33 448.98 44.19
  A 0.63 0.62 88.9 0 0 449.53 43.61
  L 450.00 36.81"
/>
<path stroke="#ededed" vector-effect="non-scaling-stroke" d="
  M 450.00 235.56
  C 449.82 233.95 449.50 230.64 448.84 230.51
  A 0.47 0.47 0.0 0 0 448.28 230.92
  Q 447.88 234.86 444.20 236.09
  A 1.33 1.30 -82.9 0 0 443.51 236.64
  Q 437.42 246.30 429.57 254.58
  C 427.75 256.50 426.74 258.89 425.60 261.19
  C 422.02 268.43 416.09 274.28 409.20 278.45
  C 407.79 279.31 405.72 279.40 403.91 280.71
  Q 401.88 282.18 399.52 283.14
  A 1.64 1.61 40.4 0 1 398.51 283.21
  Q 396.97 282.83 395.95 284.23
  Q 395.41 284.98 396.30 284.76
  Q 397.10 284.57 397.73 284.96
  Q 398.18 285.25 398.72 285.27
  L 417.44 286.00"
/>
<path stroke="#ededed" vector-effect="non-scaling-stroke" d="
  M 200.44 286.00
  Q 201.51 285.52 202.20 285.67
  A 0.89 0.89 0.0 0 0 203.26 284.60
  C 201.85 278.41 199.33 275.72 196.02 270.64
  C 194.04 267.59 190.15 266.15 188.81 262.94
  C 185.21 254.31 187.46 245.28 185.25 235.79"
/>
<path stroke="#858585" vector-effect="non-scaling-stroke" d="
  M 185.25 235.79
  Q 191.28 231.05 195.80 225.10
  Q 196.52 224.16 195.34 224.19
  Q 189.16 224.36 183.25 222.96"
/>
<path stroke="#ededed" vector-effect="non-scaling-stroke" d="
  M 183.25 222.96
  C 184.07 218.69 184.68 215.13 186.76 211.26
  C 187.97 208.99 189.25 203.23 184.35 204.57
  Q 183.06 204.92 183.49 203.66
  Q 184.38 201.03 182.91 197.47"
/>
<path stroke="#858585" vector-effect="non-scaling-stroke" d="
  M 182.91 197.47
  Q 192.54 186.37 205.27 179.02
  A 0.28 0.28 0.0 0 1 205.69 179.26
  L 206.04 243.07
  A 1.80 1.79 15.2 0 0 206.93 244.62
  C 209.80 246.34 219.04 235.49 220.50 233.21"
/>
<path stroke="#858585" vector-effect="non-scaling-stroke" d="
  M 220.50 233.21
  C 224.13 234.30 224.41 236.72 226.45 239.07
  A 0.55 0.54 52.5 0 0 227.17 239.17
  L 232.40 235.76
  A 1.20 1.18 34.4 0 1 233.34 235.59
  C 235.19 236.03 236.65 236.66 238.55 236.76
  C 244.43 237.06 250.00 236.94 256.12 237.46
  Q 266.91 238.36 277.14 236.93
  Q 279.00 236.67 280.34 235.36
  L 289.29 226.67
  A 0.35 0.35 0.0 0 1 289.87 226.82
  Q 291.73 232.88 295.12 238.17
  Q 296.60 240.47 298.98 239.13
  L 304.49 236.03
  A 1.36 1.35 -52.1 0 1 305.50 235.90
  C 315.25 238.52 319.96 234.48 327.53 229.61
  A 0.35 0.35 0.0 0 1 328.06 229.83
  Q 330.83 242.70 344.32 245.36
  C 358.78 248.21 368.17 243.16 378.85 233.18
  C 393.06 219.90 400.04 202.99 397.74 183.48
  C 396.33 171.50 382.56 164.34 371.96 163.03
  C 364.55 162.11 358.36 164.06 352.35 168.75
  C 339.51 178.78 334.29 193.45 329.95 208.52
  Q 328.11 214.90 327.87 221.15
  Q 327.77 224.02 324.89 224.09
  Q 315.06 224.31 306.50 219.76
  Q 304.08 218.48 303.79 215.76
  C 302.51 203.37 303.51 187.24 316.28 180.28
  C 322.68 176.79 327.21 174.45 330.81 167.67
  Q 331.55 166.26 329.98 166.50
  C 321.92 167.70 309.71 179.59 304.37 185.53
  Q 303.75 186.22 303.75 185.29
  L 303.75 167.27
  A 0.39 0.38 81.2 0 0 303.25 166.90
  C 296.49 169.06 290.32 176.65 290.79 184.11
  C 291.60 196.87 290.55 210.30 288.81 223.00
  A 0.82 0.81 -5.3 0 1 288.26 223.66
  C 277.68 227.12 264.31 224.72 253.37 224.07
  C 249.10 223.82 244.62 223.04 240.18 222.63
  A 1.18 1.18 0.0 0 1 239.35 222.19
  Q 238.28 220.86 238.50 219.21"
/>
<path stroke="#858585" vector-effect="non-scaling-stroke" d="
  M 238.50 219.21
  Q 259.33 211.68 273.72 195.50
  Q 275.23 193.80 275.68 191.29
  A 0.52 0.52 0.0 0 0 275.27 190.69
  Q 272.39 190.17 269.99 190.27
  Q 252.10 190.97 233.89 195.19
  A 0.42 0.41 81.3 0 1 233.38 194.81
  Q 233.09 190.23 233.84 185.65
  C 235.55 175.25 275.72 172.70 284.06 171.96
  C 289.01 171.52 294.01 165.18 296.02 161.22
  Q 297.02 159.26 294.82 159.37
  C 273.07 160.43 247.29 163.63 231.70 180.20
  Q 225.86 186.40 219.06 195.85
  Q 218.53 196.59 218.54 195.68
  L 218.64 172.14
  A 0.66 0.66 0.0 0 1 219.21 171.49
  C 226.39 170.51 231.72 164.99 235.24 158.98
  A 0.37 0.36 -70.2 0 0 234.99 158.44
  C 229.42 157.34 223.68 161.55 219.29 164.50
  A 0.33 0.33 0.0 0 1 218.78 164.26
  L 218.44 160.95
  A 0.43 0.43 0.0 0 0 217.83 160.60
  Q 210.33 164.13 206.43 171.21
  Q 205.39 173.11 203.87 174.22
  Q 193.27 181.98 183.75 191.04"
/>
<path stroke="#858585" vector-effect="non-scaling-stroke" d="
  M 186.71 125.25
  L 190.24 121.22
  A 0.73 0.72 50.6 0 0 190.32 120.38
  Q 187.81 116.09 187.79 110.75
  Q 187.71 94.35 188.04 84.75"
/>
<path stroke="#858585" vector-effect="non-scaling-stroke" d="
  M 198.21 61.75
  Q 198.29 73.75 198.24 85.75
  Q 198.24 87.31 195.80 89.04
  A 0.83 0.83 0.0 0 0 195.51 90.03
  Q 195.94 91.11 197.16 91.12
  A 1.08 1.08 0.0 0 1 198.24 92.20
  Q 198.26 105.71 198.25 119.88
  C 198.25 122.10 198.93 124.11 199.28 126.33
  A 0.87 0.86 -27.2 0 1 199.03 127.10
  L 198.27 127.85
  A 0.84 0.84 0.0 0 0 198.11 128.82
  C 199.88 132.35 202.29 131.40 204.54 129.11
  Q 208.77 124.82 213.06 120.56
  A 1.53 1.52 70.1 0 0 213.50 119.62
  Q 213.66 118.08 212.77 116.81
  Q 212.45 116.35 212.39 115.80
  Q 210.71 101.15 211.36 86.42
  A 1.06 1.04 -13.8 0 1 211.90 85.54
  L 223.17 79.21
  A 0.33 0.33 0.0 0 1 223.67 79.49
  Q 224.04 102.09 224.24 124.68
  Q 224.29 129.74 225.31 135.82
  Q 225.76 138.56 228.04 136.97
  Q 233.50 133.19 237.55 127.92
  Q 238.56 126.60 238.27 124.96
  Q 236.90 117.12 236.84 108.99
  Q 236.68 88.52 236.82 67.97
  A 1.35 1.34 -24.7 0 1 237.15 67.09
  Q 243.56 59.51 245.85 49.10
  C 246.86 44.49 245.11 39.71 239.74 40.60
  C 234.01 41.55 228.69 47.51 226.51 52.44
  C 224.21 57.63 223.93 65.29 223.75 71.41
  A 1.01 1.01 0.0 0 1 223.13 72.31
  L 212.06 76.99
  A 0.62 0.62 0.0 0 1 211.19 76.43
  L 210.94 45.73
  A 0.33 0.33 0.0 0 0 210.47 45.44
  Q 203.90 48.34 199.13 54.43"
/>
<path stroke="#858585" vector-effect="non-scaling-stroke" d="
  M 396.80 79.45
  C 396.74 77.98 396.64 76.31 396.92 74.86
  Q 400.57 55.90 403.16 36.67
  Q 403.39 34.94 401.88 35.82
  C 397.48 38.39 391.19 43.78 390.27 49.26
  Q 387.47 66.06 384.73 82.91
  A 0.68 0.67 -83.8 0 1 384.03 83.48
  L 377.37 83.20
  Q 374.98 83.10 374.29 80.82
  Q 373.56 78.46 373.57 75.51
  Q 373.61 59.87 373.38 44.26
  A 0.34 0.33 -11.8 0 0 372.91 43.96
  C 365.98 47.07 360.38 53.18 360.44 61.09
  Q 360.54 75.64 360.53 90.18
  C 360.53 98.63 375.97 96.35 381.15 96.26
  A 1.53 1.53 0.0 0 1 382.70 97.96
  C 381.37 109.48 378.79 126.48 384.60 136.17
  Q 385.78 138.14 387.70 136.89
  Q 393.91 132.87 398.03 126.79
  A 1.64 1.63 -44.3 0 0 398.06 125.00
  C 391.91 115.23 394.29 100.08 395.49 89.00
  A 4.04 4.02 -20.0 0 1 396.59 86.65
  Q 399.23 83.94 401.34 79.93
  C 403.09 76.60 397.57 79.66 397.28 79.77
  A 0.35 0.35 0.0 0 1 396.80 79.45"
/>
<path stroke="#858585" vector-effect="non-scaling-stroke" d="
  M 277.11 72.03
  C 282.39 64.57 285.70 54.48 282.98 45.43
  A 1.03 1.02 85.2 0 0 282.12 44.70
  C 268.45 43.15 256.26 50.34 247.16 60.92
  Q 245.19 63.22 244.89 65.29
  Q 244.81 65.85 245.29 65.54
  L 250.59 62.08
  Q 251.33 61.59 251.32 62.48
  L 250.96 89.02
  Q 250.96 89.52 250.71 89.96
  L 245.65 98.99
  Q 245.03 100.11 246.29 99.90
  L 250.30 99.22
  A 0.59 0.59 0.0 0 1 250.98 99.90
  C 248.82 112.50 249.25 124.09 249.95 136.87
  A 0.45 0.45 0.0 0 0 250.64 137.22
  L 255.00 134.45
  A 0.74 0.73 42.5 0 1 255.74 134.42
  Q 259.11 136.19 262.93 136.09
  C 281.99 135.61 292.47 126.58 302.72 111.62
  Q 302.99 111.21 303.02 111.70
  C 303.41 118.26 305.05 125.42 312.26 124.81
  C 319.50 124.21 328.71 111.44 332.13 105.64
  Q 332.39 105.20 332.78 105.14
  A 0.45 0.45 0.0 0 1 333.29 105.62
  C 332.77 112.57 332.21 118.26 333.49 124.47
  C 335.48 134.10 343.61 124.10 346.75 120.90
  C 348.79 118.82 350.48 116.48 347.00 114.58
  A 1.08 1.07 8.8 0 1 346.47 113.86
  Q 345.31 108.40 345.64 99.93
  C 346.23 84.98 348.33 70.35 349.28 59.25
  Q 349.50 56.62 348.84 52.75
  A 0.43 0.42 75.0 0 0 348.28 52.42
  C 340.25 55.32 337.38 60.33 335.96 68.71
  Q 332.29 90.37 322.27 110.63
  A 1.23 1.23 0.0 0 1 320.59 111.17
  C 318.29 109.92 316.76 107.61 316.58 104.81
  C 315.22 83.93 318.28 55.38 331.46 38.20
  Q 332.76 36.50 330.68 37.00
  Q 330.03 37.16 328.57 38.11
  C 315.39 46.70 304.02 56.26 292.05 66.37
  C 287.16 70.51 283.41 72.23 277.32 72.43
  Q 276.81 72.44 277.11 72.03"
/>
<path stroke="#ededed" vector-effect="non-scaling-stroke" d="
  M 191.50 97.36
  C 190.44 98.35 190.71 102.40 191.02 103.75
  A 1.64 1.64 0.0 0 1 190.95 104.67
  Q 190.06 106.85 190.24 109.22
  Q 190.32 110.45 190.61 109.25
  Q 191.97 103.49 191.91 97.54
  Q 191.91 96.99 191.50 97.36"
/>
<path stroke="#ededed" vector-effect="non-scaling-stroke" d="
  M 442.60 236.84
  C 444.90 234.40 450.12 227.56 449.34 223.70
  Q 449.24 223.19 448.99 223.65
  Q 443.76 233.29 441.97 235.22
  Q 437.43 240.12 433.61 245.61
  A 0.43 0.42 -64.1 0 0 433.83 246.26
  C 434.26 246.38 441.66 237.84 442.60 236.84"
/>
<path stroke="#ededed" vector-effect="non-scaling-stroke" d="
  M 412.13 273.79
  Q 409.44 277.45 412.45 274.04
  Q 415.53 270.55 420.85 266.43
  Q 421.26 266.11 420.79 266.33
  Q 416.00 268.52 412.13 273.79"
/>
<path stroke="#cfcfcf" vector-effect="non-scaling-stroke" d="
  M 407.46 9.75
  L 405.64 8.31
  A 0.31 0.31 0.0 0 0 405.15 8.49
  L 404.96 9.50"
/>
<path stroke="#858585" vector-effect="non-scaling-stroke" d="
  M 83.09 27.81
  L 69.53 31.87
  Q 67.62 32.44 67.67 34.44
  C 68.05 49.33 67.43 63.88 69.10 78.32"
/>
<path stroke="#ededed" vector-effect="non-scaling-stroke" d="
  M 78.21 43.63
  C 76.89 47.22 73.77 52.05 73.80 55.68
  Q 73.80 56.18 73.99 55.72
  Q 75.85 51.11 79.06 47.31
  C 79.97 46.22 81.01 44.34 80.12 43.29
  A 1.12 1.12 0.0 0 0 78.21 43.63"
/>
<path stroke="#737373" vector-effect="non-scaling-stroke" d="
  M 159.00 40.71
  Q 154.54 42.05 150.27 45.02"
/>
<path stroke="#858585" vector-effect="non-scaling-stroke" d="
  M 305.57 81.80
  C 308.33 69.86 310.38 62.99 314.23 54.06
  Q 314.81 52.70 313.66 53.62
  L 293.66 69.60
  Q 293.20 69.97 293.78 70.06
  Q 303.30 71.54 304.09 81.21
  A 0.98 0.97 15.9 0 0 304.48 81.90
  L 304.77 82.11
  A 0.52 0.52 0.0 0 0 305.57 81.80"
/>
<path stroke="#858585" vector-effect="non-scaling-stroke" d="
  M 264.99 58.35
  L 263.92 77.68
  A 0.43 0.42 85.4 0 0 264.43 78.12
  C 270.48 76.76 273.00 62.04 269.55 57.34
  A 1.04 1.03 66.9 0 0 268.54 56.93
  L 265.80 57.43
  A 1.00 0.99 86.7 0 0 264.99 58.35"
/>
<path stroke="#858585" vector-effect="non-scaling-stroke" d="
  M 274.35 85.38
  C 265.22 91.58 260.34 101.61 262.63 112.34
  C 265.63 126.46 279.00 125.11 288.91 120.59
  Q 291.04 119.61 291.53 117.33
  Q 293.45 108.42 292.26 99.47
  C 291.81 96.10 291.78 92.67 290.08 89.14
  C 286.90 82.56 280.27 81.36 274.35 85.38"
/>
<path stroke="#676767" vector-effect="non-scaling-stroke" d="
  M 263.6540 90.0584
  A 3.88 0.65 133.2 0 0 266.7838 87.6750
  A 3.88 0.65 133.2 0 0 268.9660 84.4016
  A 3.88 0.65 133.2 0 0 265.8362 86.7850
  A 3.88 0.65 133.2 0 0 263.6540 90.0584"
/>
<path stroke="#676767" vector-effect="non-scaling-stroke" d="
  M 126.38 119.77
  L 120.41 123.59"
/>
<path stroke="#737373" vector-effect="non-scaling-stroke" d="
  M 115.13 59.91
  Q 110.33 59.65 105.01 60.67
  Q 102.39 61.18 102.47 63.85
  Q 102.82 76.09 101.28 88.20
  Q 101.12 89.53 102.06 88.58
  L 122.50 68.07
  A 1.11 1.09 64.1 0 0 122.81 67.15
  Q 122.39 63.94 120.43 61.92
  Q 118.66 60.09 115.13 59.91"
/>
<path stroke="#676767" vector-effect="non-scaling-stroke" d="
  M 120.54 113.00
  L 126.20 112.73
  A 1.09 1.09 0.0 0 0 127.24 111.64
  L 127.21 93.50"
/>
<path stroke="#737373" vector-effect="non-scaling-stroke" d="
  M 127.21 93.50
  Q 127.07 82.74 124.83 72.17
  Q 124.61 71.13 123.84 71.86
  Q 114.85 80.48 106.30 89.80
  C 102.01 94.47 102.80 100.05 102.74 105.79
  A 1.77 1.73 -61.4 0 0 103.00 106.71
  Q 108.97 116.31 120.54 113.00"
/>
<path stroke="#cfcfcf" vector-effect="non-scaling-stroke" d="
  M 127.21 93.50
  Q 124.06 93.13 123.43 96.24
  Q 121.77 104.58 120.54 113.00"
/>
<path stroke="#858585" vector-effect="non-scaling-stroke" d="
  M 111.50 164.46
  L 108.04 180.25"
/>
<path stroke="#858585" vector-effect="non-scaling-stroke" d="
  M 109.71 220.50
  Q 111.86 214.03 115.04 208.00"
/>
<path stroke="#858585" vector-effect="non-scaling-stroke" d="
  M 121.46 197.25
  L 125.04 192.05"
/>
<path stroke="#0b0b0b" vector-effect="non-scaling-stroke" d="
  M 238.50 219.21
  Q 238.18 216.57 236.43 215.01
  A 1.92 1.91 -39.9 0 0 234.16 214.81
  C 230.94 216.79 214.12 228.85 220.50 233.21"
/>
<path stroke="#737373" vector-effect="non-scaling-stroke" d="
  M 182.91 197.47
  C 178.04 203.48 172.23 219.47 183.25 222.96"
/>
<path stroke="#737373" vector-effect="non-scaling-stroke" d="
  M 185.25 235.79
  C 179.65 238.33 173.38 236.36 167.71 234.33
  A 0.89 0.88 -54.6 0 0 166.85 234.48
  C 162.31 238.23 158.84 242.77 153.76 245.74
  Q 152.52 246.47 153.00 245.12
  C 154.05 242.19 154.25 239.88 153.60 236.63
  Q 150.56 221.25 147.75 205.79
  A 0.46 0.46 0.0 0 0 147.18 205.43
  Q 137.57 208.20 127.93 210.92
  Q 124.48 211.89 122.98 212.54
  A 1.36 1.36 0.0 0 0 122.30 213.19
  Q 118.97 220.00 125.06 223.94
  C 127.71 225.65 135.16 228.74 138.47 227.36
  C 147.27 223.71 133.43 236.52 132.45 237.43
  Q 127.55 242.04 121.54 239.67
  Q 120.72 239.35 121.00 240.19
  L 121.59 242.00
  Q 121.71 242.37 121.72 242.76
  L 121.97 253.44
  A 1.58 1.57 -29.8 0 1 121.73 254.31
  C 119.09 258.42 108.37 271.61 102.40 273.68
  A 0.60 0.60 0.0 0 1 101.67 273.39
  C 100.61 271.30 105.81 265.77 107.20 264.14
  C 109.51 261.43 109.46 260.33 109.06 256.94
  Q 108.25 250.04 105.19 243.75
  A 1.10 1.10 0.0 0 0 103.45 243.43
  L 96.19 250.25
  A 0.78 0.77 -31.3 0 1 94.93 249.95
  L 92.07 241.86
  Q 91.42 240.02 89.50 240.39
  Q 66.11 244.94 45.75 252.96"
/>
<path stroke="#737373" vector-effect="non-scaling-stroke" d="
  M 67.50 235.26
  L 67.10 235.99
  Q 66.92 236.33 67.29 236.22
  L 90.71 229.20
  A 0.60 0.58 -8.8 0 0 91.13 228.64
  Q 91.50 202.68 97.85 177.53
  Q 98.50 174.99 98.73 169.29
  A 0.56 0.55 5.2 0 0 98.25 168.72
  C 88.12 167.36 76.21 170.05 66.31 173.25
  Q 64.12 173.95 64.06 176.25
  C 63.60 195.52 63.96 214.46 67.66 234.27
  A 1.49 1.46 -36.5 0 1 67.50 235.26"
/>
<path stroke="#737373" vector-effect="non-scaling-stroke" d="
  M 144.18 174.20
  Q 143.58 175.33 140.68 178.92
  Q 132.44 189.13 126.31 200.47
  Q 125.94 201.14 126.69 200.97
  L 145.31 196.63
  A 1.14 1.13 -10.6 0 0 146.18 195.37
  L 143.81 177.02
  A 1.35 1.35 0.0 0 1 144.01 176.13
  Q 144.82 174.83 144.53 174.21
  Q 144.37 173.85 144.18 174.20"
/>
<path stroke="#858585" vector-effect="non-scaling-stroke" d="
  M 254.83 203.44
  Q 245.79 203.54 236.98 205.22
  Q 234.77 205.64 235.43 207.79
  L 236.79 212.23
  A 0.58 0.57 -22.1 0 0 237.60 212.57
  L 254.96 203.96
  Q 256.03 203.43 254.83 203.44"
/>
<path stroke="#858585" vector-effect="non-scaling-stroke" d="
  M 349.82 178.23
  Q 345.53 186.16 344.59 195.14
  A 1.20 1.19 -61.7 0 0 344.84 195.98
  C 347.03 198.75 343.79 209.58 342.49 212.55
  C 333.89 232.21 371.91 240.07 379.07 227.23
  C 383.91 218.57 389.35 196.58 381.43 187.31
  Q 370.78 174.84 353.98 175.62
  Q 351.16 175.75 349.82 178.23"
/>
<path stroke="#ededed" vector-effect="non-scaling-stroke" d="
  M 137.88 286.03
  Q 135.45 282.57 135.46 277.76
  Q 135.46 277.16 135.12 277.03
  A 0.46 0.45 -72.3 0 0 134.52 277.35
  Q 134.13 278.90 132.71 279.49
  A 0.99 0.99 0.0 0 1 131.36 278.80
  Q 129.91 272.40 127.53 266.16
  C 126.86 264.42 127.28 262.11 125.46 260.54
  Q 124.99 260.14 125.10 260.74
  L 129.08 284.22
  A 1.17 1.16 -89.7 0 1 127.73 285.56
  C 126.03 285.25 122.90 265.31 122.33 262.53
  Q 122.23 262.04 121.89 262.40
  C 120.61 263.76 117.72 267.14 115.24 267.28
  A 0.99 0.98 14.6 0 0 114.47 267.73
  Q 113.32 269.53 113.47 271.76
  Q 113.91 278.36 113.79 285.02
  A 0.77 0.76 78.3 0 1 113.35 285.70
  L 112.69 286.00"
/>
<path stroke="#ededed" vector-effect="non-scaling-stroke" d="
  M 106.44 286.00
  Q 103.44 286.16 103.14 283.53
  A 0.32 0.31 -17.9 0 0 102.67 283.29
  L 102.44 283.42
  A 0.15 0.12 83.7 0 0 102.37 283.53
  L 102.18 285.10
  A 0.72 0.69 0.4 0 1 101.53 285.72
  L 97.69 286.00"
/>
<path stroke="#ededed" vector-effect="non-scaling-stroke" d="
  M 133.81 273.44
  Q 133.92 272.49 133.23 272.17
  Q 132.49 271.82 132.80 272.58
  L 133.49 274.22
  Q 133.70 274.72 133.97 274.25
  Q 134.19 273.85 133.81 273.44"
/>
</g>
<path fill="#ffffff" d="
  M 0.00 0.00
  L 105.31 0.00
  L 103.75 0.42
  A 1.54 1.50 10.0 0 0 102.97 0.95
  C 100.41 4.31 95.40 10.21 95.50 14.46
  Q 71.32 21.91 67.02 23.53
  Q 60.40 26.02 56.67 32.46
  Q 55.41 34.62 55.28 37.68
  Q 53.72 72.59 57.79 107.25
  L 57.75 108.26
  A 1.23 1.22 69.2 0 1 57.38 109.09
  Q 55.93 110.54 56.06 112.60
  Q 56.09 113.08 55.90 113.53
  Q 54.58 116.66 53.81 119.96
  C 52.85 124.05 50.46 127.11 49.54 131.22
  Q 49.10 133.22 48.24 135.10
  Q 48.02 135.57 47.99 135.05
  Q 47.66 128.98 50.20 123.44
  Q 50.57 122.63 50.07 120.24
  A 1.57 1.53 51.8 0 1 50.17 119.30
  C 50.61 118.30 51.91 114.05 50.92 113.69
  A 0.44 0.44 0.0 0 0 50.33 114.05
  C 49.97 117.82 48.87 125.71 46.48 128.67
  Q 45.84 129.47 45.99 128.46
  Q 46.30 126.38 45.96 124.26
  Q 45.73 122.81 45.49 124.26
  C 43.63 135.64 40.08 147.53 38.69 158.21
  C 37.12 170.29 37.57 183.14 38.58 195.27
  C 38.74 197.18 39.87 199.64 39.94 201.06
  C 40.24 207.51 40.33 213.84 41.39 220.16
  Q 43.46 232.47 45.98 244.73
  Q 40.29 248.59 37.28 254.74
  Q 37.06 255.19 37.56 255.13
  Q 41.78 254.55 45.75 252.96
  Q 46.09 258.94 44.83 264.78
  Q 44.20 267.73 44.40 270.29
  Q 44.99 277.60 45.01 284.97
  A 0.56 0.55 2.9 0 0 45.51 285.52
  L 51.44 286.00
  L 0.00 286.00
  L 0.00 0.00
  Z"
/>
<path fill="#dadada" d="
  M 105.31 0.00
  L 138.06 0.00
  Q 136.15 6.39 136.09 12.97
  C 136.02 21.25 131.05 25.12 128.71 32.25
  Q 126.28 39.71 122.75 46.71
  C 113.67 47.75 106.76 52.38 99.01 56.72
  Q 92.39 60.42 89.67 67.24
  C 89.02 68.87 83.25 75.78 85.27 76.99
  A 0.87 0.87 0.0 0 0 86.26 76.92
  L 88.84 74.78
  Q 89.31 74.39 89.35 74.99
  Q 89.60 78.04 89.30 83.81
  Q 87.90 110.86 88.65 144.72
  A 0.67 0.67 0.0 0 0 89.18 145.36
  L 99.79 147.65
  A 1.40 1.40 0.0 0 0 101.48 146.29
  L 101.51 127.00
  A 0.65 0.65 0.0 0 1 102.09 126.35
  C 108.74 125.67 113.73 126.96 120.41 123.59
  Q 121.89 127.99 119.65 132.56
  Q 119.21 133.45 119.99 132.83
  Q 120.77 132.20 120.93 131.21
  Q 121.02 130.67 121.37 130.24
  Q 125.16 125.60 126.38 119.77
  Q 133.33 113.41 138.29 106.14
  Q 139.12 104.92 139.28 103.46
  Q 141.54 81.65 137.93 60.11
  A 0.71 0.70 -22.8 0 1 138.22 59.41
  L 145.89 53.96
  Q 146.29 53.67 146.33 54.17
  C 146.55 57.18 146.73 60.34 146.11 63.41
  Q 141.20 87.63 141.13 112.47
  Q 141.12 114.19 140.31 115.71
  L 128.92 137.15
  A 0.33 0.33 0.0 0 0 129.13 137.62
  C 133.00 138.56 142.42 125.80 144.26 123.17
  C 145.13 121.92 146.81 121.98 148.00 120.91
  Q 152.97 116.38 157.91 111.07
  A 0.94 0.93 32.4 0 0 157.57 109.56
  C 153.49 107.94 153.97 104.27 155.88 100.94
  Q 164.87 85.29 174.83 69.99
  Q 176.45 67.51 176.24 70.46
  Q 174.41 96.94 175.09 124.85
  C 175.16 127.71 175.83 129.55 177.38 131.76
  A 1.27 1.27 0.0 0 0 179.27 131.97
  L 186.71 125.25
  C 188.38 128.20 186.68 139.16 186.40 142.98
  C 186.00 148.43 189.42 152.27 188.92 157.26
  C 188.20 164.57 188.59 171.62 179.31 173.25
  A 0.50 0.49 71.4 0 0 178.96 173.97
  L 181.15 178.11
  Q 181.68 179.10 182.17 178.09
  L 182.91 176.56
  Q 183.22 175.92 183.46 176.59
  Q 183.98 178.02 182.65 179.12
  A 1.06 1.06 0.0 0 0 182.26 179.92
  C 182.19 182.67 183.53 187.62 182.62 189.88
  A 0.74 0.74 0.0 0 0 182.80 190.71
  Q 183.18 191.06 183.75 191.04
  C 175.13 199.54 168.55 207.61 165.21 217.72
  Q 164.86 218.77 164.76 217.67
  Q 164.04 209.72 162.00 202.01
  A 0.63 0.62 72.2 0 1 162.38 201.27
  C 168.95 198.78 176.61 194.08 179.17 187.13
  Q 179.50 186.25 178.60 186.52
  L 161.38 191.72
  A 0.90 0.89 77.7 0 1 160.23 190.98
  L 156.85 165.10
  A 1.42 1.41 -28.6 0 1 157.19 163.97
  L 161.19 159.36
  A 0.80 0.80 0.0 0 0 160.78 158.06
  C 158.91 157.61 153.97 161.54 152.48 162.74
  Q 136.77 175.46 125.04 192.05
  Q 125.06 188.44 123.72 181.50
  Q 122.74 176.42 122.89 166.19
  Q 122.97 160.69 119.75 156.92
  Q 119.23 156.32 119.06 157.09
  Q 118.07 161.44 118.59 165.92
  A 0.59 0.58 6.4 0 0 118.99 166.41
  L 119.23 166.49
  A 0.73 0.73 0.0 0 1 119.71 167.29
  Q 117.88 178.57 118.31 190.01
  C 118.34 190.81 117.97 191.26 117.62 191.92
  A 0.76 0.76 0.0 0 0 117.77 192.84
  Q 119.28 194.27 119.72 196.38
  A 1.05 1.05 0.0 0 0 120.37 197.16
  Q 120.92 197.37 121.46 197.25
  L 115.04 208.00
  Q 113.88 207.24 112.56 207.20
  A 0.67 0.66 -5.8 0 1 111.94 206.70
  C 111.11 203.31 114.19 201.62 112.05 197.15
  A 0.39 0.39 0.0 0 0 111.45 197.02
  C 111.25 197.19 111.06 197.51 111.07 197.79
  C 111.25 202.38 109.57 207.01 109.16 210.77
  Q 108.69 215.01 108.13 219.23
  A 0.80 0.80 0.0 0 0 108.48 220.01
  Q 109.03 220.39 109.71 220.50
  C 109.19 222.90 108.93 229.20 105.09 227.88
  A 1.69 1.68 -79.8 0 1 103.95 226.23
  C 104.45 210.83 104.48 195.28 108.04 180.25
  C 108.69 181.24 110.97 185.35 112.20 185.16
  A 0.66 0.65 -3.8 0 0 112.75 184.54
  Q 113.14 175.17 112.99 165.81
  C 112.98 164.81 112.51 164.32 111.50 164.46
  L 111.96 158.72
  Q 112.14 156.34 109.80 155.90
  C 100.13 154.06 86.20 157.58 76.72 160.12
  C 65.60 163.11 59.95 171.14 53.90 180.10
  C 51.24 184.03 51.04 186.67 51.04 191.25
  C 51.02 210.04 51.15 224.16 53.70 240.01
  A 0.72 0.71 71.3 0 1 53.34 240.75
  L 45.98 244.73
  Q 43.46 232.47 41.39 220.16
  C 40.33 213.84 40.24 207.51 39.94 201.06
  C 39.87 199.64 38.74 197.18 38.58 195.27
  C 37.57 183.14 37.12 170.29 38.69 158.21
  C 40.08 147.53 43.63 135.64 45.49 124.26
  Q 45.73 122.81 45.96 124.26
  Q 46.30 126.38 45.99 128.46
  Q 45.84 129.47 46.48 128.67
  C 48.87 125.71 49.97 117.82 50.33 114.05
  A 0.44 0.44 0.0 0 1 50.92 113.69
  C 51.91 114.05 50.61 118.30 50.17 119.30
  A 1.57 1.53 51.8 0 0 50.07 120.24
  Q 50.57 122.63 50.20 123.44
  Q 47.66 128.98 47.99 135.05
  Q 48.02 135.57 48.24 135.10
  Q 49.10 133.22 49.54 131.22
  C 50.46 127.11 52.85 124.05 53.81 119.96
  Q 54.58 116.66 55.90 113.53
  Q 56.09 113.08 56.06 112.60
  Q 55.93 110.54 57.38 109.09
  A 1.23 1.22 69.2 0 0 57.75 108.26
  L 57.79 107.25
  Q 60.06 121.63 63.54 135.82
  A 1.02 1.01 64.5 0 0 65.14 136.39
  Q 71.08 131.84 75.72 125.98
  Q 76.79 124.63 76.35 122.98
  Q 70.50 100.97 69.10 78.32
  Q 74.34 71.13 73.23 62.21
  A 1.40 1.38 58.2 0 1 73.44 61.29
  Q 77.36 55.10 80.96 48.72
  Q 83.28 44.61 80.05 41.86
  A 0.83 0.82 -62.7 0 1 79.79 41.04
  L 83.09 27.81
  C 86.10 26.85 100.19 22.55 102.43 24.23
  Q 104.32 25.65 106.18 24.19
  Q 112.65 19.13 117.99 12.76
  Q 119.59 10.87 117.11 10.90
  Q 106.00 11.05 95.50 14.46
  C 95.40 10.21 100.41 4.31 102.97 0.95
  A 1.54 1.50 10.0 0 1 103.75 0.42
  L 105.31 0.00
  Z
  M 41.50 200.04
  Q 40.72 205.00 41.86 209.86
  Q 42.07 210.76 42.52 209.96
  Q 45.42 204.73 42.03 199.92
  Q 41.62 199.32 41.50 200.04
  Z"
/>
<path fill="#c3c3c3" d="
  M 138.06 0.00
  L 206.56 0.00
  Q 206.75 0.25 207.04 0.31
  A 0.31 0.31 0.0 0 1 207.26 0.75
  Q 206.89 1.48 206.46 1.71
  Q 200.92 4.60 194.72 10.23
  C 183.72 20.24 173.83 28.04 166.66 37.89
  Q 163.47 42.27 159.95 46.36
  Q 160.08 43.18 159.00 40.71
  Q 164.31 36.89 168.23 31.28
  Q 169.68 29.22 167.22 29.76
  Q 165.44 30.16 163.88 31.03
  A 0.43 0.43 0.0 0 1 163.24 30.65
  L 163.25 29.79
  A 0.43 0.43 0.0 0 0 162.73 29.36
  Q 159.03 30.13 156.64 32.39
  Q 151.36 37.36 150.27 45.02
  L 137.65 54.67
  A 1.24 1.24 0.0 0 1 135.74 54.14
  Q 132.37 45.47 122.75 46.71
  Q 126.28 39.71 128.71 32.25
  C 131.05 25.12 136.02 21.25 136.09 12.97
  Q 136.15 6.39 138.06 0.00
  Z"
/>
<path fill="#dadada" d="
  M 206.56 0.00
  L 214.56 0.00
  L 217.78 0.31
  A 0.39 0.38 10.0 0 1 218.12 0.79
  C 216.47 6.59 215.76 12.29 214.79 18.26
  Q 213.99 23.16 206.70 44.69
  Q 206.45 45.42 205.72 45.83
  Q 205.25 46.09 205.35 45.56
  Q 207.14 36.25 209.98 27.20
  Q 210.55 25.39 209.67 21.20
  Q 209.57 20.70 209.22 21.07
  Q 207.70 22.66 207.44 23.49
  Q 204.93 31.54 199.13 54.43
  L 198.21 61.75
  Q 196.07 60.93 195.21 62.95
  Q 192.46 69.43 190.49 76.85
  A 1.53 1.53 0.0 0 0 191.70 78.76
  L 193.20 79.02
  A 0.44 0.44 0.0 0 1 193.48 79.71
  L 192.88 80.58
  A 0.42 0.42 0.0 0 1 192.19 80.58
  L 191.95 80.23
  A 0.40 0.40 0.0 0 0 191.26 80.28
  L 189.38 83.98
  A 1.26 1.21 4.9 0 1 188.63 84.59
  L 188.04 84.75
  L 189.17 57.85
  Q 189.31 54.63 186.85 56.72
  L 183.15 59.88
  Q 182.50 60.43 182.49 59.59
  L 182.48 59.24
  A 1.35 1.34 -24.7 0 1 182.81 58.36
  C 184.19 56.79 190.80 49.33 190.24 47.59
  A 0.82 0.82 0.0 0 0 189.01 47.15
  Q 183.47 50.78 179.43 55.91
  Q 165.86 73.16 155.90 89.66
  Q 153.42 93.76 153.95 88.99
  Q 156.36 67.24 159.95 46.36
  Q 163.47 42.27 166.66 37.89
  C 173.83 28.04 183.72 20.24 194.72 10.23
  Q 200.92 4.60 206.46 1.71
  Q 206.89 1.48 207.26 0.75
  A 0.31 0.31 0.0 0 0 207.04 0.31
  Q 206.75 0.25 206.56 0.00
  Z
  M 212.45 16.99
  A 0.78 0.77 24.9 0 1 212.12 16.11
  L 213.15 12.73
  A 0.70 0.70 0.0 0 0 212.56 11.83
  C 210.50 11.58 211.75 17.49 212.18 18.32
  Q 212.51 18.95 212.72 18.27
  Q 213.01 17.34 212.45 16.99
  Z"
/>
<path fill="#ffffff" d="
  M 214.56 0.00
  L 405.31 0.00
  L 399.03 0.73
  Q 396.72 1.00 396.32 3.29
  C 395.71 6.74 402.47 8.44 404.96 9.50
  Q 407.10 11.82 409.03 14.30
  C 411.76 17.79 414.47 20.17 417.51 23.10
  Q 417.93 23.50 417.93 22.92
  C 417.95 21.10 409.46 11.84 407.46 9.75
  Q 407.13 8.76 407.49 7.88
  A 0.47 0.46 -63.0 0 1 408.15 7.66
  Q 413.85 11.06 418.98 15.27
  C 426.58 21.52 428.60 31.82 433.98 39.33
  Q 440.11 47.87 449.04 53.75
  A 0.47 0.46 26.8 0 0 449.73 53.53
  C 449.98 52.85 448.89 50.59 449.15 49.20
  A 1.43 1.42 34.6 0 0 448.96 48.19
  L 445.82 43.16
  Q 445.53 42.70 445.97 43.01
  Q 447.82 44.33 448.98 44.19
  A 0.63 0.62 88.9 0 0 449.53 43.61
  L 450.00 36.81
  L 450.00 235.56
  C 449.82 233.95 449.50 230.64 448.84 230.51
  A 0.47 0.47 0.0 0 0 448.28 230.92
  Q 447.88 234.86 444.20 236.09
  A 1.33 1.30 -82.9 0 0 443.51 236.64
  Q 437.42 246.30 429.57 254.58
  C 427.75 256.50 426.74 258.89 425.60 261.19
  C 422.02 268.43 416.09 274.28 409.20 278.45
  C 407.79 279.31 405.72 279.40 403.91 280.71
  Q 401.88 282.18 399.52 283.14
  A 1.64 1.61 40.4 0 1 398.51 283.21
  Q 396.97 282.83 395.95 284.23
  Q 395.41 284.98 396.30 284.76
  Q 397.10 284.57 397.73 284.96
  Q 398.18 285.25 398.72 285.27
  L 417.44 286.00
  L 200.44 286.00
  Q 201.51 285.52 202.20 285.67
  A 0.89 0.89 0.0 0 0 203.26 284.60
  C 201.85 278.41 199.33 275.72 196.02 270.64
  C 194.04 267.59 190.15 266.15 188.81 262.94
  C 185.21 254.31 187.46 245.28 185.25 235.79
  Q 191.28 231.05 195.80 225.10
  Q 196.52 224.16 195.34 224.19
  Q 189.16 224.36 183.25 222.96
  C 184.07 218.69 184.68 215.13 186.76 211.26
  C 187.97 208.99 189.25 203.23 184.35 204.57
  Q 183.06 204.92 183.49 203.66
  Q 184.38 201.03 182.91 197.47
  Q 192.54 186.37 205.27 179.02
  A 0.28 0.28 0.0 0 1 205.69 179.26
  L 206.04 243.07
  A 1.80 1.79 15.2 0 0 206.93 244.62
  C 209.80 246.34 219.04 235.49 220.50 233.21
  C 224.13 234.30 224.41 236.72 226.45 239.07
  A 0.55 0.54 52.5 0 0 227.17 239.17
  L 232.40 235.76
  A 1.20 1.18 34.4 0 1 233.34 235.59
  C 235.19 236.03 236.65 236.66 238.55 236.76
  C 244.43 237.06 250.00 236.94 256.12 237.46
  Q 266.91 238.36 277.14 236.93
  Q 279.00 236.67 280.34 235.36
  L 289.29 226.67
  A 0.35 0.35 0.0 0 1 289.87 226.82
  Q 291.73 232.88 295.12 238.17
  Q 296.60 240.47 298.98 239.13
  L 304.49 236.03
  A 1.36 1.35 -52.1 0 1 305.50 235.90
  C 315.25 238.52 319.96 234.48 327.53 229.61
  A 0.35 0.35 0.0 0 1 328.06 229.83
  Q 330.83 242.70 344.32 245.36
  C 358.78 248.21 368.17 243.16 378.85 233.18
  C 393.06 219.90 400.04 202.99 397.74 183.48
  C 396.33 171.50 382.56 164.34 371.96 163.03
  C 364.55 162.11 358.36 164.06 352.35 168.75
  C 339.51 178.78 334.29 193.45 329.95 208.52
  Q 328.11 214.90 327.87 221.15
  Q 327.77 224.02 324.89 224.09
  Q 315.06 224.31 306.50 219.76
  Q 304.08 218.48 303.79 215.76
  C 302.51 203.37 303.51 187.24 316.28 180.28
  C 322.68 176.79 327.21 174.45 330.81 167.67
  Q 331.55 166.26 329.98 166.50
  C 321.92 167.70 309.71 179.59 304.37 185.53
  Q 303.75 186.22 303.75 185.29
  L 303.75 167.27
  A 0.39 0.38 81.2 0 0 303.25 166.90
  C 296.49 169.06 290.32 176.65 290.79 184.11
  C 291.60 196.87 290.55 210.30 288.81 223.00
  A 0.82 0.81 -5.3 0 1 288.26 223.66
  C 277.68 227.12 264.31 224.72 253.37 224.07
  C 249.10 223.82 244.62 223.04 240.18 222.63
  A 1.18 1.18 0.0 0 1 239.35 222.19
  Q 238.28 220.86 238.50 219.21
  Q 259.33 211.68 273.72 195.50
  Q 275.23 193.80 275.68 191.29
  A 0.52 0.52 0.0 0 0 275.27 190.69
  Q 272.39 190.17 269.99 190.27
  Q 252.10 190.97 233.89 195.19
  A 0.42 0.41 81.3 0 1 233.38 194.81
  Q 233.09 190.23 233.84 185.65
  C 235.55 175.25 275.72 172.70 284.06 171.96
  C 289.01 171.52 294.01 165.18 296.02 161.22
  Q 297.02 159.26 294.82 159.37
  C 273.07 160.43 247.29 163.63 231.70 180.20
  Q 225.86 186.40 219.06 195.85
  Q 218.53 196.59 218.54 195.68
  L 218.64 172.14
  A 0.66 0.66 0.0 0 1 219.21 171.49
  C 226.39 170.51 231.72 164.99 235.24 158.98
  A 0.37 0.36 -70.2 0 0 234.99 158.44
  C 229.42 157.34 223.68 161.55 219.29 164.50
  A 0.33 0.33 0.0 0 1 218.78 164.26
  L 218.44 160.95
  A 0.43 0.43 0.0 0 0 217.83 160.60
  Q 210.33 164.13 206.43 171.21
  Q 205.39 173.11 203.87 174.22
  Q 193.27 181.98 183.75 191.04
  Q 183.18 191.06 182.80 190.71
  A 0.74 0.74 0.0 0 1 182.62 189.88
  C 183.53 187.62 182.19 182.67 182.26 179.92
  A 1.06 1.06 0.0 0 1 182.65 179.12
  Q 183.98 178.02 183.46 176.59
  Q 183.22 175.92 182.91 176.56
  L 182.17 178.09
  Q 181.68 179.10 181.15 178.11
  L 178.96 173.97
  A 0.50 0.49 71.4 0 1 179.31 173.25
  C 188.59 171.62 188.20 164.57 188.92 157.26
  C 189.42 152.27 186.00 148.43 186.40 142.98
  C 186.68 139.16 188.38 128.20 186.71 125.25
  L 190.24 121.22
  A 0.73 0.72 50.6 0 0 190.32 120.38
  Q 187.81 116.09 187.79 110.75
  Q 187.71 94.35 188.04 84.75
  L 188.63 84.59
  A 1.26 1.21 4.9 0 0 189.38 83.98
  L 191.26 80.28
  A 0.40 0.40 0.0 0 1 191.95 80.23
  L 192.19 80.58
  A 0.42 0.42 0.0 0 0 192.88 80.58
  L 193.48 79.71
  A 0.44 0.44 0.0 0 0 193.20 79.02
  L 191.70 78.76
  A 1.53 1.53 0.0 0 1 190.49 76.85
  Q 192.46 69.43 195.21 62.95
  Q 196.07 60.93 198.21 61.75
  Q 198.29 73.75 198.24 85.75
  Q 198.24 87.31 195.80 89.04
  A 0.83 0.83 0.0 0 0 195.51 90.03
  Q 195.94 91.11 197.16 91.12
  A 1.08 1.08 0.0 0 1 198.24 92.20
  Q 198.26 105.71 198.25 119.88
  C 198.25 122.10 198.93 124.11 199.28 126.33
  A 0.87 0.86 -27.2 0 1 199.03 127.10
  L 198.27 127.85
  A 0.84 0.84 0.0 0 0 198.11 128.82
  C 199.88 132.35 202.29 131.40 204.54 129.11
  Q 208.77 124.82 213.06 120.56
  A 1.53 1.52 70.1 0 0 213.50 119.62
  Q 213.66 118.08 212.77 116.81
  Q 212.45 116.35 212.39 115.80
  Q 210.71 101.15 211.36 86.42
  A 1.06 1.04 -13.8 0 1 211.90 85.54
  L 223.17 79.21
  A 0.33 0.33 0.0 0 1 223.67 79.49
  Q 224.04 102.09 224.24 124.68
  Q 224.29 129.74 225.31 135.82
  Q 225.76 138.56 228.04 136.97
  Q 233.50 133.19 237.55 127.92
  Q 238.56 126.60 238.27 124.96
  Q 236.90 117.12 236.84 108.99
  Q 236.68 88.52 236.82 67.97
  A 1.35 1.34 -24.7 0 1 237.15 67.09
  Q 243.56 59.51 245.85 49.10
  C 246.86 44.49 245.11 39.71 239.74 40.60
  C 234.01 41.55 228.69 47.51 226.51 52.44
  C 224.21 57.63 223.93 65.29 223.75 71.41
  A 1.01 1.01 0.0 0 1 223.13 72.31
  L 212.06 76.99
  A 0.62 0.62 0.0 0 1 211.19 76.43
  L 210.94 45.73
  A 0.33 0.33 0.0 0 0 210.47 45.44
  Q 203.90 48.34 199.13 54.43
  Q 204.93 31.54 207.44 23.49
  Q 207.70 22.66 209.22 21.07
  Q 209.57 20.70 209.67 21.20
  Q 210.55 25.39 209.98 27.20
  Q 207.14 36.25 205.35 45.56
  Q 205.25 46.09 205.72 45.83
  Q 206.45 45.42 206.70 44.69
  Q 213.99 23.16 214.79 18.26
  C 215.76 12.29 216.47 6.59 218.12 0.79
  A 0.39 0.38 10.0 0 0 217.78 0.31
  L 214.56 0.00
  Z
  M 396.80 79.45
  C 396.74 77.98 396.64 76.31 396.92 74.86
  Q 400.57 55.90 403.16 36.67
  Q 403.39 34.94 401.88 35.82
  C 397.48 38.39 391.19 43.78 390.27 49.26
  Q 387.47 66.06 384.73 82.91
  A 0.68 0.67 -83.8 0 1 384.03 83.48
  L 377.37 83.20
  Q 374.98 83.10 374.29 80.82
  Q 373.56 78.46 373.57 75.51
  Q 373.61 59.87 373.38 44.26
  A 0.34 0.33 -11.8 0 0 372.91 43.96
  C 365.98 47.07 360.38 53.18 360.44 61.09
  Q 360.54 75.64 360.53 90.18
  C 360.53 98.63 375.97 96.35 381.15 96.26
  A 1.53 1.53 0.0 0 1 382.70 97.96
  C 381.37 109.48 378.79 126.48 384.60 136.17
  Q 385.78 138.14 387.70 136.89
  Q 393.91 132.87 398.03 126.79
  A 1.64 1.63 -44.3 0 0 398.06 125.00
  C 391.91 115.23 394.29 100.08 395.49 89.00
  A 4.04 4.02 -20.0 0 1 396.59 86.65
  Q 399.23 83.94 401.34 79.93
  C 403.09 76.60 397.57 79.66 397.28 79.77
  A 0.35 0.35 0.0 0 1 396.80 79.45
  Z
  M 277.11 72.03
  C 282.39 64.57 285.70 54.48 282.98 45.43
  A 1.03 1.02 85.2 0 0 282.12 44.70
  C 268.45 43.15 256.26 50.34 247.16 60.92
  Q 245.19 63.22 244.89 65.29
  Q 244.81 65.85 245.29 65.54
  L 250.59 62.08
  Q 251.33 61.59 251.32 62.48
  L 250.96 89.02
  Q 250.96 89.52 250.71 89.96
  L 245.65 98.99
  Q 245.03 100.11 246.29 99.90
  L 250.30 99.22
  A 0.59 0.59 0.0 0 1 250.98 99.90
  C 248.82 112.50 249.25 124.09 249.95 136.87
  A 0.45 0.45 0.0 0 0 250.64 137.22
  L 255.00 134.45
  A 0.74 0.73 42.5 0 1 255.74 134.42
  Q 259.11 136.19 262.93 136.09
  C 281.99 135.61 292.47 126.58 302.72 111.62
  Q 302.99 111.21 303.02 111.70
  C 303.41 118.26 305.05 125.42 312.26 124.81
  C 319.50 124.21 328.71 111.44 332.13 105.64
  Q 332.39 105.20 332.78 105.14
  A 0.45 0.45 0.0 0 1 333.29 105.62
  C 332.77 112.57 332.21 118.26 333.49 124.47
  C 335.48 134.10 343.61 124.10 346.75 120.90
  C 348.79 118.82 350.48 116.48 347.00 114.58
  A 1.08 1.07 8.8 0 1 346.47 113.86
  Q 345.31 108.40 345.64 99.93
  C 346.23 84.98 348.33 70.35 349.28 59.25
  Q 349.50 56.62 348.84 52.75
  A 0.43 0.42 75.0 0 0 348.28 52.42
  C 340.25 55.32 337.38 60.33 335.96 68.71
  Q 332.29 90.37 322.27 110.63
  A 1.23 1.23 0.0 0 1 320.59 111.17
  C 318.29 109.92 316.76 107.61 316.58 104.81
  C 315.22 83.93 318.28 55.38 331.46 38.20
  Q 332.76 36.50 330.68 37.00
  Q 330.03 37.16 328.57 38.11
  C 315.39 46.70 304.02 56.26 292.05 66.37
  C 287.16 70.51 283.41 72.23 277.32 72.43
  Q 276.81 72.44 277.11 72.03
  Z
  M 191.50 97.36
  C 190.44 98.35 190.71 102.40 191.02 103.75
  A 1.64 1.64 0.0 0 1 190.95 104.67
  Q 190.06 106.85 190.24 109.22
  Q 190.32 110.45 190.61 109.25
  Q 191.97 103.49 191.91 97.54
  Q 191.91 96.99 191.50 97.36
  Z
  M 442.60 236.84
  C 444.90 234.40 450.12 227.56 449.34 223.70
  Q 449.24 223.19 448.99 223.65
  Q 443.76 233.29 441.97 235.22
  Q 437.43 240.12 433.61 245.61
  A 0.43 0.42 -64.1 0 0 433.83 246.26
  C 434.26 246.38 441.66 237.84 442.60 236.84
  Z
  M 412.13 273.79
  Q 409.44 277.45 412.45 274.04
  Q 415.53 270.55 420.85 266.43
  Q 421.26 266.11 420.79 266.33
  Q 416.00 268.52 412.13 273.79
  Z"
/>
<path fill="#dadada" d="
  M 405.31 0.00
  L 450.00 0.00
  L 450.00 36.81
  L 449.53 43.61
  A 0.63 0.62 88.9 0 1 448.98 44.19
  Q 447.82 44.33 445.97 43.01
  Q 445.53 42.70 445.82 43.16
  L 448.96 48.19
  A 1.43 1.42 34.6 0 1 449.15 49.20
  C 448.89 50.59 449.98 52.85 449.73 53.53
  A 0.47 0.46 26.8 0 1 449.04 53.75
  Q 440.11 47.87 433.98 39.33
  C 428.60 31.82 426.58 21.52 418.98 15.27
  Q 413.85 11.06 408.15 7.66
  A 0.47 0.46 -63.0 0 0 407.49 7.88
  Q 407.13 8.76 407.46 9.75
  L 405.64 8.31
  A 0.31 0.31 0.0 0 0 405.15 8.49
  L 404.96 9.50
  C 402.47 8.44 395.71 6.74 396.32 3.29
  Q 396.72 1.00 399.03 0.73
  L 405.31 0.00
  Z"
/>
<path fill="#c3c3c3" d="
  M 407.46 9.75
  C 409.46 11.84 417.95 21.10 417.93 22.92
  Q 417.93 23.50 417.51 23.10
  C 414.47 20.17 411.76 17.79 409.03 14.30
  Q 407.10 11.82 404.96 9.50
  L 405.15 8.49
  A 0.31 0.31 0.0 0 1 405.64 8.31
  L 407.46 9.75
  Z"
/>
<path fill="#0b0b0b" d="
  M 83.09 27.81
  L 69.53 31.87
  Q 67.62 32.44 67.67 34.44
  C 68.05 49.33 67.43 63.88 69.10 78.32
  Q 70.50 100.97 76.35 122.98
  Q 76.79 124.63 75.72 125.98
  Q 71.08 131.84 65.14 136.39
  A 1.02 1.01 64.5 0 1 63.54 135.82
  Q 60.06 121.63 57.79 107.25
  Q 53.72 72.59 55.28 37.68
  Q 55.41 34.62 56.67 32.46
  Q 60.40 26.02 67.02 23.53
  Q 71.32 21.91 95.50 14.46
  Q 106.00 11.05 117.11 10.90
  Q 119.59 10.87 117.99 12.76
  Q 112.65 19.13 106.18 24.19
  Q 104.32 25.65 102.43 24.23
  C 100.19 22.55 86.10 26.85 83.09 27.81
  Z"
/>
<path fill="#ffffff" d="
  M 212.45 16.99
  Q 213.01 17.34 212.72 18.27
  Q 212.51 18.95 212.18 18.32
  C 211.75 17.49 210.50 11.58 212.56 11.83
  A 0.70 0.70 0.0 0 1 213.15 12.73
  L 212.12 16.11
  A 0.78 0.77 24.9 0 0 212.45 16.99
  Z"
/>
<path fill="#ffffff" d="
  M 83.09 27.81
  L 79.79 41.04
  A 0.83 0.82 -62.7 0 0 80.05 41.86
  Q 83.28 44.61 80.96 48.72
  Q 77.36 55.10 73.44 61.29
  A 1.40 1.38 58.2 0 0 73.23 62.21
  Q 74.34 71.13 69.10 78.32
  C 67.43 63.88 68.05 49.33 67.67 34.44
  Q 67.62 32.44 69.53 31.87
  L 83.09 27.81
  Z
  M 78.21 43.63
  C 76.89 47.22 73.77 52.05 73.80 55.68
  Q 73.80 56.18 73.99 55.72
  Q 75.85 51.11 79.06 47.31
  C 79.97 46.22 81.01 44.34 80.12 43.29
  A 1.12 1.12 0.0 0 0 78.21 43.63
  Z"
/>
<path fill="#dadada" d="
  M 159.00 40.71
  Q 154.54 42.05 150.27 45.02
  Q 151.36 37.36 156.64 32.39
  Q 159.03 30.13 162.73 29.36
  A 0.43 0.43 0.0 0 1 163.25 29.79
  L 163.24 30.65
  A 0.43 0.43 0.0 0 0 163.88 31.03
  Q 165.44 30.16 167.22 29.76
  Q 169.68 29.22 168.23 31.28
  Q 164.31 36.89 159.00 40.71
  Z"
/>
<path fill="#0b0b0b" d="
  M 397.28 79.77
  C 397.57 79.66 403.09 76.60 401.34 79.93
  Q 399.23 83.94 396.59 86.65
  A 4.04 4.02 -20.0 0 0 395.49 89.00
  C 394.29 100.08 391.91 115.23 398.06 125.00
  A 1.64 1.63 -44.3 0 1 398.03 126.79
  Q 393.91 132.87 387.70 136.89
  Q 385.78 138.14 384.60 136.17
  C 378.79 126.48 381.37 109.48 382.70 97.96
  A 1.53 1.53 0.0 0 0 381.15 96.26
  C 375.97 96.35 360.53 98.63 360.53 90.18
  Q 360.54 75.64 360.44 61.09
  C 360.38 53.18 365.98 47.07 372.91 43.96
  A 0.34 0.33 -11.8 0 1 373.38 44.26
  Q 373.61 59.87 373.57 75.51
  Q 373.56 78.46 374.29 80.82
  Q 374.98 83.10 377.37 83.20
  L 384.03 83.48
  A 0.68 0.67 -83.8 0 0 384.73 82.91
  Q 387.47 66.06 390.27 49.26
  C 391.19 43.78 397.48 38.39 401.88 35.82
  Q 403.39 34.94 403.16 36.67
  Q 400.57 55.90 396.92 74.86
  C 396.64 76.31 396.74 77.98 396.80 79.45
  A 0.35 0.35 0.0 0 0 397.28 79.77
  Z"
/>
<path fill="#0b0b0b" d="
  M 277.32 72.43
  C 283.41 72.23 287.16 70.51 292.05 66.37
  C 304.02 56.26 315.39 46.70 328.57 38.11
  Q 330.03 37.16 330.68 37.00
  Q 332.76 36.50 331.46 38.20
  C 318.28 55.38 315.22 83.93 316.58 104.81
  C 316.76 107.61 318.29 109.92 320.59 111.17
  A 1.23 1.23 0.0 0 0 322.27 110.63
  Q 332.29 90.37 335.96 68.71
  C 337.38 60.33 340.25 55.32 348.28 52.42
  A 0.43 0.42 75.0 0 1 348.84 52.75
  Q 349.50 56.62 349.28 59.25
  C 348.33 70.35 346.23 84.98 345.64 99.93
  Q 345.31 108.40 346.47 113.86
  A 1.08 1.07 8.8 0 0 347.00 114.58
  C 350.48 116.48 348.79 118.82 346.75 120.90
  C 343.61 124.10 335.48 134.10 333.49 124.47
  C 332.21 118.26 332.77 112.57 333.29 105.62
  A 0.45 0.45 0.0 0 0 332.78 105.14
  Q 332.39 105.20 332.13 105.64
  C 328.71 111.44 319.50 124.21 312.26 124.81
  C 305.05 125.42 303.41 118.26 303.02 111.70
  Q 302.99 111.21 302.72 111.62
  C 292.47 126.58 281.99 135.61 262.93 136.09
  Q 259.11 136.19 255.74 134.42
  A 0.74 0.73 42.5 0 0 255.00 134.45
  L 250.64 137.22
  A 0.45 0.45 0.0 0 1 249.95 136.87
  C 249.25 124.09 248.82 112.50 250.98 99.90
  A 0.59 0.59 0.0 0 0 250.30 99.22
  L 246.29 99.90
  Q 245.03 100.11 245.65 98.99
  L 250.71 89.96
  Q 250.96 89.52 250.96 89.02
  L 251.32 62.48
  Q 251.33 61.59 250.59 62.08
  L 245.29 65.54
  Q 244.81 65.85 244.89 65.29
  Q 245.19 63.22 247.16 60.92
  C 256.26 50.34 268.45 43.15 282.12 44.70
  A 1.03 1.02 85.2 0 1 282.98 45.43
  C 285.70 54.48 282.39 64.57 277.11 72.03
  Q 276.81 72.44 277.32 72.43
  Z
  M 305.57 81.80
  C 308.33 69.86 310.38 62.99 314.23 54.06
  Q 314.81 52.70 313.66 53.62
  L 293.66 69.60
  Q 293.20 69.97 293.78 70.06
  Q 303.30 71.54 304.09 81.21
  A 0.98 0.97 15.9 0 0 304.48 81.90
  L 304.77 82.11
  A 0.52 0.52 0.0 0 0 305.57 81.80
  Z
  M 264.99 58.35
  L 263.92 77.68
  A 0.43 0.42 85.4 0 0 264.43 78.12
  C 270.48 76.76 273.00 62.04 269.55 57.34
  A 1.04 1.03 66.9 0 0 268.54 56.93
  L 265.80 57.43
  A 1.00 0.99 86.7 0 0 264.99 58.35
  Z
  M 274.35 85.38
  C 265.22 91.58 260.34 101.61 262.63 112.34
  C 265.63 126.46 279.00 125.11 288.91 120.59
  Q 291.04 119.61 291.53 117.33
  Q 293.45 108.42 292.26 99.47
  C 291.81 96.10 291.78 92.67 290.08 89.14
  C 286.90 82.56 280.27 81.36 274.35 85.38
  Z
  M 263.6540 90.0584
  A 3.88 0.65 133.2 0 0 266.7838 87.6750
  A 3.88 0.65 133.2 0 0 268.9660 84.4016
  A 3.88 0.65 133.2 0 0 265.8362 86.7850
  A 3.88 0.65 133.2 0 0 263.6540 90.0584
  Z"
/>
<path fill="#0b0b0b" d="
  M 198.21 61.75
  L 199.13 54.43
  Q 203.90 48.34 210.47 45.44
  A 0.33 0.33 0.0 0 1 210.94 45.73
  L 211.19 76.43
  A 0.62 0.62 0.0 0 0 212.06 76.99
  L 223.13 72.31
  A 1.01 1.01 0.0 0 0 223.75 71.41
  C 223.93 65.29 224.21 57.63 226.51 52.44
  C 228.69 47.51 234.01 41.55 239.74 40.60
  C 245.11 39.71 246.86 44.49 245.85 49.10
  Q 243.56 59.51 237.15 67.09
  A 1.35 1.34 -24.7 0 0 236.82 67.97
  Q 236.68 88.52 236.84 108.99
  Q 236.90 117.12 238.27 124.96
  Q 238.56 126.60 237.55 127.92
  Q 233.50 133.19 228.04 136.97
  Q 225.76 138.56 225.31 135.82
  Q 224.29 129.74 224.24 124.68
  Q 224.04 102.09 223.67 79.49
  A 0.33 0.33 0.0 0 0 223.17 79.21
  L 211.90 85.54
  A 1.06 1.04 -13.8 0 0 211.36 86.42
  Q 210.71 101.15 212.39 115.80
  Q 212.45 116.35 212.77 116.81
  Q 213.66 118.08 213.50 119.62
  A 1.53 1.52 70.1 0 1 213.06 120.56
  Q 208.77 124.82 204.54 129.11
  C 202.29 131.40 199.88 132.35 198.11 128.82
  A 0.84 0.84 0.0 0 1 198.27 127.85
  L 199.03 127.10
  A 0.87 0.86 -27.2 0 0 199.28 126.33
  C 198.93 124.11 198.25 122.10 198.25 119.88
  Q 198.26 105.71 198.24 92.20
  A 1.08 1.08 0.0 0 0 197.16 91.12
  Q 195.94 91.11 195.51 90.03
  A 0.83 0.83 0.0 0 1 195.80 89.04
  Q 198.24 87.31 198.24 85.75
  Q 198.29 73.75 198.21 61.75
  Z"
/>
<path fill="#0b0b0b" d="
  M 159.00 40.71
  Q 160.08 43.18 159.95 46.36
  Q 156.36 67.24 153.95 88.99
  Q 153.42 93.76 155.90 89.66
  Q 165.86 73.16 179.43 55.91
  Q 183.47 50.78 189.01 47.15
  A 0.82 0.82 0.0 0 1 190.24 47.59
  C 190.80 49.33 184.19 56.79 182.81 58.36
  A 1.35 1.34 -24.7 0 0 182.48 59.24
  L 182.49 59.59
  Q 182.50 60.43 183.15 59.88
  L 186.85 56.72
  Q 189.31 54.63 189.17 57.85
  L 188.04 84.75
  Q 187.71 94.35 187.79 110.75
  Q 187.81 116.09 190.32 120.38
  A 0.73 0.72 50.6 0 1 190.24 121.22
  L 186.71 125.25
  L 179.27 131.97
  A 1.27 1.27 0.0 0 1 177.38 131.76
  C 175.83 129.55 175.16 127.71 175.09 124.85
  Q 174.41 96.94 176.24 70.46
  Q 176.45 67.51 174.83 69.99
  Q 164.87 85.29 155.88 100.94
  C 153.97 104.27 153.49 107.94 157.57 109.56
  A 0.94 0.93 32.4 0 1 157.91 111.07
  Q 152.97 116.38 148.00 120.91
  C 146.81 121.98 145.13 121.92 144.26 123.17
  C 142.42 125.80 133.00 138.56 129.13 137.62
  A 0.33 0.33 0.0 0 1 128.92 137.15
  L 140.31 115.71
  Q 141.12 114.19 141.13 112.47
  Q 141.20 87.63 146.11 63.41
  C 146.73 60.34 146.55 57.18 146.33 54.17
  Q 146.29 53.67 145.89 53.96
  L 138.22 59.41
  A 0.71 0.70 -22.8 0 0 137.93 60.11
  Q 141.54 81.65 139.28 103.46
  Q 139.12 104.92 138.29 106.14
  Q 133.33 113.41 126.38 119.77
  L 120.41 123.59
  C 113.73 126.96 108.74 125.67 102.09 126.35
  A 0.65 0.65 0.0 0 0 101.51 127.00
  L 101.48 146.29
  A 1.40 1.40 0.0 0 1 99.79 147.65
  L 89.18 145.36
  A 0.67 0.67 0.0 0 1 88.65 144.72
  Q 87.90 110.86 89.30 83.81
  Q 89.60 78.04 89.35 74.99
  Q 89.31 74.39 88.84 74.78
  L 86.26 76.92
  A 0.87 0.87 0.0 0 1 85.27 76.99
  C 83.25 75.78 89.02 68.87 89.67 67.24
  Q 92.39 60.42 99.01 56.72
  C 106.76 52.38 113.67 47.75 122.75 46.71
  Q 132.37 45.47 135.74 54.14
  A 1.24 1.24 0.0 0 0 137.65 54.67
  L 150.27 45.02
  Q 154.54 42.05 159.00 40.71
  Z
  M 115.13 59.91
  Q 110.33 59.65 105.01 60.67
  Q 102.39 61.18 102.47 63.85
  Q 102.82 76.09 101.28 88.20
  Q 101.12 89.53 102.06 88.58
  L 122.50 68.07
  A 1.11 1.09 64.1 0 0 122.81 67.15
  Q 122.39 63.94 120.43 61.92
  Q 118.66 60.09 115.13 59.91
  Z
  M 120.54 113.00
  L 126.20 112.73
  A 1.09 1.09 0.0 0 0 127.24 111.64
  L 127.21 93.50
  Q 127.07 82.74 124.83 72.17
  Q 124.61 71.13 123.84 71.86
  Q 114.85 80.48 106.30 89.80
  C 102.01 94.47 102.80 100.05 102.74 105.79
  A 1.77 1.73 -61.4 0 0 103.00 106.71
  Q 108.97 116.31 120.54 113.00
  Z"
/>
<path fill="#dadada" d="
  M 78.21 43.63
  A 1.12 1.12 0.0 0 1 80.12 43.29
  C 81.01 44.34 79.97 46.22 79.06 47.31
  Q 75.85 51.11 73.99 55.72
  Q 73.80 56.18 73.80 55.68
  C 73.77 52.05 76.89 47.22 78.21 43.63
  Z"
/>
<path fill="#ffffff" d="
  M 314.23 54.06
  C 310.38 62.99 308.33 69.86 305.57 81.80
  A 0.52 0.52 0.0 0 1 304.77 82.11
  L 304.48 81.90
  A 0.98 0.97 15.9 0 1 304.09 81.21
  Q 303.30 71.54 293.78 70.06
  Q 293.20 69.97 293.66 69.60
  L 313.66 53.62
  Q 314.81 52.70 314.23 54.06
  Z"
/>
<path fill="#ffffff" d="
  M 265.80 57.43
  L 268.54 56.93
  A 1.04 1.03 66.9 0 1 269.55 57.34
  C 273.00 62.04 270.48 76.76 264.43 78.12
  A 0.43 0.42 85.4 0 1 263.92 77.68
  L 264.99 58.35
  A 1.00 0.99 86.7 0 1 265.80 57.43
  Z"
/>
<path fill="#dadada" d="
  M 120.43 61.92
  Q 122.39 63.94 122.81 67.15
  A 1.11 1.09 64.1 0 1 122.50 68.07
  L 102.06 88.58
  Q 101.12 89.53 101.28 88.20
  Q 102.82 76.09 102.47 63.85
  Q 102.39 61.18 105.01 60.67
  Q 110.33 59.65 115.13 59.91
  Q 118.66 60.09 120.43 61.92
  Z"
/>
<path fill="#dadada" d="
  M 127.21 93.50
  Q 124.06 93.13 123.43 96.24
  Q 121.77 104.58 120.54 113.00
  Q 108.97 116.31 103.00 106.71
  A 1.77 1.73 -61.4 0 1 102.74 105.79
  C 102.80 100.05 102.01 94.47 106.30 89.80
  Q 114.85 80.48 123.84 71.86
  Q 124.61 71.13 124.83 72.17
  Q 127.07 82.74 127.21 93.50
  Z"
/>
<path fill="#ffffff" d="
  M 262.63 112.34
  C 260.34 101.61 265.22 91.58 274.35 85.38
  C 280.27 81.36 286.90 82.56 290.08 89.14
  C 291.78 92.67 291.81 96.10 292.26 99.47
  Q 293.45 108.42 291.53 117.33
  Q 291.04 119.61 288.91 120.59
  C 279.00 125.11 265.63 126.46 262.63 112.34
  Z"
/>
<ellipse fill="#c3c3c3" cx="0.00" cy="0.00" transform="translate(266.31,87.23) rotate(133.2)" rx="3.88" ry="0.65"/>
<path fill="#c3c3c3" d="
  M 127.21 93.50
  L 127.24 111.64
  A 1.09 1.09 0.0 0 1 126.20 112.73
  L 120.54 113.00
  Q 121.77 104.58 123.43 96.24
  Q 124.06 93.13 127.21 93.50
  Z"
/>
<path fill="#dadada" d="
  M 191.02 103.75
  C 190.71 102.40 190.44 98.35 191.50 97.36
  Q 191.91 96.99 191.91 97.54
  Q 191.97 103.49 190.61 109.25
  Q 190.32 110.45 190.24 109.22
  Q 190.06 106.85 190.95 104.67
  A 1.64 1.64 0.0 0 0 191.02 103.75
  Z"
/>
<path fill="#c3c3c3" d="
  M 126.38 119.77
  Q 125.16 125.60 121.37 130.24
  Q 121.02 130.67 120.93 131.21
  Q 120.77 132.20 119.99 132.83
  Q 119.21 133.45 119.65 132.56
  Q 121.89 127.99 120.41 123.59
  L 126.38 119.77
  Z"
/>
<path fill="#0b0b0b" d="
  M 111.50 164.46
  L 108.04 180.25
  C 104.48 195.28 104.45 210.83 103.95 226.23
  A 1.69 1.68 -79.8 0 0 105.09 227.88
  C 108.93 229.20 109.19 222.90 109.71 220.50
  Q 111.86 214.03 115.04 208.00
  L 121.46 197.25
  L 125.04 192.05
  Q 136.77 175.46 152.48 162.74
  C 153.97 161.54 158.91 157.61 160.78 158.06
  A 0.80 0.80 0.0 0 1 161.19 159.36
  L 157.19 163.97
  A 1.42 1.41 -28.6 0 0 156.85 165.10
  L 160.23 190.98
  A 0.90 0.89 77.7 0 0 161.38 191.72
  L 178.60 186.52
  Q 179.50 186.25 179.17 187.13
  C 176.61 194.08 168.95 198.78 162.38 201.27
  A 0.63 0.62 72.2 0 0 162.00 202.01
  Q 164.04 209.72 164.76 217.67
  Q 164.86 218.77 165.21 217.72
  C 168.55 207.61 175.13 199.54 183.75 191.04
  Q 193.27 181.98 203.87 174.22
  Q 205.39 173.11 206.43 171.21
  Q 210.33 164.13 217.83 160.60
  A 0.43 0.43 0.0 0 1 218.44 160.95
  L 218.78 164.26
  A 0.33 0.33 0.0 0 0 219.29 164.50
  C 223.68 161.55 229.42 157.34 234.99 158.44
  A 0.37 0.36 -70.2 0 1 235.24 158.98
  C 231.72 164.99 226.39 170.51 219.21 171.49
  A 0.66 0.66 0.0 0 0 218.64 172.14
  L 218.54 195.68
  Q 218.53 196.59 219.06 195.85
  Q 225.86 186.40 231.70 180.20
  C 247.29 163.63 273.07 160.43 294.82 159.37
  Q 297.02 159.26 296.02 161.22
  C 294.01 165.18 289.01 171.52 284.06 171.96
  C 275.72 172.70 235.55 175.25 233.84 185.65
  Q 233.09 190.23 233.38 194.81
  A 0.42 0.41 81.3 0 0 233.89 195.19
  Q 252.10 190.97 269.99 190.27
  Q 272.39 190.17 275.27 190.69
  A 0.52 0.52 0.0 0 1 275.68 191.29
  Q 275.23 193.80 273.72 195.50
  Q 259.33 211.68 238.50 219.21
  Q 238.18 216.57 236.43 215.01
  A 1.92 1.91 -39.9 0 0 234.16 214.81
  C 230.94 216.79 214.12 228.85 220.50 233.21
  C 219.04 235.49 209.80 246.34 206.93 244.62
  A 1.80 1.79 15.2 0 1 206.04 243.07
  L 205.69 179.26
  A 0.28 0.28 0.0 0 0 205.27 179.02
  Q 192.54 186.37 182.91 197.47
  C 178.04 203.48 172.23 219.47 183.25 222.96
  Q 189.16 224.36 195.34 224.19
  Q 196.52 224.16 195.80 225.10
  Q 191.28 231.05 185.25 235.79
  C 179.65 238.33 173.38 236.36 167.71 234.33
  A 0.89 0.88 -54.6 0 0 166.85 234.48
  C 162.31 238.23 158.84 242.77 153.76 245.74
  Q 152.52 246.47 153.00 245.12
  C 154.05 242.19 154.25 239.88 153.60 236.63
  Q 150.56 221.25 147.75 205.79
  A 0.46 0.46 0.0 0 0 147.18 205.43
  Q 137.57 208.20 127.93 210.92
  Q 124.48 211.89 122.98 212.54
  A 1.36 1.36 0.0 0 0 122.30 213.19
  Q 118.97 220.00 125.06 223.94
  C 127.71 225.65 135.16 228.74 138.47 227.36
  C 147.27 223.71 133.43 236.52 132.45 237.43
  Q 127.55 242.04 121.54 239.67
  Q 120.72 239.35 121.00 240.19
  L 121.59 242.00
  Q 121.71 242.37 121.72 242.76
  L 121.97 253.44
  A 1.58 1.57 -29.8 0 1 121.73 254.31
  C 119.09 258.42 108.37 271.61 102.40 273.68
  A 0.60 0.60 0.0 0 1 101.67 273.39
  C 100.61 271.30 105.81 265.77 107.20 264.14
  C 109.51 261.43 109.46 260.33 109.06 256.94
  Q 108.25 250.04 105.19 243.75
  A 1.10 1.10 0.0 0 0 103.45 243.43
  L 96.19 250.25
  A 0.78 0.77 -31.3 0 1 94.93 249.95
  L 92.07 241.86
  Q 91.42 240.02 89.50 240.39
  Q 66.11 244.94 45.75 252.96
  Q 41.78 254.55 37.56 255.13
  Q 37.06 255.19 37.28 254.74
  Q 40.29 248.59 45.98 244.73
  L 53.34 240.75
  A 0.72 0.71 71.3 0 0 53.70 240.01
  C 51.15 224.16 51.02 210.04 51.04 191.25
  C 51.04 186.67 51.24 184.03 53.90 180.10
  C 59.95 171.14 65.60 163.11 76.72 160.12
  C 86.20 157.58 100.13 154.06 109.80 155.90
  Q 112.14 156.34 111.96 158.72
  L 111.50 164.46
  Z
  M 67.50 235.26
  L 67.10 235.99
  Q 66.92 236.33 67.29 236.22
  L 90.71 229.20
  A 0.60 0.58 -8.8 0 0 91.13 228.64
  Q 91.50 202.68 97.85 177.53
  Q 98.50 174.99 98.73 169.29
  A 0.56 0.55 5.2 0 0 98.25 168.72
  C 88.12 167.36 76.21 170.05 66.31 173.25
  Q 64.12 173.95 64.06 176.25
  C 63.60 195.52 63.96 214.46 67.66 234.27
  A 1.49 1.46 -36.5 0 1 67.50 235.26
  Z
  M 144.18 174.20
  Q 143.58 175.33 140.68 178.92
  Q 132.44 189.13 126.31 200.47
  Q 125.94 201.14 126.69 200.97
  L 145.31 196.63
  A 1.14 1.13 -10.6 0 0 146.18 195.37
  L 143.81 177.02
  A 1.35 1.35 0.0 0 1 144.01 176.13
  Q 144.82 174.83 144.53 174.21
  Q 144.37 173.85 144.18 174.20
  Z
  M 254.83 203.44
  Q 245.79 203.54 236.98 205.22
  Q 234.77 205.64 235.43 207.79
  L 236.79 212.23
  A 0.58 0.57 -22.1 0 0 237.60 212.57
  L 254.96 203.96
  Q 256.03 203.43 254.83 203.44
  Z"
/>
<path fill="#ffffff" d="
  M 125.04 192.05
  L 121.46 197.25
  Q 120.92 197.37 120.37 197.16
  A 1.05 1.05 0.0 0 1 119.72 196.38
  Q 119.28 194.27 117.77 192.84
  A 0.76 0.76 0.0 0 1 117.62 191.92
  C 117.97 191.26 118.34 190.81 118.31 190.01
  Q 117.88 178.57 119.71 167.29
  A 0.73 0.73 0.0 0 0 119.23 166.49
  L 118.99 166.41
  A 0.59 0.58 6.4 0 1 118.59 165.92
  Q 118.07 161.44 119.06 157.09
  Q 119.23 156.32 119.75 156.92
  Q 122.97 160.69 122.89 166.19
  Q 122.74 176.42 123.72 181.50
  Q 125.06 188.44 125.04 192.05
  Z"
/>
<path fill="#0b0b0b" d="
  M 220.50 233.21
  C 214.12 228.85 230.94 216.79 234.16 214.81
  A 1.92 1.91 -39.9 0 1 236.43 215.01
  Q 238.18 216.57 238.50 219.21
  Q 238.28 220.86 239.35 222.19
  A 1.18 1.18 0.0 0 0 240.18 222.63
  C 244.62 223.04 249.10 223.82 253.37 224.07
  C 264.31 224.72 277.68 227.12 288.26 223.66
  A 0.82 0.81 -5.3 0 0 288.81 223.00
  C 290.55 210.30 291.60 196.87 290.79 184.11
  C 290.32 176.65 296.49 169.06 303.25 166.90
  A 0.39 0.38 81.2 0 1 303.75 167.27
  L 303.75 185.29
  Q 303.75 186.22 304.37 185.53
  C 309.71 179.59 321.92 167.70 329.98 166.50
  Q 331.55 166.26 330.81 167.67
  C 327.21 174.45 322.68 176.79 316.28 180.28
  C 303.51 187.24 302.51 203.37 303.79 215.76
  Q 304.08 218.48 306.50 219.76
  Q 315.06 224.31 324.89 224.09
  Q 327.77 224.02 327.87 221.15
  Q 328.11 214.90 329.95 208.52
  C 334.29 193.45 339.51 178.78 352.35 168.75
  C 358.36 164.06 364.55 162.11 371.96 163.03
  C 382.56 164.34 396.33 171.50 397.74 183.48
  C 400.04 202.99 393.06 219.90 378.85 233.18
  C 368.17 243.16 358.78 248.21 344.32 245.36
  Q 330.83 242.70 328.06 229.83
  A 0.35 0.35 0.0 0 0 327.53 229.61
  C 319.96 234.48 315.25 238.52 305.50 235.90
  A 1.36 1.35 -52.1 0 0 304.49 236.03
  L 298.98 239.13
  Q 296.60 240.47 295.12 238.17
  Q 291.73 232.88 289.87 226.82
  A 0.35 0.35 0.0 0 0 289.29 226.67
  L 280.34 235.36
  Q 279.00 236.67 277.14 236.93
  Q 266.91 238.36 256.12 237.46
  C 250.00 236.94 244.43 237.06 238.55 236.76
  C 236.65 236.66 235.19 236.03 233.34 235.59
  A 1.20 1.18 34.4 0 0 232.40 235.76
  L 227.17 239.17
  A 0.55 0.54 52.5 0 1 226.45 239.07
  C 224.41 236.72 224.13 234.30 220.50 233.21
  Z
  M 349.82 178.23
  Q 345.53 186.16 344.59 195.14
  A 1.20 1.19 -61.7 0 0 344.84 195.98
  C 347.03 198.75 343.79 209.58 342.49 212.55
  C 333.89 232.21 371.91 240.07 379.07 227.23
  C 383.91 218.57 389.35 196.58 381.43 187.31
  Q 370.78 174.84 353.98 175.62
  Q 351.16 175.75 349.82 178.23
  Z"
/>
<path fill="#ffffff" d="
  M 111.50 164.46
  C 112.51 164.32 112.98 164.81 112.99 165.81
  Q 113.14 175.17 112.75 184.54
  A 0.66 0.65 -3.8 0 1 112.20 185.16
  C 110.97 185.35 108.69 181.24 108.04 180.25
  L 111.50 164.46
  Z"
/>
<path fill="#dadada" d="
  M 67.66 234.27
  C 63.96 214.46 63.60 195.52 64.06 176.25
  Q 64.12 173.95 66.31 173.25
  C 76.21 170.05 88.12 167.36 98.25 168.72
  A 0.56 0.55 5.2 0 1 98.73 169.29
  Q 98.50 174.99 97.85 177.53
  Q 91.50 202.68 91.13 228.64
  A 0.60 0.58 -8.8 0 1 90.71 229.20
  L 67.29 236.22
  Q 66.92 236.33 67.10 235.99
  L 67.50 235.26
  A 1.49 1.46 -36.5 0 0 67.66 234.27
  Z"
/>
<path fill="#dadada" d="
  M 144.53 174.21
  Q 144.82 174.83 144.01 176.13
  A 1.35 1.35 0.0 0 0 143.81 177.02
  L 146.18 195.37
  A 1.14 1.13 -10.6 0 1 145.31 196.63
  L 126.69 200.97
  Q 125.94 201.14 126.31 200.47
  Q 132.44 189.13 140.68 178.92
  Q 143.58 175.33 144.18 174.20
  Q 144.37 173.85 144.53 174.21
  Z"
/>
<path fill="#ffffff" d="
  M 349.82 178.23
  Q 351.16 175.75 353.98 175.62
  Q 370.78 174.84 381.43 187.31
  C 389.35 196.58 383.91 218.57 379.07 227.23
  C 371.91 240.07 333.89 232.21 342.49 212.55
  C 343.79 209.58 347.03 198.75 344.84 195.98
  A 1.20 1.19 -61.7 0 1 344.59 195.14
  Q 345.53 186.16 349.82 178.23
  Z"
/>
<path fill="#ffffff" d="
  M 115.04 208.00
  Q 111.86 214.03 109.71 220.50
  Q 109.03 220.39 108.48 220.01
  A 0.80 0.80 0.0 0 1 108.13 219.23
  Q 108.69 215.01 109.16 210.77
  C 109.57 207.01 111.25 202.38 111.07 197.79
  C 111.06 197.51 111.25 197.19 111.45 197.02
  A 0.39 0.39 0.0 0 1 112.05 197.15
  C 114.19 201.62 111.11 203.31 111.94 206.70
  A 0.67 0.66 -5.8 0 0 112.56 207.20
  Q 113.88 207.24 115.04 208.00
  Z"
/>
<path fill="#dadada" d="
  M 182.91 197.47
  Q 184.38 201.03 183.49 203.66
  Q 183.06 204.92 184.35 204.57
  C 189.25 203.23 187.97 208.99 186.76 211.26
  C 184.68 215.13 184.07 218.69 183.25 222.96
  C 172.23 219.47 178.04 203.48 182.91 197.47
  Z"
/>
<path fill="#ffffff" d="
  M 41.50 200.04
  Q 41.62 199.32 42.03 199.92
  Q 45.42 204.73 42.52 209.96
  Q 42.07 210.76 41.86 209.86
  Q 40.72 205.00 41.50 200.04
  Z"
/>
<path fill="#ffffff" d="
  M 254.96 203.96
  L 237.60 212.57
  A 0.58 0.57 -22.1 0 1 236.79 212.23
  L 235.43 207.79
  Q 234.77 205.64 236.98 205.22
  Q 245.79 203.54 254.83 203.44
  Q 256.03 203.43 254.96 203.96
  Z"
/>
<path fill="#dadada" d="
  M 185.25 235.79
  C 187.46 245.28 185.21 254.31 188.81 262.94
  C 190.15 266.15 194.04 267.59 196.02 270.64
  C 199.33 275.72 201.85 278.41 203.26 284.60
  A 0.89 0.89 0.0 0 1 202.20 285.67
  Q 201.51 285.52 200.44 286.00
  L 137.88 286.03
  Q 135.45 282.57 135.46 277.76
  Q 135.46 277.16 135.12 277.03
  A 0.46 0.45 -72.3 0 0 134.52 277.35
  Q 134.13 278.90 132.71 279.49
  A 0.99 0.99 0.0 0 1 131.36 278.80
  Q 129.91 272.40 127.53 266.16
  C 126.86 264.42 127.28 262.11 125.46 260.54
  Q 124.99 260.14 125.10 260.74
  L 129.08 284.22
  A 1.17 1.16 -89.7 0 1 127.73 285.56
  C 126.03 285.25 122.90 265.31 122.33 262.53
  Q 122.23 262.04 121.89 262.40
  C 120.61 263.76 117.72 267.14 115.24 267.28
  A 0.99 0.98 14.6 0 0 114.47 267.73
  Q 113.32 269.53 113.47 271.76
  Q 113.91 278.36 113.79 285.02
  A 0.77 0.76 78.3 0 1 113.35 285.70
  L 112.69 286.00
  L 106.44 286.00
  Q 103.44 286.16 103.14 283.53
  A 0.32 0.31 -17.9 0 0 102.67 283.29
  L 102.44 283.42
  A 0.15 0.12 83.7 0 0 102.37 283.53
  L 102.18 285.10
  A 0.72 0.69 0.4 0 1 101.53 285.72
  L 97.69 286.00
  L 51.44 286.00
  L 45.51 285.52
  A 0.56 0.55 2.9 0 1 45.01 284.97
  Q 44.99 277.60 44.40 270.29
  Q 44.20 267.73 44.83 264.78
  Q 46.09 258.94 45.75 252.96
  Q 66.11 244.94 89.50 240.39
  Q 91.42 240.02 92.07 241.86
  L 94.93 249.95
  A 0.78 0.77 -31.3 0 0 96.19 250.25
  L 103.45 243.43
  A 1.10 1.10 0.0 0 1 105.19 243.75
  Q 108.25 250.04 109.06 256.94
  C 109.46 260.33 109.51 261.43 107.20 264.14
  C 105.81 265.77 100.61 271.30 101.67 273.39
  A 0.60 0.60 0.0 0 0 102.40 273.68
  C 108.37 271.61 119.09 258.42 121.73 254.31
  A 1.58 1.57 -29.8 0 0 121.97 253.44
  L 121.72 242.76
  Q 121.71 242.37 121.59 242.00
  L 121.00 240.19
  Q 120.72 239.35 121.54 239.67
  Q 127.55 242.04 132.45 237.43
  C 133.43 236.52 147.27 223.71 138.47 227.36
  C 135.16 228.74 127.71 225.65 125.06 223.94
  Q 118.97 220.00 122.30 213.19
  A 1.36 1.36 0.0 0 1 122.98 212.54
  Q 124.48 211.89 127.93 210.92
  Q 137.57 208.20 147.18 205.43
  A 0.46 0.46 0.0 0 1 147.75 205.79
  Q 150.56 221.25 153.60 236.63
  C 154.25 239.88 154.05 242.19 153.00 245.12
  Q 152.52 246.47 153.76 245.74
  C 158.84 242.77 162.31 238.23 166.85 234.48
  A 0.89 0.88 -54.6 0 1 167.71 234.33
  C 173.38 236.36 179.65 238.33 185.25 235.79
  Z
  M 133.81 273.44
  Q 133.92 272.49 133.23 272.17
  Q 132.49 271.82 132.80 272.58
  L 133.49 274.22
  Q 133.70 274.72 133.97 274.25
  Q 134.19 273.85 133.81 273.44
  Z"
/>
<path fill="#dadada" d="
  M 449.34 223.70
  C 450.12 227.56 444.90 234.40 442.60 236.84
  C 441.66 237.84 434.26 246.38 433.83 246.26
  A 0.43 0.42 -64.1 0 1 433.61 245.61
  Q 437.43 240.12 441.97 235.22
  Q 443.76 233.29 448.99 223.65
  Q 449.24 223.19 449.34 223.70
  Z"
/>
<path fill="#dadada" d="
  M 450.00 235.56
  L 450.00 286.00
  L 417.44 286.00
  L 398.72 285.27
  Q 398.18 285.25 397.73 284.96
  Q 397.10 284.57 396.30 284.76
  Q 395.41 284.98 395.95 284.23
  Q 396.97 282.83 398.51 283.21
  A 1.64 1.61 40.4 0 0 399.52 283.14
  Q 401.88 282.18 403.91 280.71
  C 405.72 279.40 407.79 279.31 409.20 278.45
  C 416.09 274.28 422.02 268.43 425.60 261.19
  C 426.74 258.89 427.75 256.50 429.57 254.58
  Q 437.42 246.30 443.51 236.64
  A 1.33 1.30 -82.9 0 1 444.20 236.09
  Q 447.88 234.86 448.28 230.92
  A 0.47 0.47 0.0 0 1 448.84 230.51
  C 449.50 230.64 449.82 233.95 450.00 235.56
  Z"
/>
<path fill="#ffffff" d="
  M 137.88 286.03
  L 112.69 286.00
  L 113.35 285.70
  A 0.77 0.76 78.3 0 0 113.79 285.02
  Q 113.91 278.36 113.47 271.76
  Q 113.32 269.53 114.47 267.73
  A 0.99 0.98 14.6 0 1 115.24 267.28
  C 117.72 267.14 120.61 263.76 121.89 262.40
  Q 122.23 262.04 122.33 262.53
  C 122.90 265.31 126.03 285.25 127.73 285.56
  A 1.17 1.16 -89.7 0 0 129.08 284.22
  L 125.10 260.74
  Q 124.99 260.14 125.46 260.54
  C 127.28 262.11 126.86 264.42 127.53 266.16
  Q 129.91 272.40 131.36 278.80
  A 0.99 0.99 0.0 0 0 132.71 279.49
  Q 134.13 278.90 134.52 277.35
  A 0.46 0.45 -72.3 0 1 135.12 277.03
  Q 135.46 277.16 135.46 277.76
  Q 135.45 282.57 137.88 286.03
  Z"
/>
<path fill="#dadada" d="
  M 412.13 273.79
  Q 416.00 268.52 420.79 266.33
  Q 421.26 266.11 420.85 266.43
  Q 415.53 270.55 412.45 274.04
  Q 409.44 277.45 412.13 273.79
  Z"
/>
<path fill="#ffffff" d="
  M 133.81 273.44
  Q 134.19 273.85 133.97 274.25
  Q 133.70 274.72 133.49 274.22
  L 132.80 272.58
  Q 132.49 271.82 133.23 272.17
  Q 133.92 272.49 133.81 273.44
  Z"
/>
<path fill="#ffffff" d="
  M 106.44 286.00
  L 97.69 286.00
  L 101.53 285.72
  A 0.72 0.69 0.4 0 0 102.18 285.10
  L 102.37 283.53
  A 0.15 0.12 83.7 0 1 102.44 283.42
  L 102.67 283.29
  A 0.32 0.31 -17.9 0 1 103.14 283.53
  Q 103.44 286.16 106.44 286.00
  Z"
/>
</svg>
