<?xml version="1.0" encoding="UTF-8" standalone="no"?>
<!-- Created with Inkscape (http://www.inkscape.org/) -->

<svg
   xmlns:dc="http://purl.org/dc/elements/1.1/"
   xmlns:cc="http://creativecommons.org/ns#"
   xmlns:rdf="http://www.w3.org/1999/02/22-rdf-syntax-ns#"
   xmlns:svg="http://www.w3.org/2000/svg"
   xmlns="http://www.w3.org/2000/svg"
   xmlns:sodipodi="http://sodipodi.sourceforge.net/DTD/sodipodi-0.dtd"
   xmlns:inkscape="http://www.inkscape.org/namespaces/inkscape"
   width="400"
   height="600"
   viewBox="0 0 105.83333 158.75"
   version="1.1"
   id="svg8"
   inkscape:version="0.92.4 (5da689c313, 2019-01-14)"
   sodipodi:docname="38_m.svg">
  <defs
     id="defs2" />
  <sodipodi:namedview
     id="base"
     pagecolor="#ffffff"
     bordercolor="#666666"
     borderopacity="1.0"
     inkscape:pageopacity="0.0"
     inkscape:pageshadow="2"
     inkscape:zoom="0.90627519"
     inkscape:cx="288.81417"
     inkscape:cy="318.35247"
     inkscape:document-units="mm"
     inkscape:current-layer="layer1"
     showgrid="false"
     units="px"
     showguides="true"
     inkscape:guide-bbox="true"
     inkscape:window-width="1280"
     inkscape:window-height="968"
     inkscape:window-x="0"
     inkscape:window-y="0"
     inkscape:window-maximized="1">
    <sodipodi:guide
       position="20.78869,60.476191"
       orientation="1,0"
       id="guide859"
       inkscape:locked="false" />
    <sodipodi:guide
       position="20.78869,128.88988"
       orientation="1,0"
       id="guide863"
       inkscape:locked="false" />
    <sodipodi:guide
       position="12.85119,57.641369"
       orientation="1,0"
       id="guide865"
       inkscape:locked="false" />
    <sodipodi:guide
       position="32.339612,108.51143"
       orientation="0,1"
       id="guide867"
       inkscape:locked="false" />
    <sodipodi:guide
       position="-9.0871638,97.553376"
       orientation="0,1"
       id="guide2596"
       inkscape:locked="false" />
    <sodipodi:guide
       position="-16.036171,64.144687"
       orientation="0,1"
       id="guide2598"
       inkscape:locked="false" />
  </sodipodi:namedview>
  <metadata
     id="metadata5">
    <rdf:RDF>
      <cc:Work
         rdf:about="">
        <dc:format>image/svg+xml</dc:format>
        <dc:type
           rdf:resource="http://purl.org/dc/dcmitype/StillImage" />
        <dc:title></dc:title>
      </cc:Work>
    </rdf:RDF>
  </metadata>
  <g
     inkscape:label="Layer 1"
     inkscape:groupmode="layer"
     id="layer1"
     transform="translate(0,-138.24998)">
    <rect
       style="opacity:1;fill:#ffffff;fill-opacity:0.60101007;stroke:#000000;stroke-width:0.27790931;stroke-miterlimit:4;stroke-dasharray:none;stroke-dashoffset:0;stroke-opacity:1"
       id="rect10"
       width="105.4538"
       height="158.75175"
       x="0.17799145"
       y="138.24911"
       ry="7.9375877" />
    <flowRoot
       xml:space="preserve"
       id="flowRoot851"
       style="fill:black;fill-opacity:1;stroke:none;font-family:sans-serif;font-style:normal;font-weight:normal;font-size:40px;line-height:0;letter-spacing:0px;word-spacing:0px"><flowRegion
         id="flowRegion853"><rect
           id="rect855"
           width="114.28571"
           height="65.714287"
           x="47.142857"
           y="194.28572" /></flowRegion><flowPara
         id="flowPara857" /></flowRoot>    <text
       xml:space="preserve"
       style="font-style:normal;font-weight:normal;font-size:33.90801239px;line-height:0;font-family:sans-serif;letter-spacing:0px;word-spacing:0px;fill:#666666;fill-opacity:1;stroke:none;stroke-width:0.84770024"
       x="16.134531"
       y="174.63515"
       id="text827"><tspan
         sodipodi:role="line"
         id="tspan825"
         x="16.134531"
         y="174.63515"
         style="font-style:normal;font-variant:normal;font-weight:bold;font-stretch:normal;font-family:Arsenal;-inkscape-font-specification:'Arsenal Bold';fill:#666666;stroke-width:0.84770024">38</tspan></text>
    <g
       id="g39521"
       transform="matrix(0.19492696,0,0,0.19492696,7.3973428,177.10618)">
      <g
         id="g39308"
         style="fill:none;stroke-width:2;stroke-linecap:butt">
        <path
           id="path39162"
           d="m 105.31,0 -1.56,0.42 a 1.54,1.5 10 0 0 -0.78,0.53 c -2.56,3.36 -7.57,9.26 -7.47,13.51"
           inkscape:connector-curvature="0"
           style="vector-effect:non-scaling-stroke;stroke:#ededed" />
        <path
           id="path39164"
           d="m 95.5,14.46 q -24.18,7.45 -28.48,9.07 -6.62,2.49 -10.35,8.93 -1.26,2.16 -1.39,5.22 -1.56,34.91 2.51,69.57"
           inkscape:connector-curvature="0"
           style="vector-effect:non-scaling-stroke;stroke:#858585" />
        <path
           id="path39166"
           d="m 57.79,107.25 -0.04,1.01 a 1.23,1.22 69.2 0 1 -0.37,0.83 q -1.45,1.45 -1.32,3.51 0.03,0.48 -0.16,0.93 -1.32,3.13 -2.09,6.43 c -0.96,4.09 -3.35,7.15 -4.27,11.26 q -0.44,2 -1.3,3.88 -0.22,0.47 -0.25,-0.05 -0.33,-6.07 2.21,-11.61 0.37,-0.81 -0.13,-3.2 a 1.57,1.53 51.8 0 1 0.1,-0.94 c 0.44,-1 1.74,-5.25 0.75,-5.61 a 0.44,0.44 0 0 0 -0.59,0.36 c -0.36,3.77 -1.46,11.66 -3.85,14.62 q -0.64,0.8 -0.49,-0.21 0.31,-2.08 -0.03,-4.2 -0.23,-1.45 -0.47,0 c -1.86,11.38 -5.41,23.27 -6.8,33.95 -1.57,12.08 -1.12,24.93 -0.11,37.06 0.16,1.91 1.29,4.37 1.36,5.79 0.3,6.45 0.39,12.78 1.45,19.1 q 2.07,12.31 4.59,24.57"
           inkscape:connector-curvature="0"
           style="vector-effect:non-scaling-stroke;stroke:#ededed" />
        <path
           id="path39168"
           d="m 45.98,244.73 q -5.69,3.86 -8.7,10.01 -0.22,0.45 0.28,0.39 4.22,-0.58 8.19,-2.17"
           inkscape:connector-curvature="0"
           style="vector-effect:non-scaling-stroke;stroke:#858585" />
        <path
           id="path39170"
           d="m 45.75,252.96 q 0.34,5.98 -0.92,11.82 -0.63,2.95 -0.43,5.51 0.59,7.31 0.61,14.68 a 0.56,0.55 2.9 0 0 0.5,0.55 l 5.93,0.48"
           inkscape:connector-curvature="0"
           style="vector-effect:non-scaling-stroke;stroke:#ededed" />
        <path
           id="path39172"
           d="m 138.06,0 q -1.91,6.39 -1.97,12.97 c -0.07,8.28 -5.04,12.15 -7.38,19.28 q -2.43,7.46 -5.96,14.46"
           inkscape:connector-curvature="0"
           style="vector-effect:non-scaling-stroke;stroke:#cfcfcf" />
        <path
           id="path39174"
           d="m 122.75,46.71 c -9.08,1.04 -15.99,5.67 -23.74,10.01 q -6.62,3.7 -9.34,10.52 c -0.65,1.63 -6.42,8.54 -4.4,9.75 a 0.87,0.87 0 0 0 0.99,-0.07 l 2.58,-2.14 q 0.47,-0.39 0.51,0.21 0.25,3.05 -0.05,8.82 -1.4,27.05 -0.65,60.91 a 0.67,0.67 0 0 0 0.53,0.64 l 10.61,2.29 a 1.4,1.4 0 0 0 1.69,-1.36 L 101.51,127 a 0.65,0.65 0 0 1 0.58,-0.65 c 6.65,-0.68 11.64,0.61 18.32,-2.76"
           inkscape:connector-curvature="0"
           style="vector-effect:non-scaling-stroke;stroke:#737373" />
        <path
           id="path39176"
           d="m 120.41,123.59 q 1.48,4.4 -0.76,8.97 -0.44,0.89 0.34,0.27 0.78,-0.63 0.94,-1.62 0.09,-0.54 0.44,-0.97 3.79,-4.64 5.01,-10.47"
           inkscape:connector-curvature="0"
           style="vector-effect:non-scaling-stroke;stroke:#cfcfcf" />
        <path
           id="path39178"
           d="m 126.38,119.77 q 6.95,-6.36 11.91,-13.63 0.83,-1.22 0.99,-2.68 2.26,-21.81 -1.35,-43.35 a 0.71,0.7 -22.8 0 1 0.29,-0.7 l 7.67,-5.45 q 0.4,-0.29 0.44,0.21 c 0.22,3.01 0.4,6.17 -0.22,9.24 q -4.91,24.22 -4.98,49.06 -0.01,1.72 -0.82,3.24 l -11.39,21.44 a 0.33,0.33 0 0 0 0.21,0.47 c 3.87,0.94 13.29,-11.82 15.13,-14.45 0.87,-1.25 2.55,-1.19 3.74,-2.26 q 4.97,-4.53 9.91,-9.84 a 0.94,0.93 32.4 0 0 -0.34,-1.51 c -4.08,-1.62 -3.6,-5.29 -1.69,-8.62 q 8.99,-15.65 18.95,-30.95 1.62,-2.48 1.41,0.47 -1.83,26.48 -1.15,54.39 c 0.07,2.86 0.74,4.7 2.29,6.91 a 1.27,1.27 0 0 0 1.89,0.21 l 7.44,-6.72"
           inkscape:connector-curvature="0"
           style="vector-effect:non-scaling-stroke;stroke:#737373" />
        <path
           id="path39180"
           d="m 186.71,125.25 c 1.67,2.95 -0.03,13.91 -0.31,17.73 -0.4,5.45 3.02,9.29 2.52,14.28 -0.72,7.31 -0.33,14.36 -9.61,15.99 a 0.5,0.49 71.4 0 0 -0.35,0.72 l 2.19,4.14 q 0.53,0.99 1.02,-0.02 l 0.74,-1.53 q 0.31,-0.64 0.55,0.03 0.52,1.43 -0.81,2.53 a 1.06,1.06 0 0 0 -0.39,0.8 c -0.07,2.75 1.27,7.7 0.36,9.96 a 0.74,0.74 0 0 0 0.18,0.83 q 0.38,0.35 0.95,0.33"
           inkscape:connector-curvature="0"
           style="vector-effect:non-scaling-stroke;stroke:#ededed" />
        <path
           id="path39182"
           d="m 183.75,191.04 c -8.62,8.5 -15.2,16.57 -18.54,26.68 q -0.35,1.05 -0.45,-0.05 -0.72,-7.95 -2.76,-15.66 a 0.63,0.62 72.2 0 1 0.38,-0.74 c 6.57,-2.49 14.23,-7.19 16.79,-14.14 q 0.33,-0.88 -0.57,-0.61 l -17.22,5.2 a 0.9,0.89 77.7 0 1 -1.15,-0.74 l -3.38,-25.88 a 1.42,1.41 -28.6 0 1 0.34,-1.13 l 4,-4.61 a 0.8,0.8 0 0 0 -0.41,-1.3 c -1.87,-0.45 -6.81,3.48 -8.3,4.68 q -15.71,12.72 -27.44,29.31"
           inkscape:connector-curvature="0"
           style="vector-effect:non-scaling-stroke;stroke:#737373" />
        <path
           id="path39184"
           d="m 125.04,192.05 q 0.02,-3.61 -1.32,-10.55 -0.98,-5.08 -0.83,-15.31 0.08,-5.5 -3.14,-9.27 -0.52,-0.6 -0.69,0.17 -0.99,4.35 -0.47,8.83 a 0.59,0.58 6.4 0 0 0.4,0.49 l 0.24,0.08 a 0.73,0.73 0 0 1 0.48,0.8 q -1.83,11.28 -1.4,22.72 c 0.03,0.8 -0.34,1.25 -0.69,1.91 a 0.76,0.76 0 0 0 0.15,0.92 q 1.51,1.43 1.95,3.54 a 1.05,1.05 0 0 0 0.65,0.78 q 0.55,0.21 1.09,0.09"
           inkscape:connector-curvature="0"
           style="vector-effect:non-scaling-stroke;stroke:#ededed" />
        <path
           id="path39186"
           d="M 121.46,197.25 115.04,208"
           inkscape:connector-curvature="0"
           style="vector-effect:non-scaling-stroke;stroke:#737373" />
        <path
           id="path39188"
           d="m 115.04,208 q -1.16,-0.76 -2.48,-0.8 a 0.67,0.66 -5.8 0 1 -0.62,-0.5 c -0.83,-3.39 2.25,-5.08 0.11,-9.55 a 0.39,0.39 0 0 0 -0.6,-0.13 c -0.2,0.17 -0.39,0.49 -0.38,0.77 0.18,4.59 -1.5,9.22 -1.91,12.98 q -0.47,4.24 -1.03,8.46 a 0.8,0.8 0 0 0 0.35,0.78 q 0.55,0.38 1.23,0.49"
           inkscape:connector-curvature="0"
           style="vector-effect:non-scaling-stroke;stroke:#ededed" />
        <path
           id="path39190"
           d="m 109.71,220.5 c -0.52,2.4 -0.78,8.7 -4.62,7.38 a 1.69,1.68 -79.8 0 1 -1.14,-1.65 c 0.5,-15.4 0.53,-30.95 4.09,-45.98"
           inkscape:connector-curvature="0"
           style="vector-effect:non-scaling-stroke;stroke:#737373" />
        <path
           id="path39192"
           d="m 108.04,180.25 c 0.65,0.99 2.93,5.1 4.16,4.91 a 0.66,0.65 -3.8 0 0 0.55,-0.62 q 0.39,-9.37 0.24,-18.73 c -0.01,-1 -0.48,-1.49 -1.49,-1.35"
           inkscape:connector-curvature="0"
           style="vector-effect:non-scaling-stroke;stroke:#ededed" />
        <path
           id="path39194"
           d="m 111.5,164.46 0.46,-5.74 q 0.18,-2.38 -2.16,-2.82 c -9.67,-1.84 -23.6,1.68 -33.08,4.22 -11.12,2.99 -16.77,11.02 -22.82,19.98 -2.66,3.93 -2.86,6.57 -2.86,11.15 -0.02,18.79 0.11,32.91 2.66,48.76 a 0.72,0.71 71.3 0 1 -0.36,0.74 l -7.36,3.98"
           inkscape:connector-curvature="0"
           style="vector-effect:non-scaling-stroke;stroke:#737373" />
        <path
           id="path39196"
           d="m 57.79,107.25 q 2.27,14.38 5.75,28.57 a 1.02,1.01 64.5 0 0 1.6,0.57 q 5.94,-4.55 10.58,-10.41 1.07,-1.35 0.63,-3 Q 70.5,100.97 69.1,78.32"
           inkscape:connector-curvature="0"
           style="vector-effect:non-scaling-stroke;stroke:#737373" />
        <path
           id="path39198"
           d="m 69.1,78.32 q 5.24,-7.19 4.13,-16.11 a 1.4,1.38 58.2 0 1 0.21,-0.92 q 3.92,-6.19 7.52,-12.57 2.32,-4.11 -0.91,-6.86 a 0.83,0.82 -62.7 0 1 -0.26,-0.82 l 3.3,-13.23"
           inkscape:connector-curvature="0"
           style="vector-effect:non-scaling-stroke;stroke:#ededed" />
        <path
           id="path39200"
           d="m 83.09,27.81 c 3.01,-0.96 17.1,-5.26 19.34,-3.58 q 1.89,1.42 3.75,-0.04 6.47,-5.06 11.81,-11.43 1.6,-1.89 -0.88,-1.86 Q 106,11.05 95.5,14.46"
           inkscape:connector-curvature="0"
           style="vector-effect:non-scaling-stroke;stroke:#737373" />
        <path
           id="path39202"
           d="m 41.5,200.04 q -0.78,4.96 0.36,9.82 0.21,0.9 0.66,0.1 2.9,-5.23 -0.49,-10.04 -0.41,-0.6 -0.53,0.12"
           inkscape:connector-curvature="0"
           style="vector-effect:non-scaling-stroke;stroke:#ededed" />
        <path
           id="path39204"
           d="m 206.56,0 q 0.19,0.25 0.48,0.31 a 0.31,0.31 0 0 1 0.22,0.44 q -0.37,0.73 -0.8,0.96 -5.54,2.89 -11.74,8.52 c -11,10.01 -20.89,17.81 -28.06,27.66 q -3.19,4.38 -6.71,8.47"
           inkscape:connector-curvature="0"
           style="vector-effect:non-scaling-stroke;stroke:#cfcfcf" />
        <path
           id="path39206"
           d="M 159.95,46.36 Q 160.08,43.18 159,40.71"
           inkscape:connector-curvature="0"
           style="vector-effect:non-scaling-stroke;stroke:#676767" />
        <path
           id="path39208"
           d="m 159,40.71 q 5.31,-3.82 9.23,-9.43 1.45,-2.06 -1.01,-1.52 -1.78,0.4 -3.34,1.27 a 0.43,0.43 0 0 1 -0.64,-0.38 l 0.01,-0.86 a 0.43,0.43 0 0 0 -0.52,-0.43 q -3.7,0.77 -6.09,3.03 -5.28,4.97 -6.37,12.63"
           inkscape:connector-curvature="0"
           style="vector-effect:non-scaling-stroke;stroke:#cfcfcf" />
        <path
           id="path39210"
           d="m 150.27,45.02 -12.62,9.65 a 1.24,1.24 0 0 1 -1.91,-0.53 q -3.37,-8.67 -12.99,-7.43"
           inkscape:connector-curvature="0"
           style="vector-effect:non-scaling-stroke;stroke:#676767" />
        <path
           id="path39212"
           d="m 214.56,0 3.22,0.31 a 0.39,0.38 10 0 1 0.34,0.48 c -1.65,5.8 -2.36,11.5 -3.33,17.47 q -0.8,4.9 -8.09,26.43 -0.25,0.73 -0.98,1.14 -0.47,0.26 -0.37,-0.27 1.79,-9.31 4.63,-18.36 0.57,-1.81 -0.31,-6 -0.1,-0.5 -0.45,-0.13 -1.52,1.59 -1.78,2.42 -2.51,8.05 -8.31,30.94"
           inkscape:connector-curvature="0"
           style="vector-effect:non-scaling-stroke;stroke:#ededed" />
        <path
           id="path39214"
           d="m 199.13,54.43 -0.92,7.32"
           inkscape:connector-curvature="0"
           style="vector-effect:non-scaling-stroke;stroke:#737373" />
        <path
           id="path39216"
           d="m 198.21,61.75 q -2.14,-0.82 -3,1.2 -2.75,6.48 -4.72,13.9 a 1.53,1.53 0 0 0 1.21,1.91 l 1.5,0.26 a 0.44,0.44 0 0 1 0.28,0.69 l -0.6,0.87 a 0.42,0.42 0 0 1 -0.69,0 l -0.24,-0.35 a 0.4,0.4 0 0 0 -0.69,0.05 l -1.88,3.7 a 1.26,1.21 4.9 0 1 -0.75,0.61 l -0.59,0.16"
           inkscape:connector-curvature="0"
           style="vector-effect:non-scaling-stroke;stroke:#ededed" />
        <path
           id="path39218"
           d="m 188.04,84.75 1.13,-26.9 q 0.14,-3.22 -2.32,-1.13 l -3.7,3.16 q -0.65,0.55 -0.66,-0.29 l -0.01,-0.35 a 1.35,1.34 -24.7 0 1 0.33,-0.88 c 1.38,-1.57 7.99,-9.03 7.43,-10.77 a 0.82,0.82 0 0 0 -1.23,-0.44 q -5.54,3.63 -9.58,8.76 -13.57,17.25 -23.53,33.75 -2.48,4.1 -1.95,-0.67 2.41,-21.75 6,-42.63"
           inkscape:connector-curvature="0"
           style="vector-effect:non-scaling-stroke;stroke:#737373" />
        <path
           id="path39220"
           d="m 212.45,16.99 a 0.78,0.77 24.9 0 1 -0.33,-0.88 l 1.03,-3.38 a 0.7,0.7 0 0 0 -0.59,-0.9 c -2.06,-0.25 -0.81,5.66 -0.38,6.49 q 0.33,0.63 0.54,-0.05 0.29,-0.93 -0.27,-1.28"
           inkscape:connector-curvature="0"
           style="vector-effect:non-scaling-stroke;stroke:#ededed" />
        <path
           id="path39222"
           d="m 405.31,0 -6.28,0.73 Q 396.72,1 396.32,3.29 c -0.61,3.45 6.15,5.15 8.64,6.21"
           inkscape:connector-curvature="0"
           style="vector-effect:non-scaling-stroke;stroke:#ededed" />
        <path
           id="path39224"
           d="m 404.96,9.5 q 2.14,2.32 4.07,4.8 c 2.73,3.49 5.44,5.87 8.48,8.8 q 0.42,0.4 0.42,-0.18 C 417.95,21.1 409.46,11.84 407.46,9.75"
           inkscape:connector-curvature="0"
           style="vector-effect:non-scaling-stroke;stroke:#e1e1e1" />
        <path
           id="path39226"
           d="m 407.46,9.75 q -0.33,-0.99 0.03,-1.87 a 0.47,0.46 -63 0 1 0.66,-0.22 q 5.7,3.4 10.83,7.61 c 7.6,6.25 9.62,16.55 15,24.06 q 6.13,8.54 15.06,14.42 a 0.47,0.46 26.8 0 0 0.69,-0.22 c 0.25,-0.68 -0.84,-2.94 -0.58,-4.33 a 1.43,1.42 34.6 0 0 -0.19,-1.01 l -3.14,-5.03 q -0.29,-0.46 0.15,-0.15 1.85,1.32 3.01,1.18 a 0.63,0.62 88.9 0 0 0.55,-0.58 l 0.47,-6.8"
           inkscape:connector-curvature="0"
           style="vector-effect:non-scaling-stroke;stroke:#ededed" />
        <path
           id="path39228"
           d="m 450,235.56 c -0.18,-1.61 -0.5,-4.92 -1.16,-5.05 a 0.47,0.47 0 0 0 -0.56,0.41 q -0.4,3.94 -4.08,5.17 a 1.33,1.3 -82.9 0 0 -0.69,0.55 q -6.09,9.66 -13.94,17.94 c -1.82,1.92 -2.83,4.31 -3.97,6.61 -3.58,7.24 -9.51,13.09 -16.4,17.26 -1.41,0.86 -3.48,0.95 -5.29,2.26 q -2.03,1.47 -4.39,2.43 a 1.64,1.61 40.4 0 1 -1.01,0.07 q -1.54,-0.38 -2.56,1.02 -0.54,0.75 0.35,0.53 0.8,-0.19 1.43,0.2 0.45,0.29 0.99,0.31 l 18.72,0.73"
           inkscape:connector-curvature="0"
           style="vector-effect:non-scaling-stroke;stroke:#ededed" />
        <path
           id="path39230"
           d="m 200.44,286 q 1.07,-0.48 1.76,-0.33 a 0.89,0.89 0 0 0 1.06,-1.07 c -1.41,-6.19 -3.93,-8.88 -7.24,-13.96 -1.98,-3.05 -5.87,-4.49 -7.21,-7.7 -3.6,-8.63 -1.35,-17.66 -3.56,-27.15"
           inkscape:connector-curvature="0"
           style="vector-effect:non-scaling-stroke;stroke:#ededed" />
        <path
           id="path39232"
           d="m 185.25,235.79 q 6.03,-4.74 10.55,-10.69 0.72,-0.94 -0.46,-0.91 -6.18,0.17 -12.09,-1.23"
           inkscape:connector-curvature="0"
           style="vector-effect:non-scaling-stroke;stroke:#858585" />
        <path
           id="path39234"
           d="m 183.25,222.96 c 0.82,-4.27 1.43,-7.83 3.51,-11.7 1.21,-2.27 2.49,-8.03 -2.41,-6.69 q -1.29,0.35 -0.86,-0.91 0.89,-2.63 -0.58,-6.19"
           inkscape:connector-curvature="0"
           style="vector-effect:non-scaling-stroke;stroke:#ededed" />
        <path
           id="path39236"
           d="m 182.91,197.47 q 9.63,-11.1 22.36,-18.45 a 0.28,0.28 0 0 1 0.42,0.24 l 0.35,63.81 a 1.8,1.79 15.2 0 0 0.89,1.55 c 2.87,1.72 12.11,-9.13 13.57,-11.41"
           inkscape:connector-curvature="0"
           style="vector-effect:non-scaling-stroke;stroke:#858585" />
        <path
           id="path39238"
           d="m 220.5,233.21 c 3.63,1.09 3.91,3.51 5.95,5.86 a 0.55,0.54 52.5 0 0 0.72,0.1 l 5.23,-3.41 a 1.2,1.18 34.4 0 1 0.94,-0.17 c 1.85,0.44 3.31,1.07 5.21,1.17 5.88,0.3 11.45,0.18 17.57,0.7 q 10.79,0.9 21.02,-0.53 1.86,-0.26 3.2,-1.57 l 8.95,-8.69 a 0.35,0.35 0 0 1 0.58,0.15 q 1.86,6.06 5.25,11.35 1.48,2.3 3.86,0.96 l 5.51,-3.1 a 1.36,1.35 -52.1 0 1 1.01,-0.13 c 9.75,2.62 14.46,-1.42 22.03,-6.29 a 0.35,0.35 0 0 1 0.53,0.22 q 2.77,12.87 16.26,15.53 c 14.46,2.85 23.85,-2.2 34.53,-12.18 14.21,-13.28 21.19,-30.19 18.89,-49.7 -1.41,-11.98 -15.18,-19.14 -25.78,-20.45 -7.41,-0.92 -13.6,1.03 -19.61,5.72 -12.84,10.03 -18.06,24.7 -22.4,39.77 q -1.84,6.38 -2.08,12.63 -0.1,2.87 -2.98,2.94 -9.83,0.22 -18.39,-4.33 -2.42,-1.28 -2.71,-4 c -1.28,-12.39 -0.28,-28.52 12.49,-35.48 6.4,-3.49 10.93,-5.83 14.53,-12.61 q 0.74,-1.41 -0.83,-1.17 c -8.06,1.2 -20.27,13.09 -25.61,19.03 q -0.62,0.69 -0.62,-0.24 v -18.02 a 0.39,0.38 81.2 0 0 -0.5,-0.37 c -6.76,2.16 -12.93,9.75 -12.46,17.21 0.81,12.76 -0.24,26.19 -1.98,38.89 a 0.82,0.81 -5.3 0 1 -0.55,0.66 c -10.58,3.46 -23.95,1.06 -34.89,0.41 -4.27,-0.25 -8.75,-1.03 -13.19,-1.44 a 1.18,1.18 0 0 1 -0.83,-0.44 q -1.07,-1.33 -0.85,-2.98"
           inkscape:connector-curvature="0"
           style="vector-effect:non-scaling-stroke;stroke:#858585" />
        <path
           id="path39240"
           d="m 238.5,219.21 q 20.83,-7.53 35.22,-23.71 1.51,-1.7 1.96,-4.21 a 0.52,0.52 0 0 0 -0.41,-0.6 q -2.88,-0.52 -5.28,-0.42 -17.89,0.7 -36.1,4.92 a 0.42,0.41 81.3 0 1 -0.51,-0.38 q -0.29,-4.58 0.46,-9.16 c 1.71,-10.4 41.88,-12.95 50.22,-13.69 4.95,-0.44 9.95,-6.78 11.96,-10.74 q 1,-1.96 -1.2,-1.85 c -21.75,1.06 -47.53,4.26 -63.12,20.83 q -5.84,6.2 -12.64,15.65 -0.53,0.74 -0.52,-0.17 l 0.1,-23.54 a 0.66,0.66 0 0 1 0.57,-0.65 c 7.18,-0.98 12.51,-6.5 16.03,-12.51 a 0.37,0.36 -70.2 0 0 -0.25,-0.54 c -5.57,-1.1 -11.31,3.11 -15.7,6.06 a 0.33,0.33 0 0 1 -0.51,-0.24 l -0.34,-3.31 a 0.43,0.43 0 0 0 -0.61,-0.35 q -7.5,3.53 -11.4,10.61 -1.04,1.9 -2.56,3.01 -10.6,7.76 -20.12,16.82"
           inkscape:connector-curvature="0"
           style="vector-effect:non-scaling-stroke;stroke:#858585" />
        <path
           id="path39242"
           d="m 186.71,125.25 3.53,-4.03 a 0.73,0.72 50.6 0 0 0.08,-0.84 q -2.51,-4.29 -2.53,-9.63 -0.08,-16.4 0.25,-26"
           inkscape:connector-curvature="0"
           style="vector-effect:non-scaling-stroke;stroke:#858585" />
        <path
           id="path39244"
           d="m 198.21,61.75 q 0.08,12 0.03,24 0,1.56 -2.44,3.29 a 0.83,0.83 0 0 0 -0.29,0.99 q 0.43,1.08 1.65,1.09 a 1.08,1.08 0 0 1 1.08,1.08 q 0.02,13.51 0.01,27.68 c 0,2.22 0.68,4.23 1.03,6.45 a 0.87,0.86 -27.2 0 1 -0.25,0.77 l -0.76,0.75 a 0.84,0.84 0 0 0 -0.16,0.97 c 1.77,3.53 4.18,2.58 6.43,0.29 q 4.23,-4.29 8.52,-8.55 a 1.53,1.52 70.1 0 0 0.44,-0.94 q 0.16,-1.54 -0.73,-2.81 -0.32,-0.46 -0.38,-1.01 -1.68,-14.65 -1.03,-29.38 a 1.06,1.04 -13.8 0 1 0.54,-0.88 l 11.27,-6.33 a 0.33,0.33 0 0 1 0.5,0.28 q 0.37,22.6 0.57,45.19 0.05,5.06 1.07,11.14 0.45,2.74 2.73,1.15 5.46,-3.78 9.51,-9.05 1.01,-1.32 0.72,-2.96 -1.37,-7.84 -1.43,-15.97 -0.16,-20.47 -0.02,-41.02 a 1.35,1.34 -24.7 0 1 0.33,-0.88 q 6.41,-7.58 8.7,-17.99 c 1.01,-4.61 -0.74,-9.39 -6.11,-8.5 -5.73,0.95 -11.05,6.91 -13.23,11.84 -2.3,5.19 -2.58,12.85 -2.76,18.97 a 1.01,1.01 0 0 1 -0.62,0.9 l -11.07,4.68 a 0.62,0.62 0 0 1 -0.87,-0.56 l -0.25,-30.7 a 0.33,0.33 0 0 0 -0.47,-0.29 q -6.57,2.9 -11.34,8.99"
           inkscape:connector-curvature="0"
           style="vector-effect:non-scaling-stroke;stroke:#858585" />
        <path
           id="path39246"
           d="m 396.8,79.45 c -0.06,-1.47 -0.16,-3.14 0.12,-4.59 q 3.65,-18.96 6.24,-38.19 0.23,-1.73 -1.28,-0.85 c -4.4,2.57 -10.69,7.96 -11.61,13.44 q -2.8,16.8 -5.54,33.65 a 0.68,0.67 -83.8 0 1 -0.7,0.57 l -6.66,-0.28 q -2.39,-0.1 -3.08,-2.38 -0.73,-2.36 -0.72,-5.31 0.04,-15.64 -0.19,-31.25 a 0.34,0.33 -11.8 0 0 -0.47,-0.3 c -6.93,3.11 -12.53,9.22 -12.47,17.13 q 0.1,14.55 0.09,29.09 c 0,8.45 15.44,6.17 20.62,6.08 a 1.53,1.53 0 0 1 1.55,1.7 c -1.33,11.52 -3.91,28.52 1.9,38.21 q 1.18,1.97 3.1,0.72 6.21,-4.02 10.33,-10.1 a 1.64,1.63 -44.3 0 0 0.03,-1.79 c -6.15,-9.77 -3.77,-24.92 -2.57,-36 a 4.04,4.02 -20 0 1 1.1,-2.35 q 2.64,-2.71 4.75,-6.72 c 1.75,-3.33 -3.77,-0.27 -4.06,-0.16 a 0.35,0.35 0 0 1 -0.48,-0.32"
           inkscape:connector-curvature="0"
           style="vector-effect:non-scaling-stroke;stroke:#858585" />
        <path
           id="path39248"
           d="m 277.11,72.03 c 5.28,-7.46 8.59,-17.55 5.87,-26.6 a 1.03,1.02 85.2 0 0 -0.86,-0.73 c -13.67,-1.55 -25.86,5.64 -34.96,16.22 q -1.97,2.3 -2.27,4.37 -0.08,0.56 0.4,0.25 l 5.3,-3.46 q 0.74,-0.49 0.73,0.4 l -0.36,26.54 q 0,0.5 -0.25,0.94 l -5.06,9.03 q -0.62,1.12 0.64,0.91 l 4.01,-0.68 a 0.59,0.59 0 0 1 0.68,0.68 c -2.16,12.6 -1.73,24.19 -1.03,36.97 a 0.45,0.45 0 0 0 0.69,0.35 l 4.36,-2.77 a 0.74,0.73 42.5 0 1 0.74,-0.03 q 3.37,1.77 7.19,1.67 c 19.06,-0.48 29.54,-9.51 39.79,-24.47 q 0.27,-0.41 0.3,0.08 c 0.39,6.56 2.03,13.72 9.24,13.11 7.24,-0.6 16.45,-13.37 19.87,-19.17 q 0.26,-0.44 0.65,-0.5 a 0.45,0.45 0 0 1 0.51,0.48 c -0.52,6.95 -1.08,12.64 0.2,18.85 1.99,9.63 10.12,-0.37 13.26,-3.57 2.04,-2.08 3.73,-4.42 0.25,-6.32 a 1.08,1.07 8.8 0 1 -0.53,-0.72 q -1.16,-5.46 -0.83,-13.93 c 0.59,-14.95 2.69,-29.58 3.64,-40.68 q 0.22,-2.63 -0.44,-6.5 a 0.43,0.42 75 0 0 -0.56,-0.33 c -8.03,2.9 -10.9,7.91 -12.32,16.29 q -3.67,21.66 -13.69,41.92 a 1.23,1.23 0 0 1 -1.68,0.54 c -2.3,-1.25 -3.83,-3.56 -4.01,-6.36 -1.36,-20.88 1.7,-49.43 14.88,-66.61 q 1.3,-1.7 -0.78,-1.2 -0.65,0.16 -2.11,1.11 c -13.18,8.59 -24.55,18.15 -36.52,28.26 -4.89,4.14 -8.64,5.86 -14.73,6.06 q -0.51,0.01 -0.21,-0.4"
           inkscape:connector-curvature="0"
           style="vector-effect:non-scaling-stroke;stroke:#858585" />
        <path
           id="path39250"
           d="m 191.5,97.36 c -1.06,0.99 -0.79,5.04 -0.48,6.39 a 1.64,1.64 0 0 1 -0.07,0.92 q -0.89,2.18 -0.71,4.55 0.08,1.23 0.37,0.03 1.36,-5.76 1.3,-11.71 0,-0.55 -0.41,-0.18"
           inkscape:connector-curvature="0"
           style="vector-effect:non-scaling-stroke;stroke:#ededed" />
        <path
           id="path39252"
           d="m 442.6,236.84 c 2.3,-2.44 7.52,-9.28 6.74,-13.14 q -0.1,-0.51 -0.35,-0.05 -5.23,9.64 -7.02,11.57 -4.54,4.9 -8.36,10.39 a 0.43,0.42 -64.1 0 0 0.22,0.65 c 0.43,0.12 7.83,-8.42 8.77,-9.42"
           inkscape:connector-curvature="0"
           style="vector-effect:non-scaling-stroke;stroke:#ededed" />
        <path
           id="path39254"
           d="m 412.13,273.79 q -2.69,3.66 0.32,0.25 3.08,-3.49 8.4,-7.61 0.41,-0.32 -0.06,-0.1 -4.79,2.19 -8.66,7.46"
           inkscape:connector-curvature="0"
           style="vector-effect:non-scaling-stroke;stroke:#ededed" />
        <path
           id="path39256"
           d="m 407.46,9.75 -1.82,-1.44 a 0.31,0.31 0 0 0 -0.49,0.18 l -0.19,1.01"
           inkscape:connector-curvature="0"
           style="vector-effect:non-scaling-stroke;stroke:#cfcfcf" />
        <path
           id="path39258"
           d="m 83.09,27.81 -13.56,4.06 q -1.91,0.57 -1.86,2.57 c 0.38,14.89 -0.24,29.44 1.43,43.88"
           inkscape:connector-curvature="0"
           style="vector-effect:non-scaling-stroke;stroke:#858585" />
        <path
           id="path39260"
           d="m 78.21,43.63 c -1.32,3.59 -4.44,8.42 -4.41,12.05 q 0,0.5 0.19,0.04 1.86,-4.61 5.07,-8.41 c 0.91,-1.09 1.95,-2.97 1.06,-4.02 a 1.12,1.12 0 0 0 -1.91,0.34"
           inkscape:connector-curvature="0"
           style="vector-effect:non-scaling-stroke;stroke:#ededed" />
        <path
           id="path39262"
           d="m 159,40.71 q -4.46,1.34 -8.73,4.31"
           inkscape:connector-curvature="0"
           style="vector-effect:non-scaling-stroke;stroke:#737373" />
        <path
           id="path39264"
           d="m 305.57,81.8 c 2.76,-11.94 4.81,-18.81 8.66,-27.74 q 0.58,-1.36 -0.57,-0.44 l -20,15.98 q -0.46,0.37 0.12,0.46 9.52,1.48 10.31,11.15 a 0.98,0.97 15.9 0 0 0.39,0.69 l 0.29,0.21 a 0.52,0.52 0 0 0 0.8,-0.31"
           inkscape:connector-curvature="0"
           style="vector-effect:non-scaling-stroke;stroke:#858585" />
        <path
           id="path39266"
           d="m 264.99,58.35 -1.07,19.33 a 0.43,0.42 85.4 0 0 0.51,0.44 c 6.05,-1.36 8.57,-16.08 5.12,-20.78 a 1.04,1.03 66.9 0 0 -1.01,-0.41 l -2.74,0.5 a 1,0.99 86.7 0 0 -0.81,0.92"
           inkscape:connector-curvature="0"
           style="vector-effect:non-scaling-stroke;stroke:#858585" />
        <path
           id="path39268"
           d="m 274.35,85.38 c -9.13,6.2 -14.01,16.23 -11.72,26.96 3,14.12 16.37,12.77 26.28,8.25 q 2.13,-0.98 2.62,-3.26 1.92,-8.91 0.73,-17.86 c -0.45,-3.37 -0.48,-6.8 -2.18,-10.33 -3.18,-6.58 -9.81,-7.78 -15.73,-3.76"
           inkscape:connector-curvature="0"
           style="vector-effect:non-scaling-stroke;stroke:#858585" />
        <path
           id="path39270"
           d="m 263.654,90.0584 a 3.88,0.65 133.2 0 0 3.1298,-2.3834 3.88,0.65 133.2 0 0 2.1822,-3.2734 3.88,0.65 133.2 0 0 -3.1298,2.3834 3.88,0.65 133.2 0 0 -2.1822,3.2734"
           inkscape:connector-curvature="0"
           style="vector-effect:non-scaling-stroke;stroke:#676767" />
        <path
           id="path39272"
           d="m 126.38,119.77 -5.97,3.82"
           inkscape:connector-curvature="0"
           style="vector-effect:non-scaling-stroke;stroke:#676767" />
        <path
           id="path39274"
           d="m 115.13,59.91 q -4.8,-0.26 -10.12,0.76 -2.62,0.51 -2.54,3.18 0.35,12.24 -1.19,24.35 -0.16,1.33 0.78,0.38 L 122.5,68.07 a 1.11,1.09 64.1 0 0 0.31,-0.92 q -0.42,-3.21 -2.38,-5.23 -1.77,-1.83 -5.3,-2.01"
           inkscape:connector-curvature="0"
           style="vector-effect:non-scaling-stroke;stroke:#737373" />
        <path
           id="path39276"
           d="m 120.54,113 5.66,-0.27 a 1.09,1.09 0 0 0 1.04,-1.09 L 127.21,93.5"
           inkscape:connector-curvature="0"
           style="vector-effect:non-scaling-stroke;stroke:#676767" />
        <path
           id="path39278"
           d="m 127.21,93.5 q -0.14,-10.76 -2.38,-21.33 -0.22,-1.04 -0.99,-0.31 -8.99,8.62 -17.54,17.94 c -4.29,4.67 -3.5,10.25 -3.56,15.99 a 1.77,1.73 -61.4 0 0 0.26,0.92 q 5.97,9.6 17.54,6.29"
           inkscape:connector-curvature="0"
           style="vector-effect:non-scaling-stroke;stroke:#737373" />
        <path
           id="path39280"
           d="m 127.21,93.5 q -3.15,-0.37 -3.78,2.74 -1.66,8.34 -2.89,16.76"
           inkscape:connector-curvature="0"
           style="vector-effect:non-scaling-stroke;stroke:#cfcfcf" />
        <path
           id="path39282"
           d="m 111.5,164.46 -3.46,15.79"
           inkscape:connector-curvature="0"
           style="vector-effect:non-scaling-stroke;stroke:#858585" />
        <path
           id="path39284"
           d="m 109.71,220.5 q 2.15,-6.47 5.33,-12.5"
           inkscape:connector-curvature="0"
           style="vector-effect:non-scaling-stroke;stroke:#858585" />
        <path
           id="path39286"
           d="m 121.46,197.25 3.58,-5.2"
           inkscape:connector-curvature="0"
           style="vector-effect:non-scaling-stroke;stroke:#858585" />
        <path
           id="path39288"
           d="m 238.5,219.21 q -0.32,-2.64 -2.07,-4.2 a 1.92,1.91 -39.9 0 0 -2.27,-0.2 c -3.22,1.98 -20.04,14.04 -13.66,18.4"
           inkscape:connector-curvature="0"
           style="vector-effect:non-scaling-stroke;stroke:#0b0b0b" />
        <path
           id="path39290"
           d="m 182.91,197.47 c -4.87,6.01 -10.68,22 0.34,25.49"
           inkscape:connector-curvature="0"
           style="vector-effect:non-scaling-stroke;stroke:#737373" />
        <path
           id="path39292"
           d="m 185.25,235.79 c -5.6,2.54 -11.87,0.57 -17.54,-1.46 a 0.89,0.88 -54.6 0 0 -0.86,0.15 c -4.54,3.75 -8.01,8.29 -13.09,11.26 q -1.24,0.73 -0.76,-0.62 c 1.05,-2.93 1.25,-5.24 0.6,-8.49 q -3.04,-15.38 -5.85,-30.84 a 0.46,0.46 0 0 0 -0.57,-0.36 q -9.61,2.77 -19.25,5.49 -3.45,0.97 -4.95,1.62 a 1.36,1.36 0 0 0 -0.68,0.65 q -3.33,6.81 2.76,10.75 c 2.65,1.71 10.1,4.8 13.41,3.42 8.8,-3.65 -5.04,9.16 -6.02,10.07 q -4.9,4.61 -10.91,2.24 -0.82,-0.32 -0.54,0.52 l 0.59,1.81 q 0.12,0.37 0.13,0.76 l 0.25,10.68 a 1.58,1.57 -29.8 0 1 -0.24,0.87 c -2.64,4.11 -13.36,17.3 -19.33,19.37 a 0.6,0.6 0 0 1 -0.73,-0.29 c -1.06,-2.09 4.14,-7.62 5.53,-9.25 2.31,-2.71 2.26,-3.81 1.86,-7.2 q -0.81,-6.9 -3.87,-13.19 a 1.1,1.1 0 0 0 -1.74,-0.32 l -7.26,6.82 a 0.78,0.77 -31.3 0 1 -1.26,-0.3 l -2.86,-8.09 q -0.65,-1.84 -2.57,-1.47 -23.39,4.55 -43.75,12.57"
           inkscape:connector-curvature="0"
           style="vector-effect:non-scaling-stroke;stroke:#737373" />
        <path
           id="path39294"
           d="m 67.5,235.26 -0.4,0.73 q -0.18,0.34 0.19,0.23 l 23.42,-7.02 a 0.6,0.58 -8.8 0 0 0.42,-0.56 q 0.37,-25.96 6.72,-51.11 0.65,-2.54 0.88,-8.24 a 0.56,0.55 5.2 0 0 -0.48,-0.57 c -10.13,-1.36 -22.04,1.33 -31.94,4.53 q -2.19,0.7 -2.25,3 c -0.46,19.27 -0.1,38.21 3.6,58.02 a 1.49,1.46 -36.5 0 1 -0.16,0.99"
           inkscape:connector-curvature="0"
           style="vector-effect:non-scaling-stroke;stroke:#737373" />
        <path
           id="path39296"
           d="m 144.18,174.2 q -0.6,1.13 -3.5,4.72 -8.24,10.21 -14.37,21.55 -0.37,0.67 0.38,0.5 l 18.62,-4.34 a 1.14,1.13 -10.6 0 0 0.87,-1.26 l -2.37,-18.35 a 1.35,1.35 0 0 1 0.2,-0.89 q 0.81,-1.3 0.52,-1.92 -0.16,-0.36 -0.35,-0.01"
           inkscape:connector-curvature="0"
           style="vector-effect:non-scaling-stroke;stroke:#737373" />
        <path
           id="path39298"
           d="m 254.83,203.44 q -9.04,0.1 -17.85,1.78 -2.21,0.42 -1.55,2.57 l 1.36,4.44 a 0.58,0.57 -22.1 0 0 0.81,0.34 l 17.36,-8.61 q 1.07,-0.53 -0.13,-0.52"
           inkscape:connector-curvature="0"
           style="vector-effect:non-scaling-stroke;stroke:#858585" />
        <path
           id="path39300"
           d="m 349.82,178.23 q -4.29,7.93 -5.23,16.91 a 1.2,1.19 -61.7 0 0 0.25,0.84 c 2.19,2.77 -1.05,13.6 -2.35,16.57 -8.6,19.66 29.42,27.52 36.58,14.68 4.84,-8.66 10.28,-30.65 2.36,-39.92 q -10.65,-12.47 -27.45,-11.69 -2.82,0.13 -4.16,2.61"
           inkscape:connector-curvature="0"
           style="vector-effect:non-scaling-stroke;stroke:#858585" />
        <path
           id="path39302"
           d="m 137.88,286.03 q -2.43,-3.46 -2.42,-8.27 0,-0.6 -0.34,-0.73 a 0.46,0.45 -72.3 0 0 -0.6,0.32 q -0.39,1.55 -1.81,2.14 a 0.99,0.99 0 0 1 -1.35,-0.69 q -1.45,-6.4 -3.83,-12.64 c -0.67,-1.74 -0.25,-4.05 -2.07,-5.62 q -0.47,-0.4 -0.36,0.2 l 3.98,23.48 a 1.17,1.16 -89.7 0 1 -1.35,1.34 c -1.7,-0.31 -4.83,-20.25 -5.4,-23.03 q -0.1,-0.49 -0.44,-0.13 c -1.28,1.36 -4.17,4.74 -6.65,4.88 a 0.99,0.98 14.6 0 0 -0.77,0.45 q -1.15,1.8 -1,4.03 0.44,6.6 0.32,13.26 a 0.77,0.76 78.3 0 1 -0.44,0.68 l -0.66,0.3"
           inkscape:connector-curvature="0"
           style="vector-effect:non-scaling-stroke;stroke:#ededed" />
        <path
           id="path39304"
           d="m 106.44,286 q -3,0.16 -3.3,-2.47 a 0.32,0.31 -17.9 0 0 -0.47,-0.24 l -0.23,0.13 a 0.15,0.12 83.7 0 0 -0.07,0.11 l -0.19,1.57 a 0.72,0.69 0.4 0 1 -0.65,0.62 L 97.69,286"
           inkscape:connector-curvature="0"
           style="vector-effect:non-scaling-stroke;stroke:#ededed" />
        <path
           id="path39306"
           d="m 133.81,273.44 q 0.11,-0.95 -0.58,-1.27 -0.74,-0.35 -0.43,0.41 l 0.69,1.64 q 0.21,0.5 0.48,0.03 0.22,-0.4 -0.16,-0.81"
           inkscape:connector-curvature="0"
           style="vector-effect:non-scaling-stroke;stroke:#ededed" />
      </g>
      <path
         id="path39310"
         d="m 0,0 h 105.31 l -1.56,0.42 a 1.54,1.5 10 0 0 -0.78,0.53 c -2.56,3.36 -7.57,9.26 -7.47,13.51 q -24.18,7.45 -28.48,9.07 -6.62,2.49 -10.35,8.93 -1.26,2.16 -1.39,5.22 -1.56,34.91 2.51,69.57 l -0.04,1.01 a 1.23,1.22 69.2 0 1 -0.37,0.83 q -1.45,1.45 -1.32,3.51 0.03,0.48 -0.16,0.93 -1.32,3.13 -2.09,6.43 c -0.96,4.09 -3.35,7.15 -4.27,11.26 q -0.44,2 -1.3,3.88 -0.22,0.47 -0.25,-0.05 -0.33,-6.07 2.21,-11.61 0.37,-0.81 -0.13,-3.2 a 1.57,1.53 51.8 0 1 0.1,-0.94 c 0.44,-1 1.74,-5.25 0.75,-5.61 a 0.44,0.44 0 0 0 -0.59,0.36 c -0.36,3.77 -1.46,11.66 -3.85,14.62 q -0.64,0.8 -0.49,-0.21 0.31,-2.08 -0.03,-4.2 -0.23,-1.45 -0.47,0 c -1.86,11.38 -5.41,23.27 -6.8,33.95 -1.57,12.08 -1.12,24.93 -0.11,37.06 0.16,1.91 1.29,4.37 1.36,5.79 0.3,6.45 0.39,12.78 1.45,19.1 q 2.07,12.31 4.59,24.57 -5.69,3.86 -8.7,10.01 -0.22,0.45 0.28,0.39 4.22,-0.58 8.19,-2.17 0.34,5.98 -0.92,11.82 -0.63,2.95 -0.43,5.51 0.59,7.31 0.61,14.68 a 0.56,0.55 2.9 0 0 0.5,0.55 L 51.44,286 H 0 Z"
         inkscape:connector-curvature="0"
         style="fill:#ffffff" />
      <path
         id="path39312"
         d="m 105.31,0 h 32.75 q -1.91,6.39 -1.97,12.97 c -0.07,8.28 -5.04,12.15 -7.38,19.28 q -2.43,7.46 -5.96,14.46 c -9.08,1.04 -15.99,5.67 -23.74,10.01 q -6.62,3.7 -9.34,10.52 c -0.65,1.63 -6.42,8.54 -4.4,9.75 a 0.87,0.87 0 0 0 0.99,-0.07 l 2.58,-2.14 q 0.47,-0.39 0.51,0.21 0.25,3.05 -0.05,8.82 -1.4,27.05 -0.65,60.91 a 0.67,0.67 0 0 0 0.53,0.64 l 10.61,2.29 a 1.4,1.4 0 0 0 1.69,-1.36 L 101.51,127 a 0.65,0.65 0 0 1 0.58,-0.65 c 6.65,-0.68 11.64,0.61 18.32,-2.76 q 1.48,4.4 -0.76,8.97 -0.44,0.89 0.34,0.27 0.78,-0.63 0.94,-1.62 0.09,-0.54 0.44,-0.97 3.79,-4.64 5.01,-10.47 6.95,-6.36 11.91,-13.63 0.83,-1.22 0.99,-2.68 2.26,-21.81 -1.35,-43.35 a 0.71,0.7 -22.8 0 1 0.29,-0.7 l 7.67,-5.45 q 0.4,-0.29 0.44,0.21 c 0.22,3.01 0.4,6.17 -0.22,9.24 q -4.91,24.22 -4.98,49.06 -0.01,1.72 -0.82,3.24 l -11.39,21.44 a 0.33,0.33 0 0 0 0.21,0.47 c 3.87,0.94 13.29,-11.82 15.13,-14.45 0.87,-1.25 2.55,-1.19 3.74,-2.26 q 4.97,-4.53 9.91,-9.84 a 0.94,0.93 32.4 0 0 -0.34,-1.51 c -4.08,-1.62 -3.6,-5.29 -1.69,-8.62 q 8.99,-15.65 18.95,-30.95 1.62,-2.48 1.41,0.47 -1.83,26.48 -1.15,54.39 c 0.07,2.86 0.74,4.7 2.29,6.91 a 1.27,1.27 0 0 0 1.89,0.21 l 7.44,-6.72 c 1.67,2.95 -0.03,13.91 -0.31,17.73 -0.4,5.45 3.02,9.29 2.52,14.28 -0.72,7.31 -0.33,14.36 -9.61,15.99 a 0.5,0.49 71.4 0 0 -0.35,0.72 l 2.19,4.14 q 0.53,0.99 1.02,-0.02 l 0.74,-1.53 q 0.31,-0.64 0.55,0.03 0.52,1.43 -0.81,2.53 a 1.06,1.06 0 0 0 -0.39,0.8 c -0.07,2.75 1.27,7.7 0.36,9.96 a 0.74,0.74 0 0 0 0.18,0.83 q 0.38,0.35 0.95,0.33 c -8.62,8.5 -15.2,16.57 -18.54,26.68 q -0.35,1.05 -0.45,-0.05 -0.72,-7.95 -2.76,-15.66 a 0.63,0.62 72.2 0 1 0.38,-0.74 c 6.57,-2.49 14.23,-7.19 16.79,-14.14 q 0.33,-0.88 -0.57,-0.61 l -17.22,5.2 a 0.9,0.89 77.7 0 1 -1.15,-0.74 l -3.38,-25.88 a 1.42,1.41 -28.6 0 1 0.34,-1.13 l 4,-4.61 a 0.8,0.8 0 0 0 -0.41,-1.3 c -1.87,-0.45 -6.81,3.48 -8.3,4.68 q -15.71,12.72 -27.44,29.31 0.02,-3.61 -1.32,-10.55 -0.98,-5.08 -0.83,-15.31 0.08,-5.5 -3.14,-9.27 -0.52,-0.6 -0.69,0.17 -0.99,4.35 -0.47,8.83 a 0.59,0.58 6.4 0 0 0.4,0.49 l 0.24,0.08 a 0.73,0.73 0 0 1 0.48,0.8 q -1.83,11.28 -1.4,22.72 c 0.03,0.8 -0.34,1.25 -0.69,1.91 a 0.76,0.76 0 0 0 0.15,0.92 q 1.51,1.43 1.95,3.54 a 1.05,1.05 0 0 0 0.65,0.78 q 0.55,0.21 1.09,0.09 L 115.04,208 q -1.16,-0.76 -2.48,-0.8 a 0.67,0.66 -5.8 0 1 -0.62,-0.5 c -0.83,-3.39 2.25,-5.08 0.11,-9.55 a 0.39,0.39 0 0 0 -0.6,-0.13 c -0.2,0.17 -0.39,0.49 -0.38,0.77 0.18,4.59 -1.5,9.22 -1.91,12.98 q -0.47,4.24 -1.03,8.46 a 0.8,0.8 0 0 0 0.35,0.78 q 0.55,0.38 1.23,0.49 c -0.52,2.4 -0.78,8.7 -4.62,7.38 a 1.69,1.68 -79.8 0 1 -1.14,-1.65 c 0.5,-15.4 0.53,-30.95 4.09,-45.98 0.65,0.99 2.93,5.1 4.16,4.91 a 0.66,0.65 -3.8 0 0 0.55,-0.62 q 0.39,-9.37 0.24,-18.73 c -0.01,-1 -0.48,-1.49 -1.49,-1.35 l 0.46,-5.74 q 0.18,-2.38 -2.16,-2.82 c -9.67,-1.84 -23.6,1.68 -33.08,4.22 -11.12,2.99 -16.77,11.02 -22.82,19.98 -2.66,3.93 -2.86,6.57 -2.86,11.15 -0.02,18.79 0.11,32.91 2.66,48.76 a 0.72,0.71 71.3 0 1 -0.36,0.74 l -7.36,3.98 q -2.52,-12.26 -4.59,-24.57 c -1.06,-6.32 -1.15,-12.65 -1.45,-19.1 -0.07,-1.42 -1.2,-3.88 -1.36,-5.79 -1.01,-12.13 -1.46,-24.98 0.11,-37.06 1.39,-10.68 4.94,-22.57 6.8,-33.95 q 0.24,-1.45 0.47,0 0.34,2.12 0.03,4.2 -0.15,1.01 0.49,0.21 c 2.39,-2.96 3.49,-10.85 3.85,-14.62 a 0.44,0.44 0 0 1 0.59,-0.36 c 0.99,0.36 -0.31,4.61 -0.75,5.61 a 1.57,1.53 51.8 0 0 -0.1,0.94 q 0.5,2.39 0.13,3.2 -2.54,5.54 -2.21,11.61 0.03,0.52 0.25,0.05 0.86,-1.88 1.3,-3.88 c 0.92,-4.11 3.31,-7.17 4.27,-11.26 q 0.77,-3.3 2.09,-6.43 0.19,-0.45 0.16,-0.93 -0.13,-2.06 1.32,-3.51 a 1.23,1.22 69.2 0 0 0.37,-0.83 l 0.04,-1.01 q 2.27,14.38 5.75,28.57 a 1.02,1.01 64.5 0 0 1.6,0.57 q 5.94,-4.55 10.58,-10.41 1.07,-1.35 0.63,-3 -5.85,-22.01 -7.25,-44.66 5.24,-7.19 4.13,-16.11 a 1.4,1.38 58.2 0 1 0.21,-0.92 q 3.92,-6.19 7.52,-12.57 2.32,-4.11 -0.91,-6.86 a 0.83,0.82 -62.7 0 1 -0.26,-0.82 l 3.3,-13.23 c 3.01,-0.96 17.1,-5.26 19.34,-3.58 q 1.89,1.42 3.75,-0.04 6.47,-5.06 11.81,-11.43 1.6,-1.89 -0.88,-1.86 Q 106,11.05 95.5,14.46 c -0.1,-4.25 4.91,-10.15 7.47,-13.51 a 1.54,1.5 10 0 1 0.78,-0.53 z M 41.5,200.04 q -0.78,4.96 0.36,9.82 0.21,0.9 0.66,0.1 2.9,-5.23 -0.49,-10.04 -0.41,-0.6 -0.53,0.12 z"
         inkscape:connector-curvature="0"
         style="fill:#dadada" />
      <path
         id="path39314"
         d="m 138.06,0 h 68.5 q 0.19,0.25 0.48,0.31 a 0.31,0.31 0 0 1 0.22,0.44 q -0.37,0.73 -0.8,0.96 -5.54,2.89 -11.74,8.52 c -11,10.01 -20.89,17.81 -28.06,27.66 q -3.19,4.38 -6.71,8.47 0.13,-3.18 -0.95,-5.65 5.31,-3.82 9.23,-9.43 1.45,-2.06 -1.01,-1.52 -1.78,0.4 -3.34,1.27 a 0.43,0.43 0 0 1 -0.64,-0.38 l 0.01,-0.86 a 0.43,0.43 0 0 0 -0.52,-0.43 q -3.7,0.77 -6.09,3.03 -5.28,4.97 -6.37,12.63 l -12.62,9.65 a 1.24,1.24 0 0 1 -1.91,-0.53 q -3.37,-8.67 -12.99,-7.43 3.53,-7 5.96,-14.46 c 2.34,-7.13 7.31,-11 7.38,-19.28 Q 136.15,6.39 138.06,0 Z"
         inkscape:connector-curvature="0"
         style="fill:#c3c3c3" />
      <path
         id="path39316"
         d="m 206.56,0 h 8 l 3.22,0.31 a 0.39,0.38 10 0 1 0.34,0.48 c -1.65,5.8 -2.36,11.5 -3.33,17.47 q -0.8,4.9 -8.09,26.43 -0.25,0.73 -0.98,1.14 -0.47,0.26 -0.37,-0.27 1.79,-9.31 4.63,-18.36 0.57,-1.81 -0.31,-6 -0.1,-0.5 -0.45,-0.13 -1.52,1.59 -1.78,2.42 -2.51,8.05 -8.31,30.94 l -0.92,7.32 q -2.14,-0.82 -3,1.2 -2.75,6.48 -4.72,13.9 a 1.53,1.53 0 0 0 1.21,1.91 l 1.5,0.26 a 0.44,0.44 0 0 1 0.28,0.69 l -0.6,0.87 a 0.42,0.42 0 0 1 -0.69,0 l -0.24,-0.35 a 0.4,0.4 0 0 0 -0.69,0.05 l -1.88,3.7 a 1.26,1.21 4.9 0 1 -0.75,0.61 l -0.59,0.16 1.13,-26.9 q 0.14,-3.22 -2.32,-1.13 l -3.7,3.16 q -0.65,0.55 -0.66,-0.29 l -0.01,-0.35 a 1.35,1.34 -24.7 0 1 0.33,-0.88 c 1.38,-1.57 7.99,-9.03 7.43,-10.77 a 0.82,0.82 0 0 0 -1.23,-0.44 q -5.54,3.63 -9.58,8.76 -13.57,17.25 -23.53,33.75 -2.48,4.1 -1.95,-0.67 2.41,-21.75 6,-42.63 3.52,-4.09 6.71,-8.47 c 7.17,-9.85 17.06,-17.65 28.06,-27.66 q 6.2,-5.63 11.74,-8.52 0.43,-0.23 0.8,-0.96 A 0.31,0.31 0 0 0 207.04,0.31 Q 206.75,0.25 206.56,0 Z m 5.89,16.99 a 0.78,0.77 24.9 0 1 -0.33,-0.88 l 1.03,-3.38 a 0.7,0.7 0 0 0 -0.59,-0.9 c -2.06,-0.25 -0.81,5.66 -0.38,6.49 q 0.33,0.63 0.54,-0.05 0.29,-0.93 -0.27,-1.28 z"
         inkscape:connector-curvature="0"
         style="fill:#dadada" />
      <path
         id="path39318"
         d="m 214.56,0 h 190.75 l -6.28,0.73 Q 396.72,1 396.32,3.29 c -0.61,3.45 6.15,5.15 8.64,6.21 q 2.14,2.32 4.07,4.8 c 2.73,3.49 5.44,5.87 8.48,8.8 q 0.42,0.4 0.42,-0.18 C 417.95,21.1 409.46,11.84 407.46,9.75 q -0.33,-0.99 0.03,-1.87 a 0.47,0.46 -63 0 1 0.66,-0.22 q 5.7,3.4 10.83,7.61 c 7.6,6.25 9.62,16.55 15,24.06 q 6.13,8.54 15.06,14.42 a 0.47,0.46 26.8 0 0 0.69,-0.22 c 0.25,-0.68 -0.84,-2.94 -0.58,-4.33 a 1.43,1.42 34.6 0 0 -0.19,-1.01 l -3.14,-5.03 q -0.29,-0.46 0.15,-0.15 1.85,1.32 3.01,1.18 a 0.63,0.62 88.9 0 0 0.55,-0.58 l 0.47,-6.8 v 198.75 c -0.18,-1.61 -0.5,-4.92 -1.16,-5.05 a 0.47,0.47 0 0 0 -0.56,0.41 q -0.4,3.94 -4.08,5.17 a 1.33,1.3 -82.9 0 0 -0.69,0.55 q -6.09,9.66 -13.94,17.94 c -1.82,1.92 -2.83,4.31 -3.97,6.61 -3.58,7.24 -9.51,13.09 -16.4,17.26 -1.41,0.86 -3.48,0.95 -5.29,2.26 q -2.03,1.47 -4.39,2.43 a 1.64,1.61 40.4 0 1 -1.01,0.07 q -1.54,-0.38 -2.56,1.02 -0.54,0.75 0.35,0.53 0.8,-0.19 1.43,0.2 0.45,0.29 0.99,0.31 l 18.72,0.73 h -217 q 1.07,-0.48 1.76,-0.33 a 0.89,0.89 0 0 0 1.06,-1.07 c -1.41,-6.19 -3.93,-8.88 -7.24,-13.96 -1.98,-3.05 -5.87,-4.49 -7.21,-7.7 -3.6,-8.63 -1.35,-17.66 -3.56,-27.15 q 6.03,-4.74 10.55,-10.69 0.72,-0.94 -0.46,-0.91 -6.18,0.17 -12.09,-1.23 c 0.82,-4.27 1.43,-7.83 3.51,-11.7 1.21,-2.27 2.49,-8.03 -2.41,-6.69 q -1.29,0.35 -0.86,-0.91 0.89,-2.63 -0.58,-6.19 9.63,-11.1 22.36,-18.45 a 0.28,0.28 0 0 1 0.42,0.24 l 0.35,63.81 a 1.8,1.79 15.2 0 0 0.89,1.55 c 2.87,1.72 12.11,-9.13 13.57,-11.41 3.63,1.09 3.91,3.51 5.95,5.86 a 0.55,0.54 52.5 0 0 0.72,0.1 l 5.23,-3.41 a 1.2,1.18 34.4 0 1 0.94,-0.17 c 1.85,0.44 3.31,1.07 5.21,1.17 5.88,0.3 11.45,0.18 17.57,0.7 q 10.79,0.9 21.02,-0.53 1.86,-0.26 3.2,-1.57 l 8.95,-8.69 a 0.35,0.35 0 0 1 0.58,0.15 q 1.86,6.06 5.25,11.35 1.48,2.3 3.86,0.96 l 5.51,-3.1 a 1.36,1.35 -52.1 0 1 1.01,-0.13 c 9.75,2.62 14.46,-1.42 22.03,-6.29 a 0.35,0.35 0 0 1 0.53,0.22 q 2.77,12.87 16.26,15.53 c 14.46,2.85 23.85,-2.2 34.53,-12.18 14.21,-13.28 21.19,-30.19 18.89,-49.7 -1.41,-11.98 -15.18,-19.14 -25.78,-20.45 -7.41,-0.92 -13.6,1.03 -19.61,5.72 -12.84,10.03 -18.06,24.7 -22.4,39.77 q -1.84,6.38 -2.08,12.63 -0.1,2.87 -2.98,2.94 -9.83,0.22 -18.39,-4.33 -2.42,-1.28 -2.71,-4 c -1.28,-12.39 -0.28,-28.52 12.49,-35.48 6.4,-3.49 10.93,-5.83 14.53,-12.61 q 0.74,-1.41 -0.83,-1.17 c -8.06,1.2 -20.27,13.09 -25.61,19.03 q -0.62,0.69 -0.62,-0.24 v -18.02 a 0.39,0.38 81.2 0 0 -0.5,-0.37 c -6.76,2.16 -12.93,9.75 -12.46,17.21 0.81,12.76 -0.24,26.19 -1.98,38.89 a 0.82,0.81 -5.3 0 1 -0.55,0.66 c -10.58,3.46 -23.95,1.06 -34.89,0.41 -4.27,-0.25 -8.75,-1.03 -13.19,-1.44 a 1.18,1.18 0 0 1 -0.83,-0.44 q -1.07,-1.33 -0.85,-2.98 20.83,-7.53 35.22,-23.71 1.51,-1.7 1.96,-4.21 a 0.52,0.52 0 0 0 -0.41,-0.6 q -2.88,-0.52 -5.28,-0.42 -17.89,0.7 -36.1,4.92 a 0.42,0.41 81.3 0 1 -0.51,-0.38 q -0.29,-4.58 0.46,-9.16 c 1.71,-10.4 41.88,-12.95 50.22,-13.69 4.95,-0.44 9.95,-6.78 11.96,-10.74 q 1,-1.96 -1.2,-1.85 c -21.75,1.06 -47.53,4.26 -63.12,20.83 q -5.84,6.2 -12.64,15.65 -0.53,0.74 -0.52,-0.17 l 0.1,-23.54 a 0.66,0.66 0 0 1 0.57,-0.65 c 7.18,-0.98 12.51,-6.5 16.03,-12.51 a 0.37,0.36 -70.2 0 0 -0.25,-0.54 c -5.57,-1.1 -11.31,3.11 -15.7,6.06 a 0.33,0.33 0 0 1 -0.51,-0.24 l -0.34,-3.31 a 0.43,0.43 0 0 0 -0.61,-0.35 q -7.5,3.53 -11.4,10.61 -1.04,1.9 -2.56,3.01 -10.6,7.76 -20.12,16.82 -0.57,0.02 -0.95,-0.33 a 0.74,0.74 0 0 1 -0.18,-0.83 c 0.91,-2.26 -0.43,-7.21 -0.36,-9.96 a 1.06,1.06 0 0 1 0.39,-0.8 q 1.33,-1.1 0.81,-2.53 -0.24,-0.67 -0.55,-0.03 l -0.74,1.53 q -0.49,1.01 -1.02,0.02 l -2.19,-4.14 a 0.5,0.49 71.4 0 1 0.35,-0.72 c 9.28,-1.63 8.89,-8.68 9.61,-15.99 0.5,-4.99 -2.92,-8.83 -2.52,-14.28 0.28,-3.82 1.98,-14.78 0.31,-17.73 l 3.53,-4.03 a 0.73,0.72 50.6 0 0 0.08,-0.84 q -2.51,-4.29 -2.53,-9.63 -0.08,-16.4 0.25,-26 l 0.59,-0.16 a 1.26,1.21 4.9 0 0 0.75,-0.61 l 1.88,-3.7 a 0.4,0.4 0 0 1 0.69,-0.05 l 0.24,0.35 a 0.42,0.42 0 0 0 0.69,0 l 0.6,-0.87 a 0.44,0.44 0 0 0 -0.28,-0.69 l -1.5,-0.26 a 1.53,1.53 0 0 1 -1.21,-1.91 q 1.97,-7.42 4.72,-13.9 0.86,-2.02 3,-1.2 0.08,12 0.03,24 0,1.56 -2.44,3.29 a 0.83,0.83 0 0 0 -0.29,0.99 q 0.43,1.08 1.65,1.09 a 1.08,1.08 0 0 1 1.08,1.08 q 0.02,13.51 0.01,27.68 c 0,2.22 0.68,4.23 1.03,6.45 a 0.87,0.86 -27.2 0 1 -0.25,0.77 l -0.76,0.75 a 0.84,0.84 0 0 0 -0.16,0.97 c 1.77,3.53 4.18,2.58 6.43,0.29 q 4.23,-4.29 8.52,-8.55 a 1.53,1.52 70.1 0 0 0.44,-0.94 q 0.16,-1.54 -0.73,-2.81 -0.32,-0.46 -0.38,-1.01 -1.68,-14.65 -1.03,-29.38 a 1.06,1.04 -13.8 0 1 0.54,-0.88 l 11.27,-6.33 a 0.33,0.33 0 0 1 0.5,0.28 q 0.37,22.6 0.57,45.19 0.05,5.06 1.07,11.14 0.45,2.74 2.73,1.15 5.46,-3.78 9.51,-9.05 1.01,-1.32 0.72,-2.96 -1.37,-7.84 -1.43,-15.97 -0.16,-20.47 -0.02,-41.02 a 1.35,1.34 -24.7 0 1 0.33,-0.88 q 6.41,-7.58 8.7,-17.99 c 1.01,-4.61 -0.74,-9.39 -6.11,-8.5 -5.73,0.95 -11.05,6.91 -13.23,11.84 -2.3,5.19 -2.58,12.85 -2.76,18.97 a 1.01,1.01 0 0 1 -0.62,0.9 l -11.07,4.68 a 0.62,0.62 0 0 1 -0.87,-0.56 l -0.25,-30.7 a 0.33,0.33 0 0 0 -0.47,-0.29 q -6.57,2.9 -11.34,8.99 5.8,-22.89 8.31,-30.94 0.26,-0.83 1.78,-2.42 0.35,-0.37 0.45,0.13 0.88,4.19 0.31,6 -2.84,9.05 -4.63,18.36 -0.1,0.53 0.37,0.27 0.73,-0.41 0.98,-1.14 7.29,-21.53 8.09,-26.43 c 0.97,-5.97 1.68,-11.67 3.33,-17.47 A 0.39,0.38 10 0 0 217.78,0.31 Z M 396.8,79.45 c -0.06,-1.47 -0.16,-3.14 0.12,-4.59 q 3.65,-18.96 6.24,-38.19 0.23,-1.73 -1.28,-0.85 c -4.4,2.57 -10.69,7.96 -11.61,13.44 q -2.8,16.8 -5.54,33.65 a 0.68,0.67 -83.8 0 1 -0.7,0.57 l -6.66,-0.28 q -2.39,-0.1 -3.08,-2.38 -0.73,-2.36 -0.72,-5.31 0.04,-15.64 -0.19,-31.25 a 0.34,0.33 -11.8 0 0 -0.47,-0.3 c -6.93,3.11 -12.53,9.22 -12.47,17.13 q 0.1,14.55 0.09,29.09 c 0,8.45 15.44,6.17 20.62,6.08 a 1.53,1.53 0 0 1 1.55,1.7 c -1.33,11.52 -3.91,28.52 1.9,38.21 q 1.18,1.97 3.1,0.72 6.21,-4.02 10.33,-10.1 a 1.64,1.63 -44.3 0 0 0.03,-1.79 c -6.15,-9.77 -3.77,-24.92 -2.57,-36 a 4.04,4.02 -20 0 1 1.1,-2.35 q 2.64,-2.71 4.75,-6.72 c 1.75,-3.33 -3.77,-0.27 -4.06,-0.16 A 0.35,0.35 0 0 1 396.8,79.45 Z M 277.11,72.03 c 5.28,-7.46 8.59,-17.55 5.87,-26.6 a 1.03,1.02 85.2 0 0 -0.86,-0.73 c -13.67,-1.55 -25.86,5.64 -34.96,16.22 q -1.97,2.3 -2.27,4.37 -0.08,0.56 0.4,0.25 l 5.3,-3.46 q 0.74,-0.49 0.73,0.4 l -0.36,26.54 q 0,0.5 -0.25,0.94 l -5.06,9.03 q -0.62,1.12 0.64,0.91 l 4.01,-0.68 a 0.59,0.59 0 0 1 0.68,0.68 c -2.16,12.6 -1.73,24.19 -1.03,36.97 a 0.45,0.45 0 0 0 0.69,0.35 l 4.36,-2.77 a 0.74,0.73 42.5 0 1 0.74,-0.03 q 3.37,1.77 7.19,1.67 c 19.06,-0.48 29.54,-9.51 39.79,-24.47 q 0.27,-0.41 0.3,0.08 c 0.39,6.56 2.03,13.72 9.24,13.11 7.24,-0.6 16.45,-13.37 19.87,-19.17 q 0.26,-0.44 0.65,-0.5 a 0.45,0.45 0 0 1 0.51,0.48 c -0.52,6.95 -1.08,12.64 0.2,18.85 1.99,9.63 10.12,-0.37 13.26,-3.57 2.04,-2.08 3.73,-4.42 0.25,-6.32 a 1.08,1.07 8.8 0 1 -0.53,-0.72 q -1.16,-5.46 -0.83,-13.93 c 0.59,-14.95 2.69,-29.58 3.64,-40.68 q 0.22,-2.63 -0.44,-6.5 a 0.43,0.42 75 0 0 -0.56,-0.33 c -8.03,2.9 -10.9,7.91 -12.32,16.29 q -3.67,21.66 -13.69,41.92 a 1.23,1.23 0 0 1 -1.68,0.54 c -2.3,-1.25 -3.83,-3.56 -4.01,-6.36 -1.36,-20.88 1.7,-49.43 14.88,-66.61 q 1.3,-1.7 -0.78,-1.2 -0.65,0.16 -2.11,1.11 c -13.18,8.59 -24.55,18.15 -36.52,28.26 -4.89,4.14 -8.64,5.86 -14.73,6.06 q -0.51,0.01 -0.21,-0.4 z M 191.5,97.36 c -1.06,0.99 -0.79,5.04 -0.48,6.39 a 1.64,1.64 0 0 1 -0.07,0.92 q -0.89,2.18 -0.71,4.55 0.08,1.23 0.37,0.03 1.36,-5.76 1.3,-11.71 0,-0.55 -0.41,-0.18 z m 251.1,139.48 c 2.3,-2.44 7.52,-9.28 6.74,-13.14 q -0.1,-0.51 -0.35,-0.05 -5.23,9.64 -7.02,11.57 -4.54,4.9 -8.36,10.39 a 0.43,0.42 -64.1 0 0 0.22,0.65 c 0.43,0.12 7.83,-8.42 8.77,-9.42 z m -30.47,36.95 q -2.69,3.66 0.32,0.25 3.08,-3.49 8.4,-7.61 0.41,-0.32 -0.06,-0.1 -4.79,2.19 -8.66,7.46 z"
         inkscape:connector-curvature="0"
         style="fill:#ffffff" />
      <path
         id="path39320"
         d="M 405.31,0 H 450 v 36.81 l -0.47,6.8 a 0.63,0.62 88.9 0 1 -0.55,0.58 q -1.16,0.14 -3.01,-1.18 -0.44,-0.31 -0.15,0.15 l 3.14,5.03 a 1.43,1.42 34.6 0 1 0.19,1.01 c -0.26,1.39 0.83,3.65 0.58,4.33 a 0.47,0.46 26.8 0 1 -0.69,0.22 q -8.93,-5.88 -15.06,-14.42 c -5.38,-7.51 -7.4,-17.81 -15,-24.06 q -5.13,-4.21 -10.83,-7.61 a 0.47,0.46 -63 0 0 -0.66,0.22 q -0.36,0.88 -0.03,1.87 l -1.82,-1.44 a 0.31,0.31 0 0 0 -0.49,0.18 l -0.19,1.01 c -2.49,-1.06 -9.25,-2.76 -8.64,-6.21 q 0.4,-2.29 2.71,-2.56 z"
         inkscape:connector-curvature="0"
         style="fill:#dadada" />
      <path
         id="path39322"
         d="m 407.46,9.75 c 2,2.09 10.49,11.35 10.47,13.17 q 0,0.58 -0.42,0.18 c -3.04,-2.93 -5.75,-5.31 -8.48,-8.8 q -1.93,-2.48 -4.07,-4.8 l 0.19,-1.01 a 0.31,0.31 0 0 1 0.49,-0.18 z"
         inkscape:connector-curvature="0"
         style="fill:#c3c3c3" />
      <path
         id="path39324"
         d="m 83.09,27.81 -13.56,4.06 q -1.91,0.57 -1.86,2.57 c 0.38,14.89 -0.24,29.44 1.43,43.88 q 1.4,22.65 7.25,44.66 0.44,1.65 -0.63,3 -4.64,5.86 -10.58,10.41 a 1.02,1.01 64.5 0 1 -1.6,-0.57 q -3.48,-14.19 -5.75,-28.57 -4.07,-34.66 -2.51,-69.57 0.13,-3.06 1.39,-5.22 3.73,-6.44 10.35,-8.93 4.3,-1.62 28.48,-9.07 10.5,-3.41 21.61,-3.56 2.48,-0.03 0.88,1.86 -5.34,6.37 -11.81,11.43 -1.86,1.46 -3.75,0.04 c -2.24,-1.68 -16.33,2.62 -19.34,3.58 z"
         inkscape:connector-curvature="0"
         style="fill:#0b0b0b" />
      <path
         id="path39326"
         d="m 212.45,16.99 q 0.56,0.35 0.27,1.28 -0.21,0.68 -0.54,0.05 c -0.43,-0.83 -1.68,-6.74 0.38,-6.49 a 0.7,0.7 0 0 1 0.59,0.9 l -1.03,3.38 a 0.78,0.77 24.9 0 0 0.33,0.88 z"
         inkscape:connector-curvature="0"
         style="fill:#ffffff" />
      <path
         id="path39328"
         d="m 83.09,27.81 -3.3,13.23 a 0.83,0.82 -62.7 0 0 0.26,0.82 q 3.23,2.75 0.91,6.86 -3.6,6.38 -7.52,12.57 a 1.4,1.38 58.2 0 0 -0.21,0.92 q 1.11,8.92 -4.13,16.11 C 67.43,63.88 68.05,49.33 67.67,34.44 q -0.05,-2 1.86,-2.57 z m -4.88,15.82 c -1.32,3.59 -4.44,8.42 -4.41,12.05 q 0,0.5 0.19,0.04 1.86,-4.61 5.07,-8.41 c 0.91,-1.09 1.95,-2.97 1.06,-4.02 a 1.12,1.12 0 0 0 -1.91,0.34 z"
         inkscape:connector-curvature="0"
         style="fill:#ffffff" />
      <path
         id="path39330"
         d="m 159,40.71 q -4.46,1.34 -8.73,4.31 1.09,-7.66 6.37,-12.63 2.39,-2.26 6.09,-3.03 a 0.43,0.43 0 0 1 0.52,0.43 l -0.01,0.86 a 0.43,0.43 0 0 0 0.64,0.38 q 1.56,-0.87 3.34,-1.27 2.46,-0.54 1.01,1.52 -3.92,5.61 -9.23,9.43 z"
         inkscape:connector-curvature="0"
         style="fill:#dadada" />
      <path
         id="path39332"
         d="m 397.28,79.77 c 0.29,-0.11 5.81,-3.17 4.06,0.16 q -2.11,4.01 -4.75,6.72 a 4.04,4.02 -20 0 0 -1.1,2.35 c -1.2,11.08 -3.58,26.23 2.57,36 a 1.64,1.63 -44.3 0 1 -0.03,1.79 q -4.12,6.08 -10.33,10.1 -1.92,1.25 -3.1,-0.72 c -5.81,-9.69 -3.23,-26.69 -1.9,-38.21 a 1.53,1.53 0 0 0 -1.55,-1.7 c -5.18,0.09 -20.62,2.37 -20.62,-6.08 q 0.01,-14.54 -0.09,-29.09 c -0.06,-7.91 5.54,-14.02 12.47,-17.13 a 0.34,0.33 -11.8 0 1 0.47,0.3 q 0.23,15.61 0.19,31.25 -0.01,2.95 0.72,5.31 0.69,2.28 3.08,2.38 l 6.66,0.28 a 0.68,0.67 -83.8 0 0 0.7,-0.57 q 2.74,-16.85 5.54,-33.65 c 0.92,-5.48 7.21,-10.87 11.61,-13.44 q 1.51,-0.88 1.28,0.85 -2.59,19.23 -6.24,38.19 c -0.28,1.45 -0.18,3.12 -0.12,4.59 a 0.35,0.35 0 0 0 0.48,0.32 z"
         inkscape:connector-curvature="0"
         style="fill:#0b0b0b" />
      <path
         id="path39334"
         d="m 277.32,72.43 c 6.09,-0.2 9.84,-1.92 14.73,-6.06 11.97,-10.11 23.34,-19.67 36.52,-28.26 q 1.46,-0.95 2.11,-1.11 2.08,-0.5 0.78,1.2 c -13.18,17.18 -16.24,45.73 -14.88,66.61 0.18,2.8 1.71,5.11 4.01,6.36 a 1.23,1.23 0 0 0 1.68,-0.54 q 10.02,-20.26 13.69,-41.92 c 1.42,-8.38 4.29,-13.39 12.32,-16.29 a 0.43,0.42 75 0 1 0.56,0.33 q 0.66,3.87 0.44,6.5 c -0.95,11.1 -3.05,25.73 -3.64,40.68 q -0.33,8.47 0.83,13.93 a 1.08,1.07 8.8 0 0 0.53,0.72 c 3.48,1.9 1.79,4.24 -0.25,6.32 -3.14,3.2 -11.27,13.2 -13.26,3.57 -1.28,-6.21 -0.72,-11.9 -0.2,-18.85 a 0.45,0.45 0 0 0 -0.51,-0.48 q -0.39,0.06 -0.65,0.5 c -3.42,5.8 -12.63,18.57 -19.87,19.17 -7.21,0.61 -8.85,-6.55 -9.24,-13.11 q -0.03,-0.49 -0.3,-0.08 c -10.25,14.96 -20.73,23.99 -39.79,24.47 q -3.82,0.1 -7.19,-1.67 a 0.74,0.73 42.5 0 0 -0.74,0.03 l -4.36,2.77 a 0.45,0.45 0 0 1 -0.69,-0.35 c -0.7,-12.78 -1.13,-24.37 1.03,-36.97 a 0.59,0.59 0 0 0 -0.68,-0.68 l -4.01,0.68 q -1.26,0.21 -0.64,-0.91 l 5.06,-9.03 q 0.25,-0.44 0.25,-0.94 l 0.36,-26.54 q 0.01,-0.89 -0.73,-0.4 l -5.3,3.46 q -0.48,0.31 -0.4,-0.25 0.3,-2.07 2.27,-4.37 c 9.1,-10.58 21.29,-17.77 34.96,-16.22 a 1.03,1.02 85.2 0 1 0.86,0.73 c 2.72,9.05 -0.59,19.14 -5.87,26.6 q -0.3,0.41 0.21,0.4 z m 28.25,9.37 c 2.76,-11.94 4.81,-18.81 8.66,-27.74 q 0.58,-1.36 -0.57,-0.44 l -20,15.98 q -0.46,0.37 0.12,0.46 9.52,1.48 10.31,11.15 a 0.98,0.97 15.9 0 0 0.39,0.69 l 0.29,0.21 a 0.52,0.52 0 0 0 0.8,-0.31 z m -40.58,-23.45 -1.07,19.33 a 0.43,0.42 85.4 0 0 0.51,0.44 c 6.05,-1.36 8.57,-16.08 5.12,-20.78 a 1.04,1.03 66.9 0 0 -1.01,-0.41 l -2.74,0.5 a 1,0.99 86.7 0 0 -0.81,0.92 z m 9.36,27.03 c -9.13,6.2 -14.01,16.23 -11.72,26.96 3,14.12 16.37,12.77 26.28,8.25 q 2.13,-0.98 2.62,-3.26 1.92,-8.91 0.73,-17.86 c -0.45,-3.37 -0.48,-6.8 -2.18,-10.33 -3.18,-6.58 -9.81,-7.78 -15.73,-3.76 z m -10.696,4.6784 a 3.88,0.65 133.2 0 0 3.1298,-2.3834 3.88,0.65 133.2 0 0 2.1822,-3.2734 3.88,0.65 133.2 0 0 -3.1298,2.3834 3.88,0.65 133.2 0 0 -2.1822,3.2734 z"
         inkscape:connector-curvature="0"
         style="fill:#0b0b0b" />
      <path
         id="path39336"
         d="m 198.21,61.75 0.92,-7.32 q 4.77,-6.09 11.34,-8.99 a 0.33,0.33 0 0 1 0.47,0.29 l 0.25,30.7 a 0.62,0.62 0 0 0 0.87,0.56 l 11.07,-4.68 a 1.01,1.01 0 0 0 0.62,-0.9 c 0.18,-6.12 0.46,-13.78 2.76,-18.97 2.18,-4.93 7.5,-10.89 13.23,-11.84 5.37,-0.89 7.12,3.89 6.11,8.5 q -2.29,10.41 -8.7,17.99 a 1.35,1.34 -24.7 0 0 -0.33,0.88 q -0.14,20.55 0.02,41.02 0.06,8.13 1.43,15.97 0.29,1.64 -0.72,2.96 -4.05,5.27 -9.51,9.05 -2.28,1.59 -2.73,-1.15 -1.02,-6.08 -1.07,-11.14 -0.2,-22.59 -0.57,-45.19 a 0.33,0.33 0 0 0 -0.5,-0.28 l -11.27,6.33 a 1.06,1.04 -13.8 0 0 -0.54,0.88 q -0.65,14.73 1.03,29.38 0.06,0.55 0.38,1.01 0.89,1.27 0.73,2.81 a 1.53,1.52 70.1 0 1 -0.44,0.94 q -4.29,4.26 -8.52,8.55 c -2.25,2.29 -4.66,3.24 -6.43,-0.29 a 0.84,0.84 0 0 1 0.16,-0.97 l 0.76,-0.75 a 0.87,0.86 -27.2 0 0 0.25,-0.77 c -0.35,-2.22 -1.03,-4.23 -1.03,-6.45 q 0.01,-14.17 -0.01,-27.68 a 1.08,1.08 0 0 0 -1.08,-1.08 q -1.22,-0.01 -1.65,-1.09 a 0.83,0.83 0 0 1 0.29,-0.99 q 2.44,-1.73 2.44,-3.29 0.05,-12 -0.03,-24 z"
         inkscape:connector-curvature="0"
         style="fill:#0b0b0b" />
      <path
         id="path39338"
         d="m 159,40.71 q 1.08,2.47 0.95,5.65 -3.59,20.88 -6,42.63 -0.53,4.77 1.95,0.67 9.96,-16.5 23.53,-33.75 4.04,-5.13 9.58,-8.76 a 0.82,0.82 0 0 1 1.23,0.44 c 0.56,1.74 -6.05,9.2 -7.43,10.77 a 1.35,1.34 -24.7 0 0 -0.33,0.88 l 0.01,0.35 q 0.01,0.84 0.66,0.29 l 3.7,-3.16 q 2.46,-2.09 2.32,1.13 l -1.13,26.9 q -0.33,9.6 -0.25,26 0.02,5.34 2.53,9.63 a 0.73,0.72 50.6 0 1 -0.08,0.84 l -3.53,4.03 -7.44,6.72 a 1.27,1.27 0 0 1 -1.89,-0.21 c -1.55,-2.21 -2.22,-4.05 -2.29,-6.91 q -0.68,-27.91 1.15,-54.39 0.21,-2.95 -1.41,-0.47 -9.96,15.3 -18.95,30.95 c -1.91,3.33 -2.39,7 1.69,8.62 a 0.94,0.93 32.4 0 1 0.34,1.51 q -4.94,5.31 -9.91,9.84 c -1.19,1.07 -2.87,1.01 -3.74,2.26 -1.84,2.63 -11.26,15.39 -15.13,14.45 a 0.33,0.33 0 0 1 -0.21,-0.47 l 11.39,-21.44 q 0.81,-1.52 0.82,-3.24 0.07,-24.84 4.98,-49.06 c 0.62,-3.07 0.44,-6.23 0.22,-9.24 q -0.04,-0.5 -0.44,-0.21 l -7.67,5.45 a 0.71,0.7 -22.8 0 0 -0.29,0.7 q 3.61,21.54 1.35,43.35 -0.16,1.46 -0.99,2.68 -4.96,7.27 -11.91,13.63 l -5.97,3.82 c -6.68,3.37 -11.67,2.08 -18.32,2.76 a 0.65,0.65 0 0 0 -0.58,0.65 l -0.03,19.29 a 1.4,1.4 0 0 1 -1.69,1.36 l -10.61,-2.29 a 0.67,0.67 0 0 1 -0.53,-0.64 q -0.75,-33.86 0.65,-60.91 0.3,-5.77 0.05,-8.82 -0.04,-0.6 -0.51,-0.21 l -2.58,2.14 a 0.87,0.87 0 0 1 -0.99,0.07 c -2.02,-1.21 3.75,-8.12 4.4,-9.75 q 2.72,-6.82 9.34,-10.52 c 7.75,-4.34 14.66,-8.97 23.74,-10.01 q 9.62,-1.24 12.99,7.43 a 1.24,1.24 0 0 0 1.91,0.53 l 12.62,-9.65 q 4.27,-2.97 8.73,-4.31 z m -43.87,19.2 q -4.8,-0.26 -10.12,0.76 -2.62,0.51 -2.54,3.18 0.35,12.24 -1.19,24.35 -0.16,1.33 0.78,0.38 L 122.5,68.07 a 1.11,1.09 64.1 0 0 0.31,-0.92 q -0.42,-3.21 -2.38,-5.23 -1.77,-1.83 -5.3,-2.01 z m 5.41,53.09 5.66,-0.27 a 1.09,1.09 0 0 0 1.04,-1.09 L 127.21,93.5 q -0.14,-10.76 -2.38,-21.33 -0.22,-1.04 -0.99,-0.31 -8.99,8.62 -17.54,17.94 c -4.29,4.67 -3.5,10.25 -3.56,15.99 a 1.77,1.73 -61.4 0 0 0.26,0.92 q 5.97,9.6 17.54,6.29 z"
         inkscape:connector-curvature="0"
         style="fill:#0b0b0b" />
      <path
         id="path39340"
         d="m 78.21,43.63 a 1.12,1.12 0 0 1 1.91,-0.34 c 0.89,1.05 -0.15,2.93 -1.06,4.02 q -3.21,3.8 -5.07,8.41 -0.19,0.46 -0.19,-0.04 c -0.03,-3.63 3.09,-8.46 4.41,-12.05 z"
         inkscape:connector-curvature="0"
         style="fill:#dadada" />
      <path
         id="path39342"
         d="m 314.23,54.06 c -3.85,8.93 -5.9,15.8 -8.66,27.74 a 0.52,0.52 0 0 1 -0.8,0.31 l -0.29,-0.21 a 0.98,0.97 15.9 0 1 -0.39,-0.69 Q 303.3,71.54 293.78,70.06 293.2,69.97 293.66,69.6 l 20,-15.98 q 1.15,-0.92 0.57,0.44 z"
         inkscape:connector-curvature="0"
         style="fill:#ffffff" />
      <path
         id="path39344"
         d="m 265.8,57.43 2.74,-0.5 a 1.04,1.03 66.9 0 1 1.01,0.41 c 3.45,4.7 0.93,19.42 -5.12,20.78 a 0.43,0.42 85.4 0 1 -0.51,-0.44 l 1.07,-19.33 a 1,0.99 86.7 0 1 0.81,-0.92 z"
         inkscape:connector-curvature="0"
         style="fill:#ffffff" />
      <path
         id="path39346"
         d="m 120.43,61.92 q 1.96,2.02 2.38,5.23 a 1.11,1.09 64.1 0 1 -0.31,0.92 l -20.44,20.51 q -0.94,0.95 -0.78,-0.38 1.54,-12.11 1.19,-24.35 -0.08,-2.67 2.54,-3.18 5.32,-1.02 10.12,-0.76 3.53,0.18 5.3,2.01 z"
         inkscape:connector-curvature="0"
         style="fill:#dadada" />
      <path
         id="path39348"
         d="m 127.21,93.5 q -3.15,-0.37 -3.78,2.74 -1.66,8.34 -2.89,16.76 -11.57,3.31 -17.54,-6.29 a 1.77,1.73 -61.4 0 1 -0.26,-0.92 c 0.06,-5.74 -0.73,-11.32 3.56,-15.99 q 8.55,-9.32 17.54,-17.94 0.77,-0.73 0.99,0.31 2.24,10.57 2.38,21.33 z"
         inkscape:connector-curvature="0"
         style="fill:#dadada" />
      <path
         id="path39350"
         d="m 262.63,112.34 c -2.29,-10.73 2.59,-20.76 11.72,-26.96 5.92,-4.02 12.55,-2.82 15.73,3.76 1.7,3.53 1.73,6.96 2.18,10.33 q 1.19,8.95 -0.73,17.86 -0.49,2.28 -2.62,3.26 c -9.91,4.52 -23.28,5.87 -26.28,-8.25 z"
         inkscape:connector-curvature="0"
         style="fill:#ffffff" />
      <ellipse
         id="ellipse39352"
         ry="0.64999998"
         rx="3.8800001"
         transform="rotate(133.2,114.2811,101.23631)"
         cy="0"
         cx="0"
         style="fill:#c3c3c3" />
      <path
         id="path39354"
         d="m 127.21,93.5 0.03,18.14 a 1.09,1.09 0 0 1 -1.04,1.09 l -5.66,0.27 q 1.23,-8.42 2.89,-16.76 0.63,-3.11 3.78,-2.74 z"
         inkscape:connector-curvature="0"
         style="fill:#c3c3c3" />
      <path
         id="path39356"
         d="m 191.02,103.75 c -0.31,-1.35 -0.58,-5.4 0.48,-6.39 q 0.41,-0.37 0.41,0.18 0.06,5.95 -1.3,11.71 -0.29,1.2 -0.37,-0.03 -0.18,-2.37 0.71,-4.55 a 1.64,1.64 0 0 0 0.07,-0.92 z"
         inkscape:connector-curvature="0"
         style="fill:#dadada" />
      <path
         id="path39358"
         d="m 126.38,119.77 q -1.22,5.83 -5.01,10.47 -0.35,0.43 -0.44,0.97 -0.16,0.99 -0.94,1.62 -0.78,0.62 -0.34,-0.27 2.24,-4.57 0.76,-8.97 z"
         inkscape:connector-curvature="0"
         style="fill:#c3c3c3" />
      <path
         id="path39360"
         d="m 111.5,164.46 -3.46,15.79 c -3.56,15.03 -3.59,30.58 -4.09,45.98 a 1.69,1.68 -79.8 0 0 1.14,1.65 c 3.84,1.32 4.1,-4.98 4.62,-7.38 q 2.15,-6.47 5.33,-12.5 l 6.42,-10.75 3.58,-5.2 q 11.73,-16.59 27.44,-29.31 c 1.49,-1.2 6.43,-5.13 8.3,-4.68 a 0.8,0.8 0 0 1 0.41,1.3 l -4,4.61 a 1.42,1.41 -28.6 0 0 -0.34,1.13 l 3.38,25.88 a 0.9,0.89 77.7 0 0 1.15,0.74 l 17.22,-5.2 q 0.9,-0.27 0.57,0.61 c -2.56,6.95 -10.22,11.65 -16.79,14.14 a 0.63,0.62 72.2 0 0 -0.38,0.74 q 2.04,7.71 2.76,15.66 0.1,1.1 0.45,0.05 c 3.34,-10.11 9.92,-18.18 18.54,-26.68 q 9.52,-9.06 20.12,-16.82 1.52,-1.11 2.56,-3.01 3.9,-7.08 11.4,-10.61 a 0.43,0.43 0 0 1 0.61,0.35 l 0.34,3.31 a 0.33,0.33 0 0 0 0.51,0.24 c 4.39,-2.95 10.13,-7.16 15.7,-6.06 a 0.37,0.36 -70.2 0 1 0.25,0.54 c -3.52,6.01 -8.85,11.53 -16.03,12.51 a 0.66,0.66 0 0 0 -0.57,0.65 l -0.1,23.54 q -0.01,0.91 0.52,0.17 6.8,-9.45 12.64,-15.65 c 15.59,-16.57 41.37,-19.77 63.12,-20.83 q 2.2,-0.11 1.2,1.85 c -2.01,3.96 -7.01,10.3 -11.96,10.74 -8.34,0.74 -48.51,3.29 -50.22,13.69 q -0.75,4.58 -0.46,9.16 a 0.42,0.41 81.3 0 0 0.51,0.38 q 18.21,-4.22 36.1,-4.92 2.4,-0.1 5.28,0.42 a 0.52,0.52 0 0 1 0.41,0.6 q -0.45,2.51 -1.96,4.21 -14.39,16.18 -35.22,23.71 -0.32,-2.64 -2.07,-4.2 a 1.92,1.91 -39.9 0 0 -2.27,-0.2 c -3.22,1.98 -20.04,14.04 -13.66,18.4 -1.46,2.28 -10.7,13.13 -13.57,11.41 a 1.8,1.79 15.2 0 1 -0.89,-1.55 l -0.35,-63.81 a 0.28,0.28 0 0 0 -0.42,-0.24 q -12.73,7.35 -22.36,18.45 c -4.87,6.01 -10.68,22 0.34,25.49 q 5.91,1.4 12.09,1.23 1.18,-0.03 0.46,0.91 -4.52,5.95 -10.55,10.69 c -5.6,2.54 -11.87,0.57 -17.54,-1.46 a 0.89,0.88 -54.6 0 0 -0.86,0.15 c -4.54,3.75 -8.01,8.29 -13.09,11.26 q -1.24,0.73 -0.76,-0.62 c 1.05,-2.93 1.25,-5.24 0.6,-8.49 q -3.04,-15.38 -5.85,-30.84 a 0.46,0.46 0 0 0 -0.57,-0.36 q -9.61,2.77 -19.25,5.49 -3.45,0.97 -4.95,1.62 a 1.36,1.36 0 0 0 -0.68,0.65 q -3.33,6.81 2.76,10.75 c 2.65,1.71 10.1,4.8 13.41,3.42 8.8,-3.65 -5.04,9.16 -6.02,10.07 q -4.9,4.61 -10.91,2.24 -0.82,-0.32 -0.54,0.52 l 0.59,1.81 q 0.12,0.37 0.13,0.76 l 0.25,10.68 a 1.58,1.57 -29.8 0 1 -0.24,0.87 c -2.64,4.11 -13.36,17.3 -19.33,19.37 a 0.6,0.6 0 0 1 -0.73,-0.29 c -1.06,-2.09 4.14,-7.62 5.53,-9.25 2.31,-2.71 2.26,-3.81 1.86,-7.2 q -0.81,-6.9 -3.87,-13.19 a 1.1,1.1 0 0 0 -1.74,-0.32 l -7.26,6.82 a 0.78,0.77 -31.3 0 1 -1.26,-0.3 l -2.86,-8.09 q -0.65,-1.84 -2.57,-1.47 -23.39,4.55 -43.75,12.57 -3.97,1.59 -8.19,2.17 -0.5,0.06 -0.28,-0.39 3.01,-6.15 8.7,-10.01 l 7.36,-3.98 a 0.72,0.71 71.3 0 0 0.36,-0.74 c -2.55,-15.85 -2.68,-29.97 -2.66,-48.76 0,-4.58 0.2,-7.22 2.86,-11.15 6.05,-8.96 11.7,-16.99 22.82,-19.98 9.48,-2.54 23.41,-6.06 33.08,-4.22 q 2.34,0.44 2.16,2.82 z m -44,70.8 -0.4,0.73 q -0.18,0.34 0.19,0.23 l 23.42,-7.02 a 0.6,0.58 -8.8 0 0 0.42,-0.56 q 0.37,-25.96 6.72,-51.11 0.65,-2.54 0.88,-8.24 a 0.56,0.55 5.2 0 0 -0.48,-0.57 c -10.13,-1.36 -22.04,1.33 -31.94,4.53 q -2.19,0.7 -2.25,3 c -0.46,19.27 -0.1,38.21 3.6,58.02 a 1.49,1.46 -36.5 0 1 -0.16,0.99 z m 76.68,-61.06 q -0.6,1.13 -3.5,4.72 -8.24,10.21 -14.37,21.55 -0.37,0.67 0.38,0.5 l 18.62,-4.34 a 1.14,1.13 -10.6 0 0 0.87,-1.26 l -2.37,-18.35 a 1.35,1.35 0 0 1 0.2,-0.89 q 0.81,-1.3 0.52,-1.92 -0.16,-0.36 -0.35,-0.01 z m 110.65,29.24 q -9.04,0.1 -17.85,1.78 -2.21,0.42 -1.55,2.57 l 1.36,4.44 a 0.58,0.57 -22.1 0 0 0.81,0.34 l 17.36,-8.61 q 1.07,-0.53 -0.13,-0.52 z"
         inkscape:connector-curvature="0"
         style="fill:#0b0b0b" />
      <path
         id="path39362"
         d="m 125.04,192.05 -3.58,5.2 q -0.54,0.12 -1.09,-0.09 a 1.05,1.05 0 0 1 -0.65,-0.78 q -0.44,-2.11 -1.95,-3.54 a 0.76,0.76 0 0 1 -0.15,-0.92 c 0.35,-0.66 0.72,-1.11 0.69,-1.91 q -0.43,-11.44 1.4,-22.72 a 0.73,0.73 0 0 0 -0.48,-0.8 l -0.24,-0.08 a 0.59,0.58 6.4 0 1 -0.4,-0.49 q -0.52,-4.48 0.47,-8.83 0.17,-0.77 0.69,-0.17 3.22,3.77 3.14,9.27 -0.15,10.23 0.83,15.31 1.34,6.94 1.32,10.55 z"
         inkscape:connector-curvature="0"
         style="fill:#ffffff" />
      <path
         id="path39364"
         d="m 220.5,233.21 c -6.38,-4.36 10.44,-16.42 13.66,-18.4 a 1.92,1.91 -39.9 0 1 2.27,0.2 q 1.75,1.56 2.07,4.2 -0.22,1.65 0.85,2.98 a 1.18,1.18 0 0 0 0.83,0.44 c 4.44,0.41 8.92,1.19 13.19,1.44 10.94,0.65 24.31,3.05 34.89,-0.41 a 0.82,0.81 -5.3 0 0 0.55,-0.66 c 1.74,-12.7 2.79,-26.13 1.98,-38.89 -0.47,-7.46 5.7,-15.05 12.46,-17.21 a 0.39,0.38 81.2 0 1 0.5,0.37 v 18.02 q 0,0.93 0.62,0.24 c 5.34,-5.94 17.55,-17.83 25.61,-19.03 q 1.57,-0.24 0.83,1.17 c -3.6,6.78 -8.13,9.12 -14.53,12.61 -12.77,6.96 -13.77,23.09 -12.49,35.48 q 0.29,2.72 2.71,4 8.56,4.55 18.39,4.33 2.88,-0.07 2.98,-2.94 0.24,-6.25 2.08,-12.63 c 4.34,-15.07 9.56,-29.74 22.4,-39.77 6.01,-4.69 12.2,-6.64 19.61,-5.72 10.6,1.31 24.37,8.47 25.78,20.45 2.3,19.51 -4.68,36.42 -18.89,49.7 -10.68,9.98 -20.07,15.03 -34.53,12.18 q -13.49,-2.66 -16.26,-15.53 a 0.35,0.35 0 0 0 -0.53,-0.22 c -7.57,4.87 -12.28,8.91 -22.03,6.29 a 1.36,1.35 -52.1 0 0 -1.01,0.13 l -5.51,3.1 q -2.38,1.34 -3.86,-0.96 -3.39,-5.29 -5.25,-11.35 a 0.35,0.35 0 0 0 -0.58,-0.15 l -8.95,8.69 q -1.34,1.31 -3.2,1.57 -10.23,1.43 -21.02,0.53 c -6.12,-0.52 -11.69,-0.4 -17.57,-0.7 -1.9,-0.1 -3.36,-0.73 -5.21,-1.17 a 1.2,1.18 34.4 0 0 -0.94,0.17 l -5.23,3.41 a 0.55,0.54 52.5 0 1 -0.72,-0.1 c -2.04,-2.35 -2.32,-4.77 -5.95,-5.86 z m 129.32,-54.98 q -4.29,7.93 -5.23,16.91 a 1.2,1.19 -61.7 0 0 0.25,0.84 c 2.19,2.77 -1.05,13.6 -2.35,16.57 -8.6,19.66 29.42,27.52 36.58,14.68 4.84,-8.66 10.28,-30.65 2.36,-39.92 q -10.65,-12.47 -27.45,-11.69 -2.82,0.13 -4.16,2.61 z"
         inkscape:connector-curvature="0"
         style="fill:#0b0b0b" />
      <path
         id="path39366"
         d="m 111.5,164.46 c 1.01,-0.14 1.48,0.35 1.49,1.35 q 0.15,9.36 -0.24,18.73 a 0.66,0.65 -3.8 0 1 -0.55,0.62 c -1.23,0.19 -3.51,-3.92 -4.16,-4.91 z"
         inkscape:connector-curvature="0"
         style="fill:#ffffff" />
      <path
         id="path39368"
         d="m 67.66,234.27 c -3.7,-19.81 -4.06,-38.75 -3.6,-58.02 q 0.06,-2.3 2.25,-3 c 9.9,-3.2 21.81,-5.89 31.94,-4.53 a 0.56,0.55 5.2 0 1 0.48,0.57 q -0.23,5.7 -0.88,8.24 -6.35,25.15 -6.72,51.11 a 0.6,0.58 -8.8 0 1 -0.42,0.56 l -23.42,7.02 q -0.37,0.11 -0.19,-0.23 l 0.4,-0.73 a 1.49,1.46 -36.5 0 0 0.16,-0.99 z"
         inkscape:connector-curvature="0"
         style="fill:#dadada" />
      <path
         id="path39370"
         d="m 144.53,174.21 q 0.29,0.62 -0.52,1.92 a 1.35,1.35 0 0 0 -0.2,0.89 l 2.37,18.35 a 1.14,1.13 -10.6 0 1 -0.87,1.26 l -18.62,4.34 q -0.75,0.17 -0.38,-0.5 6.13,-11.34 14.37,-21.55 2.9,-3.59 3.5,-4.72 0.19,-0.35 0.35,0.01 z"
         inkscape:connector-curvature="0"
         style="fill:#dadada" />
      <path
         id="path39372"
         d="m 349.82,178.23 q 1.34,-2.48 4.16,-2.61 16.8,-0.78 27.45,11.69 c 7.92,9.27 2.48,31.26 -2.36,39.92 -7.16,12.84 -45.18,4.98 -36.58,-14.68 1.3,-2.97 4.54,-13.8 2.35,-16.57 a 1.2,1.19 -61.7 0 1 -0.25,-0.84 q 0.94,-8.98 5.23,-16.91 z"
         inkscape:connector-curvature="0"
         style="fill:#ffffff" />
      <path
         id="path39374"
         d="m 115.04,208 q -3.18,6.03 -5.33,12.5 -0.68,-0.11 -1.23,-0.49 a 0.8,0.8 0 0 1 -0.35,-0.78 q 0.56,-4.22 1.03,-8.46 c 0.41,-3.76 2.09,-8.39 1.91,-12.98 -0.01,-0.28 0.18,-0.6 0.38,-0.77 a 0.39,0.39 0 0 1 0.6,0.13 c 2.14,4.47 -0.94,6.16 -0.11,9.55 a 0.67,0.66 -5.8 0 0 0.62,0.5 q 1.32,0.04 2.48,0.8 z"
         inkscape:connector-curvature="0"
         style="fill:#ffffff" />
      <path
         id="path39376"
         d="m 182.91,197.47 q 1.47,3.56 0.58,6.19 -0.43,1.26 0.86,0.91 c 4.9,-1.34 3.62,4.42 2.41,6.69 -2.08,3.87 -2.69,7.43 -3.51,11.7 -11.02,-3.49 -5.21,-19.48 -0.34,-25.49 z"
         inkscape:connector-curvature="0"
         style="fill:#dadada" />
      <path
         id="path39378"
         d="m 41.5,200.04 q 0.12,-0.72 0.53,-0.12 3.39,4.81 0.49,10.04 -0.45,0.8 -0.66,-0.1 -1.14,-4.86 -0.36,-9.82 z"
         inkscape:connector-curvature="0"
         style="fill:#ffffff" />
      <path
         id="path39380"
         d="m 254.96,203.96 -17.36,8.61 a 0.58,0.57 -22.1 0 1 -0.81,-0.34 l -1.36,-4.44 q -0.66,-2.15 1.55,-2.57 8.81,-1.68 17.85,-1.78 1.2,-0.01 0.13,0.52 z"
         inkscape:connector-curvature="0"
         style="fill:#ffffff" />
      <path
         id="path39382"
         d="m 185.25,235.79 c 2.21,9.49 -0.04,18.52 3.56,27.15 1.34,3.21 5.23,4.65 7.21,7.7 3.31,5.08 5.83,7.77 7.24,13.96 a 0.89,0.89 0 0 1 -1.06,1.07 q -0.69,-0.15 -1.76,0.33 l -62.56,0.03 q -2.43,-3.46 -2.42,-8.27 0,-0.6 -0.34,-0.73 a 0.46,0.45 -72.3 0 0 -0.6,0.32 q -0.39,1.55 -1.81,2.14 a 0.99,0.99 0 0 1 -1.35,-0.69 q -1.45,-6.4 -3.83,-12.64 c -0.67,-1.74 -0.25,-4.05 -2.07,-5.62 q -0.47,-0.4 -0.36,0.2 l 3.98,23.48 a 1.17,1.16 -89.7 0 1 -1.35,1.34 c -1.7,-0.31 -4.83,-20.25 -5.4,-23.03 q -0.1,-0.49 -0.44,-0.13 c -1.28,1.36 -4.17,4.74 -6.65,4.88 a 0.99,0.98 14.6 0 0 -0.77,0.45 q -1.15,1.8 -1,4.03 0.44,6.6 0.32,13.26 a 0.77,0.76 78.3 0 1 -0.44,0.68 l -0.66,0.3 h -6.25 q -3,0.16 -3.3,-2.47 a 0.32,0.31 -17.9 0 0 -0.47,-0.24 l -0.23,0.13 a 0.15,0.12 83.7 0 0 -0.07,0.11 l -0.19,1.57 a 0.72,0.69 0.4 0 1 -0.65,0.62 L 97.69,286 H 51.44 l -5.93,-0.48 a 0.56,0.55 2.9 0 1 -0.5,-0.55 q -0.02,-7.37 -0.61,-14.68 -0.2,-2.56 0.43,-5.51 1.26,-5.84 0.92,-11.82 20.36,-8.02 43.75,-12.57 1.92,-0.37 2.57,1.47 l 2.86,8.09 a 0.78,0.77 -31.3 0 0 1.26,0.3 l 7.26,-6.82 a 1.1,1.1 0 0 1 1.74,0.32 q 3.06,6.29 3.87,13.19 c 0.4,3.39 0.45,4.49 -1.86,7.2 -1.39,1.63 -6.59,7.16 -5.53,9.25 a 0.6,0.6 0 0 0 0.73,0.29 c 5.97,-2.07 16.69,-15.26 19.33,-19.37 a 1.58,1.57 -29.8 0 0 0.24,-0.87 l -0.25,-10.68 q -0.01,-0.39 -0.13,-0.76 L 121,240.19 q -0.28,-0.84 0.54,-0.52 6.01,2.37 10.91,-2.24 c 0.98,-0.91 14.82,-13.72 6.02,-10.07 -3.31,1.38 -10.76,-1.71 -13.41,-3.42 Q 118.97,220 122.3,213.19 a 1.36,1.36 0 0 1 0.68,-0.65 q 1.5,-0.65 4.95,-1.62 9.64,-2.72 19.25,-5.49 a 0.46,0.46 0 0 1 0.57,0.36 q 2.81,15.46 5.85,30.84 c 0.65,3.25 0.45,5.56 -0.6,8.49 q -0.48,1.35 0.76,0.62 c 5.08,-2.97 8.55,-7.51 13.09,-11.26 a 0.89,0.88 -54.6 0 1 0.86,-0.15 c 5.67,2.03 11.94,4 17.54,1.46 z m -51.44,37.65 q 0.11,-0.95 -0.58,-1.27 -0.74,-0.35 -0.43,0.41 l 0.69,1.64 q 0.21,0.5 0.48,0.03 0.22,-0.4 -0.16,-0.81 z"
         inkscape:connector-curvature="0"
         style="fill:#dadada" />
      <path
         id="path39384"
         d="m 449.34,223.7 c 0.78,3.86 -4.44,10.7 -6.74,13.14 -0.94,1 -8.34,9.54 -8.77,9.42 a 0.43,0.42 -64.1 0 1 -0.22,-0.65 q 3.82,-5.49 8.36,-10.39 1.79,-1.93 7.02,-11.57 0.25,-0.46 0.35,0.05 z"
         inkscape:connector-curvature="0"
         style="fill:#dadada" />
      <path
         id="path39386"
         d="M 450,235.56 V 286 h -32.56 l -18.72,-0.73 q -0.54,-0.02 -0.99,-0.31 -0.63,-0.39 -1.43,-0.2 -0.89,0.22 -0.35,-0.53 1.02,-1.4 2.56,-1.02 a 1.64,1.61 40.4 0 0 1.01,-0.07 q 2.36,-0.96 4.39,-2.43 c 1.81,-1.31 3.88,-1.4 5.29,-2.26 6.89,-4.17 12.82,-10.02 16.4,-17.26 1.14,-2.3 2.15,-4.69 3.97,-6.61 q 7.85,-8.28 13.94,-17.94 a 1.33,1.3 -82.9 0 1 0.69,-0.55 q 3.68,-1.23 4.08,-5.17 a 0.47,0.47 0 0 1 0.56,-0.41 c 0.66,0.13 0.98,3.44 1.16,5.05 z"
         inkscape:connector-curvature="0"
         style="fill:#dadada" />
      <path
         id="path39388"
         d="m 137.88,286.03 -25.19,-0.03 0.66,-0.3 a 0.77,0.76 78.3 0 0 0.44,-0.68 q 0.12,-6.66 -0.32,-13.26 -0.15,-2.23 1,-4.03 a 0.99,0.98 14.6 0 1 0.77,-0.45 c 2.48,-0.14 5.37,-3.52 6.65,-4.88 q 0.34,-0.36 0.44,0.13 c 0.57,2.78 3.7,22.72 5.4,23.03 a 1.17,1.16 -89.7 0 0 1.35,-1.34 l -3.98,-23.48 q -0.11,-0.6 0.36,-0.2 c 1.82,1.57 1.4,3.88 2.07,5.62 q 2.38,6.24 3.83,12.64 a 0.99,0.99 0 0 0 1.35,0.69 q 1.42,-0.59 1.81,-2.14 a 0.46,0.45 -72.3 0 1 0.6,-0.32 q 0.34,0.13 0.34,0.73 -0.01,4.81 2.42,8.27 z"
         inkscape:connector-curvature="0"
         style="fill:#ffffff" />
      <path
         id="path39390"
         d="m 412.13,273.79 q 3.87,-5.27 8.66,-7.46 0.47,-0.22 0.06,0.1 -5.32,4.12 -8.4,7.61 -3.01,3.41 -0.32,-0.25 z"
         inkscape:connector-curvature="0"
         style="fill:#dadada" />
      <path
         id="path39392"
         d="m 133.81,273.44 q 0.38,0.41 0.16,0.81 -0.27,0.47 -0.48,-0.03 l -0.69,-1.64 q -0.31,-0.76 0.43,-0.41 0.69,0.32 0.58,1.27 z"
         inkscape:connector-curvature="0"
         style="fill:#ffffff" />
      <path
         id="path39394"
         d="m 106.44,286 h -8.75 l 3.84,-0.28 a 0.72,0.69 0.4 0 0 0.65,-0.62 l 0.19,-1.57 a 0.15,0.12 83.7 0 1 0.07,-0.11 l 0.23,-0.13 a 0.32,0.31 -17.9 0 1 0.47,0.24 q 0.3,2.63 3.3,2.47 z"
         inkscape:connector-curvature="0"
         style="fill:#ffffff" />
    </g>
  </g>
</svg>
