<?xml version="1.0" encoding="UTF-8" standalone="no"?>
<!DOCTYPE svg PUBLIC "-//W3C//DTD SVG 1.1//EN" "http://www.w3.org/Graphics/SVG/1.1/DTD/svg11.dtd">
<svg xmlns="http://www.w3.org/2000/svg" version="1.1" viewBox="0 0 447 213">
<g stroke-width="2.00" fill="none" stroke-linecap="butt">
<path stroke="#ebebeb" vector-effect="non-scaling-stroke" d="
  M 121.06 0.00
  Q 117.59 -0.01 114.18 0.84
  Q 112.82 1.18 114.22 1.29
  Q 118.43 1.62 119.14 5.52
  A 1.12 1.10 8.4 0 0 119.74 6.31
  Q 122.62 7.74 123.79 10.50"
/>
<path stroke="#828282" vector-effect="non-scaling-stroke" d="
  M 123.79 10.50
  C 117.25 14.48 111.13 18.84 104.41 22.57
  C 99.16 25.48 96.93 29.82 92.62 33.40
  C 76.91 46.45 62.84 62.10 54.91 81.20
  A 1.67 1.64 -4.3 0 1 54.23 81.98
  Q 48.83 85.10 45.52 90.33
  Q 44.59 91.81 46.30 91.45
  L 51.13 90.43
  A 0.33 0.33 0.0 0 1 51.52 90.82
  Q 49.61 99.68 49.07 108.74
  C 48.61 116.44 56.84 118.34 62.54 115.04
  C 65.44 113.36 74.15 107.09 73.80 103.41
  Q 73.74 102.76 73.28 103.24
  Q 68.25 108.58 61.35 105.71
  Q 59.57 104.97 59.62 103.05
  L 59.96 88.30
  A 0.81 0.80 81.3 0 1 60.51 87.55
  Q 76.60 82.26 93.41 80.16
  A 0.49 0.49 0.0 0 1 93.96 80.66
  C 93.53 91.97 94.18 102.04 100.06 110.75
  A 0.68 0.68 0.0 0 0 100.97 110.95
  Q 106.03 107.88 109.64 103.19
  A 1.45 1.45 0.0 0 0 109.75 101.56
  Q 104.02 91.79 104.01 80.39
  A 0.54 0.53 -87.6 0 1 104.59 79.85
  Q 108.36 80.16 111.78 81.84
  A 0.89 0.88 35.4 0 0 112.81 81.67
  L 120.58 73.90
  Q 123.05 71.43 119.59 70.93
  Q 112.48 69.89 105.24 70.04
  A 1.48 1.47 -89.6 0 1 103.73 68.50
  L 105.09 29.40
  Q 105.17 27.01 107.19 25.72
  L 125.25 14.21"
/>
<path stroke="#ebebeb" vector-effect="non-scaling-stroke" d="
  M 125.25 14.21
  Q 130.34 19.14 133.01 25.71
  C 134.12 28.45 138.33 31.12 139.99 34.19
  Q 145.54 44.46 150.54 55.00"
/>
<path stroke="#828282" vector-effect="non-scaling-stroke" d="
  M 150.54 55.00
  Q 142.49 65.78 133.32 75.83
  Q 132.98 76.19 132.99 75.70
  C 133.23 63.45 135.12 51.14 134.94 38.99
  A 0.88 0.88 0.0 0 0 133.61 38.24
  C 130.11 40.28 124.66 44.17 124.70 48.83
  Q 124.72 52.13 124.72 52.17
  Q 122.37 77.29 123.24 102.59
  Q 123.32 105.01 125.19 106.54
  C 127.84 108.71 132.32 102.99 134.33 101.24
  A 1.12 1.10 27.2 0 1 135.20 100.97
  C 143.65 101.94 149.38 95.89 155.17 89.34
  Q 155.51 88.96 155.66 89.44
  C 158.28 97.53 161.44 102.96 171.38 101.84"
/>
<path stroke="#e3e3e3" vector-effect="non-scaling-stroke" d="
  M 171.38 101.84
  C 175.08 109.66 175.81 113.86 177.04 123.25"
/>
<path stroke="#ebebeb" vector-effect="non-scaling-stroke" d="
  M 177.04 123.25
  Q 175.72 123.88 174.66 122.59
  Q 174.34 122.19 174.16 122.68
  C 173.55 124.40 176.46 127.96 176.89 130.11
  Q 177.44 132.86 178.50 135.46"
/>
<path stroke="#828282" vector-effect="non-scaling-stroke" d="
  M 178.50 135.46
  Q 172.14 136.85 170.46 136.31
  Q 161.81 133.48 157.11 125.58
  A 0.68 0.68 0.0 0 1 157.18 124.79
  L 160.71 120.74
  A 0.34 0.34 0.0 0 0 160.52 120.19
  C 153.38 118.67 148.74 122.92 144.53 128.59
  A 1.75 1.71 -80.5 0 1 143.75 129.16
  C 136.13 131.83 128.83 135.81 124.95 143.23
  A 0.26 0.25 36.0 0 0 125.00 143.52
  L 125.20 143.72
  A 0.32 0.31 -37.3 0 0 125.58 143.77
  C 125.99 143.54 135.08 138.42 136.13 138.75
  Q 136.73 138.94 136.20 139.29
  C 132.69 141.55 128.33 145.30 128.09 149.81
  C 127.79 155.33 128.39 160.04 127.00 166.00
  Q 126.77 166.99 127.49 168.21
  A 1.53 1.50 32.6 0 1 127.70 169.11
  L 126.87 177.99
  A 1.58 1.58 0.0 0 1 126.53 178.81
  C 123.67 182.35 118.06 187.42 123.74 191.84
  C 127.46 194.73 135.04 193.87 139.83 193.19
  C 151.36 191.57 160.25 188.65 167.86 179.44
  Q 168.86 178.24 168.64 179.79
  Q 167.74 186.24 168.03 192.75
  Q 168.15 195.53 170.63 196.79
  C 177.06 200.05 180.03 196.67 185.10 193.25"
/>
<path stroke="#e3e3e3" vector-effect="non-scaling-stroke" d="
  M 185.10 193.25
  Q 181.71 202.87 182.87 213.01"
/>
<path stroke="#828282" vector-effect="non-scaling-stroke" d="
  M 62.43 144.12
  C 59.42 147.57 54.59 148.96 54.30 154.53
  Q 53.71 165.43 54.19 177.84
  A 2.62 2.60 -17.6 0 1 52.99 180.14
  C 50.42 181.78 44.48 187.38 45.54 190.94
  C 46.88 195.42 54.54 198.71 58.82 199.67
  Q 65.29 201.11 76.24 199.21
  C 85.20 197.65 98.11 187.27 97.98 177.25
  Q 97.89 170.08 95.64 161.67
  C 92.95 151.60 85.99 154.19 78.20 154.98
  Q 77.70 155.04 78.05 154.67
  C 81.72 150.73 91.65 139.12 86.73 133.57
  Q 85.38 132.04 82.45 132.02
  Q 66.26 131.90 56.39 144.69
  Q 56.19 144.95 56.18 145.20
  Q 56.17 145.46 56.24 145.68
  A 0.43 0.42 -21.2 0 0 56.81 145.93
  L 62.09 143.65
  Q 63.28 143.14 62.43 144.12"
/>
<path stroke="#ebebeb" vector-effect="non-scaling-stroke" d="
  M 256.56 0.00
  Q 259.04 1.07 260.89 3.04
  Q 261.24 3.42 261.73 3.61
  L 270.62 6.99
  A 0.64 0.62 -62.9 0 0 271.37 6.74
  L 271.54 6.48
  A 0.49 0.49 0.0 0 0 271.33 5.76
  Q 267.68 4.19 265.93 0.79
  A 0.47 0.47 0.0 0 1 266.04 0.23
  L 266.31 0.00"
/>
<path stroke="#ebebeb" vector-effect="non-scaling-stroke" d="
  M 286.81 0.00
  Q 292.54 0.25 296.21 4.54
  Q 311.84 22.79 327.53 40.97
  Q 331.86 45.97 337.46 55.00"
/>
<path stroke="#cfcfcf" vector-effect="non-scaling-stroke" d="
  M 337.46 55.00
  C 333.92 52.61 332.27 49.05 328.06 47.36
  A 1.76 1.75 -39.0 0 0 327.09 47.26
  L 320.63 48.47
  A 1.04 1.03 -26.1 0 1 319.66 48.14
  Q 317.23 45.35 313.76 44.07
  A 0.97 0.95 34.3 0 0 312.81 44.24
  L 311.45 45.42
  A 0.64 0.63 -38.0 0 0 311.34 46.27
  Q 312.84 48.46 317.46 54.55
  C 323.95 63.09 329.17 73.17 334.85 82.14
  C 338.68 88.18 342.69 94.10 345.64 100.65
  Q 348.05 106.01 349.60 108.80
  Q 355.43 119.33 362.00 132.97
  C 362.87 134.77 362.78 136.53 363.50 138.00
  C 365.30 141.65 366.85 144.61 368.46 148.83
  Q 370.32 153.67 373.29 158.00"
/>
<path stroke="#6e6e6e" vector-effect="non-scaling-stroke" d="
  M 373.29 158.00
  L 364.84 167.75
  Q 364.22 168.45 364.18 167.52
  Q 363.46 152.47 361.72 137.49
  A 0.47 0.46 76.0 0 0 361.09 137.11
  C 352.98 140.29 351.49 145.99 352.32 154.19
  Q 353.53 165.95 354.25 177.75
  Q 354.53 182.36 352.29 185.00"
/>
<path stroke="#ebebeb" vector-effect="non-scaling-stroke" d="
  M 352.29 185.00
  L 348.50 180.21
  A 0.50 0.50 0.0 0 0 347.74 180.19
  L 347.30 180.69
  Q 345.79 182.42 346.89 184.44
  Q 347.50 185.55 348.70 185.70
  A 0.69 0.67 86.8 0 1 349.27 186.22
  Q 349.51 187.34 350.71 187.50"
/>
<path stroke="#6e6e6e" vector-effect="non-scaling-stroke" d="
  M 350.71 187.50
  L 346.04 194.75"
/>
<path stroke="#ebebeb" vector-effect="non-scaling-stroke" d="
  M 346.04 194.75
  C 342.60 191.99 341.16 186.62 338.92 182.76
  A 0.51 0.51 0.0 0 0 338.56 182.51
  L 338.25 182.46"
/>
<path stroke="#6e6e6e" vector-effect="non-scaling-stroke" d="
  M 338.25 182.46
  Q 350.95 168.13 351.09 149.33
  C 351.19 135.49 339.23 127.56 326.43 130.34
  C 320.83 131.56 315.82 137.14 312.29 141.50"
/>
<path stroke="#ebebeb" vector-effect="non-scaling-stroke" d="
  M 312.29 141.50
  Q 308.43 136.74 303.44 133.14
  A 1.79 1.77 7.7 0 1 302.82 132.34
  L 301.87 129.94
  A 1.70 1.62 8.7 0 0 301.33 129.24
  C 300.69 128.75 296.03 123.97 297.31 123.30
  A 0.46 0.46 0.0 0 1 297.90 123.44
  Q 299.88 126.23 303.14 127.22
  A 0.36 0.36 0.0 0 0 303.50 127.12
  L 303.71 126.91
  A 0.36 0.35 -43.1 0 0 303.73 126.44
  L 291.28 111.75
  A 0.81 0.80 -42.1 0 1 291.34 110.64
  L 292.57 109.48
  A 1.22 1.21 -40.5 0 1 294.37 109.62
  Q 295.65 111.28 297.35 112.52
  Q 298.98 113.71 298.08 111.91
  L 297.32 110.40
  A 0.65 0.65 0.0 0 1 297.57 109.55
  Q 298.56 108.93 299.82 109.28
  Q 300.47 109.46 299.98 109.00
  L 296.54 105.77
  Q 295.73 105.01 295.74 106.12
  L 295.76 107.51
  Q 295.78 108.47 295.38 107.60
  Q 294.72 106.14 293.29 106.00"
/>
<path stroke="#6e6e6e" vector-effect="non-scaling-stroke" d="
  M 293.29 106.00
  Q 292.02 102.76 290.19 99.80
  C 281.25 85.30 279.38 65.46 278.71 48.92
  Q 278.63 47.01 279.95 45.63
  L 284.57 40.82
  Q 285.52 39.83 284.15 39.76
  Q 283.01 39.71 281.27 41.02
  C 269.60 49.84 260.78 60.05 251.79 73.50"
/>
<path stroke="#ebebeb" vector-effect="non-scaling-stroke" d="
  M 251.79 73.50
  C 247.07 71.58 244.26 68.63 238.78 67.39
  Q 238.20 67.25 238.50 67.77
  L 240.64 71.50
  A 0.91 0.91 0.0 0 0 241.33 71.95
  Q 243.98 72.19 243.74 74.92
  A 1.40 1.39 -88.4 0 1 242.40 76.19
  L 240.68 76.25
  A 0.71 0.70 84.9 0 0 240.01 77.06
  L 240.44 80.09
  A 0.68 0.67 76.6 0 1 239.99 80.83
  L 238.03 81.51
  A 0.78 0.78 0.0 0 0 237.50 82.26
  L 237.50 86.07
  A 1.27 1.27 0.0 0 0 237.86 86.93
  Q 238.62 87.69 239.75 87.79"
/>
<path stroke="#6e6e6e" vector-effect="non-scaling-stroke" d="
  M 239.75 87.79
  Q 238.79 88.77 238.95 90.07
  A 0.80 0.79 1.5 0 0 239.61 90.76
  L 241.11 91.00
  A 1.27 1.26 16.3 0 1 242.07 92.75
  C 239.67 98.31 235.13 110.89 245.25 112.04"
/>
<path stroke="#ebebeb" vector-effect="non-scaling-stroke" d="
  M 245.25 112.04
  L 245.08 113.59
  A 0.77 0.76 -73.2 0 0 245.48 114.34
  C 250.37 116.94 248.31 119.76 249.55 123.73
  Q 251.42 129.71 252.57 135.94"
/>
<path stroke="#6e6e6e" vector-effect="non-scaling-stroke" d="
  M 252.57 135.94
  Q 250.76 137.64 249.16 140.18
  C 246.98 143.64 247.97 153.23 247.96 157.50"
/>
<path stroke="#ebebeb" vector-effect="non-scaling-stroke" d="
  M 247.96 157.50
  Q 247.33 157.47 246.80 157.15
  A 0.91 0.89 -75.0 0 1 246.36 156.37
  Q 246.39 146.27 245.29 136.24
  Q 244.99 133.54 243.48 127.81
  C 243.24 126.92 241.81 118.75 241.74 118.70
  Q 241.22 118.30 241.18 118.95
  Q 240.92 122.51 238.26 124.95
  A 0.78 0.77 63.9 0 0 238.02 125.67
  L 239.05 130.91
  Q 239.14 131.40 239.45 131.80
  L 240.34 132.96
  A 0.41 0.41 0.0 0 0 241.04 132.88
  C 241.23 132.46 239.40 127.89 239.15 127.09
  A 0.98 0.97 -33.0 0 1 239.35 126.16
  L 239.97 125.43
  Q 240.51 124.80 240.77 125.59
  L 242.26 130.12
  A 1.81 1.76 12.4 0 0 242.77 130.89
  Q 244.37 132.30 243.95 134.50
  A 0.89 0.89 0.0 0 1 243.14 135.22
  L 242.69 135.25
  A 0.66 0.65 -87.9 0 0 242.08 135.82
  L 241.75 138.33
  A 0.48 0.47 -88.5 0 0 242.26 138.87
  L 243.51 138.78
  A 0.46 0.46 0.0 0 1 244.01 139.22
  Q 244.06 140.75 242.57 141.24
  A 0.62 0.62 0.0 0 0 242.22 142.12
  L 243.17 143.88
  Q 243.38 144.27 243.41 144.70
  Q 243.89 151.15 245.05 157.41
  Q 245.51 159.89 247.71 159.50"
/>
<path stroke="#6e6e6e" vector-effect="non-scaling-stroke" d="
  M 247.71 159.50
  Q 239.84 161.83 231.47 161.88
  A 0.54 0.54 0.0 0 1 230.93 161.35
  L 230.32 136.13
  A 1.21 1.21 0.0 0 0 228.61 135.06
  Q 224.26 137.05 221.53 141.94
  C 219.43 145.70 220.42 153.92 220.37 158.31
  A 0.65 0.64 -7.7 0 1 219.89 158.93
  Q 212.55 160.87 205.25 161.71"
/>
<path stroke="#6e6e6e" vector-effect="non-scaling-stroke" d="
  M 205.25 161.71
  L 202.79 141.40
  A 0.55 0.55 0.0 0 0 201.95 141.00
  L 199.28 142.62"
/>
<path stroke="#cfcfcf" vector-effect="non-scaling-stroke" d="
  M 199.28 142.62
  Q 198.85 141.41 198.44 140.34
  C 197.76 138.56 197.85 136.42 197.50 134.54"
/>
<path stroke="#6e6e6e" vector-effect="non-scaling-stroke" d="
  M 197.50 134.54
  L 205.04 127.20
  Q 206.54 125.74 204.45 125.93
  C 197.35 126.59 185.17 142.12 181.53 148.04"
/>
<path stroke="#ebebeb" vector-effect="non-scaling-stroke" d="
  M 181.53 148.04
  L 182.31 140.79
  A 0.95 0.94 -67.9 0 0 181.96 139.96
  Q 181.47 139.56 180.75 139.71"
/>
<path stroke="#6e6e6e" vector-effect="non-scaling-stroke" d="
  M 180.75 139.71
  Q 185.63 135.48 191.16 127.91
  C 196.76 120.24 195.81 113.68 196.12 105.28
  A 0.90 0.89 77.4 0 1 196.60 104.52
  Q 204.57 100.40 209.96 93.21
  Q 210.82 92.08 209.40 91.99
  C 207.91 91.91 205.18 95.14 201.65 94.95
  A 0.59 0.59 0.0 0 1 201.09 94.43
  Q 200.74 91.71 201.25 89.77
  Q 206.62 69.23 228.06 60.50
  Q 229.69 59.84 228.98 61.45
  C 223.40 74.08 219.24 87.11 218.26 101.21
  C 217.03 118.83 237.15 103.97 236.14 99.88
  A 0.54 0.53 76.5 0 0 235.51 99.49
  Q 231.15 100.47 228.50 97.18
  A 1.59 1.57 -64.0 0 1 228.14 96.12
  Q 228.87 76.03 237.21 57.80
  A 1.08 1.06 -82.0 0 1 238.01 57.19
  L 240.17 56.83
  A 1.64 1.59 -70.9 0 0 241.04 56.39
  L 249.00 48.54
  Q 250.15 47.41 248.58 47.08
  Q 247.56 46.87 246.28 47.16
  C 225.63 51.83 207.02 67.74 196.53 85.68
  Q 196.10 86.41 196.03 85.57
  C 195.53 79.48 195.62 74.51 197.52 68.28
  Q 200.36 58.95 201.13 47.24
  A 3.55 3.54 24.8 0 0 200.13 44.54
  C 197.10 41.42 190.18 48.47 188.41 51.34
  Q 186.98 53.66 186.70 57.47
  Q 185.73 70.51 185.40 83.60"
/>
<path stroke="#cfcfcf" vector-effect="non-scaling-stroke" d="
  M 185.40 83.60
  Q 182.79 84.36 182.45 83.05
  C 180.50 75.61 176.71 68.22 174.28 61.71
  C 173.16 58.73 171.49 56.30 169.76 53.72
  C 167.53 50.42 166.34 46.46 163.96 43.00"
/>
<path stroke="#6e6e6e" vector-effect="non-scaling-stroke" d="
  M 163.96 43.00
  L 166.08 39.65
  Q 167.28 37.76 165.30 38.82
  L 163.50 39.79"
/>
<path stroke="#cfcfcf" vector-effect="non-scaling-stroke" d="
  M 163.50 39.79
  L 163.06 39.51
  Q 162.75 39.30 162.55 38.99
  Q 154.38 25.67 145.25 12.96
  C 142.62 9.30 138.70 5.33 135.85 1.01
  A 0.65 0.65 0.0 0 0 135.01 0.79
  L 132.96 1.85
  A 2.01 1.98 -56.8 0 1 131.99 2.06
  L 130.56 1.99
  A 0.52 0.51 -85.1 0 0 130.03 2.44
  Q 129.70 5.16 131.28 7.34
  A 1.14 1.12 -55.1 0 1 131.45 8.33
  L 130.79 10.57
  A 1.29 1.27 -50.6 0 0 130.88 11.53
  C 132.49 14.64 134.71 17.59 136.19 20.53
  Q 141.85 31.84 148.22 42.75
  C 149.88 45.59 151.13 48.97 152.79 52.00"
/>
<path stroke="#6e6e6e" vector-effect="non-scaling-stroke" d="
  M 152.79 52.00
  L 150.54 55.00"
/>
<path stroke="#6e6e6e" vector-effect="non-scaling-stroke" d="
  M 125.25 14.21
  Q 127.88 12.33 128.59 9.29
  Q 128.72 8.72 128.17 8.92
  L 123.79 10.50"
/>
<path stroke="#ebebeb" vector-effect="non-scaling-stroke" d="
  M 309.6821 121.3733
  A 0.26 0.26 0.0 0 0 309.3198 121.3108
  L 308.8785 121.6220
  A 0.26 0.26 0.0 0 0 308.8160 121.9844
  L 315.6179 131.6267
  A 0.26 0.26 0.0 0 0 315.9802 131.6892
  L 316.4215 131.3780
  A 0.26 0.26 0.0 0 0 316.4840 131.0156
  L 309.6821 121.3733"
/>
<path stroke="#ebebeb" vector-effect="non-scaling-stroke" d="
  M 241.24 137.22
  Q 241.38 136.76 240.98 136.24
  Q 240.40 135.47 240.15 136.41
  Q 239.88 137.43 240.01 138.47
  A 0.34 0.33 87.7 0 0 240.31 138.76
  C 240.86 138.82 240.96 138.38 241.03 137.96
  Q 241.04 137.93 241.24 137.22"
/>
<path stroke="#ebebeb" vector-effect="non-scaling-stroke" d="
  M 431.94 213.00
  Q 433.85 213.02 435.62 212.23
  A 0.48 0.48 0.0 0 0 435.85 211.57
  Q 430.08 200.15 425.00 188.41
  Q 423.94 185.98 421.89 183.44
  C 415.99 176.13 412.85 166.64 410.18 157.73
  A 1.86 1.81 12.9 0 0 409.65 156.91
  C 407.78 155.27 401.95 151.02 398.88 152.33
  A 0.86 0.85 -37.2 0 1 398.03 152.22
  C 396.71 151.24 394.93 147.69 393.54 148.00"
/>
<path stroke="#828282" vector-effect="non-scaling-stroke" d="
  M 393.54 148.00
  Q 393.76 143.93 396.87 141.50
  A 0.55 0.55 0.0 0 0 396.85 140.61
  L 395.02 139.32
  A 0.32 0.31 -48.8 0 1 394.99 138.84
  Q 395.90 137.98 395.75 136.78
  A 0.57 0.56 86.6 0 0 395.19 136.28
  Q 394.17 136.28 393.43 136.68"
/>
<path stroke="#ebebeb" vector-effect="non-scaling-stroke" d="
  M 393.43 136.68
  Q 390.83 132.76 388.07 128.98
  C 386.06 126.22 377.57 112.88 378.39 110.21
  A 0.51 0.50 -63.7 0 1 379.17 109.94
  C 383.94 113.35 386.20 118.91 390.15 123.32
  Q 391.09 124.37 390.39 123.14
  Q 385.97 115.44 380.61 108.39
  A 0.94 0.94 0.0 0 0 379.00 108.59
  Q 378.50 109.74 377.21 108.75"
/>
<path stroke="#828282" vector-effect="non-scaling-stroke" d="
  M 377.21 108.75
  C 382.33 103.96 387.68 98.39 395.10 97.78
  A 1.56 1.55 -69.8 0 0 396.06 97.33
  L 404.02 89.22
  A 0.50 0.50 0.0 0 0 403.81 88.39
  C 396.95 86.20 379.76 102.58 375.00 107.04"
/>
<path stroke="#ebebeb" vector-effect="non-scaling-stroke" d="
  M 375.00 107.04
  Q 370.60 104.71 370.32 99.61
  Q 370.27 98.74 370.86 99.38
  L 372.22 100.86
  A 0.34 0.34 0.0 0 0 372.78 100.78
  C 374.14 98.08 349.84 70.33 346.79 66.75"
/>
<path stroke="#e3e3e3" vector-effect="non-scaling-stroke" d="
  M 346.79 66.75
  L 337.46 55.00"
/>
<path stroke="#666666" vector-effect="non-scaling-stroke" d="
  M 163.50 39.79
  Q 157.37 45.20 152.79 52.00"
/>
<path stroke="#cfcfcf" vector-effect="non-scaling-stroke" d="
  M 154.0167 37.6454
  A 3.49 0.51 61.1 0 0 152.7765 34.3435
  A 3.49 0.51 61.1 0 0 150.6433 31.5346
  A 3.49 0.51 61.1 0 0 151.8835 34.8365
  A 3.49 0.51 61.1 0 0 154.0167 37.6454"
/>
<path stroke="#828282" vector-effect="non-scaling-stroke" d="
  M 83.31 45.80
  C 72.94 55.89 67.56 66.22 62.23 79.47
  Q 62.05 79.93 62.52 79.77
  Q 77.60 74.60 93.27 71.65
  A 0.61 0.60 85.8 0 0 93.76 71.08
  L 95.10 35.18
  Q 95.12 34.62 94.71 35.00
  Q 88.92 40.35 83.31 45.80"
/>
<path stroke="#666666" vector-effect="non-scaling-stroke" d="
  M 163.96 43.00
  L 154.05 56.22"
/>
<path stroke="#828282" vector-effect="non-scaling-stroke" d="
  M 154.05 56.22
  Q 144.66 67.72 141.67 70.91
  C 136.96 75.93 134.03 84.10 140.77 88.95
  Q 144.84 91.87 149.81 90.68
  A 1.53 1.49 -75.6 0 0 150.63 90.18
  Q 156.07 83.63 156.97 75.28
  C 157.49 70.52 160.72 67.05 164.54 64.50"
/>
<path stroke="#666666" vector-effect="non-scaling-stroke" d="
  M 164.54 64.50
  Q 165.78 63.19 167.46 63.19
  A 0.53 0.52 -0.6 0 1 167.99 63.70
  C 168.14 67.67 165.42 71.92 166.25 75.13"
/>
<path stroke="#6e6e6e" vector-effect="non-scaling-stroke" d="
  M 166.25 75.13
  C 165.18 80.13 166.43 87.41 171.57 90.00"
/>
<path stroke="#666666" vector-effect="non-scaling-stroke" d="
  M 171.57 90.00
  Q 174.28 91.94 177.44 91.99
  Q 179.92 92.03 181.27 89.96
  L 185.40 83.60"
/>
<path stroke="#828282" vector-effect="non-scaling-stroke" d="
  M 180.75 139.71
  Q 170.71 148.17 157.63 145.44
  A 0.80 0.80 0.0 0 0 156.78 145.80
  L 155.22 148.28
  Q 154.78 148.98 155.61 148.92
  Q 162.10 148.41 163.71 149.28
  Q 171.09 153.27 173.60 160.97
  Q 174.08 162.43 174.68 161.02
  Q 177.60 154.17 181.53 148.04"
/>
<path stroke="#666666" vector-effect="non-scaling-stroke" d="
  M 197.50 134.54
  C 191.45 137.92 186.78 147.17 184.58 153.44"
/>
<path stroke="#828282" vector-effect="non-scaling-stroke" d="
  M 184.58 153.44
  Q 181.92 158.50 180.67 163.95
  A 0.36 0.36 0.0 0 0 181.06 164.39
  L 186.00 163.96"
/>
<path stroke="#666666" vector-effect="non-scaling-stroke" d="
  M 186.00 163.96
  Q 189.71 164.20 193.61 163.11
  A 0.75 0.75 0.0 0 0 194.16 162.29
  L 192.78 151.64
  Q 192.72 151.13 192.91 150.65
  Q 194.93 145.65 199.28 142.62"
/>
<path stroke="#050505" vector-effect="non-scaling-stroke" d="
  M 205.25 161.71
  Q 203.08 161.58 201.06 162.12
  C 198.65 162.75 197.16 162.82 194.96 162.95
  A 0.80 0.79 85.2 0 0 194.22 163.83
  L 195.07 171.91"
/>
<path stroke="#666666" vector-effect="non-scaling-stroke" d="
  M 195.07 171.91
  L 183.96 173.50"
/>
<path stroke="#828282" vector-effect="non-scaling-stroke" d="
  M 183.96 173.50
  L 178.67 173.80
  A 0.73 0.73 0.0 0 0 177.98 174.54
  C 178.10 180.00 176.20 189.87 186.04 187.75"
/>
<path stroke="#666666" vector-effect="non-scaling-stroke" d="
  M 186.04 187.75
  L 190.48 185.30
  A 0.32 0.32 0.0 0 1 190.95 185.54
  C 191.23 187.73 186.69 191.99 185.10 193.25"
/>
<path stroke="#6e6e6e" vector-effect="non-scaling-stroke" d="
  M 178.50 135.46
  Q 180.72 135.07 182.29 133.50"
/>
<path stroke="#666666" vector-effect="non-scaling-stroke" d="
  M 182.29 133.50
  C 185.36 130.51 185.76 125.53 185.81 121.50
  Q 186.01 105.78 185.99 90.45
  Q 185.99 89.40 185.28 90.18
  C 181.01 94.85 177.14 99.04 171.38 101.84"
/>
<path stroke="#828282" vector-effect="non-scaling-stroke" d="
  M 145.78 137.95
  L 138.51 137.93
  A 0.62 0.62 0.0 0 0 137.89 138.55
  L 138.04 152.48
  A 0.32 0.32 0.0 0 0 138.51 152.76
  Q 142.71 150.51 147.45 149.87
  A 0.58 0.57 88.2 0 0 147.95 149.33
  Q 148.33 143.95 146.87 138.78
  A 1.13 1.13 0.0 0 0 145.78 137.95"
/>
<path stroke="#828282" vector-effect="non-scaling-stroke" d="
  M 144.04 169.42
  C 144.24 170.54 138.60 175.90 137.54 177.14
  A 1.72 1.71 -24.4 0 0 137.15 178.17
  Q 137.08 180.20 135.75 181.80
  Q 134.03 183.88 136.72 183.97
  C 144.46 184.24 156.70 183.43 163.40 179.22
  A 1.12 1.11 -11.9 0 0 163.90 178.46
  C 164.97 171.22 161.79 161.49 154.09 159.32
  Q 151.30 158.54 147.83 158.90
  Q 146.16 159.08 144.82 160.09
  L 137.35 165.72
  A 0.94 0.93 -19.2 0 0 136.97 166.49
  L 137.07 170.60
  A 0.55 0.54 79.0 0 0 137.80 171.10
  L 143.29 169.00
  A 0.56 0.55 -15.1 0 1 144.04 169.42"
/>
<path stroke="#828282" vector-effect="non-scaling-stroke" d="
  M 293.29 106.00
  Q 289.84 111.30 284.49 114.68
  A 0.55 0.54 -33.5 0 1 283.77 114.54
  Q 277.86 106.64 274.45 97.57"
/>
<path stroke="#6e6e6e" vector-effect="non-scaling-stroke" d="
  M 274.45 97.57
  L 272.11 88.81
  A 0.70 0.70 0.0 0 0 271.46 88.29
  Q 267.63 88.15 263.58 89.12"
/>
<path stroke="#828282" vector-effect="non-scaling-stroke" d="
  M 263.58 89.12
  Q 257.30 89.00 250.77 90.14
  A 0.90 0.89 5.2 0 0 250.09 90.70
  C 247.70 96.80 248.46 103.03 256.67 101.64
  Q 258.55 101.33 260.49 101.10
  Q 260.99 101.04 260.68 101.45
  C 257.09 106.20 251.63 111.96 245.25 112.04"
/>
<path stroke="#828282" vector-effect="non-scaling-stroke" d="
  M 239.75 87.79
  C 242.85 84.63 246.70 82.13 248.97 78.37
  Q 250.43 75.96 251.79 73.50"
/>
<path stroke="#828282" vector-effect="non-scaling-stroke" d="
  M 255.29 76.75
  L 253.60 79.69
  Q 253.36 80.11 253.84 80.08
  L 260.00 79.71"
/>
<path stroke="#6e6e6e" vector-effect="non-scaling-stroke" d="
  M 260.00 79.71
  L 269.89 79.00
  A 0.39 0.39 0.0 0 0 270.25 78.58
  L 268.64 57.23
  Q 268.58 56.47 268.11 57.06
  Q 260.78 66.35 255.29 76.75"
/>
<path stroke="#ebebeb" vector-effect="non-scaling-stroke" d="
  M 260.00 79.71
  L 259.97 79.26
  A 0.75 0.74 9.9 0 0 259.52 78.63
  L 255.29 76.75"
/>
<path stroke="#cfcfcf" vector-effect="non-scaling-stroke" d="
  M 171.57 90.00
  L 166.25 75.13"
/>
<path stroke="#e3e3e3" vector-effect="non-scaling-stroke" d="
  M 164.54 64.50
  Q 163.81 61.15 160.40 62.50
  A 0.84 0.83 54.3 0 1 159.56 62.36
  Q 156.38 59.70 154.05 56.22"
/>
<path stroke="#cfcfcf" vector-effect="non-scaling-stroke" d="
  M 346.79 66.75
  C 348.05 69.05 348.40 71.49 349.73 73.60
  Q 361.07 91.52 370.38 110.58
  A 0.77 0.77 0.0 0 0 371.07 111.01
  L 371.46 111.00"
/>
<path stroke="#666666" vector-effect="non-scaling-stroke" d="
  M 371.46 111.00
  Q 369.32 112.52 370.92 114.18"
/>
<path stroke="#cfcfcf" vector-effect="non-scaling-stroke" d="
  M 370.92 114.18
  L 371.06 114.93
  Q 371.15 115.41 371.42 115.81
  C 373.66 119.13 375.75 121.58 377.07 125.56
  Q 378.67 130.36 380.90 134.90
  C 381.88 136.88 383.69 145.40 385.96 145.00"
/>
<path stroke="#666666" vector-effect="non-scaling-stroke" d="
  M 385.96 145.00
  C 386.02 146.72 384.94 146.83 384.02 147.71
  Q 378.66 152.86 373.29 158.00"
/>
<path stroke="#6e6e6e" vector-effect="non-scaling-stroke" d="
  M 375.00 107.04
  L 371.46 111.00"
/>
<path stroke="#6e6e6e" vector-effect="non-scaling-stroke" d="
  M 377.21 108.75
  L 370.92 114.18"
/>
<path stroke="#ebebeb" vector-effect="non-scaling-stroke" d="
  M 274.45 97.57
  Q 268.57 93.94 263.58 89.12"
/>
<path stroke="#828282" vector-effect="non-scaling-stroke" d="
  M 312.29 141.50
  Q 308.62 146.69 306.73 152.69
  A 1.05 1.03 -5.0 0 1 306.19 153.32
  L 300.81 155.84
  Q 300.28 156.08 300.38 155.51
  Q 302.31 144.50 301.95 133.32
  A 0.47 0.47 0.0 0 0 301.29 132.91
  C 289.90 137.90 292.01 146.44 291.38 156.62
  Q 291.25 158.76 289.11 158.92
  L 277.44 159.78
  A 0.41 0.40 -2.0 0 1 277.00 159.38
  L 277.00 135.70
  A 0.76 0.75 -12.4 0 0 275.93 135.02
  Q 270.82 137.37 268.08 142.43
  C 266.37 145.57 267.04 149.64 266.96 153.20
  A 0.88 0.87 -10.9 0 1 266.42 153.99
  L 258.91 157.01
  A 0.66 0.66 0.0 0 1 258.00 156.40
  L 258.00 133.59
  A 0.42 0.42 0.0 0 0 257.50 133.18
  Q 255.01 133.64 252.57 135.94"
/>
<path stroke="#cfcfcf" vector-effect="non-scaling-stroke" d="
  M 182.29 133.50
  Q 181.52 132.05 180.84 130.56
  C 179.59 127.81 177.55 126.70 177.04 123.25"
/>
<path stroke="#6e6e6e" vector-effect="non-scaling-stroke" d="
  M 393.43 136.68
  C 390.94 138.39 386.37 142.04 385.96 145.00"
/>
<path stroke="#828282" vector-effect="non-scaling-stroke" d="
  M 247.96 157.50
  L 247.71 159.50"
/>
<path stroke="#828282" vector-effect="non-scaling-stroke" d="
  M 338.25 182.46
  C 327.75 193.06 321.01 197.06 307.93 186.28
  A 0.56 0.56 0.0 0 0 307.18 186.31
  L 299.93 193.26
  Q 297.89 195.22 295.07 195.52
  Q 289.58 196.11 288.97 189.99
  Q 288.54 185.73 289.74 167.31
  A 0.38 0.38 0.0 0 0 289.29 166.91
  L 277.80 168.92
  A 0.81 0.81 0.0 0 0 277.13 169.61
  Q 276.26 176.09 278.69 182.06
  A 0.99 0.97 -40.7 0 1 278.61 182.97
  Q 275.41 188.03 270.29 191.17
  A 0.76 0.74 -40.9 0 1 269.44 191.12
  C 266.07 188.41 266.82 176.78 267.01 170.64
  A 0.62 0.61 -89.1 0 0 266.40 170.00
  L 258.74 170.00
  A 0.65 0.64 -89.5 0 0 258.10 170.64
  L 258.04 175.50"
/>
<path stroke="#6e6e6e" vector-effect="non-scaling-stroke" d="
  M 258.04 175.50
  L 258.03 186.40
  A 1.74 1.68 -28.2 0 1 257.71 187.39
  Q 254.62 191.81 250.03 194.66
  Q 248.03 195.90 248.02 193.55
  L 247.99 168.41
  A 0.49 0.49 0.0 0 0 247.40 167.93
  L 232.30 171.06
  A 0.63 0.63 0.0 0 0 231.80 171.71
  Q 232.21 178.98 234.77 185.78
  A 1.06 1.05 52.0 0 1 234.66 186.72
  Q 231.30 191.84 226.02 195.00
  A 1.19 1.18 -22.6 0 1 224.26 194.28
  Q 221.62 183.82 221.04 173.07
  A 0.58 0.58 0.0 0 0 220.41 172.52
  L 212.82 173.13
  Q 211.12 173.27 211.86 171.74
  L 213.29 168.76
  Q 213.39 168.56 213.17 168.61
  L 207.08 169.96
  A 0.59 0.58 80.7 0 0 206.63 170.60
  Q 207.51 177.99 209.63 185.13
  A 0.85 0.84 59.5 0 1 209.42 185.96
  L 203.21 192.25"
/>
<path stroke="#666666" vector-effect="non-scaling-stroke" d="
  M 203.21 192.25
  Q 201.90 193.68 200.95 193.98
  A 1.55 1.54 75.5 0 1 198.95 192.80
  L 195.07 171.91"
/>
<path stroke="#828282" vector-effect="non-scaling-stroke" d="
  M 318.63 140.23
  Q 317.26 141.88 317.08 143.83"
/>
<path stroke="#6e6e6e" vector-effect="non-scaling-stroke" d="
  M 317.08 143.83
  L 316.04 147.50"
/>
<path stroke="#828282" vector-effect="non-scaling-stroke" d="
  M 316.04 147.50
  C 313.93 157.81 310.96 175.96 327.19 176.82
  Q 328.40 176.88 327.72 177.89
  L 325.48 181.18
  A 0.44 0.43 -64.5 0 0 325.71 181.84
  C 328.43 182.65 332.17 183.61 334.48 181.50
  Q 336.38 179.76 336.31 177.36"
/>
<path stroke="#6e6e6e" vector-effect="non-scaling-stroke" d="
  M 336.31 177.36
  C 343.33 163.88 345.29 144.80 326.25 140.54"
/>
<path stroke="#828282" vector-effect="non-scaling-stroke" d="
  M 326.25 140.54
  L 322.75 140.04"
/>
<path stroke="#6e6e6e" vector-effect="non-scaling-stroke" d="
  M 322.75 140.04
  Q 320.84 139.38 318.63 140.23"
/>
<path stroke="#ebebeb" vector-effect="non-scaling-stroke" d="
  M 322.75 140.04
  Q 322.65 143.51 325.70 144.76
  A 0.33 0.33 0.0 0 0 326.15 144.46
  L 326.25 140.54"
/>
<path stroke="#ebebeb" vector-effect="non-scaling-stroke" d="
  M 336.31 177.36
  Q 330.34 167.26 324.71 157.04
  C 322.72 153.41 318.70 150.94 316.04 147.50"
/>
<path stroke="#ebebeb" vector-effect="non-scaling-stroke" d="
  M 317.08 143.83
  Q 320.96 146.99 324.11 150.89
  C 324.22 151.03 324.63 151.06 324.76 150.99
  A 0.52 0.52 0.0 0 0 324.96 150.25
  L 318.63 140.23"
/>
<path stroke="#828282" vector-effect="non-scaling-stroke" d="
  M 300.55 160.26
  A 4.31 4.29 -20.0 0 0 299.41 162.69
  Q 298.33 171.73 299.12 180.25
  C 299.32 182.31 299.10 183.88 301.49 184.66
  A 0.64 0.64 0.0 0 0 302.24 184.37
  C 305.51 178.59 299.58 170.86 303.21 164.18
  Q 305.49 160.01 306.06 155.18
  Q 306.16 154.35 305.59 154.96
  L 300.55 160.26"
/>
<path stroke="#828282" vector-effect="non-scaling-stroke" d="
  M 257.78 164.66
  A 0.58 0.57 -53.8 0 0 257.92 165.58
  L 258.15 165.70
  A 0.60 0.60 0.0 0 0 258.89 165.57
  Q 262.16 161.87 266.53 159.65
  A 1.03 1.02 76.1 0 0 267.09 158.72
  L 267.08 156.78
  Q 267.07 155.56 266.20 156.41
  L 257.78 164.66"
/>
<path stroke="#828282" vector-effect="non-scaling-stroke" d="
  M 63.45 143.81
  A 0.81 0.80 9.7 0 1 63.99 144.57
  L 64.00 160.47
  A 0.34 0.34 0.0 0 0 64.47 160.78
  C 71.61 157.79 80.56 151.66 76.86 142.51
  A 0.78 0.77 79.8 0 0 76.18 142.03
  Q 69.59 141.67 63.19 143.34
  Q 62.53 143.51 63.18 143.72
  L 63.45 143.81"
/>
<path stroke="#828282" vector-effect="non-scaling-stroke" d="
  M 82.01 164.89
  A 3.24 3.21 68.2 0 0 80.12 164.07
  Q 73.03 163.53 66.31 165.84
  Q 64.15 166.58 63.95 168.86
  C 63.40 175.06 63.78 183.62 66.94 189.02
  A 1.63 1.63 0.0 0 0 68.19 189.82
  Q 77.58 190.64 86.81 189.13
  A 1.45 1.44 84.9 0 0 88.02 187.68
  C 87.90 181.04 87.26 169.65 82.01 164.89"
/>
<path stroke="#e3e3e3" vector-effect="non-scaling-stroke" d="
  M 186.00 163.96
  L 184.58 153.44"
/>
<path stroke="#6e6e6e" vector-effect="non-scaling-stroke" d="
  M 393.54 148.00
  Q 391.16 158.00 390.29 168.25"
/>
<path stroke="#666666" vector-effect="non-scaling-stroke" d="
  M 390.29 168.25
  Q 388.93 180.74 389.75 185.50
  Q 390.45 189.60 395.04 188.75"
/>
<path stroke="#6e6e6e" vector-effect="non-scaling-stroke" d="
  M 395.04 188.75
  Q 395.76 188.34 396.49 188.40
  A 0.40 0.40 0.0 0 1 396.83 188.95
  Q 396.05 190.86 394.46 192.25"
/>
<path stroke="#666666" vector-effect="non-scaling-stroke" d="
  M 394.46 192.25
  C 390.81 195.75 386.40 201.13 382.11 198.09
  C 375.73 193.58 382.79 158.85 384.68 151.42
  Q 384.89 150.61 384.28 151.18
  Q 377.66 157.35 372.17 163.87"
/>
<path stroke="#6e6e6e" vector-effect="non-scaling-stroke" d="
  M 372.17 163.87
  C 369.48 166.87 366.03 170.51 365.27 174.32
  C 364.70 177.18 365.84 189.35 371.93 185.20
  Q 372.35 184.91 372.38 185.42
  C 372.50 188.09 365.42 193.91 364.00 195.03
  C 359.71 198.41 358.03 195.27 356.04 192.00"
/>
<path stroke="#828282" vector-effect="non-scaling-stroke" d="
  M 356.04 192.00
  L 355.63 190.49
  Q 355.50 190.00 355.15 190.36
  L 352.00 193.54"
/>
<path stroke="#6e6e6e" vector-effect="non-scaling-stroke" d="
  M 352.00 193.54
  L 347.48 198.34"
/>
<path stroke="#828282" vector-effect="non-scaling-stroke" d="
  M 347.48 198.34
  Q 343.20 199.84 346.04 194.75"
/>
<path stroke="#828282" vector-effect="non-scaling-stroke" d="
  M 350.71 187.50
  L 352.29 185.00"
/>
<path stroke="#cfcfcf" vector-effect="non-scaling-stroke" d="
  M 395.94 213.00
  L 396.56 212.72
  A 0.67 0.65 -18.2 0 0 396.93 212.01
  Q 395.34 203.25 395.80 194.34
  A 1.21 1.20 -63.8 0 0 395.51 193.48
  L 394.46 192.25"
/>
<path stroke="#cfcfcf" vector-effect="non-scaling-stroke" d="
  M 395.04 188.75
  Q 394.59 186.26 394.65 183.74
  C 394.76 178.96 393.19 174.26 392.52 169.55
  A 0.84 0.83 -84.2 0 0 391.98 168.88
  L 390.29 168.25"
/>
<path stroke="#cfcfcf" vector-effect="non-scaling-stroke" d="
  M 381.19 213.00
  Q 380.09 207.75 379.00 202.49
  Q 378.34 199.34 379.24 187.37
  A 1.61 1.59 30.3 0 0 378.97 186.36
  L 378.21 185.27
  A 2.09 2.06 26.2 0 1 377.86 184.26
  Q 377.17 173.47 372.17 163.87"
/>
<path stroke="#ebebeb" vector-effect="non-scaling-stroke" d="
  M 365.94 213.00
  L 365.30 212.60
  A 1.33 1.32 -82.0 0 1 364.73 211.84
  Q 363.54 207.66 361.52 203.82
  C 359.84 200.64 356.66 198.41 355.07 194.48
  A 1.08 1.06 -41.8 0 1 355.13 193.56
  L 356.04 192.00"
/>
<path stroke="#ebebeb" vector-effect="non-scaling-stroke" d="
  M 347.48 198.34
  Q 348.79 201.49 351.41 200.28
  A 1.34 1.29 -49.6 0 1 352.31 200.19
  L 354.19 200.64
  Q 355.17 200.87 354.77 199.94
  L 352.00 193.54"
/>
<path stroke="#ebebeb" vector-effect="non-scaling-stroke" d="
  M 252.19 213.00
  Q 255.65 212.25 259.18 212.67
  A 0.65 0.63 6.1 0 0 259.90 212.10
  L 260.02 210.83
  Q 260.13 209.73 259.23 210.37
  L 258.90 210.61
  Q 258.54 210.86 258.11 210.94
  L 254.36 211.65
  A 0.96 0.95 83.5 0 1 253.24 210.75
  L 253.01 205.61
  A 0.60 0.60 0.0 0 1 253.65 204.98
  L 254.83 205.07
  A 0.40 0.39 -4.9 0 0 255.24 204.59
  Q 254.54 201.38 255.46 198.18
  A 0.83 0.80 -57.6 0 0 255.31 197.45
  L 253.73 195.49
  Q 252.96 194.55 254.18 194.59
  L 255.68 194.64
  A 0.58 0.58 0.0 0 1 256.24 195.24
  L 256.04 200.54
  A 0.59 0.59 0.0 0 0 256.83 201.12
  L 258.72 200.43
  A 0.71 0.70 -19.4 0 0 259.15 199.55
  Q 258.23 196.62 259.29 193.82
  A 0.46 0.46 0.0 0 1 260.05 193.67
  L 260.85 194.50
  Q 261.57 195.25 261.66 194.22
  C 261.94 191.05 262.66 173.47 260.07 172.82
  A 0.50 0.50 0.0 0 0 259.46 173.20
  Q 259.11 174.65 258.04 175.50"
/>
<path stroke="#cfcfcf" vector-effect="non-scaling-stroke" d="
  M 203.19 213.00
  Q 203.81 202.62 203.21 192.25"
/>
<path stroke="#e3e3e3" vector-effect="non-scaling-stroke" d="
  M 186.19 213.00
  Q 187.36 206.94 186.56 200.70
  Q 186.50 200.19 186.15 200.57
  C 183.62 203.26 184.13 209.27 183.19 213.00"
/>
<path stroke="#e3e3e3" vector-effect="non-scaling-stroke" d="
  M 186.04 187.75
  C 182.74 184.12 183.88 178.01 183.96 173.50"
/>
</g>
<path fill="#ffffff" d="
  M 0.00 0.00
  L 121.06 0.00
  Q 117.59 -0.01 114.18 0.84
  Q 112.82 1.18 114.22 1.29
  Q 118.43 1.62 119.14 5.52
  A 1.12 1.10 8.4 0 0 119.74 6.31
  Q 122.62 7.74 123.79 10.50
  C 117.25 14.48 111.13 18.84 104.41 22.57
  C 99.16 25.48 96.93 29.82 92.62 33.40
  C 76.91 46.45 62.84 62.10 54.91 81.20
  A 1.67 1.64 -4.3 0 1 54.23 81.98
  Q 48.83 85.10 45.52 90.33
  Q 44.59 91.81 46.30 91.45
  L 51.13 90.43
  A 0.33 0.33 0.0 0 1 51.52 90.82
  Q 49.61 99.68 49.07 108.74
  C 48.61 116.44 56.84 118.34 62.54 115.04
  C 65.44 113.36 74.15 107.09 73.80 103.41
  Q 73.74 102.76 73.28 103.24
  Q 68.25 108.58 61.35 105.71
  Q 59.57 104.97 59.62 103.05
  L 59.96 88.30
  A 0.81 0.80 81.3 0 1 60.51 87.55
  Q 76.60 82.26 93.41 80.16
  A 0.49 0.49 0.0 0 1 93.96 80.66
  C 93.53 91.97 94.18 102.04 100.06 110.75
  A 0.68 0.68 0.0 0 0 100.97 110.95
  Q 106.03 107.88 109.64 103.19
  A 1.45 1.45 0.0 0 0 109.75 101.56
  Q 104.02 91.79 104.01 80.39
  A 0.54 0.53 -87.6 0 1 104.59 79.85
  Q 108.36 80.16 111.78 81.84
  A 0.89 0.88 35.4 0 0 112.81 81.67
  L 120.58 73.90
  Q 123.05 71.43 119.59 70.93
  Q 112.48 69.89 105.24 70.04
  A 1.48 1.47 -89.6 0 1 103.73 68.50
  L 105.09 29.40
  Q 105.17 27.01 107.19 25.72
  L 125.25 14.21
  Q 130.34 19.14 133.01 25.71
  C 134.12 28.45 138.33 31.12 139.99 34.19
  Q 145.54 44.46 150.54 55.00
  Q 142.49 65.78 133.32 75.83
  Q 132.98 76.19 132.99 75.70
  C 133.23 63.45 135.12 51.14 134.94 38.99
  A 0.88 0.88 0.0 0 0 133.61 38.24
  C 130.11 40.28 124.66 44.17 124.70 48.83
  Q 124.72 52.13 124.72 52.17
  Q 122.37 77.29 123.24 102.59
  Q 123.32 105.01 125.19 106.54
  C 127.84 108.71 132.32 102.99 134.33 101.24
  A 1.12 1.10 27.2 0 1 135.20 100.97
  C 143.65 101.94 149.38 95.89 155.17 89.34
  Q 155.51 88.96 155.66 89.44
  C 158.28 97.53 161.44 102.96 171.38 101.84
  C 175.08 109.66 175.81 113.86 177.04 123.25
  Q 175.72 123.88 174.66 122.59
  Q 174.34 122.19 174.16 122.68
  C 173.55 124.40 176.46 127.96 176.89 130.11
  Q 177.44 132.86 178.50 135.46
  Q 172.14 136.85 170.46 136.31
  Q 161.81 133.48 157.11 125.58
  A 0.68 0.68 0.0 0 1 157.18 124.79
  L 160.71 120.74
  A 0.34 0.34 0.0 0 0 160.52 120.19
  C 153.38 118.67 148.74 122.92 144.53 128.59
  A 1.75 1.71 -80.5 0 1 143.75 129.16
  C 136.13 131.83 128.83 135.81 124.95 143.23
  A 0.26 0.25 36.0 0 0 125.00 143.52
  L 125.20 143.72
  A 0.32 0.31 -37.3 0 0 125.58 143.77
  C 125.99 143.54 135.08 138.42 136.13 138.75
  Q 136.73 138.94 136.20 139.29
  C 132.69 141.55 128.33 145.30 128.09 149.81
  C 127.79 155.33 128.39 160.04 127.00 166.00
  Q 126.77 166.99 127.49 168.21
  A 1.53 1.50 32.6 0 1 127.70 169.11
  L 126.87 177.99
  A 1.58 1.58 0.0 0 1 126.53 178.81
  C 123.67 182.35 118.06 187.42 123.74 191.84
  C 127.46 194.73 135.04 193.87 139.83 193.19
  C 151.36 191.57 160.25 188.65 167.86 179.44
  Q 168.86 178.24 168.64 179.79
  Q 167.74 186.24 168.03 192.75
  Q 168.15 195.53 170.63 196.79
  C 177.06 200.05 180.03 196.67 185.10 193.25
  Q 181.71 202.87 182.87 213.01
  L 0.00 213.00
  L 0.00 0.00
  Z
  M 62.43 144.12
  C 59.42 147.57 54.59 148.96 54.30 154.53
  Q 53.71 165.43 54.19 177.84
  A 2.62 2.60 -17.6 0 1 52.99 180.14
  C 50.42 181.78 44.48 187.38 45.54 190.94
  C 46.88 195.42 54.54 198.71 58.82 199.67
  Q 65.29 201.11 76.24 199.21
  C 85.20 197.65 98.11 187.27 97.98 177.25
  Q 97.89 170.08 95.64 161.67
  C 92.95 151.60 85.99 154.19 78.20 154.98
  Q 77.70 155.04 78.05 154.67
  C 81.72 150.73 91.65 139.12 86.73 133.57
  Q 85.38 132.04 82.45 132.02
  Q 66.26 131.90 56.39 144.69
  Q 56.19 144.95 56.18 145.20
  Q 56.17 145.46 56.24 145.68
  A 0.43 0.42 -21.2 0 0 56.81 145.93
  L 62.09 143.65
  Q 63.28 143.14 62.43 144.12
  Z"
/>
<path fill="#d6d6d6" d="
  M 121.06 0.00
  L 256.56 0.00
  Q 259.04 1.07 260.89 3.04
  Q 261.24 3.42 261.73 3.61
  L 270.62 6.99
  A 0.64 0.62 -62.9 0 0 271.37 6.74
  L 271.54 6.48
  A 0.49 0.49 0.0 0 0 271.33 5.76
  Q 267.68 4.19 265.93 0.79
  A 0.47 0.47 0.0 0 1 266.04 0.23
  L 266.31 0.00
  L 286.81 0.00
  Q 292.54 0.25 296.21 4.54
  Q 311.84 22.79 327.53 40.97
  Q 331.86 45.97 337.46 55.00
  C 333.92 52.61 332.27 49.05 328.06 47.36
  A 1.76 1.75 -39.0 0 0 327.09 47.26
  L 320.63 48.47
  A 1.04 1.03 -26.1 0 1 319.66 48.14
  Q 317.23 45.35 313.76 44.07
  A 0.97 0.95 34.3 0 0 312.81 44.24
  L 311.45 45.42
  A 0.64 0.63 -38.0 0 0 311.34 46.27
  Q 312.84 48.46 317.46 54.55
  C 323.95 63.09 329.17 73.17 334.85 82.14
  C 338.68 88.18 342.69 94.10 345.64 100.65
  Q 348.05 106.01 349.60 108.80
  Q 355.43 119.33 362.00 132.97
  C 362.87 134.77 362.78 136.53 363.50 138.00
  C 365.30 141.65 366.85 144.61 368.46 148.83
  Q 370.32 153.67 373.29 158.00
  L 364.84 167.75
  Q 364.22 168.45 364.18 167.52
  Q 363.46 152.47 361.72 137.49
  A 0.47 0.46 76.0 0 0 361.09 137.11
  C 352.98 140.29 351.49 145.99 352.32 154.19
  Q 353.53 165.95 354.25 177.75
  Q 354.53 182.36 352.29 185.00
  L 348.50 180.21
  A 0.50 0.50 0.0 0 0 347.74 180.19
  L 347.30 180.69
  Q 345.79 182.42 346.89 184.44
  Q 347.50 185.55 348.70 185.70
  A 0.69 0.67 86.8 0 1 349.27 186.22
  Q 349.51 187.34 350.71 187.50
  L 346.04 194.75
  C 342.60 191.99 341.16 186.62 338.92 182.76
  A 0.51 0.51 0.0 0 0 338.56 182.51
  L 338.25 182.46
  Q 350.95 168.13 351.09 149.33
  C 351.19 135.49 339.23 127.56 326.43 130.34
  C 320.83 131.56 315.82 137.14 312.29 141.50
  Q 308.43 136.74 303.44 133.14
  A 1.79 1.77 7.7 0 1 302.82 132.34
  L 301.87 129.94
  A 1.70 1.62 8.7 0 0 301.33 129.24
  C 300.69 128.75 296.03 123.97 297.31 123.30
  A 0.46 0.46 0.0 0 1 297.90 123.44
  Q 299.88 126.23 303.14 127.22
  A 0.36 0.36 0.0 0 0 303.50 127.12
  L 303.71 126.91
  A 0.36 0.35 -43.1 0 0 303.73 126.44
  L 291.28 111.75
  A 0.81 0.80 -42.1 0 1 291.34 110.64
  L 292.57 109.48
  A 1.22 1.21 -40.5 0 1 294.37 109.62
  Q 295.65 111.28 297.35 112.52
  Q 298.98 113.71 298.08 111.91
  L 297.32 110.40
  A 0.65 0.65 0.0 0 1 297.57 109.55
  Q 298.56 108.93 299.82 109.28
  Q 300.47 109.46 299.98 109.00
  L 296.54 105.77
  Q 295.73 105.01 295.74 106.12
  L 295.76 107.51
  Q 295.78 108.47 295.38 107.60
  Q 294.72 106.14 293.29 106.00
  Q 292.02 102.76 290.19 99.80
  C 281.25 85.30 279.38 65.46 278.71 48.92
  Q 278.63 47.01 279.95 45.63
  L 284.57 40.82
  Q 285.52 39.83 284.15 39.76
  Q 283.01 39.71 281.27 41.02
  C 269.60 49.84 260.78 60.05 251.79 73.50
  C 247.07 71.58 244.26 68.63 238.78 67.39
  Q 238.20 67.25 238.50 67.77
  L 240.64 71.50
  A 0.91 0.91 0.0 0 0 241.33 71.95
  Q 243.98 72.19 243.74 74.92
  A 1.40 1.39 -88.4 0 1 242.40 76.19
  L 240.68 76.25
  A 0.71 0.70 84.9 0 0 240.01 77.06
  L 240.44 80.09
  A 0.68 0.67 76.6 0 1 239.99 80.83
  L 238.03 81.51
  A 0.78 0.78 0.0 0 0 237.50 82.26
  L 237.50 86.07
  A 1.27 1.27 0.0 0 0 237.86 86.93
  Q 238.62 87.69 239.75 87.79
  Q 238.79 88.77 238.95 90.07
  A 0.80 0.79 1.5 0 0 239.61 90.76
  L 241.11 91.00
  A 1.27 1.26 16.3 0 1 242.07 92.75
  C 239.67 98.31 235.13 110.89 245.25 112.04
  L 245.08 113.59
  A 0.77 0.76 -73.2 0 0 245.48 114.34
  C 250.37 116.94 248.31 119.76 249.55 123.73
  Q 251.42 129.71 252.57 135.94
  Q 250.76 137.64 249.16 140.18
  C 246.98 143.64 247.97 153.23 247.96 157.50
  Q 247.33 157.47 246.80 157.15
  A 0.91 0.89 -75.0 0 1 246.36 156.37
  Q 246.39 146.27 245.29 136.24
  Q 244.99 133.54 243.48 127.81
  C 243.24 126.92 241.81 118.75 241.74 118.70
  Q 241.22 118.30 241.18 118.95
  Q 240.92 122.51 238.26 124.95
  A 0.78 0.77 63.9 0 0 238.02 125.67
  L 239.05 130.91
  Q 239.14 131.40 239.45 131.80
  L 240.34 132.96
  A 0.41 0.41 0.0 0 0 241.04 132.88
  C 241.23 132.46 239.40 127.89 239.15 127.09
  A 0.98 0.97 -33.0 0 1 239.35 126.16
  L 239.97 125.43
  Q 240.51 124.80 240.77 125.59
  L 242.26 130.12
  A 1.81 1.76 12.4 0 0 242.77 130.89
  Q 244.37 132.30 243.95 134.50
  A 0.89 0.89 0.0 0 1 243.14 135.22
  L 242.69 135.25
  A 0.66 0.65 -87.9 0 0 242.08 135.82
  L 241.75 138.33
  A 0.48 0.47 -88.5 0 0 242.26 138.87
  L 243.51 138.78
  A 0.46 0.46 0.0 0 1 244.01 139.22
  Q 244.06 140.75 242.57 141.24
  A 0.62 0.62 0.0 0 0 242.22 142.12
  L 243.17 143.88
  Q 243.38 144.27 243.41 144.70
  Q 243.89 151.15 245.05 157.41
  Q 245.51 159.89 247.71 159.50
  Q 239.84 161.83 231.47 161.88
  A 0.54 0.54 0.0 0 1 230.93 161.35
  L 230.32 136.13
  A 1.21 1.21 0.0 0 0 228.61 135.06
  Q 224.26 137.05 221.53 141.94
  C 219.43 145.70 220.42 153.92 220.37 158.31
  A 0.65 0.64 -7.7 0 1 219.89 158.93
  Q 212.55 160.87 205.25 161.71
  L 202.79 141.40
  A 0.55 0.55 0.0 0 0 201.95 141.00
  L 199.28 142.62
  Q 198.85 141.41 198.44 140.34
  C 197.76 138.56 197.85 136.42 197.50 134.54
  L 205.04 127.20
  Q 206.54 125.74 204.45 125.93
  C 197.35 126.59 185.17 142.12 181.53 148.04
  L 182.31 140.79
  A 0.95 0.94 -67.9 0 0 181.96 139.96
  Q 181.47 139.56 180.75 139.71
  Q 185.63 135.48 191.16 127.91
  C 196.76 120.24 195.81 113.68 196.12 105.28
  A 0.90 0.89 77.4 0 1 196.60 104.52
  Q 204.57 100.40 209.96 93.21
  Q 210.82 92.08 209.40 91.99
  C 207.91 91.91 205.18 95.14 201.65 94.95
  A 0.59 0.59 0.0 0 1 201.09 94.43
  Q 200.74 91.71 201.25 89.77
  Q 206.62 69.23 228.06 60.50
  Q 229.69 59.84 228.98 61.45
  C 223.40 74.08 219.24 87.11 218.26 101.21
  C 217.03 118.83 237.15 103.97 236.14 99.88
  A 0.54 0.53 76.5 0 0 235.51 99.49
  Q 231.15 100.47 228.50 97.18
  A 1.59 1.57 -64.0 0 1 228.14 96.12
  Q 228.87 76.03 237.21 57.80
  A 1.08 1.06 -82.0 0 1 238.01 57.19
  L 240.17 56.83
  A 1.64 1.59 -70.9 0 0 241.04 56.39
  L 249.00 48.54
  Q 250.15 47.41 248.58 47.08
  Q 247.56 46.87 246.28 47.16
  C 225.63 51.83 207.02 67.74 196.53 85.68
  Q 196.10 86.41 196.03 85.57
  C 195.53 79.48 195.62 74.51 197.52 68.28
  Q 200.36 58.95 201.13 47.24
  A 3.55 3.54 24.8 0 0 200.13 44.54
  C 197.10 41.42 190.18 48.47 188.41 51.34
  Q 186.98 53.66 186.70 57.47
  Q 185.73 70.51 185.40 83.60
  Q 182.79 84.36 182.45 83.05
  C 180.50 75.61 176.71 68.22 174.28 61.71
  C 173.16 58.73 171.49 56.30 169.76 53.72
  C 167.53 50.42 166.34 46.46 163.96 43.00
  L 166.08 39.65
  Q 167.28 37.76 165.30 38.82
  L 163.50 39.79
  L 163.06 39.51
  Q 162.75 39.30 162.55 38.99
  Q 154.38 25.67 145.25 12.96
  C 142.62 9.30 138.70 5.33 135.85 1.01
  A 0.65 0.65 0.0 0 0 135.01 0.79
  L 132.96 1.85
  A 2.01 1.98 -56.8 0 1 131.99 2.06
  L 130.56 1.99
  A 0.52 0.51 -85.1 0 0 130.03 2.44
  Q 129.70 5.16 131.28 7.34
  A 1.14 1.12 -55.1 0 1 131.45 8.33
  L 130.79 10.57
  A 1.29 1.27 -50.6 0 0 130.88 11.53
  C 132.49 14.64 134.71 17.59 136.19 20.53
  Q 141.85 31.84 148.22 42.75
  C 149.88 45.59 151.13 48.97 152.79 52.00
  L 150.54 55.00
  Q 145.54 44.46 139.99 34.19
  C 138.33 31.12 134.12 28.45 133.01 25.71
  Q 130.34 19.14 125.25 14.21
  Q 127.88 12.33 128.59 9.29
  Q 128.72 8.72 128.17 8.92
  L 123.79 10.50
  Q 122.62 7.74 119.74 6.31
  A 1.12 1.10 8.4 0 1 119.14 5.52
  Q 118.43 1.62 114.22 1.29
  Q 112.82 1.18 114.18 0.84
  Q 117.59 -0.01 121.06 0.00
  Z
  M 309.6821 121.3733
  A 0.26 0.26 0.0 0 0 309.3198 121.3108
  L 308.8785 121.6220
  A 0.26 0.26 0.0 0 0 308.8160 121.9844
  L 315.6179 131.6267
  A 0.26 0.26 0.0 0 0 315.9802 131.6892
  L 316.4215 131.3780
  A 0.26 0.26 0.0 0 0 316.4840 131.0156
  L 309.6821 121.3733
  Z
  M 241.24 137.22
  Q 241.38 136.76 240.98 136.24
  Q 240.40 135.47 240.15 136.41
  Q 239.88 137.43 240.01 138.47
  A 0.34 0.33 87.7 0 0 240.31 138.76
  C 240.86 138.82 240.96 138.38 241.03 137.96
  Q 241.04 137.93 241.24 137.22
  Z"
/>
<path fill="#ffffff" d="
  M 256.56 0.00
  L 266.31 0.00
  L 266.04 0.23
  A 0.47 0.47 0.0 0 0 265.93 0.79
  Q 267.68 4.19 271.33 5.76
  A 0.49 0.49 0.0 0 1 271.54 6.48
  L 271.37 6.74
  A 0.64 0.62 -62.9 0 1 270.62 6.99
  L 261.73 3.61
  Q 261.24 3.42 260.89 3.04
  Q 259.04 1.07 256.56 0.00
  Z"
/>
<path fill="#ffffff" d="
  M 286.81 0.00
  L 447.00 0.00
  L 447.00 213.00
  L 431.94 213.00
  Q 433.85 213.02 435.62 212.23
  A 0.48 0.48 0.0 0 0 435.85 211.57
  Q 430.08 200.15 425.00 188.41
  Q 423.94 185.98 421.89 183.44
  C 415.99 176.13 412.85 166.64 410.18 157.73
  A 1.86 1.81 12.9 0 0 409.65 156.91
  C 407.78 155.27 401.95 151.02 398.88 152.33
  A 0.86 0.85 -37.2 0 1 398.03 152.22
  C 396.71 151.24 394.93 147.69 393.54 148.00
  Q 393.76 143.93 396.87 141.50
  A 0.55 0.55 0.0 0 0 396.85 140.61
  L 395.02 139.32
  A 0.32 0.31 -48.8 0 1 394.99 138.84
  Q 395.90 137.98 395.75 136.78
  A 0.57 0.56 86.6 0 0 395.19 136.28
  Q 394.17 136.28 393.43 136.68
  Q 390.83 132.76 388.07 128.98
  C 386.06 126.22 377.57 112.88 378.39 110.21
  A 0.51 0.50 -63.7 0 1 379.17 109.94
  C 383.94 113.35 386.20 118.91 390.15 123.32
  Q 391.09 124.37 390.39 123.14
  Q 385.97 115.44 380.61 108.39
  A 0.94 0.94 0.0 0 0 379.00 108.59
  Q 378.50 109.74 377.21 108.75
  C 382.33 103.96 387.68 98.39 395.10 97.78
  A 1.56 1.55 -69.8 0 0 396.06 97.33
  L 404.02 89.22
  A 0.50 0.50 0.0 0 0 403.81 88.39
  C 396.95 86.20 379.76 102.58 375.00 107.04
  Q 370.60 104.71 370.32 99.61
  Q 370.27 98.74 370.86 99.38
  L 372.22 100.86
  A 0.34 0.34 0.0 0 0 372.78 100.78
  C 374.14 98.08 349.84 70.33 346.79 66.75
  L 337.46 55.00
  Q 331.86 45.97 327.53 40.97
  Q 311.84 22.79 296.21 4.54
  Q 292.54 0.25 286.81 0.00
  Z"
/>
<path fill="#c7c7c7" d="
  M 163.50 39.79
  Q 157.37 45.20 152.79 52.00
  C 151.13 48.97 149.88 45.59 148.22 42.75
  Q 141.85 31.84 136.19 20.53
  C 134.71 17.59 132.49 14.64 130.88 11.53
  A 1.29 1.27 -50.6 0 1 130.79 10.57
  L 131.45 8.33
  A 1.14 1.12 -55.1 0 0 131.28 7.34
  Q 129.70 5.16 130.03 2.44
  A 0.52 0.51 -85.1 0 1 130.56 1.99
  L 131.99 2.06
  A 2.01 1.98 -56.8 0 0 132.96 1.85
  L 135.01 0.79
  A 0.65 0.65 0.0 0 1 135.85 1.01
  C 138.70 5.33 142.62 9.30 145.25 12.96
  Q 154.38 25.67 162.55 38.99
  Q 162.75 39.30 163.06 39.51
  L 163.50 39.79
  Z
  M 154.0167 37.6454
  A 3.49 0.51 61.1 0 0 152.7765 34.3435
  A 3.49 0.51 61.1 0 0 150.6433 31.5346
  A 3.49 0.51 61.1 0 0 151.8835 34.8365
  A 3.49 0.51 61.1 0 0 154.0167 37.6454
  Z"
/>
<path fill="#050505" d="
  M 125.25 14.21
  L 107.19 25.72
  Q 105.17 27.01 105.09 29.40
  L 103.73 68.50
  A 1.48 1.47 -89.6 0 0 105.24 70.04
  Q 112.48 69.89 119.59 70.93
  Q 123.05 71.43 120.58 73.90
  L 112.81 81.67
  A 0.89 0.88 35.4 0 1 111.78 81.84
  Q 108.36 80.16 104.59 79.85
  A 0.54 0.53 -87.6 0 0 104.01 80.39
  Q 104.02 91.79 109.75 101.56
  A 1.45 1.45 0.0 0 1 109.64 103.19
  Q 106.03 107.88 100.97 110.95
  A 0.68 0.68 0.0 0 1 100.06 110.75
  C 94.18 102.04 93.53 91.97 93.96 80.66
  A 0.49 0.49 0.0 0 0 93.41 80.16
  Q 76.60 82.26 60.51 87.55
  A 0.81 0.80 81.3 0 0 59.96 88.30
  L 59.62 103.05
  Q 59.57 104.97 61.35 105.71
  Q 68.25 108.58 73.28 103.24
  Q 73.74 102.76 73.80 103.41
  C 74.15 107.09 65.44 113.36 62.54 115.04
  C 56.84 118.34 48.61 116.44 49.07 108.74
  Q 49.61 99.68 51.52 90.82
  A 0.33 0.33 0.0 0 0 51.13 90.43
  L 46.30 91.45
  Q 44.59 91.81 45.52 90.33
  Q 48.83 85.10 54.23 81.98
  A 1.67 1.64 -4.3 0 0 54.91 81.20
  C 62.84 62.10 76.91 46.45 92.62 33.40
  C 96.93 29.82 99.16 25.48 104.41 22.57
  C 111.13 18.84 117.25 14.48 123.79 10.50
  L 128.17 8.92
  Q 128.72 8.72 128.59 9.29
  Q 127.88 12.33 125.25 14.21
  Z
  M 83.31 45.80
  C 72.94 55.89 67.56 66.22 62.23 79.47
  Q 62.05 79.93 62.52 79.77
  Q 77.60 74.60 93.27 71.65
  A 0.61 0.60 85.8 0 0 93.76 71.08
  L 95.10 35.18
  Q 95.12 34.62 94.71 35.00
  Q 88.92 40.35 83.31 45.80
  Z"
/>
<ellipse fill="#d6d6d6" cx="0.00" cy="0.00" transform="translate(152.33,34.59) rotate(61.1)" rx="3.49" ry="0.51"/>
<path fill="#ffffff" d="
  M 62.23 79.47
  C 67.56 66.22 72.94 55.89 83.31 45.80
  Q 88.92 40.35 94.71 35.00
  Q 95.12 34.62 95.10 35.18
  L 93.76 71.08
  A 0.61 0.60 85.8 0 1 93.27 71.65
  Q 77.60 74.60 62.52 79.77
  Q 62.05 79.93 62.23 79.47
  Z"
/>
<path fill="#050505" d="
  M 150.54 55.00
  L 152.79 52.00
  Q 157.37 45.20 163.50 39.79
  L 165.30 38.82
  Q 167.28 37.76 166.08 39.65
  L 163.96 43.00
  L 154.05 56.22
  Q 144.66 67.72 141.67 70.91
  C 136.96 75.93 134.03 84.10 140.77 88.95
  Q 144.84 91.87 149.81 90.68
  A 1.53 1.49 -75.6 0 0 150.63 90.18
  Q 156.07 83.63 156.97 75.28
  C 157.49 70.52 160.72 67.05 164.54 64.50
  Q 165.78 63.19 167.46 63.19
  A 0.53 0.52 -0.6 0 1 167.99 63.70
  C 168.14 67.67 165.42 71.92 166.25 75.13
  C 165.18 80.13 166.43 87.41 171.57 90.00
  Q 174.28 91.94 177.44 91.99
  Q 179.92 92.03 181.27 89.96
  L 185.40 83.60
  Q 185.73 70.51 186.70 57.47
  Q 186.98 53.66 188.41 51.34
  C 190.18 48.47 197.10 41.42 200.13 44.54
  A 3.55 3.54 24.8 0 1 201.13 47.24
  Q 200.36 58.95 197.52 68.28
  C 195.62 74.51 195.53 79.48 196.03 85.57
  Q 196.10 86.41 196.53 85.68
  C 207.02 67.74 225.63 51.83 246.28 47.16
  Q 247.56 46.87 248.58 47.08
  Q 250.15 47.41 249.00 48.54
  L 241.04 56.39
  A 1.64 1.59 -70.9 0 1 240.17 56.83
  L 238.01 57.19
  A 1.08 1.06 -82.0 0 0 237.21 57.80
  Q 228.87 76.03 228.14 96.12
  A 1.59 1.57 -64.0 0 0 228.50 97.18
  Q 231.15 100.47 235.51 99.49
  A 0.54 0.53 76.5 0 1 236.14 99.88
  C 237.15 103.97 217.03 118.83 218.26 101.21
  C 219.24 87.11 223.40 74.08 228.98 61.45
  Q 229.69 59.84 228.06 60.50
  Q 206.62 69.23 201.25 89.77
  Q 200.74 91.71 201.09 94.43
  A 0.59 0.59 0.0 0 0 201.65 94.95
  C 205.18 95.14 207.91 91.91 209.40 91.99
  Q 210.82 92.08 209.96 93.21
  Q 204.57 100.40 196.60 104.52
  A 0.90 0.89 77.4 0 0 196.12 105.28
  C 195.81 113.68 196.76 120.24 191.16 127.91
  Q 185.63 135.48 180.75 139.71
  Q 170.71 148.17 157.63 145.44
  A 0.80 0.80 0.0 0 0 156.78 145.80
  L 155.22 148.28
  Q 154.78 148.98 155.61 148.92
  Q 162.10 148.41 163.71 149.28
  Q 171.09 153.27 173.60 160.97
  Q 174.08 162.43 174.68 161.02
  Q 177.60 154.17 181.53 148.04
  C 185.17 142.12 197.35 126.59 204.45 125.93
  Q 206.54 125.74 205.04 127.20
  L 197.50 134.54
  C 191.45 137.92 186.78 147.17 184.58 153.44
  Q 181.92 158.50 180.67 163.95
  A 0.36 0.36 0.0 0 0 181.06 164.39
  L 186.00 163.96
  Q 189.71 164.20 193.61 163.11
  A 0.75 0.75 0.0 0 0 194.16 162.29
  L 192.78 151.64
  Q 192.72 151.13 192.91 150.65
  Q 194.93 145.65 199.28 142.62
  L 201.95 141.00
  A 0.55 0.55 0.0 0 1 202.79 141.40
  L 205.25 161.71
  Q 203.08 161.58 201.06 162.12
  C 198.65 162.75 197.16 162.82 194.96 162.95
  A 0.80 0.79 85.2 0 0 194.22 163.83
  L 195.07 171.91
  L 183.96 173.50
  L 178.67 173.80
  A 0.73 0.73 0.0 0 0 177.98 174.54
  C 178.10 180.00 176.20 189.87 186.04 187.75
  L 190.48 185.30
  A 0.32 0.32 0.0 0 1 190.95 185.54
  C 191.23 187.73 186.69 191.99 185.10 193.25
  C 180.03 196.67 177.06 200.05 170.63 196.79
  Q 168.15 195.53 168.03 192.75
  Q 167.74 186.24 168.64 179.79
  Q 168.86 178.24 167.86 179.44
  C 160.25 188.65 151.36 191.57 139.83 193.19
  C 135.04 193.87 127.46 194.73 123.74 191.84
  C 118.06 187.42 123.67 182.35 126.53 178.81
  A 1.58 1.58 0.0 0 0 126.87 177.99
  L 127.70 169.11
  A 1.53 1.50 32.6 0 0 127.49 168.21
  Q 126.77 166.99 127.00 166.00
  C 128.39 160.04 127.79 155.33 128.09 149.81
  C 128.33 145.30 132.69 141.55 136.20 139.29
  Q 136.73 138.94 136.13 138.75
  C 135.08 138.42 125.99 143.54 125.58 143.77
  A 0.32 0.31 -37.3 0 1 125.20 143.72
  L 125.00 143.52
  A 0.26 0.25 36.0 0 1 124.95 143.23
  C 128.83 135.81 136.13 131.83 143.75 129.16
  A 1.75 1.71 -80.5 0 0 144.53 128.59
  C 148.74 122.92 153.38 118.67 160.52 120.19
  A 0.34 0.34 0.0 0 1 160.71 120.74
  L 157.18 124.79
  A 0.68 0.68 0.0 0 0 157.11 125.58
  Q 161.81 133.48 170.46 136.31
  Q 172.14 136.85 178.50 135.46
  Q 180.72 135.07 182.29 133.50
  C 185.36 130.51 185.76 125.53 185.81 121.50
  Q 186.01 105.78 185.99 90.45
  Q 185.99 89.40 185.28 90.18
  C 181.01 94.85 177.14 99.04 171.38 101.84
  C 161.44 102.96 158.28 97.53 155.66 89.44
  Q 155.51 88.96 155.17 89.34
  C 149.38 95.89 143.65 101.94 135.20 100.97
  A 1.12 1.10 27.2 0 0 134.33 101.24
  C 132.32 102.99 127.84 108.71 125.19 106.54
  Q 123.32 105.01 123.24 102.59
  Q 122.37 77.29 124.72 52.17
  Q 124.72 52.13 124.70 48.83
  C 124.66 44.17 130.11 40.28 133.61 38.24
  A 0.88 0.88 0.0 0 1 134.94 38.99
  C 135.12 51.14 133.23 63.45 132.99 75.70
  Q 132.98 76.19 133.32 75.83
  Q 142.49 65.78 150.54 55.00
  Z
  M 145.78 137.95
  L 138.51 137.93
  A 0.62 0.62 0.0 0 0 137.89 138.55
  L 138.04 152.48
  A 0.32 0.32 0.0 0 0 138.51 152.76
  Q 142.71 150.51 147.45 149.87
  A 0.58 0.57 88.2 0 0 147.95 149.33
  Q 148.33 143.95 146.87 138.78
  A 1.13 1.13 0.0 0 0 145.78 137.95
  Z
  M 144.04 169.42
  C 144.24 170.54 138.60 175.90 137.54 177.14
  A 1.72 1.71 -24.4 0 0 137.15 178.17
  Q 137.08 180.20 135.75 181.80
  Q 134.03 183.88 136.72 183.97
  C 144.46 184.24 156.70 183.43 163.40 179.22
  A 1.12 1.11 -11.9 0 0 163.90 178.46
  C 164.97 171.22 161.79 161.49 154.09 159.32
  Q 151.30 158.54 147.83 158.90
  Q 146.16 159.08 144.82 160.09
  L 137.35 165.72
  A 0.94 0.93 -19.2 0 0 136.97 166.49
  L 137.07 170.60
  A 0.55 0.54 79.0 0 0 137.80 171.10
  L 143.29 169.00
  A 0.56 0.55 -15.1 0 1 144.04 169.42
  Z"
/>
<path fill="#050505" d="
  M 293.29 106.00
  Q 289.84 111.30 284.49 114.68
  A 0.55 0.54 -33.5 0 1 283.77 114.54
  Q 277.86 106.64 274.45 97.57
  L 272.11 88.81
  A 0.70 0.70 0.0 0 0 271.46 88.29
  Q 267.63 88.15 263.58 89.12
  Q 257.30 89.00 250.77 90.14
  A 0.90 0.89 5.2 0 0 250.09 90.70
  C 247.70 96.80 248.46 103.03 256.67 101.64
  Q 258.55 101.33 260.49 101.10
  Q 260.99 101.04 260.68 101.45
  C 257.09 106.20 251.63 111.96 245.25 112.04
  C 235.13 110.89 239.67 98.31 242.07 92.75
  A 1.27 1.26 16.3 0 0 241.11 91.00
  L 239.61 90.76
  A 0.80 0.79 1.5 0 1 238.95 90.07
  Q 238.79 88.77 239.75 87.79
  C 242.85 84.63 246.70 82.13 248.97 78.37
  Q 250.43 75.96 251.79 73.50
  C 260.78 60.05 269.60 49.84 281.27 41.02
  Q 283.01 39.71 284.15 39.76
  Q 285.52 39.83 284.57 40.82
  L 279.95 45.63
  Q 278.63 47.01 278.71 48.92
  C 279.38 65.46 281.25 85.30 290.19 99.80
  Q 292.02 102.76 293.29 106.00
  Z
  M 255.29 76.75
  L 253.60 79.69
  Q 253.36 80.11 253.84 80.08
  L 260.00 79.71
  L 269.89 79.00
  A 0.39 0.39 0.0 0 0 270.25 78.58
  L 268.64 57.23
  Q 268.58 56.47 268.11 57.06
  Q 260.78 66.35 255.29 76.75
  Z"
/>
<path fill="#c7c7c7" d="
  M 163.96 43.00
  C 166.34 46.46 167.53 50.42 169.76 53.72
  C 171.49 56.30 173.16 58.73 174.28 61.71
  C 176.71 68.22 180.50 75.61 182.45 83.05
  Q 182.79 84.36 185.40 83.60
  L 181.27 89.96
  Q 179.92 92.03 177.44 91.99
  Q 174.28 91.94 171.57 90.00
  L 166.25 75.13
  C 165.42 71.92 168.14 67.67 167.99 63.70
  A 0.53 0.52 -0.6 0 0 167.46 63.19
  Q 165.78 63.19 164.54 64.50
  Q 163.81 61.15 160.40 62.50
  A 0.84 0.83 54.3 0 1 159.56 62.36
  Q 156.38 59.70 154.05 56.22
  L 163.96 43.00
  Z"
/>
<path fill="#c7c7c7" d="
  M 337.46 55.00
  L 346.79 66.75
  C 348.05 69.05 348.40 71.49 349.73 73.60
  Q 361.07 91.52 370.38 110.58
  A 0.77 0.77 0.0 0 0 371.07 111.01
  L 371.46 111.00
  Q 369.32 112.52 370.92 114.18
  L 371.06 114.93
  Q 371.15 115.41 371.42 115.81
  C 373.66 119.13 375.75 121.58 377.07 125.56
  Q 378.67 130.36 380.90 134.90
  C 381.88 136.88 383.69 145.40 385.96 145.00
  C 386.02 146.72 384.94 146.83 384.02 147.71
  Q 378.66 152.86 373.29 158.00
  Q 370.32 153.67 368.46 148.83
  C 366.85 144.61 365.30 141.65 363.50 138.00
  C 362.78 136.53 362.87 134.77 362.00 132.97
  Q 355.43 119.33 349.60 108.80
  Q 348.05 106.01 345.64 100.65
  C 342.69 94.10 338.68 88.18 334.85 82.14
  C 329.17 73.17 323.95 63.09 317.46 54.55
  Q 312.84 48.46 311.34 46.27
  A 0.64 0.63 -38.0 0 1 311.45 45.42
  L 312.81 44.24
  A 0.97 0.95 34.3 0 1 313.76 44.07
  Q 317.23 45.35 319.66 48.14
  A 1.04 1.03 -26.1 0 0 320.63 48.47
  L 327.09 47.26
  A 1.76 1.75 -39.0 0 1 328.06 47.36
  C 332.27 49.05 333.92 52.61 337.46 55.00
  Z"
/>
<path fill="#ffffff" d="
  M 154.05 56.22
  Q 156.38 59.70 159.56 62.36
  A 0.84 0.83 54.3 0 0 160.40 62.50
  Q 163.81 61.15 164.54 64.50
  C 160.72 67.05 157.49 70.52 156.97 75.28
  Q 156.07 83.63 150.63 90.18
  A 1.53 1.49 -75.6 0 1 149.81 90.68
  Q 144.84 91.87 140.77 88.95
  C 134.03 84.10 136.96 75.93 141.67 70.91
  Q 144.66 67.72 154.05 56.22
  Z"
/>
<path fill="#d6d6d6" d="
  M 260.00 79.71
  L 259.97 79.26
  A 0.75 0.74 9.9 0 0 259.52 78.63
  L 255.29 76.75
  Q 260.78 66.35 268.11 57.06
  Q 268.58 56.47 268.64 57.23
  L 270.25 78.58
  A 0.39 0.39 0.0 0 1 269.89 79.00
  L 260.00 79.71
  Z"
/>
<path fill="#d6d6d6" d="
  M 346.79 66.75
  C 349.84 70.33 374.14 98.08 372.78 100.78
  A 0.34 0.34 0.0 0 1 372.22 100.86
  L 370.86 99.38
  Q 370.27 98.74 370.32 99.61
  Q 370.60 104.71 375.00 107.04
  L 371.46 111.00
  L 371.07 111.01
  A 0.77 0.77 0.0 0 1 370.38 110.58
  Q 361.07 91.52 349.73 73.60
  C 348.40 71.49 348.05 69.05 346.79 66.75
  Z"
/>
<path fill="#ffffff" d="
  M 251.79 73.50
  Q 250.43 75.96 248.97 78.37
  C 246.70 82.13 242.85 84.63 239.75 87.79
  Q 238.62 87.69 237.86 86.93
  A 1.27 1.27 0.0 0 1 237.50 86.07
  L 237.50 82.26
  A 0.78 0.78 0.0 0 1 238.03 81.51
  L 239.99 80.83
  A 0.68 0.67 76.6 0 0 240.44 80.09
  L 240.01 77.06
  A 0.71 0.70 84.9 0 1 240.68 76.25
  L 242.40 76.19
  A 1.40 1.39 -88.4 0 0 243.74 74.92
  Q 243.98 72.19 241.33 71.95
  A 0.91 0.91 0.0 0 1 240.64 71.50
  L 238.50 67.77
  Q 238.20 67.25 238.78 67.39
  C 244.26 68.63 247.07 71.58 251.79 73.50
  Z"
/>
<path fill="#d6d6d6" d="
  M 166.25 75.13
  L 171.57 90.00
  C 166.43 87.41 165.18 80.13 166.25 75.13
  Z"
/>
<path fill="#ffffff" d="
  M 255.29 76.75
  L 259.52 78.63
  A 0.75 0.74 9.9 0 1 259.97 79.26
  L 260.00 79.71
  L 253.84 80.08
  Q 253.36 80.11 253.60 79.69
  L 255.29 76.75
  Z"
/>
<path fill="#050505" d="
  M 377.21 108.75
  L 370.92 114.18
  Q 369.32 112.52 371.46 111.00
  L 375.00 107.04
  C 379.76 102.58 396.95 86.20 403.81 88.39
  A 0.50 0.50 0.0 0 1 404.02 89.22
  L 396.06 97.33
  A 1.56 1.55 -69.8 0 1 395.10 97.78
  C 387.68 98.39 382.33 103.96 377.21 108.75
  Z"
/>
<path fill="#d6d6d6" d="
  M 274.45 97.57
  Q 268.57 93.94 263.58 89.12
  Q 267.63 88.15 271.46 88.29
  A 0.70 0.70 0.0 0 1 272.11 88.81
  L 274.45 97.57
  Z"
/>
<path fill="#ffffff" d="
  M 263.58 89.12
  Q 268.57 93.94 274.45 97.57
  Q 277.86 106.64 283.77 114.54
  A 0.55 0.54 -33.5 0 0 284.49 114.68
  Q 289.84 111.30 293.29 106.00
  Q 294.72 106.14 295.38 107.60
  Q 295.78 108.47 295.76 107.51
  L 295.74 106.12
  Q 295.73 105.01 296.54 105.77
  L 299.98 109.00
  Q 300.47 109.46 299.82 109.28
  Q 298.56 108.93 297.57 109.55
  A 0.65 0.65 0.0 0 0 297.32 110.40
  L 298.08 111.91
  Q 298.98 113.71 297.35 112.52
  Q 295.65 111.28 294.37 109.62
  A 1.22 1.21 -40.5 0 0 292.57 109.48
  L 291.34 110.64
  A 0.81 0.80 -42.1 0 0 291.28 111.75
  L 303.73 126.44
  A 0.36 0.35 -43.1 0 1 303.71 126.91
  L 303.50 127.12
  A 0.36 0.36 0.0 0 1 303.14 127.22
  Q 299.88 126.23 297.90 123.44
  A 0.46 0.46 0.0 0 0 297.31 123.30
  C 296.03 123.97 300.69 128.75 301.33 129.24
  A 1.70 1.62 8.7 0 1 301.87 129.94
  L 302.82 132.34
  A 1.79 1.77 7.7 0 0 303.44 133.14
  Q 308.43 136.74 312.29 141.50
  Q 308.62 146.69 306.73 152.69
  A 1.05 1.03 -5.0 0 1 306.19 153.32
  L 300.81 155.84
  Q 300.28 156.08 300.38 155.51
  Q 302.31 144.50 301.95 133.32
  A 0.47 0.47 0.0 0 0 301.29 132.91
  C 289.90 137.90 292.01 146.44 291.38 156.62
  Q 291.25 158.76 289.11 158.92
  L 277.44 159.78
  A 0.41 0.40 -2.0 0 1 277.00 159.38
  L 277.00 135.70
  A 0.76 0.75 -12.4 0 0 275.93 135.02
  Q 270.82 137.37 268.08 142.43
  C 266.37 145.57 267.04 149.64 266.96 153.20
  A 0.88 0.87 -10.9 0 1 266.42 153.99
  L 258.91 157.01
  A 0.66 0.66 0.0 0 1 258.00 156.40
  L 258.00 133.59
  A 0.42 0.42 0.0 0 0 257.50 133.18
  Q 255.01 133.64 252.57 135.94
  Q 251.42 129.71 249.55 123.73
  C 248.31 119.76 250.37 116.94 245.48 114.34
  A 0.77 0.76 -73.2 0 1 245.08 113.59
  L 245.25 112.04
  C 251.63 111.96 257.09 106.20 260.68 101.45
  Q 260.99 101.04 260.49 101.10
  Q 258.55 101.33 256.67 101.64
  C 248.46 103.03 247.70 96.80 250.09 90.70
  A 0.90 0.89 5.2 0 1 250.77 90.14
  Q 257.30 89.00 263.58 89.12
  Z"
/>
<path fill="#c7c7c7" d="
  M 182.29 133.50
  Q 181.52 132.05 180.84 130.56
  C 179.59 127.81 177.55 126.70 177.04 123.25
  C 175.81 113.86 175.08 109.66 171.38 101.84
  C 177.14 99.04 181.01 94.85 185.28 90.18
  Q 185.99 89.40 185.99 90.45
  Q 186.01 105.78 185.81 121.50
  C 185.76 125.53 185.36 130.51 182.29 133.50
  Z"
/>
<path fill="#d6d6d6" d="
  M 393.43 136.68
  C 390.94 138.39 386.37 142.04 385.96 145.00
  C 383.69 145.40 381.88 136.88 380.90 134.90
  Q 378.67 130.36 377.07 125.56
  C 375.75 121.58 373.66 119.13 371.42 115.81
  Q 371.15 115.41 371.06 114.93
  L 370.92 114.18
  L 377.21 108.75
  Q 378.50 109.74 379.00 108.59
  A 0.94 0.94 0.0 0 1 380.61 108.39
  Q 385.97 115.44 390.39 123.14
  Q 391.09 124.37 390.15 123.32
  C 386.20 118.91 383.94 113.35 379.17 109.94
  A 0.51 0.50 -63.7 0 0 378.39 110.21
  C 377.57 112.88 386.06 126.22 388.07 128.98
  Q 390.83 132.76 393.43 136.68
  Z"
/>
<path fill="#ffffff" d="
  M 247.96 157.50
  L 247.71 159.50
  Q 245.51 159.89 245.05 157.41
  Q 243.89 151.15 243.41 144.70
  Q 243.38 144.27 243.17 143.88
  L 242.22 142.12
  A 0.62 0.62 0.0 0 1 242.57 141.24
  Q 244.06 140.75 244.01 139.22
  A 0.46 0.46 0.0 0 0 243.51 138.78
  L 242.26 138.87
  A 0.48 0.47 -88.5 0 1 241.75 138.33
  L 242.08 135.82
  A 0.66 0.65 -87.9 0 1 242.69 135.25
  L 243.14 135.22
  A 0.89 0.89 0.0 0 0 243.95 134.50
  Q 244.37 132.30 242.77 130.89
  A 1.81 1.76 12.4 0 1 242.26 130.12
  L 240.77 125.59
  Q 240.51 124.80 239.97 125.43
  L 239.35 126.16
  A 0.98 0.97 -33.0 0 0 239.15 127.09
  C 239.40 127.89 241.23 132.46 241.04 132.88
  A 0.41 0.41 0.0 0 1 240.34 132.96
  L 239.45 131.80
  Q 239.14 131.40 239.05 130.91
  L 238.02 125.67
  A 0.78 0.77 63.9 0 1 238.26 124.95
  Q 240.92 122.51 241.18 118.95
  Q 241.22 118.30 241.74 118.70
  C 241.81 118.75 243.24 126.92 243.48 127.81
  Q 244.99 133.54 245.29 136.24
  Q 246.39 146.27 246.36 156.37
  A 0.91 0.89 -75.0 0 0 246.80 157.15
  Q 247.33 157.47 247.96 157.50
  Z"
/>
<rect fill="#ffffff" x="-0.53" y="-6.16" transform="translate(312.65,126.50) rotate(-35.2)" width="1.06" height="12.32" rx="0.26"/>
<path fill="#d6d6d6" d="
  M 177.04 123.25
  C 177.55 126.70 179.59 127.81 180.84 130.56
  Q 181.52 132.05 182.29 133.50
  Q 180.72 135.07 178.50 135.46
  Q 177.44 132.86 176.89 130.11
  C 176.46 127.96 173.55 124.40 174.16 122.68
  Q 174.34 122.19 174.66 122.59
  Q 175.72 123.88 177.04 123.25
  Z"
/>
<path fill="#050505" d="
  M 338.25 182.46
  C 327.75 193.06 321.01 197.06 307.93 186.28
  A 0.56 0.56 0.0 0 0 307.18 186.31
  L 299.93 193.26
  Q 297.89 195.22 295.07 195.52
  Q 289.58 196.11 288.97 189.99
  Q 288.54 185.73 289.74 167.31
  A 0.38 0.38 0.0 0 0 289.29 166.91
  L 277.80 168.92
  A 0.81 0.81 0.0 0 0 277.13 169.61
  Q 276.26 176.09 278.69 182.06
  A 0.99 0.97 -40.7 0 1 278.61 182.97
  Q 275.41 188.03 270.29 191.17
  A 0.76 0.74 -40.9 0 1 269.44 191.12
  C 266.07 188.41 266.82 176.78 267.01 170.64
  A 0.62 0.61 -89.1 0 0 266.40 170.00
  L 258.74 170.00
  A 0.65 0.64 -89.5 0 0 258.10 170.64
  L 258.04 175.50
  L 258.03 186.40
  A 1.74 1.68 -28.2 0 1 257.71 187.39
  Q 254.62 191.81 250.03 194.66
  Q 248.03 195.90 248.02 193.55
  L 247.99 168.41
  A 0.49 0.49 0.0 0 0 247.40 167.93
  L 232.30 171.06
  A 0.63 0.63 0.0 0 0 231.80 171.71
  Q 232.21 178.98 234.77 185.78
  A 1.06 1.05 52.0 0 1 234.66 186.72
  Q 231.30 191.84 226.02 195.00
  A 1.19 1.18 -22.6 0 1 224.26 194.28
  Q 221.62 183.82 221.04 173.07
  A 0.58 0.58 0.0 0 0 220.41 172.52
  L 212.82 173.13
  Q 211.12 173.27 211.86 171.74
  L 213.29 168.76
  Q 213.39 168.56 213.17 168.61
  L 207.08 169.96
  A 0.59 0.58 80.7 0 0 206.63 170.60
  Q 207.51 177.99 209.63 185.13
  A 0.85 0.84 59.5 0 1 209.42 185.96
  L 203.21 192.25
  Q 201.90 193.68 200.95 193.98
  A 1.55 1.54 75.5 0 1 198.95 192.80
  L 195.07 171.91
  L 194.22 163.83
  A 0.80 0.79 85.2 0 1 194.96 162.95
  C 197.16 162.82 198.65 162.75 201.06 162.12
  Q 203.08 161.58 205.25 161.71
  Q 212.55 160.87 219.89 158.93
  A 0.65 0.64 -7.7 0 0 220.37 158.31
  C 220.42 153.92 219.43 145.70 221.53 141.94
  Q 224.26 137.05 228.61 135.06
  A 1.21 1.21 0.0 0 1 230.32 136.13
  L 230.93 161.35
  A 0.54 0.54 0.0 0 0 231.47 161.88
  Q 239.84 161.83 247.71 159.50
  L 247.96 157.50
  C 247.97 153.23 246.98 143.64 249.16 140.18
  Q 250.76 137.64 252.57 135.94
  Q 255.01 133.64 257.50 133.18
  A 0.42 0.42 0.0 0 1 258.00 133.59
  L 258.00 156.40
  A 0.66 0.66 0.0 0 0 258.91 157.01
  L 266.42 153.99
  A 0.88 0.87 -10.9 0 0 266.96 153.20
  C 267.04 149.64 266.37 145.57 268.08 142.43
  Q 270.82 137.37 275.93 135.02
  A 0.76 0.75 -12.4 0 1 277.00 135.70
  L 277.00 159.38
  A 0.41 0.40 -2.0 0 0 277.44 159.78
  L 289.11 158.92
  Q 291.25 158.76 291.38 156.62
  C 292.01 146.44 289.90 137.90 301.29 132.91
  A 0.47 0.47 0.0 0 1 301.95 133.32
  Q 302.31 144.50 300.38 155.51
  Q 300.28 156.08 300.81 155.84
  L 306.19 153.32
  A 1.05 1.03 -5.0 0 0 306.73 152.69
  Q 308.62 146.69 312.29 141.50
  C 315.82 137.14 320.83 131.56 326.43 130.34
  C 339.23 127.56 351.19 135.49 351.09 149.33
  Q 350.95 168.13 338.25 182.46
  Z
  M 318.63 140.23
  Q 317.26 141.88 317.08 143.83
  L 316.04 147.50
  C 313.93 157.81 310.96 175.96 327.19 176.82
  Q 328.40 176.88 327.72 177.89
  L 325.48 181.18
  A 0.44 0.43 -64.5 0 0 325.71 181.84
  C 328.43 182.65 332.17 183.61 334.48 181.50
  Q 336.38 179.76 336.31 177.36
  C 343.33 163.88 345.29 144.80 326.25 140.54
  L 322.75 140.04
  Q 320.84 139.38 318.63 140.23
  Z
  M 300.55 160.26
  A 4.31 4.29 -20.0 0 0 299.41 162.69
  Q 298.33 171.73 299.12 180.25
  C 299.32 182.31 299.10 183.88 301.49 184.66
  A 0.64 0.64 0.0 0 0 302.24 184.37
  C 305.51 178.59 299.58 170.86 303.21 164.18
  Q 305.49 160.01 306.06 155.18
  Q 306.16 154.35 305.59 154.96
  L 300.55 160.26
  Z
  M 257.78 164.66
  A 0.58 0.57 -53.8 0 0 257.92 165.58
  L 258.15 165.70
  A 0.60 0.60 0.0 0 0 258.89 165.57
  Q 262.16 161.87 266.53 159.65
  A 1.03 1.02 76.1 0 0 267.09 158.72
  L 267.08 156.78
  Q 267.07 155.56 266.20 156.41
  L 257.78 164.66
  Z"
/>
<path fill="#050505" d="
  M 62.09 143.65
  L 56.81 145.93
  A 0.43 0.42 -21.2 0 1 56.24 145.68
  Q 56.17 145.46 56.18 145.20
  Q 56.19 144.95 56.39 144.69
  Q 66.26 131.90 82.45 132.02
  Q 85.38 132.04 86.73 133.57
  C 91.65 139.12 81.72 150.73 78.05 154.67
  Q 77.70 155.04 78.20 154.98
  C 85.99 154.19 92.95 151.60 95.64 161.67
  Q 97.89 170.08 97.98 177.25
  C 98.11 187.27 85.20 197.65 76.24 199.21
  Q 65.29 201.11 58.82 199.67
  C 54.54 198.71 46.88 195.42 45.54 190.94
  C 44.48 187.38 50.42 181.78 52.99 180.14
  A 2.62 2.60 -17.6 0 0 54.19 177.84
  Q 53.71 165.43 54.30 154.53
  C 54.59 148.96 59.42 147.57 62.43 144.12
  Q 63.28 143.14 62.09 143.65
  Z
  M 63.45 143.81
  A 0.81 0.80 9.7 0 1 63.99 144.57
  L 64.00 160.47
  A 0.34 0.34 0.0 0 0 64.47 160.78
  C 71.61 157.79 80.56 151.66 76.86 142.51
  A 0.78 0.77 79.8 0 0 76.18 142.03
  Q 69.59 141.67 63.19 143.34
  Q 62.53 143.51 63.18 143.72
  L 63.45 143.81
  Z
  M 82.01 164.89
  A 3.24 3.21 68.2 0 0 80.12 164.07
  Q 73.03 163.53 66.31 165.84
  Q 64.15 166.58 63.95 168.86
  C 63.40 175.06 63.78 183.62 66.94 189.02
  A 1.63 1.63 0.0 0 0 68.19 189.82
  Q 77.58 190.64 86.81 189.13
  A 1.45 1.44 84.9 0 0 88.02 187.68
  C 87.90 181.04 87.26 169.65 82.01 164.89
  Z"
/>
<path fill="#c7c7c7" d="
  M 197.50 134.54
  C 197.85 136.42 197.76 138.56 198.44 140.34
  Q 198.85 141.41 199.28 142.62
  Q 194.93 145.65 192.91 150.65
  Q 192.72 151.13 192.78 151.64
  L 194.16 162.29
  A 0.75 0.75 0.0 0 1 193.61 163.11
  Q 189.71 164.20 186.00 163.96
  L 184.58 153.44
  C 186.78 147.17 191.45 137.92 197.50 134.54
  Z"
/>
<path fill="#ffffff" d="
  M 241.03 137.96
  C 240.96 138.38 240.86 138.82 240.31 138.76
  A 0.34 0.33 87.7 0 1 240.01 138.47
  Q 239.88 137.43 240.15 136.41
  Q 240.40 135.47 240.98 136.24
  Q 241.38 136.76 241.24 137.22
  Q 241.04 137.93 241.03 137.96
  Z"
/>
<path fill="#050505" d="
  M 393.54 148.00
  Q 391.16 158.00 390.29 168.25
  Q 388.93 180.74 389.75 185.50
  Q 390.45 189.60 395.04 188.75
  Q 395.76 188.34 396.49 188.40
  A 0.40 0.40 0.0 0 1 396.83 188.95
  Q 396.05 190.86 394.46 192.25
  C 390.81 195.75 386.40 201.13 382.11 198.09
  C 375.73 193.58 382.79 158.85 384.68 151.42
  Q 384.89 150.61 384.28 151.18
  Q 377.66 157.35 372.17 163.87
  C 369.48 166.87 366.03 170.51 365.27 174.32
  C 364.70 177.18 365.84 189.35 371.93 185.20
  Q 372.35 184.91 372.38 185.42
  C 372.50 188.09 365.42 193.91 364.00 195.03
  C 359.71 198.41 358.03 195.27 356.04 192.00
  L 355.63 190.49
  Q 355.50 190.00 355.15 190.36
  L 352.00 193.54
  L 347.48 198.34
  Q 343.20 199.84 346.04 194.75
  L 350.71 187.50
  L 352.29 185.00
  Q 354.53 182.36 354.25 177.75
  Q 353.53 165.95 352.32 154.19
  C 351.49 145.99 352.98 140.29 361.09 137.11
  A 0.47 0.46 76.0 0 1 361.72 137.49
  Q 363.46 152.47 364.18 167.52
  Q 364.22 168.45 364.84 167.75
  L 373.29 158.00
  Q 378.66 152.86 384.02 147.71
  C 384.94 146.83 386.02 146.72 385.96 145.00
  C 386.37 142.04 390.94 138.39 393.43 136.68
  Q 394.17 136.28 395.19 136.28
  A 0.57 0.56 86.6 0 1 395.75 136.78
  Q 395.90 137.98 394.99 138.84
  A 0.32 0.31 -48.8 0 0 395.02 139.32
  L 396.85 140.61
  A 0.55 0.55 0.0 0 1 396.87 141.50
  Q 393.76 143.93 393.54 148.00
  Z"
/>
<path fill="#ffffff" d="
  M 145.78 137.95
  A 1.13 1.13 0.0 0 1 146.87 138.78
  Q 148.33 143.95 147.95 149.33
  A 0.58 0.57 88.2 0 1 147.45 149.87
  Q 142.71 150.51 138.51 152.76
  A 0.32 0.32 0.0 0 1 138.04 152.48
  L 137.89 138.55
  A 0.62 0.62 0.0 0 1 138.51 137.93
  L 145.78 137.95
  Z"
/>
<path fill="#ffffff" d="
  M 180.75 139.71
  Q 181.47 139.56 181.96 139.96
  A 0.95 0.94 -67.9 0 1 182.31 140.79
  L 181.53 148.04
  Q 177.60 154.17 174.68 161.02
  Q 174.08 162.43 173.60 160.97
  Q 171.09 153.27 163.71 149.28
  Q 162.10 148.41 155.61 148.92
  Q 154.78 148.98 155.22 148.28
  L 156.78 145.80
  A 0.80 0.80 0.0 0 1 157.63 145.44
  Q 170.71 148.17 180.75 139.71
  Z"
/>
<path fill="#d6d6d6" d="
  M 322.75 140.04
  Q 322.65 143.51 325.70 144.76
  A 0.33 0.33 0.0 0 0 326.15 144.46
  L 326.25 140.54
  C 345.29 144.80 343.33 163.88 336.31 177.36
  Q 330.34 167.26 324.71 157.04
  C 322.72 153.41 318.70 150.94 316.04 147.50
  L 317.08 143.83
  Q 320.96 146.99 324.11 150.89
  C 324.22 151.03 324.63 151.06 324.76 150.99
  A 0.52 0.52 0.0 0 0 324.96 150.25
  L 318.63 140.23
  Q 320.84 139.38 322.75 140.04
  Z"
/>
<path fill="#ffffff" d="
  M 322.75 140.04
  L 326.25 140.54
  L 326.15 144.46
  A 0.33 0.33 0.0 0 1 325.70 144.76
  Q 322.65 143.51 322.75 140.04
  Z"
/>
<path fill="#ffffff" d="
  M 318.63 140.23
  L 324.96 150.25
  A 0.52 0.52 0.0 0 1 324.76 150.99
  C 324.63 151.06 324.22 151.03 324.11 150.89
  Q 320.96 146.99 317.08 143.83
  Q 317.26 141.88 318.63 140.23
  Z"
/>
<path fill="#ffffff" d="
  M 63.45 143.81
  L 63.18 143.72
  Q 62.53 143.51 63.19 143.34
  Q 69.59 141.67 76.18 142.03
  A 0.78 0.77 79.8 0 1 76.86 142.51
  C 80.56 151.66 71.61 157.79 64.47 160.78
  A 0.34 0.34 0.0 0 1 64.00 160.47
  L 63.99 144.57
  A 0.81 0.80 9.7 0 0 63.45 143.81
  Z"
/>
<path fill="#ffffff" d="
  M 316.04 147.50
  C 318.70 150.94 322.72 153.41 324.71 157.04
  Q 330.34 167.26 336.31 177.36
  Q 336.38 179.76 334.48 181.50
  C 332.17 183.61 328.43 182.65 325.71 181.84
  A 0.44 0.43 -64.5 0 1 325.48 181.18
  L 327.72 177.89
  Q 328.40 176.88 327.19 176.82
  C 310.96 175.96 313.93 157.81 316.04 147.50
  Z"
/>
<path fill="#d6d6d6" d="
  M 393.54 148.00
  C 394.93 147.69 396.71 151.24 398.03 152.22
  A 0.86 0.85 -37.2 0 0 398.88 152.33
  C 401.95 151.02 407.78 155.27 409.65 156.91
  A 1.86 1.81 12.9 0 1 410.18 157.73
  C 412.85 166.64 415.99 176.13 421.89 183.44
  Q 423.94 185.98 425.00 188.41
  Q 430.08 200.15 435.85 211.57
  A 0.48 0.48 0.0 0 1 435.62 212.23
  Q 433.85 213.02 431.94 213.00
  L 395.94 213.00
  L 396.56 212.72
  A 0.67 0.65 -18.2 0 0 396.93 212.01
  Q 395.34 203.25 395.80 194.34
  A 1.21 1.20 -63.8 0 0 395.51 193.48
  L 394.46 192.25
  Q 396.05 190.86 396.83 188.95
  A 0.40 0.40 0.0 0 0 396.49 188.40
  Q 395.76 188.34 395.04 188.75
  Q 394.59 186.26 394.65 183.74
  C 394.76 178.96 393.19 174.26 392.52 169.55
  A 0.84 0.83 -84.2 0 0 391.98 168.88
  L 390.29 168.25
  Q 391.16 158.00 393.54 148.00
  Z"
/>
<path fill="#c7c7c7" d="
  M 394.46 192.25
  L 395.51 193.48
  A 1.21 1.20 -63.8 0 1 395.80 194.34
  Q 395.34 203.25 396.93 212.01
  A 0.67 0.65 -18.2 0 1 396.56 212.72
  L 395.94 213.00
  L 381.19 213.00
  Q 380.09 207.75 379.00 202.49
  Q 378.34 199.34 379.24 187.37
  A 1.61 1.59 30.3 0 0 378.97 186.36
  L 378.21 185.27
  A 2.09 2.06 26.2 0 1 377.86 184.26
  Q 377.17 173.47 372.17 163.87
  Q 377.66 157.35 384.28 151.18
  Q 384.89 150.61 384.68 151.42
  C 382.79 158.85 375.73 193.58 382.11 198.09
  C 386.40 201.13 390.81 195.75 394.46 192.25
  Z"
/>
<path fill="#ffffff" d="
  M 184.58 153.44
  L 186.00 163.96
  L 181.06 164.39
  A 0.36 0.36 0.0 0 1 180.67 163.95
  Q 181.92 158.50 184.58 153.44
  Z"
/>
<path fill="#ffffff" d="
  M 300.55 160.26
  L 305.59 154.96
  Q 306.16 154.35 306.06 155.18
  Q 305.49 160.01 303.21 164.18
  C 299.58 170.86 305.51 178.59 302.24 184.37
  A 0.64 0.64 0.0 0 1 301.49 184.66
  C 299.10 183.88 299.32 182.31 299.12 180.25
  Q 298.33 171.73 299.41 162.69
  A 4.31 4.29 -20.0 0 1 300.55 160.26
  Z"
/>
<path fill="#ffffff" d="
  M 257.78 164.66
  L 266.20 156.41
  Q 267.07 155.56 267.08 156.78
  L 267.09 158.72
  A 1.03 1.02 76.1 0 1 266.53 159.65
  Q 262.16 161.87 258.89 165.57
  A 0.60 0.60 0.0 0 1 258.15 165.70
  L 257.92 165.58
  A 0.58 0.57 -53.8 0 1 257.78 164.66
  Z"
/>
<path fill="#ffffff" d="
  M 143.29 169.00
  L 137.80 171.10
  A 0.55 0.54 79.0 0 1 137.07 170.60
  L 136.97 166.49
  A 0.94 0.93 -19.2 0 1 137.35 165.72
  L 144.82 160.09
  Q 146.16 159.08 147.83 158.90
  Q 151.30 158.54 154.09 159.32
  C 161.79 161.49 164.97 171.22 163.90 178.46
  A 1.12 1.11 -11.9 0 1 163.40 179.22
  C 156.70 183.43 144.46 184.24 136.72 183.97
  Q 134.03 183.88 135.75 181.80
  Q 137.08 180.20 137.15 178.17
  A 1.72 1.71 -24.4 0 1 137.54 177.14
  C 138.60 175.90 144.24 170.54 144.04 169.42
  A 0.56 0.55 -15.1 0 0 143.29 169.00
  Z"
/>
<path fill="#ffffff" d="
  M 82.01 164.89
  C 87.26 169.65 87.90 181.04 88.02 187.68
  A 1.45 1.44 84.9 0 1 86.81 189.13
  Q 77.58 190.64 68.19 189.82
  A 1.63 1.63 0.0 0 1 66.94 189.02
  C 63.78 183.62 63.40 175.06 63.95 168.86
  Q 64.15 166.58 66.31 165.84
  Q 73.03 163.53 80.12 164.07
  A 3.24 3.21 68.2 0 1 82.01 164.89
  Z"
/>
<path fill="#d6d6d6" d="
  M 372.17 163.87
  Q 377.17 173.47 377.86 184.26
  A 2.09 2.06 26.2 0 0 378.21 185.27
  L 378.97 186.36
  A 1.61 1.59 30.3 0 1 379.24 187.37
  Q 378.34 199.34 379.00 202.49
  Q 380.09 207.75 381.19 213.00
  L 365.94 213.00
  L 365.30 212.60
  A 1.33 1.32 -82.0 0 1 364.73 211.84
  Q 363.54 207.66 361.52 203.82
  C 359.84 200.64 356.66 198.41 355.07 194.48
  A 1.08 1.06 -41.8 0 1 355.13 193.56
  L 356.04 192.00
  C 358.03 195.27 359.71 198.41 364.00 195.03
  C 365.42 193.91 372.50 188.09 372.38 185.42
  Q 372.35 184.91 371.93 185.20
  C 365.84 189.35 364.70 177.18 365.27 174.32
  C 366.03 170.51 369.48 166.87 372.17 163.87
  Z"
/>
<path fill="#ffffff" d="
  M 338.25 182.46
  L 338.56 182.51
  A 0.51 0.51 0.0 0 1 338.92 182.76
  C 341.16 186.62 342.60 191.99 346.04 194.75
  Q 343.20 199.84 347.48 198.34
  Q 348.79 201.49 351.41 200.28
  A 1.34 1.29 -49.6 0 1 352.31 200.19
  L 354.19 200.64
  Q 355.17 200.87 354.77 199.94
  L 352.00 193.54
  L 355.15 190.36
  Q 355.50 190.00 355.63 190.49
  L 356.04 192.00
  L 355.13 193.56
  A 1.08 1.06 -41.8 0 0 355.07 194.48
  C 356.66 198.41 359.84 200.64 361.52 203.82
  Q 363.54 207.66 364.73 211.84
  A 1.33 1.32 -82.0 0 0 365.30 212.60
  L 365.94 213.00
  L 252.19 213.00
  Q 255.65 212.25 259.18 212.67
  A 0.65 0.63 6.1 0 0 259.90 212.10
  L 260.02 210.83
  Q 260.13 209.73 259.23 210.37
  L 258.90 210.61
  Q 258.54 210.86 258.11 210.94
  L 254.36 211.65
  A 0.96 0.95 83.5 0 1 253.24 210.75
  L 253.01 205.61
  A 0.60 0.60 0.0 0 1 253.65 204.98
  L 254.83 205.07
  A 0.40 0.39 -4.9 0 0 255.24 204.59
  Q 254.54 201.38 255.46 198.18
  A 0.83 0.80 -57.6 0 0 255.31 197.45
  L 253.73 195.49
  Q 252.96 194.55 254.18 194.59
  L 255.68 194.64
  A 0.58 0.58 0.0 0 1 256.24 195.24
  L 256.04 200.54
  A 0.59 0.59 0.0 0 0 256.83 201.12
  L 258.72 200.43
  A 0.71 0.70 -19.4 0 0 259.15 199.55
  Q 258.23 196.62 259.29 193.82
  A 0.46 0.46 0.0 0 1 260.05 193.67
  L 260.85 194.50
  Q 261.57 195.25 261.66 194.22
  C 261.94 191.05 262.66 173.47 260.07 172.82
  A 0.50 0.50 0.0 0 0 259.46 173.20
  Q 259.11 174.65 258.04 175.50
  L 258.10 170.64
  A 0.65 0.64 -89.5 0 1 258.74 170.00
  L 266.40 170.00
  A 0.62 0.61 -89.1 0 1 267.01 170.64
  C 266.82 176.78 266.07 188.41 269.44 191.12
  A 0.76 0.74 -40.9 0 0 270.29 191.17
  Q 275.41 188.03 278.61 182.97
  A 0.99 0.97 -40.7 0 0 278.69 182.06
  Q 276.26 176.09 277.13 169.61
  A 0.81 0.81 0.0 0 1 277.80 168.92
  L 289.29 166.91
  A 0.38 0.38 0.0 0 1 289.74 167.31
  Q 288.54 185.73 288.97 189.99
  Q 289.58 196.11 295.07 195.52
  Q 297.89 195.22 299.93 193.26
  L 307.18 186.31
  A 0.56 0.56 0.0 0 1 307.93 186.28
  C 321.01 197.06 327.75 193.06 338.25 182.46
  Z"
/>
<path fill="#d6d6d6" d="
  M 258.04 175.50
  Q 259.11 174.65 259.46 173.20
  A 0.50 0.50 0.0 0 1 260.07 172.82
  C 262.66 173.47 261.94 191.05 261.66 194.22
  Q 261.57 195.25 260.85 194.50
  L 260.05 193.67
  A 0.46 0.46 0.0 0 0 259.29 193.82
  Q 258.23 196.62 259.15 199.55
  A 0.71 0.70 -19.4 0 1 258.72 200.43
  L 256.83 201.12
  A 0.59 0.59 0.0 0 1 256.04 200.54
  L 256.24 195.24
  A 0.58 0.58 0.0 0 0 255.68 194.64
  L 254.18 194.59
  Q 252.96 194.55 253.73 195.49
  L 255.31 197.45
  A 0.83 0.80 -57.6 0 1 255.46 198.18
  Q 254.54 201.38 255.24 204.59
  A 0.40 0.39 -4.9 0 1 254.83 205.07
  L 253.65 204.98
  A 0.60 0.60 0.0 0 0 253.01 205.61
  L 253.24 210.75
  A 0.96 0.95 83.5 0 0 254.36 211.65
  L 258.11 210.94
  Q 258.54 210.86 258.90 210.61
  L 259.23 210.37
  Q 260.13 209.73 260.02 210.83
  L 259.90 212.10
  A 0.65 0.63 6.1 0 1 259.18 212.67
  Q 255.65 212.25 252.19 213.00
  L 203.19 213.00
  Q 203.81 202.62 203.21 192.25
  L 209.42 185.96
  A 0.85 0.84 59.5 0 0 209.63 185.13
  Q 207.51 177.99 206.63 170.60
  A 0.59 0.58 80.7 0 1 207.08 169.96
  L 213.17 168.61
  Q 213.39 168.56 213.29 168.76
  L 211.86 171.74
  Q 211.12 173.27 212.82 173.13
  L 220.41 172.52
  A 0.58 0.58 0.0 0 1 221.04 173.07
  Q 221.62 183.82 224.26 194.28
  A 1.19 1.18 -22.6 0 0 226.02 195.00
  Q 231.30 191.84 234.66 186.72
  A 1.06 1.05 52.0 0 0 234.77 185.78
  Q 232.21 178.98 231.80 171.71
  A 0.63 0.63 0.0 0 1 232.30 171.06
  L 247.40 167.93
  A 0.49 0.49 0.0 0 1 247.99 168.41
  L 248.02 193.55
  Q 248.03 195.90 250.03 194.66
  Q 254.62 191.81 257.71 187.39
  A 1.74 1.68 -28.2 0 0 258.03 186.40
  L 258.04 175.50
  Z"
/>
<path fill="#c7c7c7" d="
  M 390.29 168.25
  L 391.98 168.88
  A 0.84 0.83 -84.2 0 1 392.52 169.55
  C 393.19 174.26 394.76 178.96 394.65 183.74
  Q 394.59 186.26 395.04 188.75
  Q 390.45 189.60 389.75 185.50
  Q 388.93 180.74 390.29 168.25
  Z"
/>
<path fill="#c7c7c7" d="
  M 195.07 171.91
  L 198.95 192.80
  A 1.55 1.54 75.5 0 0 200.95 193.98
  Q 201.90 193.68 203.21 192.25
  Q 203.81 202.62 203.19 213.00
  L 186.19 213.00
  Q 187.36 206.94 186.56 200.70
  Q 186.50 200.19 186.15 200.57
  C 183.62 203.26 184.13 209.27 183.19 213.00
  L 182.87 213.01
  Q 181.71 202.87 185.10 193.25
  C 186.69 191.99 191.23 187.73 190.95 185.54
  A 0.32 0.32 0.0 0 0 190.48 185.30
  L 186.04 187.75
  C 182.74 184.12 183.88 178.01 183.96 173.50
  L 195.07 171.91
  Z"
/>
<path fill="#ffffff" d="
  M 183.96 173.50
  C 183.88 178.01 182.74 184.12 186.04 187.75
  C 176.20 189.87 178.10 180.00 177.98 174.54
  A 0.73 0.73 0.0 0 1 178.67 173.80
  L 183.96 173.50
  Z"
/>
<path fill="#ffffff" d="
  M 352.29 185.00
  L 350.71 187.50
  Q 349.51 187.34 349.27 186.22
  A 0.69 0.67 86.8 0 0 348.70 185.70
  Q 347.50 185.55 346.89 184.44
  Q 345.79 182.42 347.30 180.69
  L 347.74 180.19
  A 0.50 0.50 0.0 0 1 348.50 180.21
  L 352.29 185.00
  Z"
/>
<path fill="#d6d6d6" d="
  M 352.00 193.54
  L 354.77 199.94
  Q 355.17 200.87 354.19 200.64
  L 352.31 200.19
  A 1.34 1.29 -49.6 0 0 351.41 200.28
  Q 348.79 201.49 347.48 198.34
  L 352.00 193.54
  Z"
/>
<path fill="#ffffff" d="
  M 186.19 213.00
  L 183.19 213.00
  C 184.13 209.27 183.62 203.26 186.15 200.57
  Q 186.50 200.19 186.56 200.70
  Q 187.36 206.94 186.19 213.00
  Z"
/>
</svg>
