<?xml version="1.0" encoding="UTF-8" standalone="no"?>
<!-- Created with Inkscape (http://www.inkscape.org/) -->

<svg
   xmlns:dc="http://purl.org/dc/elements/1.1/"
   xmlns:cc="http://creativecommons.org/ns#"
   xmlns:rdf="http://www.w3.org/1999/02/22-rdf-syntax-ns#"
   xmlns:svg="http://www.w3.org/2000/svg"
   xmlns="http://www.w3.org/2000/svg"
   xmlns:sodipodi="http://sodipodi.sourceforge.net/DTD/sodipodi-0.dtd"
   xmlns:inkscape="http://www.inkscape.org/namespaces/inkscape"
   width="400"
   height="600"
   viewBox="0 0 105.83333 158.75"
   version="1.1"
   id="svg8"
   inkscape:version="0.92.4 (5da689c313, 2019-01-14)"
   sodipodi:docname="39_m.svg">
  <defs
     id="defs2" />
  <sodipodi:namedview
     id="base"
     pagecolor="#ffffff"
     bordercolor="#666666"
     borderopacity="1.0"
     inkscape:pageopacity="0.0"
     inkscape:pageshadow="2"
     inkscape:zoom="0.90627519"
     inkscape:cx="288.81417"
     inkscape:cy="318.35247"
     inkscape:document-units="mm"
     inkscape:current-layer="layer1"
     showgrid="false"
     units="px"
     showguides="true"
     inkscape:guide-bbox="true"
     inkscape:window-width="1280"
     inkscape:window-height="968"
     inkscape:window-x="0"
     inkscape:window-y="0"
     inkscape:window-maximized="1">
    <sodipodi:guide
       position="20.78869,60.476191"
       orientation="1,0"
       id="guide859"
       inkscape:locked="false" />
    <sodipodi:guide
       position="20.78869,128.88988"
       orientation="1,0"
       id="guide863"
       inkscape:locked="false" />
    <sodipodi:guide
       position="12.85119,57.641369"
       orientation="1,0"
       id="guide865"
       inkscape:locked="false" />
    <sodipodi:guide
       position="32.339612,108.51143"
       orientation="0,1"
       id="guide867"
       inkscape:locked="false" />
    <sodipodi:guide
       position="-9.0871638,97.553376"
       orientation="0,1"
       id="guide2596"
       inkscape:locked="false" />
    <sodipodi:guide
       position="-16.036171,64.144687"
       orientation="0,1"
       id="guide2598"
       inkscape:locked="false" />
  </sodipodi:namedview>
  <metadata
     id="metadata5">
    <rdf:RDF>
      <cc:Work
         rdf:about="">
        <dc:format>image/svg+xml</dc:format>
        <dc:type
           rdf:resource="http://purl.org/dc/dcmitype/StillImage" />
        <dc:title></dc:title>
      </cc:Work>
    </rdf:RDF>
  </metadata>
  <g
     inkscape:label="Layer 1"
     inkscape:groupmode="layer"
     id="layer1"
     transform="translate(0,-138.24998)">
    <rect
       style="opacity:1;fill:#ffffff;fill-opacity:0.60101007;stroke:#000000;stroke-width:0.27790931;stroke-miterlimit:4;stroke-dasharray:none;stroke-dashoffset:0;stroke-opacity:1"
       id="rect10"
       width="105.4538"
       height="158.75175"
       x="0.17799145"
       y="138.24911"
       ry="7.9375877" />
    <flowRoot
       xml:space="preserve"
       id="flowRoot851"
       style="fill:black;fill-opacity:1;stroke:none;font-family:sans-serif;font-style:normal;font-weight:normal;font-size:40px;line-height:0;letter-spacing:0px;word-spacing:0px"><flowRegion
         id="flowRegion853"><rect
           id="rect855"
           width="114.28571"
           height="65.714287"
           x="47.142857"
           y="194.28572" /></flowRegion><flowPara
         id="flowPara857" /></flowRoot>    <text
       xml:space="preserve"
       style="font-style:normal;font-weight:normal;font-size:33.90801239px;line-height:0;font-family:sans-serif;letter-spacing:0px;word-spacing:0px;fill:#666666;fill-opacity:1;stroke:none;stroke-width:0.84770024"
       x="16.134531"
       y="174.63515"
       id="text827"><tspan
         sodipodi:role="line"
         id="tspan825"
         x="16.134531"
         y="174.63515"
         style="font-style:normal;font-variant:normal;font-weight:bold;font-stretch:normal;font-family:Arsenal;-inkscape-font-specification:'Arsenal Bold';fill:#666666;stroke-width:0.84770024">39</tspan></text>
    <g
       id="g40461"
       transform="matrix(0.20211646,0,0,0.20211646,7.75604,178.77017)">
      <g
         id="g40170"
         style="fill:none;stroke-width:2;stroke-linecap:butt">
        <path
           id="path39934"
           d="m 121.06,0 q -3.47,-0.01 -6.88,0.84 -1.36,0.34 0.04,0.45 4.21,0.33 4.92,4.23 a 1.12,1.1 8.4 0 0 0.6,0.79 q 2.88,1.43 4.05,4.19"
           inkscape:connector-curvature="0"
           style="vector-effect:non-scaling-stroke;stroke:#ebebeb" />
        <path
           id="path39936"
           d="m 123.79,10.5 c -6.54,3.98 -12.66,8.34 -19.38,12.07 C 99.16,25.48 96.93,29.82 92.62,33.4 76.91,46.45 62.84,62.1 54.91,81.2 a 1.67,1.64 -4.3 0 1 -0.68,0.78 q -5.4,3.12 -8.71,8.35 -0.93,1.48 0.78,1.12 l 4.83,-1.02 a 0.33,0.33 0 0 1 0.39,0.39 q -1.91,8.86 -2.45,17.92 c -0.46,7.7 7.77,9.6 13.47,6.3 2.9,-1.68 11.61,-7.95 11.26,-11.63 q -0.06,-0.65 -0.52,-0.17 -5.03,5.34 -11.93,2.47 -1.78,-0.74 -1.73,-2.66 L 59.96,88.3 a 0.81,0.8 81.3 0 1 0.55,-0.75 q 16.09,-5.29 32.9,-7.39 a 0.49,0.49 0 0 1 0.55,0.5 c -0.43,11.31 0.22,21.38 6.1,30.09 a 0.68,0.68 0 0 0 0.91,0.2 q 5.06,-3.07 8.67,-7.76 a 1.45,1.45 0 0 0 0.11,-1.63 q -5.73,-9.77 -5.74,-21.17 a 0.54,0.53 -87.6 0 1 0.58,-0.54 q 3.77,0.31 7.19,1.99 a 0.89,0.88 35.4 0 0 1.03,-0.17 l 7.77,-7.77 q 2.47,-2.47 -0.99,-2.97 -7.11,-1.04 -14.35,-0.89 a 1.48,1.47 -89.6 0 1 -1.51,-1.54 l 1.36,-39.1 q 0.08,-2.39 2.1,-3.68 l 18.06,-11.51"
           inkscape:connector-curvature="0"
           style="vector-effect:non-scaling-stroke;stroke:#828282" />
        <path
           id="path39938"
           d="m 125.25,14.21 q 5.09,4.93 7.76,11.5 c 1.11,2.74 5.32,5.41 6.98,8.48 q 5.55,10.27 10.55,20.81"
           inkscape:connector-curvature="0"
           style="vector-effect:non-scaling-stroke;stroke:#ebebeb" />
        <path
           id="path39940"
           d="m 150.54,55 q -8.05,10.78 -17.22,20.83 -0.34,0.36 -0.33,-0.13 c 0.24,-12.25 2.13,-24.56 1.95,-36.71 a 0.88,0.88 0 0 0 -1.33,-0.75 c -3.5,2.04 -8.95,5.93 -8.91,10.59 q 0.02,3.3 0.02,3.34 -2.35,25.12 -1.48,50.42 0.08,2.42 1.95,3.95 c 2.65,2.17 7.13,-3.55 9.14,-5.3 a 1.12,1.1 27.2 0 1 0.87,-0.27 c 8.45,0.97 14.18,-5.08 19.97,-11.63 q 0.34,-0.38 0.49,0.1 c 2.62,8.09 5.78,13.52 15.72,12.4"
           inkscape:connector-curvature="0"
           style="vector-effect:non-scaling-stroke;stroke:#828282" />
        <path
           id="path39942"
           d="m 171.38,101.84 c 3.7,7.82 4.43,12.02 5.66,21.41"
           inkscape:connector-curvature="0"
           style="vector-effect:non-scaling-stroke;stroke:#e3e3e3" />
        <path
           id="path39944"
           d="m 177.04,123.25 q -1.32,0.63 -2.38,-0.66 -0.32,-0.4 -0.5,0.09 c -0.61,1.72 2.3,5.28 2.73,7.43 q 0.55,2.75 1.61,5.35"
           inkscape:connector-curvature="0"
           style="vector-effect:non-scaling-stroke;stroke:#ebebeb" />
        <path
           id="path39946"
           d="m 178.5,135.46 q -6.36,1.39 -8.04,0.85 -8.65,-2.83 -13.35,-10.73 a 0.68,0.68 0 0 1 0.07,-0.79 l 3.53,-4.05 a 0.34,0.34 0 0 0 -0.19,-0.55 c -7.14,-1.52 -11.78,2.73 -15.99,8.4 a 1.75,1.71 -80.5 0 1 -0.78,0.57 c -7.62,2.67 -14.92,6.65 -18.8,14.07 a 0.26,0.25 36 0 0 0.05,0.29 l 0.2,0.2 a 0.32,0.31 -37.3 0 0 0.38,0.05 c 0.41,-0.23 9.5,-5.35 10.55,-5.02 q 0.6,0.19 0.07,0.54 c -3.51,2.26 -7.87,6.01 -8.11,10.52 -0.3,5.52 0.3,10.23 -1.09,16.19 q -0.23,0.99 0.49,2.21 a 1.53,1.5 32.6 0 1 0.21,0.9 l -0.83,8.88 a 1.58,1.58 0 0 1 -0.34,0.82 c -2.86,3.54 -8.47,8.61 -2.79,13.03 3.72,2.89 11.3,2.03 16.09,1.35 11.53,-1.62 20.42,-4.54 28.03,-13.75 q 1,-1.2 0.78,0.35 -0.9,6.45 -0.61,12.96 0.12,2.78 2.6,4.04 c 6.43,3.26 9.4,-0.12 14.47,-3.54"
           inkscape:connector-curvature="0"
           style="vector-effect:non-scaling-stroke;stroke:#828282" />
        <path
           id="path39948"
           d="m 185.1,193.25 q -3.39,9.62 -2.23,19.76"
           inkscape:connector-curvature="0"
           style="vector-effect:non-scaling-stroke;stroke:#e3e3e3" />
        <path
           id="path39950"
           d="m 62.43,144.12 c -3.01,3.45 -7.84,4.84 -8.13,10.41 q -0.59,10.9 -0.11,23.31 a 2.62,2.6 -17.6 0 1 -1.2,2.3 c -2.57,1.64 -8.51,7.24 -7.45,10.8 1.34,4.48 9,7.77 13.28,8.73 q 6.47,1.44 17.42,-0.46 c 8.96,-1.56 21.87,-11.94 21.74,-21.96 q -0.09,-7.17 -2.34,-15.58 C 92.95,151.6 85.99,154.19 78.2,154.98 q -0.5,0.06 -0.15,-0.31 c 3.67,-3.94 13.6,-15.55 8.68,-21.1 q -1.35,-1.53 -4.28,-1.55 -16.19,-0.12 -26.06,12.67 -0.2,0.26 -0.21,0.51 -0.01,0.26 0.06,0.48 a 0.43,0.42 -21.2 0 0 0.57,0.25 l 5.28,-2.28 q 1.19,-0.51 0.34,0.47"
           inkscape:connector-curvature="0"
           style="vector-effect:non-scaling-stroke;stroke:#828282" />
        <path
           id="path39952"
           d="m 256.56,0 q 2.48,1.07 4.33,3.04 0.35,0.38 0.84,0.57 l 8.89,3.38 a 0.64,0.62 -62.9 0 0 0.75,-0.25 l 0.17,-0.26 a 0.49,0.49 0 0 0 -0.21,-0.72 q -3.65,-1.57 -5.4,-4.97 a 0.47,0.47 0 0 1 0.11,-0.56 L 266.31,0"
           inkscape:connector-curvature="0"
           style="vector-effect:non-scaling-stroke;stroke:#ebebeb" />
        <path
           id="path39954"
           d="m 286.81,0 q 5.73,0.25 9.4,4.54 15.63,18.25 31.32,36.43 4.33,5 9.93,14.03"
           inkscape:connector-curvature="0"
           style="vector-effect:non-scaling-stroke;stroke:#ebebeb" />
        <path
           id="path39956"
           d="m 337.46,55 c -3.54,-2.39 -5.19,-5.95 -9.4,-7.64 a 1.76,1.75 -39 0 0 -0.97,-0.1 l -6.46,1.21 a 1.04,1.03 -26.1 0 1 -0.97,-0.33 q -2.43,-2.79 -5.9,-4.07 a 0.97,0.95 34.3 0 0 -0.95,0.17 l -1.36,1.18 a 0.64,0.63 -38 0 0 -0.11,0.85 q 1.5,2.19 6.12,8.28 c 6.49,8.54 11.71,18.62 17.39,27.59 3.83,6.04 7.84,11.96 10.79,18.51 q 2.41,5.36 3.96,8.15 5.83,10.53 12.4,24.17 c 0.87,1.8 0.78,3.56 1.5,5.03 1.8,3.65 3.35,6.61 4.96,10.83 q 1.86,4.84 4.83,9.17"
           inkscape:connector-curvature="0"
           style="vector-effect:non-scaling-stroke;stroke:#cfcfcf" />
        <path
           id="path39958"
           d="m 373.29,158 -8.45,9.75 q -0.62,0.7 -0.66,-0.23 -0.72,-15.05 -2.46,-30.03 a 0.47,0.46 76 0 0 -0.63,-0.38 c -8.11,3.18 -9.6,8.88 -8.77,17.08 q 1.21,11.76 1.93,23.56 0.28,4.61 -1.96,7.25"
           inkscape:connector-curvature="0"
           style="vector-effect:non-scaling-stroke;stroke:#6e6e6e" />
        <path
           id="path39960"
           d="m 352.29,185 -3.79,-4.79 a 0.5,0.5 0 0 0 -0.76,-0.02 l -0.44,0.5 q -1.51,1.73 -0.41,3.75 0.61,1.11 1.81,1.26 a 0.69,0.67 86.8 0 1 0.57,0.52 q 0.24,1.12 1.44,1.28"
           inkscape:connector-curvature="0"
           style="vector-effect:non-scaling-stroke;stroke:#ebebeb" />
        <path
           id="path39962"
           d="m 350.71,187.5 -4.67,7.25"
           inkscape:connector-curvature="0"
           style="vector-effect:non-scaling-stroke;stroke:#6e6e6e" />
        <path
           id="path39964"
           d="m 346.04,194.75 c -3.44,-2.76 -4.88,-8.13 -7.12,-11.99 a 0.51,0.51 0 0 0 -0.36,-0.25 l -0.31,-0.05"
           inkscape:connector-curvature="0"
           style="vector-effect:non-scaling-stroke;stroke:#ebebeb" />
        <path
           id="path39966"
           d="m 338.25,182.46 q 12.7,-14.33 12.84,-33.13 c 0.1,-13.84 -11.86,-21.77 -24.66,-18.99 -5.6,1.22 -10.61,6.8 -14.14,11.16"
           inkscape:connector-curvature="0"
           style="vector-effect:non-scaling-stroke;stroke:#6e6e6e" />
        <path
           id="path39968"
           d="m 312.29,141.5 q -3.86,-4.76 -8.85,-8.36 a 1.79,1.77 7.7 0 1 -0.62,-0.8 l -0.95,-2.4 a 1.7,1.62 8.7 0 0 -0.54,-0.7 c -0.64,-0.49 -5.3,-5.27 -4.02,-5.94 a 0.46,0.46 0 0 1 0.59,0.14 q 1.98,2.79 5.24,3.78 a 0.36,0.36 0 0 0 0.36,-0.1 l 0.21,-0.21 a 0.36,0.35 -43.1 0 0 0.02,-0.47 l -12.45,-14.69 a 0.81,0.8 -42.1 0 1 0.06,-1.11 l 1.23,-1.16 a 1.22,1.21 -40.5 0 1 1.8,0.14 q 1.28,1.66 2.98,2.9 1.63,1.19 0.73,-0.61 l -0.76,-1.51 a 0.65,0.65 0 0 1 0.25,-0.85 q 0.99,-0.62 2.25,-0.27 0.65,0.18 0.16,-0.28 l -3.44,-3.23 q -0.81,-0.76 -0.8,0.35 l 0.02,1.39 q 0.02,0.96 -0.38,0.09 -0.66,-1.46 -2.09,-1.6"
           inkscape:connector-curvature="0"
           style="vector-effect:non-scaling-stroke;stroke:#ebebeb" />
        <path
           id="path39970"
           d="m 293.29,106 q -1.27,-3.24 -3.1,-6.2 C 281.25,85.3 279.38,65.46 278.71,48.92 q -0.08,-1.91 1.24,-3.29 l 4.62,-4.81 q 0.95,-0.99 -0.42,-1.06 -1.14,-0.05 -2.88,1.26 C 269.6,49.84 260.78,60.05 251.79,73.5"
           inkscape:connector-curvature="0"
           style="vector-effect:non-scaling-stroke;stroke:#6e6e6e" />
        <path
           id="path39972"
           d="m 251.79,73.5 c -4.72,-1.92 -7.53,-4.87 -13.01,-6.11 q -0.58,-0.14 -0.28,0.38 l 2.14,3.73 a 0.91,0.91 0 0 0 0.69,0.45 q 2.65,0.24 2.41,2.97 a 1.4,1.39 -88.4 0 1 -1.34,1.27 l -1.72,0.06 a 0.71,0.7 84.9 0 0 -0.67,0.81 l 0.43,3.03 a 0.68,0.67 76.6 0 1 -0.45,0.74 l -1.96,0.68 a 0.78,0.78 0 0 0 -0.53,0.75 v 3.81 a 1.27,1.27 0 0 0 0.36,0.86 q 0.76,0.76 1.89,0.86"
           inkscape:connector-curvature="0"
           style="vector-effect:non-scaling-stroke;stroke:#ebebeb" />
        <path
           id="path39974"
           d="m 239.75,87.79 q -0.96,0.98 -0.8,2.28 a 0.8,0.79 1.5 0 0 0.66,0.69 l 1.5,0.24 a 1.27,1.26 16.3 0 1 0.96,1.75 c -2.4,5.56 -6.94,18.14 3.18,19.29"
           inkscape:connector-curvature="0"
           style="vector-effect:non-scaling-stroke;stroke:#6e6e6e" />
        <path
           id="path39976"
           d="m 245.25,112.04 -0.17,1.55 a 0.77,0.76 -73.2 0 0 0.4,0.75 c 4.89,2.6 2.83,5.42 4.07,9.39 q 1.87,5.98 3.02,12.21"
           inkscape:connector-curvature="0"
           style="vector-effect:non-scaling-stroke;stroke:#ebebeb" />
        <path
           id="path39978"
           d="m 252.57,135.94 q -1.81,1.7 -3.41,4.24 c -2.18,3.46 -1.19,13.05 -1.2,17.32"
           inkscape:connector-curvature="0"
           style="vector-effect:non-scaling-stroke;stroke:#6e6e6e" />
        <path
           id="path39980"
           d="m 247.96,157.5 q -0.63,-0.03 -1.16,-0.35 a 0.91,0.89 -75 0 1 -0.44,-0.78 q 0.03,-10.1 -1.07,-20.13 -0.3,-2.7 -1.81,-8.43 c -0.24,-0.89 -1.67,-9.06 -1.74,-9.11 q -0.52,-0.4 -0.56,0.25 -0.26,3.56 -2.92,6 a 0.78,0.77 63.9 0 0 -0.24,0.72 l 1.03,5.24 q 0.09,0.49 0.4,0.89 l 0.89,1.16 a 0.41,0.41 0 0 0 0.7,-0.08 c 0.19,-0.42 -1.64,-4.99 -1.89,-5.79 a 0.98,0.97 -33 0 1 0.2,-0.93 l 0.62,-0.73 q 0.54,-0.63 0.8,0.16 l 1.49,4.53 a 1.81,1.76 12.4 0 0 0.51,0.77 q 1.6,1.41 1.18,3.61 a 0.89,0.89 0 0 1 -0.81,0.72 l -0.45,0.03 a 0.66,0.65 -87.9 0 0 -0.61,0.57 l -0.33,2.51 a 0.48,0.47 -88.5 0 0 0.51,0.54 l 1.25,-0.09 a 0.46,0.46 0 0 1 0.5,0.44 q 0.05,1.53 -1.44,2.02 a 0.62,0.62 0 0 0 -0.35,0.88 l 0.95,1.76 q 0.21,0.39 0.24,0.82 0.48,6.45 1.64,12.71 0.46,2.48 2.66,2.09"
           inkscape:connector-curvature="0"
           style="vector-effect:non-scaling-stroke;stroke:#ebebeb" />
        <path
           id="path39982"
           d="m 247.71,159.5 q -7.87,2.33 -16.24,2.38 a 0.54,0.54 0 0 1 -0.54,-0.53 l -0.61,-25.22 a 1.21,1.21 0 0 0 -1.71,-1.07 q -4.35,1.99 -7.08,6.88 c -2.1,3.76 -1.11,11.98 -1.16,16.37 a 0.65,0.64 -7.7 0 1 -0.48,0.62 q -7.34,1.94 -14.64,2.78"
           inkscape:connector-curvature="0"
           style="vector-effect:non-scaling-stroke;stroke:#6e6e6e" />
        <path
           id="path39984"
           d="m 205.25,161.71 -2.46,-20.31 a 0.55,0.55 0 0 0 -0.84,-0.4 l -2.67,1.62"
           inkscape:connector-curvature="0"
           style="vector-effect:non-scaling-stroke;stroke:#6e6e6e" />
        <path
           id="path39986"
           d="m 199.28,142.62 q -0.43,-1.21 -0.84,-2.28 c -0.68,-1.78 -0.59,-3.92 -0.94,-5.8"
           inkscape:connector-curvature="0"
           style="vector-effect:non-scaling-stroke;stroke:#cfcfcf" />
        <path
           id="path39988"
           d="m 197.5,134.54 7.54,-7.34 q 1.5,-1.46 -0.59,-1.27 c -7.1,0.66 -19.28,16.19 -22.92,22.11"
           inkscape:connector-curvature="0"
           style="vector-effect:non-scaling-stroke;stroke:#6e6e6e" />
        <path
           id="path39990"
           d="m 181.53,148.04 0.78,-7.25 a 0.95,0.94 -67.9 0 0 -0.35,-0.83 q -0.49,-0.4 -1.21,-0.25"
           inkscape:connector-curvature="0"
           style="vector-effect:non-scaling-stroke;stroke:#ebebeb" />
        <path
           id="path39992"
           d="m 180.75,139.71 q 4.88,-4.23 10.41,-11.8 c 5.6,-7.67 4.65,-14.23 4.96,-22.63 a 0.9,0.89 77.4 0 1 0.48,-0.76 q 7.97,-4.12 13.36,-11.31 0.86,-1.13 -0.56,-1.22 c -1.49,-0.08 -4.22,3.15 -7.75,2.96 a 0.59,0.59 0 0 1 -0.56,-0.52 q -0.35,-2.72 0.16,-4.66 5.37,-20.54 26.81,-29.27 1.63,-0.66 0.92,0.95 c -5.58,12.63 -9.74,25.66 -10.72,39.76 -1.23,17.62 18.89,2.76 17.88,-1.33 a 0.54,0.53 76.5 0 0 -0.63,-0.39 q -4.36,0.98 -7.01,-2.31 a 1.59,1.57 -64 0 1 -0.36,-1.06 q 0.73,-20.09 9.07,-38.32 a 1.08,1.06 -82 0 1 0.8,-0.61 l 2.16,-0.36 a 1.64,1.59 -70.9 0 0 0.87,-0.44 L 249,48.54 q 1.15,-1.13 -0.42,-1.46 -1.02,-0.21 -2.3,0.08 c -20.65,4.67 -39.26,20.58 -49.75,38.52 q -0.43,0.73 -0.5,-0.11 c -0.5,-6.09 -0.41,-11.06 1.49,-17.29 q 2.84,-9.33 3.61,-21.04 a 3.55,3.54 24.8 0 0 -1,-2.7 c -3.03,-3.12 -9.95,3.93 -11.72,6.8 q -1.43,2.32 -1.71,6.13 -0.97,13.04 -1.3,26.13"
           inkscape:connector-curvature="0"
           style="vector-effect:non-scaling-stroke;stroke:#6e6e6e" />
        <path
           id="path39994"
           d="m 185.4,83.6 q -2.61,0.76 -2.95,-0.55 c -1.95,-7.44 -5.74,-14.83 -8.17,-21.34 -1.12,-2.98 -2.79,-5.41 -4.52,-7.99 -2.23,-3.3 -3.42,-7.26 -5.8,-10.72"
           inkscape:connector-curvature="0"
           style="vector-effect:non-scaling-stroke;stroke:#cfcfcf" />
        <path
           id="path39996"
           d="m 163.96,43 2.12,-3.35 q 1.2,-1.89 -0.78,-0.83 l -1.8,0.97"
           inkscape:connector-curvature="0"
           style="vector-effect:non-scaling-stroke;stroke:#6e6e6e" />
        <path
           id="path39998"
           d="m 163.5,39.79 -0.44,-0.28 q -0.31,-0.21 -0.51,-0.52 -8.17,-13.32 -17.3,-26.03 C 142.62,9.3 138.7,5.33 135.85,1.01 a 0.65,0.65 0 0 0 -0.84,-0.22 l -2.05,1.06 a 2.01,1.98 -56.8 0 1 -0.97,0.21 l -1.43,-0.07 a 0.52,0.51 -85.1 0 0 -0.53,0.45 q -0.33,2.72 1.25,4.9 a 1.14,1.12 -55.1 0 1 0.17,0.99 l -0.66,2.24 a 1.29,1.27 -50.6 0 0 0.09,0.96 c 1.61,3.11 3.83,6.06 5.31,9 q 5.66,11.31 12.03,22.22 c 1.66,2.84 2.91,6.22 4.57,9.25"
           inkscape:connector-curvature="0"
           style="vector-effect:non-scaling-stroke;stroke:#cfcfcf" />
        <path
           id="path40000"
           d="m 152.79,52 -2.25,3"
           inkscape:connector-curvature="0"
           style="vector-effect:non-scaling-stroke;stroke:#6e6e6e" />
        <path
           id="path40002"
           d="m 125.25,14.21 q 2.63,-1.88 3.34,-4.92 0.13,-0.57 -0.42,-0.37 l -4.38,1.58"
           inkscape:connector-curvature="0"
           style="vector-effect:non-scaling-stroke;stroke:#6e6e6e" />
        <path
           id="path40004"
           d="m 309.6821,121.3733 a 0.26,0.26 0 0 0 -0.3623,-0.0625 l -0.4413,0.3112 a 0.26,0.26 0 0 0 -0.0625,0.3624 l 6.8019,9.6423 a 0.26,0.26 0 0 0 0.3623,0.0625 l 0.4413,-0.3112 a 0.26,0.26 0 0 0 0.0625,-0.3624 l -6.8019,-9.6423"
           inkscape:connector-curvature="0"
           style="vector-effect:non-scaling-stroke;stroke:#ebebeb" />
        <path
           id="path40006"
           d="m 241.24,137.22 q 0.14,-0.46 -0.26,-0.98 -0.58,-0.77 -0.83,0.17 -0.27,1.02 -0.14,2.06 a 0.34,0.33 87.7 0 0 0.3,0.29 c 0.55,0.06 0.65,-0.38 0.72,-0.8 q 0.01,-0.03 0.21,-0.74"
           inkscape:connector-curvature="0"
           style="vector-effect:non-scaling-stroke;stroke:#ebebeb" />
        <path
           id="path40008"
           d="m 431.94,213 q 1.91,0.02 3.68,-0.77 a 0.48,0.48 0 0 0 0.23,-0.66 q -5.77,-11.42 -10.85,-23.16 -1.06,-2.43 -3.11,-4.97 c -5.9,-7.31 -9.04,-16.8 -11.71,-25.71 a 1.86,1.81 12.9 0 0 -0.53,-0.82 c -1.87,-1.64 -7.7,-5.89 -10.77,-4.58 a 0.86,0.85 -37.2 0 1 -0.85,-0.11 c -1.32,-0.98 -3.1,-4.53 -4.49,-4.22"
           inkscape:connector-curvature="0"
           style="vector-effect:non-scaling-stroke;stroke:#ebebeb" />
        <path
           id="path40010"
           d="m 393.54,148 q 0.22,-4.07 3.33,-6.5 a 0.55,0.55 0 0 0 -0.02,-0.89 l -1.83,-1.29 a 0.32,0.31 -48.8 0 1 -0.03,-0.48 q 0.91,-0.86 0.76,-2.06 a 0.57,0.56 86.6 0 0 -0.56,-0.5 q -1.02,0 -1.76,0.4"
           inkscape:connector-curvature="0"
           style="vector-effect:non-scaling-stroke;stroke:#828282" />
        <path
           id="path40012"
           d="m 393.43,136.68 q -2.6,-3.92 -5.36,-7.7 c -2.01,-2.76 -10.5,-16.1 -9.68,-18.77 a 0.51,0.5 -63.7 0 1 0.78,-0.27 c 4.77,3.41 7.03,8.97 10.98,13.38 q 0.94,1.05 0.24,-0.18 -4.42,-7.7 -9.78,-14.75 a 0.94,0.94 0 0 0 -1.61,0.2 q -0.5,1.15 -1.79,0.16"
           inkscape:connector-curvature="0"
           style="vector-effect:non-scaling-stroke;stroke:#ebebeb" />
        <path
           id="path40014"
           d="m 377.21,108.75 c 5.12,-4.79 10.47,-10.36 17.89,-10.97 a 1.56,1.55 -69.8 0 0 0.96,-0.45 l 7.96,-8.11 a 0.5,0.5 0 0 0 -0.21,-0.83 C 396.95,86.2 379.76,102.58 375,107.04"
           inkscape:connector-curvature="0"
           style="vector-effect:non-scaling-stroke;stroke:#828282" />
        <path
           id="path40016"
           d="m 375,107.04 q -4.4,-2.33 -4.68,-7.43 -0.05,-0.87 0.54,-0.23 l 1.36,1.48 a 0.34,0.34 0 0 0 0.56,-0.08 c 1.36,-2.7 -22.94,-30.45 -25.99,-34.03"
           inkscape:connector-curvature="0"
           style="vector-effect:non-scaling-stroke;stroke:#ebebeb" />
        <path
           id="path40018"
           d="M 346.79,66.75 337.46,55"
           inkscape:connector-curvature="0"
           style="vector-effect:non-scaling-stroke;stroke:#e3e3e3" />
        <path
           id="path40020"
           d="M 163.5,39.79 Q 157.37,45.2 152.79,52"
           inkscape:connector-curvature="0"
           style="vector-effect:non-scaling-stroke;stroke:#666666" />
        <path
           id="path40022"
           d="m 154.0167,37.6454 a 3.49,0.51 61.1 0 0 -1.2402,-3.3019 3.49,0.51 61.1 0 0 -2.1332,-2.8089 3.49,0.51 61.1 0 0 1.2402,3.3019 3.49,0.51 61.1 0 0 2.1332,2.8089"
           inkscape:connector-curvature="0"
           style="vector-effect:non-scaling-stroke;stroke:#cfcfcf" />
        <path
           id="path40024"
           d="M 83.31,45.8 C 72.94,55.89 67.56,66.22 62.23,79.47 q -0.18,0.46 0.29,0.3 15.08,-5.17 30.75,-8.12 a 0.61,0.6 85.8 0 0 0.49,-0.57 L 95.1,35.18 Q 95.12,34.62 94.71,35 88.92,40.35 83.31,45.8"
           inkscape:connector-curvature="0"
           style="vector-effect:non-scaling-stroke;stroke:#828282" />
        <path
           id="path40026"
           d="m 163.96,43 -9.91,13.22"
           inkscape:connector-curvature="0"
           style="vector-effect:non-scaling-stroke;stroke:#666666" />
        <path
           id="path40028"
           d="m 154.05,56.22 q -9.39,11.5 -12.38,14.69 c -4.71,5.02 -7.64,13.19 -0.9,18.04 q 4.07,2.92 9.04,1.73 a 1.53,1.49 -75.6 0 0 0.82,-0.5 q 5.44,-6.55 6.34,-14.9 c 0.52,-4.76 3.75,-8.23 7.57,-10.78"
           inkscape:connector-curvature="0"
           style="vector-effect:non-scaling-stroke;stroke:#828282" />
        <path
           id="path40030"
           d="m 164.54,64.5 q 1.24,-1.31 2.92,-1.31 a 0.53,0.52 -0.6 0 1 0.53,0.51 c 0.15,3.97 -2.57,8.22 -1.74,11.43"
           inkscape:connector-curvature="0"
           style="vector-effect:non-scaling-stroke;stroke:#666666" />
        <path
           id="path40032"
           d="m 166.25,75.13 c -1.07,5 0.18,12.28 5.32,14.87"
           inkscape:connector-curvature="0"
           style="vector-effect:non-scaling-stroke;stroke:#6e6e6e" />
        <path
           id="path40034"
           d="m 171.57,90 q 2.71,1.94 5.87,1.99 2.48,0.04 3.83,-2.03 l 4.13,-6.36"
           inkscape:connector-curvature="0"
           style="vector-effect:non-scaling-stroke;stroke:#666666" />
        <path
           id="path40036"
           d="m 180.75,139.71 q -10.04,8.46 -23.12,5.73 a 0.8,0.8 0 0 0 -0.85,0.36 l -1.56,2.48 q -0.44,0.7 0.39,0.64 6.49,-0.51 8.1,0.36 7.38,3.99 9.89,11.69 0.48,1.46 1.08,0.05 2.92,-6.85 6.85,-12.98"
           inkscape:connector-curvature="0"
           style="vector-effect:non-scaling-stroke;stroke:#828282" />
        <path
           id="path40038"
           d="m 197.5,134.54 c -6.05,3.38 -10.72,12.63 -12.92,18.9"
           inkscape:connector-curvature="0"
           style="vector-effect:non-scaling-stroke;stroke:#666666" />
        <path
           id="path40040"
           d="m 184.58,153.44 q -2.66,5.06 -3.91,10.51 a 0.36,0.36 0 0 0 0.39,0.44 l 4.94,-0.43"
           inkscape:connector-curvature="0"
           style="vector-effect:non-scaling-stroke;stroke:#828282" />
        <path
           id="path40042"
           d="m 186,163.96 q 3.71,0.24 7.61,-0.85 a 0.75,0.75 0 0 0 0.55,-0.82 l -1.38,-10.65 q -0.06,-0.51 0.13,-0.99 2.02,-5 6.37,-8.03"
           inkscape:connector-curvature="0"
           style="vector-effect:non-scaling-stroke;stroke:#666666" />
        <path
           id="path40044"
           d="m 205.25,161.71 q -2.17,-0.13 -4.19,0.41 c -2.41,0.63 -3.9,0.7 -6.1,0.83 a 0.8,0.79 85.2 0 0 -0.74,0.88 l 0.85,8.08"
           inkscape:connector-curvature="0"
           style="vector-effect:non-scaling-stroke;stroke:#050505" />
        <path
           id="path40046"
           d="m 195.07,171.91 -11.11,1.59"
           inkscape:connector-curvature="0"
           style="vector-effect:non-scaling-stroke;stroke:#666666" />
        <path
           id="path40048"
           d="m 183.96,173.5 -5.29,0.3 a 0.73,0.73 0 0 0 -0.69,0.74 c 0.12,5.46 -1.78,15.33 8.06,13.21"
           inkscape:connector-curvature="0"
           style="vector-effect:non-scaling-stroke;stroke:#828282" />
        <path
           id="path40050"
           d="m 186.04,187.75 4.44,-2.45 a 0.32,0.32 0 0 1 0.47,0.24 c 0.28,2.19 -4.26,6.45 -5.85,7.71"
           inkscape:connector-curvature="0"
           style="vector-effect:non-scaling-stroke;stroke:#666666" />
        <path
           id="path40052"
           d="m 178.5,135.46 q 2.22,-0.39 3.79,-1.96"
           inkscape:connector-curvature="0"
           style="vector-effect:non-scaling-stroke;stroke:#6e6e6e" />
        <path
           id="path40054"
           d="m 182.29,133.5 c 3.07,-2.99 3.47,-7.97 3.52,-12 q 0.2,-15.72 0.18,-31.05 0,-1.05 -0.71,-0.27 c -4.27,4.67 -8.14,8.86 -13.9,11.66"
           inkscape:connector-curvature="0"
           style="vector-effect:non-scaling-stroke;stroke:#666666" />
        <path
           id="path40056"
           d="m 145.78,137.95 -7.27,-0.02 a 0.62,0.62 0 0 0 -0.62,0.62 l 0.15,13.93 a 0.32,0.32 0 0 0 0.47,0.28 q 4.2,-2.25 8.94,-2.89 a 0.58,0.57 88.2 0 0 0.5,-0.54 q 0.38,-5.38 -1.08,-10.55 a 1.13,1.13 0 0 0 -1.09,-0.83"
           inkscape:connector-curvature="0"
           style="vector-effect:non-scaling-stroke;stroke:#828282" />
        <path
           id="path40058"
           d="m 144.04,169.42 c 0.2,1.12 -5.44,6.48 -6.5,7.72 a 1.72,1.71 -24.4 0 0 -0.39,1.03 q -0.07,2.03 -1.4,3.63 -1.72,2.08 0.97,2.17 c 7.74,0.27 19.98,-0.54 26.68,-4.75 a 1.12,1.11 -11.9 0 0 0.5,-0.76 c 1.07,-7.24 -2.11,-16.97 -9.81,-19.14 q -2.79,-0.78 -6.26,-0.42 -1.67,0.18 -3.01,1.19 l -7.47,5.63 a 0.94,0.93 -19.2 0 0 -0.38,0.77 l 0.1,4.11 a 0.55,0.54 79 0 0 0.73,0.5 l 5.49,-2.1 a 0.56,0.55 -15.1 0 1 0.75,0.42"
           inkscape:connector-curvature="0"
           style="vector-effect:non-scaling-stroke;stroke:#828282" />
        <path
           id="path40060"
           d="m 293.29,106 q -3.45,5.3 -8.8,8.68 a 0.55,0.54 -33.5 0 1 -0.72,-0.14 q -5.91,-7.9 -9.32,-16.97"
           inkscape:connector-curvature="0"
           style="vector-effect:non-scaling-stroke;stroke:#828282" />
        <path
           id="path40062"
           d="m 274.45,97.57 -2.34,-8.76 a 0.7,0.7 0 0 0 -0.65,-0.52 q -3.83,-0.14 -7.88,0.83"
           inkscape:connector-curvature="0"
           style="vector-effect:non-scaling-stroke;stroke:#6e6e6e" />
        <path
           id="path40064"
           d="M 263.58,89.12 Q 257.3,89 250.77,90.14 a 0.9,0.89 5.2 0 0 -0.68,0.56 c -2.39,6.1 -1.63,12.33 6.58,10.94 q 1.88,-0.31 3.82,-0.54 0.5,-0.06 0.19,0.35 c -3.59,4.75 -9.05,10.51 -15.43,10.59"
           inkscape:connector-curvature="0"
           style="vector-effect:non-scaling-stroke;stroke:#828282" />
        <path
           id="path40066"
           d="m 239.75,87.79 c 3.1,-3.16 6.95,-5.66 9.22,-9.42 q 1.46,-2.41 2.82,-4.87"
           inkscape:connector-curvature="0"
           style="vector-effect:non-scaling-stroke;stroke:#828282" />
        <path
           id="path40068"
           d="m 255.29,76.75 -1.69,2.94 q -0.24,0.42 0.24,0.39 L 260,79.71"
           inkscape:connector-curvature="0"
           style="vector-effect:non-scaling-stroke;stroke:#828282" />
        <path
           id="path40070"
           d="M 260,79.71 269.89,79 a 0.39,0.39 0 0 0 0.36,-0.42 l -1.61,-21.35 q -0.06,-0.76 -0.53,-0.17 -7.33,9.29 -12.82,19.69"
           inkscape:connector-curvature="0"
           style="vector-effect:non-scaling-stroke;stroke:#6e6e6e" />
        <path
           id="path40072"
           d="m 260,79.71 -0.03,-0.45 a 0.75,0.74 9.9 0 0 -0.45,-0.63 l -4.23,-1.88"
           inkscape:connector-curvature="0"
           style="vector-effect:non-scaling-stroke;stroke:#ebebeb" />
        <path
           id="path40074"
           d="M 171.57,90 166.25,75.13"
           inkscape:connector-curvature="0"
           style="vector-effect:non-scaling-stroke;stroke:#cfcfcf" />
        <path
           id="path40076"
           d="m 164.54,64.5 q -0.73,-3.35 -4.14,-2 a 0.84,0.83 54.3 0 1 -0.84,-0.14 q -3.18,-2.66 -5.51,-6.14"
           inkscape:connector-curvature="0"
           style="vector-effect:non-scaling-stroke;stroke:#e3e3e3" />
        <path
           id="path40078"
           d="m 346.79,66.75 c 1.26,2.3 1.61,4.74 2.94,6.85 q 11.34,17.92 20.65,36.98 a 0.77,0.77 0 0 0 0.69,0.43 l 0.39,-0.01"
           inkscape:connector-curvature="0"
           style="vector-effect:non-scaling-stroke;stroke:#cfcfcf" />
        <path
           id="path40080"
           d="m 371.46,111 q -2.14,1.52 -0.54,3.18"
           inkscape:connector-curvature="0"
           style="vector-effect:non-scaling-stroke;stroke:#666666" />
        <path
           id="path40082"
           d="m 370.92,114.18 0.14,0.75 q 0.09,0.48 0.36,0.88 c 2.24,3.32 4.33,5.77 5.65,9.75 q 1.6,4.8 3.83,9.34 c 0.98,1.98 2.79,10.5 5.06,10.1"
           inkscape:connector-curvature="0"
           style="vector-effect:non-scaling-stroke;stroke:#cfcfcf" />
        <path
           id="path40084"
           d="m 385.96,145 c 0.06,1.72 -1.02,1.83 -1.94,2.71 q -5.36,5.15 -10.73,10.29"
           inkscape:connector-curvature="0"
           style="vector-effect:non-scaling-stroke;stroke:#666666" />
        <path
           id="path40086"
           d="M 375,107.04 371.46,111"
           inkscape:connector-curvature="0"
           style="vector-effect:non-scaling-stroke;stroke:#6e6e6e" />
        <path
           id="path40088"
           d="m 377.21,108.75 -6.29,5.43"
           inkscape:connector-curvature="0"
           style="vector-effect:non-scaling-stroke;stroke:#6e6e6e" />
        <path
           id="path40090"
           d="m 274.45,97.57 q -5.88,-3.63 -10.87,-8.45"
           inkscape:connector-curvature="0"
           style="vector-effect:non-scaling-stroke;stroke:#ebebeb" />
        <path
           id="path40092"
           d="m 312.29,141.5 q -3.67,5.19 -5.56,11.19 a 1.05,1.03 -5 0 1 -0.54,0.63 l -5.38,2.52 q -0.53,0.24 -0.43,-0.33 1.93,-11.01 1.57,-22.19 a 0.47,0.47 0 0 0 -0.66,-0.41 c -11.39,4.99 -9.28,13.53 -9.91,23.71 q -0.13,2.14 -2.27,2.3 l -11.67,0.86 A 0.41,0.4 -2 0 1 277,159.38 V 135.7 a 0.76,0.75 -12.4 0 0 -1.07,-0.68 q -5.11,2.35 -7.85,7.41 c -1.71,3.14 -1.04,7.21 -1.12,10.77 a 0.88,0.87 -10.9 0 1 -0.54,0.79 l -7.51,3.02 A 0.66,0.66 0 0 1 258,156.4 v -22.81 a 0.42,0.42 0 0 0 -0.5,-0.41 q -2.49,0.46 -4.93,2.76"
           inkscape:connector-curvature="0"
           style="vector-effect:non-scaling-stroke;stroke:#828282" />
        <path
           id="path40094"
           d="m 182.29,133.5 q -0.77,-1.45 -1.45,-2.94 c -1.25,-2.75 -3.29,-3.86 -3.8,-7.31"
           inkscape:connector-curvature="0"
           style="vector-effect:non-scaling-stroke;stroke:#cfcfcf" />
        <path
           id="path40096"
           d="m 393.43,136.68 c -2.49,1.71 -7.06,5.36 -7.47,8.32"
           inkscape:connector-curvature="0"
           style="vector-effect:non-scaling-stroke;stroke:#6e6e6e" />
        <path
           id="path40098"
           d="m 247.96,157.5 -0.25,2"
           inkscape:connector-curvature="0"
           style="vector-effect:non-scaling-stroke;stroke:#828282" />
        <path
           id="path40100"
           d="m 338.25,182.46 c -10.5,10.6 -17.24,14.6 -30.32,3.82 a 0.56,0.56 0 0 0 -0.75,0.03 l -7.25,6.95 q -2.04,1.96 -4.86,2.26 -5.49,0.59 -6.1,-5.53 -0.43,-4.26 0.77,-22.68 a 0.38,0.38 0 0 0 -0.45,-0.4 l -11.49,2.01 a 0.81,0.81 0 0 0 -0.67,0.69 q -0.87,6.48 1.56,12.45 a 0.99,0.97 -40.7 0 1 -0.08,0.91 q -3.2,5.06 -8.32,8.2 a 0.76,0.74 -40.9 0 1 -0.85,-0.05 c -3.37,-2.71 -2.62,-14.34 -2.43,-20.48 A 0.62,0.61 -89.1 0 0 266.4,170 h -7.66 a 0.65,0.64 -89.5 0 0 -0.64,0.64 l -0.06,4.86"
           inkscape:connector-curvature="0"
           style="vector-effect:non-scaling-stroke;stroke:#828282" />
        <path
           id="path40102"
           d="m 258.04,175.5 -0.01,10.9 a 1.74,1.68 -28.2 0 1 -0.32,0.99 q -3.09,4.42 -7.68,7.27 -2,1.24 -2.01,-1.11 l -0.03,-25.14 a 0.49,0.49 0 0 0 -0.59,-0.48 l -15.1,3.13 a 0.63,0.63 0 0 0 -0.5,0.65 q 0.41,7.27 2.97,14.07 a 1.06,1.05 52 0 1 -0.11,0.94 q -3.36,5.12 -8.64,8.28 a 1.19,1.18 -22.6 0 1 -1.76,-0.72 q -2.64,-10.46 -3.22,-21.21 a 0.58,0.58 0 0 0 -0.63,-0.55 l -7.59,0.61 q -1.7,0.14 -0.96,-1.39 l 1.43,-2.98 q 0.1,-0.2 -0.12,-0.15 l -6.09,1.35 a 0.59,0.58 80.7 0 0 -0.45,0.64 q 0.88,7.39 3,14.53 a 0.85,0.84 59.5 0 1 -0.21,0.83 l -6.21,6.29"
           inkscape:connector-curvature="0"
           style="vector-effect:non-scaling-stroke;stroke:#6e6e6e" />
        <path
           id="path40104"
           d="m 203.21,192.25 q -1.31,1.43 -2.26,1.73 a 1.55,1.54 75.5 0 1 -2,-1.18 l -3.88,-20.89"
           inkscape:connector-curvature="0"
           style="vector-effect:non-scaling-stroke;stroke:#666666" />
        <path
           id="path40106"
           d="m 318.63,140.23 q -1.37,1.65 -1.55,3.6"
           inkscape:connector-curvature="0"
           style="vector-effect:non-scaling-stroke;stroke:#828282" />
        <path
           id="path40108"
           d="m 317.08,143.83 -1.04,3.67"
           inkscape:connector-curvature="0"
           style="vector-effect:non-scaling-stroke;stroke:#6e6e6e" />
        <path
           id="path40110"
           d="m 316.04,147.5 c -2.11,10.31 -5.08,28.46 11.15,29.32 q 1.21,0.06 0.53,1.07 l -2.24,3.29 a 0.44,0.43 -64.5 0 0 0.23,0.66 c 2.72,0.81 6.46,1.77 8.77,-0.34 q 1.9,-1.74 1.83,-4.14"
           inkscape:connector-curvature="0"
           style="vector-effect:non-scaling-stroke;stroke:#828282" />
        <path
           id="path40112"
           d="m 336.31,177.36 c 7.02,-13.48 8.98,-32.56 -10.06,-36.82"
           inkscape:connector-curvature="0"
           style="vector-effect:non-scaling-stroke;stroke:#6e6e6e" />
        <path
           id="path40114"
           d="m 326.25,140.54 -3.5,-0.5"
           inkscape:connector-curvature="0"
           style="vector-effect:non-scaling-stroke;stroke:#828282" />
        <path
           id="path40116"
           d="m 322.75,140.04 q -1.91,-0.66 -4.12,0.19"
           inkscape:connector-curvature="0"
           style="vector-effect:non-scaling-stroke;stroke:#6e6e6e" />
        <path
           id="path40118"
           d="m 322.75,140.04 q -0.1,3.47 2.95,4.72 a 0.33,0.33 0 0 0 0.45,-0.3 l 0.1,-3.92"
           inkscape:connector-curvature="0"
           style="vector-effect:non-scaling-stroke;stroke:#ebebeb" />
        <path
           id="path40120"
           d="m 336.31,177.36 q -5.97,-10.1 -11.6,-20.32 c -1.99,-3.63 -6.01,-6.1 -8.67,-9.54"
           inkscape:connector-curvature="0"
           style="vector-effect:non-scaling-stroke;stroke:#ebebeb" />
        <path
           id="path40122"
           d="m 317.08,143.83 q 3.88,3.16 7.03,7.06 c 0.11,0.14 0.52,0.17 0.65,0.1 a 0.52,0.52 0 0 0 0.2,-0.74 l -6.33,-10.02"
           inkscape:connector-curvature="0"
           style="vector-effect:non-scaling-stroke;stroke:#ebebeb" />
        <path
           id="path40124"
           d="m 300.55,160.26 a 4.31,4.29 -20 0 0 -1.14,2.43 q -1.08,9.04 -0.29,17.56 c 0.2,2.06 -0.02,3.63 2.37,4.41 a 0.64,0.64 0 0 0 0.75,-0.29 c 3.27,-5.78 -2.66,-13.51 0.97,-20.19 q 2.28,-4.17 2.85,-9 0.1,-0.83 -0.47,-0.22 l -5.04,5.3"
           inkscape:connector-curvature="0"
           style="vector-effect:non-scaling-stroke;stroke:#828282" />
        <path
           id="path40126"
           d="m 257.78,164.66 a 0.58,0.57 -53.8 0 0 0.14,0.92 l 0.23,0.12 a 0.6,0.6 0 0 0 0.74,-0.13 q 3.27,-3.7 7.64,-5.92 a 1.03,1.02 76.1 0 0 0.56,-0.93 l -0.01,-1.94 q -0.01,-1.22 -0.88,-0.37 l -8.42,8.25"
           inkscape:connector-curvature="0"
           style="vector-effect:non-scaling-stroke;stroke:#828282" />
        <path
           id="path40128"
           d="m 63.45,143.81 a 0.81,0.8 9.7 0 1 0.54,0.76 l 0.01,15.9 a 0.34,0.34 0 0 0 0.47,0.31 c 7.14,-2.99 16.09,-9.12 12.39,-18.27 a 0.78,0.77 79.8 0 0 -0.68,-0.48 q -6.59,-0.36 -12.99,1.31 -0.66,0.17 -0.01,0.38 l 0.27,0.09"
           inkscape:connector-curvature="0"
           style="vector-effect:non-scaling-stroke;stroke:#828282" />
        <path
           id="path40130"
           d="m 82.01,164.89 a 3.24,3.21 68.2 0 0 -1.89,-0.82 q -7.09,-0.54 -13.81,1.77 -2.16,0.74 -2.36,3.02 c -0.55,6.2 -0.17,14.76 2.99,20.16 a 1.63,1.63 0 0 0 1.25,0.8 q 9.39,0.82 18.62,-0.69 a 1.45,1.44 84.9 0 0 1.21,-1.45 c -0.12,-6.64 -0.76,-18.03 -6.01,-22.79"
           inkscape:connector-curvature="0"
           style="vector-effect:non-scaling-stroke;stroke:#828282" />
        <path
           id="path40132"
           d="m 186,163.96 -1.42,-10.52"
           inkscape:connector-curvature="0"
           style="vector-effect:non-scaling-stroke;stroke:#e3e3e3" />
        <path
           id="path40134"
           d="m 393.54,148 q -2.38,10 -3.25,20.25"
           inkscape:connector-curvature="0"
           style="vector-effect:non-scaling-stroke;stroke:#6e6e6e" />
        <path
           id="path40136"
           d="m 390.29,168.25 q -1.36,12.49 -0.54,17.25 0.7,4.1 5.29,3.25"
           inkscape:connector-curvature="0"
           style="vector-effect:non-scaling-stroke;stroke:#666666" />
        <path
           id="path40138"
           d="m 395.04,188.75 q 0.72,-0.41 1.45,-0.35 a 0.4,0.4 0 0 1 0.34,0.55 q -0.78,1.91 -2.37,3.3"
           inkscape:connector-curvature="0"
           style="vector-effect:non-scaling-stroke;stroke:#6e6e6e" />
        <path
           id="path40140"
           d="m 394.46,192.25 c -3.65,3.5 -8.06,8.88 -12.35,5.84 -6.38,-4.51 0.68,-39.24 2.57,-46.67 q 0.21,-0.81 -0.4,-0.24 -6.62,6.17 -12.11,12.69"
           inkscape:connector-curvature="0"
           style="vector-effect:non-scaling-stroke;stroke:#666666" />
        <path
           id="path40142"
           d="m 372.17,163.87 c -2.69,3 -6.14,6.64 -6.9,10.45 -0.57,2.86 0.57,15.03 6.66,10.88 q 0.42,-0.29 0.45,0.22 c 0.12,2.67 -6.96,8.49 -8.38,9.61 -4.29,3.38 -5.97,0.24 -7.96,-3.03"
           inkscape:connector-curvature="0"
           style="vector-effect:non-scaling-stroke;stroke:#6e6e6e" />
        <path
           id="path40144"
           d="m 356.04,192 -0.41,-1.51 q -0.13,-0.49 -0.48,-0.13 l -3.15,3.18"
           inkscape:connector-curvature="0"
           style="vector-effect:non-scaling-stroke;stroke:#828282" />
        <path
           id="path40146"
           d="m 352,193.54 -4.52,4.8"
           inkscape:connector-curvature="0"
           style="vector-effect:non-scaling-stroke;stroke:#6e6e6e" />
        <path
           id="path40148"
           d="m 347.48,198.34 q -4.28,1.5 -1.44,-3.59"
           inkscape:connector-curvature="0"
           style="vector-effect:non-scaling-stroke;stroke:#828282" />
        <path
           id="path40150"
           d="m 350.71,187.5 1.58,-2.5"
           inkscape:connector-curvature="0"
           style="vector-effect:non-scaling-stroke;stroke:#828282" />
        <path
           id="path40152"
           d="m 395.94,213 0.62,-0.28 a 0.67,0.65 -18.2 0 0 0.37,-0.71 q -1.59,-8.76 -1.13,-17.67 a 1.21,1.2 -63.8 0 0 -0.29,-0.86 l -1.05,-1.23"
           inkscape:connector-curvature="0"
           style="vector-effect:non-scaling-stroke;stroke:#cfcfcf" />
        <path
           id="path40154"
           d="m 395.04,188.75 q -0.45,-2.49 -0.39,-5.01 c 0.11,-4.78 -1.46,-9.48 -2.13,-14.19 a 0.84,0.83 -84.2 0 0 -0.54,-0.67 l -1.69,-0.63"
           inkscape:connector-curvature="0"
           style="vector-effect:non-scaling-stroke;stroke:#cfcfcf" />
        <path
           id="path40156"
           d="m 381.19,213 q -1.1,-5.25 -2.19,-10.51 -0.66,-3.15 0.24,-15.12 a 1.61,1.59 30.3 0 0 -0.27,-1.01 l -0.76,-1.09 a 2.09,2.06 26.2 0 1 -0.35,-1.01 q -0.69,-10.79 -5.69,-20.39"
           inkscape:connector-curvature="0"
           style="vector-effect:non-scaling-stroke;stroke:#cfcfcf" />
        <path
           id="path40158"
           d="m 365.94,213 -0.64,-0.4 a 1.33,1.32 -82 0 1 -0.57,-0.76 q -1.19,-4.18 -3.21,-8.02 c -1.68,-3.18 -4.86,-5.41 -6.45,-9.34 a 1.08,1.06 -41.8 0 1 0.06,-0.92 l 0.91,-1.56"
           inkscape:connector-curvature="0"
           style="vector-effect:non-scaling-stroke;stroke:#ebebeb" />
        <path
           id="path40160"
           d="m 347.48,198.34 q 1.31,3.15 3.93,1.94 a 1.34,1.29 -49.6 0 1 0.9,-0.09 l 1.88,0.45 q 0.98,0.23 0.58,-0.7 l -2.77,-6.4"
           inkscape:connector-curvature="0"
           style="vector-effect:non-scaling-stroke;stroke:#ebebeb" />
        <path
           id="path40162"
           d="m 252.19,213 q 3.46,-0.75 6.99,-0.33 a 0.65,0.63 6.1 0 0 0.72,-0.57 l 0.12,-1.27 q 0.11,-1.1 -0.79,-0.46 l -0.33,0.24 q -0.36,0.25 -0.79,0.33 l -3.75,0.71 a 0.96,0.95 83.5 0 1 -1.12,-0.9 l -0.23,-5.14 a 0.6,0.6 0 0 1 0.64,-0.63 l 1.18,0.09 a 0.4,0.39 -4.9 0 0 0.41,-0.48 q -0.7,-3.21 0.22,-6.41 a 0.83,0.8 -57.6 0 0 -0.15,-0.73 l -1.58,-1.96 q -0.77,-0.94 0.45,-0.9 l 1.5,0.05 a 0.58,0.58 0 0 1 0.56,0.6 l -0.2,5.3 a 0.59,0.59 0 0 0 0.79,0.58 l 1.89,-0.69 a 0.71,0.7 -19.4 0 0 0.43,-0.88 q -0.92,-2.93 0.14,-5.73 a 0.46,0.46 0 0 1 0.76,-0.15 l 0.8,0.83 q 0.72,0.75 0.81,-0.28 c 0.28,-3.17 1,-20.75 -1.59,-21.4 a 0.5,0.5 0 0 0 -0.61,0.38 q -0.35,1.45 -1.42,2.3"
           inkscape:connector-curvature="0"
           style="vector-effect:non-scaling-stroke;stroke:#ebebeb" />
        <path
           id="path40164"
           d="m 203.19,213 q 0.62,-10.38 0.02,-20.75"
           inkscape:connector-curvature="0"
           style="vector-effect:non-scaling-stroke;stroke:#cfcfcf" />
        <path
           id="path40166"
           d="m 186.19,213 q 1.17,-6.06 0.37,-12.3 -0.06,-0.51 -0.41,-0.13 c -2.53,2.69 -2.02,8.7 -2.96,12.43"
           inkscape:connector-curvature="0"
           style="vector-effect:non-scaling-stroke;stroke:#e3e3e3" />
        <path
           id="path40168"
           d="m 186.04,187.75 c -3.3,-3.63 -2.16,-9.74 -2.08,-14.25"
           inkscape:connector-curvature="0"
           style="vector-effect:non-scaling-stroke;stroke:#e3e3e3" />
      </g>
      <path
         id="path40172"
         d="m 0,0 h 121.06 q -3.47,-0.01 -6.88,0.84 -1.36,0.34 0.04,0.45 4.21,0.33 4.92,4.23 a 1.12,1.1 8.4 0 0 0.6,0.79 q 2.88,1.43 4.05,4.19 c -6.54,3.98 -12.66,8.34 -19.38,12.07 C 99.16,25.48 96.93,29.82 92.62,33.4 76.91,46.45 62.84,62.1 54.91,81.2 a 1.67,1.64 -4.3 0 1 -0.68,0.78 q -5.4,3.12 -8.71,8.35 -0.93,1.48 0.78,1.12 l 4.83,-1.02 a 0.33,0.33 0 0 1 0.39,0.39 q -1.91,8.86 -2.45,17.92 c -0.46,7.7 7.77,9.6 13.47,6.3 2.9,-1.68 11.61,-7.95 11.26,-11.63 q -0.06,-0.65 -0.52,-0.17 -5.03,5.34 -11.93,2.47 -1.78,-0.74 -1.73,-2.66 L 59.96,88.3 a 0.81,0.8 81.3 0 1 0.55,-0.75 q 16.09,-5.29 32.9,-7.39 a 0.49,0.49 0 0 1 0.55,0.5 c -0.43,11.31 0.22,21.38 6.1,30.09 a 0.68,0.68 0 0 0 0.91,0.2 q 5.06,-3.07 8.67,-7.76 a 1.45,1.45 0 0 0 0.11,-1.63 q -5.73,-9.77 -5.74,-21.17 a 0.54,0.53 -87.6 0 1 0.58,-0.54 q 3.77,0.31 7.19,1.99 a 0.89,0.88 35.4 0 0 1.03,-0.17 l 7.77,-7.77 q 2.47,-2.47 -0.99,-2.97 -7.11,-1.04 -14.35,-0.89 a 1.48,1.47 -89.6 0 1 -1.51,-1.54 l 1.36,-39.1 q 0.08,-2.39 2.1,-3.68 l 18.06,-11.51 q 5.09,4.93 7.76,11.5 c 1.11,2.74 5.32,5.41 6.98,8.48 q 5.55,10.27 10.55,20.81 -8.05,10.78 -17.22,20.83 -0.34,0.36 -0.33,-0.13 c 0.24,-12.25 2.13,-24.56 1.95,-36.71 a 0.88,0.88 0 0 0 -1.33,-0.75 c -3.5,2.04 -8.95,5.93 -8.91,10.59 q 0.02,3.3 0.02,3.34 -2.35,25.12 -1.48,50.42 0.08,2.42 1.95,3.95 c 2.65,2.17 7.13,-3.55 9.14,-5.3 a 1.12,1.1 27.2 0 1 0.87,-0.27 c 8.45,0.97 14.18,-5.08 19.97,-11.63 q 0.34,-0.38 0.49,0.1 c 2.62,8.09 5.78,13.52 15.72,12.4 3.7,7.82 4.43,12.02 5.66,21.41 q -1.32,0.63 -2.38,-0.66 -0.32,-0.4 -0.5,0.09 c -0.61,1.72 2.3,5.28 2.73,7.43 q 0.55,2.75 1.61,5.35 -6.36,1.39 -8.04,0.85 -8.65,-2.83 -13.35,-10.73 a 0.68,0.68 0 0 1 0.07,-0.79 l 3.53,-4.05 a 0.34,0.34 0 0 0 -0.19,-0.55 c -7.14,-1.52 -11.78,2.73 -15.99,8.4 a 1.75,1.71 -80.5 0 1 -0.78,0.57 c -7.62,2.67 -14.92,6.65 -18.8,14.07 a 0.26,0.25 36 0 0 0.05,0.29 l 0.2,0.2 a 0.32,0.31 -37.3 0 0 0.38,0.05 c 0.41,-0.23 9.5,-5.35 10.55,-5.02 q 0.6,0.19 0.07,0.54 c -3.51,2.26 -7.87,6.01 -8.11,10.52 -0.3,5.52 0.3,10.23 -1.09,16.19 q -0.23,0.99 0.49,2.21 a 1.53,1.5 32.6 0 1 0.21,0.9 l -0.83,8.88 a 1.58,1.58 0 0 1 -0.34,0.82 c -2.86,3.54 -8.47,8.61 -2.79,13.03 3.72,2.89 11.3,2.03 16.09,1.35 11.53,-1.62 20.42,-4.54 28.03,-13.75 q 1,-1.2 0.78,0.35 -0.9,6.45 -0.61,12.96 0.12,2.78 2.6,4.04 c 6.43,3.26 9.4,-0.12 14.47,-3.54 q -3.39,9.62 -2.23,19.76 L 0,213 Z m 62.43,144.12 c -3.01,3.45 -7.84,4.84 -8.13,10.41 q -0.59,10.9 -0.11,23.31 a 2.62,2.6 -17.6 0 1 -1.2,2.3 c -2.57,1.64 -8.51,7.24 -7.45,10.8 1.34,4.48 9,7.77 13.28,8.73 q 6.47,1.44 17.42,-0.46 c 8.96,-1.56 21.87,-11.94 21.74,-21.96 q -0.09,-7.17 -2.34,-15.58 C 92.95,151.6 85.99,154.19 78.2,154.98 q -0.5,0.06 -0.15,-0.31 c 3.67,-3.94 13.6,-15.55 8.68,-21.1 q -1.35,-1.53 -4.28,-1.55 -16.19,-0.12 -26.06,12.67 -0.2,0.26 -0.21,0.51 -0.01,0.26 0.06,0.48 a 0.43,0.42 -21.2 0 0 0.57,0.25 l 5.28,-2.28 q 1.19,-0.51 0.34,0.47 z"
         inkscape:connector-curvature="0"
         style="fill:#ffffff" />
      <path
         id="path40174"
         d="m 121.06,0 h 135.5 q 2.48,1.07 4.33,3.04 0.35,0.38 0.84,0.57 l 8.89,3.38 a 0.64,0.62 -62.9 0 0 0.75,-0.25 l 0.17,-0.26 a 0.49,0.49 0 0 0 -0.21,-0.72 q -3.65,-1.57 -5.4,-4.97 a 0.47,0.47 0 0 1 0.11,-0.56 L 266.31,0 h 20.5 q 5.73,0.25 9.4,4.54 15.63,18.25 31.32,36.43 4.33,5 9.93,14.03 c -3.54,-2.39 -5.19,-5.95 -9.4,-7.64 a 1.76,1.75 -39 0 0 -0.97,-0.1 l -6.46,1.21 a 1.04,1.03 -26.1 0 1 -0.97,-0.33 q -2.43,-2.79 -5.9,-4.07 a 0.97,0.95 34.3 0 0 -0.95,0.17 l -1.36,1.18 a 0.64,0.63 -38 0 0 -0.11,0.85 q 1.5,2.19 6.12,8.28 c 6.49,8.54 11.71,18.62 17.39,27.59 3.83,6.04 7.84,11.96 10.79,18.51 q 2.41,5.36 3.96,8.15 5.83,10.53 12.4,24.17 c 0.87,1.8 0.78,3.56 1.5,5.03 1.8,3.65 3.35,6.61 4.96,10.83 q 1.86,4.84 4.83,9.17 l -8.45,9.75 q -0.62,0.7 -0.66,-0.23 -0.72,-15.05 -2.46,-30.03 a 0.47,0.46 76 0 0 -0.63,-0.38 c -8.11,3.18 -9.6,8.88 -8.77,17.08 q 1.21,11.76 1.93,23.56 0.28,4.61 -1.96,7.25 l -3.79,-4.79 a 0.5,0.5 0 0 0 -0.76,-0.02 l -0.44,0.5 q -1.51,1.73 -0.41,3.75 0.61,1.11 1.81,1.26 a 0.69,0.67 86.8 0 1 0.57,0.52 q 0.24,1.12 1.44,1.28 l -4.67,7.25 c -3.44,-2.76 -4.88,-8.13 -7.12,-11.99 a 0.51,0.51 0 0 0 -0.36,-0.25 l -0.31,-0.05 q 12.7,-14.33 12.84,-33.13 c 0.1,-13.84 -11.86,-21.77 -24.66,-18.99 -5.6,1.22 -10.61,6.8 -14.14,11.16 q -3.86,-4.76 -8.85,-8.36 a 1.79,1.77 7.7 0 1 -0.62,-0.8 l -0.95,-2.4 a 1.7,1.62 8.7 0 0 -0.54,-0.7 c -0.64,-0.49 -5.3,-5.27 -4.02,-5.94 a 0.46,0.46 0 0 1 0.59,0.14 q 1.98,2.79 5.24,3.78 a 0.36,0.36 0 0 0 0.36,-0.1 l 0.21,-0.21 a 0.36,0.35 -43.1 0 0 0.02,-0.47 l -12.45,-14.69 a 0.81,0.8 -42.1 0 1 0.06,-1.11 l 1.23,-1.16 a 1.22,1.21 -40.5 0 1 1.8,0.14 q 1.28,1.66 2.98,2.9 1.63,1.19 0.73,-0.61 l -0.76,-1.51 a 0.65,0.65 0 0 1 0.25,-0.85 q 0.99,-0.62 2.25,-0.27 0.65,0.18 0.16,-0.28 l -3.44,-3.23 q -0.81,-0.76 -0.8,0.35 l 0.02,1.39 q 0.02,0.96 -0.38,0.09 -0.66,-1.46 -2.09,-1.6 -1.27,-3.24 -3.1,-6.2 C 281.25,85.3 279.38,65.46 278.71,48.92 q -0.08,-1.91 1.24,-3.29 l 4.62,-4.81 q 0.95,-0.99 -0.42,-1.06 -1.14,-0.05 -2.88,1.26 c -11.67,8.82 -20.49,19.03 -29.48,32.48 -4.72,-1.92 -7.53,-4.87 -13.01,-6.11 q -0.58,-0.14 -0.28,0.38 l 2.14,3.73 a 0.91,0.91 0 0 0 0.69,0.45 q 2.65,0.24 2.41,2.97 a 1.4,1.39 -88.4 0 1 -1.34,1.27 l -1.72,0.06 a 0.71,0.7 84.9 0 0 -0.67,0.81 l 0.43,3.03 a 0.68,0.67 76.6 0 1 -0.45,0.74 l -1.96,0.68 a 0.78,0.78 0 0 0 -0.53,0.75 v 3.81 a 1.27,1.27 0 0 0 0.36,0.86 q 0.76,0.76 1.89,0.86 -0.96,0.98 -0.8,2.28 a 0.8,0.79 1.5 0 0 0.66,0.69 l 1.5,0.24 a 1.27,1.26 16.3 0 1 0.96,1.75 c -2.4,5.56 -6.94,18.14 3.18,19.29 l -0.17,1.55 a 0.77,0.76 -73.2 0 0 0.4,0.75 c 4.89,2.6 2.83,5.42 4.07,9.39 q 1.87,5.98 3.02,12.21 -1.81,1.7 -3.41,4.24 c -2.18,3.46 -1.19,13.05 -1.2,17.32 q -0.63,-0.03 -1.16,-0.35 a 0.91,0.89 -75 0 1 -0.44,-0.78 q 0.03,-10.1 -1.07,-20.13 -0.3,-2.7 -1.81,-8.43 c -0.24,-0.89 -1.67,-9.06 -1.74,-9.11 q -0.52,-0.4 -0.56,0.25 -0.26,3.56 -2.92,6 a 0.78,0.77 63.9 0 0 -0.24,0.72 l 1.03,5.24 q 0.09,0.49 0.4,0.89 l 0.89,1.16 a 0.41,0.41 0 0 0 0.7,-0.08 c 0.19,-0.42 -1.64,-4.99 -1.89,-5.79 a 0.98,0.97 -33 0 1 0.2,-0.93 l 0.62,-0.73 q 0.54,-0.63 0.8,0.16 l 1.49,4.53 a 1.81,1.76 12.4 0 0 0.51,0.77 q 1.6,1.41 1.18,3.61 a 0.89,0.89 0 0 1 -0.81,0.72 l -0.45,0.03 a 0.66,0.65 -87.9 0 0 -0.61,0.57 l -0.33,2.51 a 0.48,0.47 -88.5 0 0 0.51,0.54 l 1.25,-0.09 a 0.46,0.46 0 0 1 0.5,0.44 q 0.05,1.53 -1.44,2.02 a 0.62,0.62 0 0 0 -0.35,0.88 l 0.95,1.76 q 0.21,0.39 0.24,0.82 0.48,6.45 1.64,12.71 0.46,2.48 2.66,2.09 -7.87,2.33 -16.24,2.38 a 0.54,0.54 0 0 1 -0.54,-0.53 l -0.61,-25.22 a 1.21,1.21 0 0 0 -1.71,-1.07 q -4.35,1.99 -7.08,6.88 c -2.1,3.76 -1.11,11.98 -1.16,16.37 a 0.65,0.64 -7.7 0 1 -0.48,0.62 q -7.34,1.94 -14.64,2.78 l -2.46,-20.31 a 0.55,0.55 0 0 0 -0.84,-0.4 l -2.67,1.62 q -0.43,-1.21 -0.84,-2.28 c -0.68,-1.78 -0.59,-3.92 -0.94,-5.8 l 7.54,-7.34 q 1.5,-1.46 -0.59,-1.27 c -7.1,0.66 -19.28,16.19 -22.92,22.11 l 0.78,-7.25 a 0.95,0.94 -67.9 0 0 -0.35,-0.83 q -0.49,-0.4 -1.21,-0.25 4.88,-4.23 10.41,-11.8 c 5.6,-7.67 4.65,-14.23 4.96,-22.63 a 0.9,0.89 77.4 0 1 0.48,-0.76 q 7.97,-4.12 13.36,-11.31 0.86,-1.13 -0.56,-1.22 c -1.49,-0.08 -4.22,3.15 -7.75,2.96 a 0.59,0.59 0 0 1 -0.56,-0.52 q -0.35,-2.72 0.16,-4.66 5.37,-20.54 26.81,-29.27 1.63,-0.66 0.92,0.95 c -5.58,12.63 -9.74,25.66 -10.72,39.76 -1.23,17.62 18.89,2.76 17.88,-1.33 a 0.54,0.53 76.5 0 0 -0.63,-0.39 q -4.36,0.98 -7.01,-2.31 a 1.59,1.57 -64 0 1 -0.36,-1.06 q 0.73,-20.09 9.07,-38.32 a 1.08,1.06 -82 0 1 0.8,-0.61 l 2.16,-0.36 a 1.64,1.59 -70.9 0 0 0.87,-0.44 L 249,48.54 q 1.15,-1.13 -0.42,-1.46 -1.02,-0.21 -2.3,0.08 c -20.65,4.67 -39.26,20.58 -49.75,38.52 q -0.43,0.73 -0.5,-0.11 c -0.5,-6.09 -0.41,-11.06 1.49,-17.29 q 2.84,-9.33 3.61,-21.04 a 3.55,3.54 24.8 0 0 -1,-2.7 c -3.03,-3.12 -9.95,3.93 -11.72,6.8 q -1.43,2.32 -1.71,6.13 -0.97,13.04 -1.3,26.13 -2.61,0.76 -2.95,-0.55 c -1.95,-7.44 -5.74,-14.83 -8.17,-21.34 -1.12,-2.98 -2.79,-5.41 -4.52,-7.99 -2.23,-3.3 -3.42,-7.26 -5.8,-10.72 l 2.12,-3.35 q 1.2,-1.89 -0.78,-0.83 l -1.8,0.97 -0.44,-0.28 q -0.31,-0.21 -0.51,-0.52 -8.17,-13.32 -17.3,-26.03 C 142.62,9.3 138.7,5.33 135.85,1.01 a 0.65,0.65 0 0 0 -0.84,-0.22 l -2.05,1.06 a 2.01,1.98 -56.8 0 1 -0.97,0.21 l -1.43,-0.07 a 0.52,0.51 -85.1 0 0 -0.53,0.45 q -0.33,2.72 1.25,4.9 a 1.14,1.12 -55.1 0 1 0.17,0.99 l -0.66,2.24 a 1.29,1.27 -50.6 0 0 0.09,0.96 c 1.61,3.11 3.83,6.06 5.31,9 q 5.66,11.31 12.03,22.22 c 1.66,2.84 2.91,6.22 4.57,9.25 l -2.25,3 q -5,-10.54 -10.55,-20.81 c -1.66,-3.07 -5.87,-5.74 -6.98,-8.48 q -2.67,-6.57 -7.76,-11.5 2.63,-1.88 3.34,-4.92 0.13,-0.57 -0.42,-0.37 l -4.38,1.58 q -1.17,-2.76 -4.05,-4.19 a 1.12,1.1 8.4 0 1 -0.6,-0.79 q -0.71,-3.9 -4.92,-4.23 -1.4,-0.11 -0.04,-0.45 3.41,-0.85 6.88,-0.84 z m 188.6221,121.3733 a 0.26,0.26 0 0 0 -0.3623,-0.0625 l -0.4413,0.3112 a 0.26,0.26 0 0 0 -0.0625,0.3624 l 6.8019,9.6423 a 0.26,0.26 0 0 0 0.3623,0.0625 l 0.4413,-0.3112 a 0.26,0.26 0 0 0 0.0625,-0.3624 z M 241.24,137.22 q 0.14,-0.46 -0.26,-0.98 -0.58,-0.77 -0.83,0.17 -0.27,1.02 -0.14,2.06 a 0.34,0.33 87.7 0 0 0.3,0.29 c 0.55,0.06 0.65,-0.38 0.72,-0.8 q 0.01,-0.03 0.21,-0.74 z"
         inkscape:connector-curvature="0"
         style="fill:#d6d6d6" />
      <path
         id="path40176"
         d="m 256.56,0 h 9.75 l -0.27,0.23 a 0.47,0.47 0 0 0 -0.11,0.56 q 1.75,3.4 5.4,4.97 a 0.49,0.49 0 0 1 0.21,0.72 l -0.17,0.26 a 0.64,0.62 -62.9 0 1 -0.75,0.25 L 261.73,3.61 Q 261.24,3.42 260.89,3.04 259.04,1.07 256.56,0 Z"
         inkscape:connector-curvature="0"
         style="fill:#ffffff" />
      <path
         id="path40178"
         d="M 286.81,0 H 447 v 213 h -15.06 q 1.91,0.02 3.68,-0.77 a 0.48,0.48 0 0 0 0.23,-0.66 q -5.77,-11.42 -10.85,-23.16 -1.06,-2.43 -3.11,-4.97 c -5.9,-7.31 -9.04,-16.8 -11.71,-25.71 a 1.86,1.81 12.9 0 0 -0.53,-0.82 c -1.87,-1.64 -7.7,-5.89 -10.77,-4.58 a 0.86,0.85 -37.2 0 1 -0.85,-0.11 c -1.32,-0.98 -3.1,-4.53 -4.49,-4.22 q 0.22,-4.07 3.33,-6.5 a 0.55,0.55 0 0 0 -0.02,-0.89 l -1.83,-1.29 a 0.32,0.31 -48.8 0 1 -0.03,-0.48 q 0.91,-0.86 0.76,-2.06 a 0.57,0.56 86.6 0 0 -0.56,-0.5 q -1.02,0 -1.76,0.4 -2.6,-3.92 -5.36,-7.7 c -2.01,-2.76 -10.5,-16.1 -9.68,-18.77 a 0.51,0.5 -63.7 0 1 0.78,-0.27 c 4.77,3.41 7.03,8.97 10.98,13.38 q 0.94,1.05 0.24,-0.18 -4.42,-7.7 -9.78,-14.75 a 0.94,0.94 0 0 0 -1.61,0.2 q -0.5,1.15 -1.79,0.16 c 5.12,-4.79 10.47,-10.36 17.89,-10.97 a 1.56,1.55 -69.8 0 0 0.96,-0.45 l 7.96,-8.11 a 0.5,0.5 0 0 0 -0.21,-0.83 C 396.95,86.2 379.76,102.58 375,107.04 q -4.4,-2.33 -4.68,-7.43 -0.05,-0.87 0.54,-0.23 l 1.36,1.48 a 0.34,0.34 0 0 0 0.56,-0.08 c 1.36,-2.7 -22.94,-30.45 -25.99,-34.03 L 337.46,55 Q 331.86,45.97 327.53,40.97 311.84,22.79 296.21,4.54 292.54,0.25 286.81,0 Z"
         inkscape:connector-curvature="0"
         style="fill:#ffffff" />
      <path
         id="path40180"
         d="M 163.5,39.79 Q 157.37,45.2 152.79,52 c -1.66,-3.03 -2.91,-6.41 -4.57,-9.25 Q 141.85,31.84 136.19,20.53 c -1.48,-2.94 -3.7,-5.89 -5.31,-9 a 1.29,1.27 -50.6 0 1 -0.09,-0.96 l 0.66,-2.24 a 1.14,1.12 -55.1 0 0 -0.17,-0.99 q -1.58,-2.18 -1.25,-4.9 a 0.52,0.51 -85.1 0 1 0.53,-0.45 l 1.43,0.07 a 2.01,1.98 -56.8 0 0 0.97,-0.21 l 2.05,-1.06 a 0.65,0.65 0 0 1 0.84,0.22 c 2.85,4.32 6.77,8.29 9.4,11.95 q 9.13,12.71 17.3,26.03 0.2,0.31 0.51,0.52 z m -9.4833,-2.1446 a 3.49,0.51 61.1 0 0 -1.2402,-3.3019 3.49,0.51 61.1 0 0 -2.1332,-2.8089 3.49,0.51 61.1 0 0 1.2402,3.3019 3.49,0.51 61.1 0 0 2.1332,2.8089 z"
         inkscape:connector-curvature="0"
         style="fill:#c7c7c7" />
      <path
         id="path40182"
         d="m 125.25,14.21 -18.06,11.51 q -2.02,1.29 -2.1,3.68 l -1.36,39.1 a 1.48,1.47 -89.6 0 0 1.51,1.54 q 7.24,-0.15 14.35,0.89 3.46,0.5 0.99,2.97 l -7.77,7.77 a 0.89,0.88 35.4 0 1 -1.03,0.17 q -3.42,-1.68 -7.19,-1.99 a 0.54,0.53 -87.6 0 0 -0.58,0.54 q 0.01,11.4 5.74,21.17 a 1.45,1.45 0 0 1 -0.11,1.63 q -3.61,4.69 -8.67,7.76 a 0.68,0.68 0 0 1 -0.91,-0.2 c -5.88,-8.71 -6.53,-18.78 -6.1,-30.09 a 0.49,0.49 0 0 0 -0.55,-0.5 q -16.81,2.1 -32.9,7.39 a 0.81,0.8 81.3 0 0 -0.55,0.75 l -0.34,14.75 q -0.05,1.92 1.73,2.66 6.9,2.87 11.93,-2.47 0.46,-0.48 0.52,0.17 c 0.35,3.68 -8.36,9.95 -11.26,11.63 -5.7,3.3 -13.93,1.4 -13.47,-6.3 q 0.54,-9.06 2.45,-17.92 a 0.33,0.33 0 0 0 -0.39,-0.39 l -4.83,1.02 q -1.71,0.36 -0.78,-1.12 3.31,-5.23 8.71,-8.35 a 1.67,1.64 -4.3 0 0 0.68,-0.78 c 7.93,-19.1 22,-34.75 37.71,-47.8 4.31,-3.58 6.54,-7.92 11.79,-10.83 6.72,-3.73 12.84,-8.09 19.38,-12.07 l 4.38,-1.58 q 0.55,-0.2 0.42,0.37 -0.71,3.04 -3.34,4.92 z M 83.31,45.8 C 72.94,55.89 67.56,66.22 62.23,79.47 q -0.18,0.46 0.29,0.3 15.08,-5.17 30.75,-8.12 a 0.61,0.6 85.8 0 0 0.49,-0.57 L 95.1,35.18 Q 95.12,34.62 94.71,35 88.92,40.35 83.31,45.8 Z"
         inkscape:connector-curvature="0"
         style="fill:#050505" />
      <ellipse
         id="ellipse40184"
         ry="0.50999999"
         rx="3.49"
         transform="rotate(61.1,46.862421,146.33987)"
         cy="0"
         cx="0"
         style="fill:#d6d6d6" />
      <path
         id="path40186"
         d="M 62.23,79.47 C 67.56,66.22 72.94,55.89 83.31,45.8 q 5.61,-5.45 11.4,-10.8 0.41,-0.38 0.39,0.18 l -1.34,35.9 a 0.61,0.6 85.8 0 1 -0.49,0.57 q -15.67,2.95 -30.75,8.12 -0.47,0.16 -0.29,-0.3 z"
         inkscape:connector-curvature="0"
         style="fill:#ffffff" />
      <path
         id="path40188"
         d="m 150.54,55 2.25,-3 q 4.58,-6.8 10.71,-12.21 l 1.8,-0.97 q 1.98,-1.06 0.78,0.83 l -2.12,3.35 -9.91,13.22 q -9.39,11.5 -12.38,14.69 c -4.71,5.02 -7.64,13.19 -0.9,18.04 q 4.07,2.92 9.04,1.73 a 1.53,1.49 -75.6 0 0 0.82,-0.5 q 5.44,-6.55 6.34,-14.9 c 0.52,-4.76 3.75,-8.23 7.57,-10.78 q 1.24,-1.31 2.92,-1.31 a 0.53,0.52 -0.6 0 1 0.53,0.51 c 0.15,3.97 -2.57,8.22 -1.74,11.43 -1.07,5 0.18,12.28 5.32,14.87 q 2.71,1.94 5.87,1.99 2.48,0.04 3.83,-2.03 l 4.13,-6.36 q 0.33,-13.09 1.3,-26.13 0.28,-3.81 1.71,-6.13 c 1.77,-2.87 8.69,-9.92 11.72,-6.8 a 3.55,3.54 24.8 0 1 1,2.7 q -0.77,11.71 -3.61,21.04 c -1.9,6.23 -1.99,11.2 -1.49,17.29 q 0.07,0.84 0.5,0.11 c 10.49,-17.94 29.1,-33.85 49.75,-38.52 q 1.28,-0.29 2.3,-0.08 1.57,0.33 0.42,1.46 l -7.96,7.85 a 1.64,1.59 -70.9 0 1 -0.87,0.44 l -2.16,0.36 a 1.08,1.06 -82 0 0 -0.8,0.61 q -8.34,18.23 -9.07,38.32 a 1.59,1.57 -64 0 0 0.36,1.06 q 2.65,3.29 7.01,2.31 a 0.54,0.53 76.5 0 1 0.63,0.39 c 1.01,4.09 -19.11,18.95 -17.88,1.33 0.98,-14.1 5.14,-27.13 10.72,-39.76 q 0.71,-1.61 -0.92,-0.95 -21.44,8.73 -26.81,29.27 -0.51,1.94 -0.16,4.66 a 0.59,0.59 0 0 0 0.56,0.52 c 3.53,0.19 6.26,-3.04 7.75,-2.96 q 1.42,0.09 0.56,1.22 -5.39,7.19 -13.36,11.31 a 0.9,0.89 77.4 0 0 -0.48,0.76 c -0.31,8.4 0.64,14.96 -4.96,22.63 q -5.53,7.57 -10.41,11.8 -10.04,8.46 -23.12,5.73 a 0.8,0.8 0 0 0 -0.85,0.36 l -1.56,2.48 q -0.44,0.7 0.39,0.64 6.49,-0.51 8.1,0.36 7.38,3.99 9.89,11.69 0.48,1.46 1.08,0.05 2.92,-6.85 6.85,-12.98 c 3.64,-5.92 15.82,-21.45 22.92,-22.11 q 2.09,-0.19 0.59,1.27 l -7.54,7.34 c -6.05,3.38 -10.72,12.63 -12.92,18.9 q -2.66,5.06 -3.91,10.51 a 0.36,0.36 0 0 0 0.39,0.44 l 4.94,-0.43 q 3.71,0.24 7.61,-0.85 a 0.75,0.75 0 0 0 0.55,-0.82 l -1.38,-10.65 q -0.06,-0.51 0.13,-0.99 2.02,-5 6.37,-8.03 l 2.67,-1.62 a 0.55,0.55 0 0 1 0.84,0.4 l 2.46,20.31 q -2.17,-0.13 -4.19,0.41 c -2.41,0.63 -3.9,0.7 -6.1,0.83 a 0.8,0.79 85.2 0 0 -0.74,0.88 l 0.85,8.08 -11.11,1.59 -5.29,0.3 a 0.73,0.73 0 0 0 -0.69,0.74 c 0.12,5.46 -1.78,15.33 8.06,13.21 l 4.44,-2.45 a 0.32,0.32 0 0 1 0.47,0.24 c 0.28,2.19 -4.26,6.45 -5.85,7.71 -5.07,3.42 -8.04,6.8 -14.47,3.54 q -2.48,-1.26 -2.6,-4.04 -0.29,-6.51 0.61,-12.96 0.22,-1.55 -0.78,-0.35 c -7.61,9.21 -16.5,12.13 -28.03,13.75 -4.79,0.68 -12.37,1.54 -16.09,-1.35 -5.68,-4.42 -0.07,-9.49 2.79,-13.03 a 1.58,1.58 0 0 0 0.34,-0.82 l 0.83,-8.88 a 1.53,1.5 32.6 0 0 -0.21,-0.9 Q 126.77,166.99 127,166 c 1.39,-5.96 0.79,-10.67 1.09,-16.19 0.24,-4.51 4.6,-8.26 8.11,-10.52 q 0.53,-0.35 -0.07,-0.54 c -1.05,-0.33 -10.14,4.79 -10.55,5.02 a 0.32,0.31 -37.3 0 1 -0.38,-0.05 l -0.2,-0.2 a 0.26,0.25 36 0 1 -0.05,-0.29 c 3.88,-7.42 11.18,-11.4 18.8,-14.07 a 1.75,1.71 -80.5 0 0 0.78,-0.57 c 4.21,-5.67 8.85,-9.92 15.99,-8.4 a 0.34,0.34 0 0 1 0.19,0.55 l -3.53,4.05 a 0.68,0.68 0 0 0 -0.07,0.79 q 4.7,7.9 13.35,10.73 1.68,0.54 8.04,-0.85 2.22,-0.39 3.79,-1.96 c 3.07,-2.99 3.47,-7.97 3.52,-12 q 0.2,-15.72 0.18,-31.05 0,-1.05 -0.71,-0.27 c -4.27,4.67 -8.14,8.86 -13.9,11.66 -9.94,1.12 -13.1,-4.31 -15.72,-12.4 q -0.15,-0.48 -0.49,-0.1 c -5.79,6.55 -11.52,12.6 -19.97,11.63 a 1.12,1.1 27.2 0 0 -0.87,0.27 c -2.01,1.75 -6.49,7.47 -9.14,5.3 q -1.87,-1.53 -1.95,-3.95 -0.87,-25.3 1.48,-50.42 0,-0.04 -0.02,-3.34 c -0.04,-4.66 5.41,-8.55 8.91,-10.59 a 0.88,0.88 0 0 1 1.33,0.75 c 0.18,12.15 -1.71,24.46 -1.95,36.71 q -0.01,0.49 0.33,0.13 9.17,-10.05 17.22,-20.83 z m -4.76,82.95 -7.27,-0.02 a 0.62,0.62 0 0 0 -0.62,0.62 l 0.15,13.93 a 0.32,0.32 0 0 0 0.47,0.28 q 4.2,-2.25 8.94,-2.89 a 0.58,0.57 88.2 0 0 0.5,-0.54 q 0.38,-5.38 -1.08,-10.55 a 1.13,1.13 0 0 0 -1.09,-0.83 z m -1.74,31.47 c 0.2,1.12 -5.44,6.48 -6.5,7.72 a 1.72,1.71 -24.4 0 0 -0.39,1.03 q -0.07,2.03 -1.4,3.63 -1.72,2.08 0.97,2.17 c 7.74,0.27 19.98,-0.54 26.68,-4.75 a 1.12,1.11 -11.9 0 0 0.5,-0.76 c 1.07,-7.24 -2.11,-16.97 -9.81,-19.14 q -2.79,-0.78 -6.26,-0.42 -1.67,0.18 -3.01,1.19 l -7.47,5.63 a 0.94,0.93 -19.2 0 0 -0.38,0.77 l 0.1,4.11 a 0.55,0.54 79 0 0 0.73,0.5 l 5.49,-2.1 a 0.56,0.55 -15.1 0 1 0.75,0.42 z"
         inkscape:connector-curvature="0"
         style="fill:#050505" />
      <path
         id="path40190"
         d="m 293.29,106 q -3.45,5.3 -8.8,8.68 a 0.55,0.54 -33.5 0 1 -0.72,-0.14 q -5.91,-7.9 -9.32,-16.97 l -2.34,-8.76 a 0.7,0.7 0 0 0 -0.65,-0.52 q -3.83,-0.14 -7.88,0.83 -6.28,-0.12 -12.81,1.02 a 0.9,0.89 5.2 0 0 -0.68,0.56 c -2.39,6.1 -1.63,12.33 6.58,10.94 q 1.88,-0.31 3.82,-0.54 0.5,-0.06 0.19,0.35 c -3.59,4.75 -9.05,10.51 -15.43,10.59 -10.12,-1.15 -5.58,-13.73 -3.18,-19.29 A 1.27,1.26 16.3 0 0 241.11,91 l -1.5,-0.24 a 0.8,0.79 1.5 0 1 -0.66,-0.69 q -0.16,-1.3 0.8,-2.28 c 3.1,-3.16 6.95,-5.66 9.22,-9.42 q 1.46,-2.41 2.82,-4.87 c 8.99,-13.45 17.81,-23.66 29.48,-32.48 q 1.74,-1.31 2.88,-1.26 1.37,0.07 0.42,1.06 l -4.62,4.81 q -1.32,1.38 -1.24,3.29 c 0.67,16.54 2.54,36.38 11.48,50.88 q 1.83,2.96 3.1,6.2 z m -38,-29.25 -1.69,2.94 q -0.24,0.42 0.24,0.39 L 260,79.71 269.89,79 a 0.39,0.39 0 0 0 0.36,-0.42 l -1.61,-21.35 q -0.06,-0.76 -0.53,-0.17 -7.33,9.29 -12.82,19.69 z"
         inkscape:connector-curvature="0"
         style="fill:#050505" />
      <path
         id="path40192"
         d="m 163.96,43 c 2.38,3.46 3.57,7.42 5.8,10.72 1.73,2.58 3.4,5.01 4.52,7.99 2.43,6.51 6.22,13.9 8.17,21.34 q 0.34,1.31 2.95,0.55 l -4.13,6.36 q -1.35,2.07 -3.83,2.03 -3.16,-0.05 -5.87,-1.99 l -5.32,-14.87 c -0.83,-3.21 1.89,-7.46 1.74,-11.43 a 0.53,0.52 -0.6 0 0 -0.53,-0.51 q -1.68,0 -2.92,1.31 -0.73,-3.35 -4.14,-2 a 0.84,0.83 54.3 0 1 -0.84,-0.14 q -3.18,-2.66 -5.51,-6.14 z"
         inkscape:connector-curvature="0"
         style="fill:#c7c7c7" />
      <path
         id="path40194"
         d="m 337.46,55 9.33,11.75 c 1.26,2.3 1.61,4.74 2.94,6.85 q 11.34,17.92 20.65,36.98 a 0.77,0.77 0 0 0 0.69,0.43 l 0.39,-0.01 q -2.14,1.52 -0.54,3.18 l 0.14,0.75 q 0.09,0.48 0.36,0.88 c 2.24,3.32 4.33,5.77 5.65,9.75 q 1.6,4.8 3.83,9.34 c 0.98,1.98 2.79,10.5 5.06,10.1 0.06,1.72 -1.02,1.83 -1.94,2.71 q -5.36,5.15 -10.73,10.29 -2.97,-4.33 -4.83,-9.17 c -1.61,-4.22 -3.16,-7.18 -4.96,-10.83 -0.72,-1.47 -0.63,-3.23 -1.5,-5.03 q -6.57,-13.64 -12.4,-24.17 -1.55,-2.79 -3.96,-8.15 C 342.69,94.1 338.68,88.18 334.85,82.14 329.17,73.17 323.95,63.09 317.46,54.55 q -4.62,-6.09 -6.12,-8.28 a 0.64,0.63 -38 0 1 0.11,-0.85 l 1.36,-1.18 a 0.97,0.95 34.3 0 1 0.95,-0.17 q 3.47,1.28 5.9,4.07 a 1.04,1.03 -26.1 0 0 0.97,0.33 l 6.46,-1.21 a 1.76,1.75 -39 0 1 0.97,0.1 c 4.21,1.69 5.86,5.25 9.4,7.64 z"
         inkscape:connector-curvature="0"
         style="fill:#c7c7c7" />
      <path
         id="path40196"
         d="m 154.05,56.22 q 2.33,3.48 5.51,6.14 a 0.84,0.83 54.3 0 0 0.84,0.14 q 3.41,-1.35 4.14,2 c -3.82,2.55 -7.05,6.02 -7.57,10.78 q -0.9,8.35 -6.34,14.9 a 1.53,1.49 -75.6 0 1 -0.82,0.5 q -4.97,1.19 -9.04,-1.73 c -6.74,-4.85 -3.81,-13.02 0.9,-18.04 q 2.99,-3.19 12.38,-14.69 z"
         inkscape:connector-curvature="0"
         style="fill:#ffffff" />
      <path
         id="path40198"
         d="m 260,79.71 -0.03,-0.45 a 0.75,0.74 9.9 0 0 -0.45,-0.63 l -4.23,-1.88 q 5.49,-10.4 12.82,-19.69 0.47,-0.59 0.53,0.17 l 1.61,21.35 A 0.39,0.39 0 0 1 269.89,79 Z"
         inkscape:connector-curvature="0"
         style="fill:#d6d6d6" />
      <path
         id="path40200"
         d="m 346.79,66.75 c 3.05,3.58 27.35,31.33 25.99,34.03 a 0.34,0.34 0 0 1 -0.56,0.08 l -1.36,-1.48 q -0.59,-0.64 -0.54,0.23 0.28,5.1 4.68,7.43 l -3.54,3.96 -0.39,0.01 a 0.77,0.77 0 0 1 -0.69,-0.43 Q 361.07,91.52 349.73,73.6 c -1.33,-2.11 -1.68,-4.55 -2.94,-6.85 z"
         inkscape:connector-curvature="0"
         style="fill:#d6d6d6" />
      <path
         id="path40202"
         d="m 251.79,73.5 q -1.36,2.46 -2.82,4.87 c -2.27,3.76 -6.12,6.26 -9.22,9.42 q -1.13,-0.1 -1.89,-0.86 a 1.27,1.27 0 0 1 -0.36,-0.86 v -3.81 a 0.78,0.78 0 0 1 0.53,-0.75 l 1.96,-0.68 a 0.68,0.67 76.6 0 0 0.45,-0.74 l -0.43,-3.03 a 0.71,0.7 84.9 0 1 0.67,-0.81 l 1.72,-0.06 a 1.4,1.39 -88.4 0 0 1.34,-1.27 q 0.24,-2.73 -2.41,-2.97 a 0.91,0.91 0 0 1 -0.69,-0.45 l -2.14,-3.73 q -0.3,-0.52 0.28,-0.38 c 5.48,1.24 8.29,4.19 13.01,6.11 z"
         inkscape:connector-curvature="0"
         style="fill:#ffffff" />
      <path
         id="path40204"
         d="M 166.25,75.13 171.57,90 c -5.14,-2.59 -6.39,-9.87 -5.32,-14.87 z"
         inkscape:connector-curvature="0"
         style="fill:#d6d6d6" />
      <path
         id="path40206"
         d="m 255.29,76.75 4.23,1.88 a 0.75,0.74 9.9 0 1 0.45,0.63 l 0.03,0.45 -6.16,0.37 q -0.48,0.03 -0.24,-0.39 z"
         inkscape:connector-curvature="0"
         style="fill:#ffffff" />
      <path
         id="path40208"
         d="m 377.21,108.75 -6.29,5.43 q -1.6,-1.66 0.54,-3.18 l 3.54,-3.96 c 4.76,-4.46 21.95,-20.84 28.81,-18.65 a 0.5,0.5 0 0 1 0.21,0.83 l -7.96,8.11 a 1.56,1.55 -69.8 0 1 -0.96,0.45 c -7.42,0.61 -12.77,6.18 -17.89,10.97 z"
         inkscape:connector-curvature="0"
         style="fill:#050505" />
      <path
         id="path40210"
         d="m 274.45,97.57 q -5.88,-3.63 -10.87,-8.45 4.05,-0.97 7.88,-0.83 a 0.7,0.7 0 0 1 0.65,0.52 z"
         inkscape:connector-curvature="0"
         style="fill:#d6d6d6" />
      <path
         id="path40212"
         d="m 263.58,89.12 q 4.99,4.82 10.87,8.45 3.41,9.07 9.32,16.97 a 0.55,0.54 -33.5 0 0 0.72,0.14 q 5.35,-3.38 8.8,-8.68 1.43,0.14 2.09,1.6 0.4,0.87 0.38,-0.09 l -0.02,-1.39 q -0.01,-1.11 0.8,-0.35 l 3.44,3.23 q 0.49,0.46 -0.16,0.28 -1.26,-0.35 -2.25,0.27 a 0.65,0.65 0 0 0 -0.25,0.85 l 0.76,1.51 q 0.9,1.8 -0.73,0.61 -1.7,-1.24 -2.98,-2.9 a 1.22,1.21 -40.5 0 0 -1.8,-0.14 l -1.23,1.16 a 0.81,0.8 -42.1 0 0 -0.06,1.11 l 12.45,14.69 a 0.36,0.35 -43.1 0 1 -0.02,0.47 l -0.21,0.21 a 0.36,0.36 0 0 1 -0.36,0.1 q -3.26,-0.99 -5.24,-3.78 a 0.46,0.46 0 0 0 -0.59,-0.14 c -1.28,0.67 3.38,5.45 4.02,5.94 a 1.7,1.62 8.7 0 1 0.54,0.7 l 0.95,2.4 a 1.79,1.77 7.7 0 0 0.62,0.8 q 4.99,3.6 8.85,8.36 -3.67,5.19 -5.56,11.19 a 1.05,1.03 -5 0 1 -0.54,0.63 l -5.38,2.52 q -0.53,0.24 -0.43,-0.33 1.93,-11.01 1.57,-22.19 a 0.47,0.47 0 0 0 -0.66,-0.41 c -11.39,4.99 -9.28,13.53 -9.91,23.71 q -0.13,2.14 -2.27,2.3 l -11.67,0.86 A 0.41,0.4 -2 0 1 277,159.38 V 135.7 a 0.76,0.75 -12.4 0 0 -1.07,-0.68 q -5.11,2.35 -7.85,7.41 c -1.71,3.14 -1.04,7.21 -1.12,10.77 a 0.88,0.87 -10.9 0 1 -0.54,0.79 l -7.51,3.02 A 0.66,0.66 0 0 1 258,156.4 v -22.81 a 0.42,0.42 0 0 0 -0.5,-0.41 q -2.49,0.46 -4.93,2.76 -1.15,-6.23 -3.02,-12.21 c -1.24,-3.97 0.82,-6.79 -4.07,-9.39 a 0.77,0.76 -73.2 0 1 -0.4,-0.75 l 0.17,-1.55 c 6.38,-0.08 11.84,-5.84 15.43,-10.59 q 0.31,-0.41 -0.19,-0.35 -1.94,0.23 -3.82,0.54 c -8.21,1.39 -8.97,-4.84 -6.58,-10.94 a 0.9,0.89 5.2 0 1 0.68,-0.56 Q 257.3,89 263.58,89.12 Z"
         inkscape:connector-curvature="0"
         style="fill:#ffffff" />
      <path
         id="path40214"
         d="m 182.29,133.5 q -0.77,-1.45 -1.45,-2.94 c -1.25,-2.75 -3.29,-3.86 -3.8,-7.31 -1.23,-9.39 -1.96,-13.59 -5.66,-21.41 5.76,-2.8 9.63,-6.99 13.9,-11.66 q 0.71,-0.78 0.71,0.27 0.02,15.33 -0.18,31.05 c -0.05,4.03 -0.45,9.01 -3.52,12 z"
         inkscape:connector-curvature="0"
         style="fill:#c7c7c7" />
      <path
         id="path40216"
         d="m 393.43,136.68 c -2.49,1.71 -7.06,5.36 -7.47,8.32 -2.27,0.4 -4.08,-8.12 -5.06,-10.1 q -2.23,-4.54 -3.83,-9.34 c -1.32,-3.98 -3.41,-6.43 -5.65,-9.75 q -0.27,-0.4 -0.36,-0.88 l -0.14,-0.75 6.29,-5.43 q 1.29,0.99 1.79,-0.16 a 0.94,0.94 0 0 1 1.61,-0.2 q 5.36,7.05 9.78,14.75 0.7,1.23 -0.24,0.18 c -3.95,-4.41 -6.21,-9.97 -10.98,-13.38 a 0.51,0.5 -63.7 0 0 -0.78,0.27 c -0.82,2.67 7.67,16.01 9.68,18.77 q 2.76,3.78 5.36,7.7 z"
         inkscape:connector-curvature="0"
         style="fill:#d6d6d6" />
      <path
         id="path40218"
         d="m 247.96,157.5 -0.25,2 q -2.2,0.39 -2.66,-2.09 -1.16,-6.26 -1.64,-12.71 -0.03,-0.43 -0.24,-0.82 l -0.95,-1.76 a 0.62,0.62 0 0 1 0.35,-0.88 q 1.49,-0.49 1.44,-2.02 a 0.46,0.46 0 0 0 -0.5,-0.44 l -1.25,0.09 a 0.48,0.47 -88.5 0 1 -0.51,-0.54 l 0.33,-2.51 a 0.66,0.65 -87.9 0 1 0.61,-0.57 l 0.45,-0.03 a 0.89,0.89 0 0 0 0.81,-0.72 q 0.42,-2.2 -1.18,-3.61 a 1.81,1.76 12.4 0 1 -0.51,-0.77 l -1.49,-4.53 q -0.26,-0.79 -0.8,-0.16 l -0.62,0.73 a 0.98,0.97 -33 0 0 -0.2,0.93 c 0.25,0.8 2.08,5.37 1.89,5.79 a 0.41,0.41 0 0 1 -0.7,0.08 l -0.89,-1.16 q -0.31,-0.4 -0.4,-0.89 l -1.03,-5.24 a 0.78,0.77 63.9 0 1 0.24,-0.72 q 2.66,-2.44 2.92,-6 0.04,-0.65 0.56,-0.25 c 0.07,0.05 1.5,8.22 1.74,9.11 q 1.51,5.73 1.81,8.43 1.1,10.03 1.07,20.13 a 0.91,0.89 -75 0 0 0.44,0.78 q 0.53,0.32 1.16,0.35 z"
         inkscape:connector-curvature="0"
         style="fill:#ffffff" />
      <rect
         id="rect40220"
         rx="0.25999999"
         height="12.32"
         width="1.0599999"
         transform="rotate(-35.2,355.71426,-429.54884)"
         y="-6.1599998"
         x="-0.52999997"
         style="fill:#ffffff" />
      <path
         id="path40222"
         d="m 177.04,123.25 c 0.51,3.45 2.55,4.56 3.8,7.31 q 0.68,1.49 1.45,2.94 -1.57,1.57 -3.79,1.96 -1.06,-2.6 -1.61,-5.35 c -0.43,-2.15 -3.34,-5.71 -2.73,-7.43 q 0.18,-0.49 0.5,-0.09 1.06,1.29 2.38,0.66 z"
         inkscape:connector-curvature="0"
         style="fill:#d6d6d6" />
      <path
         id="path40224"
         d="m 338.25,182.46 c -10.5,10.6 -17.24,14.6 -30.32,3.82 a 0.56,0.56 0 0 0 -0.75,0.03 l -7.25,6.95 q -2.04,1.96 -4.86,2.26 -5.49,0.59 -6.1,-5.53 -0.43,-4.26 0.77,-22.68 a 0.38,0.38 0 0 0 -0.45,-0.4 l -11.49,2.01 a 0.81,0.81 0 0 0 -0.67,0.69 q -0.87,6.48 1.56,12.45 a 0.99,0.97 -40.7 0 1 -0.08,0.91 q -3.2,5.06 -8.32,8.2 a 0.76,0.74 -40.9 0 1 -0.85,-0.05 c -3.37,-2.71 -2.62,-14.34 -2.43,-20.48 A 0.62,0.61 -89.1 0 0 266.4,170 h -7.66 a 0.65,0.64 -89.5 0 0 -0.64,0.64 l -0.06,4.86 -0.01,10.9 a 1.74,1.68 -28.2 0 1 -0.32,0.99 q -3.09,4.42 -7.68,7.27 -2,1.24 -2.01,-1.11 l -0.03,-25.14 a 0.49,0.49 0 0 0 -0.59,-0.48 l -15.1,3.13 a 0.63,0.63 0 0 0 -0.5,0.65 q 0.41,7.27 2.97,14.07 a 1.06,1.05 52 0 1 -0.11,0.94 q -3.36,5.12 -8.64,8.28 a 1.19,1.18 -22.6 0 1 -1.76,-0.72 q -2.64,-10.46 -3.22,-21.21 a 0.58,0.58 0 0 0 -0.63,-0.55 l -7.59,0.61 q -1.7,0.14 -0.96,-1.39 l 1.43,-2.98 q 0.1,-0.2 -0.12,-0.15 l -6.09,1.35 a 0.59,0.58 80.7 0 0 -0.45,0.64 q 0.88,7.39 3,14.53 a 0.85,0.84 59.5 0 1 -0.21,0.83 l -6.21,6.29 q -1.31,1.43 -2.26,1.73 a 1.55,1.54 75.5 0 1 -2,-1.18 l -3.88,-20.89 -0.85,-8.08 a 0.8,0.79 85.2 0 1 0.74,-0.88 c 2.2,-0.13 3.69,-0.2 6.1,-0.83 q 2.02,-0.54 4.19,-0.41 7.3,-0.84 14.64,-2.78 a 0.65,0.64 -7.7 0 0 0.48,-0.62 c 0.05,-4.39 -0.94,-12.61 1.16,-16.37 q 2.73,-4.89 7.08,-6.88 a 1.21,1.21 0 0 1 1.71,1.07 l 0.61,25.22 a 0.54,0.54 0 0 0 0.54,0.53 q 8.37,-0.05 16.24,-2.38 l 0.25,-2 c 0.01,-4.27 -0.98,-13.86 1.2,-17.32 q 1.6,-2.54 3.41,-4.24 2.44,-2.3 4.93,-2.76 a 0.42,0.42 0 0 1 0.5,0.41 v 22.81 a 0.66,0.66 0 0 0 0.91,0.61 l 7.51,-3.02 a 0.88,0.87 -10.9 0 0 0.54,-0.79 c 0.08,-3.56 -0.59,-7.63 1.12,-10.77 q 2.74,-5.06 7.85,-7.41 a 0.76,0.75 -12.4 0 1 1.07,0.68 v 23.68 a 0.41,0.4 -2 0 0 0.44,0.4 l 11.67,-0.86 q 2.14,-0.16 2.27,-2.3 c 0.63,-10.18 -1.48,-18.72 9.91,-23.71 a 0.47,0.47 0 0 1 0.66,0.41 q 0.36,11.18 -1.57,22.19 -0.1,0.57 0.43,0.33 l 5.38,-2.52 a 1.05,1.03 -5 0 0 0.54,-0.63 q 1.89,-6 5.56,-11.19 c 3.53,-4.36 8.54,-9.94 14.14,-11.16 12.8,-2.78 24.76,5.15 24.66,18.99 q -0.14,18.8 -12.84,33.13 z m -19.62,-42.23 q -1.37,1.65 -1.55,3.6 l -1.04,3.67 c -2.11,10.31 -5.08,28.46 11.15,29.32 q 1.21,0.06 0.53,1.07 l -2.24,3.29 a 0.44,0.43 -64.5 0 0 0.23,0.66 c 2.72,0.81 6.46,1.77 8.77,-0.34 q 1.9,-1.74 1.83,-4.14 c 7.02,-13.48 8.98,-32.56 -10.06,-36.82 l -3.5,-0.5 q -1.91,-0.66 -4.12,0.19 z m -18.08,20.03 a 4.31,4.29 -20 0 0 -1.14,2.43 q -1.08,9.04 -0.29,17.56 c 0.2,2.06 -0.02,3.63 2.37,4.41 a 0.64,0.64 0 0 0 0.75,-0.29 c 3.27,-5.78 -2.66,-13.51 0.97,-20.19 q 2.28,-4.17 2.85,-9 0.1,-0.83 -0.47,-0.22 z m -42.77,4.4 a 0.58,0.57 -53.8 0 0 0.14,0.92 l 0.23,0.12 a 0.6,0.6 0 0 0 0.74,-0.13 q 3.27,-3.7 7.64,-5.92 a 1.03,1.02 76.1 0 0 0.56,-0.93 l -0.01,-1.94 q -0.01,-1.22 -0.88,-0.37 z"
         inkscape:connector-curvature="0"
         style="fill:#050505" />
      <path
         id="path40226"
         d="m 62.09,143.65 -5.28,2.28 a 0.43,0.42 -21.2 0 1 -0.57,-0.25 q -0.07,-0.22 -0.06,-0.48 0.01,-0.25 0.21,-0.51 9.87,-12.79 26.06,-12.67 2.93,0.02 4.28,1.55 c 4.92,5.55 -5.01,17.16 -8.68,21.1 q -0.35,0.37 0.15,0.31 c 7.79,-0.79 14.75,-3.38 17.44,6.69 q 2.25,8.41 2.34,15.58 c 0.13,10.02 -12.78,20.4 -21.74,21.96 q -10.95,1.9 -17.42,0.46 c -4.28,-0.96 -11.94,-4.25 -13.28,-8.73 -1.06,-3.56 4.88,-9.16 7.45,-10.8 a 2.62,2.6 -17.6 0 0 1.2,-2.3 q -0.48,-12.41 0.11,-23.31 c 0.29,-5.57 5.12,-6.96 8.13,-10.41 q 0.85,-0.98 -0.34,-0.47 z m 1.36,0.16 a 0.81,0.8 9.7 0 1 0.54,0.76 l 0.01,15.9 a 0.34,0.34 0 0 0 0.47,0.31 c 7.14,-2.99 16.09,-9.12 12.39,-18.27 a 0.78,0.77 79.8 0 0 -0.68,-0.48 q -6.59,-0.36 -12.99,1.31 -0.66,0.17 -0.01,0.38 z m 18.56,21.08 a 3.24,3.21 68.2 0 0 -1.89,-0.82 q -7.09,-0.54 -13.81,1.77 -2.16,0.74 -2.36,3.02 c -0.55,6.2 -0.17,14.76 2.99,20.16 a 1.63,1.63 0 0 0 1.25,0.8 q 9.39,0.82 18.62,-0.69 a 1.45,1.44 84.9 0 0 1.21,-1.45 c -0.12,-6.64 -0.76,-18.03 -6.01,-22.79 z"
         inkscape:connector-curvature="0"
         style="fill:#050505" />
      <path
         id="path40228"
         d="m 197.5,134.54 c 0.35,1.88 0.26,4.02 0.94,5.8 q 0.41,1.07 0.84,2.28 -4.35,3.03 -6.37,8.03 -0.19,0.48 -0.13,0.99 l 1.38,10.65 a 0.75,0.75 0 0 1 -0.55,0.82 q -3.9,1.09 -7.61,0.85 l -1.42,-10.52 c 2.2,-6.27 6.87,-15.52 12.92,-18.9 z"
         inkscape:connector-curvature="0"
         style="fill:#c7c7c7" />
      <path
         id="path40230"
         d="m 241.03,137.96 c -0.07,0.42 -0.17,0.86 -0.72,0.8 a 0.34,0.33 87.7 0 1 -0.3,-0.29 q -0.13,-1.04 0.14,-2.06 0.25,-0.94 0.83,-0.17 0.4,0.52 0.26,0.98 -0.2,0.71 -0.21,0.74 z"
         inkscape:connector-curvature="0"
         style="fill:#ffffff" />
      <path
         id="path40232"
         d="m 393.54,148 q -2.38,10 -3.25,20.25 -1.36,12.49 -0.54,17.25 0.7,4.1 5.29,3.25 0.72,-0.41 1.45,-0.35 a 0.4,0.4 0 0 1 0.34,0.55 q -0.78,1.91 -2.37,3.3 c -3.65,3.5 -8.06,8.88 -12.35,5.84 -6.38,-4.51 0.68,-39.24 2.57,-46.67 q 0.21,-0.81 -0.4,-0.24 -6.62,6.17 -12.11,12.69 c -2.69,3 -6.14,6.64 -6.9,10.45 -0.57,2.86 0.57,15.03 6.66,10.88 q 0.42,-0.29 0.45,0.22 c 0.12,2.67 -6.96,8.49 -8.38,9.61 -4.29,3.38 -5.97,0.24 -7.96,-3.03 l -0.41,-1.51 q -0.13,-0.49 -0.48,-0.13 l -3.15,3.18 -4.52,4.8 q -4.28,1.5 -1.44,-3.59 l 4.67,-7.25 1.58,-2.5 q 2.24,-2.64 1.96,-7.25 -0.72,-11.8 -1.93,-23.56 c -0.83,-8.2 0.66,-13.9 8.77,-17.08 a 0.47,0.46 76 0 1 0.63,0.38 q 1.74,14.98 2.46,30.03 0.04,0.93 0.66,0.23 l 8.45,-9.75 q 5.37,-5.14 10.73,-10.29 c 0.92,-0.88 2,-0.99 1.94,-2.71 0.41,-2.96 4.98,-6.61 7.47,-8.32 q 0.74,-0.4 1.76,-0.4 a 0.57,0.56 86.6 0 1 0.56,0.5 q 0.15,1.2 -0.76,2.06 a 0.32,0.31 -48.8 0 0 0.03,0.48 l 1.83,1.29 a 0.55,0.55 0 0 1 0.02,0.89 q -3.11,2.43 -3.33,6.5 z"
         inkscape:connector-curvature="0"
         style="fill:#050505" />
      <path
         id="path40234"
         d="m 145.78,137.95 a 1.13,1.13 0 0 1 1.09,0.83 q 1.46,5.17 1.08,10.55 a 0.58,0.57 88.2 0 1 -0.5,0.54 q -4.74,0.64 -8.94,2.89 a 0.32,0.32 0 0 1 -0.47,-0.28 l -0.15,-13.93 a 0.62,0.62 0 0 1 0.62,-0.62 z"
         inkscape:connector-curvature="0"
         style="fill:#ffffff" />
      <path
         id="path40236"
         d="m 180.75,139.71 q 0.72,-0.15 1.21,0.25 a 0.95,0.94 -67.9 0 1 0.35,0.83 l -0.78,7.25 q -3.93,6.13 -6.85,12.98 -0.6,1.41 -1.08,-0.05 -2.51,-7.7 -9.89,-11.69 -1.61,-0.87 -8.1,-0.36 -0.83,0.06 -0.39,-0.64 l 1.56,-2.48 a 0.8,0.8 0 0 1 0.85,-0.36 q 13.08,2.73 23.12,-5.73 z"
         inkscape:connector-curvature="0"
         style="fill:#ffffff" />
      <path
         id="path40238"
         d="m 322.75,140.04 q -0.1,3.47 2.95,4.72 a 0.33,0.33 0 0 0 0.45,-0.3 l 0.1,-3.92 c 19.04,4.26 17.08,23.34 10.06,36.82 q -5.97,-10.1 -11.6,-20.32 c -1.99,-3.63 -6.01,-6.1 -8.67,-9.54 l 1.04,-3.67 q 3.88,3.16 7.03,7.06 c 0.11,0.14 0.52,0.17 0.65,0.1 a 0.52,0.52 0 0 0 0.2,-0.74 l -6.33,-10.02 q 2.21,-0.85 4.12,-0.19 z"
         inkscape:connector-curvature="0"
         style="fill:#d6d6d6" />
      <path
         id="path40240"
         d="m 322.75,140.04 3.5,0.5 -0.1,3.92 a 0.33,0.33 0 0 1 -0.45,0.3 q -3.05,-1.25 -2.95,-4.72 z"
         inkscape:connector-curvature="0"
         style="fill:#ffffff" />
      <path
         id="path40242"
         d="m 318.63,140.23 6.33,10.02 a 0.52,0.52 0 0 1 -0.2,0.74 c -0.13,0.07 -0.54,0.04 -0.65,-0.1 q -3.15,-3.9 -7.03,-7.06 0.18,-1.95 1.55,-3.6 z"
         inkscape:connector-curvature="0"
         style="fill:#ffffff" />
      <path
         id="path40244"
         d="m 63.45,143.81 -0.27,-0.09 q -0.65,-0.21 0.01,-0.38 6.4,-1.67 12.99,-1.31 a 0.78,0.77 79.8 0 1 0.68,0.48 c 3.7,9.15 -5.25,15.28 -12.39,18.27 A 0.34,0.34 0 0 1 64,160.47 l -0.01,-15.9 a 0.81,0.8 9.7 0 0 -0.54,-0.76 z"
         inkscape:connector-curvature="0"
         style="fill:#ffffff" />
      <path
         id="path40246"
         d="m 316.04,147.5 c 2.66,3.44 6.68,5.91 8.67,9.54 q 5.63,10.22 11.6,20.32 0.07,2.4 -1.83,4.14 c -2.31,2.11 -6.05,1.15 -8.77,0.34 a 0.44,0.43 -64.5 0 1 -0.23,-0.66 l 2.24,-3.29 q 0.68,-1.01 -0.53,-1.07 c -16.23,-0.86 -13.26,-19.01 -11.15,-29.32 z"
         inkscape:connector-curvature="0"
         style="fill:#ffffff" />
      <path
         id="path40248"
         d="m 393.54,148 c 1.39,-0.31 3.17,3.24 4.49,4.22 a 0.86,0.85 -37.2 0 0 0.85,0.11 c 3.07,-1.31 8.9,2.94 10.77,4.58 a 1.86,1.81 12.9 0 1 0.53,0.82 c 2.67,8.91 5.81,18.4 11.71,25.71 q 2.05,2.54 3.11,4.97 5.08,11.74 10.85,23.16 a 0.48,0.48 0 0 1 -0.23,0.66 q -1.77,0.79 -3.68,0.77 h -36 l 0.62,-0.28 a 0.67,0.65 -18.2 0 0 0.37,-0.71 q -1.59,-8.76 -1.13,-17.67 a 1.21,1.2 -63.8 0 0 -0.29,-0.86 l -1.05,-1.23 q 1.59,-1.39 2.37,-3.3 a 0.4,0.4 0 0 0 -0.34,-0.55 q -0.73,-0.06 -1.45,0.35 -0.45,-2.49 -0.39,-5.01 c 0.11,-4.78 -1.46,-9.48 -2.13,-14.19 a 0.84,0.83 -84.2 0 0 -0.54,-0.67 l -1.69,-0.63 Q 391.16,158 393.54,148 Z"
         inkscape:connector-curvature="0"
         style="fill:#d6d6d6" />
      <path
         id="path40250"
         d="m 394.46,192.25 1.05,1.23 a 1.21,1.2 -63.8 0 1 0.29,0.86 q -0.46,8.91 1.13,17.67 a 0.67,0.65 -18.2 0 1 -0.37,0.71 l -0.62,0.28 h -14.75 q -1.1,-5.25 -2.19,-10.51 -0.66,-3.15 0.24,-15.12 a 1.61,1.59 30.3 0 0 -0.27,-1.01 l -0.76,-1.09 a 2.09,2.06 26.2 0 1 -0.35,-1.01 q -0.69,-10.79 -5.69,-20.39 5.49,-6.52 12.11,-12.69 0.61,-0.57 0.4,0.24 c -1.89,7.43 -8.95,42.16 -2.57,46.67 4.29,3.04 8.7,-2.34 12.35,-5.84 z"
         inkscape:connector-curvature="0"
         style="fill:#c7c7c7" />
      <path
         id="path40252"
         d="m 184.58,153.44 1.42,10.52 -4.94,0.43 a 0.36,0.36 0 0 1 -0.39,-0.44 q 1.25,-5.45 3.91,-10.51 z"
         inkscape:connector-curvature="0"
         style="fill:#ffffff" />
      <path
         id="path40254"
         d="m 300.55,160.26 5.04,-5.3 q 0.57,-0.61 0.47,0.22 -0.57,4.83 -2.85,9 c -3.63,6.68 2.3,14.41 -0.97,20.19 a 0.64,0.64 0 0 1 -0.75,0.29 c -2.39,-0.78 -2.17,-2.35 -2.37,-4.41 q -0.79,-8.52 0.29,-17.56 a 4.31,4.29 -20 0 1 1.14,-2.43 z"
         inkscape:connector-curvature="0"
         style="fill:#ffffff" />
      <path
         id="path40256"
         d="m 257.78,164.66 8.42,-8.25 q 0.87,-0.85 0.88,0.37 l 0.01,1.94 a 1.03,1.02 76.1 0 1 -0.56,0.93 q -4.37,2.22 -7.64,5.92 a 0.6,0.6 0 0 1 -0.74,0.13 l -0.23,-0.12 a 0.58,0.57 -53.8 0 1 -0.14,-0.92 z"
         inkscape:connector-curvature="0"
         style="fill:#ffffff" />
      <path
         id="path40258"
         d="m 143.29,169 -5.49,2.1 a 0.55,0.54 79 0 1 -0.73,-0.5 l -0.1,-4.11 a 0.94,0.93 -19.2 0 1 0.38,-0.77 l 7.47,-5.63 q 1.34,-1.01 3.01,-1.19 3.47,-0.36 6.26,0.42 c 7.7,2.17 10.88,11.9 9.81,19.14 a 1.12,1.11 -11.9 0 1 -0.5,0.76 c -6.7,4.21 -18.94,5.02 -26.68,4.75 q -2.69,-0.09 -0.97,-2.17 1.33,-1.6 1.4,-3.63 a 1.72,1.71 -24.4 0 1 0.39,-1.03 c 1.06,-1.24 6.7,-6.6 6.5,-7.72 A 0.56,0.55 -15.1 0 0 143.29,169 Z"
         inkscape:connector-curvature="0"
         style="fill:#ffffff" />
      <path
         id="path40260"
         d="m 82.01,164.89 c 5.25,4.76 5.89,16.15 6.01,22.79 a 1.45,1.44 84.9 0 1 -1.21,1.45 q -9.23,1.51 -18.62,0.69 a 1.63,1.63 0 0 1 -1.25,-0.8 c -3.16,-5.4 -3.54,-13.96 -2.99,-20.16 q 0.2,-2.28 2.36,-3.02 6.72,-2.31 13.81,-1.77 a 3.24,3.21 68.2 0 1 1.89,0.82 z"
         inkscape:connector-curvature="0"
         style="fill:#ffffff" />
      <path
         id="path40262"
         d="m 372.17,163.87 q 5,9.6 5.69,20.39 a 2.09,2.06 26.2 0 0 0.35,1.01 l 0.76,1.09 a 1.61,1.59 30.3 0 1 0.27,1.01 q -0.9,11.97 -0.24,15.12 1.09,5.26 2.19,10.51 h -15.25 l -0.64,-0.4 a 1.33,1.32 -82 0 1 -0.57,-0.76 q -1.19,-4.18 -3.21,-8.02 c -1.68,-3.18 -4.86,-5.41 -6.45,-9.34 a 1.08,1.06 -41.8 0 1 0.06,-0.92 l 0.91,-1.56 c 1.99,3.27 3.67,6.41 7.96,3.03 1.42,-1.12 8.5,-6.94 8.38,-9.61 q -0.03,-0.51 -0.45,-0.22 c -6.09,4.15 -7.23,-8.02 -6.66,-10.88 0.76,-3.81 4.21,-7.45 6.9,-10.45 z"
         inkscape:connector-curvature="0"
         style="fill:#d6d6d6" />
      <path
         id="path40264"
         d="m 338.25,182.46 0.31,0.05 a 0.51,0.51 0 0 1 0.36,0.25 c 2.24,3.86 3.68,9.23 7.12,11.99 q -2.84,5.09 1.44,3.59 1.31,3.15 3.93,1.94 a 1.34,1.29 -49.6 0 1 0.9,-0.09 l 1.88,0.45 q 0.98,0.23 0.58,-0.7 l -2.77,-6.4 3.15,-3.18 q 0.35,-0.36 0.48,0.13 l 0.41,1.51 -0.91,1.56 a 1.08,1.06 -41.8 0 0 -0.06,0.92 c 1.59,3.93 4.77,6.16 6.45,9.34 q 2.02,3.84 3.21,8.02 a 1.33,1.32 -82 0 0 0.57,0.76 l 0.64,0.4 H 252.19 q 3.46,-0.75 6.99,-0.33 a 0.65,0.63 6.1 0 0 0.72,-0.57 l 0.12,-1.27 q 0.11,-1.1 -0.79,-0.46 l -0.33,0.24 q -0.36,0.25 -0.79,0.33 l -3.75,0.71 a 0.96,0.95 83.5 0 1 -1.12,-0.9 l -0.23,-5.14 a 0.6,0.6 0 0 1 0.64,-0.63 l 1.18,0.09 a 0.4,0.39 -4.9 0 0 0.41,-0.48 q -0.7,-3.21 0.22,-6.41 a 0.83,0.8 -57.6 0 0 -0.15,-0.73 l -1.58,-1.96 q -0.77,-0.94 0.45,-0.9 l 1.5,0.05 a 0.58,0.58 0 0 1 0.56,0.6 l -0.2,5.3 a 0.59,0.59 0 0 0 0.79,0.58 l 1.89,-0.69 a 0.71,0.7 -19.4 0 0 0.43,-0.88 q -0.92,-2.93 0.14,-5.73 a 0.46,0.46 0 0 1 0.76,-0.15 l 0.8,0.83 q 0.72,0.75 0.81,-0.28 c 0.28,-3.17 1,-20.75 -1.59,-21.4 a 0.5,0.5 0 0 0 -0.61,0.38 q -0.35,1.45 -1.42,2.3 l 0.06,-4.86 a 0.65,0.64 -89.5 0 1 0.64,-0.64 h 7.66 a 0.62,0.61 -89.1 0 1 0.61,0.64 c -0.19,6.14 -0.94,17.77 2.43,20.48 a 0.76,0.74 -40.9 0 0 0.85,0.05 q 5.12,-3.14 8.32,-8.2 a 0.99,0.97 -40.7 0 0 0.08,-0.91 q -2.43,-5.97 -1.56,-12.45 a 0.81,0.81 0 0 1 0.67,-0.69 l 11.49,-2.01 a 0.38,0.38 0 0 1 0.45,0.4 q -1.2,18.42 -0.77,22.68 0.61,6.12 6.1,5.53 2.82,-0.3 4.86,-2.26 l 7.25,-6.95 a 0.56,0.56 0 0 1 0.75,-0.03 c 13.08,10.78 19.82,6.78 30.32,-3.82 z"
         inkscape:connector-curvature="0"
         style="fill:#ffffff" />
      <path
         id="path40266"
         d="m 258.04,175.5 q 1.07,-0.85 1.42,-2.3 a 0.5,0.5 0 0 1 0.61,-0.38 c 2.59,0.65 1.87,18.23 1.59,21.4 q -0.09,1.03 -0.81,0.28 l -0.8,-0.83 a 0.46,0.46 0 0 0 -0.76,0.15 q -1.06,2.8 -0.14,5.73 a 0.71,0.7 -19.4 0 1 -0.43,0.88 l -1.89,0.69 a 0.59,0.59 0 0 1 -0.79,-0.58 l 0.2,-5.3 a 0.58,0.58 0 0 0 -0.56,-0.6 l -1.5,-0.05 q -1.22,-0.04 -0.45,0.9 l 1.58,1.96 a 0.83,0.8 -57.6 0 1 0.15,0.73 q -0.92,3.2 -0.22,6.41 a 0.4,0.39 -4.9 0 1 -0.41,0.48 l -1.18,-0.09 a 0.6,0.6 0 0 0 -0.64,0.63 l 0.23,5.14 a 0.96,0.95 83.5 0 0 1.12,0.9 l 3.75,-0.71 q 0.43,-0.08 0.79,-0.33 l 0.33,-0.24 q 0.9,-0.64 0.79,0.46 l -0.12,1.27 a 0.65,0.63 6.1 0 1 -0.72,0.57 q -3.53,-0.42 -6.99,0.33 h -49 q 0.62,-10.38 0.02,-20.75 l 6.21,-6.29 a 0.85,0.84 59.5 0 0 0.21,-0.83 q -2.12,-7.14 -3,-14.53 a 0.59,0.58 80.7 0 1 0.45,-0.64 l 6.09,-1.35 q 0.22,-0.05 0.12,0.15 l -1.43,2.98 q -0.74,1.53 0.96,1.39 l 7.59,-0.61 a 0.58,0.58 0 0 1 0.63,0.55 q 0.58,10.75 3.22,21.21 a 1.19,1.18 -22.6 0 0 1.76,0.72 q 5.28,-3.16 8.64,-8.28 a 1.06,1.05 52 0 0 0.11,-0.94 q -2.56,-6.8 -2.97,-14.07 a 0.63,0.63 0 0 1 0.5,-0.65 l 15.1,-3.13 a 0.49,0.49 0 0 1 0.59,0.48 l 0.03,25.14 q 0.01,2.35 2.01,1.11 4.59,-2.85 7.68,-7.27 a 1.74,1.68 -28.2 0 0 0.32,-0.99 z"
         inkscape:connector-curvature="0"
         style="fill:#d6d6d6" />
      <path
         id="path40268"
         d="m 390.29,168.25 1.69,0.63 a 0.84,0.83 -84.2 0 1 0.54,0.67 c 0.67,4.71 2.24,9.41 2.13,14.19 q -0.06,2.52 0.39,5.01 -4.59,0.85 -5.29,-3.25 -0.82,-4.76 0.54,-17.25 z"
         inkscape:connector-curvature="0"
         style="fill:#c7c7c7" />
      <path
         id="path40270"
         d="m 195.07,171.91 3.88,20.89 a 1.55,1.54 75.5 0 0 2,1.18 q 0.95,-0.3 2.26,-1.73 0.6,10.37 -0.02,20.75 h -17 q 1.17,-6.06 0.37,-12.3 -0.06,-0.51 -0.41,-0.13 c -2.53,2.69 -2.02,8.7 -2.96,12.43 l -0.32,0.01 q -1.16,-10.14 2.23,-19.76 c 1.59,-1.26 6.13,-5.52 5.85,-7.71 a 0.32,0.32 0 0 0 -0.47,-0.24 l -4.44,2.45 c -3.3,-3.63 -2.16,-9.74 -2.08,-14.25 z"
         inkscape:connector-curvature="0"
         style="fill:#c7c7c7" />
      <path
         id="path40272"
         d="m 183.96,173.5 c -0.08,4.51 -1.22,10.62 2.08,14.25 -9.84,2.12 -7.94,-7.75 -8.06,-13.21 a 0.73,0.73 0 0 1 0.69,-0.74 z"
         inkscape:connector-curvature="0"
         style="fill:#ffffff" />
      <path
         id="path40274"
         d="m 352.29,185 -1.58,2.5 q -1.2,-0.16 -1.44,-1.28 a 0.69,0.67 86.8 0 0 -0.57,-0.52 q -1.2,-0.15 -1.81,-1.26 -1.1,-2.02 0.41,-3.75 l 0.44,-0.5 a 0.5,0.5 0 0 1 0.76,0.02 z"
         inkscape:connector-curvature="0"
         style="fill:#ffffff" />
      <path
         id="path40276"
         d="m 352,193.54 2.77,6.4 q 0.4,0.93 -0.58,0.7 l -1.88,-0.45 a 1.34,1.29 -49.6 0 0 -0.9,0.09 q -2.62,1.21 -3.93,-1.94 z"
         inkscape:connector-curvature="0"
         style="fill:#d6d6d6" />
      <path
         id="path40278"
         d="m 186.19,213 h -3 c 0.94,-3.73 0.43,-9.74 2.96,-12.43 q 0.35,-0.38 0.41,0.13 0.8,6.24 -0.37,12.3 z"
         inkscape:connector-curvature="0"
         style="fill:#ffffff" />
    </g>
  </g>
</svg>
