<?xml version="1.0" encoding="UTF-8" standalone="no"?>
<!DOCTYPE svg PUBLIC "-//W3C//DTD SVG 1.1//EN" "http://www.w3.org/Graphics/SVG/1.1/DTD/svg11.dtd">
<svg xmlns="http://www.w3.org/2000/svg" version="1.1" viewBox="0 0 450 414">
<g stroke-width="2.00" fill="none" stroke-linecap="butt">
<path stroke="#e9e9e9" vector-effect="non-scaling-stroke" d="
  M 169.06 0.00
  L 160.27 0.91
  Q 157.25 1.22 156.91 4.23
  Q 155.71 14.69 157.74 24.87
  A 0.75 0.74 76.3 0 1 157.23 25.73
  L 145.80 29.24
  Q 144.79 29.55 143.87 30.09
  C 141.42 31.52 138.54 30.80 136.44 31.09
  Q 132.79 31.59 129.10 31.74
  Q 129.08 31.74 129.08 31.76
  L 128.95 32.15
  A 0.59 0.59 0.0 0 1 128.45 32.55
  Q 127.62 32.65 127.46 31.75"
/>
<path stroke="#858585" vector-effect="non-scaling-stroke" d="
  M 127.46 31.75
  L 128.20 9.70
  A 0.32 0.32 0.0 0 0 127.75 9.39
  C 122.91 11.46 115.66 16.70 115.34 22.44
  Q 115.07 27.10 114.73 31.77"
/>
<path stroke="#e9e9e9" vector-effect="non-scaling-stroke" d="
  M 114.73 31.77
  Q 100.84 29.19 86.75 30.06
  Q 83.62 30.26 74.71 27.14"
/>
<path stroke="#858585" vector-effect="non-scaling-stroke" d="
  M 74.71 27.14
  Q 71.84 26.39 69.25 29.79"
/>
<path stroke="#e9e9e9" vector-effect="non-scaling-stroke" d="
  M 69.25 29.79
  L 68.93 29.76
  A 0.50 0.49 -87.3 0 1 68.50 29.28
  L 68.50 28.96
  A 0.19 0.19 0.0 0 0 68.31 28.77
  Q 66.00 28.75 63.67 28.74
  C 61.06 28.73 58.82 30.06 55.95 29.96
  Q 54.97 29.93 55.76 29.35
  L 56.99 28.46
  A 1.04 1.01 -14.6 0 0 57.41 27.77
  C 57.93 24.55 48.58 24.78 46.40 25.00
  C 34.35 26.21 22.12 27.58 10.00 27.45
  Q 5.00 27.39 0.00 27.69"
/>
<path stroke="#e9e9e9" vector-effect="non-scaling-stroke" d="
  M 173.31 0.00
  Q 179.81 0.76 186.31 0.00"
/>
<path stroke="#e9e9e9" vector-effect="non-scaling-stroke" d="
  M 190.56 0.00
  Q 193.01 0.32 192.94 2.68
  A 0.66 0.65 -80.5 0 0 193.39 3.32
  L 193.73 3.44
  A 0.58 0.57 18.3 0 0 194.46 3.08
  L 195.20 0.90
  A 0.90 0.90 0.0 0 1 196.02 0.29
  Q 201.36 0.15 206.36 1.91
  A 1.00 0.99 -86.9 0 1 207.01 2.64
  C 208.52 9.30 207.56 16.83 207.98 23.69
  A 0.54 0.54 0.0 0 0 208.51 24.20
  Q 233.60 24.52 258.68 24.54
  C 265.93 24.55 275.85 25.61 283.69 24.91
  Q 292.88 24.09 297.33 23.81
  C 301.59 23.54 306.41 22.54 311.50 23.74
  A 0.84 0.83 2.2 0 1 312.13 24.41
  L 312.63 27.24
  A 0.62 0.62 0.0 0 1 312.30 27.90
  C 311.23 28.43 308.51 30.28 307.84 28.64
  A 0.66 0.66 0.0 0 1 308.12 27.82
  L 309.50 27.03
  A 0.45 0.45 0.0 0 0 309.51 26.25
  Q 308.61 25.71 307.74 26.25
  Q 307.36 26.49 307.11 26.86
  Q 306.21 28.20 304.60 28.34
  A 0.51 0.50 -7.9 0 1 304.05 27.93
  L 303.74 26.25
  A 0.93 0.93 0.0 0 0 303.00 25.50
  Q 297.55 24.51 292.56 26.94
  Q 290.92 27.74 292.68 28.24
  Q 295.67 29.08 298.84 28.66
  A 0.55 0.54 81.9 0 1 299.45 29.12
  L 299.51 29.45
  A 0.59 0.59 0.0 0 1 299.01 30.12
  C 296.76 30.44 288.77 29.97 287.61 30.77
  A 1.45 1.44 28.5 0 1 286.72 31.03
  Q 280.92 30.84 273.24 29.28
  C 270.78 28.77 268.58 30.86 266.47 29.35
  A 0.41 0.40 -64.4 0 0 265.85 29.57
  Q 265.39 31.11 263.74 31.28
  A 0.27 0.26 -3.7 0 0 263.50 31.54
  L 263.50 31.84
  A 0.43 0.43 0.0 0 0 263.90 32.27
  C 281.45 33.57 297.52 33.89 316.16 33.07
  C 342.05 31.93 371.39 33.94 394.59 34.29
  Q 400.84 34.38 407.06 33.65
  C 411.54 33.11 416.25 33.51 420.88 32.89
  C 424.37 32.42 427.00 33.14 430.29 33.75
  C 436.37 34.87 442.86 34.13 449.07 34.32
  A 0.60 0.59 -4.3 0 1 449.63 34.80
  L 450.00 36.81"
/>
<path stroke="#e9e9e9" vector-effect="non-scaling-stroke" d="
  M 450.00 221.56
  Q 450.14 223.88 448.71 223.96
  Q 440.57 224.46 432.43 224.98
  C 427.03 225.32 422.03 224.76 416.75 224.20
  C 411.77 223.67 404.91 229.43 402.23 221.45
  A 0.66 0.66 0.0 0 0 401.49 221.01
  L 394.68 222.19
  A 1.94 1.88 -71.0 0 0 393.70 222.69
  L 392.43 223.93
  A 1.70 1.66 -69.9 0 1 391.49 224.38
  Q 385.87 225.13 380.61 223.26
  A 1.94 1.88 47.9 0 0 379.58 223.19
  C 361.58 227.18 343.34 225.76 325.12 224.71
  C 321.60 224.51 318.95 222.60 314.74 222.58
  Q 305.00 222.53 292.59 220.83
  C 288.96 220.33 285.03 220.82 281.17 220.44
  Q 273.10 219.62 272.66 219.61
  C 254.05 218.76 235.45 217.84 216.89 216.18
  C 206.84 215.29 198.34 216.64 189.00 216.29
  Q 185.54 216.17 182.24 214.94
  Q 180.07 214.13 180.03 216.45
  L 179.88 225.13
  A 0.65 0.64 -2.5 0 1 179.30 225.76
  C 177.71 225.90 177.03 222.06 176.96 220.94
  A 0.46 0.45 82.0 0 0 176.41 220.52
  L 175.33 220.77
  A 1.14 1.13 -4.1 0 1 173.94 219.57
  L 174.23 215.88
  A 0.35 0.34 -87.7 0 0 173.89 215.50
  L 173.60 215.49
  A 0.45 0.44 -86.3 0 0 173.16 215.88
  Q 172.52 222.19 173.22 228.47
  A 0.58 0.58 0.0 0 0 173.76 228.98
  L 175.00 229.04"
/>
<path stroke="#6f6f6f" vector-effect="non-scaling-stroke" d="
  M 175.00 229.04
  L 152.30 240.17
  A 1.06 1.06 0.0 0 1 150.78 239.24
  L 150.69 233.26
  A 1.06 1.06 0.0 0 0 149.12 232.35
  Q 141.83 236.35 137.85 243.16
  C 136.31 245.79 136.15 249.19 135.29 252.25"
/>
<path stroke="#e9e9e9" vector-effect="non-scaling-stroke" d="
  M 135.29 252.25
  L 135.37 248.93
  A 0.49 0.49 0.0 0 0 134.87 248.43
  Q 132.64 248.49 132.21 246.51
  C 131.18 241.65 132.49 231.72 130.57 223.34
  A 0.44 0.43 82.3 0 0 130.12 222.99
  C 128.49 223.05 131.35 238.46 129.31 238.31
  A 0.59 0.59 0.0 0 1 128.77 237.82
  Q 128.68 237.36 128.25 237.25
  Q 125.77 236.66 125.65 238.23
  L 125.06 245.56
  A 1.20 1.20 0.0 0 1 124.65 246.37
  Q 121.84 248.80 118.29 249.50"
/>
<path stroke="#6f6f6f" vector-effect="non-scaling-stroke" d="
  M 118.29 249.50
  Q 119.65 240.74 117.57 232.15"
/>
<path stroke="#e9e9e9" vector-effect="non-scaling-stroke" d="
  M 117.57 232.15
  Q 118.06 223.29 117.09 213.94
  A 0.52 0.51 -4.6 0 0 116.54 213.48
  Q 111.25 213.80 100.49 214.94
  C 94.63 215.56 89.07 213.89 83.38 213.73
  Q 77.81 213.57 71.75 212.73
  C 70.32 212.53 68.82 213.10 67.42 212.90
  Q 59.51 211.76 51.66 212.77
  C 47.10 213.36 43.23 213.47 38.98 213.86
  C 33.15 214.40 27.43 213.38 21.51 213.51
  C 14.64 213.67 8.10 212.18 1.13 212.35
  A 0.58 0.57 85.5 0 1 0.55 211.85
  L 0.00 207.94"
/>
<path stroke="#e9e9e9" vector-effect="non-scaling-stroke" d="
  M 0.00 47.94
  L 0.38 47.15
  A 0.88 0.88 0.0 0 1 1.14 46.65
  Q 5.62 46.49 16.50 47.02
  Q 26.06 47.48 41.50 45.55
  Q 41.99 45.49 42.13 45.14
  A 0.59 0.59 0.0 0 0 41.84 44.38
  Q 40.40 43.70 38.99 44.01
  Q 31.11 45.75 23.81 43.73
  A 0.54 0.54 0.0 0 0 23.17 44.03
  C 21.84 47.18 11.25 45.53 8.18 45.01
  Q 4.13 44.33 0.03 45.41"
/>
<path stroke="#6f6f6f" vector-effect="non-scaling-stroke" d="
  M 69.25 29.79
  L 62.72 36.37
  A 3.39 3.38 -22.7 0 0 61.74 38.75
  C 61.77 71.94 62.54 105.53 61.29 138.86
  Q 61.27 139.37 61.01 139.81
  L 59.65 142.11
  A 1.82 1.79 58.5 0 0 59.41 143.15
  Q 59.51 144.57 60.80 144.68
  A 0.60 0.59 -88.4 0 1 61.35 145.27
  Q 61.63 160.39 62.07 175.50
  Q 62.21 180.37 63.66 184.93
  A 0.36 0.35 62.9 0 0 64.21 185.11
  C 70.20 180.69 77.62 176.76 76.26 167.98
  C 74.95 159.48 74.73 150.80 74.76 142.15
  A 0.76 0.75 83.8 0 1 75.35 141.41
  L 105.15 135.05
  A 1.34 1.34 0.0 0 1 106.76 136.47
  C 105.31 153.77 103.69 172.00 104.04 189.76
  A 0.72 0.72 0.0 0 0 104.86 190.46
  C 111.51 189.48 118.50 180.23 118.38 173.50
  Q 118.04 155.36 119.21 137.25
  C 119.72 129.44 123.37 126.33 128.28 121.04
  Q 128.95 120.32 127.96 120.38
  L 121.38 120.83
  A 1.13 1.12 0.9 0 1 120.18 119.60
  C 120.63 114.83 121.40 109.97 121.71 105.48
  C 123.43 80.90 124.80 56.24 127.46 31.75"
/>
<path stroke="#e9e9e9" vector-effect="non-scaling-stroke" d="
  M 204.54 17.28
  C 204.82 18.55 204.38 24.07 205.68 24.47
  A 0.28 0.27 8.6 0 0 206.04 24.21
  L 206.10 5.05
  A 4.22 4.22 0.0 0 0 205.22 2.47
  L 204.98 2.16
  Q 204.43 1.43 204.27 2.33
  Q 202.94 9.85 204.54 17.28"
/>
<path stroke="#e9e9e9" vector-effect="non-scaling-stroke" d="
  M 165.23 25.59
  L 167.35 25.87
  A 0.38 0.38 0.0 0 0 167.77 25.43
  L 165.29 12.38
  A 0.49 0.49 0.0 0 0 164.81 11.99
  L 164.54 11.99
  A 0.52 0.52 0.0 0 0 164.02 12.48
  Q 163.89 14.85 164.93 16.98
  Q 165.12 17.37 165.09 17.80
  L 164.65 24.88
  A 0.67 0.67 0.0 0 0 165.23 25.59"
/>
<path stroke="#e9e9e9" vector-effect="non-scaling-stroke" d="
  M 202.8631 24.2074
  A 2.94 0.83 87.6 0 0 203.5693 21.2352
  A 2.94 0.83 87.6 0 0 202.6169 18.3326
  A 2.94 0.83 87.6 0 0 201.9107 21.3048
  A 2.94 0.83 87.6 0 0 202.8631 24.2074"
/>
<path stroke="#c3c3c3" vector-effect="non-scaling-stroke" d="
  M 192.76 30.56
  C 193.79 30.61 195.43 31.94 194.51 33.14
  A 1.53 1.50 -26.6 0 0 194.21 34.01
  C 194.18 36.01 194.48 50.85 195.77 51.53
  A 0.76 0.76 0.0 0 0 196.62 51.43
  C 204.51 44.67 202.62 34.72 201.37 25.65
  A 1.21 1.20 84.7 0 0 200.13 24.61
  L 169.60 25.92
  A 1.79 1.78 86.4 0 0 167.90 27.85
  C 168.04 29.56 167.83 36.96 168.49 37.89
  Q 168.78 38.29 168.84 38.79
  C 169.29 43.10 170.13 48.15 173.70 50.93
  C 183.90 58.89 186.06 49.48 181.75 42.40
  A 0.46 0.45 -28.5 0 1 181.95 41.75
  C 183.78 40.92 184.65 42.16 184.74 43.92
  C 184.95 48.17 185.01 51.85 189.88 53.21
  Q 191.75 53.74 191.97 51.80
  C 192.48 47.33 193.76 40.69 191.85 36.54
  A 0.80 0.80 0.0 0 0 191.14 36.08
  C 189.59 36.05 186.13 36.00 186.00 35.33
  A 0.43 0.43 0.0 0 1 186.42 34.82
  L 192.06 34.74
  A 0.50 0.50 0.0 0 0 192.55 34.19
  L 192.28 31.06
  A 0.46 0.46 0.0 0 1 192.76 30.56"
/>
<path stroke="#c3c3c3" vector-effect="non-scaling-stroke" d="
  M 161.00 46.10
  C 162.53 48.23 164.87 48.78 167.04 50.49
  A 0.32 0.32 0.0 0 0 167.55 50.30
  C 168.32 46.86 164.17 46.67 164.29 43.27
  C 164.50 37.30 166.47 33.46 164.20 27.32
  Q 163.48 25.38 161.45 25.75
  L 158.12 26.35
  A 0.57 0.57 0.0 0 0 157.72 27.18
  L 158.77 29.21
  A 0.66 0.66 0.0 0 1 158.57 30.04
  L 157.71 30.67
  A 1.01 0.99 68.1 0 0 157.32 31.61
  C 158.00 36.53 158.01 41.96 161.00 46.10"
/>
<path stroke="#e9e9e9" vector-effect="non-scaling-stroke" d="
  M 54.64 28.22
  Q 55.00 27.98 55.19 27.63
  A 0.42 0.42 0.0 0 0 54.88 27.01
  C 52.82 26.71 52.34 28.10 50.62 28.61
  A 0.40 0.40 0.0 0 1 50.12 28.33
  L 49.62 26.61
  A 0.86 0.86 0.0 0 0 48.82 25.98
  Q 43.75 25.86 39.23 28.04
  A 0.79 0.78 -29.4 0 0 38.91 29.17
  C 38.93 29.20 48.40 30.15 48.89 30.16
  C 50.39 30.16 53.74 30.22 54.20 28.82
  A 1.17 1.12 82.5 0 1 54.64 28.22"
/>
<path stroke="#e9e9e9" vector-effect="non-scaling-stroke" d="
  M 226.48 36.52
  C 224.53 36.39 222.51 35.60 220.48 35.34
  Q 219.99 35.27 219.59 34.99
  C 217.33 33.43 210.02 30.37 209.12 34.98
  Q 208.80 36.65 210.41 36.09
  C 212.89 35.22 214.25 36.14 216.32 36.48
  Q 221.36 37.32 226.47 37.83
  A 0.49 0.49 0.0 0 0 227.01 37.33
  L 227.00 37.05
  A 0.55 0.54 1.2 0 0 226.48 36.52"
/>
<path stroke="#e9e9e9" vector-effect="non-scaling-stroke" d="
  M 430.79 40.98
  L 439.91 42.45
  Q 440.35 42.52 440.69 42.80
  Q 443.95 45.43 448.12 45.60
  A 0.66 0.66 0.0 0 0 448.79 45.06
  L 448.87 44.62
  A 0.50 0.50 0.0 0 0 448.36 44.04
  C 444.31 44.21 441.03 42.12 438.16 41.28
  C 435.01 40.35 432.02 38.97 428.63 39.53
  A 0.87 0.87 0.0 0 1 427.69 39.02
  L 426.86 37.14
  A 0.58 0.56 73.5 0 0 426.26 36.80
  L 420.16 37.63
  A 1.42 1.37 -71.6 0 0 419.37 38.04
  C 416.85 40.68 414.20 40.74 410.74 40.61
  C 407.87 40.50 405.25 41.78 402.32 40.93
  C 401.09 40.57 392.39 38.15 393.55 41.24
  A 0.77 0.77 0.0 0 0 394.24 41.74
  Q 399.89 42.01 405.55 42.29
  C 407.14 42.36 408.60 41.39 410.30 41.49
  Q 415.42 41.82 420.53 41.49
  Q 421.09 41.46 421.59 41.70
  Q 423.22 42.47 424.71 41.46
  A 1.46 1.44 31.6 0 1 425.70 41.23
  Q 427.82 41.53 429.83 41.02
  Q 430.31 40.91 430.79 40.98"
/>
<path stroke="#e9e9e9" vector-effect="non-scaling-stroke" d="
  M 247.4481 38.2807
  A 5.64 0.66 -6.1 0 0 241.7699 38.2237
  A 5.64 0.66 -6.1 0 0 236.2319 39.4793
  A 5.64 0.66 -6.1 0 0 241.9101 39.5363
  A 5.64 0.66 -6.1 0 0 247.4481 38.2807"
/>
<path stroke="#e9e9e9" vector-effect="non-scaling-stroke" d="
  M 368.70 44.98
  L 368.61 45.39
  A 0.49 0.48 -83.5 0 1 368.13 45.78
  L 363.14 45.67
  A 0.63 0.63 0.0 0 0 362.51 46.18
  C 362.26 47.44 367.79 47.67 368.76 47.75
  A 0.66 0.66 0.0 0 0 369.46 47.26
  L 370.37 43.55
  A 1.52 1.52 0.0 0 1 370.84 42.76
  Q 372.29 41.45 374.29 42.18
  Q 376.13 42.85 374.68 41.53
  Q 374.01 40.91 373.12 40.55
  A 0.91 0.89 32.8 0 0 372.16 40.75
  L 370.20 42.72
  A 0.92 0.89 26.2 0 1 369.42 42.97
  L 364.73 42.24
  A 0.82 0.82 0.0 0 0 363.90 42.64
  L 363.51 43.31
  A 0.41 0.41 0.0 0 0 363.83 43.93
  L 368.15 44.26
  A 0.61 0.61 0.0 0 1 368.70 44.98"
/>
<path stroke="#e9e9e9" vector-effect="non-scaling-stroke" d="
  M 362.69 53.34
  C 361.02 52.02 351.23 47.60 351.27 52.55
  A 0.73 0.73 0.0 0 0 351.95 53.28
  L 362.45 53.97
  Q 363.59 54.05 362.69 53.34"
/>
<path stroke="#c3c3c3" vector-effect="non-scaling-stroke" d="
  M 319.72 74.49
  C 317.87 75.27 318.47 70.50 318.68 69.90
  A 0.51 0.51 0.0 0 0 318.37 69.26
  C 313.20 67.29 310.78 66.75 307.08 71.58
  Q 306.85 71.88 306.56 71.85
  A 0.57 0.57 0.0 0 1 306.05 71.31
  L 305.91 67.90
  A 0.51 0.51 0.0 0 0 305.20 67.45
  L 303.02 68.34
  A 0.85 0.84 47.1 0 1 302.31 68.31
  L 299.62 66.96
  A 0.93 0.92 39.1 0 0 298.61 67.06
  C 292.94 71.66 290.19 74.21 289.85 81.76
  Q 289.77 83.34 287.66 84.34
  A 0.88 0.86 -11.0 0 0 287.17 85.05
  Q 286.28 94.96 285.45 104.89
  C 284.54 115.69 286.07 126.15 285.21 137.02
  C 284.04 151.80 286.07 167.73 287.42 182.58
  A 1.01 1.01 0.0 0 0 288.49 183.50
  Q 291.37 183.33 293.13 181.21
  A 1.37 1.35 63.1 0 0 293.44 180.24
  L 292.83 169.98
  Q 292.76 168.67 293.75 169.53
  L 295.23 170.81
  A 0.76 0.76 0.0 0 1 295.46 171.60
  Q 294.90 173.59 296.78 174.48
  A 0.41 0.41 0.0 0 0 297.35 174.21
  C 298.51 169.58 296.62 165.29 298.09 160.46
  Q 298.24 159.98 298.20 159.48
  L 297.94 156.43
  Q 297.88 155.66 298.56 156.03
  L 298.94 156.23
  A 1.59 1.57 -74.0 0 1 299.75 157.71
  Q 298.98 169.16 300.13 180.55
  Q 300.19 181.10 300.51 181.55
  Q 301.96 183.59 301.75 186.13
  A 1.55 1.55 0.0 0 0 303.41 187.81
  L 307.42 187.48
  A 1.75 1.70 -31.3 0 1 308.42 187.71
  Q 309.81 188.52 310.98 187.46
  A 1.21 1.18 -61.5 0 1 311.95 187.16
  L 315.42 187.65
  A 0.51 0.51 0.0 0 0 315.97 187.33
  C 316.87 185.07 316.72 179.39 320.28 180.07
  A 0.84 0.84 0.0 0 1 320.92 180.66
  L 322.46 186.43
  A 1.16 1.15 78.8 0 0 323.72 187.28
  Q 330.07 186.46 329.73 180.09
  A 0.79 0.79 0.0 0 1 330.10 179.37
  C 332.51 177.88 334.13 181.39 334.72 183.04
  A 1.07 1.07 0.0 0 0 336.41 183.50
  Q 342.30 178.68 341.63 171.01
  Q 340.92 162.83 341.01 154.54
  A 0.51 0.51 0.0 0 1 341.50 154.04
  L 342.97 153.98
  A 0.79 0.78 -84.8 0 0 343.71 153.36
  L 344.54 149.52
  Q 344.80 148.34 345.56 149.28
  Q 346.06 149.90 346.07 150.76
  Q 346.11 160.80 347.13 170.87
  A 0.35 0.34 -20.2 0 0 347.67 171.11
  C 348.48 170.55 347.71 144.57 347.65 141.57
  C 347.55 136.05 345.76 130.64 345.49 125.65
  C 344.73 111.72 344.59 97.87 343.10 84.01
  A 1.34 1.31 -73.1 0 0 342.67 83.18
  Q 340.31 81.12 337.26 76.24
  Q 333.07 69.55 324.35 68.09
  A 0.90 0.89 77.4 0 1 323.74 67.70
  L 322.98 66.60
  A 0.58 0.57 48.6 0 0 322.07 66.54
  Q 319.36 69.66 320.08 73.83
  A 0.61 0.61 0.0 0 1 319.72 74.49"
/>
<path stroke="#6f6f6f" vector-effect="non-scaling-stroke" d="
  M 200.49 112.44
  Q 201.04 116.86 201.02 120.25
  Q 200.79 152.23 201.12 184.22
  C 201.15 186.55 202.14 188.94 202.71 191.07
  Q 203.28 193.18 204.83 191.65
  L 216.44 180.25
  A 0.70 0.69 -38.9 0 0 216.54 179.38
  Q 215.44 177.69 215.45 176.73
  Q 215.69 142.19 215.27 107.50
  A 0.83 0.82 -14.9 0 1 215.70 106.76
  C 224.76 101.86 234.66 100.81 244.83 100.61
  A 1.63 1.60 24.5 0 0 245.82 100.25
  Q 251.88 95.27 257.01 89.36
  A 1.92 1.92 0.0 0 0 256.96 86.79
  C 254.40 84.04 215.21 95.74 210.62 98.41
  C 201.51 103.72 192.15 109.84 186.50 118.36
  A 0.50 0.50 0.0 0 0 186.85 119.13
  L 187.13 119.17
  A 1.86 1.82 32.9 0 0 188.30 118.93
  L 199.76 112.09
  A 0.48 0.48 0.0 0 1 200.49 112.44"
/>
<path stroke="#c3c3c3" vector-effect="non-scaling-stroke" d="
  M 136.46 172.25
  L 136.23 172.97
  A 1.05 1.04 89.6 0 1 135.58 173.64
  Q 132.60 174.68 129.48 174.25
  A 1.58 1.54 35.6 0 0 128.57 174.39
  C 124.27 176.41 121.38 177.80 120.58 181.96
  A 0.56 0.55 6.6 0 1 120.01 182.41
  C 115.77 182.19 117.22 208.93 117.55 212.25
  A 0.80 0.79 -9.1 0 0 118.51 212.94
  L 126.27 211.20
  A 1.71 1.61 -40.3 0 1 127.20 211.25
  Q 133.53 213.49 138.32 212.58
  Q 143.42 211.62 144.98 212.28
  C 156.48 217.15 167.08 214.57 178.47 214.63
  A 1.37 1.37 0.0 0 0 179.83 213.06
  C 178.56 204.38 178.33 194.89 176.45 187.17
  A 0.70 0.70 0.0 0 0 175.87 186.64
  Q 175.05 186.53 174.71 185.75"
/>
<path stroke="#6f6f6f" vector-effect="non-scaling-stroke" d="
  M 174.71 185.75
  C 183.22 182.36 193.85 176.83 197.54 167.84
  Q 198.08 166.52 196.81 167.17
  C 186.30 172.55 173.52 178.02 161.67 176.99"
/>
<path stroke="#c3c3c3" vector-effect="non-scaling-stroke" d="
  M 161.67 176.99
  L 161.90 174.92
  A 0.63 0.61 -74.0 0 0 161.56 174.29
  L 157.97 172.51
  A 0.61 0.61 0.0 0 0 157.24 172.65
  Q 155.46 174.60 152.84 175.12
  Q 152.36 175.21 151.96 175.50
  L 149.80 177.08
  Q 149.52 177.28 147.17 177.98
  Q 145.26 178.54 144.21 176.75"
/>
<path stroke="#6f6f6f" vector-effect="non-scaling-stroke" d="
  M 144.21 176.75
  L 149.69 170.91
  Q 150.94 169.59 150.99 167.78
  Q 151.24 159.00 149.71 150.34
  Q 149.18 147.30 152.18 146.57
  Q 160.25 144.63 168.57 144.76
  A 2.32 2.30 -66.9 0 0 170.26 144.07
  L 181.04 133.24
  A 0.84 0.84 0.0 0 0 181.17 132.22
  Q 179.87 129.98 177.24 130.51
  C 172.70 131.43 168.43 131.96 164.33 133.19
  Q 157.33 135.29 150.20 137.00
  A 0.77 0.77 0.0 0 1 149.25 136.25
  L 149.26 112.24
  A 1.11 1.09 77.1 0 1 149.87 111.25
  Q 161.55 105.37 174.51 103.24
  A 1.36 1.36 0.0 0 1 176.09 104.48
  L 176.31 107.30
  Q 176.37 107.98 176.91 107.57
  Q 183.64 102.50 188.76 95.77
  Q 190.00 94.14 189.77 92.09
  Q 189.40 88.90 186.27 89.56
  C 173.01 92.35 163.37 96.95 150.08 104.45
  A 0.42 0.41 -16.0 0 1 149.46 104.11
  L 149.19 98.84
  A 0.39 0.39 0.0 0 0 148.65 98.50
  C 142.49 101.06 137.46 105.94 136.40 112.69
  C 135.45 118.73 130.28 122.06 130.01 128.19
  Q 129.72 134.86 130.78 139.19
  C 133.40 149.90 136.01 161.20 136.46 172.25"
/>
<path stroke="#5f5f5f" vector-effect="non-scaling-stroke" d="
  M 144.21 176.75
  C 142.38 178.25 140.22 180.78 137.67 180.75
  A 0.64 0.63 83.8 0 1 137.05 180.25
  Q 136.14 176.32 136.46 172.25"
/>
<path stroke="#5f5f5f" vector-effect="non-scaling-stroke" d="
  M 174.71 185.75
  Q 160.76 190.93 145.84 191.29
  Q 142.66 191.37 144.21 188.59
  Q 149.98 178.28 161.67 176.99"
/>
<path stroke="#6f6f6f" vector-effect="non-scaling-stroke" d="
  M 74.71 27.14
  Q 74.88 57.32 74.96 87.43
  C 74.99 98.42 74.45 115.54 75.02 129.48
  A 1.20 1.19 -7.7 0 0 76.48 130.59
  L 105.45 123.95
  Q 107.87 123.40 108.01 120.92
  Q 110.62 75.58 114.73 31.77"
/>
<path stroke="#c3c3c3" vector-effect="non-scaling-stroke" d="
  M 324.1465 71.7442
  A 1.13 0.96 133.9 0 0 325.6217 71.5957
  A 1.13 0.96 133.9 0 0 325.7135 70.1158
  A 1.13 0.96 133.9 0 0 324.2383 70.2643
  A 1.13 0.96 133.9 0 0 324.1465 71.7442"
/>
<path stroke="#858585" vector-effect="non-scaling-stroke" d="
  M 117.57 232.15
  Q 107.42 223.02 93.55 225.03
  C 84.29 226.37 69.86 238.47 65.45 246.23
  C 52.82 268.47 51.27 292.84 48.98 317.66
  C 47.83 330.08 51.23 331.67 61.80 333.62
  Q 70.65 335.25 79.66 335.05
  C 92.17 334.77 107.52 319.55 114.79 309.91
  Q 126.28 294.67 135.17 277.68
  A 0.46 0.46 0.0 0 1 135.86 277.54
  C 136.89 278.40 136.43 338.55 136.73 341.79
  A 0.40 0.40 0.0 0 0 137.25 342.14
  C 141.53 340.78 146.24 334.98 149.23 331.42
  Q 150.75 329.61 150.75 327.25
  L 150.75 250.16
  A 2.40 2.39 74.4 0 1 151.90 248.11
  Q 160.11 243.08 169.22 239.96
  A 0.81 0.80 78.7 0 1 170.28 240.67
  Q 170.87 250.45 169.34 260.07
  C 165.97 281.23 161.38 302.54 162.06 324.10
  A 2.07 2.06 -87.1 0 0 163.85 326.09
  C 172.09 327.17 175.58 324.30 182.21 319.05
  Q 185.75 316.24 189.05 313.02
  A 0.32 0.32 0.0 0 1 189.58 313.14
  C 191.00 316.97 191.87 321.47 193.61 324.61
  C 196.29 329.45 201.15 334.17 207.04 334.00
  C 210.73 333.90 212.39 330.76 214.97 330.01
  C 243.66 321.67 255.94 282.46 256.77 256.30
  Q 257.01 249.01 255.16 244.38
  C 248.72 228.28 224.22 223.01 211.29 234.82
  C 192.43 252.06 191.84 270.92 189.67 294.70
  C 189.08 301.11 185.42 317.42 175.33 312.47
  A 0.77 0.75 14.5 0 1 174.90 311.76
  C 175.86 285.08 181.71 258.96 185.14 232.52
  Q 185.29 231.39 184.69 227.89
  A 0.70 0.70 0.0 0 0 184.10 227.32
  Q 179.24 226.72 175.00 229.04"
/>
<path stroke="#e9e9e9" vector-effect="non-scaling-stroke" d="
  M 254.19 414.00
  C 254.48 413.62 254.66 413.39 254.62 412.89
  Q 253.50 397.59 253.74 382.25
  Q 253.78 379.63 252.22 373.94
  A 0.37 0.37 0.0 0 0 251.70 373.70
  C 251.38 373.85 251.63 376.90 251.69 378.06
  Q 252.11 387.14 251.92 396.22
  C 251.92 396.49 251.75 396.79 251.62 397.02
  Q 251.34 397.48 251.27 396.95
  C 250.56 391.87 250.91 387.17 250.32 381.82
  C 249.93 378.26 251.16 373.70 249.06 370.46
  Q 248.55 369.68 248.36 370.60
  L 248.23 371.23
  A 0.70 0.70 0.0 0 1 247.51 371.79
  C 246.36 371.73 247.71 367.72 245.07 366.64
  Q 239.49 364.36 233.83 362.05
  A 1.56 1.55 -73.8 0 0 231.71 363.22
  L 230.62 369.31
  Q 230.37 370.67 230.05 369.33
  C 229.31 366.25 231.78 362.69 229.02 360.22
  A 0.43 0.42 -61.0 0 0 228.33 360.42
  Q 227.93 361.87 226.65 362.53
  A 0.53 0.53 0.0 0 0 226.40 363.21
  Q 227.25 365.29 226.85 367.47
  Q 226.69 368.29 226.44 367.50
  L 224.94 362.81
  Q 224.68 362.02 224.23 362.72
  L 223.26 364.22
  Q 222.68 365.11 222.39 364.09
  L 221.88 362.24
  A 0.83 0.82 87.1 0 0 221.23 361.65
  L 220.40 361.49
  A 0.57 0.57 0.0 0 0 219.72 362.11
  L 219.82 362.97
  A 0.81 0.79 71.5 0 1 219.45 363.73
  L 218.08 364.57
  A 1.13 1.12 77.7 0 0 217.57 365.37
  Q 217.40 366.75 216.45 367.69
  Q 216.00 368.13 216.00 367.50
  L 216.00 365.15
  A 0.66 0.66 0.0 0 0 215.41 364.49
  Q 213.02 364.23 213.06 361.79
  A 0.49 0.48 -2.1 0 0 212.53 361.30
  C 209.05 361.63 205.82 361.31 202.86 363.17
  Q 197.40 366.60 195.88 373.18
  A 0.68 0.68 0.0 0 1 195.36 373.69
  L 195.11 373.74
  A 0.84 0.84 0.0 0 0 194.50 374.22
  C 188.69 387.33 190.09 398.55 190.84 412.67
  A 0.65 0.64 -87.2 0 0 191.38 413.27
  L 196.19 414.00"
/>
<path stroke="#e9e9e9" vector-effect="non-scaling-stroke" d="
  M 122.69 414.00
  L 124.98 413.44
  A 0.60 0.60 0.0 0 0 125.43 412.77
  C 123.99 402.62 124.11 392.47 122.79 382.37
  Q 122.47 379.98 120.72 378.33
  L 114.25 372.25
  Q 113.90 371.92 113.43 371.79
  L 106.98 370.07
  A 1.45 1.43 81.7 0 1 106.13 369.43
  Q 105.43 368.28 104.16 368.23
  A 0.83 0.81 -75.2 0 0 103.40 368.68
  Q 101.43 372.49 101.85 376.88
  Q 101.94 377.77 101.71 378.63
  Q 100.74 382.23 99.97 382.26
  A 0.46 0.46 0.0 0 1 99.49 381.75
  Q 99.70 379.90 99.98 378.05
  C 100.30 375.90 99.65 373.92 99.91 371.61
  Q 99.99 370.91 99.37 371.23
  Q 98.10 371.89 98.23 373.49
  A 0.48 0.48 0.0 0 1 97.73 374.01
  L 97.28 374.00
  A 0.56 0.56 0.0 0 1 96.75 373.53
  L 96.46 371.52
  A 0.64 0.63 82.9 0 0 95.77 370.98
  L 92.28 371.30
  A 1.63 1.63 0.0 0 1 91.37 371.13
  C 86.86 368.77 87.51 377.58 85.45 376.72
  A 0.74 0.72 11.7 0 1 85.00 376.05
  L 85.00 370.73
  A 0.69 0.69 0.0 0 0 84.42 370.05
  Q 82.32 369.70 81.54 371.69
  A 0.58 0.57 -61.5 0 1 80.67 371.95
  L 78.35 370.29
  A 1.68 1.67 -42.3 0 0 76.53 370.21
  C 72.70 372.46 67.83 374.83 69.06 380.30
  A 0.49 0.49 0.0 0 1 68.83 380.82
  L 68.56 380.97
  A 0.26 0.25 -26.2 0 1 68.19 380.85
  L 67.57 379.34
  Q 67.31 378.71 66.92 379.27
  C 64.23 383.19 65.13 397.46 65.51 401.50
  Q 65.73 403.92 64.57 412.91
  A 0.63 0.62 15.7 0 0 64.94 413.56
  L 65.94 414.00"
/>
<path stroke="#e9e9e9" vector-effect="non-scaling-stroke" d="
  M 303.04 315.25
  C 304.56 332.21 304.43 345.89 306.38 366.17
  C 306.63 368.73 307.54 370.91 307.77 373.64
  C 308.04 376.91 309.90 382.24 314.20 380.13
  A 0.65 0.64 71.1 0 0 314.54 379.42
  C 314.36 378.54 313.93 377.16 314.53 376.41
  Q 314.91 375.93 315.53 375.95
  A 0.85 0.84 76.9 0 1 316.26 376.41
  L 317.53 378.94
  A 0.48 0.48 0.0 0 0 318.35 379.02
  Q 319.04 378.10 318.59 377.16
  A 1.55 1.54 38.5 0 1 318.47 376.14
  Q 319.19 372.83 318.39 369.51
  Q 318.13 368.42 318.04 369.54
  L 317.76 373.34
  A 0.47 0.46 10.6 0 1 317.16 373.74
  L 316.90 373.66
  A 0.75 0.75 0.0 0 1 316.37 373.00
  C 316.18 370.38 315.73 343.00 316.10 342.81
  A 0.29 0.28 -21.2 0 1 316.51 342.99
  C 318.97 352.88 319.21 362.91 320.70 372.97
  C 321.06 375.39 322.71 377.07 323.17 379.68
  A 1.89 1.76 51.8 0 1 323.09 380.64
  C 322.41 382.49 323.79 384.59 325.99 383.90
  A 0.77 0.77 0.0 0 0 326.46 382.85
  Q 325.44 380.63 326.75 378.66
  A 0.68 0.67 28.1 0 1 327.59 378.41
  C 327.75 378.48 329.01 383.11 330.20 384.23
  A 1.17 1.16 65.2 0 0 331.08 384.56
  L 336.76 384.23
  A 1.87 1.80 25.1 0 0 337.70 383.91
  Q 338.92 383.08 340.09 383.96
  A 1.07 1.05 13.3 0 1 340.48 384.58
  L 341.09 387.56
  A 0.84 0.83 -1.5 0 0 341.78 388.21
  L 346.29 388.89
  A 0.60 0.60 0.0 0 0 346.94 388.51
  C 348.97 383.13 349.16 376.80 349.43 370.10
  C 349.44 369.66 349.71 369.23 350.14 369.20
  A 0.65 0.64 -6.6 0 1 350.81 369.73
  L 353.46 384.56
  Q 353.61 385.43 354.26 384.83
  L 360.08 379.46
  A 1.50 1.48 -18.6 0 0 360.55 378.53
  C 361.33 371.46 360.70 363.91 360.51 356.81
  A 0.55 0.55 0.0 0 1 361.01 356.25
  Q 362.91 356.08 363.71 358.00"
/>
<path stroke="#858585" vector-effect="non-scaling-stroke" d="
  M 363.71 358.00
  L 364.24 362.72
  A 0.76 0.75 5.2 0 0 364.79 363.37
  C 368.30 364.41 374.58 357.02 377.43 353.66
  C 378.80 352.04 378.01 349.27 378.04 347.67
  Q 378.34 326.38 383.06 307.31
  Q 390.42 277.63 398.01 247.93
  Q 398.78 244.96 396.15 246.55
  C 387.01 252.09 383.96 260.49 381.24 271.71
  Q 375.86 293.92 369.96 316.00"
/>
<path stroke="#e9e9e9" vector-effect="non-scaling-stroke" d="
  M 369.96 316.00
  Q 367.71 316.42 366.46 314.50"
/>
<path stroke="#858585" vector-effect="non-scaling-stroke" d="
  M 366.46 314.50
  C 370.33 304.84 369.84 292.13 368.21 282.00"
/>
<path stroke="#e9e9e9" vector-effect="non-scaling-stroke" d="
  M 368.21 282.00
  C 370.79 279.42 370.16 277.68 370.39 274.33
  C 370.70 270.03 367.57 266.61 363.98 264.67
  Q 361.46 263.31 362.97 265.74
  C 364.06 267.48 365.63 269.38 364.41 271.67
  A 0.86 0.85 -56.9 0 1 363.14 271.94
  C 360.89 270.20 359.91 267.84 357.94 266.01
  Q 356.45 264.63 355.21 263.00"
/>
<path stroke="#858585" vector-effect="non-scaling-stroke" d="
  M 355.21 263.00
  C 358.40 260.76 368.16 253.39 369.03 249.71
  Q 369.50 247.71 367.76 248.77
  Q 351.15 258.93 336.19 271.39
  Q 335.35 272.09 335.34 270.99
  L 334.93 235.02
  A 1.56 1.56 0.0 0 0 333.40 233.48
  C 326.40 233.34 318.39 238.83 313.16 243.23
  A 0.35 0.35 0.0 0 1 312.59 243.04
  Q 311.19 236.35 307.31 230.71
  Q 306.29 229.23 304.51 229.00
  Q 293.10 227.52 282.64 232.26
  A 0.57 0.57 0.0 0 1 281.89 231.99
  L 281.58 231.35
  A 1.39 1.38 58.4 0 0 279.50 230.85
  C 274.23 234.85 266.31 241.48 268.05 249.05
  Q 268.86 252.55 268.65 256.44
  C 267.60 276.48 265.53 302.20 266.32 325.74
  Q 267.36 356.78 266.79 387.84
  C 266.71 392.22 266.09 396.89 265.80 401.45
  A 0.30 0.30 0.0 0 0 266.23 401.74
  Q 269.80 400.11 274.39 395.64
  C 279.36 390.80 280.01 388.02 280.00 380.67
  Q 279.99 356.74 280.01 332.82
  A 1.11 1.10 80.3 0 1 280.74 331.78
  C 290.21 328.49 295.18 323.45 303.04 315.25"
/>
<path stroke="#6f6f6f" vector-effect="non-scaling-stroke" d="
  M 355.21 263.00
  Q 345.78 268.87 337.25 275.99
  Q 333.68 278.96 335.05 283.55
  A 0.37 0.37 0.0 0 0 335.61 283.75
  C 342.63 278.96 365.25 264.51 368.21 282.00"
/>
<path stroke="#6f6f6f" vector-effect="non-scaling-stroke" d="
  M 366.46 314.50
  C 355.39 332.69 340.86 339.42 319.61 337.36
  C 306.98 336.13 309.75 317.21 308.85 308.46
  Q 308.80 308.01 308.52 308.37
  L 303.04 315.25"
/>
<path stroke="#6f6f6f" vector-effect="non-scaling-stroke" d="
  M 363.71 358.00
  C 364.74 342.61 366.43 332.71 369.96 316.00"
/>
<path stroke="#858585" vector-effect="non-scaling-stroke" d="
  M 135.29 252.25
  C 131.00 273.18 121.06 292.30 108.84 309.68
  C 102.35 318.92 96.05 323.43 84.72 321.02
  Q 84.22 320.92 84.58 320.56
  C 104.43 301.32 116.89 277.53 118.29 249.50"
/>
<path stroke="#858585" vector-effect="non-scaling-stroke" d="
  M 104.62 260.86
  C 105.48 250.50 105.37 242.19 94.00 239.29
  C 84.23 236.80 76.82 237.35 73.08 247.82
  Q 63.22 275.38 64.95 304.70
  Q 65.56 314.91 74.12 318.69
  C 80.51 321.50 83.18 317.03 87.09 311.79
  C 98.75 296.19 103.04 280.05 104.62 260.86"
/>
<path stroke="#858585" vector-effect="non-scaling-stroke" d="
  M 243.46 267.77
  C 244.38 250.94 229.33 241.05 213.89 241.99
  Q 210.72 242.19 209.69 244.78
  C 203.15 261.15 204.42 278.65 206.19 295.98
  C 207.40 307.73 214.70 317.20 227.57 316.49
  A 3.21 3.20 -73.8 0 0 229.98 315.16
  C 238.93 302.70 242.64 282.80 243.46 267.77"
/>
<path stroke="#858585" vector-effect="non-scaling-stroke" d="
  M 298.83 255.94
  C 297.65 245.48 293.88 239.84 282.28 242.16
  A 0.57 0.57 0.0 0 0 281.82 242.71
  L 281.52 273.34
  Q 281.48 276.50 283.27 273.89
  Q 289.87 264.28 298.56 256.63
  A 0.83 0.82 -24.1 0 0 298.83 255.94"
/>
<path stroke="#6f6f6f" vector-effect="non-scaling-stroke" d="
  M 315.68 248.04
  Q 313.50 248.97 313.75 251.33
  Q 315.85 270.43 315.42 288.50
  Q 315.34 291.79 314.09 294.81
  A 0.21 0.19 -58.1 0 0 314.13 295.03
  L 314.33 295.20
  A 0.11 0.11 0.0 0 0 314.49 295.18
  C 317.45 290.63 321.88 287.74 321.93 281.99
  Q 322.07 264.70 321.93 247.28
  A 0.58 0.58 0.0 0 0 321.32 246.71
  Q 318.44 246.85 315.68 248.04"
/>
<path stroke="#858585" vector-effect="non-scaling-stroke" d="
  M 282.64 319.45
  L 294.30 317.86
  Q 296.36 317.58 297.26 315.70
  Q 301.51 306.86 301.42 297.50
  Q 301.26 281.53 300.77 265.57
  Q 300.70 263.54 300.40 262.19
  Q 299.94 260.15 298.56 261.72
  C 292.91 268.18 282.33 282.35 281.83 290.81
  Q 281.01 304.43 281.13 318.14
  A 1.33 1.33 0.0 0 0 282.64 319.45"
/>
<path stroke="#6f6f6f" vector-effect="non-scaling-stroke" d="
  M 331.47 324.18
  Q 342.18 325.46 352.51 322.71
  A 1.62 1.61 10.2 0 0 353.38 322.11
  C 357.12 317.01 356.31 313.08 355.75 305.74
  C 355.35 300.41 355.02 286.60 347.25 286.96
  C 344.12 287.11 335.02 288.66 335.02 292.30
  Q 335.00 303.80 334.98 315.39
  Q 334.98 317.00 333.88 318.19
  L 330.58 321.77
  Q 328.66 323.85 331.47 324.18"
/>
<path stroke="#e9e9e9" vector-effect="non-scaling-stroke" d="
  M 248.00 384.66
  Q 246.12 387.88 248.31 391.15
  A 0.32 0.32 0.0 0 0 248.68 391.27
  L 248.94 391.18
  A 0.21 0.20 68.1 0 0 249.06 390.89
  Q 247.71 388.25 248.62 385.47
  Q 248.89 384.66 248.70 384.52
  A 0.48 0.48 0.0 0 0 248.00 384.66"
/>
<path stroke="#e9e9e9" vector-effect="non-scaling-stroke" d="
  M 106.20 373.37
  L 105.37 379.23
  A 1.14 1.13 -62.2 0 0 105.65 380.14
  L 107.34 382.01
  A 0.48 0.48 0.0 0 0 108.07 381.99
  C 109.90 379.76 108.68 375.19 107.43 373.12
  Q 106.47 371.53 106.20 373.37"
/>
<path stroke="#e9e9e9" vector-effect="non-scaling-stroke" d="
  M 119.55 389.64
  Q 119.89 389.81 120.41 389.72
  A 0.53 0.53 0.0 0 0 120.84 389.27
  C 121.05 387.85 121.35 380.59 119.90 379.81
  A 0.32 0.32 0.0 0 0 119.44 380.05
  L 118.34 388.68
  A 0.59 0.58 -61.8 0 0 118.46 389.09
  Q 118.57 389.23 118.75 389.24
  Q 118.76 389.24 119.55 389.64"
/>
<path stroke="#e9e9e9" vector-effect="non-scaling-stroke" d="
  M 106.83 392.93
  Q 106.76 394.33 107.40 393.08
  Q 108.45 391.00 107.66 388.82
  Q 107.12 387.32 107.04 388.91
  L 106.83 392.93"
/>
</g>
<path fill="#ffffff" d="
  M 0.00 0.00
  L 169.06 0.00
  L 160.27 0.91
  Q 157.25 1.22 156.91 4.23
  Q 155.71 14.69 157.74 24.87
  A 0.75 0.74 76.3 0 1 157.23 25.73
  L 145.80 29.24
  Q 144.79 29.55 143.87 30.09
  C 141.42 31.52 138.54 30.80 136.44 31.09
  Q 132.79 31.59 129.10 31.74
  Q 129.08 31.74 129.08 31.76
  L 128.95 32.15
  A 0.59 0.59 0.0 0 1 128.45 32.55
  Q 127.62 32.65 127.46 31.75
  L 128.20 9.70
  A 0.32 0.32 0.0 0 0 127.75 9.39
  C 122.91 11.46 115.66 16.70 115.34 22.44
  Q 115.07 27.10 114.73 31.77
  Q 100.84 29.19 86.75 30.06
  Q 83.62 30.26 74.71 27.14
  Q 71.84 26.39 69.25 29.79
  L 68.93 29.76
  A 0.50 0.49 -87.3 0 1 68.50 29.28
  L 68.50 28.96
  A 0.19 0.19 0.0 0 0 68.31 28.77
  Q 66.00 28.75 63.67 28.74
  C 61.06 28.73 58.82 30.06 55.95 29.96
  Q 54.97 29.93 55.76 29.35
  L 56.99 28.46
  A 1.04 1.01 -14.6 0 0 57.41 27.77
  C 57.93 24.55 48.58 24.78 46.40 25.00
  C 34.35 26.21 22.12 27.58 10.00 27.45
  Q 5.00 27.39 0.00 27.69
  L 0.00 0.00
  Z"
/>
<path fill="#d2d2d2" d="
  M 169.06 0.00
  L 173.31 0.00
  Q 179.81 0.76 186.31 0.00
  L 190.56 0.00
  Q 193.01 0.32 192.94 2.68
  A 0.66 0.65 -80.5 0 0 193.39 3.32
  L 193.73 3.44
  A 0.58 0.57 18.3 0 0 194.46 3.08
  L 195.20 0.90
  A 0.90 0.90 0.0 0 1 196.02 0.29
  Q 201.36 0.15 206.36 1.91
  A 1.00 0.99 -86.9 0 1 207.01 2.64
  C 208.52 9.30 207.56 16.83 207.98 23.69
  A 0.54 0.54 0.0 0 0 208.51 24.20
  Q 233.60 24.52 258.68 24.54
  C 265.93 24.55 275.85 25.61 283.69 24.91
  Q 292.88 24.09 297.33 23.81
  C 301.59 23.54 306.41 22.54 311.50 23.74
  A 0.84 0.83 2.2 0 1 312.13 24.41
  L 312.63 27.24
  A 0.62 0.62 0.0 0 1 312.30 27.90
  C 311.23 28.43 308.51 30.28 307.84 28.64
  A 0.66 0.66 0.0 0 1 308.12 27.82
  L 309.50 27.03
  A 0.45 0.45 0.0 0 0 309.51 26.25
  Q 308.61 25.71 307.74 26.25
  Q 307.36 26.49 307.11 26.86
  Q 306.21 28.20 304.60 28.34
  A 0.51 0.50 -7.9 0 1 304.05 27.93
  L 303.74 26.25
  A 0.93 0.93 0.0 0 0 303.00 25.50
  Q 297.55 24.51 292.56 26.94
  Q 290.92 27.74 292.68 28.24
  Q 295.67 29.08 298.84 28.66
  A 0.55 0.54 81.9 0 1 299.45 29.12
  L 299.51 29.45
  A 0.59 0.59 0.0 0 1 299.01 30.12
  C 296.76 30.44 288.77 29.97 287.61 30.77
  A 1.45 1.44 28.5 0 1 286.72 31.03
  Q 280.92 30.84 273.24 29.28
  C 270.78 28.77 268.58 30.86 266.47 29.35
  A 0.41 0.40 -64.4 0 0 265.85 29.57
  Q 265.39 31.11 263.74 31.28
  A 0.27 0.26 -3.7 0 0 263.50 31.54
  L 263.50 31.84
  A 0.43 0.43 0.0 0 0 263.90 32.27
  C 281.45 33.57 297.52 33.89 316.16 33.07
  C 342.05 31.93 371.39 33.94 394.59 34.29
  Q 400.84 34.38 407.06 33.65
  C 411.54 33.11 416.25 33.51 420.88 32.89
  C 424.37 32.42 427.00 33.14 430.29 33.75
  C 436.37 34.87 442.86 34.13 449.07 34.32
  A 0.60 0.59 -4.3 0 1 449.63 34.80
  L 450.00 36.81
  L 450.00 221.56
  Q 450.14 223.88 448.71 223.96
  Q 440.57 224.46 432.43 224.98
  C 427.03 225.32 422.03 224.76 416.75 224.20
  C 411.77 223.67 404.91 229.43 402.23 221.45
  A 0.66 0.66 0.0 0 0 401.49 221.01
  L 394.68 222.19
  A 1.94 1.88 -71.0 0 0 393.70 222.69
  L 392.43 223.93
  A 1.70 1.66 -69.9 0 1 391.49 224.38
  Q 385.87 225.13 380.61 223.26
  A 1.94 1.88 47.9 0 0 379.58 223.19
  C 361.58 227.18 343.34 225.76 325.12 224.71
  C 321.60 224.51 318.95 222.60 314.74 222.58
  Q 305.00 222.53 292.59 220.83
  C 288.96 220.33 285.03 220.82 281.17 220.44
  Q 273.10 219.62 272.66 219.61
  C 254.05 218.76 235.45 217.84 216.89 216.18
  C 206.84 215.29 198.34 216.64 189.00 216.29
  Q 185.54 216.17 182.24 214.94
  Q 180.07 214.13 180.03 216.45
  L 179.88 225.13
  A 0.65 0.64 -2.5 0 1 179.30 225.76
  C 177.71 225.90 177.03 222.06 176.96 220.94
  A 0.46 0.45 82.0 0 0 176.41 220.52
  L 175.33 220.77
  A 1.14 1.13 -4.1 0 1 173.94 219.57
  L 174.23 215.88
  A 0.35 0.34 -87.7 0 0 173.89 215.50
  L 173.60 215.49
  A 0.45 0.44 -86.3 0 0 173.16 215.88
  Q 172.52 222.19 173.22 228.47
  A 0.58 0.58 0.0 0 0 173.76 228.98
  L 175.00 229.04
  L 152.30 240.17
  A 1.06 1.06 0.0 0 1 150.78 239.24
  L 150.69 233.26
  A 1.06 1.06 0.0 0 0 149.12 232.35
  Q 141.83 236.35 137.85 243.16
  C 136.31 245.79 136.15 249.19 135.29 252.25
  L 135.37 248.93
  A 0.49 0.49 0.0 0 0 134.87 248.43
  Q 132.64 248.49 132.21 246.51
  C 131.18 241.65 132.49 231.72 130.57 223.34
  A 0.44 0.43 82.3 0 0 130.12 222.99
  C 128.49 223.05 131.35 238.46 129.31 238.31
  A 0.59 0.59 0.0 0 1 128.77 237.82
  Q 128.68 237.36 128.25 237.25
  Q 125.77 236.66 125.65 238.23
  L 125.06 245.56
  A 1.20 1.20 0.0 0 1 124.65 246.37
  Q 121.84 248.80 118.29 249.50
  Q 119.65 240.74 117.57 232.15
  Q 118.06 223.29 117.09 213.94
  A 0.52 0.51 -4.6 0 0 116.54 213.48
  Q 111.25 213.80 100.49 214.94
  C 94.63 215.56 89.07 213.89 83.38 213.73
  Q 77.81 213.57 71.75 212.73
  C 70.32 212.53 68.82 213.10 67.42 212.90
  Q 59.51 211.76 51.66 212.77
  C 47.10 213.36 43.23 213.47 38.98 213.86
  C 33.15 214.40 27.43 213.38 21.51 213.51
  C 14.64 213.67 8.10 212.18 1.13 212.35
  A 0.58 0.57 85.5 0 1 0.55 211.85
  L 0.00 207.94
  L 0.00 47.94
  L 0.38 47.15
  A 0.88 0.88 0.0 0 1 1.14 46.65
  Q 5.62 46.49 16.50 47.02
  Q 26.06 47.48 41.50 45.55
  Q 41.99 45.49 42.13 45.14
  A 0.59 0.59 0.0 0 0 41.84 44.38
  Q 40.40 43.70 38.99 44.01
  Q 31.11 45.75 23.81 43.73
  A 0.54 0.54 0.0 0 0 23.17 44.03
  C 21.84 47.18 11.25 45.53 8.18 45.01
  Q 4.13 44.33 0.03 45.41
  L 0.00 27.69
  Q 5.00 27.39 10.00 27.45
  C 22.12 27.58 34.35 26.21 46.40 25.00
  C 48.58 24.78 57.93 24.55 57.41 27.77
  A 1.04 1.01 -14.6 0 1 56.99 28.46
  L 55.76 29.35
  Q 54.97 29.93 55.95 29.96
  C 58.82 30.06 61.06 28.73 63.67 28.74
  Q 66.00 28.75 68.31 28.77
  A 0.19 0.19 0.0 0 1 68.50 28.96
  L 68.50 29.28
  A 0.50 0.49 -87.3 0 0 68.93 29.76
  L 69.25 29.79
  L 62.72 36.37
  A 3.39 3.38 -22.7 0 0 61.74 38.75
  C 61.77 71.94 62.54 105.53 61.29 138.86
  Q 61.27 139.37 61.01 139.81
  L 59.65 142.11
  A 1.82 1.79 58.5 0 0 59.41 143.15
  Q 59.51 144.57 60.80 144.68
  A 0.60 0.59 -88.4 0 1 61.35 145.27
  Q 61.63 160.39 62.07 175.50
  Q 62.21 180.37 63.66 184.93
  A 0.36 0.35 62.9 0 0 64.21 185.11
  C 70.20 180.69 77.62 176.76 76.26 167.98
  C 74.95 159.48 74.73 150.80 74.76 142.15
  A 0.76 0.75 83.8 0 1 75.35 141.41
  L 105.15 135.05
  A 1.34 1.34 0.0 0 1 106.76 136.47
  C 105.31 153.77 103.69 172.00 104.04 189.76
  A 0.72 0.72 0.0 0 0 104.86 190.46
  C 111.51 189.48 118.50 180.23 118.38 173.50
  Q 118.04 155.36 119.21 137.25
  C 119.72 129.44 123.37 126.33 128.28 121.04
  Q 128.95 120.32 127.96 120.38
  L 121.38 120.83
  A 1.13 1.12 0.9 0 1 120.18 119.60
  C 120.63 114.83 121.40 109.97 121.71 105.48
  C 123.43 80.90 124.80 56.24 127.46 31.75
  Q 127.62 32.65 128.45 32.55
  A 0.59 0.59 0.0 0 0 128.95 32.15
  L 129.08 31.76
  Q 129.08 31.74 129.10 31.74
  Q 132.79 31.59 136.44 31.09
  C 138.54 30.80 141.42 31.52 143.87 30.09
  Q 144.79 29.55 145.80 29.24
  L 157.23 25.73
  A 0.75 0.74 76.3 0 0 157.74 24.87
  Q 155.71 14.69 156.91 4.23
  Q 157.25 1.22 160.27 0.91
  L 169.06 0.00
  Z
  M 204.54 17.28
  C 204.82 18.55 204.38 24.07 205.68 24.47
  A 0.28 0.27 8.6 0 0 206.04 24.21
  L 206.10 5.05
  A 4.22 4.22 0.0 0 0 205.22 2.47
  L 204.98 2.16
  Q 204.43 1.43 204.27 2.33
  Q 202.94 9.85 204.54 17.28
  Z
  M 165.23 25.59
  L 167.35 25.87
  A 0.38 0.38 0.0 0 0 167.77 25.43
  L 165.29 12.38
  A 0.49 0.49 0.0 0 0 164.81 11.99
  L 164.54 11.99
  A 0.52 0.52 0.0 0 0 164.02 12.48
  Q 163.89 14.85 164.93 16.98
  Q 165.12 17.37 165.09 17.80
  L 164.65 24.88
  A 0.67 0.67 0.0 0 0 165.23 25.59
  Z
  M 202.8631 24.2074
  A 2.94 0.83 87.6 0 0 203.5693 21.2352
  A 2.94 0.83 87.6 0 0 202.6169 18.3326
  A 2.94 0.83 87.6 0 0 201.9107 21.3048
  A 2.94 0.83 87.6 0 0 202.8631 24.2074
  Z
  M 192.76 30.56
  C 193.79 30.61 195.43 31.94 194.51 33.14
  A 1.53 1.50 -26.6 0 0 194.21 34.01
  C 194.18 36.01 194.48 50.85 195.77 51.53
  A 0.76 0.76 0.0 0 0 196.62 51.43
  C 204.51 44.67 202.62 34.72 201.37 25.65
  A 1.21 1.20 84.7 0 0 200.13 24.61
  L 169.60 25.92
  A 1.79 1.78 86.4 0 0 167.90 27.85
  C 168.04 29.56 167.83 36.96 168.49 37.89
  Q 168.78 38.29 168.84 38.79
  C 169.29 43.10 170.13 48.15 173.70 50.93
  C 183.90 58.89 186.06 49.48 181.75 42.40
  A 0.46 0.45 -28.5 0 1 181.95 41.75
  C 183.78 40.92 184.65 42.16 184.74 43.92
  C 184.95 48.17 185.01 51.85 189.88 53.21
  Q 191.75 53.74 191.97 51.80
  C 192.48 47.33 193.76 40.69 191.85 36.54
  A 0.80 0.80 0.0 0 0 191.14 36.08
  C 189.59 36.05 186.13 36.00 186.00 35.33
  A 0.43 0.43 0.0 0 1 186.42 34.82
  L 192.06 34.74
  A 0.50 0.50 0.0 0 0 192.55 34.19
  L 192.28 31.06
  A 0.46 0.46 0.0 0 1 192.76 30.56
  Z
  M 161.00 46.10
  C 162.53 48.23 164.87 48.78 167.04 50.49
  A 0.32 0.32 0.0 0 0 167.55 50.30
  C 168.32 46.86 164.17 46.67 164.29 43.27
  C 164.50 37.30 166.47 33.46 164.20 27.32
  Q 163.48 25.38 161.45 25.75
  L 158.12 26.35
  A 0.57 0.57 0.0 0 0 157.72 27.18
  L 158.77 29.21
  A 0.66 0.66 0.0 0 1 158.57 30.04
  L 157.71 30.67
  A 1.01 0.99 68.1 0 0 157.32 31.61
  C 158.00 36.53 158.01 41.96 161.00 46.10
  Z
  M 54.64 28.22
  Q 55.00 27.98 55.19 27.63
  A 0.42 0.42 0.0 0 0 54.88 27.01
  C 52.82 26.71 52.34 28.10 50.62 28.61
  A 0.40 0.40 0.0 0 1 50.12 28.33
  L 49.62 26.61
  A 0.86 0.86 0.0 0 0 48.82 25.98
  Q 43.75 25.86 39.23 28.04
  A 0.79 0.78 -29.4 0 0 38.91 29.17
  C 38.93 29.20 48.40 30.15 48.89 30.16
  C 50.39 30.16 53.74 30.22 54.20 28.82
  A 1.17 1.12 82.5 0 1 54.64 28.22
  Z
  M 226.48 36.52
  C 224.53 36.39 222.51 35.60 220.48 35.34
  Q 219.99 35.27 219.59 34.99
  C 217.33 33.43 210.02 30.37 209.12 34.98
  Q 208.80 36.65 210.41 36.09
  C 212.89 35.22 214.25 36.14 216.32 36.48
  Q 221.36 37.32 226.47 37.83
  A 0.49 0.49 0.0 0 0 227.01 37.33
  L 227.00 37.05
  A 0.55 0.54 1.2 0 0 226.48 36.52
  Z
  M 430.79 40.98
  L 439.91 42.45
  Q 440.35 42.52 440.69 42.80
  Q 443.95 45.43 448.12 45.60
  A 0.66 0.66 0.0 0 0 448.79 45.06
  L 448.87 44.62
  A 0.50 0.50 0.0 0 0 448.36 44.04
  C 444.31 44.21 441.03 42.12 438.16 41.28
  C 435.01 40.35 432.02 38.97 428.63 39.53
  A 0.87 0.87 0.0 0 1 427.69 39.02
  L 426.86 37.14
  A 0.58 0.56 73.5 0 0 426.26 36.80
  L 420.16 37.63
  A 1.42 1.37 -71.6 0 0 419.37 38.04
  C 416.85 40.68 414.20 40.74 410.74 40.61
  C 407.87 40.50 405.25 41.78 402.32 40.93
  C 401.09 40.57 392.39 38.15 393.55 41.24
  A 0.77 0.77 0.0 0 0 394.24 41.74
  Q 399.89 42.01 405.55 42.29
  C 407.14 42.36 408.60 41.39 410.30 41.49
  Q 415.42 41.82 420.53 41.49
  Q 421.09 41.46 421.59 41.70
  Q 423.22 42.47 424.71 41.46
  A 1.46 1.44 31.6 0 1 425.70 41.23
  Q 427.82 41.53 429.83 41.02
  Q 430.31 40.91 430.79 40.98
  Z
  M 247.4481 38.2807
  A 5.64 0.66 -6.1 0 0 241.7699 38.2237
  A 5.64 0.66 -6.1 0 0 236.2319 39.4793
  A 5.64 0.66 -6.1 0 0 241.9101 39.5363
  A 5.64 0.66 -6.1 0 0 247.4481 38.2807
  Z
  M 368.70 44.98
  L 368.61 45.39
  A 0.49 0.48 -83.5 0 1 368.13 45.78
  L 363.14 45.67
  A 0.63 0.63 0.0 0 0 362.51 46.18
  C 362.26 47.44 367.79 47.67 368.76 47.75
  A 0.66 0.66 0.0 0 0 369.46 47.26
  L 370.37 43.55
  A 1.52 1.52 0.0 0 1 370.84 42.76
  Q 372.29 41.45 374.29 42.18
  Q 376.13 42.85 374.68 41.53
  Q 374.01 40.91 373.12 40.55
  A 0.91 0.89 32.8 0 0 372.16 40.75
  L 370.20 42.72
  A 0.92 0.89 26.2 0 1 369.42 42.97
  L 364.73 42.24
  A 0.82 0.82 0.0 0 0 363.90 42.64
  L 363.51 43.31
  A 0.41 0.41 0.0 0 0 363.83 43.93
  L 368.15 44.26
  A 0.61 0.61 0.0 0 1 368.70 44.98
  Z
  M 362.69 53.34
  C 361.02 52.02 351.23 47.60 351.27 52.55
  A 0.73 0.73 0.0 0 0 351.95 53.28
  L 362.45 53.97
  Q 363.59 54.05 362.69 53.34
  Z
  M 319.72 74.49
  C 317.87 75.27 318.47 70.50 318.68 69.90
  A 0.51 0.51 0.0 0 0 318.37 69.26
  C 313.20 67.29 310.78 66.75 307.08 71.58
  Q 306.85 71.88 306.56 71.85
  A 0.57 0.57 0.0 0 1 306.05 71.31
  L 305.91 67.90
  A 0.51 0.51 0.0 0 0 305.20 67.45
  L 303.02 68.34
  A 0.85 0.84 47.1 0 1 302.31 68.31
  L 299.62 66.96
  A 0.93 0.92 39.1 0 0 298.61 67.06
  C 292.94 71.66 290.19 74.21 289.85 81.76
  Q 289.77 83.34 287.66 84.34
  A 0.88 0.86 -11.0 0 0 287.17 85.05
  Q 286.28 94.96 285.45 104.89
  C 284.54 115.69 286.07 126.15 285.21 137.02
  C 284.04 151.80 286.07 167.73 287.42 182.58
  A 1.01 1.01 0.0 0 0 288.49 183.50
  Q 291.37 183.33 293.13 181.21
  A 1.37 1.35 63.1 0 0 293.44 180.24
  L 292.83 169.98
  Q 292.76 168.67 293.75 169.53
  L 295.23 170.81
  A 0.76 0.76 0.0 0 1 295.46 171.60
  Q 294.90 173.59 296.78 174.48
  A 0.41 0.41 0.0 0 0 297.35 174.21
  C 298.51 169.58 296.62 165.29 298.09 160.46
  Q 298.24 159.98 298.20 159.48
  L 297.94 156.43
  Q 297.88 155.66 298.56 156.03
  L 298.94 156.23
  A 1.59 1.57 -74.0 0 1 299.75 157.71
  Q 298.98 169.16 300.13 180.55
  Q 300.19 181.10 300.51 181.55
  Q 301.96 183.59 301.75 186.13
  A 1.55 1.55 0.0 0 0 303.41 187.81
  L 307.42 187.48
  A 1.75 1.70 -31.3 0 1 308.42 187.71
  Q 309.81 188.52 310.98 187.46
  A 1.21 1.18 -61.5 0 1 311.95 187.16
  L 315.42 187.65
  A 0.51 0.51 0.0 0 0 315.97 187.33
  C 316.87 185.07 316.72 179.39 320.28 180.07
  A 0.84 0.84 0.0 0 1 320.92 180.66
  L 322.46 186.43
  A 1.16 1.15 78.8 0 0 323.72 187.28
  Q 330.07 186.46 329.73 180.09
  A 0.79 0.79 0.0 0 1 330.10 179.37
  C 332.51 177.88 334.13 181.39 334.72 183.04
  A 1.07 1.07 0.0 0 0 336.41 183.50
  Q 342.30 178.68 341.63 171.01
  Q 340.92 162.83 341.01 154.54
  A 0.51 0.51 0.0 0 1 341.50 154.04
  L 342.97 153.98
  A 0.79 0.78 -84.8 0 0 343.71 153.36
  L 344.54 149.52
  Q 344.80 148.34 345.56 149.28
  Q 346.06 149.90 346.07 150.76
  Q 346.11 160.80 347.13 170.87
  A 0.35 0.34 -20.2 0 0 347.67 171.11
  C 348.48 170.55 347.71 144.57 347.65 141.57
  C 347.55 136.05 345.76 130.64 345.49 125.65
  C 344.73 111.72 344.59 97.87 343.10 84.01
  A 1.34 1.31 -73.1 0 0 342.67 83.18
  Q 340.31 81.12 337.26 76.24
  Q 333.07 69.55 324.35 68.09
  A 0.90 0.89 77.4 0 1 323.74 67.70
  L 322.98 66.60
  A 0.58 0.57 48.6 0 0 322.07 66.54
  Q 319.36 69.66 320.08 73.83
  A 0.61 0.61 0.0 0 1 319.72 74.49
  Z
  M 200.49 112.44
  Q 201.04 116.86 201.02 120.25
  Q 200.79 152.23 201.12 184.22
  C 201.15 186.55 202.14 188.94 202.71 191.07
  Q 203.28 193.18 204.83 191.65
  L 216.44 180.25
  A 0.70 0.69 -38.9 0 0 216.54 179.38
  Q 215.44 177.69 215.45 176.73
  Q 215.69 142.19 215.27 107.50
  A 0.83 0.82 -14.9 0 1 215.70 106.76
  C 224.76 101.86 234.66 100.81 244.83 100.61
  A 1.63 1.60 24.5 0 0 245.82 100.25
  Q 251.88 95.27 257.01 89.36
  A 1.92 1.92 0.0 0 0 256.96 86.79
  C 254.40 84.04 215.21 95.74 210.62 98.41
  C 201.51 103.72 192.15 109.84 186.50 118.36
  A 0.50 0.50 0.0 0 0 186.85 119.13
  L 187.13 119.17
  A 1.86 1.82 32.9 0 0 188.30 118.93
  L 199.76 112.09
  A 0.48 0.48 0.0 0 1 200.49 112.44
  Z
  M 136.46 172.25
  L 136.23 172.97
  A 1.05 1.04 89.6 0 1 135.58 173.64
  Q 132.60 174.68 129.48 174.25
  A 1.58 1.54 35.6 0 0 128.57 174.39
  C 124.27 176.41 121.38 177.80 120.58 181.96
  A 0.56 0.55 6.6 0 1 120.01 182.41
  C 115.77 182.19 117.22 208.93 117.55 212.25
  A 0.80 0.79 -9.1 0 0 118.51 212.94
  L 126.27 211.20
  A 1.71 1.61 -40.3 0 1 127.20 211.25
  Q 133.53 213.49 138.32 212.58
  Q 143.42 211.62 144.98 212.28
  C 156.48 217.15 167.08 214.57 178.47 214.63
  A 1.37 1.37 0.0 0 0 179.83 213.06
  C 178.56 204.38 178.33 194.89 176.45 187.17
  A 0.70 0.70 0.0 0 0 175.87 186.64
  Q 175.05 186.53 174.71 185.75
  C 183.22 182.36 193.85 176.83 197.54 167.84
  Q 198.08 166.52 196.81 167.17
  C 186.30 172.55 173.52 178.02 161.67 176.99
  L 161.90 174.92
  A 0.63 0.61 -74.0 0 0 161.56 174.29
  L 157.97 172.51
  A 0.61 0.61 0.0 0 0 157.24 172.65
  Q 155.46 174.60 152.84 175.12
  Q 152.36 175.21 151.96 175.50
  L 149.80 177.08
  Q 149.52 177.28 147.17 177.98
  Q 145.26 178.54 144.21 176.75
  L 149.69 170.91
  Q 150.94 169.59 150.99 167.78
  Q 151.24 159.00 149.71 150.34
  Q 149.18 147.30 152.18 146.57
  Q 160.25 144.63 168.57 144.76
  A 2.32 2.30 -66.9 0 0 170.26 144.07
  L 181.04 133.24
  A 0.84 0.84 0.0 0 0 181.17 132.22
  Q 179.87 129.98 177.24 130.51
  C 172.70 131.43 168.43 131.96 164.33 133.19
  Q 157.33 135.29 150.20 137.00
  A 0.77 0.77 0.0 0 1 149.25 136.25
  L 149.26 112.24
  A 1.11 1.09 77.1 0 1 149.87 111.25
  Q 161.55 105.37 174.51 103.24
  A 1.36 1.36 0.0 0 1 176.09 104.48
  L 176.31 107.30
  Q 176.37 107.98 176.91 107.57
  Q 183.64 102.50 188.76 95.77
  Q 190.00 94.14 189.77 92.09
  Q 189.40 88.90 186.27 89.56
  C 173.01 92.35 163.37 96.95 150.08 104.45
  A 0.42 0.41 -16.0 0 1 149.46 104.11
  L 149.19 98.84
  A 0.39 0.39 0.0 0 0 148.65 98.50
  C 142.49 101.06 137.46 105.94 136.40 112.69
  C 135.45 118.73 130.28 122.06 130.01 128.19
  Q 129.72 134.86 130.78 139.19
  C 133.40 149.90 136.01 161.20 136.46 172.25
  Z"
/>
<path fill="#ffffff" d="
  M 173.31 0.00
  L 186.31 0.00
  Q 179.81 0.76 173.31 0.00
  Z"
/>
<path fill="#ffffff" d="
  M 190.56 0.00
  L 450.00 0.00
  L 450.00 36.81
  L 449.63 34.80
  A 0.60 0.59 -4.3 0 0 449.07 34.32
  C 442.86 34.13 436.37 34.87 430.29 33.75
  C 427.00 33.14 424.37 32.42 420.88 32.89
  C 416.25 33.51 411.54 33.11 407.06 33.65
  Q 400.84 34.38 394.59 34.29
  C 371.39 33.94 342.05 31.93 316.16 33.07
  C 297.52 33.89 281.45 33.57 263.90 32.27
  A 0.43 0.43 0.0 0 1 263.50 31.84
  L 263.50 31.54
  A 0.27 0.26 -3.7 0 1 263.74 31.28
  Q 265.39 31.11 265.85 29.57
  A 0.41 0.40 -64.4 0 1 266.47 29.35
  C 268.58 30.86 270.78 28.77 273.24 29.28
  Q 280.92 30.84 286.72 31.03
  A 1.45 1.44 28.5 0 0 287.61 30.77
  C 288.77 29.97 296.76 30.44 299.01 30.12
  A 0.59 0.59 0.0 0 0 299.51 29.45
  L 299.45 29.12
  A 0.55 0.54 81.9 0 0 298.84 28.66
  Q 295.67 29.08 292.68 28.24
  Q 290.92 27.74 292.56 26.94
  Q 297.55 24.51 303.00 25.50
  A 0.93 0.93 0.0 0 1 303.74 26.25
  L 304.05 27.93
  A 0.51 0.50 -7.9 0 0 304.60 28.34
  Q 306.21 28.20 307.11 26.86
  Q 307.36 26.49 307.74 26.25
  Q 308.61 25.71 309.51 26.25
  A 0.45 0.45 0.0 0 1 309.50 27.03
  L 308.12 27.82
  A 0.66 0.66 0.0 0 0 307.84 28.64
  C 308.51 30.28 311.23 28.43 312.30 27.90
  A 0.62 0.62 0.0 0 0 312.63 27.24
  L 312.13 24.41
  A 0.84 0.83 2.2 0 0 311.50 23.74
  C 306.41 22.54 301.59 23.54 297.33 23.81
  Q 292.88 24.09 283.69 24.91
  C 275.85 25.61 265.93 24.55 258.68 24.54
  Q 233.60 24.52 208.51 24.20
  A 0.54 0.54 0.0 0 1 207.98 23.69
  C 207.56 16.83 208.52 9.30 207.01 2.64
  A 1.00 0.99 -86.9 0 0 206.36 1.91
  Q 201.36 0.15 196.02 0.29
  A 0.90 0.90 0.0 0 0 195.20 0.90
  L 194.46 3.08
  A 0.58 0.57 18.3 0 1 193.73 3.44
  L 193.39 3.32
  A 0.66 0.65 -80.5 0 1 192.94 2.68
  Q 193.01 0.32 190.56 0.00
  Z"
/>
<path fill="#ffffff" d="
  M 204.54 17.28
  Q 202.94 9.85 204.27 2.33
  Q 204.43 1.43 204.98 2.16
  L 205.22 2.47
  A 4.22 4.22 0.0 0 1 206.10 5.05
  L 206.04 24.21
  A 0.28 0.27 8.6 0 1 205.68 24.47
  C 204.38 24.07 204.82 18.55 204.54 17.28
  Z"
/>
<path fill="#0b0b0b" d="
  M 127.46 31.75
  C 124.80 56.24 123.43 80.90 121.71 105.48
  C 121.40 109.97 120.63 114.83 120.18 119.60
  A 1.13 1.12 0.9 0 0 121.38 120.83
  L 127.96 120.38
  Q 128.95 120.32 128.28 121.04
  C 123.37 126.33 119.72 129.44 119.21 137.25
  Q 118.04 155.36 118.38 173.50
  C 118.50 180.23 111.51 189.48 104.86 190.46
  A 0.72 0.72 0.0 0 1 104.04 189.76
  C 103.69 172.00 105.31 153.77 106.76 136.47
  A 1.34 1.34 0.0 0 0 105.15 135.05
  L 75.35 141.41
  A 0.76 0.75 83.8 0 0 74.76 142.15
  C 74.73 150.80 74.95 159.48 76.26 167.98
  C 77.62 176.76 70.20 180.69 64.21 185.11
  A 0.36 0.35 62.9 0 1 63.66 184.93
  Q 62.21 180.37 62.07 175.50
  Q 61.63 160.39 61.35 145.27
  A 0.60 0.59 -88.4 0 0 60.80 144.68
  Q 59.51 144.57 59.41 143.15
  A 1.82 1.79 58.5 0 1 59.65 142.11
  L 61.01 139.81
  Q 61.27 139.37 61.29 138.86
  C 62.54 105.53 61.77 71.94 61.74 38.75
  A 3.39 3.38 -22.7 0 1 62.72 36.37
  L 69.25 29.79
  Q 71.84 26.39 74.71 27.14
  Q 74.88 57.32 74.96 87.43
  C 74.99 98.42 74.45 115.54 75.02 129.48
  A 1.20 1.19 -7.7 0 0 76.48 130.59
  L 105.45 123.95
  Q 107.87 123.40 108.01 120.92
  Q 110.62 75.58 114.73 31.77
  Q 115.07 27.10 115.34 22.44
  C 115.66 16.70 122.91 11.46 127.75 9.39
  A 0.32 0.32 0.0 0 1 128.20 9.70
  L 127.46 31.75
  Z"
/>
<path fill="#ffffff" d="
  M 165.23 25.59
  A 0.67 0.67 0.0 0 1 164.65 24.88
  L 165.09 17.80
  Q 165.12 17.37 164.93 16.98
  Q 163.89 14.85 164.02 12.48
  A 0.52 0.52 0.0 0 1 164.54 11.99
  L 164.81 11.99
  A 0.49 0.49 0.0 0 1 165.29 12.38
  L 167.77 25.43
  A 0.38 0.38 0.0 0 1 167.35 25.87
  L 165.23 25.59
  Z"
/>
<ellipse fill="#ffffff" cx="0.00" cy="0.00" transform="translate(202.74,21.27) rotate(87.6)" rx="2.94" ry="0.83"/>
<path fill="#b3b3b3" d="
  M 192.28 31.06
  L 192.55 34.19
  A 0.50 0.50 0.0 0 1 192.06 34.74
  L 186.42 34.82
  A 0.43 0.43 0.0 0 0 186.00 35.33
  C 186.13 36.00 189.59 36.05 191.14 36.08
  A 0.80 0.80 0.0 0 1 191.85 36.54
  C 193.76 40.69 192.48 47.33 191.97 51.80
  Q 191.75 53.74 189.88 53.21
  C 185.01 51.85 184.95 48.17 184.74 43.92
  C 184.65 42.16 183.78 40.92 181.95 41.75
  A 0.46 0.45 -28.5 0 0 181.75 42.40
  C 186.06 49.48 183.90 58.89 173.70 50.93
  C 170.13 48.15 169.29 43.10 168.84 38.79
  Q 168.78 38.29 168.49 37.89
  C 167.83 36.96 168.04 29.56 167.90 27.85
  A 1.79 1.78 86.4 0 1 169.60 25.92
  L 200.13 24.61
  A 1.21 1.20 84.7 0 1 201.37 25.65
  C 202.62 34.72 204.51 44.67 196.62 51.43
  A 0.76 0.76 0.0 0 1 195.77 51.53
  C 194.48 50.85 194.18 36.01 194.21 34.01
  A 1.53 1.50 -26.6 0 1 194.51 33.14
  C 195.43 31.94 193.79 30.61 192.76 30.56
  A 0.46 0.46 0.0 0 0 192.28 31.06
  Z"
/>
<path fill="#b3b3b3" d="
  M 161.00 46.10
  C 158.01 41.96 158.00 36.53 157.32 31.61
  A 1.01 0.99 68.1 0 1 157.71 30.67
  L 158.57 30.04
  A 0.66 0.66 0.0 0 0 158.77 29.21
  L 157.72 27.18
  A 0.57 0.57 0.0 0 1 158.12 26.35
  L 161.45 25.75
  Q 163.48 25.38 164.20 27.32
  C 166.47 33.46 164.50 37.30 164.29 43.27
  C 164.17 46.67 168.32 46.86 167.55 50.30
  A 0.32 0.32 0.0 0 1 167.04 50.49
  C 164.87 48.78 162.53 48.23 161.00 46.10
  Z"
/>
<path fill="#ffffff" d="
  M 54.20 28.82
  C 53.74 30.22 50.39 30.16 48.89 30.16
  C 48.40 30.15 38.93 29.20 38.91 29.17
  A 0.79 0.78 -29.4 0 1 39.23 28.04
  Q 43.75 25.86 48.82 25.98
  A 0.86 0.86 0.0 0 1 49.62 26.61
  L 50.12 28.33
  A 0.40 0.40 0.0 0 0 50.62 28.61
  C 52.34 28.10 52.82 26.71 54.88 27.01
  A 0.42 0.42 0.0 0 1 55.19 27.63
  Q 55.00 27.98 54.64 28.22
  A 1.17 1.12 82.5 0 0 54.20 28.82
  Z"
/>
<path fill="#d2d2d2" d="
  M 114.73 31.77
  Q 110.62 75.58 108.01 120.92
  Q 107.87 123.40 105.45 123.95
  L 76.48 130.59
  A 1.20 1.19 -7.7 0 1 75.02 129.48
  C 74.45 115.54 74.99 98.42 74.96 87.43
  Q 74.88 57.32 74.71 27.14
  Q 83.62 30.26 86.75 30.06
  Q 100.84 29.19 114.73 31.77
  Z"
/>
<path fill="#ffffff" d="
  M 220.48 35.34
  C 222.51 35.60 224.53 36.39 226.48 36.52
  A 0.55 0.54 1.2 0 1 227.00 37.05
  L 227.01 37.33
  A 0.49 0.49 0.0 0 1 226.47 37.83
  Q 221.36 37.32 216.32 36.48
  C 214.25 36.14 212.89 35.22 210.41 36.09
  Q 208.80 36.65 209.12 34.98
  C 210.02 30.37 217.33 33.43 219.59 34.99
  Q 219.99 35.27 220.48 35.34
  Z"
/>
<path fill="#ffffff" d="
  M 429.83 41.02
  Q 427.82 41.53 425.70 41.23
  A 1.46 1.44 31.6 0 0 424.71 41.46
  Q 423.22 42.47 421.59 41.70
  Q 421.09 41.46 420.53 41.49
  Q 415.42 41.82 410.30 41.49
  C 408.60 41.39 407.14 42.36 405.55 42.29
  Q 399.89 42.01 394.24 41.74
  A 0.77 0.77 0.0 0 1 393.55 41.24
  C 392.39 38.15 401.09 40.57 402.32 40.93
  C 405.25 41.78 407.87 40.50 410.74 40.61
  C 414.20 40.74 416.85 40.68 419.37 38.04
  A 1.42 1.37 -71.6 0 1 420.16 37.63
  L 426.26 36.80
  A 0.58 0.56 73.5 0 1 426.86 37.14
  L 427.69 39.02
  A 0.87 0.87 0.0 0 0 428.63 39.53
  C 432.02 38.97 435.01 40.35 438.16 41.28
  C 441.03 42.12 444.31 44.21 448.36 44.04
  A 0.50 0.50 0.0 0 1 448.87 44.62
  L 448.79 45.06
  A 0.66 0.66 0.0 0 1 448.12 45.60
  Q 443.95 45.43 440.69 42.80
  Q 440.35 42.52 439.91 42.45
  L 430.79 40.98
  Q 430.31 40.91 429.83 41.02
  Z"
/>
<ellipse fill="#ffffff" cx="0.00" cy="0.00" transform="translate(241.84,38.88) rotate(-6.1)" rx="5.64" ry="0.66"/>
<path fill="#ffffff" d="
  M 368.15 44.26
  L 363.83 43.93
  A 0.41 0.41 0.0 0 1 363.51 43.31
  L 363.90 42.64
  A 0.82 0.82 0.0 0 1 364.73 42.24
  L 369.42 42.97
  A 0.92 0.89 26.2 0 0 370.20 42.72
  L 372.16 40.75
  A 0.91 0.89 32.8 0 1 373.12 40.55
  Q 374.01 40.91 374.68 41.53
  Q 376.13 42.85 374.29 42.18
  Q 372.29 41.45 370.84 42.76
  A 1.52 1.52 0.0 0 0 370.37 43.55
  L 369.46 47.26
  A 0.66 0.66 0.0 0 1 368.76 47.75
  C 367.79 47.67 362.26 47.44 362.51 46.18
  A 0.63 0.63 0.0 0 1 363.14 45.67
  L 368.13 45.78
  A 0.49 0.48 -83.5 0 0 368.61 45.39
  L 368.70 44.98
  A 0.61 0.61 0.0 0 0 368.15 44.26
  Z"
/>
<path fill="#ffffff" d="
  M 0.00 47.94
  L 0.03 45.41
  Q 4.13 44.33 8.18 45.01
  C 11.25 45.53 21.84 47.18 23.17 44.03
  A 0.54 0.54 0.0 0 1 23.81 43.73
  Q 31.11 45.75 38.99 44.01
  Q 40.40 43.70 41.84 44.38
  A 0.59 0.59 0.0 0 1 42.13 45.14
  Q 41.99 45.49 41.50 45.55
  Q 26.06 47.48 16.50 47.02
  Q 5.62 46.49 1.14 46.65
  A 0.88 0.88 0.0 0 0 0.38 47.15
  L 0.00 47.94
  Z"
/>
<path fill="#ffffff" d="
  M 362.45 53.97
  L 351.95 53.28
  A 0.73 0.73 0.0 0 1 351.27 52.55
  C 351.23 47.60 361.02 52.02 362.69 53.34
  Q 363.59 54.05 362.45 53.97
  Z"
/>
<path fill="#b3b3b3" d="
  M 318.68 69.90
  C 318.47 70.50 317.87 75.27 319.72 74.49
  A 0.61 0.61 0.0 0 0 320.08 73.83
  Q 319.36 69.66 322.07 66.54
  A 0.58 0.57 48.6 0 1 322.98 66.60
  L 323.74 67.70
  A 0.90 0.89 77.4 0 0 324.35 68.09
  Q 333.07 69.55 337.26 76.24
  Q 340.31 81.12 342.67 83.18
  A 1.34 1.31 -73.1 0 1 343.10 84.01
  C 344.59 97.87 344.73 111.72 345.49 125.65
  C 345.76 130.64 347.55 136.05 347.65 141.57
  C 347.71 144.57 348.48 170.55 347.67 171.11
  A 0.35 0.34 -20.2 0 1 347.13 170.87
  Q 346.11 160.80 346.07 150.76
  Q 346.06 149.90 345.56 149.28
  Q 344.80 148.34 344.54 149.52
  L 343.71 153.36
  A 0.79 0.78 -84.8 0 1 342.97 153.98
  L 341.50 154.04
  A 0.51 0.51 0.0 0 0 341.01 154.54
  Q 340.92 162.83 341.63 171.01
  Q 342.30 178.68 336.41 183.50
  A 1.07 1.07 0.0 0 1 334.72 183.04
  C 334.13 181.39 332.51 177.88 330.10 179.37
  A 0.79 0.79 0.0 0 0 329.73 180.09
  Q 330.07 186.46 323.72 187.28
  A 1.16 1.15 78.8 0 1 322.46 186.43
  L 320.92 180.66
  A 0.84 0.84 0.0 0 0 320.28 180.07
  C 316.72 179.39 316.87 185.07 315.97 187.33
  A 0.51 0.51 0.0 0 1 315.42 187.65
  L 311.95 187.16
  A 1.21 1.18 -61.5 0 0 310.98 187.46
  Q 309.81 188.52 308.42 187.71
  A 1.75 1.70 -31.3 0 0 307.42 187.48
  L 303.41 187.81
  A 1.55 1.55 0.0 0 1 301.75 186.13
  Q 301.96 183.59 300.51 181.55
  Q 300.19 181.10 300.13 180.55
  Q 298.98 169.16 299.75 157.71
  A 1.59 1.57 -74.0 0 0 298.94 156.23
  L 298.56 156.03
  Q 297.88 155.66 297.94 156.43
  L 298.20 159.48
  Q 298.24 159.98 298.09 160.46
  C 296.62 165.29 298.51 169.58 297.35 174.21
  A 0.41 0.41 0.0 0 1 296.78 174.48
  Q 294.90 173.59 295.46 171.60
  A 0.76 0.76 0.0 0 0 295.23 170.81
  L 293.75 169.53
  Q 292.76 168.67 292.83 169.98
  L 293.44 180.24
  A 1.37 1.35 63.1 0 1 293.13 181.21
  Q 291.37 183.33 288.49 183.50
  A 1.01 1.01 0.0 0 1 287.42 182.58
  C 286.07 167.73 284.04 151.80 285.21 137.02
  C 286.07 126.15 284.54 115.69 285.45 104.89
  Q 286.28 94.96 287.17 85.05
  A 0.88 0.86 -11.0 0 1 287.66 84.34
  Q 289.77 83.34 289.85 81.76
  C 290.19 74.21 292.94 71.66 298.61 67.06
  A 0.93 0.92 39.1 0 1 299.62 66.96
  L 302.31 68.31
  A 0.85 0.84 47.1 0 0 303.02 68.34
  L 305.20 67.45
  A 0.51 0.51 0.0 0 1 305.91 67.90
  L 306.05 71.31
  A 0.57 0.57 0.0 0 0 306.56 71.85
  Q 306.85 71.88 307.08 71.58
  C 310.78 66.75 313.20 67.29 318.37 69.26
  A 0.51 0.51 0.0 0 1 318.68 69.90
  Z
  M 324.1465 71.7442
  A 1.13 0.96 133.9 0 0 325.6217 71.5957
  A 1.13 0.96 133.9 0 0 325.7135 70.1158
  A 1.13 0.96 133.9 0 0 324.2383 70.2643
  A 1.13 0.96 133.9 0 0 324.1465 71.7442
  Z"
/>
<ellipse fill="#d2d2d2" cx="0.00" cy="0.00" transform="translate(324.93,70.93) rotate(133.9)" rx="1.13" ry="0.96"/>
<path fill="#0b0b0b" d="
  M 199.76 112.09
  L 188.30 118.93
  A 1.86 1.82 32.9 0 1 187.13 119.17
  L 186.85 119.13
  A 0.50 0.50 0.0 0 1 186.50 118.36
  C 192.15 109.84 201.51 103.72 210.62 98.41
  C 215.21 95.74 254.40 84.04 256.96 86.79
  A 1.92 1.92 0.0 0 1 257.01 89.36
  Q 251.88 95.27 245.82 100.25
  A 1.63 1.60 24.5 0 1 244.83 100.61
  C 234.66 100.81 224.76 101.86 215.70 106.76
  A 0.83 0.82 -14.9 0 0 215.27 107.50
  Q 215.69 142.19 215.45 176.73
  Q 215.44 177.69 216.54 179.38
  A 0.70 0.69 -38.9 0 1 216.44 180.25
  L 204.83 191.65
  Q 203.28 193.18 202.71 191.07
  C 202.14 188.94 201.15 186.55 201.12 184.22
  Q 200.79 152.23 201.02 120.25
  Q 201.04 116.86 200.49 112.44
  A 0.48 0.48 0.0 0 0 199.76 112.09
  Z"
/>
<path fill="#0b0b0b" d="
  M 144.21 176.75
  C 142.38 178.25 140.22 180.78 137.67 180.75
  A 0.64 0.63 83.8 0 1 137.05 180.25
  Q 136.14 176.32 136.46 172.25
  C 136.01 161.20 133.40 149.90 130.78 139.19
  Q 129.72 134.86 130.01 128.19
  C 130.28 122.06 135.45 118.73 136.40 112.69
  C 137.46 105.94 142.49 101.06 148.65 98.50
  A 0.39 0.39 0.0 0 1 149.19 98.84
  L 149.46 104.11
  A 0.42 0.41 -16.0 0 0 150.08 104.45
  C 163.37 96.95 173.01 92.35 186.27 89.56
  Q 189.40 88.90 189.77 92.09
  Q 190.00 94.14 188.76 95.77
  Q 183.64 102.50 176.91 107.57
  Q 176.37 107.98 176.31 107.30
  L 176.09 104.48
  A 1.36 1.36 0.0 0 0 174.51 103.24
  Q 161.55 105.37 149.87 111.25
  A 1.11 1.09 77.1 0 0 149.26 112.24
  L 149.25 136.25
  A 0.77 0.77 0.0 0 0 150.20 137.00
  Q 157.33 135.29 164.33 133.19
  C 168.43 131.96 172.70 131.43 177.24 130.51
  Q 179.87 129.98 181.17 132.22
  A 0.84 0.84 0.0 0 1 181.04 133.24
  L 170.26 144.07
  A 2.32 2.30 -66.9 0 1 168.57 144.76
  Q 160.25 144.63 152.18 146.57
  Q 149.18 147.30 149.71 150.34
  Q 151.24 159.00 150.99 167.78
  Q 150.94 169.59 149.69 170.91
  L 144.21 176.75
  Z"
/>
<path fill="#0b0b0b" d="
  M 174.71 185.75
  Q 160.76 190.93 145.84 191.29
  Q 142.66 191.37 144.21 188.59
  Q 149.98 178.28 161.67 176.99
  C 173.52 178.02 186.30 172.55 196.81 167.17
  Q 198.08 166.52 197.54 167.84
  C 193.85 176.83 183.22 182.36 174.71 185.75
  Z"
/>
<path fill="#b3b3b3" d="
  M 136.46 172.25
  Q 136.14 176.32 137.05 180.25
  A 0.64 0.63 83.8 0 0 137.67 180.75
  C 140.22 180.78 142.38 178.25 144.21 176.75
  Q 145.26 178.54 147.17 177.98
  Q 149.52 177.28 149.80 177.08
  L 151.96 175.50
  Q 152.36 175.21 152.84 175.12
  Q 155.46 174.60 157.24 172.65
  A 0.61 0.61 0.0 0 1 157.97 172.51
  L 161.56 174.29
  A 0.63 0.61 -74.0 0 1 161.90 174.92
  L 161.67 176.99
  Q 149.98 178.28 144.21 188.59
  Q 142.66 191.37 145.84 191.29
  Q 160.76 190.93 174.71 185.75
  Q 175.05 186.53 175.87 186.64
  A 0.70 0.70 0.0 0 1 176.45 187.17
  C 178.33 194.89 178.56 204.38 179.83 213.06
  A 1.37 1.37 0.0 0 1 178.47 214.63
  C 167.08 214.57 156.48 217.15 144.98 212.28
  Q 143.42 211.62 138.32 212.58
  Q 133.53 213.49 127.20 211.25
  A 1.71 1.61 -40.3 0 0 126.27 211.20
  L 118.51 212.94
  A 0.80 0.79 -9.1 0 1 117.55 212.25
  C 117.22 208.93 115.77 182.19 120.01 182.41
  A 0.56 0.55 6.6 0 0 120.58 181.96
  C 121.38 177.80 124.27 176.41 128.57 174.39
  A 1.58 1.54 35.6 0 1 129.48 174.25
  Q 132.60 174.68 135.58 173.64
  A 1.05 1.04 89.6 0 0 136.23 172.97
  L 136.46 172.25
  Z"
/>
<path fill="#ffffff" d="
  M 0.00 207.94
  L 0.55 211.85
  A 0.58 0.57 85.5 0 0 1.13 212.35
  C 8.10 212.18 14.64 213.67 21.51 213.51
  C 27.43 213.38 33.15 214.40 38.98 213.86
  C 43.23 213.47 47.10 213.36 51.66 212.77
  Q 59.51 211.76 67.42 212.90
  C 68.82 213.10 70.32 212.53 71.75 212.73
  Q 77.81 213.57 83.38 213.73
  C 89.07 213.89 94.63 215.56 100.49 214.94
  Q 111.25 213.80 116.54 213.48
  A 0.52 0.51 -4.6 0 1 117.09 213.94
  Q 118.06 223.29 117.57 232.15
  Q 107.42 223.02 93.55 225.03
  C 84.29 226.37 69.86 238.47 65.45 246.23
  C 52.82 268.47 51.27 292.84 48.98 317.66
  C 47.83 330.08 51.23 331.67 61.80 333.62
  Q 70.65 335.25 79.66 335.05
  C 92.17 334.77 107.52 319.55 114.79 309.91
  Q 126.28 294.67 135.17 277.68
  A 0.46 0.46 0.0 0 1 135.86 277.54
  C 136.89 278.40 136.43 338.55 136.73 341.79
  A 0.40 0.40 0.0 0 0 137.25 342.14
  C 141.53 340.78 146.24 334.98 149.23 331.42
  Q 150.75 329.61 150.75 327.25
  L 150.75 250.16
  A 2.40 2.39 74.4 0 1 151.90 248.11
  Q 160.11 243.08 169.22 239.96
  A 0.81 0.80 78.7 0 1 170.28 240.67
  Q 170.87 250.45 169.34 260.07
  C 165.97 281.23 161.38 302.54 162.06 324.10
  A 2.07 2.06 -87.1 0 0 163.85 326.09
  C 172.09 327.17 175.58 324.30 182.21 319.05
  Q 185.75 316.24 189.05 313.02
  A 0.32 0.32 0.0 0 1 189.58 313.14
  C 191.00 316.97 191.87 321.47 193.61 324.61
  C 196.29 329.45 201.15 334.17 207.04 334.00
  C 210.73 333.90 212.39 330.76 214.97 330.01
  C 243.66 321.67 255.94 282.46 256.77 256.30
  Q 257.01 249.01 255.16 244.38
  C 248.72 228.28 224.22 223.01 211.29 234.82
  C 192.43 252.06 191.84 270.92 189.67 294.70
  C 189.08 301.11 185.42 317.42 175.33 312.47
  A 0.77 0.75 14.5 0 1 174.90 311.76
  C 175.86 285.08 181.71 258.96 185.14 232.52
  Q 185.29 231.39 184.69 227.89
  A 0.70 0.70 0.0 0 0 184.10 227.32
  Q 179.24 226.72 175.00 229.04
  L 173.76 228.98
  A 0.58 0.58 0.0 0 1 173.22 228.47
  Q 172.52 222.19 173.16 215.88
  A 0.45 0.44 -86.3 0 1 173.60 215.49
  L 173.89 215.50
  A 0.35 0.34 -87.7 0 1 174.23 215.88
  L 173.94 219.57
  A 1.14 1.13 -4.1 0 0 175.33 220.77
  L 176.41 220.52
  A 0.46 0.45 82.0 0 1 176.96 220.94
  C 177.03 222.06 177.71 225.90 179.30 225.76
  A 0.65 0.64 -2.5 0 0 179.88 225.13
  L 180.03 216.45
  Q 180.07 214.13 182.24 214.94
  Q 185.54 216.17 189.00 216.29
  C 198.34 216.64 206.84 215.29 216.89 216.18
  C 235.45 217.84 254.05 218.76 272.66 219.61
  Q 273.10 219.62 281.17 220.44
  C 285.03 220.82 288.96 220.33 292.59 220.83
  Q 305.00 222.53 314.74 222.58
  C 318.95 222.60 321.60 224.51 325.12 224.71
  C 343.34 225.76 361.58 227.18 379.58 223.19
  A 1.94 1.88 47.9 0 1 380.61 223.26
  Q 385.87 225.13 391.49 224.38
  A 1.70 1.66 -69.9 0 0 392.43 223.93
  L 393.70 222.69
  A 1.94 1.88 -71.0 0 1 394.68 222.19
  L 401.49 221.01
  A 0.66 0.66 0.0 0 1 402.23 221.45
  C 404.91 229.43 411.77 223.67 416.75 224.20
  C 422.03 224.76 427.03 225.32 432.43 224.98
  Q 440.57 224.46 448.71 223.96
  Q 450.14 223.88 450.00 221.56
  L 450.00 414.00
  L 254.19 414.00
  C 254.48 413.62 254.66 413.39 254.62 412.89
  Q 253.50 397.59 253.74 382.25
  Q 253.78 379.63 252.22 373.94
  A 0.37 0.37 0.0 0 0 251.70 373.70
  C 251.38 373.85 251.63 376.90 251.69 378.06
  Q 252.11 387.14 251.92 396.22
  C 251.92 396.49 251.75 396.79 251.62 397.02
  Q 251.34 397.48 251.27 396.95
  C 250.56 391.87 250.91 387.17 250.32 381.82
  C 249.93 378.26 251.16 373.70 249.06 370.46
  Q 248.55 369.68 248.36 370.60
  L 248.23 371.23
  A 0.70 0.70 0.0 0 1 247.51 371.79
  C 246.36 371.73 247.71 367.72 245.07 366.64
  Q 239.49 364.36 233.83 362.05
  A 1.56 1.55 -73.8 0 0 231.71 363.22
  L 230.62 369.31
  Q 230.37 370.67 230.05 369.33
  C 229.31 366.25 231.78 362.69 229.02 360.22
  A 0.43 0.42 -61.0 0 0 228.33 360.42
  Q 227.93 361.87 226.65 362.53
  A 0.53 0.53 0.0 0 0 226.40 363.21
  Q 227.25 365.29 226.85 367.47
  Q 226.69 368.29 226.44 367.50
  L 224.94 362.81
  Q 224.68 362.02 224.23 362.72
  L 223.26 364.22
  Q 222.68 365.11 222.39 364.09
  L 221.88 362.24
  A 0.83 0.82 87.1 0 0 221.23 361.65
  L 220.40 361.49
  A 0.57 0.57 0.0 0 0 219.72 362.11
  L 219.82 362.97
  A 0.81 0.79 71.5 0 1 219.45 363.73
  L 218.08 364.57
  A 1.13 1.12 77.7 0 0 217.57 365.37
  Q 217.40 366.75 216.45 367.69
  Q 216.00 368.13 216.00 367.50
  L 216.00 365.15
  A 0.66 0.66 0.0 0 0 215.41 364.49
  Q 213.02 364.23 213.06 361.79
  A 0.49 0.48 -2.1 0 0 212.53 361.30
  C 209.05 361.63 205.82 361.31 202.86 363.17
  Q 197.40 366.60 195.88 373.18
  A 0.68 0.68 0.0 0 1 195.36 373.69
  L 195.11 373.74
  A 0.84 0.84 0.0 0 0 194.50 374.22
  C 188.69 387.33 190.09 398.55 190.84 412.67
  A 0.65 0.64 -87.2 0 0 191.38 413.27
  L 196.19 414.00
  L 122.69 414.00
  L 124.98 413.44
  A 0.60 0.60 0.0 0 0 125.43 412.77
  C 123.99 402.62 124.11 392.47 122.79 382.37
  Q 122.47 379.98 120.72 378.33
  L 114.25 372.25
  Q 113.90 371.92 113.43 371.79
  L 106.98 370.07
  A 1.45 1.43 81.7 0 1 106.13 369.43
  Q 105.43 368.28 104.16 368.23
  A 0.83 0.81 -75.2 0 0 103.40 368.68
  Q 101.43 372.49 101.85 376.88
  Q 101.94 377.77 101.71 378.63
  Q 100.74 382.23 99.97 382.26
  A 0.46 0.46 0.0 0 1 99.49 381.75
  Q 99.70 379.90 99.98 378.05
  C 100.30 375.90 99.65 373.92 99.91 371.61
  Q 99.99 370.91 99.37 371.23
  Q 98.10 371.89 98.23 373.49
  A 0.48 0.48 0.0 0 1 97.73 374.01
  L 97.28 374.00
  A 0.56 0.56 0.0 0 1 96.75 373.53
  L 96.46 371.52
  A 0.64 0.63 82.9 0 0 95.77 370.98
  L 92.28 371.30
  A 1.63 1.63 0.0 0 1 91.37 371.13
  C 86.86 368.77 87.51 377.58 85.45 376.72
  A 0.74 0.72 11.7 0 1 85.00 376.05
  L 85.00 370.73
  A 0.69 0.69 0.0 0 0 84.42 370.05
  Q 82.32 369.70 81.54 371.69
  A 0.58 0.57 -61.5 0 1 80.67 371.95
  L 78.35 370.29
  A 1.68 1.67 -42.3 0 0 76.53 370.21
  C 72.70 372.46 67.83 374.83 69.06 380.30
  A 0.49 0.49 0.0 0 1 68.83 380.82
  L 68.56 380.97
  A 0.26 0.25 -26.2 0 1 68.19 380.85
  L 67.57 379.34
  Q 67.31 378.71 66.92 379.27
  C 64.23 383.19 65.13 397.46 65.51 401.50
  Q 65.73 403.92 64.57 412.91
  A 0.63 0.62 15.7 0 0 64.94 413.56
  L 65.94 414.00
  L 0.00 414.00
  L 0.00 207.94
  Z
  M 303.04 315.25
  C 304.56 332.21 304.43 345.89 306.38 366.17
  C 306.63 368.73 307.54 370.91 307.77 373.64
  C 308.04 376.91 309.90 382.24 314.20 380.13
  A 0.65 0.64 71.1 0 0 314.54 379.42
  C 314.36 378.54 313.93 377.16 314.53 376.41
  Q 314.91 375.93 315.53 375.95
  A 0.85 0.84 76.9 0 1 316.26 376.41
  L 317.53 378.94
  A 0.48 0.48 0.0 0 0 318.35 379.02
  Q 319.04 378.10 318.59 377.16
  A 1.55 1.54 38.5 0 1 318.47 376.14
  Q 319.19 372.83 318.39 369.51
  Q 318.13 368.42 318.04 369.54
  L 317.76 373.34
  A 0.47 0.46 10.6 0 1 317.16 373.74
  L 316.90 373.66
  A 0.75 0.75 0.0 0 1 316.37 373.00
  C 316.18 370.38 315.73 343.00 316.10 342.81
  A 0.29 0.28 -21.2 0 1 316.51 342.99
  C 318.97 352.88 319.21 362.91 320.70 372.97
  C 321.06 375.39 322.71 377.07 323.17 379.68
  A 1.89 1.76 51.8 0 1 323.09 380.64
  C 322.41 382.49 323.79 384.59 325.99 383.90
  A 0.77 0.77 0.0 0 0 326.46 382.85
  Q 325.44 380.63 326.75 378.66
  A 0.68 0.67 28.1 0 1 327.59 378.41
  C 327.75 378.48 329.01 383.11 330.20 384.23
  A 1.17 1.16 65.2 0 0 331.08 384.56
  L 336.76 384.23
  A 1.87 1.80 25.1 0 0 337.70 383.91
  Q 338.92 383.08 340.09 383.96
  A 1.07 1.05 13.3 0 1 340.48 384.58
  L 341.09 387.56
  A 0.84 0.83 -1.5 0 0 341.78 388.21
  L 346.29 388.89
  A 0.60 0.60 0.0 0 0 346.94 388.51
  C 348.97 383.13 349.16 376.80 349.43 370.10
  C 349.44 369.66 349.71 369.23 350.14 369.20
  A 0.65 0.64 -6.6 0 1 350.81 369.73
  L 353.46 384.56
  Q 353.61 385.43 354.26 384.83
  L 360.08 379.46
  A 1.50 1.48 -18.6 0 0 360.55 378.53
  C 361.33 371.46 360.70 363.91 360.51 356.81
  A 0.55 0.55 0.0 0 1 361.01 356.25
  Q 362.91 356.08 363.71 358.00
  L 364.24 362.72
  A 0.76 0.75 5.2 0 0 364.79 363.37
  C 368.30 364.41 374.58 357.02 377.43 353.66
  C 378.80 352.04 378.01 349.27 378.04 347.67
  Q 378.34 326.38 383.06 307.31
  Q 390.42 277.63 398.01 247.93
  Q 398.78 244.96 396.15 246.55
  C 387.01 252.09 383.96 260.49 381.24 271.71
  Q 375.86 293.92 369.96 316.00
  Q 367.71 316.42 366.46 314.50
  C 370.33 304.84 369.84 292.13 368.21 282.00
  C 370.79 279.42 370.16 277.68 370.39 274.33
  C 370.70 270.03 367.57 266.61 363.98 264.67
  Q 361.46 263.31 362.97 265.74
  C 364.06 267.48 365.63 269.38 364.41 271.67
  A 0.86 0.85 -56.9 0 1 363.14 271.94
  C 360.89 270.20 359.91 267.84 357.94 266.01
  Q 356.45 264.63 355.21 263.00
  C 358.40 260.76 368.16 253.39 369.03 249.71
  Q 369.50 247.71 367.76 248.77
  Q 351.15 258.93 336.19 271.39
  Q 335.35 272.09 335.34 270.99
  L 334.93 235.02
  A 1.56 1.56 0.0 0 0 333.40 233.48
  C 326.40 233.34 318.39 238.83 313.16 243.23
  A 0.35 0.35 0.0 0 1 312.59 243.04
  Q 311.19 236.35 307.31 230.71
  Q 306.29 229.23 304.51 229.00
  Q 293.10 227.52 282.64 232.26
  A 0.57 0.57 0.0 0 1 281.89 231.99
  L 281.58 231.35
  A 1.39 1.38 58.4 0 0 279.50 230.85
  C 274.23 234.85 266.31 241.48 268.05 249.05
  Q 268.86 252.55 268.65 256.44
  C 267.60 276.48 265.53 302.20 266.32 325.74
  Q 267.36 356.78 266.79 387.84
  C 266.71 392.22 266.09 396.89 265.80 401.45
  A 0.30 0.30 0.0 0 0 266.23 401.74
  Q 269.80 400.11 274.39 395.64
  C 279.36 390.80 280.01 388.02 280.00 380.67
  Q 279.99 356.74 280.01 332.82
  A 1.11 1.10 80.3 0 1 280.74 331.78
  C 290.21 328.49 295.18 323.45 303.04 315.25
  Z"
/>
<path fill="#ffffff" d="
  M 135.29 252.25
  C 131.00 273.18 121.06 292.30 108.84 309.68
  C 102.35 318.92 96.05 323.43 84.72 321.02
  Q 84.22 320.92 84.58 320.56
  C 104.43 301.32 116.89 277.53 118.29 249.50
  Q 121.84 248.80 124.65 246.37
  A 1.20 1.20 0.0 0 0 125.06 245.56
  L 125.65 238.23
  Q 125.77 236.66 128.25 237.25
  Q 128.68 237.36 128.77 237.82
  A 0.59 0.59 0.0 0 0 129.31 238.31
  C 131.35 238.46 128.49 223.05 130.12 222.99
  A 0.44 0.43 82.3 0 1 130.57 223.34
  C 132.49 231.72 131.18 241.65 132.21 246.51
  Q 132.64 248.49 134.87 248.43
  A 0.49 0.49 0.0 0 1 135.37 248.93
  L 135.29 252.25
  Z"
/>
<path fill="#0b0b0b" d="
  M 117.57 232.15
  Q 119.65 240.74 118.29 249.50
  C 116.89 277.53 104.43 301.32 84.58 320.56
  Q 84.22 320.92 84.72 321.02
  C 96.05 323.43 102.35 318.92 108.84 309.68
  C 121.06 292.30 131.00 273.18 135.29 252.25
  C 136.15 249.19 136.31 245.79 137.85 243.16
  Q 141.83 236.35 149.12 232.35
  A 1.06 1.06 0.0 0 1 150.69 233.26
  L 150.78 239.24
  A 1.06 1.06 0.0 0 0 152.30 240.17
  L 175.00 229.04
  Q 179.24 226.72 184.10 227.32
  A 0.70 0.70 0.0 0 1 184.69 227.89
  Q 185.29 231.39 185.14 232.52
  C 181.71 258.96 175.86 285.08 174.90 311.76
  A 0.77 0.75 14.5 0 0 175.33 312.47
  C 185.42 317.42 189.08 301.11 189.67 294.70
  C 191.84 270.92 192.43 252.06 211.29 234.82
  C 224.22 223.01 248.72 228.28 255.16 244.38
  Q 257.01 249.01 256.77 256.30
  C 255.94 282.46 243.66 321.67 214.97 330.01
  C 212.39 330.76 210.73 333.90 207.04 334.00
  C 201.15 334.17 196.29 329.45 193.61 324.61
  C 191.87 321.47 191.00 316.97 189.58 313.14
  A 0.32 0.32 0.0 0 0 189.05 313.02
  Q 185.75 316.24 182.21 319.05
  C 175.58 324.30 172.09 327.17 163.85 326.09
  A 2.07 2.06 -87.1 0 1 162.06 324.10
  C 161.38 302.54 165.97 281.23 169.34 260.07
  Q 170.87 250.45 170.28 240.67
  A 0.81 0.80 78.7 0 0 169.22 239.96
  Q 160.11 243.08 151.90 248.11
  A 2.40 2.39 74.4 0 0 150.75 250.16
  L 150.75 327.25
  Q 150.75 329.61 149.23 331.42
  C 146.24 334.98 141.53 340.78 137.25 342.14
  A 0.40 0.40 0.0 0 1 136.73 341.79
  C 136.43 338.55 136.89 278.40 135.86 277.54
  A 0.46 0.46 0.0 0 0 135.17 277.68
  Q 126.28 294.67 114.79 309.91
  C 107.52 319.55 92.17 334.77 79.66 335.05
  Q 70.65 335.25 61.80 333.62
  C 51.23 331.67 47.83 330.08 48.98 317.66
  C 51.27 292.84 52.82 268.47 65.45 246.23
  C 69.86 238.47 84.29 226.37 93.55 225.03
  Q 107.42 223.02 117.57 232.15
  Z
  M 104.62 260.86
  C 105.48 250.50 105.37 242.19 94.00 239.29
  C 84.23 236.80 76.82 237.35 73.08 247.82
  Q 63.22 275.38 64.95 304.70
  Q 65.56 314.91 74.12 318.69
  C 80.51 321.50 83.18 317.03 87.09 311.79
  C 98.75 296.19 103.04 280.05 104.62 260.86
  Z
  M 243.46 267.77
  C 244.38 250.94 229.33 241.05 213.89 241.99
  Q 210.72 242.19 209.69 244.78
  C 203.15 261.15 204.42 278.65 206.19 295.98
  C 207.40 307.73 214.70 317.20 227.57 316.49
  A 3.21 3.20 -73.8 0 0 229.98 315.16
  C 238.93 302.70 242.64 282.80 243.46 267.77
  Z"
/>
<path fill="#0b0b0b" d="
  M 355.21 263.00
  Q 345.78 268.87 337.25 275.99
  Q 333.68 278.96 335.05 283.55
  A 0.37 0.37 0.0 0 0 335.61 283.75
  C 342.63 278.96 365.25 264.51 368.21 282.00
  C 369.84 292.13 370.33 304.84 366.46 314.50
  C 355.39 332.69 340.86 339.42 319.61 337.36
  C 306.98 336.13 309.75 317.21 308.85 308.46
  Q 308.80 308.01 308.52 308.37
  L 303.04 315.25
  C 295.18 323.45 290.21 328.49 280.74 331.78
  A 1.11 1.10 80.3 0 0 280.01 332.82
  Q 279.99 356.74 280.00 380.67
  C 280.01 388.02 279.36 390.80 274.39 395.64
  Q 269.80 400.11 266.23 401.74
  A 0.30 0.30 0.0 0 1 265.80 401.45
  C 266.09 396.89 266.71 392.22 266.79 387.84
  Q 267.36 356.78 266.32 325.74
  C 265.53 302.20 267.60 276.48 268.65 256.44
  Q 268.86 252.55 268.05 249.05
  C 266.31 241.48 274.23 234.85 279.50 230.85
  A 1.39 1.38 58.4 0 1 281.58 231.35
  L 281.89 231.99
  A 0.57 0.57 0.0 0 0 282.64 232.26
  Q 293.10 227.52 304.51 229.00
  Q 306.29 229.23 307.31 230.71
  Q 311.19 236.35 312.59 243.04
  A 0.35 0.35 0.0 0 0 313.16 243.23
  C 318.39 238.83 326.40 233.34 333.40 233.48
  A 1.56 1.56 0.0 0 1 334.93 235.02
  L 335.34 270.99
  Q 335.35 272.09 336.19 271.39
  Q 351.15 258.93 367.76 248.77
  Q 369.50 247.71 369.03 249.71
  C 368.16 253.39 358.40 260.76 355.21 263.00
  Z
  M 298.83 255.94
  C 297.65 245.48 293.88 239.84 282.28 242.16
  A 0.57 0.57 0.0 0 0 281.82 242.71
  L 281.52 273.34
  Q 281.48 276.50 283.27 273.89
  Q 289.87 264.28 298.56 256.63
  A 0.83 0.82 -24.1 0 0 298.83 255.94
  Z
  M 315.68 248.04
  Q 313.50 248.97 313.75 251.33
  Q 315.85 270.43 315.42 288.50
  Q 315.34 291.79 314.09 294.81
  A 0.21 0.19 -58.1 0 0 314.13 295.03
  L 314.33 295.20
  A 0.11 0.11 0.0 0 0 314.49 295.18
  C 317.45 290.63 321.88 287.74 321.93 281.99
  Q 322.07 264.70 321.93 247.28
  A 0.58 0.58 0.0 0 0 321.32 246.71
  Q 318.44 246.85 315.68 248.04
  Z
  M 282.64 319.45
  L 294.30 317.86
  Q 296.36 317.58 297.26 315.70
  Q 301.51 306.86 301.42 297.50
  Q 301.26 281.53 300.77 265.57
  Q 300.70 263.54 300.40 262.19
  Q 299.94 260.15 298.56 261.72
  C 292.91 268.18 282.33 282.35 281.83 290.81
  Q 281.01 304.43 281.13 318.14
  A 1.33 1.33 0.0 0 0 282.64 319.45
  Z
  M 331.47 324.18
  Q 342.18 325.46 352.51 322.71
  A 1.62 1.61 10.2 0 0 353.38 322.11
  C 357.12 317.01 356.31 313.08 355.75 305.74
  C 355.35 300.41 355.02 286.60 347.25 286.96
  C 344.12 287.11 335.02 288.66 335.02 292.30
  Q 335.00 303.80 334.98 315.39
  Q 334.98 317.00 333.88 318.19
  L 330.58 321.77
  Q 328.66 323.85 331.47 324.18
  Z"
/>
<path fill="#ffffff" d="
  M 94.00 239.29
  C 105.37 242.19 105.48 250.50 104.62 260.86
  C 103.04 280.05 98.75 296.19 87.09 311.79
  C 83.18 317.03 80.51 321.50 74.12 318.69
  Q 65.56 314.91 64.95 304.70
  Q 63.22 275.38 73.08 247.82
  C 76.82 237.35 84.23 236.80 94.00 239.29
  Z"
/>
<path fill="#ffffff" d="
  M 213.89 241.99
  C 229.33 241.05 244.38 250.94 243.46 267.77
  C 242.64 282.80 238.93 302.70 229.98 315.16
  A 3.21 3.20 -73.8 0 1 227.57 316.49
  C 214.70 317.20 207.40 307.73 206.19 295.98
  C 204.42 278.65 203.15 261.15 209.69 244.78
  Q 210.72 242.19 213.89 241.99
  Z"
/>
<path fill="#ffffff" d="
  M 298.83 255.94
  A 0.83 0.82 -24.1 0 1 298.56 256.63
  Q 289.87 264.28 283.27 273.89
  Q 281.48 276.50 281.52 273.34
  L 281.82 242.71
  A 0.57 0.57 0.0 0 1 282.28 242.16
  C 293.88 239.84 297.65 245.48 298.83 255.94
  Z"
/>
<path fill="#0b0b0b" d="
  M 363.71 358.00
  C 364.74 342.61 366.43 332.71 369.96 316.00
  Q 375.86 293.92 381.24 271.71
  C 383.96 260.49 387.01 252.09 396.15 246.55
  Q 398.78 244.96 398.01 247.93
  Q 390.42 277.63 383.06 307.31
  Q 378.34 326.38 378.04 347.67
  C 378.01 349.27 378.80 352.04 377.43 353.66
  C 374.58 357.02 368.30 364.41 364.79 363.37
  A 0.76 0.75 5.2 0 1 364.24 362.72
  L 363.71 358.00
  Z"
/>
<path fill="#d2d2d2" d="
  M 315.68 248.04
  Q 318.44 246.85 321.32 246.71
  A 0.58 0.58 0.0 0 1 321.93 247.28
  Q 322.07 264.70 321.93 281.99
  C 321.88 287.74 317.45 290.63 314.49 295.18
  A 0.11 0.11 0.0 0 1 314.33 295.20
  L 314.13 295.03
  A 0.21 0.19 -58.1 0 1 314.09 294.81
  Q 315.34 291.79 315.42 288.50
  Q 315.85 270.43 313.75 251.33
  Q 313.50 248.97 315.68 248.04
  Z"
/>
<path fill="#ffffff" d="
  M 282.64 319.45
  A 1.33 1.33 0.0 0 1 281.13 318.14
  Q 281.01 304.43 281.83 290.81
  C 282.33 282.35 292.91 268.18 298.56 261.72
  Q 299.94 260.15 300.40 262.19
  Q 300.70 263.54 300.77 265.57
  Q 301.26 281.53 301.42 297.50
  Q 301.51 306.86 297.26 315.70
  Q 296.36 317.58 294.30 317.86
  L 282.64 319.45
  Z"
/>
<path fill="#d2d2d2" d="
  M 355.21 263.00
  Q 356.45 264.63 357.94 266.01
  C 359.91 267.84 360.89 270.20 363.14 271.94
  A 0.86 0.85 -56.9 0 0 364.41 271.67
  C 365.63 269.38 364.06 267.48 362.97 265.74
  Q 361.46 263.31 363.98 264.67
  C 367.57 266.61 370.70 270.03 370.39 274.33
  C 370.16 277.68 370.79 279.42 368.21 282.00
  C 365.25 264.51 342.63 278.96 335.61 283.75
  A 0.37 0.37 0.0 0 1 335.05 283.55
  Q 333.68 278.96 337.25 275.99
  Q 345.78 268.87 355.21 263.00
  Z"
/>
<path fill="#d2d2d2" d="
  M 331.47 324.18
  Q 328.66 323.85 330.58 321.77
  L 333.88 318.19
  Q 334.98 317.00 334.98 315.39
  Q 335.00 303.80 335.02 292.30
  C 335.02 288.66 344.12 287.11 347.25 286.96
  C 355.02 286.60 355.35 300.41 355.75 305.74
  C 356.31 313.08 357.12 317.01 353.38 322.11
  A 1.62 1.61 10.2 0 1 352.51 322.71
  Q 342.18 325.46 331.47 324.18
  Z"
/>
<path fill="#d2d2d2" d="
  M 366.46 314.50
  Q 367.71 316.42 369.96 316.00
  C 366.43 332.71 364.74 342.61 363.71 358.00
  Q 362.91 356.08 361.01 356.25
  A 0.55 0.55 0.0 0 0 360.51 356.81
  C 360.70 363.91 361.33 371.46 360.55 378.53
  A 1.50 1.48 -18.6 0 1 360.08 379.46
  L 354.26 384.83
  Q 353.61 385.43 353.46 384.56
  L 350.81 369.73
  A 0.65 0.64 -6.6 0 0 350.14 369.20
  C 349.71 369.23 349.44 369.66 349.43 370.10
  C 349.16 376.80 348.97 383.13 346.94 388.51
  A 0.60 0.60 0.0 0 1 346.29 388.89
  L 341.78 388.21
  A 0.84 0.83 -1.5 0 1 341.09 387.56
  L 340.48 384.58
  A 1.07 1.05 13.3 0 0 340.09 383.96
  Q 338.92 383.08 337.70 383.91
  A 1.87 1.80 25.1 0 1 336.76 384.23
  L 331.08 384.56
  A 1.17 1.16 65.2 0 1 330.20 384.23
  C 329.01 383.11 327.75 378.48 327.59 378.41
  A 0.68 0.67 28.1 0 0 326.75 378.66
  Q 325.44 380.63 326.46 382.85
  A 0.77 0.77 0.0 0 1 325.99 383.90
  C 323.79 384.59 322.41 382.49 323.09 380.64
  A 1.89 1.76 51.8 0 0 323.17 379.68
  C 322.71 377.07 321.06 375.39 320.70 372.97
  C 319.21 362.91 318.97 352.88 316.51 342.99
  A 0.29 0.28 -21.2 0 0 316.10 342.81
  C 315.73 343.00 316.18 370.38 316.37 373.00
  A 0.75 0.75 0.0 0 0 316.90 373.66
  L 317.16 373.74
  A 0.47 0.46 10.6 0 0 317.76 373.34
  L 318.04 369.54
  Q 318.13 368.42 318.39 369.51
  Q 319.19 372.83 318.47 376.14
  A 1.55 1.54 38.5 0 0 318.59 377.16
  Q 319.04 378.10 318.35 379.02
  A 0.48 0.48 0.0 0 1 317.53 378.94
  L 316.26 376.41
  A 0.85 0.84 76.9 0 0 315.53 375.95
  Q 314.91 375.93 314.53 376.41
  C 313.93 377.16 314.36 378.54 314.54 379.42
  A 0.65 0.64 71.1 0 1 314.20 380.13
  C 309.90 382.24 308.04 376.91 307.77 373.64
  C 307.54 370.91 306.63 368.73 306.38 366.17
  C 304.43 345.89 304.56 332.21 303.04 315.25
  L 308.52 308.37
  Q 308.80 308.01 308.85 308.46
  C 309.75 317.21 306.98 336.13 319.61 337.36
  C 340.86 339.42 355.39 332.69 366.46 314.50
  Z"
/>
<path fill="#d2d2d2" d="
  M 254.19 414.00
  L 196.19 414.00
  L 191.38 413.27
  A 0.65 0.64 -87.2 0 1 190.84 412.67
  C 190.09 398.55 188.69 387.33 194.50 374.22
  A 0.84 0.84 0.0 0 1 195.11 373.74
  L 195.36 373.69
  A 0.68 0.68 0.0 0 0 195.88 373.18
  Q 197.40 366.60 202.86 363.17
  C 205.82 361.31 209.05 361.63 212.53 361.30
  A 0.49 0.48 -2.1 0 1 213.06 361.79
  Q 213.02 364.23 215.41 364.49
  A 0.66 0.66 0.0 0 1 216.00 365.15
  L 216.00 367.50
  Q 216.00 368.13 216.45 367.69
  Q 217.40 366.75 217.57 365.37
  A 1.13 1.12 77.7 0 1 218.08 364.57
  L 219.45 363.73
  A 0.81 0.79 71.5 0 0 219.82 362.97
  L 219.72 362.11
  A 0.57 0.57 0.0 0 1 220.40 361.49
  L 221.23 361.65
  A 0.83 0.82 87.1 0 1 221.88 362.24
  L 222.39 364.09
  Q 222.68 365.11 223.26 364.22
  L 224.23 362.72
  Q 224.68 362.02 224.94 362.81
  L 226.44 367.50
  Q 226.69 368.29 226.85 367.47
  Q 227.25 365.29 226.40 363.21
  A 0.53 0.53 0.0 0 1 226.65 362.53
  Q 227.93 361.87 228.33 360.42
  A 0.43 0.42 -61.0 0 1 229.02 360.22
  C 231.78 362.69 229.31 366.25 230.05 369.33
  Q 230.37 370.67 230.62 369.31
  L 231.71 363.22
  A 1.56 1.55 -73.8 0 1 233.83 362.05
  Q 239.49 364.36 245.07 366.64
  C 247.71 367.72 246.36 371.73 247.51 371.79
  A 0.70 0.70 0.0 0 0 248.23 371.23
  L 248.36 370.60
  Q 248.55 369.68 249.06 370.46
  C 251.16 373.70 249.93 378.26 250.32 381.82
  C 250.91 387.17 250.56 391.87 251.27 396.95
  Q 251.34 397.48 251.62 397.02
  C 251.75 396.79 251.92 396.49 251.92 396.22
  Q 252.11 387.14 251.69 378.06
  C 251.63 376.90 251.38 373.85 251.70 373.70
  A 0.37 0.37 0.0 0 1 252.22 373.94
  Q 253.78 379.63 253.74 382.25
  Q 253.50 397.59 254.62 412.89
  C 254.66 413.39 254.48 413.62 254.19 414.00
  Z
  M 248.00 384.66
  Q 246.12 387.88 248.31 391.15
  A 0.32 0.32 0.0 0 0 248.68 391.27
  L 248.94 391.18
  A 0.21 0.20 68.1 0 0 249.06 390.89
  Q 247.71 388.25 248.62 385.47
  Q 248.89 384.66 248.70 384.52
  A 0.48 0.48 0.0 0 0 248.00 384.66
  Z"
/>
<path fill="#d2d2d2" d="
  M 122.69 414.00
  L 65.94 414.00
  L 64.94 413.56
  A 0.63 0.62 15.7 0 1 64.57 412.91
  Q 65.73 403.92 65.51 401.50
  C 65.13 397.46 64.23 383.19 66.92 379.27
  Q 67.31 378.71 67.57 379.34
  L 68.19 380.85
  A 0.26 0.25 -26.2 0 0 68.56 380.97
  L 68.83 380.82
  A 0.49 0.49 0.0 0 0 69.06 380.30
  C 67.83 374.83 72.70 372.46 76.53 370.21
  A 1.68 1.67 -42.3 0 1 78.35 370.29
  L 80.67 371.95
  A 0.58 0.57 -61.5 0 0 81.54 371.69
  Q 82.32 369.70 84.42 370.05
  A 0.69 0.69 0.0 0 1 85.00 370.73
  L 85.00 376.05
  A 0.74 0.72 11.7 0 0 85.45 376.72
  C 87.51 377.58 86.86 368.77 91.37 371.13
  A 1.63 1.63 0.0 0 0 92.28 371.30
  L 95.77 370.98
  A 0.64 0.63 82.9 0 1 96.46 371.52
  L 96.75 373.53
  A 0.56 0.56 0.0 0 0 97.28 374.00
  L 97.73 374.01
  A 0.48 0.48 0.0 0 0 98.23 373.49
  Q 98.10 371.89 99.37 371.23
  Q 99.99 370.91 99.91 371.61
  C 99.65 373.92 100.30 375.90 99.98 378.05
  Q 99.70 379.90 99.49 381.75
  A 0.46 0.46 0.0 0 0 99.97 382.26
  Q 100.74 382.23 101.71 378.63
  Q 101.94 377.77 101.85 376.88
  Q 101.43 372.49 103.40 368.68
  A 0.83 0.81 -75.2 0 1 104.16 368.23
  Q 105.43 368.28 106.13 369.43
  A 1.45 1.43 81.7 0 0 106.98 370.07
  L 113.43 371.79
  Q 113.90 371.92 114.25 372.25
  L 120.72 378.33
  Q 122.47 379.98 122.79 382.37
  C 124.11 392.47 123.99 402.62 125.43 412.77
  A 0.60 0.60 0.0 0 1 124.98 413.44
  L 122.69 414.00
  Z
  M 106.20 373.37
  L 105.37 379.23
  A 1.14 1.13 -62.2 0 0 105.65 380.14
  L 107.34 382.01
  A 0.48 0.48 0.0 0 0 108.07 381.99
  C 109.90 379.76 108.68 375.19 107.43 373.12
  Q 106.47 371.53 106.20 373.37
  Z
  M 119.55 389.64
  Q 119.89 389.81 120.41 389.72
  A 0.53 0.53 0.0 0 0 120.84 389.27
  C 121.05 387.85 121.35 380.59 119.90 379.81
  A 0.32 0.32 0.0 0 0 119.44 380.05
  L 118.34 388.68
  A 0.59 0.58 -61.8 0 0 118.46 389.09
  Q 118.57 389.23 118.75 389.24
  Q 118.76 389.24 119.55 389.64
  Z
  M 106.83 392.93
  Q 106.76 394.33 107.40 393.08
  Q 108.45 391.00 107.66 388.82
  Q 107.12 387.32 107.04 388.91
  L 106.83 392.93
  Z"
/>
<path fill="#ffffff" d="
  M 106.20 373.37
  Q 106.47 371.53 107.43 373.12
  C 108.68 375.19 109.90 379.76 108.07 381.99
  A 0.48 0.48 0.0 0 1 107.34 382.01
  L 105.65 380.14
  A 1.14 1.13 -62.2 0 1 105.37 379.23
  L 106.20 373.37
  Z"
/>
<path fill="#ffffff" d="
  M 118.75 389.24
  Q 118.57 389.23 118.46 389.09
  A 0.59 0.58 -61.8 0 1 118.34 388.68
  L 119.44 380.05
  A 0.32 0.32 0.0 0 1 119.90 379.81
  C 121.35 380.59 121.05 387.85 120.84 389.27
  A 0.53 0.53 0.0 0 1 120.41 389.72
  Q 119.89 389.81 119.55 389.64
  Q 118.76 389.24 118.75 389.24
  Z"
/>
<path fill="#ffffff" d="
  M 248.00 384.66
  A 0.48 0.48 0.0 0 1 248.70 384.52
  Q 248.89 384.66 248.62 385.47
  Q 247.71 388.25 249.06 390.89
  A 0.21 0.20 68.1 0 1 248.94 391.18
  L 248.68 391.27
  A 0.32 0.32 0.0 0 1 248.31 391.15
  Q 246.12 387.88 248.00 384.66
  Z"
/>
<path fill="#ffffff" d="
  M 106.83 392.93
  L 107.04 388.91
  Q 107.12 387.32 107.66 388.82
  Q 108.45 391.00 107.40 393.08
  Q 106.76 394.33 106.83 392.93
  Z"
/>
</svg>
