<?xml version="1.0" encoding="UTF-8" standalone="no"?>
<!-- Created with Inkscape (http://www.inkscape.org/) -->

<svg
   xmlns:dc="http://purl.org/dc/elements/1.1/"
   xmlns:cc="http://creativecommons.org/ns#"
   xmlns:rdf="http://www.w3.org/1999/02/22-rdf-syntax-ns#"
   xmlns:svg="http://www.w3.org/2000/svg"
   xmlns="http://www.w3.org/2000/svg"
   xmlns:sodipodi="http://sodipodi.sourceforge.net/DTD/sodipodi-0.dtd"
   xmlns:inkscape="http://www.inkscape.org/namespaces/inkscape"
   width="400"
   height="600"
   viewBox="0 0 105.83333 158.75"
   version="1.1"
   id="svg8"
   inkscape:version="0.92.4 (5da689c313, 2019-01-14)"
   sodipodi:docname="42_m.svg">
  <defs
     id="defs2" />
  <sodipodi:namedview
     id="base"
     pagecolor="#ffffff"
     bordercolor="#666666"
     borderopacity="1.0"
     inkscape:pageopacity="0.0"
     inkscape:pageshadow="2"
     inkscape:zoom="0.90627519"
     inkscape:cx="288.81417"
     inkscape:cy="318.35247"
     inkscape:document-units="mm"
     inkscape:current-layer="layer1"
     showgrid="false"
     units="px"
     showguides="true"
     inkscape:guide-bbox="true"
     inkscape:window-width="1280"
     inkscape:window-height="968"
     inkscape:window-x="0"
     inkscape:window-y="0"
     inkscape:window-maximized="1">
    <sodipodi:guide
       position="20.78869,60.476191"
       orientation="1,0"
       id="guide859"
       inkscape:locked="false" />
    <sodipodi:guide
       position="20.78869,128.88988"
       orientation="1,0"
       id="guide863"
       inkscape:locked="false" />
    <sodipodi:guide
       position="12.85119,57.641369"
       orientation="1,0"
       id="guide865"
       inkscape:locked="false" />
    <sodipodi:guide
       position="32.339612,108.51143"
       orientation="0,1"
       id="guide867"
       inkscape:locked="false" />
    <sodipodi:guide
       position="-9.0871638,97.553376"
       orientation="0,1"
       id="guide2596"
       inkscape:locked="false" />
    <sodipodi:guide
       position="-16.036171,64.144687"
       orientation="0,1"
       id="guide2598"
       inkscape:locked="false" />
  </sodipodi:namedview>
  <metadata
     id="metadata5">
    <rdf:RDF>
      <cc:Work
         rdf:about="">
        <dc:format>image/svg+xml</dc:format>
        <dc:type
           rdf:resource="http://purl.org/dc/dcmitype/StillImage" />
        <dc:title></dc:title>
      </cc:Work>
    </rdf:RDF>
  </metadata>
  <g
     inkscape:label="Layer 1"
     inkscape:groupmode="layer"
     id="layer1"
     transform="translate(0,-138.24998)">
    <rect
       style="opacity:1;fill:#ffffff;fill-opacity:0.60101007;stroke:#000000;stroke-width:0.27790931;stroke-miterlimit:4;stroke-dasharray:none;stroke-dashoffset:0;stroke-opacity:1"
       id="rect10"
       width="105.4538"
       height="158.75175"
       x="0.17799145"
       y="138.24911"
       ry="7.9375877" />
    <flowRoot
       xml:space="preserve"
       id="flowRoot851"
       style="fill:black;fill-opacity:1;stroke:none;font-family:sans-serif;font-style:normal;font-weight:normal;font-size:40px;line-height:0;letter-spacing:0px;word-spacing:0px"><flowRegion
         id="flowRegion853"><rect
           id="rect855"
           width="114.28571"
           height="65.714287"
           x="47.142857"
           y="194.28572" /></flowRegion><flowPara
         id="flowPara857" /></flowRoot>    <g
       id="g42931"
       transform="matrix(0.17657065,0,0,0.17657065,16.880991,169.643)">
      <g
         id="g42733"
         style="fill:none;stroke-width:2;stroke-linecap:butt">
        <path
           id="path42617"
           d="m 169.06,0 -8.79,0.91 q -3.02,0.31 -3.36,3.32 -1.2,10.46 0.83,20.64 a 0.75,0.74 76.3 0 1 -0.51,0.86 l -11.43,3.51 q -1.01,0.31 -1.93,0.85 c -2.45,1.43 -5.33,0.71 -7.43,1 q -3.65,0.5 -7.34,0.65 -0.02,0 -0.02,0.02 l -0.13,0.39 a 0.59,0.59 0 0 1 -0.5,0.4 q -0.83,0.1 -0.99,-0.8"
           inkscape:connector-curvature="0"
           style="vector-effect:non-scaling-stroke;stroke:#e9e9e9" />
        <path
           id="path42619"
           d="M 127.46,31.75 128.2,9.7 a 0.32,0.32 0 0 0 -0.45,-0.31 c -4.84,2.07 -12.09,7.31 -12.41,13.05 q -0.27,4.66 -0.61,9.33"
           inkscape:connector-curvature="0"
           style="vector-effect:non-scaling-stroke;stroke:#858585" />
        <path
           id="path42621"
           d="M 114.73,31.77 Q 100.84,29.19 86.75,30.06 83.62,30.26 74.71,27.14"
           inkscape:connector-curvature="0"
           style="vector-effect:non-scaling-stroke;stroke:#e9e9e9" />
        <path
           id="path42623"
           d="m 74.71,27.14 q -2.87,-0.75 -5.46,2.65"
           inkscape:connector-curvature="0"
           style="vector-effect:non-scaling-stroke;stroke:#858585" />
        <path
           id="path42625"
           d="M 69.25,29.79 68.93,29.76 A 0.5,0.49 -87.3 0 1 68.5,29.28 V 28.96 A 0.19,0.19 0 0 0 68.31,28.77 Q 66,28.75 63.67,28.74 c -2.61,-0.01 -4.85,1.32 -7.72,1.22 q -0.98,-0.03 -0.19,-0.61 l 1.23,-0.89 a 1.04,1.01 -14.6 0 0 0.42,-0.69 C 57.93,24.55 48.58,24.78 46.4,25 34.35,26.21 22.12,27.58 10,27.45 Q 5,27.39 0,27.69"
           inkscape:connector-curvature="0"
           style="vector-effect:non-scaling-stroke;stroke:#e9e9e9" />
        <path
           id="path42627"
           d="m 173.31,0 q 6.5,0.76 13,0"
           inkscape:connector-curvature="0"
           style="vector-effect:non-scaling-stroke;stroke:#e9e9e9" />
        <path
           id="path42629"
           d="m 190.56,0 q 2.45,0.32 2.38,2.68 a 0.66,0.65 -80.5 0 0 0.45,0.64 l 0.34,0.12 a 0.58,0.57 18.3 0 0 0.73,-0.36 L 195.2,0.9 a 0.9,0.9 0 0 1 0.82,-0.61 q 5.34,-0.14 10.34,1.62 a 1,0.99 -86.9 0 1 0.65,0.73 c 1.51,6.66 0.55,14.19 0.97,21.05 a 0.54,0.54 0 0 0 0.53,0.51 q 25.09,0.32 50.17,0.34 c 7.25,0.01 17.17,1.07 25.01,0.37 q 9.19,-0.82 13.64,-1.1 c 4.26,-0.27 9.08,-1.27 14.17,-0.07 a 0.84,0.83 2.2 0 1 0.63,0.67 l 0.5,2.83 a 0.62,0.62 0 0 1 -0.33,0.66 c -1.07,0.53 -3.79,2.38 -4.46,0.74 a 0.66,0.66 0 0 1 0.28,-0.82 l 1.38,-0.79 a 0.45,0.45 0 0 0 0.01,-0.78 q -0.9,-0.54 -1.77,0 -0.38,0.24 -0.63,0.61 -0.9,1.34 -2.51,1.48 a 0.51,0.5 -7.9 0 1 -0.55,-0.41 l -0.31,-1.68 A 0.93,0.93 0 0 0 303,25.5 q -5.45,-0.99 -10.44,1.44 -1.64,0.8 0.12,1.3 2.99,0.84 6.16,0.42 a 0.55,0.54 81.9 0 1 0.61,0.46 l 0.06,0.33 a 0.59,0.59 0 0 1 -0.5,0.67 c -2.25,0.32 -10.24,-0.15 -11.4,0.65 a 1.45,1.44 28.5 0 1 -0.89,0.26 q -5.8,-0.19 -13.48,-1.75 c -2.46,-0.51 -4.66,1.58 -6.77,0.07 a 0.41,0.4 -64.4 0 0 -0.62,0.22 q -0.46,1.54 -2.11,1.71 a 0.27,0.26 -3.7 0 0 -0.24,0.26 v 0.3 a 0.43,0.43 0 0 0 0.4,0.43 c 17.55,1.3 33.62,1.62 52.26,0.8 25.89,-1.14 55.23,0.87 78.43,1.22 q 6.25,0.09 12.47,-0.64 c 4.48,-0.54 9.19,-0.14 13.82,-0.76 3.49,-0.47 6.12,0.25 9.41,0.86 6.08,1.12 12.57,0.38 18.78,0.57 a 0.6,0.59 -4.3 0 1 0.56,0.48 l 0.37,2.01"
           inkscape:connector-curvature="0"
           style="vector-effect:non-scaling-stroke;stroke:#e9e9e9" />
        <path
           id="path42631"
           d="m 450,221.56 q 0.14,2.32 -1.29,2.4 -8.14,0.5 -16.28,1.02 c -5.4,0.34 -10.4,-0.22 -15.68,-0.78 -4.98,-0.53 -11.84,5.23 -14.52,-2.75 a 0.66,0.66 0 0 0 -0.74,-0.44 l -6.81,1.18 a 1.94,1.88 -71 0 0 -0.98,0.5 l -1.27,1.24 a 1.7,1.66 -69.9 0 1 -0.94,0.45 q -5.62,0.75 -10.88,-1.12 a 1.94,1.88 47.9 0 0 -1.03,-0.07 c -18,3.99 -36.24,2.57 -54.46,1.52 -3.52,-0.2 -6.17,-2.11 -10.38,-2.13 q -9.74,-0.05 -22.15,-1.75 c -3.63,-0.5 -7.56,-0.01 -11.42,-0.39 q -8.07,-0.82 -8.51,-0.83 c -18.61,-0.85 -37.21,-1.77 -55.77,-3.43 -10.05,-0.89 -18.55,0.46 -27.89,0.11 q -3.46,-0.12 -6.76,-1.35 -2.17,-0.81 -2.21,1.51 l -0.15,8.68 a 0.65,0.64 -2.5 0 1 -0.58,0.63 c -1.59,0.14 -2.27,-3.7 -2.34,-4.82 a 0.46,0.45 82 0 0 -0.55,-0.42 l -1.08,0.25 a 1.14,1.13 -4.1 0 1 -1.39,-1.2 l 0.29,-3.69 a 0.35,0.34 -87.7 0 0 -0.34,-0.38 l -0.29,-0.01 a 0.45,0.44 -86.3 0 0 -0.44,0.39 q -0.64,6.31 0.06,12.59 a 0.58,0.58 0 0 0 0.54,0.51 l 1.24,0.06"
           inkscape:connector-curvature="0"
           style="vector-effect:non-scaling-stroke;stroke:#e9e9e9" />
        <path
           id="path42633"
           d="m 175,229.04 -22.7,11.13 a 1.06,1.06 0 0 1 -1.52,-0.93 l -0.09,-5.98 a 1.06,1.06 0 0 0 -1.57,-0.91 q -7.29,4 -11.27,10.81 c -1.54,2.63 -1.7,6.03 -2.56,9.09"
           inkscape:connector-curvature="0"
           style="vector-effect:non-scaling-stroke;stroke:#6f6f6f" />
        <path
           id="path42635"
           d="m 135.29,252.25 0.08,-3.32 a 0.49,0.49 0 0 0 -0.5,-0.5 q -2.23,0.06 -2.66,-1.92 c -1.03,-4.86 0.28,-14.79 -1.64,-23.17 a 0.44,0.43 82.3 0 0 -0.45,-0.35 c -1.63,0.06 1.23,15.47 -0.81,15.32 a 0.59,0.59 0 0 1 -0.54,-0.49 q -0.09,-0.46 -0.52,-0.57 -2.48,-0.59 -2.6,0.98 l -0.59,7.33 a 1.2,1.2 0 0 1 -0.41,0.81 q -2.81,2.43 -6.36,3.13"
           inkscape:connector-curvature="0"
           style="vector-effect:non-scaling-stroke;stroke:#e9e9e9" />
        <path
           id="path42637"
           d="m 118.29,249.5 q 1.36,-8.76 -0.72,-17.35"
           inkscape:connector-curvature="0"
           style="vector-effect:non-scaling-stroke;stroke:#6f6f6f" />
        <path
           id="path42639"
           d="m 117.57,232.15 q 0.49,-8.86 -0.48,-18.21 a 0.52,0.51 -4.6 0 0 -0.55,-0.46 q -5.29,0.32 -16.05,1.46 c -5.86,0.62 -11.42,-1.05 -17.11,-1.21 q -5.57,-0.16 -11.63,-1 c -1.43,-0.2 -2.93,0.37 -4.33,0.17 q -7.91,-1.14 -15.76,-0.13 c -4.56,0.59 -8.43,0.7 -12.68,1.09 -5.83,0.54 -11.55,-0.48 -17.47,-0.35 -6.87,0.16 -13.41,-1.33 -20.38,-1.16 a 0.58,0.57 85.5 0 1 -0.58,-0.5 L 0,207.94"
           inkscape:connector-curvature="0"
           style="vector-effect:non-scaling-stroke;stroke:#e9e9e9" />
        <path
           id="path42641"
           d="m 0,47.94 0.38,-0.79 a 0.88,0.88 0 0 1 0.76,-0.5 q 4.48,-0.16 15.36,0.37 9.56,0.46 25,-1.47 0.49,-0.06 0.63,-0.41 A 0.59,0.59 0 0 0 41.84,44.38 Q 40.4,43.7 38.99,44.01 31.11,45.75 23.81,43.73 a 0.54,0.54 0 0 0 -0.64,0.3 c -1.33,3.15 -11.92,1.5 -14.99,0.98 q -4.05,-0.68 -8.15,0.4"
           inkscape:connector-curvature="0"
           style="vector-effect:non-scaling-stroke;stroke:#e9e9e9" />
        <path
           id="path42643"
           d="m 69.25,29.79 -6.53,6.58 a 3.39,3.38 -22.7 0 0 -0.98,2.38 c 0.03,33.19 0.8,66.78 -0.45,100.11 q -0.02,0.51 -0.28,0.95 l -1.36,2.3 a 1.82,1.79 58.5 0 0 -0.24,1.04 q 0.1,1.42 1.39,1.53 a 0.6,0.59 -88.4 0 1 0.55,0.59 q 0.28,15.12 0.72,30.23 0.14,4.87 1.59,9.43 a 0.36,0.35 62.9 0 0 0.55,0.18 c 5.99,-4.42 13.41,-8.35 12.05,-17.13 -1.31,-8.5 -1.53,-17.18 -1.5,-25.83 a 0.76,0.75 83.8 0 1 0.59,-0.74 l 29.8,-6.36 a 1.34,1.34 0 0 1 1.61,1.42 c -1.45,17.3 -3.07,35.53 -2.72,53.29 a 0.72,0.72 0 0 0 0.82,0.7 c 6.65,-0.98 13.64,-10.23 13.52,-16.96 q -0.34,-18.14 0.83,-36.25 c 0.51,-7.81 4.16,-10.92 9.07,-16.21 q 0.67,-0.72 -0.32,-0.66 l -6.58,0.45 a 1.13,1.12 0.9 0 1 -1.2,-1.23 c 0.45,-4.77 1.22,-9.63 1.53,-14.12 1.72,-24.58 3.09,-49.24 5.75,-73.73"
           inkscape:connector-curvature="0"
           style="vector-effect:non-scaling-stroke;stroke:#6f6f6f" />
        <path
           id="path42645"
           d="m 204.54,17.28 c 0.28,1.27 -0.16,6.79 1.14,7.19 a 0.28,0.27 8.6 0 0 0.36,-0.26 L 206.1,5.05 a 4.22,4.22 0 0 0 -0.88,-2.58 l -0.24,-0.31 q -0.55,-0.73 -0.71,0.17 -1.33,7.52 0.27,14.95"
           inkscape:connector-curvature="0"
           style="vector-effect:non-scaling-stroke;stroke:#e9e9e9" />
        <path
           id="path42647"
           d="m 165.23,25.59 2.12,0.28 a 0.38,0.38 0 0 0 0.42,-0.44 l -2.48,-13.05 a 0.49,0.49 0 0 0 -0.48,-0.39 h -0.27 a 0.52,0.52 0 0 0 -0.52,0.49 q -0.13,2.37 0.91,4.5 0.19,0.39 0.16,0.82 l -0.44,7.08 a 0.67,0.67 0 0 0 0.58,0.71"
           inkscape:connector-curvature="0"
           style="vector-effect:non-scaling-stroke;stroke:#e9e9e9" />
        <path
           id="path42649"
           d="m 202.8631,24.2074 a 2.94,0.83 87.6 0 0 0.7062,-2.9722 2.94,0.83 87.6 0 0 -0.9524,-2.9026 2.94,0.83 87.6 0 0 -0.7062,2.9722 2.94,0.83 87.6 0 0 0.9524,2.9026"
           inkscape:connector-curvature="0"
           style="vector-effect:non-scaling-stroke;stroke:#e9e9e9" />
        <path
           id="path42651"
           d="m 192.76,30.56 c 1.03,0.05 2.67,1.38 1.75,2.58 a 1.53,1.5 -26.6 0 0 -0.3,0.87 c -0.03,2 0.27,16.84 1.56,17.52 a 0.76,0.76 0 0 0 0.85,-0.1 c 7.89,-6.76 6,-16.71 4.75,-25.78 a 1.21,1.2 84.7 0 0 -1.24,-1.04 l -30.53,1.31 a 1.79,1.78 86.4 0 0 -1.7,1.93 c 0.14,1.71 -0.07,9.11 0.59,10.04 q 0.29,0.4 0.35,0.9 c 0.45,4.31 1.29,9.36 4.86,12.14 10.2,7.96 12.36,-1.45 8.05,-8.53 a 0.46,0.45 -28.5 0 1 0.2,-0.65 c 1.83,-0.83 2.7,0.41 2.79,2.17 0.21,4.25 0.27,7.93 5.14,9.29 q 1.87,0.53 2.09,-1.41 c 0.51,-4.47 1.79,-11.11 -0.12,-15.26 a 0.8,0.8 0 0 0 -0.71,-0.46 C 189.59,36.05 186.13,36 186,35.33 a 0.43,0.43 0 0 1 0.42,-0.51 l 5.64,-0.08 a 0.5,0.5 0 0 0 0.49,-0.55 l -0.27,-3.13 a 0.46,0.46 0 0 1 0.48,-0.5"
           inkscape:connector-curvature="0"
           style="vector-effect:non-scaling-stroke;stroke:#c3c3c3" />
        <path
           id="path42653"
           d="m 161,46.1 c 1.53,2.13 3.87,2.68 6.04,4.39 a 0.32,0.32 0 0 0 0.51,-0.19 c 0.77,-3.44 -3.38,-3.63 -3.26,-7.03 0.21,-5.97 2.18,-9.81 -0.09,-15.95 q -0.72,-1.94 -2.75,-1.57 l -3.33,0.6 a 0.57,0.57 0 0 0 -0.4,0.83 l 1.05,2.03 a 0.66,0.66 0 0 1 -0.2,0.83 l -0.86,0.63 a 1.01,0.99 68.1 0 0 -0.39,0.94 c 0.68,4.92 0.69,10.35 3.68,14.49"
           inkscape:connector-curvature="0"
           style="vector-effect:non-scaling-stroke;stroke:#c3c3c3" />
        <path
           id="path42655"
           d="M 54.64,28.22 Q 55,27.98 55.19,27.63 a 0.42,0.42 0 0 0 -0.31,-0.62 c -2.06,-0.3 -2.54,1.09 -4.26,1.6 a 0.4,0.4 0 0 1 -0.5,-0.28 l -0.5,-1.72 a 0.86,0.86 0 0 0 -0.8,-0.63 q -5.07,-0.12 -9.59,2.06 a 0.79,0.78 -29.4 0 0 -0.32,1.13 c 0.02,0.03 9.49,0.98 9.98,0.99 1.5,0 4.85,0.06 5.31,-1.34 a 1.17,1.12 82.5 0 1 0.44,-0.6"
           inkscape:connector-curvature="0"
           style="vector-effect:non-scaling-stroke;stroke:#e9e9e9" />
        <path
           id="path42657"
           d="m 226.48,36.52 c -1.95,-0.13 -3.97,-0.92 -6,-1.18 q -0.49,-0.07 -0.89,-0.35 c -2.26,-1.56 -9.57,-4.62 -10.47,-0.01 q -0.32,1.67 1.29,1.11 c 2.48,-0.87 3.84,0.05 5.91,0.39 q 5.04,0.84 10.15,1.35 a 0.49,0.49 0 0 0 0.54,-0.5 L 227,37.05 a 0.55,0.54 1.2 0 0 -0.52,-0.53"
           inkscape:connector-curvature="0"
           style="vector-effect:non-scaling-stroke;stroke:#e9e9e9" />
        <path
           id="path42659"
           d="m 430.79,40.98 9.12,1.47 q 0.44,0.07 0.78,0.35 3.26,2.63 7.43,2.8 a 0.66,0.66 0 0 0 0.67,-0.54 l 0.08,-0.44 a 0.5,0.5 0 0 0 -0.51,-0.58 c -4.05,0.17 -7.33,-1.92 -10.2,-2.76 -3.15,-0.93 -6.14,-2.31 -9.53,-1.75 a 0.87,0.87 0 0 1 -0.94,-0.51 l -0.83,-1.88 a 0.58,0.56 73.5 0 0 -0.6,-0.34 l -6.1,0.83 a 1.42,1.37 -71.6 0 0 -0.79,0.41 c -2.52,2.64 -5.17,2.7 -8.63,2.57 -2.87,-0.11 -5.49,1.17 -8.42,0.32 -1.23,-0.36 -9.93,-2.78 -8.77,0.31 a 0.77,0.77 0 0 0 0.69,0.5 q 5.65,0.27 11.31,0.55 c 1.59,0.07 3.05,-0.9 4.75,-0.8 q 5.12,0.33 10.23,0 0.56,-0.03 1.06,0.21 1.63,0.77 3.12,-0.24 a 1.46,1.44 31.6 0 1 0.99,-0.23 q 2.12,0.3 4.13,-0.21 0.48,-0.11 0.96,-0.04"
           inkscape:connector-curvature="0"
           style="vector-effect:non-scaling-stroke;stroke:#e9e9e9" />
        <path
           id="path42661"
           d="m 247.4481,38.2807 a 5.64,0.66 -6.1 0 0 -5.6782,-0.057 5.64,0.66 -6.1 0 0 -5.538,1.2556 5.64,0.66 -6.1 0 0 5.6782,0.057 5.64,0.66 -6.1 0 0 5.538,-1.2556"
           inkscape:connector-curvature="0"
           style="vector-effect:non-scaling-stroke;stroke:#e9e9e9" />
        <path
           id="path42663"
           d="m 368.7,44.98 -0.09,0.41 a 0.49,0.48 -83.5 0 1 -0.48,0.39 l -4.99,-0.11 a 0.63,0.63 0 0 0 -0.63,0.51 c -0.25,1.26 5.28,1.49 6.25,1.57 a 0.66,0.66 0 0 0 0.7,-0.49 l 0.91,-3.71 a 1.52,1.52 0 0 1 0.47,-0.79 q 1.45,-1.31 3.45,-0.58 1.84,0.67 0.39,-0.65 -0.67,-0.62 -1.56,-0.98 a 0.91,0.89 32.8 0 0 -0.96,0.2 l -1.96,1.97 a 0.92,0.89 26.2 0 1 -0.78,0.25 l -4.69,-0.73 a 0.82,0.82 0 0 0 -0.83,0.4 l -0.39,0.67 a 0.41,0.41 0 0 0 0.32,0.62 l 4.32,0.33 a 0.61,0.61 0 0 1 0.55,0.72"
           inkscape:connector-curvature="0"
           style="vector-effect:non-scaling-stroke;stroke:#e9e9e9" />
        <path
           id="path42665"
           d="m 362.69,53.34 c -1.67,-1.32 -11.46,-5.74 -11.42,-0.79 a 0.73,0.73 0 0 0 0.68,0.73 l 10.5,0.69 q 1.14,0.08 0.24,-0.63"
           inkscape:connector-curvature="0"
           style="vector-effect:non-scaling-stroke;stroke:#e9e9e9" />
        <path
           id="path42667"
           d="m 319.72,74.49 c -1.85,0.78 -1.25,-3.99 -1.04,-4.59 a 0.51,0.51 0 0 0 -0.31,-0.64 c -5.17,-1.97 -7.59,-2.51 -11.29,2.32 q -0.23,0.3 -0.52,0.27 a 0.57,0.57 0 0 1 -0.51,-0.54 l -0.14,-3.41 a 0.51,0.51 0 0 0 -0.71,-0.45 l -2.18,0.89 a 0.85,0.84 47.1 0 1 -0.71,-0.03 l -2.69,-1.35 a 0.93,0.92 39.1 0 0 -1.01,0.1 c -5.67,4.6 -8.42,7.15 -8.76,14.7 q -0.08,1.58 -2.19,2.58 a 0.88,0.86 -11 0 0 -0.49,0.71 q -0.89,9.91 -1.72,19.84 c -0.91,10.8 0.62,21.26 -0.24,32.13 -1.17,14.78 0.86,30.71 2.21,45.56 a 1.01,1.01 0 0 0 1.07,0.92 q 2.88,-0.17 4.64,-2.29 a 1.37,1.35 63.1 0 0 0.31,-0.97 l -0.61,-10.26 q -0.07,-1.31 0.92,-0.45 l 1.48,1.28 a 0.76,0.76 0 0 1 0.23,0.79 q -0.56,1.99 1.32,2.88 a 0.41,0.41 0 0 0 0.57,-0.27 c 1.16,-4.63 -0.73,-8.92 0.74,-13.75 q 0.15,-0.48 0.11,-0.98 l -0.26,-3.05 q -0.06,-0.77 0.62,-0.4 l 0.38,0.2 a 1.59,1.57 -74 0 1 0.81,1.48 q -0.77,11.45 0.38,22.84 0.06,0.55 0.38,1 1.45,2.04 1.24,4.58 a 1.55,1.55 0 0 0 1.66,1.68 l 4.01,-0.33 a 1.75,1.7 -31.3 0 1 1,0.23 q 1.39,0.81 2.56,-0.25 a 1.21,1.18 -61.5 0 1 0.97,-0.3 l 3.47,0.49 a 0.51,0.51 0 0 0 0.55,-0.32 c 0.9,-2.26 0.75,-7.94 4.31,-7.26 a 0.84,0.84 0 0 1 0.64,0.59 l 1.54,5.77 a 1.16,1.15 78.8 0 0 1.26,0.85 q 6.35,-0.82 6.01,-7.19 a 0.79,0.79 0 0 1 0.37,-0.72 c 2.41,-1.49 4.03,2.02 4.62,3.67 a 1.07,1.07 0 0 0 1.69,0.46 q 5.89,-4.82 5.22,-12.49 -0.71,-8.18 -0.62,-16.47 a 0.51,0.51 0 0 1 0.49,-0.5 l 1.47,-0.06 a 0.79,0.78 -84.8 0 0 0.74,-0.62 l 0.83,-3.84 q 0.26,-1.18 1.02,-0.24 0.5,0.62 0.51,1.48 0.04,10.04 1.06,20.11 a 0.35,0.34 -20.2 0 0 0.54,0.24 c 0.81,-0.56 0.04,-26.54 -0.02,-29.54 -0.1,-5.52 -1.89,-10.93 -2.16,-15.92 -0.76,-13.93 -0.9,-27.78 -2.39,-41.64 a 1.34,1.31 -73.1 0 0 -0.43,-0.83 q -2.36,-2.06 -5.41,-6.94 -4.19,-6.69 -12.91,-8.15 a 0.9,0.89 77.4 0 1 -0.61,-0.39 l -0.76,-1.1 a 0.58,0.57 48.6 0 0 -0.91,-0.06 q -2.71,3.12 -1.99,7.29 a 0.61,0.61 0 0 1 -0.36,0.66"
           inkscape:connector-curvature="0"
           style="vector-effect:non-scaling-stroke;stroke:#c3c3c3" />
        <path
           id="path42669"
           d="m 200.49,112.44 q 0.55,4.42 0.53,7.81 -0.23,31.98 0.1,63.97 c 0.03,2.33 1.02,4.72 1.59,6.85 q 0.57,2.11 2.12,0.58 l 11.61,-11.4 a 0.7,0.69 -38.9 0 0 0.1,-0.87 q -1.1,-1.69 -1.09,-2.65 0.24,-34.54 -0.18,-69.23 a 0.83,0.82 -14.9 0 1 0.43,-0.74 c 9.06,-4.9 18.96,-5.95 29.13,-6.15 a 1.63,1.6 24.5 0 0 0.99,-0.36 q 6.06,-4.98 11.19,-10.89 a 1.92,1.92 0 0 0 -0.05,-2.57 c -2.56,-2.75 -41.75,8.95 -46.34,11.62 -9.11,5.31 -18.47,11.43 -24.12,19.95 a 0.5,0.5 0 0 0 0.35,0.77 l 0.28,0.04 a 1.86,1.82 32.9 0 0 1.17,-0.24 l 11.46,-6.84 a 0.48,0.48 0 0 1 0.73,0.35"
           inkscape:connector-curvature="0"
           style="vector-effect:non-scaling-stroke;stroke:#6f6f6f" />
        <path
           id="path42671"
           d="m 136.46,172.25 -0.23,0.72 a 1.05,1.04 89.6 0 1 -0.65,0.67 q -2.98,1.04 -6.1,0.61 a 1.58,1.54 35.6 0 0 -0.91,0.14 c -4.3,2.02 -7.19,3.41 -7.99,7.57 a 0.56,0.55 6.6 0 1 -0.57,0.45 c -4.24,-0.22 -2.79,26.52 -2.46,29.84 a 0.8,0.79 -9.1 0 0 0.96,0.69 l 7.76,-1.74 a 1.71,1.61 -40.3 0 1 0.93,0.05 q 6.33,2.24 11.12,1.33 5.1,-0.96 6.66,-0.3 c 11.5,4.87 22.1,2.29 33.49,2.35 a 1.37,1.37 0 0 0 1.36,-1.57 c -1.27,-8.68 -1.5,-18.17 -3.38,-25.89 a 0.7,0.7 0 0 0 -0.58,-0.53 q -0.82,-0.11 -1.16,-0.89"
           inkscape:connector-curvature="0"
           style="vector-effect:non-scaling-stroke;stroke:#c3c3c3" />
        <path
           id="path42673"
           d="m 174.71,185.75 c 8.51,-3.39 19.14,-8.92 22.83,-17.91 q 0.54,-1.32 -0.73,-0.67 c -10.51,5.38 -23.29,10.85 -35.14,9.82"
           inkscape:connector-curvature="0"
           style="vector-effect:non-scaling-stroke;stroke:#6f6f6f" />
        <path
           id="path42675"
           d="m 161.67,176.99 0.23,-2.07 a 0.63,0.61 -74 0 0 -0.34,-0.63 l -3.59,-1.78 a 0.61,0.61 0 0 0 -0.73,0.14 q -1.78,1.95 -4.4,2.47 -0.48,0.09 -0.88,0.38 l -2.16,1.58 q -0.28,0.2 -2.63,0.9 -1.91,0.56 -2.96,-1.23"
           inkscape:connector-curvature="0"
           style="vector-effect:non-scaling-stroke;stroke:#c3c3c3" />
        <path
           id="path42677"
           d="m 144.21,176.75 5.48,-5.84 q 1.25,-1.32 1.3,-3.13 0.25,-8.78 -1.28,-17.44 -0.53,-3.04 2.47,-3.77 8.07,-1.94 16.39,-1.81 a 2.32,2.3 -66.9 0 0 1.69,-0.69 l 10.78,-10.83 a 0.84,0.84 0 0 0 0.13,-1.02 q -1.3,-2.24 -3.93,-1.71 c -4.54,0.92 -8.81,1.45 -12.91,2.68 q -7,2.1 -14.13,3.81 a 0.77,0.77 0 0 1 -0.95,-0.75 l 0.01,-24.01 a 1.11,1.09 77.1 0 1 0.61,-0.99 q 11.68,-5.88 24.64,-8.01 a 1.36,1.36 0 0 1 1.58,1.24 l 0.22,2.82 q 0.06,0.68 0.6,0.27 6.73,-5.07 11.85,-11.8 1.24,-1.63 1.01,-3.68 -0.37,-3.19 -3.5,-2.53 c -13.26,2.79 -22.9,7.39 -36.19,14.89 a 0.42,0.41 -16 0 1 -0.62,-0.34 l -0.27,-5.27 a 0.39,0.39 0 0 0 -0.54,-0.34 c -6.16,2.56 -11.19,7.44 -12.25,14.19 -0.95,6.04 -6.12,9.37 -6.39,15.5 q -0.29,6.67 0.77,11 c 2.62,10.71 5.23,22.01 5.68,33.06"
           inkscape:connector-curvature="0"
           style="vector-effect:non-scaling-stroke;stroke:#6f6f6f" />
        <path
           id="path42679"
           d="m 144.21,176.75 c -1.83,1.5 -3.99,4.03 -6.54,4 a 0.64,0.63 83.8 0 1 -0.62,-0.5 q -0.91,-3.93 -0.59,-8"
           inkscape:connector-curvature="0"
           style="vector-effect:non-scaling-stroke;stroke:#5f5f5f" />
        <path
           id="path42681"
           d="m 174.71,185.75 q -13.95,5.18 -28.87,5.54 -3.18,0.08 -1.63,-2.7 5.77,-10.31 17.46,-11.6"
           inkscape:connector-curvature="0"
           style="vector-effect:non-scaling-stroke;stroke:#5f5f5f" />
        <path
           id="path42683"
           d="m 74.71,27.14 q 0.17,30.18 0.25,60.29 c 0.03,10.99 -0.51,28.11 0.06,42.05 a 1.2,1.19 -7.7 0 0 1.46,1.11 l 28.97,-6.64 q 2.42,-0.55 2.56,-3.03 2.61,-45.34 6.72,-89.15"
           inkscape:connector-curvature="0"
           style="vector-effect:non-scaling-stroke;stroke:#6f6f6f" />
        <path
           id="path42685"
           d="m 324.1465,71.7442 a 1.13,0.96 133.9 0 0 1.4752,-0.1485 1.13,0.96 133.9 0 0 0.0918,-1.4799 1.13,0.96 133.9 0 0 -1.4752,0.1485 1.13,0.96 133.9 0 0 -0.0918,1.4799"
           inkscape:connector-curvature="0"
           style="vector-effect:non-scaling-stroke;stroke:#c3c3c3" />
        <path
           id="path42687"
           d="m 117.57,232.15 q -10.15,-9.13 -24.02,-7.12 c -9.26,1.34 -23.69,13.44 -28.1,21.2 -12.63,22.24 -14.18,46.61 -16.47,71.43 -1.15,12.42 2.25,14.01 12.82,15.96 q 8.85,1.63 17.86,1.43 c 12.51,-0.28 27.86,-15.5 35.13,-25.14 q 11.49,-15.24 20.38,-32.23 a 0.46,0.46 0 0 1 0.69,-0.14 c 1.03,0.86 0.57,61.01 0.87,64.25 a 0.4,0.4 0 0 0 0.52,0.35 c 4.28,-1.36 8.99,-7.16 11.98,-10.72 q 1.52,-1.81 1.52,-4.17 v -77.09 a 2.4,2.39 74.4 0 1 1.15,-2.05 q 8.21,-5.03 17.32,-8.15 a 0.81,0.8 78.7 0 1 1.06,0.71 q 0.59,9.78 -0.94,19.4 c -3.37,21.16 -7.96,42.47 -7.28,64.03 a 2.07,2.06 -87.1 0 0 1.79,1.99 c 8.24,1.08 11.73,-1.79 18.36,-7.04 q 3.54,-2.81 6.84,-6.03 a 0.32,0.32 0 0 1 0.53,0.12 c 1.42,3.83 2.29,8.33 4.03,11.47 2.68,4.84 7.54,9.56 13.43,9.39 3.69,-0.1 5.35,-3.24 7.93,-3.99 28.69,-8.34 40.97,-47.55 41.8,-73.71 q 0.24,-7.29 -1.61,-11.92 c -6.44,-16.1 -30.94,-21.37 -43.87,-9.56 -18.86,17.24 -19.45,36.1 -21.62,59.88 -0.59,6.41 -4.25,22.72 -14.34,17.77 a 0.77,0.75 14.5 0 1 -0.43,-0.71 c 0.96,-26.68 6.81,-52.8 10.24,-79.24 q 0.15,-1.13 -0.45,-4.63 a 0.7,0.7 0 0 0 -0.59,-0.57 q -4.86,-0.6 -9.1,1.72"
           inkscape:connector-curvature="0"
           style="vector-effect:non-scaling-stroke;stroke:#858585" />
        <path
           id="path42689"
           d="m 254.19,414 c 0.29,-0.38 0.47,-0.61 0.43,-1.11 q -1.12,-15.3 -0.88,-30.64 0.04,-2.62 -1.52,-8.31 a 0.37,0.37 0 0 0 -0.52,-0.24 c -0.32,0.15 -0.07,3.2 -0.01,4.36 q 0.42,9.08 0.23,18.16 c 0,0.27 -0.17,0.57 -0.3,0.8 q -0.28,0.46 -0.35,-0.07 c -0.71,-5.08 -0.36,-9.78 -0.95,-15.13 -0.39,-3.56 0.84,-8.12 -1.26,-11.36 q -0.51,-0.78 -0.7,0.14 l -0.13,0.63 a 0.7,0.7 0 0 1 -0.72,0.56 c -1.15,-0.06 0.2,-4.07 -2.44,-5.15 q -5.58,-2.28 -11.24,-4.59 a 1.56,1.55 -73.8 0 0 -2.12,1.17 l -1.09,6.09 q -0.25,1.36 -0.57,0.02 c -0.74,-3.08 1.73,-6.64 -1.03,-9.11 a 0.43,0.42 -61 0 0 -0.69,0.2 q -0.4,1.45 -1.68,2.11 a 0.53,0.53 0 0 0 -0.25,0.68 q 0.85,2.08 0.45,4.26 -0.16,0.82 -0.41,0.03 l -1.5,-4.69 q -0.26,-0.79 -0.71,-0.09 l -0.97,1.5 q -0.58,0.89 -0.87,-0.13 l -0.51,-1.85 a 0.83,0.82 87.1 0 0 -0.65,-0.59 l -0.83,-0.16 a 0.57,0.57 0 0 0 -0.68,0.62 l 0.1,0.86 a 0.81,0.79 71.5 0 1 -0.37,0.76 l -1.37,0.84 a 1.13,1.12 77.7 0 0 -0.51,0.8 q -0.17,1.38 -1.12,2.32 -0.45,0.44 -0.45,-0.19 v -2.35 a 0.66,0.66 0 0 0 -0.59,-0.66 q -2.39,-0.26 -2.35,-2.7 a 0.49,0.48 -2.1 0 0 -0.53,-0.49 c -3.48,0.33 -6.71,0.01 -9.67,1.87 q -5.46,3.43 -6.98,10.01 a 0.68,0.68 0 0 1 -0.52,0.51 l -0.25,0.05 a 0.84,0.84 0 0 0 -0.61,0.48 c -5.81,13.11 -4.41,24.33 -3.66,38.45 a 0.65,0.64 -87.2 0 0 0.54,0.6 l 4.81,0.73"
           inkscape:connector-curvature="0"
           style="vector-effect:non-scaling-stroke;stroke:#e9e9e9" />
        <path
           id="path42691"
           d="m 122.69,414 2.29,-0.56 a 0.6,0.6 0 0 0 0.45,-0.67 c -1.44,-10.15 -1.32,-20.3 -2.64,-30.4 q -0.32,-2.39 -2.07,-4.04 l -6.47,-6.08 q -0.35,-0.33 -0.82,-0.46 l -6.45,-1.72 a 1.45,1.43 81.7 0 1 -0.85,-0.64 q -0.7,-1.15 -1.97,-1.2 a 0.83,0.81 -75.2 0 0 -0.76,0.45 q -1.97,3.81 -1.55,8.2 0.09,0.89 -0.14,1.75 -0.97,3.6 -1.74,3.63 a 0.46,0.46 0 0 1 -0.48,-0.51 q 0.21,-1.85 0.49,-3.7 c 0.32,-2.15 -0.33,-4.13 -0.07,-6.44 q 0.08,-0.7 -0.54,-0.38 -1.27,0.66 -1.14,2.26 a 0.48,0.48 0 0 1 -0.5,0.52 L 97.28,374 a 0.56,0.56 0 0 1 -0.53,-0.47 l -0.29,-2.01 a 0.64,0.63 82.9 0 0 -0.69,-0.54 l -3.49,0.32 a 1.63,1.63 0 0 1 -0.91,-0.17 c -4.51,-2.36 -3.86,6.45 -5.92,5.59 A 0.74,0.72 11.7 0 1 85,376.05 v -5.32 a 0.69,0.69 0 0 0 -0.58,-0.68 q -2.1,-0.35 -2.88,1.64 a 0.58,0.57 -61.5 0 1 -0.87,0.26 l -2.32,-1.66 a 1.68,1.67 -42.3 0 0 -1.82,-0.08 c -3.83,2.25 -8.7,4.62 -7.47,10.09 a 0.49,0.49 0 0 1 -0.23,0.52 l -0.27,0.15 a 0.26,0.25 -26.2 0 1 -0.37,-0.12 l -0.62,-1.51 q -0.26,-0.63 -0.65,-0.07 c -2.69,3.92 -1.79,18.19 -1.41,22.23 q 0.22,2.42 -0.94,11.41 a 0.63,0.62 15.7 0 0 0.37,0.65 l 1,0.44"
           inkscape:connector-curvature="0"
           style="vector-effect:non-scaling-stroke;stroke:#e9e9e9" />
        <path
           id="path42693"
           d="m 303.04,315.25 c 1.52,16.96 1.39,30.64 3.34,50.92 0.25,2.56 1.16,4.74 1.39,7.47 0.27,3.27 2.13,8.6 6.43,6.49 a 0.65,0.64 71.1 0 0 0.34,-0.71 c -0.18,-0.88 -0.61,-2.26 -0.01,-3.01 q 0.38,-0.48 1,-0.46 a 0.85,0.84 76.9 0 1 0.73,0.46 l 1.27,2.53 a 0.48,0.48 0 0 0 0.82,0.08 q 0.69,-0.92 0.24,-1.86 a 1.55,1.54 38.5 0 1 -0.12,-1.02 q 0.72,-3.31 -0.08,-6.63 -0.26,-1.09 -0.35,0.03 l -0.28,3.8 a 0.47,0.46 10.6 0 1 -0.6,0.4 l -0.26,-0.08 A 0.75,0.75 0 0 1 316.37,373 c -0.19,-2.62 -0.64,-30 -0.27,-30.19 a 0.29,0.28 -21.2 0 1 0.41,0.18 c 2.46,9.89 2.7,19.92 4.19,29.98 0.36,2.42 2.01,4.1 2.47,6.71 a 1.89,1.76 51.8 0 1 -0.08,0.96 c -0.68,1.85 0.7,3.95 2.9,3.26 a 0.77,0.77 0 0 0 0.47,-1.05 q -1.02,-2.22 0.29,-4.19 a 0.68,0.67 28.1 0 1 0.84,-0.25 c 0.16,0.07 1.42,4.7 2.61,5.82 a 1.17,1.16 65.2 0 0 0.88,0.33 l 5.68,-0.33 a 1.87,1.8 25.1 0 0 0.94,-0.32 q 1.22,-0.83 2.39,0.05 a 1.07,1.05 13.3 0 1 0.39,0.62 l 0.61,2.98 a 0.84,0.83 -1.5 0 0 0.69,0.65 l 4.51,0.68 a 0.6,0.6 0 0 0 0.65,-0.38 c 2.03,-5.38 2.22,-11.71 2.49,-18.41 0.01,-0.44 0.28,-0.87 0.71,-0.9 a 0.65,0.64 -6.6 0 1 0.67,0.53 l 2.65,14.83 q 0.15,0.87 0.8,0.27 l 5.82,-5.37 a 1.5,1.48 -18.6 0 0 0.47,-0.93 c 0.78,-7.07 0.15,-14.62 -0.04,-21.72 a 0.55,0.55 0 0 1 0.5,-0.56 q 1.9,-0.17 2.7,1.75"
           inkscape:connector-curvature="0"
           style="vector-effect:non-scaling-stroke;stroke:#e9e9e9" />
        <path
           id="path42695"
           d="m 363.71,358 0.53,4.72 a 0.76,0.75 5.2 0 0 0.55,0.65 c 3.51,1.04 9.79,-6.35 12.64,-9.71 1.37,-1.62 0.58,-4.39 0.61,-5.99 q 0.3,-21.29 5.02,-40.36 7.36,-29.68 14.95,-59.38 0.77,-2.97 -1.86,-1.38 c -9.14,5.54 -12.19,13.94 -14.91,25.16 q -5.38,22.21 -11.28,44.29"
           inkscape:connector-curvature="0"
           style="vector-effect:non-scaling-stroke;stroke:#858585" />
        <path
           id="path42697"
           d="m 369.96,316 q -2.25,0.42 -3.5,-1.5"
           inkscape:connector-curvature="0"
           style="vector-effect:non-scaling-stroke;stroke:#e9e9e9" />
        <path
           id="path42699"
           d="m 366.46,314.5 c 3.87,-9.66 3.38,-22.37 1.75,-32.5"
           inkscape:connector-curvature="0"
           style="vector-effect:non-scaling-stroke;stroke:#858585" />
        <path
           id="path42701"
           d="m 368.21,282 c 2.58,-2.58 1.95,-4.32 2.18,-7.67 0.31,-4.3 -2.82,-7.72 -6.41,-9.66 q -2.52,-1.36 -1.01,1.07 c 1.09,1.74 2.66,3.64 1.44,5.93 a 0.86,0.85 -56.9 0 1 -1.27,0.27 c -2.25,-1.74 -3.23,-4.1 -5.2,-5.93 q -1.49,-1.38 -2.73,-3.01"
           inkscape:connector-curvature="0"
           style="vector-effect:non-scaling-stroke;stroke:#e9e9e9" />
        <path
           id="path42703"
           d="m 355.21,263 c 3.19,-2.24 12.95,-9.61 13.82,-13.29 q 0.47,-2 -1.27,-0.94 -16.61,10.16 -31.57,22.62 -0.84,0.7 -0.85,-0.4 l -0.41,-35.97 a 1.56,1.56 0 0 0 -1.53,-1.54 c -7,-0.14 -15.01,5.35 -20.24,9.75 a 0.35,0.35 0 0 1 -0.57,-0.19 q -1.4,-6.69 -5.28,-12.33 -1.02,-1.48 -2.8,-1.71 -11.41,-1.48 -21.87,3.26 a 0.57,0.57 0 0 1 -0.75,-0.27 l -0.31,-0.64 a 1.39,1.38 58.4 0 0 -2.08,-0.5 c -5.27,4 -13.19,10.63 -11.45,18.2 q 0.81,3.5 0.6,7.39 c -1.05,20.04 -3.12,45.76 -2.33,69.3 q 1.04,31.04 0.47,62.1 c -0.08,4.38 -0.7,9.05 -0.99,13.61 a 0.3,0.3 0 0 0 0.43,0.29 q 3.57,-1.63 8.16,-6.1 c 4.97,-4.84 5.62,-7.62 5.61,-14.97 q -0.01,-23.93 0.01,-47.85 a 1.11,1.1 80.3 0 1 0.73,-1.04 c 9.47,-3.29 14.44,-8.33 22.3,-16.53"
           inkscape:connector-curvature="0"
           style="vector-effect:non-scaling-stroke;stroke:#858585" />
        <path
           id="path42705"
           d="m 355.21,263 q -9.43,5.87 -17.96,12.99 -3.57,2.97 -2.2,7.56 a 0.37,0.37 0 0 0 0.56,0.2 c 7.02,-4.79 29.64,-19.24 32.6,-1.75"
           inkscape:connector-curvature="0"
           style="vector-effect:non-scaling-stroke;stroke:#6f6f6f" />
        <path
           id="path42707"
           d="m 366.46,314.5 c -11.07,18.19 -25.6,24.92 -46.85,22.86 -12.63,-1.23 -9.86,-20.15 -10.76,-28.9 q -0.05,-0.45 -0.33,-0.09 l -5.48,6.88"
           inkscape:connector-curvature="0"
           style="vector-effect:non-scaling-stroke;stroke:#6f6f6f" />
        <path
           id="path42709"
           d="m 363.71,358 c 1.03,-15.39 2.72,-25.29 6.25,-42"
           inkscape:connector-curvature="0"
           style="vector-effect:non-scaling-stroke;stroke:#6f6f6f" />
        <path
           id="path42711"
           d="m 135.29,252.25 c -4.29,20.93 -14.23,40.05 -26.45,57.43 -6.49,9.24 -12.79,13.75 -24.12,11.34 q -0.5,-0.1 -0.14,-0.46 c 19.85,-19.24 32.31,-43.03 33.71,-71.06"
           inkscape:connector-curvature="0"
           style="vector-effect:non-scaling-stroke;stroke:#858585" />
        <path
           id="path42713"
           d="m 104.62,260.86 c 0.86,-10.36 0.75,-18.67 -10.62,-21.57 -9.77,-2.49 -17.18,-1.94 -20.92,8.53 q -9.86,27.56 -8.13,56.88 0.61,10.21 9.17,13.99 c 6.39,2.81 9.06,-1.66 12.97,-6.9 11.66,-15.6 15.95,-31.74 17.53,-50.93"
           inkscape:connector-curvature="0"
           style="vector-effect:non-scaling-stroke;stroke:#858585" />
        <path
           id="path42715"
           d="m 243.46,267.77 c 0.92,-16.83 -14.13,-26.72 -29.57,-25.78 q -3.17,0.2 -4.2,2.79 c -6.54,16.37 -5.27,33.87 -3.5,51.2 1.21,11.75 8.51,21.22 21.38,20.51 a 3.21,3.2 -73.8 0 0 2.41,-1.33 c 8.95,-12.46 12.66,-32.36 13.48,-47.39"
           inkscape:connector-curvature="0"
           style="vector-effect:non-scaling-stroke;stroke:#858585" />
        <path
           id="path42717"
           d="m 298.83,255.94 c -1.18,-10.46 -4.95,-16.1 -16.55,-13.78 a 0.57,0.57 0 0 0 -0.46,0.55 l -0.3,30.63 q -0.04,3.16 1.75,0.55 6.6,-9.61 15.29,-17.26 a 0.83,0.82 -24.1 0 0 0.27,-0.69"
           inkscape:connector-curvature="0"
           style="vector-effect:non-scaling-stroke;stroke:#858585" />
        <path
           id="path42719"
           d="m 315.68,248.04 q -2.18,0.93 -1.93,3.29 2.1,19.1 1.67,37.17 -0.08,3.29 -1.33,6.31 a 0.21,0.19 -58.1 0 0 0.04,0.22 l 0.2,0.17 a 0.11,0.11 0 0 0 0.16,-0.02 c 2.96,-4.55 7.39,-7.44 7.44,-13.19 q 0.14,-17.29 0,-34.71 a 0.58,0.58 0 0 0 -0.61,-0.57 q -2.88,0.14 -5.64,1.33"
           inkscape:connector-curvature="0"
           style="vector-effect:non-scaling-stroke;stroke:#6f6f6f" />
        <path
           id="path42721"
           d="m 282.64,319.45 11.66,-1.59 q 2.06,-0.28 2.96,-2.16 4.25,-8.84 4.16,-18.2 -0.16,-15.97 -0.65,-31.93 -0.07,-2.03 -0.37,-3.38 -0.46,-2.04 -1.84,-0.47 c -5.65,6.46 -16.23,20.63 -16.73,29.09 q -0.82,13.62 -0.7,27.33 a 1.33,1.33 0 0 0 1.51,1.31"
           inkscape:connector-curvature="0"
           style="vector-effect:non-scaling-stroke;stroke:#858585" />
        <path
           id="path42723"
           d="m 331.47,324.18 q 10.71,1.28 21.04,-1.47 a 1.62,1.61 10.2 0 0 0.87,-0.6 c 3.74,-5.1 2.93,-9.03 2.37,-16.37 -0.4,-5.33 -0.73,-19.14 -8.5,-18.78 -3.13,0.15 -12.23,1.7 -12.23,5.34 q -0.02,11.5 -0.04,23.09 0,1.61 -1.1,2.8 l -3.3,3.58 q -1.92,2.08 0.89,2.41"
           inkscape:connector-curvature="0"
           style="vector-effect:non-scaling-stroke;stroke:#6f6f6f" />
        <path
           id="path42725"
           d="m 248,384.66 q -1.88,3.22 0.31,6.49 a 0.32,0.32 0 0 0 0.37,0.12 l 0.26,-0.09 a 0.21,0.2 68.1 0 0 0.12,-0.29 q -1.35,-2.64 -0.44,-5.42 0.27,-0.81 0.08,-0.95 a 0.48,0.48 0 0 0 -0.7,0.14"
           inkscape:connector-curvature="0"
           style="vector-effect:non-scaling-stroke;stroke:#e9e9e9" />
        <path
           id="path42727"
           d="m 106.2,373.37 -0.83,5.86 a 1.14,1.13 -62.2 0 0 0.28,0.91 l 1.69,1.87 a 0.48,0.48 0 0 0 0.73,-0.02 c 1.83,-2.23 0.61,-6.8 -0.64,-8.87 q -0.96,-1.59 -1.23,0.25"
           inkscape:connector-curvature="0"
           style="vector-effect:non-scaling-stroke;stroke:#e9e9e9" />
        <path
           id="path42729"
           d="m 119.55,389.64 q 0.34,0.17 0.86,0.08 a 0.53,0.53 0 0 0 0.43,-0.45 c 0.21,-1.42 0.51,-8.68 -0.94,-9.46 a 0.32,0.32 0 0 0 -0.46,0.24 l -1.1,8.63 a 0.59,0.58 -61.8 0 0 0.12,0.41 q 0.11,0.14 0.29,0.15 0.01,0 0.8,0.4"
           inkscape:connector-curvature="0"
           style="vector-effect:non-scaling-stroke;stroke:#e9e9e9" />
        <path
           id="path42731"
           d="m 106.83,392.93 q -0.07,1.4 0.57,0.15 1.05,-2.08 0.26,-4.26 -0.54,-1.5 -0.62,0.09 l -0.21,4.02"
           inkscape:connector-curvature="0"
           style="vector-effect:non-scaling-stroke;stroke:#e9e9e9" />
      </g>
      <path
         id="path42735"
         d="m 0,0 h 169.06 l -8.79,0.91 q -3.02,0.31 -3.36,3.32 -1.2,10.46 0.83,20.64 a 0.75,0.74 76.3 0 1 -0.51,0.86 l -11.43,3.51 q -1.01,0.31 -1.93,0.85 c -2.45,1.43 -5.33,0.71 -7.43,1 q -3.65,0.5 -7.34,0.65 -0.02,0 -0.02,0.02 l -0.13,0.39 a 0.59,0.59 0 0 1 -0.5,0.4 q -0.83,0.1 -0.99,-0.8 L 128.2,9.7 a 0.32,0.32 0 0 0 -0.45,-0.31 c -4.84,2.07 -12.09,7.31 -12.41,13.05 q -0.27,4.66 -0.61,9.33 -13.89,-2.58 -27.98,-1.71 -3.13,0.2 -12.04,-2.92 -2.87,-0.75 -5.46,2.65 L 68.93,29.76 A 0.5,0.49 -87.3 0 1 68.5,29.28 V 28.96 A 0.19,0.19 0 0 0 68.31,28.77 Q 66,28.75 63.67,28.74 c -2.61,-0.01 -4.85,1.32 -7.72,1.22 q -0.98,-0.03 -0.19,-0.61 l 1.23,-0.89 a 1.04,1.01 -14.6 0 0 0.42,-0.69 C 57.93,24.55 48.58,24.78 46.4,25 34.35,26.21 22.12,27.58 10,27.45 Q 5,27.39 0,27.69 Z"
         inkscape:connector-curvature="0"
         style="fill:#ffffff" />
      <path
         id="path42737"
         d="m 169.06,0 h 4.25 q 6.5,0.76 13,0 h 4.25 q 2.45,0.32 2.38,2.68 a 0.66,0.65 -80.5 0 0 0.45,0.64 l 0.34,0.12 a 0.58,0.57 18.3 0 0 0.73,-0.36 L 195.2,0.9 a 0.9,0.9 0 0 1 0.82,-0.61 q 5.34,-0.14 10.34,1.62 a 1,0.99 -86.9 0 1 0.65,0.73 c 1.51,6.66 0.55,14.19 0.97,21.05 a 0.54,0.54 0 0 0 0.53,0.51 q 25.09,0.32 50.17,0.34 c 7.25,0.01 17.17,1.07 25.01,0.37 q 9.19,-0.82 13.64,-1.1 c 4.26,-0.27 9.08,-1.27 14.17,-0.07 a 0.84,0.83 2.2 0 1 0.63,0.67 l 0.5,2.83 a 0.62,0.62 0 0 1 -0.33,0.66 c -1.07,0.53 -3.79,2.38 -4.46,0.74 a 0.66,0.66 0 0 1 0.28,-0.82 l 1.38,-0.79 a 0.45,0.45 0 0 0 0.01,-0.78 q -0.9,-0.54 -1.77,0 -0.38,0.24 -0.63,0.61 -0.9,1.34 -2.51,1.48 a 0.51,0.5 -7.9 0 1 -0.55,-0.41 l -0.31,-1.68 A 0.93,0.93 0 0 0 303,25.5 q -5.45,-0.99 -10.44,1.44 -1.64,0.8 0.12,1.3 2.99,0.84 6.16,0.42 a 0.55,0.54 81.9 0 1 0.61,0.46 l 0.06,0.33 a 0.59,0.59 0 0 1 -0.5,0.67 c -2.25,0.32 -10.24,-0.15 -11.4,0.65 a 1.45,1.44 28.5 0 1 -0.89,0.26 q -5.8,-0.19 -13.48,-1.75 c -2.46,-0.51 -4.66,1.58 -6.77,0.07 a 0.41,0.4 -64.4 0 0 -0.62,0.22 q -0.46,1.54 -2.11,1.71 a 0.27,0.26 -3.7 0 0 -0.24,0.26 v 0.3 a 0.43,0.43 0 0 0 0.4,0.43 c 17.55,1.3 33.62,1.62 52.26,0.8 25.89,-1.14 55.23,0.87 78.43,1.22 q 6.25,0.09 12.47,-0.64 c 4.48,-0.54 9.19,-0.14 13.82,-0.76 3.49,-0.47 6.12,0.25 9.41,0.86 6.08,1.12 12.57,0.38 18.78,0.57 a 0.6,0.59 -4.3 0 1 0.56,0.48 l 0.37,2.01 v 184.75 q 0.14,2.32 -1.29,2.4 -8.14,0.5 -16.28,1.02 c -5.4,0.34 -10.4,-0.22 -15.68,-0.78 -4.98,-0.53 -11.84,5.23 -14.52,-2.75 a 0.66,0.66 0 0 0 -0.74,-0.44 l -6.81,1.18 a 1.94,1.88 -71 0 0 -0.98,0.5 l -1.27,1.24 a 1.7,1.66 -69.9 0 1 -0.94,0.45 q -5.62,0.75 -10.88,-1.12 a 1.94,1.88 47.9 0 0 -1.03,-0.07 c -18,3.99 -36.24,2.57 -54.46,1.52 -3.52,-0.2 -6.17,-2.11 -10.38,-2.13 q -9.74,-0.05 -22.15,-1.75 c -3.63,-0.5 -7.56,-0.01 -11.42,-0.39 q -8.07,-0.82 -8.51,-0.83 c -18.61,-0.85 -37.21,-1.77 -55.77,-3.43 -10.05,-0.89 -18.55,0.46 -27.89,0.11 q -3.46,-0.12 -6.76,-1.35 -2.17,-0.81 -2.21,1.51 l -0.15,8.68 a 0.65,0.64 -2.5 0 1 -0.58,0.63 c -1.59,0.14 -2.27,-3.7 -2.34,-4.82 a 0.46,0.45 82 0 0 -0.55,-0.42 l -1.08,0.25 a 1.14,1.13 -4.1 0 1 -1.39,-1.2 l 0.29,-3.69 a 0.35,0.34 -87.7 0 0 -0.34,-0.38 l -0.29,-0.01 a 0.45,0.44 -86.3 0 0 -0.44,0.39 q -0.64,6.31 0.06,12.59 a 0.58,0.58 0 0 0 0.54,0.51 l 1.24,0.06 -22.7,11.13 a 1.06,1.06 0 0 1 -1.52,-0.93 l -0.09,-5.98 a 1.06,1.06 0 0 0 -1.57,-0.91 q -7.29,4 -11.27,10.81 c -1.54,2.63 -1.7,6.03 -2.56,9.09 l 0.08,-3.32 a 0.49,0.49 0 0 0 -0.5,-0.5 q -2.23,0.06 -2.66,-1.92 c -1.03,-4.86 0.28,-14.79 -1.64,-23.17 a 0.44,0.43 82.3 0 0 -0.45,-0.35 c -1.63,0.06 1.23,15.47 -0.81,15.32 a 0.59,0.59 0 0 1 -0.54,-0.49 q -0.09,-0.46 -0.52,-0.57 -2.48,-0.59 -2.6,0.98 l -0.59,7.33 a 1.2,1.2 0 0 1 -0.41,0.81 q -2.81,2.43 -6.36,3.13 1.36,-8.76 -0.72,-17.35 0.49,-8.86 -0.48,-18.21 a 0.52,0.51 -4.6 0 0 -0.55,-0.46 q -5.29,0.32 -16.05,1.46 c -5.86,0.62 -11.42,-1.05 -17.11,-1.21 q -5.57,-0.16 -11.63,-1 c -1.43,-0.2 -2.93,0.37 -4.33,0.17 q -7.91,-1.14 -15.76,-0.13 c -4.56,0.59 -8.43,0.7 -12.68,1.09 -5.83,0.54 -11.55,-0.48 -17.47,-0.35 -6.87,0.16 -13.41,-1.33 -20.38,-1.16 a 0.58,0.57 85.5 0 1 -0.58,-0.5 L 0,207.94 v -160 l 0.38,-0.79 a 0.88,0.88 0 0 1 0.76,-0.5 q 4.48,-0.16 15.36,0.37 9.56,0.46 25,-1.47 0.49,-0.06 0.63,-0.41 A 0.59,0.59 0 0 0 41.84,44.38 Q 40.4,43.7 38.99,44.01 31.11,45.75 23.81,43.73 a 0.54,0.54 0 0 0 -0.64,0.3 c -1.33,3.15 -11.92,1.5 -14.99,0.98 Q 4.13,44.33 0.03,45.41 L 0,27.69 q 5,-0.3 10,-0.24 c 12.12,0.13 24.35,-1.24 36.4,-2.45 2.18,-0.22 11.53,-0.45 11.01,2.77 a 1.04,1.01 -14.6 0 1 -0.42,0.69 l -1.23,0.89 q -0.79,0.58 0.19,0.61 c 2.87,0.1 5.11,-1.23 7.72,-1.22 q 2.33,0.01 4.64,0.03 a 0.19,0.19 0 0 1 0.19,0.19 v 0.32 a 0.5,0.49 -87.3 0 0 0.43,0.48 l 0.32,0.03 -6.53,6.58 a 3.39,3.38 -22.7 0 0 -0.98,2.38 c 0.03,33.19 0.8,66.78 -0.45,100.11 q -0.02,0.51 -0.28,0.95 l -1.36,2.3 a 1.82,1.79 58.5 0 0 -0.24,1.04 q 0.1,1.42 1.39,1.53 a 0.6,0.59 -88.4 0 1 0.55,0.59 q 0.28,15.12 0.72,30.23 0.14,4.87 1.59,9.43 a 0.36,0.35 62.9 0 0 0.55,0.18 c 5.99,-4.42 13.41,-8.35 12.05,-17.13 -1.31,-8.5 -1.53,-17.18 -1.5,-25.83 a 0.76,0.75 83.8 0 1 0.59,-0.74 l 29.8,-6.36 a 1.34,1.34 0 0 1 1.61,1.42 c -1.45,17.3 -3.07,35.53 -2.72,53.29 a 0.72,0.72 0 0 0 0.82,0.7 c 6.65,-0.98 13.64,-10.23 13.52,-16.96 q -0.34,-18.14 0.83,-36.25 c 0.51,-7.81 4.16,-10.92 9.07,-16.21 q 0.67,-0.72 -0.32,-0.66 l -6.58,0.45 a 1.13,1.12 0.9 0 1 -1.2,-1.23 c 0.45,-4.77 1.22,-9.63 1.53,-14.12 1.72,-24.58 3.09,-49.24 5.75,-73.73 q 0.16,0.9 0.99,0.8 a 0.59,0.59 0 0 0 0.5,-0.4 l 0.13,-0.39 q 0,-0.02 0.02,-0.02 3.69,-0.15 7.34,-0.65 c 2.1,-0.29 4.98,0.43 7.43,-1 q 0.92,-0.54 1.93,-0.85 l 11.43,-3.51 a 0.75,0.74 76.3 0 0 0.51,-0.86 q -2.03,-10.18 -0.83,-20.64 0.34,-3.01 3.36,-3.32 z m 35.48,17.28 c 0.28,1.27 -0.16,6.79 1.14,7.19 a 0.28,0.27 8.6 0 0 0.36,-0.26 L 206.1,5.05 a 4.22,4.22 0 0 0 -0.88,-2.58 l -0.24,-0.31 q -0.55,-0.73 -0.71,0.17 -1.33,7.52 0.27,14.95 z m -39.31,8.31 2.12,0.28 a 0.38,0.38 0 0 0 0.42,-0.44 l -2.48,-13.05 a 0.49,0.49 0 0 0 -0.48,-0.39 h -0.27 a 0.52,0.52 0 0 0 -0.52,0.49 q -0.13,2.37 0.91,4.5 0.19,0.39 0.16,0.82 l -0.44,7.08 a 0.67,0.67 0 0 0 0.58,0.71 z m 37.6331,-1.3826 a 2.94,0.83 87.6 0 0 0.7062,-2.9722 2.94,0.83 87.6 0 0 -0.9524,-2.9026 2.94,0.83 87.6 0 0 -0.7062,2.9722 2.94,0.83 87.6 0 0 0.9524,2.9026 z M 192.76,30.56 c 1.03,0.05 2.67,1.38 1.75,2.58 a 1.53,1.5 -26.6 0 0 -0.3,0.87 c -0.03,2 0.27,16.84 1.56,17.52 a 0.76,0.76 0 0 0 0.85,-0.1 c 7.89,-6.76 6,-16.71 4.75,-25.78 a 1.21,1.2 84.7 0 0 -1.24,-1.04 l -30.53,1.31 a 1.79,1.78 86.4 0 0 -1.7,1.93 c 0.14,1.71 -0.07,9.11 0.59,10.04 q 0.29,0.4 0.35,0.9 c 0.45,4.31 1.29,9.36 4.86,12.14 10.2,7.96 12.36,-1.45 8.05,-8.53 a 0.46,0.45 -28.5 0 1 0.2,-0.65 c 1.83,-0.83 2.7,0.41 2.79,2.17 0.21,4.25 0.27,7.93 5.14,9.29 q 1.87,0.53 2.09,-1.41 c 0.51,-4.47 1.79,-11.11 -0.12,-15.26 a 0.8,0.8 0 0 0 -0.71,-0.46 C 189.59,36.05 186.13,36 186,35.33 a 0.43,0.43 0 0 1 0.42,-0.51 l 5.64,-0.08 a 0.5,0.5 0 0 0 0.49,-0.55 l -0.27,-3.13 a 0.46,0.46 0 0 1 0.48,-0.5 z M 161,46.1 c 1.53,2.13 3.87,2.68 6.04,4.39 a 0.32,0.32 0 0 0 0.51,-0.19 c 0.77,-3.44 -3.38,-3.63 -3.26,-7.03 0.21,-5.97 2.18,-9.81 -0.09,-15.95 q -0.72,-1.94 -2.75,-1.57 l -3.33,0.6 a 0.57,0.57 0 0 0 -0.4,0.83 l 1.05,2.03 a 0.66,0.66 0 0 1 -0.2,0.83 l -0.86,0.63 a 1.01,0.99 68.1 0 0 -0.39,0.94 C 158,36.53 158.01,41.96 161,46.1 Z M 54.64,28.22 Q 55,27.98 55.19,27.63 a 0.42,0.42 0 0 0 -0.31,-0.62 c -2.06,-0.3 -2.54,1.09 -4.26,1.6 a 0.4,0.4 0 0 1 -0.5,-0.28 l -0.5,-1.72 a 0.86,0.86 0 0 0 -0.8,-0.63 q -5.07,-0.12 -9.59,2.06 a 0.79,0.78 -29.4 0 0 -0.32,1.13 c 0.02,0.03 9.49,0.98 9.98,0.99 1.5,0 4.85,0.06 5.31,-1.34 a 1.17,1.12 82.5 0 1 0.44,-0.6 z m 171.84,8.3 c -1.95,-0.13 -3.97,-0.92 -6,-1.18 q -0.49,-0.07 -0.89,-0.35 c -2.26,-1.56 -9.57,-4.62 -10.47,-0.01 q -0.32,1.67 1.29,1.11 c 2.48,-0.87 3.84,0.05 5.91,0.39 q 5.04,0.84 10.15,1.35 a 0.49,0.49 0 0 0 0.54,-0.5 L 227,37.05 a 0.55,0.54 1.2 0 0 -0.52,-0.53 z m 204.31,4.46 9.12,1.47 q 0.44,0.07 0.78,0.35 3.26,2.63 7.43,2.8 a 0.66,0.66 0 0 0 0.67,-0.54 l 0.08,-0.44 a 0.5,0.5 0 0 0 -0.51,-0.58 c -4.05,0.17 -7.33,-1.92 -10.2,-2.76 -3.15,-0.93 -6.14,-2.31 -9.53,-1.75 a 0.87,0.87 0 0 1 -0.94,-0.51 l -0.83,-1.88 a 0.58,0.56 73.5 0 0 -0.6,-0.34 l -6.1,0.83 a 1.42,1.37 -71.6 0 0 -0.79,0.41 c -2.52,2.64 -5.17,2.7 -8.63,2.57 -2.87,-0.11 -5.49,1.17 -8.42,0.32 -1.23,-0.36 -9.93,-2.78 -8.77,0.31 a 0.77,0.77 0 0 0 0.69,0.5 q 5.65,0.27 11.31,0.55 c 1.59,0.07 3.05,-0.9 4.75,-0.8 q 5.12,0.33 10.23,0 0.56,-0.03 1.06,0.21 1.63,0.77 3.12,-0.24 a 1.46,1.44 31.6 0 1 0.99,-0.23 q 2.12,0.3 4.13,-0.21 0.48,-0.11 0.96,-0.04 z M 247.4481,38.2807 a 5.64,0.66 -6.1 0 0 -5.6782,-0.057 5.64,0.66 -6.1 0 0 -5.538,1.2556 5.64,0.66 -6.1 0 0 5.6782,0.057 5.64,0.66 -6.1 0 0 5.538,-1.2556 z M 368.7,44.98 l -0.09,0.41 a 0.49,0.48 -83.5 0 1 -0.48,0.39 l -4.99,-0.11 a 0.63,0.63 0 0 0 -0.63,0.51 c -0.25,1.26 5.28,1.49 6.25,1.57 a 0.66,0.66 0 0 0 0.7,-0.49 l 0.91,-3.71 a 1.52,1.52 0 0 1 0.47,-0.79 q 1.45,-1.31 3.45,-0.58 1.84,0.67 0.39,-0.65 -0.67,-0.62 -1.56,-0.98 a 0.91,0.89 32.8 0 0 -0.96,0.2 l -1.96,1.97 a 0.92,0.89 26.2 0 1 -0.78,0.25 l -4.69,-0.73 a 0.82,0.82 0 0 0 -0.83,0.4 l -0.39,0.67 a 0.41,0.41 0 0 0 0.32,0.62 l 4.32,0.33 a 0.61,0.61 0 0 1 0.55,0.72 z m -6.01,8.36 c -1.67,-1.32 -11.46,-5.74 -11.42,-0.79 a 0.73,0.73 0 0 0 0.68,0.73 l 10.5,0.69 q 1.14,0.08 0.24,-0.63 z m -42.97,21.15 c -1.85,0.78 -1.25,-3.99 -1.04,-4.59 a 0.51,0.51 0 0 0 -0.31,-0.64 c -5.17,-1.97 -7.59,-2.51 -11.29,2.32 q -0.23,0.3 -0.52,0.27 a 0.57,0.57 0 0 1 -0.51,-0.54 l -0.14,-3.41 a 0.51,0.51 0 0 0 -0.71,-0.45 l -2.18,0.89 a 0.85,0.84 47.1 0 1 -0.71,-0.03 l -2.69,-1.35 a 0.93,0.92 39.1 0 0 -1.01,0.1 c -5.67,4.6 -8.42,7.15 -8.76,14.7 q -0.08,1.58 -2.19,2.58 a 0.88,0.86 -11 0 0 -0.49,0.71 q -0.89,9.91 -1.72,19.84 c -0.91,10.8 0.62,21.26 -0.24,32.13 -1.17,14.78 0.86,30.71 2.21,45.56 a 1.01,1.01 0 0 0 1.07,0.92 q 2.88,-0.17 4.64,-2.29 a 1.37,1.35 63.1 0 0 0.31,-0.97 l -0.61,-10.26 q -0.07,-1.31 0.92,-0.45 l 1.48,1.28 a 0.76,0.76 0 0 1 0.23,0.79 q -0.56,1.99 1.32,2.88 a 0.41,0.41 0 0 0 0.57,-0.27 c 1.16,-4.63 -0.73,-8.92 0.74,-13.75 q 0.15,-0.48 0.11,-0.98 l -0.26,-3.05 q -0.06,-0.77 0.62,-0.4 l 0.38,0.2 a 1.59,1.57 -74 0 1 0.81,1.48 q -0.77,11.45 0.38,22.84 0.06,0.55 0.38,1 1.45,2.04 1.24,4.58 a 1.55,1.55 0 0 0 1.66,1.68 l 4.01,-0.33 a 1.75,1.7 -31.3 0 1 1,0.23 q 1.39,0.81 2.56,-0.25 a 1.21,1.18 -61.5 0 1 0.97,-0.3 l 3.47,0.49 a 0.51,0.51 0 0 0 0.55,-0.32 c 0.9,-2.26 0.75,-7.94 4.31,-7.26 a 0.84,0.84 0 0 1 0.64,0.59 l 1.54,5.77 a 1.16,1.15 78.8 0 0 1.26,0.85 q 6.35,-0.82 6.01,-7.19 a 0.79,0.79 0 0 1 0.37,-0.72 c 2.41,-1.49 4.03,2.02 4.62,3.67 a 1.07,1.07 0 0 0 1.69,0.46 q 5.89,-4.82 5.22,-12.49 -0.71,-8.18 -0.62,-16.47 a 0.51,0.51 0 0 1 0.49,-0.5 l 1.47,-0.06 a 0.79,0.78 -84.8 0 0 0.74,-0.62 l 0.83,-3.84 q 0.26,-1.18 1.02,-0.24 0.5,0.62 0.51,1.48 0.04,10.04 1.06,20.11 a 0.35,0.34 -20.2 0 0 0.54,0.24 c 0.81,-0.56 0.04,-26.54 -0.02,-29.54 -0.1,-5.52 -1.89,-10.93 -2.16,-15.92 -0.76,-13.93 -0.9,-27.78 -2.39,-41.64 a 1.34,1.31 -73.1 0 0 -0.43,-0.83 q -2.36,-2.06 -5.41,-6.94 -4.19,-6.69 -12.91,-8.15 a 0.9,0.89 77.4 0 1 -0.61,-0.39 l -0.76,-1.1 a 0.58,0.57 48.6 0 0 -0.91,-0.06 q -2.71,3.12 -1.99,7.29 a 0.61,0.61 0 0 1 -0.36,0.66 z m -119.23,37.95 q 0.55,4.42 0.53,7.81 -0.23,31.98 0.1,63.97 c 0.03,2.33 1.02,4.72 1.59,6.85 q 0.57,2.11 2.12,0.58 l 11.61,-11.4 a 0.7,0.69 -38.9 0 0 0.1,-0.87 q -1.1,-1.69 -1.09,-2.65 0.24,-34.54 -0.18,-69.23 a 0.83,0.82 -14.9 0 1 0.43,-0.74 c 9.06,-4.9 18.96,-5.95 29.13,-6.15 a 1.63,1.6 24.5 0 0 0.99,-0.36 q 6.06,-4.98 11.19,-10.89 a 1.92,1.92 0 0 0 -0.05,-2.57 c -2.56,-2.75 -41.75,8.95 -46.34,11.62 -9.11,5.31 -18.47,11.43 -24.12,19.95 a 0.5,0.5 0 0 0 0.35,0.77 l 0.28,0.04 a 1.86,1.82 32.9 0 0 1.17,-0.24 l 11.46,-6.84 a 0.48,0.48 0 0 1 0.73,0.35 z m -64.03,59.81 -0.23,0.72 a 1.05,1.04 89.6 0 1 -0.65,0.67 q -2.98,1.04 -6.1,0.61 a 1.58,1.54 35.6 0 0 -0.91,0.14 c -4.3,2.02 -7.19,3.41 -7.99,7.57 a 0.56,0.55 6.6 0 1 -0.57,0.45 c -4.24,-0.22 -2.79,26.52 -2.46,29.84 a 0.8,0.79 -9.1 0 0 0.96,0.69 l 7.76,-1.74 a 1.71,1.61 -40.3 0 1 0.93,0.05 q 6.33,2.24 11.12,1.33 5.1,-0.96 6.66,-0.3 c 11.5,4.87 22.1,2.29 33.49,2.35 a 1.37,1.37 0 0 0 1.36,-1.57 c -1.27,-8.68 -1.5,-18.17 -3.38,-25.89 a 0.7,0.7 0 0 0 -0.58,-0.53 q -0.82,-0.11 -1.16,-0.89 c 8.51,-3.39 19.14,-8.92 22.83,-17.91 q 0.54,-1.32 -0.73,-0.67 c -10.51,5.38 -23.29,10.85 -35.14,9.82 l 0.23,-2.07 a 0.63,0.61 -74 0 0 -0.34,-0.63 l -3.59,-1.78 a 0.61,0.61 0 0 0 -0.73,0.14 q -1.78,1.95 -4.4,2.47 -0.48,0.09 -0.88,0.38 l -2.16,1.58 q -0.28,0.2 -2.63,0.9 -1.91,0.56 -2.96,-1.23 l 5.48,-5.84 q 1.25,-1.32 1.3,-3.13 0.25,-8.78 -1.28,-17.44 -0.53,-3.04 2.47,-3.77 8.07,-1.94 16.39,-1.81 a 2.32,2.3 -66.9 0 0 1.69,-0.69 l 10.78,-10.83 a 0.84,0.84 0 0 0 0.13,-1.02 q -1.3,-2.24 -3.93,-1.71 c -4.54,0.92 -8.81,1.45 -12.91,2.68 q -7,2.1 -14.13,3.81 a 0.77,0.77 0 0 1 -0.95,-0.75 l 0.01,-24.01 a 1.11,1.09 77.1 0 1 0.61,-0.99 q 11.68,-5.88 24.64,-8.01 a 1.36,1.36 0 0 1 1.58,1.24 l 0.22,2.82 q 0.06,0.68 0.6,0.27 6.73,-5.07 11.85,-11.8 1.24,-1.63 1.01,-3.68 -0.37,-3.19 -3.5,-2.53 c -13.26,2.79 -22.9,7.39 -36.19,14.89 a 0.42,0.41 -16 0 1 -0.62,-0.34 l -0.27,-5.27 a 0.39,0.39 0 0 0 -0.54,-0.34 c -6.16,2.56 -11.19,7.44 -12.25,14.19 -0.95,6.04 -6.12,9.37 -6.39,15.5 q -0.29,6.67 0.77,11 c 2.62,10.71 5.23,22.01 5.68,33.06 z"
         inkscape:connector-curvature="0"
         style="fill:#d2d2d2" />
      <path
         id="path42739"
         d="m 173.31,0 h 13 q -6.5,0.76 -13,0 z"
         inkscape:connector-curvature="0"
         style="fill:#ffffff" />
      <path
         id="path42741"
         d="M 190.56,0 H 450 v 36.81 l -0.37,-2.01 a 0.6,0.59 -4.3 0 0 -0.56,-0.48 c -6.21,-0.19 -12.7,0.55 -18.78,-0.57 -3.29,-0.61 -5.92,-1.33 -9.41,-0.86 -4.63,0.62 -9.34,0.22 -13.82,0.76 q -6.22,0.73 -12.47,0.64 c -23.2,-0.35 -52.54,-2.36 -78.43,-1.22 -18.64,0.82 -34.71,0.5 -52.26,-0.8 a 0.43,0.43 0 0 1 -0.4,-0.43 v -0.3 a 0.27,0.26 -3.7 0 1 0.24,-0.26 q 1.65,-0.17 2.11,-1.71 a 0.41,0.4 -64.4 0 1 0.62,-0.22 c 2.11,1.51 4.31,-0.58 6.77,-0.07 q 7.68,1.56 13.48,1.75 a 1.45,1.44 28.5 0 0 0.89,-0.26 c 1.16,-0.8 9.15,-0.33 11.4,-0.65 a 0.59,0.59 0 0 0 0.5,-0.67 l -0.06,-0.33 a 0.55,0.54 81.9 0 0 -0.61,-0.46 q -3.17,0.42 -6.16,-0.42 -1.76,-0.5 -0.12,-1.3 4.99,-2.43 10.44,-1.44 a 0.93,0.93 0 0 1 0.74,0.75 l 0.31,1.68 a 0.51,0.5 -7.9 0 0 0.55,0.41 q 1.61,-0.14 2.51,-1.48 0.25,-0.37 0.63,-0.61 0.87,-0.54 1.77,0 a 0.45,0.45 0 0 1 -0.01,0.78 l -1.38,0.79 a 0.66,0.66 0 0 0 -0.28,0.82 c 0.67,1.64 3.39,-0.21 4.46,-0.74 a 0.62,0.62 0 0 0 0.33,-0.66 l -0.5,-2.83 a 0.84,0.83 2.2 0 0 -0.63,-0.67 c -5.09,-1.2 -9.91,-0.2 -14.17,0.07 q -4.45,0.28 -13.64,1.1 c -7.84,0.7 -17.76,-0.36 -25.01,-0.37 Q 233.6,24.52 208.51,24.2 a 0.54,0.54 0 0 1 -0.53,-0.51 C 207.56,16.83 208.52,9.3 207.01,2.64 a 1,0.99 -86.9 0 0 -0.65,-0.73 q -5,-1.76 -10.34,-1.62 A 0.9,0.9 0 0 0 195.2,0.9 l -0.74,2.18 a 0.58,0.57 18.3 0 1 -0.73,0.36 L 193.39,3.32 A 0.66,0.65 -80.5 0 1 192.94,2.68 Q 193.01,0.32 190.56,0 Z"
         inkscape:connector-curvature="0"
         style="fill:#ffffff" />
      <path
         id="path42743"
         d="m 204.54,17.28 q -1.6,-7.43 -0.27,-14.95 0.16,-0.9 0.71,-0.17 l 0.24,0.31 a 4.22,4.22 0 0 1 0.88,2.58 l -0.06,19.16 a 0.28,0.27 8.6 0 1 -0.36,0.26 c -1.3,-0.4 -0.86,-5.92 -1.14,-7.19 z"
         inkscape:connector-curvature="0"
         style="fill:#ffffff" />
      <path
         id="path42745"
         d="m 127.46,31.75 c -2.66,24.49 -4.03,49.15 -5.75,73.73 -0.31,4.49 -1.08,9.35 -1.53,14.12 a 1.13,1.12 0.9 0 0 1.2,1.23 l 6.58,-0.45 q 0.99,-0.06 0.32,0.66 c -4.91,5.29 -8.56,8.4 -9.07,16.21 q -1.17,18.11 -0.83,36.25 c 0.12,6.73 -6.87,15.98 -13.52,16.96 a 0.72,0.72 0 0 1 -0.82,-0.7 c -0.35,-17.76 1.27,-35.99 2.72,-53.29 a 1.34,1.34 0 0 0 -1.61,-1.42 l -29.8,6.36 a 0.76,0.75 83.8 0 0 -0.59,0.74 c -0.03,8.65 0.19,17.33 1.5,25.83 1.36,8.78 -6.06,12.71 -12.05,17.13 a 0.36,0.35 62.9 0 1 -0.55,-0.18 q -1.45,-4.56 -1.59,-9.43 -0.44,-15.11 -0.72,-30.23 a 0.6,0.59 -88.4 0 0 -0.55,-0.59 q -1.29,-0.11 -1.39,-1.53 a 1.82,1.79 58.5 0 1 0.24,-1.04 l 1.36,-2.3 q 0.26,-0.44 0.28,-0.95 c 1.25,-33.33 0.48,-66.92 0.45,-100.11 a 3.39,3.38 -22.7 0 1 0.98,-2.38 l 6.53,-6.58 q 2.59,-3.4 5.46,-2.65 0.17,30.18 0.25,60.29 c 0.03,10.99 -0.51,28.11 0.06,42.05 a 1.2,1.19 -7.7 0 0 1.46,1.11 l 28.97,-6.64 q 2.42,-0.55 2.56,-3.03 2.61,-45.34 6.72,-89.15 0.34,-4.67 0.61,-9.33 c 0.32,-5.74 7.57,-10.98 12.41,-13.05 a 0.32,0.32 0 0 1 0.45,0.31 z"
         inkscape:connector-curvature="0"
         style="fill:#0b0b0b" />
      <path
         id="path42747"
         d="m 165.23,25.59 a 0.67,0.67 0 0 1 -0.58,-0.71 l 0.44,-7.08 q 0.03,-0.43 -0.16,-0.82 -1.04,-2.13 -0.91,-4.5 a 0.52,0.52 0 0 1 0.52,-0.49 h 0.27 a 0.49,0.49 0 0 1 0.48,0.39 l 2.48,13.05 a 0.38,0.38 0 0 1 -0.42,0.44 z"
         inkscape:connector-curvature="0"
         style="fill:#ffffff" />
      <ellipse
         id="ellipse42749"
         ry="0.82999998"
         rx="2.9400001"
         transform="rotate(87.6,90.279925,116.34266)"
         cy="0"
         cx="0"
         style="fill:#ffffff" />
      <path
         id="path42751"
         d="m 192.28,31.06 0.27,3.13 a 0.5,0.5 0 0 1 -0.49,0.55 l -5.64,0.08 A 0.43,0.43 0 0 0 186,35.33 c 0.13,0.67 3.59,0.72 5.14,0.75 a 0.8,0.8 0 0 1 0.71,0.46 c 1.91,4.15 0.63,10.79 0.12,15.26 q -0.22,1.94 -2.09,1.41 c -4.87,-1.36 -4.93,-5.04 -5.14,-9.29 -0.09,-1.76 -0.96,-3 -2.79,-2.17 a 0.46,0.45 -28.5 0 0 -0.2,0.65 c 4.31,7.08 2.15,16.49 -8.05,8.53 -3.57,-2.78 -4.41,-7.83 -4.86,-12.14 q -0.06,-0.5 -0.35,-0.9 c -0.66,-0.93 -0.45,-8.33 -0.59,-10.04 a 1.79,1.78 86.4 0 1 1.7,-1.93 l 30.53,-1.31 a 1.21,1.2 84.7 0 1 1.24,1.04 c 1.25,9.07 3.14,19.02 -4.75,25.78 a 0.76,0.76 0 0 1 -0.85,0.1 c -1.29,-0.68 -1.59,-15.52 -1.56,-17.52 a 1.53,1.5 -26.6 0 1 0.3,-0.87 c 0.92,-1.2 -0.72,-2.53 -1.75,-2.58 a 0.46,0.46 0 0 0 -0.48,0.5 z"
         inkscape:connector-curvature="0"
         style="fill:#b3b3b3" />
      <path
         id="path42753"
         d="m 161,46.1 c -2.99,-4.14 -3,-9.57 -3.68,-14.49 a 1.01,0.99 68.1 0 1 0.39,-0.94 l 0.86,-0.63 a 0.66,0.66 0 0 0 0.2,-0.83 l -1.05,-2.03 a 0.57,0.57 0 0 1 0.4,-0.83 l 3.33,-0.6 q 2.03,-0.37 2.75,1.57 c 2.27,6.14 0.3,9.98 0.09,15.95 -0.12,3.4 4.03,3.59 3.26,7.03 a 0.32,0.32 0 0 1 -0.51,0.19 C 164.87,48.78 162.53,48.23 161,46.1 Z"
         inkscape:connector-curvature="0"
         style="fill:#b3b3b3" />
      <path
         id="path42755"
         d="m 54.2,28.82 c -0.46,1.4 -3.81,1.34 -5.31,1.34 -0.49,-0.01 -9.96,-0.96 -9.98,-0.99 a 0.79,0.78 -29.4 0 1 0.32,-1.13 q 4.52,-2.18 9.59,-2.06 a 0.86,0.86 0 0 1 0.8,0.63 l 0.5,1.72 a 0.4,0.4 0 0 0 0.5,0.28 c 1.72,-0.51 2.2,-1.9 4.26,-1.6 a 0.42,0.42 0 0 1 0.31,0.62 Q 55,27.98 54.64,28.22 a 1.17,1.12 82.5 0 0 -0.44,0.6 z"
         inkscape:connector-curvature="0"
         style="fill:#ffffff" />
      <path
         id="path42757"
         d="m 114.73,31.77 q -4.11,43.81 -6.72,89.15 -0.14,2.48 -2.56,3.03 l -28.97,6.64 a 1.2,1.19 -7.7 0 1 -1.46,-1.11 C 74.45,115.54 74.99,98.42 74.96,87.43 q -0.08,-30.11 -0.25,-60.29 8.91,3.12 12.04,2.92 14.09,-0.87 27.98,1.71 z"
         inkscape:connector-curvature="0"
         style="fill:#d2d2d2" />
      <path
         id="path42759"
         d="m 220.48,35.34 c 2.03,0.26 4.05,1.05 6,1.18 a 0.55,0.54 1.2 0 1 0.52,0.53 l 0.01,0.28 a 0.49,0.49 0 0 1 -0.54,0.5 q -5.11,-0.51 -10.15,-1.35 c -2.07,-0.34 -3.43,-1.26 -5.91,-0.39 q -1.61,0.56 -1.29,-1.11 c 0.9,-4.61 8.21,-1.55 10.47,0.01 q 0.4,0.28 0.89,0.35 z"
         inkscape:connector-curvature="0"
         style="fill:#ffffff" />
      <path
         id="path42761"
         d="m 429.83,41.02 q -2.01,0.51 -4.13,0.21 a 1.46,1.44 31.6 0 0 -0.99,0.23 q -1.49,1.01 -3.12,0.24 -0.5,-0.24 -1.06,-0.21 -5.11,0.33 -10.23,0 c -1.7,-0.1 -3.16,0.87 -4.75,0.8 q -5.66,-0.28 -11.31,-0.55 a 0.77,0.77 0 0 1 -0.69,-0.5 c -1.16,-3.09 7.54,-0.67 8.77,-0.31 2.93,0.85 5.55,-0.43 8.42,-0.32 3.46,0.13 6.11,0.07 8.63,-2.57 a 1.42,1.37 -71.6 0 1 0.79,-0.41 l 6.1,-0.83 a 0.58,0.56 73.5 0 1 0.6,0.34 l 0.83,1.88 a 0.87,0.87 0 0 0 0.94,0.51 c 3.39,-0.56 6.38,0.82 9.53,1.75 2.87,0.84 6.15,2.93 10.2,2.76 a 0.5,0.5 0 0 1 0.51,0.58 l -0.08,0.44 a 0.66,0.66 0 0 1 -0.67,0.54 q -4.17,-0.17 -7.43,-2.8 -0.34,-0.28 -0.78,-0.35 l -9.12,-1.47 q -0.48,-0.07 -0.96,0.04 z"
         inkscape:connector-curvature="0"
         style="fill:#ffffff" />
      <ellipse
         id="ellipse42763"
         ry="0.66000003"
         rx="5.6399999"
         transform="rotate(-6.1,485.76514,-2249.9568)"
         cy="0"
         cx="0"
         style="fill:#ffffff" />
      <path
         id="path42765"
         d="m 368.15,44.26 -4.32,-0.33 a 0.41,0.41 0 0 1 -0.32,-0.62 l 0.39,-0.67 a 0.82,0.82 0 0 1 0.83,-0.4 l 4.69,0.73 a 0.92,0.89 26.2 0 0 0.78,-0.25 l 1.96,-1.97 a 0.91,0.89 32.8 0 1 0.96,-0.2 q 0.89,0.36 1.56,0.98 1.45,1.32 -0.39,0.65 -2,-0.73 -3.45,0.58 a 1.52,1.52 0 0 0 -0.47,0.79 l -0.91,3.71 a 0.66,0.66 0 0 1 -0.7,0.49 c -0.97,-0.08 -6.5,-0.31 -6.25,-1.57 a 0.63,0.63 0 0 1 0.63,-0.51 l 4.99,0.11 a 0.49,0.48 -83.5 0 0 0.48,-0.39 l 0.09,-0.41 a 0.61,0.61 0 0 0 -0.55,-0.72 z"
         inkscape:connector-curvature="0"
         style="fill:#ffffff" />
      <path
         id="path42767"
         d="m 0,47.94 0.03,-2.53 q 4.1,-1.08 8.15,-0.4 c 3.07,0.52 13.66,2.17 14.99,-0.98 a 0.54,0.54 0 0 1 0.64,-0.3 q 7.3,2.02 15.18,0.28 1.41,-0.31 2.85,0.37 a 0.59,0.59 0 0 1 0.29,0.76 q -0.14,0.35 -0.63,0.41 -15.44,1.93 -25,1.47 Q 5.62,46.49 1.14,46.65 a 0.88,0.88 0 0 0 -0.76,0.5 z"
         inkscape:connector-curvature="0"
         style="fill:#ffffff" />
      <path
         id="path42769"
         d="m 362.45,53.97 -10.5,-0.69 a 0.73,0.73 0 0 1 -0.68,-0.73 c -0.04,-4.95 9.75,-0.53 11.42,0.79 q 0.9,0.71 -0.24,0.63 z"
         inkscape:connector-curvature="0"
         style="fill:#ffffff" />
      <path
         id="path42771"
         d="m 318.68,69.9 c -0.21,0.6 -0.81,5.37 1.04,4.59 a 0.61,0.61 0 0 0 0.36,-0.66 q -0.72,-4.17 1.99,-7.29 a 0.58,0.57 48.6 0 1 0.91,0.06 l 0.76,1.1 a 0.9,0.89 77.4 0 0 0.61,0.39 q 8.72,1.46 12.91,8.15 3.05,4.88 5.41,6.94 a 1.34,1.31 -73.1 0 1 0.43,0.83 c 1.49,13.86 1.63,27.71 2.39,41.64 0.27,4.99 2.06,10.4 2.16,15.92 0.06,3 0.83,28.98 0.02,29.54 a 0.35,0.34 -20.2 0 1 -0.54,-0.24 q -1.02,-10.07 -1.06,-20.11 -0.01,-0.86 -0.51,-1.48 -0.76,-0.94 -1.02,0.24 l -0.83,3.84 a 0.79,0.78 -84.8 0 1 -0.74,0.62 l -1.47,0.06 a 0.51,0.51 0 0 0 -0.49,0.5 q -0.09,8.29 0.62,16.47 0.67,7.67 -5.22,12.49 a 1.07,1.07 0 0 1 -1.69,-0.46 c -0.59,-1.65 -2.21,-5.16 -4.62,-3.67 a 0.79,0.79 0 0 0 -0.37,0.72 q 0.34,6.37 -6.01,7.19 a 1.16,1.15 78.8 0 1 -1.26,-0.85 l -1.54,-5.77 a 0.84,0.84 0 0 0 -0.64,-0.59 c -3.56,-0.68 -3.41,5 -4.31,7.26 a 0.51,0.51 0 0 1 -0.55,0.32 l -3.47,-0.49 a 1.21,1.18 -61.5 0 0 -0.97,0.3 q -1.17,1.06 -2.56,0.25 a 1.75,1.7 -31.3 0 0 -1,-0.23 l -4.01,0.33 a 1.55,1.55 0 0 1 -1.66,-1.68 q 0.21,-2.54 -1.24,-4.58 -0.32,-0.45 -0.38,-1 -1.15,-11.39 -0.38,-22.84 a 1.59,1.57 -74 0 0 -0.81,-1.48 l -0.38,-0.2 q -0.68,-0.37 -0.62,0.4 l 0.26,3.05 q 0.04,0.5 -0.11,0.98 c -1.47,4.83 0.42,9.12 -0.74,13.75 a 0.41,0.41 0 0 1 -0.57,0.27 q -1.88,-0.89 -1.32,-2.88 a 0.76,0.76 0 0 0 -0.23,-0.79 l -1.48,-1.28 q -0.99,-0.86 -0.92,0.45 l 0.61,10.26 a 1.37,1.35 63.1 0 1 -0.31,0.97 q -1.76,2.12 -4.64,2.29 a 1.01,1.01 0 0 1 -1.07,-0.92 c -1.35,-14.85 -3.38,-30.78 -2.21,-45.56 0.86,-10.87 -0.67,-21.33 0.24,-32.13 q 0.83,-9.93 1.72,-19.84 a 0.88,0.86 -11 0 1 0.49,-0.71 q 2.11,-1 2.19,-2.58 c 0.34,-7.55 3.09,-10.1 8.76,-14.7 a 0.93,0.92 39.1 0 1 1.01,-0.1 l 2.69,1.35 a 0.85,0.84 47.1 0 0 0.71,0.03 l 2.18,-0.89 a 0.51,0.51 0 0 1 0.71,0.45 l 0.14,3.41 a 0.57,0.57 0 0 0 0.51,0.54 q 0.29,0.03 0.52,-0.27 c 3.7,-4.83 6.12,-4.29 11.29,-2.32 a 0.51,0.51 0 0 1 0.31,0.64 z m 5.4665,1.8442 a 1.13,0.96 133.9 0 0 1.4752,-0.1485 1.13,0.96 133.9 0 0 0.0918,-1.4799 1.13,0.96 133.9 0 0 -1.4752,0.1485 1.13,0.96 133.9 0 0 -0.0918,1.4799 z"
         inkscape:connector-curvature="0"
         style="fill:#b3b3b3" />
      <ellipse
         id="ellipse42773"
         ry="0.95999998"
         rx="1.13"
         transform="rotate(133.9,147.37446,104.59469)"
         cy="0"
         cx="0"
         style="fill:#d2d2d2" />
      <path
         id="path42775"
         d="m 199.76,112.09 -11.46,6.84 a 1.86,1.82 32.9 0 1 -1.17,0.24 l -0.28,-0.04 a 0.5,0.5 0 0 1 -0.35,-0.77 c 5.65,-8.52 15.01,-14.64 24.12,-19.95 4.59,-2.67 43.78,-14.37 46.34,-11.62 a 1.92,1.92 0 0 1 0.05,2.57 q -5.13,5.91 -11.19,10.89 a 1.63,1.6 24.5 0 1 -0.99,0.36 c -10.17,0.2 -20.07,1.25 -29.13,6.15 a 0.83,0.82 -14.9 0 0 -0.43,0.74 q 0.42,34.69 0.18,69.23 -0.01,0.96 1.09,2.65 a 0.7,0.69 -38.9 0 1 -0.1,0.87 l -11.61,11.4 q -1.55,1.53 -2.12,-0.58 c -0.57,-2.13 -1.56,-4.52 -1.59,-6.85 q -0.33,-31.99 -0.1,-63.97 0.02,-3.39 -0.53,-7.81 a 0.48,0.48 0 0 0 -0.73,-0.35 z"
         inkscape:connector-curvature="0"
         style="fill:#0b0b0b" />
      <path
         id="path42777"
         d="m 144.21,176.75 c -1.83,1.5 -3.99,4.03 -6.54,4 a 0.64,0.63 83.8 0 1 -0.62,-0.5 q -0.91,-3.93 -0.59,-8 c -0.45,-11.05 -3.06,-22.35 -5.68,-33.06 q -1.06,-4.33 -0.77,-11 c 0.27,-6.13 5.44,-9.46 6.39,-15.5 1.06,-6.75 6.09,-11.63 12.25,-14.19 a 0.39,0.39 0 0 1 0.54,0.34 l 0.27,5.27 a 0.42,0.41 -16 0 0 0.62,0.34 c 13.29,-7.5 22.93,-12.1 36.19,-14.89 q 3.13,-0.66 3.5,2.53 0.23,2.05 -1.01,3.68 -5.12,6.73 -11.85,11.8 -0.54,0.41 -0.6,-0.27 l -0.22,-2.82 a 1.36,1.36 0 0 0 -1.58,-1.24 q -12.96,2.13 -24.64,8.01 a 1.11,1.09 77.1 0 0 -0.61,0.99 l -0.01,24.01 a 0.77,0.77 0 0 0 0.95,0.75 q 7.13,-1.71 14.13,-3.81 c 4.1,-1.23 8.37,-1.76 12.91,-2.68 q 2.63,-0.53 3.93,1.71 a 0.84,0.84 0 0 1 -0.13,1.02 l -10.78,10.83 a 2.32,2.3 -66.9 0 1 -1.69,0.69 q -8.32,-0.13 -16.39,1.81 -3,0.73 -2.47,3.77 1.53,8.66 1.28,17.44 -0.05,1.81 -1.3,3.13 z"
         inkscape:connector-curvature="0"
         style="fill:#0b0b0b" />
      <path
         id="path42779"
         d="m 174.71,185.75 q -13.95,5.18 -28.87,5.54 -3.18,0.08 -1.63,-2.7 5.77,-10.31 17.46,-11.6 c 11.85,1.03 24.63,-4.44 35.14,-9.82 q 1.27,-0.65 0.73,0.67 c -3.69,8.99 -14.32,14.52 -22.83,17.91 z"
         inkscape:connector-curvature="0"
         style="fill:#0b0b0b" />
      <path
         id="path42781"
         d="m 136.46,172.25 q -0.32,4.07 0.59,8 a 0.64,0.63 83.8 0 0 0.62,0.5 c 2.55,0.03 4.71,-2.5 6.54,-4 q 1.05,1.79 2.96,1.23 2.35,-0.7 2.63,-0.9 l 2.16,-1.58 q 0.4,-0.29 0.88,-0.38 2.62,-0.52 4.4,-2.47 a 0.61,0.61 0 0 1 0.73,-0.14 l 3.59,1.78 a 0.63,0.61 -74 0 1 0.34,0.63 l -0.23,2.07 q -11.69,1.29 -17.46,11.6 -1.55,2.78 1.63,2.7 14.92,-0.36 28.87,-5.54 0.34,0.78 1.16,0.89 a 0.7,0.7 0 0 1 0.58,0.53 c 1.88,7.72 2.11,17.21 3.38,25.89 a 1.37,1.37 0 0 1 -1.36,1.57 c -11.39,-0.06 -21.99,2.52 -33.49,-2.35 q -1.56,-0.66 -6.66,0.3 -4.79,0.91 -11.12,-1.33 a 1.71,1.61 -40.3 0 0 -0.93,-0.05 l -7.76,1.74 a 0.8,0.79 -9.1 0 1 -0.96,-0.69 c -0.33,-3.32 -1.78,-30.06 2.46,-29.84 a 0.56,0.55 6.6 0 0 0.57,-0.45 c 0.8,-4.16 3.69,-5.55 7.99,-7.57 a 1.58,1.54 35.6 0 1 0.91,-0.14 q 3.12,0.43 6.1,-0.61 a 1.05,1.04 89.6 0 0 0.65,-0.67 z"
         inkscape:connector-curvature="0"
         style="fill:#b3b3b3" />
      <path
         id="path42783"
         d="m 0,207.94 0.55,3.91 a 0.58,0.57 85.5 0 0 0.58,0.5 c 6.97,-0.17 13.51,1.32 20.38,1.16 5.92,-0.13 11.64,0.89 17.47,0.35 4.25,-0.39 8.12,-0.5 12.68,-1.09 q 7.85,-1.01 15.76,0.13 c 1.4,0.2 2.9,-0.37 4.33,-0.17 q 6.06,0.84 11.63,1 c 5.69,0.16 11.25,1.83 17.11,1.21 q 10.76,-1.14 16.05,-1.46 a 0.52,0.51 -4.6 0 1 0.55,0.46 q 0.97,9.35 0.48,18.21 -10.15,-9.13 -24.02,-7.12 c -9.26,1.34 -23.69,13.44 -28.1,21.2 -12.63,22.24 -14.18,46.61 -16.47,71.43 -1.15,12.42 2.25,14.01 12.82,15.96 q 8.85,1.63 17.86,1.43 c 12.51,-0.28 27.86,-15.5 35.13,-25.14 q 11.49,-15.24 20.38,-32.23 a 0.46,0.46 0 0 1 0.69,-0.14 c 1.03,0.86 0.57,61.01 0.87,64.25 a 0.4,0.4 0 0 0 0.52,0.35 c 4.28,-1.36 8.99,-7.16 11.98,-10.72 q 1.52,-1.81 1.52,-4.17 v -77.09 a 2.4,2.39 74.4 0 1 1.15,-2.05 q 8.21,-5.03 17.32,-8.15 a 0.81,0.8 78.7 0 1 1.06,0.71 q 0.59,9.78 -0.94,19.4 c -3.37,21.16 -7.96,42.47 -7.28,64.03 a 2.07,2.06 -87.1 0 0 1.79,1.99 c 8.24,1.08 11.73,-1.79 18.36,-7.04 q 3.54,-2.81 6.84,-6.03 a 0.32,0.32 0 0 1 0.53,0.12 c 1.42,3.83 2.29,8.33 4.03,11.47 2.68,4.84 7.54,9.56 13.43,9.39 3.69,-0.1 5.35,-3.24 7.93,-3.99 28.69,-8.34 40.97,-47.55 41.8,-73.71 q 0.24,-7.29 -1.61,-11.92 c -6.44,-16.1 -30.94,-21.37 -43.87,-9.56 -18.86,17.24 -19.45,36.1 -21.62,59.88 -0.59,6.41 -4.25,22.72 -14.34,17.77 a 0.77,0.75 14.5 0 1 -0.43,-0.71 c 0.96,-26.68 6.81,-52.8 10.24,-79.24 q 0.15,-1.13 -0.45,-4.63 a 0.7,0.7 0 0 0 -0.59,-0.57 q -4.86,-0.6 -9.1,1.72 l -1.24,-0.06 a 0.58,0.58 0 0 1 -0.54,-0.51 q -0.7,-6.28 -0.06,-12.59 a 0.45,0.44 -86.3 0 1 0.44,-0.39 l 0.29,0.01 a 0.35,0.34 -87.7 0 1 0.34,0.38 l -0.29,3.69 a 1.14,1.13 -4.1 0 0 1.39,1.2 l 1.08,-0.25 a 0.46,0.45 82 0 1 0.55,0.42 c 0.07,1.12 0.75,4.96 2.34,4.82 a 0.65,0.64 -2.5 0 0 0.58,-0.63 l 0.15,-8.68 q 0.04,-2.32 2.21,-1.51 3.3,1.23 6.76,1.35 c 9.34,0.35 17.84,-1 27.89,-0.11 18.56,1.66 37.16,2.58 55.77,3.43 q 0.44,0.01 8.51,0.83 c 3.86,0.38 7.79,-0.11 11.42,0.39 q 12.41,1.7 22.15,1.75 c 4.21,0.02 6.86,1.93 10.38,2.13 18.22,1.05 36.46,2.47 54.46,-1.52 a 1.94,1.88 47.9 0 1 1.03,0.07 q 5.26,1.87 10.88,1.12 a 1.7,1.66 -69.9 0 0 0.94,-0.45 l 1.27,-1.24 a 1.94,1.88 -71 0 1 0.98,-0.5 l 6.81,-1.18 a 0.66,0.66 0 0 1 0.74,0.44 c 2.68,7.98 9.54,2.22 14.52,2.75 5.28,0.56 10.28,1.12 15.68,0.78 q 8.14,-0.52 16.28,-1.02 1.43,-0.08 1.29,-2.4 V 414 H 254.19 c 0.29,-0.38 0.47,-0.61 0.43,-1.11 q -1.12,-15.3 -0.88,-30.64 0.04,-2.62 -1.52,-8.31 a 0.37,0.37 0 0 0 -0.52,-0.24 c -0.32,0.15 -0.07,3.2 -0.01,4.36 q 0.42,9.08 0.23,18.16 c 0,0.27 -0.17,0.57 -0.3,0.8 q -0.28,0.46 -0.35,-0.07 c -0.71,-5.08 -0.36,-9.78 -0.95,-15.13 -0.39,-3.56 0.84,-8.12 -1.26,-11.36 q -0.51,-0.78 -0.7,0.14 l -0.13,0.63 a 0.7,0.7 0 0 1 -0.72,0.56 c -1.15,-0.06 0.2,-4.07 -2.44,-5.15 q -5.58,-2.28 -11.24,-4.59 a 1.56,1.55 -73.8 0 0 -2.12,1.17 l -1.09,6.09 q -0.25,1.36 -0.57,0.02 c -0.74,-3.08 1.73,-6.64 -1.03,-9.11 a 0.43,0.42 -61 0 0 -0.69,0.2 q -0.4,1.45 -1.68,2.11 a 0.53,0.53 0 0 0 -0.25,0.68 q 0.85,2.08 0.45,4.26 -0.16,0.82 -0.41,0.03 l -1.5,-4.69 q -0.26,-0.79 -0.71,-0.09 l -0.97,1.5 q -0.58,0.89 -0.87,-0.13 l -0.51,-1.85 a 0.83,0.82 87.1 0 0 -0.65,-0.59 l -0.83,-0.16 a 0.57,0.57 0 0 0 -0.68,0.62 l 0.1,0.86 a 0.81,0.79 71.5 0 1 -0.37,0.76 l -1.37,0.84 a 1.13,1.12 77.7 0 0 -0.51,0.8 q -0.17,1.38 -1.12,2.32 -0.45,0.44 -0.45,-0.19 v -2.35 a 0.66,0.66 0 0 0 -0.59,-0.66 q -2.39,-0.26 -2.35,-2.7 a 0.49,0.48 -2.1 0 0 -0.53,-0.49 c -3.48,0.33 -6.71,0.01 -9.67,1.87 q -5.46,3.43 -6.98,10.01 a 0.68,0.68 0 0 1 -0.52,0.51 l -0.25,0.05 a 0.84,0.84 0 0 0 -0.61,0.48 c -5.81,13.11 -4.41,24.33 -3.66,38.45 a 0.65,0.64 -87.2 0 0 0.54,0.6 l 4.81,0.73 h -73.5 l 2.29,-0.56 a 0.6,0.6 0 0 0 0.45,-0.67 c -1.44,-10.15 -1.32,-20.3 -2.64,-30.4 q -0.32,-2.39 -2.07,-4.04 l -6.47,-6.08 q -0.35,-0.33 -0.82,-0.46 l -6.45,-1.72 a 1.45,1.43 81.7 0 1 -0.85,-0.64 q -0.7,-1.15 -1.97,-1.2 a 0.83,0.81 -75.2 0 0 -0.76,0.45 q -1.97,3.81 -1.55,8.2 0.09,0.89 -0.14,1.75 -0.97,3.6 -1.74,3.63 a 0.46,0.46 0 0 1 -0.48,-0.51 q 0.21,-1.85 0.49,-3.7 c 0.32,-2.15 -0.33,-4.13 -0.07,-6.44 q 0.08,-0.7 -0.54,-0.38 -1.27,0.66 -1.14,2.26 a 0.48,0.48 0 0 1 -0.5,0.52 L 97.28,374 a 0.56,0.56 0 0 1 -0.53,-0.47 l -0.29,-2.01 a 0.64,0.63 82.9 0 0 -0.69,-0.54 l -3.49,0.32 a 1.63,1.63 0 0 1 -0.91,-0.17 c -4.51,-2.36 -3.86,6.45 -5.92,5.59 A 0.74,0.72 11.7 0 1 85,376.05 v -5.32 a 0.69,0.69 0 0 0 -0.58,-0.68 q -2.1,-0.35 -2.88,1.64 a 0.58,0.57 -61.5 0 1 -0.87,0.26 l -2.32,-1.66 a 1.68,1.67 -42.3 0 0 -1.82,-0.08 c -3.83,2.25 -8.7,4.62 -7.47,10.09 a 0.49,0.49 0 0 1 -0.23,0.52 l -0.27,0.15 a 0.26,0.25 -26.2 0 1 -0.37,-0.12 l -0.62,-1.51 q -0.26,-0.63 -0.65,-0.07 c -2.69,3.92 -1.79,18.19 -1.41,22.23 q 0.22,2.42 -0.94,11.41 a 0.63,0.62 15.7 0 0 0.37,0.65 l 1,0.44 H 0 Z m 303.04,107.31 c 1.52,16.96 1.39,30.64 3.34,50.92 0.25,2.56 1.16,4.74 1.39,7.47 0.27,3.27 2.13,8.6 6.43,6.49 a 0.65,0.64 71.1 0 0 0.34,-0.71 c -0.18,-0.88 -0.61,-2.26 -0.01,-3.01 q 0.38,-0.48 1,-0.46 a 0.85,0.84 76.9 0 1 0.73,0.46 l 1.27,2.53 a 0.48,0.48 0 0 0 0.82,0.08 q 0.69,-0.92 0.24,-1.86 a 1.55,1.54 38.5 0 1 -0.12,-1.02 q 0.72,-3.31 -0.08,-6.63 -0.26,-1.09 -0.35,0.03 l -0.28,3.8 a 0.47,0.46 10.6 0 1 -0.6,0.4 l -0.26,-0.08 A 0.75,0.75 0 0 1 316.37,373 c -0.19,-2.62 -0.64,-30 -0.27,-30.19 a 0.29,0.28 -21.2 0 1 0.41,0.18 c 2.46,9.89 2.7,19.92 4.19,29.98 0.36,2.42 2.01,4.1 2.47,6.71 a 1.89,1.76 51.8 0 1 -0.08,0.96 c -0.68,1.85 0.7,3.95 2.9,3.26 a 0.77,0.77 0 0 0 0.47,-1.05 q -1.02,-2.22 0.29,-4.19 a 0.68,0.67 28.1 0 1 0.84,-0.25 c 0.16,0.07 1.42,4.7 2.61,5.82 a 1.17,1.16 65.2 0 0 0.88,0.33 l 5.68,-0.33 a 1.87,1.8 25.1 0 0 0.94,-0.32 q 1.22,-0.83 2.39,0.05 a 1.07,1.05 13.3 0 1 0.39,0.62 l 0.61,2.98 a 0.84,0.83 -1.5 0 0 0.69,0.65 l 4.51,0.68 a 0.6,0.6 0 0 0 0.65,-0.38 c 2.03,-5.38 2.22,-11.71 2.49,-18.41 0.01,-0.44 0.28,-0.87 0.71,-0.9 a 0.65,0.64 -6.6 0 1 0.67,0.53 l 2.65,14.83 q 0.15,0.87 0.8,0.27 l 5.82,-5.37 a 1.5,1.48 -18.6 0 0 0.47,-0.93 c 0.78,-7.07 0.15,-14.62 -0.04,-21.72 a 0.55,0.55 0 0 1 0.5,-0.56 q 1.9,-0.17 2.7,1.75 l 0.53,4.72 a 0.76,0.75 5.2 0 0 0.55,0.65 c 3.51,1.04 9.79,-6.35 12.64,-9.71 1.37,-1.62 0.58,-4.39 0.61,-5.99 q 0.3,-21.29 5.02,-40.36 7.36,-29.68 14.95,-59.38 0.77,-2.97 -1.86,-1.38 c -9.14,5.54 -12.19,13.94 -14.91,25.16 q -5.38,22.21 -11.28,44.29 -2.25,0.42 -3.5,-1.5 c 3.87,-9.66 3.38,-22.37 1.75,-32.5 2.58,-2.58 1.95,-4.32 2.18,-7.67 0.31,-4.3 -2.82,-7.72 -6.41,-9.66 q -2.52,-1.36 -1.01,1.07 c 1.09,1.74 2.66,3.64 1.44,5.93 a 0.86,0.85 -56.9 0 1 -1.27,0.27 c -2.25,-1.74 -3.23,-4.1 -5.2,-5.93 q -1.49,-1.38 -2.73,-3.01 c 3.19,-2.24 12.95,-9.61 13.82,-13.29 q 0.47,-2 -1.27,-0.94 -16.61,10.16 -31.57,22.62 -0.84,0.7 -0.85,-0.4 l -0.41,-35.97 a 1.56,1.56 0 0 0 -1.53,-1.54 c -7,-0.14 -15.01,5.35 -20.24,9.75 a 0.35,0.35 0 0 1 -0.57,-0.19 q -1.4,-6.69 -5.28,-12.33 -1.02,-1.48 -2.8,-1.71 -11.41,-1.48 -21.87,3.26 a 0.57,0.57 0 0 1 -0.75,-0.27 l -0.31,-0.64 a 1.39,1.38 58.4 0 0 -2.08,-0.5 c -5.27,4 -13.19,10.63 -11.45,18.2 q 0.81,3.5 0.6,7.39 c -1.05,20.04 -3.12,45.76 -2.33,69.3 q 1.04,31.04 0.47,62.1 c -0.08,4.38 -0.7,9.05 -0.99,13.61 a 0.3,0.3 0 0 0 0.43,0.29 q 3.57,-1.63 8.16,-6.1 c 4.97,-4.84 5.62,-7.62 5.61,-14.97 q -0.01,-23.93 0.01,-47.85 a 1.11,1.1 80.3 0 1 0.73,-1.04 c 9.47,-3.29 14.44,-8.33 22.3,-16.53 z"
         inkscape:connector-curvature="0"
         style="fill:#ffffff" />
      <path
         id="path42785"
         d="m 135.29,252.25 c -4.29,20.93 -14.23,40.05 -26.45,57.43 -6.49,9.24 -12.79,13.75 -24.12,11.34 q -0.5,-0.1 -0.14,-0.46 c 19.85,-19.24 32.31,-43.03 33.71,-71.06 q 3.55,-0.7 6.36,-3.13 a 1.2,1.2 0 0 0 0.41,-0.81 l 0.59,-7.33 q 0.12,-1.57 2.6,-0.98 0.43,0.11 0.52,0.57 a 0.59,0.59 0 0 0 0.54,0.49 c 2.04,0.15 -0.82,-15.26 0.81,-15.32 a 0.44,0.43 82.3 0 1 0.45,0.35 c 1.92,8.38 0.61,18.31 1.64,23.17 q 0.43,1.98 2.66,1.92 a 0.49,0.49 0 0 1 0.5,0.5 z"
         inkscape:connector-curvature="0"
         style="fill:#ffffff" />
      <path
         id="path42787"
         d="m 117.57,232.15 q 2.08,8.59 0.72,17.35 c -1.4,28.03 -13.86,51.82 -33.71,71.06 q -0.36,0.36 0.14,0.46 c 11.33,2.41 17.63,-2.1 24.12,-11.34 12.22,-17.38 22.16,-36.5 26.45,-57.43 0.86,-3.06 1.02,-6.46 2.56,-9.09 q 3.98,-6.81 11.27,-10.81 a 1.06,1.06 0 0 1 1.57,0.91 l 0.09,5.98 a 1.06,1.06 0 0 0 1.52,0.93 L 175,229.04 q 4.24,-2.32 9.1,-1.72 a 0.7,0.7 0 0 1 0.59,0.57 q 0.6,3.5 0.45,4.63 c -3.43,26.44 -9.28,52.56 -10.24,79.24 a 0.77,0.75 14.5 0 0 0.43,0.71 c 10.09,4.95 13.75,-11.36 14.34,-17.77 2.17,-23.78 2.76,-42.64 21.62,-59.88 12.93,-11.81 37.43,-6.54 43.87,9.56 q 1.85,4.63 1.61,11.92 c -0.83,26.16 -13.11,65.37 -41.8,73.71 -2.58,0.75 -4.24,3.89 -7.93,3.99 -5.89,0.17 -10.75,-4.55 -13.43,-9.39 -1.74,-3.14 -2.61,-7.64 -4.03,-11.47 a 0.32,0.32 0 0 0 -0.53,-0.12 q -3.3,3.22 -6.84,6.03 c -6.63,5.25 -10.12,8.12 -18.36,7.04 a 2.07,2.06 -87.1 0 1 -1.79,-1.99 c -0.68,-21.56 3.91,-42.87 7.28,-64.03 q 1.53,-9.62 0.94,-19.4 a 0.81,0.8 78.7 0 0 -1.06,-0.71 q -9.11,3.12 -17.32,8.15 a 2.4,2.39 74.4 0 0 -1.15,2.05 v 77.09 q 0,2.36 -1.52,4.17 c -2.99,3.56 -7.7,9.36 -11.98,10.72 a 0.4,0.4 0 0 1 -0.52,-0.35 c -0.3,-3.24 0.16,-63.39 -0.87,-64.25 a 0.46,0.46 0 0 0 -0.69,0.14 q -8.89,16.99 -20.38,32.23 c -7.27,9.64 -22.62,24.86 -35.13,25.14 q -9.01,0.2 -17.86,-1.43 c -10.57,-1.95 -13.97,-3.54 -12.82,-15.96 2.29,-24.82 3.84,-49.19 16.47,-71.43 4.41,-7.76 18.84,-19.86 28.1,-21.2 q 13.87,-2.01 24.02,7.12 z m -12.95,28.71 c 0.86,-10.36 0.75,-18.67 -10.62,-21.57 -9.77,-2.49 -17.18,-1.94 -20.92,8.53 q -9.86,27.56 -8.13,56.88 0.61,10.21 9.17,13.99 c 6.39,2.81 9.06,-1.66 12.97,-6.9 11.66,-15.6 15.95,-31.74 17.53,-50.93 z m 138.84,6.91 c 0.92,-16.83 -14.13,-26.72 -29.57,-25.78 q -3.17,0.2 -4.2,2.79 c -6.54,16.37 -5.27,33.87 -3.5,51.2 1.21,11.75 8.51,21.22 21.38,20.51 a 3.21,3.2 -73.8 0 0 2.41,-1.33 c 8.95,-12.46 12.66,-32.36 13.48,-47.39 z"
         inkscape:connector-curvature="0"
         style="fill:#0b0b0b" />
      <path
         id="path42789"
         d="m 355.21,263 q -9.43,5.87 -17.96,12.99 -3.57,2.97 -2.2,7.56 a 0.37,0.37 0 0 0 0.56,0.2 c 7.02,-4.79 29.64,-19.24 32.6,-1.75 1.63,10.13 2.12,22.84 -1.75,32.5 -11.07,18.19 -25.6,24.92 -46.85,22.86 -12.63,-1.23 -9.86,-20.15 -10.76,-28.9 q -0.05,-0.45 -0.33,-0.09 l -5.48,6.88 c -7.86,8.2 -12.83,13.24 -22.3,16.53 a 1.11,1.1 80.3 0 0 -0.73,1.04 q -0.02,23.92 -0.01,47.85 c 0.01,7.35 -0.64,10.13 -5.61,14.97 q -4.59,4.47 -8.16,6.1 a 0.3,0.3 0 0 1 -0.43,-0.29 c 0.29,-4.56 0.91,-9.23 0.99,-13.61 q 0.57,-31.06 -0.47,-62.1 c -0.79,-23.54 1.28,-49.26 2.33,-69.3 q 0.21,-3.89 -0.6,-7.39 c -1.74,-7.57 6.18,-14.2 11.45,-18.2 a 1.39,1.38 58.4 0 1 2.08,0.5 l 0.31,0.64 a 0.57,0.57 0 0 0 0.75,0.27 q 10.46,-4.74 21.87,-3.26 1.78,0.23 2.8,1.71 3.88,5.64 5.28,12.33 a 0.35,0.35 0 0 0 0.57,0.19 c 5.23,-4.4 13.24,-9.89 20.24,-9.75 a 1.56,1.56 0 0 1 1.53,1.54 l 0.41,35.97 q 0.01,1.1 0.85,0.4 14.96,-12.46 31.57,-22.62 1.74,-1.06 1.27,0.94 c -0.87,3.68 -10.63,11.05 -13.82,13.29 z m -56.38,-7.06 c -1.18,-10.46 -4.95,-16.1 -16.55,-13.78 a 0.57,0.57 0 0 0 -0.46,0.55 l -0.3,30.63 q -0.04,3.16 1.75,0.55 6.6,-9.61 15.29,-17.26 a 0.83,0.82 -24.1 0 0 0.27,-0.69 z m 16.85,-7.9 q -2.18,0.93 -1.93,3.29 2.1,19.1 1.67,37.17 -0.08,3.29 -1.33,6.31 a 0.21,0.19 -58.1 0 0 0.04,0.22 l 0.2,0.17 a 0.11,0.11 0 0 0 0.16,-0.02 c 2.96,-4.55 7.39,-7.44 7.44,-13.19 q 0.14,-17.29 0,-34.71 a 0.58,0.58 0 0 0 -0.61,-0.57 q -2.88,0.14 -5.64,1.33 z m -33.04,71.41 11.66,-1.59 q 2.06,-0.28 2.96,-2.16 4.25,-8.84 4.16,-18.2 -0.16,-15.97 -0.65,-31.93 -0.07,-2.03 -0.37,-3.38 -0.46,-2.04 -1.84,-0.47 c -5.65,6.46 -16.23,20.63 -16.73,29.09 q -0.82,13.62 -0.7,27.33 a 1.33,1.33 0 0 0 1.51,1.31 z m 48.83,4.73 q 10.71,1.28 21.04,-1.47 a 1.62,1.61 10.2 0 0 0.87,-0.6 c 3.74,-5.1 2.93,-9.03 2.37,-16.37 -0.4,-5.33 -0.73,-19.14 -8.5,-18.78 -3.13,0.15 -12.23,1.7 -12.23,5.34 q -0.02,11.5 -0.04,23.09 0,1.61 -1.1,2.8 l -3.3,3.58 q -1.92,2.08 0.89,2.41 z"
         inkscape:connector-curvature="0"
         style="fill:#0b0b0b" />
      <path
         id="path42791"
         d="m 94,239.29 c 11.37,2.9 11.48,11.21 10.62,21.57 -1.58,19.19 -5.87,35.33 -17.53,50.93 -3.91,5.24 -6.58,9.71 -12.97,6.9 q -8.56,-3.78 -9.17,-13.99 -1.73,-29.32 8.13,-56.88 C 76.82,237.35 84.23,236.8 94,239.29 Z"
         inkscape:connector-curvature="0"
         style="fill:#ffffff" />
      <path
         id="path42793"
         d="m 213.89,241.99 c 15.44,-0.94 30.49,8.95 29.57,25.78 -0.82,15.03 -4.53,34.93 -13.48,47.39 a 3.21,3.2 -73.8 0 1 -2.41,1.33 c -12.87,0.71 -20.17,-8.76 -21.38,-20.51 -1.77,-17.33 -3.04,-34.83 3.5,-51.2 q 1.03,-2.59 4.2,-2.79 z"
         inkscape:connector-curvature="0"
         style="fill:#ffffff" />
      <path
         id="path42795"
         d="m 298.83,255.94 a 0.83,0.82 -24.1 0 1 -0.27,0.69 q -8.69,7.65 -15.29,17.26 -1.79,2.61 -1.75,-0.55 l 0.3,-30.63 a 0.57,0.57 0 0 1 0.46,-0.55 c 11.6,-2.32 15.37,3.32 16.55,13.78 z"
         inkscape:connector-curvature="0"
         style="fill:#ffffff" />
      <path
         id="path42797"
         d="m 363.71,358 c 1.03,-15.39 2.72,-25.29 6.25,-42 q 5.9,-22.08 11.28,-44.29 c 2.72,-11.22 5.77,-19.62 14.91,-25.16 q 2.63,-1.59 1.86,1.38 -7.59,29.7 -14.95,59.38 -4.72,19.07 -5.02,40.36 c -0.03,1.6 0.76,4.37 -0.61,5.99 -2.85,3.36 -9.13,10.75 -12.64,9.71 a 0.76,0.75 5.2 0 1 -0.55,-0.65 z"
         inkscape:connector-curvature="0"
         style="fill:#0b0b0b" />
      <path
         id="path42799"
         d="m 315.68,248.04 q 2.76,-1.19 5.64,-1.33 a 0.58,0.58 0 0 1 0.61,0.57 q 0.14,17.42 0,34.71 c -0.05,5.75 -4.48,8.64 -7.44,13.19 a 0.11,0.11 0 0 1 -0.16,0.02 l -0.2,-0.17 a 0.21,0.19 -58.1 0 1 -0.04,-0.22 q 1.25,-3.02 1.33,-6.31 0.43,-18.07 -1.67,-37.17 -0.25,-2.36 1.93,-3.29 z"
         inkscape:connector-curvature="0"
         style="fill:#d2d2d2" />
      <path
         id="path42801"
         d="m 282.64,319.45 a 1.33,1.33 0 0 1 -1.51,-1.31 q -0.12,-13.71 0.7,-27.33 c 0.5,-8.46 11.08,-22.63 16.73,-29.09 q 1.38,-1.57 1.84,0.47 0.3,1.35 0.37,3.38 0.49,15.96 0.65,31.93 0.09,9.36 -4.16,18.2 -0.9,1.88 -2.96,2.16 z"
         inkscape:connector-curvature="0"
         style="fill:#ffffff" />
      <path
         id="path42803"
         d="m 355.21,263 q 1.24,1.63 2.73,3.01 c 1.97,1.83 2.95,4.19 5.2,5.93 a 0.86,0.85 -56.9 0 0 1.27,-0.27 c 1.22,-2.29 -0.35,-4.19 -1.44,-5.93 q -1.51,-2.43 1.01,-1.07 c 3.59,1.94 6.72,5.36 6.41,9.66 -0.23,3.35 0.4,5.09 -2.18,7.67 -2.96,-17.49 -25.58,-3.04 -32.6,1.75 a 0.37,0.37 0 0 1 -0.56,-0.2 q -1.37,-4.59 2.2,-7.56 8.53,-7.12 17.96,-12.99 z"
         inkscape:connector-curvature="0"
         style="fill:#d2d2d2" />
      <path
         id="path42805"
         d="m 331.47,324.18 q -2.81,-0.33 -0.89,-2.41 l 3.3,-3.58 q 1.1,-1.19 1.1,-2.8 0.02,-11.59 0.04,-23.09 c 0,-3.64 9.1,-5.19 12.23,-5.34 7.77,-0.36 8.1,13.45 8.5,18.78 0.56,7.34 1.37,11.27 -2.37,16.37 a 1.62,1.61 10.2 0 1 -0.87,0.6 q -10.33,2.75 -21.04,1.47 z"
         inkscape:connector-curvature="0"
         style="fill:#d2d2d2" />
      <path
         id="path42807"
         d="m 366.46,314.5 q 1.25,1.92 3.5,1.5 c -3.53,16.71 -5.22,26.61 -6.25,42 q -0.8,-1.92 -2.7,-1.75 a 0.55,0.55 0 0 0 -0.5,0.56 c 0.19,7.1 0.82,14.65 0.04,21.72 a 1.5,1.48 -18.6 0 1 -0.47,0.93 l -5.82,5.37 q -0.65,0.6 -0.8,-0.27 l -2.65,-14.83 a 0.65,0.64 -6.6 0 0 -0.67,-0.53 c -0.43,0.03 -0.7,0.46 -0.71,0.9 -0.27,6.7 -0.46,13.03 -2.49,18.41 a 0.6,0.6 0 0 1 -0.65,0.38 l -4.51,-0.68 a 0.84,0.83 -1.5 0 1 -0.69,-0.65 l -0.61,-2.98 a 1.07,1.05 13.3 0 0 -0.39,-0.62 q -1.17,-0.88 -2.39,-0.05 a 1.87,1.8 25.1 0 1 -0.94,0.32 l -5.68,0.33 a 1.17,1.16 65.2 0 1 -0.88,-0.33 c -1.19,-1.12 -2.45,-5.75 -2.61,-5.82 a 0.68,0.67 28.1 0 0 -0.84,0.25 q -1.31,1.97 -0.29,4.19 a 0.77,0.77 0 0 1 -0.47,1.05 c -2.2,0.69 -3.58,-1.41 -2.9,-3.26 a 1.89,1.76 51.8 0 0 0.08,-0.96 c -0.46,-2.61 -2.11,-4.29 -2.47,-6.71 -1.49,-10.06 -1.73,-20.09 -4.19,-29.98 a 0.29,0.28 -21.2 0 0 -0.41,-0.18 c -0.37,0.19 0.08,27.57 0.27,30.19 a 0.75,0.75 0 0 0 0.53,0.66 l 0.26,0.08 a 0.47,0.46 10.6 0 0 0.6,-0.4 l 0.28,-3.8 q 0.09,-1.12 0.35,-0.03 0.8,3.32 0.08,6.63 a 1.55,1.54 38.5 0 0 0.12,1.02 q 0.45,0.94 -0.24,1.86 a 0.48,0.48 0 0 1 -0.82,-0.08 l -1.27,-2.53 a 0.85,0.84 76.9 0 0 -0.73,-0.46 q -0.62,-0.02 -1,0.46 c -0.6,0.75 -0.17,2.13 0.01,3.01 a 0.65,0.64 71.1 0 1 -0.34,0.71 c -4.3,2.11 -6.16,-3.22 -6.43,-6.49 -0.23,-2.73 -1.14,-4.91 -1.39,-7.47 -1.95,-20.28 -1.82,-33.96 -3.34,-50.92 l 5.48,-6.88 q 0.28,-0.36 0.33,0.09 c 0.9,8.75 -1.87,27.67 10.76,28.9 21.25,2.06 35.78,-4.67 46.85,-22.86 z"
         inkscape:connector-curvature="0"
         style="fill:#d2d2d2" />
      <path
         id="path42809"
         d="m 254.19,414 h -58 l -4.81,-0.73 a 0.65,0.64 -87.2 0 1 -0.54,-0.6 c -0.75,-14.12 -2.15,-25.34 3.66,-38.45 a 0.84,0.84 0 0 1 0.61,-0.48 l 0.25,-0.05 a 0.68,0.68 0 0 0 0.52,-0.51 q 1.52,-6.58 6.98,-10.01 c 2.96,-1.86 6.19,-1.54 9.67,-1.87 a 0.49,0.48 -2.1 0 1 0.53,0.49 q -0.04,2.44 2.35,2.7 a 0.66,0.66 0 0 1 0.59,0.66 v 2.35 q 0,0.63 0.45,0.19 0.95,-0.94 1.12,-2.32 a 1.13,1.12 77.7 0 1 0.51,-0.8 l 1.37,-0.84 a 0.81,0.79 71.5 0 0 0.37,-0.76 l -0.1,-0.86 a 0.57,0.57 0 0 1 0.68,-0.62 l 0.83,0.16 a 0.83,0.82 87.1 0 1 0.65,0.59 l 0.51,1.85 q 0.29,1.02 0.87,0.13 l 0.97,-1.5 q 0.45,-0.7 0.71,0.09 l 1.5,4.69 q 0.25,0.79 0.41,-0.03 0.4,-2.18 -0.45,-4.26 a 0.53,0.53 0 0 1 0.25,-0.68 q 1.28,-0.66 1.68,-2.11 a 0.43,0.42 -61 0 1 0.69,-0.2 c 2.76,2.47 0.29,6.03 1.03,9.11 q 0.32,1.34 0.57,-0.02 l 1.09,-6.09 a 1.56,1.55 -73.8 0 1 2.12,-1.17 q 5.66,2.31 11.24,4.59 c 2.64,1.08 1.29,5.09 2.44,5.15 a 0.7,0.7 0 0 0 0.72,-0.56 l 0.13,-0.63 q 0.19,-0.92 0.7,-0.14 c 2.1,3.24 0.87,7.8 1.26,11.36 0.59,5.35 0.24,10.05 0.95,15.13 q 0.07,0.53 0.35,0.07 c 0.13,-0.23 0.3,-0.53 0.3,-0.8 q 0.19,-9.08 -0.23,-18.16 c -0.06,-1.16 -0.31,-4.21 0.01,-4.36 a 0.37,0.37 0 0 1 0.52,0.24 q 1.56,5.69 1.52,8.31 -0.24,15.34 0.88,30.64 c 0.04,0.5 -0.14,0.73 -0.43,1.11 z M 248,384.66 q -1.88,3.22 0.31,6.49 a 0.32,0.32 0 0 0 0.37,0.12 l 0.26,-0.09 a 0.21,0.2 68.1 0 0 0.12,-0.29 q -1.35,-2.64 -0.44,-5.42 0.27,-0.81 0.08,-0.95 a 0.48,0.48 0 0 0 -0.7,0.14 z"
         inkscape:connector-curvature="0"
         style="fill:#d2d2d2" />
      <path
         id="path42811"
         d="M 122.69,414 H 65.94 l -1,-0.44 a 0.63,0.62 15.7 0 1 -0.37,-0.65 q 1.16,-8.99 0.94,-11.41 c -0.38,-4.04 -1.28,-18.31 1.41,-22.23 q 0.39,-0.56 0.65,0.07 l 0.62,1.51 a 0.26,0.25 -26.2 0 0 0.37,0.12 l 0.27,-0.15 a 0.49,0.49 0 0 0 0.23,-0.52 c -1.23,-5.47 3.64,-7.84 7.47,-10.09 a 1.68,1.67 -42.3 0 1 1.82,0.08 l 2.32,1.66 a 0.58,0.57 -61.5 0 0 0.87,-0.26 q 0.78,-1.99 2.88,-1.64 a 0.69,0.69 0 0 1 0.58,0.68 v 5.32 a 0.74,0.72 11.7 0 0 0.45,0.67 c 2.06,0.86 1.41,-7.95 5.92,-5.59 a 1.63,1.63 0 0 0 0.91,0.17 l 3.49,-0.32 a 0.64,0.63 82.9 0 1 0.69,0.54 l 0.29,2.01 a 0.56,0.56 0 0 0 0.53,0.47 l 0.45,0.01 a 0.48,0.48 0 0 0 0.5,-0.52 q -0.13,-1.6 1.14,-2.26 0.62,-0.32 0.54,0.38 c -0.26,2.31 0.39,4.29 0.07,6.44 q -0.28,1.85 -0.49,3.7 a 0.46,0.46 0 0 0 0.48,0.51 q 0.77,-0.03 1.74,-3.63 0.23,-0.86 0.14,-1.75 -0.42,-4.39 1.55,-8.2 a 0.83,0.81 -75.2 0 1 0.76,-0.45 q 1.27,0.05 1.97,1.2 a 1.45,1.43 81.7 0 0 0.85,0.64 l 6.45,1.72 q 0.47,0.13 0.82,0.46 l 6.47,6.08 q 1.75,1.65 2.07,4.04 c 1.32,10.1 1.2,20.25 2.64,30.4 a 0.6,0.6 0 0 1 -0.45,0.67 z m -16.49,-40.63 -0.83,5.86 a 1.14,1.13 -62.2 0 0 0.28,0.91 l 1.69,1.87 a 0.48,0.48 0 0 0 0.73,-0.02 c 1.83,-2.23 0.61,-6.8 -0.64,-8.87 q -0.96,-1.59 -1.23,0.25 z m 13.35,16.27 q 0.34,0.17 0.86,0.08 a 0.53,0.53 0 0 0 0.43,-0.45 c 0.21,-1.42 0.51,-8.68 -0.94,-9.46 a 0.32,0.32 0 0 0 -0.46,0.24 l -1.1,8.63 a 0.59,0.58 -61.8 0 0 0.12,0.41 q 0.11,0.14 0.29,0.15 0.01,0 0.8,0.4 z m -12.72,3.29 q -0.07,1.4 0.57,0.15 1.05,-2.08 0.26,-4.26 -0.54,-1.5 -0.62,0.09 z"
         inkscape:connector-curvature="0"
         style="fill:#d2d2d2" />
      <path
         id="path42813"
         d="m 106.2,373.37 q 0.27,-1.84 1.23,-0.25 c 1.25,2.07 2.47,6.64 0.64,8.87 a 0.48,0.48 0 0 1 -0.73,0.02 l -1.69,-1.87 a 1.14,1.13 -62.2 0 1 -0.28,-0.91 z"
         inkscape:connector-curvature="0"
         style="fill:#ffffff" />
      <path
         id="path42815"
         d="m 118.75,389.24 q -0.18,-0.01 -0.29,-0.15 a 0.59,0.58 -61.8 0 1 -0.12,-0.41 l 1.1,-8.63 a 0.32,0.32 0 0 1 0.46,-0.24 c 1.45,0.78 1.15,8.04 0.94,9.46 a 0.53,0.53 0 0 1 -0.43,0.45 q -0.52,0.09 -0.86,-0.08 -0.79,-0.4 -0.8,-0.4 z"
         inkscape:connector-curvature="0"
         style="fill:#ffffff" />
      <path
         id="path42817"
         d="m 248,384.66 a 0.48,0.48 0 0 1 0.7,-0.14 q 0.19,0.14 -0.08,0.95 -0.91,2.78 0.44,5.42 a 0.21,0.2 68.1 0 1 -0.12,0.29 l -0.26,0.09 a 0.32,0.32 0 0 1 -0.37,-0.12 q -2.19,-3.27 -0.31,-6.49 z"
         inkscape:connector-curvature="0"
         style="fill:#ffffff" />
      <path
         id="path42819"
         d="m 106.83,392.93 0.21,-4.02 q 0.08,-1.59 0.62,-0.09 0.79,2.18 -0.26,4.26 -0.64,1.25 -0.57,-0.15 z"
         inkscape:connector-curvature="0"
         style="fill:#ffffff" />
    </g>
    <text
       xml:space="preserve"
       style="font-style:normal;font-weight:normal;font-size:33.90801239px;line-height:0;font-family:sans-serif;letter-spacing:0px;word-spacing:0px;fill:#666666;fill-opacity:1;stroke:none;stroke-width:0.84770024"
       x="14.547032"
       y="174.63515"
       id="text827"><tspan
         sodipodi:role="line"
         id="tspan825"
         x="14.547032"
         y="174.63515"
         style="font-style:normal;font-variant:normal;font-weight:bold;font-stretch:normal;font-family:Arsenal;-inkscape-font-specification:'Arsenal Bold';fill:#666666;stroke-width:0.84770024">42</tspan></text>
  </g>
</svg>
