<?xml version="1.0" encoding="UTF-8" standalone="no"?>
<!DOCTYPE svg PUBLIC "-//W3C//DTD SVG 1.1//EN" "http://www.w3.org/Graphics/SVG/1.1/DTD/svg11.dtd">
<svg xmlns="http://www.w3.org/2000/svg" version="1.1" viewBox="0 0 447 330">
<g stroke-width="2.00" fill="none" stroke-linecap="butt">
<path stroke="#848584" vector-effect="non-scaling-stroke" d="
  M 147.60 11.41
  Q 144.50 9.62 139.94 10.18
  Q 122.33 12.31 109.85 23.11
  C 109.00 23.84 105.42 27.44 106.04 28.55
  A 0.50 0.49 -30.7 0 0 106.74 28.72
  Q 113.74 24.19 121.75 21.96"
/>
<path stroke="#e6e8ea" vector-effect="non-scaling-stroke" d="
  M 121.75 21.96
  L 122.29 22.25"
/>
<path stroke="#848584" vector-effect="non-scaling-stroke" d="
  M 122.29 22.25
  C 117.85 25.76 113.21 28.12 113.71 35.00"
/>
<path stroke="#e6e8ea" vector-effect="non-scaling-stroke" d="
  M 113.71 35.00
  Q 110.87 37.30 110.53 40.67
  C 110.17 44.28 109.85 46.72 105.73 46.39
  A 0.74 0.74 0.0 0 0 105.01 46.80
  C 103.00 50.96 99.57 53.19 97.70 57.70
  Q 97.26 58.74 95.34 59.16
  A 1.11 1.11 0.0 0 0 94.60 59.72
  L 93.72 61.36
  A 1.48 1.48 0.0 0 0 93.58 62.33
  Q 94.37 66.37 91.54 69.40
  A 1.38 1.36 -24.0 0 0 91.16 70.37
  L 91.17 72.52
  A 0.73 0.73 0.0 0 1 90.82 73.16
  Q 86.81 75.67 85.48 80.22
  Q 84.75 82.71 82.56 84.11
  Q 78.79 86.51 80.27 90.72
  Q 80.44 91.20 80.40 91.70
  Q 79.94 97.78 77.52 103.34
  A 0.75 0.75 0.0 0 0 77.87 104.31
  L 79.05 104.91
  A 0.70 0.69 20.4 0 1 79.41 105.68
  C 78.63 109.11 78.53 114.50 76.13 117.05
  A 1.14 1.14 0.0 0 0 75.82 117.88
  L 76.07 123.56
  A 1.22 1.21 -21.9 0 1 75.66 124.51
  L 73.23 126.63
  A 1.07 1.05 -20.6 0 0 72.87 127.40
  Q 72.75 133.63 70.23 139.30
  C 69.22 141.56 69.98 143.25 72.60 143.18
  Q 73.69 143.16 73.05 144.04
  Q 69.93 148.28 71.68 153.28
  A 1.51 1.49 44.7 0 1 71.69 154.22
  Q 70.14 159.03 73.24 163.20
  A 0.88 0.87 39.4 0 1 73.33 164.09
  C 72.13 166.61 68.18 171.71 71.45 173.83
  A 0.64 0.63 28.1 0 1 71.69 174.60
  L 71.10 176.00
  Q 70.90 176.50 70.95 177.03
  Q 71.43 181.83 69.49 186.21
  A 0.75 0.75 0.0 0 0 69.70 187.09
  L 71.39 188.48
  Q 71.73 188.76 71.95 189.13
  L 75.88 195.83
  A 1.54 1.51 35.1 0 1 76.07 196.85
  Q 75.49 200.31 76.20 203.69
  A 1.70 1.66 -76.2 0 0 76.73 204.59
  Q 80.05 207.51 81.41 211.72
  C 82.00 213.53 81.18 215.12 80.85 216.96
  A 1.76 1.70 40.0 0 0 80.95 217.92
  Q 86.04 229.96 92.96 241.05
  Q 93.68 242.20 95.44 249.16
  A 1.06 1.04 4.1 0 0 96.08 249.88
  L 98.24 250.74
  A 0.97 0.96 -86.5 0 1 98.84 251.42
  L 99.76 255.27
  A 1.25 1.24 -84.7 0 0 100.47 256.13
  Q 101.38 256.53 101.68 257.39
  A 1.73 1.73 0.0 0 1 101.72 258.32
  L 101.24 260.22
  A 0.86 0.85 -68.0 0 0 101.63 261.16
  Q 106.28 263.97 109.79 268.00"
/>
<path stroke="#848584" vector-effect="non-scaling-stroke" d="
  M 109.79 268.00
  C 106.31 272.67 102.98 276.03 104.20 282.51
  A 0.63 0.62 -4.0 0 0 104.79 283.02
  Q 112.63 283.33 119.44 279.45"
/>
<path stroke="#e6e8ea" vector-effect="non-scaling-stroke" d="
  M 119.44 279.45
  Q 125.66 285.70 131.79 291.96
  C 141.09 301.45 151.73 309.55 164.39 312.25
  Q 173.68 314.23 180.45 318.54
  Q 183.28 320.33 185.41 318.81
  A 0.66 0.66 0.0 0 1 186.20 318.82
  Q 188.02 320.19 189.56 320.39
  C 203.58 322.26 216.84 321.25 232.02 318.24
  Q 241.02 316.45 250.24 317.24
  A 2.02 1.94 -54.1 0 0 251.28 317.05
  L 256.77 314.38
  A 1.63 1.60 35.1 0 1 257.68 314.23
  Q 260.35 314.54 262.65 313.21
  A 0.54 0.54 0.0 0 0 262.74 312.34
  L 261.59 311.31
  A 0.56 0.56 0.0 0 1 261.51 310.56
  Q 261.76 310.22 262.26 310.22
  Q 268.01 310.23 271.41 306.33
  A 0.97 0.96 -66.1 0 1 272.23 306.01
  C 275.88 306.36 279.18 305.60 279.22 301.18
  Q 279.23 299.85 280.34 300.58
  C 287.86 305.52 291.00 297.15 297.25 294.39
  C 303.33 291.71 309.27 289.25 315.19 285.87
  C 317.89 284.33 323.28 282.53 324.49 279.35
  Q 324.66 278.88 325.04 278.56
  C 330.38 273.92 334.50 271.30 338.48 264.24
  C 339.60 262.25 341.45 261.17 342.64 259.00
  A 1.91 1.90 -1.5 0 1 343.30 258.31
  Q 353.96 251.89 361.70 242.25
  C 363.13 240.46 365.81 239.83 365.32 236.49
  A 1.01 1.00 62.7 0 1 365.59 235.63
  C 375.70 224.94 383.80 211.72 386.57 197.16
  Q 387.87 190.33 389.66 183.60
  A 1.76 1.74 44.7 0 0 389.65 182.68
  L 388.90 180.00
  A 0.69 0.69 0.0 0 1 389.46 179.13
  L 390.54 178.97
  A 0.92 0.91 7.2 0 0 391.23 178.44
  L 392.28 176.03
  A 0.65 0.65 0.0 0 0 392.09 175.27
  C 390.03 173.56 390.89 167.01 391.49 163.90
  A 1.10 1.09 27.8 0 0 391.17 162.89
  L 389.29 161.08
  A 0.63 0.63 0.0 0 1 389.33 160.13
  Q 391.96 158.05 391.47 154.45
  A 0.44 0.44 0.0 0 0 390.86 154.11
  L 388.65 155.06
  Q 387.46 155.57 388.01 154.39
  L 390.22 149.74
  A 0.91 0.89 -54.5 0 0 390.06 148.74
  L 388.23 146.83
  A 0.93 0.93 0.0 0 1 388.02 145.86
  L 388.33 145.01
  A 0.59 0.59 0.0 0 0 387.94 144.23
  L 383.24 142.84
  A 0.72 0.71 -70.0 0 1 382.79 141.87
  C 384.39 138.22 384.83 133.73 379.83 132.78
  A 0.69 0.68 -88.9 0 1 379.28 132.20
  C 378.51 126.58 373.66 122.80 377.70 117.22
  A 0.69 0.68 -47.3 0 0 377.67 116.37
  Q 373.55 111.58 371.92 105.45
  Q 371.50 103.86 369.92 103.39
  Q 365.08 101.97 361.35 98.65
  Q 359.57 97.06 357.94 98.79
  Q 356.67 100.13 354.25 101.04"
/>
<path stroke="#848584" vector-effect="non-scaling-stroke" d="
  M 354.25 101.04
  C 348.47 95.86 329.61 101.15 322.94 103.79"
/>
<path stroke="#e2e4e6" vector-effect="non-scaling-stroke" d="
  M 322.94 103.79
  Q 322.23 100.50 323.32 97.21
  A 0.98 0.96 34.6 0 0 323.14 96.28
  Q 321.41 94.24 318.85 93.33
  A 1.28 1.27 27.3 0 1 318.23 91.39
  L 319.95 88.97
  A 0.58 0.57 -50.1 0 0 319.89 88.23
  Q 313.58 81.93 315.64 73.28
  A 1.05 1.02 -58.6 0 0 315.43 72.36
  Q 311.51 67.58 310.20 61.54
  Q 309.76 59.54 307.75 59.20
  C 302.53 58.29 298.77 54.89 294.32 52.20
  Q 292.02 50.81 292.18 48.12
  Q 292.38 44.76 289.15 44.03
  A 0.97 0.96 -3.8 0 1 288.43 43.40
  Q 286.78 38.68 282.03 38.16
  Q 277.44 37.66 274.61 35.15
  A 1.88 1.83 11.8 0 1 274.07 34.35
  Q 273.07 31.27 269.73 31.70
  Q 264.31 32.39 260.04 31.75"
/>
<path stroke="#848584" vector-effect="non-scaling-stroke" d="
  M 260.04 31.75
  L 259.84 24.91
  A 0.73 0.73 0.0 0 1 260.29 24.22
  Q 274.50 18.47 289.84 18.70
  Q 292.12 18.74 294.03 19.99
  C 301.12 24.63 302.54 30.85 304.31 38.84
  Q 304.52 39.77 305.21 39.11
  L 312.65 31.89
  Q 313.92 30.66 313.80 28.90
  C 313.27 21.09 308.15 9.42 299.25 8.95
  C 279.34 7.89 255.92 16.51 242.50 32.54"
/>
<path stroke="#e2e4e6" vector-effect="non-scaling-stroke" d="
  M 242.50 32.54
  Q 238.28 32.83 234.66 30.84
  A 1.55 1.48 3.9 0 1 234.02 30.14
  L 233.75 29.54"
/>
<path stroke="#848584" vector-effect="non-scaling-stroke" d="
  M 233.75 29.54
  C 239.06 26.51 246.25 23.04 248.86 17.18
  A 0.31 0.31 0.0 0 0 248.55 16.75
  C 243.49 17.25 234.61 24.45 231.08 27.20
  Q 230.80 27.42 230.81 27.06
  L 231.01 19.55
  A 0.48 0.47 -11.8 0 0 230.33 19.11
  Q 223.80 22.32 221.21 29.00"
/>
<path stroke="#e2e4e6" vector-effect="non-scaling-stroke" d="
  M 221.21 29.00
  L 219.88 28.64
  A 0.91 0.90 -56.9 0 0 219.05 28.82
  C 216.33 31.13 212.37 30.79 209.04 29.79
  C 206.39 28.99 203.79 28.53 203.57 32.11
  C 203.51 33.00 203.17 33.29 202.29 33.00"
/>
<path stroke="#848584" vector-effect="non-scaling-stroke" d="
  M 202.29 33.00
  C 203.10 19.06 187.42 19.05 177.53 20.37"
/>
<path stroke="#e6e8ea" vector-effect="non-scaling-stroke" d="
  M 177.53 20.37
  C 174.91 15.24 169.44 10.02 162.94 11.67
  A 2.81 2.79 -32.9 0 1 160.52 11.16
  L 158.03 9.20
  A 1.16 1.16 0.0 0 0 157.04 8.98
  Q 154.83 9.51 154.38 11.77
  A 0.71 0.71 0.0 0 1 153.28 12.21
  Q 150.51 10.27 147.60 11.41"
/>
<path stroke="#6b6e6f" vector-effect="non-scaling-stroke" d="
  M 177.53 20.37
  Q 158.22 29.70 151.46 50.00"
/>
<path stroke="#bec2c6" vector-effect="non-scaling-stroke" d="
  M 151.46 50.00
  L 148.04 49.50"
/>
<path stroke="#6b6e6f" vector-effect="non-scaling-stroke" d="
  M 148.04 49.50
  C 151.24 38.41 153.81 21.87 147.60 11.41"
/>
<path stroke="#bec2c6" vector-effect="non-scaling-stroke" d="
  M 145.25 75.79
  Q 144.04 74.87 143.44 75.22
  A 1.55 0.08 -30.0 0 0 142.20 76.03
  Q 141.58 79.84 138.88 82.62
  A 1.37 1.35 67.7 0 0 138.51 83.53
  L 138.50 84.96"
/>
<path stroke="#5c5f60" vector-effect="non-scaling-stroke" d="
  M 148.04 49.50
  Q 143.15 66.90 136.18 83.58
  A 0.77 0.77 0.0 0 0 136.34 84.43
  Q 137.14 85.25 138.50 84.96"
/>
<path stroke="#6b6e6f" vector-effect="non-scaling-stroke" d="
  M 138.50 84.96
  L 143.20 85.84
  A 0.47 0.47 0.0 0 0 143.76 85.44
  L 145.25 75.79"
/>
<path stroke="#5c5f60" vector-effect="non-scaling-stroke" d="
  M 145.25 75.79
  C 146.65 71.29 148.27 66.97 149.07 62.27
  Q 150.12 56.11 151.46 50.00"
/>
<path stroke="#67696b" vector-effect="non-scaling-stroke" d="
  M 202.29 33.00
  C 201.20 52.03 187.95 71.62 174.02 84.35
  Q 173.40 84.91 174.23 84.96
  Q 179.56 85.29 184.72 84.01
  Q 185.33 83.85 185.02 84.40
  C 182.24 89.37 176.50 95.13 170.34 94.75
  Q 160.07 94.12 149.70 93.76
  A 0.37 0.36 -7.1 0 0 149.34 94.22
  C 152.93 106.83 145.49 120.57 135.23 127.52
  A 0.87 0.86 -50.6 0 1 134.43 127.60
  L 133.40 127.19
  A 0.75 0.73 30.0 0 0 132.54 127.41
  L 129.50 131.21
  Q 129.12 131.69 129.71 131.52
  Q 134.39 130.18 139.25 129.81
  C 146.27 129.26 150.96 123.61 155.70 119.27
  Q 161.29 114.15 168.37 110.88
  A 0.43 0.43 0.0 0 1 168.98 111.27
  L 169.01 133.66
  Q 169.01 134.90 169.94 134.08
  C 172.43 131.89 208.01 103.33 208.29 112.75"
/>
<path stroke="#848584" vector-effect="non-scaling-stroke" d="
  M 208.29 112.75
  L 208.11 120.05"
/>
<path stroke="#67696b" vector-effect="non-scaling-stroke" d="
  M 208.11 120.05
  Q 205.86 136.72 204.83 153.59
  C 204.38 160.94 205.99 168.55 215.39 167.40
  A 0.82 0.81 6.4 0 0 216.06 166.87
  Q 219.02 158.93 220.09 149.81
  Q 222.23 131.61 222.96 115.75"
/>
<path stroke="#848584" vector-effect="non-scaling-stroke" d="
  M 222.96 115.75
  C 223.66 111.51 227.20 109.35 230.04 106.75"
/>
<path stroke="#67696b" vector-effect="non-scaling-stroke" d="
  M 230.04 106.75
  L 232.37 105.28
  A 0.44 0.43 -27.9 0 1 233.00 105.47
  Q 233.42 106.41 233.29 107.50"
/>
<path stroke="#848584" vector-effect="non-scaling-stroke" d="
  M 233.29 107.50
  L 233.04 118.25"
/>
<path stroke="#67696b" vector-effect="non-scaling-stroke" d="
  M 233.04 118.25
  C 232.71 131.25 232.54 147.89 238.04 159.94
  Q 238.34 160.60 238.53 159.90
  L 248.71 121.75"
/>
<path stroke="#848584" vector-effect="non-scaling-stroke" d="
  M 248.71 121.75
  L 252.00 110.79"
/>
<path stroke="#67696b" vector-effect="non-scaling-stroke" d="
  M 252.00 110.79
  C 253.50 108.00 258.97 100.91 262.41 100.99
  A 0.98 0.97 -84.1 0 1 263.34 102.14
  L 260.04 120.25"
/>
<path stroke="#848584" vector-effect="non-scaling-stroke" d="
  M 260.04 120.25
  L 259.29 128.00"
/>
<path stroke="#67696b" vector-effect="non-scaling-stroke" d="
  M 259.29 128.00
  Q 258.59 141.87 259.14 155.75
  Q 259.33 160.35 263.33 162.14
  A 0.95 0.95 0.0 0 0 264.60 161.63
  Q 269.54 149.52 272.21 136.75"
/>
<path stroke="#848584" vector-effect="non-scaling-stroke" d="
  M 272.21 136.75
  L 273.50 131.54"
/>
<path stroke="#67696b" vector-effect="non-scaling-stroke" d="
  M 273.50 131.54
  C 276.23 120.99 275.65 110.14 286.72 104.27
  A 0.86 0.86 0.0 0 1 287.98 105.02
  L 288.02 133.00
  Q 288.03 135.18 289.31 133.42
  Q 292.22 129.43 296.87 127.91
  A 1.40 1.40 0.0 0 0 297.63 127.31
  Q 306.92 111.88 322.94 103.79"
/>
<path stroke="#6b6e6f" vector-effect="non-scaling-stroke" d="
  M 354.25 101.04
  C 359.14 106.70 353.36 111.87 349.25 115.29"
/>
<path stroke="#5c5f60" vector-effect="non-scaling-stroke" d="
  M 349.25 115.29
  Q 348.18 116.14 346.88 116.03
  A 0.70 0.70 0.0 0 1 346.26 115.52
  L 345.50 112.71"
/>
<path stroke="#67696b" vector-effect="non-scaling-stroke" d="
  M 345.50 112.71
  Q 344.12 109.50 341.25 109.23
  C 331.83 108.32 310.67 110.59 306.60 121.95
  C 304.94 126.59 305.98 134.63 306.04 140.34
  A 0.77 0.77 0.0 0 0 306.92 141.09
  Q 319.69 139.14 332.50 138.79"
/>
<path stroke="#5c5f60" vector-effect="non-scaling-stroke" d="
  M 332.50 138.79
  Q 336.25 141.16 334.52 145.43"
/>
<path stroke="#67696b" vector-effect="non-scaling-stroke" d="
  M 334.52 145.43
  C 329.04 152.21 322.76 157.42 316.38 163.13
  C 314.20 165.08 314.34 169.15 316.57 171.16
  C 321.10 175.23 336.09 172.82 342.02 171.04"
/>
<path stroke="#5c5f60" vector-effect="non-scaling-stroke" d="
  M 342.02 171.04
  L 361.16 165.08"
/>
<path stroke="#6b6e6f" vector-effect="non-scaling-stroke" d="
  M 361.16 165.08
  Q 360.41 168.72 357.71 170.97"
/>
<path stroke="#5c5f60" vector-effect="non-scaling-stroke" d="
  M 357.71 170.97
  C 352.09 175.49 347.21 176.69 340.96 179.00"
/>
<path stroke="#67696b" vector-effect="non-scaling-stroke" d="
  M 340.96 179.00
  C 330.32 181.91 322.45 184.16 312.15 182.73
  C 304.49 181.66 303.89 178.46 305.93 171.48
  A 0.39 0.39 0.0 0 0 305.51 170.99
  Q 305.22 171.02 305.03 171.29
  Q 302.37 175.04 298.96 176.26
  A 1.39 1.38 -15.7 0 1 297.13 175.24
  L 294.63 163.24
  Q 294.15 160.90 294.17 163.29
  L 294.26 170.76
  Q 294.28 172.92 292.90 174.59
  Q 289.90 178.22 285.97 180.90
  Q 283.85 182.35 283.23 179.86
  Q 279.39 164.43 278.25 148.55
  Q 277.96 144.49 276.56 148.32
  Q 271.28 162.73 259.06 171.97
  A 3.66 3.60 26.3 0 1 256.84 172.70
  C 247.03 172.65 248.51 160.05 248.78 152.96
  A 0.15 0.13 -80.1 0 0 248.69 152.81
  L 248.43 152.73
  A 0.15 0.15 0.0 0 0 248.24 152.83
  Q 245.59 163.61 236.85 170.31
  C 230.18 175.42 226.51 167.65 225.69 162.46
  Q 225.50 161.24 224.91 162.32
  C 221.80 168.01 214.73 176.90 207.76 177.50
  C 193.41 178.75 194.89 168.54 195.00 158.76
  Q 195.01 157.81 194.37 158.52
  L 186.25 167.71"
/>
<path stroke="#848584" vector-effect="non-scaling-stroke" d="
  M 186.25 167.71
  Q 175.51 177.76 160.94 180.89"
/>
<path stroke="#67696b" vector-effect="non-scaling-stroke" d="
  M 160.94 180.89
  Q 147.79 183.08 144.38 170.98
  A 0.30 0.29 -29.6 0 0 143.89 170.85
  Q 134.76 179.87 123.00 185.04"
/>
<path stroke="#5c5f60" vector-effect="non-scaling-stroke" d="
  M 123.00 185.04
  Q 118.75 186.73 114.30 187.83
  C 110.82 188.69 108.43 191.84 106.04 194.33
  Q 104.13 196.33 103.08 193.77
  L 99.36 184.67
  A 1.50 1.50 0.0 0 1 99.30 183.69
  Q 100.70 178.79 100.60 177.74
  Q 99.50 166.12 98.98 154.39
  A 0.50 0.50 0.0 0 0 98.34 153.93
  L 93.89 155.28
  A 0.67 0.65 -22.0 0 1 93.11 154.96
  C 92.45 153.69 96.78 148.69 97.70 147.57
  A 1.33 1.28 65.7 0 0 98.00 146.73
  L 98.00 131.88
  Q 98.00 129.23 99.93 127.40
  L 106.09 121.56
  Q 107.88 119.87 107.92 122.33
  L 108.19 139.35
  A 0.85 0.84 76.6 0 0 109.40 140.10
  L 123.31 133.45
  A 1.86 1.85 3.0 0 0 124.06 132.78
  C 126.20 129.35 126.87 122.52 122.30 120.58
  C 115.13 117.56 103.52 120.57 97.00 124.11
  A 0.50 0.50 0.0 0 1 96.27 123.78
  C 95.94 122.16 99.28 118.63 100.41 117.44
  Q 100.75 117.08 100.26 117.09
  L 92.29 117.25"
/>
<path stroke="#6b6e6f" vector-effect="non-scaling-stroke" d="
  M 92.29 117.25
  Q 86.92 115.68 87.02 111.38
  C 87.21 104.07 99.92 96.00 105.50 92.71"
/>
<path stroke="#5c5f60" vector-effect="non-scaling-stroke" d="
  M 105.50 92.71
  L 113.23 89.39
  A 0.87 0.85 81.4 0 0 113.74 88.68
  Q 114.38 81.84 113.71 75.00"
/>
<path stroke="#6b6e6f" vector-effect="non-scaling-stroke" d="
  M 113.71 75.00
  L 113.71 35.00"
/>
<path stroke="#6b6e6f" vector-effect="non-scaling-stroke" d="
  M 122.29 22.25
  L 122.73 22.00
  A 0.55 0.55 0.0 0 1 123.46 22.20
  Q 124.01 23.12 124.01 23.50
  Q 123.96 45.75 124.04 68.00"
/>
<path stroke="#5c5f60" vector-effect="non-scaling-stroke" d="
  M 124.04 68.00
  L 124.06 85.38
  A 0.67 0.67 0.0 0 0 124.77 86.05
  L 128.15 85.85
  A 0.83 0.83 0.0 0 0 128.88 85.31
  Q 134.00 71.84 137.96 58.00"
/>
<path stroke="#6b6e6f" vector-effect="non-scaling-stroke" d="
  M 137.96 58.00
  C 141.12 46.80 142.78 34.71 139.16 23.72
  C 137.13 17.57 125.95 20.38 121.75 21.96"
/>
<path stroke="#6b6e6f" vector-effect="non-scaling-stroke" d="
  M 119.44 279.45
  Q 122.03 277.19 125.17 277.55
  A 1.37 1.32 -57.6 0 0 126.08 277.33
  Q 131.16 273.96 134.72 268.99
  Q 135.04 268.53 136.25 267.96"
/>
<path stroke="#bec2c6" vector-effect="non-scaling-stroke" d="
  M 136.25 267.96
  Q 141.07 271.24 145.25 275.26
  C 147.70 277.62 149.75 278.37 152.96 278.00"
/>
<path stroke="#6b6e6f" vector-effect="non-scaling-stroke" d="
  M 152.96 278.00
  Q 152.85 278.78 153.08 279.45
  A 0.50 0.49 -18.8 0 0 153.70 279.75
  L 154.44 279.50"
/>
<path stroke="#bec2c6" vector-effect="non-scaling-stroke" d="
  M 154.44 279.50
  Q 156.99 282.27 160.76 282.91
  A 1.90 1.84 69.5 0 1 161.62 283.32
  C 164.44 285.74 167.66 288.98 170.66 287.81
  A 1.97 1.94 38.8 0 1 171.65 287.71
  L 182.41 289.49
  A 3.21 3.20 -57.7 0 0 184.79 288.95
  Q 188.67 286.20 193.27 287.89
  C 198.38 289.78 203.30 287.97 208.42 287.79
  C 213.45 287.62 217.93 285.99 222.99 286.06
  Q 224.88 286.09 225.98 284.55
  Q 232.12 275.97 242.70 277.73
  A 1.43 1.38 70.7 0 1 243.45 278.11
  L 246.00 280.61
  A 0.64 0.64 0.0 0 0 246.84 280.66
  Q 251.79 276.80 257.92 275.82
  C 264.00 274.85 264.64 272.15 267.30 267.56
  Q 268.19 266.04 270.25 266.21"
/>
<path stroke="#6b6e6f" vector-effect="non-scaling-stroke" d="
  M 270.25 266.21
  C 280.15 270.98 287.94 268.06 294.06 258.89
  Q 294.99 257.49 293.35 257.84
  Q 287.55 259.05 281.96 257.43"
/>
<path stroke="#bec2c6" vector-effect="non-scaling-stroke" d="
  M 281.96 257.43
  Q 284.67 256.74 287.23 255.95
  Q 289.20 255.34 291.39 255.17
  A 0.83 0.83 0.0 0 0 292.08 254.68
  C 293.28 251.96 295.69 250.65 297.17 248.68
  C 298.82 246.47 300.27 243.32 303.46 243.25"
/>
<path stroke="#6b6e6f" vector-effect="non-scaling-stroke" d="
  M 303.46 243.25
  Q 306.95 258.95 313.64 273.70
  A 0.56 0.56 0.0 0 0 314.54 273.86
  L 322.71 265.82
  A 2.34 2.33 -34.7 0 0 323.19 263.19
  Q 317.67 251.28 314.40 238.57
  A 0.42 0.40 82.1 0 1 314.78 238.05
  C 318.19 237.99 322.67 238.72 325.63 236.90
  Q 330.24 234.08 332.80 229.86
  Q 333.93 228.00 331.76 228.05
  L 323.50 228.21"
/>
<path stroke="#bec2c6" vector-effect="non-scaling-stroke" d="
  M 323.50 228.21
  C 324.14 223.78 326.98 223.14 330.14 221.47
  A 0.73 0.72 71.6 0 0 330.51 220.72
  L 330.03 217.62
  A 1.07 1.05 -28.0 0 1 330.31 216.73
  L 333.04 213.88
  A 1.64 1.62 -74.5 0 1 333.86 213.41
  C 339.27 212.13 341.97 202.85 341.89 198.57
  A 1.39 1.38 63.8 0 1 342.19 197.68
  C 345.10 193.94 348.33 195.75 351.75 194.48
  A 0.88 0.86 85.3 0 0 352.30 193.82
  Q 353.44 187.50 358.46 183.67
  A 2.09 2.07 -28.2 0 0 359.17 181.35
  Q 357.51 176.51 357.71 170.97"
/>
<path stroke="#bec2c6" vector-effect="non-scaling-stroke" d="
  M 361.16 165.08
  Q 363.03 159.37 360.43 153.71
  A 1.36 1.36 0.0 0 1 360.35 152.78
  C 361.43 148.89 360.75 142.08 357.24 139.01
  A 0.43 0.42 -41.2 0 1 357.29 138.34
  Q 359.72 136.75 359.13 133.55
  A 0.62 0.62 0.0 0 0 358.28 133.09
  L 356.66 133.76
  A 0.48 0.47 -22.6 0 1 356.03 133.51
  C 355.25 131.70 359.61 129.64 356.10 125.65
  A 0.79 0.78 38.4 0 1 355.99 124.79
  L 356.46 123.85
  Q 356.84 123.09 356.00 123.22
  C 352.35 123.79 350.95 118.95 349.25 115.29"
/>
<path stroke="#e2e4e6" vector-effect="non-scaling-stroke" d="
  M 222.96 115.75
  Q 219.70 116.36 216.35 114.87
  Q 213.33 113.52 211.26 116.11
  L 208.11 120.05"
/>
<path stroke="#b9bec2" vector-effect="non-scaling-stroke" d="
  M 123.00 185.04
  Q 123.85 186.03 124.66 187.02
  C 128.04 191.19 123.40 196.76 129.50 200.79"
/>
<path stroke="#5c5f60" vector-effect="non-scaling-stroke" d="
  M 129.50 200.79
  C 125.55 203.36 115.16 211.71 114.44 216.45
  Q 114.34 217.07 114.93 216.83
  L 116.18 216.30
  A 0.44 0.44 0.0 0 1 116.79 216.71
  Q 116.75 233.08 118.31 249.63"
/>
<path stroke="#bec2c6" vector-effect="non-scaling-stroke" d="
  M 137.96 58.00
  C 132.32 57.42 132.15 61.55 131.09 65.54
  A 1.65 1.63 77.2 0 1 130.58 66.36
  Q 127.88 68.73 124.04 68.00"
/>
<path stroke="#5c5f60" vector-effect="non-scaling-stroke" d="
  M 323.50 228.21
  L 312.90 229.16
  A 0.80 0.79 81.0 0 1 312.05 228.53
  L 310.04 219.00"
/>
<path stroke="#b9bec2" vector-effect="non-scaling-stroke" d="
  M 340.96 179.00
  Q 341.12 179.46 341.10 179.94
  A 0.89 0.87 -13.2 0 1 340.63 180.68
  C 335.65 183.27 338.64 187.68 339.56 191.16
  A 1.09 1.07 55.4 0 1 339.40 192.06
  Q 333.02 201.00 325.47 208.94
  C 321.08 213.55 315.62 216.09 310.04 219.00"
/>
<path stroke="#67696b" vector-effect="non-scaling-stroke" d="
  M 310.04 219.00
  L 307.00 200.32
  A 1.15 1.13 -28.1 0 1 307.31 199.33
  L 313.99 192.51
  Q 314.44 192.04 313.79 192.01
  Q 311.58 191.88 308.96 193.73
  C 290.97 206.44 275.33 221.43 268.37 241.81
  C 267.08 245.58 266.87 249.80 266.50 253.84
  A 0.46 0.45 16.7 0 1 265.83 254.20
  C 260.65 251.43 258.35 241.33 257.72 236.00
  Q 255.87 220.48 254.89 204.83
  A 1.44 1.43 60.0 0 1 255.11 204.00
  L 258.19 199.25
  A 0.49 0.49 0.0 0 0 257.92 198.52
  C 255.52 197.81 235.77 217.56 234.69 218.68
  C 223.04 230.74 218.19 240.03 217.97 256.81
  A 1.36 1.35 78.7 0 1 217.17 258.02
  C 208.26 262.01 198.58 260.96 188.81 261.03
  Q 187.37 261.04 185.00 262.79"
/>
<path stroke="#b9bec2" vector-effect="non-scaling-stroke" d="
  M 185.00 262.79
  L 182.75 262.46"
/>
<path stroke="#67696b" vector-effect="non-scaling-stroke" d="
  M 182.75 262.46
  C 185.43 257.18 183.26 246.87 182.91 240.77
  A 2.03 2.03 0.0 0 1 184.14 238.79
  C 186.60 237.74 203.97 231.84 204.28 236.67
  A 0.29 0.29 0.0 0 0 204.72 236.90
  C 207.63 235.08 213.66 230.15 213.99 226.51
  A 1.69 1.68 -88.0 0 0 212.29 224.68
  C 201.74 224.86 193.41 228.49 183.71 231.94
  A 0.41 0.40 -14.1 0 1 183.17 231.62
  C 182.57 227.40 181.91 219.97 185.88 217.08
  Q 200.03 206.78 217.68 206.13
  A 0.88 0.87 72.9 0 1 218.46 206.55
  Q 219.85 208.83 219.99 211.51
  A 0.41 0.40 73.8 0 0 220.59 211.84
  Q 226.67 208.47 229.91 202.30
  A 1.36 1.32 -41.5 0 0 229.99 201.26
  L 228.61 197.27
  A 0.83 0.81 -8.2 0 0 227.86 196.72
  C 209.94 196.05 193.65 205.19 181.19 217.29
  C 178.37 220.02 176.20 223.88 173.71 227.17
  C 168.22 234.45 164.76 242.06 161.50 250.54
  Q 160.73 252.54 159.28 250.96
  L 156.04 247.41
  A 0.84 0.84 0.0 0 1 155.96 246.39
  Q 167.82 228.23 164.49 206.97
  C 163.80 202.53 162.22 191.98 156.21 191.67
  Q 141.67 190.91 129.50 200.79"
/>
<path stroke="#e2e4e6" vector-effect="non-scaling-stroke" d="
  M 160.94 180.89
  Q 164.24 185.06 169.47 186.41
  C 175.24 187.90 174.81 193.33 178.32 197.37
  C 180.44 199.80 183.34 200.21 186.24 201.33
  Q 186.73 201.52 187.08 201.92
  L 188.43 203.47
  A 0.45 0.45 0.0 0 0 189.11 203.47
  L 190.86 201.43
  A 1.02 1.01 28.9 0 1 191.92 201.13
  L 196.99 202.66
  A 0.86 0.86 0.0 0 0 198.10 201.89
  C 198.38 196.95 195.91 193.54 192.50 190.22
  Q 190.97 188.73 190.99 186.59
  Q 191.05 182.24 189.34 178.26
  A 1.66 1.62 -52.6 0 1 189.23 177.34
  L 189.80 174.18
  A 1.44 1.40 34.9 0 0 189.61 173.20
  L 186.25 167.71"
/>
<path stroke="#b9bec2" vector-effect="non-scaling-stroke" d="
  M 342.02 171.04
  Q 341.37 166.06 339.94 161.40
  Q 339.35 159.51 337.74 153.42
  Q 336.63 149.22 334.52 145.43"
/>
<path stroke="#e2e4e6" vector-effect="non-scaling-stroke" d="
  M 272.21 136.75
  Q 270.54 135.16 269.70 133.00
  C 269.03 131.27 268.09 130.28 266.23 130.65
  A 0.79 0.77 -23.7 0 1 265.46 130.36
  Q 263.18 127.32 259.29 128.00"
/>
<path stroke="#e2e4e6" vector-effect="non-scaling-stroke" d="
  M 273.50 131.54
  Q 271.14 130.59 270.95 128.01
  A 1.70 1.68 25.6 0 0 270.63 127.12
  Q 266.70 121.65 260.04 120.25"
/>
<path stroke="#e2e4e6" vector-effect="non-scaling-stroke" d="
  M 252.00 110.79
  L 244.63 111.37
  A 1.36 1.35 61.2 0 1 243.71 111.10
  L 239.57 107.87
  A 0.96 0.95 57.3 0 0 238.77 107.69
  C 236.69 108.13 235.24 107.07 233.29 107.50"
/>
<path stroke="#e2e4e6" vector-effect="non-scaling-stroke" d="
  M 230.04 106.75
  C 228.53 104.83 226.42 108.16 225.68 109.17
  A 1.63 1.63 0.0 0 1 224.01 109.80
  Q 221.15 109.15 218.83 111.08
  A 1.51 1.49 25.3 0 1 217.89 111.41
  L 211.09 111.41
  Q 210.64 111.41 210.25 111.63
  L 208.29 112.75"
/>
<path stroke="#bec2c6" vector-effect="non-scaling-stroke" d="
  M 113.71 75.00
  Q 111.14 76.90 107.67 77.31
  A 0.51 0.51 0.0 0 0 107.22 77.87
  Q 107.85 84.33 104.11 89.56
  A 1.82 1.82 0.0 0 0 103.76 90.50
  L 103.69 91.47
  A 0.41 0.41 0.0 0 0 104.09 91.92
  Q 105.03 91.92 105.50 92.71"
/>
<path stroke="#bec2c6" vector-effect="non-scaling-stroke" d="
  M 92.29 117.25
  C 95.03 119.80 89.68 121.99 88.10 122.94
  A 1.01 0.99 -12.8 0 0 87.61 123.70
  C 86.82 131.03 85.55 141.41 81.38 147.68
  A 0.52 0.52 0.0 0 0 81.49 148.36
  Q 83.77 150.24 84.60 153.01
  A 0.76 0.76 0.0 0 1 84.18 153.93
  L 83.24 154.35
  A 0.66 0.66 0.0 0 0 82.99 155.35
  L 84.28 157.01
  A 1.68 1.63 25.1 0 1 84.63 157.93
  C 84.86 161.66 86.07 165.63 85.02 169.26
  Q 83.79 173.48 83.20 177.91
  A 1.35 1.33 -59.4 0 0 83.44 178.87
  Q 86.51 183.13 85.96 188.41
  A 1.29 1.28 -60.7 0 0 86.21 189.31
  C 88.00 191.75 92.63 191.05 91.46 195.37
  A 1.56 1.56 0.0 0 0 91.52 196.37
  L 94.46 203.46
  A 0.98 0.98 0.0 0 1 94.46 204.20
  Q 92.73 208.33 95.51 211.45
  A 0.81 0.81 0.0 0 1 95.60 212.40
  Q 94.31 214.58 96.39 215.96
  A 0.67 0.67 0.0 0 1 96.56 216.91
  L 95.78 217.96
  A 0.36 0.36 0.0 0 0 95.91 218.49
  L 101.24 221.02
  A 1.84 1.83 -66.4 0 1 102.15 223.35
  C 101.87 224.06 100.44 227.54 100.91 228.28
  A 0.70 0.69 68.9 0 0 101.62 228.60
  L 103.60 228.23
  Q 104.58 228.05 104.18 228.96
  Q 102.11 233.67 104.22 238.49
  A 0.95 0.93 87.0 0 0 104.80 239.02
  L 109.52 240.48
  A 0.95 0.93 -88.0 0 1 110.16 241.18
  L 111.11 245.56
  A 1.27 1.26 14.4 0 0 111.53 246.26
  Q 114.66 248.88 118.31 249.63"
/>
<path stroke="#6b6e6f" vector-effect="non-scaling-stroke" d="
  M 118.31 249.63
  L 119.28 257.71
  Q 119.51 259.61 117.92 260.67
  Q 113.42 263.67 109.79 268.00"
/>
<path stroke="#e2e4e6" vector-effect="non-scaling-stroke" d="
  M 248.71 121.75
  Q 243.84 121.20 241.44 119.31
  Q 237.29 116.06 233.04 118.25"
/>
<path stroke="#b9bec2" vector-effect="non-scaling-stroke" d="
  M 345.50 112.71
  Q 338.29 110.81 331.90 110.96
  Q 328.83 111.03 327.97 113.98
  Q 325.49 122.55 329.57 130.42
  A 0.75 0.73 53.3 0 1 329.46 131.25
  C 325.95 135.01 330.19 136.90 333.13 137.82
  A 0.18 0.17 9.7 0 1 333.25 137.98
  L 333.25 138.28
  A 0.50 0.49 -2.7 0 1 332.81 138.76
  L 332.50 138.79"
/>
<path stroke="#5c5f60" vector-effect="non-scaling-stroke" d="
  M 303.46 243.25
  L 302.60 240.30
  A 0.65 0.65 0.0 0 0 301.95 239.83
  Q 294.51 240.07 287.25 241.79"
/>
<path stroke="#67696b" vector-effect="non-scaling-stroke" d="
  M 287.25 241.79
  Q 284.21 242.18 279.25 243.50
  Q 275.42 244.51 276.29 248.50"
/>
<path stroke="#5c5f60" vector-effect="non-scaling-stroke" d="
  M 276.29 248.50
  Q 276.16 255.06 281.96 257.43"
/>
<path stroke="#5c5f60" vector-effect="non-scaling-stroke" d="
  M 270.25 266.21
  Q 267.31 263.80 266.52 259.97
  A 0.30 0.30 0.0 0 0 266.04 259.80
  C 264.07 261.44 262.55 263.54 260.06 264.06
  Q 255.13 265.10 252.32 260.62"
/>
<path stroke="#67696b" vector-effect="non-scaling-stroke" d="
  M 252.32 260.62
  Q 248.76 252.97 248.00 247.24
  Q 245.74 230.32 244.84 213.92
  Q 244.76 212.46 243.74 213.51
  C 236.85 220.67 230.16 226.82 228.97 236.76
  C 227.74 247.17 226.62 258.83 241.20 258.79
  C 242.86 258.79 244.52 257.82 246.53 258.20
  A 0.36 0.36 0.0 0 1 246.78 258.74
  Q 244.42 262.68 240.75 265.29"
/>
<path stroke="#5c5f60" vector-effect="non-scaling-stroke" d="
  M 240.75 265.29
  Q 233.47 270.88 224.93 267.63"
/>
<path stroke="#67696b" vector-effect="non-scaling-stroke" d="
  M 224.93 267.63
  Q 221.98 265.78 219.79 263.23
  A 0.64 0.64 0.0 0 0 219.02 263.07
  C 211.19 266.95 206.88 269.19 199.71 270.75"
/>
<path stroke="#5c5f60" vector-effect="non-scaling-stroke" d="
  M 199.71 270.75
  L 178.52 270.92
  Q 177.48 270.93 178.09 270.09
  Q 180.98 266.05 185.00 262.79"
/>
<path stroke="#5c5f60" vector-effect="non-scaling-stroke" d="
  M 182.75 262.46
  L 175.97 269.27
  Q 173.90 271.35 173.38 268.46
  L 172.02 260.86"
/>
<path stroke="#6b6e6f" vector-effect="non-scaling-stroke" d="
  M 172.02 260.86
  Q 170.80 252.65 171.00 244.62
  A 0.39 0.39 0.0 0 0 170.57 244.22
  C 169.99 244.28 165.55 256.13 165.04 257.50"
/>
<path stroke="#5c5f60" vector-effect="non-scaling-stroke" d="
  M 165.04 257.50
  Q 163.03 261.95 162.98 265.26
  C 162.94 268.12 163.38 269.86 161.74 272.25
  Q 158.83 276.48 154.44 279.50"
/>
<path stroke="#5c5f60" vector-effect="non-scaling-stroke" d="
  M 152.96 278.00
  Q 153.70 267.24 148.03 258.20
  A 0.86 0.86 0.0 0 0 146.71 258.03
  L 136.25 267.96"
/>
<path stroke="#b9bec2" vector-effect="non-scaling-stroke" d="
  M 276.29 248.50
  Q 277.83 249.32 279.27 248.85
  A 0.60 0.59 -13.7 0 0 279.68 248.19
  L 279.46 246.85
  A 0.66 0.65 77.7 0 1 279.92 246.13
  C 281.70 245.59 287.85 244.40 287.25 241.79"
/>
<path stroke="#b9bec2" vector-effect="non-scaling-stroke" d="
  M 199.71 270.75
  L 199.76 271.21
  A 0.68 0.68 0.0 0 0 200.16 271.76
  Q 207.85 275.22 214.19 273.46
  Q 217.91 272.43 224.93 267.63"
/>
<path stroke="#67696b" vector-effect="non-scaling-stroke" d="
  M 233.75 29.54
  C 231.41 30.52 230.14 31.71 229.93 34.44
  Q 228.40 54.22 229.10 68.93
  C 229.41 75.40 233.32 83.70 240.82 84.26
  A 0.48 0.47 15.6 0 1 241.21 84.94
  C 239.29 88.75 232.91 96.27 227.98 93.54
  Q 222.50 90.51 220.66 84.37
  A 0.65 0.64 59.5 0 0 219.60 84.09
  L 213.56 89.93
  Q 211.96 91.48 209.77 91.91
  C 204.27 92.98 192.83 92.34 191.96 84.76
  C 189.56 63.74 207.50 48.00 220.45 34.88
  A 1.34 1.34 0.0 0 0 220.84 34.01
  L 221.21 29.00"
/>
<path stroke="#67696b" vector-effect="non-scaling-stroke" d="
  M 260.04 31.75
  C 259.62 47.63 261.46 59.47 263.90 80.15
  A 1.42 1.40 59.0 0 1 263.67 81.10
  Q 260.07 86.41 254.66 89.84
  A 0.40 0.40 0.0 0 1 254.05 89.56
  C 251.50 71.53 249.52 55.10 249.71 37.48
  C 249.77 32.24 251.41 29.18 255.56 26.44
  Q 255.96 26.17 255.52 26.35
  Q 250.22 28.50 245.44 32.69
  Q 244.30 33.69 242.53 33.95
  A 0.37 0.37 0.0 0 1 242.11 33.51
  Q 242.22 32.97 242.50 32.54"
/>
<path stroke="#b9bec2" vector-effect="non-scaling-stroke" d="
  M 252.32 260.62
  Q 249.75 260.51 248.29 261.54
  Q 246.68 262.68 245.88 264.99
  A 0.99 0.98 -89.3 0 1 245.24 265.62
  L 241.86 266.70
  A 0.81 0.80 -30.6 0 1 241.02 266.49
  Q 240.56 266.02 240.75 265.29"
/>
<path stroke="#bec2c6" vector-effect="non-scaling-stroke" d="
  M 172.02 260.86
  Q 169.72 259.11 167.07 258.58
  Q 166.59 258.49 166.17 258.22
  L 165.04 257.50"
/>
<path stroke="#5c5f60" vector-effect="non-scaling-stroke" d="
  M 169.21 38.75
  C 164.95 44.67 159.78 52.85 158.80 60.15"
/>
<path stroke="#6b6e6f" vector-effect="non-scaling-stroke" d="
  M 158.80 60.15
  C 158.19 68.91 159.17 76.03 165.63 81.39
  Q 169.70 84.75 173.31 81.31
  C 182.46 72.61 196.76 48.42 191.29 35.75"
/>
<path stroke="#848584" vector-effect="non-scaling-stroke" d="
  M 191.29 35.75
  C 189.63 31.54 184.54 30.14 180.25 29.96"
/>
<path stroke="#6b6e6f" vector-effect="non-scaling-stroke" d="
  M 180.25 29.96
  C 174.04 28.69 171.84 34.71 169.21 38.75"
/>
<path stroke="#e6e8ea" vector-effect="non-scaling-stroke" d="
  M 180.25 29.96
  C 177.84 31.19 177.80 36.02 180.65 34.97
  A 1.33 1.33 0.0 0 1 181.57 34.97
  Q 186.17 36.60 191.06 36.19
  A 0.22 0.20 -86.3 0 0 191.25 36.01
  L 191.29 35.75"
/>
<path stroke="#bec2c6" vector-effect="non-scaling-stroke" d="
  M 158.80 60.15
  L 163.44 60.02
  A 1.68 1.63 -63.6 0 0 164.35 59.70
  C 167.80 57.16 170.72 53.66 175.37 53.40
  A 0.65 0.65 0.0 0 0 175.99 52.74
  Q 175.97 51.29 175.25 49.98
  Q 173.73 47.22 176.74 46.27
  C 184.35 43.87 180.23 35.26 176.56 38.31
  Q 175.32 39.34 173.73 39.60
  Q 169.62 40.25 169.21 38.75"
/>
<path stroke="#6b6e6f" vector-effect="non-scaling-stroke" d="
  M 170.70 30.42
  Q 171.00 30.03 170.51 30.02
  C 165.62 29.95 161.85 38.67 161.28 42.48
  Q 161.22 42.90 161.48 42.56
  L 170.70 30.42"
/>
<path stroke="#6b6e6f" vector-effect="non-scaling-stroke" d="
  M 129.46 104.25
  Q 130.43 106.71 129.58 109.10
  A 0.43 0.43 0.0 0 0 129.88 109.67
  C 135.55 111.10 136.95 117.71 135.22 122.53
  Q 135.02 123.10 135.57 122.86
  Q 136.01 122.66 136.36 122.10
  C 140.85 114.92 142.70 101.56 134.38 96.13"
/>
<path stroke="#5c5f60" vector-effect="non-scaling-stroke" d="
  M 134.38 96.13
  C 133.22 95.38 131.55 94.68 130.19 95.40
  C 126.64 97.30 128.37 101.46 129.46 104.25"
/>
<path stroke="#bec2c6" vector-effect="non-scaling-stroke" d="
  M 134.38 96.13
  Q 133.47 97.70 133.95 99.58
  A 1.21 1.18 -36.9 0 1 133.81 100.49
  Q 132.20 103.09 129.46 104.25"
/>
<path stroke="#5c5f60" vector-effect="non-scaling-stroke" d="
  M 97.10 102.86
  C 96.14 109.90 111.32 106.93 114.36 106.43
  Q 116.83 106.03 116.25 103.59
  L 114.55 96.46
  A 0.56 0.56 0.0 0 0 113.81 96.07
  L 97.77 102.02
  A 1.06 1.05 83.9 0 0 97.10 102.86"
/>
<path stroke="#848584" vector-effect="non-scaling-stroke" d="
  M 191.50 128.46
  Q 195.34 130.66 196.34 134.57
  Q 196.75 136.17 197.21 134.58
  Q 198.23 131.07 197.96 127.50"
/>
<path stroke="#6b6e6f" vector-effect="non-scaling-stroke" d="
  M 197.96 127.50
  L 197.97 122.20
  Q 197.98 119.68 195.78 120.90
  L 184.38 127.23
  Q 183.82 127.54 184.46 127.62
  L 191.50 128.46"
/>
<path stroke="#e6e8ea" vector-effect="non-scaling-stroke" d="
  M 197.96 127.50
  L 197.75 125.81
  A 0.53 0.52 83.2 0 0 197.18 125.35
  Q 193.65 125.67 191.50 128.46"
/>
<path stroke="#6b6e6f" vector-effect="non-scaling-stroke" d="
  M 149.65 128.74
  C 153.77 128.99 156.99 131.86 158.23 135.55
  A 0.28 0.28 0.0 0 0 158.50 135.75
  L 158.76 135.75
  A 0.23 0.23 0.0 0 0 159.00 135.52
  L 159.00 122.40
  Q 158.99 120.73 157.69 121.77
  L 149.51 128.31
  Q 149.01 128.71 149.65 128.74"
/>
<path stroke="#848584" vector-effect="non-scaling-stroke" d="
  M 169.04 152.00
  L 170.12 170.11
  A 0.47 0.47 0.0 0 0 170.66 170.55
  C 176.61 169.62 184.71 166.62 187.79 160.75"
/>
<path stroke="#6b6e6f" vector-effect="non-scaling-stroke" d="
  M 187.79 160.75
  C 190.23 155.51 187.69 146.20 185.29 141.75"
/>
<path stroke="#848584" vector-effect="non-scaling-stroke" d="
  M 185.29 141.75
  L 183.53 138.86"
/>
<path stroke="#6b6e6f" vector-effect="non-scaling-stroke" d="
  M 183.53 138.86
  Q 176.53 136.51 169.77 139.91
  A 1.01 0.96 -9.6 0 0 169.24 140.62
  Q 168.26 146.32 169.04 152.00"
/>
<path stroke="#e6e8ea" vector-effect="non-scaling-stroke" d="
  M 183.53 138.86
  Q 176.75 143.06 172.20 150.95
  Q 171.26 152.59 169.04 152.00"
/>
<path stroke="#e6e8ea" vector-effect="non-scaling-stroke" d="
  M 185.29 141.75
  Q 183.97 144.64 184.23 145.75
  Q 185.70 152.19 183.21 158.37
  A 0.88 0.87 19.4 0 0 183.77 159.53
  L 187.79 160.75"
/>
<path stroke="#5c5f60" vector-effect="non-scaling-stroke" d="
  M 120.25 141.79
  Q 114.48 143.95 109.78 147.92
  A 2.20 2.17 68.0 0 0 109.01 149.77
  L 110.23 163.83
  Q 110.28 164.40 110.66 163.97
  L 119.96 153.50"
/>
<path stroke="#6b6e6f" vector-effect="non-scaling-stroke" d="
  M 119.96 153.50
  L 133.65 139.61
  Q 134.00 139.25 133.50 139.29
  Q 126.75 139.87 120.25 141.79"
/>
<path stroke="#bec2c6" vector-effect="non-scaling-stroke" d="
  M 119.96 153.50
  Q 118.12 147.59 120.25 141.79"
/>
<path stroke="#5c5f60" vector-effect="non-scaling-stroke" d="
  M 119.96 158.00
  C 113.68 164.78 108.16 170.34 112.19 178.41
  A 0.93 0.92 79.2 0 0 112.92 178.91
  Q 117.70 179.35 122.29 178.00"
/>
<path stroke="#6b6e6f" vector-effect="non-scaling-stroke" d="
  M 122.29 178.00
  C 129.58 176.57 138.31 172.98 143.35 167.01
  C 148.98 160.35 154.15 140.14 140.63 139.00
  Q 138.56 138.83 137.11 140.32
  L 119.96 158.00"
/>
<path stroke="#bec2c6" vector-effect="non-scaling-stroke" d="
  M 122.29 178.00
  Q 122.21 174.44 121.96 170.83
  C 121.71 167.12 123.64 165.13 121.09 161.24
  A 1.52 1.52 0.0 0 1 120.84 160.34
  Q 120.91 158.94 119.96 158.00"
/>
<path stroke="#67696b" vector-effect="non-scaling-stroke" d="
  M 307.71 167.45
  L 307.27 168.45
  Q 306.90 169.29 307.47 168.57
  C 312.62 162.07 318.81 157.64 324.53 151.82
  A 1.11 1.10 65.4 0 0 324.85 150.95
  C 324.57 147.47 310.75 149.48 308.13 149.77
  A 0.92 0.92 0.0 0 0 307.32 150.81
  Q 308.39 158.67 307.92 166.60
  Q 307.90 167.04 307.71 167.45"
/>
<path stroke="#67696b" vector-effect="non-scaling-stroke" d="
  M 157.69 153.89
  L 154.47 158.91
  A 1.74 1.67 60.2 0 0 154.21 159.95
  Q 154.57 164.90 157.87 168.55
  Q 159.08 169.88 159.00 168.08
  L 158.35 154.06
  Q 158.29 152.96 157.69 153.89"
/>
<path stroke="#67696b" vector-effect="non-scaling-stroke" d="
  M 204.94 80.06
  Q 211.49 84.07 219.27 81.90
  A 0.56 0.55 78.3 0 0 219.67 81.28
  C 219.40 79.60 219.06 77.98 219.03 76.29
  Q 218.75 58.31 220.09 40.25
  Q 220.12 39.75 219.74 40.07
  Q 211.77 46.51 207.11 53.89
  C 204.00 58.82 197.87 75.74 204.94 80.06"
/>
<path stroke="#e2e4e6" vector-effect="non-scaling-stroke" d="
  M 249.56 179.69
  Q 248.50 179.15 247.24 178.91
  Q 246.70 178.81 247.04 179.24
  C 248.48 181.09 252.11 181.32 254.21 181.97
  Q 255.38 182.33 254.95 181.18
  C 253.73 177.93 251.30 180.57 249.56 179.69"
/>
<path stroke="#5c5f60" vector-effect="non-scaling-stroke" d="
  M 127.44 206.47
  Q 126.10 228.01 129.62 249.97
  A 1.26 1.26 0.0 0 0 131.52 250.84
  Q 139.90 245.68 149.74 245.95
  A 1.19 1.17 20.5 0 0 150.66 245.54
  Q 151.40 244.66 151.27 244.02"
/>
<path stroke="#6b6e6f" vector-effect="non-scaling-stroke" d="
  M 151.27 244.02
  Q 155.90 233.03 154.98 221.81
  C 154.60 217.18 154.14 207.32 149.56 203.39
  C 144.57 199.12 132.62 203.49 127.44 206.47"
/>
<path stroke="#bec2c6" vector-effect="non-scaling-stroke" d="
  M 151.27 244.02
  Q 147.95 238.51 142.97 234.81
  A 1.18 1.16 15.3 0 1 142.51 234.02
  C 142.19 231.49 140.45 229.71 138.30 226.92
  A 1.02 1.00 -54.8 0 1 138.15 225.99
  L 138.74 224.24
  A 1.16 1.16 0.0 0 0 138.63 223.27
  Q 135.94 218.86 133.94 214.10
  C 132.47 210.57 130.25 208.84 127.44 206.47"
/>
<path stroke="#5c5f60" vector-effect="non-scaling-stroke" d="
  M 143.97 256.54
  Q 145.10 255.44 143.53 255.59
  L 132.57 256.61
  Q 130.47 256.81 131.08 258.84
  L 132.98 265.18
  A 0.95 0.95 0.0 0 0 134.55 265.59
  L 143.97 256.54"
/>
<path stroke="#6b6e6f" vector-effect="non-scaling-stroke" d="
  M 114.60 273.00
  L 120.56 272.85
  A 1.40 1.40 0.0 0 0 121.89 271.16
  L 120.27 263.61
  A 0.50 0.50 0.0 0 0 119.57 263.26
  Q 113.85 265.83 113.72 272.12
  A 0.86 0.86 0.0 0 0 114.60 273.00"
/>
<path stroke="#67696b" vector-effect="non-scaling-stroke" d="
  M 298.40 205.39
  C 288.48 213.56 280.77 223.52 277.62 236.13
  Q 277.50 236.61 277.97 236.46
  Q 288.75 232.92 299.92 230.92
  A 0.52 0.52 0.0 0 0 300.34 230.33
  L 297.05 209.97
  A 1.53 1.49 -36.1 0 1 297.22 208.98
  L 298.98 205.87
  Q 299.98 204.09 298.40 205.39"
/>
</g>
<path fill="#ffffff" d="
  M 0.00 0.00
  L 447.00 0.00
  L 447.00 330.00
  L 0.00 330.00
  L 0.00 0.00
  Z
  M 147.60 11.41
  Q 144.50 9.62 139.94 10.18
  Q 122.33 12.31 109.85 23.11
  C 109.00 23.84 105.42 27.44 106.04 28.55
  A 0.50 0.49 -30.7 0 0 106.74 28.72
  Q 113.74 24.19 121.75 21.96
  L 122.29 22.25
  C 117.85 25.76 113.21 28.12 113.71 35.00
  Q 110.87 37.30 110.53 40.67
  C 110.17 44.28 109.85 46.72 105.73 46.39
  A 0.74 0.74 0.0 0 0 105.01 46.80
  C 103.00 50.96 99.57 53.19 97.70 57.70
  Q 97.26 58.74 95.34 59.16
  A 1.11 1.11 0.0 0 0 94.60 59.72
  L 93.72 61.36
  A 1.48 1.48 0.0 0 0 93.58 62.33
  Q 94.37 66.37 91.54 69.40
  A 1.38 1.36 -24.0 0 0 91.16 70.37
  L 91.17 72.52
  A 0.73 0.73 0.0 0 1 90.82 73.16
  Q 86.81 75.67 85.48 80.22
  Q 84.75 82.71 82.56 84.11
  Q 78.79 86.51 80.27 90.72
  Q 80.44 91.20 80.40 91.70
  Q 79.94 97.78 77.52 103.34
  A 0.75 0.75 0.0 0 0 77.87 104.31
  L 79.05 104.91
  A 0.70 0.69 20.4 0 1 79.41 105.68
  C 78.63 109.11 78.53 114.50 76.13 117.05
  A 1.14 1.14 0.0 0 0 75.82 117.88
  L 76.07 123.56
  A 1.22 1.21 -21.9 0 1 75.66 124.51
  L 73.23 126.63
  A 1.07 1.05 -20.6 0 0 72.87 127.40
  Q 72.75 133.63 70.23 139.30
  C 69.22 141.56 69.98 143.25 72.60 143.18
  Q 73.69 143.16 73.05 144.04
  Q 69.93 148.28 71.68 153.28
  A 1.51 1.49 44.7 0 1 71.69 154.22
  Q 70.14 159.03 73.24 163.20
  A 0.88 0.87 39.4 0 1 73.33 164.09
  C 72.13 166.61 68.18 171.71 71.45 173.83
  A 0.64 0.63 28.1 0 1 71.69 174.60
  L 71.10 176.00
  Q 70.90 176.50 70.95 177.03
  Q 71.43 181.83 69.49 186.21
  A 0.75 0.75 0.0 0 0 69.70 187.09
  L 71.39 188.48
  Q 71.73 188.76 71.95 189.13
  L 75.88 195.83
  A 1.54 1.51 35.1 0 1 76.07 196.85
  Q 75.49 200.31 76.20 203.69
  A 1.70 1.66 -76.2 0 0 76.73 204.59
  Q 80.05 207.51 81.41 211.72
  C 82.00 213.53 81.18 215.12 80.85 216.96
  A 1.76 1.70 40.0 0 0 80.95 217.92
  Q 86.04 229.96 92.96 241.05
  Q 93.68 242.20 95.44 249.16
  A 1.06 1.04 4.1 0 0 96.08 249.88
  L 98.24 250.74
  A 0.97 0.96 -86.5 0 1 98.84 251.42
  L 99.76 255.27
  A 1.25 1.24 -84.7 0 0 100.47 256.13
  Q 101.38 256.53 101.68 257.39
  A 1.73 1.73 0.0 0 1 101.72 258.32
  L 101.24 260.22
  A 0.86 0.85 -68.0 0 0 101.63 261.16
  Q 106.28 263.97 109.79 268.00
  C 106.31 272.67 102.98 276.03 104.20 282.51
  A 0.63 0.62 -4.0 0 0 104.79 283.02
  Q 112.63 283.33 119.44 279.45
  Q 125.66 285.70 131.79 291.96
  C 141.09 301.45 151.73 309.55 164.39 312.25
  Q 173.68 314.23 180.45 318.54
  Q 183.28 320.33 185.41 318.81
  A 0.66 0.66 0.0 0 1 186.20 318.82
  Q 188.02 320.19 189.56 320.39
  C 203.58 322.26 216.84 321.25 232.02 318.24
  Q 241.02 316.45 250.24 317.24
  A 2.02 1.94 -54.1 0 0 251.28 317.05
  L 256.77 314.38
  A 1.63 1.60 35.1 0 1 257.68 314.23
  Q 260.35 314.54 262.65 313.21
  A 0.54 0.54 0.0 0 0 262.74 312.34
  L 261.59 311.31
  A 0.56 0.56 0.0 0 1 261.51 310.56
  Q 261.76 310.22 262.26 310.22
  Q 268.01 310.23 271.41 306.33
  A 0.97 0.96 -66.1 0 1 272.23 306.01
  C 275.88 306.36 279.18 305.60 279.22 301.18
  Q 279.23 299.85 280.34 300.58
  C 287.86 305.52 291.00 297.15 297.25 294.39
  C 303.33 291.71 309.27 289.25 315.19 285.87
  C 317.89 284.33 323.28 282.53 324.49 279.35
  Q 324.66 278.88 325.04 278.56
  C 330.38 273.92 334.50 271.30 338.48 264.24
  C 339.60 262.25 341.45 261.17 342.64 259.00
  A 1.91 1.90 -1.5 0 1 343.30 258.31
  Q 353.96 251.89 361.70 242.25
  C 363.13 240.46 365.81 239.83 365.32 236.49
  A 1.01 1.00 62.7 0 1 365.59 235.63
  C 375.70 224.94 383.80 211.72 386.57 197.16
  Q 387.87 190.33 389.66 183.60
  A 1.76 1.74 44.7 0 0 389.65 182.68
  L 388.90 180.00
  A 0.69 0.69 0.0 0 1 389.46 179.13
  L 390.54 178.97
  A 0.92 0.91 7.2 0 0 391.23 178.44
  L 392.28 176.03
  A 0.65 0.65 0.0 0 0 392.09 175.27
  C 390.03 173.56 390.89 167.01 391.49 163.90
  A 1.10 1.09 27.8 0 0 391.17 162.89
  L 389.29 161.08
  A 0.63 0.63 0.0 0 1 389.33 160.13
  Q 391.96 158.05 391.47 154.45
  A 0.44 0.44 0.0 0 0 390.86 154.11
  L 388.65 155.06
  Q 387.46 155.57 388.01 154.39
  L 390.22 149.74
  A 0.91 0.89 -54.5 0 0 390.06 148.74
  L 388.23 146.83
  A 0.93 0.93 0.0 0 1 388.02 145.86
  L 388.33 145.01
  A 0.59 0.59 0.0 0 0 387.94 144.23
  L 383.24 142.84
  A 0.72 0.71 -70.0 0 1 382.79 141.87
  C 384.39 138.22 384.83 133.73 379.83 132.78
  A 0.69 0.68 -88.9 0 1 379.28 132.20
  C 378.51 126.58 373.66 122.80 377.70 117.22
  A 0.69 0.68 -47.3 0 0 377.67 116.37
  Q 373.55 111.58 371.92 105.45
  Q 371.50 103.86 369.92 103.39
  Q 365.08 101.97 361.35 98.65
  Q 359.57 97.06 357.94 98.79
  Q 356.67 100.13 354.25 101.04
  C 348.47 95.86 329.61 101.15 322.94 103.79
  Q 322.23 100.50 323.32 97.21
  A 0.98 0.96 34.6 0 0 323.14 96.28
  Q 321.41 94.24 318.85 93.33
  A 1.28 1.27 27.3 0 1 318.23 91.39
  L 319.95 88.97
  A 0.58 0.57 -50.1 0 0 319.89 88.23
  Q 313.58 81.93 315.64 73.28
  A 1.05 1.02 -58.6 0 0 315.43 72.36
  Q 311.51 67.58 310.20 61.54
  Q 309.76 59.54 307.75 59.20
  C 302.53 58.29 298.77 54.89 294.32 52.20
  Q 292.02 50.81 292.18 48.12
  Q 292.38 44.76 289.15 44.03
  A 0.97 0.96 -3.8 0 1 288.43 43.40
  Q 286.78 38.68 282.03 38.16
  Q 277.44 37.66 274.61 35.15
  A 1.88 1.83 11.8 0 1 274.07 34.35
  Q 273.07 31.27 269.73 31.70
  Q 264.31 32.39 260.04 31.75
  L 259.84 24.91
  A 0.73 0.73 0.0 0 1 260.29 24.22
  Q 274.50 18.47 289.84 18.70
  Q 292.12 18.74 294.03 19.99
  C 301.12 24.63 302.54 30.85 304.31 38.84
  Q 304.52 39.77 305.21 39.11
  L 312.65 31.89
  Q 313.92 30.66 313.80 28.90
  C 313.27 21.09 308.15 9.42 299.25 8.95
  C 279.34 7.89 255.92 16.51 242.50 32.54
  Q 238.28 32.83 234.66 30.84
  A 1.55 1.48 3.9 0 1 234.02 30.14
  L 233.75 29.54
  C 239.06 26.51 246.25 23.04 248.86 17.18
  A 0.31 0.31 0.0 0 0 248.55 16.75
  C 243.49 17.25 234.61 24.45 231.08 27.20
  Q 230.80 27.42 230.81 27.06
  L 231.01 19.55
  A 0.48 0.47 -11.8 0 0 230.33 19.11
  Q 223.80 22.32 221.21 29.00
  L 219.88 28.64
  A 0.91 0.90 -56.9 0 0 219.05 28.82
  C 216.33 31.13 212.37 30.79 209.04 29.79
  C 206.39 28.99 203.79 28.53 203.57 32.11
  C 203.51 33.00 203.17 33.29 202.29 33.00
  C 203.10 19.06 187.42 19.05 177.53 20.37
  C 174.91 15.24 169.44 10.02 162.94 11.67
  A 2.81 2.79 -32.9 0 1 160.52 11.16
  L 158.03 9.20
  A 1.16 1.16 0.0 0 0 157.04 8.98
  Q 154.83 9.51 154.38 11.77
  A 0.71 0.71 0.0 0 1 153.28 12.21
  Q 150.51 10.27 147.60 11.41
  Z"
/>
<path fill="#cdd1d4" d="
  M 177.53 20.37
  Q 158.22 29.70 151.46 50.00
  L 148.04 49.50
  C 151.24 38.41 153.81 21.87 147.60 11.41
  Q 150.51 10.27 153.28 12.21
  A 0.71 0.71 0.0 0 0 154.38 11.77
  Q 154.83 9.51 157.04 8.98
  A 1.16 1.16 0.0 0 1 158.03 9.20
  L 160.52 11.16
  A 2.81 2.79 -32.9 0 0 162.94 11.67
  C 169.44 10.02 174.91 15.24 177.53 20.37
  Z"
/>
<path fill="#090a09" d="
  M 260.04 31.75
  C 259.62 47.63 261.46 59.47 263.90 80.15
  A 1.42 1.40 59.0 0 1 263.67 81.10
  Q 260.07 86.41 254.66 89.84
  A 0.40 0.40 0.0 0 1 254.05 89.56
  C 251.50 71.53 249.52 55.10 249.71 37.48
  C 249.77 32.24 251.41 29.18 255.56 26.44
  Q 255.96 26.17 255.52 26.35
  Q 250.22 28.50 245.44 32.69
  Q 244.30 33.69 242.53 33.95
  A 0.37 0.37 0.0 0 1 242.11 33.51
  Q 242.22 32.97 242.50 32.54
  C 255.92 16.51 279.34 7.89 299.25 8.95
  C 308.15 9.42 313.27 21.09 313.80 28.90
  Q 313.92 30.66 312.65 31.89
  L 305.21 39.11
  Q 304.52 39.77 304.31 38.84
  C 302.54 30.85 301.12 24.63 294.03 19.99
  Q 292.12 18.74 289.84 18.70
  Q 274.50 18.47 260.29 24.22
  A 0.73 0.73 0.0 0 0 259.84 24.91
  L 260.04 31.75
  Z"
/>
<path fill="#090a09" d="
  M 147.60 11.41
  C 153.81 21.87 151.24 38.41 148.04 49.50
  Q 143.15 66.90 136.18 83.58
  A 0.77 0.77 0.0 0 0 136.34 84.43
  Q 137.14 85.25 138.50 84.96
  L 143.20 85.84
  A 0.47 0.47 0.0 0 0 143.76 85.44
  L 145.25 75.79
  C 146.65 71.29 148.27 66.97 149.07 62.27
  Q 150.12 56.11 151.46 50.00
  Q 158.22 29.70 177.53 20.37
  C 187.42 19.05 203.10 19.06 202.29 33.00
  C 201.20 52.03 187.95 71.62 174.02 84.35
  Q 173.40 84.91 174.23 84.96
  Q 179.56 85.29 184.72 84.01
  Q 185.33 83.85 185.02 84.40
  C 182.24 89.37 176.50 95.13 170.34 94.75
  Q 160.07 94.12 149.70 93.76
  A 0.37 0.36 -7.1 0 0 149.34 94.22
  C 152.93 106.83 145.49 120.57 135.23 127.52
  A 0.87 0.86 -50.6 0 1 134.43 127.60
  L 133.40 127.19
  A 0.75 0.73 30.0 0 0 132.54 127.41
  L 129.50 131.21
  Q 129.12 131.69 129.71 131.52
  Q 134.39 130.18 139.25 129.81
  C 146.27 129.26 150.96 123.61 155.70 119.27
  Q 161.29 114.15 168.37 110.88
  A 0.43 0.43 0.0 0 1 168.98 111.27
  L 169.01 133.66
  Q 169.01 134.90 169.94 134.08
  C 172.43 131.89 208.01 103.33 208.29 112.75
  L 208.11 120.05
  Q 205.86 136.72 204.83 153.59
  C 204.38 160.94 205.99 168.55 215.39 167.40
  A 0.82 0.81 6.4 0 0 216.06 166.87
  Q 219.02 158.93 220.09 149.81
  Q 222.23 131.61 222.96 115.75
  C 223.66 111.51 227.20 109.35 230.04 106.75
  L 232.37 105.28
  A 0.44 0.43 -27.9 0 1 233.00 105.47
  Q 233.42 106.41 233.29 107.50
  L 233.04 118.25
  C 232.71 131.25 232.54 147.89 238.04 159.94
  Q 238.34 160.60 238.53 159.90
  L 248.71 121.75
  L 252.00 110.79
  C 253.50 108.00 258.97 100.91 262.41 100.99
  A 0.98 0.97 -84.1 0 1 263.34 102.14
  L 260.04 120.25
  L 259.29 128.00
  Q 258.59 141.87 259.14 155.75
  Q 259.33 160.35 263.33 162.14
  A 0.95 0.95 0.0 0 0 264.60 161.63
  Q 269.54 149.52 272.21 136.75
  L 273.50 131.54
  C 276.23 120.99 275.65 110.14 286.72 104.27
  A 0.86 0.86 0.0 0 1 287.98 105.02
  L 288.02 133.00
  Q 288.03 135.18 289.31 133.42
  Q 292.22 129.43 296.87 127.91
  A 1.40 1.40 0.0 0 0 297.63 127.31
  Q 306.92 111.88 322.94 103.79
  C 329.61 101.15 348.47 95.86 354.25 101.04
  C 359.14 106.70 353.36 111.87 349.25 115.29
  Q 348.18 116.14 346.88 116.03
  A 0.70 0.70 0.0 0 1 346.26 115.52
  L 345.50 112.71
  Q 344.12 109.50 341.25 109.23
  C 331.83 108.32 310.67 110.59 306.60 121.95
  C 304.94 126.59 305.98 134.63 306.04 140.34
  A 0.77 0.77 0.0 0 0 306.92 141.09
  Q 319.69 139.14 332.50 138.79
  Q 336.25 141.16 334.52 145.43
  C 329.04 152.21 322.76 157.42 316.38 163.13
  C 314.20 165.08 314.34 169.15 316.57 171.16
  C 321.10 175.23 336.09 172.82 342.02 171.04
  L 361.16 165.08
  Q 360.41 168.72 357.71 170.97
  C 352.09 175.49 347.21 176.69 340.96 179.00
  C 330.32 181.91 322.45 184.16 312.15 182.73
  C 304.49 181.66 303.89 178.46 305.93 171.48
  A 0.39 0.39 0.0 0 0 305.51 170.99
  Q 305.22 171.02 305.03 171.29
  Q 302.37 175.04 298.96 176.26
  A 1.39 1.38 -15.7 0 1 297.13 175.24
  L 294.63 163.24
  Q 294.15 160.90 294.17 163.29
  L 294.26 170.76
  Q 294.28 172.92 292.90 174.59
  Q 289.90 178.22 285.97 180.90
  Q 283.85 182.35 283.23 179.86
  Q 279.39 164.43 278.25 148.55
  Q 277.96 144.49 276.56 148.32
  Q 271.28 162.73 259.06 171.97
  A 3.66 3.60 26.3 0 1 256.84 172.70
  C 247.03 172.65 248.51 160.05 248.78 152.96
  A 0.15 0.13 -80.1 0 0 248.69 152.81
  L 248.43 152.73
  A 0.15 0.15 0.0 0 0 248.24 152.83
  Q 245.59 163.61 236.85 170.31
  C 230.18 175.42 226.51 167.65 225.69 162.46
  Q 225.50 161.24 224.91 162.32
  C 221.80 168.01 214.73 176.90 207.76 177.50
  C 193.41 178.75 194.89 168.54 195.00 158.76
  Q 195.01 157.81 194.37 158.52
  L 186.25 167.71
  Q 175.51 177.76 160.94 180.89
  Q 147.79 183.08 144.38 170.98
  A 0.30 0.29 -29.6 0 0 143.89 170.85
  Q 134.76 179.87 123.00 185.04
  Q 118.75 186.73 114.30 187.83
  C 110.82 188.69 108.43 191.84 106.04 194.33
  Q 104.13 196.33 103.08 193.77
  L 99.36 184.67
  A 1.50 1.50 0.0 0 1 99.30 183.69
  Q 100.70 178.79 100.60 177.74
  Q 99.50 166.12 98.98 154.39
  A 0.50 0.50 0.0 0 0 98.34 153.93
  L 93.89 155.28
  A 0.67 0.65 -22.0 0 1 93.11 154.96
  C 92.45 153.69 96.78 148.69 97.70 147.57
  A 1.33 1.28 65.7 0 0 98.00 146.73
  L 98.00 131.88
  Q 98.00 129.23 99.93 127.40
  L 106.09 121.56
  Q 107.88 119.87 107.92 122.33
  L 108.19 139.35
  A 0.85 0.84 76.6 0 0 109.40 140.10
  L 123.31 133.45
  A 1.86 1.85 3.0 0 0 124.06 132.78
  C 126.20 129.35 126.87 122.52 122.30 120.58
  C 115.13 117.56 103.52 120.57 97.00 124.11
  A 0.50 0.50 0.0 0 1 96.27 123.78
  C 95.94 122.16 99.28 118.63 100.41 117.44
  Q 100.75 117.08 100.26 117.09
  L 92.29 117.25
  Q 86.92 115.68 87.02 111.38
  C 87.21 104.07 99.92 96.00 105.50 92.71
  L 113.23 89.39
  A 0.87 0.85 81.4 0 0 113.74 88.68
  Q 114.38 81.84 113.71 75.00
  L 113.71 35.00
  C 113.21 28.12 117.85 25.76 122.29 22.25
  L 122.73 22.00
  A 0.55 0.55 0.0 0 1 123.46 22.20
  Q 124.01 23.12 124.01 23.50
  Q 123.96 45.75 124.04 68.00
  L 124.06 85.38
  A 0.67 0.67 0.0 0 0 124.77 86.05
  L 128.15 85.85
  A 0.83 0.83 0.0 0 0 128.88 85.31
  Q 134.00 71.84 137.96 58.00
  C 141.12 46.80 142.78 34.71 139.16 23.72
  C 137.13 17.57 125.95 20.38 121.75 21.96
  Q 113.74 24.19 106.74 28.72
  A 0.50 0.49 -30.7 0 1 106.04 28.55
  C 105.42 27.44 109.00 23.84 109.85 23.11
  Q 122.33 12.31 139.94 10.18
  Q 144.50 9.62 147.60 11.41
  Z
  M 169.21 38.75
  C 164.95 44.67 159.78 52.85 158.80 60.15
  C 158.19 68.91 159.17 76.03 165.63 81.39
  Q 169.70 84.75 173.31 81.31
  C 182.46 72.61 196.76 48.42 191.29 35.75
  C 189.63 31.54 184.54 30.14 180.25 29.96
  C 174.04 28.69 171.84 34.71 169.21 38.75
  Z
  M 170.70 30.42
  Q 171.00 30.03 170.51 30.02
  C 165.62 29.95 161.85 38.67 161.28 42.48
  Q 161.22 42.90 161.48 42.56
  L 170.70 30.42
  Z
  M 129.46 104.25
  Q 130.43 106.71 129.58 109.10
  A 0.43 0.43 0.0 0 0 129.88 109.67
  C 135.55 111.10 136.95 117.71 135.22 122.53
  Q 135.02 123.10 135.57 122.86
  Q 136.01 122.66 136.36 122.10
  C 140.85 114.92 142.70 101.56 134.38 96.13
  C 133.22 95.38 131.55 94.68 130.19 95.40
  C 126.64 97.30 128.37 101.46 129.46 104.25
  Z
  M 97.10 102.86
  C 96.14 109.90 111.32 106.93 114.36 106.43
  Q 116.83 106.03 116.25 103.59
  L 114.55 96.46
  A 0.56 0.56 0.0 0 0 113.81 96.07
  L 97.77 102.02
  A 1.06 1.05 83.9 0 0 97.10 102.86
  Z
  M 191.50 128.46
  Q 195.34 130.66 196.34 134.57
  Q 196.75 136.17 197.21 134.58
  Q 198.23 131.07 197.96 127.50
  L 197.97 122.20
  Q 197.98 119.68 195.78 120.90
  L 184.38 127.23
  Q 183.82 127.54 184.46 127.62
  L 191.50 128.46
  Z
  M 149.65 128.74
  C 153.77 128.99 156.99 131.86 158.23 135.55
  A 0.28 0.28 0.0 0 0 158.50 135.75
  L 158.76 135.75
  A 0.23 0.23 0.0 0 0 159.00 135.52
  L 159.00 122.40
  Q 158.99 120.73 157.69 121.77
  L 149.51 128.31
  Q 149.01 128.71 149.65 128.74
  Z
  M 169.04 152.00
  L 170.12 170.11
  A 0.47 0.47 0.0 0 0 170.66 170.55
  C 176.61 169.62 184.71 166.62 187.79 160.75
  C 190.23 155.51 187.69 146.20 185.29 141.75
  L 183.53 138.86
  Q 176.53 136.51 169.77 139.91
  A 1.01 0.96 -9.6 0 0 169.24 140.62
  Q 168.26 146.32 169.04 152.00
  Z
  M 120.25 141.79
  Q 114.48 143.95 109.78 147.92
  A 2.20 2.17 68.0 0 0 109.01 149.77
  L 110.23 163.83
  Q 110.28 164.40 110.66 163.97
  L 119.96 153.50
  L 133.65 139.61
  Q 134.00 139.25 133.50 139.29
  Q 126.75 139.87 120.25 141.79
  Z
  M 119.96 158.00
  C 113.68 164.78 108.16 170.34 112.19 178.41
  A 0.93 0.92 79.2 0 0 112.92 178.91
  Q 117.70 179.35 122.29 178.00
  C 129.58 176.57 138.31 172.98 143.35 167.01
  C 148.98 160.35 154.15 140.14 140.63 139.00
  Q 138.56 138.83 137.11 140.32
  L 119.96 158.00
  Z
  M 307.71 167.45
  L 307.27 168.45
  Q 306.90 169.29 307.47 168.57
  C 312.62 162.07 318.81 157.64 324.53 151.82
  A 1.11 1.10 65.4 0 0 324.85 150.95
  C 324.57 147.47 310.75 149.48 308.13 149.77
  A 0.92 0.92 0.0 0 0 307.32 150.81
  Q 308.39 158.67 307.92 166.60
  Q 307.90 167.04 307.71 167.45
  Z
  M 157.69 153.89
  L 154.47 158.91
  A 1.74 1.67 60.2 0 0 154.21 159.95
  Q 154.57 164.90 157.87 168.55
  Q 159.08 169.88 159.00 168.08
  L 158.35 154.06
  Q 158.29 152.96 157.69 153.89
  Z"
/>
<path fill="#090a09" d="
  M 233.75 29.54
  C 231.41 30.52 230.14 31.71 229.93 34.44
  Q 228.40 54.22 229.10 68.93
  C 229.41 75.40 233.32 83.70 240.82 84.26
  A 0.48 0.47 15.6 0 1 241.21 84.94
  C 239.29 88.75 232.91 96.27 227.98 93.54
  Q 222.50 90.51 220.66 84.37
  A 0.65 0.64 59.5 0 0 219.60 84.09
  L 213.56 89.93
  Q 211.96 91.48 209.77 91.91
  C 204.27 92.98 192.83 92.34 191.96 84.76
  C 189.56 63.74 207.50 48.00 220.45 34.88
  A 1.34 1.34 0.0 0 0 220.84 34.01
  L 221.21 29.00
  Q 223.80 22.32 230.33 19.11
  A 0.48 0.47 -11.8 0 1 231.01 19.55
  L 230.81 27.06
  Q 230.80 27.42 231.08 27.20
  C 234.61 24.45 243.49 17.25 248.55 16.75
  A 0.31 0.31 0.0 0 1 248.86 17.18
  C 246.25 23.04 239.06 26.51 233.75 29.54
  Z
  M 204.94 80.06
  Q 211.49 84.07 219.27 81.90
  A 0.56 0.55 78.3 0 0 219.67 81.28
  C 219.40 79.60 219.06 77.98 219.03 76.29
  Q 218.75 58.31 220.09 40.25
  Q 220.12 39.75 219.74 40.07
  Q 211.77 46.51 207.11 53.89
  C 204.00 58.82 197.87 75.74 204.94 80.06
  Z"
/>
<path fill="#cdd1d4" d="
  M 137.96 58.00
  C 132.32 57.42 132.15 61.55 131.09 65.54
  A 1.65 1.63 77.2 0 1 130.58 66.36
  Q 127.88 68.73 124.04 68.00
  Q 123.96 45.75 124.01 23.50
  Q 124.01 23.12 123.46 22.20
  A 0.55 0.55 0.0 0 0 122.73 22.00
  L 122.29 22.25
  L 121.75 21.96
  C 125.95 20.38 137.13 17.57 139.16 23.72
  C 142.78 34.71 141.12 46.80 137.96 58.00
  Z"
/>
<path fill="#c4c8cc" d="
  M 260.04 31.75
  Q 264.31 32.39 269.73 31.70
  Q 273.07 31.27 274.07 34.35
  A 1.88 1.83 11.8 0 0 274.61 35.15
  Q 277.44 37.66 282.03 38.16
  Q 286.78 38.68 288.43 43.40
  A 0.97 0.96 -3.8 0 0 289.15 44.03
  Q 292.38 44.76 292.18 48.12
  Q 292.02 50.81 294.32 52.20
  C 298.77 54.89 302.53 58.29 307.75 59.20
  Q 309.76 59.54 310.20 61.54
  Q 311.51 67.58 315.43 72.36
  A 1.05 1.02 -58.6 0 1 315.64 73.28
  Q 313.58 81.93 319.89 88.23
  A 0.58 0.57 -50.1 0 1 319.95 88.97
  L 318.23 91.39
  A 1.28 1.27 27.3 0 0 318.85 93.33
  Q 321.41 94.24 323.14 96.28
  A 0.98 0.96 34.6 0 1 323.32 97.21
  Q 322.23 100.50 322.94 103.79
  Q 306.92 111.88 297.63 127.31
  A 1.40 1.40 0.0 0 1 296.87 127.91
  Q 292.22 129.43 289.31 133.42
  Q 288.03 135.18 288.02 133.00
  L 287.98 105.02
  A 0.86 0.86 0.0 0 0 286.72 104.27
  C 275.65 110.14 276.23 120.99 273.50 131.54
  Q 271.14 130.59 270.95 128.01
  A 1.70 1.68 25.6 0 0 270.63 127.12
  Q 266.70 121.65 260.04 120.25
  L 263.34 102.14
  A 0.98 0.97 -84.1 0 0 262.41 100.99
  C 258.97 100.91 253.50 108.00 252.00 110.79
  L 244.63 111.37
  A 1.36 1.35 61.2 0 1 243.71 111.10
  L 239.57 107.87
  A 0.96 0.95 57.3 0 0 238.77 107.69
  C 236.69 108.13 235.24 107.07 233.29 107.50
  Q 233.42 106.41 233.00 105.47
  A 0.44 0.43 -27.9 0 0 232.37 105.28
  L 230.04 106.75
  C 228.53 104.83 226.42 108.16 225.68 109.17
  A 1.63 1.63 0.0 0 1 224.01 109.80
  Q 221.15 109.15 218.83 111.08
  A 1.51 1.49 25.3 0 1 217.89 111.41
  L 211.09 111.41
  Q 210.64 111.41 210.25 111.63
  L 208.29 112.75
  C 208.01 103.33 172.43 131.89 169.94 134.08
  Q 169.01 134.90 169.01 133.66
  L 168.98 111.27
  A 0.43 0.43 0.0 0 0 168.37 110.88
  Q 161.29 114.15 155.70 119.27
  C 150.96 123.61 146.27 129.26 139.25 129.81
  Q 134.39 130.18 129.71 131.52
  Q 129.12 131.69 129.50 131.21
  L 132.54 127.41
  A 0.75 0.73 30.0 0 1 133.40 127.19
  L 134.43 127.60
  A 0.87 0.86 -50.6 0 0 135.23 127.52
  C 145.49 120.57 152.93 106.83 149.34 94.22
  A 0.37 0.36 -7.1 0 1 149.70 93.76
  Q 160.07 94.12 170.34 94.75
  C 176.50 95.13 182.24 89.37 185.02 84.40
  Q 185.33 83.85 184.72 84.01
  Q 179.56 85.29 174.23 84.96
  Q 173.40 84.91 174.02 84.35
  C 187.95 71.62 201.20 52.03 202.29 33.00
  C 203.17 33.29 203.51 33.00 203.57 32.11
  C 203.79 28.53 206.39 28.99 209.04 29.79
  C 212.37 30.79 216.33 31.13 219.05 28.82
  A 0.91 0.90 -56.9 0 1 219.88 28.64
  L 221.21 29.00
  L 220.84 34.01
  A 1.34 1.34 0.0 0 1 220.45 34.88
  C 207.50 48.00 189.56 63.74 191.96 84.76
  C 192.83 92.34 204.27 92.98 209.77 91.91
  Q 211.96 91.48 213.56 89.93
  L 219.60 84.09
  A 0.65 0.64 59.5 0 1 220.66 84.37
  Q 222.50 90.51 227.98 93.54
  C 232.91 96.27 239.29 88.75 241.21 84.94
  A 0.48 0.47 15.6 0 0 240.82 84.26
  C 233.32 83.70 229.41 75.40 229.10 68.93
  Q 228.40 54.22 229.93 34.44
  C 230.14 31.71 231.41 30.52 233.75 29.54
  L 234.02 30.14
  A 1.55 1.48 3.9 0 0 234.66 30.84
  Q 238.28 32.83 242.50 32.54
  Q 242.22 32.97 242.11 33.51
  A 0.37 0.37 0.0 0 0 242.53 33.95
  Q 244.30 33.69 245.44 32.69
  Q 250.22 28.50 255.52 26.35
  Q 255.96 26.17 255.56 26.44
  C 251.41 29.18 249.77 32.24 249.71 37.48
  C 249.52 55.10 251.50 71.53 254.05 89.56
  A 0.40 0.40 0.0 0 0 254.66 89.84
  Q 260.07 86.41 263.67 81.10
  A 1.42 1.40 59.0 0 0 263.90 80.15
  C 261.46 59.47 259.62 47.63 260.04 31.75
  Z"
/>
<path fill="#cdd1d4" d="
  M 180.25 29.96
  C 177.84 31.19 177.80 36.02 180.65 34.97
  A 1.33 1.33 0.0 0 1 181.57 34.97
  Q 186.17 36.60 191.06 36.19
  A 0.22 0.20 -86.3 0 0 191.25 36.01
  L 191.29 35.75
  C 196.76 48.42 182.46 72.61 173.31 81.31
  Q 169.70 84.75 165.63 81.39
  C 159.17 76.03 158.19 68.91 158.80 60.15
  L 163.44 60.02
  A 1.68 1.63 -63.6 0 0 164.35 59.70
  C 167.80 57.16 170.72 53.66 175.37 53.40
  A 0.65 0.65 0.0 0 0 175.99 52.74
  Q 175.97 51.29 175.25 49.98
  Q 173.73 47.22 176.74 46.27
  C 184.35 43.87 180.23 35.26 176.56 38.31
  Q 175.32 39.34 173.73 39.60
  Q 169.62 40.25 169.21 38.75
  C 171.84 34.71 174.04 28.69 180.25 29.96
  Z"
/>
<path fill="#cdd1d4" d="
  M 170.70 30.42
  L 161.48 42.56
  Q 161.22 42.90 161.28 42.48
  C 161.85 38.67 165.62 29.95 170.51 30.02
  Q 171.00 30.03 170.70 30.42
  Z"
/>
<path fill="#ffffff" d="
  M 180.25 29.96
  C 184.54 30.14 189.63 31.54 191.29 35.75
  L 191.25 36.01
  A 0.22 0.20 -86.3 0 1 191.06 36.19
  Q 186.17 36.60 181.57 34.97
  A 1.33 1.33 0.0 0 0 180.65 34.97
  C 177.80 36.02 177.84 31.19 180.25 29.96
  Z"
/>
<path fill="#cdd1d4" d="
  M 113.71 35.00
  L 113.71 75.00
  Q 111.14 76.90 107.67 77.31
  A 0.51 0.51 0.0 0 0 107.22 77.87
  Q 107.85 84.33 104.11 89.56
  A 1.82 1.82 0.0 0 0 103.76 90.50
  L 103.69 91.47
  A 0.41 0.41 0.0 0 0 104.09 91.92
  Q 105.03 91.92 105.50 92.71
  C 99.92 96.00 87.21 104.07 87.02 111.38
  Q 86.92 115.68 92.29 117.25
  C 95.03 119.80 89.68 121.99 88.10 122.94
  A 1.01 0.99 -12.8 0 0 87.61 123.70
  C 86.82 131.03 85.55 141.41 81.38 147.68
  A 0.52 0.52 0.0 0 0 81.49 148.36
  Q 83.77 150.24 84.60 153.01
  A 0.76 0.76 0.0 0 1 84.18 153.93
  L 83.24 154.35
  A 0.66 0.66 0.0 0 0 82.99 155.35
  L 84.28 157.01
  A 1.68 1.63 25.1 0 1 84.63 157.93
  C 84.86 161.66 86.07 165.63 85.02 169.26
  Q 83.79 173.48 83.20 177.91
  A 1.35 1.33 -59.4 0 0 83.44 178.87
  Q 86.51 183.13 85.96 188.41
  A 1.29 1.28 -60.7 0 0 86.21 189.31
  C 88.00 191.75 92.63 191.05 91.46 195.37
  A 1.56 1.56 0.0 0 0 91.52 196.37
  L 94.46 203.46
  A 0.98 0.98 0.0 0 1 94.46 204.20
  Q 92.73 208.33 95.51 211.45
  A 0.81 0.81 0.0 0 1 95.60 212.40
  Q 94.31 214.58 96.39 215.96
  A 0.67 0.67 0.0 0 1 96.56 216.91
  L 95.78 217.96
  A 0.36 0.36 0.0 0 0 95.91 218.49
  L 101.24 221.02
  A 1.84 1.83 -66.4 0 1 102.15 223.35
  C 101.87 224.06 100.44 227.54 100.91 228.28
  A 0.70 0.69 68.9 0 0 101.62 228.60
  L 103.60 228.23
  Q 104.58 228.05 104.18 228.96
  Q 102.11 233.67 104.22 238.49
  A 0.95 0.93 87.0 0 0 104.80 239.02
  L 109.52 240.48
  A 0.95 0.93 -88.0 0 1 110.16 241.18
  L 111.11 245.56
  A 1.27 1.26 14.4 0 0 111.53 246.26
  Q 114.66 248.88 118.31 249.63
  L 119.28 257.71
  Q 119.51 259.61 117.92 260.67
  Q 113.42 263.67 109.79 268.00
  Q 106.28 263.97 101.63 261.16
  A 0.86 0.85 -68.0 0 1 101.24 260.22
  L 101.72 258.32
  A 1.73 1.73 0.0 0 0 101.68 257.39
  Q 101.38 256.53 100.47 256.13
  A 1.25 1.24 -84.7 0 1 99.76 255.27
  L 98.84 251.42
  A 0.97 0.96 -86.5 0 0 98.24 250.74
  L 96.08 249.88
  A 1.06 1.04 4.1 0 1 95.44 249.16
  Q 93.68 242.20 92.96 241.05
  Q 86.04 229.96 80.95 217.92
  A 1.76 1.70 40.0 0 1 80.85 216.96
  C 81.18 215.12 82.00 213.53 81.41 211.72
  Q 80.05 207.51 76.73 204.59
  A 1.70 1.66 -76.2 0 1 76.20 203.69
  Q 75.49 200.31 76.07 196.85
  A 1.54 1.51 35.1 0 0 75.88 195.83
  L 71.95 189.13
  Q 71.73 188.76 71.39 188.48
  L 69.70 187.09
  A 0.75 0.75 0.0 0 1 69.49 186.21
  Q 71.43 181.83 70.95 177.03
  Q 70.90 176.50 71.10 176.00
  L 71.69 174.60
  A 0.64 0.63 28.1 0 0 71.45 173.83
  C 68.18 171.71 72.13 166.61 73.33 164.09
  A 0.88 0.87 39.4 0 0 73.24 163.20
  Q 70.14 159.03 71.69 154.22
  A 1.51 1.49 44.7 0 0 71.68 153.28
  Q 69.93 148.28 73.05 144.04
  Q 73.69 143.16 72.60 143.18
  C 69.98 143.25 69.22 141.56 70.23 139.30
  Q 72.75 133.63 72.87 127.40
  A 1.07 1.05 -20.6 0 1 73.23 126.63
  L 75.66 124.51
  A 1.22 1.21 -21.9 0 0 76.07 123.56
  L 75.82 117.88
  A 1.14 1.14 0.0 0 1 76.13 117.05
  C 78.53 114.50 78.63 109.11 79.41 105.68
  A 0.70 0.69 20.4 0 0 79.05 104.91
  L 77.87 104.31
  A 0.75 0.75 0.0 0 1 77.52 103.34
  Q 79.94 97.78 80.40 91.70
  Q 80.44 91.20 80.27 90.72
  Q 78.79 86.51 82.56 84.11
  Q 84.75 82.71 85.48 80.22
  Q 86.81 75.67 90.82 73.16
  A 0.73 0.73 0.0 0 0 91.17 72.52
  L 91.16 70.37
  A 1.38 1.36 -24.0 0 1 91.54 69.40
  Q 94.37 66.37 93.58 62.33
  A 1.48 1.48 0.0 0 1 93.72 61.36
  L 94.60 59.72
  A 1.11 1.11 0.0 0 1 95.34 59.16
  Q 97.26 58.74 97.70 57.70
  C 99.57 53.19 103.00 50.96 105.01 46.80
  A 0.74 0.74 0.0 0 1 105.73 46.39
  C 109.85 46.72 110.17 44.28 110.53 40.67
  Q 110.87 37.30 113.71 35.00
  Z"
/>
<path fill="#aeb3b7" d="
  M 158.80 60.15
  C 159.78 52.85 164.95 44.67 169.21 38.75
  Q 169.62 40.25 173.73 39.60
  Q 175.32 39.34 176.56 38.31
  C 180.23 35.26 184.35 43.87 176.74 46.27
  Q 173.73 47.22 175.25 49.98
  Q 175.97 51.29 175.99 52.74
  A 0.65 0.65 0.0 0 1 175.37 53.40
  C 170.72 53.66 167.80 57.16 164.35 59.70
  A 1.68 1.63 -63.6 0 1 163.44 60.02
  L 158.80 60.15
  Z"
/>
<path fill="#c4c8cc" d="
  M 204.94 80.06
  C 197.87 75.74 204.00 58.82 207.11 53.89
  Q 211.77 46.51 219.74 40.07
  Q 220.12 39.75 220.09 40.25
  Q 218.75 58.31 219.03 76.29
  C 219.06 77.98 219.40 79.60 219.67 81.28
  A 0.56 0.55 78.3 0 1 219.27 81.90
  Q 211.49 84.07 204.94 80.06
  Z"
/>
<path fill="#aeb3b7" d="
  M 148.04 49.50
  L 151.46 50.00
  Q 150.12 56.11 149.07 62.27
  C 148.27 66.97 146.65 71.29 145.25 75.79
  Q 144.04 74.87 143.44 75.22
  A 1.55 0.08 -30.0 0 0 142.20 76.03
  Q 141.58 79.84 138.88 82.62
  A 1.37 1.35 67.7 0 0 138.51 83.53
  L 138.50 84.96
  Q 137.14 85.25 136.34 84.43
  A 0.77 0.77 0.0 0 1 136.18 83.58
  Q 143.15 66.90 148.04 49.50
  Z"
/>
<path fill="#aeb3b7" d="
  M 137.96 58.00
  Q 134.00 71.84 128.88 85.31
  A 0.83 0.83 0.0 0 1 128.15 85.85
  L 124.77 86.05
  A 0.67 0.67 0.0 0 1 124.06 85.38
  L 124.04 68.00
  Q 127.88 68.73 130.58 66.36
  A 1.65 1.63 77.2 0 0 131.09 65.54
  C 132.15 61.55 132.32 57.42 137.96 58.00
  Z"
/>
<path fill="#aeb3b7" d="
  M 113.71 75.00
  Q 114.38 81.84 113.74 88.68
  A 0.87 0.85 81.4 0 1 113.23 89.39
  L 105.50 92.71
  Q 105.03 91.92 104.09 91.92
  A 0.41 0.41 0.0 0 1 103.69 91.47
  L 103.76 90.50
  A 1.82 1.82 0.0 0 1 104.11 89.56
  Q 107.85 84.33 107.22 77.87
  A 0.51 0.51 0.0 0 1 107.67 77.31
  Q 111.14 76.90 113.71 75.00
  Z"
/>
<path fill="#cdd1d4" d="
  M 145.25 75.79
  L 143.76 85.44
  A 0.47 0.47 0.0 0 1 143.20 85.84
  L 138.50 84.96
  L 138.51 83.53
  A 1.37 1.35 67.7 0 1 138.88 82.62
  Q 141.58 79.84 142.20 76.03
  A 1.55 0.08 -30.0 0 1 143.44 75.22
  Q 144.04 74.87 145.25 75.79
  Z"
/>
<path fill="#aeb3b7" d="
  M 134.38 96.13
  Q 133.47 97.70 133.95 99.58
  A 1.21 1.18 -36.9 0 1 133.81 100.49
  Q 132.20 103.09 129.46 104.25
  C 128.37 101.46 126.64 97.30 130.19 95.40
  C 131.55 94.68 133.22 95.38 134.38 96.13
  Z"
/>
<path fill="#aeb3b7" d="
  M 114.36 106.43
  C 111.32 106.93 96.14 109.90 97.10 102.86
  A 1.06 1.05 83.9 0 1 97.77 102.02
  L 113.81 96.07
  A 0.56 0.56 0.0 0 1 114.55 96.46
  L 116.25 103.59
  Q 116.83 106.03 114.36 106.43
  Z"
/>
<path fill="#cdd1d4" d="
  M 134.38 96.13
  C 142.70 101.56 140.85 114.92 136.36 122.10
  Q 136.01 122.66 135.57 122.86
  Q 135.02 123.10 135.22 122.53
  C 136.95 117.71 135.55 111.10 129.88 109.67
  A 0.43 0.43 0.0 0 1 129.58 109.10
  Q 130.43 106.71 129.46 104.25
  Q 132.20 103.09 133.81 100.49
  A 1.21 1.18 -36.9 0 0 133.95 99.58
  Q 133.47 97.70 134.38 96.13
  Z"
/>
<path fill="#cdd1d4" d="
  M 119.44 279.45
  Q 122.03 277.19 125.17 277.55
  A 1.37 1.32 -57.6 0 0 126.08 277.33
  Q 131.16 273.96 134.72 268.99
  Q 135.04 268.53 136.25 267.96
  Q 141.07 271.24 145.25 275.26
  C 147.70 277.62 149.75 278.37 152.96 278.00
  Q 152.85 278.78 153.08 279.45
  A 0.50 0.49 -18.8 0 0 153.70 279.75
  L 154.44 279.50
  Q 156.99 282.27 160.76 282.91
  A 1.90 1.84 69.5 0 1 161.62 283.32
  C 164.44 285.74 167.66 288.98 170.66 287.81
  A 1.97 1.94 38.8 0 1 171.65 287.71
  L 182.41 289.49
  A 3.21 3.20 -57.7 0 0 184.79 288.95
  Q 188.67 286.20 193.27 287.89
  C 198.38 289.78 203.30 287.97 208.42 287.79
  C 213.45 287.62 217.93 285.99 222.99 286.06
  Q 224.88 286.09 225.98 284.55
  Q 232.12 275.97 242.70 277.73
  A 1.43 1.38 70.7 0 1 243.45 278.11
  L 246.00 280.61
  A 0.64 0.64 0.0 0 0 246.84 280.66
  Q 251.79 276.80 257.92 275.82
  C 264.00 274.85 264.64 272.15 267.30 267.56
  Q 268.19 266.04 270.25 266.21
  C 280.15 270.98 287.94 268.06 294.06 258.89
  Q 294.99 257.49 293.35 257.84
  Q 287.55 259.05 281.96 257.43
  Q 284.67 256.74 287.23 255.95
  Q 289.20 255.34 291.39 255.17
  A 0.83 0.83 0.0 0 0 292.08 254.68
  C 293.28 251.96 295.69 250.65 297.17 248.68
  C 298.82 246.47 300.27 243.32 303.46 243.25
  Q 306.95 258.95 313.64 273.70
  A 0.56 0.56 0.0 0 0 314.54 273.86
  L 322.71 265.82
  A 2.34 2.33 -34.7 0 0 323.19 263.19
  Q 317.67 251.28 314.40 238.57
  A 0.42 0.40 82.1 0 1 314.78 238.05
  C 318.19 237.99 322.67 238.72 325.63 236.90
  Q 330.24 234.08 332.80 229.86
  Q 333.93 228.00 331.76 228.05
  L 323.50 228.21
  C 324.14 223.78 326.98 223.14 330.14 221.47
  A 0.73 0.72 71.6 0 0 330.51 220.72
  L 330.03 217.62
  A 1.07 1.05 -28.0 0 1 330.31 216.73
  L 333.04 213.88
  A 1.64 1.62 -74.5 0 1 333.86 213.41
  C 339.27 212.13 341.97 202.85 341.89 198.57
  A 1.39 1.38 63.8 0 1 342.19 197.68
  C 345.10 193.94 348.33 195.75 351.75 194.48
  A 0.88 0.86 85.3 0 0 352.30 193.82
  Q 353.44 187.50 358.46 183.67
  A 2.09 2.07 -28.2 0 0 359.17 181.35
  Q 357.51 176.51 357.71 170.97
  Q 360.41 168.72 361.16 165.08
  Q 363.03 159.37 360.43 153.71
  A 1.36 1.36 0.0 0 1 360.35 152.78
  C 361.43 148.89 360.75 142.08 357.24 139.01
  A 0.43 0.42 -41.2 0 1 357.29 138.34
  Q 359.72 136.75 359.13 133.55
  A 0.62 0.62 0.0 0 0 358.28 133.09
  L 356.66 133.76
  A 0.48 0.47 -22.6 0 1 356.03 133.51
  C 355.25 131.70 359.61 129.64 356.10 125.65
  A 0.79 0.78 38.4 0 1 355.99 124.79
  L 356.46 123.85
  Q 356.84 123.09 356.00 123.22
  C 352.35 123.79 350.95 118.95 349.25 115.29
  C 353.36 111.87 359.14 106.70 354.25 101.04
  Q 356.67 100.13 357.94 98.79
  Q 359.57 97.06 361.35 98.65
  Q 365.08 101.97 369.92 103.39
  Q 371.50 103.86 371.92 105.45
  Q 373.55 111.58 377.67 116.37
  A 0.69 0.68 -47.3 0 1 377.70 117.22
  C 373.66 122.80 378.51 126.58 379.28 132.20
  A 0.69 0.68 -88.9 0 0 379.83 132.78
  C 384.83 133.73 384.39 138.22 382.79 141.87
  A 0.72 0.71 -70.0 0 0 383.24 142.84
  L 387.94 144.23
  A 0.59 0.59 0.0 0 1 388.33 145.01
  L 388.02 145.86
  A 0.93 0.93 0.0 0 0 388.23 146.83
  L 390.06 148.74
  A 0.91 0.89 -54.5 0 1 390.22 149.74
  L 388.01 154.39
  Q 387.46 155.57 388.65 155.06
  L 390.86 154.11
  A 0.44 0.44 0.0 0 1 391.47 154.45
  Q 391.96 158.05 389.33 160.13
  A 0.63 0.63 0.0 0 0 389.29 161.08
  L 391.17 162.89
  A 1.10 1.09 27.8 0 1 391.49 163.90
  C 390.89 167.01 390.03 173.56 392.09 175.27
  A 0.65 0.65 0.0 0 1 392.28 176.03
  L 391.23 178.44
  A 0.92 0.91 7.2 0 1 390.54 178.97
  L 389.46 179.13
  A 0.69 0.69 0.0 0 0 388.90 180.00
  L 389.65 182.68
  A 1.76 1.74 44.7 0 1 389.66 183.60
  Q 387.87 190.33 386.57 197.16
  C 383.80 211.72 375.70 224.94 365.59 235.63
  A 1.01 1.00 62.7 0 0 365.32 236.49
  C 365.81 239.83 363.13 240.46 361.70 242.25
  Q 353.96 251.89 343.30 258.31
  A 1.91 1.90 -1.5 0 0 342.64 259.00
  C 341.45 261.17 339.60 262.25 338.48 264.24
  C 334.50 271.30 330.38 273.92 325.04 278.56
  Q 324.66 278.88 324.49 279.35
  C 323.28 282.53 317.89 284.33 315.19 285.87
  C 309.27 289.25 303.33 291.71 297.25 294.39
  C 291.00 297.15 287.86 305.52 280.34 300.58
  Q 279.23 299.85 279.22 301.18
  C 279.18 305.60 275.88 306.36 272.23 306.01
  A 0.97 0.96 -66.1 0 0 271.41 306.33
  Q 268.01 310.23 262.26 310.22
  Q 261.76 310.22 261.51 310.56
  A 0.56 0.56 0.0 0 0 261.59 311.31
  L 262.74 312.34
  A 0.54 0.54 0.0 0 1 262.65 313.21
  Q 260.35 314.54 257.68 314.23
  A 1.63 1.60 35.1 0 0 256.77 314.38
  L 251.28 317.05
  A 2.02 1.94 -54.1 0 1 250.24 317.24
  Q 241.02 316.45 232.02 318.24
  C 216.84 321.25 203.58 322.26 189.56 320.39
  Q 188.02 320.19 186.20 318.82
  A 0.66 0.66 0.0 0 0 185.41 318.81
  Q 183.28 320.33 180.45 318.54
  Q 173.68 314.23 164.39 312.25
  C 151.73 309.55 141.09 301.45 131.79 291.96
  Q 125.66 285.70 119.44 279.45
  Z"
/>
<path fill="#ffffff" d="
  M 230.04 106.75
  C 227.20 109.35 223.66 111.51 222.96 115.75
  Q 219.70 116.36 216.35 114.87
  Q 213.33 113.52 211.26 116.11
  L 208.11 120.05
  L 208.29 112.75
  L 210.25 111.63
  Q 210.64 111.41 211.09 111.41
  L 217.89 111.41
  A 1.51 1.49 25.3 0 0 218.83 111.08
  Q 221.15 109.15 224.01 109.80
  A 1.63 1.63 0.0 0 0 225.68 109.17
  C 226.42 108.16 228.53 104.83 230.04 106.75
  Z"
/>
<path fill="#ffffff" d="
  M 252.00 110.79
  L 248.71 121.75
  Q 243.84 121.20 241.44 119.31
  Q 237.29 116.06 233.04 118.25
  L 233.29 107.50
  C 235.24 107.07 236.69 108.13 238.77 107.69
  A 0.96 0.95 57.3 0 1 239.57 107.87
  L 243.71 111.10
  A 1.36 1.35 61.2 0 0 244.63 111.37
  L 252.00 110.79
  Z"
/>
<path fill="#c4c8cc" d="
  M 345.50 112.71
  Q 338.29 110.81 331.90 110.96
  Q 328.83 111.03 327.97 113.98
  Q 325.49 122.55 329.57 130.42
  A 0.75 0.73 53.3 0 1 329.46 131.25
  C 325.95 135.01 330.19 136.90 333.13 137.82
  A 0.18 0.17 9.7 0 1 333.25 137.98
  L 333.25 138.28
  A 0.50 0.49 -2.7 0 1 332.81 138.76
  L 332.50 138.79
  Q 319.69 139.14 306.92 141.09
  A 0.77 0.77 0.0 0 1 306.04 140.34
  C 305.98 134.63 304.94 126.59 306.60 121.95
  C 310.67 110.59 331.83 108.32 341.25 109.23
  Q 344.12 109.50 345.50 112.71
  Z"
/>
<path fill="#aeb3b7" d="
  M 345.50 112.71
  L 346.26 115.52
  A 0.70 0.70 0.0 0 0 346.88 116.03
  Q 348.18 116.14 349.25 115.29
  C 350.95 118.95 352.35 123.79 356.00 123.22
  Q 356.84 123.09 356.46 123.85
  L 355.99 124.79
  A 0.79 0.78 38.4 0 0 356.10 125.65
  C 359.61 129.64 355.25 131.70 356.03 133.51
  A 0.48 0.47 -22.6 0 0 356.66 133.76
  L 358.28 133.09
  A 0.62 0.62 0.0 0 1 359.13 133.55
  Q 359.72 136.75 357.29 138.34
  A 0.43 0.42 -41.2 0 0 357.24 139.01
  C 360.75 142.08 361.43 148.89 360.35 152.78
  A 1.36 1.36 0.0 0 0 360.43 153.71
  Q 363.03 159.37 361.16 165.08
  L 342.02 171.04
  Q 341.37 166.06 339.94 161.40
  Q 339.35 159.51 337.74 153.42
  Q 336.63 149.22 334.52 145.43
  Q 336.25 141.16 332.50 138.79
  L 332.81 138.76
  A 0.50 0.49 -2.7 0 0 333.25 138.28
  L 333.25 137.98
  A 0.18 0.17 9.7 0 0 333.13 137.82
  C 330.19 136.90 325.95 135.01 329.46 131.25
  A 0.75 0.73 53.3 0 0 329.57 130.42
  Q 325.49 122.55 327.97 113.98
  Q 328.83 111.03 331.90 110.96
  Q 338.29 110.81 345.50 112.71
  Z"
/>
<path fill="#c4c8cc" d="
  M 222.96 115.75
  Q 222.23 131.61 220.09 149.81
  Q 219.02 158.93 216.06 166.87
  A 0.82 0.81 6.4 0 1 215.39 167.40
  C 205.99 168.55 204.38 160.94 204.83 153.59
  Q 205.86 136.72 208.11 120.05
  L 211.26 116.11
  Q 213.33 113.52 216.35 114.87
  Q 219.70 116.36 222.96 115.75
  Z"
/>
<path fill="#aeb3b7" d="
  M 123.00 185.04
  Q 123.85 186.03 124.66 187.02
  C 128.04 191.19 123.40 196.76 129.50 200.79
  C 125.55 203.36 115.16 211.71 114.44 216.45
  Q 114.34 217.07 114.93 216.83
  L 116.18 216.30
  A 0.44 0.44 0.0 0 1 116.79 216.71
  Q 116.75 233.08 118.31 249.63
  Q 114.66 248.88 111.53 246.26
  A 1.27 1.26 14.4 0 1 111.11 245.56
  L 110.16 241.18
  A 0.95 0.93 -88.0 0 0 109.52 240.48
  L 104.80 239.02
  A 0.95 0.93 87.0 0 1 104.22 238.49
  Q 102.11 233.67 104.18 228.96
  Q 104.58 228.05 103.60 228.23
  L 101.62 228.60
  A 0.70 0.69 68.9 0 1 100.91 228.28
  C 100.44 227.54 101.87 224.06 102.15 223.35
  A 1.84 1.83 -66.4 0 0 101.24 221.02
  L 95.91 218.49
  A 0.36 0.36 0.0 0 1 95.78 217.96
  L 96.56 216.91
  A 0.67 0.67 0.0 0 0 96.39 215.96
  Q 94.31 214.58 95.60 212.40
  A 0.81 0.81 0.0 0 0 95.51 211.45
  Q 92.73 208.33 94.46 204.20
  A 0.98 0.98 0.0 0 0 94.46 203.46
  L 91.52 196.37
  A 1.56 1.56 0.0 0 1 91.46 195.37
  C 92.63 191.05 88.00 191.75 86.21 189.31
  A 1.29 1.28 -60.7 0 1 85.96 188.41
  Q 86.51 183.13 83.44 178.87
  A 1.35 1.33 -59.4 0 1 83.20 177.91
  Q 83.79 173.48 85.02 169.26
  C 86.07 165.63 84.86 161.66 84.63 157.93
  A 1.68 1.63 25.1 0 0 84.28 157.01
  L 82.99 155.35
  A 0.66 0.66 0.0 0 1 83.24 154.35
  L 84.18 153.93
  A 0.76 0.76 0.0 0 0 84.60 153.01
  Q 83.77 150.24 81.49 148.36
  A 0.52 0.52 0.0 0 1 81.38 147.68
  C 85.55 141.41 86.82 131.03 87.61 123.70
  A 1.01 0.99 -12.8 0 1 88.10 122.94
  C 89.68 121.99 95.03 119.80 92.29 117.25
  L 100.26 117.09
  Q 100.75 117.08 100.41 117.44
  C 99.28 118.63 95.94 122.16 96.27 123.78
  A 0.50 0.50 0.0 0 0 97.00 124.11
  C 103.52 120.57 115.13 117.56 122.30 120.58
  C 126.87 122.52 126.20 129.35 124.06 132.78
  A 1.86 1.85 3.0 0 1 123.31 133.45
  L 109.40 140.10
  A 0.85 0.84 76.6 0 1 108.19 139.35
  L 107.92 122.33
  Q 107.88 119.87 106.09 121.56
  L 99.93 127.40
  Q 98.00 129.23 98.00 131.88
  L 98.00 146.73
  A 1.33 1.28 65.7 0 1 97.70 147.57
  C 96.78 148.69 92.45 153.69 93.11 154.96
  A 0.67 0.65 -22.0 0 0 93.89 155.28
  L 98.34 153.93
  A 0.50 0.50 0.0 0 1 98.98 154.39
  Q 99.50 166.12 100.60 177.74
  Q 100.70 178.79 99.30 183.69
  A 1.50 1.50 0.0 0 0 99.36 184.67
  L 103.08 193.77
  Q 104.13 196.33 106.04 194.33
  C 108.43 191.84 110.82 188.69 114.30 187.83
  Q 118.75 186.73 123.00 185.04
  Z"
/>
<path fill="#c4c8cc" d="
  M 248.71 121.75
  L 238.53 159.90
  Q 238.34 160.60 238.04 159.94
  C 232.54 147.89 232.71 131.25 233.04 118.25
  Q 237.29 116.06 241.44 119.31
  Q 243.84 121.20 248.71 121.75
  Z"
/>
<path fill="#ffffff" d="
  M 260.04 120.25
  Q 266.70 121.65 270.63 127.12
  A 1.70 1.68 25.6 0 1 270.95 128.01
  Q 271.14 130.59 273.50 131.54
  L 272.21 136.75
  Q 270.54 135.16 269.70 133.00
  C 269.03 131.27 268.09 130.28 266.23 130.65
  A 0.79 0.77 -23.7 0 1 265.46 130.36
  Q 263.18 127.32 259.29 128.00
  L 260.04 120.25
  Z"
/>
<path fill="#cdd1d4" d="
  M 197.96 127.50
  L 197.75 125.81
  A 0.53 0.52 83.2 0 0 197.18 125.35
  Q 193.65 125.67 191.50 128.46
  L 184.46 127.62
  Q 183.82 127.54 184.38 127.23
  L 195.78 120.90
  Q 197.98 119.68 197.97 122.20
  L 197.96 127.50
  Z"
/>
<path fill="#cdd1d4" d="
  M 158.23 135.55
  C 156.99 131.86 153.77 128.99 149.65 128.74
  Q 149.01 128.71 149.51 128.31
  L 157.69 121.77
  Q 158.99 120.73 159.00 122.40
  L 159.00 135.52
  A 0.23 0.23 0.0 0 1 158.76 135.75
  L 158.50 135.75
  A 0.28 0.28 0.0 0 1 158.23 135.55
  Z"
/>
<path fill="#ffffff" d="
  M 197.96 127.50
  Q 198.23 131.07 197.21 134.58
  Q 196.75 136.17 196.34 134.57
  Q 195.34 130.66 191.50 128.46
  Q 193.65 125.67 197.18 125.35
  A 0.53 0.52 83.2 0 1 197.75 125.81
  L 197.96 127.50
  Z"
/>
<path fill="#c4c8cc" d="
  M 272.21 136.75
  Q 269.54 149.52 264.60 161.63
  A 0.95 0.95 0.0 0 1 263.33 162.14
  Q 259.33 160.35 259.14 155.75
  Q 258.59 141.87 259.29 128.00
  Q 263.18 127.32 265.46 130.36
  A 0.79 0.77 -23.7 0 0 266.23 130.65
  C 268.09 130.28 269.03 131.27 269.70 133.00
  Q 270.54 135.16 272.21 136.75
  Z"
/>
<path fill="#cdd1d4" d="
  M 183.53 138.86
  Q 176.75 143.06 172.20 150.95
  Q 171.26 152.59 169.04 152.00
  Q 168.26 146.32 169.24 140.62
  A 1.01 0.96 -9.6 0 1 169.77 139.91
  Q 176.53 136.51 183.53 138.86
  Z"
/>
<path fill="#cdd1d4" d="
  M 119.96 153.50
  Q 118.12 147.59 120.25 141.79
  Q 126.75 139.87 133.50 139.29
  Q 134.00 139.25 133.65 139.61
  L 119.96 153.50
  Z"
/>
<path fill="#cdd1d4" d="
  M 122.29 178.00
  Q 122.21 174.44 121.96 170.83
  C 121.71 167.12 123.64 165.13 121.09 161.24
  A 1.52 1.52 0.0 0 1 120.84 160.34
  Q 120.91 158.94 119.96 158.00
  L 137.11 140.32
  Q 138.56 138.83 140.63 139.00
  C 154.15 140.14 148.98 160.35 143.35 167.01
  C 138.31 172.98 129.58 176.57 122.29 178.00
  Z"
/>
<path fill="#ffffff" d="
  M 183.53 138.86
  L 185.29 141.75
  Q 183.97 144.64 184.23 145.75
  Q 185.70 152.19 183.21 158.37
  A 0.88 0.87 19.4 0 0 183.77 159.53
  L 187.79 160.75
  C 184.71 166.62 176.61 169.62 170.66 170.55
  A 0.47 0.47 0.0 0 1 170.12 170.11
  L 169.04 152.00
  Q 171.26 152.59 172.20 150.95
  Q 176.75 143.06 183.53 138.86
  Z"
/>
<path fill="#aeb3b7" d="
  M 120.25 141.79
  Q 118.12 147.59 119.96 153.50
  L 110.66 163.97
  Q 110.28 164.40 110.23 163.83
  L 109.01 149.77
  A 2.20 2.17 68.0 0 1 109.78 147.92
  Q 114.48 143.95 120.25 141.79
  Z"
/>
<path fill="#cdd1d4" d="
  M 185.29 141.75
  C 187.69 146.20 190.23 155.51 187.79 160.75
  L 183.77 159.53
  A 0.88 0.87 19.4 0 1 183.21 158.37
  Q 185.70 152.19 184.23 145.75
  Q 183.97 144.64 185.29 141.75
  Z"
/>
<path fill="#c4c8cc" d="
  M 334.52 145.43
  Q 336.63 149.22 337.74 153.42
  Q 339.35 159.51 339.94 161.40
  Q 341.37 166.06 342.02 171.04
  C 336.09 172.82 321.10 175.23 316.57 171.16
  C 314.34 169.15 314.20 165.08 316.38 163.13
  C 322.76 157.42 329.04 152.21 334.52 145.43
  Z"
/>
<path fill="#c4c8cc" d="
  M 340.96 179.00
  Q 341.12 179.46 341.10 179.94
  A 0.89 0.87 -13.2 0 1 340.63 180.68
  C 335.65 183.27 338.64 187.68 339.56 191.16
  A 1.09 1.07 55.4 0 1 339.40 192.06
  Q 333.02 201.00 325.47 208.94
  C 321.08 213.55 315.62 216.09 310.04 219.00
  L 307.00 200.32
  A 1.15 1.13 -28.1 0 1 307.31 199.33
  L 313.99 192.51
  Q 314.44 192.04 313.79 192.01
  Q 311.58 191.88 308.96 193.73
  C 290.97 206.44 275.33 221.43 268.37 241.81
  C 267.08 245.58 266.87 249.80 266.50 253.84
  A 0.46 0.45 16.7 0 1 265.83 254.20
  C 260.65 251.43 258.35 241.33 257.72 236.00
  Q 255.87 220.48 254.89 204.83
  A 1.44 1.43 60.0 0 1 255.11 204.00
  L 258.19 199.25
  A 0.49 0.49 0.0 0 0 257.92 198.52
  C 255.52 197.81 235.77 217.56 234.69 218.68
  C 223.04 230.74 218.19 240.03 217.97 256.81
  A 1.36 1.35 78.7 0 1 217.17 258.02
  C 208.26 262.01 198.58 260.96 188.81 261.03
  Q 187.37 261.04 185.00 262.79
  L 182.75 262.46
  C 185.43 257.18 183.26 246.87 182.91 240.77
  A 2.03 2.03 0.0 0 1 184.14 238.79
  C 186.60 237.74 203.97 231.84 204.28 236.67
  A 0.29 0.29 0.0 0 0 204.72 236.90
  C 207.63 235.08 213.66 230.15 213.99 226.51
  A 1.69 1.68 -88.0 0 0 212.29 224.68
  C 201.74 224.86 193.41 228.49 183.71 231.94
  A 0.41 0.40 -14.1 0 1 183.17 231.62
  C 182.57 227.40 181.91 219.97 185.88 217.08
  Q 200.03 206.78 217.68 206.13
  A 0.88 0.87 72.9 0 1 218.46 206.55
  Q 219.85 208.83 219.99 211.51
  A 0.41 0.40 73.8 0 0 220.59 211.84
  Q 226.67 208.47 229.91 202.30
  A 1.36 1.32 -41.5 0 0 229.99 201.26
  L 228.61 197.27
  A 0.83 0.81 -8.2 0 0 227.86 196.72
  C 209.94 196.05 193.65 205.19 181.19 217.29
  C 178.37 220.02 176.20 223.88 173.71 227.17
  C 168.22 234.45 164.76 242.06 161.50 250.54
  Q 160.73 252.54 159.28 250.96
  L 156.04 247.41
  A 0.84 0.84 0.0 0 1 155.96 246.39
  Q 167.82 228.23 164.49 206.97
  C 163.80 202.53 162.22 191.98 156.21 191.67
  Q 141.67 190.91 129.50 200.79
  C 123.40 196.76 128.04 191.19 124.66 187.02
  Q 123.85 186.03 123.00 185.04
  Q 134.76 179.87 143.89 170.85
  A 0.30 0.29 -29.6 0 1 144.38 170.98
  Q 147.79 183.08 160.94 180.89
  Q 164.24 185.06 169.47 186.41
  C 175.24 187.90 174.81 193.33 178.32 197.37
  C 180.44 199.80 183.34 200.21 186.24 201.33
  Q 186.73 201.52 187.08 201.92
  L 188.43 203.47
  A 0.45 0.45 0.0 0 0 189.11 203.47
  L 190.86 201.43
  A 1.02 1.01 28.9 0 1 191.92 201.13
  L 196.99 202.66
  A 0.86 0.86 0.0 0 0 198.10 201.89
  C 198.38 196.95 195.91 193.54 192.50 190.22
  Q 190.97 188.73 190.99 186.59
  Q 191.05 182.24 189.34 178.26
  A 1.66 1.62 -52.6 0 1 189.23 177.34
  L 189.80 174.18
  A 1.44 1.40 34.9 0 0 189.61 173.20
  L 186.25 167.71
  L 194.37 158.52
  Q 195.01 157.81 195.00 158.76
  C 194.89 168.54 193.41 178.75 207.76 177.50
  C 214.73 176.90 221.80 168.01 224.91 162.32
  Q 225.50 161.24 225.69 162.46
  C 226.51 167.65 230.18 175.42 236.85 170.31
  Q 245.59 163.61 248.24 152.83
  A 0.15 0.15 0.0 0 1 248.43 152.73
  L 248.69 152.81
  A 0.15 0.13 -80.1 0 1 248.78 152.96
  C 248.51 160.05 247.03 172.65 256.84 172.70
  A 3.66 3.60 26.3 0 0 259.06 171.97
  Q 271.28 162.73 276.56 148.32
  Q 277.96 144.49 278.25 148.55
  Q 279.39 164.43 283.23 179.86
  Q 283.85 182.35 285.97 180.90
  Q 289.90 178.22 292.90 174.59
  Q 294.28 172.92 294.26 170.76
  L 294.17 163.29
  Q 294.15 160.90 294.63 163.24
  L 297.13 175.24
  A 1.39 1.38 -15.7 0 0 298.96 176.26
  Q 302.37 175.04 305.03 171.29
  Q 305.22 171.02 305.51 170.99
  A 0.39 0.39 0.0 0 1 305.93 171.48
  C 303.89 178.46 304.49 181.66 312.15 182.73
  C 322.45 184.16 330.32 181.91 340.96 179.00
  Z
  M 249.56 179.69
  Q 248.50 179.15 247.24 178.91
  Q 246.70 178.81 247.04 179.24
  C 248.48 181.09 252.11 181.32 254.21 181.97
  Q 255.38 182.33 254.95 181.18
  C 253.73 177.93 251.30 180.57 249.56 179.69
  Z"
/>
<path fill="#c4c8cc" d="
  M 307.92 166.60
  Q 308.39 158.67 307.32 150.81
  A 0.92 0.92 0.0 0 1 308.13 149.77
  C 310.75 149.48 324.57 147.47 324.85 150.95
  A 1.11 1.10 65.4 0 1 324.53 151.82
  C 318.81 157.64 312.62 162.07 307.47 168.57
  Q 306.90 169.29 307.27 168.45
  L 307.71 167.45
  Q 307.90 167.04 307.92 166.60
  Z"
/>
<path fill="#c4c8cc" d="
  M 157.69 153.89
  Q 158.29 152.96 158.35 154.06
  L 159.00 168.08
  Q 159.08 169.88 157.87 168.55
  Q 154.57 164.90 154.21 159.95
  A 1.74 1.67 60.2 0 1 154.47 158.91
  L 157.69 153.89
  Z"
/>
<path fill="#aeb3b7" d="
  M 119.96 158.00
  Q 120.91 158.94 120.84 160.34
  A 1.52 1.52 0.0 0 0 121.09 161.24
  C 123.64 165.13 121.71 167.12 121.96 170.83
  Q 122.21 174.44 122.29 178.00
  Q 117.70 179.35 112.92 178.91
  A 0.93 0.92 79.2 0 1 112.19 178.41
  C 108.16 170.34 113.68 164.78 119.96 158.00
  Z"
/>
<path fill="#ffffff" d="
  M 186.25 167.71
  L 189.61 173.20
  A 1.44 1.40 34.9 0 1 189.80 174.18
  L 189.23 177.34
  A 1.66 1.62 -52.6 0 0 189.34 178.26
  Q 191.05 182.24 190.99 186.59
  Q 190.97 188.73 192.50 190.22
  C 195.91 193.54 198.38 196.95 198.10 201.89
  A 0.86 0.86 0.0 0 1 196.99 202.66
  L 191.92 201.13
  A 1.02 1.01 28.9 0 0 190.86 201.43
  L 189.11 203.47
  A 0.45 0.45 0.0 0 1 188.43 203.47
  L 187.08 201.92
  Q 186.73 201.52 186.24 201.33
  C 183.34 200.21 180.44 199.80 178.32 197.37
  C 174.81 193.33 175.24 187.90 169.47 186.41
  Q 164.24 185.06 160.94 180.89
  Q 175.51 177.76 186.25 167.71
  Z"
/>
<path fill="#aeb3b7" d="
  M 357.71 170.97
  Q 357.51 176.51 359.17 181.35
  A 2.09 2.07 -28.2 0 1 358.46 183.67
  Q 353.44 187.50 352.30 193.82
  A 0.88 0.86 85.3 0 1 351.75 194.48
  C 348.33 195.75 345.10 193.94 342.19 197.68
  A 1.39 1.38 63.8 0 0 341.89 198.57
  C 341.97 202.85 339.27 212.13 333.86 213.41
  A 1.64 1.62 -74.5 0 0 333.04 213.88
  L 330.31 216.73
  A 1.07 1.05 -28.0 0 0 330.03 217.62
  L 330.51 220.72
  A 0.73 0.72 71.6 0 1 330.14 221.47
  C 326.98 223.14 324.14 223.78 323.50 228.21
  L 312.90 229.16
  A 0.80 0.79 81.0 0 1 312.05 228.53
  L 310.04 219.00
  C 315.62 216.09 321.08 213.55 325.47 208.94
  Q 333.02 201.00 339.40 192.06
  A 1.09 1.07 55.4 0 0 339.56 191.16
  C 338.64 187.68 335.65 183.27 340.63 180.68
  A 0.89 0.87 -13.2 0 0 341.10 179.94
  Q 341.12 179.46 340.96 179.00
  C 347.21 176.69 352.09 175.49 357.71 170.97
  Z"
/>
<path fill="#ffffff" d="
  M 249.56 179.69
  C 251.30 180.57 253.73 177.93 254.95 181.18
  Q 255.38 182.33 254.21 181.97
  C 252.11 181.32 248.48 181.09 247.04 179.24
  Q 246.70 178.81 247.24 178.91
  Q 248.50 179.15 249.56 179.69
  Z"
/>
<path fill="#090a09" d="
  M 182.75 262.46
  L 175.97 269.27
  Q 173.90 271.35 173.38 268.46
  L 172.02 260.86
  Q 170.80 252.65 171.00 244.62
  A 0.39 0.39 0.0 0 0 170.57 244.22
  C 169.99 244.28 165.55 256.13 165.04 257.50
  Q 163.03 261.95 162.98 265.26
  C 162.94 268.12 163.38 269.86 161.74 272.25
  Q 158.83 276.48 154.44 279.50
  L 153.70 279.75
  A 0.50 0.49 -18.8 0 1 153.08 279.45
  Q 152.85 278.78 152.96 278.00
  Q 153.70 267.24 148.03 258.20
  A 0.86 0.86 0.0 0 0 146.71 258.03
  L 136.25 267.96
  Q 135.04 268.53 134.72 268.99
  Q 131.16 273.96 126.08 277.33
  A 1.37 1.32 -57.6 0 1 125.17 277.55
  Q 122.03 277.19 119.44 279.45
  Q 112.63 283.33 104.79 283.02
  A 0.63 0.62 -4.0 0 1 104.20 282.51
  C 102.98 276.03 106.31 272.67 109.79 268.00
  Q 113.42 263.67 117.92 260.67
  Q 119.51 259.61 119.28 257.71
  L 118.31 249.63
  Q 116.75 233.08 116.79 216.71
  A 0.44 0.44 0.0 0 0 116.18 216.30
  L 114.93 216.83
  Q 114.34 217.07 114.44 216.45
  C 115.16 211.71 125.55 203.36 129.50 200.79
  Q 141.67 190.91 156.21 191.67
  C 162.22 191.98 163.80 202.53 164.49 206.97
  Q 167.82 228.23 155.96 246.39
  A 0.84 0.84 0.0 0 0 156.04 247.41
  L 159.28 250.96
  Q 160.73 252.54 161.50 250.54
  C 164.76 242.06 168.22 234.45 173.71 227.17
  C 176.20 223.88 178.37 220.02 181.19 217.29
  C 193.65 205.19 209.94 196.05 227.86 196.72
  A 0.83 0.81 -8.2 0 1 228.61 197.27
  L 229.99 201.26
  A 1.36 1.32 -41.5 0 1 229.91 202.30
  Q 226.67 208.47 220.59 211.84
  A 0.41 0.40 73.8 0 1 219.99 211.51
  Q 219.85 208.83 218.46 206.55
  A 0.88 0.87 72.9 0 0 217.68 206.13
  Q 200.03 206.78 185.88 217.08
  C 181.91 219.97 182.57 227.40 183.17 231.62
  A 0.41 0.40 -14.1 0 0 183.71 231.94
  C 193.41 228.49 201.74 224.86 212.29 224.68
  A 1.69 1.68 -88.0 0 1 213.99 226.51
  C 213.66 230.15 207.63 235.08 204.72 236.90
  A 0.29 0.29 0.0 0 1 204.28 236.67
  C 203.97 231.84 186.60 237.74 184.14 238.79
  A 2.03 2.03 0.0 0 0 182.91 240.77
  C 183.26 246.87 185.43 257.18 182.75 262.46
  Z
  M 127.44 206.47
  Q 126.10 228.01 129.62 249.97
  A 1.26 1.26 0.0 0 0 131.52 250.84
  Q 139.90 245.68 149.74 245.95
  A 1.19 1.17 20.5 0 0 150.66 245.54
  Q 151.40 244.66 151.27 244.02
  Q 155.90 233.03 154.98 221.81
  C 154.60 217.18 154.14 207.32 149.56 203.39
  C 144.57 199.12 132.62 203.49 127.44 206.47
  Z
  M 143.97 256.54
  Q 145.10 255.44 143.53 255.59
  L 132.57 256.61
  Q 130.47 256.81 131.08 258.84
  L 132.98 265.18
  A 0.95 0.95 0.0 0 0 134.55 265.59
  L 143.97 256.54
  Z
  M 114.60 273.00
  L 120.56 272.85
  A 1.40 1.40 0.0 0 0 121.89 271.16
  L 120.27 263.61
  A 0.50 0.50 0.0 0 0 119.57 263.26
  Q 113.85 265.83 113.72 272.12
  A 0.86 0.86 0.0 0 0 114.60 273.00
  Z"
/>
<path fill="#090a09" d="
  M 310.04 219.00
  L 312.05 228.53
  A 0.80 0.79 81.0 0 0 312.90 229.16
  L 323.50 228.21
  L 331.76 228.05
  Q 333.93 228.00 332.80 229.86
  Q 330.24 234.08 325.63 236.90
  C 322.67 238.72 318.19 237.99 314.78 238.05
  A 0.42 0.40 82.1 0 0 314.40 238.57
  Q 317.67 251.28 323.19 263.19
  A 2.34 2.33 -34.7 0 1 322.71 265.82
  L 314.54 273.86
  A 0.56 0.56 0.0 0 1 313.64 273.70
  Q 306.95 258.95 303.46 243.25
  L 302.60 240.30
  A 0.65 0.65 0.0 0 0 301.95 239.83
  Q 294.51 240.07 287.25 241.79
  Q 284.21 242.18 279.25 243.50
  Q 275.42 244.51 276.29 248.50
  Q 276.16 255.06 281.96 257.43
  Q 287.55 259.05 293.35 257.84
  Q 294.99 257.49 294.06 258.89
  C 287.94 268.06 280.15 270.98 270.25 266.21
  Q 267.31 263.80 266.52 259.97
  A 0.30 0.30 0.0 0 0 266.04 259.80
  C 264.07 261.44 262.55 263.54 260.06 264.06
  Q 255.13 265.10 252.32 260.62
  Q 248.76 252.97 248.00 247.24
  Q 245.74 230.32 244.84 213.92
  Q 244.76 212.46 243.74 213.51
  C 236.85 220.67 230.16 226.82 228.97 236.76
  C 227.74 247.17 226.62 258.83 241.20 258.79
  C 242.86 258.79 244.52 257.82 246.53 258.20
  A 0.36 0.36 0.0 0 1 246.78 258.74
  Q 244.42 262.68 240.75 265.29
  Q 233.47 270.88 224.93 267.63
  Q 221.98 265.78 219.79 263.23
  A 0.64 0.64 0.0 0 0 219.02 263.07
  C 211.19 266.95 206.88 269.19 199.71 270.75
  L 178.52 270.92
  Q 177.48 270.93 178.09 270.09
  Q 180.98 266.05 185.00 262.79
  Q 187.37 261.04 188.81 261.03
  C 198.58 260.96 208.26 262.01 217.17 258.02
  A 1.36 1.35 78.7 0 0 217.97 256.81
  C 218.19 240.03 223.04 230.74 234.69 218.68
  C 235.77 217.56 255.52 197.81 257.92 198.52
  A 0.49 0.49 0.0 0 1 258.19 199.25
  L 255.11 204.00
  A 1.44 1.43 60.0 0 0 254.89 204.83
  Q 255.87 220.48 257.72 236.00
  C 258.35 241.33 260.65 251.43 265.83 254.20
  A 0.46 0.45 16.7 0 0 266.50 253.84
  C 266.87 249.80 267.08 245.58 268.37 241.81
  C 275.33 221.43 290.97 206.44 308.96 193.73
  Q 311.58 191.88 313.79 192.01
  Q 314.44 192.04 313.99 192.51
  L 307.31 199.33
  A 1.15 1.13 -28.1 0 0 307.00 200.32
  L 310.04 219.00
  Z
  M 298.40 205.39
  C 288.48 213.56 280.77 223.52 277.62 236.13
  Q 277.50 236.61 277.97 236.46
  Q 288.75 232.92 299.92 230.92
  A 0.52 0.52 0.0 0 0 300.34 230.33
  L 297.05 209.97
  A 1.53 1.49 -36.1 0 1 297.22 208.98
  L 298.98 205.87
  Q 299.98 204.09 298.40 205.39
  Z"
/>
<path fill="#cdd1d4" d="
  M 151.27 244.02
  Q 147.95 238.51 142.97 234.81
  A 1.18 1.16 15.3 0 1 142.51 234.02
  C 142.19 231.49 140.45 229.71 138.30 226.92
  A 1.02 1.00 -54.8 0 1 138.15 225.99
  L 138.74 224.24
  A 1.16 1.16 0.0 0 0 138.63 223.27
  Q 135.94 218.86 133.94 214.10
  C 132.47 210.57 130.25 208.84 127.44 206.47
  C 132.62 203.49 144.57 199.12 149.56 203.39
  C 154.14 207.32 154.60 217.18 154.98 221.81
  Q 155.90 233.03 151.27 244.02
  Z"
/>
<path fill="#c4c8cc" d="
  M 277.62 236.13
  C 280.77 223.52 288.48 213.56 298.40 205.39
  Q 299.98 204.09 298.98 205.87
  L 297.22 208.98
  A 1.53 1.49 -36.1 0 0 297.05 209.97
  L 300.34 230.33
  A 0.52 0.52 0.0 0 1 299.92 230.92
  Q 288.75 232.92 277.97 236.46
  Q 277.50 236.61 277.62 236.13
  Z"
/>
<path fill="#aeb3b7" d="
  M 127.44 206.47
  C 130.25 208.84 132.47 210.57 133.94 214.10
  Q 135.94 218.86 138.63 223.27
  A 1.16 1.16 0.0 0 1 138.74 224.24
  L 138.15 225.99
  A 1.02 1.00 -54.8 0 0 138.30 226.92
  C 140.45 229.71 142.19 231.49 142.51 234.02
  A 1.18 1.16 15.3 0 0 142.97 234.81
  Q 147.95 238.51 151.27 244.02
  Q 151.40 244.66 150.66 245.54
  A 1.19 1.17 20.5 0 1 149.74 245.95
  Q 139.90 245.68 131.52 250.84
  A 1.26 1.26 0.0 0 1 129.62 249.97
  Q 126.10 228.01 127.44 206.47
  Z"
/>
<path fill="#c4c8cc" d="
  M 252.32 260.62
  Q 249.75 260.51 248.29 261.54
  Q 246.68 262.68 245.88 264.99
  A 0.99 0.98 -89.3 0 1 245.24 265.62
  L 241.86 266.70
  A 0.81 0.80 -30.6 0 1 241.02 266.49
  Q 240.56 266.02 240.75 265.29
  Q 244.42 262.68 246.78 258.74
  A 0.36 0.36 0.0 0 0 246.53 258.20
  C 244.52 257.82 242.86 258.79 241.20 258.79
  C 226.62 258.83 227.74 247.17 228.97 236.76
  C 230.16 226.82 236.85 220.67 243.74 213.51
  Q 244.76 212.46 244.84 213.92
  Q 245.74 230.32 248.00 247.24
  Q 248.76 252.97 252.32 260.62
  Z"
/>
<path fill="#aeb3b7" d="
  M 303.46 243.25
  C 300.27 243.32 298.82 246.47 297.17 248.68
  C 295.69 250.65 293.28 251.96 292.08 254.68
  A 0.83 0.83 0.0 0 1 291.39 255.17
  Q 289.20 255.34 287.23 255.95
  Q 284.67 256.74 281.96 257.43
  Q 276.16 255.06 276.29 248.50
  Q 277.83 249.32 279.27 248.85
  A 0.60 0.59 -13.7 0 0 279.68 248.19
  L 279.46 246.85
  A 0.66 0.65 77.7 0 1 279.92 246.13
  C 281.70 245.59 287.85 244.40 287.25 241.79
  Q 294.51 240.07 301.95 239.83
  A 0.65 0.65 0.0 0 1 302.60 240.30
  L 303.46 243.25
  Z"
/>
<path fill="#c4c8cc" d="
  M 287.25 241.79
  C 287.85 244.40 281.70 245.59 279.92 246.13
  A 0.66 0.65 77.7 0 0 279.46 246.85
  L 279.68 248.19
  A 0.60 0.59 -13.7 0 1 279.27 248.85
  Q 277.83 249.32 276.29 248.50
  Q 275.42 244.51 279.25 243.50
  Q 284.21 242.18 287.25 241.79
  Z"
/>
<path fill="#cdd1d4" d="
  M 172.02 260.86
  Q 169.72 259.11 167.07 258.58
  Q 166.59 258.49 166.17 258.22
  L 165.04 257.50
  C 165.55 256.13 169.99 244.28 170.57 244.22
  A 0.39 0.39 0.0 0 1 171.00 244.62
  Q 170.80 252.65 172.02 260.86
  Z"
/>
<path fill="#aeb3b7" d="
  M 143.97 256.54
  L 134.55 265.59
  A 0.95 0.95 0.0 0 1 132.98 265.18
  L 131.08 258.84
  Q 130.47 256.81 132.57 256.61
  L 143.53 255.59
  Q 145.10 255.44 143.97 256.54
  Z"
/>
<path fill="#aeb3b7" d="
  M 165.04 257.50
  L 166.17 258.22
  Q 166.59 258.49 167.07 258.58
  Q 169.72 259.11 172.02 260.86
  L 173.38 268.46
  Q 173.90 271.35 175.97 269.27
  L 182.75 262.46
  L 185.00 262.79
  Q 180.98 266.05 178.09 270.09
  Q 177.48 270.93 178.52 270.92
  L 199.71 270.75
  L 199.76 271.21
  A 0.68 0.68 0.0 0 0 200.16 271.76
  Q 207.85 275.22 214.19 273.46
  Q 217.91 272.43 224.93 267.63
  Q 233.47 270.88 240.75 265.29
  Q 240.56 266.02 241.02 266.49
  A 0.81 0.80 -30.6 0 0 241.86 266.70
  L 245.24 265.62
  A 0.99 0.98 -89.3 0 0 245.88 264.99
  Q 246.68 262.68 248.29 261.54
  Q 249.75 260.51 252.32 260.62
  Q 255.13 265.10 260.06 264.06
  C 262.55 263.54 264.07 261.44 266.04 259.80
  A 0.30 0.30 0.0 0 1 266.52 259.97
  Q 267.31 263.80 270.25 266.21
  Q 268.19 266.04 267.30 267.56
  C 264.64 272.15 264.00 274.85 257.92 275.82
  Q 251.79 276.80 246.84 280.66
  A 0.64 0.64 0.0 0 1 246.00 280.61
  L 243.45 278.11
  A 1.43 1.38 70.7 0 0 242.70 277.73
  Q 232.12 275.97 225.98 284.55
  Q 224.88 286.09 222.99 286.06
  C 217.93 285.99 213.45 287.62 208.42 287.79
  C 203.30 287.97 198.38 289.78 193.27 287.89
  Q 188.67 286.20 184.79 288.95
  A 3.21 3.20 -57.7 0 1 182.41 289.49
  L 171.65 287.71
  A 1.97 1.94 38.8 0 0 170.66 287.81
  C 167.66 288.98 164.44 285.74 161.62 283.32
  A 1.90 1.84 69.5 0 0 160.76 282.91
  Q 156.99 282.27 154.44 279.50
  Q 158.83 276.48 161.74 272.25
  C 163.38 269.86 162.94 268.12 162.98 265.26
  Q 163.03 261.95 165.04 257.50
  Z"
/>
<path fill="#aeb3b7" d="
  M 152.96 278.00
  C 149.75 278.37 147.70 277.62 145.25 275.26
  Q 141.07 271.24 136.25 267.96
  L 146.71 258.03
  A 0.86 0.86 0.0 0 1 148.03 258.20
  Q 153.70 267.24 152.96 278.00
  Z"
/>
<path fill="#cdd1d4" d="
  M 114.60 273.00
  A 0.86 0.86 0.0 0 1 113.72 272.12
  Q 113.85 265.83 119.57 263.26
  A 0.50 0.50 0.0 0 1 120.27 263.61
  L 121.89 271.16
  A 1.40 1.40 0.0 0 1 120.56 272.85
  L 114.60 273.00
  Z"
/>
<path fill="#c4c8cc" d="
  M 224.93 267.63
  Q 217.91 272.43 214.19 273.46
  Q 207.85 275.22 200.16 271.76
  A 0.68 0.68 0.0 0 1 199.76 271.21
  L 199.71 270.75
  C 206.88 269.19 211.19 266.95 219.02 263.07
  A 0.64 0.64 0.0 0 1 219.79 263.23
  Q 221.98 265.78 224.93 267.63
  Z"
/>
</svg>
