<?xml version="1.0" encoding="UTF-8" standalone="no"?>
<!DOCTYPE svg PUBLIC "-//W3C//DTD SVG 1.1//EN" "http://www.w3.org/Graphics/SVG/1.1/DTD/svg11.dtd">
<svg xmlns="http://www.w3.org/2000/svg" version="1.1" viewBox="0 0 450 311">
<g stroke-width="2.00" fill="none" stroke-linecap="butt">
<path stroke="#ebebeb" vector-effect="non-scaling-stroke" d="
  M 220.26 -0.05
  Q 211.76 9.29 206.75 19.50
  Q 202.26 28.66 202.47 39.36"
/>
<path stroke="#868686" vector-effect="non-scaling-stroke" d="
  M 202.47 39.36
  C 190.29 41.20 178.93 47.34 168.77 53.89
  C 165.74 55.83 162.72 58.55 162.00 61.75
  C 161.37 64.59 156.89 84.92 155.65 85.74
  A 0.36 0.35 69.5 0 1 155.11 85.49
  Q 153.97 77.79 154.29 70.05
  C 154.50 65.12 155.90 58.19 156.07 52.12
  Q 156.11 50.77 154.96 51.48
  L 151.41 53.68
  A 0.29 0.29 0.0 0 1 150.97 53.46
  C 150.33 46.97 147.05 40.98 139.77 40.24
  C 125.83 38.81 121.95 47.99 113.68 54.66
  A 0.40 0.40 0.0 0 1 113.07 54.53
  C 110.61 49.58 108.24 44.04 101.76 43.79
  Q 82.26 43.05 71.17 58.37
  C 68.24 62.42 66.57 65.31 67.36 70.09
  A 0.54 0.53 -23.9 0 0 68.22 70.42
  L 71.28 67.96
  Q 71.90 67.47 71.83 68.26
  Q 71.34 74.28 71.21 80.25
  C 70.62 108.04 70.16 136.30 71.80 164.05
  A 0.35 0.35 0.0 0 0 72.32 164.34
  Q 75.91 162.42 78.54 159.37
  Q 80.06 157.62 80.01 155.29
  C 79.28 123.46 78.62 91.06 80.42 60.17
  C 80.65 56.30 80.35 53.59 85.13 52.83
  C 93.68 51.47 99.93 51.55 103.31 60.93
  A 2.00 1.99 -29.1 0 1 102.67 63.16
  C 95.68 68.72 82.36 82.00 80.69 91.06
  C 79.90 95.35 80.82 102.66 86.95 102.13
  C 97.16 101.26 100.55 95.49 107.53 89.47
  A 0.41 0.41 0.0 0 1 108.15 89.58
  C 112.77 97.99 120.93 104.63 130.54 100.48
  C 136.27 98.01 141.36 91.95 145.15 86.56
  Q 145.74 85.72 145.70 86.74
  C 145.58 90.10 146.97 100.53 153.04 96.38
  Q 159.24 92.13 162.42 85.18
  Q 162.82 84.30 162.84 85.26
  Q 162.98 91.32 165.33 96.85
  A 1.42 1.42 0.0 0 0 167.42 97.48
  L 169.85 95.89
  A 0.92 0.91 -49.3 0 1 170.70 95.82
  C 178.14 99.07 188.20 101.80 195.77 97.44
  A 0.37 0.37 0.0 0 1 196.32 97.69
  L 197.43 103.95
  Q 197.84 106.25 199.52 104.63
  L 206.90 97.57
  A 1.06 1.05 26.3 0 1 207.76 97.28
  L 216.38 98.25"
/>
<path stroke="#e5e5e5" vector-effect="non-scaling-stroke" d="
  M 216.38 98.25
  Q 215.50 106.80 212.98 114.96"
/>
<path stroke="#ebebeb" vector-effect="non-scaling-stroke" d="
  M 212.98 114.96
  Q 200.07 107.47 190.60 117.65
  A 1.35 1.32 67.3 0 0 190.25 118.53
  L 190.25 119.46"
/>
<path stroke="#868686" vector-effect="non-scaling-stroke" d="
  M 190.25 119.46
  C 179.33 119.40 169.16 120.32 160.23 126.47
  A 0.38 0.38 0.0 0 1 159.66 126.28
  C 158.38 122.62 157.13 119.72 153.51 119.39
  Q 139.75 118.12 124.24 120.94
  Q 112.23 123.12 108.44 132.87
  Q 106.53 137.78 106.76 150.80
  Q 106.98 162.83 108.06 175.46
  Q 108.32 178.51 110.90 176.87
  C 114.93 174.32 117.01 171.06 117.39 166.07
  Q 118.49 151.46 132.35 152.16
  C 140.40 152.56 142.17 165.04 141.36 170.84
  A 2.31 2.31 0.0 0 1 139.80 172.71
  C 129.36 176.14 118.00 169.33 111.66 181.85
  A 0.34 0.34 0.0 0 0 111.94 182.34
  C 126.89 183.24 138.53 182.51 147.50 168.91
  C 151.45 162.91 150.75 157.47 148.46 150.99
  C 142.29 133.57 121.90 149.77 115.99 157.90
  Q 115.50 158.58 115.50 157.75
  L 115.50 132.27
  Q 115.50 129.62 118.12 129.23
  Q 130.56 127.33 142.69 127.78
  C 147.66 127.97 150.60 129.37 150.65 134.69
  Q 150.82 154.84 150.78 163.00
  C 150.76 167.96 151.16 175.43 154.89 179.15
  A 1.53 1.50 72.1 0 0 155.73 179.59
  C 159.37 180.22 163.64 179.79 166.28 179.81
  Q 173.97 179.86 181.80 179.26"
/>
<path stroke="#ebebeb" vector-effect="non-scaling-stroke" d="
  M 181.80 179.26
  Q 179.45 184.26 176.54 188.91
  Q 176.04 189.71 173.22 192.90
  Q 170.43 196.06 170.09 200.41"
/>
<path stroke="#868686" vector-effect="non-scaling-stroke" d="
  M 170.09 200.41
  Q 165.93 203.39 164.04 208.25"
/>
<path stroke="#ebebeb" vector-effect="non-scaling-stroke" d="
  M 164.04 208.25
  L 160.99 216.09
  A 1.17 1.15 -0.7 0 1 160.34 216.75
  L 159.04 217.25"
/>
<path stroke="#868686" vector-effect="non-scaling-stroke" d="
  M 159.04 217.25
  C 157.82 204.48 146.60 202.03 135.96 202.83
  C 125.96 203.57 122.81 211.02 116.88 217.27
  A 0.74 0.71 -56.2 0 1 116.08 217.44
  Q 109.93 214.85 103.21 217.28
  Q 102.95 217.37 102.77 217.21
  A 0.46 0.46 0.0 0 1 102.74 216.56
  C 107.47 211.55 112.33 204.50 109.09 198.21
  A 1.92 1.92 0.0 0 0 107.57 197.18
  Q 92.59 195.74 79.18 202.34
  A 0.48 0.48 0.0 0 1 78.49 201.91
  L 78.51 198.50
  A 0.41 0.41 0.0 0 0 77.94 198.12
  C 70.91 201.05 69.40 205.97 70.05 213.46
  C 70.67 220.74 72.08 229.08 71.33 236.32
  A 1.74 1.71 35.7 0 0 71.49 237.24
  L 71.90 238.12
  Q 72.12 238.61 72.18 239.15
  L 73.32 250.97
  A 1.32 1.31 -29.3 0 1 73.06 251.89
  C 69.17 256.87 57.36 269.67 73.42 269.50
  A 0.69 0.69 0.0 0 1 74.09 269.97
  Q 75.24 273.28 74.75 276.70
  Q 74.64 277.46 75.26 277.01
  Q 77.68 275.27 79.95 273.36
  C 82.91 270.85 82.37 268.68 87.01 267.60
  Q 101.71 264.16 111.52 254.05
  Q 112.53 253.01 112.74 254.44
  Q 113.78 261.38 118.79 262.63
  Q 124.15 263.97 130.14 263.24"
/>
<path stroke="#ebebeb" vector-effect="non-scaling-stroke" d="
  M 130.14 263.24
  Q 129.48 267.20 127.46 272.70
  C 122.87 285.20 132.65 294.97 144.68 295.13
  A 0.81 0.80 72.6 0 1 145.34 295.48
  L 145.54 295.75"
/>
<path stroke="#e5e5e5" vector-effect="non-scaling-stroke" d="
  M 145.54 295.75
  L 125.43 309.90
  A 0.45 0.45 0.0 0 0 125.39 310.61
  C 125.71 310.90 128.78 310.70 129.94 311.00"
/>
<path stroke="#ebebeb" vector-effect="non-scaling-stroke" d="
  M 107.69 311.00
  Q 112.23 311.16 111.87 306.72
  C 110.16 286.05 81.91 295.22 71.99 302.25
  Q 67.56 305.39 62.13 310.95"
/>
<path stroke="#868686" vector-effect="non-scaling-stroke" d="
  M 66.17 24.10
  C 70.46 21.80 77.29 19.20 82.22 19.57
  A 0.51 0.51 0.0 0 1 82.67 19.95
  L 83.20 22.00
  A 0.48 0.48 0.0 0 0 83.89 22.30
  C 87.38 20.38 91.70 16.38 91.41 11.83
  A 0.66 0.66 0.0 0 0 90.88 11.22
  Q 87.85 10.63 85.17 11.37
  C 66.83 16.44 49.74 27.69 35.23 39.96
  Q 33.70 41.25 31.97 45.00
  A 0.37 0.36 37.9 0 0 32.02 45.39
  L 32.20 45.60
  A 0.40 0.39 -41.5 0 0 32.76 45.63
  Q 43.17 35.94 55.85 29.42
  Q 56.31 29.18 56.25 29.69
  C 53.60 50.36 52.90 71.23 53.66 91.06
  Q 54.10 102.73 59.46 114.17
  A 0.69 0.69 0.0 0 0 60.32 114.52
  Q 64.81 112.80 67.69 108.98
  A 2.45 2.45 0.0 0 0 67.97 106.49
  C 60.18 89.20 61.83 73.54 62.47 49.57
  Q 62.78 38.23 64.22 26.94
  Q 64.46 25.02 66.17 24.10"
/>
<path stroke="#c5c5c5" vector-effect="non-scaling-stroke" d="
  M 267.25 -0.05
  Q 264.38 4.71 260.58 8.72
  A 0.36 0.36 0.0 0 1 260.00 8.62
  C 258.59 5.57 262.04 3.54 263.91 1.75
  Q 265.03 0.68 263.53 0.29
  C 262.02 -0.11 259.57 3.42 258.10 4.40
  A 0.77 0.76 67.7 0 0 257.78 5.17
  C 258.01 6.49 257.93 8.64 256.29 8.42
  A 1.24 1.23 -13.9 0 1 255.45 7.92
  L 254.72 6.90
  A 0.86 0.85 -43.4 0 0 253.36 6.87
  Q 248.10 13.38 244.46 20.25"
/>
<path stroke="#d1d1d1" vector-effect="non-scaling-stroke" d="
  M 244.46 20.25
  C 241.37 24.54 237.90 28.29 236.54 33.50"
/>
<path stroke="#c5c5c5" vector-effect="non-scaling-stroke" d="
  M 236.54 33.50
  Q 235.68 35.20 234.97 36.99
  C 233.87 39.79 231.59 41.39 230.34 44.25
  A 0.80 0.78 -77.8 0 1 229.62 44.73
  L 228.29 44.75"
/>
<path stroke="#727272" vector-effect="non-scaling-stroke" d="
  M 228.29 44.75
  Q 227.82 44.21 227.31 44.56
  Q 216.24 52.34 208.54 57.25"
/>
<path stroke="#ebebeb" vector-effect="non-scaling-stroke" d="
  M 208.54 57.25
  Q 207.30 54.11 204.35 52.64"
/>
<path stroke="#727272" vector-effect="non-scaling-stroke" d="
  M 204.35 52.64
  L 204.16 45.84
  A 0.49 0.49 0.0 0 0 203.52 45.39
  L 202.26 45.80
  Q 201.47 46.06 201.91 45.36
  Q 203.40 42.95 203.34 40.14
  A 0.72 0.72 0.0 0 0 202.82 39.46
  L 202.47 39.36"
/>
<path stroke="#bfbfbf" vector-effect="non-scaling-stroke" d="
  M 283.31 0.00
  Q 283.73 0.06 283.97 0.28
  Q 284.40 0.67 283.84 0.83
  Q 282.56 1.19 282.01 1.77
  C 271.66 12.81 258.99 23.86 249.26 32.73
  Q 242.77 38.64 236.15 44.42
  A 0.74 0.73 52.2 0 0 236.03 45.39
  Q 236.31 45.79 236.75 45.79"
/>
<path stroke="#5f5f5f" vector-effect="non-scaling-stroke" d="
  M 236.75 45.79
  Q 229.42 48.73 222.79 53.00"
/>
<path stroke="#d9d9d9" vector-effect="non-scaling-stroke" d="
  M 222.79 53.00
  Q 223.33 52.06 222.50 51.71"
/>
<path stroke="#5f5f5f" vector-effect="non-scaling-stroke" d="
  M 222.50 51.71
  Q 225.97 48.69 228.29 44.75"
/>
<path stroke="#bfbfbf" vector-effect="non-scaling-stroke" d="
  M 236.54 33.50
  Q 236.66 33.19 236.86 33.09
  A 0.41 0.41 0.0 0 1 237.46 33.43
  L 237.50 34.25
  A 0.35 0.34 73.2 0 0 238.02 34.53
  C 239.12 33.89 241.20 29.43 242.44 27.89
  A 1.33 1.33 0.0 0 0 242.74 27.02
  L 242.74 26.52
  A 1.69 1.66 -30.9 0 1 242.97 25.64
  Q 244.41 23.13 244.46 20.25"
/>
<path stroke="#e5e5e5" vector-effect="non-scaling-stroke" d="
  M 354.56 0.00
  Q 354.84 0.78 354.27 1.45
  Q 353.92 1.86 354.46 1.93
  L 354.97 1.99
  A 1.06 1.06 0.0 0 0 355.86 1.69
  L 357.56 0.00"
/>
<path stroke="#e5e5e5" vector-effect="non-scaling-stroke" d="
  M 362.31 0.00
  Q 362.26 1.27 361.25 2.16
  A 0.97 0.95 66.6 0 0 360.93 3.00
  Q 360.98 3.42 361.50 3.54"
/>
<path stroke="#bfbfbf" vector-effect="non-scaling-stroke" d="
  M 361.50 3.54
  L 359.57 5.50
  A 0.14 0.13 -43.4 0 1 359.38 5.50
  L 359.12 5.25
  A 0.51 0.51 0.0 0 1 359.13 4.50
  L 359.50 4.15
  Q 360.31 3.41 359.23 3.61
  C 357.42 3.95 355.01 3.77 353.44 4.55
  Q 339.04 11.69 327.73 23.73
  Q 319.77 32.21 321.08 43.72"
/>
<path stroke="#6c6c6c" vector-effect="non-scaling-stroke" d="
  M 321.08 43.72
  L 317.94 45.38
  A 0.63 0.63 0.0 0 1 317.15 45.22
  C 313.94 41.34 310.48 38.33 305.26 38.58
  C 296.64 38.99 289.71 43.43 284.71 51.01
  Q 284.28 51.65 285.05 51.54
  Q 287.05 51.25 288.36 49.73
  Q 288.80 49.22 288.80 49.89
  C 288.76 55.00 290.04 67.04 286.82 70.92
  Q 286.48 71.32 286.42 70.80
  C 286.11 68.23 286.22 65.68 285.43 63.30
  C 282.09 53.23 274.08 39.95 261.76 41.24
  A 0.39 0.39 0.0 0 1 261.34 40.75
  L 261.99 38.25
  A 1.27 1.27 0.0 0 0 260.55 36.68
  C 252.10 38.10 244.47 42.31 236.75 45.79"
/>
<path stroke="#e5e5e5" vector-effect="non-scaling-stroke" d="
  M 226.21 311.02
  L 236.45 299.18
  A 0.60 0.59 -42.9 0 0 236.48 298.44
  Q 236.06 297.86 236.46 297.25"
/>
<path stroke="#868686" vector-effect="non-scaling-stroke" d="
  M 236.46 297.25
  Q 241.02 293.84 244.25 289.21"
/>
<path stroke="#e5e5e5" vector-effect="non-scaling-stroke" d="
  M 244.25 289.21
  C 248.68 285.64 251.45 279.21 253.11 273.85
  A 1.14 1.13 -2.3 0 1 253.79 273.12
  L 254.59 272.82
  Q 255.21 272.58 254.60 272.31
  C 252.42 271.38 255.12 267.07 256.30 266.19
  Q 257.54 265.28 257.09 266.75
  L 256.42 268.97
  Q 256.25 269.54 256.75 269.22
  C 260.41 266.83 262.34 259.78 262.77 255.73
  A 0.59 0.58 2.7 0 1 263.36 255.20
  Q 263.90 255.20 264.21 255.75"
/>
<path stroke="#868686" vector-effect="non-scaling-stroke" d="
  M 264.21 255.75
  C 265.46 259.44 268.63 258.83 271.27 257.05
  Q 277.71 252.69 281.30 245.65
  A 0.36 0.35 -75.2 0 0 281.00 245.13
  C 279.49 245.09 275.90 248.82 274.80 249.94
  Q 273.31 251.46 273.24 249.33
  L 273.04 243.81
  A 0.86 0.85 -7.2 0 1 273.72 242.94
  L 287.77 240.00
  A 1.16 1.16 0.0 0 1 289.13 240.85
  Q 291.21 248.86 295.40 255.99
  A 0.53 0.52 52.6 0 0 296.22 256.10
  L 302.32 250.07
  Q 303.74 248.66 302.94 246.83
  L 299.20 238.35
  A 0.70 0.69 -29.5 0 1 299.44 237.50
  Q 303.81 234.46 307.08 230.19
  Q 308.20 228.72 306.39 229.11
  L 297.70 230.94
  A 0.66 0.65 78.4 0 1 296.92 230.42
  Q 294.68 218.82 292.23 207.25
  Q 291.59 204.19 290.18 202.65
  A 1.25 1.24 22.0 0 1 289.86 201.90
  L 289.54 197.78
  A 0.67 0.66 1.1 0 0 288.94 197.17
  Q 284.81 196.72 281.00 198.29"
/>
<path stroke="#e5e5e5" vector-effect="non-scaling-stroke" d="
  M 281.00 198.29
  Q 278.84 198.35 277.91 196.77
  A 0.58 0.57 55.9 0 1 278.05 196.02
  C 280.39 194.17 280.30 191.60 281.38 189.46
  Q 283.16 185.93 283.50 181.89
  A 0.66 0.65 -77.8 0 0 283.07 181.22
  Q 281.99 180.83 282.03 179.77
  A 0.75 0.74 82.2 0 1 282.54 179.09
  L 283.18 178.87
  A 0.57 0.57 0.0 0 0 283.53 178.11
  C 281.68 173.56 286.05 166.70 286.27 163.75
  C 286.76 156.97 286.86 148.47 288.90 142.03
  C 289.69 139.56 289.57 137.66 289.39 135.25
  A 0.54 0.54 0.0 0 0 288.84 134.75
  L 288.55 134.76
  A 0.65 0.64 6.0 0 0 287.95 135.24
  C 287.47 137.02 283.12 153.60 282.61 153.71
  A 0.30 0.29 -3.7 0 1 282.25 153.40
  C 282.67 149.31 284.02 145.34 284.55 141.49
  C 285.19 136.76 286.21 132.83 286.88 127.45
  Q 287.31 123.99 288.96 120.94"
/>
<path stroke="#868686" vector-effect="non-scaling-stroke" d="
  M 288.96 120.94
  Q 291.40 137.57 295.26 153.83
  A 0.45 0.45 0.0 0 0 295.94 154.10
  Q 299.97 151.42 303.00 147.64
  A 2.64 2.62 -31.6 0 0 303.53 145.46
  C 300.34 129.94 296.68 114.50 297.28 98.06
  A 0.65 0.65 0.0 0 1 297.79 97.45
  C 306.93 95.28 323.40 84.73 323.77 74.03
  Q 324.14 63.03 320.96 52.50"
/>
<path stroke="#e5e5e5" vector-effect="non-scaling-stroke" d="
  M 320.96 52.50
  Q 322.95 51.67 324.07 48.74"
/>
<path stroke="#868686" vector-effect="non-scaling-stroke" d="
  M 324.07 48.74
  Q 327.03 51.10 326.73 55.01
  C 326.18 62.15 326.49 69.55 326.51 76.73
  C 326.52 82.06 324.62 85.58 321.34 89.38
  A 0.74 0.72 28.6 0 1 320.56 89.60
  Q 319.89 89.39 319.56 89.54
  Q 313.09 92.53 311.60 99.85
  Q 310.81 103.70 314.38 102.07
  C 318.12 100.37 323.41 93.21 325.96 89.81
  Q 326.26 89.42 326.36 89.90
  Q 327.44 94.92 330.82 98.45
  C 336.57 104.47 342.18 96.75 345.73 92.97
  A 0.33 0.33 0.0 0 1 346.26 93.06
  L 349.63 100.22
  A 0.76 0.76 0.0 0 1 349.51 101.06
  C 347.06 103.80 319.66 134.04 319.78 137.27
  Q 319.80 137.82 320.25 137.50
  Q 324.42 134.49 326.85 131.59
  Q 338.40 117.78 350.75 103.27
  Q 352.30 101.45 354.33 102.70
  C 358.50 105.24 367.25 95.76 369.38 92.67
  A 0.48 0.48 0.0 0 0 369.20 91.97
  C 368.75 91.74 365.04 94.13 364.36 94.49
  A 1.49 1.44 -53.3 0 1 363.44 94.64
  Q 361.70 94.36 360.35 93.27
  A 0.58 0.58 0.0 0 1 360.29 92.43
  Q 368.24 83.70 376.95 75.73
  Q 377.98 74.79 378.26 76.16
  C 379.59 82.45 381.56 89.92 386.08 94.72
  Q 387.55 96.28 389.45 95.28
  C 399.95 89.75 398.41 81.86 397.94 71.76
  C 397.60 64.56 392.50 59.74 385.76 57.81
  A 0.69 0.68 -85.7 0 1 385.26 57.22
  L 382.95 38.68
  Q 382.65 36.34 380.64 37.57
  C 374.58 41.23 373.36 45.83 375.59 52.50
  A 1.24 1.24 0.0 0 1 374.25 54.12
  C 367.77 53.26 358.30 63.40 358.41 69.67
  Q 358.46 72.60 361.24 73.51
  Q 367.69 75.61 374.28 74.08
  Q 375.29 73.84 374.55 74.58
  L 358.35 90.76
  A 0.47 0.47 0.0 0 1 357.61 90.66
  Q 354.06 84.47 354.04 75.50
  C 354.03 71.76 354.68 46.54 353.03 45.29
  A 0.48 0.47 33.3 0 1 352.90 44.69
  L 354.59 41.63
  Q 355.16 40.62 354.15 41.20
  C 346.10 45.80 340.96 56.20 335.65 65.92
  A 0.15 0.14 13.2 0 1 335.52 66.00
  L 335.24 66.00
  A 0.11 0.11 0.0 0 1 335.13 65.89
  L 335.29 46.50"
/>
<path stroke="#ebebeb" vector-effect="non-scaling-stroke" d="
  M 335.29 46.50
  C 341.02 46.53 344.11 43.53 348.64 41.34
  Q 353.16 39.16 355.65 37.72
  C 366.40 31.51 376.91 27.46 388.27 20.10
  C 393.79 16.52 392.76 9.71 388.03 6.47
  Q 380.68 1.43 370.47 0.98"
/>
<path stroke="#d9d9d9" vector-effect="non-scaling-stroke" d="
  M 370.47 0.98
  Q 368.33 -0.27 366.06 0.26
  Q 365.58 0.37 365.19 0.67
  L 361.50 3.54"
/>
<path stroke="#868686" vector-effect="non-scaling-stroke" d="
  M 314.45 204.72
  C 315.10 224.37 315.76 241.59 324.24 259.76
  A 0.62 0.62 0.0 0 0 325.21 259.96
  L 331.38 254.54
  Q 333.48 252.69 332.23 250.20
  C 325.19 236.19 323.31 218.59 323.78 203.22
  A 1.29 1.27 -2.1 0 1 324.94 201.99
  Q 341.22 200.44 357.51 201.67
  Q 359.73 201.83 358.87 203.89
  L 358.39 205.03
  Q 358.22 205.42 358.27 205.85
  Q 358.66 209.15 355.73 212.21
  Q 348.27 220.01 342.55 232.62
  Q 342.33 233.10 341.91 233.41
  Q 338.68 235.81 336.81 239.37
  A 0.50 0.50 0.0 0 0 337.27 240.10
  L 339.73 240.02
  A 0.40 0.40 0.0 0 1 340.14 240.48
  C 339.07 247.08 335.75 262.15 348.06 260.05
  C 354.50 258.95 361.42 250.42 364.39 245.00
  A 0.53 0.53 0.0 0 0 364.26 244.33
  C 363.26 243.51 357.62 249.63 356.82 250.74
  A 1.46 1.42 10.9 0 1 355.95 251.31
  Q 352.01 252.16 348.68 249.92
  A 1.28 1.26 -73.4 0 1 348.13 248.89
  L 347.98 240.00
  A 1.10 1.09 85.9 0 1 348.92 238.90
  L 365.52 236.53
  A 0.71 0.71 0.0 0 1 366.28 236.98
  L 374.03 257.19
  A 0.58 0.58 0.0 0 0 374.98 257.39
  L 382.32 250.05
  A 0.83 0.83 0.0 0 0 382.51 249.17
  L 376.10 232.44
  A 1.02 0.99 51.0 0 1 376.18 231.57
  C 376.57 230.92 379.12 228.38 379.09 227.77
  A 0.56 0.55 -1.6 0 0 378.53 227.25
  L 374.78 227.25
  A 0.95 0.95 0.0 0 1 373.87 226.57
  L 368.60 208.16
  A 2.79 2.77 59.3 0 1 369.28 205.46
  L 375.07 199.47
  Q 376.98 197.50 374.54 196.24
  C 365.01 191.32 350.61 192.53 339.95 192.96
  C 326.67 193.51 305.54 197.89 297.36 209.60
  Q 297.25 209.75 297.23 209.91
  Q 297.21 210.05 297.21 210.18
  A 0.28 0.27 -10.0 0 0 297.58 210.43
  L 313.78 204.27
  A 0.50 0.50 0.0 0 1 314.45 204.72"
/>
<path stroke="#c5c5c5" vector-effect="non-scaling-stroke" d="
  M 370.47 0.98
  Q 370.28 1.71 370.89 3.13
  A 1.08 1.05 -44.3 0 1 370.87 4.01
  Q 369.88 5.99 367.70 6.34
  A 0.99 0.99 0.0 0 0 367.00 6.81
  C 364.40 11.10 356.74 15.42 352.35 17.97
  Q 351.88 18.25 351.96 17.71
  L 352.20 16.16
  Q 352.31 15.46 351.66 15.73
  Q 346.53 17.88 343.10 22.60
  Q 339.28 27.86 329.52 40.50"
/>
<path stroke="#5f5f5f" vector-effect="non-scaling-stroke" d="
  M 329.52 40.50
  L 321.08 43.72"
/>
<path stroke="#727272" vector-effect="non-scaling-stroke" d="
  M 335.29 46.50
  L 334.15 40.87
  A 0.63 0.63 0.0 0 0 333.51 40.36
  L 329.52 40.50"
/>
<path stroke="#6c6c6c" vector-effect="non-scaling-stroke" d="
  M 324.07 48.74
  L 320.48 49.97
  A 0.52 0.51 68.8 0 0 320.18 50.66
  L 320.96 52.50"
/>
<path stroke="#6c6c6c" vector-effect="non-scaling-stroke" d="
  M 288.96 120.94
  L 288.58 98.01
  A 0.83 0.82 13.7 0 0 288.13 97.28
  C 283.77 94.99 283.88 91.92 283.10 87.66
  Q 282.78 85.92 281.76 87.36
  C 277.60 93.19 269.79 101.60 261.75 100.18
  C 257.61 99.45 254.74 99.98 250.68 98.37
  A 0.67 0.67 0.0 0 0 249.92 98.56
  C 247.90 101.01 246.09 99.20 244.73 97.48
  A 0.46 0.45 50.0 0 0 244.07 97.42
  L 240.53 100.51
  A 1.27 1.26 57.8 0 1 238.53 100.05
  C 236.17 94.48 235.76 88.62 236.02 82.64
  Q 236.05 81.93 235.66 82.52
  Q 228.39 93.46 216.38 98.25"
/>
<path stroke="#868686" vector-effect="non-scaling-stroke" d="
  M 204.35 52.64
  L 204.29 59.43
  Q 204.28 59.96 204.73 59.67
  L 208.54 57.25"
/>
<path stroke="#868686" vector-effect="non-scaling-stroke" d="
  M 222.50 51.71
  L 204.65 63.80
  A 0.91 0.90 -17.1 0 0 204.25 64.55
  L 204.25 83.18
  A 0.95 0.93 -71.7 0 0 204.62 83.93
  Q 210.02 88.03 216.71 89.00"
/>
<path stroke="#6c6c6c" vector-effect="non-scaling-stroke" d="
  M 216.71 89.00
  L 225.25 89.13
  Q 227.01 89.15 228.03 87.72
  Q 233.24 80.37 235.21 71.46
  C 236.64 64.99 235.15 57.94 237.41 51.28
  Q 237.58 50.78 237.10 51.00
  L 225.21 56.51"
/>
<path stroke="#868686" vector-effect="non-scaling-stroke" d="
  M 225.21 56.51
  Q 221.38 57.69 218.39 59.80
  A 0.40 0.40 0.0 0 1 217.78 59.60
  C 217.20 57.89 221.53 53.93 222.79 53.00"
/>
<path stroke="#6c6c6c" vector-effect="non-scaling-stroke" d="
  M 245.52 54.36
  A 0.31 0.31 0.0 0 0 246.08 54.55
  L 252.91 45.65
  A 0.31 0.31 0.0 0 0 252.58 45.16
  L 245.81 47.04
  A 0.31 0.31 0.0 0 0 245.58 47.33
  L 245.52 54.36"
/>
<path stroke="#6c6c6c" vector-effect="non-scaling-stroke" d="
  M 306.26 50.64
  Q 302.78 47.29 297.91 47.20
  A 0.65 0.65 0.0 0 0 297.25 47.85
  L 297.24 58.73
  Q 297.24 59.29 297.68 58.93
  L 306.21 51.83
  A 0.81 0.80 -42.7 0 0 306.26 50.64"
/>
<path stroke="#868686" vector-effect="non-scaling-stroke" d="
  M 192.24 54.65
  L 194.74 49.45
  A 1.03 1.02 -46.0 0 0 194.73 48.56
  C 193.44 46.01 174.02 54.61 171.36 56.79
  A 1.23 1.20 -16.5 0 0 170.92 57.58
  Q 170.41 61.95 171.30 66.23
  A 0.41 0.40 65.0 0 0 171.94 66.47
  C 177.81 61.94 188.19 59.54 195.01 58.08
  A 0.62 0.60 84.2 0 0 195.49 57.48
  L 195.51 53.70
  Q 195.51 52.71 194.87 53.48
  Q 194.03 54.50 192.91 55.23
  Q 191.54 56.12 192.24 54.65"
/>
<path stroke="#868686" vector-effect="non-scaling-stroke" d="
  M 137.06 50.44
  Q 133.29 47.94 127.72 48.86
  A 0.77 0.76 1.1 0 0 127.11 49.44
  C 125.37 57.05 123.07 64.67 122.47 72.25
  Q 122.14 76.55 121.73 83.25
  C 121.24 91.29 130.89 91.04 136.27 90.26
  Q 138.77 89.90 139.69 87.54
  C 142.41 80.57 145.32 55.91 137.06 50.44"
/>
<path stroke="#6c6c6c" vector-effect="non-scaling-stroke" d="
  M 255.19 87.81
  C 260.32 91.54 264.79 90.87 270.24 92.00
  C 279.88 93.99 278.00 73.97 276.27 69.61
  C 272.90 61.14 267.67 52.45 258.40 49.73
  Q 256.19 49.09 255.26 51.19
  Q 253.01 56.34 252.01 62.73
  C 250.88 69.98 248.35 82.84 255.19 87.81"
/>
<path stroke="#6c6c6c" vector-effect="non-scaling-stroke" d="
  M 297.29 76.75
  L 297.29 80.00"
/>
<path stroke="#868686" vector-effect="non-scaling-stroke" d="
  M 297.29 80.00
  L 297.35 88.85
  A 0.55 0.55 0.0 0 0 297.87 89.39
  C 302.94 89.70 315.54 88.19 315.49 81.01
  Q 315.44 73.76 313.71 65.75"
/>
<path stroke="#6c6c6c" vector-effect="non-scaling-stroke" d="
  M 313.71 65.75
  Q 313.12 61.61 311.04 58.00"
/>
<path stroke="#868686" vector-effect="non-scaling-stroke" d="
  M 311.04 58.00
  Q 310.73 55.97 309.05 55.15
  A 1.11 1.10 -45.3 0 0 308.05 55.16
  Q 302.56 58.07 297.80 62.08
  A 1.20 1.20 0.0 0 0 297.38 62.97
  L 297.29 76.75"
/>
<path stroke="#e5e5e5" vector-effect="non-scaling-stroke" d="
  M 311.04 58.00
  Q 306.18 66.16 302.80 75.06
  Q 302.51 75.81 302.09 75.14
  L 301.79 74.67
  A 0.48 0.48 0.0 0 0 301.01 74.62
  Q 299.51 76.48 297.29 76.75"
/>
<path stroke="#e5e5e5" vector-effect="non-scaling-stroke" d="
  M 313.71 65.75
  C 309.38 68.85 311.17 72.86 308.52 76.44
  Q 307.64 77.64 307.95 76.19
  Q 308.29 74.58 309.11 73.10
  A 0.18 0.18 0.0 0 0 309.01 72.84
  L 308.72 72.74
  A 0.42 0.42 0.0 0 0 308.24 72.90
  C 306.99 74.78 305.94 76.04 304.47 78.42
  Q 302.28 81.97 297.29 80.00"
/>
<path stroke="#868686" vector-effect="non-scaling-stroke" d="
  M 344.10 59.45
  C 340.87 64.29 335.57 71.19 335.03 76.82
  C 334.44 82.92 337.03 93.16 345.32 92.03
  A 0.51 0.51 0.0 0 0 345.77 91.48
  Q 344.56 75.65 345.10 59.77
  Q 345.17 57.84 344.10 59.45"
/>
<path stroke="#868686" vector-effect="non-scaling-stroke" d="
  M 193.51 89.60
  C 188.37 83.72 191.08 74.01 195.28 68.43
  A 1.58 1.50 65.0 0 0 195.58 67.54
  L 195.66 60.62
  Q 195.66 59.88 195.14 60.40
  C 192.41 63.14 189.87 66.07 185.92 67.05
  Q 179.89 68.54 174.03 70.65
  A 0.47 0.46 -22.0 0 0 173.76 71.28
  C 176.24 76.81 175.47 80.36 175.88 85.56
  A 0.94 0.92 -79.6 0 0 176.40 86.33
  Q 184.71 90.33 193.92 91.26
  A 0.58 0.57 81.1 0 0 194.50 90.46
  Q 194.38 90.18 194.19 90.06
  Q 193.60 89.71 193.51 89.60"
/>
<path stroke="#868686" vector-effect="non-scaling-stroke" d="
  M 376.0835 66.0480
  A 4.76 0.76 15.2 0 0 371.6893 64.0666
  A 4.76 0.76 15.2 0 0 366.8965 63.5520
  A 4.76 0.76 15.2 0 0 371.2907 65.5334
  A 4.76 0.76 15.2 0 0 376.0835 66.0480"
/>
<path stroke="#868686" vector-effect="non-scaling-stroke" d="
  M 91.84 92.57
  C 93.93 94.00 95.11 93.56 97.74 93.02
  C 109.74 90.53 106.49 73.08 105.08 65.20
  A 0.32 0.32 0.0 0 0 104.58 64.99
  C 97.63 69.89 86.94 80.12 89.70 89.62
  Q 90.23 91.48 91.84 92.57"
/>
<path stroke="#e5e5e5" vector-effect="non-scaling-stroke" d="
  M 216.71 89.00
  L 218.46 83.13
  Q 218.59 82.66 218.89 82.27
  C 222.34 77.71 221.54 73.34 222.43 68.08
  A 0.29 0.28 -82.0 0 0 222.19 67.75
  L 221.92 67.71
  A 0.44 0.43 -76.0 0 1 221.58 67.13
  L 225.21 56.51"
/>
<path stroke="#6c6c6c" vector-effect="non-scaling-stroke" d="
  M 281.00 198.29
  L 274.79 201.50"
/>
<path stroke="#e5e5e5" vector-effect="non-scaling-stroke" d="
  M 274.79 201.50
  L 275.04 199.39
  Q 275.10 198.91 275.33 198.48
  C 277.14 195.18 278.18 190.97 275.37 187.86
  A 0.58 0.57 51.5 0 0 274.62 187.77
  C 269.85 191.02 271.33 194.29 268.35 198.34
  A 1.30 1.29 -30.0 0 0 268.11 199.23
  Q 268.43 202.06 266.46 204.25"
/>
<path stroke="#6c6c6c" vector-effect="non-scaling-stroke" d="
  M 266.46 204.25
  C 263.50 196.73 258.26 198.04 251.75 197.96"
/>
<path stroke="#bfbfbf" vector-effect="non-scaling-stroke" d="
  M 251.75 197.96
  Q 251.92 195.73 251.77 193.52
  Q 250.95 181.78 251.03 169.99
  Q 251.04 168.94 251.89 166.47
  A 1.50 1.48 46.5 0 0 251.91 165.52
  C 251.05 162.73 248.73 152.28 245.71 151.75"
/>
<path stroke="#6c6c6c" vector-effect="non-scaling-stroke" d="
  M 245.71 151.75
  C 245.93 146.14 245.98 139.28 239.46 137.50"
/>
<path stroke="#bfbfbf" vector-effect="non-scaling-stroke" d="
  M 239.46 137.50
  Q 239.82 135.44 238.38 134.11
  Q 230.92 127.26 223.67 120.21
  C 221.62 118.22 215.68 112.87 213.29 116.75"
/>
<path stroke="#d1d1d1" vector-effect="non-scaling-stroke" d="
  M 213.29 116.75
  Q 212.91 115.93 212.98 114.96"
/>
<path stroke="#e5e5e5" vector-effect="non-scaling-stroke" d="
  M 267.4238 164.9897
  A 1.00 0.48 91.5 0 0 267.9298 164.0026
  A 1.00 0.48 91.5 0 0 267.4762 162.9903
  A 1.00 0.48 91.5 0 0 266.9702 163.9774
  A 1.00 0.48 91.5 0 0 267.4238 164.9897"
/>
<path stroke="#c5c5c5" vector-effect="non-scaling-stroke" d="
  M 213.29 116.75
  Q 212.72 119.53 214.29 121.75"
/>
<path stroke="#727272" vector-effect="non-scaling-stroke" d="
  M 214.29 121.75
  C 207.45 125.53 198.20 131.60 195.00 139.23
  A 0.43 0.43 0.0 0 0 195.26 139.80
  C 196.17 140.10 201.87 134.35 202.90 133.15
  Q 205.01 130.73 210.00 129.46"
/>
<path stroke="#c5c5c5" vector-effect="non-scaling-stroke" d="
  M 210.00 129.46
  Q 210.18 132.81 208.77 135.88
  A 1.31 1.29 -41.2 0 0 208.70 136.80
  L 209.04 138.00"
/>
<path stroke="#727272" vector-effect="non-scaling-stroke" d="
  M 209.04 138.00
  L 201.12 148.73
  A 1.27 1.26 31.2 0 0 201.59 150.62
  C 201.99 150.82 207.06 149.19 207.96 149.00"
/>
<path stroke="#c5c5c5" vector-effect="non-scaling-stroke" d="
  M 207.96 149.00
  Q 208.85 150.30 209.02 151.85
  A 0.74 0.74 0.0 0 1 208.49 152.63
  L 207.02 153.05
  A 0.90 0.88 2.5 0 0 206.42 153.59
  C 205.43 156.26 204.91 158.86 203.74 161.47
  Q 201.58 166.31 200.39 171.48
  C 199.63 174.78 197.61 178.75 197.87 182.93
  C 198.09 186.37 197.76 188.42 197.28 191.46
  Q 197.20 191.99 196.87 192.41
  Q 194.87 194.92 197.34 196.93
  A 1.01 1.00 -68.6 0 1 197.71 197.79
  Q 197.54 199.75 198.29 201.50"
/>
<path stroke="#727272" vector-effect="non-scaling-stroke" d="
  M 198.29 201.50
  C 192.69 208.36 184.96 218.22 177.81 219.14
  Q 177.30 219.20 177.59 218.79
  C 181.94 212.57 185.36 208.52 183.35 200.36
  A 1.91 1.91 0.0 0 0 181.71 198.92
  Q 175.51 198.24 170.09 200.41"
/>
<path stroke="#727272" vector-effect="non-scaling-stroke" d="
  M 181.80 179.26
  C 185.10 178.62 199.99 172.72 198.48 167.91
  A 0.45 0.45 0.0 0 0 197.86 167.63
  Q 190.38 171.08 182.25 171.21"
/>
<path stroke="#ebebeb" vector-effect="non-scaling-stroke" d="
  M 182.25 171.21
  L 183.51 170.84
  A 0.90 0.89 -0.6 0 0 184.13 170.21
  Q 187.24 158.56 184.75 146.62"
/>
<path stroke="#727272" vector-effect="non-scaling-stroke" d="
  M 184.75 146.62
  L 186.05 144.23
  A 0.52 0.51 -62.2 0 0 185.84 143.53
  L 185.25 143.21"
/>
<path stroke="#ebebeb" vector-effect="non-scaling-stroke" d="
  M 185.25 143.21
  Q 185.20 137.87 187.75 133.21"
/>
<path stroke="#727272" vector-effect="non-scaling-stroke" d="
  M 187.75 133.21
  Q 192.62 130.96 195.30 126.58
  C 198.11 121.97 195.48 118.59 190.25 119.46"
/>
<path stroke="#5f5f5f" vector-effect="non-scaling-stroke" d="
  M 239.46 137.50
  C 234.05 137.83 228.14 137.54 223.31 138.34
  Q 216.69 139.43 210.43 141.96
  A 0.10 0.10 0.0 0 1 210.29 141.88
  L 210.23 141.58
  A 0.51 0.50 61.3 0 1 210.35 141.16
  C 214.36 136.42 222.27 127.56 221.34 121.02
  A 0.59 0.59 0.0 0 0 220.77 120.51
  Q 217.33 120.41 214.29 121.75"
/>
<path stroke="#868686" vector-effect="non-scaling-stroke" d="
  M 187.75 133.21
  C 188.59 130.00 187.69 128.38 184.29 128.24
  C 176.60 127.93 166.96 128.06 160.12 131.16
  A 0.92 0.92 0.0 0 0 159.58 131.95
  Q 159.11 140.36 160.28 148.68
  A 0.53 0.53 0.0 0 0 160.93 149.12
  L 185.25 143.21"
/>
<path stroke="#868686" vector-effect="non-scaling-stroke" d="
  M 184.75 146.62
  C 181.84 149.71 179.76 151.69 175.33 152.47
  Q 168.79 153.62 162.43 155.72
  A 0.67 0.66 75.4 0 0 161.99 156.49
  Q 163.54 163.50 163.83 170.67
  A 0.51 0.50 88.8 0 0 164.33 171.16
  L 182.25 171.21"
/>
<path stroke="#5f5f5f" vector-effect="non-scaling-stroke" d="
  M 245.71 151.75
  C 242.81 163.18 226.00 176.08 215.11 177.84
  C 208.94 178.84 203.56 177.38 202.27 170.67
  C 201.42 166.20 206.95 161.67 210.35 159.78
  Q 210.79 159.53 210.76 160.03
  C 209.77 175.69 234.29 169.59 236.65 159.77
  C 237.86 154.71 237.15 146.00 230.00 146.05
  C 222.50 146.10 215.02 146.11 207.96 149.00"
/>
<path stroke="#5f5f5f" vector-effect="non-scaling-stroke" d="
  M 209.04 138.00
  Q 211.93 134.80 213.02 130.63
  Q 213.60 128.42 211.40 129.05
  L 210.00 129.46"
/>
<path stroke="#5f5f5f" vector-effect="non-scaling-stroke" d="
  M 251.75 197.96
  Q 247.06 198.65 242.98 200.99
  A 0.53 0.53 0.0 0 1 242.22 200.70
  L 241.98 200.03
  A 0.51 0.50 66.9 0 0 241.27 199.74
  C 232.73 204.22 233.25 209.29 233.63 217.82
  A 0.34 0.34 0.0 0 1 233.19 218.16
  Q 226.46 216.04 219.45 217.14
  Q 218.49 217.29 219.08 216.51
  Q 224.39 209.55 221.03 201.34
  Q 220.15 199.17 217.83 198.91
  Q 211.19 198.14 204.97 200.48
  A 1.14 1.14 0.0 0 1 203.45 199.64
  Q 203.30 198.94 202.66 198.76
  A 0.77 0.75 26.4 0 0 201.85 199.02
  Q 200.46 200.81 198.29 201.50"
/>
<path stroke="#868686" vector-effect="non-scaling-stroke" d="
  M 274.79 201.50
  L 267.64 206.23
  A 0.48 0.48 0.0 0 1 266.96 206.08
  Q 266.48 205.26 266.46 204.25"
/>
<path stroke="#868686" vector-effect="non-scaling-stroke" d="
  M 358.59 212.82
  Q 352.47 220.99 349.49 230.77
  A 0.49 0.49 0.0 0 0 350.02 231.40
  L 363.24 229.67
  A 0.52 0.52 0.0 0 0 363.67 229.02
  L 359.31 212.96
  Q 359.09 212.16 358.59 212.82"
/>
<path stroke="#727272" vector-effect="non-scaling-stroke" d="
  M 159.04 217.25
  Q 159.56 227.85 157.11 238.12
  Q 156.87 239.15 157.54 238.33
  Q 161.57 233.41 166.75 229.71
  Q 168.62 228.37 166.47 229.19
  Q 163.94 230.14 161.59 231.49
  A 0.40 0.40 0.0 0 1 160.99 231.15
  L 160.99 230.80
  Q 160.98 229.10 162.29 228.01
  C 169.21 222.19 177.79 219.93 174.57 208.21
  A 0.76 0.75 85.2 0 0 173.94 207.67
  Q 168.96 207.05 164.04 208.25"
/>
<path stroke="#6c6c6c" vector-effect="non-scaling-stroke" d="
  M 264.21 255.75
  C 264.38 251.88 265.07 248.16 265.47 244.33
  C 265.72 241.95 267.93 239.69 268.61 238.30
  Q 273.40 228.52 277.26 218.49"
/>
<path stroke="#868686" vector-effect="non-scaling-stroke" d="
  M 277.26 218.49
  Q 280.89 212.74 281.00 206.19
  A 0.52 0.51 -1.1 0 0 280.45 205.67
  L 278.50 205.79"
/>
<path stroke="#6c6c6c" vector-effect="non-scaling-stroke" d="
  M 278.50 205.79
  Q 274.74 206.04 271.71 208.25"
/>
<path stroke="#868686" vector-effect="non-scaling-stroke" d="
  M 271.71 208.25
  L 268.68 209.67
  A 0.72 0.72 0.0 0 0 268.26 210.38
  L 268.94 221.14"
/>
<path stroke="#6c6c6c" vector-effect="non-scaling-stroke" d="
  M 268.94 221.14
  Q 269.18 228.20 265.00 234.21"
/>
<path stroke="#868686" vector-effect="non-scaling-stroke" d="
  M 265.00 234.21
  L 260.21 240.75"
/>
<path stroke="#6c6c6c" vector-effect="non-scaling-stroke" d="
  M 260.21 240.75
  Q 253.51 247.38 245.20 251.77
  A 0.84 0.83 -13.4 0 0 244.75 252.49
  L 244.25 289.21"
/>
<path stroke="#6c6c6c" vector-effect="non-scaling-stroke" d="
  M 236.46 297.25
  Q 235.39 296.13 235.44 294.49
  Q 236.00 274.78 236.16 255.06
  Q 236.17 253.70 234.44 252.69
  A 1.29 1.27 6.3 0 1 233.85 251.96
  C 231.73 245.48 232.97 242.04 235.28 235.97
  Q 235.50 235.38 235.06 235.83
  L 229.21 241.75"
/>
<path stroke="#5f5f5f" vector-effect="non-scaling-stroke" d="
  M 229.21 241.75
  Q 218.92 251.98 205.26 256.60
  C 202.65 257.49 200.09 257.22 197.74 259.83
  C 197.53 260.06 197.25 260.19 196.97 260.09
  A 0.73 0.71 -80.3 0 1 196.50 259.41
  L 196.50 257.96
  A 0.53 0.52 88.0 0 0 195.94 257.43
  Q 191.90 257.64 190.93 253.67
  Q 190.30 251.06 191.85 248.88
  Q 194.81 244.73 193.87 239.58
  Q 193.80 239.18 193.55 239.50
  Q 186.47 248.59 176.75 254.71"
/>
<path stroke="#727272" vector-effect="non-scaling-stroke" d="
  M 176.75 254.71
  C 169.91 258.70 148.77 264.96 150.65 249.19
  Q 150.71 248.71 150.36 249.06
  C 143.31 256.17 138.92 260.86 130.14 263.24"
/>
<path stroke="#868686" vector-effect="non-scaling-stroke" d="
  M 99.07 205.22
  Q 89.00 205.00 79.34 207.67
  A 0.64 0.63 80.0 0 0 78.88 208.33
  L 80.39 226.50
  A 0.34 0.33 71.5 0 0 80.90 226.76
  Q 87.78 222.48 95.09 219.05
  C 100.73 216.40 103.10 212.43 100.61 206.28
  A 1.70 1.69 79.5 0 0 99.07 205.22"
/>
<path stroke="#6c6c6c" vector-effect="non-scaling-stroke" d="
  M 243.65 219.61
  L 244.01 225.19
  Q 244.03 225.53 244.29 225.30
  L 257.20 213.99
  A 1.36 1.36 0.0 0 0 257.58 212.49
  C 256.31 209.06 253.58 206.25 249.58 206.49"
/>
<path stroke="#5f5f5f" vector-effect="non-scaling-stroke" d="
  M 249.58 206.49
  L 242.77 206.92
  A 0.56 0.55 88.4 0 0 242.25 207.48
  Q 242.32 213.45 243.65 219.61"
/>
<path stroke="#bfbfbf" vector-effect="non-scaling-stroke" d="
  M 249.58 206.49
  Q 249.24 208.27 248.32 209.71
  Q 247.19 211.46 246.82 212.67
  Q 245.69 216.36 243.65 219.61"
/>
<path stroke="#5f5f5f" vector-effect="non-scaling-stroke" d="
  M 210.35 207.55
  L 203.01 207.48
  A 0.51 0.51 0.0 0 0 202.50 207.99
  L 202.50 219.74
  A 0.41 0.41 0.0 0 0 203.07 220.11
  Q 207.83 217.94 213.05 217.68
  A 0.73 0.72 88.3 0 0 213.73 216.95
  Q 213.71 212.83 212.33 208.96
  A 2.12 2.11 -9.4 0 0 210.35 207.55"
/>
<path stroke="#5f5f5f" vector-effect="non-scaling-stroke" d="
  M 193.95 211.56
  A 0.50 0.50 0.0 0 0 193.10 211.17
  L 187.09 216.98
  A 0.50 0.50 0.0 0 0 187.45 217.84
  L 193.15 217.73
  A 0.50 0.50 0.0 0 0 193.64 217.26
  L 193.95 211.56"
/>
<path stroke="#727272" vector-effect="non-scaling-stroke" d="
  M 140.46 250.00
  C 147.73 252.06 149.75 242.41 149.53 236.88"
/>
<path stroke="#868686" vector-effect="non-scaling-stroke" d="
  M 149.53 236.88
  C 152.04 226.61 151.29 214.33 138.77 211.97
  C 135.81 211.41 126.45 210.09 124.69 213.07
  A 0.61 0.61 0.0 0 0 124.81 213.83
  C 127.32 216.06 124.24 224.21 123.23 229.10
  C 120.88 240.37 129.66 249.10 140.46 250.00"
/>
<path stroke="#ebebeb" vector-effect="non-scaling-stroke" d="
  M 149.53 236.88
  L 140.46 250.00"
/>
<path stroke="#6c6c6c" vector-effect="non-scaling-stroke" d="
  M 256.04 241.08
  C 261.50 234.08 261.07 225.01 259.14 216.64
  A 0.35 0.34 65.2 0 0 258.60 216.44
  Q 251.18 221.94 244.64 228.45
  A 1.14 1.13 -25.4 0 0 244.31 229.36
  Q 245.04 236.94 244.68 244.56
  A 0.93 0.92 -8.8 0 0 245.93 245.47
  L 254.38 242.30
  A 3.86 3.84 8.6 0 0 256.04 241.08"
/>
<path stroke="#868686" vector-effect="non-scaling-stroke" d="
  M 284.15 217.25
  A 0.31 0.31 0.0 0 0 283.56 217.19
  L 275.51 235.40
  A 0.31 0.31 0.0 0 0 275.87 235.83
  L 286.98 233.12
  A 0.31 0.31 0.0 0 0 287.21 232.76
  L 284.15 217.25"
/>
<path stroke="#868686" vector-effect="non-scaling-stroke" d="
  M 81.90 242.31
  Q 81.98 243.05 82.54 242.55
  Q 92.92 233.31 104.19 225.19
  Q 105.11 224.52 103.97 224.52
  Q 90.84 224.57 81.22 233.49
  A 0.83 0.83 0.0 0 0 80.97 234.17
  L 81.90 242.31"
/>
<path stroke="#5f5f5f" vector-effect="non-scaling-stroke" d="
  M 223.95 226.83
  C 221.14 224.62 214.09 225.49 210.47 225.50
  A 1.28 1.27 22.7 0 0 209.58 225.86
  Q 206.92 228.48 203.39 229.74
  A 0.99 0.99 0.0 0 0 202.77 230.40
  Q 201.29 235.55 204.25 239.30
  A 0.69 0.68 39.5 0 1 204.33 240.04
  L 203.47 241.74
  A 1.21 1.20 45.8 0 0 203.46 242.81
  Q 204.66 245.28 204.19 248.02
  A 1.01 1.01 0.0 0 0 205.26 249.20
  Q 217.66 248.19 227.24 240.20
  A 2.09 2.04 -13.6 0 0 227.93 239.10
  Q 229.78 231.41 223.95 226.83"
/>
<path stroke="#5f5f5f" vector-effect="non-scaling-stroke" d="
  M 185.54 244.25
  Q 190.92 238.87 188.75 230.50
  Q 187.88 227.15 185.89 226.32"
/>
<path stroke="#727272" vector-effect="non-scaling-stroke" d="
  M 185.89 226.32
  Q 177.87 225.85 176.23 226.72
  C 170.09 229.96 153.24 239.92 161.59 248.73
  C 166.72 254.16 180.81 248.13 185.54 244.25"
/>
<path stroke="#c5c5c5" vector-effect="non-scaling-stroke" d="
  M 185.89 226.32
  L 179.05 244.26
  A 1.48 1.46 -7.4 0 1 178.52 244.94
  Q 177.03 245.99 176.64 247.82
  Q 176.35 249.15 177.27 248.14
  Q 179.31 245.90 179.92 242.95
  Q 180.01 242.49 180.24 242.09
  L 183.31 236.70
  A 0.53 0.53 0.0 0 1 184.05 236.51
  C 185.37 237.35 185.09 242.75 185.54 244.25"
/>
<path stroke="#868686" vector-effect="non-scaling-stroke" d="
  M 82.14 247.05
  L 82.93 260.31
  A 0.51 0.51 0.0 0 0 83.47 260.79
  C 90.77 260.44 109.80 257.15 111.75 248.25
  C 113.01 242.49 112.67 232.33 108.57 227.09
  A 0.67 0.66 55.1 0 0 107.69 226.93
  Q 94.17 235.22 82.55 246.02
  A 1.30 1.26 67.5 0 0 82.14 247.05"
/>
<path stroke="#e5e5e5" vector-effect="non-scaling-stroke" d="
  M 277.26 218.49
  Q 277.10 213.28 278.66 208.26
  A 1.27 1.26 41.5 0 0 278.60 207.34
  Q 278.23 206.55 278.50 205.79"
/>
<path stroke="#e5e5e5" vector-effect="non-scaling-stroke" d="
  M 260.21 240.75
  L 261.06 244.26
  A 0.65 0.65 0.0 0 0 261.74 244.76
  L 263.26 244.66
  A 0.76 0.75 -84.2 0 0 263.95 244.09
  L 265.05 239.70
  Q 265.19 239.12 265.04 238.53
  Q 264.59 236.82 265.32 235.25
  A 0.80 0.78 -48.8 0 0 265.28 234.52
  Q 265.16 234.33 265.00 234.21"
/>
<path stroke="#e5e5e5" vector-effect="non-scaling-stroke" d="
  M 268.94 221.14
  Q 272.72 215.75 272.19 209.25
  A 1.34 1.25 -67.0 0 0 271.95 208.59
  L 271.71 208.25"
/>
<path stroke="#e5e5e5" vector-effect="non-scaling-stroke" d="
  M 259.5731 255.7228
  A 0.89 0.57 82.7 0 0 260.0254 254.7676
  A 0.89 0.57 82.7 0 0 259.3469 253.9572
  A 0.89 0.57 82.7 0 0 258.8946 254.9124
  A 0.89 0.57 82.7 0 0 259.5731 255.7228"
/>
<path stroke="#e5e5e5" vector-effect="non-scaling-stroke" d="
  M 250.06 274.40
  Q 249.76 274.98 249.97 275.69
  Q 250.21 276.46 250.46 275.69
  Q 250.86 274.46 250.75 273.19
  Q 250.70 272.62 250.41 273.11
  Q 250.18 273.50 250.17 273.93
  Q 250.17 274.18 250.06 274.40"
/>
<path stroke="#d1d1d1" vector-effect="non-scaling-stroke" d="
  M 145.54 295.75
  Q 146.60 295.24 147.38 295.30"
/>
<path stroke="#bfbfbf" vector-effect="non-scaling-stroke" d="
  M 147.38 295.30
  Q 167.15 298.49 184.55 289.01
  C 188.78 286.70 192.04 282.82 196.16 280.82
  C 199.97 278.97 201.48 278.17 203.98 274.63
  Q 205.27 272.81 206.67 271.46
  C 215.28 263.17 220.59 257.37 225.94 248.64
  C 226.94 247.01 232.48 244.02 229.21 241.75"
/>
<path stroke="#e5e5e5" vector-effect="non-scaling-stroke" d="
  M 219.34 306.87
  Q 218.89 307.46 218.99 308.27
  Q 219.08 309.00 219.55 308.43
  Q 220.60 307.15 219.98 305.76
  A 1.01 1.01 0.0 0 1 220.06 304.80
  L 220.76 303.75
  Q 222.30 301.43 220.00 303.57
  Q 218.96 304.54 219.48 305.96
  A 0.94 0.92 -36.8 0 1 219.34 306.87"
/>
<path stroke="#c5c5c5" vector-effect="non-scaling-stroke" d="
  M 147.38 295.30
  Q 153.81 284.64 162.86 277.04
  Q 163.22 276.74 163.67 276.63
  L 164.83 276.35
  A 0.91 0.90 0.4 0 0 165.48 275.72
  Q 167.74 268.09 173.06 262.13
  Q 174.23 260.82 172.66 261.63
  Q 171.21 262.37 170.42 263.75
  Q 169.97 264.54 169.81 263.65
  C 169.55 262.11 170.94 259.85 172.82 260.77
  A 0.66 0.66 0.0 0 0 173.59 260.65
  C 175.16 259.13 178.81 256.24 176.75 254.71"
/>
</g>
<path fill="#ffffff" d="
  M 0.00 0.00
  L 220.26 -0.05
  Q 211.76 9.29 206.75 19.50
  Q 202.26 28.66 202.47 39.36
  C 190.29 41.20 178.93 47.34 168.77 53.89
  C 165.74 55.83 162.72 58.55 162.00 61.75
  C 161.37 64.59 156.89 84.92 155.65 85.74
  A 0.36 0.35 69.5 0 1 155.11 85.49
  Q 153.97 77.79 154.29 70.05
  C 154.50 65.12 155.90 58.19 156.07 52.12
  Q 156.11 50.77 154.96 51.48
  L 151.41 53.68
  A 0.29 0.29 0.0 0 1 150.97 53.46
  C 150.33 46.97 147.05 40.98 139.77 40.24
  C 125.83 38.81 121.95 47.99 113.68 54.66
  A 0.40 0.40 0.0 0 1 113.07 54.53
  C 110.61 49.58 108.24 44.04 101.76 43.79
  Q 82.26 43.05 71.17 58.37
  C 68.24 62.42 66.57 65.31 67.36 70.09
  A 0.54 0.53 -23.9 0 0 68.22 70.42
  L 71.28 67.96
  Q 71.90 67.47 71.83 68.26
  Q 71.34 74.28 71.21 80.25
  C 70.62 108.04 70.16 136.30 71.80 164.05
  A 0.35 0.35 0.0 0 0 72.32 164.34
  Q 75.91 162.42 78.54 159.37
  Q 80.06 157.62 80.01 155.29
  C 79.28 123.46 78.62 91.06 80.42 60.17
  C 80.65 56.30 80.35 53.59 85.13 52.83
  C 93.68 51.47 99.93 51.55 103.31 60.93
  A 2.00 1.99 -29.1 0 1 102.67 63.16
  C 95.68 68.72 82.36 82.00 80.69 91.06
  C 79.90 95.35 80.82 102.66 86.95 102.13
  C 97.16 101.26 100.55 95.49 107.53 89.47
  A 0.41 0.41 0.0 0 1 108.15 89.58
  C 112.77 97.99 120.93 104.63 130.54 100.48
  C 136.27 98.01 141.36 91.95 145.15 86.56
  Q 145.74 85.72 145.70 86.74
  C 145.58 90.10 146.97 100.53 153.04 96.38
  Q 159.24 92.13 162.42 85.18
  Q 162.82 84.30 162.84 85.26
  Q 162.98 91.32 165.33 96.85
  A 1.42 1.42 0.0 0 0 167.42 97.48
  L 169.85 95.89
  A 0.92 0.91 -49.3 0 1 170.70 95.82
  C 178.14 99.07 188.20 101.80 195.77 97.44
  A 0.37 0.37 0.0 0 1 196.32 97.69
  L 197.43 103.95
  Q 197.84 106.25 199.52 104.63
  L 206.90 97.57
  A 1.06 1.05 26.3 0 1 207.76 97.28
  L 216.38 98.25
  Q 215.50 106.80 212.98 114.96
  Q 200.07 107.47 190.60 117.65
  A 1.35 1.32 67.3 0 0 190.25 118.53
  L 190.25 119.46
  C 179.33 119.40 169.16 120.32 160.23 126.47
  A 0.38 0.38 0.0 0 1 159.66 126.28
  C 158.38 122.62 157.13 119.72 153.51 119.39
  Q 139.75 118.12 124.24 120.94
  Q 112.23 123.12 108.44 132.87
  Q 106.53 137.78 106.76 150.80
  Q 106.98 162.83 108.06 175.46
  Q 108.32 178.51 110.90 176.87
  C 114.93 174.32 117.01 171.06 117.39 166.07
  Q 118.49 151.46 132.35 152.16
  C 140.40 152.56 142.17 165.04 141.36 170.84
  A 2.31 2.31 0.0 0 1 139.80 172.71
  C 129.36 176.14 118.00 169.33 111.66 181.85
  A 0.34 0.34 0.0 0 0 111.94 182.34
  C 126.89 183.24 138.53 182.51 147.50 168.91
  C 151.45 162.91 150.75 157.47 148.46 150.99
  C 142.29 133.57 121.90 149.77 115.99 157.90
  Q 115.50 158.58 115.50 157.75
  L 115.50 132.27
  Q 115.50 129.62 118.12 129.23
  Q 130.56 127.33 142.69 127.78
  C 147.66 127.97 150.60 129.37 150.65 134.69
  Q 150.82 154.84 150.78 163.00
  C 150.76 167.96 151.16 175.43 154.89 179.15
  A 1.53 1.50 72.1 0 0 155.73 179.59
  C 159.37 180.22 163.64 179.79 166.28 179.81
  Q 173.97 179.86 181.80 179.26
  Q 179.45 184.26 176.54 188.91
  Q 176.04 189.71 173.22 192.90
  Q 170.43 196.06 170.09 200.41
  Q 165.93 203.39 164.04 208.25
  L 160.99 216.09
  A 1.17 1.15 -0.7 0 1 160.34 216.75
  L 159.04 217.25
  C 157.82 204.48 146.60 202.03 135.96 202.83
  C 125.96 203.57 122.81 211.02 116.88 217.27
  A 0.74 0.71 -56.2 0 1 116.08 217.44
  Q 109.93 214.85 103.21 217.28
  Q 102.95 217.37 102.77 217.21
  A 0.46 0.46 0.0 0 1 102.74 216.56
  C 107.47 211.55 112.33 204.50 109.09 198.21
  A 1.92 1.92 0.0 0 0 107.57 197.18
  Q 92.59 195.74 79.18 202.34
  A 0.48 0.48 0.0 0 1 78.49 201.91
  L 78.51 198.50
  A 0.41 0.41 0.0 0 0 77.94 198.12
  C 70.91 201.05 69.40 205.97 70.05 213.46
  C 70.67 220.74 72.08 229.08 71.33 236.32
  A 1.74 1.71 35.7 0 0 71.49 237.24
  L 71.90 238.12
  Q 72.12 238.61 72.18 239.15
  L 73.32 250.97
  A 1.32 1.31 -29.3 0 1 73.06 251.89
  C 69.17 256.87 57.36 269.67 73.42 269.50
  A 0.69 0.69 0.0 0 1 74.09 269.97
  Q 75.24 273.28 74.75 276.70
  Q 74.64 277.46 75.26 277.01
  Q 77.68 275.27 79.95 273.36
  C 82.91 270.85 82.37 268.68 87.01 267.60
  Q 101.71 264.16 111.52 254.05
  Q 112.53 253.01 112.74 254.44
  Q 113.78 261.38 118.79 262.63
  Q 124.15 263.97 130.14 263.24
  Q 129.48 267.20 127.46 272.70
  C 122.87 285.20 132.65 294.97 144.68 295.13
  A 0.81 0.80 72.6 0 1 145.34 295.48
  L 145.54 295.75
  L 125.43 309.90
  A 0.45 0.45 0.0 0 0 125.39 310.61
  C 125.71 310.90 128.78 310.70 129.94 311.00
  L 107.69 311.00
  Q 112.23 311.16 111.87 306.72
  C 110.16 286.05 81.91 295.22 71.99 302.25
  Q 67.56 305.39 62.13 310.95
  L 0.00 311.00
  L 0.00 0.00
  Z
  M 66.17 24.10
  C 70.46 21.80 77.29 19.20 82.22 19.57
  A 0.51 0.51 0.0 0 1 82.67 19.95
  L 83.20 22.00
  A 0.48 0.48 0.0 0 0 83.89 22.30
  C 87.38 20.38 91.70 16.38 91.41 11.83
  A 0.66 0.66 0.0 0 0 90.88 11.22
  Q 87.85 10.63 85.17 11.37
  C 66.83 16.44 49.74 27.69 35.23 39.96
  Q 33.70 41.25 31.97 45.00
  A 0.37 0.36 37.9 0 0 32.02 45.39
  L 32.20 45.60
  A 0.40 0.39 -41.5 0 0 32.76 45.63
  Q 43.17 35.94 55.85 29.42
  Q 56.31 29.18 56.25 29.69
  C 53.60 50.36 52.90 71.23 53.66 91.06
  Q 54.10 102.73 59.46 114.17
  A 0.69 0.69 0.0 0 0 60.32 114.52
  Q 64.81 112.80 67.69 108.98
  A 2.45 2.45 0.0 0 0 67.97 106.49
  C 60.18 89.20 61.83 73.54 62.47 49.57
  Q 62.78 38.23 64.22 26.94
  Q 64.46 25.02 66.17 24.10
  Z"
/>
<path fill="#d7d7d7" d="
  M 220.26 -0.05
  L 267.25 -0.05
  Q 264.38 4.71 260.58 8.72
  A 0.36 0.36 0.0 0 1 260.00 8.62
  C 258.59 5.57 262.04 3.54 263.91 1.75
  Q 265.03 0.68 263.53 0.29
  C 262.02 -0.11 259.57 3.42 258.10 4.40
  A 0.77 0.76 67.7 0 0 257.78 5.17
  C 258.01 6.49 257.93 8.64 256.29 8.42
  A 1.24 1.23 -13.9 0 1 255.45 7.92
  L 254.72 6.90
  A 0.86 0.85 -43.4 0 0 253.36 6.87
  Q 248.10 13.38 244.46 20.25
  C 241.37 24.54 237.90 28.29 236.54 33.50
  Q 235.68 35.20 234.97 36.99
  C 233.87 39.79 231.59 41.39 230.34 44.25
  A 0.80 0.78 -77.8 0 1 229.62 44.73
  L 228.29 44.75
  Q 227.82 44.21 227.31 44.56
  Q 216.24 52.34 208.54 57.25
  Q 207.30 54.11 204.35 52.64
  L 204.16 45.84
  A 0.49 0.49 0.0 0 0 203.52 45.39
  L 202.26 45.80
  Q 201.47 46.06 201.91 45.36
  Q 203.40 42.95 203.34 40.14
  A 0.72 0.72 0.0 0 0 202.82 39.46
  L 202.47 39.36
  Q 202.26 28.66 206.75 19.50
  Q 211.76 9.29 220.26 -0.05
  Z"
/>
<path fill="#b2b2b2" d="
  M 267.25 -0.05
  L 283.31 0.00
  Q 283.73 0.06 283.97 0.28
  Q 284.40 0.67 283.84 0.83
  Q 282.56 1.19 282.01 1.77
  C 271.66 12.81 258.99 23.86 249.26 32.73
  Q 242.77 38.64 236.15 44.42
  A 0.74 0.73 52.2 0 0 236.03 45.39
  Q 236.31 45.79 236.75 45.79
  Q 229.42 48.73 222.79 53.00
  Q 223.33 52.06 222.50 51.71
  Q 225.97 48.69 228.29 44.75
  L 229.62 44.73
  A 0.80 0.78 -77.8 0 0 230.34 44.25
  C 231.59 41.39 233.87 39.79 234.97 36.99
  Q 235.68 35.20 236.54 33.50
  Q 236.66 33.19 236.86 33.09
  A 0.41 0.41 0.0 0 1 237.46 33.43
  L 237.50 34.25
  A 0.35 0.34 73.2 0 0 238.02 34.53
  C 239.12 33.89 241.20 29.43 242.44 27.89
  A 1.33 1.33 0.0 0 0 242.74 27.02
  L 242.74 26.52
  A 1.69 1.66 -30.9 0 1 242.97 25.64
  Q 244.41 23.13 244.46 20.25
  Q 248.10 13.38 253.36 6.87
  A 0.86 0.85 -43.4 0 1 254.72 6.90
  L 255.45 7.92
  A 1.24 1.23 -13.9 0 0 256.29 8.42
  C 257.93 8.64 258.01 6.49 257.78 5.17
  A 0.77 0.76 67.7 0 1 258.10 4.40
  C 259.57 3.42 262.02 -0.11 263.53 0.29
  Q 265.03 0.68 263.91 1.75
  C 262.04 3.54 258.59 5.57 260.00 8.62
  A 0.36 0.36 0.0 0 0 260.58 8.72
  Q 264.38 4.71 267.25 -0.05
  Z"
/>
<path fill="#cbcbcb" d="
  M 283.31 0.00
  L 354.56 0.00
  Q 354.84 0.78 354.27 1.45
  Q 353.92 1.86 354.46 1.93
  L 354.97 1.99
  A 1.06 1.06 0.0 0 0 355.86 1.69
  L 357.56 0.00
  L 362.31 0.00
  Q 362.26 1.27 361.25 2.16
  A 0.97 0.95 66.6 0 0 360.93 3.00
  Q 360.98 3.42 361.50 3.54
  L 359.57 5.50
  A 0.14 0.13 -43.4 0 1 359.38 5.50
  L 359.12 5.25
  A 0.51 0.51 0.0 0 1 359.13 4.50
  L 359.50 4.15
  Q 360.31 3.41 359.23 3.61
  C 357.42 3.95 355.01 3.77 353.44 4.55
  Q 339.04 11.69 327.73 23.73
  Q 319.77 32.21 321.08 43.72
  L 317.94 45.38
  A 0.63 0.63 0.0 0 1 317.15 45.22
  C 313.94 41.34 310.48 38.33 305.26 38.58
  C 296.64 38.99 289.71 43.43 284.71 51.01
  Q 284.28 51.65 285.05 51.54
  Q 287.05 51.25 288.36 49.73
  Q 288.80 49.22 288.80 49.89
  C 288.76 55.00 290.04 67.04 286.82 70.92
  Q 286.48 71.32 286.42 70.80
  C 286.11 68.23 286.22 65.68 285.43 63.30
  C 282.09 53.23 274.08 39.95 261.76 41.24
  A 0.39 0.39 0.0 0 1 261.34 40.75
  L 261.99 38.25
  A 1.27 1.27 0.0 0 0 260.55 36.68
  C 252.10 38.10 244.47 42.31 236.75 45.79
  Q 236.31 45.79 236.03 45.39
  A 0.74 0.73 52.2 0 1 236.15 44.42
  Q 242.77 38.64 249.26 32.73
  C 258.99 23.86 271.66 12.81 282.01 1.77
  Q 282.56 1.19 283.84 0.83
  Q 284.40 0.67 283.97 0.28
  Q 283.73 0.06 283.31 0.00
  Z"
/>
<path fill="#ffffff" d="
  M 354.56 0.00
  L 357.56 0.00
  L 355.86 1.69
  A 1.06 1.06 0.0 0 1 354.97 1.99
  L 354.46 1.93
  Q 353.92 1.86 354.27 1.45
  Q 354.84 0.78 354.56 0.00
  Z"
/>
<path fill="#ffffff" d="
  M 362.31 0.00
  L 450.00 0.00
  L 450.00 311.00
  L 226.21 311.02
  L 236.45 299.18
  A 0.60 0.59 -42.9 0 0 236.48 298.44
  Q 236.06 297.86 236.46 297.25
  Q 241.02 293.84 244.25 289.21
  C 248.68 285.64 251.45 279.21 253.11 273.85
  A 1.14 1.13 -2.3 0 1 253.79 273.12
  L 254.59 272.82
  Q 255.21 272.58 254.60 272.31
  C 252.42 271.38 255.12 267.07 256.30 266.19
  Q 257.54 265.28 257.09 266.75
  L 256.42 268.97
  Q 256.25 269.54 256.75 269.22
  C 260.41 266.83 262.34 259.78 262.77 255.73
  A 0.59 0.58 2.7 0 1 263.36 255.20
  Q 263.90 255.20 264.21 255.75
  C 265.46 259.44 268.63 258.83 271.27 257.05
  Q 277.71 252.69 281.30 245.65
  A 0.36 0.35 -75.2 0 0 281.00 245.13
  C 279.49 245.09 275.90 248.82 274.80 249.94
  Q 273.31 251.46 273.24 249.33
  L 273.04 243.81
  A 0.86 0.85 -7.2 0 1 273.72 242.94
  L 287.77 240.00
  A 1.16 1.16 0.0 0 1 289.13 240.85
  Q 291.21 248.86 295.40 255.99
  A 0.53 0.52 52.6 0 0 296.22 256.10
  L 302.32 250.07
  Q 303.74 248.66 302.94 246.83
  L 299.20 238.35
  A 0.70 0.69 -29.5 0 1 299.44 237.50
  Q 303.81 234.46 307.08 230.19
  Q 308.20 228.72 306.39 229.11
  L 297.70 230.94
  A 0.66 0.65 78.4 0 1 296.92 230.42
  Q 294.68 218.82 292.23 207.25
  Q 291.59 204.19 290.18 202.65
  A 1.25 1.24 22.0 0 1 289.86 201.90
  L 289.54 197.78
  A 0.67 0.66 1.1 0 0 288.94 197.17
  Q 284.81 196.72 281.00 198.29
  Q 278.84 198.35 277.91 196.77
  A 0.58 0.57 55.9 0 1 278.05 196.02
  C 280.39 194.17 280.30 191.60 281.38 189.46
  Q 283.16 185.93 283.50 181.89
  A 0.66 0.65 -77.8 0 0 283.07 181.22
  Q 281.99 180.83 282.03 179.77
  A 0.75 0.74 82.2 0 1 282.54 179.09
  L 283.18 178.87
  A 0.57 0.57 0.0 0 0 283.53 178.11
  C 281.68 173.56 286.05 166.70 286.27 163.75
  C 286.76 156.97 286.86 148.47 288.90 142.03
  C 289.69 139.56 289.57 137.66 289.39 135.25
  A 0.54 0.54 0.0 0 0 288.84 134.75
  L 288.55 134.76
  A 0.65 0.64 6.0 0 0 287.95 135.24
  C 287.47 137.02 283.12 153.60 282.61 153.71
  A 0.30 0.29 -3.7 0 1 282.25 153.40
  C 282.67 149.31 284.02 145.34 284.55 141.49
  C 285.19 136.76 286.21 132.83 286.88 127.45
  Q 287.31 123.99 288.96 120.94
  Q 291.40 137.57 295.26 153.83
  A 0.45 0.45 0.0 0 0 295.94 154.10
  Q 299.97 151.42 303.00 147.64
  A 2.64 2.62 -31.6 0 0 303.53 145.46
  C 300.34 129.94 296.68 114.50 297.28 98.06
  A 0.65 0.65 0.0 0 1 297.79 97.45
  C 306.93 95.28 323.40 84.73 323.77 74.03
  Q 324.14 63.03 320.96 52.50
  Q 322.95 51.67 324.07 48.74
  Q 327.03 51.10 326.73 55.01
  C 326.18 62.15 326.49 69.55 326.51 76.73
  C 326.52 82.06 324.62 85.58 321.34 89.38
  A 0.74 0.72 28.6 0 1 320.56 89.60
  Q 319.89 89.39 319.56 89.54
  Q 313.09 92.53 311.60 99.85
  Q 310.81 103.70 314.38 102.07
  C 318.12 100.37 323.41 93.21 325.96 89.81
  Q 326.26 89.42 326.36 89.90
  Q 327.44 94.92 330.82 98.45
  C 336.57 104.47 342.18 96.75 345.73 92.97
  A 0.33 0.33 0.0 0 1 346.26 93.06
  L 349.63 100.22
  A 0.76 0.76 0.0 0 1 349.51 101.06
  C 347.06 103.80 319.66 134.04 319.78 137.27
  Q 319.80 137.82 320.25 137.50
  Q 324.42 134.49 326.85 131.59
  Q 338.40 117.78 350.75 103.27
  Q 352.30 101.45 354.33 102.70
  C 358.50 105.24 367.25 95.76 369.38 92.67
  A 0.48 0.48 0.0 0 0 369.20 91.97
  C 368.75 91.74 365.04 94.13 364.36 94.49
  A 1.49 1.44 -53.3 0 1 363.44 94.64
  Q 361.70 94.36 360.35 93.27
  A 0.58 0.58 0.0 0 1 360.29 92.43
  Q 368.24 83.70 376.95 75.73
  Q 377.98 74.79 378.26 76.16
  C 379.59 82.45 381.56 89.92 386.08 94.72
  Q 387.55 96.28 389.45 95.28
  C 399.95 89.75 398.41 81.86 397.94 71.76
  C 397.60 64.56 392.50 59.74 385.76 57.81
  A 0.69 0.68 -85.7 0 1 385.26 57.22
  L 382.95 38.68
  Q 382.65 36.34 380.64 37.57
  C 374.58 41.23 373.36 45.83 375.59 52.50
  A 1.24 1.24 0.0 0 1 374.25 54.12
  C 367.77 53.26 358.30 63.40 358.41 69.67
  Q 358.46 72.60 361.24 73.51
  Q 367.69 75.61 374.28 74.08
  Q 375.29 73.84 374.55 74.58
  L 358.35 90.76
  A 0.47 0.47 0.0 0 1 357.61 90.66
  Q 354.06 84.47 354.04 75.50
  C 354.03 71.76 354.68 46.54 353.03 45.29
  A 0.48 0.47 33.3 0 1 352.90 44.69
  L 354.59 41.63
  Q 355.16 40.62 354.15 41.20
  C 346.10 45.80 340.96 56.20 335.65 65.92
  A 0.15 0.14 13.2 0 1 335.52 66.00
  L 335.24 66.00
  A 0.11 0.11 0.0 0 1 335.13 65.89
  L 335.29 46.50
  C 341.02 46.53 344.11 43.53 348.64 41.34
  Q 353.16 39.16 355.65 37.72
  C 366.40 31.51 376.91 27.46 388.27 20.10
  C 393.79 16.52 392.76 9.71 388.03 6.47
  Q 380.68 1.43 370.47 0.98
  Q 368.33 -0.27 366.06 0.26
  Q 365.58 0.37 365.19 0.67
  L 361.50 3.54
  Q 360.98 3.42 360.93 3.00
  A 0.97 0.95 66.6 0 1 361.25 2.16
  Q 362.26 1.27 362.31 0.00
  Z
  M 314.45 204.72
  C 315.10 224.37 315.76 241.59 324.24 259.76
  A 0.62 0.62 0.0 0 0 325.21 259.96
  L 331.38 254.54
  Q 333.48 252.69 332.23 250.20
  C 325.19 236.19 323.31 218.59 323.78 203.22
  A 1.29 1.27 -2.1 0 1 324.94 201.99
  Q 341.22 200.44 357.51 201.67
  Q 359.73 201.83 358.87 203.89
  L 358.39 205.03
  Q 358.22 205.42 358.27 205.85
  Q 358.66 209.15 355.73 212.21
  Q 348.27 220.01 342.55 232.62
  Q 342.33 233.10 341.91 233.41
  Q 338.68 235.81 336.81 239.37
  A 0.50 0.50 0.0 0 0 337.27 240.10
  L 339.73 240.02
  A 0.40 0.40 0.0 0 1 340.14 240.48
  C 339.07 247.08 335.75 262.15 348.06 260.05
  C 354.50 258.95 361.42 250.42 364.39 245.00
  A 0.53 0.53 0.0 0 0 364.26 244.33
  C 363.26 243.51 357.62 249.63 356.82 250.74
  A 1.46 1.42 10.9 0 1 355.95 251.31
  Q 352.01 252.16 348.68 249.92
  A 1.28 1.26 -73.4 0 1 348.13 248.89
  L 347.98 240.00
  A 1.10 1.09 85.9 0 1 348.92 238.90
  L 365.52 236.53
  A 0.71 0.71 0.0 0 1 366.28 236.98
  L 374.03 257.19
  A 0.58 0.58 0.0 0 0 374.98 257.39
  L 382.32 250.05
  A 0.83 0.83 0.0 0 0 382.51 249.17
  L 376.10 232.44
  A 1.02 0.99 51.0 0 1 376.18 231.57
  C 376.57 230.92 379.12 228.38 379.09 227.77
  A 0.56 0.55 -1.6 0 0 378.53 227.25
  L 374.78 227.25
  A 0.95 0.95 0.0 0 1 373.87 226.57
  L 368.60 208.16
  A 2.79 2.77 59.3 0 1 369.28 205.46
  L 375.07 199.47
  Q 376.98 197.50 374.54 196.24
  C 365.01 191.32 350.61 192.53 339.95 192.96
  C 326.67 193.51 305.54 197.89 297.36 209.60
  Q 297.25 209.75 297.23 209.91
  Q 297.21 210.05 297.21 210.18
  A 0.28 0.27 -10.0 0 0 297.58 210.43
  L 313.78 204.27
  A 0.50 0.50 0.0 0 1 314.45 204.72
  Z"
/>
<path fill="#b2b2b2" d="
  M 370.47 0.98
  Q 370.28 1.71 370.89 3.13
  A 1.08 1.05 -44.3 0 1 370.87 4.01
  Q 369.88 5.99 367.70 6.34
  A 0.99 0.99 0.0 0 0 367.00 6.81
  C 364.40 11.10 356.74 15.42 352.35 17.97
  Q 351.88 18.25 351.96 17.71
  L 352.20 16.16
  Q 352.31 15.46 351.66 15.73
  Q 346.53 17.88 343.10 22.60
  Q 339.28 27.86 329.52 40.50
  L 321.08 43.72
  Q 319.77 32.21 327.73 23.73
  Q 339.04 11.69 353.44 4.55
  C 355.01 3.77 357.42 3.95 359.23 3.61
  Q 360.31 3.41 359.50 4.15
  L 359.13 4.50
  A 0.51 0.51 0.0 0 0 359.12 5.25
  L 359.38 5.50
  A 0.14 0.13 -43.4 0 0 359.57 5.50
  L 361.50 3.54
  L 365.19 0.67
  Q 365.58 0.37 366.06 0.26
  Q 368.33 -0.27 370.47 0.98
  Z"
/>
<path fill="#d7d7d7" d="
  M 370.47 0.98
  Q 380.68 1.43 388.03 6.47
  C 392.76 9.71 393.79 16.52 388.27 20.10
  C 376.91 27.46 366.40 31.51 355.65 37.72
  Q 353.16 39.16 348.64 41.34
  C 344.11 43.53 341.02 46.53 335.29 46.50
  L 334.15 40.87
  A 0.63 0.63 0.0 0 0 333.51 40.36
  L 329.52 40.50
  Q 339.28 27.86 343.10 22.60
  Q 346.53 17.88 351.66 15.73
  Q 352.31 15.46 352.20 16.16
  L 351.96 17.71
  Q 351.88 18.25 352.35 17.97
  C 356.74 15.42 364.40 11.10 367.00 6.81
  A 0.99 0.99 0.0 0 1 367.70 6.34
  Q 369.88 5.99 370.87 4.01
  A 1.08 1.05 -44.3 0 0 370.89 3.13
  Q 370.28 1.71 370.47 0.98
  Z"
/>
<path fill="#0c0c0c" d="
  M 66.17 24.10
  Q 64.46 25.02 64.22 26.94
  Q 62.78 38.23 62.47 49.57
  C 61.83 73.54 60.18 89.20 67.97 106.49
  A 2.45 2.45 0.0 0 1 67.69 108.98
  Q 64.81 112.80 60.32 114.52
  A 0.69 0.69 0.0 0 1 59.46 114.17
  Q 54.10 102.73 53.66 91.06
  C 52.90 71.23 53.60 50.36 56.25 29.69
  Q 56.31 29.18 55.85 29.42
  Q 43.17 35.94 32.76 45.63
  A 0.40 0.39 -41.5 0 1 32.20 45.60
  L 32.02 45.39
  A 0.37 0.36 37.9 0 1 31.97 45.00
  Q 33.70 41.25 35.23 39.96
  C 49.74 27.69 66.83 16.44 85.17 11.37
  Q 87.85 10.63 90.88 11.22
  A 0.66 0.66 0.0 0 1 91.41 11.83
  C 91.70 16.38 87.38 20.38 83.89 22.30
  A 0.48 0.48 0.0 0 1 83.20 22.00
  L 82.67 19.95
  A 0.51 0.51 0.0 0 0 82.22 19.57
  C 77.29 19.20 70.46 21.80 66.17 24.10
  Z"
/>
<path fill="#cbcbcb" d="
  M 244.46 20.25
  Q 244.41 23.13 242.97 25.64
  A 1.69 1.66 -30.9 0 0 242.74 26.52
  L 242.74 27.02
  A 1.33 1.33 0.0 0 1 242.44 27.89
  C 241.20 29.43 239.12 33.89 238.02 34.53
  A 0.35 0.34 73.2 0 1 237.50 34.25
  L 237.46 33.43
  A 0.41 0.41 0.0 0 0 236.86 33.09
  Q 236.66 33.19 236.54 33.50
  C 237.90 28.29 241.37 24.54 244.46 20.25
  Z"
/>
<path fill="#0c0c0c" d="
  M 321.08 43.72
  L 329.52 40.50
  L 333.51 40.36
  A 0.63 0.63 0.0 0 1 334.15 40.87
  L 335.29 46.50
  L 335.13 65.89
  A 0.11 0.11 0.0 0 0 335.24 66.00
  L 335.52 66.00
  A 0.15 0.14 13.2 0 0 335.65 65.92
  C 340.96 56.20 346.10 45.80 354.15 41.20
  Q 355.16 40.62 354.59 41.63
  L 352.90 44.69
  A 0.48 0.47 33.3 0 0 353.03 45.29
  C 354.68 46.54 354.03 71.76 354.04 75.50
  Q 354.06 84.47 357.61 90.66
  A 0.47 0.47 0.0 0 0 358.35 90.76
  L 374.55 74.58
  Q 375.29 73.84 374.28 74.08
  Q 367.69 75.61 361.24 73.51
  Q 358.46 72.60 358.41 69.67
  C 358.30 63.40 367.77 53.26 374.25 54.12
  A 1.24 1.24 0.0 0 0 375.59 52.50
  C 373.36 45.83 374.58 41.23 380.64 37.57
  Q 382.65 36.34 382.95 38.68
  L 385.26 57.22
  A 0.69 0.68 -85.7 0 0 385.76 57.81
  C 392.50 59.74 397.60 64.56 397.94 71.76
  C 398.41 81.86 399.95 89.75 389.45 95.28
  Q 387.55 96.28 386.08 94.72
  C 381.56 89.92 379.59 82.45 378.26 76.16
  Q 377.98 74.79 376.95 75.73
  Q 368.24 83.70 360.29 92.43
  A 0.58 0.58 0.0 0 0 360.35 93.27
  Q 361.70 94.36 363.44 94.64
  A 1.49 1.44 -53.3 0 0 364.36 94.49
  C 365.04 94.13 368.75 91.74 369.20 91.97
  A 0.48 0.48 0.0 0 1 369.38 92.67
  C 367.25 95.76 358.50 105.24 354.33 102.70
  Q 352.30 101.45 350.75 103.27
  Q 338.40 117.78 326.85 131.59
  Q 324.42 134.49 320.25 137.50
  Q 319.80 137.82 319.78 137.27
  C 319.66 134.04 347.06 103.80 349.51 101.06
  A 0.76 0.76 0.0 0 0 349.63 100.22
  L 346.26 93.06
  A 0.33 0.33 0.0 0 0 345.73 92.97
  C 342.18 96.75 336.57 104.47 330.82 98.45
  Q 327.44 94.92 326.36 89.90
  Q 326.26 89.42 325.96 89.81
  C 323.41 93.21 318.12 100.37 314.38 102.07
  Q 310.81 103.70 311.60 99.85
  Q 313.09 92.53 319.56 89.54
  Q 319.89 89.39 320.56 89.60
  A 0.74 0.72 28.6 0 0 321.34 89.38
  C 324.62 85.58 326.52 82.06 326.51 76.73
  C 326.49 69.55 326.18 62.15 326.73 55.01
  Q 327.03 51.10 324.07 48.74
  L 320.48 49.97
  A 0.52 0.51 68.8 0 0 320.18 50.66
  L 320.96 52.50
  Q 324.14 63.03 323.77 74.03
  C 323.40 84.73 306.93 95.28 297.79 97.45
  A 0.65 0.65 0.0 0 0 297.28 98.06
  C 296.68 114.50 300.34 129.94 303.53 145.46
  A 2.64 2.62 -31.6 0 1 303.00 147.64
  Q 299.97 151.42 295.94 154.10
  A 0.45 0.45 0.0 0 1 295.26 153.83
  Q 291.40 137.57 288.96 120.94
  L 288.58 98.01
  A 0.83 0.82 13.7 0 0 288.13 97.28
  C 283.77 94.99 283.88 91.92 283.10 87.66
  Q 282.78 85.92 281.76 87.36
  C 277.60 93.19 269.79 101.60 261.75 100.18
  C 257.61 99.45 254.74 99.98 250.68 98.37
  A 0.67 0.67 0.0 0 0 249.92 98.56
  C 247.90 101.01 246.09 99.20 244.73 97.48
  A 0.46 0.45 50.0 0 0 244.07 97.42
  L 240.53 100.51
  A 1.27 1.26 57.8 0 1 238.53 100.05
  C 236.17 94.48 235.76 88.62 236.02 82.64
  Q 236.05 81.93 235.66 82.52
  Q 228.39 93.46 216.38 98.25
  L 207.76 97.28
  A 1.06 1.05 26.3 0 0 206.90 97.57
  L 199.52 104.63
  Q 197.84 106.25 197.43 103.95
  L 196.32 97.69
  A 0.37 0.37 0.0 0 0 195.77 97.44
  C 188.20 101.80 178.14 99.07 170.70 95.82
  A 0.92 0.91 -49.3 0 0 169.85 95.89
  L 167.42 97.48
  A 1.42 1.42 0.0 0 1 165.33 96.85
  Q 162.98 91.32 162.84 85.26
  Q 162.82 84.30 162.42 85.18
  Q 159.24 92.13 153.04 96.38
  C 146.97 100.53 145.58 90.10 145.70 86.74
  Q 145.74 85.72 145.15 86.56
  C 141.36 91.95 136.27 98.01 130.54 100.48
  C 120.93 104.63 112.77 97.99 108.15 89.58
  A 0.41 0.41 0.0 0 0 107.53 89.47
  C 100.55 95.49 97.16 101.26 86.95 102.13
  C 80.82 102.66 79.90 95.35 80.69 91.06
  C 82.36 82.00 95.68 68.72 102.67 63.16
  A 2.00 1.99 -29.1 0 0 103.31 60.93
  C 99.93 51.55 93.68 51.47 85.13 52.83
  C 80.35 53.59 80.65 56.30 80.42 60.17
  C 78.62 91.06 79.28 123.46 80.01 155.29
  Q 80.06 157.62 78.54 159.37
  Q 75.91 162.42 72.32 164.34
  A 0.35 0.35 0.0 0 1 71.80 164.05
  C 70.16 136.30 70.62 108.04 71.21 80.25
  Q 71.34 74.28 71.83 68.26
  Q 71.90 67.47 71.28 67.96
  L 68.22 70.42
  A 0.54 0.53 -23.9 0 1 67.36 70.09
  C 66.57 65.31 68.24 62.42 71.17 58.37
  Q 82.26 43.05 101.76 43.79
  C 108.24 44.04 110.61 49.58 113.07 54.53
  A 0.40 0.40 0.0 0 0 113.68 54.66
  C 121.95 47.99 125.83 38.81 139.77 40.24
  C 147.05 40.98 150.33 46.97 150.97 53.46
  A 0.29 0.29 0.0 0 0 151.41 53.68
  L 154.96 51.48
  Q 156.11 50.77 156.07 52.12
  C 155.90 58.19 154.50 65.12 154.29 70.05
  Q 153.97 77.79 155.11 85.49
  A 0.36 0.35 69.5 0 0 155.65 85.74
  C 156.89 84.92 161.37 64.59 162.00 61.75
  C 162.72 58.55 165.74 55.83 168.77 53.89
  C 178.93 47.34 190.29 41.20 202.47 39.36
  L 202.82 39.46
  A 0.72 0.72 0.0 0 1 203.34 40.14
  Q 203.40 42.95 201.91 45.36
  Q 201.47 46.06 202.26 45.80
  L 203.52 45.39
  A 0.49 0.49 0.0 0 1 204.16 45.84
  L 204.35 52.64
  L 204.29 59.43
  Q 204.28 59.96 204.73 59.67
  L 208.54 57.25
  Q 216.24 52.34 227.31 44.56
  Q 227.82 44.21 228.29 44.75
  Q 225.97 48.69 222.50 51.71
  L 204.65 63.80
  A 0.91 0.90 -17.1 0 0 204.25 64.55
  L 204.25 83.18
  A 0.95 0.93 -71.7 0 0 204.62 83.93
  Q 210.02 88.03 216.71 89.00
  L 225.25 89.13
  Q 227.01 89.15 228.03 87.72
  Q 233.24 80.37 235.21 71.46
  C 236.64 64.99 235.15 57.94 237.41 51.28
  Q 237.58 50.78 237.10 51.00
  L 225.21 56.51
  Q 221.38 57.69 218.39 59.80
  A 0.40 0.40 0.0 0 1 217.78 59.60
  C 217.20 57.89 221.53 53.93 222.79 53.00
  Q 229.42 48.73 236.75 45.79
  C 244.47 42.31 252.10 38.10 260.55 36.68
  A 1.27 1.27 0.0 0 1 261.99 38.25
  L 261.34 40.75
  A 0.39 0.39 0.0 0 0 261.76 41.24
  C 274.08 39.95 282.09 53.23 285.43 63.30
  C 286.22 65.68 286.11 68.23 286.42 70.80
  Q 286.48 71.32 286.82 70.92
  C 290.04 67.04 288.76 55.00 288.80 49.89
  Q 288.80 49.22 288.36 49.73
  Q 287.05 51.25 285.05 51.54
  Q 284.28 51.65 284.71 51.01
  C 289.71 43.43 296.64 38.99 305.26 38.58
  C 310.48 38.33 313.94 41.34 317.15 45.22
  A 0.63 0.63 0.0 0 0 317.94 45.38
  L 321.08 43.72
  Z
  M 245.52 54.36
  A 0.31 0.31 0.0 0 0 246.08 54.55
  L 252.91 45.65
  A 0.31 0.31 0.0 0 0 252.58 45.16
  L 245.81 47.04
  A 0.31 0.31 0.0 0 0 245.58 47.33
  L 245.52 54.36
  Z
  M 306.26 50.64
  Q 302.78 47.29 297.91 47.20
  A 0.65 0.65 0.0 0 0 297.25 47.85
  L 297.24 58.73
  Q 297.24 59.29 297.68 58.93
  L 306.21 51.83
  A 0.81 0.80 -42.7 0 0 306.26 50.64
  Z
  M 192.24 54.65
  L 194.74 49.45
  A 1.03 1.02 -46.0 0 0 194.73 48.56
  C 193.44 46.01 174.02 54.61 171.36 56.79
  A 1.23 1.20 -16.5 0 0 170.92 57.58
  Q 170.41 61.95 171.30 66.23
  A 0.41 0.40 65.0 0 0 171.94 66.47
  C 177.81 61.94 188.19 59.54 195.01 58.08
  A 0.62 0.60 84.2 0 0 195.49 57.48
  L 195.51 53.70
  Q 195.51 52.71 194.87 53.48
  Q 194.03 54.50 192.91 55.23
  Q 191.54 56.12 192.24 54.65
  Z
  M 137.06 50.44
  Q 133.29 47.94 127.72 48.86
  A 0.77 0.76 1.1 0 0 127.11 49.44
  C 125.37 57.05 123.07 64.67 122.47 72.25
  Q 122.14 76.55 121.73 83.25
  C 121.24 91.29 130.89 91.04 136.27 90.26
  Q 138.77 89.90 139.69 87.54
  C 142.41 80.57 145.32 55.91 137.06 50.44
  Z
  M 255.19 87.81
  C 260.32 91.54 264.79 90.87 270.24 92.00
  C 279.88 93.99 278.00 73.97 276.27 69.61
  C 272.90 61.14 267.67 52.45 258.40 49.73
  Q 256.19 49.09 255.26 51.19
  Q 253.01 56.34 252.01 62.73
  C 250.88 69.98 248.35 82.84 255.19 87.81
  Z
  M 297.29 76.75
  L 297.29 80.00
  L 297.35 88.85
  A 0.55 0.55 0.0 0 0 297.87 89.39
  C 302.94 89.70 315.54 88.19 315.49 81.01
  Q 315.44 73.76 313.71 65.75
  Q 313.12 61.61 311.04 58.00
  Q 310.73 55.97 309.05 55.15
  A 1.11 1.10 -45.3 0 0 308.05 55.16
  Q 302.56 58.07 297.80 62.08
  A 1.20 1.20 0.0 0 0 297.38 62.97
  L 297.29 76.75
  Z
  M 344.10 59.45
  C 340.87 64.29 335.57 71.19 335.03 76.82
  C 334.44 82.92 337.03 93.16 345.32 92.03
  A 0.51 0.51 0.0 0 0 345.77 91.48
  Q 344.56 75.65 345.10 59.77
  Q 345.17 57.84 344.10 59.45
  Z
  M 193.51 89.60
  C 188.37 83.72 191.08 74.01 195.28 68.43
  A 1.58 1.50 65.0 0 0 195.58 67.54
  L 195.66 60.62
  Q 195.66 59.88 195.14 60.40
  C 192.41 63.14 189.87 66.07 185.92 67.05
  Q 179.89 68.54 174.03 70.65
  A 0.47 0.46 -22.0 0 0 173.76 71.28
  C 176.24 76.81 175.47 80.36 175.88 85.56
  A 0.94 0.92 -79.6 0 0 176.40 86.33
  Q 184.71 90.33 193.92 91.26
  A 0.58 0.57 81.1 0 0 194.50 90.46
  Q 194.38 90.18 194.19 90.06
  Q 193.60 89.71 193.51 89.60
  Z
  M 376.0835 66.0480
  A 4.76 0.76 15.2 0 0 371.6893 64.0666
  A 4.76 0.76 15.2 0 0 366.8965 63.5520
  A 4.76 0.76 15.2 0 0 371.2907 65.5334
  A 4.76 0.76 15.2 0 0 376.0835 66.0480
  Z
  M 91.84 92.57
  C 93.93 94.00 95.11 93.56 97.74 93.02
  C 109.74 90.53 106.49 73.08 105.08 65.20
  A 0.32 0.32 0.0 0 0 104.58 64.99
  C 97.63 69.89 86.94 80.12 89.70 89.62
  Q 90.23 91.48 91.84 92.57
  Z"
/>
<path fill="#cbcbcb" d="
  M 245.52 54.36
  L 245.58 47.33
  A 0.31 0.31 0.0 0 1 245.81 47.04
  L 252.58 45.16
  A 0.31 0.31 0.0 0 1 252.91 45.65
  L 246.08 54.55
  A 0.31 0.31 0.0 0 1 245.52 54.36
  Z"
/>
<path fill="#cbcbcb" d="
  M 306.26 50.64
  A 0.81 0.80 -42.7 0 1 306.21 51.83
  L 297.68 58.93
  Q 297.24 59.29 297.24 58.73
  L 297.25 47.85
  A 0.65 0.65 0.0 0 1 297.91 47.20
  Q 302.78 47.29 306.26 50.64
  Z"
/>
<path fill="#ffffff" d="
  M 192.91 55.23
  Q 194.03 54.50 194.87 53.48
  Q 195.51 52.71 195.51 53.70
  L 195.49 57.48
  A 0.62 0.60 84.2 0 1 195.01 58.08
  C 188.19 59.54 177.81 61.94 171.94 66.47
  A 0.41 0.40 65.0 0 1 171.30 66.23
  Q 170.41 61.95 170.92 57.58
  A 1.23 1.20 -16.5 0 1 171.36 56.79
  C 174.02 54.61 193.44 46.01 194.73 48.56
  A 1.03 1.02 -46.0 0 1 194.74 49.45
  L 192.24 54.65
  Q 191.54 56.12 192.91 55.23
  Z"
/>
<path fill="#ffffff" d="
  M 137.06 50.44
  C 145.32 55.91 142.41 80.57 139.69 87.54
  Q 138.77 89.90 136.27 90.26
  C 130.89 91.04 121.24 91.29 121.73 83.25
  Q 122.14 76.55 122.47 72.25
  C 123.07 64.67 125.37 57.05 127.11 49.44
  A 0.77 0.76 1.1 0 1 127.72 48.86
  Q 133.29 47.94 137.06 50.44
  Z"
/>
<path fill="#cbcbcb" d="
  M 324.07 48.74
  Q 322.95 51.67 320.96 52.50
  L 320.18 50.66
  A 0.52 0.51 68.8 0 1 320.48 49.97
  L 324.07 48.74
  Z"
/>
<path fill="#cbcbcb" d="
  M 255.19 87.81
  C 248.35 82.84 250.88 69.98 252.01 62.73
  Q 253.01 56.34 255.26 51.19
  Q 256.19 49.09 258.40 49.73
  C 267.67 52.45 272.90 61.14 276.27 69.61
  C 278.00 73.97 279.88 93.99 270.24 92.00
  C 264.79 90.87 260.32 91.54 255.19 87.81
  Z"
/>
<path fill="#cbcbcb" d="
  M 216.71 89.00
  L 218.46 83.13
  Q 218.59 82.66 218.89 82.27
  C 222.34 77.71 221.54 73.34 222.43 68.08
  A 0.29 0.28 -82.0 0 0 222.19 67.75
  L 221.92 67.71
  A 0.44 0.43 -76.0 0 1 221.58 67.13
  L 225.21 56.51
  L 237.10 51.00
  Q 237.58 50.78 237.41 51.28
  C 235.15 57.94 236.64 64.99 235.21 71.46
  Q 233.24 80.37 228.03 87.72
  Q 227.01 89.15 225.25 89.13
  L 216.71 89.00
  Z"
/>
<path fill="#ffffff" d="
  M 222.50 51.71
  Q 223.33 52.06 222.79 53.00
  C 221.53 53.93 217.20 57.89 217.78 59.60
  A 0.40 0.40 0.0 0 0 218.39 59.80
  Q 221.38 57.69 225.21 56.51
  L 221.58 67.13
  A 0.44 0.43 -76.0 0 0 221.92 67.71
  L 222.19 67.75
  A 0.29 0.28 -82.0 0 1 222.43 68.08
  C 221.54 73.34 222.34 77.71 218.89 82.27
  Q 218.59 82.66 218.46 83.13
  L 216.71 89.00
  Q 210.02 88.03 204.62 83.93
  A 0.95 0.93 -71.7 0 1 204.25 83.18
  L 204.25 64.55
  A 0.91 0.90 -17.1 0 1 204.65 63.80
  L 222.50 51.71
  Z"
/>
<path fill="#ffffff" d="
  M 204.35 52.64
  Q 207.30 54.11 208.54 57.25
  L 204.73 59.67
  Q 204.28 59.96 204.29 59.43
  L 204.35 52.64
  Z"
/>
<path fill="#ffffff" d="
  M 311.04 58.00
  Q 306.18 66.16 302.80 75.06
  Q 302.51 75.81 302.09 75.14
  L 301.79 74.67
  A 0.48 0.48 0.0 0 0 301.01 74.62
  Q 299.51 76.48 297.29 76.75
  L 297.38 62.97
  A 1.20 1.20 0.0 0 1 297.80 62.08
  Q 302.56 58.07 308.05 55.16
  A 1.11 1.10 -45.3 0 1 309.05 55.15
  Q 310.73 55.97 311.04 58.00
  Z"
/>
<path fill="#cbcbcb" d="
  M 311.04 58.00
  Q 313.12 61.61 313.71 65.75
  C 309.38 68.85 311.17 72.86 308.52 76.44
  Q 307.64 77.64 307.95 76.19
  Q 308.29 74.58 309.11 73.10
  A 0.18 0.18 0.0 0 0 309.01 72.84
  L 308.72 72.74
  A 0.42 0.42 0.0 0 0 308.24 72.90
  C 306.99 74.78 305.94 76.04 304.47 78.42
  Q 302.28 81.97 297.29 80.00
  L 297.29 76.75
  Q 299.51 76.48 301.01 74.62
  A 0.48 0.48 0.0 0 1 301.79 74.67
  L 302.09 75.14
  Q 302.51 75.81 302.80 75.06
  Q 306.18 66.16 311.04 58.00
  Z"
/>
<path fill="#ffffff" d="
  M 344.10 59.45
  Q 345.17 57.84 345.10 59.77
  Q 344.56 75.65 345.77 91.48
  A 0.51 0.51 0.0 0 1 345.32 92.03
  C 337.03 93.16 334.44 82.92 335.03 76.82
  C 335.57 71.19 340.87 64.29 344.10 59.45
  Z"
/>
<path fill="#ffffff" d="
  M 194.19 90.06
  Q 194.38 90.18 194.50 90.46
  A 0.58 0.57 81.1 0 1 193.92 91.26
  Q 184.71 90.33 176.40 86.33
  A 0.94 0.92 -79.6 0 1 175.88 85.56
  C 175.47 80.36 176.24 76.81 173.76 71.28
  A 0.47 0.46 -22.0 0 1 174.03 70.65
  Q 179.89 68.54 185.92 67.05
  C 189.87 66.07 192.41 63.14 195.14 60.40
  Q 195.66 59.88 195.66 60.62
  L 195.58 67.54
  A 1.58 1.50 65.0 0 1 195.28 68.43
  C 191.08 74.01 188.37 83.72 193.51 89.60
  Q 193.60 89.71 194.19 90.06
  Z"
/>
<ellipse fill="#ffffff" cx="0.00" cy="0.00" transform="translate(371.49,64.80) rotate(15.2)" rx="4.76" ry="0.76"/>
<path fill="#ffffff" d="
  M 91.84 92.57
  Q 90.23 91.48 89.70 89.62
  C 86.94 80.12 97.63 69.89 104.58 64.99
  A 0.32 0.32 0.0 0 1 105.08 65.20
  C 106.49 73.08 109.74 90.53 97.74 93.02
  C 95.11 93.56 93.93 94.00 91.84 92.57
  Z"
/>
<path fill="#ffffff" d="
  M 313.71 65.75
  Q 315.44 73.76 315.49 81.01
  C 315.54 88.19 302.94 89.70 297.87 89.39
  A 0.55 0.55 0.0 0 1 297.35 88.85
  L 297.29 80.00
  Q 302.28 81.97 304.47 78.42
  C 305.94 76.04 306.99 74.78 308.24 72.90
  A 0.42 0.42 0.0 0 1 308.72 72.74
  L 309.01 72.84
  A 0.18 0.18 0.0 0 1 309.11 73.10
  Q 308.29 74.58 307.95 76.19
  Q 307.64 77.64 308.52 76.44
  C 311.17 72.86 309.38 68.85 313.71 65.75
  Z"
/>
<path fill="#cbcbcb" d="
  M 288.96 120.94
  Q 287.31 123.99 286.88 127.45
  C 286.21 132.83 285.19 136.76 284.55 141.49
  C 284.02 145.34 282.67 149.31 282.25 153.40
  A 0.30 0.29 -3.7 0 0 282.61 153.71
  C 283.12 153.60 287.47 137.02 287.95 135.24
  A 0.65 0.64 6.0 0 1 288.55 134.76
  L 288.84 134.75
  A 0.54 0.54 0.0 0 1 289.39 135.25
  C 289.57 137.66 289.69 139.56 288.90 142.03
  C 286.86 148.47 286.76 156.97 286.27 163.75
  C 286.05 166.70 281.68 173.56 283.53 178.11
  A 0.57 0.57 0.0 0 1 283.18 178.87
  L 282.54 179.09
  A 0.75 0.74 82.2 0 0 282.03 179.77
  Q 281.99 180.83 283.07 181.22
  A 0.66 0.65 -77.8 0 1 283.50 181.89
  Q 283.16 185.93 281.38 189.46
  C 280.30 191.60 280.39 194.17 278.05 196.02
  A 0.58 0.57 55.9 0 0 277.91 196.77
  Q 278.84 198.35 281.00 198.29
  L 274.79 201.50
  L 275.04 199.39
  Q 275.10 198.91 275.33 198.48
  C 277.14 195.18 278.18 190.97 275.37 187.86
  A 0.58 0.57 51.5 0 0 274.62 187.77
  C 269.85 191.02 271.33 194.29 268.35 198.34
  A 1.30 1.29 -30.0 0 0 268.11 199.23
  Q 268.43 202.06 266.46 204.25
  C 263.50 196.73 258.26 198.04 251.75 197.96
  Q 251.92 195.73 251.77 193.52
  Q 250.95 181.78 251.03 169.99
  Q 251.04 168.94 251.89 166.47
  A 1.50 1.48 46.5 0 0 251.91 165.52
  C 251.05 162.73 248.73 152.28 245.71 151.75
  C 245.93 146.14 245.98 139.28 239.46 137.50
  Q 239.82 135.44 238.38 134.11
  Q 230.92 127.26 223.67 120.21
  C 221.62 118.22 215.68 112.87 213.29 116.75
  Q 212.91 115.93 212.98 114.96
  Q 215.50 106.80 216.38 98.25
  Q 228.39 93.46 235.66 82.52
  Q 236.05 81.93 236.02 82.64
  C 235.76 88.62 236.17 94.48 238.53 100.05
  A 1.27 1.26 57.8 0 0 240.53 100.51
  L 244.07 97.42
  A 0.46 0.45 50.0 0 1 244.73 97.48
  C 246.09 99.20 247.90 101.01 249.92 98.56
  A 0.67 0.67 0.0 0 1 250.68 98.37
  C 254.74 99.98 257.61 99.45 261.75 100.18
  C 269.79 101.60 277.60 93.19 281.76 87.36
  Q 282.78 85.92 283.10 87.66
  C 283.88 91.92 283.77 94.99 288.13 97.28
  A 0.83 0.82 13.7 0 1 288.58 98.01
  L 288.96 120.94
  Z
  M 267.4238 164.9897
  A 1.00 0.48 91.5 0 0 267.9298 164.0026
  A 1.00 0.48 91.5 0 0 267.4762 162.9903
  A 1.00 0.48 91.5 0 0 266.9702 163.9774
  A 1.00 0.48 91.5 0 0 267.4238 164.9897
  Z"
/>
<path fill="#d7d7d7" d="
  M 212.98 114.96
  Q 212.91 115.93 213.29 116.75
  Q 212.72 119.53 214.29 121.75
  C 207.45 125.53 198.20 131.60 195.00 139.23
  A 0.43 0.43 0.0 0 0 195.26 139.80
  C 196.17 140.10 201.87 134.35 202.90 133.15
  Q 205.01 130.73 210.00 129.46
  Q 210.18 132.81 208.77 135.88
  A 1.31 1.29 -41.2 0 0 208.70 136.80
  L 209.04 138.00
  L 201.12 148.73
  A 1.27 1.26 31.2 0 0 201.59 150.62
  C 201.99 150.82 207.06 149.19 207.96 149.00
  Q 208.85 150.30 209.02 151.85
  A 0.74 0.74 0.0 0 1 208.49 152.63
  L 207.02 153.05
  A 0.90 0.88 2.5 0 0 206.42 153.59
  C 205.43 156.26 204.91 158.86 203.74 161.47
  Q 201.58 166.31 200.39 171.48
  C 199.63 174.78 197.61 178.75 197.87 182.93
  C 198.09 186.37 197.76 188.42 197.28 191.46
  Q 197.20 191.99 196.87 192.41
  Q 194.87 194.92 197.34 196.93
  A 1.01 1.00 -68.6 0 1 197.71 197.79
  Q 197.54 199.75 198.29 201.50
  C 192.69 208.36 184.96 218.22 177.81 219.14
  Q 177.30 219.20 177.59 218.79
  C 181.94 212.57 185.36 208.52 183.35 200.36
  A 1.91 1.91 0.0 0 0 181.71 198.92
  Q 175.51 198.24 170.09 200.41
  Q 170.43 196.06 173.22 192.90
  Q 176.04 189.71 176.54 188.91
  Q 179.45 184.26 181.80 179.26
  C 185.10 178.62 199.99 172.72 198.48 167.91
  A 0.45 0.45 0.0 0 0 197.86 167.63
  Q 190.38 171.08 182.25 171.21
  L 183.51 170.84
  A 0.90 0.89 -0.6 0 0 184.13 170.21
  Q 187.24 158.56 184.75 146.62
  L 186.05 144.23
  A 0.52 0.51 -62.2 0 0 185.84 143.53
  L 185.25 143.21
  Q 185.20 137.87 187.75 133.21
  Q 192.62 130.96 195.30 126.58
  C 198.11 121.97 195.48 118.59 190.25 119.46
  L 190.25 118.53
  A 1.35 1.32 67.3 0 1 190.60 117.65
  Q 200.07 107.47 212.98 114.96
  Z"
/>
<path fill="#b2b2b2" d="
  M 239.46 137.50
  C 234.05 137.83 228.14 137.54 223.31 138.34
  Q 216.69 139.43 210.43 141.96
  A 0.10 0.10 0.0 0 1 210.29 141.88
  L 210.23 141.58
  A 0.51 0.50 61.3 0 1 210.35 141.16
  C 214.36 136.42 222.27 127.56 221.34 121.02
  A 0.59 0.59 0.0 0 0 220.77 120.51
  Q 217.33 120.41 214.29 121.75
  Q 212.72 119.53 213.29 116.75
  C 215.68 112.87 221.62 118.22 223.67 120.21
  Q 230.92 127.26 238.38 134.11
  Q 239.82 135.44 239.46 137.50
  Z"
/>
<path fill="#0c0c0c" d="
  M 190.25 119.46
  C 195.48 118.59 198.11 121.97 195.30 126.58
  Q 192.62 130.96 187.75 133.21
  C 188.59 130.00 187.69 128.38 184.29 128.24
  C 176.60 127.93 166.96 128.06 160.12 131.16
  A 0.92 0.92 0.0 0 0 159.58 131.95
  Q 159.11 140.36 160.28 148.68
  A 0.53 0.53 0.0 0 0 160.93 149.12
  L 185.25 143.21
  L 185.84 143.53
  A 0.52 0.51 -62.2 0 1 186.05 144.23
  L 184.75 146.62
  C 181.84 149.71 179.76 151.69 175.33 152.47
  Q 168.79 153.62 162.43 155.72
  A 0.67 0.66 75.4 0 0 161.99 156.49
  Q 163.54 163.50 163.83 170.67
  A 0.51 0.50 88.8 0 0 164.33 171.16
  L 182.25 171.21
  Q 190.38 171.08 197.86 167.63
  A 0.45 0.45 0.0 0 1 198.48 167.91
  C 199.99 172.72 185.10 178.62 181.80 179.26
  Q 173.97 179.86 166.28 179.81
  C 163.64 179.79 159.37 180.22 155.73 179.59
  A 1.53 1.50 72.1 0 1 154.89 179.15
  C 151.16 175.43 150.76 167.96 150.78 163.00
  Q 150.82 154.84 150.65 134.69
  C 150.60 129.37 147.66 127.97 142.69 127.78
  Q 130.56 127.33 118.12 129.23
  Q 115.50 129.62 115.50 132.27
  L 115.50 157.75
  Q 115.50 158.58 115.99 157.90
  C 121.90 149.77 142.29 133.57 148.46 150.99
  C 150.75 157.47 151.45 162.91 147.50 168.91
  C 138.53 182.51 126.89 183.24 111.94 182.34
  A 0.34 0.34 0.0 0 1 111.66 181.85
  C 118.00 169.33 129.36 176.14 139.80 172.71
  A 2.31 2.31 0.0 0 0 141.36 170.84
  C 142.17 165.04 140.40 152.56 132.35 152.16
  Q 118.49 151.46 117.39 166.07
  C 117.01 171.06 114.93 174.32 110.90 176.87
  Q 108.32 178.51 108.06 175.46
  Q 106.98 162.83 106.76 150.80
  Q 106.53 137.78 108.44 132.87
  Q 112.23 123.12 124.24 120.94
  Q 139.75 118.12 153.51 119.39
  C 157.13 119.72 158.38 122.62 159.66 126.28
  A 0.38 0.38 0.0 0 0 160.23 126.47
  C 169.16 120.32 179.33 119.40 190.25 119.46
  Z"
/>
<path fill="#0c0c0c" d="
  M 239.46 137.50
  C 245.98 139.28 245.93 146.14 245.71 151.75
  C 242.81 163.18 226.00 176.08 215.11 177.84
  C 208.94 178.84 203.56 177.38 202.27 170.67
  C 201.42 166.20 206.95 161.67 210.35 159.78
  Q 210.79 159.53 210.76 160.03
  C 209.77 175.69 234.29 169.59 236.65 159.77
  C 237.86 154.71 237.15 146.00 230.00 146.05
  C 222.50 146.10 215.02 146.11 207.96 149.00
  C 207.06 149.19 201.99 150.82 201.59 150.62
  A 1.27 1.26 31.2 0 1 201.12 148.73
  L 209.04 138.00
  Q 211.93 134.80 213.02 130.63
  Q 213.60 128.42 211.40 129.05
  L 210.00 129.46
  Q 205.01 130.73 202.90 133.15
  C 201.87 134.35 196.17 140.10 195.26 139.80
  A 0.43 0.43 0.0 0 1 195.00 139.23
  C 198.20 131.60 207.45 125.53 214.29 121.75
  Q 217.33 120.41 220.77 120.51
  A 0.59 0.59 0.0 0 1 221.34 121.02
  C 222.27 127.56 214.36 136.42 210.35 141.16
  A 0.51 0.50 61.3 0 0 210.23 141.58
  L 210.29 141.88
  A 0.10 0.10 0.0 0 0 210.43 141.96
  Q 216.69 139.43 223.31 138.34
  C 228.14 137.54 234.05 137.83 239.46 137.50
  Z"
/>
<path fill="#ffffff" d="
  M 187.75 133.21
  Q 185.20 137.87 185.25 143.21
  L 160.93 149.12
  A 0.53 0.53 0.0 0 1 160.28 148.68
  Q 159.11 140.36 159.58 131.95
  A 0.92 0.92 0.0 0 1 160.12 131.16
  C 166.96 128.06 176.60 127.93 184.29 128.24
  C 187.69 128.38 188.59 130.00 187.75 133.21
  Z"
/>
<path fill="#b2b2b2" d="
  M 209.04 138.00
  L 208.70 136.80
  A 1.31 1.29 -41.2 0 1 208.77 135.88
  Q 210.18 132.81 210.00 129.46
  L 211.40 129.05
  Q 213.60 128.42 213.02 130.63
  Q 211.93 134.80 209.04 138.00
  Z"
/>
<path fill="#b2b2b2" d="
  M 245.71 151.75
  C 248.73 152.28 251.05 162.73 251.91 165.52
  A 1.50 1.48 46.5 0 1 251.89 166.47
  Q 251.04 168.94 251.03 169.99
  Q 250.95 181.78 251.77 193.52
  Q 251.92 195.73 251.75 197.96
  Q 247.06 198.65 242.98 200.99
  A 0.53 0.53 0.0 0 1 242.22 200.70
  L 241.98 200.03
  A 0.51 0.50 66.9 0 0 241.27 199.74
  C 232.73 204.22 233.25 209.29 233.63 217.82
  A 0.34 0.34 0.0 0 1 233.19 218.16
  Q 226.46 216.04 219.45 217.14
  Q 218.49 217.29 219.08 216.51
  Q 224.39 209.55 221.03 201.34
  Q 220.15 199.17 217.83 198.91
  Q 211.19 198.14 204.97 200.48
  A 1.14 1.14 0.0 0 1 203.45 199.64
  Q 203.30 198.94 202.66 198.76
  A 0.77 0.75 26.4 0 0 201.85 199.02
  Q 200.46 200.81 198.29 201.50
  Q 197.54 199.75 197.71 197.79
  A 1.01 1.00 -68.6 0 0 197.34 196.93
  Q 194.87 194.92 196.87 192.41
  Q 197.20 191.99 197.28 191.46
  C 197.76 188.42 198.09 186.37 197.87 182.93
  C 197.61 178.75 199.63 174.78 200.39 171.48
  Q 201.58 166.31 203.74 161.47
  C 204.91 158.86 205.43 156.26 206.42 153.59
  A 0.90 0.88 2.5 0 1 207.02 153.05
  L 208.49 152.63
  A 0.74 0.74 0.0 0 0 209.02 151.85
  Q 208.85 150.30 207.96 149.00
  C 215.02 146.11 222.50 146.10 230.00 146.05
  C 237.15 146.00 237.86 154.71 236.65 159.77
  C 234.29 169.59 209.77 175.69 210.76 160.03
  Q 210.79 159.53 210.35 159.78
  C 206.95 161.67 201.42 166.20 202.27 170.67
  C 203.56 177.38 208.94 178.84 215.11 177.84
  C 226.00 176.08 242.81 163.18 245.71 151.75
  Z"
/>
<path fill="#ffffff" d="
  M 184.75 146.62
  Q 187.24 158.56 184.13 170.21
  A 0.90 0.89 -0.6 0 1 183.51 170.84
  L 182.25 171.21
  L 164.33 171.16
  A 0.51 0.50 88.8 0 1 163.83 170.67
  Q 163.54 163.50 161.99 156.49
  A 0.67 0.66 75.4 0 1 162.43 155.72
  Q 168.79 153.62 175.33 152.47
  C 179.76 151.69 181.84 149.71 184.75 146.62
  Z"
/>
<ellipse fill="#ffffff" cx="0.00" cy="0.00" transform="translate(267.45,163.99) rotate(91.5)" rx="1.00" ry="0.48"/>
<path fill="#ffffff" d="
  M 274.79 201.50
  L 267.64 206.23
  A 0.48 0.48 0.0 0 1 266.96 206.08
  Q 266.48 205.26 266.46 204.25
  Q 268.43 202.06 268.11 199.23
  A 1.30 1.29 -30.0 0 1 268.35 198.34
  C 271.33 194.29 269.85 191.02 274.62 187.77
  A 0.58 0.57 51.5 0 1 275.37 187.86
  C 278.18 190.97 277.14 195.18 275.33 198.48
  Q 275.10 198.91 275.04 199.39
  L 274.79 201.50
  Z"
/>
<path fill="#0c0c0c" d="
  M 313.78 204.27
  L 297.58 210.43
  A 0.28 0.27 -10.0 0 1 297.21 210.18
  Q 297.21 210.05 297.23 209.91
  Q 297.25 209.75 297.36 209.60
  C 305.54 197.89 326.67 193.51 339.95 192.96
  C 350.61 192.53 365.01 191.32 374.54 196.24
  Q 376.98 197.50 375.07 199.47
  L 369.28 205.46
  A 2.79 2.77 59.3 0 0 368.60 208.16
  L 373.87 226.57
  A 0.95 0.95 0.0 0 0 374.78 227.25
  L 378.53 227.25
  A 0.56 0.55 -1.6 0 1 379.09 227.77
  C 379.12 228.38 376.57 230.92 376.18 231.57
  A 1.02 0.99 51.0 0 0 376.10 232.44
  L 382.51 249.17
  A 0.83 0.83 0.0 0 1 382.32 250.05
  L 374.98 257.39
  A 0.58 0.58 0.0 0 1 374.03 257.19
  L 366.28 236.98
  A 0.71 0.71 0.0 0 0 365.52 236.53
  L 348.92 238.90
  A 1.10 1.09 85.9 0 0 347.98 240.00
  L 348.13 248.89
  A 1.28 1.26 -73.4 0 0 348.68 249.92
  Q 352.01 252.16 355.95 251.31
  A 1.46 1.42 10.9 0 0 356.82 250.74
  C 357.62 249.63 363.26 243.51 364.26 244.33
  A 0.53 0.53 0.0 0 1 364.39 245.00
  C 361.42 250.42 354.50 258.95 348.06 260.05
  C 335.75 262.15 339.07 247.08 340.14 240.48
  A 0.40 0.40 0.0 0 0 339.73 240.02
  L 337.27 240.10
  A 0.50 0.50 0.0 0 1 336.81 239.37
  Q 338.68 235.81 341.91 233.41
  Q 342.33 233.10 342.55 232.62
  Q 348.27 220.01 355.73 212.21
  Q 358.66 209.15 358.27 205.85
  Q 358.22 205.42 358.39 205.03
  L 358.87 203.89
  Q 359.73 201.83 357.51 201.67
  Q 341.22 200.44 324.94 201.99
  A 1.29 1.27 -2.1 0 0 323.78 203.22
  C 323.31 218.59 325.19 236.19 332.23 250.20
  Q 333.48 252.69 331.38 254.54
  L 325.21 259.96
  A 0.62 0.62 0.0 0 1 324.24 259.76
  C 315.76 241.59 315.10 224.37 314.45 204.72
  A 0.50 0.50 0.0 0 0 313.78 204.27
  Z
  M 358.59 212.82
  Q 352.47 220.99 349.49 230.77
  A 0.49 0.49 0.0 0 0 350.02 231.40
  L 363.24 229.67
  A 0.52 0.52 0.0 0 0 363.67 229.02
  L 359.31 212.96
  Q 359.09 212.16 358.59 212.82
  Z"
/>
<path fill="#0c0c0c" d="
  M 159.04 217.25
  Q 159.56 227.85 157.11 238.12
  Q 156.87 239.15 157.54 238.33
  Q 161.57 233.41 166.75 229.71
  Q 168.62 228.37 166.47 229.19
  Q 163.94 230.14 161.59 231.49
  A 0.40 0.40 0.0 0 1 160.99 231.15
  L 160.99 230.80
  Q 160.98 229.10 162.29 228.01
  C 169.21 222.19 177.79 219.93 174.57 208.21
  A 0.76 0.75 85.2 0 0 173.94 207.67
  Q 168.96 207.05 164.04 208.25
  Q 165.93 203.39 170.09 200.41
  Q 175.51 198.24 181.71 198.92
  A 1.91 1.91 0.0 0 1 183.35 200.36
  C 185.36 208.52 181.94 212.57 177.59 218.79
  Q 177.30 219.20 177.81 219.14
  C 184.96 218.22 192.69 208.36 198.29 201.50
  Q 200.46 200.81 201.85 199.02
  A 0.77 0.75 26.4 0 1 202.66 198.76
  Q 203.30 198.94 203.45 199.64
  A 1.14 1.14 0.0 0 0 204.97 200.48
  Q 211.19 198.14 217.83 198.91
  Q 220.15 199.17 221.03 201.34
  Q 224.39 209.55 219.08 216.51
  Q 218.49 217.29 219.45 217.14
  Q 226.46 216.04 233.19 218.16
  A 0.34 0.34 0.0 0 0 233.63 217.82
  C 233.25 209.29 232.73 204.22 241.27 199.74
  A 0.51 0.50 66.9 0 1 241.98 200.03
  L 242.22 200.70
  A 0.53 0.53 0.0 0 0 242.98 200.99
  Q 247.06 198.65 251.75 197.96
  C 258.26 198.04 263.50 196.73 266.46 204.25
  Q 266.48 205.26 266.96 206.08
  A 0.48 0.48 0.0 0 0 267.64 206.23
  L 274.79 201.50
  L 281.00 198.29
  Q 284.81 196.72 288.94 197.17
  A 0.67 0.66 1.1 0 1 289.54 197.78
  L 289.86 201.90
  A 1.25 1.24 22.0 0 0 290.18 202.65
  Q 291.59 204.19 292.23 207.25
  Q 294.68 218.82 296.92 230.42
  A 0.66 0.65 78.4 0 0 297.70 230.94
  L 306.39 229.11
  Q 308.20 228.72 307.08 230.19
  Q 303.81 234.46 299.44 237.50
  A 0.70 0.69 -29.5 0 0 299.20 238.35
  L 302.94 246.83
  Q 303.74 248.66 302.32 250.07
  L 296.22 256.10
  A 0.53 0.52 52.6 0 1 295.40 255.99
  Q 291.21 248.86 289.13 240.85
  A 1.16 1.16 0.0 0 0 287.77 240.00
  L 273.72 242.94
  A 0.86 0.85 -7.2 0 0 273.04 243.81
  L 273.24 249.33
  Q 273.31 251.46 274.80 249.94
  C 275.90 248.82 279.49 245.09 281.00 245.13
  A 0.36 0.35 -75.2 0 1 281.30 245.65
  Q 277.71 252.69 271.27 257.05
  C 268.63 258.83 265.46 259.44 264.21 255.75
  C 264.38 251.88 265.07 248.16 265.47 244.33
  C 265.72 241.95 267.93 239.69 268.61 238.30
  Q 273.40 228.52 277.26 218.49
  Q 280.89 212.74 281.00 206.19
  A 0.52 0.51 -1.1 0 0 280.45 205.67
  L 278.50 205.79
  Q 274.74 206.04 271.71 208.25
  L 268.68 209.67
  A 0.72 0.72 0.0 0 0 268.26 210.38
  L 268.94 221.14
  Q 269.18 228.20 265.00 234.21
  L 260.21 240.75
  Q 253.51 247.38 245.20 251.77
  A 0.84 0.83 -13.4 0 0 244.75 252.49
  L 244.25 289.21
  Q 241.02 293.84 236.46 297.25
  Q 235.39 296.13 235.44 294.49
  Q 236.00 274.78 236.16 255.06
  Q 236.17 253.70 234.44 252.69
  A 1.29 1.27 6.3 0 1 233.85 251.96
  C 231.73 245.48 232.97 242.04 235.28 235.97
  Q 235.50 235.38 235.06 235.83
  L 229.21 241.75
  Q 218.92 251.98 205.26 256.60
  C 202.65 257.49 200.09 257.22 197.74 259.83
  C 197.53 260.06 197.25 260.19 196.97 260.09
  A 0.73 0.71 -80.3 0 1 196.50 259.41
  L 196.50 257.96
  A 0.53 0.52 88.0 0 0 195.94 257.43
  Q 191.90 257.64 190.93 253.67
  Q 190.30 251.06 191.85 248.88
  Q 194.81 244.73 193.87 239.58
  Q 193.80 239.18 193.55 239.50
  Q 186.47 248.59 176.75 254.71
  C 169.91 258.70 148.77 264.96 150.65 249.19
  Q 150.71 248.71 150.36 249.06
  C 143.31 256.17 138.92 260.86 130.14 263.24
  Q 124.15 263.97 118.79 262.63
  Q 113.78 261.38 112.74 254.44
  Q 112.53 253.01 111.52 254.05
  Q 101.71 264.16 87.01 267.60
  C 82.37 268.68 82.91 270.85 79.95 273.36
  Q 77.68 275.27 75.26 277.01
  Q 74.64 277.46 74.75 276.70
  Q 75.24 273.28 74.09 269.97
  A 0.69 0.69 0.0 0 0 73.42 269.50
  C 57.36 269.67 69.17 256.87 73.06 251.89
  A 1.32 1.31 -29.3 0 0 73.32 250.97
  L 72.18 239.15
  Q 72.12 238.61 71.90 238.12
  L 71.49 237.24
  A 1.74 1.71 35.7 0 1 71.33 236.32
  C 72.08 229.08 70.67 220.74 70.05 213.46
  C 69.40 205.97 70.91 201.05 77.94 198.12
  A 0.41 0.41 0.0 0 1 78.51 198.50
  L 78.49 201.91
  A 0.48 0.48 0.0 0 0 79.18 202.34
  Q 92.59 195.74 107.57 197.18
  A 1.92 1.92 0.0 0 1 109.09 198.21
  C 112.33 204.50 107.47 211.55 102.74 216.56
  A 0.46 0.46 0.0 0 0 102.77 217.21
  Q 102.95 217.37 103.21 217.28
  Q 109.93 214.85 116.08 217.44
  A 0.74 0.71 -56.2 0 0 116.88 217.27
  C 122.81 211.02 125.96 203.57 135.96 202.83
  C 146.60 202.03 157.82 204.48 159.04 217.25
  Z
  M 99.07 205.22
  Q 89.00 205.00 79.34 207.67
  A 0.64 0.63 80.0 0 0 78.88 208.33
  L 80.39 226.50
  A 0.34 0.33 71.5 0 0 80.90 226.76
  Q 87.78 222.48 95.09 219.05
  C 100.73 216.40 103.10 212.43 100.61 206.28
  A 1.70 1.69 79.5 0 0 99.07 205.22
  Z
  M 243.65 219.61
  L 244.01 225.19
  Q 244.03 225.53 244.29 225.30
  L 257.20 213.99
  A 1.36 1.36 0.0 0 0 257.58 212.49
  C 256.31 209.06 253.58 206.25 249.58 206.49
  L 242.77 206.92
  A 0.56 0.55 88.4 0 0 242.25 207.48
  Q 242.32 213.45 243.65 219.61
  Z
  M 210.35 207.55
  L 203.01 207.48
  A 0.51 0.51 0.0 0 0 202.50 207.99
  L 202.50 219.74
  A 0.41 0.41 0.0 0 0 203.07 220.11
  Q 207.83 217.94 213.05 217.68
  A 0.73 0.72 88.3 0 0 213.73 216.95
  Q 213.71 212.83 212.33 208.96
  A 2.12 2.11 -9.4 0 0 210.35 207.55
  Z
  M 193.95 211.56
  A 0.50 0.50 0.0 0 0 193.10 211.17
  L 187.09 216.98
  A 0.50 0.50 0.0 0 0 187.45 217.84
  L 193.15 217.73
  A 0.50 0.50 0.0 0 0 193.64 217.26
  L 193.95 211.56
  Z
  M 140.46 250.00
  C 147.73 252.06 149.75 242.41 149.53 236.88
  C 152.04 226.61 151.29 214.33 138.77 211.97
  C 135.81 211.41 126.45 210.09 124.69 213.07
  A 0.61 0.61 0.0 0 0 124.81 213.83
  C 127.32 216.06 124.24 224.21 123.23 229.10
  C 120.88 240.37 129.66 249.10 140.46 250.00
  Z
  M 256.04 241.08
  C 261.50 234.08 261.07 225.01 259.14 216.64
  A 0.35 0.34 65.2 0 0 258.60 216.44
  Q 251.18 221.94 244.64 228.45
  A 1.14 1.13 -25.4 0 0 244.31 229.36
  Q 245.04 236.94 244.68 244.56
  A 0.93 0.92 -8.8 0 0 245.93 245.47
  L 254.38 242.30
  A 3.86 3.84 8.6 0 0 256.04 241.08
  Z
  M 284.15 217.25
  A 0.31 0.31 0.0 0 0 283.56 217.19
  L 275.51 235.40
  A 0.31 0.31 0.0 0 0 275.87 235.83
  L 286.98 233.12
  A 0.31 0.31 0.0 0 0 287.21 232.76
  L 284.15 217.25
  Z
  M 81.90 242.31
  Q 81.98 243.05 82.54 242.55
  Q 92.92 233.31 104.19 225.19
  Q 105.11 224.52 103.97 224.52
  Q 90.84 224.57 81.22 233.49
  A 0.83 0.83 0.0 0 0 80.97 234.17
  L 81.90 242.31
  Z
  M 223.95 226.83
  C 221.14 224.62 214.09 225.49 210.47 225.50
  A 1.28 1.27 22.7 0 0 209.58 225.86
  Q 206.92 228.48 203.39 229.74
  A 0.99 0.99 0.0 0 0 202.77 230.40
  Q 201.29 235.55 204.25 239.30
  A 0.69 0.68 39.5 0 1 204.33 240.04
  L 203.47 241.74
  A 1.21 1.20 45.8 0 0 203.46 242.81
  Q 204.66 245.28 204.19 248.02
  A 1.01 1.01 0.0 0 0 205.26 249.20
  Q 217.66 248.19 227.24 240.20
  A 2.09 2.04 -13.6 0 0 227.93 239.10
  Q 229.78 231.41 223.95 226.83
  Z
  M 185.54 244.25
  Q 190.92 238.87 188.75 230.50
  Q 187.88 227.15 185.89 226.32
  Q 177.87 225.85 176.23 226.72
  C 170.09 229.96 153.24 239.92 161.59 248.73
  C 166.72 254.16 180.81 248.13 185.54 244.25
  Z
  M 82.14 247.05
  L 82.93 260.31
  A 0.51 0.51 0.0 0 0 83.47 260.79
  C 90.77 260.44 109.80 257.15 111.75 248.25
  C 113.01 242.49 112.67 232.33 108.57 227.09
  A 0.67 0.66 55.1 0 0 107.69 226.93
  Q 94.17 235.22 82.55 246.02
  A 1.30 1.26 67.5 0 0 82.14 247.05
  Z"
/>
<path fill="#ffffff" d="
  M 99.07 205.22
  A 1.70 1.69 79.5 0 1 100.61 206.28
  C 103.10 212.43 100.73 216.40 95.09 219.05
  Q 87.78 222.48 80.90 226.76
  A 0.34 0.33 71.5 0 1 80.39 226.50
  L 78.88 208.33
  A 0.64 0.63 80.0 0 1 79.34 207.67
  Q 89.00 205.00 99.07 205.22
  Z"
/>
<path fill="#ffffff" d="
  M 277.26 218.49
  Q 277.10 213.28 278.66 208.26
  A 1.27 1.26 41.5 0 0 278.60 207.34
  Q 278.23 206.55 278.50 205.79
  L 280.45 205.67
  A 0.52 0.51 -1.1 0 1 281.00 206.19
  Q 280.89 212.74 277.26 218.49
  Z"
/>
<path fill="#cbcbcb" d="
  M 278.50 205.79
  Q 278.23 206.55 278.60 207.34
  A 1.27 1.26 41.5 0 1 278.66 208.26
  Q 277.10 213.28 277.26 218.49
  Q 273.40 228.52 268.61 238.30
  C 267.93 239.69 265.72 241.95 265.47 244.33
  C 265.07 248.16 264.38 251.88 264.21 255.75
  Q 263.90 255.20 263.36 255.20
  A 0.59 0.58 2.7 0 0 262.77 255.73
  C 262.34 259.78 260.41 266.83 256.75 269.22
  Q 256.25 269.54 256.42 268.97
  L 257.09 266.75
  Q 257.54 265.28 256.30 266.19
  C 255.12 267.07 252.42 271.38 254.60 272.31
  Q 255.21 272.58 254.59 272.82
  L 253.79 273.12
  A 1.14 1.13 -2.3 0 0 253.11 273.85
  C 251.45 279.21 248.68 285.64 244.25 289.21
  L 244.75 252.49
  A 0.84 0.83 -13.4 0 1 245.20 251.77
  Q 253.51 247.38 260.21 240.75
  L 261.06 244.26
  A 0.65 0.65 0.0 0 0 261.74 244.76
  L 263.26 244.66
  A 0.76 0.75 -84.2 0 0 263.95 244.09
  L 265.05 239.70
  Q 265.19 239.12 265.04 238.53
  Q 264.59 236.82 265.32 235.25
  A 0.80 0.78 -48.8 0 0 265.28 234.52
  Q 265.16 234.33 265.00 234.21
  Q 269.18 228.20 268.94 221.14
  Q 272.72 215.75 272.19 209.25
  A 1.34 1.25 -67.0 0 0 271.95 208.59
  L 271.71 208.25
  Q 274.74 206.04 278.50 205.79
  Z
  M 259.5731 255.7228
  A 0.89 0.57 82.7 0 0 260.0254 254.7676
  A 0.89 0.57 82.7 0 0 259.3469 253.9572
  A 0.89 0.57 82.7 0 0 258.8946 254.9124
  A 0.89 0.57 82.7 0 0 259.5731 255.7228
  Z
  M 250.06 274.40
  Q 249.76 274.98 249.97 275.69
  Q 250.21 276.46 250.46 275.69
  Q 250.86 274.46 250.75 273.19
  Q 250.70 272.62 250.41 273.11
  Q 250.18 273.50 250.17 273.93
  Q 250.17 274.18 250.06 274.40
  Z"
/>
<path fill="#b2b2b2" d="
  M 249.58 206.49
  Q 249.24 208.27 248.32 209.71
  Q 247.19 211.46 246.82 212.67
  Q 245.69 216.36 243.65 219.61
  Q 242.32 213.45 242.25 207.48
  A 0.56 0.55 88.4 0 1 242.77 206.92
  L 249.58 206.49
  Z"
/>
<path fill="#cbcbcb" d="
  M 249.58 206.49
  C 253.58 206.25 256.31 209.06 257.58 212.49
  A 1.36 1.36 0.0 0 1 257.20 213.99
  L 244.29 225.30
  Q 244.03 225.53 244.01 225.19
  L 243.65 219.61
  Q 245.69 216.36 246.82 212.67
  Q 247.19 211.46 248.32 209.71
  Q 249.24 208.27 249.58 206.49
  Z"
/>
<path fill="#d7d7d7" d="
  M 159.04 217.25
  L 160.34 216.75
  A 1.17 1.15 -0.7 0 0 160.99 216.09
  L 164.04 208.25
  Q 168.96 207.05 173.94 207.67
  A 0.76 0.75 85.2 0 1 174.57 208.21
  C 177.79 219.93 169.21 222.19 162.29 228.01
  Q 160.98 229.10 160.99 230.80
  L 160.99 231.15
  A 0.40 0.40 0.0 0 0 161.59 231.49
  Q 163.94 230.14 166.47 229.19
  Q 168.62 228.37 166.75 229.71
  Q 161.57 233.41 157.54 238.33
  Q 156.87 239.15 157.11 238.12
  Q 159.56 227.85 159.04 217.25
  Z"
/>
<path fill="#b2b2b2" d="
  M 210.35 207.55
  A 2.12 2.11 -9.4 0 1 212.33 208.96
  Q 213.71 212.83 213.73 216.95
  A 0.73 0.72 88.3 0 1 213.05 217.68
  Q 207.83 217.94 203.07 220.11
  A 0.41 0.41 0.0 0 1 202.50 219.74
  L 202.50 207.99
  A 0.51 0.51 0.0 0 1 203.01 207.48
  L 210.35 207.55
  Z"
/>
<path fill="#ffffff" d="
  M 271.71 208.25
  L 271.95 208.59
  A 1.34 1.25 -67.0 0 1 272.19 209.25
  Q 272.72 215.75 268.94 221.14
  L 268.26 210.38
  A 0.72 0.72 0.0 0 1 268.68 209.67
  L 271.71 208.25
  Z"
/>
<path fill="#b2b2b2" d="
  M 193.95 211.56
  L 193.64 217.26
  A 0.50 0.50 0.0 0 1 193.15 217.73
  L 187.45 217.84
  A 0.50 0.50 0.0 0 1 187.09 216.98
  L 193.10 211.17
  A 0.50 0.50 0.0 0 1 193.95 211.56
  Z"
/>
<path fill="#ffffff" d="
  M 149.53 236.88
  L 140.46 250.00
  C 129.66 249.10 120.88 240.37 123.23 229.10
  C 124.24 224.21 127.32 216.06 124.81 213.83
  A 0.61 0.61 0.0 0 1 124.69 213.07
  C 126.45 210.09 135.81 211.41 138.77 211.97
  C 151.29 214.33 152.04 226.61 149.53 236.88
  Z"
/>
<path fill="#ffffff" d="
  M 358.59 212.82
  Q 359.09 212.16 359.31 212.96
  L 363.67 229.02
  A 0.52 0.52 0.0 0 1 363.24 229.67
  L 350.02 231.40
  A 0.49 0.49 0.0 0 1 349.49 230.77
  Q 352.47 220.99 358.59 212.82
  Z"
/>
<path fill="#cbcbcb" d="
  M 256.04 241.08
  A 3.86 3.84 8.6 0 1 254.38 242.30
  L 245.93 245.47
  A 0.93 0.92 -8.8 0 1 244.68 244.56
  Q 245.04 236.94 244.31 229.36
  A 1.14 1.13 -25.4 0 1 244.64 228.45
  Q 251.18 221.94 258.60 216.44
  A 0.35 0.34 65.2 0 1 259.14 216.64
  C 261.07 225.01 261.50 234.08 256.04 241.08
  Z"
/>
<path fill="#ffffff" d="
  M 284.15 217.25
  L 287.21 232.76
  A 0.31 0.31 0.0 0 1 286.98 233.12
  L 275.87 235.83
  A 0.31 0.31 0.0 0 1 275.51 235.40
  L 283.56 217.19
  A 0.31 0.31 0.0 0 1 284.15 217.25
  Z"
/>
<path fill="#ffffff" d="
  M 81.90 242.31
  L 80.97 234.17
  A 0.83 0.83 0.0 0 1 81.22 233.49
  Q 90.84 224.57 103.97 224.52
  Q 105.11 224.52 104.19 225.19
  Q 92.92 233.31 82.54 242.55
  Q 81.98 243.05 81.90 242.31
  Z"
/>
<path fill="#b2b2b2" d="
  M 223.95 226.83
  Q 229.78 231.41 227.93 239.10
  A 2.09 2.04 -13.6 0 1 227.24 240.20
  Q 217.66 248.19 205.26 249.20
  A 1.01 1.01 0.0 0 1 204.19 248.02
  Q 204.66 245.28 203.46 242.81
  A 1.21 1.20 45.8 0 1 203.47 241.74
  L 204.33 240.04
  A 0.69 0.68 39.5 0 0 204.25 239.30
  Q 201.29 235.55 202.77 230.40
  A 0.99 0.99 0.0 0 1 203.39 229.74
  Q 206.92 228.48 209.58 225.86
  A 1.28 1.27 22.7 0 1 210.47 225.50
  C 214.09 225.49 221.14 224.62 223.95 226.83
  Z"
/>
<path fill="#d7d7d7" d="
  M 185.89 226.32
  L 179.05 244.26
  A 1.48 1.46 -7.4 0 1 178.52 244.94
  Q 177.03 245.99 176.64 247.82
  Q 176.35 249.15 177.27 248.14
  Q 179.31 245.90 179.92 242.95
  Q 180.01 242.49 180.24 242.09
  L 183.31 236.70
  A 0.53 0.53 0.0 0 1 184.05 236.51
  C 185.37 237.35 185.09 242.75 185.54 244.25
  C 180.81 248.13 166.72 254.16 161.59 248.73
  C 153.24 239.92 170.09 229.96 176.23 226.72
  Q 177.87 225.85 185.89 226.32
  Z"
/>
<path fill="#b2b2b2" d="
  M 185.89 226.32
  Q 187.88 227.15 188.75 230.50
  Q 190.92 238.87 185.54 244.25
  C 185.09 242.75 185.37 237.35 184.05 236.51
  A 0.53 0.53 0.0 0 0 183.31 236.70
  L 180.24 242.09
  Q 180.01 242.49 179.92 242.95
  Q 179.31 245.90 177.27 248.14
  Q 176.35 249.15 176.64 247.82
  Q 177.03 245.99 178.52 244.94
  A 1.48 1.46 -7.4 0 0 179.05 244.26
  L 185.89 226.32
  Z"
/>
<path fill="#ffffff" d="
  M 82.55 246.02
  Q 94.17 235.22 107.69 226.93
  A 0.67 0.66 55.1 0 1 108.57 227.09
  C 112.67 232.33 113.01 242.49 111.75 248.25
  C 109.80 257.15 90.77 260.44 83.47 260.79
  A 0.51 0.51 0.0 0 1 82.93 260.31
  L 82.14 247.05
  A 1.30 1.26 67.5 0 1 82.55 246.02
  Z"
/>
<path fill="#ffffff" d="
  M 265.00 234.21
  Q 265.16 234.33 265.28 234.52
  A 0.80 0.78 -48.8 0 1 265.32 235.25
  Q 264.59 236.82 265.04 238.53
  Q 265.19 239.12 265.05 239.70
  L 263.95 244.09
  A 0.76 0.75 -84.2 0 1 263.26 244.66
  L 261.74 244.76
  A 0.65 0.65 0.0 0 1 261.06 244.26
  L 260.21 240.75
  L 265.00 234.21
  Z"
/>
<path fill="#cbcbcb" d="
  M 236.46 297.25
  Q 236.06 297.86 236.48 298.44
  A 0.60 0.59 -42.9 0 1 236.45 299.18
  L 226.21 311.02
  L 129.94 311.00
  C 128.78 310.70 125.71 310.90 125.39 310.61
  A 0.45 0.45 0.0 0 1 125.43 309.90
  L 145.54 295.75
  Q 146.60 295.24 147.38 295.30
  Q 167.15 298.49 184.55 289.01
  C 188.78 286.70 192.04 282.82 196.16 280.82
  C 199.97 278.97 201.48 278.17 203.98 274.63
  Q 205.27 272.81 206.67 271.46
  C 215.28 263.17 220.59 257.37 225.94 248.64
  C 226.94 247.01 232.48 244.02 229.21 241.75
  L 235.06 235.83
  Q 235.50 235.38 235.28 235.97
  C 232.97 242.04 231.73 245.48 233.85 251.96
  A 1.29 1.27 6.3 0 0 234.44 252.69
  Q 236.17 253.70 236.16 255.06
  Q 236.00 274.78 235.44 294.49
  Q 235.39 296.13 236.46 297.25
  Z
  M 219.34 306.87
  Q 218.89 307.46 218.99 308.27
  Q 219.08 309.00 219.55 308.43
  Q 220.60 307.15 219.98 305.76
  A 1.01 1.01 0.0 0 1 220.06 304.80
  L 220.76 303.75
  Q 222.30 301.43 220.00 303.57
  Q 218.96 304.54 219.48 305.96
  A 0.94 0.92 -36.8 0 1 219.34 306.87
  Z"
/>
<path fill="#d7d7d7" d="
  M 149.53 236.88
  C 149.75 242.41 147.73 252.06 140.46 250.00
  L 149.53 236.88
  Z"
/>
<path fill="#b2b2b2" d="
  M 229.21 241.75
  C 232.48 244.02 226.94 247.01 225.94 248.64
  C 220.59 257.37 215.28 263.17 206.67 271.46
  Q 205.27 272.81 203.98 274.63
  C 201.48 278.17 199.97 278.97 196.16 280.82
  C 192.04 282.82 188.78 286.70 184.55 289.01
  Q 167.15 298.49 147.38 295.30
  Q 153.81 284.64 162.86 277.04
  Q 163.22 276.74 163.67 276.63
  L 164.83 276.35
  A 0.91 0.90 0.4 0 0 165.48 275.72
  Q 167.74 268.09 173.06 262.13
  Q 174.23 260.82 172.66 261.63
  Q 171.21 262.37 170.42 263.75
  Q 169.97 264.54 169.81 263.65
  C 169.55 262.11 170.94 259.85 172.82 260.77
  A 0.66 0.66 0.0 0 0 173.59 260.65
  C 175.16 259.13 178.81 256.24 176.75 254.71
  Q 186.47 248.59 193.55 239.50
  Q 193.80 239.18 193.87 239.58
  Q 194.81 244.73 191.85 248.88
  Q 190.30 251.06 190.93 253.67
  Q 191.90 257.64 195.94 257.43
  A 0.53 0.52 88.0 0 1 196.50 257.96
  L 196.50 259.41
  A 0.73 0.71 -80.3 0 0 196.97 260.09
  C 197.25 260.19 197.53 260.06 197.74 259.83
  C 200.09 257.22 202.65 257.49 205.26 256.60
  Q 218.92 251.98 229.21 241.75
  Z"
/>
<path fill="#d7d7d7" d="
  M 176.75 254.71
  C 178.81 256.24 175.16 259.13 173.59 260.65
  A 0.66 0.66 0.0 0 1 172.82 260.77
  C 170.94 259.85 169.55 262.11 169.81 263.65
  Q 169.97 264.54 170.42 263.75
  Q 171.21 262.37 172.66 261.63
  Q 174.23 260.82 173.06 262.13
  Q 167.74 268.09 165.48 275.72
  A 0.91 0.90 0.4 0 1 164.83 276.35
  L 163.67 276.63
  Q 163.22 276.74 162.86 277.04
  Q 153.81 284.64 147.38 295.30
  Q 146.60 295.24 145.54 295.75
  L 145.34 295.48
  A 0.81 0.80 72.6 0 0 144.68 295.13
  C 132.65 294.97 122.87 285.20 127.46 272.70
  Q 129.48 267.20 130.14 263.24
  C 138.92 260.86 143.31 256.17 150.36 249.06
  Q 150.71 248.71 150.65 249.19
  C 148.77 264.96 169.91 258.70 176.75 254.71
  Z"
/>
<ellipse fill="#ffffff" cx="0.00" cy="0.00" transform="translate(259.46,254.84) rotate(82.7)" rx="0.89" ry="0.57"/>
<path fill="#ffffff" d="
  M 250.17 273.93
  Q 250.18 273.50 250.41 273.11
  Q 250.70 272.62 250.75 273.19
  Q 250.86 274.46 250.46 275.69
  Q 250.21 276.46 249.97 275.69
  Q 249.76 274.98 250.06 274.40
  Q 250.17 274.18 250.17 273.93
  Z"
/>
<path fill="#d7d7d7" d="
  M 107.69 311.00
  L 62.13 310.95
  Q 67.56 305.39 71.99 302.25
  C 81.91 295.22 110.16 286.05 111.87 306.72
  Q 112.23 311.16 107.69 311.00
  Z"
/>
<path fill="#ffffff" d="
  M 219.48 305.96
  Q 218.96 304.54 220.00 303.57
  Q 222.30 301.43 220.76 303.75
  L 220.06 304.80
  A 1.01 1.01 0.0 0 0 219.98 305.76
  Q 220.60 307.15 219.55 308.43
  Q 219.08 309.00 218.99 308.27
  Q 218.89 307.46 219.34 306.87
  A 0.94 0.92 -36.8 0 0 219.48 305.96
  Z"
/>
</svg>
